<svg width="21" height="21" viewBox="0 0 21 21" fill="none" xmlns="http://www.w3.org/2000/svg">
<path d="M2.5 11L16 10.5L15.5 11.5L15 12.5C14.1667 13.1667 12.4 14.5 12 14.5C11.6 14.5 10.8333 15.8333 10.5 16.5L8.5 18H7.5L6 17L4.5 15.5L2 13.5L2.5 11Z" fill="white"/>
<path d="M16.3346 10.6052L11.2836 15.6699C9.79772 17.1598 9.05472 17.9048 8.14291 17.9871C7.99217 18.0008 7.84051 18.0008 7.68977 17.9871C6.77793 17.9048 6.03496 17.1598 4.54902 15.6699L2.86536 13.9816C1.9355 13.0492 1.9355 11.5376 2.86536 10.6052M16.3346 10.6052L9.59997 3.85229M16.3346 10.6052H2.86536M2.86536 10.6052L9.59997 3.85229M9.59997 3.85229L7.91635 2.16406" stroke="white" stroke-width="1.25" stroke-linecap="round" stroke-linejoin="round"/>
<path d="M18.8333 17.1641C18.8333 18.0846 18.0872 18.8307 17.1667 18.8307C16.2462 18.8307 15.5 18.0846 15.5 17.1641C15.5 16.2436 17.1667 14.6641 17.1667 14.6641C17.1667 14.6641 18.8333 16.2436 18.8333 17.1641Z" stroke="white" stroke-width="1.25" stroke-linecap="round" stroke-linejoin="round"/>
</svg>
