<svg width="21" height="21" viewBox="0 0 21 21" fill="none" xmlns="http://www.w3.org/2000/svg">
<path d="M7.1699 6.7474C7.1699 6.04415 7.10042 5.23249 7.7949 4.83153C8.08496 4.66406 8.47438 4.66406 9.25322 4.66406H10.0865C10.8654 4.66406 11.2548 4.66406 11.5449 4.83153C12.2394 5.23249 12.1699 6.04415 12.1699 6.7474C12.1699 7.45064 12.2394 8.2623 11.5449 8.66326C11.2548 8.83073 10.8654 8.83073 10.0865 8.83073H9.25322C8.47438 8.83073 8.08496 8.83073 7.7949 8.66326C7.10042 8.2623 7.1699 7.45064 7.1699 6.7474Z" stroke="white" stroke-width="1.25" stroke-linecap="round" stroke-linejoin="round"/>
<path d="M7.1699 14.2474C7.1699 13.5441 7.10042 12.7325 7.7949 12.3316C8.08496 12.1641 8.47438 12.1641 9.25322 12.1641H15.0865C15.8654 12.1641 16.2548 12.1641 16.5449 12.3316C17.2394 12.7325 17.1699 13.5441 17.1699 14.2474C17.1699 14.9506 17.2394 15.7623 16.5449 16.1632C16.2548 16.3307 15.8654 16.3307 15.0865 16.3307H9.25322C8.47438 16.3307 8.08496 16.3307 7.7949 16.1632C7.10042 15.7623 7.1699 14.9506 7.1699 14.2474Z" stroke="white" stroke-width="1.25" stroke-linecap="round" stroke-linejoin="round"/>
<path d="M3.83203 2.16406V18.8307" stroke="white" stroke-width="1.25" stroke-linecap="round" stroke-linejoin="round"/>
</svg>
