<svg width="16" height="16" viewBox="0 0 16 16" fill="none" xmlns="http://www.w3.org/2000/svg">
<path d="M5 6C5.55228 6 6 5.55228 6 5C6 4.44772 5.55228 4 5 4C4.44772 4 4 4.44772 4 5C4 5.55228 4.44772 6 5 6Z" stroke="black" stroke-linecap="round" stroke-linejoin="round"/>
<path d="M1.66797 7.9974C1.66797 5.01184 1.66797 3.51906 2.59546 2.59156C3.52296 1.66406 5.01574 1.66406 8.0013 1.66406C10.9868 1.66406 12.4796 1.66406 13.4072 2.59156C14.3346 3.51906 14.3346 5.01184 14.3346 7.9974C14.3346 10.9829 14.3346 12.4757 13.4072 13.4033C12.4796 14.3307 10.9868 14.3307 8.0013 14.3307C5.01574 14.3307 3.52296 14.3307 2.59546 13.4033C1.66797 12.4757 1.66797 10.9829 1.66797 7.9974Z" stroke="black"/>
<path d="M3.33203 14C6.247 10.5166 9.51476 5.92267 14.3304 9.02823" stroke="black"/>
</svg>
