<svg width="24" height="24" viewBox="0 0 24 24" fill="none" xmlns="http://www.w3.org/2000/svg">
<path d="M2.49609 12C2.49609 7.52166 2.49609 5.28249 3.88733 3.89124C5.27858 2.5 7.51775 2.5 11.9961 2.5C16.4744 2.5 18.7136 2.5 20.1049 3.89124C21.4961 5.28249 21.4961 7.52166 21.4961 12C21.4961 16.4783 21.4961 18.7175 20.1049 20.1088C18.7136 21.5 16.4744 21.5 11.9961 21.5C7.51775 21.5 5.27858 21.5 3.88733 20.1088C2.49609 18.7175 2.49609 16.4783 2.49609 12Z" stroke="white" stroke-width="1.5" stroke-linejoin="round"/>
<path d="M9.99609 15.5C9.99609 16.3284 9.32452 17 8.49609 17C7.66766 17 6.99609 16.3284 6.99609 15.5C6.99609 14.6716 7.66766 14 8.49609 14C9.32452 14 9.99609 14.6716 9.99609 15.5Z" stroke="white" stroke-width="1.5"/>
<path d="M17 8.5C17 7.67157 16.3284 7 15.5 7C14.6716 7 14 7.67157 14 8.5C14 9.32843 14.6716 10 15.5 10C16.3284 10 17 9.32843 17 8.5Z" stroke="white" stroke-width="1.5"/>
<path d="M8.49609 14V7" stroke="white" stroke-width="1.5" stroke-linecap="round"/>
<path d="M15.5 10V17" stroke="white" stroke-width="1.5" stroke-linecap="round"/>
</svg>
