<svg width="24" height="24" viewBox="0 0 24 24" fill="none" xmlns="http://www.w3.org/2000/svg">
<path d="M12.0117 17.6875C15.0497 17.6875 17.5117 15.225 17.5117 12.1875C17.5117 9.15 15.0497 6.6875 12.0117 6.6875C8.97372 6.6875 6.51172 9.1495 6.51172 12.1875C6.51172 15.2255 8.97422 17.6875 12.0117 17.6875Z" stroke="white" stroke-width="2" stroke-linejoin="round"/>
<path d="M19.4773 4.50781L18.2473 5.74481M5.53081 18.3753L4.50781 19.4048M11.9973 20.6793V22.1793M21.9973 11.6798H19.9973M18.7633 18.1708L19.9973 19.4048" stroke="white" stroke-width="2" stroke-linecap="round"/>
<path fill-rule="evenodd" clip-rule="evenodd" d="M12.0117 8.67969C11.5521 8.67969 11.097 8.77022 10.6723 8.94611C10.2477 9.122 9.86185 9.37981 9.53685 9.70481C9.21184 10.0298 8.95403 10.4157 8.77814 10.8403C8.60225 11.2649 8.51172 11.7201 8.51172 12.1797C8.51172 12.6393 8.60225 13.0944 8.77814 13.5191C8.95403 13.9437 9.21184 14.3296 9.53685 14.6546C9.86185 14.9796 10.2477 15.2374 10.6723 15.4133C11.097 15.5892 11.5521 15.6797 12.0117 15.6797" fill="white"/>
<path d="M2 12.1797H4M5.022 4.50769L6.0485 5.53419M12 1.67969V3.67969" stroke="white" stroke-width="2" stroke-linecap="round"/>
</svg>
