<svg width="24" height="25" viewBox="0 0 24 25" fill="none" xmlns="http://www.w3.org/2000/svg">
<path d="M14.0573 15.1667L14.732 17.0147C14.9587 17.636 15.7107 17.9773 16.412 17.7747C17.112 17.5747 17.496 16.9067 17.2693 16.2853L14.536 8.80533C14.2733 8.08267 13.636 7.516 12.8227 7.28267C11.4227 6.88 9.91733 7.56133 9.46267 8.804L6.73333 16.284C6.50667 16.9067 6.89067 17.5733 7.59067 17.776C8.29067 17.976 9.044 17.636 9.27067 17.0147L9.944 15.1667H14.0573ZM13.084 12.5H10.9173L12 9.53467L13.084 12.5ZM6.66667 4.5H17.3333C18.0406 4.5 18.7189 4.78095 19.219 5.28105C19.719 5.78115 20 6.45942 20 7.16667V17.8333C20 18.5406 19.719 19.2189 19.219 19.719C18.7189 20.219 18.0406 20.5 17.3333 20.5H6.66667C5.95942 20.5 5.28115 20.219 4.78105 19.719C4.28095 19.2189 4 18.5406 4 17.8333V7.16667C4 6.45942 4.28095 5.78115 4.78105 5.28105C5.28115 4.78095 5.95942 4.5 6.66667 4.5Z" fill="white"/>
</svg>
