<svg width="18" height="19" viewBox="0 0 18 19" fill="none" xmlns="http://www.w3.org/2000/svg">
<path d="M13.6511 8.0918C13.2317 7.97762 12.7903 7.91667 12.3346 7.91667C10.2236 7.91667 8.41814 9.22492 7.6848 11.0748M13.6511 8.0918C15.7739 8.66967 17.3346 10.6109 17.3346 12.9167C17.3346 15.6781 15.0961 17.9167 12.3346 17.9167C11.0541 17.9167 9.88589 17.4352 9.0013 16.6435M13.6511 8.0918C13.8771 7.52182 14.0013 6.90042 14.0013 6.25C14.0013 3.48857 11.7627 1.25 9.0013 1.25C6.23988 1.25 4.0013 3.48857 4.0013 6.25C4.0013 6.90042 4.12549 7.52182 4.35145 8.0918M7.6848 11.0748C7.4588 11.6448 7.33464 12.2662 7.33464 12.9167C7.33464 14.3975 7.97839 15.728 9.0013 16.6435M7.6848 11.0748C6.16085 10.66 4.92654 9.5425 4.35145 8.0918M9.0013 16.6435C8.11672 17.4352 6.94856 17.9167 5.66797 17.9167C2.90654 17.9167 0.667969 15.6781 0.667969 12.9167C0.667969 10.6109 2.22875 8.66967 4.35145 8.0918" stroke="white" stroke-width="1.25" stroke-linecap="round"/>
</svg>
