<svg width="21" height="21" viewBox="0 0 21 21" fill="none" xmlns="http://www.w3.org/2000/svg">
<path d="M18.8333 8.55726V12.4461M14.25 3.0142C13.8337 2.9999 13.4168 2.99917 13 3.00042M14.25 17.989C13.8337 18.0034 13.4168 18.0041 13 18.0029M16.5456 3.4492C17.3442 3.85264 17.9928 4.5037 18.3932 5.30417M18.4167 15.6514C18.0184 16.4737 17.36 17.1426 16.5456 17.554" stroke="white" stroke-width="1.25" stroke-linecap="round"/>
<path d="M10.5052 5.08751C10.5052 3.45579 9.97371 3.00579 8.42187 3.00579C6.31214 3.00579 3.87715 2.79751 2.67428 4.87934C2.17188 5.74886 2.17188 6.91622 2.17188 9.25093V11.749C2.17188 14.0838 2.17188 15.2511 2.67428 16.1207C3.87715 18.2025 6.31214 17.9942 8.42187 17.9942C9.97371 17.9942 10.5052 17.5442 10.5052 15.9125V5.08751Z" stroke="white" stroke-width="1.25"/>
</svg>
