<svg width="21" height="21" viewBox="0 0 21 21" fill="none" xmlns="http://www.w3.org/2000/svg">
<path d="M12.168 16.3307L9.75705 9.45398C8.63754 6.2607 8.07778 4.66406 7.16797 4.66406C6.25816 4.66406 5.6984 6.2607 4.57888 9.45398L2.16797 16.3307M4.2513 10.4974H10.0846" stroke="white" stroke-width="1.25" stroke-linecap="round" stroke-linejoin="round"/>
<path d="M18.8067 12.1145V15.8645M18.8067 12.1145C18.846 11.4286 18.8475 10.9061 18.7652 10.4796C18.571 9.47428 17.5205 8.86845 16.504 8.74519C15.5311 8.62726 14.7503 8.8777 13.9603 10.0288M18.8067 12.1145H16.437C16.073 12.1145 15.7058 12.1321 15.355 12.2296C13.2111 12.8256 13.3683 15.8321 15.5185 16.2027C15.7573 16.2439 16.0011 16.2615 16.243 16.2507C16.8076 16.2255 17.3286 15.9527 17.7758 15.607C18.2994 15.2019 18.8067 14.6365 18.8067 13.7812V12.1145Z" stroke="white" stroke-width="1.25" stroke-linecap="round" stroke-linejoin="round"/>
</svg>
