<svg width="21" height="21" viewBox="0 0 21 21" fill="none" xmlns="http://www.w3.org/2000/svg">
<path d="M3 12.9896C3 15.7394 3 17.1143 3.85427 17.9687C4.70854 18.8229 6.08348 18.8229 8.83333 18.8229C11.5832 18.8229 12.9581 18.8229 13.8124 17.9687C14.6667 17.1143 14.6667 15.7394 14.6667 12.9896C14.6667 10.2398 14.6667 8.86483 13.8124 8.01053C12.9581 7.15625 11.5832 7.15625 8.83333 7.15625C6.08348 7.15625 4.70854 7.15625 3.85427 8.01053C3 8.86483 3 10.2398 3 12.9896Z" stroke="white" stroke-width="1.25" stroke-linecap="round" stroke-linejoin="round"/>
<path d="M12.5168 2.15625L11.3953 3.08136C10.7984 3.57378 10.5 3.81999 10.5 4.12595H11.3333C14.476 4.12595 16.0474 4.12595 17.0237 5.10226C18 6.07857 18 7.64993 18 10.7926V11.3229" stroke="white" stroke-width="1.25" stroke-linecap="round" stroke-linejoin="round"/>
</svg>
