<svg width="24" height="24" viewBox="0 0 24 24" fill="none" xmlns="http://www.w3.org/2000/svg">
<path d="M5.622 20C5.15734 20 4.77067 19.846 4.462 19.538C4.15334 19.23 3.99934 18.8454 4 18.384V5.61602C4 5.15535 4.15434 4.77102 4.463 4.46302C4.77167 4.15502 5.158 4.00068 5.622 4.00002H9.846V20H5.622ZM12 20C11.7933 20 11.6133 19.9234 11.46 19.77C11.3067 19.6167 11.23 19.4367 11.23 19.23C11.23 19.0233 11.3067 18.8437 11.46 18.691C11.6133 18.5384 11.7933 18.4617 12 18.461C12.2067 18.4604 12.3867 18.537 12.54 18.691C12.6933 18.845 12.77 19.025 12.77 19.231C12.77 19.437 12.6933 19.617 12.54 19.771C12.3867 19.925 12.2067 20.0014 12 20ZM12 16.384C11.7933 16.384 11.6133 16.3074 11.46 16.154C11.3067 16.0013 11.23 15.822 11.23 15.616C11.23 15.41 11.3067 15.23 11.46 15.076C11.6133 14.922 11.7933 14.8454 12 14.846C12.2067 14.8467 12.3867 14.9234 12.54 15.076C12.6933 15.2287 12.77 15.4087 12.77 15.616C12.77 15.8234 12.6933 16.003 12.54 16.155C12.3867 16.307 12.2067 16.3827 12 16.384ZM12 12.769C11.7933 12.769 11.6133 12.6924 11.46 12.539C11.3067 12.3857 11.23 12.206 11.23 12C11.23 11.794 11.3067 11.614 11.46 11.46C11.6133 11.306 11.7933 11.2294 12 11.23C12.2067 11.2307 12.3867 11.3074 12.54 11.46C12.6933 11.6127 12.77 11.7927 12.77 12C12.77 12.2074 12.6933 12.3874 12.54 12.54C12.3867 12.6927 12.2067 12.7694 12 12.77M12 9.15402C11.7933 9.15402 11.6133 9.07735 11.46 8.92402C11.3067 8.77068 11.23 8.59068 11.23 8.38402C11.23 8.17735 11.3067 7.99768 11.46 7.84502C11.6133 7.69235 11.7933 7.61568 12 7.61502C12.2067 7.61435 12.3867 7.69102 12.54 7.84502C12.6933 7.99902 12.77 8.17902 12.77 8.38502C12.77 8.59102 12.6933 8.77068 12.54 8.92402C12.3867 9.07735 12.2067 9.15402 12 9.15402ZM12 5.53802C11.7933 5.53802 11.6133 5.46135 11.46 5.30802C11.3067 5.15468 11.23 4.97502 11.23 4.76902C11.23 4.56302 11.3067 4.38302 11.46 4.22902C11.6133 4.07502 11.7933 3.99868 12 4.00002C12.2067 4.00135 12.3867 4.07802 12.54 4.23002C12.6933 4.38202 12.77 4.56202 12.77 4.77002C12.77 4.97802 12.6933 5.15768 12.54 5.30902C12.3867 5.46035 12.2067 5.53602 12 5.53802ZM13.866 18.192C13.6593 18.192 13.4793 18.1154 13.326 17.962C13.1727 17.8087 13.096 17.629 13.096 17.423C13.096 17.217 13.1727 17.037 13.326 16.883C13.4793 16.729 13.6593 16.6524 13.866 16.653C14.0727 16.6537 14.2523 16.7303 14.405 16.883C14.5577 17.0357 14.6343 17.2157 14.635 17.423C14.6357 17.6304 14.559 17.8103 14.405 17.963C14.251 18.1157 14.071 18.1924 13.865 18.193M13.865 14.577C13.6583 14.577 13.4787 14.5004 13.326 14.347C13.1733 14.1937 13.0967 14.0137 13.096 13.807C13.0953 13.6004 13.172 13.4207 13.326 13.268C13.48 13.1153 13.66 13.0387 13.866 13.038C14.072 13.0374 14.2517 13.114 14.405 13.268C14.5583 13.422 14.635 13.602 14.635 13.808C14.635 14.014 14.5583 14.1937 14.405 14.347C14.2517 14.5004 14.0717 14.577 13.865 14.577ZM13.865 10.962C13.6583 10.962 13.4787 10.8854 13.326 10.732C13.1733 10.5787 13.0967 10.3987 13.096 10.192C13.0953 9.98535 13.172 9.80568 13.326 9.65302C13.48 9.50035 13.66 9.42368 13.866 9.42302C14.072 9.42235 14.2517 9.49902 14.405 9.65302C14.5583 9.80702 14.635 9.98702 14.635 10.193C14.635 10.399 14.5583 10.5787 14.405 10.732C14.2517 10.8854 14.0717 10.962 13.865 10.962ZM13.865 7.34602C13.6583 7.34602 13.4787 7.26935 13.326 7.11602C13.1733 6.96268 13.0967 6.78302 13.096 6.57702C13.0953 6.37102 13.172 6.19102 13.326 6.03702C13.48 5.88302 13.66 5.80635 13.866 5.80702C14.072 5.80768 14.2517 5.88435 14.405 6.03702C14.5583 6.18968 14.635 6.36968 14.635 6.57702C14.635 6.78435 14.5583 6.96435 14.405 7.11702C14.2517 7.27035 14.0717 7.34602 13.865 7.34602ZM15.75 20C15.5433 20 15.3633 19.9234 15.21 19.77C15.0567 19.6167 14.98 19.4367 14.98 19.23C14.98 19.0233 15.0567 18.8437 15.21 18.691C15.3633 18.5384 15.5433 18.4617 15.75 18.461C15.9567 18.4604 16.1367 18.537 16.29 18.691C16.4433 18.845 16.52 19.025 16.52 19.231C16.52 19.437 16.4433 19.617 16.29 19.771C16.1367 19.925 15.9567 20.0014 15.75 20ZM15.75 16.384C15.5433 16.384 15.3633 16.3074 15.21 16.154C15.0567 16.0013 14.98 15.822 14.98 15.616C14.98 15.41 15.0567 15.23 15.21 15.076C15.3633 14.922 15.5433 14.8454 15.75 14.846C15.9567 14.8467 16.1367 14.9234 16.29 15.076C16.4433 15.2287 16.52 15.4087 16.52 15.616C16.52 15.8234 16.4433 16.003 16.29 16.155C16.1367 16.307 15.9567 16.3827 15.75 16.384ZM15.75 12.769C15.5433 12.769 15.3633 12.6924 15.21 12.539C15.0567 12.3857 14.98 12.206 14.98 12C14.98 11.794 15.0567 11.614 15.21 11.46C15.3633 11.306 15.5433 11.2294 15.75 11.23C15.9567 11.2307 16.1367 11.3074 16.29 11.46C16.4433 11.6127 16.52 11.7927 16.52 12C16.52 12.2074 16.4433 12.3874 16.29 12.54C16.1367 12.6927 15.9567 12.7694 15.75 12.77M15.75 9.15402C15.5433 9.15402 15.3633 9.07735 15.21 8.92402C15.0567 8.77068 14.98 8.59068 14.98 8.38402C14.98 8.17735 15.0567 7.99768 15.21 7.84502C15.3633 7.69235 15.5433 7.61568 15.75 7.61502C15.9567 7.61435 16.1367 7.69102 16.29 7.84502C16.4433 7.99902 16.52 8.17902 16.52 8.38502C16.52 8.59102 16.4433 8.77068 16.29 8.92402C16.1367 9.07735 15.9567 9.15402 15.75 9.15402ZM15.75 5.53802C15.5433 5.53802 15.3633 5.46135 15.21 5.30802C15.0567 5.15468 14.98 4.97502 14.98 4.76902C14.98 4.56302 15.0567 4.38302 15.21 4.22902C15.3633 4.07502 15.5433 3.99868 15.75 4.00002C15.9567 4.00135 16.1367 4.07802 16.29 4.23002C16.4433 4.38202 16.52 4.56202 16.52 4.77002C16.52 4.97802 16.4433 5.15768 16.29 5.30902C16.1367 5.46035 15.9567 5.53602 15.75 5.53802ZM17.616 18.192C17.4093 18.192 17.2293 18.1154 17.076 17.962C16.9227 17.8087 16.846 17.629 16.846 17.423C16.846 17.217 16.9227 17.037 17.076 16.883C17.2293 16.729 17.4093 16.6524 17.616 16.653C17.8227 16.6537 18.0023 16.7303 18.155 16.883C18.3077 17.0357 18.3843 17.2157 18.385 17.423C18.3857 17.6304 18.309 17.8103 18.155 17.963C18.001 18.1157 17.821 18.1924 17.615 18.193M17.615 14.577C17.4083 14.577 17.2317 14.5004 17.085 14.347C16.9383 14.1937 16.865 14.0137 16.865 13.807C16.865 13.6004 16.937 13.4207 17.081 13.268C17.225 13.1153 17.4033 13.0387 17.616 13.038C17.822 13.038 18.0017 13.1147 18.155 13.268C18.3083 13.4214 18.385 13.6013 18.385 13.808C18.385 14.0147 18.3083 14.1944 18.155 14.347C18.0017 14.4997 17.8217 14.5764 17.615 14.577ZM17.635 10.962C17.4283 10.962 17.2483 10.8854 17.095 10.732C16.9417 10.5787 16.865 10.3987 16.865 10.192C16.865 9.98535 16.9417 9.80568 17.095 9.65302C17.2483 9.50035 17.4283 9.42368 17.635 9.42302C17.8417 9.42235 18.0213 9.49902 18.174 9.65302C18.3267 9.80702 18.4033 9.98702 18.404 10.193C18.4047 10.399 18.328 10.5787 18.174 10.732C18.02 10.8854 17.841 10.962 17.635 10.962ZM17.634 7.34602C17.428 7.34602 17.2483 7.26935 17.095 7.11602C16.9417 6.96268 16.865 6.78302 16.865 6.57702C16.865 6.37102 16.9417 6.19102 17.095 6.03702C17.2483 5.88302 17.4283 5.80635 17.635 5.80702C17.8417 5.80768 18.0213 5.88435 18.174 6.03702C18.3267 6.18968 18.4033 6.36968 18.404 6.57702C18.4047 6.78435 18.328 6.96435 18.174 7.11702C18.0207 7.27035 17.8407 7.34602 17.634 7.34602ZM19.232 20C19.0253 20 18.8453 19.9234 18.692 19.77C18.5387 19.6167 18.462 19.4367 18.462 19.23C18.462 19.0233 18.5387 18.8437 18.692 18.691C18.8453 18.5384 19.0253 18.4617 19.232 18.461C19.4387 18.4604 19.6187 18.537 19.772 18.691C19.9253 18.845 20.0017 19.025 20.001 19.231C20.0003 19.437 19.9237 19.617 19.771 19.771C19.6183 19.925 19.4393 20.0014 19.232 20ZM19.231 16.384C19.025 16.384 18.8453 16.3074 18.692 16.154C18.5387 16.0013 18.462 15.822 18.462 15.616C18.462 15.41 18.5387 15.23 18.692 15.076C18.8453 14.922 19.0253 14.8454 19.232 14.846C19.4387 14.8467 19.6187 14.9234 19.772 15.076C19.9253 15.2287 20.0017 15.4087 20.001 15.616C20.0003 15.8234 19.9237 16.003 19.771 16.155C19.6183 16.307 19.4383 16.3827 19.231 16.384ZM19.251 12.769C19.0443 12.769 18.8643 12.6924 18.711 12.539C18.5577 12.3857 18.4807 12.206 18.48 12C18.4793 11.794 18.556 11.614 18.71 11.46C18.864 11.306 19.044 11.2294 19.25 11.23C19.456 11.2307 19.636 11.3074 19.79 11.46C19.944 11.6127 20.0207 11.7927 20.02 12C20.0193 12.2074 19.9427 12.3874 19.79 12.54C19.6373 12.6927 19.4573 12.7694 19.25 12.77M19.25 9.15402C19.0433 9.15402 18.8633 9.07735 18.71 8.92402C18.5567 8.77068 18.48 8.59068 18.48 8.38402C18.48 8.17735 18.5567 7.99768 18.71 7.84502C18.8633 7.69235 19.0433 7.61568 19.25 7.61502C19.4567 7.61435 19.6367 7.69102 19.79 7.84502C19.9433 7.99902 20.02 8.17902 20.02 8.38502C20.02 8.59102 19.9433 8.77068 19.79 8.92402C19.6367 9.07735 19.4567 9.15402 19.25 9.15402ZM19.25 5.53802C19.0433 5.53802 18.8633 5.46135 18.71 5.30802C18.5567 5.15468 18.48 4.97502 18.48 4.76902C18.48 4.56302 18.5567 4.38302 18.71 4.22902C18.8633 4.07502 19.0433 3.99868 19.25 4.00002C19.4567 4.00135 19.6367 4.07802 19.79 4.23002C19.9433 4.38202 20.02 4.56202 20.02 4.77002C20.02 4.97802 19.9433 5.15768 19.79 5.30902C19.6367 5.46035 19.4567 5.53602 19.25 5.53802Z" fill="white"/>
</svg>
