<svg width="21" height="21" viewBox="0 0 21 21" fill="none" xmlns="http://www.w3.org/2000/svg">
<path d="M10.5 16.3359V18.8359" stroke="white" stroke-opacity="0.6" stroke-width="1.25" stroke-linecap="round" stroke-linejoin="round"/>
<path d="M10.5 8.83594V12.1693" stroke="white" stroke-opacity="0.6" stroke-width="1.25" stroke-linecap="round" stroke-linejoin="round"/>
<path d="M10.5 2.16406V4.66406" stroke="white" stroke-opacity="0.6" stroke-width="1.25" stroke-linecap="round" stroke-linejoin="round"/>
<path d="M7.16599 6.7474C7.16599 6.04415 7.09652 5.23249 7.79099 4.83153C8.08106 4.66406 8.47049 4.66406 9.24936 4.66406H11.7494C12.5282 4.66406 12.9176 4.66406 13.2077 4.83153C13.9021 5.23249 13.8327 6.04415 13.8327 6.7474C13.8327 7.45064 13.9021 8.2623 13.2077 8.66326C12.9176 8.83073 12.5282 8.83073 11.7494 8.83073H9.24936C8.47049 8.83073 8.08106 8.83073 7.79099 8.66326C7.09652 8.2623 7.16599 7.45064 7.16599 6.7474Z" stroke="white" stroke-opacity="0.6" stroke-width="1.25" stroke-linecap="round" stroke-linejoin="round"/>
<path d="M3.83006 14.2474C3.83006 13.5441 3.76058 12.7325 4.45506 12.3316C4.74512 12.1641 5.13455 12.1641 5.91339 12.1641H15.0801C15.8589 12.1641 16.2483 12.1641 16.5384 12.3316C17.2328 12.7325 17.1634 13.5441 17.1634 14.2474C17.1634 14.9506 17.2328 15.7623 16.5384 16.1632C16.2483 16.3307 15.8589 16.3307 15.0801 16.3307H5.91339C5.13455 16.3307 4.74512 16.3307 4.45506 16.1632C3.76058 15.7623 3.83006 14.9506 3.83006 14.2474Z" stroke="white" stroke-opacity="0.6" stroke-width="1.25" stroke-linecap="round" stroke-linejoin="round"/>
</svg>
