<svg width="24" height="24" viewBox="0 0 24 24" fill="none" xmlns="http://www.w3.org/2000/svg">
<path d="M7.5 10.5C8.32843 10.5 9 9.82843 9 9C9 8.17157 8.32843 7.5 7.5 7.5C6.67157 7.5 6 8.17157 6 9C6 9.82843 6.67157 10.5 7.5 10.5Z" fill="white"/>
<path d="M12 8.25C12.8284 8.25 13.5 7.57843 13.5 6.75C13.5 5.92157 12.8284 5.25 12 5.25C11.1716 5.25 10.5 5.92157 10.5 6.75C10.5 7.57843 11.1716 8.25 12 8.25Z" fill="white"/>
<path d="M16.5 10.5C17.3284 10.5 18 9.82843 18 9C18 8.17157 17.3284 7.5 16.5 7.5C15.6716 7.5 15 8.17157 15 9C15 9.82843 15.6716 10.5 16.5 10.5Z" fill="white"/>
<path d="M17.25 15C18.0784 15 18.75 14.3284 18.75 13.5C18.75 12.6716 18.0784 12 17.25 12C16.4216 12 15.75 12.6716 15.75 13.5C15.75 14.3284 16.4216 15 17.25 15Z" fill="white"/>
<path d="M14.25 18.75C15.0784 18.75 15.75 18.0784 15.75 17.25C15.75 16.4216 15.0784 15.75 14.25 15.75C13.4216 15.75 12.75 16.4216 12.75 17.25C12.75 18.0784 13.4216 18.75 14.25 18.75Z" fill="white"/>
<path d="M12.405 1.49219C10.9924 1.43766 9.58338 1.66894 8.26234 2.17214C6.9413 2.67535 5.73548 3.44013 4.71716 4.42063C3.69884 5.40113 2.889 6.57716 2.33618 7.87821C1.78336 9.17927 1.49895 10.5786 1.5 11.9922C1.49997 12.5482 1.62818 13.0967 1.87466 13.5951C2.12115 14.0934 2.47927 14.5282 2.92117 14.8656C3.36308 15.2031 3.87685 15.434 4.42255 15.5405C4.96825 15.647 5.53116 15.6262 6.0675 15.4797L6.9075 15.2472C7.24166 15.156 7.59237 15.1431 7.9323 15.2097C8.27223 15.2762 8.5922 15.4204 8.8673 15.6309C9.14239 15.8414 9.36516 16.1125 9.51827 16.4232C9.67138 16.7339 9.75068 17.0758 9.75 17.4222V20.2422C9.75 20.8389 9.98706 21.4112 10.409 21.8332C10.831 22.2551 11.4033 22.4922 12 22.4922C13.4136 22.4932 14.8129 22.2088 16.114 21.656C17.415 21.1032 18.5911 20.2933 19.5716 19.275C20.5521 18.2567 21.3168 17.0509 21.82 15.7299C22.3233 14.4088 22.5545 12.9998 22.5 11.5872C22.3912 8.94469 21.2927 6.43974 19.4226 4.56963C17.5525 2.69952 15.0475 1.60101 12.405 1.49219ZM18.4875 18.2247C17.6501 19.1015 16.6432 19.7989 15.528 20.2747C14.4127 20.7504 13.2125 20.9945 12 20.9922C11.8011 20.9922 11.6103 20.9132 11.4697 20.7725C11.329 20.6319 11.25 20.4411 11.25 20.2422V17.4222C11.25 16.4276 10.8549 15.4738 10.1517 14.7705C9.44839 14.0673 8.49456 13.6722 7.5 13.6722C7.16295 13.6722 6.82743 13.7176 6.5025 13.8072L5.6625 14.0397C5.34876 14.1238 5.01987 14.1345 4.70133 14.0709C4.38279 14.0074 4.08317 13.8714 3.82569 13.6734C3.56821 13.4754 3.35979 13.2207 3.2166 12.9292C3.07341 12.6376 2.9993 12.317 3 11.9922C2.99907 10.78 3.24301 9.58019 3.71719 8.46463C4.19136 7.34907 4.886 6.34079 5.75942 5.50028C6.63285 4.65978 7.66706 4.00437 8.8 3.57339C9.93295 3.1424 11.1413 2.94471 12.3525 2.99219C14.6079 3.10966 16.7398 4.05844 18.3368 5.6554C19.9338 7.25237 20.8825 9.3843 21 11.6397C21.0512 12.8516 20.8548 14.0613 20.4228 15.1947C19.9908 16.3282 19.3323 17.3617 18.4875 18.2322V18.2247Z" fill="white"/>
</svg>
