<svg width="25" height="25" viewBox="0 0 25 25" fill="none" xmlns="http://www.w3.org/2000/svg">
<path d="M2.20312 6.32812C2.20313 5.23411 2.63772 4.1849 3.41131 3.41131C4.1849 2.63772 5.23411 2.20313 6.32812 2.20312H17.3281C18.4221 2.20313 19.4714 2.63772 20.2449 3.41131C21.0185 4.1849 21.4531 5.23411 21.4531 6.32812V11.2781C21.0135 11.0536 20.553 10.8726 20.0781 10.7377V6.32812C20.0781 5.59878 19.7884 4.89931 19.2727 4.38358C18.7569 3.86786 18.0575 3.57812 17.3281 3.57812H6.32812C5.59878 3.57812 4.89931 3.86786 4.38358 4.38358C3.86786 4.89931 3.57812 5.59878 3.57812 6.32812V17.3281C3.57812 18.0575 3.86786 18.7569 4.38358 19.2727C4.89931 19.7884 5.59878 20.0781 6.32812 20.0781H10.7377C10.8743 20.5585 11.0545 21.0168 11.2781 21.4531H6.32812C5.23411 21.4531 4.1849 21.0185 3.41131 20.2449C2.63772 19.4714 2.20313 18.4221 2.20312 17.3281V6.32812ZM9.04237 15.3385C9.459 15.5461 10.0324 15.7606 10.7611 15.8734C10.6314 16.3144 10.5421 16.7664 10.4944 17.2236C9.77616 17.1113 9.07928 16.8902 8.42775 16.5677C8.11828 16.4169 7.82365 16.2374 7.54775 16.0315C7.44444 15.9533 7.34487 15.8702 7.24937 15.7826L7.22875 15.7634L7.22187 15.7565L7.21912 15.7537L7.21637 15.7524C7.08692 15.6238 7.01382 15.4491 7.01318 15.2667C7.01254 15.0842 7.08439 14.909 7.21294 14.7796C7.34148 14.6501 7.51619 14.577 7.69863 14.5764C7.88107 14.5757 8.05629 14.6476 8.18575 14.7761L8.18987 14.7789L8.22012 14.8064C8.25129 14.8339 8.30217 14.8751 8.37275 14.9301C8.51575 15.0374 8.7385 15.1873 9.04237 15.3385ZM8.39062 10.4531C8.7553 10.4531 9.10503 10.3083 9.3629 10.0504C9.62076 9.79253 9.76562 9.4428 9.76562 9.07812C9.76562 8.71345 9.62076 8.36372 9.3629 8.10585C9.10503 7.84799 8.7553 7.70312 8.39062 7.70312C8.02595 7.70312 7.67622 7.84799 7.41835 8.10585C7.16049 8.36372 7.01562 8.71345 7.01562 9.07812C7.01562 9.4428 7.16049 9.79253 7.41835 10.0504C7.67622 10.3083 8.02595 10.4531 8.39062 10.4531ZM16.6406 9.07812C16.6406 9.4428 16.4958 9.79253 16.2379 10.0504C15.98 10.3083 15.6303 10.4531 15.2656 10.4531C14.901 10.4531 14.5512 10.3083 14.2934 10.0504C14.0355 9.79253 13.8906 9.4428 13.8906 9.07812C13.8906 8.71345 14.0355 8.36372 14.2934 8.10585C14.5512 7.84799 14.901 7.70312 15.2656 7.70312C15.6303 7.70312 15.98 7.84799 16.2379 8.10585C16.4958 8.36372 16.6406 8.71345 16.6406 9.07812ZM24.2031 18.0156C24.2031 19.6567 23.5512 21.2305 22.3908 22.3908C21.2305 23.5512 19.6567 24.2031 18.0156 24.2031C16.3746 24.2031 14.8008 23.5512 13.6404 22.3908C12.48 21.2305 11.8281 19.6567 11.8281 18.0156C11.8281 16.3746 12.48 14.8008 13.6404 13.6404C14.8008 12.48 16.3746 11.8281 18.0156 11.8281C19.6567 11.8281 21.2305 12.48 22.3908 13.6404C23.5512 14.8008 24.2031 16.3746 24.2031 18.0156ZM18.7031 15.2656C18.7031 15.0833 18.6307 14.9084 18.5018 14.7795C18.3728 14.6506 18.198 14.5781 18.0156 14.5781C17.8333 14.5781 17.6584 14.6506 17.5295 14.7795C17.4006 14.9084 17.3281 15.0833 17.3281 15.2656V17.3281H15.2656C15.0833 17.3281 14.9084 17.4006 14.7795 17.5295C14.6506 17.6584 14.5781 17.8333 14.5781 18.0156C14.5781 18.198 14.6506 18.3728 14.7795 18.5018C14.9084 18.6307 15.0833 18.7031 15.2656 18.7031H17.3281V20.7656C17.3281 20.948 17.4006 21.1228 17.5295 21.2518C17.6584 21.3807 17.8333 21.4531 18.0156 21.4531C18.198 21.4531 18.3728 21.3807 18.5018 21.2518C18.6307 21.1228 18.7031 20.948 18.7031 20.7656V18.7031H20.7656C20.948 18.7031 21.1228 18.6307 21.2518 18.5018C21.3807 18.3728 21.4531 18.198 21.4531 18.0156C21.4531 17.8333 21.3807 17.6584 21.2518 17.5295C21.1228 17.4006 20.948 17.3281 20.7656 17.3281H18.7031V15.2656Z" fill="white"/>
</svg>
