<svg width="21" height="20" viewBox="0 0 21 20" fill="none" xmlns="http://www.w3.org/2000/svg">
<path d="M15.0449 2.83799C14.7701 2.62935 14.3777 2.6834 14.1689 2.95811C13.9603 3.23293 14.0143 3.62529 14.2891 3.83408L15.25 4.56455C16.056 5.17686 16.6055 5.59611 16.9619 5.95713C16.9896 5.98516 17.0149 6.01299 17.0391 6.03916H8C4.89347 6.03916 2.3751 8.55765 2.375 11.6642C2.375 14.7708 4.89341 17.2892 8 17.2892H11.333C11.6782 17.2892 11.958 17.0093 11.958 16.6642C11.9579 16.3191 11.6781 16.0392 11.333 16.0392H8C5.58376 16.0392 3.625 14.0804 3.625 11.6642C3.6251 9.24801 5.58382 7.28916 8 7.28916H17.0488C17.0218 7.31866 16.9934 7.35003 16.9619 7.38193C16.6055 7.74294 16.056 8.16221 15.25 8.77451L14.2891 9.50498C14.0142 9.71375 13.9602 10.1061 14.1689 10.381C14.3778 10.6557 14.7701 10.7089 15.0449 10.5001L16.0059 9.76963C16.7807 9.18098 17.4174 8.6996 17.8516 8.25986C18.2952 7.81041 18.625 7.30951 18.625 6.66904C18.6248 6.02878 18.2952 5.52855 17.8516 5.0792C17.4174 4.63943 16.7808 4.15716 16.0059 3.56846L15.0449 2.83799Z" fill="white"/>
</svg>
