<svg width="29" height="31" viewBox="0 0 29 31" fill="none" xmlns="http://www.w3.org/2000/svg">
<path d="M23 9.125L22.2977 20.4868C22.1182 23.3896 22.0285 24.841 21.3009 25.8846C20.9411 26.4005 20.478 26.8359 19.9408 27.1631C18.8544 27.825 17.4002 27.825 14.4917 27.825C11.5795 27.825 10.1234 27.825 9.03626 27.1619C8.49877 26.8341 8.03547 26.3979 7.67584 25.8811C6.94846 24.8359 6.86071 23.3824 6.68522 20.4756L6 9.125" stroke="#FF3A2C" stroke-width="1.7" stroke-linecap="round"/>
<path d="M4.29688 4.99792H24.6969M19.0933 4.99792L18.3197 3.40188C17.8058 2.34168 17.5487 1.81157 17.1055 1.48097C17.0072 1.40763 16.9031 1.3424 16.7941 1.28591C16.3033 1.03125 15.7142 1.03125 14.536 1.03125C13.3282 1.03125 12.7243 1.03125 12.2253 1.29659C12.1147 1.35539 12.0092 1.42327 11.9098 1.49951C11.4614 1.84351 11.2109 2.39301 10.71 3.49201L10.0235 4.99792" stroke="#FF3A2C" stroke-width="1.7" stroke-linecap="round"/>
<path d="M11.6719 21.5969V14.7969" stroke="#FF3A2C" stroke-width="1.7" stroke-linecap="round"/>
<path d="M17.3281 21.5969V14.7969" stroke="#FF3A2C" stroke-width="1.7" stroke-linecap="round"/>
</svg>
