<svg width="21" height="21" viewBox="0 0 21 21" fill="none" xmlns="http://www.w3.org/2000/svg">
<path d="M13.8301 6.7474C13.8301 6.04415 13.8996 5.23249 13.2051 4.83153C12.915 4.66406 12.5256 4.66406 11.7468 4.66406H10.9135C10.1346 4.66406 9.7452 4.66406 9.45512 4.83153C8.76062 5.23249 8.83012 6.04415 8.83012 6.7474C8.83012 7.45064 8.76062 8.2623 9.45512 8.66326C9.7452 8.83073 10.1346 8.83073 10.9135 8.83073H11.7468C12.5256 8.83073 12.915 8.83073 13.2051 8.66326C13.8996 8.2623 13.8301 7.45064 13.8301 6.7474Z" stroke="white" stroke-opacity="0.6" stroke-width="1.25" stroke-linecap="round" stroke-linejoin="round"/>
<path d="M13.8301 14.2474C13.8301 13.5441 13.8996 12.7325 13.2051 12.3316C12.915 12.1641 12.5256 12.1641 11.7468 12.1641H5.91345C5.13462 12.1641 4.7452 12.1641 4.45512 12.3316C3.76062 12.7325 3.83012 13.5441 3.83012 14.2474C3.83012 14.9506 3.76062 15.7623 4.45512 16.1632C4.7452 16.3307 5.13462 16.3307 5.91345 16.3307H11.7468C12.5256 16.3307 12.915 16.3307 13.2051 16.1632C13.8996 15.7623 13.8301 14.9506 13.8301 14.2474Z" stroke="white" stroke-opacity="0.6" stroke-width="1.25" stroke-linecap="round" stroke-linejoin="round"/>
<path d="M17.168 2.16406V18.8307" stroke="white" stroke-opacity="0.6" stroke-width="1.25" stroke-linecap="round" stroke-linejoin="round"/>
</svg>
