<svg width="375" height="737" viewBox="0 0 375 737" fill="none" xmlns="http://www.w3.org/2000/svg">
<path opacity="0.08" d="M187 0C207.009 0 226.713 1.30186 246.035 3.82215L187.927 449.295L360.019 34.2981C396.765 49.5363 431.066 69.482 462.169 93.3833L187.777 450.452L187.66 451.339L188.547 451.222L545.615 176.829C569.517 207.932 589.462 242.233 604.701 278.98L189.704 451.072L635.177 392.964C637.697 412.286 639 431.991 639 452C639 472.009 637.697 491.713 635.177 511.035L189.704 452.927L604.701 625.019C589.462 661.765 569.517 696.066 545.615 727.169L188.547 452.777L187.66 452.66L187.777 453.547L462.169 810.615C431.066 834.517 396.765 854.462 360.019 869.701L187.927 454.704L246.035 900.177C226.713 902.697 207.009 904 187 904C166.991 904 147.286 902.697 127.964 900.177L186.072 454.704L13.9801 869.701C-22.7665 854.462 -57.0676 834.517 -88.1706 810.615L186.222 453.547L186.339 452.66L185.452 452.777L-171.617 727.169C-195.518 696.066 -215.464 661.765 -230.702 625.019L184.295 452.927L-261.178 511.035C-263.698 491.713 -265 472.009 -265 452C-265 431.991 -263.698 412.286 -261.178 392.964L184.295 451.072L-230.702 278.98C-215.464 242.234 -195.518 207.932 -171.617 176.829L185.452 451.222L186.339 451.339L186.222 450.452L-88.1706 93.3833C-57.0677 69.4819 -22.7664 49.5363 13.9801 34.2981L186.072 449.295L127.964 3.82215C147.286 1.30175 166.991 0 187 0ZM186.953 452.581L186.938 452.617L186.967 452.578L186.953 452.581ZM187.061 452.617L187.046 452.581L187.032 452.578L187.061 452.617ZM186.765 452.231L186.767 452.234L186.769 452.23L186.765 452.231ZM187.231 452.234L187.234 452.231L187.23 452.23L187.231 452.234ZM186.382 452.061L186.418 452.046L186.421 452.032L186.382 452.061ZM187.581 452.046L187.617 452.061L187.578 452.032L187.581 452.046ZM186.421 451.967L186.418 451.953L186.382 451.938L186.421 451.967ZM187.581 451.953L187.578 451.967L187.617 451.938L187.581 451.953ZM186.765 451.767L186.769 451.769L186.767 451.765L186.765 451.767ZM187.23 451.769L187.234 451.767L187.231 451.765L187.23 451.769ZM186.953 451.418L186.967 451.421L186.938 451.382L186.953 451.418ZM187.032 451.421L187.046 451.418L187.061 451.382L187.032 451.421Z" fill="url(#paint0_radial_388_18710)"/>
<defs>
<radialGradient id="paint0_radial_388_18710" cx="0" cy="0" r="1" gradientUnits="userSpaceOnUse" gradientTransform="translate(187 452) rotate(90) scale(452)">
<stop stop-color="#3BF43E"/>
<stop offset="0.514423" stop-color="#3BF43E" stop-opacity="0"/>
</radialGradient>
</defs>
</svg>
