<svg width="158" height="86" viewBox="0 0 158 86" fill="none" xmlns="http://www.w3.org/2000/svg">
<path d="M157.5 57.8592V26.0349C156.5 23.4995 152.5 19.9995 147.5 17.4998C139.18 13.3404 133.5 11.9813 123.5 10.9996C119.672 10.5278 115.362 10.6713 111 10.9995C110.821 11.0141 110.641 11.0271 110.461 11.0434L110.417 11.0469C110.254 11.0604 110.089 11.0739 109.923 11.0889C109.56 11.1197 109.196 11.1555 108.83 11.1928C103.366 11.7419 97.6028 13.6156 91.8295 15.0956C91.655 15.1411 91.4806 15.185 91.3062 15.2305C91.1302 15.276 90.9558 15.3231 90.7814 15.3686C89.0292 15.8316 87.2754 16.3303 85.5264 16.8599C85.3327 16.9184 85.1405 16.9769 84.9467 17.037C84.7513 17.0955 84.5559 17.1572 84.3605 17.2173C84.0843 17.3034 83.8082 17.3895 83.532 17.4773C83.4319 17.5098 83.3334 17.5406 83.2333 17.5715C83.1299 17.6056 83.0282 17.6381 82.9248 17.6706C82.723 17.7356 82.5211 17.8006 82.3192 17.8672C82.2094 17.9029 82.098 17.9386 81.9865 17.976C81.8202 18.0312 81.6523 18.0865 81.4859 18.1401C81.2889 18.2067 81.0919 18.2717 80.8965 18.3383C80.7011 18.4033 80.5073 18.4683 80.3135 18.5349C79.4075 18.8419 78.5032 19.1571 77.6053 19.4804C77.5908 19.4852 77.5762 19.4901 77.5633 19.495C77.1903 19.6282 76.8188 19.7631 76.449 19.8995C76.2633 19.9677 76.076 20.036 75.8903 20.1042C75.7045 20.1741 75.5172 20.2423 75.3315 20.3138C73.4227 21.027 71.5348 21.7727 69.6809 22.5411C69.5162 22.6077 69.3531 22.6759 69.1916 22.7442L68.7023 22.9489C68.4471 23.0577 68.192 23.1649 67.9368 23.2738C67.8641 23.3063 67.7899 23.3371 67.7156 23.3696C67.6413 23.4005 67.5654 23.433 67.4911 23.4655C66.3251 23.9675 65.1737 24.4776 64.04 24.9958C63.8511 25.0836 63.6621 25.1697 63.4748 25.2558L63.4744 25.2559C63.3405 25.3176 63.2066 25.3793 63.0727 25.4426C61.6806 26.0892 60.3144 26.7471 58.9821 27.4132L58.9807 27.4139C58.6372 27.5859 58.2969 27.7562 57.9583 27.9298C57.7742 28.0224 57.5901 28.1167 57.4076 28.2109C57.2368 28.2984 57.0676 28.3859 56.8984 28.4735L56.8973 28.4741L56.8971 28.4741C56.8762 28.4855 56.8552 28.4968 56.8359 28.5066C56.7277 28.5618 56.6211 28.6186 56.5145 28.6739C52.6177 30.7111 49.0423 32.8052 45.9158 34.8798C45.8593 34.9155 45.8028 34.9529 45.7479 34.9919C45.6316 35.0682 45.517 35.1446 45.4039 35.2209C45.2976 35.2922 45.1913 35.3651 45.0851 35.438L45.0842 35.4386C43.8811 36.2672 42.6828 37.1964 41.4974 38.2086C41.449 38.2492 41.4022 38.2898 41.3537 38.332C41.273 38.4003 41.1922 38.4717 41.1115 38.5432C40.8951 38.73 40.6787 38.9217 40.4639 39.1151C40.3234 39.2402 40.1845 39.3669 40.0456 39.4952C39.9068 39.6219 39.7695 39.7503 39.6306 39.877C38.6681 40.7803 37.7153 41.7323 36.7787 42.7249C36.6559 42.8549 36.5348 42.9832 36.4137 43.1148L36.392 43.1381C36.2795 43.2589 36.1658 43.381 36.0536 43.5031C35.8129 43.7662 35.5707 44.0327 35.3317 44.3024C33.8331 45.9822 32.378 47.7578 30.9795 49.5936C29.8878 51.0249 28.8317 52.4935 27.8175 53.9767C27.2168 54.8573 26.6305 55.7427 26.0589 56.6313C23.1036 61.2337 20.5892 65.8898 18.7207 70.0617C18.5641 70.4078 18.4139 70.7505 18.2685 71.0885L18.2683 71.089C18.1941 71.2626 18.1199 71.4363 18.0489 71.6067C17.973 71.7822 17.9019 71.956 17.8309 72.1282C14.7755 79.5363 14.0665 84.9624 17.0218 84.9624H67.6477C67.6477 84.9624 92.4964 84.8487 112.869 84.7967C113.335 84.7967 113.8 84.7951 114.261 84.7934H114.359C114.532 84.7934 114.705 84.7934 114.876 84.7918H115.501C120.287 84.7804 124.741 84.7739 128.456 84.7739H157.5V57.8592Z" fill="#FFB800"/>
<path d="M63.6497 9.36067L32.9043 22.248L45.715 53.1775L76.4604 40.2902L63.6497 9.36067Z" fill="#FFF1DF"/>
<path d="M35.0293 23.3468L44.9562 46.8577L70.4411 36.2313L71.1872 33.8822L69.0684 26.5943L62.8107 11.666L35.0293 23.3468Z" fill="white"/>
<path d="M55.5876 27.309L60.534 20.6255L63.4231 24.8754C63.4231 24.8754 63.8559 27.9345 63.8559 27.9491C63.8559 27.9637 63.5846 29.6533 63.5846 29.6533L62.8983 31.2697L61.8873 32.8862L60.0286 33.8301L58.0777 34.2297L57.6676 34.0445L58.06 31.6873L57.6805 29.5623L56.5613 28.1635L55.5859 27.3106L55.5876 27.309Z" fill="#BCFFBB"/>
<path d="M74.5005 35.5588L74.3196 35.1234L74.1339 34.6751V34.6718L73.7221 33.6776L73.7512 33.4339C73.714 33.4469 73.6769 33.4615 73.6397 33.4777C73.4734 33.5395 73.3103 33.6061 73.1472 33.6743L73.5622 34.6767L73.5929 34.7498L73.7673 35.1722L73.9627 35.6433L74.0063 35.7473L74.4197 36.7448L74.5489 35.6725L74.5021 35.5588H74.5005ZM46.9759 52.0695L46.4349 52.2969L46.8677 52.6917L47.3005 53.0897L47.8399 52.8622L58.2787 48.4872C58.3497 48.2631 58.4224 48.0389 58.4967 47.8179L59.2622 47.4963C59.2654 47.4833 59.2702 47.4719 59.2751 47.4605C59.309 47.3647 59.3445 47.2704 59.3801 47.1778C59.4253 47.0544 59.4721 46.9325 59.5206 46.8107L58.7341 47.1405L46.9743 52.0695H46.9759ZM76.9487 40.0849L76.3544 38.6488L76.1186 38.0818L75.8845 37.5181L75.0253 35.4435L74.8622 35.0487L74.6943 34.6409L74.6765 34.5987L74.2631 33.6012L74.1339 33.2909L73.8917 32.7044L73.8497 32.6037L73.6414 32.1001L72.322 28.9143L72.3091 28.885L71.9166 27.9347L71.5484 27.0493L69.6816 22.5411L64.1376 9.15613C64.0245 8.8832 63.7145 8.75486 63.4448 8.86858L32.7001 21.7548C32.4288 21.8685 32.3012 22.1804 32.4142 22.4517L39.6313 39.877L43.2794 48.6822L43.7606 49.8454L44.2402 51.0053L45.2253 53.3821C45.2786 53.5121 45.382 53.616 45.5128 53.6697C45.5774 53.6957 45.6452 53.7103 45.713 53.7103C45.7809 53.7103 45.8519 53.6957 45.9181 53.668L46.7611 53.3139L47.3005 53.0897L47.8399 52.8622L58.2787 48.4872L59.028 48.1737L59.808 47.8455L60.7592 47.4475L76.6612 40.7819C76.7904 40.7266 76.8938 40.6226 76.9471 40.4927C77.0004 40.3611 77.0004 40.2149 76.9471 40.0849H76.9487ZM61.4326 46.0098L60.3522 46.463L59.5238 46.8107L58.7373 47.1405L46.9775 52.0695L46.4365 52.2969L46.0005 52.4788L45.6113 51.5398L45.1301 50.3766L40.4662 39.115L33.598 22.5346L63.3641 10.0578L68.7046 22.9488L70.3098 26.8251L70.6215 27.5756L70.9461 28.3619L71.1172 28.7746L72.6546 32.4835L72.9033 33.0878L73.1472 33.6743L73.5622 34.6767L73.5929 34.7498L73.7673 35.1722L73.9627 35.6433L74.0063 35.7473L74.4197 36.7448L74.6781 37.3702L74.9123 37.9356L75.1465 38.5009L75.7682 40.0021L61.4342 46.0098H61.4326ZM58.7357 47.1405L46.9759 52.0695L46.4349 52.2969L46.8677 52.6917L47.3005 53.0897L47.8399 52.8622L58.2787 48.4872C58.3497 48.2631 58.4224 48.0389 58.4967 47.8179L59.2622 47.4963C59.2654 47.4833 59.2702 47.4719 59.2751 47.4605C59.309 47.3647 59.3445 47.2704 59.3801 47.1778C59.4253 47.0544 59.4721 46.9325 59.5206 46.8107L58.7341 47.1405H58.7357ZM74.5005 35.5588L74.3196 35.1234L74.1339 34.6751V34.6718L73.7221 33.6776L73.7512 33.4339C73.714 33.4469 73.6769 33.4615 73.6397 33.4777C73.4734 33.5395 73.3103 33.6061 73.1472 33.6743L73.5622 34.6767L73.5929 34.7498L73.7673 35.1722L73.9627 35.6433L74.0063 35.7473L74.4197 36.7448L74.5489 35.6725L74.5021 35.5588H74.5005Z" fill="#232323"/>
<path d="M72.8846 35.2175L72.8717 35.185L72.6375 34.6213L72.3823 34.0056L72.1401 33.4191L71.8882 32.8132L70.2377 28.8281L70.0052 28.2643L69.7064 27.543L69.4141 26.8379L67.9381 23.2736L63.0288 11.4207C63.0045 11.3622 62.9577 11.3151 62.8979 11.2891C62.8382 11.2647 62.772 11.2647 62.7122 11.2907L34.9131 22.9422C34.7904 22.9942 34.7306 23.1371 34.7823 23.2606L41.1128 38.5431L44.6397 47.0575C44.664 47.1176 44.7108 47.1647 44.7705 47.1891C44.7996 47.2021 44.8319 47.2069 44.8626 47.2069C44.8933 47.2069 44.9256 47.2021 44.9563 47.1891L63.0255 39.6153L64.3255 39.0694L65.8581 38.4277L67.4245 37.7698L72.3355 35.7114L72.7538 35.536C72.8765 35.4856 72.9346 35.3426 72.883 35.2175H72.8846ZM71.3052 35.6156L70.5333 35.9388L68.7617 36.6813C68.7617 36.6813 68.7601 36.6813 68.7585 36.6813L66.953 37.4383L65.183 38.1808C65.183 38.1808 65.1798 38.1808 65.1798 38.1824L63.7345 38.7884L44.9934 46.6432L41.4987 38.2068L35.3233 23.2964L62.6751 11.8317L67.4924 23.4637L68.9167 26.8997L69.2042 27.5934L69.4949 28.2968L69.7258 28.854V28.8573L69.7452 28.9028L71.4489 33.0162L71.6992 33.6206L71.9431 34.2087L72.082 34.5433L72.3339 35.1526L72.3452 35.1785L71.3052 35.6139V35.6156Z" fill="#232323"/>
<path d="M49.2862 27.7511C46.1629 28.8168 46.3067 29.2164 45.6752 30.1246C45.0438 31.0327 44.5012 33.2844 45.5315 34.701C46.5618 36.1177 48.8663 38.5529 51.4179 38.2978C53.9694 38.0428 56.022 36.4085 56.6356 35.1559C57.2493 33.9033 57.9179 31.1058 57.9179 31.1058L56.8714 28.3993L55.011 26.3653L52.2302 26.2207L49.2878 27.7511H49.2862Z" fill="#FF8D8D"/>
<path d="M48.9351 27.5741C46.6516 25.2363 46.6516 25.735 46.6516 25.735L43.3652 25.9804L44.4311 27.5156L46.0379 28.4513L48.5475 28.0614L48.9351 27.5757V27.5741Z" fill="#7DFF89"/>
<path d="M58.1186 29.7901C57.9684 29.2394 57.7262 28.7049 57.408 28.211C57.1303 27.7805 56.7928 27.3808 56.4052 27.0299C56.2841 26.9211 56.1581 26.8155 56.0273 26.7148C55.8755 26.601 55.7188 26.4922 55.5557 26.3931C54.4382 25.7059 53.051 25.3924 51.5346 25.7173C51.4296 25.7416 51.3279 25.7693 51.2294 25.805C50.7352 25.9821 50.2895 26.2404 49.8583 26.4889C49.6597 26.6043 49.4675 26.7131 49.2753 26.8139C48.9168 25.9057 48.7505 25.6295 48.7618 24.5362C48.765 24.2584 48.5438 24.031 48.2676 24.0293C47.9931 24.0261 47.7654 24.2487 47.7638 24.5265C47.7557 25.2055 47.8042 25.1812 47.9237 25.7611C46.9418 25.1357 45.2671 24.6012 42.8028 25.5239C42.659 25.5776 42.5492 25.6945 42.5024 25.8424C42.4556 25.9886 42.4782 26.1494 42.5654 26.2761C42.6219 26.3606 43.8767 28.1899 45.7661 28.7764C44.0899 30.6333 43.7943 33.1351 45.054 35.3868C45.0636 35.4046 45.0733 35.4225 45.0846 35.4388C45.8146 36.7173 46.966 37.7311 48.329 38.2964C49.8535 38.93 51.5185 38.9592 53.1414 38.3793C53.4273 38.2785 53.7018 38.1648 53.9667 38.0413C55.4637 37.3476 56.6361 36.3258 57.4 35.1252C57.6002 34.8133 57.7714 34.4884 57.9119 34.1537C57.9377 34.1001 57.9587 34.0449 57.9797 33.9896C58.4981 32.6802 58.5724 31.2295 58.1186 29.7901ZM52.8072 37.4321C49.6791 38.5482 47.0468 36.8993 45.9244 34.8945C45.9212 34.8897 45.9196 34.8848 45.9163 34.8799C45.0007 33.2358 44.8263 30.8363 47.0177 28.9502C47.5232 28.9356 48.0222 28.8186 48.5099 28.5912C48.6423 28.531 48.7731 28.4612 48.9039 28.3832C49.1962 28.9307 49.5257 29.4538 49.8648 29.9737C49.8745 29.9883 49.8858 30.0013 49.8971 30.0159C49.4045 30.1735 48.8861 30.2239 48.4146 30.1345C48.1433 30.0825 47.8817 30.2612 47.83 30.5342C47.7783 30.8055 47.9576 31.0686 48.2273 31.1206C49.0589 31.2798 49.9584 31.1353 50.7546 30.7665C51.5637 30.3912 52.2645 29.7836 52.6763 29.0298C52.8088 28.7861 52.72 28.4807 52.4793 28.3475C52.2371 28.2143 51.9335 28.302 51.8011 28.5457C51.5734 28.9632 51.2068 29.3271 50.7724 29.6049C50.7611 29.5415 50.7368 29.4782 50.6981 29.4213C50.3073 28.8218 49.9698 28.2679 49.692 27.7285C49.9197 27.6115 50.1393 27.4848 50.3541 27.3597C50.7659 27.1225 51.1535 26.8983 51.5637 26.7505C51.6202 26.731 51.6799 26.7131 51.7429 26.7001C53.789 26.2599 55.5509 27.2411 56.515 28.674C56.8073 29.1061 57.0253 29.5773 57.1577 30.0647C57.1593 30.0728 57.161 30.0793 57.1626 30.0858C57.6148 31.5105 57.4533 33.0198 56.712 34.3357C55.9239 35.7312 54.5739 36.8018 52.8072 37.4321ZM43.8218 26.2485C46.7044 25.2803 47.872 26.8399 48.3807 27.5271C47.7509 27.8926 47.1017 28.0209 46.4476 27.9105C45.2962 27.7139 44.3434 26.8334 43.8218 26.2485Z" fill="#232323"/>
<path d="M57.5126 35.1379C57.251 35.1379 57.0217 34.9413 56.9878 34.6732C56.9506 34.3808 57.1557 34.1144 57.4448 34.0754C60.2838 33.705 62.4317 32.0804 63.1907 29.728C64.0417 27.0929 63.0259 23.9997 60.4695 21.3614L56.2094 27.3041C56.0382 27.5429 55.7072 27.5966 55.4698 27.4243C55.2324 27.2521 55.1791 26.9191 55.3503 26.6803L59.9721 20.2339C60.061 20.1089 60.1999 20.0293 60.3517 20.0146C60.5035 20 60.6553 20.052 60.7651 20.1576C63.9416 23.1761 65.2255 26.8769 64.1984 30.0578C63.3102 32.8115 60.8345 34.709 57.5805 35.133C57.5579 35.1362 57.5336 35.1379 57.511 35.1379H57.5126Z" fill="#232323"/>
<path d="M59.053 28.7196C58.9287 28.7196 58.8043 28.6757 58.7042 28.5863L57.7175 27.7139C57.4979 27.519 57.4753 27.1827 57.6691 26.9618C57.8629 26.7408 58.1971 26.7181 58.4168 26.913L59.4035 27.7854C59.6231 27.9804 59.6457 28.3167 59.4519 28.5376C59.347 28.6578 59.2 28.7196 59.053 28.7196Z" fill="#232323"/>
<path d="M60.6918 25.8128H59.3676C59.0753 25.8128 58.8379 25.574 58.8379 25.2799C58.8379 24.9859 59.0753 24.7471 59.3676 24.7471H60.6918C60.9841 24.7471 61.2215 24.9859 61.2215 25.2799C61.2215 25.574 60.9841 25.8128 60.6918 25.8128Z" fill="#232323"/>
<path d="M110.833 8.57414L77.7676 4.53711L73.7546 37.8L106.82 41.837L110.833 8.57414Z" fill="#FFF1DF"/>
<path d="M79.2561 6.47412L109.042 10.0238L105.955 35.6159L76.6738 31.6291L76.8482 25.4281L79.2561 6.47412Z" fill="white"/>
<path d="M74.3913 32.5308L74.3073 33.2294C74.2492 33.2489 74.191 33.27 74.1329 33.2912C74.0037 33.3366 73.8761 33.3854 73.7485 33.4341L73.7195 33.6762L74.1313 34.672V34.6753L74.317 35.1237L74.4978 35.5591L74.5447 35.6728L74.5592 35.5477L74.6157 35.0863L74.669 34.6428L74.6739 34.5989L74.8612 33.0393L74.9452 32.3489C74.7579 32.4074 74.5738 32.4675 74.3897 32.5308H74.3913ZM111.25 8.23848C111.163 8.12801 111.035 8.0549 110.896 8.03866L77.831 4.0032C77.5403 3.96908 77.2771 4.17541 77.2416 4.46783L75.3311 20.314L74.6044 26.3363L74.4203 27.8634C74.4203 27.8634 74.4203 27.8634 74.4203 27.865L74.3202 28.6903L74.2992 28.8674L74.2298 29.4458L74.1022 30.5066L73.9213 31.9996L73.8487 32.604L73.8341 32.7258L73.7485 33.4341L73.7195 33.6762L73.5983 34.6769L73.5903 34.75L73.537 35.1838L73.4756 35.6923L73.2301 37.7311C73.214 37.8708 73.2528 38.0122 73.34 38.1243C73.4272 38.2348 73.5531 38.3079 73.6936 38.3241L75.1438 38.5012L75.7478 38.5743L76.3534 38.649L99.3869 41.4595L100.632 41.6123L101.414 41.7081L102.198 41.8023L106.757 42.3596C106.78 42.3612 106.801 42.3628 106.822 42.3628C107.087 42.3628 107.315 42.1646 107.347 41.8949L110.977 11.7882L111.358 8.63163C111.376 8.49192 111.336 8.35058 111.25 8.23848ZM109.9 11.8775L106.358 41.237L101.504 40.644L99.8698 40.4458L98.4616 40.2736L75.8851 37.5183L75.2811 37.4436L74.6771 37.3705L74.3477 37.3299L74.4187 36.745L74.5479 35.6728L74.5624 35.5477L74.619 35.0863L74.6723 34.6428L74.6771 34.5989L74.8644 33.0393L74.9484 32.3489L75.034 31.639L75.4507 28.1786L75.5346 27.4833L75.6557 26.4809L75.7591 25.6264L76.4503 19.8997L78.2315 5.12579L110.244 9.0329L109.902 11.8775H109.9ZM74.3913 32.5308L74.3073 33.2294C74.2492 33.2489 74.191 33.27 74.1329 33.2912C74.0037 33.3366 73.8761 33.3854 73.7485 33.4341L73.7195 33.6762L74.1313 34.672V34.6753L74.317 35.1237L74.4978 35.5591L74.5447 35.6728L74.5592 35.5477L74.6157 35.0863L74.669 34.6428L74.6739 34.5989L74.8612 33.0393L74.9452 32.3489C74.7579 32.4074 74.5738 32.4675 74.3897 32.5308H74.3913Z" fill="#232323"/>
<path d="M104.003 17.2207L98.4155 15.627L95.0371 27.6115L100.625 29.2052C101.584 29.4781 103.117 27.0185 104.05 23.7092C104.983 20.4 104.962 17.4952 104.003 17.2223V17.2207Z" fill="#00C2EE"/>
<path d="M104.147 16.7072L98.5593 15.1119C98.2783 15.0323 97.9844 15.1964 97.9053 15.479L97.831 15.7422L97.5549 16.7235L96.8168 19.339L96.6489 19.9304L96.4422 20.6647L95.9997 22.2373L95.7914 22.9732L95.625 23.563L94.8757 26.2175L94.5996 27.2004L94.5253 27.4636C94.4881 27.6 94.5043 27.7446 94.5737 27.8681C94.6335 27.9769 94.7288 28.0598 94.8418 28.1053C94.858 28.1118 94.8757 28.1167 94.8919 28.1215L100.479 29.7169C100.58 29.7445 100.681 29.7591 100.783 29.7591C101.424 29.7591 102.101 29.197 102.795 28.0825C103.467 27.0022 104.094 25.4995 104.559 23.8521C105.024 22.2048 105.274 20.5948 105.264 19.3212C105.255 17.7957 104.878 16.9152 104.147 16.7072ZM101.897 27.5156C101.242 28.565 100.823 28.7064 100.769 28.6901L96.468 27.4636L95.885 27.2962L95.6896 27.241L95.8963 26.5099L96.9525 22.762L97.5274 20.7248L98.5739 17.0159L98.7806 16.2832L98.9744 16.3384L99.5654 16.5074L103.858 17.7323C103.913 17.7486 104.197 18.0897 104.205 19.3293C104.213 20.5055 103.977 22.0082 103.54 23.5613C103.1 25.1144 102.517 26.5197 101.897 27.5156Z" fill="#232323"/>
<path d="M98.4674 22.1157C99.4007 18.8063 99.3804 15.9018 98.422 15.6282C97.4636 15.3547 95.93 17.8157 94.9966 21.1251C94.0633 24.4344 94.0836 27.3389 95.042 27.6125C96.0004 27.8861 97.534 25.425 98.4674 22.1157Z" fill="#80EDFF"/>
<path d="M99.5644 16.5077C99.516 16.277 99.4546 16.074 99.3771 15.9001C99.1898 15.4777 98.9168 15.2146 98.5583 15.1122C97.8284 14.9043 97.0484 15.4534 96.2425 16.7465C95.9002 17.2956 95.5707 17.9552 95.2671 18.6863C95.2009 18.8487 95.1347 19.0145 95.0701 19.185C95.0071 19.3491 94.9458 19.5164 94.8876 19.687C94.7407 20.1029 94.6034 20.5351 94.4791 20.9769C94.3579 21.4058 94.2514 21.8315 94.1609 22.249C94.1222 22.4244 94.0866 22.5983 94.0543 22.7705C94.0204 22.9492 93.9897 23.1246 93.9623 23.2985C93.8331 24.0978 93.7669 24.8483 93.7717 25.5079C93.783 26.9976 94.1415 27.8733 94.8408 28.1056C94.857 28.1121 94.8747 28.117 94.8909 28.1219C94.9878 28.1495 95.0847 28.1641 95.1832 28.1641C95.4512 28.1641 95.7193 28.0634 95.9858 27.8814C96.1473 27.7709 96.3088 27.6312 96.467 27.4639C97.4683 26.4128 98.3872 24.3268 98.9701 22.2587C99.4352 20.6098 99.6855 19.0015 99.6759 17.7262C99.6726 17.2599 99.6355 16.8521 99.5644 16.5077ZM95.8953 26.5103C95.5497 26.9457 95.2865 27.1276 95.1799 27.0967C95.1363 27.0837 94.9587 26.8791 94.8747 26.2178C94.8505 26.0213 94.8343 25.7841 94.8327 25.4998C94.8279 24.9247 94.8828 24.2716 94.991 23.573C95.0168 23.3992 95.0475 23.2237 95.0814 23.045C95.1121 22.8728 95.1476 22.699 95.1864 22.5219C95.2736 22.1109 95.3786 21.6918 95.4981 21.2677C95.6224 20.8307 95.7565 20.4051 95.9018 19.9973C95.9616 19.8267 96.0229 19.6594 96.0859 19.4953C96.1505 19.3264 96.2167 19.1607 96.2845 18.9998C96.5526 18.363 96.8433 17.7928 97.1404 17.3135C97.2906 17.0715 97.4295 16.8781 97.5539 16.7238C97.9447 16.238 98.1966 16.1373 98.2596 16.1373C98.2628 16.1373 98.266 16.1373 98.2693 16.1389C98.3113 16.1503 98.4905 16.355 98.5729 17.0162C98.5971 17.2128 98.6149 17.45 98.6165 17.7343C98.6245 18.9105 98.3888 20.4132 97.9511 21.9679C97.2842 24.3317 96.4767 25.7792 95.8953 26.5103Z" fill="#232323"/>
<path d="M95.8595 19.4166L89.0905 17.4845C88.2531 17.2455 87.3816 17.7347 87.144 18.5771L86.9924 19.1148C86.7548 19.9572 87.241 20.8339 88.0785 21.0729L94.8475 23.005C95.6849 23.244 96.5564 22.7548 96.794 21.9124L96.9456 21.3748C97.1832 20.5323 96.6969 19.6556 95.8595 19.4166Z" fill="white"/>
<path d="M97.5261 20.7249C97.4954 20.4065 97.3904 20.1011 97.2273 19.833C97.1175 19.6494 96.9786 19.4821 96.8155 19.3391C96.6588 19.201 96.4812 19.0857 96.2842 18.9996C96.1954 18.959 96.1017 18.9249 96.0048 18.8973L95.7803 18.8339L95.2668 18.6861L91.6591 17.6577L91.1455 17.5099L90.6368 17.3653L89.2367 16.9656C88.6957 16.8113 88.1273 16.8779 87.6347 17.1541C87.1438 17.4303 86.7885 17.8819 86.6351 18.4261L86.4849 18.9622C86.1668 20.0864 86.8192 21.261 87.9367 21.5794L89.3401 21.9807L89.8504 22.1253L90.3623 22.2715L93.9619 23.2982L94.4755 23.4461L94.7048 23.5111C94.8001 23.5387 94.8954 23.5582 94.9906 23.5728C95.0875 23.5858 95.186 23.5923 95.2829 23.5923C95.3976 23.5923 95.5106 23.5825 95.6237 23.563C95.8336 23.5289 96.0387 23.4607 96.2325 23.36C96.2567 23.3486 96.281 23.3356 96.3052 23.3226C96.5603 23.1796 96.7784 22.9896 96.9512 22.7621C97.1126 22.5542 97.2321 22.3121 97.3064 22.0506L97.4566 21.5145C97.5309 21.2496 97.5519 20.9832 97.5261 20.7249ZM96.2858 21.7598C96.2341 21.9466 96.134 22.1107 95.9983 22.2374C95.937 22.2975 95.8659 22.3495 95.79 22.3917C95.6318 22.4811 95.4574 22.5266 95.2813 22.5266C95.249 22.5266 95.2183 22.5249 95.186 22.5217C95.1214 22.5168 95.0585 22.5038 94.9939 22.486L94.6709 22.3934L94.1606 22.2488L90.7418 21.2724L90.2315 21.1262L89.7228 20.9816L88.2258 20.5543C87.6702 20.3951 87.3456 19.8119 87.5039 19.253L87.6557 18.7169C87.7316 18.4472 87.9076 18.2214 88.1515 18.085C88.3097 17.9972 88.4842 17.9517 88.6602 17.9517C88.7571 17.9517 88.8524 17.9647 88.9476 17.9924L90.443 18.418L90.9501 18.5642L91.4621 18.7088L94.8873 19.6868L95.396 19.8314L95.7157 19.9224C95.782 19.9419 95.8433 19.9662 95.9015 19.9971C96.1728 20.1336 96.3665 20.3805 96.4408 20.6648C96.4893 20.8419 96.4909 21.0336 96.4376 21.2237L96.2858 21.7598Z" fill="#232323"/>
<path d="M90.5799 13.3901L84.6128 11.6875L81.2344 23.672L87.2015 25.3746C88.1607 25.6475 89.6933 23.1879 90.6267 19.8786C91.5601 16.5694 91.5391 13.6646 90.5799 13.3917V13.3901Z" fill="#00C2EE"/>
<path d="M91.8288 15.0957C91.7594 13.9293 91.4283 13.078 90.7242 12.8765L84.7571 11.174C84.4745 11.0928 84.1822 11.2585 84.1031 11.5411L84.0288 11.8027L83.7527 12.7856L82.9888 15.4889L82.3186 17.8673L81.8487 19.5325L81.0735 22.2812L80.7974 23.2625L80.7231 23.5257C80.644 23.8083 80.8071 24.104 81.0881 24.1836L87.0568 25.8862C87.1537 25.9138 87.2506 25.9284 87.3491 25.9284C88.4246 25.9284 89.5276 24.3055 90.3625 22.2715C90.4319 22.109 90.4965 21.9433 90.5595 21.7744C90.6225 21.6087 90.6839 21.4413 90.742 21.2724C90.8857 20.8614 91.0182 20.4422 91.1361 20.0231C91.2572 19.5909 91.367 19.149 91.4623 18.7088C91.4994 18.535 91.5349 18.3595 91.5672 18.1857C91.6011 18.0086 91.6318 17.8315 91.6593 17.6577C91.7756 16.9234 91.8418 16.2151 91.8418 15.5766C91.8418 15.4109 91.8369 15.2517 91.8288 15.0957ZM90.637 17.3653C90.6112 17.5358 90.5821 17.7113 90.5482 17.8932C90.5175 18.0638 90.482 18.2377 90.4433 18.418C90.356 18.829 90.2479 19.266 90.117 19.7323C89.9911 20.1807 89.8587 20.5982 89.723 20.9816C89.6633 21.1554 89.6019 21.3227 89.5405 21.4836C89.4743 21.6558 89.4081 21.8215 89.3403 21.9807C88.4569 24.0878 87.5639 24.9244 87.3458 24.8611L82.6642 23.5257L82.0828 23.3583H82.0812L81.8874 23.3031L82.0925 22.5737L83.5314 17.4774L84.7717 13.078L84.9784 12.3453L85.1706 12.4005L85.7632 12.5695L90.4352 13.9033C90.5757 13.9423 90.7549 14.4345 90.7808 15.3686C90.7937 15.895 90.7582 16.5611 90.637 17.3653Z" fill="#232323"/>
<path d="M84.6627 18.1767C85.596 14.8674 85.5757 11.9628 84.6173 11.6893C83.6589 11.4157 82.1253 13.8767 81.192 17.1861C80.2586 20.4955 80.2789 23.4 81.2373 23.6735C82.1957 23.9471 83.7293 21.4861 84.6627 18.1767Z" fill="#80EDFF"/>
<path d="M85.7635 12.5697C85.7151 12.339 85.6521 12.136 85.5746 11.9621C85.3889 11.5398 85.116 11.2766 84.7574 11.1742C84.0259 10.9663 83.2475 11.5154 82.4417 12.8085C81.7682 13.8889 81.1417 15.39 80.6782 17.039C80.5361 17.5442 80.4133 18.0446 80.3132 18.5352C80.0839 19.6415 79.966 20.6861 79.9708 21.5699C79.9822 23.0954 80.3584 23.9759 81.0884 24.1839C81.1869 24.2115 81.2838 24.2245 81.3823 24.2245C81.6487 24.2245 81.9184 24.1254 82.1833 23.9418C82.3448 23.833 82.5063 23.6932 82.6645 23.5259C83.6658 22.4748 84.5847 20.3888 85.1693 18.3208C85.3081 17.8285 85.4276 17.3379 85.5261 16.8603C85.7603 15.7393 85.8814 14.6817 85.875 13.7882C85.8717 13.3219 85.8346 12.9141 85.7635 12.5697ZM84.8156 13.7963C84.822 14.7662 84.6638 15.9586 84.3602 17.2177C84.2956 17.4857 84.2261 17.757 84.1486 18.0283C83.4817 20.3937 82.6742 21.8428 82.0928 22.5739C81.7489 23.0093 81.4856 23.1896 81.3791 23.1588H81.3774C81.3322 23.1425 81.1578 22.9346 81.0738 22.2815C81.0496 22.0849 81.0318 21.8477 81.0302 21.5618C81.0238 20.5919 81.1836 19.3995 81.4856 18.1404C81.5502 17.8724 81.6197 17.6011 81.6972 17.3298C82.1348 15.7767 82.7178 14.3714 83.3396 13.3755C83.4897 13.1335 83.6286 12.9401 83.753 12.7858C84.1438 12.3001 84.3957 12.1993 84.4587 12.1993C84.4619 12.1993 84.4635 12.1993 84.4668 12.201C84.5088 12.2123 84.6864 12.417 84.7704 13.0782C84.7946 13.2748 84.8124 13.512 84.814 13.7963H84.8156Z" fill="#232323"/>
<path d="M83.1953 17.7352C83.5474 16.487 83.5941 15.4071 83.2998 15.3231C83.0055 15.2391 82.4816 16.1828 82.1296 17.431C81.7776 18.6791 81.7308 19.759 82.0251 19.843C82.3194 19.927 82.8433 18.9833 83.1953 17.7352Z" fill="#232323"/>
<path d="M105.956 35.8597C105.946 35.8597 105.936 35.8597 105.927 35.8581L76.0297 32.2093C75.8973 32.1931 75.802 32.0712 75.8182 31.938L78.9043 6.34596C78.9204 6.21275 79.0416 6.1169 79.174 6.13314L109.071 9.78195C109.135 9.79008 109.192 9.82257 109.232 9.87293C109.273 9.92329 109.291 9.98827 109.282 10.0533L106.196 35.6453C106.188 35.7086 106.156 35.7671 106.106 35.8077C106.062 35.8419 106.011 35.8597 105.956 35.8597ZM76.3301 31.756L105.746 35.3464L108.774 10.2385L79.3581 6.64814L76.3301 31.756Z" fill="#232323"/>
<path d="M64.3688 84.9628H61.793C62.1369 84.8621 62.4906 84.7695 62.8491 84.6834C63.1721 84.6054 63.4999 84.5339 63.831 84.4673C63.831 84.4673 64.0264 84.6444 64.3688 84.9628Z" fill="#F4D13D"/>
<path d="M64.2482 83.9733C64.1287 83.8645 63.9769 83.8076 63.8235 83.8076C63.7831 83.8076 63.7444 83.8109 63.704 83.819C63.4731 83.8645 63.2421 83.9148 63.0112 83.9684C62.0099 84.1959 61.0039 84.4899 60.0494 84.849C59.9493 84.8863 59.8508 84.9237 59.7539 84.9627H65.3141C64.6616 84.3486 64.2595 83.9831 64.2482 83.9733Z" fill="#232323"/>
<path d="M150.836 35.0203L120.904 20.3213L106.293 50.432L136.224 65.1311L150.836 35.0203Z" fill="#FFF1DF"/>
<path fill-rule="evenodd" clip-rule="evenodd" d="M110.997 45.9663L137.388 58.9955L148.702 35.7217L121.769 22.5269L110.498 45.6284L110.997 45.9663Z" fill="white"/>
<path d="M123.491 41.9829L121.818 44.181L121.125 45.8153L120.855 46.3498L124.633 48.5202L128.924 48.1953L131.824 48.6664L133.891 49.3569L133.638 47.0873L132.825 44.181L129.865 45.4823L126.506 44.2541L124.557 43.1234L123.491 41.9829Z" fill="#FFF1DF"/>
<path d="M151.074 34.5324L121.142 19.8348C121.016 19.773 120.87 19.7633 120.736 19.8104C120.604 19.8559 120.494 19.9534 120.433 20.0801L106.222 49.3729L105.824 50.1917C105.797 50.2486 105.779 50.307 105.773 50.3671C105.756 50.5182 105.805 50.6677 105.905 50.7798C105.91 50.7879 105.918 50.796 105.926 50.8025C105.966 50.8431 106.013 50.8789 106.068 50.9049L106.475 51.1047L118.153 56.8379L118.616 57.0653L119.278 57.3902L119.921 57.707L136.001 65.6008C136.073 65.6366 136.152 65.6545 136.233 65.6545C136.291 65.6545 136.349 65.6463 136.404 65.6268C136.538 65.5797 136.647 65.4823 136.708 65.3555L151.318 35.2439C151.446 34.9807 151.337 34.6607 151.074 34.5324ZM121.993 57.5364L120.212 56.6624L119.559 56.3407L119.504 56.3147L118.886 56.0109L118.296 55.7218L107.155 50.2518L107.131 50.2404L107.01 50.1803L107.907 48.3299C107.907 48.3299 107.906 48.3283 107.907 48.3283L108.906 46.2716H108.907L121.153 21.0272L150.133 35.2569L135.989 64.4084L121.993 57.5364Z" fill="#232323"/>
<path d="M148.782 35.5785L121.718 22.2911C121.659 22.2618 121.593 22.2586 121.533 22.2797C121.472 22.2992 121.422 22.3447 121.395 22.4032L110.565 44.7201L110.153 45.5697C110.095 45.6916 110.145 45.8345 110.263 45.8946C110.263 45.8963 110.265 45.8963 110.265 45.8963L110.923 46.2195L111.248 46.3787L118.536 49.9577L119.353 50.359L119.458 50.411L120.101 50.7261L120.535 50.939L120.847 51.0933L121.39 51.3597L137.327 59.1837C137.361 59.1999 137.397 59.2097 137.434 59.2097C137.46 59.2097 137.487 59.2048 137.513 59.1951C137.573 59.174 137.623 59.1301 137.652 59.0716L148.892 35.9051C148.95 35.7832 148.901 35.6386 148.78 35.5785H148.782ZM121.265 50.7554L120.828 50.5393L120.493 50.3752L120.07 50.1673L119.387 49.8326L119.31 49.7936L118.51 49.4021L111.766 46.0912L111.366 45.893L111.335 45.8784L111.221 45.8231L110.696 45.5648L110.738 45.4771L111.427 44.0589L121.722 22.8353L148.352 35.9099L137.324 58.6395L121.267 50.7554H121.265Z" fill="#232323"/>
<path d="M132.044 55.4589C131.886 55.4589 131.729 55.3874 131.624 55.251C131.445 55.0186 131.489 54.6824 131.72 54.5037C131.791 54.4484 131.86 54.3916 131.928 54.3331C135.865 50.9458 132.278 44.311 132.241 44.2444C132.099 43.9877 132.191 43.6628 132.448 43.5199C132.703 43.3769 133.026 43.4695 133.168 43.7262C133.336 44.0284 137.213 51.1879 132.616 55.1437C132.533 55.2136 132.451 55.2818 132.365 55.3484C132.269 55.4232 132.156 55.4589 132.043 55.4589H132.044Z" fill="#232323"/>
<path d="M120.01 49.3064C119.997 49.3064 119.982 49.3064 119.968 49.3064C119.676 49.2836 119.458 49.0269 119.48 48.7345C119.676 46.1872 120.98 43.5943 123.154 41.4353C123.362 41.2289 123.698 41.2306 123.903 41.4401C124.108 41.6497 124.107 41.9876 123.899 42.194C121.907 44.1727 120.714 46.5267 120.538 48.8174C120.517 49.0968 120.284 49.3096 120.01 49.3096V49.3064Z" fill="#232323"/>
<path d="M121.873 39.5947C123.104 39.5947 124.102 38.5909 124.102 37.3528C124.102 36.1146 123.104 35.1108 121.873 35.1108C120.642 35.1108 119.645 36.1146 119.645 37.3528C119.645 38.5909 120.642 39.5947 121.873 39.5947Z" fill="white"/>
<path d="M123.095 35.2082C120.766 34.6997 119.881 36.7873 119.881 36.7873L120.079 38.5874C120.079 38.5874 121.236 39.5865 121.307 39.5946C121.378 39.6027 122.235 39.7311 122.235 39.7311L123.095 35.2082Z" fill="#FFF1DF"/>
<path d="M124.481 36.4493C124.299 35.9197 123.973 35.4681 123.537 35.1399C123.506 35.1156 123.475 35.0928 123.443 35.0717C123.33 34.9921 123.21 34.9222 123.084 34.8589H123.083C122.921 34.7793 122.755 34.7175 122.585 34.6721C122.059 34.5275 121.503 34.5453 120.975 34.7273C120.279 34.9694 119.717 35.4681 119.394 36.1342C119.071 36.8003 119.025 37.5541 119.265 38.2543C119.504 38.9545 120.002 39.5198 120.664 39.8447C121.045 40.0332 121.457 40.1274 121.87 40.1274C121.96 40.1274 122.051 40.1225 122.14 40.1128C122.316 40.0965 122.49 40.0624 122.661 40.0104C122.698 40.0007 122.734 39.9893 122.77 39.9763C122.778 39.9731 122.787 39.9698 122.795 39.9666C122.92 39.9227 123.041 39.8691 123.156 39.809C123.674 39.536 124.091 39.1072 124.352 38.5694C124.675 37.9033 124.72 37.1495 124.481 36.4493ZM122.921 38.6978C122.857 38.7465 122.791 38.792 122.719 38.8326C122.627 38.8862 122.529 38.9317 122.426 38.9674C122.409 38.9723 122.393 38.9788 122.376 38.9821C122.219 39.0324 122.059 39.0584 121.899 39.06C121.634 39.0649 121.371 39.0064 121.127 38.8862C120.72 38.6864 120.415 38.3387 120.266 37.9082C120.119 37.4761 120.147 37.0131 120.347 36.6021C120.546 36.1927 120.891 35.884 121.321 35.7362C121.502 35.6728 121.688 35.6419 121.875 35.6419C121.981 35.6419 122.086 35.6517 122.191 35.6728C122.337 35.7004 122.48 35.7491 122.618 35.8158C122.642 35.8288 122.668 35.8401 122.692 35.8531C122.779 35.9035 122.863 35.9587 122.939 36.0221C122.963 36.04 122.984 36.0594 123.007 36.0789C123.052 36.1196 123.096 36.1634 123.135 36.2089C123.286 36.3762 123.403 36.5744 123.478 36.7954C123.541 36.9773 123.572 37.1658 123.572 37.3526C123.572 37.6093 123.514 37.8644 123.399 38.1015C123.285 38.3371 123.122 38.5386 122.921 38.6978Z" fill="#232323"/>
<path d="M136.779 40.6635C138.01 40.6635 139.008 39.6598 139.008 38.4216C139.008 37.1834 138.01 36.1797 136.779 36.1797C135.549 36.1797 134.551 37.1834 134.551 38.4216C134.551 39.6598 135.549 40.6635 136.779 40.6635Z" fill="white"/>
<path d="M136.779 36.295C136.906 36.3697 138.928 37.0975 138.928 37.0975L139.162 38.8228L138.134 40.129L136.889 40.4393L135.881 40.1306L136.871 36.2446L136.78 36.2966L136.779 36.295Z" fill="#FFF1DF"/>
<path d="M139.388 37.5184C139.147 36.8166 138.651 36.2528 137.989 35.9263C137.566 35.7184 137.106 35.6241 136.647 35.6469C136.471 35.655 136.293 35.681 136.121 35.7265C136.082 35.7346 136.043 35.746 136.004 35.7573C135.964 35.7687 135.922 35.7817 135.882 35.7963C135.791 35.8272 135.704 35.8629 135.618 35.9019C135.045 36.17 134.582 36.6232 134.301 37.2032C133.978 37.8693 133.931 38.6215 134.171 39.3233C134.351 39.8497 134.677 40.3013 135.11 40.6295C135.252 40.7383 135.404 40.8325 135.567 40.9121C135.567 40.9138 135.567 40.9138 135.567 40.9138C135.594 40.9284 135.623 40.9414 135.652 40.9528C135.785 41.0145 135.922 41.0632 136.061 41.099C136.295 41.164 136.534 41.1964 136.775 41.1964C137.077 41.1964 137.38 41.1461 137.674 41.0437C138.023 40.9235 138.338 40.7383 138.606 40.4995C138.872 40.2607 139.094 39.9699 139.255 39.6368C139.58 38.9708 139.625 38.2186 139.386 37.5184H139.388ZM138.306 39.1706C138.105 39.58 137.76 39.887 137.332 40.0365C137.043 40.1356 136.739 40.1551 136.448 40.095C136.306 40.0674 136.167 40.0202 136.033 39.9553C136.006 39.9406 135.979 39.9276 135.951 39.9114C135.946 39.9098 135.943 39.9065 135.938 39.9033C135.886 39.874 135.836 39.8415 135.788 39.8074C135.685 39.7327 135.591 39.6466 135.507 39.5524C135.36 39.3867 135.247 39.1917 135.173 38.9756C135.026 38.5451 135.053 38.0805 135.253 37.6711C135.379 37.4112 135.565 37.1919 135.794 37.0278C135.861 36.9807 135.93 36.9368 136.004 36.8994C136.079 36.8621 136.15 36.8312 136.227 36.8052C136.253 36.7955 136.281 36.7873 136.308 36.7808C136.453 36.737 136.602 36.7142 136.75 36.7126C136.76 36.7126 136.77 36.7126 136.78 36.7126C136.797 36.7126 136.813 36.7126 136.831 36.7126C137.069 36.7191 137.304 36.7776 137.524 36.8848C137.931 37.0846 138.238 37.4339 138.385 37.8644C138.446 38.048 138.478 38.2348 138.478 38.4233C138.478 38.6783 138.42 38.9334 138.306 39.1706Z" fill="#232323"/>
<path fill-rule="evenodd" clip-rule="evenodd" d="M132.635 31.5143C129.225 29.8394 125.131 30.6387 123.122 34.7781C121.114 38.9159 123.335 42.8084 126.287 44.2575C129.237 45.7067 133.596 44.9805 135.463 41.1335C137.33 37.2865 136.143 33.238 132.635 31.5159V31.5143Z" fill="white"/>
<path d="M132.356 31.4848C126.507 30.1413 124.448 32.7569 124.448 32.7569L122.88 36.3716L122.66 39.7328L124.267 42.5288L126.253 44.1095L130.279 44.7999L133.367 43.7277L135.642 41.0585L136.004 37.9507V35.5544L134.838 33.4295L133.278 31.6863L132.358 31.4865L132.356 31.4848Z" fill="#FFF1DF"/>
<path d="M136.831 36.713C136.825 36.6399 136.816 36.5684 136.805 36.4953C136.794 36.3881 136.778 36.2825 136.758 36.1785C136.729 35.9998 136.691 35.8227 136.647 35.6473C136.624 35.5563 136.598 35.4653 136.573 35.3743C136.295 34.4256 135.827 33.5645 135.198 32.8302C134.57 32.0943 133.784 31.4851 132.868 31.0351C131.702 30.4616 130.375 30.1415 129.044 30.1708C128.761 30.1773 128.477 30.2 128.194 30.2406C126.039 30.5412 123.965 31.8311 122.649 34.5425C122.628 34.5864 122.607 34.6303 122.587 34.6725C122.515 34.8268 122.45 34.9779 122.39 35.129C122.384 35.142 122.379 35.1534 122.376 35.1664C122.306 35.337 122.247 35.5059 122.193 35.6732C121.783 36.942 121.754 38.089 121.901 39.0605C121.929 39.2441 121.963 39.4195 122.001 39.5885C122.009 39.6275 122.017 39.6632 122.027 39.699C122.061 39.8419 122.1 39.98 122.142 40.1132C122.206 40.3309 122.281 40.5356 122.357 40.7241C122.497 41.075 122.665 41.4129 122.857 41.7378C122.973 41.9393 123.101 42.1342 123.235 42.3227C123.313 42.4299 123.392 42.5339 123.472 42.6362C124.172 43.5184 125.058 44.2445 126.056 44.7352C127.064 45.229 128.198 45.4808 129.339 45.4808C129.501 45.4808 129.662 45.476 129.822 45.4646C129.855 45.4646 129.885 45.4613 129.916 45.4581C130.426 45.4224 130.932 45.333 131.426 45.1917C131.801 45.0844 132.162 44.9496 132.51 44.7871C132.653 44.7205 132.795 44.6474 132.934 44.5711C133.109 44.4752 133.277 44.3729 133.441 44.2624C134.497 43.5573 135.355 42.5712 135.94 41.3658C135.983 41.2781 136.024 41.1887 136.062 41.0993C136.138 40.9353 136.208 40.7696 136.271 40.6039C136.311 40.4983 136.35 40.391 136.385 40.2854C136.408 40.2221 136.429 40.1587 136.448 40.0954C136.812 38.9646 136.941 37.8144 136.831 36.713ZM134.987 40.8979C134.386 42.1358 133.562 42.9367 132.742 43.455C132.574 43.5622 132.406 43.6564 132.24 43.7393C131.854 43.9326 131.481 44.0707 131.142 44.1666C129.603 44.6036 127.92 44.4622 126.523 43.7767C125.504 43.2763 124.619 42.4867 123.978 41.5282C123.973 41.5234 123.97 41.5169 123.968 41.512C123.718 41.14 123.508 40.7419 123.34 40.3244C123.275 40.1652 123.214 39.993 123.159 39.8094C123.106 39.6421 123.059 39.4634 123.02 39.2749C122.98 39.0897 122.948 38.8997 122.925 38.6982C122.839 37.9672 122.875 37.1272 123.138 36.2094C123.191 36.0258 123.254 35.839 123.327 35.6505C123.388 35.4832 123.46 35.3126 123.54 35.1404C123.56 35.0981 123.581 35.0543 123.602 35.0104C124.716 32.7165 126.42 31.589 128.222 31.2982C128.492 31.2544 128.765 31.23 129.037 31.2235C129.094 31.2203 129.15 31.2203 129.207 31.2203C129.756 31.2203 130.307 31.2901 130.845 31.4233C131.382 31.5549 131.907 31.7483 132.406 31.9919C133.968 32.7587 135.087 34.0682 135.56 35.6765C135.583 35.7512 135.602 35.826 135.621 35.9023C135.667 36.081 135.704 36.2613 135.733 36.4433C135.764 36.6366 135.786 36.8316 135.797 37.0281C135.854 37.8502 135.755 38.7047 135.51 39.5527C135.455 39.7412 135.394 39.928 135.324 40.1149C135.26 40.2871 135.19 40.4593 135.113 40.6298C135.074 40.7192 135.034 40.8085 134.99 40.8979H134.987Z" fill="#232323"/>
<path d="M130.703 33.3499C130.69 33.3499 130.679 33.3499 130.666 33.3499C129.098 33.2069 128.213 31.982 128.15 30.8448C128.095 29.8505 128.657 28.5606 130.427 28.1951C130.645 28.1512 130.858 28.2909 130.904 28.5119C130.949 28.7328 130.808 28.9456 130.589 28.9911C129.324 29.2527 128.916 30.0974 128.956 30.7993C129 31.5644 129.574 32.4352 130.739 32.5408C130.962 32.5603 131.125 32.7585 131.104 32.9827C131.084 33.1939 130.908 33.3515 130.702 33.3515L130.703 33.3499Z" fill="#232323"/>
<path d="M126.808 37.7638C126.724 37.7638 126.637 37.7556 126.55 37.7394C125.939 37.6224 125.449 37.1139 125.093 36.2237C125.011 36.0157 125.111 35.7785 125.318 35.6957C125.524 35.6112 125.76 35.7136 125.843 35.9215C126.011 36.3439 126.296 36.8638 126.697 36.9417C127.075 37.0148 127.493 36.6802 127.622 36.5453C127.776 36.3845 128.031 36.378 128.192 36.5323C128.354 36.6867 128.36 36.9417 128.208 37.1042C128.181 37.1334 127.579 37.7654 126.808 37.7654V37.7638Z" fill="#232323"/>
<path d="M131.829 38.9451C131.787 38.9451 131.749 38.9434 131.711 38.9402C130.996 38.8752 130.381 38.2497 130.105 37.3091C130.042 37.0947 130.163 36.8688 130.377 36.8039C130.591 36.7405 130.815 36.8623 130.88 37.0784C131.056 37.6746 131.419 38.097 131.786 38.1311C132.126 38.1636 132.496 37.8338 132.8 37.2311C132.9 37.0313 133.144 36.9517 133.342 37.0524C133.541 37.1531 133.62 37.3984 133.52 37.5983C132.945 38.7404 132.254 38.9467 131.829 38.9467V38.9451Z" fill="#232323"/>
<path d="M129.069 41.6678C129.006 41.6678 128.942 41.6645 128.879 41.658C128.134 41.5768 127.501 41.0472 127.228 40.2755C127.154 40.0643 127.264 39.832 127.474 39.7572C127.684 39.6825 127.915 39.793 127.989 40.0042C128.157 40.4802 128.532 40.8051 128.964 40.8522C129.339 40.8928 129.68 40.7125 129.898 40.3583C130.016 40.1683 130.264 40.1098 130.453 40.2284C130.642 40.347 130.7 40.5972 130.582 40.7872C130.235 41.3493 129.678 41.671 129.068 41.671L129.069 41.6678Z" fill="#232323"/>
<path d="M122.766 51.0868C122.612 51.0868 122.46 51.0202 122.357 50.8935C122.171 50.6661 122.204 50.3298 122.428 50.143C124.658 48.2942 129.204 45.7143 134.596 49.2202C134.842 49.3794 134.913 49.7092 134.755 49.9578C134.596 50.2047 134.269 50.2762 134.022 50.1153C129.437 47.1358 125.555 48.9326 123.103 50.965C123.005 51.0462 122.885 51.0868 122.766 51.0868Z" fill="#232323"/>
<path fill-rule="evenodd" clip-rule="evenodd" d="M120.527 46.769C123.311 47.3945 125.238 48.9476 125.238 48.9476L120.527 46.769Z" fill="#6B6B6B"/>
<path d="M125.238 49.4805C125.122 49.4805 125.005 49.4415 124.907 49.3635C124.889 49.3489 123.033 47.8786 120.411 47.2889C120.125 47.2239 119.946 46.9396 120.009 46.6521C120.073 46.3645 120.356 46.1842 120.642 46.2475C123.513 46.8925 125.486 48.4635 125.569 48.5301C125.797 48.7137 125.834 49.0499 125.651 49.279C125.546 49.4106 125.393 49.4788 125.238 49.4788V49.4805Z" fill="#232323"/>
<path d="M25.9586 33.5322L3.5293 58.3032L28.1529 80.8668L50.5822 56.0958L25.9586 33.5322Z" fill="#FFF1DF"/>
<path d="M5.82227 58.2402L24.7668 75.6004L45.0469 53.204L26.2509 35.9785L5.82227 58.2402Z" fill="white"/>
<path d="M50.9377 55.7008L47.8403 52.8626L47.3009 53.0901L46.7615 53.3143L49.8331 56.1297L49.5036 56.4936L48.961 57.093L48.3974 57.7153C48.4523 57.725 48.5088 57.7364 48.5654 57.7477C48.6283 57.7591 48.6913 57.7721 48.7559 57.7867C48.764 57.7884 48.7721 57.79 48.7801 57.7916C48.8544 57.8078 48.9271 57.8241 48.9998 57.842L49.544 57.2392H49.5456C49.7297 57.2896 49.9187 57.3448 50.1124 57.405L50.6308 56.8315L50.9732 56.4546C51.0685 56.349 51.1169 56.2109 51.1105 56.0695C51.104 55.9282 51.0426 55.7966 50.9377 55.7008ZM50.9377 55.7008L47.8403 52.8626L47.4075 52.4662L46.9763 52.0698L45.1288 50.377L44.2035 49.529H44.2019L43.2797 48.6826L36.7797 42.7252L26.3151 33.137C26.2117 33.0427 26.0728 32.994 25.934 32.9989C25.7935 33.0054 25.661 33.0687 25.5674 33.1727L3.13784 57.9427C3.04256 58.0483 2.99411 58.1848 3.00057 58.3261C3.00703 58.4674 3.0684 58.6006 3.17175 58.6965L17.8319 72.1285L27.796 81.2587C27.8961 81.3529 28.0253 81.3984 28.1512 81.3984C28.2966 81.3984 28.4387 81.3399 28.5437 81.2246L42.7355 65.5522L43.2878 64.9414L43.8417 64.3305L44.541 63.5589L49.3567 58.24L49.5828 57.9898L50.1124 57.405L50.6308 56.8315L50.9732 56.4546C51.0685 56.349 51.1169 56.2109 51.1105 56.0695C51.104 55.9282 51.0426 55.7966 50.9377 55.7008ZM49.5036 56.4936L48.961 57.093L48.3974 57.7153L47.9937 58.1604L44.3763 62.1552L43.5381 63.0812L42.9568 63.7229L42.3867 64.3533L28.1173 80.1117L18.2696 71.0888L4.27797 58.2676L25.9937 34.2839L36.0546 43.5034L44.2406 51.0057L45.1644 51.8521H45.166L46.3287 52.9179L46.7615 53.3143L49.8331 56.1297L49.5036 56.4936ZM50.9377 55.7008L47.8403 52.8626L47.3009 53.0901L46.7615 53.3143L49.8331 56.1297L49.5036 56.4936L48.961 57.093L48.3974 57.7153C48.4523 57.725 48.5088 57.7364 48.5654 57.7477C48.6283 57.7591 48.6913 57.7721 48.7559 57.7867C48.764 57.7884 48.7721 57.79 48.7801 57.7916C48.8528 57.8078 48.9271 57.8241 48.9998 57.842L49.544 57.2392H49.5456C49.7297 57.2896 49.9187 57.3448 50.1124 57.405L50.6308 56.8315L50.9732 56.4546C51.0685 56.349 51.1169 56.2109 51.1105 56.0695C51.104 55.9282 51.0426 55.7966 50.9377 55.7008Z" fill="#232323"/>
<path d="M24.767 75.8438C24.7072 75.8438 24.6491 75.8211 24.6038 75.7805L5.6593 58.4202C5.56079 58.3292 5.55271 58.1749 5.64315 58.0758L25.9232 35.6793C25.9668 35.6322 26.0266 35.6029 26.0912 35.5997C26.1558 35.5981 26.2188 35.6192 26.2656 35.6631L45.2101 53.0233C45.3087 53.1143 45.3167 53.2686 45.2263 53.3677L24.9462 75.7642C24.9026 75.8113 24.8429 75.8406 24.7783 75.8438C24.775 75.8438 24.7702 75.8438 24.767 75.8438ZM6.16477 58.2236L24.7508 75.2557L44.7047 53.2183L26.1186 36.1862L6.16477 58.2236Z" fill="#232323"/>
<path d="M31.9077 61.6757C31.7882 61.6757 31.6671 61.6351 31.5686 61.5523C30.8499 60.9479 30.2217 60.3663 29.6678 59.853C27.4473 57.7979 26.1053 56.5583 22.3829 56.6379C22.0922 56.6509 21.8484 56.4105 21.8419 56.1164C21.8355 55.8224 22.068 55.5787 22.3603 55.5722C26.5106 55.4763 28.1352 56.9872 30.3848 59.0683C30.9565 59.5979 31.5492 60.1454 32.2484 60.7335C32.4729 60.9219 32.5036 61.2582 32.3146 61.484C32.2097 61.6108 32.0595 61.6757 31.9077 61.6757Z" fill="#232323"/>
<path d="M22.3579 56.2644C17.8329 60.1147 13.3887 55.098 13.3887 55.098C19.963 46.8662 22.542 55.9817 22.542 55.9817" fill="#7DFF89"/>
<path d="M18.7316 58.2495C15.5227 58.2495 13.0277 55.491 12.9938 55.452C12.821 55.257 12.8145 54.9662 12.976 54.7632C15.1723 52.0144 17.2265 50.8105 19.082 51.1891C21.8693 51.7561 23.0062 55.668 23.0531 55.8354C23.1144 56.0498 23.0353 56.2708 22.8706 56.4007C22.8431 56.5031 22.7866 56.5989 22.701 56.672C21.338 57.832 19.9815 58.2495 18.7316 58.2495ZM14.1016 55.0653C15.1368 56.0579 18.5152 58.7775 21.9614 55.9036C21.6965 55.1319 20.7001 52.6057 18.8688 52.2337C17.5285 51.9624 15.8861 52.9404 14.1016 55.0653Z" fill="#232323"/>
<path d="M29.208 59.2845C29.0837 59.2845 28.9593 59.2406 28.8592 59.1513C26.7065 57.2489 27.0311 54.721 27.5027 53.6504C27.6222 53.3808 27.9355 53.2605 28.2019 53.3791C28.47 53.4994 28.5895 53.8129 28.4716 54.0826C28.4296 54.1784 27.4639 56.4967 29.5585 58.3487C29.7781 58.5437 29.8007 58.88 29.6069 59.1009C29.5019 59.2211 29.355 59.2829 29.208 59.2829V59.2845Z" fill="#232323"/>
<path d="M27.971 54.1253C23.8207 50.2295 29.3663 47.2842 29.3663 47.2842C34.048 51.7615 27.971 54.1253 27.971 54.1253Z" fill="#7DFF89"/>
<path d="M27.9711 54.6579C27.8387 54.6579 27.7095 54.6092 27.6094 54.515C26.3239 53.3079 25.7571 52.0407 25.9282 50.7508C26.2448 48.3643 29.0014 46.8762 29.1177 46.8145C29.3196 46.7072 29.565 46.7414 29.7298 46.8989C31.2429 48.3464 31.8744 49.7728 31.6063 51.1358C31.1525 53.4346 28.2812 54.5767 28.1601 54.6238C28.0987 54.6482 28.0341 54.6596 27.9695 54.6596L27.9711 54.6579ZM29.2857 47.9533C28.6219 48.3822 27.1653 49.4723 26.9796 50.8938C26.8681 51.7434 27.2396 52.6142 28.0842 53.4899C28.7511 53.1649 30.3047 52.2763 30.5695 50.923C30.7455 50.0214 30.3144 49.0239 29.2857 47.9533Z" fill="#232323"/>
<path d="M24.0251 64.0296C22.3472 60.7187 26.3877 60.1582 26.3877 60.1582C28.2627 63.9419 24.0251 64.0296 24.0251 64.0296Z" fill="#7DFF89"/>
<path d="M24.0252 64.5642C23.8265 64.5642 23.6441 64.4522 23.5536 64.2734C23.0045 63.1915 22.9383 62.233 23.3582 61.4239C24.1221 59.9504 26.2279 59.6434 26.3167 59.6304C26.5428 59.5995 26.7625 59.7165 26.8642 59.9212C27.5005 61.2062 27.5699 62.2785 27.0693 63.1102C26.2328 64.5025 24.1269 64.561 24.0365 64.5626C24.0332 64.5626 24.0284 64.5626 24.0252 64.5626V64.5642ZM26.0826 60.766C25.5044 60.9187 24.6291 61.2728 24.2965 61.9194C24.0833 62.3337 24.1011 62.8536 24.3514 63.4677C24.9166 63.3913 25.8064 63.1525 26.1633 62.5563C26.4217 62.1258 26.3942 61.5247 26.0826 60.766Z" fill="#232323"/>
<path d="M26.3293 60.6524C26.1484 60.6524 25.9708 60.5582 25.8723 60.3908C25.7237 60.1374 25.8077 59.8108 26.0596 59.6614C27.6325 58.7273 28.8534 58.4235 30.7994 59.4924C31.0562 59.6338 31.1514 59.9571 31.0109 60.2154C30.8704 60.4737 30.5491 60.5679 30.2923 60.4282C28.7533 59.5834 27.9426 59.78 26.599 60.5793C26.515 60.6296 26.4213 60.654 26.3293 60.654V60.6524Z" fill="#232323"/>
<path d="M31.0076 65.7681C30.7444 65.7681 30.5167 65.5716 30.4828 65.3019C29.7754 59.6906 35.0917 58.7694 35.145 58.7613C35.4341 58.7142 35.7054 58.9124 35.7522 59.2032C35.7991 59.494 35.602 59.7669 35.313 59.8141C35.1369 59.8433 30.9575 60.5906 31.5357 65.1687C31.5728 65.4611 31.3677 65.7275 31.077 65.7649C31.0544 65.7681 31.0318 65.7698 31.0092 65.7698L31.0076 65.7681Z" fill="#232323"/>
<path d="M18.2929 55.251L21.9959 55.4671C22.7565 55.545 22.5934 56.6693 21.8409 56.5214L18.2331 55.6523C17.9957 55.5938 18.049 55.2364 18.2929 55.2494V55.251Z" fill="#232323"/>
<path d="M119.837 48.1742C120.979 54.9747 118.561 60.5876 115.707 64.6052C115.695 64.3973 115.772 64.1503 115.964 63.8612C118.149 60.5486 118.782 53.2413 118.504 49.2578C118.227 45.2759 115.527 42.7838 111 46.1597L112.197 44.3841C116.344 41.6645 119.06 43.5376 119.838 48.1742H119.837Z" fill="white"/>
<path d="M114.884 84.2626C114.884 84.4007 114.882 84.5371 114.879 84.672C114.879 84.7126 114.879 84.7532 114.879 84.7922C114.708 84.7938 114.535 84.7938 114.362 84.7938H114.264C113.803 84.7954 113.338 84.7971 112.872 84.7971C92.4995 84.849 67.6508 84.9628 67.6508 84.9628H59.7555C59.7232 84.9741 59.6909 84.9871 59.6586 85.0001C59.657 84.9871 59.657 84.9758 59.6554 84.9628H59.0385C58.9368 83.7443 58.8625 82.4999 58.7898 81.21C58.7769 80.9858 58.7656 80.7616 58.7543 80.5374C58.7414 80.3295 58.7301 80.1215 58.7204 79.9136C58.7091 79.6942 58.6961 79.4749 58.6865 79.2556C58.6638 78.8348 58.6428 78.4141 58.6219 77.9949C58.6122 77.8292 58.6041 77.6668 58.596 77.5011C58.4814 75.2851 58.3683 73.0887 58.2375 70.8793C58.0696 67.8023 57.7643 64.8033 57.6158 61.8125C57.6028 61.5607 57.5915 61.3105 57.5802 61.0603C57.5705 60.802 57.5625 60.5437 57.5544 60.2854C57.5399 59.7899 57.5302 59.2928 57.5286 58.7956C57.5269 58.6072 57.5269 58.4155 57.5286 58.2254C57.5415 56.4319 57.6513 54.627 57.9194 52.7993C57.9581 52.5507 58.0001 52.3038 58.0437 52.0585C58.0728 51.8977 58.1035 51.7384 58.1358 51.5792C58.1487 51.5094 58.1632 51.4379 58.1778 51.368C58.2101 51.2121 58.244 51.0561 58.2779 50.9002C58.3053 50.7767 58.3344 50.6532 58.3635 50.5298C58.4216 50.2828 58.483 50.0375 58.5476 49.7954C58.5669 49.7191 58.5879 49.6427 58.6105 49.5664C58.6364 49.4689 58.6638 49.3714 58.6929 49.274C58.7365 49.1147 58.7833 48.9572 58.8318 48.7996C58.8609 48.7054 58.8899 48.6095 58.9206 48.5153C58.9529 48.4129 58.9868 48.309 59.0207 48.2066C59.024 48.1952 59.0272 48.1855 59.032 48.1741C59.1063 47.9451 59.1838 47.7209 59.2646 47.4983V47.4967C59.2678 47.4837 59.2727 47.4723 59.2775 47.4609C59.3114 47.3651 59.3469 47.2708 59.3825 47.1782C59.4277 47.0548 59.4745 46.9329 59.523 46.8111C59.5391 46.7672 59.5569 46.725 59.5747 46.6811L59.6376 46.5252C59.6812 46.4179 59.7248 46.3107 59.7701 46.2051C59.8153 46.0979 59.8605 45.9923 59.9073 45.8867C59.9606 45.7632 60.0155 45.6398 60.072 45.5179C60.1221 45.4107 60.1722 45.3035 60.2222 45.1963C60.261 45.1134 60.2997 45.0306 60.3401 44.9493C60.3902 44.847 60.4402 44.7446 60.4919 44.6423C60.5937 44.4392 60.6986 44.2378 60.8052 44.0396C60.9667 43.7406 61.1314 43.4466 61.3026 43.1558C61.4738 42.8666 61.6498 42.5823 61.8307 42.3013C61.8614 42.2558 61.8904 42.2087 61.9211 42.1615C62.1343 41.8366 62.3539 41.5182 62.5816 41.2063C62.6462 41.1169 62.7108 41.0292 62.777 40.9399C62.8432 40.8521 62.9094 40.7644 62.9757 40.6783C63.2454 40.3274 63.5231 39.9846 63.809 39.6516C63.8849 39.5638 63.9624 39.4761 64.0383 39.39C64.0996 39.3185 64.1626 39.2503 64.2256 39.1804C64.2579 39.1431 64.2918 39.1057 64.3257 39.07C64.4743 38.9091 64.6229 38.7499 64.7763 38.5923C64.9087 38.4542 65.0427 38.3194 65.18 38.1846C65.18 38.1829 65.1816 38.1829 65.1832 38.1829C65.4239 37.9441 65.6693 37.7134 65.9196 37.4876C65.9713 37.4405 66.023 37.3934 66.0747 37.3479C66.1716 37.2618 66.2669 37.1773 66.3654 37.0945C66.4219 37.0441 66.4784 36.997 66.5365 36.9483C66.627 36.8719 66.719 36.7955 66.8111 36.7208C66.9306 36.6233 67.0501 36.5259 67.1712 36.4316C67.1809 36.4235 67.1906 36.4154 67.1987 36.4089C67.4474 36.2139 67.7009 36.0239 67.9577 35.8387C68.0869 35.7444 68.2177 35.6518 68.3501 35.5609C68.4793 35.4731 68.6085 35.3854 68.7377 35.2977C68.8749 35.2067 69.0138 35.1174 69.1527 35.0296C69.2577 34.9614 69.3643 34.8964 69.4692 34.8314C69.5758 34.7664 69.684 34.7015 69.7906 34.6381C69.818 34.6219 69.8439 34.6072 69.8713 34.591C70.1168 34.4464 70.3639 34.3083 70.6142 34.1735C70.8031 34.0711 70.9937 33.972 71.1843 33.8745C71.3554 33.7884 71.5266 33.7056 71.6994 33.6227C71.8448 33.5529 71.9917 33.4846 72.1403 33.4197C72.3922 33.3043 72.6458 33.1939 72.9025 33.0883C73.0656 33.0216 73.2304 32.955 73.3951 32.8917C73.5404 32.8348 73.689 32.7796 73.836 32.726C73.8553 32.7195 73.8731 32.7114 73.8925 32.7049C74.0588 32.6447 74.2251 32.5863 74.3931 32.531C74.5772 32.4677 74.7613 32.4076 74.9486 32.3491C75.3685 32.2175 75.7932 32.0973 76.2228 31.9868C76.5991 31.8909 76.9802 31.8016 77.3645 31.7236H77.3662C78.4029 31.5075 79.4607 31.3564 80.5362 31.2687C80.646 31.2606 80.7542 31.2525 80.8641 31.2444C80.9109 31.2411 80.9577 31.2379 81.0062 31.2362C81.1596 31.2249 81.3146 31.2167 81.4697 31.2102C81.6489 31.2005 81.8265 31.194 82.0058 31.1907C82.6582 31.1712 83.3139 31.1777 83.9744 31.2086C84.1084 31.2135 84.2425 31.2184 84.3749 31.2265C84.475 31.2314 84.5751 31.2362 84.6753 31.2444C84.7528 31.2476 84.8303 31.2541 84.9078 31.2606C85.36 31.2947 85.8122 31.3435 86.2627 31.4084C86.3515 31.4214 86.4404 31.4344 86.5292 31.4491C86.5308 31.4474 86.5324 31.4491 86.534 31.4491C86.773 31.4848 87.012 31.527 87.251 31.5725C87.398 31.5985 87.5433 31.6278 87.6903 31.6586C87.8146 31.6862 87.939 31.7122 88.0633 31.7415C88.199 31.7723 88.333 31.8032 88.4671 31.8373C88.6754 31.8893 88.8837 31.9429 89.0904 32.003C89.1857 32.029 89.281 32.0566 89.3763 32.0843C89.4958 32.1184 89.6153 32.1557 89.7348 32.1931C89.8446 32.2272 89.9528 32.2613 90.061 32.2987C90.1789 32.3361 90.2952 32.3767 90.4114 32.4173C90.476 32.44 90.5406 32.4628 90.6052 32.4872C90.707 32.5229 90.8071 32.5603 90.9088 32.5993C90.925 32.6041 90.9427 32.6106 90.9589 32.6187C91.0493 32.6512 91.1381 32.687 91.227 32.7227C91.4337 32.804 91.6371 32.8884 91.8406 32.9778C91.9262 33.0151 92.0118 33.0525 92.0974 33.0915C92.1943 33.1354 92.2912 33.1792 92.3881 33.2247C92.5027 33.2783 92.6158 33.3336 92.7304 33.3904C92.9743 33.5106 93.2165 33.6357 93.4539 33.7673C93.5702 33.8307 93.6865 33.8957 93.8011 33.9607C93.8011 33.9607 93.806 33.9639 93.8076 33.9655C93.9271 34.0354 94.0466 34.1052 94.1645 34.1767C94.649 34.4708 95.1173 34.7843 95.5646 35.119C95.6341 35.1693 95.7035 35.223 95.7713 35.2766C95.8908 35.3659 96.0087 35.4601 96.125 35.5544C96.2574 35.6567 96.3898 35.7623 96.519 35.8695C96.532 35.8777 96.5433 35.889 96.5562 35.8988C96.6692 35.9914 96.779 36.084 96.8888 36.1798C96.9195 36.2058 96.9502 36.2318 96.9809 36.2594C97.0584 36.326 97.1359 36.3943 97.2118 36.4641C97.27 36.5145 97.3281 36.5681 97.3862 36.6233C97.4848 36.7127 97.58 36.8037 97.6753 36.8963C97.7948 37.01 97.9111 37.1237 98.0257 37.2423C98.1339 37.3512 98.2405 37.4616 98.3455 37.5737C98.394 37.6225 98.4392 37.6712 98.4844 37.7216C98.5571 37.7995 98.6281 37.8775 98.6992 37.9571C98.7767 38.0449 98.8542 38.1326 98.9285 38.2203C99.0157 38.3178 99.0997 38.4169 99.182 38.5176C99.2676 38.62 99.3532 38.7223 99.4356 38.8263C99.6164 39.0505 99.7908 39.2795 99.962 39.5102C100.046 39.6223 100.128 39.736 100.209 39.8514C100.279 39.9489 100.348 40.0463 100.416 40.1454C100.437 40.1747 100.458 40.2039 100.477 40.2348C100.547 40.3371 100.616 40.4411 100.686 40.5451C100.813 40.7368 100.937 40.9301 101.06 41.1267C101.118 41.2193 101.176 41.3135 101.233 41.4077C101.236 41.4142 101.241 41.4207 101.246 41.4289C101.302 41.5215 101.357 41.6141 101.412 41.7083C101.496 41.8512 101.58 41.9958 101.663 42.1404C102.17 43.0372 102.633 43.9681 103.059 44.9201C103.114 45.0435 103.169 45.1686 103.224 45.2937C103.491 45.9062 103.744 46.5284 103.985 47.1555C104.045 47.3098 104.103 47.4642 104.161 47.6185C104.343 48.1059 104.519 48.5981 104.69 49.092C104.703 49.131 104.716 49.1684 104.731 49.2073C104.904 49.711 105.072 50.2178 105.236 50.7247C105.312 50.9603 105.387 51.1958 105.461 51.433C105.532 51.6572 105.603 51.8814 105.671 52.1072C106.018 53.2249 106.347 54.3443 106.677 55.4506C107.841 59.439 109.246 63.2876 110.627 67.172C110.645 67.224 110.662 67.2743 110.68 67.3263C110.858 67.825 111.034 68.3254 111.208 68.8258C111.283 69.0321 111.354 69.2384 111.426 69.4448C111.493 69.6365 111.559 69.8282 111.625 70.0199C112.268 71.8768 112.889 73.7499 113.463 75.6604L113.472 75.6994C114.42 78.8787 114.881 81.7201 114.881 84.2626H114.884Z" fill="#F4D13D"/>
<path d="M60.0632 84.9629H59.7548C59.7225 84.9743 59.6902 84.9873 59.6579 85.0003C59.6563 84.9873 59.6563 84.9759 59.6546 84.9629H59.0377C58.936 83.7445 58.8617 82.5001 58.789 81.2102C58.7761 80.986 58.7648 80.7618 58.7535 80.5376C58.7406 80.3296 58.7293 80.1217 58.7196 79.9137C58.7083 79.6944 58.6954 79.4751 58.6857 79.2558C58.6631 78.835 58.6421 78.4143 58.6211 77.9951L59.2412 78.0455L59.5884 78.0747C59.5917 78.5377 59.6062 79.082 59.6336 79.6896C59.6433 79.8699 59.6514 80.0551 59.6627 80.2452C59.6708 80.406 59.6805 80.5701 59.6918 80.7374C59.7677 81.9607 59.8872 83.366 60.0503 84.8492C60.0551 84.8866 60.0584 84.9256 60.0632 84.9629Z" fill="white"/>
<path d="M114.885 84.2624C114.885 84.4005 114.883 84.537 114.88 84.6718C114.88 84.7124 114.88 84.7531 114.88 84.792C114.709 84.7937 114.536 84.7937 114.363 84.7937C114.334 84.6085 114.305 84.4216 114.273 84.2316C113.567 80.0077 112.196 74.6335 110.717 70.6176C110.667 70.4811 110.617 70.3479 110.566 70.2147C110.508 70.062 110.45 69.9109 110.39 69.763C110.137 69.1132 109.88 68.5105 109.625 67.963L109.73 67.9013L109.945 67.7729L110.147 67.6511L110.686 67.3262C110.864 67.8249 111.04 68.3253 111.214 68.8257C111.288 69.032 111.359 69.2383 111.432 69.4446C111.498 69.6363 111.565 69.828 111.631 70.0197C112.273 71.8766 112.895 73.7498 113.468 75.6603L113.478 75.6993C114.426 78.8786 114.886 81.72 114.886 84.2624H114.885Z" fill="white"/>
<path d="M71.3281 35.2734C64.6084 37.7346 57.5625 50.4096 58.462 59.0751L57.5254 58.2255C57.5383 56.4303 57.6481 54.627 57.9178 52.7994C59.2001 44.54 63.6798 38.2496 69.7907 34.6382L71.3281 35.2734Z" fill="white"/>
<path d="M96.1278 35.556C100.504 38.9432 102.894 43.8901 104.693 49.0936V52.065C102.62 46.5982 97.7863 32.3767 81.0832 32.362L80.8652 31.246C81.8891 31.1745 82.9275 31.1615 83.9756 31.2102C88.3374 31.3516 92.8398 32.8819 96.1262 35.556H96.1278Z" fill="white"/>
<g opacity="0.32">
<path d="M112.87 84.7973C92.4977 84.8493 67.649 84.963 67.649 84.963H62.793C62.8107 84.8704 62.8285 84.7762 62.8495 84.6836C62.8979 84.4447 62.9528 84.2076 63.011 83.9687C64.8956 76.2325 71.0839 68.4995 84.3488 65.8693C103.658 62.0434 111.639 75.274 112.87 84.7973Z" fill="#FFF4C5"/>
</g>
<path d="M80.5378 31.2688C79.4623 31.3565 78.4045 31.5076 77.3678 31.7237H77.3662C76.9818 31.8016 76.6007 31.891 76.2244 31.9869C75.7948 32.0973 75.3701 32.2175 74.9502 32.3491C74.7629 32.4076 74.5788 32.4677 74.3947 32.5311C74.2268 32.5863 74.0604 32.6448 73.8941 32.7049C73.8747 32.7114 73.857 32.7195 73.8376 32.726C73.6906 32.7797 73.542 32.8349 73.3967 32.8917C73.232 32.9551 73.0673 33.0217 72.9041 33.0883C72.6474 33.1939 72.3938 33.3044 72.1419 33.4197C71.9933 33.4847 71.8464 33.5529 71.701 33.6228C71.5282 33.7057 71.3571 33.7885 71.1859 33.8746C70.9953 33.9721 70.8048 34.0712 70.6158 34.1735C70.7595 34.2255 70.9049 34.2726 71.0518 34.3133C71.1326 34.3392 71.215 34.3604 71.2973 34.3815C71.3635 34.3977 71.4297 34.414 71.4976 34.4302C71.6445 34.3555 71.7931 34.2824 71.9433 34.2109C72.0886 34.141 72.2356 34.0728 72.3825 34.0062C72.6345 33.8909 72.8896 33.7804 73.1464 33.6748C73.3095 33.6066 73.4726 33.54 73.6389 33.4782C73.6761 33.462 73.7132 33.4474 73.7504 33.4344C73.8779 33.3856 74.0055 33.3369 74.1347 33.2914C74.1929 33.2703 74.251 33.2492 74.3091 33.2297C74.4932 33.1647 74.6789 33.1013 74.8647 33.0396C75.7787 32.7439 76.7186 32.4986 77.6811 32.3069C77.8329 32.276 77.9863 32.2484 78.1397 32.2208C78.5886 32.1396 79.0424 32.0713 79.5011 32.0145H79.5027C79.8887 31.9674 80.2778 31.9284 80.6719 31.8975C80.6315 31.6863 80.5879 31.4767 80.5378 31.2688ZM59.2404 78.0454C59.2291 77.8195 59.2178 77.5953 59.2065 77.3712C59.0966 75.2348 58.982 73.0254 58.8544 70.8501C58.772 69.3685 58.659 67.8901 58.5492 66.4605C58.4361 64.9951 58.3263 63.5557 58.2488 62.1277C58.034 62.0302 57.8225 61.923 57.6141 61.8125C57.7627 64.8034 58.0679 67.8024 58.2359 70.8793C58.3667 73.0888 58.4797 75.2852 58.5944 77.5011C58.6025 77.6668 58.6106 77.8293 58.6202 77.995C58.6412 78.4141 58.6622 78.8349 58.6848 79.2557C58.8964 79.345 59.1079 79.4376 59.3179 79.5367C59.292 79.038 59.2662 78.5409 59.2404 78.0454ZM114.068 75.5208L114.055 75.4769C113.463 73.4982 112.812 71.5438 112.143 69.6203C112.071 69.4058 111.998 69.193 111.922 68.9802C111.845 68.756 111.765 68.5318 111.688 68.3092C111.688 68.3092 111.686 68.3076 111.688 68.3076C111.37 67.4043 111.05 66.5092 110.734 65.6206C109.537 62.2593 108.298 58.7843 107.271 55.2671L107.127 54.783C106.804 53.6994 106.48 52.6109 106.142 51.5257C106.068 51.2885 105.994 51.0529 105.918 50.8158C105.915 50.8044 105.91 50.7914 105.907 50.78C105.863 50.6419 105.819 50.5055 105.774 50.369C105.743 50.2748 105.714 50.1838 105.684 50.0912C104.739 47.2027 103.655 44.3759 102.2 41.8026C102.089 41.6092 101.977 41.4159 101.863 41.2242C101.747 41.0293 101.627 40.8359 101.506 40.6442C100.177 38.542 98.5571 36.6397 96.5061 35.0524C96.2074 34.8088 95.8973 34.5748 95.5792 34.349C95.492 34.2873 95.4047 34.2272 95.3159 34.167C92.1378 31.9966 88.0924 30.7018 83.9954 30.5702C83.1217 30.5296 82.2577 30.5296 81.4083 30.5686C81.2355 30.5767 81.0643 30.5848 80.8931 30.5962C80.8156 30.6011 80.7397 30.606 80.6638 30.6125C80.5637 30.619 80.4636 30.6271 80.3651 30.6352C79.1087 30.7408 77.8797 30.9309 76.6879 31.2038C76.5038 31.246 76.3197 31.2899 76.1372 31.3354C75.7658 31.428 75.3976 31.5303 75.0342 31.6392C74.8485 31.6944 74.6628 31.7513 74.4803 31.8114C74.293 31.8715 74.1073 31.9349 73.9232 31.9999C73.8295 32.0323 73.7358 32.0665 73.6422 32.1006C73.4758 32.1607 73.3111 32.2224 73.1464 32.2874C72.9817 32.3508 72.8186 32.4157 72.6555 32.484C72.3971 32.5896 72.1419 32.7 71.89 32.8138C71.743 32.882 71.5961 32.9486 71.4507 33.0185C71.3005 33.0899 71.1504 33.163 71.0018 33.2394C70.6094 33.4344 70.225 33.6407 69.8455 33.8567C69.6097 33.9916 69.3772 34.1297 69.1462 34.271C68.9169 34.4124 68.6908 34.5553 68.468 34.7048C66.7255 35.8566 65.138 37.2261 63.7363 38.7906C63.6249 38.9141 63.515 39.0392 63.4068 39.1643C63.2777 39.3137 63.1517 39.4632 63.0273 39.6159C61.2299 41.8042 59.7749 44.3337 58.7381 47.1409C58.6558 47.3651 58.5766 47.591 58.4991 47.8184C58.4248 48.0393 58.3522 48.2635 58.2811 48.4877C57.8612 49.8345 57.535 51.2398 57.3089 52.697C56.9488 55.1453 56.8681 57.5204 56.9246 59.8972C56.931 60.1555 56.9375 60.4138 56.9472 60.6721C56.9569 60.932 56.9666 61.192 56.9795 61.4519C57.0554 63.1317 57.1846 64.8213 57.317 66.5466C57.4268 67.9697 57.5399 69.4416 57.6206 70.9118C57.7498 73.0839 57.8628 75.2901 57.9727 77.4231C57.9985 77.9446 58.026 78.4645 58.0518 78.9892C58.0647 79.2167 58.076 79.4441 58.0873 79.6716C58.1002 79.8925 58.1115 80.1151 58.1228 80.3376C58.139 80.6382 58.1551 80.9387 58.1713 81.2409C58.2424 82.4675 58.315 83.7103 58.4184 84.9628H59.6554C59.5537 83.7168 59.481 82.4593 59.4067 81.1808C59.397 81.0151 59.3889 80.8494 59.3792 80.6837C59.3696 80.5001 59.3599 80.3181 59.3502 80.1362C59.3405 79.9364 59.3292 79.7365 59.3195 79.5367C59.2937 79.038 59.2678 78.5409 59.242 78.0454C59.2307 77.8195 59.2194 77.5953 59.2081 77.3712C59.0983 75.2348 58.9836 73.0254 58.856 70.8501C58.7737 69.3685 58.6606 67.8901 58.5508 66.4605C58.4378 64.9951 58.3279 63.5557 58.2504 62.1277C58.2391 61.9051 58.2278 61.6858 58.2181 61.4649C58.2052 61.2147 58.1955 60.9645 58.1858 60.7143C58.1632 60.071 58.1487 59.4277 58.1455 58.7859C58.1374 56.8365 58.2391 54.8918 58.5314 52.9082C58.806 51.1358 59.2388 49.4446 59.812 47.846C59.8944 47.6153 59.9816 47.3863 60.0704 47.1604C60.1609 46.9249 60.2561 46.6926 60.3547 46.4635C61.6724 43.3589 63.549 40.6475 65.8599 38.4283C66.044 38.2512 66.2313 38.0758 66.4219 37.9068C66.5979 37.7476 66.7756 37.5933 66.9548 37.4406C67.885 36.6527 68.8749 35.9411 69.9198 35.3075C70.1233 35.1824 70.3284 35.0622 70.5367 34.9452C70.5868 34.916 70.6368 34.8884 70.6885 34.8591C70.7644 34.8169 70.8403 34.7746 70.9178 34.734H70.9194C71.11 34.63 71.3022 34.5293 71.4976 34.4302C71.6445 34.3555 71.7931 34.2824 71.9433 34.2109C72.0886 34.141 72.2356 34.0728 72.3825 34.0062C72.6345 33.8909 72.8896 33.7804 73.1464 33.6748C73.3095 33.6066 73.4726 33.54 73.6389 33.4782C73.6761 33.462 73.7132 33.4474 73.7504 33.4344C73.8779 33.3856 74.0055 33.3369 74.1347 33.2914C74.1929 33.2703 74.251 33.2492 74.3091 33.2297C74.4932 33.1647 74.6789 33.1013 74.8647 33.0396C75.7787 32.7439 76.7186 32.4986 77.6811 32.3069C77.8329 32.276 77.9863 32.2484 78.1397 32.2208C78.5886 32.1396 79.0424 32.0713 79.5011 32.0145H79.5027C79.8887 31.9674 80.2778 31.9284 80.6719 31.8975C80.7769 31.8894 80.8834 31.8813 80.9884 31.8764C81.0207 31.8731 81.053 31.8715 81.0853 31.8699C81.221 31.8601 81.3566 31.8536 81.4939 31.8471C82.3046 31.8114 83.1298 31.8114 83.9631 31.8488C86.7407 31.9381 89.4861 32.5896 91.9198 33.704H91.9214C92.1103 33.7901 92.296 33.8795 92.4801 33.9705C93.6671 34.5602 94.7701 35.2636 95.7584 36.0662C97.3862 37.3252 98.7315 38.8085 99.87 40.446C100.004 40.6377 100.135 40.8327 100.262 41.0293C100.39 41.221 100.513 41.4159 100.632 41.6125C102.141 44.0607 103.26 46.7982 104.221 49.6233C104.382 50.0977 104.539 50.5753 104.692 51.0546C104.729 51.1683 104.766 51.282 104.802 51.3957C104.873 51.6199 104.942 51.8425 105.012 52.0667C105.075 52.2681 105.138 52.4696 105.198 52.671C105.451 53.4963 105.698 54.3232 105.944 55.1469L106.087 55.6278C107.123 59.1791 108.368 62.6719 109.572 66.0511C109.761 66.5823 109.952 67.1152 110.142 67.6513C110.343 68.215 110.543 68.782 110.742 69.3506C110.805 69.5309 110.868 69.7129 110.931 69.8948C110.987 70.0573 111.044 70.2197 111.098 70.3822C111.719 72.1774 112.321 73.9985 112.87 75.8343L112.881 75.8749C112.881 75.8749 112.883 75.8798 112.885 75.883C113.803 78.9665 114.265 81.7413 114.269 84.2318C114.269 84.4218 114.269 84.6087 114.26 84.7939H114.359C114.532 84.7939 114.705 84.7939 114.876 84.7922H115.501C115.567 82.0288 115.089 78.9519 114.067 75.5208H114.068Z" fill="#232323"/>
<path d="M81.0011 31.1989C81.0916 31.7902 81.1384 32.4384 81.1384 33.1435L76.1919 34.7437C71.7008 36.0645 68.0075 34.2482 66.5767 32.1216C65.569 30.6205 65.6853 28.9667 67.4391 28.1463C70.5995 26.6663 72.7699 28.2373 73.6694 29.1357C73.9811 29.4427 74.141 29.6718 74.141 29.6718C74.1232 29.355 74.1361 29.0577 74.1749 28.7815C74.6917 24.9914 80.0693 24.993 81.0011 31.2021V31.1989Z" fill="#F4D13D"/>
<path d="M81.002 31.1987C78.6006 26.7181 75.5178 27.9366 74.1758 28.7781C74.6926 24.9879 80.0702 24.9896 81.002 31.1987Z" fill="white"/>
<path d="M73.6714 29.1337C73.5599 29.2214 73.5018 29.2751 73.5018 29.2751C70.708 27.8828 65.0348 29.5155 67.6106 32.7175L66.5787 32.1213C65.571 30.6202 65.6872 28.9664 67.441 28.146C70.6014 26.666 72.7719 28.2369 73.6714 29.1353V29.1337Z" fill="white"/>
<path d="M80.8501 33.1402C80.6208 30.9941 80.0168 28.7246 78.2824 27.4216C76.4527 26.1886 74.6908 27.4866 74.7619 29.6408V29.9414C74.7619 30.263 74.5083 30.5213 74.1967 30.5165C73.9237 30.5132 73.6977 30.3085 73.6444 30.0421C73.6024 29.9901 73.5232 29.8975 73.4538 29.826C72.6593 28.9845 71.5918 28.3964 70.4614 28.2859C69.5312 28.1901 68.5962 28.4273 67.7499 28.8269C66.1932 29.5092 66.5194 31.0412 67.5174 32.1573C68.0761 32.8104 68.7996 33.3205 69.5586 33.7169C71.5837 34.7842 73.9044 34.8557 76.112 34.4593C76.4446 34.4008 76.5851 34.898 76.2735 35.0279C74.4825 35.7834 72.4251 35.9166 70.4614 35.4584C69.4698 35.2213 68.5089 34.8102 67.6595 34.2091C65.2226 32.5894 63.9 29.0202 67.1411 27.4574C68.6882 26.7361 70.5437 26.546 72.1473 27.2771C73.1357 27.7254 73.9948 28.4013 74.644 29.2997L73.5265 29.7009C73.4603 29.0397 73.5184 28.3363 73.7623 27.6637C74.5681 25.386 77.2343 24.7914 79.0995 26.1545C80.2203 26.918 80.8889 28.1722 81.2005 29.4589C81.509 30.6984 81.5558 31.9461 81.4315 33.1499C81.4137 33.3156 81.27 33.4342 81.1101 33.4147C80.9712 33.3968 80.8646 33.2815 80.8501 33.1434V33.1402Z" fill="#232323"/>
<path d="M86.8717 49.5795C86.7974 49.8524 86.6068 50.1091 86.3323 50.2943C84.5511 51.4916 79.07 52.6402 76.7446 52.2958C75.7772 52.1447 75.3654 51.2966 75.9662 50.4811C76.034 50.3853 76.1196 50.291 76.2181 50.1984C79.6692 46.9411 81.5974 46.3985 86.1321 48.3253C86.799 48.6047 87.0009 49.1165 86.8733 49.5811L86.8717 49.5795Z" fill="#F78426"/>
<path d="M86.8723 49.5796C86.8158 49.5504 86.756 49.5211 86.6963 49.4886C82.6897 47.4043 79.2628 47.7698 76.3188 50.8858L75.9668 50.4796C76.0346 50.3838 76.1202 50.2896 76.2187 50.197C79.6698 46.9397 81.598 46.3971 86.1327 48.3238C86.7996 48.6032 87.0015 49.115 86.8739 49.5796H86.8723Z" fill="#FFF4C5"/>
<path d="M86.8655 48.1613C86.6685 47.9907 86.4149 47.8737 86.1856 47.7876C85.8594 47.6658 85.5348 47.531 85.2005 47.4254C83.6163 46.8681 81.785 46.4929 80.1248 47.029C78.5083 47.5537 77.1146 48.6958 75.8776 49.8135C74.8634 50.6843 74.9054 52.226 76.2442 52.7459C78.6084 53.4444 83.5824 52.3072 85.8077 51.2464C86.1355 51.0823 86.5231 50.8809 86.8073 50.6469C87.568 50.0409 87.6842 48.7884 86.8655 48.1613ZM86.0289 49.8119C86.0289 49.8119 85.6834 50.0068 85.6769 50.0085L85.3345 50.166C83.7503 50.8207 82.0595 51.1846 80.3735 51.4722C79.2011 51.6574 78.0367 51.8199 76.8885 51.7289C76.2555 51.685 76.0827 51.3032 76.3185 50.8873C76.3734 50.7866 76.4541 50.6843 76.5591 50.5836C79.7453 47.3945 81.6687 46.8876 85.819 48.7559C86.1808 48.8875 86.3842 49.0954 86.3729 49.3245C86.3681 49.4821 86.2583 49.651 86.0289 49.8119Z" fill="#232323"/>
<path d="M68.0317 49.5404C68.0785 49.3812 68.1351 49.2285 68.2013 49.0742C68.2594 48.9214 68.3369 48.7752 68.4031 48.6225C68.4806 48.4763 68.5678 48.3285 68.6551 48.1806C68.7536 48.0409 68.8408 47.8931 68.9506 47.7599C69.0604 47.6267 69.1686 47.4853 69.3091 47.3667C69.4302 47.2416 69.5804 47.1214 69.7241 47.0126C70.031 46.8014 70.3765 46.6324 70.7544 46.5366C71.1323 46.4407 71.528 46.4326 71.901 46.5008C72.2741 46.5691 72.6277 46.699 72.941 46.868C73.2543 47.0369 73.5402 47.2514 73.7969 47.4821C73.9261 47.5974 74.0473 47.7241 74.1603 47.8525C74.2136 47.9223 74.2733 47.9808 74.325 48.0507L74.4041 48.1563C74.43 48.192 74.4574 48.2261 74.4849 48.2716C74.6335 48.4828 74.585 48.785 74.3718 48.9279C74.2184 49.0384 74.0343 49.0352 73.8809 48.9442L73.7937 48.8906C73.7727 48.8841 73.7469 48.85 73.7146 48.8353L73.6338 48.7704C73.5773 48.7314 73.5192 48.6826 73.4643 48.6436C73.3528 48.5657 73.2301 48.4893 73.1187 48.4113C73.0072 48.3333 72.8861 48.2667 72.7682 48.2099C72.7133 48.1806 72.6487 48.1433 72.5971 48.1238L72.5115 48.0799L72.4275 48.0458C71.9527 47.8476 71.4908 47.7696 71.0629 47.8541C70.8481 47.8963 70.6317 47.9792 70.4234 48.101C70.3216 48.1709 70.2167 48.2326 70.1166 48.3122C70.0665 48.3528 70.0148 48.3821 69.9664 48.4324L69.8194 48.5722C69.7693 48.6128 69.7225 48.6713 69.6741 48.7216C69.6256 48.772 69.5772 48.8207 69.5287 48.8711L69.2542 49.1976L68.9926 49.5404C68.9086 49.6574 68.8279 49.7841 68.7342 49.9027L68.7197 49.9254C68.5888 50.1025 68.3434 50.1301 68.1803 49.992C68.0317 49.88 67.9865 49.698 68.0333 49.5388L68.0317 49.5404Z" fill="#232323"/>
<path d="M86.932 45.7845C86.9788 45.6253 87.0353 45.4726 87.1015 45.3182C87.1678 45.1639 87.2356 45.0095 87.3131 44.865C87.3906 44.7204 87.4778 44.5709 87.565 44.4231C87.6102 44.3532 87.6635 44.2834 87.7088 44.2135C87.762 44.142 87.8073 44.0738 87.8605 44.0023C87.9704 43.8707 88.0883 43.7261 88.2191 43.6092C88.3402 43.4841 88.492 43.3736 88.6341 43.255C88.9409 43.0438 89.2865 42.8748 89.666 42.7887C90.0455 42.7026 90.4428 42.6945 90.8158 42.7725C91.1873 42.8391 91.5345 42.9821 91.8413 43.1624C92.1481 43.3427 92.4324 43.5572 92.6714 43.7911C92.7925 43.9178 92.9136 44.0348 93.0154 44.1648C93.0686 44.2346 93.1187 44.2947 93.1704 44.3646C93.2221 44.4344 93.2641 44.4962 93.3206 44.5855C93.4336 44.7642 93.3819 44.9949 93.2108 45.1103C93.0816 45.1964 92.9249 45.1866 92.8119 45.0989L92.7667 45.068C92.7214 45.0372 92.6552 44.99 92.5971 44.9413C92.5406 44.9023 92.4824 44.8536 92.4275 44.8146C92.3064 44.7382 92.1917 44.6505 92.0722 44.5839C91.8316 44.4409 91.591 44.3077 91.3504 44.2135C90.8659 44.0186 90.3879 43.9519 89.9648 44.0657C89.7516 44.1176 89.5384 44.2103 89.3317 44.3418C89.125 44.4734 88.9264 44.644 88.7391 44.8308C88.3579 45.2077 88.014 45.6789 87.6555 46.1711L87.6474 46.1825C87.5101 46.3709 87.255 46.4018 87.0709 46.2572C86.9304 46.1338 86.8835 45.9421 86.9287 45.7828L86.932 45.7845Z" fill="#232323"/>
<path d="M59.5709 62.3615L60.1781 80.4106C59.8535 80.3099 59.4901 80.1881 59.0912 80.0484C56.551 79.1483 52.6719 77.3987 49.2855 74.3071C46.4448 71.7175 43.9514 68.1857 42.8872 63.4256C41.5936 57.647 44.796 54.752 52.9416 58.5129C54.4629 59.2163 56.1569 60.1521 58.0254 61.3429C58.5276 61.663 59.0428 62.0025 59.5709 62.3615Z" fill="#F4D13D"/>
<path d="M48.1408 72.1917C48.5656 72.9455 48.9467 73.6506 49.2874 74.3085C46.4468 71.719 43.9534 68.1871 42.8891 63.4271C41.5956 57.6485 44.798 54.7535 52.9436 58.5144C53.5573 59.2584 53.961 59.7637 53.961 59.7637C48.1328 56.7956 39.2459 56.4365 48.1408 72.1917Z" fill="white"/>
<path d="M59.45 62.5548C57.9578 62.1844 56.7434 61.2584 55.4095 60.5387C54.5697 60.0643 53.6347 59.5867 52.7659 59.1838C49.599 57.7022 43.1361 55.613 43.3235 61.338C43.3994 63.2469 44.0583 65.2338 44.7979 67.0078C47.2267 72.5752 52.2152 76.5084 57.5767 78.7909C58.4875 79.1759 59.4048 79.522 60.2865 80.0402C60.6337 80.2319 60.4787 80.82 60.0766 80.7778C59.043 80.6965 58.0741 80.3456 57.1326 79.9492C56.1863 79.5577 55.2593 79.1158 54.3517 78.6301C48.8594 75.7627 44.1228 70.8256 42.4498 64.5839C42.0299 63.0422 41.7037 61.2682 42.0558 59.6452C42.4175 57.7477 43.8628 56.435 45.6974 56.1767C48.9918 55.7462 52.4897 57.4618 55.3546 58.984C55.9989 59.3528 56.7143 59.7589 57.3409 60.1505C58.213 60.6833 59.0382 61.3023 59.6955 62.1649C59.836 62.342 59.6632 62.6166 59.4516 62.5532L59.45 62.5548Z" fill="#232323"/>
<path d="M119.909 54.5426L119.908 54.5442C119.322 58.5277 117.611 61.9214 115.706 64.6052C114.139 66.813 112.44 68.5416 111.129 69.7194C110.885 69.9403 110.654 70.1385 110.441 70.3205L110.436 70.3237C110.369 70.3806 110.304 70.4342 110.239 70.4878L110.226 70.4488L103.996 53.5548C104.414 52.9245 104.828 52.3234 105.233 51.7548C105.451 51.4461 105.671 51.1488 105.886 50.8613L105.889 50.8548C106.239 50.382 106.585 49.9336 106.926 49.5096C107.3 49.0401 107.67 48.5982 108.033 48.1856C109.542 46.4586 110.934 45.2093 112.193 44.3841C116.34 41.6645 119.057 43.5376 119.835 48.1742C120.215 50.4324 120.202 52.5606 119.909 54.5426Z" fill="#F4D13D"/>
<path d="M119.91 54.5426L119.908 54.5442C119.519 55.4978 119.302 55.22 119.48 52.4793C120.073 43.3606 112.244 42.9642 106.795 50.7037C106.795 50.7037 106.848 50.1968 106.926 49.5096C107.3 49.0401 107.67 48.5982 108.034 48.1856C109.542 46.4586 110.934 45.2093 112.194 44.3841C116.341 41.6645 119.057 43.5376 119.835 48.1742C120.215 50.4324 120.202 52.5606 119.91 54.5426Z" fill="white"/>
<path d="M103.757 53.3839C104.577 51.4815 105.828 49.8114 107.133 48.2437C109.128 45.9124 111.481 43.3813 114.505 42.5463C116.296 42.08 118.133 42.7396 119.187 44.3544C120.13 45.7207 120.502 47.4883 120.699 49.0771C121.532 55.5023 119.021 61.8983 115.004 66.6534C113.679 68.2309 112.278 69.7921 110.455 70.7636C110.286 70.853 110.076 70.7831 109.988 70.606C109.922 70.4745 109.942 70.3201 110.027 70.2129C110.341 69.8068 110.672 69.4331 111.003 69.0594C111.993 67.9515 113.05 66.9134 113.976 65.7469C115.218 64.2101 116.311 62.5465 117.188 60.7725C118.938 57.239 119.752 53.2182 119.256 49.246C119.131 48.2534 118.977 47.2868 118.638 46.4128C116.663 41.0354 111.46 45.425 109.084 48.0049C107.891 49.2704 106.839 50.6659 105.744 52.0257C105.252 52.6089 104.779 53.1922 104.233 53.7331C104.008 53.9606 103.624 53.6828 103.758 53.3839H103.757Z" fill="#232323"/>
<path d="M24.8078 20.2134C24.5753 22.1206 24.4994 23.331 24.0456 24.1124C23.3043 25.0839 22.0189 25.1765 19.6562 25.3958C21.9801 25.6785 23.2365 25.7402 23.9794 26.6305C24.5349 27.4184 24.6286 28.6368 24.8078 30.5798C25.1114 28.0617 25.1583 26.7897 26.2564 26.0651C27.0364 25.6866 28.2024 25.6037 29.9594 25.3974C27.7793 25.1294 26.5148 25.0676 25.7606 24.3967C25.1243 23.6331 25.0565 22.3643 24.8062 20.215L24.8078 20.2134Z" fill="#FFB800"/>
<path d="M130.979 75.1078C129.226 75.1078 127.806 73.6782 127.806 71.9155C127.806 73.6782 126.385 75.1078 124.633 75.1078C126.385 75.1078 127.806 76.5358 127.806 78.3001C127.806 76.5358 129.226 75.1078 130.979 75.1078Z" fill="white"/>
<path d="M45.0931 78.3002C43.7221 78.3002 42.611 77.1825 42.611 75.8032C42.611 77.1825 41.5 78.3002 40.1289 78.3002C41.5 78.3002 42.611 79.4179 42.611 80.7972C42.611 79.4179 43.7221 78.3002 45.0931 78.3002Z" fill="white"/>
<path d="M10.89 77.7934C9.51896 77.7934 8.4079 76.6757 8.4079 75.2964C8.4079 76.6757 7.29684 77.7934 5.92578 77.7934C7.29684 77.7934 8.4079 78.9111 8.4079 80.2904C8.4079 78.9111 9.51896 77.7934 10.89 77.7934Z" fill="#FFB800"/>
<path d="M139.261 9.59024C137.89 9.59024 136.779 8.47253 136.779 7.09326C136.779 8.47253 135.668 9.59024 134.297 9.59024C135.668 9.59024 136.779 10.708 136.779 12.0872C136.779 10.708 137.89 9.59024 139.261 9.59024Z" fill="#FFB800"/>
<path d="M118.621 16.2851C117.249 16.2851 116.138 15.1674 116.138 13.7881C116.138 15.1674 115.027 16.2851 113.656 16.2851C115.027 16.2851 116.138 17.4028 116.138 18.782C116.138 17.4028 117.249 16.2851 118.621 16.2851Z" fill="white"/>
<path d="M120.278 47.6133C122.098 51.7056 121.993 58.035 121.993 58.035L119.32 56.9319L120.657 52.4643L120.278 47.6149V47.6133Z" fill="#232323"/>
</svg>
