<svg width="353" height="574" viewBox="0 0 353 574" fill="none" xmlns="http://www.w3.org/2000/svg">
<path d="M351.35 21.23V552.53C351.35 564.25 341.84 573.76 330.12 573.76H21.23C9.49998 573.76 0 564.25 0 552.53V21.23C0 9.50998 9.49998 0 21.23 0H330.12C340.43 0 349.02 7.34998 350.95 17.1C351.21 18.43 351.35 19.81 351.35 21.23Z" fill="#08C225"/>
<path d="M352.494 446.896V504.354L247.585 514L176.794 508.243L106.003 514L1.49414 504.395V447.048L132.177 494.78L1.49414 343.036V225.113L149.241 489.408L1.49414 88.8227V21.5558C1.49414 9.65595 10.9849 0 22.7036 0H66.3313L163.827 491.825L116.143 0H237.436L189.752 491.825L287.247 0H331.274C341.574 0 350.156 7.46279 352.084 17.3624V88.8125L204.337 489.398L352.084 225.103V343.025L221.401 494.769L352.484 446.885L352.494 446.896Z" fill="url(#paint0_linear_1183_51076)"/>
<path d="M51.2305 519.071C155.18 560.571 302.041 519.071 302.041 519.071L298.15 481.351C298.15 481.351 292.521 488.961 263.111 494.031C233.691 499.101 199.41 498.721 199.41 498.721L154.581 498.221L105.96 494.641L81.4104 491.461L62.9504 485.981L53.7505 480.031L51.2305 519.061V519.071Z" fill="#00A642"/>
<path d="M294.859 483.868L302.259 521.288L298.149 481.348L294.859 483.868Z" fill="#FFF4C5"/>
<path d="M176.94 498.728C244.197 498.728 298.72 489.724 298.72 478.618C298.72 467.511 244.197 458.508 176.94 458.508C109.683 458.508 55.1602 467.511 55.1602 478.618C55.1602 489.724 109.683 498.728 176.94 498.728Z" fill="#08C225"/>
<path d="M244.149 465.02C291.999 471.79 308.69 478.14 283 485.61C257.31 493.08 218.35 496.64 218.35 496.64L249.84 494.72C249.84 494.72 282.389 488.9 287.229 487.15C292.069 485.4 297.26 481.73 297.26 481.73L298.709 476.95C298.709 476.95 293.189 471.44 292.979 471.68C292.769 471.92 273.189 466.29 273.189 466.29L243.62 460.82L244.149 465.01V465.02Z" fill="#FFF4C5"/>
<path d="M58.6304 483.868L51.2305 521.288L55.3506 481.348L58.6304 483.868Z" fill="#FFF4C5"/>
<path d="M112.379 462.808C64.5289 469.578 44.809 478.148 70.499 485.618C96.189 493.088 135.149 496.648 135.149 496.648L103.659 494.728C103.659 494.728 71.109 488.908 66.269 487.158C61.429 485.408 56.239 481.738 56.239 481.738L54.7891 476.958C54.7891 476.958 60.309 471.448 60.519 471.688C60.729 471.928 80.3091 466.298 80.3091 466.298L109.879 460.828L112.389 462.808H112.379Z" fill="#FFF4C5"/>
<path d="M300.19 478.619C300.06 487.199 278.26 491.119 271.48 492.589C250.7 496.499 229.62 497.999 208.54 498.899C176.96 500.099 145.28 499.679 113.79 496.829C102.9 495.679 54.07 491.279 53.75 478.619C53.97 465.909 103.06 461.189 113.75 459.979C145.25 456.909 176.96 456.429 208.57 457.739C229.66 458.729 250.75 460.389 271.52 464.449C278.52 465.999 300.04 470.079 300.19 478.619ZM297.24 478.619C296.41 472.609 276.45 468.489 270.94 467.339C250.38 463.309 229.36 461.649 208.44 460.659C176.98 459.339 145.39 459.809 114.04 462.849C104 463.809 58.5801 468.889 56.5801 478.619C58.4001 488.399 104.19 493.819 113.99 494.819C145.35 498.079 176.98 498.609 208.46 497.189C229.4 496.099 250.43 494.279 270.97 490.099C276.81 488.829 296.33 484.639 297.23 478.619H297.24Z" fill="#232323"/>
<path d="M174.51 250.21C237.785 250.21 289.08 198.916 289.08 135.64C289.08 72.365 237.785 21.0703 174.51 21.0703C111.234 21.0703 59.9395 72.365 59.9395 135.64C59.9395 198.916 111.234 250.21 174.51 250.21Z" fill="white"/>
<path d="M174.511 243.44C234.047 243.44 282.311 195.176 282.311 135.64C282.311 76.1036 234.047 27.8398 174.511 27.8398C114.975 27.8398 66.7109 76.1036 66.7109 135.64C66.7109 195.176 114.975 243.44 174.511 243.44Z" fill="#00A642"/>
<g opacity="0.36">
<path d="M174.511 243.44C234.048 243.44 282.311 195.176 282.311 135.64C282.311 76.1036 234.048 27.8398 174.511 27.8398C114.975 27.8398 66.7109 76.1036 66.7109 135.64C66.7109 195.176 114.975 243.44 174.511 243.44Z" fill="url(#paint1_radial_1183_51076)"/>
</g>
<g filter="url(#filter0_d_1183_51076)">
<circle cx="257.572" cy="64" r="36" fill="white"/>
</g>
<path d="M242.659 63.1034C242.394 60.2472 266.039 39.8688 269.71 42.8716C273.38 45.8743 264.229 59.8982 264.492 61.9836C264.755 64.0691 273.196 64.8761 272.452 68.3075C271.708 71.7388 250.399 86.5743 246.292 84.7168C242.184 82.8593 250.786 69.7036 250.98 67.7809C251.173 65.8581 242.923 65.9596 242.659 63.1034Z" fill="#FFBC03"/>
<path d="M56.7805 480.509C55.5405 495.729 54.0204 510.959 51.1504 525.979C51.0204 526.649 49.9805 526.569 49.9805 525.869C50.0305 510.579 51.4504 495.339 53.1404 480.159C53.4704 477.839 56.8905 478.149 56.7705 480.509H56.7805Z" fill="#232323"/>
<path d="M300.659 480.411C302.269 493.631 303.239 507.121 303.839 520.421C303.899 522.331 303.989 524.251 304.009 526.161C304.009 526.591 303.669 526.941 303.249 526.941C302.869 526.941 302.539 526.671 302.479 526.301C302.139 524.411 301.859 522.521 301.549 520.631L300.729 514.951C299.399 505.551 298.319 495.931 297.469 486.461C297.329 484.551 297.149 482.651 297.029 480.741C296.939 478.421 300.299 478.091 300.659 480.391V480.411Z" fill="#232323"/>
<path d="M58.0975 267.212L47.043 260.164L43.8389 265.19L54.8934 272.237L58.0975 267.212Z" fill="#FFE115"/>
<path d="M281.24 260.24L268.432 252.074L264.717 257.901L277.525 266.067L281.24 260.24Z" fill="#009A57"/>
<path d="M260.583 297.332L258.146 299.969L262.523 304.014L264.96 301.378L260.583 297.332Z" fill="#2FD381"/>
<path d="M114.645 266.926L117.281 269.363L121.327 264.987L118.691 262.55L114.645 266.926Z" fill="#30FFE8"/>
<path d="M312.249 334.172L316.17 337.797L323.026 330.38L319.104 326.755L312.249 334.172Z" fill="#1F8BFF"/>
<path d="M39.5628 359.519L38.4023 365.762L51.5865 368.212L52.747 361.969L39.5628 359.519Z" fill="#607FA7"/>
<path d="M299.28 404.945L291.502 402.613L290.37 406.387L298.148 408.719L299.28 404.945Z" fill="#FFE115"/>
<path d="M306.063 451.36L297.059 448.66L295.749 453.028L304.753 455.728L306.063 451.36Z" fill="#607FA7"/>
<path d="M75.851 406.094L70.1094 411.836L72.8954 414.622L78.637 408.88L75.851 406.094Z" fill="#FFE115"/>
<path d="M38.9937 468.368L33.252 474.109L36.0379 476.895L41.7797 471.154L38.9937 468.368Z" fill="#30FFE8"/>
<path d="M109.11 411.5C87.84 411.54 71.9499 423.01 113.84 446.15C150.14 466.19 109.11 411.5 109.11 411.5Z" fill="#F4D13D"/>
<path d="M125.621 451.98C122.821 451.98 118.74 450.47 113.19 447.41C93.6305 436.61 84.6305 427.32 86.4505 419.81C88.1905 412.65 99.2906 410.08 109.111 410.07C109.541 410.07 109.94 410.27 110.21 410.63C110.27 410.71 116.32 418.79 121.67 427.51C131.81 444.01 130.83 448.54 129.22 450.51C128.41 451.49 127.221 451.99 125.621 451.99V451.98ZM108.43 412.93C97.9204 413.07 90.2104 416.08 89.1404 420.5C88.5204 423.05 90.0105 426.33 93.4405 429.98C97.6805 434.49 104.771 439.51 114.501 444.88C124.781 450.56 126.801 449.01 127.101 448.65C127.511 448.15 129.061 444.86 119.341 429.04C114.861 421.74 109.88 414.89 108.43 412.93Z" fill="#232323"/>
<path d="M178.58 483.99C225.005 483.99 262.639 481.29 262.639 477.96C262.639 474.629 225.005 471.93 178.58 471.93C132.155 471.93 94.5195 474.629 94.5195 477.96C94.5195 481.29 132.155 483.99 178.58 483.99Z" fill="#232323"/>
<path d="M126.321 450C109.021 465.59 109.991 477.6 131.601 479.52C153.221 481.44 168.741 477.02 163.741 463.5C158.741 449.98 126.311 450 126.311 450H126.321Z" fill="#F78426"/>
<path d="M140.629 481.509C137.779 481.509 134.719 481.369 131.459 481.079C121.109 480.159 114.969 477.009 113.199 471.709C111.189 465.689 115.359 457.779 125.269 448.849C125.559 448.589 125.929 448.449 126.309 448.449H126.319C127.879 448.449 159.899 448.629 165.199 462.969C166.879 467.499 166.529 471.359 164.179 474.429C160.629 479.079 152.399 481.519 140.619 481.519L140.629 481.509ZM126.909 451.569C118.439 459.319 114.619 466.109 116.159 470.709C117.479 474.669 122.869 477.179 131.739 477.959C147.099 479.319 158.019 477.339 161.709 472.519C163.389 470.319 163.579 467.549 162.279 464.029C158.069 452.629 131.259 451.639 126.909 451.559V451.569Z" fill="#232323"/>
<path d="M218.94 450C236.24 465.59 235.27 477.6 213.66 479.52C192.04 481.44 176.52 477.02 181.52 463.5C186.52 449.98 218.95 450 218.95 450H218.94Z" fill="#F78426"/>
<path d="M204.63 481.511C192.85 481.511 184.63 479.071 181.07 474.421C178.72 471.351 178.38 467.491 180.05 462.961C185.35 448.631 217.37 448.441 218.93 448.441H218.94C219.33 448.441 219.7 448.581 219.98 448.841C229.89 457.771 234.06 465.681 232.05 471.701C230.28 477.001 224.13 480.161 213.79 481.071C210.54 481.361 207.47 481.501 204.62 481.501L204.63 481.511ZM218.35 451.571C214 451.651 187.19 452.641 182.98 464.041C181.68 467.551 181.87 470.331 183.55 472.531C187.24 477.351 198.16 479.341 213.52 477.971C222.39 477.181 227.77 474.671 229.1 470.721C230.64 466.111 226.82 459.331 218.35 451.581V451.571Z" fill="#232323"/>
<path d="M172.51 467.918C164.71 468.018 156.97 467.758 149.66 466.838C119.83 463.158 96.9599 448.848 104.72 405.308C104.77 404.998 104.83 404.678 104.89 404.368C105.36 401.828 105.56 399.408 105.63 397.078C105.73 393.378 105.5 389.898 105.56 386.498L105.58 385.708C105.71 381.848 106.29 378.058 108.22 374.138C113.44 363.518 111.1 369.308 110.4 357.468C110.33 356.288 115.29 357.288 114.28 350.008C114.25 344.388 114.61 339.138 115.35 334.238C115.4 333.878 115.46 333.528 115.51 333.168C120.53 301.748 140.4 285.258 164.43 282.328C167.04 282.008 169.71 281.848 172.41 281.848C178.79 281.848 184.67 282.558 190.02 283.908C219.93 291.428 233.78 318.688 231.87 351.368C231.8 352.358 231.85 353.318 231.8 354.298C231.8 354.438 231.78 354.568 231.78 354.708C231.25 366.278 231.54 363.358 236.78 374.048C241.62 383.878 242.6 395.138 244.36 406.718C252.17 458.168 213.94 467.418 172.52 467.928L172.51 467.918Z" fill="#F4D13D"/>
<path d="M149.66 466.838C119.83 463.158 96.9599 448.848 104.72 405.308C104.77 404.998 104.83 404.678 104.89 404.368C105.36 401.828 105.56 399.408 105.63 397.078C116.75 399.638 127.45 397.698 127.45 397.698C127.45 397.698 127.34 398.268 127.17 399.298C125.61 408.928 118.7 458.978 143.26 464.448C146.63 465.198 148.67 466.008 149.67 466.838H149.66Z" fill="#F2A540"/>
<path d="M164.42 282.328C163.58 282.958 161.98 283.618 159.43 284.328C134.9 291.128 123.16 316.328 117.56 335.188L115.33 334.238C120.07 302.128 140.12 285.298 164.42 282.328Z" fill="white"/>
<path d="M231.86 351.37C231.79 352.35 231.84 353.32 231.79 354.3C231.79 354.44 231.78 354.57 231.77 354.7C229.81 354.38 228.37 352.61 228.37 348.11C228.37 333.84 224.56 293.71 183.49 285.62L190.01 283.91C219.92 291.43 233.77 318.69 231.86 351.37Z" fill="white"/>
<path d="M128.93 398.549C124.96 415.199 104.031 424.399 104.031 424.399L103.4 415.579L104.351 407.509L108.791 404.729L117.16 404.229L128.94 398.539L128.93 398.549Z" fill="#232323"/>
<path opacity="0.32" d="M154.46 466.011C136.85 462.621 135.9 417.421 147.48 394.261C159.06 371.101 178.57 370.631 193.48 370.311C208.39 369.991 222.19 373.151 228.06 383.391C233.93 393.631 219.02 452.471 219.02 452.471L216.23 461.631L206.95 464.051L180.58 467.701L154.47 466.011H154.46Z" fill="#FFF4C5"/>
<path d="M169.231 469.511C150.001 469.511 124.621 467.181 111.201 451.231C102.161 440.491 99.5207 424.631 103.351 404.091C104.201 399.561 104.121 395.401 104.031 391.381C103.911 385.321 103.791 379.601 106.811 373.461C107.201 372.671 107.541 371.971 107.851 371.351C109.357 368.305 109.987 366.148 109.741 364.881C109.471 363.531 109.071 361.501 108.831 357.561C108.741 356.121 110.061 355.571 110.701 355.311C111.911 354.811 113.291 354.241 112.731 350.221C112.731 350.151 112.721 350.081 112.721 350.011C112.611 327.261 119.021 308.741 131.251 296.441C141.771 285.871 156.001 280.281 172.401 280.281C190.811 280.281 206.19 286.271 216.88 297.601C228.83 310.271 234.711 329.401 233.421 351.451C233.381 351.961 233.38 352.461 233.38 352.991C233.38 353.441 233.381 353.901 233.351 354.361C233.071 360.388 233.757 364.938 235.411 368.011C236.131 369.351 237.031 371.031 238.181 373.351C242.391 381.881 243.72 391.241 245.13 401.151C245.38 402.911 245.631 404.691 245.901 406.471C248.701 424.941 245.741 439.461 237.101 449.641C230.851 457.001 221.801 462.151 209.441 465.391C199.611 467.961 187.531 469.301 172.531 469.481C171.451 469.491 170.351 469.501 169.231 469.501V469.511ZM111.991 358.161C112.211 361.371 112.561 363.101 112.791 364.271C113.381 367.211 113.17 367.621 110.64 372.731C110.33 373.351 109.991 374.051 109.601 374.831C106.921 380.291 107.02 385.401 107.14 391.311C107.23 395.491 107.311 399.811 106.411 404.661C102.761 424.241 105.171 439.231 113.581 449.221C123.741 461.301 142.471 466.741 172.491 466.361C192.581 466.121 220.891 463.911 234.711 447.621C242.851 438.031 245.501 424.731 242.801 406.951C242.531 405.161 242.271 403.371 242.021 401.601C240.651 391.941 239.351 382.821 235.361 374.731C234.241 372.451 233.361 370.811 232.651 369.491C229.841 364.281 229.781 363.851 230.221 354.221C230.241 353.801 230.241 353.391 230.241 352.981C230.241 352.421 230.241 351.851 230.291 351.251C231.531 330.081 225.951 311.781 214.591 299.741C204.511 289.051 189.91 283.401 172.38 283.401C156.83 283.401 143.361 288.671 133.441 298.641C121.821 310.321 115.721 328.041 115.811 349.891C116.631 356.061 113.461 357.521 111.971 358.141L111.991 358.161Z" fill="#232323"/>
<path d="M193.409 282.708C189.379 285.438 183.739 287.229 176.919 286.629L162.939 285.468C163.809 280.548 165.16 276.579 166.74 273.579C171.48 264.529 178.23 264.349 179.54 273.529C179.54 273.529 183.929 263.968 195.419 266.708C202.999 268.518 201.259 277.389 193.409 282.699V282.708Z" fill="#F4D13D"/>
<path d="M193.41 282.708C193.41 282.108 193.78 281.319 194.59 280.289C201.09 272.109 194.04 266.028 180.49 273.218C180.49 273.218 178.77 274.889 178.12 272.879C177.53 271.039 171.93 267.009 166.74 273.579C171.48 264.529 178.23 264.349 179.54 273.529C179.54 273.529 183.93 263.968 195.42 266.708C203 268.518 201.26 277.389 193.41 282.699V282.708Z" fill="white"/>
<path d="M161.95 285.301C162.17 279.011 165.27 269.851 170.81 266.221C173.16 264.631 176.46 264.631 178.45 266.811C180.09 268.541 180.82 271.091 181.09 273.311L178.13 272.881C178.31 272.491 178.45 272.231 178.62 271.931C181.45 266.831 187.12 263.811 192.94 264.371C193.61 264.371 194.25 264.521 194.9 264.621C195.5 264.701 196.34 264.891 196.91 265.091C201.01 266.381 203.1 270.331 202.06 274.441C200.67 279.881 196.4 283.621 191.65 285.961C187.09 288.161 181.7 289.081 176.86 287.401C176.08 287.141 176.19 285.971 177 285.851C179.36 285.431 181.58 285.111 183.74 284.591C187.98 283.681 192.13 281.841 195.11 278.681C197.69 276.171 200.43 270.411 195.62 268.831L194.95 268.621L194.17 268.471C193.29 268.251 192.34 268.201 191.44 268.131C187.04 268.061 183.06 270.501 180.9 274.301C180.48 275.051 179.53 275.311 178.78 274.891C178.34 274.641 178.07 274.211 178 273.751C177.78 272.531 177.47 271.331 176.96 270.351C175.14 266.631 171.97 268.951 170.05 271.411C168.54 273.351 167.37 275.691 166.45 278.121C165.54 280.571 164.8 283.091 163.93 285.651C163.56 286.741 161.91 286.451 161.95 285.291V285.301Z" fill="#232323"/>
<path d="M200.61 335.191C200.31 335.871 199.69 336.451 198.86 336.781C193.86 338.801 179.71 338.941 174.12 337.021C171.53 336.111 171.07 333.441 173.83 331.761C174.69 331.241 175.5 330.771 176.29 330.331C184.85 325.601 189.88 325.801 199.32 331.981C200.77 332.921 201.07 334.171 200.61 335.201V335.191Z" fill="#F78426"/>
<path d="M200.609 335.189C193.039 330.739 185.019 326.909 177.029 331.389L176.289 330.319C184.849 325.589 189.879 325.789 199.319 331.969C200.769 332.909 201.069 334.159 200.609 335.189Z" fill="white"/>
<path d="M173.139 330.609C176.739 328.499 180.769 326.389 185.039 325.899C189.439 325.379 193.839 327.189 197.489 329.289C198.269 329.709 198.999 330.189 199.749 330.639C200.279 330.959 200.859 331.369 201.269 331.879C203.019 333.799 202.099 336.789 199.879 337.889C199.059 338.319 197.989 338.609 197.099 338.839C191.229 340.099 185.129 340.179 179.179 339.549C177.769 339.379 176.359 339.139 174.929 338.779C173.699 338.429 172.359 337.989 171.499 336.949C169.579 334.759 170.889 331.829 173.129 330.619L173.139 330.609ZM174.519 332.889C172.979 333.839 172.879 335.189 174.759 335.699L175.649 335.939C180.759 336.959 186.319 336.949 191.549 336.619C193.499 336.459 195.469 336.219 197.359 335.739C197.559 335.669 198.349 335.439 198.539 335.339C199.359 334.939 199.759 334.119 198.929 333.409C198.669 333.139 198.189 332.879 197.859 332.649C195.139 330.849 192.119 329.159 189.019 328.499C183.739 327.369 178.899 330.179 174.509 332.889H174.519Z" fill="#232323"/>
<path d="M152.259 326.01C152.449 325.65 152.669 325.31 152.909 324.98C153.129 324.64 153.389 324.33 153.629 324C153.889 323.69 154.179 323.38 154.469 323.06C154.779 322.77 155.069 322.46 155.409 322.2C155.749 321.94 156.079 321.65 156.489 321.43C156.849 321.19 157.279 320.97 157.689 320.78C158.549 320.42 159.489 320.18 160.479 320.13C161.469 320.08 162.449 320.25 163.339 320.59C164.229 320.93 165.049 321.41 165.739 321.96C166.439 322.51 167.039 323.16 167.569 323.83C167.829 324.17 168.069 324.53 168.289 324.89C168.389 325.08 168.509 325.25 168.599 325.44L168.739 325.73C168.789 325.83 168.839 325.92 168.879 326.04C169.139 326.62 168.879 327.31 168.279 327.55C167.849 327.74 167.389 327.65 167.049 327.36L166.859 327.19C166.859 327.19 166.759 327.07 166.689 327.02L166.519 326.83C166.399 326.71 166.279 326.57 166.159 326.45C165.919 326.21 165.659 325.97 165.419 325.73C165.179 325.49 164.919 325.27 164.649 325.08C164.529 324.98 164.389 324.86 164.269 324.79L164.079 324.65L163.889 324.53C162.809 323.83 161.699 323.42 160.599 323.42C160.049 323.42 159.469 323.52 158.889 323.71C158.599 323.83 158.309 323.93 158.029 324.07C157.889 324.14 157.739 324.19 157.599 324.29L157.169 324.55C157.029 324.62 156.879 324.74 156.739 324.84C156.599 324.94 156.449 325.03 156.309 325.13L155.469 325.78L154.649 326.48C154.389 326.72 154.119 326.98 153.829 327.22L153.779 327.27C153.369 327.63 152.749 327.58 152.409 327.17C152.099 326.83 152.069 326.38 152.269 326.02L152.259 326.01Z" fill="#232323"/>
<path d="M200.929 326.34C201.119 325.98 201.339 325.64 201.579 325.31C201.819 324.98 202.059 324.64 202.319 324.33C202.579 324.02 202.869 323.71 203.159 323.39C203.299 323.25 203.469 323.1 203.619 322.96C203.789 322.82 203.929 322.67 204.099 322.53C204.439 322.27 204.799 321.98 205.179 321.76C205.539 321.52 205.969 321.33 206.379 321.11C207.239 320.75 208.179 320.51 209.169 320.49C210.159 320.47 211.139 320.63 212.029 320.99C212.919 321.33 213.709 321.83 214.379 322.41C215.049 322.99 215.649 323.64 216.129 324.31C216.369 324.67 216.609 325.01 216.799 325.37C216.899 325.56 216.989 325.73 217.089 325.92C217.189 326.11 217.259 326.28 217.349 326.52C217.539 327 217.299 327.53 216.819 327.72C216.459 327.86 216.079 327.77 215.839 327.5L215.739 327.4C215.639 327.3 215.499 327.16 215.379 327.02C215.259 326.9 215.139 326.76 215.019 326.64C214.759 326.4 214.519 326.14 214.249 325.92C213.719 325.46 213.189 325.03 212.639 324.69C211.539 323.99 210.379 323.61 209.279 323.68C208.729 323.7 208.149 323.82 207.569 324.04C206.989 324.26 206.419 324.57 205.859 324.93C204.729 325.65 203.649 326.61 202.519 327.62L202.499 327.64C202.069 328.02 201.419 327.98 201.029 327.54C200.739 327.18 200.719 326.7 200.909 326.34H200.929Z" fill="#232323"/>
<path d="M253.141 476.731L245.371 465.621H213.371L205.601 476.731C205.201 477.021 204.971 477.321 204.971 477.621C204.971 479.821 215.891 481.601 229.361 481.601C242.831 481.601 253.751 479.821 253.751 477.621C253.751 477.311 253.531 477.011 253.121 476.731H253.141Z" fill="#FFBC03"/>
<path d="M214.379 466.549C226.429 471.549 237.929 468.889 237.929 468.889L241.899 479.949C241.899 479.949 219.579 480.739 219.139 480.659C218.699 480.579 207.129 478.079 207.129 478.079L206.1 476.969L214.389 466.539L214.379 466.549Z" fill="#FF9F06"/>
<path d="M229.37 483.171C222.77 483.171 216.56 482.751 211.87 481.981C205.94 481.011 203.42 479.711 203.42 477.621C203.42 477.091 203.61 476.341 204.46 475.631L212.09 464.721C212.38 464.301 212.86 464.051 213.37 464.051H245.37C245.88 464.051 246.36 464.301 246.65 464.721L254.28 475.631C255.14 476.331 255.32 477.091 255.32 477.621C255.32 479.711 252.79 481.011 246.87 481.981C242.18 482.751 235.97 483.171 229.37 483.171ZM206.95 477.531C209.28 478.661 217.58 480.051 229.37 480.051C241.16 480.051 249.47 478.671 251.79 477.531L244.56 467.181H214.19L206.96 477.531H206.95Z" fill="#232323"/>
<path d="M229.371 469.601C238.208 469.601 245.371 467.819 245.371 465.621C245.371 463.423 238.208 461.641 229.371 461.641C220.535 461.641 213.371 463.423 213.371 465.621C213.371 467.819 220.535 469.601 229.371 469.601Z" fill="#FFBC03"/>
<path d="M232.141 463.85C240.351 463.89 242.891 466.55 242.891 466.55L250.211 478.09L251.801 477.53L243.771 465.8C239.411 463.46 233.931 463.34 233.931 463.34L232.151 463.85H232.141Z" fill="white"/>
<path d="M246.939 465.621C246.939 471.661 225.039 470.531 220.679 469.911C219.219 469.751 217.78 469.481 216.29 469.141C215.08 468.841 213.759 468.571 212.709 467.651C211.819 466.951 211.429 465.381 212.019 464.361C213.459 461.721 217.93 461.131 220.57 460.631C225.24 459.721 246.819 459.061 246.939 465.631V465.621ZM243.8 465.621C243.78 465.721 243.83 465.821 243.82 465.831C243.84 465.861 243.809 465.831 243.759 465.791C242.049 464.591 239.759 464.231 237.659 463.851C232.229 463.021 226.5 463.041 221.08 463.881C219 464.271 216.71 464.631 215.03 465.851C214.99 465.881 214.969 465.911 214.989 465.861C214.989 465.831 215.029 465.721 215.009 465.611C215.009 465.501 214.939 465.401 214.929 465.391C214.899 465.371 214.909 465.411 214.929 465.471C214.999 465.591 215.169 465.781 215.379 465.961C216.909 467.191 219.049 467.651 220.959 468.061C227.769 469.241 235.129 469.091 241.699 466.871C242.509 466.551 243.35 466.131 243.83 465.511C243.87 465.451 243.88 465.411 243.85 465.421C243.85 465.421 243.78 465.511 243.79 465.611L243.8 465.621Z" fill="#232323"/>
<path d="M272.99 407.741C264.79 425.141 244.71 454.901 233.18 462.591C231.34 463.821 229.72 464.481 228.39 464.441C224.45 464.321 222.6 459.871 221.84 453.721V453.651C220.26 440.771 223.48 420.561 222.45 417.171C221.96 415.541 219.45 415.371 216.17 415.661C211.49 416.071 205.22 417.391 200.98 416.651C199.07 416.321 197.58 415.571 196.82 414.131C194.64 410.001 207.45 380.961 220.68 359.291C227.34 348.381 234.1 339.341 239.11 336.291C240.68 335.321 242.08 334.961 243.25 335.311C255.54 339.001 247.3 383.641 250.13 388.581C250.36 388.981 250.71 389.301 251.16 389.561C256.35 392.541 274.99 387.511 276.57 396.121C276.93 398.101 275.53 402.321 272.98 407.741H272.99Z" fill="#FFBC03"/>
<path d="M238.69 425.35C236.94 445.5 226.32 471.35 222.67 457.23C222.39 456.15 222.11 454.97 221.84 453.73V453.66C220.26 440.78 223.48 420.57 222.45 417.18C221.96 415.55 219.45 415.38 216.17 415.67C216.06 414.68 216 414.12 216 414.12C202.68 414.41 226.63 362.23 233.45 376.19C240.27 390.15 240.43 405.22 238.68 425.36L238.69 425.35Z" fill="white"/>
<path d="M238.69 425.35C236.94 445.5 226.32 471.35 222.67 457.23C222.39 456.15 222.11 454.97 221.84 453.73V453.66C220.26 440.78 223.48 420.57 222.45 417.18C221.96 415.55 219.45 415.38 216.17 415.67C216.06 414.68 216 414.12 216 414.12C202.68 414.41 226.63 362.23 233.45 376.19C240.27 390.15 240.43 405.22 238.68 425.36L238.69 425.35Z" fill="#FF9F06"/>
<path d="M272.99 407.739C264.79 425.139 244.71 454.899 233.18 462.589L231.24 462.879C231.24 462.879 261.8 429.889 268.46 408.589L269.09 406.629L272.99 407.739Z" fill="white"/>
<path d="M251.169 389.571C250.769 389.691 250.379 389.741 249.989 389.721C244.209 389.411 247.089 359.271 246.919 352.711C246.739 346.151 246.139 332.101 236.109 339.921C236.209 339.791 237.469 338.251 239.119 336.291C240.689 335.321 242.089 334.961 243.259 335.311C255.549 339.001 247.309 383.641 250.139 388.581C250.369 388.981 250.719 389.301 251.169 389.561V389.571Z" fill="white"/>
<path d="M223.2 358.191C220.99 363.141 193.38 415.311 201.41 416.261L200.98 416.651C199.07 416.321 197.58 415.571 196.82 414.131C194.64 410.001 207.45 380.961 220.68 359.291C222.59 357.831 223.59 357.311 223.2 358.181V358.191Z" fill="white"/>
<path d="M228.49 466.01C228.44 466.01 228.38 466.01 228.33 466.01C226.55 465.96 225.02 465.23 223.77 463.85C218.5 458.01 219.72 440.85 220.61 428.32C220.94 423.62 221.29 418.76 220.95 417.63C220.91 417.5 220.45 417.16 218.82 417.12C217.04 417.07 214.64 417.38 212.1 417.71C205.45 418.57 197.92 419.55 195.44 414.86C194.82 413.68 194.47 411.27 197.38 403.03C199.29 397.62 202.22 390.8 205.84 383.33C212.1 370.41 221.84 352.9 230.4 342.49C236.02 335.66 240.37 332.82 243.7 333.82C253.08 336.64 252.13 357.14 251.37 373.61C251.09 379.68 250.77 386.57 251.48 387.81C252.22 389.11 257.24 389.11 260.91 389.12C268.03 389.12 276.88 389.14 278.11 395.84C279.5 403.42 259.9 436.08 245.06 453.35C237.74 461.86 232.32 466 228.49 466V466.01ZM218.42 414C221.24 414 223.3 414.63 223.94 416.73C224.43 418.34 224.2 421.89 223.73 428.55C222.97 439.16 221.71 456.91 226.09 461.76C226.76 462.5 227.5 462.86 228.42 462.89C229.69 462.94 233.61 461.88 242.69 451.32C258.56 432.85 276.04 401.9 275.04 396.41C274.28 392.27 267.17 392.26 260.91 392.25C255.28 392.25 250.42 392.24 248.78 389.37C247.67 387.43 247.84 382.58 248.26 373.47C248.86 360.55 249.86 338.93 242.81 336.82C242.04 336.59 239.7 336.69 234.46 342.56C226.17 351.85 216.16 369.46 209.56 382.85C200.54 401.15 197.48 411.74 198.2 413.43C199.67 416.2 206.34 415.33 211.7 414.63C214.15 414.31 216.47 414.01 218.43 414.01L218.42 414Z" fill="#232323"/>
<path d="M108.559 334.348C107.869 335.848 107.029 337.398 106.029 338.998L88.7793 343.068C96.3193 334.518 86.6892 323.308 88.1692 314.698C88.5692 312.358 89.7892 310.218 92.3892 308.378C100.459 302.668 118.069 313.838 108.559 334.348Z" fill="#F4D13D"/>
<path d="M108.56 334.35C107.95 333.44 107.77 331.76 108.32 329.01C110.6 317.58 102.97 311.37 99.74 310.52C96.5 309.67 93.5899 309.61 89.6499 316.34C89.6499 316.34 89.0199 315.65 88.1699 314.71C88.5699 312.37 89.7899 310.23 92.3899 308.39C100.46 302.68 118.07 313.85 108.56 334.36V334.35Z" fill="white"/>
<path d="M86.9697 341.471C87.9997 340.491 88.7697 339.321 89.1997 337.981C89.4297 337.321 89.5696 336.601 89.6496 335.861C89.7296 335.121 89.7196 334.351 89.6596 333.581C89.5696 332.021 89.2398 330.391 88.8298 328.751C88.4398 327.111 87.9297 325.451 87.4897 323.741C87.2497 322.871 87.0396 322.011 86.8796 321.111C86.6896 320.211 86.5397 319.291 86.4397 318.361C86.3397 317.431 86.3096 316.441 86.3996 315.461C86.4896 314.481 86.6898 313.461 87.0498 312.491C87.4098 311.521 87.9197 310.611 88.5097 309.801C89.1297 308.991 89.8298 308.271 90.5998 307.661C90.7998 307.491 90.9696 307.371 91.1696 307.221C91.3396 307.081 91.5697 306.931 91.7897 306.771C92.2397 306.491 92.7097 306.241 93.1897 306.031C94.1497 305.611 95.1597 305.381 96.1897 305.271C97.1897 305.161 98.2197 305.201 99.1997 305.331C100.18 305.461 101.14 305.731 102.06 306.071C103.89 306.751 105.58 307.791 107.03 309.051C108.48 310.341 109.73 311.841 110.7 313.511C111.67 315.171 112.35 317.021 112.77 318.881C112.97 319.821 113.12 320.771 113.19 321.711C113.27 322.671 113.27 323.611 113.23 324.561C113.14 326.461 112.83 328.321 112.37 330.131C111.42 333.741 109.87 337.101 108.06 340.271C107.39 341.421 105.91 341.811 104.78 341.141C103.63 340.471 103.24 338.991 103.91 337.861C103.93 337.811 103.97 337.761 103.99 337.731C104.92 336.371 105.76 334.951 106.48 333.501C107.2 332.051 107.83 330.531 108.31 329.021C109.26 325.961 109.61 322.741 109.06 319.691C108.51 316.641 107 313.781 104.71 311.741C103.58 310.701 102.26 309.881 100.86 309.341C100.17 309.071 99.4397 308.851 98.6997 308.751C97.9797 308.631 97.2197 308.581 96.5297 308.671C95.8097 308.741 95.1297 308.901 94.4897 309.161C94.1697 309.301 93.8798 309.461 93.5798 309.621C93.4498 309.711 93.2896 309.801 93.1396 309.921C92.9896 310.041 92.8296 310.151 92.6796 310.271C91.4996 311.231 90.6096 312.361 90.1296 313.681C89.8796 314.341 89.7296 315.041 89.6796 315.771C89.6296 316.501 89.6397 317.281 89.7197 318.071C89.8997 319.641 90.2797 321.241 90.7697 322.871C91.2497 324.501 91.7898 326.151 92.2998 327.851C92.8198 329.551 93.2497 331.341 93.5197 333.211C93.6497 334.161 93.6997 335.121 93.6897 336.121C93.6797 337.121 93.5398 338.131 93.3098 339.131C93.0798 340.131 92.7297 341.121 92.2397 342.061C91.7797 342.991 91.1898 343.871 90.5698 344.681L90.5297 344.731C89.6997 345.781 88.1996 345.961 87.1396 345.131C86.0796 344.301 85.9097 342.801 86.7397 341.741C86.8197 341.631 86.8797 341.551 86.9697 341.471Z" fill="#232323"/>
<path d="M105.57 385.71C104.8 385.67 104.02 385.61 103.21 385.53L105.55 386.49L130.44 396.76C129.4 397.65 128.3 398.51 127.15 399.3C120.62 403.82 112.51 406.51 104.7 405.31C100.13 404.61 95.6702 402.57 91.7102 398.78C88.9602 396 86.8502 392.8 85.2502 389.35C84.9302 388.66 84.6303 387.96 84.3503 387.24C81.9303 381.17 80.8902 374.44 80.5202 367.87C80.1102 347.68 88.5002 333.15 103.26 331.66C107.15 331.49 111.43 332.01 115.49 333.17C118.67 334.07 121.7 335.37 124.3 337.03C126.36 338.29 128 339.77 129.3 341.45C135.24 349.09 133.76 360.45 130.71 369.68C126.36 382.81 118.67 386.49 105.56 385.71H105.57Z" fill="#F4D13D"/>
<path d="M126.421 342.208C130.361 347.108 130.021 355.728 128.931 362.448C127.841 369.168 122.961 381.238 120.631 382.858C118.301 384.478 127.151 378.278 127.441 376.868C127.731 375.458 131.791 366.328 131.791 366.328L132.801 358.178V350.598L132.071 345.218L128.921 339.918L126.411 342.188L126.421 342.208Z" fill="white"/>
<path d="M127.44 397.7C127.44 397.7 127.33 398.27 127.16 399.3C120.63 403.82 112.52 406.51 104.71 405.31C100.14 404.61 95.6802 402.57 91.7202 398.78C88.9702 396 86.8603 392.8 85.2603 389.35C84.9403 388.66 84.6404 387.96 84.3604 387.24C84.2904 383.47 84.2402 381.07 84.2402 381.07C88.7502 390.71 97.3004 395.15 105.61 397.07C116.73 399.63 127.43 397.69 127.43 397.69L127.44 397.7Z" fill="#F2A540"/>
<path d="M130.18 346.62C124.86 337.91 113.96 335.92 104.76 336.54C95.56 337.16 89.4399 342.97 86.2099 353.34C82.9799 363.71 83.65 380.21 85.09 387.81C85.19 388.36 85.25 388.88 85.25 389.35C82.18 382.75 80.94 375.2 80.53 367.87C80.12 347.69 88.51 333.15 103.27 331.66C110.22 331.36 118.39 333.24 124.31 337.03C126.37 338.29 128.01 339.78 129.31 341.45L130.18 346.62Z" fill="white"/>
<path d="M130.861 397.25C124.811 404.66 114.811 408.31 105.301 407.36C99.2308 406.7 93.4506 403.62 89.3906 399.1C83.8106 392.94 80.9807 384.69 79.7007 376.66C79.1907 373.24 78.8108 369.72 78.8008 366.26C78.8508 358.12 80.2008 349.72 84.3308 342.54C88.4608 335.08 96.4606 329.68 105.141 329.88C112.221 330 119.371 331.82 125.401 335.62C136.801 342.56 136.521 356.93 133.001 368.22C131.481 373.3 129.231 378.51 125.201 382.16C119.741 387.1 111.801 388.12 104.831 386.71C104.261 386.59 103.701 386.47 103.141 386.32C102.291 386.09 102.421 384.85 103.281 384.78C110.291 384.15 117.611 384.62 122.951 379.69C126.471 376.41 128.321 371.81 129.661 367.24C131.901 359.24 133.181 349.76 128.031 342.72C123.561 337.02 115.311 334.4 108.331 333.6C96.7108 331.99 88.2007 339.52 84.7107 350.15C82.6607 356.29 81.9508 363.04 82.3708 369.53C83.3008 381.96 87.4708 396.48 99.7908 401.9C105.621 404.41 112.301 404.09 118.221 401.95C120.241 401.24 122.211 400.37 124.171 399.42C126.131 398.47 128.041 397.38 130.031 396.29C130.631 395.92 131.321 396.72 130.871 397.26L130.861 397.25Z" fill="#232323"/>
<path d="M117.561 353.34C121.501 353.41 130.441 354.2 132.071 355.72L117.561 353.34Z" fill="#636363"/>
<path d="M117.591 352.761C118.211 352.591 118.861 352.501 119.491 352.421C120.111 352.351 120.76 352.301 121.39 352.281C122.64 352.231 123.91 352.281 125.16 352.381C126.41 352.481 127.681 352.641 128.961 352.911C129.611 353.051 130.23 353.201 130.91 353.441C131.25 353.561 131.58 353.681 131.92 353.851C132.28 354.041 132.641 354.211 133.101 354.641C133.681 355.191 133.72 356.111 133.17 356.681C132.62 357.251 131.7 357.301 131.13 356.751C131.13 356.771 130.911 356.681 130.721 356.611C130.501 356.541 130.261 356.471 130.001 356.391C129.471 356.251 128.921 356.131 128.341 356.011C127.191 355.771 126.011 355.581 124.811 355.391C123.611 355.201 122.411 355.011 121.211 354.771C120.611 354.651 120.01 354.531 119.41 354.391C118.81 354.251 118.211 354.101 117.611 353.931C117.271 353.831 117.11 353.501 117.2 353.161C117.22 352.971 117.391 352.821 117.611 352.781L117.591 352.761Z" fill="#232323"/>
<path d="M274.929 400.341C274.249 401.481 273.509 402.611 272.689 403.731C259.549 421.641 251.539 384.381 251.539 384.381L251.819 362.771L251.879 358.191C276.809 358.191 286.529 380.711 274.929 400.341Z" fill="#F4D13D"/>
<path d="M274.93 400.341C274.84 399.541 274.88 398.471 275.09 397.121C277.22 383.091 276.46 364.431 251.82 362.771L251.88 358.191C276.81 358.191 286.53 380.711 274.93 400.341Z" fill="white"/>
<path d="M251.87 356.629C272.63 356.329 286.01 372.559 280.21 392.809C278.94 397.119 276.83 401.119 274.22 404.749C271.12 409.189 266.07 412.649 260.99 408.769C257.18 405.709 255.38 401.529 253.61 397.279C252.41 394.219 251.48 391.099 250.71 387.909C250.46 386.849 250.22 385.809 250.02 384.699C249.87 383.849 250.43 383.039 251.28 382.879C252.08 382.729 252.86 383.229 253.07 384.009C254.94 390.529 258.04 401.469 263.23 405.789C266.33 408.279 269.28 405.259 271.26 402.569C273.64 399.279 275.57 395.649 276.73 391.759C280.46 379.679 275.88 366.899 263.78 361.999C260.06 360.449 255.96 359.809 251.86 359.749C249.83 359.669 249.83 356.679 251.89 356.629H251.87Z" fill="#232323"/>
<path d="M217.43 415.58C219.66 427.52 219.44 447.05 209.16 463.85L222.85 458.74L221.73 449.24L221.1 427.67L222.46 417.17L217.44 415.57L217.43 415.58Z" fill="#232323"/>
<path d="M115.09 464.451C127.4 462.991 156.05 467.701 156.05 467.701L133.39 463.851L120.21 457.711L115.09 464.451Z" fill="#232323"/>
<path d="M182.42 473.611C196.45 468.491 212.04 466.381 212.04 466.381L213.37 462.891L191.68 466.021L182.13 467.181L180.58 468.251L182.42 473.611Z" fill="#232323"/>
<defs>
<filter id="filter0_d_1183_51076" x="213.772" y="22.2" width="87.6" height="87.6" filterUnits="userSpaceOnUse" color-interpolation-filters="sRGB">
<feFlood flood-opacity="0" result="BackgroundImageFix"/>
<feColorMatrix in="SourceAlpha" type="matrix" values="0 0 0 0 0 0 0 0 0 0 0 0 0 0 0 0 0 0 127 0" result="hardAlpha"/>
<feOffset dy="2"/>
<feGaussianBlur stdDeviation="3.9"/>
<feComposite in2="hardAlpha" operator="out"/>
<feColorMatrix type="matrix" values="0 0 0 0 0 0 0 0 0 0 0 0 0 0 0 0 0 0 0.41 0"/>
<feBlend mode="normal" in2="BackgroundImageFix" result="effect1_dropShadow_1183_51076"/>
<feBlend mode="normal" in="SourceGraphic" in2="effect1_dropShadow_1183_51076" result="shape"/>
</filter>
<linearGradient id="paint0_linear_1183_51076" x1="178.812" y1="513.949" x2="170.443" y2="-501.519" gradientUnits="userSpaceOnUse">
<stop offset="0.08" stop-color="#11D329"/>
<stop offset="0.27" stop-color="#08C225"/>
</linearGradient>
<radialGradient id="paint1_radial_1183_51076" cx="0" cy="0" r="1" gradientUnits="userSpaceOnUse" gradientTransform="translate(174.511 135.64) scale(107.8)">
<stop offset="0.29" stop-color="#11D329"/>
<stop offset="1" stop-color="#006837"/>
</radialGradient>
</defs>
</svg>
