<svg width="20" height="20" viewBox="0 0 20 20" fill="none" xmlns="http://www.w3.org/2000/svg">
<path d="M17.0669 2.93311C15.178 1.04422 12.6667 0 10 0C7.33333 0 4.822 1.04427 2.93311 2.93311C1.04422 4.82196 0 7.33333 0 10C0 12.6667 1.04427 15.178 2.93311 17.0669C4.82196 18.9558 7.33333 20 10 20C12.6667 20 15.178 18.9557 17.0669 17.0669C18.9558 15.178 20 12.6667 20 10C20 7.33333 18.9557 4.822 17.0669 2.93311ZM15 5.31067C15.2891 5.62142 15.356 6.06587 16.0886 5.97733C16.7995 5.88879 16.7778 6.35493 16.711 6.46604C16.6224 6.62143 16.2891 6.71084 15.7336 6.51032C15.178 6.33236 15.2223 6.7768 14.6893 6.57716C14.1563 6.3775 14.4228 6.15529 14.2006 5.95476C13.9784 5.7551 13.7336 5.93219 13.2891 6.0433C12.8447 6.15441 12.7778 5.95476 13.1112 5.62143C13.3108 5.42178 13.5556 5.31068 13.9775 4.97734C14.4002 4.71085 14.6893 4.9999 15 5.31067ZM10 19C5.04427 19 1.00004 14.9558 1.00004 10C1.00004 9.66667 1.02261 9.33333 1.04432 9C1.13286 8.97743 1.22227 8.95573 1.28912 8.93316C1.53392 8.84462 1.59987 9.11111 1.75614 9.15538C1.93409 9.17795 2.22316 9.17795 2.31169 9.55556C2.40024 9.93316 2.6676 10.1554 3.06689 10.0885C3.46707 10.0217 3.53392 10.2439 3.22228 10.8437C2.91152 11.4219 3.19971 11.7995 3.40023 12.2882C3.59988 12.7769 4.08947 13.1545 4.62245 13.4878C5.15543 13.7986 4.9332 15.71 5.15543 16.1103C5.37765 16.5105 5.71098 17.3099 5.97747 17.7101C6.51045 18.5321 7.73267 18.5764 7.17712 18.1545C6.73267 17.8212 6.73267 17.5764 6.57729 17.066C6.42191 16.5547 6.95489 16.1545 7.13285 15.9323C7.3325 15.7101 7.51045 14.9766 7.51045 14.599C7.51045 14.2214 8.4436 14.132 8.35507 13.7101C8.2891 13.2891 8.44448 12.7335 8.66669 12.4445C8.91149 12.1554 8.88892 11.5113 7.88892 11.3776C6.88892 11.2439 7.0226 10.2222 6.64412 10.1997C6.24394 10.1997 6.02172 10.1997 5.46616 9.68838C4.9106 9.17709 3.93318 9.15541 3.84376 9.39932C3.75522 9.64412 3.62154 9.71007 3.42189 9.64412C3.22224 9.57728 3.06598 9.97745 2.82207 9.66668C2.57727 9.35593 3.11114 9.11113 2.93318 8.95575C2.73353 8.7778 2.26652 9.02259 2.35505 8.73353C2.44359 8.44446 2.33248 8.0226 2.13283 8.26651C1.93317 8.51131 1.46616 8.7778 1.35505 8.02171C1.26651 7.26651 2.46616 6.84375 2.77692 7.13282C3.08767 7.42188 3.46616 7.59984 3.53212 7.08855C3.59896 6.55557 4.19878 6.53299 4.37674 6.24392C4.55469 5.97744 4.6658 5.71095 5.19878 5.46615C5.73176 5.22135 6.06509 4.51041 6.35416 4.28819C6.64323 4.06597 7.44269 4.24392 7.53212 3.91059C7.62066 3.57726 7.22136 3.15539 6.86545 3.17708C6.50954 3.19965 6.48785 2.88801 6.15452 3.0217C5.7986 3.17708 5.97656 3.62152 5.33247 3.75521C4.68838 3.88889 4.421 3.11112 4.93229 2.82205C5.44358 2.5113 6.13194 2.6441 6.13194 2.48872C6.13194 2.31077 6.50954 1.91059 6.77603 1.84463C7.04252 1.80036 7.309 1.95574 7.10936 2.15539C6.90971 2.35504 6.97568 2.62241 6.97568 2.62241C7.42012 2.95574 7.93141 2.40019 8.13106 2.17796C8.33071 1.95574 7.97568 1.86721 7.66404 1.55556C7.57549 1.46702 7.57549 1.37761 7.5972 1.33334C7.93053 1.2448 8.26386 1.17796 8.5972 1.11112C8.842 1.17796 8.93053 1.40019 8.77515 2.04428C8.77515 2.06684 8.77515 2.06684 8.75258 2.08855C8.64147 2.59984 9.24129 2.95486 9.64147 2.62152C10.1744 2.1545 11.3307 1.99912 11.5746 1.71006C11.7083 1.57638 11.7968 1.37672 11.8637 1.19877C12.6415 1.37672 13.3967 1.64321 14.1086 1.99912C13.5304 2.48784 13.6416 2.95486 13.8421 3.28819C14.0869 3.71006 13.4202 3.99912 12.9306 4.11024C12.4419 4.22135 12.9306 4.79948 12.3976 4.88801C11.8421 4.95485 11.731 5.59895 12.0643 6.04339C12.3976 6.48784 10.8195 7.30988 10.7752 8.24304C10.731 9.17619 11.086 9.84286 11.6641 10.3099C12.2423 10.7769 12.6199 10.1545 13.2865 10.3099C13.9532 10.4653 13.731 10.8429 13.9758 11.3099C14.2206 11.7769 14.5539 12.2656 14.3317 12.9323C14.1095 13.5989 14.2431 13.7986 14.5313 14.2213C14.8204 14.6658 15.0426 15.6432 15.1537 15.9765C15.1537 15.9765 15.9315 15.9323 16.3317 15.4436C16.7319 14.9323 16.6208 14.6432 16.8873 14.5321C17.1537 14.421 17.2206 14.2213 17.1537 13.8212C17.0869 13.421 17.6425 13.5989 17.8204 13.2656C17.9984 12.9097 17.2874 12.0877 17.909 11.421C18.5314 10.7317 18.8421 10.5321 18.9758 9.97655C19.0869 9.42099 18.4202 9.82116 17.9758 9.75432C17.731 9.71005 17.4871 8.1545 16.7978 7.26566C16.7753 7.24309 16.7978 7.22139 16.8204 7.24309C16.9541 7.30993 17.2874 7.48789 17.5539 7.84291C17.9315 8.33162 17.9541 9.37589 18.6425 9.17624C18.7536 9.15368 18.8647 9.1094 18.9532 9.06513C18.9758 9.37589 18.9975 9.68753 18.9975 9.99829C19.0001 14.9558 14.9556 19 10 19Z" fill="black"/>
<path d="M17.0669 2.93311C15.178 1.04422 12.6667 0 10 0C7.33333 0 4.822 1.04427 2.93311 2.93311C1.04422 4.82196 0 7.33333 0 10C0 12.6667 1.04427 15.178 2.93311 17.0669C4.82196 18.9558 7.33333 20 10 20C12.6667 20 15.178 18.9557 17.0669 17.0669C18.9558 15.178 20 12.6667 20 10C20 7.33333 18.9557 4.822 17.0669 2.93311ZM15 5.31067C15.2891 5.62142 15.356 6.06587 16.0886 5.97733C16.7995 5.88879 16.7778 6.35493 16.711 6.46604C16.6224 6.62143 16.2891 6.71084 15.7336 6.51032C15.178 6.33236 15.2223 6.7768 14.6893 6.57716C14.1563 6.3775 14.4228 6.15529 14.2006 5.95476C13.9784 5.7551 13.7336 5.93219 13.2891 6.0433C12.8447 6.15441 12.7778 5.95476 13.1112 5.62143C13.3108 5.42178 13.5556 5.31068 13.9775 4.97734C14.4002 4.71085 14.6893 4.9999 15 5.31067ZM10 19C5.04427 19 1.00004 14.9558 1.00004 10C1.00004 9.66667 1.02261 9.33333 1.04432 9C1.13286 8.97743 1.22227 8.95573 1.28912 8.93316C1.53392 8.84462 1.59987 9.11111 1.75614 9.15538C1.93409 9.17795 2.22316 9.17795 2.31169 9.55556C2.40024 9.93316 2.6676 10.1554 3.06689 10.0885C3.46707 10.0217 3.53392 10.2439 3.22228 10.8437C2.91152 11.4219 3.19971 11.7995 3.40023 12.2882C3.59988 12.7769 4.08947 13.1545 4.62245 13.4878C5.15543 13.7986 4.9332 15.71 5.15543 16.1103C5.37765 16.5105 5.71098 17.3099 5.97747 17.7101C6.51045 18.5321 7.73267 18.5764 7.17712 18.1545C6.73267 17.8212 6.73267 17.5764 6.57729 17.066C6.42191 16.5547 6.95489 16.1545 7.13285 15.9323C7.3325 15.7101 7.51045 14.9766 7.51045 14.599C7.51045 14.2214 8.4436 14.132 8.35507 13.7101C8.2891 13.2891 8.44448 12.7335 8.66669 12.4445C8.91149 12.1554 8.88892 11.5113 7.88892 11.3776C6.88892 11.2439 7.0226 10.2222 6.64412 10.1997C6.24394 10.1997 6.02172 10.1997 5.46616 9.68838C4.9106 9.17709 3.93318 9.15541 3.84376 9.39932C3.75522 9.64412 3.62154 9.71007 3.42189 9.64412C3.22224 9.57728 3.06598 9.97745 2.82207 9.66668C2.57727 9.35593 3.11114 9.11113 2.93318 8.95575C2.73353 8.7778 2.26652 9.02259 2.35505 8.73353C2.44359 8.44446 2.33248 8.0226 2.13283 8.26651C1.93317 8.51131 1.46616 8.7778 1.35505 8.02171C1.26651 7.26651 2.46616 6.84375 2.77692 7.13282C3.08767 7.42188 3.46616 7.59984 3.53212 7.08855C3.59896 6.55557 4.19878 6.53299 4.37674 6.24392C4.55469 5.97744 4.6658 5.71095 5.19878 5.46615C5.73176 5.22135 6.06509 4.51041 6.35416 4.28819C6.64323 4.06597 7.44269 4.24392 7.53212 3.91059C7.62066 3.57726 7.22136 3.15539 6.86545 3.17708C6.50954 3.19965 6.48785 2.88801 6.15452 3.0217C5.7986 3.17708 5.97656 3.62152 5.33247 3.75521C4.68838 3.88889 4.421 3.11112 4.93229 2.82205C5.44358 2.5113 6.13194 2.6441 6.13194 2.48872C6.13194 2.31077 6.50954 1.91059 6.77603 1.84463C7.04252 1.80036 7.309 1.95574 7.10936 2.15539C6.90971 2.35504 6.97568 2.62241 6.97568 2.62241C7.42012 2.95574 7.93141 2.40019 8.13106 2.17796C8.33071 1.95574 7.97568 1.86721 7.66404 1.55556C7.57549 1.46702 7.57549 1.37761 7.5972 1.33334C7.93053 1.2448 8.26386 1.17796 8.5972 1.11112C8.842 1.17796 8.93053 1.40019 8.77515 2.04428C8.77515 2.06684 8.77515 2.06684 8.75258 2.08855C8.64147 2.59984 9.24129 2.95486 9.64147 2.62152C10.1744 2.1545 11.3307 1.99912 11.5746 1.71006C11.7083 1.57638 11.7968 1.37672 11.8637 1.19877C12.6415 1.37672 13.3967 1.64321 14.1086 1.99912C13.5304 2.48784 13.6416 2.95486 13.8421 3.28819C14.0869 3.71006 13.4202 3.99912 12.9306 4.11024C12.4419 4.22135 12.9306 4.79948 12.3976 4.88801C11.8421 4.95485 11.731 5.59895 12.0643 6.04339C12.3976 6.48784 10.8195 7.30988 10.7752 8.24304C10.731 9.17619 11.086 9.84286 11.6641 10.3099C12.2423 10.7769 12.6199 10.1545 13.2865 10.3099C13.9532 10.4653 13.731 10.8429 13.9758 11.3099C14.2206 11.7769 14.5539 12.2656 14.3317 12.9323C14.1095 13.5989 14.2431 13.7986 14.5313 14.2213C14.8204 14.6658 15.0426 15.6432 15.1537 15.9765C15.1537 15.9765 15.9315 15.9323 16.3317 15.4436C16.7319 14.9323 16.6208 14.6432 16.8873 14.5321C17.1537 14.421 17.2206 14.2213 17.1537 13.8212C17.0869 13.421 17.6425 13.5989 17.8204 13.2656C17.9984 12.9097 17.2874 12.0877 17.909 11.421C18.5314 10.7317 18.8421 10.5321 18.9758 9.97655C19.0869 9.42099 18.4202 9.82116 17.9758 9.75432C17.731 9.71005 17.4871 8.1545 16.7978 7.26566C16.7753 7.24309 16.7978 7.22139 16.8204 7.24309C16.9541 7.30993 17.2874 7.48789 17.5539 7.84291C17.9315 8.33162 17.9541 9.37589 18.6425 9.17624C18.7536 9.15368 18.8647 9.1094 18.9532 9.06513C18.9758 9.37589 18.9975 9.68753 18.9975 9.99829C19.0001 14.9558 14.9556 19 10 19Z" fill="black"/>
</svg>
