<?xml version="1.0" encoding="UTF-8"?>
<svg id="logosandtypes_com" data-name="logosandtypes com" xmlns="http://www.w3.org/2000/svg" xmlns:xlink="http://www.w3.org/1999/xlink" viewBox="0 0 150 150">
  <defs>
    <style>
      .cls-1 {
        fill: #101010;
      }

      .cls-2 {
        fill: none;
      }

      .cls-3 {
        fill: url(#linear-gradient);
      }
    </style>
    <linearGradient id="linear-gradient" x1="186.97" y1="96.04" x2="45.7" y2="96.04" gradientTransform="translate(0 150.11) scale(1 -1)" gradientUnits="userSpaceOnUse">
      <stop offset="0" stop-color="#165cc3"/>
      <stop offset="1" stop-color="#3ddabb"/>
    </linearGradient>
  </defs>
  <g id="Layer_3" data-name="Layer 3">
    <g id="Layer_2" data-name="Layer 2">
      <path id="Layer_3-2" data-name="Layer 3-2" class="cls-2" d="M0,0H150V150H0V0Z"/>
    </g>
  </g>
  <path class="cls-1" d="M111.63,75.01c.06,.86,.08,1.72,.08,2.59,0,20.52-16.62,37.16-37.14,37.16-20.52,0-37.16-16.62-37.16-37.14,0-20.52,16.62-37.16,37.14-37.16,0,0,.02,0,.02,0,1.61,0,3.22,.1,4.82,.32l12.7-17.11C62.3,14,30.31,30.3,20.63,60.09c-9.68,29.79,6.62,61.78,36.41,71.47,29.79,9.68,61.78-6.62,71.47-36.41,4.29-13.2,3.59-27.52-1.97-40.24l-14.9,20.11Z"/>
  <polygon class="cls-3" points="120.26 4.82 74.49 66.53 62.93 53.99 45.67 69.89 76.4 103.32 149.5 4.82 120.26 4.82"/>
</svg>