<svg width="500" height="500" fill="none">
  <defs>
    <linearGradient id="a" x1="0" x2="1" y1="1.007" y2="1.007">
      <stop stop-color="#F50"/>
      <stop offset=".41" stop-color="#F50"/>
      <stop offset=".582" stop-color="#FF2000"/>
      <stop offset="1" stop-color="#FF2000"/>
    </linearGradient>
    <linearGradient id="b" x1=".021" x2="1" y1=".996" y2=".996">
      <stop stop-color="#FF452A"/>
      <stop offset="1" stop-color="#FF2000"/>
    </linearGradient>
  </defs>
  <g fill-rule="evenodd" clip-rule="evenodd">
    <path fill="url(#a)" d="m448.34 120.054 11.734-28.753s-14.932-15.98-33.064-34.088c-18.123-18.108-56.513-7.454-56.513-7.454L326.78.214H173.228L129.51 49.76s-38.39-10.654-56.514 7.454C54.867 75.32 39.942 91.3 39.942 91.3l11.733 28.753-14.94 42.606s43.912 166.107 49.06 186.397c10.129 39.939 17.059 55.38 45.851 75.622 28.785 20.236 81.036 55.38 89.561 60.714 8.534 5.32 19.203 14.393 28.8 14.393 9.598 0 20.26-9.074 28.786-14.393 8.533-5.326 60.776-40.478 89.576-60.714 28.785-20.235 35.723-35.683 45.852-75.622 5.14-20.29 49.044-186.397 49.044-186.397l-14.924-42.606z"/>
    <path fill="#fff" d="M304.386 90.23c6.398 0 53.854-9.05 53.854-9.05s56.232 67.894 56.232 82.411c0 11.999-4.842 16.692-10.536 22.23-1.19 1.158-2.425 2.347-3.653 3.66l-42.16 44.719a73.683 73.683 0 0 1-1.377 1.408c-4.208 4.223-10.403 10.45-6.039 20.79l.9 2.104c4.795 11.201 10.716 25.03 3.183 39.032-8.017 14.908-21.745 24.858-30.544 23.208-8.792-1.643-29.458-12.43-37.053-17.35-7.595-4.927-31.679-24.764-31.679-32.359 0-6.328 17.318-16.856 25.735-21.98 1.674-1.016 2.995-1.814 3.754-2.33.868-.587 2.323-1.487 4.114-2.597 7.674-4.772 21.542-13.376 21.894-17.185.43-4.709.266-6.086-5.929-17.709-1.314-2.472-2.855-5.115-4.443-7.853-5.898-10.13-12.5-21.471-11.029-29.598 1.643-9.175 16.035-14.432 28.222-18.89a296.51 296.51 0 0 0 4.435-1.635l12.695-4.764c12.17-4.552 25.687-9.613 27.924-10.637 3.082-1.416 2.284-2.777-7.063-3.661a427.508 427.508 0 0 1-4.537-.47c-11.576-1.227-32.922-3.488-43.294-.602a834.722 834.722 0 0 1-6.727 1.838c-11.655 3.153-25.945 7.017-27.322 9.246-.235.391-.47.727-.696 1.04-1.314 1.862-2.167 3.082-.712 10.998.43 2.362 1.322 7 2.425 12.742 3.207 16.801 8.236 43.005 8.87 48.887.086.829.188 1.619.281 2.386.806 6.57 1.338 10.942-6.296 12.687l-1.995.453c-8.62 1.972-21.252 4.873-25.812 4.873-4.568 0-17.208-2.894-25.828-4.873l-1.987-.453c-7.634-1.745-7.094-6.117-6.289-12.687.094-.767.188-1.565.274-2.386.634-5.89 5.67-32.164 8.894-48.958 1.095-5.71 1.978-10.325 2.409-12.671 1.447-7.916.594-9.136-.72-10.998a29.277 29.277 0 0 1-.704-1.04c-1.36-2.23-15.644-6.093-27.306-9.246-2.402-.649-4.693-1.267-6.727-1.838-10.38-2.894-31.718-.625-43.295.603-1.767.187-3.3.352-4.536.469-9.355.884-10.145 2.245-7.063 3.66 2.229 1.025 15.745 6.086 27.908 10.638 4.67 1.745 9.152 3.419 12.703 4.764 1.431.54 2.918 1.08 4.443 1.643 12.186 4.458 26.579 9.707 28.221 18.882 1.463 8.127-5.139 19.468-11.029 29.598-1.595 2.738-3.128 5.381-4.45 7.853-6.187 11.623-6.352 13-5.921 17.709.344 3.817 14.204 12.413 21.885 17.185 1.792 1.11 3.246 2.01 4.115 2.597.766.516 2.08 1.314 3.754 2.33 8.417 5.116 25.734 15.644 25.734 21.98 0 7.587-24.075 27.432-31.678 32.36-7.588 4.927-28.253 15.706-37.053 17.349-8.792 1.642-22.527-8.3-30.537-23.2-7.532-14.01-1.619-27.839 3.176-39.032l.9-2.112c4.372-10.34-1.823-16.567-6.039-20.79a73.346 73.346 0 0 1-1.369-1.408l-42.16-44.718c-1.236-1.307-2.472-2.503-3.66-3.661-5.695-5.53-10.53-10.231-10.53-22.23 0-14.51 56.233-82.412 56.233-82.412s47.448 9.05 53.846 9.05c5.108 0 14.963-3.387 25.241-6.922 2.605-.892 5.233-1.8 7.822-2.66 12.79-4.263 21.323-4.294 21.323-4.294s8.526.031 21.322 4.294c2.582.86 5.218 1.768 7.822 2.66 10.27 3.535 20.134 6.922 25.234 6.922zm-8.143 240.18c10.028 5.162 17.146 8.823 19.837 10.504 3.48 2.175 1.36 6.281-1.815 8.526-3.168 2.23-45.782 35.191-49.912 38.836l-1.681 1.494c-3.982 3.59-9.066 8.166-12.672 8.166-3.598 0-8.682-4.583-12.672-8.166l-1.666-1.494c-4.145-3.645-46.751-36.607-49.92-38.844-3.167-2.237-5.295-6.335-1.814-8.526 2.69-1.673 9.817-5.342 19.86-10.512l9.543-4.92c15.018-7.76 33.751-14.37 36.677-14.37 2.917 0 21.643 6.603 36.677 14.37a2187.6 2187.6 0 0 0 9.558 4.928v.007z"/>
    <path fill="url(#b)" d="M370.497 49.759 326.78.214H173.228L129.51 49.76s-38.39-10.654-56.514 7.454c0 0 51.187-4.615 68.779 23.966 0 0 47.448 9.05 53.846 9.05 6.398 0 20.259-5.319 33.055-9.582 12.797-4.263 21.33-4.294 21.33-4.294s8.527.031 21.323 4.294 26.658 9.582 33.056 9.582c6.398 0 53.854-9.05 53.854-9.05 17.591-28.581 68.77-23.966 68.77-23.966-18.123-18.108-56.513-7.454-56.513-7.454z"/>
  </g>
</svg>
