<?xml version="1.0" encoding="UTF-8" standalone="no"?>
<svg
   version="1.1"
   width="96"
   height="96"
   viewBox="0 0 96 96"
   xml:space="preserve"
   id="svg6"
   sodipodi:docname="brave.svg"
   inkscape:version="1.3.2 (091e20e, 2023-11-25, custom)"
   xmlns:inkscape="http://www.inkscape.org/namespaces/inkscape"
   xmlns:sodipodi="http://sodipodi.sourceforge.net/DTD/sodipodi-0.dtd"
   xmlns="http://www.w3.org/2000/svg"
   xmlns:svg="http://www.w3.org/2000/svg"><sodipodi:namedview
   id="namedview6"
   pagecolor="#ffffff"
   bordercolor="#000000"
   borderopacity="0.25"
   inkscape:showpageshadow="2"
   inkscape:pageopacity="0.0"
   inkscape:pagecheckerboard="0"
   inkscape:deskcolor="#d1d1d1"
   inkscape:zoom="8.09375"
   inkscape:cx="48"
   inkscape:cy="48"
   inkscape:window-width="1920"
   inkscape:window-height="991"
   inkscape:window-x="-9"
   inkscape:window-y="-9"
   inkscape:window-maximized="1"
   inkscape:current-layer="svg6" />
<desc
   id="desc1">Created with Fabric.js 5.3.0</desc>
<defs
   id="defs1">
</defs>
<g
   transform="translate(48.065,48.066)"
   id="r-F4iK9D9hoWKR6dRPdW9">
<g
   id="g6">
		<g
   transform="translate(-0.065,-0.066)"
   id="Ii0aKVyTWvdbjVfK_ZaN0">
<linearGradient
   id="SVGID_0"
   gradientUnits="userSpaceOnUse"
   x1="0.671"
   y1="64.319"
   x2="55.200001"
   y2="64.319">
<stop
   offset="0%"
   style="stop-color:rgb(255,85,0);stop-opacity: 1"
   id="stop1" />
<stop
   offset="41%"
   style="stop-color:rgb(255,85,0);stop-opacity: 1"
   id="stop2" />
<stop
   offset="58.199999999999996%"
   style="stop-color:rgb(255,32,0);stop-opacity: 1"
   id="stop3" />
<stop
   offset="100%"
   style="stop-color:rgb(255,32,0);stop-opacity: 1"
   id="stop4" />
</linearGradient>
<path
   style="opacity:1;fill:url(#SVGID_0);fill-rule:evenodd;stroke:none;stroke-width:1;stroke-linecap:butt;stroke-linejoin:miter;stroke-miterlimit:4;stroke-dasharray:none;stroke-dashoffset:0"
   transform="translate(-27.935,-31.934)"
   d="m 53.292,15.321 1.5,-3.676 c 0,0 -1.909,-2.043 -4.227,-4.358 C 48.248,4.972 43.34,6.334 43.34,6.334 L 37.751,0 H 18.12 l -5.589,6.334 c 0,0 -4.908,-1.362 -7.225,0.953 C 2.988,9.602 1.08,11.645 1.08,11.645 l 1.5,3.676 -1.91,5.447 c 0,0 5.614,21.236 6.272,23.83 1.295,5.106 2.181,7.08 5.862,9.668 3.68,2.587 10.36,7.08 11.45,7.762 1.091,0.68 2.455,1.84 3.682,1.84 1.227,0 2.59,-1.16 3.68,-1.84 1.091,-0.681 7.77,-5.175 11.452,-7.762 3.68,-2.587 4.567,-4.562 5.862,-9.668 0.657,-2.594 6.27,-23.83 6.27,-23.83 z"
   stroke-linecap="round"
   id="path4" />
</g>
		<g
   transform="translate(-0.064,-1.7095)"
   id="yFALuw9WCf5yfG8AbQIoW">
<path
   style="opacity:1;fill:#ffffff;fill-rule:evenodd;stroke:none;stroke-width:1;stroke-linecap:butt;stroke-linejoin:miter;stroke-miterlimit:4;stroke-dasharray:none;stroke-dashoffset:0"
   transform="translate(-27.936,-30.2905)"
   d="m 34.888,11.508 c 0.818,0 6.885,-1.157 6.885,-1.157 0,0 7.189,8.68 7.189,10.536 0,1.534 -0.619,2.134 -1.347,2.842 -0.152,0.148 -0.31,0.3 -0.467,0.468 l -5.39,5.717 c -0.05786,0.06078 -0.116534,0.120787 -0.176,0.18 -0.538,0.54 -1.33,1.336 -0.772,2.658 l 0.115,0.269 c 0.613,1.432 1.37,3.2 0.407,4.99 -1.025,1.906 -2.78,3.178 -3.905,2.967 -1.124,-0.21 -3.766,-1.589 -4.737,-2.218 -0.971,-0.63 -4.05,-3.166 -4.05,-4.137 0,-0.809 2.214,-2.155 3.29,-2.81 0.214,-0.13 0.383,-0.232 0.48,-0.298 0.111,-0.075 0.297,-0.19 0.526,-0.332 0.981,-0.61 2.754,-1.71 2.799,-2.197 0.055,-0.602 0.034,-0.778 -0.758,-2.264 -0.168,-0.316 -0.365,-0.654 -0.568,-1.004 -0.754,-1.295 -1.598,-2.745 -1.41,-3.784 0.21,-1.173 2.05,-1.845 3.608,-2.415 0.194,-0.07 0.385,-0.14 0.567,-0.209 l 1.623,-0.609 c 1.556,-0.582 3.284,-1.229 3.57,-1.36 0.394,-0.181 0.292,-0.355 -0.903,-0.468 -0.193439,-0.01897 -0.386775,-0.03897 -0.58,-0.06 -1.48,-0.157 -4.209,-0.446 -5.535,-0.077 -0.261,0.073 -0.553,0.152 -0.86,0.235 -1.49,0.403 -3.317,0.897 -3.493,1.182 -0.03,0.05 -0.06,0.093 -0.089,0.133 -0.168,0.238 -0.277,0.394 -0.091,1.406 0.055,0.302 0.169,0.895 0.31,1.629 0.41,2.148 1.053,5.498 1.134,6.25 0.011,0.106 0.024,0.207 0.036,0.305 0.103,0.84 0.171,1.399 -0.805,1.622 l -0.255,0.058 c -1.102,0.252 -2.717,0.623 -3.3,0.623 -0.584,0 -2.2,-0.37 -3.302,-0.623 L 24.38,29.498 c -0.976,-0.223 -0.907,-0.782 -0.804,-1.622 0.012,-0.098 0.024,-0.2 0.035,-0.305 0.081,-0.753 0.725,-4.112 1.137,-6.259 0.14,-0.73 0.253,-1.32 0.308,-1.62 0.185,-1.012 0.076,-1.168 -0.092,-1.406 -0.03095,-0.04368 -0.06095,-0.08803 -0.09,-0.133 -0.174,-0.285 -2,-0.779 -3.491,-1.182 -0.307,-0.083 -0.6,-0.162 -0.86,-0.235 -1.327,-0.37 -4.055,-0.08 -5.535,0.077 -0.226,0.024 -0.422,0.045 -0.58,0.06 -1.196,0.113 -1.297,0.287 -0.903,0.468 0.285,0.131 2.013,0.778 3.568,1.36 0.597,0.223 1.17,0.437 1.624,0.609 0.183,0.069 0.373,0.138 0.568,0.21 1.558,0.57 3.398,1.241 3.608,2.414 0.187,1.039 -0.657,2.489 -1.41,3.784 -0.204,0.35 -0.4,0.688 -0.569,1.004 -0.791,1.486 -0.812,1.662 -0.757,2.264 0.044,0.488 1.816,1.587 2.798,2.197 0.229,0.142 0.415,0.257 0.526,0.332 0.098,0.066 0.266,0.168 0.48,0.298 1.076,0.654 3.29,2 3.29,2.81 0,0.97 -3.078,3.507 -4.05,4.137 -0.97,0.63 -3.612,2.008 -4.737,2.218 -1.124,0.21 -2.88,-1.061 -3.904,-2.966 -0.963,-1.791 -0.207,-3.559 0.406,-4.99 l 0.115,-0.27 C 15.62,31.43 14.828,30.634 14.289,30.094 14.22987,30.03478 14.171528,29.974778 14.114,29.914 L 8.724,24.197 C 8.566,24.03 8.408,23.877 8.256,23.729 7.528,23.022 6.91,22.421 6.91,20.887 c 0,-1.855 7.189,-10.536 7.189,-10.536 0,0 6.066,1.157 6.884,1.157 0.653,0 1.913,-0.433 3.227,-0.885 0.333,-0.114 0.669,-0.23 1,-0.34 1.635,-0.545 2.726,-0.549 2.726,-0.549 0,0 1.09,0.004 2.726,0.549 0.33,0.11 0.667,0.226 1,0.34 1.313,0.452 2.574,0.885 3.226,0.885 z m -1.041,30.706 c 1.282,0.66 2.192,1.128 2.536,1.343 0.445,0.278 0.174,0.803 -0.232,1.09 -0.405,0.285 -5.853,4.499 -6.381,4.965 l -0.215,0.191 c -0.509,0.459 -1.159,1.044 -1.62,1.044 -0.46,0 -1.11,-0.586 -1.62,-1.044 l -0.213,-0.191 c -0.53,-0.466 -5.977,-4.68 -6.382,-4.966 -0.405,-0.286 -0.677,-0.81 -0.232,-1.09 0.344,-0.214 1.255,-0.683 2.539,-1.344 l 1.22,-0.629 c 1.92,-0.992 4.315,-1.837 4.689,-1.837 0.373,0 2.767,0.844 4.689,1.837 0.436,0.226 0.845,0.437 1.222,0.63 z"
   stroke-linecap="round"
   id="path5" />
</g>
		<g
   transform="translate(-0.0645,-26.246)"
   id="0KuDkb-_5PZSfGEzYnH-2">
<linearGradient
   id="SVGID_1"
   gradientUnits="userSpaceOnUse"
   x1="6.2779999"
   y1="11.466"
   x2="50.564999"
   y2="11.466">
<stop
   offset="0%"
   style="stop-color:rgb(255,69,42);stop-opacity: 1"
   id="stop5" />
<stop
   offset="100%"
   style="stop-color:rgb(255,32,0);stop-opacity: 1"
   id="stop6" />
</linearGradient>
<path
   style="opacity:1;fill:url(#SVGID_1);fill-rule:evenodd;stroke:none;stroke-width:1;stroke-linecap:butt;stroke-linejoin:miter;stroke-miterlimit:4;stroke-dasharray:none;stroke-dashoffset:0"
   transform="translate(-27.9355,-5.754)"
   d="M 43.34,6.334 37.751,0 H 18.12 l -5.589,6.334 c 0,0 -4.908,-1.362 -7.225,0.953 0,0 6.544,-0.59 8.793,3.064 0,0 6.066,1.157 6.884,1.157 0.818,0 2.59,-0.68 4.226,-1.225 1.636,-0.545 2.727,-0.549 2.727,-0.549 0,0 1.09,0.004 2.726,0.549 1.636,0.545 3.408,1.225 4.226,1.225 0.818,0 6.885,-1.157 6.885,-1.157 C 44.022,6.697 50.565,7.287 50.565,7.287 48.248,4.972 43.34,6.334 43.34,6.334 Z"
   stroke-linecap="round"
   id="path6" />
</g>
</g>
</g>
</svg>
