<svg width="500" height="500" xmlns="http://www.w3.org/2000/svg" xmlns:undefined="http://sodipodi.sourceforge.net/DTD/sodipodi-0.dtd" xmlns:undefined="http://www.inkscape.org/namespaces/inkscape" version="1.1" fill="none">
 <title>Brave</title>
 <defs id="defs8">
  <linearGradient y2="1.00706" x2="1" y1="1.00706" x1="0.00002" id="paint0_linear">
   <stop id="stop3" stop-color="#F50"/>
   <stop id="stop4" stop-color="#F50" offset="0.41"/>
   <stop id="stop5" stop-color="#FF2000" offset="0.582"/>
   <stop id="stop6" stop-color="#FF2000" offset="1"/>
  </linearGradient>
  <linearGradient y2="0.99635" x2="1" y1="0.99635" x1="0.02148" id="paint1_linear">
   <stop id="stop7" stop-color="#FF452A"/>
   <stop id="stop8" stop-color="#FF2000" offset="1"/>
  </linearGradient>
 </defs>
 <g>
  <title>Layer 1</title>
  <g id="svg_1">
   <path id="path1" fill="url(#paint0_linear)" d="m448.34074,120.05424l11.7329,-28.75342s-14.93207,-15.98021 -33.06331,-34.08798c-18.12342,-18.10777 -56.51346,-7.4543 -56.51346,-7.4543l-43.71678,-49.54412l-153.55235,0l-43.71678,49.54412s-38.39004,-10.65347 -56.51346,7.4543c-18.13124,18.10777 -33.05549,34.08798 -33.05549,34.08798l11.7329,28.75342l-14.93989,42.60607s43.91233,166.10656 49.05916,186.39665c10.1294,39.93879 17.05963,55.37928 45.85217,75.62244c28.78471,20.23534 81.03522,55.37928 89.56113,60.71384c8.53373,5.31891 19.20284,14.39236 28.80035,14.39236c9.59751,0 20.2588,-9.07344 28.78471,-14.39236c8.53373,-5.32674 60.77641,-40.4785 89.57677,-60.71384c28.78471,-20.23534 35.72277,-35.68366 45.85217,-75.62244c5.13901,-20.29009 49.04352,-186.39665 49.04352,-186.39665l-14.92425,-42.60607z" clip-rule="evenodd" fill-rule="evenodd"/>
   <path id="path2" fill="#fff" d="m304.3859,90.22921c6.39834,0 53.854,-9.04998 53.854,-9.04998s56.23187,67.89437 56.23187,82.41188c0,11.99884 -4.84178,16.692 -10.53614,22.22993c-1.18893,1.15765 -2.4248,2.34658 -3.65284,3.66066l-42.16022,44.71799a73.6826,73.6826 0 0 1 -1.37666,1.40795c-4.2082,4.22384 -10.40317,10.4501 -6.03853,20.7907l0.89952,2.1041c4.79484,11.20101 10.71605,25.03018 3.18353,39.03144c-8.01748,14.9086 -21.74497,24.8581 -30.54465,23.20767c-8.79185,-1.64261 -29.4574,-12.42905 -37.05249,-17.34905c-7.5951,-4.92782 -31.67883,-24.76424 -31.67883,-32.35933c0,-6.32794 17.31776,-16.85626 25.73416,-21.97963c1.67389,-1.01685 2.9958,-1.81469 3.75453,-2.33094c0.86823,-0.58664 2.32311,-1.48617 4.11434,-2.59688c7.67332,-4.77138 21.5416,-13.3755 21.89359,-17.18479c0.43021,-4.7088 0.26595,-6.08546 -5.92902,-17.70885c-1.31408,-2.47173 -2.85501,-5.11554 -4.44286,-7.85322c-5.89774,-10.1294 -12.49945,-21.4712 -11.02892,-29.59819c1.64261,-9.17513 16.03496,-14.43147 28.22153,-18.88997c1.51745,-0.54754 3.01144,-1.09507 4.43504,-1.63478l12.695,-4.76356c12.17093,-4.55236 25.68723,-9.61315 27.9243,-10.63783c3.08184,-1.41577 2.284,-2.77679 -7.0632,-3.66066a427.50771,427.50771 0 0 1 -4.53672,-0.46932c-11.57646,-1.22804 -32.92251,-3.48858 -43.2944,-0.60229c-2.04152,0.571 -4.32553,1.18893 -6.72686,1.83815c-11.65468,3.15224 -25.94535,7.01627 -27.32201,9.24552c-0.23466,0.3911 -0.46932,0.72744 -0.69615,1.04032c-1.31408,1.86162 -2.16668,3.08184 -0.7118,10.99764c0.43021,2.36222 1.32191,7.00063 2.4248,12.74193c3.20699,16.80151 8.23649,43.00498 8.87007,48.88708c0.08604,0.82912 0.18773,1.61914 0.28159,2.38569c0.80566,6.57042 1.33755,10.94288 -6.29666,12.68717l-1.99459,0.45367c-8.61977,1.97113 -21.25219,4.87306 -25.81238,4.87306c-4.56801,0 -17.20825,-2.89411 -25.82802,-4.87306l-1.98677,-0.45367c-7.63421,-1.74429 -7.09449,-6.11675 -6.28883,-12.68717c0.09386,-0.76655 0.18773,-1.56439 0.27377,-2.38569c0.63358,-5.88992 5.6709,-32.16379 8.89354,-48.95747c1.09507,-5.71001 1.97895,-10.32495 2.40916,-12.67153c1.44706,-7.9158 0.59447,-9.13602 -0.71962,-10.99764a29.27749,29.27749 0 0 1 -0.70397,-1.04032c-1.36102,-2.22925 -15.64386,-6.09329 -27.30637,-9.24552c-2.40133,-0.64922 -4.69316,-1.26715 -6.72686,-1.83815c-10.3797,-2.89411 -31.71794,-0.62575 -43.2944,0.60229c-1.76776,0.18773 -3.30086,0.35199 -4.53672,0.46932c-9.35503,0.88388 -10.14505,2.24489 -7.0632,3.66066c2.22925,1.02467 15.74555,6.08546 27.90865,10.63783c4.66969,1.74429 9.15166,3.41818 12.70282,4.76356c1.43141,0.53971 2.91758,1.07943 4.44286,1.64261c12.18657,4.4585 26.57893,9.70702 28.22153,18.88214c1.4627,8.12699 -5.13901,19.46879 -11.02892,29.59819c-1.59567,2.73768 -3.12877,5.38149 -4.45068,7.85322c-6.18715,11.62339 -6.35141,13.00005 -5.9212,17.70885c0.34417,3.8171 14.20463,12.41341 21.88577,17.18479c1.79122,1.11071 3.2461,2.01024 4.11434,2.59688c0.76655,0.51625 2.08063,1.31408 3.75453,2.33094c8.4164,5.11554 25.73416,15.64386 25.73416,21.97963c0,7.58727 -24.07591,27.43152 -31.67883,32.35933c-7.58727,4.92782 -28.25282,15.70644 -37.05249,17.34905c-8.79185,1.64261 -22.52717,-8.29907 -30.53682,-23.19985c-7.53252,-14.00908 -1.61914,-27.83826 3.1757,-39.03144l0.89952,-2.11192c4.37246,-10.34059 -1.82251,-16.56685 -6.03853,-20.7907a73.34626,73.34626 0 0 1 -1.36884,-1.40795l-42.16022,-44.71799c-1.23587,-1.30626 -2.47173,-2.50302 -3.66066,-3.66066c-5.69437,-5.53011 -10.52832,-10.23109 -10.52832,-22.22993c0,-14.50968 56.23187,-82.41188 56.23187,-82.41188s47.44784,9.04998 53.84618,9.04998c5.10772,0 14.96336,-3.3869 25.24138,-6.92241c2.6047,-0.8917 5.23287,-1.79904 7.82193,-2.65946c12.78886,-4.26295 21.32259,-4.29424 21.32259,-4.29424s8.52591,0.03129 21.32259,4.29424c2.58124,0.86041 5.21723,1.76776 7.82193,2.65946c10.2702,3.53551 20.13365,6.92241 25.23355,6.92241zm-8.14263,240.18025c10.02772,5.16248 17.14568,8.82314 19.83642,10.50486c3.48076,2.1745 1.36102,6.28101 -1.81469,8.52591c-3.16788,2.22925 -45.78177,35.19087 -49.91175,38.83589l-1.68172,1.49399c-3.98136,3.59027 -9.06562,8.1661 -12.67153,8.1661c-3.59809,0 -8.68234,-4.58365 -12.67153,-8.1661l-1.66607,-1.49399c-4.14562,-3.64502 -46.75169,-36.60664 -49.91957,-38.84372c-3.16788,-2.23707 -5.29545,-6.33577 -1.81469,-8.52591c2.69074,-1.67389 9.81653,-5.34238 19.85989,-10.51268l9.54276,-4.92c15.01811,-7.75936 33.75164,-14.36889 36.67704,-14.36889c2.91758,0 21.64329,6.60171 36.67704,14.36889c3.41036,1.76776 6.60953,3.41818 9.5584,4.92782l0,0.00782z" clip-rule="evenodd" fill-rule="evenodd"/>
   <path id="path3" fill="url(#paint1_linear)" d="m370.49687,49.75854l-43.71678,-49.54412l-153.55235,0l-43.71678,49.54412s-38.39004,-10.65347 -56.51346,7.4543c0,0 51.18673,-4.61494 68.77825,23.9664c0,0 47.44784,9.04998 53.84618,9.04998c6.39834,0 20.2588,-5.31891 33.05549,-9.58187c12.79668,-4.26295 21.33041,-4.29424 21.33041,-4.29424s8.52591,0.03129 21.32259,4.29424s26.65715,9.58187 33.05549,9.58187c6.39834,0 53.854,-9.04998 53.854,-9.04998c17.59153,-28.58134 68.77043,-23.9664 68.77043,-23.9664c-18.12342,-18.10777 -56.51346,-7.4543 -56.51346,-7.4543z" clip-rule="evenodd" fill-rule="evenodd"/>
  </g>
 </g>
</svg>