<svg version="1.0" xmlns="http://www.w3.org/2000/svg" preserveAspectRatio="xMidYMid meet" viewBox="1 0 385.87 107"><g transform="translate(0.000000,107.000000) scale(0.100000,-0.100000)"><path d="M10 535 l0 -535 535 0 535 0 0 535 0 535 -535 0 -535 0 0 -535z m360 255 c58 -17 61 -21 48 -63 -9 -28 -16 -36 -27 -31 -9 3 -33 10 -55 15 -51 13 -104 -13 -128 -61 -23 -46 -24 -159 -2 -206 28 -58 97 -79 173 -53 37 13 37 14 45 -28 7 -28 4 -33 -23 -47 -37 -20 -140 -21 -184 -2 -122 51 -157 287 -62 413 48 62 132 87 215 63z m188 -242 l2 -238 -45 0 -45 0 0 233 c0 129 3 237 7 241 4 4 23 6 43 4 l35 -3 3 -237z m152 147 l0 -95 85 0 85 0 0 95 0 95 40 0 40 0 0 -240 0 -240 -40 0 -40 0 0 105 0 105 -85 0 -85 0 0 -105 0 -105 -40 0 -40 0 0 240 0 240 40 0 40 0 0 -95z" /></g></svg>