<?xml version="1.0" encoding="UTF-8" standalone="no" ?>
<!DOCTYPE svg PUBLIC "-//W3C//DTD SVG 1.1//EN" "http://www.w3.org/Graphics/SVG/1.1/DTD/svg11.dtd">
<svg xmlns="http://www.w3.org/2000/svg" xmlns:xlink="http://www.w3.org/1999/xlink" version="1.1" width="96" height="96" viewBox="0 0 96 96" xml:space="preserve">
<desc>Created with Fabric.js 5.3.0</desc>
<defs>
</defs>
<g transform="matrix(2.1518700845 0 0 2.1518702654 48 48)" id="tz7PAxZsHlu6KgeDEQ0LT"  >
<path style="stroke: none; stroke-width: 1; stroke-dasharray: none; stroke-linecap: butt; stroke-dashoffset: 0; stroke-linejoin: miter; stroke-miterlimit: 4; fill: rgb(0,0,0); fill-rule: evenodd; opacity: 1;"  transform=" translate(-15.8495256484, -16.6277849698)" d="M 12.349 21 L 11.959 21.982 L 12.732 21.982 L 12.349 21 z M 14.639 10.776 L 14.639 7.909 C 14.639 7.452 14.428999999999998 7.241 13.991 7.241 L 13.278 7.241 L 13.278 11.445 L 13.991 11.445 C 14.429 11.445 14.639 11.233 14.639 10.777000000000001 z M 26.337 1.7569999999999997 L 5.36 1.7569999999999997 C 3.6580000000000004 1.7569999999999997 3.0320000000000005 2.3839999999999995 3.0320000000000005 4.084999999999999 L 3.0320000000000005 24.610999999999997 L 3.0570000000000004 25.147999999999996 C 3.095 25.519999999999996 3.1040000000000005 25.879999999999995 3.4490000000000003 26.287999999999997 C 3.5745443806030788 26.393018217658145 3.7036187581547493 26.493742925721723 3.8360000000000025 26.589999999999996 L 4.369000000000001 26.837999999999997 L 14.698 31.165 C 15.235000000000001 31.41 15.458 31.506999999999998 15.848 31.497999999999998 L 15.851 31.497999999999998 C 16.241 31.505999999999997 16.464000000000002 31.409999999999997 17.001 31.165 L 27.330000000000002 26.838 L 27.863000000000003 26.59 L 28.250000000000004 26.288 C 28.595000000000002 25.878 28.603000000000005 25.518 28.642000000000003 25.148 C 28.65944625449462 24.969540625884676 28.667790400002435 24.790308380376825 28.667 24.611000000000004 L 28.667 4.086 C 28.667 2.3840000000000003 28.039 1.7580000000000005 26.339000000000002 1.7580000000000005 L 26.337000000000003 1.7580000000000005 z M 17.156 5.709 L 18.891 5.709 L 18.891 17.113 L 17.156 17.113 L 17.156 5.709 z M 17.273 19.89 L 18.283 19.89 L 18.283 23.34 L 17.331000000000003 23.34 L 17.331000000000003 21.358 L 16.449 22.708000000000002 L 16.429000000000002 22.708000000000002 L 15.552000000000001 21.368000000000002 L 15.552000000000001 23.340000000000003 L 14.615000000000002 23.340000000000003 L 14.615000000000002 19.890000000000004 L 15.625000000000002 19.890000000000004 L 16.448 21.227000000000004 L 17.271 19.890000000000004 z M 11.543 5.709000000000001 L 14.265999999999998 5.709000000000001 C 15.675999999999998 5.709000000000001 16.374 6.409000000000002 16.374 7.827000000000002 L 16.374 10.857000000000001 C 16.374 12.274000000000001 15.677 12.975000000000001 14.265999999999998 12.975000000000001 L 13.277999999999999 12.975000000000001 L 13.277999999999999 17.114 L 11.543 17.114 L 11.543 5.709 z M 6.813999999999999 5.709000000000001 L 10.672999999999998 5.709000000000001 L 10.672999999999998 7.2890000000000015 L 8.549 7.2890000000000015 L 8.549 10.514000000000001 L 10.591999999999999 10.514000000000001 L 10.591999999999999 12.094000000000001 L 8.549 12.094000000000001 L 8.549 15.532000000000002 L 10.706 15.532000000000002 L 10.706 17.112000000000002 L 6.814 17.112000000000002 L 6.814 5.709 z M 10.131 22.878 C 9.766 23.178 9.258000000000001 23.41 8.633000000000001 23.41 C 7.558000000000001 23.41 6.755000000000001 22.67 6.755000000000001 21.625 L 6.755000000000001 21.615 C 6.755000000000001 20.61 7.543000000000001 19.82 8.613000000000001 19.82 C 9.22 19.82 9.648000000000001 20.007 10.013000000000002 20.323 L 9.451000000000002 20.998 C 9.204000000000002 20.791 8.958000000000002 20.673000000000002 8.618000000000002 20.673000000000002 C 8.120000000000003 20.673000000000002 7.736000000000002 21.091 7.736000000000002 21.62 L 7.736000000000002 21.630000000000003 C 7.722733420546687 21.88414476936371 7.816494960436031 22.132232824496633 7.994536968744227 22.31407508911877 C 8.172578977052423 22.49591735374091 8.418631751932242 22.59489685382046 8.673000000000002 22.587000000000003 C 8.905000000000001 22.587000000000003 9.083000000000002 22.537000000000003 9.225000000000001 22.444000000000003 L 9.225000000000001 22.026000000000003 L 8.545000000000002 22.026000000000003 L 8.545000000000002 21.326000000000004 L 10.132000000000001 21.326000000000004 L 10.132000000000001 22.879000000000005 z M 11.896 19.866 L 12.818000000000001 19.866 L 14.286000000000001 23.341 L 13.261000000000001 23.341 L 13.009 22.724 L 11.677 22.724 L 11.43 23.341 L 10.425 23.341 L 11.893 19.866 L 11.895000000000001 19.866 z M 15.770000000000001 29.097 L 10.908000000000001 27.425 L 20.839 27.425 L 15.77 29.097 z M 21.717000000000002 23.342000000000002 L 18.917 23.342000000000002 L 18.917 19.892000000000003 L 21.692 19.892000000000003 L 21.692 20.705000000000002 L 19.864 20.705000000000002 L 19.864 21.228 L 21.521 21.228 L 21.521 21.983 L 19.864 21.983 L 19.864 22.53 L 21.718 22.53 L 21.718 23.343 L 21.718 23.341 z M 19.810000000000002 15.093000000000002 L 19.810000000000002 7.729 C 19.810000000000002 6.312 20.507 5.611000000000001 21.918000000000003 5.611000000000001 L 22.761000000000003 5.611000000000001 C 24.171000000000003 5.611000000000001 24.853 6.296000000000001 24.853 7.713000000000001 L 24.853 10.043000000000001 L 23.151000000000003 10.043000000000001 L 23.151000000000003 7.811 C 23.151000000000003 7.354 22.939000000000004 7.143 22.503000000000004 7.143 L 22.211000000000002 7.143 C 21.758000000000003 7.143 21.546000000000003 7.3549999999999995 21.546000000000003 7.811 L 21.546000000000003 15.011 C 21.546000000000003 15.468 21.758000000000003 15.678999999999998 22.211000000000002 15.678999999999998 L 22.536 15.678999999999998 C 22.974 15.678999999999998 23.184 15.466999999999999 23.184 15.011 L 23.184 12.437999999999999 L 24.886000000000003 12.437999999999999 L 24.886000000000003 15.092999999999998 C 24.886000000000003 16.509999999999998 24.189000000000004 17.212 22.778000000000002 17.212 L 21.918000000000003 17.212 C 20.508000000000003 17.212 19.810000000000002 16.512 19.810000000000002 15.093 z M 24.975 22.277 C 24.975 22.982 24.418000000000003 23.400000000000002 23.580000000000002 23.400000000000002 C 22.968000000000004 23.400000000000002 22.387 23.208000000000002 21.963 22.828000000000003 L 22.495 22.191000000000003 C 22.808718190398764 22.453769026151857 23.203795530537455 22.599714412088602 23.613 22.604000000000003 C 23.87 22.604000000000003 24.008 22.516000000000002 24.008 22.367000000000004 L 24.008 22.357000000000003 C 24.008 22.214000000000002 23.895 22.135 23.426 22.027000000000005 C 22.691 21.859000000000005 22.124 21.652000000000005 22.124 20.942000000000004 L 22.124 20.932000000000002 C 22.124 20.290000000000003 22.631999999999998 19.827 23.461 19.827 C 24.048 19.827 24.506 19.985000000000003 24.881 20.285 L 24.403 20.96 C 24.087999999999997 20.738 23.743 20.62 23.436 20.62 C 23.204 20.62 23.091 20.718 23.091 20.842000000000002 L 23.091 20.852000000000004 C 23.091 21.010000000000005 23.209 21.079000000000004 23.688000000000002 21.187000000000005 C 24.481 21.360000000000003 24.975 21.615000000000006 24.975 22.262000000000004 L 24.975 22.272000000000006 L 24.975 22.275000000000006 z" stroke-linecap="round" />
</g>
</svg>