<svg xmlns="http://www.w3.org/2000/svg" fill="none" viewBox="0 0 500 500" fill-rule="evenodd">
  <path d="m191.196 323.447-6.552 16.497h12.986l-6.434-16.497zm38.469-171.75v-48.161c0-7.677-3.528-11.222-10.886-11.222h-11.977v70.622h11.977c7.358 0 10.886-3.561 10.886-11.221v-.017zM426.175.19H73.79c-28.592 0-39.108 10.533-39.108 39.108v344.81l.42 9.02c.639 6.25.79 12.297 6.586 19.15a121.454 121.454 0 0 0 6.5 5.074l8.954 4.166 173.514 72.688c9.02 4.116 12.767 5.745 19.318 5.594h.05c6.552.134 10.298-1.478 19.32-5.594l173.513-72.688 8.954-4.166 6.5-5.073c5.796-6.888 5.93-12.935 6.586-19.15a88.697 88.697 0 0 0 .42-9.022V39.315c0-28.592-10.55-39.108-39.108-39.108h-.033V.19zM271.948 66.58h29.146v191.57h-29.146V66.579zm1.965 238.222h16.967v57.955h-15.992v-33.295L260.07 352.14h-.336l-14.732-22.51v33.126h-15.74v-57.955h16.966l13.826 22.46 13.825-22.46h.034zM177.656 66.579h45.743c23.686 0 35.411 11.759 35.411 35.58v50.9c0 23.803-11.708 35.579-35.411 35.579h-16.597v69.53h-29.146V66.578zm-79.44 0h64.825V93.12h-35.68v54.175h34.32v26.542h-34.32v57.754h36.235v26.542h-65.38V66.58zm55.72 288.416c-6.131 5.04-14.665 8.937-25.164 8.937-18.059 0-31.548-12.43-31.548-29.985v-.168c0-16.883 13.237-30.154 31.212-30.154 10.197 0 17.387 3.141 23.518 8.45l-9.44 11.339c-4.15-3.477-8.283-5.46-13.994-5.46-8.366 0-14.817 7.022-14.817 15.909v.168a15.287 15.287 0 0 0 15.74 16.076c3.898 0 6.888-.84 9.274-2.402v-7.022h-11.423v-11.76h26.66v26.09l-.018-.018zm29.65-50.597h15.488l24.66 58.375h-17.218l-4.233-10.365h-22.376l-4.15 10.365h-16.882l24.66-58.375h.052zm65.078 155.068L166.99 431.38h166.828l-85.153 28.087zm99.902-96.676H301.53v-57.955h46.616v13.657h-30.708v8.786h27.835v12.683h-27.835v9.188h31.145v13.658-.034l-.017.017zM316.53 224.218V100.512c0-23.804 11.708-35.58 35.411-35.58h14.162c23.686 0 35.142 11.508 35.142 35.311v39.141h-28.59V101.89c0-7.677-3.562-11.222-10.886-11.222h-4.906c-7.61 0-11.17 3.561-11.17 11.222v120.95c0 7.677 3.56 11.222 11.17 11.222h5.46c7.358 0 10.885-3.562 10.885-11.222v-43.223H401.8v44.6c0 23.804-11.709 35.597-35.412 35.597h-14.447c-23.686 0-35.411-11.759-35.411-35.596zm86.765 120.681c0 11.843-9.357 18.865-23.434 18.865-10.281 0-20.041-3.225-27.164-9.609l8.937-10.7a29.734 29.734 0 0 0 18.781 6.938c4.317 0 6.636-1.479 6.636-3.982v-.168c0-2.402-1.899-3.729-9.777-5.543-12.347-2.822-21.872-6.3-21.872-18.227v-.168c0-10.785 8.534-18.562 22.46-18.562 9.86 0 17.554 2.654 23.854 7.693l-8.03 11.34c-5.291-3.73-11.087-5.712-16.244-5.712-3.898 0-5.796 1.646-5.796 3.73v.167c0 2.654 1.982 3.814 10.029 5.628 13.321 2.906 21.62 7.19 21.62 18.058v.252z"/>
</svg>
