<svg width="500" height="500" xmlns="http://www.w3.org/2000/svg" xmlns:undefined="http://sodipodi.sourceforge.net/DTD/sodipodi-0.dtd" xmlns:undefined="http://www.inkscape.org/namespaces/inkscape" version="1.1" fill-rule="evenodd">

 <g>
  <title>Layer 1</title>
  <path id="path1" d="m191.19578,323.44745l-6.55149,16.49631l12.98538,0l-6.4339,-16.49631zm38.46898,-171.74972l0,-48.16182c0,-7.677 -3.52772,-11.22152 -10.88555,-11.22152l-11.97746,0l0,70.62166l11.97746,0c7.35782,0 10.88555,-3.56132 10.88555,-11.22152l0,-0.0168zm196.51098,-151.50731l-352.38595,0c-28.59136,0 -39.10733,10.53277 -39.10733,39.10733l0,344.80974l0.41997,9.02089c0.63835,6.24911 0.78954,12.29664 6.58508,19.1505a121.45447,121.45447 0 0 0 6.50109,5.0732l8.9537,4.16607l173.51358,72.6879c9.02089,4.11568 12.767,5.74515 19.31848,5.59396l0.0504,0c6.55149,0.13439 10.29759,-1.47828 19.31848,-5.59396l173.51358,-72.6879l8.9537,-4.16607l6.50109,-5.0732c5.79555,-6.88746 5.92993,-12.93498 6.58508,-19.1505a88.69704,88.69704 0 0 0 0.41997,-9.02089l0,-344.79294c0,-28.59136 -10.54957,-39.10733 -39.10733,-39.10733l-0.0336,0l0,-0.0168zm-154.2287,66.38839l29.14571,0l0,191.57217l-29.14571,0l0,-191.57217zm1.96545,238.22211l16.96667,0l0,57.95545l-15.99235,0l0,-33.29499l-14.81644,22.67822l-0.33597,0l-14.73244,-22.51023l0,33.127l-15.74036,0l0,-57.95545l16.96667,0l13.82532,22.45984l13.82532,-22.45984l0.0336,0zm-96.25645,-238.22211l45.74281,0c23.68614,0 35.41162,11.75908 35.41162,35.57961l0,50.90001c0,23.80373 -11.70868,35.57961 -35.41162,35.57961l-16.5971,0l0,69.52974l-29.14571,0l0,-191.58897zm-79.44097,0l64.82611,0l0,26.54192l-35.6804,0l0,54.17575l34.31971,0l0,26.54192l-34.31971,0l0,57.75387l36.23476,0l0,26.54192l-65.38047,0l0,-191.55537zm55.72123,288.41657c-6.13152,5.0396 -14.66525,8.9369 -25.16443,8.9369c-18.05858,0 -31.54792,-12.43102 -31.54792,-29.98565l0,-0.16799c0,-16.88268 13.23736,-30.15363 31.21195,-30.15363c10.1968,0 17.38664,3.14135 23.51815,8.44974l-9.44086,11.33911c-4.14927,-3.47733 -8.28175,-5.45957 -13.9933,-5.45957c-8.36574,0 -14.81644,7.02185 -14.81644,15.90835l0,0.16799a15.2868,15.2868 0 0 0 15.74036,16.07634c3.89729,0 6.88746,-0.83993 9.27287,-2.40221l0,-7.02185l-11.4231,0l0,-11.75908l26.65951,0l0,26.08835l-0.0168,-0.0168zm29.64967,-50.59763l15.48838,0l24.66046,58.37542l-17.21865,0l-4.23327,-10.36479l-22.37584,0l-4.14927,10.36479l-16.88268,0l24.66046,-58.37542l0.0336,0l0.0168,0zm65.07809,155.06863l-81.67519,-28.0874l166.82771,0l-85.15252,28.0874zm99.90176,-96.67641l-47.03631,0l0,-57.95545l46.61634,0l0,13.65733l-30.70799,0l0,8.78571l27.83542,0l0,12.683l-27.83542,0l0,9.18888l31.14476,0l0,13.65733l0,-0.0336l-0.0168,0.0168zm-32.03509,-138.57233l0,-123.70549c0,-23.80373 11.70868,-35.57961 35.41162,-35.57961l14.16129,0c23.68614,0 35.14284,11.5071 35.14284,35.31083l0,39.14093l-28.59136,0l0,-37.49466c0,-7.677 -3.56132,-11.22152 -10.88555,-11.22152l-4.90522,0c-7.6098,0 -11.17112,3.56132 -11.17112,11.22152l0,120.95051c0,7.677 3.56132,11.22152 11.17112,11.22152l5.45957,0c7.35782,0 10.88555,-3.56132 10.88555,-11.22152l0,-43.22301l28.59136,0l0,44.6005c0,23.80373 -11.70868,35.59641 -35.41162,35.59641l-14.44687,0c-23.68614,0 -35.41162,-11.75908 -35.41162,-35.59641zm86.76519,120.68173c0,11.84307 -9.35687,18.86492 -23.43416,18.86492c-10.28079,0 -20.04083,-3.22535 -27.16347,-9.60885l8.9369,-10.70076a29.73367,29.73367 0 0 0 18.78093,6.93786c4.31726,0 6.63548,-1.47828 6.63548,-3.98129l0,-0.16799c0,-2.40221 -1.89825,-3.72931 -9.77683,-5.54356c-12.34703,-2.82218 -21.87188,-6.29951 -21.87188,-18.22657l0,-0.16799c0,-10.78475 8.53373,-18.56254 22.45984,-18.56254c9.86083,0 17.55462,2.65419 23.85413,7.6938l-8.02977,11.33911c-5.29158,-3.72931 -11.08713,-5.71155 -16.24433,-5.71155c-3.89729,0 -5.79555,1.64627 -5.79555,3.72931l0,0.16799c0,2.65419 1.98224,3.8133 10.02881,5.62756c13.32135,2.90617 21.6199,7.18984 21.6199,18.05858l0,0.16799l0,0.0504l0,0.0336z"/>
 </g>
</svg>