<?xml version="1.0" encoding="UTF-8"?><svg id="Ebene_1" xmlns="http://www.w3.org/2000/svg" viewBox="0 0 499.35 499.35"><defs><style>.cls-1{fill-rule:evenodd;}</style></defs><g id="Ebene_1-2"><path id="Ellipse-Copy-Difference-Union-2" class="cls-1" d="M249.67,0C111.79,0,0,111.79,0,249.67s111.79,249.67,249.67,249.67,249.67-111.79,249.67-249.67S387.56,0,249.67,0ZM116.67,77.19h155.67c5.37-8.57,14.92-14.27,25.82-14.27,16.81,0,30.48,13.61,30.48,30.48s-13.67,30.43-30.48,30.43c-11.07,0-20.77-5.91-26.09-14.75H99.86V406.87c0,.33,0,.54-.05,.87,15.35,14.54,32.76,26.85,51.75,36.45v-129.42c0-.27,.05-.49,.05-.76s.05-.49,.11-.76,.11-.49,.16-.76c.05-.27,.11-.49,.16-.76,.05-.27,.16-.49,.22-.76s.16-.49,.27-.76,.22-.49,.27-.71c.11-.27,.22-.49,.33-.71,.11-.22,.27-.43,.33-.71,.11-.27,.27-.43,.38-.65,.16-.22,.27-.43,.38-.65,.16-.22,.33-.38,.43-.65,.16-.22,.33-.38,.43-.6,.16-.22,.33-.38,.49-.6,.16-.22,.33-.38,.49-.54s.33-.33,.54-.54c.22-.16,.38-.33,.6-.49,.22-.16,.38-.33,.6-.49,.22-.16,.38-.33,.6-.43,.22-.16,.43-.33,.65-.38,.22-.16,.43-.27,.65-.38,.27-.11,.43-.27,.71-.33s.43-.22,.71-.33c.27-.11,.49-.22,.71-.33,.27-.11,.49-.16,.76-.27s.49-.16,.76-.22,.49-.16,.76-.22c.27-.05,.49-.11,.76-.16s.49-.11,.76-.11,.49-.05,.76-.11c.27,0,.49-.05,.76-.05h53.81c5.37-8.57,14.92-14.27,25.82-14.27,16.81,0,30.48,13.61,30.48,30.48s-13.61,30.48-30.48,30.48c-11.07,0-20.77-5.91-26.09-14.75h-37.26v123.56c0,.71-.05,1.41-.16,2.12,21.05,6.62,43.39,10.25,66.5,10.25,20.72,0,40.79-2.87,59.77-8.3v-165c-8.52-5.37-14.16-14.86-14.16-25.71,0-16.81,13.61-30.48,30.48-30.48s30.48,13.61,30.48,30.48c0,11.12-5.97,20.88-14.92,26.2v152.64c14.65-6.78,28.42-15.19,41.12-24.95v-154.43c0-.27,.05-.49,.05-.76s.05-.49,.11-.76c.05-.27,.11-.49,.16-.76s.11-.49,.16-.76,.16-.49,.22-.76c.11-.27,.16-.49,.27-.76s.16-.49,.27-.76,.22-.49,.33-.71c.11-.22,.27-.43,.33-.71,.11-.27,.27-.43,.38-.65s.27-.43,.38-.65c.16-.22,.33-.43,.43-.65s.33-.38,.43-.6c.16-.22,.33-.38,.49-.6,.16-.22,.33-.38,.54-.54s.33-.33,.54-.54c.22-.16,.38-.33,.6-.49,.22-.16,.38-.33,.6-.49,.22-.16,.38-.33,.65-.43,.22-.16,.43-.33,.65-.38,.22-.11,.43-.27,.65-.38,.22-.16,.43-.27,.71-.33,.27-.11,.43-.22,.71-.33s.49-.22,.71-.33c.27-.11,.49-.22,.76-.27,.27-.11,.49-.16,.76-.22s.49-.11,.76-.22c.27-.05,.49-.11,.76-.16,.27-.05,.49-.05,.76-.11s.49-.05,.76-.05,.49-.05,.76-.05h69.43v-3.04c0-54.51-20.02-104.36-53.16-142.55v68.56c0,.27-.05,.49-.05,.81s-.05,.49-.11,.76c-.05,.27-.11,.49-.16,.76s-.11,.49-.16,.76-.16,.49-.22,.76c-.11,.27-.16,.49-.27,.76s-.22,.49-.33,.76c-.11,.27-.22,.49-.33,.71-.11,.27-.27,.43-.33,.71s-.27,.43-.38,.71c-.16,.27-.27,.43-.38,.65-.16,.22-.33,.43-.43,.65-.16,.22-.33,.38-.49,.6-.16,.22-.33,.38-.49,.6-.16,.22-.33,.38-.54,.54s-.38,.33-.54,.54c-.22,.22-.38,.33-.6,.49-.22,.16-.38,.33-.6,.49-.22,.16-.38,.33-.65,.43-.22,.16-.43,.33-.65,.38-.27,.16-.43,.27-.71,.38s-.43,.27-.71,.33c-.27,.11-.49,.22-.71,.33-.27,.11-.49,.22-.76,.33s-.49,.16-.76,.27-.49,.16-.76,.22-.49,.11-.76,.16c-.27,.05-.49,.11-.76,.16-.27,.05-.49,.05-.81,.11s-.49,.05-.81,.05H183.44v32.38c8.9,5.32,14.81,15.02,14.81,26.14,0,16.81-13.61,30.48-30.48,30.48s-30.38-13.67-30.38-30.54c0-10.85,5.64-20.39,14.16-25.76v-49.47c0-.27,.05-.49,.05-.76s.05-.49,.11-.76,.11-.49,.16-.76,.11-.49,.16-.76,.16-.49,.22-.76,.16-.49,.27-.76,.22-.49,.27-.71c.11-.27,.22-.49,.33-.71s.27-.43,.33-.71c.11-.27,.27-.43,.38-.71,.16-.27,.27-.43,.38-.65,.16-.22,.33-.43,.43-.65,.16-.22,.33-.38,.43-.6,.16-.22,.33-.38,.49-.6s.33-.38,.49-.54l.54-.54c.22-.22,.38-.33,.6-.49s.38-.33,.6-.49,.38-.33,.6-.43c.22-.16,.43-.33,.65-.38,.22-.16,.43-.27,.65-.38,.27-.11,.43-.27,.71-.33s.43-.22,.71-.33,.49-.22,.71-.33c.27-.11,.49-.22,.76-.27s.49-.16,.76-.22,.49-.16,.76-.22,.49-.11,.76-.16c.27-.05,.49-.11,.76-.11s.49-.05,.76-.05,.49-.05,.76-.05h215.45V78.7c0-.49,0-.98,.05-1.46-36.78-28.53-82.83-45.4-132.89-45.4s-96.28,16.92-133.05,45.35h0ZM31.84,249.67c0-44.42,13.29-85.76,36.12-120.15v240.34c-22.84-34.44-36.12-75.78-36.12-120.2h0Zm432.85,34.88h-50.44v107.72c25.98-29.83,43.88-66.83,50.44-107.72Z"/></g></svg>