<svg width="501" height="500" viewBox="0 0 501 500" fill="none" xmlns="http://www.w3.org/2000/svg">
<path d="M450.593 98.4596C405.407 39.0931 334.958 2.0942 260.865 0.6191C202.823 -0.536392 162.718 16.8643 140.028 30.8533C170.386 13.2888 214.313 3.32665 252.775 3.81675C351.719 5.07738 457.977 72.2895 473.759 193.451C491.876 332.534 394.779 448.614 258.177 448.965C107.895 449.35 16.4931 316.6 40.3819 197.364C41.5749 191.41 40.9794 185.618 42.9682 179.991C44.1066 159.026 52.0453 126.163 69.1707 92.5854C51.8672 101.517 29.8307 129.775 18.9504 155.95C3.26509 193.685 -2.2627 238.811 2.71338 281.744C3.08799 284.975 3.42729 288.198 3.85093 291.402C23.9788 409.483 126.785 499.379 250.602 499.379C388.86 499.379 500.94 387.299 500.94 249.042C500.94 192.512 482.195 140.365 450.593 98.4596Z" fill="url(#paint0_radial_120_67)"/>
<g opacity="0.67">
<path d="M450.593 98.4596C405.407 39.0931 334.958 2.0942 260.865 0.6191C202.823 -0.536392 162.718 16.8643 140.028 30.8533C170.386 13.2888 214.313 3.32665 252.775 3.81675C351.719 5.07738 457.977 72.2895 473.759 193.451C491.876 332.534 394.779 448.614 258.177 448.965C107.895 449.35 16.4931 316.6 40.3819 197.364C41.5749 191.41 40.9794 185.618 42.9682 179.991C44.1066 159.026 52.0453 126.163 69.1707 92.5854C51.8672 101.517 29.8307 129.775 18.9504 155.95C3.26509 193.685 -2.2627 238.811 2.71338 281.744C3.08799 284.975 3.42729 288.198 3.85093 291.402C23.9788 409.483 126.785 499.379 250.602 499.379C388.86 499.379 500.94 387.299 500.94 249.042C500.94 192.512 482.195 140.365 450.593 98.4596Z" fill="url(#paint1_radial_120_67)"/>
</g>
<path d="M450.593 98.4596C405.407 39.0931 334.958 2.0942 260.865 0.6191C202.823 -0.536392 162.718 16.8643 140.028 30.8533C170.386 13.2888 214.313 3.32665 252.775 3.81675C351.719 5.07738 457.977 72.2895 473.759 193.451C491.876 332.534 394.779 448.614 258.177 448.965C107.895 449.35 16.4931 316.6 40.3819 197.364C41.5749 191.41 40.9794 185.618 42.9682 179.991C44.1066 159.026 52.0453 126.163 69.1707 92.5854C51.8672 101.517 29.8307 129.775 18.9504 155.95C3.26509 193.685 -2.2627 238.811 2.71338 281.744C3.08799 284.975 3.42729 288.198 3.85093 291.402C23.9788 409.483 126.785 499.379 250.602 499.379C388.86 499.379 500.94 387.299 500.94 249.042C500.94 192.512 482.195 140.365 450.593 98.4596Z" fill="url(#paint2_radial_120_67)"/>
<path d="M450.593 98.4596C405.407 39.0931 334.958 2.0942 260.865 0.6191C202.823 -0.536392 162.718 16.8643 140.028 30.8533C170.386 13.2888 214.313 3.32665 252.775 3.81675C351.719 5.07738 457.977 72.2895 473.759 193.451C491.876 332.534 394.779 448.614 258.177 448.965C107.895 449.35 16.4931 316.6 40.3819 197.364C41.5749 191.41 40.9794 185.618 42.9682 179.991C44.1066 159.026 52.0453 126.163 69.1707 92.5854C51.8672 101.517 29.8307 129.775 18.9504 155.95C3.26509 193.685 -2.2627 238.811 2.71338 281.744C3.08799 284.975 3.42729 288.198 3.85093 291.402C23.9788 409.483 126.785 499.379 250.602 499.379C388.86 499.379 500.94 387.299 500.94 249.042C500.94 192.512 482.195 140.365 450.593 98.4596Z" fill="url(#paint3_radial_120_67)"/>
<path d="M450.593 98.4596C405.407 39.0931 334.958 2.0942 260.865 0.6191C202.823 -0.536392 162.718 16.8643 140.028 30.8533C170.386 13.2888 214.313 3.32665 252.775 3.81675C351.719 5.07738 457.977 72.2895 473.759 193.451C491.876 332.534 394.779 448.614 258.177 448.965C107.895 449.35 16.4931 316.6 40.3819 197.364C41.5749 191.41 40.9794 185.618 42.9682 179.991C44.1066 159.026 52.0453 126.163 69.1707 92.5854C51.8672 101.517 29.8307 129.775 18.9504 155.95C3.26509 193.685 -2.2627 238.811 2.71338 281.744C3.08799 284.975 3.42729 288.198 3.85093 291.402C23.9788 409.483 126.785 499.379 250.602 499.379C388.86 499.379 500.94 387.299 500.94 249.042C500.94 192.512 482.195 140.365 450.593 98.4596Z" fill="url(#paint4_radial_120_67)"/>
<path d="M473.759 193.451C475.76 208.81 476.35 223.913 475.643 238.633C483.932 237.406 492.237 236.294 500.558 235.331C497.791 184.094 479.623 136.954 450.593 98.4596C405.407 39.0931 334.958 2.0942 260.865 0.6191C202.823 -0.536392 162.718 16.8643 140.028 30.8533C170.387 13.2888 214.313 3.32665 252.775 3.81675C351.719 5.07738 457.977 72.2895 473.759 193.451Z" fill="url(#paint5_linear_120_67)"/>
<path d="M479.845 186.534C465.776 59.9117 352.583 2.99574 252.775 3.81636C214.312 4.13261 170.387 13.2884 140.028 30.8529C125.847 39.5958 118.469 47.0004 117.78 47.7077C118.585 47.0412 120.99 45.066 124.979 42.3345C125.11 42.2433 125.242 42.1539 125.373 42.0631C125.486 41.9861 125.605 41.9071 125.72 41.829C140.192 31.851 156.525 24.6042 173.797 19.5549C200.174 11.8435 228.734 9.2555 256.192 9.94388C369.072 16.4378 448.73 109.905 451.503 209.396C453.798 291.738 386.239 357.406 308.364 361.209C251.728 363.975 198.378 336.634 172.304 281.937C166.504 269.769 162.25 257.401 160.031 242.45C147.678 159.21 203.71 88.2236 255.093 70.6493C227.369 46.4929 157.916 48.1314 106.222 86.0708C68.9948 113.393 44.8451 154.964 36.8442 204.559C30.7441 242.371 36.4893 281.694 51.4698 316.813C66.7342 352.598 91.5588 384.146 122.768 407.376C156.659 432.602 197.469 447.281 239.531 450.478C245.734 450.949 251.956 451.18 258.177 451.18C423.568 451.18 495.334 325.934 479.845 186.534Z" fill="url(#paint6_radial_120_67)"/>
<path d="M479.845 186.534C465.776 59.9117 352.583 2.99574 252.775 3.81636C214.312 4.13261 170.387 13.2884 140.028 30.8529C125.847 39.5958 118.469 47.0004 117.78 47.7077C118.585 47.0412 120.99 45.066 124.979 42.3345C125.11 42.2433 125.242 42.1539 125.373 42.0631C125.486 41.9861 125.605 41.9071 125.72 41.829C140.192 31.851 156.525 24.6042 173.797 19.5549C200.174 11.8435 228.734 9.2555 256.192 9.94388C369.072 16.4378 448.73 109.905 451.503 209.396C453.798 291.738 386.239 357.406 308.364 361.209C251.728 363.975 198.378 336.634 172.304 281.937C166.504 269.769 162.25 257.401 160.031 242.45C147.678 159.21 203.71 88.2236 255.093 70.6493C227.369 46.4929 157.916 48.1314 106.222 86.0708C68.9948 113.393 44.8451 154.964 36.8442 204.559C30.7441 242.371 36.4893 281.694 51.4698 316.813C66.7342 352.598 91.5588 384.146 122.768 407.376C156.659 432.602 197.469 447.281 239.531 450.478C245.734 450.949 251.956 451.18 258.177 451.18C423.568 451.18 495.334 325.934 479.845 186.534Z" fill="url(#paint7_radial_120_67)"/>
<path opacity="0.53" d="M479.845 186.534C465.776 59.9117 352.583 2.99574 252.775 3.81636C214.312 4.13261 170.387 13.2884 140.028 30.8529C125.847 39.5958 118.469 47.0004 117.78 47.7077C118.585 47.0412 120.99 45.066 124.979 42.3345C125.11 42.2433 125.242 42.1539 125.373 42.0631C125.486 41.9861 125.605 41.9071 125.72 41.829C140.192 31.851 156.525 24.6042 173.797 19.5549C200.174 11.8435 228.734 9.2555 256.192 9.94388C369.072 16.4378 448.73 109.905 451.503 209.396C453.798 291.738 386.239 357.406 308.364 361.209C251.728 363.975 198.378 336.634 172.304 281.937C166.504 269.769 162.25 257.401 160.031 242.45C147.678 159.21 203.71 88.2236 255.093 70.6493C227.369 46.4929 157.916 48.1314 106.222 86.0708C68.9948 113.393 44.8451 154.964 36.8442 204.559C30.7441 242.371 36.4893 281.694 51.4698 316.813C66.7342 352.598 91.5588 384.146 122.768 407.376C156.659 432.602 197.469 447.281 239.531 450.478C245.734 450.949 251.956 451.18 258.177 451.18C423.568 451.18 495.334 325.934 479.845 186.534Z" fill="url(#paint8_radial_120_67)"/>
<path opacity="0.53" d="M479.845 186.534C465.776 59.9117 352.583 2.99574 252.775 3.81636C214.312 4.13261 170.387 13.2884 140.028 30.8529C125.847 39.5958 118.469 47.0004 117.78 47.7077C118.585 47.0412 120.99 45.066 124.979 42.3345C125.11 42.2433 125.242 42.1539 125.373 42.0631C125.486 41.9861 125.605 41.9071 125.72 41.829C140.192 31.851 156.525 24.6042 173.797 19.5549C200.174 11.8435 228.734 9.2555 256.192 9.94388C369.072 16.4378 448.73 109.905 451.503 209.396C453.798 291.738 386.239 357.406 308.364 361.209C251.728 363.975 198.378 336.634 172.304 281.937C166.504 269.769 162.25 257.401 160.031 242.45C147.678 159.21 203.71 88.2236 255.093 70.6493C227.369 46.4929 157.916 48.1314 106.222 86.0708C68.9948 113.393 44.8451 154.964 36.8442 204.559C30.7441 242.371 36.4893 281.694 51.4698 316.813C66.7342 352.598 91.5588 384.146 122.768 407.376C156.659 432.602 197.469 447.281 239.531 450.478C245.734 450.949 251.956 451.18 258.177 451.18C423.568 451.18 495.334 325.934 479.845 186.534Z" fill="url(#paint9_radial_120_67)"/>
<path d="M308.364 361.21C415.255 354.724 460.991 266.459 463.857 203.801C468.334 105.957 410.139 0.438216 256.192 9.94437C228.734 9.25599 200.174 11.844 173.797 19.5554C150.674 26.6096 134.614 35.8326 125.72 41.8295C125.605 41.9089 125.487 41.9839 125.373 42.0636C125.234 42.1575 125.114 42.2429 124.979 42.335C122.586 44.0083 120.245 45.759 117.959 47.5858C122.239 44.6644 175.329 13.3864 249.088 23.0435C337.451 34.6126 418.268 103.211 418.268 193.721C418.268 263.36 364.32 316.525 301.156 312.73C207.31 307.091 183.679 211.088 232.475 169.608C219.311 166.78 194.572 172.318 177.348 198.009C161.893 221.061 162.766 256.681 172.304 281.938C198.378 336.635 251.764 364.644 308.364 361.21Z" fill="url(#paint10_radial_120_67)"/>
<path d="M450.592 98.4598C443.892 89.655 436.574 81.4082 428.831 73.6308C422.62 67.0558 415.964 60.9977 408.974 55.3869C413.002 58.9086 416.879 62.6052 420.528 66.5443C434.065 81.158 444.786 98.4221 451.039 117.323C464.096 156.788 463.244 206.176 438.317 244.967C408.611 291.191 360.251 314.01 307.973 312.898C305.713 312.908 303.443 312.867 301.156 312.73C207.311 307.09 183.679 211.088 232.476 169.609C219.31 166.78 194.573 172.319 177.349 198.009C161.894 221.061 162.766 256.681 172.305 281.937C166.504 269.77 162.25 257.402 160.032 242.451C147.679 159.211 203.711 88.2235 255.094 70.6494C227.37 46.4936 157.917 48.1321 106.222 86.0713C76.1002 108.179 54.5494 139.621 43.1773 177.088C44.849 156.065 52.809 124.666 69.1698 92.5855C51.868 101.516 29.8301 129.775 18.9517 155.949C3.26635 193.685 -2.26251 238.811 2.7128 281.744C3.08921 284.975 3.42798 288.198 3.8509 291.403C23.978 409.483 126.785 499.379 250.603 499.379C388.86 499.379 500.941 387.299 500.941 249.042C500.941 192.512 482.195 140.366 450.592 98.4598Z" fill="url(#paint11_linear_120_67)"/>
<path d="M451.039 117.323C444.786 98.4216 434.065 81.1573 420.527 66.5448C404.577 49.329 384.714 36.2471 363.688 26.0592C345.799 17.3918 327.117 10.5514 307.81 6.30073C273.229 -1.31283 236.948 -1.17781 204.278 5.69814C168.76 13.1734 137.526 28.5075 117.773 47.6779C132.585 38.6991 153.245 31.4171 167.967 27.7062C236.283 10.4858 311.509 29.1378 362.797 78.2078C373.109 88.0734 382.356 99.1125 389.853 111.272C420.45 160.896 417.555 223.283 393.7 260.078C375.978 287.412 338.029 313.054 302.621 312.776C356.942 315.619 407.598 292.768 438.316 244.967C463.244 206.176 464.096 156.788 451.039 117.323Z" fill="url(#paint12_linear_120_67)"/>
<path d="M451.039 117.323C444.786 98.4216 434.065 81.1573 420.527 66.5448C404.577 49.329 384.714 36.2471 363.688 26.0592C345.799 17.3918 327.117 10.5514 307.81 6.30073C273.229 -1.31283 236.948 -1.17781 204.278 5.69814C168.76 13.1734 137.526 28.5075 117.773 47.6779C132.585 38.6991 153.245 31.4171 167.967 27.7062C236.283 10.4858 311.509 29.1378 362.797 78.2078C373.109 88.0734 382.356 99.1125 389.853 111.272C420.45 160.896 417.555 223.283 393.7 260.078C375.978 287.412 338.029 313.054 302.621 312.776C356.942 315.619 407.598 292.768 438.316 244.967C463.244 206.176 464.096 156.788 451.039 117.323Z" fill="url(#paint13_linear_120_67)"/>
<defs>
<radialGradient id="paint0_radial_120_67" cx="0" cy="0" r="1" gradientUnits="userSpaceOnUse" gradientTransform="translate(448.011 95.0542) scale(567.375 567.375)">
<stop stop-color="#FFF44F"/>
<stop offset="0.294852" stop-color="#FF980E"/>
<stop offset="0.431521" stop-color="#FF5D36"/>
<stop offset="0.530208" stop-color="#FF3750"/>
<stop offset="0.749319" stop-color="#F5156C"/>
<stop offset="0.76479" stop-color="#F1136E"/>
<stop offset="0.880096" stop-color="#DA057A"/>
<stop offset="0.952784" stop-color="#D2007F"/>
</radialGradient>
<radialGradient id="paint1_radial_120_67" cx="0" cy="0" r="1" gradientUnits="userSpaceOnUse" gradientTransform="translate(42.3746 118.526) scale(335.788 335.788)">
<stop stop-color="#B5007F"/>
<stop offset="1" stop-color="#F5156C" stop-opacity="0"/>
</radialGradient>
<radialGradient id="paint2_radial_120_67" cx="0" cy="0" r="1" gradientUnits="userSpaceOnUse" gradientTransform="translate(496.512 62.7703) scale(666.245 666.245)">
<stop stop-color="#FFDD00" stop-opacity="0.6"/>
<stop offset="0.0836672" stop-color="#FFD801" stop-opacity="0.524402"/>
<stop offset="0.182244" stop-color="#FECA05" stop-opacity="0.435332"/>
<stop offset="0.288366" stop-color="#FEB20C" stop-opacity="0.339445"/>
<stop offset="0.399791" stop-color="#FD9115" stop-opacity="0.238766"/>
<stop offset="0.515404" stop-color="#FB6621" stop-opacity="0.134303"/>
<stop offset="0.632872" stop-color="#F9332F" stop-opacity="0.028164"/>
<stop offset="0.664042" stop-color="#F92433" stop-opacity="0"/>
</radialGradient>
<radialGradient id="paint3_radial_120_67" cx="0" cy="0" r="1" gradientUnits="userSpaceOnUse" gradientTransform="translate(265.221 278.091) scale(859.509)">
<stop offset="0.152849" stop-color="#960E18"/>
<stop offset="0.20613" stop-color="#CC2335" stop-opacity="0.554139"/>
<stop offset="0.249478" stop-color="#F13148" stop-opacity="0.191404"/>
<stop offset="0.272351" stop-color="#FF3750" stop-opacity="0"/>
</radialGradient>
<radialGradient id="paint4_radial_120_67" cx="0" cy="0" r="1" gradientUnits="userSpaceOnUse" gradientTransform="translate(200.179 267.283) scale(859.509)">
<stop offset="0.112906" stop-color="#960E18"/>
<stop offset="0.189346" stop-color="#CC2335" stop-opacity="0.554139"/>
<stop offset="0.251535" stop-color="#F13148" stop-opacity="0.191404"/>
<stop offset="0.28435" stop-color="#FF3750" stop-opacity="0"/>
</radialGradient>
<linearGradient id="paint5_linear_120_67" x1="287.382" y1="49.0435" x2="434.446" y2="303.766" gradientUnits="userSpaceOnUse">
<stop stop-color="#FFBC04"/>
<stop offset="0.259693" stop-color="#FFA202" stop-opacity="0.488604"/>
<stop offset="0.507812" stop-color="#FF8E00" stop-opacity="0"/>
</linearGradient>
<radialGradient id="paint6_radial_120_67" cx="0" cy="0" r="1" gradientUnits="userSpaceOnUse" gradientTransform="translate(436.106 75.8845) scale(532.548 532.548)">
<stop stop-color="#FF980E"/>
<stop offset="0.295012" stop-color="#FF7139"/>
<stop offset="0.484646" stop-color="#FF5B51"/>
<stop offset="0.626002" stop-color="#FF4F5E"/>
<stop offset="0.73652" stop-color="#FF4055"/>
<stop offset="0.842829" stop-color="#FF3750"/>
</radialGradient>
<radialGradient id="paint7_radial_120_67" cx="0" cy="0" r="1" gradientUnits="userSpaceOnUse" gradientTransform="translate(436.106 75.8845) scale(532.548 532.548)">
<stop offset="0.0840745" stop-color="#FFDE08"/>
<stop offset="0.208103" stop-color="#FFD609" stop-opacity="0.832008"/>
<stop offset="0.40327" stop-color="#FFBF0B" stop-opacity="0.567662"/>
<stop offset="0.643689" stop-color="#FF9B0F" stop-opacity="0.242024"/>
<stop offset="0.822376" stop-color="#FF7B12" stop-opacity="0"/>
</radialGradient>
<radialGradient id="paint8_radial_120_67" cx="0" cy="0" r="1" gradientUnits="userSpaceOnUse" gradientTransform="translate(313.07 241.557) rotate(75.6865) scale(261.186 272.573)">
<stop offset="0.363381" stop-color="#FF3750"/>
<stop offset="0.411136" stop-color="#FF444B" stop-opacity="0.789478"/>
<stop offset="0.590223" stop-color="#FF7139" stop-opacity="0"/>
</radialGradient>
<radialGradient id="paint9_radial_120_67" cx="0" cy="0" r="1" gradientUnits="userSpaceOnUse" gradientTransform="translate(268.05 263.676) rotate(75.6865) scale(261.186 261.415)">
<stop offset="0.215889" stop-color="#FF3750" stop-opacity="0.8"/>
<stop offset="0.270209" stop-color="#FF444B" stop-opacity="0.631583"/>
<stop offset="0.473917" stop-color="#FF7139" stop-opacity="0"/>
</radialGradient>
<radialGradient id="paint10_radial_120_67" cx="0" cy="0" r="1" gradientUnits="userSpaceOnUse" gradientTransform="translate(542.388 15.7284) scale(900.103 900.103)">
<stop offset="0.0535657" stop-color="#FFF44F"/>
<stop offset="0.457272" stop-color="#FF980E"/>
<stop offset="0.52105" stop-color="#FF8424"/>
<stop offset="0.587052" stop-color="#FF7634"/>
<stop offset="0.639343" stop-color="#FF7139"/>
</radialGradient>
<linearGradient id="paint11_linear_120_67" x1="369.821" y1="44.5674" x2="114.644" y2="486.547" gradientUnits="userSpaceOnUse">
<stop stop-color="#FFF44F" stop-opacity="0.8"/>
<stop offset="0.75" stop-color="#FFF44F" stop-opacity="0"/>
</linearGradient>
<linearGradient id="paint12_linear_120_67" x1="288.579" y1="314.291" x2="288.579" y2="3.72754" gradientUnits="userSpaceOnUse">
<stop stop-color="#3A8EE6"/>
<stop offset="0.235934" stop-color="#5C79F0"/>
<stop offset="0.629327" stop-color="#9059FF"/>
<stop offset="1" stop-color="#C139E6"/>
</linearGradient>
<linearGradient id="paint13_linear_120_67" x1="174.293" y1="2.30375" x2="426.291" y2="254.302" gradientUnits="userSpaceOnUse">
<stop offset="0.805429" stop-color="#9059FF" stop-opacity="0"/>
<stop offset="1" stop-color="#6E008B" stop-opacity="0.5"/>
</linearGradient>
</defs>
</svg>
