<svg width="500" height="500" viewBox="0 0 500 500" fill="none" xmlns="http://www.w3.org/2000/svg">
<g clip-path="url(#clip0_1_7)">
<path d="M449.654 98.1278C404.468 38.6202 334.019 1.53338 259.925 0.0547762C201.883 -1.10346 161.778 16.3386 139.088 30.3608C169.446 12.7546 213.373 2.76876 251.835 3.26003C350.78 4.52365 457.038 71.8955 472.82 193.345C490.937 332.758 393.84 449.114 257.237 449.466C106.955 449.852 15.5524 316.787 39.4413 197.267C40.6343 191.299 40.0388 185.493 42.0276 179.853C43.166 158.838 51.1048 125.897 68.2302 92.2396C50.9267 101.192 28.8901 129.518 18.0097 155.755C2.32437 193.58 -3.20344 238.813 1.77266 281.848C2.14727 285.086 2.48657 288.317 2.91021 291.529C23.0382 409.89 125.845 500 249.662 500C387.921 500 500.001 387.654 500.001 249.068C500.001 192.404 481.256 140.133 449.654 98.1278Z" fill="url(#paint0_radial_1_7)"/>
<g opacity="0.67">
<path d="M449.654 98.1278C404.468 38.6202 334.019 1.53338 259.925 0.0547762C201.883 -1.10346 161.778 16.3386 139.088 30.3608C169.446 12.7546 213.373 2.76876 251.835 3.26003C350.78 4.52365 457.038 71.8955 472.82 193.345C490.937 332.758 393.84 449.114 257.237 449.466C106.955 449.852 15.5524 316.787 39.4413 197.267C40.6343 191.299 40.0388 185.493 42.0276 179.853C43.166 158.838 51.1048 125.897 68.2302 92.2396C50.9267 101.192 28.8901 129.518 18.0097 155.755C2.32437 193.58 -3.20344 238.813 1.77266 281.848C2.14727 285.086 2.48657 288.317 2.91021 291.529C23.0382 409.89 125.845 500 249.662 500C387.921 500 500.001 387.654 500.001 249.068C500.001 192.404 481.256 140.133 449.654 98.1278Z" fill="url(#paint1_radial_1_7)"/>
</g>
<path d="M449.654 98.1278C404.468 38.6202 334.019 1.53338 259.925 0.0547762C201.883 -1.10346 161.778 16.3386 139.088 30.3608C169.446 12.7546 213.373 2.76876 251.835 3.26003C350.78 4.52365 457.038 71.8955 472.82 193.345C490.937 332.758 393.84 449.114 257.237 449.466C106.955 449.852 15.5524 316.787 39.4413 197.267C40.6343 191.299 40.0388 185.493 42.0276 179.853C43.166 158.838 51.1048 125.897 68.2302 92.2396C50.9267 101.192 28.8901 129.518 18.0097 155.755C2.32437 193.58 -3.20344 238.813 1.77266 281.848C2.14727 285.086 2.48657 288.317 2.91021 291.529C23.0382 409.89 125.845 500 249.662 500C387.921 500 500.001 387.654 500.001 249.068C500.001 192.404 481.256 140.133 449.654 98.1278Z" fill="url(#paint2_radial_1_7)"/>
<path d="M449.654 98.1278C404.468 38.6202 334.019 1.53338 259.925 0.0547762C201.883 -1.10346 161.778 16.3386 139.088 30.3608C169.446 12.7546 213.373 2.76876 251.835 3.26003C350.78 4.52365 457.038 71.8955 472.82 193.345C490.937 332.758 393.84 449.114 257.237 449.466C106.955 449.852 15.5524 316.787 39.4413 197.267C40.6343 191.299 40.0388 185.493 42.0276 179.853C43.166 158.838 51.1048 125.897 68.2302 92.2396C50.9267 101.192 28.8901 129.518 18.0097 155.755C2.32437 193.58 -3.20344 238.813 1.77266 281.848C2.14727 285.086 2.48657 288.317 2.91021 291.529C23.0382 409.89 125.845 500 249.662 500C387.921 500 500.001 387.654 500.001 249.068C500.001 192.404 481.256 140.133 449.654 98.1278Z" fill="url(#paint3_radial_1_7)"/>
<path d="M449.654 98.1278C404.468 38.6202 334.019 1.53338 259.925 0.0547762C201.883 -1.10346 161.778 16.3386 139.088 30.3608C169.446 12.7546 213.373 2.76876 251.835 3.26003C350.78 4.52365 457.038 71.8955 472.82 193.345C490.937 332.758 393.84 449.114 257.237 449.466C106.955 449.852 15.5524 316.787 39.4413 197.267C40.6343 191.299 40.0388 185.493 42.0276 179.853C43.166 158.838 51.1048 125.897 68.2302 92.2396C50.9267 101.192 28.8901 129.518 18.0097 155.755C2.32437 193.58 -3.20344 238.813 1.77266 281.848C2.14727 285.086 2.48657 288.317 2.91021 291.529C23.0382 409.89 125.845 500 249.662 500C387.921 500 500.001 387.654 500.001 249.068C500.001 192.404 481.256 140.133 449.654 98.1278Z" fill="url(#paint4_radial_1_7)"/>
<path d="M472.82 193.345C474.821 208.74 475.411 223.879 474.704 238.634C482.993 237.404 491.298 236.29 499.619 235.324C496.852 183.966 478.684 136.714 449.654 98.1278C404.468 38.6202 334.019 1.53338 259.925 0.0547762C201.883 -1.10346 161.778 16.3386 139.088 30.3608C169.447 12.7546 213.373 2.76876 251.835 3.26003C350.78 4.52365 457.038 71.8955 472.82 193.345Z" fill="url(#paint5_linear_1_7)"/>
<path d="M478.906 186.412C464.837 59.4883 351.644 2.43711 251.835 3.25968C213.372 3.57668 169.447 12.7542 139.088 30.3605C124.907 39.1241 117.529 46.5463 116.84 47.2553C117.645 46.5872 120.05 44.6073 124.039 41.8694C124.17 41.7779 124.302 41.6883 124.433 41.5973C124.546 41.5201 124.665 41.4409 124.78 41.3627C139.252 31.3609 155.585 24.0969 172.857 19.0356C199.234 11.3059 227.794 8.71175 255.252 9.40176C368.133 15.9111 447.791 109.6 450.564 209.328C452.859 291.866 385.3 357.69 307.425 361.502C250.788 364.274 197.438 336.868 171.364 282.041C165.564 269.844 161.31 257.447 159.091 242.46C146.738 159.023 202.77 87.8675 254.153 70.2514C226.429 46.0376 156.976 47.68 105.282 85.7096C68.0543 113.097 43.9045 154.767 35.9036 204.479C29.8035 242.381 35.5487 281.798 50.5293 317C65.7937 352.87 90.6184 384.493 121.828 407.778C155.719 433.064 196.529 447.778 238.591 450.983C244.794 451.455 251.016 451.686 257.237 451.686C422.629 451.686 494.395 326.143 478.906 186.412Z" fill="url(#paint6_radial_1_7)"/>
<path d="M478.906 186.412C464.837 59.4883 351.644 2.43711 251.835 3.25968C213.372 3.57668 169.447 12.7542 139.088 30.3605C124.907 39.1241 117.529 46.5463 116.84 47.2553C117.645 46.5872 120.05 44.6073 124.039 41.8694C124.17 41.7779 124.302 41.6883 124.433 41.5973C124.546 41.5201 124.665 41.4409 124.78 41.3627C139.252 31.3609 155.585 24.0969 172.857 19.0356C199.234 11.3059 227.794 8.71175 255.252 9.40176C368.133 15.9111 447.791 109.6 450.564 209.328C452.859 291.866 385.3 357.69 307.425 361.502C250.788 364.274 197.438 336.868 171.364 282.041C165.564 269.844 161.31 257.447 159.091 242.46C146.738 159.023 202.77 87.8675 254.153 70.2514C226.429 46.0376 156.976 47.68 105.282 85.7096C68.0543 113.097 43.9045 154.767 35.9036 204.479C29.8035 242.381 35.5487 281.798 50.5293 317C65.7937 352.87 90.6184 384.493 121.828 407.778C155.719 433.064 196.529 447.778 238.591 450.983C244.794 451.455 251.016 451.686 257.237 451.686C422.629 451.686 494.395 326.143 478.906 186.412Z" fill="url(#paint7_radial_1_7)"/>
<path opacity="0.53" d="M478.906 186.412C464.837 59.4883 351.644 2.43711 251.835 3.25968C213.372 3.57668 169.447 12.7542 139.088 30.3605C124.907 39.1241 117.529 46.5463 116.84 47.2553C117.645 46.5872 120.05 44.6073 124.039 41.8694C124.17 41.7779 124.302 41.6883 124.433 41.5973C124.546 41.5201 124.665 41.4409 124.78 41.3627C139.252 31.3609 155.585 24.0969 172.857 19.0356C199.234 11.3059 227.794 8.71175 255.252 9.40176C368.133 15.9111 447.791 109.6 450.564 209.328C452.859 291.866 385.3 357.69 307.425 361.502C250.788 364.274 197.438 336.868 171.364 282.041C165.564 269.844 161.31 257.447 159.091 242.46C146.738 159.023 202.77 87.8675 254.153 70.2514C226.429 46.0376 156.976 47.68 105.282 85.7096C68.0543 113.097 43.9045 154.767 35.9036 204.479C29.8035 242.381 35.5487 281.798 50.5293 317C65.7937 352.87 90.6184 384.493 121.828 407.778C155.719 433.064 196.529 447.778 238.591 450.983C244.794 451.455 251.016 451.686 257.237 451.686C422.629 451.686 494.395 326.143 478.906 186.412Z" fill="url(#paint8_radial_1_7)"/>
<path opacity="0.53" d="M478.906 186.412C464.837 59.4883 351.644 2.43711 251.835 3.25968C213.372 3.57668 169.447 12.7542 139.088 30.3605C124.907 39.1241 117.529 46.5463 116.84 47.2553C117.645 46.5872 120.05 44.6073 124.039 41.8694C124.17 41.7779 124.302 41.6883 124.433 41.5973C124.546 41.5201 124.665 41.4409 124.78 41.3627C139.252 31.3609 155.585 24.0969 172.857 19.0356C199.234 11.3059 227.794 8.71175 255.252 9.40176C368.133 15.9111 447.791 109.6 450.564 209.328C452.859 291.866 385.3 357.69 307.425 361.502C250.788 364.274 197.438 336.868 171.364 282.041C165.564 269.844 161.31 257.447 159.091 242.46C146.738 159.023 202.77 87.8675 254.153 70.2514C226.429 46.0376 156.976 47.68 105.282 85.7096C68.0543 113.097 43.9045 154.767 35.9036 204.479C29.8035 242.381 35.5487 281.798 50.5293 317C65.7937 352.87 90.6184 384.493 121.828 407.778C155.719 433.064 196.529 447.778 238.591 450.983C244.794 451.455 251.016 451.686 257.237 451.686C422.629 451.686 494.395 326.143 478.906 186.412Z" fill="url(#paint9_radial_1_7)"/>
<path d="M307.425 361.503C414.316 355.001 460.052 266.526 462.918 203.72C467.395 105.643 409.2 -0.126533 255.252 9.40221C227.794 8.7122 199.234 11.3064 172.857 19.0361C149.734 26.107 133.674 35.352 124.78 41.3631C124.665 41.4427 124.547 41.5179 124.433 41.5978C124.294 41.6919 124.174 41.7775 124.039 41.8698C121.646 43.5471 119.305 45.302 117.019 47.1331C121.299 44.2048 174.389 12.8524 248.148 22.5325C336.512 34.1291 417.329 102.89 417.329 193.616C417.329 263.42 363.381 316.711 300.217 312.907C206.37 307.255 182.739 211.024 231.535 169.445C218.371 166.611 193.632 172.162 176.408 197.914C160.953 221.021 161.826 256.725 171.364 282.042C197.438 336.869 250.824 364.945 307.425 361.503Z" fill="url(#paint10_radial_1_7)"/>
<path d="M449.653 98.128C442.953 89.3023 435.635 81.0359 427.892 73.24C421.681 66.6494 415.025 60.5769 408.035 54.9527C412.063 58.4828 415.94 62.1882 419.589 66.1366C433.126 80.7851 443.847 98.0902 450.1 117.036C463.157 156.595 462.305 206.1 437.378 244.983C407.672 291.317 359.312 314.19 307.033 313.076C304.773 313.086 302.503 313.045 300.216 312.907C206.371 307.254 182.739 211.024 231.536 169.446C218.37 166.611 193.633 172.163 176.409 197.914C160.954 221.021 161.826 256.725 171.365 282.041C165.564 269.845 161.31 257.448 159.092 242.461C146.739 159.024 202.771 87.8674 254.154 70.2515C226.43 46.0383 156.977 47.6807 105.282 85.7101C75.1598 107.87 53.6089 139.387 42.2367 176.943C43.9084 155.87 51.8685 124.396 68.2293 92.2397C50.9275 101.191 28.8895 129.518 18.011 155.754C2.32562 193.58 -3.20326 238.813 1.77207 281.848C2.14848 285.086 2.48726 288.317 2.91018 291.53C23.0374 409.89 125.845 500 249.663 500C387.921 500 500.002 387.654 500.002 249.068C500.002 192.404 481.256 140.134 449.653 98.128Z" fill="url(#paint11_linear_1_7)"/>
<path d="M450.1 117.036C443.847 98.0897 433.126 80.7844 419.588 66.1372C403.638 48.8804 383.775 35.7674 362.749 25.5553C344.86 16.8673 326.178 10.0107 306.871 5.74991C272.289 -1.88175 236.008 -1.7464 203.338 5.14589C167.82 12.6389 136.586 28.0095 116.833 47.2254C131.645 38.2253 152.305 30.926 167.027 27.2063C235.343 9.94493 310.57 28.6413 361.858 77.8279C372.17 87.7169 381.417 98.7823 388.914 110.971C419.511 160.713 416.616 223.248 392.761 260.13C375.039 287.529 337.09 313.232 301.682 312.954C356.003 315.803 406.659 292.898 437.377 244.983C462.305 206.1 463.157 156.595 450.1 117.036Z" fill="url(#paint12_linear_1_7)"/>
<path d="M450.1 117.036C443.847 98.0897 433.126 80.7844 419.588 66.1372C403.638 48.8804 383.775 35.7674 362.749 25.5553C344.86 16.8673 326.178 10.0107 306.871 5.74991C272.289 -1.88175 236.008 -1.7464 203.338 5.14589C167.82 12.6389 136.586 28.0095 116.833 47.2254C131.645 38.2253 152.305 30.926 167.027 27.2063C235.343 9.94493 310.57 28.6413 361.858 77.8279C372.17 87.7169 381.417 98.7823 388.914 110.971C419.511 160.713 416.616 223.248 392.761 260.13C375.039 287.529 337.09 313.232 301.682 312.954C356.003 315.803 406.659 292.898 437.377 244.983C462.305 206.1 463.157 156.595 450.1 117.036Z" fill="url(#paint13_linear_1_7)"/>
</g>
<defs>
<radialGradient id="paint0_radial_1_7" cx="0" cy="0" r="1" gradientUnits="userSpaceOnUse" gradientTransform="translate(447.072 94.7143) scale(567.377 568.723)">
<stop stop-color="#FFF44F"/>
<stop offset="0.294852" stop-color="#FF980E"/>
<stop offset="0.431521" stop-color="#FF5D36"/>
<stop offset="0.530208" stop-color="#FF3750"/>
<stop offset="0.749319" stop-color="#F5156C"/>
<stop offset="0.76479" stop-color="#F1136E"/>
<stop offset="0.880096" stop-color="#DA057A"/>
<stop offset="0.952784" stop-color="#D2007F"/>
</radialGradient>
<radialGradient id="paint1_radial_1_7" cx="0" cy="0" r="1" gradientUnits="userSpaceOnUse" gradientTransform="translate(41.434 118.242) scale(335.789 336.586)">
<stop stop-color="#B5007F"/>
<stop offset="1" stop-color="#F5156C" stop-opacity="0"/>
</radialGradient>
<radialGradient id="paint2_radial_1_7" cx="0" cy="0" r="1" gradientUnits="userSpaceOnUse" gradientTransform="translate(495.573 62.3537) scale(666.248 667.828)">
<stop stop-color="#FFDD00" stop-opacity="0.6"/>
<stop offset="0.0836672" stop-color="#FFD801" stop-opacity="0.524402"/>
<stop offset="0.182244" stop-color="#FECA05" stop-opacity="0.435332"/>
<stop offset="0.288366" stop-color="#FEB20C" stop-opacity="0.339445"/>
<stop offset="0.399791" stop-color="#FD9115" stop-opacity="0.238766"/>
<stop offset="0.515404" stop-color="#FB6621" stop-opacity="0.134303"/>
<stop offset="0.632872" stop-color="#F9332F" stop-opacity="0.028164"/>
<stop offset="0.664042" stop-color="#F92433" stop-opacity="0"/>
</radialGradient>
<radialGradient id="paint3_radial_1_7" cx="0" cy="0" r="1" gradientUnits="userSpaceOnUse" gradientTransform="translate(264.281 278.186) scale(859.512 861.552)">
<stop offset="0.152849" stop-color="#960E18"/>
<stop offset="0.20613" stop-color="#CC2335" stop-opacity="0.554139"/>
<stop offset="0.249478" stop-color="#F13148" stop-opacity="0.191404"/>
<stop offset="0.272351" stop-color="#FF3750" stop-opacity="0"/>
</radialGradient>
<radialGradient id="paint4_radial_1_7" cx="0" cy="0" r="1" gradientUnits="userSpaceOnUse" gradientTransform="translate(199.239 267.352) scale(859.512 861.552)">
<stop offset="0.112906" stop-color="#960E18"/>
<stop offset="0.189346" stop-color="#CC2335" stop-opacity="0.554139"/>
<stop offset="0.251535" stop-color="#F13148" stop-opacity="0.191404"/>
<stop offset="0.28435" stop-color="#FF3750" stop-opacity="0"/>
</radialGradient>
<linearGradient id="paint5_linear_1_7" x1="286.442" y1="48.5943" x2="434.03" y2="303.619" gradientUnits="userSpaceOnUse">
<stop stop-color="#FFBC04"/>
<stop offset="0.259693" stop-color="#FFA202" stop-opacity="0.488604"/>
<stop offset="0.507812" stop-color="#FF8E00" stop-opacity="0"/>
</linearGradient>
<radialGradient id="paint6_radial_1_7" cx="0" cy="0" r="1" gradientUnits="userSpaceOnUse" gradientTransform="translate(435.167 75.4991) scale(532.55 533.814)">
<stop stop-color="#FF980E"/>
<stop offset="0.295012" stop-color="#FF7139"/>
<stop offset="0.484646" stop-color="#FF5B51"/>
<stop offset="0.626002" stop-color="#FF4F5E"/>
<stop offset="0.73652" stop-color="#FF4055"/>
<stop offset="0.842829" stop-color="#FF3750"/>
</radialGradient>
<radialGradient id="paint7_radial_1_7" cx="0" cy="0" r="1" gradientUnits="userSpaceOnUse" gradientTransform="translate(435.167 75.4991) scale(532.55 533.814)">
<stop offset="0.0840745" stop-color="#FFDE08"/>
<stop offset="0.208103" stop-color="#FFD609" stop-opacity="0.832008"/>
<stop offset="0.40327" stop-color="#FFBF0B" stop-opacity="0.567662"/>
<stop offset="0.643689" stop-color="#FF9B0F" stop-opacity="0.242024"/>
<stop offset="0.822376" stop-color="#FF7B12" stop-opacity="0"/>
</radialGradient>
<radialGradient id="paint8_radial_1_7" cx="0" cy="0" r="1" gradientUnits="userSpaceOnUse" gradientTransform="translate(312.131 241.565) rotate(75.719) scale(261.769 272.613)">
<stop offset="0.363381" stop-color="#FF3750"/>
<stop offset="0.411136" stop-color="#FF444B" stop-opacity="0.789478"/>
<stop offset="0.590223" stop-color="#FF7139" stop-opacity="0"/>
</radialGradient>
<radialGradient id="paint9_radial_1_7" cx="0" cy="0" r="1" gradientUnits="userSpaceOnUse" gradientTransform="translate(267.11 263.737) rotate(75.719) scale(261.769 261.454)">
<stop offset="0.215889" stop-color="#FF3750" stop-opacity="0.8"/>
<stop offset="0.270209" stop-color="#FF444B" stop-opacity="0.631583"/>
<stop offset="0.473917" stop-color="#FF7139" stop-opacity="0"/>
</radialGradient>
<radialGradient id="paint10_radial_1_7" cx="0" cy="0" r="1" gradientUnits="userSpaceOnUse" gradientTransform="translate(541.45 15.2) scale(900.107 902.242)">
<stop offset="0.0535657" stop-color="#FFF44F"/>
<stop offset="0.457272" stop-color="#FF980E"/>
<stop offset="0.52105" stop-color="#FF8424"/>
<stop offset="0.587052" stop-color="#FF7634"/>
<stop offset="0.639343" stop-color="#FF7139"/>
</radialGradient>
<linearGradient id="paint11_linear_1_7" x1="368.882" y1="44.1075" x2="112.796" y2="486.612" gradientUnits="userSpaceOnUse">
<stop stop-color="#FFF44F" stop-opacity="0.8"/>
<stop offset="0.75" stop-color="#FFF44F" stop-opacity="0"/>
</linearGradient>
<linearGradient id="paint12_linear_1_7" x1="287.639" y1="314.472" x2="287.639" y2="3.17061" gradientUnits="userSpaceOnUse">
<stop stop-color="#3A8EE6"/>
<stop offset="0.235934" stop-color="#5C79F0"/>
<stop offset="0.629327" stop-color="#9059FF"/>
<stop offset="1" stop-color="#C139E6"/>
</linearGradient>
<linearGradient id="paint13_linear_1_7" x1="173.353" y1="1.74342" x2="425.949" y2="253.742" gradientUnits="userSpaceOnUse">
<stop offset="0.805429" stop-color="#9059FF" stop-opacity="0"/>
<stop offset="1" stop-color="#6E008B" stop-opacity="0.5"/>
</linearGradient>
<clipPath id="clip0_1_7">
<rect width="500" height="500" fill="white"/>
</clipPath>
</defs>
</svg>
