<svg width="500" height="500" viewBox="0 0 500 500" fill="none" xmlns="http://www.w3.org/2000/svg">
<g clip-path="url(#clip0_125_157)">
<path d="M449.694 98.4596C404.598 39.0931 334.289 2.0942 260.344 0.619099C202.418 -0.536392 162.393 16.8643 139.748 30.8533C170.046 13.2888 213.885 3.32665 252.27 3.81675C351.017 5.07738 457.063 72.2895 472.813 193.451C490.894 332.534 393.991 448.614 257.662 448.965C107.68 449.35 16.4602 316.6 40.3013 197.364C41.4919 191.41 40.8976 185.618 42.8824 179.991C44.0186 159.026 51.9414 126.163 69.0326 92.5854C51.7637 101.517 29.7711 129.775 18.9126 155.95C3.25856 193.685 -2.25819 238.811 2.70795 281.744C3.08181 284.975 3.42044 288.198 3.84323 291.402C23.9309 409.483 126.532 499.379 250.102 499.379C388.084 499.379 499.94 387.299 499.94 249.042C499.94 192.512 481.232 140.365 449.694 98.4596Z" fill="url(#paint0_radial_125_157)"/>
<g opacity="0.67">
<path d="M449.694 98.4596C404.598 39.0931 334.289 2.0942 260.344 0.619099C202.418 -0.536392 162.393 16.8643 139.748 30.8533C170.046 13.2888 213.885 3.32665 252.27 3.81675C351.017 5.07738 457.063 72.2895 472.813 193.451C490.894 332.534 393.991 448.614 257.662 448.965C107.68 449.35 16.4602 316.6 40.3013 197.364C41.4919 191.41 40.8976 185.618 42.8824 179.991C44.0186 159.026 51.9414 126.163 69.0326 92.5854C51.7637 101.517 29.7711 129.775 18.9126 155.95C3.25856 193.685 -2.25819 238.811 2.70795 281.744C3.08181 284.975 3.42044 288.198 3.84323 291.402C23.9309 409.483 126.532 499.379 250.102 499.379C388.084 499.379 499.94 387.299 499.94 249.042C499.94 192.512 481.232 140.365 449.694 98.4596Z" fill="url(#paint1_radial_125_157)"/>
</g>
<path d="M449.694 98.4596C404.598 39.0931 334.289 2.0942 260.344 0.619099C202.418 -0.536392 162.393 16.8643 139.748 30.8533C170.046 13.2888 213.885 3.32665 252.27 3.81675C351.017 5.07738 457.063 72.2895 472.813 193.451C490.894 332.534 393.991 448.614 257.662 448.965C107.68 449.35 16.4602 316.6 40.3013 197.364C41.4919 191.41 40.8976 185.618 42.8824 179.991C44.0186 159.026 51.9414 126.163 69.0326 92.5854C51.7637 101.517 29.7711 129.775 18.9126 155.95C3.25856 193.685 -2.25819 238.811 2.70795 281.744C3.08181 284.975 3.42044 288.198 3.84323 291.402C23.9309 409.483 126.532 499.379 250.102 499.379C388.084 499.379 499.94 387.299 499.94 249.042C499.94 192.512 481.232 140.365 449.694 98.4596Z" fill="url(#paint2_radial_125_157)"/>
<path d="M449.694 98.4596C404.598 39.0931 334.289 2.0942 260.344 0.619099C202.418 -0.536392 162.393 16.8643 139.748 30.8533C170.046 13.2888 213.885 3.32665 252.27 3.81675C351.017 5.07738 457.063 72.2895 472.813 193.451C490.894 332.534 393.991 448.614 257.662 448.965C107.68 449.35 16.4602 316.6 40.3013 197.364C41.4919 191.41 40.8976 185.618 42.8824 179.991C44.0186 159.026 51.9414 126.163 69.0326 92.5854C51.7637 101.517 29.7711 129.775 18.9126 155.95C3.25856 193.685 -2.25819 238.811 2.70795 281.744C3.08181 284.975 3.42044 288.198 3.84323 291.402C23.9309 409.483 126.532 499.379 250.102 499.379C388.084 499.379 499.94 387.299 499.94 249.042C499.94 192.512 481.232 140.365 449.694 98.4596Z" fill="url(#paint3_radial_125_157)"/>
<path d="M449.694 98.4596C404.598 39.0931 334.289 2.0942 260.344 0.619099C202.418 -0.536392 162.393 16.8643 139.748 30.8533C170.046 13.2888 213.885 3.32665 252.27 3.81675C351.017 5.07738 457.063 72.2895 472.813 193.451C490.894 332.534 393.991 448.614 257.662 448.965C107.68 449.35 16.4602 316.6 40.3013 197.364C41.4919 191.41 40.8976 185.618 42.8824 179.991C44.0186 159.026 51.9414 126.163 69.0326 92.5854C51.7637 101.517 29.7711 129.775 18.9126 155.95C3.25856 193.685 -2.25819 238.811 2.70795 281.744C3.08181 284.975 3.42044 288.198 3.84323 291.402C23.9309 409.483 126.532 499.379 250.102 499.379C388.084 499.379 499.94 387.299 499.94 249.042C499.94 192.512 481.232 140.365 449.694 98.4596Z" fill="url(#paint4_radial_125_157)"/>
<path d="M472.813 193.451C474.81 208.81 475.399 223.913 474.694 238.633C482.966 237.406 491.255 236.294 499.559 235.331C496.797 184.094 478.666 136.954 449.694 98.4596C404.598 39.0931 334.289 2.0942 260.344 0.619099C202.418 -0.536392 162.393 16.8643 139.749 30.8533C170.047 13.2888 213.885 3.32665 252.27 3.81675C351.017 5.07738 457.063 72.2895 472.813 193.451Z" fill="url(#paint5_linear_125_157)"/>
<path d="M478.887 186.534C464.846 59.9117 351.879 2.99574 252.27 3.81636C213.884 4.13261 170.047 13.2884 139.748 30.8529C125.596 39.5958 118.233 47.0004 117.545 47.7077C118.348 47.0412 120.748 45.066 124.73 42.3345C124.86 42.2433 124.992 42.1539 125.123 42.0631C125.236 41.9861 125.354 41.9071 125.469 41.829C139.912 31.851 156.213 24.6042 173.45 19.5549C199.774 11.8435 228.277 9.2555 255.681 9.94388C368.335 16.4378 447.834 109.905 450.602 209.396C452.892 291.738 385.468 357.406 307.749 361.209C251.226 363.975 197.982 336.634 171.96 281.937C166.172 269.769 161.926 257.401 159.712 242.45C147.383 159.21 203.303 88.2236 254.584 70.6493C226.915 46.4929 157.601 48.1314 106.01 86.0708C68.8571 113.393 44.7556 154.964 36.7707 204.559C30.6827 242.371 36.4165 281.694 51.3671 316.813C66.601 352.598 91.376 384.146 122.523 407.376C156.346 432.602 197.075 447.281 239.053 450.478C245.244 450.949 251.453 451.18 257.662 451.18C422.723 451.18 494.345 325.934 478.887 186.534Z" fill="url(#paint6_radial_125_157)"/>
<path d="M478.887 186.534C464.846 59.9117 351.879 2.99574 252.27 3.81636C213.884 4.13261 170.047 13.2884 139.748 30.8529C125.596 39.5958 118.233 47.0004 117.545 47.7077C118.348 47.0412 120.748 45.066 124.73 42.3345C124.86 42.2433 124.992 42.1539 125.123 42.0631C125.236 41.9861 125.354 41.9071 125.469 41.829C139.912 31.851 156.213 24.6042 173.45 19.5549C199.774 11.8435 228.277 9.2555 255.681 9.94388C368.335 16.4378 447.834 109.905 450.602 209.396C452.892 291.738 385.468 357.406 307.749 361.209C251.226 363.975 197.982 336.634 171.96 281.937C166.172 269.769 161.926 257.401 159.712 242.45C147.383 159.21 203.303 88.2236 254.584 70.6493C226.915 46.4929 157.601 48.1314 106.01 86.0708C68.8571 113.393 44.7556 154.964 36.7707 204.559C30.6827 242.371 36.4165 281.694 51.3671 316.813C66.601 352.598 91.376 384.146 122.523 407.376C156.346 432.602 197.075 447.281 239.053 450.478C245.244 450.949 251.453 451.18 257.662 451.18C422.723 451.18 494.345 325.934 478.887 186.534Z" fill="url(#paint7_radial_125_157)"/>
<path opacity="0.53" d="M478.887 186.534C464.846 59.9117 351.879 2.99574 252.27 3.81636C213.884 4.13261 170.047 13.2884 139.748 30.8529C125.596 39.5958 118.233 47.0004 117.545 47.7077C118.348 47.0412 120.748 45.066 124.73 42.3345C124.86 42.2433 124.992 42.1539 125.123 42.0631C125.236 41.9861 125.354 41.9071 125.469 41.829C139.912 31.851 156.213 24.6042 173.45 19.5549C199.774 11.8435 228.277 9.2555 255.681 9.94388C368.335 16.4378 447.834 109.905 450.602 209.396C452.892 291.738 385.468 357.406 307.749 361.209C251.226 363.975 197.982 336.634 171.96 281.937C166.172 269.769 161.926 257.401 159.712 242.45C147.383 159.21 203.303 88.2236 254.584 70.6493C226.915 46.4929 157.601 48.1314 106.01 86.0708C68.8571 113.393 44.7556 154.964 36.7707 204.559C30.6827 242.371 36.4165 281.694 51.3671 316.813C66.601 352.598 91.376 384.146 122.523 407.376C156.346 432.602 197.075 447.281 239.053 450.478C245.244 450.949 251.453 451.18 257.662 451.18C422.723 451.18 494.345 325.934 478.887 186.534Z" fill="url(#paint8_radial_125_157)"/>
<path opacity="0.53" d="M478.887 186.534C464.846 59.9117 351.879 2.99574 252.27 3.81636C213.884 4.13261 170.047 13.2884 139.748 30.8529C125.596 39.5958 118.233 47.0004 117.545 47.7077C118.348 47.0412 120.748 45.066 124.73 42.3345C124.86 42.2433 124.992 42.1539 125.123 42.0631C125.236 41.9861 125.354 41.9071 125.469 41.829C139.912 31.851 156.213 24.6042 173.45 19.5549C199.774 11.8435 228.277 9.2555 255.681 9.94388C368.335 16.4378 447.834 109.905 450.602 209.396C452.892 291.738 385.468 357.406 307.749 361.209C251.226 363.975 197.982 336.634 171.96 281.937C166.172 269.769 161.926 257.401 159.712 242.45C147.383 159.21 203.303 88.2236 254.584 70.6493C226.915 46.4929 157.601 48.1314 106.01 86.0708C68.8571 113.393 44.7556 154.964 36.7707 204.559C30.6827 242.371 36.4165 281.694 51.3671 316.813C66.601 352.598 91.376 384.146 122.523 407.376C156.346 432.602 197.075 447.281 239.053 450.478C245.244 450.949 251.453 451.18 257.662 451.18C422.723 451.18 494.345 325.934 478.887 186.534Z" fill="url(#paint9_radial_125_157)"/>
<path d="M307.749 361.21C414.426 354.724 460.071 266.459 462.931 203.801C467.399 105.957 409.32 0.438216 255.681 9.94437C228.277 9.25599 199.774 11.844 173.45 19.5554C150.373 26.6096 134.345 35.8326 125.469 41.8295C125.354 41.9089 125.237 41.9839 125.123 42.0636C124.984 42.1575 124.864 42.2429 124.73 42.335C122.341 44.0083 120.005 45.759 117.724 47.5858C121.995 44.6644 174.979 13.3864 248.591 23.0435C336.777 34.6126 417.433 103.211 417.433 193.721C417.433 263.36 363.593 316.525 300.555 312.73C206.896 307.091 183.312 211.088 232.011 169.608C218.873 166.78 194.184 172.318 176.994 198.009C161.57 221.061 162.441 256.681 171.96 281.938C197.982 336.635 251.262 364.644 307.749 361.21Z" fill="url(#paint10_radial_125_157)"/>
<path d="M449.693 98.4598C443.006 89.655 435.703 81.4082 427.975 73.6308C421.776 67.0558 415.134 60.9977 408.158 55.3869C412.178 58.9086 416.047 62.6052 419.689 66.5443C433.199 81.158 443.898 98.4221 450.139 117.323C463.17 156.788 462.319 206.176 437.442 244.967C407.795 291.191 359.532 314.01 307.358 312.898C305.103 312.908 302.837 312.867 300.555 312.73C206.897 307.09 183.312 211.088 232.012 169.609C218.872 166.78 194.185 172.319 176.995 198.009C161.571 221.061 162.441 256.681 171.961 281.937C166.172 269.77 161.926 257.402 159.713 242.451C147.384 159.211 203.304 88.2235 254.585 70.6494C226.916 46.4936 157.602 48.1321 106.01 86.0713C75.9483 108.179 54.4405 139.621 43.0911 177.088C44.7595 156.065 52.7036 124.666 69.0317 92.5855C51.7645 101.516 29.7705 129.775 18.9139 155.949C3.25982 193.685 -2.25801 238.811 2.70737 281.744C3.08303 284.975 3.42112 288.198 3.8432 291.403C23.9301 409.483 126.532 499.379 250.103 499.379C388.084 499.379 499.941 387.299 499.941 249.042C499.941 192.512 481.233 140.366 449.693 98.4598Z" fill="url(#paint11_linear_125_157)"/>
<path d="M450.139 117.323C443.898 98.4216 433.199 81.1573 419.688 66.5448C403.769 49.329 383.946 36.2471 362.962 26.0592C345.109 17.3918 326.464 10.5514 307.196 6.30073C272.684 -1.31283 236.475 -1.17781 203.87 5.69814C168.423 13.1734 137.251 28.5075 117.538 47.6779C132.32 38.6991 152.939 31.4171 167.632 27.7062C235.811 10.4858 310.887 29.1378 362.073 78.2078C372.364 88.0734 381.593 99.1125 389.075 111.272C419.611 160.896 416.722 223.283 392.914 260.078C375.228 287.412 337.354 313.054 302.017 312.776C356.23 315.619 406.784 292.768 437.441 244.967C462.319 206.176 463.17 156.788 450.139 117.323Z" fill="url(#paint12_linear_125_157)"/>
<path d="M450.139 117.323C443.898 98.4216 433.199 81.1573 419.688 66.5448C403.769 49.329 383.946 36.2471 362.962 26.0592C345.109 17.3918 326.464 10.5514 307.196 6.30073C272.684 -1.31283 236.475 -1.17781 203.87 5.69814C168.423 13.1734 137.251 28.5075 117.538 47.6779C132.32 38.6991 152.939 31.4171 167.632 27.7062C235.811 10.4858 310.887 29.1378 362.073 78.2078C372.364 88.0734 381.593 99.1125 389.075 111.272C419.611 160.896 416.722 223.283 392.914 260.078C375.228 287.412 337.354 313.054 302.017 312.776C356.23 315.619 406.784 292.768 437.441 244.967C462.319 206.176 463.17 156.788 450.139 117.323Z" fill="url(#paint13_linear_125_157)"/>
</g>
<defs>
<radialGradient id="paint0_radial_125_157" cx="0" cy="0" r="1" gradientUnits="userSpaceOnUse" gradientTransform="translate(447.117 95.0542) scale(566.243 567.375)">
<stop stop-color="#FFF44F"/>
<stop offset="0.294852" stop-color="#FF980E"/>
<stop offset="0.431521" stop-color="#FF5D36"/>
<stop offset="0.530208" stop-color="#FF3750"/>
<stop offset="0.749319" stop-color="#F5156C"/>
<stop offset="0.76479" stop-color="#F1136E"/>
<stop offset="0.880096" stop-color="#DA057A"/>
<stop offset="0.952784" stop-color="#D2007F"/>
</radialGradient>
<radialGradient id="paint1_radial_125_157" cx="0" cy="0" r="1" gradientUnits="userSpaceOnUse" gradientTransform="translate(42.29 118.526) scale(335.118 335.788)">
<stop stop-color="#B5007F"/>
<stop offset="1" stop-color="#F5156C" stop-opacity="0"/>
</radialGradient>
<radialGradient id="paint2_radial_125_157" cx="0" cy="0" r="1" gradientUnits="userSpaceOnUse" gradientTransform="translate(495.521 62.7703) scale(664.915 666.245)">
<stop stop-color="#FFDD00" stop-opacity="0.6"/>
<stop offset="0.0836672" stop-color="#FFD801" stop-opacity="0.524402"/>
<stop offset="0.182244" stop-color="#FECA05" stop-opacity="0.435332"/>
<stop offset="0.288366" stop-color="#FEB20C" stop-opacity="0.339445"/>
<stop offset="0.399791" stop-color="#FD9115" stop-opacity="0.238766"/>
<stop offset="0.515404" stop-color="#FB6621" stop-opacity="0.134303"/>
<stop offset="0.632872" stop-color="#F9332F" stop-opacity="0.028164"/>
<stop offset="0.664042" stop-color="#F92433" stop-opacity="0"/>
</radialGradient>
<radialGradient id="paint3_radial_125_157" cx="0" cy="0" r="1" gradientUnits="userSpaceOnUse" gradientTransform="translate(264.692 278.091) scale(857.793 859.509)">
<stop offset="0.152849" stop-color="#960E18"/>
<stop offset="0.20613" stop-color="#CC2335" stop-opacity="0.554139"/>
<stop offset="0.249478" stop-color="#F13148" stop-opacity="0.191404"/>
<stop offset="0.272351" stop-color="#FF3750" stop-opacity="0"/>
</radialGradient>
<radialGradient id="paint4_radial_125_157" cx="0" cy="0" r="1" gradientUnits="userSpaceOnUse" gradientTransform="translate(199.779 267.283) scale(857.793 859.509)">
<stop offset="0.112906" stop-color="#960E18"/>
<stop offset="0.189346" stop-color="#CC2335" stop-opacity="0.554139"/>
<stop offset="0.251535" stop-color="#F13148" stop-opacity="0.191404"/>
<stop offset="0.28435" stop-color="#FF3750" stop-opacity="0"/>
</radialGradient>
<linearGradient id="paint5_linear_125_157" x1="286.808" y1="49.0435" x2="434.019" y2="303.511" gradientUnits="userSpaceOnUse">
<stop stop-color="#FFBC04"/>
<stop offset="0.259693" stop-color="#FFA202" stop-opacity="0.488604"/>
<stop offset="0.507812" stop-color="#FF8E00" stop-opacity="0"/>
</linearGradient>
<radialGradient id="paint6_radial_125_157" cx="0" cy="0" r="1" gradientUnits="userSpaceOnUse" gradientTransform="translate(435.236 75.8845) scale(531.485 532.548)">
<stop stop-color="#FF980E"/>
<stop offset="0.295012" stop-color="#FF7139"/>
<stop offset="0.484646" stop-color="#FF5B51"/>
<stop offset="0.626002" stop-color="#FF4F5E"/>
<stop offset="0.73652" stop-color="#FF4055"/>
<stop offset="0.842829" stop-color="#FF3750"/>
</radialGradient>
<radialGradient id="paint7_radial_125_157" cx="0" cy="0" r="1" gradientUnits="userSpaceOnUse" gradientTransform="translate(435.236 75.8845) scale(531.485 532.548)">
<stop offset="0.0840745" stop-color="#FFDE08"/>
<stop offset="0.208103" stop-color="#FFD609" stop-opacity="0.832008"/>
<stop offset="0.40327" stop-color="#FFBF0B" stop-opacity="0.567662"/>
<stop offset="0.643689" stop-color="#FF9B0F" stop-opacity="0.242024"/>
<stop offset="0.822376" stop-color="#FF7B12" stop-opacity="0"/>
</radialGradient>
<radialGradient id="paint8_radial_125_157" cx="0" cy="0" r="1" gradientUnits="userSpaceOnUse" gradientTransform="translate(312.445 241.557) rotate(75.7139) scale(261.154 272.062)">
<stop offset="0.363381" stop-color="#FF3750"/>
<stop offset="0.411136" stop-color="#FF444B" stop-opacity="0.789478"/>
<stop offset="0.590223" stop-color="#FF7139" stop-opacity="0"/>
</radialGradient>
<radialGradient id="paint9_radial_125_157" cx="0" cy="0" r="1" gradientUnits="userSpaceOnUse" gradientTransform="translate(267.515 263.676) rotate(75.7139) scale(261.154 260.925)">
<stop offset="0.215889" stop-color="#FF3750" stop-opacity="0.8"/>
<stop offset="0.270209" stop-color="#FF444B" stop-opacity="0.631583"/>
<stop offset="0.473917" stop-color="#FF7139" stop-opacity="0"/>
</radialGradient>
<radialGradient id="paint10_radial_125_157" cx="0" cy="0" r="1" gradientUnits="userSpaceOnUse" gradientTransform="translate(541.305 15.7284) scale(898.306 900.103)">
<stop offset="0.0535657" stop-color="#FFF44F"/>
<stop offset="0.457272" stop-color="#FF980E"/>
<stop offset="0.52105" stop-color="#FF8424"/>
<stop offset="0.587052" stop-color="#FF7634"/>
<stop offset="0.639343" stop-color="#FF7139"/>
</radialGradient>
<linearGradient id="paint11_linear_125_157" x1="369.083" y1="44.5674" x2="113.651" y2="486.105" gradientUnits="userSpaceOnUse">
<stop stop-color="#FFF44F" stop-opacity="0.8"/>
<stop offset="0.75" stop-color="#FFF44F" stop-opacity="0"/>
</linearGradient>
<linearGradient id="paint12_linear_125_157" x1="288.003" y1="314.291" x2="288.003" y2="3.72754" gradientUnits="userSpaceOnUse">
<stop stop-color="#3A8EE6"/>
<stop offset="0.235934" stop-color="#5C79F0"/>
<stop offset="0.629327" stop-color="#9059FF"/>
<stop offset="1" stop-color="#C139E6"/>
</linearGradient>
<linearGradient id="paint13_linear_125_157" x1="173.945" y1="2.30374" x2="425.943" y2="253.798" gradientUnits="userSpaceOnUse">
<stop offset="0.805429" stop-color="#9059FF" stop-opacity="0"/>
<stop offset="1" stop-color="#6E008B" stop-opacity="0.5"/>
</linearGradient>
<clipPath id="clip0_125_157">
<rect width="500" height="500" fill="white"/>
</clipPath>
</defs>
</svg>
