<svg width="500" height="500" xmlns="http://www.w3.org/2000/svg" xmlns:undefined="http://sodipodi.sourceforge.net/DTD/sodipodi-0.dtd" xmlns:undefined="http://www.inkscape.org/namespaces/inkscape" version="1.1" aria-labelledby="tanukiHomeTablet" role="img" fill="none">

 <title id="tanukiHomeTablet">GitLab home page</title>
 <metadata id="metadata4">GitLab home page</metadata>
 <g>
  <title>Layer 1</title>
  <g id="svg_1">
   <path id="path1" fill="#E24329" d="m491.10458,199.76818l-0.6986,-1.78703l-67.8371,-177.00396c-1.37848,-3.47146 -3.81889,-6.41882 -6.97037,-8.42136c-3.17643,-2.00457 -6.89552,-2.97402 -10.64579,-2.77442c-3.75028,0.1996 -7.34617,1.55827 -10.29182,3.88859c-2.91757,2.33952 -5.02116,5.54074 -6.01136,9.14693l-45.86408,140.36385l-185.55521,0l-45.86314,-140.36385c-0.99035,-3.60619 -3.09425,-6.80741 -6.01151,-9.14693c-2.9327,-2.34607 -6.52642,-3.71488 -10.27653,-3.91479c-3.75028,-0.19975 -7.46905,0.77953 -10.63441,2.80062c-3.16598,1.99427 -5.6159,4.9435 -6.99625,8.42136l-67.91492,177.23631l-0.69953,1.76208c-9.74916,25.52682 -10.94753,53.52836 -3.41501,79.79432c7.53267,26.26596 23.38909,49.37733 45.18482,65.85671l0.25917,0.18089l0.59599,0.46625l103.46597,77.4506l51.14939,38.73933l31.09532,23.55267c3.65204,2.76008 8.10559,4.25395 12.68388,4.25395c4.57674,0 9.03029,-1.49387 12.68388,-4.25395l31.09376,-23.55267l51.17528,-38.73933l104.06274,-77.91685l0.2838,-0.2074c21.87011,-16.46379 37.78968,-39.59387 45.35728,-65.90193c7.56916,-26.30651 6.37313,-54.36106 -3.40566,-79.92999z"/>
   <path id="path2" fill="#FC6D26" d="m491.1077,199.76818l-0.6986,-1.78703c-33.08507,6.81755 -64.26148,20.83937 -91.31336,41.06903l-148.96781,112.89811c50.787,38.40251 94.99347,71.77606 94.99347,71.77606l104.06118,-77.91685l0.28536,-0.2074c21.81553,-16.50433 37.67273,-39.65468 45.18419,-65.95807c7.51147,-26.30495 6.26709,-54.33767 -3.54444,-79.87385z"/>
   <path id="path3" fill="#FCA326" d="m155.00504,423.72434l51.07236,38.73933l31.09376,23.55267c3.65359,2.76008 8.10559,4.25395 12.68388,4.25395c4.5783,0 9.03185,-1.49387 12.68388,-4.25395l31.09376,-23.55267l51.17684,-38.73933c0,0 -44.20647,-33.37355 -94.99347,-71.77606l-94.81102,71.77606z"/>
   <path id="path4" fill="#FC6D26" d="m100.84716,239.15465c-27.04518,-20.23745 -58.22517,-34.25148 -91.31336,-41.04408l-0.69953,1.76208c-9.77426,25.5393 -10.98589,53.56267 -3.45228,79.85046c7.53345,26.28779 23.40421,49.41631 45.22209,65.90349l0.25917,0.18089l0.59599,0.46625l103.46581,77.4506l95.19977,-71.77606l-149.27765,-112.79363z"/>
  </g>
 </g>
</svg>