<svg width="500" height="500" viewBox="0 0 500 500" fill="none" xmlns="http://www.w3.org/2000/svg">
<path fill-rule="evenodd" clip-rule="evenodd" d="M113.22 144.731L222.135 194.236H388.952L402.763 170.343C411.046 155.98 401.045 138.733 385.937 138.733H114.404C113.68 138.729 112.977 138.978 112.417 139.436C111.857 139.894 111.474 140.533 111.333 141.243C111.193 141.953 111.305 142.69 111.65 143.326C111.994 143.963 112.549 144.459 113.22 144.731ZM222.135 215.488H493.862C495.344 215.501 496.773 216.045 497.888 217.022C499.003 217.999 499.731 219.343 499.939 220.811C500.147 222.279 499.821 223.772 499.021 225.02C498.222 226.269 497.001 227.188 495.58 227.613L3.93325 360.746C3.24581 360.939 2.51276 360.889 1.85828 360.603C1.20379 360.318 0.668087 359.815 0.341912 359.18C0.0157368 358.545 -0.0808603 357.816 0.0684733 357.118C0.217807 356.42 0.603887 355.795 1.16134 355.348L222.135 215.488ZM263.114 357.618L84.8044 360.86L331.309 294.14L309.928 331.277C300.673 347.325 280.41 357.294 263.114 357.618Z" fill="#003DA5"/>
</svg>
