<svg width="565" height="565" viewBox="0 0 565 565" fill="none" xmlns="http://www.w3.org/2000/svg">
<path fill-rule="evenodd" clip-rule="evenodd" d="M127.939 163.546L251.013 219.487H439.516L455.122 192.487C464.482 176.258 453.18 156.768 436.109 156.768H129.276C128.458 156.764 127.664 157.044 127.031 157.562C126.398 158.08 125.965 158.802 125.807 159.604C125.649 160.407 125.775 161.239 126.164 161.958C126.553 162.678 127.181 163.239 127.939 163.546ZM251.013 243.501H558.064C559.739 243.516 561.353 244.131 562.613 245.235C563.873 246.338 564.696 247.858 564.931 249.516C565.166 251.175 564.798 252.863 563.894 254.273C562.99 255.683 561.611 256.723 560.006 257.202L4.44457 407.643C3.66776 407.861 2.83942 407.804 2.09985 407.482C1.36028 407.159 0.754938 406.591 0.38636 405.873C0.0177826 405.155 -0.0913722 404.332 0.0773748 403.543C0.246122 402.754 0.682392 402.048 1.31231 401.544L251.013 243.501ZM297.319 404.109L95.829 407.772L374.38 332.378L350.219 374.343C339.76 392.477 316.863 403.742 297.319 404.109Z" fill="#003DA5"/>
</svg>
