<?xml version="1.0" standalone="no"?>
<!DOCTYPE svg PUBLIC "-//W3C//DTD SVG 20010904//EN"
 "http://www.w3.org/TR/2001/REC-SVG-20010904/DTD/svg10.dtd">
<svg version="1.0" xmlns="http://www.w3.org/2000/svg"
 width="400.000000pt" height="400.000000pt" viewBox="0 0 400.000000 400.000000"
 preserveAspectRatio="xMidYMid meet">

<g transform="translate(0.000000,400.000000) scale(0.100000,-0.100000)"
fill="#000000" stroke="none">
<path d="M0 2000 l0 -2000 2000 0 2000 0 0 2000 0 2000 -2000 0 -2000 0 0
-2000z m1495 448 c29 -13 55 -55 55 -88 0 -36 -53 -80 -95 -80 -70 0 -110 80
-69 138 27 39 67 50 109 30z m827 -120 l3 -123 63 -3 62 -3 0 -59 0 -59 -62
-3 -63 -3 -3 -103 c-3 -97 -2 -103 22 -127 19 -18 36 -25 66 -25 l40 0 0 -53
c0 -29 -5 -58 -12 -65 -15 -15 -90 -15 -143 -1 -50 14 -100 64 -114 114 -7 24
-11 141 -11 297 l0 257 68 40 c37 22 70 40 74 41 4 0 9 -55 10 -122z m-1484
-119 c32 -6 59 -20 76 -38 l27 -29 49 33 c56 38 107 48 169 34 54 -12 87 -39
112 -94 16 -34 19 -67 19 -227 l0 -188 -75 0 -75 0 0 164 c0 146 -2 166 -19
187 -26 32 -92 33 -123 1 -22 -21 -23 -32 -26 -187 l-3 -165 -74 0 -74 0 -3
170 c-3 194 -8 205 -79 205 -33 0 -46 -6 -65 -28 -23 -27 -24 -34 -24 -188 l0
-159 -75 0 -75 0 0 250 0 250 75 0 c74 0 75 0 75 -26 l0 -26 31 26 c17 14 43
29 57 32 23 5 39 9 49 13 1 1 24 -4 51 -10z m2054 -21 c79 -34 137 -111 152
-204 9 -54 -18 -148 -54 -194 -51 -64 -112 -93 -206 -98 -71 -4 -89 -1 -136
20 -175 80 -214 295 -78 422 91 85 203 104 322 54z m478 16 c56 -17 131 -78
114 -93 -5 -4 -30 -20 -55 -34 -46 -26 -47 -26 -64 -7 -37 41 -125 33 -125
-11 0 -21 16 -30 100 -53 114 -32 164 -86 157 -169 -5 -60 -30 -95 -87 -124
-49 -26 -146 -31 -212 -13 -40 12 -92 50 -109 82 -12 22 -4 30 57 63 33 17 33
17 64 -9 54 -45 166 -31 147 18 -3 8 -42 26 -86 40 -44 13 -94 34 -111 46
-105 75 -65 230 70 268 51 15 80 14 140 -4z m-1371 -9 c39 -20 78 -69 91 -113
5 -20 10 -115 10 -209 l0 -173 -75 0 -75 0 0 159 c0 143 -2 161 -20 184 -40
50 -128 39 -150 -19 -6 -14 -10 -93 -10 -175 l0 -149 -75 0 -75 0 0 250 0 250
75 0 c75 0 75 0 75 -27 0 -24 1 -25 18 -10 52 47 153 62 211 32z m-469 -245
l0 -250 -75 0 -75 0 0 250 0 250 75 0 75 0 0 -250z"/>
<path d="M2699 2057 c-93 -62 -64 -212 45 -232 73 -14 135 34 144 111 12 112
-97 183 -189 121z"/>
</g>
</svg>
