<svg xmlns="http://www.w3.org/2000/svg" width="400" height="400" viewBox="0 0 400 400" version="1.1"><path d="M 142.357 154.992 C 136.702 157.274, 135.186 165.414, 139.646 169.548 C 146.597 175.990, 157.530 168.522, 153.917 159.799 C 152.752 156.988, 148.432 153.935, 145.800 154.063 C 145.085 154.098, 143.536 154.516, 142.357 154.992 M 223.750 159.088 L 217 163.096 217 188.870 C 217 209.801, 217.299 215.520, 218.589 219.308 C 221.188 226.934, 227.799 230.981, 237.679 230.994 C 243.270 231.002, 244.895 229.186, 244.847 222.986 L 244.808 218 240.859 218 C 237.984 218, 236.232 217.323, 234.419 215.510 C 232.045 213.136, 231.943 212.545, 232.215 202.760 L 232.500 192.500 238.798 192.201 L 245.097 191.902 244.798 186.201 L 244.500 180.500 238.250 180.202 L 232 179.905 232 167.452 C 232 160.604, 231.662 155.018, 231.250 155.040 C 230.838 155.062, 227.463 156.884, 223.750 159.088 M 77.500 178.491 C 76.950 178.675, 75.297 179.089, 73.827 179.412 C 72.357 179.735, 69.769 181.165, 68.077 182.589 L 65 185.178 65 182.589 C 65 180.034, 64.902 180, 57.500 180 L 50 180 50 205 L 50 230 57.500 230 L 65 230 65 214.056 C 65 198.679, 65.085 198.013, 67.394 195.328 C 69.287 193.128, 70.644 192.545, 73.881 192.545 C 81.047 192.545, 81.454 193.597, 81.816 213.033 L 82.132 230 89.499 230 L 96.865 230 97.183 213.525 C 97.482 197.979, 97.627 196.923, 99.755 194.798 C 102.939 191.618, 109.499 191.664, 112.107 194.884 C 113.792 196.965, 114 199.020, 114 213.611 L 114 230 121.500 230 L 129 230 128.978 211.250 C 128.959 195.163, 128.694 191.932, 127.110 188.500 C 124.569 182.993, 121.338 180.308, 115.748 179.056 C 109.620 177.682, 104.026 178.924, 98.518 182.880 L 94.292 185.914 91.511 183.011 C 89.708 181.130, 86.999 179.737, 83.815 179.054 C 81.113 178.474, 78.811 178.036, 78.701 178.079 C 78.590 178.122, 78.050 178.308, 77.500 178.491 M 271.500 179.054 C 265.174 180.287, 262.403 181.641, 257.895 185.705 C 243.489 198.693, 246.997 220.615, 264.786 228.759 C 269.519 230.926, 271.245 231.185, 278.434 230.808 C 285.371 230.444, 287.435 229.906, 291.581 227.380 C 297.565 223.734, 302.444 216.821, 303.933 209.877 C 307.851 191.607, 290.705 175.312, 271.500 179.054 M 323.564 179.086 C 309.691 182.469, 305.242 198.340, 316.017 206.012 C 317.693 207.205, 322.673 209.290, 327.084 210.645 C 331.495 211.999, 335.356 213.764, 335.664 214.567 C 336.685 217.228, 334.003 219, 328.954 219 C 325.229 219, 323.453 218.411, 321.027 216.369 C 317.934 213.766, 317.866 213.757, 314.637 215.496 C 307.862 219.145, 307.513 219.608, 309.385 222.464 C 310.300 223.861, 312.881 226.216, 315.121 227.699 C 318.583 229.990, 320.487 230.449, 327.846 230.766 C 335.391 231.091, 337.069 230.842, 340.941 228.819 C 346.712 225.806, 349.182 222.281, 349.695 216.324 C 350.413 208.006, 345.391 202.600, 334 199.425 C 325.601 197.085, 324 196.225, 324 194.057 C 324 189.650, 332.788 188.898, 336.489 192.988 C 338.231 194.913, 338.308 194.905, 342.876 192.304 C 349.400 188.589, 349.387 188.614, 346.560 185.254 C 342.152 180.015, 331.486 177.154, 323.564 179.086 M 183.500 180.665 C 181.850 181.537, 179.713 182.939, 178.750 183.780 C 177.139 185.189, 177 185.100, 177 182.655 C 177 180.018, 176.950 180, 169.500 180 L 162 180 162 205 L 162 230 169.433 230 L 176.865 230 177.183 213.525 C 177.482 197.979, 177.627 196.923, 179.755 194.798 C 183.148 191.409, 189.459 191.669, 192.606 195.328 C 194.915 198.013, 195 198.679, 195 214.056 L 195 230 202.500 230 L 210 230 209.976 213.250 C 209.944 190.563, 208.825 186.568, 201.010 181.250 C 196.998 178.519, 188.123 178.223, 183.500 180.665 M 138 205 L 138 230 145.500 230 L 153 230 153 205 L 153 180 145.500 180 L 138 180 138 205 M 269.933 194.266 C 260.629 200.536, 263.479 215.498, 274.366 217.541 C 281.662 218.910, 287.897 214.090, 288.763 206.413 C 290.031 195.161, 279.084 188.099, 269.933 194.266" stroke="none" fill="#f8f8f8" fill-rule="evenodd"/><path d="M -0 200.002 L -0 400.005 200.250 399.752 L 400.500 399.500 400.752 199.750 L 401.005 0 200.502 0 L 0 0 -0 200.002 M 0.490 200.500 C 0.490 310.500, 0.607 355.352, 0.750 300.170 C 0.893 244.989, 0.893 154.989, 0.750 100.170 C 0.607 45.352, 0.490 90.500, 0.490 200.500 M 142.357 154.992 C 136.702 157.274, 135.186 165.414, 139.646 169.548 C 146.597 175.990, 157.530 168.522, 153.917 159.799 C 152.752 156.988, 148.432 153.935, 145.800 154.063 C 145.085 154.098, 143.536 154.516, 142.357 154.992 M 223.750 159.088 L 217 163.096 217 188.870 C 217 209.801, 217.299 215.520, 218.589 219.308 C 221.188 226.934, 227.799 230.981, 237.679 230.994 C 243.270 231.002, 244.895 229.186, 244.847 222.986 L 244.808 218 240.859 218 C 237.984 218, 236.232 217.323, 234.419 215.510 C 232.045 213.136, 231.943 212.545, 232.215 202.760 L 232.500 192.500 238.798 192.201 L 245.097 191.902 244.798 186.201 L 244.500 180.500 238.250 180.202 L 232 179.905 232 167.452 C 232 160.604, 231.662 155.018, 231.250 155.040 C 230.838 155.062, 227.463 156.884, 223.750 159.088 M 77.500 178.491 C 76.950 178.675, 75.297 179.089, 73.827 179.412 C 72.357 179.735, 69.769 181.165, 68.077 182.589 L 65 185.178 65 182.589 C 65 180.034, 64.902 180, 57.500 180 L 50 180 50 205 L 50 230 57.500 230 L 65 230 65 214.056 C 65 198.679, 65.085 198.013, 67.394 195.328 C 69.287 193.128, 70.644 192.545, 73.881 192.545 C 81.047 192.545, 81.454 193.597, 81.816 213.033 L 82.132 230 89.499 230 L 96.865 230 97.183 213.525 C 97.482 197.979, 97.627 196.923, 99.755 194.798 C 102.939 191.618, 109.499 191.664, 112.107 194.884 C 113.792 196.965, 114 199.020, 114 213.611 L 114 230 121.500 230 L 129 230 128.978 211.250 C 128.959 195.163, 128.694 191.932, 127.110 188.500 C 124.569 182.993, 121.338 180.308, 115.748 179.056 C 109.620 177.682, 104.026 178.924, 98.518 182.880 L 94.292 185.914 91.511 183.011 C 89.708 181.130, 86.999 179.737, 83.815 179.054 C 81.113 178.474, 78.811 178.036, 78.701 178.079 C 78.590 178.122, 78.050 178.308, 77.500 178.491 M 271.500 179.054 C 265.174 180.287, 262.403 181.641, 257.895 185.705 C 243.489 198.693, 246.997 220.615, 264.786 228.759 C 269.519 230.926, 271.245 231.185, 278.434 230.808 C 285.371 230.444, 287.435 229.906, 291.581 227.380 C 297.565 223.734, 302.444 216.821, 303.933 209.877 C 307.851 191.607, 290.705 175.312, 271.500 179.054 M 323.564 179.086 C 309.691 182.469, 305.242 198.340, 316.017 206.012 C 317.693 207.205, 322.673 209.290, 327.084 210.645 C 331.495 211.999, 335.356 213.764, 335.664 214.567 C 336.685 217.228, 334.003 219, 328.954 219 C 325.229 219, 323.453 218.411, 321.027 216.369 C 317.934 213.766, 317.866 213.757, 314.637 215.496 C 307.862 219.145, 307.513 219.608, 309.385 222.464 C 310.300 223.861, 312.881 226.216, 315.121 227.699 C 318.583 229.990, 320.487 230.449, 327.846 230.766 C 335.391 231.091, 337.069 230.842, 340.941 228.819 C 346.712 225.806, 349.182 222.281, 349.695 216.324 C 350.413 208.006, 345.391 202.600, 334 199.425 C 325.601 197.085, 324 196.225, 324 194.057 C 324 189.650, 332.788 188.898, 336.489 192.988 C 338.231 194.913, 338.308 194.905, 342.876 192.304 C 349.400 188.589, 349.387 188.614, 346.560 185.254 C 342.152 180.015, 331.486 177.154, 323.564 179.086 M 183.500 180.665 C 181.850 181.537, 179.713 182.939, 178.750 183.780 C 177.139 185.189, 177 185.100, 177 182.655 C 177 180.018, 176.950 180, 169.500 180 L 162 180 162 205 L 162 230 169.433 230 L 176.865 230 177.183 213.525 C 177.482 197.979, 177.627 196.923, 179.755 194.798 C 183.148 191.409, 189.459 191.669, 192.606 195.328 C 194.915 198.013, 195 198.679, 195 214.056 L 195 230 202.500 230 L 210 230 209.976 213.250 C 209.944 190.563, 208.825 186.568, 201.010 181.250 C 196.998 178.519, 188.123 178.223, 183.500 180.665 M 138 205 L 138 230 145.500 230 L 153 230 153 205 L 153 180 145.500 180 L 138 180 138 205 M 269.933 194.266 C 260.629 200.536, 263.479 215.498, 274.366 217.541 C 281.662 218.910, 287.897 214.090, 288.763 206.413 C 290.031 195.161, 279.084 188.099, 269.933 194.266" stroke="none" fill="#14141b" fill-rule="evenodd"/></svg>