<svg height="512pt" viewBox="0 0 512 512" width="512pt" xmlns="http://www.w3.org/2000/svg" xmlns:xlink="http://www.w3.org/1999/xlink"><linearGradient id="a" gradientTransform="matrix(.43837115 .89879405 -.89879405 .43837115 0 0)">&gt;<stop offset="0" stop-color="#00a9ff"/><stop offset="1" stop-color="#05f"/></linearGradient><path d="m469.139 139.984-.016-.391c-.218-4.819-.363-9.919-.452-15.592-.409-27.666-22.402-50.55-50.071-52.097-57.69-3.219-102.319-22.031-140.45-59.198l-.326-.31c-12.437-11.404-31.199-11.404-43.64 0l-.326.31c-38.132 37.167-82.76 55.979-140.45 59.202-27.666 1.543-49.662 24.427-50.072 52.097-.084 5.635-.233 10.734-.452 15.588l-.023.907c-1.121 58.827-2.515 132.04 21.978 198.493 13.467 36.543 33.863 68.309 60.618 94.42 30.472 29.737 70.384 53.345 118.626 70.166 1.57.547 3.2.991 4.862 1.324 2.343.467 4.701.701 7.059.701s4.72-.234 7.059-.701c1.661-.333 3.304-.78 4.881-1.332 48.184-16.851 88.054-40.471 118.499-70.204 26.744-26.119 47.14-57.892 60.619-94.443 24.584-66.652 23.194-140.003 22.077-198.94z" fill="url(#a)"/></svg>