<svg width="500" height="500" viewBox="0 0 500 500" fill="none" xmlns="http://www.w3.org/2000/svg">
<path d="M51.085 226.924C51.085 226.924 96.2921 159.994 186.556 153.069V128.787C86.5773 136.844 0 221.814 0 221.814C0 221.814 49.0359 364.059 186.556 377.083V351.273C85.6371 338.533 51.085 226.924 51.085 226.924ZM186.556 299.942V323.58C110.284 309.935 89.1125 230.375 89.1125 230.375C89.1125 230.375 125.734 189.666 186.556 183.064V209.002C186.509 209.002 186.477 208.988 186.439 208.988C154.516 205.143 129.579 235.068 129.579 235.068C129.579 235.068 143.556 285.445 186.556 299.942ZM186.556 84V128.787C189.491 128.561 192.425 128.37 195.376 128.269C309.041 124.425 383.101 221.814 383.101 221.814C383.101 221.814 298.041 325.604 209.422 325.604C201.301 325.604 193.697 324.848 186.556 323.578V351.273C192.662 352.051 198.994 352.508 205.601 352.508C288.067 352.508 347.703 310.247 405.45 260.229C415.024 267.923 454.22 286.642 462.278 294.836C407.372 340.964 279.411 378.147 206.865 378.147C199.872 378.147 193.157 377.722 186.556 377.083V416H500V84H186.556ZM186.556 183.064V153.069C189.46 152.866 192.387 152.711 195.376 152.616C277.112 150.04 330.737 223.098 330.737 223.098C330.737 223.098 272.818 303.817 210.716 303.817C201.779 303.817 193.767 302.375 186.556 299.942V209.002C218.376 212.86 224.778 226.964 243.908 258.965L286.456 222.965C286.456 222.965 255.397 182.091 203.04 182.091C197.349 182.089 191.903 182.49 186.556 183.064Z" fill="#76B900"/>
</svg>
