<svg width="500" height="501" viewBox="0 0 500 501" fill="none" xmlns="http://www.w3.org/2000/svg">
<path d="M444.841 230.226C433.409 295.397 380.239 344.658 310.466 344.658H266.171C257.137 344.658 248.034 353.022 246.591 362.272L227.193 485.397C226.068 492.408 222.784 494.738 215.682 494.738H144.432C137.227 494.738 135.523 492.329 136.602 485.226L144.784 400.079L59.2615 395.658C52.0683 395.658 49.4661 391.738 50.4888 384.556L108.841 14.5559C109.966 7.54457 114.33 4.5332 121.409 4.5332H269.398C340.637 4.5332 385.705 52.4877 391.216 114.67C433.602 143.306 453.421 181.408 444.852 230.215L444.841 230.226Z" fill="#001C64"/>
<path d="M166.466 262.218L144.796 400.093L131.091 486.593C130.837 488.261 130.944 489.964 131.406 491.586C131.869 493.209 132.675 494.713 133.77 495.996C134.866 497.279 136.225 498.311 137.755 499.022C139.284 499.733 140.95 500.106 142.637 500.116H217.887C221.321 500.112 224.642 498.883 227.252 496.65C229.862 494.417 231.59 491.327 232.125 487.934L251.932 362.252C252.47 358.862 254.199 355.774 256.809 353.543C259.418 351.313 262.738 350.085 266.171 350.082H310.466C344.219 350.038 376.846 337.938 402.465 315.962C428.085 293.987 445.011 263.582 450.193 230.23C457.864 181.286 433.239 136.73 391.091 114.718C390.996 119.933 390.54 125.135 389.727 130.286C384.526 163.622 367.593 194.005 341.979 215.963C316.364 237.922 283.75 250.013 250.012 250.059H180.693C177.263 250.06 173.945 251.286 171.337 253.515C168.729 255.743 167.002 258.83 166.466 262.218Z" fill="#0070E0"/>
<path d="M144.784 400.091H57.1589C55.4683 400.083 53.7994 399.71 52.2659 398.999C50.7323 398.287 49.3702 397.253 48.2723 395.968C47.1744 394.682 46.3666 393.175 45.9038 391.549C45.441 389.923 45.3343 388.216 45.5907 386.545L104.636 12.1818C105.167 8.78906 106.892 5.69742 109.501 3.46396C112.109 1.23049 115.429 0.00205876 118.863 0H269.318C340.557 0 392.352 51.8409 391.136 114.648C372.175 104.866 351.119 99.8462 329.784 100.023H204.352C200.917 100.024 197.595 101.25 194.983 103.48C192.371 105.711 190.64 108.801 190.102 112.193L166.466 262.216L144.784 400.091Z" fill="#003087"/>
</svg>
