<svg width="500" height="500" viewBox="0 0 500 500" fill="none" xmlns="http://www.w3.org/2000/svg">
<path d="M446.258 230.173C434.83 295.328 381.676 344.578 311.926 344.578H267.645C258.614 344.578 249.514 352.94 248.072 362.188L228.68 485.284C227.555 492.294 224.272 494.623 217.172 494.623H145.945C138.743 494.623 137.039 492.214 138.118 485.114L146.298 399.986L60.8024 395.566C53.6116 395.566 51.0102 391.647 52.0325 384.467L110.366 14.5526C111.491 7.54283 115.853 4.53217 122.93 4.53217H270.871C342.087 4.53217 387.14 52.4756 392.65 114.643C435.023 143.273 454.834 181.366 446.269 230.162L446.258 230.173Z" fill="#001C64"/>
<path d="M167.972 262.157L146.309 400L132.609 486.48C132.354 488.148 132.462 489.85 132.924 491.472C133.386 493.094 134.192 494.598 135.287 495.881C136.382 497.163 137.741 498.195 139.27 498.906C140.8 499.617 142.464 499.99 144.151 500H219.376C222.81 499.996 226.13 498.767 228.739 496.535C231.348 494.303 233.075 491.213 233.61 487.821L253.411 362.168C253.949 358.778 255.677 355.691 258.286 353.461C260.895 351.231 264.213 350.004 267.645 350.001H311.926C345.668 349.957 378.285 337.859 403.896 315.889C429.507 293.919 446.428 263.521 451.608 230.176C459.276 181.244 434.659 136.698 392.525 114.692C392.43 119.905 391.974 125.106 391.162 130.256C385.962 163.584 369.035 193.96 343.428 215.913C317.822 237.867 285.219 249.955 251.491 250.001H182.195C178.766 250.002 175.449 251.227 172.842 253.456C170.235 255.684 168.508 258.77 167.972 262.157Z" fill="#0070E0"/>
<path d="M146.297 399.998H58.7005C57.0105 399.99 55.3422 399.617 53.8091 398.906C52.276 398.195 50.9144 397.161 49.8168 395.876C48.7193 394.591 47.9117 393.084 47.4491 391.458C46.9864 389.833 46.8797 388.126 47.1361 386.456L106.163 12.179C106.693 8.78702 108.418 5.6961 111.025 3.46315C113.633 1.23021 116.952 0.00205828 120.385 0H270.791C342.007 0 393.786 51.8289 392.57 114.621C373.615 104.841 352.565 99.8231 331.238 99.9995H205.846C202.412 100 199.091 101.226 196.48 103.456C193.869 105.687 192.139 108.775 191.601 112.167L167.972 262.155L146.297 399.998Z" fill="#003087"/>
</svg>
