<svg width="500" height="500" viewBox="0 0 500 500" fill="none" xmlns="http://www.w3.org/2000/svg">
<path d="M444.796 230.173C433.366 295.328 380.208 344.578 310.452 344.578H266.167C257.135 344.578 248.034 352.94 246.592 362.188L227.198 485.284C226.074 492.294 222.79 494.623 215.69 494.623H144.456C137.253 494.623 135.549 492.215 136.628 485.114L144.808 399.986L59.3055 395.566C52.1139 395.566 49.5123 391.647 50.5348 384.467L108.874 14.5526C109.998 7.54289 114.361 4.53223 121.439 4.53223H269.393C340.615 4.53223 385.673 52.4756 391.183 114.643C433.559 143.273 453.373 181.366 444.807 230.162L444.796 230.173Z" fill="#001C64"/>
<path d="M166.485 262.157L144.82 400L131.118 486.48C130.864 488.147 130.971 489.85 131.434 491.472C131.896 493.094 132.702 494.598 133.797 495.88C134.892 497.163 136.251 498.195 137.78 498.906C139.31 499.617 140.974 499.99 142.661 500H217.894C221.327 499.996 224.647 498.767 227.257 496.535C229.866 494.302 231.594 491.213 232.129 487.821L251.931 362.168C252.469 358.778 254.198 355.691 256.807 353.461C259.416 351.231 262.734 350.004 266.166 350H310.452C344.197 349.956 376.816 337.859 402.43 315.889C428.043 293.919 444.966 263.521 450.146 230.176C457.815 181.244 433.196 136.698 391.058 114.691C390.963 119.905 390.507 125.105 389.695 130.256C384.495 163.584 367.566 193.959 341.957 215.913C316.348 237.866 283.742 249.955 250.011 250.001H180.709C177.279 250.002 173.962 251.227 171.355 253.455C168.747 255.684 167.021 258.769 166.485 262.157Z" fill="#0070E0"/>
<path d="M144.808 399.998H57.2033C55.5131 399.99 53.8446 399.617 52.3114 398.906C50.7782 398.195 49.4164 397.161 48.3188 395.876C47.2211 394.591 46.4135 393.084 45.9508 391.458C45.4882 389.833 45.3814 388.126 45.6378 386.456L104.67 12.179C105.2 8.78702 106.925 5.6961 109.533 3.46315C112.141 1.23021 115.46 0.00205828 118.894 0H269.313C340.535 0 392.319 51.8289 391.103 114.621C372.147 104.841 351.095 99.8231 329.765 99.9995H204.362C200.928 100 197.607 101.226 194.995 103.456C192.384 105.687 190.654 108.775 190.116 112.167L166.485 262.155L144.808 399.998Z" fill="#003087"/>
</svg>
