<svg xmlns="http://www.w3.org/2000/svg" xmlns:xlink="http://www.w3.org/1999/xlink" width="100%" height="100%" version="1.1" viewBox="0 0 33 34" xml:space="preserve" style="fill-rule:evenodd;clip-rule:evenodd;stroke-linejoin:round;stroke-miterlimit:2"><path d="M4.581,4.337c-0.113,0.379 -0.049,0.822 0.077,1.707l1.604,11.224c0.277,1.939 0.415,2.909 0.782,3.775c0.325,0.768 0.781,1.474 1.346,2.087c0.638,0.691 1.465,1.217 3.117,2.269l2.349,1.495c1.126,0.716 1.69,1.075 2.295,1.214c0.465,0.108 0.947,0.121 1.416,0.042c-0.388,-0.887 -0.603,-1.867 -0.603,-2.897c0,-3.996 3.24,-7.236 7.236,-7.236c1.166,0 2.268,0.276 3.243,0.766c0.069,-0.432 0.14,-0.929 0.223,-1.514l0,-0.001l1.604,-11.224c0.126,-0.885 0.19,-1.328 0.077,-1.707c-0.099,-0.334 -0.292,-0.632 -0.557,-0.859c-0.3,-0.257 -0.73,-0.38 -1.59,-0.626l-9.441,-2.697c-0.296,-0.085 -0.444,-0.127 -0.594,-0.144c-0.134,-0.015 -0.268,-0.015 -0.402,0c-0.15,0.017 -0.298,0.059 -0.594,0.144l-9.441,2.697c-0.86,0.246 -1.29,0.369 -1.59,0.626c-0.265,0.227 -0.458,0.525 -0.557,0.859Z" style="fill:#ffd06f"/><path d="M13.246,2.719c0.066,-0.007 0.134,-0.007 0.201,0c0.057,0.007 0.122,0.022 0.446,0.114l9.44,2.698c0.444,0.126 0.727,0.208 0.94,0.287c0.202,0.075 0.274,0.124 0.311,0.156c0.132,0.113 0.229,0.262 0.278,0.429c0.014,0.047 0.03,0.133 0.016,0.348c-0.015,0.226 -0.056,0.518 -0.122,0.974l-1.346,9.426c-4.125,0.397 -7.351,3.873 -7.351,8.102c0,0.835 0.126,1.641 0.36,2.4l-0.451,0.286c-1.183,0.753 -1.594,1.001 -2.012,1.097c-0.401,0.092 -0.818,0.092 -1.22,0c-0.417,-0.096 -0.829,-0.344 -2.012,-1.097l-2.349,-1.494c-1.693,-1.078 -2.398,-1.535 -2.938,-2.12c-0.495,-0.536 -0.894,-1.153 -1.178,-1.825c-0.31,-0.733 -0.436,-1.564 -0.72,-3.551l-1.603,-11.224c-0.066,-0.456 -0.107,-0.748 -0.121,-0.974c-0.015,-0.215 0.001,-0.301 0.015,-0.348c0.05,-0.167 0.146,-0.316 0.279,-0.429c0.036,-0.032 0.109,-0.081 0.31,-0.156c0.213,-0.079 0.496,-0.161 0.94,-0.287l9.44,-2.698c0.324,-0.092 0.389,-0.107 0.447,-0.114Zm13.306,5.231l-1.318,9.228c4.007,0.508 7.106,3.93 7.106,8.075c0,4.496 -3.644,8.141 -8.14,8.141c-3.01,0 -5.639,-1.634 -7.048,-4.064l-0.212,0.136l-0.135,0.085c-0.996,0.634 -1.683,1.072 -2.443,1.248c-0.668,0.154 -1.364,0.154 -2.032,0c-0.76,-0.176 -1.447,-0.614 -2.443,-1.248l-0.134,-0.085l-2.466,-1.57l0,0c-1.541,-0.98 -2.461,-1.565 -3.179,-2.344c-0.637,-0.689 -1.149,-1.483 -1.515,-2.347c-0.413,-0.976 -0.567,-2.054 -0.825,-3.863l-1.628,-11.392c-0.059,-0.416 -0.111,-0.778 -0.131,-1.081c-0.021,-0.323 -0.012,-0.648 0.087,-0.98c0.148,-0.501 0.439,-0.949 0.835,-1.289c0.264,-0.226 0.557,-0.366 0.86,-0.478c0.285,-0.106 0.636,-0.206 1.04,-0.322l0.031,-0.009l9.44,-2.697l0.05,-0.014c0.247,-0.071 0.465,-0.133 0.693,-0.159c0.2,-0.022 0.402,-0.022 0.603,0c0.227,0.026 0.445,0.088 0.692,0.159l0.05,0.014l9.471,2.706c0.404,0.116 0.755,0.216 1.04,0.322c0.304,0.112 0.596,0.252 0.86,0.478c0.397,0.34 0.687,0.788 0.835,1.289c0.099,0.332 0.108,0.657 0.087,0.98c-0.02,0.303 -0.072,0.665 -0.131,1.08l0,0.001Zm-2.352,10.972c-3.497,0 -6.332,2.835 -6.332,6.331c0,3.497 2.835,6.332 6.332,6.332c3.497,0 6.331,-2.835 6.331,-6.332c0,-3.496 -2.834,-6.331 -6.331,-6.331Zm4.313,4.197c0.319,-0.384 0.268,-0.954 -0.116,-1.274c-0.384,-0.32 -0.954,-0.268 -1.274,0.116l-3.888,4.666l-2.013,-2.013c-0.354,-0.353 -0.926,-0.353 -1.28,0c-0.353,0.353 -0.353,0.926 0,1.279l2.714,2.713c0.18,0.18 0.427,0.276 0.68,0.264c0.254,-0.011 0.492,-0.129 0.654,-0.324l4.523,-5.427Zm-19.689,-10.529c0,-2.497 2.024,-4.522 4.522,-4.522c2.498,0 4.522,2.025 4.522,4.522c0,1.48 -0.71,2.794 -1.809,3.619l0,3.617c0,1.499 -1.214,2.714 -2.713,2.714c-1.499,0 -2.713,-1.215 -2.713,-2.714l0,-3.617c-1.099,-0.825 -1.809,-2.139 -1.809,-3.619Zm5.426,4.523l-1.808,0l0,2.713c0,0.5 0.405,0.905 0.904,0.905c0.5,0 0.904,-0.405 0.904,-0.905l0,-2.713Zm-0.904,-1.809c1.499,0 2.713,-1.215 2.713,-2.714c0,-1.498 -1.214,-2.713 -2.713,-2.713c-1.499,0 -2.713,1.215 -2.713,2.713c0,1.499 1.214,2.714 2.713,2.714Z" style="fill:#28323f"/></svg>