<svg width="500" height="500" viewBox="0 0 500 500" fill="none" xmlns="http://www.w3.org/2000/svg">
<path fill-rule="evenodd" clip-rule="evenodd" d="M0 388.755L126.571 249.665L0 110.571C13.9095 96.6616 33.3816 87.8523 54.7141 87.8523C77.4297 87.8523 97.3643 97.5937 111.274 112.89L181.281 189.854L235.992 249.665L181.281 309.942L111.274 386.902C97.3643 402.202 77.4297 411.94 54.7141 411.94C33.3816 411.94 13.9095 403.127 0 388.755ZM500 388.757L373.43 249.667L500 110.573C486.091 96.6633 466.619 87.8536 445.286 87.8536C422.571 87.8536 402.636 97.5956 388.726 112.892L318.719 189.856L264.008 249.667L318.719 309.943L388.726 386.904C402.636 402.204 422.571 411.942 445.286 411.942C466.619 411.942 486.091 403.128 500 388.757Z" fill="#E57000"/>
<g style="mix-blend-mode:difference">
<path fill-rule="evenodd" clip-rule="evenodd" d="M249.934 235.708L299.87 180.692L415.394 53.7358C402.7 41.0404 384.926 33 365.456 33C344.722 33 326.528 41.8913 313.83 55.8522L249.934 126.1L185.607 55.8522C172.491 41.4659 155.138 33 134.4 33C114.941 33 97.163 41.0404 84.4681 53.7358L199.996 180.692L249.934 235.708ZM249.937 263.615L299.873 318.631L415.398 445.588C402.703 458.283 384.929 466.323 365.459 466.323C344.725 466.323 326.531 457.432 313.834 443.471L249.937 373.224L185.61 443.471C172.494 457.857 155.141 466.323 134.403 466.323C114.944 466.323 97.1661 458.283 84.4713 445.588L200 318.631L249.937 263.615Z" fill="white"/>
</g>
</svg>
