<svg xmlns="http://www.w3.org/2000/svg" width="193.733" height="37.438" viewBox="0 0 193.733 37.438"><path d="M23.393,1.382c0,2.787-1.52,4.46-4.764,4.46H13.258V-2.977H18.63C21.873-2.977,23.393-1.254,23.393,1.382Zm-24-11.555,5.2,7.213V25.4h8.666V11.973h2.078l7.4,13.43h9.781l-8.21-14.089A10.355,10.355,0,0,0,32.212,1.027c0-6.183-4.358-11.2-13.075-11.2Zm60.035,0H37.634V25.4H59.426V18.46H46.3v-7.8H57.906V3.966H46.3V-2.969H59.426Zm20.981,26.86-8.818-26.86H62.365L74.984,25.4H85.83L98.449-10.173H89.276Zm56.659-9.173c0-10.693-8.058-18.194-18.194-18.194-10.085,0-18.3,7.5-18.3,18.194a17.9,17.9,0,0,0,18.3,18.244A17.815,17.815,0,0,0,137.066,7.514Zm-27.62,0c0-6.335,3.649-10.338,9.426-10.338,5.676,0,9.376,4,9.376,10.338,0,6.233-3.7,10.338-9.376,10.338C113.095,17.852,109.446,13.747,109.446,7.514ZM141.88-10.173V25.4H161.9v-6.95H150.545V-10.173Zm22.248,7.2h9.426V25.4h8.666V-2.975h9.426v-7.2H164.128Z" transform="translate(1.586 11.18)" stroke-width="1"/></svg>