<svg width="500" height="500" xmlns="http://www.w3.org/2000/svg" xmlns:undefined="http://sodipodi.sourceforge.net/DTD/sodipodi-0.dtd" xmlns:undefined="http://www.inkscape.org/namespaces/inkscape" version="1.1">

 <g>
  <title>Layer 1</title>
  <g id="svg_1">
   <path id="path1" d="m250,17.37573c-128.246,0 -232.62427,104.42748 -232.62427,232.62427s104.42748,232.62427 232.62427,232.62427s232.62427,-104.42748 232.62427,-232.62427s-104.42748,-232.62427 -232.62427,-232.62427zm-0.34448,20.66896a15.25566,15.30488 0 0 1 14.86197,15.30488a15.30488,15.30488 0 0 1 -30.60975,0a15.30488,15.30488 0 0 1 15.74778,-15.30488zm35.03881,25.19645a188.33363,188.33363 0 0 1 128.93497,91.82925l-18.06074,40.74739c-3.10034,7.03729 0.09842,15.30488 7.0865,18.45443l34.74354,15.4033a188.33363,188.33363 0 0 1 0.39369,32.67665l-19.34024,0c-1.91926,0 -2.70665,1.27951 -2.70665,3.14956l0,8.85813c0,20.86581 -11.76162,25.44251 -22.09611,26.57438c-9.84236,1.13187 -20.71818,-4.13379 -22.09611,-10.13763c-5.80699,-32.62744 -15.45251,-39.5663 -30.70817,-51.6232c18.94655,-12.00768 38.63128,-29.77315 38.63128,-53.49325c0,-25.63936 -17.56862,-41.78083 -29.52709,-49.70394c-16.83044,-11.07266 -35.43251,-13.28719 -40.45212,-13.28719l-199.79998,0a188.33363,188.33363 0 0 1 105.3625,-59.44788l23.57246,24.70433c5.31488,5.56094 14.12379,5.80699 19.68473,0.44291l26.37753,-25.14724zm-217.51624,113.28561a15.30488,15.30488 0 0 1 14.86197,15.30488a15.30488,15.30488 0 0 1 -30.60975,0a15.30488,15.30488 0 0 1 15.74778,-15.30488zm364.90564,0.68897a15.30488,15.30488 0 0 1 14.86197,15.30488a15.30488,15.30488 0 0 1 -30.60975,0a15.30488,15.30488 0 0 1 15.74778,-15.30488zm-336.06751,2.46059l26.67281,0l0,120.27369l-53.83773,0a188.33363,188.33363 0 0 1 -6.10227,-71.89847l32.97192,-14.66512c7.03729,-3.14956 10.23606,-11.36793 7.0865,-18.40522l-6.79123,-15.30488zm111.31713,1.27951l63.53246,0c3.29719,0 23.17877,3.78931 23.17877,18.70049c0,12.35217 -15.25566,16.78123 -27.80468,16.78123l-58.95576,0l0.04921,-35.48172zm0,86.41595l48.67049,0c4.42906,0 23.76931,1.27951 29.92079,25.98384c1.91926,7.57862 6.20069,32.28295 9.10419,40.20606c2.9035,8.85813 14.66512,26.57438 27.21414,26.57438l79.42788,0a188.33363,188.33363 0 0 1 -17.42098,20.17685l-32.33216,-6.93887c-7.52941,-1.62399 -14.96039,3.19877 -16.58438,10.72818l-7.67704,35.8262a188.33363,188.33363 0 0 1 -157.03491,-0.73818l-7.67704,-35.8262c-1.62399,-7.52941 -9.00576,-12.35217 -16.53517,-10.72818l-31.6432,6.79123a188.33363,188.33363 0 0 1 -16.33832,-19.29103l153.88536,0c1.72241,0 2.9035,-0.29527 2.9035,-1.91926l0,-54.42827c0,-1.57478 -1.18108,-1.91926 -2.9035,-1.91926l-45.02881,0l0.04921,-34.49748zm-71.01265,124.65354a15.30488,15.30488 0 0 1 14.86197,15.30488a15.30488,15.30488 0 0 1 -30.60975,0a15.30488,15.30488 0 0 1 15.74778,-15.30488zm226.62043,0.68897a15.30488,15.30488 0 0 1 14.86197,15.30488a15.30488,15.30488 0 0 1 -30.60975,0a15.30488,15.30488 0 0 1 15.74778,-15.30488z"/>
   <path id="path2" stroke-width="3" stroke-linejoin="round" stroke-linecap="round" stroke="#000" fill-rule="evenodd" d="m469.63234,250a219.63235,219.63235 0 0 1 -219.63235,219.63235a219.63235,219.63235 0 0 1 -219.63235,-219.63235a219.63235,219.63235 0 0 1 219.63235,-219.63235a219.63235,219.63235 0 0 1 219.63235,219.63235zm-4.13379,-21.21029l34.25143,21.21029l-34.25143,21.21029l29.42867,27.50941l-37.69625,14.12379l23.52325,32.72586l-39.81236,6.49596l16.73202,36.71202l-40.30448,-1.42714l9.25182,39.27103l-39.27103,-9.25182l1.42714,40.30448l-36.71202,-16.73202l-6.49596,39.81236l-32.72586,-23.52325l-14.12379,37.69625l-27.50941,-29.42867l-21.21029,34.25143l-21.21029,-34.25143l-27.50941,29.42867l-14.12379,-37.69625l-32.72586,23.52325l-6.49596,-39.81236l-36.71202,16.73202l1.42714,-40.30448l-39.27103,9.25182l9.25182,-39.27103l-40.30448,1.42714l16.73202,-36.71202l-39.81236,-6.49596l23.52325,-32.72586l-37.69625,-14.12379l29.42867,-27.50941l-34.25143,-21.21029l34.25143,-21.21029l-29.42867,-27.50941l37.69625,-14.12379l-23.52325,-32.72586l39.81236,-6.49596l-16.73202,-36.71202l40.30448,1.42714l-9.25182,-39.27103l39.27103,9.25182l-1.42714,-40.30448l36.71202,16.73202l6.49596,-39.81236l32.72586,23.52325l14.12379,-37.69625l27.50941,29.42867l21.21029,-34.25143l21.21029,34.25143l27.50941,-29.42867l14.12379,37.69625l32.72586,-23.52325l6.49596,39.81236l36.71202,-16.73202l-1.42714,40.30448l39.27103,-9.25182l-9.25182,39.27103l40.30448,-1.42714l-16.73202,36.71202l39.81236,6.49596l-23.52325,32.72586l37.69625,14.12379l-29.42867,27.50941z"/>
  </g>
 </g>
</svg>