<?xml version="1.0" encoding="UTF-8" standalone="no"?>
<svg
   version="1.1"
   width="96"
   height="96"
   viewBox="0 0 96 96"
   xml:space="preserve"
   id="svg2"
   sodipodi:docname="rust.svg"
   inkscape:version="1.3.2 (091e20e, 2023-11-25, custom)"
   xmlns:inkscape="http://www.inkscape.org/namespaces/inkscape"
   xmlns:sodipodi="http://sodipodi.sourceforge.net/DTD/sodipodi-0.dtd"
   xmlns="http://www.w3.org/2000/svg"
   xmlns:svg="http://www.w3.org/2000/svg"><sodipodi:namedview
   id="namedview2"
   pagecolor="#ffffff"
   bordercolor="#000000"
   borderopacity="0.25"
   inkscape:showpageshadow="2"
   inkscape:pageopacity="0.0"
   inkscape:pagecheckerboard="0"
   inkscape:deskcolor="#d1d1d1"
   inkscape:zoom="8.09375"
   inkscape:cx="48"
   inkscape:cy="47.876448"
   inkscape:window-width="1920"
   inkscape:window-height="991"
   inkscape:window-x="-9"
   inkscape:window-y="-9"
   inkscape:window-maximized="1"
   inkscape:current-layer="svg2" />
<desc
   id="desc1">Created with Fabric.js 5.3.0</desc>
<defs
   id="defs1">
</defs>
<g
   transform="matrix(0.61244177,0,0,0.61244177,48.58182,48.643064)"
   id="d0KfchOoJLd1am88Nf2bl">
<g
   id="g2">
		<g
   transform="translate(-0.95,-1.05)"
   id="CssRuECJ6utZ-6lKixFij">
<path
   style="opacity:1;fill:#000000;fill-rule:nonzero;stroke:none;stroke-width:1;stroke-linecap:butt;stroke-linejoin:miter;stroke-miterlimit:4;stroke-dasharray:none;stroke-dashoffset:0"
   transform="translate(-71.05,-70.95)"
   d="M 71.05,23.68 C 44.99,23.68 23.78,44.9 23.78,70.95 23.78,97 45,118.22 71.05,118.22 97.1,118.22 118.32,97 118.32,70.95 118.32,44.9 97.1,23.68 71.05,23.68 Z m -0.07,4.2 c 1.680761,0.04353 3.02056,1.423255 3.02,3.11 0,1.717606 -1.392394,3.11 -3.11,3.11 -1.717606,0 -3.11,-1.392394 -3.11,-3.11 -3.52e-4,-0.840656 0.339633,-1.645648 0.942484,-2.231544 C 69.325335,28.172561 70.139696,27.855672 70.98,27.88 Z M 78.1,33 c 11.050222,2.069744 20.631432,8.893613 26.2,18.66 l -3.67,8.28 c -0.63,1.43 0.02,3.11 1.44,3.75 l 7.06,3.13 c 0.219,2.206835 0.24577,4.428529 0.08,6.64 h -3.93 c -0.39,0 -0.55,0.26 -0.55,0.64 v 1.8 c 0,4.24 -2.39,5.17 -4.49,5.4 -2,0.23 -4.21,-0.84 -4.49,-2.06 -1.18,-6.63 -3.14,-8.04 -6.24,-10.49 3.85,-2.44 7.85,-6.05 7.85,-10.87 0,-5.21 -3.57,-8.49 -6,-10.1 -3.42,-2.25 -7.2,-2.7 -8.22,-2.7 H 42.54 C 48.154011,38.808406 55.67907,34.5626 63.95,33 l 4.79,5.02 c 1.08,1.13 2.87,1.18 4,0.09 z M 33.9,56.02 c 1.682359,0.04871 3.020705,1.426936 3.02,3.11 0,1.717606 -1.392394,3.11 -3.11,3.11 -1.717606,0 -3.11,-1.392394 -3.11,-3.11 -3.52e-4,-0.840656 0.339633,-1.645648 0.942484,-2.231544 C 32.245335,56.312561 33.059696,55.995672 33.9,56.02 Z m 74.15,0.14 c 1.68236,0.04871 3.0207,1.426936 3.02,3.11 0,1.717606 -1.39239,3.11 -3.11,3.11 -1.71761,0 -3.11,-1.392394 -3.11,-3.11 -3.5e-4,-0.840656 0.33963,-1.645648 0.94248,-2.231544 0.60285,-0.585895 1.41722,-0.902784 2.25752,-0.878456 z m -68.29,0.5 h 5.42 V 81.1 H 34.24 C 32.88888,76.35544 32.46782,71.394402 33,66.49 l 6.7,-2.98 c 1.43,-0.64 2.08,-2.31 1.44,-3.74 z m 22.62,0.26 h 12.91 c 0.67,0 4.71,0.77 4.71,3.8 0,2.51 -3.1,3.41 -5.65,3.41 H 62.37 Z m 0,17.56 h 9.89 c 0.9,0 4.83,0.26 6.08,5.28 0.39,1.54 1.26,6.56 1.85,8.17 0.59,1.8 2.98,5.4 5.53,5.4 h 16.14 c -1.08168,1.448565 -2.26464,2.818663 -3.54,4.1 l -6.57,-1.41 c -1.53,-0.33 -3.04,0.65 -3.37,2.18 l -1.56,7.28 c -10.151161,4.59844 -21.802519,4.54367 -31.91,-0.15 L 53.36,98.05 C 53.03,96.52 51.53,95.54 50,95.87 l -6.43,1.38 c -1.193214,-1.230834 -2.302379,-2.54045 -3.32,-3.92 h 31.27 c 0.35,0 0.59,-0.06 0.59,-0.39 V 81.88 c 0,-0.32 -0.24,-0.39 -0.59,-0.39 H 62.37 Z M 47.95,99.81 c 1.682359,0.04871 3.020705,1.42694 3.02,3.11 0,1.71761 -1.392394,3.11 -3.11,3.11 -1.717606,0 -3.11,-1.39239 -3.11,-3.11 -3.52e-4,-0.84066 0.339633,-1.64565 0.942484,-2.23154 C 46.295335,100.10256 47.109696,99.785672 47.95,99.81 Z M 94,99.95 c 1.682359,0.04871 3.020705,1.42694 3.02,3.11 0,1.71761 -1.392394,3.11 -3.11,3.11 -1.717606,0 -3.11,-1.39239 -3.11,-3.11 -3.52e-4,-0.84066 0.339633,-1.64565 0.942484,-2.23154 C 92.345335,100.24256 93.159696,99.925672 94,99.95 Z"
   stroke-linecap="round"
   id="path1" />
</g>
		<g
   transform="translate(-0.95,-1.05)"
   id="Sz8Hb_caEIP6YkrZ7l00L">
<path
   style="opacity:1;fill:#000000;fill-rule:evenodd;stroke:#000000;stroke-width:3;stroke-linecap:round;stroke-linejoin:round;stroke-miterlimit:4;stroke-dasharray:none;stroke-dashoffset:0"
   transform="translate(-71.05,-70.95)"
   d="m 115.68,70.95 c 0,11.836612 -4.70208,23.188427 -13.07182,31.55818 C 94.238427,110.87792 82.886612,115.58 71.05,115.58 c -24.648468,0 -44.63,-19.981532 -44.63,-44.63 0,-24.648468 19.981532,-44.63 44.63,-44.63 24.648468,0 44.63,19.981532 44.63,44.63 z m -0.84,-4.31 6.96,4.31 -6.96,4.31 5.98,5.59 -7.66,2.87 4.78,6.65 -8.09,1.32 3.4,7.46 -8.19,-0.29 1.88,7.98 -7.98,-1.88 0.29,8.19 -7.46,-3.4 -1.32,8.09 -6.65,-4.78 -2.87,7.66 -5.59,-5.98 -4.31,6.96 -4.31,-6.96 -5.59,5.98 -2.87,-7.66 -6.65,4.78 -1.32,-8.09 -7.46,3.4 0.29,-8.19 -7.98,1.88 1.88,-7.98 -8.19,0.29 3.4,-7.46 -8.09,-1.32 4.78,-6.65 -7.66,-2.87 5.98,-5.59 -6.96,-4.31 6.96,-4.31 -5.98,-5.59 7.66,-2.87 -4.78,-6.65 8.09,-1.32 -3.4,-7.46 8.19,0.29 -1.88,-7.98 7.98,1.88 -0.29,-8.19 7.46,3.4 1.32,-8.09 6.65,4.78 2.87,-7.66 5.59,5.98 4.31,-6.96 4.31,6.96 5.59,-5.98 2.87,7.66 6.65,-4.78 1.32,8.09 7.46,-3.4 -0.29,8.19 7.98,-1.88 -1.88,7.98 8.19,-0.29 -3.4,7.46 8.09,1.32 -4.78,6.65 7.66,2.87 z"
   stroke-linecap="round"
   id="path2" />
</g>
</g>
</g>
</svg>
