<svg xmlns="http://www.w3.org/2000/svg" viewBox="0 0 500 500">
  <path d="M250 17.376C121.754 17.376 17.376 121.803 17.376 250S121.803 482.624 250 482.624 482.624 378.197 482.624 250 378.197 17.376 250 17.376zm-.344 20.669a15.256 15.305 0 0 1 14.861 15.305 15.305 15.305 0 0 1-30.61 0 15.305 15.305 0 0 1 15.749-15.305zm35.038 25.196a188.334 188.334 0 0 1 128.935 91.83l-18.06 40.747c-3.1 7.037.098 15.305 7.086 18.454l34.744 15.404a188.334 188.334 0 0 1 .393 32.676h-19.34c-1.92 0-2.707 1.28-2.707 3.15v8.858c0 20.866-11.761 25.442-22.096 26.574-9.842 1.132-20.718-4.134-22.096-10.137-5.807-32.628-15.452-39.567-30.708-51.624 18.947-12.007 38.631-29.773 38.631-53.493 0-25.64-17.568-41.78-29.527-49.704-16.83-11.072-35.432-13.287-40.452-13.287h-199.8A188.334 188.334 0 0 1 215.06 63.241l23.572 24.704c5.315 5.561 14.124 5.807 19.685.443l26.377-25.147zM67.178 176.527a15.305 15.305 0 0 1 14.862 15.305 15.305 15.305 0 0 1-30.61 0 15.305 15.305 0 0 1 15.748-15.305zm364.906.689a15.305 15.305 0 0 1 14.862 15.305 15.305 15.305 0 0 1-30.61 0 15.305 15.305 0 0 1 15.748-15.305zm-336.068 2.46h26.673V299.95H68.851a188.334 188.334 0 0 1-6.102-71.898l32.972-14.666c7.037-3.15 10.236-11.368 7.086-18.405l-6.79-15.305zm111.317 1.28h63.533c3.297 0 23.179 3.79 23.179 18.7 0 12.352-15.256 16.782-27.805 16.782h-58.956l.05-35.482zm0 86.416h48.67c4.43 0 23.77 1.28 29.922 25.984 1.919 7.578 6.2 32.283 9.104 40.206 2.903 8.858 14.665 26.574 27.214 26.574h79.428a188.334 188.334 0 0 1-17.421 20.177l-32.332-6.939c-7.53-1.624-14.96 3.199-16.585 10.728l-7.677 35.826a188.334 188.334 0 0 1-157.035-.738l-7.677-35.826c-1.624-7.53-9.005-12.352-16.535-10.728l-31.643 6.791a188.334 188.334 0 0 1-16.338-19.291h153.885c1.722 0 2.904-.295 2.904-1.92V303.79c0-1.575-1.182-1.92-2.904-1.92h-45.029l.05-34.497zm-71.012 124.653a15.305 15.305 0 0 1 14.862 15.305 15.305 15.305 0 0 1-30.61 0 15.305 15.305 0 0 1 15.748-15.305zm226.62.69a15.305 15.305 0 0 1 14.862 15.304 15.305 15.305 0 0 1-30.61 0 15.305 15.305 0 0 1 15.748-15.305z"/>
  <path fill-rule="evenodd" stroke="#000" stroke-linecap="round" stroke-linejoin="round" stroke-width="3" d="M469.632 250A219.632 219.632 0 0 1 250 469.632 219.632 219.632 0 0 1 30.368 250 219.632 219.632 0 0 1 250 30.368 219.632 219.632 0 0 1 469.632 250zm-4.133-21.21L499.75 250l-34.251 21.21 29.428 27.51-37.696 14.123 23.523 32.726-39.812 6.496 16.732 36.712-40.305-1.427 9.252 39.271-39.27-9.252 1.426 40.305-36.712-16.732-6.496 39.812-32.726-23.523-14.123 37.696-27.51-29.428L250 499.75l-21.21-34.251-27.51 29.428-14.123-37.696-32.726 23.523-6.496-39.812-36.712 16.732 1.427-40.305-39.271 9.252 9.252-39.27-40.305 1.426 16.732-36.712-39.812-6.496 23.523-32.726L5.073 298.72 34.5 271.21.25 250l34.251-21.21-29.428-27.51 37.696-14.123-23.523-32.726 39.812-6.496-16.732-36.712 40.305 1.427-9.252-39.271 39.27 9.252-1.426-40.305 36.712 16.732 6.496-39.812 32.726 23.523L201.28 5.073 228.79 34.5 250 .25l21.21 34.251 27.51-29.428 14.123 37.696 32.726-23.523 6.496 39.812 36.712-16.732-1.427 40.305 39.271-9.252-9.252 39.27 40.305-1.426-16.732 36.712 39.812 6.496-23.523 32.726 37.696 14.123-29.428 27.51z"/>
</svg>
