<svg rols="img" viewBox="0 0 24 24" xmlns="http://www.w3.org/2000/svg"><title>service-bw</title><path fill="#f8dd15" d="M7.926 7.962c-.582.086-.083.499-.083.499l.618-.477s.035-.09-.535-.022 M9.571 10.864c.144-1.248-1.379-2.88-1.379-2.88l.592-.794-1.478.407s-1.581-.691-3.946.793a1.717 1.717 0 0 0 0 .989c.097.322.925-.48 1.107.154-.269.078-.548.12-.829.125a1.239 1.239 0 0 1-.758-.196 2.065 2.065 0 0 1-.48-.96c-.073-.356-.342 1.447 1.21 1.447.293.026.588-.004.87-.09-.051.858-.829.215-.829.215v.988s1.258-.163 1.488-.339c-.064.221-.173.819-.173.819l-2.025-.08S.691 9.478 0 11.856l1.581.099 3.651 2.378-1.677 1.28s-2.56-.858-2.464 1.123l3.251.058 5.095-1.184v-.586s1.449-.099 1.747-.099a15.308 15.308 0 0 0 1.862-.778v-3.232c-1.724.202-3.193.269-3.475-.051m-3.859-2.88-.618.493s-.499-.416.084-.499c.582-.084.534.022.534.022z M11.546 8.883c-.298-.601.492-1.683.492-1.683s-2.169.595-1.776 1.981c.304 1.069 2.01.96 2.778.854v-.96c-.618.103-1.334.135-1.494-.192"/><path d="M13.28 14.024v4.056h-.32V5.92h.32v3.146c.247-.045.493-.099.736-.164 0 0 5.203-1.52 5.622-1.6.42-.08 2.269-.396 2.762 1.485.176 1.415-.48 1.776-.995 2.279.883.08 1.184 2.393 1.184 3.068 1.062-.371 1.283.298 1.382.298.099 0-.089 2.179-.089 2.179l-2.762-.096s-.352-1.017 1.28-1.081c-2.275-.692-3.261-2.068-3.261-2.068s-.889 1.104-1.184 1.6c-.294.496-.393 1.642-.393 1.642H14.01c.06-.55.182-.858.588-1.046l1.476.041.387-2.771-.413-.099s-1.449.677-2.768 1.291m0-3.995v.845c2.485-.308 5.388-.857 5.958-.912a1.866 1.866 0 0 1 1.479.396s.598.496.79-.988c.192-1.485-1.974-1.204-2.368-1.088-.393.115-5.705 1.718-5.705 1.718s-.057.012-.154.029"/></svg>