<svg version="1.2" xmlns="http://www.w3.org/2000/svg" viewBox="0 0 686 802" width="686" height="802">
	<title>TCPShield</title>
	<style>
		.s0 { fill: #ffffff;stroke: #414042;stroke-miterlimit:10 } 
		.s1 { fill: #ffffff } 
	</style>
	<g id="Layer 1">
		<g id="Layer 2 1 ">
		</g>
		<g id="Layer 1 1 ">
			<g id="&lt;Group&gt;">
				<path id="&lt;Path&gt;" class="s0" d="m205.2 141.5c6.8-6.1 13.6-12 20.5-17.8 7.5-6.1 15-12.2 22.6-17.9 3.8-2.9 7.7-5.7 11.5-8.5 1.9-1.4 3.9-2.7 5.8-4.1 1.9-1.3 3.9-2.7 5.8-4 2-1.3 3.9-2.6 5.9-3.9 2-1.3 3.9-2.5 5.9-3.8 3.9-2.6 7.9-4.9 11.9-7.4 2-1.2 4-2.3 6-3.5l3-1.7 3-1.7q3-1.7 6-3.3c2-1.1 4-2.1 6.1-3.2 1-0.5 2-1.1 3-1.6q1.5-0.8 3-1.5c2-1 4-2 6.1-3 4.1-1.9 8.1-3.8 12.2-5.6 4.1-1.8 8.2-3.4 12.3-5.1 2-0.8 4.1-1.5 6.1-2.3 1-0.4 2-0.8 3.1-1.1 1-0.3 2.1-0.7 3.1-1 8.2-2.9 16.4-5.2 24.5-7.3 2-0.5 4.1-1 6.1-1.4 2-0.4 4.1-0.8 6.1-1.2 2-0.4 4-0.7 6.1-1.1 2-0.3 4-0.7 6-0.9 16-2.2 31.7-2.4 46.5-0.6 1.8 0.3 3.7 0.5 5.5 0.8 1.8 0.3 3.6 0.7 5.4 1 1.8 0.3 3.5 0.8 5.3 1.2 1.7 0.4 3.5 0.8 5.2 1.3q2.5 0.7 5.1 1.5c1.7 0.6 3.3 1.2 4.9 1.8q1.2 0.4 2.4 0.9c0.8 0.3 1.6 0.7 2.4 1 0.8 0.3 1.6 0.7 2.4 1 0.8 0.3 1.6 0.6 2.3 1 12.3 5.8 23.2 13 32.4 21.3 9.3 8.2 17.2 17.2 23.8 26.3 6.6 9.1 12.1 18.3 16.7 27 1.1 2.2 2.2 4.4 3.2 6.5 0.5 1.1 1.1 2.1 1.5 3.2 0.5 1.1 0.9 2.1 1.4 3.2 0.9 2.1 1.8 4.1 2.7 6.1 0.8 2 1.6 4 2.4 5.9 1.6 3.8 2.9 7.6 4.2 11 1.3 3.5 2.3 6.8 3.3 9.9 0.5 1.5 1 3 1.4 4.5 0.5 1.4 0.8 2.8 1.2 4.1 0.8 2.6 1.4 5 2 7.1 0.3 1 0.6 2.1 0.8 3.1 0.3 1 0.5 1.9 0.7 2.8 0.4 1.7 0.8 3.2 1.1 4.3 0 0.2 0.1 0.3 0.1 0.4l5.3 1.9 26.4-7.1c0 0-0.3-1.2-1-3.5-0.3-1.2-0.7-2.6-1.2-4.3-0.2-0.9-0.5-1.8-0.8-2.8-0.3-1-0.6-2-0.9-3.2-0.7-2.4-1.6-5-2.5-7.9-0.5-1.4-0.9-3-1.5-4.5-0.5-1.5-1.1-3.1-1.7-4.8-1.2-3.3-2.4-6.9-3.9-10.7-1.5-3.8-3-7.8-4.9-12-0.9-2.1-1.8-4.3-2.8-6.5-1-2.2-2.1-4.4-3.2-6.7-0.5-1.1-1.1-2.3-1.7-3.5-0.6-1.2-1.2-2.3-1.8-3.5-1.2-2.4-2.5-4.8-3.8-7.2-5.5-9.7-11.9-20-19.8-30.3-7.9-10.3-17.4-20.7-28.8-30.2-11.3-9.6-24.7-18-39.7-24.6-0.9-0.4-1.9-0.8-2.8-1.2-1-0.4-1.9-0.8-2.9-1.1-1-0.4-1.9-0.8-2.9-1.1-1-0.4-2-0.7-3-1-2-0.6-4-1.3-6-1.9-2-0.6-4.1-1.1-6.1-1.7-2-0.6-4.1-1-6.2-1.4-2.1-0.4-4.2-0.9-6.3-1.2-2.1-0.3-4.2-0.7-6.4-1-2.1-0.2-4.3-0.5-6.5-0.7-17.3-1.7-35.2-1-53 1.9-2.2 0.3-4.5 0.8-6.7 1.2-2.2 0.4-4.5 0.8-6.7 1.4-2.2 0.5-4.4 1-6.7 1.5-2.2 0.6-4.4 1.2-6.6 1.7-8.8 2.4-17.7 5.2-26.4 8.5q-1.7 0.6-3.3 1.2c-1.1 0.4-2.2 0.9-3.3 1.3-2.2 0.9-4.4 1.7-6.5 2.6-4.3 1.9-8.6 3.7-12.9 5.7-4.3 2-8.5 4.1-12.8 6.2q-3.2 1.6-6.3 3.3c-1.1 0.6-2.1 1.1-3.2 1.7-1.1 0.6-2.1 1.2-3.1 1.7-2.1 1.2-4.2 2.3-6.3 3.5-2.1 1.2-4.1 2.4-6.2 3.7l-3.1 1.8-3.1 1.9c-2.1 1.3-4.1 2.5-6.2 3.8-4.1 2.6-8.2 5.2-12.2 8-2 1.4-4.1 2.7-6 4.1q-3 2.1-6 4.2c-2 1.4-4 2.9-6 4.3-2 1.5-4 2.9-5.9 4.4-3.9 3-7.8 6-11.7 9.1-7.8 6.1-15.4 12.5-22.9 19-15 13.1-29.5 26.9-43.4 41.4q-2.4 2.5-4.8 5.1z"/>
				<path id="&lt;Path&gt;" class="s0" d="m157.7 674.4c-2.1-0.6-4.2-1.3-6.4-1.9-1.1-0.3-2.2-0.6-3.3-1-1.1-0.4-2.2-0.8-3.4-1.2-2.3-0.8-4.6-1.6-7-2.4-2.3-0.9-4.7-1.8-7.2-2.8-1.2-0.5-2.5-0.9-3.7-1.5-1.2-0.5-2.5-1.1-3.7-1.6-1.2-0.5-2.5-1.1-3.8-1.6-0.6-0.3-1.3-0.6-1.9-0.8-0.6-0.3-1.3-0.6-1.9-0.9-2.5-1.2-5.1-2.5-7.8-3.8q-3.9-2.1-7.8-4.2c-10.5-5.9-21.2-13-31.5-21.7-10.3-8.7-20-19.1-28.5-31.1l-0.8-1.1-0.8-1.2c-0.5-0.8-1-1.6-1.5-2.3-0.5-0.8-1-1.6-1.5-2.3-0.3-0.4-0.5-0.8-0.8-1.2l-0.7-1.2c-0.9-1.6-1.9-3.3-2.8-4.9-0.5-0.8-0.9-1.7-1.3-2.5-0.4-0.8-0.9-1.7-1.3-2.5-0.4-0.9-0.9-1.7-1.3-2.6-0.5-0.8-0.8-1.7-1.2-2.6-0.8-1.8-1.6-3.5-2.4-5.3-0.7-1.8-1.4-3.6-2.1-5.5-0.3-0.9-0.7-1.8-1-2.8-0.3-0.9-0.6-1.9-0.9-2.8-0.3-0.9-0.6-1.9-0.9-2.8l-0.5-1.4c-0.2-0.5-0.3-1-0.4-1.4-0.5-1.9-1.1-3.9-1.6-5.8-0.3-1-0.5-2-0.7-2.9-0.2-1-0.4-2-0.7-3-0.2-1-0.4-2-0.7-3-0.2-1-0.4-2-0.5-3-1.6-8-2.4-16.3-3-24.7-1-16.8 0.1-34.2 2.7-51.7 0.4-2.2 0.7-4.4 1.1-6.6q0.6-3.3 1.2-6.6 0.3-1.7 0.6-3.3c0.2-1.1 0.5-2.2 0.7-3.3q0.8-3.3 1.5-6.6c1.1-4.4 2.2-8.8 3.5-13.2q0.5-1.7 0.9-3.3c0.3-1.1 0.6-2.2 1-3.3 0.7-2.2 1.4-4.4 2-6.6 0.7-2.2 1.5-4.4 2.2-6.6 0.7-2.2 1.5-4.4 2.3-6.6q1.2-3.3 2.4-6.6c0.8-2.2 1.7-4.4 2.5-6.5l1.3-3.3 1.4-3.3c0.9-2.2 1.8-4.3 2.7-6.5 1-2.2 1.9-4.3 2.9-6.5 0.5-1.1 0.9-2.2 1.4-3.2l1.5-3.2c3.3-7.2 6.8-14.2 10.5-21.3-1.5-6.2-2.9-12.4-4.2-18.7-1.5 2.9-3 5.8-4.4 8.7-4.3 8.8-8.6 17.6-12.4 26.6l-1.5 3.3c-0.5 1.1-0.9 2.2-1.4 3.4-0.9 2.2-1.8 4.5-2.8 6.7-0.9 2.3-1.7 4.5-2.6 6.7l-1.3 3.4-1.2 3.4c-0.8 2.3-1.6 4.5-2.4 6.8-0.8 2.3-1.5 4.5-2.3 6.8-0.8 2.3-1.5 4.5-2.2 6.8-0.7 2.3-1.4 4.5-2.1 6.8-0.6 2.3-1.3 4.5-1.9 6.8-0.3 1.1-0.6 2.3-0.9 3.4-0.3 1.1-0.6 2.3-0.9 3.4-1.2 4.5-2.2 9.1-3.2 13.6-0.5 2.3-0.9 4.6-1.4 6.8-0.2 1.1-0.4 2.3-0.7 3.4-0.2 1.1-0.4 2.3-0.6 3.4-0.4 2.3-0.8 4.5-1.1 6.8-0.3 2.3-0.6 4.5-0.9 6.8-2.3 18.1-2.9 36.1-1.4 53.4 0.8 8.7 1.9 17.2 3.7 25.5 0.2 1 0.4 2.1 0.6 3.1 0.3 1 0.5 2 0.8 3.1 0.3 1 0.5 2 0.8 3 0.3 1 0.5 2 0.8 3q0.9 3 1.8 6c0.2 0.5 0.3 1 0.5 1.5l0.5 1.5c0.3 1 0.7 1.9 1 2.9 0.3 1 0.7 1.9 1 2.9 0.3 1 0.8 1.9 1.1 2.8 0.8 1.9 1.6 3.7 2.3 5.6 0.9 1.8 1.7 3.6 2.6 5.4 0.4 0.9 0.8 1.8 1.3 2.7 0.5 0.9 0.9 1.7 1.4 2.6 0.5 0.9 0.9 1.7 1.4 2.6 0.5 0.9 0.9 1.7 1.5 2.6 1 1.7 2 3.3 3 5l0.8 1.2c0.3 0.4 0.5 0.8 0.8 1.2 0.5 0.8 1.1 1.6 1.6 2.4 0.5 0.8 1.1 1.6 1.6 2.4l0.8 1.2 0.9 1.1c9.1 12.2 19.4 22.6 30.1 31.2 10.8 8.6 21.8 15.6 32.6 21.3 2.7 1.4 5.4 2.7 8 4.1 2.7 1.2 5.3 2.4 7.9 3.6 0.6 0.3 1.3 0.6 1.9 0.9 0.7 0.3 1.3 0.5 2 0.8 1.3 0.5 2.6 1 3.9 1.6 1.3 0.5 2.5 1 3.8 1.5 1.2 0.5 2.5 0.9 3.8 1.4 2.5 0.9 4.9 1.8 7.3 2.6 2.4 0.8 4.8 1.5 7.1 2.2 1.2 0.4 2.3 0.7 3.4 1.1 1.1 0.4 2.3 0.6 3.4 1 2.2 0.6 4.4 1.2 6.5 1.8 16.9 4.5 30.4 6.7 39.7 8.3 9.3 1.3 14.2 2 14.2 2 0 0-4.9-0.8-14.1-2.4-9.1-2-22.5-4.6-39.3-9.4z"/>
			</g>
			<g id="&lt;Group&gt;">
				<g id="&lt;Group&gt;">
				</g>
				<g id="&lt;Group&gt;">
					<path id="&lt;Path&gt;" class="s1" d="m294.7 337.1v326.6c19.1 18.4 35.9 32.8 48.1 42.8 12.2-10 29-24.4 48.1-42.8v-326.6h199.8c8-30.4 13.7-62.5 16.3-96.1h-528.4c2.6 33.6 8.4 65.7 16.3 96.1z"/>
				</g>
			</g>
			<g id="&lt;Group&gt;">
				<path id="&lt;Compound Path&gt;" fill-rule="evenodd" class="s1" d="m342.8 778.5l-11-7.6c-3.2-2.2-79.3-55.6-156.2-152.6-45.3-57.1-81.4-117.4-107.3-179.4-32.5-77.8-49-158.4-49-239.5v-13.7l323.5-112.5 323.5 112.5v13.7c0 81.1-16.5 161.6-49 239.5-25.9 62-62 122.4-107.3 179.4-76.9 97-153 150.4-156.2 152.6zm-284.9-565.6c4.1 165.5 81.7 297.8 147.1 380.5 56.8 71.9 114.4 119.6 137.8 137.7 23.5-18.1 81-65.8 137.8-137.7 65.4-82.7 143-215 147.1-380.5l-284.9-99z"/>
			</g>
		</g>
	</g>
</svg>