<?xml version="1.0" encoding="UTF-8"?>
<svg xmlns="http://www.w3.org/2000/svg" xmlns:xlink="http://www.w3.org/1999/xlink" width="802pt" height="686pt" viewBox="0 0 802 686" version="1.1">
<g id="surface67646">
<path style="fill-rule:nonzero;fill:rgb(100%,100%,100%);fill-opacity:1;stroke-width:1;stroke-linecap:butt;stroke-linejoin:miter;stroke:rgb(25.490198%,25.098041%,25.882354%);stroke-opacity:1;stroke-miterlimit:10;" d="M 205.199219 141.5 C 212 135.398438 218.800781 129.5 225.699219 123.699219 C 233.199219 117.601562 240.699219 111.5 248.300781 105.800781 C 252.101562 102.898438 256 100.101562 259.800781 97.300781 C 261.699219 95.898438 263.699219 94.601562 265.601562 93.199219 C 267.5 91.898438 269.5 90.5 271.398438 89.199219 C 273.398438 87.898438 275.300781 86.601562 277.300781 85.300781 C 279.300781 84 281.199219 82.800781 283.199219 81.5 C 287.101562 78.898438 291.101562 76.601562 295.101562 74.101562 C 297.101562 72.898438 299.101562 71.800781 301.101562 70.601562 L 304.101562 68.898438 L 307.101562 67.199219 C 309.101562 66.066406 311.101562 64.964844 313.101562 63.898438 C 315.101562 62.800781 317.101562 61.800781 319.199219 60.699219 C 320.199219 60.199219 321.199219 59.601562 322.199219 59.101562 C 323.199219 58.566406 324.199219 58.066406 325.199219 57.601562 C 327.199219 56.601562 329.199219 55.601562 331.300781 54.601562 C 335.398438 52.699219 339.398438 50.800781 343.5 49 C 347.601562 47.199219 351.699219 45.601562 355.800781 43.898438 C 357.800781 43.101562 359.898438 42.398438 361.898438 41.601562 C 362.898438 41.199219 363.898438 40.800781 365 40.5 C 366 40.199219 367.101562 39.800781 368.101562 39.5 C 376.300781 36.601562 384.5 34.300781 392.601562 32.199219 C 394.601562 31.699219 396.699219 31.199219 398.699219 30.800781 C 400.699219 30.398438 402.800781 30 404.800781 29.601562 C 406.800781 29.199219 408.800781 28.898438 410.898438 28.5 C 412.898438 28.199219 414.898438 27.800781 416.898438 27.601562 C 432.898438 25.398438 448.601562 25.199219 463.398438 27 C 465.199219 27.300781 467.101562 27.5 468.898438 27.800781 C 470.699219 28.101562 472.5 28.5 474.300781 28.800781 C 476.101562 29.101562 477.800781 29.601562 479.601562 30 C 481.300781 30.398438 483.101562 30.800781 484.800781 31.300781 C 486.464844 31.765625 488.167969 32.265625 489.898438 32.800781 C 491.601562 33.398438 493.199219 34 494.800781 34.601562 C 495.601562 34.867188 496.398438 35.167969 497.199219 35.5 C 498 35.800781 498.800781 36.199219 499.601562 36.5 C 500.398438 36.800781 501.199219 37.199219 502 37.5 C 502.800781 37.800781 503.601562 38.101562 504.300781 38.5 C 516.601562 44.300781 527.5 51.5 536.699219 59.800781 C 546 68 553.898438 77 560.5 86.101562 C 567.101562 95.199219 572.601562 104.398438 577.199219 113.101562 C 578.300781 115.300781 579.398438 117.5 580.398438 119.601562 C 580.898438 120.699219 581.5 121.699219 581.898438 122.800781 C 582.398438 123.898438 582.800781 124.898438 583.300781 126 C 584.199219 128.101562 585.101562 130.101562 586 132.101562 C 586.800781 134.101562 587.601562 136.101562 588.398438 138 C 590 141.800781 591.300781 145.601562 592.601562 149 C 593.898438 152.5 594.898438 155.800781 595.898438 158.898438 C 596.398438 160.398438 596.898438 161.898438 597.300781 163.398438 C 597.800781 164.800781 598.101562 166.199219 598.5 167.5 C 599.300781 170.101562 599.898438 172.5 600.5 174.601562 C 600.800781 175.601562 601.101562 176.699219 601.300781 177.699219 C 601.601562 178.699219 601.800781 179.601562 602 180.5 C 602.398438 182.199219 602.800781 183.699219 603.101562 184.800781 C 603.101562 185 603.199219 185.101562 603.199219 185.199219 L 608.5 187.101562 L 634.898438 180 C 634.898438 180 634.601562 178.800781 633.898438 176.5 C 633.601562 175.300781 633.199219 173.898438 632.699219 172.199219 C 632.5 171.300781 632.199219 170.398438 631.898438 169.398438 C 631.601562 168.398438 631.300781 167.398438 631 166.199219 C 630.300781 163.800781 629.398438 161.199219 628.5 158.300781 C 628 156.898438 627.601562 155.300781 627 153.800781 C 626.5 152.300781 625.898438 150.699219 625.300781 149 C 624.101562 145.699219 622.898438 142.101562 621.398438 138.300781 C 619.898438 134.5 618.398438 130.5 616.5 126.300781 C 615.601562 124.199219 614.699219 122 613.699219 119.800781 C 612.699219 117.601562 611.601562 115.398438 610.5 113.101562 C 610 112 609.398438 110.800781 608.800781 109.601562 C 608.199219 108.398438 607.601562 107.300781 607 106.101562 C 605.800781 103.699219 604.5 101.300781 603.199219 98.898438 C 597.699219 89.199219 591.300781 78.898438 583.398438 68.601562 C 575.5 58.300781 566 47.898438 554.601562 38.398438 C 543.300781 28.800781 529.898438 20.398438 514.898438 13.800781 C 514 13.398438 513 13 512.101562 12.601562 C 511.101562 12.199219 510.199219 11.800781 509.199219 11.5 C 508.199219 11.101562 507.300781 10.699219 506.300781 10.398438 C 505.300781 10 504.300781 9.699219 503.300781 9.398438 C 501.300781 8.800781 499.300781 8.101562 497.300781 7.5 C 495.300781 6.898438 493.199219 6.398438 491.199219 5.800781 C 489.199219 5.199219 487.101562 4.800781 485 4.398438 C 482.898438 4 480.800781 3.5 478.699219 3.199219 C 476.601562 2.898438 474.5 2.5 472.300781 2.199219 C 470.199219 2 468 1.699219 465.800781 1.5 C 448.5 -0.199219 430.601562 0.5 412.800781 3.398438 C 410.601562 3.699219 408.300781 4.199219 406.101562 4.601562 C 403.898438 5 401.601562 5.398438 399.398438 6 C 397.199219 6.5 395 7 392.699219 7.5 C 390.5 8.101562 388.300781 8.699219 386.101562 9.199219 C 377.300781 11.601562 368.398438 14.398438 359.699219 17.699219 C 358.566406 18.101562 357.464844 18.5 356.398438 18.898438 C 355.300781 19.300781 354.199219 19.800781 353.101562 20.199219 C 350.898438 21.101562 348.699219 21.898438 346.601562 22.800781 C 342.300781 24.699219 338 26.5 333.699219 28.5 C 329.398438 30.5 325.199219 32.601562 320.898438 34.699219 C 318.765625 35.765625 316.667969 36.867188 314.601562 38 C 313.5 38.601562 312.5 39.101562 311.398438 39.699219 C 310.300781 40.300781 309.300781 40.898438 308.300781 41.398438 C 306.199219 42.601562 304.101562 43.699219 302 44.898438 C 299.898438 46.101562 297.898438 47.300781 295.800781 48.601562 L 292.699219 50.398438 L 289.601562 52.300781 C 287.5 53.601562 285.5 54.800781 283.398438 56.101562 C 279.300781 58.699219 275.199219 61.300781 271.199219 64.101562 C 269.199219 65.5 267.101562 66.800781 265.199219 68.199219 C 263.199219 69.601562 261.199219 71 259.199219 72.398438 C 257.199219 73.800781 255.199219 75.300781 253.199219 76.699219 C 251.199219 78.199219 249.199219 79.601562 247.300781 81.101562 C 243.398438 84.101562 239.5 87.101562 235.601562 90.199219 C 227.800781 96.300781 220.199219 102.699219 212.699219 109.199219 C 197.699219 122.300781 183.199219 136.101562 169.300781 150.601562 C 167.699219 152.265625 166.101562 153.964844 164.5 155.699219 Z M 205.199219 141.5 "/>
<path style="fill-rule:nonzero;fill:rgb(100%,100%,100%);fill-opacity:1;stroke-width:1;stroke-linecap:butt;stroke-linejoin:miter;stroke:rgb(25.490198%,25.098041%,25.882354%);stroke-opacity:1;stroke-miterlimit:10;" d="M 157.699219 674.398438 C 155.601562 673.800781 153.5 673.101562 151.300781 672.5 C 150.199219 672.199219 149.101562 671.898438 148 671.5 C 146.898438 671.101562 145.800781 670.699219 144.601562 670.300781 C 142.300781 669.5 140 668.699219 137.601562 667.898438 C 135.300781 667 132.898438 666.101562 130.398438 665.101562 C 129.199219 664.601562 127.898438 664.199219 126.699219 663.601562 C 125.5 663.101562 124.199219 662.5 123 662 C 121.800781 661.5 120.5 660.898438 119.199219 660.398438 C 118.601562 660.101562 117.898438 659.800781 117.300781 659.601562 C 116.699219 659.300781 116 659 115.398438 658.699219 C 112.898438 657.5 110.300781 656.199219 107.601562 654.898438 C 105 653.5 102.398438 652.101562 99.800781 650.699219 C 89.300781 644.800781 78.601562 637.699219 68.300781 629 C 58 620.300781 48.300781 609.898438 39.800781 597.898438 L 39 596.800781 L 38.199219 595.601562 C 37.699219 594.800781 37.199219 594 36.699219 593.300781 C 36.199219 592.5 35.699219 591.699219 35.199219 591 C 34.898438 590.601562 34.699219 590.199219 34.398438 589.800781 L 33.699219 588.601562 C 32.800781 587 31.800781 585.300781 30.898438 583.699219 C 30.398438 582.898438 30 582 29.601562 581.199219 C 29.199219 580.398438 28.699219 579.5 28.300781 578.699219 C 27.898438 577.800781 27.398438 577 27 576.101562 C 26.5 575.300781 26.199219 574.398438 25.800781 573.5 C 25 571.699219 24.199219 570 23.398438 568.199219 C 22.699219 566.398438 22 564.601562 21.300781 562.699219 C 21 561.800781 20.601562 560.898438 20.300781 559.898438 C 20 559 19.699219 558 19.398438 557.101562 C 19.101562 556.199219 18.800781 555.199219 18.5 554.300781 L 18 552.898438 C 17.800781 552.398438 17.699219 551.898438 17.601562 551.5 C 17.101562 549.601562 16.5 547.601562 16 545.699219 C 15.699219 544.699219 15.5 543.699219 15.300781 542.800781 C 15.101562 541.800781 14.898438 540.800781 14.601562 539.800781 C 14.398438 538.800781 14.199219 537.800781 13.898438 536.800781 C 13.699219 535.800781 13.5 534.800781 13.398438 533.800781 C 11.800781 525.800781 11 517.5 10.398438 509.101562 C 9.398438 492.300781 10.5 474.898438 13.101562 457.398438 C 13.5 455.199219 13.800781 453 14.199219 450.800781 C 14.601562 448.601562 15 446.398438 15.398438 444.199219 C 15.601562 443.066406 15.800781 441.964844 16 440.898438 C 16.199219 439.800781 16.5 438.699219 16.699219 437.601562 C 17.234375 435.398438 17.734375 433.199219 18.199219 431 C 19.300781 426.601562 20.398438 422.199219 21.699219 417.800781 C 22.035156 416.667969 22.332031 415.566406 22.601562 414.5 C 22.898438 413.398438 23.199219 412.300781 23.601562 411.199219 C 24.300781 409 25 406.800781 25.601562 404.601562 C 26.300781 402.398438 27.101562 400.199219 27.800781 398 C 28.5 395.800781 29.300781 393.601562 30.101562 391.398438 C 30.898438 389.199219 31.699219 387 32.5 384.800781 C 33.300781 382.601562 34.199219 380.398438 35 378.300781 L 36.300781 375 L 37.699219 371.699219 C 38.601562 369.5 39.5 367.398438 40.398438 365.199219 C 41.398438 363 42.300781 360.898438 43.300781 358.699219 C 43.800781 357.601562 44.199219 356.5 44.699219 355.5 L 46.199219 352.300781 C 49.5 345.101562 53 338.101562 56.699219 331 C 55.199219 324.800781 53.800781 318.601562 52.5 312.300781 C 51 315.199219 49.5 318.101562 48.101562 321 C 43.800781 329.800781 39.5 338.601562 35.699219 347.601562 L 34.199219 350.898438 C 33.699219 352 33.300781 353.101562 32.800781 354.300781 C 31.898438 356.5 31 358.800781 30 361 C 29.101562 363.300781 28.300781 365.5 27.398438 367.699219 L 26.101562 371.101562 L 24.898438 374.5 C 24.101562 376.800781 23.300781 379 22.5 381.300781 C 21.699219 383.601562 21 385.800781 20.199219 388.101562 C 19.398438 390.398438 18.699219 392.601562 18 394.898438 C 17.300781 397.199219 16.601562 399.398438 15.898438 401.699219 C 15.300781 404 14.601562 406.199219 14 408.5 C 13.699219 409.601562 13.398438 410.800781 13.101562 411.898438 C 12.800781 413 12.5 414.199219 12.199219 415.300781 C 11 419.800781 10 424.398438 9 428.898438 C 8.5 431.199219 8.101562 433.5 7.601562 435.699219 C 7.398438 436.800781 7.199219 438 6.898438 439.101562 C 6.699219 440.199219 6.5 441.398438 6.300781 442.5 C 5.898438 444.800781 5.5 447 5.199219 449.300781 C 4.898438 451.601562 4.601562 453.800781 4.300781 456.101562 C 2 474.199219 1.398438 492.199219 2.898438 509.5 C 3.699219 518.199219 4.800781 526.699219 6.601562 535 C 6.800781 536 7 537.101562 7.199219 538.101562 C 7.5 539.101562 7.699219 540.101562 8 541.199219 C 8.300781 542.199219 8.5 543.199219 8.800781 544.199219 C 9.101562 545.199219 9.300781 546.199219 9.601562 547.199219 C 10.199219 549.199219 10.800781 551.199219 11.398438 553.199219 C 11.601562 553.699219 11.699219 554.199219 11.898438 554.699219 L 12.398438 556.199219 C 12.699219 557.199219 13.101562 558.101562 13.398438 559.101562 C 13.699219 560.101562 14.101562 561 14.398438 562 C 14.699219 563 15.199219 563.898438 15.5 564.800781 C 16.300781 566.699219 17.101562 568.5 17.800781 570.398438 C 18.699219 572.199219 19.5 574 20.398438 575.800781 C 20.800781 576.699219 21.199219 577.601562 21.699219 578.5 C 22.199219 579.398438 22.601562 580.199219 23.101562 581.101562 C 23.601562 582 24 582.800781 24.5 583.699219 C 25 584.601562 25.398438 585.398438 26 586.300781 C 27 588 28 589.601562 29 591.300781 L 29.800781 592.5 C 30.101562 592.898438 30.300781 593.300781 30.601562 593.699219 C 31.101562 594.5 31.699219 595.300781 32.199219 596.101562 C 32.699219 596.898438 33.300781 597.699219 33.800781 598.5 L 34.601562 599.699219 L 35.5 600.800781 C 44.601562 613 54.898438 623.398438 65.601562 632 C 76.398438 640.601562 87.398438 647.601562 98.199219 653.300781 C 100.898438 654.699219 103.601562 656 106.199219 657.398438 C 108.898438 658.601562 111.5 659.800781 114.101562 661 C 114.699219 661.300781 115.398438 661.601562 116 661.898438 C 116.699219 662.199219 117.300781 662.398438 118 662.699219 C 119.300781 663.199219 120.601562 663.699219 121.898438 664.300781 C 123.199219 664.800781 124.398438 665.300781 125.699219 665.800781 C 126.898438 666.300781 128.199219 666.699219 129.5 667.199219 C 132 668.101562 134.398438 669 136.800781 669.800781 C 139.199219 670.601562 141.601562 671.300781 143.898438 672 C 145.101562 672.398438 146.199219 672.699219 147.300781 673.101562 C 148.398438 673.5 149.601562 673.699219 150.699219 674.101562 C 152.898438 674.699219 155.101562 675.300781 157.199219 675.898438 C 174.101562 680.398438 187.601562 682.601562 196.898438 684.199219 C 206.199219 685.5 211.101562 686.199219 211.101562 686.199219 C 211.101562 686.199219 206.199219 685.398438 197 683.800781 C 187.898438 681.800781 174.5 679.199219 157.699219 674.398438 Z M 157.699219 674.398438 "/>
<path style=" stroke:none;fill-rule:nonzero;fill:rgb(100%,100%,100%);fill-opacity:1;" d="M 294.699219 337.101562 L 294.699219 663.699219 C 313.800781 682.101562 330.601562 696.5 342.800781 706.5 C 355 696.5 371.800781 682.101562 390.898438 663.699219 L 390.898438 337.101562 L 590.699219 337.101562 C 598.699219 306.699219 604.398438 274.601562 607 241 L 78.601562 241 C 81.199219 274.601562 87 306.699219 94.898438 337.101562 Z M 294.699219 337.101562 "/>
<path style=" stroke:none;fill-rule:evenodd;fill:rgb(100%,100%,100%);fill-opacity:1;" d="M 342.800781 778.5 L 331.800781 770.898438 C 328.601562 768.699219 252.5 715.300781 175.601562 618.300781 C 130.300781 561.199219 94.199219 500.898438 68.300781 438.898438 C 35.800781 361.101562 19.300781 280.5 19.300781 199.398438 L 19.300781 185.699219 L 342.800781 73.199219 L 666.300781 185.699219 L 666.300781 199.398438 C 666.300781 280.5 649.800781 361 617.300781 438.898438 C 591.398438 500.898438 555.300781 561.300781 510 618.300781 C 433.101562 715.300781 357 768.699219 353.800781 770.898438 Z M 57.898438 212.898438 C 62 378.398438 139.601562 510.699219 205 593.398438 C 261.800781 665.300781 319.398438 713 342.800781 731.101562 C 366.300781 713 423.800781 665.300781 480.601562 593.398438 C 546 510.699219 623.601562 378.398438 627.699219 212.898438 L 342.800781 113.898438 Z M 57.898438 212.898438 "/>
</g>
</svg>
