<svg viewBox="0 0 166.285 167.46" xmlns="http://www.w3.org/2000/svg">
  <path d="M 4.207 114.881 C 4.207 119.041 7.683 123.201 12.423 123.201 L 44.038 123.201 L 44.038 155.204 C 44.038 159.364 47.514 163.523 52.254 163.523 L 79.285 163.523 L 79.285 87.521 L 4.207 87.521 L 4.207 114.881 Z M 104.417 3.521 C 71.382 3.521 44.99 30.08 44.99 62.876 L 44.99 75.52 L 78.177 75.52 L 78.177 62.876 C 78.177 48.64 89.717 37.121 104.416 37.121 C 118.956 37.121 129.075 47.357 129.075 62.556 C 129.075 77.6 118.167 88.639 103.62 88.639 L 91.136 88.639 L 91.136 122.23 L 103.62 122.23 C 136.031 122.23 162.271 95.519 162.271 62.551 C 162.271 28.32 137.772 3.52 104.416 3.52" fill="#4acbd6"/>
</svg>
