<svg xmlns="http://www.w3.org/2000/svg" viewBox="0 0 120.1 21.4"><path d="M12.7 12.4c-.1 2.5-.3 2.8-3.2 2.897h-.8c-2.399-.1-3.1-.6-3.1-2.698V6.7h9V4.6h-9V1.8H2.9v2.9H0v2.1h2.9v6.6c0 1 .3 2.1 1.1 2.8.8.8 2.2 1.2 4.3 1.2h1.2c2.5 0 3.8-.5 4.6-1.301.7-.802.8-2 .8-3.199v-1.5h-2.3v1h.1zm17.9-6.9c-.9-.7-2.4-1-4.5-1H24c-1.4 0-3 .3-3.9 1.5V4.6h-2.5v12.5h2.7V9.3c0-1.5 1-2.7 3.3-2.7H25c4 .1 4.4.3 4.5 3.3v.7H32V8.9c-.1-1.5-.5-2.7-1.4-3.4zM48 13.7c0 .7-.3 1-1.2 1.3-.9.3-2.3.3-4.3.3h-3c-3.1-.1-3.4-.5-3.4-1.7v-.4c0-1.4.6-1.601 3.5-1.7h3.5c1.7 0 3 0 3.8.3s1.1.6 1.1 1.4v.5zm-4.6-9.2h-3.6c-2 0-3.5.2-4.4.8-1 .5-1.4 1.4-1.4 2.6v.8h2.7v-.8c0-.9.3-1.4 3.2-1.4h3.3c3.5 0 4.8.3 4.8 2.3v1.8c-.8-.9-2.1-1.1-4.6-1.1h-3.6c-2 0-3.5.1-4.601.5-1.1.4-1.7 1.3-1.7 2.8v.8c0 1.2.2 2.103.9 2.801.7.699 1.8 1 3.6 1h5.4c2.9 0 4-.198 4.6-1v.802h2.7V8.8C50.7 5 47.6 4.5 43.4 4.5zm25.7 1.2c-.9-.8-2.4-1.3-4.5-1.3h-3.4c-2.5 0-4.299.3-5.299 1.8V4.6h-2.5v12.5h2.7V10c0-2.7 1-3.5 6.3-3.5H63c4.4.1 4.699 1 4.699 2.7v7.9H70.4V8.8c-.099-1.2-.4-2.3-1.3-3.1zm19.3 4.7c-1.103-.5-2.5-.6-4.201-.6h-6c-2.398-.1-2.5-.5-2.5-1.4V8c0-.7.102-.9.602-1.1.5-.2 1.5-.3 3.1-.3h3.9c1.199 0 2.199 0 2.799.2.599.2.9.5.9 1.4v.3h2.5v-.8c0-.9-.199-1.8-1.1-2.3-.9-.6-2.4-.9-4.9-.9H80c-2.801 0-4.5.3-5.6.8-1 .5-1.4 1.4-1.4 2.4v.7c0 1.2.301 2.1 1.1 2.6.801.6 1.9.8 3.5.8h6.9c2.699.101 2.801.5 2.9 1.601v.102c0 .898-.201 1.2-.801 1.5-.599.197-1.699.297-3.4.297h-4.898c-2.301 0-2.9-.5-3-1.899V12.6h-2.5v.9c0 1.9.799 2.9 2.1 3.4 1.199.5 2.9.5 4.5.5H83.6c2.701 0 6.4-.103 6.4-3.7.1-1.8-.6-2.8-1.6-3.3z"/><path fill="#187dc1" d="M96.5 0h2.699v2.2H96.5zm0 4.6h2.699v12.5H96.5zm20.801 7.6c0 2.7-1.301 3.1-4 3.1h-4c-2.4 0-4.102-.399-4.201-3.2V9.8c0-2 1-3.3 3.9-3.3h4.5c3.1.1 3.801 1 3.801 3.3v2.4zM118 5.5c-1.199-.8-2.801-1-4.4-1h-4.299C107.5 4.5 105.9 5 105 6.1V4.6h-2.5v16.8h2.699v-5.3c.602.9 1.801 1.3 3.801 1.3h4.301c2.299 0 4-.301 5.199-1.2 1.1-.9 1.6-2.3 1.6-4.3V9.8c-.1-2.2-.901-3.5-2.1-4.3z"/></svg>