<svg width="86" height="20" xmlns="http://www.w3.org/2000/svg" id="svg712272324_2169"><path fill-rule="evenodd" clip-rule="evenodd" d="M0 8.516V17.2s1.298-.89 2.75-1.91v-4.774c0-2.347.707-3.104 2.62-4.526l2.624-1.95V0S4.198 2.816 2.62 3.99C.707 5.412 0 6.17 0 8.516ZM4 20v-8.684c0-2.347.707-3.104 2.62-4.526 1.578-1.174 5.374-3.99 5.374-3.99v7.577c0 .218.001.425.003.624.018 2.099.027 3.218-2.12 4.841C8.105 17.184 4 20 4 20ZM26.8 5.617h-3.4v9.825h-2V5.617H18V3.72h8.802L26.8 5.617Zm5.336 3.947h.017l1.925 5.878h1.866l2.989-8.57h-2l-1.931 6.16-1.944-6.16h-1.814l-1.965 6.144-1.915-6.143h-2.032l2.995 8.57h1.865l1.944-5.88Zm8-2.691h2.47v8.57h-1.964v-6.82h-1.134l.627-1.75Zm.259-2.642a1.231 1.231 0 0 1 2.461 0c0 .71-.511 1.205-1.221 1.205-.71 0-1.242-.495-1.242-1.205h.002Zm8.451 2.444c-1.403 0-2.277.66-2.642 1.337l-.002-1.14h-1.814v8.576h1.965v-4.97c0-1.336.776-2.114 2.015-2.114 1.173 0 1.7.771 1.7 1.944v5.134h1.966V10.06c0-1.998-1.107-3.385-3.188-3.385Zm11.207.198h1.814v8.207c0 2.262-1.454 3.979-4.096 3.979-2.576 0-3.748-1.651-3.93-2.988h1.966c.181.66.759 1.303 1.998 1.303 1.354 0 2.096-.825 2.096-2.03v-1.337c-.48.742-1.388 1.32-2.708 1.32-2.444 0-3.947-1.964-3.947-4.326 0-2.362 1.503-4.326 3.947-4.326 1.32 0 2.295.528 2.857 1.425l.003-1.227ZM57.59 8.408c-1.425 0-2.378 1.09-2.378 2.591 0 1.502.958 2.592 2.378 2.592 1.452 0 2.394-1.107 2.394-2.591 0-1.485-.94-2.592-2.393-2.592h-.001ZM70 15.441h1.814V6.89h-1.817v1.227c-.546-.897-1.552-1.426-2.89-1.426-2.525 0-3.96 2.033-3.96 4.478s1.437 4.476 3.962 4.476c1.336 0 2.345-.534 2.89-1.426v1.222Zm-.068-4.276c0 1.537-.908 2.742-2.411 2.742-1.486 0-2.411-1.206-2.411-2.742 0-1.535.907-2.74 2.411-2.74s2.411 1.204 2.411 2.74Zm3.448-6.52h1.964v2.228h1.602v1.569h-1.602v4.326c0 .676.282 1.007.958 1.007a2.42 2.42 0 0 0 .611-.083v1.701a4.31 4.31 0 0 1-1.023.099c-1.75 0-2.51-.907-2.51-2.526V4.644Zm8.474 9.311c-1.371 0-2.246-.874-2.395-2.228h6.524s.017-.298.017-.612c0-2.51-1.668-4.441-4.211-4.441s-4.26 1.98-4.26 4.475c0 2.559 1.684 4.49 4.276 4.49 1.997 0 3.516-1.204 4.028-2.905h-1.981c-.314.759-1.091 1.221-1.998 1.221Zm2.196-3.682h-4.557c.198-1.173 1.024-1.998 2.295-1.998 1.27 0 2.097.81 2.262 1.998Z"></path></svg>