<svg width="500" height="500" xmlns="http://www.w3.org/2000/svg" xmlns:undefined="http://sodipodi.sourceforge.net/DTD/sodipodi-0.dtd" xmlns:undefined="http://www.inkscape.org/namespaces/inkscape" version="1.1" class="sc-fd180167-0 jepyKs" color="n01">

 <g>
  <title>Layer 1</title>
  <path id="path1" fill="#6fe68a" d="m296.35308,467.7448c-14.17401,5.15419 -29.63657,6.44273 -45.09912,6.44273l-2.57709,0c-15.46256,0 -30.92511,-2.57709 -45.09912,-7.73128c-7.73128,-2.57709 -14.17401,2.57709 -16.7511,9.01982c-2.57709,7.73128 2.57709,15.46256 9.01982,16.7511c16.7511,5.15419 34.79075,7.73128 52.8304,7.73128l2.57709,0c18.03965,0 36.0793,-2.57709 52.8304,-7.73128c6.44273,-2.57709 10.30837,-10.30837 7.73128,-18.03965c-2.57709,-3.86564 -9.01982,-7.73128 -15.46256,-6.44273zm117.25772,-344.04189s0,-1.28855 0,0c-29.63657,-94.06389 -127.56609,-145.60574 -217.76434,-114.68063c-51.54186,18.03965 -92.77534,60.56168 -109.52644,114.68063c-15.46256,46.38767 -10.30837,108.2379 15.46256,166.22249c33.50221,78.60133 94.06389,134.00883 148.18284,134.00883l1.28855,0c54.11895,0 114.68063,-55.4075 148.18284,-134.00883c24.48238,-57.98459 29.63657,-119.83481 14.17401,-166.22249m-79.88988,-67.00441c-27.05947,-1.28855 -56.69604,11.59692 -85.04406,34.79075c-28.34802,-23.19384 -57.98459,-36.0793 -85.04406,-34.79075c51.54186,-37.36785 119.83481,-37.36785 170.08812,0m-61.85023,333.73352c-14.17401,6.44273 -30.92511,6.44273 -45.09912,0c-46.38767,-21.90529 -55.4075,-110.81499 -20.61674,-191.99341c10.30837,-25.77093 24.48238,-48.96476 42.52203,-68.29296c18.03965,20.61674 32.21366,43.81058 42.52203,68.29296c36.0793,82.46697 27.05947,170.08812 -19.3282,191.99341m-146.89429,-112.10354c-21.90529,-51.54186 -27.05947,-105.6608 -14.17401,-146.89429c6.44273,-20.61674 19.3282,-36.0793 34.79075,-43.81058c23.19384,-10.30837 54.11895,-1.28855 85.04406,23.19384c-19.3282,23.19384 -36.0793,48.96476 -47.67622,76.02424c-23.19384,55.4075 -28.34802,113.39208 -18.03965,157.20266c-16.7511,-19.3282 -29.63657,-41.23348 -39.94494,-65.71587m248.68945,0c-10.30837,23.19384 -23.19384,45.09912 -38.65639,65.71587c10.30837,-43.81058 5.15419,-101.79517 -18.03965,-157.20266c-11.59692,-28.34802 -28.34802,-54.11895 -47.67622,-76.02424c29.63657,-24.48238 60.56168,-33.50221 85.04406,-21.90529c15.46256,7.73128 27.05947,21.90529 34.79075,43.81058c11.59692,39.94494 6.44273,94.06389 -15.46256,145.60574z"/>
 </g>
</svg>