<?xml version="1.0" encoding="UTF-8" standalone="no"?>
<svg
   version="1.1"
   width="96"
   height="96"
   viewBox="0 0 96 96"
   xml:space="preserve"
   id="svg1"
   sodipodi:docname="uphold.svg"
   inkscape:version="1.3.2 (091e20e, 2023-11-25, custom)"
   xmlns:inkscape="http://www.inkscape.org/namespaces/inkscape"
   xmlns:sodipodi="http://sodipodi.sourceforge.net/DTD/sodipodi-0.dtd"
   xmlns="http://www.w3.org/2000/svg"
   xmlns:svg="http://www.w3.org/2000/svg"><defs
   id="defs1" /><sodipodi:namedview
   id="namedview1"
   pagecolor="#ffffff"
   bordercolor="#000000"
   borderopacity="0.25"
   inkscape:showpageshadow="2"
   inkscape:pageopacity="0.0"
   inkscape:pagecheckerboard="0"
   inkscape:deskcolor="#d1d1d1"
   inkscape:zoom="8.09375"
   inkscape:cx="48"
   inkscape:cy="48"
   inkscape:window-width="1920"
   inkscape:window-height="991"
   inkscape:window-x="-9"
   inkscape:window-y="-9"
   inkscape:window-maximized="1"
   inkscape:current-layer="svg1" />
<desc
   id="desc1">Created with Fabric.js 5.3.0</desc>
<g
   transform="matrix(1.6496133,0,0,1.6496134,47.999993,48.000007)"
   id="RoQhZNvyF1biObpr9w5El">
<path
   style="opacity:1;fill:#6fe68a;fill-rule:nonzero;stroke:none;stroke-width:1;stroke-linecap:butt;stroke-linejoin:miter;stroke-miterlimit:4;stroke-dasharray:none;stroke-dashoffset:0"
   d="m 3.59732,16.89848 c -1.1,0.4 -2.3,0.5 -3.5,0.5 h -0.2 c -1.2,0 -2.4,-0.2 -3.5,-0.6 -0.6,-0.2 -1.1,0.2 -1.3,0.7 -0.2,0.6 0.2,1.2 0.7,1.3 1.3,0.4 2.7,0.6 4.1,0.6 h 0.2 c 1.4,0 2.8,-0.2 4.1,-0.6 0.5,-0.2 0.8,-0.8 0.6,-1.4 -0.2,-0.3 -0.7,-0.6 -1.2,-0.5 z m 9.1,-26.7 c 0,0 0,-0.1 0,0 -2.3,-7.3 -9.9,-11.3 -16.9,-8.9 -4,1.4 -7.2,4.7 -8.5,8.9 -1.2,3.6 -0.8,8.4 1.2,12.9 2.6,6.1 7.3,10.4 11.5,10.4 h 0.1 c 4.2,0 8.9,-4.3 11.5,-10.4 1.9,-4.5 2.3,-9.3 1.1,-12.9 m -6.2,-5.2 c -2.1,-0.1 -4.4,0.9 -6.6,2.7 -2.2,-1.8 -4.5,-2.8 -6.6,-2.7 4,-2.9 9.3,-2.9 13.2,0 m -4.8,25.9 c -1.1,0.5 -2.4,0.5 -3.5,0 -3.6,-1.7 -4.3,-8.6 -1.6,-14.9 0.8,-2 1.9,-3.8 3.3,-5.3 1.4,1.6 2.5,3.4 3.3,5.3 2.8,6.4 2.1,13.2 -1.5,14.9 m -11.4,-8.7 c -1.7,-4 -2.1,-8.2 -1.1,-11.4 0.5,-1.6 1.5,-2.8 2.7,-3.4 1.8,-0.8 4.2,-0.1 6.6,1.8 -1.5,1.8 -2.8,3.8 -3.7,5.9 -1.8,4.3 -2.2,8.8 -1.4,12.2 -1.3,-1.5 -2.3,-3.2 -3.1,-5.1 m 19.3,0 c -0.8,1.8 -1.8,3.5 -3,5.1 0.8,-3.4 0.4,-7.9 -1.4,-12.2 -0.9,-2.2 -2.2,-4.2 -3.7,-5.9 2.3,-1.9 4.7,-2.6 6.6,-1.7 1.2,0.6 2.1,1.7 2.7,3.4 0.9,3.1 0.5,7.3 -1.2,11.3 z"
   stroke-linecap="round"
   id="path1" />
</g>
</svg>
