<svg xmlns="http://www.w3.org/2000/svg" width="76" height="49"><g fill="none" fill-rule="evenodd"><path fill="#FAB401" d="M0 37.925c.676-.337 1.186-.919 1.691-1.54.617-.756 1.22-1.475 1.969-2.09.897-.736 2.096-1.44 3.604-1.663a31.277 31.277 0 0 0-.455 5.293H0Zm5.078-18.962c.754.045 1.487-.203 2.235-.488.912-.347 1.795-.667 2.75-.825 1.15-.19 2.549-.199 3.973.371a31.105 31.105 0 0 0-5.31 9.162c-1.196-.948-1.883-2.159-2.292-3.245-.34-.907-.505-1.831-.66-2.795-.128-.79-.279-1.55-.696-2.18ZM18.954 5.08c.63.417 1.389.568 2.18.696.962.155 1.887.32 2.793.66 1.09.411 2.306 1.103 3.256 2.31a31.067 31.067 0 0 0-9.17 5.3c-.57-1.427-.562-2.828-.372-3.98.158-.955.478-1.838.825-2.75.286-.748.534-1.481.488-2.236ZM37.908 0v.001L37.909 0c.337.676.918 1.187 1.54 1.692.755.617 1.474 1.222 2.088 1.97.74.903 1.449 2.112 1.667 3.634a31.308 31.308 0 0 0-10.591 0c.218-1.522.926-2.731 1.666-3.634.615-.748 1.333-1.353 2.09-1.97.62-.505 1.202-1.016 1.539-1.692Zm18.954 5.08v.002c-.045.753.203 1.486.488 2.235.347.912.667 1.795.825 2.75.19 1.152.198 2.553-.373 3.98a31.08 31.08 0 0 0-9.168-5.301c.95-1.206 2.165-1.898 3.256-2.309.906-.34 1.83-.505 2.793-.66.79-.128 1.55-.279 2.179-.696Zm13.876 13.882c-.417.631-.568 1.39-.695 2.181-.156.963-.32 1.888-.66 2.795-.41 1.086-1.096 2.297-2.292 3.244a31.09 31.09 0 0 0-5.31-9.161c1.424-.57 2.823-.561 3.973-.372.955.159 1.838.479 2.75.826.747.285 1.48.533 2.234.487Zm-2.186 13.67c1.508.223 2.708.927 3.605 1.663.748.615 1.352 1.333 1.969 2.09.504.621 1.015 1.203 1.69 1.54h-6.808a31.319 31.319 0 0 0-.456-5.293ZM46.946 10.669c11.446 3.782 19.718 14.55 19.766 27.257H61.05c.375-11.1-4.467-21.117-14.103-27.257Z"/><path fill="#D32828" d="M48.096 37.925h2.943c.142-3.2-.132-6.99-1.167-10.3a18.443 18.443 0 0 0-.703-1.893c-.626-1.43-1.469-2.725-2.474-3.922a17.003 17.003 0 0 0-3.95-3.466 14.82 14.82 0 0 0-1.375-.766c-.47-.23-.957-.436-1.458-.614h-.002c-5.732-2.037-11.529-.589-16.392 2.058a32.724 32.724 0 0 0-2.73 1.666 36.094 36.094 0 0 0-2.472 1.839l-.002.001a33.662 33.662 0 0 0-3.221 2.986c-.226.239-.448.481-.664.727-.579.656-1.47 1.576-1.206 2.527.21.754 1.183.532 1.522.272.52-.28 1.091-.722 1.58-1.136.662-.56 1.287-1.164 1.942-1.732 2.65-2.298 5.414-4.071 8.135-5.271a24.796 24.796 0 0 1 1.778-.704c.59-.208 1.177-.387 1.758-.538l.003-.001c5.064-1.316 10.566-.463 14.09 3.668 3.393 3.98 4.013 9.306 4.065 14.599Zm-36.522-4.498c.316-.295.639-.68.975-1.107.47-.597.516-1.174.331-1.59a1.095 1.095 0 0 0-.296-.394 1.013 1.013 0 0 0-.425-.212c-.383-.088-.84.05-1.23.523-.439.535-1.046 1.45-1.17 2.26-.024.151-.03.299-.014.437.015.135.051.263.112.38.1.19.266.29.49.3a1.35 1.35 0 0 0 .319-.036l.002-.002c.3-.071.6-.273.906-.56Zm30.533 4.498h2.92c.138-3.448-.418-7.01-2.02-10.092-1.458-2.803-3.868-4.709-6.987-5.17-4.554-.671-9.15 1.257-13.034 4.017-4.23 3.004-7.72 7.084-10.772 11.245l3.856-.005c3.472-4.923 11.458-12.397 17.331-12.446 1.872-.015 3.775.425 5.183 1.68 1.02.91 2.256 2.678 2.195 4.112-.036.851-.79 1.112-1.514.849-.562-.205-.96-.72-1.352-1.26-1.279-1.755-3.272-2.614-5.459-2.315-2.608.357-5.84 2.383-7.926 4.225-1.798 1.59-3.449 3.33-5.006 5.16h4.146c1.52-1.835 3.124-3.4 5.187-4.686.653-.406 1.456-.837 2.301-1.127 2.132-.733 4.253-.548 5.195 2.108.37 1.043.424 1.959.316 3.637v.068h2.82l.006-.086c.003-.919-.017-1.538.066-2.448.07-.785.315-1.599 1.043-1.695 1.549-.325 1.474 3.122 1.505 4.229Zm-19.873 8.912h-2.29l-.568 1.998H17.55l2.416-7.648h2.314l2.484 7.648h-1.906l-.624-1.998Zm-2.03-1.293h1.758c-.461-1.494-.76-2.519-.896-3.075h-.023l-.362 1.453-.477 1.622Zm-6.384 1.293h-2.291l-.567 1.998H9.136l2.416-7.648h2.313l2.484 7.648h-1.905l-.624-1.998Zm-2.03-1.293h1.757c-.46-1.494-.76-2.519-.895-3.075h-.023l-.363 1.453-.476 1.622ZM26.51 48.8V41.29c.755-.113 1.564-.17 2.426-.17 1.63 0 2.8.34 3.509 1.023.708.683 1.062 1.575 1.062 2.676 0 1.3-.402 2.309-1.21 3.024-.807.715-2.053 1.072-3.735 1.072a16.31 16.31 0 0 1-2.053-.114Zm1.757-6.263v4.981c.099.023.31.035.636.035.872 0 1.55-.231 2.028-.691.478-.46.716-1.118.716-1.976 0-.787-.217-1.386-.654-1.798-.436-.413-1.066-.619-1.887-.619-.344 0-.623.023-.839.068Zm7.122-1.35h1.758v2.938h3.005v-2.938h1.758v7.648h-1.758v-3.189h-3.005v3.189h-1.758v-7.648Zm12.894 5.65h-2.29l-.568 1.998H43.6l2.416-7.648h2.314l2.483 7.648h-1.905l-.624-1.998Zm-2.03-1.293h1.758c-.461-1.494-.76-2.519-.896-3.075h-.023l-.362 1.453-.477 1.622Zm10.445 1.293h-2.291l-.567 1.998h-1.826l2.415-7.648h2.314l2.484 7.648H57.32l-.623-1.998Zm-2.03-1.293h1.757c-.46-1.494-.76-2.519-.896-3.075h-.022l-.363 1.453-.477 1.622Zm6.305 3.29V41.29c.642-.113 1.432-.17 2.37-.17 1.157 0 1.988.19 2.495.573.507.382.76.929.76 1.64 0 .423-.127.805-.382 1.147a2.042 2.042 0 0 1-.99.725v.045c.476.178.82.647 1.032 1.407.389 1.37.6 2.095.635 2.179H65.1c-.151-.284-.333-.878-.544-1.782-.106-.454-.25-.771-.431-.953-.182-.182-.473-.272-.874-.272h-.544v3.007h-1.735Zm1.735-6.365v2.1h.726c.438 0 .784-.101 1.037-.3a.965.965 0 0 0 .38-.801c0-.337-.113-.598-.342-.781-.229-.184-.554-.275-.973-.275-.413 0-.688.02-.828.057Zm-31.124-4.537 2.34-.007c.307-1.977-.294-3.5-2.293-3.136-1.685.306-3.495 1.98-4.588 3.136l3.085-.014c.344-.226 1.016-.483 1.293-.291a.374.374 0 0 1 .163.312Zm23.874-.005.021-.001h.01c.309.017.843-.125 1.151-.646a1.58 1.58 0 0 0 .154-.357c.041-.138.07-.294.081-.468l.003-.036c.234-8.18-2.27-14.95-6.52-19.55a20.864 20.864 0 0 0-2.672-2.43 20.136 20.136 0 0 0-3.021-1.906l-.017-.008c-3.574-1.827-7.626-2.529-11.603-2.192a22.958 22.958 0 0 0-4.577.86l-.01.004c-4.091 1.21-7.897 3.613-11 6.766a28.685 28.685 0 0 0-2.52 2.933c2.176-1.878 4.51-3.525 6.951-4.834.55-.295 1.103-.571 1.657-.828a29.411 29.411 0 0 1 1.686-.718h.002l.001-.001c2.157-.839 4.283-1.374 6.41-1.613a23.713 23.713 0 0 1 6.415.162c1.538.245 3.039.647 4.391 1.211a13.405 13.405 0 0 1 1.509.733l.004.002c4.76 2.609 8.068 7.96 9.525 14.003a30.168 30.168 0 0 1 .837 7.255v.07c.024.655.248 1.203.632 1.45a.87.87 0 0 0 .232.104.938.938 0 0 0 .268.035Z"/></g></svg>