<svg xmlns="http://www.w3.org/2000/svg" xml:space="preserve" viewBox="0 0 240 240"><path fill="#5B4DFC" d="M1 214c0-46.021 0-92.042.277-138.19.75-.759 1.456-1.322 1.661-2.03 3.464-11.932 9.787-22.062 19.083-30.292 10.734-9.502 23.14-15.388 37.612-15.425 60.455-.15 120.91-.063 181.37-.063 0 45.688 0 91.375-.292 137.19-3 6.117-5.159 12.433-8.512 18.034-11.681 19.506-28.965 30.541-51.873 30.666-59.773.325-119.55.11-179.32.11m151.5-107h36.106V92.254h-126.3V107h90.195m15.11 63.164c1.913.279 3.84.865 5.739.782 7.69-.334 15.992-9.13 15.55-16.275-.483-7.837-8.546-15.644-16.183-15.67-8.557-.028-14.433 4.825-16.567 13.682-1.466 6.085 3.238 13.74 11.46 17.481z"/></svg>