<svg fill="#ffffff" viewBox="0 0 141.732 141.732" xmlns="http://www.w3.org/2000/svg">
  <path d="m101.5 36.553-4.625 24.229c-2.674-3.288-6.035-4.987-10.082-5.113q-8.862-.217-14.364 6.559c-1.283 1.572-2.385 3.343-3.325 5.294-.271-1.391-.705-2.71-1.355-3.921-1.355-2.548-3.379-4.517-6.107-5.944-2.71-1.427-5.89-2.186-9.486-2.277-3.758-.09-7.3.506-10.642 1.789-3.325 1.283-5.962 3.09-7.914 5.457-1.933 2.367-2.981 5.149-3.126 8.347l14.545-.036c.741-3.559 2.692-5.294 5.854-5.24 2.548.09 3.885 1.464 4.011 4.138l-.181 2.331-.524 2.692-4.842-.09c-7.227 0-12.919 1.391-17.092 4.156-4.192 2.782-6.342 6.757-6.523 11.925-.181 3.849 1.102 7.119 3.83 9.829s6.161 4.083 10.317 4.138c4.517.108 8.42-1.608 11.672-5.204 0 1.735.199 3.18.614 4.318h14.093l.036-.831c-.669-1.518-.958-3.379-.831-5.547l.217-2.728.325-2.006q1.03 4.255 3.361 7.263c2.602 3.343 6.197 5.023 10.769 5.095 4.354.108 8.293-1.915 11.853-6.071l-.614 5.149h12.901l11.762-67.701h-14.545zM51.704 90.396c-2.24 2.728-4.824 4.047-7.805 3.921-1.229-.054-2.15-.47-2.746-1.247s-.831-1.771-.687-2.981c.289-2.259 1.283-4.047 2.945-5.348 1.68-1.301 3.668-1.987 5.999-2.042l3.74.054-1.445 7.661v-.018Zm40.545-.813c-2.24 2.819-4.77 4.192-7.625 4.101-3.288-.09-4.933-2.566-4.933-7.444-.036-1.409.072-3.054.307-4.933q.651-7.1 3.144-10.678c1.662-2.385 3.849-3.559 6.541-3.505 2.909.09 4.842 1.482 5.818 4.192l-3.252 18.285z"/>
</svg>
