<svg fill="#ffffff" viewBox="0 0 141.7 141.7" xmlns="http://www.w3.org/2000/svg">
  <path d="M113.5 28.2v85.3H28.2V28.2z" style="fill:none;stroke:#ffffff;stroke-miterlimit:10;stroke-width:4.9px"/>
  <path d="M81.1 70.8c-4 2.6-10.3 2.5-16 3.5-5.6.9-10.6 3-10.6 9.8s7.4 7.6 12 7.6 14.7-3 14.7-11.2v-9.7Zm13 16.5c0 3.2.7 4.5 3.1 4.5s1.8 0 3.2-.2v9c-1.9.7-6.1 1.5-8.2 1.5-5.3 0-9-1.8-10.1-7.2-5.2 5-13.5 7.2-20.5 7.2-10.6 0-20.3-5.7-20.3-17.3s11.8-17.2 22.8-18.4c9.4-1.7 17.7-.7 17.7-8.4s-7-8-12.3-8-12.5 3-13 9.4H43.4c.9-15.2 13.9-19.7 26.9-19.7S94 44.4 94 56.9v30.5Z"/>
</svg>
