<svg width="1200" height="1200" viewBox="0 0 1200 1200" fill="none" xmlns="http://www.w3.org/2000/svg">
<rect width="1200" height="1200" fill="#3A57FC"/>
<path d="M652.502 285.818H320.704V424.677H652.502V500.657L519.519 513.757C328.603 532.098 268.037 577.948 268.037 718.116V754.795C268.037 862.216 345.722 918.545 441.838 918.545C485.287 918.545 532.686 908.066 580.088 883.175L652.505 846.495V910.687H792.07V424.677L652.502 285.818ZM652.502 710.257L562.969 756.107C528.737 775.757 493.186 786.237 465.537 786.237C431.305 786.237 407.603 774.445 407.603 731.216V702.395C410.237 656.545 440.519 644.754 543.219 634.274L652.502 622.483V710.254V710.257Z" fill="white"/>
<path d="M792.066 285.818H652.501V424.677H792.066V285.818Z" fill="#FF8D00"/>
<path d="M931.636 424.667H792.07V910.686H931.636V424.667Z" fill="#FF8D00"/>
</svg>
