<svg version="1.2" xmlns="http://www.w3.org/2000/svg" viewBox="0 0 1507 1556" width="1507" height="1556">
	<title>logo_grey-svg</title>
	<style>
		.s0 { fill: #c41230 } 
	</style>
	<path id="Layer" class="s0" d="m759.6 651c10.6 63.6 7.5 126.3-6.8 185.3-0.6-3.5-0.8-7-1.5-10.6-51.7-311.8-346.3-522.7-657.7-470.8-32.4 5.3-63.6 13.5-93.6 23.9 62.4-54.7 140.3-93.4 228.3-108.1 251.6-41.9 489.5 128.4 531.3 380.3zm84.2 340c-48.7 59.8-107.3 106.4-171.5 140 2.8-3.3 5.7-6.4 8.4-9.7 238.7-292.4 195.6-723.2-96.4-962.3-30.4-24.8-62.2-46.4-95.3-65.2 98.4 12.9 194.5 52.4 276.9 119.9 236 193.2 270.9 541.2 77.9 777.3zm409.3-532.7c66.8 402.8-204.2 783.4-605.6 852.1 313.4-230.6 489-625.2 420.9-1035.7-16.2-97.3-45.1-189.3-84.7-274.7 138.4 110.2 238.1 269.9 269.4 458.3zm241.5 84.5c78.6 473.9-241.4 921.9-714.8 1000.6-195.5 32.6-386.6-3.2-549.2-89.5 98.5 11.2 200.2 9.2 302.8-7.9 537.8-89.4 917.1-559.8 908.4-1089.5 23.9 58.8 41.9 121 52.8 186.3z"/>
</svg>