<svg xmlns="http://www.w3.org/2000/svg" version="1.2" viewBox="0 0 1507 1556"><path d="M759.6 651c10.6 63.6 7.5 126.3-6.8 185.3-.6-3.5-.8-7-1.5-10.6C699.6 513.9 405 303 93.6 354.9 61.2 360.2 30 368.4 0 378.8c62.4-54.7 140.3-93.4 228.3-108.1C479.9 228.8 717.8 399.1 759.6 651zm84.2 340c-48.7 59.8-107.3 106.4-171.5 140 2.8-3.3 5.7-6.4 8.4-9.7C919.4 828.9 876.3 398.1 584.3 159c-30.4-24.8-62.2-46.4-95.3-65.2 98.4 12.9 194.5 52.4 276.9 119.9 236 193.2 270.9 541.2 77.9 777.3zm409.3-532.7c66.8 402.8-204.2 783.4-605.6 852.1 313.4-230.6 489-625.2 420.9-1035.7-16.2-97.3-45.1-189.3-84.7-274.7 138.4 110.2 238.1 269.9 269.4 458.3zm241.5 84.5c78.6 473.9-241.4 921.9-714.8 1000.6-195.5 32.6-386.6-3.2-549.2-89.5 98.5 11.2 200.2 9.2 302.8-7.9 537.8-89.4 917.1-559.8 908.4-1089.5 23.9 58.8 41.9 121 52.8 186.3z" style="fill:#c41230"/></svg>