<svg xmlns="http://www.w3.org/2000/svg" baseProfile="tiny-ps" version="1.2" viewBox="0 0 1386 1594"><style></style><path id="Layer" fill-rule="evenodd" d="M1385.14 634.99v912.14c0 5.9-1.13 11.75-3.38 17.22a46.432 46.432 0 0 1-9.76 14.58 44.889 44.889 0 0 1-14.64 9.76c-5.47 2.25-11.32 3.43-17.22 3.43H570.51a642.524 642.524 0 0 1-107.53-2.89c-35.72-3.97-71-10.94-105.54-20.81-34.54-9.87-68.16-22.63-100.56-38.07a643.816 643.816 0 0 1-92.83-54.38 445.826 445.826 0 0 1-72.45-75.34c-21.13-27.83-38.94-58.07-52.99-90.09a446.672 446.672 0 0 1-30.51-99.95c-6.28-34.43-8.42-69.45-6.49-104.3v-4.88c0-460.36 501.33-521.17 665-521.17h380.29v-33.41c.8-21.99-1.4-44.03-6.54-65.42-5.15-21.4-13.14-41.99-23.82-61.24a243.53 243.53 0 0 0-39.31-52.66c-15.44-15.71-32.98-29.23-52.02-40.22-139.33-70.52-413.1-44.4-641.3 96.09a40.713 40.713 0 0 1-19.14 9.28c-7.08 1.34-14.43.81-21.24-1.61a40.757 40.757 0 0 1-17.54-12.12 41.68 41.68 0 0 1-9.01-19.3l-13.99-228.6c0-2.95.32-5.85 1.07-8.69.7-2.84 1.82-5.57 3.27-8.15 1.4-2.52 3.17-4.88 5.2-6.97 2.09-2.09 4.4-3.91 6.92-5.42 40.22-23.22 81.95-43.81 124.85-61.56 42.96-17.75 86.99-32.65 131.87-44.61 44.95-11.96 90.58-20.92 136.65-26.87 46.07-5.9 92.51-8.79 138.96-8.63 186.2 0 386.99 54.11 486.74 162.96 99.8 108.86 146.03 266.35 146.03 473.72l.59-1.82ZM1046.9 858.76H687.31c-276.83 0-332.18 164.2-332.18 246.29-.26 14.59 1.24 29.12 4.51 43.33 3.27 14.21 8.26 27.94 14.85 40.92 6.6 13.03 14.75 25.15 24.35 36.14a175.737 175.737 0 0 0 32.34 29.17 274.297 274.297 0 0 0 36.52 23.38 286.952 286.952 0 0 0 39.69 17.48 281.28 281.28 0 0 0 41.88 11.16c14.21 2.63 28.64 4.13 43.12 4.56h454.51V858.76Z" style="fill:#ff5a00"/></svg>