<svg xmlns="http://www.w3.org/2000/svg" viewBox="0 0 500 500"><path fill="#FF6200" d="M16.05 385.03c-2.16 1.71-2.61 4.55-1.36 8.53 1.14 3.53 3.81 7.91 8.02 13.14 16.94 20.93 37.13 38.33 60.56 52.2 23.43 13.88 48.51 24.11 75.24 30.71 26.84 6.71 54.25 10.07 82.22 10.07 35.83 0 69.95-5.24 102.36-15.7 32.42-10.35 59.49-24.91 81.21-43.67 7.62-6.71 11.43-12.06 11.43-16.04 0-1.48-.63-2.96-1.88-4.44-1.7-1.7-3.75-2.27-6.14-1.7-2.39.57-5.74 1.99-10.06 4.26-20.82 10.92-46.18 19.62-76.09 26.1-29.8 6.6-60.91 9.9-93.32 9.9-40.15 0-78.93-5.46-116.35-16.38-37.42-10.92-70.57-27.98-99.46-51.18-4.21-3.3-7.62-5.4-10.24-6.31-2.5-.91-4.54-.74-6.14.51Z"/><path fill="#FF6200" d="M395.12 393.57c-2.39 2.28-3.01 4.67-1.88 7.17.8 1.82 2.34 2.84 4.61 3.07 2.27.34 5.52.11 9.72-.68 6.83-1.48 13.94-2.51 21.33-3.07 7.39-.46 13.82-.35 19.28.34 5.46.79 8.87 2.16 10.23 4.09 2.05 3.07 1.31 9.55-2.21 19.45-3.42 9.89-8.08 19.5-13.99 28.83-2.28 3.75-3.64 6.71-4.1 8.87-.45 2.16.12 3.98 1.71 5.46 1.02 1.02 2.16 1.54 3.41 1.54 3.3 0 8.08-2.9 14.33-8.7 11.26-9.78 19.16-21.39 23.71-34.81 2.51-6.93 4.04-14.21 4.61-21.83.57-7.62-.28-13.08-2.56-16.38-2.16-3.19-6.94-5.8-14.33-7.85-7.28-2.05-14.61-3.07-22.01-3.07-14.44 0-28.15 3.41-41.11 10.24-4.78 2.61-8.36 5.06-10.75 7.33Z"/><path fill="#fff" d="M209.76 387.72c-21.15 0-39.76-4.62-55.84-13.85-16.08-9.53-28.59-22.63-37.52-39.31-8.93-16.97-13.4-36.47-13.4-58.51 0-26.5 6.55-49.73 19.65-69.68 13.4-19.95 32.31-35.29 56.73-46.01 24.72-10.72 53.6-16.08 86.66-16.08 15.19 0 27.54 1.04 37.07 3.13v-9.38c0-22.64-4.17-39.46-12.5-50.48-8.34-11.32-21-16.97-37.97-16.97-27.4 0-44.97 14.44-52.71 43.32-2.38 8.34-7.3 11.92-14.74 10.72l-60.75-10.72c-4.47-.89-7.59-2.82-9.38-5.8-1.49-2.98-1.64-7-.45-12.06 7.75-30.38 24.13-53.9 49.14-70.58C189.06 8.49 220.78 0 258.89 0c45.27 0 79.66 12.21 103.19 36.63 23.82 24.42 35.73 60 35.73 106.76v224.68c0 3.27-1.19 6.1-3.57 8.48-2.09 2.09-4.77 3.13-8.04 3.13h-58.07c-7.15 0-11.62-3.87-13.4-11.61l-8.94-41.99h-3.57c-8.04 19.65-20.1 34.84-36.18 45.56-15.78 10.72-34.55 16.08-56.28 16.08Zm-9.38-122.39c0 15.78 4.02 28.44 12.06 37.97 8.34 9.23 19.5 13.84 33.5 13.84 18.46 0 32.61-8.19 42.43-24.56 9.83-16.68 14.74-40.5 14.74-71.47v-23.68c-8.33-1.49-16.23-2.23-23.67-2.23-24.42 0-43.78 6.4-58.07 19.21-14 12.5-20.99 29.48-20.99 50.92Z" style="mix-blend-mode:difference"/></svg>