<svg width="500" height="500" viewBox="0 0 500 500" xmlns="http://www.w3.org/2000/svg">
    <path d="M16.05 385.03C13.89 386.74 13.44 389.58 14.69 393.56C15.83 397.09 18.5 401.47 22.71 406.7C39.65 427.63 59.84 445.03 83.27 458.9C106.7 472.78 131.78 483.01 158.51 489.61C185.35 496.32 212.76 499.68 240.73 499.68C276.56 499.68 310.68 494.44 343.09 483.98C375.51 473.63 402.58 459.07 424.3 440.31C431.92 433.6 435.73 428.25 435.73 424.27C435.73 422.79 435.1 421.31 433.85 419.83C432.15 418.13 430.1 417.56 427.71 418.13C425.32 418.7 421.97 420.12 417.65 422.39C396.83 433.31 371.47 442.01 341.56 448.49C311.76 455.09 280.65 458.39 248.24 458.39C208.09 458.39 169.31 452.93 131.89 442.01C94.47 431.09 61.32 414.03 32.43 390.83C28.22 387.53 24.81 385.43 22.19 384.52C19.69 383.61 17.65 383.78 16.05 385.03Z"
          fill="#FF6200"/>
    <path d="M395.12 393.57C392.73 395.85 392.11 398.24 393.24 400.74C394.04 402.56 395.58 403.58 397.85 403.81C400.12 404.15 403.37 403.92 407.57 403.13C414.4 401.65 421.51 400.62 428.9 400.06C436.29 399.6 442.72 399.71 448.18 400.4C453.64 401.19 457.05 402.56 458.41 404.49C460.46 407.56 459.72 414.04 456.2 423.94C452.78 433.83 448.12 443.44 442.21 452.77C439.93 456.52 438.57 459.48 438.11 461.64C437.66 463.8 438.23 465.62 439.82 467.1C440.84 468.12 441.98 468.64 443.23 468.64C446.53 468.64 451.31 465.74 457.56 459.94C468.82 450.16 476.72 438.55 481.27 425.13C483.78 418.2 485.31 410.92 485.88 403.3C486.45 395.68 485.6 390.22 483.32 386.92C481.16 383.73 476.38 381.12 468.99 379.07C461.71 377.02 454.38 376 446.98 376C432.54 376 418.83 379.41 405.87 386.24C401.09 388.85 397.51 391.3 395.12 393.57Z"
          fill="#FF6200"/>
    <g style="mix-blend-mode:difference">
        <path d="M209.76 387.72C188.61 387.72 170 383.1 153.92 373.87C137.84 364.34 125.33 351.24 116.4 334.56C107.47 317.59 103 298.09 103 276.05C103 249.55 109.55 226.32 122.65 206.37C136.05 186.42 154.96 171.08 179.38 160.36C204.1 149.64 232.98 144.28 266.04 144.28C281.23 144.28 293.58 145.32 303.11 147.41V138.03C303.11 115.39 298.94 98.57 290.61 87.55C282.27 76.23 269.61 70.58 252.64 70.58C225.24 70.58 207.67 85.02 199.93 113.9C197.55 122.24 192.63 125.82 185.19 124.62L124.44 113.9C119.97 113.01 116.85 111.08 115.06 108.1C113.57 105.12 113.42 101.1 114.61 96.04C122.36 65.66 138.74 42.14 163.75 25.46C189.06 8.49 220.78 0 258.89 0C304.16 0 338.55 12.21 362.08 36.63C385.9 61.05 397.81 96.63 397.81 143.39V368.07C397.81 371.34 396.62 374.17 394.24 376.55C392.15 378.64 389.47 379.68 386.2 379.68H328.13C320.98 379.68 316.51 375.81 314.73 368.07L305.79 326.08H302.22C294.18 345.73 282.12 360.92 266.04 371.64C250.26 382.36 231.49 387.72 209.76 387.72ZM200.38 265.33C200.38 281.11 204.4 293.77 212.44 303.3C220.78 312.53 231.94 317.14 245.94 317.14C264.4 317.14 278.55 308.95 288.37 292.58C298.2 275.9 303.11 252.08 303.11 221.11V197.43C294.78 195.94 286.88 195.2 279.44 195.2C255.02 195.2 235.66 201.6 221.37 214.41C207.37 226.91 200.38 243.89 200.38 265.33Z"
              fill="white"/>
    </g>
</svg>