<?xml version="1.0" encoding="UTF-8"?>
<svg version="1.1" xmlns="http://www.w3.org/2000/svg" width="512" height="512">
<path d="M0 0 C168.96 0 337.92 0 512 0 C512 168.96 512 337.92 512 512 C343.04 512 174.08 512 0 512 C0 343.04 0 174.08 0 0 Z " fill="#FEFEFE" transform="translate(0,0)"/>
<path d="M0 0 C0 124.74 0 249.48 0 378 C-23.43 378 -46.86 378 -71 378 C-71 325.2 -71 272.4 -71 218 C-91.79 218.99 -112.58 219.98 -134 221 C-160.69642857 222.16071429 -160.69642857 222.16071429 -169 222 C-169.09216797 222.59828613 -169.18433594 223.19657227 -169.27929688 223.81298828 C-170.75678228 232.66312588 -173.08744397 241.24559069 -175.5 249.875 C-175.71864716 250.65979736 -175.93729431 251.44459473 -176.16256714 252.25317383 C-182.46686244 274.78573583 -189.64023884 296.96627731 -200 318 C-200.38623535 318.7955127 -200.7724707 319.59102539 -201.17041016 320.41064453 C-214.57920956 347.80455277 -233.29686225 373.0756696 -262.97363281 383.70703125 C-273.42660004 387.13699332 -283.12595984 388.20216385 -294.0625 388.25 C-295.21427734 388.270625 -296.36605469 388.29125 -297.55273438 388.3125 C-308.62467014 388.36217778 -319.16037328 386.6238742 -329.0625 381.5 C-329.72950928 381.15815674 -330.39651855 380.81631348 -331.08374023 380.46411133 C-344.78164519 373.07697421 -354.05822989 361.5795577 -359.17578125 346.8984375 C-366.13924509 322.41080636 -361.12450949 299.31883695 -349.30371094 277.29541016 C-346.36268285 272.117218 -342.89094428 267.51074071 -339 263 C-338.28199219 262.14535156 -337.56398438 261.29070312 -336.82421875 260.41015625 C-305.51835743 224.32222731 -253.39815912 204.66803844 -206.49536133 201.30395508 C-203.66412314 201.14845702 -200.83506284 201.04710829 -198 201 C-197.83890747 200.04710083 -197.83890747 200.04710083 -197.67456055 199.07495117 C-187.24784761 139.42258578 -165.55679396 72.21934635 -113.8125 35.6875 C-81.74049215 13.77852975 -39.031527 0 0 0 Z " fill="#02A88F" transform="translate(434,65)"/>
<path d="M0 0 C0 48.18 0 96.36 0 146 C-30.84302804 147.6671907 -61.19801988 149.1983091 -92 149 C-88.19880201 107.90596765 -69.06510275 60.49297664 -43 29 C-42.56042969 28.43667969 -42.12085938 27.87335938 -41.66796875 27.29296875 C-33.67752541 17.16461415 -13.81230068 0 0 0 Z " fill="#FDFEFE" transform="translate(363,114)"/>
<path d="M0 0 C-0.55783047 5.62456189 -1.6267511 10.61132205 -3.44140625 15.953125 C-3.8062059 17.05386101 -3.8062059 17.05386101 -4.17837524 18.17683411 C-4.96433434 20.53759419 -5.76233605 22.89401986 -6.5625 25.25 C-6.97008041 26.45968948 -6.97008041 26.45968948 -7.38589478 27.69381714 C-11.52235717 39.96176075 -15.77723086 52.14452255 -21 64 C-21.35126953 64.80131348 -21.70253906 65.60262695 -22.06445312 66.42822266 C-31.50453872 87.7183628 -44.28182695 111.8577991 -67 121 C-74.0140552 123.27956794 -83.11034338 123.19190457 -89.9375 120.4375 C-96.78294844 116.78574591 -101.75904347 111.55184519 -104.3359375 104.1796875 C-107.847773 87.3641928 -103.90695747 71.1112032 -94.86328125 56.72265625 C-75.41364148 28.30253273 -36.06857971 0 0 0 Z " fill="#FDFEFE" transform="translate(229,290)"/>
</svg>
