<svg xmlns="http://www.w3.org/2000/svg" xml:space="preserve" id="Layer_1" x="0" y="0" style="enable-background:new 0 0 119.2 40.4" version="1.1" viewBox="0 0 119.2 40.4"><style>.st0{fill:#004d6e}</style><path d="M119 0C85.4 9.2 64 16 48.7 32.4c7.4 3 15.1 5.9 21.9 7.9C78.5 24.7 92.8 12.1 119.2.6L119 0zM75.7 4c-4-.3-8.4-1.2-11.9-2.2C56.3 1.5 17.3.5 0 7.9c4.7 2.9 9.6 5.7 15.6 8.9C33 8.7 55.1 5.9 75.7 4.7V4z" class="st0"/><path d="M100.7 3.9c-5.4.7-14 1-19.2 1C66 6.6 38.8 11 23.3 20.5c5.7 2.9 11.4 5.7 17.5 8.2C57 14.8 78.7 8.6 100.7 4.4v-.5z" class="st0"/></svg>