<?xml version="1.0" encoding="UTF-8" standalone="no"?><!DOCTYPE svg PUBLIC "-//W3C//DTD SVG 1.1//EN" "http://www.w3.org/Graphics/SVG/1.1/DTD/svg11.dtd"><svg width="100%" height="100%" viewBox="0 0 394 394" version="1.1" xmlns="http://www.w3.org/2000/svg" xmlns:xlink="http://www.w3.org/1999/xlink" xml:space="preserve" xmlns:serif="http://www.serif.com/" style="fill-rule:evenodd;clip-rule:evenodd;stroke-linejoin:round;stroke-miterlimit:2;"><rect id="Artboard1" x="0" y="0" width="393.75" height="393.75" style="fill:none;"/><circle cx="196.875" cy="198.438" r="184.375" style="fill:url(#_Linear1);"/><path d="M196.875,4.368c-107.11,0 -194.07,86.96 -194.07,194.07c0,107.109 86.96,194.069 194.07,194.069c107.11,0 194.07,-86.96 194.07,-194.069c0,-107.11 -86.96,-194.07 -194.07,-194.07Zm0,9.695c101.759,0 184.375,82.615 184.375,184.375c0,101.759 -82.616,184.375 -184.375,184.375c-101.759,0 -184.375,-82.616 -184.375,-184.375c0,-101.76 82.616,-184.375 184.375,-184.375Z"/><clipPath id="_clip2"><circle cx="196.875" cy="198.437" r="184.375"/></clipPath><g clip-path="url(#_clip2)"><path d="M164.921,2.545c-0.235,-1.54 -0.354,-3.095 -0.354,-4.652c0,-16.986 13.79,-30.776 30.776,-30.776c16.986,0 30.776,13.79 30.776,30.776c0,1.557 -0.118,3.112 -0.354,4.652l-30.422,198.947l65.518,-190.297c0.507,-1.472 1.125,-2.904 1.849,-4.283c7.893,-15.04 26.513,-20.842 41.553,-12.949c15.04,7.894 20.842,26.513 12.948,41.553c-0.724,1.379 -1.551,2.701 -2.475,3.955l-119.393,162.021l146.449,-138.052c1.133,-1.068 2.346,-2.049 3.627,-2.933c13.979,-9.649 33.162,-6.134 42.811,7.845c9.649,13.979 6.134,33.162 -7.845,42.81c-1.282,0.885 -2.629,1.671 -4.03,2.352l-181.012,87.978l193.83,-54.181c1.5,-0.419 3.029,-0.724 4.575,-0.912c16.862,-2.047 32.214,9.98 34.261,26.842c2.048,16.862 -9.98,32.214 -26.842,34.261c-1.546,0.188 -3.104,0.258 -4.66,0.21l-201.164,-6.22l196.807,42.102c1.523,0.326 3.019,0.767 4.475,1.319c15.882,6.024 23.886,23.808 17.863,39.69c-6.024,15.881 -23.808,23.885 -39.69,17.862c-1.456,-0.552 -2.868,-1.214 -4.224,-1.98l-175.231,-98.993l154.698,128.74c1.197,0.997 2.317,2.082 3.349,3.248c11.264,12.714 10.086,32.181 -2.628,43.444c-12.713,11.264 -32.18,10.086 -43.444,-2.628c-1.032,-1.165 -1.975,-2.408 -2.82,-3.716l-109.155,-169.088l77.149,185.886c0.597,1.438 1.084,2.92 1.457,4.432c4.065,16.492 -6.024,33.182 -22.516,37.247c-16.492,4.064 -33.182,-6.025 -37.247,-22.517c-0.373,-1.512 -0.63,-3.05 -0.77,-4.601l-18.073,-200.447l-18.073,200.447c-0.14,1.551 -0.397,3.089 -0.77,4.601c-4.065,16.492 -20.754,26.581 -37.246,22.517c-16.493,-4.065 -26.582,-20.755 -22.517,-37.247c0.373,-1.512 0.86,-2.994 1.457,-4.432l77.149,-185.886l-109.155,169.088c-0.845,1.308 -1.787,2.551 -2.82,3.716c-11.264,12.714 -30.73,13.892 -43.444,2.628c-12.714,-11.263 -13.892,-30.73 -2.628,-43.444c1.033,-1.166 2.152,-2.251 3.349,-3.248l154.698,-128.74l-175.231,98.993c-1.356,0.766 -2.768,1.428 -4.224,1.98c-15.882,6.023 -33.666,-1.981 -39.689,-17.862c-6.024,-15.882 1.98,-33.666 17.862,-39.69c1.456,-0.552 2.952,-0.993 4.475,-1.319l196.807,-42.102l-201.163,6.22c-1.557,0.048 -3.115,-0.022 -4.661,-0.21c-16.862,-2.047 -28.889,-17.399 -26.842,-34.261c2.047,-16.862 17.399,-28.889 34.261,-26.842c1.546,0.188 3.076,0.493 4.575,0.912l193.83,54.181l-181.012,-87.978c-1.401,-0.681 -2.748,-1.467 -4.029,-2.352c-13.979,-9.648 -17.495,-28.831 -7.846,-42.81c9.649,-13.979 28.832,-17.494 42.811,-7.845c1.282,0.884 2.494,1.865 3.628,2.933l146.448,138.052l-119.393,-162.021c-0.924,-1.254 -1.751,-2.576 -2.475,-3.955c-7.893,-15.04 -2.091,-33.659 12.949,-41.553c15.04,-7.893 33.659,-2.091 41.552,12.949c0.724,1.379 1.342,2.811 1.849,4.283l65.518,190.297l-30.422,-198.947Z" style="fill:#ebebeb;fill-opacity:0.11;"/></g><g id="ninja2"><path d="M169.393,284.907c-0.174,-0.579 -0.463,-2.258 -0.695,-3.764c-0.405,-3.068 0.174,-4.458 3.879,-9.784l2.316,-3.242l-1.795,-3.59c-1.621,-3.126 -2.2,-3.705 -4.863,-4.921c-1.621,-0.695 -3.821,-2.027 -4.805,-2.837c-3.648,-3.069 -7.18,-3.474 -11.927,-1.39c-1.679,0.753 -3.416,1.853 -3.879,2.374c-1.216,1.505 -3.822,2.663 -5.848,2.663c-1.505,0 -2.026,-0.463 -3.532,-2.895c-1.447,-2.373 -2.142,-2.952 -4.168,-3.473c-5.443,-1.332 -6.658,-1.795 -8.164,-2.953c-1.563,-1.216 -3.647,-4.806 -4.4,-7.411c-0.289,-1.216 -0.926,-1.505 -4.111,-2.142c-3.531,-0.753 -10.421,-3.821 -13.084,-5.906c-2.027,-1.505 -3.3,-8.163 -3.3,-17.195c0,-7.006 0.115,-7.932 1.91,-13.027c1.042,-3.011 2.663,-6.832 3.59,-8.511c2.374,-4.168 3.763,-4.458 16.443,-4.053c12.505,0.464 19.221,1.274 24.258,3.011l3.995,1.39l-0.347,-2.548c-0.347,-2.374 -0.232,-2.663 1.505,-3.995c1.042,-0.81 2.837,-1.853 3.995,-2.374c2.721,-1.1 2.837,-1.331 1.911,-3.937c-1.39,-3.995 -3.242,-6.137 -6.137,-7.005c-6.369,-1.911 -12.159,-6.369 -13.085,-10.132c-0.232,-0.869 0.81,-4.921 3.068,-11.58l3.358,-10.189l0.406,-9.553c0.289,-7.238 0.695,-10.364 1.563,-13.027c2.374,-7.122 3.3,-8.569 7.295,-11.753c2.084,-1.737 3.821,-3.358 3.821,-3.648c0,-0.289 -0.752,-1.795 -1.621,-3.3c-0.868,-1.505 -2.142,-3.59 -2.721,-4.632c-1.1,-1.795 -1.332,-1.91 -3.474,-1.621c-1.274,0.174 -6.542,0.868 -11.637,1.505c-5.153,0.637 -11.116,1.679 -13.317,2.374c-6.773,2.027 -18.99,9.032 -28.427,16.327c-2.084,1.563 -3.821,2.721 -3.995,2.605c-0.347,-0.405 8.916,-9.321 13.374,-12.853c2.258,-1.794 5.79,-4.168 7.99,-5.326c4.111,-2.142 11.464,-4.864 13.259,-4.864c0.579,0 1.042,-0.289 1.042,-0.636c0,-0.637 -4.053,-0.464 -8.106,0.405c-1.042,0.231 -1.216,0.174 -0.579,-0.232c1.679,-1.1 7.237,-1.737 12.159,-1.447c4.921,0.347 13.779,-0.521 16.558,-1.621l1.505,-0.521l-2.605,-3.648c-1.389,-1.968 -4.574,-6.6 -7.063,-10.248c-2.49,-3.647 -6.485,-9.437 -8.801,-12.853c-3.474,-5.037 -4.168,-6.484 -3.879,-7.7c0.521,-2.084 3.416,-4.342 5.616,-4.342c1.795,0 2.2,0.579 10.537,13.432c4.806,7.353 8.859,13.663 9.09,13.953c0.406,0.637 9.148,-3.474 9.148,-4.284c0,-0.29 1.505,-1.274 3.358,-2.201c4.632,-2.373 14.59,-10.132 14.59,-11.347c0,-0.464 -2.663,-0.116 -4.284,0.579c-0.753,0.347 -0.985,0.289 -0.753,-0.116c0.521,-0.811 7.179,-3.995 12.274,-5.848c5.616,-2.084 14.243,-2.142 20.554,-0.231c3.879,1.215 4.747,1.794 7.874,4.979c5.616,5.847 10.074,15.979 10.074,22.869c0,1.853 1.91,3.879 6.079,6.253c1.621,0.926 3.474,2.605 4.169,3.705c2.547,3.937 3.184,4.632 5.558,6.137c2.895,1.737 5.789,4.69 6.947,6.948c0.464,0.869 1.564,3.821 2.432,6.542c1.911,5.906 2.605,17.022 1.505,24.954c-0.347,2.663 -0.81,9.032 -1.042,14.185l-0.347,9.263l1.563,2.722c0.869,1.447 1.505,3.126 1.39,3.647c-0.116,0.521 -3.011,2.432 -6.427,4.227c-3.416,1.852 -6.484,3.589 -6.832,3.937c-0.752,0.752 -2.374,7.005 -2.026,7.642c0.173,0.232 1.852,0.926 3.763,1.447l3.474,0.985l9.148,-4.69c11.405,-5.79 16.269,-7.121 24.664,-6.832c5.442,0.174 6.253,0.348 10.248,2.316c2.663,1.274 5.789,3.474 7.932,5.5c3.358,3.185 3.821,3.995 8.221,13.896c2.605,5.847 4.69,11.058 4.69,11.695c0,1.91 -1.158,4.342 -3.011,6.253c-0.984,0.984 -2.953,4.284 -4.458,7.237c-2.432,4.863 -2.953,5.558 -5.732,7.237c-2.837,1.679 -7.7,3.763 -14.706,6.195c-2.084,0.753 -3.01,1.563 -4.111,3.416c-0.81,1.332 -2.547,3.647 -3.879,5.211l-2.431,2.721l-4.69,0c-2.605,0 -6.89,-0.521 -9.437,-1.042l-4.748,-1.042l-10.074,7.237c-5.558,3.995 -10.885,7.874 -11.811,8.568l-1.679,1.274l2.837,8.395c2.49,7.353 2.779,8.743 2.316,10.595l-0.521,2.201l-32.828,0.173c-30.859,0.116 -32.827,0.058 -33.059,-0.868Zm34.738,-11.753c0.348,0 0.811,-0.811 1.042,-1.737c0.232,-0.985 0.869,-2.258 1.448,-2.779c0.81,-0.753 1.216,-2.49 1.679,-7.006c0.347,-3.3 0.637,-6.137 0.637,-6.369c0,-0.694 -14.938,-0.694 -15.401,0c-0.232,0.406 0.116,2.606 0.695,5.037c0.81,3.301 1.447,4.516 2.547,5.269c2.085,1.332 2.721,2.374 3.127,4.921c0.521,3.011 0.81,3.416 2.316,3.011c0.637,-0.174 1.505,-0.347 1.91,-0.347Zm-36.301,-171.086c0.637,-0.753 0.521,-1.332 -0.521,-3.243c-1.332,-2.315 -1.332,-3.068 -0.29,-6.831l0.405,-1.448l-2.258,1.39c-4.052,2.431 -4.052,2.316 -1.679,6.889c2.201,4.169 3.011,4.806 4.343,3.243Z" style="fill-rule:nonzero;"/><path d="M143.982,91.287c-1.6,-2.29 -4.24,-6.134 -6.373,-9.258c-2.491,-3.651 -6.489,-9.445 -8.789,-12.838c-2.346,-3.401 -3.523,-5.374 -4.053,-6.683c-0.738,-1.821 -0.696,-3.067 -0.413,-4.253c0.446,-1.783 1.785,-3.728 3.605,-5.14c1.806,-1.4 4.018,-2.227 5.885,-2.227c1.703,0 2.943,0.084 5.006,2.298c1.365,1.465 3.648,4.886 8.874,12.943c3.095,4.735 5.863,9.032 7.456,11.492c0.475,-0.193 0.965,-0.401 1.382,-0.598c1.023,-0.481 2.391,-1.26 2.953,-1.585c0.597,-0.674 2.388,-2.083 4.641,-3.209c1.818,-0.932 4.907,-3.224 7.612,-5.344c-0.501,-0.968 -0.662,-2.295 0.295,-3.969c0.034,-0.06 0.07,-0.119 0.108,-0.178c0.256,-0.398 0.971,-1.208 2.282,-2c2.268,-1.37 7.655,-3.866 11.962,-5.432c6.312,-2.342 16.007,-2.457 23.137,-0.298c4.687,1.469 5.752,2.144 9.56,6.024c6.207,6.462 11.063,17.638 11.184,25.341c0.135,0.168 0.482,0.589 0.784,0.854c0.803,0.705 1.896,1.434 3.286,2.226c2.182,1.247 4.629,3.559 5.54,5.003c2.023,3.126 2.46,3.739 4.26,4.882c3.541,2.125 7.03,5.788 8.417,8.493c0.511,0.958 1.754,4.205 2.708,7.192c2.047,6.327 2.839,18.234 1.665,26.7c-0.339,2.6 -0.786,8.817 -1.011,13.818l-0.305,8.118l0.954,1.662c0.984,1.639 1.695,3.514 1.881,4.565c0.15,0.844 0.088,1.53 -0.017,2.003c-0.117,0.525 -0.478,1.556 -1.622,2.578c-1.034,0.926 -3.737,2.685 -6.799,4.293c-2.098,1.138 -4.449,2.495 -5.575,3.151l-0.655,2.431l2.281,0.648l7.764,-3.98c12.293,-6.24 17.562,-7.574 26.599,-7.262c6.317,0.201 7.249,0.44 11.844,2.705c3.005,1.437 6.536,3.915 8.956,6.205c3.682,3.491 4.298,4.315 9.122,15.167c2.153,4.833 3.954,9.248 4.592,11.156c0.366,1.097 0.443,1.862 0.443,2.165c0,2.735 -1.485,6.297 -4.137,9.033c-0.014,0.014 -0.029,0.029 -0.043,0.043c-0.84,0.841 -2.439,3.707 -3.71,6.2c-3.016,6.031 -3.793,6.787 -7.27,8.888c-2.979,1.763 -8.074,3.977 -15.384,6.514c-1.033,0.373 -1.487,0.78 -2.055,1.736c-0.89,1.462 -2.789,4.009 -4.251,5.724l-2.494,2.793c-0.757,0.848 -1.84,1.332 -2.977,1.332l-4.69,0c-2.826,0 -7.474,-0.558 -10.237,-1.123l-3.064,-0.672l-8.627,6.197c-4.765,3.425 -9.359,6.764 -11.114,8.056l1.913,5.659c2.999,8.859 2.965,10.612 2.419,12.796l-0.521,2.2c-0.425,1.793 -2.022,3.063 -3.865,3.073c0,0 -32.828,0.174 -32.834,0.174c-25.576,0.096 -31.994,-0.079 -33.662,-0.582c-1.266,-0.381 -1.903,-0.967 -2.333,-1.465c-0.459,-0.533 -0.745,-1.095 -0.915,-1.71c-0.202,-0.699 -0.546,-2.575 -0.818,-4.346c-0.515,-3.903 -0.153,-5.812 4.56,-12.588l0.947,-1.326l-0.693,-1.387c-1.011,-1.951 -1.315,-2.368 -2.891,-3.089c-1.95,-0.835 -4.587,-2.45 -5.803,-3.451c-2.367,-1.991 -4.671,-2.142 -7.723,-0.802c-0.983,0.441 -2.387,1.348 -2.64,1.513c-1.95,2.182 -5.732,3.874 -8.72,3.874c-1.014,0 -1.821,-0.146 -2.556,-0.425c-1.301,-0.492 -2.577,-1.464 -4.385,-4.385c-0.649,-1.064 -0.846,-1.451 -1.708,-1.673c-6.472,-1.584 -7.86,-2.29 -9.666,-3.68c-1.821,-1.416 -4.294,-5.272 -5.464,-8.476c-0.407,-0.101 -0.93,-0.224 -1.428,-0.323c-3.947,-0.842 -11.612,-4.274 -14.652,-6.62c-1.057,-0.792 -2.178,-2.272 -2.974,-4.538c-1.168,-3.323 -1.92,-8.947 -1.92,-15.849c0,-7.722 0.159,-8.738 2.13,-14.333c1.119,-3.233 2.872,-7.331 3.894,-9.181c1.043,-1.833 2.033,-3.094 3.303,-4.029c1.259,-0.928 2.815,-1.588 5.153,-1.911c2.39,-0.33 5.93,-0.309 11.604,-0.127c11.809,0.437 18.685,1.228 23.792,2.712c0.055,-0.239 0.123,-0.46 0.203,-0.67c0.401,-1.061 1.119,-2.044 2.818,-3.346c1.11,-0.864 2.929,-1.95 4.3,-2.623c-0.773,-1.993 -1.651,-3.243 -3.228,-3.716c-4.425,-1.328 -8.598,-3.736 -11.469,-6.376c-2.329,-2.143 -3.823,-4.505 -4.327,-6.552c-0.126,-0.473 -0.238,-1.29 -0.088,-2.443c0.236,-1.815 1.299,-5.744 3.223,-11.415l3.184,-9.664l0.382,-8.989c0.313,-7.841 0.815,-11.22 1.765,-14.13c2.762,-8.288 3.945,-9.907 8.527,-13.558c0.522,-0.435 1.08,-0.93 1.577,-1.381c-0.094,-0.175 -0.189,-0.345 -0.28,-0.504c-0.77,-1.334 -1.854,-3.119 -2.505,-4.25c-1.676,0.226 -6.601,0.873 -11.378,1.471c-4.876,0.602 -10.522,1.561 -12.662,2.236c-6.473,1.936 -18.112,8.69 -27.176,15.696c-2.468,1.851 -4.674,3.104 -5.235,3.259c-1.654,0.454 -2.765,-0.122 -3.371,-0.526c-0.304,-0.203 -0.579,-0.446 -0.817,-0.724c-0.46,-0.537 -1.924,-2.701 -0.029,-5.309c1.365,-1.877 9.704,-9.905 13.95,-13.269c2.434,-1.934 6.244,-4.486 8.63,-5.742c0.914,-0.476 1.972,-0.97 3.097,-1.455c-0.004,-0.899 0.288,-2.469 2.176,-3.67c0.787,-0.516 2.09,-1.049 3.779,-1.415c2.8,-0.607 6.974,-0.904 10.849,-0.676c3.032,0.214 7.742,-0.042 11.188,-0.544Zm21.575,194.725l0.011,0.042l-0.049,-0.179l0.038,0.137Zm3.836,-1.105c-0.174,-0.579 -0.463,-2.258 -0.695,-3.764c-0.405,-3.068 0.174,-4.458 3.879,-9.784l2.316,-3.242l-1.795,-3.59c-1.621,-3.126 -2.2,-3.705 -4.863,-4.921c-1.621,-0.695 -3.821,-2.027 -4.805,-2.837c-3.648,-3.069 -7.18,-3.474 -11.927,-1.39c-1.679,0.753 -3.416,1.853 -3.879,2.374c-1.216,1.505 -3.822,2.663 -5.848,2.663c-1.505,0 -2.026,-0.463 -3.532,-2.895c-1.447,-2.373 -2.142,-2.952 -4.168,-3.473c-5.443,-1.332 -6.658,-1.795 -8.164,-2.953c-1.563,-1.216 -3.647,-4.806 -4.4,-7.411c-0.289,-1.216 -0.926,-1.505 -4.111,-2.142c-3.531,-0.753 -10.421,-3.821 -13.084,-5.906c-2.027,-1.505 -3.3,-8.163 -3.3,-17.195c0,-7.006 0.115,-7.932 1.91,-13.027c1.042,-3.011 2.663,-6.832 3.59,-8.511c2.374,-4.168 3.763,-4.458 16.443,-4.053c12.505,0.464 19.221,1.274 24.258,3.011l3.995,1.39l-0.347,-2.548c-0.347,-2.374 -0.232,-2.663 1.505,-3.995c1.042,-0.81 2.837,-1.853 3.995,-2.374c2.721,-1.1 2.837,-1.331 1.911,-3.937c-1.39,-3.995 -3.242,-6.137 -6.137,-7.005c-6.369,-1.911 -12.159,-6.369 -13.085,-10.132c-0.232,-0.869 0.81,-4.921 3.068,-11.58l3.358,-10.189l0.406,-9.553c0.289,-7.238 0.695,-10.364 1.563,-13.027c2.374,-7.122 3.3,-8.569 7.295,-11.753c2.084,-1.737 3.821,-3.358 3.821,-3.648c0,-0.289 -0.752,-1.795 -1.621,-3.3c-0.868,-1.505 -2.142,-3.59 -2.721,-4.632c-1.1,-1.795 -1.332,-1.91 -3.474,-1.621c-1.274,0.174 -6.542,0.868 -11.637,1.505c-5.153,0.637 -11.116,1.679 -13.317,2.374c-6.773,2.027 -18.99,9.032 -28.427,16.327c-2.084,1.563 -3.821,2.721 -3.995,2.605c-0.347,-0.405 8.916,-9.321 13.374,-12.853c2.258,-1.794 5.79,-4.168 7.99,-5.326c4.111,-2.142 11.464,-4.864 13.259,-4.864c0.579,0 1.042,-0.289 1.042,-0.636c0,-0.637 -4.053,-0.464 -8.106,0.405c-1.042,0.231 -1.216,0.174 -0.579,-0.232c1.679,-1.1 7.237,-1.737 12.159,-1.447c4.921,0.347 13.779,-0.521 16.558,-1.621l1.505,-0.521l-2.605,-3.648c-1.389,-1.968 -4.574,-6.6 -7.063,-10.248c-2.49,-3.647 -6.485,-9.437 -8.801,-12.853c-3.474,-5.037 -4.168,-6.484 -3.879,-7.7c0.521,-2.084 3.416,-4.342 5.616,-4.342c1.795,0 2.2,0.579 10.537,13.432c4.806,7.353 8.859,13.663 9.09,13.953c0.406,0.637 9.148,-3.474 9.148,-4.284c0,-0.29 1.505,-1.274 3.358,-2.201c4.632,-2.373 14.59,-10.132 14.59,-11.347c0,-0.464 -2.663,-0.116 -4.284,0.579c-0.753,0.347 -0.985,0.289 -0.753,-0.116c0.521,-0.811 7.179,-3.995 12.274,-5.848c5.616,-2.084 14.243,-2.142 20.554,-0.231c3.879,1.215 4.747,1.794 7.874,4.979c5.616,5.847 10.074,15.979 10.074,22.869c0,1.853 1.91,3.879 6.079,6.253c1.621,0.926 3.474,2.605 4.169,3.705c2.547,3.937 3.184,4.632 5.558,6.137c2.895,1.737 5.789,4.69 6.947,6.948c0.464,0.869 1.564,3.821 2.432,6.542c1.911,5.906 2.605,17.022 1.505,24.954c-0.347,2.663 -0.81,9.032 -1.042,14.185l-0.347,9.263l1.563,2.722c0.869,1.447 1.505,3.126 1.39,3.647c-0.116,0.521 -3.011,2.432 -6.427,4.227c-3.416,1.852 -6.484,3.589 -6.832,3.937c-0.752,0.752 -2.374,7.005 -2.026,7.642c0.173,0.232 1.852,0.926 3.763,1.447l3.474,0.985l9.148,-4.69c11.405,-5.79 16.269,-7.121 24.664,-6.832c5.442,0.174 6.253,0.348 10.248,2.316c2.663,1.274 5.789,3.474 7.932,5.5c3.358,3.185 3.821,3.995 8.221,13.896c2.605,5.847 4.69,11.058 4.69,11.695c0,1.91 -1.158,4.342 -3.011,6.253c-0.984,0.984 -2.953,4.284 -4.458,7.237c-2.432,4.863 -2.953,5.558 -5.732,7.237c-2.837,1.679 -7.7,3.763 -14.706,6.195c-2.084,0.753 -3.01,1.563 -4.111,3.416c-0.81,1.332 -2.547,3.647 -3.879,5.211l-2.431,2.721l-4.69,0c-2.605,0 -6.89,-0.521 -9.437,-1.042l-4.748,-1.042l-10.074,7.237c-5.558,3.995 -10.885,7.874 -11.811,8.568l-1.679,1.274l2.837,8.395c2.49,7.353 2.779,8.743 2.316,10.595l-0.521,2.201l-32.828,0.173c-30.859,0.116 -32.827,0.058 -33.059,-0.868Zm34.738,-11.753c0.348,0 0.811,-0.811 1.042,-1.737c0.232,-0.985 0.869,-2.258 1.448,-2.779c0.81,-0.753 1.216,-2.49 1.679,-7.006c0.347,-3.3 0.637,-6.137 0.637,-6.369c0,-0.694 -14.938,-0.694 -15.401,0c-0.232,0.406 0.116,2.606 0.695,5.037c0.81,3.301 1.447,4.516 2.547,5.269c2.085,1.332 2.721,2.374 3.127,4.921c0.521,3.011 0.81,3.416 2.316,3.011c0.637,-0.174 1.505,-0.347 1.91,-0.347Zm-0.399,-3.972c0.076,-0.007 0.148,-0.013 0.214,-0.016c0.067,-0.004 0.129,-0.006 0.185,-0.006l-0.399,0.022Zm0.826,-10.19l-6.526,0.01l0.077,0.346c0.265,1.078 0.496,1.887 0.748,2.505c0.077,0.188 0.066,0.344 0.175,0.419c2.158,1.391 3.319,2.581 4.034,4.42c0.169,-0.239 0.339,-0.456 0.506,-0.642c0.099,-0.469 0.523,-2.556 0.756,-4.836c0.078,-0.742 0.157,-1.502 0.23,-2.222Zm-102.641,-20.164l0.018,0.014l-0.08,-0.061l0.062,0.047Zm65.913,-136.76c0.637,-0.753 0.521,-1.332 -0.521,-3.243c-1.332,-2.315 -1.332,-3.068 -0.29,-6.831l0.405,-1.448l-2.258,1.39c-4.052,2.431 -4.052,2.316 -1.679,6.889c2.201,4.169 3.011,4.806 4.343,3.243Zm-10.99,-21.945c-0.087,-0.138 -0.197,-0.301 -0.332,-0.471l0.332,0.471Zm2.191,-3.922c-0.194,0.349 -0.295,0.69 -0.348,0.996c-0.053,0.307 -0.057,0.578 -0.057,0.786c0,-0.485 0.076,-1.105 0.405,-1.782Z" style="fill:#fff;"/><path d="M186.241,111.563c-1.389,-0.753 -1.332,-2.258 0.058,-2.258c0.695,0 1.158,0.521 1.332,1.447c0.347,1.563 0.115,1.737 -1.39,0.811Z" style="fill:#bcb4b4;fill-rule:nonzero;"/><path d="M189.657,111.042c0.347,-1.332 0.926,-1.448 1.853,-0.406c0.752,0.927 0.289,1.564 -1.158,1.564c-0.695,0 -0.927,-0.348 -0.695,-1.158Z" style="fill:#bcb4b4;fill-rule:nonzero;"/><path d="M204.71,111.794c-0.405,-0.405 0.637,-1.91 1.332,-1.91c0.231,0 0.579,0.521 0.753,1.158c0.231,0.81 0,1.158 -0.695,1.158c-0.579,0 -1.216,-0.174 -1.39,-0.406Z" style="fill:#bcb4b4;fill-rule:nonzero;"/><path d="M208.821,110.752c0.174,-0.926 0.637,-1.447 1.332,-1.447c1.331,0 1.389,0.753 0.173,1.968c-1.274,1.332 -1.852,1.158 -1.505,-0.521Z" style="fill:#bcb4b4;fill-rule:nonzero;"/></g><g><path d="M130.275,307.592c0.3,1.25 0.85,2.9 1.45,3.75c0.55,0.8 3.55,4.5 5.55,4.5c1,0 5.25,-1.75 6.1,-2.05c4,-1.2 12.75,-2.8 16.8,-2.8c0.65,0 1.25,0 1.25,0.5c0,0.8 -2.45,3.95 -6.55,7.2c-2.5,-2.5 -3.4,-3 -4.85,-3c-1.1,0 -2.65,0.45 -4.55,1.05l0.1,0.5c1.8,0.3 2.25,1.7 2.25,3.15c0,3.15 -3.55,17.15 -14.05,24.9l0.3,0.4c6.7,-2.3 13.85,-6.8 20.2,-20.3c0.5,-1.05 0.85,-1.7 1.75,-2.85c0.35,-0.5 0.55,-0.85 0.55,-1.25c0,-0.45 -0.25,-0.85 -0.7,-1.4c3.35,-1.1 7.35,-2.55 9.8,-3.6c1.55,-0.6 2.15,-0.7 3.55,-1c2.4,-0.5 2.55,-1.8 2.55,-2.2c0,-1.75 -4.25,-5.7 -6.9,-6.95c-0.45,-0.2 -0.8,-0.25 -1.2,-0.25c-0.45,0 -0.9,0.1 -1.5,0.3l-2.4,0.85c-1,0.35 -1.75,0.6 -3.95,0.85c-3.55,0.4 -15,1.25 -19.45,1.25c-2.55,0 -4.75,-0.7 -5.65,-1.75l-0.45,0.2Z" style="fill-rule:nonzero;"/><path d="M133.764,304.423c0.247,0.073 1.632,0.469 2.611,0.469c4.341,0 15.511,-0.833 18.97,-1.222c1.684,-0.192 2.261,-0.371 3.011,-0.634l2.475,-0.875c1.134,-0.378 1.994,-0.519 2.844,-0.519c0.976,0 1.828,0.129 3.013,0.657c2.336,1.102 5.681,3.846 7.465,6.164c1.338,1.739 1.871,3.471 1.871,4.629c0,0.686 -0.101,2.155 -1.26,3.658c-0.742,0.962 -2.033,2.152 -4.649,2.697c-1.136,0.243 -1.631,0.315 -2.876,0.796c-1.729,0.736 -4.161,1.654 -6.615,2.518c-0.192,0.678 -0.541,1.393 -1.118,2.217c-0.043,0.062 -0.088,0.123 -0.135,0.182c-0.649,0.83 -0.899,1.301 -1.251,2.04c-7.083,15.059 -15.192,19.945 -22.665,22.511c-1.743,0.598 -3.674,0.005 -4.779,-1.47l-0.3,-0.4c-0.68,-0.906 -0.97,-2.046 -0.805,-3.166c0.164,-1.121 0.769,-2.13 1.681,-2.802c8.558,-6.317 11.922,-17.351 12.289,-20.904c-0.815,-0.442 -1.467,-1.144 -1.846,-1.998c-0.519,0.19 -1.041,0.374 -1.512,0.527c-1.274,0.412 -2.366,0.593 -2.908,0.593c-1.323,0 -2.923,-0.53 -4.437,-1.606c-2.067,-1.467 -4.118,-4.014 -4.584,-4.693c-0.839,-1.188 -1.691,-3.461 -2.111,-5.209c-0.478,-1.992 0.534,-4.042 2.406,-4.874l0.45,-0.2c1.632,-0.725 3.531,-0.351 4.765,0.914Zm-3.489,3.169c0.3,1.25 0.85,2.9 1.45,3.75c0.55,0.8 3.55,4.5 5.55,4.5c1,0 5.25,-1.75 6.1,-2.05c4,-1.2 12.75,-2.8 16.8,-2.8c0.65,0 1.25,0 1.25,0.5c0,0.8 -2.45,3.95 -6.55,7.2c-2.5,-2.5 -3.4,-3 -4.85,-3c-1.1,0 -2.65,0.45 -4.55,1.05l0.1,0.5c1.8,0.3 2.25,1.7 2.25,3.15c0,3.15 -3.55,17.15 -14.05,24.9l0.3,0.4c6.7,-2.3 13.85,-6.8 20.2,-20.3c0.5,-1.05 0.85,-1.7 1.75,-2.85c0.35,-0.5 0.55,-0.85 0.55,-1.25c0,-0.45 -0.25,-0.85 -0.7,-1.4c3.35,-1.1 7.35,-2.55 9.8,-3.6c1.55,-0.6 2.15,-0.7 3.55,-1c2.4,-0.5 2.55,-1.8 2.55,-2.2c0,-1.75 -4.25,-5.7 -6.9,-6.95c-0.45,-0.2 -0.8,-0.25 -1.2,-0.25c-0.45,0 -0.9,0.1 -1.5,0.3l-2.4,0.85c-1,0.35 -1.75,0.6 -3.95,0.85c-3.55,0.4 -15,1.25 -19.45,1.25c-2.55,0 -4.75,-0.7 -5.65,-1.75l-0.45,0.2Z" style="fill:#fff;"/><path d="M183.825,312.042c0.3,1 0.7,2.25 1.25,3.1c0.2,0.3 2.55,4 4.95,4c1.05,0 5.55,-0.85 6.45,-0.95c2.4,-0.3 5.65,-0.65 7.8,-0.8c2.55,-0.2 5.15,-0.1 6.65,-0.3c1.25,-0.2 2,-1.45 2,-2.8c0,-2.45 -5.9,-3.35 -6.7,-3.35c-0.6,0 -1.05,0.1 -1.55,0.3c-0.55,0.2 -1.15,0.5 -1.65,0.7c-2.75,1.05 -10.75,1.5 -11.45,1.5c-5.25,0 -6.7,-1.2 -7.3,-1.65l-0.45,0.25Zm-6.5,16.7c0,1.35 0.05,2.85 0.5,3.85c0.6,1.4 3.65,4.95 6,4.95c0.45,0 0.9,-0.05 1.4,-0.15c2.6,-0.45 6.8,-1.35 11.4,-1.85c3.45,-0.35 7.95,-0.7 12.45,-0.7l0.9,0c4.05,0.05 6.85,0.45 8.85,0.45c0.95,0 2.25,0 2.8,-2c0.1,-0.3 0.15,-0.65 0.15,-1c0,-0.65 -0.2,-1.35 -0.9,-1.85c-2.05,-1.4 -5.85,-2.35 -7.2,-2.35c-0.6,0 -1.15,0.1 -1.75,0.25c-3.3,0.95 -3.35,0.95 -6.65,1.35c-2.6,0.3 -15.8,1.4 -19.8,1.4c-2.7,0 -6,-0.35 -7.7,-2.55l-0.45,0.2Z" style="fill-rule:nonzero;"/><path d="M185.977,341.574c-0.765,0.149 -1.459,0.217 -2.152,0.217c-1.754,0 -3.815,-0.833 -5.612,-2.273c-2.073,-1.661 -3.777,-4.046 -4.263,-5.183c-0.656,-1.458 -0.874,-3.625 -0.874,-5.593c0,-1.68 0.989,-3.201 2.523,-3.883l0.45,-0.2c1.79,-0.796 3.891,-0.265 5.088,1.285c0.279,0.361 0.745,0.47 1.196,0.589c1.022,0.269 2.139,0.309 3.142,0.309c3.902,0 16.777,-1.079 19.289,-1.369c2.97,-0.36 3.015,-0.36 5.985,-1.215c0.049,-0.014 0.097,-0.027 0.145,-0.039c0.953,-0.238 1.829,-0.377 2.781,-0.377c1.797,0 6.868,1.227 9.596,3.091c0.025,0.017 0.049,0.034 0.074,0.051c2.023,1.445 2.679,3.429 2.679,5.308c0,0.771 -0.118,1.54 -0.328,2.214c-0.556,1.957 -1.53,3.057 -2.495,3.771c-1.401,1.035 -3.01,1.264 -4.376,1.264c-2.012,0 -4.829,-0.4 -8.85,-0.45l-0.9,0c-4.345,0 -8.69,0.34 -11.991,0.675c-4.477,0.487 -8.565,1.367 -11.107,1.808Zm-8.652,-12.832c0,1.35 0.05,2.85 0.5,3.85c0.6,1.4 3.65,4.95 6,4.95c0.45,0 0.9,-0.05 1.4,-0.15c2.6,-0.45 6.8,-1.35 11.4,-1.85c3.45,-0.35 7.95,-0.7 12.45,-0.7l0.9,0c4.05,0.05 6.85,0.45 8.85,0.45c0.95,0 2.25,0 2.8,-2c0.1,-0.3 0.15,-0.65 0.15,-1c0,-0.65 -0.2,-1.35 -0.9,-1.85c-2.05,-1.4 -5.85,-2.35 -7.2,-2.35c-0.6,0 -1.15,0.1 -1.75,0.25c-3.3,0.95 -3.35,0.95 -6.65,1.35c-2.6,0.3 -15.8,1.4 -19.8,1.4c-2.7,0 -6,-0.35 -7.7,-2.55l-0.45,0.2Zm25.872,-21.483c0.969,-0.379 1.857,-0.567 3.028,-0.567c0.792,0 5.117,0.621 7.64,2.183c2.187,1.353 3.309,3.316 3.309,5.417c0,3.51 -2.327,6.475 -5.578,6.995c-0.036,0.006 -0.073,0.012 -0.109,0.017c-1.552,0.206 -4.242,0.117 -6.916,0.327c-2.087,0.145 -5.24,0.486 -7.569,0.777c-0.019,0.002 -0.038,0.005 -0.058,0.007c-0.964,0.107 -5.794,0.976 -6.919,0.976c-1.562,0 -3.164,-0.587 -4.584,-1.616c-2.061,-1.495 -3.712,-3.993 -3.902,-4.276c-0.01,-0.016 -0.021,-0.033 -0.031,-0.049c-0.747,-1.154 -1.346,-2.829 -1.753,-4.187c-0.574,-1.913 0.261,-3.966 2.006,-4.936l0.45,-0.25c1.466,-0.814 3.273,-0.69 4.614,0.315c0.386,0.29 1.371,0.8 4.75,0.8c0.607,0 7.551,-0.31 9.872,-1.196c0.53,-0.211 1.165,-0.523 1.75,-0.737Zm-19.372,4.783c0.3,1 0.7,2.25 1.25,3.1c0.2,0.3 2.55,4 4.95,4c1.05,0 5.55,-0.85 6.45,-0.95c2.4,-0.3 5.65,-0.65 7.8,-0.8c2.55,-0.2 5.15,-0.1 6.65,-0.3c1.25,-0.2 2,-1.45 2,-2.8c0,-2.45 -5.9,-3.35 -6.7,-3.35c-0.6,0 -1.05,0.1 -1.55,0.3c-0.55,0.2 -1.15,0.5 -1.65,0.7c-2.75,1.05 -10.75,1.5 -11.45,1.5c-5.25,0 -6.7,-1.2 -7.3,-1.65l-0.45,0.25Zm19.398,-4.794l-0.126,0.048l0.126,-0.048Z" style="fill:#fff;"/><path d="M234.825,314.892c4.35,2.75 8,6 11.3,9.2c-7.05,9.85 -14.3,16.25 -19.85,20.05l0.2,0.45c9.2,-2.55 17.2,-7.8 24,-16.05c1.85,2.1 4,4.55 5.3,6.15c0.8,0.9 1.45,1.4 2.6,1.4c2.8,0 3.9,-1.85 3.9,-4.4c0,-2.4 -0.65,-4.35 -7.3,-9.05c1.55,-2.05 3,-4 4.35,-5.9c1.35,-1.8 2.2,-2.3 3.4,-3.7c0.5,-0.6 0.75,-1.1 0.75,-1.7c0,-1.55 -3.1,-6.75 -7.2,-6.75c-0.9,0 -3.15,0.25 -4.15,0.55l0,0.45c1.25,0.4 2.6,0.85 2.6,3.05c0,0.65 -0.15,1.35 -0.5,2.15c-0.75,1.9 -2.3,4.75 -4.8,8.55c-4.8,-2.35 -9.75,-4.1 -14.35,-4.85l-0.25,0.4Z" style="fill-rule:nonzero;"/><path d="M250.21,309.385c-1.415,-0.713 -2.334,-2.172 -2.334,-3.793l0,-0.45c0,-1.877 1.231,-3.531 3.028,-4.07c1.295,-0.389 4.206,-0.73 5.371,-0.73c3.85,0 7.311,2.645 9.324,5.513c1.514,2.156 2.125,4.392 2.125,5.487c0,1.533 -0.457,2.887 -1.773,4.465c-1.129,1.318 -1.944,1.779 -3.211,3.463l-1,1.393l-0.845,1.152c5.453,4.548 5.629,7.168 5.629,9.877c0,2.961 -1.042,5.328 -2.826,6.833c-1.276,1.077 -2.997,1.816 -5.323,1.816c-2.504,0 -4.034,-0.867 -5.776,-2.826c-0.042,-0.047 -0.082,-0.095 -0.122,-0.144c-0.553,-0.681 -1.264,-1.519 -2.04,-2.416c-6.652,6.863 -14.27,11.36 -22.827,13.731c-2.029,0.563 -4.163,-0.445 -5.018,-2.369l-0.2,-0.45c-0.832,-1.873 -0.209,-4.073 1.482,-5.231c4.679,-3.204 10.621,-8.37 16.578,-16.045c-2.374,-2.151 -4.964,-4.253 -7.898,-6.108c-1.976,-1.249 -2.572,-3.861 -1.332,-5.843l0.25,-0.4c0.907,-1.452 2.597,-2.218 4.287,-1.942c3.872,0.631 7.977,1.905 12.054,3.638c1.135,-1.88 1.926,-3.395 2.397,-4.551Zm-15.385,5.507c4.35,2.75 8,6 11.3,9.2c-7.05,9.85 -14.3,16.25 -19.85,20.05l0.2,0.45c9.2,-2.55 17.2,-7.8 24,-16.05c1.85,2.1 4,4.55 5.3,6.15c0.8,0.9 1.45,1.4 2.6,1.4c2.8,0 3.9,-1.85 3.9,-4.4c0,-2.4 -0.65,-4.35 -7.3,-9.05c1.55,-2.05 3,-4 4.35,-5.9c1.35,-1.8 2.2,-2.3 3.4,-3.7c0.5,-0.6 0.75,-1.1 0.75,-1.7c0,-1.55 -3.1,-6.75 -7.2,-6.75c-0.9,0 -3.15,0.25 -4.15,0.55l0,0.45c1.25,0.4 2.6,0.85 2.6,3.05c0,0.65 -0.15,1.35 -0.5,2.15c-0.75,1.9 -2.3,4.75 -4.8,8.55c-4.8,-2.35 -9.75,-4.1 -14.35,-4.85l-0.25,0.4Z" style="fill:#fff;"/></g><defs><linearGradient id="_Linear1" x1="0" y1="0" x2="1" y2="0" gradientUnits="userSpaceOnUse" gradientTransform="matrix(300.353,208.165,-208.165,300.353,45.2117,98.8155)"><stop offset="0" style="stop-color:#0d9dd4;stop-opacity:1"/><stop offset="1" style="stop-color:#02558b;stop-opacity:1"/></linearGradient></defs></svg>