<svg xmlns="http://www.w3.org/2000/svg" aria-label="Orcid" viewBox="0.79 51.26 510.85 401.95"><g transform="translate(-226.47 142.44) scale(1.8847)"><path fill="#0b0b0b" d="M210.18 163.64c-14.707-2.293-31.751-9.058-44.305-17.585-2.848-1.935-8.732-6.916-13.075-11.068-21.324-20.391-32.22-46.1-32.22-76.022 0-17.205 2.71-29.835 9.518-44.363 5.804-12.387 10.213-18.754 20.167-29.132 13.999-14.594 31.147-24.495 51.284-29.609 11.44-2.906 37.22-2.962 48.71-.108 40.088 9.96 70.883 41.824 79.155 81.902 1.922 9.317 2.143 16.351 2.157 68.808l.015 58.431-36.25-.633-.575-10.345c-.69-12.418-1.463-12.921-10.457-6.805-8.87 6.031-21.846 11.745-32.623 14.363-10.81 2.626-31.592 3.711-41.5 2.166zm37.596-39.57c11.397-3.963 19.648-9.285 27.823-17.943 23.762-25.167 25.535-62.553 4.263-89.883-24.032-30.876-70.734-34.898-99.77-8.592-9.161 8.3-14.976 17.186-19.235 29.396-8.36 23.965-2.077 51.448 15.95 69.775 10.466 10.64 20.214 15.985 35.674 19.561 9.704 2.245 25.084 1.236 35.294-2.314z"/><ellipse cx="368.88" cy="-25.341" fill="#4b72e6" rx="22.749" ry="23.037"/></g></svg>