<svg xmlns="http://www.w3.org/2000/svg" fill="#00F" viewBox="0 0 500 500"><path d="M139.63 306.55h-13.99c-2.23 0-4.11-.05-5.65-.16s-2.86-.4-3.98-.88c-1.11-.47-2.09-1.19-2.93-2.15-.86-.95-1.7-2.27-2.55-3.97l-6.68-13.04H35.47l-10.18 20.2H0l58.37-112.44h22.89l58.37 112.44ZM93.2 265.36 69.66 218.6l-23.54 46.76H93.2ZM265.23 306.55h-19.56c-3.71 0-6.74-.48-9.07-1.43-2.33-.96-4.29-2.44-5.88-4.45l-24.55-29.91h-28.69v35.79h-23.53V195.23c2.97-.11 6.21-.19 9.71-.24 3.51-.06 7.11-.13 10.84-.24 3.71-.11 7.42-.18 11.14-.24 3.72-.05 7.22-.08 10.51-.08 13.59 0 24.82.98 33.69 2.94 8.87 1.97 16.16 5.54 21.9 10.73 6.37 5.94 9.56 14 9.56 24.18 0 5.09-.69 9.57-2.07 13.44-1.39 3.87-3.35 7.24-5.9 10.09-2.55 2.87-5.63 5.28-9.24 7.24-3.6 1.97-7.64 3.58-12.1 4.85l33.24 38.65Zm-68.98-56.3c3.5 0 7.02-.03 10.57-.08 3.56-.05 6.92-.29 10.11-.72 3.17-.42 6.09-1.09 8.74-1.99 2.65-.91 4.83-2.22 6.52-3.92 1.48-1.6 2.63-3.25 3.42-4.95.79-1.7 1.2-3.89 1.2-6.56 0-1.8-.36-3.56-1.04-5.26-.69-1.71-1.62-3.15-2.78-4.32-1.59-1.6-3.55-2.85-5.88-3.75-2.34-.91-5.01-1.58-8.04-2-3.02-.43-6.44-.67-10.26-.72-3.81-.05-8-.08-12.56-.08h-9.07c-3.6 0-6.84.05-9.7.16v34.04c2.86.1 6.1.15 9.7.15h9.07ZM324.59 213.35c-6.25 0-11.98 1.68-17.18 5.02-5.19 3.33-9.48 7.28-12.87 11.85l-18.45-12.25c6.04-7.32 13.27-13.31 21.7-17.97 8.43-4.67 17.68-7 27.76-7 6.78 0 12.98.87 18.6 2.62 5.62 1.75 10.44 4.22 14.48 7.4 4.02 3.18 7.15 7.05 9.38 11.61 2.22 4.56 3.34 9.64 3.34 15.26 0 5.31-.99 9.97-2.95 14-1.96 4.03-4.55 7.71-7.79 11.05-3.23 3.34-6.92 6.44-11.05 9.31-4.14 2.86-8.38 5.72-12.72 8.59l-19.57 12.88h53.6v20.83h-91.45v-20.51l38.97-25.77c3.81-2.54 7.47-4.95 10.97-7.24 3.5-2.27 6.57-4.61 9.22-6.99 2.66-2.39 4.77-4.91 6.37-7.56 1.59-2.65 2.38-5.57 2.38-8.74 0-2.33-.61-4.51-1.83-6.52-1.22-2.02-2.86-3.77-4.93-5.25-2.06-1.48-4.48-2.62-7.23-3.42-2.76-.8-5.68-1.2-8.75-1.2ZM457.22 306.55v-23.06h-68.38v-23.54l66.63-64.72h24.65v68.54H500v19.72h-19.88v23.06h-22.9Zm-44.05-42.78h44.05v-43.42l-44.05 43.42Z"/></svg>