<svg xmlns="http://www.w3.org/2000/svg" width="258.5" height="258.5"><defs><clipPath id="a" clipPathUnits="userSpaceOnUse"><path d="M-59.26 191.5h193.88V-2.39H-59.26Z"/></clipPath><clipPath id="b" clipPathUnits="userSpaceOnUse"><path d="M-59.22 1.38h193.87v-193.87H-59.22Z"/></clipPath><clipPath id="c" clipPathUnits="userSpaceOnUse"><path d="M-182.68 84.32H11.19v-193.88h-193.87Z"/></clipPath><clipPath id="d" clipPathUnits="userSpaceOnUse"><path d="M-182.63 71.47H11.24V-122.4h-193.87Z"/></clipPath><clipPath id="e" clipPathUnits="userSpaceOnUse"><path d="M-13.2 84.59h193.87V-109.3H-13.21Z"/></clipPath><clipPath id="f" clipPathUnits="userSpaceOnUse"><path d="M-12.01 99.62h193.87V-94.25H-12.01Z"/></clipPath><clipPath id="g" clipPathUnits="userSpaceOnUse"><path d="M-96.86 33.55H97.02v-193.87H-96.86Z"/></clipPath><clipPath id="h" clipPathUnits="userSpaceOnUse"><path d="M-167.7 184.02H26.19V-9.86h-193.87Z"/></clipPath><clipPath id="i" clipPathUnits="userSpaceOnUse"><path d="M-162.48 154.81H31.4V-39.06h-193.88Z"/></clipPath><clipPath id="j" clipPathUnits="userSpaceOnUse"><path d="M-25.5 26.85h193.88v-193.88H-25.49Z"/></clipPath><clipPath id="k" clipPathUnits="userSpaceOnUse"><path d="M-30.77 6.47h193.88v-193.88H-30.77Z"/></clipPath><clipPath id="l" clipPathUnits="userSpaceOnUse"><path d="M-123.64 124.93H70.24V-68.94h-193.88Z"/></clipPath><clipPath id="m" clipPathUnits="userSpaceOnUse"><path d="M-143.58 153.54H50.3V-40.33h-193.88Z"/></clipPath><clipPath id="n" clipPathUnits="userSpaceOnUse"><path d="M-143.7 154.84H50.16V-39.04h-193.88Z"/></clipPath><clipPath id="o" clipPathUnits="userSpaceOnUse"><path d="M-123.5 123.57H70.37V-70.31H-123.5Z"/></clipPath><clipPath id="p" clipPathUnits="userSpaceOnUse"><path d="M-23.98 184.9H169.9V-8.98H-23.98Z"/></clipPath><clipPath id="q" clipPathUnits="userSpaceOnUse"><path d="M-125.69 45.18H68.2V-148.7H-125.7Z"/></clipPath><clipPath id="r" clipPathUnits="userSpaceOnUse"><path d="M-140.11 56.98H53.76V-136.9h-193.87Z"/></clipPath><clipPath id="s" clipPathUnits="userSpaceOnUse"><path d="M-160.68 4.59H33.19V-189.3h-193.87Z"/></clipPath></defs><path d="M0 0a12 12 0 0 0-3.74.62A10 10 0 0 0-7.5 2.88a9.2 9.2 0 0 0-2.8 6.7c0 2.7 1.12 5.34 3.1 7.22C-2.08 21.72.78 25.92.25 27.77c-.98 3.37-2.91 7.6-4.25 8.54-1.6 1.12-5.7 2.67-9.23 2.67q-2.86 0-4.48-1.3l-9.54-8.13a13.5 13.5 0 0 0-8.72-3.23 12.4 12.4 0 0 0-11.31 7.06 10.1 10.1 0 0 0-.19 8.44A11 11 0 0 0-40.82 48l.27.09c2.15.72 4.51 1.27 7.65 1.78q4.34.7 7.79 3.62c3.42 2.9 5.27 5.77 5.2 8.11-.04 1.4-.77 2.6-2.2 3.68-.36.27-.8.6-2.67.66-.51 0-1.1-.18-1.68-.36-.67-.2-1.37-.42-2.05-.42q-.18 0-.36.02a6 6 0 0 0-4.2 2.45 6.6 6.6 0 0 0-1.28 4.7c.53 2.89 3.7 4.06 6.03 4.68 2.58.7 6.69 6.05 4.97 13.39-.25 1.07-.59 2.54-1.98 4.46-.11.15-.65.7-2.85 1.29a4.7 4.7 0 0 0-3.46 4.97q.2 2.1 2.94 4.72a5.3 5.3 0 0 1 1.6 3.27 24 24 0 0 1-5.63 18l-.7.82c-2.11 2.5-3.94 4.67-7.34 4.67h-.27A11.8 11.8 0 0 0-52 140c-1.23 3.16-1.48 7.57 4.34 10.61 2.1 1.1 4.49 1.68 6.92 1.68 2.1 0 4.18-.41 6.16-1.23a33 33 0 0 0 4-2.09c2.13-1.24 4.14-2.4 6.24-2.4 1.65 0 3.33.72 5.12 2.22 1.84 1.54 4.02 2.67 6.12 3.76 5.05 2.62 8.11 4.46 7.54 9.17l-2.16 14.09c-.5 3.22.06 6.44 1.56 9.07 1.58 2.77 3.7 4.23 6.13 4.23q2.2 0 4.68-1.59a15 15 0 0 0 5.76-7.13l.27-.68c1.62-4.01 4.98-12.36 6.55-13.4a7 7 0 0 1 3.76-1.14q3.35 0 6.16 3.22c2.75 3.14 6.66 6.11 8.72 6.62.84.22 2.16.47 3.6.47 3.13 0 5.33-1.18 6.39-3.4.9-1.93 2.3-4.49 3.9-4.49 4.48 0 5.57 1.37 8.38 5.03l6.14 12.29a6.37 6.37 0 0 0 8.8 2.76 7.9 7.9 0 0 0 3.8-4.73c.59-2.03.35-4.17-.67-6.02l-5.52-10.04a7.1 7.1 0 0 1 1.86-8.93c9.24-7.3 16.18-11.48 19.04-11.48 4.21.1 14.25 4.12 18.45 7.95a11.5 11.5 0 0 0 7.74 3.04c1.73 0 3.43-.42 4.94-1.21 2.58-1.37 5.34-4.9 5.6-9.02.17-2.77-.74-6.85-6.07-10.58l-.08-.05-12.93-5.97c-.56-.54-3.27-3.3-2.74-5.9q.56-2.66 5.5-4.31l.12-.04.11-.08c.14-.09 3.36-2.28 3.77-5.44q.3-2.42-1.58-4.55c-1.6-1.81-4.05-2.06-6.44-2.06q-.72 0-1.44.02l-1.37.02c-1.68 0-3.36-.13-4.24-1.07-.66-.7-.94-1.85-.86-3.54.63-1.64 3.04-8.12 2.58-10.4-.45-2.26-1.77-3.1-3.18-3.97-.75-.47-1.6-1-2.5-1.84a8.3 8.3 0 0 1-2.65-6.86A8.7 8.7 0 0 1 98.3 74q2-1.28 4.63-2.53l14.55-1.02a12.27 12.27 0 0 0 11.3-12.18v-.14a8.77 8.77 0 0 0-12.03-8.13c-5.9 2.4-12.2 4.61-18.46 4.61q-1.28 0-2.51-.12c-.14-.01-1.6-.08-2.56-1.54-1.07-1.63-1.7-5.22 1.39-13.1 1.7-4.36 1.64-7.93-.2-10.62-2.79-4.09-8.82-4.95-13.38-4.95-4.4 0-9.39.82-13.67 2.25q-2.04.69-3.4.69c-1.22 0-1.73-.44-2-.76-1.41-1.7-.77-6.48-.05-10.46.54-3-.57-5.83-2.91-7.35a6.5 6.5 0 0 0-3.58-1.05c-1.4 0-2.8.44-3.96 1.25a11 11 0 0 0-3.43 4.13q-.81 1.64-3.5 1.63c-3.92 0-9.46-2.52-12.4-4.02a8 8 0 0 0-3.56-.91c-1.67 0-3.33.6-5.06 1.87a12.3 12.3 0 0 1-9.48 2.11c-.74-.14-1.15-.22-1.7-2.3l-.56-2.07C10.34 3.9 5.4 0 0 0" clip-path="url(#a)" style="fill:#5acae9;fill-opacity:1;fill-rule:nonzero;stroke:none" transform="matrix(1.333333 0 0 -1.333333 79 255.33)"/><path d="M0 0c-1.96 0-4.76-.82-7-4.74a15 15 0 0 1-1.67-9.72l2.16-14.08c.47-4.04-2.22-5.65-7.02-8.14a34 34 0 0 1-6.3-3.87q-2.38-2.01-4.48-2c-1.83 0-3.64 1.05-5.73 2.27-1.3.76-2.63 1.54-4.12 2.15q-3.16 1.3-6.55 1.3c-2.6 0-5.14-.61-7.38-1.78-5.05-2.65-6.76-6.86-4.8-11.86a12.8 12.8 0 0 1 11.88-8.05h.27c2.8 0 4.26-1.56 6.59-4.32l.7-.82a23 23 0 0 0 5.4-17.25c-.1-1-.57-1.94-1.31-2.65q-3.01-2.88-3.25-5.35a5.66 5.66 0 0 1 4.2-6.04c1.89-.5 2.32-.93 2.33-.94 1.24-1.71 1.56-3.07 1.77-3.97l.02-.1c1.6-6.85-2.26-11.65-4.26-12.19-2.6-.7-6.12-2.02-6.75-5.46a7.6 7.6 0 0 1 1.46-5.48 7 7 0 0 1 5.36-2.87c.83 0 1.63.24 2.34.46.49.15 1.04.32 1.34.32 1.58-.06 1.89-.3 2.11-.46q1.77-1.31 1.81-2.91c.06-2-1.7-4.67-4.85-7.32a15 15 0 0 0-7.3-3.4 48 48 0 0 1-7.8-1.82l-.28-.09a12 12 0 0 1-7.24-6.72 11.1 11.1 0 0 1 .67-10.13 13.44 13.44 0 0 1 11.75-6.76c3.43 0 6.76 1.23 9.37 3.46l9.54 8.14q1.34 1.06 3.84 1.06c3.55 0 7.45-1.65 8.65-2.5 1-.69 2.87-4.58 3.86-8 .28-.97-1.4-4.42-7.19-9.96a11 11 0 0 1-3.4-7.95c0-2.85 1.1-5.48 3.11-7.42a11 11 0 0 1 5.18-2.78q1.49-.37 3-.37c5.93 0 11.17 4.12 12.74 10.02l.55 2.08c.34 1.24.57 1.47.58 1.48a11.05 11.05 0 0 0 2.45.3c2.36 0 4.7-.77 6.6-2.16 1.91-1.38 3.76-2.05 5.65-2.05a9 9 0 0 1 4.01 1.02c4.88 2.48 9.24 3.9 11.95 3.9 2.07 0 2.46-.78 2.61-1.07a12 12 0 0 1 3.75-4.5 8 8 0 0 1 4.54-1.44 7.5 7.5 0 0 1 4.12 1.22c2.68 1.75 3.96 4.96 3.35 8.37-.97 5.36-1.03 8.6-.17 9.63.1.11.33.4 1.24.4q1.18 0 3.07-.63a46 46 0 0 1 14-2.3c6.88 0 11.8 1.86 14.2 5.39 2.03 2.97 2.13 6.85.3 11.54-3.06 7.82-2.26 10.97-1.5 12.16a2.3 2.3 0 0 0 1.71 1.1h.14v.02q1.16.12 2.4.12c6.08 0 12.29-2.18 18.09-4.54a9.77 9.77 0 0 1 13.41 9.06v.13c0 6.88-5.37 12.67-12.23 13.18l-14.37 1q-2.46 1.2-4.35 2.4a7.7 7.7 0 0 0-3.52 5.86c-.2 2.3.65 4.5 2.32 6.04.85.77 1.62 1.26 2.36 1.73 1.53.95 3.1 1.94 3.64 4.61.48 2.4-1.55 8.14-2.57 10.81-.03.96.06 2.1.59 2.65.62.66 2.12.75 3.51.75q.67 0 1.35-.02l1.46-.02c2.5 0 5.31.29 7.19 2.4a6.6 6.6 0 0 1 1.82 5.34c-.45 3.55-3.82 5.9-4.2 6.15l-.23.15-.25.08c-2 .67-4.46 1.83-4.83 3.57-.36 1.76 1.44 3.98 2.33 4.86l12.7 5.86.17.08.14.1c5.71 4 6.69 8.44 6.5 11.46-.28 4.48-3.3 8.34-6.14 9.84a11.6 11.6 0 0 1-5.4 1.32c-3.1 0-6.08-1.17-8.42-3.3-4.22-3.85-14.14-7.6-17.73-7.68-1.01 0-5.23.81-18.46 11.26a6.1 6.1 0 0 0-1.59 7.68l5.51 10.02a8.8 8.8 0 0 1 .74 6.8 8.9 8.9 0 0 1-4.28 5.31 7.4 7.4 0 0 1-10.17-3.2l-6.09-12.2c-2.84-3.68-3.7-4.55-7.53-4.55-.43 0-1.39.5-3 3.9-1.2 2.57-3.8 3.98-7.28 3.98-1.55 0-2.95-.27-3.85-.49-2.27-.56-6.32-3.61-9.23-6.94q-2.52-2.86-5.4-2.87c-1.6 0-2.78.67-3.22.96-1.4 1.1-4.86 9.72-6.17 12.96l-.27.67a16 16 0 0 1-6.15 7.6A9.7 9.7 0 0 1 0 0m0-2c1.2 0 2.56-.42 4.14-1.43a14 14 0 0 0 5.38-6.67c1.9-4.7 5.27-13.27 7.19-14.54a8 8 0 0 1 4.31-1.3c2.13 0 4.58.89 6.91 3.56 2.85 3.25 6.53 5.9 8.21 6.31.87.21 2.09.43 3.37.43 2.13 0 4.42-.6 5.48-2.83 1.13-2.4 2.65-5.05 4.8-5.05 4.89 0 6.25 1.61 9.23 5.49L65.2-5.66a5.4 5.4 0 0 0 7.42 2.33 6.9 6.9 0 0 0 2.75-9.38l-5.52-10.05a8.1 8.1 0 0 1 2.11-10.19c6-4.74 15.51-11.7 19.67-11.7h.08c4.25.1 14.53 4.11 19.03 8.22a10.6 10.6 0 0 0 7.08 2.77c1.52 0 3.06-.35 4.46-1.09 3.92-2.07 9.43-10.9-.57-17.9l-13-6s-9-8 3-12c0 0 5.99-4 2-8.5-1.34-1.5-3.47-1.71-5.7-1.71q-1.42.02-2.8.03c-3.46 0-6.4-.55-6.1-5.81 0 0 3.03-7.81 2.6-10-.58-2.86-2.67-2.77-5.39-5.26-4.6-4.22-3.77-11.68 1.47-15.06a42 42 0 0 1 4.92-2.68l14.73-1.03a11.2 11.2 0 0 0 10.38-11.19v-.14a7.78 7.78 0 0 0-10.66-7.2c-5.98 2.43-12.45 4.69-18.84 4.69q-1.3 0-2.61-.13s-8.22-.12-2-16c4.16-10.63-3.52-14.2-12.65-14.2-4.51 0-9.38.87-13.35 2.2q-2.21.73-3.7.73c-4.27 0-4.5-4.38-3.05-12.39.49-2.7-.53-5.07-2.48-6.34a5.5 5.5 0 0 0-3.02-.89 6 6 0 0 0-3.39 1.07 10 10 0 0 0-3.11 3.77c-.8 1.57-2.4 2.17-4.4 2.17-3.95 0-9.4-2.36-12.85-4.12a7 7 0 0 0-3.1-.8 7.6 7.6 0 0 0-4.48 1.67 13.3 13.3 0 0 1-10.26 2.3c-1.23-.25-1.86-.7-2.48-3.03l-.55-2.07c-1.34-5-5.85-8.54-10.8-8.54a10 10 0 0 0-3.43.57 9 9 0 0 0-3.37 2.03c-3.52 3.38-3.24 9.1.28 12.48 3.11 2.97 8.64 8.81 7.73 11.96-.85 2.96-2.87 7.85-4.63 9.09-1.63 1.14-5.9 2.85-9.8 2.85-1.92 0-3.74-.41-5.11-1.51l-9.56-8.17a12.5 12.5 0 0 0-8.08-2.98 11.4 11.4 0 0 0-10.03 5.77q-.2.36-.38.72c-2.51 5.18.41 11.4 5.87 13.23l.27.09c2.43.81 4.95 1.33 7.49 1.74 3.45.56 6.18 2.07 8.28 3.84 4.88 4.13 8.06 9.53 2.94 13.36-.54.4-1.18.78-3.22.85h-.09c-1.18 0-2.6-.77-3.68-.77l-.23.01c-3.82.48-4.92 4.35-4.62 5.98.36 1.97 2.35 3.1 5.3 3.9 3.05.82 7.52 6.72 5.69 14.57-.23 1-.6 2.68-2.15 4.82-.54.75-2 1.3-3.4 1.67a3.7 3.7 0 0 0-2.73 3.9c.14 1.43 1.49 3 2.64 4.1a6.3 6.3 0 0 1 1.91 3.9c.7 6.79-1.42 13.58-5.87 18.76-2.5 2.9-4.54 5.83-8.8 5.83H-41c-4.4 0-8.43 2.67-10.03 6.77-1.24 3.2-1.02 6.8 3.88 9.37a14 14 0 0 0 6.45 1.56c1.97 0 3.94-.4 5.78-1.16 3.84-1.58 6.93-4.57 10.62-4.57 1.74 0 3.62.67 5.76 2.46 5.64 4.71 15 5.63 14.02 13.82L-6.7-14.15a13 13 0 0 0 1.44 8.42C-4.14-3.76-2.46-2 0-2" clip-path="url(#b)" style="fill:#fff;fill-opacity:1;fill-rule:nonzero;stroke:none" transform="matrix(1.333333 0 0 -1.333333 78.97 1.84)"/><path d="M0 0q-.49 0-.97.1a8.7 8.7 0 0 0-4.31 2.62C-6.75 4.3-7.4 6.02-7.1 7.56c.54 2.78 4.04 4.28 7.05 4.28q.72 0 1.34-.12a5.2 5.2 0 0 0 3.49-2.48 6.2 6.2 0 0 0 .75-4.37C4.98 2.05 2.65 0 0 0" clip-path="url(#c)" style="fill:#5acae9;fill-opacity:1;fill-rule:nonzero;stroke:none" transform="matrix(1.333333 0 0 -1.333333 243.57 112.42)"/><path d="M0 0c-3.41 0-7.4-1.78-8.03-5.1-.36-1.85.37-3.88 2.06-5.7a9.6 9.6 0 0 1 4.86-2.93 6 6 0 0 1 1.16-.11c3.13 0 5.87 2.38 6.5 5.67.73 3.75-1.53 7.35-5.03 8.03Q.82.01 0 0m0-2q.62 0 1.14-.1c2.42-.47 3.97-3.01 3.45-5.68-.46-2.39-2.4-4.06-4.54-4.06q-.39 0-.78.07c-2.42.47-5.86 3.63-5.34 6.3C-5.63-3.2-2.43-2 0-2" clip-path="url(#d)" style="fill:#fff;fill-opacity:1;fill-rule:nonzero;stroke:none" transform="matrix(1.333333 0 0 -1.333333 243.51 95.3)"/><path d="M0 0a6.6 6.6 0 0 1-4.89-2.09 6.5 6.5 0 0 1-1.75-4.84q.45-7.09 5.45-7.1 1.46-.01 3.42.64c4.24 1.39 8.25 2.7 8.25 6.52 0 4.06-4.98 5.55-8.28 6.54Q1.1 0 0 0" clip-path="url(#e)" style="fill:#5acae9;fill-opacity:1;fill-rule:nonzero;stroke:none" transform="matrix(1.333333 0 0 -1.333333 17.61 112.78)"/><path d="M0 0c-2.71 0-6.03 1.4-6.45 8.05a7.5 7.5 0 0 0 2.03 5.58 7.6 7.6 0 0 0 5.62 2.4q1.24 0 2.49-.37c3.58-1.07 8.99-2.7 8.99-7.49 0-4.54-4.55-6.03-8.95-7.48A12 12 0 0 0 0 0m0 2c.94 0 1.99.23 3.11.6 4.1 1.34 7.57 2.5 7.57 5.57S7 12.57 3.1 13.75q-1 .3-1.91.29a5.57 5.57 0 0 1-5.65-5.87C-4.16 3.55-2.45 2 0 2" clip-path="url(#f)" style="fill:#fff;fill-opacity:1;fill-rule:nonzero;stroke:none" transform="matrix(1.333333 0 0 -1.333333 16.02 132.83)"/><path d="M0 0a4.3 4.3 0 0 1-5-.04l-.2-.15a190 190 0 0 0-36.85-20.98c-5.52-2.37-10.45-4.56-12.15-5.52a4 4 0 0 1-1.82-4.2s8.92-36.04 14.43-57.97a53 53 0 0 1 17.09-27.4l20.95-14.02a2.1 2.1 0 0 1 2.25-.03l21.5 13.82A53 53 0 0 1 37.97-88C43.23-66.01 51.5-30.9 51.5-30.9a4 4 0 0 1-1.83 4.21c-2.08 1.17-9.2 4.21-16.2 7.1A137 137 0 0 0 4.41-3.13 157 157 0 0 1 0 0" clip-path="url(#g)" style="fill:#fff;fill-opacity:1;fill-rule:nonzero;stroke:none" transform="matrix(1.333333 0 0 -1.333333 129.14 44.74)"/><path d="M0 0q-.68 0-1.33.27l-22.64 10.65a1 1 0 0 0 .21 1.88c12.58 2.7 17.57 14.66 17.62 14.78a1 1 0 0 0 .93.63h.03a1 1 0 0 0 .92-.7L3.34 4.3A3.45 3.45 0 0 0 0 0" clip-path="url(#h)" style="fill:#78797d;fill-opacity:1;fill-rule:nonzero;stroke:none" transform="matrix(1.333333 0 0 -1.333333 223.59 245.36)"/><path d="M0 0a2 2 0 0 1-1.85-1.25c-.05-.11-4.87-11.6-16.9-14.18a2 2 0 0 1-.43-3.76l22.6-10.63.08-.04a4.44 4.44 0 0 1 6 5.26L1.9-1.38A2 2 0 0 1 .07 0zm0-2 7.6-23.22a2.45 2.45 0 0 0-3.33-2.8l-22.6 10.63C-5.06-14.53 0-2 0-2" clip-path="url(#i)" style="fill:#fff;fill-opacity:1;fill-rule:nonzero;stroke:none" transform="matrix(1.333333 0 0 -1.333333 216.64 206.42)"/><path d="M0 0a1 1 0 0 0-.9.55l-3.38 6.78a5.8 5.8 0 0 0 .34 5.8 15.3 15.3 0 0 0 6.98 5.8 5.9 5.9 0 0 0 5.44-.51l6.63-4.37a1 1 0 0 0-.28-1.8C14.73 12.22 5.14 9.35.9.57A1 1 0 0 0 0 0Z" clip-path="url(#j)" style="fill:#78797d;fill-opacity:1;fill-rule:nonzero;stroke:none" transform="matrix(1.333333 0 0 -1.333333 34 35.8)"/><path d="M0 0q-1.36 0-2.61-.51a16.3 16.3 0 0 1-7.44-6.19 6.8 6.8 0 0 1-.4-6.8l3.39-6.77a2 2 0 0 1 3.59.02C.56-11.88 9.75-9.1 9.83-9.09a2 2 0 0 1 .55 3.6L3.76-1.13A7 7 0 0 1 0 0m0-2c.93 0 1.86-.27 2.66-.8l6.62-4.36S-.78-10.06-5.27-19.39l-3.4 6.78a4.8 4.8 0 0 0 .29 4.8C-7.2-6-5.14-3.7-1.86-2.36Q-.96-2 0-2" clip-path="url(#k)" style="fill:#fff;fill-opacity:1;fill-rule:nonzero;stroke:none" transform="matrix(1.333333 0 0 -1.333333 41.02 8.62)"/><path d="M0 0c-1.03 0-2.42-.28-2.71-2.72-.09-.72.1-1.4.52-1.9l20.24-24.12a2.4 2.4 0 0 1 2.22-.85q1.71.2 2.42 1.97c.4 1 .27 2.02-.34 2.75L2.21-.87C1.82-.4 1.24-.1.6-.03zm20.21-47.78a1 1 0 0 0-.77.36L-99.26 95.16a1 1 0 0 0-.17.95 25.7 25.7 0 0 0 19.28 16.07 1 1 0 0 0 .77-.36L39.32-30.76a1 1 0 0 0 .17-.98c-.19-.5-4.65-12.43-19.04-16.02z" clip-path="url(#l)" style="fill:#78797d;fill-opacity:1;fill-rule:nonzero;stroke:none" transform="matrix(1.333333 0 0 -1.333333 164.85 166.58)"/><path d="M0 0q-.7 0-1.13.51l-20.23 24.12q-.37.46-.3 1.14c.22 1.84 1.12 1.84 1.72 1.84l.48-.03q.61-.07.97-.48L1.65 3.09c.37-.44.43-1.08.17-1.73C1.39.3.77.08.22.01zm-100.09 141.79-.39-.04c-15.16-3.03-19.66-16.16-19.84-16.72a2 2 0 0 1 .36-1.9L-1.26-19.46a2 2 0 0 1 2.02-.66C15.66-16.4 20.3-4 20.49-3.47a2 2 0 0 1-.34 1.96l-118.7 142.58a2 2 0 0 1-1.54.72M0-2A3.9 3.9 0 0 1 3.68.62a3.7 3.7 0 0 1-.5 3.76l-20.14 24a3.4 3.4 0 0 1-2.28 1.19q-.37.04-.7.04c-2.75 0-3.52-2.04-3.7-3.6a3.5 3.5 0 0 1 .75-2.67L-2.66-.77A3.4 3.4 0 0 1 0-2m-100.09 141.79L18.61-2.79S14.3-14.7.27-18.18l-118.7 142.59s4.15 12.54 18.34 15.38" clip-path="url(#m)" style="fill:#fff;fill-opacity:1;fill-rule:nonzero;stroke:none" transform="matrix(1.333333 0 0 -1.333333 191.43 204.72)"/><path d="M0 0c-1.05 0-2.06.49-2.77 1.34l-19.5 23.23c-.59.7-.9 1.6-.87 2.5.07 2 1.16 3.2 2.94 3.2q.43 0 .93-.1a3.7 3.7 0 0 0 2.12-1.26L2.28 5.75c.83-.99 1.1-2.3.72-3.49C2.56.86 1.54.06.13 0z" clip-path="url(#n)" style="fill:#78797d;fill-opacity:1;fill-rule:nonzero;stroke:none" transform="matrix(1.333333 0 0 -1.333333 191.6 206.45)"/><path d="M0 0c-2.31 0-3.85-1.63-3.94-4.16a4.7 4.7 0 0 1 1.1-3.18l19.5-23.23a4.6 4.6 0 0 1 3.7-1.7 4 4 0 0 1 3.8 2.96 4.7 4.7 0 0 1-.91 4.44L3.82-1.71a4.7 4.7 0 0 1-2.7 1.6A6 6 0 0 1 0 0m0-2q.33 0 .73-.08A2.7 2.7 0 0 0 2.28-3l19.44-23.16c.58-.7.81-1.65.53-2.55-.24-.77-.78-1.51-1.96-1.56h-.09c-.79 0-1.5.4-2 .98L-1.3-6.05a2.7 2.7 0 0 0-.64 1.83C-1.9-3.24-1.56-2 0-2" clip-path="url(#o)" style="fill:#fff;fill-opacity:1;fill-rule:nonzero;stroke:none" transform="matrix(1.333333 0 0 -1.333333 164.67 164.76)"/><path d="M0 0c-.76 0-1.5.28-2.1.78a3.1 3.1 0 0 0-.68 4.1L42.4 68.54c2.17 3.06 4.2 6.27 6.03 9.53l.13.24c7 12.52 25.62 45.76 52.7 60.3a1 1 0 0 0 .82.05 1 1 0 0 0 .59-.6c.03-.08 3.24-8.73 11.42-9.62a1 1 0 0 0 .85-1.28c-.08-.26-8.08-26.33-38.8-53.24-2.65-2.32-9.25-8.2-9.25-8.2-.08-.07-8.31-7.6-11.7-11.02L2.09.85A3 3 0 0 0 0 0" clip-path="url(#p)" style="fill:#443b3d;fill-opacity:1;fill-rule:nonzero;stroke:none" transform="matrix(1.333333 0 0 -1.333333 31.97 246.53)"/><path d="M0 0a2 2 0 0 1-.94-.24C-28.27-14.9-47-48.34-54.04-60.92l-.13-.24a105 105 0 0 0-5.97-9.45l-45.16-63.63a4.1 4.1 0 0 1 .84-5.47 4.3 4.3 0 0 1 2.75-1c1.07 0 2.06.4 2.8 1.14l53.1 53.84c3.36 3.4 11.58 10.92 11.66 11 .05.03 6.62 5.88 9.23 8.17 30.93 27.1 38.78 52.63 39.1 53.7a2 2 0 0 1-1.7 2.57C4.94-9.47 2-1.65 1.88-1.32A2 2 0 0 1 0 0m0-2s3.33-9.31 12.26-10.28c0 0-7.65-25.74-38.5-52.77-2.65-2.32-9.26-8.21-9.26-8.21s-8.3-7.58-11.74-11.06l-53.1-53.84a2 2 0 0 0-1.37-.56c-.5 0-1.03.18-1.46.55-.86.72-1.08 1.92-.5 2.77l45.16 63.64q3.3 4.64 6.09 9.62C-45.26-49.35-26.98-16.49 0-2" clip-path="url(#q)" style="fill:#fff;fill-opacity:1;fill-rule:nonzero;stroke:none" transform="matrix(1.333333 0 0 -1.333333 167.59 60.24)"/><path d="M0 0q-1.2 0-2.29.45c-1.56.64-4.47 1.96-6.37 3.56l-.52.46c-3.28 3.15-4.65 8.05-3.58 12.78q.85 3.72 1.75 6.03c.88 2.27 3 5.06 4.36 6.15 2.08 1.66 3.56 2.6 5.91 3.15q1.16.27 2.49.53c7.7 1.58 18.27 3.75 17.82 17.25a1 1 0 0 0 1.45.92c.33-.17 8.03-4.23 10.66-13.24 1.98-6.81.52-14.51-4.35-22.89-3.82-6.58-9.23-9.72-12.8-11.8l-.76-.44C9.63.47 2.87.06.15 0Z" clip-path="url(#r)" style="fill:#443b3d;fill-opacity:1;fill-rule:nonzero;stroke:none" transform="matrix(1.333333 0 0 -1.333333 186.82 75.97)"/><path d="M0 0a2 2 0 0 1-2-2.07c.42-12.65-9.25-14.64-17.02-16.23q-1.34-.27-2.51-.54c-2.54-.59-4.12-1.59-6.3-3.35a19 19 0 0 1-4.68-6.55 45 45 0 0 1-1.79-6.18c-1.16-5.07.33-10.33 3.87-13.72q.27-.27.55-.5c2.02-1.69 5.03-3.06 6.64-3.72a7 7 0 0 1 2.67-.53h.17c2.8.07 9.76.5 14.1 3.05l.76.44c3.67 2.13 9.2 5.35 13.17 12.16 5.01 8.62 6.5 16.59 4.44 23.67C9.32-4.65 1.26-.4.92-.22A2 2 0 0 1 0 0m0-2s20.08-10.35 5.9-34.74c-3.96-6.8-9.57-9.74-13.2-11.88-3.96-2.33-10.58-2.71-13.14-2.77h-.12a5 5 0 0 0-1.92.37c-1.47.61-4.3 1.89-6.11 3.4l-.46.42c-3.12 3-4.28 7.52-3.3 11.84.45 2 1.03 4.16 1.7 5.89a17 17 0 0 0 4.06 5.72c1.92 1.54 3.28 2.45 5.51 2.96C-13.55-19.04.52-17.96 0-2" clip-path="url(#s)" style="fill:#fff;fill-opacity:1;fill-rule:nonzero;stroke:none" transform="matrix(1.333333 0 0 -1.333333 214.24 6.12)"/></svg>
