<svg xmlns="http://www.w3.org/2000/svg" xml:space="preserve" fill-rule="evenodd" image-rendering="optimizeQuality" shape-rendering="geometricPrecision" text-rendering="geometricPrecision" version="1.0" viewBox="0 0 16000 16000"><g fill="#2b87d3"><path d="M0 8000V0h16000v16000H0V8000zm13990 0V2010H2010v11980h11980V8000z"/><path d="M2995 12998c-3-7-4-911-3-2008l3-1995h2010l3 997 2 998 998 2 997 3v2010l-2003 3c-1597 2-2004 0-2007-10zM8995 12998c-3-7-4-461-3-1008l3-995 997-3 998-2 2-998 3-997h2010v4010l-2003 3c-1597 2-2004 0-2007-10z"/><path d="M5995 9998c-3-7-4-911-3-2008l3-1995h4010v4010l-2003 3c-1597 2-2004 0-2007-10z"/><path d="M2995 6998c-3-7-4-911-3-2008l3-1995h4010v2010l-997 3-998 2-2 998-3 997-1003 3c-797 2-1004 0-1007-10zM10997 7003c-4-3-7-453-7-1000v-993l-997-2-998-3V2995h4010v4010l-1001 3c-550 1-1004-1-1007-5z"/></g></svg>