<svg xmlns="http://www.w3.org/2000/svg" viewBox="0 0 300 300"><path fill="#2c343c" fill-rule="evenodd" d="M82.25 148.92C45.262 219.273 15 277.097 15 277.418c0 .32 10.26.582 22.801.582h22.8l44.45-84.967c24.447-46.732 44.742-84.982 45.101-85 .358-.018 6.264 10.655 13.124 23.717 6.86 13.063 16.966 32.3 22.458 42.75 5.492 10.45 19.836 38 31.876 61.222l21.89 42.222 22.75.028c12.512.015 22.75-.239 22.75-.566C285 276.267 150.702 21 150.103 21.003c-.331.001-30.866 57.564-67.853 127.917"/><path fill="#1c73e3" fill-rule="evenodd" d="M162.162 178.503 149.824 202h-19.412c-12.058 0-19.412.373-19.412.984 0 1.482 38.314 74.016 39.097 74.016.373 0 10.02-17.887 21.437-39.75 11.418-21.863 21.428-40.925 22.246-42.361 1.433-2.516 1.13-3.289-8.327-21.25-5.398-10.251-10.07-18.638-10.384-18.636-.313.001-6.121 10.576-12.907 23.5"/></svg>