<svg xmlns="http://www.w3.org/2000/svg" width="300" height="300" viewBox="0 0 300 300" version="1.1"><path d="M 82.250 148.920 C 45.262 219.273, 15 277.097, 15 277.418 C 15 277.738, 25.260 278, 37.801 278 L 60.601 278 105.051 193.033 C 129.498 146.301, 149.793 108.051, 150.152 108.033 C 150.510 108.015, 156.416 118.688, 163.276 131.750 C 170.136 144.813, 180.242 164.050, 185.734 174.500 C 191.226 184.950, 205.570 212.500, 217.610 235.722 L 239.500 277.944 262.250 277.972 C 274.762 277.987, 285 277.733, 285 277.406 C 285 276.267, 150.702 21, 150.103 21.003 C 149.772 21.004, 119.237 78.567, 82.250 148.920" stroke="none" fill="#2c343c" fill-rule="evenodd"/><path d="M 162.162 178.503 L 149.824 202 130.412 202 C 118.354 202, 111 202.373, 111 202.984 C 111 204.466, 149.314 277, 150.097 277 C 150.470 277, 160.117 259.113, 171.534 237.250 C 182.952 215.387, 192.962 196.325, 193.780 194.889 C 195.213 192.373, 194.910 191.600, 185.453 173.639 C 180.055 163.388, 175.383 155.001, 175.069 155.003 C 174.756 155.004, 168.948 165.579, 162.162 178.503" stroke="none" fill="#1c73e3" fill-rule="evenodd"/></svg>