<svg xmlns="http://www.w3.org/2000/svg" viewBox="0 0 400 400"><path fill="#FE9416" d="M0 0h400v400H0V0Z"/><path fill="#FFFDFB" d="M303.41 168.543c5.62 4.457 9.015 9.286 10 16.434.6 12.881-5.861 23.313-12.098 34.21l-1.872 3.308a1216.503 1216.503 0 0 1-11.758 20.265c-3.228 5.44-6.367 10.929-9.495 16.428a9235.084 9235.084 0 0 1-4.59 8.018 1709.203 1709.203 0 0 0-3.268 5.744c-1.68 2.962-3.378 5.913-5.079 8.863-.506.9-1.013 1.8-1.534 2.729-4.742 8.16-11.18 16.844-20.716 19.458-8.894 1.046-16.397-.015-23.563-5.5-7.596-7.128-12.317-17.606-17.437-26.563l-2.942-5.12a8088.552 8088.552 0 0 1-3.032-5.286c-2.636-4.596-5.28-9.187-7.926-13.776-1.265-2.195-2.529-4.39-3.79-6.588-2.78-4.836-5.584-9.65-8.51-14.401l-1.447-2.373c-.87-1.419-1.753-2.83-2.65-4.233-1.632-2.671-2.702-4.608-2.707-7.777 1.271-3.017 2.963-5.191 5.066-7.696l2.223-2.675L178 200c2.475 2.262 4.025 4.553 5.645 7.48l1.528 2.74 1.64 2.968c1.174 2.102 2.35 4.203 3.527 6.304l1.835 3.277c3.411 6.04 6.927 12.02 10.436 18.004 3.148 5.374 6.274 10.76 9.362 16.168.668 1.17 1.337 2.338 2.006 3.507a2090.07 2090.07 0 0 1 3.784 6.649c6.16 11.71 6.16 11.71 15.237 20.903 4.159.362 7.327.04 11-2a70.323 70.323 0 0 0 2-4 502.49 502.49 0 0 1 2.984-5.234l1.813-3.14 1.953-3.376 2.033-3.52c4.363-7.548 8.753-15.08 13.155-22.605a3286.41 3286.41 0 0 0 15.562-26.938l1.011-1.765c2.175-3.8 4.336-7.609 6.489-11.422l1.777-3.111 1.649-2.936 1.458-2.577c1.807-3.848 1.923-6.195 1.116-10.376-5.083-5.217-9.204-5.214-16.174-5.332l-3.639-.043-3.603-.113c-6.583-.19-6.583-.19-12.424 2.383L259 185a1650.221 1650.221 0 0 1-3.672 4.66 1565.371 1565.371 0 0 0-4.078 5.403l-2.158 2.853A3854.368 3854.368 0 0 0 243 206l-1.474 1.957A3045.341 3045.341 0 0 0 234 218l-5.063 6.75L225 230l23 1-9-12c1.656-3.311 3.262-5.849 5.5-8.75l1.844-2.422L248 206h2c1.465 1.665 1.465 1.665 3.152 3.98l1.854 2.53 1.931 2.678 1.92 2.619c8.986 12.33 8.986 12.33 8.143 19.193-2.488 4.976-4.868 6.996-10 9-3.276.421-6.517.42-9.816.398l-2.831.01c-1.967.001-3.935-.004-5.903-.017-3.006-.016-6.012 0-9.018.02-1.916-.003-3.832-.007-5.748-.013l-2.715.019c-4.795-.054-8.104-.255-11.969-3.417-2.478-3.675-3.817-7.286-3.574-11.781 1.16-4.484 4.236-7.804 7.093-11.357 2.401-3.018 4.723-6.096 7.057-9.167 1.377-1.81 2.756-3.62 4.14-5.425a823.704 823.704 0 0 0 11.943-16.014c16.126-22.162 40.175-38.367 67.751-20.713Z"/><path fill="#FFFDFB" d="M176.875 97.063c8.247 4.958 13.038 12.546 17.625 20.75l1.813 3.174c1.265 2.215 2.525 4.433 3.781 6.653 2.47 4.353 4.975 8.685 7.482 13.016 1.866 3.227 3.726 6.457 5.584 9.688 2.327 4.041 4.665 8.077 7.016 12.104a5295.31 5295.31 0 0 1 4.19 7.195c.988 1.696 1.982 3.39 2.976 5.083l1.806 3.11 1.6 2.736c1.148 2.226 1.98 3.942 2.252 6.428a58.361 58.361 0 0 1-4.438 6.25l-1.314 1.68A384.395 384.395 0 0 1 224 199c-2.656-2.4-4.28-4.964-6.047-8.066l-1.787-3.12-1.916-3.376-2.01-3.514a5400.705 5400.705 0 0 1-4.172-7.303c-3.168-5.553-6.37-11.086-9.568-16.621a4169.637 4169.637 0 0 1-10.594-18.413 5906.563 5906.563 0 0 0-4.106-7.173 2125.37 2125.37 0 0 1-2.878-5.053l-1.777-3.1-1.552-2.72C173.88 114.51 173.88 114.51 168 111c-3.602-.46-5.35-.424-8.418 1.578-3.04 2.851-4.95 5.946-6.957 9.547l-1.27 2.219c-.941 1.643-1.877 3.288-2.81 4.935-2.258 3.976-4.552 7.93-6.841 11.888-2.583 4.466-5.157 8.937-7.73 13.407-2.604 4.52-5.21 9.039-7.817 13.557l-3.781 6.558a3322.784 3322.784 0 0 1-8.728 15.061l-1.555 2.67c-.95 1.63-1.903 3.258-2.858 4.884l-1.258 2.16-1.092 1.864c-2.426 4.582-2.032 8.944-1.76 13.984.782 1.925.782 1.925 3.148 2.766 5.412 1.339 10.672 1.33 16.227 1.36l3.379.1c4.945.032 8.172.02 12.492-2.518 1.369-1.383 1.369-1.383 2.629-3.02l1.55-1.918c1.727-2.24 3.374-4.525 5.012-6.832 1.23-1.703 2.463-3.405 3.696-5.105l1.88-2.6c2.868-3.92 5.83-7.764 8.8-11.607 4.525-5.876 8.88-11.811 13.062-17.938l-23 1 4.063 4.688c3.946 4.554 3.946 4.554 3.906 7.843-1.13 2.88-2.571 4.893-4.531 7.281l-1.942 2.395L154 193c-3.516-1.172-4.131-2.15-6.285-5.078l-1.858-2.52-1.92-2.652-1.931-2.605c-4.509-6.167-8.104-11.181-7.006-19.145 2.115-3.27 4.484-6.242 8-8a60.708 60.708 0 0 1 4.08-.161l2.549-.03 2.762-.012 2.84-.017c1.987-.01 3.975-.016 5.962-.02 3.03-.01 6.061-.04 9.092-.072 1.931-.007 3.862-.012 5.793-.016l2.737-.038c6.428.023 10.746 1.055 15.56 5.616 2.11 3.571 2.128 5.654 1.625 9.75-2.422 5.924-6.413 10.682-10.313 15.688-1.449 1.879-2.897 3.759-4.343 5.64l-2.207 2.87c-3.207 4.205-6.33 8.47-9.45 12.74A3171.95 3171.95 0 0 1 163 214l-1.543 2.085C154.827 224.977 149.02 232.749 138 236c-4.223.424-8.445.37-12.688.375l-3.396.074c-10.536.037-19.557-2.096-27.256-9.62-5.708-6.287-6.103-10.75-6.094-19.134 1.067-9.09 5.241-16.416 9.746-24.257l1.876-3.305c5.334-9.374 10.766-18.69 16.222-27.992a2176.04 2176.04 0 0 0 9.504-16.417c2.49-4.331 4.99-8.656 7.496-12.978a1542.09 1542.09 0 0 0 2.895-5.019c8.461-14.693 21.852-30.327 40.57-20.665Z"/><path fill="#FFDABA" d="M339 168v1l-3.438.938c-3.35.691-3.35.691-4.562 2.062-.167 3.5-.167 3.5 0 7 1.125 1.356 1.125 1.356 4.063 1.063L338 180l-2-4h-2l-1 4v-9h5l1 4h-2l2 3h2l1-6h1c.36 6.364.36 6.364-1.063 8.875-3.071 1.784-5.393 2.125-8.937 2.125-3-2-3-2-5-5 0-3.544.341-5.866 2.125-8.938 2.906-1.646 5.613-1.247 8.875-1.062Z"/><path fill="#FF8E2A" d="M341 169c1 1 1 1 1.098 2.848L342 178h-4l-1-3h2l-1-3-5-1 1 5h2c1.625 2.5 1.625 2.5 3 5-3.375.125-3.375.125-7 0-2-2-2-2-2.313-5.438C330 172 330 172 331 170.063c3.309-1.757 6.294-1.301 10-1.062Z"/><path fill="#FF8C28" d="m339 171 3 1v6h-4l-1-3h2v-4Z"/><path fill="#FFAD69" d="M333 169h8v3l-8-1v-2Z"/></svg>