<?xml version="1.0" encoding="UTF-8"?>
<svg version="1.1" xmlns="http://www.w3.org/2000/svg" width="400" height="400">
<path d="M0 0 C132 0 264 0 400 0 C400 132 400 264 400 400 C268 400 136 400 0 400 C0 268 0 136 0 0 Z " fill="#FE9416" transform="translate(0,0)"/>
<path d="M0 0 C5.62017871 4.45738312 9.01513502 9.2862879 10 16.43359375 C10.59950725 29.31531364 4.13845251 39.74717513 -2.09765625 50.64453125 C-2.71560059 51.73604492 -3.33354492 52.82755859 -3.97021484 53.95214844 C-7.82660217 60.74411428 -11.74159002 67.50039244 -15.72802734 74.21679688 C-18.95595825 79.65745408 -22.09507748 85.14568649 -25.22265625 90.64453125 C-26.75126977 93.31824317 -28.28170056 95.99090474 -29.81298828 98.66308594 C-30.90630281 100.57563431 -31.99563186 102.49046497 -33.08154297 104.40722656 C-34.76208559 107.36857343 -36.4595052 110.31969641 -38.16015625 113.26953125 C-38.66651611 114.17018311 -39.17287598 115.07083496 -39.69458008 115.9987793 C-44.43610876 124.15849475 -50.87386541 132.84277221 -60.41015625 135.45703125 C-69.30423242 136.50268615 -76.80704901 135.44220847 -83.97265625 129.95703125 C-91.5688852 122.82893004 -96.28997791 112.35053459 -101.41015625 103.39453125 C-102.3906151 101.68762418 -103.3710778 99.9807193 -104.35176086 98.27394104 C-105.36340466 96.512515 -106.37396088 94.75046891 -107.38427734 92.98828125 C-110.01991305 88.39244003 -112.66399944 83.80147949 -115.31054688 79.21191406 C-116.57560442 77.01712321 -117.83865778 74.82117582 -119.09960938 72.62402344 C-121.88069541 67.78754564 -124.68442103 62.9737574 -127.609375 58.22265625 C-128.08721436 57.43963135 -128.56505371 56.65660645 -129.05737305 55.84985352 C-129.92769559 54.43104399 -130.80979951 53.01935941 -131.70629883 51.61694336 C-133.33936912 48.94569448 -134.40933178 47.00942555 -134.4140625 43.83984375 C-133.14313285 40.82324029 -131.45136294 38.64894397 -129.34765625 36.14453125 C-128.61417969 35.26152344 -127.88070312 34.37851563 -127.125 33.46875 C-126.55910156 32.80488281 -125.99320313 32.14101562 -125.41015625 31.45703125 C-122.93525319 33.71916599 -121.38519769 36.00957128 -119.765625 38.9375 C-119.26111816 39.84153564 -118.75661133 40.74557129 -118.23681641 41.67700195 C-117.69589355 42.65628662 -117.1549707 43.63557129 -116.59765625 44.64453125 C-115.42329999 46.74689037 -114.24747265 48.84842831 -113.0703125 50.94921875 C-112.16176514 52.57102051 -112.16176514 52.57102051 -111.23486328 54.22558594 C-107.82384084 60.26629949 -104.30834768 66.24562885 -100.79931641 72.22973633 C-97.65098439 77.60373386 -94.52536954 82.98946816 -91.4375 88.3984375 C-90.7687675 89.56733007 -90.09998526 90.73619418 -89.43115234 91.9050293 C-88.1658342 94.11909945 -86.90417808 96.33526826 -85.64697266 98.55395508 C-79.48703419 110.26386574 -79.48703419 110.26386574 -70.41015625 119.45703125 C-66.25135669 119.81866599 -63.08314116 119.49757842 -59.41015625 117.45703125 C-58.69688836 116.14803501 -58.03875678 114.80872781 -57.41015625 113.45703125 C-56.42650985 111.70593211 -55.43035421 109.96183467 -54.42578125 108.22265625 C-53.82773682 107.18641113 -53.22969238 106.15016602 -52.61352539 105.08251953 C-51.96891357 103.9686084 -51.32430176 102.85469727 -50.66015625 101.70703125 C-49.98229026 100.53372042 -49.30447529 99.36038013 -48.62670898 98.18701172 C-44.26413352 90.63904838 -39.87390851 83.10751153 -35.47265625 75.58203125 C-30.23910389 66.62899353 -25.05868527 57.64663309 -19.91015625 48.64453125 C-19.57654083 48.06197571 -19.24292542 47.47942017 -18.89920044 46.87921143 C-16.72370034 43.07881033 -14.56347147 39.27003865 -12.41015625 35.45703125 C-11.82387451 34.43037354 -11.23759277 33.40371582 -10.63354492 32.34594727 C-10.08931885 31.37713623 -9.54509277 30.4083252 -8.984375 29.41015625 C-8.50315186 28.55969727 -8.02192871 27.70923828 -7.52612305 26.83300781 C-5.71895362 22.9854093 -5.60325958 20.6382231 -6.41015625 16.45703125 C-11.49312659 11.24029853 -15.61431921 11.24279716 -22.58398438 11.125 C-23.78474609 11.11082031 -24.98550781 11.09664062 -26.22265625 11.08203125 C-27.41181641 11.04464844 -28.60097656 11.00726563 -29.82617188 10.96875 C-36.40939732 10.77887228 -36.40939732 10.77887228 -42.25 13.3515625 C-42.96285156 14.37636719 -43.67570312 15.40117187 -44.41015625 16.45703125 C-45.63114398 18.0127527 -46.85545823 19.56586584 -48.08203125 21.1171875 C-49.44538249 22.91496026 -50.80459145 24.71588007 -52.16015625 26.51953125 C-52.87244385 27.46111084 -53.58473145 28.40269043 -54.31860352 29.37280273 C-56.35320119 32.06450011 -58.38263537 34.76000113 -60.41015625 37.45703125 C-60.89661621 38.10285156 -61.38307617 38.74867188 -61.88427734 39.4140625 C-64.40116982 42.7555723 -66.90705869 46.10518222 -69.41015625 49.45703125 C-71.09669957 51.70774923 -72.7847161 53.95736075 -74.47265625 56.20703125 C-75.77203125 57.93953125 -77.07140625 59.67203125 -78.41015625 61.45703125 C-70.82015625 61.78703125 -63.23015625 62.11703125 -55.41015625 62.45703125 C-58.38015625 58.49703125 -61.35015625 54.53703125 -64.41015625 50.45703125 C-62.75453161 47.14578197 -61.14779937 44.60838207 -58.91015625 41.70703125 C-58.30171875 40.9078125 -57.69328125 40.10859375 -57.06640625 39.28515625 C-56.51984375 38.681875 -55.97328125 38.07859375 -55.41015625 37.45703125 C-54.75015625 37.45703125 -54.09015625 37.45703125 -53.41015625 37.45703125 C-51.94555664 39.12182617 -51.94555664 39.12182617 -50.2578125 41.4375 C-49.34032227 42.68950195 -49.34032227 42.68950195 -48.40429688 43.96679688 C-47.76685547 44.85044922 -47.12941406 45.73410156 -46.47265625 46.64453125 C-45.83908203 47.50884766 -45.20550781 48.37316406 -44.55273438 49.26367188 C-35.56730724 61.59383214 -35.56730724 61.59383214 -36.41015625 68.45703125 C-38.89800039 73.43271953 -41.27807763 75.45308707 -46.41015625 77.45703125 C-49.68644044 77.87835434 -52.92669819 77.87788583 -56.2265625 77.85546875 C-57.16064438 77.85833893 -58.09472626 77.86120911 -59.05711365 77.86416626 C-61.02465423 77.86620104 -62.9922153 77.86071231 -64.9597168 77.84814453 C-67.96644363 77.83206448 -70.97183001 77.84802255 -73.97851562 77.8671875 C-75.89453421 77.86520532 -77.81055196 77.86136216 -79.7265625 77.85546875 C-80.62250626 77.86154144 -81.51845001 77.86761414 -82.44154358 77.87387085 C-87.23660955 77.81996306 -90.54548199 77.61925104 -94.41015625 74.45703125 C-96.88857746 70.78213083 -98.22761316 67.17149354 -97.984375 62.67578125 C-96.82403026 58.19227233 -93.74816828 54.87195584 -90.89160156 51.31884766 C-88.49015299 48.30081094 -86.16798265 45.22284505 -83.83422852 42.15234375 C-82.45752492 40.34145281 -81.07775478 38.53288944 -79.69506836 36.7265625 C-75.64792299 31.43468217 -71.66836329 26.10151283 -67.75073242 20.71313477 C-51.62490284 -1.44853327 -27.5757521 -17.65384454 0 0 Z " fill="#FFFDFB" transform="translate(303.41015625,168.54296875)"/>
<path d="M0 0 C8.24721683 4.95834696 13.03751505 12.54603992 17.625 20.75 C18.22320557 21.79752441 18.82141113 22.84504883 19.43774414 23.92431641 C20.7025405 26.13964133 21.96295997 28.35747025 23.21923828 30.57763672 C25.68840851 34.93079078 28.19370728 39.26253638 30.70068359 43.59399414 C32.56701866 46.82031137 34.42657297 50.05046211 36.28515625 53.28125 C38.61243168 57.3228212 40.94988865 61.35811461 43.30122375 65.38571167 C44.70009392 67.78243523 46.09540892 70.18121965 47.49050903 72.58013916 C48.47909266 74.27662146 49.47276929 75.97013268 50.46655273 77.66357422 C51.06282471 78.6898291 51.65909668 79.71608398 52.2734375 80.7734375 C52.80114746 81.67626465 53.32885742 82.5790918 53.87255859 83.50927734 C55.02082297 85.73552246 55.85210567 87.45185223 56.125 89.9375 C54.72132378 92.19979236 53.35199982 94.13813057 51.6875 96.1875 C51.25373047 96.74179688 50.81996094 97.29609375 50.37304688 97.8671875 C49.30166776 99.23290154 48.21478204 100.58642519 47.125 101.9375 C44.46934213 99.53780318 42.84501447 96.97305811 41.078125 93.87109375 C40.48837891 92.84177734 39.89863281 91.81246094 39.29101562 90.75195312 C38.65873047 89.63755859 38.02644531 88.52316406 37.375 87.375 C36.70558653 86.20348539 36.03565574 85.03226624 35.36523438 83.86132812 C33.97260003 81.42806166 32.58220253 78.99353768 31.19335938 76.55810547 C28.02470356 71.00592621 24.82356424 65.47248407 21.625 59.9375 C18.08235426 53.80608777 14.54203494 47.67352661 11.03067017 41.5241394 C9.66436128 39.13212883 8.29494714 36.74190292 6.92529297 34.35180664 C5.96278986 32.66921037 5.00477069 30.98405164 4.046875 29.29882812 C3.46035156 28.27595703 2.87382812 27.25308594 2.26953125 26.19921875 C1.75753174 25.30162842 1.24553223 24.40403809 0.71801758 23.47924805 C-2.99489945 17.4460391 -2.99489945 17.4460391 -8.875 13.9375 C-12.47736029 13.47762422 -14.22484826 13.51316833 -17.29296875 15.515625 C-20.33266823 18.36678034 -22.24389871 21.4617944 -24.25 25.0625 C-24.87902222 26.1609021 -24.87902222 26.1609021 -25.52075195 27.28149414 C-26.46098689 28.92417448 -27.39702972 30.56925909 -28.32958984 32.21630859 C-30.58757638 36.1922198 -32.88150418 40.14713605 -35.17138672 44.10473633 C-37.75382748 48.57049853 -40.32752142 53.04128007 -42.90185547 57.51171875 C-45.50521225 62.03167698 -48.11103217 66.55021147 -50.7175293 71.06835938 C-51.97852294 73.2543184 -53.23910947 75.44051233 -54.49926758 77.62695312 C-57.39743599 82.65357834 -60.30209925 87.67612032 -63.2265625 92.6875 C-63.73993164 93.56865479 -64.25330078 94.44980957 -64.78222656 95.35766602 C-65.73232268 96.98714723 -66.68465223 98.61532912 -67.63964844 100.24194336 C-68.05504883 100.95487549 -68.47044922 101.66780762 -68.8984375 102.40234375 C-69.25856934 103.017146 -69.61870117 103.63194824 -69.98974609 104.26538086 C-72.41587454 108.84799358 -72.02244726 113.20972576 -71.75 118.25 C-70.96821785 120.17403405 -70.96821785 120.17403405 -68.6015625 121.015625 C-63.19039951 122.35423555 -57.92975435 122.34610243 -52.375 122.375 C-50.70244141 122.42430664 -50.70244141 122.42430664 -48.99609375 122.47460938 C-44.05133338 122.50702437 -40.82379453 122.49490304 -36.50390625 119.95703125 C-35.13505812 118.57437871 -35.13505812 118.57437871 -33.875 116.9375 C-33.36372559 116.30448975 -32.85245117 115.67147949 -32.32568359 115.01928711 C-30.59754698 112.77908147 -28.95069867 110.49420858 -27.3125 108.1875 C-26.08215692 106.48464459 -24.85035305 104.78284381 -23.6171875 103.08203125 C-22.68664551 101.79546631 -22.68664551 101.79546631 -21.73730469 100.48291016 C-18.86939799 96.56303663 -15.90620006 92.71876305 -12.9375 88.875 C-8.41198635 82.99983121 -4.05686997 77.06442578 0.125 70.9375 C-11.26 71.4325 -11.26 71.4325 -22.875 71.9375 C-21.534375 73.484375 -20.19375 75.03125 -18.8125 76.625 C-14.8656367 81.17907303 -14.8656367 81.17907303 -14.90625 84.46875 C-16.03598944 87.34776342 -17.47695681 89.36170193 -19.4375 91.75 C-20.07816406 92.54019531 -20.71882813 93.33039063 -21.37890625 94.14453125 C-21.87261719 94.73621094 -22.36632812 95.32789063 -22.875 95.9375 C-26.39145158 94.76534947 -27.00633753 93.78834459 -29.16015625 90.859375 C-29.77310547 90.02792969 -30.38605469 89.19648438 -31.01757812 88.33984375 C-31.65115234 87.46457031 -32.28472656 86.58929688 -32.9375 85.6875 C-33.57494141 84.82769531 -34.21238281 83.96789062 -34.86914062 83.08203125 C-39.37757905 76.91558966 -42.97345169 71.90127473 -41.875 63.9375 C-39.76034891 60.66822347 -37.39131193 57.69565596 -33.875 55.9375 C-32.51821747 55.83352143 -31.15660168 55.78889954 -29.79589844 55.77636719 C-28.95452332 55.76675964 -28.11314819 55.7571521 -27.24627686 55.74725342 C-26.33484924 55.74300354 -25.42342163 55.73875366 -24.484375 55.734375 C-23.547005 55.72867493 -22.60963501 55.72297485 -21.64385986 55.71710205 C-19.65662772 55.70764435 -17.66937983 55.70111502 -15.68212891 55.69726562 C-12.65108564 55.68758333 -9.62072711 55.65657684 -6.58984375 55.625 C-4.65885819 55.6184676 -2.72786778 55.61321806 -0.796875 55.609375 C0.10645569 55.5970282 1.00978638 55.5846814 1.94049072 55.57196045 C8.36783233 55.59454763 12.68566098 56.62654724 17.5 61.1875 C19.61040577 64.75895592 19.6280724 66.8410533 19.125 70.9375 C16.70251512 76.86109442 12.71208487 81.61939117 8.8125 86.625 C7.36326203 88.50419008 5.91537202 90.38442039 4.46875 92.265625 C3.74042969 93.21244141 3.01210937 94.15925781 2.26171875 95.13476562 C-0.94454795 99.34042624 -4.06720738 103.60540178 -7.1875 107.875 C-9.41122939 110.89987306 -11.64054441 113.92054228 -13.875 116.9375 C-14.63901123 117.96955566 -14.63901123 117.96955566 -15.41845703 119.02246094 C-22.04725377 127.9143788 -27.8549654 135.68685501 -38.875 138.9375 C-43.09807449 139.36155355 -47.32005898 139.30770357 -51.5625 139.3125 C-52.68333984 139.33699219 -53.80417969 139.36148438 -54.95898438 139.38671875 C-65.49534147 139.42340949 -74.51637124 137.29021004 -82.21484375 129.765625 C-87.92295426 123.47998801 -88.31814187 119.01606033 -88.30859375 110.6328125 C-87.24197945 101.54256813 -83.06802272 94.21602811 -78.5625 86.375 C-77.94366943 85.28437256 -77.32483887 84.19374512 -76.68725586 83.07006836 C-71.35310286 73.69699703 -65.9214881 64.38028091 -60.46484375 55.078125 C-57.2676722 49.6225146 -54.11041924 44.14462776 -50.9609375 38.66137695 C-48.4712474 34.3301469 -45.97066221 30.00530472 -43.46533203 25.68310547 C-42.49732088 24.01189678 -41.53154947 22.33938469 -40.56982422 20.66455078 C-32.10873129 5.97126477 -18.71762655 -9.66277473 0 0 Z " fill="#FFFDFB" transform="translate(176.875,97.0625)"/>
<path d="M0 0 C0 0.33 0 0.66 0 1 C-1.7015625 1.4640625 -1.7015625 1.4640625 -3.4375 1.9375 C-6.78775099 2.62924531 -6.78775099 2.62924531 -8 4 C-8.16666667 7.5 -8.16666667 7.5 -8 11 C-6.87465895 12.35618499 -6.87465895 12.35618499 -3.9375 12.0625 C-2.968125 12.041875 -1.99875 12.02125 -1 12 C-1.66 10.68 -2.32 9.36 -3 8 C-3.66 8 -4.32 8 -5 8 C-5.33 9.32 -5.66 10.64 -6 12 C-6 9.03 -6 6.06 -6 3 C-4.35 3 -2.7 3 -1 3 C-0.67 4.32 -0.34 5.64 0 7 C-0.66 7 -1.32 7 -2 7 C-1.01 8.485 -1.01 8.485 0 10 C0.66 10 1.32 10 2 10 C2.33 8.02 2.66 6.04 3 4 C3.33 4 3.66 4 4 4 C4.36024218 10.36427851 4.36024218 10.36427851 2.9375 12.875 C-0.13408409 14.65850044 -2.45638757 15 -6 15 C-9 13 -9 13 -11 10 C-11 6.45638757 -10.65850044 4.13408409 -8.875 1.0625 C-5.96905769 -0.58420065 -3.26178195 -0.18462917 0 0 Z " fill="#FFDABA" transform="translate(339,168)"/>
<path d="M0 0 C1 1 1 1 1.09765625 2.84765625 C1.04882812 5.92382812 1.04882812 5.92382812 1 9 C-0.32 9 -1.64 9 -3 9 C-3.33 8.01 -3.66 7.02 -4 6 C-3.34 6 -2.68 6 -2 6 C-2.33 5.01 -2.66 4.02 -3 3 C-4.65 2.67 -6.3 2.34 -8 2 C-7.67 3.65 -7.34 5.3 -7 7 C-6.34 7 -5.68 7 -5 7 C-3.375 9.5 -3.375 9.5 -2 12 C-5.375 12.125 -5.375 12.125 -9 12 C-11 10 -11 10 -11.3125 6.5625 C-11 3 -11 3 -10 1.0625 C-6.69148889 -0.69514653 -3.70613592 -0.23910554 0 0 Z " fill="#FF8E2A" transform="translate(341,169)"/>
<path d="M0 0 C0.99 0.33 1.98 0.66 3 1 C3 2.98 3 4.96 3 7 C1.68 7 0.36 7 -1 7 C-1.33 6.01 -1.66 5.02 -2 4 C-1.34 4 -0.68 4 0 4 C0 2.68 0 1.36 0 0 Z " fill="#FF8C28" transform="translate(339,171)"/>
<path d="M0 0 C2.64 0 5.28 0 8 0 C8 0.99 8 1.98 8 3 C5.36 2.67 2.72 2.34 0 2 C0 1.34 0 0.68 0 0 Z " fill="#FFAD69" transform="translate(333,169)"/>
</svg>
