<svg version="1.1" id="Layer_1" xmlns="http://www.w3.org/2000/svg" xmlns:xlink="http://www.w3.org/1999/xlink" x="0px" y="0px" viewBox="14.67078971862793 3.800006866455078 132.4584197998047 123.59999084472656" style="enable-background:new 0 0 430 133;" xml:space="preserve"><style type="text/css">	.st0{fill:#FFFFFF;}	.st1{fill:url(#SVGID_1_);}</style><linearGradient id="SVGID_1_" gradientUnits="userSpaceOnUse" x1="14.6932" y1="65.6365" x2="147.1455" y2="65.6365">	<stop offset="0" style="stop-color:#FF671F"></stop>	<stop offset="1" style="stop-color:#FFD300"></stop></linearGradient><path class="st1" d="M68.9,60L60,71.8l-6.7,8.8c-3.1,4.1-7.3,6.3-11.9,6.3h-8.9c-7.3,0-13.2-2.8-16-7.8c-2.8-4.9-2.4-11.4,1.3-17.7	l27.5-47.6c3.7-6.3,9-10,14.7-10c5.7,0,11.1,3.6,14.7,10l25.4,43.9l-5.9,7.8L66.9,18.3c-2-3.5-4.5-5.5-6.9-5.5c-2.4,0-4.9,2-6.9,5.5	L25.6,65.9c-2,3.5-2.5,6.7-1.3,8.8c1.2,2.1,4.2,3.3,8.2,3.3h8.9c1.7,0,3.3-0.9,4.7-2.8l4.9-6.5l0,0l12.4-16.5h0l3.8-5H52.7l5.7,7.6	l-5.6,7.5l-9.4-12.4l-0.1-0.2c-1.5-2.7-1.7-5.5-0.3-7.8c1.3-2.3,3.9-3.6,6.9-3.6h20.2c3.1,0,5.6,1.3,6.9,3.6	c1.3,2.3,1.2,5.2-0.3,7.8l-0.1,0.2L68.9,60L68.9,60z M145.3,52.1c-2.9-4.9-8.7-7.8-16-7.8h-8.9c-4.6,0-8.8,2.2-11.9,6.3l-6.7,8.8	l-8.9,11.8l0,0l-7.6,10.1l-0.1,0.2c-1.5,2.7-1.7,5.5-0.3,7.8c1.3,2.3,3.9,3.6,6.9,3.6h20.2c3.1,0,5.6-1.3,6.9-3.6	c1.3-2.3,1.2-5.1-0.3-7.8l-0.1-0.3L109,69.1l-5.6,7.5l5.7,7.6H94.5l3.8-5l0,0l12.4-16.5l0,0l4.9-6.5c1.4-1.8,3-2.8,4.7-2.8h8.9	c4,0,7,1.2,8.2,3.3c1.2,2.1,0.7,5.3-1.3,8.7l-27.5,47.6c-2,3.5-4.5,5.5-6.9,5.5c-2.4,0-4.9-2-6.9-5.5L67.6,65.7l-5.9,7.8l25.4,43.9	c3.7,6.3,9,10,14.7,10c5.7,0,11.1-3.6,14.7-10L144,69.9C147.7,63.5,148.1,57.1,145.3,52.1z"></path></svg>
