<?xml version="1.0" encoding="UTF-8" standalone="no"?><!DOCTYPE svg PUBLIC "-//W3C//DTD SVG 1.1//EN" "http://www.w3.org/Graphics/SVG/1.1/DTD/svg11.dtd"><svg width="100%" height="100%" viewBox="0 0 480 480" version="1.1" xmlns="http://www.w3.org/2000/svg" xmlns:xlink="http://www.w3.org/1999/xlink" xml:space="preserve" xmlns:serif="http://www.serif.com/" style="fill-rule:evenodd;clip-rule:evenodd;stroke-linejoin:round;stroke-miterlimit:2;"><g id="Logo"><path id="Fundo" d="M70.5,0l343,0c38.216,0.093 66.617,33.051 66.499,74.5l0,338c0.022,32.983 -31.488,67.5 -70.499,67.499l-338,0c-35.16,0.206 -71.556,-37.42 -71.5,-75.499l0,-337c0.002,-37.738 36.198,-67.5 70.5,-67.5Z" style="fill:#00271f;"/><path id="A" d="M193.513,148.12c40.311,6.008 35.205,21.071 35.205,133.38c0,46.028 0.691,47.867 -2.224,47.886c-39.319,0.242 -40.941,0.132 -40.984,-2.886c-0.515,-36.036 1.769,-71.561 -2.03,-71.65c-51.151,-1.208 -54.233,2.54 -69.802,32.742c-20.784,40.321 -20.321,41.696 -24.182,41.785c-21.443,0.495 -22.828,-0.312 -22.024,-1.887c6.614,-12.972 71.496,-140.232 85.462,-160.702c15.063,-22.077 37.186,-18.589 40.579,-18.668Z" style="fill:#fefefe;"/><path id="V" d="M290.5,331.878c-44.413,-4.935 -39.255,-21.461 -39.255,-119.378c0,-59.63 -0.809,-62.044 3.255,-62.07c38.078,-0.247 39.833,-0.208 39.862,3.071c1.319,145.877 -6.799,160.808 9.049,154.749c6.408,-2.45 5.367,-4.139 41.672,-74.956c3.362,-6.556 38.553,-75.2 42.627,-81.646c1.142,-1.807 26.41,-2.594 24.638,0.784c-5.118,9.76 -56.028,106.841 -64.166,121.897c-25.49,47.152 -24.307,53.981 -57.682,57.549Z" style="fill:#fefefe;"/><path id="Vazado-do-A" serif:id="Vazado do A" d="M151.5,238.224c-10.3,-0.519 -12.274,0.517 -11.27,-1.803c4.34,-10.026 28.164,-54.034 30.686,-58.694c6.42,-11.859 14.422,-5.759 14.543,-0.224c0.105,4.787 1.266,57.725 -0.208,59.852c-0.849,1.225 -9.395,0.869 -33.751,0.869Z" style="fill:#01251d;"/></g></svg>