<?xml version="1.0" encoding="UTF-8" standalone="no"?><!DOCTYPE svg PUBLIC "-//W3C//DTD SVG 1.1//EN" "http://www.w3.org/Graphics/SVG/1.1/DTD/svg11.dtd"><svg width="100%" height="100%" viewBox="0 0 500 500" version="1.1" xmlns="http://www.w3.org/2000/svg" xmlns:xlink="http://www.w3.org/1999/xlink" xml:space="preserve" xmlns:serif="http://www.serif.com/" style="fill-rule:evenodd;clip-rule:evenodd;stroke-linecap:round;stroke-linejoin:round;stroke-miterlimit:1.5;"><rect id="Artboard1" x="0" y="0" width="500" height="500" style="fill:none;"/><path d="M396.333,261.405c0,108.658 -88.217,196.875 -196.875,196.875c-108.658,0 -196.875,-88.217 -196.875,-196.875c0,-108.659 88.217,-196.875 196.875,-196.875c108.658,0 196.875,88.216 196.875,196.875Z" style="fill:url(#_Linear1);stroke:#000;stroke-width:2.18px;"/><circle cx="235.595" cy="261.405" r="93.75" style="fill:#fc0404;"/><g transform="matrix(3.125,0,0,3.125,-1.90483,4.99496)"><g transform="matrix(10.6667,0,0,10.6667,25,42.3867)"><path d="M0.095,-0.688c0.006,0.025 0.017,0.058 0.029,0.075c0.011,0.016 0.071,0.09 0.111,0.09c0.02,0 0.105,-0.035 0.122,-0.041c0.08,-0.024 0.255,-0.056 0.336,-0.056c0.013,0 0.025,0 0.025,0.01c0,0.016 -0.049,0.079 -0.131,0.144c-0.05,-0.05 -0.068,-0.06 -0.097,-0.06c-0.022,0 -0.053,0.009 -0.091,0.021l0.002,0.01c0.036,0.006 0.045,0.034 0.045,0.063c0,0.063 -0.071,0.343 -0.281,0.498l0.006,0.008c0.134,-0.046 0.277,-0.136 0.404,-0.406c0.01,-0.021 0.017,-0.034 0.035,-0.057c0.007,-0.01 0.011,-0.017 0.011,-0.025c0,-0.009 -0.005,-0.017 -0.014,-0.028c0.067,-0.022 0.147,-0.051 0.196,-0.072c0.031,-0.012 0.043,-0.014 0.071,-0.02c0.048,-0.01 0.051,-0.036 0.051,-0.044c0,-0.035 -0.085,-0.114 -0.138,-0.139c-0.009,-0.004 -0.016,-0.005 -0.024,-0.005c-0.009,0 -0.018,0.002 -0.03,0.006l-0.048,0.017c-0.02,0.007 -0.035,0.012 -0.079,0.017c-0.071,0.008 -0.3,0.025 -0.389,0.025c-0.051,0 -0.095,-0.014 -0.113,-0.035l-0.009,0.004Z" style="fill:#fff;fill-rule:nonzero;"/></g><g transform="matrix(10.6667,0,0,10.6667,25,53.0533)"><path d="M0.651,-0.73c0.05,0.032 0.098,0.097 0.119,0.125c0.015,0.021 0.022,0.03 0.042,0.03c0.029,0 0.042,-0.031 0.042,-0.053c0,-0.012 -0.005,-0.026 -0.019,-0.042c-0.027,-0.033 -0.031,-0.07 -0.031,-0.074c0,-0.01 0.007,-0.013 0.012,-0.013c0.011,0.001 0.025,0.007 0.039,0.02c0.019,0.018 0.034,0.041 0.048,0.06c0.014,0.019 0.021,0.024 0.035,0.024c0.029,0 0.04,-0.031 0.04,-0.052c0,-0.054 -0.121,-0.092 -0.148,-0.092c-0.033,0 -0.042,0.017 -0.042,0.031c0,0.007 0.002,0.013 0.002,0.02c0,0.012 0,0.041 -0.017,0.041c-0.006,0 -0.098,-0.031 -0.117,-0.036l-0.005,0.011Zm-0.44,0.04c0.029,0.022 0.066,0.051 0.091,0.075c0.029,0.027 0.053,0.055 0.076,0.079c0.011,0.012 0.024,0.018 0.041,0.018c0.058,0 0.06,-0.055 0.06,-0.078c0,-0.025 -0.012,-0.045 -0.036,-0.059c-0.015,-0.009 -0.084,-0.046 -0.181,-0.046c-0.016,0 -0.032,0.001 -0.049,0.002l-0.002,0.009Zm0.7,0.157c-0.142,0.15 -0.458,0.37 -0.597,0.419c-0.018,0.006 -0.038,0.011 -0.058,0.011c-0.005,0 -0.063,0 -0.086,-0.045l-0.01,0.003c0.008,0.083 0.016,0.11 0.044,0.134c0.025,0.024 0.084,0.064 0.124,0.064c0.018,0 0.035,-0.006 0.052,-0.023c0.013,-0.013 0.042,-0.037 0.058,-0.047c0.107,-0.074 0.214,-0.165 0.297,-0.246c0.084,-0.079 0.145,-0.184 0.184,-0.264l-0.008,-0.006Zm-0.824,0.079c0.032,0.02 0.068,0.046 0.094,0.068c0.032,0.028 0.056,0.054 0.08,0.076c0.011,0.009 0.023,0.016 0.04,0.016c0.055,0 0.058,-0.047 0.058,-0.077c0,-0.052 -0.051,-0.079 -0.161,-0.096c-0.012,-0.001 -0.024,-0.002 -0.036,-0.002c-0.023,0 -0.047,0.002 -0.074,0.005l-0.001,0.01Z" style="fill:#fff;fill-rule:nonzero;"/></g><g transform="matrix(10.6667,0,0,10.6667,25,63.72)"><path d="M0.095,-0.688c0.006,0.025 0.017,0.058 0.029,0.075c0.011,0.016 0.071,0.09 0.111,0.09c0.02,0 0.105,-0.035 0.122,-0.041c0.08,-0.024 0.255,-0.056 0.336,-0.056c0.013,0 0.025,0 0.025,0.01c0,0.016 -0.049,0.079 -0.131,0.144c-0.05,-0.05 -0.068,-0.06 -0.097,-0.06c-0.022,0 -0.053,0.009 -0.091,0.021l0.002,0.01c0.036,0.006 0.045,0.034 0.045,0.063c0,0.063 -0.071,0.343 -0.281,0.498l0.006,0.008c0.134,-0.046 0.277,-0.136 0.404,-0.406c0.01,-0.021 0.017,-0.034 0.035,-0.057c0.007,-0.01 0.011,-0.017 0.011,-0.025c0,-0.009 -0.005,-0.017 -0.014,-0.028c0.067,-0.022 0.147,-0.051 0.196,-0.072c0.031,-0.012 0.043,-0.014 0.071,-0.02c0.048,-0.01 0.051,-0.036 0.051,-0.044c0,-0.035 -0.085,-0.114 -0.138,-0.139c-0.009,-0.004 -0.016,-0.005 -0.024,-0.005c-0.009,0 -0.018,0.002 -0.03,0.006l-0.048,0.017c-0.02,0.007 -0.035,0.012 -0.079,0.017c-0.071,0.008 -0.3,0.025 -0.389,0.025c-0.051,0 -0.095,-0.014 -0.113,-0.035l-0.009,0.004Z" style="fill:#fff;fill-rule:nonzero;"/></g><g transform="matrix(10.6667,0,0,10.6667,25,85.0533)"><path d="M0.54,0.058c0.297,-0.007 0.422,-0.224 0.422,-0.403c0,-0.23 -0.193,-0.382 -0.437,-0.382c-0.288,0 -0.477,0.201 -0.477,0.356c0,0.038 0.014,0.088 0.028,0.119c0.019,0.042 0.033,0.075 0.046,0.114c0.011,0.031 0.018,0.063 0.033,0.092c0.013,0.025 0.036,0.037 0.062,0.037c0.084,0 0.159,-0.108 0.239,-0.269c0.031,-0.063 0.101,-0.202 0.101,-0.247c0,-0.042 -0.049,-0.095 -0.073,-0.116c-0.018,-0.016 -0.036,-0.024 -0.06,-0.031c0.022,-0.008 0.052,-0.016 0.098,-0.016c0.183,0 0.274,0.151 0.275,0.325c0,0.219 -0.123,0.364 -0.259,0.411l0.002,0.01Zm-0.123,-0.592c-0.027,0.143 -0.132,0.339 -0.196,0.339c-0.042,0 -0.066,-0.077 -0.066,-0.139c0,-0.129 0.11,-0.269 0.236,-0.325c0.023,0.021 0.031,0.05 0.031,0.081c0,0.014 -0.002,0.029 -0.005,0.044Z" style="fill:#fff;fill-rule:nonzero;"/></g><g transform="matrix(10.6667,0,0,10.6667,25,106.387)"><path d="M0.368,-0.655c0.064,-0.016 0.144,-0.03 0.175,-0.035c0.037,-0.006 0.071,-0.006 0.098,-0.011c0.023,-0.004 0.034,-0.021 0.034,-0.037c0,-0.03 -0.065,-0.078 -0.111,-0.078c-0.014,0 -0.077,0.004 -0.09,0.004c-0.091,0 -0.144,-0.017 -0.164,-0.033l-0.008,0.006c0.032,0.063 0.063,0.088 0.129,0.109c0.005,0.002 0.007,0.005 0.007,0.008c0,0.009 -0.039,0.035 -0.075,0.058l0.005,0.009Zm-0.162,0.088c-0.004,0.008 -0.024,0.044 -0.024,0.065c0,0.042 0.073,0.105 0.111,0.105c0.01,0 0.019,-0.003 0.028,-0.008c0.041,-0.022 0.09,-0.059 0.133,-0.086c0.026,-0.017 0.067,-0.039 0.089,-0.039c0.008,0 0.014,0.005 0.014,0.013c0,0.024 -0.075,0.095 -0.161,0.176c-0.039,0.037 -0.103,0.101 -0.154,0.146c-0.103,0.091 -0.109,0.114 -0.109,0.146c0,0.033 0.01,0.057 0.015,0.069c0.009,0.022 0.027,0.034 0.056,0.034c0.026,0 0.043,-0.012 0.052,-0.028c0.019,-0.032 0.033,-0.06 0.053,-0.092c0.01,-0.017 0.076,-0.115 0.125,-0.135c0.01,-0.004 0.021,-0.006 0.03,-0.006c0.026,0 0.047,0.013 0.054,0.038c0.01,0.037 0.01,0.068 0.016,0.108c0.014,0.099 0.082,0.135 0.201,0.135c0.056,0 0.116,-0.01 0.152,-0.03c0.023,-0.013 0.029,-0.034 0.029,-0.051c0,-0.011 -0.003,-0.023 -0.012,-0.032c-0.019,-0.019 -0.067,-0.042 -0.095,-0.042c-0.007,0 -0.014,0.002 -0.022,0.004c-0.027,0.008 -0.044,0.012 -0.063,0.012c-0.041,0 -0.062,-0.01 -0.074,-0.04c-0.008,-0.021 -0.018,-0.069 -0.024,-0.092c-0.005,-0.022 -0.018,-0.074 -0.097,-0.074c-0.014,0 -0.028,0.002 -0.071,0.013c-0.003,0.001 -0.005,0.001 -0.007,0.001c-0.006,0 -0.008,-0.002 -0.008,-0.005c0,-0.017 0.108,-0.106 0.18,-0.156c0.029,-0.02 0.057,-0.034 0.094,-0.052c0.021,-0.01 0.03,-0.026 0.03,-0.043c0,-0.015 -0.008,-0.03 -0.021,-0.04c-0.049,-0.038 -0.109,-0.063 -0.134,-0.063c-0.011,0 -0.021,0.003 -0.03,0.009c-0.036,0.02 -0.052,0.029 -0.102,0.043c-0.059,0.017 -0.14,0.032 -0.183,0.032c-0.035,0 -0.054,-0.01 -0.061,-0.034l-0.01,-0.001Z" style="fill:#fff;fill-rule:nonzero;"/></g><g transform="matrix(10.6667,0,0,10.6667,25,117.053)"><path d="M0.443,-0.33c-0.046,0.067 -0.092,0.13 -0.118,0.155c-0.005,0.005 -0.01,0.008 -0.017,0.008c-0.024,0 -0.091,-0.062 -0.091,-0.218c0,-0.045 0.005,-0.097 0.017,-0.152c0.002,-0.01 0.003,-0.018 0.003,-0.026c0,-0.019 -0.007,-0.032 -0.026,-0.048c-0.056,-0.047 -0.103,-0.065 -0.168,-0.074l-0.005,0.008c0.04,0.055 0.043,0.087 0.045,0.112c0.014,0.157 0.034,0.364 0.111,0.488c0.038,0.063 0.115,0.085 0.157,0.085c0.039,0 0.062,-0.023 0.062,-0.058c0,-0.006 -0.002,-0.034 -0.002,-0.04c0,-0.05 0.005,-0.081 0.041,-0.235l-0.009,-0.005Zm0.16,-0.22c0.072,0.014 0.115,0.049 0.141,0.094c0.037,0.062 0.049,0.131 0.049,0.157c0,0.02 -0.007,0.031 -0.021,0.043c-0.024,0.02 -0.054,0.037 -0.093,0.055l0.002,0.009c0.091,0.003 0.108,0.003 0.158,0.025c0.011,0.005 0.023,0.009 0.036,0.009c0.058,0 0.07,-0.101 0.07,-0.131c0,-0.06 -0.045,-0.166 -0.129,-0.23c-0.035,-0.026 -0.083,-0.045 -0.152,-0.045c-0.018,0 -0.038,0.001 -0.059,0.004l-0.002,0.01Z" style="fill:#fff;fill-rule:nonzero;"/></g><g transform="matrix(10.6667,0,0,10.6667,25,127.72)"><path d="M0.679,-0.68c0.067,0.024 0.142,0.081 0.163,0.096c0.01,0.007 0.017,0.01 0.026,0.01c0.035,0 0.038,-0.03 0.038,-0.051c0,-0.022 -0.01,-0.035 -0.033,-0.049c-0.034,-0.02 -0.063,-0.054 -0.063,-0.068c0,-0.003 0.002,-0.012 0.014,-0.012c0.035,0 0.093,0.044 0.106,0.054c0.011,0.008 0.019,0.011 0.027,0.011c0.032,0 0.033,-0.031 0.033,-0.043c0,-0.017 -0.003,-0.035 -0.027,-0.048c-0.02,-0.011 -0.059,-0.02 -0.102,-0.02c-0.021,0 -0.073,0.003 -0.073,0.039c0,0.01 0.006,0.016 0.009,0.027c0.004,0.012 0.007,0.028 0.007,0.036c0,0.007 -0.002,0.011 -0.011,0.011c-0.008,0 -0.094,-0.003 -0.112,-0.003l-0.002,0.01Zm-0.651,0.178c0.009,0.026 0.017,0.055 0.032,0.075c0.012,0.016 0.056,0.068 0.086,0.068c0.021,0 0.056,-0.02 0.106,-0.048c-0.024,0.065 -0.05,0.125 -0.084,0.185c-0.026,0.045 -0.048,0.075 -0.071,0.112c-0.009,0.016 -0.017,0.036 -0.017,0.055c0,0.016 0.007,0.046 0.013,0.066c0.01,0.03 0.03,0.034 0.047,0.034c0.029,0 0.046,-0.016 0.06,-0.041c0.053,-0.089 0.12,-0.289 0.163,-0.406c0.008,-0.022 0.016,-0.043 0.023,-0.063c0.017,-0.006 0.041,-0.012 0.06,-0.012c0.078,0 0.078,0.066 0.078,0.108c0,0.067 -0.028,0.287 -0.129,0.287c-0.024,0 -0.084,-0.009 -0.126,-0.018l-0.003,0.009c0.05,0.028 0.083,0.071 0.103,0.11c0.01,0.021 0.03,0.029 0.053,0.029c0.005,0 0.11,-0.001 0.163,-0.119c0.032,-0.068 0.06,-0.195 0.06,-0.284c0,-0.069 -0.018,-0.121 -0.081,-0.156c-0.025,-0.015 -0.053,-0.02 -0.082,-0.02c-0.023,0 -0.047,0.003 -0.072,0.008c0.011,-0.027 0.021,-0.049 0.028,-0.066c0.008,-0.016 0.025,-0.04 0.026,-0.058c0,-0.045 -0.099,-0.086 -0.11,-0.089c-0.012,-0.004 -0.022,-0.007 -0.033,-0.007c-0.027,0 -0.068,0.018 -0.086,0.026l0.002,0.008c0.056,0.004 0.071,0.045 0.071,0.082c0,0.033 -0.012,0.081 -0.026,0.128c-0.071,0.013 -0.113,0.018 -0.144,0.018c-0.03,0 -0.083,-0.005 -0.101,-0.026l-0.009,0.005Zm0.695,0.26c0.037,-0.006 0.067,-0.009 0.089,-0.009c0.027,0 0.044,0.004 0.072,0.01c0.007,0.002 0.013,0.003 0.019,0.003c0.02,0 0.034,-0.011 0.043,-0.027c0.009,-0.02 0.017,-0.059 0.017,-0.089c0,-0.076 -0.079,-0.14 -0.136,-0.166c-0.029,-0.014 -0.069,-0.022 -0.115,-0.022c-0.02,0 -0.041,0.002 -0.062,0.005l-0.001,0.009c0.029,0.005 0.142,0.026 0.177,0.156c0.001,0.004 0.002,0.009 0.002,0.013c0,0.036 -0.025,0.062 -0.108,0.108l0.003,0.009Z" style="fill:#fff;fill-rule:nonzero;"/></g></g><clipPath id="_clip2"><path id="SAMURAI_alone_unmasked" d="M396.333,261.405c0,108.658 -88.217,196.875 -196.875,196.875c-108.658,0 -196.875,-88.217 -196.875,-196.875c0,-108.659 88.217,-196.875 196.875,-196.875c108.658,0 196.875,88.216 196.875,196.875Z"/></clipPath><g clip-path="url(#_clip2)"><g id="layer101"><path d="M141.293,468.229l-27.285,-0.257l0.513,-2.395c0.257,-1.283 0.684,-6.158 0.941,-10.863c1.625,-25.916 6.244,-53.714 10.349,-62.439c4.448,-9.494 28.055,-33.272 40.8,-41.141c9.665,-5.902 13.172,-8.468 14.198,-10.521c0.77,-1.283 0.599,-1.454 -1.026,-1.197c-1.54,0.342 -2.395,-0.514 -4.875,-5.304c-3.764,-7.099 -6.073,-9.323 -8.81,-8.638c-1.112,0.256 -5.731,2.993 -10.35,6.072c-9.836,6.758 -15.824,9.58 -21.041,10.264c-12.659,1.54 -18.304,2.481 -24.292,4.021c-5.474,1.368 -6.928,1.454 -7.441,0.513c-0.428,-0.599 -1.967,-6.244 -3.421,-12.574c-1.454,-6.329 -3.251,-12.83 -3.935,-14.369c-1.368,-3.336 -5.731,-6.415 -8.81,-6.073c-2.822,0.342 -3.934,2.822 -5.987,13.685c-1.027,4.79 -1.967,9.665 -2.224,10.777c-0.342,1.626 -0.941,1.882 -4.191,1.882c-3.507,0 -3.849,-0.171 -3.849,-2.138c0,-1.198 0.342,-2.823 0.855,-3.678c0.428,-0.77 1.967,-6.928 3.336,-13.6c2.395,-11.205 2.48,-12.317 1.369,-15.139c-0.685,-1.625 -1.283,-4.106 -1.283,-5.474c0,-3.251 4.618,-10.436 6.757,-10.436c1.026,0 1.881,-0.769 2.224,-1.881c1.197,-3.935 14.54,-35.924 22.409,-53.715c15.225,-34.385 27.114,-56.452 33.016,-61.157c1.54,-1.197 3.165,-2.566 3.764,-2.993c1.112,-0.941 2.822,-1.112 2.822,-0.428c0,0.257 -1.71,3.421 -3.678,7.099c-14.369,25.404 -31.134,61.584 -45.161,97.166c-4.534,11.376 -5.902,15.824 -5.474,17.535c0.342,1.197 0.769,3.849 1.026,5.816c0.342,2.994 0.941,3.934 3.421,5.388c2.481,1.455 3.507,1.626 6.073,0.856c1.796,-0.428 5.132,-0.856 7.442,-0.856c5.388,0 23.778,-2.309 27.798,-3.506c5.645,-1.711 7.698,-2.652 7.698,-3.764c0,-0.684 -0.513,-1.283 -1.027,-1.539c-0.855,-0.257 -0.855,-0.685 0.172,-1.882c2.993,-3.593 17.277,-14.969 27.199,-21.555c12.06,-8.04 13.6,-10.093 9.238,-12.231c-1.454,-0.684 -2.994,-2.053 -3.507,-3.079c-0.428,-0.941 -1.283,-1.625 -1.882,-1.454c-0.513,0.171 -1.711,-0.684 -2.566,-1.967c-1.967,-3.08 -2.737,-22.325 -1.026,-28.397c1.881,-6.672 11.974,-14.712 18.475,-14.712c6.158,0 15.995,7.441 19.844,15.054c3.421,6.5 4.704,22.58 2.224,26.857c-2.053,3.593 -2.481,3.421 11.119,5.474c4.704,0.685 10.093,1.882 11.975,2.737c5.217,2.139 16.08,9.495 26.087,17.535c7.955,6.5 38.576,29.68 45.932,34.812c2.395,1.71 2.651,2.224 1.967,4.02c-0.684,1.882 -0.428,2.395 2.395,4.191c1.71,1.112 4.704,2.48 6.5,3.079c7.1,2.31 11.376,5.987 10.264,8.896c-0.256,0.769 -0.085,1.368 0.428,1.368c0.513,0 0.941,1.369 0.941,3.079c0,2.224 -0.599,3.507 -2.224,4.876c-1.283,1.026 -3.165,2.822 -4.277,3.934c-1.71,1.625 -2.224,1.796 -3.335,0.941c-0.77,-0.599 -1.283,-2.48 -1.283,-4.277c0,-3.079 -0.172,-3.335 -4.021,-4.789c-2.138,-0.856 -5.645,-2.994 -7.698,-4.79c-2.052,-1.796 -4.02,-3.251 -4.362,-3.165c-0.342,0 -4.619,4.619 -9.579,10.178c-4.961,5.56 -9.238,10.093 -9.495,10.008c-0.342,-0.086 -7.783,-7.014 -16.679,-15.311c-16.08,-14.968 -22.238,-20.357 -23.436,-20.357c-0.77,0 0.257,4.876 2.139,10.179c1.967,5.56 1.71,8.211 -1.027,10.178c-2.309,1.711 -2.395,1.711 -0.77,3.507c3.08,3.422 40.629,27.542 63.124,40.629c4.02,2.309 4.02,2.395 2.823,4.618c-2.566,4.79 -2.224,4.79 -11.205,-0.513c-4.619,-2.737 -16.337,-9.58 -26.002,-15.139c-9.666,-5.56 -17.877,-10.264 -18.305,-10.521c-0.342,-0.171 -0.513,0.342 -0.256,1.198c0.256,0.941 0.941,3.164 1.368,5.046c0.514,1.882 2.994,7.185 5.56,11.718c7.955,14.37 9.067,20.101 4.704,24.292l-2.651,2.48l0.256,29.851l0.343,29.851l-5.218,2.395c-3.935,1.797 -5.389,2.908 -5.816,4.534l-0.513,2.223l-53.886,0l0,-5.73c0,-7.271 -1.968,-11.804 -5.132,-11.804c-2.566,0 -5.902,4.704 -8.554,12.146l-1.882,5.388l-7.013,-0.171c-3.764,-0.171 -19.16,-0.342 -34.128,-0.427Z" style="fill-rule:nonzero;"/></g></g><g id="layer1011" serif:id="layer101"><path d="M298.808,427.225c-0.675,-1.519 -1.603,-5.654 -2.11,-9.114c-5.063,-36.036 -10.127,-60.088 -16.287,-77.219c-3.376,-9.452 -3.629,-10.718 -3.629,-18.989c0,-13.502 2.869,-20.507 9.283,-22.617c5.823,-1.856 8.692,-3.544 10.38,-5.907c0.929,-1.266 4.051,-8.186 6.92,-15.36c9.959,-25.233 18.651,-40.846 28.778,-51.901c6.33,-6.836 7.511,-8.777 7.511,-11.984c0,-3.882 -1.772,-5.317 -5.654,-4.473c-1.772,0.422 -4.895,0.422 -7.342,-0.084c-3.798,-0.675 -4.473,-0.591 -8.608,1.772c-2.448,1.35 -6.076,2.785 -8.102,3.038c-2.025,0.338 -4.895,1.519 -6.414,2.616c-3.038,2.279 -6.076,2.617 -9.705,1.182c-3.713,-1.435 -5.907,-1.097 -11.14,1.603c-6.076,3.207 -7.764,3.207 -12.237,-0.084c-2.109,-1.519 -4.894,-2.701 -6.667,-2.869c-12.49,-1.013 -19.579,-7.933 -14.431,-14.009l1.688,-2.026l1.941,2.363c2.532,3.038 5.57,2.954 11.14,-0.253c3.882,-2.194 5.401,-2.616 11.562,-2.785c7.173,-0.169 7.342,-0.084 12.996,4.051c0.76,0.506 2.11,0.337 4.135,-0.675c1.604,-0.76 4.473,-1.688 6.33,-1.941c3.291,-0.507 3.376,-0.507 3.376,1.941c0,1.35 -0.422,2.869 -0.929,3.375c-0.591,0.591 2.701,-0.084 7.258,-1.519c9.283,-2.7 11.731,-2.953 14.769,-1.181c2.616,1.519 5.907,1.603 5.992,0.253c0.337,-3.376 -2.026,-6.583 -6.414,-8.946c-3.967,-2.025 -13.166,-4.135 -16.541,-3.713c-1.857,0.169 -4.135,-0.253 -5.823,-1.097c-2.954,-1.519 -6.161,-1.35 -17.301,0.844c-3.207,0.675 -9.958,1.35 -14.853,1.688c-8.523,0.422 -9.283,0.337 -13.081,-1.688c-4.641,-2.447 -7.173,-5.064 -6.582,-6.751c0.759,-1.857 3.713,-2.026 7.595,-0.422c3.713,1.603 3.798,1.603 6.498,0c3.292,-2.026 4.135,-2.11 7.764,-0.338c2.617,1.181 3.545,1.181 10.634,0c9.536,-1.688 14.009,-1.688 16.794,-0.084c3.038,1.772 4.22,1.519 4.22,-0.844c0,-3.545 -3.039,-4.811 -11.984,-4.726c-5.148,0 -8.946,0.422 -10.971,1.266c-4.051,1.772 -8.608,1.687 -10.043,0c-0.928,-1.098 -0.928,-1.688 0.169,-3.545c1.266,-2.278 7.511,-5.907 10.296,-5.992c1.941,-0.084 4.81,-3.122 4.81,-5.148c0,-1.266 -0.591,-1.688 -2.447,-1.688c-1.435,0 -3.545,-0.928 -4.979,-2.109c-2.279,-1.857 -2.87,-2.026 -8.524,-1.519c-3.291,0.253 -6.329,0.928 -6.667,1.434c-0.338,0.507 -0.591,2.279 -0.591,3.882l0,2.954l-6.414,0.76c-6.245,0.675 -6.498,0.59 -13.671,-2.532c-4.051,-1.688 -7.342,-3.46 -7.342,-3.882c0,-0.338 3.291,-0.675 7.426,-0.76l7.342,0l-3.291,-1.266c-1.857,-0.675 -4.557,-2.194 -6.161,-3.375c-1.519,-1.182 -4.05,-2.617 -5.57,-3.207c-2.7,-1.182 -17.384,-4.051 -25.486,-5.148c-8.861,-1.097 -12.743,-2.701 -15.781,-6.583c-1.52,-1.941 -3.039,-3.629 -3.376,-3.798c-0.422,-0.168 -0.675,-0.928 -0.675,-1.603c0,-0.928 0.59,-1.181 2.363,-0.844c1.266,0.253 2.869,0 3.544,-0.591c2.616,-2.194 8.608,-3.882 13.925,-3.882l5.485,0l-0.506,-3.207c-0.337,-2.278 -0.084,-4.135 0.844,-5.907c1.941,-3.798 2.954,-4.051 5.148,-1.35c1.941,2.363 1.941,2.447 3.713,0.844c0.929,-0.844 1.941,-2.279 2.194,-3.123c0.676,-1.941 3.545,-2.11 7.765,-0.338c2.784,1.182 3.206,1.182 4.641,-0.168c1.435,-1.266 1.688,-1.266 3.46,0.253c1.013,0.928 2.87,2.11 4.135,2.7c2.195,0.929 2.363,0.76 3.376,-1.941c1.266,-3.628 2.363,-3.713 4.304,-0.337l1.519,2.7l1.857,-1.856c1.519,-1.351 3.038,-1.773 6.245,-1.773c3.798,0 4.557,0.338 7.089,3.039c4.135,4.304 7.089,5.57 14.262,6.245c8.693,0.759 14.853,3.544 16.879,7.595c2.531,4.895 3.46,5.401 8.523,4.22c5.486,-1.351 14.263,-0.507 17.892,1.687c3.797,2.363 4.388,2.195 5.991,-1.856l1.351,-3.629l-4.979,-4.895l-4.895,-4.979l-6.076,1.013c-7.343,1.266 -12.491,0.59 -16.373,-2.026c-1.603,-1.097 -4.135,-2.278 -5.485,-2.616c-3.207,-0.675 -4.642,-2.278 -4.22,-4.81c0.338,-2.616 2.954,-2.785 10.887,-1.013c9.874,2.194 12.068,2.363 13.418,0.76c0.929,-1.182 0.76,-1.773 -1.772,-4.304c-3.798,-3.967 -7.005,-5.57 -18.06,-8.777c-5.064,-1.519 -10.465,-3.46 -11.899,-4.304c-2.026,-1.266 -4.304,-1.604 -9.79,-1.604c-8.186,0 -8.692,-0.337 -9.367,-5.823c-0.422,-3.122 -1.097,-4.304 -4.304,-7.004c-4.726,-4.051 -7.427,-8.355 -7.089,-11.393c0.337,-3.207 1.941,-3.292 4.979,-0.338c2.025,2.026 3.544,2.701 7.173,3.123l4.557,0.59l0,-2.447c0,-1.35 -0.59,-4.557 -1.266,-7.089c-0.675,-2.532 -1.265,-4.726 -1.265,-4.81c0,-0.169 0.506,-0.254 1.097,-0.254c0.675,0 1.688,1.013 2.363,2.279c0.675,1.182 2.7,3.291 4.557,4.642l3.291,2.447l1.35,-4.895l1.435,-4.895l4.135,-0.253c3.292,-0.253 4.726,-0.844 6.752,-2.785c2.447,-2.363 2.953,-2.531 5.738,-1.772c2.701,0.76 3.123,0.675 4.558,-1.35l1.603,-2.194l5.317,1.941c4.726,1.772 5.738,1.856 8.777,0.928c1.856,-0.591 4.979,-2.11 7.004,-3.46c3.629,-2.532 5.655,-3.038 6.498,-1.688c0.338,0.422 1.519,0.422 2.954,-0.169c2.026,-0.759 2.785,-0.59 4.726,0.929c2.701,2.194 3.798,1.772 3.798,-1.351c0,-1.266 0.337,-2.7 0.675,-3.291c0.675,-1.097 4.81,-1.35 11.562,-0.675c11.646,1.266 18.397,1.35 20.76,0.422c1.351,-0.591 2.448,-1.35 2.448,-1.772c0,-1.013 3.122,-0.929 3.797,0.084c0.253,0.422 1.941,0.844 3.629,0.844c1.688,0 4.473,0.844 6.076,1.857c2.279,1.35 4.136,1.772 8.102,1.603c5.57,-0.169 6.92,0.506 9.199,4.979c1.266,2.448 1.266,2.448 3.798,1.013l2.616,-1.435l2.869,3.123c4.135,4.472 4.389,6.329 1.435,12.152c-2.87,5.655 -7.089,10.296 -10.043,10.971c-1.097,0.338 -5.401,-0.084 -9.536,-0.928c-7.258,-1.435 -7.596,-1.435 -12.828,0.253c-2.954,0.928 -6.329,1.941 -7.595,2.194c-1.266,0.338 -3.629,1.688 -5.233,3.038c-2.109,1.941 -3.628,2.532 -6.245,2.532c-5.063,0 -6.076,0.675 -6.076,3.798c0,3.207 1.857,4.81 8.439,7.595c2.11,0.844 5.401,2.532 7.427,3.629c1.941,1.097 5.739,2.701 8.439,3.46c3.545,1.097 5.232,2.11 6.583,4.051l1.772,2.701l3.122,-2.11c1.688,-1.182 3.039,-2.448 3.039,-2.954c0,-0.844 -4.304,-2.954 -7.764,-3.629c-3.039,-0.675 -7.427,-4.473 -7.427,-6.498c0,-0.928 1.519,-3.545 3.376,-5.908c1.856,-2.363 3.375,-4.641 3.375,-5.063c0,-0.422 1.182,-0.76 2.532,-0.76c2.448,0 2.532,0.169 2.532,3.882l0,3.882l4.304,-3.628c4.557,-3.798 5.148,-3.714 6.329,0.675l0.507,1.941l2.11,-1.688c2.025,-1.519 3.46,-1.688 18.06,-1.688c17.891,0 23.292,0.844 26.414,3.966c1.351,1.351 4.051,2.617 7.005,3.292c4.22,1.013 5.401,1.013 8.777,-0.085c3.122,-1.097 4.388,-1.097 6.329,-0.337c1.351,0.591 4.557,0.928 7.174,0.844c4.641,-0.085 4.81,0 6.582,2.869c1.013,1.688 1.772,4.473 1.772,6.33c0,3.038 -0.253,3.46 -3.544,5.147c-10.043,5.148 -15.275,6.667 -22.702,6.667c-7.004,0 -7.257,0.085 -10.717,2.954c-7.427,6.414 -14.769,7.596 -26.331,4.304c-7.595,-2.194 -7.933,-2.278 -11.309,-0.844c-2.363,0.929 -5.823,1.435 -11.055,1.435c-7.511,-0.084 -7.511,-0.084 -5.57,1.519c1.097,0.928 3.207,1.604 4.811,1.604c1.519,0 5.823,0.59 9.367,1.265c19.579,3.714 17.723,3.629 24.221,1.435c3.291,-1.013 6.414,-1.772 7.089,-1.688c0.59,0.169 -0.844,2.11 -3.46,4.726l-4.473,4.389l-8.017,-1.182c-4.304,-0.675 -10.803,-1.688 -14.263,-2.278c-8.523,-1.266 -13.925,-1.013 -17.807,1.012c-1.772,0.844 -4.641,1.604 -6.245,1.604c-2.109,0 -2.953,0.337 -2.7,1.097c0.169,0.506 1.266,0.928 2.363,0.759c1.097,-0.084 7.511,-0.506 14.262,-0.928c16.203,-1.013 19.073,-0.338 22.364,5.654c0.085,0.085 2.11,-0.59 4.557,-1.603c4.726,-2.026 5.739,-1.857 4.304,0.844c-1.012,2.025 -0.506,2.194 3.376,0.844c2.194,-0.76 2.869,-0.76 3.46,0.168c1.266,1.942 0.844,4.642 -0.928,6.246c-1.604,1.434 -2.701,1.519 -21.436,0.421c-24.896,-1.434 -25.824,-1.265 -31.731,4.22c-2.532,2.279 -4.811,4.22 -5.148,4.22c-0.338,0 -2.363,1.519 -4.642,3.375c-2.869,2.363 -5.401,3.629 -8.608,4.304c-2.532,0.507 -6.329,1.857 -8.439,2.954c-3.038,1.604 -5.064,2.026 -10.381,2.026l-6.667,0l0,4.219c0,4.642 0,4.557 4.136,3.376c1.603,-0.422 5.907,-1.182 9.62,-1.688c4.895,-0.675 7.511,-1.519 9.452,-3.038c3.207,-2.447 4.304,-2.532 5.064,-0.506c0.506,1.265 0.759,1.097 1.772,-0.844c1.435,-2.785 3.629,-4.051 6.92,-4.051c1.351,0 3.967,-0.591 5.739,-1.35c2.447,-1.013 4.557,-1.182 8.608,-0.76c2.869,0.338 5.232,0.844 5.064,1.182c-0.169,0.337 -1.941,2.109 -4.051,4.05c-2.785,2.532 -5.064,3.714 -8.608,4.558c-2.616,0.59 -4.642,1.35 -4.389,1.687c0.844,1.351 6.499,1.604 11.056,0.422c6.498,-1.603 24.896,-2.194 25.318,-0.759c0.253,0.591 -1.013,1.603 -2.617,2.278c-1.688,0.676 -5.232,2.785 -7.848,4.726c-2.616,1.857 -5.486,3.376 -6.414,3.376c-0.928,0 -4.051,-0.928 -6.836,-2.025c-2.869,-1.097 -7.511,-2.195 -10.464,-2.448l-5.317,-0.422l0.591,3.882l0.59,3.967l-4.219,-3.967c-5.739,-5.316 -9.199,-5.823 -18.398,-2.7c-3.713,1.181 -6.92,2.363 -7.089,2.532c-0.169,0.168 0.76,1.519 2.026,3.038c3.122,3.713 5.485,8.861 5.485,12.321c0,1.519 -1.266,5.317 -2.869,8.439c-2.616,5.317 -10.043,21.689 -21.014,46.585c-2.532,5.823 -6.076,14.178 -7.764,18.566c-3.291,8.271 -8.017,18.06 -9.874,20.255c-0.591,0.759 -5.148,4.81 -10.127,9.114c-4.979,4.304 -9.79,8.861 -10.802,10.043c-3.376,4.304 -3.123,5.485 3.291,16.625c8.102,14.178 10.633,19.495 12.237,25.402c1.435,5.739 9.705,49.623 9.789,52.07c0,1.351 -21.942,17.469 -25.739,18.904c-0.844,0.338 -1.688,-0.337 -2.448,-2.363Zm39.074,-237.565c-2.363,-8.101 -2.869,-10.886 -5.064,-24.727l-1.856,-12.237l-3.46,3.123c-5.992,5.485 -18.482,10.802 -28.778,12.068c-4.557,0.591 -4.81,0.76 -2.954,1.519c5.401,2.11 9.705,4.642 12.912,7.427c1.941,1.687 8.693,5.992 14.938,9.62c6.245,3.629 12.152,7.089 13.081,7.68c2.784,1.941 2.869,1.435 1.181,-4.473Zm22.111,-60.509c12.068,-4.051 13.925,-4.22 22.195,-1.772c4.135,1.181 8.017,2.109 8.608,2.109c0.675,0 -1.772,-2.616 -5.317,-5.823c-3.628,-3.207 -7.511,-6.835 -8.692,-8.101c-7.089,-7.849 -12.406,-9.03 -19.663,-4.304c-5.148,3.207 -5.992,5.316 -7.765,17.638l-1.012,7.426l2.616,-2.447c1.519,-1.435 5.317,-3.46 9.03,-4.726Zm-21.014,-20.339l0.506,-3.46l-5.907,-2.785c-4.979,-2.363 -6.245,-2.616 -8.017,-1.856c-2.448,1.097 -7.342,1.181 -14.178,0.168c-13.925,-2.109 -13.587,-2.363 -3.46,3.292c4.979,2.785 10.718,6.245 12.659,7.595c1.856,1.435 6.329,4.642 9.789,7.089l6.33,4.642l0.928,-5.655c0.506,-3.122 1.181,-7.173 1.35,-9.03Zm107.854,12.322l2.616,-1.519l-4.473,-0.591c-10.549,-1.351 -14.009,-1.519 -14.515,-0.675c-0.591,1.012 8.017,4.219 11.477,4.304c1.266,0.084 3.46,-0.591 4.895,-1.519Zm-94.52,-23.377c0,-0.085 -0.422,-1.266 -1.013,-2.448c-0.928,-2.025 -1.35,-2.194 -4.81,-1.772c-2.11,0.253 -6.076,0.76 -8.861,1.013c-4.135,0.506 -4.726,0.675 -3.376,1.519c3.123,1.857 18.06,3.291 18.06,1.688Z" style="fill-rule:nonzero;"/></g><defs><linearGradient id="_Linear1" x1="0" y1="0" x2="1" y2="0" gradientUnits="userSpaceOnUse" gradientTransform="matrix(2.39392e-14,393.75,-393.75,2.4053e-14,199.458,64.5297)"><stop offset="0" style="stop-color:#fc1503;stop-opacity:1"/><stop offset="0.54" style="stop-color:#fb8402;stop-opacity:1"/><stop offset="1" style="stop-color:#fab001;stop-opacity:1"/></linearGradient></defs></svg>