<svg xmlns="http://www.w3.org/2000/svg" xml:space="preserve" style="fill-rule:evenodd;clip-rule:evenodd;stroke-linecap:round;stroke-linejoin:round;stroke-miterlimit:1.5" viewBox="0 0 500 500"><path d="M0 0h500v500H0z" style="fill:none"/><path d="M396.333 261.405c0 108.658-88.217 196.875-196.875 196.875S2.583 370.063 2.583 261.405C2.583 152.746 90.8 64.53 199.458 64.53s196.875 88.216 196.875 196.875" style="fill:url(#a);stroke:#000;stroke-width:2.18px"/><circle cx="235.595" cy="261.405" r="93.75" style="fill:#fc0404"/><path d="M.095-.688a.3.3 0 0 0 .029.075c.011.016.071.09.111.09.02 0 .105-.035.122-.041.08-.024.255-.056.336-.056.013 0 .025 0 .025.01 0 .016-.049.079-.131.144-.05-.05-.068-.06-.097-.06a.4.4 0 0 0-.091.021l.002.01c.036.006.045.034.045.063a.78.78 0 0 1-.281.498l.006.008C.305.028.448-.062.575-.332A.3.3 0 0 1 .61-.389q.01-.014.011-.025 0-.013-.014-.028a3 3 0 0 0 .196-.072c.031-.012.043-.014.071-.02.048-.01.051-.036.051-.044 0-.035-.085-.114-.138-.139L.763-.722a.1.1 0 0 0-.03.006l-.048.017a.3.3 0 0 1-.079.017c-.071.008-.3.025-.389.025-.051 0-.095-.014-.113-.035z" style="fill:#fff;fill-rule:nonzero" transform="translate(76.22 137.453)scale(33.3334)"/><path d="M.651-.73c.05.032.098.097.119.125.015.021.022.03.042.03.029 0 .042-.031.042-.053Q.855-.646.835-.67a.14.14 0 0 1-.031-.074c0-.01.007-.013.012-.013a.07.07 0 0 1 .039.02c.019.018.034.041.048.06s.021.024.035.024c.029 0 .04-.031.04-.052 0-.054-.121-.092-.148-.092-.033 0-.042.017-.042.031l.002.02c0 .012 0 .041-.017.041-.006 0-.098-.031-.117-.036zm-.44.04c.029.022.066.051.091.075q.042.042.076.079a.05.05 0 0 0 .041.018c.058 0 .06-.055.06-.078q0-.038-.036-.059a.4.4 0 0 0-.181-.046l-.049.002zm.7.157c-.142.15-.458.37-.597.419a.2.2 0 0 1-.058.011c-.005 0-.063 0-.086-.045l-.01.003c.008.083.016.11.044.134.025.024.084.064.124.064A.07.07 0 0 0 .38.03a.4.4 0 0 1 .058-.047c.107-.074.214-.165.297-.246a.9.9 0 0 0 .184-.264zm-.824.079c.032.02.068.046.094.068.032.028.056.054.08.076a.06.06 0 0 0 .04.016c.055 0 .058-.047.058-.077 0-.052-.051-.079-.161-.096a.4.4 0 0 0-.11.003z" style="fill:#fff;fill-rule:nonzero" transform="translate(76.22 170.787)scale(33.3334)"/><path d="M.095-.688a.3.3 0 0 0 .029.075c.011.016.071.09.111.09.02 0 .105-.035.122-.041.08-.024.255-.056.336-.056.013 0 .025 0 .025.01 0 .016-.049.079-.131.144-.05-.05-.068-.06-.097-.06a.4.4 0 0 0-.091.021l.002.01c.036.006.045.034.045.063a.78.78 0 0 1-.281.498l.006.008C.305.028.448-.062.575-.332A.3.3 0 0 1 .61-.389q.01-.014.011-.025 0-.013-.014-.028a3 3 0 0 0 .196-.072c.031-.012.043-.014.071-.02.048-.01.051-.036.051-.044 0-.035-.085-.114-.138-.139L.763-.722a.1.1 0 0 0-.03.006l-.048.017a.3.3 0 0 1-.079.017c-.071.008-.3.025-.389.025-.051 0-.095-.014-.113-.035z" style="fill:#fff;fill-rule:nonzero" transform="translate(76.22 204.12)scale(33.3334)"/><path d="M.54.058C.837.051.962-.166.962-.345c0-.23-.193-.382-.437-.382-.288 0-.477.201-.477.356a.3.3 0 0 0 .028.119c.019.042.033.075.046.114.011.031.018.063.033.092a.07.07 0 0 0 .062.037c.084 0 .159-.108.239-.269.031-.063.101-.202.101-.247 0-.042-.049-.095-.073-.116a.14.14 0 0 0-.06-.031.3.3 0 0 1 .098-.016c.183 0 .274.151.275.325 0 .219-.123.364-.259.411zM.417-.534C.39-.391.285-.195.221-.195c-.042 0-.066-.077-.066-.139 0-.129.11-.269.236-.325q.033.033.031.081a.2.2 0 0 1-.005.044" style="fill:#fff;fill-rule:nonzero" transform="translate(76.22 270.787)scale(33.3334)"/><path d="M.368-.655A2 2 0 0 1 .543-.69C.58-.696.614-.696.641-.701c.023-.004.034-.021.034-.037 0-.03-.065-.078-.111-.078l-.09.004C.383-.812.33-.829.31-.845l-.008.006a.19.19 0 0 0 .129.109q.007.003.007.008c0 .009-.039.035-.075.058zm-.162.088c-.004.008-.024.044-.024.065 0 .042.073.105.111.105q.015 0 .028-.008c.041-.022.09-.059.133-.086A.2.2 0 0 1 .543-.53q.013 0 .014.013c0 .024-.075.095-.161.176-.039.037-.103.101-.154.146-.103.091-.109.114-.109.146 0 .033.01.057.015.069q.013.034.056.034C.23.054.247.042.256.026c.019-.032.033-.06.053-.092.01-.017.076-.115.125-.135a.1.1 0 0 1 .03-.006c.026 0 .047.013.054.038.01.037.01.068.016.108.014.099.082.135.201.135.056 0 .116-.01.152-.03a.06.06 0 0 0 .029-.051.04.04 0 0 0-.012-.032.2.2 0 0 0-.095-.042q-.01 0-.022.004a.2.2 0 0 1-.063.012c-.041 0-.062-.01-.074-.04C.642-.126.632-.174.626-.197.621-.219.608-.271.529-.271a.3.3 0 0 0-.071.013l-.007.001q-.009 0-.008-.005c0-.017.108-.106.18-.156A1 1 0 0 1 .717-.47q.03-.016.03-.043a.05.05 0 0 0-.021-.04.3.3 0 0 0-.134-.063.05.05 0 0 0-.03.009C.526-.587.51-.578.46-.564a1 1 0 0 1-.183.032Q.226-.531.216-.566z" style="fill:#fff;fill-rule:nonzero" transform="translate(76.22 337.454)scale(33.3334)"/><path d="M.443-.33C.397-.263.351-.2.325-.175q-.007.008-.017.008c-.024 0-.091-.062-.091-.218a.7.7 0 0 1 .017-.152l.003-.026c0-.019-.007-.032-.026-.048a.3.3 0 0 0-.168-.074l-.005.008c.04.055.043.087.045.112.014.157.034.364.111.488a.2.2 0 0 0 .157.085C.39.008.413-.015.413-.05L.411-.09c0-.05.005-.081.041-.235zm.16-.22a.2.2 0 0 1 .141.094.4.4 0 0 1 .049.157c0 .02-.007.031-.021.043a.4.4 0 0 1-.093.055l.002.009c.091.003.108.003.158.025a.1.1 0 0 0 .036.009c.058 0 .07-.101.07-.131a.33.33 0 0 0-.129-.23.25.25 0 0 0-.152-.045.4.4 0 0 0-.059.004z" style="fill:#fff;fill-rule:nonzero" transform="translate(76.22 370.786)scale(33.3334)"/><path d="M.679-.68c.067.024.142.081.163.096q.014.01.026.01c.035 0 .038-.03.038-.051 0-.022-.01-.035-.033-.049C.839-.694.81-.728.81-.742c0-.003.002-.012.014-.012.035 0 .093.044.106.054q.016.011.027.011C.989-.689.99-.72.99-.732.99-.749.987-.767.963-.78A.2.2 0 0 0 .861-.8C.84-.8.788-.797.788-.761c0 .01.006.016.009.027a.1.1 0 0 1 .007.036q.001.01-.011.011L.681-.69zm-.651.178c.009.026.017.055.032.075.012.016.056.068.086.068.021 0 .056-.02.106-.048q-.034.096-.084.185C.142-.177.12-.147.097-.11a.1.1 0 0 0-.017.055c0 .016.007.046.013.066.01.03.03.034.047.034C.169.045.186.029.2.004c.053-.089.12-.289.163-.406l.023-.063a.2.2 0 0 1 .06-.012c.078 0 .078.066.078.108 0 .067-.028.287-.129.287A1 1 0 0 1 .269-.1l-.003.009c.05.028.083.071.103.11q.017.03.053.029c.005 0 .11-.001.163-.119a.8.8 0 0 0 .06-.284c0-.069-.018-.121-.081-.156a.16.16 0 0 0-.082-.02.4.4 0 0 0-.072.008l.028-.066c.008-.016.025-.04.026-.058 0-.045-.099-.086-.11-.089a.1.1 0 0 0-.033-.007.3.3 0 0 0-.086.026l.002.008c.056.004.071.045.071.082a.5.5 0 0 1-.026.128 1 1 0 0 1-.144.018c-.03 0-.083-.005-.101-.026zm.695.26a1 1 0 0 1 .089-.009c.027 0 .044.004.072.01l.019.003q.03-.002.043-.027a.3.3 0 0 0 .017-.089c0-.076-.079-.14-.136-.166a.3.3 0 0 0-.115-.022.4.4 0 0 0-.062.005l-.001.009a.21.21 0 0 1 .179.169c0 .036-.025.062-.108.108z" style="fill:#fff;fill-rule:nonzero" transform="translate(76.22 404.12)scale(33.3334)"/><clipPath id="b"><path d="M396.333 261.405c0 108.658-88.217 196.875-196.875 196.875S2.583 370.063 2.583 261.405C2.583 152.746 90.8 64.53 199.458 64.53s196.875 88.216 196.875 196.875"/></clipPath><g clip-path="url(#b)"><path d="m141.293 468.229-27.285-.257.513-2.395c.257-1.283.684-6.158.941-10.863 1.625-25.916 6.244-53.714 10.349-62.439 4.448-9.494 28.055-33.272 40.8-41.141 9.665-5.902 13.172-8.468 14.198-10.521.77-1.283.599-1.454-1.026-1.197-1.54.342-2.395-.514-4.875-5.304-3.764-7.099-6.073-9.323-8.81-8.638-1.112.256-5.731 2.993-10.35 6.072-9.836 6.758-15.824 9.58-21.041 10.264-12.659 1.54-18.304 2.481-24.292 4.021-5.474 1.368-6.928 1.454-7.441.513-.428-.599-1.967-6.244-3.421-12.574-1.454-6.329-3.251-12.83-3.935-14.369-1.368-3.336-5.731-6.415-8.81-6.073-2.822.342-3.934 2.822-5.987 13.685-1.027 4.79-1.967 9.665-2.224 10.777-.342 1.626-.941 1.882-4.191 1.882-3.507 0-3.849-.171-3.849-2.138 0-1.198.342-2.823.855-3.678.428-.77 1.967-6.928 3.336-13.6 2.395-11.205 2.48-12.317 1.369-15.139-.685-1.625-1.283-4.106-1.283-5.474 0-3.251 4.618-10.436 6.757-10.436 1.026 0 1.881-.769 2.224-1.881 1.197-3.935 14.54-35.924 22.409-53.715 15.225-34.385 27.114-56.452 33.016-61.157 1.54-1.197 3.165-2.566 3.764-2.993 1.112-.941 2.822-1.112 2.822-.428 0 .257-1.71 3.421-3.678 7.099-14.369 25.404-31.134 61.584-45.161 97.166-4.534 11.376-5.902 15.824-5.474 17.535.342 1.197.769 3.849 1.026 5.816.342 2.994.941 3.934 3.421 5.388 2.481 1.455 3.507 1.626 6.073.856 1.796-.428 5.132-.856 7.442-.856 5.388 0 23.778-2.309 27.798-3.506 5.645-1.711 7.698-2.652 7.698-3.764 0-.684-.513-1.283-1.027-1.539-.855-.257-.855-.685.172-1.882 2.993-3.593 17.277-14.969 27.199-21.555 12.06-8.04 13.6-10.093 9.238-12.231-1.454-.684-2.994-2.053-3.507-3.079-.428-.941-1.283-1.625-1.882-1.454-.513.171-1.711-.684-2.566-1.967-1.967-3.08-2.737-22.325-1.026-28.397 1.881-6.672 11.974-14.712 18.475-14.712 6.158 0 15.995 7.441 19.844 15.054 3.421 6.5 4.704 22.58 2.224 26.857-2.053 3.593-2.481 3.421 11.119 5.474 4.704.685 10.093 1.882 11.975 2.737 5.217 2.139 16.08 9.495 26.087 17.535 7.955 6.5 38.576 29.68 45.932 34.812 2.395 1.71 2.651 2.224 1.967 4.02-.684 1.882-.428 2.395 2.395 4.191 1.71 1.112 4.704 2.48 6.5 3.079 7.1 2.31 11.376 5.987 10.264 8.896-.256.769-.085 1.368.428 1.368s.941 1.369.941 3.079c0 2.224-.599 3.507-2.224 4.876-1.283 1.026-3.165 2.822-4.277 3.934-1.71 1.625-2.224 1.796-3.335.941-.77-.599-1.283-2.48-1.283-4.277 0-3.079-.172-3.335-4.021-4.789-2.138-.856-5.645-2.994-7.698-4.79-2.052-1.796-4.02-3.251-4.362-3.165-.342 0-4.619 4.619-9.579 10.178s-9.238 10.093-9.495 10.008c-.342-.086-7.783-7.014-16.679-15.311-16.08-14.968-22.238-20.357-23.436-20.357-.77 0 .257 4.876 2.139 10.179 1.967 5.56 1.71 8.211-1.027 10.178-2.309 1.711-2.395 1.711-.77 3.507 3.08 3.422 40.629 27.542 63.124 40.629 4.02 2.309 4.02 2.395 2.823 4.618-2.566 4.79-2.224 4.79-11.205-.513-4.619-2.737-16.337-9.58-26.002-15.139-9.666-5.56-17.877-10.264-18.305-10.521-.342-.171-.513.342-.256 1.198.256.941.941 3.164 1.368 5.046.514 1.882 2.994 7.185 5.56 11.718 7.955 14.37 9.067 20.101 4.704 24.292l-2.651 2.48.256 29.851.343 29.851-5.218 2.395c-3.935 1.797-5.389 2.908-5.816 4.534l-.513 2.223h-53.886v-5.73c0-7.271-1.968-11.804-5.132-11.804-2.566 0-5.902 4.704-8.554 12.146l-1.882 5.388-7.013-.171c-3.764-.171-19.16-.342-34.128-.427" style="fill-rule:nonzero"/></g><path d="M298.808 427.225c-.675-1.519-1.603-5.654-2.11-9.114-5.063-36.036-10.127-60.088-16.287-77.219-3.376-9.452-3.629-10.718-3.629-18.989 0-13.502 2.869-20.507 9.283-22.617 5.823-1.856 8.692-3.544 10.38-5.907.929-1.266 4.051-8.186 6.92-15.36 9.959-25.233 18.651-40.846 28.778-51.901 6.33-6.836 7.511-8.777 7.511-11.984 0-3.882-1.772-5.317-5.654-4.473-1.772.422-4.895.422-7.342-.084-3.798-.675-4.473-.591-8.608 1.772-2.448 1.35-6.076 2.785-8.102 3.038-2.025.338-4.895 1.519-6.414 2.616-3.038 2.279-6.076 2.617-9.705 1.182-3.713-1.435-5.907-1.097-11.14 1.603-6.076 3.207-7.764 3.207-12.237-.084-2.109-1.519-4.894-2.701-6.667-2.869-12.49-1.013-19.579-7.933-14.431-14.009l1.688-2.026 1.941 2.363c2.532 3.038 5.57 2.954 11.14-.253 3.882-2.194 5.401-2.616 11.562-2.785 7.173-.169 7.342-.084 12.996 4.051.76.506 2.11.337 4.135-.675 1.604-.76 4.473-1.688 6.33-1.941 3.291-.507 3.376-.507 3.376 1.941 0 1.35-.422 2.869-.929 3.375-.591.591 2.701-.084 7.258-1.519 9.283-2.7 11.731-2.953 14.769-1.181 2.616 1.519 5.907 1.603 5.992.253.337-3.376-2.026-6.583-6.414-8.946-3.967-2.025-13.166-4.135-16.541-3.713-1.857.169-4.135-.253-5.823-1.097-2.954-1.519-6.161-1.35-17.301.844-3.207.675-9.958 1.35-14.853 1.688-8.523.422-9.283.337-13.081-1.688-4.641-2.447-7.173-5.064-6.582-6.751.759-1.857 3.713-2.026 7.595-.422 3.713 1.603 3.798 1.603 6.498 0 3.292-2.026 4.135-2.11 7.764-.338 2.617 1.181 3.545 1.181 10.634 0 9.536-1.688 14.009-1.688 16.794-.084 3.038 1.772 4.22 1.519 4.22-.844 0-3.545-3.039-4.811-11.984-4.726-5.148 0-8.946.422-10.971 1.266-4.051 1.772-8.608 1.687-10.043 0-.928-1.098-.928-1.688.169-3.545 1.266-2.278 7.511-5.907 10.296-5.992 1.941-.084 4.81-3.122 4.81-5.148 0-1.266-.591-1.688-2.447-1.688-1.435 0-3.545-.928-4.979-2.109-2.279-1.857-2.87-2.026-8.524-1.519-3.291.253-6.329.928-6.667 1.434-.338.507-.591 2.279-.591 3.882v2.954l-6.414.76c-6.245.675-6.498.59-13.671-2.532-4.051-1.688-7.342-3.46-7.342-3.882 0-.338 3.291-.675 7.426-.76h7.342l-3.291-1.266c-1.857-.675-4.557-2.194-6.161-3.375-1.519-1.182-4.05-2.617-5.57-3.207-2.7-1.182-17.384-4.051-25.486-5.148-8.861-1.097-12.743-2.701-15.781-6.583-1.52-1.941-3.039-3.629-3.376-3.798-.422-.168-.675-.928-.675-1.603 0-.928.59-1.181 2.363-.844 1.266.253 2.869 0 3.544-.591 2.616-2.194 8.608-3.882 13.925-3.882h5.485l-.506-3.207c-.337-2.278-.084-4.135.844-5.907 1.941-3.798 2.954-4.051 5.148-1.35 1.941 2.363 1.941 2.447 3.713.844.929-.844 1.941-2.279 2.194-3.123.676-1.941 3.545-2.11 7.765-.338 2.784 1.182 3.206 1.182 4.641-.168 1.435-1.266 1.688-1.266 3.46.253 1.013.928 2.87 2.11 4.135 2.7 2.195.929 2.363.76 3.376-1.941 1.266-3.628 2.363-3.713 4.304-.337l1.519 2.7 1.857-1.856c1.519-1.351 3.038-1.773 6.245-1.773 3.798 0 4.557.338 7.089 3.039 4.135 4.304 7.089 5.57 14.262 6.245 8.693.759 14.853 3.544 16.879 7.595 2.531 4.895 3.46 5.401 8.523 4.22 5.486-1.351 14.263-.507 17.892 1.687 3.797 2.363 4.388 2.195 5.991-1.856l1.351-3.629-4.979-4.895-4.895-4.979-6.076 1.013c-7.343 1.266-12.491.59-16.373-2.026-1.603-1.097-4.135-2.278-5.485-2.616-3.207-.675-4.642-2.278-4.22-4.81.338-2.616 2.954-2.785 10.887-1.013 9.874 2.194 12.068 2.363 13.418.76.929-1.182.76-1.773-1.772-4.304-3.798-3.967-7.005-5.57-18.06-8.777-5.064-1.519-10.465-3.46-11.899-4.304-2.026-1.266-4.304-1.604-9.79-1.604-8.186 0-8.692-.337-9.367-5.823-.422-3.122-1.097-4.304-4.304-7.004-4.726-4.051-7.427-8.355-7.089-11.393.337-3.207 1.941-3.292 4.979-.338 2.025 2.026 3.544 2.701 7.173 3.123l4.557.59v-2.447c0-1.35-.59-4.557-1.266-7.089-.675-2.532-1.265-4.726-1.265-4.81 0-.169.506-.254 1.097-.254.675 0 1.688 1.013 2.363 2.279.675 1.182 2.7 3.291 4.557 4.642l3.291 2.447 1.35-4.895 1.435-4.895 4.135-.253c3.292-.253 4.726-.844 6.752-2.785 2.447-2.363 2.953-2.531 5.738-1.772 2.701.76 3.123.675 4.558-1.35l1.603-2.194 5.317 1.941c4.726 1.772 5.738 1.856 8.777.928 1.856-.591 4.979-2.11 7.004-3.46 3.629-2.532 5.655-3.038 6.498-1.688.338.422 1.519.422 2.954-.169 2.026-.759 2.785-.59 4.726.929 2.701 2.194 3.798 1.772 3.798-1.351 0-1.266.337-2.7.675-3.291.675-1.097 4.81-1.35 11.562-.675 11.646 1.266 18.397 1.35 20.76.422 1.351-.591 2.448-1.35 2.448-1.772 0-1.013 3.122-.929 3.797.084.253.422 1.941.844 3.629.844s4.473.844 6.076 1.857c2.279 1.35 4.136 1.772 8.102 1.603 5.57-.169 6.92.506 9.199 4.979 1.266 2.448 1.266 2.448 3.798 1.013l2.616-1.435 2.869 3.123c4.135 4.472 4.389 6.329 1.435 12.152-2.87 5.655-7.089 10.296-10.043 10.971-1.097.338-5.401-.084-9.536-.928-7.258-1.435-7.596-1.435-12.828.253-2.954.928-6.329 1.941-7.595 2.194-1.266.338-3.629 1.688-5.233 3.038-2.109 1.941-3.628 2.532-6.245 2.532-5.063 0-6.076.675-6.076 3.798 0 3.207 1.857 4.81 8.439 7.595 2.11.844 5.401 2.532 7.427 3.629 1.941 1.097 5.739 2.701 8.439 3.46 3.545 1.097 5.232 2.11 6.583 4.051l1.772 2.701 3.122-2.11c1.688-1.182 3.039-2.448 3.039-2.954 0-.844-4.304-2.954-7.764-3.629-3.039-.675-7.427-4.473-7.427-6.498 0-.928 1.519-3.545 3.376-5.908s3.375-4.641 3.375-5.063 1.182-.76 2.532-.76c2.448 0 2.532.169 2.532 3.882v3.882l4.304-3.628c4.557-3.798 5.148-3.714 6.329.675l.507 1.941 2.11-1.688c2.025-1.519 3.46-1.688 18.06-1.688 17.891 0 23.292.844 26.414 3.966 1.351 1.351 4.051 2.617 7.005 3.292 4.22 1.013 5.401 1.013 8.777-.085 3.122-1.097 4.388-1.097 6.329-.337 1.351.591 4.557.928 7.174.844 4.641-.085 4.81 0 6.582 2.869 1.013 1.688 1.772 4.473 1.772 6.33 0 3.038-.253 3.46-3.544 5.147-10.043 5.148-15.275 6.667-22.702 6.667-7.004 0-7.257.085-10.717 2.954-7.427 6.414-14.769 7.596-26.331 4.304-7.595-2.194-7.933-2.278-11.309-.844-2.363.929-5.823 1.435-11.055 1.435-7.511-.084-7.511-.084-5.57 1.519 1.097.928 3.207 1.604 4.811 1.604 1.519 0 5.823.59 9.367 1.265 19.579 3.714 17.723 3.629 24.221 1.435 3.291-1.013 6.414-1.772 7.089-1.688.59.169-.844 2.11-3.46 4.726l-4.473 4.389-8.017-1.182c-4.304-.675-10.803-1.688-14.263-2.278-8.523-1.266-13.925-1.013-17.807 1.012-1.772.844-4.641 1.604-6.245 1.604-2.109 0-2.953.337-2.7 1.097.169.506 1.266.928 2.363.759 1.097-.084 7.511-.506 14.262-.928 16.203-1.013 19.073-.338 22.364 5.654.085.085 2.11-.59 4.557-1.603 4.726-2.026 5.739-1.857 4.304.844-1.012 2.025-.506 2.194 3.376.844 2.194-.76 2.869-.76 3.46.168 1.266 1.942.844 4.642-.928 6.246-1.604 1.434-2.701 1.519-21.436.421-24.896-1.434-25.824-1.265-31.731 4.22-2.532 2.279-4.811 4.22-5.148 4.22-.338 0-2.363 1.519-4.642 3.375-2.869 2.363-5.401 3.629-8.608 4.304-2.532.507-6.329 1.857-8.439 2.954-3.038 1.604-5.064 2.026-10.381 2.026h-6.667v4.219c0 4.642 0 4.557 4.136 3.376 1.603-.422 5.907-1.182 9.62-1.688 4.895-.675 7.511-1.519 9.452-3.038 3.207-2.447 4.304-2.532 5.064-.506.506 1.265.759 1.097 1.772-.844 1.435-2.785 3.629-4.051 6.92-4.051 1.351 0 3.967-.591 5.739-1.35 2.447-1.013 4.557-1.182 8.608-.76 2.869.338 5.232.844 5.064 1.182s-1.941 2.109-4.051 4.05c-2.785 2.532-5.064 3.714-8.608 4.558-2.616.59-4.642 1.35-4.389 1.687.844 1.351 6.499 1.604 11.056.422 6.498-1.603 24.896-2.194 25.318-.759.253.591-1.013 1.603-2.617 2.278-1.688.676-5.232 2.785-7.848 4.726-2.616 1.857-5.486 3.376-6.414 3.376s-4.051-.928-6.836-2.025c-2.869-1.097-7.511-2.195-10.464-2.448l-5.317-.422.591 3.882.59 3.967-4.219-3.967c-5.739-5.316-9.199-5.823-18.398-2.7-3.713 1.181-6.92 2.363-7.089 2.532-.169.168.76 1.519 2.026 3.038 3.122 3.713 5.485 8.861 5.485 12.321 0 1.519-1.266 5.317-2.869 8.439-2.616 5.317-10.043 21.689-21.014 46.585-2.532 5.823-6.076 14.178-7.764 18.566-3.291 8.271-8.017 18.06-9.874 20.255-.591.759-5.148 4.81-10.127 9.114s-9.79 8.861-10.802 10.043c-3.376 4.304-3.123 5.485 3.291 16.625 8.102 14.178 10.633 19.495 12.237 25.402 1.435 5.739 9.705 49.623 9.789 52.07 0 1.351-21.942 17.469-25.739 18.904-.844.338-1.688-.337-2.448-2.363m39.074-237.565c-2.363-8.101-2.869-10.886-5.064-24.727l-1.856-12.237-3.46 3.123c-5.992 5.485-18.482 10.802-28.778 12.068-4.557.591-4.81.76-2.954 1.519 5.401 2.11 9.705 4.642 12.912 7.427 1.941 1.687 8.693 5.992 14.938 9.62 6.245 3.629 12.152 7.089 13.081 7.68 2.784 1.941 2.869 1.435 1.181-4.473m22.111-60.509c12.068-4.051 13.925-4.22 22.195-1.772 4.135 1.181 8.017 2.109 8.608 2.109.675 0-1.772-2.616-5.317-5.823-3.628-3.207-7.511-6.835-8.692-8.101-7.089-7.849-12.406-9.03-19.663-4.304-5.148 3.207-5.992 5.316-7.765 17.638l-1.012 7.426 2.616-2.447c1.519-1.435 5.317-3.46 9.03-4.726m-21.014-20.339.506-3.46-5.907-2.785c-4.979-2.363-6.245-2.616-8.017-1.856-2.448 1.097-7.342 1.181-14.178.168-13.925-2.109-13.587-2.363-3.46 3.292 4.979 2.785 10.718 6.245 12.659 7.595 1.856 1.435 6.329 4.642 9.789 7.089l6.33 4.642.928-5.655c.506-3.122 1.181-7.173 1.35-9.03m107.854 12.322 2.616-1.519-4.473-.591c-10.549-1.351-14.009-1.519-14.515-.675-.591 1.012 8.017 4.219 11.477 4.304 1.266.084 3.46-.591 4.895-1.519m-94.52-23.377c0-.085-.422-1.266-1.013-2.448-.928-2.025-1.35-2.194-4.81-1.772-2.11.253-6.076.76-8.861 1.013-4.135.506-4.726.675-3.376 1.519 3.123 1.857 18.06 3.291 18.06 1.688" style="fill-rule:nonzero"/><defs><linearGradient id="a" x1="0" x2="1" y1="0" y2="0" gradientTransform="rotate(90 67.464 131.994)scale(393.75)" gradientUnits="userSpaceOnUse"><stop offset="0" style="stop-color:#fc1503;stop-opacity:1"/><stop offset=".54" style="stop-color:#fb8402;stop-opacity:1"/><stop offset="1" style="stop-color:#fab001;stop-opacity:1"/></linearGradient></defs></svg>