<svg xmlns="http://www.w3.org/2000/svg" version="1.0" viewBox="0 0 537 537"><path d="M249 .6c-1.9.2-7.8.9-13 1.5-21.9 2.5-45.7 8.6-67.5 17.4-34.9 14-62.3 32.2-89.6 59.4-43.2 43.3-68.3 94.5-77 157.1-1.8 12.5-1.8 52.5 0 65 3.4 24.5 9.1 46.3 17.6 67.5 14 34.9 32.2 62.3 59.4 89.6 43.3 43.2 94.5 68.3 157.1 77 12.5 1.8 52.5 1.8 65 0 24.5-3.4 46.3-9.1 67.5-17.6 34.9-14 62.3-32.2 89.6-59.4 43.2-43.3 68.3-94.5 77-157.1.8-5.6 1.4-18.9 1.4-32.5 0-29.7-2.5-47.9-10.2-74.5-12.7-44.2-35.1-81.9-68.2-115.1-42.5-42.4-92.8-67.5-153.5-76.5C295 1 256.5-.3 249 .6zm-83.3 113.6c2.5 1 1.1 1.3-11.1 2.4-21.7 2-34.8 6.9-44.9 16.9C83 159.7 92.8 208.7 136.3 267c8.1 10.8 52.7 56.4 65.8 67.4 61.1 50.7 129.6 85 185.9 93.2 15.7 2.2 38.4 1.5 49-1.6 20.7-6 33.8-19.2 38-38 2.1-9.5 2.1-9.6 3.2-7.6 1.6 2.9-1 15-5 22.9-5 10.1-12.5 17.4-23.5 22.6-54.1 26.2-163.9-13-257.8-92.2l-6.8-5.7h-37.8l-3.8 10.5c-2.9 8.2-4.2 10.6-5.9 11-1.1.3-10.6.4-21.1.3l-19-.3.1-2.5c.1-1.4 7-19.2 15.4-39.5 8.4-20.4 15.4-37.7 15.7-38.6.2-.8-3.3-7.1-7.9-14-15.1-22.6-26.3-47.3-30.3-66.6-3.1-14.9-1.8-31.2 3.6-43.1 7.3-16.7 25.3-28 49.2-31.1 9.5-1.3 19.3-1.2 22.4.1zm27.8 12.2c37.8 8.1 81.8 27.1 121 52.4 22.9 14.8 23.1 17.3.3 3.6-37.8-22.7-74.5-37.9-103.3-42.9-13.2-2.3-33.8-2.4-42.2-.2-13.2 3.5-22.5 10.5-27.1 20.5-3.8 8.2-4.2 20.9-1.2 33.5 2.4 10.5 7.2 23.3 8.5 23 .4-.1 2.2-3.7 3.8-8 1.6-4.3 3.4-8.4 4-9.1.7-.9 5.8-1.2 19.2-1.2 16.1 0 18.4.2 19.7 1.7.8 1 11.5 27.1 23.9 58 12.3 31 22.5 55.6 22.7 54.8.2-.9-3.7-18.3-8.7-38.8-5-20.4-11.1-45.3-13.5-55.2-3-12.5-4.1-18.4-3.4-19.3 1.5-1.8 33.1-1.7 34.7.1.6.8 1.7 4.5 2.5 8.3.8 3.8 4.4 19.5 8 34.9 3.5 15.5 7 31.1 7.6 34.8 1.4 7.7 3 8.4 4.3 1.6.5-2.4 5.1-20.2 10.3-39.6 5.2-19.3 9.4-35.8 9.4-36.6 0-3.9 2.6-4.7 16.3-4.7 7.3 0 13.8.4 14.5.8 1 .7 19.5 68 22.6 82.4.9 3.9 2.3 3.5 3-1 1.6-9.3 18-79.8 18.9-81 1.2-1.5 34.2-1.8 35.2-.2.8 1.2-34.3 148-35.7 149.8-1.7 2-33.8 1.3-34.9-.8-.6-1.2-18.9-67.1-21.7-78.3-.4-1.6-1.1-2.8-1.6-2.8-.6 0-2.2 4.6-3.6 10.3-5.7 22.3-19.3 70.4-20.3 71.6-.6.8-2.1 1-4.2.6-6.8-1.2-4 1.6 9.3 9.4 38.4 22.4 69.6 35.4 99.5 41.4 14.9 3 39.1 3.2 48.2.4 17.1-5.2 25.4-14.5 27.4-31 .3-2.8 1.1-5 1.6-4.9 1.7.5 1.7 14.7 0 21.5-9.8 38-56 46.7-123.5 23.3-31.8-11.1-64.3-28-101.2-52.7-31.1-20.8-55.1-41.3-80.7-69.1-18.4-20-20.8-23-31.1-39.2-15.7-24.6-24.1-42.7-28.1-60.5-6.5-29.3 4.3-51.6 29.5-60.7 14.1-5.1 38.7-5.4 60.1-.9z"/><path d="M175 253.5c-.9 2.4-.7 3.3 1.6 6.6 5.6 8.1 6.9 7.3 3.3-2.1-2.7-7.2-3.6-8-4.9-4.5z"/></svg>