<svg xmlns="http://www.w3.org/2000/svg" viewBox="0 0 537 537"><path fill="#0086CB" d="M336 83h2v183h110V83h75v406h-75c-.79-35.178-1.091-70.315-1.063-105.5l.003-3.188c.012-13.104.032-26.208.06-39.312l-1.903.007c-6.853.023-13.705.037-20.558.048-2.52.005-5.04.011-7.56.02-26.345.091-52.624-.548-78.979-1.075v149h-75l-1-217c-9.092 10.503-9.092 10.503-17.75 21.313a223.813 223.813 0 0 1-11.3 13.496c-2.956 3.322-5.73 6.786-8.532 10.238a663.64 663.64 0 0 1-7.918 9.453 736.567 736.567 0 0 0-10 12 738.197 738.197 0 0 1-10 12 917.904 917.904 0 0 0-12.254 14.754c-3.233 3.952-6.511 7.866-9.785 11.785a959.558 959.558 0 0 0-6.836 8.336c-3.478 4.265-7.034 8.456-10.625 12.625-5.1 5.921-10.08 11.929-15 18a1133.973 1133.973 0 0 1-15.914 19.164A659.649 659.649 0 0 0 117.5 445.5a738.643 738.643 0 0 1-10 12c-5.746 6.765-11.361 13.631-16.953 20.523L88.125 481l-2.18 2.688L84 486l-1.164 1.623c-2.824 2.118-5.764 1.77-9.153 1.718h-2.248a841.627 841.627 0 0 1-7.353-.048 2762.425 2762.425 0 0 1-18.519-.087c-4.564-.03-9.13-.044-13.694-.06-8.956-.032-17.913-.083-26.869-.146 1.814-3.062 3.615-5.912 5.898-8.645l1.683-2.026 1.794-2.142 3.785-4.558 1.938-2.332c2.929-3.538 5.823-7.103 8.715-10.672l3.222-3.973 1.528-1.883C37.029 448.502 40.516 444.252 44 440l4.5-5.5 18-22 2.266-2.77 4.343-5.304A4938.66 4938.66 0 0 0 86.5 388a4595.778 4595.778 0 0 1 13.398-16.434 2095.49 2095.49 0 0 0 4.266-5.226 912.428 912.428 0 0 1 12.398-14.902c3.816-4.491 7.553-9.031 11.215-13.649C135.753 327.781 143.89 317.9 152 308l4.5-5.5 2.258-2.758c1.476-1.805 2.95-3.612 4.422-5.422a892.096 892.096 0 0 1 12.445-14.945 320.256 320.256 0 0 0 10.324-12.762c3.422-4.36 6.973-8.615 10.504-12.888a2181.498 2181.498 0 0 0 12.36-15.1c3.554-4.382 7.111-8.76 10.687-13.125 3.679-4.49 7.341-8.994 11-13.5a5410.395 5410.395 0 0 1 24.336-29.729A5524.65 5524.65 0 0 0 269 165l2.09-2.55c4.483-5.473 8.95-10.958 13.41-16.45 6.27-7.72 12.553-15.43 18.883-23.102 5.626-6.82 11.246-13.641 16.75-20.562a991.504 991.504 0 0 1 8.82-10.84c1.23-1.5 2.45-3.005 3.656-4.523A97.515 97.515 0 0 1 336 83Z"/><path fill="#1D61A3" d="M448 83h75v406h-75c-.79-35.178-1.091-70.315-1.063-105.5l.003-3.188c.012-13.104.035-26.208.06-39.312h-51c-.04-18.428-.04-18.428-.049-26.256-.006-5.35-.013-10.702-.026-16.052-.011-4.312-.017-8.624-.02-12.936-.002-1.648-.005-3.297-.01-4.946-.008-2.301-.009-4.602-.009-6.904l-.006-3.976C396 267 396 267 397 266h51V83Z"/><path fill="#0774BB" d="M336 83h2v183h59l-1 75-58-1v149h-41a56518.32 56518.32 0 0 1-.922-151.923l-.016-3.226c-.087-17.236-.207-34.471-.338-51.707-.134-17.688-.234-35.376-.302-53.064a5856.444 5856.444 0 0 0-.216-32.738 2825.46 2825.46 0 0 1-.114-22.456c-.006-4.318-.027-8.634-.087-12.952a627.334 627.334 0 0 1-.049-11.872c0-1.427-.016-2.854-.048-4.28-.204-9.452 1.396-14.636 7.91-21.593L305 121c.87-1.03 1.73-2.07 2.566-3.129l1.997-2.433c3.496-4.273 6.951-8.576 10.394-12.891a1151.13 1151.13 0 0 1 8.996-11.05c1.23-1.5 2.45-3.006 3.656-4.524A97.515 97.515 0 0 1 336 83Z"/><path fill="#106EB5" d="M338 83v183h59l-1 75-58-1v149h-7a126000.5 126000.5 0 0 1-.279-174.19c-.021-19.356-.06-38.713-.107-58.07-.046-19.854-.074-39.708-.084-59.562-.007-12.257-.029-24.513-.07-36.769-.026-8.398-.034-16.797-.028-25.196.004-4.85-.001-9.698-.028-14.548-.024-4.437-.026-8.875-.008-13.312.002-1.608-.005-3.215-.02-4.822-.02-2.183-.01-4.363.009-6.546l-.006-3.675c.737-3.93 2.94-9.31 7.621-9.31Z"/></svg>