<svg xmlns="http://www.w3.org/2000/svg" data-name="Layer 1" viewBox="0 0 312.4 356.75"><path fill="#2caddc" d="M312.4 254.38v-151.8c0-9.6-5.1-18.4-13.3-23.2L169.8 3.68c-8.4-4.9-18.8-4.9-27.2 0L13.3 79.28C5 84.08 0 92.98 0 102.48v151.8c0 9.6 5.1 18.4 13.3 23.2l129.3 75.6c8.4 4.9 18.8 4.9 27.2 0l129.3-75.6c8.3-4.8 13.3-13.7 13.3-23.2z"/><g transform="translate(-43.8 -21.525)"><path fill="#030303" d="M208.8 327.5c-.4-.8-1.7-4.2-2.8-7.4-1.8-5.3-2-5.6-2.3-3.1-.1 1.5-.6 2.7-1 2.7s-.8 1.6-.8 3.5c0 4-1 3.5-2.5-1.3l-1-3.3-2.6 5.6-.5-5c-.6-6.7-2.2-6.6-4.7.3-2.3 6.3-3.4 7.7-4.1 5.2-.4-1.3-1.3-1.8-3-1.8s-2.6-.4-3.4-3.3c-1.2-3.9-2-4.2-3.1-1l-.8 2.3V318c-.2-2.6-.3-2.7-1.2-1.3-1 1.5-2.1 2.9-3.2 4.2l-2.2 2.6-.9-2.4c-.5-1.3-.8-2.8-.9-4.2 0-1.7-.3-3.4-.5-5l-.5-3.2-4.4 4.3-4.4 4.4-.6-3.9c-.6-4.3-1.5-4.7-5.5-2.6-1.4.7-2.7 1.2-2.8 1s-.6-1.6-1-3.2c-.7-2.8-.9-3-5.8-3.7s-5.1-.9-5.5-3.5c-.8-5-3.1-8.7-5.3-8.7s-1.8-.4-1.5-.8c.7-1.1-.9-1.1-3.1 0-1.7.9-1.7.8-1.2-3 .4-3 .3-4-.7-4.4-.7-.3-3.4-3.2-6-6.5l-5.3-6.6c-.3-.3-2.5 0-4.9.7s-4.5 1.2-4.7 1 .6-3.1 1.7-6.5c2-6.4 2-7.6 0-7.6s-1.2-1.2-1.2-5 0-5-2.9-5.9l-2.9-.9 1.2-3c1.7-4.1 1-5.3-3-5.3s-3.4-.3-3.4-.7 1.3-2.4 2.9-4.6 2.9-4 2.9-4.2-1.2-.7-2.7-1-2.9-.8-4.3-1.4c-1.4-.8-1.3-1.1 1.6-4.1l3.2-3.3-2.7.5c-2.7.5-3.9-.7-1.4-1.6 1.9-.7 1.5-1.8-1.3-2.8-2-.8-2.5-1.4-2.5-3.5s-.6-2.9-1.3-3.3c-1.1-.6-1.1-.9.6-2 1.2-.8 2.5-1.4 3.8-1.9 1.2-.3 2-1.4 1.9-2.6 0-1.7-.5-2-3.1-2.3l-3.1-.3 2.3-1.2c2.7-1.4 2.9-2.3.6-3-2.2-.7-2.2-2.1 0-2.1s2.1-3.8-1.3-5.9c-2.5-1.6-2.8-2-1.7-2.6.7-.4 1.3-1.7 1.3-2.8 0-1.3.4-2.5 1-3.6.8-1.3.6-2.1-.8-4.6-2.5-4.2-2.6-11.8-.2-12.6 2.6-.8 2.5-3.9-.3-6.9l-2.5-2.7 2.6-.9c2.6-.9 4.1-3.3 3.1-5-.3-.5-.1-1.9.4-3.1.6-1.5 1-3.1 1.2-4.8.1-1.3.4-2.5.8-3.8 2.5-6.8 3.2-10.3 2.4-12.4s-.6-2.5 2.9-4.7c2.2-1.4 3.7-2.9 3.7-3.9s1-2.8 2.3-4.3 3.4-4.2 4.6-5.9c1.9-2.5 2.9-3.1 5.1-3.1s5.5-2 5.5-3.9 1.8-1 4-1.3 5.1-1.1 6.4-1.9 4-1.6 6-1.7 4.2-.6 4.9-1.2 1.7-.9 2.3-.8c3.8.5 6.5-.2 7-1.8s.7-1.6 2-.4c2.2 2 6.2 1.6 8.5-.8l2-2.1 1.1 2.1c1.4 2.6 4.4 2.8 7.7.4 2-1.5 2.8-1.6 5.6-.9 1.8.5 4.3 1.1 5.6 1.3 1.3.3 2.3 1.1 2.3 1.8 0 1.1 3.1 2.9 4.9 2.9.3 0 1.3-1.1 2.2-2.5l1.7-2.5 5.2 6.2 8.6-5.4 1.9 1.7c1.8 1.7 2.1 1.7 11.9.6 5.5-.7 11.9-1.2 14.2-1.2 2.9-.1 5.9-.5 8.7-1.3 4.7-1.3 5.9-1.1 5.9.8s2.4 2.1 6.3 0l3.8-2.1-.2 2.8c-.2 2.7-.1 2.8 3.1 3.1 1.8.1 4.4 1 5.7 2 1.5 1.1 4.4 1.9 7.7 2.3 5.3.5 8.7 2.4 8.7 4.8s1.6 2.3 3.6 3.7 4.1 3.6 4.7 4.8 3 4.2 5.3 6.5c3.9 4 4.1 4.3 2.4 4.9-2.9.9-2 2.9 2.2 4.6 3.7 1.5 4 2.3 1.8 4.7-1.8 1.9-1.8 2.1-.4 3.1 1.2.9 1.3 1.5.6 2.7-1.3 2.4-.2 6.2 2.2 8.3 2 1.7 2.1 1.9.7 3.8-1.8 2.6-1.8 3.7.5 6.7l1.9 2.5-1.8 1.4c-2.6 2-1.8 7.5 1.5 10.7 3 2.9 3 3.7 0 3.7s-2.5.4-2.8 2.5c-.2 1.4 0 3 .3 3.6s.7 2.1.7 3.3.7 2.6 1.5 3.1c1.3.7 1.1 1-1.3 2.3-1.5.8-2.7 2-2.7 2.5 0 .8-.2 1.5-.5 2.2-.3.9.2 1.3 1.9 1.6l2.4.3-2.3 1.1c-1.3.6-2.3 1.4-2.3 1.7s1 1.1 2.3 1.7l2.3 1.2-2.7.3c-3.7.4-3.9 3.7-.2 5.2 3.4 1.4 4.8 3.2 3 3.9-.8.3-1.3 1.5-1.3 3s-.5 2.7-2.3 3.4c-1.3.5-2.4 1.1-2.6 1.2s.6 1 1.7 2l2 1.7-3.3-.4-3.3-.5 3.2 2.9c3.6 3.3 3.4 4-2 5.6l-3.6 1 3 3.9c1.6 2.2 3 4.3 3 4.8s-1.5.9-3.3.9c-4.1 0-4.6.8-3 4.7.7 1.7 1.3 3.2 1.3 3.3s-1.3.7-2.9 1.2c-2.9 1-2.9 1-2.9 5.9s-.3 5-1.1 5-1.8.5-2.6 1.1c-1.4 1-1.4 1.4.4 7.5 1 3.5 1.6 6.7 1.4 7s-2.9 0-5.8-.8l-5.3-1.3-9.6 9.6 1.1 5.2c.6 2.9.9 5.2.6 5.2s-1.5-.6-2.6-1.2c-5.2-2.9-8.2-1-10.1 6.3l-1 4-4.9.5c-4.8.5-4.9.6-5.8 3.9-.5 1.8-1.1 3.3-1.2 3.3s-1.7-.6-3.3-1.4-3.2-1.2-3.5-.9-.7 3.2-1 6.4-.7 5.9-1 5.9-2.4-1.9-4.6-4.1c-2.2-2.3-4.4-3.9-4.8-3.7s-.7 1.7-.7 3.2-.5 3.4-1.1 4.3c-1 1.4-1.3 1.3-3.5-1.7-3.9-5.3-4-5.3-3.4.5.5 5 .4 5.3-.7 3.8-.7-.9-1.3-1.9-1.3-2.3 0-2-1.5-.3-2.2 2.5-.6 2.6-1.2 3.2-3.1 3.4-1.3.1-2.8 1-3.5 2-1.1 1.6-1.2 1.6-2 .2z"/><path fill="#feb730" d="M197.3 280c-1.3-4.3-2.3-4.9-4.4-2.3-.9 1.2-2.4 2.2-3.3 2.2-1.6 0-2.3-1.2-5.1-8.3l-.8-2.1-1.3 3.1c-1.6 4-3.3 3.3-4.1-1.6l-.6-3.8-3.6 4.6-17.8-10.3c-17.1-9.9-17.8-10.4-19.4-14.1-1.7-3.9-6.9-10.1-8.6-10.1s-1.8-.8-2.7-1.9l-1.8-1.9 8.2-10.8-7.8-1.6 8.2-4.4-4.4-2.3c-4.7-2.5-5.6-4.8-2.9-7.5 1.3-1.3 1.3-1.5-.2-3-1.4-1.6-1.4-1.7 0-3.3 1.3-1.5 1.3-1.8.2-3-2.4-2.4-1.6-4.5 2.9-7.3l4.3-2.7-8-4.2 3.9-.8 3.9-.7-8.4-10.8 3.8-4 22.2 22.2v12.8l1.8-.3c1.1-.2 8.9-1.4 17.4-2.8 21-3.4 19.2-2.7 19.2-6.7V189H214v3.3c0 3.9-1.9 3.3 19.2 6.8 8.5 1.4 16 2.5 17 2.7.7.2 2 .3 2 .3s.2-2.3.2-6.2v-6.6l10-10c7.7-7.7 10.3-9.8 11-9 1.1 1.1 1.2.9-4.5 7.9l-3.2 3.9 8.6 1.2-8.8 4.6 4.7 2.7c2.6 1.4 4.7 3.2 4.7 3.8s-.7 2.1-1.8 3.3l-1.8 2.2 2.2 1c2 .9 2.9 2.3 1.5 2.4-.3 0-1.3.6-2.2 1.2-1.5 1.1-1.4 1.3.3 2.9 2.6 2.6 1.8 4.3-3.3 7l-4.5 2.4 8.8 4.6-3.9.6c-2.2.3-3.9.8-3.9 1s1.7 2.6 3.7 5.3c2.1 2.7 3.8 5.2 3.7 5.6 0 .4-2.7 2.9-5.9 5.6-4.1 3.5-6.5 6.3-8.2 9.7l-2.4 4.8-35.4 20.4-4-4.6v2.9c0 5.6-1.3 5.6-3.3 0-1-2.8-2-5.1-2.1-5.1s-1.4 3.1-2.9 6.9-3 7.2-3.3 7.6-1.7-.3-2.9-1.5c-1.3-1.3-2.3-2.1-2.4-2s-.8 1.3-1.4 2.6l-1.3 2.3-.8-3.6zm-7.9-22.4 9.7-2.7 11.2 2.7c5.8 1.5 10.7 2 10.9 1.8.9-.9-1.2-2-6.5-3.3-3-.8-7.4-1.9-9.9-2.7l-4.4-1.7.3-8.8.2-9.3 12.4-7.8c6.8-4.3 12.6-7.9 12.9-8.2s-11.6-.5-26.4-.5-26.8.3-26.8.7 5.6 4 12.4 8.2l12.3 7.6v18.2l-9.5 3.4c-5.3 1.4-9.7 3-9.9 3.6-.5 1.3-.7 1.8 11.2-1.3zm-1.4-74.9v-5.3l-18.6-3.1c-10.3-1.7-19.5-2.9-19.8-3.1v9.5l-8.7-8.7c-4.8-4.8-8.6-9.2-8.5-9.8s.8-1.8 1.4-2.6 2.7-3.7 4.3-6.3c2.5-3.9 3.6-4.8 6.1-5.3 1.7-.3 4.5-1.8 6.4-3.4 2.6-2.1 3.9-2.7 5.4-2.4 1.9.5 3.2-.5 8.3-6.9l1.5-1.9 10.8 8.6 1.8-8.2 2 4c1.1 2.2 2.2 4 2.5 4s1.4-1.9 2.5-4.2c2.2-4.6 4-5.3 6.9-2.7 1.6 1.4 1.7 1.3 3.6-1.1 1.1-1.3 2-2.1 2-1.6s.5 1.6 1.1 2.3c1 1.4 1.3 1.4 4.1-.3l3-1.8 5.4 10 4.4-8.6.6 4c.3 2.2.8 4 .9 4s2.7-1.8 5.7-4.2l5.3-4.2 3.8 4.5c3.3 3.8 4.3 4.5 6.7 4.4 2.1 0 3.5.6 5.4 2.5 1.6 1.6 3.8 2.8 5.8 3.1 2.8.5 3.6 1.2 6.7 6.1 1.9 3.1 5 6.7 6.8 7.9s3.3 2.6 3.3 2.9-3.4 3.9-7.5 8.1l-7.5 7.5v-4.7c0-2.7-.3-4.8-.7-4.8s-8.9 1.3-19.1 3l-18.8 3.3v4.8l-12.4.3c-6.7.3-11.8 0-13.3 0z"/><circle cx="188.4" cy="236.7" r="1.7" fill="#71470d"/><circle cx="181.7" cy="236.7" r="1.7" fill="#71470d"/><circle cx="175" cy="236.7" r="1.7" fill="#71470d"/><circle cx="181.7" cy="243.4" r="1.7" fill="#71470d"/><circle cx="188.4" cy="243.4" r="1.7" fill="#71470d"/><circle cx="175" cy="243.4" r="1.7" fill="#71470d"/><circle cx="181.7" cy="250.1" r="1.7" fill="#71470d"/><circle cx="208.5" cy="236.7" r="1.7" fill="#71470d"/><circle cx="215.1" cy="236.7" r="1.7" fill="#71470d"/><circle cx="221.8" cy="236.7" r="1.7" fill="#71470d"/><circle cx="208.5" cy="243.4" r="1.7" fill="#71470d"/><circle cx="215.1" cy="243.4" r="1.7" fill="#71470d"/><circle cx="221.8" cy="243.4" r="1.7" fill="#71470d"/><circle cx="215.1" cy="250.1" r="1.7" fill="#71470d"/></g></svg>