<svg xmlns="http://www.w3.org/2000/svg" viewBox="0 0 400 400"><g fill-rule="evenodd"><path fill="#fafbfa" d="M120 49.179c-20.135 2.476-35.783 17.874-39.008 38.386-.722 4.594-.894 141.155-.19 151.012 3.62 50.693 38.297 94.523 84.998 107.436 23.798 6.58 44.602 6.58 68.4 0 41.465-11.465 76.462-50.728 83.352-93.511 1.073-6.667 1.252-8.211 1.686-14.588.837-12.293-.613-25.154-4.431-39.314-15.289-56.7-75.496-94.995-133.607-84.983-1.21.209-3.64.675-5.4 1.036-1.76.36-3.695.742-4.3.847l-1.1.191-.007-12.946c-.01-16.435-.729-21.011-4.484-28.545C157.312 56.957 138.8 46.867 120 49.179m11.6 18.587c9.74 2.378 16.887 9.336 19.915 19.387.621 2.064.695 8.324.906 76.647.127 40.92.367 74.94.534 75.6.167.66.569 2.328.894 3.706 8.707 36.921 57.11 48.543 82.021 19.694 26.74-30.967 5.011-78.55-35.87-78.55-11.127 0-18.24 2.273-28.5 9.109l-1.1.733v-20.944l2.9-1.335c16.797-7.733 37.522-7.507 54.604.595C266.429 190.681 277.7 240.224 250.788 273c-32.361 39.411-95.507 28.529-112.577-19.4-3.938-11.058-3.804-7.882-3.808-90.116-.003-80.278.246-73.126-2.654-76.026-4.643-4.643-12.995-2.624-14.857 3.591-.799 2.669-.689 142.567.118 149.351 3.281 27.573 18.304 50.494 41.79 63.759 38.324 21.646 86.155 10.232 110.717-26.422 31.058-46.349 7.962-110.212-45.621-126.15-8.629-2.567-14.127-3.334-23.896-3.334-10.003 0-15.475.789-24.559 3.543-2.547.772-4.724 1.404-4.836 1.404-.113 0-.205-4.144-.205-9.21v-9.21l1.1-.437c1.207-.48 2.842-.921 5.9-1.592 72.892-15.991 137.11 47.548 121.734 120.449-.934 4.427-.991 4.629-3.169 11.2-16.885 50.939-72.576 79.797-124.56 64.545-31.438-9.224-57.22-33.925-67.37-64.545-3.17-9.564-4.278-14.931-5.234-25.369-.576-6.281-.54-143.267.039-148.031 1.953-16.079 17.347-26.998 32.76-23.234m76.8 135.442c22.115 7.14 28.546 34.343 11.797 49.903-19.009 17.661-49.797 4.361-49.797-21.511 0-19.566 19.714-34.296 38-28.392"/><path fill="#1cbd2c" d="M82.8.294c-1.649.08-3.17.316-3.38.526-.209.209-1.514.38-2.9.38-1.413 0-2.52.176-2.52.4 0 .222-1.067.4-2.4.4s-2.4.178-2.4.4c0 .22-.72.4-1.6.4-.88 0-1.6.18-1.6.4 0 .22-.72.4-1.6.4-.88 0-1.6.18-1.6.4 0 .22-.619.4-1.376.4-.757 0-1.488.18-1.624.4-.136.22-.687.4-1.224.4-.537 0-.976.18-.976.4 0 .22-.349.4-.776.4-.427 0-.888.18-1.024.4-.136.22-.687.4-1.224.4-.537 0-.976.18-.976.4 0 .22-.36.4-.8.4-.44 0-.8.18-.8.4 0 .22-.46.4-1.022.4-1.019 0-5.437 1.995-6.578 2.971-.33.282-1.185.763-1.9 1.068-.715.306-1.3.692-1.3.859 0 .166-.236.302-.525.302-.288 0-.911.36-1.383.8-.472.44-1.096.8-1.387.8-.291 0-.788.36-1.105.8-.317.44-.821.8-1.12.8-.298 0-1.234.72-2.08 1.6-.846.88-1.725 1.6-1.955 1.6C31.1 20 20 31.1 20 31.645c0 .23-.72 1.109-1.6 1.955-.88.846-1.6 1.782-1.6 2.08 0 .299-.36.803-.8 1.12-.44.317-.8.897-.8 1.288 0 .392-.158.712-.351.712-.194 0-.576.54-.849 1.2-.273.66-.611 1.2-.751 1.2-.139 0-.51.579-.823 1.286-.313.707-1.064 2.019-1.669 2.915-.604.896-1.222 2.119-1.372 2.718-.151.599-.434 1.187-.629 1.308-.196.121-.356.75-.356 1.397S8.22 52 8 52c-.22 0-.4.36-.4.8 0 .44-.18.8-.4.8-.22 0-.4.439-.4.976 0 .537-.18 1.088-.4 1.224-.22.136-.4.597-.4 1.024 0 .427-.18.776-.4.776-.22 0-.4.439-.4.976 0 .537-.18 1.088-.4 1.224-.22.136-.4.867-.4 1.624 0 .757-.18 1.376-.4 1.376-.22 0-.4.72-.4 1.6 0 .88-.18 1.6-.4 1.6-.22 0-.4.72-.4 1.6 0 .88-.18 1.6-.4 1.6-.222 0-.4 1.067-.4 2.4S1.822 74 1.6 74c-.224 0-.4 1.107-.4 2.52 0 1.483-.206 2.726-.5 3.02-.735.735-.735 240.185 0 240.92.294.294.5 1.537.5 3.02 0 1.413.176 2.52.4 2.52.222 0 .4 1.067.4 2.4s.178 2.4.4 2.4c.22 0 .4.72.4 1.6 0 .88.18 1.6.4 1.6.22 0 .4.72.4 1.6 0 .88.18 1.6.4 1.6.22 0 .4.619.4 1.376 0 .757.18 1.488.4 1.624.22.136.4.687.4 1.224 0 .537.18.976.4.976.22 0 .4.349.4.776 0 .427.18.888.4 1.024.22.136.4.687.4 1.224 0 .537.18.976.4.976.22 0 .4.36.4.8 0 .44.18.8.4.8.22 0 .4.529.4 1.176 0 .647.16 1.276.356 1.397.195.121.478.709.629 1.308.15.599.768 1.822 1.372 2.718.605.896 1.356 2.208 1.669 2.915.313.707.684 1.286.823 1.286.14 0 .478.54.751 1.2.273.66.655 1.2.849 1.2.193 0 .351.32.351.712 0 .391.36.971.8 1.288.44.317.8.821.8 1.12 0 .298.72 1.234 1.6 2.08.88.846 1.6 1.725 1.6 1.955C20 368.9 31.1 380 31.645 380c.23 0 1.109.72 1.955 1.6.846.88 1.782 1.6 2.08 1.6.299 0 .803.36 1.12.8.317.44.814.8 1.105.8.291 0 .915.36 1.387.8.472.44 1.095.8 1.383.8.289 0 .525.136.525.302 0 .167.585.553 1.3.859.715.305 1.57.786 1.9 1.068 1.141.976 5.559 2.971 6.578 2.971.562 0 1.022.18 1.022.4 0 .22.36.4.8.4.44 0 .8.18.8.4 0 .22.439.4.976.4.537 0 1.088.18 1.224.4.136.22.597.4 1.024.4.427 0 .776.18.776.4 0 .22.439.4.976.4.537 0 1.088.18 1.224.4.136.22.867.4 1.624.4.757 0 1.376.18 1.376.4 0 .22.72.4 1.6.4.88 0 1.6.18 1.6.4 0 .22.72.4 1.6.4.88 0 1.6.18 1.6.4 0 .222 1.067.4 2.4.4s2.4.178 2.4.4c0 .224 1.107.4 2.52.4 1.483 0 2.726.206 3.02.5.735.735 240.185.735 240.92 0 .294-.294 1.537-.5 3.02-.5 1.413 0 2.52-.176 2.52-.4 0-.222 1.067-.4 2.4-.4s2.4-.178 2.4-.4c0-.22.72-.4 1.6-.4.88 0 1.6-.18 1.6-.4 0-.22.72-.4 1.6-.4.88 0 1.6-.18 1.6-.4 0-.22.619-.4 1.376-.4.757 0 1.488-.18 1.624-.4.136-.22.687-.4 1.224-.4.537 0 .976-.18.976-.4 0-.22.349-.4.776-.4.427 0 .888-.18 1.024-.4.136-.22.687-.4 1.224-.4.537 0 .976-.18.976-.4 0-.22.36-.4.8-.4.44 0 .8-.18.8-.4 0-.22.46-.4 1.022-.4 1.019 0 5.437-1.995 6.578-2.971.33-.282 1.185-.763 1.9-1.068.715-.306 1.3-.692 1.3-.859 0-.166.236-.302.525-.302.288 0 .911-.36 1.383-.8.472-.44 1.096-.8 1.387-.8.291 0 .788-.36 1.105-.8.317-.44.821-.8 1.12-.8.298 0 1.234-.72 2.08-1.6.846-.88 1.725-1.6 1.955-1.6.545 0 11.645-11.1 11.645-11.645 0-.23.72-1.109 1.6-1.955.88-.846 1.6-1.782 1.6-2.08 0-.299.36-.803.8-1.12.44-.317.8-.897.8-1.288 0-.392.158-.712.351-.712.194 0 .576-.54.849-1.2.273-.66.611-1.2.751-1.2.139 0 .51-.579.823-1.286.313-.707 1.064-2.019 1.669-2.915.604-.896 1.222-2.119 1.372-2.718.151-.599.434-1.187.629-1.308.196-.121.356-.75.356-1.397s.18-1.176.4-1.176c.22 0 .4-.36.4-.8 0-.44.18-.8.4-.8.22 0 .4-.439.4-.976 0-.537.18-1.088.4-1.224.22-.136.4-.597.4-1.024 0-.427.18-.776.4-.776.22 0 .4-.439.4-.976 0-.537.18-1.088.4-1.224.22-.136.4-.867.4-1.624 0-.757.18-1.376.4-1.376.22 0 .4-.72.4-1.6 0-.88.18-1.6.4-1.6.22 0 .4-.72.4-1.6 0-.88.18-1.6.4-1.6.222 0 .4-1.067.4-2.4s.178-2.4.4-2.4c.224 0 .4-1.107.4-2.52 0-1.483.206-2.726.5-3.02.398-.398.5-25.025.5-120.46s-.102-120.062-.5-120.46c-.294-.294-.5-1.537-.5-3.02 0-1.413-.176-2.52-.4-2.52-.222 0-.4-1.067-.4-2.4s-.178-2.4-.4-2.4c-.22 0-.4-.72-.4-1.6 0-.88-.18-1.6-.4-1.6-.22 0-.4-.72-.4-1.6 0-.88-.18-1.6-.4-1.6-.22 0-.4-.619-.4-1.376 0-.757-.18-1.488-.4-1.624-.22-.136-.4-.687-.4-1.224 0-.537-.18-.976-.4-.976-.22 0-.4-.349-.4-.776 0-.427-.18-.888-.4-1.024-.22-.136-.4-.687-.4-1.224 0-.537-.18-.976-.4-.976-.22 0-.4-.36-.4-.8 0-.44-.18-.8-.4-.8-.22 0-.4-.529-.4-1.176 0-.647-.16-1.276-.356-1.397-.195-.121-.478-.709-.629-1.308-.15-.599-.768-1.822-1.372-2.718-.605-.896-1.356-2.208-1.669-2.915-.313-.707-.684-1.286-.823-1.286-.14 0-.478-.54-.751-1.2-.273-.66-.655-1.2-.849-1.2-.193 0-.351-.32-.351-.712 0-.391-.36-.971-.8-1.288-.44-.317-.8-.821-.8-1.12 0-.298-.72-1.234-1.6-2.08-.88-.846-1.6-1.725-1.6-1.955C380 31.1 368.9 20 368.355 20c-.23 0-1.109-.72-1.955-1.6-.846-.88-1.782-1.6-2.08-1.6-.299 0-.803-.36-1.12-.8-.317-.44-.814-.8-1.105-.8-.291 0-.915-.36-1.387-.8-.472-.44-1.095-.8-1.383-.8-.289 0-.525-.136-.525-.302 0-.167-.585-.553-1.3-.859-.715-.305-1.57-.786-1.9-1.068-1.141-.976-5.559-2.971-6.578-2.971-.562 0-1.022-.18-1.022-.4 0-.22-.36-.4-.8-.4-.44 0-.8-.18-.8-.4 0-.22-.439-.4-.976-.4-.537 0-1.088-.18-1.224-.4-.136-.22-.597-.4-1.024-.4-.427 0-.776-.18-.776-.4 0-.22-.439-.4-.976-.4-.537 0-1.088-.18-1.224-.4-.136-.22-.867-.4-1.624-.4-.757 0-1.376-.18-1.376-.4 0-.22-.72-.4-1.6-.4-.88 0-1.6-.18-1.6-.4 0-.22-.72-.4-1.6-.4-.88 0-1.6-.18-1.6-.4 0-.222-1.067-.4-2.4-.4s-2.4-.178-2.4-.4c0-.224-1.107-.4-2.52-.4-1.483 0-2.726-.206-3.02-.5C319.993.233 92.121-.156 82.8.294m51.637 49.464c13.669 2.892 25.189 11.839 31.472 24.442 3.755 7.534 4.474 12.11 4.484 28.545l.007 12.946 1.1-.191c.605-.105 2.54-.487 4.3-.847 61.015-12.51 123.109 24.989 139.007 83.947 3.818 14.16 5.268 27.021 4.431 39.314-.434 6.377-.613 7.921-1.686 14.588-6.89 42.783-41.887 82.046-83.352 93.511-23.798 6.58-44.602 6.58-68.4 0-46.701-12.913-81.378-56.743-84.998-107.436-.704-9.857-.532-146.418.19-151.012 4.073-25.903 28.394-43.108 53.445-37.807m-16.165 18.277C107.64 71.066 100.192 79.869 98.84 91c-.579 4.764-.615 141.75-.039 148.031.956 10.438 2.064 15.805 5.234 25.369 10.15 30.62 35.932 55.321 67.37 64.545 51.984 15.252 107.675-13.606 124.56-64.545 2.178-6.571 2.235-6.773 3.169-11.2 15.376-72.901-48.842-136.44-121.734-120.449-3.058.671-4.693 1.112-5.9 1.592l-1.1.437v9.21c0 5.066.092 9.21.205 9.21.112 0 2.289-.632 4.836-1.404 9.084-2.754 14.556-3.543 24.559-3.543 35.556 0 66.504 21.702 78.599 55.118 12.618 34.857.605 73.541-29.809 95.983-35.26 26.019-85.978 19.015-114.074-15.754-9.82-12.153-15.726-26.563-17.706-43.2-.807-6.784-.917-146.682-.118-149.351 1.862-6.215 10.214-8.234 14.857-3.591 2.9 2.9 2.651-4.252 2.654 76.026.003 61.218.091 72.571.595 76.316 4.485 33.349 31.559 57.155 65.002 57.155 49.283 0 80.663-51.454 58.154-95.355-15.746-30.71-53.817-44.075-84.854-29.787l-2.9 1.335v20.944l1.1-.733c17.336-11.551 36.414-12.467 52.927-2.543 31.827 19.129 30.485 65.611-2.394 82.92-27.01 14.219-61.232-1.154-68.184-30.63a320.938 320.938 0 0 0-.894-3.706c-.167-.66-.407-34.68-.534-75.6-.252-81.738-.057-75.615-2.585-81.047-5.566-11.955-19.108-18.27-31.564-14.718M195 202.379c-23.944 4.01-32.988 34.203-15.197 50.732 19.009 17.661 49.797 4.361 49.797-21.511 0-18.168-16.648-32.228-34.6-29.221"/></g></svg>