<svg xmlns="http://www.w3.org/2000/svg" fill="none" viewBox="0 0 500 500"><g clip-path="url(#a)"><path fill="#148EFF" d="M394.583 172.833C331.25 143.583 240.292 125 154.708 131.917c4.292-28.334 14.875-48.084 32.25-52.25 23.917-5.73 50 10 74.875 38.625 16.292 2.125 35.625 5.833 49.063 8.937C265.562 41.938 204.75-5.875 158.479 11.771c-35.167 13.417-53.187 61.875-51 126.958-45.833 9.75-81.562 27.084-104.437 51.979-1.167 1.355-3.771 4.73-2.855 6.355.709 1.208 3.042-.167 4.042-.834 26.542-18.541 60.5-28.604 104.729-34.916 6.313 69.437 35.688 157.5 84.479 228.166-26.666 10.459-49.083 11.167-61.375-1.812-16.916-17.834-16.333-48.292-3.958-84.167a557.25 557.25 0 0 1-16.812-46.958C60.062 338.5 49.083 415.083 87.479 446.333c29.208 23.75 80.146 15.105 135.458-19.291 31.355 34.833 64.23 57.083 97.23 64.458 1.75.313 5.979.896 6.916-.708.709-1.25-1.666-2.584-2.729-3.104-29.333-13.688-55-38.084-82.583-73.23 56.979-40.187 118.562-109.645 155.354-187.25 22.417 17.917 34.167 36.938 29.125 54.063-7 23.562-33.646 38.333-70.896 45.521a577.048 577.048 0 0 1-32.25 38.041c96.542 3.334 168.333-25.416 176.208-74.27 5.959-37.209-26.979-77-84.437-107.709 14.5-44.562 17.333-84.166 7.208-116.416-.604-1.667-2.208-5.625-4.083-5.625-1.417 0-1.396 2.708-1.313 3.895 2.813 32.23-5.479 66.667-22.125 108.125h.021ZM216.812 378.438c-40.833-65.521-64.375-142.688-64.208-220.709 77.125-2.583 155.708 15.584 223.208 54.729-36.312 68.105-91.354 127.084-159.02 165.959l.02.021Z"/></g><defs><clipPath id="a"><path fill="#fff" d="M0 0h500v500H0z"/></clipPath></defs></svg>