<svg xmlns="http://www.w3.org/2000/svg" width="400" height="400" fill-rule="evenodd" xmlns:v="https://vecta.io/nano"><path fill="#fbeeb8" d="M82.8.294c-1.649.08-3.17.316-3.38.526s-1.514.38-2.9.38c-1.413 0-2.52.176-2.52.4s-1.067.4-2.4.4-2.4.178-2.4.4-.72.4-1.6.4-1.6.18-1.6.4-.72.4-1.6.4-1.6.18-1.6.4-.619.4-1.376.4-1.488.18-1.624.4-.687.4-1.224.4-.976.18-.976.4-.349.4-.776.4-.888.18-1.024.4-.687.4-1.224.4-.976.18-.976.4-.36.4-.8.4-.8.18-.8.4-.529.4-1.176.4-1.276.16-1.397.356-.709.478-1.308.629-1.822.768-2.718 1.372-2.208 1.356-2.915 1.669-1.286.684-1.286.823-.54.478-1.2.751-1.2.655-1.2.849-.32.351-.712.351-.971.36-1.288.8-.821.8-1.12.8-1.234.72-2.08 1.6-1.723 1.6-1.95 1.6C31.114 20 20 31.119 20 31.655c0 .224-.72 1.099-1.6 1.945s-1.6 1.782-1.6 2.08-.36.803-.8 1.12-.8.897-.8 1.288-.158.712-.351.712-.576.54-.849 1.2-.611 1.2-.751 1.2-.51.579-.823 1.286-1.064 2.019-1.669 2.915-1.222 2.119-1.372 2.718-.434 1.187-.629 1.308-.356.75-.356 1.397S8.22 52 8 52s-.4.36-.4.8-.18.8-.4.8-.4.439-.4.976-.18 1.088-.4 1.224-.4.597-.4 1.024-.18.776-.4.776-.4.439-.4.976-.18 1.088-.4 1.224-.4.867-.4 1.624S4.22 62.8 4 62.8s-.4.72-.4 1.6-.18 1.6-.4 1.6-.4.72-.4 1.6-.18 1.6-.4 1.6-.4 1.067-.4 2.4-.178 2.4-.4 2.4-.4 1.107-.4 2.52c0 1.483-.206 2.726-.5 3.02-.735.735-.735 240.185 0 240.92.284.284.5 1.493.5 2.796 0 1.263.18 2.408.4 2.544s.4 1.227.4 2.424.18 2.176.4 2.176.4.709.4 1.576.18 1.688.4 1.824.4.957.4 1.824.18 1.576.4 1.576.4.529.4 1.176.18 1.288.4 1.424.4.676.4 1.2.18 1.064.4 1.2.4.597.4 1.024.18.776.4.776.4.54.4 1.2.18 1.2.4 1.2.4.36.4.8.18.8.4.8.4.338.4.751c0 .992 1.119 3.668 1.902 4.549.342.385.495.7.341.7s.267.797.938 1.772 1.219 2.04 1.219 2.367.135.654.3.728c.506.225 2.1 2.669 2.1 3.221 0 .286.36.744.8 1.019s.8.724.8.999.72 1.263 1.6 2.197 1.6 1.856 1.6 2.048c0 .522 7.158 7.649 7.682 7.649.248 0 .338.114.199.253-.275.274 3.231 3.747 3.782 3.747.184 0 1.1.72 2.034 1.6s1.923 1.6 2.197 1.6.724.36.999.8.733.8 1.019.8c.552 0 2.996 1.594 3.221 2.1.074.165.408.3.742.3s1.365.511 2.29 1.135c2.262 1.526 5.995 3.265 7.01 3.265.454 0 .825.18.825.4s.36.4.8.4.8.18.8.4.54.4 1.2.4 1.2.18 1.2.4.349.4.776.4.888.18 1.024.4.687.4 1.224.4.976.18.976.4.63.4 1.4.4 1.4.18 1.4.4.709.4 1.576.4 1.688.18 1.824.4.867.4 1.624.4 1.376.18 1.376.4 1.059.4 2.376.4c1.307 0 2.488.18 2.624.4s1.392.4 2.79.4c1.679 0 2.6.17 2.71.5.245.736 240.355.736 240.6 0 .11-.33 1.031-.5 2.71-.5 1.398 0 2.654-.18 2.79-.4s1.317-.4 2.624-.4c1.317 0 2.376-.178 2.376-.4s.619-.4 1.376-.4 1.488-.18 1.624-.4.957-.4 1.824-.4 1.576-.18 1.576-.4.529-.4 1.176-.4 1.288-.18 1.424-.4.676-.4 1.2-.4 1.064-.18 1.2-.4.597-.4 1.024-.4.776-.18.776-.4.54-.4 1.2-.4 1.2-.18 1.2-.4.36-.4.8-.4.8-.18.8-.4.371-.4.825-.4c1.015 0 4.748-1.739 7.01-3.265.925-.624 1.955-1.135 2.29-1.135s.668-.135.742-.3c.225-.506 2.669-2.1 3.221-2.1.286 0 .744-.36 1.019-.8s.724-.8.999-.8 1.263-.72 2.197-1.6 1.854-1.6 2.044-1.6c.442 0 4.874-4.245 4.659-4.461-.089-.089.367-.517 1.015-.95s1.177-1.025 1.178-1.313.181-.412.401-.276.4-.063.4-.443.111-.579.248-.443c.321.322 1.352-.709 1.352-1.352 0-.272.117-.379.26-.236.265.265 2.139-1.683 2.14-2.225 0-.165.72-1.064 1.6-1.998s1.6-1.923 1.6-2.197.36-.724.8-.999.8-.733.8-1.019c0-.552 1.594-2.996 2.1-3.221.165-.074.3-.401.3-.728s.549-1.392 1.219-2.367 1.093-1.772.938-1.772-.001-.315.341-.7c.783-.881 1.902-3.557 1.902-4.549 0-.413.18-.751.4-.751s.4-.36.4-.8.18-.8.4-.8.4-.54.4-1.2.18-1.2.4-1.2.4-.349.4-.776.18-.888.4-1.024.4-.687.4-1.224.18-.976.4-.976.4-.63.4-1.4.18-1.4.4-1.4.4-.709.4-1.576.18-1.688.4-1.824.4-.957.4-1.824.18-1.576.4-1.576.4-.979.4-2.176.18-2.288.4-2.424.4-1.281.4-2.544c0-1.303.216-2.512.5-2.796.398-.398.5-25.025.5-120.46l-.5-120.46c-.284-.284-.5-1.493-.5-2.796 0-1.263-.18-2.408-.4-2.544s-.4-1.227-.4-2.424-.18-2.176-.4-2.176-.4-.81-.4-1.8-.18-1.8-.4-1.8-.4-.72-.4-1.6-.18-1.6-.4-1.6-.4-.63-.4-1.4-.18-1.4-.4-1.4-.4-.54-.4-1.2-.18-1.2-.4-1.2-.4-.36-.4-.8-.18-.8-.4-.8-.4-.54-.4-1.2-.18-1.2-.4-1.2-.4-.36-.4-.8-.18-.8-.4-.8-.4-.437-.4-.971-.607-2.109-1.348-3.5l-2.3-4.311c-.524-.981-1.165-2.017-1.426-2.303s-.588-.879-.727-1.317-.421-.798-.626-.798-.373-.32-.373-.712-.36-.971-.8-1.288-.8-.763-.8-.99-.72-1.179-1.6-2.113-1.6-1.87-1.6-2.079C380 31.124 368.871 20 368.377 20c-.207 0-1.118-.72-2.025-1.6s-1.857-1.6-2.112-1.6-.723-.36-1.04-.8-.897-.8-1.288-.8-.712-.158-.712-.351-.54-.576-1.2-.849-1.2-.611-1.2-.751-.579-.51-1.286-.823-2.019-1.064-2.915-1.669-2.119-1.222-2.718-1.372-1.187-.434-1.308-.629-.75-.356-1.397-.356S348 8.22 348 8s-.36-.4-.8-.4-.8-.18-.8-.4-.439-.4-.976-.4-1.088-.18-1.224-.4-.597-.4-1.024-.4-.776-.18-.776-.4-.54-.4-1.2-.4-1.2-.18-1.2-.4-.63-.4-1.4-.4-1.4-.18-1.4-.4-.72-.4-1.6-.4-1.6-.18-1.6-.4-.72-.4-1.6-.4-1.6-.18-1.6-.4-1.067-.4-2.4-.4-2.4-.178-2.4-.4-1.107-.4-2.52-.4c-1.483 0-2.726-.206-3.02-.5C319.993.233 92.121-.156 82.8.294m124 41.012c1.21.665 2.38 1.347 2.6 1.515s3.46 2.05 7.2 4.182l7.2 4.18c.22.167 1.39.844 2.6 1.507 1.717.94 26.257 15.048 32.2 18.512l25 14.398 25 14.399 15.6 9.002 16 9.259c.88.527 2.185 1.258 2.9 1.623l1.3.665v63.06l-18.3-.104-18.3-.104-.104-19.606c-.099-18.733-.137-19.627-.86-20.078-.415-.26-3.609-2.13-7.096-4.156L276.8 126.2a7660 7660 0 0 0-18.2-10.594 14390 14390 0 0 1-34.9-20.348l-13.483-7.867c-4.83-2.818-8.974-5.124-9.209-5.124s-3.932 2.033-8.217 4.518a5822 5822 0 0 1-9.091 5.267l-2.6 1.495a11079 11079 0 0 0-24.9 14.435l-7.7 4.471-2.6 1.495-10.1 5.85a4376 4376 0 0 1-12.7 7.351L118.2 130a398 398 0 0 1-5.4 3.105 187.98 187.98 0 0 0-4 2.315l-8.2 4.793-6.2 3.666c-.11.103-.29 9.037-.4 19.854l-.2 19.667-17.891.104-17.892.104-.202-.904c-.112-.497-.071-14.65.091-31.451l.294-30.547 9-5.206 13.1-7.547a36 36 0 0 0 2.562-1.6c.584-.414 1.161-.753 1.282-.753s1.174-.565 2.338-1.256a265 265 0 0 1 3.318-1.937l8.6-4.996 11.4-6.611 14.2-8.2 11.4-6.595L138.8 74l6.2-3.6 12.8-7.398 12.7-7.349 18.7-10.851c.99-.61 2.61-1.559 3.6-2.108l4.987-2.832 3.187-1.833 1.813 1.034 4.013 2.243m4.948 64.731c-.029.75-.27 3.343-.536 5.763a5104 5104 0 0 0-1.609 14.8c-.68 6.36-1.15 9.952-1.569 12a742 742 0 0 0-.821 4.1 3892 3892 0 0 1-1.402 7.1c-1.098 5.532-1.681 6.6-3.602 6.6-.341 0-.932.159-1.314.353a27 27 0 0 1-1.695.758c-.55.222-2.749 1.247-4.887 2.278-3.785 1.825-4.713 1.979-4.713.782 0-.32-.158-.894-.351-1.276-.538-1.066-1.249-3.472-1.249-4.229 0-.372-.164-.989-.364-1.371-.422-.805-1.857-6.018-2.244-8.153-.285-1.568-.078-2.023 4.356-9.542.584-.99 1.372-2.475 1.751-3.3s.827-1.5.995-1.5.306-.196.306-.435c0-.363 3.751-6.136 4.396-6.765.113-.11 1.005-1.37 1.983-2.8l4.375-6.4c1.429-2.09 2.713-3.89 2.854-4s1.2-1.606 2.353-3.324c2.204-3.285 3.074-3.704 2.987-1.439m-40.692 3.463c-.296 3.076-.74 6.622-1.517 12.1-.673 4.748-.688 10.549-.04 16 1.714 14.42 1.924 13.424-3.157 14.963a359 359 0 0 0-6.542 2.054c-4.823 1.588-5.349 1.595-7.463.1l-9.026-6.564c-.27-.261-1.125-.867-1.9-1.346-1.691-1.045-1.614-3.004.189-4.807.11-.11.572-.92 1.027-1.8.88-1.703 3.733-6.971 5.179-9.56.578-1.036 1.328-1.722 2.232-2.042 2.873-1.018 4.249-1.398 5.067-1.398.466 0 .959-.18 1.095-.4s.687-.4 1.224-.4.976-.188.976-.418.9-1.752 2-3.382 2-3.045 2-3.144 1.444-2.402 3.21-5.118 3.323-5.208 3.461-5.538c.373-.892 1.397-2 1.849-2 .248 0 .299 1.01.136 2.7m71.212 9l-1.471 11.1-.764 6c-.391 3.225-.773 5.517-1.596 9.6l-.789 4c-2.966 15.335-3.378 16.172-8.448 17.19l-6.4 1.377c-5.185 1.154-4.823 1.459-6.593-5.568-1.792-7.114-1.815-6.814.85-11.137a484 484 0 0 0 3.087-5.062c.456-.77.971-1.46 1.143-1.533s.313-.311.313-.528.54-1.18 1.2-2.139 1.2-1.937 1.2-2.172.18-.428.4-.428.4-.27.4-.6.18-.6.4-.6.4-.193.4-.428c0-.394 1.89-3.333 3.063-4.763.275-.335 1.363-1.702 2.418-3.037L237.2 122l2.944-3.745c1.603-2.037 2.398-1.945 2.124.245m26.381 19l-1.055 5.7a951 951 0 0 1-1.187 6.4l-.803 4.4c-.895 5.088-1.731 7.848-3.878 12.8-.334.77-.745 1.76-.913 2.2a130 130 0 0 1-1.613 4 100 100 0 0 0-.82 2c-1.416 3.619-1.376 3.578-4.408 4.545-.786.25-1.81.455-2.277.455s-.947.16-1.068.356-.806.45-1.523.566-2.172.424-3.232.683c-2.135.522-3.032-.03-3.059-1.881-.007-.482-.193-.988-.413-1.124s-.4-.676-.4-1.2-.18-1.064-.4-1.2-.4-.676-.4-1.2-.18-1.064-.4-1.2c-.673-.416-.428-2.741.4-3.8.43-.55.786-1.225.791-1.5s.189-.5.409-.5.4-.27.4-.6.18-.6.4-.6.4-.173.4-.383c0-.948 10.157-15.68 12.452-18.061l6.944-7.3c4.468-4.732 6.081-5.746 5.653-3.556m15.926 23.179c.229.597.036 2.739-.925 10.282-.138 1.079-.09 3.722.105 5.874l.355 3.913-2.124 6.526c-2.722 8.365-1.764 7.567-8.93 7.436l-6.029-.11-2.306-6.8c-2.997-8.839-3.132-8.083 1.679-9.4l2.8-.8 2.759-.837c1.056-.318 1.835-.817 1.947-1.247.103-.394.346-.716.541-.716s.353-.27.353-.6.18-.6.4-.6.4-.27.4-.6.18-.6.4-.6.4-.162.4-.36 1.277-2.403 2.837-4.9c4.87-7.794 4.84-7.758 5.338-6.461m-125.874 5.108l11.899 1.408 6.6.793 6.8.813 12.907 1.611c1.49.213 3.345.388 4.123.388 3.32 0 5.088.864 13.77 6.726l11.2 7.687c.11.117 2.18 1.547 4.6 3.177s4.46 3.109 4.533 3.287.355.323.625.323.851.336 1.292.746A10.1 10.1 0 0 0 238.8 194c.522.28 1.141.68 1.375.891s2.33 1.671 4.658 3.246l13.1 9.129c.074.184.344.334.6.335s1.097.54 1.867 1.199 1.61 1.199 1.867 1.199.526.148.6.329 1.256 1.085 2.628 2.011c2.951 1.992 2.67 1.005 3.659 12.852.889 10.649 1.012 10.036-2.397 11.913l-8.357 4.542c-.99.525-1.86 1.089-1.933 1.254s-.344.304-.6.309-.917.361-1.467.791c-1.059.828-3.384 1.073-3.8.4-.136-.22-.766-.4-1.4-.4s-1.264-.18-1.4-.4-.676-.4-1.2-.4-1.064-.18-1.2-.4-.689-.4-1.229-.4c-1.071 0-2.419-.648-3.367-1.619-.332-.34-1.234-1.052-2.004-1.581s-1.49-1.061-1.6-1.184-2-1.649-4.2-3.395l-4.2-3.399c-.11-.124-.859-.718-1.665-1.318s-1.706-1.32-2-1.598-1.194-.998-2-1.6-1.711-1.322-2.01-1.6-1.35-1.134-2.335-1.9l-2.39-1.881-4.2-3.377-3.8-3.121c-.11-.128-.859-.723-1.665-1.323s-1.706-1.32-2-1.598-1.165-.981-1.935-1.561-1.781-1.39-2.247-1.8a48 48 0 0 0-2.163-1.745c-.725-.55-2.78-2.17-4.567-3.6l-4.767-3.8c-2.214-1.752-5.321-2.152-22.314-2.869l-4.659-.196-1.241 1.805c-.683.992-1.242 1.997-1.242 2.232s-.136.428-.302.428c-.522 0-1.372 2.356-1.043 2.889.172.279.45 1.318.616 2.309s.483 2.702.703 3.802l.8 4 .826 4.2.8 4 1.573 8a971 971 0 0 0 1.627 8.2c1.606 7.883 1.944 9.947 1.695 10.361-.225.373-23.401.048-29.805-.419l-3.51-.256-2.139-3.643c-1.177-2.004-2.657-4.633-3.29-5.843s-1.245-2.29-1.359-2.4-.834-1.46-1.598-3-1.526-2.86-1.692-2.933-.302-.479-.302-.9-.18-.767-.4-.767-.4-.345-.4-.767-.145-.826-.321-.9-1.364-2.286-2.639-4.918l-2.317-4.784.477-5.016.829-8.215.587-6c.129-1.54.325-3.25.435-3.8.384-1.915 28.083-29.2 29.643-29.2.72 0 5.043.444 9.607.987m185.202 62.544c.397.253.481 6.448.4 29.638l-.103 29.319-3.8 2.215-15.2 8.808-12.6 7.288-10 5.799-10.1 5.852a2028 2028 0 0 0-8.7 5.044l-15 8.688-10.6 6.199c-.22.167-1.39.846-2.6 1.508s-6.16 3.506-11 6.319l-21.9 12.324c-.558-.334-.362-39.984.2-40.44.275-.224 1.13-.764 1.9-1.201l35.4-20.49 10-5.799 10-5.804 8.8-5.083a2415 2415 0 0 0 13-7.552l5.4-3.171.1-19.396.287-19.896c.216-.575 35.217-.739 36.116-.169M94.304 248.219l.103 19.619 10.037 5.781L119 282.006l20 11.598 7.4 4.28 16.4 9.51 13.4 7.789 3.2 1.859.104 20.279-.123 20.279c-.125 0-.982-.428-1.904-.951L150.6 341.086l-7-4.001c-1.21-.659-2.38-1.337-2.6-1.504s-4.99-2.958-10.6-6.2l-33.8-19.574-10-5.805a39504 39504 0 0 1-25.2-14.623l-3.6-2.091-.103-28.944.089-29.448c.151-.397 4.028-.482 18.303-.4l18.111.104zm100.496-6.276l5.4.833 5.2.819 5.2.816 5 .785c14.949 2.306 13.256 1.754 14.39 4.697a291 291 0 0 0 1.211 3.107c.508 1.258 2.52 6.588 5.356 14.191l2.609 6.991-4.655 9.009a3268 3268 0 0 0-6.283 12.209c-.895 1.76-1.763 3.26-1.928 3.333s-.3.479-.3.9-.138.767-.306.767-.603.675-.967 1.5c-1.399 3.172-1.174 3.133-6.327 1.096-4.494-1.776-6.861-2.754-10.296-4.255-.932-.408-1.88-.741-2.105-.741s-.722-.18-1.104-.4-1.538-.749-2.569-1.175-2.127-1.191-2.435-1.7l-3.026-4.849c-1.356-2.157-2.465-4.012-2.465-4.121s-.72-1.259-1.6-2.555-1.6-2.546-1.6-2.778a.413.413 0 0 0-.4-.422c-.22 0-.4-.175-.4-.389 0-.372-4.317-7.239-5.246-8.345-.457-.543-.426-1.449.454-13.266l.719-10.613c.427-6.997-.034-6.701 8.473-5.444"/><path fill="#640d05" d="M209.88 106.772c-.366.62-1.803 2.725-3.193 4.678-16.299 22.902-21.661 32.348-20.338 35.831.434 1.144.814 2.45 2.505 8.619 1.537 5.604 1.19 5.378 5.132 3.347 1.658-.854 4.586-2.144 6.508-2.867 1.962-.737 3.582-1.591 3.695-1.947.828-2.611 3.861-19.379 4.383-24.233l1.022-9.2.804-7.4.635-5.865c.252-2.043-.261-2.472-1.153-.963m-39.847 1.702c-.246.289-1.407 2.056-2.579 3.926l-5.266 8.4c-4.011 6.399-3.319 5.806-8.538 7.305l-4.511 1.295-1.101 2-4.17 7.563c-3.582 6.495-3.582 6.497-1.367 7.958.934.617 2.869 1.997 4.299 3.066 6.901 5.162 7.751 5.656 9.017 5.244l7.183-2.256c8.139-2.538 7.53-1.26 6.192-12.975l-1.016-9.2c-.14-1.425.276-5.792 1.18-12.39 1.426-10.398 1.457-10.853.677-9.936m67.468 14.044l-6.812 8.699c-1.822 2.319-4.858 6.729-6.746 9.8a2581 2581 0 0 1-5.548 8.983l-2.687 4.4c-.937 1.641 2.191 13.418 3.55 13.36 1.414-.06 13.669-2.922 13.975-3.264.245-.273.997-3.15 2.534-9.696 1.907-8.123 5.83-32.537 5.833-36.3 0-1.027-.688-.352-4.099 4.018m29.245 15.385c-.3.424-3.414 3.768-6.919 7.431s-7.04 7.697-7.857 8.963l-6.372 9.895-4.887 7.591 1.592 4.609c1.849 5.352 1.562 5.205 7.097 3.638 1.76-.499 3.971-1.086 4.914-1.304 2.18-.505 2.174-.495 6.105-10.326 3.035-7.592 3.641-9.632 4.813-16.2l.774-4.2.822-4.6c.262-1.54.629-3.425.816-4.188.404-1.647-.118-2.408-.898-1.309m14.571 27.221l-4.941 7.75-2.624 4.126-4.776 1.336a816 816 0 0 0-5.276 1.488c-.764.231-.659.719 1.635 7.586 2.477 7.417 1.785 6.866 8.716 6.943 5.105.057 4.568.559 7.003-6.557l1.915-5.596.043-6.6c.024-3.63.249-8.212.5-10.183.584-4.59.556-4.594-2.195-.293m-146.981 13.951c-8.769 8.766-13.993 14.281-14.129 14.917-.119.554-.404 2.898-.633 5.208l-.791 7.6a204.73 204.73 0 0 0-.618 7l-.244 3.6 4.426 8.674c5.143 10.08 7.866 15.059 10.295 18.826l1.742 2.7h5.299c2.915 0 10.043.196 15.84.435 11.999.495 11.083.678 10.506-2.104l-2.837-14.331-4.038-20.495c-.904-4.562-1.526-8.6-1.384-8.972s1.095-1.995 2.115-3.605c2.14-3.378 1.055-3.12 10.515-2.503l11.467.728 5.267.322 4.733 3.762a20314 20314 0 0 1 27.733 22.175l23 18.413 4.635 1.287c5.899 1.639 4.543 1.939 13.34-2.945 9.628-5.345 8.712-4.234 8.226-9.984l-.788-9.612c-.475-5.978-.307-5.606-3.516-7.771l-8.483-5.828A5000 5000 0 0 0 237.4 193.79a7762 7762 0 0 1-22.163-15.215l-9.363-6.462-4.037-.479a855 855 0 0 1-6.837-.84l-6.6-.797-6.8-.805-6.6-.792-6.6-.792-6.8-.808-11.775-1.431-1.576-.203zm53.1 64.886c-.279 2.471-.65 7.419-1.475 19.716l-.448 6.678 7.744 12.419L201 295.193l7.4 2.983 10.905 4.466c1.928.815 3.565 1.409 3.64 1.32.14-.168 4.427-8.406 9.451-18.162l4.469-8.664 1.587-3.064-1.659-4.336a2550.072 2550.072 0 0 1-7.259-19.252c-.65-1.752-1.177-2.569-1.734-2.689-.44-.096-3.77-.628-7.4-1.184a4282 4282 0 0 1-18-2.817l-13.043-2.047-1.643-.24z"/><path fill="#e3c390" d="M197.787 39.862a503 503 0 0 1-4.987 2.832l-3.6 2.108c-1.444.891-10.077 5.9-18.7 10.851l-12.7 7.349L145 70.4l-6.2 3.6a379 379 0 0 1-3.4 2.005L124 82.6l-14.2 8.2-11.4 6.611-8.6 4.996-3.318 1.937c-1.164.691-2.216 1.256-2.338 1.256s-.698.339-1.282.753a36 36 0 0 1-2.562 1.6L67.2 115.5l-9 5.206-.294 30.547-.091 31.451.202.904 17.892-.104L93.8 183.4l.2-19.667.4-19.854c.11-.103 2.9-1.753 6.2-3.666l8.2-4.793 4-2.315 5.4-3.105 4.9-2.851 12.7-7.351 10.1-5.85 2.6-1.495 7.7-4.471 24.9-14.435 2.6-1.495 9.091-5.267c4.285-2.485 7.983-4.518 8.217-4.518s4.379 2.306 9.209 5.124l13.483 7.867a14389.75 14389.75 0 0 0 34.9 20.348 7660 7660 0 0 1 18.2 10.594l22.94 13.36 7.096 4.156c.723.451.761 1.345.86 20.078l.104 19.606 18.3.104 18.3.104v-63.06l-1.3-.665a60 60 0 0 1-2.9-1.623c-.88-.527-8.08-4.694-16-9.259l-15.6-9.002-25-14.399-25-14.398-32.2-18.512c-1.21-.663-2.38-1.341-2.6-1.507s-3.46-2.047-7.2-4.18l-7.2-4.182c-.22-.168-1.39-.85-2.6-1.515a366 366 0 0 1-4.013-2.243l-1.813-1.034zm10.974 67.614c-1.153 1.718-2.212 3.214-2.353 3.324s-1.425 1.91-2.854 4l-4.375 6.4c-.978 1.43-1.87 2.69-1.983 2.8-.645.629-4.396 6.402-4.396 6.765 0 .239-.138.435-.306.435s-.616.675-.995 1.5-1.167 2.31-1.751 3.3c-4.434 7.519-4.641 7.974-4.356 9.542.387 2.135 1.822 7.348 2.244 8.153.2.382.364.999.364 1.371 0 .757.711 3.163 1.249 4.229.193.382.351.956.351 1.276 0 1.197.928 1.043 4.713-.782l4.887-2.278a27 27 0 0 0 1.695-.758c.382-.194.973-.353 1.314-.353 1.921 0 2.504-1.068 3.602-6.6l1.402-7.1.821-4.1c.419-2.048.889-5.64 1.569-12l1.609-14.8c.937-8.522.675-8.983-2.451-4.324m2.272.259l-.635 5.865-.804 7.4-1.022 9.2c-.522 4.854-3.555 21.622-4.383 24.233-.113.356-1.733 1.21-3.695 1.947-1.922.723-4.85 2.013-6.508 2.867-3.942 2.031-3.595 2.257-5.132-3.347-1.691-6.169-2.071-7.475-2.505-8.619-1.323-3.483 4.039-12.929 20.338-35.831 1.39-1.953 2.827-4.058 3.193-4.678.892-1.509 1.405-1.08 1.153.963m-41.11-.235c-.331.385-.714.97-.852 1.3s-1.696 2.822-3.461 5.538-3.21 5.02-3.21 5.118-.9 1.514-2 3.144-2 3.152-2 3.382-.439.418-.976.418-1.088.18-1.224.4-.629.4-1.095.4c-.818 0-2.194.38-5.067 1.398-.904.32-1.654 1.006-2.232 2.042l-5.179 9.56c-.455.88-.917 1.69-1.027 1.8-1.803 1.803-1.88 3.762-.189 4.807.775.479 1.63 1.085 1.9 1.346.439.425 3.758 2.839 9.026 6.564 2.114 1.495 2.64 1.488 7.463-.1a359 359 0 0 1 6.542-2.054c5.081-1.539 4.871-.543 3.157-14.963-.648-5.451-.633-11.252.04-16 2-14.105 2.053-16.043.384-14.1m-.567 10.91c-.904 6.598-1.32 10.965-1.18 12.39l1.016 9.2c1.338 11.715 1.947 10.437-6.192 12.975l-7.183 2.256c-1.266.412-2.116-.082-9.017-5.244-1.43-1.069-3.365-2.449-4.299-3.066-2.215-1.461-2.215-1.463 1.367-7.958l4.17-7.563 1.101-2 4.511-1.295c5.219-1.499 4.527-.906 8.538-7.305l5.266-8.4c3.739-5.964 3.603-6.394 1.902 6.01m70.788-.155L237.2 122l-6.119 7.772a373 373 0 0 1-2.418 3.037c-1.173 1.43-3.063 4.369-3.063 4.763 0 .235-.18.428-.4.428s-.4.27-.4.6-.18.6-.4.6-.4.193-.4.428-.54 1.213-1.2 2.172-1.2 1.922-1.2 2.139-.141.454-.313.528-.687.763-1.143 1.533a484 484 0 0 1-3.087 5.062c-2.665 4.323-2.642 4.023-.85 11.137 1.77 7.027 1.408 6.722 6.593 5.568l6.4-1.377c5.07-1.018 5.482-1.855 8.448-17.19l.789-4c.823-4.083 1.205-6.375 1.596-9.6l.764-6 1.471-11.1c.274-2.19-.521-2.282-2.124-.245m1.456.245c-.003 3.763-3.926 28.177-5.833 36.3-1.537 6.546-2.289 9.423-2.534 9.696-.306.342-12.561 3.204-13.975 3.264-1.359.058-4.487-11.719-3.55-13.36.315-.55 1.524-2.53 2.687-4.4l5.548-8.983c1.888-3.071 4.924-7.481 6.746-9.8l6.812-8.699c3.411-4.37 4.099-5.045 4.099-4.018m21.396 22.556a1281 1281 0 0 1-6.944 7.3c-2.295 2.381-12.452 17.113-12.452 18.061 0 .21-.18.383-.4.383s-.4.27-.4.6-.18.6-.4.6-.404.225-.409.5-.361.95-.791 1.5c-.828 1.059-1.073 3.384-.4 3.8.22.136.4.676.4 1.2s.18 1.064.4 1.2.4.676.4 1.2.18 1.064.4 1.2.406.642.413 1.124c.027 1.851.924 2.403 3.059 1.881 1.06-.259 2.515-.567 3.232-.683s1.402-.371 1.523-.566.602-.356 1.068-.356 1.491-.205 2.277-.455c3.032-.967 2.992-.926 4.408-4.545a99.48 99.48 0 0 1 .82-2c.561-1.328 1.147-2.78 1.613-4 .168-.44.579-1.43.913-2.2 2.147-4.952 2.983-7.712 3.878-12.8l.803-4.4 1.187-6.4 1.055-5.7c.428-2.19-1.185-1.176-5.653 3.556m4.648-1.844c-.187.763-.555 2.648-.816 4.188l-.822 4.6-.774 4.2c-1.172 6.568-1.778 8.608-4.813 16.2-3.931 9.831-3.925 9.821-6.105 10.326-.943.218-3.154.805-4.914 1.304-5.535 1.567-5.248 1.714-7.097-3.638l-1.592-4.609 4.887-7.591 6.372-9.895c.817-1.266 4.352-5.3 7.857-8.963l6.919-7.431c.78-1.099 1.302-.338.898 1.309m15.293 22.091c-2.288 3.437-6.537 10.417-6.537 10.737 0 .198-.18.36-.4.36s-.4.27-.4.6-.18.6-.4.6-.4.27-.4.6-.159.6-.353.6-.438.322-.541.716c-.112.43-.891.929-1.947 1.247l-2.759.837c-.55.169-1.81.529-2.8.8-4.811 1.317-4.676.561-1.679 9.4l2.306 6.8 6.029.11c7.166.131 6.208.929 8.93-7.436l2.124-6.526-.355-3.913c-.195-2.152-.243-4.795-.105-5.874 1.443-11.324 1.339-12.742-.713-9.658m.575 4.114c-.251 1.971-.476 6.553-.5 10.183l-.043 6.6-1.915 5.596c-2.435 7.116-1.898 6.614-7.003 6.557-6.931-.077-6.239.474-8.716-6.943-2.294-6.867-2.399-7.355-1.635-7.586.275-.083 2.649-.753 5.276-1.488l4.776-1.336 2.624-4.126c6.243-9.818 7.268-11.364 7.425-11.206.092.092-.038 1.779-.289 3.749M133.718 178.9c-8.952 8.973-14.139 14.464-14.267 15.1-.11.55-.306 2.26-.435 3.8a280 280 0 0 1-.587 6l-.829 8.215-.477 5.016 2.317 4.784c1.275 2.632 2.462 4.845 2.639 4.918s.321.479.321.9.18.767.4.767.4.345.4.767.136.826.302.9.927 1.393 1.692 2.933 1.483 2.89 1.598 3 .726 1.19 1.359 2.4 2.113 3.839 3.29 5.843l2.139 3.643 3.51.256c6.404.467 29.58.792 29.805.419.249-.414-.089-2.478-1.695-10.361a971 971 0 0 1-1.627-8.2L162 222l-.8-4-.826-4.2-.8-4-.703-3.802c-.167-.991-.444-2.03-.616-2.309-.329-.533.521-2.889 1.043-2.889.166 0 .302-.193.302-.428s.559-1.24 1.242-2.232l1.241-1.805 4.659.196c16.993.717 20.1 1.117 22.314 2.869l4.767 3.8a324 324 0 0 0 4.567 3.6c.724.55 1.698 1.335 2.163 1.745s1.477 1.22 2.247 1.8 1.641 1.283 1.935 1.561 1.194.997 2 1.598 1.555 1.195 1.665 1.323 1.82 1.531 3.8 3.121l4.2 3.377c.33.268 1.406 1.114 2.39 1.881s2.035 1.622 2.335 1.9 1.204.998 2.01 1.6 1.706 1.322 2 1.6 1.194.997 2 1.598 1.555 1.193 1.665 1.318 2 1.654 4.2 3.399l4.2 3.395c.11.123.83.655 1.6 1.184s1.672 1.241 2.004 1.581c.948.971 2.296 1.619 3.367 1.619.54 0 1.093.18 1.229.4s.676.4 1.2.4 1.064.18 1.2.4.766.4 1.4.4 1.264.18 1.4.4c.416.673 2.741.428 3.8-.4.55-.43 1.21-.786 1.467-.791s.526-.144.6-.309.943-.729 1.933-1.254l8.357-4.542c3.409-1.877 3.286-1.264 2.397-11.913-.989-11.847-.708-10.86-3.659-12.852-1.372-.926-2.555-1.831-2.628-2.011s-.344-.328-.6-.329-1.097-.54-1.867-1.199-1.61-1.199-1.867-1.199-.526-.151-.6-.335c-.124-.31-2.12-1.701-13.1-9.129l-4.658-3.246c-.234-.211-.853-.611-1.375-.891a10.1 10.1 0 0 1-1.75-1.254c-.441-.41-1.022-.746-1.292-.746s-.551-.145-.625-.323-2.113-1.657-4.533-3.287l-4.6-3.177c-.283-.302-1.512-1.145-11.2-7.687-8.682-5.862-10.45-6.726-13.77-6.726-.778 0-2.633-.175-4.123-.388-2.922-.418-6.899-.915-12.907-1.611l-6.8-.813-6.6-.793-11.899-1.408c-4.565-.543-8.887-.987-9.607-.987-1.188 0-2.611 1.305-15.376 14.1m20.882-12.934l7 .834 6.8.808 6.6.792 6.6.792 6.8.805 6.6.797 6.837.84 4.037.479 9.363 6.462A7762 7762 0 0 0 237.4 193.79a5000 5000 0 0 1 18.614 12.782l8.483 5.828c3.209 2.165 3.041 1.793 3.516 7.771l.788 9.612c.486 5.75 1.402 4.639-8.226 9.984-8.797 4.884-7.441 4.584-13.34 2.945l-4.635-1.287-23-18.413a20314 20314 0 0 0-27.733-22.175l-4.733-3.762-5.267-.322-11.467-.728c-9.46-.617-8.375-.875-10.515 2.503-1.02 1.61-1.972 3.232-2.115 3.605s.48 4.41 1.384 8.972l4.038 20.495 2.837 14.331c.577 2.782 1.493 2.599-10.506 2.104l-15.84-.435h-5.299l-1.742-2.7c-2.429-3.767-5.152-8.746-10.295-18.826l-4.426-8.674.244-3.6c.134-1.98.412-5.13.618-7l.791-7.6c.23-2.31.514-4.654.633-5.208.136-.636 5.36-6.151 14.129-14.917l13.913-13.909 1.576.203 4.775.597M307.787 228.5c-.103.275-.232 9.228-.287 19.896l-.1 19.396-5.4 3.171a2415 2415 0 0 1-13 7.552l-8.8 5.083-10 5.804-10 5.799-35.4 20.49c-.77.437-1.625.977-1.9 1.201-.562.456-.758 40.106-.2 40.44.291.175 3.464-1.611 21.9-12.324l11-6.319c1.21-.662 2.38-1.341 2.6-1.508s4.99-2.957 10.6-6.199l15-8.688a2028 2028 0 0 1 8.7-5.044l10.1-5.852 10-5.799 12.6-7.288 15.2-8.808 3.8-2.215.103-29.319c.081-23.19-.003-29.385-.4-29.638-.899-.57-35.9-.406-36.116.169m-250.001.396c-.106.277-.146 13.529-.089 29.448l.103 28.944 3.6 2.091a39504 39504 0 0 0 25.2 14.623l10 5.805 33.8 19.574 10.6 6.2c.22.167 1.39.844 2.6 1.504s4.36 2.46 7 4.001l26.877 15.563c.922.523 1.779.951 1.904.951s.18-9.125.123-20.279l-.104-20.279-3.2-1.859-13.4-7.789-16.4-9.51-7.4-4.28a30544 30544 0 0 0-20-11.598l-14.556-8.387-10.037-5.781-.103-19.619L94.2 228.6l-18.111-.104c-14.275-.082-18.152.003-18.303.4m129.18 12.759c-.176.285-.464 2.865-.639 5.732a945 945 0 0 1-.719 10.613c-.88 11.817-.911 12.723-.454 13.266.929 1.106 5.246 7.973 5.246 8.345 0 .214.18.389.4.389s.4.19.4.422.72 1.482 1.6 2.778 1.6 2.445 1.6 2.555 1.109 1.964 2.465 4.121a633 633 0 0 1 3.026 4.849c.308.509 1.404 1.274 2.435 1.7s2.187.955 2.569 1.175.879.4 1.104.4 1.173.333 2.105.741c3.435 1.501 5.802 2.479 10.296 4.255 5.153 2.037 4.928 2.076 6.327-1.096.364-.825.799-1.5.967-1.5s.306-.345.306-.767.135-.826.3-.9 1.033-1.573 1.928-3.333l6.283-12.209 4.655-9.009-2.609-6.991L231.201 253l-1.211-3.107c-1.134-2.943.559-2.391-14.39-4.697l-5-.785-5.2-.816-5.2-.819c-9.675-1.552-12.804-1.817-13.234-1.121m15.434 2.139l18 2.817 7.4 1.184c.557.12 1.084.937 1.734 2.689a2550 2550 0 0 0 7.259 19.252l1.659 4.336-1.587 3.064-4.469 8.664-9.451 18.162c-.075.089-1.713-.505-3.64-1.32l-10.905-4.466-7.4-2.983-7.743-12.419-7.744-12.419.448-6.678 1.475-19.716.278-2.454 1.643.24 13.043 2.047"/></svg>