<svg id="Layer_1" data-name="Layer 1" xmlns="http://www.w3.org/2000/svg" viewBox="0 0 638 638"><defs><style>.cls-1{fill:#104ab8;}.cls-1,.cls-2,.cls-3,.cls-4{fill-rule:evenodd;}.cls-2{fill:#fff;}.cls-3{fill:#ffed31;}.cls-4{fill:#1c252c;}</style></defs><title>Best Buy Logo Vector</title><g id="logo-en"><polygon class="cls-1" points="0 0 638 0 638 638 0 638 0 0 0 0"/><path class="cls-2" d="M232,347.26V482.49h70.8c27.87,0,53.62-9.78,53.62-38.51,0-19.42-14-28.29-29.38-32.93,9.37-3.76,20-11.66,20-28.23,0-21.2-21-35.56-49.35-35.56Zm43.37,31.5h15.95c6.49,0,11.44,5.08,11.44,10.24,0,4.8-5.14,9.93-11.44,9.93H275.41V378.76Zm0,48.23h21c7.35,0,13.52,5.59,13.52,12,0,6.78-5.77,12.4-14.79,12.4H275.41V427Z" transform="translate(-181 -181)"/><path class="cls-2" d="M267.12,497.24V632.46h70.8c27.87,0,53.62-9.78,53.62-38.51,0-19.42-14-28.29-29.38-32.93,9.38-3.76,20-11.66,20-28.22,0-21.2-21-35.56-49.35-35.56Zm43.37,31.49h15.95c6.49,0,11.44,5.08,11.44,10.25,0,4.79-5.14,9.92-11.44,9.92H310.49V528.73Zm0,48.24h21.05c7.35,0,13.52,5.58,13.52,12,0,6.77-5.77,12.4-14.79,12.4H310.49V577Z" transform="translate(-181 -181)"/><polygon class="cls-2" points="178.87 301.47 178.87 166.25 287.94 166.25 287.94 198.9 222.11 198.9 222.11 216.64 275.56 216.64 275.56 247.25 222.11 247.25 222.11 268.94 287.94 268.94 287.94 301.47 178.87 301.47 178.87 301.47"/><path class="cls-2" d="M528,486.34c30.7,0,55.26-17.51,55.26-45.89,0-45.8-59.58-38.75-59.58-53,0-5.51,5.79-8.43,11.73-8.43,10.24,0,17.64,6.74,17.64,6.74l25.63-24.41c-10.25-9.75-26.44-18-48.26-18-32.75,0-54.19,19.45-54.19,42.9,0,46.38,58.73,39.65,58.73,54.2,0,5.11-4.91,10.24-13.81,10.24-10.11,0-18.12-6.1-24.35-11.28L471,464c10.38,10.12,27,22.32,57,22.32Z" transform="translate(-181 -181)"/><polygon class="cls-2" points="435.66 301.47 435.66 198.78 399.94 198.78 399.94 166.25 514.75 166.25 514.75 198.78 479.04 198.78 479.04 301.47 435.66 301.47 435.66 301.47"/><path class="cls-2" d="M393,497.14h43.25v81c0,8.22,8.19,15.8,16.72,15.8,8.05,0,16.19-6.84,16.19-16.23V497.14h43.12v80c0,31.76-26.36,57.09-60.45,57.09-34.28,0-58.83-27.57-58.83-58.82V497.14Z" transform="translate(-181 -181)"/><polygon class="cls-2" points="384.63 451.37 384.63 403.05 333.81 316.14 377.56 316.14 406.32 362.7 435.18 316.14 479.04 316.14 428.01 403.54 428.01 451.37 384.63 451.37 384.63 451.37"/><polygon class="cls-3" points="479.04 390.15 453.52 415.66 453.52 450.11 479.04 475.62 586.96 475.62 586.96 390.15 479.04 390.15 479.04 390.15"/><path class="cls-4" d="M655.85,613.87a5.75,5.75,0,1,1-5.75-5.74,5.74,5.74,0,0,1,5.75,5.74Z" transform="translate(-181 -181)"/></g></svg>