<svg xmlns="http://www.w3.org/2000/svg" width="1000" height="584.48486" >
  <g transform="translate(-137.5,-22.390163)">
    <path style="fill:#1c252c" d="m 137.5,29.631487 0,252.320873 132.1114,0 c 51.99819,0 100.05059,-18.25003 100.05059,-71.85789 0,-36.24066 -26.10767,-52.7841 -54.82326,-61.4437 17.4955,-7.01771 37.3423,-21.76056 37.3423,-52.666034 0,-39.55613 -39.24823,-66.353249 -92.09117,-66.353249 l -122.58986,0 z m 80.93311,58.76577 29.75482,0 c 12.11271,0 21.34908,9.487931 21.34908,19.117473 0,8.94677 -9.59745,18.52237 -21.34908,18.52237 l -29.75482,0 0,-37.639843 z m 0,90.008333 39.27636,0 c 13.71131,0 25.21721,10.41366 25.21721,22.31611 0,12.63921 -10.76115,23.13438 -27.59759,23.13438 l -36.89598,0 0,-45.45049 z" id="path2998" />
    <path id="path3005" d="m 202.9606,309.47481 0,252.32088 132.11141,0 c 51.99819,0 100.05058,-18.25004 100.05058,-71.8579 0,-36.24065 -26.10766,-52.78409 -54.82326,-61.4437 17.4955,-7.01771 37.3423,-21.76056 37.3423,-52.66603 0,-39.55613 -39.24822,-66.35325 -92.09117,-66.35325 l -122.58986,0 z m 80.93312,58.76577 29.75482,0 c 12.11271,0 21.34908,9.48793 21.34908,19.11747 0,8.94678 -9.59745,18.52238 -21.34908,18.52238 l -29.75482,0 0,-37.63985 z m 0,90.00833 39.27636,0 c 13.71131,0 25.21721,10.41366 25.21721,22.31612 0,12.6392 -10.76115,23.13437 -27.5976,23.13437 l -36.89597,0 0,-45.45049 z" style="fill:#1c252c" />
    <path style="fill:#1c252c" d="m 376.01464,281.92185 0,-252.32088 203.52297,0 0,60.937872 -122.8279,0 0,33.087358 99.73816,0 0,57.12926 -99.73816,0 0,40.46655 122.8279,0 0,60.69984 z" id="path3007"/>
    <path style="fill:#1c252c" d="m 689.78812,289.1442 c 57.28767,0 103.11071,-32.67744 103.11071,-85.63169 0,-85.46143 -111.17753,-72.31037 -111.17753,-98.91916 0,-10.278288 10.80934,-15.732656 21.89462,-15.732656 19.10438,0 32.9075,12.586126 32.9075,12.586126 L 784.35446,55.903565 C 765.2233,37.697019 735.00886,22.390163 694.30743,22.390163 c -61.12759,0 -101.11859,36.280243 -101.11859,80.044867 0,86.54828 109.57491,73.98694 109.57491,101.14304 0,9.51935 -9.15835,19.09619 -25.76901,19.09619 -18.85922,0 -33.79879,-11.38479 -45.42578,-21.04418 l -48.11128,45.86837 c 19.37303,18.87022 50.47517,41.64575 106.33044,41.64575 z" id="path3009" />
    <path style="fill:#1c252c" d="m 855.18627,281.92185 0,-191.621047 -66.6508,0 0,-60.699833 214.23473,0 0,60.699833 -66.65082,0 0,191.621047 z" id="path3011" />
    <path style="fill:#1c252c" d="m 437.90467,309.29628 80.69507,0 0,151.15449 c 0,15.34925 15.27608,29.49386 31.20285,29.49386 15.02419,0 30.2111,-12.77313 30.2111,-30.30098 l 0,-150.34737 80.45703,0 0,149.31902 c 0,59.25051 -49.19276,106.51359 -112.80036,106.51359 -63.96969,0 -109.76569,-51.43651 -109.76569,-109.74208 z"  id="path3013" />
    <path style="fill:#1c252c;fill-opacity:1;stroke:none" d="m 759.97084,561.61716 0,-90.16156 -94.84461,-162.15932 81.6448,0 53.66637,86.88408 53.85177,-86.88408 81.83021,0 -95.21543,163.08638 0,89.2345 z" id="path3015" />
    <path style="fill:#ffed31" d="m 936.11938,447.38916 -47.60772,47.60772 0,64.27041 47.60772,47.60771 201.38062,0 0,-159.48584 z" id="path3017" />
    <path style="fill:#1c252c" id="path3024" d="m 469,573.36218 c 0,2.20914 -1.79086,4 -4,4 -2.20914,0 -4,-1.79086 -4,-4 0,-2.20914 1.79086,-4 4,-4 2.20914,0 4,1.79086 4,4 z" transform="matrix(2.6779338,0,0,2.6779338,-327.65077,-1008.3244)" />
  </g>
</svg>