<svg xmlns="http://www.w3.org/2000/svg" id="Layer_1" data-name="Layer 1" viewBox="0 0 638 638"><defs><style>.cls-2{fill-rule:evenodd;fill:#fff}</style></defs><g id="logo-en"><path d="M0 0h638v638H0V0z" style="fill-rule:evenodd;fill:#104ab8"/><path d="M51 166.26v135.23h70.8c27.87 0 53.62-9.78 53.62-38.51 0-19.42-14-28.29-29.38-32.93 9.37-3.76 20-11.66 20-28.23 0-21.2-21-35.56-49.35-35.56Zm43.37 31.5h15.95c6.49 0 11.44 5.08 11.44 10.24 0 4.8-5.14 9.93-11.44 9.93H94.41v-20.17Zm0 48.23h21c7.35 0 13.52 5.59 13.52 12 0 6.78-5.77 12.4-14.79 12.4H94.41V246ZM86.12 316.24v135.22h70.8c27.87 0 53.62-9.78 53.62-38.51 0-19.42-14-28.29-29.38-32.93 9.38-3.76 20-11.66 20-28.22 0-21.2-21-35.56-49.35-35.56Zm43.37 31.49h15.95c6.49 0 11.44 5.08 11.44 10.25 0 4.79-5.14 9.92-11.44 9.92h-15.95v-20.17Zm0 48.24h21.05c7.35 0 13.52 5.58 13.52 12 0 6.77-5.77 12.4-14.79 12.4h-19.78V396ZM178.87 301.47V166.25h109.07v32.65h-65.83v17.74h53.45v30.61h-53.45v21.69h65.83v32.53H178.87zM347 305.34c30.7 0 55.26-17.51 55.26-45.89 0-45.8-59.58-38.75-59.58-53 0-5.51 5.79-8.43 11.73-8.43 10.24 0 17.64 6.74 17.64 6.74l25.63-24.41c-10.25-9.75-26.44-18-48.26-18-32.75 0-54.19 19.45-54.19 42.9 0 46.38 58.73 39.65 58.73 54.2 0 5.11-4.91 10.24-13.81 10.24-10.11 0-18.12-6.1-24.35-11.28L290 283c10.38 10.12 27 22.32 57 22.32ZM435.66 301.47V198.78h-35.72v-32.53h114.81v32.53h-35.71v102.69h-43.38zM212 316.14h43.25v81c0 8.22 8.19 15.8 16.72 15.8 8.05 0 16.19-6.84 16.19-16.23v-80.57h43.12v80c0 31.76-26.36 57.09-60.45 57.09-34.28 0-58.83-27.57-58.83-58.82v-78.27ZM384.63 451.37v-48.32l-50.82-86.91h43.75l28.76 46.56 28.86-46.56h43.86l-51.03 87.4v47.83h-43.38z" class="cls-2"/><path d="m479.04 390.15-25.52 25.51v34.45l25.52 25.51h107.92v-85.47H479.04z" style="fill:#ffed31;fill-rule:evenodd"/><path d="M655.85 613.87a5.75 5.75 0 1 1-5.75-5.74 5.74 5.74 0 0 1 5.75 5.74Z" style="fill:#1c252c;fill-rule:evenodd" transform="translate(-181 -181)"/></g></svg>