<?xml version="1.0" encoding="UTF-8"?>
<svg version="1.1" xmlns="http://www.w3.org/2000/svg" width="365" height="257">
<path d="M0 0 C120.45 0 240.9 0 365 0 C365 84.81 365 169.62 365 257 C244.55 257 124.1 257 0 257 C0 172.19 0 87.38 0 0 Z " fill="#F3E915" transform="translate(0,0)"/>
<path d="M0 0 C120.45 0 240.9 0 365 0 C365 84.81 365 169.62 365 257 C244.55 257 124.1 257 0 257 C0 172.19 0 87.38 0 0 Z M86.31640625 11.38671875 C85.4035083 12.16619873 85.4035083 12.16619873 84.47216797 12.96142578 C83.52688232 13.81583252 83.52688232 13.81583252 82.5625 14.6875 C81.16225845 15.88917267 79.75984276 17.08831573 78.35546875 18.28515625 C77.28111572 19.21158936 77.28111572 19.21158936 76.18505859 20.15673828 C72.68191259 23.11190614 69.03343029 25.86621098 65.375 28.625 C63.94350028 29.71156783 62.5125042 30.79879953 61.08203125 31.88671875 C60.39318848 32.41056152 59.7043457 32.9344043 58.99462891 33.47412109 C55.99582585 35.76818708 53.02679269 38.09910281 50.0625 40.4375 C44.57363438 44.76434828 39.07419934 49.07725707 33.5625 53.375 C32.81685791 53.95822021 32.07121582 54.54144043 31.30297852 55.14233398 C30.58553467 55.70122314 29.86809082 56.2601123 29.12890625 56.8359375 C28.50056885 57.32626465 27.87223145 57.8165918 27.22485352 58.32177734 C25 60 25 60 23.26116943 60.75753784 C20.9309108 61.94343864 19.62961303 62.93243338 18 65 C16.5567826 70.16014376 16.22105851 75.39137799 15.8203125 80.7109375 C15.67854354 82.28236725 15.53395347 83.85354479 15.38668823 85.42446899 C15.00659902 89.56267985 14.66569955 93.70322916 14.33270264 97.84545898 C13.99076384 102.00981732 13.61062723 106.17065935 13.234375 110.33203125 C12.50093563 118.53522988 11.79796624 126.73994077 11.16522026 134.95154762 C10.99587913 137.05109182 10.80441412 139.14786959 10.61061096 141.24528503 C10.49610396 142.59651303 10.38198736 143.94777418 10.26831055 145.29907227 C10.10736153 147.0826992 10.10736153 147.0826992 9.94316101 148.90235901 C10.01807369 152.98498917 11.16372725 155.03107795 13.92407227 157.93969727 C14.79696899 158.74298462 14.79696899 158.74298462 15.6875 159.5625 C16.89953891 160.81143207 18.11045166 162.06145788 19.3203125 163.3125 C19.9380957 163.92480469 20.55587891 164.53710938 21.19238281 165.16796875 C23.98127153 167.99452479 26.51166225 171.02234391 29.0625 174.0625 C30.05219203 175.22107258 31.04307759 176.37862667 32.03515625 177.53515625 C32.52387207 178.10637207 33.01258789 178.67758789 33.51611328 179.26611328 C35.50880547 181.59452722 37.50335862 183.92134289 39.49804688 186.24804688 C40.9976101 187.9972123 42.49685209 189.74665271 43.99609375 191.49609375 C46.00799002 193.84341526 48.02112758 196.18966417 50.03515625 198.53515625 C50.78502808 199.41059082 50.78502808 199.41059082 51.55004883 200.30371094 C52.55412925 201.47132924 53.56305789 202.63479672 54.5769043 203.79394531 C57.08603611 206.67807991 59.45577923 209.58273147 61.671875 212.69921875 C66.4742549 219.31063447 66.4742549 219.31063447 73.53125 223.21875 C77.38946446 223.76081319 81.10572215 223.95211953 85 224 C87.27166723 224.1548864 89.54257808 224.32134874 91.8125 224.5 C93.45496704 224.60465576 93.45496704 224.60465576 95.13061523 224.71142578 C99.03032827 225.00226185 102.9027318 225.4251879 106.78515625 225.8828125 C117.8389659 227.1454861 128.91914626 228.09315237 140.00210571 229.05886841 C157.94934904 230.62493414 175.88980813 232.23562429 193.8125 234.0625 C224.13300439 237.14813823 254.48506881 239.88361799 284.84399414 242.56152344 C297.78379593 243.70443677 310.71871132 244.89268443 323.64916992 246.13696289 C324.85033447 246.25160889 326.05149902 246.36625488 327.2890625 246.484375 C328.84681396 246.63471191 328.84681396 246.63471191 330.43603516 246.78808594 C333.06951634 247.04118503 333.06951634 247.04118503 336 247 C338.04119346 232.36586062 339.66500484 217.74328171 340.90579224 203.0206604 C341.41555771 196.98912594 341.94493307 190.9593293 342.4765625 184.9296875 C342.56280097 183.95079906 342.56280097 183.95079906 342.65078163 182.95213509 C344.24053103 164.95504525 346.02718766 146.97689572 347.79819107 128.99692535 C351.2549264 93.91475255 351.2549264 93.91475255 354.5 58.8125 C354.58194611 57.90633942 354.66389221 57.00017883 354.74832153 56.06655884 C354.97125645 53.59285363 355.1897622 51.118808 355.40625 48.64453125 C355.49935707 47.61314026 355.49935707 47.61314026 355.59434509 46.56091309 C355.95291937 42.3629381 356.05172059 38.21216594 356 34 C347.14518174 32.57492769 338.44556206 31.68070619 329.49609375 31.24609375 C326 31 326 31 323.68603516 30.51855469 C320.62646367 29.92788664 317.63585792 29.68093199 314.52734375 29.45703125 C313.17306557 29.35554453 311.81881933 29.25363099 310.46459961 29.15136719 C309.73481903 29.09702515 309.00503845 29.04268311 308.25314331 28.98669434 C290.95259376 27.68525999 273.69675841 26.00908757 256.4375 24.25 C231.1356733 21.67400317 205.81912648 19.29818535 180.49130249 16.99301147 C157.85188565 14.93197881 135.22495817 12.78620398 112.61474609 10.42163086 C111.66757721 10.32401459 110.72040833 10.22639832 109.74453735 10.12582397 C108.02588996 9.94860675 106.30756408 9.76822236 104.58969116 9.58364868 C94.88279009 8.05414482 94.88279009 8.05414482 86.31640625 11.38671875 Z " fill="#FDFDFD" transform="translate(0,0)"/>
<path d="M0 0 C6.94966093 -0.1346906 13.71856383 0.24284996 20.625 1 C21.98818359 1.14308594 21.98818359 1.14308594 23.37890625 1.2890625 C25.58647043 1.52143768 27.79342261 1.75846489 30 2 C30.139321 8.21159823 29.95000397 14.33656578 29.45703125 20.53125 C29.35326172 21.83578125 29.24949219 23.1403125 29.14257812 24.484375 C28.97843574 26.51053082 28.80929455 28.5358331 28.62817383 30.56054688 C28.45254708 32.54956124 28.29820593 34.54041928 28.14453125 36.53125 C27.99528198 38.28791992 27.99528198 38.28791992 27.84301758 40.08007812 C27.73555187 42.99051107 27.73555187 42.99051107 29.35620117 44.87939453 C31.50441723 46.34386976 32.91491923 46.40085081 35.5 46.375 C36.2734375 46.38273437 37.046875 46.39046875 37.84375 46.3984375 C40.49005943 45.90944554 41.3402954 45.07463075 43 43 C44.60515513 39.78968974 44.48643043 36.24575284 44.75390625 32.7109375 C44.81907944 31.89251373 44.88425262 31.07408997 44.95140076 30.23086548 C45.15900186 27.61253423 45.36081457 24.99379293 45.5625 22.375 C45.70209344 20.60153251 45.84206264 18.82809455 45.98242188 17.0546875 C46.32597842 12.70345593 46.66434376 8.35184785 47 4 C77.63388581 5.9445124 77.63388581 5.9445124 88.87109375 7.5546875 C92.07156457 7.97231282 95.18347185 8.02694193 98.41015625 8.0078125 C112.10714758 8.16135297 112.10714758 8.16135297 115.70507812 11.65625 C118.76277513 16.07906625 120.4873386 20.87213627 122 26 C125.20840439 22.92277398 127.91148824 19.92861134 130.3125 16.1875 C130.82425781 15.39730469 131.33601562 14.60710937 131.86328125 13.79296875 C132.42595703 12.90544922 132.42595703 12.90544922 133 12 C145.02042828 12.7794817 157.0073032 13.88087711 169 15 C169 17 169 17 167.68505859 18.31787109 C166.73880615 19.10025146 166.73880615 19.10025146 165.7734375 19.8984375 C160.43362408 24.45222285 155.29829203 29.1933255 150.25244141 34.06787109 C149.16718269 35.10624195 148.07136084 36.13368347 146.96533203 37.14990234 C140.15564834 43.41916696 135.77662535 48.36811875 135.07666016 58.04589844 C135.0513623 59.02075195 135.02606445 59.99560547 135 61 C134.86809812 62.4445822 134.73111609 63.88872289 134.5859375 65.33203125 C134.51632812 66.48058594 134.44671875 67.62914062 134.375 68.8125 C134.30023438 69.99457031 134.22546875 71.17664063 134.1484375 72.39453125 C134.07496094 73.68423828 134.07496094 73.68423828 134 75 C130.5202594 74.88864106 127.04146066 74.75837868 123.5625 74.625 C122.58861328 74.5940625 121.61472656 74.563125 120.61132812 74.53125 C114.50041915 74.28599613 108.9292205 73.50836426 103 72 C102.97247396 69.56241645 102.95277122 67.12516888 102.9375 64.6875 C102.92912109 63.95635986 102.92074219 63.22521973 102.91210938 62.47192383 C102.89350078 58.2380033 103.22914849 54.36345151 104 50.1875 C104.6001596 43.81080429 101.39744363 40.65978762 97.50292969 35.93115234 C94.14890055 31.62147553 91.17757156 27.02523306 88.125 22.5 C86.81535866 20.57274371 85.50547748 18.64565036 84.1953125 16.71875 C82.45413562 14.15176346 80.72058033 11.5808705 79 9 C77.91658658 16.08828994 77.02097415 23.1203914 76.59765625 30.28125 C76.49396729 31.92685913 76.49396729 31.92685913 76.38818359 33.60571289 C76.25653587 35.79135339 76.14295482 37.97817294 76.04931641 40.16577148 C75.51065853 48.81211232 72.99379541 54.12687788 66.9375 60.25 C55.84545559 68.88763459 41.16622657 68.0433424 27.87890625 66.6796875 C25.51303663 66.26329445 23.29578803 65.70328718 21 65 C19.65421875 64.63261719 19.65421875 64.63261719 18.28125 64.2578125 C9.81645161 61.63000421 3.14075576 57.12444674 -1.23046875 49.27734375 C-3.3025468 44.88720144 -3.53888373 41.10852417 -3.375 36.3125 C-3.36138428 35.5066748 -3.34776855 34.70084961 -3.33374023 33.87060547 C-3.05149905 22.67754256 -2.49948612 10.94369597 0 0 Z " fill="#030301" transform="translate(147,130)"/>
<path d="M0 0 C0.7041677 0.05679365 1.4083354 0.1135873 2.13384151 0.17210197 C4.32256121 0.35201987 6.50878103 0.55236197 8.69555664 0.75439453 C9.97431671 0.86116516 11.25307678 0.96793579 12.57058716 1.07794189 C16.51122745 1.41208317 20.44917446 1.77141334 24.38696289 2.13720703 C25.87302812 2.27362715 27.35910746 2.40989364 28.84519958 2.54602051 C32.82251445 2.91114461 36.79951303 3.27960615 40.77642822 3.64905548 C43.2826936 3.88168128 45.78904035 4.11341189 48.29541016 4.34490967 C80.00865762 7.27556195 111.70336854 10.38339872 143.39538574 13.53399658 C156.19329975 14.80593197 168.9923864 16.0655463 181.79345703 17.30535889 C183.97389687 17.51692324 186.15424031 17.72948424 188.33447266 17.94317627 C199.05097357 18.99313527 209.7451877 19.96731622 220.50048828 20.51269531 C223.32418224 20.72630095 225.93272801 21.16425575 228.69555664 21.75439453 C231.17287896 21.92877588 233.65252773 22.07143277 236.13305664 22.19189453 C243.74183893 22.60153014 251.16631153 23.57022843 258.69555664 24.75439453 C258.04357432 38.62561771 256.91214675 52.4281906 255.63305664 66.25439453 C255.52873322 67.39380493 255.42440979 68.53321533 255.31692505 69.70715332 C252.85838568 96.55377223 250.21700429 123.382936 247.58154297 150.21264648 C247.24047226 153.68618135 246.8995661 157.1597323 246.55883789 160.63330078 C246.43486602 161.8971205 246.43486602 161.8971205 246.30838966 163.18647194 C244.76919142 178.89091233 243.28351237 194.60006117 241.88671875 210.31787109 C241.06147874 219.50182893 239.99483742 228.62523749 238.69555664 237.75439453 C224.10870779 236.58433768 209.53523532 235.29759998 194.96899414 233.89575195 C188.1500529 233.24500543 181.33017141 232.63744058 174.50265503 232.0831604 C160.7994154 230.96907474 147.12235325 229.64149895 133.44296265 228.26773071 C113.26690268 226.24441651 93.08720106 224.2918494 72.88305664 222.56689453 C71.942323 222.4865094 71.00158936 222.40612427 70.03234863 222.32330322 C66.39760581 222.01295877 62.76284 221.70288642 59.12802124 221.39343262 C38.77929493 219.65621906 18.4555197 217.64739023 -1.86694336 215.62939453 C-2.74122986 215.54294678 -3.61551636 215.45649902 -4.51629639 215.36743164 C-7.00964817 215.1204612 -9.5027778 214.87136106 -11.99584961 214.62158203 C-12.73296677 214.54878021 -13.47008392 214.47597839 -14.22953796 214.40097046 C-27.85313316 213.0266755 -27.85313316 213.0266755 -31.67944336 208.37939453 C-32.43999023 207.47447266 -33.20053711 206.56955078 -33.98413086 205.63720703 C-34.74983398 204.68587891 -35.51553711 203.73455078 -36.30444336 202.75439453 C-37.04952148 201.84431641 -37.79459961 200.93423828 -38.56225586 199.99658203 C-40.06447684 198.159371 -41.56183531 196.31817393 -43.05444336 194.47314453 C-45.23945905 191.83291724 -47.49615727 189.28709733 -49.80444336 186.75439453 C-53.72335588 182.45447662 -57.39615205 177.99519906 -61.05444336 173.47314453 C-63.23945905 170.83291724 -65.49615727 168.28709733 -67.80444336 165.75439453 C-71.71936448 161.45686332 -75.41910164 157.01887701 -79.06616211 152.49267578 C-81.10127224 149.88710898 -81.10127224 149.88710898 -82.84074402 148.29177856 C-85.22879891 145.90632182 -87.07885324 143.97601165 -87.70420837 140.58958435 C-87.68001915 138.08701652 -87.45954948 135.68008627 -87.15600586 133.19580078 C-87.07021271 132.27027405 -86.98441956 131.34474731 -86.89602661 130.39117432 C-86.60711477 127.36202328 -86.27079204 124.34055304 -85.92944336 121.31689453 C-85.70888566 119.21449679 -85.49048477 117.11187173 -85.27416992 115.0090332 C-84.94177546 111.78326669 -84.60648421 108.55807282 -84.25744629 105.33406067 C-83.50700019 98.28294431 -83.02130914 91.25802127 -82.68725586 84.17626953 C-82.52995805 81.49153827 -82.36458739 78.80747084 -82.19476318 76.12350464 C-82.10243994 74.44138647 -82.03505073 72.75768314 -81.99468994 71.07351685 C-81.66892458 58.49862563 -81.66892458 58.49862563 -77.72921753 53.92617798 C-73.92673065 50.46812478 -69.73905567 47.73548024 -65.35935974 45.07063293 C-61.98852803 42.91150948 -58.94399646 40.36965753 -55.86694336 37.81689453 C-54.83645874 36.98653687 -54.83645874 36.98653687 -53.78515625 36.1394043 C-53.24624756 35.70426514 -52.70733887 35.26912598 -52.15209961 34.82080078 C-48.08898508 31.56213894 -43.95161114 28.404967 -39.80444336 25.25439453 C-34.90477931 21.53073903 -30.03512231 17.77768167 -25.234375 13.92700195 C-23.9616308 12.90639152 -22.68484439 11.89079876 -21.40380859 10.88061523 C-18.78796859 8.80946441 -16.31164162 6.76149792 -13.93334961 4.41455078 C-9.32989566 0.01994919 -6.35539877 -0.54918882 0 0 Z M-9.19506836 7.32470703 C-9.89510986 7.88424072 -10.59515137 8.44377441 -11.31640625 9.02026367 C-12.0549585 9.63377686 -12.79351074 10.24729004 -13.55444336 10.87939453 C-15.16222693 12.17272305 -16.7703082 13.46568158 -18.37866211 14.75830078 C-19.19641113 15.42361816 -20.01416016 16.08893555 -20.85668945 16.77441406 C-24.6509065 19.84354435 -28.50846923 22.82925365 -32.36694336 25.81689453 C-33.10960449 26.39439453 -33.85226563 26.97189453 -34.61743164 27.56689453 C-39.00053644 30.97502299 -43.39101139 34.37330053 -47.80175781 37.74560547 C-49.21434536 38.83029117 -50.62053734 39.92335967 -52.02001953 41.02490234 C-55.50929299 43.74755889 -58.97165058 46.19923881 -62.82006836 48.39111328 C-70.40199556 52.87273567 -70.40199556 52.87273567 -75.2175293 60.00878906 C-76.6525145 65.88534047 -76.83197027 71.86675215 -77.08276367 77.88916016 C-77.33457599 82.27979075 -77.79151614 86.62130658 -78.29663086 90.98876953 C-79.14783406 98.35412229 -79.93108563 105.7216646 -80.64395142 113.10173035 C-81.08479838 117.6410904 -81.58810623 122.16741986 -82.13256836 126.69580078 C-83.28895106 136.23289023 -83.28895106 136.23289023 -80.44506836 145.12939453 C-77.90727831 147.96667533 -75.21904554 150.31210323 -72.30444336 152.75439453 C-70.76286281 154.55290517 -69.2618045 156.38698734 -67.80444336 158.25439453 C-64.75095657 162.03899787 -61.59776035 165.6764699 -58.30444336 169.25439453 C-54.21093244 173.70166565 -50.38001837 178.30156916 -46.58569336 183.00439453 C-43.45484445 186.77856856 -40.12917883 190.35867244 -36.80834961 193.96533203 C-33.40963007 197.75111323 -30.21201806 201.67575176 -27.01928711 205.63720703 C-25.01231837 208.40715831 -25.01231837 208.40715831 -21.85302734 209.09570312 C-20.21829468 209.24773193 -20.21829468 209.24773193 -18.55053711 209.40283203 C-16.70661377 209.57770142 -16.70661377 209.57770142 -14.82543945 209.75610352 C-13.46428311 209.88063255 -12.10311746 210.00505979 -10.74194336 210.12939453 C-9.3260538 210.26189691 -7.91020146 210.39479744 -6.49438477 210.52807617 C-3.5460317 210.80493462 -0.59745596 211.07922822 2.35131836 211.3515625 C6.33262631 211.71971936 10.31301491 212.0970634 14.29321289 212.47705078 C26.10362636 213.60082438 37.9161484 214.69146459 49.73461914 215.72705078 C53.6382759 216.06937436 57.54192743 216.41175699 61.44555664 216.75439453 C62.41952393 216.83985535 63.39349121 216.92531616 64.39697266 217.0133667 C76.80432366 218.1051413 89.18918499 219.29527942 101.56762695 220.68017578 C110.76527396 221.69387273 119.97478257 222.48817147 129.19555664 223.25439453 C139.27426099 224.09218725 149.3323286 224.99608504 159.38305664 226.12939453 C174.29818709 227.80167599 189.24724272 229.10670168 204.19555664 230.44189453 C206.10937637 230.61371246 206.10937637 230.61371246 208.06185913 230.78900146 C211.72081485 231.11692577 215.38000391 231.4420865 219.03930664 231.76611328 C220.71244682 231.91588371 220.71244682 231.91588371 222.41938782 232.06867981 C223.45089462 232.15921127 224.48240143 232.24974274 225.54516602 232.34301758 C226.44666382 232.42279343 227.34816162 232.50256927 228.27697754 232.58476257 C230.41200608 232.73450714 232.55528322 232.75439453 234.69555664 232.75439453 C235.81062971 229.40917532 236.03880461 226.51181175 236.30883789 222.99267578 C236.42106179 221.57347994 236.53337071 220.15429082 236.64575195 218.73510742 C236.70428345 217.9789212 236.76281494 217.22273499 236.82312012 216.44363403 C237.86530115 203.04988796 239.0658327 189.67976652 240.44555664 176.31689453 C242.62983844 155.10538152 244.51632461 133.86731365 246.42593765 112.62973404 C250.27447099 69.82987417 250.27447099 69.82987417 252.62915039 48.49829102 C252.70388077 47.80716721 252.77861115 47.1160434 252.85560608 46.40397644 C253.0461104 44.64695943 253.24243085 42.89057541 253.43945312 41.13427734 C253.75276484 36.99939906 253.74842646 32.89859988 253.69555664 28.75439453 C252.5639209 28.65940674 251.43228516 28.56441895 250.26635742 28.46655273 C226.63113618 26.47580214 203.01789647 24.33403349 179.42059326 21.934021 C164.60300663 20.42775506 149.78088649 19.0117468 134.94555664 17.69189453 C121.01606131 16.452057 107.10903652 15.08468136 93.20651245 13.57351685 C75.27580979 11.63343394 57.31165863 10.07007544 39.3449707 8.50463867 C37.05165961 8.30422891 34.75836496 8.10363076 32.46508789 7.90283203 C31.36377533 7.80661057 30.26246277 7.7103891 29.1277771 7.61125183 C21.61239851 6.94639921 14.10858704 6.20314598 6.61274719 5.34457397 C-1.82005139 4.03498513 -1.82005139 4.03498513 -9.19506836 7.32470703 Z " fill="#101008" transform="translate(97.304443359375,9.24560546875)"/>
<path d="M0 0 C9.72321843 0.65471797 19.42430147 1.4416677 29.125 2.375 C31.02572266 2.54515625 31.02572266 2.54515625 32.96484375 2.71875 C45.5406019 3.93617664 58.71137488 5.75260704 68.625 14.25 C70.61521156 18.23042312 70.7552597 21.63798989 70 26 C67.56977078 30.95392879 64.61467005 33.27314951 60 36 C61.0828125 36.8353125 61.0828125 36.8353125 62.1875 37.6875 C70.70976371 44.69469461 70.70976371 44.69469461 71.2734375 49.171875 C71.58156487 56.9935697 71.58156487 56.9935697 68.875 60.4375 C58.28827171 69.87349695 42.26085513 67.54998938 29 67 C6.01086316 65.34340881 6.01086316 65.34340881 -5 63 C-5.19932814 53.71110752 -4.68840527 44.60846513 -3.828125 35.37182617 C-3.62624579 33.20089673 -3.43349966 31.02930541 -3.2421875 28.85742188 C-2.37702147 19.2086557 -1.26160713 9.60457133 0 0 Z " fill="#040401" transform="translate(70,122)"/>
<path d="M0 0 C8.92104104 -0.30872045 17.64516644 0.50718695 26.49658203 1.48925781 C28.86238727 1.74861729 31.22968047 1.98794831 33.59765625 2.2265625 C45.85105645 3.52705696 58.81295484 4.95763272 68 14 C70.49455917 17.74183875 70.37606522 19.56243036 70 24 C68.11434552 29.23792912 65.4376454 31.85666784 61 35 C60.01 35 59.02 35 58 35 C58 35.66 58 36.32 58 37 C59.051875 37.0928125 59.051875 37.0928125 60.125 37.1875 C64.5637277 38.44192305 67.60529898 41.16153048 70.375 44.8125 C71.67683225 49.36891287 71.64664521 53.4193117 69.875 57.75 C65.92380071 62.49143915 61.01415111 64.96927284 55 66 C50.24787549 66.29426908 45.50985333 66.28340767 40.75 66.25 C40.0844812 66.2478952 39.4189624 66.24579041 38.73327637 66.24362183 C27.70379277 66.20268964 16.92622183 65.4479193 6 64 C3.97997589 63.80397399 1.95925406 63.61479668 -0.0625 63.4375 C-4 63 -4 63 -6 62 C-6.18424119 57.30184968 -5.89513462 53.02476685 -5.08984375 48.390625 C-3.69653616 39.61389884 -3.09388354 30.79304168 -2.4375 21.9375 C-2.24962344 19.42661053 -2.06024303 16.91587122 -1.86671448 14.40541077 C-1.74752095 12.85752376 -1.63157706 11.30938195 -1.51939392 9.76097107 C-1.26321149 6.41816504 -0.98157219 3.21618181 0 0 Z " fill="#030301" transform="translate(64,51)"/>
<path d="M0 0 C10.66014394 -0.34814236 21.10917485 0.60129782 31.70532227 1.65405273 C34.58740216 1.93997043 37.47032218 2.21579554 40.35351562 2.49023438 C42.19536907 2.66868789 44.03716815 2.84770365 45.87890625 3.02734375 C46.73617813 3.10967758 47.59345001 3.19201141 48.47669983 3.27684021 C49.67461403 3.39685143 49.67461403 3.39685143 50.89672852 3.51928711 C51.59476089 3.58812607 52.29279327 3.65696503 53.01197815 3.72789001 C55 4 55 4 59 5 C58.67 10.61 58.34 16.22 58 22 C48.86661545 22.28994872 40.03698325 21.1741788 31 20 C31 21.98 31 23.96 31 26 C38.59 26.33 46.18 26.66 54 27 C54.13392857 39.1875 54.13392857 39.1875 53 44 C47.39258264 44.10103455 42.05193239 43.76082036 36.5 43 C35.77296875 42.90460938 35.0459375 42.80921875 34.296875 42.7109375 C32.53064133 42.47853833 30.76522594 42.23993362 29 42 C29 43.98 29 45.96 29 48 C37.58 48.66 46.16 49.32 55 50 C54.67 55.61 54.34 61.22 54 67 C34.21128309 66.55976158 14.64441724 64.26472652 -5 62 C-4.51638135 48.8194861 -3.62751409 35.70189937 -2.5 22.5625 C-2.43428802 21.78820648 -2.36857605 21.01391296 -2.3008728 20.21615601 C-2.11001059 17.97844989 -1.91522176 15.7411262 -1.71875 13.50390625 C-1.60466797 12.20267822 -1.49058594 10.9014502 -1.37304688 9.56079102 C-1.03577633 6.3414907 -0.57264039 3.18485135 0 0 Z " fill="#050501" transform="translate(142,59)"/>
<path d="M0 0 C-1.38780795 3.89006773 -3.2152227 6.96558708 -5.625 10.3125 C-6.57246094 11.63701172 -6.57246094 11.63701172 -7.5390625 12.98828125 C-8.02117187 13.65214844 -8.50328125 14.31601563 -9 15 C-10.4589426 14.52269162 -11.91713496 14.04308958 -13.375 13.5625 C-14.18710937 13.29566406 -14.99921875 13.02882813 -15.8359375 12.75390625 C-18 12 -18 12 -20 11 C-22.37402501 10.92883618 -24.75000677 10.91590915 -27.125 10.9375 C-28.40632813 10.94652344 -29.68765625 10.95554687 -31.0078125 10.96484375 C-31.99523437 10.97644531 -32.98265625 10.98804687 -34 11 C-34 11.66 -34 12.32 -34 13 C-28.30491543 15.20852689 -22.72256366 17.12534586 -16.75 18.4375 C-10.55695563 19.92350935 -6.18162231 21.97968798 -2.34375 27.29296875 C0.00888265 32.03242929 -0.38960985 36.83623966 -1 42 C-3.47189209 47.66475271 -7.74051244 50.16480748 -13 53 C-13.61875 53.35578125 -14.2375 53.7115625 -14.875 54.078125 C-28.54239921 60.00736437 -50.03846117 56.42091722 -63.6171875 51.7578125 C-71.73513216 48.52973568 -71.73513216 48.52973568 -73 46 C-69.7 41.05 -66.4 36.1 -63 31 C-60.42105311 32.03157876 -57.84264607 33.07636294 -55.34375 34.2890625 C-47.68753772 37.88579959 -41.40254974 38.60986248 -33 38 C-33.39190757 35.98139877 -33.39190757 35.98139877 -35 34 C-37.86501317 33.03512986 -40.56679249 32.28956173 -43.5 31.625 C-52.23523001 29.43015333 -60.82618723 26.92288343 -66 19 C-67.71270362 13.86188915 -67.82038447 9.70913431 -65.5 4.875 C-48.5388643 -14.63030605 -20.97338367 -9.56083976 0 0 Z " fill="#040401" transform="translate(272,75)"/>
<path d="M0 0 C8.6308663 0.63829345 17.24806572 1.36943238 25.86328125 2.19140625 C27.60027534 2.35575417 27.60027534 2.35575417 29.37236023 2.52342224 C33.01917558 2.86871433 36.66583935 3.21557836 40.3125 3.5625 C42.80663071 3.79893277 45.30077125 4.03526181 47.79492188 4.27148438 C53.86339529 4.84645904 59.93174554 5.42271935 66 6 C66.01363675 7.72523797 66.02325932 9.45050789 66.03125 11.17578125 C66.03705078 12.13653564 66.04285156 13.09729004 66.04882812 14.0871582 C65.98136378 18.11174345 65.52318116 22.01074366 65 26 C58.89438434 26.09691453 53.05853644 25.73264101 47 25 C46.95101562 26.10472656 46.90203125 27.20945312 46.8515625 28.34765625 C46.24273655 41.26517118 45.19325495 54.1243101 44 67 C36.53172346 67.13043442 29.23857229 66.77892183 21.8125 66 C20.86052734 65.90460938 19.90855469 65.80921875 18.92773438 65.7109375 C16.61795201 65.47879857 14.3087897 65.24177828 12 65 C11.89399152 58.14478487 12.29950339 51.4483964 12.9375 44.625 C13.06801758 43.17867187 13.06801758 43.17867187 13.20117188 41.703125 C13.46369785 38.8017268 13.73165301 35.90086496 14 33 C14.18917365 30.924513 14.37799122 28.84899351 14.56640625 26.7734375 C14.64963135 25.85739746 14.73285645 24.94135742 14.81860352 23.99755859 C14.87846436 23.33836426 14.9383252 22.67916992 15 22 C13.64455078 21.90912109 13.64455078 21.90912109 12.26171875 21.81640625 C11.08222656 21.73261719 9.90273438 21.64882812 8.6875 21.5625 C7.51574219 21.48128906 6.34398437 21.40007812 5.13671875 21.31640625 C2 21 2 21 -1 20 C-1.18451025 6.3667426 -1.18451025 6.3667426 0 0 Z " fill="#040301" transform="translate(275,71)"/>
<path d="M0 0 C4.03748531 2.0935109 6.35107136 3.76542739 8 8 C8.34050529 12.88057582 7.66327491 16.18366164 4.5625 20 C0.97950079 22.79648719 -1.29093662 23.39291667 -5.89453125 23.359375 C-9.61593453 22.72418186 -11.40312849 20.66020984 -14 18 C-15.89111162 14.21777675 -15.75206324 10.09874463 -15 6 C-11.27729138 0.21164209 -6.50415595 -1.03240571 0 0 Z " fill="#0D0D06" transform="translate(41,101)"/>
<path d="M0 0 C2.375 1.5625 2.375 1.5625 4 4 C4.56645882 7.96521177 4.57590314 10.07855498 2.4375 13.5 C0 15 0 15 -3.5625 15 C-7 14 -7 14 -8.9375 12.3125 C-10.33817538 9.26397123 -10.4842732 7.32073048 -10 4 C-7.21921757 -0.06422047 -4.81255755 -0.80209293 0 0 Z " fill="#F3F3F3" transform="translate(40,105)"/>
<path d="M0 0 C6.91011034 -0.37351948 10.65889743 -0.49777059 16 4 C15.75 6.375 15.75 6.375 15 9 C12.11904197 10.8844404 9.84029231 11.25083454 6.4375 11.1875 C5.67308594 11.18105469 4.90867187 11.17460938 4.12109375 11.16796875 C2 11 2 11 -1 10 C-0.67 6.7 -0.34 3.4 0 0 Z " fill="#E9E115" transform="translate(90,91)"/>
<path d="M0 0 C5.41772459 -0.33860779 10.27517432 0.08003474 15 3 C16.0625 5.5625 16.0625 5.5625 16 8 C15.67 8.66 15.34 9.32 15 10 C11.57767028 11.14077657 8.91326783 11.09815117 5.3125 11.0625 C3.54326172 11.04896484 3.54326172 11.04896484 1.73828125 11.03515625 C0.83464844 11.02355469 -0.06898437 11.01195312 -1 11 C-0.67 7.37 -0.34 3.74 0 0 Z " fill="#EAE115" transform="translate(96,162)"/>
<path d="M0 0 C8.19256018 -0.4726477 8.19256018 -0.4726477 11.5625 1.5 C12.036875 1.995 12.51125 2.49 13 3 C12.6875 4.875 12.6875 4.875 12 7 C8.68629 9.20914 7.6553979 9.22481553 3.8125 9.125 C2.91144531 9.10695313 2.01039062 9.08890625 1.08203125 9.0703125 C0.39496094 9.04710938 -0.29210937 9.02390625 -1 9 C-1.125 2.25 -1.125 2.25 0 0 Z " fill="#E4DC14" transform="translate(92,69)"/>
<path d="M0 0 C1.60332791 -0.08121924 3.20784026 -0.13929134 4.8125 -0.1875 C6.15248047 -0.23970703 6.15248047 -0.23970703 7.51953125 -0.29296875 C10 0 10 0 11.83984375 1.37890625 C13 3 13 3 12.75 5.125 C12 7 12 7 11 8 C9.14712498 8.07226502 7.29166122 8.0838122 5.4375 8.0625 C4.42558594 8.05347656 3.41367188 8.04445312 2.37109375 8.03515625 C1.58863281 8.02355469 0.80617188 8.01195312 0 8 C0 5.36 0 2.72 0 0 Z " fill="#F1E915" transform="translate(98,141)"/>
<path d="M0 0 C2.62487335 3.14984802 4.25891418 6.48843548 5.9375 10.1953125 C7.01445951 12.32423099 7.01445951 12.32423099 10 14 C9.01 14.66 8.02 15.32 7 16 C5.82558465 13.89983377 4.66035988 11.79541245 3.5 9.6875 C3.16613281 9.09259766 2.83226562 8.49769531 2.48828125 7.88476562 C0.93174886 5.04171156 0 3.29339012 0 0 Z " fill="#E2DD14" transform="translate(262,141)"/>
<path d="M0 0 C0.309375 0.639375 0.61875 1.27875 0.9375 1.9375 C1.8345163 3.93610821 1.8345163 3.93610821 3 5 C3.04092937 7.33297433 3.04241723 9.66705225 3 12 C2.34 11.01 1.68 10.02 1 9 C-0.98 9.99 -0.98 9.99 -3 11 C-2.690625 10.29875 -2.38125 9.5975 -2.0625 8.875 C-0.96697322 5.91063343 -0.43577008 3.12301892 0 0 Z " fill="#DDD514" transform="translate(135,100)"/>
<path d="M0 0 C0.33 0 0.66 0 1 0 C1.33 3.96 1.66 7.92 2 12 C0.68 12.33 -0.64 12.66 -2 13 C-2 10.69 -2 8.38 -2 6 C-1.67 6 -1.34 6 -1 6 C-0.67 4.02 -0.34 2.04 0 0 Z " fill="#BAB411" transform="translate(143,165)"/>
<path d="M0 0 C0.33 0 0.66 0 1 0 C1.08333357 4.8333472 0.95261487 9.23692563 0 14 C-0.33 14 -0.66 14 -1 14 C-2.12029814 8.51053913 -1.79217969 5.16569441 0 0 Z " fill="#ABA50F" transform="translate(60,84)"/>
</svg>
