<svg xmlns="http://www.w3.org/2000/svg" viewBox="0 0 400 400"><g fill-rule="evenodd"><path fill="#f3c522" d="m94.419 154.181-20.178 20.181.78.893c2.015 2.31 13.816 13.945 14.144 13.945.204 0 5.997-5.67 12.873-12.6 6.876-6.93 12.659-12.6 12.851-12.6.191 0 5.991 5.67 12.889 12.6s12.696 12.6 12.886 12.6c.189 0 3.671-3.331 7.737-7.401l7.393-7.402-20.195-20.198C124.491 143.089 115.222 134 115 134c-.222 0-9.483 9.081-20.581 20.181M205.6 167.4v3.8h11.957c10.535 0 11.986.075 12.2.633.134.348.243 15.018.243 32.6V236.4h3.957c3.24 0 4.001-.115 4.2-.633.134-.348.243-15.015.243-32.594v-31.961l12.1-.106 12.1-.106.12-2.792c.067-1.535.018-3.2-.107-3.7l-.228-.908H205.6v3.8m72.596-3.331c-.111.292-.156 16.641-.099 36.331l.103 35.8h8l.2-14 .2-14 9.6-.113c11.92-.14 10.518-.644 14.989 5.396 2.083 2.814 3.939 5.297 4.125 5.517.185.22 3.16 4.18 6.611 8.8l6.275 8.4 4.921.112 4.921.113-.487-.913c-.267-.501-5.148-7.102-10.846-14.667-5.698-7.565-10.213-13.883-10.034-14.041.179-.157 1.225-.52 2.325-.807 12.061-3.14 18.905-13.586 16.437-25.088-1.742-8.119-7.24-13.476-16.837-16.405-2.816-.86-40.089-1.26-40.404-.435m37.176 7.726c17.612 4.205 15.816 25.852-2.372 28.586-2.111.317-7.148.436-14.8.35l-11.6-.131-.105-14.7-.105-14.7 13.305.014c10.053.011 13.885.153 15.677.581M55.669 192.931l-7.323 7.331 7.245 7.169c3.985 3.943 7.468 7.22 7.74 7.281.603.138 14.669-13.655 14.669-14.385 0-.608-13.997-14.727-14.6-14.727-.224 0-3.703 3.299-7.731 7.331m51.582.018-7.341 7.349 7.261 7.251c3.993 3.988 7.476 7.251 7.74 7.251.577 0 14.689-14.019 14.689-14.592 0-.528-14.072-14.608-14.6-14.608-.224 0-3.711 3.307-7.749 7.349m51.845-.245c-3.903 3.907-7.096 7.284-7.096 7.504 0 .654 14.154 14.592 14.819 14.592.555 0 14.781-13.939 14.781-14.484 0-.44-14.514-14.716-14.961-14.716-.246 0-3.64 3.197-7.543 7.104m-77.288 25.699c-4.078 4.057-7.362 7.535-7.297 7.729.216.648 40.027 40.268 40.463 40.268.236 0 9.518-9.09 20.626-20.2l20.197-20.2-7.492-7.492-7.492-7.492-12.715 12.692c-6.993 6.981-12.89 12.692-13.104 12.692-.214 0-6.1-5.709-13.08-12.686l-12.691-12.687-7.415 7.376"/><path fill="#0b0c14" d="M57.5.293c-1.265.081-2.3.318-2.3.527 0 .209-.72.38-1.6.38-.88 0-1.6.18-1.6.4 0 .22-.72.4-1.6.4-.88 0-1.6.18-1.6.4 0 .22-.54.4-1.2.4-.66 0-1.2.18-1.2.4 0 .22-.439.4-.976.4-.537 0-1.088.18-1.224.4-.136.22-.597.4-1.024.4-.427 0-.776.18-.776.4 0 .22-.27.4-.6.4-.33 0-.6.18-.6.4 0 .22-.36.4-.8.4-.44 0-.8.18-.8.4 0 .22-.36.4-.8.4-.44 0-.8.18-.8.4 0 .22-.36.4-.8.4-.44 0-.8.18-.8.4 0 .22-.264.4-.586.4-.813 0-3.414 1.276-3.414 1.674 0 .179-.294.326-.653.326-.359 0-.944.316-1.3.703-.356.386-1.142.957-1.747 1.267-.605.311-1.1.715-1.1.898 0 .182-.189.332-.419.332-.231 0-1.662 1.26-3.181 2.8-1.519 1.54-2.963 2.8-3.209 2.8-.579 0-1.591 1.012-1.591 1.591 0 .246-1.26 1.69-2.8 3.209-1.54 1.519-2.8 2.95-2.8 3.181 0 .23-.15.419-.332.419-.183 0-.588.495-.9 1.1-.313.605-.883 1.449-1.268 1.875-.385.427-.7 1.012-.7 1.3 0 .289-.147.525-.326.525-.398 0-1.674 2.601-1.674 3.414 0 .322-.18.586-.4.586-.22 0-.4.36-.4.8 0 .44-.18.8-.4.8-.22 0-.4.36-.4.8 0 .44-.18.8-.4.8-.22 0-.4.36-.4.8 0 .44-.135.801-.3.803-.406.004-1.3 1.983-1.3 2.877 0 .396-.18.72-.4.72-.22 0-.4.36-.4.8 0 .44-.18.8-.4.8-.22 0-.4.54-.4 1.2 0 .66-.18 1.2-.4 1.2-.22 0-.4.72-.4 1.6 0 .88-.18 1.6-.4 1.6-.22 0-.4.705-.4 1.567 0 .897-.213 1.637-.5 1.733-.736.245-.736 289.155 0 289.4.287.096.5.836.5 1.733 0 .862.18 1.567.4 1.567.22 0 .4.72.4 1.6 0 .88.18 1.6.4 1.6.22 0 .4.54.4 1.2 0 .66.18 1.2.4 1.2.22 0 .4.439.4.976 0 .537.18 1.088.4 1.224.22.136.4.597.4 1.024 0 .427.18.776.4.776.22 0 .4.27.4.6 0 .33.18.6.4.6.22 0 .4.36.4.8 0 .44.18.8.4.8.22 0 .4.36.4.8 0 .44.18.8.4.8.22 0 .4.36.4.8 0 .44.18.8.4.8.22 0 .4.264.4.586 0 .813 1.276 3.414 1.674 3.414.179 0 .326.294.326.653 0 .359.316.944.703 1.3.386.356.957 1.142 1.267 1.747.311.605.715 1.1.898 1.1.182 0 .332.189.332.419 0 .231 1.26 1.662 2.8 3.181 1.54 1.519 2.8 2.963 2.8 3.209 0 .579 1.012 1.591 1.591 1.591.246 0 1.69 1.26 3.209 2.8 1.519 1.54 2.95 2.8 3.181 2.8.23 0 .419.15.419.332 0 .183.495.588 1.1.9.605.313 1.449.883 1.875 1.268.427.385 1.012.7 1.3.7.289 0 .525.147.525.326 0 .398 2.601 1.674 3.414 1.674.322 0 .586.18.586.4 0 .22.36.4.8.4.44 0 .8.18.8.4 0 .22.36.4.8.4.44 0 .8.18.8.4 0 .22.36.4.8.4.44 0 .801.135.803.3.004.406 1.983 1.3 2.877 1.3.396 0 .72.18.72.4 0 .22.36.4.8.4.44 0 .8.18.8.4 0 .22.54.4 1.2.4.66 0 1.2.18 1.2.4 0 .22.72.4 1.6.4.88 0 1.6.18 1.6.4 0 .22.705.4 1.567.4.897 0 1.637.213 1.733.5.245.736 289.155.736 289.4 0 .096-.287.836-.5 1.733-.5.862 0 1.567-.18 1.567-.4 0-.22.72-.4 1.6-.4.88 0 1.6-.18 1.6-.4 0-.22.54-.4 1.2-.4.66 0 1.2-.18 1.2-.4 0-.22.439-.4.976-.4.537 0 1.088-.18 1.224-.4.136-.22.597-.4 1.024-.4.427 0 .776-.18.776-.4 0-.22.27-.4.6-.4.33 0 .6-.18.6-.4 0-.22.36-.4.8-.4.44 0 .8-.18.8-.4 0-.22.36-.4.8-.4.44 0 .8-.18.8-.4 0-.22.36-.4.8-.4.44 0 .8-.18.8-.4 0-.22.264-.4.586-.4.813 0 3.414-1.276 3.414-1.674 0-.179.294-.326.653-.326.359 0 .944-.316 1.3-.703.356-.386 1.142-.957 1.747-1.267.605-.311 1.1-.715 1.1-.898 0-.182.189-.332.419-.332.231 0 1.662-1.26 3.181-2.8 1.519-1.54 2.963-2.8 3.209-2.8.579 0 1.591-1.012 1.591-1.591 0-.246 1.26-1.69 2.8-3.209 1.54-1.519 2.8-2.95 2.8-3.181 0-.23.15-.419.332-.419.183 0 .588-.495.9-1.1.313-.605.883-1.449 1.268-1.875.385-.427.7-1.012.7-1.3 0-.289.147-.525.326-.525.398 0 1.674-2.601 1.674-3.414 0-.322.18-.586.4-.586.22 0 .4-.36.4-.8 0-.44.18-.8.4-.8.22 0 .4-.36.4-.8 0-.44.18-.8.4-.8.22 0 .4-.36.4-.8 0-.44.135-.801.3-.803.406-.004 1.3-1.983 1.3-2.877 0-.396.18-.72.4-.72.22 0 .4-.36.4-.8 0-.44.18-.8.4-.8.22 0 .4-.54.4-1.2 0-.66.18-1.2.4-1.2.22 0 .4-.72.4-1.6 0-.88.18-1.6.4-1.6.22 0 .4-.705.4-1.567 0-.897.213-1.637.5-1.733.399-.133.5-29.429.5-144.7 0-115.271-.101-144.567-.5-144.7-.287-.096-.5-.836-.5-1.733 0-.862-.18-1.567-.4-1.567-.22 0-.4-.72-.4-1.6 0-.88-.18-1.6-.4-1.6-.22 0-.4-.54-.4-1.2 0-.66-.18-1.2-.4-1.2-.22 0-.4-.439-.4-.976 0-.537-.18-1.088-.4-1.224-.22-.136-.4-.597-.4-1.024 0-.427-.18-.776-.4-.776-.22 0-.4-.27-.4-.6 0-.33-.18-.6-.4-.6-.22 0-.4-.36-.4-.8 0-.44-.18-.8-.4-.8-.22 0-.4-.36-.4-.8 0-.44-.18-.8-.4-.8-.22 0-.4-.36-.4-.8 0-.44-.18-.8-.4-.8-.22 0-.4-.264-.4-.586 0-.813-1.276-3.414-1.674-3.414-.179 0-.326-.294-.326-.653 0-.359-.316-.944-.703-1.3-.386-.356-.957-1.142-1.267-1.747-.311-.605-.715-1.1-.898-1.1-.182 0-.332-.189-.332-.419 0-.231-1.26-1.662-2.8-3.181-1.54-1.519-2.8-2.963-2.8-3.209 0-.579-1.012-1.591-1.591-1.591-.246 0-1.69-1.26-3.209-2.8-1.519-1.54-2.95-2.8-3.181-2.8-.23 0-.419-.15-.419-.332 0-.183-.495-.588-1.1-.9-.605-.313-1.449-.883-1.875-1.268-.427-.385-1.012-.7-1.3-.7-.289 0-.525-.147-.525-.326 0-.398-2.601-1.674-3.414-1.674-.322 0-.586-.18-.586-.4 0-.22-.36-.4-.8-.4-.44 0-.8-.18-.8-.4 0-.22-.36-.4-.8-.4-.44 0-.8-.18-.8-.4 0-.22-.36-.4-.8-.4-.44 0-.801-.135-.803-.3-.004-.406-1.983-1.3-2.877-1.3-.396 0-.72-.18-.72-.4 0-.22-.36-.4-.8-.4-.44 0-.8-.18-.8-.4 0-.22-.54-.4-1.2-.4-.66 0-1.2-.18-1.2-.4 0-.22-.72-.4-1.6-.4-.88 0-1.6-.18-1.6-.4 0-.22-.705-.4-1.567-.4-.897 0-1.637-.213-1.733-.5C344.544.233 64.632-.164 57.5.293m78.099 153.906 20.195 20.198-7.393 7.402c-4.066 4.07-7.548 7.401-7.737 7.401-.19 0-5.988-5.67-12.886-12.6-6.898-6.93-12.698-12.6-12.889-12.6-.192 0-5.975 5.67-12.851 12.6-6.876 6.93-12.669 12.6-12.873 12.6-.328 0-12.129-11.635-14.144-13.945l-.78-.893 20.178-20.181C105.517 143.081 114.778 134 115 134c.222 0 9.491 9.089 20.599 20.199m127.014 10.309c.125.5.174 2.165.107 3.7L262.6 171l-12.1.106-12.1.106v31.961c0 17.579-.109 32.246-.243 32.594-.199.518-.96.633-4.2.633H230v-31.967c0-17.582-.109-32.252-.243-32.6-.214-.558-1.665-.633-12.2-.633H205.6v-7.6h56.785l.228.908m55.987-.004c23.111 7.054 23.385 35.509.4 41.493-1.1.287-2.146.65-2.325.807-.179.158 4.336 6.476 10.034 14.041s10.579 14.166 10.846 14.667l.487.913-4.921-.113-4.921-.112-6.275-8.4c-3.451-4.62-6.426-8.58-6.611-8.8-.186-.22-2.042-2.703-4.125-5.517-4.471-6.04-3.069-5.536-14.989-5.396l-9.6.113-.2 14-.2 14h-8l-.103-35.8c-.057-19.69-.012-36.039.099-36.331.315-.825 37.588-.425 40.404.435M286.495 185.9l.105 14.7 11.6.131c13.305.15 16.581-.183 20.8-2.111 10.769-4.923 11.524-19.968 1.256-25.022-4.458-2.195-5.95-2.368-20.561-2.384l-13.305-.014.105 14.7m-215.591 6.804c3.903 3.907 7.096 7.338 7.096 7.623 0 .73-14.066 14.523-14.669 14.385-.272-.061-3.755-3.338-7.74-7.281l-7.245-7.169 7.323-7.331c4.028-4.032 7.507-7.331 7.731-7.331.225 0 3.601 3.197 7.504 7.104m51.6 0c3.903 3.907 7.096 7.284 7.096 7.504 0 .573-14.112 14.592-14.689 14.592-.264 0-3.747-3.263-7.74-7.251l-7.261-7.251 7.341-7.349c4.038-4.042 7.525-7.349 7.749-7.349.225 0 3.601 3.197 7.504 7.104m51.839.138c3.991 3.983 7.257 7.346 7.257 7.474 0 .545-14.226 14.484-14.781 14.484-.665 0-14.819-13.938-14.819-14.592 0-.553 14.085-14.608 14.639-14.608.246 0 3.713 3.259 7.704 7.242M114.994 236.4c.214 0 6.111-5.711 13.104-12.692l12.715-12.692 7.492 7.492 7.492 7.492-20.197 20.2c-11.108 11.11-20.39 20.2-20.626 20.2-.436 0-40.247-39.62-40.463-40.268-.065-.194 3.219-3.672 7.297-7.729l7.415-7.376 12.691 12.687c6.98 6.977 12.866 12.686 13.08 12.686"/></g></svg>