<svg id="svg" version="1.1" xmlns="http://www.w3.org/2000/svg" xmlns:xlink="http://www.w3.org/1999/xlink" width="400" height="400" viewBox="0, 0, 400,400"><g id="svgg"><path id="path0" d="M94.419 154.181 L 74.241 174.362 75.021 175.255 C 77.036 177.565,88.837 189.200,89.165 189.200 C 89.369 189.200,95.162 183.530,102.038 176.600 C 108.914 169.670,114.697 164.000,114.889 164.000 C 115.080 164.000,120.880 169.670,127.778 176.600 C 134.676 183.530,140.474 189.200,140.664 189.200 C 140.853 189.200,144.335 185.869,148.401 181.799 L 155.794 174.397 135.599 154.199 C 124.491 143.089,115.222 134.000,115.000 134.000 C 114.778 134.000,105.517 143.081,94.419 154.181 M205.600 167.400 L 205.600 171.200 217.557 171.200 C 228.092 171.200,229.543 171.275,229.757 171.833 C 229.891 172.181,230.000 186.851,230.000 204.433 L 230.000 236.400 233.957 236.400 C 237.197 236.400,237.958 236.285,238.157 235.767 C 238.291 235.419,238.400 220.752,238.400 203.173 L 238.400 171.212 250.500 171.106 L 262.600 171.000 262.720 168.208 C 262.787 166.673,262.738 165.008,262.613 164.508 L 262.385 163.600 233.992 163.600 L 205.600 163.600 205.600 167.400 M278.196 164.069 C 278.085 164.361,278.040 180.710,278.097 200.400 L 278.200 236.200 282.200 236.200 L 286.200 236.200 286.400 222.200 L 286.600 208.200 296.200 208.087 C 308.120 207.947,306.718 207.443,311.189 213.483 C 313.272 216.297,315.128 218.780,315.314 219.000 C 315.499 219.220,318.474 223.180,321.925 227.800 L 328.200 236.200 333.121 236.312 L 338.042 236.425 337.555 235.512 C 337.288 235.011,332.407 228.410,326.709 220.845 C 321.011 213.280,316.496 206.962,316.675 206.804 C 316.854 206.647,317.900 206.284,319.000 205.997 C 331.061 202.857,337.905 192.411,335.437 180.909 C 333.695 172.790,328.197 167.433,318.600 164.504 C 315.784 163.644,278.511 163.244,278.196 164.069 M315.372 171.795 C 332.984 176.000,331.188 197.647,313.000 200.381 C 310.889 200.698,305.852 200.817,298.200 200.731 L 286.600 200.600 286.495 185.900 L 286.390 171.200 299.695 171.214 C 309.748 171.225,313.580 171.367,315.372 171.795 M55.669 192.931 L 48.346 200.262 55.591 207.431 C 59.576 211.374,63.059 214.651,63.331 214.712 C 63.934 214.850,78.000 201.057,78.000 200.327 C 78.000 199.719,64.003 185.600,63.400 185.600 C 63.176 185.600,59.697 188.899,55.669 192.931 M107.251 192.949 L 99.910 200.298 107.171 207.549 C 111.164 211.537,114.647 214.800,114.911 214.800 C 115.488 214.800,129.600 200.781,129.600 200.208 C 129.600 199.680,115.528 185.600,115.000 185.600 C 114.776 185.600,111.289 188.907,107.251 192.949 M159.096 192.704 C 155.193 196.611,152.000 199.988,152.000 200.208 C 152.000 200.862,166.154 214.800,166.819 214.800 C 167.374 214.800,181.600 200.861,181.600 200.316 C 181.600 199.876,167.086 185.600,166.639 185.600 C 166.393 185.600,162.999 188.797,159.096 192.704 M81.808 218.403 C 77.730 222.460,74.446 225.938,74.511 226.132 C 74.727 226.780,114.538 266.400,114.974 266.400 C 115.210 266.400,124.492 257.310,135.600 246.200 L 155.797 226.000 148.305 218.508 L 140.813 211.016 128.098 223.708 C 121.105 230.689,115.208 236.400,114.994 236.400 C 114.780 236.400,108.894 230.691,101.914 223.714 L 89.223 211.027 81.808 218.403 " stroke="none" fill="#f3c522" fill-rule="evenodd"></path><path id="path1" d="M57.500 0.293 C 56.235 0.374,55.200 0.611,55.200 0.820 C 55.200 1.029,54.480 1.200,53.600 1.200 C 52.720 1.200,52.000 1.380,52.000 1.600 C 52.000 1.820,51.280 2.000,50.400 2.000 C 49.520 2.000,48.800 2.180,48.800 2.400 C 48.800 2.620,48.260 2.800,47.600 2.800 C 46.940 2.800,46.400 2.980,46.400 3.200 C 46.400 3.420,45.961 3.600,45.424 3.600 C 44.887 3.600,44.336 3.780,44.200 4.000 C 44.064 4.220,43.603 4.400,43.176 4.400 C 42.749 4.400,42.400 4.580,42.400 4.800 C 42.400 5.020,42.130 5.200,41.800 5.200 C 41.470 5.200,41.200 5.380,41.200 5.600 C 41.200 5.820,40.840 6.000,40.400 6.000 C 39.960 6.000,39.600 6.180,39.600 6.400 C 39.600 6.620,39.240 6.800,38.800 6.800 C 38.360 6.800,38.000 6.980,38.000 7.200 C 38.000 7.420,37.640 7.600,37.200 7.600 C 36.760 7.600,36.400 7.780,36.400 8.000 C 36.400 8.220,36.136 8.400,35.814 8.400 C 35.001 8.400,32.400 9.676,32.400 10.074 C 32.400 10.253,32.106 10.400,31.747 10.400 C 31.388 10.400,30.803 10.716,30.447 11.103 C 30.091 11.489,29.305 12.060,28.700 12.370 C 28.095 12.681,27.600 13.085,27.600 13.268 C 27.600 13.450,27.411 13.600,27.181 13.600 C 26.950 13.600,25.519 14.860,24.000 16.400 C 22.481 17.940,21.037 19.200,20.791 19.200 C 20.212 19.200,19.200 20.212,19.200 20.791 C 19.200 21.037,17.940 22.481,16.400 24.000 C 14.860 25.519,13.600 26.950,13.600 27.181 C 13.600 27.411,13.450 27.600,13.268 27.600 C 13.085 27.600,12.680 28.095,12.368 28.700 C 12.055 29.305,11.485 30.149,11.100 30.575 C 10.715 31.002,10.400 31.587,10.400 31.875 C 10.400 32.164,10.253 32.400,10.074 32.400 C 9.676 32.400,8.400 35.001,8.400 35.814 C 8.400 36.136,8.220 36.400,8.000 36.400 C 7.780 36.400,7.600 36.760,7.600 37.200 C 7.600 37.640,7.420 38.000,7.200 38.000 C 6.980 38.000,6.800 38.360,6.800 38.800 C 6.800 39.240,6.620 39.600,6.400 39.600 C 6.180 39.600,6.000 39.960,6.000 40.400 C 6.000 40.840,5.865 41.201,5.700 41.203 C 5.294 41.207,4.400 43.186,4.400 44.080 C 4.400 44.476,4.220 44.800,4.000 44.800 C 3.780 44.800,3.600 45.160,3.600 45.600 C 3.600 46.040,3.420 46.400,3.200 46.400 C 2.980 46.400,2.800 46.940,2.800 47.600 C 2.800 48.260,2.620 48.800,2.400 48.800 C 2.180 48.800,2.000 49.520,2.000 50.400 C 2.000 51.280,1.820 52.000,1.600 52.000 C 1.380 52.000,1.200 52.705,1.200 53.567 C 1.200 54.464,0.987 55.204,0.700 55.300 C -0.036 55.545,-0.036 344.455,0.700 344.700 C 0.987 344.796,1.200 345.536,1.200 346.433 C 1.200 347.295,1.380 348.000,1.600 348.000 C 1.820 348.000,2.000 348.720,2.000 349.600 C 2.000 350.480,2.180 351.200,2.400 351.200 C 2.620 351.200,2.800 351.740,2.800 352.400 C 2.800 353.060,2.980 353.600,3.200 353.600 C 3.420 353.600,3.600 354.039,3.600 354.576 C 3.600 355.113,3.780 355.664,4.000 355.800 C 4.220 355.936,4.400 356.397,4.400 356.824 C 4.400 357.251,4.580 357.600,4.800 357.600 C 5.020 357.600,5.200 357.870,5.200 358.200 C 5.200 358.530,5.380 358.800,5.600 358.800 C 5.820 358.800,6.000 359.160,6.000 359.600 C 6.000 360.040,6.180 360.400,6.400 360.400 C 6.620 360.400,6.800 360.760,6.800 361.200 C 6.800 361.640,6.980 362.000,7.200 362.000 C 7.420 362.000,7.600 362.360,7.600 362.800 C 7.600 363.240,7.780 363.600,8.000 363.600 C 8.220 363.600,8.400 363.864,8.400 364.186 C 8.400 364.999,9.676 367.600,10.074 367.600 C 10.253 367.600,10.400 367.894,10.400 368.253 C 10.400 368.612,10.716 369.197,11.103 369.553 C 11.489 369.909,12.060 370.695,12.370 371.300 C 12.681 371.905,13.085 372.400,13.268 372.400 C 13.450 372.400,13.600 372.589,13.600 372.819 C 13.600 373.050,14.860 374.481,16.400 376.000 C 17.940 377.519,19.200 378.963,19.200 379.209 C 19.200 379.788,20.212 380.800,20.791 380.800 C 21.037 380.800,22.481 382.060,24.000 383.600 C 25.519 385.140,26.950 386.400,27.181 386.400 C 27.411 386.400,27.600 386.550,27.600 386.732 C 27.600 386.915,28.095 387.320,28.700 387.632 C 29.305 387.945,30.149 388.515,30.575 388.900 C 31.002 389.285,31.587 389.600,31.875 389.600 C 32.164 389.600,32.400 389.747,32.400 389.926 C 32.400 390.324,35.001 391.600,35.814 391.600 C 36.136 391.600,36.400 391.780,36.400 392.000 C 36.400 392.220,36.760 392.400,37.200 392.400 C 37.640 392.400,38.000 392.580,38.000 392.800 C 38.000 393.020,38.360 393.200,38.800 393.200 C 39.240 393.200,39.600 393.380,39.600 393.600 C 39.600 393.820,39.960 394.000,40.400 394.000 C 40.840 394.000,41.201 394.135,41.203 394.300 C 41.207 394.706,43.186 395.600,44.080 395.600 C 44.476 395.600,44.800 395.780,44.800 396.000 C 44.800 396.220,45.160 396.400,45.600 396.400 C 46.040 396.400,46.400 396.580,46.400 396.800 C 46.400 397.020,46.940 397.200,47.600 397.200 C 48.260 397.200,48.800 397.380,48.800 397.600 C 48.800 397.820,49.520 398.000,50.400 398.000 C 51.280 398.000,52.000 398.180,52.000 398.400 C 52.000 398.620,52.705 398.800,53.567 398.800 C 54.464 398.800,55.204 399.013,55.300 399.300 C 55.545 400.036,344.455 400.036,344.700 399.300 C 344.796 399.013,345.536 398.800,346.433 398.800 C 347.295 398.800,348.000 398.620,348.000 398.400 C 348.000 398.180,348.720 398.000,349.600 398.000 C 350.480 398.000,351.200 397.820,351.200 397.600 C 351.200 397.380,351.740 397.200,352.400 397.200 C 353.060 397.200,353.600 397.020,353.600 396.800 C 353.600 396.580,354.039 396.400,354.576 396.400 C 355.113 396.400,355.664 396.220,355.800 396.000 C 355.936 395.780,356.397 395.600,356.824 395.600 C 357.251 395.600,357.600 395.420,357.600 395.200 C 357.600 394.980,357.870 394.800,358.200 394.800 C 358.530 394.800,358.800 394.620,358.800 394.400 C 358.800 394.180,359.160 394.000,359.600 394.000 C 360.040 394.000,360.400 393.820,360.400 393.600 C 360.400 393.380,360.760 393.200,361.200 393.200 C 361.640 393.200,362.000 393.020,362.000 392.800 C 362.000 392.580,362.360 392.400,362.800 392.400 C 363.240 392.400,363.600 392.220,363.600 392.000 C 363.600 391.780,363.864 391.600,364.186 391.600 C 364.999 391.600,367.600 390.324,367.600 389.926 C 367.600 389.747,367.894 389.600,368.253 389.600 C 368.612 389.600,369.197 389.284,369.553 388.897 C 369.909 388.511,370.695 387.940,371.300 387.630 C 371.905 387.319,372.400 386.915,372.400 386.732 C 372.400 386.550,372.589 386.400,372.819 386.400 C 373.050 386.400,374.481 385.140,376.000 383.600 C 377.519 382.060,378.963 380.800,379.209 380.800 C 379.788 380.800,380.800 379.788,380.800 379.209 C 380.800 378.963,382.060 377.519,383.600 376.000 C 385.140 374.481,386.400 373.050,386.400 372.819 C 386.400 372.589,386.550 372.400,386.732 372.400 C 386.915 372.400,387.320 371.905,387.632 371.300 C 387.945 370.695,388.515 369.851,388.900 369.425 C 389.285 368.998,389.600 368.413,389.600 368.125 C 389.600 367.836,389.747 367.600,389.926 367.600 C 390.324 367.600,391.600 364.999,391.600 364.186 C 391.600 363.864,391.780 363.600,392.000 363.600 C 392.220 363.600,392.400 363.240,392.400 362.800 C 392.400 362.360,392.580 362.000,392.800 362.000 C 393.020 362.000,393.200 361.640,393.200 361.200 C 393.200 360.760,393.380 360.400,393.600 360.400 C 393.820 360.400,394.000 360.040,394.000 359.600 C 394.000 359.160,394.135 358.799,394.300 358.797 C 394.706 358.793,395.600 356.814,395.600 355.920 C 395.600 355.524,395.780 355.200,396.000 355.200 C 396.220 355.200,396.400 354.840,396.400 354.400 C 396.400 353.960,396.580 353.600,396.800 353.600 C 397.020 353.600,397.200 353.060,397.200 352.400 C 397.200 351.740,397.380 351.200,397.600 351.200 C 397.820 351.200,398.000 350.480,398.000 349.600 C 398.000 348.720,398.180 348.000,398.400 348.000 C 398.620 348.000,398.800 347.295,398.800 346.433 C 398.800 345.536,399.013 344.796,399.300 344.700 C 399.699 344.567,399.800 315.271,399.800 200.000 C 399.800 84.729,399.699 55.433,399.300 55.300 C 399.013 55.204,398.800 54.464,398.800 53.567 C 398.800 52.705,398.620 52.000,398.400 52.000 C 398.180 52.000,398.000 51.280,398.000 50.400 C 398.000 49.520,397.820 48.800,397.600 48.800 C 397.380 48.800,397.200 48.260,397.200 47.600 C 397.200 46.940,397.020 46.400,396.800 46.400 C 396.580 46.400,396.400 45.961,396.400 45.424 C 396.400 44.887,396.220 44.336,396.000 44.200 C 395.780 44.064,395.600 43.603,395.600 43.176 C 395.600 42.749,395.420 42.400,395.200 42.400 C 394.980 42.400,394.800 42.130,394.800 41.800 C 394.800 41.470,394.620 41.200,394.400 41.200 C 394.180 41.200,394.000 40.840,394.000 40.400 C 394.000 39.960,393.820 39.600,393.600 39.600 C 393.380 39.600,393.200 39.240,393.200 38.800 C 393.200 38.360,393.020 38.000,392.800 38.000 C 392.580 38.000,392.400 37.640,392.400 37.200 C 392.400 36.760,392.220 36.400,392.000 36.400 C 391.780 36.400,391.600 36.136,391.600 35.814 C 391.600 35.001,390.324 32.400,389.926 32.400 C 389.747 32.400,389.600 32.106,389.600 31.747 C 389.600 31.388,389.284 30.803,388.897 30.447 C 388.511 30.091,387.940 29.305,387.630 28.700 C 387.319 28.095,386.915 27.600,386.732 27.600 C 386.550 27.600,386.400 27.411,386.400 27.181 C 386.400 26.950,385.140 25.519,383.600 24.000 C 382.060 22.481,380.800 21.037,380.800 20.791 C 380.800 20.212,379.788 19.200,379.209 19.200 C 378.963 19.200,377.519 17.940,376.000 16.400 C 374.481 14.860,373.050 13.600,372.819 13.600 C 372.589 13.600,372.400 13.450,372.400 13.268 C 372.400 13.085,371.905 12.680,371.300 12.368 C 370.695 12.055,369.851 11.485,369.425 11.100 C 368.998 10.715,368.413 10.400,368.125 10.400 C 367.836 10.400,367.600 10.253,367.600 10.074 C 367.600 9.676,364.999 8.400,364.186 8.400 C 363.864 8.400,363.600 8.220,363.600 8.000 C 363.600 7.780,363.240 7.600,362.800 7.600 C 362.360 7.600,362.000 7.420,362.000 7.200 C 362.000 6.980,361.640 6.800,361.200 6.800 C 360.760 6.800,360.400 6.620,360.400 6.400 C 360.400 6.180,360.040 6.000,359.600 6.000 C 359.160 6.000,358.799 5.865,358.797 5.700 C 358.793 5.294,356.814 4.400,355.920 4.400 C 355.524 4.400,355.200 4.220,355.200 4.000 C 355.200 3.780,354.840 3.600,354.400 3.600 C 353.960 3.600,353.600 3.420,353.600 3.200 C 353.600 2.980,353.060 2.800,352.400 2.800 C 351.740 2.800,351.200 2.620,351.200 2.400 C 351.200 2.180,350.480 2.000,349.600 2.000 C 348.720 2.000,348.000 1.820,348.000 1.600 C 348.000 1.380,347.295 1.200,346.433 1.200 C 345.536 1.200,344.796 0.987,344.700 0.700 C 344.544 0.233,64.632 -0.164,57.500 0.293 M135.599 154.199 L 155.794 174.397 148.401 181.799 C 144.335 185.869,140.853 189.200,140.664 189.200 C 140.474 189.200,134.676 183.530,127.778 176.600 C 120.880 169.670,115.080 164.000,114.889 164.000 C 114.697 164.000,108.914 169.670,102.038 176.600 C 95.162 183.530,89.369 189.200,89.165 189.200 C 88.837 189.200,77.036 177.565,75.021 175.255 L 74.241 174.362 94.419 154.181 C 105.517 143.081,114.778 134.000,115.000 134.000 C 115.222 134.000,124.491 143.089,135.599 154.199 M262.613 164.508 C 262.738 165.008,262.787 166.673,262.720 168.208 L 262.600 171.000 250.500 171.106 L 238.400 171.212 238.400 203.173 C 238.400 220.752,238.291 235.419,238.157 235.767 C 237.958 236.285,237.197 236.400,233.957 236.400 L 230.000 236.400 230.000 204.433 C 230.000 186.851,229.891 172.181,229.757 171.833 C 229.543 171.275,228.092 171.200,217.557 171.200 L 205.600 171.200 205.600 167.400 L 205.600 163.600 233.992 163.600 L 262.385 163.600 262.613 164.508 M318.600 164.504 C 341.711 171.558,341.985 200.013,319.000 205.997 C 317.900 206.284,316.854 206.647,316.675 206.804 C 316.496 206.962,321.011 213.280,326.709 220.845 C 332.407 228.410,337.288 235.011,337.555 235.512 L 338.042 236.425 333.121 236.312 L 328.200 236.200 321.925 227.800 C 318.474 223.180,315.499 219.220,315.314 219.000 C 315.128 218.780,313.272 216.297,311.189 213.483 C 306.718 207.443,308.120 207.947,296.200 208.087 L 286.600 208.200 286.400 222.200 L 286.200 236.200 282.200 236.200 L 278.200 236.200 278.097 200.400 C 278.040 180.710,278.085 164.361,278.196 164.069 C 278.511 163.244,315.784 163.644,318.600 164.504 M286.495 185.900 L 286.600 200.600 298.200 200.731 C 311.505 200.881,314.781 200.548,319.000 198.620 C 329.769 193.697,330.524 178.652,320.256 173.598 C 315.798 171.403,314.306 171.230,299.695 171.214 L 286.390 171.200 286.495 185.900 M70.904 192.704 C 74.807 196.611,78.000 200.042,78.000 200.327 C 78.000 201.057,63.934 214.850,63.331 214.712 C 63.059 214.651,59.576 211.374,55.591 207.431 L 48.346 200.262 55.669 192.931 C 59.697 188.899,63.176 185.600,63.400 185.600 C 63.625 185.600,67.001 188.797,70.904 192.704 M122.504 192.704 C 126.407 196.611,129.600 199.988,129.600 200.208 C 129.600 200.781,115.488 214.800,114.911 214.800 C 114.647 214.800,111.164 211.537,107.171 207.549 L 99.910 200.298 107.251 192.949 C 111.289 188.907,114.776 185.600,115.000 185.600 C 115.225 185.600,118.601 188.797,122.504 192.704 M174.343 192.842 C 178.334 196.825,181.600 200.188,181.600 200.316 C 181.600 200.861,167.374 214.800,166.819 214.800 C 166.154 214.800,152.000 200.862,152.000 200.208 C 152.000 199.655,166.085 185.600,166.639 185.600 C 166.885 185.600,170.352 188.859,174.343 192.842 M114.994 236.400 C 115.208 236.400,121.105 230.689,128.098 223.708 L 140.813 211.016 148.305 218.508 L 155.797 226.000 135.600 246.200 C 124.492 257.310,115.210 266.400,114.974 266.400 C 114.538 266.400,74.727 226.780,74.511 226.132 C 74.446 225.938,77.730 222.460,81.808 218.403 L 89.223 211.027 101.914 223.714 C 108.894 230.691,114.780 236.400,114.994 236.400 " stroke="none" fill="#0b0c14" fill-rule="evenodd"></path></g></svg>