<?xml version="1.0" encoding="UTF-8"?>
<!DOCTYPE svg PUBLIC "-//W3C//DTD SVG 1.1//EN" "http://www.w3.org/Graphics/SVG/1.1/DTD/svg11.dtd">
<!-- Creator: CorelDRAW X7 -->
<svg xmlns="http://www.w3.org/2000/svg" xml:space="preserve" width="3.59294in" height="3.19824in" version="1.1" style="shape-rendering:geometricPrecision; text-rendering:geometricPrecision; image-rendering:optimizeQuality; fill-rule:evenodd; clip-rule:evenodd"
viewBox="0 0 3593 3198"
 xmlns:xlink="http://www.w3.org/1999/xlink">
 <defs>
  <style type="text/css">
   <![CDATA[
    .fil3 {fill:#016E51}
    .fil2 {fill:#016F50}
    .fil4 {fill:#211F20}
    .fil1 {fill:#231F20}
    .fil5 {fill:#241D20}
    .fil0 {fill:white}
   ]]>
  </style>
 </defs>
 <g id="Layer_x0020_1">
  <metadata id="CorelCorpID_0Corel-Layer"/>
  <g id="_2067867126064">
   <path class="fil0" d="M1202 2281c1,-13 152,-372 171,-418l173 -420c17,12 88,96 106,114 12,12 16,17 26,28 68,74 128,127 155,235 19,75 9,124 -18,187 -47,106 -114,194 -203,242 -59,32 -115,33 -189,33 -73,0 -148,-3 -221,-1zm417 -1005c10,-37 171,-421 193,-473 9,-22 57,-146 66,-154 1,-1 440,4 516,2 51,-2 117,-6 166,3 -38,27 -78,52 -116,77l-707 468c-19,13 -39,26 -58,39 -19,12 -41,28 -60,38zm-909 -628c67,8 142,5 211,3 73,-2 145,1 217,1 148,1 296,0 444,0 -1,1 -2,0 -2,2l-154 69c-53,22 -106,44 -159,66 -107,45 -213,88 -317,133 -25,11 -32,47 -42,71 -122,288 -242,587 -363,877 -111,264 -218,532 -330,795 -10,25 -63,147 -66,163 352,0 705,0 1057,0 358,0 633,17 927,-132 120,-60 215,-148 282,-246 53,-79 125,-265 165,-363 55,-135 120,-250 87,-423 -16,-80 -63,-168 -115,-215l-34 -31c-36,-32 -55,-38 -77,-56 11,-14 490,-269 554,-307 24,-15 36,-58 50,-93 41,-102 86,-203 127,-306 29,-74 56,-145 43,-239 -23,-158 -153,-236 -297,-278 -157,-46 -367,-33 -540,-33l-1583 0c-43,0 -102,-3 -143,1l58 541z"/>
   <path class="fil1" d="M7 2906l-7 23c11,13 26,27 38,40l197 195c44,45 40,33 126,33 417,0 834,0 1251,0 279,0 560,-5 809,-131 131,-67 219,-133 306,-241 12,-15 22,-28 34,-45 66,-94 146,-310 196,-429 31,-73 66,-147 80,-231 22,-132 -5,-271 -73,-382 -10,-17 -21,-33 -31,-47l-34 -42c-3,-2 -5,-3 -8,-5 6,-9 15,-11 27,-17 11,-6 17,-10 29,-16 11,-6 17,-10 28,-16l316 -173c20,-10 38,-21 58,-32l2 -2c14,-23 5,-3 19,-36l109 -262c59,-145 161,-337 90,-506 -23,-53 -53,-80 -93,-119 -10,-10 -17,-19 -26,-28 -9,-9 -19,-17 -27,-26 -19,-21 -145,-154 -158,-162 4,23 41,80 50,187 7,78 -5,134 -29,199 -50,134 -115,279 -169,416 -13,33 -22,55 -45,74 -11,10 -129,72 -149,83 -69,40 -154,83 -228,125 -13,8 -24,14 -37,21l-35 23c7,10 10,11 18,20 35,38 74,103 93,151 64,166 52,302 -15,461l-164 393c-26,61 -72,126 -108,169 -183,215 -470,328 -767,350 -91,6 -183,4 -275,4l-1115 0c-65,0 -223,4 -276,0l-7 -19z"/>
   <path class="fil2" d="M921 651c-69,2 -144,5 -211,-3l-58 -541c41,-4 100,-1 143,-1l1583 0c173,0 383,-13 540,33 144,42 274,120 297,278 13,94 -14,165 -43,239 -41,103 -86,204 -127,306 -14,35 -26,78 -50,93 -64,38 -543,293 -554,307 22,18 41,24 77,56l34 31c52,47 99,135 115,215 33,173 -32,288 -87,423 -40,98 -112,284 -165,363 -67,98 -162,186 -282,246 -294,149 -569,132 -927,132 -352,0 -705,0 -1057,0 3,-16 56,-138 66,-163 112,-263 219,-531 330,-795 121,-290 241,-589 363,-877 10,-24 17,-60 42,-71 104,-45 210,-88 317,-133 53,-22 106,-44 159,-66l154 -69c0,-2 1,-1 2,-2 -148,0 -296,1 -444,0 -72,0 -144,-3 -217,-1zm-290 106c36,-12 387,-8 441,-2 -29,27 -139,63 -192,90 -43,22 -44,84 -64,100 -2,20 -188,459 -202,492 -165,408 -340,814 -506,1223l-76 183c-8,20 -19,43 -25,63l7 19c53,4 211,0 276,0l1115 0c92,0 184,2 275,-4 297,-22 584,-135 767,-350 36,-43 82,-108 108,-169l164 -393c67,-159 79,-295 15,-461 -19,-48 -58,-113 -93,-151 -8,-9 -11,-10 -18,-20l35 -23c13,-7 24,-13 37,-21 74,-42 159,-85 228,-125 20,-11 138,-73 149,-83 23,-19 32,-41 45,-74 54,-137 119,-282 169,-416 24,-65 36,-121 29,-199 -9,-107 -46,-164 -50,-187l-43 -50c-39,-42 -107,-92 -162,-116 -220,-95 -420,-81 -661,-81l-1857 -2c0,63 11,130 17,192 7,63 14,127 21,189 13,125 25,250 41,375l10 1z"/>
   <path class="fil2" d="M1356 2177c5,-10 11,-31 16,-43 32,-87 82,-199 118,-287 22,-56 43,-113 67,-166 23,-50 15,-72 108,38 29,35 72,96 75,158 5,97 -89,238 -181,285 -47,24 -161,27 -203,15zm-154 104c73,-2 148,1 221,1 74,0 130,-1 189,-33 89,-48 156,-136 203,-242 27,-63 37,-112 18,-187 -27,-108 -87,-161 -155,-235 -10,-11 -14,-16 -26,-28 -18,-18 -89,-102 -106,-114l-173 420c-19,46 -170,405 -171,418z"/>
   <path class="fil3" d="M1847 1001c4,-39 29,-94 43,-127 9,-20 18,-39 27,-59 9,-21 16,-42 25,-62 101,-2 174,-2 274,2 -35,41 -210,140 -273,187 -19,14 -73,51 -96,59zm-228 275c19,-10 41,-26 60,-38 19,-13 39,-26 58,-39l707 -468c38,-25 78,-50 116,-77 -49,-9 -115,-5 -166,-3 -76,2 -515,-3 -516,-2 -9,8 -57,132 -66,154 -22,52 -183,436 -193,473z"/>
   <path class="fil1" d="M1356 2177c42,12 156,9 203,-15 92,-47 186,-188 181,-285 -3,-62 -46,-123 -75,-158 -93,-110 -85,-88 -108,-38 -24,53 -45,110 -67,166 -36,88 -86,200 -118,287 -5,12 -11,33 -16,43z"/>
   <path class="fil4" d="M631 757c2,8 79,84 90,95l95 93c20,-16 21,-78 64,-100 53,-27 163,-63 192,-90 -54,-6 -405,-10 -441,2z"/>
   <path class="fil5" d="M1847 1001c23,-8 77,-45 96,-59 63,-47 238,-146 273,-187 -100,-4 -173,-4 -274,-2 -9,20 -16,41 -25,62 -9,20 -18,39 -27,59 -14,33 -39,88 -43,127z"/>
  </g>
 </g>
</svg>
