<svg xmlns="http://www.w3.org/2000/svg" viewBox="0 0 150 150"><defs><linearGradient id="a" x1="17.68" x2="132.14" y1="116.45" y2="32.11" gradientUnits="userSpaceOnUse"><stop offset="0" stop-color="#2a54ff"/><stop offset=".52" stop-color="#2143cb"/><stop offset="1" stop-color="#2a54ff"/></linearGradient></defs><path fill="none" d="M0 0h150v150H0V0Z"/><path fill="url(#a)" d="M140.2 22.33c-25.18-.09-49.79 10.83-66.63 29.47-6.06 6.27-10.1 13.95-14.96 21.06C46.97 88.79 28.8 98 9.11 97.99v28.65c25.17.1 49.78-10.86 66.63-29.5 6.03-6.27 10.13-13.94 14.96-21.06 11.64-15.91 29.81-25.12 49.5-25.11V22.33Z"/><path fill="#2a54ff" d="M140.2 97.99c-19.68 0-37.86-9.2-49.5-25.11-4.81-7.12-8.92-14.78-14.94-21.06C58.95 33.18 34.3 22.24 9.13 22.35V51c21.8-.11 42.05 11.62 53.01 30.46 3.22 5.62 7.06 10.9 11.45 15.74 16.83 18.63 41.46 29.59 66.63 29.5L140.2 98Z"/></svg>