<svg xmlns="http://www.w3.org/2000/svg" xml:space="preserve" width="836.84424" height="914.80933">
    <defs>
        <clipPath id="a">
            <path stroke-linecap="round" d="M-186.41-125.66h372.816v351.267H-186.41Z"/>
        </clipPath>
        <clipPath id="b">
            <path stroke-linecap="round" d="M-186.41-95.22h372.816v351.267H-186.41Z"/>
        </clipPath>
        <clipPath id="c">
            <path stroke-linecap="round" d="M-160.08-140.83h372.816v351.267H-160.08Z"/>
        </clipPath>
        <clipPath id="d">
            <path stroke-linecap="round" d="M-212.74-140.83h372.816v351.267H-212.74Z"/>
        </clipPath>
    </defs>
    <g clip-path="url(#a)" transform="translate(418.40805 457.4024)scale(3.64)">
        <path d="m298.246 129.84-6.486-4.585 6.486-4.586c12.26215-8.68661 19.24883-23.025924 18.53269-38.036075-.71613-15.010151-9.03624-28.619172-22.06969-36.098925l-.568-.349c-12.19994-7.033047-27.02434-7.819595-39.9-2.117l-7.053 3.144-.83-7.687c-1.51376-14.021838-9.62342-26.481265-21.832-33.542l-.2-.087C217.64616 2.0246361 210.0606-.00958995 202.34 0c-8.04957.00100343-15.94637 2.1978633-22.84 6.354l-1.114.677c-11.58345 7.090871-19.28369 19.094034-20.9 32.579l-.917 7.6-6.967-3.1c-12.8836-5.747507-27.74063-4.976398-39.96 2.074l-.7.394c-13.604075 7.890873-21.986349 22.420072-22.008 38.147v.787c.02516 14.283035 6.954274 27.67261 18.6 35.942L112 126.04l-6.463 4.586c-12.260313 8.67436-19.255033 22.99852-18.556462 38.00091.698572 15.00239 8.994121 28.61458 22.007462 36.11209l.633.393c12.22088 7.0137 27.04998 7.79342 39.939 2.1l7.054-3.123.807 7.687c1.51242 13.97659 9.57745 26.40246 21.727 33.475l.284.153c13.92748 8.0385 31.12909 7.84683 44.874-.5l1.092-.655c11.59433-7.07976 19.29833-19.08878 20.9-32.579l.9-7.6 6.987 3.123c12.9143 5.73028 27.78955 4.94317 40.027-2.118l.611-.372c13.60439-7.88085 21.98922-22.40383 22.012-38.126v-.808c-.0274-14.27871-6.94846-27.66532-18.583-35.943M292 166.591c-.0145 6.86067-3.67326 13.19693-9.608 16.639l-.654.394c-5.96032 3.4063-13.27768 3.4063-19.238 0l-17.884-10.351-22.841 13.211v20.133c-.0194 6.70609-3.51599 12.92214-9.237 16.421l-1.114.677c-5.99641 3.62641-13.48927 3.70989-19.565.218l-.24-.153c-5.94051-3.43919-9.60731-9.7748-9.63-16.639v-20.657l-22.841-13.211-17.884 10.351c-5.9447 3.40734-13.2503 3.40734-19.195 0l-.677-.415c-5.92257-3.40301-9.59053-9.69703-9.63171-16.52753-.0412-6.83049 3.5506-13.16829 9.43171-16.64247l18.648-11.027-.153-26.313-18.3-10.569c-5.94649-3.42296-9.61685-9.756715-9.63-16.618v-.787c.0184-6.865358 3.68634-13.20295 9.63-16.639l.655-.415c5.9528-3.406398 13.2642-3.406398 19.217 0l17.884 10.351 22.841-13.189V44.7c.0433-6.705114 3.54343-12.913272 9.258-16.421l1.114-.677c5.98556-3.637575 13.47843-3.721536 19.544-.219l.24.131c5.95616 3.434267 9.62726 9.785677 9.63 16.661v20.658l22.841 13.189L262.5 67.671c5.96032-3.406299 13.27768-3.406299 19.238 0l.654.415c5.91101 3.411809 9.56893 9.702792 9.61008 16.527659.0412 6.824866-3.54064 13.159502-9.41008 16.642341l-18.67 11.027.153 26.313 18.321 10.569c5.93573 3.43032 9.59519 9.76235 9.604 16.618z" style="opacity:1;fill:#10f48b;fill-rule:nonzero;stroke:none;stroke-width:1;stroke-linecap:butt;stroke-linejoin:miter;stroke-miterlimit:4;stroke-dasharray:none;stroke-dashoffset:0" transform="translate(-201.88 -125.66)" vector-effect="non-scaling-stroke"/>
    </g>
    <g clip-path="url(#b)" transform="translate(418.40805 346.6008)scale(3.64)">
        <path d="m255.89 111.218-37.166 21.432-37.165-21.432 37.165-21.463Z" style="opacity:1;fill:#10f48b;fill-rule:nonzero;stroke:none;stroke-width:1;stroke-linecap:butt;stroke-linejoin:miter;stroke-miterlimit:4;stroke-dasharray:none;stroke-dashoffset:0" transform="translate(-218.72 -111.2)" vector-effect="non-scaling-stroke"/>
    </g>
    <g clip-path="url(#c)" transform="translate(322.56685 512.6212)scale(3.64)">
        <path d="M209.3 153.613v42.927l-37.166-21.463v-42.9z" style="opacity:1;fill:#10f48b;fill-rule:nonzero;stroke:none;stroke-width:1;stroke-linecap:butt;stroke-linejoin:miter;stroke-miterlimit:4;stroke-dasharray:none;stroke-dashoffset:0" transform="translate(-190.72 -164.36)" vector-effect="non-scaling-stroke"/>
    </g>
    <g clip-path="url(#d)" transform="translate(514.24925 512.6212)scale(3.64)">
        <path d="M273.357 132.181v42.9l-37.166 21.459v-42.927z" style="opacity:1;fill:#10f48b;fill-rule:nonzero;stroke:none;stroke-width:1;stroke-linecap:butt;stroke-linejoin:miter;stroke-miterlimit:4;stroke-dasharray:none;stroke-dashoffset:0" transform="translate(-254.77 -164.36)" vector-effect="non-scaling-stroke"/>
    </g>
</svg>