<svg xmlns="http://www.w3.org/2000/svg" xml:space="preserve" viewBox="0 0 836.844 914.809"><defs><clipPath id="a"><path stroke-linecap="round" d="M-186.41-125.66h372.816v351.267H-186.41Z"/></clipPath><clipPath id="b"><path stroke-linecap="round" d="M-186.41-95.22h372.816v351.267H-186.41Z"/></clipPath><clipPath id="c"><path stroke-linecap="round" d="M-160.08-140.83h372.816v351.267H-160.08Z"/></clipPath><clipPath id="d"><path stroke-linecap="round" d="M-212.74-140.83h372.816v351.267H-212.74Z"/></clipPath></defs><g clip-path="url(#a)" transform="matrix(3.64 0 0 3.64 418.408 457.402)"><path d="m298.246 129.84-6.486-4.585 6.486-4.586a44.041 44.041 0 0 0-3.537-74.135l-.568-.349a44.118 44.118 0 0 0-39.9-2.117l-7.053 3.144-.83-7.687a44.232 44.232 0 0 0-21.832-33.542l-.2-.087A43.738 43.738 0 0 0 202.34 0a44.247 44.247 0 0 0-22.84 6.354l-1.114.677a44.393 44.393 0 0 0-20.9 32.579l-.917 7.6-6.967-3.1a44.049 44.049 0 0 0-39.96 2.074l-.7.394a44.17 44.17 0 0 0-22.008 38.147v.787a44.177 44.177 0 0 0 18.6 35.942L112 126.04l-6.463 4.586a44.041 44.041 0 0 0 3.451 74.113l.633.393a44.287 44.287 0 0 0 39.939 2.1l7.054-3.123.807 7.687a44.241 44.241 0 0 0 21.727 33.475l.284.153a44.04 44.04 0 0 0 44.874-.5l1.092-.655a44.291 44.291 0 0 0 20.9-32.579l.9-7.6 6.987 3.123a44.211 44.211 0 0 0 40.027-2.118l.611-.372a44.135 44.135 0 0 0 22.012-38.126v-.808a44.216 44.216 0 0 0-18.583-35.943M292 166.591a19.282 19.282 0 0 1-9.608 16.639l-.654.394a19.386 19.386 0 0 1-19.238 0l-17.884-10.351-22.841 13.211v20.133a19.314 19.314 0 0 1-9.237 16.421l-1.114.677a19.261 19.261 0 0 1-19.565.218l-.24-.153a19.3 19.3 0 0 1-9.63-16.639v-20.657l-22.841-13.211-17.884 10.351a19.3 19.3 0 0 1-19.195 0l-.677-.415a19.195 19.195 0 0 1-.2-33.17l18.648-11.027-.153-26.313-18.3-10.569a19.217 19.217 0 0 1-9.63-16.618v-.787a19.279 19.279 0 0 1 9.63-16.639l.655-.415a19.346 19.346 0 0 1 19.217 0l17.884 10.351 22.841-13.189V44.7a19.415 19.415 0 0 1 9.258-16.421l1.114-.677a19.172 19.172 0 0 1 19.544-.219l.24.131a19.241 19.241 0 0 1 9.63 16.661v20.658l22.841 13.189L262.5 67.671a19.386 19.386 0 0 1 19.238 0l.654.415a19.217 19.217 0 0 1 .2 33.17l-18.67 11.027.153 26.313 18.321 10.569A19.222 19.222 0 0 1 292 165.783z" style="opacity:1;fill:#10f48b;fill-rule:nonzero;stroke:none;stroke-width:1;stroke-linecap:butt;stroke-linejoin:miter;stroke-miterlimit:4;stroke-dasharray:none;stroke-dashoffset:0" transform="translate(-201.88 -125.66)" vector-effect="non-scaling-stroke"/></g><g clip-path="url(#b)" transform="matrix(3.64 0 0 3.64 418.408 346.6)"><path d="m255.89 111.218-37.166 21.432-37.165-21.432 37.165-21.463Z" style="opacity:1;fill:#10f48b;fill-rule:nonzero;stroke:none;stroke-width:1;stroke-linecap:butt;stroke-linejoin:miter;stroke-miterlimit:4;stroke-dasharray:none;stroke-dashoffset:0" transform="translate(-218.72 -111.2)" vector-effect="non-scaling-stroke"/></g><g clip-path="url(#c)" transform="matrix(3.64 0 0 3.64 322.567 512.621)"><path d="M209.3 153.613v42.927l-37.166-21.463v-42.9z" style="opacity:1;fill:#10f48b;fill-rule:nonzero;stroke:none;stroke-width:1;stroke-linecap:butt;stroke-linejoin:miter;stroke-miterlimit:4;stroke-dasharray:none;stroke-dashoffset:0" transform="translate(-190.72 -164.36)" vector-effect="non-scaling-stroke"/></g><g clip-path="url(#d)" transform="matrix(3.64 0 0 3.64 514.25 512.621)"><path d="M273.357 132.181v42.9l-37.166 21.459v-42.927z" style="opacity:1;fill:#10f48b;fill-rule:nonzero;stroke:none;stroke-width:1;stroke-linecap:butt;stroke-linejoin:miter;stroke-miterlimit:4;stroke-dasharray:none;stroke-dashoffset:0" transform="translate(-254.77 -164.36)" vector-effect="non-scaling-stroke"/></g></svg>