<svg xmlns="http://www.w3.org/2000/svg" viewBox="0 0 500 443.113">
  <path d="m393.85 126.195 38.363-62.724 29.552 48.359-8.735 14.365h-59.18ZM281.806 407.963h-63.879L46.587 125.927h60.785l92.82 152.864 16.373-26.36 61.115-.197-.19.325-46.741 76.537 19.493 32.089 88.388-144.567h-39.19v.084h-98.65l-55.106-90.775h61.268l21.963 35.432H431.78L281.806 407.963ZM84.989 35.136h326.216L355.5 126.195l-62.389-.268 21.161-35.137H51.248l33.74-55.654ZM431.704 0H67.94v.254L0 112.295l201.057 330.818h97.632L500 111.773 431.704 0Z"/>
</svg>