<svg xmlns="http://www.w3.org/2000/svg" xml:space="preserve" style="enable-background:new 0 0 652 652" viewBox="0 0 652 652"><path d="M108.8 331.4c0-11.4-6.6-20.5-17.3-24.2 8.1-3.7 13.7-11.4 13.7-21.3 0-15.5-13-26.3-31.5-26.3H21v13.2c8.3 0 15 6.7 15 15s-6.7 15-15 15v11.9c8.3 0 15 6.7 15 15s-6.7 15-15 15V359h55c18.9 0 32.6-11.2 32.6-27.5m-59.3-57.6H71c8.9 0 15.2 5.8 15.2 13.9s-6.3 13.7-15.2 13.7H49.3v-27.6zm0 70.6v-30H73c9.8 0 16.4 6.1 16.4 14.9s-6.6 15.1-16.4 15.1H49.3zm80.9-90.1c6.6 0 11.4 4.7 11.4 11.4s-4.7 11.4-11.4 11.4c-6.6 0-11.2-4.7-11.2-11.4s4.7-11.4 11.2-11.4m-9.5 32.1h18.9v72.4h-18.9v-72.4zm55.5-.1h20.1v14.4h-20.1v34.6c0 5.5 4.4 10.1 9.9 10.2 2.9 0 6.1-.4 9.6-1.3l2.5 14.2c-5.8 1.5-11.2 2.2-16.4 2.2-14.5 0-24.6-9.5-24.6-23.4v-67.4c0-2.6 2.1-4.7 4.7-4.7h14.2v21.2h.1zm58.4-1.7c8.4 0 17.4 1.7 26.6 5l-4.1 13.6c-7.3-2.8-14.5-4.6-21-4.6s-11.2 3.1-11.2 7.8c0 13.1 38.7 3.6 38.7 31.6 0 13.2-11.9 22.5-29 22.5-8.9 0-18.6-2-28.8-5.8l4-13.5c8.4 3.4 16.4 5.2 23.4 5.2s11.9-3.4 11.9-8.4c0-13.7-38.6-4.1-38.6-31.6 0-12.7 11.5-21.9 28.3-21.9m58.9 1.8h20.1v14.4h-20.1v34.6c0 5.5 4.4 10.1 9.9 10.2 2.9 0 6.1-.4 9.6-1.3l2.5 14.2c-5.8 1.5-11.2 2.2-16.4 2.2-14.5 0-24.6-9.5-24.6-23.4v-67.4c0-2.7 2.2-4.7 4.7-4.7h14.2v21.2zm120.1 0h15.1l2.4 9.9c5.8-7.5 14.2-11.6 23.8-11.6 10.5 0 19 5 23.2 13.3 6.6-8.6 15.7-13.3 26.2-13.3 15.8 0 27.1 11 27.1 26.4v47.7h-18.9V314c0-8.1-5.8-13.9-14-13.9-9.6 0-16.4 7.3-16.4 17.6v41.1h-18.9V314c0-8.1-5.8-13.9-13.9-13.9-9.8 0-16.5 7.3-16.5 17.6v41.1h-18.9v-72.4h-.3zm133.3 0h15.1l2.4 9.3c5.3-7.1 13.6-11.1 23.2-11.1 19.5 0 33.3 15.7 33.3 38s-13.7 37.9-33.3 37.9c-8.9 0-16.5-3.6-21.8-10v32.2c0 2.6-2.1 4.7-4.7 4.7H547l.1-101zm35.7 13.2c-10 0-17.2 7.5-17.2 18.2v9.8c0 10.5 7.1 18.2 17.2 18.2 11.1 0 18.9-9.6 18.9-23 .1-13.4-7.8-23.1-18.9-23.2m-204.7 27.9c0 10.5-7.1 18.2-17.2 18.2-11.1 0-18.9-9.6-18.9-23s7.8-23.1 18.9-23.1c10 0 17.2 7.5 17.2 18.2v9.7zm18.6-4.2v-36.9h-15.1l-2.4 9.3c-5.3-7.1-13.6-11.1-23.2-11.1-19.5 0-33.3 15.7-33.3 38s13.7 37.9 33.3 37.9c1.1 0 2.2 0 3.3-.2 8.2-.8 15.1-4.7 19.9-10.9l2.4 9.3h15.1v-35.4z" style="fill:#003b2f"/></svg>