<svg xmlns="http://www.w3.org/2000/svg" viewBox="0 0 500 500">
  <path fill="#175ddc" d="M500 421.875C500 465.039 465.039 500 421.875 500H78.125C34.961 500 0 465.039 0 421.875V78.125C0 34.961 34.961 0 78.125 0h343.75C465.039 0 500 34.961 500 78.125v343.75Z"/>
  <path fill="#fff" d="M405.176 62.793c-3.174-3.174-6.934-4.736-11.231-4.736h-287.89c-4.346 0-8.057 1.562-11.231 4.736-3.174 3.174-4.736 6.934-4.736 11.23v191.944c0 14.306 2.783 28.515 8.35 42.627 5.566 14.062 12.5 26.562 20.751 37.5 8.252 10.888 18.067 21.533 29.493 31.884 11.425 10.352 21.972 18.897 31.591 25.733 9.668 6.836 19.727 13.281 30.225 19.385 10.498 6.103 17.969 10.205 22.363 12.353 4.395 2.149 7.959 3.858 10.596 4.981a14.605 14.605 0 0 0 6.494 1.513c2.344 0 4.492-.488 6.494-1.513 2.686-1.172 6.201-2.832 10.645-4.981 4.394-2.148 11.865-6.299 22.363-12.353 10.498-6.104 20.557-12.549 30.225-19.385 9.668-6.836 20.215-15.43 31.64-25.733 11.426-10.351 21.241-20.947 29.493-31.884 8.252-10.938 15.136-23.389 20.752-37.5 5.566-14.063 8.349-28.272 8.349-42.627V74.072c.049-4.345-1.562-8.105-4.736-11.279Zm-37.11 204.98C368.066 337.256 250 397.119 250 397.119V99.17h118.066v168.603Z"/>
</svg>
