<svg id="Layer_1" data-name="Layer 1" xmlns="http://www.w3.org/2000/svg" xmlns:xlink="http://www.w3.org/1999/xlink" viewBox="0 0 103.57 128"><defs><linearGradient id="linear-gradient" x1="33.08" y1="21.98" x2="88.52" y2="21.98" gradientUnits="userSpaceOnUse"><stop offset="0.17" stop-color="#97ca4e"/><stop offset="0.25" stop-color="#8bc54d"/><stop offset="0.39" stop-color="#6cb74a"/><stop offset="0.57" stop-color="#3aa046"/><stop offset="0.76" stop-color="#008541"/></linearGradient><linearGradient id="linear-gradient-2" x1="74.97" y1="111.07" x2="29.44" y2="13.42" gradientUnits="userSpaceOnUse"><stop offset="0" stop-color="#97ca4e"/><stop offset="0.18" stop-color="#94c84e"/><stop offset="0.35" stop-color="#89c34d"/><stop offset="0.5" stop-color="#77bb4b"/><stop offset="0.65" stop-color="#5db049"/><stop offset="0.79" stop-color="#3ca146"/><stop offset="0.94" stop-color="#158e43"/><stop offset="1" stop-color="#008541"/></linearGradient><linearGradient id="linear-gradient-3" x1="89.48" y1="1.44" x2="89.48" y2="81.25" xlink:href="#linear-gradient"/><radialGradient id="radial-gradient" cx="57.13" cy="124.88" r="76.75" gradientTransform="translate(0 -31.47) scale(1 1.25)" gradientUnits="userSpaceOnUse"><stop offset="0" stop-color="#97ca4e"/><stop offset="0.24" stop-color="#94c94e"/><stop offset="0.4" stop-color="#8bc54d"/><stop offset="0.54" stop-color="#7cbe4c"/><stop offset="0.66" stop-color="#66b44a"/><stop offset="0.78" stop-color="#4aa747"/><stop offset="0.89" stop-color="#289744"/><stop offset="1" stop-color="#008541"/></radialGradient></defs><path d="M81.68,2C55.06-7.58,34.36,21.23,33.08,43.88c3.51-25.11,30.33-36.1,44.69-30.6,3.66,1.4,6.65,4.35,5.9,8.84a11.87,11.87,0,0,1-2.09,4.46S97.13,7.48,81.68,2Z" transform="translate(-14.71 0)" style="fill:url(#linear-gradient)"/><path d="M47,122.84c-16.44-8.57-14.38-53.09-14.38-70.48a78.41,78.41,0,0,1,.45-8.48C34.22,23.79,50.63-1.13,72.89.13a43.89,43.89,0,0,0-7,0C59.79.66,43.64,3.82,31.09,15.71,18,28.09,14.55,46.23,14.72,66c.41,47.86,22.28,55.73,31.8,58.09a.85.85,0,0,0,.22,0,.69.69,0,0,0,.69-.68A.73.73,0,0,0,47,122.84Z" transform="translate(-14.71 0)" style="fill:url(#linear-gradient-2)"/><path d="M106,71.34C92.64,59.27,84.75,55.72,84.26,48.57c-.37-5.3,3.69-8.34,8.33-15.23C100.78,21.17,95.89,8,83.14,2.56c13,6.19-1.56,24-1.56,24l.18-.28C77.11,33,66.42,42,68.55,51.2c3.51,15.1,26.25,8,42.13,25A46.21,46.21,0,0,0,106,71.34Z" transform="translate(-14.71 0)" style="fill:url(#linear-gradient-3)"/><path d="M110.36,75.9C94.5,59.33,72,66.2,68.55,51.2a12.92,12.92,0,0,1-.24-1.62c.27,13,8.68,18,22,28,14.36,10.83,16.59,44.36-35.73,46.61-.31,0-.75,0-1.18.08a.69.69,0,0,0,0,1.38c13.74,3.42,41.3,5.08,56.19-9C120.43,106.38,121.64,89.55,110.36,75.9Z" transform="translate(-14.71 0)" style="fill:url(#radial-gradient)"/></svg>