<svg xmlns="http://www.w3.org/2000/svg" viewBox="0 0 190 118">
  <path fill="#CD0E0E" d="M9.532901,15.144949 C8.200887,13.431742 6.900423,11.814788 10.119119,11.677268 C17.369875,11.367477 24.186459,10.716161 29.316187,18.447104 C34.899559,26.861729 42.175652,34.158756 48.795139,41.873203 C49.617786,42.831924 50.330769,45.184017 52.120708,43.723869 C53.929081,42.248672 51.784290,41.082363 50.970680,40.092773 C45.292767,33.186771 39.519722,26.358984 32.825169,18.370111 C40.465500,18.370111 46.714767,18.347790 52.963665,18.386271 C54.470333,18.395550 55.255211,19.625280 56.101723,20.637848 C62.194031,27.925274 68.182968,35.301945 74.407593,42.474220 C76.302086,44.657131 75.821480,46.058769 74.227608,47.995724 C70.145805,52.956112 66.235802,58.057869 62.074883,63.334156 C73.968636,65.737785 85.198265,64.415947 87.994583,59.867161 C82.607071,59.867161 77.595238,59.867161 71.696846,59.867161 C76.015823,53.304638 79.217766,48.128033 87.835388,48.805042 C99.255928,49.702244 110.800079,49.026123 122.224022,49.026123 C122.390854,49.570301 122.661507,50.008095 122.550194,50.153519 C114.863220,60.196301 107.460693,70.492233 98.410629,79.387627 C94.901863,82.836418 90.543457,85.013969 85.432724,85.019890 C64.099655,85.044617 42.766541,85.033844 21.433447,85.020584 C20.669121,85.020103 19.904900,84.856773 18.267580,84.669472 C25.531504,75.966919 32.114765,67.654434 39.197136,59.791512 C42.292110,56.355438 42.308384,54.240589 39.269993,50.734257 C29.232174,39.150520 19.587244,27.226326 9.532901,15.144949 z"/>
  <path fill="#CD0E0E" d="M127.810516,75.805786 C131.234406,71.802666 134.427032,68.069443 138.576385,63.217491 C131.084259,63.217491 125.080688,63.217491 117.680145,63.217491 C122.077400,58.182587 125.524483,54.218620 128.995407,50.275639 C129.697418,49.478146 130.668030,49.241821 131.707397,49.241955 C147.171509,49.243900 162.635620,49.243298 178.003799,49.243298 C178.860016,51.232273 177.396713,51.974201 176.629135,52.882504 C161.901932,70.309692 147.101364,87.675011 132.419708,105.140343 C130.542191,107.373848 128.600357,108.372581 125.640327,108.360886 C100.323112,108.260765 75.005318,108.314308 49.687771,108.274773 C48.296963,108.272598 46.347378,108.988266 45.660923,107.404922 C45.072556,106.047813 46.248756,104.563698 47.103241,103.352562 C54.403248,93.005539 64.135338,87.343803 77.065048,87.462105 C88.388847,87.565704 99.720871,87.131714 111.038361,87.398033 C115.950249,87.513626 119.694046,86.481110 122.438019,82.185898 C123.858757,79.961983 125.847244,78.100777 127.810516,75.805786 z"/>
  <path fill="#CD0E0E" d="M170.428223,45.368073 C164.878281,45.380657 159.783234,45.380657 154.532837,45.380657 C157.488724,38.337517 159.690750,36.823582 166.598526,36.822083 C171.897644,36.820930 177.196960,36.803780 182.495728,36.847504 C183.413956,36.855080 184.643784,36.451225 185.128769,37.578209 C185.582520,38.632584 184.601730,39.384235 184.043869,40.158756 C180.772827,44.700001 176.127182,45.792988 170.428223,45.368073 z"/>
</svg>