<svg xmlns="http://www.w3.org/2000/svg" viewBox="0 0 150 150">
  <path d="M77.6,12.56H32.5V57.66c0,24.91,20.19,45.1,45.1,45.1h0c24.91,0,45.1-20.19,45.1-45.1h0c0-24.91-20.19-45.1-45.1-45.1Z" fill="#00a9e0"/>
  <path d="M32.5,93.24v45.1h45.1c24.91,0,45.1-20.19,45.1-45.1h0c0-24.91-20.19-45.1-45.1-45.1h0c-24.91,0-45.1,20.19-45.1,45.1Z" fill="#9c5fb5"/>
  <path d="M77.63,102.82c17.81,0,33.95-10.47,41.21-26.73,.1-.22,.18-.44,.27-.65-9.8-22.91-36.32-33.54-59.23-23.73-10.45,4.47-18.83,12.72-23.46,23.1l-.27,.65c7.11,16.6,23.42,27.36,41.48,27.36Z" fill="#280091"/>
</svg>