<svg xmlns="http://www.w3.org/2000/svg" xml:space="preserve" style="enable-background:new 0 0 51.7 72" viewBox="0 0 51.7 72"><path d="M25.8 20.3c-10.5 0-19.6 6.3-23.6 15.3-.1.1-.1.2-.2.4 0-.1 0-.2-.1-.4-1.2-3-1.9-6.3-1.9-9.8V0h25.8c14.3 0 25.8 11.6 25.8 25.8 0 3.6-.8 7-2.1 10.2-3.9-9.2-13-15.7-23.7-15.7z" style="fill-rule:evenodd;clip-rule:evenodd;fill:#00b7e5"/><path d="M49.6 36c-.1.1-.1.3-.2.4-4 9-13.1 15.3-23.6 15.3C15.2 51.7 6 45.2 2.1 36 .8 39.1 0 42.6 0 46.2V72h25.8c14.3 0 25.8-11.6 25.8-25.8 0-3.5-.7-6.8-1.9-9.8 0-.2-.1-.3-.1-.4" style="fill-rule:evenodd;clip-rule:evenodd;fill:#b076c0"/><path d="M25.8 51.7c10.5 0 19.6-6.3 23.6-15.3.1-.1.1-.2.2-.4-3.9-9.2-13.1-15.7-23.7-15.7-10.5 0-19.6 6.3-23.6 15.3-.1.1-.1.2-.2.4C6 45.2 15.2 51.7 25.8 51.7" style="fill-rule:evenodd;clip-rule:evenodd;fill:#3a13a0"/></svg>