<svg xmlns="http://www.w3.org/2000/svg" xml:space="preserve" fill-rule="evenodd" stroke-linejoin="round" stroke-miterlimit="2" clip-rule="evenodd" viewBox="0 0 195 228">
  <path fill="url(#a)" fill-rule="nonzero" d="M.32-.586.218-.47s-.09-.025-.133.018c-.042.042-.077.08-.077.08l.027.067-.035.1.115.437c.024.094.04.13.108.178.067.047.19.13.21.142.02.013.045.034.067.034.022 0 .048-.021.068-.034C.588.54.71.457.778.41.845.362.861.326.885.232L1-.205l-.035-.1.028-.067S.958-.41.915-.452C.873-.495.783-.47.783-.47L.68-.586H.32Z" transform="translate(0 113.765) scale(194.182)"/>
  <path fill="#fff" fill-rule="nonzero" d="M121.849 40.999c2.913 0 24.516-4.123 24.516-4.123s25.601 30.925 25.601 37.535c0 5.465-2.202 7.603-4.794 10.123a52.377 52.377 0 0 0-1.665 1.667l-19.195 20.369c-.191.202-.402.414-.627.64-1.916 1.925-4.737 4.76-2.746 9.468l.409.959c2.182 5.101 4.877 11.398 1.447 17.779-3.649 6.788-9.899 11.318-13.904 10.569-4.005-.749-13.411-5.661-16.869-7.904-3.459-2.244-14.422-11.279-14.422-14.735 0-2.883 7.884-7.68 11.715-10.01a57.14 57.14 0 0 0 1.71-1.063c.396-.267 1.057-.677 1.871-1.183 3.497-2.17 9.809-6.09 9.968-7.827.195-2.143.121-2.771-2.697-8.065-.599-1.125-1.3-2.331-2.025-3.577-2.684-4.614-5.688-9.78-5.023-13.481.751-4.177 7.301-6.573 12.85-8.601.693-.254 1.371-.502 2.02-.747 1.619-.611 3.654-1.373 5.78-2.168 5.54-2.074 11.695-4.378 12.71-4.845 1.406-.648 1.042-1.265-3.214-1.668a173.74 173.74 0 0 1-2.066-.213c-5.268-.559-14.985-1.591-19.709-.275-.929.259-1.971.54-3.063.836-5.307 1.436-11.811 3.196-12.436 4.211-.11.177-.217.33-.318.474-.598.849-.988 1.403-.326 5.011.196 1.074.601 3.188 1.102 5.801 1.466 7.651 3.753 19.586 4.041 22.268.04.375.085.737.127 1.085.367 2.991.611 4.982-2.865 5.776l-.91.208c-3.922.9-9.673 2.219-11.751 2.219-2.079 0-7.834-1.32-11.756-2.22l-.904-.207c-3.477-.794-3.233-2.785-2.866-5.776.042-.348.087-.71.127-1.085.289-2.685 2.581-14.65 4.047-22.3.498-2.598.901-4.699 1.097-5.769.661-3.608.271-4.162-.326-5.011a8.626 8.626 0 0 1-.318-.474c-.625-1.015-7.129-2.775-12.436-4.211a410.655 410.655 0 0 1-3.064-.836c-4.724-1.316-14.439-.284-19.708.275-.804.085-1.504.16-2.067.213-4.256.403-4.619 1.02-3.214 1.668 1.015.467 7.167 2.77 12.706 4.843 2.127.796 4.164 1.559 5.784 2.17.65.245 1.328.493 2.022.747 5.548 2.029 12.098 4.424 12.849 8.601.665 3.701-2.339 8.866-5.022 13.479-.725 1.247-1.427 2.453-2.026 3.579-2.819 5.294-2.893 5.922-2.698 8.065.159 1.737 6.469 5.655 9.966 7.826.815.506 1.477.917 1.873 1.184.347.233.948.599 1.709 1.062 3.83 2.33 11.716 7.127 11.716 10.011 0 3.456-10.962 12.491-14.421 14.735-3.459 2.243-12.865 7.155-16.87 7.904-4.005.749-10.255-3.781-13.904-10.569-3.429-6.38-.735-12.677 1.447-17.778.139-.325.276-.645.409-.96 1.991-4.709-.831-7.544-2.747-9.469a39.31 39.31 0 0 1-.626-.639L28.675 86.201c-.561-.595-1.121-1.139-1.664-1.667-2.593-2.519-4.795-4.658-4.795-10.123 0-6.61 25.601-37.535 25.601-37.535s21.603 4.123 24.516 4.123c2.324 0 6.812-1.544 11.491-3.154 1.184-.408 2.381-.82 3.558-1.212 5.826-1.94 9.709-1.954 9.709-1.954s3.884.014 9.709 1.954c1.177.392 2.374.804 3.559 1.212 4.678 1.61 9.166 3.154 11.49 3.154"/>
  <path fill="#fff" fill-rule="nonzero" d="M118.141 150.386c4.567 2.351 7.807 4.02 9.032 4.786 1.584.991.618 2.86-.825 3.88-1.444 1.02-20.843 16.031-22.726 17.69-.241.212-.496.442-.762.682-1.815 1.634-4.128 3.718-5.769 3.718s-3.956-2.086-5.77-3.72c-.266-.239-.52-.468-.761-.68-1.883-1.659-21.281-16.67-22.725-17.69-1.444-1.02-2.41-2.889-.826-3.88 1.226-.767 4.469-2.437 9.041-4.791 1.339-.69 2.793-1.438 4.344-2.24 6.841-3.537 15.367-6.545 16.697-6.545 1.331 0 9.856 3.008 16.698 6.545 1.554.803 3.01 1.554 4.352 2.245"/>
  <defs>
    <linearGradient id="a" x1="0" x2="1" y1="0" y2="0" gradientTransform="scale(1 -1)" gradientUnits="userSpaceOnUse">
      <stop offset="0" stop-color="#ff5601"/>
      <stop offset=".5" stop-color="#ff4000"/>
      <stop offset="1" stop-color="#ff1f01"/>
    </linearGradient>
  </defs>
</svg>
