<svg viewBox="0 0 113.55 150" xmlns="http://www.w3.org/2000/svg" xmlns:xlink="http://www.w3.org/1999/xlink"><linearGradient id="a" gradientUnits="userSpaceOnUse" x2="113.55" y1="75" y2="75"><stop offset="0" stop-color="#003aff"/><stop offset=".25" stop-color="#0067ff"/><stop offset=".8" stop-color="#02d6ff"/><stop offset="1" stop-color="#02ffff"/></linearGradient><path d="m74.49 131.19c-8.74 6.18-13.91 13.91-11.49 17.26s11.37 1.07 20.11-5.1 13.89-13.9 11.49-17.26c-.74-1-2.13-1.55-3.95-1.55-4 0-10.15 2.41-16.16 6.65m-48-13.2c-16.89 7.01-28.6 17.4-26.17 23.3s18.09 5.05 35-1.92 28.57-17.37 26.14-23.31c-1.09-2.64-4.8-3.92-10.08-3.92-6.56 0-15.54 2-24.89 5.85m77.44-7c-3 5.69-3.92 11.08-2.09 12s5.71-2.88 8.69-8.57 3.92-11.08 2.09-12a1.26 1.26 0 0 0 -.62-.14c-2 0-5.4 3.61-8.07 8.71m-24.39-15.76c-5.79 3.34-8.81 8.94-6.76 12.5s8.4 3.73 14.19.39 8.81-8.94 6.76-12.5c-1.07-1.85-3.3-2.79-6-2.79a16.81 16.81 0 0 0 -8.18 2.4m21.4-7.59c-1.68 2.91-1.57 6.13.25 7.18s4.66-.45 6.34-3.37 1.57-6.13-.26-7.18a2.51 2.51 0 0 0 -1.29-.34c-1.7 0-3.72 1.42-5 3.71m-21.6-12.49c0 3.48 3.2 6.31 7.15 6.31s7.15-2.83 7.15-6.31-3.2-6.31-7.15-6.31-7.15 2.82-7.15 6.31m-47.73 0c0 7.81 8.81 14.14 19.68 14.14s19.66-6.29 19.66-14.14-8.79-14.15-19.66-14.15-19.68 6.34-19.68 14.15m69.74-20c-1.82 1-1.93 4.27-.25 7.18s4.51 4.43 6.34 3.37 1.93-4.26.25-7.18c-1.32-2.28-3.35-3.71-5-3.71a2.63 2.63 0 0 0 -1.3.34m-28.44-12.88c-2 3.56 1 9.16 6.76 12.5s12.14 3.17 14.19-.39-1-9.15-6.76-12.5a16.82 16.82 0 0 0 -8.19-2.39c-2.71 0-4.94.93-6 2.78m28.8-15.27c-1.82 1-.89 6.35 2.09 12s6.87 9.53 8.7 8.57.88-6.35-2.1-12c-2.67-5.1-6.08-8.71-8.07-8.71a1.44 1.44 0 0 0 -.62.14m-101.48-18.25c-2.43 5.9 9.29 16.34 26.17 23.31s32.51 7.83 34.97 1.94-9.29-16.35-26.17-23.32c-9.35-3.86-18.29-5.85-24.89-5.85-5.28 0-9 1.29-10.08 3.92m62.59-7.2c-2.37 3.36 2.8 11.08 11.54 17.26s17.75 8.46 20.11 5.1-2.8-11.08-11.56-17.26c-6-4.24-12.12-6.65-16.14-6.65-1.82 0-3.21.5-4 1.55" fill="url(#a)"/></svg>
