<?xml version="1.0" encoding="UTF-8"?>
<svg version="1.1" xmlns="http://www.w3.org/2000/svg" width="180" height="180">
<path d="M0 0 C59.4 0 118.8 0 180 0 C180 59.4 180 118.8 180 180 C120.6 180 61.2 180 0 180 C0 120.6 0 61.2 0 0 Z " fill="#FEAAE9" transform="translate(0,0)"/>
<path d="M0 0 C3.03850646 2.0955217 4.36312068 3.84710943 5.8125 7.25 C7.1987217 14.9541937 5.00053603 20.82903075 0.8125 27.25 C-7.40962648 38.97891296 -21.3312901 47.13573784 -35.1875 50.25 C-43.70852153 51.30855121 -51.08835981 51.20550587 -58.0859375 45.77734375 C-61.19679557 42.42782197 -62.61312105 39.94093992 -62.8125 35.3125 C-62.04840968 24.53394937 -54.66259934 17.18907563 -46.953125 10.234375 C-34.48315856 0.063835 -15.52248294 -8.21778509 0 0 Z " fill="#020102" transform="translate(138.1875,99.75)"/>
<path d="M0 0 C11.8582779 6.51220881 19.84059332 14.43118664 25.87109375 26.4921875 C26.34395607 31.74018408 26.76079481 36.71278537 24.37109375 41.4921875 C17.15969387 47.26130741 11.07785349 48.41858196 1.87109375 47.4921875 C-13.38544077 45.12849905 -27.27695796 36.29772042 -37.12890625 24.4921875 C-40.84508708 19.0033974 -43.09904241 13.59647014 -42.75 6.890625 C-41.59264183 2.42132992 -38.69646935 -0.69240487 -35.12890625 -3.5078125 C-24.19024597 -9.114563 -10.3797617 -5.00198254 0 0 Z " fill="#020102" transform="translate(118.12890625,35.5078125)"/>
<path d="M0 0 C7.41246631 3.70623315 12.11374982 10.39200413 15 18 C18.26608854 29.1452965 18.8232025 43.96732993 15 55 C14.61521484 56.11568359 14.61521484 56.11568359 14.22265625 57.25390625 C11.75157794 63.52174867 7.91746443 69.57945287 2.078125 73.1875 C-1.95051657 74.76260798 -5.77473208 74.80693087 -10 74 C-16.87307622 70.29544765 -20.10845728 63.9710836 -23 57 C-23.52980469 55.82824219 -23.52980469 55.82824219 -24.0703125 54.6328125 C-28.44170882 42.253312 -27.24633618 25.80831704 -22 14 C-17.27043413 4.85435534 -11.00530094 -2.15277368 0 0 Z " fill="#020102" transform="translate(56,53)"/>
</svg>
