<svg xmlns="http://www.w3.org/2000/svg" xml:space="preserve" viewBox="0 0 32 48"><path fill="none" stroke="#000" stroke-width=".374" d="M17.351 11.385c1.673-3.316 5.137-7.307 9.855-3.853M16.862 11.739C18.515 6.705 19.183.544 14.564-.175"/><path d="M24.456 16.482v-2.215h.248a2.792 2.792 0 0 0-1.19-.267H9.143a2.817 2.817 0 0 0-2.813 2.813v14.372A2.817 2.817 0 0 0 9.142 34h14.373a2.817 2.817 0 0 0 2.813-2.814V16.813c0-.112-.008-.222-.021-.331z" opacity=".5"/><path fill="#fff" d="M23.186 33.555H8.813A2.817 2.817 0 0 1 6 30.741V16.37a2.817 2.817 0 0 1 2.813-2.813h14.373a2.817 2.817 0 0 1 2.813 2.813v14.372a2.817 2.817 0 0 1-2.813 2.814"/><path fill="#90449e" d="M25.155 30.741a1.97 1.97 0 0 1-1.97 1.97H8.814a1.97 1.97 0 0 1-1.97-1.97V16.368a1.97 1.97 0 0 1 1.97-1.97h14.373a1.97 1.97 0 0 1 1.969 1.97z"/><path fill="#f6bd6d" d="M27.009 16.595a29.396 29.396 0 0 0-3.27-2.027c.414.96.567 1.712.572 1.718-.003 0-.418-.919-1.023-2.04-.605-1.125-1.569-2.39-2.988-2.997a3.345 3.345 0 0 0-1.327-.29c-1.476-.004-2.519 1.141-2.944 1.726a3.407 3.407 0 0 0-.211.315l-.03.052-.054.025c-.456.202-.987.755-1.404 1.138-1.222 1.108-1.967 2.501-1.967 4.014 0 .555.1 1.128.316 1.714.394 1.065 1.068 1.907 1.966 2.6 1.026.83.969 3.081.986 3.099v2.378c.024.025.044.048.071.075.077.077.167.16.27.242.39.312.95.617 1.65.617.444 0 .949-.123 1.515-.455l.033.004c.25-1.712.823-2.625 1.736-3.075.918-.452 2.1-.447 3.585-.508 1.474-.058 2.91-.293 3.991-.878 1.08-.59 1.814-1.498 1.954-2.988.004-.054.005-.107.005-.16.02-1.389-1.685-3.048-3.433-4.299"/><path d="m12.459 32.722 2.242-4.083s-3.895-1.708-5.864 4.036v.047zM20.94 13.012c.058.143.1.297.134.456a2.67 2.67 0 0 0-.082-.403l-.052-.053"/><path d="M22.43 15.837c-.095-.977-.667-2.003-1.41-2.742.677.797 1.158 1.88 1.158 2.863 0 1.84-1 2.64-2.52 2.626-.959-.007-1.584-.188-1.991-.495.42.507 1.144.776 2.466.659 1.544-.137 2.478-1.046 2.297-2.911M18.479 12.12l-.012.004a1.89 1.89 0 0 0-.097.106c.036-.038.071-.076.11-.11"/><path fill="#fff" d="m20.989 13.057.002.008.028.03-.03-.039"/><path fill="#fff" d="m21.02 13.095-.029-.03c.038.13.064.264.083.403.014.112.025.227.025.345 0 1.172-.735 2.122-1.641 2.122-.907 0-1.642-.95-1.642-2.122 0-.63.215-1.194.553-1.583.032-.036.064-.072.097-.106.065-.063.132-.122.203-.172-1.28.198-1.767 1.6-1.767 3.303 0 1.204-.01 2.25.765 2.834.407.307 1.032.487 1.99.495 1.522.013 2.52-.787 2.52-2.626 0-.984-.48-2.066-1.157-2.863"/><path d="M17.816 13.813c0 1.172.735 2.122 1.641 2.122.907 0 1.641-.95 1.641-2.122 0-.267-.04-.521-.109-.756-.582-.672-1.306-1.131-2-1.131-.112 0-.218.01-.32.026-.508.36-.853 1.058-.853 1.861"/><path fill="#fff" d="M19.728 13.285c0 .453-.305.821-.68.821-.376 0-.68-.368-.68-.821 0-.453.304-.821.68-.821.375 0 .68.368.68.821"/><path fill="#231e1f" d="M15.145 27.877zM19.476 28.617l.036-.023-.156-.233c-.074.05-.147.095-.219.137l.227.027.112.092"/><path fill="#f6bd6d" d="m15.378 28.056.324.038-.071-.008zM23.494 14.04c.174.089.898.462 1.805 1.003-.178-1.112-1.465-2.507-2.23-3.19-.267-.24-.48-.305-.646-.306a.652.652 0 0 0-.398.142.748.748 0 0 0-.132.128l-.015.032c.72.652 1.243 1.451 1.616 2.19"/><path d="M22.201 25.125s-1.641-1.36-3.751-.703c0 0 2.814-.094 3.142.937z"/><path fill="#9c61a4" d="M14.558-.267a.446.446 0 1 1-.891 0 .446.446 0 0 1 .891 0"/><path fill="#5a222f" stroke="#000" stroke-width=".3" d="M14.558-.267a.446.446 0 1 1-.891 0 .446.446 0 0 1 .891 0z"/><path fill="#5f122b" d="M27.782 7.704a.446.446 0 1 1-.891 0 .446.446 0 0 1 .891 0"/><path fill="#5a222f" stroke="#000" stroke-width=".3" d="M27.782 7.704a.446.446 0 1 1-.891 0 .446.446 0 0 1 .891 0z"/><path fill="#fff" d="M20.091 28.881c0-.23-.17-.418-.378-.418-.14 0-.26.084-.325.208-.643.403-1.238.564-1.764.564h-.003c-1.136-.005-1.916-.706-2.266-1.099l.014-.139-.228.088-.3.159-.096.061-.053.264.078.157-.009.01a4.6 4.6 0 0 0 .665.588c.516.374 1.25.744 2.133.744.653-.001 1.393-.146 2.203-.712.185-.028.33-.263.33-.475"/><path d="M30.436 21.053c-.14 1.49-.874 2.399-1.954 2.988-1.08.586-2.516.82-3.991.878-1.485.061-2.667.057-3.585.508-.913.45-1.486 1.363-1.736 3.075l-.033-.004c-.565.332-1.07.455-1.515.456-.7 0-1.26-.306-1.649-.618a3.35 3.35 0 0 1-.27-.242l-.325-.038.253.03.072.008-.072-.075v-2.378c-.017-.018.04-2.268-.985-3.1-.898-.692-1.572-1.534-1.966-2.598a4.926 4.926 0 0 1-.316-1.714c0-1.513.744-2.907 1.966-4.015.418-.382.948-.936 1.405-1.138l.054-.024.03-.052s.069-.123.21-.316c.426-.584 1.469-1.73 2.944-1.725.404 0 .845.083 1.327.29 1.42.607 2.383 1.872 2.988 2.996.605 1.122 1.02 2.04 1.023 2.04-.004-.005-.157-.758-.572-1.717.514.272 1.89 1.029 3.27 2.026 1.749 1.25 3.454 2.91 3.434 4.298 0 .054-.002.108-.006.16M19.936 29.11a.377.377 0 0 1-.073.122c-.16.173-.406.273-.614.374-.36.174-.713.341-1.11.408a3.57 3.57 0 0 1-.58.053c-.883.001-1.617-.37-2.134-.744a4.587 4.587 0 0 1-.646-.567l-.004-.02c-.114-.44.416-.588.562-.62.341.39 1.13 1.114 2.287 1.12.513 0 1.032-.15 1.478-.399.142-.078.297-.164.422-.268.025-.02.16.054.181.066.071.039.138.09.191.151.077.088.08.217.04.324m1.957-17.294a.753.753 0 0 1 .132-.127.652.652 0 0 1 .397-.142c.167 0 .38.066.647.306.765.682 2.052 2.077 2.23 3.19-.907-.54-1.631-.914-1.805-1.003-.373-.74-.896-1.539-1.616-2.191zm5.33 4.482a25.727 25.727 0 0 0-1.627-1.076c-.075-1.33-1.517-2.824-2.338-3.578-.303-.274-.589-.38-.836-.378-.47.005-.728.347-.763.393a5.166 5.166 0 0 0-1.215-.747 3.714 3.714 0 0 0-1.471-.319c-2.037.014-3.233 1.84-3.44 2.174-.544.268-1.055.821-1.45 1.176-1.277 1.159-2.085 2.648-2.085 4.285 0 .6.109 1.217.339 1.841.419 1.135 1.143 2.038 2.085 2.762.387.288.625.993.732 1.628.11.633.11 1.18.111 1.182v2.202c-1.017.113-.756 1.025-.756 1.025l.017.027h-.001c.356.392 1.458 1.448 3.034 1.454h.002c.763 0 1.628-.267 2.546-.96.061-.033.118-.085.118-.085l.002-.003c.005-.004.011-.007.017-.013l-.006-.005.003-.006s.24-.842-.667-.984c.264-1.483.76-2.17 1.494-2.537.794-.4 1.944-.415 3.437-.47 1.503-.061 2.987-.295 4.15-.923 1.166-.624 2.003-1.673 2.144-3.277.006-.065.009-.129.009-.193-.02-1.67-1.823-3.31-3.584-4.594"/><path fill="#c7584d" d="M22.911 32.722c-.353-1.162-1.735-2.579-2.667-3.434-.97.772-1.882 1.06-2.683 1.06h-.003c-1.576-.004-2.677-1.06-3.033-1.452-1.965.893-2.952 3.23-3.176 3.826z"/><path d="M11.504 32.71c.105-.27.326-.79.68-1.373.502-.827 1.265-1.765 2.308-2.27.428.447 1.518 1.414 3.066 1.422h.003c.808 0 1.72-.283 2.676-1.017.91.838 2.18 2.18 2.526 3.238h.29c-.362-1.23-1.77-2.654-2.714-3.527l-.088-.08-.095.074c-.95.756-1.829 1.03-2.595 1.03h-.003c-1.509-.003-2.585-1.026-2.93-1.406l-.069-.076-.093.042c-2.075.952-3.062 3.402-3.262 3.943z"/></svg>