<svg xmlns="http://www.w3.org/2000/svg" viewBox="0 0 462 404"><defs><linearGradient id="a" x1="464.53" x2="1224.15" y1="-2595.19" y2="-2986.92" gradientTransform="matrix(.24997 0 0 -.24997 150.98 -561.726)" gradientUnits="userSpaceOnUse"><stop offset="0" style="stop-color:#ffeb2e;stop-opacity:1"/><stop offset=".92" style="stop-color:#fe9030;stop-opacity:1"/></linearGradient><linearGradient id="b" x1="-580.88" x2="121.11" y1="-2987.18" y2="-2623.18" gradientTransform="matrix(.24997 0 0 -.24997 150.98 -561.726)" gradientUnits="userSpaceOnUse"><stop offset=".06" style="stop-color:#0068e5;stop-opacity:1"/><stop offset="1" style="stop-color:#0ad9ff;stop-opacity:1"/></linearGradient><linearGradient id="c" x1="1063.69" x2="436.27" y1="-3644.95" y2="-3207.53" gradientTransform="matrix(.24997 0 0 -.24997 150.98 -561.726)" gradientUnits="userSpaceOnUse"><stop offset="0" style="stop-color:#ef0a36;stop-opacity:1"/><stop offset="1" style="stop-color:#ff978a;stop-opacity:1"/></linearGradient><linearGradient id="d" x1="-389.76" x2="266.37" y1="-3622.02" y2="-3164.64" gradientTransform="matrix(.24997 0 0 -.24997 150.98 -561.726)" gradientUnits="userSpaceOnUse"><stop offset="0" style="stop-color:#7914ef;stop-opacity:1"/><stop offset="1" style="stop-color:#db69ff;stop-opacity:1"/></linearGradient></defs><path d="M437.566 160.457c0 32.172-26.078 58.273-58.242 58.273H239.72c0-102.472 77.906-186.753 177.726-196.843 11.086-1.117 20.14 8 20.14 19.14Zm0 0" style="stroke:none;fill-rule:nonzero;fill:url(#a)"/><path d="M24.64 160.457c0 32.172 26.083 58.273 58.243 58.273h139.61c0-102.472-77.903-186.753-177.716-196.843-11.082-1.117-20.136 8-20.136 19.14Zm0 0" style="stroke:none;fill-rule:nonzero;fill:url(#b)"/><path d="M269.426 338.793a191.638 191.638 0 0 1-29.707-102.816h141.949c30.84 0 55.906 24.699 55.906 55.085-.008 89.91-119.844 124.184-168.148 47.731Zm0 0" style="stroke:none;fill-rule:nonzero;fill:url(#c)"/><path d="M192.781 338.793a191.608 191.608 0 0 0 29.711-102.816H80.547c-30.84 0-55.906 24.699-55.906 55.085 0 89.91 119.84 124.184 168.14 47.731Zm0 0" style="stroke:none;fill-rule:nonzero;fill:url(#d)"/></svg>