<svg xmlns="http://www.w3.org/2000/svg" viewBox="0 0 500 500"><path fill="#F6A500" d="M356.3 295.4V167h25.9v128.4h-25.9Z"/><g fill="#fff" style="mix-blend-mode:difference"><path d="M55.4 333.5H0V205.1h53.2c25.8 0 40.8 14.1 40.8 36.1 0 14.3-9.7 23.5-16.4 26.5 8 3.7 18.2 11.8 18.2 28.9 0 24-16.9 36.9-40.4 36.9Zm-4.3-106H25.8v29.6h25.3c10.9 0 17.1-6 17.1-14.8s-6.2-14.8-17.1-14.8Zm1.6 52.1H25.8v31.6h26.9c11.7 0 17.3-7.2 17.3-15.9 0-8.6-5.6-15.7-17.3-15.7ZM174.7 280.9v52.6H149v-52.6l-39.7-75.8h28l24.7 51.8 24.3-51.8h28.1l-39.7 75.8ZM287.6 333.5h-55.3V205.1h53.1c25.8 0 40.9 14.1 40.9 36.1 0 14.3-9.7 23.5-16.4 26.5 8 3.7 18.2 11.8 18.2 28.9 0 24-16.9 36.9-40.5 36.9Zm-4.3-106h-25.2v29.6h25.2c11 0 17.1-6 17.1-14.8s-6.1-14.8-17.1-14.8Zm1.7 52.1h-26.9v31.6H285c11.7 0 17.3-7.2 17.3-15.9 0-8.6-5.6-15.7-17.3-15.7ZM465.4 227.5v106h-25.8v-106H405v-22.4h95v22.4h-34.6Z"/></g></svg>