<svg xmlns="http://www.w3.org/2000/svg" style="shape-rendering:geometricPrecision;text-rendering:geometricPrecision;image-rendering:optimizeQuality;fill-rule:evenodd;clip-rule:evenodd" viewBox="0 0 500 500"><path fill="#0170ae" d="M268.5 114.5a8.43 8.43 0 0 0 .5 4 9814.624 9814.624 0 0 1 65.5 114 6458.82 6458.82 0 0 1-161 3 26866.223 26866.223 0 0 1-112-193c55-1.333 110-1.333 165 0a1898.738 1898.738 0 0 0 42 72Z" style="opacity:.99"/><path fill="#f5812a" d="M499.5 43.5v3a20886.513 20886.513 0 0 0-150 188 43.117 43.117 0 0 1-13 1c.073-1.527-.594-2.527-2-3a9814.624 9814.624 0 0 0-65.5-114 8.43 8.43 0 0 1-.5-4 5506.036 5506.036 0 0 1 56-70.5c58.332-.5 116.666-.667 175-.5Z" style="opacity:.982"/><path fill="#337394" d="M334.5 232.5c1.406.473 2.073 1.473 2 3h-163a6458.82 6458.82 0 0 0 161-3Z" style="opacity:.561"/><path fill="#f5812a" d="M325.5 264.5a40.248 40.248 0 0 0-8.5 9 6467.21 6467.21 0 0 1-84 107c-1.879 2.027-3.046 4.36-3.5 7a10633.244 10633.244 0 0 1-55 69.5c-58.332.5-116.666.667-175 .5v-3a14006.217 14006.217 0 0 0 150-190.5 5168.379 5168.379 0 0 1 176 .5Z" style="opacity:.988"/><path fill="#0170ae" d="M325.5 264.5a8603.731 8603.731 0 0 1 115 192c-56.671.333-113.337 0-170-1a241506.154 241506.154 0 0 0-41-68c.454-2.64 1.621-4.973 3.5-7a6467.21 6467.21 0 0 0 84-107 40.248 40.248 0 0 1 8.5-9Z" style="opacity:.99"/></svg>