<svg xmlns="http://www.w3.org/2000/svg" width="200" height="113.088"><path fill="#010202" d="M74.686 72.818H63.827l7.316-37.63h10.858l-7.315 37.63M51.347 72.818c-.029-1.263.119-2.579.372-3.894-2.821 3.235-6.185 4.442-10.023 4.442-5.212 0-9.211-2.855-8.122-8.449.862-4.445 4.896-7.405 9.024-8.613 3.778-1.095 7.65-1.536 11.368-1.756l.042-.216c.493-2.525.024-3.511-2.607-3.511-2.141 0-4.292.946-5.08 3.306l-8.331.008c1.524-7.289 8.331-9.896 15.019-9.896 3.292 0 7.429.435 9.788 2.413 3.177 2.578 2.03 6.2 1.255 10.202l-1.909 9.82c-.406 2.085-.756 4.171-.319 6.146H51.347m1.616-13.112c-2.687.274-7.234 1.097-7.896 4.498-.351 1.809.651 2.576 2.352 2.576 4.112 0 4.84-3.456 5.436-6.527l.108-.547z"/><path fill="#E31837" d="M85.378 57.216c-.512 2.657-1.031 5.336-1.031 5.336l-.042.221c-.306 1.563-.656 3.04-.601 4.403.005.129-.023.234-.145.255-.016-.074-.026-.15-.04-.224v.013a56.074 56.074 0 0 1-.78-15.303h3.926l-1.287 5.299m47.624 6.989c-.355 1.809.649 2.578 2.35 2.578 4.115 0 4.84-3.456 5.438-6.527l.108-.551c-2.686.277-7.237 1.099-7.896 4.5zm-48.881 5.273c.011.111.056.248.143.469.105.192.227.382.361.564 1.695 2.307 4.31 3.238 7.292 2.855l6.577-.825 1.524-7.84c-1.094.271-2.18.493-3.222.493-2.578 0-2.051-1.592-1.655-3.623l1.879-9.654h5.484l1.387-7.134h-5.597l1.824-9.601H90.88l-2.399 9.601h-4.667C89.287 19.691 111.632.894 138.366.894c26.742 0 49.093 18.802 54.558 43.904-1.139-.39-2.409-.562-3.633-.562-3.4 0-6.894 1.316-8.831 4.498h-.105l.764-3.952h-10.258l-5.446 28.034h10.859l3.145-16.182c.448-2.304 1.224-4.882 4.242-4.882 2.359 0 1.9 2.357 1.571 4.06l-3.307 17.004h9.926c-6.907 22.996-28.237 39.752-53.484 39.752-26.041 0-47.922-17.83-54.096-41.951a45.902 45.902 0 0 0-.398-1.292c.111-.024.213.039.248.153zM157.707 42.1h10.861l1.452-7.461h-10.863l-1.45 7.461zm-36.763 12.011c.714 0 1.373 0 2.235.016l1.911-9.778-1.46-.111c-4.271-.33-6.831 2.413-8.523 6.309h-.11l1.12-5.763h-9.27l-5.449 28.034h10.862l2.367-12.18c.318-1.645.672-3.454 1.705-4.824 1.19-1.592 2.859-1.703 4.612-1.703zm29.131 12.561 1.908-9.817c.778-4.004 1.919-7.626-1.252-10.205-2.359-1.972-6.499-2.413-9.791-2.413-6.686 0-13.492 2.607-15.017 9.896l8.331-.008c.788-2.356 2.939-3.306 5.08-3.306 2.631 0 3.098.986 2.607 3.511l-.043.216c-3.717.223-7.59.661-11.367 1.758-4.128 1.208-8.162 4.168-9.026 8.61-1.086 5.594 2.91 8.449 8.125 8.449 3.838 0 7.199-1.208 10.022-4.445-.255 1.318-.403 2.634-.374 3.896h10.479c-.436-1.974-.088-4.056.318-6.142zm12.522 6.146 5.449-28.034h-10.861l-5.449 28.034h10.861z"/><path fill="#010202" d="M22.016 34.639c-11.847 0-18.81 8.995-20.921 19.856-2.08 10.695 2.257 18.871 13.556 18.871 8.668 0 16.063-5.597 18.749-14.948H22.812c-1.163 3.578-3.108 6.282-6.422 6.282-5.209 0-4.181-6.422-3.448-10.205.693-3.564 2.438-11.41 7.54-11.41 3.648 0 4.255 3.512 3.601 7.334h10.703l.119-.696h.032c1.054-9.381-3.323-15.084-12.921-15.084"/><path fill="#E31837" d="M191.954 75.952c0-2.111 1.711-3.667 3.733-3.667 2.001 0 3.712 1.556 3.712 3.667 0 2.125-1.711 3.68-3.712 3.68-2.022 0-3.733-1.555-3.733-3.68m3.734 3.069c1.661 0 2.971-1.302 2.971-3.069 0-1.743-1.31-3.055-2.971-3.055-1.682 0-2.995 1.313-2.995 3.055-.001 1.767 1.313 3.069 2.995 3.069zm-.778-.944h-.644v-4.236h1.616c1.002 0 1.494.369 1.494 1.205 0 .759-.475 1.089-1.099 1.168l1.207 1.864h-.723l-1.114-1.835h-.738v1.834zm.767-2.381c.546 0 1.031-.037 1.031-.69 0-.525-.478-.62-.923-.62h-.875v1.31h.767z"/></svg>