<svg height="941" xmlns="http://www.w3.org/2000/svg" width="941" viewBox="357.8 0 216 216"><path d="m0 0h573.8v216h-573.8z" fill="none"/><g fill="#ba0c2f"><path d="m532.8 98.2c-11 0-17.7 10.9-17.7 21.9 0 1.7.2 3 .4 4.2 16.7-3.2 24.8-12.1 24.8-19.1 0-4.5-2.8-7-7.5-7z"/><path d="m384.7 119.6c.7-10.1 2.6-20.2 4.5-28.2 5.7-24.6 15.2-43.3 28.8-43.3 9.4 0 12.9 6.5 13 14.3.2 20.4-16.3 45.2-36 60.9-.3 9.8 2.9 14.3 8.6 14.3 10.3 0 20.6-10.5 29.5-31.7 1.2-2.9 2.4-6.2 3.6-9.4 1.8-4.5 11-1.9 9.7 2.6-2.8 9.5-7.4 22-7.4 30.3 0 5.5 2.8 7.9 6.9 7.8 5.7-.1 10.4-4.2 13.7-8.2 0 0 2.3-11.8 3-15 9.7-45.9 20.8-65.8 35.4-65.8 8.7 0 13.2 5.4 13.2 14 0 15.9-11 34.2-32 59.4 6.6 2.3 13.8 4 23 4h2.3c-.2-1.3-.4-3.6-.4-5.5 0-17.8 12.8-30.6 28.5-30.6 10.3 0 18.3 4.8 18.3 15.4 0 13.3-14.1 23.8-31.8 27.4 2.8 3.3 8.2 5.6 15.8 5.6 17 0 30.1-8.4 38.8-16.5v-121.4h-216v133.9c10-3.7 19.3-8.7 27-14.3zm63.5-49.4c4 0 7.2 3.3 7 7.3s-3.6 7.3-7.7 7.3-7.2-3.3-7-7.3 3.7-7.3 7.7-7.3z"/><path d="m497.9 56.7c-5.2 0-15.7 15-24.8 58.2 15.4-19.5 28-41.6 28-53.1-.1-2.9-.9-5.1-3.2-5.1zm37.1 90.5c-14.8 0-23.2-5.8-27.6-13-1.5.1-3.2.1-4.7.1-7.8 0-14.9-1.1-19.9-2.7 4 8.6 6.6 19.8 6.6 30 0 19.4-7 32.2-20.4 32.2-9.5 0-14.9-6.9-15.1-21.2-.1-10.4 1.2-19.1 3.3-30.8-3.2 2.7-7.8 4.6-13.2 4.7-9.8 0-15.3-6.2-15.7-14.8-7.6 10.3-16.8 15.2-26.4 15.2-10.4 0-16-6.7-17.1-16.7-7.5 4.8-16.6 9.7-27 13.4v72.4h216v-82.7c-11.6 9.2-24.9 13.9-38.8 13.9zm-117.1-90.5c-5.6 0-15.5 16.8-21.7 53.7 17.6-17.1 24.8-39.3 24.8-48.2 0-4.1-1.1-5.5-3.1-5.5z"/><path d="m469.7 131.2c-2.3 10.6-5.4 29.4-5.4 41.2 0 6.9 1.5 11.3 5.5 11.3 7 0 9-12.2 9-21.3 0-11.8-3-24.1-7.7-32.7z"/></g><g fill="#fff"><path d="m447.5 84.9c4 0 7.5-3.3 7.7-7.3s-3-7.3-7-7.3-7.5 3.3-7.7 7.3 3 7.3 7 7.3z"/><path d="m534.9 138c-7.6 0-13-2.4-15.8-5.6 17.7-3.7 31.8-14.2 31.8-27.4 0-10.6-8-15.4-18.3-15.4-15.8 0-28.5 12.7-28.5 30.6 0 1.9.2 4.2.4 5.5h-2.3c-9.2 0-16.5-1.7-23-4 21.1-25.2 32-43.5 32-59.4 0-8.7-4.4-14-13.2-14-14.6 0-25.8 19.9-35.4 65.8-.7 3.3-3 15-3 15-3.3 4-8 8.1-13.7 8.2-4.1.1-6.9-2.2-6.9-7.8 0-8.3 4.5-20.8 7.4-30.3 1.3-4.4-7.9-7-9.7-2.6-1.3 3.2-2.4 6.5-3.6 9.4-8.9 21.2-19.1 31.7-29.5 31.7-5.7 0-8.9-4.5-8.6-14.3 19.7-15.6 36.2-40.5 36-60.9-.1-7.7-3.6-14.3-13-14.3-13.5 0-23.1 18.7-28.8 43.3-1.9 8-3.8 18.1-4.5 28.2-7.7 5.6-16.9 10.6-26.9 14.4v9.5c10.4-3.7 19.6-8.7 27-13.4 1.1 10 6.7 16.7 17.1 16.7 9.6 0 18.8-5 26.4-15.2.4 8.6 5.8 14.8 15.7 14.8 5.4 0 10-2 13.2-4.7-2.1 11.7-3.5 20.4-3.3 30.8.2 14.3 5.6 21.2 15.1 21.2 13.3 0 20.3-12.8 20.4-32.2 0-10.2-2.6-21.4-6.6-30 5.1 1.7 12.1 2.7 19.9 2.7 1.6 0 3.3 0 4.7-.1 4.5 7.3 12.8 13 27.6 13 14 0 27.3-4.7 38.8-13.9v-11.8c-8.7 8.2-21.8 16.5-38.9 16.5zm-117-81.3c2 0 3 1.4 3 5.5 0 8.8-7.2 31-24.8 48.2 6.3-36.9 16.2-53.7 21.8-53.7zm80 0c2.3 0 3.2 2.1 3.2 5.2 0 11.5-12.5 33.6-28 53.1 9.1-43.2 19.6-58.3 24.8-58.3zm-28.1 127.1c-4 0-5.5-4.4-5.5-11.3 0-11.9 3.1-30.6 5.4-41.2l1.4-1.5c4.7 8.5 7.7 20.9 7.7 32.7 0 9-2 21.3-9 21.3zm45.3-63.8c0-11 6.7-21.9 17.7-21.9 4.7 0 7.5 2.6 7.5 7 0 7-8.1 15.9-24.8 19.1-.2-1.1-.4-2.4-.4-4.2z"/></g></svg>