<svg xmlns="http://www.w3.org/2000/svg" viewBox="0 0 24 24"><defs><radialGradient id="a" cx="0" cy="0" r="1" gradientTransform="rotate(-49.415 25.434 5.598) scale(18.562)" gradientUnits="userSpaceOnUse"><stop offset="0" stop-color="#6420FF"/><stop offset="1" stop-color="#6420FF" stop-opacity="0"/></radialGradient><radialGradient id="b" cx="0" cy="0" r="1" gradientTransform="rotate(54.702 .54 7.506) scale(20.932)" gradientUnits="userSpaceOnUse"><stop offset="0" stop-color="#00C4CC"/><stop offset="1" stop-color="#00C4CC" stop-opacity="0"/></radialGradient><radialGradient id="c" cx="0" cy="0" r="1" gradientTransform="matrix(12.922 -13.011 5.9837 5.943 4.636 21.272)" gradientUnits="userSpaceOnUse"><stop offset="0" stop-color="#6420FF"/><stop offset="1" stop-color="#6420FF" stop-opacity="0"/></radialGradient><radialGradient id="d" cx="0" cy="0" r="1" gradientTransform="matrix(7.5284 17.331 -29.032 12.612 9.815 3.234)" gradientUnits="userSpaceOnUse"><stop offset="0" stop-color="#00C4CC" stop-opacity=".726"/><stop offset="0" stop-color="#00C4CC"/><stop offset="1" stop-color="#00C4CC" stop-opacity="0"/></radialGradient></defs><g stroke-width=".013"><path fill="#7d2ae7" d="M24 12a12 12 0 0 1-12 12A12 12 0 0 1 0 12 12 12 0 0 1 12 0a12 12 0 0 1 12 12z"/><path fill="url(#a)" d="M24 12a12 12 0 0 1-12 12A12 12 0 0 1 0 12 12 12 0 0 1 12 0a12 12 0 0 1 12 12z"/><path fill="url(#b)" d="M24 12a12 12 0 0 1-12 12A12 12 0 0 1 0 12 12 12 0 0 1 12 0a12 12 0 0 1 12 12z"/><path fill="url(#c)" d="M24 12a12 12 0 0 1-12 12A12 12 0 0 1 0 12 12 12 0 0 1 12 0a12 12 0 0 1 12 12z"/><path fill="url(#d)" d="M24 12a12 12 0 0 1-12 12A12 12 0 0 1 0 12 12 12 0 0 1 12 0a12 12 0 0 1 12 12z"/><path fill="#fff" d="M17.598 14.462c-.099 0-.186.084-.277.266-1.024 2.077-2.793 3.546-4.84 3.546-2.367 0-3.833-2.136-3.833-5.088 0-5 2.786-7.89 5.233-7.89 1.144 0 1.842.718 1.842 1.861 0 1.357-.771 2.076-.771 2.554 0 .215.133.345.398.345 1.065 0 2.315-1.223 2.315-2.951 0-1.676-1.459-2.908-3.906-2.908-4.043 0-7.637 3.75-7.637 8.937 0 4.015 2.292 6.668 5.83 6.668 3.755 0 5.927-3.736 5.927-4.948 0-.269-.138-.392-.28-.392z"/></g></svg>