<svg xmlns="http://www.w3.org/2000/svg" fill="none" viewBox="0 0 78 78"><g fill="#fff" style="mix-blend-mode:difference"><circle cx="38.821" cy="39" r="13.45" transform="rotate(-15 38.82 39)"/><path fill-rule="evenodd" d="M54.791 66.081c-.097.256-.28.47-.52.604a31.76 31.76 0 0 1-7.246 2.932c-16.91 4.53-34.29-5.504-38.821-22.413-4.531-16.91 5.504-34.29 22.413-38.82a31.764 31.764 0 0 1 7.741-1.085c.275-.004.54.09.753.263a51.76 51.76 0 0 1 7.58 7.635c.782.971-.393 2.394-1.59 2.047a22.535 22.535 0 0 0-12.14-.113C20.883 20.367 13.715 32.78 16.95 44.86c3.237 12.078 15.651 19.246 27.73 16.01a22.535 22.535 0 0 0 10.457-6.17c.863-.898 2.592-.253 2.4.979a51.767 51.767 0 0 1-2.747 10.402Zm10.672-9.907c-.672 1.041-2.159.361-1.996-.867a57.61 57.61 0 0 0-1.49-22.512 57.613 57.613 0 0 0-9.966-20.24c-.755-.983.193-2.315 1.295-1.749 7.676 3.947 13.722 10.996 16.132 19.99 2.41 8.994.699 18.122-3.975 25.378Z" clip-rule="evenodd"/></g></svg>