<svg xmlns="http://www.w3.org/2000/svg" viewBox="0 0 926.656 958.563"><path d="m-1552.088 1007.65 4.12-358.257h-199.907c-15.742 43.404-59.94 72.72-113.25 72.72-28.093 0-58.13-6.626-82.469-21.25-31.717-19.059-55.418-41.693-74.937-81.907-15.357-37.214-27.11-82.78-28.469-123.094 4.68-79.729 28.902-108.148 73.25-141.031 9.831-7.29 37.3-13.119 45.219-13.156 17.422-.083 31.942 10.486 39.812 26.062 11.447 22.657-5.308 50.1-21.875 69.625l161.625 111.344 249.625-261.188C-1586.43 148.721-1745.564 55.8-1927.438 55.8-2202.79 55.8-2426 268.789-2426 531.518c0 262.73 216.066 461.416 498.563 482.844l376.593-1.687c.223-314.923-12.757-290.911-1.244-5.024z" style="fill:#0c4da2;fill-opacity:1;stroke:none" transform="translate(2426 -55.8)"/><path d="M-1927.77 145.183c-226.983 1.429-412.367 166.766-412.367 383.052 0 216.285 204.647 402.07 452.366 396.478l240.713.678V735.884h-45.464c-14.283 35.73-80.996 70.68-129.366 70.68-25.49 0-89.661-3.465-113.4-11.779-41.91-14.679-101.711-35.75-153.707-123.141-13.934-30.635-53.169-105.29-44.403-214.191 4.246-65.635 45.937-147.568 120.749-184.672 32.621-16.178 65.46-18.833 123.12-13.6 41.396 3.756 82.528 32.863 96.89 67.797 11.106 27.018 7.915 59.941-5.16 78.695-.934 1.338-.954 2.523-.76 3.8.147.972 1.408 2.592 1.408 2.592l22.784 17.8s6.487 4.506 14.064 4.305c4.4-.118 12.267-4.892 12.267-4.892l130.12-136.553c-80.444-108.547-223.405-147.542-309.855-147.542z" style="fill:#ffcb08;fill-opacity:1;stroke:none" transform="translate(2426 -55.8)"/></svg>