<?xml version="1.0" encoding="UTF-8" standalone="no"?>
<!-- Created with Inkscape (http://www.inkscape.org/) -->

<svg
   xmlns:dc="http://purl.org/dc/elements/1.1/"
   xmlns:cc="http://creativecommons.org/ns#"
   xmlns:rdf="http://www.w3.org/1999/02/22-rdf-syntax-ns#"
   xmlns:svg="http://www.w3.org/2000/svg"
   xmlns="http://www.w3.org/2000/svg"
   xmlns:sodipodi="http://sodipodi.sourceforge.net/DTD/sodipodi-0.dtd"
   xmlns:inkscape="http://www.inkscape.org/namespaces/inkscape"
   version="1.1"
   width="926.65619"
   height="958.5625"
   id="svg2"
   inkscape:version="0.48.1 "
   sodipodi:docname="Capcom icon.svg">
  <metadata
     id="metadata3015">
    <rdf:RDF>
      <cc:Work
         rdf:about="">
        <dc:format>image/svg+xml</dc:format>
        <dc:type
           rdf:resource="http://purl.org/dc/dcmitype/StillImage" />
        <dc:title></dc:title>
      </cc:Work>
    </rdf:RDF>
  </metadata>
  <sodipodi:namedview
     pagecolor="#ffffff"
     bordercolor="#666666"
     borderopacity="1"
     objecttolerance="10"
     gridtolerance="10"
     guidetolerance="10"
     inkscape:pageopacity="0"
     inkscape:pageshadow="2"
     inkscape:window-width="1835"
     inkscape:window-height="1058"
     id="namedview3013"
     showgrid="false"
     inkscape:zoom="0.32"
     inkscape:cx="1623.239"
     inkscape:cy="170.71783"
     inkscape:window-x="-8"
     inkscape:window-y="-8"
     inkscape:window-maximized="1"
     inkscape:current-layer="layer1"
     fit-margin-top="0"
     fit-margin-left="0"
     fit-margin-right="0"
     fit-margin-bottom="0" />
  <defs
     id="defs4" />
  <g
     transform="translate(2426,-55.799683)"
     id="layer1">
    <path
       d="m -1552.0877,1007.6508 4.1189,-358.25737 -199.9062,0 c -15.7424,43.40396 -59.9402,72.71875 -113.25,72.71875 -28.0932,0 -58.13,-6.62565 -82.4688,-21.25 -31.7176,-19.0581 -55.4185,-41.69206 -74.9375,-81.90625 -15.3567,-37.21359 -27.109,-82.77963 -28.4687,-123.09375 4.6791,-79.72921 28.9019,-108.14789 73.25,-141.03125 9.8313,-7.28971 37.2996,-13.1189 45.2187,-13.15625 17.4221,-0.0822 31.9427,10.48615 39.8125,26.0625 11.4471,22.65651 -5.3079,50.1006 -21.875,69.625 l 161.625,111.34375 249.625,-261.1875 c -87.0859,-138.79748 -246.2201,-231.718747 -428.0937,-231.718747 -275.3534,0 -498.5625,212.989027 -498.5625,475.718747 0,262.72972 216.0662,461.41517 498.5625,482.84377 l 376.5933,-1.6875 c 0.2227,-314.9224 -12.7573,-290.91079 -1.2435,-5.0239 z"
       id="path3840"
       style="fill:#0c4da2;fill-opacity:1;stroke:none"
       inkscape:connector-curvature="0"
       sodipodi:nodetypes="cccssccssscccssccc" />
    <path
       d="m -1927.7708,145.18332 c -226.9823,1.42857 -412.3662,166.7661 -412.3662,383.05133 0,216.28523 204.6469,402.07109 452.3662,396.47808 l 240.7127,0.6783 0,-189.50724 -45.4634,0 c -14.2837,35.73115 -80.9968,70.68064 -129.3669,70.68064 -25.4902,0 -89.6606,-3.46506 -113.3988,-11.7792 -41.9106,-14.67892 -101.712,-35.75045 -153.7082,-123.14142 -13.9338,-30.6351 -53.1686,-105.28898 -44.4023,-214.19078 4.2456,-65.63495 45.9366,-147.56776 120.7486,-184.67165 32.6212,-16.17886 65.4607,-18.83348 123.1208,-13.60101 41.3957,3.75653 82.5276,32.86328 96.8886,67.79717 11.107,27.01833 7.9153,59.94169 -5.16,78.69532 -0.9328,1.33796 -0.9528,2.52293 -0.7595,3.80017 0.1471,0.97218 1.408,2.592 1.408,2.592 l 22.7845,17.79932 c 0,0 6.4866,4.50696 14.0636,4.30516 4.4004,-0.11719 12.2667,-4.89104 12.2667,-4.89104 l 130.1212,-136.55317 c -80.4452,-108.54703 -223.4056,-147.54198 -309.8556,-147.54198 z"
       id="path3950"
       style="fill:#ffcb08;fill-opacity:1;stroke:none"
       inkscape:connector-curvature="0" />
  </g>
</svg>
