<svg xmlns="http://www.w3.org/2000/svg" width="128" height="128"><path fill="#fbf7f9" d="M45 32c4.072 2.036 5.125 1.974 9.875 1 8.648-1.412 16.53-.432 25.125 1 4.094-1.8 4.094-1.8 8.5-4.312 8.802-4.971 15.481-8.695 25.5-4.688.672 5.445.672 5.445.75 12.125.065 3.959.143 7.917.25 11.875h1c0 14.333 0 14.333-4 17 1.328 7 1.328 7 4 7l.438 3.938C117 81 117 81 120 82l-1 6v3l-3 3-1 5-4-1-2.875 2.5C81.21 123.337 42.439 117.83 16 98l-3 1-1-6-2-1c-2.577-3.865-2-6.43-2-11l2-1 1-4.062C12 72 12 72 14 72c.165-6.088-.048-10.144-2-16-.012-4.066-.012-4.066.313-8.562l.343-4.786L13 38l.156-3.996C14.05 13.957 33.736 26.269 45 32m67-6 1 2ZM13 50v5h1v-5zm101 10 1 2Zm0 32 1 2Zm-1 2 1 2Z"/><path fill="#573f7b" d="M45 32c4.072 2.036 5.125 1.974 9.875 1 8.648-1.412 16.53-.432 25.125 1 4.094-1.8 4.094-1.8 8.5-4.312 8.802-4.971 15.481-8.695 25.5-4.688.672 5.445.672 5.445.75 12.125.065 3.959.143 7.917.25 11.875h1c0 14.333 0 14.333-4 17 1.328 7 1.328 7 4 7l.438 3.938C117 81 117 81 120 82l-1 6v3l-3 3-1 5-4-1-2.875 2.5C81.21 123.337 42.439 117.83 16 98l-3 1-1-6-2-1c-2.577-3.865-2-6.43-2-11l2-1 1-4.062C12 72 12 72 14 72c.165-6.088-.048-10.144-2-16-.012-4.066-.012-4.066.313-8.562l.343-4.786L13 38l.156-3.996C14.05 13.957 33.736 26.269 45 32m-29.266 5.086c.028 7.639.374 14.47 2.266 21.914l-1 4 1 5c-.926 5.979-2.303 10.194-6 15h2v4h2l1 3 2 3 1 4 4 2 3.375 3C31 105 31 105 37 107l3 1.5c5.881 2.205 11.775 2.686 18 3.5l2 1c2.564-.012 5.128-.108 7.688-.25l4.199-.203c4.2-.559 7.285-1.791 11.113-3.547h3c8.116-2.614 14.37-6.697 21-12l2-1 1-6h2c-1-3-1-3-7-5l8 2c-1-4-1-4-4-4v-2l-2-2v-1h-6v-2c-5 2-5 2-6 3l.25-3.625c-.412-7.208-3.656-11.766-10.937-13L81 62l1-2c-5-1-5-1-8 0l-1-5-2 1c-4.713-4.713-5.084-7.924-5.312-14.312C64 35 64 35 57.625 34.562 54.074 35.334 50.525 36.12 47 37c-3.715-1.8-3.715-1.8-7.937-4.312-11.33-6.69-22.214-12.746-23.329 4.398M112 26l1 2ZM13 50v5h1v-5zm101 10 1 2Zm0 32 1 2Zm-1 2 1 2Z"/><path fill="#d5b1f5" d="M26 26c4.105 1.645 4.105 1.645 8.188 3.813l4.105 2.144C41.23 33.576 44.124 35.274 47 37a163 163 0 0 0 10-2h7c-1 6-1 6-3 8l-5-1 1 2v6h-2v3h-2v5l-6 3 3 3c3.122 6.243 4.161 13.839-1 19l1-4-3 2c-5-1-5-1-8-5-1.687 5.062 2.106 6.404 6 9-6.225 0-6.864-.803-10-6-.312-5.375-.312-5.375 0-10-4.051 4.051-2.265 8.47 0 13-3-1-3-1-6-5-5.292.743-6.547 1.094-9 6h-5l-1 3v-3l-2-1 4-5c1.858-6.105 2.007-10.737 1-17l1-1-.937-3.5C10.915 23.676 10.915 23.676 26 26"/><path fill="#fec7ce" d="M88 63c6.603 5.283 7.271 7.87 7 16l2-2 4-1v2h6v2l2 2 1 2h3l-1 3-4-1 4 2v2h-2l-1 6-5 3-3 2.5c-6.29 5.24-12.156 6.931-20 8.5l-5 2c-2.72.312-5.453.535-8.187.688l-4.293.261C60 113 60 113 58 112l-4.562-.375C48.169 111.019 43.953 109.84 39 108l-4-1.187c-5.237-2.374-8.802-5.929-13-9.813l-3-1v-3l-3-3c0-4 0-4 6-6 4.797-.446 9.152-.272 14 0 1 4 1 4-1 5v-2l-3.187 1.375A425 425 0 0 1 23 92c3 1 3 1 6 1l-2 2c3 3 3 3 8 3l-1 2 5 1 2 3 4-1 3 3 5-1 3 2 5 1 3 2v-2c4-1 4-1 6-1l3.375-1.062C77 105 77 105 81 106l1-2c3.563.375 3.563.375 7 1v-4l4-2v-1l5-1 2-2c-4-2-4-2-9 0-5-1-5-1-5-3l-4-1c-1-1-1-1-1-7l-4-1c-5.88-11.762-1.597-22.155 11-20"/><path fill="#0b0715" d="M45 32c4.072 2.036 5.125 1.974 9.875 1 8.648-1.412 16.53-.432 25.125 1 4.094-1.8 4.094-1.8 8.5-4.312 8.802-4.971 15.481-8.695 25.5-4.688.672 5.445.672 5.445.75 12.125.065 3.959.143 7.917.25 11.875h1c0 14.333 0 14.333-4 17 1.328 7 1.328 7 4 7 1 6 1 6 0 8-6.087-2.03-6.846-11.232-8-17l3-4-1-4 1-4c.383-9.158.626-18.136-2-27-10.369 1.455-19.707 6.78-28 13a417 417 0 0 1-10-2c-6.652-.419-12.493-.483-18.875 1.563-7.282.621-11.411-2.555-17.488-6.329C29.295 27.953 24.308 25.894 18 26c-2.6 10.739-1.69 23.41 1 34h-2l2 4c-.516 6.835-1.873 12.497-6 18 1 5 1 5 3 5l3 5 2 1v3c5.35 5.132 10.753 9.188 18 11l5 2c2.387.41 4.784.761 7.188 1.063C58 111 58 111 60 112c8.435-.039 16.245-.433 24-4h2c8.114-2.658 14.358-6.686 21-12l3-2c2 3 2 3-1.062 6.563C105 104 105 104 100 106l-4.187 2.375C68.295 120.802 39.704 115.778 16 98l-3 1-1-6-2-1c-2.577-3.865-2-6.43-2-11l2-1 1-4.062C12 72 12 72 14 72c.165-6.088-.048-10.144-2-16-.012-4.066-.012-4.066.313-8.562l.343-4.786L13 38l.156-3.996C14.05 13.957 33.736 26.269 45 32m67-6 1 2ZM13 50v5h1v-5zm101 10 1 2Z"/><path fill="#b0a5cf" d="M36 84c1 4 1 4-1 5v-2l-3.187 1.375A425 425 0 0 1 23 92c3 1 3 1 6 1l-2 2c3 3 3 3 8 3l-1 2 5 1 2 3 4-1 3 3 5-1 3 2 5 1 3 2v-2c4-1 4-1 6-1l3.375-1.062C77 105 77 105 81 106l1-2c3.563.375 3.563.375 7 1v-4l4-2v-1l5-1 2-2-3-4c4 2 4 2 7 4l1-3c-3.937-1.687-3.937-1.687-8-3 4-1 4-1 7.563-.437C108 89 108 89 111 87l1 3h-2l-1 6-5 3-3 2.5c-6.29 5.24-12.156 6.931-20 8.5l-5 2c-2.72.312-5.453.535-8.187.688l-4.293.261C60 113 60 113 58 112l-4.562-.375C48.169 111.019 43.953 109.84 39 108l-4-1.187c-5.237-2.374-8.802-5.929-13-9.813l-3-1v-3l-3-3c0-8.859 13.569-6.36 20-6"/><path fill="#12101c" d="m16 87 3 5 2 1v3c5.35 5.132 10.753 9.188 18 11l5 2c2.387.41 4.784.761 7.188 1.063C58 111 58 111 60 112c8.435-.039 16.245-.433 24-4h2c8.114-2.658 14.358-6.686 21-12l3-2c2 3 2 3-1.062 6.563C105 104 105 104 100 106l-4.187 2.375C68.295 120.802 39.704 115.778 16 98l-3 1-1-6-2-1-2-3c4-2 4-2 8-2"/><path fill="#1b1a2f" d="M50 64c3.122 6.243 4.161 13.839-1 19l1-4-3 2c-5-1-5-1-8-5-1.687 5.062 2.106 6.404 6 9-6.225 0-6.864-.803-10-6-.312-5.375-.312-5.375 0-10-4.051 4.051-2.265 8.47 0 13-4.912-1.637-6-3.982-6-9l-3-1c5.81-8.502 14.52-17.48 24-8"/><path fill="#a57cdb" d="M18 26c4.862 1.907 7.813 3.65 12 7l-1 2v3c-6.198 0-6.147-.928-9-6-2.862 8.586-.845 17.683 2 26 2 0 2 0 4-4 2.878-3.49 5.8-6.8 9-10l1-2 2 4h-2l-1 3-3 2v5a204 204 0 0 1-6 6v3h-2c0 2 0 2 2 3-4 8-4 8-7 8l-1 6-2 1-2 3v-3l-2-1 4-5c1.858-6.105 2.007-10.737 1-17l1-1-.937-3.5C15.165 45.676 14.835 35.57 18 26"/><path fill="#f28aa3" d="M109 30c2.299 9.195 1.479 18.239-2 27-4.945 1.648-6.015-2.284-9-6-4-4-4-4-7-6 3.591-7.183 9.616-16.677 18-15"/><path fill="#070413" d="M114 25c.672 5.445.672 5.445.75 12.125.065 3.959.143 7.917.25 11.875h1c0 14.333 0 14.333-4 17 1.328 7 1.328 7 4 7 1 6 1 6 0 8-6.087-2.03-6.846-11.232-8-17l3-4-1-4 1-4c.383-9.158.626-18.136-2-27-10.369 1.455-19.707 6.78-28 13-4.937-.75-4.937-.75-10-2l-5-1c3-2 3-2 7.625-1.062 8.114.079 12.565-2.722 19.457-6.739C100.528 23.02 105.968 21.787 114 25m-2 1 1 2Zm2 34 1 2Z"/><path fill="#332053" d="M110.875 28.375c1.79 8.954 2.521 18.754-.02 27.617C110 59 110 59 112 60l-3 4c1.313 6.75 1.313 6.75 3 13h-5v-2l-3-1c-2.447-7.107-2.447-7.107 0-12l-3-2c-3.44-3.113-4.853-4.411-6-9l-1-2c10 4 10 4 10 9 6.951-6.951 6.256-18.977 4-28-5 1-5 1-9 3 0-3 0-3 4-4 0-2 0-2-3-3 5.078-1.693 8.08-2.654 10.875 2.375"/><path fill="#f5c0c7" d="M36 66c0 2.626-.115 5.252-.25 7.875.314 6.444 1.753 9.5 8.25 11.125 0 5 0 5-4 7q-6.495.562-13 1l-4 1c0-5.433 5.498-5.481 10-7l3 1c-1.903-5.708-8.893-3.23-14-3-4.813 1-4.813 1-8 2 1-4 1-4 5-6l2-3 5-1 3-1 4 4-1-2c0-7 0-7 4-12"/><path fill="#162d5d" d="M82 64c8.666 1.444 10.872 4.52 11 13-3 6-3 6-6 8l-3-1 4-2 2-6h-2v2c-7.143 2.857-7.143 2.857-10 0l-2 3c-2.6-5.2-.7-9.901 1-15l2-1 1 5h3z"/><path fill="#12224b" d="M48 62c5.245 5.245 4.367 11.027 4 18l-3 3 1-4-3 2c-6-1.2-6-1.2-6-7h-2v-2l-2-1c1-4 1-4 5-4 5-2 5-2 6-5"/><path fill="#986fc1" d="M18 26c4.862 1.907 7.813 3.65 12 7l-1 2v3c-6.198 0-6.147-.928-9-6-2.862 8.586-.845 17.683 2 26 2 0 2 0 4-4 2.878-3.49 5.8-6.8 9-10l1-2 2 4h-2l-1 3-3.875 3.375C27 56 27 56 24 61c-4.17 0-5.529-7.68-7-11h-1a968 968 0 0 1-.125-8.062l-.07-4.536c.184-4.156.871-7.478 2.195-11.402"/><path fill="#ed718d" d="M72 85c1.773 3.547-1.272 10.272-4 13-10.44 0-10.584-3.93-14-13l6 1c4.249-2.833 7.097-1.84 12-1"/><path fill="#ee8aa8" d="M19 31c4 4 4 4 7 9l2 2-4 2c1 2 1 2 4 4l-1 1 3 2c-5.75 7-5.75 7-8 7-4.043-9.037-5.426-17.294-3-27"/><path fill="#0f0d1d" d="m109 94 3 3c-3.992 4.227-6.535 6.814-12 9l-4.562 2.438C75.047 118.047 75.047 118.047 69 112l4.125-.875C78 110 78 110 84 108h2c8.807-2.885 16.41-7.41 23-14"/><path fill="#170f23" d="m37.688 28.5 4.011 1.906C43.471 31.262 45.241 32.12 47 33c4.77 1.59 9.128-.09 14-1 6 0 6 0 8 2l-5.375.875C57 36 57 36 52.25 37.688c-7.332.436-11.495-2.654-17.613-6.454C29.447 28.046 24.94 26.815 19 26v-1c7.7-1.283 11.844.229 18.688 3.5"/><path fill="#3e3847" d="M111 81c6 0 6 0 9 1l-1 6v3l-3 3-1 5c-3-1-3-1-7-6h2v-3h2c-2.086-4.172-9.774-4.056-14-5v-1c5.621 0 8.864.323 14 2zm3 11 1 2Zm-1 2 1 2Z"/><path fill="#b2818e" d="M36 84c1 4 1 4-1 5v-2l-2.875 1.313C18.571 93.857 18.571 93.857 16 90c0-8.859 13.569-6.36 20-6"/><path fill="#f2e9ee" d="M100 33c0 3 0 3-1 4l4 1c0 2 0 2-2 3l4 4-5 3 2 2c-4 1-4 1-8-3l-3-2c2.359-4.717 5.484-8.094 9-12"/><path fill="#1e2e58" d="M82 64c8.666 1.444 10.872 4.52 11 13-3 6-3 6-6 8l-3-1 4-2c.75-3.625.75-3.625 1-7-2 0-2 0-3 2v-4l-2-1v-4z"/><path fill="#d3abf4" d="M64 35c-1 6-1 6-3 8l-5-1-3 3-2-5-3 4c0-6.603 0-6.603 4.625-8.437C57 35 57 35 64 35"/><path fill="#0b081d" d="M90 61c5.513 2.705 8.294 6.588 11 12h-2l-2 5-4 4 1-3c.489-5.96.335-9.665-4-14-5.25-1.375-5.25-1.375-10-2 1.914-3.828 6.273-2.29 10-2"/><path fill="#f4e8ee" d="M26 33c6.385 3.192 8 6.948 8 14-3 3-3 3-8 3l1-2-4-4 3-3-2-3h5z"/><path fill="#faeff1" d="M26 76c4 1 4 1 7 6h-2v2a433 433 0 0 1-13 2l-4 1c1-4 1-4 5-6l2-3 5-1z"/><path fill="#ee99a8" d="M110 87c-3.577 5.366-11.412 2.863-17 1l-1 2-4-1h-3c0-10.103 19.836-3.408 25-2"/><path fill="#f2e5e9" d="M101 76v2h6v2l2 2 1 2h3l-1 3c-6.027-1.134-11.496-2.248-17-5 2.4-6 2.4-6 6-6"/><path fill="#733d57" d="M72 85c1.87 3.741-1.345 7.489-3 11-1-2-1-2-1-5-4.166-2.083-7.319-1.454-11 1l-3-7 6 1c4.249-2.833 7.097-1.84 12-1"/><path fill="#43435f" d="M83.25 62.063c7.79 1.537 11.529 5.228 12 13.124C95 79 95 79 93 80l-.812-5.312C90.705 67.585 90.103 66.42 83 65l1 5-4 1c-3.01-9.03-3.01-9.03 3.25-8.937"/><path fill="#90869e" d="M112 88v2h-2l-1 6c-5 3-5 3-8 4l-1-5-3-4c4 2 4 2 7 4l1-3c-3.937-1.687-3.937-1.687-8-3 4-1 4-1 7.625-.437 4.144.537 4.155-2.173 7.375-.563"/><path fill="#3b295f" d="M64 35c7 0 7 0 11 3-1 4-1 4-3 6l-1-5h-2v3h-2l-1 4c-2.57-3.856-2.15-6.454-2-11"/><path fill="#c7effc" d="M88 76h2c-1.5 6.75-1.5 6.75-6 9-6-1-6-1-7-2v-6l3 2c5 0 5 0 8-1z"/><path fill="#af5088" d="M19 28c6 1 6 1 11 5l-1 2v3c-6.52 0-6.816-1.633-10-7z"/><path fill="#151124" d="m37.313 28.563 3.8 1.94L44 32c-2 3-2 3-5.45 1.578l-4.237-2.328C29.053 28.373 24.973 26.595 19 26v-1c7.656-1.276 11.615.12 18.313 3.563"/><path fill="#3b3845" d="M18 89c0 5 0 5-6 8v-4l-2-1-2-3c6.667-3.333 6.667-3.333 10 0"/><path fill="#ade3f7" d="m38 75 2.063 2.563C43.833 80.69 45.399 80.173 50 79c-1 5-1 5-5 6-6-3-6-3-8-8z"/><path fill="#8165b7" d="m23 74-4 2-1 6-2 1-2 3v-3l-2-1 4-5 1-6c4-1 4-1 6 3"/><path fill="#aa89d5" d="M29 73c0 5.25-1.963 4.993-7 6l-2 4-4-1h2l1-6c4.925-4.269 4.925-4.269 10-3"/><path fill="#2e283c" d="M111 81c6 0 6 0 9 1l-1 6v3c-6.179 0-6.753-4.915-8-10"/><path fill="#060924" d="M82 64c6 1 6 1 10 5v6l-1-3h-2v-3h-2v4c-3-1-3-1-3-5z"/><path fill="#8364a2" d="m83 56 6-1-4 3 4 2c-5.274.989-9.706.836-15 0 2.257-4.513 4.004-6.498 9-4"/><path fill="#f0dcfb" d="m61 42 2-1c-1 4-1 4-3 4v5c-4.222 5-4.222 5-7 5v-2h2v-3h2c-1-5-1-5-2-8 1-1 1-1 6 0"/><path fill="#1b182b" d="M21 93v3c2.5 2.688 2.5 2.688 5 5-3.82 1.91-6.811-.874-10-3l-3 1c4-8 4-8 8-6"/><path fill="#f5d5da" d="m92 77 3 4 4 2c-3 2-3 2-9 2-5 1-5 1-6 5-1.381-6.906.167-5.627 6-8z"/><path fill="#164293" d="M50 74c1 5 1 5-3 7-5-1-5-1-6-3 2.513-3.77 4.478-4 9-4"/><path fill="#422c7f" d="m35 42 3 3-2 1-1 3-3.875 3.375C27 56 27 56 24 61c-2 0-2 0-4-4l1-3 1 4c2 0 2 0 4-4 2.878-3.49 5.8-6.8 9-10z"/><path fill="#b94f84" d="m109 30-2 1-2 5c-1 2-1 2-7 2 5.619-9.076 5.619-9.076 11-8"/><path fill="#b7b2c7" d="M36 66c0 2.605-.115 5.21-.25 7.813.255 5.295.91 7.221 4.25 11.187-7.739-3.095-8-5.833-8-14z"/><path fill="#fee1e4" d="M81 85c2 0 2 0 4 5 3.655.447 7.324.786 11 1 0 2 0 2-5 4-5-1-5-1-5-3l-4-1c-1-1-1-1-1-6"/><path fill="#c9bedd" d="M28 88c-4.875 2.688-4.875 2.688-10 5-2-3-2-3-2-6 10.222-2.556 10.222-2.556 12 1"/><path fill="#fddee2" d="M44 85c2 1 2 1 1 6-5.992 4.494-8.953 4.35-16 2v-1q5.499-.517 11-1c3-1 3-1 4-6"/><path fill="#070516" d="M90 61c3.688 1.75 3.688 1.75 6 4l-2 4-2.5-2.437C87.493 63.629 84.892 63.253 80 63c1.914-3.828 6.273-2.29 10-2"/><path fill="#bcb1db" d="m60 107 4 4c-6 1-6 1-11-1 1-3 1-3 7-3m8 0v3h-4c0-2.976 1.26-3 4-3"/><path fill="#46326c" d="M94 31q-2.68 2.508-5.375 5l-3.023 2.813C83 41 83 41 81 41c-1.861-5.584 4.797-7.266 9-10 2-1 2-1 4 0"/><path fill="#c1b6dd" d="m98 96 4 1c-1 2-1 2-7 2v2l-4 3a281 281 0 0 0-5 5l-1-3 4-1v-4l4-2v-1l5-1z"/><path fill="#fdadb9" d="M31 82c4.537.756 8.666 1.526 13 3v2h-2l-1 3c-3 0-3 0-6-5l-4-1z"/><path fill="#21315f" d="M39 72v2h2c-1 3-1 3-3 3 2 5 2 5 7 7v1c-6.166 0-6.852-.908-10-6 0-7 0-7 4-7"/><path fill="#f7eff1" d="M105 44c-3 3-3 3-5 4l2 2c-4 1-4 1-8-3 2.04-4.079 7.02-3 11-3"/><path fill="#100e20" d="M39 61c-1.223 4.893-3.09 6.005-7 9-1.109-5.544.63-9 7-9"/><path fill="#936dca" d="m56 36-2 9c-2-2-2-2-3-5l-3 4c.873-8 .873-8 8-8"/><path fill="#bf97ef" d="M32 53c-1.223 4.893-3.09 6.005-7 9-1.287-3.862 2.41-11.295 7-9"/><path fill="#ede1ed" d="M25 78c-2 4-2 4-4 4l1 3-8 2c1-4 1-4 5-6 2-3 2-3 6-3"/><path fill="#6e5590" d="M69 39h2l1 6h-3l-2 5c-2-1-2-1-1-5 1-3 1-3 3-3z"/><path fill="#27184a" d="M104 71c6.8 0 6.8 0 8 6h-5v-2l-3-1z"/><path fill="#17203c" d="M79 65v6h-2v10c-4.39-4.39-1.707-9.878 0-15 1-1 1-1 2-1"/><path fill="#c4618c" d="M108 50c1 2 1 2-2 8-2 0-2 0-6-5v-2c4 1 4 1 5 3l1-3z"/><path fill="#eddee8" d="M95 41v2c4 0 4 0 5-2l4 3c-9.625 2.125-9.625 2.125-13 1 2-4 2-4 4-4"/><path fill="#7eb9dc" d="m77 77 3 2h4v2h-4v2h6c-2 2-2 2-8 1-1-1-1-1-1-7"/><path fill="#9b91b9" d="m73 109 3 3-16 1c0-4.053 6.771-3.402 10-4 1-1 1-1 3 0"/><path fill="#1a489e" d="m85 76 1 3c-4.526 1.509-6.354.97-9-3 3-1 3-1 8 0"/><path fill="#a7a3c4" d="M89 65c6.518 3.259 6.445 7.22 6 14l-2 1-.875-5.25C91 69 91 69 89 65"/><path fill="#eee2eb" d="M110 88c-2.996 2.996-5.049 1.847-9 1l-2-2c4.017-2.009 7.795-2.205 11 1"/><path fill="#a47edb" d="m20 65 1 3 3-2c2 2 2 2-1 7l-2-2-3 1c1-6 1-6 2-7"/><path fill="#190c2e" d="M94 49c10 4 10 4 10 9l3-1c-1 4-1 4-3 4l-1.75-2.687c-2.377-3.5-4.958-5.694-8.25-8.313z"/><path fill="#8360c6" d="M23 61h2v2l2 1-7 5-1-6h4z"/><path fill="#b0a5cf" d="m87 104-2 6-2-1-4 1c0-5.794 2.768-6 8-6"/><path fill="#573fa2" d="M23 74c-5 3-5 3-6 2 0-6.506 2.802-8.395 6-2"/><path fill="#c19aee" d="m24 65 5 3c-2 4-2 4-4 4l-1 2c-1-4-1-4 1-6z"/><path fill="#080616" d="M47 33v1l6 1c-4 3-4 3-9 1l-1-3c2-1 2-1 4 0"/><path fill="#403a57" d="m44 60 1 4c-3.937 1.25-3.937 1.25-8 2 2-6 2-6 7-6"/><path fill="#e4c5f7" d="m52 55 1 3c-8.375 3.125-8.375 3.125-14 2 0-2.205 7.276-2.627 9-3l2-1 2 1z"/><path fill="#f4e9ec" d="M98 90c6.875.75 6.875.75 8 3h-2v2c-4-2-4-2-6-5"/><path fill="#b089d7" d="M57 35h7v4h-5v-3z"/><path fill="#372e49" d="M33 27c-5.165 1.291-8.873.214-14-1v-1c5.914-.986 8.977-1.349 14 2"/><path fill="#a49ac2" d="m45 106-1 4c-5-2-5-2-5-5 2-1 2-1 6 1"/><path fill="#191627" d="m109 94 3 3c-4 3-4 3-8 1l4-2z"/><path fill="#262331" d="M21 93c-1.347 5.386-2.89 4.885-8 6 4-8 4-8 8-6"/><path fill="#fda3b0" d="M92 85c-2 5-2 5-5 5-2-1-2-1-2-4 5-2 5-2 7-1"/><path fill="#f6bec8" d="M92 81c6 1 6 1 7 3l-8 1z"/><path fill="#f7f7f8" d="m80 66 4 1-1 4-4-1z"/><path fill="#f2f3f4" d="m43 66 4 1-1 4-4-1z"/><path fill="#181229" d="m17 55 2 4c-3 2-3 2-6 1 0-3 0-3 4-5"/><path fill="#68656b" d="m108 93 4 1h3l1 4c-4 0-4 0-8-5"/><path fill="#b9aed8" d="m21 92 4 3-2 3-4-2z"/><path fill="#702a4d" d="M70 87h1c0 6 0 6-3 9v-5l-2-2c2-1 2-1 4 0z"/><path fill="#b08add" d="m41 34 7 4-3 3c-4-5-4-5-4-7"/><path fill="#b7acd3" d="M112 88v2h-2v3c-4-2-4-2-4-4 4-2 4-2 6-1"/><path fill="#fdedee" d="M21 86c6 0 6 0 7 2l-6 2z"/><path fill="#030928" d="M48 66c3 1 3 1 3 7-3-1-3-1-3-7"/><path fill="#211540" d="m109 58 3 2-4 6c-2-2-2-2 1-8"/><path fill="#69819e" d="M38 67c3 1 3 1 3 3l2 1c-1 2-1 2-3 2v-2h-2z"/><path fill="#4d5266" d="M48 62c2 2 2 2 2 4h-2l1 6c-3-1-3-1-3-6z"/><path fill="#8469a0" d="m78 55 2 3c-3 2-3 2-6 2 2-4 2-4 4-5"/><path fill="#8b66cd" d="m30 52 2 2-6 5c0-3 0-3 4-7"/><path fill="#796d95" d="m35 42 3 3-2 1-1 3c-3-1-3-1-3-3l3-2z"/><path fill="#afa3cc" d="M33 39c2 1 2 1 3 6-3 1-3 1-7-1l4-1-1-2z"/><path d="M56 116h16v1H56z"/><path fill="#beb3dc" d="M48 108h-4v-2l-2-2c2-1 2-1 6 4m0-2 2 1Z"/><path fill="#bcb0da" d="M36 100c3 1 3 1 4 7-4-2-4-2-4-7"/><path fill="#f6ecef" d="M28 90c-2 4-2 4-6 3 3-3 3-3 6-3"/><path fill="#77bfe7" d="M88 76h2l-2 7-1-3-2-1 3-1z"/><path fill="#8c74a2" d="m103 75 3 3h-5v-2l-4 1c2-3 2-3 6-2"/><path fill="#c4578b" d="M107 33c-3 5-3 5-7 4h2l2-4c1-1 1-1 3 0"/><path fill="#fab8c2" d="M35 87c0 4.749-2.86 4.039-7 5 0-4.574 2.682-5 7-5"/><path fill="#3380c9" d="M51 77c0 2 0 2-4 4l-4-1c6-3 6-3 8-3"/><path fill="#705394" d="m81 55 2 1 6-1c-5 4-5 4-8 3z"/><path fill="#fefaf9" d="M24 43h4v2l2 1h-6z"/><path fill="#060414" d="M104 99h4c-2 4-2 4-4 5z"/><path fill="#efb8c1" d="m93 88 7 1c-4 3-4 3-7 1z"/><path fill="#1e1b2e" d="M96 74c2 2 2 2 .125 5.125L94 82c0-3 0-3 2-8"/><path fill="#a79cc6" d="m93 41 2 1-1 2 3 1c-3 1-3 1-6 0z"/><path fill="#b3a8d0" d="m104 93 5 1-1 3c-4-2-4-2-4-4"/><path fill="#ccc2dc" d="m20 83-2 1v2l-4 1c1-4 1-4 6-4"/><path fill="#fabec9" d="m31 82 6 1c-2 2-2 2-6 1z"/><path fill="#e76c82" d="M61 80h5l-1 3c-4-1-4-1-4-3"/><path fill="#1f58a8" d="M77 76c4 0 4 0 6 4-4-1-4-1-6-4"/><path fill="#05071c" d="M36 68c2 3 2 3 0 9h-1c-.125-7.875-.125-7.875 1-9"/><path fill="#b85490" d="M24 51h4c-2 4-2 4-4 5z"/><path fill="#2d1f50" d="M84 37c-1 4-1 4-3 4-1.061-3.183-.896-5.948 3-4"/><path fill="#ede5f0" d="m77 103 5 2c-2 2-2 2-5 2z"/><path fill="#fdd8de" d="M33 82h-2v2h-4c0-4.153 2.748-2.813 6-2"/><path fill="#1b1037" d="M108 72c3 0 3 0 4 5-4-2-4-2-4-5"/><path fill="#3e4d71" d="M79 70c1 3 1 3-2 6 0-5 0-5 2-6"/><path fill="#212131" d="M48 62v2l-6-1c2-2 2-2 6-1"/><path fill="#c7a0f3" d="m33 49 2 1-2 4-2-1z"/><path d="M11 38h1v12h-1z"/><path fill="#362558" d="M94 31c-3 3-3 3-6 2 4-3 4-3 6-2"/><path fill="#322255" d="m100 28-5 4-1-3c4-2 4-2 6-1"/><path fill="#3c3b3e" d="M12 89v4c-2-1-2-1-4-4 1-1 1-1 4 0"/><path fill="#9ddcf4" d="M50 79c-1 5-1 5-3 5 1-5 1-5 3-5"/><path fill="#e6c2fa" d="M42 52c4 2 4 2 4 5-4-3-4-3-4-5"/><path fill="#211c37" d="M94 49c5 2 5 2 6 4-4-1-4-1-6-4"/><path fill="#ecd4fb" d="M38 33c3 1 3 1 5 5-4-2-4-2-5-5"/><path fill="#040312" d="m113 90 1 4c-3 0-3 0-4-2h3z"/><path fill="#528ece" d="m38 75 3 3-4 1z"/><path fill="#12142a" d="M82 64h4l-2 4z"/><path fill="#af4e85" d="m100 51 4 1-2 3z"/><path fill="#c56292" d="m104 46-1 3-4-1c3-2 3-2 5-2"/><path d="M116 41h1v8h-1zM115 32h1v8h-1zM72 115h7v1h-7zM49 115h7v1h-7zM12 31h1v7h-1zM67 31h7v1h-7zM54 31h6v1h-6zM61 30h6v1h-6zM103 21h6v1h-6zM18 21h6v1h-6zM79 114l4 1ZM45 114l4 1ZM83 113l4 1ZM41 113l4 1Z"/><path fill="#000015" d="m111 98 2 2-3-1z"/><path d="m117 79 2 1-1 2zM114 69l1 4ZM13 68l1 4ZM74 32l4 1ZM50 32l4 1ZM114 28l1 4ZM13 27l1 4ZM24 22l4 1ZM87 112l3 1ZM38 112l3 1ZM35 111l3 1ZM22 104l3 1ZM47 33l3 1ZM30 24l3 1ZM97 23l3 1ZM100 22l3 1ZM90 111l2 1ZM93 110l2 1ZM33 110l2 1ZM95 109l2 1ZM31 109l2 1ZM97 108l2 1ZM29 108l2 1ZM100 106l2 1ZM26 106l2 1ZM14 99l2 1ZM78 33l2 1ZM80 32l2 1ZM82 31l2 1ZM42 30l2 1ZM85 29l2 1ZM87 28l2 1ZM89 27l2 1ZM37 27l2 1ZM91 26l2 1ZM35 26l2 1ZM93 25l2 1ZM33 25l2 1ZM95 24l2 1ZM28 23l2 1ZM109 22l2 1Z"/></svg>