<svg xmlns="http://www.w3.org/2000/svg" xml:space="preserve" viewBox="0 0 283.465 283.465"><path fill="#FFF" d="M.752-.337h283.465v283.465H.752z"/><path fill="#0033A0" d="M210.282 120.915c.429 24.998-11.023 41.967-14.629 47.856-3.143 5.13-10.654 15.024-25.11 30.374-18.235 19.365-75.231 79.947-79.029 83.983h154.558l-35.636-162.227-.154.014zm14.216 82.805 1.277 5.803c-15.302 16.528-38.73 28.912-66 28.912-5.841 0-11.941-.565-18.719-2.005 1.375-1.463 2.693-2.867 3.937-4.188a84.398 84.398 0 0 0 14.506 1.286c26.524.013 49.699-11.923 64.999-29.808zM.752-.337v283.465h84.595l83.686-88.992-.117-.107c-13.455 9.491-30.532 14.646-48.943 14.646-34.121 0-64.191-20.244-77.232-45.437l-.132.088 17.755 59.9h-4.806s-8.809-30.352-16.33-56.812c-5.692-20.026-9.198-34.861-9.154-48.029.156-45.284 35.77-86.809 83.128-89.874 1.3-.086 5.328-.506 11.328-.511 36.48-.022 148.884.84 159.687.923V-.337H.752zm99.509 210.79c6.786 5.88 17.542 13.273 30.838 18.05l-3.603 3.833c-13.279-5.257-26.271-13.409-36.369-24.392a86.215 86.215 0 0 0 9.134 2.509zm45.622-178.026c13.977 3.923 27.086 11.109 37.504 20.825a88.826 88.826 0 0 0-9.188-1.939c-14.647-11.578-33.714-18.482-53.64-18.482-47.069 0-85.592 38.386-85.592 85.565 0 47.18 38.382 85.564 85.565 85.564 47.179 0 85.565-38.384 85.565-85.564 0-18.252-6.876-36.487-16.318-49.367 2.255.678 5.004 1.841 8.162 3.708 6.393 9.69 12.32 25.515 17.398 49.787 5.33 25.462 32.732 147.426 35.694 160.605h33.182V33.152l-138.333-.85.001.125zm-95.288 83.956c0-11.441 8.652-19.051 20.412-19.051 4.577 0 9.814 1.409 12.738 2.664-.611 1.353-1.113 3.142-1.326 4.258l-.319.106c-2.261-2.503-5.898-4.672-11.279-4.672-6.83 0-14.689 5.528-14.689 16.557 0 10.737 8.009 16.442 15.169 16.442 6.434 0 9.513-3 12.278-5.337l.212.213-.783 4.172c-1.268.96-5.664 3.695-12.279 3.695-11.975-.001-20.134-7.545-20.134-19.047zm28.17 71.273c-6.344-12.899-9.219-25.995-9.6-38.519 1.612 0 3.481.067 5.093.067.556 11.987 3.274 26.892 12.648 43.087-3.385-1.244-5.932-2.886-8.141-4.635zm34.022-52.901v.001a231.828 231.828 0 0 0-7.084-.221 303.904 303.904 0 0 0-3.973-.044h-.47c-3.247 0-8.227.105-11.475.266.214-4.631.429-9.26.429-13.836v-9.15c0-4.578-.215-9.206-.429-13.728 3.193.16 8.121.265 11.313.265 3.193 0 9.149-.141 10.991-.265a11.693 11.693 0 0 0-.127 1.815c0 .725.071 1.473.127 1.836-3.505-.263-9.766-.692-16.682-.692-.056 2.287-.162 11.991-.162 13.324 6.278 0 10.301-.269 13.441-.532-.105.532-.16 1.486-.16 2.017 0 .532.054 1.32.16 1.853-3.671-.374-11.887-.48-13.441-.48-.095 1.779-.012 13.294.053 14.266 3.889-.057 13.857-.359 17.489-.693a16.722 16.722 0 0 0-.125 2.042c-.001.809.046 1.399.125 1.956zm31.252-.175c-.485 0-2.321.017-3.334.177-2.103-3.205-8.839-13.302-13.419-18.015l-2.708.003v4.23c0 4.575.212 9.205.426 13.781-.906-.161-2.542-.177-2.877-.177-.335 0-1.971.017-2.878.177.214-4.577.428-9.206.428-13.781v-9.152c0-4.577-.213-9.207-.428-13.782a91.21 91.21 0 0 0 6.606.265c2.021 0 4.043-.265 6.064-.265 6.013 0 11.523 1.776 11.523 8.472 0 7.084-7.06 9.632-11.104 10.163 2.606 3.246 11.946 14.619 15.032 18.08-1.061-.16-2.845-.176-3.331-.176zm40.28.673-1.742-.017c-2.13-2.888-24.461-26.18-26.395-28.237-.053 1.967-.055 6.062-.055 10.043 0 5.287.4 13.354.634 17.714a13 13 0 0 0-2.268-.195 13.4 13.4 0 0 0-2.331.195c.436-5.625.558-14.755.558-23.337 0-6.704-.099-10.38-.178-13.762l1.744.015c2.256 2.45 24.457 25.428 26.392 27.487.053-1.967.057-5.441.057-9.424 0-5.285-.402-13.354-.636-17.711.542.094 1.338.192 2.269.192.942 0 1.71-.084 2.332-.192-.438 5.624-.56 14.753-.56 23.336 0 6.703.099 10.508.179 13.893zm45.774-47.143c9.889 12.128 17.896 31.314 19.065 47.379h.156l8.24-85.104 4.646-.003s-5.271 55.013-8.341 82.351c-3.844 34.241-8.729 48.448-18.071 63.403l-1.43-6.508c7.28-12.787 9.357-23.946 10.306-29.823 2.956-18.304-1.273-43.291-14.025-62.789-14.291-21.849-39.84-37.924-71.2-37.924-25.762 0-48.143 11.327-63.766 28.993l-3.789-3.003c16.539-18.764 40.576-30.737 67.558-30.737 28.293.001 53.482 12.713 70.651 33.765zm-91.788 19.131c0-5.29-4.629-6.973-8.248-6.973-2.448 0-4.043.161-5.162.268-.159 3.885-.318 7.457-.318 11.287v2.926c.529.071 3.021.059 3.566.049 4.394-.091 10.162-1.486 10.162-7.557z"/></svg>