<svg xmlns="http://www.w3.org/2000/svg" width="250" height="250"><path fill="#00A0DF" d="M0 0h250v250H0z"/><path fill="#FFF" d="M217.2 113.3c0 6-7.3 11.4-13 11.4-3.8 0-7.1-2.7-7.1-4.3 0-1 .3-3.9 1.7-3.9 1 0 1.9.8 2.9 1.7 1.4 1.3 3.1 2.8 5.6 2.8 2.5 0 5.1-1.7 5.1-4.5 0-1.7-1.3-3.3-2.7-5.2-1.8-2.3-3.9-5-3.9-8.4 0-6.2 6.2-14.2 13.2-14.2 3.1 0 4.9 1.8 4.9 3.5 0 1.4-1.5 3.2-3.2 3.2-1.3 0-2.3-.5-3.3-.9s-2-.9-3.2-.9c-2.4 0-4 1.8-4 4.6 0 2.1 1.5 4.1 3.1 6.2 1.8 2.6 3.9 5.5 3.9 8.9m-152.5-44c-.1 0-.3.2-.3.3v1.7c0 .1.1.2.2.3l1 .1 1.3.1c1.7.3 2.1.6 2.1 1.4 0 1.4-1.6 5.9-3.8 12.1l-2 5.6c-1.7 5-4.4 11.9-6.7 18-2.8 7.3-5 13-5 13.8 0 .9.5 1.2 2.6 1.2 2.3 0 3.3-.4 3.5-1.2 3.9-12.9 14.7-27.6 20.3-27.6 1.8 0 2.4.6 2.4 2.4 0 2.9-2.4 8.3-4.8 13.5-2.1 4.6-4 8.9-4 11 0 1.9.9 2.9 2.5 2.9 5.5 0 9.7-5 13.1-9l.5-.6.1-.2-.1-.2-1.1-1.4s-.1-.1-.2-.1-.2 0-.2.1c-1.9 2-5.1 5-6 5.1-.3 0-.4 0-.5-.1-.1-.1-.1-.4-.1-.9.1-.4.6-1.8 1.5-3.8 2.1-5.1 5.6-13.5 5.6-18.6 0-4-1.9-6.3-5.3-6.3-6.8 0-12.2 7.7-14.8 11.4-.6.9-1.2 1.7-1.3 1.7h-.1c-.1-.2.3-1 1-2.6.7-1.7 1.8-4.3 3.4-8.2 5.1-13.2 7.2-20.3 7.2-20.9 0-.8-.7-.9-1.5-.9H64.7zm-14.9 47.3v-.3l-1.2-1.2c0-.1-.1-.1-.2-.1s-.1 0-.2.1l-.1.1c-2.1 1.9-6.2 5.2-9.8 5.5-1.4.1-2.7-.3-3.7-1.2-1.2-1.1-1.9-2.7-2-4.8-.2-5.5 4.4-13.7 9-18.6 2.5-2.6 4.8-4 6.4-4 1.9 0 3.1 1.4 4.3 2.8 1 1.2 2 2.4 3.4 2.4.5 0 1.1-.3 1.6-.7.5-.5.7-1.2.7-1.9 0-2.3-2-5.7-6.9-5.8-5.6-.1-12.5 3.3-17.7 8.6-4.9 5.1-7.5 11.1-7.2 17 .2 4.9 2.9 10.2 9.7 10.2 6.9 0 12.9-6.2 13.9-8.1m90-12.6c-.1.3-.5 1.1-.6 1h-.1v-.3c0-.3.4-1.8.8-3.6.8-3.4 1.9-8.1 1.9-9.5 0-1.8-1-2.7-2.7-2.7-3.7 0-9.3 6.1-11.2 9.3l-.1.1c0 .1 0 .1.1.2l1.1 1.1c0 .1.1.1.2.1s.2-.1.2-.1l.3-.4.3-.4c1.2-1.6 3.8-4.8 5.2-4.8.7 0 1.1.7 1.1 2 0 3.3-3.6 13.2-6 19.8-1.3 3.7-2.3 6.4-2.3 6.9 0 .7.3 1 .9 1h3.1c.6 0 .9-.4 1.3-1.4 0 0 1.5-3.6 2.4-5.4 6.1-12.5 9.5-18.9 12.1-21.4 1.7-1.7 2.9-2.4 3.8-2.4.7 0 1.1.6 1.6 1.1.5.6 1 1.2 1.9 1.3.6 0 1.2-.2 1.7-.6.8-.7 1.2-2 1.2-3.3 0-2.3-1.6-3.1-3-3.1-5.5.3-9.6 4.5-15.2 15.5m-19.2-15.8c.2-.1.5 0 .8.2 0 0 .1 0 .1.1l2.1 1.4c.5.2.5.8.5.9-.1.7-1.7 5.1-3.7 10.2-2.6 6.9-5.9 15.5-6 17.1 0 .6 0 .9.2 1 .1.1.3.2.6.2 1.2 0 3.2-2.5 4.8-4.4l1.2-1.5c.1-.1.3-.1.4 0l1.2 1.4.1.2s-.1.2-.1.1c-1.7 2.6-6.4 9.5-11.8 9.6-1 0-1.7-.2-2.2-.8-.6-.6-.9-1.5-.9-2.8 0-2.6 1.3-5.5 2-7l.4-1c.1-.2.1-.3 0-.4h-.1c-.2 0-1.4 2.1-1.4 2.1-5.7 8.7-10.2 9.8-13.5 9.8-2.7 0-5.3-2.2-5.3-7.1 0-7.2 8.1-28 23.6-28 1.4 0 2.4.2 3.2.4.6.1 1.1.2 1.6.2.6 0 .9-.5 1.2-1 .2-.3.5-.7 1-.9M96 115.9c0 2.9.8 3.4 2.3 3.4 6.8 0 17.8-19.2 17.8-23.3 0-2.7-1.5-4.2-4.1-4.2-8 0-16 14-16 24.1m74.9-1c0-12.6 14.1-26 24-26 4.7 0 7.2 2.9 7.2 5.6 0 6.6-10.8 9.4-16.6 9.4l-3.3-.1h-.6c0 .1-.2.3-.2.3-1.6 2.4-3.7 5.7-3.7 10.1 0 3.6 2.2 5.9 5.7 5.9 2.9 0 6.8-2.9 8.9-4.5l.9-.6c.1-.1.3-.1.4 0l1 1.3c.1.1.1.2 0 .3-1.6 2.1-8.3 8.1-14.6 8.1-5.3 0-9.1-4-9.1-9.8m22.9-23.8c-4.3 0-8.9 7-10.5 9.9 8.6-.1 13.5-2.7 13.5-6.9 0-1.7-1.3-3-3-3M168 115.3c.1-.1 0-.3 0-.3 0-.1-1.2-1.5-1.2-1.5-.1-.1-.1-.1-.2-.1s-.2 0-.2.1l-.4.4c-3 3.3-4.7 5.2-6.1 5.2-.2 0-.4 0-.6-.2-.2-.2-.3-.6-.3-1 .1-1.9 3.1-10.6 9.2-26.6l4.4-11.5c2.3-6 3.5-9 3.5-9.4 0-.3-.1-.5-.2-.6-.2-.2-.6-.3-1.2-.3h-10.4c-.2 0-.3.1-.3.3l-.1 1.7c0 .1.1.3.2.3l2.3.2c1.5.3 2.1.7 2 1.7-.1 1.5-6.8 18.1-6.8 18.1-3.6 9-9.7 24.5-9.8 28.2-.1 1.6.3 2.9 1.1 3.8.7.8 1.8 1.1 3.1 1.1 4.2 0 8.4-5.3 11.2-8.8l.8-.8zM26.2 146.6c0 4.9 3.9 7.5 7.6 9.5l1.6.8c3.8 1.9 5.3 3.8 5.3 6.7 0 3.3-2.1 5.7-5.2 5.7-4.9 0-7.7-5.1-8.9-8.2v-.1l-1.7.6v.1c.5 3.1 1.1 6.5 1.5 7.8l.8.3 2.2.8c1.5.5 3.3.9 5.1.9 6.9 0 11.6-4.2 11.6-10.3 0-5.7-4.4-8.3-7.6-9.8l-1.3-.6c-4.2-1.9-5.9-3.8-5.9-6.4 0-2.6 1.6-5.2 5.1-5.2 4.1 0 5.7 3.2 6.7 6.4v.1l1.8-.3v-.1c-.4-2.5-.8-4.7-1-6.8v-.1l-1.2-.4-1-.3c-1.3-.5-3-.7-4.6-.7-6.4-.1-10.9 3.9-10.9 9.6m23.7 8.1c0 8.3 5.8 16.7 18.7 16.7 3.3 0 7.7-1 9.5-1.5.9-2 2.1-6.3 2.6-8.5v-.1l-1.6-.3v.1c-2.6 5.3-5.1 8.2-10.6 8.2-7.1 0-11.9-6.4-11.9-15.8 0-6.6 3.1-14.3 11.9-14.3 5.2 0 8 2.2 9.4 7.4v.1l1.6-.2-.2-2.3-.7-5.9h-.1l-.9-.2c-1.7-.4-4.6-1.1-8.2-1.1-11.4-.1-19.5 7.2-19.5 17.7m68.6-17.1h-14.4v1.6h.1c3.7.3 4.2.5 4.2 6.1v6.7H93.1v-6.7c0-5.5.5-5.8 4.1-6.1h.1v-1.6H82.7v1.6h.1c4.3.3 4.6.7 4.6 6.1V163c0 5.3-.3 5.8-4.4 6.1h-.1v1.6h14.6v-1.6h-.1c-3.8-.3-4.3-.6-4.3-6.1v-8.5h15.2v8.5c0 5.4-.3 5.8-4.6 6.1h-.1v1.6h14.8v-1.6h-.1c-3.8-.3-4.3-.5-4.3-6.1v-17.7c0-5.4.3-5.8 4.3-6.1h.1l.1-1.6zm50.7 0h-11.7v1.6l1.8.1c1 .1 1.5.3 1.8.7.2.2.2.5.2 1s-.1 1.3-.4 2.3c-.1.5-2.9 11.4-5.1 18.8-.4-1-8.8-23.9-8.8-23.9v-.1h-2s-7.5 23.6-7.6 24c-.3-1.1-5.9-19.6-5.9-19.6-.2-.7-.3-1.3-.3-1.7 0-.3.1-.6.2-.7.3-.4.8-.6 1.7-.7l1.6-.1v-1.6h-13.8v1.6h.1c2.7.3 3.5.6 4.9 4.9l8.3 27h2.4s7.8-23.3 7.8-23.6c.4 1 8.6 23.5 8.6 23.5v.1h2.4v-.1c4.7-15.6 8.5-26.6 8.5-26.7 1.7-4.6 2.1-4.8 5.2-5.1h.1v-1.7zm8.6 8c0 .1-3.8 10.7-3.9 10.9h7.8c-.1-.2-3.8-10.8-3.9-10.9zm12.8 18.4c1.7 4.6 2.5 4.8 5.3 5.1h.1v1.6h-13.5v-1.6l1.5-.2c.9-.1 1.4-.3 1.6-.6.1-.1.1-.3.1-.5 0-.4-.1-.8-.3-1.5-.5-1.5-1.7-4.5-2.7-7.2h-9.3c-.6 1.3-1.3 3.6-2 5.6l-.3.8c-.3.9-.4 1.5-.4 2 0 .3.1.5.2.7.3.4.8.6 1.9.7l1.5.2v1.6h-11.4v-1.6h.1c3.1-.4 3.6-.6 5.4-5.1l10.3-26.5 2.1-.2h.1l3.4 9.2 6.3 17.5zm17.5-12h1.9c4.5 0 7-2.2 7-6.2 0-5.6-4.8-6.1-6.3-6.1-1.6 0-2.2.2-2.3.2-.4.2-.4 1.1-.4 2.2v9.9zm4.3-14.4c3.8 0 5.9.4 7.8 1.7 1.9 1.3 2.9 3.2 2.9 5.8 0 4.6-4.5 6.8-7 7.3 5.6.8 8.9 3.9 8.9 8.5 0 3.3-1.5 5.8-4.6 7.7-2.2 1.3-5.7 2-9.7 2H198V169h.1c3.8-.3 4.3-.6 4.3-6.1v-17.7c0-5.5-.4-5.8-4-6.1h-.1v-1.6h14.1zm-4.3 16.4v8.9c0 2.5.2 4.1 1 4.9.5.5 1.3.7 2.8.7 3.2 0 6.7-1.8 6.7-7 0-4.8-3.2-7.5-8.8-7.5h-1.7z"/></svg>