<svg viewBox="0 0 90 90" xmlns="http://www.w3.org/2000/svg"><defs><linearGradient x1="50%" y1="23.373%" x2="50%" y2="85.937%" id="a"><stop stop-color="#02729D" offset="0%"/><stop stop-color="#00333F" offset="100%"/></linearGradient><linearGradient x1="63.263%" y1="134.632%" x2="51.527%" y2="36.554%" id="b"><stop stop-color="#FFE5BE" offset="0%"/><stop stop-color="#FEBE1D" offset="58%"/><stop stop-color="#FCAE1E" offset="69%"/><stop stop-color="#F58420" offset="92%"/><stop stop-color="#F37321" offset="100%"/></linearGradient></defs><g fill="none"><path d="M46.126 61.143c-13.37 0-22.008-10.053-22.008-25.606.006-1.882.137-3.762.392-5.626C9.072 27.993 0 22.686 0 15.412c0-4.811 3.898-9.02 11.91-12.899L17.094 0l.207 5.767c.278 7.462 5.656 11.056 10.286 12.777C32.346 7.41 41.096.644 51.042.644c10.545 0 15.264 5.889 15.264 11.726 0 7.621-7.984 15.956-23.278 17.848-1.225 3.027-1.936 6.148-1.936 8.642 0 4.753 2.143 4.753 3.424 4.753 1.799 0 6.192-3.657 6.848-7.725l.507-3.168h3.209c6.214 0 10.234 3.797 10.234 9.679-.004 7.64-7.477 18.744-19.188 18.744Z" fill="url(#a)" transform="translate(6 15)"/><path d="M44.516 47.374c4.038 0 9.675-5.364 10.564-10.894 4.2 0 6.47 2.221 6.47 5.923 0 5.807-6.026 14.986-15.428 14.986-12.717 0-18.247-10.286-18.247-21.838a41.255 41.255 0 0 1 1.051-8.957c-14.435-1.162-25.17-5.53-25.17-11.17.008-2.936 2.94-6.208 9.798-9.524.33 9.29 7.185 15.101 16.308 17.252 3.372-10.23 10.894-18.747 21.18-18.747 7.632 0 11.503 3.65 11.503 7.961 0 5.922-7.243 13.162-22.063 14.32-1.88 3.872-3.154 8.35-3.154 12.167 0 4.815 1.991 8.52 7.188 8.52ZM42.03 23.98c7.402-.551 9.993-2.876 9.993-4.534 0-.94-.884-1.714-2.157-1.714-2.691 0-5.567 2.598-7.836 6.248Z" fill="url(#b)" transform="translate(6 15)"/><path d="M36.41 41.587a1.377 1.377 0 0 1 1.233 1.676 39.89 39.89 0 0 0-1.018 8.654c0 5.6 1.436 11.419 4.915 15.427-4.497-3.949-6.292-10.5-6.292-16.793a39.882 39.882 0 0 1 1.018-8.653c.023-.102.034-.207.033-.311Zm25.769 11.33c1.68.196 2.832.877 3.453 2.024a5.415 5.415 0 0 0-2.08-.648c-1.506 5.552-7.047 10.834-11.659 10.834-2.902 0-5.137-1.036-6.596-2.95 1.362 1.03 3.117 1.573 5.223 1.573 4.626 0 10.153-5.281 11.659-10.833Zm-5.134-32.135c4.33 0 7.577 1.288 9.12 3.442-1.773-1.325-4.441-2.066-7.747-2.066-10.323 0-17.026 9.198-19.872 17.793a1.377 1.377 0 0 1-1.625.91c-.359-.085-.703-.188-1.051-.281a1.362 1.362 0 0 0-.837-.37l-.618-.056c-4.293-1.395-7.799-3.586-10.312-6.41 2.898 2.657 6.77 4.637 11.449 5.748a1.377 1.377 0 0 0 1.625-.91c2.842-8.606 9.545-17.8 19.868-17.8Zm2.073 12.41a2.99 2.99 0 0 1 1.673 2.617c-.001.124-.01.247-.026.37a24.799 24.799 0 0 1-3.779 1.85c1.714-1.08 2.428-2.38 2.428-3.582 0-.436-.101-.865-.296-1.255ZM18.366 23.047c.1.65.235 1.293.404 1.928-4.053 2.35-6.248 4.723-6.248 6.81a3.83 3.83 0 0 0 .877 2.329c-1.458-1.162-2.258-2.414-2.258-3.702 0-2.25 2.547-4.834 7.225-7.365Z" fill-opacity=".4" fill="#FFF"/></g></svg>