<svg xmlns="http://www.w3.org/2000/svg" width="258" height="77" fill="none"><path fill="#000" d="M25.06 24.681c4.645 0 8.548 2.627 9.824 6.542h14.09c-1.551-11.281-11.467-19.378-23.915-19.378C10.793 11.845.062 22.305.062 36.14c0 13.834 10.731 24.295 24.997 24.295 12.464 0 22.375-8.097 23.915-19.379h-14.09c-1.276 3.903-5.19 6.542-9.825 6.542-6.542 0-11.364-4.912-11.364-11.458s4.822-11.46 11.365-11.46ZM80.604 11.86c-5.733 0-10.453 2.085-14.09 6V.3H53.247v59.059h13.269V34.157c0-5.737 3.903-9.464 9.632-9.464 5.368 0 8.914 3.64 8.914 9.271v25.379H98.33v-29.84c0-10.65-7.095-17.647-17.725-17.647v.004Zm56.664 32.82c-1.732 2.463-5.368 4.371-9.735 4.371-5.556 0-9.734-3.361-11.187-8.643h35.455c.278-1.088.365-2.906.365-4.092 0-14.097-10.732-24.471-24.998-24.471-14.266 0-24.998 10.46-24.998 24.295l.012-.012c0 13.834 10.72 24.295 25.088 24.295 9.157 0 16.913-4.072 21.424-10.496l-11.426-5.243v-.003Zm-10.104-21.45c5.278 0 9.369 3.27 10.822 8.364h-21.554c1.465-5.093 5.454-8.364 10.732-8.364Z"/><path fill="#000" d="m182.343 12.945-8.914 13.732-8.914-13.732h-16.1l15.908 23.105h.023L148.16 59.332h15.908l9.267-14.376 2.273 3.27c4.913 8.011 10.556 11.106 18.916 11.106h3.283V46.51h-1.83c-3.9 0-6.908-1.54-9.177-4.724l-4.457-5.824 14.073-20.36-1.079-2.658h-12.994Z"/><path fill="#000" d="m231.887 12.945-10.629 29.474-10.732-29.474h-15.189l1.08 2.658 17.556 43.19.012.013-7.362 17.823h14.179l25.909-63.684h-14.824Z"/><path fill="#DB5AB6" d="m257.062 47.26-8.781-5.654-8.78 5.655v12.075h17.561V47.26Z"/></svg>