<?xml version="1.0" encoding="UTF-8" standalone="no"?>
<!-- Created with Inkscape (http://www.inkscape.org/) -->

<svg
   xmlns:dc="http://purl.org/dc/elements/1.1/"
   xmlns:cc="http://creativecommons.org/ns#"
   xmlns:rdf="http://www.w3.org/1999/02/22-rdf-syntax-ns#"
   xmlns:svg="http://www.w3.org/2000/svg"
   xmlns="http://www.w3.org/2000/svg"
   xmlns:sodipodi="http://sodipodi.sourceforge.net/DTD/sodipodi-0.dtd"
   xmlns:inkscape="http://www.inkscape.org/namespaces/inkscape"
   width="56.241558mm"
   height="50.017269mm"
   viewBox="0 0 56.241558 50.017269"
   version="1.1"
   id="svg8"
   inkscape:version="0.92.3 (2405546, 2018-03-11)"
   sodipodi:docname="Chucklefish.svg">
  <defs
     id="defs2" />
  <sodipodi:namedview
     id="base"
     pagecolor="#ffffff"
     bordercolor="#666666"
     borderopacity="1.0"
     inkscape:pageopacity="0.0"
     inkscape:pageshadow="2"
     inkscape:zoom="1.4182101"
     inkscape:cx="133.72718"
     inkscape:cy="117.84181"
     inkscape:document-units="mm"
     inkscape:current-layer="layer1"
     showgrid="false"
     fit-margin-top="0"
     fit-margin-left="0"
     fit-margin-right="0"
     fit-margin-bottom="0"
     inkscape:window-width="821"
     inkscape:window-height="755"
     inkscape:window-x="647"
     inkscape:window-y="72"
     inkscape:window-maximized="0" />
  <metadata
     id="metadata5">
    <rdf:RDF>
      <cc:Work
         rdf:about="">
        <dc:format>image/svg+xml</dc:format>
        <dc:type
           rdf:resource="http://purl.org/dc/dcmitype/StillImage" />
        <dc:title></dc:title>
      </cc:Work>
    </rdf:RDF>
  </metadata>
  <g
     inkscape:label="Layer 1"
     inkscape:groupmode="layer"
     id="layer1"
     transform="translate(-54.091483,-152.38242)">
    <g
       id="g21"
       transform="translate(-6.9027736,1.1193685)">
      <path
         style="fill:#fb901d;stroke-width:0.08242472"
         d="m 84.597047,201.23059 c 0.0595,-0.0238 0.130592,-0.0209 0.157981,0.006 0.02739,0.0274 -0.02129,0.0469 -0.108182,0.0433 -0.09602,-0.004 -0.115551,-0.0235 -0.0498,-0.0498 z m 2.555167,0 c 0.0595,-0.0238 0.130592,-0.0209 0.157981,0.006 0.02739,0.0274 -0.02129,0.0469 -0.108183,0.0433 -0.09602,-0.004 -0.115551,-0.0235 -0.0498,-0.0498 z m -3.363959,-1.39136 c -3.120093,-0.39775 -5.354823,-1.07645 -8.162205,-2.47891 -2.690619,-1.34412 -5.645255,-3.54749 -7.162643,-5.34142 -0.781628,-0.92408 -0.944331,-1.26629 -0.942793,-1.98298 0.0015,-0.68862 0.169393,-1.12152 1.032118,-2.66088 1.003907,-1.79127 1.363012,-2.95792 1.284021,-4.17151 -0.05744,-0.88246 -0.300031,-1.50398 -0.800976,-2.0521 -0.487797,-0.53372 -1.053931,-0.85248 -1.791778,-1.00883 -1.151996,-0.2441 -2.041859,-0.0914 -3.354258,0.57575 -0.49479,0.2515 -0.908124,0.44793 -0.918522,0.43649 -0.0543,-0.0597 -0.378825,-2.56036 -0.457317,-3.52384 -0.205298,-2.52003 0.176441,-5.60861 1.039121,-8.40732 1.956555,-6.34746 6.673742,-11.75546 12.644077,-14.49575 2.209768,-1.01425 3.985048,-1.54526 6.424122,-1.92154 1.736978,-0.26797 4.916739,-0.26771 6.771913,5.4e-4 3.921614,0.56706 7.165524,1.81958 10.179453,3.93043 3.067132,2.14812 5.782722,5.32516 7.590512,8.88037 0.29625,0.5826 0.58847,1.19645 0.64938,1.36412 0.0609,0.16766 0.17227,0.4485 0.24746,0.62409 l 0.13672,0.31924 0.31068,-0.53164 c 0.88593,-1.51606 2.28648,-3.10987 3.48307,-3.96369 0.62484,-0.44586 1.86259,-1.05115 2.19535,-1.07358 0.19435,-0.0131 0.25164,0.0437 0.44217,0.43828 0.63901,1.32341 0.96436,4.44393 0.72572,6.96051 -0.34929,3.68338 -1.90809,6.79233 -3.55733,7.09493 l -0.30483,0.0559 0.40437,0.2183 c 0.92722,0.50055 2.09861,1.81588 2.85828,3.20951 1.00332,1.84061 1.37324,4.10311 1.05804,6.47122 -0.21349,1.60404 -0.88646,3.68431 -1.19187,3.68431 -0.2476,0 -1.01326,-0.29796 -1.54647,-0.60181 -1.76672,-1.00676 -3.09937,-2.47856 -4.29667,-4.74532 l -0.40703,-0.77059 -0.14286,0.44187 c -0.30882,0.95518 -1.49493,3.12305 -2.49663,4.56311 -1.71985,2.47251 -4.31094,5.04248 -6.667739,6.6134 -2.269666,1.51284 -4.77096,2.61943 -7.313515,3.23554 -2.71024,0.65674 -5.772252,0.89281 -7.961141,0.61377 z m 0.117749,-14.01286 c 0.07124,-0.0712 0.129525,-0.15571 0.129525,-0.18772 0,-0.17136 -0.332463,-0.46052 -1.185128,-1.03076 -1.126459,-0.75335 -2.527712,-2.06119 -2.936108,-2.74038 -0.2811,-0.46749 -0.288486,-0.50201 -0.288486,-1.34844 0,-0.75812 0.02511,-0.91587 0.197348,-1.23958 0.482586,-0.907 1.104619,-1.39122 2.121195,-1.65121 1.05561,-0.26998 2.144202,-0.2075 4.412618,0.25328 0.836183,0.16985 1.057974,0.15327 1.057974,-0.0791 0,-0.47495 -1.497263,-1.16951 -3.13926,-1.45626 -0.892429,-0.15585 -2.478381,-0.11909 -3.16623,0.0734 -0.690517,0.19322 -1.413826,0.61051 -1.921668,1.10866 -0.650988,0.63856 -1.168202,1.66645 -1.230778,2.44601 -0.04357,0.54285 -0.04924,0.55369 -0.498005,0.95367 -1.129559,1.00676 -2.741209,1.5177 -5.109752,1.61995 -0.853149,0.0368 -1.250071,0.0835 -1.230167,0.14453 0.05872,0.18015 0.922245,0.71171 1.548554,0.95324 1.61053,0.62109 3.511497,0.42654 5.375328,-0.55011 l 0.621251,-0.32553 0.515452,0.52729 c 0.626047,0.64043 1.257105,1.0982 2.430218,1.76287 0.792606,0.44909 1.801222,0.88415 2.069451,0.89266 0.05343,0.002 0.15543,-0.0552 0.226668,-0.12644 z M 64.713,177.14525 c 0.55163,-0.50416 0.991925,-0.71829 1.710242,-0.83173 0.968459,-0.15296 1.844717,0.0913 2.521662,0.70286 0.542204,0.48985 0.589881,0.40978 0.339325,-0.56989 -0.46243,-1.80808 -1.836552,-2.55396 -3.352589,-1.81978 -0.75324,0.36477 -1.368896,1.20588 -1.637517,2.23719 -0.132866,0.51011 -0.1514,0.68467 -0.07269,0.68467 0.02764,0 0.248849,-0.18149 0.491567,-0.40332 z m 12.408779,-2.50215 c 1.042067,-2.04934 3.054027,-3.26993 5.398249,-3.27495 0.632661,-0.001 1.298538,0.0841 1.618532,0.20775 0.119137,0.046 0.144243,0.009 0.144243,-0.21096 0,-0.22482 -0.106744,-0.37209 -0.680004,-0.93816 -0.770741,-0.76106 -1.340937,-1.08631 -2.146262,-1.22426 -1.439313,-0.24654 -3.264051,0.66047 -4.087287,2.03165 -0.510691,0.85061 -0.688686,1.47086 -0.700335,2.44044 -0.01061,0.88283 0.05404,1.3188 0.195559,1.3188 0.04355,0 0.159336,-0.15764 0.257305,-0.35031 z m 24.923551,20.70921 c 0.082,-0.0907 0.16773,-0.16485 0.1904,-0.16485 0.0227,0 -0.0259,0.0742 -0.10798,0.16485 -0.0821,0.0907 -0.16773,0.16485 -0.1904,0.16485 -0.0227,0 0.0259,-0.0742 0.10798,-0.16485 z m -32.774339,-0.63879 c -0.102526,-0.13073 -0.09961,-0.13364 0.03112,-0.0311 0.137299,0.10768 0.180962,0.17537 0.113123,0.17537 -0.01712,0 -0.08203,-0.0649 -0.144243,-0.14425 z m 33.392519,0.11312 c 0,-0.0171 0.0649,-0.082 0.14425,-0.14424 0.13073,-0.10252 0.13364,-0.0996 0.0311,0.0311 -0.10768,0.1373 -0.17537,0.18096 -0.17537,0.11312 z m -34.538767,-1.18464 -0.45052,-0.47394 0.473942,0.45052 c 0.260668,0.24778 0.473942,0.46106 0.473942,0.47394 0,0.0612 -0.07882,-0.0102 -0.497364,-0.45052 z m 36.352117,-0.63879 c 0.10647,-0.11333 0.21213,-0.20606 0.2348,-0.20606 0.0227,0 -0.0459,0.0927 -0.15238,0.20606 -0.10647,0.11333 -0.21213,0.20606 -0.23479,0.20606 -0.0227,0 0.0459,-0.0927 0.15237,-0.20606 z m 0.61818,-0.70061 c 0.0821,-0.0907 0.16774,-0.16485 0.1904,-0.16485 0.0227,0 -0.0259,0.0742 -0.10797,0.16485 -0.082,0.0907 -0.16773,0.16485 -0.1904,0.16485 -0.0227,0 0.0259,-0.0742 0.10797,-0.16485 z m 0.94789,-1.18507 c 0,-0.0171 0.0649,-0.082 0.14424,-0.14424 0.13073,-0.10253 0.13365,-0.0996 0.0311,0.0311 -0.10768,0.1373 -0.17536,0.18096 -0.17536,0.11312 z m -40.599088,-0.78794 c -0.548932,-0.1314 -1.094406,-0.48308 -1.74543,-1.12531 -0.790501,-0.77983 -1.123204,-1.39284 -1.302836,-2.40048 -0.145233,-0.81469 -0.145866,-1.12237 -0.0042,-2.06547 0.208263,-1.38691 0.9723,-2.58071 1.954707,-3.05422 0.530215,-0.25556 1.51634,-0.44931 1.968177,-0.3867 1.535133,0.2127 2.210668,1.04842 2.127165,2.63155 -0.04172,0.79101 -0.194679,1.16448 -1.105187,2.69848 -0.810791,1.366 -1.070502,2.00139 -1.191063,2.91393 -0.116907,0.88489 -0.148607,0.92052 -0.701288,0.78822 z m 49.490438,-12.10101 c -0.10252,-0.13073 -0.0996,-0.13365 0.0311,-0.0311 0.0793,0.0622 0.14425,0.12713 0.14425,0.14424 0,0.0678 -0.0677,0.0242 -0.17537,-0.11312 z m -53.792036,-1.05092 c 9.15e-4,-0.18133 0.01779,-0.24581 0.03751,-0.14328 0.01971,0.10253 0.01897,0.25089 -0.0017,0.3297 -0.02063,0.0788 -0.03676,-0.005 -0.03585,-0.18642 z m 0.0017,-1.93698 c 0,-0.204 0.01607,-0.28745 0.03572,-0.18545 0.01965,0.102 0.01965,0.26891 0,0.37091 -0.01965,0.102 -0.03572,0.0185 -0.03572,-0.18546 z m 0.06648,-1.20202 c 0.004,-0.096 0.02349,-0.11556 0.0498,-0.0498 0.02381,0.0595 0.02088,0.13059 -0.0065,0.15798 -0.02739,0.0274 -0.04687,-0.0213 -0.04329,-0.10818 z m 55.395916,-3.82589 c 0,-0.11333 0.0187,-0.15969 0.0416,-0.10303 0.0229,0.0567 0.0229,0.1494 0,0.20607 -0.0229,0.0567 -0.0416,0.0103 -0.0416,-0.10304 z m 0.0759,-0.7899 c 0.004,-0.096 0.0235,-0.11555 0.0498,-0.0498 0.0238,0.0595 0.0209,0.13059 -0.007,0.15798 -0.0274,0.0274 -0.0469,-0.0213 -0.0433,-0.10818 z m 0.007,-3.00163 c 0,-0.11334 0.0187,-0.1597 0.0416,-0.10303 0.0229,0.0567 0.0229,0.14939 0,0.20606 -0.0229,0.0567 -0.0416,0.0103 -0.0416,-0.10303 z m -0.0889,-0.78991 c 0.004,-0.096 0.0235,-0.11555 0.0498,-0.0498 0.0238,0.0595 0.0209,0.13059 -0.007,0.15798 -0.0274,0.0274 -0.0469,-0.0213 -0.0433,-0.10819 z m -7.34231,-1.5491 c 0,-0.0171 0.0649,-0.082 0.14425,-0.14425 0.13073,-0.10252 0.13364,-0.0996 0.0311,0.0311 -0.10768,0.1373 -0.17537,0.18096 -0.17537,0.11313 z m -42.860846,-3.21457 c 0,-0.0171 0.06491,-0.082 0.144243,-0.14424 0.13073,-0.10253 0.133646,-0.0996 0.03112,0.0311 -0.107677,0.1373 -0.175363,0.18096 -0.175363,0.11312 z m 38.893946,-0.52524 c -0.10252,-0.13074 -0.0996,-0.13365 0.0311,-0.0311 0.0793,0.0622 0.14424,0.12713 0.14424,0.14425 0,0.0678 -0.0677,0.0242 -0.17536,-0.11312 z m -0.36823,-0.45334 -0.15702,-0.18546 0.18546,0.15702 c 0.102,0.0864 0.18546,0.16982 0.18546,0.18546 0,0.066 -0.0663,0.0173 -0.2139,-0.15702 z m -37.042071,-0.76243 c 0.106472,-0.11333 0.212131,-0.20606 0.234797,-0.20606 0.02267,0 -0.0459,0.0927 -0.152372,0.20606 -0.106472,0.11333 -0.212131,0.20606 -0.234798,0.20606 -0.02267,0 0.0459,-0.0927 0.152373,-0.20606 z m 1.277583,-1.27758 c 0.08205,-0.0907 0.167733,-0.16485 0.190399,-0.16485 0.02267,0 -0.02592,0.0742 -0.107974,0.16485 -0.08205,0.0907 -0.167733,0.16485 -0.1904,0.16485 -0.02267,0 0.02592,-0.0742 0.107975,-0.16485 z m 33.334558,-0.47394 -0.19983,-0.22667 0.22667,0.19982 c 0.12467,0.1099 0.22667,0.2119 0.22667,0.22667 0,0.0646 -0.0667,0.012 -0.25351,-0.19982 z m -0.58125,-0.49455 c -0.10253,-0.13073 -0.0996,-0.13365 0.0311,-0.0311 0.1373,0.10767 0.18096,0.17536 0.11312,0.17536 -0.0171,0 -0.082,-0.0649 -0.14424,-0.14424 z"
         id="path25"
         inkscape:connector-curvature="0" />
      <path
         style="fill:#040301;stroke-width:0.08242472"
         d="m 84.159166,201.1986 c -5.886373,-0.56034 -11.727262,-3.32539 -15.90797,-7.53076 -0.63467,-0.63842 -1.283765,-1.37058 -1.442432,-1.62703 -0.255412,-0.41281 -0.312112,-0.46019 -0.494549,-0.41331 -0.979611,0.25176 -2.388811,-0.32224 -3.502685,-1.42673 -1.088319,-1.07915 -1.58172,-2.09144 -1.774144,-3.63994 -0.163651,-1.31696 0.150584,-3.07014 0.736304,-4.10798 0.208055,-0.36865 0.22064,-0.43125 0.117835,-0.58608 -0.145501,-0.21914 -0.398559,-1.51684 -0.572275,-2.93468 -0.163105,-1.33123 -0.182071,-3.86081 -0.0388,-5.17505 0.479503,-4.39859 2.059774,-8.56876 4.575859,-12.07522 2.714628,-3.78316 6.430432,-6.76689 10.596147,-8.50853 5.598459,-2.34065 11.811063,-2.53476 17.844951,-0.55756 5.64177,1.84872 10.557583,6.03857 13.609103,11.59933 0.26704,0.48662 0.50888,0.88535 0.53744,0.88607 0.0285,7.4e-4 0.20964,-0.20759 0.40241,-0.46292 1.53771,-2.03668 4.56412,-3.89895 5.79681,-3.56702 0.70581,0.19006 1.04736,0.61923 1.40429,1.76457 0.84694,2.71772 0.92774,6.48022 0.20268,9.43763 -0.44427,1.81207 -0.98595,3.07711 -1.79206,4.18518 l -0.43628,0.59971 0.23483,0.29681 c 1.65017,2.0857 2.19741,3.11465 2.62983,4.94474 0.45237,1.91452 0.46487,3.65697 0.0407,5.67547 -0.40286,1.91713 -0.86242,3.07473 -1.40035,3.52737 -0.30458,0.25628 -0.89016,0.3472 -1.44767,0.22477 -0.66087,-0.14514 -1.99362,-0.84227 -2.89153,-1.5125 -0.90325,-0.67421 -1.36897,-1.14652 -2.14639,-2.17677 -0.37422,-0.49591 -0.52876,-0.64489 -0.59758,-0.57606 -0.0511,0.0511 -0.0928,0.11943 -0.0928,0.15195 0,0.1089 -0.75462,1.34106 -1.38208,2.25669 -3.23809,4.72523 -7.641552,8.20006 -12.588908,9.93409 -3.219995,1.1286 -7.243048,1.67721 -10.220665,1.39376 z m 3.880782,-1.35257 c 4.434661,-0.49548 7.689231,-1.63401 11.022963,-3.85611 2.356799,-1.57092 4.947889,-4.14089 6.667739,-6.6134 1.0017,-1.44006 2.18781,-3.60793 2.49663,-4.56311 l 0.14286,-0.44187 0.40703,0.77059 c 1.39424,2.6396 3.28117,4.50447 5.25325,5.19181 0.68392,0.23837 0.70334,0.22962 0.98187,-0.44226 1.29438,-3.12237 1.19244,-6.8968 -0.25815,-9.55795 -0.75967,-1.39363 -1.93106,-2.70896 -2.85828,-3.20951 l -0.40437,-0.2183 0.30483,-0.0559 c 1.64924,-0.3026 3.20804,-3.41154 3.55733,-7.09492 0.23864,-2.51659 -0.0867,-5.63711 -0.72572,-6.96052 -0.19053,-0.3946 -0.24782,-0.45139 -0.44217,-0.43828 -0.33276,0.0224 -1.57051,0.62772 -2.19535,1.07358 -1.19659,0.85382 -2.59714,2.44763 -3.48307,3.96369 l -0.31068,0.53164 -0.13672,-0.31924 c -0.0752,-0.17558 -0.18655,-0.45642 -0.24746,-0.62409 -0.19087,-0.52539 -1.1657,-2.38752 -1.69801,-3.24352 -1.24831,-2.00744 -3.24229,-4.33565 -4.96527,-5.79754 -3.241894,-2.75065 -7.186002,-4.47303 -11.756065,-5.13385 -1.855174,-0.26826 -5.034935,-0.26852 -6.771913,-5.5e-4 -6.988161,1.07807 -12.776194,4.90735 -16.570935,10.96308 -2.548844,4.0675 -3.902133,9.37198 -3.536385,13.86153 0.07849,0.96348 0.40302,3.46412 0.457317,3.52384 0.0104,0.0114 0.423732,-0.18499 0.918522,-0.43649 1.312399,-0.66711 2.202262,-0.81985 3.354258,-0.57575 2.360407,0.50017 3.231848,2.80758 2.120122,5.61369 -0.127129,0.32088 -0.492254,1.04932 -0.811389,1.61875 -0.862725,1.53936 -1.030641,1.97226 -1.032118,2.66088 -0.0015,0.71669 0.161165,1.0589 0.942793,1.98298 1.517388,1.79393 4.472024,3.9973 7.162643,5.34142 1.844397,0.92139 3.220763,1.44829 4.865216,1.86251 2.727771,0.6871 5.17128,0.88882 7.548682,0.6232 z m -4.999095,-14.08906 c -0.618039,-0.22007 -2.075617,-1.02606 -2.833164,-1.56663 -0.281913,-0.20117 -0.744523,-0.60305 -1.028022,-0.89306 l -0.515452,-0.52729 -0.621251,0.32553 c -1.863831,0.97665 -3.764798,1.1712 -5.375328,0.55011 -0.626309,-0.24153 -1.48983,-0.77309 -1.548554,-0.95324 -0.0199,-0.0611 0.377018,-0.1077 1.230167,-0.14453 2.368543,-0.10225 3.980193,-0.61319 5.109752,-1.61995 0.44877,-0.39998 0.454431,-0.41082 0.498005,-0.95367 0.06258,-0.77956 0.57979,-1.80745 1.230778,-2.44601 0.507842,-0.49815 1.231151,-0.91544 1.921668,-1.10866 0.687849,-0.19247 2.273801,-0.22923 3.16623,-0.0734 1.641997,0.28675 3.13926,0.98131 3.13926,1.45626 0,0.23238 -0.221791,0.24896 -1.057974,0.0791 -2.268416,-0.46078 -3.357008,-0.52326 -4.412618,-0.25328 -1.016576,0.25999 -1.638609,0.74421 -2.121195,1.65121 -0.172234,0.32371 -0.197348,0.48146 -0.197348,1.23958 0,0.84643 0.0074,0.88095 0.288486,1.34844 0.408396,0.67919 1.809649,1.98703 2.936108,2.74038 0.852665,0.57024 1.185128,0.8594 1.185128,1.03076 0,0.0956 -0.25159,0.31748 -0.356193,0.31416 -0.05343,-0.002 -0.340746,-0.0898 -0.638483,-0.19584 z m -18.86968,-8.31471 c 0,-0.24343 0.260612,-1.07943 0.457805,-1.46858 0.736863,-1.45412 2.380326,-2.06084 3.526281,-1.30179 0.510373,0.33805 0.930436,0.99834 1.12897,1.7746 0.250556,0.97967 0.202879,1.05974 -0.339325,0.56989 -0.676945,-0.61158 -1.553203,-0.85582 -2.521662,-0.70286 -0.718317,0.11344 -1.158612,0.32757 -1.710242,0.83173 -0.466865,0.42669 -0.541827,0.46778 -0.541827,0.29701 z m 12.550733,-2.67552 c -0.03486,-0.12467 -0.05871,-0.61612 -0.05299,-1.09213 0.01165,-0.96958 0.189644,-1.58983 0.700335,-2.44044 0.823236,-1.37118 2.647974,-2.27819 4.087287,-2.03165 0.805325,0.13795 1.375521,0.4632 2.146262,1.22426 0.57326,0.56607 0.680004,0.71334 0.680004,0.93816 0,0.22027 -0.02511,0.25699 -0.144243,0.21096 -0.319994,-0.12363 -0.985871,-0.2091 -1.618532,-0.20775 -2.344222,0.005 -4.356182,1.22561 -5.398249,3.27495 -0.207073,0.40724 -0.311532,0.43953 -0.399873,0.12364 z m -10.767904,15.57701 c 0.05122,-0.0333 0.137225,-0.39438 0.191128,-0.80238 0.120561,-0.91254 0.380272,-1.54793 1.191063,-2.91393 0.910508,-1.534 1.063465,-1.90747 1.105187,-2.69848 0.0835,-1.58313 -0.592032,-2.41885 -2.127165,-2.63155 -0.451837,-0.0626 -1.437962,0.13114 -1.968177,0.3867 -0.982407,0.47351 -1.746444,1.66731 -1.954707,3.05422 -0.141621,0.9431 -0.140988,1.25078 0.0042,2.06547 0.179632,1.00764 0.512335,1.62065 1.302836,2.40048 0.651024,0.64223 1.196498,0.99391 1.74543,1.12531 0.344485,0.0825 0.402646,0.0841 0.51016,0.0142 z"
         id="path23"
         inkscape:connector-curvature="0" />
    </g>
  </g>
</svg>
