<svg xmlns="http://www.w3.org/2000/svg" viewBox="0 0 56.242 50.017"><path d="M84.597 201.23c.06-.023.13-.02.158.007.027.027-.021.046-.108.043-.096-.004-.116-.024-.05-.05zm2.555 0c.06-.023.13-.02.158.007.028.027-.021.046-.108.043-.096-.004-.116-.024-.05-.05zm-3.364-1.39c-3.12-.399-5.355-1.077-8.162-2.48-2.69-1.344-5.645-3.547-7.163-5.341-.781-.924-.944-1.266-.942-1.983.001-.689.169-1.122 1.032-2.661 1.004-1.791 1.363-2.958 1.284-4.171-.058-.883-.3-1.504-.801-2.053-.488-.533-1.054-.852-1.792-1.008-1.152-.244-2.042-.092-3.354.575-.495.252-.908.448-.919.437-.054-.06-.379-2.56-.457-3.524-.205-2.52.176-5.609 1.039-8.407 1.957-6.348 6.674-11.756 12.644-14.496 2.21-1.014 3.985-1.545 6.424-1.922 1.737-.268 4.917-.267 6.772 0 3.922.568 7.166 1.82 10.18 3.931 3.067 2.148 5.782 5.326 7.59 8.88.296.583.589 1.197.65 1.365.06.168.172.448.247.624l.137.32.31-.532c.886-1.517 2.287-3.11 3.483-3.964.625-.446 1.863-1.051 2.196-1.074.194-.013.251.044.442.439.639 1.323.964 4.443.726 6.96-.35 3.683-1.908 6.792-3.558 7.095l-.305.056.405.218c.927.5 2.098 1.816 2.858 3.21 1.003 1.84 1.373 4.103 1.058 6.47-.213 1.605-.886 3.685-1.192 3.685-.247 0-1.013-.298-1.546-.602-1.767-1.006-3.1-2.478-4.297-4.745l-.407-.77-.143.441c-.309.956-1.495 3.123-2.496 4.563-1.72 2.473-4.311 5.043-6.668 6.614-2.27 1.513-4.771 2.62-7.314 3.235-2.71.657-5.772.893-7.96.614zm.118-14.014c.071-.07.13-.155.13-.187 0-.172-.333-.46-1.186-1.031-1.126-.753-2.527-2.061-2.936-2.74-.28-.468-.288-.502-.288-1.349 0-.758.025-.916.197-1.24.483-.907 1.105-1.39 2.121-1.65 1.056-.27 2.145-.208 4.413.253.836.17 1.058.153 1.058-.08 0-.474-1.497-1.169-3.14-1.456-.892-.156-2.478-.119-3.166.074-.69.193-1.413.61-1.921 1.108-.651.639-1.168 1.667-1.231 2.446-.044.543-.05.554-.498.954-1.13 1.007-2.741 1.518-5.11 1.62-.853.037-1.25.083-1.23.144.059.18.922.712 1.549.954 1.61.62 3.511.426 5.375-.55l.621-.326.516.527c.626.64 1.257 1.099 2.43 1.763.792.45 1.801.884 2.07.893.053.002.155-.055.226-.127zm-19.193-8.68c.552-.505.992-.719 1.71-.832.969-.153 1.845.09 2.522.702.542.49.59.41.34-.57-.463-1.808-1.837-2.553-3.353-1.82-.754.365-1.37 1.207-1.638 2.238-.133.51-.151.685-.073.685.028 0 .25-.182.492-.404zm12.409-2.503c1.042-2.05 3.054-3.27 5.398-3.275.633 0 1.299.084 1.619.208.119.046.144.009.144-.211 0-.225-.107-.372-.68-.938-.77-.761-1.341-1.087-2.146-1.224-1.44-.247-3.265.66-4.088 2.031-.51.85-.688 1.471-.7 2.44-.01.883.054 1.32.195 1.32.044 0 .16-.158.258-.35zm24.923 20.71c.082-.091.168-.166.19-.166.023 0-.025.075-.107.165-.082.091-.168.165-.19.165-.023 0 .025-.074.107-.165zm-32.774-.64c-.103-.13-.1-.133.031-.03.137.107.181.175.113.175-.017 0-.082-.065-.144-.144zm33.393.114c0-.017.064-.082.144-.145.13-.102.133-.1.03.032-.107.137-.175.18-.175.113zm-34.54-1.185-.45-.474.474.45c.26.248.474.462.474.475 0 .06-.079-.01-.497-.451zm36.353-.639c.106-.113.212-.206.235-.206.022 0-.046.093-.153.206-.106.114-.212.206-.235.206-.022 0 .046-.092.153-.206zm.618-.7c.082-.091.168-.165.19-.165.023 0-.025.074-.108.165-.082.09-.167.164-.19.164-.023 0 .026-.074.108-.164zm.948-1.185c0-.018.065-.082.144-.145.13-.102.134-.1.031.031-.107.138-.175.181-.175.114zm-40.6-.788c-.548-.132-1.094-.483-1.745-1.126-.79-.78-1.123-1.393-1.302-2.4-.146-.815-.146-1.123-.005-2.066.209-1.387.973-2.58 1.955-3.054.53-.255 1.516-.45 1.968-.387 1.535.213 2.21 1.049 2.127 2.632-.041.791-.194 1.164-1.105 2.698-.81 1.366-1.07 2.002-1.19 2.914-.118.885-.15.92-.702.789zm49.491-12.101c-.102-.131-.1-.134.031-.032.08.063.145.128.145.145 0 .068-.068.024-.176-.113zm-53.792-1.051c.001-.182.018-.246.038-.144a.9.9 0 0 1-.002.33c-.02.079-.037-.005-.036-.186zm.002-1.937c0-.204.016-.288.036-.186.02.102.02.27 0 .371-.02.102-.036.019-.036-.185zm.066-1.202c.004-.096.024-.116.05-.05.024.06.021.13-.006.158-.028.027-.047-.021-.044-.108zm55.396-3.826c0-.114.019-.16.042-.103a.318.318 0 0 1 0 .206c-.023.057-.042.01-.042-.103zm.076-.79c.004-.096.024-.116.05-.05.024.06.02.13-.007.158-.027.027-.047-.021-.043-.108zm.007-3.002c0-.113.019-.16.042-.103a.318.318 0 0 1 0 .206c-.023.057-.042.01-.042-.103zm-.089-.79c.004-.096.024-.115.05-.05.024.06.021.131-.007.159-.027.027-.047-.022-.043-.109zm-7.342-1.549c0-.017.065-.082.144-.144.131-.103.134-.1.031.031-.107.137-.175.181-.175.113zm-42.86-3.214c0-.017.064-.082.143-.145.131-.102.134-.1.032.032-.108.137-.176.18-.176.113zm38.893-.526c-.102-.13-.1-.133.031-.03.08.062.144.126.144.144 0 .067-.067.024-.175-.114zm-.368-.453-.157-.185.185.157c.102.086.186.17.186.185 0 .066-.066.017-.214-.157zm-37.042-.762c.106-.114.212-.206.235-.206.022 0-.046.092-.153.206-.106.113-.212.206-.235.206-.022 0 .046-.093.153-.206zm1.277-1.278c.082-.09.168-.165.19-.165.023 0-.025.074-.107.165-.082.09-.168.165-.19.165-.023 0 .025-.074.107-.165zm33.335-.474-.2-.227.227.2c.124.11.226.212.226.227 0 .065-.066.012-.253-.2zm-.581-.494c-.103-.131-.1-.134.03-.032.138.108.182.176.114.176-.017 0-.082-.065-.144-.144z" style="fill:#fb901d;stroke-width:.08242472" transform="translate(-60.994 -151.263)"/><path d="M84.16 201.199c-5.887-.56-11.728-3.326-15.909-7.531-.634-.639-1.284-1.37-1.442-1.627-.256-.413-.312-.46-.495-.413-.98.251-2.389-.323-3.502-1.427-1.089-1.08-1.582-2.092-1.775-3.64-.163-1.317.151-3.07.737-4.108.208-.369.22-.431.118-.586-.146-.22-.399-1.517-.573-2.935-.163-1.331-.182-3.86-.039-5.175.48-4.399 2.06-8.569 4.576-12.075 2.715-3.783 6.43-6.767 10.596-8.509 5.599-2.34 11.812-2.534 17.845-.557 5.642 1.848 10.558 6.038 13.61 11.6.267.486.508.884.537.885.028 0 .21-.207.402-.463 1.538-2.036 4.564-3.899 5.797-3.567.706.19 1.048.62 1.404 1.765.847 2.717.928 6.48.203 9.437-.444 1.812-.986 3.078-1.792 4.186l-.436.6.235.296c1.65 2.086 2.197 3.115 2.63 4.945.452 1.914.464 3.657.04 5.675-.403 1.917-.862 3.075-1.4 3.528-.305.256-.89.347-1.448.224-.66-.145-1.993-.842-2.891-1.512-.904-.674-1.37-1.147-2.147-2.177-.374-.496-.529-.645-.597-.576-.051.051-.093.12-.093.152 0 .109-.755 1.341-1.382 2.257-3.238 4.725-7.642 8.2-12.59 9.934-3.22 1.128-7.242 1.677-10.22 1.394zm3.88-1.353c4.435-.495 7.69-1.634 11.023-3.856 2.357-1.571 4.948-4.141 6.668-6.613 1.001-1.44 2.187-3.608 2.496-4.564l.143-.441.407.77c1.394 2.64 3.281 4.505 5.253 5.192.684.238.704.23.982-.442 1.295-3.123 1.193-6.897-.258-9.558-.76-1.394-1.93-2.71-2.858-3.21l-.405-.218.305-.056c1.65-.303 3.208-3.412 3.558-7.095.238-2.516-.087-5.637-.726-6.96-.19-.395-.248-.452-.442-.439-.333.023-1.57.628-2.196 1.074-1.196.854-2.597 2.448-3.483 3.964l-.31.531-.137-.319a14.49 14.49 0 0 1-.248-.624c-.19-.526-1.165-2.388-1.698-3.244-1.248-2.007-3.242-4.335-4.965-5.797-3.242-2.75-7.186-4.473-11.756-5.134-1.855-.268-5.035-.269-6.772 0-6.988 1.077-12.776 4.907-16.57 10.963-2.55 4.067-3.903 9.371-3.537 13.861.078.964.403 3.464.457 3.524.01.011.424-.185.919-.437 1.312-.667 2.202-.82 3.354-.575 2.36.5 3.232 2.807 2.12 5.613-.127.321-.492 1.05-.811 1.62-.863 1.538-1.03 1.971-1.032 2.66-.002.717.16 1.059.942 1.983 1.518 1.794 4.472 3.997 7.163 5.341 1.844.922 3.22 1.449 4.865 1.863 2.728.687 5.172.889 7.549.623zm-5-14.089c-.617-.22-2.075-1.026-2.832-1.567a9.364 9.364 0 0 1-1.028-.893l-.516-.527-.621.326c-1.864.976-3.765 1.17-5.375.55-.627-.242-1.49-.773-1.549-.954-.02-.06.377-.107 1.23-.144 2.369-.102 3.98-.613 5.11-1.62.449-.4.454-.41.498-.954.063-.78.58-1.807 1.23-2.446a4.683 4.683 0 0 1 1.922-1.108c.688-.193 2.274-.23 3.167-.074 1.642.287 3.139.981 3.139 1.456 0 .233-.222.25-1.058.08-2.268-.461-3.357-.524-4.413-.254-1.016.26-1.638.744-2.12 1.651-.173.324-.198.482-.198 1.24 0 .846.007.881.288 1.348.409.68 1.81 1.988 2.936 2.74.853.571 1.186.86 1.186 1.032 0 .095-.252.317-.357.314-.053-.002-.34-.09-.638-.196zm-18.869-8.315c0-.243.26-1.08.458-1.468.737-1.454 2.38-2.061 3.526-1.302.51.338.93.998 1.13 1.774.25.98.202 1.06-.34.57-.677-.611-1.553-.855-2.522-.702-.718.113-1.158.327-1.71.831-.467.427-.542.468-.542.297zm12.55-2.675c-.034-.125-.058-.616-.052-1.092.012-.97.19-1.59.7-2.44.823-1.372 2.648-2.279 4.088-2.032.805.137 1.375.463 2.146 1.224.573.566.68.713.68.938 0 .22-.025.257-.144.21-.32-.123-.986-.208-1.619-.207-2.344.005-4.356 1.226-5.398 3.275-.207.407-.312.44-.4.124zm-10.767 15.577c.051-.034.137-.395.191-.803.12-.912.38-1.548 1.191-2.914.91-1.534 1.064-1.907 1.105-2.698.084-1.583-.592-2.419-2.127-2.632-.452-.062-1.438.132-1.968.387-.982.474-1.746 1.667-1.955 3.054-.141.943-.14 1.251.005 2.066.18 1.007.512 1.62 1.302 2.4.651.643 1.197.994 1.746 1.126.344.082.402.084.51.014z" style="fill:#040301;stroke-width:.08242472" transform="translate(-60.994 -151.263)"/></svg>