<svg xmlns="http://www.w3.org/2000/svg" version="1.0" viewBox="1 0 385.87 107"><path d="M1 53.5V107h107V0H1v53.5zM37 28c5.8 1.7 6.1 2.1 4.8 6.3-.9 2.8-1.6 3.6-2.7 3.1-.9-.3-3.3-1-5.5-1.5-5.1-1.3-10.4 1.3-12.8 6.1-2.3 4.6-2.4 15.9-.2 20.6 2.8 5.8 9.7 7.9 17.3 5.3 3.7-1.3 3.7-1.4 4.5 2.8.7 2.8.4 3.3-2.3 4.7-3.7 2-14 2.1-18.4.2C9.5 70.5 6 46.9 15.5 34.3c4.8-6.2 13.2-8.7 21.5-6.3zm18.8 24.2L56 76h-9V52.7c0-12.9.3-23.7.7-24.1.4-.4 2.3-.6 4.3-.4l3.5.3.3 23.7zM71 37.5V47h17V28h8v48h-8V55H71v21h-8V28h8v9.5z"/></svg>