<?xml version="1.0" encoding="UTF-8" standalone="no"?><!DOCTYPE svg PUBLIC "-//W3C//DTD SVG 1.1//EN" "http://www.w3.org/Graphics/SVG/1.1/DTD/svg11.dtd"><svg width="100%" height="100%" viewBox="0 0 438 438" version="1.1" xmlns="http://www.w3.org/2000/svg" xmlns:xlink="http://www.w3.org/1999/xlink" xml:space="preserve" xmlns:serif="http://www.serif.com/" style="fill-rule:evenodd;clip-rule:evenodd;stroke-linejoin:round;stroke-miterlimit:2;"><rect id="Artboard1" x="0" y="0" width="437.5" height="437.5" style="fill:none;"/><g id="layer101"><path d="M80.861,420.364c-4.353,-1.171 -8.1,-4.433 -10.133,-8.799l-1.102,-2.397l0.27,-99.121c0.291,-94.079 0.36,-100.573 1.396,-103.303c0.216,-0.469 -1.105,-1.372 -5.198,-3.524c-25.794,-13.562 -44.713,-37.051 -52.206,-64.809c-2.864,-10.522 -3.359,-14.797 -3.306,-28.127c0.096,-13.244 0.362,-15.721 3.139,-26.22c4.859,-18.438 14.538,-34.891 28.434,-48.251c15.784,-15.189 35.348,-24.767 57.621,-28.224c6.712,-1.041 23.289,-0.974 30.121,0.164c17.719,2.848 33.842,9.706 47.898,20.401c5.197,3.951 12.219,10.687 16.429,15.746c1.786,2.143 3.359,3.944 3.53,4.03c0.17,0.043 1.457,-1.276 2.831,-2.98c1.374,-1.703 4.464,-5.023 6.823,-7.364c16,-15.872 36.506,-26.044 59.249,-29.328c6.883,-0.998 22.306,-0.936 29.095,0.117c24.21,3.771 45.357,14.964 61.863,32.804c14.591,15.824 23.698,35.557 26.684,57.999c0.705,5.216 0.645,20.34 -0.103,25.635c-3.387,24.211 -13.551,44.465 -30.708,61.272c-8.322,8.17 -17.577,14.713 -27.465,19.501c-1.841,0.89 -2.398,1.358 -2.187,1.871c1.355,3.125 1.433,5.048 1.331,30.426c-0.056,14.056 -0.017,25.549 0.111,25.55c0.128,0 18.029,-10.353 39.741,-22.998c21.712,-12.602 40.555,-23.464 41.839,-24.057c1.969,-0.932 2.952,-1.099 6.199,-1.086c3.29,0.013 4.229,0.188 6.276,1.178c3.241,1.509 6.433,4.598 7.874,7.594l1.186,2.398l-0.204,83.099c-0.171,63.745 -0.335,83.526 -0.726,84.977c-1.733,6.188 -8.375,11.117 -14.998,11.091c-4.742,-0.019 -4.742,-0.019 -46.94,-25.012l-40.62,-24.046l-0.32,26.574c-0.309,23.754 -0.407,26.83 -1.054,28.451c-1.899,4.649 -5.458,7.967 -10.164,9.444c-2.695,0.843 -3.763,0.839 -116.64,0.344c-88.824,-0.356 -114.33,-0.586 -115.866,-1.02Zm140.434,-223.059c-0.256,-0.215 -1.661,-1.331 -3.195,-2.448c-6.858,-5.197 -12.604,-10.732 -18.726,-18.148c-1.021,-1.243 -2,-2.187 -2.128,-2.145c-0.171,0.085 -1.759,1.873 -3.562,4.002c-4.25,5.067 -10.769,11.151 -16.426,15.444l-4.585,3.442l24.524,0.098c13.458,0.054 24.31,-0.073 24.098,-0.245Zm-94.961,-25.46c25.4,-5.495 44.191,-24.646 49.163,-50.005c1.571,-8.239 1.017,-19.307 -1.512,-27.991c-5.519,-19.291 -20.708,-35.245 -39.61,-41.602c-7.594,-2.551 -10.669,-3.033 -19.726,-3.069c-8.673,-0.035 -11.751,0.38 -18.767,2.573c-19.293,5.99 -35.166,22.119 -40.926,41.621c-2.598,8.663 -3.241,19.726 -1.736,27.978c2.552,13.511 8.999,25.415 18.788,34.683c9.024,8.495 19.726,13.836 32.534,16.194c4.355,0.787 17.43,0.583 21.792,-0.382Zm167.009,0.498c5.987,-1.343 8.683,-2.315 14.804,-5.324c17.081,-8.391 28.977,-23.639 33.369,-42.847c0.87,-3.756 1.006,-5.636 1.033,-12.344c0.026,-6.707 -0.094,-8.588 -0.934,-12.351c-5.454,-24.845 -23.837,-43.29 -48.596,-48.773c-5.165,-1.174 -18.751,-1.228 -23.925,-0.096c-25.999,5.536 -45.305,25.454 -49.553,51.114c-0.831,4.91 -0.869,14.31 -0.077,19.226c4.125,26.164 24.251,46.796 50.422,51.686c6.233,1.178 17.642,1.01 23.457,-0.291Z" style="fill:#fff;fill-rule:nonzero;"/></g></svg>