<svg xmlns="http://www.w3.org/2000/svg" xml:space="preserve" style="fill-rule:evenodd;clip-rule:evenodd;stroke-linejoin:round;stroke-miterlimit:2" viewBox="0 0 438 438"><path d="M0 0h437.5v437.5H0z" style="fill:none"/><path d="M80.861 420.364c-4.353-1.171-8.1-4.433-10.133-8.799l-1.102-2.397.27-99.121c.291-94.079.36-100.573 1.396-103.303.216-.469-1.105-1.372-5.198-3.524-25.794-13.562-44.713-37.051-52.206-64.809-2.864-10.522-3.359-14.797-3.306-28.127.096-13.244.362-15.721 3.139-26.22 4.859-18.438 14.538-34.891 28.434-48.251C57.939 20.624 77.503 11.046 99.776 7.589c6.712-1.041 23.289-.974 30.121.164 17.719 2.848 33.842 9.706 47.898 20.401 5.197 3.951 12.219 10.687 16.429 15.746 1.786 2.143 3.359 3.944 3.53 4.03.17.043 1.457-1.276 2.831-2.98 1.374-1.703 4.464-5.023 6.823-7.364 16-15.872 36.506-26.044 59.249-29.328 6.883-.998 22.306-.936 29.095.117 24.21 3.771 45.357 14.964 61.863 32.804 14.591 15.824 23.698 35.557 26.684 57.999.705 5.216.645 20.34-.103 25.635-3.387 24.211-13.551 44.465-30.708 61.272-8.322 8.17-17.577 14.713-27.465 19.501-1.841.89-2.398 1.358-2.187 1.871 1.355 3.125 1.433 5.048 1.331 30.426-.056 14.056-.017 25.549.111 25.55.128 0 18.029-10.353 39.741-22.998 21.712-12.602 40.555-23.464 41.839-24.057 1.969-.932 2.952-1.099 6.199-1.086 3.29.013 4.229.188 6.276 1.178 3.241 1.509 6.433 4.598 7.874 7.594l1.186 2.398-.204 83.099c-.171 63.745-.335 83.526-.726 84.977-1.733 6.188-8.375 11.117-14.998 11.091-4.742-.019-4.742-.019-46.94-25.012l-40.62-24.046-.32 26.574c-.309 23.754-.407 26.83-1.054 28.451-1.899 4.649-5.458 7.967-10.164 9.444-2.695.843-3.763.839-116.64.344-88.824-.356-114.33-.586-115.866-1.02Zm140.434-223.059a80.662 80.662 0 0 0-3.195-2.448c-6.858-5.197-12.604-10.732-18.726-18.148-1.021-1.243-2-2.187-2.128-2.145-.171.085-1.759 1.873-3.562 4.002-4.25 5.067-10.769 11.151-16.426 15.444l-4.585 3.442 24.524.098c13.458.054 24.31-.073 24.098-.245Zm-94.961-25.46c25.4-5.495 44.191-24.646 49.163-50.005 1.571-8.239 1.017-19.307-1.512-27.991-5.519-19.291-20.708-35.245-39.61-41.602-7.594-2.551-10.669-3.033-19.726-3.069-8.673-.035-11.751.38-18.767 2.573-19.293 5.99-35.166 22.119-40.926 41.621-2.598 8.663-3.241 19.726-1.736 27.978 2.552 13.511 8.999 25.415 18.788 34.683 9.024 8.495 19.726 13.836 32.534 16.194 4.355.787 17.43.583 21.792-.382Zm167.009.498c5.987-1.343 8.683-2.315 14.804-5.324 17.081-8.391 28.977-23.639 33.369-42.847.87-3.756 1.006-5.636 1.033-12.344.026-6.707-.094-8.588-.934-12.351-5.454-24.845-23.837-43.29-48.596-48.773-5.165-1.174-18.751-1.228-23.925-.096-25.999 5.536-45.305 25.454-49.553 51.114-.831 4.91-.869 14.31-.077 19.226 4.125 26.164 24.251 46.796 50.422 51.686 6.233 1.178 17.642 1.01 23.457-.291Z" style="fill:#fff;fill-rule:nonzero"/></svg>