<svg width="204" height="37" viewBox="0 0 204 37" fill="none" xmlns="http://www.w3.org/2000/svg">
<path fill-rule="evenodd" clip-rule="evenodd" d="M168.099 8.02255C164.318 8.02255 162.705 9.89258 162.705 14.2728V23.1352C162.705 27.5154 164.318 29.3848 168.099 29.3848C171.88 29.3848 173.493 27.5154 173.493 23.1352V14.2728C173.493 9.89258 171.88 8.02255 168.099 8.02255ZM168.099 34.3184C161.373 34.3184 157.513 30.3921 157.513 23.5496V13.859C157.513 7.01517 161.373 3.08957 168.099 3.08957C174.826 3.08957 178.683 7.01517 178.683 13.859V23.5496C178.683 30.3921 174.826 34.3184 168.099 34.3184Z" fill="#0074BC"/>
<path fill-rule="evenodd" clip-rule="evenodd" d="M193.565 34.3184C186.839 34.3184 182.98 30.3921 182.98 23.5496V13.859C182.98 7.01517 186.839 3.08957 193.565 3.08957C198.093 3.08957 201.249 5.09094 202.947 9.03758C203.112 9.42013 202.947 9.86134 202.572 10.0488L199.664 11.498C199.547 11.5567 199.422 11.5841 199.299 11.5841C199.024 11.5841 198.755 11.4432 198.607 11.1945C197.32 9.04587 196.238 8.02255 193.565 8.02255C189.785 8.02255 188.172 9.89258 188.172 14.2728V23.1352C188.172 27.5154 189.785 29.3848 193.565 29.3848C195.747 29.3848 197.527 28.2467 198.581 26.1784C198.678 25.9871 198.849 25.843 199.057 25.7786L199.299 25.7416C199.43 25.7416 199.562 25.7735 199.679 25.836L202.588 27.3674C202.959 27.5632 203.113 28.0082 202.941 28.3857C201.142 32.3221 197.988 34.3184 193.565 34.3184Z" fill="#0074BC"/>
<path fill-rule="evenodd" clip-rule="evenodd" d="M10.5852 34.3184C3.85839 34.3184 0 30.3921 0 23.5496V13.859C0 7.01517 3.85839 3.08957 10.5852 3.08957C15.1129 3.08957 18.2689 5.09094 19.9677 9.03758C20.1319 9.42013 19.967 9.86134 19.5918 10.0488L16.6838 11.498C16.5669 11.5567 16.4423 11.5841 16.3196 11.5841C16.0437 11.5841 15.7756 11.4432 15.6276 11.1945C14.3398 9.04587 13.2583 8.02255 10.5852 8.02255C6.8041 8.02255 5.19168 9.89258 5.19168 14.2728V23.1352C5.19168 27.5154 6.8041 29.3848 10.5852 29.3848C12.7669 29.3848 14.5475 28.2467 15.601 26.1784C15.6977 25.9871 15.8691 25.843 16.0768 25.7786L16.3196 25.7416C16.4507 25.7416 16.5812 25.7735 16.6993 25.836L19.6074 27.3674C19.9787 27.5632 20.1332 28.0082 19.9612 28.3857C18.1618 32.3221 15.0071 34.3184 10.5852 34.3184Z" fill="#0074BC"/>
<path fill-rule="evenodd" clip-rule="evenodd" d="M140.958 28.8942C145.741 28.8942 147.969 25.4955 147.969 18.1988C147.969 11.2806 145.676 7.91828 140.958 7.91828H136.911V28.8942H140.958ZM132.568 33.7082C132.127 33.7082 131.772 33.3546 131.772 32.9179V3.89456C131.772 3.45727 132.127 3.10425 132.568 3.10425H141.543C149.055 3.10425 153.193 8.50942 153.193 18.3226C153.193 27.5249 148.897 33.7082 142.503 33.7082H132.568Z" fill="#0074BC"/>
<path fill-rule="evenodd" clip-rule="evenodd" d="M24.1825 33.7082C23.732 33.7082 23.3683 33.3546 23.3683 32.9179V3.89456C23.3683 3.45727 23.732 3.10425 24.1825 3.10425H27.8128C28.2627 3.10425 28.627 3.45727 28.627 3.89456V28.8942H39.4313C39.8811 28.8942 40.2455 29.2472 40.2455 29.6845V32.9179C40.2455 33.3546 39.8811 33.7082 39.4313 33.7082H24.1825Z" fill="#0074BC"/>
<path fill-rule="evenodd" clip-rule="evenodd" d="M44.9445 33.7082C44.4996 33.7082 44.1404 33.3546 44.1404 32.9179V3.89456C44.1404 3.45727 44.4996 3.10425 44.9445 3.10425H48.5294C48.9736 3.10425 49.3334 3.45727 49.3334 3.89456V32.9179C49.3334 33.3546 48.9736 33.7082 48.5294 33.7082H44.9445Z" fill="#0074BC"/>
<path fill-rule="evenodd" clip-rule="evenodd" d="M65.16 34.3458C58.4023 34.3458 54.5262 30.418 54.5262 23.5726V13.8781C54.5262 7.03145 58.4023 3.10425 65.16 3.10425C69.7084 3.10425 72.8782 5.10644 74.5854 9.05469C74.7504 9.43739 74.5841 9.87878 74.2072 10.0663L71.2858 11.5161C71.1691 11.5748 71.0432 11.6022 70.9199 11.6022C70.6435 11.6022 70.3735 11.4613 70.2248 11.2125C68.9317 9.06298 67.8453 8.03924 65.16 8.03924C61.3615 8.03924 59.741 9.91003 59.741 14.292V23.158C59.741 27.54 61.3615 29.4102 65.16 29.4102C67.351 29.4102 69.1397 28.2716 70.1981 26.2025C70.2959 26.0111 70.4674 25.867 70.6761 25.8025L70.9199 25.7655C71.0517 25.7655 71.1834 25.7974 71.3021 25.8599L74.2235 27.392C74.5965 27.5879 74.751 28.0331 74.5782 28.4107C72.7713 32.3487 69.6021 34.3458 65.16 34.3458Z" fill="#0074BC"/>
<path fill-rule="evenodd" clip-rule="evenodd" d="M93.2304 34.6872C92.9422 34.6872 92.6772 34.5294 92.5367 34.2743L85.3862 21.2795H83.1452V33.8835C83.1452 34.3275 82.7903 34.6872 82.3513 34.6872H78.8088C78.3692 34.6872 78.0143 34.3275 78.0143 33.8835V4.37182C78.0143 3.92717 78.3692 3.56821 78.8088 3.56821H82.3513C82.7903 3.56821 83.1452 3.92717 83.1452 4.37182V16.3845H85.1096L92.4224 3.96028C92.5662 3.71751 92.8261 3.56821 93.1053 3.56821H97.0642C97.3524 3.56821 97.6174 3.72594 97.758 3.97975C97.8985 4.23486 97.8908 4.54514 97.74 4.79245L89.4036 18.4662L97.9608 33.4817C98.102 33.7303 98.102 34.0367 97.9608 34.2853C97.819 34.534 97.5565 34.6872 97.2728 34.6872H93.2304Z" fill="#0074BC"/>
<path fill-rule="evenodd" clip-rule="evenodd" d="M127.665 16.7415H123.468C122.714 16.7415 122.047 17.2394 121.827 17.9677L118.206 29.8668L107.845 1.73445C107.594 1.05352 106.952 0.603027 106.236 0.603027H106.213C105.489 0.612115 104.847 1.08208 104.611 1.77599L99.3946 17.1284H93.9037V20.559L93.9288 20.6025H100.62C101.353 20.6025 102.005 20.1319 102.244 19.4302L106.301 7.49282L116.753 35.8692C117.003 36.5514 117.646 37 118.362 37C118.378 37 118.395 37 118.412 36.9987C119.147 36.9773 119.787 36.4852 120.003 35.7738L124.736 20.2163H127.665V16.7415Z" fill="#F5BA37"/>
</svg>