<svg xmlns="http://www.w3.org/2000/svg" xml:space="preserve" id="Layer_1" x="0" y="0" style="enable-background:new 0 0 83.8 44.2" version="1.1" viewBox="0 0 83.8 44.2"><style>.st0{fill:#006298}</style><g id="clipper_logo" transform="translate(-94.453 -83.393)"><path id="Path_1" d="M136.8 106.2c-.9 1.9-2.7 3.1-4.8 3.1-3 0-5.4-2.3-5.4-5.3s2.3-5.4 5.3-5.4c2.1 0 4 1.2 4.9 3.1h-2.2c-.7-.9-1.7-1.4-2.8-1.4-1.9.1-3.4 1.7-3.4 3.6 0 1.9 1.5 3.5 3.4 3.6 1 0 2-.5 2.6-1.3h2.4z" class="st0"/><path id="Path_2" d="M138.3 98.8h1.9v8.5h3.1v1.8h-5V98.8z" class="st0"/><path id="Path_3" d="M144.8 98.8h1.9v10.3h-1.9V98.8z" class="st0"/><path id="Path_4" d="M148.2 98.8h2.6c1.1-.1 2.1.2 3 .8 1.3 1.3 1.3 3.5 0 4.8-.9.6-1.9.9-3 .8h-.7v3.9h-1.9V98.8zm1.9 4.6h.6c.8 0 2.2-.1 2.2-1.4s-1.3-1.4-2.1-1.4h-.7v2.8z" class="st0"/><path id="Path_5" d="M156.3 98.8h2.6c1.1-.1 2.1.2 3 .8 1.3 1.3 1.3 3.5 0 4.8-.9.6-1.9.9-3 .8h-.7v3.9h-1.9V98.8zm1.9 4.6h.6c.8 0 2.2-.1 2.2-1.4s-1.3-1.4-2.1-1.4h-.7v2.8z" class="st0"/><path id="Path_6" d="M164.3 98.8h5.5v1.8h-3.6v2.5h3.5v1.8h-3.5v2.4h3.6v1.8h-5.5V98.8z" class="st0"/><path id="Path_7" d="M171.3 98.8h3.2c.9-.1 1.8.2 2.5.7.8.6 1.2 1.5 1.2 2.5 0 .9-.4 1.8-1 2.5-.5.4-1.1.7-1.7.8l2.8 3.8H176l-2.7-3.9v3.9h-1.9V98.8h-.1zm2 4.9h1.2c1.6 0 1.8-1 1.8-1.6s-.3-1.6-1.8-1.6h-1.2v3.2z" class="st0"/><path id="Path_8" d="M99.6 86.6c-.1-.2.1-.4.1-.4.2-.3 1.5-1.8 1.8-2.2.1-.1.2-.2.3-.2.2 0 .3.1.3.2.1.1 1.8 2.2 1.8 2.2s.2.2.1.4-.4.2-.4.2H100s-.3 0-.4-.2z" class="st0"/><path id="Path_9" d="M98.5 91.6c-.1-.2.1-.5.2-.6.4-.4 2.3-2.8 2.7-3.3.2-.2.3-.3.5-.3s.4.1.5.3c.1.1 2.7 3.3 2.7 3.3s.3.3.2.6c-.1.2-.4.3-.6.3h-5.5c-.1 0-.6 0-.7-.3z" class="st0"/><path id="Path_10" d="M97.2 98.3c-.2-.3.2-.7.2-.8.5-.6 3.2-3.8 3.8-4.5.1-.3.4-.4.7-.4.4 0 .5.3.6.4.1.1 3.8 4.5 3.8 4.5s.4.5.2.8c-.2.4-.8.4-.8.4H98s-.6 0-.8-.4z" class="st0"/><path id="Path_11" d="M94.5 100.3c-.2.5.3 1.1.4 1.3.8 1 5 6 5.9 7.1.2.4.6.6 1 .6s.8-.2 1-.6c.2-.2 5.9-7.1 5.9-7.1s.6-.7.4-1.3c-.3-.7-1.3-.7-1.3-.7h-12s-1 0-1.3.7z" class="st0"/><path id="Path_12" d="M110 88.2c-.1-.3 0-.5.2-.7.4-.5 2.7-3.2 3.1-3.8.1-.2.4-.3.6-.3.2 0 .4.1.5.3.1.1 3.1 3.8 3.1 3.8s.3.4.2.7c-.1.2-.4.4-.7.3h-6.4c.1.1-.4.1-.6-.3z" class="st0"/><path id="Path_13" d="M108.1 96.9c-.2-.4.2-.9.3-1 .6-.8 4-4.8 4.7-5.7.3-.3.4-.5.8-.5.3 0 .7.2.8.5.1.2 4.7 5.7 4.7 5.7s.5.6.3 1c-.2.3-.6.5-1 .5h-9.6s-.8.1-1-.5z" class="st0"/><path id="Path_14" d="M105.8 108.5c-.3-.6.3-1.3.4-1.4.9-1.1 5.6-6.7 6.6-7.9.4-.5.6-.7 1.2-.7.5 0 .9.3 1.1.7.2.2 6.5 7.9 6.5 7.9s.7.8.4 1.4c-.3.4-.8.7-1.4.7h-13.3c-.6.1-1.2-.2-1.5-.7z" class="st0"/><path id="Path_15" d="M101.2 112c-.2.8 0 1.6.6 2.2 1.4 1.7 8.7 10.5 10.3 12.3.4.6 1.1 1 1.8 1s1.3-.4 1.7-1c.3-.3 10.3-12.3 10.3-12.3s1.1-1.3.6-2.2c-.6-1.2-2.3-1.1-2.3-1.1h-20.9c-.9-.1-1.7.3-2.1 1.1z" class="st0"/><path id="Path_16" d="M121.6 125.7c0 1-.8 1.8-1.8 1.8s-1.8-.8-1.8-1.8.8-1.8 1.8-1.8c.9-.1 1.8.6 1.8 1.6.1.1.1.2 0 .2zm-3.2 0c0 .8.6 1.4 1.4 1.4.8 0 1.4-.6 1.4-1.4s-.6-1.4-1.4-1.4c-.8 0-1.4.6-1.4 1.4zm1.4-1c.2 0 .8 0 .8.6 0 .2-.2.4-.4.4.2 0 .4.2.4.6v.4h-.4v-.4c0-.4 0-.4-.4-.4h-.4v.8h-.4v-2.1l.8.1zm-.4.9h.4c.2 0 .4 0 .4-.4 0-.2-.2-.2-.4-.2h-.4v.6z" class="st0"/></g></svg>