<?xml version="1.0" encoding="UTF-8"?>
<!-- Generator: visioncortex VTracer -->
<svg id="svg" version="1.1" xmlns="http://www.w3.org/2000/svg" style="display: block;" viewBox="0 0 400 400"><path d="M0 0 C132 0 264 0 400 0 C400 132 400 264 400 400 C268 400 136 400 0 400 C0 268 0 136 0 0 Z " transform="translate(0,0)" style="fill: #FEFEFE;"/><path d="M0 0 C3.08544439 2.2314466 4.46354023 5.53934722 6.13671875 8.875 C7.00200195 10.59976563 7.00200195 10.59976563 7.88476562 12.359375 C8.18036377 12.95685547 8.47596191 13.55433594 8.78051758 14.16992188 C9.68655812 15.9980995 10.6052552 17.8195083 11.52539062 19.640625 C12.09837891 20.79046875 12.67136719 21.9403125 13.26171875 23.125 C13.78725342 24.17945312 14.31278809 25.23390625 14.85424805 26.3203125 C16 29 16 29 16 32 C14.03149414 33.23925781 14.03149414 33.23925781 11.28515625 34.453125 C10.28806641 34.90816406 9.29097656 35.36320312 8.26367188 35.83203125 C6.16473296 36.76176258 4.06577528 37.69145158 1.96679688 38.62109375 C-4.79002727 41.70375984 -10.31269264 45.24400175 -16 50 C-16.86625 50.598125 -17.7325 51.19625 -18.625 51.8125 C-26.84716767 59.38554917 -34.18040474 72.04230183 -35.3359375 83.26171875 C-35.45414106 93.62817088 -33.74040701 102.80220769 -27 111 C-21.89560278 116.16504353 -16.81079223 120.38919631 -10 123 C-9.28328125 123.29777344 -8.5665625 123.59554687 -7.828125 123.90234375 C-1.23625688 126.1801071 5.28556721 126.2828339 12.1875 126.3125 C13.59539795 126.32071777 13.59539795 126.32071777 15.03173828 126.32910156 C29.24399241 126.18333485 41.79998247 120.19396247 54.41796875 114.13671875 C57 113 57 113 59 113 C60.3342254 115.33412765 61.5282984 117.64214025 62.6875 120.0625 C63.03619141 120.77535156 63.38488281 121.48820312 63.74414062 122.22265625 C67.25622468 129.43735333 70.64814599 136.70971752 74 144 C61.91975872 150.05245461 50.1111827 155.62620194 37 159 C35.82953125 159.31710937 34.6590625 159.63421875 33.453125 159.9609375 C10.33904093 165.46188764 -15.21676347 162.34393206 -35.75 150.25 C-41.7333104 146.37502498 -46.9524366 142.02150025 -52 137 C-52.69738281 136.33742187 -53.39476563 135.67484375 -54.11328125 134.9921875 C-66.12402354 122.72490508 -72.21658666 104.64708089 -72.5625 87.6875 C-72.29367339 63.41189727 -59.71956683 42.07678087 -42.85327148 25.36743164 C-32.67033933 15.72670139 -20.6057345 9.39360158 -7.83544922 3.84814453 C-6.06926467 3.03200658 -4.37638764 2.06263702 -2.69140625 1.08984375 C-1.80324219 0.73019531 -0.91507812 0.37054688 0 0 Z " transform="translate(151,99)" style="fill: #042E64;"/><path d="M0 0 C10.19186495 9.1709817 17.93212173 19.34581461 22.24414062 32.50146484 C22.54320312 33.40251953 22.84226562 34.30357422 23.15039062 35.23193359 C28.48334932 53.52694469 24.92076043 74.75724923 16.21630859 91.47558594 C10.80193445 101.21865764 4.36552082 109.86510403 -3.75585938 117.50146484 C-4.2337793 117.95295898 -4.71169922 118.40445313 -5.20410156 118.86962891 C-12.90982111 125.93532165 -21.66508803 130.88689078 -30.88085938 135.75146484 C-31.98445801 136.33726318 -33.08805664 136.92306152 -34.22509766 137.52661133 C-35.79106689 138.32627319 -35.79106689 138.32627319 -37.38867188 139.14208984 C-38.79463623 139.86187012 -38.79463623 139.86187012 -40.22900391 140.59619141 C-42.99014846 141.58540145 -44.10001181 141.68261521 -46.75585938 140.50146484 C-49.54295577 136.79183305 -51.59191773 132.60010765 -53.75585938 128.50146484 C-54.08618164 127.88319824 -54.41650391 127.26493164 -54.75683594 126.62792969 C-60.75585938 115.33102959 -60.75585938 115.33102959 -60.75585938 110.50146484 C-58.29316965 108.99207437 -55.99841216 107.80124677 -53.38085938 106.62646484 C-51.9004427 105.92205467 -50.42127076 105.21502253 -48.94335938 104.50537109 C-48.22148437 104.1626416 -47.49960938 103.81991211 -46.75585938 103.46679688 C-29.81709015 95.29102862 -19.21495844 83.0371181 -12.75585938 65.50146484 C-9.9044542 56.94724933 -11.20904586 45.72532666 -15.13085938 37.68115234 C-21.91485105 26.15464797 -30.91747935 21.11815243 -43.42382812 17.41552734 C-63.19985195 12.61678014 -83.53697831 18.7019323 -100.61132812 28.72412109 C-103.75585938 30.50146484 -103.75585938 30.50146484 -105.75585938 30.50146484 C-106.8215332 28.90014648 -106.8215332 28.90014648 -107.96289062 26.66162109 C-108.38505859 25.845 -108.80722656 25.02837891 -109.2421875 24.18701172 C-109.67982422 23.32140625 -110.11746094 22.45580078 -110.56835938 21.56396484 C-111.42797926 19.88764104 -112.28865409 18.21185779 -113.15039062 16.53662109 C-113.57400879 15.70275879 -113.99762695 14.86889648 -114.43408203 14.00976562 C-116.14353645 10.76578064 -118.02303557 7.63107564 -119.94213867 4.50708008 C-120.75585938 2.50146484 -120.75585938 2.50146484 -120.62792969 0.3918457 C-119.47906082 -2.09854949 -118.35403367 -2.64411505 -115.91601562 -3.86572266 C-115.10938477 -4.27371094 -114.30275391 -4.68169922 -113.47167969 -5.10205078 C-112.15828613 -5.73143555 -112.15828613 -5.73143555 -110.81835938 -6.37353516 C-109.91827148 -6.81117188 -109.01818359 -7.24880859 -108.09082031 -7.69970703 C-73.78356597 -23.99294533 -30.38686366 -25.9336164 0 0 Z " transform="translate(295.755859375,158.49853515625)" style="fill: #0663DD;"/></svg>