<?xml version="1.0" encoding="UTF-8"?>
<svg version="1.1" xmlns="http://www.w3.org/2000/svg" width="400" height="400">
<path d="M0 0 C132 0 264 0 400 0 C400 132 400 264 400 400 C268 400 136 400 0 400 C0 268 0 136 0 0 Z " fill="#FEFEFE" transform="translate(0,0)"/>
<path d="M0 0 C2.93731683 2.55179743 4.40288045 5.41841574 6.13671875 8.875 C7.00200195 10.59976563 7.00200195 10.59976563 7.88476562 12.359375 C8.18036377 12.95685547 8.47596191 13.55433594 8.78051758 14.16992188 C9.68655812 15.9980995 10.6052552 17.8195083 11.52539062 19.640625 C12.09837891 20.79046875 12.67136719 21.9403125 13.26171875 23.125 C13.78725342 24.17945312 14.31278809 25.23390625 14.85424805 26.3203125 C16 29 16 29 16 32 C14.82824219 32.49628906 13.65648437 32.99257812 12.44921875 33.50390625 C-8.04411531 42.30953338 -24.20300367 52.59168472 -33 74 C-36.50008037 84.62784821 -35.73796273 95.02567952 -31.00390625 105.125 C-25.68978697 114.53963346 -16.39783484 121.57498484 -6.04614258 124.56420898 C-0.23722152 126.00474967 5.34295354 126.35025077 11.3125 126.3125 C12.23603271 126.30758545 13.15956543 126.3026709 14.11108398 126.29760742 C29.07387591 126.04132772 41.47458639 120.20399916 54.8203125 113.91796875 C57 113 57 113 59 113 C63.95 122.9 68.9 132.8 74 143 C62.77547728 151.41839204 47.67245944 157.06409111 34 160 C32.99839844 160.22171875 31.99679688 160.4434375 30.96484375 160.671875 C6.81824504 165.18982267 -19.22115671 161.41365445 -39.90478516 147.80786133 C-56.19597047 136.40216067 -66.69017882 120.45813529 -71.375 101.125 C-74.85146977 78.91218788 -68.62433418 58.08579836 -55.8046875 39.8828125 C-53.63726905 37.1405232 -51.3770722 34.56204305 -49 32 C-48.18015625 31.08863281 -47.3603125 30.17726562 -46.515625 29.23828125 C-35.48661326 17.54035016 -22.42040197 10.29170854 -7.84716797 3.83642578 C-5.19249044 2.63434737 -2.59549466 1.3240667 0 0 Z " fill="#022C64" transform="translate(151,99)"/>
<path d="M0 0 C14.87092941 13.27904402 25.02753482 30.59051609 26.33105469 50.72265625 C26.98715491 73.2824102 18.63204292 94.55197426 3.99511719 111.52734375 C0.27448229 115.45717097 -3.68773049 119.04624334 -7.87988281 122.46484375 C-8.73066406 123.18220703 -8.73066406 123.18220703 -9.59863281 123.9140625 C-13.97195496 127.41463834 -18.70853093 130.20402748 -23.56738281 132.96484375 C-24.19 133.32046387 -24.81261719 133.67608398 -25.45410156 134.04248047 C-31.75465831 137.55002327 -38.31336274 140.49417043 -44.87988281 143.46484375 C-47.02681693 139.55620554 -49.16269056 135.64178987 -51.28857422 131.72167969 C-52.01310955 130.38931271 -52.74062736 129.05856306 -53.47119141 127.72949219 C-54.52158757 125.81734243 -55.56107384 123.89960762 -56.59863281 121.98046875 C-57.22705078 120.82836914 -57.85546875 119.67626953 -58.50292969 118.48925781 C-59.87988281 115.46484375 -59.87988281 115.46484375 -59.87988281 111.46484375 C-58.87570313 110.98015625 -57.87152344 110.49546875 -56.83691406 109.99609375 C-36.38020395 100.02046142 -20.78648972 89.81530546 -11.87988281 68.08984375 C-9.0671828 58.15287066 -9.85986173 47.31931458 -14.34082031 38.08203125 C-20.22243653 28.08029809 -28.77863253 22.41175988 -39.77441406 19.0078125 C-61.55946372 13.38977557 -80.6538425 19.88543504 -100.01733398 29.58862305 C-101.87988281 30.46484375 -101.87988281 30.46484375 -104.87988281 31.46484375 C-107.05007672 27.55887512 -109.20406917 23.64454308 -111.34350586 19.72167969 C-112.0734906 18.38853715 -112.80784233 17.05777614 -113.54663086 15.72949219 C-114.60811088 13.81925645 -115.65356798 11.90099386 -116.69628906 9.98046875 C-117.64677124 8.25231934 -117.64677124 8.25231934 -118.61645508 6.48925781 C-119.87988281 3.46484375 -119.87988281 3.46484375 -119.79370117 1.19189453 C-118.63611398 -0.99586175 -117.65159642 -1.5873215 -115.44238281 -2.68359375 C-114.72107178 -3.04630371 -113.99976074 -3.40901367 -113.2565918 -3.78271484 C-112.47227783 -4.15477051 -111.68796387 -4.52682617 -110.87988281 -4.91015625 C-110.07043213 -5.30154785 -109.26098145 -5.69293945 -108.42700195 -6.09619141 C-74.04573618 -22.36956728 -31.27341068 -25.53859823 0 0 Z " fill="#0161E0" transform="translate(294.8798828125,157.53515625)"/>
<path d="M0 0 C8.16253264 0.66906005 8.16253264 0.66906005 11 4 C12.75651144 4.99003372 14.51358058 5.97924761 16.28125 6.94921875 C18.53572212 8.32752102 20.24679688 10.03641251 22 12 C22.33 11.34 22.66 10.68 23 10 C24.875 10.3125 24.875 10.3125 27 11 C29.40050809 14.60076213 29.27350976 17.18840727 29.23046875 21.34375 C29.22978142 22.43024841 29.22978142 22.43024841 29.2290802 23.53869629 C29.22605889 25.0752933 29.21817618 26.61188728 29.20581055 28.1484375 C29.18778299 30.46365637 29.18529952 32.77846889 29.18554688 35.09375 C29.14408964 53.90557484 29.14408964 53.90557484 28 59 C25.51706892 61.22827148 24.31243235 62 21 62 C21.91230683 59.18705395 22.81376198 56.4158368 24.0234375 53.71484375 C28.30143406 43.65700077 28.8612116 32.77700622 24.9375 22.5 C19.58158327 11.45903199 11.34631045 5.3204812 0 1 C0 0.67 0 0.34 0 0 Z " fill="#1767CE" transform="translate(257,176)"/>
<path d="M0 0 C-3.63174292 1.32293188 -5.5556426 0.64912098 -9.0625 -0.8125 C-23.54463759 -6.29069079 -41.75635237 -7.14171992 -57 -4 C-58.34093256 -3.34875344 -59.67484026 -2.68276928 -61 -2 C-63.15556852 -1.58358335 -65.32473986 -1.23435316 -67.5 -0.9375 C-71.05971431 -0.44354882 -74.53370767 0.03997296 -78 1 C-78 1.99 -78 2.98 -78 4 C-83.0056546 5.31727753 -87.86496656 6.35812082 -93 7 C-68.65969782 -13.17118241 -27.28988999 -11.82250371 0 0 Z " fill="#276EC4" transform="translate(277,147)"/>
<path d="M0 0 C1.32 0 2.64 0 4 0 C4 0.66 4 1.32 4 2 C4.78503906 1.84015625 5.57007813 1.6803125 6.37890625 1.515625 C10.91898186 0.86914174 15.35740931 0.7770811 19.9375 0.75 C21.23977539 0.7190625 21.23977539 0.7190625 22.56835938 0.6875 C28.16956505 0.65363028 32.01433547 1.42237752 37 4 C33.60977896 5.13007368 31.45378006 4.70510575 28 4 C14.30109979 2.97473907 1.21918584 3.35716482 -11.25 9.63671875 C-14 11 -14 11 -16 11 C-16 10.01 -16 9.02 -16 8 C-14.68 8 -13.36 8 -12 8 C-12 7.34 -12 6.68 -12 6 C-10.7625 5.7525 -9.525 5.505 -8.25 5.25 C-4.40054414 4.31474488 -2.71241042 2.90615402 0 0 Z " fill="#2168C3" transform="translate(220,171)"/>
<path d="M0 0 C9.53317383 2.87397152 17.02082895 8.08163833 23 16 C20.525 15.505 20.525 15.505 18 15 C18.33 15.99 18.66 16.98 19 18 C18.34 18.66 17.68 19.32 17 20 C16.67 18.68 16.34 17.36 16 16 C15.34 16 14.68 16 14 16 C13.67 14.35 13.34 12.7 13 11 C12.01 11.495 12.01 11.495 11 12 C11 11.34 11 10.68 11 10 C10.4225 9.855625 9.845 9.71125 9.25 9.5625 C7.16666667 9.04166667 5.08333333 8.52083333 3 8 C3.33 6.68 3.66 5.36 4 4 C2.35 4 0.7 4 -1 4 C-0.67 2.68 -0.34 1.36 0 0 Z " fill="#0E63D3" transform="translate(277,148)"/>
<path d="M0 0 C6.29632177 -0.22127648 12.47605278 0.71940187 18.6953125 1.6015625 C19.59813965 1.72748779 20.5009668 1.85341309 21.43115234 1.9831543 C22.27371582 2.11246338 23.1162793 2.24177246 23.984375 2.375 C24.7470166 2.49020996 25.5096582 2.60541992 26.29541016 2.72412109 C26.88112793 2.88992676 27.4668457 3.05573242 28.0703125 3.2265625 C28.5653125 4.2165625 28.5653125 4.2165625 29.0703125 5.2265625 C27.34085597 5.08420793 25.61175596 4.93751868 23.8828125 4.7890625 C22.43841797 4.66724609 22.43841797 4.66724609 20.96484375 4.54296875 C18.0703125 4.2265625 18.0703125 4.2265625 15.78515625 3.703125 C11.797951 3.00321271 7.86129886 3.03597895 3.8203125 3.0390625 C2.94729492 3.03841797 2.07427734 3.03777344 1.17480469 3.03710938 C-7.28780543 3.10449172 -15.56362579 4.01283334 -23.9296875 5.2265625 C-20.68760722 1.48371905 -17.14093279 1.45509934 -12.4296875 1.0390625 C-11.61161621 0.96083252 -10.79354492 0.88260254 -9.95068359 0.80200195 C-6.63618663 0.50113146 -3.31815221 0.25660377 0 0 Z " fill="#DCF4FD" transform="translate(234.9296875,136.7734375)"/>
<path d="M0 0 C0.33 0.99 0.66 1.98 1 3 C0.01 3.33 -0.98 3.66 -2 4 C-5.03277199 7.05508026 -5.03277199 7.05508026 -6 11 C-7.578125 13.109375 -7.578125 13.109375 -10 15 C-13.234375 15.390625 -13.234375 15.390625 -16.75 15.25 C-17.92046875 15.21390625 -19.0909375 15.1778125 -20.296875 15.140625 C-21.18890625 15.09421875 -22.0809375 15.0478125 -23 15 C-18.78152611 11.64243915 -14.12388998 9.04376439 -9.48828125 6.31640625 C-6.18712474 4.35943323 -3.0099222 2.39565236 0 0 Z " fill="#E1F6FD" transform="translate(286,280)"/>
<path d="M0 0 C-1.4638611 4.39158329 -3.97831338 4.87947433 -8 7 C-8.1490712 9.0745356 -8.1490712 9.0745356 -7 11 C-8.75 11.625 -8.75 11.625 -11 12 C-12.32 11.34 -13.64 10.68 -15 10 C-14.34 13.3 -13.68 16.6 -13 20 C-18 13.33333333 -18 13.33333333 -18 8 C-15.3773768 6.66180502 -12.75213401 5.3292849 -10.125 4 C-9.00544922 3.42765625 -9.00544922 3.42765625 -7.86328125 2.84375 C-7.14785156 2.4828125 -6.43242187 2.121875 -5.6953125 1.75 C-5.03547363 1.41484375 -4.37563477 1.0796875 -3.69580078 0.734375 C-2 0 -2 0 0 0 Z " fill="#065FD6" transform="translate(253,261)"/>
<path d="M0 0 C0.99 0.33 1.98 0.66 3 1 C-3.68869134 8.27087917 -9.8760001 13.81743138 -19 18 C-19 17.01 -19 16.02 -19 15 C-18.01 14.34 -17.02 13.68 -16 13 C-15.7834375 12.01 -15.7834375 12.01 -15.5625 11 C-15 9 -15 9 -13.125 7.75 C-10.37034916 6.77777029 -7.90794016 7 -5 7 C-5 6.34 -5 5.68 -5 5 C-4.34 5 -3.68 5 -3 5 C-3 4.01 -3 3.02 -3 2 C-2.01 1.34 -1.02 0.68 0 0 Z " fill="#F2FAFD" transform="translate(271,243)"/>
<path d="M0 0 C6.22476753 9.33715129 4.94275805 23.76883376 2.92260742 34.32519531 C2.32433813 37.22702603 1.67859474 40.11597235 1 43 C0.67 43 0.34 43 0 43 C-0.33 39.7 -0.66 36.4 -1 33 C0.485 32.505 0.485 32.505 2 32 C1.86116581 28.56217969 1.71272946 25.12483971 1.5625 21.6875 C1.52318359 20.71103516 1.48386719 19.73457031 1.44335938 18.72851562 C1.40146484 17.79072266 1.35957031 16.85292969 1.31640625 15.88671875 C1.27974854 15.02264404 1.24309082 14.15856934 1.20532227 13.26831055 C1.07252646 10.8352174 1.07252646 10.8352174 0 8 C-0.12781786 5.32605036 -0.04391871 2.67904143 0 0 Z " fill="#306FC2" transform="translate(317,191)"/>
<path d="M0 0 C4.29 0 8.58 0 13 0 C4.44685914 4.27657043 -5.22579377 4.19417318 -14.625 4.25 C-15.94081055 4.26377686 -15.94081055 4.26377686 -17.28320312 4.27783203 C-18.11013672 4.27380371 -18.93707031 4.26977539 -19.7890625 4.265625 C-20.52850098 4.26336914 -21.26793945 4.26111328 -22.02978516 4.25878906 C-24 4 -24 4 -27 2 C-18.09 2 -9.18 2 0 2 C0 1.34 0 0.68 0 0 Z " fill="#294368" transform="translate(176,257)"/>
<path d="M0 0 C0.33 0 0.66 0 1 0 C1.23455115 26.60852519 1.23455115 26.60852519 0 31 C-2.48293108 33.22827148 -3.68756765 34 -7 34 C-6.09322959 31.20412457 -5.19454449 28.44291552 -4.01171875 25.75 C-0.4599922 17.27751777 -0.21241423 9.05946684 0 0 Z " fill="#2069C5" transform="translate(285,204)"/>
<path d="M0 0 C0.99 0.99 1.98 1.98 3 3 C1.40109514 8.19644079 -0.74138003 13.06612142 -3 18 C-3.1546875 17.0409375 -3.1546875 17.0409375 -3.3125 16.0625 C-3.539375 15.381875 -3.76625 14.70125 -4 14 C-4.99 13.67 -5.98 13.34 -7 13 C-5.08797357 8.21993392 -2.97233765 4.20227047 0 0 Z " fill="#0E3267" transform="translate(120,158)"/>
<path d="M0 0 C0.763125 0.061875 1.52625 0.12375 2.3125 0.1875 C0.06014161 2.69187051 -2.08960898 4.03814107 -5.13671875 5.44921875 C-5.98427734 5.84560547 -6.83183594 6.24199219 -7.70507812 6.65039062 C-8.58615234 7.05451172 -9.46722656 7.45863281 -10.375 7.875 C-11.26767578 8.29072266 -12.16035156 8.70644531 -13.08007812 9.13476562 C-15.27990981 10.15821673 -17.48236819 11.17553204 -19.6875 12.1875 C-20.52598804 10.73212432 -21.35813934 9.27309627 -22.1875 7.8125 C-22.88359375 6.59433594 -22.88359375 6.59433594 -23.59375 5.3515625 C-24.6875 3.1875 -24.6875 3.1875 -24.6875 1.1875 C-24.0275 1.1875 -23.3675 1.1875 -22.6875 1.1875 C-21.3675 3.8275 -20.0475 6.4675 -18.6875 9.1875 C-18.213125 8.754375 -17.73875 8.32125 -17.25 7.875 C-14.21745157 5.87795591 -11.28248997 5.01542296 -7.80859375 4.03125 C-4.4523182 2.69615696 -3.72277715 0.25972864 0 0 Z " fill="#2768C1" transform="translate(269.6875,288.8125)"/>
<path d="M0 0 C2.51422248 2.51422248 2.3249752 3.45077128 2.375 6.9375 C2.29250914 13.17380889 0.45819236 18.32640425 -2 24 C-3.18771723 20.57056481 -2.80226223 18.62215325 -1.5625 15.25 C-1.27503906 14.45078125 -0.98757813 13.6515625 -0.69140625 12.828125 C-0.46324219 12.22484375 -0.23507812 11.6215625 0 11 C-0.99 11 -1.98 11 -3 11 C-3 8.69 -3 6.38 -3 4 C-2.34 3.67 -1.68 3.34 -1 3 C-0.67 2.01 -0.34 1.02 0 0 Z " fill="#0F63D4" transform="translate(315,224)"/>
<path d="M0 0 C0 0.99 0 1.98 0 3 C-0.66 3 -1.32 3 -2 3 C-1.58045837 8.0676213 -0.94662248 12.27248826 1 17 C0.67 17.99 0.34 18.98 0 20 C-1.20284401 17.92426919 -2.38705701 15.84116905 -3.5625 13.75 C-4.07586914 12.87021484 -4.07586914 12.87021484 -4.59960938 11.97265625 C-5.9943288 9.46497889 -7.02421964 7.59741784 -6.90625 4.6875 C-5.40728872 1.89633073 -2.814583 1.19769489 0 0 Z " fill="#2067C7" transform="translate(182,154)"/>
<path d="M0 0 C0.66 0 1.32 0 2 0 C2 0.66 2 1.32 2 2 C5.465 1.505 5.465 1.505 9 1 C6.83624952 3.16375048 5.46125629 3.70361418 2.625 4.75 C-7.95423873 8.62546235 -7.95423873 8.62546235 -17 15 C-17 13.35 -17 11.7 -17 10 C-16.32453125 9.73445312 -15.6490625 9.46890625 -14.953125 9.1953125 C-14.06109375 8.84210938 -13.1690625 8.48890625 -12.25 8.125 C-10.92742187 7.60292969 -10.92742187 7.60292969 -9.578125 7.0703125 C-7.0384159 6.06284557 -7.0384159 6.06284557 -4.859375 4.8671875 C-3 4 -3 4 0 4 C0 2.68 0 1.36 0 0 Z " fill="#D9F0FC" transform="translate(191,145)"/>
<path d="M0 0 C0.66 0.33 1.32 0.66 2 1 C1.3125 2.9375 1.3125 2.9375 0 5 C-2.625 5.75 -2.625 5.75 -5 6 C-5.33 6.99 -5.66 7.98 -6 9 C-6.66 9 -7.32 9 -8 9 C-7.34 9.66 -6.68 10.32 -6 11 C-8.57856865 11.92091738 -9.5943287 12.18506902 -12.140625 11.0234375 C-12.75421875 10.68570313 -13.3678125 10.34796875 -14 10 C-3.65028717 1.76983621 -3.65028717 1.76983621 0 0 Z " fill="#E8F3F7" transform="translate(149,138)"/>
<path d="M0 0 C2.32472205 2.85306797 3.7508258 5.54074837 5 9 C2.03 10.32 -0.94 11.64 -4 13 C-3.67 11.68 -3.34 10.36 -3 9 C-3.33 8.01 -3.66 7.02 -4 6 C-3.34 5.67 -2.68 5.34 -2 5 C-1.27840576 3.35636866 -0.60648579 1.68949614 0 0 Z " fill="#163860" transform="translate(220,234)"/>
<path d="M0 0 C0.66 0 1.32 0 2 0 C1.45388137 3.82283043 -0.23818615 5.41079952 -3 8 C-3.33 8.66 -3.66 9.32 -4 10 C-5.32 10 -6.64 10 -8 10 C-8.33 10.66 -8.66 11.32 -9 12 C-10.32 11.67 -11.64 11.34 -13 11 C-11.824375 10.1028125 -11.824375 10.1028125 -10.625 9.1875 C-7.85425677 7.08914751 -7.85425677 7.08914751 -6 4 C-4.35857037 2.9590934 -2.69287785 1.95495674 -1 1 C-0.67 0.67 -0.34 0.34 0 0 Z " fill="#FAFCF6" transform="translate(304,264)"/>
<path d="M0 0 C2.55375615 3.17494007 4.37447153 6.48103661 6.1875 10.125 C6.71730469 11.17945313 7.24710938 12.23390625 7.79296875 13.3203125 C9 16 9 16 9 18 C6 17 6 17 4.5625 14.1875 C4.046875 13.135625 3.53125 12.08375 3 11 C2.2575 10.360625 1.515 9.72125 0.75 9.0625 C-1 7 -1 7 -0.75 3.25 C-0.5025 2.1775 -0.255 1.105 0 0 Z " fill="#1E3E63" transform="translate(211,216)"/>
<path d="M0 0 C0.99 1.32 1.98 2.64 3 4 C-0.34003602 8.32239956 -3.32751069 11.17477391 -8 14 C-8 12.35 -8 10.7 -8 9 C-7.01 8.67 -6.02 8.34 -5 8 C-3.29144978 4.99992729 -3.29144978 4.99992729 -2 2 C-1.34 2 -0.68 2 0 2 C0 1.34 0 0.68 0 0 Z " fill="#1466CE" transform="translate(297,263)"/>
<path d="M0 0 C0.33 0.66 0.66 1.32 1 2 C0.401875 2.845625 -0.19625 3.69125 -0.8125 4.5625 C-3.0400402 7.88399232 -4.51681821 11.29204553 -6 15 C-6.33 14.34 -6.66 13.68 -7 13 C-7.9075 13.804375 -8.815 14.60875 -9.75 15.4375 C-12.10309908 17.41142671 -13.86938046 18.63877467 -17 19 C-16.34 18.34 -15.68 17.68 -15 17 C-14.32130859 16.31744141 -14.32130859 16.31744141 -13.62890625 15.62109375 C-12.43848357 14.43638053 -11.23626481 13.26348705 -10.02734375 12.09765625 C-6.12151099 8.2940322 -2.80780763 4.67967938 0 0 Z " fill="#226AC3" transform="translate(277,238)"/>
<path d="M0 0 C0.33 0 0.66 0 1 0 C1.04898438 1.10859375 1.09796875 2.2171875 1.1484375 3.359375 C1.22349215 4.82294065 1.29903881 6.28648112 1.375 7.75 C1.4059375 8.47960937 1.436875 9.20921875 1.46875 9.9609375 C1.67879464 13.81175598 2.08575719 16.65396582 4 20 C4 22 4 24 4 26 C4.66 26.66 5.32 27.32 6 28 C5.625 30.625 5.625 30.625 5 33 C-1.33270424 23.50094364 -0.3541139 10.95130027 0 0 Z " fill="#354F6E" transform="translate(79,178)"/>
<path d="M0 0 C4.76414273 3.57310705 7.37082252 6.64052284 10 12 C10 12.66 10 13.32 10 14 C7.03874657 12.62513234 4.39878817 11.23335451 2 9 C1.3125 6.5625 1.3125 6.5625 1 4 C0.67516582 2.66457061 0.3449145 1.33038449 0 0 Z " fill="#D6EFFC" transform="translate(272,185)"/>
<path d="M0 0 C0.33 1.32 0.66 2.64 1 4 C-4.445 6.475 -4.445 6.475 -10 9 C-8.54372936 3.17491744 -6.19674513 0 0 0 Z " fill="#F0F6F5" transform="translate(137,102)"/>
<path d="M0 0 C0.66 0 1.32 0 2 0 C3.36389525 2.62035018 4.71632173 5.24556999 6.0625 7.875 C6.64741211 8.99455078 6.64741211 8.99455078 7.24414062 10.13671875 C7.60830078 10.85214844 7.97246094 11.56757812 8.34765625 12.3046875 C8.68804932 12.96452637 9.02844238 13.62436523 9.37915039 14.30419922 C9.58403076 14.86381348 9.78891113 15.42342773 10 16 C9.67 16.66 9.34 17.32 9 18 C8.34 17.67 7.68 17.34 7 17 C7 16.01 7 15.02 7 14 C6.34 14 5.68 14 5 14 C3.76078698 11.02588876 2.69941596 8.14737182 2 5 C1.34 5 0.68 5 0 5 C0 3.35 0 1.7 0 0 Z " fill="#1D3B63" transform="translate(155,108)"/>
<path d="M0 0 C-2.28408251 0.76136084 -3.74423416 1.05265767 -6.125 0.5625 C-9.84720835 -0.16575816 -13.53057319 -0.35633598 -17.3125 -0.5625 C-18.05306641 -0.60568359 -18.79363281 -0.64886719 -19.55664062 -0.69335938 C-21.37091464 -0.79870432 -23.1854355 -0.89978316 -25 -1 C-25 -1.33 -25 -1.66 -25 -2 C-16.06592649 -3.32356645 -8.2139176 -4.28552222 0 0 Z " fill="#377BD0" transform="translate(257,175)"/>
<path d="M0 0 C0.33 0.99 0.66 1.98 1 3 C0.01 3.33 -0.98 3.66 -2 4 C-5.03277199 7.05508026 -5.03277199 7.05508026 -6 11 C-7.29233607 12.37310707 -8.62437146 13.71034824 -10 15 C-10.99 14.67 -11.98 14.34 -13 14 C-12.34 14 -11.68 14 -11 14 C-10.938125 13.278125 -10.87625 12.55625 -10.8125 11.8125 C-9.25026437 6.4047613 -4.31426522 3.32814746 0 0 Z " fill="#F4FDF6" transform="translate(286,280)"/>
<path d="M0 0 C0 4 0 4 -1.20703125 5.73828125 C-3.51753781 7.36419327 -4.89108711 7.30908317 -7.6875 7.1875 C-8.49574219 7.16042969 -9.30398437 7.13335937 -10.13671875 7.10546875 C-10.75160156 7.07066406 -11.36648437 7.03585938 -12 7 C-12 6.34 -12 5.68 -12 5 C-10.37750059 4.16180842 -8.75191503 3.3295884 -7.125 2.5 C-6.22007812 2.0359375 -5.31515625 1.571875 -4.3828125 1.09375 C-2 0 -2 0 0 0 Z " fill="#EEF5F7" transform="translate(216,247)"/>
<path d="M0 0 C-10.37357631 8.6309795 -10.37357631 8.6309795 -16 11 C-16 10.01 -16 9.02 -16 8 C-15.34 8 -14.68 8 -14 8 C-14 7.34 -14 6.68 -14 6 C-12.35 6 -10.7 6 -9 6 C-8.67 5.01 -8.34 4.02 -8 3 C-7.34 3 -6.68 3 -6 3 C-6 2.01 -6 1.02 -6 0 C-3 -1 -3 -1 0 0 Z " fill="#286BC6" transform="translate(289,278)"/>
<path d="M0 0 C-7.75094352 5.16729568 -19.1948021 2.83552973 -28 2 C-28 1.67 -28 1.34 -28 1 C-26.84242188 0.93941406 -25.68484375 0.87882813 -24.4921875 0.81640625 C-22.95311543 0.73194498 -21.41405345 0.64729982 -19.875 0.5625 C-19.11445313 0.52318359 -18.35390625 0.48386719 -17.5703125 0.44335938 C-14.20000802 0.25450611 -10.95983239 -0.0066946 -7.625 -0.5625 C-4.78059412 -1.03656765 -2.76875995 -0.73290705 0 0 Z " fill="#2E4F76" transform="translate(184,225)"/>
<path d="M0 0 C2.71292765 1.50718203 4.86272387 2.85414411 7 5.125 C9.32965058 7.30904742 10.8728345 7.65253717 14 8 C13.67 8.99 13.34 9.98 13 11 C7.3131039 8.91093613 3.40530061 6.13750119 -1 2 C-0.67 1.34 -0.34 0.68 0 0 Z " fill="#E3F0F7" transform="translate(127,211)"/>
<path d="M0 0 C8.01095541 0.26703185 14.16934721 2.81955178 21 7 C21.33 7.66 21.66 8.32 22 9 C19.24639085 8.44927817 17.03962338 7.57878218 14.4375 6.4375 C11.15970417 4.80709693 11.15970417 4.80709693 8 5 C7.67 4.34 7.34 3.68 7 3 C4.6859378 2.26924352 2.35171131 1.59861742 0 1 C0 0.67 0 0.34 0 0 Z " fill="#DCF4FE" transform="translate(248,175)"/>
<path d="M0 0 C0.99 0.33 1.98 0.66 3 1 C1.21427748 2.83947337 -0.57802449 4.67157741 -2.375 6.5 C-2.88289063 7.02464844 -3.39078125 7.54929688 -3.9140625 8.08984375 C-5.23832604 9.43153181 -6.61605865 10.71995815 -8 12 C-8.66 12 -9.32 12 -10 12 C-10.33 10.68 -10.66 9.36 -11 8 C-9.02 7.67 -7.04 7.34 -5 7 C-5 6.34 -5 5.68 -5 5 C-4.34 5 -3.68 5 -3 5 C-3 4.01 -3 3.02 -3 2 C-2.01 1.34 -1.02 0.68 0 0 Z " fill="#D8EEFC" transform="translate(271,243)"/>
<path d="M0 0 C0.99 0.33 1.98 0.66 3 1 C1.71389867 2.9829888 0.42150861 4.96133376 -0.875 6.9375 C-1.59429687 8.03964844 -2.31359375 9.14179688 -3.0546875 10.27734375 C-5 13 -5 13 -7 14 C-6.67 12.35 -6.34 10.7 -6 9 C-5.34 9 -4.68 9 -4 9 C-4 7.68 -4 6.36 -4 5 C-3.34 5 -2.68 5 -2 5 C-2 4.01 -2 3.02 -2 2 C-1.34 2 -0.68 2 0 2 C0 1.34 0 0.68 0 0 Z " fill="#2269CC" transform="translate(307,252)"/>
<path d="M0 0 C1.32 0.66 2.64 1.32 4 2 C-1.28 4.31 -6.56 6.62 -12 9 C-12.33 8.01 -12.66 7.02 -13 6 C-12.39671875 5.73445312 -11.7934375 5.46890625 -11.171875 5.1953125 C-10.37265625 4.84210938 -9.5734375 4.48890625 -8.75 4.125 C-7.96109375 3.77695313 -7.1721875 3.42890625 -6.359375 3.0703125 C-4.00324691 2.06065224 -4.00324691 2.06065224 -1.953125 0.7421875 C-1.30859375 0.49726563 -0.6640625 0.25234375 0 0 Z " fill="#E4F2F8" transform="translate(204,211)"/>
<path d="M0 0 C-0.54226981 3.79588866 -2.20127563 5.47211993 -5 8 C-8 7 -8 7 -10 4 C-8.71086513 3.32845067 -7.41859796 2.66291141 -6.125 2 C-5.40570313 1.62875 -4.68640625 1.2575 -3.9453125 0.875 C-2 0 -2 0 0 0 Z " fill="#1E406F" transform="translate(144,103)"/>
<path d="M0 0 C3.2107419 2.67079731 4.50977252 5.92193387 6.1875 9.6875 C6.71730469 10.86699219 7.24710937 12.04648438 7.79296875 13.26171875 C8.19128906 14.16535156 8.58960938 15.06898438 9 16 C8.34 16.33 7.68 16.66 7 17 C6.15615325 15.58957044 5.32530504 14.17135868 4.5 12.75 C4.0359375 11.96109375 3.571875 11.1721875 3.09375 10.359375 C2 8 2 8 2 4 C1.01 3.67 0.02 3.34 -1 3 C-0.67 2.01 -0.34 1.02 0 0 Z " fill="#256BC5" transform="translate(308,173)"/>
<path d="M0 0 C0 0.66 0 1.32 0 2 C-3 4 -3 4 -6 4 C-5.77183594 4.54269531 -5.54367188 5.08539063 -5.30859375 5.64453125 C-5.02113281 6.35996094 -4.73367187 7.07539063 -4.4375 7.8125 C-4.14746094 8.52019531 -3.85742188 9.22789062 -3.55859375 9.95703125 C-3 12 -3 12 -4 15 C-4.67667998 13.75539217 -5.34094719 12.50403104 -6 11.25 C-6.37125 10.55390625 -6.7425 9.8578125 -7.125 9.140625 C-8 7 -8 7 -8 3 C-2.25 0 -2.25 0 0 0 Z " fill="#326FC3" transform="translate(243,266)"/>
<path d="M0 0 C0.55945313 0.06058594 1.11890625 0.12117187 1.6953125 0.18359375 C9.11897335 0.95937824 16.55348409 1.49569705 24 2 C22.68 2.33 21.36 2.66 20 3 C20 3.66 20 4.32 20 5 C19.01 5 18.02 5 17 5 C17 4.34 17 3.68 17 3 C15.948125 3.20625 14.89625 3.4125 13.8125 3.625 C9.88164854 4.01164113 8.46299493 3.64036602 5 2 C3.34080104 1.63128912 1.6752357 1.28718326 0 1 C0 0.67 0 0.34 0 0 Z " fill="#0B315F" transform="translate(146,225)"/>
<path d="M0 0 C0.99 0.495 0.99 0.495 2 1 C2.37086181 2.99338221 2.69737711 4.99512332 3 7 C3.63305821 9.01089078 4.29094062 11.01463373 5 13 C4.34 13.66 3.68 14.32 3 15 C-0.77755334 10.27805833 -0.30096975 5.74071928 0 0 Z " fill="#D8F1F6" transform="translate(234,268)"/>
<path d="M0 0 C1.21236328 0.01353516 1.21236328 0.01353516 2.44921875 0.02734375 C3.37154297 0.04474609 3.37154297 0.04474609 4.3125 0.0625 C1.70707984 1.79944677 -0.27092775 2.75350448 -3.1875 3.75 C-3.9609375 4.02199219 -4.734375 4.29398437 -5.53125 4.57421875 C-7.6875 5.0625 -7.6875 5.0625 -10.6875 4.0625 C-7.4284026 0.49301238 -4.73606476 -0.06863862 0 0 Z " fill="#1B3961" transform="translate(199.6875,251.9375)"/>
<path d="M0 0 C0.99 0.495 0.99 0.495 2 1 C2 2.32 2 3.64 2 5 C2.66 5.33 3.32 5.66 4 6 C4.73075648 8.3140622 5.40138258 10.64828869 6 13 C3.52592708 12.67012361 2.3362233 12.42027913 0.75 10.4375 C-0.34127575 6.89085382 -0.12349053 3.70471601 0 0 Z " fill="#095FD4" transform="translate(306,171)"/>
<path d="M0 0 C0.66 0 1.32 0 2 0 C3.2890625 1.64453125 3.2890625 1.64453125 4.625 3.8125 C5.07101563 4.52019531 5.51703125 5.22789062 5.9765625 5.95703125 C7 8 7 8 7 11 C9.64 10.67 12.28 10.34 15 10 C13 12 13 12 7 14 C4.69 9.38 2.38 4.76 0 0 Z " fill="#2C6CC1" transform="translate(183,175)"/>
<path d="M0 0 C1.32 0 2.64 0 4 0 C4 0.66 4 1.32 4 2 C4.78375 1.835 5.5675 1.67 6.375 1.5 C10.93966142 0.87039153 15.40072601 0.91819473 20 1 C20 1.33 20 1.66 20 2 C12.74 2.66 5.48 3.32 -2 4 C-1.34 2.68 -0.68 1.36 0 0 Z " fill="#0F60C9" transform="translate(220,171)"/>
<path d="M0 0 C-0.33 1.65 -0.66 3.3 -1 5 C-4.63 5.33 -8.26 5.66 -12 6 C-4 0 -4 0 0 0 Z " fill="#DFF2FC" transform="translate(263,295)"/>
<path d="M0 0 C0 0.99 0 1.98 0 3 C-1.63604196 4.37073786 -3.30678061 5.70055256 -5 7 C-6.76323505 9.12603185 -6.76323505 9.12603185 -8 11 C-9.32 10.67 -10.64 10.34 -12 10 C-10.37744772 8.51814875 -8.75188112 7.03959744 -7.125 5.5625 C-6.22007813 4.73878906 -5.31515625 3.91507812 -4.3828125 3.06640625 C-2 1 -2 1 0 0 Z " fill="#1F3C67" transform="translate(119,116)"/>
<path d="M0 0 C1.65 0.33 3.3 0.66 5 1 C5 1.66 5 2.32 5 3 C1.44239635 5.61588503 -1.64477147 6.49357808 -6 7 C-6 6.01 -6 5.02 -6 4 C-2.535 3.505 -2.535 3.505 1 3 C0.67 2.01 0.34 1.02 0 0 Z " fill="#FAFCF1" transform="translate(261,297)"/>
<path d="M0 0 C0.99 0.33 1.98 0.66 3 1 C0.59231297 3.79163712 -1.76146616 4.89717557 -5.1875 6.1875 C-6.08855469 6.53167969 -6.98960937 6.87585938 -7.91796875 7.23046875 C-8.60503906 7.48441406 -9.29210937 7.73835938 -10 8 C-10 7.01 -10 6.02 -10 5 C-9.278125 4.731875 -8.55625 4.46375 -7.8125 4.1875 C-4.94886298 3.07284238 -4.94886298 3.07284238 -2.375 1.3125 C-1.59125 0.879375 -0.8075 0.44625 0 0 Z " fill="#E5F2F9" transform="translate(149,97)"/>
<path d="M0 0 C4.8274799 1.41292095 8.7162359 3.42974154 13 6 C13 6.33 13 6.66 13 7 C10.6875 7.1875 10.6875 7.1875 8 7 C7.525625 6.505 7.05125 6.01 6.5625 5.5 C4.97647182 3.65265481 4.97647182 3.65265481 1.8125 3.8125 C0.884375 3.874375 -0.04375 3.93625 -1 4 C-0.67 2.68 -0.34 1.36 0 0 Z " fill="#1A66C9" transform="translate(277,148)"/>
<path d="M0 0 C0 0.66 0 1.32 0 2 C-1.6796875 3.2890625 -1.6796875 3.2890625 -3.875 4.625 C-4.95394531 5.29402344 -4.95394531 5.29402344 -6.0546875 5.9765625 C-8 7 -8 7 -10 7 C-10.33 5.68 -10.66 4.36 -11 3 C-9.68 3.33 -8.36 3.66 -7 4 C-6.67 3.01 -6.34 2.02 -6 1 C-4 0 -4 0 0 0 Z " fill="#17375F" transform="translate(148,138)"/>
<path d="M0 0 C3.37503669 1.1858237 5.64722731 2.27573689 8 5 C8.33 4.01 8.66 3.02 9 2 C8.67 4.64 8.34 7.28 8 10 C4.71211176 6.88983545 2.16264012 3.98381075 0 0 Z " fill="#DBF3FA" transform="translate(303,166)"/>
<path d="M0 0 C-2.38573379 1.89213369 -4.07175348 3.02391783 -7 4 C-7.66 3.67 -8.32 3.34 -9 3 C-9 4.32 -9 5.64 -9 7 C-9.66 7 -10.32 7 -11 7 C-10.67694236 4.01171686 -10.34810879 2.38678755 -8.3125 0.125 C-5.21105827 -1.38380949 -3.27921467 -0.81980367 0 0 Z " fill="#E8F9FD" transform="translate(243,265)"/>
<path d="M0 0 C4 1.33333333 8 2.66666667 12 4 C12.33 4.99 12.66 5.98 13 7 C10.03 6.505 10.03 6.505 7 6 C6.67 5.01 6.34 4.02 6 3 C2.99152582 1.77479736 2.99152582 1.77479736 0 1 C0 0.67 0 0.34 0 0 Z " fill="#0661D1" transform="translate(260,143)"/>
<path d="M0 0 C4.75 1.1875 4.75 1.1875 7 4 C7 4.66 7 5.32 7 6 C6.34 6 5.68 6 5 6 C4.67 6.99 4.34 7.98 4 9 C2.68 6.03 1.36 3.06 0 0 Z " fill="#1962D1" transform="translate(240,281)"/>
<path d="M0 0 C0.66 0.33 1.32 0.66 2 1 C1.3125 2.9375 1.3125 2.9375 0 5 C-3.29427581 6.09809194 -4.66411172 6.11196276 -8 5 C-6.71475739 4.13619741 -5.42157581 3.28419631 -4.125 2.4375 C-3.04605469 1.72400391 -3.04605469 1.72400391 -1.9453125 0.99609375 C-1.30335938 0.66738281 -0.66140625 0.33867187 0 0 Z " fill="#DDEAF2" transform="translate(149,138)"/>
<path d="M0 0 C1.98 0.66 3.96 1.32 6 2 C6.33 1.34 6.66 0.68 7 0 C7.66 2.31 8.32 4.62 9 7 C6 7 6 7 4.39453125 5.46875 C3.87246094 4.8190625 3.35039062 4.169375 2.8125 3.5 C2.28269531 2.8503125 1.75289063 2.200625 1.20703125 1.53125 C0.80871094 1.0259375 0.41039062 0.520625 0 0 Z " fill="#CFEBFA" transform="translate(295,158)"/>
<path d="M0 0 C0.99 0.33 1.98 0.66 3 1 C0.03 4.96 0.03 4.96 -3 9 C-4 5 -4 5 -3 2 C-2.01 2 -1.02 2 0 2 C0 1.34 0 0.68 0 0 Z " fill="#19385D" transform="translate(127,152)"/>
<path d="M0 0 C2.50037734 2.17424117 3.43628586 3.73045798 4 7 C2.68 6.67 1.36 6.34 0 6 C0 5.01 0 4.02 0 3 C-1.32 3.33 -2.64 3.66 -4 4 C-4.33 3.34 -4.66 2.68 -5 2 C-3.35 1.34 -1.7 0.68 0 0 Z " fill="#294668" transform="translate(151,99)"/>
<path d="M0 0 C0.66 0 1.32 0 2 0 C0.90931332 3.77545388 0.0916909 6.47043472 -3 9 C-3.33 7.35 -3.66 5.7 -4 4 C-2.68 3.34 -1.36 2.68 0 2 C0 1.34 0 0.68 0 0 Z " fill="#E1F6FC" transform="translate(278,232)"/>
<path d="M0 0 C0.99 0.33 1.98 0.66 3 1 C2.34 4.3 1.68 7.6 1 11 C0.67 11 0.34 11 0 11 C-0.19406478 9.35492782 -0.38007935 7.70890406 -0.5625 6.0625 C-0.66691406 5.14597656 -0.77132813 4.22945312 -0.87890625 3.28515625 C-0.91886719 2.53105469 -0.95882813 1.77695313 -1 1 C-0.67 0.67 -0.34 0.34 0 0 Z " fill="#2267C9" transform="translate(317,223)"/>
<path d="M0 0 C-0.5 1.9375 -0.5 1.9375 -2 4 C-4.69658452 4.68790422 -7.2017019 4.81946464 -10 5 C-8.28489314 1.56978628 -3.75681361 0 0 0 Z " fill="#DCF2FC" transform="translate(202,184)"/>
<path d="M0 0 C-1 2 -1 2 -2.6875 2.75 C-5.82673219 3.08937645 -8.08902106 2.12469641 -11 1 C-11 0.67 -11 0.34 -11 0 C-3.57142857 -1.28571429 -3.57142857 -1.28571429 0 0 Z " fill="#DEEFF4" transform="translate(189,259)"/>
<path d="M0 0 C-0.33 0.99 -0.66 1.98 -1 3 C-4.5625 4.6875 -4.5625 4.6875 -8 6 C-8.66 5.34 -9.32 4.68 -10 4 C-8.71086513 3.32845067 -7.41859796 2.66291141 -6.125 2 C-5.40570313 1.62875 -4.68640625 1.2575 -3.9453125 0.875 C-2 0 -2 0 0 0 Z " fill="#2B72C9" transform="translate(253,261)"/>
<path d="M0 0 C0.33 0 0.66 0 1 0 C1.33 1.98 1.66 3.96 2 6 C0.68 6.33 -0.64 6.66 -2 7 C-2 7.99 -2 8.98 -2 10 C-2.66 10 -3.32 10 -4 10 C-2.66666667 6.66666667 -1.33333333 3.33333333 0 0 Z " fill="#D7F0FC" transform="translate(314,243)"/>
<path d="M0 0 C0 0.99 0 1.98 0 3 C-0.99 3 -1.98 3 -3 3 C-3 3.66 -3 4.32 -3 5 C-3.66 5 -4.32 5 -5 5 C-5.33 5.66 -5.66 6.32 -6 7 C-6.33 6.34 -6.66 5.68 -7 5 C-2.25 0 -2.25 0 0 0 Z " fill="#DAE9EF" transform="translate(135,150)"/>
<path d="M0 0 C0.33 0.99 0.66 1.98 1 3 C-0.9375 5.6875 -0.9375 5.6875 -3 8 C-4.32 7.67 -5.64 7.34 -7 7 C-6.21625 6.401875 -5.4325 5.80375 -4.625 5.1875 C-1.85425677 3.08914751 -1.85425677 3.08914751 0 0 Z " fill="#C8E3F8" transform="translate(298,268)"/>
<path d="M0 0 C1.00000429 4.00001715 0.80688405 6.05523353 0 10 C-0.99 10.33 -1.98 10.66 -3 11 C-2.01 7.37 -1.02 3.74 0 0 Z " fill="#C5E1F9" transform="translate(318,231)"/>
<path d="M0 0 C3.3 1.65 6.6 3.3 10 5 C10 5.33 10 5.66 10 6 C8.02 6 6.04 6 4 6 C3.67 5.01 3.34 4.02 3 3 C2.01 2.67 1.02 2.34 0 2 C0 1.34 0 0.68 0 0 Z " fill="#254268" transform="translate(131,217)"/>
<path d="M0 0 C-2.3125 2.0625 -2.3125 2.0625 -5 4 C-5.99 3.67 -6.98 3.34 -8 3 C-7.34 3 -6.68 3 -6 3 C-6 2.01 -6 1.02 -6 0 C-3 -1 -3 -1 0 0 Z " fill="#2062CC" transform="translate(289,278)"/>
<path d="M0 0 C-0.8125 1.9375 -0.8125 1.9375 -2 4 C-2.99 4.33 -3.98 4.66 -5 5 C-5.99 4.34 -6.98 3.68 -8 3 C-2.25 0 -2.25 0 0 0 Z " fill="#D6E1ED" transform="translate(216,247)"/>
<path d="M0 0 C2.31 0.66 4.62 1.32 7 2 C6.67 2.99 6.34 3.98 6 5 C4.02 4.34 2.04 3.68 0 3 C0 2.01 0 1.02 0 0 Z " fill="#2B476D" transform="translate(118,248)"/>
<path d="M0 0 C1.98 0.99 1.98 0.99 4 2 C4 3.32 4 4.64 4 6 C4.66 6 5.32 6 6 6 C5.67 6.99 5.34 7.98 5 9 C2.67527795 6.14693203 1.2491742 3.45925163 0 0 Z " fill="#E3F1F7" transform="translate(213,219)"/>
<path d="M0 0 C2.6855594 2.6855594 3.06049974 5.37621328 4 9 C3.01 9.495 3.01 9.495 2 10 C0.68373308 6.38026598 0 3.90432869 0 0 Z " fill="#D0DFEB" transform="translate(83,211)"/>
<path d="M0 0 C2.31 1.98 4.62 3.96 7 6 C6.01 6.495 6.01 6.495 5 7 C4.01 6.67 3.02 6.34 2 6 C2 5.01 2 4.02 2 3 C1.01 2.67 0.02 2.34 -1 2 C-0.67 1.34 -0.34 0.68 0 0 Z " fill="#2A436B" transform="translate(121,208)"/>
<path d="M0 0 C0.99 0.33 1.98 0.66 3 1 C4.1875 4.0625 4.1875 4.0625 5 7 C4.01 7.495 4.01 7.495 3 8 C0 2.25 0 2.25 0 0 Z " fill="#D3EBFC" transform="translate(312,178)"/>
<path d="M0 0 C0.66 0 1.32 0 2 0 C2 0.66 2 1.32 2 2 C5.465 1.505 5.465 1.505 9 1 C6.23776722 3.76223278 3.79293383 3.57856291 0 4 C0 2.68 0 1.36 0 0 Z " fill="#D2E7F7" transform="translate(191,145)"/>
<path d="M0 0 C1.09658936 3.28976808 0.79953138 4.71303767 0 8 C-1.32 7.67 -2.64 7.34 -4 7 C-2.68 4.69 -1.36 2.38 0 0 Z " fill="#24406D" transform="translate(96,138)"/>
<path d="M0 0 C0.99 0 1.98 0 3 0 C1.62845496 2.95409701 0.01136276 5.44008376 -2 8 C-3 5 -3 5 -1.75 2.3125 C-1.1725 1.549375 -0.595 0.78625 0 0 Z " fill="#E0EDF8" transform="translate(93,138)"/>
<path d="M0 0 C2.62187494 1.04874998 3.79371361 1.64931313 5.25 4.125 C5.4975 4.74375 5.745 5.3625 6 6 C5.01 6.33 4.02 6.66 3 7 C2.01 4.69 1.02 2.38 0 0 Z " fill="#E5F2F6" transform="translate(162,119)"/>
<path d="M0 0 C-0.33 1.32 -0.66 2.64 -1 4 C-4 3 -4 3 -6 0 C-3.50907189 -1.24546405 -2.58919267 -0.7767578 0 0 Z " fill="#13366A" transform="translate(140,107)"/>
<path d="M0 0 C0.66 0.33 1.32 0.66 2 1 C0.68 2.65 -0.64 4.3 -2 6 C-3.32 5.34 -4.64 4.68 -6 4 C-4.02 2.68 -2.04 1.36 0 0 Z " fill="#CBE6FA" transform="translate(277,286)"/>
<path d="M0 0 C0.33 0.99 0.66 1.98 1 3 C0.01 3.33 -0.98 3.66 -2 4 C-3.66710346 5.49985609 -3.66710346 5.49985609 -5 7 C-5.66 6.34 -6.32 5.68 -7 5 C-4.69 3.35 -2.38 1.7 0 0 Z " fill="#D9F0FD" transform="translate(286,280)"/>
<path d="M0 0 C-2.68841859 2.25245881 -4.64641875 3.88213958 -8 5 C-8 4.01 -8 3.02 -8 2 C-4.77208445 -0.1519437 -3.71599191 -0.20086443 0 0 Z " fill="#D9F1FC" transform="translate(260,256)"/>
<path d="M0 0 C0.33 0.66 0.66 1.32 1 2 C1.66 2.33 2.32 2.66 3 3 C2.34 3 1.68 3 1 3 C1 3.66 1 4.32 1 5 C0.01 5 -0.98 5 -2 5 C-2.33 5.66 -2.66 6.32 -3 7 C-3 3.48283697 -2.17554415 2.62878252 0 0 Z " fill="#FAF8F4" transform="translate(265,245)"/>
<path d="M0 0 C0.33 1.32 0.66 2.64 1 4 C-1.64 3.67 -4.28 3.34 -7 3 C-4.74624683 0.74624683 -3.20799182 0 0 0 Z " fill="#364D72" transform="translate(210,212)"/>
<path d="M0 0 C0.66 0.33 1.32 0.66 2 1 C0.875 2.5 0.875 2.5 -1 4 C-4.1875 4.1875 -4.1875 4.1875 -7 4 C-4.61426621 2.10786631 -2.92824652 0.97608217 0 0 Z " fill="#CCEBFD" transform="translate(215,177)"/>
<path d="M0 0 C0.66 0 1.32 0 2 0 C2 0.66 2 1.32 2 2 C2.99 2.33 3.98 2.66 5 3 C5.33 5.31 5.66 7.62 6 10 C3.47650757 6.87567603 1.72743854 3.61939504 0 0 Z " fill="#2B6ECA" transform="translate(177,164)"/>
<path d="M0 0 C0.66 0.66 1.32 1.32 2 2 C1.34 2 0.68 2 0 2 C-0.33 3.98 -0.66 5.96 -1 8 C-1.66 8 -2.32 8 -3 8 C-3.33 7.01 -3.66 6.02 -4 5 C-2.0625 2.3125 -2.0625 2.3125 0 0 Z " fill="#1F3C63" transform="translate(101,132)"/>
<path d="M0 0 C0.33 0.66 0.66 1.32 1 2 C0.06553465 4.03144641 -0.93224776 6.03533587 -2 8 C-2.66 7.67 -3.32 7.34 -4 7 C-3.43628586 3.73045798 -2.50037734 2.17424117 0 0 Z " fill="#0F2F58" transform="translate(106,127)"/>
</svg>
