<?xml version="1.0" encoding="utf-8"?>
<svg xml:space="preserve" xmlns="http://www.w3.org/2000/svg"
    xmlns:xlink="http://www.w3.org/1999/xlink" id="Layer_1" x="0" y="0" version="1.1"
    viewBox="0 0 30 30">
  <path d="M14.4 29.5h.4z" fill="#c5c8ca" />
  <path fill="#9da4a8" d="M15.3 29.5h.1zc-.1 0 0 0 0 0" />
  <path fill="#b7bbbd" d="M15.3 29.5h-.2z" />
  <path d="M14.1 29.5h.2z" fill="#c5c8ca" />
  <path fill="#bbbfc2" d="M13.9 29.5s.1 0 0 0h.2z" />
  <path fill="#cacdce" d="M13.6 29.5h.1z" />
  <path fill="#bfc3c5" d="M13.7 29.5q.15 0 0 0h.1z" />
  <path fill="#bcc0c2" d="M13.3 29.4q.15 0 0 0" />
  <path fill="#bdc1c4" d="M13.4 29.5c0-.1.1-.1 0 0q.15-.15 0 0m-.3-.1" />
  <path fill="#c7cacc" d="M13.2 29.4q.15 0 0 0" />
  <linearGradient id="SVGID_1_" x1="21.8812" x2="8.2545" y1="-88.078" y2="-104.6955" gradientTransform="matrix(1 0 0 -1 0 -81.48)" gradientUnits="userSpaceOnUse">
    <stop offset="0" stop-color="#020037" />
    <stop offset="1" stop-color="#050f62" />
  </linearGradient>
  <path fill="url(#SVGID_1_)" d="M15 .4C11.1.4 7.5 2 4.7 4.7 2 7.4.5 11.1.5 15q0 2.55.9 5.1h.8c2.9 0 5.8.9 8.2 2.6s4.2 4.1 5.1 6.9c3.8-.1 7.4-1.7 10-4.4s4.1-6.4 4.1-10.1c0-3.9-1.5-7.6-4.3-10.3C22.6 2 18.9.4 15 .4" />
  <path fill="#fff" d="M20.7 22.5c0 .4.1.8.3 1s.6.3 1 .3c-.4 0-.7.1-1 .3-.2.2-.3.6-.3 1 0-.4-.1-.7-.3-1-.2-.2-.6-.3-1-.3.4 0 .7-.1 1-.3s.3-.6.3-1m-13.8-7c0 .4.1.8.3 1s.6.3 1 .3c-.4 0-.7.1-1 .3-.2.2-.3.6-.3 1 0-.4-.1-.7-.3-1-.2-.2-.6-.3-1-.3.4 0 .7-.1 1-.3.2-.3.3-.6.3-1m3.7-11.4q.15 0 0 0c0 .3.1.5.3.7s.4.3.7.2c-.3 0-.5.1-.7.2-.2.2-.3.4-.2.7 0-.3-.1-.5-.2-.7-.3-.1-.5-.2-.8-.1.3-.1.5-.1.7-.3s.3-.5.2-.7" />
  <linearGradient id="SVGID_00000173122186048074043340000017421439166240502921_" x1="19.2457" x2="22.9553" y1="-89.3156" y2="-91.7188" gradientTransform="matrix(1 0 0 -1 0 -81.48)" gradientUnits="userSpaceOnUse">
    <stop offset="0" stop-color="#e5e5e5" />
    <stop offset="1" stop-color="#b7b8c1" />
  </linearGradient>
  <path fill="url(#SVGID_00000173122186048074043340000017421439166240502921_)" d="M21.8 1.2c-1.4.7-3 1.9-4.4 4.2-2.5 3.9-3.2 7.4-3.2 7.4L16 14l.3.2 1.9 1.2s2.9-2 5.4-5.9c1.5-2.3 2-4.3 2-5.8-.8-.1-1.5-.4-2.2-.8-.6-.4-1.2-1-1.6-1.7" />
  <linearGradient id="SVGID_00000127763695479642710240000017533313096818365313_" x1="21.2378" x2="19.0472" y1="-99.9826" y2="-97.8815" gradientTransform="matrix(1 0 0 -1 0 -81.48)" gradientUnits="userSpaceOnUse">
    <stop offset="0" stop-color="#ec4f4f" />
    <stop offset="1" stop-color="#a91919" />
  </linearGradient>
  <path fill="url(#SVGID_00000127763695479642710240000017533313096818365313_)" d="M20.8 16.8c.9-1.4.3-3.2 0-3.8-.7.8-1.5 1.5-2.3 2.1.1.4.3.8.3 1.2 0 .1 0 .2-.1.3-.4.6-.8 1.3-1.1 2-.1.1-.1.2-.1.3-.1.2-.1.3 0 .5 0 .3.2.5.3.8l.1.1c.1 0 .1.1.2.1s.1 0 .2-.1.3-.2.4-.4c.8-.9 1.1-1.4 2.1-3.1" />
  <linearGradient id="SVGID_00000060717637781723915790000002744012061535479481_" x1="11.3158" x2="14.8122" y1="-99.2586" y2="-101.5237" gradientTransform="matrix(1 0 0 -1 0 -81.48)" gradientUnits="userSpaceOnUse">
    <stop offset="0" stop-color="#f2a518" />
    <stop offset="1" stop-color="#f4e23e" />
  </linearGradient>
  <path fill="url(#SVGID_00000060717637781723915790000002744012061535479481_)" d="m15.1 15.7-1.7-1.1c-2 3.1-3.3 7-2.4 7.5.9.6 3.9-2.2 5.9-5.3z" />
  <linearGradient id="SVGID_00000070084874335106853820000008402293642909580433_" x1="-4386.2534" x2="-4497.9517" y1="747.6443" y2="769.0099" gradientTransform="matrix(1 0 0 -1 0 -81.48)" gradientUnits="userSpaceOnUse">
    <stop offset="0" stop-color="#ec4f4f" />
    <stop offset="1" stop-color="#a91919" />
  </linearGradient>
  <path fill="url(#SVGID_00000070084874335106853820000008402293642909580433_)" d="M15.2 9.5c-.7-.1-2.5.1-3.4 1.5-1.1 1.6-1.5 2.1-2 3.2-.1.2-.1.3-.2.5v.2c0 .1.1.1.1.1s.1 0 .2.1c.3.1.6 0 .8 0s.3-.1.4-.2l.3-.3c.5-.6.9-1.2 1.3-1.8.1-.1.2-.2.3-.2.4-.1.8-.1 1.2-.2.3-1 .6-2 1-2.9" />
  <path fill="#df3030" d="M25 .6c-.2-.1-1.5-.2-3.2.7.4.7 1 1.2 1.6 1.7.7.4 1.4.7 2.2.8.1-1.9-.5-3.1-.6-3.2m-6.6 14.9L14 12.7h-.2l-.9 1.4v.2l4.4 2.8h.2l.9-1.4z" />
  <linearGradient id="SVGID_00000044894753735506851200000013592864944465274029_" x1="14.9436" x2="16.3716" y1="-95.9217" y2="-96.8468" gradientTransform="matrix(1 0 0 -1 0 -81.48)" gradientUnits="userSpaceOnUse">
    <stop offset="0" stop-color="#b71e1e" />
    <stop offset=".44" stop-color="#df3030" />
    <stop offset="1" stop-color="#c51d1d" />
  </linearGradient>
  <path fill="url(#SVGID_00000044894753735506851200000013592864944465274029_)" d="M17.8 11.6c-.4-.2-2.1 1.6-3.2 3.3-.8 1.2-1.4 3-1.1 3.2.4.2 1.7-1 2.5-2.3 1.1-1.6 2.1-3.9 1.8-4.2" />
  <path fill="#17181c" d="M21.2 8.6c1.3 0 2.3-1 2.3-2.3S22.5 4 21.2 4s-2.3 1-2.3 2.3 1.1 2.3 2.3 2.3" />
  <linearGradient id="SVGID_00000090987122570624474440000002432161440392897685_" x1="20.068" x2="22.3556" y1="-87.0655" y2="-88.5473" gradientTransform="matrix(1 0 0 -1 0 -81.48)" gradientUnits="userSpaceOnUse">
    <stop offset="0" stop-color="#ced1ec" />
    <stop offset="1" stop-color="#fff" />
  </linearGradient>
  <path fill="url(#SVGID_00000090987122570624474440000002432161440392897685_)" d="M21.2 7.7c.8 0 1.4-.6 1.4-1.4S22 5 21.2 5s-1.4.6-1.4 1.4.7 1.3 1.4 1.3" />
  <linearGradient id="SVGID_00000044151119195171880090000016489263670362291109_" x1="14.4192" x2="2.0973" y1="-110.4727" y2="-101.7197" gradientTransform="matrix(1 0 0 -1 0 -81.48)" gradientUnits="userSpaceOnUse">
    <stop offset="0" stop-color="#b7b7bd" />
    <stop offset=".68" stop-color="#efefef" />
  </linearGradient>
  <path fill="url(#SVGID_00000044151119195171880090000016489263670362291109_)" d="M2.1 20h-.8c1 2.8 2.9 5.2 5.3 6.9s5.3 2.6 8.3 2.6h.4c-.9-2.8-2.7-5.2-5.1-6.9C7.9 20.9 5.1 20 2.1 20" />
</svg>