<svg xmlns="http://www.w3.org/2000/svg" xml:space="preserve" id="Layer_1" x="0" y="0" style="enable-background:new 0 0 1220.8 227.9" version="1.1" viewBox="0 0 1220.8 227.9"><style>.st0{fill:#0d253e}.st1{fill:#008afb}</style><g id="Layer_2_1_"><g id="Layer_1-2"><path d="M198.1 167c-30.2 0-54.7-24.5-54.7-54.7s24.5-54.7 54.7-54.7 54.7 24.5 54.7 54.7c0 30.2-24.5 54.7-54.7 54.7zm0-85.4c-17 0-30.7 13.7-30.7 30.7s13.7 30.7 30.7 30.7 30.7-13.7 30.7-30.7c0-16.9-13.8-30.7-30.7-30.7zM292.2 59.5h-23.6v107.9h23.6V59.5zM339.5 167.4h-23.8V59.5h23.8v16.2c6.2-12.5 21-18.5 33-18.5 26.1 0 41.1 16.9 41.1 47.3v62.8h-23.8v-60.1c0-17.1-8.8-26.8-22.6-26.8-14.1 0-27.7 7.6-27.7 28.9v58.1z" class="st0"/><path d="M390.6 8.2h151.7v22.9h-65.9v136.3h-25V31.1h-60.9V8.2h.1z" class="st1"/><path d="M540.3 167.4h-23.8V59.5h23.8V79c7.4-13.5 15.4-19.5 29.6-21.8 7.5-1.2 15.7 1.8 19.2 4.2l-3.9 22c-4.9-2.5-10.4-3.8-15.9-3.7-20.3 0-28.9 20.3-28.9 49l-.1 38.7zM680.7 151.9c-7.2 11.8-22.9 17.8-36.3 17.8-29.1 0-54.8-21.9-54.8-56.4s25.6-56.1 54.8-56.1c12.9 0 28.9 5.3 36.3 17.5V59.5h23.6v107.9h-23.6v-15.5zm-33.5-5.3c17.6 0 33.3-12.2 33.3-33.5s-17.1-32.8-33.3-32.8c-18 0-33 12.9-33 32.8s15 33.5 33 33.5zM778.4 57.2c17.1 0 32.6 6.7 42.7 18.7l-18.5 14.8c-5.8-6.7-14.8-10.4-24.3-10.4-18 0-34 12.7-34 32.8s15.9 33.7 34 33.7c9.5 0 18.5-3.9 24.3-10.6l18.7 14.6c-10.2 12-25.6 18.9-43 18.9-31 0-57.5-22.4-57.5-56.6s26.6-55.9 57.6-55.9zM860.3 117.2v50.1h-23.6V.8h23.6V95l34.2-35.6h31.9l-46 46.9 56.4 61h-30.5l-46-50.1zM967.4 59.5h-23.6v107.9h23.6V59.5zM1014.7 167.4h-23.8V59.5h23.8v16.2c6.2-12.5 21-18.5 33-18.5 26.1 0 41.1 16.9 41.1 47.3v62.8H1065v-60.1c0-17.1-8.8-26.8-22.6-26.8-14.1 0-27.7 7.6-27.7 28.9v58.1zM1220.2 111.5c0-12.3-4.5-24.2-12.5-33.6l13-17.1-19.6-13-11.9 15.7c-8.3-4.1-17.5-6.2-26.8-6.2-31.9 0-57.8 24.4-57.8 54.3s25.9 54.3 57.8 54.3c20.2 0 34.2 10.2 34.2 19.3s-14.1 19.3-34.2 19.3-34.2-10.2-34.2-19.3h-23.6c0 24 25.4 42.9 57.8 42.9s57.8-18.8 57.8-42.9c0-13.2-7.7-24.8-19.9-32.6 12.2-10.1 19.9-24.8 19.9-41.1zm-92 0c0-16.9 15.4-30.7 34.2-30.7s34.2 13.8 34.2 30.7-15.4 30.7-34.2 30.7-34.2-13.8-34.2-30.7z" class="st1"/><path d="M81.4 170.5C36.4 170.5 0 134 0 89c0-21.6 8.6-42.3 23.9-57.6 31.8-31.8 83.4-31.8 115.2 0l-17.7 17.7C99.3 27 63.6 27 41.5 49.1s-22.1 57.8 0 79.9 57.8 22.1 79.9 0l17.7 17.7c-15.3 15.3-36 23.9-57.7 23.8z" class="st0"/><circle cx="280.7" cy="15.5" r="15.5" class="st0"/><circle cx="954.7" cy="15.5" r="15.5" class="st1"/></g></g></svg>