<svg width="94" height="68" viewBox="0 0 94 68" fill="none" xmlns="http://www.w3.org/2000/svg">
<path d="M8.06654 25.9998C8.13308 24.4665 8.46577 22.9998 8.93154 21.5331C9.39731 19.9998 9.99615 18.5331 10.7946 17.1998C11.46 16.0665 12.2585 14.9331 13.0569 13.8665C13.5227 13.2665 13.9885 12.7331 14.5208 12.1998C15.9846 10.7998 17.515 9.59982 19.245 8.66649C20.975 7.66649 22.8381 6.93316 24.7677 6.4665C26.0319 6.19983 27.2962 6.06648 28.5604 5.93315C29.2923 5.86648 30.0242 5.79981 30.7562 5.86648C32.6192 5.93315 34.4823 6.19983 36.2788 6.73316C37.8092 7.19983 39.3396 7.79982 40.6704 8.59982C41.8015 9.26648 42.8662 9.99983 43.9308 10.7998C44.5296 11.2665 45.1285 11.7998 45.7273 12.3332C45.5942 12.4665 45.5277 12.5998 45.4612 12.6665C43.9973 14.1332 42.6 15.5332 41.1362 16.9998C40.9365 17.1998 40.8035 17.1998 40.6038 16.9998C38.5412 14.9332 36.1458 13.6665 33.3512 13.0665C32.0204 12.7998 30.6896 12.5998 29.3588 12.7332C26.6973 12.9332 24.2354 13.6665 21.9731 15.1332C20.4427 16.1332 19.1785 17.3332 18.0473 18.7332C16.7165 20.3998 15.785 22.3332 15.2527 24.3998C14.9865 25.3332 14.9865 26.3998 14.8535 27.3332C14.7204 28.7998 14.8535 30.2665 15.2527 31.6665C15.785 33.7998 16.7831 35.7332 18.1138 37.4665C19.1119 38.7332 20.3096 39.7998 21.5738 40.6665C23.4369 41.9332 25.4996 42.6665 27.6954 42.9998C31.7542 43.5998 35.4138 42.6665 38.7408 40.3332C39.3396 39.9332 39.9385 39.3998 40.4708 38.8665C40.6704 38.7331 40.8035 38.6665 41.0031 38.8665C42.5335 40.3998 44.0638 41.9332 45.5942 43.4665C43.7312 45.3998 41.6019 46.8665 39.2065 47.9998C35.7465 49.5998 32.1535 50.1998 28.4273 49.9332C23.0377 49.5332 18.38 47.4665 14.5208 43.6665C10.6615 39.8665 8.53231 35.3331 8 29.8665C8 28.6665 8 27.5332 8 26.3332C8 26.1998 8 26.0665 8 25.8665L8.06654 25.9998Z" fill="#318EFA"/>
<path d="M71.8696 18.6V49.1333H65.0827V12.3333H48.6477V6H89.6354V12.2667H71.8696V18.5333V18.6Z" fill="#318EFA"/>
</svg>
