<?xml version="1.0" encoding="UTF-8"?>
<!-- Generator: Adobe Illustrator 22.0.1, SVG Export Plug-In . SVG Version: 6.00 Build 0)  -->
<svg version="1.1" id="Layer_1" xmlns="http://www.w3.org/2000/svg" xmlns:xlink="http://www.w3.org/1999/xlink" x="0px" y="0px" viewBox="0 0 1220.8 227.9" style="enable-background:new 0 0 1220.8 227.9;" xml:space="preserve">
<style type="text/css">
	.st0{fill:#0D253E;}
	.st1{fill:#008AFB;}
</style>
<title>CoinTracking light</title>
<g id="Layer_2_1_">
	<g id="Layer_1-2">
		<path class="st0" d="M198.1,167c-30.2,0-54.7-24.5-54.7-54.7s24.5-54.7,54.7-54.7s54.7,24.5,54.7,54.7l0,0    C252.8,142.5,228.3,167,198.1,167z M198.1,81.6c-17,0-30.7,13.7-30.7,30.7s13.7,30.7,30.7,30.7s30.7-13.7,30.7-30.7l0,0    C228.8,95.4,215,81.6,198.1,81.6z"/>
		<path class="st0" d="M292.2,59.5h-23.6v107.9h23.6V59.5z"/>
		<path class="st0" d="M339.5,167.4h-23.8V59.5h23.8v16.2c6.2-12.5,21-18.5,33-18.5c26.1,0,41.1,16.9,41.1,47.3v62.8h-23.8v-60.1    c0-17.1-8.8-26.8-22.6-26.8c-14.1,0-27.7,7.6-27.7,28.9V167.4z"/>
		<path class="st1" d="M390.6,8.2h151.7v22.9h-65.9v136.3h-25V31.1h-60.9V8.2H390.6z"/>
		<path class="st1" d="M540.3,167.4h-23.8V59.5h23.8V79c7.4-13.5,15.4-19.5,29.6-21.8c7.5-1.2,15.7,1.8,19.2,4.2l-3.9,22    c-4.9-2.5-10.4-3.8-15.9-3.7c-20.3,0-28.9,20.3-28.9,49L540.3,167.4L540.3,167.4z"/>
		<path class="st1" d="M680.7,151.9c-7.2,11.8-22.9,17.8-36.3,17.8c-29.1,0-54.8-21.9-54.8-56.4s25.6-56.1,54.8-56.1    c12.9,0,28.9,5.3,36.3,17.5V59.5h23.6v107.9h-23.6V151.9z M647.2,146.6c17.6,0,33.3-12.2,33.3-33.5s-17.1-32.8-33.3-32.8    c-18,0-33,12.9-33,32.8S629.2,146.6,647.2,146.6L647.2,146.6z"/>
		<path class="st1" d="M778.4,57.2c17.1,0,32.6,6.7,42.7,18.7l-18.5,14.8c-5.8-6.7-14.8-10.4-24.3-10.4c-18,0-34,12.7-34,32.8    s15.9,33.7,34,33.7c9.5,0,18.5-3.9,24.3-10.6l18.7,14.6c-10.2,12-25.6,18.9-43,18.9c-31,0-57.5-22.4-57.5-56.6    S747.4,57.2,778.4,57.2z"/>
		<path class="st1" d="M860.3,117.2v50.1h-23.6V0.8h23.6V95l34.2-35.6h31.9l-46,46.9l56.4,61h-30.5L860.3,117.2z"/>
		<path class="st1" d="M967.4,59.5h-23.6v107.9h23.6V59.5z"/>
		<path class="st1" d="M1014.7,167.4h-23.8V59.5h23.8v16.2c6.2-12.5,21-18.5,33-18.5c26.1,0,41.1,16.9,41.1,47.3v62.8H1065v-60.1    c0-17.1-8.8-26.8-22.6-26.8c-14.1,0-27.7,7.6-27.7,28.9V167.4z"/>
		<path class="st1" d="M1220.2,111.5c0-12.3-4.5-24.2-12.5-33.6l13-17.1l-19.6-13l-11.9,15.7c-8.3-4.1-17.5-6.2-26.8-6.2    c-31.9,0-57.8,24.4-57.8,54.3s25.9,54.3,57.8,54.3c20.2,0,34.2,10.2,34.2,19.3s-14.1,19.3-34.2,19.3s-34.2-10.2-34.2-19.3h-23.6    c0,24,25.4,42.9,57.8,42.9s57.8-18.8,57.8-42.9c0-13.2-7.7-24.8-19.9-32.6C1212.5,142.5,1220.2,127.8,1220.2,111.5z M1128.2,111.5    c0-16.9,15.4-30.7,34.2-30.7s34.2,13.8,34.2,30.7s-15.4,30.7-34.2,30.7S1128.2,128.4,1128.2,111.5L1128.2,111.5z"/>
		<path class="st0" d="M81.4,170.5C36.4,170.5,0,134,0,89c0-21.6,8.6-42.3,23.9-57.6c31.8-31.8,83.4-31.8,115.2,0l0,0l-17.7,17.7    C99.3,27,63.6,27,41.5,49.1s-22.1,57.8,0,79.9s57.8,22.1,79.9,0l17.7,17.7C123.8,162,103.1,170.6,81.4,170.5z"/>
		<circle class="st0" cx="280.7" cy="15.5" r="15.5"/>
		<circle class="st1" cx="954.7" cy="15.5" r="15.5"/>
	</g>
</g>
</svg>