<?xml version="1.0" standalone="no"?>
<!DOCTYPE svg PUBLIC "-//W3C//DTD SVG 20010904//EN"
 "http://www.w3.org/TR/2001/REC-SVG-20010904/DTD/svg10.dtd">
<svg version="1.0" xmlns="http://www.w3.org/2000/svg"
 width="300.000000pt" height="300.000000pt" viewBox="0 0 300.000000 300.000000"
 preserveAspectRatio="xMidYMid meet">

<g transform="translate(0.000000,300.000000) scale(0.100000,-0.100000)"
fill="#000000" stroke="none">
<path d="M930 2459 c-141 -18 -262 -81 -364 -189 -120 -127 -171 -266 -164
-445 11 -266 182 -482 444 -561 81 -25 247 -25 329 0 76 23 178 76 230 121
l40 34 -66 66 -66 67 -45 -34 c-85 -65 -140 -83 -258 -83 -97 0 -110 2 -173
32 -178 84 -279 269 -247 452 55 317 411 463 671 276 l52 -37 65 65 66 66 -25
21 c-93 81 -213 134 -340 150 -46 5 -84 9 -84 9 0 -1 -29 -5 -65 -10z"/>
<path d="M1510 2380 l0 -80 228 -2 227 -3 3 -522 2 -523 90 0 90 0 0 523 -1
522 226 3 225 2 0 80 0 80 -545 0 -545 0 0 -80z"/>
<path d="M884 925 c-4 -9 -2 -21 4 -27 15 -15 44 -1 40 19 -4 23 -36 29 -44 8z"/>
<path d="M1920 790 c0 -127 2 -150 15 -150 11 0 15 12 15 45 0 25 4 45 8 45 4
0 25 -20 45 -45 28 -33 45 -45 65 -45 25 0 24 2 -28 55 l-54 55 39 40 c33 34
36 40 19 40 -11 0 -33 -13 -49 -30 -16 -16 -32 -30 -37 -30 -4 0 -8 38 -8 85
0 69 -3 85 -15 85 -13 0 -15 -23 -15 -150z"/>
<path d="M2113 924 c-8 -21 13 -42 28 -27 13 13 5 43 -11 43 -6 0 -13 -7 -17
-16z"/>
<path d="M485 916 c-124 -55 -113 -239 16 -277 64 -20 163 21 131 53 -9 9 -18
8 -37 0 -77 -35 -155 9 -155 88 0 60 41 100 102 100 24 0 49 -5 56 -12 8 -8
15 -8 27 2 22 18 19 26 -19 44 -41 19 -80 20 -121 2z"/>
<path d="M1110 905 c0 -12 13 -15 55 -15 l55 0 0 -125 c0 -118 1 -125 20 -125
19 0 20 7 20 125 l0 125 60 0 c47 0 60 3 60 15 0 13 -22 15 -135 15 -113 0
-135 -2 -135 -15z"/>
<path d="M2568 838 c-3 -8 -21 -11 -54 -9 -43 2 -54 -2 -77 -25 -20 -19 -27
-37 -27 -64 0 -53 25 -80 90 -94 63 -14 83 -37 57 -63 -21 -21 -82 -21 -106 1
-22 20 -41 21 -41 1 0 -8 15 -24 33 -36 45 -28 113 -21 144 16 28 32 29 46 4
76 -18 22 -18 25 -3 42 15 17 17 41 10 121 -3 38 -22 60 -30 34z m-20 -54 c45
-31 17 -104 -40 -104 -33 0 -68 31 -68 60 0 27 35 60 63 60 12 0 33 -7 45 -16z"/>
<path d="M708 824 c-35 -19 -48 -43 -48 -92 0 -33 6 -45 31 -66 43 -36 91 -35
130 3 48 49 38 125 -21 156 -36 19 -57 18 -92 -1z m96 -67 c12 -34 0 -58 -37
-71 -33 -12 -67 15 -67 54 0 36 19 51 60 48 28 -2 37 -9 44 -31z"/>
<path d="M1032 824 c-12 -8 -22 -10 -22 -5 0 6 -9 11 -20 11 -19 0 -20 -7 -20
-95 0 -88 1 -95 20 -95 18 0 20 7 20 65 0 58 2 66 26 82 43 28 58 9 62 -76 3
-68 4 -71 27 -71 23 0 25 3 25 53 0 124 -50 179 -118 131z"/>
<path d="M880 735 c0 -88 1 -95 20 -95 19 0 20 7 20 95 0 88 -1 95 -20 95 -19
0 -20 -7 -20 -95z"/>
<path d="M1340 735 c0 -78 3 -95 15 -95 11 0 15 12 15 45 0 25 7 61 14 80 13
29 20 35 45 35 21 0 31 5 31 15 0 10 -10 15 -30 15 -18 0 -33 -6 -36 -15 -4
-8 -10 -15 -15 -15 -5 0 -9 7 -9 15 0 8 -7 15 -15 15 -12 0 -15 -17 -15 -95z"/>
<path d="M1496 799 c-70 -83 22 -198 117 -148 16 9 22 9 25 0 2 -6 10 -11 18
-11 11 0 14 20 14 95 0 75 -3 95 -14 95 -8 0 -16 -6 -19 -12 -4 -10 -7 -10
-18 0 -7 6 -32 12 -55 12 -35 0 -47 -5 -68 -31z m128 -32 c19 -26 19 -30 5
-55 -34 -61 -119 -47 -119 20 0 69 72 91 114 35z"/>
<path d="M1736 799 c-36 -43 -35 -91 3 -130 22 -21 39 -29 66 -29 49 0 80 17
65 35 -9 11 -17 11 -36 3 -31 -15 -70 2 -86 37 -10 22 -8 30 9 53 21 29 66 41
87 23 10 -8 17 -7 25 3 17 20 -14 36 -67 36 -33 0 -45 -6 -66 -31z"/>
<path d="M2115 735 c0 -84 2 -95 18 -95 15 0 17 11 17 95 0 84 -2 95 -17 95
-16 0 -18 -11 -18 -95z"/>
<path d="M2200 735 c0 -78 3 -95 15 -95 11 0 15 13 15 53 0 66 17 101 52 105
40 5 61 -33 56 -103 -3 -47 0 -55 15 -55 15 0 17 10 17 73 0 92 -15 117 -70
117 -21 0 -42 -4 -45 -10 -3 -5 -11 -10 -16 -10 -6 0 -7 5 -4 10 3 6 -3 10
-14 10 -20 0 -21 -6 -21 -95z"/>
</g>
</svg>
