<svg xmlns="http://www.w3.org/2000/svg" viewBox="0 0 464 464"><path fill="#0152FF" d="m231.25.75 2.709-.002C247.53.764 260.662 1.305 274 4l2.655.504C318.28 12.516 355.358 32.169 387 60l3.008 2.633C395.432 67.466 400.356 72.423 405 78l2.555 2.93c39.747 45.7 58.92 106.15 55.243 166.38C459.258 292.866 443.606 337.1 415 373l-2.066 2.648c-37.777 47.447-92.985 78.815-153.439 85.754-62.617 6.16-124.165-10.268-173.569-49.803-5.307-4.405-10.3-9.15-15.239-13.959a479.244 479.244 0 0 0-4.683-4.48C58.907 386.305 52.897 378.878 47 371l-1.26-1.65C9.547 321.879-5.006 260.3 2.124 201.375 7.597 161.738 22.715 122.265 48 91l1.906-2.48C55.514 81.29 61.71 74.63 68 68c.713-.755 1.426-1.51 2.16-2.29C75.386 60.325 81.12 55.655 87 51l2.96-2.406C98.814 41.548 108.226 35.678 118 30l1.865-1.101C153.51 9.184 192.606.776 231.25.75Z"/><path fill="#FEFEFF" d="m230.125 69.688 2.328.006C276.717 69.893 316.486 86.847 348 118c11.476 11.613 20.297 24.678 28 39l1.617 2.95c6.484 12.311 10.385 25.052 13.258 38.613l.653 3.063C392.682 207.382 393 211.95 393 218h-82l-4-16c-3.856-9.316-9.26-17.515-16-25l-1.79-2.07c-13.26-14.389-32.834-22.427-52.155-23.301-22.758-.45-40.306 4.5-58.055 19.371l-2.512 1.934c-13.38 11.11-22.685 30.525-24.32 47.703-.828 11.656-1.064 23.221 2.832 34.363l1.102 3.262C163.269 278.167 176.963 294.426 196 304c11.884 5.167 21.84 7.347 34.75 7.313l3.633.048c10.873.006 20.69-2.066 30.617-6.486l2.04-.905c6.686-3.1 12.377-7.162 17.96-11.97l2.422-2.082C300.298 277.952 307.604 261.981 311 245h82c-1.155 18.474-1.155 18.474-3.188 24.938l-.668 2.245c-.691 2.28-1.413 4.55-2.144 6.817l-.692 2.193c-7.982 25-21.5 45.631-39.308 64.807l-1.75 1.95C334.205 359.708 320.319 368.761 306 376l-1.93.976c-14.826 7.39-29.792 12.146-46.07 15.024l-2.054.364c-18.7 3.155-37.401 2.214-55.946-1.364l-2.197-.406c-27.992-5.3-52.279-19.392-73.803-37.594l-1.992-1.617c-4.526-3.721-8.241-7.909-12.008-12.383l-2.277-2.547C90.793 317.09 78.35 292.138 73 267l-.852-3.79c-4.29-21.194-4.382-46.193.852-67.21l.504-2.18C76.288 181.9 80.649 170.988 86 160l.949-1.988C93.98 143.416 103.813 130.672 115 119l2.438-2.629c19.822-20.736 45.54-34.401 72.937-42.246l2.012-.58c12.432-3.322 24.955-3.922 37.738-3.858Z"/><path fill="#2B6FFF" d="m84 53 2 1-27 27-2-1c8.599-9.484 17.235-18.69 27-27Z"/></svg>