<svg xmlns="http://www.w3.org/2000/svg" viewBox="0 0 254 197"><path fill="#255E39" d="M0 0h254v197H0V0Z"/><path fill="#FDFDFD" d="M0 0h254v61c-2-3-2-3-3.559-5.898C245.564 46.076 239.902 38.57 233 31l-1.8-2.05C220.243 17.124 203.624 8.533 188 5l-3.652-.84c-25.574-5.418-51.415-1.946-73.66 12.152C104.602 20.316 99.204 24.916 94 30l-2.133 2.05C88.511 35.209 88.511 35.209 86 39c-4.085-1.362-4.539-3.214-6.617-6.941l-1.028-1.822a953.299 953.299 0 0 1-3.23-5.8c-1.41-2.523-2.827-5.045-4.242-7.566l-1.024-1.83A253.326 253.326 0 0 0 62 2c-2.666 2.408-4.302 4.992-6.082 8.102l-1.805 3.138-1.925 3.385a8874.59 8874.59 0 0 1-2 3.493C40.93 36.302 31.753 52.537 23 69l15-3c-2.074 6.673-4.67 12.798-7.75 19.063-.971 2.001-1.941 4.004-2.91 6.007l-1.598 3.302c-3.369 6.994-6.64 14.034-9.93 21.066l-2.036 4.35C12.183 123.19 10.591 126.594 9 130c3.347 0 6.42-1.335 9.59-2.344C21 127 21 127 24 127c-1.986 6.184-4.212 12.224-6.652 18.242l-1.035 2.573a5712.609 5712.609 0 0 1-3.25 8.06C6.779 171.341 6.779 171.341 1 187l3.383-1.172C33.689 175.938 66.608 172.704 97 180l2.02.47c9.68 2.297 19.132 5.35 28.449 8.823l3.594 1.332 3.222 1.227c9.292 2.872 18.34 3.508 28.028 3.46l3.618-.017c8.43-.116 16.007-.667 24.069-3.295l1.89-.602c25.35-8.24 43.191-23.36 56.837-46.18 3.078-5.12 3.078-5.12 5.273-6.218v58H0V0Z"/><path fill="#FBFAFA" d="m197 57 1.988 1.434C205.192 63.289 209.561 69.982 213 77c8.238-2.222 16.01-5.342 23.875-8.625 2.392-.995 4.785-1.987 7.18-2.977l3.171-1.322C250 63 250 63 254 62v77l-2 1v-5c-3.785-1.495-7.572-2.988-11.359-4.48l-3.848-1.519c-7.891-3.116-15.8-6.155-23.793-9.001l-1.438 3.313c-6.46 12.652-16.917 21.393-30 26.687-14.44 4.054-30.118 3.508-43.421-3.508-14.3-8.493-22.85-20.34-27.223-36.265-2.65-11.059-1.546-21.84 3.082-32.227l1.215-2.797c6.558-13.458 18.471-22.913 32.347-28.14 17.31-4.46 35.26-.587 49.438 9.937Z"/><path fill="#C30230" d="M222 20c4.178 3.507 8.117 7.17 12 11l2.441 2.402c7.75 8.1 14.153 17.892 17.559 28.598l-2.13.887-2.991 1.246-3.324 1.384c-2.344.978-4.687 1.959-7.028 2.943-3.526 1.48-7.057 2.949-10.59 4.415l-3.662 1.547-3.498 1.445-3.148 1.316C215 78 215 78 212 77c-1.43-2.074-1.43-2.074-2.875-4.688-6.551-11.795-16.967-19.467-29.688-23.656-13.867-3.733-28.568-2.867-41.292 3.852-13.494 8.003-22.389 19.533-26.7 34.695-.468 2.942-.46 5.765-.437 8.738-.033 8.823-.033 8.823-3.09 12.7-2.877 2.288-5.87 4.304-8.918 6.359-2.07 1.76-4.033 3.626-6 5.5-14.706 13.688-14.706 13.688-21 16.5-9.571-23.37-10.763-50.594-1.123-74.142C80.121 41.559 94.777 24.395 115 13l2.95-1.703C150.13-6.09 193.007-2.14 222 20Z"/><path fill="#021A71" d="M213 119c4.455 1.649 8.902 3.32 13.345 5.002a869.7 869.7 0 0 0 5.654 2.101c3.152 1.16 6.295 2.34 9.439 3.522l3.105 1.127 2.89 1.1 2.596.963C252 134 252 134 252.844 135.97c.65 8.44-8.896 18.789-13.844 25.03l-1.797 2.3C222.688 180.764 198.718 193.868 176 196c-24.221 1.033-48.36-.295-68-16l-2.254-1.684C89.202 165.858 89.202 165.858 87 159l2.71-2.309c6.414-5.472 12.78-10.98 19.024-16.644 3.385-3.058 6.822-6.055 10.266-9.047 3.255 1.406 5.146 3.06 7.5 5.688 9.06 9.262 20.319 14.305 33.16 14.61 6.945.042 13.708-.035 20.34-2.298l2.367-.742c13.4-4.717 22.883-14.118 29.383-26.625L213 119Z"/><path fill="#031A71" d="M144 75c5.356 3.392 9.73 7.374 14.316 11.758 2.548 2.128 4.55 3.233 7.684 4.242l2.887-2.738 3.8-3.575 1.897-1.802C177.874 79.8 180.981 77.128 185 75l2.02 1.871c5.708 5.246 11.507 10.282 17.57 15.121 6.23 5.19 6.23 5.19 6.941 8.418-.146 12.453-5.049 23.28-13.304 32.59-7.913 7.479-18.318 13.068-29.227 14l-2.828.246c-13.67.59-24.47-4.81-35.36-12.496-8.217-8.035-14.551-18.992-15.562-30.625.311-4.39 2.27-6.493 5.5-9.32L123 93l2.563-2.117a730.745 730.745 0 0 1 5.57-4.528C135.558 82.72 139.782 78.871 144 75Z"/><path fill="#FDD204" d="m185 56 2.71 1.316C198.568 63.18 205.584 72.621 210 84c1.35 4.746 2 9.066 2 14-3.448-1.5-5.824-3.504-8.563-6.063C197.274 86.285 190.97 80.648 184 76c-.63.568-1.258 1.137-1.906 1.723A1149.098 1149.098 0 0 1 166 92c-4.987-1.492-7.931-4.457-11.563-8-4.696-4.736-4.696-4.736-10.437-8l-2.02 1.871C135.502 83.824 128.851 89.476 122 95a1141.003 1141.003 0 0 0-6 5c-.894-12.845 3.251-22.822 11-33 15.042-16.604 38.252-20.822 58-11Z"/><path fill="#7A853B" d="M144 75c4.288 2.723 7.96 5.643 11.688 9.125 2.718 2.534 5.218 4.812 8.312 6.875-1.546 3.816-3.888 5.97-6.938 8.688l-1.478 1.322c-4.14 3.672-8.43 7.147-12.74 10.615-3.726 3.111-7.272 6.397-10.785 9.746-2.532 2.38-4.832 4.294-8.059 5.629-.963-1.872-1.92-3.748-2.875-5.625l-1.617-3.164c-2.77-5.9-4.955-11.678-3.508-18.211 1.876-2.889 4.328-4.857 7-7l2.563-2.117a730.745 730.745 0 0 1 5.57-4.528C135.558 82.72 139.782 78.871 144 75Z"/><path fill="#6D3C5E" d="m111 106 .918 3.184c2.298 7.766 4.613 14.97 9.082 21.816l-1.984 1.582c-5.16 4.162-10.165 8.403-15.016 12.918-5.47 5.092-11.155 9.84-17 14.5-3.982-3.669-6.643-7.335-9.25-12.063l-1.063-1.853C75.02 143.116 73.573 140.378 73 137c6.558-6.123 13.18-12.04 20.188-17.652 3.762-3.14 7.325-6.482 10.841-9.895C107.675 106 107.675 106 111 106Z"/><path fill="#35647D" d="M184 75c5.83 4.11 11.098 8.686 16.3 13.563 2.59 2.423 2.59 2.423 5.18 4.25 3.114 2.292 5.18 3.841 6.149 7.675.425 9.706-3.604 18.436-8.629 26.512l-1.875-1.938c-5.87-5.853-12.118-11.29-18.563-16.5C176.118 103.349 169.865 97.865 164 92l2.09-1.688C172.198 85.353 178.17 80.284 184 75Z"/><path fill="#FEDE22" d="m135 60 2 1-11 11-2-1a717.163 717.163 0 0 1 3.25-3.813l1.828-2.144c1.846-1.962 3.721-3.5 5.922-5.043Z"/><path fill="#45755B" d="M109 181c3.76 1.034 5.17 2.17 8 5l-11-3 3-2Z"/><path fill="#4F7F60" d="m24 65 1 2 11-1v1l-13 2 1-4Z"/></svg>