<?xml version="1.0" encoding="UTF-8"?>
<svg version="1.1" xmlns="http://www.w3.org/2000/svg" width="254" height="197">
<path d="M0 0 C83.82 0 167.64 0 254 0 C254 65.01 254 130.02 254 197 C170.18 197 86.36 197 0 197 C0 131.99 0 66.98 0 0 Z " fill="#255E39" transform="translate(0,0)"/>
<path d="M0 0 C83.82 0 167.64 0 254 0 C254 20.13 254 40.26 254 61 C252 58 252 58 250.44140625 55.1015625 C245.56357778 46.07605867 239.90237971 38.57068879 233 31 C232.40574219 30.32324219 231.81148437 29.64648438 231.19921875 28.94921875 C220.24437377 17.12451014 203.62450839 8.5338504 188 5 C186.79472656 4.72285156 185.58945313 4.44570312 184.34765625 4.16015625 C158.77417322 -1.25753788 132.93293113 2.2138374 110.6875 16.3125 C104.6016815 20.31637252 99.20467262 24.91572017 94 30 C92.94425781 31.01513672 92.94425781 31.01513672 91.8671875 32.05078125 C88.51106627 35.20766805 88.51106627 35.20766805 86 39 C81.91471475 37.63823825 81.46098573 35.78559446 79.3828125 32.05859375 C79.04377899 31.45749283 78.70474548 30.85639191 78.35543823 30.23707581 C77.26990008 28.30862811 76.19708095 26.37345578 75.125 24.4375 C73.71411291 21.91357977 72.29846937 19.39234086 70.8828125 16.87109375 C70.54493713 16.26711761 70.20706177 15.66314148 69.85894775 15.04086304 C67.36815994 10.6040756 64.75182831 6.27882324 62 2 C59.33448576 4.40817141 57.69828306 6.99238148 55.91796875 10.1015625 C55.32242188 11.13708252 54.726875 12.17260254 54.11328125 13.23950195 C53.47777344 14.35671631 52.84226563 15.47393066 52.1875 16.625 C51.52109934 17.78945891 50.85442872 18.95376337 50.1875 20.11791992 C40.93068749 36.30218373 31.75265124 52.53667981 23 69 C27.95 68.01 32.9 67.02 38 66 C35.92604704 72.67301098 33.33060795 78.79820286 30.25 85.0625 C29.27859712 87.06444928 28.30863363 89.06709742 27.33984375 91.0703125 C26.54876221 92.70468262 26.54876221 92.70468262 25.74169922 94.37207031 C22.3730026 101.36581172 19.10119743 108.40590787 15.8125 115.4375 C15.13382358 116.88746733 14.45511339 118.33741885 13.77636719 119.78735352 C12.18329197 123.1911238 10.59131013 126.59540409 9 130 C12.34653694 130 15.42039041 128.66450025 18.58984375 127.65625 C21 127 21 127 24 127 C22.01427175 133.18398243 19.7878242 139.22422353 17.34765625 145.2421875 C17.00625107 146.09120636 16.66484589 146.94022522 16.31309509 147.81497192 C15.23207037 150.50266587 14.14761226 153.188954 13.0625 155.875 C6.77912222 171.34098251 6.77912222 171.34098251 1 187 C2.11632812 186.61328125 3.23265625 186.2265625 4.3828125 185.828125 C33.68892175 175.93751189 66.60784235 172.70374295 97 180 C97.66676758 180.1551709 98.33353516 180.3103418 99.02050781 180.47021484 C108.69943089 182.7670275 118.15151684 185.81999107 127.46875 189.29296875 C128.6546875 189.73253906 129.840625 190.17210937 131.0625 190.625 C132.12597656 191.02976563 133.18945312 191.43453125 134.28515625 191.8515625 C143.57746226 194.72426278 152.62428287 195.36040388 162.3125 195.3125 C164.10361206 195.30404053 164.10361206 195.30404053 165.9309082 195.29541016 C174.3610904 195.1791794 181.93838254 194.62771049 190 192 C190.93513428 191.70198486 190.93513428 191.70198486 191.88916016 191.39794922 C217.24006336 183.15751684 235.08132548 168.03878987 248.72729492 145.21801758 C251.80476766 140.09761617 251.80476766 140.09761617 254 139 C254 158.14 254 177.28 254 197 C170.18 197 86.36 197 0 197 C0 131.99 0 66.98 0 0 Z " fill="#FDFDFD" transform="translate(0,0)"/>
<path d="M0 0 C0.65613281 0.47308594 1.31226563 0.94617187 1.98828125 1.43359375 C8.19172898 6.28906392 12.5611382 12.98165036 16 20 C24.23839404 17.77769262 32.0090674 14.65817187 39.875 11.375 C42.26721473 10.38036914 44.66040281 9.38807517 47.0546875 8.3984375 C48.10124512 7.96192871 49.14780273 7.52541992 50.22607422 7.07568359 C53 6 53 6 57 5 C57 30.41 57 55.82 57 82 C56.01 82.495 56.01 82.495 55 83 C55 81.35 55 79.7 55 78 C51.21452654 76.50479006 47.4282773 75.01156244 43.64135742 73.52001953 C42.35827504 73.01435393 41.0753909 72.50818496 39.79272461 72.00146484 C31.90172043 68.88456448 23.99310874 65.84575736 16 63 C15.525625 64.093125 15.05125 65.18625 14.5625 66.3125 C8.10206161 78.96512328 -2.35460415 87.70575421 -15.4375 93 C-29.87838266 97.0535811 -45.55564041 96.50754481 -58.859375 89.4921875 C-73.15897526 80.99933099 -81.70929125 69.15197361 -86.08203125 53.2265625 C-88.73289686 42.16808167 -87.6277083 31.38695655 -83 21 C-82.39865234 19.61554688 -82.39865234 19.61554688 -81.78515625 18.203125 C-75.22740726 4.7454836 -63.31358344 -4.70987829 -49.4375 -9.9375 C-32.12753124 -14.39739533 -14.1778871 -10.52355405 0 0 Z " fill="#FBFAFA" transform="translate(197,57)"/>
<path d="M0 0 C4.17781518 3.50676714 8.11713034 7.1703933 12 11 C12.80566406 11.79277344 13.61132812 12.58554687 14.44140625 13.40234375 C22.19006532 21.50137697 28.59401999 31.29414841 32 42 C31.29689697 42.29277832 30.59379395 42.58555664 29.86938477 42.88720703 C28.88252686 43.29825684 27.89566895 43.70930664 26.87890625 44.1328125 C25.7820752 44.58946289 24.68524414 45.04611328 23.55517578 45.51660156 C21.21112215 46.49465882 18.86831579 47.47571148 16.52685547 48.45996094 C13.00083028 49.94082264 9.46957562 51.40863582 5.9375 52.875 C4.72900391 53.38546875 3.52050781 53.8959375 2.27539062 54.421875 C1.12103516 54.89882812 -0.03332031 55.37578125 -1.22265625 55.8671875 C-2.26172119 56.30144043 -3.30078613 56.73569336 -4.37133789 57.18310547 C-7 58 -7 58 -10 57 C-11.4296875 54.92578125 -11.4296875 54.92578125 -12.875 52.3125 C-19.42601148 40.51709955 -29.84217649 32.8446492 -42.5625 28.65625 C-56.42990775 24.92271714 -71.13091577 25.7886915 -83.85546875 32.5078125 C-97.34889321 40.51080907 -106.24401068 52.0414341 -110.5546875 67.203125 C-111.02309404 70.14504676 -111.01460289 72.9684764 -110.99194336 75.94140625 C-111.02545456 84.76399115 -111.02545456 84.76399115 -114.08203125 88.640625 C-116.9592845 90.92925563 -119.95266091 92.94464306 -123 95 C-125.07005107 96.76090923 -127.03276148 98.62570442 -129 100.5 C-143.70570026 114.18796331 -143.70570026 114.18796331 -150 117 C-159.57148912 93.63001896 -160.76344158 66.4060235 -151.12304688 42.85791016 C-141.87944936 21.5593662 -127.22320872 4.39468338 -107 -7 C-106.02675781 -7.56203125 -105.05351563 -8.1240625 -104.05078125 -8.703125 C-71.86898073 -26.08920004 -28.99166492 -22.13908958 0 0 Z " fill="#C30230" transform="translate(222,20)"/>
<path d="M0 0 C4.45538794 1.64894619 8.90185574 3.3200767 13.34472656 5.00244141 C15.22690683 5.70955694 17.1119842 6.40898279 18.99902344 7.10302734 C22.15076109 8.26257362 25.29431886 9.44248243 28.4375 10.625 C29.46238525 10.99681396 30.48727051 11.36862793 31.54321289 11.75170898 C32.97395142 12.29613647 32.97395142 12.29613647 34.43359375 12.8515625 C35.71834595 13.32843506 35.71834595 13.32843506 37.02905273 13.81494141 C39 15 39 15 39.84375 16.9699707 C40.49342913 25.41072381 30.94776473 35.75864029 26 42 C25.40703125 42.75925781 24.8140625 43.51851562 24.203125 44.30078125 C9.68750758 61.76294494 -14.28234764 74.8665569 -37 77 C-61.22105191 78.03276946 -85.35950409 76.70549321 -105 61 C-105.74378906 60.44441406 -106.48757812 59.88882813 -107.25390625 59.31640625 C-123.79829816 46.85775982 -123.79829816 46.85775982 -126 40 C-125.10539062 39.23816406 -124.21078125 38.47632813 -123.2890625 37.69140625 C-116.87637214 32.21935059 -110.50956553 26.71190714 -104.265625 21.046875 C-100.88076288 17.98882715 -97.44363278 14.99153574 -94 12 C-90.74459922 13.40639025 -88.85406513 15.05982643 -86.5 17.6875 C-77.43916873 26.95043159 -66.1810049 31.99274637 -53.34033203 32.2980957 C-46.39490631 32.33973156 -39.63170864 32.26258295 -33 30 C-32.21882813 29.75507813 -31.43765625 29.51015625 -30.6328125 29.2578125 C-17.23315198 24.54079805 -7.75035638 15.14019465 -1.25 2.6328125 C-0.8375 1.76398438 -0.425 0.89515625 0 0 Z " fill="#021A71" transform="translate(213,119)"/>
<path d="M0 0 C5.35552828 3.39157167 9.73048255 7.37353935 14.31640625 11.7578125 C16.86387172 13.88626254 18.8665855 14.9914145 22 16 C22.95261719 15.09636719 23.90523437 14.19273438 24.88671875 13.26171875 C26.15342443 12.07007711 27.42036387 10.87868391 28.6875 9.6875 C29.31333984 9.09259766 29.93917969 8.49769531 30.58398438 7.88476562 C33.87475275 4.80074709 36.98137595 2.12841083 41 0 C41.66644531 0.61746094 42.33289063 1.23492187 43.01953125 1.87109375 C48.7281423 7.11662866 54.5269502 12.15258764 60.58984375 16.9921875 C66.81970816 22.18205834 66.81970816 22.18205834 67.53125 25.41015625 C67.38452482 37.86345569 62.48204938 48.68984739 54.2265625 58 C46.31381371 65.47871616 35.90872336 71.06835437 25 72 C24.06671875 72.08121094 23.1334375 72.16242188 22.171875 72.24609375 C8.50219507 72.83653804 -2.2982359 67.43653936 -13.1875 59.75 C-21.40487698 51.71523139 -27.73929647 40.75799942 -28.75 29.125 C-28.43874508 24.7355076 -26.48070743 22.6315565 -23.25 19.8046875 C-22.5075 19.20914063 -21.765 18.61359375 -21 18 C-20.154375 17.30132812 -19.30875 16.60265625 -18.4375 15.8828125 C-16.58822798 14.36451814 -14.73128441 12.85552457 -12.8671875 11.35546875 C-8.44244171 7.72042555 -4.21848422 3.87075667 0 0 Z " fill="#031A71" transform="translate(144,75)"/>
<path d="M0 0 C0.89460938 0.43441406 1.78921875 0.86882813 2.7109375 1.31640625 C13.56733148 7.178859 20.58301944 16.62066024 25 28 C26.34950368 32.74608059 27 37.065874 27 42 C23.55220914 40.49993609 21.17639467 38.49590738 18.4375 35.9375 C12.27265981 30.28487205 5.96967741 24.64645161 -1 20 C-1.6290625 20.56847656 -2.258125 21.13695313 -2.90625 21.72265625 C-8.23211968 26.5271682 -13.58511587 31.29600848 -19 36 C-23.98743064 34.50843196 -26.93142754 31.54332502 -30.5625 28 C-35.25906082 23.26431569 -35.25906082 23.26431569 -41 20 C-41.66644531 20.61746094 -42.33289063 21.23492187 -43.01953125 21.87109375 C-49.49783882 27.82388826 -56.14900967 33.47570939 -63 39 C-65.00712736 40.65839866 -67.00426503 42.32789773 -69 44 C-69.89444705 31.15474652 -65.74873183 21.17814981 -58 11 C-42.95796817 -5.60359869 -19.74821462 -9.8220012 0 0 Z " fill="#FDD204" transform="translate(185,56)"/>
<path d="M0 0 C4.28792054 2.72349458 7.96086865 5.64265272 11.6875 9.125 C14.40593357 11.65919672 16.90611339 13.93740893 20 16 C18.45427224 19.81628832 16.11228755 21.97025743 13.0625 24.6875 C12.57450928 25.12392822 12.08651855 25.56035645 11.58374023 26.01000977 C7.44438884 29.68168288 3.1542964 33.15674428 -1.15625 36.625 C-4.88158413 39.73626806 -8.42845194 43.02239671 -11.94116211 46.37084961 C-14.47323772 48.75074994 -16.77334734 50.66509642 -20 52 C-20.96345444 50.12762629 -21.92053102 48.2519701 -22.875 46.375 C-23.40867187 45.33085938 -23.94234375 44.28671875 -24.4921875 43.2109375 C-27.26231047 37.31186734 -29.44678461 31.53349556 -28 25 C-26.12378629 22.11112789 -23.67216304 20.14329744 -21 18 C-20.154375 17.30132812 -19.30875 16.60265625 -18.4375 15.8828125 C-16.58822798 14.36451814 -14.73128441 12.85552457 -12.8671875 11.35546875 C-8.44244171 7.72042555 -4.21848422 3.87075667 0 0 Z " fill="#7A853B" transform="translate(144,75)"/>
<path d="M0 0 C0.30292969 1.05058594 0.60585937 2.10117188 0.91796875 3.18359375 C3.21554955 10.95006406 5.53141385 18.15450633 10 25 C9.34515625 25.52207031 8.6903125 26.04414063 8.015625 26.58203125 C2.85533541 30.74379023 -2.14926847 34.98462376 -7 39.5 C-12.46969905 44.59155144 -18.15506859 49.34016295 -24 54 C-27.98232778 50.33096724 -30.64316353 46.66489768 -33.25 41.9375 C-33.600625 41.32583984 -33.95125 40.71417969 -34.3125 40.08398438 C-35.98121521 37.11559674 -37.4271484 34.37813958 -38 31 C-31.44231174 24.87720206 -24.8192745 18.95918641 -17.8125 13.34765625 C-14.05017212 10.20715756 -10.48696844 6.86610283 -6.97070312 3.453125 C-3.32463848 0 -3.32463848 0 0 0 Z " fill="#6D3C5E" transform="translate(111,106)"/>
<path d="M0 0 C5.83043424 4.10970437 11.09789229 8.68615219 16.30078125 13.5625 C18.89058893 15.98553895 18.89058893 15.98553895 21.48046875 17.8125 C24.59352223 20.10458893 26.65980595 21.65401484 27.62890625 25.48828125 C28.05445689 35.19358123 24.02478887 43.92444646 19 52 C18.071875 51.0409375 18.071875 51.0409375 17.125 50.0625 C11.25501774 44.20900645 5.00673282 38.77135771 -1.4375 33.5625 C-7.88257776 28.34767925 -14.13523865 22.86476135 -20 17 C-19.31035156 16.443125 -18.62070313 15.88625 -17.91015625 15.3125 C-11.80242122 10.35258349 -5.83030237 5.28326166 0 0 Z " fill="#35647D" transform="translate(184,75)"/>
<path d="M0 0 C0.66 0.33 1.32 0.66 2 1 C-1.63 4.63 -5.26 8.26 -9 12 C-9.66 11.67 -10.32 11.34 -11 11 C-9.92173635 9.72486237 -8.83714481 8.45507431 -7.75 7.1875 C-7.14671875 6.47980469 -6.5434375 5.77210937 -5.921875 5.04296875 C-4.07629602 3.08110329 -2.20054668 1.54330375 0 0 Z " fill="#FEDE22" transform="translate(135,60)"/>
<path d="M0 0 C3.75931429 1.03381143 5.16972619 2.16972619 8 5 C4.37 4.01 0.74 3.02 -3 2 C-2.01 1.34 -1.02 0.68 0 0 Z " fill="#45755B" transform="translate(109,181)"/>
<path d="M0 0 C0.33 0.66 0.66 1.32 1 2 C6.445 1.505 6.445 1.505 12 1 C12 1.33 12 1.66 12 2 C7.71 2.66 3.42 3.32 -1 4 C-0.67 2.68 -0.34 1.36 0 0 Z " fill="#4F7F60" transform="translate(24,65)"/>
</svg>
