<svg version="1.2" xmlns="http://www.w3.org/2000/svg" viewBox="0 0 1109 1570" width="500" height="500">
	<title>computershare-svg</title>
	<style>
		.s0 { fill: #821e67 } 
	</style>
	<g id="layer1">
		<g id="g3945">
			<path id="path3971" class="s0" d="m545 1391.4c-145.3-65.5-226.1-218.1-226.1-393.8 0-85.6 19.2-176.4 59.2-265.4 98.3-218.2 308.7-324.2 459-348.8 0 0 42.8-7.3 52.1-9.1 1.5 10.3 17.6 110.7 19.2 120.7-9.8 1.3-57 8.2-57 8.2-123.6 20.4-293.2 123.2-373.5 301.3-34.7 76.9-51.3 155.5-51.3 228.6 0 145.6 65.3 271 183.5 324.2 136.3 61.6 293.8 10 412.7-134.1 4.8 6.1 12.1 15.3 15.8 19.6-141.4 165.3-330.2 222.3-493.6 148.6zm-90.3 63.2c-189.1-85.6-295-281.4-295-505.1 0-104.8 23.1-215.4 72.1-323.7 123-272.9 390.7-403.6 582.8-432.8 0 0 35.8-5.8 44.6-7.3 5.5 33.9 16.5 102.4 19.7 122.5-9.2 1.4-49.6 7.5-49.6 7.5-175.1 28.1-397 156.7-497.9 380.8-42.3 93.7-63.6 192-63.6 286.5 0 69.2 11.5 136.7 34.9 198.3 41.4 109.8 118.7 194.7 217.5 239.3 177.9 80.2 383.7 21.8 538.6-152.1 4.5 5.4 11.1 13.8 14.8 18.5-177.4 195.7-413.8 260-618.9 167.6zm377-1454.1c1.4 9.5 16.5 107.2 18.1 117.3-9.4 1.3-47.4 6.2-47.4 6.2-208.3 25.8-490.5 182.2-617.5 464.3-52.2 115.9-76.9 234.3-76.9 346.5 0 242.4 115.7 455.5 322.1 548.7 219.4 99.1 473.2 33.6 664-170.7 4.4 5.5 10.5 13.2 14 17.7-213.1 226.4-497.6 298.3-744 187-339.3-153.1-461.9-591.7-278.9-998.1 138.9-308.4 455.4-481 707.3-515 0 0 27.4-2.7 39.2-3.9z"/>
		</g>
	</g>
</svg>