<svg version="1.1" id="Layer_1" xmlns="http://www.w3.org/2000/svg" xmlns:xlink="http://www.w3.org/1999/xlink" x="0px" y="0px"
	 width="100%" viewBox="0 0 620 620" enable-background="new 0 0 620 620" xml:space="preserve">
<path fill="#FFFFFF" opacity="1.000000" stroke="none" 
	d="
M1.000000,219.000000 
	C1.000000,146.014603 1.000000,73.529213 1.000000,1.021909 
	C207.610428,1.021909 414.220856,1.021909 620.915649,1.021909 
	C620.915649,207.568756 620.915649,414.137543 620.915649,620.853149 
	C414.333405,620.853149 207.666718,620.853149 1.000000,620.853149 
	C1.000000,487.112427 1.000000,353.306213 1.000000,219.000000 
M608.862366,228.486938 
	C608.678833,228.129898 608.399536,228.023010 607.303833,228.054901 
	C559.747131,255.442322 512.190430,282.829773 463.326965,310.969757 
	C512.290344,339.243866 559.806213,366.682159 608.302368,394.686493 
	C608.591003,391.862579 608.971558,389.861847 608.973755,387.860718 
	C609.010437,354.216736 609.018921,320.572693 608.992676,286.928680 
	C608.977600,267.611633 608.889160,248.294662 608.862366,228.486938 
M182.616867,582.964905 
	C204.118759,593.236572 226.403030,601.091370 249.683334,606.474060 
	C269.503937,611.056946 289.581299,612.660522 309.733643,613.885132 
	C316.274139,614.282654 322.909332,613.493408 329.478485,612.964661 
	C340.236145,612.098816 351.100800,611.710022 361.691742,609.831421 
	C376.409180,607.220825 391.082855,604.018127 405.474060,599.992310 
	C428.612457,593.519470 450.242615,583.362549 470.874542,571.037964 
	C488.055939,560.774536 504.225189,549.099060 518.846863,535.492004 
	C533.207092,522.128296 547.279907,508.304260 558.329773,491.985168 
	C568.062561,477.611237 576.806885,462.568848 586.033630,447.850433 
	C587.636719,445.293274 587.462036,442.997345 584.908447,441.505188 
	C575.753296,436.155426 566.467529,431.029633 557.287415,425.721893 
	C554.932129,424.360138 553.541931,424.687714 552.298279,427.181549 
	C549.789673,432.211945 547.115417,437.162506 544.411560,442.092285 
	C534.683960,459.827698 522.567383,475.882782 508.744080,490.536163 
	C500.384735,499.397552 491.469940,507.925018 481.838196,515.348511 
	C469.465576,524.884583 456.640717,534.073730 443.080536,541.774475 
	C421.231720,554.182312 397.957275,563.685730 373.110718,568.266418 
	C357.152802,571.208374 340.994934,573.995972 324.837189,574.653503 
	C309.654266,575.271423 294.247284,573.795471 279.136719,571.767090 
	C265.460815,569.931152 251.895004,566.677368 238.563858,563.017273 
	C220.562271,558.074768 203.663940,550.335571 187.338272,541.163025 
	C170.453140,531.676208 154.632339,520.767517 140.420074,507.713196 
	C131.279266,499.317200 122.856895,490.099579 114.502335,480.896362 
	C101.942253,467.060303 91.793121,451.454529 83.071709,434.997955 
	C72.056808,414.213745 63.734650,392.397003 58.600574,369.335022 
	C54.905052,352.734894 52.353283,336.037506 52.087154,319.061859 
	C51.937023,309.485596 52.186760,299.848450 53.121822,290.323669 
	C54.278381,278.542664 55.810318,266.746643 58.103512,255.139542 
	C63.568264,227.479401 74.160477,201.640594 88.346092,177.398407 
	C103.250214,151.928345 122.432487,129.941544 144.776489,110.599411 
	C160.650955,96.857628 177.952026,85.417168 196.560776,75.839745 
	C212.012161,67.887329 228.134109,61.711380 244.852112,56.920868 
	C265.428528,51.024727 286.442169,47.605526 307.728607,47.243149 
	C322.789276,46.986752 337.973969,48.321777 352.944000,50.209435 
	C365.202362,51.755157 377.358307,54.667778 389.323792,57.858814 
	C410.539185,63.516678 430.338135,72.687775 449.298096,83.716415 
	C466.352509,93.636658 482.102844,105.349258 496.304413,118.985779 
	C504.375610,126.735847 511.710144,135.275391 519.127869,143.678818 
	C532.248474,158.543060 542.591064,175.271393 551.468994,192.941803 
	C553.997864,197.975235 554.676331,198.052124 559.311096,195.230820 
	C566.729248,190.715149 574.193909,186.261871 581.795776,182.066391 
	C587.922363,178.685150 588.323853,177.995758 585.006653,172.114777 
	C575.570740,155.386292 565.604370,139.076172 553.647034,123.907784 
	C538.960999,105.277916 522.396606,88.560356 504.024567,73.811226 
	C484.655670,58.261795 463.503021,45.302147 440.676422,35.166042 
	C415.246490,23.873913 389.037231,15.334309 361.341766,12.065915 
	C346.229950,10.282542 331.034149,8.507731 315.850525,8.251218 
	C302.953247,8.033331 290.011810,9.913553 277.103058,11.019195 
	C260.786560,12.416713 244.991882,16.299784 229.303864,20.897652 
	C206.840195,27.481329 185.616913,36.832558 165.264603,48.289604 
	C144.076050,60.217407 124.865479,74.868378 107.183090,91.448975 
	C93.406937,104.366730 81.333221,118.816032 70.197243,134.138855 
	C53.046413,157.737991 39.381554,183.147369 30.192358,210.734055 
	C25.079847,226.082199 21.323429,241.971436 18.181684,257.859222 
	C15.535362,271.241638 13.907214,284.934387 13.186944,298.561584 
	C12.247432,316.336761 13.528073,334.096436 15.856036,351.818512 
	C18.072809,368.694122 21.906660,385.130402 26.794579,401.354584 
	C33.344734,423.096130 42.623398,443.680573 54.043541,463.286255 
	C65.685143,483.272156 79.309692,501.884003 95.304878,518.542969 
	C104.967880,528.606995 115.727646,537.658936 126.346451,546.754822 
	C143.227890,561.215271 161.982727,572.867737 182.616867,582.964905 
M145.493484,179.005524 
	C141.545013,184.629333 137.353500,190.099976 133.694473,195.906189 
	C123.437134,212.182816 114.927170,229.332458 110.005791,248.007141 
	C107.181023,258.725983 104.577782,269.566833 102.917107,280.510895 
	C101.266808,291.386536 100.458023,302.448090 100.167778,313.451508 
	C99.973885,320.801819 100.794220,328.290558 102.109352,335.545410 
	C104.757095,350.151581 106.780159,365.055237 111.356316,379.087646 
	C119.849831,405.132202 133.139587,428.782684 151.113464,449.754913 
	C168.908356,470.518341 189.510651,487.723724 213.498154,500.760620 
	C239.880417,515.098999 268.238953,523.570496 298.089050,525.757141 
	C317.528900,527.181213 337.183441,526.698730 356.438446,522.711975 
	C378.297852,518.185913 399.218842,511.041260 418.869110,500.135162 
	C435.346191,490.990204 450.468231,480.079773 464.105560,467.206207 
	C471.297180,460.417328 477.847412,452.877136 484.147308,445.231293 
	C495.417480,431.553284 504.444641,416.431183 511.738495,400.220947 
	C510.804688,399.398468 510.146057,398.602844 509.308441,398.113831 
	C500.684265,393.079376 491.831207,388.402435 483.466003,382.972504 
	C478.936371,380.032288 477.604889,381.534302 475.613159,385.648560 
	C462.881378,411.948669 445.230652,434.341553 421.667999,451.823425 
	C387.984680,476.814209 350.369812,488.949890 308.211090,487.126129 
	C289.316406,486.308746 271.218292,482.681549 253.586838,476.039734 
	C231.007889,467.534180 211.100037,454.828033 193.732101,438.178131 
	C176.688980,421.839539 163.525101,402.782501 153.963760,381.134155 
	C144.699554,360.158539 140.187332,338.174377 139.094513,315.430573 
	C138.802689,309.357361 139.302338,303.181671 140.082321,297.136078 
	C141.357285,287.253876 142.595001,277.306915 144.869812,267.627319 
	C148.514526,252.118698 154.646927,237.527878 162.636200,223.656387 
	C173.796539,204.279083 187.869690,187.354156 205.279739,173.490585 
	C224.387009,158.275497 245.798416,147.273438 269.499176,140.660080 
	C284.990997,136.337311 300.786621,134.908173 316.662201,134.165527 
	C323.488281,133.846207 330.405548,135.263260 337.269318,136.003357 
	C355.646301,137.984879 373.143494,143.123825 389.844299,150.975922 
	C410.877808,160.865112 429.297455,174.224380 445.084595,191.423340 
	C458.653381,206.205658 469.435974,222.657776 478.216248,241.864899 
	C489.577820,235.278290 500.861816,228.736633 512.321960,222.092850 
	C508.311279,214.674377 504.941772,208.098770 501.263397,201.700714 
	C488.904327,180.203644 473.147919,161.450531 454.039764,145.730148 
	C438.839935,133.225204 422.319977,122.698524 404.250763,114.529007 
	C381.155182,104.086952 356.996338,97.816071 331.878754,96.231064 
	C313.763367,95.087921 295.512665,95.420418 277.470032,98.930832 
	C259.085114,102.507812 241.361145,107.914558 224.402145,115.883629 
	C207.381821,123.881500 191.270142,133.422836 177.486542,146.222809 
	C166.488495,156.436005 156.460739,167.694061 145.493484,179.005524 
z"/>
<path fill="#000000" opacity="1.000000" stroke="none" 
	d="
M182.308655,582.732727 
	C161.982727,572.867737 143.227890,561.215271 126.346451,546.754822 
	C115.727646,537.658936 104.967880,528.606995 95.304878,518.542969 
	C79.309692,501.884003 65.685143,483.272156 54.043541,463.286255 
	C42.623398,443.680573 33.344734,423.096130 26.794579,401.354584 
	C21.906660,385.130402 18.072809,368.694122 15.856036,351.818512 
	C13.528073,334.096436 12.247432,316.336761 13.186944,298.561584 
	C13.907214,284.934387 15.535362,271.241638 18.181684,257.859222 
	C21.323429,241.971436 25.079847,226.082199 30.192358,210.734055 
	C39.381554,183.147369 53.046413,157.737991 70.197243,134.138855 
	C81.333221,118.816032 93.406937,104.366730 107.183090,91.448975 
	C124.865479,74.868378 144.076050,60.217407 165.264603,48.289604 
	C185.616913,36.832558 206.840195,27.481329 229.303864,20.897652 
	C244.991882,16.299784 260.786560,12.416713 277.103058,11.019195 
	C290.011810,9.913553 302.953247,8.033331 315.850525,8.251218 
	C331.034149,8.507731 346.229950,10.282542 361.341766,12.065915 
	C389.037231,15.334309 415.246490,23.873913 440.676422,35.166042 
	C463.503021,45.302147 484.655670,58.261795 504.024567,73.811226 
	C522.396606,88.560356 538.960999,105.277916 553.647034,123.907784 
	C565.604370,139.076172 575.570740,155.386292 585.006653,172.114777 
	C588.323853,177.995758 587.922363,178.685150 581.795776,182.066391 
	C574.193909,186.261871 566.729248,190.715149 559.311096,195.230820 
	C554.676331,198.052124 553.997864,197.975235 551.468994,192.941803 
	C542.591064,175.271393 532.248474,158.543060 519.127869,143.678818 
	C511.710144,135.275391 504.375610,126.735847 496.304413,118.985779 
	C482.102844,105.349258 466.352509,93.636658 449.298096,83.716415 
	C430.338135,72.687775 410.539185,63.516678 389.323792,57.858814 
	C377.358307,54.667778 365.202362,51.755157 352.944000,50.209435 
	C337.973969,48.321777 322.789276,46.986752 307.728607,47.243149 
	C286.442169,47.605526 265.428528,51.024727 244.852112,56.920868 
	C228.134109,61.711380 212.012161,67.887329 196.560776,75.839745 
	C177.952026,85.417168 160.650955,96.857628 144.776489,110.599411 
	C122.432487,129.941544 103.250214,151.928345 88.346092,177.398407 
	C74.160477,201.640594 63.568264,227.479401 58.103512,255.139542 
	C55.810318,266.746643 54.278381,278.542664 53.121822,290.323669 
	C52.186760,299.848450 51.937023,309.485596 52.087154,319.061859 
	C52.353283,336.037506 54.905052,352.734894 58.600574,369.335022 
	C63.734650,392.397003 72.056808,414.213745 83.071709,434.997955 
	C91.793121,451.454529 101.942253,467.060303 114.502335,480.896362 
	C122.856895,490.099579 131.279266,499.317200 140.420074,507.713196 
	C154.632339,520.767517 170.453140,531.676208 187.338272,541.163025 
	C203.663940,550.335571 220.562271,558.074768 238.563858,563.017273 
	C251.895004,566.677368 265.460815,569.931152 279.136719,571.767090 
	C294.247284,573.795471 309.654266,575.271423 324.837189,574.653503 
	C340.994934,573.995972 357.152802,571.208374 373.110718,568.266418 
	C397.957275,563.685730 421.231720,554.182312 443.080536,541.774475 
	C456.640717,534.073730 469.465576,524.884583 481.838196,515.348511 
	C491.469940,507.925018 500.384735,499.397552 508.744080,490.536163 
	C522.567383,475.882782 534.683960,459.827698 544.411560,442.092285 
	C547.115417,437.162506 549.789673,432.211945 552.298279,427.181549 
	C553.541931,424.687714 554.932129,424.360138 557.287415,425.721893 
	C566.467529,431.029633 575.753296,436.155426 584.908447,441.505188 
	C587.462036,442.997345 587.636719,445.293274 586.033630,447.850433 
	C576.806885,462.568848 568.062561,477.611237 558.329773,491.985168 
	C547.279907,508.304260 533.207092,522.128296 518.846863,535.492004 
	C504.225189,549.099060 488.055939,560.774536 470.874542,571.037964 
	C450.242615,583.362549 428.612457,593.519470 405.474060,599.992310 
	C391.082855,604.018127 376.409180,607.220825 361.691742,609.831421 
	C351.100800,611.710022 340.236145,612.098816 329.478485,612.964661 
	C322.909332,613.493408 316.274139,614.282654 309.733643,613.885132 
	C289.581299,612.660522 269.503937,611.056946 249.683334,606.474060 
	C226.403030,601.091370 204.118759,593.236572 182.308655,582.732727 
z"/>
<path fill="#2DD3C8" opacity="1.000000" stroke="none" 
	d="
M145.747894,178.746918 
	C156.460739,167.694061 166.488495,156.436005 177.486542,146.222809 
	C191.270142,133.422836 207.381821,123.881500 224.402145,115.883629 
	C241.361145,107.914558 259.085114,102.507812 277.470032,98.930832 
	C295.512665,95.420418 313.763367,95.087921 331.878754,96.231064 
	C356.996338,97.816071 381.155182,104.086952 404.250763,114.529007 
	C422.319977,122.698524 438.839935,133.225204 454.039764,145.730148 
	C473.147919,161.450531 488.904327,180.203644 501.263397,201.700714 
	C504.941772,208.098770 508.311279,214.674377 512.321960,222.092850 
	C500.861816,228.736633 489.577820,235.278290 478.216248,241.864899 
	C469.435974,222.657776 458.653381,206.205658 445.084595,191.423340 
	C429.297455,174.224380 410.877808,160.865112 389.844299,150.975922 
	C373.143494,143.123825 355.646301,137.984879 337.269318,136.003357 
	C330.405548,135.263260 323.488281,133.846207 316.662201,134.165527 
	C300.786621,134.908173 284.990997,136.337311 269.499176,140.660080 
	C245.798416,147.273438 224.387009,158.275497 205.279739,173.490585 
	C187.869690,187.354156 173.796539,204.279083 162.636200,223.656387 
	C154.646927,237.527878 148.514526,252.118698 144.869812,267.627319 
	C142.595001,277.306915 141.357285,287.253876 140.082321,297.136078 
	C139.302338,303.181671 138.802689,309.357361 139.094513,315.430573 
	C140.187332,338.174377 144.699554,360.158539 153.963760,381.134155 
	C163.525101,402.782501 176.688980,421.839539 193.732101,438.178131 
	C211.100037,454.828033 231.007889,467.534180 253.586838,476.039734 
	C271.218292,482.681549 289.316406,486.308746 308.211090,487.126129 
	C350.369812,488.949890 387.984680,476.814209 421.667999,451.823425 
	C445.230652,434.341553 462.881378,411.948669 475.613159,385.648560 
	C477.604889,381.534302 478.936371,380.032288 483.466003,382.972504 
	C491.831207,388.402435 500.684265,393.079376 509.308441,398.113831 
	C510.146057,398.602844 510.804688,399.398468 511.738495,400.220947 
	C504.444641,416.431183 495.417480,431.553284 484.147308,445.231293 
	C477.847412,452.877136 471.297180,460.417328 464.105560,467.206207 
	C450.468231,480.079773 435.346191,490.990204 418.869110,500.135162 
	C399.218842,511.041260 378.297852,518.185913 356.438446,522.711975 
	C337.183441,526.698730 317.528900,527.181213 298.089050,525.757141 
	C268.238953,523.570496 239.880417,515.098999 213.498154,500.760620 
	C189.510651,487.723724 168.908356,470.518341 151.113464,449.754913 
	C133.139587,428.782684 119.849831,405.132202 111.356316,379.087646 
	C106.780159,365.055237 104.757095,350.151581 102.109352,335.545410 
	C100.794220,328.290558 99.973885,320.801819 100.167778,313.451508 
	C100.458023,302.448090 101.266808,291.386536 102.917107,280.510895 
	C104.577782,269.566833 107.181023,258.725983 110.005791,248.007141 
	C114.927170,229.332458 123.437134,212.182816 133.694473,195.906189 
	C137.353500,190.099976 141.545013,184.629333 145.747894,178.746918 
z"/>
<path fill="#2DD3C8" opacity="1.000000" stroke="none" 
	d="
M608.833740,228.977661 
	C608.889160,248.294662 608.977600,267.611633 608.992676,286.928680 
	C609.018921,320.572693 609.010437,354.216736 608.973755,387.860718 
	C608.971558,389.861847 608.591003,391.862579 608.302368,394.686493 
	C559.806213,366.682159 512.290344,339.243866 463.326965,310.969757 
	C512.190430,282.829773 559.747131,255.442322 607.755432,228.285126 
	C608.369202,228.732773 608.578125,228.886871 608.833740,228.977661 
z"/>
<path fill="#2DD3C8" opacity="1.000000" stroke="none" 
	d="
M608.848022,228.732300 
	C608.578125,228.886871 608.369202,228.732773 608.115723,228.340790 
	C608.399536,228.023010 608.678833,228.129898 608.848022,228.732300 
z"/>
</svg>