<svg xmlns="http://www.w3.org/2000/svg" viewBox="0 0 135.47 135.47"><path fill="none" stroke="#ff5e00" stroke-width="19.85" d="M67.73 67.6a28.84 28.84 0 0 1 14.42-24.98 28.84 28.84 0 0 1 28.84 0 28.84 28.84 0 0 1 14.42 24.98"/><path fill="none" stroke="#ffb71c" stroke-width="19.85" d="M125.41 67.6a28.84 28.84 0 0 1-14.42 24.98 28.84 28.84 0 0 1-28.84 0A28.84 28.84 0 0 1 67.73 67.6"/><path fill="none" stroke="#d92a1c" stroke-width="19.84" d="M67.73 67.6a28.97 28.84 0 0 1-8.48 20.39 28.97 28.84 0 0 1-20.49 8.45"/><path fill="none" stroke="#a130cd" stroke-width="19.84" d="M38.76 96.44a28.84 28.84 0 0 1-24.98-14.42 28.84 28.84 0 0 1 0-28.84 28.84 28.84 0 0 1 24.98-14.42"/><path fill="#a130cd" d="m38.7 28.84-.001 19.84c3.01 0 5.07.46 7.84 1.56 2.21-8.13 6.14-12.85 9.61-16.95-.02-.05-6.98-4.45-17.45-4.45z"/></svg>