<svg viewBox="0 0 135.47 135.47" xmlns="http://www.w3.org/2000/svg">
  <g>
    <path fill="none" stroke="#ff5e00" stroke-width="19.85" d="m 67.6,-67.73 a 28.84,28.84 0 0 1 -24.98,-14.42 28.84,28.84 0 0 1 0,-28.84 28.84,28.84 0 0 1 24.98,-14.42" transform="rotate(90)"/>
    <path fill="none" stroke="#ffb71c" stroke-width="19.85" d="m -67.6,125.41 a 28.84,28.84 0 0 1 -24.98,-14.42 28.84,28.84 0 0 1 0,-28.84 28.84,28.84 0 0 1 24.98,-14.42" transform="rotate(-90)"/>
    <path fill="none" stroke="#d92a1c" stroke-width="19.84" d="M -67.6,67.73 A 28.84,28.97 0 0 1 -87.99,59.25 28.84,28.97 0 0 1 -96.44,38.76" transform="rotate(-90)"/>
    <path fill="none" stroke="#a130cd" stroke-width="19.84" d="m 38.76,96.44 a 28.84,28.84 0 0 1 -24.98,-14.42 28.84,28.84 0 0 1 0,-28.84 28.84,28.84 0 0 1 24.98,-14.42"/>
    <path fill="#a130cd" d="m 38.70,28.84 -0.001,19.84 c 3.01,0 5.07,0.46 7.84,1.56 2.21,-8.13 6.14,-12.85 9.61,-16.95 -0.02,-0.05 -6.98,-4.45 -17.45,-4.45 z"/>
  </g>
</svg>