<?xml version="1.0" encoding="utf-8"?>
<!-- Generator: Adobe Illustrator 27.2.0, SVG Export Plug-In . SVG Version: 6.00 Build 0)  -->
<svg version="1.1" id="Layer_1" xmlns="http://www.w3.org/2000/svg" xmlns:xlink="http://www.w3.org/1999/xlink" x="0px" y="0px"
	 viewBox="0 0 512 512" style="enable-background:new 0 0 512 512;" xml:space="preserve">
<style type="text/css">
	.st0{fill:#06263D;}
	.st1{fill-rule:evenodd;clip-rule:evenodd;fill:#06263D;}
	.st2{fill-rule:evenodd;clip-rule:evenodd;fill:#F05251;}
</style>
<g>
	<path class="st0" d="M182.02,249.46h-13.52c-1.16-3.05-3.16-5.71-5.75-7.7c-2.61-2-5.78-2.99-9.52-2.99
		c-4.97,0-9.01,1.64-12.13,4.93c-3.08,3.26-4.62,7.34-4.62,12.26c0,4.91,1.54,9.01,4.62,12.3c3.12,3.26,7.16,4.88,12.13,4.88
		c3.74,0,6.92-0.98,9.52-2.95c2.6-1.99,4.59-4.67,5.75-7.74h13.52c-1.28,6.91-4.49,12.39-9.61,16.45
		c-5.12,4.02-11.51,6.04-19.18,6.04c-8.77,0-16.02-2.75-21.74-8.24c-5.69-5.53-8.53-12.44-8.53-20.73c0-8.29,2.85-15.19,8.53-20.69
		c5.72-5.53,12.96-8.29,21.74-8.29c7.66,0,14.04,2.03,19.13,6.08C177.46,237.08,180.68,242.55,182.02,249.46z M188.45,283.32v-54.64
		h13.07v7.56h0.18c3.51-6.11,8.01-9.17,13.52-9.17h1.3v13.59h-3.24c-3.01-0.04-5.91,1.14-8.04,3.27c-2.25,2.18-3.49,4.87-3.73,8.06
		v31.33H188.45L188.45,283.32z M276.21,255.95c0,1.75-0.24,3.73-0.72,5.94h-42.98c0.74,3.13,2.51,5.82,5.3,8.06
		c2.71,2.22,6.11,3.41,9.61,3.36c2.63,0,4.98-0.61,7.05-1.84c2.09-1.23,3.73-2.75,4.9-4.56h14.19c-1.89,5.47-5.22,9.85-10.01,13.13
		c-4.79,3.26-10.17,4.88-16.12,4.88c-8.02,0-14.85-2.78-20.48-8.34c-5.6-5.59-8.4-12.47-8.4-20.64c0-8.17,2.81-15.02,8.44-20.55
		c5.66-5.56,12.53-8.34,20.62-8.34c7.9,0,14.64,2.81,20.21,8.43C273.41,241.09,276.21,247.91,276.21,255.95z M232.69,250.66h29.55
		c-0.63-3.37-2.37-6.44-4.94-8.71c-2.61-2.36-5.84-3.55-9.7-3.55c-3.8,0-7.07,1.18-9.79,3.55
		C235.15,244.17,233.34,247.25,232.69,250.66z M326.02,255.95c0-4.6-1.59-8.55-4.76-11.84c-3.14-3.29-6.98-4.93-11.5-4.93
		c-4.49,0-8.34,1.66-11.54,4.98c-3.17,3.28-4.76,7.21-4.76,11.79c0,4.67,1.59,8.66,4.76,11.98c3.2,3.29,7.05,4.93,11.54,4.93
		c4.55,0,8.4-1.64,11.54-4.93C324.44,264.61,326.02,260.62,326.02,255.95z M326.02,283.32v-8.75h-0.18
		c-1.71,2.89-4.07,5.34-7.1,7.37c-2.99,2-6.54,2.99-10.64,2.99c-7.84,0-14.52-2.76-20.03-8.29c-5.48-5.56-8.22-12.45-8.22-20.68
		c0-8.17,2.74-15.02,8.22-20.55c5.51-5.56,12.19-8.34,20.03-8.34c7.25,0,13.16,3.18,17.74,9.54h0.18v-7.93h13.07v54.64H326.02z
		 M350.31,239.46h-4.8v-10.78h4.8v-12.35h13.07v12.35h9.12v10.78h-9.12v28.66c0,0.95,0.3,1.75,0.9,2.4c0.63,0.61,1.37,0.92,2.2,0.92
		h6.02v11.88h-6.02c-4.85,0-8.76-1.46-11.72-4.38c-2.96-2.92-4.45-6.84-4.45-11.75V239.46z M432.73,255.95
		c0,1.75-0.24,3.73-0.72,5.94h-42.98c0.75,3.13,2.51,5.82,5.3,8.06c2.71,2.22,6.11,3.41,9.61,3.36c2.63,0,4.99-0.61,7.05-1.84
		c2.1-1.23,3.73-2.75,4.9-4.56h14.19c-1.88,5.47-5.22,9.85-10.01,13.13c-4.79,3.26-10.17,4.88-16.12,4.88
		c-8.02,0-14.85-2.78-20.48-8.34c-5.6-5.59-8.4-12.47-8.4-20.64c0-8.17,2.81-15.02,8.44-20.55c5.66-5.56,12.53-8.34,20.61-8.34
		c7.9,0,14.64,2.81,20.21,8.43C429.93,241.09,432.73,247.91,432.73,255.95L432.73,255.95z M389.21,250.66h29.55
		c-0.63-3.37-2.37-6.44-4.94-8.71c-2.6-2.36-5.84-3.55-9.7-3.55c-3.8,0-7.07,1.18-9.79,3.55
		C391.67,244.17,389.86,247.25,389.21,250.66z M440.1,283.32v-70.76h13.07v70.76H440.1z M512,228.68l-26.68,70.76h-13.43l6.51-17.37
		l-20.21-53.39h13.52l13.34,36.44h0.18l13.25-36.44H512z"/>
	<path class="st1" d="M60.22,249.29H48.39l-0.66,0.01c-0.3,0-0.57,0.01-0.79,0c-0.4,0.01-0.79-0.06-1.16-0.2
		c-0.77-0.32-1.23-1.04-1.8-2.08c-1.65-3.05-4.27-5.47-7.43-6.88c-3.14-1.39-6.65-1.68-9.98-0.83c-3.34,0.87-6.3,2.83-8.41,5.57
		c-2.14,2.77-3.32,6.16-3.37,9.66v1.05c-0.06,2.05,0.29,4.08,1.02,5.99c0.72,1.9,1.82,3.63,3.22,5.1c1.4,1.46,3.07,2.63,4.91,3.41
		c1.84,0.79,3.82,1.19,5.82,1.17h0.02c2.49,0.05,5.09-0.21,7.51-1.31c2.41-1.09,4.69-3.03,6.51-6.41v0
		c0.58-1.07,1.08-1.83,1.85-2.27c0.75-0.42,1.66-0.45,2.84-0.45h11.8v0.37c-2.59,13.59-13.91,23.78-29.86,23.78
		C13.62,284.99,0,271.73,0,255.37c0-16.35,12.63-29.64,30.41-29.64c15.65,0,26.41,9.32,29.47,21.99l0.24,0.77h-0.01l0.11,0.47
		V249.29z M56.21,241.89c-4.47-8.73-13.5-14.68-25.8-14.68c-17.03,0-28.97,12.66-28.97,28.16c0,15.48,12.9,28.14,28.97,28.14
		c12.29,0,21.62-6.28,26.08-15.42c-0.88,1.06-1.81,2.05-2.62,2.92l-0.29,0.32c-0.7,0.74-1.38,1.37-2.08,2l-0.27,0.25
		c-0.61,0.55-1.22,1.1-1.86,1.73c-4.96,4.93-11.73,7.25-19.14,7.22c-14.57,0-26.73-11.07-27.54-25.61v-1.73
		c0-15.24,11.72-27.1,27.59-27.13c7.73,0,14.48,2.38,19.46,7.34l0,0.01c0.66,0.67,1.27,1.22,1.88,1.77l0.03,0.03
		c0.62,0.56,1.24,1.12,1.89,1.79l0.08,0.09C54.41,239.92,55.32,240.86,56.21,241.89z M55.35,266.58c0.37-0.26,0.74-0.54,1.12-0.81
		l-0.12,0.17c-1.11,1.48-2.39,2.85-3.52,4.07l-0.29,0.31h0c-0.65,0.69-1.3,1.3-1.99,1.92l-0.27,0.24c-0.61,0.55-1.24,1.13-1.91,1.78
		c-4.64,4.61-11.02,6.83-18.14,6.81c-13.86,0-25.33-10.52-26.1-24.2v-1.66c0-14.37,11.03-25.63,26.15-25.66
		c7.43,0,13.8,2.29,18.45,6.92c0.69,0.7,1.32,1.27,1.93,1.82l0.04,0.03c0.62,0.56,1.2,1.09,1.82,1.73l0.06,0.06
		c1.19,1.24,2.58,2.69,3.76,4.26l0.25,0.34c-0.45-0.34-0.9-0.67-1.37-0.99c-0.42-0.3-0.84-0.6-1.26-0.92
		c-0.74-0.56-1.32-1.05-1.65-1.48l-0.1-0.13l-0.14-0.07c-1.39-0.72-2.6-1.73-3.55-2.96l-0.01-0.01l-0.01-0.01
		c-4.7-5.58-11.4-7.75-18.45-7.75c-13.98,0.07-24.73,10.56-24.73,24.64v1.56c0.6,13.56,11.74,23.44,24.73,23.51
		c6.95,0.04,13.5-2,18.24-7.54l0.01-0.01l0.01-0.01c1.08-1.37,2.42-2.53,3.93-3.4l0.12-0.07l0.09-0.11
		c0.34-0.43,0.91-0.92,1.66-1.48c0.37-0.28,0.76-0.56,1.17-0.85L55.35,266.58z M48.74,236.46L48.74,236.46L48.74,236.46z
		 M4.13,256.86v0.02v-0.04V256.86z M55.44,264.71l-0.63,0.25c-0.71,0.28-1.39,0.56-1.98,0.82c-0.41,0.19-0.76,0.36-1.03,0.52
		l-0.48,0.36l-0.14,0.18l-0.22,0.06c-1.53,0.45-2.85,1.46-3.69,2.85l-0.02,0.03l-0.02,0.02c-4.51,6.15-10.9,7.92-17.24,7.85
		c-11.47-0.11-21.53-8.79-21.93-21.45v-1.32c0-12.95,9.82-22.06,21.96-22.17c6.47-0.07,13.05,1.98,17.49,8.15l0.02,0.02l0.02,0.03
		c0.37,0.61,0.85,1.14,1.42,1.55c0.57,0.41,1.22,0.7,1.91,0.84l0.25,0.06l0.16,0.21c0.05,0.06,0.18,0.18,0.47,0.35
		c0.26,0.16,0.61,0.33,1.02,0.51c0.6,0.26,1.28,0.53,2,0.82l0.24,0.09l-0.56-0.4h-0.01c-0.46-0.33-0.92-0.65-1.32-0.96
		c-0.67-0.47-1.28-1.02-1.82-1.62c-1.51-0.81-2.84-1.92-3.88-3.28l0.01,0.01l-0.02-0.02l0.01,0.01c-4.34-5.15-10.58-7.23-17.35-7.23
		c-13.24,0.06-23.3,9.95-23.3,23.17v1.51v-0.02v0.03v-0.02c0.57,12.7,11.01,22.02,23.3,22.08c6.67,0.04,12.75-1.91,17.14-7.02
		l-0.01,0.01l0.02-0.02l-0.01,0.01c1.17-1.49,2.61-2.73,4.23-3.68c0.47-0.56,1.13-1.1,1.83-1.63c0.38-0.29,0.79-0.58,1.19-0.87
		l0.07-0.05C54.83,265.15,55.14,264.93,55.44,264.71L55.44,264.71z M54.14,263.59l0.24-0.04l-0.07,0.03
		c-0.72,0.29-1.44,0.57-2.06,0.85c-0.4,0.18-0.79,0.37-1.17,0.59l-0.71,0.52c-1.8,0.58-3.33,1.78-4.31,3.39
		c-4.14,5.63-10,7.3-16.06,7.24c-10.77-0.1-20.13-8.24-20.51-20.02v-1.28c0-12.07,9.12-20.59,20.54-20.7
		c6.16-0.06,12.22,1.88,16.31,7.54c0.47,0.77,1.08,1.44,1.8,1.96c0.67,0.48,1.42,0.83,2.22,1.03l0.68,0.5
		c0.34,0.2,0.74,0.4,1.17,0.59c0.51,0.23,1.1,0.46,1.69,0.7c-0.81-0.13-1.62-0.27-2.42-0.43c-0.37-0.07-0.74-0.16-1.1-0.26
		l-0.27-0.09l-0.12-0.16l-0.29-0.04c-1.12-0.16-1.59-0.23-1.97-0.45c-0.35-0.2-0.68-0.56-1.31-1.54
		c-4.26-6.74-10.67-8.63-16.54-8.54c-10.26,0.12-19.14,7.87-19.14,19.67v1.2c0.02,2.55,0.53,5.08,1.51,7.44
		c0.97,2.34,2.38,4.48,4.17,6.28c1.77,1.79,3.87,3.2,6.19,4.16c2.3,0.96,4.77,1.44,7.26,1.42c5.79,0.13,12-1.34,16.27-8.12
		l0.03-0.04l0.02-0.04c0.31-0.68,0.8-1.25,1.41-1.67c0.61-0.41,1.32-0.64,2.05-0.66l0.34-0.01l0.15-0.2l0.26-0.09
		c0.27-0.08,0.64-0.17,1.1-0.26C52.24,263.91,53.17,263.75,54.14,263.59L54.14,263.59z M46.33,241.72l-0.02-0.03l0.04,0.06
		L46.33,241.72z M9.49,256.16v0.01v-0.02V256.16z M46.06,268.94l0.02-0.02l-0.03,0.05L46.06,268.94L46.06,268.94z M52.84,262.31
		c-0.59,0.1-1.15,0.2-1.63,0.3c-0.41,0.08-0.83,0.18-1.23,0.29l-0.62,0.25c-0.91,0.07-1.8,0.37-2.56,0.89
		c-0.82,0.56-1.48,1.33-1.9,2.22c-3.89,6.15-9.51,7.53-15.02,7.4h-0.02c-2.31,0.02-4.59-0.43-6.72-1.31
		c-2.14-0.89-4.09-2.2-5.72-3.85c-1.65-1.67-2.96-3.64-3.85-5.8c-0.9-2.18-1.37-4.51-1.39-6.87v-1.19
		c0-10.92,8.16-18.08,17.72-18.19c5.54-0.09,11.41,1.68,15.31,7.87l0,0.01c0.63,0.98,1.13,1.62,1.82,2.01
		c0.63,0.35,1.36,0.46,2.29,0.59l0.19,0.1l0.47,0.17c0.33,0.1,0.76,0.2,1.23,0.29c0.51,0.1,1.09,0.2,1.69,0.31h-4.49l-0.72,0h-0.7
		l-0.66-0.09c-0.23-0.09-0.47-0.32-1.08-1.43c-1.8-3.33-4.65-5.98-8.11-7.52c-3.43-1.52-7.27-1.84-10.9-0.9
		c-3.65,0.95-6.88,3.09-9.18,6.08c-2.34,3.03-3.63,6.74-3.69,10.57v1.04c-0.06,2.24,0.32,4.47,1.12,6.56c0.8,2.08,2,3.98,3.54,5.59
		c1.52,1.6,3.35,2.87,5.38,3.74c2.02,0.86,4.18,1.3,6.37,1.29c2.6,0.05,5.43-0.22,8.11-1.44c2.7-1.23,5.21-3.39,7.18-7.04
		c0.59-1.09,0.92-1.48,1.28-1.68c0.38-0.21,0.91-0.27,2.15-0.27L52.84,262.31L52.84,262.31z"/>
	<path class="st2" d="M44.69,249.29h11.83l0.66,0.01c0.3,0,0.57,0.01,0.8,0c0.4,0.01,0.79-0.06,1.16-0.2
		c0.77-0.32,1.23-1.04,1.8-2.08c1.65-3.05,4.26-5.47,7.43-6.88c3.14-1.39,6.66-1.68,9.98-0.83c3.34,0.87,6.3,2.83,8.41,5.57
		c2.14,2.77,3.32,6.16,3.37,9.66v1.05c0.06,2.04-0.29,4.08-1.02,5.99c-0.72,1.9-1.82,3.63-3.22,5.1c-1.39,1.46-3.06,2.62-4.91,3.41
		c-1.84,0.79-3.82,1.19-5.82,1.17h-0.02c-2.49,0.05-5.1-0.21-7.52-1.31c-2.4-1.09-4.68-3.03-6.5-6.41v0
		c-0.58-1.07-1.08-1.83-1.85-2.27c-0.75-0.42-1.67-0.45-2.84-0.45h-11.8v0.37c2.59,13.59,13.91,23.78,29.86,23.78
		c16.79,0,30.41-13.26,30.41-29.62c0-16.35-12.63-29.64-30.41-29.64c-15.65,0-26.41,9.32-29.48,21.99l-0.24,0.77h0.01l-0.11,0.47
		V249.29z M48.71,241.89c0.88-1.02,1.79-1.97,2.58-2.79l0.08-0.09c0.65-0.68,1.27-1.24,1.89-1.8l0.03-0.03
		c0.61-0.55,1.22-1.1,1.88-1.77l0-0.01c4.98-4.96,11.73-7.34,19.46-7.34c15.87,0.03,27.59,11.9,27.59,27.13v1.73
		c-0.81,14.54-12.97,25.61-27.54,25.61c-7.42,0.02-14.18-2.29-19.15-7.22c-0.6-0.59-1.22-1.17-1.85-1.74l-0.27-0.25
		c-0.72-0.64-1.41-1.31-2.08-2v0l-0.29-0.32c-0.81-0.87-1.73-1.86-2.62-2.93c4.47,9.14,13.79,15.43,26.08,15.43
		c16.07,0,28.97-12.67,28.97-28.15c0-15.5-11.94-28.16-28.97-28.16C62.21,227.21,53.17,233.16,48.71,241.89L48.71,241.89z
		 M48.57,265.94l-0.13-0.17c0.37,0.28,0.75,0.55,1.12,0.81l0.08,0.05c0.41,0.29,0.8,0.58,1.17,0.85c0.74,0.56,1.32,1.05,1.66,1.48
		l0.09,0.11l0.12,0.07c1.51,0.87,2.85,2.02,3.93,3.4l0.01,0.01l0.01,0.01c4.74,5.54,11.29,7.57,18.24,7.54
		c12.98-0.07,24.13-9.95,24.73-23.51v-1.56c0-14.09-10.75-24.58-24.73-24.64c-7.05,0-13.75,2.17-18.45,7.75l-0.01,0.01l-0.01,0.01
		c-0.96,1.24-2.17,2.25-3.55,2.96l-0.14,0.07l-0.1,0.12c-0.34,0.43-0.91,0.92-1.65,1.48c-0.41,0.31-0.83,0.61-1.26,0.91
		c-0.37,0.26-0.75,0.53-1.15,0.83l-0.22,0.16l0.25-0.34c1.19-1.57,2.58-3.01,3.77-4.26l0.06-0.06c0.61-0.64,1.2-1.17,1.82-1.73
		l0.04-0.03c0.6-0.55,1.23-1.12,1.92-1.82c4.65-4.63,11.02-6.92,18.46-6.92c15.12,0.02,26.15,11.29,26.15,25.66v1.66
		c-0.77,13.69-12.24,24.2-26.1,24.2c-7.12,0.02-13.5-2.2-18.14-6.81c-0.66-0.65-1.3-1.23-1.91-1.78l-0.27-0.24
		c-0.69-0.61-1.36-1.26-2-1.92L52.09,270C50.96,268.79,49.67,267.41,48.57,265.94L48.57,265.94z M100.78,256.86v-0.02v0.04V256.86z
		 M56.18,236.46L56.18,236.46L56.18,236.46L56.18,236.46z M49.47,264.71l0.91,0.66l0.07,0.05c0.41,0.29,0.81,0.58,1.19,0.87
		c0.7,0.53,1.37,1.08,1.83,1.63c1.62,0.95,3.06,2.19,4.23,3.68l-0.01-0.01l0.02,0.02l-0.01-0.01c4.38,5.11,10.47,7.06,17.14,7.03
		c12.29-0.06,22.73-9.39,23.3-22.09v0.02v-0.03v0.01v-1.51c0-13.22-10.05-23.11-23.3-23.17c-6.77,0-13.01,2.08-17.36,7.23l0.01-0.01
		l-0.02,0.02l0.01-0.01c-1.06,1.37-2.38,2.48-3.89,3.28c-0.47,0.56-1.13,1.1-1.82,1.62c-0.4,0.3-0.86,0.63-1.32,0.96l-0.56,0.4
		l0.24-0.09c0.72-0.29,1.41-0.56,2-0.82c0.41-0.18,0.76-0.35,1.02-0.51l0.46-0.35l0.16-0.21l0.25-0.06
		c0.68-0.15,1.33-0.43,1.91-0.85c0.57-0.41,1.06-0.94,1.42-1.55l0.02-0.03l0.02-0.02c4.45-6.17,11.03-8.22,17.49-8.15
		c12.14,0.11,21.96,9.22,21.96,22.17v1.32c-0.4,12.66-10.47,21.35-21.93,21.46c-6.34,0.07-12.73-1.7-17.24-7.85l-0.02-0.03
		l-0.02-0.03c-0.83-1.38-2.15-2.39-3.69-2.84l-0.22-0.06l-0.14-0.18l-0.48-0.36c-0.33-0.19-0.68-0.36-1.03-0.52
		c-0.59-0.26-1.27-0.53-1.98-0.82L49.47,264.71z M50.6,263.58l-0.08-0.03l0.24,0.04c0.97,0.16,1.91,0.32,2.67,0.47
		c0.46,0.09,0.83,0.18,1.1,0.26l0.26,0.09l0.15,0.2l0.34,0.01c0.73,0.02,1.44,0.25,2.05,0.66c0.61,0.41,1.1,0.99,1.4,1.67l0.02,0.05
		l0.03,0.04c4.26,6.77,10.48,8.25,16.27,8.12c2.49,0.02,4.96-0.46,7.26-1.42c2.32-0.96,4.43-2.38,6.19-4.16
		c1.78-1.8,3.2-3.93,4.16-6.28c0.98-2.36,1.49-4.88,1.51-7.44v-1.2c0-11.8-8.87-19.55-19.14-19.67c-5.86-0.09-12.28,1.8-16.54,8.54
		c-0.63,0.98-0.96,1.33-1.31,1.54c-0.38,0.21-0.85,0.29-1.97,0.45l-0.29,0.04l-0.12,0.16l-0.27,0.09c-0.36,0.1-0.73,0.19-1.1,0.26
		c-0.8,0.15-1.61,0.3-2.42,0.43c0.6-0.24,1.18-0.47,1.69-0.7c0.4-0.17,0.79-0.37,1.17-0.59l0.68-0.5c0.79-0.2,1.54-0.55,2.21-1.03
		c0.72-0.52,1.33-1.19,1.8-1.96c4.1-5.66,10.15-7.6,16.31-7.53c11.42,0.1,20.53,8.62,20.53,20.69v1.28
		c-0.38,11.78-9.73,19.92-20.51,20.01c-6.06,0.07-11.92-1.61-16.06-7.24c-0.98-1.61-2.51-2.82-4.31-3.4l-0.7-0.52
		c-0.38-0.22-0.77-0.41-1.17-0.59C52.04,264.15,51.32,263.87,50.6,263.58z M58.86,268.94l0.02,0.03l-0.03-0.05L58.86,268.94z
		 M95.42,256.16v-0.01v0.02V256.16z M58.58,241.72l-0.02,0.02l0.03-0.06L58.58,241.72z M52.08,262.31c0.59,0.1,1.15,0.2,1.64,0.3
		c0.47,0.1,0.9,0.2,1.23,0.29l0.62,0.25c0.91,0.07,1.79,0.37,2.56,0.89c0.82,0.55,1.47,1.32,1.89,2.22c3.9,6.15,9.52,7.53,15.02,7.4
		h0.02c2.31,0.02,4.59-0.43,6.72-1.31c2.14-0.89,4.09-2.2,5.72-3.85c1.64-1.66,2.95-3.63,3.85-5.8c0.9-2.18,1.37-4.51,1.39-6.87
		v-1.19c0-10.92-8.16-18.08-17.72-18.19c-5.54-0.09-11.4,1.68-15.31,7.87l-0.01,0.01c-0.63,0.98-1.13,1.62-1.82,2.01
		c-0.62,0.35-1.36,0.46-2.28,0.59l-0.19,0.1l-0.47,0.17c-0.41,0.12-0.82,0.21-1.23,0.29c-0.51,0.1-1.09,0.2-1.69,0.31h4.49l0.73,0
		h0.7l0.66-0.09c0.23-0.09,0.47-0.32,1.08-1.43c1.8-3.33,4.65-5.98,8.11-7.52c3.43-1.52,7.27-1.84,10.9-0.9
		c3.63,0.93,6.86,3.07,9.18,6.08c2.33,3.03,3.63,6.74,3.68,10.56v1.04c0.06,2.24-0.32,4.47-1.12,6.56c-0.79,2.08-1.99,3.98-3.53,5.6
		c-1.52,1.6-3.35,2.87-5.38,3.74c-2.02,0.86-4.18,1.3-6.37,1.29c-2.6,0.05-5.43-0.22-8.11-1.44c-2.7-1.23-5.21-3.39-7.18-7.04
		c-0.59-1.09-0.92-1.48-1.28-1.68c-0.38-0.21-0.91-0.27-2.15-0.27L52.08,262.31L52.08,262.31z"/>
</g>
</svg>
