<svg xmlns="http://www.w3.org/2000/svg" xml:space="preserve" viewBox="0 0 512 512"><path d="M182 249h-13a18 18 0 0 0-6-7c-3-2-6-3-10-3-5 0-9 1-12 5-3 3-5 7-5 12q0 7 5 12c3 4 7 5 12 5 4 0 7-1 10-3l6-8h13c-1 7-4 13-10 17-5 4-11 6-19 6-9 0-16-3-22-8-5-6-8-13-8-21s3-15 8-21c6-5 13-8 22-8 8 0 14 2 19 6s9 10 10 16m6 34v-54h14v7c3-6 8-9 13-9h2v14h-4c-3 0-6 1-8 3s-3 5-3 8v31zm88-27-1 6h-42c0 3 2 6 5 8l9 3c3 0 5 0 7-2 3-1 4-2 5-4h15c-2 5-6 10-10 13-5 3-11 5-17 5-8 0-14-3-20-8q-8-9-8-21c0-8 2-15 8-21 6-5 13-8 21-8s14 3 20 8c5 6 8 13 8 21m-43-5h29c0-4-2-7-5-9-2-2-6-4-9-4-4 0-7 2-10 4s-5 5-5 9m93 5c0-5-2-9-5-12s-7-5-11-5c-5 0-9 2-12 5s-5 7-5 12 2 9 5 12 7 5 12 5c4 0 8-2 11-5s5-7 5-12m0 27v-8l-7 7c-3 2-7 3-11 3-8 0-14-3-20-8-5-6-8-13-8-21q0-12 8-21c6-5 12-8 20-8 7 0 13 3 18 10v-8h13v54zm24-44h-4v-10h4v-13h13v13h10v10h-10v29l1 3h9v12h-7c-4 0-8-1-11-4s-5-7-5-12zm83 17-1 6h-43l5 8c3 2 6 3 10 3 3 0 5 0 7-2l5-4h14c-2 5-5 10-10 13s-10 5-16 5c-8 0-15-3-21-8q-8-9-8-21c0-8 3-15 9-21q8-8 20-8a28 28 0 0 1 29 29m-44-5h30c-1-4-3-7-5-9-3-2-6-4-10-4s-7 2-10 4c-2 2-4 5-5 9m51 32v-70h13v70zm72-54-27 70h-13l6-17-20-53h14l13 36 13-36z" style="fill:#06263d"/><path d="M60 249H46l-2-2a16 16 0 0 0-7-7 15 15 0 0 0-10-1c-4 1-7 3-9 6a16 16 0 0 0-3 10v1a15 15 0 0 0 9 14l6 1 7-1c3-1 5-3 7-6 0-2 1-2 2-3h14c-2 14-14 24-30 24S0 272 0 255c0-16 13-29 30-29 16 0 27 9 30 22v1zm-4-7c-4-9-13-15-26-15-17 0-29 13-29 28 0 16 13 29 29 29 13 0 22-7 26-16l-2 3-3 2v1l-2 1c-5 5-11 8-19 8-14 0-27-12-27-26v-2c0-15 11-27 27-27 8 0 15 2 20 7l2 2 2 2 2 3m-1 25 1-1-3 4-2 2h-1l-2 2c-4 5-11 7-18 7-14 0-25-10-26-24v-2c0-14 11-25 26-25 8 0 14 2 19 6l2 2 2 2 3 4 1 1-2-1-1-1-2-2a11 11 0 0 1-3-3h-1c-4-5-11-8-18-8-14 0-25 11-25 25v2c1 13 12 23 25 23 7 0 14-2 18-7l4-4 2-2h1zM4 257zm51 8a56 56 0 0 0-3 1l-1 1a6 6 0 0 0-4 3c-4 6-11 8-17 8-11 0-22-9-22-22v-1c0-13 10-22 22-22 6 0 13 2 18 8l1 1 2 1v1h2l2 1h-1l-1-1-2-2-4-3c-4-5-10-7-17-7-13 0-23 10-23 23v2c0 12 11 22 23 22 7 0 13-2 17-7l4-4 2-2 1-1h1m-1-1h-2l-1 1-1 1a8 8 0 0 0-4 3c-4 6-10 7-16 7-11 0-20-8-21-20v-1c0-12 10-21 21-21 6 0 12 2 16 8a7 7 0 0 0 4 3h1l1 1h2a64 64 0 0 1-4 0l-2-1-2-1c-4-7-10-9-16-9-10 0-19 8-19 20v1a20 20 0 0 0 5 14 19 19 0 0 0 14 5c6 0 12-1 16-8l2-2h2v-1h4m-8-22zM9 256zm37 13zm7-7a46 46 0 0 0-3 1h-1l-2 1-2 2c-4 6-10 8-15 8a17 17 0 0 1-13-5 18 18 0 0 1-3-6 18 18 0 0 1-2-7v-1c0-11 8-18 18-19 5 0 11 2 15 8l2 2 2 1h2l2 1h-7l-1-2a17 17 0 0 0-8-7 17 17 0 0 0-11-1 17 17 0 0 0-9 6 18 18 0 0 0-4 11v1a17 17 0 0 0 5 12 16 16 0 0 0 12 5c2 0 5 0 8-2 3-1 5-3 7-7l1-1 3-1z" style="fill-rule:evenodd;clip-rule:evenodd;fill:#06263d"/><path d="M45 249h14l2-2 7-7a15 15 0 0 1 19 5c2 3 3 6 3 10v1a16 16 0 0 1-4 11 15 15 0 0 1-5 3l-6 1-7-1c-3-1-5-3-7-6 0-2-1-2-2-3H45c2 14 14 24 29 24 17 0 31-13 31-30 0-16-13-29-31-29-15 0-26 9-29 22v1zm4-7 2-3 2-2 2-2c5-5 12-7 20-7 15 0 27 12 27 27v2c-1 14-13 26-27 26a26 26 0 0 1-21-9l-1-1-2-2-3-3c5 9 14 15 27 15 16 0 28-12 28-28 0-15-11-28-28-28-13 0-22 6-26 15m0 24h-1l2 1h1l1 2h1l4 4c4 5 11 7 18 7 13 0 24-10 25-23v-2c0-14-11-25-25-25-7 0-14 3-19 8a11 11 0 0 1-3 3l-2 2a41 41 0 0 1-2 2h-1l1-1 3-4 2-2 2-2c5-4 11-6 19-6 15 0 26 11 26 25v2c-1 14-12 24-26 24-7 0-14-2-18-7l-2-2h-1l-2-2-3-4m52-9zm-52 8h1a41 41 0 0 1 3 3l5 4c4 5 10 7 17 7 12 0 23-10 23-22v-2c0-13-10-23-23-23-7 0-13 2-18 7a12 12 0 0 1-3 3l-2 2-2 1 2-1h2v-1a5 5 0 0 0 3-2c5-6 11-8 18-8 12 0 22 9 22 22v1c-1 13-11 22-22 22-6 0-13-2-17-8a6 6 0 0 0-4-3l-1-1h-1l-2-1zm2-1a92 92 0 0 1 4 0v1a4 4 0 0 1 4 2c4 7 10 8 16 8a18 18 0 0 0 14-5 19 19 0 0 0 5-14v-1c0-12-9-20-19-20-6 0-12 2-17 9l-1 1-2 1h-2l-2 1 2-1 1-1h1a7 7 0 0 0 4-3c4-6 10-8 16-8 11 0 20 9 20 21v1c0 12-9 20-20 20-6 0-12-1-16-7a8 8 0 0 0-4-3l-1-1-1-1h-2m8 5zm36-13zm-36-14zm-7 20a51 51 0 0 1 3 1h1a5 5 0 0 1 4 3c4 6 10 8 15 8a17 17 0 0 0 13-5l3-6a18 18 0 0 0 2-7v-1c0-11-8-18-18-19-6 0-11 2-15 8l-2 2-2 1h-2l-2 1h7l1-2a17 17 0 0 1 8-7 17 17 0 0 1 20 5c2 3 4 7 4 11v1a17 17 0 0 1-5 12 16 16 0 0 1-12 5c-2 0-5 0-8-2-3-1-5-3-7-7l-1-1-3-1z" style="fill-rule:evenodd;clip-rule:evenodd;fill:#f05251"/></svg>