<?xml version="1.0" encoding="UTF-8" standalone="no"?>
<svg
   width="107.51429"
   height="102.75398"
   viewBox="0 0 107.51429 102.75398"
   fill="none"
   version="1.1"
   id="svg12"
   xmlns="http://www.w3.org/2000/svg"
   xmlns:svg="http://www.w3.org/2000/svg">
  <defs
     id="defs12" />
  <g
     id="g12"
     transform="translate(34.950067,-215.99315)">
    <path
       d="m 57.85843,271.77769 c -0.774,-0.1257 -1.5665,0.0595 -2.2048,0.5152 -0.6382,0.4557 -1.0704,1.145 -1.2028,1.9179 -0.1447,0.8786 -0.3109,1.7775 -0.496,2.6697 -1.7799,8.5172 -5.1174,16.6325 -9.8446,23.9376 -5.0162,7.5169 -10.8489,12.0047 -15.6015,12.0047 -2.2725,0.0492 -4.5367,-0.2938 -6.6926,-1.0138 -5.6912,-1.775 -11.7884,-1.7717 -17.4777,0.009 -2.1479,0.7139 -4.4023,1.0536 -6.6652,1.0044 -4.7486,0 -10.58,-4.4851 -15.5963,-11.9979 -4.727,-7.3046 -8.0652,-15.4188 -9.84715,-23.935 -1.97756,-9.485 -1.60717,-17.8346 1.06924,-24.1485 1.09829,-2.7795 2.74951,-5.307 4.85381,-7.4292 2.1042,-2.1223 4.6176,-3.7952 7.3876,-4.9171 2.77,-1.122 5.7387,-1.6698 8.7268,-1.6101 2.988,0.0597 5.9328,0.7255 8.6558,1.9572 l 0.1663,0.0635 c 3.1372,1.3741 6.5201,2.0997 9.9449,2.1331 h 0.127 c 3.4272,-0.0346 6.8117,-0.763 9.9498,-2.1412 l 0.1502,-0.0581 c 2.981,-1.3116 6.2053,-1.979 9.462,-1.9586 1.8593,0.0219 3.7051,0.317 5.4785,0.8759 1.02,0.3144 2.0172,0.6982 2.9846,1.1489 0.7121,0.333 1.5269,0.3705 2.2665,0.1042 0.7397,-0.2662 1.3439,-0.8144 1.6805,-1.5248 0.1645,-0.3511 0.2583,-0.7312 0.2755,-1.1185 0.0172,-0.3873 -0.0421,-0.7742 -0.1749,-1.1385 -0.1328,-0.3643 -0.3362,-0.6987 -0.5986,-0.9841 -0.2625,-0.2854 -0.5788,-0.5161 -0.9307,-0.6789 -1.2159,-0.5667 -2.4693,-1.0495 -3.7512,-1.445 -2.3402,-0.7366 -4.7769,-1.1202 -7.2302,-1.1381 -3.9898,-0.0245 -7.9413,0.7777 -11.6058,2.356 l -0.1514,0.0581 c -1.5551,0.6563 -3.1723,1.1544 -4.8271,1.4869 -0.2018,-1.6639 -0.5606,-3.305 -1.0719,-4.9013 11.4383,-2.0749 11.0342,-15.88816 11.0342,-15.88816 -9.3133,1.40309 -13.3294,4.93919 -14.9623,8.33877 -1.5519,-2.01717 -3.4478,-3.74459 -5.6002,-5.10275 -0.3906,-0.24958 -0.8265,-0.41979 -1.2828,-0.50093 -0.4563,-0.0811 -0.9238,-0.0716 -1.3765,0.0281 -0.4526,0.0997 -0.8812,0.28749 -1.2613,0.55278 -0.38,0.26529 -0.7041,0.60283 -0.9537,0.99335 -0.2496,0.39052 -0.4198,0.82638 -0.5009,1.28269 -0.0812,0.45631 -0.0717,0.92412 0.028,1.37675 0.0997,0.45262 0.2875,0.88118 0.5528,1.2612 0.2653,0.38003 0.6028,0.70409 0.9933,0.95367 1.9269,1.29176 3.5632,2.97116 4.8046,4.93076 1.2415,1.9597 2.0607,4.1567 2.4055,6.4507 -1.2634,-0.3369 -2.5038,-0.7536 -3.7143,-1.2476 l -0.1759,-0.0676 c -3.6617,-1.5742 -7.6092,-2.3745 -11.5949,-2.3506 -9.0309,0 -20.73562,6.0327 -25.63155,17.5723 -3.97541,9.3756 -2.962867,20.2042 -1.41244,27.6387 1.94038,9.2532 5.57254,18.0686 10.71379,26.003 6.3017,9.4378 13.5982,14.6369 20.5461,14.6369 2.8438,0.049 5.6759,-0.375 8.3806,-1.255 4.5889,-1.454 9.515,-1.454 14.1039,0 2.6964,0.878 5.5198,1.3 8.3549,1.251 6.8478,0 14.3376,-5.3384 20.5461,-14.645 5.1404,-7.9344 8.7713,-16.75 10.7098,-26.0031 0.2041,-0.9746 0.3851,-1.9559 0.5406,-2.917 0.062,-0.3835 0.0481,-0.7755 -0.0416,-1.1535 -0.0897,-0.3779 -0.2534,-0.7345 -0.4812,-1.0492 -0.2278,-0.3147 -0.5154,-0.5813 -0.8464,-0.7846 -0.3311,-0.2033 -0.6991,-0.3393 -1.0828,-0.4001"
       fill="#ff6733"
       id="path11" />
    <path
       d="m 71.33493,256.39499 v 0.0121 l -8.2649,-5.8475 -0.4271,-0.2298 0.0512,-0.5177 0.2393,-10.0798 h 0.0095 c 0.0046,-0.5208 -0.1263,-1.0339 -0.3802,-1.4887 -0.2538,-0.4548 -0.6219,-0.8357 -1.0675,-1.1053 -0.4471,-0.2723 -0.9569,-0.4242 -1.4801,-0.441 -0.5233,-0.0169 -1.0422,0.102 -1.5059,0.3451 l -8.7538,4.3593 c -1.2619,0.6789 -2.3372,1.6578 -3.1318,2.8502 -0.7946,1.1925 -1.2839,2.5621 -1.4247,3.9881 l -0.7408,7.7913 -6.3059,3.3658 c -2.4638,-3.7027 -5.7171,-6.8136 -9.5264,-9.1092 -3.8093,-2.2956 -8.0799,-3.7189 -12.5047,-4.1675 -4.4249,-0.4486 -8.894,0.0886 -13.0866,1.573 -4.1925,1.4843 -8.0041,3.879 -11.1609,7.0119 -2.7859,2.7623 -4.9974,6.0489 -6.5065,9.6702 -1.509,3.6213 -2.286,7.5057 -2.286,11.4288 0,3.9232 0.777,7.8075 2.286,11.4288 1.5091,3.6214 3.7206,6.908 6.5065,9.6702 4.197,4.1711 9.5317,7.0104 15.3356,8.1623 5.8039,1.1518 11.8188,0.5648 17.2905,-1.6873 5.4718,-2.2522 10.157,-6.0694 13.4684,-10.9731 3.3114,-4.9037 5.1017,-10.6758 5.1465,-16.5928 0.0013,-3.8327 -0.7435,-7.6291 -2.1926,-11.1774 l 6.2181,-3.3117 -0.0109,0.0311 6.7206,4.0741 c 1.2315,0.7427 2.6257,1.1736 4.0615,1.2554 1.4357,0.0817 2.8695,-0.1882 4.1772,-0.7863 l 8.7534,-4.3593 c 0.472,-0.2216 0.877,-0.5622 1.177,-0.9882 0.3,-0.426 0.483,-0.9228 0.532,-1.4413 0.049,-0.5185 -0.038,-1.0409 -0.252,-1.5156 -0.214,-0.4747 -0.548,-0.8853 -0.97,-1.1915 m -34.1485,19.4107 c -0.0347,4.7475 -1.47,9.3791 -4.1262,13.3141 -2.6561,3.9351 -6.4148,6.9984 -10.8048,8.806 -4.39,1.8076 -9.2158,2.2789 -13.8727,1.355 -4.6568,-0.924 -8.9373,-3.2021 -12.3047,-6.5488 -2.2347,-2.2161 -4.0086,-4.8527 -5.2191,-7.7579 -1.2105,-2.9051 -1.8335,-6.0211 -1.8335,-9.1684 0,-3.1472 0.623,-6.2632 1.8335,-9.1684 1.2105,-2.9051 2.9844,-5.5417 5.2191,-7.7578 2.5007,-2.4815 5.514,-4.3861 8.8284,-5.5801 3.3145,-1.194 6.85,-1.6486 10.3587,-1.3319 3.5087,0.3167 6.9057,1.397 9.9528,3.1652 3.0471,1.7682 5.6703,4.1815 7.6862,7.0707 l -8.1614,4.3552 c -1.3138,-1.6306 -2.9557,-2.9671 -4.8188,-3.9229 -1.8632,-0.9559 -3.9062,-1.5098 -5.997,-1.6259 -2.0908,-0.1161 -4.1826,0.2082 -6.1401,0.952 -1.9576,0.7437 -3.7372,1.8903 -5.2234,3.3654 -1.3826,1.3719 -2.4797,3.0038 -3.2285,4.8018 -0.7489,1.798 -1.1343,3.7264 -1.1343,5.674 0,1.9477 0.3854,3.8761 1.1343,5.6741 0.7488,1.7979 1.8459,3.4299 3.2285,4.8018 2.317,2.3457 5.3482,3.8548 8.6165,4.2898 3.2684,0.4351 6.5886,-0.2286 9.4386,-1.8865 2.85,-1.6579 5.0682,-4.2161 6.3055,-7.2723 1.2374,-3.0562 1.4238,-6.437 0.53,-9.6107 l 8.2064,-4.3687 c 1.0104,2.6766 1.5273,5.5142 1.526,8.3752 z m -26.0801,1.2734 c 0.3553,0.6991 0.9725,1.2295 1.7171,1.4759 0.7445,0.2463 1.5564,0.1885 2.2586,-0.1607 l 6.9193,-3.6848 c 0.2696,2.1001 -0.213,4.2278 -1.3623,6.006 -1.1493,1.7782 -2.891,3.0921 -4.9165,3.7087 -2.0255,0.6167 -4.2042,0.4963 -6.1494,-0.3399 -1.9452,-0.8361 -3.5316,-2.334 -4.4779,-4.228 -0.9463,-1.8941 -1.1912,-4.0621 -0.6917,-6.1196 0.4995,-2.0576 1.7111,-3.8718 3.4205,-5.1212 1.7094,-1.2494 3.806,-1.8532 5.9181,-1.7044 2.1121,0.1487 4.1034,1.0405 5.6207,2.5172 l -6.9345,3.6997 c -0.3472,0.1714 -0.6571,0.4099 -0.9118,0.7018 -0.2546,0.2918 -0.449,0.6311 -0.5719,0.9984 -0.1229,0.3673 -0.172,0.7553 -0.1442,1.1416 0.0278,0.3863 0.1317,0.7633 0.3059,1.1093 z m 39.7718,-27.0764 c 0.219,-1.157 0.3879,-2.1708 1.4557,-2.7467 l 4.5109,-2.2438 -0.6085,5.5191 -5.7029,2.8386 z m 8.0467,10.3339 c -0.5151,0.173 -1.0642,0.2192 -1.6009,0.1347 -0.5367,-0.0845 -1.0453,-0.2971 -1.4824,-0.6199 l -2.9222,-1.7424 5.7042,-2.8386 4.8109,2.8224 z"
       fill="#ff6733"
       id="path12" />
  </g>
</svg>
