<svg xmlns="http://www.w3.org/2000/svg" fill="none" viewBox="0 0 107.514 102.754"><g fill="#ff6733"><path d="M92.808 55.785a2.974 2.974 0 0 0-3.407 2.433 66.01 66.01 0 0 1-.496 2.67 70.67 70.67 0 0 1-9.845 23.937C74.044 92.342 68.211 96.83 63.46 96.83a19.777 19.777 0 0 1-6.693-1.014 29.303 29.303 0 0 0-17.478.009 19.77 19.77 0 0 1-6.665 1.004c-4.748 0-10.58-4.485-15.596-11.998A70.712 70.712 0 0 1 7.18 60.896c-1.978-9.485-1.607-17.834 1.07-24.148a22.07 22.07 0 0 1 29.623-12l.166.064a25.406 25.406 0 0 0 9.945 2.133h.127a25.38 25.38 0 0 0 9.95-2.141l.15-.058a23.135 23.135 0 0 1 9.462-1.959c1.86.022 3.705.317 5.479.876 1.02.315 2.017.698 2.984 1.15a2.973 2.973 0 0 0 3.947-1.421 2.944 2.944 0 0 0-1.428-3.92 29.392 29.392 0 0 0-3.752-1.445 24.68 24.68 0 0 0-7.23-1.139 28.89 28.89 0 0 0-11.606 2.356l-.15.059a25.164 25.164 0 0 1-4.828 1.486 26.545 26.545 0 0 0-1.072-4.9C61.455 13.812 61.051 0 61.051 0c-9.313 1.403-13.33 4.94-14.962 8.339a21.628 21.628 0 0 0-5.6-5.103 3.53 3.53 0 0 0-3.801 5.948 16.688 16.688 0 0 1 7.21 11.381 30.903 30.903 0 0 1-3.715-1.248l-.175-.067a28.918 28.918 0 0 0-11.595-2.35c-9.031 0-20.736 6.032-25.632 17.572C-1.194 43.847-.182 54.676 1.37 62.11a76.806 76.806 0 0 0 10.713 26.003c6.302 9.438 13.599 14.637 20.547 14.637a25.658 25.658 0 0 0 8.38-1.255 23.347 23.347 0 0 1 14.104 0c2.696.878 5.52 1.3 8.355 1.251 6.848 0 14.338-5.338 20.546-14.645a76.778 76.778 0 0 0 10.71-26.003 64.73 64.73 0 0 0 .54-2.917 2.954 2.954 0 0 0-2.452-3.387"/><path d="M106.285 40.402v.012l-8.265-5.848-.427-.23.051-.517.24-10.08h.009a3 3 0 0 0-1.448-2.594 3.032 3.032 0 0 0-2.986-.096l-8.754 4.36a8.74 8.74 0 0 0-4.556 6.838l-.74 7.791-6.307 3.366a30.11 30.11 0 0 0-46.278-4.692 29.714 29.714 0 0 0-6.507 32.528 29.712 29.712 0 0 0 6.507 9.67 30.055 30.055 0 0 0 51.24-21.09 29.537 29.537 0 0 0-2.192-11.178l6.218-3.312-.01.031 6.72 4.074a8.838 8.838 0 0 0 8.239.47l8.753-4.36a2.997 2.997 0 0 0 .487-5.136M72.13 59.819a24.112 24.112 0 0 1-41.108 16.927 23.838 23.838 0 0 1 0-33.853 24.158 24.158 0 0 1 36.826 3.324l-8.161 4.355a14.954 14.954 0 0 0-22.18-1.231 14.756 14.756 0 0 0 0 20.951 14.869 14.869 0 0 0 24.891-14.48l8.206-4.368a23.684 23.684 0 0 1 1.526 8.375zm-26.08 1.274a2.974 2.974 0 0 0 3.976 1.315l6.92-3.685a8.962 8.962 0 1 1-2.64-5.281l-6.934 3.7a2.934 2.934 0 0 0-1.322 3.95zm39.772-27.077c.22-1.157.388-2.17 1.456-2.746l4.51-2.244-.608 5.519-5.703 2.838zM93.87 44.35a3.378 3.378 0 0 1-3.083-.485l-2.923-1.742 5.705-2.84 4.81 2.823z"/></g></svg>