<svg xmlns="http://www.w3.org/2000/svg" xml:space="preserve" id="Layer_1" x="0" y="0" version="1.1" viewBox="0 0 512 512"><style>.st0{fill:#4e4a99}.st1{fill:#3e3978}.st2{fill:#fff}.st3{fill:#f39319}.st4{fill:#f8ab13}</style><g id="Calque_2"><g id="Laag_1"><path d="M197.8 476.9c65.8 0 119.8-100.7 133.1-224 13.8-.2 25.5-10.2 27.9-23.7.3-1.5.4-3 .5-4.5h.8c10 .6 18.6-7 19.2-17 .4-6.5-2.7-12.6-8.1-16.2 14.6-6.5 21.1-23.5 14.6-38-4-9-12.3-15.3-22-16.8 6.2-7.9 4.8-19.3-3.1-25.4-3.1-2.4-6.9-3.8-10.8-3.9 4.7-2.3 8.8-5.8 11.7-10.2 6.8-10.6 7.9-58.4-16.1-89.2-9.9-12.7-19.6-5-20.3 3.6-1.9 26.5-2.1 46.3-9 69-1.6-9.9-10.8-16.6-20.7-15.1-4.6.7-8.7 3.1-11.5 6.8-2.3-15.7-16.9-26.7-32.6-24.4-12.7 1.8-22.6 11.8-24.4 24.4-6.1-7.9-17.5-9.4-25.4-3.2-3.6 2.8-6.1 6.9-6.8 11.4-6.9-22.6-7.1-42.5-9-69-.6-8.7-10.3-16.3-20.2-3.6-24 30.8-22.9 78.6-16.1 89.2 2.8 4.4 6.8 8 11.5 10.4-10 .2-18 8.5-17.8 18.5.1 3.9 1.4 7.7 3.9 10.8-15.7 2.4-26.5 17.1-24.1 32.9 1.5 9.7 7.8 18 16.8 22-8.3 5.6-10.6 16.8-5 25.1 3.6 5.4 9.7 8.4 16.2 8h.8c0 1.5.2 2.9.5 4.3 2.4 13.8 14.3 23.8 28.3 23.8-8.1 34.5-20.3 133.4-30.2 223.9.6-5.1 1.8-10.3 2.3-15.5 14.4 10.1 29.1 15.6 45.1 15.6" class="st0"/><path d="M255.9 502.1c36.7 0 72.5.6 106.4 1.7-.9-8.4-1.8-16.9-2.7-25.4-3.6-33.7-7.3-69.6-11-103.3-6.4-54-12.8-100.7-17.7-122.2-13.3 123.4-67.3 224-133.1 224-16 0-30.7-5.5-45-15.5-.6 5.2-1.8 10.3-2.3 15.5q-1.5 13.65-2.7 27c34.6-1.2 70.8-1.8 108.1-1.8" class="st1"/><path d="M144.7 232.2c-5.4-1.1-10.4-3.9-14.1-8.1q-5.7 1.2-11.1 3.3c-7.5 2.9-15.8 2.9-23.4 0-9.2-3.3-18.9-5.1-28.6-5.2-13.4-.5-26.8 1.2-39.6 5v12.5c.2 1.1.7 2.1 1.4 2.9 1.5 2.1 2.8 4.4 3.9 6.8 2 5.5 3.3 11.2 5.2 16.7 1.8 5.9 6.9 10.3 13.1 11 7.4 1.1 15 1.6 22.5 1.4 4.4 0 8.7-1.1 12.5-3.2 2-9 5.1-17.8 9.1-26.2 5.9-11.6 15.2-12.1 21.5 0 3.8 7.6 6.7 15.7 8.7 24 2.3 1.9 4.9 3.2 7.8 3.8 9.8 2.4 20 2.5 29.8.3 1.6-.3 3.1-.8 4.6-1.5 1-6 2-11.6 3-16.5-13.2-3.3-23.3-13.8-26.3-27" class="st0"/><path d="M136.1 325.1c-.7-8.2-2-16.2-4-24.2-2.3-9.2-4-18.5-6.3-27.5-1.9-8.3-4.9-16.4-8.7-24-6.3-12.1-15.7-11.6-21.5 0-4 8.4-7.1 17.1-9.1 26.2-2 8.4-3.7 16.9-5.9 25.4-2 7.9-3.4 16-4 24.2-1 12.6 7.2 23.4 17.6 23.4h24.3c10.3 0 18.6-10.9 17.6-23.5m-26-30c0 5.5 0 11-.5 16.4-.5 6.6-.8 13.2-1.9 19.4-.7 4.4-1.9 4.6-2.7 0-1-6.2-1.3-12.8-1.9-19.4-.5-5.4-.6-10.9-.5-16.4-7.2-1.9-12.9-9.2-14.6-18.6 11.3 6.5 25.3 6.5 36.6 0-1.6 9.4-7.3 16.7-14.5 18.6" class="st2"/><path d="M88.1 276.5c1.7 9.4 7.4 16.7 14.6 18.6 0 5.5 0 11 .5 16.4.5 6.6.8 13.3 1.9 19.4.8 4.6 2 4.4 2.7 0 1-6.2 1.3-12.8 1.9-19.4.5-5.4.6-10.9.5-16.4 7.2-1.9 12.9-9.2 14.6-18.6-11.4 6.5-25.4 6.5-36.7 0" class="st3"/><path d="M366.4 232.2c-3 13.1-12.9 23.6-25.8 27.3.8 4.3 1.7 9.2 2.7 14.8 2.2 1.7 4.7 2.7 7.4 3 7.4 1.1 15 1.6 22.5 1.4 4.4 0 8.7-1.1 12.5-3.2 2-9 5.1-17.8 9.1-26.2 5.8-11.6 15.2-12.1 21.5 0 3.8 7.6 6.8 15.7 8.7 24 2.3 1.9 4.9 3.2 7.8 3.8 9.8 2.4 20 2.5 29.8.3 6.7-1.1 12.3-5.9 14.3-12.4 1.7-5.1 3.2-10.1 4.6-15.3.8-2.9 1.1-5.9 4.4-7.3.6-.3 1-1.7 1-2.7.1-4.2 0-8.3 0-13.3-8.1-1.3-16-3.1-24-3.8-15-1.4-29.9-.8-44.3 4.7-7.5 2.9-15.8 2.9-23.4 0q-7.05-2.55-14.4-3.9c-3.7 4.6-8.8 7.6-14.4 8.8" class="st0"/><path d="M435.2 325.1c-.7-8.2-2-16.2-4-24.2-2.3-9.2-4-18.5-6.3-27.5-1.9-8.3-4.9-16.4-8.7-24-6.3-12.1-15.7-11.6-21.5 0-4 8.4-7.1 17.1-9.1 26.2-2 8.4-3.7 16.9-5.9 25.4-2 7.9-3.4 16-4 24.2-1 12.6 7.2 23.4 17.6 23.4h24.3c10.4 0 18.6-10.9 17.6-23.5m-26-30c0 5.5 0 11-.5 16.4-.5 6.6-.8 13.2-1.9 19.4-.7 4.4-1.9 4.6-2.7 0-1-6.2-1.3-12.8-1.9-19.4-.5-5.5-.6-10.9-.5-16.4-7.2-1.9-12.9-9.2-14.6-18.6 11.3 6.5 25.3 6.5 36.6 0-1.6 9.4-7.3 16.7-14.5 18.6" class="st2"/><path d="M387.2 276.5c1.7 9.4 7.4 16.7 14.6 18.6-.1 5.5.1 11 .5 16.4.5 6.6.8 13.3 1.9 19.4.8 4.6 2 4.4 2.7 0 1-6.2 1.3-12.8 1.9-19.4.4-5.4.6-10.9.5-16.4 7.2-1.9 12.9-9.2 14.6-18.6-11.4 6.5-25.4 6.5-36.7 0m78.8 33c4 17.3 9.1 54.7 14.2 98-4.5-40.9-9.1-77.7-14.2-98" class="st3"/><path id="IgKKMw" d="M157.7 150.4c16-4.8 32.7-6.9 49.4-6.3 12.2.2 24.3 2.4 35.7 6.5 9.4 3.6 19.8 3.6 29.2 0 18-6.8 36.5-7.5 55.2-5.8 9.9.9 19.8 3.1 29.9 4.7v16.6c0 1.2-.5 3-1.3 3.3-4 1.8-4.5 5.5-5.5 9.1-1.7 6.4-3.6 12.8-5.7 19.1-2.5 8.1-9.4 14.1-17.8 15.4-12.2 2.7-25 2.6-37.1-.4-6.6-1.4-12.3-5.7-15.2-11.9-3.8-7.9-7.5-15.8-11.7-23.6-1.2-2.1-3.2-3.6-5.6-4.2-1.6-.1-4 2.3-5 4.1-3.1 5.6-5.9 11.3-8.2 17.2-5.1 13.3-15.1 19.7-28.7 20.1-9.4.1-18.8-.5-28-1.8-7.7-.9-14.1-6.3-16.3-13.7-2.4-6.9-4-14.1-6.5-20.9-1.4-3-3-5.8-4.9-8.5-.8-1.1-1.4-2.3-1.7-3.6-.3-4.7-.2-9.8-.2-15.4" class="st4"/><path d="M287.6 242.2c-5.5-21.9-8.1-43.9-18.7-64.2-7.9-15.1-19.5-14.5-26.8 0-10.3 20.5-13.1 42.3-18.7 64.2-2.5 9.9-4.2 20-5 30.2-1.2 15.7 9 29.2 21.9 29.2h30.2c12.9 0 23.2-13.5 21.9-29.2-.7-10.2-2.3-20.3-4.8-30.2" class="st2"/><path d="M278.4 211.8a46.01 46.01 0 0 1-45.7 0c2 11.7 9.2 20.8 18.1 23.2-.1 6.8.1 13.7.6 20.5.7 8.3 1 16.5 2.3 24.2 1 5.7 2.4 5.5 3.3 0 1.3-7.7 1.6-16 2.3-24.2.6-6.7.7-13.6.6-20.5 9.2-2.4 16.4-11.5 18.5-23.2" class="st0"/><path d="M60.1 489.1c40.3 0 75-47 94-113.4 4.5-36.2 9.4-73.1 13.9-99.6-1.5.6-3 1.1-4.6 1.5-9.8 2.2-20 2.1-29.8-.3-2.9-.7-5.5-2-7.8-3.8 2.3 9.1 4 18.3 6.3 27.5 2 7.9 3.4 16 4 24.2 1 12.6-7.2 23.4-17.6 23.4H94.3c-10.3 0-18.6-10.9-17.6-23.4.7-8.2 2-16.2 4-24.2 2.1-8.5 3.8-17 5.9-25.4-3.8 2.1-8.1 3.2-12.5 3.2-7.5.1-15-.4-22.5-1.4-6.2-.7-11.3-5.1-13.1-11-2-5.5-3.3-11.2-5.2-16.7-1.1-2.4-2.4-4.6-3.9-6.8-.7-.9-1.1-1.9-1.4-2.9-.2-4 0-8.1 0-12.5 12.8-3.8 26.2-5.5 39.6-5 9.8.1 19.5 1.9 28.6 5.2 7.5 2.9 15.8 2.9 23.4 0q5.4-2.1 11.1-3.3c-7.9-8.5-9.2-21.2-3.2-31.2-12.9-11.1-16.5-29.5-8.8-44.7-10.8-6.8-25-3.5-31.8 7.3-1.7 2.7-2.8 5.8-3.3 9-4.9-6.4-14.1-7.5-20.4-2.6-2.9 2.3-4.9 5.5-5.4 9.2-5.5-18.1-5.7-34.2-7.2-55.4-.5-6.9-8.3-13.1-16.2-2.9-19.3 24.7-18.4 63-13 71.5 2.3 3.5 5.6 6.4 9.4 8.2-8 .2-14.4 6.8-14.2 14.9.1 3.1 1.1 6.2 3.1 8.6-12.6 2-21.3 13.8-19.3 26.4 1.2 7.8 6.3 14.4 13.4 17.6-6.7 4.5-8.4 13.5-4 20.2 2.9 4.3 7.7 6.7 12.9 6.4h.7c0 1.2.1 2.3.4 3.5 1.9 11 11.5 19.1 22.6 19.1-6.4 27.7-16.2 107-24.2 179.6.4-4 1.4-8.3 1.9-12.4 11.4 8 23.2 12.4 36 12.4" class="st4"/><path d="M142.5 475.9c2.6-23.4 6.8-61.4 11.6-100.1-18.9 66.3-53.7 113.4-94 113.4-12.8 0-24.6-4.4-36.1-12.5-.5 4.1-1.4 8.3-1.9 12.4-.8 7.4-1.5 14.7-2.2 21.8 36.4-3 76.7-5.3 119.7-6.8 1-9.2 1.9-18.7 2.9-28.2" class="st3"/><path d="M466 309.5c11-.2 20.4-8.2 22.4-19 .2-1.2.3-2.4.4-3.6h.7c8 .4 14.9-5.7 15.3-13.8.3-5.1-2.2-10-6.4-12.9 11.7-5.2 16.9-18.9 11.7-30.5-3.2-7.2-9.8-12.2-17.6-13.4 4.9-6.3 3.8-15.5-2.5-20.4-2.5-1.9-5.5-3-8.6-3.1 3.8-1.8 7-4.7 9.4-8.2 5.4-8.5 6.3-46.9-13-71.5-7.9-10.1-15.7-4-16.2 2.9-1.5 21.2-1.7 37.2-7.2 55.4-1.3-7.9-8.7-13.3-16.7-12-3.6.6-6.9 2.5-9.1 5.4-1.8-12.6-13.6-21.3-26.2-19.5-3.5.5-6.8 1.8-9.6 3.8 7.4 15.1 3.7 33.3-9.1 44.3 5.8 9.7 4.7 22.1-2.7 30.6q7.35 1.35 14.4 3.9c7.5 2.9 15.8 2.9 23.4 0 14.4-5.5 29.3-6 44.3-4.7 8.1.7 15.9 2.5 24 3.8v13.3c0 .9-.4 2.4-1 2.7-3.3 1.4-3.6 4.4-4.4 7.3-1.4 5.2-2.9 10.3-4.6 15.3-2 6.5-7.5 11.3-14.3 12.4-9.8 2.2-20 2.1-29.8-.3-2.9-.7-5.5-2-7.8-3.8 2.3 9.1 4 18.3 6.3 27.5 2 7.9 3.4 16 4 24.2 1 12.6-7.2 23.4-17.6 23.4h-24.3c-10.3 0-18.6-10.9-17.6-23.4.7-8.2 2-16.2 4-24.2 2.1-8.5 3.8-17 5.9-25.4-3.8 2.1-8.1 3.2-12.5 3.2-7.5.1-15-.4-22.5-1.4-2.7-.3-5.3-1.4-7.4-3 6.2 37.2 14.3 103.1 25.1 203.2.4 3.5.8 7 1.1 10.7C417.5 478.5 456 402 466 309.5" class="st4"/><path d="M489 490.4c-2.9-27-5.8-55.8-8.8-82.8-5.2-43.3-10.2-80.7-14.2-98-10.1 92.6-48.5 169.1-96.5 178.6l1.7 15.9c43.1 1.5 83.5 3.8 120.1 6.8-.8-6.8-1.5-13.7-2.3-20.5" class="st3"/><path d="M362.4 503.8h.6q-1.35-12.6-2.7-25.5c-3.7-34.5-7.7-70.3-11.6-103.3 3.7 33.7 7.3 69.6 11 103.3q1.35 12.9 2.7 25.5" class="st0"/><path d="M330.9 252.8c5 21.6 11.3 68.2 17.7 122.2-5.6-50.9-11.4-96.8-17.7-122.2m-180.4 224c-1 9.1-2 18.1-2.9 27h.3c.7-8.9 1.6-17.9 2.6-27" class="st1"/></g></g></svg>