<svg xmlns="http://www.w3.org/2000/svg" viewBox="0 0 349 289"><path fill="#ec5c54" fill-rule="evenodd" d="M239.5 5.541c-33.77 4.361-67.798 17.232-92.949 35.156-20.922 14.911-43.309 39.339-56.3 61.434-6.524 11.097-13.803 27.542-16.873 38.119-1.523 5.251-2.941 10.065-6.699 22.75-1.385 4.675-3.864 13.45-5.51 19.5a1532.086 1532.086 0 0 1-5.451 19.5c-1.353 4.675-5.042 17.725-8.197 29-3.155 11.275-6.989 24.775-8.52 30-1.531 5.225-3.006 10.4-3.279 11.5-.272 1.1-.795 2.723-1.161 3.607-.816 1.97 1.916 3.129 12.439 5.275 50.602 10.318 109.97-2.098 154-32.209 20.648-14.121 39.499-33.261 52.638-53.447 9.025-13.866 19.094-35.511 22.435-48.226.434-1.65 1.526-5.475 2.427-8.5a1074.4 1074.4 0 0 0 3.477-12c3.654-12.932 8.065-28.615 9.562-34a578.812 578.812 0 0 1 2.888-10c1.364-4.516 4.414-15.737 7.068-26 .782-3.025 3.499-12.475 6.038-21 6.164-20.694 6.899-23.968 5.665-25.202-1.387-1.387-11.513-3.521-25.16-5.302-13.585-1.773-34.612-1.753-48.538.045"/></svg>