<?xml version="1.0" encoding="UTF-8"?>
<svg xmlns="http://www.w3.org/2000/svg" version="1.1" viewBox="0 0 144 144">
  <!-- Generator: Adobe Illustrator 29.0.0, SVG Export Plug-In . SVG Version: 2.1.0 Build 186)  -->
  <defs>
    <style>
      .st0 {
        fill: #ec0000;
      }

      .st1 {
        display: none;
      }
    </style>
  </defs>
  <g id="Layer_2" class="st1">
    <rect class="st0" width="144" height="144"/>
  </g>
  <g id="Layer_1">
    <g>
      <path class="st0" d="M114.7,97.69c-2.33-.23-6.45-.81-11.62,1.8-5.16,2.6-7.19,2.72-9.73,2.44.74,1.36,2.25,3.23,7,3.57,4.74.33,7.01.48,4.52,6.39.06-1.79-.36-5.24-5.07-4.63-4.71.61-5.81,4.85-.76,6.96-1.64.33-5.12.53-7.61-5.98-1.72.75-4.38,2.25-9.2-1.47,1.68.61,3.75.65,3.75.65-4.28-2.04-8.36-5.84-10.98-9.42,2.07,1.54,4.36,3.08,6.68,3.37-2.73-3.34-9.06-10.01-16.8-16.87,4.98,3.25,10.98,8.39,20.81,7.23,9.83-1.16,16.43-3.41,29,5.96"/>
      <path class="st0" d="M72.64,95.37c-6.16-2.67-7.48-3.21-15.41-5.22-7.92-2.01-15.72-6.2-20.93-12.74,3.67,2.69,11.18,8.11,18.88,7.52-1.17-1.71-3.33-3.05-5.91-4.4,2.92.7,11.73,2.95,23.37,14.84"/>
      <path class="st0" d="M59.22,72.56c-1.59-4.56-4.46-10.39-18.05-19.07-6.62-4.37-16.34-9.86-29.14-23.85.91,3.77,4.96,13.58,25.34,26.31,6.69,4.57,15.33,7.39,21.86,16.6"/>
      <path class="st0" d="M60.06,79.17c-1.67-3.86-5.03-8.81-18.2-15.87-6.07-3.4-16.45-8.64-25.78-18.59.85,3.59,5.18,11.48,23.82,21.34,5.16,2.84,13.89,5.51,20.17,13.12"/>
      <path class="st0" d="M109.89,89.35c4.87.74,4.62,1.77,4.67,3.55-2.07-2.26-4.67-3.55-4.67-3.55M72.84,59.23c-25.67-7.35-35.88-16.62-43.78-26.32,3.61,11.17,12.21,15.17,21.4,22.67,9.19,7.5,9.71,11.53,12.42,15.96,6.03,9.87,6.99,11.5,12.97,15.81,7.05,4.68,15.58,1.51,24.94,2.98,9.36,1.47,17.09,8.6,18.77,11.34,1.96-3.5-2.72-8.54-3.99-9.81.68-4.58-10.16-6.6-14.27-8.17-.81-.31-2.8-.77-1.07-4.88,2.33-5.68,4.76-10.62-27.39-19.59"/>
    </g>
  </g>
</svg>