<svg xmlns="http://www.w3.org/2000/svg" xml:space="preserve" viewBox="167.1 0 2165.8 2500"><path style="fill:none" d="M0 0h2500v2500H0z"></path><path d="M1250 0 167.1 625v1250L1250 2500l1082.9-625V625zm0 0L167.1 625v1250L1250 2500l1082.9-625V625z" style="fill:#fff"></path><path d="M1677.5 2011.7h-154.1L1339 1842.4v-86.8l191-182.3v-288.6l249.6-162.8 284.3 214.8zm-638-455.7 28.2-271.3-93.3-243.1h551.2l-91.2 243.1 26.1 271.3zm125.9 286.4-184.5 171.4H824.6l-388.5-677.1L722.6 1124l251.7 160.6v288.6l191 182.3zm-342.9-1302h852.9l102 434H722.7zM1250 0 167.1 625v1250L1250 2500l1082.9-625V625z" style="fill:#03316c"></path></svg>
