<svg xmlns="http://www.w3.org/2000/svg" viewBox="0 0 400 400"><g fill-rule="evenodd"><path fill="#fcfcfc" d="M377.6 12.736c0 .184.495.559 1.1.831l1.1.496-.883-.832c-.948-.891-1.317-1.03-1.317-.495m7.609 6.71c.012.467 1.571 2.454 1.582 2.017.005-.185-.351-.794-.791-1.354-.44-.559-.796-.858-.791-.663M273.8 62.251c-.44.09-1.88.361-3.2.602-17.453 3.18-36.219 14.311-47.063 27.917a1105.995 1105.995 0 0 1-3.076 3.848C216.815 99.127 208 115.308 208 117.491c0 .204-.475 1.527-1.055 2.94s-1.192 3.109-1.359 3.769c-.168.66-.773 2.459-1.345 3.998-.573 1.539-1.041 3.117-1.041 3.506 0 .389-.161 1.019-.358 1.401-.197.382-.759 2.135-1.248 3.895-.49 1.76-1.031 3.56-1.202 4-.171.44-.702 2.15-1.18 3.8s-.935 3.212-1.017 3.471c-.109.347-3.737.506-13.671.6-14.349.137-13.926.082-16.451 2.129-2.442 1.979-3.253 3.354-4.268 7.236-1.49 5.701-1.179 8.433 1.227 10.769 1.859 1.805 2.117 1.839 15.681 2.072 10.986.189 12.096.27 11.925.866-.103.361-1.098 4.437-2.211 9.057-1.112 4.62-2.195 9.03-2.405 9.8-.758 2.777-3.46 13.755-6.253 25.4-.105.44-.467 1.834-.803 3.097-.336 1.264-.675 2.614-.753 3-.078.387-.989 4.123-2.025 8.303-1.037 4.18-2.031 8.23-2.21 9-.364 1.564-1.396 5.71-2.985 12l-1.263 5c-.11.44-.289 1.25-.396 1.8-.107.55-.344 1.36-.527 1.8-.309.743-.619 1.964-1.672 6.6-.225.99-.552 2.16-.726 2.6-.175.44-.511 1.52-.748 2.4-1.71 6.368-5.541 18.475-8.037 25.397-.673 1.868-1.224 3.447-1.224 3.509 0 .061-.743.918-1.65 1.902-2.917 3.164-2.626 3.13-27.35 3.21-13.897.044-22.056.22-22.878.491-11.971 3.955-10.727 23.275 1.878 29.179 7.842 3.672 24.661 2.972 35.8-1.491 2.988-1.197 10.856-5.183 13.112-6.643 1.492-.965 2.799-1.754 2.905-1.754.353 0 4.353-2.881 7.383-5.317 14.18-11.402 25.418-28.252 32.068-48.083 1.679-5.009 6.023-20.522 6.498-23.208.079-.445.634-2.605 1.233-4.8.599-2.196 1.335-5.072 1.636-6.392.573-2.512 1.664-6.789 2.734-10.72.347-1.275.631-2.75.631-3.276 0-.526.18-1.068.4-1.204.22-.136.4-.856.4-1.6 0-.744.161-1.452.358-1.574.197-.121.446-.897.554-1.723.108-.827.592-2.943 1.075-4.703.483-1.76.979-3.65 1.102-4.2.122-.55 1.379-5.59 2.792-11.2 1.414-5.61 2.63-10.47 2.703-10.8.519-2.337 3.132-12.881 3.49-14.082l.442-1.483 15.242-.117c21.158-.164 21.096-.13 23.428-12.818.663-3.609.917-5.631.966-7.7l.048-2-17.146-.104-17.146-.105.213-.895c.241-1.013 1.489-5.703 2.474-9.296.362-1.32 1.38-5.19 2.263-8.6 3.827-14.779 4.844-17.958 7.678-24 5.826-12.419 10.319-15.649 19.491-14.012l3.373.604c2.168.39 6.354 1.043 9 1.405 1.43.195 2.96.453 3.4.574 8.345 2.279 16.053.274 19.781-5.144 6.248-9.081 2.377-20.877-8.122-24.746-4.333-1.597-13.565-2.709-16.859-2.03M386.919 378.09c-.888 1.148-.976 1.648-.138.784.495-.51.817-1.009.716-1.11-.101-.101-.361.046-.578.326m-7.663 7.923c-1.24 1.033-.681 1.022.635-.013.559-.44.858-.794.663-.787-.195.008-.779.368-1.298.8"/><path fill="#2f333e" d="M48.7.293c-1.045.083-1.9.321-1.9.529 0 .208-.72.378-1.6.378-.88 0-1.6.18-1.6.4 0 .22-.54.4-1.2.4-.66 0-1.2.18-1.2.4 0 .22-.54.4-1.2.4-.66 0-1.2.18-1.2.4 0 .22-.355.4-.788.4-.433 0-1.429.36-2.212.8-.783.44-1.689.8-2.012.8-.323 0-.588.146-.588.325 0 .179-.63.573-1.4.875-.77.302-1.4.696-1.4.875 0 .179-.32.325-.712.325-.391 0-.964.35-1.273.779-.308.428-.696.694-.862.592-.166-.102-.757.269-1.314.826-.556.557-1.156.965-1.333.908-.177-.058-.856.39-1.51.995-.653.605-1.395 1.1-1.649 1.1s-.569.281-.701.625-.426.511-.653.371c-.227-.141-.373-.107-.325.074.048.182-1.612 2.049-3.69 4.15-3.272 3.308-6.218 6.919-6.433 7.884-.036.163-.353.515-.705.783s-.493.493-.313.5c.18.007-.045.536-.5 1.175s-.827 1.359-.827 1.6c0 .241-.135.439-.3.441-.359.004-1.3 1.941-1.3 2.677 0 .286-.18.52-.4.52-.22 0-.4.27-.4.6 0 .33-.18.6-.4.6-.22 0-.4.362-.4.805 0 .443-.165 1.118-.367 1.5C2.942 39.168 2 41.712 2 42.596c0 .552-.18 1.004-.4 1.004-.22 0-.4.705-.4 1.567 0 .897-.213 1.637-.5 1.733C.301 47.033.2 78.009.2 200c0 121.991.101 152.967.5 153.1.287.096.5.836.5 1.733 0 .862.18 1.567.4 1.567.22 0 .4.54.4 1.2 0 .66.18 1.2.4 1.2.22 0 .4.54.4 1.2 0 .66.18 1.2.4 1.2.22 0 .4.355.4.788 0 .433.36 1.429.8 2.212.44.783.8 1.674.8 1.979 0 .305.135.614.3.688.165.073.747 1.033 1.293 2.133.546 1.1 1.266 2.27 1.6 2.6.334.33.663.859.732 1.175.069.316.49.891.937 1.278.446.388.706.875.577 1.084-.129.208.046.487.389.618.342.132.531.388.419.569-.112.182.146.583.574.891.429.309.779.698.779.865 0 1.097 12.372 12.264 13.3 12.004.165-.046.3.092.3.307s.675.73 1.5 1.146c4.303 2.166 6.714 3.494 6.833 3.763.074.165.496.3.939.3.442 0 1.36.395 2.038.879.679.483 1.112.68.962.437-.191-.309.027-.302.724.021.549.255.999.561 1.001.681.002.12.678.264 1.502.319.825.056 1.671.273 1.88.482.21.21.759.381 1.221.381.462 0 1.065.225 1.34.5.735.735 306.585.735 307.32 0 .275-.275 1.083-.5 1.796-.5.713 0 1.408-.18 1.544-.4.136-.22.676-.4 1.2-.4.524 0 1.064-.18 1.2-.4.136-.22.562-.4.947-.4.384 0 1.934-.622 3.444-1.381 1.51-.76 2.923-1.272 3.139-1.139.22.136.267.039.108-.218-.257-.416.505-.671 1.492-.499.181.031.234-.097.118-.286-.117-.188.41-.586 1.17-.884.76-.298 1.382-.689 1.382-.868 0-.179.272-.325.604-.325.332 0 1.165-.536 1.851-1.192.686-.656 1.385-1.107 1.554-1.002.169.104.42-.105.559-.466.138-.36.338-.567.445-.46.561.56 11.789-10.708 13.141-13.187.208-.381.573-.825.812-.987.239-.162.292-.297.118-.3-.173-.003.052-.4.5-.881.449-.482.816-1.202.816-1.6 0-.399.153-.725.34-.725.187 0 .951-1.215 1.698-2.7s1.494-2.76 1.66-2.833c.166-.074.303-.434.303-.8.001-.367.367-1.266.814-1.999.447-.733.581-1.201.299-1.041-.412.233-.415.184-.014-.248.275-.297.5-.874.5-1.283 0-.409.144-.654.32-.545.176.108.365-.466.419-1.276.055-.81.271-1.645.48-1.854.21-.21.381-.759.381-1.221 0-.462.225-1.065.5-1.34.398-.398.5-31.665.5-153.66s-.102-153.262-.5-153.66c-.275-.275-.5-1.083-.5-1.796 0-.713-.18-1.408-.4-1.544-.22-.136-.4-.676-.4-1.2 0-.524-.18-1.064-.4-1.2-.22-.136-.4-.578-.4-.983s-.54-1.762-1.2-3.017c-.66-1.255-1.2-2.634-1.2-3.064 0-.431-.18-.672-.4-.536-.355.219-.595-.622-.437-1.53.031-.181-.128-.215-.353-.076-.226.139-.41-.027-.41-.37 0-.343-.18-.624-.4-.624-.22 0-.4-.36-.4-.8 0-.44-.18-.8-.4-.8-.22 0-.4-.278-.4-.618 0-.34-.45-1.068-1-1.618s-1-1.164-1-1.364c0-.2-.405-.785-.9-1.3-.495-.516-1.44-1.644-2.1-2.509-2.072-2.713-6.752-7.352-7.9-7.83-.605-.252-1.1-.632-1.1-.845 0-.588-1.707-1.888-2.5-1.903-.385-.007-.7-.294-.7-.637s-.18-.512-.4-.376c-.22.136-.4.057-.4-.176 0-.233-.36-.424-.8-.424-.44 0-.8-.18-.8-.4 0-.22-.27-.4-.6-.4-.33 0-.6-.18-.6-.4 0-.22-.27-.4-.6-.4-.33 0-.601-.135-.603-.3-.004-.359-1.941-1.3-2.677-1.3-.286 0-.52-.18-.52-.4 0-.22-.27-.4-.6-.4-.33 0-.6-.147-.6-.328 0-.18-.911-.576-2.025-.879-1.114-.303-2.115-.696-2.224-.872-.109-.177-.638-.321-1.175-.321s-.976-.18-.976-.4c0-.22-.54-.4-1.2-.4-.66 0-1.2-.18-1.2-.4 0-.22-.705-.4-1.567-.4-.897 0-1.637-.213-1.733-.5C352.944.231 54.498-.168 48.7.293M286.2 62.96c12.376 2.897 18.258 11.867 14.549 22.183-2.999 8.343-11.435 11.844-21.749 9.028-.44-.121-1.97-.379-3.4-.574-2.646-.362-6.832-1.015-9-1.405l-3.373-.604c-9.172-1.637-13.665 1.593-19.491 14.012-2.834 6.042-3.851 9.221-7.678 24a910.12 910.12 0 0 1-2.263 8.6c-.985 3.593-2.233 8.283-2.474 9.296l-.213.895 17.146.105 17.146.104-.048 2c-.049 2.069-.303 4.091-.966 7.7-2.332 12.688-2.27 12.654-23.428 12.818l-15.242.117-.442 1.483c-.358 1.201-2.971 11.745-3.49 14.082-.073.33-1.289 5.19-2.703 10.8-1.413 5.61-2.67 10.65-2.792 11.2-.123.55-.619 2.44-1.102 4.2-.483 1.76-.967 3.876-1.075 4.703-.108.826-.357 1.602-.554 1.723-.197.122-.358.83-.358 1.574 0 .744-.18 1.464-.4 1.6-.22.136-.4.678-.4 1.204 0 .526-.284 2.001-.631 3.276-1.07 3.931-2.161 8.208-2.734 10.72-.301 1.32-1.037 4.196-1.636 6.392-.599 2.195-1.154 4.355-1.233 4.8-.214 1.212-3.983 15.226-4.897 18.208-3.128 10.209-6.077 17.242-10.902 26-3.708 6.731-11.426 16.698-17.219 22.235-3.722 3.558-12.127 10.165-12.931 10.165-.106 0-1.413.789-2.905 1.754-2.256 1.46-10.124 5.446-13.112 6.643-14.983 6.003-33.711 5.054-40.69-2.062-8.316-8.48-6.677-22.425 3.012-25.626.822-.271 8.981-.447 22.878-.491 24.724-.08 24.433-.046 27.35-3.21.907-.984 1.65-1.841 1.65-1.902 0-.062.551-1.641 1.224-3.509 2.496-6.922 6.327-19.029 8.037-25.397.237-.88.573-1.96.748-2.4.174-.44.501-1.61.726-2.6 1.053-4.636 1.363-5.857 1.672-6.6.183-.44.42-1.25.527-1.8.107-.55.286-1.36.396-1.8l1.263-5c1.589-6.29 2.621-10.436 2.985-12 .179-.77 1.173-4.82 2.21-9 1.036-4.18 1.947-7.916 2.025-8.303.078-.386.417-1.736.753-3 .336-1.263.698-2.657.803-3.097 2.793-11.645 5.495-22.623 6.253-25.4.21-.77 1.293-5.18 2.405-9.8 1.113-4.62 2.108-8.696 2.211-9.057.171-.596-.939-.677-11.925-.866-13.564-.233-13.822-.267-15.681-2.072-2.406-2.336-2.717-5.068-1.227-10.769 1.015-3.882 1.826-5.257 4.268-7.236 2.525-2.047 2.102-1.992 16.451-2.129 9.934-.094 13.562-.253 13.671-.6.082-.259.539-1.821 1.017-3.471.478-1.65 1.009-3.36 1.18-3.8.171-.44.712-2.24 1.202-4 .489-1.76 1.051-3.513 1.248-3.895.197-.382.358-1.012.358-1.401s.468-1.967 1.041-3.506c.572-1.539 1.177-3.338 1.345-3.998.167-.66.779-2.356 1.359-3.769.58-1.413 1.055-2.736 1.055-2.94 0-2.183 8.815-18.364 12.461-22.873.364-.45 1.748-2.181 3.076-3.848 10.844-13.606 29.61-24.737 47.063-27.917 1.32-.241 2.76-.512 3.2-.602 1.58-.326 10.049.158 12.4.709"/></g></svg>