<svg id="svg" version="1.1" xmlns="http://www.w3.org/2000/svg" xmlns:xlink="http://www.w3.org/1999/xlink" width="400" height="400" viewBox="0, 0, 400,400"><g id="svgg"><path id="path0" d="M377.600 12.736 C 377.600 12.920,378.095 13.295,378.700 13.567 L 379.800 14.063 378.917 13.231 C 377.969 12.340,377.600 12.201,377.600 12.736 M385.209 19.446 C 385.221 19.913,386.780 21.900,386.791 21.463 C 386.796 21.278,386.440 20.669,386.000 20.109 C 385.560 19.550,385.204 19.251,385.209 19.446 M273.800 62.251 C 273.360 62.341,271.920 62.612,270.600 62.853 C 253.147 66.033,234.381 77.164,223.537 90.770 C 222.209 92.437,220.825 94.168,220.461 94.618 C 216.815 99.127,208.000 115.308,208.000 117.491 C 208.000 117.695,207.525 119.018,206.945 120.431 C 206.365 121.844,205.753 123.540,205.586 124.200 C 205.418 124.860,204.813 126.659,204.241 128.198 C 203.668 129.737,203.200 131.315,203.200 131.704 C 203.200 132.093,203.039 132.723,202.842 133.105 C 202.645 133.487,202.083 135.240,201.594 137.000 C 201.104 138.760,200.563 140.560,200.392 141.000 C 200.221 141.440,199.690 143.150,199.212 144.800 C 198.734 146.450,198.277 148.012,198.195 148.271 C 198.086 148.618,194.458 148.777,184.524 148.871 C 170.175 149.008,170.598 148.953,168.073 151.000 C 165.631 152.979,164.820 154.354,163.805 158.236 C 162.315 163.937,162.626 166.669,165.032 169.005 C 166.891 170.810,167.149 170.844,180.713 171.077 C 191.699 171.266,192.809 171.347,192.638 171.943 C 192.535 172.304,191.540 176.380,190.427 181.000 C 189.315 185.620,188.232 190.030,188.022 190.800 C 187.264 193.577,184.562 204.555,181.769 216.200 C 181.664 216.640,181.302 218.034,180.966 219.297 C 180.630 220.561,180.291 221.911,180.213 222.297 C 180.135 222.684,179.224 226.420,178.188 230.600 C 177.151 234.780,176.157 238.830,175.978 239.600 C 175.614 241.164,174.582 245.310,172.993 251.600 C 172.409 253.910,171.841 256.160,171.730 256.600 C 171.620 257.040,171.441 257.850,171.334 258.400 C 171.227 258.950,170.990 259.760,170.807 260.200 C 170.498 260.943,170.188 262.164,169.135 266.800 C 168.910 267.790,168.583 268.960,168.409 269.400 C 168.234 269.840,167.898 270.920,167.661 271.800 C 165.951 278.168,162.120 290.275,159.624 297.197 C 158.951 299.065,158.400 300.644,158.400 300.706 C 158.400 300.767,157.657 301.624,156.750 302.608 C 153.833 305.772,154.124 305.738,129.400 305.818 C 115.503 305.862,107.344 306.038,106.522 306.309 C 94.551 310.264,95.795 329.584,108.400 335.488 C 116.242 339.160,133.061 338.460,144.200 333.997 C 147.188 332.800,155.056 328.814,157.312 327.354 C 158.804 326.389,160.111 325.600,160.217 325.600 C 160.570 325.600,164.570 322.719,167.600 320.283 C 181.780 308.881,193.018 292.031,199.668 272.200 C 201.347 267.191,205.691 251.678,206.166 248.992 C 206.245 248.547,206.800 246.387,207.399 244.192 C 207.998 241.996,208.734 239.120,209.035 237.800 C 209.608 235.288,210.699 231.011,211.769 227.080 C 212.116 225.805,212.400 224.330,212.400 223.804 C 212.400 223.278,212.580 222.736,212.800 222.600 C 213.020 222.464,213.200 221.744,213.200 221.000 C 213.200 220.256,213.361 219.548,213.558 219.426 C 213.755 219.305,214.004 218.529,214.112 217.703 C 214.220 216.876,214.704 214.760,215.187 213.000 C 215.670 211.240,216.166 209.350,216.289 208.800 C 216.411 208.250,217.668 203.210,219.081 197.600 C 220.495 191.990,221.711 187.130,221.784 186.800 C 222.303 184.463,224.916 173.919,225.274 172.718 L 225.716 171.235 240.958 171.118 C 262.116 170.954,262.054 170.988,264.386 158.300 C 265.049 154.691,265.303 152.669,265.352 150.600 L 265.400 148.600 248.254 148.496 L 231.108 148.391 231.321 147.496 C 231.562 146.483,232.810 141.793,233.795 138.200 C 234.157 136.880,235.175 133.010,236.058 129.600 C 239.885 114.821,240.902 111.642,243.736 105.600 C 249.562 93.181,254.055 89.951,263.227 91.588 C 264.422 91.801,265.940 92.073,266.600 92.192 C 268.768 92.582,272.954 93.235,275.600 93.597 C 277.030 93.792,278.560 94.050,279.000 94.171 C 287.345 96.450,295.053 94.445,298.781 89.027 C 305.029 79.946,301.158 68.150,290.659 64.281 C 286.326 62.684,277.094 61.572,273.800 62.251 M386.919 378.090 C 386.031 379.238,385.943 379.738,386.781 378.874 C 387.276 378.364,387.598 377.865,387.497 377.764 C 387.396 377.663,387.136 377.810,386.919 378.090 M379.256 386.013 C 378.016 387.046,378.575 387.035,379.891 386.000 C 380.450 385.560,380.749 385.206,380.554 385.213 C 380.359 385.221,379.775 385.581,379.256 386.013 " stroke="none" fill="#fcfcfc" fill-rule="evenodd"></path><path id="path1" d="M48.700 0.293 C 47.655 0.376,46.800 0.614,46.800 0.822 C 46.800 1.030,46.080 1.200,45.200 1.200 C 44.320 1.200,43.600 1.380,43.600 1.600 C 43.600 1.820,43.060 2.000,42.400 2.000 C 41.740 2.000,41.200 2.180,41.200 2.400 C 41.200 2.620,40.660 2.800,40.000 2.800 C 39.340 2.800,38.800 2.980,38.800 3.200 C 38.800 3.420,38.445 3.600,38.012 3.600 C 37.579 3.600,36.583 3.960,35.800 4.400 C 35.017 4.840,34.111 5.200,33.788 5.200 C 33.465 5.200,33.200 5.346,33.200 5.525 C 33.200 5.704,32.570 6.098,31.800 6.400 C 31.030 6.702,30.400 7.096,30.400 7.275 C 30.400 7.454,30.080 7.600,29.688 7.600 C 29.297 7.600,28.724 7.950,28.415 8.379 C 28.107 8.807,27.719 9.073,27.553 8.971 C 27.387 8.869,26.796 9.240,26.239 9.797 C 25.683 10.354,25.083 10.762,24.906 10.705 C 24.729 10.647,24.050 11.095,23.396 11.700 C 22.743 12.305,22.001 12.800,21.747 12.800 C 21.493 12.800,21.178 13.081,21.046 13.425 C 20.914 13.769,20.620 13.936,20.393 13.796 C 20.166 13.655,20.020 13.689,20.068 13.870 C 20.116 14.052,18.456 15.919,16.378 18.020 C 13.106 21.328,10.160 24.939,9.945 25.904 C 9.909 26.067,9.592 26.419,9.240 26.687 C 8.888 26.955,8.747 27.180,8.927 27.187 C 9.107 27.194,8.882 27.723,8.427 28.362 C 7.972 29.001,7.600 29.721,7.600 29.962 C 7.600 30.203,7.465 30.401,7.300 30.403 C 6.941 30.407,6.000 32.344,6.000 33.080 C 6.000 33.366,5.820 33.600,5.600 33.600 C 5.380 33.600,5.200 33.870,5.200 34.200 C 5.200 34.530,5.020 34.800,4.800 34.800 C 4.580 34.800,4.400 35.162,4.400 35.605 C 4.400 36.048,4.235 36.723,4.033 37.105 C 2.942 39.168,2.000 41.712,2.000 42.596 C 2.000 43.148,1.820 43.600,1.600 43.600 C 1.380 43.600,1.200 44.305,1.200 45.167 C 1.200 46.064,0.987 46.804,0.700 46.900 C 0.301 47.033,0.200 78.009,0.200 200.000 C 0.200 321.991,0.301 352.967,0.700 353.100 C 0.987 353.196,1.200 353.936,1.200 354.833 C 1.200 355.695,1.380 356.400,1.600 356.400 C 1.820 356.400,2.000 356.940,2.000 357.600 C 2.000 358.260,2.180 358.800,2.400 358.800 C 2.620 358.800,2.800 359.340,2.800 360.000 C 2.800 360.660,2.980 361.200,3.200 361.200 C 3.420 361.200,3.600 361.555,3.600 361.988 C 3.600 362.421,3.960 363.417,4.400 364.200 C 4.840 364.983,5.200 365.874,5.200 366.179 C 5.200 366.484,5.335 366.793,5.500 366.867 C 5.665 366.940,6.247 367.900,6.793 369.000 C 7.339 370.100,8.059 371.270,8.393 371.600 C 8.727 371.930,9.056 372.459,9.125 372.775 C 9.194 373.091,9.615 373.666,10.062 374.053 C 10.508 374.441,10.768 374.928,10.639 375.137 C 10.510 375.345,10.685 375.624,11.028 375.755 C 11.370 375.887,11.559 376.143,11.447 376.324 C 11.335 376.506,11.593 376.907,12.021 377.215 C 12.450 377.524,12.800 377.913,12.800 378.080 C 12.800 379.177,25.172 390.344,26.100 390.084 C 26.265 390.038,26.400 390.176,26.400 390.391 C 26.400 390.606,27.075 391.121,27.900 391.537 C 32.203 393.703,34.614 395.031,34.733 395.300 C 34.807 395.465,35.229 395.600,35.672 395.600 C 36.114 395.600,37.032 395.995,37.710 396.479 C 38.389 396.962,38.822 397.159,38.672 396.916 C 38.481 396.607,38.699 396.614,39.396 396.937 C 39.945 397.192,40.395 397.498,40.397 397.618 C 40.399 397.738,41.075 397.882,41.899 397.937 C 42.724 397.993,43.570 398.210,43.779 398.419 C 43.989 398.629,44.538 398.800,45.000 398.800 C 45.462 398.800,46.065 399.025,46.340 399.300 C 47.075 400.035,352.925 400.035,353.660 399.300 C 353.935 399.025,354.743 398.800,355.456 398.800 C 356.169 398.800,356.864 398.620,357.000 398.400 C 357.136 398.180,357.676 398.000,358.200 398.000 C 358.724 398.000,359.264 397.820,359.400 397.600 C 359.536 397.380,359.962 397.200,360.347 397.200 C 360.731 397.200,362.281 396.578,363.791 395.819 C 365.301 395.059,366.714 394.547,366.930 394.680 C 367.150 394.816,367.197 394.719,367.038 394.462 C 366.781 394.046,367.543 393.791,368.530 393.963 C 368.711 393.994,368.764 393.866,368.648 393.677 C 368.531 393.489,369.058 393.091,369.818 392.793 C 370.578 392.495,371.200 392.104,371.200 391.925 C 371.200 391.746,371.472 391.600,371.804 391.600 C 372.136 391.600,372.969 391.064,373.655 390.408 C 374.341 389.752,375.040 389.301,375.209 389.406 C 375.378 389.510,375.629 389.301,375.768 388.940 C 375.906 388.580,376.106 388.373,376.213 388.480 C 376.774 389.040,388.002 377.772,389.354 375.293 C 389.562 374.912,389.927 374.468,390.166 374.306 C 390.405 374.144,390.458 374.009,390.284 374.006 C 390.111 374.003,390.336 373.606,390.784 373.125 C 391.233 372.643,391.600 371.923,391.600 371.525 C 391.600 371.126,391.753 370.800,391.940 370.800 C 392.127 370.800,392.891 369.585,393.638 368.100 C 394.385 366.615,395.132 365.340,395.298 365.267 C 395.464 365.193,395.601 364.833,395.601 364.467 C 395.602 364.100,395.968 363.201,396.415 362.468 C 396.862 361.735,396.996 361.267,396.714 361.427 C 396.302 361.660,396.299 361.611,396.700 361.179 C 396.975 360.882,397.200 360.305,397.200 359.896 C 397.200 359.487,397.344 359.242,397.520 359.351 C 397.696 359.459,397.885 358.885,397.939 358.075 C 397.994 357.265,398.210 356.430,398.419 356.221 C 398.629 356.011,398.800 355.462,398.800 355.000 C 398.800 354.538,399.025 353.935,399.300 353.660 C 399.698 353.262,399.800 321.995,399.800 200.000 C 399.800 78.005,399.698 46.738,399.300 46.340 C 399.025 46.065,398.800 45.257,398.800 44.544 C 398.800 43.831,398.620 43.136,398.400 43.000 C 398.180 42.864,398.000 42.324,398.000 41.800 C 398.000 41.276,397.820 40.736,397.600 40.600 C 397.380 40.464,397.200 40.022,397.200 39.617 C 397.200 39.212,396.660 37.855,396.000 36.600 C 395.340 35.345,394.800 33.966,394.800 33.536 C 394.800 33.105,394.620 32.864,394.400 33.000 C 394.045 33.219,393.805 32.378,393.963 31.470 C 393.994 31.289,393.835 31.255,393.610 31.394 C 393.384 31.533,393.200 31.367,393.200 31.024 C 393.200 30.681,393.020 30.400,392.800 30.400 C 392.580 30.400,392.400 30.040,392.400 29.600 C 392.400 29.160,392.220 28.800,392.000 28.800 C 391.780 28.800,391.600 28.522,391.600 28.182 C 391.600 27.842,391.150 27.114,390.600 26.564 C 390.050 26.014,389.600 25.400,389.600 25.200 C 389.600 25.000,389.195 24.415,388.700 23.900 C 388.205 23.384,387.260 22.256,386.600 21.391 C 384.528 18.678,379.848 14.039,378.700 13.561 C 378.095 13.309,377.600 12.929,377.600 12.716 C 377.600 12.128,375.893 10.828,375.100 10.813 C 374.715 10.806,374.400 10.519,374.400 10.176 C 374.400 9.833,374.220 9.664,374.000 9.800 C 373.780 9.936,373.600 9.857,373.600 9.624 C 373.600 9.391,373.240 9.200,372.800 9.200 C 372.360 9.200,372.000 9.020,372.000 8.800 C 372.000 8.580,371.730 8.400,371.400 8.400 C 371.070 8.400,370.800 8.220,370.800 8.000 C 370.800 7.780,370.530 7.600,370.200 7.600 C 369.870 7.600,369.599 7.465,369.597 7.300 C 369.593 6.941,367.656 6.000,366.920 6.000 C 366.634 6.000,366.400 5.820,366.400 5.600 C 366.400 5.380,366.130 5.200,365.800 5.200 C 365.470 5.200,365.200 5.053,365.200 4.872 C 365.200 4.692,364.289 4.296,363.175 3.993 C 362.061 3.690,361.060 3.297,360.951 3.121 C 360.842 2.944,360.313 2.800,359.776 2.800 C 359.239 2.800,358.800 2.620,358.800 2.400 C 358.800 2.180,358.260 2.000,357.600 2.000 C 356.940 2.000,356.400 1.820,356.400 1.600 C 356.400 1.380,355.695 1.200,354.833 1.200 C 353.936 1.200,353.196 0.987,353.100 0.700 C 352.944 0.231,54.498 -0.168,48.700 0.293 M286.200 62.960 C 298.576 65.857,304.458 74.827,300.749 85.143 C 297.750 93.486,289.314 96.987,279.000 94.171 C 278.560 94.050,277.030 93.792,275.600 93.597 C 272.954 93.235,268.768 92.582,266.600 92.192 C 265.940 92.073,264.422 91.801,263.227 91.588 C 254.055 89.951,249.562 93.181,243.736 105.600 C 240.902 111.642,239.885 114.821,236.058 129.600 C 235.175 133.010,234.157 136.880,233.795 138.200 C 232.810 141.793,231.562 146.483,231.321 147.496 L 231.108 148.391 248.254 148.496 L 265.400 148.600 265.352 150.600 C 265.303 152.669,265.049 154.691,264.386 158.300 C 262.054 170.988,262.116 170.954,240.958 171.118 L 225.716 171.235 225.274 172.718 C 224.916 173.919,222.303 184.463,221.784 186.800 C 221.711 187.130,220.495 191.990,219.081 197.600 C 217.668 203.210,216.411 208.250,216.289 208.800 C 216.166 209.350,215.670 211.240,215.187 213.000 C 214.704 214.760,214.220 216.876,214.112 217.703 C 214.004 218.529,213.755 219.305,213.558 219.426 C 213.361 219.548,213.200 220.256,213.200 221.000 C 213.200 221.744,213.020 222.464,212.800 222.600 C 212.580 222.736,212.400 223.278,212.400 223.804 C 212.400 224.330,212.116 225.805,211.769 227.080 C 210.699 231.011,209.608 235.288,209.035 237.800 C 208.734 239.120,207.998 241.996,207.399 244.192 C 206.800 246.387,206.245 248.547,206.166 248.992 C 205.952 250.204,202.183 264.218,201.269 267.200 C 198.141 277.409,195.192 284.442,190.367 293.200 C 186.659 299.931,178.941 309.898,173.148 315.435 C 169.426 318.993,161.021 325.600,160.217 325.600 C 160.111 325.600,158.804 326.389,157.312 327.354 C 155.056 328.814,147.188 332.800,144.200 333.997 C 129.217 340.000,110.489 339.051,103.510 331.935 C 95.194 323.455,96.833 309.510,106.522 306.309 C 107.344 306.038,115.503 305.862,129.400 305.818 C 154.124 305.738,153.833 305.772,156.750 302.608 C 157.657 301.624,158.400 300.767,158.400 300.706 C 158.400 300.644,158.951 299.065,159.624 297.197 C 162.120 290.275,165.951 278.168,167.661 271.800 C 167.898 270.920,168.234 269.840,168.409 269.400 C 168.583 268.960,168.910 267.790,169.135 266.800 C 170.188 262.164,170.498 260.943,170.807 260.200 C 170.990 259.760,171.227 258.950,171.334 258.400 C 171.441 257.850,171.620 257.040,171.730 256.600 C 171.841 256.160,172.409 253.910,172.993 251.600 C 174.582 245.310,175.614 241.164,175.978 239.600 C 176.157 238.830,177.151 234.780,178.188 230.600 C 179.224 226.420,180.135 222.684,180.213 222.297 C 180.291 221.911,180.630 220.561,180.966 219.297 C 181.302 218.034,181.664 216.640,181.769 216.200 C 184.562 204.555,187.264 193.577,188.022 190.800 C 188.232 190.030,189.315 185.620,190.427 181.000 C 191.540 176.380,192.535 172.304,192.638 171.943 C 192.809 171.347,191.699 171.266,180.713 171.077 C 167.149 170.844,166.891 170.810,165.032 169.005 C 162.626 166.669,162.315 163.937,163.805 158.236 C 164.820 154.354,165.631 152.979,168.073 151.000 C 170.598 148.953,170.175 149.008,184.524 148.871 C 194.458 148.777,198.086 148.618,198.195 148.271 C 198.277 148.012,198.734 146.450,199.212 144.800 C 199.690 143.150,200.221 141.440,200.392 141.000 C 200.563 140.560,201.104 138.760,201.594 137.000 C 202.083 135.240,202.645 133.487,202.842 133.105 C 203.039 132.723,203.200 132.093,203.200 131.704 C 203.200 131.315,203.668 129.737,204.241 128.198 C 204.813 126.659,205.418 124.860,205.586 124.200 C 205.753 123.540,206.365 121.844,206.945 120.431 C 207.525 119.018,208.000 117.695,208.000 117.491 C 208.000 115.308,216.815 99.127,220.461 94.618 C 220.825 94.168,222.209 92.437,223.537 90.770 C 234.381 77.164,253.147 66.033,270.600 62.853 C 271.920 62.612,273.360 62.341,273.800 62.251 C 275.380 61.925,283.849 62.409,286.200 62.960 " stroke="none" fill="#2f333e" fill-rule="evenodd"></path></g></svg>