<svg xmlns="http://www.w3.org/2000/svg" xml:space="preserve" viewBox="0 0 192 174.32"><g style="mix-blend-mode:normal"><path fill="#fefefe" d="m.045 3.819 3.228 3.625L6.5 11.07l5.5 6.773 5.5 6.775 2 2.235 2 2.232 4 5.067 4 5.064 14 2.965 18 3.242 5.322 1.035 5.325 1.035-.534 1.391-.535 1.39-3.646 10.772-3.649 10.77-1.316 3-1.319 3-5.177 12.5-5.176 12.5-4.504 11-4.502 11-.846 2-.843 2-8.407 20-3.636 9.817 2.72 2.371 2.723 2.371 4.516 2.926 4.515 2.924 6.485-1.451 6.484-1.453 12.648-2.325 1.475-2.09 1.476-2.09 5.786-8 5.787-8 21.59-30.5h1.713l2.662 4.25 2.66 4.25 11.17 17 11.168 17 7.86 12.31 21.005 3.375 14.713 2.816H183v-3.555l-1.32-1.972-1.318-1.973-2.293-5.5-2.295-5.5-4.489-10-6.52-21-2.526-9-3.391-13-2.98-12L153 80.642v-2.844l1.75-1.088 1.75-1.09 14-7.593 1-.723 1-.72 12-6.54 2.5-1.777 2.5-1.78 1.127-6.333 1.13-6.336.24-13.5h-.805l-7.643-10.275-7.642-10.273-11.203-1.68L153.5 6.41l-11-1.504-11-1.506L108.694 0l-37.07.664-37.07.666-17.277.65-17.275.653z"/><path fill="#f58085" d="m156.856 165.325-9.644-1.713-2.82-1.082-37.892-58.143-1.209-.035-1.208-.036-38.924 54.536-15.658 3.475-6.37 1.214-8.088-5.724-.02-1.234L35 155.35l33.208-80.533 10.763-30.9-2.472-1.57-3.503-.03L52.5 38.301 33.158 34.79 12 9.452v-1.9l92.5-1.46 18 2.23 22 2.909 23.602 3.085h1.63l14.46 18.905-2.1 19.336-.593.415-38.452 20.457-.804 1.387 26.328 79 3.206 6 3.12 7.5-8.398-.28z"/><path fill="#9e9e9e" d="m156.856 165.325-9.644-1.713-2.82-1.082-37.892-58.143-1.209-.035-1.208-.036-38.924 54.536-15.658 3.475-6.37 1.214-8.088-5.724-.02-1.234L35 155.35l33.208-80.533 10.763-30.9-2.472-1.57-3.503-.03L52.5 38.301 33.158 34.79 12 9.452v-1.9l92.5-1.46 18 2.23 22 2.909 23.602 3.085h1.63l14.46 18.905-2.1 19.336-.593.415-38.452 20.457-.804 1.387 26.328 79 3.206 6 3.12 7.5-8.398-.28zM114 66.463l23.5-1.737 11.718-7.524-.718-.688-34.285 2.537-6.904 5.265h-1.35l.667-2.657.668-2.658-12.59 1.316h-4.68L87 67.56v.755l3.5-.117z"/><path fill="#ef4e53" d="m157.996 164.975-12.5-2.158-36.32-55-3.298-4.533-2.71 1.533-10.849 15-24.09 34-1.912 2.357-1.911 2.357-20.865 4.583-8.545-6.136v-.514l12.734-30.647 13.53-33 7.999-19 10.42-30.684-2.183-.726-28-5.101-16-3.074-2.33-2.414L12.123 8.856l.64-.64L102.07 6.29l55.425 7.187 11.514 1.12 14.724 18.453-1.014 9.524-1.014 9.523-38.882 20.72-1.017 2.434 24.419 73.566 7.77 17.503v.998l-3.5-.185zm-44-98.511 23.5-1.737 11.718-7.524-.718-.688-34.285 2.537-6.904 5.265h-1.35l.667-2.657.668-2.658-12.59 1.316h-4.68l-3.026 7.244v.755l3.5-.117z"/><path fill="#eb2f30" d="m157.996 164.975-12.5-2.158-36.32-55-3.298-4.533-2.71 1.533-10.849 15-24.09 34-1.912 2.357-1.911 2.357-20.865 4.583-8.545-6.136v-.514l12.734-30.647 13.53-33 7.999-19 10.42-30.684-2.183-.726-28-5.101-16-3.074-2.33-2.414L12.123 8.856l.64-.64L102.07 6.29l55.425 7.187 11.514 1.12 14.724 18.453-1.014 9.524-1.014 9.523-38.882 20.72-1.017 2.434 24.419 73.566 7.77 17.503v.998l-3.5-.185zm-48.592-90.813L125.312 73l3.384-3.383 16.544-8.8 18.539-15.341 1.458-2.359-17.741 1.371-7.357 1.868-8.233 6.878-4.713-1.792-1.754 1.937-1.753 1.938h-3.308l-3.882 2.936-2.712.064-6.04 5.082-.584-.585 3.033-10.997.518-2.25.518-2.25-5.733.018-10.32 1.24-9.117 19.383-.456 3.68-.456 3.68 8.349.006z"/><path fill="#cb1516" d="m157.996 164.975-12.5-2.158-36.32-55-3.298-4.533-2.71 1.533-10.849 15-24.09 34-1.912 2.357-1.911 2.357-20.865 4.583-8.545-6.136v-.514l12.734-30.647 13.53-33 7.999-19 10.42-30.684-2.183-.726-28-5.101-16-3.074-2.33-2.414L12.123 8.856l.64-.64L102.07 6.29l55.425 7.187 11.514 1.12 14.724 18.453-1.014 9.524-1.014 9.523-38.882 20.72-1.017 2.434 24.419 73.566 7.77 17.503v.998l-3.5-.185zm-4.939-17.502-1.877-4.764-5.908-14.892-4.59-19-5.165-15.5-5.166-15.5-2.021.388-.096-2.388-.637-1.52-.638-1.52 18.537-10.956 13.795-10.357 5.352-6.137 5.352-6.137v-1.972l-3.203-6.195-25.297 1.352-17.807 1.263 18.409 5.504 2.944 1.13-1.272 2.087-1.273 2.088-9.505 6.87h-6.877l-1.236 2h-2.91l-11.677 5.562.468-4.53.467-4.532 3.696-8.586.621-3.312.622-3.312-15.668.92-2.435 3.082-4.193 12.6-3.59 4.609-3.262 6.36-7.02 19.64v4.5l14.5-.12 10-1.966 25.781-.414 8.218 24.005 4.776 19.995 1.281 3.5 1.282 3.5 3.188 7.5h-.822l-20.5-31.5-4.705-5.654v1.833l17.256 26.82 12.786 19.593 1.897-1.173zm-60.06-116.93-6.5-1.347-9.455-1.517-.718 2.135-4.828-2.298-6.246-2.34-10.754-.702-8-.286 4.5-1.81v-3.064l2.5-.097 16.5-.804v2.146l2.5-1.969 5.377-1.283.62 1.004.621 1.004h3.882v-1.948l26.5.859 22 1.21 22.452 3.96 9.34 2.81-1.792-1.618-7-2.355-25-5.2-78.325-.218-5.676 4.13-7.88-1.678-2.751 2.75 6.631 2.5 4 1.718 16.897 1.104 1.389 2.246 5.092-1.278 1.049 1.698 23.419 1.255 1.823 1.823 4.332-1.193z"/><path fill="#b30e0f" d="m157.996 164.975-12.5-2.158-36.32-55-3.298-4.533-2.71 1.533-10.849 15-24.09 34-1.912 2.357-1.911 2.357-20.865 4.583-8.545-6.136v-.514l12.734-30.647 13.53-33 7.999-19 10.42-30.684-2.183-.726-28-5.101-16-3.074-2.33-2.414L12.123 8.856l.64-.64L102.07 6.29l55.425 7.187 11.514 1.12 14.724 18.453-1.014 9.524-1.014 9.523-38.882 20.72-1.017 2.434 24.419 73.566 7.77 17.503v.998l-3.5-.185zm-3-12.607v-.95l-10-23.597v-3.828l-1.6-5.588-1.6-5.588-13.12-40.513.82-.632 21.978-13.856 14.471-11.62 1.474-2.69 1.473-2.69 2.044-4.473-3.694-8.526-6.186-3.578-9.56-2.9-23-4.365-77.324-.157-5.676 4.13-7.766-1.654-2.819 2.339 1.585 1.354 9 3.254 16.919 1.137 1.08 1.632 10 1.348 16 .887 6.786 2.015 1.715-1.06v3.25l-1.923 3.591-.752 6.825-2.825 5.19-4.413 8.01-7.224 18.751-6.73 19.5h2.1l-1.046 4h8.857l10.769-10.943 11.436-5.057h3.32l1.76 2.978 1.758 2.978 7.413 7.027 7-.03 7.035-1.638 3.355 11.185 5.3 18.643-1.029 1.03 5.964 13.328-1.874-2-25.28-38.5h-2.09l1.51 2.5 13.952 22 18.636 28.5h2.02zm-44.478-94.902.658-1.649 2.399-11.527 3.42-3.995V37.7l2.647-3.62 3.854 2.013 16 3.409 4.5.854-.064 1.462-2.487 3-6.611 3.5h-2.183l-7.863 3.5-14.928 7.296zM72.496 27.479l-3-.339-2-1.597-9-1.58-12 .306 4.5-1.888v-1.905l5.981-1.314 13.02-.719v1.891l3.83-2.393 9.17 2.099v-2.012l42.5 1.272 16.49 2.078 4.442 1.644-28.933 2.38-42 2.415z"/><path fill="#601516" d="m157.996 164.975-12.5-2.158-36.32-55-3.298-4.533-2.71 1.533-10.849 15-24.09 34-1.912 2.357-1.911 2.357-20.865 4.583-8.545-6.136v-.514l12.734-30.647 13.53-33 7.999-19 10.42-30.684-2.183-.726-28-5.101-16-3.074-2.33-2.414L12.123 8.856l.64-.64L102.07 6.29l55.425 7.187 11.514 1.12 14.724 18.453-1.014 9.524-1.014 9.523-38.882 20.72-1.017 2.434 24.419 73.566 7.77 17.503v.998l-3.5-.185zm-3-12.721v-1.064l-9.085-21.269-.327-2.552-.326-2.552-2.62-9.501-2.62-9.502-5.485-16.386-5.485-16.388.473-.764.472-.764 19.96-12.266 14.543-11.59 7.5-8.346v-2.363l-4.172-8.617-5.531-3.939-14.797-3.98-16.86-3.122-25.14-1.334-53.625.275-7.002 4.327-6.989-1.134-2.884 1.107v2.786h3.064l7.436 3.135 15.889.942 2.11 1.652 9 1.513 8-.242 17.626 3.23-1.308 3.27-5.62 15-5.133 12-9.064 23.456v2.644l-1.653 1.9-2.813 9-5.534 10.866v2.661l-1.762 3.473-7.093 15-4.938 11.28-1.366 6.22h2.678l27.48-40.897v-1.936l.827-.333.826-.333 10.516-15.66 13.018-5.84h1.64l43.673 67.96 1.25.02 1.25.02zM110.9 56.692l.835-2.874 6.602-17 1.16-1.311 12 2.55 9 2.598 1.669 1.432-6.67 4.998-5 1.469-3 2.608-6 1.447-5.308 3.708h-2.534l-3.59 3.248z"/><path fill="#020101" d="m159.196 164.855-13.305-2.245-1.676-1.79-34.738-53-1.674-2.382-1.675-2.382-2.953 1.133-37.403 52.63-1.331 1.46-21.26 4.416-7.18-5.478v-2.258l13.231-32.14 7.505-18 13.37-32.545 9.96-29.22-.63-.63L56.5 38.24l-16-2.845-7.228-1.575-20.49-24.614.719-.673 90.982-1.965 2.017.698 25 3.087 37.651 4.79 2.35 3.001 11.718 15.1-.713 9.001-.712 9.002-1.147.894-1.147.893-20 10.614-18 9.905-.233.2-.232.2 25.732 76.868 3.579 8.25 3.579 8.25-.712-.11-.712-.11zm-5.11-16.286-1.317-3.75-3.235-8-3.235-8-2.313-9.5-2.314-9.5-12.325-37.442L146.5 62.008 162.5 50l7.73-7.18 2.525-5.823-4.789-9.535-6.466-3.982-16-4.002-20-3.541-74-.117-5.943 4h-10.01l-.694 3.5h2.244l8.387 4.052 8.016.039 7.892-.074 1.488 2.407 6.62.64 11 .983 16.5 2.16-.028 1.293-6.785 18-10.353 26-7.535 21-5.156 11-4.315 13-2.828 3.157v1.825L52.9 143.175l-1.193 7.347 1.781-.352 1.78-.351 39.234-58.387 13.736-6.21.465.597 16.614 26 10.39 16 17.412 26.783 2.284-2.284zM112 55.785v-1.439l3.688-9.549 3.688-9.549 3.124 1.316 11 2.587 7.5 2.261-.014 1.406-6.61 4.5h-2.375l-9.5 4.874-10.5 5.03z"/></g></svg>