<svg width="192" height="174.32" version="1.1" viewBox="0 0 192 174.32" xml:space="preserve" xmlns="http://www.w3.org/2000/svg"><g transform="translate(-.0039062 -8.6855)"><g style="mix-blend-mode:normal"><path d="m0.048828 12.504 3.2285 3.625 3.2266 3.627 5.5 6.7734 5.5 6.7754 2 2.2344 2 2.2324 4 5.0664 4 5.0645 14 2.9648 18 3.2422 5.3223 1.0352 5.3242 1.0352-0.5332 1.3906-0.53516 1.3906-3.6465 10.771-3.6484 10.771-1.3164 3-1.3184 3-5.1777 12.5-5.1758 12.5-4.5039 11-4.502 11-0.8457 2-0.84375 2-8.4062 20-3.6367 9.8164 2.7207 2.3711 2.7227 2.3711 4.5156 2.9258 4.5156 2.9238 6.4844-1.4512 6.4844-1.4531 12.648-2.3242 1.4746-2.0898 1.4766-2.0898 5.7852-8 5.7871-8 21.59-30.5h1.7129l2.6621 4.25 2.6602 4.25 11.17 17 11.168 17 7.8594 12.309 21.006 3.375 14.713 2.8164h5.7871v-3.5547l-1.3203-1.9727-1.3184-1.9726-2.293-5.5-2.2949-5.5-4.4883-10-6.5195-21-2.5273-9-3.3906-13-2.9805-12-2.8672-10.176v-2.8438l1.75-1.0879 1.75-1.0898 14-7.5938 1-0.72266 1-0.7207 12-6.5391 2.5-1.7773 2.5-1.7793 1.127-6.334 1.1289-6.3359 0.24023-13.5h-0.80469l-7.6426-10.275-7.6426-10.273-11.203-1.6797-11.203-1.6816-11-1.5039-11-1.5059-22.807-3.3984-37.07 0.66406-37.07 0.66602-17.277 0.65039-17.275 0.65234z" fill="#fefefe"/><path d="m156.86 174.01-9.6436-1.7122-2.8205-1.0823-37.892-58.143-1.2086-0.03539-1.2086-0.0354-38.924 54.536-15.658 3.4745-6.3691 1.2138-8.0882-5.7238-0.021352-1.2335-0.021351-1.2335 33.208-80.533 10.763-30.9-2.4713-1.5697-3.5038-0.030626-20.496-4.014-19.343-3.5131-21.157-25.337v-1.8995l92.5-1.4607 18 2.2303 22 2.9082 23.602 3.0855h1.631l14.46 18.905-2.1011 19.336-0.59272 0.41517-38.452 20.457-0.80386 1.3869 26.328 79 3.206 6 3.12 7.5-8.398-0.27993z" fill="#f58085"/><path d="m156.86 174.01-9.6436-1.7122-2.8205-1.0823-37.892-58.143-1.2086-0.03539-1.2086-0.0354-38.924 54.536-15.658 3.4745-6.3691 1.2138-8.0882-5.7238-0.021352-1.2335-0.021351-1.2335 33.208-80.533 10.763-30.9-2.4713-1.5697-3.5038-0.030626-20.496-4.014-19.343-3.5131-21.157-25.337v-1.8995l92.5-1.4607 18 2.2303 22 2.9082 23.602 3.0855h1.631l14.46 18.905-2.1011 19.336-0.59272 0.41517-38.452 20.457-0.80386 1.3869 26.328 79 3.206 6 3.12 7.5-8.398-0.27993zm-42.856-98.862 23.5-1.7361 11.718-7.5249-0.71844-0.68739-34.285 2.5364-6.904 5.2659h-1.3493l0.66709-2.6579 0.6671-2.6579-12.589 1.3159h-4.6798l-3.0268 7.2442v0.75575l3.5-0.1177z" fill="#9e9e9e"/><path d="m158 173.66-12.5-2.1574-36.32-55-3.2979-4.5331-2.7102 1.5331-10.849 15-24.09 34-1.9117 2.3568-1.9117 2.3567-20.865 4.5834-8.5441-6.1359v-0.51365l12.734-30.647 13.529-33 7.9992-19 10.421-30.684-2.1838-0.72632-28-5.1014-16-3.0735-2.3307-2.4147-19.041-22.962 0.64008-0.64008 89.306-1.9259 55.425 7.1875 11.514 1.1194 14.724 18.454-1.0141 9.5231-1.0141 9.5231-38.882 20.721-1.0172 2.4338 24.419 73.566 7.7697 17.503v0.99726l-3.5-0.1852zm-44-98.511 23.5-1.7361 11.718-7.5249-0.71844-0.68739-34.285 2.5364-6.904 5.2659h-1.3493l0.66709-2.6579 0.6671-2.6579-12.589 1.3159h-4.6798l-3.0268 7.2442v0.75575l3.5-0.1177z" fill="#ef4e53"/><path d="m158 173.66-12.5-2.1574-36.32-55-3.2979-4.5331-2.7102 1.5331-10.849 15-24.09 34-1.9117 2.3568-1.9117 2.3567-20.865 4.5834-8.5441-6.1359v-0.51365l12.734-30.647 13.529-33 7.9992-19 10.421-30.684-2.1838-0.72632-28-5.1014-16-3.0735-2.3307-2.4147-19.041-22.962 0.64008-0.64008 89.306-1.9259 55.425 7.1875 11.514 1.1194 14.724 18.454-1.0141 9.5231-1.0141 9.5231-38.882 20.721-1.0172 2.4338 24.419 73.566 7.7697 17.503v0.99726l-3.5-0.1852zm-48.592-90.813 15.908-1.1612 3.3838-3.3837 16.544-8.7996 18.539-15.341 1.4577-2.3586-17.741 1.371-7.3569 1.8672-8.2324 6.878-4.7134-1.792-1.7536 1.9377-1.7536 1.9377h-3.3078l-3.8823 2.9364-2.7113 0.0636-6.0398 5.0822-0.58489-0.58489 3.0334-10.997 0.51789-2.25 0.51788-2.25-5.7332 0.0174-10.319 1.2398-9.1171 19.383-0.45644 3.6801-0.45644 3.6801 8.3492 0.0058z" fill="#eb2f30"/><path d="m158 173.66-12.5-2.1574-36.32-55-3.2979-4.5331-2.7102 1.5331-10.849 15-24.09 34-1.9117 2.3568-1.9117 2.3567-20.865 4.5834-8.5441-6.1359v-0.51365l12.734-30.647 13.529-33 7.9992-19 10.421-30.684-2.1838-0.72632-28-5.1014-16-3.0735-2.3307-2.4147-19.041-22.962 0.64008-0.64008 89.306-1.9259 55.425 7.1875 11.514 1.1194 14.724 18.454-1.0141 9.5231-1.0141 9.5231-38.882 20.721-1.0172 2.4338 24.419 73.566 7.7697 17.503v0.99726l-3.5-0.1852zm-4.9386-17.502-1.8778-4.7639-5.9074-14.892-4.5894-19-5.1658-15.5-5.1658-15.5-2.0217 0.38889-0.0952-2.3889-0.63783-1.52-0.63782-1.52 18.537-10.956 13.795-10.357 5.3523-6.137 5.3524-6.137v-1.9718l-3.2034-6.1946-25.297 1.3518-17.807 1.2635 18.409 5.5036 2.9441 1.1297-1.2726 2.0874-1.2726 2.0874-9.5046 6.8706h-6.8773l-1.2361 2h-2.9096l-11.677 5.5618 0.46739-4.5309 0.4674-4.5309 3.6956-8.5857 0.62141-3.3124 0.6214-3.3124-15.668 0.91954-2.4342 3.0832-4.1929 12.6-3.5902 4.6082-3.2623 6.361-7.0199 19.639-3e-4 2.25-2.99e-4 2.25 14.5-0.11922 10-1.9669 25.782-0.4139 8.218 24.005 4.7757 19.995 1.2812 3.5 1.2812 3.5 3.1887 7.5h-0.82191l-20.501-31.5-4.7039-5.6534v1.8323l17.256 26.821 12.786 19.592 1.8968-1.1723zm-60.061-116.93-6.5-1.3468-9.4548-1.5168-0.71794 2.1356-4.8273-2.2982-6.2465-2.3395-10.754-0.70329-8-0.28586 4.5-1.8088v-3.0644l2.5-0.0975 16.5-0.80408v2.1465l2.5-1.9691 5.3774-1.2831 0.6203 1.0037 0.6203 1.0037h3.882v-1.9478l26.5 0.85918 22 1.2109 22.452 3.9591 9.3398 2.8109-1.7922-1.6192-7-2.355-25-5.1987-78.325-0.21926-5.6753 4.1301-7.8807-1.6779-2.7508 2.7508 6.6315 2.4989 4 1.7187 16.897 1.1035 1.3885 2.2467 5.0921-1.278 1.0491 1.6975 23.419 1.255 1.8235 1.8235 4.3313-1.1939z" fill="#cb1516"/><path d="m158 173.66-12.5-2.1574-36.32-55-3.2979-4.5331-2.7102 1.5331-10.849 15-24.09 34-1.9117 2.3568-1.9117 2.3567-20.865 4.5834-8.5441-6.1359v-0.51365l12.734-30.647 13.529-33 7.9992-19 10.421-30.684-2.1838-0.72632-28-5.1014-16-3.0735-2.3307-2.4147-19.041-22.962 0.64008-0.64008 89.306-1.9259 55.425 7.1875 11.514 1.1194 14.724 18.454-1.0141 9.5231-1.0141 9.5231-38.882 20.721-1.0172 2.4338 24.419 73.566 7.7697 17.503v0.99726l-3.5-0.1852zm-3-12.607v-0.94963l-10-23.597v-3.8282l-1.5999-5.5879-1.5999-5.5879-13.121-40.513 0.82073-0.63147 21.978-13.856 14.471-11.621 1.4735-2.6893 1.4735-2.6893 2.0443-4.4733-3.6946-8.5267-6.1857-3.5776-9.5601-2.9009-23-4.3646-77.324-0.15695-5.6761 4.1301-7.7661-1.6541-2.8187 2.3393 1.5848 1.3542 9 3.2539 16.919 1.1366 1.081 1.6325 10 1.3478 16 0.88674 6.7847 2.0151 1.7153-1.0601v3.2495l-1.9224 3.5921-0.75212 6.8251-2.8254 5.1893-4.4125 8.0107-7.2247 18.751-6.7305 19.5h2.1009l-1.046 4h8.8568l10.769-10.943 11.436-5.0574h3.3199l1.7593 2.9782 1.7593 2.9782 7.4126 7.0262 7-0.0304 7.0351-1.6368 3.3548 11.185 5.3003 18.643-1.0292 1.0292 5.9644 13.328-1.8747-2-25.28-38.5h-2.0889l1.5084 2.5 13.953 22 18.636 28.5h2.0201zm-44.478-94.902 0.6583-1.6482 2.3982-11.527 3.421-3.9955v-2.5949l2.6468-3.6198 3.8532 2.013 16 3.4086 4.5 0.854-0.0636 1.4619-2.4865 3-6.6119 3.5h-2.1827l-7.8633 3.5-14.928 7.2964zm-38.022-29.987-3-0.33849-2-1.5969-9-1.5805-12 0.30642 4.5-1.8876v-1.9055l5.981-1.3136 13.019-0.71908v1.8908l3.8311-2.3926 9.1689 2.0981v-2.0111l42.5 1.2715 16.491 2.0784 4.442 1.6432-28.933 2.3809-42 2.4146z" fill="#b30e0f"/><path d="m158 173.66-12.5-2.1574-36.32-55-3.2979-4.5331-2.7102 1.5331-10.849 15-24.09 34-1.9117 2.3568-1.9117 2.3567-20.865 4.5834-8.5441-6.1359v-0.51365l12.734-30.647 13.529-33 7.9992-19 10.421-30.684-2.1838-0.72632-28-5.1014-16-3.0735-2.3307-2.4147-19.041-22.962 0.64008-0.64008 89.306-1.9259 55.425 7.1875 11.514 1.1194 14.724 18.454-1.0141 9.5231-1.0141 9.5231-38.882 20.721-1.0172 2.4338 24.419 73.566 7.7697 17.503v0.99726l-3.5-0.1852zm-3-12.721v-1.0635l-9.0851-21.269-0.32671-2.5522-0.3267-2.5522-2.6197-9.501-2.6197-9.5011-5.4849-16.387-5.4849-16.387 0.47227-0.76416 0.47228-0.76416 19.96-12.266 14.543-11.59 7.5-8.3463v-2.3628l-4.1717-8.6175-5.5312-3.9386-14.797-3.9801-16.86-3.1217-25.14-1.3341-53.625 0.27444-7.0017 4.3273-6.989-1.1342-2.8847 1.107v2.786h3.0642l7.4358 3.1356 15.889 0.94215 2.1112 1.6521 9 1.5126 8-0.24215 17.625 3.2305-1.3075 3.2692-5.6198 15-5.1333 12-9.0647 23.456v2.6443l-1.6522 1.9-2.8131 9-5.5346 10.866v2.6611l-1.7614 3.4729-7.0937 15-4.9378 11.281-1.366 6.2194h2.6781l27.481-40.897v-1.9359l0.82613-0.33334 0.82613-0.33333 10.516-15.659 13.018-5.8408h1.6402l43.673 67.96 1.25 0.02 1.25 0.02004zm-44.096-95.562 0.83524-2.874 6.602-17 1.1591-1.3107 12 2.5493 9 2.5985 1.6692 1.432-6.6692 4.9987-5 1.4687-3 2.6076-6 1.4475-5.3087 3.7083h-2.5338l-3.589 3.248z" fill="#601516"/><path d="m159.2 173.54-13.305-2.2445-1.6758-1.7909-34.738-53-1.6747-2.3815-1.6747-2.3815-2.9528 1.1331-37.403 52.63-1.3314 1.4593-21.259 4.4166-7.1816-5.4777v-2.2587l13.232-32.139 7.5047-18 13.37-32.546 9.9599-29.22-0.6305-0.6305-22.936-4.183-16-2.8452-7.2277-1.5748-20.491-24.614 0.71916-0.67297 90.982-1.965 2.0176 0.69789 25 3.0873 37.651 4.7905 2.3494 3.0005 11.718 15.099-0.71245 9.0017-0.71246 9.0017-1.1467 0.89374-1.1468 0.89374-20 10.614-18 9.9044-0.23276 0.20002-0.23277 0.20002 25.732 76.868 3.5791 8.25 3.579 8.25-0.71207-0.11004-0.71207-0.11005zm-5.1106-16.286-1.3164-3.7494-3.2349-8-3.2349-8-2.3137-9.5-2.3137-9.5-12.325-37.442 17.154-10.369 16-12.009 7.73-7.18 2.5252-5.8231-4.789-9.5347-6.4662-3.9826-16-4.0014-20-3.5413-74-0.11696-5.9431 4h-10.009l-0.69451 3.5h2.2433l8.3876 4.0524 8.0158 0.0386 7.8923-0.0744 1.4877 2.4072 6.62 0.63963 11 0.98351 16.5 2.1596-0.02822 1.2934-6.7843 18-10.353 26-7.5355 21-5.156 11-4.3146 13-2.8282 3.1575v1.8248l-7.1025 14.374-1.1922 7.3468 1.7805-0.3517 1.7805-0.35169 39.234-58.387 13.736-6.2105 0.46454 0.59756 16.614 26 10.39 16 17.412 26.783 2.2842-2.2842zm-42.085-92.783v-1.438l3.6877-9.549 3.6878-9.549 3.1245 1.3158 11 2.5866 7.5 2.2615-0.014 1.406-6.6101 4.5h-2.3752l-9.501 4.8736-10.5 5.0306z" fill="#020101"/></g></g></svg>
