<svg xmlns="http://www.w3.org/2000/svg" style="shape-rendering:geometricPrecision;text-rendering:geometricPrecision;image-rendering:optimizeQuality;fill-rule:evenodd;clip-rule:evenodd" viewBox="0 0 200 105"><path d="M5.5 5.5c-.667-1.333-.667-1.333 0 0Z" style="opacity:.004"/><path fill="#bbdf9b" d="M9.5 5.5c45.668-.167 91.335 0 137 .5 4.267.19 8.267 1.023 12 2.5a5980.117 5980.117 0 0 0-152-1l3-2Z" style="opacity:.634"/><path fill="#79c332" d="M6.5 7.5c50.686-.31 101.352.023 152 1h1c2.292 1.767 4.958 2.767 8 3h2a167.12 167.12 0 0 0 12 8.5c1.939 1.432 3.272 3.265 4 5.5.464 3.76 2.131 6.927 5 9.5a106.129 106.129 0 0 1 3 7.5 702.727 702.727 0 0 0-1 53c-47.503-.332-94.836.001-142 1h-5a57.319 57.319 0 0 1-18-6 170.87 170.87 0 0 1-13-11 50.535 50.535 0 0 1-6-12 70.543 70.543 0 0 0-1.5-9c-.5-16.997-.667-33.997-.5-51Zm76 35c-2.652-.09-4.986.576-7 2-1.869-1.534-3.202-3.534-4-6-7.122-4.92-14.456-5.253-22-1a6.541 6.541 0 0 1-3 3c-.61 1.934-1.61 3.6-3 5-2.75 6.746-2.584 13.413.5 20 4.968 5.615 11.135 7.448 18.5 5.5a58.472 58.472 0 0 0 9.5-8.5c2.63.709 5.13 1.709 7.5 3-1.112 1.92-2.446 3.586-4 5-.359 1.871-1.359 3.371-3 4.5-3.49 2.412-7.157 4.245-11 5.5a75.84 75.84 0 0 1-15-1c-12.97-7.77-17.136-19.104-12.5-34C42.268 27.297 55.768 21.797 74.5 29c4.87 3.248 7.537 7.748 8 13.5Zm39-13c.996-.086 1.829.248 2.5 1 1.459 1.932 2.625 3.932 3.5 6v4a15.42 15.42 0 0 0-7 1 31.12 31.12 0 0 0-2-2c-3.043-6.002-7.71-7.502-14-4.5-5.333 4-5.333 8 0 12l11 5c1.563.759 2.563 1.926 3 3.5 2.855 2.201 4.189 5.201 4 9-.128 5.252-2.128 9.586-6 13-6.088 2.975-12.421 3.642-19 2l-6-2c-4.44-3.97-6.772-8.97-7-15 2.982-.463 5.982-.796 9-1-.284 1.915.049 3.581 1 5-.073 1.527.594 2.527 2 3 .558 1.29 1.558 2.123 3 2.5 3.721.678 7.388.511 11-.5 4-4 4-8 0-12l-8-3c-11.295-5.54-13.628-13.54-7-24 .578 1.047 1.245.88 2-.5-.228-.399-.562-.565-1-.5 3.501-3.996 8.001-5.996 13.5-6 2.856.371 5.689.871 8.5 1.5 1.442.377 2.442 1.21 3 2.5Zm25 16c-1.047.578-.88 1.245.5 2 .399-.228.565-.562.5-1a132.423 132.423 0 0 1 14 6.5c7.291 7.015 7.791 14.515 1.5 22.5a30.818 30.818 0 0 0-4.5 3c-4.841 1.652-9.841 2.318-15 2-4.991-1.163-8.991-3.83-12-8-1.523-3.135-2.19-6.468-2-10a51.648 51.648 0 0 0 7-1 23.326 23.326 0 0 0 3 6v2c-1.047.578-.88 1.245.5 2 .399-.228.565-.562.5-1 6.276 3.267 11.943 2.6 17-2 .795-4.094-.538-7.26-4-9.5-6.565-1.772-11.898-5.272-16-10.5-1.262-4.652-1.262-9.319 0-14 6.561-7.896 14.894-10.396 25-7.5 5.746 2.245 9.08 6.412 10 12.5a43.285 43.285 0 0 1-9 2c-1.474-7.08-5.808-9.58-13-7.5-4.757 2.6-6.091 6.434-4 11.5Z" style="opacity:1"/><path fill="#8da876" d="M159.5 8.5c3.042.233 5.708 1.233 8 3-3.042-.233-5.708-1.233-8-3Z" style="opacity:.396"/><path d="M169.5 10.5c-.667-1.333-.667-1.333 0 0ZM169.5 10.5c1.333.667 1.333.667 0 0ZM176.5 14.5c-.667-1.333-.667-1.333 0 0ZM176.5 14.5c1.333.667 1.333.667 0 0ZM179.5 16.5c1.333.667 1.333.667 0 0Z" style="opacity:.004"/><path fill="#aec695" d="M5.5 5.5h4l-3 2c-.167 17.003 0 34.003.5 51a70.543 70.543 0 0 1 1.5 9c-1.387-2.377-2.22-5.043-2.5-8-.5-17.997-.667-35.997-.5-54Z" style="opacity:.18"/><path d="M186.5 23.5c-.667-1.333-.667-1.333 0 0ZM186.5 23.5c.667 0 1 .333 1 1l-1-1ZM187.5 24.5c1.333.667 1.333.667 0 0Z" style="opacity:.004"/><path fill="#88bf57" d="M185.5 25.5c5.385 5.106 8.385 11.44 9 19h-1v-2a106.129 106.129 0 0 0-3-7.5c-2.869-2.573-4.536-5.74-5-9.5Z" style="opacity:1"/><path d="M190.5 29.5c1.333.667 1.333.667 0 0Z" style="opacity:.004"/><path fill="#8ba86b" d="M137.5 34.5c-1.262 4.681-1.262 9.348 0 14-.617-.11-1.117-.444-1.5-1l-.5-5.5c-.2-2.865.467-5.365 2-7.5Z" style="opacity:.361"/><path fill="#95b774" d="M127.5 36.5c.951 1.419 1.284 3.085 1 5-3.36.116-6.693.45-10 1v-3a31.12 31.12 0 0 1 2 2 15.42 15.42 0 0 1 7-1v-4Z" style="opacity:.392"/><path fill="#819e63" d="M82.5 42.5c-2.014 1.424-4.348 2.09-7 2 2.014-1.424 4.348-2.09 7-2Z" style="opacity:.514"/><path fill="#3b6c10" d="M193.5 44.5h1c1.312 17.794 1.312 35.46 0 53v-1a690.268 690.268 0 0 1-1-52Z" style="opacity:.788"/><path fill="#778369" d="M136.5 61.5c.06-.543.393-.876 1-1a18.403 18.403 0 0 1 2 7 23.326 23.326 0 0 1-3-6Z" style="opacity:.078"/><path fill="#8fc459" d="m102.5 56.5 8 3c4 4 4 8 0 12-3.612 1.011-7.279 1.178-11 .5-1.442-.377-2.442-1.21-3-2.5 3.477 1.758 7.143 2.258 11 1.5-.837-1.011-1.17-2.178-1-3.5 1.644-.213 3.144.12 4.5 1 .667-2 .667-4 0-6a93.71 93.71 0 0 1-8.5-6Z" style="opacity:1"/><path fill="#89bf53" d="M94.5 66.5c-.951-1.419-1.284-3.085-1-5-3.018.204-6.018.537-9 1 .228 6.03 2.56 11.03 7 15a69.753 69.753 0 0 1-8.5-6c-.414-2.53-.247-5.197.5-8l-3-2.5c4.568.022 9.234-.145 14-.5v6Z" style="opacity:1"/><path fill="#7fa856" d="M129.5 62.5c-.19 3.532.477 6.865 2 10-.996.086-1.829-.248-2.5-1-.805-3.197-.638-6.197.5-9Z" style="opacity:1"/><path d="M8.5 72.5c1.333.667 1.333.667 0 0ZM12.5 78.5c-.667-1.333-.667-1.333 0 0ZM12.5 78.5c.667 0 1 .333 1 1l-1-1ZM13.5 79.5h1c-.185.67-.519.67-1 0Z" style="opacity:.004"/><path fill="#8db06c" d="M46.5 79.5a75.84 75.84 0 0 0 15 1c-4.146 1.147-8.48 1.314-13 .5-.916-.278-1.583-.778-2-1.5Z" style="opacity:.482"/><path fill="#9bbd78" d="M116.5 77.5c-1.348 1.98-3.348 3.147-6 3.5l-6.5.5c-2.61-.033-4.777-.7-6.5-2 6.579 1.642 12.912.975 19-2Z" style="opacity:.314"/><path fill="#afcf8c" d="M158.5 78.5c-.847 1.466-2.18 2.3-4 2.5-3.858.81-7.524.643-11-.5 5.159.318 10.159-.348 15-2Z" style="opacity:.345"/><path d="M15.5 82.5c-.667-1.333-.667-1.333 0 0ZM15.5 82.5c.667 0 1 .333 1 1l-1-1ZM16.5 83.5c.667 0 1 .333 1 1l-1-1ZM17.5 84.5c1.333.667 1.333.667 0 0ZM21.5 87.5c1.333.667 1.333.667 0 0ZM27.5 90.5v1c-.67-.481-.67-.815 0-1ZM27.5 91.5c1.333.667 1.333.667 0 0Z" style="opacity:.004"/><path fill="#76cb1b" d="M193.5 42.5v2a690.268 690.268 0 0 0 1 52h-144a5041.776 5041.776 0 0 1 142-1 702.727 702.727 0 0 1 1-53Z" style="opacity:1"/><path fill="#98b973" d="M45.5 96.5h149v1c-22.888.657-46.222.99-70 1l-68-.5c-3.856-.177-7.523-.677-11-1.5Z" style="opacity:.596"/></svg>