<?xml version="1.0" encoding="UTF-8"?>
<!DOCTYPE svg PUBLIC "-//W3C//DTD SVG 1.1//EN" "http://www.w3.org/Graphics/SVG/1.1/DTD/svg11.dtd">
<svg xmlns="http://www.w3.org/2000/svg" version="1.1" width="567px" height="297px" style="shape-rendering:geometricPrecision; text-rendering:geometricPrecision; image-rendering:optimizeQuality; fill-rule:evenodd; clip-rule:evenodd" xmlns:xlink="http://www.w3.org/1999/xlink">
<g><path style="opacity:0.007" fill="#0c0c0c" d="M 419.5,18.5 C 422.187,18.3359 424.854,18.5026 427.5,19C 426.584,19.2784 425.918,19.7784 425.5,20.5C 423.374,19.9518 421.374,19.2852 419.5,18.5 Z"/></g>
<g><path style="opacity:0.471" fill="#445e2b" d="M 23.5,18.5 C 24.8333,18.5 26.1667,18.5 27.5,18.5C 27.5,19.1667 27.5,19.8333 27.5,20.5C 26.1667,20.5 24.8333,20.5 23.5,20.5C 23.5,20.1667 23.5,19.8333 23.5,19.5C 23.5,19.1667 23.5,18.8333 23.5,18.5 Z"/></g>
<g><path style="opacity:0.426" fill="#e1fbce" d="M 27.5,18.5 C 152.833,18.5 278.167,18.5 403.5,18.5C 403.5,19.1667 403.5,19.8333 403.5,20.5C 278.167,20.5 152.833,20.5 27.5,20.5C 27.5,19.8333 27.5,19.1667 27.5,18.5 Z"/></g>
<g><path style="opacity:0.443" fill="#425d2c" d="M 403.5,18.5 C 404.833,18.5 406.167,18.5 407.5,18.5C 407.5,19.1667 407.5,19.8333 407.5,20.5C 406.167,20.5 404.833,20.5 403.5,20.5C 403.5,19.8333 403.5,19.1667 403.5,18.5 Z"/></g>
<g><path style="opacity:0.996" fill="#73c123" d="M 418.5,21.5 C 427.109,22.3801 435.776,23.3801 444.5,24.5C 444.586,25.4959 444.252,26.3292 443.5,27C 441.5,27.1667 439.5,27.3333 437.5,27.5C 429.34,25.8997 421.007,24.8997 412.5,24.5C 346.54,24.8532 280.54,24.8532 214.5,24.5C 151.79,24.5018 89.2904,25.1685 27,26.5C 26.4257,24.508 25.259,23.008 23.5,22C 155.166,21.5 286.833,21.3333 418.5,21.5 Z"/></g>
<g><path style="opacity:0.278" fill="#cadabf" d="M 407.5,18.5 C 411.5,18.5 415.5,18.5 419.5,18.5C 421.374,19.2852 423.374,19.9518 425.5,20.5C 434.648,20.1079 442.315,20.7746 448.5,22.5C 448.5,23.8333 449.167,24.5 450.5,24.5C 452.339,25.7525 454.172,25.7525 456,24.5C 457.518,25.1634 458.685,26.1634 459.5,27.5C 454.32,27.2487 449.32,26.2487 444.5,24.5C 435.776,23.3801 427.109,22.3801 418.5,21.5C 415.038,20.5184 411.371,20.185 407.5,20.5C 407.5,19.8333 407.5,19.1667 407.5,18.5 Z"/></g>
<g><path style="opacity:0.037" fill="#2d2d2d" d="M 448.5,22.5 C 449.833,22.5 450.5,23.1667 450.5,24.5C 450.5,23.1667 449.833,22.5 448.5,22.5 Z"/></g>
<g><path style="opacity:1" fill="#78c430" d="M 21.5,20.5 C 22.1667,20.5 22.8333,20.5 23.5,20.5C 24.8333,20.5 26.1667,20.5 27.5,20.5C 152.833,20.5 278.167,20.5 403.5,20.5C 404.833,20.5 406.167,20.5 407.5,20.5C 411.371,20.185 415.038,20.5184 418.5,21.5C 286.833,21.3333 155.166,21.5 23.5,22C 25.259,23.008 26.4257,24.508 27,26.5C 89.2904,25.1685 151.79,24.5018 214.5,24.5C 280.54,24.8532 346.54,24.8532 412.5,24.5C 421.007,24.8997 429.34,25.8997 437.5,27.5C 439.5,27.3333 441.5,27.1667 443.5,27C 444.252,26.3292 444.586,25.4959 444.5,24.5C 449.32,26.2487 454.32,27.2487 459.5,27.5C 463.649,29.7389 467.982,31.7389 472.5,33.5C 473.5,33.5 474.5,33.5 475.5,33.5C 475.833,33.5 476.167,33.5 476.5,33.5C 476.511,35.0174 477.177,36.1841 478.5,37C 487.313,41.5733 495.98,46.4066 504.5,51.5C 506.637,54.973 509.637,57.3064 513.5,58.5C 513.5,59.8333 514.167,60.5 515.5,60.5C 515.5,61.8333 516.167,62.5 517.5,62.5C 517.833,62.5 518.167,62.5 518.5,62.5C 519.08,64.7488 520.413,66.4154 522.5,67.5C 523.833,67.5 524.5,68.1667 524.5,69.5C 526.111,73.0515 528.444,76.0515 531.5,78.5C 534.967,84.3804 537.967,90.5471 540.5,97C 540.836,98.0299 541.503,98.5299 542.5,98.5C 542.842,99.3382 543.508,99.6716 544.5,99.5C 544.5,100.5 544.5,101.5 544.5,102.5C 545.89,108.271 547.556,113.938 549.5,119.5C 549.802,122.373 550.469,125.039 551.5,127.5C 551.5,175.833 551.5,224.167 551.5,272.5C 550.667,226.668 550.167,180.668 550,134.5C 549.5,180.165 549.333,225.832 549.5,271.5C 414.35,272.158 279.35,272.825 144.5,273.5C 139.897,272.617 135.23,272.283 130.5,272.5C 130.082,271.778 129.416,271.278 128.5,271C 125.183,270.502 121.85,270.335 118.5,270.5C 114.363,268.639 110.029,267.306 105.5,266.5C 104.833,266.5 104.5,266.167 104.5,265.5C 96.1376,261.821 87.8042,257.821 79.5,253.5C 78.609,252.89 77.609,252.557 76.5,252.5C 74.7697,251.974 73.4363,250.974 72.5,249.5C 71.1979,247.178 69.1979,245.845 66.5,245.5C 66.5,244.167 65.8333,243.5 64.5,243.5C 64.0269,242.094 63.0269,241.427 61.5,241.5C 60.135,239.14 58.135,237.473 55.5,236.5C 52.5711,232.394 49.4044,228.394 46,224.5C 45.0228,223.226 44.1894,223.226 43.5,224.5C 42.596,223.791 42.2627,222.791 42.5,221.5C 40.5179,218.19 38.1846,215.19 35.5,212.5C 34.6457,208.678 32.979,205.344 30.5,202.5C 30.1583,201.662 29.4916,201.328 28.5,201.5C 28.5,201.167 28.5,200.833 28.5,200.5C 28.5,199.5 28.5,198.5 28.5,197.5C 26.2537,191.966 24.2537,186.3 22.5,180.5C 22.4431,179.391 22.1098,178.391 21.5,177.5C 21.5,177.167 21.5,176.833 21.5,176.5C 22.8303,124.598 22.8303,72.5977 21.5,20.5 Z M 183.5,72.5 C 182.391,73.29 181.058,73.79 179.5,74C 183.486,74.4988 187.486,74.6655 191.5,74.5C 194.106,75.8688 197.44,76.8688 201.5,77.5C 204.057,78.5879 206.724,79.5879 209.5,80.5C 211.552,83.0319 214.218,84.6986 217.5,85.5C 217.5,86.8333 218.167,87.5 219.5,87.5C 223.23,92.2166 226.896,96.8833 230.5,101.5C 230.66,103.153 231.326,104.486 232.5,105.5C 234.226,110.237 235.559,115.071 236.5,120C 232.529,120.06 229.529,120.893 227.5,122.5C 225.801,122.34 224.134,122.506 222.5,123C 223.056,123.383 223.389,123.883 223.5,124.5C 219.009,125.214 214.675,126.047 210.5,127C 209.908,122.362 207.908,118.529 204.5,115.5C 203.37,113.685 202.704,111.685 202.5,109.5C 200.336,109.279 198.67,108.279 197.5,106.5C 195.858,105.197 194.191,103.864 192.5,102.5C 189.975,101.36 187.308,100.693 184.5,100.5C 182.365,98.631 179.698,97.9644 176.5,98.5C 169.997,98.1056 163.664,98.7723 157.5,100.5C 155.517,100.157 154.183,100.824 153.5,102.5C 153.167,102.5 152.833,102.5 152.5,102.5C 150.821,102.285 149.821,102.952 149.5,104.5C 148.833,104.5 148.5,104.833 148.5,105.5C 143.541,107.674 139.541,110.341 136.5,113.5C 135.128,115.527 133.795,117.527 132.5,119.5C 131.596,120.209 131.263,121.209 131.5,122.5C 131.167,122.5 130.833,122.5 130.5,122.5C 129.167,122.5 128.5,123.167 128.5,124.5C 128.5,125.167 128.5,125.833 128.5,126.5C 126.797,125.34 126.131,126.007 126.5,128.5C 126.5,129.5 126.5,130.5 126.5,131.5C 124.952,131.821 124.285,132.821 124.5,134.5C 124.5,135.167 124.5,135.833 124.5,136.5C 122.744,137.552 122.077,139.219 122.5,141.5C 122.567,142.959 122.234,144.292 121.5,145.5C 121.5,145.833 121.5,146.167 121.5,146.5C 120.883,146.611 120.383,146.944 120,147.5C 119.333,155.167 119.333,162.833 120,170.5C 120.383,171.056 120.883,171.389 121.5,171.5C 122.21,173.746 122.71,176.08 123,178.5C 123.737,180.596 124.903,182.263 126.5,183.5C 126.354,186.554 127.687,188.554 130.5,189.5C 130.738,191.404 131.738,192.738 133.5,193.5C 134.167,194.167 134.833,194.833 135.5,195.5C 139.387,198.367 143.72,200.367 148.5,201.5C 149.552,203.256 151.219,203.923 153.5,203.5C 158.5,203.5 163.5,203.5 168.5,203.5C 170.781,203.923 172.448,203.256 173.5,201.5C 181.241,199.672 187.575,195.672 192.5,189.5C 196.543,184.944 200.043,179.944 203,174.5C 204.098,175.967 205.598,176.801 207.5,177C 207.167,177.333 206.833,177.667 206.5,178C 208.473,178.495 210.473,178.662 212.5,178.5C 215.125,179.813 217.625,181.48 220,183.5C 220.333,183.167 220.667,182.833 221,182.5C 222.314,183.313 223.481,184.313 224.5,185.5C 226.214,184.391 226.881,185.058 226.5,187.5C 222.516,192.846 218.849,198.513 215.5,204.5C 212.39,207.357 209.39,210.357 206.5,213.5C 204.973,213.427 203.973,214.094 203.5,215.5C 199.825,217.534 196.492,219.868 193.5,222.5C 192.833,222.5 192.167,222.5 191.5,222.5C 189.821,222.285 188.821,222.952 188.5,224.5C 186.955,225.58 185.455,225.58 184,224.5C 182.97,224.836 182.47,225.503 182.5,226.5C 176.251,228.089 169.918,229.089 163.5,229.5C 159.833,229.5 156.167,229.5 152.5,229.5C 149.721,229.721 147.054,229.388 144.5,228.5C 142.735,227.539 140.735,227.205 138.5,227.5C 137.791,226.596 136.791,226.263 135.5,226.5C 134.947,224.448 133.947,224.115 132.5,225.5C 131.609,224.89 130.609,224.557 129.5,224.5C 129.611,223.883 129.944,223.383 130.5,223C 128.527,222.505 126.527,222.338 124.5,222.5C 124.611,221.883 124.944,221.383 125.5,221C 121.687,219.929 118.354,218.096 115.5,215.5C 114.71,214.599 113.71,213.932 112.5,213.5C 110.045,210.214 107.378,207.214 104.5,204.5C 103.217,202.394 102.384,200.06 102,197.5C 101.31,198.738 100.81,198.738 100.5,197.5C 100.843,195.517 100.176,194.183 98.5,193.5C 97.6371,192.06 97.6371,190.726 98.5,189.5C 98.0431,188.702 97.3764,188.369 96.5,188.5C 95.5911,184.485 94.5911,180.485 93.5,176.5C 93.6655,172.486 93.4988,168.486 93,164.5C 92.6174,165.056 92.1174,165.389 91.5,165.5C 91.5,161.5 91.5,157.5 91.5,153.5C 93.1241,147.067 94.4574,140.4 95.5,133.5C 95.427,131.973 96.0937,130.973 97.5,130.5C 98.4345,129.432 98.7678,128.099 98.5,126.5C 98.5,125.5 98.5,124.5 98.5,123.5C 99.1174,123.611 99.6174,123.944 100,124.5C 100.494,122.866 100.66,121.199 100.5,119.5C 100.5,119.167 100.5,118.833 100.5,118.5C 107.05,106.764 115.716,96.5972 126.5,88C 133.52,83.7207 140.52,79.8874 147.5,76.5C 152.025,75.0373 158.025,74.204 165.5,74C 165.167,73.6667 164.833,73.3333 164.5,73C 170.825,72.5005 177.158,72.3338 183.5,72.5 Z M 305.5,72.5 C 311.026,72.1786 316.36,72.5119 321.5,73.5C 321.897,74.6318 323.897,74.9651 327.5,74.5C 336.412,76.244 344.412,80.0774 351.5,86C 351.167,86.3333 350.833,86.6667 350.5,87C 352.249,87.7848 353.916,88.6182 355.5,89.5C 355.285,91.1788 355.952,92.1788 357.5,92.5C 357.157,94.4832 357.824,95.8166 359.5,96.5C 359.5,96.8333 359.5,97.1667 359.5,97.5C 359.34,99.1992 359.506,100.866 360,102.5C 360.383,101.944 360.883,101.611 361.5,101.5C 361.5,102.5 361.5,103.5 361.5,104.5C 361.054,107.01 361.72,109.01 363.5,110.5C 364.935,111.985 364.768,113.318 363,114.5C 362.667,114.167 362.333,113.833 362,113.5C 360.829,114.893 359.329,115.727 357.5,116C 353.975,116.179 350.641,116.679 347.5,117.5C 346.167,117.833 344.833,118.167 343.5,118.5C 341.5,118.5 339.5,118.5 337.5,118.5C 338.833,117.5 338.833,116.5 337.5,115.5C 336.58,111.072 335.247,106.739 333.5,102.5C 332.883,102.611 332.383,102.944 332,103.5C 329.695,100.185 326.528,98.5183 322.5,98.5C 319.572,97.1803 316.239,96.5136 312.5,96.5C 309.167,96.8333 305.833,97.1667 302.5,97.5C 299.522,98.48 297.189,100.147 295.5,102.5C 292.482,103.353 290.649,105.353 290,108.5C 289.667,108.167 289.333,107.833 289,107.5C 288.654,110.794 287.821,113.961 286.5,117C 287.505,118.109 288.172,119.609 288.5,121.5C 289.652,126.654 292.652,130.321 297.5,132.5C 298.183,134.176 299.517,134.843 301.5,134.5C 302.552,136.256 304.219,136.923 306.5,136.5C 307.183,138.176 308.517,138.843 310.5,138.5C 310.5,139.167 310.833,139.5 311.5,139.5C 313.028,140.309 314.694,140.976 316.5,141.5C 316.389,142.117 316.056,142.617 315.5,143C 317.61,142.653 319.61,142.82 321.5,143.5C 321.5,144.833 322.167,145.5 323.5,145.5C 324.167,145.5 324.833,145.5 325.5,145.5C 325.5,146.833 326.167,147.5 327.5,147.5C 330.756,149.25 333.589,151.583 336,154.5C 336.383,153.944 336.883,153.611 337.5,153.5C 340.033,157.922 343.033,161.922 346.5,165.5C 346.337,167.857 346.503,170.19 347,172.5C 347.383,171.944 347.883,171.611 348.5,171.5C 348.666,179.507 348.5,187.507 348,195.5C 347.667,195.167 347.333,194.833 347,194.5C 346.203,198.224 345.203,201.89 344,205.5C 339.66,210.787 335.16,215.787 330.5,220.5C 328.446,220.365 326.779,221.032 325.5,222.5C 323.821,222.285 322.821,222.952 322.5,224.5C 321.833,224.5 321.167,224.5 320.5,224.5C 319.603,225.598 318.77,225.598 318,224.5C 317.536,225.094 317.369,225.761 317.5,226.5C 316.391,226.557 315.391,226.89 314.5,227.5C 312.143,227.337 309.81,227.503 307.5,228C 306.944,228.383 306.611,228.883 306.5,229.5C 299.167,229.5 291.833,229.5 284.5,229.5C 282.365,227.631 279.698,226.964 276.5,227.5C 275.609,226.89 274.609,226.557 273.5,226.5C 273.611,225.883 273.944,225.383 274.5,225C 273.041,225.355 271.707,225.189 270.5,224.5C 259.247,220.793 250.747,213.126 245,201.5C 243.554,197.207 242.387,193.541 241.5,190.5C 240.539,188.735 240.205,186.735 240.5,184.5C 240.5,182.833 240.5,181.167 240.5,179.5C 240.5,178.5 240.5,177.5 240.5,176.5C 242.167,176.5 243.833,176.5 245.5,176.5C 250.747,176.808 255.08,176.141 258.5,174.5C 261.059,174.802 263.393,174.468 265.5,173.5C 266.357,177.742 266.857,182.742 267,188.5C 267.333,188.167 267.667,187.833 268,187.5C 269.538,193.527 273.038,197.86 278.5,200.5C 278.804,201.15 279.137,201.817 279.5,202.5C 282.418,203.87 285.418,204.87 288.5,205.5C 295.2,205.83 301.866,205.497 308.5,204.5C 310.012,203.138 311.512,202.804 313,203.5C 314.696,200.655 316.53,197.988 318.5,195.5C 319.5,195.167 320.167,194.5 320.5,193.5C 322.23,190.408 322.73,186.408 322,181.5C 321.667,182.167 321.333,182.833 321,183.5C 320.808,181.423 320.308,179.423 319.5,177.5C 317.491,174.826 315.491,172.16 313.5,169.5C 310.692,169.307 308.025,168.64 305.5,167.5C 304.833,167.167 304.167,166.833 303.5,166.5C 303.027,165.094 302.027,164.427 300.5,164.5C 300.167,164.5 299.833,164.5 299.5,164.5C 299.179,162.952 298.179,162.285 296.5,162.5C 295.5,162.5 294.5,162.5 293.5,162.5C 289.661,159.752 285.328,157.752 280.5,156.5C 280.649,155.448 280.483,154.448 280,153.5C 278.855,154.684 277.688,154.684 276.5,153.5C 273.239,150.401 270.072,147.068 267,143.5C 265.538,141.012 264.538,138.345 264,135.5C 263.617,136.056 263.117,136.389 262.5,136.5C 262.5,135.167 262.5,133.833 262.5,132.5C 262.657,131.127 262.49,129.793 262,128.5C 261.617,129.056 261.117,129.389 260.5,129.5C 260.5,126.167 260.5,122.833 260.5,119.5C 260.5,118.833 260.5,118.167 260.5,117.5C 261.712,113.448 262.379,108.781 262.5,103.5C 264.176,102.817 264.843,101.483 264.5,99.5C 264.5,99.1667 264.5,98.8333 264.5,98.5C 266.176,97.8166 266.843,96.4832 266.5,94.5C 267.552,94.6495 268.552,94.4828 269.5,94C 268.434,92.841 268.767,92.0076 270.5,91.5C 276.154,85.4108 282.487,80.4108 289.5,76.5C 292.664,76.4422 295.664,75.7755 298.5,74.5C 301.518,74.6646 304.518,74.498 307.5,74C 306.584,73.7216 305.918,73.2216 305.5,72.5 Z M 432.5,72.5 C 435.833,72.5 439.167,72.5 442.5,72.5C 441.737,73.2679 440.737,73.7679 439.5,74C 441.833,74.6667 444.167,74.6667 446.5,74C 445.263,73.7679 444.263,73.2679 443.5,72.5C 445.167,72.5 446.833,72.5 448.5,72.5C 448.821,74.0481 449.821,74.7148 451.5,74.5C 453.833,74.5 456.167,74.5 458.5,74.5C 458.389,75.1174 458.056,75.6174 457.5,76C 462.482,76.6652 467.149,78.1652 471.5,80.5C 474.513,83.8463 477.847,86.8463 481.5,89.5C 483.53,93.5603 485.53,97.5603 487.5,101.5C 488.404,102.209 488.737,103.209 488.5,104.5C 488.248,107.244 488.915,109.744 490.5,112C 489.978,112.95 489.311,113.784 488.5,114.5C 482.13,115.979 475.796,117.312 469.5,118.5C 468.167,118.5 466.833,118.5 465.5,118.5C 464.833,118.5 464.5,118.167 464.5,117.5C 464.663,115.143 464.497,112.81 464,110.5C 463.617,111.056 463.117,111.389 462.5,111.5C 462.5,110.833 462.5,110.167 462.5,109.5C 462.226,107.019 460.893,105.353 458.5,104.5C 456.543,100.973 453.543,98.9729 449.5,98.5C 449.167,98.5 448.833,98.5 448.5,98.5C 445.572,97.1803 442.239,96.5136 438.5,96.5C 430.489,95.8396 423.823,98.5063 418.5,104.5C 416.659,106.512 415.659,108.845 415.5,111.5C 412.9,115.39 412.9,119.39 415.5,123.5C 415.5,123.833 415.5,124.167 415.5,124.5C 416.833,127.833 419.167,130.167 422.5,131.5C 422.5,132.167 422.833,132.5 423.5,132.5C 423.5,133.833 424.167,134.5 425.5,134.5C 426.5,134.5 427.5,134.5 428.5,134.5C 430.777,137.133 433.777,138.466 437.5,138.5C 438.605,140.223 440.272,141.223 442.5,141.5C 445.054,141.728 447.387,143.062 449.5,145.5C 453.834,147.394 457.834,149.728 461.5,152.5C 466.639,156.763 470.305,162.097 472.5,168.5C 472.229,170.38 472.896,171.713 474.5,172.5C 475.254,177.463 475.587,182.463 475.5,187.5C 475.5,187.833 475.5,188.167 475.5,188.5C 475.167,190.5 474.833,192.5 474.5,194.5C 473.503,194.47 472.836,194.97 472.5,196C 473.58,197.455 473.58,198.955 472.5,200.5C 470.952,200.821 470.285,201.821 470.5,203.5C 468.432,207.602 465.765,211.269 462.5,214.5C 461.211,215.637 460.211,216.97 459.5,218.5C 455.472,220.509 451.472,222.509 447.5,224.5C 446.153,225.171 444.986,225.171 444,224.5C 443.536,225.094 443.369,225.761 443.5,226.5C 432.311,229.566 420.978,230.233 409.5,228.5C 406.61,227.755 403.61,227.088 400.5,226.5C 400.179,224.952 399.179,224.285 397.5,224.5C 396.209,223.222 394.209,222.555 391.5,222.5C 387.896,220.564 384.563,218.231 381.5,215.5C 381.027,214.094 380.027,213.427 378.5,213.5C 376.469,209.795 374.469,206.128 372.5,202.5C 371.833,202.5 371.5,202.167 371.5,201.5C 371.715,199.821 371.048,198.821 369.5,198.5C 366.897,191.487 365.897,184.154 366.5,176.5C 368.167,176.5 369.833,176.5 371.5,176.5C 374.518,176.665 377.518,176.498 380.5,176C 379.944,175.617 379.611,175.117 379.5,174.5C 382.167,174.5 384.833,174.5 387.5,174.5C 389.292,174.634 390.958,174.301 392.5,173.5C 392.5,176.5 392.5,179.5 392.5,182.5C 392.5,182.833 392.5,183.167 392.5,183.5C 392.796,185.403 393.463,187.07 394.5,188.5C 394.799,190.455 395.799,191.789 397.5,192.5C 398.04,196.708 400.373,199.375 404.5,200.5C 405.167,201.833 406.167,202.833 407.5,203.5C 408.5,203.5 409.5,203.5 410.5,203.5C 410.821,205.048 411.821,205.715 413.5,205.5C 420.841,205.666 428.174,205.5 435.5,205C 435.167,204.667 434.833,204.333 434.5,204C 436.32,203.8 437.653,202.966 438.5,201.5C 440.48,200.516 442.147,199.183 443.5,197.5C 445.294,195.572 446.294,193.238 446.5,190.5C 447.355,189.469 448.022,188.303 448.5,187C 447.144,185.433 446.477,183.6 446.5,181.5C 446.843,179.517 446.176,178.183 444.5,177.5C 444.5,176.167 444.5,174.833 444.5,173.5C 443.105,174.815 442.105,174.481 441.5,172.5C 430.767,165.401 419.1,160.068 406.5,156.5C 406.649,155.448 406.483,154.448 406,153.5C 405.014,154.171 403.847,154.171 402.5,153.5C 402.119,152.069 401.119,151.236 399.5,151C 399.833,150.667 400.167,150.333 400.5,150C 399.552,149.517 398.552,149.351 397.5,149.5C 395.642,146.553 393.975,143.553 392.5,140.5C 392.167,140.5 391.833,140.5 391.5,140.5C 391.727,138.067 390.727,136.401 388.5,135.5C 388.5,135.167 388.5,134.833 388.5,134.5C 387.357,130.256 386.69,125.923 386.5,121.5C 386.5,118.5 386.5,115.5 386.5,112.5C 386.5,112.167 386.5,111.833 386.5,111.5C 387.833,108.5 389.167,105.5 390.5,102.5C 391.925,99.3129 393.591,96.3129 395.5,93.5C 396.759,91.3956 398.259,89.3956 400,87.5C 402.653,86.4212 405.153,84.4212 407.5,81.5C 411.08,79.5415 414.747,77.8748 418.5,76.5C 420.483,76.8432 421.817,76.1765 422.5,74.5C 423.5,74.5 424.5,74.5 425.5,74.5C 429.182,74.6653 432.848,74.4986 436.5,74C 434.942,73.79 433.609,73.29 432.5,72.5 Z"/></g>
<g><path style="opacity:0.044" fill="#fdfdfc" d="M 23.5,18.5 C 23.5,18.8333 23.5,19.1667 23.5,19.5C 21.8333,19.5 20.1667,19.5 18.5,19.5C 18.8322,67.6696 18.4988,115.67 17.5,163.5C 17.5,115.167 17.5,66.8333 17.5,18.5C 19.5,18.5 21.5,18.5 23.5,18.5 Z"/></g>
<g><path style="opacity:0.004" fill="#000000" d="M 473.5,28.5 C 474.833,29.1667 474.833,29.1667 473.5,28.5 Z"/></g>
<g><path style="opacity:1" fill="#6dc119" d="M 21.5,20.5 C 22.8303,72.5977 22.8303,124.598 21.5,176.5C 21.0733,173.99 20.4067,171.657 19.5,169.5C 19.5,167.833 19.5,166.167 19.5,164.5C 18.8381,116.155 19.5048,68.1551 21.5,20.5 Z"/></g>
<g><path style="opacity:0.112" fill="#c1ceb8" d="M 459.5,27.5 C 463.546,28.0129 467.546,28.8462 471.5,30C 470.288,31.1068 470.621,31.6068 472.5,31.5C 472.5,32.1667 472.5,32.8333 472.5,33.5C 467.982,31.7389 463.649,29.7389 459.5,27.5 Z"/></g>
<g><path style="opacity:0.004" fill="#000000" d="M 477.5,31.5 C 477.897,30.475 478.563,30.3083 479.5,31C 478.906,31.4643 478.239,31.631 477.5,31.5 Z"/></g>
<g><path style="opacity:0.192" fill="#404937" d="M 472.5,31.5 C 474.179,31.2852 475.179,31.9519 475.5,33.5C 474.5,33.5 473.5,33.5 472.5,33.5C 472.5,32.8333 472.5,32.1667 472.5,31.5 Z"/></g>
<g><path style="opacity:0.004" fill="#000000" d="M 482.5,32.5 C 483.525,32.8966 483.692,33.5632 483,34.5C 482.536,33.9056 482.369,33.2389 482.5,32.5 Z"/></g>
<g><path style="opacity:0.463" fill="#98ad7f" d="M 476.5,33.5 C 487.22,37.5925 496.553,43.5925 504.5,51.5C 495.98,46.4066 487.313,41.5733 478.5,37C 477.177,36.1841 476.511,35.0174 476.5,33.5 Z"/></g>
<g><path style="opacity:0.004" fill="#000000" d="M 486.5,35.5 C 487.833,36.1667 487.833,36.1667 486.5,35.5 Z"/></g>
<g><path style="opacity:0.004" fill="#000000" d="M 491.5,37.5 C 492.833,38.1667 492.833,38.1667 491.5,37.5 Z"/></g>
<g><path style="opacity:0.004" fill="#000000" d="M 497.5,42.5 C 497.897,41.475 498.563,41.3083 499.5,42C 498.906,42.4643 498.239,42.631 497.5,42.5 Z"/></g>
<g><path style="opacity:0.004" fill="#000000" d="M 504.5,46.5 C 505.833,47.1667 505.833,47.1667 504.5,46.5 Z"/></g>
<g><path style="opacity:0.006" fill="#000000" d="M 506.5,49.5 C 506.897,48.475 507.563,48.3083 508.5,49C 507.906,49.4643 507.239,49.631 506.5,49.5 Z"/></g>
<g><path style="opacity:0.224" fill="#bbd7a6" d="M 504.5,51.5 C 508.721,52.4001 511.721,54.7334 513.5,58.5C 509.637,57.3064 506.637,54.973 504.5,51.5 Z"/></g>
<g><path style="opacity:0.004" fill="#000000" d="M 515.5,54.5 C 516.525,54.8966 516.692,55.5632 516,56.5C 515.536,55.9056 515.369,55.2389 515.5,54.5 Z"/></g>
<g><path style="opacity:0.004" fill="#000000" d="M 517.5,57.5 C 518.833,58.1667 518.833,58.1667 517.5,57.5 Z"/></g>
<g><path style="opacity:0.118" fill="#89a17c" d="M 513.5,58.5 C 514.833,58.5 515.5,59.1667 515.5,60.5C 515.5,59.1667 514.833,58.5 513.5,58.5 Z"/></g>
<g><path style="opacity:0.004" fill="#000000" d="M 519.5,60.5 C 519.897,59.475 520.563,59.3083 521.5,60C 520.906,60.4643 520.239,60.631 519.5,60.5 Z"/></g>
<g><path style="opacity:0.192" fill="#839f73" d="M 515.5,60.5 C 516.833,60.5 517.5,61.1667 517.5,62.5C 517.5,61.1667 516.833,60.5 515.5,60.5 Z"/></g>
<g><path style="opacity:0.004" fill="#000000" d="M 522.5,61.5 C 523.833,62.1667 523.833,62.1667 522.5,61.5 Z"/></g>
<g><path style="opacity:0.004" fill="#000000" d="M 524.5,63.5 C 525.833,64.1667 525.833,64.1667 524.5,63.5 Z"/></g>
<g><path style="opacity:0.094" fill="#a0b49e" d="M 518.5,62.5 C 520.587,63.5846 521.92,65.2512 522.5,67.5C 520.413,66.4154 519.08,64.7488 518.5,62.5 Z"/></g>
<g><path style="opacity:0.004" fill="#000000" d="M 526.5,66.5 C 527.833,67.1667 527.833,67.1667 526.5,66.5 Z"/></g>
<g><path style="opacity:0.502" fill="#c5ee9c" d="M 324.5,72.5 C 323.391,72.5569 322.391,72.8902 321.5,73.5C 316.36,72.5119 311.026,72.1786 305.5,72.5C 304.5,72.5 303.5,72.5 302.5,72.5C 305.768,71.1778 309.435,70.5112 313.5,70.5C 317.565,70.5112 321.232,71.1778 324.5,72.5 Z"/></g>
<g><path style="opacity:0.082" fill="#92a98a" d="M 191.5,73.5 C 189.833,73.5 188.167,73.5 186.5,73.5C 186.167,72.1667 185.833,72.1667 185.5,73.5C 184.833,73.1667 184.167,72.8333 183.5,72.5C 177.158,72.3338 170.825,72.5005 164.5,73C 164.833,73.3333 165.167,73.6667 165.5,74C 158.025,74.204 152.025,75.0373 147.5,76.5C 148.6,75.4415 149.934,74.6082 151.5,74C 163.684,71.552 176.018,70.8853 188.5,72C 189.737,72.2321 190.737,72.7321 191.5,73.5 Z"/></g>
<g><path style="opacity:0.007" fill="#000300" d="M 183.5,72.5 C 184.167,72.8333 184.833,73.1667 185.5,73.5C 185.833,73.5 186.167,73.5 186.5,73.5C 188.167,73.5 189.833,73.5 191.5,73.5C 191.5,73.8333 191.5,74.1667 191.5,74.5C 187.486,74.6655 183.486,74.4988 179.5,74C 181.058,73.79 182.391,73.29 183.5,72.5 Z"/></g>
<g><path style="opacity:0.004" fill="#000000" d="M 442.5,72.5 C 442.833,72.5 443.167,72.5 443.5,72.5C 444.263,73.2679 445.263,73.7679 446.5,74C 444.167,74.6667 441.833,74.6667 439.5,74C 440.737,73.7679 441.737,73.2679 442.5,72.5 Z"/></g>
<g><path style="opacity:0.004" fill="#000000" d="M 531.5,72.5 C 532.833,73.1667 532.833,73.1667 531.5,72.5 Z"/></g>
<g><path style="opacity:0.196" fill="#9fb490" d="M 191.5,74.5 C 191.5,74.1667 191.5,73.8333 191.5,73.5C 196.626,72.9284 200.959,74.2618 204.5,77.5C 203.5,77.5 202.5,77.5 201.5,77.5C 197.44,76.8688 194.106,75.8688 191.5,74.5 Z"/></g>
<g><path style="opacity:0.035" fill="#25311e" d="M 302.5,72.5 C 303.5,72.5 304.5,72.5 305.5,72.5C 305.918,73.2216 306.584,73.7216 307.5,74C 304.518,74.498 301.518,74.6646 298.5,74.5C 298.5,74.1667 298.5,73.8333 298.5,73.5C 299.708,72.7659 301.041,72.4326 302.5,72.5 Z"/></g>
<g><path style="opacity:0.017" fill="#1b2216" d="M 324.5,72.5 C 325.791,72.2627 326.791,72.596 327.5,73.5C 327.5,73.8333 327.5,74.1667 327.5,74.5C 323.897,74.9651 321.897,74.6318 321.5,73.5C 322.391,72.8902 323.391,72.5569 324.5,72.5 Z"/></g>
<g><path style="opacity:0.041" fill="#212a1c" d="M 432.5,72.5 C 433.609,73.29 434.942,73.79 436.5,74C 432.848,74.4986 429.182,74.6653 425.5,74.5C 427.279,72.6565 429.612,71.9898 432.5,72.5 Z"/></g>
<g><path style="opacity:0.014" fill="#23291c" d="M 448.5,72.5 C 449.5,72.5 450.5,72.5 451.5,72.5C 451.5,73.1667 451.5,73.8333 451.5,74.5C 449.821,74.7148 448.821,74.0481 448.5,72.5 Z"/></g>
<g><path style="opacity:0.592" fill="#c7eca3" d="M 451.5,72.5 C 454.187,72.3359 456.854,72.5026 459.5,73C 460.416,73.2784 461.082,73.7784 461.5,74.5C 460.5,74.5 459.5,74.5 458.5,74.5C 456.167,74.5 453.833,74.5 451.5,74.5C 451.5,73.8333 451.5,73.1667 451.5,72.5 Z"/></g>
<g><path style="opacity:0.043" fill="#919c86" d="M 298.5,73.5 C 298.5,73.8333 298.5,74.1667 298.5,74.5C 295.664,75.7755 292.664,76.4422 289.5,76.5C 291.956,74.1324 294.956,73.1324 298.5,73.5 Z"/></g>
<g><path style="opacity:0.533" fill="#a6bb8e" d="M 327.5,74.5 C 327.5,74.1667 327.5,73.8333 327.5,73.5C 339.573,74.2788 348.906,79.6122 355.5,89.5C 353.916,88.6182 352.249,87.7848 350.5,87C 350.833,86.6667 351.167,86.3333 351.5,86C 344.412,80.0774 336.412,76.244 327.5,74.5 Z"/></g>
<g><path style="opacity:0.125" fill="#596552" d="M 422.5,74.5 C 421.817,76.1765 420.483,76.8432 418.5,76.5C 418.5,76.1667 418.5,75.8333 418.5,75.5C 419.568,74.5655 420.901,74.2322 422.5,74.5 Z"/></g>
<g><path style="opacity:0.443" fill="#c4d5b5" d="M 524.5,69.5 C 525.735,69.7214 526.735,70.3881 527.5,71.5C 528.88,73.8618 530.213,76.1952 531.5,78.5C 528.444,76.0515 526.111,73.0515 524.5,69.5 Z"/></g>
<g><path style="opacity:0.004" fill="#000000" d="M 533.5,74.5 C 534.525,74.8966 534.692,75.5632 534,76.5C 533.536,75.9056 533.369,75.2389 533.5,74.5 Z"/></g>
<g><path style="opacity:0.051" fill="#c7d6b7" d="M 418.5,75.5 C 418.5,75.8333 418.5,76.1667 418.5,76.5C 414.747,77.8748 411.08,79.5415 407.5,81.5C 405.153,84.4212 402.653,86.4212 400,87.5C 398.259,89.3956 396.759,91.3956 395.5,93.5C 394.833,93.5 394.167,93.5 393.5,93.5C 395.739,89.9161 398.406,86.5828 401.5,83.5C 405.322,80.7534 409.322,78.2534 413.5,76C 415.134,75.5065 416.801,75.3398 418.5,75.5 Z"/></g>
<g><path style="opacity:0.004" fill="#000000" d="M 535.5,77.5 C 536.833,78.1667 536.833,78.1667 535.5,77.5 Z"/></g>
<g><path style="opacity:0.208" fill="#76876d" d="M 201.5,77.5 C 202.5,77.5 203.5,77.5 204.5,77.5C 206.989,77.2407 208.656,78.2407 209.5,80.5C 206.724,79.5879 204.057,78.5879 201.5,77.5 Z"/></g>
<g><path style="opacity:0.29" fill="#8ba97d" d="M 458.5,74.5 C 459.5,74.5 460.5,74.5 461.5,74.5C 464.489,75.5669 467.489,76.9002 470.5,78.5C 470.863,79.1835 471.196,79.8501 471.5,80.5C 467.149,78.1652 462.482,76.6652 457.5,76C 458.056,75.6174 458.389,75.1174 458.5,74.5 Z"/></g>
<g><path style="opacity:0.314" fill="#c5d6b7" d="M 289.5,76.5 C 282.487,80.4108 276.154,85.4108 270.5,91.5C 268.767,92.0076 268.434,92.841 269.5,94C 268.552,94.4828 267.552,94.6495 266.5,94.5C 270.61,88.5549 275.61,83.3882 281.5,79C 284.096,77.8644 286.763,77.031 289.5,76.5 Z"/></g>
<g><path style="opacity:0.035" fill="#a2bb8f" d="M 531.5,78.5 C 532.735,78.7214 533.735,79.3881 534.5,80.5C 536.518,84.5354 538.518,88.5354 540.5,92.5C 540.427,94.0269 541.094,95.0269 542.5,95.5C 542.5,95.8333 542.5,96.1667 542.5,96.5C 542.5,97.1667 542.5,97.8333 542.5,98.5C 541.503,98.5299 540.836,98.0299 540.5,97C 537.967,90.5471 534.967,84.3804 531.5,78.5 Z"/></g>
<g><path style="opacity:0.004" fill="#000000" d="M 537.5,81.5 C 538.833,82.1667 538.833,82.1667 537.5,81.5 Z"/></g>
<g><path style="opacity:0.01" fill="#afbcaa" d="M 209.5,80.5 C 212.671,81.4362 215.338,83.1029 217.5,85.5C 214.218,84.6986 211.552,83.0319 209.5,80.5 Z"/></g>
<g><path style="opacity:0.286" fill="#adc49a" d="M 471.5,80.5 C 476.104,82.1053 479.438,85.1053 481.5,89.5C 477.847,86.8463 474.513,83.8463 471.5,80.5 Z"/></g>
<g><path style="opacity:0.027" fill="#a3b989" d="M 219.5,87.5 C 223.776,90.1073 227.443,93.4406 230.5,97.5C 231.167,98.5 231.833,99.5 232.5,100.5C 232.376,101.107 232.043,101.44 231.5,101.5C 231.167,101.5 230.833,101.5 230.5,101.5C 226.896,96.8833 223.23,92.2166 219.5,87.5 Z"/></g>
<g><path style="opacity:0.361" fill="#9eb98b" d="M 355.5,89.5 C 357.048,89.8212 357.715,90.8212 357.5,92.5C 355.952,92.1788 355.285,91.1788 355.5,89.5 Z"/></g>
<g><path style="opacity:0.004" fill="#000000" d="M 544.5,92.5 C 545.833,93.1667 545.833,93.1667 544.5,92.5 Z"/></g>
<g><path style="opacity:0.263" fill="#a1b390" d="M 481.5,89.5 C 486.115,92.0618 488.115,96.0618 487.5,101.5C 485.53,97.5603 483.53,93.5603 481.5,89.5 Z"/></g>
<g><path style="opacity:0.016" fill="#3a3c35" d="M 540.5,92.5 C 541.906,92.9731 542.573,93.9731 542.5,95.5C 541.094,95.0269 540.427,94.0269 540.5,92.5 Z"/></g>
<g><path style="opacity:0.067" fill="#607252" d="M 357.5,92.5 C 359.176,93.1834 359.843,94.5168 359.5,96.5C 357.824,95.8166 357.157,94.4832 357.5,92.5 Z"/></g>
<g><path style="opacity:0.094" fill="#79886a" d="M 266.5,94.5 C 266.843,96.4832 266.176,97.8166 264.5,98.5C 264.229,96.6203 264.896,95.287 266.5,94.5 Z"/></g>
<g><path style="opacity:0.431" fill="#81a069" d="M 322.5,98.5 C 315.119,98.3143 307.786,98.8143 300.5,100C 299.347,101.883 297.681,102.716 295.5,102.5C 297.189,100.147 299.522,98.48 302.5,97.5C 305.833,97.1667 309.167,96.8333 312.5,96.5C 316.239,96.5136 319.572,97.1803 322.5,98.5 Z"/></g>
<g><path style="opacity:0.424" fill="#88a271" d="M 448.5,98.5 C 441.094,98.152 433.761,98.652 426.5,100C 424.454,102.903 421.787,104.736 418.5,105.5C 418.346,107.97 417.346,109.97 415.5,111.5C 415.659,108.845 416.659,106.512 418.5,104.5C 423.823,98.5063 430.489,95.8396 438.5,96.5C 442.239,96.5136 445.572,97.1803 448.5,98.5 Z"/></g>
<g><path style="opacity:0.133" fill="#3e5034" d="M 542.5,96.5 C 544.048,96.8212 544.715,97.8212 544.5,99.5C 543.508,99.6716 542.842,99.3382 542.5,98.5C 542.5,97.8333 542.5,97.1667 542.5,96.5 Z"/></g>
<g><path style="opacity:0.271" fill="#59694e" d="M 176.5,98.5 C 179.698,97.9644 182.365,98.631 184.5,100.5C 182.167,100.5 179.833,100.5 177.5,100.5C 177.167,100.5 176.833,100.5 176.5,100.5C 176.5,99.8333 176.5,99.1667 176.5,98.5 Z"/></g>
<g><path style="opacity:0.192" fill="#adc79c" d="M 449.5,98.5 C 453.543,98.9729 456.543,100.973 458.5,104.5C 455.88,103.247 453.213,101.914 450.5,100.5C 449.702,100.043 449.369,99.3764 449.5,98.5 Z"/></g>
<g><path style="opacity:0.067" fill="#92a680" d="M 147.5,76.5 C 140.52,79.8874 133.52,83.7207 126.5,88C 115.716,96.5972 107.05,106.764 100.5,118.5C 102.456,113.254 104.956,108.254 108,103.5C 117.685,92.1 129.185,83.2667 142.5,77C 144.134,76.5065 145.801,76.3398 147.5,76.5 Z"/></g>
<g><path style="opacity:0.635" fill="#98b87a" d="M 176.5,98.5 C 176.5,99.1667 176.5,99.8333 176.5,100.5C 169.761,100.512 163.095,101.179 156.5,102.5C 156.833,101.833 157.167,101.167 157.5,100.5C 163.664,98.7723 169.997,98.1056 176.5,98.5 Z"/></g>
<g><path style="opacity:0.42" fill="#bcd99e" d="M 177.5,100.5 C 179.833,100.5 182.167,100.5 184.5,100.5C 187.308,100.693 189.975,101.36 192.5,102.5C 192.5,103.167 192.5,103.833 192.5,104.5C 190.319,104.716 188.653,103.883 187.5,102C 183.975,101.821 180.641,101.321 177.5,100.5 Z"/></g>
<g><path style="opacity:0.02" fill="#404634" d="M 359.5,97.5 C 361.048,97.8212 361.715,98.8212 361.5,100.5C 361.5,100.833 361.5,101.167 361.5,101.5C 360.883,101.611 360.383,101.944 360,102.5C 359.506,100.866 359.34,99.1992 359.5,97.5 Z"/></g>
<g><path style="opacity:0.247" fill="#525a46" d="M 157.5,100.5 C 157.167,101.167 156.833,101.833 156.5,102.5C 155.5,102.5 154.5,102.5 153.5,102.5C 154.183,100.824 155.517,100.157 157.5,100.5 Z"/></g>
<g><path style="opacity:0.09" fill="#d7e6cc" d="M 361.5,100.5 C 363.104,101.287 363.771,102.62 363.5,104.5C 362.833,104.5 362.167,104.5 361.5,104.5C 361.5,103.5 361.5,102.5 361.5,101.5C 361.5,101.167 361.5,100.833 361.5,100.5 Z"/></g>
<g><path style="opacity:0.075" fill="#5a6c4a" d="M 264.5,99.5 C 264.843,101.483 264.176,102.817 262.5,103.5C 262.157,101.517 262.824,100.183 264.5,99.5 Z"/></g>
<g><path style="opacity:0.055" fill="#98b088" d="M 322.5,98.5 C 326.528,98.5183 329.695,100.185 332,103.5C 332.383,102.944 332.883,102.611 333.5,102.5C 335.247,106.739 336.58,111.072 337.5,115.5C 337.167,115.5 336.833,115.5 336.5,115.5C 335.503,112.036 334.003,108.703 332,105.5C 328.855,103.024 325.688,100.69 322.5,98.5 Z"/></g>
<g><path style="opacity:0.196" fill="#394133" d="M 152.5,102.5 C 152.027,103.906 151.027,104.573 149.5,104.5C 149.821,102.952 150.821,102.285 152.5,102.5 Z"/></g>
<g><path style="opacity:0.176" fill="#5d6756" d="M 192.5,102.5 C 194.191,103.864 195.858,105.197 197.5,106.5C 196.833,106.5 196.167,106.5 195.5,106.5C 194.5,105.833 193.5,105.167 192.5,104.5C 192.5,103.833 192.5,103.167 192.5,102.5 Z"/></g>
<g><path style="opacity:0.212" fill="#32411c" d="M 230.5,101.5 C 230.833,101.5 231.167,101.5 231.5,101.5C 232.11,102.391 232.443,103.391 232.5,104.5C 232.5,104.833 232.5,105.167 232.5,105.5C 231.326,104.486 230.66,103.153 230.5,101.5 Z"/></g>
<g><path style="opacity:0.227" fill="#869c79" d="M 295.5,102.5 C 293.578,105.084 291.745,107.751 290,110.5C 289.501,114.152 289.335,117.818 289.5,121.5C 289.167,121.5 288.833,121.5 288.5,121.5C 288.172,119.609 287.505,118.109 286.5,117C 287.821,113.961 288.654,110.794 289,107.5C 289.333,107.833 289.667,108.167 290,108.5C 290.649,105.353 292.482,103.353 295.5,102.5 Z"/></g>
<g><path style="opacity:0.557" fill="#7f936d" d="M 393.5,93.5 C 394.167,93.5 394.833,93.5 395.5,93.5C 393.591,96.3129 391.925,99.3129 390.5,102.5C 389.167,105.5 387.833,108.5 386.5,111.5C 385.917,104.247 388.25,98.2466 393.5,93.5 Z"/></g>
<g><path style="opacity:0.627" fill="#a6c18b" d="M 262.5,103.5 C 262.379,108.781 261.712,113.448 260.5,117.5C 259.833,117.5 259.167,117.5 258.5,117.5C 258.335,114.15 258.502,110.817 259,107.5C 259.498,105.456 260.665,104.122 262.5,103.5 Z"/></g>
<g><path style="opacity:0.008" fill="#717a6b" d="M 458.5,104.5 C 460.893,105.353 462.226,107.019 462.5,109.5C 460.413,108.415 459.08,106.749 458.5,104.5 Z"/></g>
<g><path style="opacity:0.686" fill="#9bb785" d="M 232.5,104.5 C 233.794,105.29 234.961,106.29 236,107.5C 237.97,111.899 238.803,116.565 238.5,121.5C 234.998,122.917 231.331,123.584 227.5,123.5C 227.5,123.167 227.5,122.833 227.5,122.5C 229.529,120.893 232.529,120.06 236.5,120C 235.559,115.071 234.226,110.237 232.5,105.5C 232.5,105.167 232.5,104.833 232.5,104.5 Z"/></g>
<g><path style="opacity:0.067" fill="#3b3e36" d="M 361.5,104.5 C 362.167,104.5 362.833,104.5 363.5,104.5C 363.5,106.5 363.5,108.5 363.5,110.5C 361.72,109.01 361.054,107.01 361.5,104.5 Z"/></g>
<g><path style="opacity:0.459" fill="#96b181" d="M 550.5,119.5 C 550.167,119.5 549.833,119.5 549.5,119.5C 547.556,113.938 545.89,108.271 544.5,102.5C 545.117,102.389 545.617,102.056 546,101.5C 547.828,107.507 549.328,113.507 550.5,119.5 Z"/></g>
<g><path style="opacity:0.204" fill="#c1d0ac" d="M 195.5,106.5 C 196.167,106.5 196.833,106.5 197.5,106.5C 198.67,108.279 200.336,109.279 202.5,109.5C 202.704,111.685 203.37,113.685 204.5,115.5C 201.736,112.281 198.736,109.281 195.5,106.5 Z"/></g>
<g><path style="opacity:0.404" fill="#aec892" d="M 363.5,104.5 C 365.412,108.194 365.912,112.194 365,116.5C 360.263,117.469 355.43,117.803 350.5,117.5C 349.5,117.5 348.5,117.5 347.5,117.5C 350.641,116.679 353.975,116.179 357.5,116C 359.329,115.727 360.829,114.893 362,113.5C 362.333,113.833 362.667,114.167 363,114.5C 364.768,113.318 364.935,111.985 363.5,110.5C 363.5,108.5 363.5,106.5 363.5,104.5 Z"/></g>
<g><path style="opacity:0.184" fill="#acc298" d="M 148.5,105.5 C 143.175,110.324 138.009,115.324 133,120.5C 132.601,120.272 132.435,119.938 132.5,119.5C 133.795,117.527 135.128,115.527 136.5,113.5C 139.541,110.341 143.541,107.674 148.5,105.5 Z"/></g>
<g><path style="opacity:0.462" fill="#d8fba4" d="M 23.5,19.5 C 23.5,19.8333 23.5,20.1667 23.5,20.5C 22.8333,20.5 22.1667,20.5 21.5,20.5C 19.5048,68.1551 18.8381,116.155 19.5,164.5C 18.8333,164.5 18.1667,164.5 17.5,164.5C 17.5,164.167 17.5,163.833 17.5,163.5C 18.4988,115.67 18.8322,67.6696 18.5,19.5C 20.1667,19.5 21.8333,19.5 23.5,19.5 Z"/></g>
<g><path style="opacity:0.227" fill="#96a58e" d="M 415.5,111.5 C 415.683,115.749 415.683,119.749 415.5,123.5C 412.9,119.39 412.9,115.39 415.5,111.5 Z"/></g>
<g><path style="opacity:0.345" fill="#405333" d="M 464.5,117.5 C 462.692,116.082 462.025,114.082 462.5,111.5C 463.117,111.389 463.617,111.056 464,110.5C 464.497,112.81 464.663,115.143 464.5,117.5 Z"/></g>
<g><path style="opacity:0.282" fill="#9db48b" d="M 488.5,104.5 C 490.966,108.018 491.966,112.018 491.5,116.5C 484.096,117.291 476.763,118.291 469.5,119.5C 469.5,119.167 469.5,118.833 469.5,118.5C 475.796,117.312 482.13,115.979 488.5,114.5C 489.311,113.784 489.978,112.95 490.5,112C 488.915,109.744 488.248,107.244 488.5,104.5 Z"/></g>
<g><path style="opacity:0.369" fill="#f1fad9" d="M 336.5,115.5 C 336.833,115.5 337.167,115.5 337.5,115.5C 338.833,116.5 338.833,117.5 337.5,118.5C 336.596,117.791 336.263,116.791 336.5,115.5 Z"/></g>
<g><path style="opacity:0.282" fill="#485b24" d="M 258.5,117.5 C 259.167,117.5 259.833,117.5 260.5,117.5C 260.5,118.167 260.5,118.833 260.5,119.5C 259.833,119.5 259.167,119.5 258.5,119.5C 258.5,118.833 258.5,118.167 258.5,117.5 Z"/></g>
<g><path style="opacity:0.325" fill="#d4e1c4" d="M 347.5,117.5 C 348.5,117.5 349.5,117.5 350.5,117.5C 348.401,118.612 346.067,119.279 343.5,119.5C 343.5,119.167 343.5,118.833 343.5,118.5C 344.833,118.167 346.167,117.833 347.5,117.5 Z"/></g>
<g><path style="opacity:0.451" fill="#748961" d="M 386.5,112.5 C 386.5,115.5 386.5,118.5 386.5,121.5C 386.167,121.5 385.833,121.5 385.5,121.5C 384.66,118.366 384.994,115.366 386.5,112.5 Z"/></g>
<g><path style="opacity:0.427" fill="#597544" d="M 337.5,118.5 C 339.5,118.5 341.5,118.5 343.5,118.5C 343.5,118.833 343.5,119.167 343.5,119.5C 342.726,120.147 341.726,120.48 340.5,120.5C 338.97,120.36 337.97,119.693 337.5,118.5 Z"/></g>
<g><path style="opacity:0.38" fill="#48612d" d="M 465.5,118.5 C 466.833,118.5 468.167,118.5 469.5,118.5C 469.5,118.833 469.5,119.167 469.5,119.5C 469.083,120.124 468.416,120.457 467.5,120.5C 466.287,120.253 465.62,119.586 465.5,118.5 Z"/></g>
<g><path style="opacity:0.247" fill="#3c4c2e" d="M 100.5,119.5 C 100.66,121.199 100.494,122.866 100,124.5C 99.6174,123.944 99.1174,123.611 98.5,123.5C 98.1568,121.517 98.8235,120.183 100.5,119.5 Z"/></g>
<g><path style="opacity:0.004" fill="#191919" d="M 130.5,122.5 C 130.167,123.5 129.5,124.167 128.5,124.5C 128.5,123.167 129.167,122.5 130.5,122.5 Z"/></g>
<g><path style="opacity:0.01" fill="#1b1e19" d="M 227.5,122.5 C 227.5,122.833 227.5,123.167 227.5,123.5C 226.609,124.11 225.609,124.443 224.5,124.5C 224.167,124.5 223.833,124.5 223.5,124.5C 223.389,123.883 223.056,123.383 222.5,123C 224.134,122.506 225.801,122.34 227.5,122.5 Z"/></g>
<g><path style="opacity:0.035" fill="#dffae1" d="M 98.5,123.5 C 98.5,124.5 98.5,125.5 98.5,126.5C 97.8333,126.5 97.1667,126.5 96.5,126.5C 96.2852,124.821 96.9519,123.821 98.5,123.5 Z"/></g>
<g><path style="opacity:0.118" fill="#bbccab" d="M 204.5,115.5 C 207.908,118.529 209.908,122.362 210.5,127C 214.675,126.047 219.009,125.214 223.5,124.5C 223.833,124.5 224.167,124.5 224.5,124.5C 219.42,126.691 214.087,128.358 208.5,129.5C 207.76,124.68 206.427,120.014 204.5,115.5 Z"/></g>
<g><path style="opacity:0.502" fill="#e1f3b9" d="M 130.5,122.5 C 130.833,122.5 131.167,122.5 131.5,122.5C 131.25,124.674 130.25,126.341 128.5,127.5C 128.5,127.167 128.5,126.833 128.5,126.5C 128.5,125.833 128.5,125.167 128.5,124.5C 129.5,124.167 130.167,123.5 130.5,122.5 Z"/></g>
<g><path style="opacity:0.004" fill="#181c12" d="M 96.5,126.5 C 97.1667,126.5 97.8333,126.5 98.5,126.5C 98.7678,128.099 98.4345,129.432 97.5,130.5C 96.7659,129.292 96.4326,127.959 96.5,126.5 Z"/></g>
<g><path style="opacity:0.263" fill="#536540" d="M 288.5,121.5 C 288.833,121.5 289.167,121.5 289.5,121.5C 291.42,125.66 294.087,129.327 297.5,132.5C 292.652,130.321 289.652,126.654 288.5,121.5 Z"/></g>
<g><path style="opacity:0.133" fill="#d4e5cd" d="M 549.5,119.5 C 549.833,119.5 550.167,119.5 550.5,119.5C 551.369,121.717 551.702,124.05 551.5,126.5C 551.5,126.833 551.5,127.167 551.5,127.5C 550.469,125.039 549.802,122.373 549.5,119.5 Z"/></g>
<g><path style="opacity:0.231" fill="#515b4c" d="M 128.5,126.5 C 128.5,126.833 128.5,127.167 128.5,127.5C 128.158,128.338 127.492,128.672 126.5,128.5C 126.131,126.007 126.797,125.34 128.5,126.5 Z"/></g>
<g><path style="opacity:0.157" fill="#afc19e" d="M 415.5,124.5 C 416.239,124.369 416.906,124.536 417.5,125C 419.704,126.765 421.371,128.931 422.5,131.5C 419.167,130.167 416.833,127.833 415.5,124.5 Z"/></g>
<g><path style="opacity:0.014" fill="#22251f" d="M 262.5,132.5 C 260.952,132.179 260.285,131.179 260.5,129.5C 261.117,129.389 261.617,129.056 262,128.5C 262.49,129.793 262.657,131.127 262.5,132.5 Z"/></g>
<g><path style="opacity:0.482" fill="#abc28f" d="M 385.5,121.5 C 385.833,121.5 386.167,121.5 386.5,121.5C 386.69,125.923 387.357,130.256 388.5,134.5C 387.5,134.5 386.5,134.5 385.5,134.5C 385.5,130.167 385.5,125.833 385.5,121.5 Z"/></g>
<g><path style="opacity:0.005" fill="#000000" d="M 291.5,131.5 C 292.289,131.783 292.956,132.283 293.5,133C 292.184,133.528 291.517,133.028 291.5,131.5 Z"/></g>
<g><path style="opacity:0.388" fill="#455a2d" d="M 126.5,131.5 C 126.573,133.027 125.906,134.027 124.5,134.5C 124.285,132.821 124.952,131.821 126.5,131.5 Z"/></g>
<g><path style="opacity:0.608" fill="#cbe3b4" d="M 258.5,119.5 C 259.167,119.5 259.833,119.5 260.5,119.5C 260.5,122.833 260.5,126.167 260.5,129.5C 260.285,131.179 260.952,132.179 262.5,132.5C 262.5,133.833 262.5,135.167 262.5,136.5C 261.833,136.167 261.167,135.833 260.5,135.5C 259.725,130.218 259.058,124.885 258.5,119.5 Z"/></g>
<g><path style="opacity:0.059" fill="#b3ded0" d="M 297.5,132.5 C 299.153,132.66 300.486,133.326 301.5,134.5C 299.517,134.843 298.183,134.176 297.5,132.5 Z"/></g>
<g><path style="opacity:0.008" fill="#242a2a" d="M 423.5,132.5 C 423.833,132.5 424.167,132.5 424.5,132.5C 424.833,133.167 425.167,133.833 425.5,134.5C 424.167,134.5 423.5,133.833 423.5,132.5 Z"/></g>
<g><path style="opacity:0.173" fill="#e0eeca" d="M 424.5,132.5 C 426.153,132.66 427.486,133.326 428.5,134.5C 427.5,134.5 426.5,134.5 425.5,134.5C 425.167,133.833 424.833,133.167 424.5,132.5 Z"/></g>
<g><path style="opacity:0.537" fill="#98b176" d="M 428.5,134.5 C 432.083,134.73 435.083,136.063 437.5,138.5C 433.777,138.466 430.777,137.133 428.5,134.5 Z"/></g>
<g><path style="opacity:0.075" fill="#bec8b5" d="M 306.5,136.5 C 308.153,136.66 309.486,137.326 310.5,138.5C 308.517,138.843 307.183,138.176 306.5,136.5 Z"/></g>
<g><path style="opacity:0.361" fill="#6e7e57" d="M 124.5,136.5 C 124.88,138.698 124.213,140.365 122.5,141.5C 122.077,139.219 122.744,137.552 124.5,136.5 Z"/></g>
<g><path style="opacity:0.016" fill="#829b76" d="M 388.5,135.5 C 390.727,136.401 391.727,138.067 391.5,140.5C 389.259,139.7 388.259,138.034 388.5,135.5 Z"/></g>
<g><path style="opacity:0.173" fill="#b1cb95" d="M 311.5,139.5 C 314.082,139.025 316.082,139.692 317.5,141.5C 317.167,141.5 316.833,141.5 316.5,141.5C 314.694,140.976 313.028,140.309 311.5,139.5 Z"/></g>
<g><path style="opacity:0.122" fill="#b3ca98" d="M 437.5,138.5 C 440.393,138.031 442.393,139.031 443.5,141.5C 443.167,141.5 442.833,141.5 442.5,141.5C 440.272,141.223 438.605,140.223 437.5,138.5 Z"/></g>
<g><path style="opacity:0.424" fill="#2e3f1e" d="M 316.5,141.5 C 316.833,141.5 317.167,141.5 317.5,141.5C 318.959,141.433 320.292,141.766 321.5,142.5C 321.5,142.833 321.5,143.167 321.5,143.5C 319.61,142.82 317.61,142.653 315.5,143C 316.056,142.617 316.389,142.117 316.5,141.5 Z"/></g>
<g><path style="opacity:0.329" fill="#31411c" d="M 442.5,141.5 C 442.833,141.5 443.167,141.5 443.5,141.5C 445.698,141.12 447.365,141.787 448.5,143.5C 448.833,144.167 449.167,144.833 449.5,145.5C 447.387,143.062 445.054,141.728 442.5,141.5 Z"/></g>
<g><path style="opacity:0.016" fill="#35352d" d="M 321.5,143.5 C 322.5,143.833 323.167,144.5 323.5,145.5C 322.167,145.5 321.5,144.833 321.5,143.5 Z"/></g>
<g><path style="opacity:0.333" fill="#829d6c" d="M 392.5,140.5 C 393.975,143.553 395.642,146.553 397.5,149.5C 394.837,147.911 392.837,145.578 391.5,142.5C 391.863,141.817 392.196,141.15 392.5,140.5 Z"/></g>
<g><path style="opacity:0.627" fill="#a2c477" d="M 321.5,143.5 C 321.5,143.167 321.5,142.833 321.5,142.5C 323.606,143.783 325.94,144.616 328.5,145C 330.657,146.912 332.991,148.579 335.5,150C 336.823,150.816 337.489,151.983 337.5,153.5C 336.883,153.611 336.383,153.944 336,154.5C 333.589,151.583 330.756,149.25 327.5,147.5C 326.167,147.5 325.5,146.833 325.5,145.5C 324.833,145.5 324.167,145.5 323.5,145.5C 323.167,144.5 322.5,143.833 321.5,143.5 Z"/></g>
<g><path style="opacity:0.169" fill="#7c8970" d="M 95.5,133.5 C 94.4574,140.4 93.1241,147.067 91.5,153.5C 91.5,150.167 91.5,146.833 91.5,143.5C 92.5072,140.678 93.3405,137.678 94,134.5C 94.3826,133.944 94.8826,133.611 95.5,133.5 Z"/></g>
<g><path style="opacity:0.773" fill="#87ab61" d="M 260.5,135.5 C 261.167,135.833 261.833,136.167 262.5,136.5C 263.117,136.389 263.617,136.056 264,135.5C 264.538,138.345 265.538,141.012 267,143.5C 270.072,147.068 273.239,150.401 276.5,153.5C 275.022,153.762 273.689,153.429 272.5,152.5C 266.93,147.932 262.93,142.265 260.5,135.5 Z"/></g>
<g><path style="opacity:0.063" fill="#4a5040" d="M 325.5,145.5 C 326.833,145.5 327.5,146.167 327.5,147.5C 327.5,146.167 326.833,145.5 325.5,145.5 Z"/></g>
<g><path style="opacity:0.031" fill="#7a9a64" d="M 448.5,143.5 C 451.93,144.714 455.264,146.214 458.5,148C 460.141,149.129 461.141,150.629 461.5,152.5C 457.834,149.728 453.834,147.394 449.5,145.5C 449.167,144.833 448.833,144.167 448.5,143.5 Z"/></g>
<g><path style="opacity:0.573" fill="#99ae7b" d="M 397.5,149.5 C 398.552,149.351 399.552,149.517 400.5,150C 400.167,150.333 399.833,150.667 399.5,151C 401.119,151.236 402.119,152.069 402.5,153.5C 399.656,153.657 397.989,152.324 397.5,149.5 Z"/></g>
<g><path style="opacity:0.082" fill="#a6bd98" d="M 461.5,152.5 C 462.552,152.351 463.552,152.517 464.5,153C 469.183,157.201 472.183,162.368 473.5,168.5C 473.167,168.5 472.833,168.5 472.5,168.5C 470.305,162.097 466.639,156.763 461.5,152.5 Z"/></g>
<g><path style="opacity:0.2" fill="#2b3822" d="M 121.5,146.5 C 121.5,154.833 121.5,163.167 121.5,171.5C 120.883,171.389 120.383,171.056 120,170.5C 119.333,162.833 119.333,155.167 120,147.5C 120.383,146.944 120.883,146.611 121.5,146.5 Z"/></g>
<g><path style="opacity:0.039" fill="#a6b39b" d="M 337.5,153.5 C 341.472,156.781 344.472,160.781 346.5,165.5C 343.033,161.922 340.033,157.922 337.5,153.5 Z"/></g>
<g><path style="opacity:0.475" fill="#7f966a" d="M 276.5,153.5 C 277.688,154.684 278.855,154.684 280,153.5C 280.483,154.448 280.649,155.448 280.5,156.5C 285.328,157.752 289.661,159.752 293.5,162.5C 286.599,161.551 280.932,158.551 276.5,153.5 Z"/></g>
<g><path style="opacity:0.225" fill="#d3f6b4" d="M 91.5,143.5 C 91.5,146.833 91.5,150.167 91.5,153.5C 91.5,157.5 91.5,161.5 91.5,165.5C 92.8333,166.5 92.8333,167.5 91.5,168.5C 91.5,170.5 91.5,172.5 91.5,174.5C 90.1667,164.167 90.1667,153.833 91.5,143.5 Z"/></g>
<g><path style="opacity:0.278" fill="#485237" d="M 296.5,162.5 C 298.179,162.285 299.179,162.952 299.5,164.5C 298.833,164.5 298.167,164.5 297.5,164.5C 296.662,164.158 296.328,163.492 296.5,162.5 Z"/></g>
<g><path style="opacity:0.408" fill="#cbe3ae" d="M 297.5,164.5 C 298.167,164.5 298.833,164.5 299.5,164.5C 299.833,164.5 300.167,164.5 300.5,164.5C 300.973,165.906 301.973,166.573 303.5,166.5C 304.167,166.833 304.833,167.167 305.5,167.5C 305.5,167.833 305.5,168.167 305.5,168.5C 302.246,168.206 299.579,166.873 297.5,164.5 Z"/></g>
<g><path style="opacity:0.035" fill="#393c35" d="M 300.5,164.5 C 302.027,164.427 303.027,165.094 303.5,166.5C 301.973,166.573 300.973,165.906 300.5,164.5 Z"/></g>
<g><path style="opacity:0.096" fill="#354531" d="M 17.5,164.5 C 18.1667,164.5 18.8333,164.5 19.5,164.5C 19.5,166.167 19.5,167.833 19.5,169.5C 19.5,170.5 19.5,171.5 19.5,172.5C 18.8826,172.611 18.3826,172.944 18,173.5C 17.502,170.518 17.3354,167.518 17.5,164.5 Z"/></g>
<g><path style="opacity:0.416" fill="#6d8862" d="M 346.5,165.5 C 347.537,166.93 348.204,168.597 348.5,170.5C 348.5,170.833 348.5,171.167 348.5,171.5C 347.883,171.611 347.383,171.944 347,172.5C 346.503,170.19 346.337,167.857 346.5,165.5 Z"/></g>
<g><path style="opacity:0.051" fill="#a0b28f" d="M 402.5,153.5 C 403.847,154.171 405.014,154.171 406,153.5C 406.483,154.448 406.649,155.448 406.5,156.5C 419.1,160.068 430.767,165.401 441.5,172.5C 442.105,174.481 443.105,174.815 444.5,173.5C 444.5,174.833 444.5,176.167 444.5,177.5C 444.5,177.833 444.5,178.167 444.5,178.5C 442.734,176.229 440.734,174.063 438.5,172C 427.911,166.207 416.911,161.207 405.5,157C 403.937,156.241 402.937,155.074 402.5,153.5 Z"/></g>
<g><path style="opacity:0.2" fill="#272f1b" d="M 472.5,168.5 C 472.833,168.5 473.167,168.5 473.5,168.5C 474.404,169.209 474.737,170.209 474.5,171.5C 474.5,171.833 474.5,172.167 474.5,172.5C 472.896,171.713 472.229,170.38 472.5,168.5 Z"/></g>
<g><path style="opacity:0.027" fill="#222722" d="M 93.5,176.5 C 92.8333,173.833 92.1667,171.167 91.5,168.5C 92.8333,167.5 92.8333,166.5 91.5,165.5C 92.1174,165.389 92.6174,165.056 93,164.5C 93.4988,168.486 93.6655,172.486 93.5,176.5 Z"/></g>
<g><path style="opacity:0.106" fill="#d4e4be" d="M 19.5,169.5 C 20.4067,171.657 21.0733,173.99 21.5,176.5C 21.5,176.833 21.5,177.167 21.5,177.5C 21.1667,177.5 20.8333,177.5 20.5,177.5C 19.6993,175.958 19.366,174.292 19.5,172.5C 19.5,171.5 19.5,170.5 19.5,169.5 Z"/></g>
<g><path style="opacity:0.537" fill="#bde891" d="M 393.5,171.5 C 392.508,171.328 391.842,171.662 391.5,172.5C 389.517,172.157 388.183,172.824 387.5,174.5C 384.833,174.5 382.167,174.5 379.5,174.5C 377.5,174.5 375.5,174.5 373.5,174.5C 373.389,173.883 373.056,173.383 372.5,173C 378.811,172.945 384.978,172.111 391,170.5C 392.07,170.528 392.903,170.861 393.5,171.5 Z"/></g>
<g><path style="opacity:0.09" fill="#464d43" d="M 391.5,172.5 C 392.167,172.5 392.5,172.833 392.5,173.5C 390.958,174.301 389.292,174.634 387.5,174.5C 388.183,172.824 389.517,172.157 391.5,172.5 Z"/></g>
<g><path style="opacity:0.01" fill="#1b2218" d="M 261.5,172.5 C 262.959,172.433 264.292,172.766 265.5,173.5C 263.393,174.468 261.059,174.802 258.5,174.5C 258.5,174.167 258.5,173.833 258.5,173.5C 259.391,172.89 260.391,172.557 261.5,172.5 Z"/></g>
<g><path style="opacity:0.031" fill="#8d9d84" d="M 305.5,168.5 C 305.5,168.167 305.5,167.833 305.5,167.5C 308.025,168.64 310.692,169.307 313.5,169.5C 315.491,172.16 317.491,174.826 319.5,177.5C 320.308,179.423 320.808,181.423 321,183.5C 321.333,182.833 321.667,182.167 322,181.5C 322.73,186.408 322.23,190.408 320.5,193.5C 320.167,193.5 319.833,193.5 319.5,193.5C 321.578,181.274 316.912,172.941 305.5,168.5 Z"/></g>
<g><path style="opacity:0.153" fill="#6c7b5d" d="M 258.5,173.5 C 258.5,173.833 258.5,174.167 258.5,174.5C 255.08,176.141 250.747,176.808 245.5,176.5C 245.5,176.167 245.5,175.833 245.5,175.5C 246.263,174.732 247.263,174.232 248.5,174C 251.817,173.502 255.15,173.335 258.5,173.5 Z"/></g>
<g><path style="opacity:0.255" fill="#adc39c" d="M 261.5,172.5 C 263.265,171.539 265.265,171.205 267.5,171.5C 266.464,183.038 270.131,192.704 278.5,200.5C 273.038,197.86 269.538,193.527 268,187.5C 267.667,187.833 267.333,188.167 267,188.5C 266.857,182.742 266.357,177.742 265.5,173.5C 264.292,172.766 262.959,172.433 261.5,172.5 Z"/></g>
<g><path style="opacity:0.016" fill="#505947" d="M 373.5,174.5 C 375.5,174.5 377.5,174.5 379.5,174.5C 379.611,175.117 379.944,175.617 380.5,176C 377.518,176.498 374.518,176.665 371.5,176.5C 371.5,176.167 371.5,175.833 371.5,175.5C 371.842,174.662 372.508,174.328 373.5,174.5 Z"/></g>
<g><path style="opacity:0.012" fill="#9faa96" d="M 474.5,171.5 C 476.006,174.356 476.672,177.523 476.5,181C 476.496,183.361 476.163,185.527 475.5,187.5C 475.587,182.463 475.254,177.463 474.5,172.5C 474.5,172.167 474.5,171.833 474.5,171.5 Z"/></g>
<g><path style="opacity:0.129" fill="#d1e0ce" d="M 391.5,172.5 C 391.842,171.662 392.508,171.328 393.5,171.5C 393.815,175.371 393.482,179.038 392.5,182.5C 392.5,179.5 392.5,176.5 392.5,173.5C 392.5,172.833 392.167,172.5 391.5,172.5 Z"/></g>
<g><path style="opacity:0.22" fill="#8da079" d="M 212.5,178.5 C 210.473,178.662 208.473,178.495 206.5,178C 206.833,177.667 207.167,177.333 207.5,177C 205.598,176.801 204.098,175.967 203,174.5C 200.043,179.944 196.543,184.944 192.5,189.5C 192.351,188.448 192.517,187.448 193,186.5C 196.208,182.583 199.041,178.417 201.5,174C 205.504,174.614 209.171,176.114 212.5,178.5 Z"/></g>
<g><path style="opacity:0.078" fill="#e4efd1" d="M 245.5,175.5 C 245.5,175.833 245.5,176.167 245.5,176.5C 243.833,176.5 242.167,176.5 240.5,176.5C 240.5,177.5 240.5,178.5 240.5,179.5C 240.167,179.5 239.833,179.5 239.5,179.5C 239.5,178.167 239.5,176.833 239.5,175.5C 241.5,175.5 243.5,175.5 245.5,175.5 Z"/></g>
<g><path style="opacity:0.329" fill="#9ab97f" d="M 121.5,145.5 C 122.329,153.657 122.829,161.99 123,170.5C 124.604,174.67 125.77,179.003 126.5,183.5C 124.903,182.263 123.737,180.596 123,178.5C 122.71,176.08 122.21,173.746 121.5,171.5C 121.5,163.167 121.5,154.833 121.5,146.5C 121.5,146.167 121.5,145.833 121.5,145.5 Z"/></g>
<g><path style="opacity:0.682" fill="#446623" d="M 444.5,177.5 C 446.176,178.183 446.843,179.517 446.5,181.5C 446.167,181.5 445.833,181.5 445.5,181.5C 444.596,180.791 444.263,179.791 444.5,178.5C 444.5,178.167 444.5,177.833 444.5,177.5 Z"/></g>
<g><path style="opacity:0.071" fill="#718463" d="M 20.5,177.5 C 20.8333,177.5 21.1667,177.5 21.5,177.5C 22.1098,178.391 22.4431,179.391 22.5,180.5C 22.6716,181.492 22.3382,182.158 21.5,182.5C 20.5489,181.081 20.2155,179.415 20.5,177.5 Z"/></g>
<g><path style="opacity:0.29" fill="#a7be91" d="M 212.5,178.5 C 217.554,179.853 222.554,181.519 227.5,183.5C 228.809,185.24 228.476,186.573 226.5,187.5C 226.881,185.058 226.214,184.391 224.5,185.5C 223.481,184.313 222.314,183.313 221,182.5C 220.667,182.833 220.333,183.167 220,183.5C 217.625,181.48 215.125,179.813 212.5,178.5 Z"/></g>
<g><path style="opacity:0.31" fill="#2d391c" d="M 239.5,179.5 C 239.833,179.5 240.167,179.5 240.5,179.5C 240.5,181.167 240.5,182.833 240.5,184.5C 239.833,184.167 239.167,183.833 238.5,183.5C 238.433,182.041 238.766,180.708 239.5,179.5 Z"/></g>
<g><path style="opacity:0.459" fill="#9bb584" d="M 91.5,168.5 C 92.1667,171.167 92.8333,173.833 93.5,176.5C 94.5911,180.485 95.5911,184.485 96.5,188.5C 96.5,188.833 96.5,189.167 96.5,189.5C 93.4964,185.157 91.8297,180.157 91.5,174.5C 91.5,172.5 91.5,170.5 91.5,168.5 Z"/></g>
<g><path style="opacity:0.208" fill="#48563e" d="M 392.5,183.5 C 394.176,184.183 394.843,185.517 394.5,187.5C 394.5,187.833 394.5,188.167 394.5,188.5C 393.463,187.07 392.796,185.403 392.5,183.5 Z"/></g>
<g><path style="opacity:0.027" fill="#aec2a0" d="M 445.5,181.5 C 445.833,181.5 446.167,181.5 446.5,181.5C 446.477,183.6 447.144,185.433 448.5,187C 448.022,188.303 447.355,189.469 446.5,190.5C 446.167,190.5 445.833,190.5 445.5,190.5C 445.5,187.5 445.5,184.5 445.5,181.5 Z"/></g>
<g><path style="opacity:0.047" fill="#abb9a3" d="M 126.5,183.5 C 128.218,185.223 129.551,187.223 130.5,189.5C 127.687,188.554 126.354,186.554 126.5,183.5 Z"/></g>
<g><path style="opacity:0.027" fill="#132c06" d="M 553.5,272.5 C 552.833,272.5 552.167,272.5 551.5,272.5C 551.5,224.167 551.5,175.833 551.5,127.5C 551.5,127.167 551.5,126.833 551.5,126.5C 552.222,126.082 552.722,125.416 553,124.5C 553.5,173.832 553.667,223.166 553.5,272.5 Z"/></g>
<g><path style="opacity:0.176" fill="#abc690" d="M 22.5,180.5 C 24.2537,186.3 26.2537,191.966 28.5,197.5C 27.8333,197.5 27.1667,197.5 26.5,197.5C 24.6453,193.275 22.9786,188.275 21.5,182.5C 22.3382,182.158 22.6716,181.492 22.5,180.5 Z"/></g>
<g><path style="opacity:0.008" fill="#6a725e" d="M 130.5,189.5 C 132.262,190.262 133.262,191.596 133.5,193.5C 131.738,192.738 130.738,191.404 130.5,189.5 Z"/></g>
<g><path style="opacity:0.588" fill="#b3d892" d="M 238.5,183.5 C 239.167,183.833 239.833,184.167 240.5,184.5C 240.205,186.735 240.539,188.735 241.5,190.5C 241.5,191.833 241.5,193.167 241.5,194.5C 239.12,191.325 238.12,187.658 238.5,183.5 Z"/></g>
<g><path style="opacity:0.388" fill="#9bb484" d="M 394.5,187.5 C 396.408,188.486 397.408,190.152 397.5,192.5C 395.799,191.789 394.799,190.455 394.5,188.5C 394.5,188.167 394.5,187.833 394.5,187.5 Z"/></g>
<g><path style="opacity:0.553" fill="#4f6630" d="M 445.5,190.5 C 445.833,190.5 446.167,190.5 446.5,190.5C 446.294,193.238 445.294,195.572 443.5,197.5C 442.833,197.5 442.5,197.167 442.5,196.5C 443.514,194.426 444.514,192.426 445.5,190.5 Z"/></g>
<g><path style="opacity:0.039" fill="#48553c" d="M 96.5,188.5 C 97.3764,188.369 98.0431,188.702 98.5,189.5C 97.6371,190.726 97.6371,192.06 98.5,193.5C 96.8958,192.713 96.2291,191.38 96.5,189.5C 96.5,189.167 96.5,188.833 96.5,188.5 Z"/></g>
<g><path style="opacity:0.013" fill="#2a3026" d="M 98.5,193.5 C 100.176,194.183 100.843,195.517 100.5,197.5C 100.167,197.5 99.8333,197.5 99.5,197.5C 98.7659,196.292 98.4326,194.959 98.5,193.5 Z"/></g>
<g><path style="opacity:0.004" fill="#171b14" d="M 318.5,193.5 C 318.833,193.5 319.167,193.5 319.5,193.5C 319.833,193.5 320.167,193.5 320.5,193.5C 320.167,194.5 319.5,195.167 318.5,195.5C 318.5,194.833 318.5,194.167 318.5,193.5 Z"/></g>
<g><path style="opacity:0.443" fill="#839b6e" d="M 371.5,175.5 C 371.5,175.833 371.5,176.167 371.5,176.5C 369.833,176.5 368.167,176.5 366.5,176.5C 365.897,184.154 366.897,191.487 369.5,198.5C 367.689,196.615 366.522,194.281 366,191.5C 364.809,186.233 364.309,180.899 364.5,175.5C 366.833,175.5 369.167,175.5 371.5,175.5 Z"/></g>
<g><path style="opacity:0.263" fill="#96ac83" d="M 348.5,170.5 C 350.759,174.242 351.759,178.408 351.5,183C 350.995,197.002 345.662,208.668 335.5,218C 333.807,218.847 332.14,219.68 330.5,220.5C 335.16,215.787 339.66,210.787 344,205.5C 345.203,201.89 346.203,198.224 347,194.5C 347.333,194.833 347.667,195.167 348,195.5C 348.5,187.507 348.666,179.507 348.5,171.5C 348.5,171.167 348.5,170.833 348.5,170.5 Z"/></g>
<g><path style="opacity:0.169" fill="#dae6cf" d="M 475.5,188.5 C 476.147,189.274 476.48,190.274 476.5,191.5C 476.66,193.355 475.993,194.688 474.5,195.5C 474.5,195.167 474.5,194.833 474.5,194.5C 474.833,192.5 475.167,190.5 475.5,188.5 Z"/></g>
<g><path style="opacity:0.376" fill="#90a87b" d="M 135.5,195.5 C 136.873,195.343 138.207,195.51 139.5,196C 142.985,197.755 146.319,199.588 149.5,201.5C 149.167,201.5 148.833,201.5 148.5,201.5C 143.72,200.367 139.387,198.367 135.5,195.5 Z"/></g>
<g><path style="opacity:0.094" fill="#a3ad90" d="M 397.5,192.5 C 399.885,195.212 402.218,197.878 404.5,200.5C 400.373,199.375 398.04,196.708 397.5,192.5 Z"/></g>
<g><path style="opacity:0.11" fill="#434a3a" d="M 474.5,194.5 C 474.5,194.833 474.5,195.167 474.5,195.5C 474.88,197.698 474.213,199.365 472.5,200.5C 473.58,198.955 473.58,197.455 472.5,196C 472.836,194.97 473.503,194.47 474.5,194.5 Z"/></g>
<g><path style="opacity:0.176" fill="#8c9e7c" d="M 226.5,187.5 C 226.143,189.589 225.477,191.589 224.5,193.5C 222.205,197.781 219.205,201.447 215.5,204.5C 218.849,198.513 222.516,192.846 226.5,187.5 Z"/></g>
<g><path style="opacity:0.318" fill="#9ab27f" d="M 192.5,189.5 C 187.575,195.672 181.241,199.672 173.5,201.5C 172.833,201.5 172.167,201.5 171.5,201.5C 178.948,198.276 185.948,194.276 192.5,189.5 Z"/></g>
<g><path style="opacity:0.161" fill="#ddecd1" d="M 442.5,196.5 C 442.5,197.167 442.833,197.5 443.5,197.5C 442.147,199.183 440.48,200.516 438.5,201.5C 439.46,199.539 440.793,197.873 442.5,196.5 Z"/></g>
<g><path style="opacity:0.11" fill="#455939" d="M 26.5,197.5 C 27.1667,197.5 27.8333,197.5 28.5,197.5C 28.5,198.5 28.5,199.5 28.5,200.5C 26.9519,200.179 26.2852,199.179 26.5,197.5 Z"/></g>
<g><path style="opacity:0.259" fill="#9eb791" d="M 99.5,197.5 C 99.8333,197.5 100.167,197.5 100.5,197.5C 100.81,198.738 101.31,198.738 102,197.5C 102.384,200.06 103.217,202.394 104.5,204.5C 102.123,202.772 100.456,200.439 99.5,197.5 Z"/></g>
<g><path style="opacity:0.173" fill="#314028" d="M 369.5,198.5 C 371.048,198.821 371.715,199.821 371.5,201.5C 371.167,201.5 370.833,201.5 370.5,201.5C 369.596,200.791 369.263,199.791 369.5,198.5 Z"/></g>
<g><path style="opacity:0.118" fill="#b5c7a4" d="M 318.5,193.5 C 318.5,194.167 318.5,194.833 318.5,195.5C 316.53,197.988 314.696,200.655 313,203.5C 311.512,202.804 310.012,203.138 308.5,204.5C 301.866,205.497 295.2,205.83 288.5,205.5C 288.5,205.167 288.5,204.833 288.5,204.5C 301.146,207.415 311.146,203.748 318.5,193.5 Z"/></g>
<g><path style="opacity:0.165" fill="#4d583d" d="M 404.5,200.5 C 405.609,200.557 406.609,200.89 407.5,201.5C 407.5,202.167 407.5,202.833 407.5,203.5C 406.167,202.833 405.167,201.833 404.5,200.5 Z"/></g>
<g><path style="opacity:0.129" fill="#414b30" d="M 148.5,201.5 C 148.833,201.5 149.167,201.5 149.5,201.5C 150.5,201.5 151.5,201.5 152.5,201.5C 152.833,202.167 153.167,202.833 153.5,203.5C 151.219,203.923 149.552,203.256 148.5,201.5 Z"/></g>
<g><path style="opacity:0.718" fill="#c6e68f" d="M 407.5,201.5 C 410.082,201.025 412.082,201.692 413.5,203.5C 412.5,203.5 411.5,203.5 410.5,203.5C 409.5,203.5 408.5,203.5 407.5,203.5C 407.5,202.833 407.5,202.167 407.5,201.5 Z"/></g>
<g><path style="opacity:0.098" fill="#475345" d="M 472.5,200.5 C 472.737,201.791 472.404,202.791 471.5,203.5C 471.167,203.5 470.833,203.5 470.5,203.5C 470.285,201.821 470.952,200.821 472.5,200.5 Z"/></g>
<g><path style="opacity:0.114" fill="#363f29" d="M 28.5,201.5 C 29.4916,201.328 30.1583,201.662 30.5,202.5C 30.5,203.167 30.5,203.833 30.5,204.5C 29.0937,204.027 28.427,203.027 28.5,201.5 Z"/></g>
<g><path style="opacity:0.043" fill="#ddeec4" d="M 152.5,201.5 C 157.927,201.218 163.26,201.551 168.5,202.5C 168.5,202.833 168.5,203.167 168.5,203.5C 163.5,203.5 158.5,203.5 153.5,203.5C 153.167,202.833 152.833,202.167 152.5,201.5 Z"/></g>
<g><path style="opacity:0.005" fill="#171f13" d="M 171.5,201.5 C 172.167,201.5 172.833,201.5 173.5,201.5C 172.448,203.256 170.781,203.923 168.5,203.5C 168.5,203.167 168.5,202.833 168.5,202.5C 169.209,201.596 170.209,201.263 171.5,201.5 Z"/></g>
<g><path style="opacity:0.271" fill="#8b9e7f" d="M 278.5,200.5 C 281.894,201.71 285.228,203.044 288.5,204.5C 288.5,204.833 288.5,205.167 288.5,205.5C 285.418,204.87 282.418,203.87 279.5,202.5C 279.137,201.817 278.804,201.15 278.5,200.5 Z"/></g>
<g><path style="opacity:0.2" fill="#b9d2b7" d="M 370.5,201.5 C 370.833,201.5 371.167,201.5 371.5,201.5C 371.5,202.167 371.833,202.5 372.5,202.5C 372.167,203.167 371.833,203.833 371.5,204.5C 370.596,203.791 370.263,202.791 370.5,201.5 Z"/></g>
<g><path style="opacity:0.004" fill="#000000" d="M 25.5,203.5 C 26.8333,204.167 26.8333,204.167 25.5,203.5 Z"/></g>
<g><path style="opacity:0.365" fill="#a7c496" d="M 30.5,202.5 C 32.979,205.344 34.6457,208.678 35.5,212.5C 33.3685,210.262 31.7018,207.595 30.5,204.5C 30.5,203.833 30.5,203.167 30.5,202.5 Z"/></g>
<g><path style="opacity:0.02" fill="#21231b" d="M 410.5,203.5 C 411.5,203.5 412.5,203.5 413.5,203.5C 413.5,203.833 413.5,204.167 413.5,204.5C 413.5,204.833 413.5,205.167 413.5,205.5C 411.821,205.715 410.821,205.048 410.5,203.5 Z"/></g>
<g><path style="opacity:0.22" fill="#b4cba3" d="M 438.5,201.5 C 437.653,202.966 436.32,203.8 434.5,204C 434.833,204.333 435.167,204.667 435.5,205C 428.174,205.5 420.841,205.666 413.5,205.5C 413.5,205.167 413.5,204.833 413.5,204.5C 422.081,205.113 430.414,204.113 438.5,201.5 Z"/></g>
<g><path style="opacity:0.137" fill="#dcefc8" d="M 104.5,204.5 C 107.378,207.214 110.045,210.214 112.5,213.5C 108.398,211.734 105.731,208.734 104.5,204.5 Z"/></g>
<g><path style="opacity:0.392" fill="#b1c5a9" d="M 372.5,202.5 C 374.469,206.128 376.469,209.795 378.5,213.5C 378.5,213.833 378.5,214.167 378.5,214.5C 375.421,211.743 373.088,208.41 371.5,204.5C 371.833,203.833 372.167,203.167 372.5,202.5 Z"/></g>
<g><path style="opacity:0.278" fill="#bdccac" d="M 215.5,204.5 C 213.855,208.811 210.855,211.811 206.5,213.5C 209.39,210.357 212.39,207.357 215.5,204.5 Z"/></g>
<g><path style="opacity:0.125" fill="#bbd3ad" d="M 470.5,203.5 C 470.833,203.5 471.167,203.5 471.5,203.5C 469.653,210.181 465.653,215.181 459.5,218.5C 460.211,216.97 461.211,215.637 462.5,214.5C 465.765,211.269 468.432,207.602 470.5,203.5 Z"/></g>
<g><path style="opacity:0.004" fill="#000000" d="M 31.5,215.5 C 31.8966,214.475 32.5632,214.308 33.5,215C 32.9056,215.464 32.2389,215.631 31.5,215.5 Z"/></g>
<g><path style="opacity:0.012" fill="#48553e" d="M 112.5,213.5 C 113.71,213.932 114.71,214.599 115.5,215.5C 114.833,215.5 114.167,215.5 113.5,215.5C 112.662,215.158 112.328,214.492 112.5,213.5 Z"/></g>
<g><path style="opacity:0.227" fill="#596652" d="M 206.5,213.5 C 206.167,214.5 205.5,215.167 204.5,215.5C 204.167,215.5 203.833,215.5 203.5,215.5C 203.973,214.094 204.973,213.427 206.5,213.5 Z"/></g>
<g><path style="opacity:0.145" fill="#39472d" d="M 378.5,213.5 C 380.027,213.427 381.027,214.094 381.5,215.5C 380.833,215.5 380.167,215.5 379.5,215.5C 378.833,215.5 378.5,215.167 378.5,214.5C 378.5,214.167 378.5,213.833 378.5,213.5 Z"/></g>
<g><path style="opacity:0.227" fill="#7f9173" d="M 35.5,212.5 C 38.1846,215.19 40.5179,218.19 42.5,221.5C 38.8845,219.585 36.5512,216.585 35.5,212.5 Z"/></g>
<g><path style="opacity:0.314" fill="#c7d6b6" d="M 379.5,215.5 C 380.167,215.5 380.833,215.5 381.5,215.5C 384.563,218.231 387.896,220.564 391.5,222.5C 391.5,222.833 391.5,223.167 391.5,223.5C 386.678,222.002 382.678,219.336 379.5,215.5 Z"/></g>
<g><path style="opacity:0.004" fill="#000000" d="M 454.5,216.5 C 455.773,217.077 455.773,217.743 454.5,218.5C 453.537,218.03 453.537,217.363 454.5,216.5 Z"/></g>
<g><path style="opacity:0.153" fill="#b7c5a7" d="M 203.5,215.5 C 203.833,215.5 204.167,215.5 204.5,215.5C 201.663,218.98 197.996,221.313 193.5,222.5C 196.492,219.868 199.825,217.534 203.5,215.5 Z"/></g>
<g><path style="opacity:0.216" fill="#b1c29d" d="M 270.5,224.5 C 270.821,226.048 271.821,226.715 273.5,226.5C 274.609,226.557 275.609,226.89 276.5,227.5C 276.5,227.833 276.5,228.167 276.5,228.5C 258.214,223.879 246.547,212.546 241.5,194.5C 241.5,193.167 241.5,191.833 241.5,190.5C 242.387,193.541 243.554,197.207 245,201.5C 250.747,213.126 259.247,220.793 270.5,224.5 Z"/></g>
<g><path style="opacity:0.341" fill="#abc49e" d="M 113.5,215.5 C 114.167,215.5 114.833,215.5 115.5,215.5C 118.354,218.096 121.687,219.929 125.5,221C 124.944,221.383 124.611,221.883 124.5,222.5C 120.024,221.343 116.358,219.01 113.5,215.5 Z"/></g>
<g><path style="opacity:0.271" fill="#dce2d0" d="M 330.5,220.5 C 329.599,222.727 327.933,223.727 325.5,223.5C 325.5,223.167 325.5,222.833 325.5,222.5C 326.779,221.032 328.446,220.365 330.5,220.5 Z"/></g>
<g><path style="opacity:0.004" fill="#000000" d="M 38.5,223.5 C 39.8333,224.167 39.8333,224.167 38.5,223.5 Z"/></g>
<g><path style="opacity:0.494" fill="#b9d4a5" d="M 43.5,224.5 C 44.1894,223.226 45.0228,223.226 46,224.5C 49.4044,228.394 52.5711,232.394 55.5,236.5C 50.8545,233.188 46.8545,229.188 43.5,224.5 Z"/></g>
<g><path style="opacity:0.173" fill="#3c4e3b" d="M 191.5,222.5 C 191.179,224.048 190.179,224.715 188.5,224.5C 188.821,222.952 189.821,222.285 191.5,222.5 Z"/></g>
<g><path style="opacity:0.176" fill="#4b5746" d="M 325.5,222.5 C 325.5,222.833 325.5,223.167 325.5,223.5C 325.158,224.338 324.492,224.672 323.5,224.5C 323.167,224.5 322.833,224.5 322.5,224.5C 322.821,222.952 323.821,222.285 325.5,222.5 Z"/></g>
<g><path style="opacity:0.392" fill="#809470" d="M 459.5,218.5 C 456.012,222.417 451.679,225.083 446.5,226.5C 446.833,225.833 447.167,225.167 447.5,224.5C 451.472,222.509 455.472,220.509 459.5,218.5 Z"/></g>
<g><path style="opacity:0.004" fill="#151814" d="M 135.5,226.5 C 134.833,226.5 134.167,226.5 133.5,226.5C 133.167,226.5 132.833,226.5 132.5,226.5C 132.5,226.167 132.5,225.833 132.5,225.5C 133.947,224.115 134.947,224.448 135.5,226.5 Z"/></g>
<g><path style="opacity:0.224" fill="#889a7f" d="M 391.5,222.5 C 394.209,222.555 396.209,223.222 397.5,224.5C 397.821,226.048 398.821,226.715 400.5,226.5C 403.61,227.088 406.61,227.755 409.5,228.5C 408.5,228.5 407.5,228.5 406.5,228.5C 402.021,228.464 397.688,227.631 393.5,226C 392.619,225.292 391.953,224.458 391.5,223.5C 391.5,223.167 391.5,222.833 391.5,222.5 Z"/></g>
<g><path style="opacity:0.008" fill="#000000" d="M 40.5,226.5 C 40.8966,225.475 41.5632,225.308 42.5,226C 41.9056,226.464 41.2389,226.631 40.5,226.5 Z"/></g>
<g><path style="opacity:0.369" fill="#eaf5d0" d="M 129.5,224.5 C 130.609,224.557 131.609,224.89 132.5,225.5C 132.5,225.833 132.5,226.167 132.5,226.5C 130.821,226.715 129.821,226.048 129.5,224.5 Z"/></g>
<g><path style="opacity:0.2" fill="#364731" d="M 188.5,224.5 C 187.01,226.28 185.01,226.946 182.5,226.5C 182.47,225.503 182.97,224.836 184,224.5C 185.455,225.58 186.955,225.58 188.5,224.5 Z"/></g>
<g><path style="opacity:0.255" fill="#2c3326" d="M 270.5,224.5 C 271.707,225.189 273.041,225.355 274.5,225C 273.944,225.383 273.611,225.883 273.5,226.5C 271.821,226.715 270.821,226.048 270.5,224.5 Z"/></g>
<g><path style="opacity:0.263" fill="#35412d" d="M 320.5,224.5 C 320.179,226.048 319.179,226.715 317.5,226.5C 317.369,225.761 317.536,225.094 318,224.5C 318.77,225.598 319.603,225.598 320.5,224.5 Z"/></g>
<g><path style="opacity:0.086" fill="#30362e" d="M 397.5,224.5 C 399.179,224.285 400.179,224.952 400.5,226.5C 398.821,226.715 397.821,226.048 397.5,224.5 Z"/></g>
<g><path style="opacity:0.031" fill="#303d2d" d="M 447.5,224.5 C 447.167,225.167 446.833,225.833 446.5,226.5C 445.5,226.5 444.5,226.5 443.5,226.5C 443.369,225.761 443.536,225.094 444,224.5C 444.986,225.171 446.153,225.171 447.5,224.5 Z"/></g>
<g><path style="opacity:0.294" fill="#e3f4c8" d="M 133.5,226.5 C 134.167,226.5 134.833,226.5 135.5,226.5C 136.791,226.263 137.791,226.596 138.5,227.5C 138.5,227.833 138.5,228.167 138.5,228.5C 136.219,228.923 134.552,228.256 133.5,226.5 Z"/></g>
<g><path style="opacity:0.188" fill="#6e8864" d="M 138.5,227.5 C 140.735,227.205 142.735,227.539 144.5,228.5C 143.167,228.833 141.833,229.167 140.5,229.5C 139.508,229.672 138.842,229.338 138.5,228.5C 138.5,228.167 138.5,227.833 138.5,227.5 Z"/></g>
<g><path style="opacity:0.322" fill="#748666" d="M 276.5,227.5 C 279.698,226.964 282.365,227.631 284.5,229.5C 282.167,229.5 279.833,229.5 277.5,229.5C 276.833,229.5 276.5,229.167 276.5,228.5C 276.5,228.167 276.5,227.833 276.5,227.5 Z"/></g>
<g><path style="opacity:0.137" fill="#86917c" d="M 314.5,227.5 C 314.5,227.833 314.5,228.167 314.5,228.5C 314.5,229.167 314.167,229.5 313.5,229.5C 311.167,229.5 308.833,229.5 306.5,229.5C 306.611,228.883 306.944,228.383 307.5,228C 309.81,227.503 312.143,227.337 314.5,227.5 Z"/></g>
<g><path style="opacity:0.961" fill="#b6e28d" d="M 320.5,224.5 C 321.167,224.5 321.833,224.5 322.5,224.5C 322.833,224.5 323.167,224.5 323.5,224.5C 322.307,226.054 321.14,227.721 320,229.5C 318.301,228.594 316.467,228.261 314.5,228.5C 314.5,228.167 314.5,227.833 314.5,227.5C 315.391,226.89 316.391,226.557 317.5,226.5C 319.179,226.715 320.179,226.048 320.5,224.5 Z"/></g>
<g><path style="opacity:0.298" fill="#dbf3cd" d="M 144.5,228.5 C 147.054,229.388 149.721,229.721 152.5,229.5C 152.5,229.833 152.5,230.167 152.5,230.5C 148.298,230.817 144.298,230.483 140.5,229.5C 141.833,229.167 143.167,228.833 144.5,228.5 Z"/></g>
<g><path style="opacity:0.333" fill="#c8dcba" d="M 182.5,226.5 C 180.52,228.105 178.187,229.272 175.5,230C 171.514,230.499 167.514,230.666 163.5,230.5C 163.5,230.167 163.5,229.833 163.5,229.5C 169.918,229.089 176.251,228.089 182.5,226.5 Z"/></g>
<g><path style="opacity:0.213" fill="#e1eecc" d="M 443.5,226.5 C 444.5,226.5 445.5,226.5 446.5,226.5C 443.731,227.972 440.731,229.139 437.5,230C 432.333,230.167 427.167,230.333 422,230.5C 416.454,230.495 411.288,229.828 406.5,228.5C 407.5,228.5 408.5,228.5 409.5,228.5C 420.978,230.233 432.311,229.566 443.5,226.5 Z"/></g>
<g><path style="opacity:0.427" fill="#4d6b35" d="M 152.5,229.5 C 156.167,229.5 159.833,229.5 163.5,229.5C 163.5,229.833 163.5,230.167 163.5,230.5C 159.833,231.833 156.167,231.833 152.5,230.5C 152.5,230.167 152.5,229.833 152.5,229.5 Z"/></g>
<g><path style="opacity:0.647" fill="#c3e59b" d="M 277.5,229.5 C 279.833,229.5 282.167,229.5 284.5,229.5C 291.833,229.5 299.167,229.5 306.5,229.5C 308.833,229.5 311.167,229.5 313.5,229.5C 301.503,232.093 289.503,232.093 277.5,229.5 Z"/></g>
<g><path style="opacity:0.004" fill="#000000" d="M 47.5,234.5 C 48.8333,235.167 48.8333,235.167 47.5,234.5 Z"/></g>
<g><path style="opacity:0.004" fill="#000000" d="M 49.5,236.5 C 50.8333,237.167 50.8333,237.167 49.5,236.5 Z"/></g>
<g><path style="opacity:0.027" fill="#aeb6a1" d="M 55.5,236.5 C 58.135,237.473 60.135,239.14 61.5,241.5C 58.6228,240.81 56.6228,239.143 55.5,236.5 Z"/></g>
<g><path style="opacity:0.004" fill="#000000" d="M 52.5,238.5 C 53.8333,239.167 53.8333,239.167 52.5,238.5 Z"/></g>
<g><path style="opacity:0.278" fill="#4d693d" d="M 61.5,241.5 C 63.0269,241.427 64.0269,242.094 64.5,243.5C 62.9731,243.573 61.9731,242.906 61.5,241.5 Z"/></g>
<g><path style="opacity:0.004" fill="#000000" d="M 58.5,243.5 C 59.8333,244.167 59.8333,244.167 58.5,243.5 Z"/></g>
<g><path style="opacity:0.075" fill="#708f65" d="M 64.5,243.5 C 65.8333,243.5 66.5,244.167 66.5,245.5C 65.1667,245.5 64.5,244.833 64.5,243.5 Z"/></g>
<g><path style="opacity:0.004" fill="#000000" d="M 60.5,246.5 C 60.8966,245.475 61.5632,245.308 62.5,246C 61.9056,246.464 61.2389,246.631 60.5,246.5 Z"/></g>
<g><path style="opacity:0.004" fill="#000000" d="M 63.5,247.5 C 64.8333,248.167 64.8333,248.167 63.5,247.5 Z"/></g>
<g><path style="opacity:0.239" fill="#7f9a65" d="M 66.5,245.5 C 69.1979,245.845 71.1979,247.178 72.5,249.5C 70.0337,248.702 68.0337,247.369 66.5,245.5 Z"/></g>
<g><path style="opacity:0.004" fill="#000000" d="M 69.5,252.5 C 70.8333,253.167 70.8333,253.167 69.5,252.5 Z"/></g>
<g><path style="opacity:0.153" fill="#323e28" d="M 76.5,252.5 C 77.609,252.557 78.609,252.89 79.5,253.5C 79.5,253.833 79.5,254.167 79.5,254.5C 77.9731,254.573 76.9731,253.906 76.5,252.5 Z"/></g>
<g><path style="opacity:0.008" fill="#2d3535" d="M 79.5,254.5 C 80.5,254.833 81.1667,255.5 81.5,256.5C 80.1667,256.5 79.5,255.833 79.5,254.5 Z"/></g>
<g><path style="opacity:0.004" fill="#000000" d="M 76.5,256.5 C 77.8333,257.167 77.8333,257.167 76.5,256.5 Z"/></g>
<g><path style="opacity:0.251" fill="#a5bd90" d="M 79.5,254.5 C 79.5,254.167 79.5,253.833 79.5,253.5C 87.8042,257.821 96.1376,261.821 104.5,265.5C 103.833,265.5 103.167,265.5 102.5,265.5C 99.3682,265.216 96.3682,264.383 93.5,263C 89.6335,260.567 85.6335,258.4 81.5,256.5C 81.1667,255.5 80.5,254.833 79.5,254.5 Z"/></g>
<g><path style="opacity:0.016" fill="#282d26" d="M 102.5,265.5 C 103.167,265.5 103.833,265.5 104.5,265.5C 104.5,266.167 104.833,266.5 105.5,266.5C 105.5,266.833 105.5,267.167 105.5,267.5C 103.821,267.715 102.821,267.048 102.5,265.5 Z"/></g>
<g><path style="opacity:0.486" fill="#94b07d" d="M 105.5,267.5 C 105.5,267.167 105.5,266.833 105.5,266.5C 110.029,267.306 114.363,268.639 118.5,270.5C 118.5,270.833 118.5,271.167 118.5,271.5C 114.167,270.167 109.833,268.833 105.5,267.5 Z"/></g>
<g><path style="opacity:0.663" fill="#a7d285" d="M 118.5,271.5 C 118.5,271.167 118.5,270.833 118.5,270.5C 121.85,270.335 125.183,270.502 128.5,271C 129.416,271.278 130.082,271.778 130.5,272.5C 133.833,273.167 137.167,273.833 140.5,274.5C 138.5,274.5 136.5,274.5 134.5,274.5C 132.833,274.5 131.167,274.5 129.5,274.5C 128.448,272.744 126.781,272.077 124.5,272.5C 122.5,272.167 120.5,271.833 118.5,271.5 Z"/></g>
<g><path style="opacity:0.005" fill="#171c15" d="M 124.5,272.5 C 126.781,272.077 128.448,272.744 129.5,274.5C 127.473,274.662 125.473,274.495 123.5,274C 124.056,273.617 124.389,273.117 124.5,272.5 Z"/></g>
<g><path style="opacity:0.969" fill="#6dc307" d="M 551.5,272.5 C 550.448,274.256 548.781,274.923 546.5,274.5C 412.332,274.833 278.332,274.5 144.5,273.5C 279.35,272.825 414.35,272.158 549.5,271.5C 549.333,225.832 549.5,180.165 550,134.5C 550.167,180.668 550.667,226.668 551.5,272.5 Z"/></g>
<g><path style="opacity:0.251" fill="#33432d" d="M 134.5,274.5 C 136.5,274.5 138.5,274.5 140.5,274.5C 141.791,274.263 142.791,274.596 143.5,275.5C 143.5,275.833 143.5,276.167 143.5,276.5C 140.15,276.665 136.817,276.498 133.5,276C 134.056,275.617 134.389,275.117 134.5,274.5 Z"/></g>
<g><path style="opacity:0.694" fill="#adec6a" d="M 130.5,272.5 C 135.23,272.283 139.897,272.617 144.5,273.5C 278.332,274.5 412.332,274.833 546.5,274.5C 412.334,275.5 278.001,275.833 143.5,275.5C 142.791,274.596 141.791,274.263 140.5,274.5C 137.167,273.833 133.833,273.167 130.5,272.5 Z"/></g>
<g><path style="opacity:0.353" fill="#b6cea9" d="M 551.5,272.5 C 552.167,272.5 552.833,272.5 553.5,272.5C 553.5,273.5 553.5,274.5 553.5,275.5C 551.821,275.892 550.154,276.392 548.5,277C 416.626,277.495 284.96,277.662 153.5,277.5C 150.375,276.521 147.042,276.187 143.5,276.5C 143.5,276.167 143.5,275.833 143.5,275.5C 278.001,275.833 412.334,275.5 546.5,274.5C 548.781,274.923 550.448,274.256 551.5,272.5 Z"/></g>
<g><path style="opacity:0.029" fill="#212121" d="M 553.5,275.5 C 553.196,276.15 552.863,276.817 552.5,277.5C 417.474,278.828 284.474,278.828 153.5,277.5C 284.96,277.662 416.626,277.495 548.5,277C 550.154,276.392 551.821,275.892 553.5,275.5 Z"/></g>
<g><path style="opacity:0.004" fill="#000000" d="M 553.5,278.5 C 554.833,279.167 554.833,279.167 553.5,278.5 Z"/></g>
</svg>
