<svg fill="#ffffff" viewBox="0 0 141.7 141.7" xmlns="http://www.w3.org/2000/svg">
  <path d="M95.4 28.5c1.7.7.3 8.3-3.2 17.1-3.4 8.7-7.7 15.3-9.4 14.6s-.3-8.3 3.2-17.1 7.7-15.3 9.4-14.6M73.9 26.6c1.9-.4 4 6.6 4.8 15.7.8 9 0 16.7-2 17.1-1.9.4-4-6.6-4.8-15.7-.8-9 0-16.7 2-17.1M53.4 37.4c1.5-1.4 6.7 3.2 11.5 10.1 4.8 7 7.5 13.7 6 15.1s-6.7-3.2-11.5-10.1c-4.8-7-7.5-13.7-6-15.1M39.4 57.3c.8-2 7.6-1.2 15.2 1.9 7.6 3 13.1 7 12.3 9s-7.6 1.1-15.2-1.9-13.1-7-12.3-9M35.8 81.3c-.2-2.1 6.4-5.1 14.7-6.9 8.3-1.7 15.2-1.5 15.4.5.2 2.1-6.4 5.1-14.7 6.9-8.3 1.7-15.2 1.5-15.4-.5M43.4 103.1c-1.1-1.6 3.5-7.7 10.3-13.8 6.8-6 13.2-9.7 14.3-8.1S64.5 88.9 57.7 95c-6.8 6-13.2 9.7-14.3 8.1M60.5 116.2c-1.7-.7-.3-8.3 3.2-17.1 3.4-8.7 7.7-15.3 9.4-14.6s.3 8.3-3.2 17.1c-3.5 8.7-7.7 15.3-9.4 14.6"/>
  <path d="M95.7 76.5c-1.1.7-2.5 1.1-3.8 1.1-3.1 0-3.8-1.9-3.5-4.1.4-2.5 2.2-4.5 5.5-4.5s2.5.3 3.1.9zm10.2-18.8h-6.8l-1.5 8.1c-1.3-.5-2.8-.9-4.5-.9-6.5 0-11.1 4.1-11.9 9.1-.7 3.9 1.7 8.1 7.9 8.1 2.3 0 4.4-.8 6-1.7l-.2 1.2h6.7l4.4-23.9Z"/>
</svg>
