<svg xmlns="http://www.w3.org/2000/svg" xml:space="preserve" style="fill-rule:evenodd;clip-rule:evenodd" viewBox="0 0 24 24"><path d="M.87.08h2.3c1.03 0 1.96.43 1.96 1.59 0 1.25-1.22 1.93-2.35 1.93H.06S.87.09.87.08Zm1.98 2.74c.59 0 1.29-.43 1.29-1.08 0-.55-.44-.89-.97-.89H1.71l-.45 1.96h1.59v.01ZM11.95 1.33c-.08-.02-.3-.07-.3-.19 0-.33.87-.33 1.09-.33.51 0 1.22.1 1.66.36l.6-.58c-.61-.41-1.41-.55-2.14-.55-.79 0-2.21.14-2.21 1.2 0 1.21 3 .72 3 1.28 0 .34-.76.36-.99.36-.76 0-1.27-.14-1.89-.59-.2.19-.41.38-.61.57.79.58 1.54.78 2.51.78.73 0 2.01-.28 2.01-1.22 0-1.08-2.01-.92-2.71-1.1h-.02v.01ZM9.18 2.35h-.02c-.09.08-.75.6-1.49.52-.53-.06-1.26-.43-1.26-.92 0-.8.85-1.12 1.53-1.12.45 0 .88.1 1.23.35.31-.11.63-.21.94-.32C9.59.3 8.82.07 8.06.07c-1.14 0-2.63.66-2.63 1.99 0 1.16 1.22 1.57 2.18 1.57.8 0 1.57-.23 2.17-.75 0 0-.6-.5-.61-.51h-.01l.02-.02Z" style="fill:#f59e0f;fill-rule:nonzero;stroke:#f59e0f;stroke-width:.09px" transform="translate(0 9.062) scale(1.59257)"/></svg>