<svg xmlns="http://www.w3.org/2000/svg" version="1.2" viewBox="0 0 1545 1333"><path d="M1354.4 1332.5c-105.1 0-190-84.8-190-189.6 0-104.9 84.9-189.6 190-189.6 105 0 189.9 84.7 189.9 189.6 0 104.8-84.9 189.6-189.9 189.6z" style="fill:#86bc24"/><path fill-rule="evenodd" d="M1089.4 628.2q0 328.2-176.7 505.8-176.8 177.6-497.1 177.6H.7V.5h443.9q308.8 0 476.8 161.4c112 107.6 168 263 168 466.3zm-359.7 12.5q0-180.1-69.7-267.2c-46.6-58-117.1-87-211.9-87H347.2V1021h77.2c105.3 0 182.5-31.2 231.6-93.8 49.1-62.4 73.7-157.9 73.7-286.5z" style="fill:#0f0b0b"/></svg>