<svg xmlns="http://www.w3.org/2000/svg" width="256" height="256"><path d="M224 8c-.619 9.67-2.292 19.13-3.972 28.658l-.922 5.291q-1.246 7.144-2.504 14.287l-1.572 8.946q-2.46 14.025-4.935 28.05a16286 16286 0 0 0-5.661 32.272 11916 11916 0 0 1-4.395 25.025q-1.319 7.454-2.615 14.912a3013 3013 0 0 1-2.472 14.031q-.453 2.56-.893 5.121c-3.557 20.69-10.695 38.973-28.286 51.75-9.94 6.797-20.185 11.71-32.443 11.834l-3.38.039-3.634.022-3.779.025q-3.963.021-7.925.032-4.026.014-8.05.062c-3.895.043-7.788.059-11.683.069l-3.578.053c-17.241-.044-32.268-6.26-44.5-18.362C42.035 225.056 38.91 219.267 36 213l-1.375-2.937c-8.245-21.528-2.25-51.57 6.848-72.012C52.983 115.06 71.683 97.549 96 89c10.453-3.18 20.413-4.153 31.281-4.098l3.194.005c3.342.005 6.683.018 10.025.03l6.828.014q8.336.017 16.672.049l.456-2.765A5148 5148 0 0 1 176 15q8.805-1.505 17.615-2.99 2.994-.507 5.988-1.02 4.311-.734 8.624-1.459l2.69-.464C215.333 8.331 219.503 7.82 224 8M90.125 142.813c-8.985 10.66-11.885 24.665-11.477 38.468C79.55 188.25 82.955 194.174 88 199c7.78 5.626 15.988 5.808 25.214 5.707 2.35-.02 4.693.02 7.042.064 7.436.046 13.762-.18 19.998-4.701 5.69-6.744 6.89-14.473 8.324-22.925l.656-3.697q.679-3.85 1.34-7.703c.676-3.932 1.37-7.861 2.067-11.79l1.312-7.498.625-3.558.568-3.318.501-2.908c.342-2.593.418-5.06.353-7.673q-8.242-.112-16.486-.165-2.798-.022-5.594-.061c-17.177-.235-31.31.9-43.795 14.039" fill="#FF444F"/></svg>
