<svg xmlns="http://www.w3.org/2000/svg" viewBox="0 0 24 24">
  <g fill="#000000">
    <path d="M 0.3644,9.0268 c 1.7216,-6.4253 8.326,-10.2383 14.7513,-8.5167 4.1564,1.1137 7.403,4.3603 8.5167,8.5167 0,0 -1.1826,-1.1786 -1.939,-1.1786 -0.7564,0 -1.939,1.1786 -1.939,1.1786 0,0 -1.1826,-1.1786 -1.939,-1.1786 -0.7564,0 -1.939,1.1786 -1.939,1.1786 0,0 -1.1826,-1.1786 -1.939,-1.1786 -0.7564,0 -1.939,1.1786 -1.939,1.1786 0,0 -1.1826,-1.1786 -1.939,-1.1786 -0.7564,0 -1.939,1.1786 -1.939,1.1786 0,0 -1.1826,-1.1786 -1.939,-1.1786 -0.7564,0 -1.939,1.1786 -1.939,1.1786 0,0 -1.1826,-1.1786 -1.939,-1.1786 -0.7564,0 -1.939,1.1786 -1.939,1.1786 Z"/>
    <path d="M 11.667,8.7693 v 11.9972 c 0,1.8125 1.0627,3.136 2.3731,3.136 1.3104,0 2.3726,-1.3255 2.3726,-3.138 0,0 -0.209,-0.1991 -0.3411,-0.2016 -0.1246,-0.0024 -0.3288,0.1779 -0.3288,0.1779 0,1.3007 -0.7623,2.5238 -1.7027,2.5238 -0.9404,0 -1.7027,-1.2231 -1.7027,-2.5238 l -0.0001,-11.9715 Z"/>
  </g>
</svg>