<svg viewBox="0 0 673.3 531.7" xmlns="http://www.w3.org/2000/svg" fill="none">
<path d="M220.8,440.5h89.4L220,531.7h-89.4L220.8,440.5z M9.9,531.7h89.4l90.3-91.2h-89.4L9.9,531.7z M420.4,440.5H331l90.3,91.2
	h89.4L420.4,440.5z M541,440.5h-89.4l90.3,91.2h89.4L541,440.5z M673.3,75.5C660.6,261.4,521,424.2,313.8,424.1
	C79.5,424-11.1,220.6,1.1,66.5l68.8-21.9c-11.2,87.7,16,151,34.8,180C82.3,100.5,176.2,0.1,293.6,0c105.6-0.1,193,76.9,192.6,187.4
	c15.5-42.2,26.3-106.4,28.5-151.3L673.3,75.5z M420.9,191.3c0-70-56.8-126.7-127-126.7c-70.1,0-126.9,56.7-126.9,126.7
	S223.8,318,293.9,318C364.1,318,420.9,261.3,420.9,191.3L420.9,191.3z" fill="black"/>
</svg>