<svg xmlns="http://www.w3.org/2000/svg" viewBox="0 0 841.9 595.3">
  <defs>
    <linearGradient id="a" x1="211.4" x2="135.9" y1="202.6" y2="385.9" data-name="Adsız degrade 2" gradientTransform="matrix(1 0 0 -1 0 596.7)" gradientUnits="userSpaceOnUse">
      <stop offset="0" stop-color="#138c61"/>
      <stop offset="1" stop-color="#4dba93"/>
    </linearGradient>
  </defs>
  <path d="M171.7 403.9c58.7 0 106.3-47.4 106.3-106s-47.6-106-106.3-106-106.3 47.4-106.3 106 47.6 106 106.3 106" style="fill:url(#a)"/>
  <path d="m220 392.4-83.7-64.6 11.8-29.9-20-27.2 8.2-24.5h84.5l57.3 51.9c-.1 41.1-23.7 76.7-58.1 94.2Z" style="fill:#17875f;fill-rule:evenodd"/>
  <path d="M228.9 261.1h-24.3v95.5c-4 0-7.9-.8-11.7-2.3-3.8-1.4-5.8-3-5.8-4.9v-20.7c-8.1 5.1-17 7.7-26.5 7.7s-17.3-2.4-23.4-7.3c-5.9-5-8.9-11.4-8.9-19.3s2.1-11.4 6.3-16.2c-5.9-2.2-10.6-5.4-14.1-9.7-3.5-4.4-5.2-9.6-5.2-15.7s2.4-11.5 7.3-16.5q7.5-7.5 20.4-7.5c12.9 0 11.1 1.4 14.5 4.2 3.5 2.8 5.2 6.2 5.2 10.3 0 8.2-5.4 14-16.1 17.4-1.7-1.4-3-3.4-3.8-5.9q7.2-4.65 7.2-9.9c0-5.25-.6-3.5-1.7-4.7-1.2-1.3-3-1.9-5.6-1.9s-5.1 1.4-7.5 4.2-3.7 6.4-3.7 11 1.2 8.1 3.7 11.1c2.6 2.9 5.8 4.9 9.6 6.1 5.1-2.6 10.9-4.5 17.3-5.7 4.4 4.2 7.2 8.5 8.4 13q-10.8 2.1-18.3 6.6c-4.9 2.9-7.3 6.3-7.3 10.1s1.3 6.7 3.8 9c2.7 2.3 6.5 3.5 11.3 3.5s9.9-1.4 14.8-4.2 9-6.4 12.4-11v-46.3h-12c-4.2-4.9-6.3-10-6.3-15.5h54.6c3.6 4.6 5.4 9.8 5.4 15.5" style="fill:#fff"/>
  <path d="M441 227.4v135.9h-25.6v-13.9c-3.8 6-8 10.3-12.8 13s-10.8 4.1-17.9 4.1c-11.8 0-21.7-4.7-29.7-14.2s-12-21.8-12-36.6 3.9-30.7 11.8-40.5 18.5-14.8 31.8-14.8 11.5 1.4 16.2 4.1c4.7 2.6 8.6 6.3 11.5 11.1v-48H441Zm-70.9 86.2c0 9.3 1.8 16.7 5.5 22.2 3.6 5.6 9.2 8.4 16.6 8.4s13.1-2.8 17-8.3 5.8-12.7 5.8-21.5-3.1-21.1-9.3-26.4c-3.8-3.2-8.2-4.8-13.3-4.8-7.7 0-13.4 2.9-17 8.8q-5.4 8.7-5.4 21.6Zm185.8-9.4v59.1H529v-61.2c0-5.4-.9-9.8-2.8-13.1-2.4-4.7-7-7-13.7-7s-12.2 2.3-15.9 7q-5.4 6.9-5.4 19.8v54.5H465V227.7h26.2v48.1c3.8-5.8 8.2-9.9 13.2-12.2s10.3-3.5 15.9-3.5 11.8 1.1 16.9 3.2c5.1 2.2 9.3 5.4 12.6 9.9 2.8 3.8 4.5 7.6 5.1 11.6.6 3.9.9 10.4.9 19.4Zm28.5-30.7c7-8.9 18.9-13.3 35.8-13.3s20.8 2.2 29.4 6.6 12.8 12.6 12.8 24.7v46.2c0 3.2 0 7.1.2 11.6.2 3.4.7 5.8 1.6 7q1.35 1.8 3.9 3v3.9h-28.6c-.8-2-1.4-3.9-1.7-5.7s-.6-3.8-.7-6.1c-3.6 3.9-7.8 7.3-12.6 10.1-5.7 3.3-12.1 4.9-19.2 4.9s-16.6-2.6-22.6-7.8c-5.9-5.2-8.9-12.6-8.9-22.2s4.8-21.3 14.3-26.9c5.2-3 12.9-5.2 23.1-6.5l9-1.1c4.9-.6 8.3-1.4 10.4-2.3 3.8-1.6 5.6-4.1 5.6-7.5s-1.4-7-4.3-8.5q-4.2-2.4-12.6-2.4c-8.4 0-10.6 1.5-13.2 4.6-1.8 2.3-3.1 5.4-3.7 9.2H577c.6-8.8 3-16 7.4-21.7Zm19.5 70.7q3.75 3 9 3c5.7 0 10.9-1.7 15.6-5 4.8-3.3 7.3-9.4 7.5-18.2v-9.8c-1.7 1-3.4 1.9-5.1 2.6q-2.55.9-6.9 1.8l-5.9 1.1c-5.5 1-9.5 2.2-11.9 3.6-4.1 2.4-6.1 6.1-6.1 11.2s1.3 7.7 3.8 9.7m129.3-62.1c-8.9 0-15 3.8-18.4 11.4-1.7 4-2.6 9.1-2.6 15.3v54.5H686V262.9h25.4v14.7c3.4-5.2 6.6-8.9 9.6-11.2 5.4-4.1 12.3-6.1 20.6-6.1s18.9 2.7 25.5 8.2c6.6 5.4 10 14.4 10 27v67.8h-27v-61.2c0-5.3-.7-9.4-2.1-12.2-2.6-5.2-7.5-7.8-14.8-7.8" style="fill:#269970"/>
</svg>
