<svg height="2500" viewBox="0 25.815 499.972 449.259" width="2500" xmlns="http://www.w3.org/2000/svg"><g fill="none" fill-rule="evenodd"><path d="m499.97 200.125c0 17.654-2.11 38.261-6.33 61.798-27.415 142.091-109.22 213.15-245.42 213.15h-90.31l.229-1.026 20.89-97.983h63.507c73.799 0 118.486-41.826 134.083-125.487a213.164 213.164 0 0 0 2.705-16.222l118.383-68.106c1.493 10.73 2.265 22.016 2.265 33.876m-42.912-123.566-106.19 61.083c-14.801-9.827-34.991-14.752-60.53-14.752h-171.362l.515-2.462 20.264-94.613h177.797c24.847 0 47.274 2.822 67.356 8.489 26.677 7.546 49.133 20.036 67.436 37.507 1.624 1.567 3.169 3.13 4.713 4.748" fill="#6e45b7"/><path d="m287.37 207.209-15.732 98.021h-73.554l-35.965 168.821-.234 1.023h-161.885l60.781-81.812 39.883-186.053z" fill="#00d8cd"/></g></svg>