<svg xmlns="http://www.w3.org/2000/svg" viewBox="0 0 24 24"><path d="M11.992 0C5.482 0 0 5.278 0 11.791V24l11.99-.012c6.51 0 11.79-5.481 11.79-11.991C23.78 5.486 18.495 0 11.992 0"/><path fill="#fff9ae" d="M12.108 4.564c-4.009.002-7.306 3.301-7.306 7.31 0 1.215.302 2.411.881 3.479L4.36 19.607l4.749-1.072a7.312 7.312 0 0 0 3.002.645c4.009 0 7.308-3.299 7.308-7.308 0-4.008-3.297-7.306-7.305-7.308z"/><path fill="#00aeef" d="M17.822 16.395a7.307 7.307 0 0 1-8.713 2.128L4.36 19.61l4.834-.571a7.306 7.306 0 0 0 8.712-11.613 7.306 7.306 0 0 1-.084 8.969"/><path fill="#00a94f" d="M17.413 15.006a7.307 7.307 0 0 1-8.443 3.027L4.36 19.61l4.749-1.075A7.306 7.306 0 0 0 16.56 6.078a7.305 7.305 0 0 1 .853 8.928"/><path fill="#f15d22" d="M6.12 15.515a7.308 7.308 0 0 1 11.79-8.091 7.308 7.308 0 0 0-12.227 7.929L4.36 19.607z"/><path fill="#d0232b" d="M5.683 15.353A7.308 7.308 0 0 1 16.56 6.078 7.308 7.308 0 0 0 5.232 15.24l-.869 4.37z"/></svg>