<svg xmlns="http://www.w3.org/2000/svg" xml:space="preserve" width="500" height="500"><rect width="500" height="500" ry="64" style="opacity:1;fill:#082a83;fill-opacity:1;stroke-width:59.78;stroke-linecap:round;stroke-linejoin:round;stroke-miterlimit:13.8"/><path d="M126.848 104.86h-52.7v277.874h63.439a127.46 127.46 0 0 0 90.285-37.913 145.22 145.22 0 0 0 41.795-101.931c-.331-75.995-64.513-138.03-142.82-138.03m64.099 194.033a90.86 90.86 0 0 1-57.822 24.781h-1.898V163.427c14.453 1.898 79.131 14.453 80.453 78.883a75.75 75.75 0 0 1-20.733 56.583M348.47 105.109h-55.84v277.625h144.39v-59.308h-88.552V105.109Z" style="opacity:1;fill:#fff;stroke-width:.999998"/></svg>