<svg xmlns="http://www.w3.org/2000/svg" xmlns:xlink="http://www.w3.org/1999/xlink" viewBox="0 0 2000 1948.02"><defs><style>.cls-1,.cls-2{opacity:0.25;isolation:isolate;}.cls-1{fill:url(#linear-gradient);}.cls-2{fill:url(#linear-gradient-2);}.cls-3{fill:url(#linear-gradient-3);}.cls-4{fill:url(#linear-gradient-4);}</style><linearGradient id="linear-gradient" x1="83.62" y1="947.07" x2="878.54" y2="947.07" gradientTransform="matrix(1, 0, 0, -1, 0, 1923)" gradientUnits="userSpaceOnUse"><stop offset="0" stop-color="#00ba96"/><stop offset="0.52" stop-color="#00d9af"/><stop offset="1" stop-color="#00d9af"/></linearGradient><linearGradient id="linear-gradient-2" x1="1144.49" y1="948.99" x2="2001.4" y2="948.99" gradientTransform="matrix(1, 0, 0, -1, 0, 1923)" gradientUnits="userSpaceOnUse"><stop offset="0" stop-color="#008d85"/><stop offset="1" stop-color="#00ffe0"/></linearGradient><linearGradient id="linear-gradient-3" x1="250.91" y1="949" x2="1904.03" y2="949" gradientTransform="matrix(1, 0, 0, -1, 0, 1923)" gradientUnits="userSpaceOnUse"><stop offset="0" stop-color="#008d94"/><stop offset="1" stop-color="#00ffe0"/></linearGradient><linearGradient id="linear-gradient-4" y1="947.06" x2="794.89" y2="947.06" gradientTransform="matrix(1, 0, 0, -1, 0, 1923)" gradientUnits="userSpaceOnUse"><stop offset="0" stop-color="#00ba96"/><stop offset="0.52" stop-color="#00d9af"/><stop offset="1" stop-color="#00faaf"/></linearGradient></defs><title>dmt</title><g id="Layer_2" data-name="Layer 2"><g id="Layer_1-2" data-name="Layer 1"><path class="cls-1" d="M857,890.24,625.08,489,389.28,83.76a168.38,168.38,0,0,0-54.57-56.49h-1.95a148.49,148.49,0,0,0-56.52,58.44L100.85,389.6a138.94,138.94,0,0,0,0,140.26L311.32,894.13c15.59,25.32,21.44,54.54,21.44,83.76h0a178.34,178.34,0,0,1-21.44,83.76L102.8,1422a138.94,138.94,0,0,0,0,140.26l175.39,303.89c13.64,23.38,33.13,44.8,56.52,58.44h2c23.39-13.64,40.93-33.12,54.57-56.49l233.86-405.18L857,1057.76A171,171,0,0,0,857,890.24Z"/><path class="cls-2" d="M1975.62,878.55,1741.76,475.31,1502.06,60.39a171.53,171.53,0,0,0-42.87-48.7C1449.44,3.9,1439.69,0,1428,0c-122.78,0-206.58,3.9-268.94,3.9-9.74,0-15.59,11.69-13.64,21.43l60.41,339c0,3.9,0,7.79-1.95,11.69-23.39,42.86-21.44,95.45,3.9,138.31l214.37,374c15.59,27.27,23.39,56.49,23.39,85.71s-7.8,58.44-23.39,85.71l-216.32,374c-25.33,42.86-25.33,95.45-3.9,138.31,2,3.9,2,7.79,2,11.69l-60.41,337c-2,9.74,3.9,21.43,13.64,21.43,56.52,0-23.39,5.84,276.73,5.84,5.85,0,13.64-2,19.49-3.9,21.44-7.79,35.08-33.12,46.77-54.54l239.71-416.87,231.91-403.24c37-58.47,37-130.53,3.9-190.92"/><path class="cls-3" d="M1880.13,890.24,1414.36,83.76C1385.13,33.12,1330.56,0,1270.15,0H338.61c-31.18,0-60.41,9.74-87.7,25.32v1.95a168.38,168.38,0,0,1,54.57,56.49L539.34,489c21.44-9.74,46.77-15.58,70.16-15.58H995.36c60.41,0,115,31.17,144.21,83.76L1332.5,890.24c29.23,50.65,29.23,114.93,0,167.53l-192.93,333.11c-29.23,50.65-85.75,83.76-144.21,83.76H611.44a168.21,168.21,0,0,1-70.16-15.58L307.43,1864.24a168.38,168.38,0,0,1-54.57,56.49v2c25.33,15.58,56.52,25.32,87.7,25.32H1274c60.41,0,115-31.17,144.21-83.76L1884,1057.76c27.31-52.59,27.31-114.93-3.87-167.52"/><path class="cls-4" d="M771.25,890.24,539.34,489,305.48,83.76a168.38,168.38,0,0,0-54.57-56.49H249a148.49,148.49,0,0,0-56.52,58.44L19,387.65a138.94,138.94,0,0,0,0,140.26L229.47,892.18c15.59,25.32,21.44,54.54,21.44,83.76h0a178.34,178.34,0,0,1-21.44,83.76L19,1422a138.94,138.94,0,0,0,0,140.26l175.4,303.92c13.64,23.38,33.13,44.8,56.52,58.44h2c23.39-13.64,40.93-33.12,54.57-56.49L541.3,1463l231.9-401.29C802.43,1005.17,802.43,942.83,771.25,890.24Z"/></g></g></svg>