<svg xmlns="http://www.w3.org/2000/svg" viewBox="0 0 24 24"><g stroke-width=".047"><path fill="#aa968c" d="M23.625 11.625c0 6.006-5.205 11.25-11.625 11.25S.375 17.631.375 11.625 5.58 1.125 12 1.125s11.625 4.494 11.625 10.5z"/><path fill="#aa968c" d="M12 1.125C5.58 1.125.375 5.619.375 11.625c0 1.155.194 2.28.55 3.347a6.546 6.546 0 0 0 5.263 2.653A6.558 6.558 0 0 0 12 14.103a6.558 6.558 0 0 0 5.813 3.522 6.546 6.546 0 0 0 5.262-2.653c.356-1.067.55-2.192.55-3.347 0-6.006-5.205-10.5-11.625-10.5z"/><path fill="#c8af9b" d="M18.375 16.5A6.375 6.375 0 0 1 12 22.875 6.375 6.375 0 0 1 5.625 16.5 6.375 6.375 0 0 1 12 10.125a6.375 6.375 0 0 1 6.375 6.375z"/></g><g fill="#464655" stroke-width=".047"><path d="M7.5 9.563a1.313 1.313 0 0 1-1.313 1.312 1.313 1.313 0 0 1-1.312-1.313A1.313 1.313 0 0 1 6.188 8.25 1.313 1.313 0 0 1 7.5 9.563zM19.125 9.563a1.313 1.313 0 0 1-1.313 1.312A1.313 1.313 0 0 1 16.5 9.562a1.313 1.313 0 0 1 1.313-1.312 1.313 1.313 0 0 1 1.312 1.313zM12.654 13.337c-.36.503-.948.503-1.308 0l-.567-.794c-.36-.504-.148-.916.471-.916h1.5c.619 0 .83.412.471.916z"/></g><path fill="#aa968c" d="M16.451 18.75c-1.61 0-2.435-2.25-4.457-2.25s-2.848 2.25-4.457 2.25c-.722 0-1.363-.274-1.883-1.181.514 3.01 3.153 5.306 6.34 5.306s5.826-2.295 6.34-5.306c-.52.907-1.16 1.181-1.883 1.181z"/><g fill="#8c7873" stroke-width=".047"><path d="M1.5 19.875a.375.375 0 0 1-.14-.723l7.501-3a.375.375 0 1 1 .278.697l-7.5 3a.375.375 0 0 1-.139.026zM.75 17.625a.375.375 0 0 1-.096-.738l7.125-1.875a.375.375 0 1 1 .192.726L.846 17.613a.377.377 0 0 1-.096.012zM.375 15.75a.375.375 0 0 1-.065-.744l6.375-1.125a.375.375 0 0 1 .13.738L.44 15.744a.385.385 0 0 1-.065.006zM22.5 19.875a.375.375 0 0 0 .14-.723l-7.501-3a.375.375 0 0 0-.278.697l7.5 3a.375.375 0 0 0 .139.026zM23.25 17.625a.375.375 0 0 0 .095-.738l-7.125-1.875a.375.375 0 1 0-.19.726l7.124 1.875a.378.378 0 0 0 .096.012zM23.625 15.75a.375.375 0 0 0 .065-.744l-6.375-1.125a.375.375 0 0 0-.13.738l6.374 1.125a.386.386 0 0 0 .066.006z"/></g></svg>