<svg xmlns="http://www.w3.org/2000/svg" xml:space="preserve" viewBox="18.5 18.2 162.9 163.7"><path fill="#FFF" d="m71 70.9 49.6-49.6c3.7-3.7 7.9-4.4 12.4 0l46.1 46.1c3.3 3.3 3 8.3 0 11.3L78.8 178.9c-3.6 3.6-8.3 4.2-12.5 0l-45.1-45.1c-3.6-3.6-3.3-9.3 0-12.6L71 70.9z"/><path fill="#006491" d="m71.8 76 51.9 51.9-47.2 47.2c-2.9 2.9-5.9 3-8.9 0l-43.2-43.2c-2.7-2.7-2.5-5.7 0-8.2L71.8 76z"/><path fill="#E31837" d="M127 124.8 75.1 72.9l47.2-47.2c2.9-2.9 5.9-3 8.9 0l43.2 43.2c2.7 2.7 2.5 5.7 0 8.2L127 124.8z"/><circle cx="126.7" cy="73" r="12.8" fill="#FFF"/><circle cx="90.8" cy="127.9" r="12.8" fill="#FFF"/><circle cx="53.4" cy="127.9" r="12.8" fill="#FFF"/></svg>