<svg fill="none" height="800" viewBox="0 0 800 800" width="800" xmlns="http://www.w3.org/2000/svg" xmlns:xlink="http://www.w3.org/1999/xlink"><radialGradient id="a" cx="0" cy="0" gradientTransform="matrix(-423.0004 -300.00003 172.7003 -243.50762 861 448)" gradientUnits="userSpaceOnUse" r="1"><stop offset="0" stop-color="#ea5926"/><stop offset="1" stop-color="#ea5a25" stop-opacity="0"/></radialGradient><radialGradient id="b" cx="0" cy="0" gradientTransform="matrix(-318.99928 -110.0022 110.0022 -318.99928 800 736)" gradientUnits="userSpaceOnUse" r="1"><stop offset="0" stop-color="#ea5a25"/><stop offset="1" stop-color="#ed5a21" stop-opacity="0"/></radialGradient><linearGradient id="c" gradientUnits="userSpaceOnUse" x1="505" x2="1.46826" y1="-305" y2="800.669"><stop offset="0" stop-color="#ff9efa"/><stop offset=".426562" stop-color="#ac50f7"/><stop offset=".646435" stop-color="#6b13f5"/></linearGradient><clipPath id="d"><path d="m0 0h500v500h-500z" transform="translate(150 150)"/></clipPath><rect fill="url(#c)" height="800" rx="400" width="800"/><rect fill="url(#a)" height="800" rx="400" width="800"/><rect fill="url(#b)" height="800" rx="400" width="800"/><g clip-path="url(#d)" fill="#fff"><path d="m467.396 151.3c-21.021-5.632-42.449 7.589-46.843 28.903l-19.94 96.716c-13.025 63.174-62.376 112.549-125.545 125.603l-94.873 19.607c-21.312 4.405-34.527 25.833-28.894 46.854 5.633 21.023 27.796 32.974 48.456 26.128l92.327-30.593c61.386-20.341 128.989-2.227 171.981 46.082l64.666 72.664c14.467 16.255 39.63 16.987 55.017 1.6 15.39-15.389 14.655-40.558-1.607-55.023l-73.135-65.056c-48.44-43.09-66.604-110.866-46.202-172.405l30.71-92.633c6.847-20.655-5.099-42.815-26.118-48.447z"/><path d="m216.103 272.283c-17.191-15.554-17.86-42.331-1.467-58.723 16.393-16.393 43.169-15.724 58.723 1.467l48.898 54.045c13.189 14.578 12.631 36.937-1.27 50.838s-36.261 14.46-50.839 1.271zm380.232 29.881c22.065-7.11 45.589 5.698 51.589 28.091s-7.967 45.248-30.632 50.122l-71.253 15.325c-19.22 4.133-38.305-7.53-43.393-26.52-5.088-18.989 5.608-38.632 24.32-44.662zm-217.826 315.811c-4.875 22.664-27.73 36.632-50.122 30.632-22.393-6-35.202-29.524-28.091-51.589l22.355-69.37c6.03-18.711 25.673-29.407 44.663-24.319 18.989 5.088 30.653 24.173 26.519 43.392z"/></g></svg>