<svg xmlns="http://www.w3.org/2000/svg" xml:space="preserve" viewBox="0 0 160.5 160.5"><path d="M145.794 113.854c-11.111 5.932-23.811 9.227-37.417 9.008-40.366-.879-72.114-32.293-71.434-70.515.227-12.961 4.309-25.042 11.112-35.148-21.543 11.642-36.284 33.39-36.737 58.652-.907 38.002 31.068 69.636 71.208 70.515 26.758.439 50.116-12.522 63.268-32.512z"/><path fill="#0073EC" d="M86.833 14.123c-10.885 0-21.09 2.636-30.161 7.469a61.036 61.036 0 0 0-9.297 29.875c-.68 33.171 27.212 60.63 61.909 61.289 10.432 0 22.224-2.417 31.294-7.249 5.443-9.007 8.617-19.551 8.617-30.754.453-33.391-27.665-60.63-62.362-60.63z"/></svg>