<svg xmlns="http://www.w3.org/2000/svg" xml:space="preserve" id="Layer_1" x="0" y="0" style="enable-background:new 0 0 516.2 100" version="1.1" viewBox="0 0 516.2 100"><style>.st0{fill:#ef6a00}</style><path d="M36.3 2.1H15.4C6.5 2.1 0 8.6 0 17.5v65.1C0 91.5 6.5 98 15.4 98h20.9C66.1 97.9 87 78.2 87 50S66.1 2.1 36.3 2.1zm1 70.4H26.6v-45h10.7c13.6 0 23.1 9.2 23.1 22.5s-9.5 22.5-23.1 22.5zM176.6 13.6C176.6 5.7 171 0 163.3 0 155.6 0 150 5.8 150 13.6v44.7c0 8.6-6.5 15.4-14.8 15.4s-14.8-6.8-14.8-15.4V13.6c0-7.9-5.6-13.6-13.3-13.6-7.7 0-13.3 5.7-13.3 13.6v45.9c0 23.9 17 40.5 41.4 40.5s41.4-16.7 41.4-40.5V13.6zM352.7 75.2l-22.6-25.6 21.1-24.7c3.1-3.6 4.7-7.2 4.7-10.5 0-8-6.2-14.4-14-14.4-4 0-7.7 2.2-11.4 6.7l-23.8 31.9v-25c0-8.1-5.4-13.6-13.3-13.6-8 0-13.3 5.5-13.3 13.6v72.8c0 8.1 5.4 13.6 13.3 13.6 8 0 13.3-5.5 13.3-13.6V61.2l25.6 32.5c3.7 4.5 6.9 6.3 10.9 6.3 7.9 0 13.6-6 13.6-14.4 0-3.7-1.5-7.5-4.1-10.4zM390.2 13.6c0-8.1-5.4-13.6-13.3-13.6-8 0-13.3 5.5-13.3 13.6v72.8c0 8.1 5.4 13.6 13.3 13.6 8 0 13.3-5.5 13.3-13.6V13.6z" class="st0"/><path d="M516.1 14.4c.9-7.4-4.6-12-10.2-12.7-4.7-.6-8.2.9-10.6 4.2-1.8 2.5-2.9 6.2-3.6 12.1-.7 6.1-.6 10.2.2 12.9 1.2 3.6 4 5.8 7.8 6.3 7.2.8 10.7-5 14.8-16.8.8-2.5 1.5-4.8 1.6-6z" style="fill:#c63663"/><path d="M212.8 49.2v37.2c0 8.1-5.4 13.6-13.3 13.6-8 0-13.3-5.5-13.3-13.6V13.6c0-8.1 5.4-13.6 13.3-13.6 3.8 0 7.3 1.4 9.4 3.5 2 2.1 35.5 47.3 35.5 47.3V13.6c0-8.1 5.4-13.6 13.3-13.6 8 0 13.3 5.5 13.3 13.6v72.8c0 8.1-5.4 13.6-13.3 13.6-3.8 0-7.3-1.4-9.4-3.5-2.2-2.1-35.5-47.3-35.5-47.3zM426.1 49.2v37.2c0 8.1-5.4 13.6-13.3 13.6-8 0-13.3-5.5-13.3-13.6V13.6c0-8.1 5.4-13.6 13.3-13.6 3.8 0 7.3 1.4 9.4 3.5 2 2.1 35.5 47.3 35.5 47.3V13.6C457.7 5.5 463 0 471 0s13.3 5.5 13.3 13.6v72.8c0 8.1-5.4 13.6-13.3 13.6-3.8 0-7.3-1.4-9.4-3.5-2.1-2.1-35.5-47.3-35.5-47.3zM498.4 90.1h-2.2c-.4 0-.7.3-.7.7v5.3c0 .4.3.7.7.7.4 0 .7-.3.7-.7v-1.7h.9l1.6 2.2c.1.2.4.3.6.3.4 0 .7-.3.7-.7 0-.2-.1-.3-.3-.6l-1-1.4.3-.2c.5-.4.8-1 .8-1.7 0-1.3-.9-2.2-2.1-2.2zm-.6 3.3h-1v-2.3h1c.7 0 1.2.5 1.2 1.1s-.4 1.2-1.2 1.2z" class="st0"/><path d="M497.8 86.9c-3.7 0-6.7 2.9-6.7 6.5s3 6.5 6.7 6.5 6.7-2.9 6.7-6.5c.1-3.5-2.9-6.5-6.7-6.5zm0 11.9c-3 0-5.4-2.4-5.4-5.4 0-3 2.4-5.4 5.4-5.4 3 0 5.4 2.4 5.4 5.4 0 3-2.4 5.4-5.4 5.4z" class="st0"/></svg>