<svg xmlns="http://www.w3.org/2000/svg" viewBox="0 0 24 24"><path fill="#fff" d="M100.786 20.043a19.828 19.828 0 0 0-2.108-8.845 20.159 20.159 0 0 0-5.853-7.028A20.571 20.571 0 0 0 84.424.4a20.738 20.738 0 0 0-9.23.257C53.647 6.228 34.584 18.663 20.981 36.021 7.378 53.378 0 74.679 0 96.598c0 21.919 7.378 43.22 20.982 60.578 13.603 17.357 32.666 29.792 54.211 35.363 3.02.782 6.183.871 9.244.262a20.575 20.575 0 0 0 8.412-3.779 20.158 20.158 0 0 0 5.855-7.042 19.828 19.828 0 0 0 2.096-8.862l-.014-153.075Zm8.414 169.88a19.8 19.8 0 0 0 2.096 8.861 20.148 20.148 0 0 0 5.855 7.042 20.566 20.566 0 0 0 8.412 3.776c3.06.609 6.222.518 9.242-.265 21.545-5.568 40.608-18.002 54.212-35.359C202.622 156.621 210 135.318 210 113.399c0-21.92-7.378-43.222-20.983-60.579-13.604-17.357-32.667-29.79-54.212-35.36a20.736 20.736 0 0 0-9.241-.26 20.571 20.571 0 0 0-8.411 3.776 20.16 20.16 0 0 0-5.855 7.04 19.836 19.836 0 0 0-2.098 8.859v153.048Z" style="mix-blend-mode:difference" transform="scale(.11429)"/></svg>