<svg xmlns="http://www.w3.org/2000/svg" viewBox="0 0 300 120.324"><path d="M38.866 26.308C17.721 26.308.1 35.28.1 62.345c0 21.442 11.849 34.944 39.312 34.944 32.327 0 34.399-21.294 34.399-21.294H58.147s-3.358 11.466-19.69 11.466c-13.302 0-22.87-8.986-22.87-21.58H75.45v-7.904c0-12.46-7.91-31.669-36.583-31.669zM38.32 36.41c12.663 0 21.295 7.758 21.295 19.384h-43.68c0-12.343 11.266-19.384 22.385-19.384z" style="fill:#e53238;fill-opacity:1;stroke:none"/><path d="M75.438.1v83.597c0 4.745-.339 11.408-.339 11.408h14.94s.536-4.785.536-9.159c0 0 7.381 11.548 27.451 11.548 21.135 0 35.49-14.673 35.49-35.695 0-19.557-13.186-35.286-35.456-35.286-20.854 0-27.334 11.262-27.334 11.262V.1zm38.766 36.753c14.352 0 23.478 10.652 23.478 24.946 0 15.328-10.54 25.355-23.375 25.355-15.318 0-23.581-11.96-23.581-25.219 0-12.354 7.414-25.082 23.478-25.082z" style="fill:#0064d2;fill-opacity:1;stroke:none"/><path d="M190.645 26.308c-31.812 0-33.852 17.42-33.852 20.203h15.834s.83-10.17 16.926-10.17c10.46 0 18.564 4.788 18.564 13.992v3.276h-18.564c-24.645 0-37.674 7.21-37.674 21.84 0 14.398 12.038 22.233 28.307 22.233 22.171 0 29.313-12.251 29.313-12.251 0 4.872.376 9.674.376 9.674h14.076s-.546-5.952-.546-9.76V52.431c0-21.58-17.407-26.123-32.76-26.123zm17.472 37.129v4.368c0 5.697-3.515 19.86-24.212 19.86-11.333 0-16.192-5.655-16.192-12.216 0-11.935 16.364-12.012 40.404-12.012z" style="fill:#f5af02;fill-opacity:1;stroke:none"/><path d="M214.879 29.041h17.813l25.565 51.218 25.507-51.218H299.9l-46.46 91.183h-16.925l13.406-25.418z" style="fill:#86b817;fill-opacity:1;stroke:none"/></svg>