<svg xmlns="http://www.w3.org/2000/svg" xml:space="preserve" viewBox="0 0 176 176"><g transform="translate(8 8)"><circle cx="80" cy="80" r="88" fill="#19344c"/><path fill="#fff" d="m32.2 92.35 5.8.6c-.8 2.9-2.7 5.6-5.7 8.2s-6.6 3.9-10.7 3.9c-2.6 0-5-.6-7.1-1.8-2.2-1.3-3.9-3-5-5.3s-1.7-4.9-1.7-7.9c0-3.8.9-7.5 2.6-11.1 1.8-3.6 4-6.3 6.9-8 2.8-1.8 5.8-2.6 9.1-2.6 4.2 0 7.5 1.3 10 3.9s3.7 6.1 3.7 10.6c0 1.7-.2 3.5-.5 5.3H13.9c-.1.6-.1 1.2-.1 1.8 0 3.3.7 5.8 2.3 7.5 1.5 1.7 3.3 2.6 5.5 2.6 2 0 4-.7 6-2 1.9-1.3 3.5-3.2 4.6-5.7m-17.4-8.8h19.6v-1.3c0-3-.7-5.3-2.2-6.9s-3.4-2.4-5.8-2.4c-2.5 0-4.9.9-7 2.7-2 1.6-3.5 4.3-4.6 7.9m62.6 3.6 6.4.7c-2 5.6-5 9.9-8.8 12.8-3.9 2.9-8.2 4.3-13 4.3-5.9 0-10.5-1.8-13.9-5.4s-5.1-8.7-5.1-15.4q0-13.05 7.8-21.6c4.7-5.1 10.4-7.6 17.3-7.6 5.1 0 9.2 1.4 12.4 4.1 3.2 2.8 5 6.5 5.5 11.1l-6 .6c-.7-3.5-2-6.1-4-7.8s-4.6-2.6-7.7-2.6c-5.9 0-10.7 2.6-14.3 7.9-3.2 4.5-4.7 9.9-4.7 16.1 0 5 1.2 8.7 3.7 11.4 2.4 2.6 5.6 3.9 9.5 3.9 3.3 0 6.4-1.1 9-3.2 2.7-2.3 4.7-5.3 5.9-9.3m12.5 17-3-48.4h6.6l1 24c.1 1.1.2 4.2.4 9.3.1 1.4.1 2.4.1 3 0 .4 0 1.5.1 3.3 2.7-5.5 4.6-9.3 5.8-11.5l14.7-27.9h6.6l1.5 28.3c.2 3.2.3 7.1.5 11.7.4-1.1 1.1-2.8 2.1-5 1.6-3.6 2.8-6.1 3.6-7.7l13.7-27.4h6.6l-24.6 48.4h-6.9l-1.5-29.3c-.2-2.5-.4-5.6-.5-9.4-1.4 3.1-2.5 5.5-3.4 7.3l-16.6 31.4h-6.8z"/></g></svg>