<svg xmlns="http://www.w3.org/2000/svg" id="svg4575" class="o-icon o-icon--logo" preserveAspectRatio="xMidYMid meet" version="1.1" viewBox="0 0 1000 196.721"><defs id="defs4579"><clipPath id="clipPath4959" clipPathUnits="userSpaceOnUse"><path id="path4957" d="M288.661 0h120.945v90.708H288.661Z"/></clipPath><clipPath id="clipPath4947" clipPathUnits="userSpaceOnUse"><path id="path4945" d="M304.78 27.566h88.707v35.576H304.78Z"/></clipPath><clipPath id="clipPath4927" clipPathUnits="userSpaceOnUse"><path id="path4925" d="M304.78 27.566h88.707v35.576H304.78Z"/></clipPath><clipPath id="clipPath16191" clipPathUnits="userSpaceOnUse"><path id="path16189" d="M393.951 734.87h143.753v37.583H393.951Z"/></clipPath><clipPath id="clipPath16167" clipPathUnits="userSpaceOnUse"><path id="path16165" d="M357.165 716.457h217.323v74.409H357.165Z"/></clipPath></defs><style id="style4856"></style><g id="g16372" style="fill:#686058;fill-opacity:1" transform="scale(8.19672)"><path id="path16361" d="M9.838 5.834c2.773 0 4.863.701 6.27 2.104 1.407 1.403 2.11 3.497 2.11 6.282v1.575H1.852c.04 2.2.597 3.82 1.67 4.86 1.073 1.04 2.712 1.559 4.92 1.559h1.335c1.64 0 2.955-.252 3.947-.757s1.68-1.252 2.065-2.24h1.943c-.405 1.554-1.275 2.74-2.611 3.557C13.785 23.59 12.024 24 9.838 24H8.38c-2.773 0-4.863-.701-6.27-2.104C.703 20.493 0 18.399 0 15.613V14.22c0-2.785.703-4.879 2.11-6.282 1.407-1.403 3.497-2.104 6.27-2.104Zm20.741 0c2.47 0 4.403.56 5.8 1.68 1.396 1.12 2.226 2.79 2.49 5.01h-1.853c-.263-1.674-.926-2.91-1.989-3.708-1.062-.797-2.565-1.196-4.509-1.196h-1.336c-2.247 0-3.907.545-4.98 1.635-1.072 1.09-1.609 2.776-1.609 5.056v1.211c0 2.282.537 3.967 1.61 5.057 1.072 1.09 2.732 1.635 4.98 1.635h1.335c1.944 0 3.447-.399 4.51-1.196 1.062-.797 1.725-2.034 1.988-3.71h1.852c-.263 2.221-1.093 3.891-2.49 5.012-1.396 1.12-3.33 1.68-5.799 1.68h-1.457c-2.774 0-4.864-.701-6.27-2.104-1.408-1.403-2.11-3.497-2.11-6.283V14.22c0-2.785.702-4.879 2.11-6.282 1.406-1.403 3.496-2.104 6.27-2.104zm20.51 0c2.773 0 4.863.701 6.27 2.104 1.407 1.403 2.11 3.497 2.11 6.282v1.393c0 2.786-.703 4.88-2.11 6.283C55.953 23.299 53.863 24 51.09 24h-1.457c-2.774 0-4.864-.701-6.27-2.104-1.407-1.403-2.11-3.497-2.11-6.283V14.22c0-2.785.703-4.879 2.11-6.282 1.406-1.403 3.496-2.104 6.27-2.104h1.457ZM64.137 0v8.62c.627-.929 1.482-1.625 2.565-2.09 1.083-.464 2.404-.696 3.962-.696h1.458c2.773 0 4.863.701 6.27 2.104 1.407 1.403 2.11 3.497 2.11 6.282v1.393c0 2.786-.703 4.88-2.11 6.283C76.985 23.299 74.895 24 72.122 24h-1.458c-2.773 0-4.863-.701-6.27-2.104-1.407-1.403-2.11-3.497-2.11-6.283V0Zm28.741 5.834c2.773 0 4.863.701 6.27 2.104 1.407 1.403 2.11 3.497 2.11 6.282v1.575H84.894c.04 2.2.596 3.82 1.67 4.86 1.072 1.04 2.712 1.559 4.919 1.559h1.336c1.64 0 2.955-.252 3.947-.757s1.68-1.252 2.065-2.24h1.943c-.405 1.554-1.275 2.74-2.611 3.557C96.826 23.59 95.064 24 92.878 24h-1.457c-2.774 0-4.864-.701-6.27-2.104-1.407-1.403-2.11-3.497-2.11-6.283V14.22c0-2.785.703-4.879 2.11-6.282 1.406-1.403 3.496-2.104 6.27-2.104zm20.742 0c2.772 0 4.863.701 6.27 2.104 1.406 1.403 2.11 3.497 2.11 6.282v1.575h-16.366c.04 2.2.597 3.82 1.67 4.86 1.073 1.04 2.712 1.559 4.919 1.559h1.336c1.64 0 2.955-.252 3.947-.757s1.68-1.252 2.065-2.24h1.943c-.405 1.554-1.275 2.74-2.611 3.557-1.336.817-3.097 1.226-5.283 1.226h-1.458c-2.774 0-4.863-.701-6.27-2.104-1.407-1.403-2.11-3.497-2.11-6.283V14.22c0-2.785.703-4.879 2.11-6.282 1.407-1.403 3.496-2.104 6.27-2.104zM51.029 7.62h-1.336c-2.247 0-3.907.545-4.98 1.635-1.073 1.09-1.61 2.776-1.61 5.056v1.211c0 2.282.537 3.967 1.61 5.057 1.073 1.09 2.733 1.635 4.98 1.635h1.336c2.246 0 3.906-.545 4.98-1.635 1.072-1.09 1.608-2.775 1.608-5.057v-1.21c0-2.281-.536-3.967-1.609-5.057-1.073-1.09-2.733-1.635-4.98-1.635Zm21.032 0h-1.336c-2.246 0-3.907.545-4.98 1.635-1.072 1.09-1.608 2.776-1.608 5.056v1.211c0 2.282.536 3.967 1.609 5.057 1.072 1.09 2.733 1.635 4.98 1.635h1.335c2.247 0 3.907-.545 4.98-1.635 1.073-1.09 1.61-2.775 1.61-5.057v-1.21c0-2.281-.537-3.967-1.61-5.057-1.073-1.09-2.733-1.635-4.98-1.635Zm-62.284 0H8.441c-2.207 0-3.846.52-4.919 1.56-1.073 1.04-1.63 2.649-1.67 4.829h14.514c-.04-2.18-.597-3.79-1.67-4.83C13.623 8.14 11.983 7.62 9.777 7.62Zm83.04 0h-1.335c-2.207 0-3.847.52-4.92 1.56s-1.629 2.649-1.67 4.829h14.514c-.04-2.18-.597-3.79-1.67-4.83-1.073-1.039-2.712-1.559-4.918-1.559Zm20.742 0h-1.336c-2.207 0-3.846.52-4.92 1.56-1.072 1.04-1.629 2.649-1.669 4.829h14.514c-.041-2.18-.597-3.79-1.67-4.83-1.073-1.039-2.713-1.559-4.92-1.559z" style="fill-rule:evenodd;fill:#686058;fill-opacity:1"/></g></svg>