<svg xmlns:dc="http://purl.org/dc/elements/1.1/" xmlns:cc="http://creativecommons.org/ns#" xmlns:rdf="http://www.w3.org/1999/02/22-rdf-syntax-ns#" xmlns:svg="http://www.w3.org/2000/svg" xmlns="http://www.w3.org/2000/svg" xmlns:xlink="http://www.w3.org/1999/xlink" xmlns:sodipodi="http://sodipodi.sourceforge.net/DTD/sodipodi-0.dtd" xmlns:inkscape="http://www.inkscape.org/namespaces/inkscape" version="1.1" id="svg2" inkscape:version="1.0.2-2 (e86c870879, 2021-01-15)" sodipodi:docname="electrum_lightblue.svg" inkscape:export-filename="/home/voegtlin/logos/electrum_blue.png" inkscape:export-xdpi="10.014582" inkscape:export-ydpi="10.014582" viewBox="5 -31.55 769.81 842.91">
  <metadata id="metadata53">
    <rdf:RDF>
      <cc:Work rdf:about="">
        <dc:format>image/svg+xml</dc:format>
        <dc:type rdf:resource="http://purl.org/dc/dcmitype/StillImage"/>
        <dc:title/>
      </cc:Work>
    </rdf:RDF>
  </metadata>
  <sodipodi:namedview pagecolor="#ffffff" bordercolor="#666666" borderopacity="1" objecttolerance="10" gridtolerance="10" guidetolerance="10" inkscape:pageopacity="0" inkscape:pageshadow="2" inkscape:window-width="1920" inkscape:window-height="1027" id="namedview51" showgrid="false" showguides="true" inkscape:guide-bbox="true" inkscape:zoom="0.1767767" inkscape:cx="637.59035" inkscape:cy="804.37887" inkscape:window-x="-8" inkscape:window-y="-8" inkscape:window-maximized="1" inkscape:current-layer="svg2" inkscape:showpageshadow="false" showborder="false" inkscape:document-rotation="0" fit-margin-top="43.37159" fit-margin-left="5" fit-margin-right="5" fit-margin-bottom="43.37159"/>
  <defs id="defs4">
    <linearGradient id="linearGradient3987">
      <stop style="stop-color:#41b3ec;stop-opacity:1;" offset="0" id="stop4032"/>
      <stop style="stop-color:#0581c4;stop-opacity:1;" offset="1" id="stop3991"/>
    </linearGradient>
    <linearGradient inkscape:collect="always" xlink:href="#linearGradient3987" id="linearGradient3996" x1="11.848" y1="179.9725" x2="263.60077" y2="179.9725" gradientUnits="userSpaceOnUse" gradientTransform="translate(8.6924921,11.686933)"/>
    <linearGradient inkscape:collect="always" xlink:href="#linearGradient3987" id="linearGradient4010" x1="11.348" y1="179.9725" x2="264.10077" y2="179.9725" gradientUnits="userSpaceOnUse" gradientTransform="translate(8.6924921,11.686933)"/>
    <linearGradient inkscape:collect="always" xlink:href="#linearGradient3987" id="linearGradient4012" gradientUnits="userSpaceOnUse" x1="254.73778" y1="334.82437" x2="9.1209993" y2="-4.0966849" gradientTransform="translate(8.6924921,11.686933)"/>
    <linearGradient inkscape:collect="always" xlink:href="#linearGradient3987" id="linearGradient4014" gradientUnits="userSpaceOnUse" x1="254.73778" y1="334.82437" x2="9.1209993" y2="-4.0966849" gradientTransform="translate(8.6924921,11.686933)"/>
    <radialGradient inkscape:collect="always" xlink:href="#linearGradient3987" id="radialGradient3786" cx="523.18433" cy="732.08508" fx="523.18433" fy="732.08508" r="146.04732" gradientTransform="matrix(-0.89061708,0.86297075,-0.78291311,-0.80799475,1427.0215,361.93369)" gradientUnits="userSpaceOnUse"/>
    <radialGradient inkscape:collect="always" xlink:href="#linearGradient3987" id="radialGradient3796" cx="529.57996" cy="728.15845" fx="529.57996" fy="728.15845" r="146.04732" gradientTransform="matrix(-0.87083717,0.55292729,-0.71897156,-1.1320773,466.9435,499.54917)" gradientUnits="userSpaceOnUse"/>
    <radialGradient inkscape:collect="always" xlink:href="#linearGradient3987" id="radialGradient3800" cx="505.65533" cy="726.3916" fx="505.65533" fy="726.3916" r="146.04732" gradientTransform="matrix(-0.94821917,1.3404019,-1.4302101,-1.0037148,1646.3219,-657.0863)" gradientUnits="userSpaceOnUse"/>
  </defs>
  <ellipse style="fill:none;fill-opacity:0;stroke:url(#radialGradient3786);stroke-width:37.5001;stroke-miterlimit:4;stroke-dasharray:none;stroke-opacity:1;marker-start:none" id="path3803" inkscape:export-filename="/home/voegtlin/logos/electrum_light.png" inkscape:export-xdpi="15.13" inkscape:export-ydpi="15.13" cx="389.90555" cy="389.90555" rx="366.15549" ry="173.5993"/>
  <ellipse transform="matrix(-0.50141536,-0.8652067,0.86684024,-0.498586,0,0)" id="path4023" style="fill:none;fill-opacity:0;stroke:url(#radialGradient3796);stroke-width:37.5002;stroke-miterlimit:4;stroke-dasharray:none;stroke-opacity:1;marker-start:none" inkscape:export-filename="/home/voegtlin/logos/electrum_light.png" inkscape:export-xdpi="15.13" inkscape:export-ydpi="15.13" cx="-532.39014" cy="141.84499" rx="365.12195" ry="174.09163"/>
  <ellipse style="fill:none;fill-opacity:0;stroke:url(#radialGradient3800);stroke-width:37.5002;stroke-miterlimit:4;stroke-dasharray:none;stroke-opacity:1;marker-start:none" id="path4029" transform="matrix(-0.50141531,0.86520673,-0.86684024,-0.498586,0,0)" inkscape:export-filename="/home/voegtlin/logos/electrum_light.png" inkscape:export-xdpi="15.13" inkscape:export-ydpi="15.13" cx="143.58514" cy="-532.85632" rx="365.12195" ry="174.09163"/>
  <g id="g5" transform="matrix(0.69025084,0,0,0.68452521,303.02483,261.95235)" style="fill:url(#linearGradient4010);fill-opacity:1;stroke:url(#linearGradient3996)" inkscape:export-filename="/home/voegtlin/logos/electrum_light.png" inkscape:export-xdpi="15.13" inkscape:export-ydpi="15.13">
    <path id="path7" d="m 217.021,167.042 c 18.631,-9.483 30.288,-26.184 27.565,-54.007 C 240.919,75.012 208.06,62.262 166.58,58.631 L 166.572,5.89 h -32.139 l -0.009,51.354 c -8.456,0 -17.076,0.166 -25.657,0.338 L 108.76,5.897 76.65,5.894 76.644,58.622 c -6.959,0.142 -13.793,0.277 -20.466,0.277 v -0.156 l -44.33,-0.018 0.006,34.282 c 0,0 23.734,-0.446 23.343,-0.013 13.013,0.009 17.262,7.559 18.484,14.076 l 0.01,60.083 v 84.397 c -0.573,4.09 -2.984,10.625 -12.083,10.637 0.414,0.364 -23.379,-0.004 -23.379,-0.004 l -6.375,38.335 h 41.817 c 7.792,0.009 15.448,0.13 22.959,0.19 l 0.028,53.338 32.102,0.009 -0.009,-52.779 c 8.832,0.18 17.357,0.258 25.684,0.247 l -0.009,52.532 h 32.138 l 0.018,-53.249 c 54.022,-3.1 91.842,-16.697 96.544,-67.385 3.79,-40.809 -15.434,-59.025 -46.105,-66.379 z M 109.535,95.321 c 18.126,0 75.132,-5.767 75.14,32.064 -0.008,36.269 -56.996,32.032 -75.14,32.032 V 95.321 Z m -0.014,167.126 0.014,-70.672 c 21.778,-0.006 90.085,-6.261 90.094,35.32 0.009,39.876 -68.316,35.336 -90.108,35.352 z" inkscape:connector-curvature="0" style="fill:url(#linearGradient4012);fill-opacity:1;stroke:url(#linearGradient4014)"/>
  </g>
</svg>