<?xml version="1.0" encoding="UTF-8"?>
<svg version="1.1" xmlns="http://www.w3.org/2000/svg" width="121" height="111">
<path d="M0 0 C39.93 0 79.86 0 121 0 C121 36.63 121 73.26 121 111 C81.07 111 41.14 111 0 111 C0 74.37 0 37.74 0 0 Z " fill="#FDFDFC" transform="translate(0,0)"/>
<path d="M0 0 C1.34094727 -0.00483398 1.34094727 -0.00483398 2.70898438 -0.00976562 C15.92329958 0.09656756 29.05768111 5.15920937 38.69921875 14.3671875 C46.33623486 22.91378081 51.45414229 32.03867724 53.4375 43.3125 C55.4175 42.9825 57.3975 42.6525 59.4375 42.3125 C56.40996635 50.06943534 46.82853593 55.97682128 39.5 59.3125 C37.82136046 60.00117263 36.13406518 60.66925254 34.4375 61.3125 C33.5609375 61.67085937 32.684375 62.02921875 31.78125 62.3984375 C20.17960201 66.92308022 6.59150797 64.44771949 -4.48828125 59.66015625 C-6.56191878 58.74121933 -8.62982096 57.81032187 -10.69677734 56.87646484 C-21.71786864 51.93615813 -31.96757967 49.00024219 -43.6875 53.25 C-49.85297476 56.02724089 -53.58090596 59.9493408 -57.5625 65.3125 C-58.41134766 66.43978516 -58.41134766 66.43978516 -59.27734375 67.58984375 C-59.70144531 68.15832031 -60.12554687 68.72679688 -60.5625 69.3125 C-60.21265815 63.71503042 -56.42242893 59.17242893 -52.5625 55.3125 C-52.45417831 53.23031638 -52.37676459 51.14650871 -52.3125 49.0625 C-51.32728272 34.37380601 -44.38377625 22.27099897 -33.859375 12.1953125 C-23.67156706 3.84408218 -13.05318857 -0.23629958 0 0 Z " fill="#7D9C07" transform="translate(60.5625,2.6875)"/>
<path d="M0 0 C39.93 0 79.86 0 121 0 C121 15.18 121 30.36 121 46 C118.69 46 116.38 46 114 46 C113.72027344 45.10539062 113.44054687 44.21078125 113.15234375 43.2890625 C110.46208014 35.17501984 107.34684612 28.77440212 102 22 C101.401875 21.113125 100.80375 20.22625 100.1875 19.3125 C91.26978576 9.88520209 79.12630771 4.33913818 66.27734375 3.7265625 C48.74009638 3.25612695 36.53738751 7.13555151 23.3125 19.1875 C14.84180419 28.0987521 10.10977052 38.99431955 9.6875 51.125 C9.34944073 57.79987234 7.81473954 60.61643116 3 65 C2.01 66.32 1.02 67.64 0 69 C0 46.23 0 23.46 0 0 Z " fill="#FDFEFC" transform="translate(0,0)"/>
<path d="M0 0 C7.7514671 5.16764473 13.82626339 13.90836132 16.703125 22.71875 C16.703125 24.03875 16.703125 25.35875 16.703125 26.71875 C11.46215703 26.16706916 7.64974874 24.39540175 3.078125 21.96875 C-14.90773287 12.27142089 -14.90773287 12.27142089 -34.734375 12.4375 C-39.88111467 14.59356662 -45.70693353 17.53886707 -48.296875 22.71875 C-47.08 22.615625 -45.863125 22.5125 -44.609375 22.40625 C-34.14474874 22.43895196 -24.29281839 28.5635433 -15.1953125 33.265625 C-10.48229066 35.6284877 -6.28828923 36.00534278 -1.109375 36.28125 C0.01500977 36.34602539 0.01500977 36.34602539 1.16210938 36.41210938 C3.00890875 36.51797685 4.85599334 36.6188476 6.703125 36.71875 C3.65258646 39.76928854 0.59053342 39.47031177 -3.60205078 39.58984375 C-11.64954951 39.3417513 -18.79427187 36.1503666 -26.171875 33.21875 C-39.2911509 28.00909237 -50.24239432 25.58953741 -64.296875 28.71875 C-63.91593636 18.62387614 -58.87170481 10.32516481 -51.57421875 3.50390625 C-35.74413322 -8.9049258 -17.299832 -9.65024642 0 0 Z " fill="#FBFCF9" transform="translate(85.296875,20.28125)"/>
<path d="M0 0 C0.07476562 0.59425781 0.14953125 1.18851563 0.2265625 1.80078125 C1.89490592 12.31788733 7.03959282 21.85443765 15 29 C18.20627298 31.27541953 21.4909817 33.22982559 25 35 C26.60294922 35.81017578 26.60294922 35.81017578 28.23828125 36.63671875 C32.50890201 38.42008659 36.60502154 38.5364421 41.1875 38.5 C42.02394043 38.49427979 42.86038086 38.48855957 43.72216797 38.48266602 C54.81538411 38.16495288 64.10602396 33.8155071 72 26 C76.47244994 20.53700746 79.32082187 14.4918547 82 8 C85.96 8 89.92 8 94 8 C91.39683113 21.53647814 84.16445962 32.6524866 73.296875 41.1015625 C60.88291389 49.43665068 45.9146679 53.47483724 31.00488281 50.61767578 C22.25796227 48.44289499 14.98853845 44.65676037 8 39 C6.948125 38.236875 5.89625 37.47375 4.8125 36.6875 C-1.36142088 30.78797561 -5.25051243 24.03047722 -8.4375 16.1875 C-8.69660156 15.55344238 -8.95570312 14.91938477 -9.22265625 14.26611328 C-10.58441341 10.72610583 -11.29621798 7.7930351 -11 4 C-4.5 0 -4.5 0 0 0 Z " fill="#7D9C08" transform="translate(20,59)"/>
<path d="M0 0 C2.01050607 0.26263368 4.00961749 0.61336248 6 1 C8.78756093 1.25820896 11.57995448 1.40834288 14.375 1.5625 C15.11105469 1.60568359 15.84710938 1.64886719 16.60546875 1.69335938 C18.40348068 1.79843799 20.20171958 1.89962093 22 2 C19.47636907 4.52363093 17.87673704 4.2605272 14.4296875 4.2734375 C13.71039063 4.26570313 12.99109375 4.25796875 12.25 4.25 C11.54617187 4.25773437 10.84234375 4.26546875 10.1171875 4.2734375 C5.70222524 4.257025 2.15942781 3.64807517 -2 2 C-1.34 1.34 -0.68 0.68 0 0 Z " fill="#DFE7C3" transform="translate(70,55)"/>
<path d="M0 0 C0.99 0.33 1.98 0.66 3 1 C2.60167969 1.45890625 2.20335937 1.9178125 1.79296875 2.390625 C-0.91142062 5.52271585 -3.57991771 8.63877459 -6 12 C-5.54300722 6.97307937 -3.00758252 3.85103739 0 0 Z " fill="#9DB444" transform="translate(6,60)"/>
<path d="M0 0 C0 0.66 0 1.32 0 2 C0.66 2.33 1.32 2.66 2 3 C-4.625 2.25 -4.625 2.25 -8 0 C-5.13822943 -1.43088528 -3.06624227 -0.59991697 0 0 Z " fill="#E9EED6" transform="translate(76,56)"/>
</svg>
