<svg xmlns="http://www.w3.org/2000/svg" viewBox="0 0 121 111"><path fill="#FDFDFC" d="M0 0h121v111H0V0Z"/><path fill="#7D9C07" d="m60.563 2.688 2.708-.01c13.215.106 26.35 5.169 35.99 14.377C106.9 25.6 112.018 34.726 114 46l6-1c-3.028 7.757-12.609 13.664-19.938 17A202.25 202.25 0 0 1 95 64l-2.656 1.086c-11.602 4.525-25.19 2.05-36.27-2.738a943.955 943.955 0 0 1-6.208-2.784c-11.021-4.94-21.271-7.876-32.991-3.627C10.71 58.715 6.982 62.638 3 68l-1.715 2.277L0 72c.35-5.597 4.14-10.14 8-14 .108-2.082.186-4.166.25-6.25.985-14.689 7.929-26.792 18.453-36.867C36.891 6.532 47.51 2.45 60.563 2.688Z"/><path fill="#FDFEFC" d="M0 0h121v46h-7l-.848-2.71C110.462 35.174 107.347 28.773 102 22l-1.813-2.688a49.916 49.916 0 0 0-33.91-15.585c-17.537-.47-29.74 3.409-42.965 15.46C14.842 28.1 10.11 38.995 9.688 51.126 9.35 57.8 7.816 60.616 3 65l-3 4V0Z"/><path fill="#FBFCF9" d="M85.297 20.281C93.048 25.45 99.123 34.19 102 43v4c-5.241-.552-9.053-2.323-13.625-4.75-17.986-9.697-17.986-9.697-37.813-9.531C45.416 34.875 39.59 37.82 37 43l3.688-.313c10.464.033 20.316 6.158 29.414 10.86 4.713 2.363 8.907 2.74 14.085 3.016l2.272.13c1.847.106 3.694.207 5.541.307-3.05 3.05-6.113 2.752-10.305 2.871-8.048-.248-15.192-3.44-22.57-6.371C46.005 48.29 35.055 45.87 21 49c.38-10.095 5.425-18.394 12.723-25.215 15.83-12.409 34.274-13.154 51.574-3.504Z"/><path fill="#7D9C08" d="m20 59 .227 1.8C21.895 71.319 27.04 80.855 35 88a77.076 77.076 0 0 0 10 6l3.238 1.637c4.27 1.783 8.367 1.9 12.95 1.863l2.534-.017C74.815 97.165 84.106 92.816 92 85c4.472-5.463 7.32-11.508 10-18h12c-2.603 13.536-9.836 24.652-20.703 33.102-12.414 8.335-27.382 12.373-42.292 9.516C42.258 107.443 34.989 103.657 28 98l-3.188-2.313c-6.173-5.899-10.063-12.657-13.25-20.5l-.785-1.92C9.416 69.726 8.704 66.792 9 63c6.5-4 6.5-4 11-4Z"/><path fill="#DFE7C3" d="M70 55a98.2 98.2 0 0 1 6 1c2.788.258 5.58.408 8.375.563l2.23.13c1.798.105 3.597.207 5.395.307-2.524 2.524-4.123 2.26-7.57 2.273l-2.18-.023-2.133.023C75.702 59.257 72.16 58.648 68 57l2-2Z"/><path fill="#9DB444" d="m6 60 3 1-1.207 1.39C5.089 65.524 2.42 68.64 0 72c.457-5.027 2.992-8.149 6-12Z"/><path fill="#E9EED6" d="M76 56v2l2 1c-6.625-.75-6.625-.75-10-3 2.862-1.43 4.934-.6 8 0Z"/></svg>