<svg xmlns="http://www.w3.org/2000/svg" viewBox="0 0 48 48"><path fill="#66bb6a" d="M11.622 31.768c.46.787-.09 1.951-1.229 2.6s-2.813 1.023-3.273.236c-.46-.787.469-2.436 1.607-3.086 1.139-.649 2.435-.537 2.895.25zM18.766 27.808c.115.812 1.256 1.326 2.549 1.148 1.293-.178 2.841-.851 2.726-1.663-.115-.812-1.85-1.457-3.142-1.279-1.293.178-2.248.982-2.133 1.794z"/><path fill="#aa2c2c" d="m38.352 14.876-.031-3.849L36 8s-1.355-1.052-1.589-1.197c-1.12-.693-2.797-1.453-3.463-.064-.364.759.694 2.314 1.053 3.074 1.571 3.325 1.03 4.822-.387 10.514l6.738-5.451z"/><path fill="#fb8c00" d="m8.277 15.795-3.124 2.422S4 18.668 4 22.786c0 2.343.867 4.499 2.434 4.183.856-.172 1.44-2.013 1.828-2.783 1.697-3.367 3.271-3.852 8.841-6.227l-8.826-2.164z"/><path fill="#43a047" d="m23.888 32.502 4.786 8.997s.96.758 4.539-1.295c2.037-1.169 3.484-2.983 2.438-4.163-.571-.644-2.457-.198-3.319-.172-4.919.148-8.444-3.367-8.444-3.367z"/><path fill="#ff1744" d="M42.266 21.316c.913-.806 1.803-1.836 1.73-2.356-.101-.721-1.156-.865-2.133-.775-.418-3.378-3.511-9.378-8.003-11.683 1.233 3.926.175 8.972-5.791 14.952l-.027.027c-2.091 2.075-2.671 5.223-1.299 7.845 2.05 3.92 6.758 4.705 9.863 2.354l.008-.008c.296-.253.593-.507.866-.784.094-.079.172-.158.258-.245a14.64 14.64 0 0 0 1.794-2.229c1.418-.78 3.332-2.199 3.332-2.864 0-.563-.716-.808-1.577-.869l.003-.01c1.288-.8 2.677-1.913 2.677-2.48 0-.591-.787-.83-1.701-.875z"/><path fill="#66bb6a" d="M14.786 23.021c3.086-.244 5.884 1.626 7.033 4.519.005.012 2.976 9.717 10.954 12.963-.809.511-1.675.943-2.594 1.308-8.356 3.319-17.821-.551-21.142-8.657a4.377 4.377 0 0 1-.132-.352c-.156-.38-.279-.773-.402-1.167l-.004-.011c-1.001-3.991 1.673-8.238 6.287-8.603z"/><path fill="#ffb74d" d="M26.375 8.221c.324-.298.526-.67.526-1.081 0-.356-.147-.686-.397-.962.241-.206.397-.476.397-.777 0-.282-.144-.53-.357-.731.048-.052.099-.092.144-.151.431-.564.526-1.208.212-1.438-.314-.23-.918.04-1.35.604-.148.193-.24.392-.306.584-.73.071-1.304.54-1.304 1.132 0 .021.014.038.015.058-.804.149-1.437.597-1.677 1.175C13.537 5.445 5.434 11.67 4.165 20.541c-.14.976-.194 1.94-.151 2.894 6.823-5.257 16.795-2.954 16.809-2.953 3.104.459 6.137-1.018 7.464-3.803 1.526-3.2.469-6.556-1.912-8.458z"/></svg>