<?xml version="1.0" encoding="UTF-8" standalone="no"?>
<!DOCTYPE svg PUBLIC "-//W3C//DTD SVG 1.1//EN" "http://www.w3.org/Graphics/SVG/1.1/DTD/svg11.dtd">
<svg width="100%" height="100%" viewBox="0 0 24 24" version="1.1" xmlns="http://www.w3.org/2000/svg" xmlns:xlink="http://www.w3.org/1999/xlink" xml:space="preserve" xmlns:serif="http://www.serif.com/" style="fill-rule:evenodd;clip-rule:evenodd;stroke-linejoin:round;stroke-miterlimit:2;">
    <g transform="matrix(0.179104,0,0,0.179104,0,9.49254)">
        <path d="M73.245,0C80.736,0 86.81,6.269 86.81,14.001C86.81,21.733 80.736,28 73.245,28C65.754,28 59.68,21.733 59.68,14.001C59.68,6.269 65.754,0 73.245,0ZM73.245,21.646C77.043,21.646 80.21,18.222 80.21,14.001C80.21,9.779 77.043,6.356 73.245,6.356C69.447,6.356 66.28,9.779 66.28,14.001C66.28,18.222 69.447,21.646 73.245,21.646ZM123.068,0C129.157,0 133.186,5.123 133.186,13.632L133.186,26.895C133.186,27.099 133.021,27.264 132.818,27.264L127.162,27.264C126.959,27.264 126.796,27.099 126.796,26.895L126.796,13.632C126.796,9.544 125.156,6.447 121.471,6.447C118.066,6.447 115.586,9.981 115.586,15.29L115.586,26.895C115.586,27.099 115.423,27.264 115.221,27.264L109.354,27.264C109.153,27.264 108.989,27.099 108.989,26.895L108.989,13.632C108.989,9.544 107.295,6.447 103.49,6.447C100.089,6.447 97.61,9.369 97.449,14.731L97.449,26.895C97.449,27.099 97.285,27.264 97.082,27.264L91.217,27.264C91.015,27.264 90.85,27.099 90.85,26.895L90.85,1.131C90.85,0.927 91.015,0.762 91.217,0.762L96.928,0.762C97.119,0.762 97.279,0.908 97.294,1.1L97.449,2.967C99.402,1.146 101.961,0 105.139,0C108.833,0 111.79,1.77 113.604,4.952C115.586,1.989 118.682,0 123.068,0ZM45.017,0C51.305,0 55.649,5.123 55.649,13.632L55.649,26.895C55.649,27.099 55.484,27.264 55.282,27.264L49.415,27.264C49.214,27.264 49.049,27.099 49.049,26.895L49.049,13.632C49.049,9.544 47.173,6.447 43.368,6.447C39.963,6.447 37.135,9.378 36.96,14.757L36.96,26.895C36.96,27.099 36.795,27.264 36.593,27.264L30.728,27.264C30.525,27.264 30.361,27.099 30.361,26.895L30.361,1.131C30.361,0.927 30.525,0.762 30.728,0.762L36.437,0.762C36.628,0.762 36.788,0.911 36.803,1.103L36.96,3.198C39.012,1.244 41.706,0 45.017,0Z" style="fill:rgb(73,72,77);"/>
    </g>
    <g transform="matrix(0.179104,0,0,0.179104,0,9.49254)">
        <path d="M20.839,19.015C20.692,18.893 20.475,18.904 20.343,19.044C18.914,20.561 16.549,21.737 13.931,21.737C12.409,21.737 10.811,21.341 9.727,20.497L26.082,8.544C26.223,8.442 26.273,8.255 26.201,8.096C25.081,5.635 21.335,0 13.931,0C6.237,0 0,6.267 0,13.999C0,21.655 6.237,28 13.931,28C18.277,28 22.676,26.073 25.218,23.135C25.351,22.981 25.328,22.745 25.171,22.615L20.839,19.015ZM13.931,6.263C15.451,6.263 16.982,6.635 18.073,7.56L6.478,16.025C5.159,11.239 9.116,6.263 13.931,6.263Z" style="fill:rgb(255,64,8);"/>
    </g>
</svg>
