<svg xmlns="http://www.w3.org/2000/svg" xml:space="preserve" style="fill-rule:evenodd;clip-rule:evenodd;stroke-linejoin:round;stroke-miterlimit:2" viewBox="0 0 24 24"><path d="M73.245 0C80.736 0 86.81 6.269 86.81 14.001 86.81 21.733 80.736 28 73.245 28S59.68 21.733 59.68 14.001 65.754 0 73.245 0Zm0 21.646c3.798 0 6.965-3.424 6.965-7.645 0-4.222-3.167-7.645-6.965-7.645s-6.965 3.423-6.965 7.645c0 4.221 3.167 7.645 6.965 7.645ZM123.068 0c6.089 0 10.118 5.123 10.118 13.632v13.263a.369.369 0 0 1-.368.369h-5.656a.367.367 0 0 1-.366-.369V13.632c0-4.088-1.64-7.185-5.325-7.185-3.405 0-5.885 3.534-5.885 8.843v11.605a.367.367 0 0 1-.365.369h-5.867a.367.367 0 0 1-.365-.369V13.632c0-4.088-1.694-7.185-5.499-7.185-3.401 0-5.88 2.922-6.041 8.284v12.164a.368.368 0 0 1-.367.369h-5.865a.368.368 0 0 1-.367-.369V1.131c0-.204.165-.369.367-.369h5.711c.191 0 .351.146.366.338l.155 1.867C99.402 1.146 101.961 0 105.139 0c3.694 0 6.651 1.77 8.465 4.952C115.586 1.989 118.682 0 123.068 0ZM45.017 0c6.288 0 10.632 5.123 10.632 13.632v13.263a.368.368 0 0 1-.367.369h-5.867a.368.368 0 0 1-.366-.369V13.632c0-4.088-1.876-7.185-5.681-7.185-3.405 0-6.233 2.931-6.408 8.31v12.138a.368.368 0 0 1-.367.369h-5.865a.368.368 0 0 1-.367-.369V1.131c0-.204.164-.369.367-.369h5.709a.37.37 0 0 1 .366.341l.157 2.095C39.012 1.244 41.706 0 45.017 0Z" style="fill:#49484d" transform="matrix(.1791 0 0 .1791 0 9.493)"/><path d="M20.839 19.015a.363.363 0 0 0-.496.029c-1.429 1.517-3.794 2.693-6.412 2.693-1.522 0-3.12-.396-4.204-1.24L26.082 8.544a.366.366 0 0 0 .119-.448C25.081 5.635 21.335 0 13.931 0 6.237 0 0 6.267 0 13.999 0 21.655 6.237 28 13.931 28c4.346 0 8.745-1.927 11.287-4.865a.367.367 0 0 0-.047-.52l-4.332-3.6ZM13.931 6.263c1.52 0 3.051.372 4.142 1.297L6.478 16.025c-1.319-4.786 2.638-9.762 7.453-9.762Z" style="fill:#ff4008" transform="matrix(.1791 0 0 .1791 0 9.493)"/></svg>