<svg xmlns="http://www.w3.org/2000/svg" fill="none" viewBox="0 0 8 8"><path fill="#000" d="M4.068 7.096c-.736 0-1.384-.144-1.944-.432A3.208 3.208 0 0 1 .84 5.488a3.257 3.257 0 0 1-.456-1.716c0-.648.148-1.22.444-1.716A3.176 3.176 0 0 1 2.064.88C2.584.592 3.172.448 3.828.448c.632 0 1.2.136 1.704.408.512.264.916.648 1.212 1.152.296.496.444 1.092.444 1.788 0 .072-.004.156-.012.252l-.024.252H1.908V3.208h4.26l-.72.324c0-.336-.068-.628-.204-.876a1.447 1.447 0 0 0-.564-.576 1.601 1.601 0 0 0-.84-.216c-.32 0-.604.072-.852.216-.24.136-.428.332-.564.588a1.82 1.82 0 0 0-.204.888v.288c0 .352.076.664.228.936.16.264.38.468.66.612.288.136.624.204 1.008.204.344 0 .644-.052.9-.156a2.19 2.19 0 0 0 .72-.468l.996 1.08a2.958 2.958 0 0 1-1.116.78c-.448.176-.964.264-1.548.264Z" style="fill:#000;fill-opacity:1"/></svg>