<svg width="8" height="8" viewBox="0 0 8 8" fill="none" xmlns="http://www.w3.org/2000/svg">
<path d="M4.06803 7.096C3.33203 7.096 2.68403 6.952 2.12403 6.664C1.57203 6.376 1.14403 5.984 0.840033 5.488C0.536033 4.984 0.384033 4.412 0.384033 3.772C0.384033 3.124 0.532033 2.552 0.828033 2.056C1.13203 1.552 1.54403 1.16 2.06403 0.879997C2.58403 0.591998 3.17203 0.447998 3.82803 0.447998C4.46003 0.447998 5.02803 0.583998 5.53203 0.855998C6.04403 1.12 6.44803 1.504 6.74403 2.008C7.04003 2.504 7.18803 3.1 7.18803 3.796C7.18803 3.868 7.18403 3.952 7.17603 4.048C7.16803 4.136 7.16003 4.22 7.15203 4.3H1.90803V3.208H6.16803L5.44803 3.532C5.44803 3.196 5.38003 2.904 5.24403 2.656C5.10803 2.408 4.92003 2.216 4.68003 2.08C4.44003 1.936 4.16003 1.864 3.84003 1.864C3.52003 1.864 3.23603 1.936 2.98803 2.08C2.74803 2.216 2.56003 2.412 2.42403 2.668C2.28803 2.916 2.22003 3.212 2.22003 3.556V3.844C2.22003 4.196 2.29603 4.508 2.44803 4.78C2.60803 5.044 2.82803 5.248 3.10803 5.392C3.39603 5.528 3.73203 5.596 4.11603 5.596C4.46003 5.596 4.76003 5.544 5.01603 5.44C5.28003 5.336 5.52003 5.18 5.73603 4.972L6.73203 6.052C6.43603 6.388 6.06403 6.648 5.61603 6.832C5.16803 7.008 4.65203 7.096 4.06803 7.096Z" fill="black" style="fill:black;fill:black;fill-opacity:1;"/>
</svg>
