<?xml version="1.0" standalone="no"?>
<!DOCTYPE svg PUBLIC "-//W3C//DTD SVG 20010904//EN"
 "http://www.w3.org/TR/2001/REC-SVG-20010904/DTD/svg10.dtd">
<svg version="1.0" xmlns="http://www.w3.org/2000/svg"
 width="384.000000pt" height="216.000000pt" viewBox="0 0 384.000000 216.000000"
 preserveAspectRatio="xMidYMid meet">

<g transform="translate(0.000000,216.000000) scale(0.100000,-0.100000)"
fill="#000000" stroke="none">
<path d="M2475 1798 c-8 -26 -35 -161 -35 -174 0 -12 28 -14 163 -12 l162 3
17 75 c29 132 43 120 -142 120 -120 0 -162 -3 -165 -12z"/>
<path d="M236 1733 c-5 -16 -216 -1061 -216 -1070 0 -2 248 -3 550 -3 l550 0
-5 -22 c-20 -86 -55 -260 -55 -273 0 -13 22 -15 162 -13 l162 3 39 185 c21
102 41 187 43 189 2 3 17 -7 32 -22 15 -14 50 -36 77 -49 67 -30 238 -37 339
-14 134 32 270 123 342 230 19 28 34 48 34 44 0 -3 -11 -58 -25 -122 -14 -64
-25 -120 -25 -126 0 -7 55 -10 162 -8 l163 3 31 145 c30 139 31 143 39 101 25
-143 122 -228 307 -267 106 -23 365 -14 468 16 156 45 281 141 348 268 l33 62
-174 0 -174 0 -24 -37 c-51 -79 -170 -121 -286 -103 -61 10 -94 29 -127 74
-17 22 -21 42 -21 99 0 62 5 82 33 139 56 115 139 162 287 162 99 1 140 -18
164 -75 l16 -39 169 0 169 0 -6 58 c-11 132 -93 213 -258 258 -92 26 -344 26
-454 1 -130 -31 -235 -85 -314 -164 -38 -37 -77 -86 -89 -108 -12 -22 -21 -38
-22 -35 0 3 13 68 30 145 16 77 30 142 30 145 0 3 -73 4 -162 3 l-163 -2 -17
-78 c-9 -43 -22 -105 -28 -138 l-12 -60 -18 58 c-47 151 -157 224 -355 234
-142 8 -265 -28 -353 -101 -16 -15 -32 -26 -35 -26 -3 0 -1 17 4 38 18 76 27
72 -145 72 -139 0 -155 -2 -160 -17 -3 -10 -30 -137 -61 -283 -30 -146 -57
-275 -60 -287 l-5 -23 -365 0 c-285 0 -365 3 -365 13 0 6 7 47 15 90 8 43 15
81 15 83 0 2 147 5 327 6 l328 3 22 100 c12 55 23 106 23 113 0 9 -70 12 -318
12 -175 0 -321 2 -324 5 -2 3 3 44 11 92 l16 88 373 3 c287 2 372 5 372 15 1
6 11 60 24 120 l24 107 -553 0 c-519 0 -554 -1 -559 -17z m1702 -457 c55 -29
74 -69 69 -152 -3 -54 -11 -83 -33 -123 -50 -93 -119 -130 -245 -131 -164 -1
-231 89 -183 249 20 70 92 143 160 165 63 20 186 16 232 -8z"/>
</g>
</svg>
