<svg height="988" viewBox="0 0 182 71.9" width="2500" xmlns="http://www.w3.org/2000/svg"><path d="m175 2.8v-.2c0-.1-.1-.1-.2-.2-.1 0-.2-.1-.2-.1h-.6v1h.6c.1 0 .2-.1.3-.1s.1-.1.1-.2zm1.6 2.6h-1.2l-1.1-1.3h-.3v1.3h-.9v-3.6h2c.2 0 .3.1.5.2s.3.2.4.3.1.3.1.5c0 .3-.1.5-.2.7s-.3.3-.6.4zm.8-1.7c0-.8-.3-1.5-.8-2-.6-.6-1.2-.9-2-.9s-1.5.3-2 .9c-.6.6-.8 1.2-.8 2s.3 1.5.8 2c.6.6 1.2.9 2 .9s1.5-.3 2-.9.8-1.2.8-2m.8 0c0 1-.4 1.9-1.1 2.6s-1.6 1.1-2.6 1.1-1.9-.4-2.6-1.1-1.1-1.6-1.1-2.6.4-1.9 1.1-2.6 1.6-1.1 2.6-1.1 1.9.4 2.6 1.1c.8.7 1.1 1.6 1.1 2.6m-153.1 0c-9 0-16.7 4.7-20.8 11.3-3.5 6.2-4.3 16.2-4.3 22.8s.8 16.7 4.3 22.8c4 6.6 11.7 11.3 20.8 11.3h131.8c9 0 16.7-4.7 20.8-11.3 3.5-6.1 4.3-16.2 4.3-22.8s-.8-16.7-4.3-22.8c-4-6.6-11.7-11.3-20.8-11.3h-131.8z" fill="#0094a1"/><path d="m112.8 34.1h11.1v-.3c0-5.1-2-5.4-5.7-5.4-4.5-.1-5.3 1.3-5.4 5.7m-77.9-5.5c3.6 0 5.6.4 5.6 5.3v.2h-10.9c.1-4.2 1-5.5 5.3-5.5m-15.4 9.4c0 11.9 3 16.2 15.6 16.2 4.7 0 8.5-.4 11.3-1.9 2.6-1.5 4.2-4.1 4.2-8.8h-9.9c-.1 3.4-2.4 3.8-5.6 3.8-4.6 0-5.5-1.9-5.5-7.6v-.2h21v-1.5c0-13-3.5-16.3-15.5-16.3-12.8 0-15.6 4-15.6 16.3m37.8-5.9c0 6.4 2.2 9.3 15.6 9.3 1.2 0 3.1-.1 4.2.4 1 .5 1.5 1.4 1.5 3 0 2.8-1 3.1-5.8 3.1-2.6 0-5.3-.1-5.5-3.6h-10c.1 7 3.4 9.3 9.6 9.8 1.9.1 3.9.1 6 .1 8.5 0 15.6-1.4 15.6-10.6 0-8.8-4.6-9.4-15.6-9.7-5.5-.1-5.8-1.3-5.8-3.1 0-2.1.2-2.8 5.8-2.8 2 0 4.1.2 4.5 2.7h9.5v-1.3c0-7.6-8-7.7-14-7.7-9.1 0-15.6.2-15.6 10.4m82.8-10.4h24.8v7.3h-7.4v24.9h-10.1v-24.9h-7.4v-7.3zm-37.2 16.1c0-12.3 2.7-16.2 15.5-16.2 11.9 0 15.4 3.2 15.4 16.2v1.4h-21v.3c0 5.7.9 7.7 5.6 7.7 3.1 0 5.5-.3 5.7-3.8h9.7c-.1 4.5-1.6 7.1-4.2 8.6-2.7 1.5-6.5 1.9-11.2 1.9-12.5 0-15.5-4.2-15.5-16.1m-90.7 22.1c-5.1-5.5-6.2-14-6.2-22.1s1.1-16.6 6.2-22.1c3.2-3.4 9.4-6 14.6-6h67.9v56.2h-67.9c-5.3 0-11.4-2.6-14.6-6" fill="#fff"/></svg>