<svg xmlns="http://www.w3.org/2000/svg" fill="none" viewBox="0 0 1000 1000"><path fill="#0B042C" d="M0 0h1000v1000H0z"/><path fill="#fff" fill-rule="evenodd" d="M530.713 484.942c.764-4.322 1.914-8.339 3.457-12.051 3.056-7.346 7.553-13.074 13.498-17.176 5.941-4.102 13.41-6.153 22.411-6.153 8.826 0 16.084 1.883 21.774 5.64 5.685 3.761 9.971 9.017 12.861 15.767 1.775 4.156 3 8.817 3.682 13.973h-77.683Zm76.421-50.25c-9.765-6.494-22.117-9.743-37.055-9.743-11.377 0-21.309 2.01-29.797 6.025-8.491 4.018-15.535 9.401-21.136 16.152-5.603 6.755-9.807 14.357-12.607 22.817-2.801 8.461-4.202 17.222-4.202 26.28v4.615a82.264 82.264 0 0 0 4.202 26.021c2.8 8.462 7.004 16.069 12.607 22.819 5.601 6.754 12.772 12.177 21.518 16.28 8.742 4.101 19.057 6.153 30.943 6.153 11.034 0 20.839-1.839 29.414-5.513 8.57-3.674 15.702-9.013 21.391-16.024 5.687-7.006 9.552-15.21 11.588-24.612h-26.739c-1.529 5.813-5.393 10.857-11.588 15.127-6.2 4.274-14.221 6.409-24.066 6.409-9.678 0-17.616-2.091-23.812-6.281-6.199-4.187-10.783-9.999-13.752-17.434-2.307-5.772-3.706-12.142-4.221-19.099h106.471v-11.538c0-11.793-2.42-22.858-7.259-33.201-4.838-10.34-12.14-18.756-21.9-25.253Zm-123.27-5.128h-30.051l-56.028 67.731V388.77h-28.777v178.725h28.777v-64.35h16.81l49.404 64.35h32.853L434.99 488.47l48.874-58.906Zm-156.362 69.223c-9.001-6.834-21.138-11.025-36.418-12.563l-13.752-1.537c-7.812-.855-13.414-2.692-16.809-5.513-3.397-2.82-5.093-6.621-5.093-11.41 0-5.467 2.293-9.998 6.876-13.587 4.585-3.59 11.29-5.384 20.119-5.384 8.996 0 15.828 1.883 20.501 5.64 4.667 3.762 7.086 8.204 7.258 13.331h26.484c-.34-13.843-5.474-24.355-15.406-31.534-9.933-7.178-22.88-10.768-38.837-10.768-10.529 0-19.781 1.712-27.758 5.128-7.983 3.42-14.262 8.292-18.846 14.614-4.585 6.325-6.877 14.017-6.877 23.074 0 11.625 4.116 20.811 12.352 27.56 8.233 6.754 19.31 10.896 33.234 12.435l13.752 1.281c9.335 1.026 16.044 3.037 20.118 6.026 4.076 2.992 6.112 7.138 6.112 12.434 0 5.813-2.716 10.639-8.148 14.485-5.436 3.846-13.159 5.768-23.175 5.768-11.205 0-19.271-2.178-24.194-6.537-4.927-4.359-7.639-9.101-8.15-14.228h-26.23c.338 13.843 5.603 24.656 15.79 32.431 10.186 7.775 24.448 11.666 42.784 11.666 11.372 0 21.432-1.84 30.178-5.513 8.742-3.674 15.535-8.845 20.374-15.511 4.838-6.666 7.258-14.357 7.258-23.073 0-12.308-4.5-21.877-13.497-28.715Zm372.455-109.731h-27.25v40.508h-22.92v21.535h22.92v67.685c0 12.65 1.993 22.649 5.984 29.995 3.988 7.352 9.844 12.563 17.572 15.64 7.724 3.076 17.191 4.615 28.397 4.615h20.372v-25.126h-22.919c-7.131 0-12.607-1.962-16.426-5.896-3.82-3.93-5.73-9.486-5.73-16.664v-70.249h45.075v-21.535h-45.075v-40.508Zm229.196 62.043v-21.535h-45.075v-40.508h-27.25v40.508h-22.921v21.535h22.921v67.685c0 12.65 1.993 22.649 5.984 29.995 3.988 7.352 9.844 12.563 17.571 15.64 7.725 3.076 17.191 4.615 28.397 4.615h20.373v-25.126h-22.919c-7.131 0-12.607-1.962-16.426-5.896-3.822-3.93-5.73-9.486-5.73-16.664v-70.249h45.075Zm-165.022.77h20.374v115.627h28.777V429.564h-49.151v22.305Zm-493.945-42.22h27.053v-20.64h-27.053v20.64Zm515.551 0h27.054v-20.64h-27.054v20.64ZM98.156 484.942c.763-4.322 1.914-8.339 3.457-12.051 3.056-7.346 7.552-13.074 13.498-17.176 5.939-4.102 13.409-6.153 22.411-6.153 8.826 0 16.083 1.883 21.774 5.64 5.686 3.761 9.971 9.017 12.86 15.767 1.775 4.156 2.999 8.817 3.683 13.973H98.156Zm76.42-50.25c-9.765-6.494-22.116-9.743-37.054-9.743-11.378 0-21.31 2.01-29.797 6.025-8.491 4.018-15.536 9.401-21.137 16.152-5.603 6.755-9.805 14.357-12.606 22.817-2.801 8.461-4.203 17.222-4.203 26.28v4.615a82.27 82.27 0 0 0 4.203 26.021c2.8 8.462 7.003 16.069 12.606 22.819 5.601 6.754 12.773 12.177 21.518 16.28 8.743 4.101 19.056 6.153 30.943 6.153 11.035 0 20.839-1.839 29.415-5.513 8.571-3.674 15.701-9.013 21.391-16.024 5.686-7.006 9.55-15.21 11.588-24.612h-26.74c-1.528 5.813-5.392 10.857-11.588 15.127-6.2 4.274-14.22 6.409-24.066 6.409-9.677 0-17.616-2.091-23.811-6.281-6.2-4.187-10.783-9.999-13.753-17.434-2.307-5.772-3.706-12.142-4.222-19.099h106.473v-11.538c0-11.793-2.42-22.858-7.26-33.201-4.838-10.34-12.139-18.756-21.9-25.253Zm95.61 173.383h27.053v-19.992h-27.053v19.992Z" clip-rule="evenodd"/></svg>