<svg xmlns="http://www.w3.org/2000/svg" viewBox="0 0 86.3 86.3" fill="none">
<g style="mix-blend-mode:difference">
<path fill="white" d="M43.2,0C19.3,0,0,19.3,0,43.2s19.3,43.2,43.2,43.2S86.3,67,86.3,43.2S67,0,43.2,0z M12,59.9L44.8,7.8 c7.9,0.4,15.1,3.3,20.8,8L15.8,65.6C14.3,63.9,13,61.9,12,59.9z M20.8,70.7l49.8-49.8c4.7,5.7,7.6,13,7.9,20.9l-52,32.7 C24.5,73.4,22.6,72.1,20.8,70.7z M35,77.6l42.8-27C74.6,66.7,57.6,82.6,35,77.6z"/>
</g>
<g style="mix-blend-mode:difference">
<path fill="black" d="M44.8,7.8L12,59.9c1.1,2,2.4,3.9,3.8,5.7l49.8-49.8C59.9,11.1,52.7,8.1,44.8,7.8z"/>
<path fill="black" d="M70.7,20.8L20.8,70.7c1.8,1.4,3.7,2.7,5.7,3.8l52-32.7C78.2,33.8,75.3,26.6,70.7,20.8z"/>
<path fill="black" d="M77.8,50.7L35,77.6C57.6,82.6,74.6,66.7,77.8,50.7z"/>
</g>
</svg>
