<svg xmlns="http://www.w3.org/2000/svg" viewBox="0 0 400 400"><path fill="#eef8fb" fill-rule="evenodd" d="M187 53.17c-5.045 1.895-10.079 6.631-60.788 57.198-45.429 45.3-55.772 56.113-58 60.632l-2.712 5.5v109l2.932 5.79c3.572 7.054 9.821 13 17.393 16.55l5.675 2.66h216l6.5-3.113c8.095-3.877 13.422-9.129 17.131-16.887l2.867-6v-107l-3.061-6.5c-2.781-5.904-7.805-11.254-54.75-58.315C247.759 84.186 222.475 59.389 220 57.58c-9.192-6.72-22.217-8.46-33-4.41m7.5 21.976C191.385 76.837 91.05 177.162 89.435 180.2 88.246 182.438 88 191.073 88 230.549c0 53.818-.105 52.991 7.097 55.873 3.501 1.401 15.287 1.578 104.955 1.578 85.038 0 101.55-.225 104.414-1.421 6.62-2.766 6.534-2.022 6.534-56.769v-49.289l-53.26-53.261C205.048 74.569 204.436 74 200.49 74.03c-2.195.017-4.89.519-5.99 1.116m2.17 30.591c-2.159.314-12.229 9.897-42.5 40.445-21.818 22.018-40.455 41.222-41.413 42.675-1.578 2.392-1.744 6.13-1.75 39.393L111 265h23l.049-32.75.049-32.75 32.801-33.238 32.801-33.238 32.65 33.038L265 199.099V265h23l-.035-36.75c-.026-26.939-.36-37.317-1.25-38.874-2.147-3.754-79.916-82.307-82.105-82.932-3.523-1.006-4.987-1.136-7.94-.707m-17.996 81.833L158 209.191v55.875l11.25-.283 11.25-.283.5-23.095.5-23.095 8.985-9.767 8.984-9.767 9.766 10.119 9.765 10.12V265h23l-.053-27.75-.052-27.75-20.514-21.5c-11.283-11.825-20.856-21.624-21.273-21.775-.418-.152-10.063 9.454-21.434 21.345"/><path fill="#244cf9" fill-rule="evenodd" d="M0 200.002v200.003l200.25-.253 200.25-.252.252-199.75L401.005 0H0v200.002m.49.498c0 110 .117 154.852.26 99.67.143-55.181.143-145.181 0-200C.607 45.352.49 90.5.49 200.5M187 53.17c-5.045 1.895-10.079 6.631-60.788 57.198-45.429 45.3-55.772 56.113-58 60.632l-2.712 5.5v109l2.932 5.79c3.572 7.054 9.821 13 17.393 16.55l5.675 2.66h216l6.5-3.113c8.095-3.877 13.422-9.129 17.131-16.887l2.867-6v-107l-3.061-6.5c-2.781-5.904-7.805-11.254-54.75-58.315C247.759 84.186 222.475 59.389 220 57.58c-9.192-6.72-22.217-8.46-33-4.41m7.5 21.976C191.385 76.837 91.05 177.162 89.435 180.2 88.246 182.438 88 191.073 88 230.549c0 53.818-.105 52.991 7.097 55.873 3.501 1.401 15.287 1.578 104.955 1.578 85.038 0 101.55-.225 104.414-1.421 6.62-2.766 6.534-2.022 6.534-56.769v-49.289l-53.26-53.261C205.048 74.569 204.436 74 200.49 74.03c-2.195.017-4.89.519-5.99 1.116m2.17 30.591c-2.159.314-12.229 9.897-42.5 40.445-21.818 22.018-40.455 41.222-41.413 42.675-1.578 2.392-1.744 6.13-1.75 39.393L111 265h23l.049-32.75.049-32.75 32.801-33.238 32.801-33.238 32.65 33.038L265 199.099V265h23l-.035-36.75c-.026-26.939-.36-37.317-1.25-38.874-2.147-3.754-79.916-82.307-82.105-82.932-3.523-1.006-4.987-1.136-7.94-.707m-17.996 81.833L158 209.191v55.875l11.25-.283 11.25-.283.5-23.095.5-23.095 8.985-9.767 8.984-9.767 9.766 10.119 9.765 10.12V265h23l-.053-27.75-.052-27.75-20.514-21.5c-11.283-11.825-20.856-21.624-21.273-21.775-.418-.152-10.063 9.454-21.434 21.345"/></svg>