<svg xmlns="http://www.w3.org/2000/svg" xml:space="preserve" viewBox="0 0 198.4 198.4"><path d="M0 60v13.88h10.97v-3.57h49.72V60H0zm65.84 0 33.38 58.09L132.6 60h-11.9s-20.2 34.91-21.48 37.16L77.75 60H65.84zm71.96 0v13.88h10.9v-3.57h49.7V60h-60.6zM0 79.12v10.35h60.69V79.12H0zm137.8 0v10.35h60.6V79.12h-60.6zM0 94.66v13.93h60.69V98.25H10.97v-3.59H0zm137.8 0v13.93h60.6V98.25h-49.7v-3.59h-10.9zm-95.61 35.06c-.87 0-1.48.17-1.78.47-.31.3-.44.84-.44 1.65v4.72c0 .82.13 1.37.44 1.66.3.3.91.44 1.78.44h6.53c.87 0 1.47-.14 1.78-.44.3-.29.47-.84.47-1.66v-4.72c0-.81-.17-1.35-.47-1.65-.31-.3-.91-.47-1.78-.47h-6.53zm22.18 0v8.94h1.88v-4.82c0-.18-.02-.41-.03-.65-.02-.25-.04-.5-.06-.78.1.12.22.26.34.37.12.11.25.23.41.38l6.56 5.5h1.41v-8.94h-1.85v4.69c0 .11.02.29.03.5.01.2.03.56.06 1.06-.13-.16-.3-.31-.46-.47-.17-.15-.35-.32-.57-.5l-6.28-5.28h-1.44zm24.16 0v8.94h8.78V137h-6.72v-7.28h-2.06zm20.87 0v8.94h2.1v-8.94h-2.1zm15.7 0v8.94h1.9v-4.82c0-.18 0-.41-.1-.65v-.78c.1.12.2.26.3.37.1.11.3.23.4.38l6.6 5.5h1.4v-8.94h-1.8v6.25c-.1-.16-.2-.31-.4-.47-.2-.15-.4-.32-.6-.5l-6.3-5.28h-1.4zm24.2 0v8.94h9.2V137h-7.2v-2.22h4.1v-1.53h-4.1v-2h7.1v-1.53h-9.1zm-107.27 1.59h6.84V137h-6.84v-5.69z"/></svg>