<svg xmlns="http://www.w3.org/2000/svg" fill="none" viewBox="0 0 128 128"><g clip-path="url(#a)"><path fill="#19BA19" d="M64 128c35.346 0 64-28.654 64-64 0-35.346-28.654-64-64-64C28.654 0 0 28.654 0 64c0 35.346 28.654 64 64 64Z"/><path fill="#fff" d="M96.672 54.992a2.481 2.481 0 0 0 0-3.51l-20.25-20.25a2.482 2.482 0 0 0-1.754-.727 2.48 2.48 0 0 0-1.756.727l-7.25 7.25a2.481 2.481 0 0 1-3.51 0l-7.194-7.22a2.482 2.482 0 0 0-1.755-.727 2.48 2.48 0 0 0-1.755.727l-20.222 20.25a2.48 2.48 0 0 0-.727 1.755 2.481 2.481 0 0 0 .727 1.755l7.25 7.25a2.482 2.482 0 0 1 0 3.51l-7.25 7.186a2.48 2.48 0 0 0 0 3.51l20.25 20.25a2.482 2.482 0 0 0 1.755.728 2.48 2.48 0 0 0 1.755-.728l7.25-7.25a2.48 2.48 0 0 1 3.51 0l7.25 7.25a2.482 2.482 0 0 0 1.755.728 2.48 2.48 0 0 0 1.755-.728l20.25-20.25a2.483 2.483 0 0 0 .728-1.755 2.48 2.48 0 0 0-.728-1.755l-7.25-7.25a2.482 2.482 0 0 1-.727-1.755 2.48 2.48 0 0 1 .727-1.755L96.673 55v-.008ZM82.067 67.96c0 7.787-6.35 14.137-14.137 14.137h-7.955c-7.788 0-14.138-6.35-14.138-14.137V60c0-7.788 6.35-14.138 14.138-14.138h7.955c7.787 0 14.137 6.35 14.137 14.138v7.96Z"/></g><defs><clipPath id="a"><path fill="#fff" d="M0 0h128v128H0z"/></clipPath></defs></svg>