<?xml version="1.0" encoding="UTF-8" standalone="no"?><!DOCTYPE svg PUBLIC "-//W3C//DTD SVG 1.1//EN" "http://www.w3.org/Graphics/SVG/1.1/DTD/svg11.dtd"><svg width="100%" height="100%" viewBox="0 0 500 500" version="1.1" xmlns="http://www.w3.org/2000/svg" xmlns:xlink="http://www.w3.org/1999/xlink" xml:space="preserve" xmlns:serif="http://www.serif.com/" style="fill-rule:evenodd;clip-rule:evenodd;stroke-linecap:round;stroke-linejoin:round;stroke-miterlimit:1.5;"><rect id="Artboard1" x="0" y="0" width="500" height="500" style="fill:none;"/><path d="M396.333,261.405c0,108.658 -88.217,196.875 -196.875,196.875c-108.658,0 -196.875,-88.217 -196.875,-196.875c0,-108.659 88.217,-196.875 196.875,-196.875c108.658,0 196.875,88.216 196.875,196.875Z" style="fill:url(#_Linear1);stroke:#000;stroke-width:2.18px;"/><circle cx="235.595" cy="261.405" r="93.75" style="fill:#fc0404;"/><g id="layer101"><path d="M298.808,427.225c-0.675,-1.519 -1.603,-5.654 -2.11,-9.114c-5.063,-36.036 -10.127,-60.088 -16.287,-77.219c-3.376,-9.452 -3.629,-10.718 -3.629,-18.989c0,-13.502 2.869,-20.507 9.283,-22.617c5.823,-1.856 8.692,-3.544 10.38,-5.907c0.929,-1.266 4.051,-8.186 6.92,-15.36c9.959,-25.233 18.651,-40.846 28.778,-51.901c6.33,-6.836 7.511,-8.777 7.511,-11.984c0,-3.882 -1.772,-5.317 -5.654,-4.473c-1.772,0.422 -4.895,0.422 -7.342,-0.084c-3.798,-0.675 -4.473,-0.591 -8.608,1.772c-2.448,1.35 -6.076,2.785 -8.102,3.038c-2.025,0.338 -4.895,1.519 -6.414,2.616c-3.038,2.279 -6.076,2.617 -9.705,1.182c-3.713,-1.435 -5.907,-1.097 -11.14,1.603c-6.076,3.207 -7.764,3.207 -12.237,-0.084c-2.109,-1.519 -4.894,-2.701 -6.667,-2.869c-12.49,-1.013 -19.579,-7.933 -14.431,-14.009l1.688,-2.026l1.941,2.363c2.532,3.038 5.57,2.954 11.14,-0.253c3.882,-2.194 5.401,-2.616 11.562,-2.785c7.173,-0.169 7.342,-0.084 12.996,4.051c0.76,0.506 2.11,0.337 4.135,-0.675c1.604,-0.76 4.473,-1.688 6.33,-1.941c3.291,-0.507 3.376,-0.507 3.376,1.941c0,1.35 -0.422,2.869 -0.929,3.375c-0.591,0.591 2.701,-0.084 7.258,-1.519c9.283,-2.7 11.731,-2.953 14.769,-1.181c2.616,1.519 5.907,1.603 5.992,0.253c0.337,-3.376 -2.026,-6.583 -6.414,-8.946c-3.967,-2.025 -13.166,-4.135 -16.541,-3.713c-1.857,0.169 -4.135,-0.253 -5.823,-1.097c-2.954,-1.519 -6.161,-1.35 -17.301,0.844c-3.207,0.675 -9.958,1.35 -14.853,1.688c-8.523,0.422 -9.283,0.337 -13.081,-1.688c-4.641,-2.447 -7.173,-5.064 -6.582,-6.751c0.759,-1.857 3.713,-2.026 7.595,-0.422c3.713,1.603 3.798,1.603 6.498,0c3.292,-2.026 4.135,-2.11 7.764,-0.338c2.617,1.181 3.545,1.181 10.634,0c9.536,-1.688 14.009,-1.688 16.794,-0.084c3.038,1.772 4.22,1.519 4.22,-0.844c0,-3.545 -3.039,-4.811 -11.984,-4.726c-5.148,0 -8.946,0.422 -10.971,1.266c-4.051,1.772 -8.608,1.687 -10.043,0c-0.928,-1.098 -0.928,-1.688 0.169,-3.545c1.266,-2.278 7.511,-5.907 10.296,-5.992c1.941,-0.084 4.81,-3.122 4.81,-5.148c0,-1.266 -0.591,-1.688 -2.447,-1.688c-1.435,0 -3.545,-0.928 -4.979,-2.109c-2.279,-1.857 -2.87,-2.026 -8.524,-1.519c-3.291,0.253 -6.329,0.928 -6.667,1.434c-0.338,0.507 -0.591,2.279 -0.591,3.882l0,2.954l-6.414,0.76c-6.245,0.675 -6.498,0.59 -13.671,-2.532c-4.051,-1.688 -7.342,-3.46 -7.342,-3.882c0,-0.338 3.291,-0.675 7.426,-0.76l7.342,0l-3.291,-1.266c-1.857,-0.675 -4.557,-2.194 -6.161,-3.375c-1.519,-1.182 -4.05,-2.617 -5.57,-3.207c-2.7,-1.182 -17.384,-4.051 -25.486,-5.148c-8.861,-1.097 -12.743,-2.701 -15.781,-6.583c-1.52,-1.941 -3.039,-3.629 -3.376,-3.798c-0.422,-0.168 -0.675,-0.928 -0.675,-1.603c0,-0.928 0.59,-1.181 2.363,-0.844c1.266,0.253 2.869,0 3.544,-0.591c2.616,-2.194 8.608,-3.882 13.925,-3.882l5.485,0l-0.506,-3.207c-0.337,-2.278 -0.084,-4.135 0.844,-5.907c1.941,-3.798 2.954,-4.051 5.148,-1.35c1.941,2.363 1.941,2.447 3.713,0.844c0.929,-0.844 1.941,-2.279 2.194,-3.123c0.676,-1.941 3.545,-2.11 7.765,-0.338c2.784,1.182 3.206,1.182 4.641,-0.168c1.435,-1.266 1.688,-1.266 3.46,0.253c1.013,0.928 2.87,2.11 4.135,2.7c2.195,0.929 2.363,0.76 3.376,-1.941c1.266,-3.628 2.363,-3.713 4.304,-0.337l1.519,2.7l1.857,-1.856c1.519,-1.351 3.038,-1.773 6.245,-1.773c3.798,0 4.557,0.338 7.089,3.039c4.135,4.304 7.089,5.57 14.262,6.245c8.693,0.759 14.853,3.544 16.879,7.595c2.531,4.895 3.46,5.401 8.523,4.22c5.486,-1.351 14.263,-0.507 17.892,1.687c3.797,2.363 4.388,2.195 5.991,-1.856l1.351,-3.629l-4.979,-4.895l-4.895,-4.979l-6.076,1.013c-7.343,1.266 -12.491,0.59 -16.373,-2.026c-1.603,-1.097 -4.135,-2.278 -5.485,-2.616c-3.207,-0.675 -4.642,-2.278 -4.22,-4.81c0.338,-2.616 2.954,-2.785 10.887,-1.013c9.874,2.194 12.068,2.363 13.418,0.76c0.929,-1.182 0.76,-1.773 -1.772,-4.304c-3.798,-3.967 -7.005,-5.57 -18.06,-8.777c-5.064,-1.519 -10.465,-3.46 -11.899,-4.304c-2.026,-1.266 -4.304,-1.604 -9.79,-1.604c-8.186,0 -8.692,-0.337 -9.367,-5.823c-0.422,-3.122 -1.097,-4.304 -4.304,-7.004c-4.726,-4.051 -7.427,-8.355 -7.089,-11.393c0.337,-3.207 1.941,-3.292 4.979,-0.338c2.025,2.026 3.544,2.701 7.173,3.123l4.557,0.59l0,-2.447c0,-1.35 -0.59,-4.557 -1.266,-7.089c-0.675,-2.532 -1.265,-4.726 -1.265,-4.81c0,-0.169 0.506,-0.254 1.097,-0.254c0.675,0 1.688,1.013 2.363,2.279c0.675,1.182 2.7,3.291 4.557,4.642l3.291,2.447l1.35,-4.895l1.435,-4.895l4.135,-0.253c3.292,-0.253 4.726,-0.844 6.752,-2.785c2.447,-2.363 2.953,-2.531 5.738,-1.772c2.701,0.76 3.123,0.675 4.558,-1.35l1.603,-2.194l5.317,1.941c4.726,1.772 5.738,1.856 8.777,0.928c1.856,-0.591 4.979,-2.11 7.004,-3.46c3.629,-2.532 5.655,-3.038 6.498,-1.688c0.338,0.422 1.519,0.422 2.954,-0.169c2.026,-0.759 2.785,-0.59 4.726,0.929c2.701,2.194 3.798,1.772 3.798,-1.351c0,-1.266 0.337,-2.7 0.675,-3.291c0.675,-1.097 4.81,-1.35 11.562,-0.675c11.646,1.266 18.397,1.35 20.76,0.422c1.351,-0.591 2.448,-1.35 2.448,-1.772c0,-1.013 3.122,-0.929 3.797,0.084c0.253,0.422 1.941,0.844 3.629,0.844c1.688,0 4.473,0.844 6.076,1.857c2.279,1.35 4.136,1.772 8.102,1.603c5.57,-0.169 6.92,0.506 9.199,4.979c1.266,2.448 1.266,2.448 3.798,1.013l2.616,-1.435l2.869,3.123c4.135,4.472 4.389,6.329 1.435,12.152c-2.87,5.655 -7.089,10.296 -10.043,10.971c-1.097,0.338 -5.401,-0.084 -9.536,-0.928c-7.258,-1.435 -7.596,-1.435 -12.828,0.253c-2.954,0.928 -6.329,1.941 -7.595,2.194c-1.266,0.338 -3.629,1.688 -5.233,3.038c-2.109,1.941 -3.628,2.532 -6.245,2.532c-5.063,0 -6.076,0.675 -6.076,3.798c0,3.207 1.857,4.81 8.439,7.595c2.11,0.844 5.401,2.532 7.427,3.629c1.941,1.097 5.739,2.701 8.439,3.46c3.545,1.097 5.232,2.11 6.583,4.051l1.772,2.701l3.122,-2.11c1.688,-1.182 3.039,-2.448 3.039,-2.954c0,-0.844 -4.304,-2.954 -7.764,-3.629c-3.039,-0.675 -7.427,-4.473 -7.427,-6.498c0,-0.928 1.519,-3.545 3.376,-5.908c1.856,-2.363 3.375,-4.641 3.375,-5.063c0,-0.422 1.182,-0.76 2.532,-0.76c2.448,0 2.532,0.169 2.532,3.882l0,3.882l4.304,-3.628c4.557,-3.798 5.148,-3.714 6.329,0.675l0.507,1.941l2.11,-1.688c2.025,-1.519 3.46,-1.688 18.06,-1.688c17.891,0 23.292,0.844 26.414,3.966c1.351,1.351 4.051,2.617 7.005,3.292c4.22,1.013 5.401,1.013 8.777,-0.085c3.122,-1.097 4.388,-1.097 6.329,-0.337c1.351,0.591 4.557,0.928 7.174,0.844c4.641,-0.085 4.81,0 6.582,2.869c1.013,1.688 1.772,4.473 1.772,6.33c0,3.038 -0.253,3.46 -3.544,5.147c-10.043,5.148 -15.275,6.667 -22.702,6.667c-7.004,0 -7.257,0.085 -10.717,2.954c-7.427,6.414 -14.769,7.596 -26.331,4.304c-7.595,-2.194 -7.933,-2.278 -11.309,-0.844c-2.363,0.929 -5.823,1.435 -11.055,1.435c-7.511,-0.084 -7.511,-0.084 -5.57,1.519c1.097,0.928 3.207,1.604 4.811,1.604c1.519,0 5.823,0.59 9.367,1.265c19.579,3.714 17.723,3.629 24.221,1.435c3.291,-1.013 6.414,-1.772 7.089,-1.688c0.59,0.169 -0.844,2.11 -3.46,4.726l-4.473,4.389l-8.017,-1.182c-4.304,-0.675 -10.803,-1.688 -14.263,-2.278c-8.523,-1.266 -13.925,-1.013 -17.807,1.012c-1.772,0.844 -4.641,1.604 -6.245,1.604c-2.109,0 -2.953,0.337 -2.7,1.097c0.169,0.506 1.266,0.928 2.363,0.759c1.097,-0.084 7.511,-0.506 14.262,-0.928c16.203,-1.013 19.073,-0.338 22.364,5.654c0.085,0.085 2.11,-0.59 4.557,-1.603c4.726,-2.026 5.739,-1.857 4.304,0.844c-1.012,2.025 -0.506,2.194 3.376,0.844c2.194,-0.76 2.869,-0.76 3.46,0.168c1.266,1.942 0.844,4.642 -0.928,6.246c-1.604,1.434 -2.701,1.519 -21.436,0.421c-24.896,-1.434 -25.824,-1.265 -31.731,4.22c-2.532,2.279 -4.811,4.22 -5.148,4.22c-0.338,0 -2.363,1.519 -4.642,3.375c-2.869,2.363 -5.401,3.629 -8.608,4.304c-2.532,0.507 -6.329,1.857 -8.439,2.954c-3.038,1.604 -5.064,2.026 -10.381,2.026l-6.667,0l0,4.219c0,4.642 0,4.557 4.136,3.376c1.603,-0.422 5.907,-1.182 9.62,-1.688c4.895,-0.675 7.511,-1.519 9.452,-3.038c3.207,-2.447 4.304,-2.532 5.064,-0.506c0.506,1.265 0.759,1.097 1.772,-0.844c1.435,-2.785 3.629,-4.051 6.92,-4.051c1.351,0 3.967,-0.591 5.739,-1.35c2.447,-1.013 4.557,-1.182 8.608,-0.76c2.869,0.338 5.232,0.844 5.064,1.182c-0.169,0.337 -1.941,2.109 -4.051,4.05c-2.785,2.532 -5.064,3.714 -8.608,4.558c-2.616,0.59 -4.642,1.35 -4.389,1.687c0.844,1.351 6.499,1.604 11.056,0.422c6.498,-1.603 24.896,-2.194 25.318,-0.759c0.253,0.591 -1.013,1.603 -2.617,2.278c-1.688,0.676 -5.232,2.785 -7.848,4.726c-2.616,1.857 -5.486,3.376 -6.414,3.376c-0.928,0 -4.051,-0.928 -6.836,-2.025c-2.869,-1.097 -7.511,-2.195 -10.464,-2.448l-5.317,-0.422l0.591,3.882l0.59,3.967l-4.219,-3.967c-5.739,-5.316 -9.199,-5.823 -18.398,-2.7c-3.713,1.181 -6.92,2.363 -7.089,2.532c-0.169,0.168 0.76,1.519 2.026,3.038c3.122,3.713 5.485,8.861 5.485,12.321c0,1.519 -1.266,5.317 -2.869,8.439c-2.616,5.317 -10.043,21.689 -21.014,46.585c-2.532,5.823 -6.076,14.178 -7.764,18.566c-3.291,8.271 -8.017,18.06 -9.874,20.255c-0.591,0.759 -5.148,4.81 -10.127,9.114c-4.979,4.304 -9.79,8.861 -10.802,10.043c-3.376,4.304 -3.123,5.485 3.291,16.625c8.102,14.178 10.633,19.495 12.237,25.402c1.435,5.739 9.705,49.623 9.789,52.07c0,1.351 -21.942,17.469 -25.739,18.904c-0.844,0.338 -1.688,-0.337 -2.448,-2.363Zm39.074,-237.565c-2.363,-8.101 -2.869,-10.886 -5.064,-24.727l-1.856,-12.237l-3.46,3.123c-5.992,5.485 -18.482,10.802 -28.778,12.068c-4.557,0.591 -4.81,0.76 -2.954,1.519c5.401,2.11 9.705,4.642 12.912,7.427c1.941,1.687 8.693,5.992 14.938,9.62c6.245,3.629 12.152,7.089 13.081,7.68c2.784,1.941 2.869,1.435 1.181,-4.473Zm22.111,-60.509c12.068,-4.051 13.925,-4.22 22.195,-1.772c4.135,1.181 8.017,2.109 8.608,2.109c0.675,0 -1.772,-2.616 -5.317,-5.823c-3.628,-3.207 -7.511,-6.835 -8.692,-8.101c-7.089,-7.849 -12.406,-9.03 -19.663,-4.304c-5.148,3.207 -5.992,5.316 -7.765,17.638l-1.012,7.426l2.616,-2.447c1.519,-1.435 5.317,-3.46 9.03,-4.726Zm-21.014,-20.339l0.506,-3.46l-5.907,-2.785c-4.979,-2.363 -6.245,-2.616 -8.017,-1.856c-2.448,1.097 -7.342,1.181 -14.178,0.168c-13.925,-2.109 -13.587,-2.363 -3.46,3.292c4.979,2.785 10.718,6.245 12.659,7.595c1.856,1.435 6.329,4.642 9.789,7.089l6.33,4.642l0.928,-5.655c0.506,-3.122 1.181,-7.173 1.35,-9.03Zm107.854,12.322l2.616,-1.519l-4.473,-0.591c-10.549,-1.351 -14.009,-1.519 -14.515,-0.675c-0.591,1.012 8.017,4.219 11.477,4.304c1.266,0.084 3.46,-0.591 4.895,-1.519Zm-94.52,-23.377c0,-0.085 -0.422,-1.266 -1.013,-2.448c-0.928,-2.025 -1.35,-2.194 -4.81,-1.772c-2.11,0.253 -6.076,0.76 -8.861,1.013c-4.135,0.506 -4.726,0.675 -3.376,1.519c3.123,1.857 18.06,3.291 18.06,1.688Z" style="fill-rule:nonzero;"/></g><path d="M248.247,385.619c-0.24,0.121 -0.481,0.301 -0.722,0.542l-2.707,0l-0.723,1.083c-0.842,0.241 -3.429,0.361 -7.762,0.361c-0.722,0 -1.565,-0.361 -2.527,-1.083c-0.121,-0.241 -0.903,-0.421 -2.347,-0.541c-2.768,1.083 -4.393,1.624 -4.874,1.624l-0.542,-0.722c0.602,-0.602 1.053,-1.053 1.354,-1.354c0.301,-0.301 0.512,-0.692 0.632,-1.173l0.361,-0.722c0,-0.602 0.301,-1.324 0.903,-2.166c0.24,-1.445 0.722,-3.731 1.444,-6.86c0.241,0 0.692,-0.813 1.354,-2.437c0.662,-1.625 0.993,-2.618 0.993,-2.979c0,-1.564 -0.361,-3.49 -1.084,-5.777c-1.083,-3.129 -1.684,-4.994 -1.805,-5.596c-1.324,-5.897 -4.212,-16.788 -8.665,-32.674c-1.203,-3.731 -2.407,-7.462 -3.61,-11.193c-1.565,-4.813 -2.347,-8.544 -2.347,-11.192c0,-0.481 1.083,-6.198 3.249,-17.149c-3.851,5.054 -9.507,12.817 -16.969,23.287c1.204,7.582 2.829,18.955 4.874,34.118c0.963,10.471 1.565,16.247 1.806,17.33c0.601,3.491 2.166,8.666 4.693,15.525c3.851,0.963 8.425,2.167 13.72,3.611c0.241,0.842 0.361,1.444 0.361,1.805l-7.763,-0.722c-1.083,0 -2.707,0.241 -4.874,0.722c-2.166,0.481 -3.851,0.722 -5.054,0.722c0.361,0.602 1.023,1.444 1.986,2.527c1.323,0.121 1.985,0.903 1.985,2.347c0,0.722 -0.361,1.083 -1.083,1.083c-2.768,-1.203 -4.513,-1.805 -5.235,-1.805c-2.768,0 -7.462,1.053 -14.081,3.159c-6.619,2.106 -11.613,3.159 -14.983,3.159c-0.602,0 -1.715,-0.301 -3.34,-0.902c-1.624,-0.602 -2.918,-0.903 -3.881,-0.903c-0.602,0 -1.534,0.241 -2.798,0.722c-1.264,0.482 -2.136,0.782 -2.617,0.903c-0.843,0.12 -5.898,0.18 -15.164,0.18c-20.459,0 -34.299,1.444 -41.52,4.333c-2.648,1.083 -6.198,1.625 -10.651,1.625c-2.046,0 -5.115,-0.181 -9.207,-0.542c-4.091,-0.361 -7.16,-0.542 -9.206,-0.542c-3.611,0 -6.68,0.662 -9.207,1.986c0.241,-0.602 0.482,-1.083 0.722,-1.444c-0.722,-0.361 -1.985,-2.166 -3.791,-5.416c-1.203,0.361 -2.106,0.542 -2.708,0.542c-2.527,0 -5.114,-0.903 -7.762,-2.708c-3.009,-1.926 -4.513,-4.092 -4.513,-6.499c0,-6.137 9.086,-14.682 27.259,-25.634c15.886,-9.628 28.281,-15.585 37.187,-17.871c6.98,-1.806 10.651,-2.768 11.012,-2.889c3.972,-1.324 7.221,-3.129 9.748,-5.415c3.49,-3.009 6.68,-7.522 9.568,-13.54c4.332,-8.424 6.92,-13.298 7.762,-14.622c1.685,-1.444 3.851,-4.212 6.499,-8.304c0.602,-1.444 1.444,-4.092 2.527,-7.943c-0.12,-1.083 -0.18,-1.805 -0.18,-2.166c0,-1.565 0.902,-5.175 2.708,-10.831c-2.889,-1.083 -5.175,-5.356 -6.86,-12.817c-0.361,-0.602 -0.602,-1.384 -0.722,-2.347l0.902,-0.361l0.722,0.18c0.723,-2.768 5.958,-6.378 15.706,-10.831c-0.361,-4.573 -0.542,-7.341 -0.542,-8.304c0,-1.925 0.903,-4.092 2.708,-6.499c3.731,-1.925 7.341,-3.008 10.831,-3.249c-0.481,0 3.43,0 11.734,0c0.121,-0.241 0.181,-0.903 0.181,-1.986c0,-3.129 -0.181,-6.138 -0.542,-9.026c0,0 -1.203,-0.963 -3.61,-2.888c-1.083,-2.167 -2.287,-5.115 -3.611,-8.846c-0.601,-0.241 -0.962,-0.602 -1.083,-1.083c-2.407,0 -3.791,-0.421 -4.152,-1.264l0.181,0.361c-1.204,-1.203 -2.528,-2.707 -3.972,-4.513l-0.541,-0.18l-0.542,0.722l-1.444,0.361l0,0.181l-0.361,0l-0.722,-0.362l0,-0.361c0,-0.12 0.06,-0.421 0.18,-0.902l0.361,-0.361c1.565,-0.602 2.528,-1.625 2.889,-3.069c0.722,-2.648 1.083,-3.972 1.083,-3.972l0.18,0l-0.18,0l-0.361,-0.361l0,-0.722l-0.542,0.722l-1.444,0l0,-0.541c0.602,-1.565 0.963,-2.227 1.083,-1.986l-0.722,-0.541c-0.361,0.24 -1.083,0.481 -2.166,0.722l-0.903,-0.181c0.482,-0.12 1.505,-0.481 3.069,-1.083c0.361,-0.361 0.662,-0.782 0.903,-1.264c-0.482,-0.481 -0.903,-0.962 -1.264,-1.444l0,-1.083l-0.722,-0.542c-0.602,0.482 -1.143,1.264 -1.625,2.347c-0.12,-0.601 -0.18,-1.504 -0.18,-2.708c0,-0.12 0.12,-0.541 0.361,-1.263l1.083,-0.903l1.264,0l-0.542,-0.18c-0.241,-0.482 -0.301,-1.083 -0.18,-1.806c0.722,-0.842 1.805,-2.286 3.249,-4.332c-0.12,-0.361 -0.241,-0.782 -0.361,-1.264l0.361,-0.722l-0.361,-0.541l0,-1.084l0.541,-0.722l0.181,-0.722c0.722,-0.962 1.685,-1.925 2.888,-2.888c0.241,0 0.572,0.06 0.993,0.18c0.421,0.121 0.692,0.181 0.813,0.181l0.361,-0.361c0.481,-0.481 1.384,-0.842 2.707,-1.083c0.482,-0.963 1.324,-1.805 2.528,-2.527l0,-0.903c0.12,0 0.24,-0.12 0.361,-0.361l2.527,0c2.166,1.083 3.43,1.564 3.791,1.444l1.444,0.903l0.181,0c0.12,-0.143 0.872,-0.6 2.256,-1.371c1.384,-0.771 3.099,-1.096 5.145,-0.976l1.444,0.561c1.565,-0.124 2.407,0.001 2.528,0.375c0.722,0 2.828,0.936 6.318,2.807c0.361,0.374 0.902,0.81 1.625,1.309c0.361,0.748 0.722,1.995 1.083,3.74l0.902,1.498l0.542,0l0.722,-0.361c0.12,0.481 0.903,1.263 2.347,2.346l0.361,0c0.24,-0.722 0.541,-1.323 0.902,-1.805c0,-0.12 0.061,-0.18 0.181,-0.18l0,-0.903c-0.843,-0.12 -1.204,-0.301 -1.083,-0.542l0.722,-1.083l0.541,0l0.722,0.722c0.121,0.602 0.181,1.264 0.181,1.986c0,-0.12 -0.241,0.963 -0.722,3.25l0.361,0.541l0.18,0c0.241,0.481 0.843,1.204 1.806,2.166l0,0.181l0.541,0.361c0.602,0.12 1.444,0.361 2.528,0.722c0.12,0.361 0.18,0.662 0.18,0.903l-0.722,-0.722l-1.264,0c0.843,0.962 1.324,2.226 1.445,3.79c0.12,1.926 0.24,3.069 0.361,3.43l0.541,0.542c0.361,0.842 0.662,1.745 0.903,2.708c0.361,0.12 0.541,0.301 0.541,0.541c-0.24,0.482 -0.722,1.083 -1.444,1.806l1.986,1.263c1.564,0 2.347,0.06 2.347,0.181c-0.482,0.601 -1.565,1.203 -3.25,1.805c0,0.12 -0.06,0.421 -0.18,0.903l0.541,0.902c-0.842,0.12 -2.166,0.361 -3.971,0.722c-0.241,0.602 -0.662,1.083 -1.264,1.444c-0.241,0.722 -0.481,1.324 -0.722,1.806c-0.481,-0.482 -0.602,-0.783 -0.361,-0.903l-0.722,-0.181c-0.361,0.482 -0.722,0.903 -1.083,1.264c-0.361,0.361 -0.482,0.722 -0.361,1.083c-0.482,0.843 -1.264,1.264 -2.347,1.264l0,0.541l-1.805,0c-0.602,0.602 -1.144,1.445 -1.625,2.528l0,1.083c-0.602,1.324 -0.842,2.467 -0.722,3.43l-1.083,-0.361c-0.241,0.481 -0.361,2.106 -0.361,4.874c0,0.842 0.602,2.768 1.805,5.777c1.926,-1.324 3.731,-1.986 5.416,-1.986c3.971,0 6.98,1.444 9.026,4.332c0.24,0.241 1.083,3.671 2.527,10.29c1.444,6.619 2.166,10.23 2.166,10.831c0,13.239 -3.61,29.425 -10.831,48.561c0.602,2.286 1.384,5.716 2.347,10.289c0.12,3.37 0.662,8.425 1.625,15.164c0.481,1.565 1.022,3.851 1.624,6.86c0.241,6.499 1.204,16.247 2.889,29.245c0.842,4.091 1.263,8.003 1.263,11.733c0,1.445 0.662,3.671 1.986,6.68c1.444,3.49 2.287,5.776 2.527,6.86c0.722,0.962 1.204,2.106 1.444,3.429Zm-177.452,13.901l0,-0.181l-0.181,0l0,0.181l0.181,0Zm126.365,-34.181c0,-3.932 -1.324,-11.914 -3.972,-23.947c-1.805,7.743 -2.888,12.152 -3.249,13.226c-1.685,3.811 -4.633,7.147 -8.846,10.007c3.731,1.191 6.439,3.216 8.124,6.076c2.046,3.336 3.911,5.481 5.596,6.434l1.083,0c0,-1.311 0.211,-3.277 0.632,-5.898c0.421,-2.621 0.632,-4.587 0.632,-5.898Zm-21.482,2.589c-1.805,0.843 -4.664,1.445 -8.575,1.806c-3.911,0.361 -6.83,1.023 -8.755,1.985c-2.889,1.083 -7.161,2.889 -12.817,5.416l18.232,0c5.055,0 9.026,-3.069 11.915,-9.207Z" style="fill-rule:nonzero;"/><defs><linearGradient id="_Linear1" x1="0" y1="0" x2="1" y2="0" gradientUnits="userSpaceOnUse" gradientTransform="matrix(2.39392e-14,393.75,-393.75,2.4053e-14,199.458,64.5297)"><stop offset="0" style="stop-color:#fc1503;stop-opacity:1"/><stop offset="0.54" style="stop-color:#fb8402;stop-opacity:1"/><stop offset="1" style="stop-color:#fab001;stop-opacity:1"/></linearGradient></defs></svg>