<svg xmlns="http://www.w3.org/2000/svg" xml:space="preserve" id="Layer_1" x="0" y="0" style="enable-background:new 0 0 77.8 99.5" version="1.1" viewBox="0 0 77.8 99.5"><style>.st3{fill:#e63888}.st4{fill:#1d4f91}</style><path d="M37.4 23.4h11.2c3.4 0 6.1-2.7 6.1-6.1V6.1C54.7 2.7 52 0 48.6 0H37.4c-3.4 0-6.1 2.7-6.1 6.1v11.2c.1 3.4 2.7 6.1 6.1 6.1z" style="fill:#426da9"/><path d="M26.4 29.2c0-3.8-3.1-6.9-6.9-6.9H6.9c-3.8 0-6.9 3.1-6.9 6.9v12.7c0 3.7 3.1 6.8 6.9 6.8h12.6c3.8 0 6.9-3 6.9-6.8V29.2z" style="fill:#6d2077"/><path d="M18.3 58.9h-7.8c-2.3 0-4.2 1.9-4.2 4.2v7.8c0 2.3 1.9 4.2 4.2 4.2h7.8c2.3 0 4.2-1.9 4.2-4.2v-7.8c0-2.3-1.9-4.2-4.2-4.2z" style="fill:#af1685"/><path d="M72.7 14.9h-6.4c-1.9 0-3.4 1.5-3.4 3.4v6.4c0 1.9 1.5 3.4 3.4 3.4h6.4c1.9 0 3.5-1.6 3.4-3.4v-6.4c-.1-1.9-1.5-3.4-3.4-3.4zM39.1 80.5H30c-2.8 0-5 2.3-5 5v9.2c0 2.7 2.3 4.9 5 4.9h9.2c2.7 0 5-2.2 5-5v-9.1c-.1-2.8-2.4-5-5.1-5z" class="st3"/><path d="M52.7 36.4c-10.2 0-18.3 8.2-18.3 18.2 0 10.1 8.1 18.3 18.1 18.3h.2c4.9 0 9.5-1.9 12.6-5.2.6-.6 1.1-1.4 1.1-2.3 0-1.6-1.4-3.1-3.1-3.1-.9 0-1.8.6-2.4 1.2-2.1 2.2-5.1 3.2-8.3 3.2-6.1 0-11-4.2-12.1-10H68.2c.1 0 .2 0 .3-.1 1.5-.4 2.4-1.7 2.4-3.1-.1-9.1-8.5-17.1-18.2-17.1zM41 50.9c1.6-4.9 6.2-8.5 11.7-8.5 5.5 0 10.1 3.5 11.6 8.5H41zM71 72.5c-.2 0-.4-.2-.4-.4v-3.9h-.8c-.2 0-.4-.2-.4-.4s.2-.4.4-.4h2.5c.2 0 .4.2.4.4s-.2.4-.4.4h-.9v3.9c0 .2-.1.4-.4.4zm4.6 0c-.2 0-.3-.2-.4-.3L74.1 69v3.2c0 .2-.2.4-.4.4s-.4-.2-.4-.4V68c0-.3.3-.6.6-.6.2 0 .5.2.5.5l1.1 3.2 1.1-3.2c.1-.2.3-.4.5-.5.3 0 .6.3.6.6v4.2c0 .2-.2.4-.4.4s-.4-.2-.4-.4V69l-.6 1.9-.3 1.3c-.1.2-.2.3-.4.3z" class="st4"/></svg>