<svg xmlns="http://www.w3.org/2000/svg" aria-labelledby="navbar-fanatical-logo" preserveAspectRatio="xMinYMid" viewBox="0 0 399.764 400"><path fill="#ff9800" d="M2.876 166.006h284.67a2.998 2.998 0 0 0 2.723-1.743l25.863-56.045a3 3 0 0 0-1.464-3.982 2.997 2.997 0 0 0-1.258-.276l-288.918.035C58.448 42.02 124.26 0 199.882 0c110.392 0 199.882 89.543 199.882 200s-89.49 200-199.882 200C89.49 400 0 310.457 0 200c0-11.588.985-22.946 2.876-33.994ZM125.926 328c0 2.21 1.79 4 3.997 4h5.173l62.83-79.011h49.43a2.998 2.998 0 0 0 2.722-1.742l25.835-55.976a3.002 3.002 0 0 0 .276-1.258c0-1.657-1.342-3-2.998-3H125.926V328Z"/></svg>