<svg xmlns="http://www.w3.org/2000/svg" viewBox="0 0 203.556 203.555"><path fill="#69b3e7" d="M168.679 57.19a80.391 80.391 0 0 1-133.77 89.2l-17.81 11.86a101.782 101.782 0 0 0 169.38-112.91Z"/><path fill="#0067b9" d="M21.159 101.42a80.39 80.39 0 0 1 147.52-44.23l17.8-11.86a101.785 101.785 0 1 0-169.38 112.92l17.81-11.86a80 80 0 0 1-13.75-44.97z"/><path fill="#333e48" d="M53.159 133.68h93.37a3.41 3.41 0 0 0 3.41-3.41V69.19Z"/><path fill="#ffc107" d="m101.549 101.42-48.39-32.23v64.52z" class="opacity"/></svg>