<svg xmlns="http://www.w3.org/2000/svg" viewBox="0 0 100 100"><g fill="#FFF" fill-rule="nonzero" style="mix-blend-mode:difference"><path d="M36.541 74.069c-.686-.63-1.536-1.206-2.633-1.206-2.028 0-3.18 1.645-3.18 4.66 0 3.017 1.152 4.664 3.18 4.664 1.454 0 1.92-.713 2.633-1.263v-6.855Zm3.4 10.584h-2.878l-.165-1.534c-1.207 1.178-2.331 1.808-3.868 1.808-3.783 0-5.703-3.344-5.703-7.787 0-3.509 2.03-7.02 5.703-7.02 1.153 0 2.771.686 3.456 1.591h.055v-6.855h3.4v19.797Zm-19.14 0h3.4V70.395h-3.4v14.258Zm0-16.89h3.4v-3.181h-3.4v3.18ZM8.05 77.25h4.608l-2.222-8.61h-.055l-2.33 8.61Zm-.053-12.422h4.716l5.62 19.825h-3.757l-1.096-4.277H7.226l-1.178 4.277H2.291l5.705-19.825ZM91.035 45.395v-4.717h3.4v4.717h2.797v2.741h-2.798v8.061c0 .77.385.99 1.234.99.522 0 1.07-.165 1.564-.277v2.799c-.933.11-1.755.219-2.687.219-2.523 0-3.51-1.261-3.51-3.292v-8.5H89.06v-2.741h1.975zM74.91 59.654v-14.26h3.127v1.537c1.26-.878 2.714-1.81 4.386-1.81 2.852 0 4.223 1.863 4.223 4.77v9.763h-3.4v-9.269c0-1.919-.604-2.523-1.755-2.523-1.482 0-2.605.85-3.18 1.509v10.283H74.91zm-6.115-8.884c-.056-1.975-1.097-3.127-2.742-3.127-1.646 0-2.689 1.152-2.744 3.127h5.486zm-5.486 2.303c.055 2.96 1.372 4.113 2.963 4.113 1.59 0 2.33-.712 3.18-1.701l2.468 1.537c-1.317 2.03-3.236 2.906-5.978 2.906-3.701 0-6.031-2.88-6.031-7.404 0-4.525 2.33-7.403 6.196-7.403 3.73-.028 5.813 3.125 5.813 6.553v1.399h-8.61zm-9.543-4.004c-.685-.63-1.535-1.207-2.633-1.207-2.029 0-3.179 1.647-3.179 4.662 0 3.017 1.15 4.662 3.18 4.662 1.452 0 1.919-.712 2.632-1.263V49.07zm3.4 10.585h-2.879l-.165-1.534c-1.206 1.177-2.33 1.808-3.868 1.808-3.783 0-5.702-3.346-5.702-7.788 0-3.509 2.03-7.02 5.702-7.02 1.153 0 2.771.686 3.457 1.59h.055v-6.854h3.4v19.798zM41.81 45.394v14.26h-3.126V58.12c-1.26.875-2.715 1.808-4.388 1.808-2.851 0-4.222-1.865-4.222-4.771v-9.762h3.4v9.268c0 1.919.602 2.523 1.754 2.523 1.482 0 2.605-.85 3.182-1.51V45.396h3.4zm-20.703 0v-4.716h3.4v4.717h2.796v2.741h-2.796v8.061c0 .77.384.99 1.234.99.522 0 1.07-.165 1.562-.277v2.799c-.932.11-1.753.219-2.686.219-2.523 0-3.51-1.261-3.51-3.292v-8.5h-1.975v-2.741h1.975zm-7.076-.273c-.576-1.536-1.755-2.577-3.538-2.577-1.645 0-2.823.657-2.823 2.193 0 3.4 10.2 2.687 10.2 9.103 0 4.06-2.55 6.088-6.937 6.088-3.235 0-6.28-1.808-7.404-4.689l3.126-1.371c.905 1.865 2.084 3.099 4.305 3.099 1.892 0 3.345-.714 3.345-2.633 0-3.894-10.202-3.126-10.202-9.213 0-3.538 2.963-5.54 6.39-5.54 3.181 0 5.815 1.59 6.993 4.47l-3.455 1.07zm71.01-9.467h1.975V15.856h-1.974v19.798zm-6.828-7.706c-4.524.795-6.744 2.11-6.744 4.086 0 1.316 1.26 2.194 2.357 2.194 1.426 0 3.236-1.042 4.387-2.359v-3.92zm-8.309-3.812c.906-1.645 2.66-3.015 5.348-3.015 2.413 0 4.935 1.15 4.935 4.277v7.184c0 1.565.137 2.332.329 3.072h-2.028l-.22-1.974c-.988 1.096-2.578 2.248-4.716 2.248-2.194 0-4.06-1.315-4.06-3.922 0-3.125 2.386-4.688 8.721-5.812v-.768c0-1.893-1.235-2.606-2.934-2.606-2.193 0-3.263 1.262-3.647 2.222l-1.728-.906zm-8.94-2.741h1.975v2.824h.055c1.097-1.947 2.276-3.044 4.634-3.044v1.975c-2.469.054-3.758 1.672-4.69 4.606v7.898h-1.974v-14.26zm-5.428 5.813c0-2.632-1.262-4.388-3.4-4.388-2.388 0-3.675 1.756-3.84 4.388h7.24zm2.411 5.401c-.932 1.62-2.248 3.319-5.483 3.319-3.182 0-6.198-2.193-6.198-7.404 0-4.607 2.304-7.403 5.814-7.403 2.96 0 5.429 1.92 5.429 6.471v1.317H48.24c0 3.125 1.865 5.32 4.223 5.32 1.755 0 3.125-.933 3.949-2.415l1.534.795zm-17.331-7.814c-1.068-1.18-2.413-1.975-3.591-1.975-2.304 0-4.031 1.508-4.031 5.813 0 3.62 1.562 5.595 4.031 5.595 1.26 0 2.193-.548 3.59-1.92v-7.513zm1.975-8.94v16.673c0 1.042-.055 2.085.11 3.126h-1.811l-.274-1.399c-.658.906-2.057 1.673-3.756 1.673-2.524 0-5.841-1.7-5.841-7.404 0-5.54 3.317-7.403 5.732-7.403 1.342 0 2.658.685 3.756 1.59l.109.055v-6.91h1.975zM25.644 27.209c0-2.632-1.261-4.388-3.4-4.388-2.387 0-3.676 1.756-3.84 4.388h7.24zm2.412 5.401c-.933 1.62-2.248 3.319-5.484 3.319-3.181 0-6.198-2.193-6.198-7.404 0-4.607 2.304-7.403 5.813-7.403 2.963 0 5.429 1.92 5.429 6.471v1.317h-9.267c0 3.125 1.865 5.32 4.223 5.32 1.754 0 3.126-.933 3.95-2.415l1.534.795zM16.648 15.856v1.865H7.105v6.635h7.075v1.865H7.105v9.433H4.911V15.856h11.737z"/></g></svg>