<?xml version="1.0" encoding="UTF-8" standalone="no"?>
<svg
   height="262.34894"
   viewBox="0.12664386 -3.71234 14.12 13.355475"
   width="231.49397"
   version="1.1"
   id="svg1"
   xmlns="http://www.w3.org/2000/svg"
   xmlns:svg="http://www.w3.org/2000/svg">
  <defs
     id="defs1" />
  <path
     d="m 14.246644,2.1463589 c 0,3.38 -4.04,5.176 -7.0600001,8.1900001 -3.02,-3.0140001 -7.06000002,-4.8100001 -7.06000002,-8.1900001 0,-0.704 0.207,-1.36000001 0.563,-1.91000001 a 6.565,6.565 0 0 1 -0.075,-2.25899999 7.462,7.462 0 0 1 0.57700002,-1.985 8.386,8.386 0 0 1 0.706,-1.276 c 0.089,-0.131 0.181,-0.26 0.279,-0.382 -0.018,0.155 -0.026,0.31 -0.03,0.464 a 7.546,7.546 0 0 0 0.082,1.351 5.83,5.83 0 0 0 0.473,1.609 4.119,4.119 0 0 0 0.565,0.884 c 0.128,-0.014 0.258,-0.021 0.389,-0.021 1.951,0 3.531,1.63799999 3.531,1.63799999 0,0 1.58,-1.63799999 3.5300001,-1.63799999 0.132,0 0.263,0.007 0.391,0.021 0.062,-0.072 0.122,-0.148 0.18,-0.227 0.143,-0.198 0.273,-0.418 0.386,-0.657 a 5.831,5.831 0 0 0 0.473,-1.609 7.57,7.57 0 0 0 0.083,-1.351 5.503,5.503 0 0 0 -0.03,-0.464 c 0.098,0.122 0.19,0.25 0.28,0.382 a 8.385,8.385 0 0 1 0.706,1.276 c 0.267,0.606 0.474,1.267 0.576,1.984 0.05,0.359 0.073,0.731 0.061,1.11399999 a 6.361,6.361 0 0 1 -0.139,1.145 c 0.356,0.55 0.563,1.20700001 0.563,1.91000001 z"
     fill="#990100"
     id="path1" />
</svg>
