<svg xmlns="http://www.w3.org/2000/svg" fill="none" viewBox="0 0 49 48"><g clip-path="url(#a)"><path fill="#fff" d="M24.943 48c13.255 0 24-10.745 24-24s-10.745-24-24-24c-13.254 0-24 10.745-24 24s10.746 24 24 24Z"/><path fill="#368727" d="M22.6 27.795h6.684l1.956 1.268h-8.934L18.3 41.457a18.527 18.527 0 0 1-10.209-24.3A18.627 18.627 0 0 1 43.053 29.9a18.233 18.233 0 0 1-5.975 8.827l-4.936-8.225 6.87 3.833s.058-.043 0-.086l-8.954-7.766 11.627 1.777h.057l-.071-.065-10.976-3.876L42.1 21.562v-.057l-11.677.766 9.156-6.935s-.058-.057-.08 0l-10.287 5.216 5.667-10.03s0-.057-.036 0l-7.408 8.662L28.869 7.72s-.043-.043-.078 0l-3.418 11.112L22.385 7.37s-.065-.036-.086 0l.824 11.893-7.043-9.17h-.064l5.33 10.151-10.073-5.495s-.057 0-.057.043l8.962 7.358-11.463-1.211c-.043 0-.043.057 0 .079l11.12 3.245-11.04 3.238a.05.05 0 0 0 0 .072l11.383-1.29-8.94 7.559s-.044.043 0 .064l.114-.043 7.164-3.747 1.677-2.672h1.912l-1.325-.938 4.427-7.107-2.607 8.396Z"/></g><defs><clipPath id="a"><path fill="#fff" d="M0 0h49v48H0z"/></clipPath></defs></svg>