<svg xmlns="http://www.w3.org/2000/svg" fill="none" viewBox="0 0 500 500"><path fill="#fff" fill-rule="evenodd" d="M250 0C111.938 0 0 111.938 0 250s111.938 250 250 250 250-111.938 250-250S388.062 0 250 0ZM116.826 77.287h155.877a30.44 30.44 0 0 1 25.852-14.285c16.837 0 30.524 13.633 30.524 30.524 0 16.891-13.687 30.469-30.524 30.469-11.079 0-20.801-5.92-26.124-14.773H99.989v298.175c0 .326 0 .543-.054.869 15.37 14.556 32.805 26.885 51.814 36.498V315.175c0-.272.054-.489.054-.76 0-.272.054-.489.109-.761.054-.271.108-.489.163-.76.054-.272.108-.489.163-.761.054-.271.163-.488.217-.76.054-.272.163-.489.271-.76.109-.272.218-.489.272-.706.109-.272.217-.489.326-.706.109-.218.271-.435.326-.707.108-.271.271-.434.38-.651.163-.218.272-.435.38-.652.163-.217.326-.38.435-.652.163-.217.326-.38.434-.597.163-.217.326-.38.489-.598.163-.217.326-.38.489-.543l.543-.543c.217-.163.38-.326.597-.489.218-.163.381-.326.598-.489.217-.162.38-.325.597-.434.217-.163.435-.326.652-.38a3.96 3.96 0 0 1 .652-.38c.271-.109.434-.272.706-.326.271-.055.434-.218.706-.326.271-.109.489-.217.706-.326.271-.109.489-.163.76-.272.272-.108.489-.163.761-.217.271-.054.488-.163.76-.217.272-.054.489-.109.76-.163.272-.054.489-.109.761-.109.271 0 .489-.054.76-.108.272 0 .489-.055.761-.055h53.877a30.44 30.44 0 0 1 25.853-14.284c16.837 0 30.524 13.633 30.524 30.524 0 16.837-13.633 30.523-30.524 30.523-11.08 0-20.802-5.92-26.124-14.773H183.63v123.724c0 .706-.054 1.412-.163 2.118 21.074 6.626 43.45 10.265 66.587 10.265 20.748 0 40.843-2.878 59.853-8.309V294.536c-8.527-5.377-14.176-14.881-14.176-25.744 0-16.837 13.632-30.523 30.524-30.523 16.836 0 30.523 13.632 30.523 30.523 0 11.134-5.974 20.91-14.936 26.233V447.86c14.665-6.789 28.46-15.207 41.169-24.984V268.249c0-.272.054-.489.054-.76 0-.272.055-.489.109-.761.054-.271.109-.489.163-.76.054-.272.109-.489.163-.761.054-.271.163-.488.217-.76.109-.271.163-.489.272-.76.108-.272.163-.489.271-.761.109-.271.218-.488.326-.706.109-.217.272-.434.326-.706.109-.271.272-.434.38-.652.109-.217.272-.434.38-.651.163-.218.326-.435.435-.652.109-.217.326-.38.434-.597.163-.218.326-.381.489-.598.163-.217.326-.38.543-.543.218-.163.326-.326.543-.543.218-.163.381-.326.598-.489.217-.163.38-.326.597-.489.218-.163.381-.326.652-.434.217-.163.435-.326.652-.38.217-.109.434-.272.652-.381.217-.163.434-.271.706-.326.271-.108.434-.217.706-.325.271-.109.489-.218.706-.326.271-.109.489-.217.76-.272.272-.108.489-.163.761-.217a4.04 4.04 0 0 0 .76-.217c.271-.055.489-.109.76-.163.272-.055.489-.055.761-.109.271-.054.488-.054.76-.054s.489-.054.76-.054h69.52V250c0-54.584-20.041-104.497-53.226-142.733v68.651c0 .271-.054.489-.054.815 0 .325-.055.488-.109.76s-.108.489-.163.76c-.054.272-.108.489-.163.761-.054.271-.163.489-.217.76-.109.272-.163.489-.272.76-.108.272-.217.489-.325.761-.109.271-.218.489-.326.706-.109.271-.272.434-.326.706-.054.272-.272.434-.38.706-.163.272-.272.435-.381.652-.162.217-.325.434-.434.651-.163.218-.326.381-.489.598-.163.217-.326.38-.489.597a2.542 2.542 0 0 1-.543.543 2.57 2.57 0 0 0-.543.544c-.217.217-.38.325-.597.488-.218.163-.381.326-.598.489-.217.163-.38.326-.652.435-.217.163-.434.326-.651.38-.272.163-.435.271-.706.38-.272.109-.435.272-.706.326a8.726 8.726 0 0 0-.706.326c-.272.108-.489.217-.761.326-.271.108-.489.163-.76.271a4.033 4.033 0 0 1-.761.218c-.271.054-.488.108-.76.162-.272.055-.489.109-.76.163-.272.055-.489.055-.815.109-.326.054-.489.054-.815.054H183.685v32.425c8.907 5.322 14.827 15.044 14.827 26.178 0 16.837-13.633 30.524-30.524 30.524-16.891 0-30.415-13.687-30.415-30.578a30.445 30.445 0 0 1 14.176-25.798v-49.533c0-.272.054-.489.054-.761 0-.271.054-.488.109-.76.054-.271.108-.489.163-.76.054-.272.108-.489.163-.761.054-.271.163-.488.217-.76.054-.272.163-.489.271-.76.109-.272.218-.489.272-.706a8.92 8.92 0 0 1 .326-.707c.109-.217.271-.434.326-.706.108-.271.271-.434.38-.706.163-.271.272-.434.38-.651.163-.218.326-.435.435-.652.163-.217.326-.38.434-.598.163-.217.326-.38.489-.597.163-.217.326-.38.489-.543l.543-.543c.217-.218.38-.326.597-.489.218-.163.381-.326.598-.489.217-.163.38-.326.597-.434.217-.163.435-.326.652-.381.217-.163.434-.271.652-.38.271-.108.434-.271.706-.326.271-.054.434-.217.706-.326.271-.108.489-.217.706-.325.271-.109.489-.218.76-.272.272-.054.489-.163.761-.217.271-.055.488-.163.76-.217.272-.055.489-.109.76-.163.272-.055.489-.109.761-.109.271 0 .489-.054.76-.054.272 0 .489-.055.761-.055h215.728V78.807c0-.489 0-.977.055-1.466-36.824-28.568-82.935-45.46-133.066-45.46-50.13 0-96.404 16.946-133.228 45.406ZM31.881 250c0-44.482 13.307-85.868 36.172-120.302v240.658C45.189 335.868 31.882 294.482 31.882 250Zm433.413 34.923h-50.51v107.864c26.015-29.871 43.939-66.913 50.51-107.864Z" clip-rule="evenodd" style="mix-blend-mode:difference"/></svg>