<?xml version='1.0' encoding='utf-8'?>
<svg xmlns="http://www.w3.org/2000/svg" width="474.2" height="474.2" version="1.1" viewBox="0 0 474.2 474.2" xml:space="preserve">
	<g transform="translate(-20.412 -2.725)">
		<circle transform="matrix(.7071 -.7071 .7071 .7071 -94.131 252.34)" cx="257.5" cy="239.8" r="237.1" fill="#4D6BDD" />
		<path d="m350.6 211.4c-8.9-9.6-12.2-30.5-12.2-30.5l-2.6-12s-3.1-11.3-5.4-14.6c-1-2.6-2.8-9.7 3.5-16.9 0 0 6.3-8.1-2.8-14.6 0 0-10-8.3-17.2 1.2 0 0-6.7 12.3-16.4 10.4-2.6-0.7-4.3-1-4.3-1s-21.7-4.2-35.7-4.3c-14 0-35.7 4.3-35.7 4.3s-1.6 0.3-4.3 1c-9.6 1.8-16.4-10.4-16.4-10.4-7.2-9.6-17.2-1.2-17.2-1.2-9.2 6.6-2.8 14.6-2.8 14.6 6.3 7.2 4.5 14.4 3.5 16.9-2.3 3.4-5.4 14.6-5.4 14.6l-2.6 12s-3.3 20.8-12.2 30.5c0 0-60.2 54.1-19.4 109.4 0 0 26.8 31.8 71 7.2 0 0 20.6-11.4 41.5-11.5 20.8 0 41.5 11.5 41.5 11.5 44.2 24.6 70.9-7.2 70.9-7.2 40.9-55.3-19.3-109.4-19.3-109.4zm-132.8 45.8c-4.2 5.6-14.6 5-23.2-1.4s-12.2-16.2-8-21.8 14.6-5 23.2 1.4 12.2 16.2 8 21.8zm7-60.5c-7.6 0-13.8-7.1-13.8-12.4h11.4c1.3 0 1.7-2.2 0.9-3.3l-7.2-9.6c2.4-1.9 5.4-3.4 8.7-3.4 7.6 0 13.8 6.7 13.8 14.3 0.1 7.7-6.1 14.4-13.8 14.4zm51.6-12.4h11.4c1.3 0 1.7-2.2 0.9-3.3l-7.2-9.6c2.4-1.9 5.4-3.4 8.7-3.4 7.6 0 13.8 6 13.8 13.6s-6.2 15.2-13.8 15.2-13.8-7.2-13.8-12.5zm44.1 70.1c-8.6 6.4-19 7-23.2 1.4-4.2-5.7-0.6-15.4 8-21.8s19-7 23.2-1.4 0.7 15.4-8 21.8z" fill="#FFF" />
		<path d="m257.6 331.6c-27.6 0-39.9 15.3-39.9 15.3s-12.4 13.4 39.9 13.4 39.9-13.4 39.9-13.4-12.3-15.3-39.9-15.3z" fill="#FFF" />
	</g>
</svg>