<svg width="531" height="548" viewBox="0 0 531 548" fill="none" xmlns="http://www.w3.org/2000/svg">
<path d="M511.22 183.799C499.671 156.043 476.328 126.08 457.951 116.6C471.018 141.907 480.086 169.076 484.845 197.177L484.913 197.624C454.882 122.771 403.991 92.6018 362.409 26.9195C360.272 23.575 358.169 20.196 356.168 16.7482C355.135 14.9552 354.169 13.1279 353.238 11.2659C351.515 7.92154 350.169 4.40469 349.273 0.749918C349.273 0.405128 349.032 0.0948176 348.687 0.0258593C348.515 -0.00861977 348.342 -0.00861977 348.17 0.0258593C348.136 0.0258593 348.066 0.0948176 348.032 0.0948176C347.998 0.0948176 347.894 0.163776 347.86 0.198254L347.963 0.0603386C281.281 39.125 258.663 111.392 256.56 147.527C229.941 149.354 204.461 159.181 183.498 175.696C181.292 173.835 178.981 172.11 176.603 170.49C170.569 149.32 170.292 126.909 175.844 105.6C151.364 117.461 129.608 134.286 111.954 154.975H111.817C101.3 141.631 102.025 97.6703 102.645 88.4989C99.5423 89.7401 96.5773 91.3261 93.7843 93.1879C84.5093 99.8079 75.8213 107.255 67.8213 115.426C58.7533 124.633 50.4443 134.563 43.0313 145.148C25.9643 169.352 13.8623 196.694 7.41431 225.587C7.27631 226.173 7.17331 226.759 7.07031 227.346C6.58731 229.69 4.79431 241.379 4.44931 243.93C4.44931 244.137 4.41531 244.309 4.38031 244.516C2.07031 256.618 0.622312 268.858 0.0703125 281.132C0.0703125 281.581 0.0703125 282.029 0.0703125 282.512C0.0703125 429.116 118.954 547.966 265.558 547.966C394.854 547.966 505.325 454.838 527.184 327.403C527.633 323.99 528.011 320.577 528.391 317.163C533.874 271.961 527.943 226.104 511.186 183.764L511.22 183.799ZM205.254 391.604C206.496 392.189 207.668 392.844 208.944 393.431L209.116 393.535C207.806 392.914 206.53 392.259 205.22 391.604H205.254Z" fill="url(#paint0_linear_108_10279)"/>
<path d="M511.219 183.799C499.669 156.043 476.327 126.082 457.95 116.6C471.017 141.907 480.085 169.076 484.843 197.177C484.843 197.107 484.843 197.211 484.878 197.418V197.694C509.979 265.617 496.325 334.679 476.672 376.846C446.261 442.149 372.613 509.038 257.315 505.798C132.743 502.281 23.0315 409.843 2.55151 288.787C-1.17249 269.685 2.55151 260.032 4.41251 244.482C1.82651 256.515 0.413516 268.79 0.103516 281.098C0.103516 281.547 0.103516 281.995 0.103516 282.478C0.103516 429.082 118.952 547.966 265.591 547.966C394.887 547.966 505.358 454.838 527.252 327.404C527.701 323.99 528.079 320.577 528.458 317.163C533.94 271.962 528.011 226.104 511.254 183.764L511.219 183.799Z" fill="url(#paint1_radial_108_10279)"/>
<path d="M511.219 183.799C499.669 156.043 476.327 126.082 457.95 116.6C471.017 141.907 480.085 169.076 484.843 197.177C484.843 197.107 484.843 197.211 484.878 197.418V197.694C509.979 265.617 496.325 334.679 476.672 376.846C446.261 442.149 372.613 509.038 257.315 505.798C132.743 502.281 23.0315 409.843 2.55151 288.787C-1.17249 269.685 2.55151 260.032 4.41251 244.482C1.82651 256.515 0.413516 268.79 0.103516 281.098C0.103516 281.547 0.103516 281.995 0.103516 282.478C0.103516 429.082 118.952 547.966 265.591 547.966C394.887 547.966 505.358 454.838 527.252 327.404C527.701 323.99 528.079 320.577 528.458 317.163C533.94 271.962 528.011 226.104 511.254 183.764L511.219 183.799Z" fill="url(#paint2_radial_108_10279)"/>
<path d="M382.199 215.002C382.786 215.416 383.303 215.829 383.855 216.209C377.2 204.382 368.891 193.556 359.203 184.04C276.694 101.532 337.585 5.12865 347.858 0.232642L347.962 0.0947266C281.28 39.1594 258.662 111.428 256.559 147.561C259.661 147.354 262.73 147.113 265.868 147.113C314.036 147.217 358.41 173.144 382.165 215.036L382.199 215.002Z" fill="url(#paint3_radial_108_10279)"/>
<path d="M266.041 231.482C265.593 238.102 242.286 260.859 234.114 260.859C158.605 260.859 146.365 306.509 146.365 306.509C149.71 344.952 176.466 376.639 208.91 393.396C210.392 394.155 211.875 394.844 213.393 395.533C215.943 396.671 218.564 397.74 221.184 398.74C232.287 402.67 243.94 404.911 255.732 405.394C388.028 411.601 413.68 247.205 318.208 199.452C342.653 195.21 368.03 205.037 382.235 214.967C358.48 173.075 314.07 147.147 265.903 147.044C262.766 147.044 259.663 147.319 256.595 147.491C229.976 149.319 204.496 159.146 183.533 175.661C187.567 179.074 192.153 183.66 201.807 193.142C219.805 210.899 266.007 229.31 266.111 231.448L266.041 231.482Z" fill="url(#paint4_radial_108_10279)"/>
<path d="M266.041 231.482C265.593 238.102 242.286 260.859 234.114 260.859C158.605 260.859 146.365 306.509 146.365 306.509C149.71 344.952 176.466 376.639 208.91 393.396C210.392 394.155 211.875 394.844 213.393 395.533C215.943 396.671 218.564 397.74 221.184 398.74C232.287 402.67 243.94 404.911 255.732 405.394C388.028 411.601 413.68 247.205 318.208 199.452C342.653 195.21 368.03 205.037 382.235 214.967C358.48 173.075 314.07 147.147 265.903 147.044C262.766 147.044 259.663 147.319 256.595 147.491C229.976 149.319 204.496 159.146 183.533 175.661C187.567 179.074 192.153 183.66 201.807 193.142C219.805 210.899 266.007 229.31 266.111 231.448L266.041 231.482Z" fill="url(#paint5_radial_108_10279)"/>
<path d="M171.119 166.87C172.981 168.042 174.808 169.283 176.602 170.524C170.568 149.354 170.292 126.943 175.843 105.635C151.363 117.495 129.607 134.322 111.953 155.009C113.229 155.009 151.742 154.284 171.119 166.87Z" fill="url(#paint6_radial_108_10279)"/>
<path d="M2.54922 288.822C23.0302 409.877 132.741 502.315 257.314 505.832C372.577 509.108 446.259 442.184 476.669 376.881C496.323 334.678 510.011 265.617 484.944 197.728V197.452C484.944 197.246 484.91 197.142 484.91 197.211L484.978 197.659C494.392 259.17 463.119 318.714 414.193 359.02L414.055 359.366C318.79 436.943 227.628 406.188 209.181 393.569C207.871 392.948 206.595 392.293 205.32 391.638C149.774 365.089 126.846 314.474 131.742 271.099C104.814 271.478 80.1612 255.997 68.8522 231.552C68.8522 231.552 110.951 201.52 166.462 227.621C197.907 241.896 233.661 243.31 266.141 231.552C266.037 229.38 219.836 211.002 201.838 193.246C192.218 183.764 187.632 179.179 183.564 175.766C181.391 173.903 179.082 172.179 176.702 170.558C175.116 169.49 173.358 168.317 171.22 166.904C151.843 154.32 113.364 155.043 112.089 155.043H111.951C101.435 141.7 102.159 97.7393 102.779 88.5679C99.6762 89.8091 96.7112 91.3952 93.9182 93.257C84.6442 99.877 75.9552 107.324 67.9562 115.496C58.8882 124.702 50.5782 134.631 43.1652 145.217C26.0982 169.421 13.9962 196.763 7.54922 225.656C7.41122 226.243 -2.03678 267.48 2.61822 288.89L2.54922 288.822Z" fill="url(#paint7_radial_108_10279)"/>
<path d="M359.201 184.04C368.889 193.556 377.199 204.383 383.853 216.21C385.233 217.243 386.577 218.313 387.853 219.485C448.019 274.927 416.505 353.401 414.16 358.986C463.051 318.714 494.324 259.135 484.946 197.625C454.88 122.805 403.989 92.6365 362.408 26.9541C360.27 23.6096 358.167 20.2308 356.167 16.7829C355.133 14.9899 354.167 13.1625 353.236 11.3007C351.512 7.95621 350.167 4.43935 349.272 0.784586C349.272 0.439796 349.03 0.129485 348.685 0.0605274C348.513 0.0260481 348.34 0.0260481 348.168 0.0605274C348.133 0.0605274 348.064 0.129485 348.03 0.129485C347.996 0.129485 347.892 0.198443 347.858 0.232922C337.583 5.12893 276.693 101.532 359.201 184.04Z" fill="url(#paint8_linear_108_10279)" fill-opacity="0.8"/>
<path d="M387.855 219.484C386.579 218.346 385.235 217.243 383.855 216.209C383.304 215.795 382.786 215.382 382.2 215.002C368.029 205.037 342.653 195.211 318.173 199.486C413.645 247.24 388.027 411.635 255.697 405.43C243.905 404.947 232.286 402.706 221.149 398.775C218.529 397.775 215.908 396.706 213.356 395.568C211.874 394.879 210.357 394.189 208.875 393.43L209.047 393.534C227.493 406.119 318.656 436.909 413.921 359.331L414.059 358.986C416.403 353.401 447.952 274.961 387.751 219.484H387.855Z" fill="url(#paint9_radial_108_10279)"/>
<path d="M146.399 306.509C146.399 306.509 158.639 260.859 234.148 260.859C242.319 260.859 265.662 238.068 266.076 231.482C233.63 243.239 197.841 241.827 166.397 227.552C110.92 201.451 68.7871 231.482 68.7871 231.482C80.0961 255.928 104.749 271.443 131.677 271.03C126.746 314.439 149.709 365.054 205.254 391.568C206.496 392.154 207.668 392.809 208.944 393.396C176.534 376.639 149.744 344.952 146.399 306.509Z" fill="url(#paint10_radial_108_10279)"/>
<path d="M511.22 183.799C499.669 156.043 476.326 126.081 457.949 116.6C471.017 141.907 480.085 169.076 484.843 197.177L484.912 197.624C454.88 122.771 403.99 92.6018 362.409 26.9195C360.27 23.575 358.167 20.196 356.168 16.7482C355.133 14.9552 354.167 13.1279 353.237 11.2659C351.513 7.92154 350.169 4.40469 349.272 0.749918C349.272 0.405128 349.031 0.0948176 348.685 0.0258593C348.513 -0.00861977 348.34 -0.00861977 348.168 0.0258593C348.134 0.0258593 348.065 0.0948176 348.03 0.0948176C347.996 0.0948176 347.893 0.163776 347.858 0.198254L347.962 0.0603386C281.279 39.125 258.661 111.392 256.558 147.527C259.661 147.32 262.729 147.079 265.868 147.079C314.034 147.182 358.409 173.11 382.164 215.002C367.994 205.037 342.618 195.211 318.137 199.487C413.609 247.24 387.991 411.636 255.661 405.429C243.869 404.946 232.25 402.706 221.113 398.775C218.493 397.775 215.873 396.706 213.322 395.568C211.839 394.879 210.321 394.19 208.839 393.431L209.011 393.535C207.701 392.914 206.426 392.259 205.15 391.604C206.391 392.189 207.563 392.844 208.839 393.431C176.429 376.674 149.639 344.988 146.294 306.544C146.294 306.544 158.534 260.894 234.043 260.894C242.215 260.894 265.557 238.103 265.97 231.518C265.868 229.345 219.665 210.968 201.667 193.211C192.048 183.73 187.462 179.144 183.393 175.731C181.186 173.869 178.911 172.11 176.532 170.524C170.498 149.354 170.222 126.943 175.774 105.635C151.294 117.495 129.537 134.322 111.884 155.009H111.747C101.23 141.665 101.954 97.7048 102.575 88.5334C99.472 89.7746 96.507 91.3606 93.714 93.2225C84.439 99.8424 75.75 107.29 67.751 115.462C58.683 124.668 50.374 134.597 42.961 145.182C25.894 169.386 13.792 196.729 7.34399 225.622C7.20599 226.208 7.10299 226.794 6.99899 227.38C6.51699 229.724 4.275 241.585 3.931 244.137C1.896 256.411 0.586 268.755 0 281.168C0 281.615 0 282.064 0 282.546C0 429.151 118.884 548 265.488 548C394.783 548 505.255 454.872 527.114 327.438C527.562 324.024 527.941 320.611 528.321 317.198C533.803 271.996 527.873 226.139 511.116 183.799H511.22ZM484.877 197.418V197.694H484.912V197.418H484.877Z" fill="url(#paint11_linear_108_10279)"/>
<defs>
<linearGradient id="paint0_linear_108_10279" x1="485.232" y1="84.5337" x2="59.4373" y2="492.596" gradientUnits="userSpaceOnUse">
<stop offset="0.05" stop-color="#FFF44F"/>
<stop offset="0.37" stop-color="#FF980E"/>
<stop offset="0.53" stop-color="#FF3647"/>
<stop offset="0.7" stop-color="#E31587"/>
</linearGradient>
<radialGradient id="paint1_radial_108_10279" cx="0" cy="0" r="1" gradientUnits="userSpaceOnUse" gradientTransform="translate(454.105 114.926) scale(544.585 553.729)">
<stop offset="0.13" stop-color="#FFBD4F"/>
<stop offset="0.28" stop-color="#FF980E"/>
<stop offset="0.47" stop-color="#FF3750"/>
<stop offset="0.78" stop-color="#EB0878"/>
<stop offset="0.86" stop-color="#E50080"/>
</radialGradient>
<radialGradient id="paint2_radial_108_10279" cx="0" cy="0" r="1" gradientUnits="userSpaceOnUse" gradientTransform="translate(262.561 287.874) scale(558.183 553.729)">
<stop offset="0.3" stop-color="#960E18"/>
<stop offset="0.35" stop-color="#B11927" stop-opacity="0.74"/>
<stop offset="0.43" stop-color="#DB293D" stop-opacity="0.34"/>
<stop offset="0.5" stop-color="#F5334B" stop-opacity="0.09"/>
<stop offset="0.53" stop-color="#FF3750" stop-opacity="0"/>
</radialGradient>
<radialGradient id="paint3_radial_108_10279" cx="0" cy="0" r="1" gradientUnits="userSpaceOnUse" gradientTransform="translate(331.367 -20.2613) scale(177.771 301.899)">
<stop offset="0.13" stop-color="#FFF44F"/>
<stop offset="0.53" stop-color="#FF980E"/>
</radialGradient>
<radialGradient id="paint4_radial_108_10279" cx="0" cy="0" r="1" gradientUnits="userSpaceOnUse" gradientTransform="translate(208.912 429.892) scale(235.025 257.644)">
<stop offset="0.35" stop-color="#3A8EE6"/>
<stop offset="0.67" stop-color="#9059FF"/>
<stop offset="1" stop-color="#C139E6"/>
</radialGradient>
<radialGradient id="paint5_radial_108_10279" cx="0" cy="0" r="1" gradientUnits="userSpaceOnUse" gradientTransform="translate(264.213 240.816) rotate(5.84609) scale(118.808 137.994)">
<stop offset="0.21" stop-color="#9059FF" stop-opacity="0"/>
<stop offset="1" stop-color="#6E008B" stop-opacity="0.6"/>
</radialGradient>
<radialGradient id="paint6_radial_108_10279" cx="0" cy="0" r="1" gradientUnits="userSpaceOnUse" gradientTransform="translate(269.642 38.8309) scale(187.345 188.139)">
<stop offset="0.1" stop-color="#FFE226"/>
<stop offset="0.79" stop-color="#FF7139"/>
</radialGradient>
<radialGradient id="paint7_radial_108_10279" cx="0" cy="0" r="1" gradientUnits="userSpaceOnUse" gradientTransform="translate(397.282 -91.0267) scale(893.633 750.192)">
<stop offset="0.11" stop-color="#FFF44F"/>
<stop offset="0.46" stop-color="#FF980E"/>
<stop offset="0.72" stop-color="#FF3647"/>
<stop offset="0.9" stop-color="#E31587"/>
</radialGradient>
<linearGradient id="paint8_linear_108_10279" x1="342.031" y1="-63.76" x2="452.363" y2="424.117" gradientUnits="userSpaceOnUse">
<stop stop-color="#FFF44F"/>
<stop offset="0.3" stop-color="#FF980E"/>
<stop offset="0.57" stop-color="#FF3647"/>
<stop offset="0.74" stop-color="#E31587"/>
</linearGradient>
<radialGradient id="paint9_radial_108_10279" cx="0" cy="0" r="1" gradientUnits="userSpaceOnUse" gradientTransform="translate(227.963 98.8379) scale(514.369 505.435)">
<stop offset="0.14" stop-color="#FFF44F"/>
<stop offset="0.48" stop-color="#FF980E"/>
<stop offset="0.66" stop-color="#FF3647"/>
<stop offset="0.9" stop-color="#E31587"/>
</radialGradient>
<radialGradient id="paint10_radial_108_10279" cx="0" cy="0" r="1" gradientUnits="userSpaceOnUse" gradientTransform="translate(392.599 131.299) scale(618.139 553.177)">
<stop offset="0.09" stop-color="#FFF44F"/>
<stop offset="0.63" stop-color="#FF980E"/>
</radialGradient>
<linearGradient id="paint11_linear_108_10279" x1="457.168" y1="84.4303" x2="116.68" y2="458.139" gradientUnits="userSpaceOnUse">
<stop offset="0.17" stop-color="#FFF44F" stop-opacity="0.8"/>
<stop offset="0.677885" stop-color="#FFF44F" stop-opacity="0"/>
</linearGradient>
</defs>
</svg>
