<svg width="120" height="120" viewBox="0 0 120 120" fill="none" xmlns="http://www.w3.org/2000/svg">

<path d="M47.003 66.9849H28.2589C25.898 66.9849 23.9664 65.0506 23.9664 62.6864C23.9664 60.3222 25.898 58.3879 28.2589 58.3879H47.003C49.3639 58.3879 51.2955 60.3222 51.2955 62.6864C51.2955 65.0506 49.3639 66.9849 47.003 66.9849ZM28.2589 47.57C25.898 47.57 23.9664 45.6357 23.9664 43.2715C23.9664 40.9073 25.898 38.973 28.2589 38.973H52.7979C55.1588 38.973 57.0904 40.9073 57.0904 43.2715C57.0904 45.6357 55.1588 47.57 52.7979 47.57H28.2589ZM56.2319 89.6954C53.9425 88.979 52.6548 86.6148 53.3702 84.3222L66.534 41.1222C67.2494 38.8297 69.6103 37.5401 71.8996 38.2566C74.189 38.973 75.4767 41.3372 74.7613 43.6297L61.5976 86.8297C60.8821 89.1222 58.5212 90.4118 56.2319 89.6954ZM94.4354 43.6297L81.2716 86.8297C80.5562 89.1222 78.1953 90.4118 75.906 89.6954C73.6166 88.979 72.3289 86.6148 73.0443 84.3222L86.208 41.1222C86.9235 38.8297 89.2843 37.5401 91.5737 38.2566C93.863 38.973 95.1508 41.4088 94.4354 43.6297Z" fill="#EFB41D"/>
<path d="M59.8807 120C26.8283 120 0 93.0627 0 60.0358C0 27.009 26.8283 0 59.8807 0C92.9332 0 119.761 26.9373 119.761 59.9642C119.761 92.991 92.9332 120 59.8807 120ZM59.8807 7.59403C31.0493 7.59403 7.58346 31.0925 7.58346 59.9642C7.58346 88.8358 31.0493 112.334 59.8807 112.334C88.7122 112.334 112.178 88.8358 112.178 59.9642C112.178 31.0925 88.7122 7.59403 59.8807 7.59403Z" fill="#EFB41D"/>
</svg>
