<svg xmlns="http://www.w3.org/2000/svg" viewBox="0 0 33.87 33.87"><g transform="translate(-32.28 -138.64)"><circle cx="49.21" cy="155.57" r="15.74" fill="none" stroke="currentColor" stroke-width=".26" opacity=".2" style="marker:none"/><path fill="#4641d9" d="M65.09 155.57a15.87 15.87 0 1 0-31.75 0 15.87 15.87 0 0 0 31.75 0z"/><path fill="#fff" d="M40.84 154.16c-.83 0-1.53-.68-1.42-1.5.1-.9.34-1.66.69-2.29a5 5 0 0 1 2.1-2.08 6.07 6.07 0 0 1 2.74-.65c.97 0 1.84.21 2.63.65a17 17 0 0 1 2.76 1.96c.7.6 1.27 1.02 1.67 1.27.42.25.88.37 1.4.37.81 0 1.46-.3 1.93-.88.23-.28.4-.62.5-1.02.24-.83.88-1.56 1.74-1.56.83 0 1.53.67 1.43 1.5-.1.9-.33 1.66-.7 2.29a4.98 4.98 0 0 1-2.1 2.08 6.07 6.07 0 0 1-5.39.04 14.4 14.4 0 0 1-2.75-2c-.68-.6-1.23-1.01-1.66-1.26a2.7 2.7 0 0 0-1.4-.38 2.43 2.43 0 0 0-2.47 1.91c-.2.83-.84 1.55-1.7 1.55zm0 8.56c-.83 0-1.53-.68-1.42-1.5.1-.9.34-1.66.69-2.29a5 5 0 0 1 2.1-2.08 6.07 6.07 0 0 1 2.74-.65c.97 0 1.84.22 2.63.65a17.5 17.5 0 0 1 2.76 1.96c.7.6 1.27 1.02 1.67 1.27.42.25.88.37 1.4.37.81 0 1.46-.3 1.93-.88.23-.28.4-.62.5-1.02.24-.83.88-1.56 1.74-1.56.83 0 1.53.67 1.43 1.5-.1.9-.33 1.66-.7 2.29a4.98 4.98 0 0 1-2.1 2.08 6.07 6.07 0 0 1-5.39.04 14.4 14.4 0 0 1-2.75-2c-.68-.6-1.23-1.01-1.66-1.26a2.7 2.7 0 0 0-1.4-.38 2.43 2.43 0 0 0-2.47 1.91c-.2.83-.84 1.55-1.7 1.55z"/></g></svg>