<svg xmlns="http://www.w3.org/2000/svg" fill="none" viewBox="0 0 104 38"><path fill-rule="evenodd" d="M57.51 26.691c1.04.366 2.336.549 3.887.549 1.55 0 2.84-.47 3.872-1.409 1.03-.939 1.545-2.19 1.545-3.752 0-.968-.206-1.783-.616-2.447-.41-.662-.91-1.146-1.5-1.453-.59-.305-1.18-.563-1.77-.77a8.14 8.14 0 0 1-1.501-.683c-.411-.247-.616-.567-.616-.964 0-.712.54-1.067 1.621-1.067.54 0 1.096.104 1.666.31.57.209.865.313.886.313.26 0 .54-.301.84-.905.3-.604.45-1.033.45-1.29 0-.771-.72-1.315-2.162-1.632a10.61 10.61 0 0 0-2.28-.236c-1.702 0-3.047.43-4.037 1.29-.99.86-1.486 2.031-1.486 3.514 0 .989.206 1.799.616 2.432.41.633.91 1.088 1.5 1.364.59.277 1.181.514 1.77.712.591.198 1.091.44 1.501.727.41.287.616.667.616 1.142 0 .889-.61 1.334-1.83 1.334-.561 0-1.181-.138-1.862-.415-.68-.278-1.04-.416-1.08-.416-.3 0-.64.287-1.02.86-.381.574-.571 1.019-.571 1.335 0 .673.52 1.191 1.56 1.557Zm-15.94-.623c.72.782 1.831 1.172 3.332 1.172.92 0 1.775-.218 2.565-.652.791-.436 1.426-.969 1.906-1.602.02.06.055.227.106.505.05.277.094.469.135.577.04.109.1.257.18.445.08.188.185.321.315.4.13.08.395.12.795.12s1.005-.08 1.815-.238c.811-.159 1.216-.395 1.216-.712l-.18-1.215c-.12-.832-.18-1.859-.18-3.085V12.38c0-.632-.6-.949-1.801-.949h-.84c-1.2 0-1.8.317-1.8.95v9.52c-.601 1.146-1.402 1.72-2.402 1.72-1.2 0-1.8-.613-1.8-1.84v-9.4c0-.633-.6-.95-1.801-.95h-.84c-1.201 0-1.802.317-1.802.95v10.054c0 1.64.361 2.851 1.08 3.632ZM71.59 19c0 10.04-8.237 18.178-18.395 18.178-10.16 0-18.394-8.139-18.394-18.178C34.8 8.962 43.036.823 53.195.823 63.353.823 71.59 8.962 71.59 19ZM3.378 27.315h-.12c-1.205 0-1.457-.492-1.457-.906V13.88H.858c-.32 0-.858-.149-.858-1.144v-.357c0-.995.537-1.143.858-1.143H1.8V8.673c0-1.786.506-2.997 1.503-3.598a4.996 4.996 0 0 1 2.625-.748c.606 0 2.45 0 2.45 1.144 0 .226-.064.529-.194.923-.059.18-.238.724-.695.724-.044 0-.116-.005-.472-.078-.224-.046-.544-.07-.953-.07-.36 0-.65.115-.881.353-.16.162-.348.57-.348 1.588v2.326H7.19c.32 0 .858.148.858 1.143v.357c0 .995-.537 1.144-.858 1.144H4.836V26.41c0 .414-.253.906-1.458.906Zm9.515-12.309c.635-.876 1.617-1.303 3.002-1.303 1.386 0 2.378.432 3.034 1.32.664.9 1 2.327 1 4.24 0 1.912-.336 3.333-1 4.223-.655.879-1.647 1.306-3.034 1.306-1.385 0-2.367-.426-3.002-1.303-.645-.89-.972-2.317-.972-4.242 0-1.924.327-3.351.972-4.24Zm-2.278 10.326c1.236 1.395 3.038 2.103 5.355 2.103 2.319 0 4.102-.704 5.299-2.091 1.186-1.376 1.787-3.408 1.787-6.037 0-2.63-.611-4.68-1.816-6.096-1.217-1.427-2.995-2.151-5.285-2.151-2.289 0-4.08.728-5.327 2.165-1.236 1.425-1.862 3.471-1.862 6.082 0 2.612.622 4.64 1.849 6.025Zm16.655 1.984h-.12c-1.205 0-1.457-.493-1.457-.906V16c0-1.184-.05-2.035-.146-2.532-.215-1.09-.215-1.162-.215-1.205 0-.25.13-.584.756-.763.854-.244 1.278-.2 1.507-.087.116.057.22.146.312.263.083.105.149.213.198.32.045.099.09.23.134.394.038.141.071.255.1.34.018.056.038.126.057.21 1.017-1.249 2.141-1.88 3.346-1.88.613 0 1.099.126 1.443.375.368.267.554.616.554 1.035 0 .363-.064.743-.192 1.132-.059.179-.238.725-.665.725-.082 0-.226-.021-.67-.179A3.15 3.15 0 0 0 31.185 14c-.376 0-.776.14-1.191.416-.433.289-.755.572-.957.845l-.31.383V26.41c0 .413-.253.906-1.458.906Zm51.681-7.281c.648-.249 2.117-.379 4.372-.388v3.05c-.675.585-1.342 1.043-1.985 1.366-.655.328-1.45.495-2.362.495-1.526 0-2.236-.675-2.236-2.123 0-.91.347-1.528 1.065-1.89a9.854 9.854 0 0 1 1.146-.51Zm-3.891 5.988c.96.768 2.239 1.159 3.798 1.159 1.854 0 3.455-.64 4.768-1.9.025.137.05.242.077.32.027.082.06.197.096.343a1.842 1.842 0 0 0 .317.72.862.862 0 0 0 .317.288c.226.109.65.15 1.477-.085.615-.177.743-.507.743-.752 0-.04 0-.079-.21-1.176-.094-.505-.142-1.337-.142-2.476v-6.492c0-1.504-.546-2.697-1.622-3.546-1.06-.835-2.436-1.258-4.09-1.258-1.626 0-3.043.215-4.21.639-1.285.467-1.884.934-1.884 1.47 0 .248.13.567.405 1.004.302.477.58.7.879.7.074 0 .124 0 .791-.347 1.15-.578 2.424-.87 3.784-.87 1.997 0 2.97.712 2.97 2.18v1.113a45.73 45.73 0 0 0-4.322.3 7.978 7.978 0 0 0-3.712 1.438c-1.13.81-1.704 2.035-1.704 3.64 0 1.6.496 2.807 1.474 3.588Zm18.344 1.158a4.482 4.482 0 0 1-2.782-.937c-.835-.636-1.259-1.752-1.259-3.316V8.308c0-.406.249-.891 1.43-.891h.118c1.182 0 1.43.485 1.43.892v14.386c0 1.695.757 1.891 1.327 1.891.314 0 .583-.022.798-.067.35-.072.419-.078.463-.078.3 0 .53.24.684.712.128.387.19.682.19.905 0 1.123-1.805 1.123-2.399 1.123Zm5.414-.937c.814.622 1.749.937 2.782.937.593 0 2.398 0 2.398-1.123 0-.223-.061-.518-.189-.905-.155-.472-.385-.712-.684-.712-.045 0-.113.006-.464.078a3.969 3.969 0 0 1-.797.067c-.57 0-1.326-.196-1.326-1.89V8.308c0-.407-.249-.892-1.432-.892h-.116c-1.182 0-1.431.485-1.431.892v14.619c0 1.564.424 2.68 1.259 3.316Z" clip-rule="evenodd" style="fill:#586cf5"/></svg>