<svg xmlns="http://www.w3.org/2000/svg" xmlns:xlink="http://www.w3.org/1999/xlink" width="100" height="100">
    <defs>
        <radialGradient id="a" cx="100.8%" cy="11.3%" r="77.6%" fx="100.8%" fy="11.3%" gradientTransform="scale(.97 1)">
            <stop offset="0%" stop-color="#f8faff"/>
            <stop offset="40.4%" stop-color="#e0efff"/>
            <stop offset="86.5%" stop-color="#5682b4"/>
            <stop offset="100%" stop-color="#4071ad"/>
        </radialGradient>
        <radialGradient id="b" cx="65.3%" cy="7.9%" r="96.8%" fx="65.3%" fy="7.9%" gradientTransform="matrix(.8418 0 0 1 .1 0)">
            <stop offset="0%" stop-color="#f1f2f2"/>
            <stop offset="77%" stop-color="#1c396e"/>
            <stop offset="100%" stop-color="#fff"/>
        </radialGradient>
        <radialGradient id="c" cx="65.3%" cy="7.9%" r="96.9%" fx="65.3%" fy="7.9%" gradientTransform="matrix(.8378 0 0 1 .1 0)">
            <stop offset="0%" stop-color="#f1f2f2"/>
            <stop offset="77%" stop-color="#1c396e"/>
            <stop offset="100%" stop-color="#6374a7"/>
        </radialGradient>
        <radialGradient id="i" cx="50.4%" cy="49.2%" r="65.2%" fx="50.4%" fy="49.2%" gradientTransform="scale(.8277 1)">
            <stop offset="0%" stop-color="#01d1fe"/>
            <stop offset="17%" stop-color="#00cdfd"/>
            <stop offset="33%" stop-color="#00c2fb"/>
            <stop offset="48%" stop-color="#00aff8"/>
            <stop offset="63%" stop-color="#0095f4"/>
            <stop offset="69%" stop-color="#0088f2"/>
            <stop offset="100%" stop-color="#002a90"/>
        </radialGradient>
        <radialGradient id="j" cx="50%" cy="78.9%" r="60.5%" fx="50%" fy="78.9%" gradientTransform="matrix(.5202 0 0 1 .2 0)">
            <stop offset="0%" stop-color="#00217d"/>
            <stop offset="100%" stop-color="#00104e"/>
        </radialGradient>
        <radialGradient id="m" cx="50%" cy="-352.3%" r="0%" fx="50%" fy="-352.3%" gradientTransform="matrix(1 0 0 .6663 0 -1.2)">
            <stop offset="0%" stop-color="#001f5c"/>
            <stop offset="100%" stop-color="#000b34"/>
        </radialGradient>
        <radialGradient id="n" cx="50%" cy="50%" r="61.2%" fx="50%" fy="50%" gradientTransform="matrix(.2409 -.68657 .97055 .17041 -.1 .8)">
            <stop offset="0%" stop-color="#fff" stop-opacity=".4"/>
            <stop offset="100%" stop-color="#f8faff" stop-opacity="0"/>
        </radialGradient>
        <ellipse id="k" cx="4.7" cy="7.1" rx="4.7" ry="7.1"/>
        <ellipse id="o" cx="4.7" cy="7.1" rx="4.7" ry="7.1"/>
        <path id="d" d="M45.1 75.4a50 50 0 0 1-31.8-11.6 40 40 0 0 1-9.7-12.4 33 33 0 0 1 9.8-41.2A52 52 0 0 1 45 0c12 0 23.4 3.6 31.7 10.2a33 33 0 0 1 9.8 41.2A40 40 0 0 1 77 63.8q-6.3 5.5-14.3 8.4A50 50 0 0 1 45 75.4"/>
        <path id="g" d="M42.8 71.4a47 47 0 0 1-30.2-10.9q-6-5.1-9.2-11.8a31 31 0 0 1 9.3-39.1c8-6.2 18.6-9.6 30-9.6C54.3 0 65 3.4 72.9 9.6a31 31 0 0 1 9.3 39.1A38 38 0 0 1 73 60.5a47 47 0 0 1-30.1 11"/>
        <linearGradient id="e" x1="15.4%" x2="93.3%" y1="75.9%" y2="32.9%">
            <stop offset="0%" stop-color="#1c396e"/>
            <stop offset="100%" stop-color="#fff"/>
        </linearGradient>
    </defs>
    <g fill="none" fill-rule="evenodd">
        <path fill="url(#a)" fill-rule="nonzero" d="M100 49.9C100 78.3 77.6 97 50 97S0 78.6 0 49.9A49.3 49.3 0 0 1 50.1 0 49.3 49.3 0 0 1 100 49.9" transform="translate(0 2)"/>
        <g fill-rule="nonzero">
            <path fill="url(#b)" d="M47 79a52 52 0 0 1-33-12A42 42 0 0 1 3.7 54Q0 46.4 0 38.2a35 35 0 0 1 14-27.7A53 53 0 0 1 47 0a53 53 0 0 1 32.7 10.5A35 35 0 0 1 90 54a42 42 0 0 1-10 13 52 52 0 0 1-33 12" transform="translate(3.2 15.8)"/>
            <path fill="url(#c)" d="M47 77.8a51 51 0 0 1-32.3-11.7q-6.3-5.5-10-12.6-3.5-7.3-3.6-15.3c0-10.4 4.9-19.9 13.7-26.8A52 52 0 0 1 46.9 1.1c12.2 0 23.7 3.7 32.1 10.3a34 34 0 0 1 10 42.1q-3.4 7.1-9.9 12.6A51 51 0 0 1 47 77.8" transform="translate(3.2 15.8)"/>
        </g>
        <g transform="translate(5 17.7)">
            <mask id="f" fill="#fff">
                <use xlink:href="#d"/>
            </mask>
            <g fill="url(#e)" fill-rule="nonzero" mask="url(#f)">
                <path d="M46.9 75.4 0 39.3V22.8l1-1.3 69.2 53.3-.4.6zM0 39.3l46.9 36h-16L0 51.7zm0 12.3 30.8 23.8H0zm2.4-32 69.3 53.3-1.5 2L1 21.4zM3 19l69 53.3-.1.2-.1.2-.2.2L2.4 19.6l.2-.2.1-.2zm.5-.7 69.3 53.3-.1.2-.3-.2.3.2-.2.1-.1.2-.2.2L3 19l.1-.2.3-.3zm.5-.6L73 71l-.1.2-.1.2-.2.2L3.4 18.3l.2-.2.1-.2zm.5-.7 69.3 53.3-.1.2-.2.1-.5-.3.5.3-.1.2-.2.2L4 17.7l.1-.2.1-.2.2-.1zm.9-1.1 69.3 53.3-.2.1-.1.2-.2.2-.1.2-.7-.6.7.6-.2.2-.1.2L4.4 17l.2-.2.1-.2.1-.2.2-.2.1-.2zm.5-.8 69.3 53.3-.1.2-.2.2-.1.2-.1.2L5.3 15.9l.1-.2.2-.2.1-.2zm.5-.5 69.2 53.3-.1.1-.1.2-.2.2L5.8 15.1 6 15l.2.2L6 15l.1-.1zm.5-.8 69.3 53.3-.1.2-.2.2-.1.2-.2.2L6.3 14.6l.1-.2.1-.2.5.4-.5-.4.2-.2zm1-1.3 69.3 53.3-.1.2-.2.2-.1.2-.2.2-.1.2-.1.1-.2.2L6.8 13.8l.2-.2.2.2-.2-.2.1-.1.2-.2.1-.2.1-.2.5.4-.5-.4.2-.2zm.4-.5 69.3 53.3-.1.2-.2.1-.1.2L7.8 12.5l.2-.2.1-.1.5.3-.5-.3zm.6-.8 69.3 53.3-.1.2-.2.2-.1.2-.2.2L8.3 12v-.2l.3.2-.2-.2.1-.2.2-.2zm1-1.3 69.3 53.3-.2.2v.2l-.2.2-.2.2L9.2 10.7l.2-.2.2.2-.2-.2.1-.2.2-.2zm2.4-3.1L81.5 60l-.1.2-.2.2-.1.1L11.8 7.3l.1-.1.2-.2zm5-6.5 69.3 53.3-.2.2-1.4-1.1 1.4 1-.1.3-.2.2-.1.1L16.6 1l.2-.1.1-.2.1-.2zm31-.3 42 32.4v.5L47.4 0zm30.2 64.2-.2.1-.1.2L8.8 11.2 9 11l.5.3L9 11l.1-.2L78.5 64zl-1-.8zm.8-1.2-.1.2L9.8 10l.1-.1.3.1-.3-.1.2-.2.1-.2 69.3 53.3-.1.2zl-.4-.3zm.7-.9-.1.2-.1.2-.2.2L10.2 9.4l.2-.2.1-.2.2-.2.4.4-.4-.4.1-.2L80.1 62zl-.4-.3zm.3-.3-.1.1L10.8 8.6l.1-.1.5.3-.5-.3.2-.2.1-.2 69.3 53.3-.1.2zl-1-.8zm.6-.8-.2.2v.2L11.1 8l.2-.2.1-.2.5.4-.5-.4.2-.2v-.2L81 60.5l-.2.2zl-.5-.4zm1-1.3-.2.2-.1.2L12.2 6.8l.2-.2.1-.2.7.6-.7-.6.1-.2L82 59.5zl-.7-.5zm.5-.7v.2l-.2.1-.2.2L12.6 6.2l.2-.2.5.4-.5-.4.1-.1.2-.2.5.3-.5-.3.1-.2 69.3 53.3zl-.5-.4zm.3-.4-.1.2L13.2 5.5l.2-.2.4.4-.4-.4.1-.2.1-.2L83 58.2l-.1.2zl-.4-.4zm.6-.7-.1.1-.2.2L13.6 5l.2-.2.1-.1.5.3-.5-.3.2-.2.1-.2 69.3 53.3-.2.2zl-.5-.4zm.4-.6-.1.2L14.2 4.2l.1-.2.5.4-.5-.4.2-.2.1-.2L84 57l-.1.2zl-1-.7zm.6-.7-.1.2-.2.1L14.6 3.6l.2-.1.1-.2.5.3-.5-.3.2-.2v-.2l69.4 53.3-.2.2zl-.5-.4zm.6-.8-.2.2-.1.2L15.2 2.9l.1-.2.2-.2.5.4-.5-.4.1-.2L85 55.6zl-.5-.3zm.2-.3-.1.1L15.6 2.3l.2-.1.4.3-.4-.3.1-.2.1-.2.2-.2 69.3 53.3-.2.2-.1.2zl-.4-.4zm.8-1-.2.2-.1.2L16.2 1.6l.1-.2.2-.2.5.4-.5-.4.1-.2L86 54.3zl-1-.7zm4.4-20v.5l-20-15.4 20 15.4v1.5L76.8 26.2l13.4 10.3v.6L67.5 19.6 90.2 37v1.4l-22.1-17 22.1 17v.6l-10.7-8 10.7 8v1.5L72.5 27l17.7 13.6v.6l-24-18.4 24 18.4v1.5L75 30.9l15.3 11.8v.5L76.8 33l13.4 10.3v1.5L68.8 28.2l21.4 16.5v.6L71.5 31l18.7 14.4v1.5L75 35l15.3 11.8v.6L68.8 30.9l21.4 16.5v1.3l-.2.3-42.3-32.6L90 49l-.1.2-.2.1L73 36.5l16.7 12.8-.1.2-.3.4-9.4-7.2 9.4 7.2-.1.2-.2.2-20.6-15.9L89 50.3l-.1.2-.2.1L68.4 35l20.3 15.6-.1.2-.2.2v.2l-.2.2-6-4.6 6 4.6-.2.2L69.2 37 88 51.6l-.1.2-.2.1L67 36l20.8 16-.1.2-.1.2-42.8-33 42.8 33-.2.2-.1.2-.2.2-.1.2-.2.1L64.2 36l22.5 17.3-.1.2-.1.2L17.2.3l.1-.2.1-.1h10.1l5.2 4-5.2-4h5.7L36 2.2 33.2 0H36l1.9 1.4-2-1.4h3.8l2.8 2.2L39.7 0h3.9l2 1.6-2-1.6h3.8l42.8 33zL71 19.6zM57 0h33.2v26.2l-11.5-8.9 11.5 8.9v2L75.6 17l14.6 11.2v2.1l-11.4-8.8 11.4 8.8v.6L74.8 19l15.4 12v1.5L48.2 0h.3l4.3 3.3L48.5 0H52l2.8 2.2L52 0h3.8l4.7 3.6L55.8 0zl.6.5z"/>
            </g>
        </g>
        <path fill="#6374a7" fill-rule="nonzero" d="M50 93.2a50 50 0 0 1-31.8-11.6 40 40 0 0 1-9.8-12.5q-3.6-7.3-3.6-15c0-10.3 4.8-19.6 13.4-26.4a52 52 0 0 1 31.9-10.2c12 0 23.4 3.6 31.8 10.2A33 33 0 0 1 91.7 69 40 40 0 0 1 82 81.6q-6.3 5.4-14.4 8.5-8.5 3-17.5 3m0-75.4c-12 0-23.2 3.6-31.5 10.1a33 33 0 0 0-9.8 41q3.4 7.1 9.7 12.4 6.3 5.5 14.3 8.4a50 50 0 0 0 49-8.4Q88 76 91.4 69 95 61.8 95 54c0-10-4.7-19.3-13.3-26A51 51 0 0 0 50 17.7"/>
        <g transform="translate(7.3 21.6)">
            <mask id="h" fill="#fff">
                <use xlink:href="#g"/>
            </mask>
            <g fill="#6374a7" fill-rule="nonzero" mask="url(#h)">
                <path d="M23.4-.9v.8h.1l.3-.7V0h.2l.2-.6V0h.2l.2-.5V0h.2l.2-.4V0h.3v-.3.3h.4v-.2.2h.9v-.2l.1-.2V0h.3l.3-.8V0h.1l.3-.7V0h.2l.2-.6V0h.2l.2-.4V0h.2l.1-.3V0h1.3v-.1l.1-.3V0h1.3l.1-.4V0h2.6l.2-.4V0h1.2v-.2l.3-.5V0h1l.2-.2V0h1.3l.2-.4V0h1.2v-.1l.3-.4V0h1.1l.3-.6V0h2.6q0-.2.3-.5V0h1.2l.2-.3V0H47v-.1h1.5l.1-.1V0H50l.2-.2V0h3.2l.2-.2V0h1.7l.1-.1h2.1L59-.8V0h2.1q2.2-.6 4.2 0H68v-.5l.7.5h1.9v-.4l.4.4h1.4v-.6l.5.6h1.4v-.5l.3.5h3.1v-.1h2.9v-.6l.2.7h1.3v-.5l.2.5H85v-.6l.2.6h.4v2.7l.2 1.3a26 26 0 0 1-.2 4.8v5h.3l-.3 1v2h.6q-.1.7-.6 1.4v1.7h.6l-.6 1.1v2.2h.2l-.2.3v1.8h.4l-.4.5v1.7h.4l-.4.4v1.8h.2l-.2.2v1.4h.5l-.5.6v1h.8l-.8.8v.2h.4l-.2.3h.5l-.7.7v.3h.3l-.3.3h.6l-.6.6v.5h.1v.3h.3l-.3.3h.5l-.6.5v.5h.1v.3h.3l-.3.3h.5l-.6.6v.8h.3l-.3.3h.6l-.6.5v.2h.4l-.4.4v.3h.2l-.2.2v.2h.5q-.3 0-.4.3h.6l-.7.5v.9h.3l-.3.2v.1h.5l-.4.4h.6l-.7.5v.2h.5l-.5.4v.3h.3l-.3.2v.1h.5l-.5.4h.7l-.7.5v.2h.4l-.4.3v.4h.1v.4h.3l-.4.2v.1h.6l-.5.4h.7l-.8.5v.2h.5l-.5.3v.5h.2-.2v.3h.4l-.4.2v.2h.6l-.5.3h.7l-.8.5v.3h.4l-.4.2v.9h.3l-.3.1v.2h.5l-.5.3v.1h.7l-.7.4v.4h.3l-.3.1v.2h.5l-.5.3v.9h.2-.2v.3h.4l-.4.3h.6l-.5.4h.7l-.8.5v.3h.4l-.4.2v.2h.6l-.6.3v.5h.1v.3h.2l-.3.2v.2h.5l-.5.3h.6l-.6.5h.8l-.8.4v.3h.3l-.3.2v.2h.5l-.5.3h.7l-.7.5v.4h.2-.2v.4h.3l-.4.2v7.4H67.8L66 72v-.3h-.5l-2.4.5v-.5l-2.9.5v-.5l-5.7.5q-4.8.1-9.5-.5h-2v.5l-2.9-.5v.4l-2.2-.6H0V0h3.5v-.4.3H4v-.2.2h.4v-.1h.9l.2-.6v.7h.2l.2-.7V0H6l.2-.6V0h.3l.1-.5V0H7v-.5.4h.3l.1-.4V0h.3l.1-.3V0h.4v-.2.2h.4v-.2.2h.8l.2-.4v-.3.7h.3v-.2l.2-.4V0h.2v-.2l.2-.4V0h.2l.2-.5V0h.2l.2-.4V0h.3v-.3.3h.4v-.2.2h.4v-.2.2h.5l.2-.7V0h.2l.2-.6V0h.2l.2-.6V0h.2l.2-.5V0h.3v-.4.4h.4v-.3.3h.4v-.2.2h.4v-.1h.9l.2-.5V0h.2l.2-.5V0h.2v-.1l.2-.3V0h.3v-.3.3h.4q0-.4.3-.8V0h.1l.3-.7V0h.2l.2-.6V0h.2l.2-.5V0h.2l.2-.4V0h.2l.1-.3V0h.4v-.2.2h.4v-.1h.9v-.1l.1-.3V0h.3l.1-.4V0h.3z"/>
            </g>
        </g>
        <path fill="#fff" fill-rule="nonzero" d="M50 93.1a48 48 0 0 1-30.1-11 38 38 0 0 1-9.3-11.7A31.4 31.4 0 0 1 20 31.2a49 49 0 0 1 30.2-9.7 49 49 0 0 1 30 9.5 31.4 31.4 0 0 1 9.3 39.3 38 38 0 0 1-9.2 11.8q-6 5-13.6 8-8 3-16.6 3m0-71.4c-11.4 0-22 3.4-30 9.6a31 31 0 0 0-9.2 39Q14.1 76.8 20 82q6 5 13.5 8a47 47 0 0 0 46.6-8q6-5.2 9.2-11.7 3.4-7 3.4-14.3c0-9.5-4.5-18.3-12.6-24.7-8-6.2-18.6-9.6-30-9.6"/>
        <path fill="url(#i)" fill-rule="nonzero" d="M91 54c0 19-18.3 35.2-41 35.2C27.6 89.2 9.3 72.9 9.3 54c0-18.8 18.3-32.6 40.9-32.6S91 35.2 91 54" transform="translate(0 2)"/>
        <g fill-rule="nonzero">
            <path fill="#4de9fe" d="M60.4 65.4c0 4.4-4.6 8.1-10.3 8.1-5.6 0-10.3-3.7-10.3-8.1 0-4.5 4.7-1.7 10.3-1.7s10.3-2.8 10.3 1.7"/>
            <path fill="url(#j)" d="M20.6 2.5c0 4.5-4.6 8.2-10.3 8.2S0 7 0 2.5 4.6 1 10.3 1s10.3-3 10.3 1.5" transform="translate(39.8 62.4)"/>
        </g>
        <g transform="translate(25 44.2)">
            <g transform="translate(0 .4)">
                <mask id="l" fill="#fff">
                    <use xlink:href="#k"/>
                </mask>
                <g fill="#20c7f5" fill-rule="nonzero" mask="url(#l)">
                    <path d="M0 14h9.4v.1zm0-.3h9.4v.4H0zm0-1.1h9.4v1.1H0zm9.4 0H0v-.3h9.4zm0-.3H0V0h9.4z"/>
                </g>
            </g>
            <g fill-rule="nonzero">
                <ellipse cx="4.7" cy="7.1" fill="url(#m)" rx="4.7" ry="7.1"/>
                <path fill="#021b7c" d="M4.8 13c-2.2 0-4-2.5-4-5.6q0-1.2.4-2.3a8 8 0 0 0-.5 2.7c0 3.1 1.8 5.7 4 5.7 1.6 0 3-1.4 3.6-3.4-.6 1.7-2 3-3.5 3" opacity=".7"/>
            </g>
            <ellipse cx="6.3" cy="4.4" fill="url(#n)" fill-rule="nonzero" rx="2.3" ry="3.3" transform="rotate(-27 6.3 4.4)"/>
        </g>
        <g transform="translate(64.6 44.2)">
            <g transform="translate(0 .4)">
                <mask id="p" fill="#fff">
                    <use xlink:href="#o"/>
                </mask>
                <g fill="#20c7f5" fill-rule="nonzero" mask="url(#p)">
                    <path d="M0 14h9.4v.1zm0-.3h9.4v.4H0zm0-1.1h9.4v1.1H0zm9.4 0H0v-.3h9.4zm0-.3H0V0h9.4z"/>
                </g>
            </g>
            <g fill-rule="nonzero">
                <ellipse cx="4.7" cy="7.1" fill="url(#m)" rx="4.7" ry="7.1"/>
                <path fill="#021b7c" d="M4.8 13c-2.2 0-4-2.5-4-5.6q0-1.2.4-2.3a8 8 0 0 0-.5 2.7c0 3.1 1.8 5.7 4 5.7 1.6 0 3-1.4 3.6-3.4-.6 1.7-2 3-3.5 3" opacity=".7"/>
            </g>
            <ellipse cx="6.3" cy="4.4" fill="url(#n)" fill-rule="nonzero" rx="2.3" ry="3.3" transform="rotate(-27 6.3 4.4)"/>
        </g>
    </g>
</svg>
