<svg clip-rule="evenodd" fill-rule="evenodd" stroke-linejoin="round" stroke-miterlimit="2" viewBox="0 0 560 400" xmlns="http://www.w3.org/2000/svg"><g transform="matrix(2.51518 0 0 2.51518 30 162.272)"><path d="m136.108 5.893 6.356 23.513h-4.7l-1.218-5.334h-6.587l-1.284 5.334h-4.545l6.52-23.513h5.468zm-2.833 4.107-2.436 10.242h4.806zm-65.8 1.7c2.02 0 3.508.522 4.463 1.563s1.432 2.674 1.432 4.9v11.263h-3.95v-1.9c-.505.746-1.114 1.323-1.828 1.73-.706.405-1.508.615-2.322.61-1.405 0-2.502-.45-3.294-1.35s-1.176-2.182-1.176-3.786c0-1.734.577-3.1 1.73-4.1s2.804-1.586 4.956-1.762l1.78-.132v-1.02c0-1.03-.153-1.788-.462-2.27s-.8-.725-1.482-.725c-.615 0-1.086.187-1.415.56s-.56.966-.7 1.78l-3.887-.33c.264-1.713.9-2.98 1.9-3.804s2.427-1.235 4.25-1.235zm1.78 9.78-1.317.132c-.988.088-1.752.373-2.3.856s-.808 1.13-.808 1.943c0 .724.153 1.28.463 1.662s.756.577 1.35.577c.748.022 1.459-.331 1.894-.939.472-.626.708-1.476.708-2.553v-1.68zm-25.26-9.78c2.064 0 3.617.714 4.66 2.14s1.563 3.535 1.563 6.323v1.68h-8.825c.044 3.338.9 5.005 2.536 5.005.66 0 1.152-.202 1.482-.608s.548-1.092.66-2.06h4.084c-.177 1.888-.797 3.322-1.86 4.298s-2.542 1.465-4.43 1.465c-2.282 0-3.972-.73-5.07-2.2s-1.647-3.716-1.647-6.768c0-3.03.58-5.334 1.745-6.915s2.869-2.36 5.107-2.36zm-.133 3.03c-.8 0-1.372.346-1.744 1.038s-.604 1.84-.7 3.442h4.676c0-1.56-.18-2.695-.544-3.4s-.927-1.07-1.696-1.07zm-14.29-3.03c2.064 0 3.617.714 4.66 2.14s1.563 3.535 1.563 6.323v1.68h-8.825c.044 3.338.9 5.005 2.536 5.005.66 0 1.152-.202 1.482-.608s.55-1.092.66-2.06h4.084c-.177 1.888-.797 3.322-1.86 4.298s-2.542 1.465-4.43 1.465c-2.282 0-3.972-.73-5.07-2.2s-1.647-3.716-1.647-6.768c0-3.03.58-5.334 1.745-6.915s2.867-2.37 5.105-2.37zm-.133 3.03c-.8 0-1.372.346-1.744 1.038s-.604 1.84-.7 3.442h4.676c0-1.56-.18-2.695-.544-3.4s-.927-1.07-1.696-1.07zm-29.439-8.8v23.513h4.645v-9.55h7.3v-4.15h-7.3v-5.665h7.837v-4.148zm13.7 23.477v-17.2h4.215v2.306c.46-.834 1-1.477 1.647-1.927s1.305-.675 2-.675c.352 0 .747.054 1.185.165l-.493 3.952c-.33-.087-.757-.132-1.285-.132-.792-.018-1.554.306-2.09.89-.56.594-.84 1.33-.84 2.206v10.406h-4.339zm39.813 0v-19.364h-5.335v-4.15h15.315v4.15h-5.336v19.365zm30.792 0-2.832-5.665-2.7 5.665h-4.28l4.84-8.727-4.545-8.464h4.6l2.47 5.204 2.536-5.204h4.282l-4.676 8.234 4.908 8.957zm17.652-23.514h4.644v15.083c0 2.92-.68 5.155-2.04 6.702s-3.328 2.322-5.897 2.322-4.533-.773-5.896-2.322-2.04-3.78-2.04-6.702v-15.083h4.644v15.413c0 1.537.27 2.68.807 3.424s1.366 1.12 2.486 1.12 1.948-.373 2.487-1.12.807-1.887.807-3.424v-15.413zm12.118 13.14c-1.865-.548-3.237-1.377-4.116-2.486s-1.318-2.564-1.318-4.364c0-2.085.682-3.754 2.042-5.005s3.163-1.878 5.4-1.878c2.13 0 3.788.538 4.973 1.614s1.93 2.733 2.24 4.972l-4.414.594c-.22-1.23-.548-2.103-.987-2.62s-1.087-.774-1.943-.774-1.515.247-1.977.74-.7 1.224-.7 2.2c0 .813.175 1.444.527 1.894s.955.806 1.812 1.07l2.503.8c1.338.418 2.415.94 3.227 1.564.783.594 1.397 1.384 1.78 2.29.376.9.56 1.977.56 3.228 0 2.196-.675 3.936-2.025 5.22s-3.179 1.908-5.507 1.908c-4.897 0-7.5-2.547-7.84-7.64h4.612c.1 1.34.422 2.316.938 2.93s1.3.922 2.355.922c.9 0 1.597-.27 2.1-.807s.74-1.312.74-2.322c0-.9-.203-1.614-.6-2.14s-1.048-.92-1.926-1.185l-2.438-.724z" fill="#212f63"/><path d="m140.638 5.893 1.207 4.25h49.07v-4.25zm2.7 9.463 1.213 4.25 46.373-.007v-4.25zm2.79 9.802 1.208 4.25h43.6v-4.25z" fill="#bf2032"/><path d="m195.992 2.462h.33c.364 0 .546-.143.546-.432.005-.113-.036-.223-.115-.304-.076-.076-.212-.115-.406-.115h-.354v.85zm-.52 1.295v-2.577h.964c.27 0 .502.06.698.183s.29.336.29.64c0 .153-.042.294-.126.425s-.2.223-.343.273l.584 1.053h-.584l-.444-.89h-.52v.89h-.52zm.913.774c.255.001.508-.049.743-.147.232-.097.433-.234.6-.412.174-.185.31-.402.4-.64.1-.265.15-.547.147-.831.002-.28-.048-.558-.147-.819-.098-.25-.23-.465-.4-.648-.169-.181-.374-.326-.601-.425-.234-.1-.48-.153-.743-.153-.257-.002-.512.05-.748.153-.224.099-.426.244-.591.425-.169.191-.302.41-.394.648-.097.25-.145.522-.145.82-.004.284.046.565.145.831.098.25.23.462.394.64s.363.316.59.412c.237.1.491.15.748.147zm0 .47c-.318.003-.634-.06-.927-.184-.288-.122-.538-.293-.754-.514-.221-.227-.396-.494-.515-.787-.127-.304-.19-.643-.19-1.015s.062-.71.19-1.016c.12-.293.295-.56.515-.787.215-.22.471-.394.754-.514.288-.123.596-.184.927-.184.32-.002.637.061.933.184.293.123.545.293.76.514s.388.483.515.787.2.643.2 1.016-.063.71-.2 1.015-.298.568-.515.787-.468.392-.76.514c-.295.124-.613.186-.933.184z" fill="#212f63"/></g></svg>