<svg xmlns="http://www.w3.org/2000/svg" viewBox="0 0 21.087 21.735"><path fill="#023d6b" fill-rule="evenodd" d="M7.821 9.268 11.365.054A12.183 12.183 0 0 0 10.202 0C8.294 0 6.403.49 4.75 1.454A10.955 10.955 0 0 0 .752 5.452c-.091.145-.164.309-.255.472v.055l-.145.4c-1.09 2.78.563 4.834 2.162 5.433.455.164.927.255 1.4.255.727 0 1.417-.182 2.053-.546a4.233 4.233 0 0 0 1.509-1.49 3.63 3.63 0 0 0 .345-.763m6.433 2.362c-2.108 5.525-7.215 7.597-11.885 6.797a11.184 11.184 0 0 0 2.381 1.854 10.791 10.791 0 0 0 5.452 1.453c1.908 0 3.762-.49 5.434-1.453a11.045 11.045 0 0 0 3.998-3.98 11.01 11.01 0 0 0 1.454-5.434c0-1.908-.509-3.816-1.454-5.452a10.581 10.581 0 0 0-1.98-2.49l-3.4 8.705"/></svg>