<svg xmlns="http://www.w3.org/2000/svg" fill="none" viewBox="0 0 500 500"><g clip-path="url(#a)"><path fill="#555E63" d="M218.857 235.572c-22.286 0-40.572 18.286-40.572 40.571v45.715H292l16-30.286h-97.715v-12c0-7.429 5.715-13.143 13.143-13.143h64c24 0 42.857-19.428 42.857-42.857s-19.428-42.857-42.857-42.857l-76-1.143c-16.571 0-30.285 13.714-30.285 30.286h104c6.857 0 12.571 5.143 13.142 12.571 0 6.857-5.142 12.572-12 13.143h-67.428Z"/><path fill="#F05F00" d="M72.571 291.001C50.286 291.001 32 272.715 32 250.429s18.286-40.571 40.571-40.571h81.715v-30.286h-84C31.429 180.143 0 211.572 0 250.429s31.429 70.857 70.857 70.857h84v-85.714H64v30.286h59.429v25.143H72.571Z"/><path fill="#0E9FE2" d="M434.286 196.142c-2.286-4.571-5.714-8.571-9.714-12C420 180.714 413.715 178.428 408 179c-5.714 0-11.428 1.714-16 5.142-4 3.429-7.428 7.429-9.714 12C356 246.428 316 321.285 316 321.285h36l56-106.857 26.286 50.286h-40.571L408 292.142h40.572L464 321.857h36c0-.572-39.428-75.429-65.714-125.715Z"/></g><defs><clipPath id="a"><path fill="#fff" d="M0 179h500v142.286H0z"/></clipPath></defs></svg>