<svg xmlns="http://www.w3.org/2000/svg" viewBox="0 0 150 150"><path fill="#e41e26" fill-rule="evenodd" d="m87.375 21-.45.824-.902.153-1.046 1.125-.676-.301-.153.375-1.273.074.074.375 1.2.148-.973.301-.153.45-.597-.075-.074.45h-1.204v.3l-.75.227-.75.824-.523-.375s-.148 0-.3.602c-4.575 2.699-18.15 10.046-24.677 13.796-2.324 1.426-6.824 4.5-14.546 6.977 9.972-2.102 10.949-3.676 19.949-7.2 9-3.527 18.898-3.152 18.898-3.152l-1.273.75.148 1.278L78 39l.45.148.902-.597.074.449.75.148.676-.148.972-.3.75.152-.074-.75.676.222.449.528.523-.75 1.352.375h-1.273l.148.523h-2.25l.148.375-1.574-.074-.3.148s.226.301-.075.375c-1.199.45-1.875 1.2-1.875 1.2 11.102-4.649 24.528 3.527 24.528 3.527l.898.222.148 1.278.375.3h.676l-.449.825.45.597v.903l-.825-.153-.676-.75.375-.449-.449-.597h-1.352l-.597-.454-.528-.074-1.199-.523-.898.148-.903-.824-3.972.074.222.375 2.028.153.222.449h2.028l.972.824 1.352-.148.75.375 1.426.449-.977.375s2.028 3.074 14.551 6c18 4.273 30-3.528 30-3.528-3.074 3.903-6.75 5.102-6.75 5.102l-2.7.3-.6.45-1.274.3-3.602 2.024-.972.602-.079.523-.375.45-.148-.75h-1.05l-1.052.3.153.375-.227.977h-.75l.375-.602-.375-.3-.449-.75-.602.078-1.347 1.199-.824-.227-.454.153-.75.375-.75.296-.898-.296-.977.449-.671-.45-1.426-.152-.074-.523h-.903l-.676.375-.898.597-2.852.153 2.704.449.898.148.676-.75.676-.074.671.227 1.352.523.898-.074.602-.375.523.227.676.296.676.375s-4.2.602-9.523.903c5.25.3 10.199 3.75 10.199 3.75S121.05 66 111.3 66.676c-16.05 1.124-19.425-6.977-32.851-7.727-17.847-1.05-25.347 9.528-25.347 9.528l-.676 1.421-1.426.153-.148.824-.301.148-.074.301-.977.375.074.375.903.153-.153.597-.3.602 1.351 2.398-1.648-1.426-.676-.375-1.125-.449-.375.375-.301.824-.45.75-.675-.222s.148 1.949-1.8 2.25c-.677.824 0 1.199 0 1.199l.902.074v.824l.375.079s-.227.296-.375.824c.75.074 1.046-.375 1.046-.375l.454.074s-1.051 2.25-3.75 3.148c.449.454.898.454.898.454s-2.926 1.722-3.898 3.671c-.528 1.954.375 1.801.375 1.801s-.829.977-.903-.375c-.898-.375-1.273.602-1.273.602s-.074.222.375.3c-.824.75-.824 1.649-.824 1.649l.824.074s.375.824-.375.824-.824.454-.824.454v.375l.449.296-.977.75s-.824 3.301-.148 9.454c2.398 20.546 21.972 19.648 21.972 19.648s19.278 1.574 28.125-14.023c13.653-24.454-7.199-29.625-7.199-29.625S64.2 76.05 59.176 81.676c-4.5 5.023 1.5 10.949 1.5 10.949s3.597 2.55 1.949 6.824c-2.7 7.125-10.2 5.324-10.2 5.324S40.728 102 43.5 91.801c3.75-14.324 22.273-16.653 22.273-16.653s19.579-3.523 31.653 4.5c5.25 3.602 14.176.454 14.176.454-2.625 2.546-7.125 3.449-7.204 3.449.079 0 7.426-1.352 17.403-1.125 9.3.222 15-8.324 15-8.324s-1.653 4.046-9.45 8.699c-11.624 6.898-13.124 9.449-13.124 9.449s.972-.523 4.347-2.25c-8.097 6.977-13.347 14.773-13.347 14.773l-.829.227.528.45.75.3-.227.602-.898.074s-.153 1.426.75 1.8c-1.574 1.2-3.074 2.774-3.074 2.774l.75.375s1.125.977-.301 2.25c-1.125 1.273-1.2-.375-1.2-.375s0 2.023-2.703 3.45c-.523.226-1.421 0-1.421 0l-1.278 1.5s9.227-.677 17.403-4.126c-15 7.426-23.551 8.25-23.551 8.25v.227l1.199.3s-3 1.797-14.398 2.848c1.949.676 2.25.602 2.25.602s-2.704.898-9.153 1.273c2.477.903 4.95 1.2 4.95 1.2l-19.2.152c-14.699-.153-44.699-12.676-37.05-39.824C26.698 60.074 63.3 54.977 63.3 54.977s-17.7-5.25-33.528 2.171C13.5 64.727 3.75 60.375 3.75 60.375l7.05-6.977-2.55.676 4.875-4.273.3.597 6.598-6.972.528.824.449.45.227-.825-.454-.75 2.028-2.176-.227-.222 1.574-2.477 1.204-.227 3.597-3.824s-2.25 2.477-3.597 5.102c-.75 2.324-2.102 3.3-2.102 3.3l.3.598c1.2-3.222 8.024-6.676 8.024-6.676s-1.5 1.125-3.074 2.778c2.324-2.028 18.227-12.602 18.227-12.602l.671.074v.528s-8.625 6.3-12.75 10.722c3.602-1.125 7.801-4.648 7.801-4.648l.227.676 1.273.148.45-.375 1.124-.75.454-.3.148-.825 1.574.074.153.375h.375l.597-.296.227-.454-.375-.523.375-.45q.073.078.148.223a.5.5 0 0 1 .227.227q.076.074.222.227a1 1 0 0 0 .153.222c1.347-1.273 6.972-2.625 6.972-2.625l-.75.903c15.079-2.852 27.75-7.954 27.75-7.954h1.051l.074-.375.977-.074.375-.375zm1.5 15.824.148.903h.602l.977-.528.449.153.148.148.824.074.454-.449 6 .3-6.676.376-4.875.449-.153.227h-.972l.148-.454.153-.148.296.074H87l1.426-.597zm-3.148 1.653v.074l-.301-.074zm0 0"/></svg>