<svg xmlns="http://www.w3.org/2000/svg" viewBox="0 0 195 195"><path fill="#046097" d="M75 8h44l26 2 24 4 4 2v31l-3 36-4 23-6 16-9 17-11 14-7 8-3 1v-10l-4-13-9-10-4-3v-20h-4l-1-69-5-2-2-1v63h-4V33h-2v64h-7l-1-60-1 1v68h-5v20l-9 7-6 10-2 8v11l-4-2-10-11-10-15-8-16-5-15-4-26-2-25-1-36 5-2 24-4Z"/><path fill="#0495C0" d="M75 8h44l26 2 24 4 4 2v31l-3 36-4 23-6 16-9 17-11 14-7 8-3 1v-10l-4-13-9-10-4-3v-20h-4l-1-69-5-2-2-1v63h-4V33l-2-1h2V9H75Z"/><path fill="#0A669B" d="M93 165h8l5 3 2 4v8l-9 6-6-1-7-4-1-6 3-7Z"/><path fill="#0D99C1" d="m97 165 6 1 4 4 1 2v8l-9 6-4-1h2Z"/></svg>