<svg xmlns="http://www.w3.org/2000/svg" fill="none" viewBox="0 0 500 500"><path fill="#fff" fill-rule="evenodd" d="M250.207 5C111.849 5 0 117.52 0 256.723c0 111.273 71.665 205.463 171.084 238.799 12.43 2.506 16.983-5.416 16.983-12.08 0-5.836-.409-25.839-.409-46.681-69.602 15.006-84.096-30.007-84.096-30.007-11.185-29.173-27.758-36.671-27.758-36.671-22.78-15.421 1.659-15.421 1.659-15.421 25.27 1.667 38.529 25.839 38.529 25.839 22.366 38.339 58.406 27.506 72.905 20.837 2.069-16.254 8.702-27.506 15.744-33.756-55.513-5.836-113.918-27.507-113.918-124.197 0-27.506 9.935-50.011 25.679-67.513-2.484-6.25-11.185-32.093 2.489-66.683 0 0 21.126-6.67 68.762 25.839a240.795 240.795 0 0 1 62.554-8.337c21.126 0 42.662 2.92 62.549 8.337 47.64-32.509 68.767-25.839 68.767-25.839 13.674 34.59 4.968 60.433 2.484 66.683 16.158 17.502 25.684 40.007 25.684 67.513 0 96.69-58.406 117.941-114.333 124.197 9.116 7.917 16.983 22.918 16.983 46.675 0 33.756-.41 60.848-.41 69.18 0 6.669 4.559 14.591 16.983 12.09 99.419-33.347 171.085-127.531 171.085-238.804C500.409 117.52 388.15 5 250.207 5Z" clip-rule="evenodd" style="mix-blend-mode:difference"/></svg>