<svg xmlns="http://www.w3.org/2000/svg" fill="none" aria-labelledby="tanukiHomeTablet" viewBox="0 0 500 500">
  <path fill="#E24329" d="m491.105 199.768-.699-1.787-67.837-177.004a17.733 17.733 0 0 0-6.97-8.421 18.14 18.14 0 0 0-20.938 1.114 17.747 17.747 0 0 0-6.011 9.147L342.785 163.18H157.23L111.367 22.817a17.75 17.75 0 0 0-6.011-9.147 17.983 17.983 0 0 0-20.911-1.114 17.646 17.646 0 0 0-6.997 8.421L9.533 198.214l-.699 1.762a126.167 126.167 0 0 0 41.77 145.65l.259.182.596.466 103.466 77.45 51.15 38.74 31.095 23.552a21.038 21.038 0 0 0 25.367 0l31.094-23.552 51.175-38.74 104.063-77.916.284-.208a126.13 126.13 0 0 0 45.357-65.902 126.126 126.126 0 0 0-3.405-79.93z"/>
  <path fill="#FC6D26" d="m491.108 199.768-.699-1.787a229.975 229.975 0 0 0-91.313 41.07L250.128 351.947c50.787 38.403 94.993 71.776 94.993 71.776l104.062-77.916.285-.208a126.138 126.138 0 0 0 41.64-145.832z"/>
  <path fill="#FCA326" d="m155.005 423.724 51.072 38.74 31.094 23.552a21.041 21.041 0 0 0 25.368 0l31.094-23.552 51.177-38.74s-44.207-33.373-94.994-71.776l-94.811 71.776z"/>
  <path fill="#FC6D26" d="M100.847 239.155A229.413 229.413 0 0 0 9.534 198.11l-.7 1.762a126.16 126.16 0 0 0 41.77 145.754l.26.18.595.467 103.466 77.45 95.2-71.776-149.278-112.793z"/>
</svg>
