<?xml version="1.0" standalone="no"?>
<!DOCTYPE svg PUBLIC "-//W3C//DTD SVG 20010904//EN"
 "http://www.w3.org/TR/2001/REC-SVG-20010904/DTD/svg10.dtd">
<svg version="1.0" xmlns="http://www.w3.org/2000/svg"
 width="604.000000pt" height="604.000000pt" viewBox="0 0 604.000000 604.000000"
 preserveAspectRatio="xMidYMid meet">

<g transform="translate(0.000000,604.000000) scale(0.100000,-0.100000)"
fill="#000000" stroke="none">
<path d="M4255 6026 c-53 -20 -111 -83 -125 -137 -15 -56 -6 -114 31 -188 18
-37 28 -68 24 -80 -5 -18 -113 -95 -218 -155 -27 -15 -124 -81 -215 -145 -258
-181 -1143 -785 -1847 -1260 -187 -126 -527 -357 -755 -511 -228 -155 -442
-295 -474 -312 -80 -40 -158 -117 -187 -181 -18 -40 -24 -70 -24 -132 0 -104
27 -164 124 -271 100 -110 210 -257 404 -545 179 -265 224 -315 308 -342 104
-34 162 -20 331 81 112 67 112 67 188 67 97 0 167 -33 239 -111 65 -71 104
-153 135 -286 41 -172 140 -433 366 -963 70 -165 138 -330 150 -367 17 -53 31
-75 63 -103 69 -59 192 -82 278 -51 20 7 135 80 255 163 277 189 472 319 551
366 167 101 205 235 130 458 -20 58 -90 231 -156 385 -65 153 -124 299 -131
324 -7 25 -21 63 -31 86 -35 75 -20 129 43 154 18 8 58 32 88 55 124 93 461
325 545 374 104 62 190 126 231 173 16 19 54 82 84 141 53 105 54 109 53 186
-1 44 -14 132 -28 195 -36 162 -130 507 -161 594 -16 44 -24 82 -20 96 4 16
47 55 129 115 132 96 200 162 222 215 17 41 42 177 51 279 8 93 20 112 106
157 79 42 183 112 268 180 36 29 91 65 123 81 79 40 131 90 164 157 24 49 28
69 27 137 -1 123 -40 195 -264 485 -70 91 -151 201 -180 245 -73 109 -97 134
-155 161 -39 18 -67 24 -126 24 -100 0 -157 -21 -223 -81 -30 -27 -61 -49 -70
-49 -9 0 -32 23 -52 50 -21 29 -54 60 -77 72 -53 26 -140 33 -192 14z m312
-955 c75 -34 125 -132 108 -211 -9 -39 -197 -177 -695 -510 -351 -234 -790
-535 -971 -666 -48 -34 -206 -141 -352 -237 -146 -96 -334 -226 -418 -288
-140 -103 -402 -281 -636 -431 -100 -64 -161 -84 -228 -74 -103 16 -167 135
-120 225 30 58 154 152 481 361 112 73 284 190 381 260 98 71 224 157 281 192
160 97 354 225 497 328 72 51 256 176 410 278 327 217 531 359 705 491 200
152 384 268 460 292 39 11 52 10 97 -10z m-416 -1603 c6 -24 22 -81 35 -127
13 -46 24 -89 24 -96 0 -8 16 -69 35 -137 46 -157 49 -207 15 -243 -14 -15
-77 -59 -140 -98 -63 -39 -143 -93 -179 -120 -160 -121 -365 -270 -388 -282
-31 -16 -78 -3 -98 29 -32 49 -201 554 -193 576 2 5 152 101 333 213 182 112
373 231 425 265 52 33 100 61 107 61 7 1 17 -18 24 -41z"/>
</g>
</svg>
