<svg xmlns="http://www.w3.org/2000/svg" xml:space="preserve" style="enable-background:new 0 0 333.8 127" viewBox="0 0 333.8 127"><path d="M296.4 18.6c-20.6 0-37.4 16.8-37.4 37.6 0 20.7 16.8 37.6 37.4 37.6 20.6 0 37.4-16.9 37.4-37.6 0-20.8-16.8-37.6-37.4-37.6zm0 57.3c-10.9 0-19.7-8.9-19.7-19.8s8.8-19.8 19.7-19.8c10.8 0 19.7 8.9 19.7 19.8s-8.9 19.8-19.7 19.8zM186.2 48.5l-6.5-3.3c-2.8-1.4-4.6-2.5-5.3-3.3-.7-.7-1.1-1.7-1.1-2.6 0-1.3.6-2.3 1.7-3.2 1.1-.9 2.7-1.3 4.7-1.3 3.7 0 7.7 2.2 12.2 6.7l11-11.1c-2.7-3.7-6.3-6.7-10.4-8.8-4-2-8.5-3.1-13-3-6.7 0-12.3 2-16.6 6-4.3 4-6.5 8.8-6.5 14.5 0 8.7 5.7 16 17.2 21.8l6 3c5.2 2.6 7.8 5.3 7.8 8.1 0 1.5-.7 2.8-2.1 4-1.4 1.1-3.3 1.7-5.7 1.7-2.2 0-4.7-.8-7.5-2.3-2.8-1.5-5.3-3.5-7.3-5.9l-11 12c6.2 8.1 14.5 12.2 24.8 12.2 7.8 0 14-2.1 18.6-6.4 4.6-4.2 7-9.5 7-15.9 0-4.8-1.3-8.9-3.8-12.5-2.6-3.5-7.3-6.9-14.2-10.4zm-111 37V20.1H57.4v4.4c-6-3.9-13-5.9-20.1-5.9C16.8 18.6 0 35.4 0 56.1s16.8 37.6 37.4 37.6c7 0 13.9-2 19.9-5.7v1.4c0 10.9-8.8 19.8-19.7 19.8-3.7 0-7.3-1.1-10.4-3l-8.8 15.4c5.8 3.5 12.4 5.4 19.2 5.4 20.6 0 37.6-16.9 37.6-37.6 0-.8.1-3.1 0-3.9zm-37.8-9.6c-10.8 0-19.7-8.9-19.7-19.8s8.8-19.8 19.7-19.8c10.9 0 19.7 8.9 19.7 19.8s-8.9 19.8-19.7 19.8zM145.9 20h-17.8v35.7c0 5.1 0 13.8-3.7 17.6-1.8 1.8-3.7 3.4-7.8 3.4s-6.1-1.6-7.9-3.4c-3.7-3.7-3.7-12.5-3.7-17.6V20H87.2v35.6c-.1 7.4-.1 21 8.8 30 5.2 5.3 11.5 8 20.5 8s15.3-2.7 20.5-8c8.9-9 8.9-22.7 8.8-30l.1-35.6zM247 72.7c-1.4 1.1-4.9 3.5-8.8 3-3.2-.4-5.8-2.8-6.2-10.7V35.3h21V20h-21V0h-17.8v62.6c0 9.3 2.3 31 24 31 10.9-.2 17.6-6.1 20.4-8.5l.4-.3-10.7-13.2c-.1.2-.8.8-1.3 1.1zm0 0" style="fill:#f45d48"/></svg>