<svg xmlns="http://www.w3.org/2000/svg" style="shape-rendering:geometricPrecision;text-rendering:geometricPrecision;image-rendering:optimizeQuality;fill-rule:evenodd;clip-rule:evenodd" viewBox="0 0 320 320"><path fill="#211c1d" d="M-.5-.5h320v320H-.5V-.5Z" style="opacity:1"/><path fill="#282307" d="M267.5 51.5a1162.455 1162.455 0 0 0-96 0l-2 1v-3c32.335-.167 64.668 0 97 .5.556.383.889.883 1 1.5Z" style="opacity:1"/><path fill="#211a20" d="M47.5 53.5v210c.45 2.477-.218 4.477-2 6a4.451 4.451 0 0 1-1.5-2A2922.436 2922.436 0 0 1 45.5 115L45 64.5c-.944-.763-1.444-1.763-1.5-3a39.647 39.647 0 0 0 1-11h3v3Z" style="opacity:1"/><path fill="#211b20" d="M272.5 51.5c1.775 3.886 2.608 8.22 2.5 13 .667 29.333.667 58.667 0 88-1.103 2.129-1.603 4.463-1.5 7a1192.105 1192.105 0 0 1 0 96c-1-67.997-1.333-135.997-1-204Z" style="opacity:1"/><path fill="#261f07" d="M148.5 51.5a1182.325 1182.325 0 0 0-97 0c-.667 0-1 .333-1 1-1 69.498-1.333 139.165-1 209-1-69.165-1.333-138.498-1-208v-3c17.137-.646 34.303-.98 51.5-1 16.514 0 32.681.667 48.5 2Z" style="opacity:1"/><path fill="#ede144" d="M148.5 51.5v1c-.31 20.38.023 40.713 1 61 6.342.166 12.675 0 19-.5.556-.383.889-.883 1-1.5a22455.89 22455.89 0 0 0 2-60 1162.455 1162.455 0 0 1 96 0v111l-2 1h-214v-112a1182.325 1182.325 0 0 1 97 0Z" style="opacity:1"/><path fill="#fef133" d="M149.5 113.5c2.758 1.318 5.924 1.985 9.5 2l9.5-.5 2.5-2.5a1447.61 1447.61 0 0 0 2.5-50l-1-2c3.285-.198 4.952-1.865 5-5-3.38.32-4.213-.68-2.5-3 30.093.995 60.26 1.329 90.5 1v109c-70.334.167-140.667 0-211-.5l-2-2c.83-33.095 1.33-66.262 1.5-99.5 2.048-2.006 1.548-3.006-1.5-3-.3-2.744.867-4.41 3.5-5 28.538.315 56.871 1.315 85 3 1.658-3.503 3.492-3.336 5.5.5a61.03 61.03 0 0 1-2 7.5 441.816 441.816 0 0 0-1 42h3l-1 8h4Z" style="opacity:1"/><path fill="#2f280f" d="M148.5 52.5c.617.11 1.117.444 1.5 1 .5 19.33.667 38.664.5 58h17a384.86 384.86 0 0 1 0-30.5c-.081-9.62-.747-19.12-2-28.5h4v59c-.111.617-.444 1.117-1 1.5-6.325.5-12.658.666-19 .5a963.242 963.242 0 0 1-1-61Z" style="opacity:1"/><path fill="#d1c748" d="M171.5 51.5a22455.89 22455.89 0 0 1-2 60v-59l2-1Z" style="opacity:1"/><path fill="#2e2306" d="M267.5 51.5c1.333 35.327 2 70.994 2 107l-.5 107c-.383.556-.883.889-1.5 1v-215Z" style="opacity:1"/><path fill="#c1ab44" d="M51.5 51.5v113c-.333 33.673 0 67.34 1 101a1094.244 1094.244 0 0 0 93 2 1109.431 1109.431 0 0 1-94 0c-.997-71.596-1.33-143.262-1-215 0-.667.333-1 1-1Z" style="opacity:1"/><path fill="#fbd434" d="M51.5 164.5v-1h214c.333 34.007 0 68.007-1 102-29.813-.305-59.646.028-89.5 1-1.608-2.267-.775-3.267 2.5-3-.201-3.85-2.034-4.85-5.5-3l-1-54c-.671-.752-1.504-1.086-2.5-1-6.342-.166-12.675 0-19 .5-.556.383-.889.883-1 1.5a984.54 984.54 0 0 0-3 56l-2 2c-26.964-.658-53.964-1.325-81-2-2.071-3.199-5.071-4.866-9-5l1-2a2057.33 2057.33 0 0 0-3-92Z" style="opacity:1"/><path fill="#241c11" d="M47.5 53.5h1c-.333 69.502 0 138.835 1 208v6l-2-4v-210Z" style="opacity:1"/><path fill="#483c0a" d="M50.5 52.5c-.33 71.738.003 143.404 1 215h-2v-6c-.333-69.835 0-139.502 1-209Z" style="opacity:1"/><path fill="#34260e" d="M168.5 205.5a1917.16 1917.16 0 0 1 1.5 61c.717.544 1.217 1.211 1.5 2-1.517-.011-2.684-.677-3.5-2-.5-19.664-.667-39.331-.5-59a79.547 79.547 0 0 0-17.5 1 1610.981 1610.981 0 0 1-1.5 57v-58c.111-.617.444-1.117 1-1.5 6.325-.5 12.658-.666 19-.5Z" style="opacity:1"/><path fill="#f3cf40" d="M51.5 164.5a2057.33 2057.33 0 0 1 3 92l-1 2c3.929.134 6.929 1.801 9 5 27.036.675 54.036 1.342 81 2l2-2a984.54 984.54 0 0 1 3-56v59a5.727 5.727 0 0 1-3 1c-31.156.649-62.156-.018-93-2-1-33.66-1.333-67.327-1-101Z" style="opacity:1"/><path fill="#e4c548" d="M267.5 162.5v104c-.789.283-1.456.783-2 1.5-31.332.5-62.665.667-94 .5-.283-.789-.783-1.456-1.5-2a1917.16 1917.16 0 0 0-1.5-61c.996-.086 1.829.248 2.5 1l1 54c3.466-1.85 5.299-.85 5.5 3-3.275-.267-4.108.733-2.5 3a2092.284 2092.284 0 0 1 89.5-1c1-33.993 1.333-67.993 1-102l2-1Z" style="opacity:1"/><path fill="#2b2007" d="M148.5 266.5v3c-32.668.167-65.335 0-98-.5-.556-.383-.89-.883-1-1.5h2a1109.431 1109.431 0 0 0 94 0 5.727 5.727 0 0 0 3-1ZM267.5 266.5c.086.996-.248 1.829-1 2.5-31.836.831-63.503.664-95-.5 31.335.167 62.668 0 94-.5.544-.717 1.211-1.217 2-1.5Z" style="opacity:1"/></svg>