<svg version="1.1" id="Layer_1" xmlns="http://www.w3.org/2000/svg" xmlns:xlink="http://www.w3.org/1999/xlink" x="0px" y="0px"
	 width="100%" viewBox="0 0 1000 1000" enable-background="new 0 0 1000 1000" xml:space="preserve">
<path fill="#00A2E0" opacity="1.000000" stroke="none" 
	d="
M445.000000,1.000002 
	C482.020905,1.000000 519.041809,1.000000 556.256653,1.371195 
	C561.391113,2.499439 566.378113,3.033426 571.263977,4.052495 
	C591.461975,8.265288 611.703979,12.306458 631.790588,17.005592 
	C661.642395,23.989246 689.977051,35.395699 717.632507,48.383297 
	C740.946899,59.332249 763.055908,72.501945 784.336426,87.046799 
	C808.512024,103.570427 831.002441,122.187737 851.901489,142.624634 
	C863.216675,153.689560 873.922852,165.480545 883.973328,177.708679 
	C895.880249,192.195618 907.303711,207.145966 917.998230,222.547134 
	C932.778748,243.832428 945.294678,266.464508 956.132019,290.075897 
	C967.612244,315.087799 977.411438,340.687500 984.480774,367.241119 
	C988.696777,383.076660 991.772278,399.231659 994.923950,415.328522 
	C996.741028,424.609009 997.657166,434.064575 999.101562,443.422394 
	C999.195557,444.031433 1000.342651,444.477936 1001.000000,445.000000 
	C1001.000000,482.020905 1001.000000,519.041809 1000.628845,556.256592 
	C999.489136,561.557678 998.946472,566.711121 997.911926,571.763733 
	C994.032837,590.708313 990.323914,609.697021 985.938904,628.526550 
	C978.688660,659.659119 966.972351,689.251770 953.360474,718.075684 
	C942.428894,741.223938 929.365906,763.194824 914.943420,784.354370 
	C898.920898,807.861389 880.868896,829.757568 861.106506,850.141846 
	C849.512695,862.100586 837.100464,873.370850 824.260925,883.988892 
	C809.810608,895.939087 794.827515,907.328918 779.421936,918.019775 
	C758.131287,932.794556 735.496338,945.305176 711.882996,956.145813 
	C686.868347,967.629883 661.262939,977.417419 634.713562,984.503235 
	C618.879639,988.729187 602.714172,991.769287 586.616821,994.930359 
	C577.499268,996.720764 568.211853,997.638855 559.021729,999.081970 
	C558.266113,999.200623 557.670166,1000.336670 557.000000,1001.000000 
	C519.979126,1001.000000 482.958221,1001.000000 445.743835,1000.629150 
	C444.704285,999.842285 443.894867,999.178589 443.006653,999.047058 
	C428.957184,996.967346 414.716583,995.781860 400.879700,992.749084 
	C375.523956,987.191467 350.530151,980.288574 326.099457,971.210205 
	C294.228912,959.367126 263.859894,944.559265 235.212646,926.454224 
	C199.190842,903.688354 165.867081,877.409912 137.210922,845.637695 
	C126.313896,833.555725 115.634895,821.258057 105.287216,808.703613 
	C85.620682,784.842834 69.503372,758.566467 55.247929,731.250000 
	C46.838699,715.136108 39.409889,698.388855 33.037876,681.365845 
	C25.826948,662.101562 19.161015,642.482788 14.340014,622.515564 
	C9.267915,601.508423 6.671670,579.904419 2.902622,558.577271 
	C2.793318,557.958740 1.657299,557.521667 1.000000,557.000000 
	C1.000000,519.979126 1.000000,482.958221 1.371056,445.743103 
	C2.158040,444.702850 2.838505,443.889465 2.947378,443.005615 
	C3.708336,436.828217 3.897907,430.545288 5.118336,424.466339 
	C8.507237,407.586304 12.119248,390.745422 15.988780,373.968781 
	C23.323940,342.166779 35.196209,311.932190 49.256519,282.615417 
	C61.739174,256.588135 76.344391,231.683548 93.839531,208.647705 
	C105.112129,193.805069 116.632698,179.112747 128.771301,164.979294 
	C136.819611,155.608353 145.821213,146.973312 154.995316,138.671021 
	C169.742493,125.325256 184.413116,111.783081 200.156708,99.677216 
	C222.105576,82.799881 245.552567,67.931229 270.317078,55.500546 
	C288.025574,46.611660 306.174469,38.402435 324.691406,31.378317 
	C342.553955,24.602440 360.888855,18.658798 379.475525,14.314270 
	C400.528259,9.393318 422.094269,6.671672 443.421021,2.902746 
	C444.040100,2.793344 444.477753,1.657338 445.000000,1.000002 
M271.928741,375.397919 
	C263.196228,391.110962 256.469147,407.684570 251.637939,424.955566 
	C248.841553,434.952301 246.650391,445.164337 244.935516,455.404877 
	C243.153717,466.044922 241.648956,476.808563 241.176392,487.568817 
	C240.705246,498.296753 241.126740,509.138397 242.138153,519.837402 
	C243.304276,532.172852 244.729813,544.593323 247.490143,556.645386 
	C253.063416,580.979492 261.953247,604.129089 274.351807,625.941467 
	C285.415436,645.405273 298.735138,663.114502 314.026337,679.361572 
	C316.483337,681.972168 317.475189,684.508850 316.963745,687.739807 
	C315.281006,698.370178 313.492920,708.984070 311.707581,719.597961 
	C309.490692,732.777405 307.243011,745.951660 304.995819,759.125977 
	C303.105103,770.210632 301.159821,781.286133 299.308228,792.377258 
	C298.136719,799.394470 297.092743,806.432983 295.933807,813.830383 
	C297.246124,813.246399 298.216736,812.969788 299.015991,812.436462 
	C332.205475,790.288879 365.463013,768.241272 398.474670,745.831360 
	C404.064667,742.036560 408.943604,739.966675 415.255005,743.569519 
	C417.904816,745.082153 420.920441,746.071655 423.880920,746.903320 
	C443.379700,752.380920 463.182373,756.897583 483.396393,757.762878 
	C502.673492,758.588013 521.991821,758.460144 541.277649,755.246887 
	C564.555176,751.368591 586.871460,744.849731 608.332764,735.229248 
	C636.531067,722.588562 661.508789,705.115845 683.631714,683.671326 
	C691.168945,676.365173 697.691650,667.993958 704.500854,659.959351 
	C716.590637,645.693848 726.162781,629.717957 734.311279,613.016907 
	C743.294373,594.605286 750.889160,575.500061 754.278931,555.162231 
	C757.044373,538.570435 759.180237,521.847473 760.822815,505.106873 
	C761.541870,497.778687 760.704468,490.222504 759.922241,482.838898 
	C758.544983,469.839203 757.270203,456.779907 754.873291,443.947113 
	C749.935913,417.513489 739.988464,392.750916 726.664429,369.528534 
	C713.407227,346.422852 697.518188,325.154297 677.112976,307.703979 
	C667.539124,299.516479 657.818481,291.438904 647.634644,284.040710 
	C632.283081,272.888306 615.318542,264.570312 597.797485,257.309021 
	C572.881104,246.982895 546.866333,240.874542 520.117371,239.286026 
	C500.213715,238.104034 480.183136,238.420364 460.243835,241.800034 
	C438.623383,245.464645 417.624237,250.997192 397.676514,259.886169 
	C363.181702,275.257538 332.684692,296.263214 307.472046,324.814850 
	C293.854462,340.235901 282.333649,356.953888 271.928741,375.397919 
z"/>
<path fill="#000000" opacity="1.000000" stroke="none" 
	d="
M444.531342,1.000002 
	C444.477753,1.657338 444.040100,2.793344 443.421021,2.902746 
	C422.094269,6.671672 400.528259,9.393318 379.475525,14.314270 
	C360.888855,18.658798 342.553955,24.602440 324.691406,31.378317 
	C306.174469,38.402435 288.025574,46.611660 270.317078,55.500546 
	C245.552567,67.931229 222.105576,82.799881 200.156708,99.677216 
	C184.413116,111.783081 169.742493,125.325256 154.995316,138.671021 
	C145.821213,146.973312 136.819611,155.608353 128.771301,164.979294 
	C116.632698,179.112747 105.112129,193.805069 93.839531,208.647705 
	C76.344391,231.683548 61.739174,256.588135 49.256519,282.615417 
	C35.196209,311.932190 23.323940,342.166779 15.988780,373.968781 
	C12.119248,390.745422 8.507237,407.586304 5.118336,424.466339 
	C3.897907,430.545288 3.708336,436.828217 2.947378,443.005615 
	C2.838505,443.889465 2.158040,444.702850 1.371056,445.274414 
	C1.000000,297.072906 1.000000,149.145844 1.000000,1.000000 
	C148.687485,1.000000 296.375092,1.000000 444.531342,1.000002 
z"/>
<path fill="#000000" opacity="1.000000" stroke="none" 
	d="
M1.000000,557.468628 
	C1.657299,557.521667 2.793318,557.958740 2.902622,558.577271 
	C6.671670,579.904419 9.267915,601.508423 14.340014,622.515564 
	C19.161015,642.482788 25.826948,662.101562 33.037876,681.365845 
	C39.409889,698.388855 46.838699,715.136108 55.247929,731.250000 
	C69.503372,758.566467 85.620682,784.842834 105.287216,808.703613 
	C115.634895,821.258057 126.313896,833.555725 137.210922,845.637695 
	C165.867081,877.409912 199.190842,903.688354 235.212646,926.454224 
	C263.859894,944.559265 294.228912,959.367126 326.099457,971.210205 
	C350.530151,980.288574 375.523956,987.191467 400.879700,992.749084 
	C414.716583,995.781860 428.957184,996.967346 443.006653,999.047058 
	C443.894867,999.178589 444.704285,999.842285 445.275177,1000.629150 
	C297.072906,1001.000000 149.145844,1001.000000 1.000000,1001.000000 
	C1.000000,853.312500 1.000000,705.624939 1.000000,557.468628 
z"/>
<path fill="#000000" opacity="1.000000" stroke="none" 
	d="
M557.468628,1001.000000 
	C557.670166,1000.336670 558.266113,999.200623 559.021729,999.081970 
	C568.211853,997.638855 577.499268,996.720764 586.616821,994.930359 
	C602.714172,991.769287 618.879639,988.729187 634.713562,984.503235 
	C661.262939,977.417419 686.868347,967.629883 711.882996,956.145813 
	C735.496338,945.305176 758.131287,932.794556 779.421936,918.019775 
	C794.827515,907.328918 809.810608,895.939087 824.260925,883.988892 
	C837.100464,873.370850 849.512695,862.100586 861.106506,850.141846 
	C880.868896,829.757568 898.920898,807.861389 914.943420,784.354370 
	C929.365906,763.194824 942.428894,741.223938 953.360474,718.075684 
	C966.972351,689.251770 978.688660,659.659119 985.938904,628.526550 
	C990.323914,609.697021 994.032837,590.708313 997.911926,571.763733 
	C998.946472,566.711121 999.489136,561.557678 1000.628845,556.725220 
	C1001.000000,704.927063 1001.000000,852.854126 1001.000000,1001.000000 
	C853.312500,1001.000000 705.624939,1001.000000 557.468628,1001.000000 
z"/>
<path fill="#000000" opacity="1.000000" stroke="none" 
	d="
M1001.000000,444.531372 
	C1000.342651,444.477936 999.195557,444.031433 999.101562,443.422394 
	C997.657166,434.064575 996.741028,424.609009 994.923950,415.328522 
	C991.772278,399.231659 988.696777,383.076660 984.480774,367.241119 
	C977.411438,340.687500 967.612244,315.087799 956.132019,290.075897 
	C945.294678,266.464508 932.778748,243.832428 917.998230,222.547134 
	C907.303711,207.145966 895.880249,192.195618 883.973328,177.708679 
	C873.922852,165.480545 863.216675,153.689560 851.901489,142.624634 
	C831.002441,122.187737 808.512024,103.570427 784.336426,87.046799 
	C763.055908,72.501945 740.946899,59.332249 717.632507,48.383297 
	C689.977051,35.395699 661.642395,23.989246 631.790588,17.005592 
	C611.703979,12.306458 591.461975,8.265288 571.263977,4.052495 
	C566.378113,3.033426 561.391113,2.499439 556.725342,1.371195 
	C704.927063,1.000000 852.854126,1.000000 1001.000000,1.000000 
	C1001.000000,148.687485 1001.000000,296.375092 1001.000000,444.531372 
z"/>
<path fill="#000000" opacity="1.000000" stroke="none" 
	d="
M271.995880,375.026642 
	C282.333649,356.953888 293.854462,340.235901 307.472046,324.814850 
	C332.684692,296.263214 363.181702,275.257538 397.676514,259.886169 
	C417.624237,250.997192 438.623383,245.464645 460.243835,241.800034 
	C480.183136,238.420364 500.213715,238.104034 520.117371,239.286026 
	C546.866333,240.874542 572.881104,246.982895 597.797485,257.309021 
	C615.318542,264.570312 632.283081,272.888306 647.634644,284.040710 
	C657.818481,291.438904 667.539124,299.516479 677.112976,307.703979 
	C697.518188,325.154297 713.407227,346.422852 726.664429,369.528534 
	C739.988464,392.750916 749.935913,417.513489 754.873291,443.947113 
	C757.270203,456.779907 758.544983,469.839203 759.922241,482.838898 
	C760.704468,490.222504 761.541870,497.778687 760.822815,505.106873 
	C759.180237,521.847473 757.044373,538.570435 754.278931,555.162231 
	C750.889160,575.500061 743.294373,594.605286 734.311279,613.016907 
	C726.162781,629.717957 716.590637,645.693848 704.500854,659.959351 
	C697.691650,667.993958 691.168945,676.365173 683.631714,683.671326 
	C661.508789,705.115845 636.531067,722.588562 608.332764,735.229248 
	C586.871460,744.849731 564.555176,751.368591 541.277649,755.246887 
	C521.991821,758.460144 502.673492,758.588013 483.396393,757.762878 
	C463.182373,756.897583 443.379700,752.380920 423.880920,746.903320 
	C420.920441,746.071655 417.904816,745.082153 415.255005,743.569519 
	C408.943604,739.966675 404.064667,742.036560 398.474670,745.831360 
	C365.463013,768.241272 332.205475,790.288879 299.015991,812.436462 
	C298.216736,812.969788 297.246124,813.246399 295.933807,813.830383 
	C297.092743,806.432983 298.136719,799.394470 299.308228,792.377258 
	C301.159821,781.286133 303.105103,770.210632 304.995819,759.125977 
	C307.243011,745.951660 309.490692,732.777405 311.707581,719.597961 
	C313.492920,708.984070 315.281006,698.370178 316.963745,687.739807 
	C317.475189,684.508850 316.483337,681.972168 314.026337,679.361572 
	C298.735138,663.114502 285.415436,645.405273 274.351807,625.941467 
	C261.953247,604.129089 253.063416,580.979492 247.490143,556.645386 
	C244.729813,544.593323 243.304276,532.172852 242.138153,519.837402 
	C241.126740,509.138397 240.705246,498.296753 241.176392,487.568817 
	C241.648956,476.808563 243.153717,466.044922 244.935516,455.404877 
	C246.650391,445.164337 248.841553,434.952301 251.637939,424.955566 
	C256.469147,407.684570 263.196228,391.110962 271.995880,375.026642 
z"/>
</svg>