<svg version="1.1" viewBox="0 0 15.676 13.229" xmlns="http://www.w3.org/2000/svg"><g transform="translate(18.178 -162.23)"><path d="m-10.549 162.23c-0.87911-2e-3 -1.7455 0.0116-2.5335 0.04-1.1543 0.0297-2.1154 0.0739-2.6106 0.12792-0.87985 0.096-1.4499 0.46584-1.8116 1.0332-0.38671 0.46092-0.60136 1.0729-0.63067 1.83-0.02969 0.76662-0.04005 1.7443-0.04177 2.7311-9.94e-4 0.1302-9.94e-4 0.26112-7.45e-4 0.39264 0.0015 2.1104 0.04232 4.1457 0.04232 4.1457 0 1.5292 1.0498 2.5957 2.3334 2.7603 1.0141 0.13003 3.2936 0.17632 5.5317 0.16695h0.0043c0.92467 4e-3 1.8399-9e-3 2.6681-0.039 1.1543-0.0297 2.1154-0.0739 2.6106-0.12792 0.87985-0.096 1.4499-0.46583 1.8116-1.0332 0.38671-0.46092 0.60136-1.0729 0.63067-1.83 0.029688-0.76661 0.040051-1.7443 0.041771-2.7311 9.938e-4 -0.1302 9.938e-4 -0.26112 7.454e-4 -0.39264-0.00149-2.1104-0.042317-4.1457-0.042317-4.1457 0-1.5292-1.0498-2.5957-2.3334-2.7603-1.0141-0.13002-3.2936-0.17632-5.5317-0.16694-0.0015-1e-5 -0.0029 0-0.0043 0-0.0449 0-0.08976-7.5e-4 -0.13462-1e-3z" fill="#09311b"/><path d="m-10.153 163.73-1.3686-0.0129-1.0064 7.033-0.14544-0.97751-2.7196-5e-5 -0.11949 0.87402 2.0748 4e-3 0.1729 1.263 1.5042 3e-3 0.92716-6.6465 0.15828 1.1287 0.88984-7.5e-4z" fill="#fff"/><path d="m-9.5489 168.11-0.88835 2e-3 0.78479 5.6414 1.1831-1e-3 0.43711-3.1047 2.0376 1e-3 0.12553-0.8743-2.9322 2e-3 -0.2626 1.8557z" fill="#22bc66"/></g></svg>
