<svg xmlns="http://www.w3.org/2000/svg" viewBox="0 0 15.676 13.229"><path fill="#09311b" d="M7.629 0c-.88-.002-1.745.012-2.533.04C3.94.07 2.98.114 2.485.168 1.605.264 1.035.634.673 1.2c-.386.461-.601 1.073-.63 1.83A79.084 79.084 0 0 0 0 6.155C.002 8.265.042 10.3.042 10.3c0 1.529 1.05 2.595 2.334 2.76 1.014.13 3.293.176 5.532.167h.004c.925.004 1.84-.01 2.668-.04 1.154-.029 2.115-.073 2.61-.127.88-.096 1.45-.466 1.812-1.033.387-.461.601-1.073.63-1.83a79.089 79.089 0 0 0 .043-3.124c-.001-2.11-.042-4.146-.042-4.146 0-1.529-1.05-2.595-2.333-2.76-1.014-.13-3.294-.176-5.532-.167h-.004L7.629 0z"/><path fill="#fff" d="m8.025 1.5-1.369-.013L5.65 8.52l-.145-.977h-2.72l-.12.874 2.075.004.173 1.263 1.504.003.928-6.647.158 1.129.89-.001z"/><path fill="#22bc66" d="m8.63 5.88-.89.002.786 5.641h1.183l.437-3.105h2.037l.126-.874-2.932.002-.263 1.856z"/></svg>