<svg xmlns="http://www.w3.org/2000/svg" width="3947" height="1330"><path fill="#61C354" d="m257.829-.137 2.363-.006c2.575-.003 5.15.003 7.725.01l2.704.003c18.078.031 36.125.516 54.19 1.172 4.403.158 8.807.308 13.21.46q11.505.396 23.01.806c11.406.406 22.812.803 34.218 1.2q28.803 1 57.605 2.017 28.49 1.005 56.981 2.002l3.594.125 14.445.505q65.663 2.295 131.324 4.605 61.931 2.18 123.863 4.345l3.86.135 30.749 1.075a1129362 1129362 0 0 1 157.67 5.524q37.479 1.311 74.958 2.63 15.493.547 30.987 1.089 12.846.448 25.692.903 6.465.229 12.928.453 5.89.205 11.78.416l4.215.147c7.053.242 14.103.538 21.148.953l3.58.205C1174.223 32.1 1185.493 39.525 1194 50c6.633 10.757 8.327 20.262 8.187 32.684l-.021 3.712c-.117 13.564-.626 27.114-1.166 40.667-.742 18.657-1.147 37.264-1 55.937l2.464-2.155c37.817-32.902 37.817-32.902 57.888-32.255 5.086.788 8.895 3.081 11.992 7.195 3.11 5.233 3.781 9.3 3.784 15.293l.005 2.212q.004 3.706-.002 7.411l.007 5.362q.007 7.422.003 14.843.001 8.055.008 16.108.011 15.999.01 31.998.004 19.154.015 38.308c.016 30.137.022 60.275.027 90.413q.004 23.001.01 46.002a782304 782304 0 0 1 .03 190.054q.005 76.103.041 152.203c.017 36.448.033 72.897.037 109.345v2.272a488099 488099 0 0 1 .005 71.458q.001 35.01.025 70.02.024 36.26.011 72.52-.007 20.901.015 41.801.015 13.965-.001 27.932a4686 4686 0 0 0 .006 15.909q.017 7.248-.004 14.498-.004 2.595.008 5.188c.066 14.6-1.125 29.329-6.072 43.19l-.77 2.22c-6.587 18.323-16.9 33.823-30.542 47.655l-2.582 2.621c-25.52 24.525-59.148 32.733-93.555 32.63l-5.39.01c-4.918.007-9.836.003-14.754-.004-5.358-.005-10.716.001-16.074.006q-14.076.01-28.152.002c-13.955-.007-27.91-.003-41.865.003a107643 107643 0 0 1-72.605.004h-2.168a191791 191791 0 0 0-87.44-.002l-49.25.004H822.9q-35.724 0-71.447-.006h-2.34l-37.624-.008a381824 381824 0 0 0-186.808.008h-2.338a327664 327664 0 0 1-122.832.002l-21.983-.003q-32.708-.003-65.415.005h-2.165l-2.16.001q-36.1.01-72.198-.007a43016 43016 0 0 0-41.616.001q-13.899.007-27.799-.007a6994 6994 0 0 0-15.837.001q-7.214.01-14.427-.006-2.583-.003-5.168.004c-14.332.04-28.41-.782-42.243-4.884l-2.676-.784c-8.464-2.597-16.18-6.15-23.824-10.591l-1.878-1.09C32.059 1291.313 11.662 1264.403 3 1233c-2.781-11.59-3.43-22.614-3.38-34.483l-.014-5.466c-.013-4.985-.007-9.97.002-14.954.007-5.431-.004-10.863-.012-16.294q-.018-14.268-.007-28.536c.009-14.146 0-28.29-.01-42.436a79168 79168 0 0 1-.015-89.041v-2.216a109472 109472 0 0 0-.006-55.324l-.004-17.864c-.01-41.558-.016-83.117-.008-124.676v-2.372l.006-26.194v-2.389l.002-9.563q.015-75.627-.02-151.254l-.018-38.113-.001-2.37q-.015-36.18-.017-72.357v-2.296a351639 351639 0 0 1 .006-72.181q.003-35.346-.02-70.692-.022-36.6.003-73.197.017-21.09-.009-42.18-.014-14.094.01-28.19c.008-5.35.01-10.7-.005-16.051q-.018-7.317.01-14.634.007-2.616-.009-5.23c-.197-34.838 12.706-65.207 37.083-90.033 22.196-21.908 52.88-34.65 84.055-34.785 9.376.165 18.033 2.614 27.003 5.148q2.71.74 5.424 1.473c4.7 1.276 9.392 2.58 14.082 3.89 4.803 1.335 9.614 2.642 14.424 3.952 6.996 1.911 13.99 3.83 20.976 5.775l2.216.612c5.02 1.405 5.02 1.405 7.253 2.521l.044-2.563q.094-4.799.218-9.595.05-2.06.084-4.12c.278-16.13 2.958-29.802 14.154-41.972 8.75-8.338 19.283-12.913 31.329-12.887M238 24c-12.445 14.392-10.162 33.095-10 51 5.52 2.157 11 3.916 16.732 5.406l2.552.675q4.2 1.106 8.4 2.204l6.035 1.591q6.472 1.707 12.947 3.407c10.321 2.711 20.639 5.435 30.956 8.159l7.13 1.881c25.433 6.712 50.846 13.504 76.252 20.323l9.526 2.555 17.763 4.768 2.685.72 5.086 1.367q2.361.634 4.722 1.265a411 411 0 0 1 9.425 2.62c9.695 2.836 19.487 3.177 29.536 3.51l3.116.111q5.146.18 10.294.355l7.471.263q8.111.285 16.223.564a45618 45618 0 0 1 24.123.839q20.293.709 40.585 1.412 20.091.696 40.181 1.396l2.526.088 12.698.442q44.95 1.567 89.903 3.127 43.654 1.514 87.309 3.035l2.718.094 21.652.755a1951265 1951265 0 0 0 222.714 7.743l2.893.101 2.627.09 2.268.08c1.65.046 3.301.054 4.952.054v15l-5.088-.185c-92.098-3.347-184.198-6.624-355.957-12.632l-38.611-1.349-59.694-2.083-2.682-.094q-9.283-.323-18.566-.648a99124 99124 0 0 0-33.695-1.175l-12.238-.426-3.6-.127-3.303-.113-2.84-.1c-2.91-.073-5.815-.08-8.726-.068 2.614 1.383 5.082 2.404 7.94 3.16l2.352.63c.847.22 1.693.442 2.565.67l2.738.729q4.544 1.205 9.089 2.4l6.49 1.723q6.976 1.85 13.953 3.693a23300 23300 0 0 1 29.51 7.819l3.78 1.003 11.502 3.049a33317 33317 0 0 1 76.165 20.306l16.207 4.335 19.969 5.343q2.462.659 4.925 1.312c3.647.97 7.286 1.956 10.91 3.008l3.825 1.087 3.223.946c9.527 1.944 19.466 1.959 29.164 2.287l3.536.126q4.798.17 9.596.335 5.199.181 10.397.366 10.162.36 20.323.712 8.268.287 16.537.578l2.385.083 4.798.169q22.458.787 44.916 1.568 19.223.669 38.444 1.345a134186 134186 0 0 0 49.53 1.735l2.377.083 16.488.579q10.067.354 20.135.702 5.125.176 10.25.359c13.67.484 27.303.874 40.981.76l-1 16-3.4-.474c-4.733-.588-9.444-.794-14.209-.95l-2.84-.102q-4.684-.164-9.37-.322l-6.737-.237q-9.134-.32-18.266-.632-9.562-.33-19.125-.664-16.056-.56-32.111-1.112-16.508-.569-33.014-1.144l-2.054-.072-6.14-.214-2.037-.07a167961 167961 0 0 0-44.792-1.556 46492 46492 0 0 0-24.46-.845q-4.48-.156-8.963-.309l-2.622-.092A345 345 0 0 0 817 232c3.768 2.16 7.83 3.149 11.996 4.245l2.463.66q4.096 1.093 8.193 2.177l5.885 1.57a13953 13953 0 0 0 16.044 4.269q8.435 2.242 16.868 4.492 16.163 4.305 32.328 8.603 18.875 5.019 37.749 10.047a155005 155005 0 0 0 63.354 16.86l2.929.779c.941.25 1.883.5 2.853.76q2.739.726 5.48 1.448a702 702 0 0 1 13.218 3.607l2.607.727q2.413.675 4.818 1.382c7.265 2.005 12.463.627 19.215-2.626l3.719-1.645c25.895-11.858 48.067-31.587 69.568-49.896q1.737-1.48 3.477-2.957c6.056-5.144 12.072-10.312 17.923-15.69 3.58-3.285 7.23-6.434 11-9.5l2.723-2.222q2.489-2.01 5.024-3.961l2.191-1.754 1.914-1.477c3.435-4.463 2.665-11.547 2.85-17.016l.089-2.37q.142-3.87.276-7.742l.197-5.496q.207-5.784.406-11.568.201-5.815.416-11.632c.7-18.966 1.367-37.94 1.542-56.92q.024-2.29.07-4.58c.204-10.957-.74-20.66-8.565-28.976-10.89-9.558-22.946-9.885-36.851-10.328l-4.556-.166c-4.17-.151-8.34-.292-12.511-.432-4.539-.153-9.077-.316-13.615-.478q-11.93-.424-23.859-.831c-11.826-.405-23.653-.82-35.479-1.235q-29.846-1.05-59.693-2.08-29.565-1.022-59.132-2.055l-3.714-.13-14.927-.522q-68.032-2.378-136.063-4.737-64.225-2.226-128.449-4.47l-3.996-.139-19.926-.696-3.972-.138-7.93-.277a1165866 1165866 0 0 0-163.249-5.69q-38.882-1.356-77.764-2.704-16.083-.557-32.164-1.118-13.334-.466-26.668-.926-6.712-.231-13.423-.467-6.113-.215-12.226-.423l-4.382-.153C259.053 13.66 259.053 13.66 238 24M1983 1014l2.45 2.082c33.694 29.463 46.618 72.803 50.3 116.168.121 2.588.204 5.16.25 7.75l.062 3.154c.856 51.823-6.086 105.538-43.401 144.588-28.765 29.287-69.296 42.053-109.766 42.559q-4.515.025-9.029.015a969 969 0 0 0-9.095.045c-42.227.138-84.084-11.803-115.033-41.591-27.444-27.758-40.496-66.485-43.738-104.77l-.261-3.07c-4.168-53.096 2.34-110.331 37.871-152.325 27.686-31.976 68.357-45.196 109.496-48.212 44.787-2.672 94.603 3.423 129.894 33.607m-159 61c-8.41 9.942-13.451 21.981-16.812 34.438l-.59 2.161c-3.388 13.503-3.948 27.18-3.914 41.026.003 2.609-.02 5.216-.045 7.824-.103 27.17 4.446 57.413 24.361 77.551 14.975 13.151 32.109 16.023 51.386 15.2 14.534-1.11 28.203-6.939 38.614-17.2 18.085-21.795 21.38-49.979 21.316-77.35-.003-2.75.02-5.5.045-8.252.097-26.944-3.434-57.03-23.088-77.253-14.79-13.952-30.587-16.786-50.293-16.457-15.875.598-30.03 6.716-40.98 18.312M1398 986c203.848 0 203.848 0 235.723 30.496 16.383 18.014 20.409 39.146 19.445 62.835-1.33 21.092-10.833 39.472-26.32 53.638-7.5 6.183-16.346 10.871-25.848 13.031 2.94 1.566 5.962 2.774 9.075 3.952 18.671 7.132 33.643 17.925 42.675 36.236 10.428 24.555 10.04 54.165.25 78.812-3.872 8.575-8.742 15.99-15 23l-2.05 2.3c-24.142 25.554-58.428 32.348-91.95 35.7h-146zm92 70v60l16.5.25 5.096.11c13.26.166 28.199-.895 38.404-10.36 6.961-7.414 8.512-14.744 8.305-24.781-.639-6.747-3.054-11.363-7.93-16.032-12.575-10.022-28.874-9.479-44.125-9.312zm0 128v70l20.25.188 6.313.082c14.06.108 28.348-.437 39.187-10.52 8.055-8.551 8.71-17.989 8.527-29.246-.327-7.86-3.144-14.237-8.52-19.977-9.832-8.543-22.511-10.702-35.093-10.625l-2.364.003c-2.892.006-5.783.02-8.675.033zM1398 150h93v125h105V150h93v340h-93V352h-105v138h-93zM1761 150c189.895 0 189.895 0 223 30l2.55 2.27c17.447 16.387 24.79 39.954 25.571 63.363.617 28.449-7.924 53.489-27.68 74.324-8.09 8.28-17.29 15.431-27.441 21.043h-2c14.958 22.806 29.994 45.554 45.286 68.138 10.771 15.912 21.378 31.928 31.911 47.999l3.405 5.187 1.635 2.493a652 652 0 0 0 12.533 18.353c3.23 4.615 3.23 4.615 3.23 6.83-13.464.511-26.926.901-40.397 1.14-6.258.114-12.508.27-18.761.52-6.044.24-12.081.37-18.13.427q-3.447.06-6.892.24c-14.621.728-14.621.728-20.82-2.327-5.593-5.405-8.796-12.402-11.864-19.447-1.42-3.19-3.106-6.071-4.94-9.037l-3.071-5.266-1.733-2.971a3974 3974 0 0 1-10.9-18.847c-4.467-7.765-8.943-15.523-13.504-23.233l-2.022-3.419a835 835 0 0 0-4.069-6.757c-3.371-5.572-6.483-11.122-9.245-17.023l-1.677-3.376a100 100 0 0 1-2.878-6.376c-1.545-3.434-1.545-3.434-6.097-7.248l-22-1v124h-93zm93 70v77c29.858.706 29.858.706 55-13 7.401-7.515 9.381-18.43 9.5-28.625-.088-8.271-1.908-15.056-6.187-22.187-16.234-15.356-37-13.188-58.313-13.188M2067 986a1676 1676 0 0 1 39.511-1.295c6.122-.13 12.235-.306 18.351-.591 40.755-1.848 40.755-1.848 48.75 4.21 5.432 5.721 8.16 12.214 10.435 19.686 1.24 3.89 3.005 6.846 5.207 10.275q1.658 2.887 3.309 5.778l5.605 9.757c3.51 6.093 7.058 12.165 10.609 18.236q4.577 7.823 9.106 15.674l1.93 3.338a2021 2021 0 0 1 3.658 6.356l1.666 2.877 1.46 2.536c1.306 2.014 2.637 3.55 4.403 5.163l.895-1.655a2188 2188 0 0 1 20.757-37.435c3.45-6.083 6.871-12.182 10.285-18.285l1.74-3.108 3.513-6.28a55648 55648 0 0 1 11.193-20.004l1.656-2.96 1.444-2.58c1.825-3.24 3.673-6.465 5.517-9.693h106c-1.367 3.417-2.547 6.12-4.398 9.195l-1.433 2.388-1.544 2.542-1.62 2.683c-4.516 7.449-9.15 14.82-13.821 22.172-9.536 15.013-18.89 30.14-28.196 45.296-5.144 8.371-10.34 16.71-15.554 25.036a3790 3790 0 0 0-11.934 19.188 6197 6197 0 0 1-18.187 29.207l-1.7 2.74a148 148 0 0 1-3.195 4.851c-2.665 3.816-2.665 3.816-3.516 8.272 1.524 3.374 3.51 6.312 5.66 9.305l3.024 4.3 1.663 2.347c2.499 3.536 4.965 7.095 7.434 10.652a6750 6750 0 0 0 8.214 11.807L2317 1201c15.583 22.372 15.583 22.372 22.79 32.88 6 8.74 12.07 17.433 18.13 26.132q6.035 8.67 12.066 17.344 5.105 7.343 10.225 14.675c11.987 17.174 11.987 17.174 17.789 25.782l1.26 1.85c2.74 4.101 2.74 4.101 2.74 6.337a1736 1736 0 0 1-41.024 1.347c-6.356.135-12.703.318-19.054.614-42.387 1.927-42.387 1.927-50.745-4.442-5.85-5.57-8.674-12.734-11.066-20.331-1.663-4.773-4.32-8.68-7.173-12.813a672 672 0 0 1-2.895-4.566l-1.483-2.34a3022 3022 0 0 1-20.86-33.461l-1.083-1.763a4669 4669 0 0 1-5.163-8.429c-3.693-6.027-7.477-11.971-11.454-17.816-11 16.912-21.482 34.15-32.05 51.334a8673 8673 0 0 1-15.759 25.514 5594 5594 0 0 0-6.851 11.086l-1.82 2.948-3.472 5.633-1.564 2.532-1.383 2.245C2166 1325 2166 1325 2165 1326a58 58 0 0 1-4.106.12l-2.682.004-2.964-.01h-3.104c-3.404 0-6.807-.009-10.21-.016l-7.058-.005q-9.31-.006-18.619-.024-9.49-.014-18.982-.02-18.638-.016-37.275-.049 1.424-2.633 2.85-5.265l1.604-2.962c1.91-3.428 4.009-6.669 6.233-9.898q1.306-1.928 2.61-3.86l1.346-1.99c2.305-3.44 4.55-6.92 6.794-10.4l4.18-6.481q3.376-5.23 6.758-10.457l1.36-2.1a10124 10124 0 0 1 12.424-19.138c5.294-8.141 10.569-16.294 15.841-24.449q9.559-14.789 19.16-29.551 6.577-10.12 13.13-20.258 2.863-4.428 5.733-8.851l1.51-2.328q1.425-2.198 2.852-4.394a629 629 0 0 0 2.51-3.901c.966-1.502 1.97-2.979 2.98-4.451 1.279-2.128 1.279-2.128 1.066-4.16-1.39-3.11-3.167-5.935-5.003-8.793l-1.316-2.076A2101 2101 0 0 0 2160 1133l-3.73-5.84q-4.092-6.399-8.192-12.793A5380 5380 0 0 1 2137 1097a8167 8167 0 0 0-15-23.5 8210 8210 0 0 1-15-23.5 8949 8949 0 0 0-14.875-23.312l-1.99-3.112c-3.17-4.952-6.342-9.901-9.529-14.841q-2.235-3.468-4.467-6.939a2694 2694 0 0 0-3.176-4.914l-1.928-3-1.707-2.643C2068 989 2068 989 2067 986M2734 568h38a25511 25511 0 0 1 28.544 70.623l4.985 12.387 7.285 18.104 13.069 32.468.973 2.416 15.417 38.293q5.838 14.497 11.67 28.997 3.907 9.717 7.816 19.432 2.284 5.676 4.566 11.354A6823 6823 0 0 0 2892 865l1.197-3c9.412-23.58 18.877-47.138 28.365-70.687l.93-2.306 8.618-21.389a107526 107526 0 0 0 21.39-53.118l7.746-19.242.966-2.4a116905 116905 0 0 1 18.593-46.157l.957-2.377a91605 91605 0 0 1 10.43-25.882 6001 6001 0 0 0 9.722-24.265l1.955-4.908q1.879-4.717 3.75-9.435l1.693-4.253.783-1.983c1.791-4.484 1.791-4.484 2.905-5.598h37v340h-25a154515 154515 0 0 1-.11-118.835l-.001-2.532q-.016-20.194-.043-40.388-.029-20.777-.034-41.555-.004-12.783-.028-25.565-.015-8.81-.011-17.62.002-5.055-.011-10.109c-.052-18.556.784-36.907 2.238-55.396-.435 1.072-.87 2.144-1.317 3.25l-16.564 40.855-14.752 36.396-5.339 13.181a14697 14697 0 0 1-12.126 29.826l-1.352 3.317-2.767 6.786a16592 16592 0 0 0-24.579 60.602 13382 13382 0 0 1-21.905 53.938 5262 5262 0 0 0-20.642 51.287l-.944 2.376q-.864 2.174-1.722 4.352c-1.878 4.721-1.878 4.721-2.991 5.834-2.697.073-5.367.092-8.062.063l-2.3-.014q-2.818-.02-5.638-.049c-3.833-8.195-7.28-16.513-10.613-24.922l-1.597-4.006q-1.685-4.227-3.365-8.454c-2.925-7.356-5.86-14.708-8.796-22.06-.29-.725-.58-1.45-.877-2.197a3449 3449 0 0 0-14.627-36.048l-4.643-11.264c-3.252-7.902-6.417-15.838-9.58-23.777-4.866-12.21-9.79-24.398-14.715-36.585l-6.908-17.097a76050 76050 0 0 1-18.5-45.83l-20.157-49.959-7.4-18.336L2757 597l.09 3.138c.918 32.668 1.047 65.325 1.014 98.004q-.011 10.946-.01 21.892-.004 19.505-.019 39.008-.014 18.891-.02 37.782v2.372l-.005 11.786q-.016 48.51-.05 97.018h-24zM3406 568h25c8.71 9.1 8.71 9.1 11.033 13.457l1.586 2.885 1.631 2.97a716 716 0 0 0 3.623 6.024 929 929 0 0 1 7.438 12.502c5.083 8.598 10.721 16.804 16.38 25.028 3.045 4.434 6.052 8.893 9.059 13.353l1.813 2.685c6.725 9.98 13.332 20.037 19.937 30.096 10.872 16.555 21.881 33.012 32.977 49.418a5509 5509 0 0 1 23.978 35.77 4117 4117 0 0 0 19.261 28.722l3.642 5.385 1.83 2.705 1.81 2.678c11.158 16.505 22.147 33.118 33.077 49.775l1.796 2.736q1.669 2.542 3.335 5.087l1.479 2.254 1.289 1.969c.945 1.481.945 1.481 2.026 2.501l-.09-2.995c-.92-31.272-1.047-62.527-1.014-93.81q.011-10.495.01-20.99.004-18.697.019-37.397.014-18.111.02-36.222v-2.274l.005-11.3q.016-46.505.05-93.012h24v340h-25c-8.71-8.816-8.71-8.816-11.033-13.05l-1.586-2.808-1.631-2.892a739 739 0 0 0-3.623-5.871 748 748 0 0 1-7.438-12.264c-5.173-8.655-10.782-17.016-16.38-25.4-2.432-3.65-4.839-7.318-7.246-10.986-7.756-11.81-15.642-23.53-23.563-35.229-10.388-15.344-20.642-30.771-30.812-46.26a3521 3521 0 0 0-27.188-40.74c-11.048-16.321-21.948-32.734-32.772-49.204a6600 6600 0 0 0-25.54-38.546l-1.737-2.602q-4.724-7.075-9.451-14.148c-.113 9.855.039 19.662.497 29.508.57 13.311.638 26.6.617 39.922v7.607q0 8.1-.008 16.202-.011 11.71-.012 23.423-.004 19.012-.019 38.026-.014 18.442-.02 36.883v2.306l-.005 11.458q-.016 47.332-.05 94.665h-23zM1958 588c.813.59 1.627 1.18 2.465 1.79 32.985 25.126 51.893 64.65 57.535 105.21l.529 3.743c1.54 11.76 1.811 23.437 1.787 35.287-.003 3.137.02 6.273.045 9.41.059 18.424-1.628 36.599-6.174 54.497l-.783 3.155c-9.663 37.763-31.654 71.618-65.301 92.06-20.513 12.118-44.34 18.924-68.185 19.051l-2.587.017q-2.704.014-5.408.02c-2.69.01-5.38.04-8.07.072-15.216.094-30.268-1.355-44.853-5.937l-2.465-.76c-35.963-11.602-63.243-37.142-80.44-70.386-25.454-51.805-27.056-119.629-9.184-174.001 13.382-37.764 37.91-68.306 74.276-85.915C1849.003 553.21 1915.19 556.468 1958 588m-181.597 36.41c-3.985 4.515-7.286 9.452-10.403 14.59l-1.128 1.845c-26.614 44.447-27.133 105.002-15.627 154.148 8.123 32.36 25.148 61.114 54.06 78.87 8.399 4.969 17.352 8.208 26.695 10.887l2.081.603c11.869 3.207 23.858 4.014 36.107 3.96l2.046-.008c33.423-.19 63.214-10.076 87.11-34.23 31.56-33.042 37.596-82.385 36.75-126.02-1.265-41.413-10.69-83.175-41.094-113.055-.76-.76-1.521-1.519-2.305-2.3-22.127-20.872-54.645-28.203-84.218-27.852-35.268 1.545-65.663 12.202-90.074 38.562M1399 568c128.95 0 128.95 0 150.563 5.813l3.005.783c8.118 2.183 15.786 4.884 23.432 8.404.633.28 1.266.56 1.917.85 30.879 13.764 54.66 39.86 67.083 71.15 8.664 23.168 12.123 47.387 13 72l.129 3.488c.698 40.363-6.212 83.08-30.129 116.512l-1.816 2.55c-25.71 33.928-64.347 50.492-105.621 56.2-40.034 5.445-82.114 2.25-121.563 2.25zm25 22v296c85.555 3.029 85.555 3.029 162-31l2.574-2.078c28.312-24 38.956-61.38 41.961-97.047 3.23-43.229-2.135-90.31-31.224-124.365-23.774-27.387-58.278-38.007-93.311-41.51zM2388 568h25l.025 8.541a100037 100037 0 0 0 .3 89.99q.059 16.405.102 32.809.048 16.86.116 33.721.039 9.458.06 18.917.02 8.92.064 17.84.015 3.256.017 6.514c.018 15.54.328 31.132 4.441 46.23l.64 2.372c6.324 22.042 20.516 40.673 40.43 52.077 27.937 15.299 63.858 16.587 94.157 8.118A115 115 0 0 0 2569 879c.911-.43 1.823-.859 2.762-1.3 20.473-10.369 33.3-28.61 40.55-49.95 4.478-16.622 5.134-33.292 5.12-50.41l.031-6.895c.028-6.174.037-12.348.043-18.522.01-6.477.036-12.954.06-19.43q.057-16.275.088-32.55.03-16.747.084-33.493l.006-2.093.034-10.398c.093-28.653.164-57.306.222-85.959h25a99920 99920 0 0 1 .11 94.385l.001 2.01q.014 15.045.04 30.091.03 17.496.037 34.992.003 9.25.023 18.5.02 8.738.015 17.473 0 3.178.012 6.356c.039 11.073-.242 22.046-1.143 33.086l-.241 2.968c-2.704 30.197-15.93 58.098-39.041 77.987-25.13 19.23-55.107 26.779-86.347 26.543-2.532-.016-5.062 0-7.593.02-27.032.034-55.295-6.351-76.873-23.411l-2.8-2.156c-23.635-18.677-36.091-46.834-39.898-76.234-1.5-12.969-1.439-25.911-1.416-38.945v-6.686q.001-9.018.013-18.034.007-9.446.008-18.89.004-15.835.018-31.669.014-16.3.02-32.597v-2.035l.005-10.106q.016-41.824.05-83.648M3144 568h186v23h-162v127h153v23h-153v144h162v23h-186zM2241.688 562.75l2.344-.002c29.116.04 59.862 4.658 85.968 18.252-.61 5.226-2.276 9.546-4.375 14.313l-.922 2.205c-.814 1.867-1.751 3.68-2.703 5.482-4.333 1.444-6.985-.668-10.875-2.562-37.347-17.347-82.85-19.688-121.707-5.872-15.374 5.843-28.312 14.395-40.418 25.434l-2.012 1.797c-29.064 27.37-39.076 70.194-40.273 108.617-.822 45.455 7.84 92.026 40.363 125.766 24.568 24.383 58.84 32.79 92.547 33.07 24.008-.17 48.48-2.67 71.547-9.516C2314 879 2314 879 2318 879v22c-22.2 6.831-44.62 11.097-67.906 11.203l-3.045.017q-3.172.014-6.343.02c-3.17.01-6.34.041-9.51.072-40.537.21-77.474-12.092-106.735-40.832-32.003-32.41-44.215-79.068-45.461-123.48l-.066-2.331c-1.095-46.228 8.167-95.98 40.003-131.419L2123 610l2.375-3.062c4.071-4.557 8.814-8.19 13.625-11.938l2.527-2.004c28.996-22.115 64.252-30.218 100.16-30.246M3702 568h245v23h-110v317h-25V591h-110z"/><path fill="#61C354" d="M355 61a10038038 10038038 0 0 1 292.627 10.199l3.107.108q49.802 1.737 99.604 3.471l116.884 4.075 2.878.1 45.779 1.595a591305 591305 0 0 1 73.421 2.56l28.718 1c16.33.567 32.657 1.185 48.982 1.892.125 13.75.125 13.75-1 16-13.227.201-26.437-.364-39.653-.832q-5.28-.186-10.56-.367-9.24-.32-18.478-.645-13.74-.481-27.477-.958-24.54-.853-49.078-1.712a364532 364532 0 0 0-57.39-2.003 717503 717503 0 0 1-108.485-3.79q-48.187-1.686-96.376-3.364a725798 725798 0 0 1-122.722-4.282q-21.46-.75-42.922-1.497-24.397-.847-48.796-1.705-13.654-.48-27.308-.952-9.12-.316-18.24-.639a9264 9264 0 0 0-10.393-.362q-5.601-.193-11.201-.394l-3.249-.109A255 255 0 0 1 355 77z"/></svg>