<svg xmlns="http://www.w3.org/2000/svg" xml:space="preserve" style="fill-rule:evenodd;clip-rule:evenodd;stroke-linejoin:round;stroke-miterlimit:2" viewBox="0 0 300 300"><path d="M104.712 80.594h14.575v45.939h-14.575z" style="fill:none" transform="matrix(20.5829 0 0 -6.53046 -2155.26 826.318)"/><path d="M129 297.5c-14.9-7.1-21.6-22.9-16-38 2.2-5.8 5.7-9.5 108.1-112L327 41.5l-.2 119-.3 119-2.2 4.1c-1.2 2.3-4.5 6.2-7.3 8.7-6.5 5.9-13 8.1-21.9 7.5-11.2-.8-19.3-6.3-24.3-16.6l-3.3-6.7-.3-44.9-.3-45-54.2 54.1c-37.8 37.7-55.6 54.8-58.7 56.4-3.1 1.5-6.8 2.4-12 2.6-6.5.4-8.2.1-13-2.2Zm1.7-127.9c-2-.7-4.5-2-5.5-2.7-12.1-9.1-16.6-21.2-12.7-34.5 1.6-5.8 2.4-6.6 33.6-37.9C163.6 76.8 178 62.1 178 61.7c0-.3-34.8-.8-77.2-.9l-77.3-.3-5.1-2.3C7.4 53.2.6 42.6.6 30.5.7 19.3 6.2 10 16.1 4.5l5.4-3 151-.3 151-.2L241 83.5c-60 60-83.7 83.1-87 84.8-5.6 2.7-17.6 3.4-23.3 1.3Z" style="fill:#00d993;fill-rule:nonzero" transform="translate(24.54 34.767) scale(.76593)"/></svg>