<svg xmlns="http://www.w3.org/2000/svg" viewBox="0 0 500 461.8">
  <path fill="#ffd21e" d="M248.58 422.607c108.318 0 197.439-89.129 197.439-197.441 0-108.31-89.116-197.439-197.439-197.439-108.299 0-197.44 89.129-197.44 197.439 0 108.312 89.141 197.441 197.44 197.441Z"/>
  <path fill="#ff9d0b" d="M446.019 225.166c0-108.31-89.116-197.439-197.439-197.439-108.299 0-197.44 89.129-197.44 197.439 0 108.312 89.141 197.441 197.44 197.441 108.318 0 197.439-89.129 197.439-197.441Zm-417.606 0C28.413 104.385 127.81 5 248.58 5c120.794 0 220.168 99.385 220.168 220.166 0 120.784-99.374 220.168-220.168 220.168-120.77 0-220.167-99.384-220.167-220.168Z"/>
  <path fill="#3a3b45" d="M312.727 171.475c7.272 2.499 10.114 17.387 17.442 13.522a28.445 28.445 0 0 0 15.091-25.09c0-15.586-12.824-28.408-28.408-28.408-15.586 0-28.409 12.822-28.409 28.408a28.32 28.32 0 0 0 3.324 13.329c3.466 6.534 14.488-4.09 21.022-1.818l-.056.057h-.006Zm-133.805 0c-7.272 2.499-10.17 17.387-17.443 13.522a28.436 28.436 0 0 1-15.079-25.09c0-15.586 12.824-28.408 28.409-28.408 15.584 0 28.408 12.822 28.408 28.408a28.38 28.38 0 0 1-3.324 13.329c-3.465 6.534-14.544-4.09-21.022-1.818l.057.057h-.006Z"/>
  <path fill="#ff323d" d="M247.161 307.779c55.85 0 73.861-49.772 73.861-75.34 0-13.295-8.919-9.09-23.238-2.044-13.238 6.533-31.022 15.568-50.568 15.568-40.85 0-73.862-39.09-73.862-13.524 0 25.568 17.955 75.34 73.862 75.34h-.055Z"/>
  <path fill="#3a3b45" d="M204.377 294.769a49.45 49.45 0 0 1 30.113-25.511c2.272-.682 4.601 3.238 7.046 7.271 2.271 3.865 4.658 7.784 7.044 7.784 2.557 0 5.114-3.863 7.557-7.669 2.557-3.978 5.055-7.841 7.499-7.102a48.912 48.912 0 0 1 28.408 23.692c21.194-16.705 28.978-43.976 28.978-60.795 0-13.295-8.919-9.09-23.238-2.044l-.795.396c-13.125 6.535-30.625 15.172-49.828 15.172-19.205 0-36.649-8.637-49.83-15.172-14.773-7.328-24.033-11.931-24.033 1.648 0 17.33 8.295 45.795 31.079 62.33Z"/>
  <path fill="#ff9d0b" d="M382.101 198.179c10.176-.046 18.42-8.284 18.466-18.466-.046-10.181-8.29-18.419-18.466-18.465-10.181.046-18.42 8.284-18.465 18.465.045 10.182 8.284 18.42 18.465 18.466Zm-264.201 0c10.176-.046 18.42-8.284 18.467-18.466-.047-10.181-8.291-18.419-18.467-18.465-10.181.046-18.42 8.284-18.465 18.465.045 10.182 8.284 18.42 18.465 18.466Zm-38.011 62.498c-9.205 0-17.385 3.751-23.125 10.625a33.94 33.94 0 0 0-7.556 21.364 40.548 40.548 0 0 0-11.021-1.705c-8.809 0-16.762 3.354-22.387 9.433-10.289 10.725-12.148 26.998-4.545 39.771a30.12 30.12 0 0 0-10.171 16.022 33.22 33.22 0 0 0 4.546 26.932 29.682 29.682 0 0 0-2.102 28.521c5.795 13.183 20.283 23.524 48.407 34.659 17.443 6.933 33.467 11.365 33.579 11.422a252.06 252.06 0 0 0 62.102 9.091c33.295 0 57.101-10.229 70.794-30.341 22.046-32.329 18.92-61.931-9.658-90.454-15.74-15.795-26.249-39.033-28.409-44.147-4.433-15.112-16.137-31.931-35.511-31.931a32.405 32.405 0 0 0-26.137 13.977c-5.68-7.16-11.249-12.784-16.249-16.022a42.047 42.047 0 0 0-22.557-7.217Zm0 22.728c2.898 0 6.478 1.25 10.342 3.694 12.158 7.727 35.51 47.896 44.089 63.52 2.842 5.227 7.784 7.444 12.159 7.444 8.808 0 15.626-8.694.853-19.772-22.273-16.648-14.489-43.864-3.864-45.512.454-.113.967-.113 1.364-.113 9.658 0 13.92 16.647 13.92 16.647s12.5 31.363 33.978 52.841c21.42 21.42 22.555 38.636 6.931 61.532-10.682 15.625-31.079 20.342-52.045 20.342-21.648 0-43.921-5.114-56.363-8.295-.626-.172-76.418-21.591-66.817-39.773 1.592-3.069 4.262-4.318 7.612-4.318 13.524 0 38.07 20.113 48.694 20.113 2.329 0 3.977-.965 4.715-3.408 4.49-16.194-68.521-23.013-62.385-46.42 1.137-4.148 4.034-5.797 8.181-5.797 17.842 0 57.955 31.42 66.363 31.42.626 0 1.137-.169 1.364-.568 4.204-6.817 1.876-11.591-27.84-29.545-29.603-17.953-50.453-28.748-38.636-41.646 1.364-1.478 3.295-2.159 5.683-2.159 18.01 0 60.566 38.749 60.566 38.749s11.477 11.932 18.466 11.932c1.59 0 2.954-.569 3.864-2.159 4.885-8.295-45.796-46.704-48.636-62.557-1.932-10.795 1.363-16.192 7.442-16.192Z"/>
  <path fill="#ffd21e" d="M199.661 423.686c15.624-22.953 14.489-40.169-6.931-61.589-21.478-21.421-33.978-52.841-33.978-52.841s-4.658-18.181-15.284-16.477c-10.625 1.705-18.409 28.864 3.864 45.512 22.215 16.647-4.432 27.954-13.012 12.328-8.522-15.624-31.931-55.793-44.089-63.52-12.102-7.672-20.626-3.41-17.784 12.498 2.84 15.853 53.578 54.262 48.636 62.5-4.945 8.352-22.33-9.716-22.33-9.716s-54.375-49.487-66.249-36.59c-11.817 12.898 9.033 23.693 38.636 41.646 29.716 17.954 32.044 22.728 27.84 29.545-4.261 6.819-69.771-48.464-75.908-25-6.136 23.352 66.875 30.114 62.385 46.308-4.544 16.192-51.477-30.568-61.021-12.387-9.659 18.239 66.191 39.658 66.817 39.83 24.432 6.363 86.647 19.828 108.408-12.047Z"/>
  <path fill="#ff9d0b" d="M420.111 260.677c9.205 0 17.443 3.751 23.126 10.625a33.964 33.964 0 0 1 7.557 21.364 40.45 40.45 0 0 1 11.077-1.705c8.809 0 16.762 3.354 22.387 9.433 10.289 10.725 12.148 26.998 4.545 39.771a30.142 30.142 0 0 1 10.114 16.022 33.225 33.225 0 0 1-4.546 26.932 29.688 29.688 0 0 1 2.103 28.521c-5.795 13.183-20.284 23.524-48.351 34.659-17.5 6.933-33.522 11.365-33.637 11.422a252.094 252.094 0 0 1-62.101 9.091c-33.294 0-57.101-10.229-70.795-30.341-22.044-32.329-18.918-61.931 9.659-90.454 15.795-15.795 26.306-39.033 28.466-44.147 4.433-15.112 16.079-31.931 35.454-31.931a32.425 32.425 0 0 1 26.137 13.977c5.68-7.16 11.249-12.784 16.306-16.022a42.05 42.05 0 0 1 22.499-7.217Zm0 22.728c-2.896 0-6.42 1.25-10.339 3.694-12.103 7.727-35.512 47.896-44.092 63.52a13.826 13.826 0 0 1-12.159 7.444c-8.75 0-15.625-8.694-.795-19.772 22.216-16.648 14.432-43.864 3.807-45.512a8.48 8.48 0 0 0-1.364-.113c-9.659 0-13.92 16.647-13.92 16.647s-12.5 31.363-33.921 52.841c-21.476 21.42-22.612 38.636-6.93 61.532 10.626 15.625 31.078 20.342 51.987 20.342 21.705 0 43.92-5.114 56.42-8.295.568-.172 76.418-21.591 66.817-39.773-1.648-3.069-4.262-4.318-7.614-4.318-13.522 0-38.123 20.113-48.692 20.113-2.387 0-4.033-.965-4.715-3.408-4.546-16.194 68.464-23.013 62.327-46.42-1.079-4.148-3.976-5.797-8.18-5.797-17.842 0-57.954 31.42-66.363 31.42-.569 0-1.08-.169-1.307-.568-4.204-6.817-1.933-11.591 27.727-29.545 29.716-17.953 50.566-28.748 38.636-41.646-1.308-1.478-3.239-2.159-5.57-2.159-18.066 0-60.623 38.749-60.623 38.749s-11.476 11.932-18.409 11.932a4.199 4.199 0 0 1-3.864-2.159c-4.942-8.295 45.738-46.704 48.579-62.557 1.932-10.795-1.364-16.192-7.443-16.192Z"/>
  <path fill="#ffd21e" d="M300.398 423.686c-15.627-22.953-14.546-40.169 6.93-61.589 21.421-21.421 33.921-52.841 33.921-52.841s4.66-18.181 15.341-16.477c10.568 1.705 18.352 28.864-3.864 45.512-22.273 16.647 4.432 27.954 12.954 12.328 8.58-15.624 31.989-55.793 44.092-63.52 12.101-7.672 20.68-3.41 17.782 12.498-2.841 15.853-53.521 54.262-48.579 62.5 4.887 8.352 22.273-9.716 22.273-9.716s54.431-49.487 66.248-36.59c11.819 12.898-8.975 23.693-38.636 41.646-29.715 17.954-31.986 22.728-27.839 29.545 4.26 6.819 69.771-48.464 75.907-25 6.137 23.352-66.817 30.114-62.327 46.308 4.545 16.192 51.418-30.568 61.021-12.387 9.601 18.239-66.193 39.658-66.817 39.83-24.489 6.363-86.704 19.828-108.407-12.047Z"/>
</svg>
