<svg xmlns="http://www.w3.org/2000/svg" xml:space="preserve" viewBox="0 171.6 512 168.9"><path d="M113.8 234.7c8.5 6.9 12.7 17.6 12.7 32.3v73.5H86.2v-68.1q0-4.5-3.3-7.8t-7.8-3.3H51.5c-3 0-5.5 1.1-7.6 3.3s-3.2 4.8-3.2 7.8v68.1H0V171.6h40.7v55c.6-.2 2.1-.6 4.5-1.3 2.3-.6 5.4-1 9.2-1h26.1c13.7.1 24.9 3.5 33.3 10.4M242 224.4h40.7v71.2c0 13.4-3.7 24.2-11 32.4-7.3 8.3-17.2 12.4-29.7 12.4h-40.1c-14 0-25.2-3.9-33.5-11.6-8.4-7.7-12.6-18.8-12.6-33.2v-71.2h40.7v68.1c0 3 1.1 5.5 3.2 7.6s4.7 3.2 7.6 3.2h23.5c3 0 5.6-1.1 7.8-3.2s3.3-4.7 3.3-7.6v-68.1zm71.6-52.8h40.7v168.9h-40.7zM512 224.4v71.2c0 13.4-3.7 24.2-11 32.4-7.3 8.3-17.2 12.4-29.7 12.4h-39.8c-14.2 0-25.5-3.9-33.9-11.6S385 310 385 295.6v-71.2h40.7v68.1c0 3 1.1 5.5 3.2 7.6s4.7 3.2 7.6 3.2h23.9c3 0 5.5-1.1 7.6-3.2s3.2-4.7 3.2-7.6v-68.1z" style="fill:#1ce783"/></svg>