<svg xmlns="http://www.w3.org/2000/svg" xml:space="preserve" viewBox="0 0 1075 401.15"><g fill="#1f70c1"><path d="M0 373.17h194.43v27.932H0zM0 319.83h194.43v27.932H0zM55.468 266.54h83.399v27.932H55.468zM55.468 213.25h83.399v27.932H55.468zM55.468 159.96h83.399v27.932H55.468zM55.468 106.58h83.399v27.932H55.468zM0 53.288h194.43V81.22H0zM0 0h194.43v27.932H0zM222.17 400.85l207.11.297c27.734 0 52.793-10.697 71.513-27.932h-278.62zM222.17 347.76H521.2a99.235 99.235 0 0 0 11.094-27.932h-310.12zM277.73 266.54h83.3v27.932h-83.3zM444.43 266.54v27.932h90.927c0-9.608-1.288-19.017-3.764-27.932zM497.92 213.25H277.73v27.932h243.46c-6.34-10.698-14.165-20.107-23.277-27.932zM277.73 159.96v27.932h220.19c9.311-7.825 17.135-17.235 23.277-27.932zM277.73 106.58h83.3v27.932h-83.3zM444.43 134.51h87.163c2.476-8.914 3.764-18.324 3.764-27.932H444.43zM521.2 53.288H222.17V81.22h310.12c-2.575-9.905-6.339-19.314-11.093-27.932zM429.28 0H222.17v27.932H500.7A105.147 105.147 0 0 0 429.286 0zM555.57 81.22h187.1l-9.61-27.932H555.57zM555.57 27.932h168.68L714.64 0H555.57zM861.03 401.17v-27.93H1000v27.93zM861.03 347.76v-27.93H1000v27.93zM777.73 182.54l-7.82-22.58H611.03v27.93h83.4v-25.65l8.82 25.65h148.97l8.81-25.65v25.65h83.4v-27.93H785.56zM944.43 106.58H803.98l-9.61 27.93h150.06zM1000 27.932V0H840.93l-9.61 27.932zM768.13 373.22l9.6 27.63 9.61-27.63zM749.5 319.83l9.81 27.93h36.85l9.9-27.93zM730.78 266.54l9.81 27.93h74.29l9.8-27.93zM721.97 241.18H833.6l9.51-27.93H712.36zM611.03 134.51h150.06l-9.6-27.93H611.03zM1000 53.288H822.4l-9.5 27.932H1000zM555.57 373.22h138.97v27.932H555.57zM555.57 319.83h138.97v27.932H555.57zM611.03 266.54h83.399v27.932H611.03zM611.03 213.25h83.399v27.932H611.03zM861.03 213.25h83.399v27.932H861.03zM861.03 266.54h83.399v27.932H861.03zM1052 357.15a22 22 0 0 0-22 22 22 22 0 0 0 22 22 22 22 0 0 0 22-22 22 22 0 0 0-22-22zm0 4a18 18 0 0 1 18 18 18 18 0 0 1-18 18 18 18 0 0 1-18-18 18 18 0 0 1 18-18zm-9.348 6.793v22.414h5.453v-7.73h3.098l4.164 7.73h5.98l-5.023-8.582c2.462-.964 4.063-3.216 4.063-6.75 0-4.082-2.56-7.082-7.582-7.082zm5.453 4.29h4.055c1.712 0 2.668.75 2.668 2.355v1.613c0 1.605-.956 2.36-2.668 2.36h-4.055z"/></g></svg>