<svg xmlns="http://www.w3.org/2000/svg" viewBox="0 0 180 180"><circle cx="90" cy="90" r="90"/><path fill="#fff" d="M37.753 62.604h-2.175c-2.714 0-4.091.806-4.091 2.393v39.272c0 1.589 1.377 2.393 4.091 2.393h2.175c2.715 0 4.091-.805 4.091-2.393V64.997c.001-1.587-1.376-2.393-4.091-2.393ZM76.105 101.852c0-4.685 3.089-8.651 7.356-10.015.488-2.184.733-4.593.738-7.226 0-14.196-7.221-22.015-20.334-22.015H49.886c-1.952 0-2.862.902-2.862 2.838v38.354c0 1.936.91 2.837 2.861 2.837h13.979c4.999 0 9.139-1.14 12.351-3.332-.07-.477-.107-.959-.111-1.441m-12.241-4.056h-6.436V71.425h6.436c8.053 0 9.744 7.171 9.744 13.186s-1.691 13.185-9.744 13.185Z" style="transform-origin:90px 90px"/><path fill="#2EA76D" d="M86.724 97.043c2.679 0 4.852 2.153 4.852 4.81 0 2.656-2.173 4.81-4.852 4.81-2.68 0-4.852-2.154-4.852-4.81 0-2.657 2.172-4.81 4.852-4.81Z" style="transform-origin:90px 90px"/><path fill="#fff" d="M155.722 95.102a1.258 1.258 0 0 0-.449-.099c-.663-.022-1.115.236-1.514.876-.236.383-.469.773-.7 1.163-.88 1.486-1.789 3.021-3.11 4.122-1.794 1.493-4.392 2.192-6.62 1.786-1.325-.24-2.271-1.191-2.832-1.945-1.028-1.387-1.529-3.253-1.449-5.405 3.28-.274 13.163-1.722 13.949-9.149.153-1.44-.261-2.745-1.196-3.774-1.185-1.305-3.078-2.025-5.327-2.025-6.592 0-13.098 6.836-13.923 14.628-.226 2.138.043 4.111.8 5.871-.48.46-1.029.843-1.624 1.138-.553.26-1.031.314-1.382.154-.434-.2-.61-.703-.679-1.088-.26-1.427.075-3.067.472-4.761.233-.994.527-2.028.784-2.942.797-2.819 1.622-5.733 1.347-8.677-.25-2.695-2.159-4.37-4.981-4.37-3.956 0-6.561 2.799-8.247 5.198-.035-1.788-.465-3.086-1.308-3.954-.801-.826-1.979-1.245-3.498-1.245-3.88 0-6.453 2.688-8.134 5.041l.069-.657c.106-1.009.153-2.454-.659-3.347-.483-.532-1.21-.802-2.16-.802a8.967 8.967 0 0 0-1.949.153c-.009.001-.881.17-1.213.472-.581.529-.396 1.258-.29 1.674.013.052.026.101.032.142.067.461.087.927.061 1.392-.122 2.83-.651 5.659-1.154 8.053-.272 1.29-.578 2.602-.88 3.897-.673 2.874-1.366 5.844-1.722 8.832a1.06 1.06 0 0 0 1.067 1.203l.209.003c2.133.028 4.228-.059 4.721-1.265.545-1.33.847-2.948 1.113-4.379l.118-.634c.632-3.29 1.185-5.647 2.298-8.678.574-1.562 1.622-2.968 2.47-4.021 1.026-1.274 2.134-2.521 3.383-2.553.516-.026.854.127 1.108.462 1.213 1.605-.297 6.784-.942 8.997-.14.478-.258.882-.332 1.178l-.445 1.709c-.654 2.492-1.331 5.068-1.677 7.674-.035.267-.068.535-.095.806l-.029.363.273.208c.55.424 4.481-.169 4.513-.178 1.449-.486 1.764-1.838 1.868-2.282.27-1.149.509-2.324.739-3.458l.017-.084c.432-2.138.88-4.349 1.549-6.482 1.307-4.152 3.048-6.984 5.179-8.419.911-.615 1.847-.684 2.27-.164.736.897.27 3.326.07 4.363-.275 1.439-.628 2.902-.968 4.318l-.018.073c-.219.902-.435 1.803-.637 2.708-.623 2.802-1.134 6.277.457 8.283.81 1.022 2.063 1.54 3.725 1.54 1.763 0 3.421-.583 5.218-1.834.495-.348.995-.753 1.579-1.234 2.023 2.28 4.32 3.257 7.637 3.257 7.498 0 11.023-4.94 13.023-8.655.266-.476.501-.969.702-1.475.248-.684-.05-1.432-.678-1.701m-9.195-9.381c.01.115.02.231.021.348 0 .174-.009.348-.027.523a8.786 8.786 0 0 1-.339 1.705c-1.07 3.44-4.082 4.049-6.688 4.136a20.051 20.051 0 0 1 1.515-4.249c1.267-2.561 2.86-4.151 4.154-4.152.12 0 .239.018.353.05.06.021.118.046.173.077l.055.024a.311.311 0 0 1 .063.032c.057.037.109.081.158.129l.044.041c.018.014.033.03.049.047.035.041.067.085.096.131l.038.058c.029.04.055.082.078.125.014.027.025.058.06.138.037.085.068.172.096.26l.024.107c.029.113.051.226.066.341l.011.129Z" style="transform-origin:90px 90px"/></svg>