<?xml version="1.0" encoding="utf-8"?>
<svg viewBox="0 0 180 180" xmlns="http://www.w3.org/2000/svg">
  <ellipse style="" cx="90" cy="90" rx="90" ry="90" transform="matrix(1, 0, 0, 1, 0, -1.7763568394002505e-15)"/>
  <path d="M 37.753 62.604 L 35.578 62.604 C 32.864 62.604 31.487 63.41 31.487 64.997 L 31.487 104.269 C 31.487 105.858 32.864 106.662 35.578 106.662 L 37.753 106.662 C 40.468 106.662 41.844 105.857 41.844 104.269 L 41.844 64.997 C 41.845 63.41 40.468 62.604 37.753 62.604 Z" fill="white" style="transform-origin: 90px 90px;"/>
  <path d="M 76.105 101.852 C 76.105 97.167 79.194 93.201 83.461 91.837 C 83.949 89.653 84.194 87.244 84.199 84.611 C 84.199 70.415 76.978 62.596 63.865 62.596 L 49.886 62.596 C 47.934 62.596 47.024 63.498 47.024 65.434 L 47.024 103.788 C 47.024 105.724 47.934 106.625 49.885 106.625 L 63.864 106.625 C 68.863 106.625 73.003 105.485 76.215 103.293 C 76.145 102.816 76.108 102.334 76.104 101.852 M 63.863 97.796 L 57.427 97.796 L 57.427 71.425 L 63.863 71.425 C 71.916 71.425 73.607 78.596 73.607 84.611 C 73.607 90.626 71.916 97.796 63.863 97.796 Z" fill="white" style="transform-origin: 90px 90px;"/>
  <path d="M 86.724 97.043 C 89.403 97.043 91.576 99.196 91.576 101.853 C 91.576 104.509 89.403 106.663 86.724 106.663 C 84.044 106.663 81.872 104.509 81.872 101.853 C 81.872 99.196 84.044 97.043 86.724 97.043 Z" fill="#2EA76D" style="transform-origin: 90px 90px;"/>
  <path d="M 155.722 95.102 C 155.58 95.042 155.428 95.008 155.273 95.003 C 154.61 94.981 154.158 95.239 153.759 95.879 C 153.523 96.262 153.29 96.652 153.059 97.042 C 152.179 98.528 151.27 100.063 149.949 101.164 C 148.155 102.657 145.557 103.356 143.329 102.95 C 142.004 102.71 141.058 101.759 140.497 101.005 C 139.469 99.618 138.968 97.752 139.048 95.6 C 142.328 95.326 152.211 93.878 152.997 86.451 C 153.15 85.011 152.736 83.706 151.801 82.677 C 150.616 81.372 148.723 80.652 146.474 80.652 C 139.882 80.652 133.376 87.488 132.551 95.28 C 132.325 97.418 132.594 99.391 133.351 101.151 C 132.871 101.611 132.322 101.994 131.727 102.289 C 131.174 102.549 130.696 102.603 130.345 102.443 C 129.911 102.243 129.735 101.74 129.666 101.355 C 129.406 99.928 129.741 98.288 130.138 96.594 C 130.371 95.6 130.665 94.566 130.922 93.652 C 131.719 90.833 132.544 87.919 132.269 84.975 C 132.019 82.28 130.11 80.605 127.288 80.605 C 123.332 80.605 120.727 83.404 119.041 85.803 C 119.006 84.015 118.576 82.717 117.733 81.849 C 116.932 81.023 115.754 80.604 114.235 80.604 C 110.355 80.604 107.782 83.292 106.101 85.645 C 106.123 85.429 106.146 85.208 106.17 84.988 C 106.276 83.979 106.323 82.534 105.511 81.641 C 105.028 81.109 104.301 80.839 103.351 80.839 C 102.697 80.819 102.044 80.87 101.402 80.992 C 101.393 80.993 100.521 81.162 100.189 81.464 C 99.608 81.993 99.793 82.722 99.899 83.138 C 99.912 83.19 99.925 83.239 99.931 83.28 C 99.998 83.741 100.018 84.207 99.992 84.672 C 99.87 87.502 99.341 90.331 98.838 92.725 C 98.566 94.015 98.26 95.327 97.958 96.622 C 97.285 99.496 96.592 102.466 96.236 105.454 C 96.157 106.035 96.563 106.569 97.143 106.648 C 97.196 106.655 97.25 106.658 97.303 106.657 L 97.512 106.66 C 99.645 106.688 101.74 106.601 102.233 105.395 C 102.778 104.065 103.08 102.447 103.346 101.016 L 103.464 100.382 C 104.096 97.092 104.649 94.735 105.762 91.704 C 106.336 90.142 107.384 88.736 108.232 87.683 C 109.258 86.409 110.366 85.162 111.615 85.13 C 112.131 85.104 112.469 85.257 112.723 85.592 C 113.936 87.197 112.426 92.376 111.781 94.589 C 111.641 95.067 111.523 95.471 111.449 95.767 L 111.004 97.476 C 110.35 99.968 109.673 102.544 109.327 105.15 C 109.292 105.417 109.259 105.685 109.232 105.956 L 109.203 106.319 L 109.476 106.527 C 110.026 106.951 113.957 106.358 113.989 106.349 C 115.438 105.863 115.753 104.511 115.857 104.067 C 116.127 102.918 116.366 101.743 116.596 100.609 L 116.613 100.525 C 117.045 98.387 117.493 96.176 118.162 94.043 C 119.469 89.891 121.21 87.059 123.341 85.624 C 124.252 85.009 125.188 84.94 125.611 85.46 C 126.347 86.357 125.881 88.786 125.681 89.823 C 125.406 91.262 125.053 92.725 124.713 94.141 L 124.695 94.214 C 124.476 95.116 124.26 96.017 124.058 96.922 C 123.435 99.724 122.924 103.199 124.515 105.205 C 125.325 106.227 126.578 106.745 128.24 106.745 C 130.003 106.745 131.661 106.162 133.458 104.911 C 133.953 104.563 134.453 104.158 135.037 103.677 C 137.06 105.957 139.357 106.934 142.674 106.934 C 150.172 106.934 153.697 101.994 155.697 98.279 C 155.963 97.803 156.198 97.31 156.399 96.804 C 156.647 96.12 156.349 95.372 155.721 95.103 M 146.526 85.722 C 146.536 85.837 146.546 85.953 146.547 86.07 C 146.547 86.244 146.538 86.418 146.52 86.593 C 146.464 87.17 146.35 87.742 146.181 88.298 C 145.111 91.738 142.099 92.347 139.493 92.434 C 139.836 90.966 140.345 89.54 141.008 88.185 C 142.275 85.624 143.868 84.034 145.162 84.033 C 145.282 84.033 145.401 84.051 145.515 84.083 C 145.575 84.104 145.633 84.129 145.688 84.16 L 145.743 84.184 C 145.765 84.192 145.786 84.203 145.806 84.216 C 145.863 84.253 145.915 84.297 145.964 84.345 L 146.008 84.386 C 146.026 84.4 146.041 84.416 146.057 84.433 C 146.092 84.474 146.124 84.518 146.153 84.564 L 146.191 84.622 C 146.22 84.662 146.246 84.704 146.269 84.747 C 146.283 84.774 146.294 84.805 146.329 84.885 C 146.366 84.97 146.397 85.057 146.425 85.145 L 146.449 85.252 C 146.478 85.365 146.5 85.478 146.515 85.593 L 146.526 85.722 Z" fill="white" style="transform-origin: 90px 90px;"/>
</svg>