<svg xmlns="http://www.w3.org/2000/svg" viewBox="0 0 140 184.7"><defs><clipPath id="a"><path d="M-.464 0h140.55v184.711H-.464V0Zm0 0" style="stroke-width:.998px"/></clipPath></defs><path d="M130.418 80.504c-.499-.899-.9-1.699-1.495-2.399-3.291-5-7.477-9-12.461-11.902-2.99-1.898-6.382-3.199-9.968-4.098L61.638 50.004c-3.489-.899-6.978-1.399-10.268-1.399-6.779-.101-13.258 1.7-19.637 5.399a9.754 9.754 0 0 0-1.693 1.101c-2.991 1.899-5.584 4-7.877 6.598-4.186 4.402-7.075 9.902-8.672 16.199l-12.063 45c-2.788 10.5-1.495 20.5 3.89 29.899 5.381 9.5 13.356 15.601 23.923 18.402l44.954 12.098c10.467 2.801 20.338 1.402 29.706-4 9.47-5.399 15.552-13.399 18.441-23.797l12.063-45c2.492-9.703 1.694-18.801-2.691-27.602-.401-.898-.798-1.699-1.296-2.398Zm1.495-53.102c-7.476-13-18.441-21.5-33.093-25.398C84.265-1.895 70.508-.098 57.452 7.402c-12.959 7.602-21.431 18.703-25.321 33.301a93.99 93.99 0 0 0-1.496 6.699c7.776-4 15.354-5.797 22.83-5.5 2.788-6.797 7.573-12.097 14.154-16 8.071-4.597 16.646-5.797 25.718-3.398 9.069 2.5 15.949 7.699 20.532 15.801 3.789 6.597 5.183 13.5 4.388 20.8 6.18 3.399 11.861 9.098 16.946 16.797.896-2.199 1.694-4.398 2.391-6.797 3.687-14.601 1.892-28.601-5.681-41.703" clip-path="url(#a)" style="stroke:none;fill-rule:nonzero;fill:#ef4441;fill-opacity:1;stroke-width:.998px"/><path d="M50.933 108.102h34.402c-.5-5.7-2-10-4.699-12.801-2.903-2.996-7.102-4.496-12.5-4.496-4.903 0-9 1.5-12.102 4.496-3.199 3.101-4.898 7.301-5.101 12.801m40.5 24.902h16.902c-2.5 8.898-7.199 15.699-14.199 20.398-7 4.899-15.703 7.301-26.301 7.301-12.801 0-22.801-3.902-30-11.801-7.199-7.699-10.801-18.601-10.801-32.898 0-13.602 3.5-24.199 10.5-31.899 7.199-7.902 17.199-11.8 30-11.8 13.5 0 24 3.8 31.399 11.5 7.203 7.898 10.8 18.797 10.8 32.898v3.5c0 1.098-.097 1.801-.3 2.199H51.034c.199 6.602 1.899 11.5 5.102 14.7 2.898 3.402 7.297 5.101 13.199 5.101 3.801 0 7.098-.699 9.801-2.199.699-.203 1.297-.602 1.898-1.102.602-.5 1.199-1.101 1.899-1.8.203-.598 1.101-1.5 2.5-2.5 1.203-1 3.3-1.598 6-1.598" style="stroke:none;fill-rule:nonzero;fill:#fff;fill-opacity:1;stroke-width:1px"/></svg>