<svg xmlns="http://www.w3.org/2000/svg" xml:space="preserve" id="svg38" x="0" y="0" style="enable-background:new 0 0 566.9 341.4" version="1.1" viewBox="0 0 566.9 341.4"><style id="style2" type="text/css">.st1{fill:#333}</style><path id="path4" d="M475.3 205.4c.4 3.2-2.1 5.8-2.1 5.8l-2.8-.9s-20.3-7.2-51.5-16.3c0 0-27.6-8.2-38.8-11.9 0 0-2.4-.9-7.1-.5-4.7.5-21 1.7-31.8 2.8l-16.4 1.9c-29.6 3.4-43.2 4-43.2 4-47 4.5-58.3 5.4-58.3 5.4-24.8 1.8-40.6 4.8-77.8 7.2l-69.9 7-5 .5-1.9.2c-1.5-1-1.7-2.2-1.7-2.2l.1-2.6c3-1.1-.4-4.2-.4-4.2-1.5-.6-1-1.8-1-1.8 0-.2.1-.3.2-.5.2-.3.5-.7.4-.8-.3-.8 1.2-3.8 1.2-3.8-.8-1-.5-.8-1.3-1.8-.5-.6-.7-2.5-.9-3.9-.1-.9 1.6-2.8 1.1-3.3l-2.1-2.4c-.2-.3-.5-.9-.6-1.4-.1-.3.1-.8.2-1 .5-.7.5-.7-.1-1.9-.2-.4-.5-.8-.8-1.2-.5-.9 1.2-2.9 1.1-4.2-.1-.6-.2-1.2-.4-1.8-.1-.4-.3-.9-.4-1.5 0-.1-.1-.2-.1-.4-.1-.3-.1-.6-.1-.9-.1-.5-.1-1 0-1.3-.2-.6-.4-1.3-.6-1.9-.1-.5-.1-.9.1-1.2.1-.1.1-.2.2-.2.4-.2.2-1.1.4-1.6-.1-.1-.1-.2-.2-.3-.3-.3-.3-.5-.3-.8.2-.5 0-1.3.1-1.9.1-.7-.1-1.4-.4-2.1-.1-.3-.2-.7-.3-1-.1-.5-.1-.8 0-1 .2-.3.4-.6.6-1 .1-.2.1-.8-.1-1.3-.1-.3-.3-.7-.5-1-.2-.4-.5-.7-.8-1-.6-.7-1-1.6-.8-2.6.1-.7 0-1.1-.4-1.5-.2-.3-.5-.6-.7-1-.8-1.5-.7-1.9.1-2.1.8-.1.9-.3.7-1.9-.2-1.5-.2-2.4.6-2.6.4-.1.8-.6.6-1.8-.2-1.2.4-3.4-.3-3.7-.9-.4-1-1.9-1.5-2.8 0 0 .1-.4.1-.3.1.1.3.3.4.3.2.1.3 0 .5 0-.1-.4-.2-.8-.4-1-.5-.6-.6-1.1-.6-2.2 0-1.3-.1-3-1.2-3.9-.2-.1-.4-1-.4-1.5 0-.3.2-.6.4-.7.2-.1.5 0 .7-.1.2-.1.4-.3.5-.5-.2-.4-.3-.9-.5-1.2-.3-.5-.7-.8-1-1.2-.6-.6-.9-1.5-.5-2 .7-.7.1-1.3-.3-2.1-.2-.4-.5-.9-.6-1.3-.1-.3-.1-.8 0-.9.1-.3.7-1.2 1.9-1.2.5 0 .6-.7.6-.9-.2-.4-1.4-.1-1.6-.2-.5-.4 0-.6-.4-.9-.5-.3-1.2-2.3-1.1-2.9.1-.3.4-.4.6-.5.4-.1.8.2.2-1.2-.4-.9-.2-.5 0-1.6.1-.5.4-.3.2-.9l.4-.3s5.9-.9 6.8-1c1.7-.2.3-2.5.3-2.5-.5-3.1-.1-4.4-.1-4.8-.2-2.5-1.1-2.8-2.1-3.4-.2-.1-.5-1.1-.7-1.7 0-.2.3-.7.5-.7.3 0 .5-.2.9 0 .1.1.2-.5.3-.4 0-.3.2-.2.1-.3-.3-.5-.5-.1-.7-.6-.2-.4-.4-.9-.5-1.4 0-.2.3-.5.5-.5.3-.1.5-1 .1-2-.3-.7-.3-.7-.5-1.5-.3-1.3-.1-2.2.4-2.7.6-.6.5-1.2-.2-2.4-.1-.1-.1-.2-.2-.3-.3-.3-.7-.6-.6-1.4 0-.9.7-1.6 1-1.5.2 0 .3-.5.4-.6.2-1 .1-.7-.2-1.3-.3-.6-1-.6-1.6-.7-1.2-.1-1-.6-1.6-1.4-.5-.7-.7-1-.3-1.6.1-.2.9-.3 1.1-.3.5.1.3-.3.3-1.2 0-.2.1-.4.1-.6.5-1.5.4-1.5-.1-3.7-.4-1.6-.6-3.1 0-4.1.4-.7.1-3.1.6-3.2.3-.1.3-1 .4-1.5.1-.3.1-.5.3-.5.1 0 .2-.4.3-.6.1-.4-.6-1.1-.7-1.5-.3-.6-.6-1.2-.9-1.7-.4-.8-.8-1.4-.1-1.7.4-.2.3-1.1 0-1.6-.7-.9-.8-2.1-1.1-3.2 0-.1-.1-.3-.1-.4-.1-.7-.8-1.3-.5-2 .2-.3.6-.1.9-.3.5-.4 1.6-1 1-1.5-.2-.1 0-1-.1-1.2-.4-.6-.5-1-.9-1.4-.7-.6-.4-.3-.9-1.5l.3.2c-.2-.6.6-.7.6-.7l7.6-.9s20.1-2.1 39-4c0 0 14.5-1.4 75.4-7.6 0 0 25.7-2.2 55.1-6.2 0 0 25.6-3.1 78.5-7.3 0 0 36.1-3.7 62-6.9 0 0 9.5-1.5 16.2 1.8 0 0 42.3 17.8 57.3 23.5l71.1 30.5c1.8 1 .6 1.8.6 1.8-.1.2-.3.2-.5.3-.3.2-1 .5-1 .5.1.8.1 1.7.5 2.3.6 1.1.3.8.9 1.9.4.7-.1 2.3-.5 3.5-.3.8-3.4 1.9-3 2.4.6.9 1.3 1.7 1.9 2.7.2.3.3.9.2 1.3-.1.3-.5.6-.7.7-1 .4-1 .5-.7 1.6.1.4.4.8.5 1.2.4.9-3 2-3.3 3.2-.2.5-.2 1.1-.2 1.6 0 .4-.1.8-.1 1.3v.3c0 .3-.1.5-.3.7-.1.5-.3.9-.5 1.1v1.7c0 .5-.2.8-.6 1-.1.1-.2.1-.3.1-.6.1-.8.8-1.2 1.2.1.1.1.2.2.3.2.3.2.5 0 .7-.5.4-.6 1.1-1 1.6-.5.6-.3 1.4-.4 2.1 0 .2 0 .4-.1.7 0 .4-.2.7-.5.8-.4.2-.9.4-1.3.6-.3.2-.5.7-.5 1.1 0 .3.1.7.2 1 .2.4.4.7.6 1.1.5.8.6 1.6-.1 2.4-.5.5-.4.9-.1 1.4.2.3.4.6.5 1 .4 1.5.1 1.8-1.1 1.7-1.1-.1-1.4 0-1.8 1.4-.3 1.3-.8 2.1-2 2-.6 0-1.4.3-1.7 1.3-.3 1.1-.1 2.4.7 2.8 1.1.6.5 1.9.8 2.8 0 0-.2.3-.3.2-.2-.1-.3-.3-.4-.4-.2-.1-.4-.1-.7-.2 0 .3-.1.7.1 1 .4.7.4 1.1-.1 2-.6 1.1-1.2 2.5-.1 3.6.2.2.1 1-.1 1.3-.1.3-.6.4-.9.5-.3 0-.7-.1-1-.1-.3 0-.6.2-.9.2 0 .4 0 .8.2 1.1.2.5.5.9.9 1.2.6.6.6 1.5-.2 1.8-1.2.4-.8 1.1-.5 1.8.1.4.2.9.2 1.3 0 .2-.2.7-.4.8-1 .1-2 1.2-2.9.3-.1-.1-.4 0-.7-.1 0 .4 0 .9.1 1.1.4.5 1 .8 1.5 1.2.5.4.7 2.2.2 2.7-.2.3-.7.2-1.1.2-.5 0-1.1-.4-.8.9.2.9-.1 1.8-1.1 1.8-.8 0-.9.9-.9 1.5 0 1.3-.5 2.1-1.4 2.6-.5.3-1 .5-.1 1 .8.5 1.2 1.3 1 2.8-.2 1.2-.3 2.6.8 3.4.3.2.3 1.1.2 1.6 0 .2-.7.5-1 .4-.5-.1-.9-.5-1.3-.8-.1-.1-.3-.2-.4-.3-.1.2-.3.5-.2.7.1.5.4.9.5 1.3.1.4.2.9.1 1.3 0 .2-.6.3-.9.3-.5 0-.8-.1-.7.8.1.7-.2 1.5-.4 2.2-.2 1.2-.8 1.9-1.7 2.1-1.1.3-1.3.8-.8 2 0 .1.1.2.1.3.3.4.6.7.2 1.4-.5.8-.7.1-1.1 0-.3-.1-.9 0-.9.1-.2.6-.4 1.4-.3 1.9.1.6.6 1.1 1 1.5.6.8 1.3 1.4 1.8 2.2.4.8.2 1.2-.7 1.1-.3 0-.6-.1-.9-.1-.6-.2-1.1-.1-1.6.6-.1.2-.3.3-.5.5-1.3 1.1-1.3 1.1-1.5 3.1-.2 1.4-.5 2.7-1.8 3.5-.9.5-1.5 2.5-2.3 2.5-.5 0-.9.7-1.2 1.1-.2.3-.4.4-.6.3-.2 0-.4-.3-.6-.1-.4.3.2 1.6.2 1.9.1.6.2 1.1.4 1.7.3.8.4 1.4-.6 1.4-.7 0-1 .9-.7 1.3.5 1 .2 2 0 3 0 .1 0 .3-.1.4-.2.6.6 1.3-.2 1.8-.4.2-.9-.1-1.4 0-.9.2-1.8.5-2.6.8-.1 0-.3.7-.2.9.3.6.6 1.2 1 1.6.7.7 1.2 1.6 1.3 2.8.1.9 0 1.6-.6 2.3-.8 1.4-.4 3.1-.4 3.1z" style="fill:#00ffd0"/><path id="path6" d="M235.6 83.7c-4.9-4.3-11.4-6.6-18.3-6.6-12.5 0-22.2 5.8-26.2 15.2-4.1-11.1-14.1-15.2-22.4-15.2-9.2 0-16.8 4.1-20.8 11.1l-2.1-8.9h-12.5v85.6h15.3v-52.7c0-12.6 7-20.8 17.8-20.8 9.3 0 14.6 5.9 14.6 16.1v57.3h15.3v-52.7c0-12.6 7-20.8 17.8-20.8 9.3 0 14.6 5.9 14.6 16.1v57.3H244v-61.1c.1-8.1-2.8-15-8.4-19.9z" class="st1" style="fill:#333"/><path id="path8" d="M360.9 83.7c-4.9-4.3-11.4-6.6-18.3-6.6-12.5 0-22.2 5.8-26.2 15.2-4.1-11.2-14.1-15.2-22.4-15.2-9.2 0-16.8 4.1-20.8 11.1l-2.1-8.9h-12.5v85.6h15.3v-52.7c0-12.6 7-20.8 17.8-20.8 9.3 0 14.6 5.9 14.6 16.1v57.3h15.3v-52.7c0-12.6 7-20.8 17.8-20.8 9.3 0 14.6 5.9 14.6 16.1v57.3h15.3v-61.1c.1-8.1-2.8-15-8.4-19.9z" class="st1" style="fill:#333"/><path id="path10" d="M422.9 77.1c-12.4 0-23 4.6-30.7 13.2-7.3 8.2-11.3 19.4-11.3 31.7s4 23.6 11.3 31.7c7.7 8.6 18.4 13.2 30.7 13.2 24.4 0 42.1-18.9 42.1-44.9s-17.7-44.9-42.1-44.9zm.2 75c-13.2 0-26.6-10.3-26.6-30 0-17.3 11.2-29.9 26.6-29.9 15.2 0 26.2 12.6 26.2 29.9 0 19.6-13.2 30-26.2 30z" class="st1" style="fill:#333"/><path id="polygon12" d="M101.9 53.2v111.7h16.5V47z" class="st1" style="fill:#333"/><path id="path16" d="M421.2 322.8c2.4-1.9 4.8-3.8 7.3-5.6 22.5-17.3 45.7-35.2 45.7-61.3 0-20.5-14.8-34.8-35.9-34.8-18.6 0-38.6 12.4-38.6 39.8 0 1.3.1 2.8.2 3.7l15.2-5.8c0-15 11.2-22.9 22.2-22.9 10.7 0 21.6 6.8 21.6 22.1 0 19.7-20.1 35.2-48 56.5-4 3-8.1 6.2-12.4 9.6l-.2.2v14.6h79.2V323h-56.3z" class="st1" style="fill:#333"/><path id="path18" d="m43.9 271.8-1.4-.5c-12.5-5-21.3-9.4-21.3-20.6 0-11 8.8-16.8 17.4-16.8 7 0 15.8 3.7 19.3 11.8l14.7-5.7-.2-.5c-5.8-14.4-21-20.8-33.6-20.8-16.4 0-34.1 10.4-34.1 33.1 0 22.2 17 29.1 30.7 34.7l1.7.7c14 5.8 23.1 10.4 23.1 21.8 0 11.8-9.9 17.1-19.7 17.1-9.7 0-21.3-5.2-24.7-19.7l-.2-.6L0 311.6c4.7 18.2 20.2 29.8 39.8 29.8 9.9 0 19-3 25.8-8.5 7.7-6.2 11.8-15 11.8-25.5 0-22.3-17.8-29.4-33.5-35.6z" class="st1" style="fill:#333"/><path id="path20" d="M208.7 251.3c-24.3 0-41.9 18.8-41.9 44.7 0 25.9 17.6 44.7 41.9 44.7 24.3 0 41.9-18.8 41.9-44.7 0-25.9-17.6-44.7-41.9-44.7zm26.5 44.7c0 19.8-13.3 30.2-26.4 30.2-13.3 0-26.7-10.4-26.7-30.2 0-17.4 11.2-30 26.7-30 15.4 0 26.4 12.6 26.4 30z" class="st1" style="fill:#333"/><path id="path22" d="M314.8 302.5c0 15.7-11.5 24.2-22.4 24.2-8.3 0-17.1-4.9-17.1-18.7v-54.5h-15V308c0 24.2 15.7 32.8 29.1 32.8 10.8 0 20.3-5.2 25.3-13.6l2.9 11.6h12.3v-85.3h-15v49z" class="st1" style="fill:#333"/><path id="path24" d="m369.1 229.1-15 5.8v18.5h-14.2v13.7h14.2v46.7c0 23.3 13.3 26.8 21.2 26.8 3.5 0 7.2-.6 11.1-1.7l.5-.1V324l-1 .6c-2.3 1.5-5 2.4-7.3 2.4-6 0-9.5-4.4-9.5-11.9v-47.9h17.7v-13.7h-17.7z" class="st1" style="fill:#333"/><path id="polygon26" d="M477.6 310.2h54.1v28.5H547v-28.5h19.9v-15.6H547V260l-15.3 6v28.6h-34.5l42-71.7h-17l-44.6 75.7z" class="st1" style="fill:#333"/><path id="path28" d="M148.8 312.9c-4.4 8.2-12.6 13.2-21.8 13.2-12.8 0-25.7-9.3-25.7-30.2 0-14.4 7.7-29.8 24.7-29.8 8.5 0 16 4.5 20 11.9l14.3-5.5-.3-.5c-6-12.7-19-20.6-34.1-20.6-10.6 0-20.4 3.9-27.6 11.1-8.1 8.1-12.5 19.7-12.5 33.6 0 30.7 21 44.7 40.4 44.7 15.1 0 28.5-8.2 35.9-22.1l.3-.5-.1-.1z" class="st1" style="fill:#333"/></svg>