<?xml version="1.0" encoding="UTF-8" standalone="no"?>
<!-- Generator: Adobe Illustrator 23.1.1, SVG Export Plug-In . SVG Version: 6.00 Build 0)  -->
<svg xmlns:dc="http://purl.org/dc/elements/1.1/" xmlns:cc="http://creativecommons.org/ns#" xmlns:rdf="http://www.w3.org/1999/02/22-rdf-syntax-ns#" xmlns:svg="http://www.w3.org/2000/svg" xmlns="http://www.w3.org/2000/svg" xmlns:sodipodi="http://sodipodi.sourceforge.net/DTD/sodipodi-0.dtd" xmlns:inkscape="http://www.inkscape.org/namespaces/inkscape" version="1.1" x="0px" y="0px" viewBox="0 0 566.9 341.4" style="enable-background:new 0 0 566.9 341.4;" xml:space="preserve" id="svg38" sodipodi:docname="ImmoScout24 Logo 2020.svg" inkscape:version="0.92.1 r15371"><metadata id="metadata44"><rdf:RDF><cc:Work rdf:about=""><dc:format>image/svg+xml</dc:format><dc:type rdf:resource="http://purl.org/dc/dcmitype/StillImage"/><dc:title/></cc:Work></rdf:RDF></metadata><defs id="defs42"/><sodipodi:namedview pagecolor="#ffffff" bordercolor="#666666" borderopacity="1" objecttolerance="10" gridtolerance="10" guidetolerance="10" inkscape:pageopacity="0" inkscape:pageshadow="2" inkscape:window-width="640" inkscape:window-height="480" id="namedview40" showgrid="false" inkscape:zoom="0.69127125" inkscape:cx="283.45001" inkscape:cy="170.7" inkscape:window-x="0" inkscape:window-y="0" inkscape:window-maximized="0" inkscape:current-layer="svg38"/><style type="text/css" id="style2">
	.st0{fill:#00FFD0;}
	.st1{fill:#333333;}
</style><path class="st0" d="m 475.3,205.4 c 0.4,3.2 -2.1,5.8 -2.1,5.8 l -2.8,-0.9 c 0,0 -20.3,-7.2 -51.5,-16.3 0,0 -27.6,-8.2 -38.8,-11.9 0,0 -2.4,-0.9 -7.1,-0.5 -4.7,0.5 -21,1.7 -31.8,2.8 l -16.4,1.9 c -29.6,3.4 -43.2,4 -43.2,4 -47,4.5 -58.3,5.4 -58.3,5.4 -24.8,1.8 -40.6,4.8 -77.8,7.2 l -69.9,7 c 0,0 -5,0.5 -5,0.5 l -1.9,0.2 c -1.5,-1 -1.7,-2.2 -1.7,-2.2 l 0.1,-2.6 c 3,-1.1 -0.4,-4.2 -0.4,-4.2 -1.5,-0.6 -1,-1.8 -1,-1.8 0,-0.2 0.1,-0.3 0.2,-0.5 0.2,-0.3 0.5,-0.7 0.4,-0.8 -0.3,-0.8 1.2,-3.8 1.2,-3.8 -0.8,-1 -0.5,-0.8 -1.3,-1.8 -0.5,-0.6 -0.7,-2.5 -0.9,-3.9 -0.1,-0.9 1.6,-2.8 1.1,-3.3 -0.7,-0.8 -1.4,-1.6 -2.1,-2.4 -0.2,-0.3 -0.5,-0.9 -0.6,-1.4 -0.1,-0.3 0.1,-0.8 0.2,-1 0.5,-0.7 0.5,-0.7 -0.1,-1.9 -0.2,-0.4 -0.5,-0.8 -0.8,-1.2 -0.5,-0.9 1.2,-2.9 1.1,-4.2 -0.1,-0.6 -0.2,-1.2 -0.4,-1.8 -0.1,-0.4 -0.3,-0.9 -0.4,-1.5 0,-0.1 -0.1,-0.2 -0.1,-0.4 -0.1,-0.3 -0.1,-0.6 -0.1,-0.9 -0.1,-0.5 -0.1,-1 0,-1.3 -0.2,-0.6 -0.4,-1.3 -0.6,-1.9 -0.1,-0.5 -0.1,-0.9 0.1,-1.2 0.1,-0.1 0.1,-0.2 0.2,-0.2 0.4,-0.2 0.2,-1.1 0.4,-1.6 -0.1,-0.1 -0.1,-0.2 -0.2,-0.3 -0.3,-0.3 -0.3,-0.5 -0.3,-0.8 0.2,-0.5 0,-1.3 0.1,-1.9 0.1,-0.7 -0.1,-1.4 -0.4,-2.1 -0.1,-0.3 -0.2,-0.7 -0.3,-1 -0.1,-0.5 -0.1,-0.8 0,-1 0.2,-0.3 0.4,-0.6 0.6,-1 0.1,-0.2 0.1,-0.8 -0.1,-1.3 -0.1,-0.3 -0.3,-0.7 -0.5,-1 -0.2,-0.4 -0.5,-0.7 -0.8,-1 -0.6,-0.7 -1,-1.6 -0.8,-2.6 0.1,-0.7 0,-1.1 -0.4,-1.5 -0.2,-0.3 -0.5,-0.6 -0.7,-1 -0.8,-1.5 -0.7,-1.9 0.1,-2.1 0.8,-0.1 0.9,-0.3 0.7,-1.9 -0.2,-1.5 -0.2,-2.4 0.6,-2.6 0.4,-0.1 0.8,-0.6 0.6,-1.8 -0.2,-1.2 0.4,-3.4 -0.3,-3.7 -0.9,-0.4 -1,-1.9 -1.5,-2.8 0,0 0.1,-0.4 0.1,-0.3 0.1,0.1 0.3,0.3 0.4,0.3 0.2,0.1 0.3,0 0.5,0 -0.1,-0.4 -0.2,-0.8 -0.4,-1 -0.5,-0.6 -0.6,-1.1 -0.6,-2.2 0,-1.3 -0.1,-3 -1.2,-3.9 -0.2,-0.1 -0.4,-1 -0.4,-1.5 0,-0.3 0.2,-0.6 0.4,-0.7 0.2,-0.1 0.5,0 0.7,-0.1 0.2,-0.1 0.4,-0.3 0.5,-0.5 -0.2,-0.4 -0.3,-0.9 -0.5,-1.2 -0.3,-0.5 -0.7,-0.8 -1,-1.2 -0.6,-0.6 -0.9,-1.5 -0.5,-2 0.7,-0.7 0.1,-1.3 -0.3,-2.1 -0.2,-0.4 -0.5,-0.9 -0.6,-1.3 -0.1,-0.3 -0.1,-0.8 0,-0.9 0.1,-0.3 0.7,-1.2 1.9,-1.2 0.5,0 0.6,-0.7 0.6,-0.9 -0.2,-0.4 -1.4,-0.1 -1.6,-0.2 -0.5,-0.4 0,-0.6 -0.4,-0.9 -0.5,-0.3 -1.2,-2.3 -1.1,-2.9 0.1,-0.3 0.4,-0.4 0.6,-0.5 0.4,-0.1 0.8,0.2 0.2,-1.2 -0.4,-0.9 -0.2,-0.5 0,-1.6 0.1,-0.5 0.4,-0.3 0.2,-0.9 l 0.4,-0.3 c 0,0 5.9,-0.9 6.8,-1 1.7,-0.2 0.3,-2.5 0.3,-2.5 -0.5,-3.1 -0.1,-4.4 -0.1,-4.8 -0.2,-2.5 -1.1,-2.8 -2.1,-3.4 -0.2,-0.1 -0.5,-1.1 -0.7,-1.7 0,-0.2 0.3,-0.7 0.5,-0.7 0.3,0 0.5,-0.2 0.9,0 0.1,0.1 0.2,-0.5 0.3,-0.4 0,-0.3 0.2,-0.2 0.1,-0.3 -0.3,-0.5 -0.5,-0.1 -0.7,-0.6 -0.2,-0.4 -0.4,-0.9 -0.5,-1.4 0,-0.2 0.3,-0.5 0.5,-0.5 0.3,-0.1 0.5,-1 0.1,-2 -0.3,-0.7 -0.3,-0.7 -0.5,-1.5 -0.3,-1.3 -0.1,-2.2 0.4,-2.7 0.6,-0.6 0.5,-1.2 -0.2,-2.4 -0.1,-0.1 -0.1,-0.2 -0.2,-0.3 -0.3,-0.3 -0.7,-0.6 -0.6,-1.4 0,-0.9 0.7,-1.6 1,-1.5 0.2,0 0.3,-0.5 0.4,-0.6 0.2,-1 0.1,-0.7 -0.2,-1.3 -0.3,-0.6 -1,-0.6 -1.6,-0.7 -1.2,-0.1 -1,-0.6 -1.6,-1.4 -0.5,-0.7 -0.7,-1 -0.3,-1.6 0.1,-0.2 0.9,-0.3 1.1,-0.3 0.5,0.1 0.3,-0.3 0.3,-1.2 0,-0.2 0.1,-0.4 0.1,-0.6 0.5,-1.5 0.4,-1.5 -0.1,-3.7 -0.4,-1.6 -0.6,-3.1 0,-4.1 0.4,-0.7 0.1,-3.1 0.6,-3.2 0.3,-0.1 0.3,-1 0.4,-1.5 0.1,-0.3 0.1,-0.5 0.3,-0.5 0.1,0 0.2,-0.4 0.3,-0.6 0.1,-0.4 -0.6,-1.1 -0.7,-1.5 -0.3,-0.6 -0.6,-1.2 -0.9,-1.7 -0.4,-0.8 -0.8,-1.4 -0.1,-1.7 0.4,-0.2 0.3,-1.1 0,-1.6 -0.7,-0.9 -0.8,-2.1 -1.1,-3.2 0,-0.1 -0.1,-0.3 -0.1,-0.4 -0.1,-0.7 -0.8,-1.3 -0.5,-2 0.2,-0.3 0.6,-0.1 0.9,-0.3 0.5,-0.4 1.6,-1 1,-1.5 -0.2,-0.1 0,-1 -0.1,-1.2 C 60.5,36.1 60.4,35.7 60,35.3 59.3,34.7 59.6,35 59.1,33.8 L 59.4,34 C 59.2,33.4 60,33.3 60,33.3 l 7.6,-0.9 c 0,0 20.1,-2.1 39,-4 0,0 14.5,-1.4 75.4,-7.6 0,0 25.7,-2.2 55.1,-6.2 0,0 25.6,-3.1 78.5,-7.3 0,0 36.1,-3.7 62,-6.9 0,0 9.5,-1.5 16.2,1.8 0,0 42.3,17.8 57.3,23.5 l 71.1,30.5 c 1.8,1 0.6,1.8 0.6,1.8 -0.1,0.2 -0.3,0.2 -0.5,0.3 -0.3,0.2 -1,0.5 -1,0.5 0.1,0.8 0.1,1.7 0.5,2.3 0.6,1.1 0.3,0.8 0.9,1.9 0.4,0.7 -0.1,2.3 -0.5,3.5 -0.3,0.8 -3.4,1.9 -3,2.4 0.6,0.9 1.3,1.7 1.9,2.7 0.2,0.3 0.3,0.9 0.2,1.3 -0.1,0.3 -0.5,0.6 -0.7,0.7 -1,0.4 -1,0.5 -0.7,1.6 0.1,0.4 0.4,0.8 0.5,1.2 0.4,0.9 -3,2 -3.3,3.2 -0.2,0.5 -0.2,1.1 -0.2,1.6 0,0.4 -0.1,0.8 -0.1,1.3 0,0.1 0,0.2 0,0.3 0,0.3 -0.1,0.5 -0.3,0.7 -0.1,0.5 -0.3,0.9 -0.5,1.1 0,0.6 0,1.2 0,1.7 0,0.5 -0.2,0.8 -0.6,1 -0.1,0.1 -0.2,0.1 -0.3,0.1 -0.6,0.1 -0.8,0.8 -1.2,1.2 0.1,0.1 0.1,0.2 0.2,0.3 0.2,0.3 0.2,0.5 0,0.7 -0.5,0.4 -0.6,1.1 -1,1.6 -0.5,0.6 -0.3,1.4 -0.4,2.1 0,0.2 0,0.4 -0.1,0.7 0,0.4 -0.2,0.7 -0.5,0.8 -0.4,0.2 -0.9,0.4 -1.3,0.6 -0.3,0.2 -0.5,0.7 -0.5,1.1 0,0.3 0.1,0.7 0.2,1 0.2,0.4 0.4,0.7 0.6,1.1 0.5,0.8 0.6,1.6 -0.1,2.4 -0.5,0.5 -0.4,0.9 -0.1,1.4 0.2,0.3 0.4,0.6 0.5,1 0.4,1.5 0.1,1.8 -1.1,1.7 -1.1,-0.1 -1.4,0 -1.8,1.4 -0.3,1.3 -0.8,2.1 -2,2 -0.6,0 -1.4,0.3 -1.7,1.3 -0.3,1.1 -0.1,2.4 0.7,2.8 1.1,0.6 0.5,1.9 0.8,2.8 0,0 -0.2,0.3 -0.3,0.2 -0.2,-0.1 -0.3,-0.3 -0.4,-0.4 -0.2,-0.1 -0.4,-0.1 -0.7,-0.2 0,0.3 -0.1,0.7 0.1,1 0.4,0.7 0.4,1.1 -0.1,2 -0.6,1.1 -1.2,2.5 -0.1,3.6 0.2,0.2 0.1,1 -0.1,1.3 -0.1,0.3 -0.6,0.4 -0.9,0.5 -0.3,0 -0.7,-0.1 -1,-0.1 -0.3,0 -0.6,0.2 -0.9,0.2 0,0.4 0,0.8 0.2,1.1 0.2,0.5 0.5,0.9 0.9,1.2 0.6,0.6 0.6,1.5 -0.2,1.8 -1.2,0.4 -0.8,1.1 -0.5,1.8 0.1,0.4 0.2,0.9 0.2,1.3 0,0.2 -0.2,0.7 -0.4,0.8 -1,0.1 -2,1.2 -2.9,0.3 -0.1,-0.1 -0.4,0 -0.7,-0.1 0,0.4 0,0.9 0.1,1.1 0.4,0.5 1,0.8 1.5,1.2 0.5,0.4 0.7,2.2 0.2,2.7 -0.2,0.3 -0.7,0.2 -1.1,0.2 -0.5,0 -1.1,-0.4 -0.8,0.9 0.2,0.9 -0.1,1.8 -1.1,1.8 -0.8,0 -0.9,0.9 -0.9,1.5 0,1.3 -0.5,2.1 -1.4,2.6 -0.5,0.3 -1,0.5 -0.1,1 0.8,0.5 1.2,1.3 1,2.8 -0.2,1.2 -0.3,2.6 0.8,3.4 0.3,0.2 0.3,1.1 0.2,1.6 0,0.2 -0.7,0.5 -1,0.4 -0.5,-0.1 -0.9,-0.5 -1.3,-0.8 -0.1,-0.1 -0.3,-0.2 -0.4,-0.3 -0.1,0.2 -0.3,0.5 -0.2,0.7 0.1,0.5 0.4,0.9 0.5,1.3 0.1,0.4 0.2,0.9 0.1,1.3 0,0.2 -0.6,0.3 -0.9,0.3 -0.5,0 -0.8,-0.1 -0.7,0.8 0.1,0.7 -0.2,1.5 -0.4,2.2 -0.2,1.2 -0.8,1.9 -1.7,2.1 -1.1,0.3 -1.3,0.8 -0.8,2 0,0.1 0.1,0.2 0.1,0.3 0.3,0.4 0.6,0.7 0.2,1.4 -0.5,0.8 -0.7,0.1 -1.1,0 -0.3,-0.1 -0.9,0 -0.9,0.1 -0.2,0.6 -0.4,1.4 -0.3,1.9 0.1,0.6 0.6,1.1 1,1.5 0.6,0.8 1.3,1.4 1.8,2.2 0.4,0.8 0.2,1.2 -0.7,1.1 -0.3,0 -0.6,-0.1 -0.9,-0.1 -0.6,-0.2 -1.1,-0.1 -1.6,0.6 -0.1,0.2 -0.3,0.3 -0.5,0.5 -1.3,1.1 -1.3,1.1 -1.5,3.1 -0.2,1.4 -0.5,2.7 -1.8,3.5 -0.9,0.5 -1.5,2.5 -2.3,2.5 -0.5,0 -0.9,0.7 -1.2,1.1 -0.2,0.3 -0.4,0.4 -0.6,0.3 -0.2,0 -0.4,-0.3 -0.6,-0.1 -0.4,0.3 0.2,1.6 0.2,1.9 0.1,0.6 0.2,1.1 0.4,1.7 0.3,0.8 0.4,1.4 -0.6,1.4 -0.7,0 -1,0.9 -0.7,1.3 0.5,1 0.2,2 0,3 0,0.1 0,0.3 -0.1,0.4 -0.2,0.6 0.6,1.3 -0.2,1.8 -0.4,0.2 -0.9,-0.1 -1.4,0 -0.9,0.2 -1.8,0.5 -2.6,0.8 -0.1,0 -0.3,0.7 -0.2,0.9 0.3,0.6 0.6,1.2 1,1.6 0.7,0.7 1.2,1.6 1.3,2.8 0.1,0.9 0,1.6 -0.6,2.3 -0.8,1.4 -0.4,3.1 -0.4,3.1 z" id="path4" inkscape:connector-curvature="0" style="fill:#00ffd0"/><path class="st1" d="m 235.6,83.7 c -4.9,-4.3 -11.4,-6.6 -18.3,-6.6 -12.5,0 -22.2,5.8 -26.2,15.2 C 187,81.2 177,77.1 168.7,77.1 c -9.2,0 -16.8,4.1 -20.8,11.1 l -2.1,-8.9 h -12.5 v 85.6 h 15.3 v -52.7 c 0,-12.6 7,-20.8 17.8,-20.8 9.3,0 14.6,5.9 14.6,16.1 v 57.3 h 15.3 v -52.7 c 0,-12.6 7,-20.8 17.8,-20.8 9.3,0 14.6,5.9 14.6,16.1 v 57.3 H 244 v -61.1 c 0.1,-8.1 -2.8,-15 -8.4,-19.9 z" id="path6" inkscape:connector-curvature="0" style="fill:#333333"/><path class="st1" d="m 360.9,83.7 c -4.9,-4.3 -11.4,-6.6 -18.3,-6.6 -12.5,0 -22.2,5.8 -26.2,15.2 -4.1,-11.2 -14.1,-15.2 -22.4,-15.2 -9.2,0 -16.8,4.1 -20.8,11.1 l -2.1,-8.9 h -12.5 v 85.6 h 15.3 v -52.7 c 0,-12.6 7,-20.8 17.8,-20.8 9.3,0 14.6,5.9 14.6,16.1 v 57.3 h 15.3 v -52.7 c 0,-12.6 7,-20.8 17.8,-20.8 9.3,0 14.6,5.9 14.6,16.1 v 57.3 h 15.3 v -61.1 c 0.1,-8.1 -2.8,-15 -8.4,-19.9 z" id="path8" inkscape:connector-curvature="0" style="fill:#333333"/><path class="st1" d="m 422.9,77.1 c -12.4,0 -23,4.6 -30.7,13.2 -7.3,8.2 -11.3,19.4 -11.3,31.7 0,12.3 4,23.6 11.3,31.7 7.7,8.6 18.4,13.2 30.7,13.2 24.4,0 42.1,-18.9 42.1,-44.9 0,-26 -17.7,-44.9 -42.1,-44.9 z m 0.2,75 c -13.2,0 -26.6,-10.3 -26.6,-30 0,-17.3 11.2,-29.9 26.6,-29.9 15.2,0 26.2,12.6 26.2,29.9 0,19.6 -13.2,30 -26.2,30 z" id="path10" inkscape:connector-curvature="0" style="fill:#333333"/><polygon class="st1" points="101.9,53.2 101.9,164.9 118.4,164.9 118.4,47 " id="polygon12" style="fill:#333333"/><path class="st1" d="m 421.2,322.8 c 2.4,-1.9 4.8,-3.8 7.3,-5.6 22.5,-17.3 45.7,-35.2 45.7,-61.3 0,-20.5 -14.8,-34.8 -35.9,-34.8 -18.6,0 -38.6,12.4 -38.6,39.8 0,1.3 0.1,2.8 0.2,3.7 l 15.2,-5.8 c 0,-15 11.2,-22.9 22.2,-22.9 10.7,0 21.6,6.8 21.6,22.1 0,19.7 -20.1,35.2 -48,56.5 -4,3 -8.1,6.2 -12.4,9.6 l -0.2,0.2 v 14.6 h 79.2 V 323 h -56.3 z" id="path16" inkscape:connector-curvature="0" style="fill:#333333"/><path class="st1" d="m 43.9,271.8 -1.4,-0.5 c -12.5,-5 -21.3,-9.4 -21.3,-20.6 0,-11 8.8,-16.8 17.4,-16.8 7,0 15.8,3.7 19.3,11.8 l 14.7,-5.7 -0.2,-0.5 c -5.8,-14.4 -21,-20.8 -33.6,-20.8 -16.4,0 -34.1,10.4 -34.1,33.1 0,22.2 17,29.1 30.7,34.7 l 1.7,0.7 c 14,5.8 23.1,10.4 23.1,21.8 0,11.8 -9.9,17.1 -19.7,17.1 -9.7,0 -21.3,-5.2 -24.7,-19.7 L 15.6,305.8 0,311.6 c 4.7,18.2 20.2,29.8 39.8,29.8 9.9,0 19,-3 25.8,-8.5 7.7,-6.2 11.8,-15 11.8,-25.5 0,-22.3 -17.8,-29.4 -33.5,-35.6 z" id="path18" inkscape:connector-curvature="0" style="fill:#333333"/><path class="st1" d="m 208.7,251.3 c -24.3,0 -41.9,18.8 -41.9,44.7 0,25.9 17.6,44.7 41.9,44.7 24.3,0 41.9,-18.8 41.9,-44.7 0,-25.9 -17.6,-44.7 -41.9,-44.7 z m 26.5,44.7 c 0,19.8 -13.3,30.2 -26.4,30.2 -13.3,0 -26.7,-10.4 -26.7,-30.2 0,-17.4 11.2,-30 26.7,-30 15.4,0 26.4,12.6 26.4,30 z" id="path20" inkscape:connector-curvature="0" style="fill:#333333"/><path class="st1" d="m 314.8,302.5 c 0,15.7 -11.5,24.2 -22.4,24.2 -8.3,0 -17.1,-4.9 -17.1,-18.7 v -54.5 h -15 V 308 c 0,24.2 15.7,32.8 29.1,32.8 10.8,0 20.3,-5.2 25.3,-13.6 l 2.9,11.6 h 12.3 v -85.3 h -15 v 49 z" id="path22" inkscape:connector-curvature="0" style="fill:#333333"/><path class="st1" d="m 369.1,229.1 -15,5.8 v 18.5 h -14.2 v 13.7 h 14.2 v 46.7 c 0,23.3 13.3,26.8 21.2,26.8 3.5,0 7.2,-0.6 11.1,-1.7 l 0.5,-0.1 V 324 l -1,0.6 c -2.3,1.5 -5,2.4 -7.3,2.4 -6,0 -9.5,-4.4 -9.5,-11.9 v -47.9 h 17.7 v -13.7 h -17.7 z" id="path24" inkscape:connector-curvature="0" style="fill:#333333"/><polygon class="st1" points="477.6,310.2 531.7,310.2 531.7,338.7 547,338.7 547,310.2 566.9,310.2 566.9,294.6 547,294.6 547,260 531.7,266 531.7,294.6 497.2,294.6 539.2,222.9 522.2,222.9 477.6,298.6 " id="polygon26" style="fill:#333333"/><path class="st1" d="m 148.8,312.9 c -4.4,8.2 -12.6,13.2 -21.8,13.2 -12.8,0 -25.7,-9.3 -25.7,-30.2 0,-14.4 7.7,-29.8 24.7,-29.8 8.5,0 16,4.5 20,11.9 l 14.3,-5.5 -0.3,-0.5 c -6,-12.7 -19,-20.6 -34.1,-20.6 -10.6,0 -20.4,3.9 -27.6,11.1 -8.1,8.1 -12.5,19.7 -12.5,33.6 0,30.7 21,44.7 40.4,44.7 15.1,0 28.5,-8.2 35.9,-22.1 l 0.3,-0.5 -0.1,-0.1 z" id="path28" inkscape:connector-curvature="0" style="fill:#333333"/></svg>