<svg xmlns="http://www.w3.org/2000/svg" viewBox="0 0 340 340"><path fill="#FF6200" d="M272.1 340.1H68c-8.9 0 -17.8 -1.7 -26 -5.2a67.331 67.331 0 0 1 -36.8 -36.8C1.8 289.9 0 281 0 272.1V68c0 -8.9 1.8 -17.8 5.2 -26A67.331 67.331 0 0 1 42 5.2C50.2 1.8 59.1 0 68 0h204.1c8.9 0 17.8 1.8 26 5.2A67.331 67.331 0 0 1 334.9 42c3.4 8.2 5.2 17.1 5.2 26v204.1c0 8.9 -1.8 17.8 -5.2 26a67.331 67.331 0 0 1 -36.8 36.8c-8.2 3.5 -17.1 5.2 -26 5.2z" id="path_0"/><path fill="#FFFFFF" d="M127.5 337.5q-0.4 0.4 -0.9 0.8 -0.4 0.4 -0.9 0.8 -0.4 0.4 -0.9 0.7 -0.5 0.4 -1 0.7h-5.4q-0.9 -2.5 -1.8 -5.1 -1 -2.5 -2.1 -4.9 -1.1 -2.5 -2.4 -4.9 -1.2 -2.4 -2.6 -4.7c-0.9 -1.6 20.8 -8.4 26.3 -8.4 1.4 2.9 2.8 7 5.6 9.7 -2.8 2.8 -11.1 11.2 -13.9 15.3zm11.1 -176c-1.4 2.7 -2.8 1.4 -5.5 4.1 -1.4 1.4 -16.6 12.5 -18 13.9 -2.8 1.3 -4.2 2.8 -8.3 6.9 -1.4 -4.1 -1.4 -8.3 -2.8 -12.5 0 -1.3 0 -11.1 1.4 -15.2 0 -2.7 12.5 -6.9 19.4 -8.3 2.7 0 13.8 -2.7 15.2 0 1.4 2.8 -1.4 2.8 -1.4 11.1zm-40.2 76.3c5.6 -2.8 12.5 -7 18 -9.7 -1.3 6.9 -2.7 9.7 -2.7 20.8 0 2.8 2.7 11.1 4.1 20.8 -2.7 5.5 -4.1 9.7 -8.3 13.9q-0.3 0.6 -0.8 1.2 -0.4 0.6 -1 1.1 -0.5 0.6 -1.1 1 -0.6 0.5 -1.3 0.8c0 -2.8 -1.3 -5.5 -2.7 -8.3 -1.4 -4.2 -1.4 -8.3 -2.8 -12.5 0 -4.2 -1.4 -19.4 -1.4 -22.2zm79 -192.7c-5.5 5.6 -22.1 15.3 -31.8 20.8q-1.1 1.8 -2.3 3.6 -1.2 1.8 -2.4 3.5t-2.5 3.4q-1.2 1.7 -2.6 3.3L122 74.2c2.8 -5.6 5.5 -8.3 8.3 -13.8 5.5 -8.4 13.8 -15.3 19.4 -20.9C165 34 165 31.2 183 28.5c6.9 8.3 26.3 20.8 26.3 20.8 0 2.7 1.4 -1.4 6.9 -18 4.2 2.7 7 2.7 11.1 5.5q0.7 0.1 1.4 0.3 0.7 0.1 1.4 0.3l1.4 0.4 1.4 0.4c1.4 0 9.7 -4.2 11.1 -5.5 2.7 -1.4 15.2 -4.2 15.2 -4.2 1.4 1.4 -4.2 11.1 -4.2 12.5v11.2q0.8 0 1.5 -0.1l1.4 -0.2q0.7 -0.2 1.4 -0.5 0.7 -0.2 1.3 -0.6c6.9 -2.8 8.4 -15.3 11.1 -25 4.2 1.4 6.9 1.4 11.1 1.4 0 5.5 -2.8 13.8 1.3 13.8 4.2 0 9.8 -5.5 18.1 -12.4 11.9 4.7 23.9 11.6 34.9 18.7q1 3.1 1.8 6.2c-3.1 2.7 -6.3 5.5 -10.4 5.5 -4.1 0 -6.9 -1.3 -11 -2.7 -2.8 -2.8 -15.3 -6.9 -22.2 -6.9 -8.3 0 -13.9 11.1 -23.6 16.6 -4.2 1.4 -12.5 2.7 -20.8 5.6 -5.6 2.7 -8.3 4.1 -8.3 1.3 -1.4 -5.5 -1.4 -11.1 -1.4 -16.6 -4.2 -1.4 -9.7 -1.4 -13.9 -4.2q-0.6 2.4 -1.4 4.8 -0.9 2.3 -1.9 4.6 -1 2.3 -2.3 4.4 -1.2 2.2 -2.7 4.2c-5.5 -2.7 -11 -4.1 -16.6 -8.3 -7 -4.2 -23.6 -13.9 -25 -16.6zM165 298.8c1.3 6.9 5.5 19.4 5.5 19.4 -4.2 -2.8 -8.3 -4.2 -12.5 -7 -2.7 -1.4 -5.5 -2.8 -5.5 -4.1q-0.6 -2.1 -1 -4.1 -0.5 -2.1 -0.8 -4.2 -0.4 -2.1 -0.6 -4.2 -0.3 -2 -0.4 -4.2c0 -5.5 2.8 -11 5.6 -11 2.7 1.3 6.9 2.7 8.3 5.5 2.7 4.2 0 9.7 1.4 13.9zm-55.5 0c-1.4 -2.8 -2.8 -4.2 -2.8 -7 1.4 -1.4 4.1 -2.7 6.9 -4.1 1.4 -2.8 8.4 -7 9.7 -8.3 4.2 4.1 5.6 5.5 8.4 12.4 -1.4 1.4 -9.7 8.3 -16.6 16.6 0 2.8 -4.3 5.6 -4.3 5.6 0 -5.6 -1.3 -12.5 -1.3 -15.2zm24.9 -101.2q-3.1 1.5 -6.1 3.3 -3 1.8 -5.8 3.9 -2.8 2.1 -5.3 4.5 -2.6 2.3 -4.9 4.9c-4.2 5.5 -12.5 13.9 -15.3 18l-1.4 -16.6c-1.4 -4.2 -1.4 -4.2 -1.4 -12.5 7 -4.1 9.8 -6.9 16.6 -11.1 2.8 -2.7 12.5 -5.5 26.4 -9.7 0 5.6 -1.4 9.7 -2.8 15.3zM133 83.9c-1.3 9.7 -2.7 12.5 -2.7 23.5 0 1.4 2.8 8.4 4.1 11.1 1.4 2.8 2.8 5.6 2.8 8.4 0 1.3 -1.4 2.7 -2.8 4.1 -4.1 2.8 -5.5 1.4 -6.9 4.2 -6.9 5.4 -9.7 8.3 -15.2 12.4 -2.8 2.8 -2.8 2.8 -5.6 7 0 0 -1.4 -15.2 -2.8 -23.6 5.6 -2.8 8.4 -5.5 13.9 -9.7 -1.4 -8.3 -2.8 -13.9 -2.8 -20.8 0 -4.1 0 -8.3 2.8 -12.4 2.8 -5.6 9.7 -5.6 15.2 -4.2zm124.8 228.7c1.4 7 2.8 13.9 1.4 18 -1.2 3.8 -3.6 6.5 -6.1 10h-10.5v-0.3c0 -4.1 0 -6.9 -1.4 -9.7 0 -2.7 -1.4 -6.9 0 -11 0 -4.2 11.1 -5.6 16.6 -7zM205.1 260c13.9 -9.8 27.8 -11.1 40.3 -11.2 13.9 0 27.7 1.4 38.8 8.3 0 5.6 0 12.5 -2.7 18 0 1.5 -2.8 7 -5.6 9.8 -4.2 -5.6 -12.5 -11.1 -12.5 -11.1 1.4 5.5 0 6.9 -1.4 13.9 0 1.3 -9.7 1.3 -9.7 1.3 -8.3 -4.1 -9.7 -9.7 -9.7 -9.7 0 1.4 -1.4 11.1 -6.9 11.1s-9.7 0 -9.7 -4.1c-1.4 -4.2 -1.4 -7 -1.4 -11.2v-5.5c-4.2 1.4 -6.9 5.5 -9.7 8.4 -1.4 0 -2.8 -2.9 -4.2 -2.9q-0.9 -1.8 -1.7 -3.6 -0.8 -1.9 -1.5 -3.8t-1.3 -3.8q-0.5 -2 -1 -3.9zm23.6 62.3c1.4 4.2 0 8.3 1.4 12.5q0 0.7 0.1 1.4 0.1 0.8 0.3 1.5 0.1 0.7 0.3 1.4 0.2 0.8 0.4 1.5h-12.8c-3.8 -4.4 -7.8 -9.7 -7.8 -12.7 0 -4.2 -5.6 -11.1 1.4 -11.1 0 -2.8 6.9 1.3 9.7 1.3q1.1 0 2.1 0.3 1.1 0.3 2 0.8 0.9 0.6 1.7 1.3 0.7 0.8 1.2 1.8zm73.5 -106.7c10.6 0 23 2.4 38.3 8.7v9.3c-15.2 -6.2 -29.2 -7.5 -36.9 -9.7V235c5.5 1.3 8.3 4.1 13.8 5.5 2.1 1 14.2 7.5 23.1 12.4v9.7c-16.8 -10.3 -28.5 -14.3 -42.5 -20.7 -2.8 2.8 -4.2 7 -8.3 9.7 -1.4 1.4 -11.1 -6.9 -16.7 -9.7 -4.1 -2.8 -12.4 -4.1 -18 -5.6 -1.3 0 -1.3 -2.7 -1.3 -4.1 -1.4 -4.2 -2.8 -8.3 -1.4 -9.7 6.9 -2.8 9.7 -8.3 9.7 -12.5 0 -4.1 4.1 1.4 8.3 0 2.8 -2.8 4.2 -5.5 2.8 -8.3 0 -2.8 -1.4 -5.5 -4.2 -5.5q-5.1 -2.1 -10.5 -3.2 -5.4 -1 -11 -1 -5.5 0 -10.9 1 -5.4 1.1 -10.6 3.2c-4.2 1.3 -4.2 6.9 -2.8 11 1.4 5.6 7 2.8 11.1 0 1.4 0 -1.4 4.2 1.4 8.4 2.8 5.5 8.3 6.9 8.3 8.3 0 4.1 0 4.1 -1.4 6.9 0 2.8 0 5.5 -2.7 7 -8.3 1.4 -15.3 4.1 -23.6 6.9 -4.1 1.4 -8.3 5.6 -12.5 5.6 -2.7 0 -5.5 -5.6 -6.9 -7 -2.8 0 -2.8 -1.4 -8.3 0q-6.1 2.5 -12.1 5.3 -6 2.7 -11.9 5.7 -5.9 2.9 -11.7 6.1 -5.8 3.1 -11.4 6.5c-2.8 -2.8 -1.4 -6.9 -2.8 -9.7q5.8 -3.7 11.7 -7 5.9 -3.4 12 -6.5 6.1 -3.2 12.3 -6 6.2 -2.9 12.5 -5.5c1.4 -1.4 0 -5.5 -1.4 -8.3 0 0 -9.7 -1.4 -27.7 4.2 -11 2.7 -23.6 9.7 -25 9.7q-0.4 -1.2 -0.6 -2.4 -0.3 -1.2 -0.5 -2.4 -0.1 -1.2 -0.2 -2.5 -0.1 -1.2 -0.1 -2.4 3.2 -1.6 6.5 -3.1 3.2 -1.5 6.5 -2.9t6.6 -2.7q3.4 -1.3 6.8 -2.5c9.7 -2.7 19.4 -2.7 29.1 -4.1 -1.4 0 -1.4 -2.8 -1.4 -4.2 -4.2 -8.3 -11.1 -15.2 -18 -22.2 -2.8 -5.5 -5.6 -12.4 -5.6 -15.2 2.8 -2.8 5.6 1.4 9.7 1.4q-0.6 -1.9 -1.1 -3.7 -0.5 -1.9 -0.8 -3.8 -0.4 -2 -0.6 -3.9 -0.2 -1.9 -0.2 -3.9c-1.4 -5.5 -1.4 -5.5 -1.4 -12.5 0 -8.3 2.7 -12.4 1.4 -13.8 -1.4 -1.5 -7 -4.1 -8.4 -4.1 -2.7 -1.5 -4.1 -1.5 -5.5 -4.2 -4.2 -7 -8.3 -12.5 -8.3 -19.4 0 -7 2.7 -12.5 5.5 -19.4 1.4 -5.6 8.3 -8.4 12.5 -11.1 4.2 -2.8 8.3 -1.4 12.5 -1.4 9.7 0 18 5.5 25 9.7q1.8 1.4 3.4 3.1 1.5 1.7 2.8 3.7 1.2 1.9 2.1 4.1 0.9 2.1 1.4 4.3h12.4c7 1.4 13.9 2.8 22.2 7 9.7 -8.3 26.3 -9.7 34.7 -9.7 0 -15.3 11.1 -23.6 19.3 -23.6 7 -1.4 11.2 -2.8 20.9 1.4 6.9 4.1 16.6 18 16.6 19.4 2.8 5.5 1.4 12.5 1.4 20.8q-0.4 1.4 -0.6 2.7 -0.3 1.4 -0.5 2.8l-0.2 2.8q-0.1 1.4 -0.1 2.8c-1.3 5.5 -8.3 9.7 -12.5 11.1 0 9.7 -2.8 15.2 -4.1 23.5 0 4.2 -1.4 8.4 -2.8 12.5 4.1 -1.4 5.6 -4.1 9.7 -4.1 -2.8 18 -6.9 15.2 -11.1 23.5q-0.6 2.3 -1.4 4.5 -0.9 2.2 -1.9 4.2 -1.1 2.1 -2.3 4.1 -1.2 2 -2.7 3.9 -0.8 0.7 -1.6 1.5 -0.8 0.7 -1.7 1.4 -0.9 0.7 -1.8 1.3 -0.9 0.7 -1.8 1.3c-2.8 1.4 0 2.8 0 4.2zm-115 -105.4c2.7 -2.8 11 -8.3 11 -8.3 1.4 0 1.4 -1.4 1.4 -2.8 -2.7 -9.7 -5.5 -9.7 -11.1 -12.5q-1 -0.7 -2.2 -1.3 -1.1 -0.5 -2.4 -0.9 -1.2 -0.3 -2.5 -0.5 -1.3 -0.1 -2.6 0c-5.5 1.3 -15.2 4.1 -18 12.4 0 1.4 -1.4 7 2.8 12.5 2.8 5.5 8.3 9.7 11.1 12.5 4.1 0 5.5 -7 12.4 -11.1zm29.1 112.3c-2.7 -1.4 -5.5 -1.4 -8.3 -1.4l-2.4 0.2q-1.3 0.1 -2.5 0.3 -1.2 0.1 -2.4 0.4 -1.2 0.2 -2.4 0.5 0.2 1 0.6 2.1 0.3 1.1 0.6 2.1t0.7 2.1q0.4 1 0.9 2c4.1 -1.4 5.5 -2.8 8.3 -4.1 -0.1 0 5.5 -2.8 6.9 -4.2zm11 -74.9c0 -2.8 -2.7 -5.6 -6.9 -7h-18c-7 0 -12.5 0 -19.4 1.4 2.8 5.6 9.7 11.1 12.5 13.9 2.7 2.8 5.5 5.5 11.1 5.5 5.5 -1.3 5.5 0 8.3 -1.3 0 2.7 1.4 6.9 0 9.6 0 1.5 1.4 12.5 -4.2 13.9 -4.1 1.4 -9.7 4.2 -12.5 8.3 -2.7 4.1 -4.1 11.1 0 13.9 2.8 1.4 5.6 -2.8 9.8 -4.2 4.2 -1.3 4.1 -4.1 5.5 -8.3 2.8 -2.8 8.3 -4.1 9.7 -6.9v-4.2c1.4 -12.5 1.4 -15.2 2.8 -23.6 0 -1.3 1.3 -9.6 1.3 -11zm8.3 -33.3c0 -2.7 -5.5 -1.3 -8.3 0 -2.7 0 -6.9 2.8 -11.1 5.6 -4.1 4.1 -6.9 5.5 -6.9 9.7h6.9c7 0 8.4 2.8 11.1 -1.4 4.1 -5.5 8.3 -8.3 8.3 -13.9zm58.2 -12.4c9.7 2.8 16.7 8.3 23.6 16.6q1.6 0 3.1 -0.5t2.8 -1.4q1.3 -0.9 2.3 -2.2 1 -1.3 1.5 -2.8c1.4 -6.9 2.8 -18 -1.4 -23.6 -2.8 -2.8 -4.2 -4.1 -11.1 -5.5q-2 -0.6 -4.1 -0.6 -2.1 0 -4.1 0.6 -2 0.5 -3.8 1.6 -1.8 1.1 -3.2 2.5c-2.8 4.2 -7 9.7 -5.6 15.3zm-29.1 18c2.7 0 2.7 5.5 2.7 8.3 7 0 13.9 1.4 16.7 -1.3 15.2 -7 -8.3 -12.6 -11.1 -12.6 -7 -1.3 -20.8 -5.5 -15.3 0 0 2.8 4.2 2.8 6.9 5.6zm29.1 102.6c-4.1 -1.4 -8.3 -4.2 -16.6 -2.8 -1.3 1.4 -1.3 1.4 -1.3 5.5 6.8 0 11 4.2 16.6 5.6 -0.1 0 1.3 -6.9 1.3 -8.3zm-1.4 8.3zm9.7 -33.3c5.6 0 -6.9 -5.6 -12.5 -9.7q-0.3 -0.1 -0.7 -0.2 -0.4 -0.1 -0.7 -0.3 -0.4 -0.1 -0.7 -0.4 -0.3 -0.2 -0.6 -0.5c-2.8 -2.8 -4.2 -8.3 -9.7 -9.7q-0.3 0 -0.6 -0.1 -0.2 -0.1 -0.4 -0.3 -0.2 -0.2 -0.3 -0.5 -0.1 -0.2 -0.1 -0.5c0 -4.1 -1.4 -20.8 -1.4 -20.8 2.8 5.6 8.3 5.6 11.1 5.6 5.5 0 9.7 -1.4 12.4 -5.6 0 -1.4 1.4 -4.1 2.8 -4.1 2.8 -1.4 5.6 -2.8 7 -5.6 1.4 0 2.8 -2.8 2.8 -2.8 -12.5 -1.4 -38.8 -1.4 -38.8 -1.4 -4.2 1.4 -8.3 5.6 -8.3 7 0 0 2.7 15.3 2.7 16.7 0 9.7 1.4 9.7 1.4 19.4 4.2 2.7 5.5 2.7 8.3 5.5q2.1 4.2 4.2 8.3c5.5 2.8 12.5 5.6 16.6 9.7 1.3 0 5.5 -6.9 5.5 -9.7zm9.7 120.7q0.1 1.1 0.3 2.1 0.2 1.1 0.4 2.1 0.3 1.1 0.6 2.1 0.4 1 0.7 2 -1.2 1 -2.4 1.9 -1.3 0.9 -2.6 1.7 -1.3 0.8 -2.7 1.6 -1.3 0.7 -2.7 1.4c-3.1 -4.3 -6.8 -11.9 -6.8 -15 -1.5 -4.1 -1.5 -12.4 0 -16.6 0 0 8.2 2.8 11 4.2 7 0 1.4 9.7 4.2 12.4zM192.6 328c-2.8 -4.2 -4.1 -9.8 -5.5 -13.9 -1.5 -4.1 -4.3 -6.9 -7 -11.1 1.4 -1.4 2.7 -12.5 2.7 -12.5 1.5 -1.4 4.2 1.4 5.6 1.4q1.2 0.7 2.2 1.7 1 0.9 1.9 1.9 0.9 1.1 1.6 2.3 0.7 1.1 1.2 2.4c1.4 2.7 2.8 9.7 2.8 9.7 0 9.7 -4.2 12.5 -5.5 18.1zm91.3 11.7l-2.4 0.4q-1.3 0.1 -2.5 0.2 -1.3 0.2 -2.5 0.2c-1.5 -0.5 -2.9 -0.8 -4.9 -1.5 -1.4 -1.4 -1.4 -4.1 -1.4 -8.3 0 -2.8 -1.4 -8.3 -1.4 -13.9 0 -2.8 2.8 -4.1 7 -6.9 1.3 0 2.7 -1.4 8.2 -2.8v22.2c0.7 2.5 1.6 6.4 2.4 9.9q-1.2 0.3 -2.5 0.5zm49.8 -37.4l-1.4 2.6 -1.4 2.6q-0.8 1.3 -1.6 2.5t-1.7 2.4q-0.8 -0.5 -1.4 -1 -0.7 -0.6 -1.3 -1.3 -0.6 -0.7 -1.1 -1.4 -0.5 -0.8 -0.9 -1.6 -0.7 -1.7 -1.3 -3.4 -0.5 -1.7 -1.1 -3.4 -0.5 -1.7 -0.9 -3.5 -0.5 -1.7 -0.9 -3.5c1.4 0 4.2 0 5.6 1.4 4.1 0 4.1 0 6.9 1.4 0 1.1 1 3.5 2.5 6.2z" fill-rule="evenodd" id="path_1"/></svg>
