<svg xmlns="http://www.w3.org/2000/svg" fill="none" viewBox="0 0 500 500"><path fill="url(#a)" d="M42.304 77.044c-8.446 0-16.66-4.379-21.187-12.214-6.747-11.68-2.742-26.614 8.946-33.358L78.937 3.276c11.688-6.744 26.634-2.741 33.382 8.938 6.747 11.68 2.743 26.615-8.945 33.358L54.501 73.77a24.339 24.339 0 0 1-12.197 3.275Z"/><path fill="url(#b)" d="M408.844 235.902 66.718 433.284v-84.592L335.12 193.755l-48.631-28.057L30.062 313.446a24.415 24.415 0 0 0-12.22 21.147V475.58a24.421 24.421 0 0 0 12.22 21.148 24.447 24.447 0 0 0 24.438 0l415.44-239.677a24.417 24.417 0 0 0 12.219-21.149 24.412 24.412 0 0 0-12.219-21.146l-121.773-70.255c-.26-.157-.524-.309-.79-.455L225.564 73.769a24.455 24.455 0 0 0-24.437 0l-171.064 98.69c-11.689 6.744-15.693 21.677-8.945 33.358 4.526 7.834 12.74 12.214 21.187 12.214a24.358 24.358 0 0 0 12.195-3.275l158.844-91.642 195.5 112.79v-.002Z"/><path fill="url(#c)" d="M408.844 235.902 66.718 433.284v-84.592l15.476-8.933-27.697-40.393-24.436 14.08a24.415 24.415 0 0 0-12.219 21.147V475.58a24.421 24.421 0 0 0 12.22 21.148 24.447 24.447 0 0 0 24.438 0l415.44-239.677a24.417 24.417 0 0 0 12.219-21.149 24.412 24.412 0 0 0-12.219-21.146l-121.773-70.255c-.26-.157-.524-.309-.79-.455L225.564 73.769a24.455 24.455 0 0 0-24.437 0l-171.064 98.69c-11.689 6.744-15.693 21.677-8.945 33.358 4.526 7.834 12.74 12.214 21.187 12.214a24.358 24.358 0 0 0 12.195-3.275l158.844-91.642 195.5 112.788Z"/><defs><linearGradient id="a" x1="31.22" x2="108.384" y1="111.73" y2="0" gradientUnits="userSpaceOnUse"><stop offset=".26" stop-color="#FF670D"/><stop offset="1" stop-color="#FF5317"/></linearGradient><linearGradient id="b" x1="86.591" x2="187.325" y1="285.221" y2="109.662" gradientUnits="userSpaceOnUse"><stop stop-color="#FF7207"/><stop offset="1" stop-color="#FF7208" stop-opacity="0"/></linearGradient><linearGradient id="c" x1="35.194" x2="482.158" y1="500" y2="227.227" gradientUnits="userSpaceOnUse"><stop stop-color="#FF8000"/><stop offset="1" stop-color="#FF4020"/></linearGradient></defs></svg>