<svg role="img" viewBox="0 0 24 24" xmlns="http://www.w3.org/2000/svg"><title>INWX</title><path d="M12.701 23.882c-.61-.058-1.294-.157-1.519-.22-.438-.124-1.147-.64-1.033-.753.037-.038.403-.016.813.048.41.065 1.496.153 2.412.198l1.666.08v.321c0 .501-.195.528-2.338.326zm-3.036-.579c-.665-.295-1.783-.933-1.729-.987.119-.119 1.574.469 2.04.824.596.456.483.515-.311.163m2.686-.64c-2.767-.301-4.317-.626-5.261-1.104-.584-.296-.902-.577-1.747-1.544l-.28-.321.633.339c1.895 1.015 6.404 1.56 10.734 1.298 1.196-.072 2.294-.16 2.438-.196.32-.078.351.19.093.808-.137.327-.27.436-.672.553-.483.139-5.02.267-5.938.167m-1.576-2.109c-1.783-.193-4.345-.691-4.679-.909-.261-.171-.96-1.544-.844-1.66.041-.041.484.034.985.166 1.839.485 5.067.841 7.624.841 1.199 0 1.231.029 1.157 1.057-.031.431-.083.524-.329.592-.473.131-2.282.091-3.914-.087m-6.233-1.728c-.395-.45-1.144-1.825-.99-1.817.244.011.745.599 1.077 1.262.452.903.416 1.128-.087.555m6.757-.609c-3.956-.334-6.822-1.022-7.825-1.877-.433-.37-.619-.837-.895-2.258l-.08-.409.396.39c1.033 1.019 3.516 1.694 7.41 2.017 2.1.174 7.477.07 9.235-.178.708-.1 1.457-.182 1.666-.183l.38-.001-.001.672c-.003 1.253-.055 1.301-1.752 1.624-.75.143-1.856.197-4.501.218-1.929.016-3.744.009-4.033-.015m-.41-3.046c-1.305-.113-3.531-.426-3.711-.521-.166-.088-.205-.269-.205-.959 0-1.223.039-1.252 1.403-1.054.611.089 2.258.195 3.661.235 1.982.057 2.588.111 2.718.241.115.115.168.438.168 1.038 0 .828-.015.877-.3.986-.278.105-2.657.127-3.734.034m-6.137-1.022c-1.096-.384-1.682-.708-2.031-1.123-.266-.316-.307-.473-.307-1.16 0-.437.033-.961.074-1.165l.074-.371.214.352c.255.419.854.745 2.263 1.228 1.196.411 1.197.413 1.135 1.706-.038.799-.045.816-.35.808-.172-.005-.654-.129-1.072-.275m5.728-2.653c-4.215-.279-7.599-1.388-7.599-2.489 0-.279.49-1.767.627-1.903.036-.036.195.088.353.276.606.72 2.371 1.318 5.158 1.748 1.143.176 2.092.217 5.12.218l3.716.001.079.292c.043.161.08.608.082.994l.005.701-.526.137c-.611.159-4.777.174-7.015.025m1.461-3.094c-3.038-.29-6.319-.987-7.005-1.489-.213-.156-.208-.184.148-.793.567-.969.674-1.078.977-1.002.148.037.642.199 1.098.362 1.147.408 2.648.633 5.25.787 1.36.08 2.255.182 2.307.261.047.072.087.479.088.906.002.705-.022.782-.261.85-.349.098-2.012.174-2.602.118m-7.77-2.145c-.109-.204-.057-.348.33-.919.602-.886.759-1.016.951-.786.121.147.062.306-.345.931-.638.979-.768 1.087-.936.774m8.063-.909c-1.119-.068-3.422-.387-4.142-.574-.898-.232-1.777-.681-1.944-.992-.111-.207-.082-.297.181-.571.509-.532 1.321-1.071 1.406-.934.342.554 2.154 1.099 4.324 1.3 1.444.134 4.461.06 5.669-.139.354-.058.908-.14 1.231-.181l.587-.075.491.7c.459.655.478.711.289.88-.281.251-.94.404-2.347.546-.936.095-3.27.125-4.905.077a29.9 29.9 0 0 1-.84-.037m-.351-2.685c-.782-.081-2.104-.405-2.104-.516 0-.062.329-.323.731-.581.565-.363.809-.455 1.081-.409.193.032.969.123 1.724.201l1.374.142v1.242l-1.199-.019a28.08 28.08 0 0 1-1.607-.061zm-2.912-.904-.265-.281.741-.353c.998-.475 1.309-.544 1.488-.327.12.144.098.204-.125.34-.15.09-.539.331-.866.533-.327.204-.621.37-.652.37-.031 0-.176-.127-.321-.282m3.789-.89C12.122.74 11.649.549 11.649.42c0-.243 1.642-.489 2.68-.402.675.056.887.128 1.24.419.32.264.387.375.269.449-.194.123-2.445.11-3.078-.017" fill="#188bba"/><path d="M12.701 23.882c-.61-.058-1.294-.157-1.519-.22-.438-.124-1.147-.64-1.033-.753.037-.038.403-.016.813.048.41.065 1.496.153 2.412.198l1.666.08v.321c0 .501-.195.528-2.338.326zm-3.036-.579c-.665-.295-1.783-.933-1.729-.987.119-.119 1.574.469 2.04.824.596.456.483.515-.311.163m1.11-2.749c-1.783-.193-4.345-.691-4.679-.909-.261-.171-.96-1.544-.844-1.66.041-.041.484.034.985.166 1.839.485 5.067.841 7.624.841 1.199 0 1.231.029 1.157 1.057-.031.431-.083.524-.329.592-.473.131-2.282.091-3.914-.087m-6.233-1.728c-.395-.45-1.144-1.825-.99-1.817.244.011.745.599 1.077 1.262.452.903.416 1.128-.087.555m6.347-3.655c-1.305-.113-3.531-.426-3.711-.521-.166-.088-.205-.269-.205-.959 0-1.223.039-1.252 1.403-1.054.611.089 2.258.195 3.661.235 1.982.057 2.588.111 2.718.241.115.115.168.438.168 1.038 0 .828-.015.877-.3.986-.278.105-2.657.127-3.734.034m-6.137-1.022c-1.096-.384-1.682-.708-2.031-1.123-.266-.316-.307-.473-.307-1.16 0-.437.033-.961.074-1.165l.074-.371.214.352c.255.419.854.745 2.263 1.228 1.196.411 1.197.413 1.135 1.706-.038.799-.045.816-.35.808-.172-.005-.654-.129-1.072-.275m7.189-5.747c-3.038-.29-6.319-.987-7.005-1.489-.213-.156-.208-.184.148-.793.567-.969.674-1.078.977-1.002.148.037.642.199 1.098.362 1.147.408 2.648.633 5.25.787 1.36.08 2.255.182 2.307.261.047.072.087.479.088.906.002.705-.022.782-.261.85-.349.098-2.012.174-2.602.118m-7.77-2.145c-.109-.204-.057-.348.33-.919.602-.886.759-1.016.951-.786.121.147.062.306-.345.931-.638.979-.768 1.087-.936.774m7.712-3.594c-.782-.081-2.104-.405-2.104-.516 0-.062.329-.323.731-.581.565-.363.809-.455 1.081-.409.193.032.969.123 1.724.201l1.374.142v1.242l-1.199-.019a28.08 28.08 0 0 1-1.607-.061zm-2.912-.904-.265-.281.741-.353c.998-.475 1.309-.544 1.488-.327.12.144.098.204-.125.34-.15.09-.539.331-.866.533-.327.204-.621.37-.652.37-.031 0-.176-.127-.321-.282" fill="#707075"/></svg>