<svg xmlns="http://www.w3.org/2000/svg" viewBox="0 0 28.65 33.18" fill="#f43a3a">
  <path d="m14.327,19.14c0.673,0 1.097,0.365 1.097,1.325v5.828H13.23v-5.828c0,-0.96 0.423,-1.325 1.096,-1.325zM20.8,33.136v-5.645c0,-0.662-0.537,-1.198-1.2,-1.198H17.54V20.6c0,-2.15-1.135,-3.379-3.212,-3.379-2.077,0-3.212,1.229-3.212,3.38v5.693h-2.06c-0.663,0-1.2,0.536-1.2,1.198v5.69C7.706,33.101 5.743,32.332 3.896,30.714 2.046,29.096 0,25.948 0,22.26c0,-3.687 1.99,-7.943 3.44,-10.666 1.448,-2.724 4.802,-7.405 5.541,-8.228 0.739,-0.822 0.966,-0.454 0.91,0.142-0.058,0.596-0.086,1.617 0,3.29 0.085,1.674 0.852,4.17 0.852,4.17 0,0 0.54,-0.765 0.91,-2.07 0.37,-1.305 0.767,-2.837 0.824,-4.255 0.057,-1.419-0.455,-3.149-0.512,-4.057-0.056,-0.908 0.427,-0.567 0.626,-0.255 0.199,0.312 0.88,1.361 1.648,3.66 0.767,2.297 1.45,5.39 1.45,5.39 0,0 0.938,-2.81 1.677,-3.859 0.739,-1.05 0.938,-0.397 0.88,0.766-0.056,1.163-0.084,4.936-0.027,5.532 0.056,0.596 0.397,2.695 2.131,2.185 1.734,-0.51 0.654,-3.916 0.143,-5.59C19.981,6.742 19.469,4.359 19.413,3.934c-0.058,-0.426-0.313,-1.107 0.653,-0.596 0.966,0.51 3.07,3.915 4.065,5.872 0.994,1.958 3.723,6.723 4.348,10.695 0.626,3.972-0.54,6.865-2.33,9.22-1.791,2.354-5.267,3.957-5.351,4.011z"/>
</svg>
