<svg
   viewBox="0 0 28.65 33.18"
   xmlns="http://www.w3.org/2000/svg">
    <path
       d="m 14.327,19.14 c 0.673,0 1.097,0.365 1.097,1.325 v 5.828 H 13.23 v -5.828 c 0,-0.96 0.423,-1.325 1.096,-1.325 z M 20.8,33.136 v -5.645 c 0,-0.662 -0.537,-1.198 -1.2,-1.198 H 17.54 V 20.6 c 0,-2.15 -1.135,-3.379 -3.212,-3.379 -2.077,0 -3.212,1.229 -3.212,3.38 v 5.693 h -2.06 c -0.663,0 -1.2,0.536 -1.2,1.198 v 5.69 C 7.706,33.101 5.743,32.332 3.896,30.714 2.046,29.096 0,25.948 0,22.26 0,18.573 1.99,14.317 3.44,11.594 4.888,8.87 8.242,4.189 8.981,3.366 9.72,2.544 9.947,2.912 9.891,3.508 c -0.058,0.596 -0.086,1.617 0,3.29 0.085,1.674 0.852,4.17 0.852,4.17 0,0 0.54,-0.765 0.91,-2.07 0.37,-1.305 0.767,-2.837 0.824,-4.255 0.057,-1.419 -0.455,-3.149 -0.512,-4.057 -0.056,-0.908 0.427,-0.567 0.626,-0.255 0.199,0.312 0.88,1.361 1.648,3.66 0.767,2.297 1.45,5.39 1.45,5.39 0,0 0.938,-2.81 1.677,-3.859 0.739,-1.05 0.938,-0.397 0.88,0.766 -0.056,1.163 -0.084,4.936 -0.027,5.532 0.056,0.596 0.397,2.695 2.131,2.185 1.734,-0.51 0.654,-3.916 0.143,-5.59 C 19.981,6.742 19.469,4.359 19.413,3.934 19.355,3.508 19.1,2.827 20.066,3.338 c 0.966,0.51 3.07,3.915 4.065,5.872 0.994,1.958 3.723,6.723 4.348,10.695 0.626,3.972 -0.54,6.865 -2.33,9.22 -1.791,2.354 -5.267,3.957 -5.351,4.011 z"
       fill="#f43a3a"
       />
</svg>