<svg xmlns="http://www.w3.org/2000/svg" width="242" height="300" version="1.0" viewBox="0 0 336 419"><path d="M174.18 0h9.51c13.93 1.74 27.15 8.04 37.33 17.7 17.57 16.28 25.19 40.16 29.07 63.15.13 1.6.21 3.21.37 4.82-13.36-.17-26.73.2-40.09-.19-.2-.01-.61-.05-.81-.07-2.69-11.36-7.06-22.56-13.99-32.03-9.94-13.71-26.75-21.61-43.51-22.02-11.93-.23-23.39 4.77-32.58 12.13-11.46 9-20.66 20.5-29.25 32.17 8.1-17.34 18.75-33.62 31.83-47.63C135.77 13.4 153.9 2.05 174.18 0zm-54.2 131.79c14.69-.04 29.39-.11 44.07.03 8.11 3.53 15.77 8.78 21.21 15.84 5.74 7.37 6.96 17.7 3.64 26.36-1.94 4.39-6.03 7.36-10.03 9.76-7.53 4.28-15.86 6.83-24.07 9.45-.2 1.63-.39 3.25-.59 4.88 13.4 13.53 27.45 26.39 40.9 39.87-2.34.45-4.72.29-7.08.27-22.7-.02-45.4.04-68.1-.03-.1-35.48-.12-70.97.05-106.43z" style="opacity:1;fill:#0b4c76"/><path d="M184.32 131.94c14.24-.44 28.49-.05 42.74-.19.25 35.49.06 70.99.09 106.49-5.39-.11-10.82.3-16.2-.18-13.12-12.98-25.93-26.31-39-39.35 8.65-2.71 17.68-5.98 23.74-13.1 11.67-12.75 10.17-34.35-2.04-46.2-2.68-3-6.2-5-9.33-7.47zm-136.85 33.1.27-.22c6.73 12.26 13.64 24.43 20.15 36.82-.06.01-.19.05-.26.07-1.74.26-2.9 1.65-4.08 2.8-7.28 7.74-14.21 16.12-18.28 26.04-4.59 10.83-5.17 23.13-2.21 34.47 2.74 12.22 10.41 23.23 21.06 29.86 15.47 9.85 34.01 12.52 51.74 15.49-24.56 1.08-49.9-.93-72.76-10.62-16.32-6.9-31.13-19.08-38.07-35.72-6.51-14.59-5.97-31.56-.72-46.45 7.73-21.95 24.99-38.81 43.16-52.54zm257.7 3.03c15.2 22.17 28.53 47 30.83 74.24v13.48c-.83 13.5-6.29 26.69-15.35 36.76-10.32 11.14-24.73 18.13-39.66 20.44-21.01 3.13-42.12-1.96-61.77-9.16.18-.4.55-1.21.73-1.61 5.85-11.63 12.35-22.93 18.54-34.37l.46-.22c12.02 3.3 24.82 4.82 37.19 2.68 15.19-2.76 28.58-12.62 36.73-25.6 5.15-8.22 7.36-18.1 6.82-27.75-.64-17.28-8.21-33.14-14.52-48.89zM70.34 350.61c11.08.21 22.17-.04 33.25.14 4.77.42 9.94.7 13.89 3.74 7.5 5.79 9.12 17.82 3.28 25.33-3.46 4.76-9.43 6.63-14.97 7.59 4.91 2.95 8.85 7.17 11.94 11.96 3.93 6.24 8.05 12.37 11.89 18.67-3.52.74-7.17.7-10.68-.02-1.05-.57-1.52-1.77-2.2-2.67-4.14-6.49-8.12-13.1-12.65-19.32-2.56-3.5-5.87-7.07-10.4-7.63-4.81-.32-9.64-.12-14.46-.13 0 9.95.08 19.91-.04 29.86-2.96.6-5.98.49-8.92-.21.13-22.44-.01-44.87.07-67.31m8.88 7.59c-.01 7.37.12 14.74-.07 22.11 6.93.39 13.89.11 20.83.16 4.77-.1 10.53-.88 13.28-5.31 2.59-3.8 2.54-9.26-.58-12.74-2.49-3.19-6.74-4.16-10.59-4.18-7.63-.09-15.25-.05-22.87-.04zm63.55 2.63c7.35-9.63 20.79-13.02 32.3-10.47 9.27 1.92 17.12 9.64 18.95 18.96-2.36.5-4.7 1.14-7.09 1.52-1.7.77-1.96-1.47-2.56-2.45-1.98-5.22-6.45-9.65-12.05-10.73-6.86-1.24-14.63-.17-19.87 4.79-5.67 5.16-7.1 13.19-7.64 20.48.02 8.09 1.28 17.04 7.15 23.11 7.05 6.73 19.07 7.74 26.92 1.81 4.33-3.2 6.42-8.38 7.74-13.41 2.94.85 5.9 1.64 8.86 2.44-1.45 4.44-3.09 8.94-6.1 12.58-4.27 5.41-10.78 8.86-17.63 9.54h-8.5c-6.33-.28-12.65-2.6-17.24-7.03-5.95-5.71-8.86-13.89-9.9-21.91-1.29-10.06.34-21.04 6.66-29.23zm132.12-5.93c8.39-5.48 19.33-6.83 28.84-3.73 8.1 2.68 14.3 9.9 16.23 18.14-2.89.64-5.78 1.28-8.72 1.65-1.45-3.92-3.31-7.92-6.79-10.46-4.35-3.33-10.14-3.7-15.39-3.04-7.15.81-13.57 6-15.95 12.77-2.91 7.88-3.15 16.63-1.13 24.75 1.07 4.34 3.01 8.62 6.45 11.61 7.13 6.23 18.73 7.01 26.36 1.23 4.33-3.2 6.18-8.46 7.84-13.36 2.74.88 5.53 1.6 8.35 2.15-1.74 11.51-11.51 21.36-23.25 22.39h-9.5c-8.72-.5-16.93-5.47-21.19-13.11-5.08-9-6.52-19.84-4.85-29.96 1.35-8.26 5.59-16.36 12.7-21.03zM45.33 417.8c.36-22.39-.2-44.81.29-67.19 2.9.11 5.8.1 8.7.05.05 22.51.09 45.01-.03 67.51-2.98.56-6.07.71-8.96-.37zm156.03-59.17c-.04-2.68-.03-5.36.18-8.03 17.77.24 35.54-.05 53.32.14-.05 2.64-.05 5.28-.08 7.92-7.4-.07-14.81-.05-22.21-.02.03 19.74-.08 39.49.06 59.23-2.94.71-5.97.69-8.95.24-.2-19.86.21-39.73-.21-59.58-7.37.19-14.74.04-22.11.1z" style="opacity:1;fill:#0b4c76"/><path d="M250.09 80.85c.33 1.42.7 2.82 1.07 4.23 10.57.78 21.15-.44 31.72-.1.32 27.79-1.8 55.65-7.23 82.92-6.81 34.76-19.25 68.42-36.72 99.23 2.92-10.66 6.85-21.03 9.47-31.78 8.59-33.31 12.27-68.05 9.35-102.37-1.04-15.95-3.85-31.72-7.29-47.31-.16-1.61-.24-3.22-.37-4.82zM141.76 92.69c22.27-4.67 45.02-7.72 67.8-7.28.2.02.61.06.81.07-16.31 3.43-32.66 6.95-48.45 12.38-21.37 6.96-42.02 16.22-61.3 27.77-19.17 10.84-36.26 24.85-52.88 39.19l-.27.22c-5.14-9.49-11.39-18.36-16.14-28.04 34.35-20.11 71.52-35.66 110.43-44.31zM67.63 201.71c.07-.02.2-.06.26-.07l.18.33-.44-.26zm.44.26c.14.16.42.48.57.64-.15-.16-.43-.48-.57-.64zm.57.64c10.53 10.68 20.09 22.38 31.51 32.19 32.88 30.33 72.5 53.06 114.9 67.14 1.58.54 3.28.91 4.9.28-.18.4-.55 1.21-.73 1.61-4.87 8.87-10.02 17.61-15.02 26.41-.67 1.67-2.39.41-3.41-.09-47.65-27.62-90.64-64.44-121.58-110.29-3.61-5.7-7.68-11.14-10.57-17.25zm169.85 65.24.44-.72.02.5-.46.22z" style="opacity:1;fill:#ccc7d2"/><path d="M260.323 99.478c-10.02-36.042-33.616-57.461-66.577-60.435-21.19-1.912-42.152 9.248-64.502 34.342-4.572 5.133-8.542 9.104-8.823 8.823-.28-.28 1.678-4.225 4.352-8.766 17.773-30.18 41.885-54.3 64.904-64.924 23.42-10.81 42.461-10.818 64.876-.032 28.47 13.701 46.62 40.514 54.95 81.18 1.33 6.488 2.656 12.944 2.947 14.347l.53 2.55h-50.687l-1.97-7.085zM103.776 386.464c-4.988-.52-14.11-2.02-20.27-3.334-42.449-9.053-68.772-29.274-79.635-61.171-1.686-4.95-2.117-9.507-2.092-22.106.03-14.764.273-16.552 3.489-25.616 6.117-17.243 14.501-30.247 29.079-45.106 9.804-9.994 24.49-22.21 25.494-21.205.394.394 5.903 10.208 12.241 21.81l11.526 21.095-5.583 5.805c-22.29 23.179-30.372 45.86-25.295 70.991 2.695 13.343 7.312 22.47 16.056 31.738 11.753 12.46 27.364 19.55 56.252 25.55l12.748 2.648-12.47-.077c-6.859-.042-16.552-.502-21.54-1.022zm217.096 4.601c-10.878-1.321-21.561-3.803-35.34-8.208l-10.966-3.506 4.612-8.574c14.27-26.53 19.332-35.214 20.525-35.213.731 0 5.045.776 9.585 1.723 10.927 2.28 31.735 2.27 40.388-.018 21.243-5.617 40.364-23.154 47.36-43.436 2.135-6.19 2.605-9.877 2.56-20.055-.062-13.838-2.196-23.69-9.157-42.276-2.193-5.855-3.78-10.85-3.529-11.103.253-.252 3.638 4.878 7.523 11.4 10.606 17.805 18 35.877 22.971 56.15 2.37 9.666 2.015 38.5-.58 47.047-3.827 12.61-10.773 24.29-19.714 33.156-6.763 6.705-10.414 9.235-19.872 13.768-6.373 3.055-14.942 6.356-19.042 7.336-9.626 2.301-26.532 3.12-37.324 1.81zM150.823 231.266v-65.752h27.253c30.631 0 30.476-.034 42.832 9.4 17.257 13.175 22.202 34.703 10.855 47.263-4.643 5.14-16.491 11.563-29.16 15.81-8.683 2.911-9.29 3.324-9.612 6.547-.313 3.13 1.873 5.637 24.374 27.933l24.718 24.495-45.63.028-45.63.028v-65.752z" style="fill:navy;fill-opacity:1" transform="scale(.8)"/><path d="M247.16 280.297c-9.039-9.197-19.627-20.06-23.53-24.142l-7.097-7.42 9.374-3.82c7.706-3.141 10.698-5.15 16.816-11.286 6.457-6.475 7.792-8.56 10.078-15.733 2.198-6.898 2.51-9.617 1.879-16.404-1.21-13.018-7.431-24.427-17.522-32.132l-5.038-3.846h51.341v131.504h-19.867l-16.434-16.721zM88.472 480.56v-42.056l24.657.395c23.146.371 24.988.558 30.058 3.054 7.199 3.544 11.091 10.023 11.194 18.634.135 11.312-6.318 19.36-17.852 22.264l-5.274 1.328 3.833 2.786c5.137 3.736 7.845 7.045 16.257 19.866 11.108 16.931 10.841 15.785 3.683 15.785h-6.077l-10.684-16.14c-13.448-20.317-14.747-21.27-28.99-21.27H98.675v37.41H88.472V480.56zm48.445-7.009c9.191-4.985 9.395-19.354.34-24.036-2.555-1.321-7.415-1.72-20.954-1.72H98.675v28.545l17.288-.4c13.78-.32 18.032-.804 20.954-2.389zm-79.671 47.85c-.413-.668-.376-19.544.083-41.945l.835-40.73h8.768v83.89h-4.467c-2.458 0-4.806-.547-5.22-1.215zm142.01 1.242c-22.372-4.053-34.474-31.349-26.326-59.378 2.738-9.417 9.042-16.745 18.349-21.327 6.985-3.439 8.598-3.779 17.904-3.773 11.689.006 17.904 2.177 24.17 8.444 3.507 3.506 8.163 11.192 8.163 13.473 0 .573-2.039 1.558-4.53 2.19l-4.53 1.15-2.947-5.412c-3.747-6.885-8.17-10.136-15.327-11.268-13.001-2.055-24.23 3.292-29.694 14.138-2.755 5.47-4.448 17.212-3.577 24.816 2.192 19.134 11.548 29.02 27.409 28.96 11.304-.043 18.427-4.693 22.99-15.01 2.526-5.709 3.916-6.29 9.346-3.903l3.108 1.366-2.893 6.235c-7.298 15.726-22.479 22.765-41.615 19.299zm80.804-37.373v-37.475h-14.303c-14.28 0-14.302-.004-13.62-2.55.377-1.404.691-3.444.7-4.535.014-1.844 2.348-1.984 33.013-1.984 29.623 0 32.927.183 32.309 1.793-.379.986-.688 3.027-.688 4.534v2.742h-27.177l-.299 37.127-.299 37.128-4.818.348-4.818.349V485.27z" style="fill:navy;fill-opacity:1" transform="scale(.8)"/><path d="M355.714 522.516c-6.685-1.575-12.528-5.002-17.039-9.995-12.375-13.698-14.712-40.56-4.966-57.09 3.948-6.695 8.165-10.392 16.071-14.09 5.912-2.766 8.137-3.176 17.005-3.134 8.764.04 11.017.47 15.973 3.044 3.174 1.649 7.446 4.906 9.495 7.239 3.715 4.231 7.457 11.537 6.434 12.56-.296.297-2.589.814-5.094 1.15-4.324.58-4.636.416-6.16-3.23-1.452-3.475-8.77-11.103-10.768-11.224-.446-.028-2.986-.47-5.645-.985-5.54-1.072-14.012.2-18.973 2.846-4.255 2.27-10.001 9.8-12.027 15.76-.908 2.67-1.527 9.193-1.505 15.87.03 9.282.5 12.365 2.594 17.006 5.044 11.18 12.843 16.388 24.542 16.388 11.719 0 19.07-5.037 23.69-16.232 1.754-4.247 1.935-4.354 6.064-3.583 2.34.437 4.432.968 4.647 1.18.973.955-1.379 7.568-4.368 12.28-7.784 12.276-23.916 18.023-39.97 14.24zM259.7 97.211c-10.983-33.277-29.733-51.512-58.742-57.129-8.189-1.585-11.566-1.73-18.138-.777-17.146 2.486-29.462 9.745-48.038 28.315-7.015 7.012-12.754 12.361-12.754 11.887 0-.473 2.125-4.4 4.723-8.725 20.884-34.776 51.478-60.957 79.24-67.811 9.36-2.311 23.492-2.358 32.282-.108 14.801 3.79 34.116 15.374 43.09 25.845 9.391 10.956 17.353 25.504 22.446 41.012 2.57 7.826 8.674 33.075 8.674 35.882 0 .529-11.182.962-24.848.962h-24.847L259.7 97.21zm49.949 291.623c-8.936-1.828-33.423-8.661-34.347-9.584-.385-.385 16.598-31.62 21.11-38.825 2.256-3.603 3.551-4.649 5.279-4.262 14.302 3.202 37.305 3.722 47.68 1.08 12.25-3.12 20.71-8.182 31.162-18.644 14.052-14.066 19.21-25.789 19.22-43.687.006-12.643-1.624-21.408-6.827-36.691-2.469-7.253-4.488-13.698-4.488-14.322 0-.624 2.047 2.18 4.548 6.234 12.156 19.7 22.986 48.019 25.18 65.838 1.743 14.158-.172 35.673-4.024 45.21-10.318 25.545-30.877 42.218-59.552 48.295-10.563 2.24-32.38 1.927-44.941-.642zm-69.22-115.771-23.712-23.955 9.622-4.435c11.069-5.102 20.003-13.023 24.713-21.91 2.695-5.085 3.005-6.89 3.016-17.57.012-11.132-.226-12.393-3.662-19.434-2.506-5.135-5.858-9.551-10.541-13.887l-6.868-6.358h50.011v131.504H264.14l-23.712-23.955z" style="fill:#000075;fill-opacity:1" transform="scale(.8)"/><path d="M151.503 231.136v-65.882l26.925.492c30.116.55 31.254.795 41.48 8.921 10.678 8.485 16.093 17.243 17.38 28.103 1.76 14.859-7.243 24.517-31.368 33.653-12.23 4.631-14.568 6.707-12.39 10.998.71 1.403 11.82 13.136 24.686 26.074l23.393 23.523h-90.106v-65.882zm-40.245 155.412c-54.625-3.89-90.594-24.55-105.542-60.621-3.175-7.662-3.286-8.562-3.22-26.074.063-16.997.262-18.638 3.172-26.075 4.244-10.848 11.06-23.24 17.094-31.082 9.062-11.777 35.654-36.024 37.299-34.01.563.69 19.428 34.982 21.532 39.141 1.746 3.45 1.71 3.593-1.716 6.802-6.481 6.073-16.897 19.968-20.845 27.806-5.533 10.988-7.404 19.035-7.348 31.595.138 30.601 16.328 52.95 46.084 63.613 3.679 1.318 13.32 4.067 21.426 6.11 16.227 4.087 15.214 4.444-7.936 2.795zm200.658 2.872c-11.543-2.358-35.087-8.953-36.648-10.264-.682-.573 21.375-39.87 23.357-41.615 1.712-1.507 3.08-1.533 11.024-.209 10.891 1.815 28.562 2.057 36.972.505 22.32-4.118 45.62-25.975 51.417-48.234 3.604-13.833 1.818-30.545-5.624-52.642-2.177-6.467-3.734-11.983-3.459-12.258 1.922-1.922 17.305 29.196 23.28 47.091 5.837 17.484 7.27 27.176 6.409 43.363-.825 15.498-2.818 23.809-8.138 33.933-9.91 18.86-24.725 30.752-48.142 38.646-9.618 3.242-38.162 4.195-50.448 1.685zM66.993 480.671c0-23.382.15-32.947.335-21.256.184 11.69.184 30.821 0 42.512-.185 11.69-.335 2.126-.335-21.256zm22.159-.176v-42.12l23.957.79c25.172.83 29.332 1.63 34.84 6.7 8.515 7.838 7.506 25.689-1.828 32.335-1.741 1.24-5.832 3.126-9.09 4.192l-5.923 1.937 4.886 3.731c4.885 3.73 23.445 29.85 23.445 32.995 0 1.093-1.522 1.561-5.076 1.561h-5.076l-8.121-12.186c-16.141-24.224-17.438-25.224-32.685-25.224H98.22v37.41h-9.068v-42.12zm47.932-6.925c9.269-6.075 9.033-19.48-.428-24.341-1.818-.935-8.666-1.406-20.58-1.417l-17.855-.017v28.579l17.906-.402c14.733-.331 18.447-.757 20.957-2.402zm63.266 48.81c-11.754-1.785-21.133-10.083-26.277-23.25-2.019-5.168-2.579-8.956-2.646-17.892-.145-19.388 4.992-30.182 18.057-37.938 6.17-3.663 7.633-4.04 17.044-4.393 5.662-.212 12.461.198 15.11.911 5.77 1.554 12.78 7.609 16.85 14.555 2.865 4.887 2.895 5.12.855 6.613-3.983 2.913-6.93 1.895-10.08-3.48-5.32-9.076-13.828-12.606-25.814-10.712-8.049 1.273-14.304 5.832-18.387 13.404-2.748 5.096-3.374 7.8-3.831 16.542-.969 18.519 3.894 30.085 14.78 35.153 14.312 6.663 30.14 1.022 35.856-12.78.807-1.948 2.171-3.812 3.032-4.142 1.524-.585 8.43 1.294 8.43 2.294 0 1.223-5.05 10.39-7.588 13.774-6.902 9.203-20.586 13.589-35.39 11.34zm80.39-37.14v-37.375l-13.887-.319-13.887-.318-.36-3.117c-.29-2.525.243-3.345 2.804-4.319 3.305-1.257 60.824-1.1 62.09.17.367.368.344 2.28-.05 4.25l-.716 3.583H289.81v73.423l-2.551.684c-6.961 1.865-6.519 4.352-6.519-36.661zm76.122 37.348c-10.89-2.266-20.736-11.025-25.356-22.555-2.123-5.3-2.538-8.529-2.56-19.929-.023-12.56.219-14.126 3.154-20.406 4.134-8.845 8.845-13.689 17.227-17.708 5.947-2.853 8.09-3.263 17.065-3.263 8.772-.001 11.12.425 16.157 2.935 3.24 1.615 7.37 4.73 9.178 6.922 3.788 4.595 7.621 11.355 6.864 12.102-.284.28-2.303.843-4.485 1.25-3.8.708-4.135.49-7.946-5.178-5.141-7.648-10.088-10.238-19.55-10.238-9.347 0-15.739 2.607-20.752 8.463-5.715 6.676-7.645 14.389-7.105 28.386.39 10.103.845 12.212 3.808 17.67 4.694 8.645 10.612 12.577 20.07 13.337 12.354.991 20.065-3.086 25.274-13.367 1.516-2.992 3.152-5.684 3.635-5.983 1.662-1.027 7.288.685 7.954 2.42.937 2.443-5 13.302-9.226 16.878-8.325 7.043-22.467 10.54-33.406 8.264z" style="fill:#000075;fill-opacity:1" transform="scale(.8)"/><path d="M322.442 390.655c-12.805-.902-47.03-9.57-47.03-11.912 0-1.012 8.64-17.137 16.818-31.39l6.397-11.145 5.114.62c13.549 1.646 37.166 2.054 43.425.751 10.853-2.26 23.397-9.29 32.3-18.107 21.297-21.086 25.181-42.391 14.238-78.09-5.632-18.37-5.64-18.417-2.77-14.954 4.353 5.255 17.02 32.207 21.576 45.913 5.999 18.043 7.557 31.145 5.821 48.927-3.115 31.903-21.007 54.05-52.793 65.348-10.45 3.715-26.436 5.213-43.096 4.04zM58.505 521.557c-.94-.94-.98-77.082-.04-80.584.537-2.008 1.499-2.55 4.518-2.55h3.836v83.89H63.04c-2.078 0-4.119-.34-4.535-.756zm140.027.749c-9.596-2.028-18.519-9.93-23.673-20.966-2.948-6.311-3.177-7.823-3.177-20.972 0-12.896.266-14.737 2.949-20.458 4.053-8.641 8.75-13.637 16.525-17.577 6.063-3.071 7.57-3.344 18.504-3.344 10.891 0 12.346.26 17.11 3.062 5.31 3.121 9.426 7.69 12.76 14.162 2.014 3.91 1.635 4.536-3.595 5.934-2.706.724-3.44.206-7.003-4.94-5.688-8.215-11.821-11.167-21.844-10.515-10.3.67-16.829 4.668-21.663 13.262-3.146 5.592-3.546 7.397-3.928 17.708-.892 24.112 8.168 36.666 26.462 36.666 11.234 0 18.063-4.315 23.782-15.024 2.364-4.429 5.369-5.362 9.735-3.026 2.135 1.143 2.119 1.318-.64 6.76-6.422 12.674-15.906 19.033-29.594 19.84-4.3.254-10.019-.004-12.71-.572zm81.415-37.339v-37.475h-27.352l.355-3.685c.349-3.613.486-3.698 7.158-4.411 9.328-.998 32.838-1.115 46.196-.23l11.053.732v7.594h-27.176l-.3 37.127-.298 37.127-4.818.349-4.818.348v-37.476zm-19.224-384.091c-2.22-8.824-7.883-21.378-13.581-30.106-12.888-19.742-34.194-31.416-57.276-31.382-11.14.017-18.283 1.827-28.6 7.248-8.57 4.504-25.022 18.217-33.55 27.964-2.941 3.363-5.348 5.684-5.348 5.159 0-2.418 7.736-15.029 15.796-25.753 16.621-22.114 37.892-39.798 57.137-47.504C205.678 2.347 213.131.83 223.181.83c10.432 0 19.045 2.419 32.947 9.252 10.223 5.025 13.25 7.213 21.566 15.585 18.002 18.124 25.137 34.21 34.62 78.043l.552 2.55h-50.789l-1.354-5.384z" style="fill:#000075;fill-opacity:1" transform="scale(.8)"/></svg>