<svg xmlns="http://www.w3.org/2000/svg" fill="none" viewBox="0 0 76 28"><path fill="#000" d="M3.614.264v23.989a.195.195 0 0 1-.06.14L.14 27.69a.083.083 0 0 1-.14-.06V.264C0 .218.037.18.083.18H3.53c.046 0 .083.037.083.083Zm9.301 6.882c0-2.37 1.943-3.806 4.546-3.806 2.254 0 3.925.932 5.712 2.602.272.272.36.42.631.11l1.615-1.741c.272-.311.124-.389-.148-.66C23.328 1.398 20.453 0 17.422 0c-4.468 0-8.004 2.913-8.004 7.107 0 8.777 13.522 6.951 13.522 13.048 0 2.486-2.176 4.428-5.401 4.428-3.103 0-4.737-1.428-6.447-3.059-.272-.272-.33-.336-.564-.102l-1.845 1.741c-.272.234-.246.253-.051.564 1.767 2.382 5.06 4.234 8.907 4.234 4.818 0 8.976-3.184 8.976-7.65 0-9.243-13.6-7.185-13.6-13.165Zm31.669-3.612c2.758 0 5.012 1.049 6.916 2.64.044.039.196.162.243.202.186.157.221.164.445-.067.055-.057.214-.229.214-.229l1.632-1.782c.175-.205.145-.22.019-.353-.052-.054-.143-.138-.222-.217C51.383 1.554 48.236 0 44.583 0 36.852 0 30.83 6.214 30.83 14.02c0 7.806 6.022 13.98 13.755 13.98 3.652 0 6.807-1.65 9.254-3.863.272-.233.375-.317.103-.59l-1.663-1.818c-.272-.272-.343-.208-.615.026-1.904 1.592-4.32 2.71-7.08 2.71-5.556 0-10.063-4.504-10.063-10.446 0-5.98 4.507-10.485 10.063-10.485ZM66.79.056c-3.497 0-6.269 1.543-7.979 3.679a3.53 3.53 0 0 0-.181.253c-.125.195-.089.21.087.406.441.49 1.812 2.043 1.812 2.043.058.06.111.063.161.019.055-.048.173-.16.238-.224 1.088-1.127 2.948-2.99 5.823-2.99 3.225 0 5.168 2.018 5.168 4.97 0 4.188-2.401 6.18-7.748 10.674-1.555 1.307-4.426 3.825-5.142 4.455a.486.486 0 0 0-.165.366v3.763c0 .168.197.258.323.147 1.476-1.293 7.576-6.637 9.558-8.32 5.132-4.358 6.516-7.318 6.516-11.124 0-4.621-3.342-8.117-8.47-8.117Z"/><path fill="#468145" d="M75.4 24.6h-8.62a.2.2 0 0 0-.2.2v2.552c0 .11.089.2.2.2h8.62a.2.2 0 0 0 .2-.2V24.8a.2.2 0 0 0-.2-.2Z"/></svg>