<svg class="c-banner__logo" viewBox="-1 -1 92 82" version="1.1" xmlns="http://www.w3.org/2000/svg"><polygon points="60.1999 0.5754 57.6142 5.7558 24.2762 72.1228 13.3222 72.1228 29.3572 40.1918 29.3432 40.1638 29.3522 40.1408 13.3462 8.2678 33.4892 8.2678 29.3882 0.0448 0.0002 0.0448 20.1542 40.1708 0.0002 80.2968 0.0232 80.2968 0.0002 80.3408 29.3882 80.3408 65.5952 8.2178 76.5512 8.2178 60.5132 40.1478 60.5282 40.1798 60.5182 40.2018 76.5302 72.0768 56.3842 72.0768 60.4872 80.2968 89.8752 80.2968 69.7202 40.1708 89.8752 0.0448 89.8542 0.0448 89.8752 -0.0002 60.4872 -0.0002"></polygon></svg>