<svg xmlns="http://www.w3.org/2000/svg" xml:space="preserve" viewBox="0 0 70 70"><linearGradient id="a" x1="7.083" x2="64.106" y1="16.294" y2="42.288" gradientTransform="matrix(1 0 0 -1 0 71.047)" gradientUnits="userSpaceOnUse"><stop offset="0" style="stop-color:#905cfb"/><stop offset=".165" style="stop-color:#6677f8"/><stop offset=".378" style="stop-color:#3596f5"/><stop offset=".54" style="stop-color:#17a9f3"/><stop offset=".632" style="stop-color:#0cb0f2"/></linearGradient><path d="M66.9 47.5c-.2-.2-13.1-12.6-13.1-12.6s9.8-10.4 12.4-13c.8-.8 1.5-1.6 2-2.6 3.6-6.1 1.5-13.9-4.6-17.5-4.5-2.6-10.1-2.2-14.1.8-.7.5-1.3 1-1.9 1.6-.3.4-13.9 12.8-25.7 23.6l22.1 14-23.2 26.1c-1.4 1-2.8 1.6-4.3 1.9.3 0 .5 0 .8-.1 4.6-.7 43.9-7.3 45.8-7.7 2.3-.4 4.4-1.8 5.7-3.9C71 54.5 70 50 66.9 47.5" style="fill:url(#a)"/><linearGradient id="b" x1="30.31" x2="1.068" y1="42.916" y2="68.744" gradientTransform="matrix(1 0 0 -1 0 71.047)" gradientUnits="userSpaceOnUse"><stop offset="0" style="stop-color:#905cfb"/><stop offset=".072" style="stop-color:#a554e6"/><stop offset=".252" style="stop-color:#d641b5"/><stop offset=".39" style="stop-color:#f43597"/><stop offset=".468" style="stop-color:#ff318c"/></linearGradient><path d="M45.9 30.5c-.4-2.7-1.8-4.9-3.8-6.5C40 22.4 23.8 5.6 22 3.7 19.2 1 15.2-.5 11.1.2 4.1 1.2-.8 7.8.3 14.8c.5 3.5 2.5 6.5 5.1 8.4 2.6 2 23 16 24.3 17 2.1 1.6 4.9 2.5 7.7 2 5.5-1 9.4-6.2 8.5-11.7" style="fill:url(#b)"/><linearGradient id="c" x1="4.983" x2="74.023" y1="12.362" y2="55.864" gradientTransform="matrix(1 0 0 -1 0 71.047)" gradientUnits="userSpaceOnUse"><stop offset="0" style="stop-color:#905cfb"/><stop offset=".165" style="stop-color:#6677f8"/><stop offset=".378" style="stop-color:#3596f5"/><stop offset=".54" style="stop-color:#17a9f3"/><stop offset=".632" style="stop-color:#0cb0f2"/></linearGradient><path d="M23 67.8c.1 0 23.3-26.1 23.3-26.1L22.9 26.9c-8.3 7.6-16 14.5-17.8 16.2-1.1 1-2.2 2.3-3 3.7-4.3 7.4-1.8 16.8 5.6 21.1 3 1.7 9.8 3.8 15.3-.1" style="fill:url(#c)"/><path d="M13.4 13.4h43.2v43.2H13.4z" style="fill:#000"/><path d="M17.4 48.5h16.2v2.7H17.4zm6.4-18.6L17 19.1h4.6l4.2 7.1 4.4-7.1h4.5l-6.9 10.7V37h-4zm17.8-7.2h-5.5v-3.6H51v3.6h-5.5V37h-3.9z" style="fill:#fff"/></svg>