<svg xmlns="http://www.w3.org/2000/svg" width="251.758" height="200" class="icon" viewBox="0 0 1289 1024"><path fill="#E7B15B" d="M236.778 919.328c-31.803-8.038-39.317-10.66-57.84-19.571-28.658-13.805-47.181-27.26-74.266-53.996-41.415-41.065-71.47-107.467-71.47-158.493 0-12.407.174-12.756 4.368-12.756 4.369 0 4.369.175 4.369 14.504 0 26.211 4.543 45.433 17.998 75.49 24.29 54.52 69.723 101.7 122.67 127.562 21.145 10.31 47.181 19.047 67.801 22.717 14.33 2.621 16.95 3.495 16.95 6.29 0 4.544-6.99 4.195-30.58-1.747m240.273 2.621c0-1.397 2.796-5.242 6.291-8.737 6.116-6.116 6.116-6.116 3.32-11.708-1.573-2.97-5.242-6.29-8.038-7.339-5.767-2.271-6.99-8.213-1.748-8.213 6.99 0 12.233 3.495 16.776 11.184 5.242 9.087 4.893 12.407-2.97 21.319-5.418 6.116-13.63 8.213-13.63 3.494" style="--darkreader-inline-fill:#8f6015"/><path fill="#E7B15B" d="M257.048 890.32c-30.93-4.892-54.87-13.105-81.954-28.133-21.32-11.883-52.773-38.444-52.773-44.56 0-2.097-1.223-3.32-3.146-3.32-3.145 0-5.417-2.796-16.775-19.571a2016 2016 0 0 0-9.786-14.504c-4.543-6.465-7.339-12.407-14.503-29.706-2.796-6.815-7.165-22.542-11.883-43.686-1.747-6.99-2.446-21.843-2.446-45.434.174-33.55.35-35.822 5.766-56.267 2.97-11.534 7.165-25.338 9.087-30.58 5.766-14.33 18.872-37.57 29.532-52.074 11.008-14.854 37.045-40.89 44.385-44.21 2.62-1.05 4.718-2.622 4.718-3.146 0-4.369 60.985-34.774 69.373-34.774 1.573 0 2.272 1.398 1.922 3.844-.35 2.971-3.67 4.893-14.504 9.262q-60.81 23.59-98.031 73.392c-40.54 54.17-53.996 114.807-41.065 184.18 2.272 11.883 11.708 40.716 16.251 49.802 15.378 30.231 39.493 58.365 69.549 81.431 4.368 3.32 8.212 6.466 8.737 7.165 2.796 3.67 38.793 20.095 55.044 24.988 29.881 9.087 34.774 9.96 64.306 11.009 25.163 1.048 27.435 1.398 27.435 4.194 0 3.145-1.748 3.32-22.193 3.145-12.407-.175-29.007-1.223-37.046-2.446m74.966-.873c0-3.32 1.223-3.495 33.201-3.495s33.201.175 33.201 3.495-1.223 3.495-33.201 3.495-33.201-.175-33.201-3.495m115.33 0c0-3.145 1.224-3.495 11.36-3.495s11.357.35 11.357 3.495-1.223 3.495-11.358 3.495-11.358-.35-11.358-3.495m47.706-36.521c-26.561-13.28-52.249-47.706-57.491-76.713-5.767-31.454-6.29-41.59-5.417-85.8 1.223-67.276 8.388-106.943 32.153-176.666 35.473-105.02 75.14-172.996 130.883-225.07 17.3-16.251 50.85-39.842 68.675-48.23 10.31-4.892 13.105-5.416 28.133-5.416s17.65.524 27.96 5.417c18.348 8.912 34.424 21.493 67.625 52.772 56.268 53.472 86.848 87.372 128.262 142.766 5.767 7.69 12.582 16.601 15.203 19.921 10.66 13.455 51.724 74.616 65.53 97.333 5.242 8.737 6.465 12.406 6.465 19.746v9.086l-6.291-.524c-4.194-.35-7.165-1.747-8.388-4.019-1.048-1.922-4.194-6.99-7.164-11.358-2.796-4.369-6.64-10.31-8.213-13.456-4.544-8.213-23.066-34.075-27.26-37.744-3.495-3.146-3.495-3.146-4.544.174-.699 1.923-4.368 4.893-8.562 6.466-4.02 1.573-9.611 5.067-12.582 7.863-6.815 6.291-11.708 8.738-17.824 8.738-5.242 0-20.27 9.61-25.337 16.076-1.573 2.097-5.767 4.718-9.437 5.767-4.892 1.398-8.562 4.368-14.678 12.057-4.369 5.766-9.087 10.834-10.485 11.184-1.398.524-5.941 3.145-9.96 5.766-4.544 3.146-9.611 5.068-13.28 5.068-4.719 0-8.563 1.922-15.902 8.038-5.418 4.369-9.786 8.912-9.786 10.135 0 2.446-11.708 8.038-16.776 8.038-4.892 0-13.28 5.417-24.464 15.902-9.261 8.562-12.057 10.31-17.3 10.31-6.814 0-14.154 4.543-22.367 13.63-3.145 3.32-6.815 5.592-9.261 5.592-2.796 0-7.34 3.145-13.455 9.436-4.893 5.067-11.883 10.31-15.203 11.358s-8.912 4.893-12.582 8.388c-5.591 5.417-7.164 6.116-13.105 5.417-5.942-.874-7.34-.175-13.106 6.116-3.67 4.02-6.64 8.912-6.64 11.009 0 4.02-2.971 5.941-8.912 5.941-1.923 0-7.165 1.922-11.708 4.544-19.921 10.659-28.309 16.95-28.309 20.969s-8.213 8.038-15.377 7.514-11.883 2.796-18.523 12.581c-1.573 2.622-5.941 5.418-9.786 6.64-4.893 1.399-9.436 5.068-15.902 12.582-5.067 5.592-11.008 10.834-13.28 11.359-2.272.699-4.02 2.097-4.02 3.32 0 3.495-11.882 13.106-16.076 13.106-3.495 0-3.145.699 2.971 6.99 3.844 3.844 10.135 8.562 13.98 10.484 9.96 4.718 14.853 10.834 14.853 18.348 0 6.116 0 6.116-7.34 5.941-4.368-.174-11.358-2.096-16.6-4.892" style="--darkreader-inline-fill:#8f6015"/><path fill="#E7B15B" d="M33.201 629.603c0-9.262 5.942-37.92 10.136-49.453 7.863-20.97 11.183-28.483 19.221-43.162 9.786-17.649 18.348-30.405 22.193-33.725 1.398-1.223 2.621-3.146 2.621-4.194 0-3.32 35.997-37.745 50.676-48.579 12.581-9.261 43.336-27.61 46.482-27.61 4.194-.174 6.116-3.844 7.863-14.154 4.02-25.862 17.475-59.063 33.027-81.955 8.737-12.756 30.23-34.774 43.686-44.734 30.23-22.193 69.198-36.522 102.225-37.57 14.33-.524 15.902-1.748 23.416-17.999 11.183-24.114 29.357-49.103 51.2-70.247 14.678-14.329 34.424-30.405 37.22-30.405.874 0 3.146-1.573 5.243-3.495 5.417-5.068 36.346-19.921 54.17-25.862 29.881-10.135 49.278-13.98 70.422-14.155 11.533-.174 12.582.175 12.582 3.32s-1.224 3.495-14.33 3.495c-8.038 0-17.3.874-20.62 1.748s-13.63 3.495-22.89 5.766c-26.212 6.815-62.734 22.892-79.334 34.95-14.504 10.659-30.406 24.114-40.192 34.424-18.173 19.047-20.794 21.843-23.59 26.736-1.398 2.446-5.417 8.213-8.737 12.93-3.32 4.544-9.96 16.252-14.853 25.863L392.3 249.01l-7.863.524c-38.619 2.097-80.033 16.601-107.992 37.92-6.99 5.242-14.329 9.61-16.251 9.61-1.748 0-3.32 1.224-3.32 2.797 0 1.398-4.893 8.213-10.66 15.202-23.415 27.086-38.269 56.093-44.56 87.198-2.271 11.533-5.242 22.017-6.64 23.415-1.398 1.224-9.61 6.116-18.523 10.66-19.396 10.135-44.909 29.007-62.383 46.132-37.22 36.522-65.879 90.867-70.771 133.505-2.272 19.92-2.272 20.095-6.64 20.095-2.797 0-3.496-1.048-3.496-6.465" style="--darkreader-inline-fill:#8f6015"/><path fill="#E7B15B" d="M223.672 422.356c0-12.581 4.544-31.978 11.533-49.627 4.544-11.533 12.407-25.338 15.203-26.386.7-.35 1.223-1.573 1.223-2.621 0-2.447 25.688-30.93 27.96-30.93.698 0 3.844-2.272 6.99-5.243 3.145-2.795 6.64-5.242 8.037-5.242s2.447-.699 2.447-1.573c0-4.892 48.404-22.891 61.86-22.891 10.833 0 7.688 4.543-5.418 7.863-25.163 6.291-45.783 15.727-62.034 28.309-9.786 7.514-34.949 33.726-36.172 37.745-.35 1.223-2.796 5.766-5.592 10.135-6.29 9.96-16.426 39.667-17.998 52.423-2.097 15.727-2.971 19.047-5.592 19.047-1.922 0-2.447-2.621-2.447-11.009m176.492-139.27c-2.447-.7-10.485-1.05-17.824-.525-12.931 1.049-13.63.874-13.63-2.621 0-3.145 1.398-3.67 12.756-4.718 7.165-.7 15.902-.35 20.445.699 12.582 2.97 12.757 2.796 17.3-9.786 10.135-28.134 25.862-55.044 43.511-74.091 7.165-7.514 14.154-13.805 15.727-13.805 1.748 0 3.845-1.748 4.718-3.844 1.049-2.097 3.32-4.544 5.243-5.592s4.193-2.97 4.892-4.02c.7-1.223 2.447-2.271 3.67-2.271 1.398 0 2.796-1.049 3.32-2.272.35-1.223 3.845-3.67 7.514-5.592 3.845-1.922 7.165-4.019 7.689-4.543 1.922-2.446 21.144-11.183 34.6-15.727 8.037-2.796 22.89-6.64 33.026-8.737 16.251-3.32 22.018-3.67 49.278-2.796 26.735.874 33.026 1.573 49.103 6.116 18.872 5.068 43.86 14.853 47.705 18.523 1.223 1.048 5.067 2.97 8.737 4.194 11.883 4.194 22.891-4.194 20.97-16.077-.525-3.495-1.748-6.29-2.622-6.29s-4.543-2.447-8.213-5.243c-9.261-7.514-38.269-19.92-61.684-26.211-30.58-8.563-31.28-8.738-42.813-8.738-10.135 0-11.009-.349-11.009-3.67 0-3.669.35-3.844 16.426-2.62 17.125 1.223 20.795 2.097 56.967 13.455 30.58 9.786 46.132 17.824 54.52 28.308 8.912 11.359 9.261 20.096 1.048 27.785-10.834 9.96-17.998 10.31-35.822 1.572-17.3-8.562-30.406-13.63-48.579-18.697-16.426-4.718-19.571-5.068-51.55-5.068-36.52 0-42.113.874-69.023 9.96-31.28 10.835-53.996 24.99-79.684 50.327-23.59 23.24-42.812 53.821-52.947 85.275l-3.145 9.087-8.039-.175c-4.543-.175-10.135-.874-12.581-1.573" style="--darkreader-inline-fill:#8f6015"/><path fill="#99632B" d="M740.041 942.395c-43.337-2.622-78.984-7.34-114.457-15.203-38.444-8.213-94.886-28.833-110.963-40.54-2.796-1.923-9.087-5.767-13.98-8.214-11.183-5.592-38.793-31.628-48.753-45.608-10.135-14.154-18.872-31.803-24.639-49.977-4.718-14.678-4.893-15.727-5.592-70.422-.699-38.269-.35-57.84 1.049-63.432 1.048-4.194 3.495-16.95 5.417-28.308 5.766-32.852 17.999-79.509 29.007-109.565 18.873-51.2 38.794-94.886 57.666-126.864 33.9-57.316 71.12-98.73 116.03-129.136 23.59-15.901 26.561-19.047 29.357-30.58 3.67-14.504 12.931-26.037 25.338-32.153 25.512-12.057 62.733-22.717 83.353-23.94 15.377-.873 45.258-.699 60.461.175 50.501 3.32 113.234 23.24 158.318 50.152 23.066 13.804 21.843 12.93 62.559 44.035 8.562 6.466 11.358 5.417 27.085-9.786 27.61-26.386 75.839-48.753 106.07-48.928 21.318 0 30.58 3.145 42.462 14.853 21.32 21.144 34.075 48.754 34.075 73.917 0 10.66-.524 12.756-4.019 16.076-5.242 4.893-9.436 4.893-29.531-.349-30.58-8.038-51.725-7.514-69.723 1.573-11.359 5.591-30.58 20.095-33.202 24.813-2.446 4.369-1.922 5.417 14.679 32.503 6.465 10.31 11.708 19.222 11.708 19.571s2.271 4.543 4.893 9.087c10.834 18.523 26.211 57.84 33.55 85.45 13.805 52.947 15.902 113.583 5.942 170.2-6.99 39.143-23.59 87.372-41.59 120.574-10.31 19.221-15.901 25.687-28.483 31.803-11.009 5.417-11.183 5.417-25.163 3.495-17.3-2.447-19.396-1.573-34.6 14.678-44.21 47.181-88.245 73.218-170.025 100.303-31.978 10.66-39.317 12.582-64.655 15.727-26.387 3.495-69.024 5.417-89.644 4.02m59.413-10.136c12.581-1.048 36.172-4.543 53.297-8.038 10.31-2.097 71.12-21.668 74.091-24.115 1.049-.698 5.942-2.795 10.66-4.543 14.678-5.417 43.161-19.571 54.87-27.435 6.115-4.194 13.63-9.086 16.775-11.009 10.135-6.29 25.862-20.445 45.783-40.715l19.571-20.095 18.698 1.048c17.125 1.048 19.396.874 26.386-2.621 9.96-4.893 16.076-12.756 26.91-34.075 26.911-52.948 45.26-125.292 45.26-178.763 0-30.755-5.942-74.966-13.456-101.002-3.844-13.805-4.02-10.31-.35 7.514 5.068 23.94 7.864 86.498 5.243 116.729-3.146 35.997-13.455 80.731-23.59 102.574-2.447 5.243-4.544 10.485-4.544 11.708 0 3.32-14.154 33.726-21.843 46.657-3.844 6.465-8.912 13.28-11.358 15.028-8.912 6.29-30.231 9.261-34.6 4.893-2.446-2.447-2.796-19.921-.35-21.494 2.098-1.398 2.273-32.153.176-41.938-4.718-21.843-12.058-41.764-30.056-81.082-10.31-22.542-40.716-75.14-47.007-81.08l-3.844-3.845 3.844 7.863c2.097 4.369 5.592 10.31 7.69 13.106 5.416 7.34 35.123 63.083 39.666 74.441 19.571 48.928 23.765 67.626 21.843 97.507-1.048 19.397-4.543 29.532-13.98 42.113-6.99 9.262-40.19 42.463-50.5 50.501-14.33 10.835-53.996 33.551-68.15 38.968-5.068 1.923-11.883 4.893-15.378 6.64s-12.232 4.893-19.222 6.99c-7.164 2.097-18.523 5.592-25.338 7.864-18.173 5.941-67.8 14.504-95.934 16.6-90.692 6.64-168.978-4.019-248.486-34.075-20.27-7.688-22.717-6.465-4.02 2.097 28.659 12.931 44.735 18.349 89.12 30.231 17.3 4.718 67.626 11.883 96.11 13.98 45.782 3.32 46.83 3.32 76.013.873M514.62 872.672c-5.417-4.194-17.125-9.96-15.727-7.864 1.049 1.748 16.251 10.485 18.348 10.485.525 0-.699-1.223-2.62-2.621m-.874-20.795c0-2.446-8.562-10.135-13.63-12.232-11.533-4.893-38.793-36.172-38.793-44.56 0-1.398 1.223-.524 2.97 1.748 6.117 9.261 11.709 13.98 16.602 13.98 5.067 0 17.124-9.087 17.124-13.107 0-1.223 1.748-2.62 4.02-3.32 2.271-.524 8.213-5.766 13.28-11.358 6.466-7.514 11.009-11.184 15.902-12.582 3.844-1.223 8.213-4.019 9.61-6.116 8.913-13.63 18.174-19.396 23.067-14.503 2.446 2.446 11.009-2.272 11.009-6.116 0-4.02 8.388-10.31 28.134-20.97 6.815-3.67 12.057-5.417 19.571-6.116.699-.174 1.223-1.922 1.223-4.194 0-6.116 13.805-20.445 19.572-20.445 2.62 0 5.242.874 5.94 1.923.7 1.223 3.496-.525 7.515-4.37 3.495-3.32 9.086-7.164 12.407-8.212s10.31-6.29 15.202-11.358c6.116-6.291 10.66-9.437 13.456-9.437 2.446 0 6.116-2.271 9.261-5.591 8.213-9.262 18.523-15.727 23.94-14.679 4.02.7 6.64-.874 15.902-9.436 11.009-10.31 19.396-15.727 24.29-15.727 5.067 0 16.775-5.592 16.775-8.038 0-1.223 4.368-5.767 9.785-10.135 7.34-6.116 11.184-8.039 15.902-8.039 3.67 0 8.737-1.922 13.28-5.067 4.02-2.621 8.563-5.243 9.96-5.767 1.399-.35 6.117-5.417 10.486-11.183 6.116-7.69 9.785-10.66 14.678-12.058 3.67-1.048 7.864-3.67 9.436-5.766 5.068-6.466 20.096-16.077 25.338-16.077 6.29 0 10.66-2.271 20.27-10.66 4.02-3.669 8.039-6.64 8.738-6.465 3.145.874 8.562-2.62 10.31-6.64 2.97-6.29 2.62-10.135-1.398-13.805-1.923-1.747-3.495-4.194-3.495-5.591 0-1.224-1.398-4.544-2.971-7.165l-2.97-4.718 4.717 4.194c2.622 2.446 4.719 5.067 4.719 6.116s5.067 8.038 11.358 15.377c12.581 15.028 27.26 35.124 31.978 43.861 1.573 2.97 5.592 9.261 8.737 13.805 2.97 4.543 5.592 8.912 5.592 9.785s1.223 2.622 2.621 3.845c5.068 4.194 2.97-5.242-3.844-16.426-13.805-22.717-54.87-83.877-65.53-97.333-2.62-3.32-9.435-12.232-15.202-19.92-41.414-55.394-71.994-89.295-128.262-142.766-46.831-44.21-68.15-58.015-90.343-58.015-14.503 0-26.56 5.417-55.219 24.813C564.074 314.365 512.175 393 469.537 518.99c-22.891 67.276-30.755 109.39-32.153 171.424-.873 38.793-.174 49.452 5.417 80.557 5.243 29.007 30.93 63.432 57.491 76.712 8.737 4.544 13.455 5.942 13.455 4.194m490.332-300.91c-1.398-2.795-3.844-6.465-5.417-8.387-2.796-3.32-2.97-3.32-.524.874 1.398 2.446 3.495 6.116 4.718 8.388 1.048 2.097 2.446 3.844 2.97 3.844.35 0-.349-2.097-1.747-4.718m-35.997-54.694c-2.097-2.796-4.194-5.242-4.543-5.242-.525 0 .699 2.446 2.795 5.242 2.097 2.97 4.194 5.242 4.544 5.242.524 0-.7-2.271-2.796-5.242m145.911-167.055c1.398-6.116 29.881-26.736 43.686-31.629 13.455-4.718 52.598-4.194 72.868 1.049 8.563 2.096 16.077 3.32 17.125 2.795 2.097-1.223 2.272-20.62.35-27.085-.874-3.145-1.398-.699-2.097 8.737-.874 12.757-1.049 13.106-5.767 13.63-2.796.35-12.93-1.572-22.716-4.193-14.679-4.02-21.494-4.893-38.095-5.068-17.124 0-20.969.524-23.765 3.145-1.922 1.573-4.543 2.971-5.941 2.971s-11.009 6.465-21.494 14.504c-10.484 7.863-20.445 15.028-22.017 15.901-2.796 1.573-2.621 2.272 1.572 8.213 3.146 4.544 4.718 5.592 5.068 3.495.175-1.572.874-4.543 1.223-6.465" style="--darkreader-inline-fill:#7a4f22"/><path fill="#99632B" d="M244.642 920.202c-72.869-15.028-133.68-56.617-171.948-117.253-23.416-37.22-35.648-73.218-36.172-105.72 0-8.039-.525-10.31-1.573-7.864-.874 2.097-1.573-8.213-1.573-26.736-.175-16.6.524-31.454 1.398-33.201.874-1.573 2.446-9.96 3.32-18.698 4.718-42.462 33.551-96.808 70.772-133.504 17.823-17.474 43.336-36.347 63.432-46.657 9.261-4.718 17.474-9.436 18.348-10.484.699-1.049 3.495-11.359 5.766-22.892 11.708-57.665 54.87-111.137 108.691-134.727 25.862-11.359 41.24-15.378 67.451-17.475l14.504-1.223 8.737-17.474c4.893-9.611 11.533-21.32 14.853-26.037s8.388-11.708 11.184-15.727c7.165-10.135 33.201-36.697 45.608-46.307 20.97-16.252 41.24-27.785 66.228-37.745 10.66-4.194 21.669-7.34 52.598-15.028 9.262-2.447 69.723-2.447 78.635-.175 47.18 12.232 77.062 23.765 89.818 34.774 13.805 11.708 15.203 24.464 3.845 33.726-8.912 7.514-17.475 7.164-34.774-1.398-33.202-16.426-58.19-23.066-92.265-24.29-20.795-.873-27.435-.35-43.162 2.796-49.103 10.135-81.955 27.96-117.428 63.957-20.62 20.794-38.444 51.025-47.53 79.858-3.495 11.358-2.97 11.008-20.62 7.688-15.902-3.145-36.871-1.048-62.034 6.291-28.658 8.213-44.91 17.999-66.752 40.017-27.785 27.959-42.638 60.46-44.91 98.38l-1.048 19.048-22.717 9.96c-24.639 10.66-27.085 12.057-45.433 25.513-26.212 19.396-48.404 44.909-64.131 74.091-10.66 19.397-14.33 29.008-20.97 54.695-5.067 19.746-5.591 23.416-5.591 51.025-.175 19.222.699 33.376 2.271 40.191 4.718 21.144 9.087 36.871 11.883 43.686 7.514 18.174 9.96 23.066 13.63 27.96 2.097 2.97 5.068 7.688 6.64 10.659 6.466 12.581 30.93 39.492 49.278 54.345 21.668 17.475 56.442 34.949 82.13 41.414 28.308 7.165 41.589 7.864 144.164 7.165 107.991-.699 107.467-.699 112.535 9.436 4.543 8.737 3.67 15.378-3.146 22.193l-5.941 5.94-109.914-.174c-105.37-.35-110.438-.35-128.087-4.019" style="--darkreader-inline-fill:#7a4f22"/><path fill="#050506" d="M753.147 939.074c-58.19-3.67-106.07-9.785-131.058-16.426-45.958-12.232-66.927-19.396-90.343-31.104-43.162-21.493-62.733-37.745-83.003-68.5-10.66-16.426-18.174-33.725-20.62-47.705-.874-4.893-2.447-13.98-3.495-19.746-1.048-5.941-1.922-29.182-1.747-51.724 0-48.055 3.844-77.936 15.727-124.593 12.93-49.976 20.794-72.868 43.161-125.64 38.094-89.819 89.12-156.92 150.455-197.636 12.93-8.562 24.464-17.125 25.862-19.047 1.223-2.097 3.844-8.912 5.767-15.203 5.94-18.872 11.882-24.29 37.57-33.725 11.882-4.369 31.453-10.31 43.336-13.106 20.97-5.243 22.542-5.243 58.19-4.893 46.656.699 64.13 3.495 107.467 16.775 25.862 7.864 57.316 21.843 78.286 34.425 18.523 11.184 45.258 29.881 53.646 37.57 7.864 7.164 13.28 10.31 17.475 10.31 1.572 0 8.562-5.417 15.726-12.232 14.679-13.98 30.58-24.64 51.55-34.6 27.435-13.105 35.124-15.202 58.54-15.202 24.463 0 27.784 1.398 42.637 17.649 16.6 18.173 25.338 38.269 27.085 62.908.874 12.406.7 14.853-2.272 18.348l-3.32 4.019-20.445-5.068c-35.997-8.912-63.607-6.99-82.13 5.767-15.552 10.66-27.085 20.095-27.959 23.066-1.223 3.844 2.971 14.33 8.563 21.668 2.272 2.971 7.514 11.359 11.883 18.523 58.888 99.08 73.043 213.363 39.666 321.53-9.436 30.23-16.775 49.102-27.61 70.421s-16.95 29.182-26.735 33.9c-8.737 4.369-16.426 5.068-33.376 3.146l-12.057-1.398-19.397 20.095c-19.92 20.27-35.648 34.425-45.783 40.716-3.145 1.922-10.66 6.815-16.775 11.009-11.708 7.863-40.191 22.017-54.87 27.434-4.718 1.748-9.61 3.845-10.485 4.544-2.097 1.573-55.918 19.746-67.276 22.542-7.34 1.922-24.639 4.893-50.676 8.562-13.805 1.922-47.88 3.495-61.16 2.621m32.327-25.163c28.134-2.097 77.761-10.66 95.935-16.6 6.815-2.272 18.173-5.767 25.338-7.864 6.99-2.097 15.727-5.242 19.222-6.99s10.31-4.718 15.377-6.64c14.154-5.417 53.821-28.134 68.15-38.968 10.31-8.038 43.512-41.24 50.501-50.5 8.038-10.66 12.582-22.892 13.805-36.872 2.097-23.765-2.796-45.084-21.843-92.265-4.543-11.358-31.28-62.209-39.317-74.44-3.146-4.719-8.738-14.155-12.232-20.795-10.66-19.572-47.53-73.917-70.597-103.973-2.446-3.145-6.815-9.087-9.786-13.106-26.56-37.395-66.577-83.003-114.282-130.01-49.453-49.102-73.043-68.324-92.615-76.013-21.493-8.388-32.677-6.465-60.112 10.135-40.89 24.989-67.101 48.404-96.808 86.499-23.24 30.056-54.87 84.4-65.878 113.583-2.272 6.29-6.466 16.077-8.912 21.843C462.897 512 442.8 582.247 436.16 628.205c-8.038 56.966-8.213 94.187-.175 140.144 8.039 46.482 52.074 89.47 115.506 113.06 75.84 27.959 151.328 38.444 233.982 32.502m327.296-135.776c3.145-1.573 8.038-6.116 10.834-10.135 7.864-11.358 26.212-49.103 26.212-53.996 0-1.048 2.097-6.29 4.543-11.533 9.087-19.571 18.698-58.714 22.717-92.614 2.97-25.862 1.922-77.237-2.097-103.1-5.417-34.25-19.397-76.537-36.522-110.962-14.853-29.532-17.3-33.376-38.269-61.16-8.737-11.533-37.395-44.56-49.802-57.316-20.794-21.494-66.577-53.472-98.031-68.325-23.066-10.834-58.714-22.717-84.75-28.309-36.697-7.688-78.81-8.387-110.963-1.747-25.164 5.242-55.569 13.98-65.18 18.697-13.28 6.64-22.192 17.475-22.192 26.911 0 5.242-.35 5.068 8.038 1.573 19.222-8.038 52.947 3.844 82.13 29.007 4.019 3.32 12.232 10.485 18.348 15.727 55.219 47.705 108.166 104.672 158.492 170.376 30.231 39.667 41.94 56.267 64.481 91.39 5.941 9.262 12.582 19.223 14.853 22.019 8.213 10.31 37.57 61.859 46.657 81.605 17.999 39.317 25.338 59.238 30.056 81.081 2.097 9.96 1.922 51.025-.175 52.423-2.446 1.573-2.097 8.563.524 11.184 2.447 2.446 11.359 1.223 20.096-2.796m-9.261-460.276c2.096-3.32 38.443-29.531 40.89-29.531 1.398 0 4.019-1.398 5.94-2.971 2.972-2.796 6.99-3.145 29.882-2.97 22.717.174 28.483.698 42.113 4.717 8.563 2.447 16.252 4.02 16.95 3.495 4.194-2.446-1.397-32.153-8.737-47.355-5.417-11.533-17.649-25.338-24.813-28.309-8.213-3.32-34.6-1.048-51.55 4.369-14.503 4.718-40.89 17.998-53.996 26.91-11.008 7.69-35.997 32.328-35.997 35.823 0 3.844 31.629 37.57 35.298 37.745 1.573 0 3.495-.874 4.02-1.923" style="--darkreader-inline-fill:#040405"/></svg>