<svg xmlns="http://www.w3.org/2000/svg" viewBox="0 0 261.82 82.2"><defs><style>.cls-1{fill:#1a1e20;}</style></defs><g id="Wortmarke"><g id="JOYclub"><path class="cls-1" d="M180.46,36.22h-6.74c-4.37,0-7.37,1.31-7.37,7.34v1.53c0,6.81,4.18,7.55,8.15,7.55h6.12c3.44,0,7-1.21,7-5.49V45.74h-5.81v.38c0,1.46-1.53,1.84-3.22,1.84h-3.06c-1.87,0-3.19-.62-3.19-2.69V43.15c0-1.75,1.19-2.44,3.69-2.44h2.31c2.62,0,3.47.6,3.47,2.22h5.81V41.5C187.62,37.84,184.9,36.22,180.46,36.22Z"/><rect class="cls-1" x="190.33" y="29.79" width="6" height="22.61"/><path class="cls-1" d="M214.37,44.49c0,2.28-1.53,3.47-4.1,3.47H208.9c-2.62,0-3.87-.78-3.87-2.34V36.47h-6v9.15c0,6.87,5.19,7,8.9,7,3.22,0,5.31-.59,6.37-2.81h.07v2.56h6V36.47h-6Z"/><path class="cls-1" d="M236.28,36.22H234.5c-2.47,0-5,.68-5.37,3.18h-.06V29.79h-6v22.6h5.62V49.46h.07c.65,2,2.15,3.18,5.77,3.18h1.75c7.59,0,8.53-2.71,8.53-6.77V43C244.81,38.93,243.87,36.22,236.28,36.22ZM239,45.37c0,1.78-.28,2.78-3.16,2.78h-3.52c-2.38,0-3.63-.53-3.63-2.94V43.65c0-2.4,1.25-2.94,3.63-2.94h3.52c2.88,0,3.16,1,3.16,2.78Z"/><path class="cls-1" d="M104,44.64c0,2.1-1.34,2.38-3.62,2.38H97.65c-2.16,0-3-.69-3-2.38v-2H87.88v2.71c0,5.28,2.37,7.28,8.86,7.28h4.53c6.28,0,9.68-1.22,9.68-7.43V29.78H104Z"/><polygon class="cls-1" points="163.06 29.79 155.44 39.03 147.82 29.79 139.46 29.79 151.98 44.52 151.98 52.39 158.91 52.39 158.91 44.52 171.43 29.79 163.06 29.79"/><path class="cls-1" d="M136.28,30.24a2,2,0,0,0-1.54-.71H123.63c-6.25,0-10,1.56-10,8.18v6.75c0,6.62,3.72,8.18,10,8.18h11.11c6.25,0,10-1.56,10-8.18V41.8a4.44,4.44,0,0,0-1.06-2.89Zm1.31,12.06a4.53,4.53,0,0,1-4.53,4.53h-8.31a4,4,0,0,1-4-4v-3c0-2.81.69-4.53,4.34-4.53h8.12c3.66,0,4.35,1.72,4.35,4.53Z"/></g></g><g id="Bildmarke"><rect class="cls-1" x="25.51" y="17.01" width="5.67" height="5.67" transform="translate(48.19 -8.5) rotate(90)"/><rect class="cls-1" x="34.02" y="17.01" width="5.67" height="5.67" transform="translate(56.69 -17.01) rotate(90)"/><rect class="cls-1" x="51.02" y="17.01" width="5.67" height="5.67" transform="translate(73.7 -34.02) rotate(90)"/><rect class="cls-1" x="59.53" y="17.01" width="5.67" height="5.67" transform="translate(82.2 -42.52) rotate(90)"/><rect class="cls-1" x="17.01" y="25.51" width="5.67" height="5.67" transform="translate(48.19 8.5) rotate(90)"/><rect class="cls-1" x="25.51" y="25.51" width="5.67" height="5.67" transform="translate(56.69 0) rotate(90)"/><rect class="cls-1" x="34.02" y="25.51" width="5.67" height="5.67" transform="translate(65.2 -8.5) rotate(90)"/><rect class="cls-1" x="42.52" y="25.51" width="5.67" height="5.67" transform="translate(73.7 -17.01) rotate(90)"/><rect class="cls-1" x="51.02" y="25.51" width="5.67" height="5.67" transform="translate(82.2 -25.51) rotate(90)"/><rect class="cls-1" x="59.53" y="25.51" width="5.67" height="5.67" transform="translate(90.71 -34.02) rotate(90)"/><rect class="cls-1" x="68.03" y="25.51" width="5.67" height="5.67" transform="translate(99.21 -42.52) rotate(90)"/><rect class="cls-1" x="17.01" y="34.02" width="5.67" height="5.67" transform="translate(56.69 17.01) rotate(90)"/><rect class="cls-1" x="25.51" y="34.02" width="5.67" height="5.67" transform="translate(65.2 8.5) rotate(90)"/><rect class="cls-1" x="34.02" y="34.02" width="5.67" height="5.67" transform="translate(73.7 0) rotate(90)"/><rect class="cls-1" x="42.52" y="34.02" width="5.67" height="5.67" transform="translate(82.2 -8.5) rotate(90)"/><rect class="cls-1" x="51.02" y="34.02" width="5.67" height="5.67" transform="translate(90.71 -17.01) rotate(90)"/><rect class="cls-1" x="59.53" y="34.02" width="5.67" height="5.67" transform="translate(99.21 -25.51) rotate(90)"/><rect class="cls-1" x="68.03" y="34.02" width="5.67" height="5.67" transform="translate(107.72 -34.02) rotate(90)"/><rect class="cls-1" x="25.51" y="42.52" width="5.67" height="5.67" transform="translate(73.7 17.01) rotate(90)"/><rect class="cls-1" x="34.02" y="42.52" width="5.67" height="5.67" transform="translate(82.2 8.5) rotate(90)"/><rect class="cls-1" x="42.52" y="42.52" width="5.67" height="5.67" transform="translate(90.71 0) rotate(90)"/><rect class="cls-1" x="51.02" y="42.52" width="5.67" height="5.67" transform="translate(99.21 -8.5) rotate(90)"/><rect class="cls-1" x="59.53" y="42.52" width="5.67" height="5.67" transform="translate(107.72 -17.01) rotate(90)"/><rect class="cls-1" x="34.02" y="51.02" width="5.67" height="5.67" transform="translate(90.71 17.01) rotate(90)"/><rect class="cls-1" x="42.52" y="51.02" width="5.67" height="5.67" transform="translate(99.21 8.5) rotate(90)"/><rect class="cls-1" x="51.02" y="51.02" width="5.67" height="5.67" transform="translate(107.72 0) rotate(90)"/><rect class="cls-1" x="42.52" y="59.53" width="5.67" height="5.67" transform="translate(107.72 17.01) rotate(90)"/></g></svg>