<svg version="1.1" id="Layer_1" xmlns="http://www.w3.org/2000/svg" xmlns:xlink="http://www.w3.org/1999/xlink" x="0px" y="0px"
	 width="100%" viewBox="0 0 512 512" enable-background="new 0 0 512 512" xml:space="preserve">
<path fill="#000000" opacity="1.000000" stroke="none" 
	d="
M0.999998,290.000000 
	C1.000000,193.704651 1.000000,97.409286 1.000000,1.056966 
	C171.561386,1.056966 342.122803,1.056966 513.000000,1.056966 
	C513.000000,99.022415 513.000000,197.045181 512.635864,295.501556 
	C511.278381,293.382843 510.330627,290.811646 509.283722,288.281433 
	C504.475067,276.659637 497.726227,266.314423 487.938477,258.342529 
	C478.785675,250.887817 468.592346,244.863739 456.786438,243.013885 
	C447.848907,241.613480 438.688538,241.635223 430.002014,241.049347 
	C428.607513,235.609955 427.557037,230.442078 425.948273,225.454269 
	C422.302155,214.149902 416.833374,203.654007 408.443512,195.261215 
	C401.870819,188.686188 394.552124,182.650391 386.808014,177.516678 
	C380.323181,173.217758 373.021667,169.594666 365.569214,167.470215 
	C358.329712,165.406464 350.435120,165.658279 342.834198,164.837692 
	C338.887726,164.411652 334.348816,164.920258 331.173370,163.097549 
	C327.487610,160.981918 325.118713,156.658569 321.978485,153.491562 
	C305.915527,137.291550 286.189880,129.612335 263.675873,127.425011 
	C250.428070,126.137924 237.862106,128.216431 225.346146,131.739914 
	C210.084152,136.036438 197.849396,145.114746 186.935806,156.332443 
	C179.350739,164.128860 173.156387,172.770432 168.969467,182.828644 
	C166.483002,188.801865 165.271271,196.328384 155.736954,193.941238 
	C155.442261,193.867447 155.075653,194.000305 154.761276,194.097366 
	C143.236588,197.654953 131.243713,199.487000 121.206444,207.460770 
	C112.610916,214.289185 105.092163,221.794922 98.812263,230.704346 
	C98.124245,231.680466 96.546448,232.647919 95.437790,232.587265 
	C92.663612,232.435593 89.919098,231.705231 87.167618,231.181122 
	C77.156494,229.274155 67.102859,230.034317 57.532898,232.787033 
	C40.965298,237.552551 27.174013,246.898758 16.665569,260.808807 
	C10.299666,269.235382 5.408399,278.362183 2.694758,288.617493 
	C2.543838,289.187866 1.583560,289.544098 0.999998,290.000000 
z"/>
<path fill="#000000" opacity="1.000000" stroke="none" 
	d="
M513.000000,332.000000 
	C513.000000,392.303314 513.000000,452.606659 513.000000,512.954956 
	C342.448212,512.954956 171.896393,512.954956 1.000000,512.954956 
	C1.000000,450.979523 1.000000,388.958435 1.382874,326.495728 
	C2.024994,326.249268 2.481985,326.415527 2.515303,326.643616 
	C5.040096,343.929688 16.074678,356.373199 27.684135,367.800873 
	C33.774223,373.795593 42.351871,377.749908 50.441776,381.082825 
	C57.814400,384.120209 66.045471,385.073883 74.375504,386.994751 
	C131.309525,387.029572 187.766205,387.017273 244.222870,387.001251 
	C311.171143,386.982269 378.119385,386.960083 445.457275,386.959900 
	C448.738251,386.346497 451.618469,385.655426 454.522949,385.088837 
	C464.498962,383.142792 473.790070,379.370026 482.036835,373.538055 
	C486.520935,370.366913 490.081726,365.921478 494.276917,362.303558 
	C501.619019,355.971771 505.800751,347.724152 509.246979,338.920685 
	C510.196259,336.495667 511.732880,334.300568 513.000000,332.000000 
z"/>
<path fill="#064357" opacity="1.000000" stroke="none" 
	d="
M73.898163,386.946014 
	C66.045471,385.073883 57.814400,384.120209 50.441776,381.082825 
	C42.351871,377.749908 33.774223,373.795593 27.684135,367.800873 
	C16.074678,356.373199 5.040096,343.929688 2.515303,326.643616 
	C2.481985,326.415527 2.024994,326.249268 1.382874,326.027100 
	C1.000000,314.312439 1.000000,302.624878 0.999998,290.468658 
	C1.583560,289.544098 2.543838,289.187866 2.694758,288.617493 
	C5.408399,278.362183 10.299666,269.235382 16.665569,260.808807 
	C27.174013,246.898758 40.965298,237.552551 57.532898,232.787033 
	C67.102859,230.034317 77.156494,229.274155 87.167618,231.181122 
	C89.919098,231.705231 92.663612,232.435593 95.437790,232.587265 
	C96.546448,232.647919 98.124245,231.680466 98.812263,230.704346 
	C105.092163,221.794922 112.610916,214.289185 121.206444,207.460770 
	C131.243713,199.487000 143.236588,197.654953 154.761276,194.097366 
	C155.075653,194.000305 155.442261,193.867447 155.736954,193.941238 
	C165.271271,196.328384 166.483002,188.801865 168.969467,182.828644 
	C173.156387,172.770432 179.350739,164.128860 186.935806,156.332443 
	C197.849396,145.114746 210.084152,136.036438 225.346146,131.739914 
	C237.862106,128.216431 250.428070,126.137924 263.675873,127.425011 
	C286.189880,129.612335 305.915527,137.291550 321.978485,153.491562 
	C325.118713,156.658569 327.487610,160.981918 331.173370,163.097549 
	C334.348816,164.920258 338.887726,164.411652 342.834198,164.837692 
	C350.435120,165.658279 358.329712,165.406464 365.569214,167.470215 
	C373.021667,169.594666 380.323181,173.217758 386.808014,177.516678 
	C394.552124,182.650391 401.870819,188.686188 408.443512,195.261215 
	C416.833374,203.654007 422.302155,214.149902 425.948273,225.454269 
	C427.557037,230.442078 428.607513,235.609955 430.002014,241.049347 
	C438.688538,241.635223 447.848907,241.613480 456.786438,243.013885 
	C468.592346,244.863739 478.785675,250.887817 487.938477,258.342529 
	C497.726227,266.314423 504.475067,276.659637 509.283722,288.281433 
	C510.330627,290.811646 511.278381,293.382843 512.635864,295.967590 
	C513.000000,307.687561 513.000000,319.375122 513.000000,331.531342 
	C511.732880,334.300568 510.196259,336.495667 509.246979,338.920685 
	C505.800751,347.724152 501.619019,355.971771 494.276917,362.303558 
	C490.081726,365.921478 486.520935,370.366913 482.036835,373.538055 
	C473.790070,379.370026 464.498962,383.142792 454.522949,385.088837 
	C451.618469,385.655426 448.738251,386.346497 445.231323,386.578064 
	C443.143585,386.007080 441.671417,385.691315 440.199188,385.691010 
	C319.568237,385.667480 198.937271,385.663910 78.306328,385.720612 
	C76.836746,385.721313 75.367538,386.519867 73.898163,386.946014 
M17.775536,295.461395 
	C9.697906,333.049530 39.382282,370.113647 77.758560,370.130005 
	C199.216797,370.181793 320.675079,370.150757 442.133331,370.140961 
	C444.129578,370.140778 446.145050,370.157013 448.119232,369.908722 
	C477.903107,366.163239 499.660706,338.764832 497.121216,308.255493 
	C494.658905,278.673462 468.275482,255.231964 438.584442,257.040070 
	C430.133911,257.554657 421.820618,260.322144 413.439148,262.057617 
	C413.473480,262.419067 413.337769,261.928314 413.395203,261.461304 
	C419.338470,213.126175 377.014435,172.830414 329.011261,181.353073 
	C325.475006,181.980896 324.106354,180.952454 322.268951,178.370636 
	C303.936096,152.609985 278.749969,140.085510 247.402802,143.481613 
	C215.774750,146.908157 193.979568,164.927612 181.810181,194.294006 
	C179.612213,199.597961 178.380707,205.302429 176.709549,210.800461 
	C142.792862,207.183228 119.284805,221.379547 105.802086,252.387421 
	C66.858246,234.486710 25.519962,259.138275 17.775536,295.461395 
z"/>
<path fill="#7D9DA9" opacity="1.000000" stroke="none" 
	d="
M74.375504,386.994751 
	C75.367538,386.519867 76.836746,385.721313 78.306328,385.720612 
	C198.937271,385.663910 319.568237,385.667480 440.199188,385.691010 
	C441.671417,385.691315 443.143585,386.007080 444.841736,386.557434 
	C378.119385,386.960083 311.171143,386.982269 244.222870,387.001251 
	C187.766205,387.017273 131.309525,387.029572 74.375504,386.994751 
z"/>
<path fill="#F6F8F9" opacity="1.000000" stroke="none" 
	d="
M17.853920,295.044556 
	C25.519962,259.138275 66.858246,234.486710 105.802086,252.387421 
	C119.284805,221.379547 142.792862,207.183228 176.709549,210.800461 
	C178.380707,205.302429 179.612213,199.597961 181.810181,194.294006 
	C193.979568,164.927612 215.774750,146.908157 247.402802,143.481613 
	C278.749969,140.085510 303.936096,152.609985 322.268951,178.370636 
	C324.106354,180.952454 325.475006,181.980896 329.011261,181.353073 
	C377.014435,172.830414 419.338470,213.126175 413.395203,261.461304 
	C413.337769,261.928314 413.473480,262.419067 413.439148,262.057617 
	C421.820618,260.322144 430.133911,257.554657 438.584442,257.040070 
	C468.275482,255.231964 494.658905,278.673462 497.121216,308.255493 
	C499.660706,338.764832 477.903107,366.163239 448.119232,369.908722 
	C446.145050,370.157013 444.129578,370.140778 442.133331,370.140961 
	C320.675079,370.150757 199.216797,370.181793 77.758560,370.130005 
	C39.382282,370.113647 9.697906,333.049530 17.853920,295.044556 
M394.037170,214.529556 
	C370.791687,184.399902 328.573914,179.223557 300.085205,202.719604 
	C271.599426,226.213226 265.519806,275.588776 303.254181,305.613831 
	C274.461365,316.376831 252.624939,334.907867 237.820953,362.145569 
	C307.277283,362.145569 376.029449,362.145569 445.826569,362.145569 
	C430.870300,334.117126 407.749237,317.225983 380.096436,305.471741 
	C413.631073,278.183563 410.978149,236.859665 394.037170,214.529556 
M202.807312,309.317902 
	C215.610046,295.827972 220.701172,279.760834 217.465591,261.560211 
	C213.403198,238.708710 194.385956,221.099304 171.635513,218.146790 
	C148.949951,215.202698 126.308289,227.420761 116.414474,247.945602 
	C106.309906,268.907654 110.690002,293.626526 127.438423,310.078217 
	C129.180176,311.789093 130.984360,313.436401 133.031876,315.370422 
	C109.049049,324.428558 91.063004,339.631714 78.601883,362.483215 
	C129.571777,362.483215 179.494064,362.483215 228.656250,362.483215 
	C232.188461,356.408783 235.485245,350.739227 238.886215,344.890472 
	C227.562515,331.275726 213.322678,321.667206 196.279465,315.320984 
	C198.654221,313.152771 200.477432,311.488098 202.807312,309.317902 
M211.998779,232.493805 
	C220.299011,242.555954 224.997253,254.089951 225.894165,267.099182 
	C227.084259,284.360687 221.540527,299.431549 211.082901,311.742004 
	C222.445572,320.492065 233.551651,329.044525 244.888824,337.774963 
	C256.576813,323.201447 271.546356,311.584869 289.265839,303.082092 
	C272.281311,283.373932 265.183136,261.243134 271.112335,236.067688 
	C277.062805,210.802002 293.384613,194.061600 317.271301,184.072922 
	C302.940247,163.356323 283.844116,152.446701 259.253265,150.780136 
	C224.317429,148.412460 190.464706,175.164841 185.090942,209.596069 
	C184.662888,212.338699 185.185669,213.734695 187.942291,214.826309 
	C197.233353,218.505554 205.105423,224.272430 211.998779,232.493805 
M50.700909,354.929230 
	C57.191097,357.575226 63.681286,360.221191 69.699333,362.674683 
	C81.309998,339.951752 97.470284,323.817291 119.206291,312.871429 
	C106.964272,298.031097 101.480049,281.522888 103.839142,262.596802 
	C103.983978,261.434906 102.399017,259.436523 101.134880,258.820404 
	C92.726006,254.722015 83.759850,253.326569 74.452980,254.080109 
	C51.233711,255.960068 31.625757,272.240417 25.850958,294.421814 
	C19.880909,317.353180 29.191460,340.465271 50.700909,354.929230 
M456.811096,359.886658 
	C480.123840,350.567230 492.747955,329.206757 489.059875,305.320709 
	C483.722961,270.756012 442.266144,252.791367 413.470367,272.591827 
	C412.272064,273.415802 410.987610,274.421021 410.314667,275.653717 
	C405.279175,284.877960 400.387695,294.180817 395.302856,303.737701 
	C394.846100,303.460205 395.367981,303.825928 395.930328,304.111938 
	C420.471680,316.594299 439.922974,334.305237 452.634430,359.029755 
	C453.015228,359.770447 454.847137,359.765137 456.811096,359.886658 
z"/>
<path fill="#023F54" opacity="1.000000" stroke="none" 
	d="
M394.255371,214.813690 
	C410.978149,236.859665 413.631073,278.183563 380.096436,305.471741 
	C407.749237,317.225983 430.870300,334.117126 445.826569,362.145569 
	C376.029449,362.145569 307.277283,362.145569 237.820953,362.145569 
	C252.624939,334.907867 274.461365,316.376831 303.254181,305.613831 
	C265.519806,275.588776 271.599426,226.213226 300.085205,202.719604 
	C328.573914,179.223557 370.791687,184.399902 394.255371,214.813690 
z"/>
<path fill="#024054" opacity="1.000000" stroke="none" 
	d="
M202.553986,309.570679 
	C200.477432,311.488098 198.654221,313.152771 196.279465,315.320984 
	C213.322678,321.667206 227.562515,331.275726 238.886215,344.890472 
	C235.485245,350.739227 232.188461,356.408783 228.656250,362.483215 
	C179.494064,362.483215 129.571777,362.483215 78.601883,362.483215 
	C91.063004,339.631714 109.049049,324.428558 133.031876,315.370422 
	C130.984360,313.436401 129.180176,311.789093 127.438423,310.078217 
	C110.690002,293.626526 106.309906,268.907654 116.414474,247.945602 
	C126.308289,227.420761 148.949951,215.202698 171.635513,218.146790 
	C194.385956,221.099304 213.403198,238.708710 217.465591,261.560211 
	C220.701172,279.760834 215.610046,295.827972 202.553986,309.570679 
z"/>
<path fill="#023F54" opacity="1.000000" stroke="none" 
	d="
M211.771332,232.221848 
	C205.105423,224.272430 197.233353,218.505554 187.942291,214.826309 
	C185.185669,213.734695 184.662888,212.338699 185.090942,209.596069 
	C190.464706,175.164841 224.317429,148.412460 259.253265,150.780136 
	C283.844116,152.446701 302.940247,163.356323 317.271301,184.072922 
	C293.384613,194.061600 277.062805,210.802002 271.112335,236.067688 
	C265.183136,261.243134 272.281311,283.373932 289.265839,303.082092 
	C271.546356,311.584869 256.576813,323.201447 244.888824,337.774963 
	C233.551651,329.044525 222.445572,320.492065 211.082901,311.742004 
	C221.540527,299.431549 227.084259,284.360687 225.894165,267.099182 
	C224.997253,254.089951 220.299011,242.555954 211.771332,232.221848 
z"/>
<path fill="#024054" opacity="1.000000" stroke="none" 
	d="
M50.386993,354.739441 
	C29.191460,340.465271 19.880909,317.353180 25.850958,294.421814 
	C31.625757,272.240417 51.233711,255.960068 74.452980,254.080109 
	C83.759850,253.326569 92.726006,254.722015 101.134880,258.820404 
	C102.399017,259.436523 103.983978,261.434906 103.839142,262.596802 
	C101.480049,281.522888 106.964272,298.031097 119.206291,312.871429 
	C97.470284,323.817291 81.309998,339.951752 69.699333,362.674683 
	C63.681286,360.221191 57.191097,357.575226 50.386993,354.739441 
z"/>
<path fill="#024054" opacity="1.000000" stroke="none" 
	d="
M456.406799,359.997131 
	C454.847137,359.765137 453.015228,359.770447 452.634430,359.029755 
	C439.922974,334.305237 420.471680,316.594299 395.930328,304.111938 
	C395.367981,303.825928 394.846100,303.460205 395.302856,303.737701 
	C400.387695,294.180817 405.279175,284.877960 410.314667,275.653717 
	C410.987610,274.421021 412.272064,273.415802 413.470367,272.591827 
	C442.266144,252.791367 483.722961,270.756012 489.059875,305.320709 
	C492.747955,329.206757 480.123840,350.567230 456.406799,359.997131 
z"/>
</svg>