<svg xmlns="http://www.w3.org/2000/svg" fill="none" viewBox="0 0 512 512"><path fill="#FFB319" d="M410.121 0H101.879C45.612 0 0 45.612 0 101.879v308.242C0 466.388 45.612 512 101.879 512h308.242C466.388 512 512 466.388 512 410.121V101.879C512 45.612 466.388 0 410.121 0Z"/><path fill="#191919" d="M297.731 375.79h-86.412c-23.751 0-27.366-25.472-22.939-35.697 2.111-4.852 6.891-11.875 11.415-17.613a115.97 115.97 0 0 0 56.173 14.447 116.86 116.86 0 0 0 116.726-116.738 116.45 116.45 0 0 0-38.671-86.716l2.681-2.717a29.687 29.687 0 0 1 24.321-8.709l14.046 1.492V66.322H350.52a66.713 66.713 0 0 0-61.862 41.824 116.467 116.467 0 0 0-32.75-4.694 116.877 116.877 0 0 0-82.508 34.23 116.875 116.875 0 0 0-34.23 82.507 116.176 116.176 0 0 0 22.707 69.14l-6.914 5.325a44.682 44.682 0 0 0-3.42 2.924c-23.653 22.051-34.498 50.945-28.3 83.076 3.397 17.601 18.341 35.881 33.552 45.573a68.471 68.471 0 0 0 36.122 10.504l96.881-3.93a31.886 31.886 0 0 1 26.989 14.786l12.663 22.853 60.055-20.075-10.273-22.367a89.673 89.673 0 0 0-81.501-52.208Zm-41.763-211.435a55.894 55.894 0 0 1 55.797 55.798 55.895 55.895 0 0 1-55.797 55.797 55.895 55.895 0 0 1-55.798-55.797 55.894 55.894 0 0 1 55.798-55.798Z"/></svg>