<svg xmlns="http://www.w3.org/2000/svg" fill="none" class="svg-image" style="width:inherit;height:inherit;line-height:inherit;color:inherit" viewBox="0 0 125 24"><path fill="#FF690F" fill-rule="evenodd" d="M0 24h23.936V0H0v24zm25.266 0h23.936V0H25.266v24zm49.202 0H50.532V0h23.936v24zm1.33 0h23.936V0H75.798v24zM125 24h-23.936V0H125v24z" clip-rule="evenodd"/><path fill="#FAFAFC" fill-rule="evenodd" d="M10.287 11.549V6H7.38v12h2.907v-5.548L13.348 18h3.208l-3.33-6 3.33-6h-3.208l-3.061 5.549zm24.785 4.724L34.552 18h-3.104l3.947-12h3.696l3.93 12h-3.194l-.52-1.727h-4.235zm2.117-6.837-1.4 4.48h2.8l-1.4-4.48zM63.98 18h-2.906v-5.29L57.144 6h3.463l1.938 3.688L64.447 6h3.409l-3.876 6.71V18zm21.624-1.727L85.084 18h-3.105l3.948-12h3.696l3.93 12h-3.194l-.52-1.727h-4.235zm2.117-6.837-1.4 4.48h2.8l-1.4-4.48zm23.63 2.113V6h-2.907v12h2.907v-5.548L114.412 18h3.208l-3.33-6 3.33-6h-3.208l-3.061 5.549z" clip-rule="evenodd"/></svg>