<svg xmlns="http://www.w3.org/2000/svg" xml:space="preserve" style="fill-rule:evenodd;clip-rule:evenodd;stroke-linejoin:round;stroke-miterlimit:2" viewBox="0 0 113 113"><circle cx="1198.72" cy="777.527" r="44.914" style="fill:#000811" transform="matrix(.41746 0 0 .41746 -481.674 -230.838)"/><circle cx="1198.72" cy="777.527" r="44.914" style="fill:#000811" transform="matrix(.41746 0 0 .41746 -406.677 -305.838)"/><path d="M955.708 762.285c-20.697 0-37.5-16.803-37.5-37.5s16.803-37.5 37.5-37.5 37.5 16.803 37.5 37.5 16.802 37.5 37.502 37.5c20.69 0 37.5 16.803 37.5 37.5s-16.81 37.5-37.5 37.5c-20.7 0-37.502-16.803-37.502-37.5s-16.803-37.5-37.5-37.5Z" style="fill:#000811" transform="matrix(.5 0 0 .5 -421.611 -306.142)"/></svg>