<svg viewBox="0 0 2200 2200" xmlns="http://www.w3.org/2000/svg"><path d="m2040 1338.2c-14.529-63.713-119.9-247.32-335.38-410.28-39.385-29.931-74.919-54.786-104.5-74.565 43.061-184.31-180.82-406.61-399.27-301.94-156.84-147.55-331.71-207.77-492.57-205.32-425.88 5.9512-754.44 449.67-401.02 873.08.17504.175.35007.35.70016.7001 5.4264 6.4763 11.028 12.953 16.629 19.429 22.931 27.481 38.159 51.81 51.113 94.694l105.38 345.34h-37.284c-34.308 0-62.315 27.831-62.315 62.312h141.44l237.71 112.37c14.704-31.156 1.4004-68.264-29.582-82.792l-62.315-29.406h179.24c0-34.307-27.832-62.313-62.315-62.313h-162.44c-28.357 0-53.563-18.554-61.79-45.684l-83.496-274.28c-20.83-72.115 26.957-119.2 71.943-124.8 40.96-5.0762 61.615 21.354 80.87 85.417l74.218 243.3h-37.284c-34.308 0-62.315 27.831-62.315 62.313h141.44l237.71 112.37c14.704-31.156 1.4004-68.264-29.582-82.792l-62.315-29.406h131.46c13.303 22.58 29.582 43.934 49.012 63.188 122.53 122.52 321.55 122.52 444.08 0s122.53-321.54 0-444.06-321.55-122.52-444.08 0c-86.121 86.117-111.85 210.04-76.844 318.56h-148.79c-28.357 0-53.563-18.554-61.79-45.684l-123.23-405.03 21.005-11.202c292.5-122.7 605.3 96.444 823.05-114.12.525-.52506 1.0502-1.0502 1.4003-1.4002 26.957-24.505 53.913-49.535 133.56.35 85.771 53.736 274.99 193.94 360.76 433.74.1752 0 52.163-18.554 37.81-82.092zm-601.8-531.23c-.7001-32.732-27.307-58.987-60.39-58.987-33.258 0-60.39 26.955-60.39 60.387 0 18.204 8.052 34.307 20.655 45.334-43.761-8.4017-76.669-46.559-76.669-92.594 0-52.16 42.186-94.344 94.348-94.344 52.163 0 94.348 42.183 94.348 94.344 0 16.628-4.3761 32.206-11.903 45.859z"/></svg>
