<svg xmlns="http://www.w3.org/2000/svg" fill="none" viewBox="0 0 150 150"><path fill="#C9C8C8" d="M119.75 14.313c16.516 13.783 26.79 30.38 29.938 51.812 1.666 20.66-3.755 40.193-16.786 56.5-12.9 14.925-29.528 24.209-49.152 27.125-19.382 1.292-39.67-2.553-54.957-15.332-3.057-2.686-5.928-5.529-8.793-8.418l-2.246-2.145C5.195 111.052-.286 92.561-.5 75c.254-20.893 8.275-39.283 22.734-54.324C31.444 11.812 42.741 5.578 55 2l2.2-.68c21.396-5.451 45.014-.029 62.55 12.992Zm-95.879 21.23C13.785 49.245 9.49 65.066 11 82c2.69 17.671 10.7 32.767 24.875 43.875 5.439 3.86 10.88 6.8 17.125 9.125l2.395.965c15.173 5.185 33.47 2.964 47.73-3.653 16.055-8.509 27.933-22.217 33.383-39.58 4.409-16.255 2.261-33.547-5.196-48.482-3.375-5.775-7.6-10.531-12.312-15.25l-2.156-2.191C105.436 15.917 90.069 10.992 74.5 10.5c-20.394.665-37.564 9.438-50.629 25.043Z"/><path fill="#E6444B" d="M46 42c4.875 1.875 4.875 1.875 6 3 .157 1.706.25 3.417.316 5.129l.127 3.135.12 3.298.13 3.311c.107 2.709.209 5.418.307 8.127l2.231-2.28c2.736-2.789 5.482-5.57 8.23-8.346a1113.1 1113.1 0 0 0 3.556-3.617c1.7-1.738 3.411-3.465 5.124-5.19l1.594-1.642C78.536 42.122 78.536 42.122 82 42c2.25 1.438 2.25 1.438 4 3-.447 4.9-1.51 7.12-5.035 10.523l-2.207 2.17-2.82 2.682L67 69l30 1c-.079-7.39-.079-7.39-.18-14.778l-.015-2.8-.032-2.857c.239-2.697.77-4.298 2.227-6.565 1.875-.938 1.875-.938 4-1 2.102 1.133 2.102 1.133 4 3 .494 2.625.494 2.625.486 5.817.01 1.791.01 1.791.018 3.62l-.043 3.91c-.002 1.337-.003 2.673-.003 4.01-.003 2.798-.02 5.596-.046 8.394-.034 3.59-.042 7.18-.04 10.771-.001 2.758-.012 5.516-.026 8.274-.01 1.969-.013 3.938-.017 5.906l-.038 3.61-.024 3.19C107 105 107 105 105 107c-2.438.375-2.438.375-5 0-2.122-2.177-2.938-3.532-3.34-6.565l.047-2.857.023-2.8.082-3.528L97 80l-30 1c6.28 6.003 6.28 6.003 12.596 11.965l2.345 2.293 2.428 2.317C86 100 86 100 85.754 103.296L85 106c-2.608.85-2.608.85-6 1-2.428-1.8-4.236-3.415-6.273-5.59l-1.723-1.753a568.183 568.183 0 0 1-5.379-5.594 2022.902 2022.902 0 0 0-3.676-3.772C58.947 87.211 55.97 84.111 53 81l-.06 2.064c-.095 3.083-.205 6.166-.315 9.249l-.094 3.248-.117 3.115-.095 2.872C52 104 52 104 50 107c-2.787.429-4.311.494-6.635-1.173-1.893-2.533-1.752-4.283-1.77-7.428l-.037-3.48.008-3.759-.015-3.86c-.007-2.696-.007-5.39.003-8.087.011-3.451-.009-6.902-.038-10.353-.023-3.296-.016-6.592-.012-9.887l-.034-3.754.028-3.488v-3.068C42.127 45.33 43.44 44.136 46 42Z"/></svg>