<?xml version="1.0" encoding="UTF-8"?>
<svg version="1.1" xmlns="http://www.w3.org/2000/svg" width="323" height="260">
<path d="M0 0 C2.54280617 -0.00322238 5.08561216 -0.00658715 7.62841797 -0.01008606 C12.94027204 -0.01604441 18.25210908 -0.0179728 23.56396484 -0.01733398 C29.63504045 -0.01673551 35.70602655 -0.02725539 41.77707958 -0.04307765 C47.69411481 -0.05792837 53.6111158 -0.06131667 59.52816772 -0.06072426 C62.00914881 -0.06188842 64.49013087 -0.06621985 66.97109985 -0.07405663 C93.68181546 -0.15052263 121.9429312 -0.21514162 146.6875 11.16796875 C147.5839624 11.57740723 147.5839624 11.57740723 148.49853516 11.99511719 C158.43485513 16.62677806 166.04173988 22.35671599 173.6875 30.16796875 C174.48800781 30.93625 175.28851563 31.70453125 176.11328125 32.49609375 C194.05105697 50.712695 197.15590312 74.65080731 196.98471069 99.03547668 C196.67643329 123.04695525 187.3698842 142.87862635 171.0625 160.29296875 C161.16511894 169.80791623 147.49135596 179.29180348 133.63232422 181.49462891 C131.56482236 182.00483226 131.56482236 182.00483226 130.45825195 183.83520508 C130.11753662 184.5495874 129.77682129 185.26396973 129.42578125 186 C129.03382568 186.792854 128.64187012 187.58570801 128.23803711 188.40258789 C127.82948486 189.25328857 127.42093262 190.10398926 127 190.98046875 C122.90931947 199.10803497 118.55825733 206.17501356 112.6875 213.16796875 C111.61048828 214.45380859 111.61048828 214.45380859 110.51171875 215.765625 C88.48096692 241.08338065 59.91845952 254.78769402 26.6875 258.16796875 C20.98341629 258.51073898 15.27482269 258.51009072 9.5625 258.48046875 C8.79403748 258.47798126 8.02557495 258.47549377 7.23382568 258.47293091 C-28.39281197 258.29492256 -60.17611795 248.13707604 -86 222.91796875 C-117.72300344 190.81731051 -124.68949851 146.11311077 -124.68310547 102.8034668 C-124.6875095 99.47328641 -124.72408667 96.14440378 -124.76171875 92.81445312 C-124.89908822 66.59572752 -118.49428944 43.79369285 -100.3125 24.16796875 C-72.94000538 -1.4516075 -35.04854413 0.01053577 0 0 Z " fill="#FDFDFD" transform="translate(125.3125,0.83203125)"/>
<path d="M0 0 C2.54280617 -0.00322238 5.08561216 -0.00658715 7.62841797 -0.01008606 C12.94027204 -0.01604441 18.25210908 -0.0179728 23.56396484 -0.01733398 C29.63504045 -0.01673551 35.70602655 -0.02725539 41.77707958 -0.04307765 C47.69411481 -0.05792837 53.6111158 -0.06131667 59.52816772 -0.06072426 C62.00914881 -0.06188842 64.49013087 -0.06621985 66.97109985 -0.07405663 C93.68181546 -0.15052263 121.9429312 -0.21514162 146.6875 11.16796875 C147.5839624 11.57740723 147.5839624 11.57740723 148.49853516 11.99511719 C158.43485513 16.62677806 166.04173988 22.35671599 173.6875 30.16796875 C174.48800781 30.93625 175.28851563 31.70453125 176.11328125 32.49609375 C194.05105697 50.712695 197.15590312 74.65080731 196.98471069 99.03547668 C196.67643329 123.04695525 187.3698842 142.87862635 171.0625 160.29296875 C161.16511894 169.80791623 147.49135596 179.29180348 133.63232422 181.49462891 C131.56482236 182.00483226 131.56482236 182.00483226 130.45825195 183.83520508 C130.11753662 184.5495874 129.77682129 185.26396973 129.42578125 186 C129.03382568 186.792854 128.64187012 187.58570801 128.23803711 188.40258789 C127.82948486 189.25328857 127.42093262 190.10398926 127 190.98046875 C122.90931947 199.10803497 118.55825733 206.17501356 112.6875 213.16796875 C111.61048828 214.45380859 111.61048828 214.45380859 110.51171875 215.765625 C88.48096692 241.08338065 59.91845952 254.78769402 26.6875 258.16796875 C20.98341629 258.51073898 15.27482269 258.51009072 9.5625 258.48046875 C8.79403748 258.47798126 8.02557495 258.47549377 7.23382568 258.47293091 C-28.39281197 258.29492256 -60.17611795 248.13707604 -86 222.91796875 C-117.72300344 190.81731051 -124.68949851 146.11311077 -124.68310547 102.8034668 C-124.6875095 99.47328641 -124.72408667 96.14440378 -124.76171875 92.81445312 C-124.89908822 66.59572752 -118.49428944 43.79369285 -100.3125 24.16796875 C-72.94000538 -1.4516075 -35.04854413 0.01053577 0 0 Z M-36.9140625 21.43359375 C-38.11208055 21.51490665 -38.11208055 21.51490665 -39.33430099 21.59786224 C-59.87532769 23.03702093 -75.91541819 29.0329654 -90.28125 44.25390625 C-109.07937063 66.43239067 -105.57544337 100.41897449 -103.5625 127.48046875 C-100.67806578 160.87568918 -89.45526266 193.36884095 -63.40625 215.703125 C-46.11461633 229.47966647 -24.75667842 237.18292476 -2.703125 237.40625 C-1.90239563 237.41604385 -1.10166626 237.42583771 -0.27667236 237.43592834 C31.40210244 237.74407943 58.5682937 234.42601899 83.6875 213.16796875 C84.57501953 212.49894531 84.57501953 212.49894531 85.48046875 211.81640625 C99.92688668 200.62986885 109.44195114 181.91739525 115.6875 165.16796875 C115.6875 164.50796875 115.6875 163.84796875 115.6875 163.16796875 C116.63625 163.22984375 117.585 163.29171875 118.5625 163.35546875 C132.95828384 163.24053235 147.65575489 153.81755214 157.6875 144.16796875 C172.69867383 128.52027871 177.1423516 109.69666423 176.90234375 88.73828125 C176.40533008 70.41977737 169.3070055 54.18127534 156.0625 41.48046875 C128.30854933 17.93166212 89.40490962 20.03712213 55.1015625 19.96484375 C54.1655357 19.96201637 53.2295089 19.959189 52.26511765 19.95627594 C47.29881276 19.9414396 42.3325357 19.93211582 37.36621094 19.92773438 C33.3625359 19.92338159 29.35908023 19.90959136 25.35546875 19.88671875 C4.55642016 19.77063981 -16.16158136 19.92055353 -36.9140625 21.43359375 Z " fill="#FDFDFD" transform="translate(125.3125,0.83203125)"/>
<path d="M0 0 C4.0210469 0.01922649 8.04204837 0.0231668 12.06313515 0.02671432 C16.96746392 0.03191701 21.87175453 0.0463432 26.77606201 0.06115723 C27.66865345 0.06303795 28.56124489 0.06491867 29.48088455 0.06685638 C104.8138903 0.27266545 104.8138903 0.27266545 131.51824951 25.28381348 C146.00743215 40.30240856 148.80733183 59.88073551 148.57684326 79.86193848 C148.40676974 86.00676871 147.47862433 91.48394134 145.36199951 97.26428223 C145.01008545 98.26459473 144.65817139 99.26490723 144.29559326 100.29553223 C141.58482813 107.38109653 138.02089666 113.29886827 133.36199951 119.26428223 C132.85153076 119.95135254 132.34106201 120.63842285 131.81512451 121.34631348 C122.87990418 132.55957266 108.37551958 140.69513688 94.36199951 143.26428223 C91.99868361 143.39507643 89.73161448 143.36301618 87.36199951 143.26428223 C87.19909424 143.87666748 87.03618896 144.48905273 86.86834717 145.11999512 C85.11048486 151.38021067 82.80074198 156.97474004 79.73699951 162.70178223 C79.29968506 163.52581543 78.86237061 164.34984863 78.4118042 165.19885254 C74.73551439 171.93915894 70.52328772 177.5676745 65.36199951 183.26428223 C64.89922607 183.86756348 64.43645264 184.47084473 63.95965576 185.09240723 C49.47077198 203.94116789 24.33449634 213.53715386 1.64834595 216.98568726 C-4.74743651 217.76502358 -11.1953617 217.70435182 -17.62872314 217.65539551 C-20.13627476 217.63929331 -22.64221551 217.65535698 -25.14971924 217.67443848 C-49.65501476 217.70824096 -72.66730829 211.29352564 -91.63800049 195.26428223 C-92.8406958 194.28008301 -92.8406958 194.28008301 -94.06768799 193.27600098 C-119.10785027 171.94115866 -129.00627857 139.52551634 -131.82550049 107.76428223 C-136.63221747 45.60381817 -136.63221747 45.60381817 -118.39581299 24.20959473 C-117.81573486 23.5676416 -117.23565674 22.92568848 -116.63800049 22.26428223 C-116.14042236 21.6635791 -115.64284424 21.06287598 -115.13018799 20.44396973 C-102.43285769 6.21530312 -83.29710537 2.75552416 -65.23956299 1.52990723 C-63.99376402 1.43907742 -63.99376402 1.43907742 -62.72279739 1.34641266 C-41.83021959 -0.1566744 -20.93488238 -0.11960086 0 0 Z M-60.07330322 24.16931152 C-61.09852868 24.2489832 -62.12375414 24.32865488 -63.18004704 24.41074085 C-77.00845239 25.59515547 -91.10367573 27.98067259 -101.01300049 38.57678223 C-110.24587232 50.49605462 -110.04439324 65.31049838 -110.01300049 79.70178223 C-110.01345367 80.50920868 -110.01390686 81.31663513 -110.01437378 82.14852905 C-109.97746532 104.67128976 -107.8656026 128.00449845 -98.88800049 148.88928223 C-98.53802002 149.70832031 -98.18803955 150.5273584 -97.82745361 151.37121582 C-95.09768008 157.57737817 -91.97126085 163.02383596 -87.63800049 168.26428223 C-86.78528564 169.39156738 -86.78528564 169.39156738 -85.91534424 170.54162598 C-74.84904372 184.28639414 -56.78325281 191.95760765 -39.63800049 194.26428223 C-34.06896395 194.72523809 -28.49279335 194.73905875 -22.90802002 194.71032715 C-20.4044088 194.70183786 -17.90310592 194.73066241 -15.39971924 194.7623291 C-1.4111781 194.82463695 13.39607291 193.41506302 25.86199951 186.51428223 C26.51233154 186.1706665 27.16266357 185.82705078 27.83270264 185.47302246 C45.76119889 175.70092377 59.14034743 158.33058735 65.10614014 138.83215332 C66.65815977 133.34173031 68.03768132 127.81352704 69.36199951 122.26428223 C70.5105542 122.23850098 71.65910889 122.21271973 72.84246826 122.18615723 C89.25221041 121.65612451 103.08201623 118.5830522 114.73309326 106.22912598 C124.98158848 93.86703222 126.57244625 79.77313106 125.36199951 64.26428223 C124.25712996 56.0053823 121.59738055 49.7270971 116.36199951 43.26428223 C115.90567139 42.66100098 115.44934326 42.05771973 114.97918701 41.43615723 C106.00717163 31.00795087 91.41642311 27.13140428 78.36199951 25.26428223 C77.02038002 25.01923698 77.02038002 25.01923698 75.6516571 24.76924133 C71.91333955 24.19541338 68.19525137 23.91442452 64.42279053 23.71228027 C63.64398057 23.67024066 62.86517061 23.62820105 62.06276035 23.5848875 C51.84299806 23.08287388 41.61903966 23.0999366 31.38934326 23.09631348 C29.21051513 23.0930874 27.03168721 23.0897224 24.8528595 23.08622742 C20.31040954 23.08028359 15.76797847 23.07838256 11.2255249 23.07897949 C5.47995176 23.07908079 -0.26549691 23.06544066 -6.01104069 23.04820728 C-10.50622586 23.03694452 -15.0013823 23.03506461 -19.49658012 23.03558922 C-21.61110296 23.03442998 -23.72562707 23.03012825 -25.84013557 23.02225685 C-37.29303826 22.98361158 -48.6517746 23.27581235 -60.07330322 24.16931152 Z " fill="#222222" transform="translate(153.63800048828125,20.7357177734375)"/>
<path d="M0 0 C1.35857222 0.7254263 2.69428007 1.49576426 4 2.3125 C4.65742187 2.72113281 5.31484375 3.12976563 5.9921875 3.55078125 C9.28920162 5.76019113 11.85613423 7.90753671 14 11.3125 C17.37685097 9.8446346 19.61214759 7.92270997 22.25 5.375 C29.90031292 -1.44591006 36.06662986 -2.28755463 46.31640625 -2.0234375 C56.45286385 -1.09900977 63.25727312 3.87224965 70 11.3125 C76.91029016 20.67851311 79.1616053 29.74587701 78 41.3125 C73.24255207 64.40690745 57.47949388 81.29735894 38.30078125 94.15625 C37.21152344 94.8678125 36.12226563 95.579375 35 96.3125 C33.96230469 97.0034375 32.92460937 97.694375 31.85546875 98.40625 C19.0058113 106.80067146 19.0058113 106.80067146 11 105.3125 C-10.98227742 96.73759509 -33.45456844 76.30764159 -43.4765625 55.203125 C-48.11963646 43.94561607 -49.3422345 31.41401025 -45.0625 19.8125 C-40.18731436 9.93887965 -33.243791 3.28797846 -23 -0.6875 C-16.13548782 -2.97567073 -6.68983172 -2.87037762 0 0 Z " fill="#FF5A17" transform="translate(121,74.6875)"/>
<path d="M0 0 C7.62988387 1.99349999 11.91910105 6.29924697 16.13671875 12.734375 C18.40839779 18.69624759 17.88963136 27.56784264 16.3125 33.65234375 C13.64789323 39.43676095 9.24615056 42.74733911 3.75 45.8125 C-0.81653159 47.25856834 -5.26111678 48.00810414 -10 47 C-12.38845831 45.34390665 -13.79844446 44.03102932 -14.36903381 41.11225891 C-14.51386976 38.7208417 -14.52794694 36.36048646 -14.49609375 33.96484375 C-14.49754898 33.08977676 -14.49900421 32.21470978 -14.50050354 31.31312561 C-14.49884598 29.46644759 -14.48730062 27.61975556 -14.46655273 25.77319336 C-14.43756561 22.94390362 -14.44595258 20.11648411 -14.45898438 17.28710938 C-14.45274777 15.49217838 -14.44435744 13.69725331 -14.43359375 11.90234375 C-14.43652939 11.05542465 -14.43946503 10.20850555 -14.44248962 9.33592224 C-14.34745355 3.43414071 -14.34745355 3.43414071 -12.62367249 1.2802887 C-9.12922644 -1.47513139 -4.18738864 -0.49329344 0 0 Z " fill="#212121" transform="translate(237,71)"/>
</svg>
