<svg xmlns="http://www.w3.org/2000/svg" viewBox="0 0 323 260"><path fill="#FDFDFD" d="m125.313.832 7.628-.01c5.312-.006 10.624-.008 15.935-.007 6.072 0 12.143-.01 18.214-.026 5.917-.015 11.834-.018 17.75-.018 2.482 0 4.963-.005 7.444-.013C218.994.682 247.255.617 272 12l1.811.827C283.747 17.46 291.354 23.19 299 31l2.426 2.328c17.938 18.217 21.042 42.155 20.871 66.54-.308 24.011-9.615 43.843-25.922 61.257-9.897 9.515-23.571 18.999-37.43 21.202-2.068.51-2.068.51-3.174 2.34l-1.033 2.165-1.187 2.403-1.238 2.577C248.221 199.94 243.87 207.007 238 214l-2.176 2.598C213.794 241.915 185.231 255.62 152 259c-5.704.343-11.413.342-17.125.313l-2.329-.008c-35.626-.178-67.41-10.336-93.233-35.555C7.588 191.65.623 146.945.629 103.635c-.004-3.33-.04-6.659-.078-9.989C.413 67.428 6.818 44.626 25 25 52.372-.62 90.264.843 125.313.832Z"/><path fill="#FDFDFD" d="m125.313.832 7.628-.01c5.312-.006 10.624-.008 15.935-.007 6.072 0 12.143-.01 18.214-.026 5.917-.015 11.834-.018 17.75-.018 2.482 0 4.963-.005 7.444-.013C218.994.682 247.255.617 272 12l1.811.827C283.747 17.46 291.354 23.19 299 31l2.426 2.328c17.938 18.217 21.042 42.155 20.871 66.54-.308 24.011-9.615 43.843-25.922 61.257-9.897 9.515-23.571 18.999-37.43 21.202-2.068.51-2.068.51-3.174 2.34l-1.033 2.165-1.187 2.403-1.238 2.577C248.221 199.94 243.87 207.007 238 214l-2.176 2.598C213.794 241.915 185.231 255.62 152 259c-5.704.343-11.413.342-17.125.313l-2.329-.008c-35.626-.178-67.41-10.336-93.233-35.555C7.588 191.65.623 146.945.629 103.635c-.004-3.33-.04-6.659-.078-9.989C.413 67.428 6.818 44.626 25 25 52.372-.62 90.264.843 125.313.832ZM88.398 22.266c-1.198.08-1.198.08-2.42.164-20.54 1.44-36.58 7.435-50.947 22.656-18.798 22.178-15.294 56.165-13.281 83.227 2.884 33.395 14.107 65.888 40.156 88.222 17.292 13.777 38.65 21.48 60.703 21.703l2.427.03c31.679.308 58.845-3.01 83.964-24.268l1.793-1.352C225.239 201.462 234.754 182.75 241 166v-2l2.875.188c14.396-.115 29.093-9.538 39.125-19.188 15.011-15.648 19.455-34.471 19.215-55.43-.497-18.318-7.595-34.557-20.84-47.257-27.754-23.55-66.658-21.444-100.96-21.516l-2.837-.009c-4.967-.015-9.933-.024-14.9-.028-4.003-.005-8.006-.018-12.01-.041-20.8-.116-41.517.034-62.27 1.547Z"/><path fill="#222" d="M153.638 20.736c4.021.019 8.042.023 12.063.026 4.904.006 9.809.02 14.713.035l2.705.006c75.333.205 75.333.205 102.037 25.217 14.49 15.018 17.29 34.596 17.059 54.578-.17 6.144-1.098 11.622-3.215 17.402l-1.066 3.031c-2.711 7.086-6.275 13.004-10.934 18.969l-1.547 2.082C276.518 153.295 262.013 161.431 248 164c-2.363.13-4.63.099-7 0l-.494 1.856c-1.758 6.26-4.067 11.854-7.131 17.582l-1.325 2.497c-3.676 6.74-7.889 12.368-13.05 18.065l-1.402 1.828c-14.49 18.849-39.626 28.445-62.312 31.893-6.395.78-12.843.72-19.277.67-2.507-.016-5.013 0-7.52.02C103.982 238.443 80.97 232.028 62 216l-2.43-1.988c-25.04-21.335-34.938-53.75-37.758-85.512-4.806-62.16-4.806-62.16 13.43-83.555L37 43l1.508-1.82C51.205 26.95 70.34 23.49 88.398 22.266l2.517-.184c20.893-1.503 41.788-1.466 62.723-1.346ZM93.565 44.905l-3.107.241c-13.828 1.185-27.924 3.57-37.833 14.167-9.233 11.919-9.031 26.733-9 41.125l-.001 2.446c.037 22.523 2.148 45.856 11.126 66.741l1.06 2.482C58.54 178.313 61.668 183.76 66 189l1.723 2.277C78.789 205.022 96.855 212.693 114 215c5.569.461 11.145.475 16.73.446 2.504-.008 5.005.02 7.508.052 13.989.062 28.796-1.347 41.262-8.248l1.97-1.041c17.93-9.772 31.308-27.143 37.274-46.641 1.552-5.49 2.932-11.019 4.256-16.568l3.48-.078c16.41-.53 30.24-3.603 41.891-15.957C278.62 114.603 280.211 100.509 279 85c-1.105-8.259-3.765-14.537-9-21l-1.383-1.828C259.645 51.744 245.054 47.867 232 46l-2.71-.495c-3.739-.574-7.457-.855-11.23-1.057l-2.36-.127c-10.219-.502-20.443-.485-30.673-.489l-6.536-.01c-4.543-.006-9.085-.008-13.627-.007-5.746 0-11.491-.014-17.237-.031-4.495-.011-8.99-.013-13.486-.013-2.114 0-4.229-.005-6.343-.013-11.453-.039-22.812.254-34.233 1.147Z"/><path fill="#FF5A17" d="M121 74.688A67.467 67.467 0 0 1 125 77l1.992 1.238c3.297 2.21 5.864 4.357 8.008 7.762 3.377-1.468 5.612-3.39 8.25-5.938 7.65-6.82 13.817-7.662 24.066-7.398C177.453 73.588 184.257 78.56 191 86c6.91 9.366 9.162 18.433 8 30-4.757 23.094-20.52 39.985-39.7 52.844L156 171l-3.145 2.094c-12.85 8.394-12.85 8.394-20.855 6.906-21.982-8.575-44.455-29.005-54.477-50.11-4.643-11.257-5.865-23.788-1.585-35.39C80.813 84.626 87.755 77.975 98 74c6.865-2.288 16.31-2.183 23 .688Z"/><path fill="#212121" d="M237 71c7.63 1.993 11.92 6.3 16.137 12.734 2.271 5.962 1.753 14.834.175 20.918-2.664 5.785-7.066 9.095-12.562 12.16-4.567 1.447-9.011 2.196-13.75 1.188-2.388-1.656-3.798-2.969-4.369-5.888-.145-2.391-.159-4.752-.127-7.147l-.005-2.652c.002-1.847.014-3.693.034-5.54.03-2.83.021-5.657.008-8.486.006-1.795.015-3.59.025-5.385l-.008-2.566c.095-5.902.095-5.902 1.818-8.056 3.495-2.755 8.437-1.773 12.624-1.28Z"/></svg>