<svg xmlns="http://www.w3.org/2000/svg" viewBox="0 0 500 500"><path fill="#fff" d="M105.08.61C90.5 2.16 71.47 8.21 57.3 15.82 28.49 31.36 10.26 55.31 3.69 86.29.94 99.26 1 94.06 1 249.17c0 137.57.06 146.43 1.03 152.61 3.37 21.83 11.32 40.69 23.43 55.72 4.86 6.06 15.03 15.77 20.81 19.89 18.97 13.54 42.63 21.6 65.89 22.52 27.32 1.08 53.44-8.29 76.13-27.38 6-5.03 33.72-32.29 45.61-44.81 7.55-7.94 10.23-9.66 15.43-9.6 5.89 0 9.55 2.74 20.29 15.03 8.58 9.78 36.92 36.92 44.47 42.52 10.4 7.78 18.57 12.35 29.83 16.69 44.87 17.26 94.76 4.69 126.31-31.89 34.24-39.61 37.67-95.56 8.57-139.57-6.62-10.11-12.28-16.34-37.32-41.32-16.91-16.86-23.89-24.23-24.69-26-2.74-6.01-1.83-7.38 18.64-27.44 21.2-20.8 37.77-38.23 42.12-44.29 10.63-14.86 16.8-29.38 19.66-46.18 1.43-8.63 1.43-27.15-.06-35.95-5.77-35.49-21.95-61.67-49.15-79.79C428.68 7.07 407.19.61 383.82.56c-27.55 0-51.16 8.28-72.48 25.54-5.77 4.69-34.57 32.87-47.78 46.81-7.2 7.6-9.54 9.26-13.71 9.78-1.66.22-2.97-.06-5.37-1.2-2.52-1.26-5.09-3.66-13.38-12.52-18.92-20.29-37.95-38.41-48.35-46.12C158.74 5.19 132.74-2.3 105.08.61Zm292.11 48.76a70.193 70.193 0 0 1 23.6 9.77c6.06 3.89 16.64 14.74 20.47 21.03 12.17 19.66 13.65 42.52 4.05 62.7-5.14 10.8-6.11 11.94-47.72 54.01-40.64 41.09-81.79 82.13-107.73 107.45-12.12 11.89-15.49 15.49-16.69 17.94-1.89 3.89-2 7.09-.23 10.23 1.77 3.26 19.72 21.44 22.57 22.92 3.15 1.6 6.98 1.55 10.29-.11 1.66-.8 4.63-3.49 8.35-7.55 3.14-3.48 17.31-17.88 31.49-32.06 17.43-17.43 26.46-26.12 28-26.8 2.8-1.26 6.4-1.26 8.8 0 2.75 1.43 50.58 49.83 54.93 55.61 10.91 14.51 15.94 32.57 13.66 49.03-4.8 34.81-39.61 63.5-72.36 59.79-13.43-1.55-24.29-6.17-36.12-15.43-5.89-4.58-181-179.12-183.52-182.9-2.29-3.42-2.29-6.4-.06-9.88.86-1.37 16.23-17.03 34.12-34.81 20.01-19.83 32.92-33.09 33.55-34.41 2.17-4.57.69-8.34-5.43-13.71-2.23-2-6.63-5.95-9.71-8.75-12.86-11.77-13.78-12.29-17.49-10.29-2.4 1.26-89.22 88.65-92.59 93.17-5.77 7.77-6.86 14.17-3.6 21.2.97 2.11 3.26 5.66 5.09 7.89 1.77 2.23 26.34 27.14 54.58 55.38 31.09 31.15 51.72 52.24 52.41 53.55 1.48 2.92 1.48 6.86-.06 9.89-.69 1.37-3.83 4.86-7.32 8.06-3.31 3.14-14.91 14.63-25.77 25.55-21.26 21.43-25.55 25.03-35.15 29.72-14.46 7.03-29.72 7.88-45.72 2.57-22.29-7.49-39.1-23.04-44.93-41.5-3.26-10.34-3.03 1.03-3.2-155.17-.17-127.34-.06-144.14.69-149.68 2.17-14.92 8.17-26.7 18.63-36.64 9.49-9.03 21.89-15.49 34.06-17.77 7.55-1.38 21.38-.92 28.87 1.08 11.08 2.92 20.23 7.49 28.92 14.46 2.45 1.94 39.26 38.52 81.95 81.27 60.99 61.21 78.13 78.08 80.42 79.22 4.06 2.06 7.94 2 11.77-.17 3.03-1.72 8.18-6.86 14.92-14.92 7.14-8.52 8.23-12.12 5.09-17.49-2-3.43-30.98-33.15-55.96-57.38-11.37-11.03-12.57-14.17-8-20.92 1.09-1.66 3.6-4.34 5.55-6 1.94-1.66 12.91-12.46 24.4-23.95 18.52-18.63 21.55-21.43 27.03-25.03 8.58-5.6 18.41-9.43 28.12-10.97 4.8-.75 18.06-.29 22.98.8Z" style="mix-blend-mode:difference"/></svg>