<svg xmlns="http://www.w3.org/2000/svg" fill="none" viewBox="0 0 500 500"><path fill="#5741D9" d="M233.918 53.55c43.442-2.924 87.719 5.848 126.567 25.48 57.644 28.405 103.592 79.365 124.895 139.516 9.607 26.733 14.62 54.72 14.62 83.124v104.846c0 4.177 0 8.771-.835 12.949-2.507 10.442-10.025 20.05-20.051 24.645-7.101 3.341-15.037 3.759-22.138 2.506-15.873-2.924-28.405-17.962-28.405-34.252v-97.745c.418-9.189.418-19.214-4.594-27.151-7.937-15.038-27.987-22.139-43.442-15.873-13.367 4.595-22.974 18.379-23.392 32.581v98.998c0 6.266.418 12.531-1.671 18.379-3.342 11.696-12.949 20.886-24.645 24.227-15.455 4.178-32.999-2.506-40.518-16.708-5.43-8.354-5.012-18.797-4.595-28.404v-98.58c-.417-16.709-14.202-31.746-30.493-33.835-10.86-1.671-22.138 2.089-30.075 9.608-7.101 6.683-10.86 16.29-10.86 25.898v95.655c0 7.937.835 16.291-2.089 23.81-4.595 13.785-18.379 23.809-32.999 23.392-15.038.835-29.657-9.607-34.252-23.392-2.507-7.101-2.089-14.202-2.089-21.721v-98.997c0-16.291-12.949-31.329-28.822-34.253-14.62-2.924-30.493 4.177-38.012 17.544-2.924 5.43-4.594 11.696-4.594 17.962V411.11c0 10.443-4.595 20.886-12.532 27.569-12.113 10.443-31.746 11.278-44.277 1.671C5.43 434.084 0 423.224 0 411.946V303.341c0-40.936 10.443-81.871 30.075-118.212 15.873-29.658 38.012-55.974 64.328-76.859 38.847-32.581 88.554-51.796 139.515-54.72Z"/></svg>