<svg xmlns="http://www.w3.org/2000/svg" xml:space="preserve" viewBox="4.4 197.87 81.3 99.27"><linearGradient id="a" x1="35.9" x2="35.9" y1="490.1" y2="404" gradientTransform="matrix(.5128 0 0 -.5128 0 449.23)" gradientUnits="userSpaceOnUse"><stop offset="0" style="stop-color:#09f"/><stop offset="1" style="stop-color:#03f"/></linearGradient><path fill="url(#a)" d="m19.1 242.1 13.3-5.6V212c0-7.7-6.3-14-14-14s-14 6.3-14 14v23c.3.1.6.3.9.4l13.8 6.7z"/><linearGradient id="b" x1="35.9" x2="35.9" y1="344.1" y2="296.667" gradientTransform="matrix(.5128 0 0 -.5128 0 449.23)" gradientUnits="userSpaceOnUse"><stop offset="0" style="stop-color:#09f"/><stop offset="1" style="stop-color:#03f"/></linearGradient><path fill="url(#b)" d="M4.4 278.7v4.4c0 7.7 6.3 14 14 14s14-6.3 14-14v-3.6l-14-6.8-14 6z"/><linearGradient id="c" x1="63.2" x2="166.969" y1="408.483" y2="408.483" gradientTransform="matrix(.5128 0 0 -.5128 0 449.23)" gradientUnits="userSpaceOnUse"><stop offset="0" style="stop-color:#09f"/><stop offset="1" style="stop-color:#03f"/></linearGradient><path fill="url(#c)" d="m52.7 258.2 23-9.7c8-3.4 12-11.9 9-19s-11.9-10.2-19.9-6.7l-32.3 13.7v12.1l20.2 9.6z"/><linearGradient id="d" x1="37.3" x2="63.171" y1="403.2" y2="403.2" gradientTransform="matrix(.5128 0 0 -.5128 0 449.23)" gradientUnits="userSpaceOnUse"><stop offset="0" style="stop-color:#09f"/><stop offset="1" style="stop-color:#03f"/></linearGradient><path fill="url(#d)" d="M32.4 248.5v-12l-13.3 5.6z"/><linearGradient id="e" x1="8.6" x2="35.863" y1="344.85" y2="344.85" gradientTransform="matrix(.5128 0 0 -.5128 0 449.23)" gradientUnits="userSpaceOnUse"><stop offset="0" style="stop-color:#09f"/><stop offset="1" style="stop-color:#03f"/></linearGradient><path fill="url(#e)" d="M4.4 266.1v12.6l14-5.9z"/><linearGradient id="f" x1="63.2" x2="167.046" y1="335.095" y2="335.095" gradientTransform="matrix(.5128 0 0 -.5128 0 449.23)" gradientUnits="userSpaceOnUse"><stop offset="0" style="stop-color:#09f"/><stop offset="1" style="stop-color:#03f"/></linearGradient><path fill="url(#f)" d="m76.5 269.7-23.8-11.5-20.3 8.6v12.7l31.9 15.4c7.7 3.7 16.7 1.1 20.1-5.8 3.3-7-.2-15.7-7.9-19.4z"/><linearGradient id="g" x1="35.9" x2="63.2" y1="343.3" y2="343.3" gradientTransform="matrix(.5128 0 0 -.5128 0 449.23)" gradientUnits="userSpaceOnUse"><stop offset="0" style="stop-color:#09f"/><stop offset="1" style="stop-color:#03f"/></linearGradient><path fill="url(#g)" d="m18.4 272.8 14 6.7v-12.7z"/><linearGradient id="h" x1="8.6" x2="37.3" y1="404.75" y2="404.75" gradientTransform="matrix(.5128 0 0 -.5128 0 449.23)" gradientUnits="userSpaceOnUse"><stop offset="0" style="stop-color:#09f"/><stop offset="1" style="stop-color:#03f"/></linearGradient><path fill="url(#h)" d="m19.1 242.1-13.8-6.7c-.3-.2-.6-.3-.9-.4v13.3l14.7-6.2z"/><linearGradient id="i" x1="63.2" x2="102.7" y1="373.6" y2="373.6" gradientTransform="matrix(.5128 0 0 -.5128 0 449.23)" gradientUnits="userSpaceOnUse"><stop offset="0" style="stop-color:#09f"/><stop offset="1" style="stop-color:#03f"/></linearGradient><path fill="url(#i)" d="m32.4 266.8 20.3-8.6-20.3-9.7z"/><linearGradient id="j" x1="35.9" x2="35.9" y1="404" y2="344.1" gradientTransform="matrix(.5128 0 0 -.5128 0 449.23)" gradientUnits="userSpaceOnUse"><stop offset="0" style="stop-color:#09f"/><stop offset="1" style="stop-color:#03f"/></linearGradient><path fill="url(#j)" d="m19.1 242.1-14.7 6.2v17.8l14 6.7 14-6v-18.3z"/><linearGradient id="k" x1="35.9" x2="35.9" y1="490.1" y2="296.6" gradientTransform="matrix(.5128 0 0 -.5128 0 449.23)" gradientUnits="userSpaceOnUse"><stop offset="0" style="stop-color:#09f"/><stop offset="1" style="stop-color:#03f"/></linearGradient><path fill="url(#k)" d="M4.4 211.9v71.2c0 7.7 6.3 14 14 14s14-6.3 14-14v-71.2c0-7.7-6.3-14-14-14s-14 6.3-14 14z" opacity=".8"/></svg>