<svg xmlns="http://www.w3.org/2000/svg" viewBox="0 0 533.333 533.333"><defs><clipPath id="a" clipPathUnits="userSpaceOnUse"><path d="M-199.857 83.942h400v-400h-400Z"/></clipPath><clipPath id="b" clipPathUnits="userSpaceOnUse"><path d="M-154.48 333.592h400v-400h-400Z"/></clipPath><clipPath id="c" clipPathUnits="userSpaceOnUse"><path d="M-173.847 212.774h400v-400h-400Z"/></clipPath><clipPath id="d" clipPathUnits="userSpaceOnUse"><path d="M-224.586 212.774h400v-400h-400Z"/></clipPath><clipPath id="e" clipPathUnits="userSpaceOnUse"><path d="M-116.893 145.568h400v-400h-400Z"/></clipPath><clipPath id="f" clipPathUnits="userSpaceOnUse"><path d="M-245.238 333.592h400v-400h-400Z"/></clipPath><clipPath id="g" clipPathUnits="userSpaceOnUse"><path d="M-282.998 145.568h400v-400h-400Z"/></clipPath><clipPath id="h" clipPathUnits="userSpaceOnUse"><path d="M-179.5 331.556h400v-400h-400Z"/></clipPath><clipPath id="i" clipPathUnits="userSpaceOnUse"><path d="M0 400h400V0H0Z"/></clipPath></defs><path d="m0 0-45.38 24.103-5.988 3.182-2.203 6.628-11.87 35.716-20.153 16.347-62.304 50.532-10.044 8.146 5.074 11.876 35.049 82.011-4.269 75.046-2.054 36.132 29.25-21.284 49.904-36.312 48.547 13.344 4.5 1.236 4.498-1.236 48.548-13.344 49.903 36.312 29.251 21.284-2.054-36.132-4.269-75.046 35.048-82.011 5.074-11.876-10.043-8.146-62.304-50.532-20.154-16.347-11.87-35.716-2.203-6.628-5.987-3.182L16.117 0 8.059-4.281Zm-23.274 51.29L8.059 34.649 39.39 51.29l15.394 46.323.941 2.35 21.632 42.862 32.587 64.568-9.139 21.384-1.57 3.673.227 3.987 2.44 42.897-27.26-19.837-6.61-4.809-7.964 2.189-52.009 14.297-52.012-14.297-7.962-2.189-6.609 4.809-27.262 19.837 2.44-42.897.227-3.987-1.57-3.673-9.138-21.382 32.588-64.57 21.631-42.862.94-2.35zm-70.522 85.48-3.125 63.385-19.311-45.188zm226.146 18.197-19.311 45.184-3.128-63.381z" style="fill:#fff;fill-opacity:1;fill-rule:nonzero;stroke:none" transform="matrix(1.33333 0 0 -1.33333 255.735 496.959)"/><path d="m0 0-45.38 24.104-17.597 52.95-21.632 42.862 1.767-35.821-62.304 50.532 36.618 85.685-4.495 79.032 56.513-41.123L0 273.755l56.51-15.534 56.513 41.123-4.496-79.032 36.618-85.685-62.304-50.532 1.767 35.821-21.632-42.862-17.597-52.95Z" style="fill:#fff;fill-opacity:1;fill-rule:evenodd;stroke:none" transform="matrix(1.33333 0 0 -1.33333 266.48 476.714)"/><path d="m0 0-45.379 24.104-3.421 1.818-1.26 3.787-17.324 52.131-.561 1.11.572-11.603-17.042 13.823-62.303 50.532-5.739 4.654 2.899 6.787 35.721 83.585-4.365 76.755-1.174 20.647 16.714-12.163 52.736-38.374 51.96 14.283 2.571.706 2.57-.706 51.961-14.283 52.735 38.374 16.715 12.163-1.174-20.647-4.365-76.755 35.721-83.585 2.898-6.787-5.739-4.654L93.625 85.17 76.583 71.347l.572 11.603-.561-1.11-17.325-52.131-1.259-3.787-3.422-1.818L9.21 0 4.605-2.446Zm-32.748 39.639 37.353-19.84 37.352 19.84 16.338 49.163.538 1.344 21.633 42.861 20.806 41.226-2.274-46.102-.688-13.936 39.523 32.055-33.717 78.899-.898 2.099.129 2.277 3.323 58.385-39.799-28.96-3.777-2.748-4.55 1.251L4.605 272.28l-53.939-14.827-4.55-1.251-3.777 2.748-39.798 28.96 3.32-58.385.131-2.277-.898-2.099-33.718-78.899 39.523-32.056-.687 13.937-2.274 46.101 20.807-41.225 21.632-42.861.537-1.344z" style="fill:#000d26;fill-opacity:1;fill-rule:nonzero;stroke:none" transform="matrix(1.33333 0 0 -1.33333 260.34 488.498)"/><path d="m0 0-45.38 24.104-17.597 52.95-21.632 42.862 1.767-35.821-62.304 50.532 36.618 85.685-4.495 79.032 56.513-41.123L0 273.755l56.51-15.534 56.513 41.123-4.496-79.032 36.618-85.685-62.304-50.532 1.767 35.821-21.632-42.862-17.597-52.95Z" style="fill:#008fe8;fill-opacity:1;fill-rule:evenodd;stroke:none" transform="matrix(1.33333 0 0 -1.33333 266.48 476.93)"/><path d="m0 0 56.511-15.533 56.513 41.122-4.496-79.032 36.62-85.685-62.306-50.532 1.767 35.821-22.596-42.381-16.635-53.43L0-273.754l-.665.353s-3.805-.865-.53 26.953c3.274 27.818-1.05 78.74-2.395 121.674v-.001l-9.525-8.658 8.842 43.362-20.08-8.665 19.549 35.619-24.589-4.137 17.15 23.546-27.686-9.391 29.551 40.46-46.132-2.894L-.665-.182z" clip-path="url(#a)" style="fill:#3bb4ff;fill-opacity:1;fill-rule:evenodd;stroke:none" transform="matrix(1.33333 0 0 -1.33333 266.475 111.923)"/><path d="m0 0-17.596 52.949-21.633 42.862 1.766-35.821-62.303 50.532 36.618 85.685-4.464 78.475 41.419-97.788-27.817 11.282-5.738-35.7-7.627 16.399-3.771-32.944-4.781 12.116-13.554-35.107 26.294-23.118.958 21.19 14.583-29.362.109 44.478 33.394-60.557 2.569 14.938L4.8 3.564l36.833-19.011-1.88-5.67z" clip-path="url(#b)" style="fill:#00619e;fill-opacity:1;fill-rule:evenodd;stroke:none" transform="matrix(1.33333 0 0 -1.33333 205.973 444.79)"/><path d="m0 0-50.69 20.972L-39.263-3.23l35.837-11.003 12.118-12.94Z" clip-path="url(#c)" style="fill:#000d26;fill-opacity:1;fill-rule:evenodd;stroke:none" transform="matrix(1.33333 0 0 -1.33333 231.796 283.699)"/><path d="m0 0 50.691 20.972L39.263-3.23 3.427-14.233l-12.119-12.94Z" clip-path="url(#d)" style="fill:#000d26;fill-opacity:1;fill-rule:evenodd;stroke:none" transform="matrix(1.33333 0 0 -1.33333 299.448 283.699)"/><path d="m0 0-35.476 9.923 5.419 77.292 14.697-70.121z" clip-path="url(#e)" style="fill:#000d26;fill-opacity:1;fill-rule:evenodd;stroke:none" transform="matrix(1.33333 0 0 -1.33333 155.857 194.09)"/><path d="m0 0 17.597 52.949L39.23 95.811 37.463 59.99l62.304 50.532-36.619 85.685 4.464 78.475-41.418-97.788 27.817 11.282 5.738-35.7 7.626 16.399 3.771-32.944 4.783 12.116 13.552-35.107-27.42-24.246-.395 30.366-12.893-39.984-1.235 47.052-33.394-60.557-2.569 14.938L-4.799 3.564l-36.834-19.011 1.881-5.67z" clip-path="url(#f)" style="fill:#d6efff;fill-opacity:1;fill-rule:evenodd;stroke:none" transform="matrix(1.33333 0 0 -1.33333 326.984 444.79)"/><path d="m0 0 35.304 9.923-5.248 77.292L15.36 17.094Z" clip-path="url(#g)" style="fill:#000d26;fill-opacity:1;fill-rule:evenodd;stroke:none" transform="matrix(1.33333 0 0 -1.33333 377.33 194.09)"/><path d="m0 0 20.501-11.245L41 0V17.502l-11.285 4.935-9.253 4.075-9.265-4.075L0 17.502V7.634Z" clip-path="url(#h)" style="fill:#000d26;fill-opacity:1;fill-rule:evenodd;stroke:none" transform="matrix(1.33333 0 0 -1.33333 239.333 442.075)"/><path d="M194.5 66.895h11v-28h-11z" clip-path="url(#i)" style="fill:#000d26;fill-opacity:1;fill-rule:evenodd;stroke:none" transform="matrix(1.33333 0 0 -1.33333 0 533.333)"/></svg>