<?xml version="1.0" encoding="UTF-8" standalone="no"?>
<!-- Created with Inkscape (http://www.inkscape.org/) -->

<svg
   version="1.1"
   id="svg1"
   width="533.33331"
   height="533.33331"
   viewBox="0 0 533.33331 533.33331"
   xmlns="http://www.w3.org/2000/svg"
   xmlns:svg="http://www.w3.org/2000/svg">
  <defs
     id="defs1">
    <clipPath
       clipPathUnits="userSpaceOnUse"
       id="clipPath6">
      <path
         d="M 0,400 H 400 V 0 H 0 Z"
         transform="translate(-199.8565,-316.05771)"
         id="path6" />
    </clipPath>
    <clipPath
       clipPathUnits="userSpaceOnUse"
       id="clipPath8">
      <path
         d="M 0,400 H 400 V 0 H 0 Z"
         transform="translate(-154.47981,-66.407704)"
         id="path8" />
    </clipPath>
    <clipPath
       clipPathUnits="userSpaceOnUse"
       id="clipPath10">
      <path
         d="M 0,400 H 400 V 0 H 0 Z"
         transform="translate(-173.84721,-187.2259)"
         id="path10" />
    </clipPath>
    <clipPath
       clipPathUnits="userSpaceOnUse"
       id="clipPath12">
      <path
         d="M 0,400 H 400 V 0 H 0 Z"
         transform="translate(-224.58621,-187.2259)"
         id="path12" />
    </clipPath>
    <clipPath
       clipPathUnits="userSpaceOnUse"
       id="clipPath14">
      <path
         d="M 0,400 H 400 V 0 H 0 Z"
         transform="translate(-116.893,-254.432)"
         id="path14" />
    </clipPath>
    <clipPath
       clipPathUnits="userSpaceOnUse"
       id="clipPath16">
      <path
         d="M 0,400 H 400 V 0 H 0 Z"
         transform="translate(-245.23801,-66.407704)"
         id="path16" />
    </clipPath>
    <clipPath
       clipPathUnits="userSpaceOnUse"
       id="clipPath18">
      <path
         d="M 0,400 H 400 V 0 H 0 Z"
         transform="translate(-282.99751,-254.432)"
         id="path18" />
    </clipPath>
    <clipPath
       clipPathUnits="userSpaceOnUse"
       id="clipPath20">
      <path
         d="M 0,400 H 400 V 0 H 0 Z"
         transform="translate(-179.5,-68.443902)"
         id="path20" />
    </clipPath>
    <clipPath
       clipPathUnits="userSpaceOnUse"
       id="clipPath22">
      <path
         d="M 0,400 H 400 V 0 H 0 Z"
         id="path22" />
    </clipPath>
  </defs>
  <g
     id="layer-MC1">
    <path
       id="path1"
       d="m 0,0 -45.38,24.103 -5.988,3.182 -2.203,6.628 -11.87,35.716 -20.153,16.347 -62.304,50.532 -10.044,8.146 5.074,11.876 35.049,82.011 -4.269,75.046 -2.054,36.132 29.25,-21.284 49.904,-36.312 48.547,13.344 4.5,1.236 4.498,-1.236 48.548,-13.344 49.903,36.312 29.251,21.284 -2.054,-36.132 -4.269,-75.046 35.048,-82.011 5.074,-11.876 -10.043,-8.146 L 101.711,85.976 81.557,69.629 69.687,33.913 67.484,27.285 61.497,24.103 16.117,0 8.059,-4.281 Z M -23.274,51.29 8.059,34.649 39.39,51.29 l 15.394,46.323 0.941,2.35 21.632,42.862 32.587,64.568 -9.139,21.384 -1.57,3.673 0.227,3.987 2.44,42.897 -27.26,-19.837 -6.61,-4.809 -7.964,2.189 -52.009,14.297 -52.012,-14.297 -7.962,-2.189 -6.609,4.809 -27.262,19.837 2.44,-42.897 0.227,-3.987 -1.57,-3.673 -9.138,-21.382 32.588,-64.57 21.631,-42.862 0.94,-2.35 z m -70.522,85.48 -3.125,63.385 -19.311,-45.188 z m 226.146,18.197 -19.311,45.184 -3.128,-63.381 z"
       style="fill:#ffffff;fill-opacity:1;fill-rule:nonzero;stroke:none"
       transform="matrix(1.3333333,0,0,-1.3333333,255.73453,496.95893)" />
    <path
       id="path2"
       d="m 0,0 -45.38,24.104 -17.597,52.95 -21.632,42.862 1.767,-35.821 -62.304,50.532 36.618,85.685 -4.495,79.032 56.513,-41.123 56.51,15.534 56.51,-15.534 56.513,41.123 -4.496,-79.032 36.618,-85.685 L 82.841,84.095 84.608,119.916 62.976,77.054 45.379,24.104 Z"
       style="fill:#ffffff;fill-opacity:1;fill-rule:evenodd;stroke:none"
       transform="matrix(1.3333333,0,0,-1.3333333,266.47933,476.71373)" />
    <path
       id="path3"
       d="m 0,0 -45.379,24.104 -3.421,1.818 -1.26,3.787 -17.324,52.131 -0.561,1.11 0.572,-11.603 -17.042,13.823 -62.303,50.532 -5.739,4.654 2.899,6.787 35.721,83.585 -4.365,76.755 -1.174,20.647 16.714,-12.163 52.736,-38.374 51.96,14.283 2.571,0.706 2.57,-0.706 51.961,-14.283 52.735,38.374 16.715,12.163 -1.174,-20.647 -4.365,-76.755 35.721,-83.585 2.898,-6.787 -5.739,-4.654 L 93.625,85.17 76.583,71.347 77.155,82.95 76.594,81.84 59.269,29.709 58.01,25.922 54.588,24.104 9.21,0 4.605,-2.446 Z m -32.748,39.639 37.353,-19.84 37.352,19.84 16.338,49.163 0.538,1.344 21.633,42.861 20.806,41.226 -2.274,-46.102 -0.688,-13.936 39.523,32.055 -33.717,78.899 -0.898,2.099 0.129,2.277 3.323,58.385 -39.799,-28.96 -3.777,-2.748 -4.55,1.251 -53.939,14.827 -53.939,-14.827 -4.55,-1.251 -3.777,2.748 -39.798,28.96 3.32,-58.385 0.131,-2.277 -0.898,-2.099 -33.718,-78.899 39.523,-32.056 -0.687,13.937 -2.274,46.101 20.807,-41.225 21.632,-42.861 0.537,-1.344 z"
       style="fill:#000d26;fill-opacity:1;fill-rule:nonzero;stroke:none"
       transform="matrix(1.3333333,0,0,-1.3333333,260.33933,488.498)" />
    <path
       id="path4"
       d="m 0,0 -45.38,24.104 -17.597,52.95 -21.632,42.862 1.767,-35.821 -62.304,50.532 36.618,85.685 -4.495,79.032 56.513,-41.123 56.51,15.534 56.51,-15.534 56.513,41.123 -4.496,-79.032 36.618,-85.685 L 82.841,84.095 84.608,119.916 62.976,77.054 45.379,24.104 Z"
       style="fill:#008fe8;fill-opacity:1;fill-rule:evenodd;stroke:none"
       transform="matrix(1.3333333,0,0,-1.3333333,266.47933,476.92973)" />
    <path
       id="path5"
       d="m 0,0 56.511,-15.533 56.513,41.122 -4.496,-79.032 36.62,-85.685 -62.306,-50.532 1.767,35.821 L 62.013,-196.22 45.378,-249.65 0,-273.754 l -0.665,0.353 c 0,0 -3.805,-0.865 -0.53,26.953 3.274,27.818 -1.05,78.74 -2.395,121.674 v -0.001 l -9.525,-8.658 8.842,43.362 -20.08,-8.665 19.549,35.619 -24.589,-4.137 17.15,23.546 -27.686,-9.391 29.551,40.46 -46.132,-2.894 55.845,15.351 z"
       style="fill:#3bb4ff;fill-opacity:1;fill-rule:evenodd;stroke:none"
       transform="matrix(1.3333333,0,0,-1.3333333,266.47533,111.92307)"
       clip-path="url(#clipPath6)" />
    <path
       id="path7"
       d="m 0,0 -17.596,52.949 -21.633,42.862 1.766,-35.821 -62.303,50.532 36.618,85.685 -4.464,78.475 41.419,-97.788 -27.817,11.282 -5.738,-35.7 -7.627,16.399 -3.771,-32.944 -4.781,12.116 -13.554,-35.107 26.294,-23.118 0.958,21.19 14.583,-29.362 0.109,44.478 33.394,-60.557 2.569,14.938 L 4.8,3.564 l 36.833,-19.011 -1.88,-5.67 z"
       style="fill:#00619e;fill-opacity:1;fill-rule:evenodd;stroke:none"
       transform="matrix(1.3333333,0,0,-1.3333333,205.97307,444.78973)"
       clip-path="url(#clipPath8)" />
    <path
       id="path9"
       d="M 0,0 -50.69,20.972 -39.263,-3.23 -3.426,-14.233 8.692,-27.173 Z"
       style="fill:#000d26;fill-opacity:1;fill-rule:evenodd;stroke:none"
       transform="matrix(1.3333333,0,0,-1.3333333,231.79627,283.6988)"
       clip-path="url(#clipPath10)" />
    <path
       id="path11"
       d="M 0,0 50.691,20.972 39.263,-3.23 3.427,-14.233 -8.692,-27.173 Z"
       style="fill:#000d26;fill-opacity:1;fill-rule:evenodd;stroke:none"
       transform="matrix(1.3333333,0,0,-1.3333333,299.44827,283.6988)"
       clip-path="url(#clipPath12)" />
    <path
       id="path13"
       d="m 0,0 -35.476,9.923 5.419,77.292 14.697,-70.121 z"
       style="fill:#000d26;fill-opacity:1;fill-rule:evenodd;stroke:none"
       transform="matrix(1.3333333,0,0,-1.3333333,155.85733,194.09067)"
       clip-path="url(#clipPath14)" />
    <path
       id="path15"
       d="M 0,0 17.597,52.949 39.23,95.811 37.463,59.99 l 62.304,50.532 -36.619,85.685 4.464,78.475 -41.418,-97.788 27.817,11.282 5.738,-35.7 7.626,16.399 3.771,-32.944 4.783,12.116 L 89.481,112.94 62.061,88.694 61.666,119.06 48.773,79.076 47.538,126.128 14.144,65.571 11.575,80.509 -4.799,3.564 l -36.834,-19.011 1.881,-5.67 z"
       style="fill:#d6efff;fill-opacity:1;fill-rule:evenodd;stroke:none"
       transform="matrix(1.3333333,0,0,-1.3333333,326.984,444.78973)"
       clip-path="url(#clipPath16)" />
    <path
       id="path17"
       d="M 0,0 35.304,9.923 30.056,87.215 15.36,17.094 Z"
       style="fill:#000d26;fill-opacity:1;fill-rule:evenodd;stroke:none"
       transform="matrix(1.3333333,0,0,-1.3333333,377.33,194.09067)"
       clip-path="url(#clipPath18)" />
    <path
       id="path19"
       d="M 0,0 20.501,-11.245 41,0 v 7.634 9.868 L 29.715,22.437 20.462,26.512 11.197,22.437 0,17.502 V 7.634 Z"
       style="fill:#000d26;fill-opacity:1;fill-rule:evenodd;stroke:none"
       transform="matrix(1.3333333,0,0,-1.3333333,239.33333,442.0748)"
       clip-path="url(#clipPath20)" />
    <path
       id="path21"
       d="m 194.5,66.895 h 11 v -28 h -11 z"
       style="fill:#000d26;fill-opacity:1;fill-rule:evenodd;stroke:none"
       transform="matrix(1.3333333,0,0,-1.3333333,0,533.33333)"
       clip-path="url(#clipPath22)" />
  </g>
</svg>
