<?xml version="1.0" encoding="UTF-8"?>
<svg version="1.1" xmlns="http://www.w3.org/2000/svg" width="393" height="389">
<path d="M0 0 C1.76670044 -0.00833862 1.76670044 -0.00833862 3.5690918 -0.0168457 C14.95384531 0.07837312 23.92049662 1.34728458 32.421875 9.359375 C40.29208883 17.68916336 41.68166302 24.90353038 41.55078125 36.046875 C41.55842471 38.33594039 41.56691484 40.62500307 41.57617188 42.9140625 C41.57396684 46.4862188 41.56253612 50.05782933 41.53491211 53.62988281 C40.93025498 70.7442668 40.93025498 70.7442668 46.96166992 86.31738281 C48.25 88.3125 48.25 88.3125 48.25 91.3125 C45.775 91.8075 45.775 91.8075 43.25 92.3125 C46.22 92.8075 46.22 92.8075 49.25 93.3125 C50.24 97.7675 50.24 97.7675 51.25 102.3125 C49.6 102.3125 47.95 102.3125 46.25 102.3125 C46.25 103.3025 46.25 104.2925 46.25 105.3125 C48.23 105.3125 50.21 105.3125 52.25 105.3125 C52.58 108.2825 52.91 111.2525 53.25 114.3125 C51.6 114.3125 49.95 114.3125 48.25 114.3125 C48.25 114.9725 48.25 115.6325 48.25 116.3125 C50.23 116.3125 52.21 116.3125 54.25 116.3125 C54.58 119.2825 54.91 122.2525 55.25 125.3125 C53.6 125.3125 51.95 125.3125 50.25 125.3125 C50.25 126.3025 50.25 127.2925 50.25 128.3125 C52.23 128.3125 54.21 128.3125 56.25 128.3125 C56.58 131.2825 56.91 134.2525 57.25 137.3125 C55.6 137.3125 53.95 137.3125 52.25 137.3125 C52.25 138.3025 52.25 139.2925 52.25 140.3125 C54.56 140.3125 56.87 140.3125 59.25 140.3125 C59.58132177 163.32661989 59.78308858 185.64705709 55.25 208.3125 C29.51 208.3125 3.77 208.3125 -22.75 208.3125 C-27.33824482 192.25364314 -28.03915259 175.62121967 -28 159 C-27.99913391 158.29537628 -27.99826782 157.59075256 -27.99737549 156.86477661 C-27.9572326 144.25898934 -27.9572326 144.25898934 -26.75 140.3125 C-25.780625 140.18875 -24.81125 140.065 -23.8125 139.9375 C-22.801875 139.73125 -21.79125 139.525 -20.75 139.3125 C-20.42 138.6525 -20.09 137.9925 -19.75 137.3125 C-22.06 137.3125 -24.37 137.3125 -26.75 137.3125 C-26.42 134.3425 -26.09 131.3725 -25.75 128.3125 C-23.44 128.3125 -21.13 128.3125 -18.75 128.3125 C-18.75 127.3225 -18.75 126.3325 -18.75 125.3125 C-20.73 125.3125 -22.71 125.3125 -24.75 125.3125 C-24.42 122.3425 -24.09 119.3725 -23.75 116.3125 C-21.44 116.3125 -19.13 116.3125 -16.75 116.3125 C-16.75 115.6525 -16.75 114.9925 -16.75 114.3125 C-18.73 114.3125 -20.71 114.3125 -22.75 114.3125 C-22.42 111.3425 -22.09 108.3725 -21.75 105.3125 C-19.44 105.3125 -17.13 105.3125 -14.75 105.3125 C-14.75 104.6525 -14.75 103.9925 -14.75 103.3125 C-17.72 102.8175 -17.72 102.8175 -20.75 102.3125 C-20.09 99.3425 -19.43 96.3725 -18.75 93.3125 C-16.11 93.3125 -13.47 93.3125 -10.75 93.3125 C-10.75 92.6525 -10.75 91.9925 -10.75 91.3125 C-12.73 91.3125 -14.71 91.3125 -16.75 91.3125 C-16.16162314 86.60548514 -14.19104424 80.75354424 -10.75 77.3125 C-10.46758425 73.06941735 -10.51812944 68.81385399 -10.5 64.5625 C-10.479375 63.36882812 -10.45875 62.17515625 -10.4375 60.9453125 C-10.43234375 59.79289062 -10.4271875 58.64046875 -10.421875 57.453125 C-10.40785645 55.86806152 -10.40785645 55.86806152 -10.39355469 54.25097656 C-10.87990448 50.24158879 -12.30795142 47.44553817 -15.5 44.9375 C-26.69698808 41.82722553 -43.91495466 52.41698753 -53.49609375 57.75 C-60.7052618 61.95963624 -67.2677554 67.07358379 -73.75 72.3125 C-74.5853125 72.98539062 -75.420625 73.65828125 -76.28125 74.3515625 C-80.93075839 78.26787918 -84.90806073 82.61066056 -88.75 87.3125 C-89.51183594 88.22515625 -90.27367188 89.1378125 -91.05859375 90.078125 C-115.47072272 120.39334288 -124.22171736 158.13457377 -120.43359375 196.51855469 C-119.61812358 202.22882515 -118.331362 207.76928693 -116.75 213.3125 C-116.56808105 213.97411133 -116.38616211 214.63572266 -116.19873047 215.31738281 C-110.70090081 234.84229352 -100.80123898 251.89270284 -87.75 267.3125 C-87.01265625 268.19679688 -86.2753125 269.08109375 -85.515625 269.9921875 C-64.0636453 294.73907911 -32.02625781 310.10603877 0.28125 314.03125 C38.88685809 316.76708049 75.71635361 307.12846814 105.43359375 281.62109375 C131.91502423 258.24259701 150.68836859 224.77336468 153.15625 189.05078125 C153.1871875 188.14714844 153.218125 187.24351562 153.25 186.3125 C153.27578125 185.68005371 153.3015625 185.04760742 153.328125 184.39599609 C154.62264805 148.51343538 143.85462498 114.60243204 120.25 87.3125 C119.57710938 86.50683594 118.90421875 85.70117188 118.2109375 84.87109375 C105.27789187 69.84524619 89.4813301 59.71610301 71.8359375 51.0859375 C65.07030303 47.76462603 59.97336788 45.1634969 56.25 38.3125 C54.20371213 32.1736364 54.14428035 24.81233235 56.875 18.875 C60.03955911 13.49636773 64.36279679 10.35374754 70.25 8.3125 C84.95975605 5.18935893 100.74783827 15.88282928 112.64990234 23.50708008 C122.87705458 30.26481748 132.34906889 37.88149382 141.25 46.3125 C142.64992188 47.61574219 142.64992188 47.61574219 144.078125 48.9453125 C173.98291406 77.37411411 195.12398003 120.7996674 196.42700195 162.328125 C196.45311773 163.73948953 196.47330452 165.15097332 196.48828125 166.5625 C196.49802979 167.32996048 196.50777832 168.09742096 196.51782227 168.88813782 C196.69417295 186.38069288 196.35860279 203.20465893 192.25 220.3125 C192.07339844 221.07143555 191.89679688 221.83037109 191.71484375 222.61230469 C181.93575714 263.2679518 155.70848808 299.75976628 122.25 324.3125 C121.41855469 324.93439209 121.41855469 324.93439209 120.5703125 325.56884766 C94.0145184 345.22855086 59.32817857 357.34317609 26.25 358.3125 C25.54182129 358.33828125 24.83364258 358.3640625 24.10400391 358.390625 C-27.95889486 360.08752127 -74.39796051 341.12005885 -112.30078125 305.9453125 C-144.89984179 274.30339191 -164.243741 228.92568709 -165.14532471 183.65411377 C-165.33354952 169.05520406 -164.96590539 154.6099053 -161.75 140.3125 C-161.57307617 139.5189209 -161.39615234 138.7253418 -161.21386719 137.90771484 C-153.2438197 103.25383824 -136.1145634 73.94725391 -111.75 48.3125 C-111.17121094 47.68085937 -110.59242187 47.04921875 -109.99609375 46.3984375 C-104.23750154 40.30789637 -97.45202964 35.30782343 -90.75 30.3125 C-90.18845215 29.8906543 -89.6269043 29.46880859 -89.04833984 29.03417969 C-62.59706565 9.46194683 -32.61960189 0.13019667 0 0 Z " fill="#00B0EA" transform="translate(181.75,16.6875)"/>
<path d="M0 0 C1.76670044 -0.00833862 1.76670044 -0.00833862 3.5690918 -0.0168457 C14.95384531 0.07837312 23.92049662 1.34728458 32.421875 9.359375 C40.29208883 17.68916336 41.68166302 24.90353038 41.55078125 36.046875 C41.55842471 38.33594039 41.56691484 40.62500307 41.57617188 42.9140625 C41.57396684 46.4862188 41.56253612 50.05782933 41.53491211 53.62988281 C40.93025498 70.7442668 40.93025498 70.7442668 46.96166992 86.31738281 C48.25 88.3125 48.25 88.3125 48.25 91.3125 C45.775 91.8075 45.775 91.8075 43.25 92.3125 C46.22 92.8075 46.22 92.8075 49.25 93.3125 C50.24 97.7675 50.24 97.7675 51.25 102.3125 C49.6 102.3125 47.95 102.3125 46.25 102.3125 C46.25 103.3025 46.25 104.2925 46.25 105.3125 C48.23 105.3125 50.21 105.3125 52.25 105.3125 C52.58 108.2825 52.91 111.2525 53.25 114.3125 C51.6 114.3125 49.95 114.3125 48.25 114.3125 C48.25 114.9725 48.25 115.6325 48.25 116.3125 C50.23 116.3125 52.21 116.3125 54.25 116.3125 C54.58 119.2825 54.91 122.2525 55.25 125.3125 C53.6 125.3125 51.95 125.3125 50.25 125.3125 C50.25 126.3025 50.25 127.2925 50.25 128.3125 C52.23 128.3125 54.21 128.3125 56.25 128.3125 C56.58 131.2825 56.91 134.2525 57.25 137.3125 C55.6 137.3125 53.95 137.3125 52.25 137.3125 C52.25 138.3025 52.25 139.2925 52.25 140.3125 C54.56 140.3125 56.87 140.3125 59.25 140.3125 C59.58132177 163.32661989 59.78308858 185.64705709 55.25 208.3125 C29.51 208.3125 3.77 208.3125 -22.75 208.3125 C-27.33824482 192.25364314 -28.03915259 175.62121967 -28 159 C-27.99913391 158.29537628 -27.99826782 157.59075256 -27.99737549 156.86477661 C-27.9572326 144.25898934 -27.9572326 144.25898934 -26.75 140.3125 C-25.780625 140.18875 -24.81125 140.065 -23.8125 139.9375 C-22.801875 139.73125 -21.79125 139.525 -20.75 139.3125 C-20.42 138.6525 -20.09 137.9925 -19.75 137.3125 C-22.06 137.3125 -24.37 137.3125 -26.75 137.3125 C-26.42 134.3425 -26.09 131.3725 -25.75 128.3125 C-23.44 128.3125 -21.13 128.3125 -18.75 128.3125 C-18.75 127.3225 -18.75 126.3325 -18.75 125.3125 C-20.73 125.3125 -22.71 125.3125 -24.75 125.3125 C-24.42 122.3425 -24.09 119.3725 -23.75 116.3125 C-21.44 116.3125 -19.13 116.3125 -16.75 116.3125 C-16.75 115.6525 -16.75 114.9925 -16.75 114.3125 C-18.73 114.3125 -20.71 114.3125 -22.75 114.3125 C-22.42 111.3425 -22.09 108.3725 -21.75 105.3125 C-19.44 105.3125 -17.13 105.3125 -14.75 105.3125 C-14.75 104.6525 -14.75 103.9925 -14.75 103.3125 C-17.72 102.8175 -17.72 102.8175 -20.75 102.3125 C-20.09 99.3425 -19.43 96.3725 -18.75 93.3125 C-16.11 93.3125 -13.47 93.3125 -10.75 93.3125 C-10.75 92.6525 -10.75 91.9925 -10.75 91.3125 C-12.73 91.3125 -14.71 91.3125 -16.75 91.3125 C-16.16162314 86.60548514 -14.19104424 80.75354424 -10.75 77.3125 C-10.46758425 73.06941735 -10.51812944 68.81385399 -10.5 64.5625 C-10.479375 63.36882812 -10.45875 62.17515625 -10.4375 60.9453125 C-10.43234375 59.79289062 -10.4271875 58.64046875 -10.421875 57.453125 C-10.40785645 55.86806152 -10.40785645 55.86806152 -10.39355469 54.25097656 C-10.80081518 50.89358799 -11.78366258 49.03623699 -13.75 46.3125 C-17.28324535 43.58730628 -20.60637497 44.29509091 -24.875 44.8125 C-56.5898415 49.06275494 -86.92525578 67.61572279 -109.75 89.3125 C-110.27851562 89.8084668 -110.80703125 90.30443359 -111.3515625 90.81542969 C-139.18244863 117.07368013 -155.20191436 150.40488316 -163.75 187.3125 C-164.08 187.3125 -164.41 187.3125 -164.75 187.3125 C-165.93780518 133.39223619 -148.96349427 87.46603426 -111.75 48.3125 C-111.17121094 47.68085937 -110.59242187 47.04921875 -109.99609375 46.3984375 C-104.23750154 40.30789637 -97.45202964 35.30782343 -90.75 30.3125 C-90.18845215 29.8906543 -89.6269043 29.46880859 -89.04833984 29.03417969 C-62.59706565 9.46194683 -32.61960189 0.13019667 0 0 Z " fill="#005CAA" transform="translate(181.75,16.6875)"/>
<path d="M0 0 C17.30087164 8.47343235 32.67375104 19.6701021 46.64404297 32.90283203 C47.57732422 33.77166016 48.51060547 34.64048828 49.47216797 35.53564453 C78.98836474 63.5950333 99.78161196 106.07715338 101.74432373 146.99336243 C101.79098199 149.18767777 101.80876496 151.3799004 101.81201172 153.57470703 C101.81534012 154.37837708 101.81866852 155.18204712 101.82209778 156.0100708 C101.8271291 157.70088128 101.82950729 159.39170157 101.8293457 161.08251953 C101.83152531 163.63217035 101.84970281 166.18138286 101.86865234 168.73095703 C101.89833966 177.6502024 101.58088459 186.14589369 99.64404297 194.90283203 C99.31404297 194.90283203 98.98404297 194.90283203 98.64404297 194.90283203 C98.53447266 193.84966797 98.42490234 192.79650391 98.31201172 191.71142578 C94.5731681 157.0826123 82.93166532 123.13912512 60.64404297 95.90283203 C60.22010254 95.37882812 59.79616211 94.85482422 59.359375 94.31494141 C40.07839664 70.56066336 10.71930819 44.48902579 -20.35595703 38.02783203 C-26.62036051 36.57632391 -33.22648586 33.09889726 -36.91845703 27.71533203 C-40.1103454 21.47033306 -40.61082224 14.29127494 -38.67236328 7.51220703 C-36.1510768 2.03023975 -32.51766965 -1.64631629 -26.98095703 -4.18701172 C-17.15537191 -7.59379942 -8.93277323 -4.18938194 0 0 Z " fill="#005CAA" transform="translate(276.35595703125,30.09716796875)"/>
<path d="M0 0 C25.41 0 50.82 0 77 0 C77 11.55 77 23.1 77 35 C73.28361914 38.71638086 72.19966241 38.37853778 67.08178711 38.38818359 C66.03256325 38.39606903 66.03256325 38.39606903 64.96214294 38.40411377 C62.65031602 38.41731679 60.33917765 38.40857609 58.02734375 38.3984375 C56.42216357 38.40045793 54.81698428 38.40336911 53.21180725 38.40713501 C49.84839129 38.41155856 46.48521436 38.40512562 43.12182617 38.39111328 C38.80493402 38.3740074 34.48860081 38.38387094 30.17172909 38.40183067 C26.85779078 38.41265605 23.54398566 38.4092282 20.23004341 38.4014473 C18.6379852 38.39944254 17.04591499 38.40191421 15.45387077 38.40888596 C13.23185926 38.41648177 11.01076157 38.40492454 8.78881836 38.38818359 C7.52323593 38.38579681 6.2576535 38.38341003 4.95372009 38.38095093 C3.97899246 38.25523712 3.00426483 38.12952332 2 38 C-5.03592734 27.44610899 0 12.68419839 0 0 Z M9 7 C9 15.25 9 23.5 9 32 C9.99 32 10.98 32 12 32 C12 23.75 12 15.5 12 7 C11.01 7 10.02 7 9 7 Z M17 7 C17 15.25 17 23.5 17 32 C17.99 32 18.98 32 20 32 C20 23.75 20 15.5 20 7 C19.01 7 18.02 7 17 7 Z M25 7 C25 15.25 25 23.5 25 32 C25.99 32 26.98 32 28 32 C28 23.75 28 15.5 28 7 C27.01 7 26.02 7 25 7 Z M33 7 C33 15.25 33 23.5 33 32 C33.99 32 34.98 32 36 32 C36 23.75 36 15.5 36 7 C35.01 7 34.02 7 33 7 Z M41 7 C41 15.25 41 23.5 41 32 C41.99 32 42.98 32 44 32 C44 23.75 44 15.5 44 7 C43.01 7 42.02 7 41 7 Z M49 7 C49 15.25 49 23.5 49 32 C49.99 32 50.98 32 52 32 C52 23.75 52 15.5 52 7 C51.01 7 50.02 7 49 7 Z M57 7 C57 15.25 57 23.5 57 32 C57.99 32 58.98 32 60 32 C60 23.75 60 15.5 60 7 C59.01 7 58.02 7 57 7 Z M65 7 C65 15.25 65 23.5 65 32 C65.99 32 66.98 32 68 32 C68 23.75 68 15.5 68 7 C67.01 7 66.02 7 65 7 Z " fill="#005CAA" transform="translate(159,227)"/>
</svg>
