<svg xmlns="http://www.w3.org/2000/svg" fill="none" viewBox="0 0 500 500"><path fill="#003DA5" fill-rule="evenodd" d="m113.22 144.994 108.915 49.477h166.817l13.811-23.88c8.283-14.353-1.718-31.591-16.826-31.591H114.404a3.111 3.111 0 0 0-1.184 5.994Zm108.915 70.716h271.727a6.192 6.192 0 0 1 6.077 5.32 6.184 6.184 0 0 1-.918 4.207 6.184 6.184 0 0 1-3.441 2.591L3.933 360.885a3.1 3.1 0 0 1-3.591-1.566 3.094 3.094 0 0 1 .82-3.829l220.973-139.78Zm40.979 142.049-178.31 3.24 246.505-66.682-21.381 37.115c-9.255 16.039-29.518 26.003-46.814 26.327Z" clip-rule="evenodd"/></svg>