<svg xmlns="http://www.w3.org/2000/svg" class="icon" viewBox="0 0 1024 1024"><path fill="#133C9A" d="M891.319 340.846c4.9 0 9.728.292 14.628.804a409.966 409.966 0 0 1 108.837 30.062c10.094 4.535 12.58 8.192 3.95 17.335a351.285 351.285 0 0 0-61.001 89.966c-16.823 35.328-35.109 69.851-52.298 105.033a225.28 225.28 0 0 1-52.15 69.412c-53.614 48.494-116.151 68.974-187.539 59.1-81.92-11.337-159.451-38.985-232.74-75.484a143.506 143.506 0 0 1-10.46-5.485 5.34 5.34 0 0 1 .293-9.216l5.12-2.707c59.246-31.67 108.836-75.849 156.526-122.295 20.187-19.529 39.497-40.009 59.904-59.318a345.015 345.015 0 0 1 160.182-85.797c13.166-3.218 26.551-5.778 39.79-8.63h.585l28.233-2.56"/><path fill="#3370FF" d="M317.66 913.847c-8.997-.512-31.16-3.584-33.866-3.95a536.43 536.43 0 0 1-165.083-48.274c-30.208-14.117-59.246-30.72-88.357-46.958-19.163-10.679-27.794-27.282-27.648-49.883a17823.3 17823.3 0 0 0 0-250.149C2.414 461.02.731 407.406 0 353.72c0-4.754.731-9.509 2.194-13.897 3.292-9.728 9.948-10.24 16.53-3.95 7.607 7.314 13.678 16.238 21.212 23.406 67.291 66.413 138.752 127.195 218.77 177.225a1207.66 1207.66 0 0 0 140.435 77.385c77.75 35.328 157.55 66.487 241.078 86.235 73.875 17.482 145.628 6.437 205.459-40.374 18.285-15.653 27.282-27.063 48.932-55.882a359.863 359.863 0 0 1-37.376 72.85c-13.897 21.944-45.348 51.2-69.193 74.094-36.279 35.109-83.748 63.562-128.292 87.552-48.567 26.186-99.036 47.104-152.942 58.515-27.648 6.948-67.584 14.848-81.335 15.58-2.414-.147-10.679 1.681-14.848 1.389-35.547 2.633-57.49 3.657-92.891 0z"/><path fill="#00D6B9" d="M165.083 110.519a52.443 52.443 0 0 1 7.461 0c152.65 0 304.128 2.487 456.63 2.487.293 0 .586 0 .732.22a351.057 351.057 0 0 1 39.278 40.155c34.45 34.23 60.123 93.622 77.678 129.755 8.777 25.015 21.943 48.86 28.16 76.8v.439c-15.58 5.047-30.72 11.19-45.349 18.505-44.178 22.382-64.22 38.766-100.79 74.752-19.969 19.53-37.011 37.083-63.489 62.098a563.346 563.346 0 0 1-29.769 26.917c-7.022-12.434-125.732-244.59-364.251-427.3"/></svg>