<?xml version="1.0" encoding="UTF-8" standalone="no"?>
<!-- Created with Inkscape (http://www.inkscape.org/) -->

<svg
   version="1.1"
   id="svg1"
   width="312.74667"
   height="84.879997"
   viewBox="0 0 312.74667 84.879997"
   sodipodi:docname="ipht_logo_farbig_en_rgb.eps"
   xmlns:inkscape="http://www.inkscape.org/namespaces/inkscape"
   xmlns:sodipodi="http://sodipodi.sourceforge.net/DTD/sodipodi-0.dtd"
   xmlns="http://www.w3.org/2000/svg"
   xmlns:svg="http://www.w3.org/2000/svg">
  <defs
     id="defs1" />
  <sodipodi:namedview
     id="namedview1"
     pagecolor="#ffffff"
     bordercolor="#000000"
     borderopacity="0.25"
     inkscape:showpageshadow="2"
     inkscape:pageopacity="0.0"
     inkscape:pagecheckerboard="0"
     inkscape:deskcolor="#d1d1d1">
    <inkscape:page
       x="0"
       y="0"
       inkscape:label="1"
       id="page1"
       width="312.74667"
       height="84.879997"
       margin="0"
       bleed="0" />
  </sodipodi:namedview>
  <g
     id="g1"
     inkscape:groupmode="layer"
     inkscape:label="1">
    <g
       id="group-R5">
      <path
         id="path2"
         d="m 1071.45,0.855469 h 15.25 V 155.246 h -15.25 V 0.855469"
         style="fill:#223e70;fill-opacity:1;fill-rule:nonzero;stroke:none"
         transform="matrix(0.13333333,0,0,-0.13333333,0,84.88)" />
      <path
         id="path3"
         d="m 1071.45,278.262 h 15.25 V 155.246 h -15.25 v 123.016"
         style="fill:#34a07f;fill-opacity:1;fill-rule:nonzero;stroke:none"
         transform="matrix(0.13333333,0,0,-0.13333333,0,84.88)" />
      <path
         id="path4"
         d="m 1071.45,278.262 h 15.25 v 358.301 h -15.25 V 278.262"
         style="fill:#7ecb29;fill-opacity:1;fill-rule:nonzero;stroke:none"
         transform="matrix(0.13333333,0,0,-0.13333333,0,84.88)" />
      <path
         id="path5"
         d="m 1961.06,253.68 c 34.82,-81.321 135.8,-121.168 227.19,-92.43 57.97,18.133 99.02,60.348 113.1,109.891 -21.83,-21.645 -50.81,-38.141 -84.75,-46.434 -93.03,-22.641 -191.11,24.238 -220.49,107.551 -9.41,26.703 -10.3,54.09 -4.22,79.75 -40.57,-42.617 -54.46,-103.102 -30.83,-158.328"
         style="fill:#223e70;fill-opacity:1;fill-rule:nonzero;stroke:none"
         transform="matrix(0.13333333,0,0,-0.13333333,0,84.88)" />
      <path
         id="path6"
         d="m 2314.43,327.848 c 53.14,69.769 36.36,176.117 -35.35,240.66 -45.4,40.98 -103.17,55.621 -153.57,43.48 30.02,-8.183 59.2,-25.027 83.75,-50.172 67.24,-68.918 76.4,-176.23 18.75,-242.296 -18.49,-21.157 -41.91,-35.344 -67.4,-42.684 57.87,-14.008 117.72,3.641 153.82,51.012"
         style="fill:#34a07f;fill-opacity:1;fill-rule:nonzero;stroke:none"
         transform="matrix(0.13333333,0,0,-0.13333333,0,84.88)" />
      <path
         id="path7"
         d="m 2069.65,593.023 c -87.98,11.555 -172.16,-54.957 -191.84,-148.226 -12.57,-59.121 4.15,-115.973 40.46,-153.379 -8.19,29.828 -8.39,63.18 1.01,96.605 25.79,91.575 114.69,151.993 201.74,134.75 27.89,-5.546 52.21,-18.75 71.62,-37.078 -17.32,56.641 -63.25,99.473 -122.99,107.328"
         style="fill:#7ecb29;fill-opacity:1;fill-rule:nonzero;stroke:none"
         transform="matrix(0.13333333,0,0,-0.13333333,0,84.88)" />
      <path
         id="path8"
         d="m 1168.52,278.023 h 53.44 v 197.93 h -53.44 v -197.93"
         style="fill:#171717;fill-opacity:1;fill-rule:nonzero;stroke:none"
         transform="matrix(0.13333333,0,0,-0.13333333,0,84.88)" />
      <path
         id="path9"
         d="m 1430.69,353.219 v 55.429 c 0,43.2 -20.59,71.282 -65.35,71.282 -16.99,0 -32.45,-6.317 -45.51,-13.844 v 9.863 h -49.47 V 202.766 h 53.44 v 78.004 c 11.48,-1.606 22.17,-2.743 29.28,-2.743 52.65,0 77.61,30.09 77.61,75.192 m -53.47,1.988 c 0,-18.598 -7.51,-31.672 -28.1,-31.672 H 1323.8 V 425.73 c 9.49,3.915 18.97,6.676 27.29,6.676 19.04,0 26.13,-11.066 26.13,-29.679 v -47.52"
         style="fill:#171717;fill-opacity:1;fill-rule:nonzero;stroke:none"
         transform="matrix(0.13333333,0,0,-0.13333333,0,84.88)" />
      <path
         id="path10"
         d="m 1576.22,479.93 c -19.38,0 -35.63,-7.09 -47.54,-14.66 v 93.847 h -53.44 V 278.02 h 53.44 v 144.101 c 9.93,4.727 21.02,8.301 30.49,8.301 17.47,0 22.98,-9.473 22.98,-25.695 V 278.02 h 53.47 v 134.628 c 0,40.36 -14.63,67.282 -59.4,67.282"
         style="fill:#171717;fill-opacity:1;fill-rule:nonzero;stroke:none"
         transform="matrix(0.13333333,0,0,-0.13333333,0,84.88)" />
      <path
         id="path11"
         d="m 1790.63,430.422 v 45.527 h -51.45 v 51.485 h -53.44 V 339.383 c 0,-45.535 20.95,-65.344 58.55,-65.344 22.58,0 46.34,3.981 46.34,3.981 v 48.691 c 0,0 -21.37,-3.18 -31.25,-3.18 -13.07,0 -20.2,6.328 -20.2,22.571 v 84.32 h 51.45"
         style="fill:#171717;fill-opacity:1;fill-rule:nonzero;stroke:none"
         transform="matrix(0.13333333,0,0,-0.13333333,0,84.88)" />
      <path
         id="path12"
         d="m 114.867,278.551 v 31.605 H 33.5898 v 166 H -0.00390625 V 278.551 Z m 153.274,86.929 v 32.797 c 0,46.243 -18.977,81.801 -67.969,81.801 -50.195,0 -72.324,-35.558 -72.324,-93.262 V 370.23 c 0,-68.375 32.8,-95.628 79.832,-95.628 24.504,0 52.55,7.109 52.55,7.109 v 30.43 c 0,0 -30.031,-6.719 -51.367,-6.719 -28.847,0 -46.633,18.57 -47.422,60.058 z m -32.414,26.477 h -74.286 c 0.399,33.981 7.508,59.672 39.122,59.672 28.847,0 35.164,-26.082 35.164,-52.16 z m 115.39,84.172 H 317.535 V 278.551 h 33.582 z M 546.723,341.777 v 71.121 c 0,41.504 -20.157,67.18 -63.231,67.18 -16.992,0 -32.004,-6.316 -43.457,-13.43 v 92.461 H 406.441 V 278.551 h 73.094 c 45.449,0 67.188,21.73 67.188,63.226 m -33.59,0 c 0,-20.945 -10.676,-33.586 -37.543,-33.586 H 440.035 V 438.98 c 12.246,5.926 26.465,11.461 39.5,11.461 24.113,0 33.598,-16.593 33.598,-37.543 z m 227.215,-63.226 v 134.347 c 0,41.504 -14.231,67.18 -56.106,67.18 -22.918,0 -39.519,-9.09 -50.586,-17.777 v 13.828 H 600.074 V 278.551 h 33.582 v 154.898 c 12.258,7.117 28.059,14.617 43.078,14.617 24.883,0 30.028,-14.218 30.028,-35.168 V 278.551 Z m 88.914,197.578 h -33.59 V 278.551 h 33.59 z M 1005.1,278.551 v 29.64 h -90.487 l 90.487,138.301 v 29.637 H 872.719 v -29.637 h 90.492 L 872.719,308.191 v -29.64 H 1005.1"
         style="fill:#171717;fill-opacity:1;fill-rule:nonzero;stroke:none"
         transform="matrix(0.13333333,0,0,-0.13333333,0,84.88)" />
      <path
         id="path13"
         d="m 1213.64,42.9883 c 0,13.543 -7.75,18.3008 -20,18.3008 h -20 V 0.859375 h 11.47 V 24.6875 h 8.53 c 12.25,0 20,4.7617 20,18.3008 m -11.49,0 c 0,-5.961 -3.14,-8.0899 -9.36,-8.0899 h -7.68 v 16.1797 h 7.68 c 6.22,0 9.36,-2.1289 9.36,-8.0898 M 1266.57,0.859375 V 61.2891 h -11.49 V 37.0273 h -18.74 v 24.2618 h -11.47 V 0.859375 h 11.47 V 26.3867 h 18.74 V 0.859375 Z m 53.77,21.269525 v 17.8828 c 0,14.1289 -7.23,22.1289 -20.85,22.1289 -13.63,0 -20.85,-8 -20.85,-22.1289 V 22.1289 C 1278.64,8 1285.86,0 1299.49,0 c 13.62,0 20.85,8 20.85,22.1289 m -11.49,0.8516 c 0,-7.0703 -2.13,-12.3399 -9.36,-12.3399 -7.25,0 -9.38,5.2696 -9.38,12.3399 v 16.1797 c 0,7.0703 2.13,12.3515 9.38,12.3515 7.23,0 9.36,-5.2812 9.36,-12.3515 z m 60.63,27.6797 v 10.6289 h -41.7 V 50.6602 h 15.15 V 0.859375 h 11.49 V 50.6602 Z m 49.15,-28.5313 v 17.8828 c 0,14.1289 -7.24,22.1289 -20.85,22.1289 -13.63,0 -20.85,-8 -20.85,-22.1289 V 22.1289 C 1376.93,8 1384.15,0 1397.78,0 c 13.61,0 20.85,8 20.85,22.1289 m -11.49,0.8516 c 0,-7.0703 -2.12,-12.3399 -9.36,-12.3399 -7.25,0 -9.38,5.2696 -9.38,12.3399 v 16.1797 c 0,7.0703 2.13,12.3515 9.38,12.3515 7.24,0 9.36,-5.2812 9.36,-12.3515 z M 1472.4,0.859375 V 61.2891 h -11.5 V 25.1992 l -18.74,36.0899 h -11.47 V 0.859375 h 11.47 V 36.9414 L 1460.9,0.859375 Z m 23.91,60.429725 h -11.47 V 0.859375 h 11.47 z M 1540.43,1.20313 V 11.832 c 0,0 -6.81,-0.9414 -10.64,-0.9414 -7.75,0 -9.79,5.0196 -9.79,12.0899 v 16.1797 c 0,7.0703 2.12,12.0898 9.36,12.0898 3.83,0 11.07,-0.8477 11.07,-0.8477 v 10.5469 c 0,0 -6.23,1.1914 -11.07,1.1914 -13.61,0 -20.85,-8 -20.85,-22.1289 V 22.1289 C 1508.51,8 1515.75,0 1529.36,0 c 4.84,0 11.07,1.20313 11.07,1.20313 m 71.51,49.45707 v 10.6289 h -41.71 V 50.6602 h 15.16 V 0.859375 h 11.48 V 50.6602 Z M 1656.72,0.859375 V 11.4883 h -22.97 v 14.8984 h 21.28 v 10.6406 h -21.28 v 13.6329 h 22.97 v 10.6289 h -34.47 V 0.859375 Z m 42.13,0.343755 V 11.832 c 0,0 -6.8,-0.9414 -10.63,-0.9414 -7.76,0 -9.8,5.0196 -9.8,12.0899 v 16.1797 c 0,7.0703 2.13,12.0898 9.38,12.0898 3.83,0 11.05,-0.8477 11.05,-0.8477 v 10.5469 c 0,0 -6.21,1.1914 -11.05,1.1914 -13.62,0 -20.85,-8 -20.85,-22.1289 V 22.1289 C 1666.95,8 1674.18,0 1687.8,0 c 4.84,0 11.05,1.20313 11.05,1.20313 m 52.48,-0.343755 V 61.2891 h -11.47 V 37.0273 h -18.74 v 24.2618 h -11.49 V 0.859375 h 11.49 V 26.3867 h 18.74 V 0.859375 Z m 54.17,0 V 61.2891 h -11.47 V 25.1992 l -18.74,36.0899 H 1763.8 V 0.859375 h 11.49 V 36.9414 l 18.74,-36.082025 z m 53.77,21.269525 v 17.8828 c 0,14.1289 -7.22,22.1289 -20.85,22.1289 -13.62,0 -20.86,-8 -20.86,-22.1289 V 22.1289 C 1817.56,8 1824.8,0 1838.42,0 c 13.63,0 20.85,8 20.85,22.1289 m -11.47,0.8516 c 0,-7.0703 -2.13,-12.3399 -9.38,-12.3399 -7.23,0 -9.36,5.2696 -9.36,12.3399 v 16.1797 c 0,7.0703 2.13,12.3515 9.36,12.3515 7.25,0 9.38,-5.2812 9.38,-12.3515 z M 1905.81,0.859375 V 11.4883 h -22.99 v 49.8008 h -11.49 V 0.859375 Z m 49.54,21.269525 v 17.8828 c 0,14.1289 -7.23,22.1289 -20.86,22.1289 -13.63,0 -20.85,-8 -20.85,-22.1289 V 22.1289 C 1913.64,8 1920.86,0 1934.49,0 c 13.63,0 20.86,8 20.86,22.1289 m -11.5,0.8516 c 0,-7.0703 -2.13,-12.3399 -9.36,-12.3399 -7.25,0 -9.38,5.2696 -9.38,12.3399 v 16.1797 c 0,7.0703 2.13,12.3515 9.38,12.3515 7.23,0 9.36,-5.2812 9.36,-12.3515 z M 2008.13,4.67969 V 35.3203 h -21.71 V 24.6875 h 10.23 V 12.168 c 0,0 -4.01,-1.5274 -9.04,-1.5274 -6.89,0 -9.7,4.5078 -9.7,12.3477 v 15.3125 c 0,8.1797 3.06,13.2109 11.5,13.2109 6.3,0 17.01,-2.6445 17.01,-2.6445 v 10.2109 c 0,0 -7.73,3.0625 -17.43,3.0625 -14.82,0 -22.57,-8.6836 -22.57,-23.8398 V 22.1406 C 1966.42,7.91016 1973.05,0 1987.28,0 c 11.67,0 20.85,4.67969 20.85,4.67969 m 55.65,56.60941 h -12.77 l -10.8,-27.6602 -10.9,27.6602 h -12.76 l 17.88,-41.2774 V 0.859375 h 11.47 V 20.0117 l 17.88,41.2774"
         style="fill:#171717;fill-opacity:1;fill-rule:nonzero;stroke:none"
         transform="matrix(0.13333333,0,0,-0.13333333,0,84.88)" />
      <path
         id="path14"
         d="m 1208.1,94.8398 v 10.6292 h -22.98 v 49.801 h -11.49 V 94.8398 Z m 45.26,0 v 10.6292 h -22.99 v 14.914 h 21.28 v 10.629 h -21.28 v 13.629 h 22.99 v 10.629 h -34.48 V 94.8398 Z m 22.31,60.4302 H 1264.2 V 94.8398 h 11.47 z m 54.07,-43.407 c 0,7.578 -3.4,11.84 -8.68,14.051 4.25,2.379 6.98,6.375 6.98,12.77 0,11.996 -7.32,16.586 -19.58,16.586 h -20.42 V 94.8398 h 22.12 c 12.26,0 19.58,4.5899 19.58,17.0232 m -13.19,25.961 c 0,-5.191 -2.8,-7.242 -8.94,-7.242 h -8.08 v 14.488 h 8.08 c 5.72,0 8.94,-1.445 8.94,-7.246 m 1.71,-25.113 c 0,-5.707 -3.16,-7.672 -8.95,-7.672 h -9.78 v 15.344 h 9.78 c 5.29,0 8.95,-1.621 8.95,-7.672 m 64.41,-17.8712 V 155.27 h -11.47 v -36.09 l -18.74,36.09 h -11.49 V 94.8398 h 11.49 v 36.0942 l 18.74,-36.0942 z m 23.92,60.4302 h -11.48 V 94.8398 h 11.48 z m 45.17,-60.4302 v 10.6292 h -20.68 l 20.68,39.172 v 10.629 h -34.47 v -10.629 h 20.68 l -20.68,-39.172 V 94.8398 Z m 43.84,60.4302 h -11.47 V 94.8398 h 11.47 z m 54.06,-60.4302 V 155.27 h -11.48 v -36.09 l -18.74,36.09 h -11.48 V 94.8398 h 11.48 v 36.0942 l 18.74,-36.0942 z m 47.84,16.7622 v 2.558 c 0,10.555 -5.97,13.961 -12.43,16.09 l -7.24,2.383 c -2.99,1.031 -5.03,2.558 -5.03,5.371 v 1.277 c 0,4.078 2.23,6.211 8.09,6.211 5.54,0 15.76,-1.621 15.76,-1.621 v 10.383 c 0,0 -8.52,1.871 -15.93,1.871 -10.64,0 -19.4,-4.762 -19.4,-16.844 v -2.133 c 0,-8.933 4.68,-12.949 10.8,-14.984 l 7.24,-2.383 c 3.75,-1.277 6.65,-2.73 6.65,-6.48 v -1.699 c 0,-4.942 -2.47,-6.981 -8.94,-6.981 -5.03,0 -16.18,2.211 -16.18,2.211 V 96.2031 c 0,0 9.61,-2.2148 16.85,-2.2148 13.12,0 19.76,4.3437 19.76,17.6137 m 51.4,33.039 v 10.629 h -41.71 v -10.629 h 15.16 V 94.8398 h 11.48 v 49.8012 z m 21.15,10.629 h -11.48 V 94.8398 h 11.48 z m 51.3,-10.629 v 10.629 h -41.71 v -10.629 h 15.16 V 94.8398 h 11.48 v 49.8012 z m 52.03,-27.676 v 38.305 h -11.48 v -38.305 c 0,-7.063 -2.13,-12.344 -9.37,-12.344 -7.24,0 -9.37,5.281 -9.37,12.344 v 38.305 h -11.48 v -38.305 c 0,-16.25 7.56,-22.9767 20.85,-22.9767 13.29,0 20.85,6.7267 20.85,22.9767 m 52.04,27.676 v 10.629 h -41.71 v -10.629 h 15.15 V 94.8398 h 11.48 v 49.8012 z m 44.78,-49.8012 v 10.6292 h -22.98 v 14.914 h 21.28 v 10.629 h -21.28 v 13.629 h 22.98 v 10.629 h -34.47 V 94.8398 Z m 68.54,30.9802 c 0,7.5 -4.59,12.434 -13.45,12.434 -9.37,0 -15.08,-4.934 -16.78,-14.473 l -2.38,-13.621 c -0.25,-1.277 -0.33,-2.555 -0.33,-3.75 0,-7.5741 4.67,-12.4217 13.44,-12.4217 9.71,0 15.07,4.9336 16.77,14.4647 l 2.38,13.629 c 0.25,1.277 0.35,2.547 0.35,3.738 m -7.15,-0.418 c 0,-0.773 -0.09,-1.621 -0.26,-2.472 l -2.38,-13.625 c -0.85,-4.852 -3.14,-8.942 -9.03,-8.942 -5.03,0 -6.98,2.809 -6.98,6.559 0,0.769 0.08,1.531 0.25,2.383 l 2.38,13.625 c 0.86,4.851 3.24,8.941 9.12,8.941 5.02,0 6.9,-2.808 6.9,-6.469 m 44.15,29.36 c 0,0 -3.15,1.363 -6.9,1.363 -6.3,0 -9.96,-2.805 -11.15,-9.781 l -1.62,-8.949 h -5.95 l -1.03,-5.946 h 5.96 l -9.36,-52.7771 7.57,1.6992 9.03,51.0779 h 7.67 l 1.01,5.946 h -7.65 l 1.35,7.835 c 0.6,3.161 2.3,4.094 4.34,4.094 2.13,0 5.62,-0.851 5.62,-0.851 l 1.11,6.289"
         style="fill:#171717;fill-opacity:1;fill-rule:nonzero;stroke:none"
         transform="matrix(0.13333333,0,0,-0.13333333,0,84.88)" />
    </g>
  </g>
</svg>
