<svg xmlns="http://www.w3.org/2000/svg" viewBox="0 0 312.747 84.88"><path d="M1071.45.855h15.25v154.391h-15.25V.856" style="fill:#223e70;fill-opacity:1;fill-rule:nonzero;stroke:none" transform="matrix(.13333 0 0 -.13333 0 84.88)"/><path d="M1071.45 278.262h15.25V155.246h-15.25v123.016" style="fill:#34a07f;fill-opacity:1;fill-rule:nonzero;stroke:none" transform="matrix(.13333 0 0 -.13333 0 84.88)"/><path d="M1071.45 278.262h15.25v358.301h-15.25V278.262" style="fill:#7ecb29;fill-opacity:1;fill-rule:nonzero;stroke:none" transform="matrix(.13333 0 0 -.13333 0 84.88)"/><path d="M1961.06 253.68c34.82-81.321 135.8-121.168 227.19-92.43 57.97 18.133 99.02 60.348 113.1 109.891-21.83-21.645-50.81-38.141-84.75-46.434-93.03-22.641-191.11 24.238-220.49 107.551-9.41 26.703-10.3 54.09-4.22 79.75-40.57-42.617-54.46-103.102-30.83-158.328" style="fill:#223e70;fill-opacity:1;fill-rule:nonzero;stroke:none" transform="matrix(.13333 0 0 -.13333 0 84.88)"/><path d="M2314.43 327.848c53.14 69.769 36.36 176.117-35.35 240.66-45.4 40.98-103.17 55.621-153.57 43.48 30.02-8.183 59.2-25.027 83.75-50.172 67.24-68.918 76.4-176.23 18.75-242.296-18.49-21.157-41.91-35.344-67.4-42.684 57.87-14.008 117.72 3.641 153.82 51.012" style="fill:#34a07f;fill-opacity:1;fill-rule:nonzero;stroke:none" transform="matrix(.13333 0 0 -.13333 0 84.88)"/><path d="M2069.65 593.023c-87.98 11.555-172.16-54.957-191.84-148.226-12.57-59.121 4.15-115.973 40.46-153.379-8.19 29.828-8.39 63.18 1.01 96.605 25.79 91.575 114.69 151.993 201.74 134.75 27.89-5.546 52.21-18.75 71.62-37.078-17.32 56.641-63.25 99.473-122.99 107.328" style="fill:#7ecb29;fill-opacity:1;fill-rule:nonzero;stroke:none" transform="matrix(.13333 0 0 -.13333 0 84.88)"/><path d="M1168.52 278.023h53.44v197.93h-53.44v-197.93M1430.69 353.219v55.429c0 43.2-20.59 71.282-65.35 71.282-16.99 0-32.45-6.317-45.51-13.844v9.863h-49.47V202.766h53.44v78.004c11.48-1.606 22.17-2.743 29.28-2.743 52.65 0 77.61 30.09 77.61 75.192m-53.47 1.988c0-18.598-7.51-31.672-28.1-31.672h-25.32V425.73c9.49 3.915 18.97 6.676 27.29 6.676 19.04 0 26.13-11.066 26.13-29.679v-47.52M1576.22 479.93c-19.38 0-35.63-7.09-47.54-14.66v93.847h-53.44V278.02h53.44v144.101c9.93 4.727 21.02 8.301 30.49 8.301 17.47 0 22.98-9.473 22.98-25.695V278.02h53.47v134.628c0 40.36-14.63 67.282-59.4 67.282M1790.63 430.422v45.527h-51.45v51.485h-53.44V339.383c0-45.535 20.95-65.344 58.55-65.344 22.58 0 46.34 3.981 46.34 3.981v48.691s-21.37-3.18-31.25-3.18c-13.07 0-20.2 6.328-20.2 22.571v84.32h51.45M114.867 278.551v31.605H33.59v166H-.004V278.551Zm153.274 86.929v32.797c0 46.243-18.977 81.801-67.969 81.801-50.195 0-72.324-35.558-72.324-93.262V370.23c0-68.375 32.8-95.628 79.832-95.628 24.504 0 52.55 7.109 52.55 7.109v30.43s-30.031-6.719-51.367-6.719c-28.847 0-46.633 18.57-47.422 60.058zm-32.414 26.477h-74.286c.399 33.981 7.508 59.672 39.122 59.672 28.847 0 35.164-26.082 35.164-52.16zm115.39 84.172h-33.582V278.551h33.582zm195.606-134.352v71.121c0 41.504-20.157 67.18-63.231 67.18-16.992 0-32.004-6.316-43.457-13.43v92.461h-33.594V278.551h73.094c45.449 0 67.188 21.73 67.188 63.226m-33.59 0c0-20.945-10.676-33.586-37.543-33.586h-35.555V438.98c12.246 5.926 26.465 11.461 39.5 11.461 24.113 0 33.598-16.593 33.598-37.543zm227.215-63.226v134.347c0 41.504-14.231 67.18-56.106 67.18-22.918 0-39.519-9.09-50.586-17.777v13.828h-33.582V278.551h33.582v154.898c12.258 7.117 28.059 14.617 43.078 14.617 24.883 0 30.028-14.218 30.028-35.168V278.551Zm88.914 197.578h-33.59V278.551h33.59zM1005.1 278.551v29.64h-90.487l90.487 138.301v29.637H872.719v-29.637h90.492l-90.492-138.301v-29.64H1005.1M1213.64 42.988c0 13.543-7.75 18.301-20 18.301h-20V.86h11.47v23.828h8.53c12.25 0 20 4.762 20 18.301m-11.49 0c0-5.96-3.14-8.09-9.36-8.09h-7.68v16.18h7.68c6.22 0 9.36-2.129 9.36-8.09M1266.57.86v60.43h-11.49V37.027h-18.74V61.29h-11.47V.86h11.47v25.528h18.74V.859Zm53.77 21.27v17.883c0 14.129-7.23 22.129-20.85 22.129-13.63 0-20.85-8-20.85-22.13V22.13C1278.64 8 1285.86 0 1299.49 0c13.62 0 20.85 8 20.85 22.129m-11.49.852c0-7.07-2.13-12.34-9.36-12.34-7.25 0-9.38 5.27-9.38 12.34v16.18c0 7.07 2.13 12.35 9.38 12.35 7.23 0 9.36-5.28 9.36-12.35zm60.63 27.68v10.628h-41.7V50.66h15.15V.86h11.49v49.8Zm49.15-28.532v17.883c0 14.129-7.24 22.129-20.85 22.129-13.63 0-20.85-8-20.85-22.13V22.13C1376.93 8 1384.15 0 1397.78 0c13.61 0 20.85 8 20.85 22.129m-11.49.852c0-7.07-2.12-12.34-9.36-12.34-7.25 0-9.38 5.27-9.38 12.34v16.18c0 7.07 2.13 12.35 9.38 12.35 7.24 0 9.36-5.28 9.36-12.35zM1472.4.859v60.43h-11.5V25.2l-18.74 36.09h-11.47V.86h11.47v36.082L1460.9.86Zm23.91 60.43h-11.47V.86h11.47zm44.12-60.086v10.629s-6.81-.941-10.64-.941c-7.75 0-9.79 5.02-9.79 12.09v16.18c0 7.07 2.12 12.089 9.36 12.089 3.83 0 11.07-.848 11.07-.848V60.95s-6.23 1.192-11.07 1.192c-13.61 0-20.85-8-20.85-22.13V22.13C1508.51 8 1515.75 0 1529.36 0c4.84 0 11.07 1.203 11.07 1.203m71.51 49.457v10.63h-41.71V50.66h15.16V.86h11.48v49.8Zm44.78-49.8v10.628h-22.97v14.899h21.28v10.64h-21.28V50.66h22.97v10.63h-34.47V.86Zm42.13.343v10.629s-6.8-.941-10.63-.941c-7.76 0-9.8 5.02-9.8 12.09v16.18c0 7.07 2.13 12.089 9.38 12.089 3.83 0 11.05-.848 11.05-.848V60.95s-6.21 1.192-11.05 1.192c-13.62 0-20.85-8-20.85-22.13V22.13C1666.95 8 1674.18 0 1687.8 0c4.84 0 11.05 1.203 11.05 1.203m52.48-.344v60.43h-11.47V37.027h-18.74V61.29h-11.49V.86h11.49v25.528h18.74V.859Zm54.17 0v60.43h-11.47V25.2l-18.74 36.09h-11.49V.86h11.49v36.082L1794.03.86zm53.77 21.27v17.883c0 14.129-7.22 22.129-20.85 22.129-13.62 0-20.86-8-20.86-22.13V22.13C1817.56 8 1824.8 0 1838.42 0c13.63 0 20.85 8 20.85 22.129m-11.47.852c0-7.07-2.13-12.34-9.38-12.34-7.23 0-9.36 5.27-9.36 12.34v16.18c0 7.07 2.13 12.35 9.36 12.35 7.25 0 9.38-5.28 9.38-12.35zM1905.81.859v10.63h-22.99v49.8h-11.49V.86Zm49.54 21.27v17.883c0 14.129-7.23 22.129-20.86 22.129-13.63 0-20.85-8-20.85-22.13V22.13C1913.64 8 1920.86 0 1934.49 0c13.63 0 20.86 8 20.86 22.129m-11.5.852c0-7.07-2.13-12.34-9.36-12.34-7.25 0-9.38 5.27-9.38 12.34v16.18c0 7.07 2.13 12.35 9.38 12.35 7.23 0 9.36-5.28 9.36-12.35zm64.28-18.301v30.64h-21.71V24.687h10.23V12.168s-4.01-1.527-9.04-1.527c-6.89 0-9.7 4.507-9.7 12.347v15.313c0 8.18 3.06 13.21 11.5 13.21 6.3 0 17.01-2.644 17.01-2.644v10.211s-7.73 3.063-17.43 3.063c-14.82 0-22.57-8.684-22.57-23.84V22.14c0-14.23 6.63-22.141 20.86-22.141 11.67 0 20.85 4.68 20.85 4.68m55.65 56.61h-12.77l-10.8-27.661-10.9 27.66h-12.76l17.88-41.277V.859h11.47v19.153l17.88 41.277M1208.1 94.84v10.629h-22.98v49.801h-11.49V94.84Zm45.26 0v10.629h-22.99v14.914h21.28v10.629h-21.28v13.629h22.99v10.629h-34.48V94.84Zm22.31 60.43h-11.47V94.84h11.47zm54.07-43.407c0 7.578-3.4 11.84-8.68 14.051 4.25 2.379 6.98 6.375 6.98 12.77 0 11.996-7.32 16.586-19.58 16.586h-20.42V94.84h22.12c12.26 0 19.58 4.59 19.58 17.023m-13.19 25.961c0-5.191-2.8-7.242-8.94-7.242h-8.08v14.488h8.08c5.72 0 8.94-1.445 8.94-7.246m1.71-25.113c0-5.707-3.16-7.672-8.95-7.672h-9.78v15.344h9.78c5.29 0 8.95-1.621 8.95-7.672m64.41-17.871v60.43h-11.47v-36.09l-18.74 36.09h-11.49V94.84h11.49v36.094l18.74-36.094zm23.92 60.43h-11.48V94.84h11.48zm45.17-60.43v10.629h-20.68l20.68 39.172v10.629h-34.47v-10.629h20.68l-20.68-39.172v-10.63Zm43.84 60.43h-11.47V94.84h11.47zm54.06-60.43v60.43h-11.48v-36.09l-18.74 36.09h-11.48V94.84h11.48v36.094l18.74-36.094zm47.84 16.762v2.558c0 10.555-5.97 13.961-12.43 16.09l-7.24 2.383c-2.99 1.031-5.03 2.558-5.03 5.371v1.277c0 4.078 2.23 6.211 8.09 6.211 5.54 0 15.76-1.621 15.76-1.621v10.383s-8.52 1.871-15.93 1.871c-10.64 0-19.4-4.762-19.4-16.844v-2.133c0-8.933 4.68-12.949 10.8-14.984l7.24-2.383c3.75-1.277 6.65-2.73 6.65-6.48v-1.699c0-4.942-2.47-6.981-8.94-6.981-5.03 0-16.18 2.211-16.18 2.211V96.203s9.61-2.215 16.85-2.215c13.12 0 19.76 4.344 19.76 17.614m51.4 33.039v10.629h-41.71v-10.629h15.16V94.84h11.48v49.801zm21.15 10.629h-11.48V94.84h11.48zm51.3-10.629v10.629h-41.71v-10.629h15.16V94.84h11.48v49.801zm52.03-27.676v38.305h-11.48v-38.305c0-7.063-2.13-12.344-9.37-12.344-7.24 0-9.37 5.281-9.37 12.344v38.305h-11.48v-38.305c0-16.25 7.56-22.977 20.85-22.977 13.29 0 20.85 6.727 20.85 22.977m52.04 27.676v10.629h-41.71v-10.629h15.15V94.84h11.48v49.801zm44.78-49.801v10.629h-22.98v14.914h21.28v10.629h-21.28v13.629h22.98v10.629h-34.47V94.84Zm68.54 30.98c0 7.5-4.59 12.434-13.45 12.434-9.37 0-15.08-4.934-16.78-14.473l-2.38-13.621c-.25-1.277-.33-2.555-.33-3.75 0-7.574 4.67-12.422 13.44-12.422 9.71 0 15.07 4.934 16.77 14.465l2.38 13.629c.25 1.277.35 2.547.35 3.738m-7.15-.418c0-.773-.09-1.621-.26-2.472l-2.38-13.625c-.85-4.852-3.14-8.942-9.03-8.942-5.03 0-6.98 2.809-6.98 6.559 0 .769.08 1.531.25 2.383l2.38 13.625c.86 4.851 3.24 8.941 9.12 8.941 5.02 0 6.9-2.808 6.9-6.469m44.15 29.36s-3.15 1.363-6.9 1.363c-6.3 0-9.96-2.805-11.15-9.781l-1.62-8.949h-5.95l-1.03-5.946h5.96l-9.36-52.777 7.57 1.7 9.03 51.077h7.67l1.01 5.946h-7.65l1.35 7.835c.6 3.161 2.3 4.094 4.34 4.094 2.13 0 5.62-.851 5.62-.851l1.11 6.289" style="fill:#171717;fill-opacity:1;fill-rule:nonzero;stroke:none" transform="matrix(.13333 0 0 -.13333 0 84.88)"/></svg>