<svg xmlns="http://www.w3.org/2000/svg" fill="none" viewBox="0 0 500 500"><path fill="#00E054" d="M250 342.617c51.195 0 92.697-41.328 92.697-92.309 0-50.98-41.502-92.308-92.697-92.308s-92.697 41.328-92.697 92.308c0 50.981 41.502 92.309 92.697 92.309Z"/><path fill="#FF8000" d="M92.697 342.617c51.195 0 92.696-41.328 92.696-92.309 0-50.98-41.501-92.308-92.696-92.308S0 199.328 0 250.308c0 50.981 41.502 92.309 92.697 92.309Z"/><path fill="#40BCF4" d="M407.303 342.617c51.195 0 92.697-41.328 92.697-92.309 0-50.98-41.502-92.308-92.697-92.308s-92.697 41.328-92.697 92.308c0 50.981 41.502 92.309 92.697 92.309Z"/><path fill="#567" fill-rule="evenodd" d="M171.348 299.183c-8.9-14.173-14.045-30.926-14.045-48.875 0-17.948 5.145-34.701 14.045-48.874 8.901 14.173 14.045 30.926 14.045 48.874 0 17.949-5.144 34.702-14.045 48.875ZM328.652 201.434c8.9 14.173 14.045 30.926 14.045 48.874 0 17.949-5.145 34.702-14.045 48.875-8.901-14.173-14.045-30.926-14.045-48.875 0-17.948 5.144-34.701 14.045-48.874Z" clip-rule="evenodd"/></svg>