<svg xmlns="http://www.w3.org/2000/svg" xml:space="preserve" id="Layer_1" x="0" y="0" version="1.1" viewBox="0 0 1000 425.969"><style id="style2" type="text/css">.st0{fill:#fff}</style><path id="path10" d="M503.108 200.18c-10.361 0-19.472 2.35-27.333 7.23-7.86 4.88-14.649 10.485-20.187 16.811 1.608 6.87 2.68 14.642 3.216 23.5.535 8.857.893 17.353.893 25.307v152.566H364.12V271.22c0-24.584-3.037-42.48-9.29-54.049C348.756 205.783 337.858 200 322.316 200c-10.004 0-18.58 2.169-25.904 6.688-7.325 4.52-13.22 9.942-17.508 16.269v202.638h-95.398V129.68h91.825v39.226c9.112-16.088 21.081-27.476 36.088-34.345 14.827-6.87 30.012-10.304 45.555-10.304 19.115 0 34.836 3.977 47.342 11.75 12.505 7.773 24.296 20.607 35.55 38.322 20.724-33.441 53.06-50.072 97.186-50.072 19.115 0 35.193 4.158 48.235 12.292 13.041 8.315 23.76 19.161 31.8 32.9 8.217 13.738 13.934 29.464 17.507 47.36 3.573 17.896 5.36 36.695 5.36 56.399v152.566h-95.4V271.22c0-24.584-3.036-42.48-9.289-54.049-5.895-11.388-16.793-16.991-32.157-16.991" class="st0" style="fill:#2c3d47;fill-opacity:1;stroke-width:17.97037315"/><path id="path12" d="M94.576 332.358c0 12.529 8.92 22.303 25.861 22.303h65.76l-2.216 70.933h-63.544C81.006 425.594 0 419.93 0 349.786V0h94.576z" class="st0" style="fill:#2c3d47;fill-opacity:1;stroke-width:18.07651901"/><path id="path24" d="M733.717 296.61c29.557-29.557 77.632-29.557 107.19 0 29.557 29.558 29.557 77.633 0 107.19-29.558 29.558-77.633 29.558-107.19 0-29.558-29.735-29.558-77.632 0-107.19" class="st0" style="fill:#ff1d1e;fill-opacity:1;stroke-width:17.80565071"/><path id="path26" d="M733.717 22.938c29.557-29.558 77.632-29.558 107.19 0 29.557 29.557 29.557 77.632 0 107.19-29.558 29.557-77.633 29.557-107.19 0-29.558-29.736-29.558-77.633 0-107.19" class="st0" style="fill:#ff1d1e;fill-opacity:1;stroke-width:17.80565071"/><path id="path28" d="M870.642 159.685c29.557-29.557 77.633-29.557 107.19 0 29.557 29.557 29.557 77.633 0 107.19-29.557 29.557-77.633 29.557-107.19 0-29.735-29.557-29.735-77.633 0-107.19" class="st0" style="fill:#ff1d1e;fill-opacity:1;stroke-width:17.80565071"/></svg>