<?xml version="1.0" encoding="UTF-8" standalone="no"?>
<!-- Generator: Adobe Illustrator 26.4.1, SVG Export Plug-In . SVG Version: 6.00 Build 0)  -->

<svg
   xmlns:dc="http://purl.org/dc/elements/1.1/"
   xmlns:cc="http://creativecommons.org/ns#"
   xmlns:rdf="http://www.w3.org/1999/02/22-rdf-syntax-ns#"
   xmlns:svg="http://www.w3.org/2000/svg"
   xmlns="http://www.w3.org/2000/svg"
   xmlns:sodipodi="http://sodipodi.sourceforge.net/DTD/sodipodi-0.dtd"
   xmlns:inkscape="http://www.inkscape.org/namespaces/inkscape"
   version="1.1"
   id="Layer_1"
   x="0px"
   y="0px"
   viewBox="0 0 1000 425.96859"
   xml:space="preserve"
   sodipodi:docname="lifemiles-logo-white.svg"
   width="1000"
   height="425.9686"
   inkscape:version="0.92.4 (5da689c313, 2019-01-14)"><metadata
   id="metadata39"><rdf:RDF><cc:Work
       rdf:about=""><dc:format>image/svg+xml</dc:format><dc:type
         rdf:resource="http://purl.org/dc/dcmitype/StillImage" /><dc:title></dc:title></cc:Work></rdf:RDF></metadata><defs
   id="defs37">
	
	
	
	
	
	
	
	
	
	
	

		
		
		
	</defs><sodipodi:namedview
   pagecolor="#ffffff"
   bordercolor="#111111"
   borderopacity="1"
   objecttolerance="10"
   gridtolerance="10"
   guidetolerance="10"
   inkscape:pageopacity="0"
   inkscape:pageshadow="2"
   inkscape:window-width="1920"
   inkscape:window-height="1017"
   id="namedview35"
   showgrid="false"
   fit-margin-top="0"
   fit-margin-left="0"
   fit-margin-right="0"
   fit-margin-bottom="0"
   inkscape:zoom="0.21047873"
   inkscape:cx="874.3819"
   inkscape:cy="-478.96841"
   inkscape:window-x="1912"
   inkscape:window-y="-8"
   inkscape:window-maximized="1"
   inkscape:current-layer="Layer_1"><inkscape:grid
     type="xygrid"
     id="grid80"
     originx="112"
     originy="919.50723" /></sodipodi:namedview>
<style
   type="text/css"
   id="style2">
	.st0{fill:#FFFFFF;}
</style>

<path
   inkscape:connector-curvature="0"
   style="fill:#2c3d47;fill-opacity:1;stroke-width:17.97037315"
   id="path10"
   d="m 503.10835,200.17953 c -10.36162,0 -19.4727,2.34995 -27.33325,7.23061 -7.8605,4.88066 -14.64912,10.48438 -20.18731,16.81116 1.6079,6.86908 2.67979,14.64198 3.21574,23.49947 0.53591,8.85749 0.89324,17.35347 0.89324,25.30714 v 152.56585 h -95.57696 v -154.3735 c 0,-24.58407 -3.03703,-42.47983 -9.28969,-54.0488 -6.0741,-11.38821 -16.97163,-17.17269 -32.51405,-17.17269 -10.0043,0 -18.57946,2.16919 -25.90406,6.68831 -7.32459,4.51913 -13.21998,9.94208 -17.50752,16.26887 V 425.59376 H 183.50616 V 129.6811 h 91.82531 v 39.22605 c 9.11113,-16.0881 21.08054,-27.47631 36.08706,-34.3454 14.82782,-6.86907 30.01291,-10.30361 45.55533,-10.30361 19.11543,0 34.83648,3.97684 47.34185,11.74974 12.50539,7.7729 24.29616,20.60723 35.5511,38.32222 20.7232,-33.44156 53.05854,-50.07196 97.18473,-50.07196 19.11537,0 35.19376,4.1576 48.2351,12.29204 13.04134,8.3152 23.76025,19.16112 31.79944,32.89926 8.21784,13.73816 13.93458,29.46473 17.50754,47.36049 3.573,17.89575 5.35947,36.69535 5.35947,56.39874 v 152.56589 h -95.39833 v -154.5543 c 0,-24.58407 -3.03703,-42.47983 -9.28969,-54.0488 -5.89539,-11.38821 -16.79299,-16.99193 -32.15672,-16.99193"
   class="st0" /><path
   inkscape:connector-curvature="0"
   style="fill:#2c3d47;fill-opacity:1;stroke-width:18.07651901"
   id="path12"
   d="m 94.576402,332.35756 c 0,12.5291 8.918858,22.3039 25.860738,22.3039 h 65.76015 l -2.21663,70.9323 H 120.43714 C 81.005734,425.59376 0,419.93116 0,349.78556 V 0 h 94.576402 z"
   class="st0"
   sodipodi:nodetypes="ccccccccc" /><path
   class="st0"
   d="m 733.71651,296.61048 c 29.55738,-29.55737 77.63263,-29.55737 107.19006,0 29.55734,29.5574 29.55734,77.63268 0,107.19008 -29.55743,29.5574 -77.63268,29.5574 -107.19006,0 -29.55738,-29.7355 -29.55738,-77.63268 0,-107.19008"
   id="path24"
   style="fill:#ff1d1e;fill-opacity:1;stroke-width:17.80565071"
   inkscape:connector-curvature="0" /><path
   class="st0"
   d="m 733.71651,22.93762 c 29.55738,-29.55739 77.63263,-29.55739 107.19006,0 29.55734,29.55739 29.55734,77.63263 0,107.19003 -29.55743,29.55737 -77.63268,29.55737 -107.19006,0 -29.55738,-29.73544 -29.55738,-77.63264 0,-107.19003"
   id="path26"
   style="fill:#ff1d1e;fill-opacity:1;stroke-width:17.80565071"
   inkscape:connector-curvature="0" /><path
   class="st0"
   d="m 870.64206,159.68502 c 29.55734,-29.55737 77.63259,-29.55737 107.18993,0 29.55731,29.55739 29.55731,77.63264 0,107.19001 -29.55734,29.5574 -77.63259,29.5574 -107.18993,0 -29.73549,-29.55737 -29.73549,-77.63262 0,-107.19001"
   id="path28"
   style="fill:#ff1d1e;fill-opacity:1;stroke-width:17.80565071"
   inkscape:connector-curvature="0" /></svg>