<?xml version="1.0" encoding="UTF-8"?>
<svg version="1.1" xmlns="http://www.w3.org/2000/svg" width="383" height="440">
<path d="M0 0 C126.39 0 252.78 0 383 0 C383 145.2 383 290.4 383 440 C256.61 440 130.22 440 0 440 C0 294.8 0 149.6 0 0 Z " fill="#660131" transform="translate(0,0)"/>
<path d="M0 0 C126.39 0 252.78 0 383 0 C383 145.2 383 290.4 383 440 C256.61 440 130.22 440 0 440 C0 357.5 0 275 0 190 C0.33 190 0.66 190 1 190 C1.12375 190.85078125 1.2475 191.7015625 1.375 192.578125 C5.615995 217.49397061 18.05887695 236.92510187 34.17236328 255.84130859 C37.22075664 259.44188221 40.19899941 263.09971886 43.1875 266.75 C48.30051791 272.9704819 53.47208522 279.13746169 58.6953125 285.265625 C60.83892513 287.80889422 62.92216872 290.4027109 65 293 C65 281.45 65 269.9 65 258 C63.35 258.66 61.7 259.32 60 260 C55.95334041 260.44145377 53.65849757 260.32924879 50 258.5 C42.16658043 251.97215036 37.22981827 243.89204583 32.2265625 235.13427734 C30.95233717 232.91706439 29.64890342 230.71865785 28.34375 228.51953125 C19.34812469 213.15782165 13.61031207 197.04299376 17.66015625 179.0703125 C20.44243703 172.10858829 26.13604021 165.15371125 33 162 C39.1986028 160.133754 46.3206781 159.83404965 52.25 162.625 C53.52512335 163.37553085 54.77657102 164.1678596 56 165 C56.59425781 165.40089844 57.18851563 165.80179688 57.80078125 166.21484375 C70.48661103 175.91908161 75.83716313 194.01855231 79 209 C79.1814859 209.83331848 79.3629718 210.66663696 79.54995728 211.52520752 C81.21073927 220.14159875 81.28138512 228.59783692 81.27439499 237.33617401 C81.2734149 240.04687279 81.28654496 242.75719077 81.30337524 245.46783447 C81.34919845 253.16635235 81.37422037 260.86482659 81.38085938 268.56347656 C81.38592254 273.29781051 81.41040678 278.03174134 81.44618607 282.76593781 C81.45586798 284.55014862 81.45838082 286.3344157 81.45301437 288.11864471 C81.38526179 311.75036727 87.48781861 330.30863047 104.25 347.5 C108.61780405 351.83492971 113.23322891 355.78299429 118.046875 359.61328125 C120.83688414 361.86816959 123.5467549 364.19022732 126.25 366.54711914 C141.67832904 379.97832746 154.47306548 387.26931888 175.234375 387.37109375 C176.38939514 387.38012222 177.54441528 387.3891507 178.73443604 387.39845276 C181.16830883 387.41289878 183.60221997 387.42182786 186.03613281 387.42553711 C189.72528735 387.4374204 193.41276065 387.48665539 197.1015625 387.53710938 C212.89623608 387.64679972 224.89711362 387.14147256 237.29296875 376.35546875 C239 375 239 375 241 375 C241 383.58 241 392.16 241 401 C237.92558594 401.12117188 234.85117188 401.24234375 231.68359375 401.3671875 C228.65495773 401.4913493 225.62642915 401.61788068 222.59790039 401.74462891 C220.51792264 401.830431 218.4378441 401.91382928 216.35766602 401.99462891 C189.30102107 403.04954503 168.68827449 407.68869097 144.42504883 419.8425293 C141.9859251 421.00671792 139.51962366 422.02400042 137 423 C136.33355469 422.38253906 135.66710937 421.76507813 134.98046875 421.12890625 C130.27205593 416.80243461 125.5467545 412.57315377 120.5625 408.5625 C114.46981195 403.6262145 108.67908312 398.4017206 103 393 C102.42813965 392.45682129 101.8562793 391.91364258 101.26708984 391.35400391 C86.22708782 376.96344717 69.24361199 358.44562879 66 337 C65.96175377 334.66698014 65.95425716 332.33288492 66 330 C57.9112463 336.56502054 49.93738661 343.25368665 42 350 C34.84663694 356.07993929 27.67078346 362.12234812 20.390625 368.05078125 C17.57561635 370.34602523 14.78407384 372.66739759 12 375 C20.70764162 395.80420323 57.46736749 412.34377016 76.78491211 420.60229492 C119.0689157 437.75640989 164.41536047 442.89041285 209.375 434.5 C210.06432617 434.3722821 210.75365234 434.24456421 211.46386719 434.11297607 C224.92418877 431.57213132 237.45676783 427.55176269 250 422 C251.11882568 421.50910889 251.11882568 421.50910889 252.26025391 421.00830078 C260.62196182 417.26329624 268.41731641 412.65249341 276.1875 407.8125 C276.99034424 407.31322998 277.79318848 406.81395996 278.62036133 406.29956055 C282.92845308 403.5478934 286.55204922 400.77961739 290 397 C289.27651367 396.72542969 288.55302734 396.45085937 287.80761719 396.16796875 C285.09800785 395.04077127 282.62894934 393.75991684 280.078125 392.3125 C279.14234619 391.78293701 278.20656738 391.25337402 277.24243164 390.70776367 C276.2549292 390.14420166 275.26742676 389.58063965 274.25 389 C273.23607178 388.42419189 272.22214355 387.84838379 271.17749023 387.25512695 C262.39982412 382.25756817 253.68159997 377.16234736 245 372 C246.21466272 368.35601185 247.45096495 367.69133918 250.5 365.4375 C260.02924825 357.9667875 268.51176724 349.40907488 270.47265625 337.01171875 C270.94877048 327.20864873 268.06064642 317.24784609 264.26026917 308.2482605 C262.29704751 303.45905054 261.54421181 299.17566573 261.56640625 293.984375 C261.5611644 293.24729309 261.55592255 292.51021118 261.55052185 291.75079346 C261.5441433 290.20122527 261.54538416 288.65160839 261.55395508 287.10205078 C261.56243116 284.76894812 261.53370443 282.43832845 261.50195312 280.10546875 C261.44065773 267.62786993 263.92592149 257.66450945 270.5 246.9375 C275.28098159 238.76539111 279.86626758 230.74551027 279 221 C278.2575 221.94875 277.515 222.8975 276.75 223.875 C274.69604013 226.32128929 273.12292014 228.02408746 270 229 C268.33351784 229.02479884 266.66644128 229.02740857 265 229 C263.4946891 225.04366575 261.99665407 221.08461633 260.5 217.125 C259.85611328 215.43310547 259.85611328 215.43310547 259.19921875 213.70703125 C258.79316406 212.63066406 258.38710938 211.55429688 257.96875 210.4453125 C257.59169922 209.45031738 257.21464844 208.45532227 256.82617188 207.43017578 C256 205 256 205 256 203 C256.68707031 202.86722656 257.37414062 202.73445312 258.08203125 202.59765625 C259.43361328 202.33275391 259.43361328 202.33275391 260.8125 202.0625 C261.70582031 201.88847656 262.59914063 201.71445313 263.51953125 201.53515625 C266.11397171 201.02258847 266.11397171 201.02258847 269 200 C270.04721703 198.30721237 270.04721703 198.30721237 271 196 C275.94767554 186.33108717 281.16628365 176.85431664 286.6875 167.5 C287.22157471 166.59330566 287.75564941 165.68661133 288.3059082 164.75244141 C291.33415587 159.65937313 294.4905695 154.76236466 298.00708008 149.99023438 C299.19402748 148.06058337 299.19402748 148.06058337 298.77490234 145.94775391 C297.77616157 143.43737145 296.41215157 141.18478365 295.0168457 138.87719727 C287.71793367 126.74292246 283.9256693 114.28404141 280.80834961 100.53588867 C276.1626874 80.06912348 267.61174347 61.18970083 249.390625 49.296875 C246.28180585 46.30997032 245.80337538 43.39347278 245.0625 39.3125 C242.76745781 28.76504681 238.01198329 21.20379772 229 15 C224.43649014 12.39621211 219.79133892 10.15208742 215 8 C213.65615234 7.37738281 213.65615234 7.37738281 212.28515625 6.7421875 C197.59792877 0.63193878 179.936251 1.62318814 164.3125 1.6875 C163.34444427 1.68998749 162.37638855 1.69247498 161.3789978 1.69503784 C121.71824786 1.85255328 85.61419853 9.16978933 56 37 C55.38511719 37.53882813 54.77023438 38.07765625 54.13671875 38.6328125 C43.64929415 48.22820329 36.46526533 61.76374016 35.5 75.875 C34.36065051 86.05664138 28.73972339 93.89718521 23.49804688 102.48876953 C11.99754337 121.7674819 3.6033027 143.65822307 1 166 C0.67 166 0.34 166 0 166 C0 111.22 0 56.44 0 0 Z " fill="#FE4F18" transform="translate(0,0)"/>
<path d="M0 0 C2.00076895 0.76051864 4.00206529 1.51965137 6.00390625 2.27734375 C8.78972114 3.33323852 11.57335313 4.39312234 14.35009766 5.47265625 C15.16655762 5.78976563 15.98301758 6.106875 16.82421875 6.43359375 C17.53666748 6.71259521 18.24911621 6.99159668 18.9831543 7.27905273 C26.97112297 10.1344542 38.01591445 10.95171813 45.97265625 7.8359375 C48.17732719 6.36111474 50.07177454 4.81755469 52 3 C53.18500383 2.0385818 54.37226002 1.07992817 55.5625 0.125 C56.366875 -0.57625 57.17125 -1.2775 58 -2 C79.02262396 6.78094858 95.40272093 33.16095551 104 53 C108.65803507 65.05609077 108.12347714 77.28185446 108 90 C102.49228396 92.34347918 96.99033366 94.65226032 91.37109375 96.71484375 C90.1787915 97.15848267 90.1787915 97.15848267 88.96240234 97.61108398 C87.39003479 98.19348381 85.81359936 98.7650427 84.23291016 99.32446289 C77.57584113 101.80865064 73.10081679 105.58344493 69.72924805 112.015625 C67.8829608 117.03960315 68.27970069 122.02707597 70.09643555 127.00317383 C71.64585209 130.32313097 73.29836174 133.56798709 75 136.8125 C76.19787353 139.19761456 77.39062658 141.5844176 78.57421875 143.9765625 C79.15864746 145.15637695 79.74307617 146.33619141 80.34521484 147.55175781 C82.7267763 152.51445683 84.83331796 157.55271534 86.8125 162.6875 C87.14314453 163.51677002 87.47378906 164.34604004 87.81445312 165.20043945 C89.75385402 170.35820611 90.46692891 174.48664706 90 180 C87.60469692 184.08088673 85.46101091 185.64122719 81 187 C78.04020433 187.29022022 75.09343914 187.30078624 72.12109375 187.30859375 C70.37825167 187.33374059 68.63541321 187.35913879 66.89257812 187.38476562 C64.158293 187.41355794 61.42407024 187.43759188 58.68969727 187.45629883 C56.04151363 187.47793704 53.39403406 187.51735749 50.74609375 187.55859375 C49.92934677 187.55870956 49.11259979 187.55882538 48.27110291 187.5589447 C43.93468889 187.6346182 41.12626054 187.8327772 38 191 C38.33 192.98 38.66 194.96 39 197 C39.53874756 197.17305664 40.07749512 197.34611328 40.63256836 197.52441406 C71.72143832 207.67670074 71.72143832 207.67670074 80 223 C79.34 223.33 78.68 223.66 78 224 C77.236875 223.690625 76.47375 223.38125 75.6875 223.0625 C72.82247042 221.92981389 71.04500305 221.5993417 68 222 C67.2575 222.7734375 67.2575 222.7734375 66.5 223.5625 C66.005 224.036875 65.51 224.51125 65 225 C61.51967799 224.73897585 59.94903702 223.96602468 57 222 C49.16018568 221.4848582 41.60850386 222.79899415 33.875 224 C31.4147801 224.3796794 28.95385531 224.75482439 26.4921875 225.125 C24.87352783 225.37636719 24.87352783 225.37636719 23.22216797 225.6328125 C19.74224498 226.0293729 16.49686103 226.26307342 13 226 C11 223 11 223 11 220 C7.08597051 221.26941497 5.20927127 222.51167694 3 226 C9.75885015 229.78729214 16.35272949 229.44072455 23.95703125 229.44140625 C25.30988485 229.45319163 26.66272551 229.46655868 28.01554871 229.48143005 C31.55747512 229.51744528 35.09928661 229.53777306 38.64135742 229.55297852 C44.32763946 229.57791554 50.01366812 229.61737532 55.69971275 229.67487907 C57.68393678 229.6912161 59.66825351 229.69462979 61.65254211 229.69789124 C62.85106308 229.70807785 64.04958405 229.71826447 65.28442383 229.72875977 C66.87157951 229.73517235 66.87157951 229.73517235 68.49079895 229.74171448 C71 230 71 230 73 232 C73.0625 234.3125 73.0625 234.3125 72 237 C68.1984175 240.74179492 64.58230432 242.56670613 59.152771 242.66908264 C58.45782532 242.65582443 57.76287964 242.64256622 57.046875 242.62890625 C55.9355722 242.63252419 55.9355722 242.63252419 54.80181885 242.63621521 C53.24201075 242.63524118 51.68216616 242.62195377 50.12255859 242.59692383 C47.76927368 242.56277964 45.41978987 242.57624349 43.06640625 242.59570312 C34.3385008 242.58497153 27.01749487 241.84729925 19 238 C22.4873623 244.24819079 26.98103879 247.37827388 33.58105469 250.04150391 C37.76132375 251.21343595 41.57901388 251.35171268 45.8984375 251.4140625 C46.73339752 251.43342865 47.56835754 251.4527948 48.42861938 251.4727478 C51.07731126 251.53219614 53.72604743 251.57878894 56.375 251.625 C58.17840364 251.66321182 59.98178966 251.70226539 61.78515625 251.7421875 C66.18995984 251.83786881 70.5948488 251.92202711 75 252 C73.10763225 257.08951874 70.74520354 261.59762267 65.7237854 264.16279602 C62.5875816 265.12676415 60.01231146 265.23114981 56.73193359 265.20776367 C55.48648773 265.20503952 54.24104187 265.20231537 52.95785522 265.19950867 C52.29692242 265.19396154 51.63598961 265.18841442 50.95502853 265.1826992 C48.86790056 265.16775003 46.78140869 265.16947508 44.69424438 265.17634583 C38.76226835 265.19509524 32.83078277 265.20188691 26.89892578 265.15454102 C23.26168277 265.12671889 19.62582764 265.13346824 15.9886055 265.16155434 C14.61329786 265.16577495 13.23788607 265.15753834 11.86274338 265.1358242 C1.88077604 264.98477973 -4.1301597 266.85984649 -12 273 C-12.99 273.66 -13.98 274.32 -15 275 C-15.89138672 274.18208984 -15.89138672 274.18208984 -16.80078125 273.34765625 C-21.27596573 269.27614316 -25.79543611 265.30526067 -30.5 261.5 C-52.22898418 243.86443635 -52.22898418 243.86443635 -54 231 C-54.15492187 228.10201248 -54.18393059 225.20634751 -54.2109375 222.3046875 C-54.23902399 220.60155318 -54.26768856 218.89842832 -54.296875 217.1953125 C-54.33790566 214.54297337 -54.37484193 211.89080723 -54.40136719 209.23828125 C-54.56529798 194.11142614 -56.08388528 182.31502025 -63.8125 169 C-64.89041565 167.07873766 -65.96724929 165.15686785 -67.04296875 163.234375 C-67.55520996 162.32880859 -68.06745117 161.42324219 -68.59521484 160.49023438 C-70.32024541 157.4323074 -72.00020996 154.36250102 -73.625 151.25 C-74.05039063 150.45078125 -74.47578125 149.6515625 -74.9140625 148.828125 C-77.87734669 141.11079494 -78.29819381 133.20165462 -78.29052734 125.01757812 C-78.29724457 123.9690416 -78.30396179 122.92050507 -78.31088257 121.8401947 C-78.32974719 118.40383049 -78.33378038 114.96766264 -78.3359375 111.53125 C-78.34237146 109.12569094 -78.34910027 106.72013265 -78.35610962 104.3145752 C-78.3680521 99.28473089 -78.37179336 94.25495513 -78.37060547 89.22509766 C-78.370402 82.796116 -78.39774685 76.36757499 -78.43214989 69.93869781 C-78.45443491 64.9748535 -78.45844257 60.01111517 -78.45738602 55.04722595 C-78.4597379 52.67746965 -78.46853799 50.30771024 -78.48405075 47.93800354 C-78.50375049 44.61916524 -78.49785723 41.30127702 -78.48583984 37.98242188 C-78.49707886 37.01485458 -78.50831787 36.04728729 -78.51989746 35.05039978 C-78.40880126 22.91390644 -73.09741416 14.50311295 -65.00390625 5.87109375 C-45.14238975 -13.33444606 -23.07373137 -8.94111797 0 0 Z " fill="#FEFDFD" transform="translate(168,65)"/>
<path d="M0 0 C0.60457031 0.41121094 1.20914063 0.82242188 1.83203125 1.24609375 C2.42628906 1.64699219 3.02054688 2.04789063 3.6328125 2.4609375 C16.31864228 12.16517536 21.66919438 30.26464606 24.83203125 45.24609375 C25.01351715 46.07941223 25.19500305 46.91273071 25.38198853 47.77130127 C27.04277052 56.3876925 27.11341637 64.84393067 27.10642624 73.58226776 C27.10544615 76.29296654 27.11857621 79.00328452 27.13540649 81.71392822 C27.1812297 89.4124461 27.20625162 97.11092034 27.21289062 104.80957031 C27.21795379 109.54390426 27.24243803 114.27783509 27.27821732 119.01203156 C27.28789923 120.79624237 27.29041207 122.58050945 27.28504562 124.36473846 C27.21729304 147.99646102 33.31984986 166.55472422 50.08203125 183.74609375 C54.4498353 188.08102346 59.06526016 192.02908804 63.87890625 195.859375 C66.66891539 198.11426334 69.37878615 200.43632107 72.08203125 202.79321289 C87.51036029 216.22442121 100.30509673 223.51541263 121.06640625 223.6171875 C122.22142639 223.62621597 123.37644653 223.63524445 124.56646729 223.64454651 C127.00034008 223.65899253 129.43425122 223.66792161 131.86816406 223.67163086 C135.5573186 223.68351415 139.2447919 223.73274914 142.93359375 223.78320312 C158.72826733 223.89289347 170.72914487 223.38756631 183.125 212.6015625 C184.83203125 211.24609375 184.83203125 211.24609375 186.83203125 211.24609375 C186.83203125 219.82609375 186.83203125 228.40609375 186.83203125 237.24609375 C183.75761719 237.36726562 180.68320313 237.4884375 177.515625 237.61328125 C174.48698898 237.73744305 171.4584604 237.86397443 168.42993164 237.99072266 C166.34995389 238.07652475 164.26987535 238.15992303 162.18969727 238.24072266 C135.13305232 239.29563878 114.52030574 243.93478472 90.25708008 256.08862305 C87.81795635 257.25281167 85.35165491 258.27009417 82.83203125 259.24609375 C82.16558594 258.62863281 81.49914062 258.01117188 80.8125 257.375 C76.10408718 253.04852836 71.37878575 248.81924752 66.39453125 244.80859375 C60.3018432 239.87230825 54.51111437 234.64781435 48.83203125 229.24609375 C48.2601709 228.70291504 47.68831055 228.15973633 47.09912109 227.60009766 C32.05911907 213.20954092 15.07564324 194.69172254 11.83203125 173.24609375 C11.79378502 170.91307389 11.78628841 168.57897867 11.83203125 166.24609375 C3.74327755 172.81111429 -4.23058214 179.4997804 -12.16796875 186.24609375 C-19.32133181 192.32603304 -26.49718529 198.36844187 -33.77734375 204.296875 C-36.5923524 206.59211898 -39.38389491 208.91349134 -42.16796875 211.24609375 C-33.46032713 232.05029698 3.29939874 248.58986391 22.61694336 256.84838867 C64.90094695 274.00250364 110.24739172 279.1365066 155.20703125 270.74609375 C155.89635742 270.61837585 156.58568359 270.49065796 157.29589844 270.35906982 C170.75622002 267.81822507 183.28879908 263.79785644 195.83203125 258.24609375 C196.95085693 257.75520264 196.95085693 257.75520264 198.09228516 257.25439453 C218.65762989 248.04367942 238.21702039 234.58568373 254.6796875 219.24609375 C256.66072319 217.40527656 258.69640379 215.66884732 260.76953125 213.93359375 C283.52226747 193.95669135 302.61085256 164.69679732 312.83203125 136.24609375 C313.08210938 135.611875 313.3321875 134.97765625 313.58984375 134.32421875 C316.03952468 128.0839789 317.95553797 121.67789049 319.83203125 115.24609375 C320.03618652 114.55612305 320.2403418 113.86615234 320.45068359 113.15527344 C324.2058425 100.31873174 326.31679191 87.52472292 327.83203125 74.24609375 C328.16203125 74.24609375 328.49203125 74.24609375 328.83203125 74.24609375 C328.83203125 140.90609375 328.83203125 207.56609375 328.83203125 276.24609375 C202.44203125 276.24609375 76.05203125 276.24609375 -54.16796875 276.24609375 C-54.16796875 193.74609375 -54.16796875 111.24609375 -54.16796875 26.24609375 C-53.83796875 26.24609375 -53.50796875 26.24609375 -53.16796875 26.24609375 C-53.04421875 27.096875 -52.92046875 27.94765625 -52.79296875 28.82421875 C-48.55197375 53.74006436 -36.1090918 73.17119562 -19.99560547 92.08740234 C-16.94721211 95.68797596 -13.96896934 99.34581261 -10.98046875 102.99609375 C-5.86745084 109.21657565 -0.69588353 115.38355544 4.52734375 121.51171875 C6.67095638 124.05498797 8.75419997 126.64880465 10.83203125 129.24609375 C10.83203125 117.69609375 10.83203125 106.14609375 10.83203125 94.24609375 C8.35703125 95.23609375 8.35703125 95.23609375 5.83203125 96.24609375 C1.78537166 96.68754752 -0.50947118 96.57534254 -4.16796875 94.74609375 C-12.00138832 88.21824411 -16.93815048 80.13813958 -21.94140625 71.38037109 C-23.21563158 69.16315814 -24.51906533 66.9647516 -25.82421875 64.765625 C-34.81984406 49.4039154 -40.55765668 33.28908751 -36.5078125 15.31640625 C-33.72553172 8.35468204 -28.03192854 1.399805 -21.16796875 -1.75390625 C-14.04505279 -3.89844009 -6.47113259 -3.80887437 0 0 Z " fill="#FDFCFD" transform="translate(54.16796875,163.75390625)"/>
<path d="M0 0 C126.39 0 252.78 0 383 0 C383 67.98 383 135.96 383 206 C382.67 206 382.34 206 382 206 C381.77967696 204.03634419 381.5595466 202.07266659 381.34033203 200.10888672 C381.15378385 198.44110012 380.96594018 196.77345796 380.77685547 195.10595703 C380.31850362 191.03021264 379.91423709 186.96664666 379.625 182.875 C378.37949208 170.92214176 374.25479946 159.40576143 370.5 148.0625 C370.12037109 146.91338135 369.74074219 145.7642627 369.34960938 144.58032227 C359.12997113 114.23691019 341.00824061 87.97705532 319 65 C318.29101562 64.24976562 317.58203125 63.49953125 316.8515625 62.7265625 C312.44615848 58.17730855 307.70043819 54.15752683 302.75390625 50.20703125 C301.07129082 48.85855222 299.40701822 47.48622141 297.77734375 46.07421875 C282.89367364 33.3955368 264.66887942 25.01031827 247 17 C245.83726562 16.46503906 244.67453125 15.93007812 243.4765625 15.37890625 C218.41289991 4.35776147 191.39336674 1.57602736 164.3125 1.6875 C163.34444427 1.68998749 162.37638855 1.69247498 161.3789978 1.69503784 C121.71824786 1.85255328 85.61419853 9.16978933 56 37 C55.38511719 37.53882813 54.77023438 38.07765625 54.13671875 38.6328125 C43.64929415 48.22820329 36.46526533 61.76374016 35.5 75.875 C34.36065051 86.05664138 28.73972339 93.89718521 23.49804688 102.48876953 C11.99754337 121.7674819 3.6033027 143.65822307 1 166 C0.67 166 0.34 166 0 166 C0 111.22 0 56.44 0 0 Z " fill="#FEFDFD" transform="translate(0,0)"/>
<path d="M0 0 C0.33 0 0.66 0 1 0 C1 66.66 1 133.32 1 202 C-76.88 202 -154.76 202 -235 202 C-235 201.67 -235 201.34 -235 201 C-233.61047119 200.96241577 -233.61047119 200.96241577 -232.19287109 200.92407227 C-228.68514526 200.82771578 -225.17751912 200.72857773 -221.66992188 200.62768555 C-220.16506928 200.58494133 -218.66018668 200.54323809 -217.15527344 200.50268555 C-202.13694226 200.09664922 -187.43208197 199.26331243 -172.625 196.5 C-171.93567383 196.3722821 -171.24634766 196.24456421 -170.53613281 196.11297607 C-157.07581123 193.57213132 -144.54323217 189.55176269 -132 184 C-131.25411621 183.67273926 -130.50823242 183.34547852 -129.73974609 183.00830078 C-109.17440136 173.79758567 -89.61501086 160.33958998 -73.15234375 145 C-71.17130806 143.15918281 -69.13562746 141.42275357 -67.0625 139.6875 C-44.30976378 119.7105976 -25.22117869 90.45070357 -15 62 C-14.74992188 61.36578125 -14.49984375 60.7315625 -14.2421875 60.078125 C-11.79250657 53.83788515 -9.87649328 47.43179674 -8 41 C-7.79584473 40.3100293 -7.59168945 39.62005859 -7.38134766 38.90917969 C-3.62618875 26.07263799 -1.51523934 13.27862917 0 0 Z " fill="#FEFDFD" transform="translate(382,238)"/>
<path d="M0 0 C1.001521 0.36649658 2.00304199 0.73299316 3.03491211 1.1105957 C5.01132897 1.8368125 6.98501317 2.57051996 8.95556641 3.3125 C11.22637972 4.16317234 13.50360124 4.98235314 15.79296875 5.78125 C28.67123948 10.40497896 28.67123948 10.40497896 31.625 16.3125 C32.91606689 26.31279774 26.21272872 35.58592775 20.625 43.3125 C17.14334644 47.26704368 13.95421335 50.46854984 8.625 51.3125 C6.37592848 51.38040675 4.12498395 51.39749984 1.875 51.375 C0.70453125 51.36597656 -0.4659375 51.35695312 -1.671875 51.34765625 C-2.56390625 51.33605469 -3.4559375 51.32445312 -4.375 51.3125 C-4.49875 50.19875 -4.6225 49.085 -4.75 47.9375 C-5.0215813 44.28146323 -5.0215813 44.28146323 -7.375 42.3125 C-9.81474176 41.99054536 -9.81474176 41.99054536 -12.64453125 42.00390625 C-13.69833984 41.97876953 -14.75214844 41.95363281 -15.83789062 41.92773438 C-18.05918933 41.89276349 -20.28054924 41.86147376 -22.50195312 41.83398438 C-23.55962891 41.80755859 -24.61730469 41.78113281 -25.70703125 41.75390625 C-26.67358643 41.74045166 -27.6401416 41.72699707 -28.63598633 41.71313477 C-31.8112908 41.24868387 -33.74932224 40.11423655 -36.375 38.3125 C-35.06559675 34.18822988 -33.71800587 32.41660284 -30.0625 30.125 C-28.92361328 29.39216797 -28.92361328 29.39216797 -27.76171875 28.64453125 C-19.65168281 24.11830825 -11.43035149 24.14549557 -2.375 24.3125 C-3.365 22.3325 -4.355 20.3525 -5.375 18.3125 C-23.00300407 17.27201797 -23.00300407 17.27201797 -37.94140625 25.61328125 C-39.6463765 27.20645017 -41.35083151 28.80017071 -43.0546875 30.39453125 C-45.17410022 32.14643638 -46.54049122 33.12548927 -49.1875 33.75 C-52.375 33.3125 -52.375 33.3125 -55.375 30.6875 C-57.375 27.3125 -57.375 27.3125 -57.2421875 24.8359375 C-56.18880402 21.77068648 -54.97997108 20.62767165 -52.5 18.5625 C-51.68789062 17.87800781 -50.87578125 17.19351563 -50.0390625 16.48828125 C-49.15992188 15.77027344 -48.28078125 15.05226562 -47.375 14.3125 C-46.47523438 13.56355469 -45.57546875 12.81460938 -44.6484375 12.04296875 C-41.90792292 9.77721937 -39.14616593 7.54061324 -36.375 5.3125 C-35.54226562 4.63445312 -34.70953125 3.95640625 -33.8515625 3.2578125 C-33.07554687 2.63648438 -32.29953125 2.01515625 -31.5 1.375 C-30.48292969 0.55708984 -30.48292969 0.55708984 -29.4453125 -0.27734375 C-20.09976421 -6.64289645 -9.79053645 -3.71810331 0 0 Z " fill="#660232" transform="translate(182.375,156.6875)"/>
<path d="M0 0 C4.73450131 1.27467343 6.57391302 3.50202786 9.125 7.5 C13.52554612 15.45572417 17.50100492 23.72430149 16 33 C14.508008 36.73349057 12.55861808 40.11545277 10.5 43.5625 C9.97535156 44.47580078 9.45070313 45.38910156 8.91015625 46.33007812 C7.62362963 48.56395617 6.32039884 50.78603337 5 53 C3.68 53 2.36 53 1 53 C-2.91520137 48.79478372 -3.26659431 44.70432994 -3.234375 39.2109375 C-2.89012833 34.49475817 -1.96386415 29.91820757 -1.07397461 25.27905273 C-0.04781115 19.76566099 0.26759132 14.61941782 0 9 C-7.02834951 11.54478782 -7.02834951 11.54478782 -13.4375 15.3125 C-14.7059375 16.1478125 -14.7059375 16.1478125 -16 17 C-16.99 16.67 -17.98 16.34 -19 16 C-18.63867399 10.09834179 -17.00559722 6.38763395 -13 2 C-8.71177575 -0.85881616 -5.0256781 -0.46402975 0 0 Z " fill="#690836" transform="translate(42,170)"/>
<path d="M0 0 C4.59136083 7.69728139 5.13614926 21.24744271 4 30 C2.35966657 35.24906698 -0.16756168 39.19044283 -5 42 C-7.3263436 42.37905279 -9.65997518 42.71744132 -12 43 C-13.5053109 39.04366575 -15.00334593 35.08461633 -16.5 31.125 C-16.92925781 29.99707031 -17.35851562 28.86914062 -17.80078125 27.70703125 C-18.20683594 26.63066406 -18.61289062 25.55429688 -19.03125 24.4453125 C-19.40830078 23.45031738 -19.78535156 22.45532227 -20.17382812 21.43017578 C-21 19 -21 19 -21 17 C-19.96939453 16.80083984 -19.96939453 16.80083984 -18.91796875 16.59765625 C-17.56638672 16.33275391 -17.56638672 16.33275391 -16.1875 16.0625 C-15.29417969 15.88847656 -14.40085937 15.71445313 -13.48046875 15.53515625 C-10.88602829 15.02258847 -10.88602829 15.02258847 -8 14 C-6.93794511 12.21117359 -6.93794511 12.21117359 -6 10 C-4.97185062 8.24202438 -3.92953531 6.49227573 -2.875 4.75 C-2.33617187 3.85796875 -1.79734375 2.9659375 -1.2421875 2.046875 C-0.83226562 1.37140625 -0.42234375 0.6959375 0 0 Z " fill="#FCF7F7" transform="translate(277,186)"/>
<path d="M0 0 C1.41750563 0.11509661 2.83401169 0.24253658 4.25 0.375 C5.03890625 0.44460937 5.8278125 0.51421875 6.640625 0.5859375 C9.085877 1.01507113 10.84836903 1.78600638 13 3 C12.67 3.66 12.34 4.32 12 5 C10.56068883 4.54738642 9.12361001 4.08767021 7.6875 3.625 C6.88699219 3.36976562 6.08648437 3.11453125 5.26171875 2.8515625 C3 2 3 2 0 0 Z " fill="#E3624A" transform="translate(209,5)"/>
</svg>
