<svg xmlns="http://www.w3.org/2000/svg" width="383" height="440"><path fill="#660131" d="M0 0h383v440H0z"/><path fill="#FE4F18" d="M0 0h383v440H0V190h1l.375 2.578c4.241 24.916 16.684 44.347 32.797 63.263 3.049 3.6 6.027 7.259 9.016 10.909a1353 1353 0 0 0 15.507 18.516c2.144 2.543 4.227 5.137 6.305 7.734v-35l-5 2c-4.047.441-6.342.33-10-1.5-7.833-6.528-12.77-14.608-17.773-23.366a547 547 0 0 0-3.883-6.614c-8.996-15.362-14.734-31.477-10.684-49.45 2.782-6.96 8.476-13.916 15.34-17.07 6.199-1.866 13.32-2.166 19.25.625A68 68 0 0 1 56 165l1.8 1.215C70.488 175.919 75.838 194.019 79 209l.55 2.525c1.66 8.617 1.731 17.073 1.724 25.811 0 2.71.013 5.421.03 8.132q.067 11.547.077 23.095c.005 4.735.03 9.469.065 14.203q.015 2.676.007 5.353c-.068 23.631 6.035 42.19 22.797 59.381 4.368 4.335 8.983 8.283 13.797 12.113 2.79 2.255 5.5 4.577 8.203 6.934 15.428 13.431 28.223 20.722 48.984 20.824 1.155.01 2.31.018 3.5.027q3.651.022 7.302.028c3.69.011 7.377.06 11.066.111 15.794.11 27.795-.396 40.191-11.182C239 375 239 375 241 375v26l-9.316.367q-4.544.186-9.086.378-3.12.128-6.24.25c-27.057 1.055-47.67 5.694-71.933 17.848-2.44 1.164-4.905 2.181-7.425 3.157l-2.02-1.871c-4.708-4.327-9.433-8.556-14.417-12.567-6.093-4.936-11.884-10.16-17.563-15.562l-1.733-1.646C86.227 376.964 69.244 358.446 66 337a195 195 0 0 1 0-7c-8.089 6.565-16.063 13.254-24 20-7.153 6.08-14.33 12.122-21.61 18.05A816 816 0 0 0 12 375c8.708 20.804 45.467 37.344 64.785 45.602 42.284 17.154 87.63 22.288 132.59 13.898l2.089-.387c13.46-2.54 25.993-6.561 38.536-12.113 1.119-.49 1.119-.49 2.26-.992 8.362-3.745 16.157-8.356 23.928-13.195l2.432-1.513c4.308-2.752 7.932-5.52 11.38-9.3l-2.192-.832c-2.71-1.127-5.18-2.408-7.73-3.856l-2.836-1.604L274.25 389l-3.073-1.745A1604 1604 0 0 1 245 372c1.215-3.644 2.451-4.309 5.5-6.562 9.53-7.471 18.012-16.029 19.973-28.426.476-9.803-2.412-19.764-6.213-28.764-1.963-4.789-2.716-9.072-2.694-14.264l-.015-2.233q-.01-2.325.003-4.649c.008-2.333-.02-4.664-.052-6.997-.061-12.477 2.424-22.44 8.998-33.168 4.781-8.172 9.366-16.191 8.5-25.937l-2.25 2.875c-2.054 2.446-3.627 4.15-6.75 5.125a160 160 0 0 1-5 0 5806 5806 0 0 1-4.5-11.875l-1.3-3.418-1.231-3.262-1.143-3.015C256 205 256 205 256 203l2.082-.402 2.73-.536 2.708-.527c2.594-.512 2.594-.512 5.48-1.535 1.047-1.693 1.047-1.693 2-4a539 539 0 0 1 15.688-28.5l1.618-2.748c3.028-5.093 6.185-9.99 9.701-14.762 1.187-1.93 1.187-1.93.768-4.042-.999-2.51-2.363-4.763-3.758-7.07-7.3-12.135-11.091-24.594-14.209-38.342-4.645-20.467-13.196-39.346-31.417-51.24-3.11-2.986-3.588-5.903-4.328-9.983C242.767 28.765 238.012 21.203 229 15c-4.564-2.604-9.209-4.848-14-7l-2.715-1.258c-14.687-6.11-32.349-5.119-47.972-5.054l-2.934.007C121.719 1.853 85.614 9.17 56 37l-1.863 1.633C43.649 48.228 36.465 61.763 35.5 75.875c-1.14 10.182-6.76 18.022-12.002 26.614C11.998 121.767 3.603 143.659 1 166H0z"/><path fill="#FEFDFD" d="M168 65a4547 4547 0 0 0 6.004 2.277c2.786 1.056 5.57 2.116 8.346 3.196l2.474.96 2.16.846c7.987 2.855 19.032 3.673 26.989.557 2.204-1.475 4.099-3.018 6.027-4.836a838 838 0 0 1 3.563-2.875L226 63c21.023 8.78 37.403 35.161 46 55 4.658 12.056 4.123 24.282 4 37-5.508 2.343-11.01 4.652-16.629 6.715l-2.409.896a345 345 0 0 1-4.73 1.713c-6.656 2.485-11.131 6.26-14.503 12.692-1.846 5.024-1.45 10.011.367 14.987 1.55 3.32 3.202 6.565 4.904 9.81q1.798 3.576 3.574 7.164l1.771 3.575c2.382 4.962 4.488 10 6.468 15.136l1.001 2.512c1.94 5.158 2.653 9.287 2.186 14.8-2.395 4.08-4.539 5.641-9 7-2.96.29-5.907.3-8.879.309l-5.228.076q-4.102.044-8.203.071c-2.648.022-5.296.061-7.944.103h-2.475c-4.336.076-7.145.274-10.271 3.441l1 6 1.633.524C239.72 272.677 239.72 272.677 248 288l-2 1-2.312-.937c-2.866-1.133-4.643-1.464-7.688-1.063l-1.5 1.563L233 290c-3.48-.261-5.051-1.034-8-3-7.84-.515-15.391.799-23.125 2q-3.69.57-7.383 1.125l-3.27.508c-3.48.396-6.725.63-10.222.367-2-3-2-3-2-6-3.914 1.27-5.79 2.512-8 6 6.759 3.787 13.353 3.44 20.957 3.441q2.03.019 4.059.04c3.541.036 7.083.057 10.625.072q8.53.036 17.059.122c1.984.016 3.968.02 5.953.023l3.631.03 3.207.014C239 295 239 295 241 297c.063 2.313.063 2.313-1 5-3.802 3.742-7.418 5.567-12.847 5.67l-2.106-.041-2.245.007q-2.34 0-4.68-.04c-2.353-.033-4.702-.02-7.056 0-8.727-.011-16.049-.749-24.066-4.596 3.487 6.248 7.981 9.378 14.581 12.042 4.18 1.171 7.998 1.31 12.317 1.372l2.53.059c2.65.06 5.298.106 7.947.152q2.705.057 5.41.117 6.608.142 13.215.258c-1.892 5.09-4.255 9.598-9.276 12.163-3.136.964-5.712 1.068-8.992 1.045l-3.774-.008-2.003-.017a599 599 0 0 0-6.26-.007c-5.933.02-11.864.026-17.796-.021a710 710 0 0 0-10.91.007q-2.064.007-4.126-.026C169.88 329.985 163.87 331.86 156 338l-3 2-1.8-1.652c-4.476-4.072-8.995-8.043-13.7-11.848-21.729-17.636-21.729-17.636-23.5-30.5-.155-2.898-.184-5.794-.21-8.695l-.087-5.11c-.04-2.652-.078-5.304-.104-7.957-.164-15.127-1.683-26.923-9.412-40.238l-3.23-5.766-1.552-2.744a323 323 0 0 1-5.03-9.24l-1.29-2.422c-2.962-7.717-3.383-15.626-3.376-23.81l-.02-3.178a2120 2120 0 0 1-.025-10.309l-.02-7.216q-.017-7.545-.015-15.09c0-6.429-.027-12.857-.061-19.286a3214 3214 0 0 1-.025-14.892q-.005-3.555-.027-7.109c-.02-3.319-.014-6.637-.002-9.956l-.034-2.932c.111-12.136 5.423-20.547 13.516-29.179C122.858 51.666 144.926 56.06 168 65"/><path fill="#FDFCFD" d="M54.168 163.754 56 165l1.8 1.215C70.488 175.919 75.838 194.019 79 209l.55 2.525c1.66 8.617 1.731 17.073 1.724 25.811 0 2.71.013 5.421.03 8.132q.067 11.547.077 23.095a2189 2189 0 0 0 .065 14.203q.015 2.676.007 5.353c-.068 23.631 6.035 42.19 22.797 59.381 4.368 4.335 8.983 8.283 13.797 12.113 2.79 2.255 5.5 4.577 8.203 6.934 15.428 13.431 28.223 20.722 48.984 20.824 1.155.01 2.31.018 3.5.027q3.651.022 7.302.028c3.69.011 7.377.06 11.066.111 15.794.11 27.795-.396 40.191-11.182C239 375 239 375 241 375v26l-9.316.367q-4.544.186-9.086.378-3.12.128-6.24.25c-27.057 1.055-47.67 5.694-71.933 17.848-2.44 1.164-4.905 2.181-7.425 3.157l-2.02-1.871c-4.708-4.327-9.433-8.556-14.417-12.567-6.093-4.936-11.884-10.16-17.563-15.562l-1.733-1.646C86.227 376.964 69.244 358.446 66 337a195 195 0 0 1 0-7c-8.089 6.565-16.063 13.254-24 20-7.153 6.08-14.33 12.122-21.61 18.05A816 816 0 0 0 12 375c8.708 20.804 45.467 37.344 64.785 45.602 42.284 17.154 87.63 22.288 132.59 13.898l2.089-.387c13.46-2.54 25.993-6.561 38.536-12.113 1.119-.49 1.119-.49 2.26-.992 20.566-9.21 40.125-22.668 56.588-38.008 1.98-1.84 4.016-3.577 6.09-5.312C337.69 357.71 356.778 328.45 367 300l.758-1.922c2.45-6.24 4.366-12.646 6.242-19.078l.619-2.09c3.755-12.837 5.866-25.631 7.381-38.91h1v202H0V190h1l.375 2.578c4.241 24.916 16.684 44.347 32.797 63.263 3.049 3.6 6.027 7.259 9.016 10.909a1353 1353 0 0 0 15.507 18.516c2.144 2.543 4.227 5.137 6.305 7.734v-35l-5 2c-4.047.441-6.342.33-10-1.5-7.833-6.528-12.77-14.608-17.773-23.366a547 547 0 0 0-3.883-6.614c-8.996-15.362-14.734-31.477-10.684-49.45 2.782-6.96 8.476-13.916 15.34-17.07 7.123-2.145 14.697-2.055 21.168 1.754"/><path fill="#FEFDFD" d="M0 0h383v206h-1l-.66-5.891q-.28-2.502-.563-5.003c-.458-4.076-.863-8.14-1.152-12.231-1.246-11.953-5.37-23.47-9.125-34.812l-1.15-3.483C359.13 114.237 341.008 87.977 319 65l-2.148-2.273c-4.406-4.55-9.152-8.57-14.098-12.52a169 169 0 0 1-4.977-4.133C282.894 33.396 264.67 25.01 247 17l-3.523-1.621C218.413 4.358 191.393 1.576 164.313 1.688l-2.934.007C121.719 1.853 85.614 9.17 56 37l-1.863 1.633C43.649 48.228 36.465 61.763 35.5 75.875c-1.14 10.182-6.76 18.022-12.002 26.614C11.998 121.767 3.603 143.659 1 166H0zm382 238h1v202H147v-1l2.807-.076q5.262-.144 10.523-.296 2.257-.065 4.515-.125c15.018-.406 29.723-1.24 44.53-4.003l2.089-.387c13.46-2.54 25.993-6.561 38.536-12.113l2.26-.992c20.566-9.21 40.125-22.668 56.588-38.008 1.98-1.84 4.016-3.577 6.09-5.312C337.69 357.71 356.778 328.45 367 300l.758-1.922c2.45-6.24 4.366-12.646 6.242-19.078l.619-2.09c3.755-12.837 5.866-25.631 7.381-38.91"/><path fill="#660232" d="m182.375 156.688 3.035 1.11q2.964 1.089 5.92 2.202c2.271.85 4.549 1.67 6.838 2.469 12.878 4.623 12.878 4.623 15.832 10.531 1.291 10-5.412 19.273-11 27-3.482 3.955-6.67 7.156-12 8-2.25.068-4.5.085-6.75.063l-3.547-.028L178 208l-.375-3.375c-.272-3.656-.272-3.656-2.625-5.625-2.44-.322-2.44-.322-5.27-.309l-3.193-.076q-3.332-.052-6.664-.094l-3.205-.08-2.929-.04c-3.175-.465-5.113-1.6-7.739-3.401 1.31-4.124 2.657-5.896 6.313-8.187l2.3-1.481c8.11-4.526 16.332-4.499 25.387-4.332l-3-6c-17.628-1.04-17.628-1.04-32.566 7.3l-5.114 4.782c-2.12 1.752-3.485 2.731-6.132 3.356C130 190 130 190 127 187.375c-2-3.375-2-3.375-1.867-5.852 1.053-3.065 2.262-4.208 4.742-6.273l2.46-2.074L135 171l2.727-2.27A781 781 0 0 1 146 162l2.523-2.055 2.352-1.882 2.055-1.653c9.345-6.365 19.654-3.44 29.445.278"/><path fill="#690836" d="M42 170c4.735 1.275 6.574 3.502 9.125 7.5 4.4 7.956 8.376 16.224 6.875 25.5-1.492 3.733-3.441 7.115-5.5 10.563l-1.59 2.767A507 507 0 0 1 47 223h-4c-3.915-4.205-4.267-8.296-4.234-13.79.344-4.715 1.27-9.292 2.16-13.93 1.026-5.514 1.342-10.66 1.074-16.28-7.028 2.545-7.028 2.545-13.437 6.313L26 187l-3-1c.361-5.902 1.994-9.612 6-14 4.288-2.859 7.974-2.464 13-2"/><path fill="#FCF7F7" d="M277 186c4.591 7.697 5.136 21.247 4 30-1.64 5.25-4.168 9.19-9 12-2.326.38-4.66.717-7 1a5806 5806 0 0 1-4.5-11.875l-1.3-3.418-1.231-3.262-1.143-3.015C256 205 256 205 256 203c1.03-.2 1.03-.2 2.082-.402l2.73-.536 2.708-.527c2.594-.512 2.594-.512 5.48-1.535 1.062-1.789 1.062-1.789 2-4a405 405 0 0 1 3.125-5.25l1.633-2.703z"/><path fill="#E3624A" d="M209 5c1.418.115 2.834.243 4.25.375.789.07 1.578.14 2.39.21 2.446.43 4.208 1.201 6.36 2.415l-1 2q-2.159-.68-4.312-1.375l-2.426-.773C212 7 212 7 209 5"/></svg>