<svg xmlns="http://www.w3.org/2000/svg" viewBox="0 0 400 400"><g fill-rule="evenodd"><path fill="#1c1c1c" d="M188 12.436C125.665 16.444 69.347 51.313 37.529 105.6c-1.788 3.051-4.714 8.463-5.459 10.1-.075.165 75.493.3 167.93.3 92.437 0 168.005-.135 167.93-.3-2.679-5.882-9.412-17.005-15.072-24.9C314.942 37.919 252.597 8.284 188 12.436"/><path fill="#fcb404" d="M32.07 284.3c3.654 8.024 13.202 23.042 20.28 31.9 76.436 95.651 218.864 95.651 295.3 0 7.078-8.858 16.626-23.876 20.28-31.9.075-.165-75.493-.3-167.93-.3-92.437 0-168.005.135-167.93.3"/><path fill="#f3f3f3" d="M185.2.249c-11.574.987-23.246 2.563-26.4 3.564-.99.314-4.41 1.131-7.6 1.815-3.19.684-6.34 1.483-7 1.776-.66.293-2.91 1.014-5 1.6-2.09.587-5.42 1.701-7.4 2.475-1.98.775-4.86 1.859-6.4 2.411s-2.98 1.142-3.2 1.312c-.22.171-1.93.943-3.8 1.716-8.915 3.685-25.581 13.044-31.923 17.927-1.032.795-2.453 1.74-3.157 2.1-.704.36-1.424.899-1.6 1.197-.176.297-.699.74-1.162.983-2.061 1.08-13.744 10.785-17.613 14.63-.91.905-2.8 2.752-4.2 4.105-3.256 3.146-9.641 9.971-10.83 11.575-.503.68-1.399 1.76-1.99 2.4-1.434 1.554-6.265 7.705-6.722 8.559-.2.373-.912 1.266-1.583 1.985-.671.718-1.22 1.486-1.22 1.706 0 .22-.675 1.271-1.5 2.335-4.826 6.223-14.312 23.092-17.983 31.98-.773 1.87-1.542 3.58-1.71 3.8-.167.22-.89 2.02-1.605 4-.716 1.98-1.633 4.341-2.037 5.247-.405.905-1.391 3.875-2.192 6.6-.801 2.724-1.692 5.493-1.979 6.153-.288.66-1.087 3.81-1.777 7-1.566 7.237-1.671 7.672-2.131 8.8-.381.935-1.766 10.334-2.564 17.4-1.04 9.214-1.04 35.986 0 45.2.798 7.066 2.183 16.465 2.564 17.4.46 1.128.565 1.563 2.131 8.8.69 3.19 1.489 6.34 1.777 7 .287.66 1.178 3.429 1.979 6.153.801 2.725 1.787 5.695 2.192 6.6.404.906 1.321 3.267 2.037 5.247.715 1.98 1.438 3.78 1.605 4 .168.22.937 1.93 1.71 3.8 3.671 8.888 13.157 25.757 17.983 31.98.825 1.064 1.5 2.115 1.5 2.335 0 .22.549.988 1.22 1.706.671.719 1.383 1.612 1.583 1.985.802 1.499 6.96 9.034 11.397 13.946 4.284 4.742 5.558 6.082 8.168 8.585a291.999 291.999 0 0 1 4.2 4.108c3.663 3.691 15.492 13.53 17.59 14.63.463.243.986.686 1.162.983.176.298.896.837 1.6 1.197.704.36 2.125 1.305 3.157 2.1 6.342 4.883 23.008 14.242 31.923 17.927 1.87.773 3.58 1.545 3.8 1.716.22.17 1.66.76 3.2 1.312 1.54.552 4.42 1.636 6.4 2.411 1.98.774 5.31 1.888 7.4 2.475 2.09.586 4.34 1.307 5 1.6.66.293 3.81 1.092 7 1.776 3.19.684 6.61 1.501 7.6 1.815 13.447 4.268 51.965 4.967 75.4 1.37 2.86-.439 6.01-1.055 7-1.37.99-.314 4.41-1.131 7.6-1.815 3.19-.684 6.34-1.478 7-1.766.66-.287 3.429-1.178 6.153-1.979 2.725-.801 5.695-1.787 6.6-2.192.906-.404 3.267-1.321 5.247-2.037 1.98-.715 3.78-1.438 4-1.605.22-.168 1.93-.938 3.8-1.711 8.99-3.716 25.7-13.112 31.98-17.982 1.064-.825 2.094-1.5 2.288-1.5.195 0 .944-.539 1.665-1.198.722-.659 1.636-1.371 2.031-1.583 2.039-1.091 13.953-11.032 17.468-14.574.897-.905 2.787-2.753 4.2-4.108 6.23-5.975 18.017-19.593 19.643-22.695.243-.463.686-.986.983-1.162.298-.176.837-.896 1.197-1.6.36-.704 1.305-2.125 2.1-3.157 4.838-6.284 14.288-23.111 17.928-31.923.773-1.87 1.542-3.58 1.71-3.8.167-.22.89-2.02 1.605-4 .716-1.98 1.633-4.341 2.037-5.247.405-.905 1.391-3.875 2.192-6.6.801-2.724 1.692-5.493 1.979-6.153.288-.66 1.087-3.81 1.777-7 1.566-7.237 1.671-7.672 2.131-8.8.381-.935 1.766-10.334 2.564-17.4 1.04-9.214 1.04-35.986 0-45.2-.798-7.066-2.183-16.465-2.564-17.4-.46-1.128-.565-1.563-2.131-8.8-.69-3.19-1.489-6.34-1.777-7-.287-.66-1.178-3.429-1.979-6.153-.801-2.725-1.787-5.695-2.192-6.6-.404-.906-1.321-3.267-2.037-5.247-.715-1.98-1.438-3.78-1.605-4-.168-.22-.937-1.93-1.71-3.8-3.64-8.812-13.09-25.639-17.928-31.923-.795-1.032-1.74-2.453-2.1-3.157-.36-.704-.899-1.424-1.197-1.6-.297-.176-.74-.699-.983-1.162-.847-1.616-6.787-8.92-11.475-14.11-4.284-4.742-5.558-6.082-8.168-8.585a291.999 291.999 0 0 1-4.2-4.108c-3.663-3.691-15.492-13.53-17.59-14.63-.463-.243-.986-.686-1.162-.983-.176-.298-.896-.837-1.6-1.197-.704-.36-2.125-1.305-3.157-2.1-6.342-4.883-23.008-14.242-31.923-17.927-1.87-.773-3.58-1.545-3.8-1.716-.22-.17-1.66-.76-3.2-1.312-1.54-.552-4.42-1.636-6.4-2.411-1.98-.774-5.31-1.888-7.4-2.475-2.09-.586-4.34-1.307-5-1.6-.66-.293-3.81-1.092-7-1.776-3.19-.684-6.61-1.498-7.6-1.809-8.182-2.566-42.281-4.74-56-3.57m26.207 12.161c65.405 4.194 122.932 41.085 154.25 98.916 1.289 2.379 2.343 4.404 2.343 4.5 0 .096-75.6.174-168 .174s-168-.078-168-.174c0-.703 6.692-12.39 10.235-17.874C78.897 41.195 144.329 8.109 211.407 12.41M367.93 284.3c-3.654 8.024-13.202 23.042-20.28 31.9-76.436 95.651-218.864 95.651-295.3 0-7.078-8.858-16.626-23.876-20.28-31.9-.075-.165 75.493-.3 167.93-.3 92.437 0 168.005.135 167.93.3"/></g></svg>