<svg xmlns="http://www.w3.org/2000/svg" xml:space="preserve" id="layer1" x="0" y="0" version="1.1" viewBox="0 0 512 512"><style>.st1{fill:#f9e82d}.st3{opacity:.1;fill:#3d5263;enable-background:new}.st4{fill:#fff}.st5{fill:#f1f2f2}.st6{fill:#5a3620}.st7{fill:#fef3df}.st9{fill:#b58765}</style><g id="g3" transform="translate(50 10)"><g id="grey_5_"><path id="path6" d="M26.4 293.6c.1-27.7-1-23.6-5-53.6 3-30.7-10.4-53.1-10.5-79.7 0-6.4-7.9-9.3-6.5-15.2-8.5 17.7-13.4 37.8-13.4 59 0 35.4 13.5 67.7 35.6 91.6-.1-.7-.1-1.4-.2-2.1" style="fill:#3d5263"/></g><g id="yellow"><path id="path9" d="m298.1 248.7-.8.6C283 303.8 241.4 347.2 188 364l15 12.6 72.8 61.2 43.2 36.3c1.1-2.7 1.7-5.7 1.7-8.8V230.7z" class="st1"/><path id="path11" d="m-18.5 255.7-9-7.1-22.5-17.9v234.6c0 3.1.6 6.1 1.7 8.9l79.8-66.5L68.3 377l16.9-14.1c-49.5-17.1-88.3-57-103.7-107.2" class="st1"/><path id="path13" d="m275.7 437.8-72.8-61.2-15-12.6c-15.6 4.9-32.2 7.6-49.5 7.6-18.6 0-36.6-3.1-53.3-8.8l-16.9 14.1-36.8 30.7-79.8 66.5c3.6 9.1 12.4 15.6 22.8 15.6h321.5c10.4 0 19.3-6.5 22.8-15.6z" style="fill:#edd514;fill-opacity:.895"/></g><g id="grey_4_"><path id="path16" d="M275.7 437.8c-56.6 5.5-157.2 7.6-244.3-30.2C2 394.8-25.9 377.5-50 354.2v111.1c0 3.1.6 6.1 1.7 8.9 3.6 9.1 12.4 15.6 22.8 15.6H296c10.4 0 19.3-6.5 22.8-15.6 1.1-2.7 1.7-5.7 1.7-8.8v-33.6c.1-.1-17.1 3.4-44.8 6" class="st3"/><path id="path18" d="M68.3 376.9c20.5 9.2 43.1 14.3 67 14.3 24.1 0 47-5.2 67.6-14.5 50.7-22.9 87.6-70.8 95.2-127.9l-.8.6C283 303.9 241.4 347.3 188 364.1c-15.6 4.9-32.2 7.6-49.5 7.6-18.6 0-36.6-3.1-53.3-8.8-49.5-17-88.3-56.9-103.7-107.1l-9-7.1C-20 306 17.3 354.1 68.3 376.9" class="st3"/></g><g id="white_1_"><path id="path21" d="M24.2 89.5c-2.5 2.4-4.8 4.8-7.1 7.4-.1.1-.2.1-.3.2-.3.4-.6.7-1 1.1.1-.1.2-.1.2-.2 29.7-29.8 70.8-48.2 116.2-48.2 90.7 0 164.2 73.5 164.2 164.2 0 42-15.7 80.2-41.6 109.3 29.6-29.7 47.8-70.6 47.8-115.8 0-28.9-7.5-56-20.6-79.6-2-3.6-4.1-7-6.3-10.4-7.3-11.2-16-21.4-25.8-30.5-8.1-7.5-16.9-14.1-26.3-19.9-5.8-3.6-11.9-6.8-18.2-9.6-14.5-6.5-30.1-10.9-46.5-13-6.7-.8-13.6-1.3-20.5-1.3-7.9 0-15.6.6-23.1 1.6-16.8 2.4-32.8 7.3-47.5 14.3-6.5 3.1-12.7 6.6-18.7 10.5-8.9 5.8-17.3 12.5-24.9 19.9" class="st4"/><path id="path23" d="M80.9 164.2c3.5 0 6.3-2.8 6.3-6.3s-2.8-6.3-6.3-6.3-6.3 2.8-6.3 6.3c0 3.4 2.8 6.3 6.3 6.3" class="st4"/><path id="path25" d="M205.2 164.2c3.5 0 6.3-2.8 6.3-6.3s-2.8-6.3-6.3-6.3-6.3 2.8-6.3 6.3c0 3.4 2.8 6.3 6.3 6.3" class="st4"/></g><g id="grey_3_"><g id="g28"><path id="path30" d="M255.6 322.4c25.5-28.9 40.9-66.9 40.9-108.5 0-90.7-73.5-164.2-164.2-164.2-45.4 0-86.4 18.4-116.2 48.2-6.3 7-11.9 14.5-17 22.5-2.1 3.3-4 6.7-5.9 10.2-9.7 18.2-16 38.5-18.2 60-.6 5.5-.8 11.1-.8 16.8 0 5.3.3 10.5.7 15.6 1.1 11.3 3.3 22.2 6.5 32.7 15.4 50.2 54.2 90.2 103.7 107.1 16.7 5.7 34.6 8.8 53.3 8.8 17.2 0 33.9-2.7 49.5-7.6 24.8-7.8 47-21.4 65.2-39.1.7-.6 2.5-2.5 2.5-2.5m-7.9-79.7c-2.9 9.9-6.9 19.2-11.8 28-22.6 40.1-65.1 67.1-113.7 67.1-37.7 0-71.6-16.2-95.6-42.2C4.5 271.7-9 239.5-9 204.1c0-21.2 4.8-41.2 13.4-59 21.4-44.3 66-74.8 117.7-74.8 5.4 0 10.8.3 16 1 64.9 8.1 115.1 64.4 115.1 132.8 0 13.4-1.9 26.4-5.5 38.6" class="st5"/></g><path id="path32" d="M17 96.9c0 .1-.1.1-.2.2.1-.1.2-.1.2-.2" class="st5"/></g><g id="darkbrown_1_"><path id="path35" d="M301.9 223.4c-.7 6.9-1.8 13.7-3.3 20.3-.4 1.9-.9 3.7-1.4 5.6l.8-.6 22.5-18z" class="st6"/><path id="path37" d="m-50 230.7 22.5 17.9 9 7.1c-3.2-10.5-5.4-21.4-6.5-32.7l-3.9 1.2z" class="st6"/><path id="path39" d="M69.5 265c-8.5 0-15.4 6.9-15.4 15.4s6.9 15.4 15.4 15.4 15.4-6.9 15.4-15.4S78 265 69.5 265" class="st6"/><path id="path41" d="M197.7 265c-8.5 0-15.4 6.9-15.4 15.4s6.9 15.4 15.4 15.4 15.4-6.9 15.4-15.4c-.1-8.5-6.9-15.4-15.4-15.4" class="st6"/><path id="path43" d="M200 141.9c-9.5 0-21.1 10.6-21.1 20.1s11.1 23.5 20.6 23.5 21.6-13 21.6-22.5-11.6-21.1-21.1-21.1m5.2 22.3c-3.5 0-6.3-2.8-6.3-6.3s2.8-6.3 6.3-6.3 6.3 2.8 6.3 6.3c.1 3.4-2.8 6.3-6.3 6.3" class="st6"/><path id="path45" d="M72.5 142.4c-9.5 0-19.6 11.1-19.6 20.6s12.1 22.1 21.6 22.1S96 172.5 96 163s-13.9-20.6-23.5-20.6m8.4 21.8c-3.5 0-6.3-2.8-6.3-6.3s2.8-6.3 6.3-6.3 6.3 2.8 6.3 6.3c0 3.4-2.8 6.3-6.3 6.3" class="st6"/></g><g id="cream"><path id="path48" d="M409.4 352.5c4.9-12.5 10.5-15 12.8-15.5-55.7 5.1-50.1 37.9-46.5 49.1.8 2.3 1.4 3.7 1.4 3.7s2.8 6.5 10.3 11.9c5.7 4.1 14 7.5 25.9 7 37 .6 48.7-68.5 48.7-68.5-9.1 16.1-36.1 13.6-52.6 12.3" class="st7"/><path id="path50" d="M16.8 97.1c.1-.1.2-.1.2-.2 2.3-2.5 4.7-5 7.1-7.4C12 80-9.1 67.9-32.9 73.6c0 0 3.8 27.9 32 46.8 5-8 10.7-15.5 17-22.5-.1.1-.1.2-.2.2.3-.3.6-.7.9-1" class="st7"/><path id="path52" d="M303.5 73.6c-21.6-5.2-41 4.3-53.5 13.3 9.8 9.1 18.5 19.3 25.8 30.5 24.3-18.7 27.7-43.8 27.7-43.8" class="st7"/><path id="path54" d="M133.4 221.1c-59.1 0-107.1 31.4-107.1 70.1 0 .8.1 1.6.1 2.4 0 .7.1 1.4.1 2.1 23.9 26 57.9 42.2 95.6 42.2 48.6 0 91.1-27 113.7-67.1-13.4-28.8-54.1-49.7-102.4-49.7m-63.9 74.6c-8.5 0-15.4-6.9-15.4-15.4s6.9-15.4 15.4-15.4 15.4 6.9 15.4 15.4c0 8.6-6.9 15.4-15.4 15.4m128.2 0c-8.5 0-15.4-6.9-15.4-15.4s6.9-15.4 15.4-15.4 15.4 6.9 15.4 15.4c-.1 8.6-6.9 15.4-15.4 15.4" class="st7"/><path id="path56" d="M67.8 2.3c-24.8 22.4-.2 56.6 0 56.9 14.8-7 30.7-12 47.5-14.3C83.4 40.1 67.8 2.3 67.8 2.3" class="st7"/><path id="path58" d="M204.4 2.3S189.6 38.5 159 44.5c16.4 2 32 6.5 46.5 13 4.6-7.2 20.5-35.7-1.1-55.2" class="st7"/></g><g id="g60"><path id="path62" d="M247.7 242.7c3.6-12.2 8.9-35.4 8.9-48.8 0-68.4-53.6-114.6-118.5-122.7-2.9 38.3 5 118.9 109.6 171.5m-65-79.7c0-9.5 7.7-17.2 17.2-17.2s17.2 7.7 17.2 17.2-7.7 17.2-17.2 17.2c-9.4.1-17.2-7.7-17.2-17.2" style="fill:#87654a"/></g><g id="brown"><path id="path65" d="M377.1 389.9s-.7-1.4-1.4-3.7c-5.1 4.5-17.8 14-36.9 17-5.5.9-11.6 1.2-18.2.7v38.4c2.8-1.1 6.3-2.5 10.2-4.2 7.5-3.2 16.5-7.6 25.6-12.8 0 0 .1 0 .1-.1 11.1-6.4 22.4-14.3 30.9-23.3-7.5-5.5-10.3-12-10.3-12" class="st9"/><path id="path67" d="M-32.9 73.6c23.8-5.7 44.8 6.4 57 15.9 7.6-7.4 16-14.1 25-19.9C15.9 27.5-47 53.1-47 53.1c-4.5 41.4 17.9 64.7 40.3 77.6 1.8-3.5 3.8-6.9 5.9-10.2-28.2-18.9-32.1-46.9-32.1-46.9" class="st9"/><path id="path69" d="M223.7 67c9.4 5.7 18.2 12.4 26.3 19.9 12.5-8.9 31.9-18.5 53.5-13.3 0 0-3.5 25-27.7 43.7 2.2 3.4 4.3 6.9 6.3 10.4 20.7-13.4 39.7-36.3 35.6-74.7 0 .1-60.3-24.4-94 14" class="st9"/><path id="path71" d="M139.7 71.2c-5.2-.7-12.1-1-17.5-1-51.6 0-96.3 30.5-117.7 74.8-1.4 6-2.2 12.2-2.2 18.6 0 2 .1 3.8.2 5.7.2 5.4.6 10.4 1.2 15.2 5.9 34.1 10.9 58 18.4 91.2.1.6.2 1.1.3 1.7.8 5.5 2.2 10.9 4.1 16.2 0-.8-.1-1.6-.1-2.4 0-38.7 47.9-70.1 107.1-70.1 48.3 0 89 20.9 102.4 49.6 4.9-8.8 8.9-18.1 11.8-28-51.8-32.1-73.6-56.2-88.3-87.7s-21.2-64.6-19.7-83.8M74.5 180.3c-9.5 0-17.2-7.7-17.2-17.2s7.7-17.2 17.2-17.2 17.2 7.7 17.2 17.2c0 9.4-7.7 17.2-17.2 17.2" class="st9"/></g></g></svg>