<?xml version="1.0" encoding="UTF-8"?>
<svg version="1.1" xmlns="http://www.w3.org/2000/svg" width="512" height="512">
<path d="M0 0 C1.5586923 -0.00302527 3.11738312 -0.00691662 4.67607135 -0.01159257 C8.93401068 -0.021833 13.19186544 -0.01970088 17.44981158 -0.01541197 C22.05184681 -0.01293753 26.65386206 -0.02196783 31.25588989 -0.02944946 C40.26216673 -0.04217867 49.26841373 -0.04399236 58.27469806 -0.0416492 C65.59792715 -0.03986385 72.92114721 -0.04162033 80.24437523 -0.04587364 C81.80970629 -0.04676643 81.80970629 -0.04676643 83.4066602 -0.04767724 C85.52686908 -0.04888904 87.64707797 -0.05010317 89.76728686 -0.05131962 C109.63703513 -0.06218836 129.50676642 -0.06003585 149.37651565 -0.05393478 C167.53731917 -0.04876651 185.69806905 -0.06001987 203.85886196 -0.07903299 C222.52482771 -0.09842457 241.1907681 -0.10666506 259.85674399 -0.10290974 C270.3288488 -0.10099967 280.80090796 -0.10346639 291.27300453 -0.11762428 C300.18831834 -0.12955588 309.10355839 -0.13092304 318.01887325 -0.11883412 C322.56340502 -0.11295786 327.10780199 -0.11181118 331.65232468 -0.12383652 C335.82047359 -0.13473732 339.98837583 -0.13154247 344.15651342 -0.11757483 C345.65642368 -0.1149394 347.15635354 -0.11725777 348.65624449 -0.1253107 C370.53573272 -0.2345361 388.77174813 5.50795652 404.67106628 20.88569641 C420.09742855 36.45392745 424.73721917 56.42629128 424.68849182 77.69918823 C424.69223334 79.25487978 424.69683685 80.81056945 424.70222247 82.36625618 C424.71440623 86.62065892 424.71419747 90.87498275 424.71183372 95.12939894 C424.71142437 99.72605884 424.72247602 104.32269384 424.73194885 108.91934204 C424.74853511 117.9180697 424.75405735 126.91677114 424.75517361 135.91551281 C424.75612534 143.23444983 424.76024187 150.55337825 424.76657486 157.87231255 C424.78418184 178.6447049 424.79341474 199.41707663 424.79191391 220.1894765 C424.791834 221.30844049 424.79175409 222.42740449 424.79167175 223.58027649 C424.79158999 224.70061458 424.79150823 225.82095267 424.79142399 226.9752404 C424.79061155 245.12116204 424.8097402 263.26700058 424.83794849 281.41289819 C424.86671589 300.06641747 424.88048662 318.71989628 424.87876093 337.3734383 C424.8780983 347.83728765 424.88353482 358.30104992 424.90511703 368.76487923 C424.92337977 377.67612013 424.92763459 386.58723448 424.91409819 395.49848605 C424.90759379 400.0393727 424.90735915 404.58001693 424.92480469 409.12088013 C424.94065357 413.28928729 424.93755292 417.45726221 424.92023642 421.62565958 C424.91719225 423.12229049 424.92069972 424.61895462 424.93195657 426.11554629 C425.07401662 446.36655459 420.08879062 465.19913772 405.70231628 480.05366516 C404.57309753 481.14614563 404.57309753 481.14614563 403.42106628 482.26069641 C402.32278503 483.33770813 402.32278503 483.33770813 401.20231628 484.43647766 C385.52043477 499.09682816 367.67798502 502.57907257 346.84213257 502.52139282 C345.28344027 502.52441809 343.72474945 502.52830944 342.16606122 502.53298539 C337.90812189 502.54322582 333.65026713 502.5410937 329.39232099 502.5368048 C324.79028576 502.53433035 320.18827051 502.54336065 315.58624268 502.55084229 C306.57996584 502.56357149 297.57371883 502.56538519 288.56743451 502.56304202 C281.24420542 502.56125667 273.92098536 502.56301316 266.59775734 502.56726646 C265.03242628 502.56815925 265.03242628 502.56815925 263.43547237 502.56907007 C261.31526348 502.57028186 259.1950546 502.57149599 257.07484571 502.57271244 C237.20509744 502.58358118 217.33536615 502.58142867 197.46561692 502.5753276 C179.30481339 502.57015934 161.14406352 502.58141269 142.98327061 502.60042582 C124.31730485 502.61981739 105.65136447 502.62805788 86.98538858 502.62430257 C76.51328377 502.62239249 66.04122461 502.62485922 55.56912804 502.63901711 C46.65381422 502.6509487 37.73857418 502.65231586 28.82325932 502.64022694 C24.27872754 502.63435069 19.73433057 502.633204 15.18980789 502.64522934 C11.02165898 502.65613014 6.85375674 502.65293529 2.68561915 502.63896766 C1.18570889 502.63633222 -0.31422097 502.6386506 -1.81411193 502.64670352 C-23.69360015 502.75592893 -41.92961556 497.0134363 -57.82893372 481.63569641 C-73.25529598 466.06746537 -77.8950866 446.09510154 -77.84635925 424.82220459 C-77.85010077 423.26651304 -77.85470428 421.71082337 -77.8600899 420.15513664 C-77.87227366 415.9007339 -77.8720649 411.64641007 -77.86970115 407.39199388 C-77.8692918 402.79533398 -77.88034345 398.19869898 -77.88981628 393.60205078 C-77.90640255 384.60332313 -77.91192478 375.60462168 -77.91304104 366.60588001 C-77.91399277 359.28694299 -77.9181093 351.96801458 -77.92444229 344.64908028 C-77.94204927 323.87668792 -77.95128217 303.1043162 -77.94978134 282.33191632 C-77.94966147 280.65347033 -77.94966147 280.65347033 -77.94953918 278.94111633 C-77.94945742 277.82077824 -77.94937566 276.70044015 -77.94929142 275.54615242 C-77.94847898 257.40023078 -77.96760764 239.25439224 -77.99581592 221.10849463 C-78.02458332 202.45497535 -78.03835405 183.80149654 -78.03662837 165.14795452 C-78.03596573 154.68410517 -78.04140225 144.2203429 -78.06298447 133.7565136 C-78.0812472 124.84527269 -78.08550202 115.93415834 -78.07196562 107.02290677 C-78.06546122 102.48202012 -78.06522658 97.94137589 -78.08267212 93.4005127 C-78.098521 89.23210554 -78.09542035 85.06413062 -78.07810386 80.89573324 C-78.07505968 79.39910234 -78.07856715 77.9024382 -78.08982401 76.40584653 C-78.23188405 56.15483823 -73.24665805 37.3222551 -58.86018372 22.46772766 C-58.10737122 21.73940735 -57.35455872 21.01108704 -56.57893372 20.26069641 C-55.84674622 19.5426886 -55.11455872 18.82468079 -54.36018372 18.08491516 C-38.67830221 3.42456467 -20.83585245 -0.05767974 0 0 Z " fill="#EC6608" transform="translate(82.57893371582031,4.7393035888671875)"/>
<path d="M0 0 C4.52784618 4.10722659 7.51774616 8.67464701 10.6875 13.875 C13.72060338 18.7915053 16.74611602 23.6934119 20.0390625 28.44140625 C20.50739502 29.11896973 20.97572754 29.7965332 21.45825195 30.49462891 C22.34246359 31.76316257 23.23645725 33.02494913 24.14135742 34.27880859 C27.00318587 38.40636678 27.00318587 38.40636678 26.98828125 41.18359375 C25.74932922 43.46071903 24.29592639 44.88207451 22.375 46.625 C12.45310497 56.24569464 4.0277076 69.56259621 3.75732422 83.68261719 C3.63472006 120.38212892 28.62815889 150.03496613 53.0625 175.1171875 C54.69618349 176.75791273 56.34510176 178.38073354 58 180 C61.05970433 183.04855787 64.10350334 186.11250241 67.14453125 189.1796875 C68.70045899 190.74485315 70.2564502 192.3099557 71.8125 193.875 C72.58142578 194.65230469 73.35035156 195.42960938 74.14257812 196.23046875 C78.34470216 200.45032327 82.62015289 204.50442481 87.13549805 208.38720703 C89.98860472 210.85514243 92.74076951 213.42821145 95.5 216 C99.62770354 219.82901545 103.7849072 223.60862497 108.04296875 227.29296875 C111.25653507 230.09601961 114.40922137 232.96659592 117.57421875 235.82421875 C119.63702788 237.67443563 121.7171237 239.49944809 123.8125 241.3125 C133.21721116 249.52024792 142.2632294 258.08573293 151 267 C154.02977429 265.64768813 156.08472613 264.14519457 158.390625 261.76953125 C159.32479248 260.81784058 159.32479248 260.81784058 160.27783203 259.84692383 C160.92864746 259.17556396 161.57946289 258.5042041 162.25 257.8125 C166.68054914 253.31059269 171.08619153 248.88022681 175.9140625 244.80078125 C178.84294823 242.27228627 181.6652498 239.63309847 184.5 237 C188.62836423 233.17167761 192.78487908 229.39139936 197.04296875 225.70703125 C199.3855915 223.66366569 201.69273422 221.58319141 204 219.5 C206.91488929 216.86819555 209.84273211 214.25713074 212.8125 211.6875 C223.35387873 202.47703304 233.40868627 192.77786395 243.30371094 182.8815918 C245.25697528 180.93053259 247.21815254 178.98766164 249.1796875 177.04492188 C256.2514831 170.00514327 262.87425618 162.89026725 269 155 C269.58571777 154.26821533 270.17143555 153.53643066 270.77490234 152.7824707 C281.86494184 138.91910899 290.49800387 124.54971122 297 108 C297.54527344 106.61941406 297.54527344 106.61941406 298.1015625 105.2109375 C302.54418835 91.80002023 301.28375136 76.51977802 295 64 C290.25033951 55.76175513 283.69954955 48.69954955 277 42 C277.27429248 37.53911264 279.32925992 34.59383613 281.7890625 30.95703125 C282.17057465 30.38852951 282.55208679 29.82002777 282.94515991 29.23429871 C284.16426504 27.4218333 285.39447298 25.61722465 286.625 23.8125 C287.42910752 22.61962707 288.23249957 21.42627152 289.03515625 20.23242188 C293.61491609 13.4358223 298.27286406 6.69501517 303 0 C308.69199021 3.33509514 313.19122069 7.50749317 318 12 C318.76957031 12.69222656 319.53914063 13.38445312 320.33203125 14.09765625 C337.37034285 30.06174855 347.58019939 54.81092309 349.28662109 77.8737793 C349.39945499 81.75373802 349.41003699 85.6186806 349.375 89.5 C349.38660156 90.78519531 349.39820313 92.07039063 349.41015625 93.39453125 C349.37321864 105.64550379 347.29627119 117.33998988 343.3125 128.9375 C343.05758789 129.68563965 342.80267578 130.4337793 342.54003906 131.20458984 C332.87265653 158.58395697 314.29418526 182.98587339 293.77001953 203.19067383 C291.95066387 205.05043173 290.25721188 206.98010038 288.56640625 208.95703125 C284.94124611 213.15357559 281.00515296 216.92439229 276.9375 220.6875 C276.20088135 221.37448975 275.4642627 222.06147949 274.70532227 222.76928711 C273.19969705 224.1724734 271.69246568 225.57393836 270.18359375 226.97363281 C268.13891262 228.87108958 266.0997078 230.77421361 264.0625 232.6796875 C258.74713586 237.64468085 253.41904051 242.58057352 247.9140625 247.3359375 C244.7541252 250.0831483 241.65440068 252.89693514 238.546875 255.703125 C236.9363536 257.15555841 235.32222143 258.60400676 233.703125 260.046875 C226.40610582 266.56032165 219.286731 273.25874567 212.16601562 279.96337891 C209.97352316 282.02489515 207.7763562 284.08132416 205.578125 286.13671875 C199.28157205 292.03172005 192.99884891 297.92462979 186.9375 304.0625 C183.40354796 307.63928782 179.80268786 311.03954478 175.94921875 314.26953125 C173.77450976 316.07518501 173.77450976 316.07518501 171.734375 319.12109375 C167.20496371 323.64909423 160.75936697 323.21530732 154.72802734 323.25683594 C154.01340332 323.25458008 153.2987793 323.25232422 152.5625 323.25 C151.83869141 323.25225586 151.11488281 323.25451172 150.36914062 323.25683594 C142.59686325 323.20502076 135.39073155 323.06513207 129.20898438 317.7902832 C126.87001117 315.3400417 124.73514883 312.79258071 122.67919922 310.10107422 C119.62769182 306.28291884 116.05372559 302.97335668 112.5625 299.5625 C111.29215019 298.27294127 110.02259046 296.98260365 108.75390625 295.69140625 C105.59338766 292.52424617 102.27792231 289.58830245 98.89038086 286.66772461 C95.62332837 283.78547799 92.61498779 280.65935559 89.578125 277.5390625 C86.21506396 274.12175854 82.69603868 270.95272833 79.0703125 267.81640625 C74.94151623 264.19397178 70.98702699 260.38224236 67 256.60546875 C63.00360625 252.83543324 58.94339281 249.16068071 54.79492188 245.55859375 C47.30124254 239.0515686 40.00452961 232.31086258 32.71289062 225.57910156 C31.52074452 224.48007064 30.32658035 223.38322641 29.13085938 222.28808594 C19.2865256 213.2632954 9.90485339 203.95587307 1 194 C0.26789307 193.18499023 0.26789307 193.18499023 -0.47900391 192.35351562 C-30.31145859 158.8884785 -46.76189138 122.19577668 -45 77 C-43.0686425 51.25789684 -30.70981799 28.7188686 -12.875 10.625 C-12.28895996 10.02937256 -11.70291992 9.43374512 -11.09912109 8.82006836 C-7.62494607 5.37282872 -4.1668175 2.57101506 0 0 Z " fill="#EDE9D5" transform="translate(104,119)"/>
<path d="M0 0 C16.5 0 33 0 50 0 C50.33 20.79 50.66 41.58 51 63 C57.93 57.555 57.93 57.555 65 52 C79.40265344 42.68063601 95.41043481 34 113 34 C113 50.17 113 66.34 113 83 C107.72 84.98 102.44 86.96 97 89 C88.31445116 93.00929131 80.17083277 97.61965273 73 104 C72.30390625 104.60328125 71.6078125 105.2065625 70.890625 105.828125 C55.06334026 120.46538833 53.39127734 142.08948365 51.69677734 162.31005859 C51.62023926 163.2170752 51.54370117 164.1240918 51.46484375 165.05859375 C51.36610962 166.26986938 51.36610962 166.26986938 51.26538086 167.50561523 C50.96252306 170.35225566 50.47062594 173.17624438 50 176 C33.5 176 17 176 0 176 C-2.17834542 159.66240938 -2.17834542 159.66240938 -2.73291016 153.63793945 C-4.46657154 134.99176989 -7.96451873 117.2215073 -22.37890625 104.1015625 C-34.51641325 94.36985048 -48.58141662 88.54560899 -63 83 C-63 66.83 -63 50.66 -63 34 C-38.97061417 36.66993176 -19.6473163 48.08214696 -1 63 C-0.67 42.21 -0.34 21.42 0 0 Z " fill="#EDE9D6" transform="translate(231,71)"/>
<path d="M0 0 C0.66 0.33 1.32 0.66 2 1 C-6.81289725 10.88810911 -6.81289725 10.88810911 -10 14 C-12.05270463 15.84188612 -12.05270463 15.84188612 -13 18 C-13.66 18 -14.32 18 -15 18 C-13.52357373 12.77345099 -10.17768064 9.83173561 -6.375 6.1875 C-5.76398437 5.59001953 -5.15296875 4.99253906 -4.5234375 4.37695312 C-3.02235161 2.91104894 -1.51207138 1.45457007 0 0 Z " fill="#EE7B2B" transform="translate(32,19)"/>
</svg>
