<svg xmlns="http://www.w3.org/2000/svg" fill="none" viewBox="2 2 36.25 30.92"><path fill="#ff6740" d="M34.542 21.669H8.216a.585.585 0 0 1 0-1.17h26.326a.585.585 0 0 1 0 1.17Zm0 2.218H8.216a.585.585 0 1 1 0-1.17h26.326a.585.585 0 0 1 0 1.17Z"/><path fill="#ff6740" d="M30.233 23.229v3.912l1.675-.97 1.676.97V23.23h-3.35Z"/><path fill="#272B30" d="M35.715 10.866h-4.403v2.441h4.403v-2.44Z"/><path fill="#F1F1F1" d="M38.08 13.928c-.021-.02-.043-.037-.065-.056a5.998 5.998 0 0 1-1.266-1.536l-.009-.018h-.001a5.91 5.91 0 0 1-.72-2.15c-.004-.047-.01-.093-.015-.14v-.009a1.514 1.514 0 0 0-.327-.725l-.048-.054a10.43 10.43 0 0 0-5.301-3.198 6.574 6.574 0 0 1 .81-3.484.376.376 0 0 0-.332-.557h-.026a13.705 13.705 0 0 0-6.965 3.33 13.792 13.792 0 0 0-2.85 3.56 12.616 12.616 0 0 0-1.722-.764 12.859 12.859 0 0 0-5.536-.697 12.765 12.765 0 0 0-4.165 1.105C5.379 10.437 2.405 14.49 2.039 19.27c-.026.33-.039.665-.039 1v3.233c0 .56.083 1.098.237 1.605a5.55 5.55 0 0 0 2.596 3.226c.76.427 1.63.68 2.56.704h8.212a1.623 1.623 0 0 1 .243 0c.013 0 .026 0 .04.003.021.001.042.002.064.005a1.941 1.941 0 0 1 1.706 1.702 1.291 1.291 0 0 1 .014.23l-.001.036v.004a1.95 1.95 0 0 0 .918 1.61 1.94 1.94 0 0 0 2.955-1.514.943.943 0 0 0 .004-.077v-.108c0-.662-.11-1.3-.313-1.891a5.816 5.816 0 0 0-1.421-2.254 5.815 5.815 0 0 0-4.087-1.676H8.88c-.016.002-.033.002-.05.002-.016 0-.033 0-.05-.002a2.917 2.917 0 0 1-2.87-2.918 2.92 2.92 0 0 1 2.92-2.921h26.106a1.52 1.52 0 0 0 1.443-1.05l.02-.07c.091-.294.27-.55.506-.737l.004-.002a.638.638 0 0 1 .058-.044.934.934 0 0 1 .082-.055 2.985 2.985 0 0 0 1.032-3.385Zm-3.487-1.165a.377.377 0 0 1-.175-.044 2.037 2.037 0 0 0-1.423-.234c-.212.04-.412.114-.595.215l-.008.006c-.012.004-.022.011-.032.018a.369.369 0 0 1-.37-.634l.036-.022a2.794 2.794 0 0 1 2.735 0l.036.022a.367.367 0 0 1-.204.673Z"/><path fill="#E6E6E6" d="M38.08 13.928c-.021-.02-.043-.037-.065-.056a5.998 5.998 0 0 1-1.266-1.536l-.009-.018h-.001a5.91 5.91 0 0 1-.72-2.15c-.004-.047-.01-.093-.015-.14v-.009a1.514 1.514 0 0 0-.327-.725l-.048-.054a10.43 10.43 0 0 0-5.301-3.198 6.574 6.574 0 0 1 .81-3.484.376.376 0 0 0-.332-.557h-.026a13.705 13.705 0 0 0-6.965 3.33 13.792 13.792 0 0 0-2.85 3.56 12.616 12.616 0 0 0-1.722-.764 12.859 12.859 0 0 0-5.536-.697 12.765 12.765 0 0 0-4.165 1.105C5.379 10.437 2.405 14.49 2.039 19.27c-.026.33-.039.665-.039 1v3.233c0 .56.083 1.098.237 1.605a5.55 5.55 0 0 0 2.596 3.226c.76.427 1.63.68 2.56.704h8.212a1.623 1.623 0 0 1 .243 0c.013 0 .026 0 .04.003.021.001.042.002.064.005a1.941 1.941 0 0 1 1.706 1.702 1.291 1.291 0 0 1 .014.23l-.001.036v.004a1.95 1.95 0 0 0 .918 1.61 1.94 1.94 0 0 0 2.955-1.514.943.943 0 0 0 .004-.077v-.108c0-.662-.11-1.3-.313-1.891a5.816 5.816 0 0 0-1.421-2.254 5.815 5.815 0 0 0-4.087-1.676H8.88c-.016.002-.033.002-.05.002-.016 0-.033 0-.05-.002a2.917 2.917 0 0 1-2.87-2.918 2.92 2.92 0 0 1 2.92-2.921h26.106a1.52 1.52 0 0 0 1.443-1.05l.02-.07c.091-.294.27-.55.506-.737l.004-.002a.638.638 0 0 1 .058-.044.934.934 0 0 1 .082-.055 2.985 2.985 0 0 0 1.032-3.385Zm-3.487-1.165a.377.377 0 0 1-.175-.044 2.037 2.037 0 0 0-1.423-.234c-.212.04-.412.114-.595.215l-.008.006c-.012.004-.022.011-.032.018a.369.369 0 0 1-.37-.634l.036-.022a2.794 2.794 0 0 1 2.735 0l.036.022a.367.367 0 0 1-.204.673Z"/><path fill="#ff6740" d="M21.005 8.824c.703 3.38 3.635 5.915 7.147 5.915 2.067 0 3.933-.88 5.262-2.292l-.021-.001c-.137 0-.27.013-.398.04a1.942 1.942 0 0 0-.595.214l-.008.006a.11.11 0 0 0-.033.019.369.369 0 0 1-.532-.33c0-.128.064-.239.162-.305l.037-.022a2.789 2.789 0 0 1 1.952-.294 7.519 7.519 0 0 0 1.309-2.898 10.415 10.415 0 0 0-4.96-2.834 6.573 6.573 0 0 1 .81-3.485.376.376 0 0 0-.332-.557c-.008 0-.017 0-.026.002a13.7 13.7 0 0 0-6.965 3.33 13.793 13.793 0 0 0-2.81 3.492Z"/><path fill="#272B30" d="M36.145 15.807a13.641 13.641 0 0 0-.955-.26 16.819 16.819 0 0 0-2.907-.459c-.652-.054-1.306-.027-1.956.023l-.488.054c-.162.023-.32.062-.482.09-.328.04-.636.16-.962.228a7.178 7.178 0 0 1 1.906-.572 8.967 8.967 0 0 1 1.998-.083 11.15 11.15 0 0 1 1.972.313 9.682 9.682 0 0 1 1.874.666Zm-.287.6a13.093 13.093 0 0 0-.983-.115 16.794 16.794 0 0 0-2.944-.022c-.653.043-1.295.167-1.93.313l-.475.126c-.156.047-.308.108-.463.16-.319.089-.605.252-.917.369a7.175 7.175 0 0 1 1.8-.849 8.965 8.965 0 0 1 1.963-.38c.665-.05 1.335-.05 1.997.018a9.73 9.73 0 0 1 1.952.38Zm-.045.699c-.33.026-.659.051-.985.1a16.838 16.838 0 0 0-2.878.614c-.628.183-1.228.442-1.818.723l-.435.225c-.143.08-.278.172-.418.257-.293.155-.537.376-.817.557a7.174 7.174 0 0 1 1.575-1.217 8.939 8.939 0 0 1 1.835-.794 11.13 11.13 0 0 1 1.953-.415 9.683 9.683 0 0 1 1.988-.05Z"/><path fill="#F27BAA" d="M38.015 13.872a6.04 6.04 0 0 1-.32-.3.968.968 0 0 0 .5 1.796h.015c.006-.041.016-.08.02-.122a2.95 2.95 0 0 0-.15-1.319l-.065-.055Z"/><path fill="#fff" d="M29.993 6.54c0 .046 0 .092.002.138a10.408 10.408 0 0 0-3.166 2.017 5.556 5.556 0 0 1 4.345-6.23 7.584 7.584 0 0 0-1.18 4.075Z"/><path fill="#ff6740" d="M19.814 26.785a5.844 5.844 0 0 0-.404-.36 4.512 4.512 0 0 0-3.245 2.66 1.942 1.942 0 0 1 1.507 1.893l-.001.037v.004a1.955 1.955 0 0 0 .918 1.611 1.94 1.94 0 0 0 2.959-1.592v-.108c0-.662-.11-1.3-.313-1.891a5.831 5.831 0 0 0-1.421-2.255Z"/></svg>