<svg xmlns="http://www.w3.org/2000/svg" xmlns:xlink="http://www.w3.org/1999/xlink" viewBox="0 0 320 320"><defs><linearGradient xlink:href="#a" id="c" x1="105.889" x2="153.521" y1="-7.967" y2="74.533" gradientUnits="userSpaceOnUse"/><linearGradient id="a"><stop offset="0" style="stop-color:#2de2e6;stop-opacity:1"/><stop offset="1" style="stop-color:#39f;stop-opacity:1"/></linearGradient><linearGradient xlink:href="#b" id="d" x1="97.229" x2="97.229" y1="82.033" y2="107.033" gradientUnits="userSpaceOnUse"/><linearGradient id="b"><stop offset="0" style="stop-color:#f623ac;stop-opacity:1"/><stop offset="1" style="stop-color:#f706cf;stop-opacity:1"/></linearGradient></defs><path fill="none" d="M0-2.706h323.658v325.412H0z" style="display:inline;opacity:1;fill:#29144a;fill-opacity:0;stroke:none;stroke-width:4.39823;stroke-linecap:round;stroke-linejoin:round;stroke-dasharray:none;stroke-opacity:1"/><g style="display:inline;fill:none"><path d="m92.899-25.467-69.282 120a5 5 60 0 0 4.33 7.5h138.564a5 5 120 0 0 4.33-7.5l-69.282-120a5 5 180 0 0-8.66 0z" style="display:inline;opacity:1;fill:url(#c);fill-opacity:1;stroke:none;stroke-width:1;stroke-linecap:round;stroke-linejoin:round;stroke-dasharray:none;stroke-opacity:1" transform="matrix(2.06682 0 0 1.902 -40.99 88.294)"/><path d="m103.616 27.033-43.3 75h17.32l12.99-22.5 12.99 22.5 12.992-22.5 12.99 22.5h17.32zm0 15 10.827 18.75a7.5 7.5 90 0 1 0 7.5l-10.827 18.75-10.825-18.75a7.5 7.5 90 0 1 0-7.5z" style="display:inline;opacity:1;fill:#241734;fill-opacity:1;stroke:none;stroke-width:1;stroke-linecap:round;stroke-linejoin:round;stroke-dasharray:none;stroke-opacity:1" transform="matrix(2.06682 0 0 1.902 -54.154 50.503)"/><path d="M27.947 102.033h138.564a5 5 120 0 0 4.33-7.5l-7.217-12.5H123.21l-12.99-22.5-12.99 22.5-12.991-22.5-12.99 22.5H30.833l-7.217 12.5a5 5 60 0 0 4.33 7.5z" style="display:inline;opacity:1;fill:url(#d);fill-opacity:1;stroke:none;stroke-width:1;stroke-linecap:round;stroke-linejoin:round;stroke-dasharray:none;stroke-opacity:1" transform="matrix(2.0692 0 0 1.90784 -41.19 87.809)"/></g></svg>