<svg width="85" height="20" viewBox="0 0 85 20" xmlns="http://www.w3.org/2000/svg">
<g>
<path d="M41.8347 15.7576C42.3607 17.7273 43.4437 18.7273 45.0837 18.7273C45.8263 18.7273 46.4761 18.5152 47.0331 18.0606C48.3946 17.0303 49.0444 15.2121 49.0444 12.5758C49.0444 11.5152 48.9206 10.6061 48.6421 9.81818C48.0542 8.09091 47.0022 7.24242 45.4241 7.24242C44.8362 7.24242 44.2792 7.39394 43.7532 7.66667C42.237 8.51515 41.4943 10.3333 41.4943 13.1515C41.5253 14.1212 41.6181 15 41.8347 15.7576ZM52.2006 19.697H49.0134V16.6364C48.9825 16.7273 48.9206 16.8485 48.8897 16.9394C47.8686 18.9697 46.1977 20 43.9079 20C42.7011 20 41.5872 19.6667 40.6279 19C38.8642 17.8182 37.9978 15.9697 37.9978 13.5152C37.9978 11.7879 38.4619 10.303 39.3593 9C40.6279 7.24242 42.4226 6.36364 44.7433 6.36364C46.4761 6.36364 47.8995 6.87879 48.9825 7.87879V0.757576V0H52.2006V18.9091V19.697Z" fill="#0D2051"/>
<path d="M73.8916 15.001C74.201 17.8192 75.4696 19.2434 77.6666 19.2434C80.1729 19.2131 81.4416 17.1525 81.4725 13.0616C81.4725 12.2737 81.4416 11.5464 81.3488 10.9101C80.9775 8.39493 79.7397 7.1525 77.6356 7.1525C75.284 7.30402 74.0153 9.33432 73.7987 13.1828C73.7987 13.8495 73.8297 14.4555 73.8916 15.001ZM82.0914 7.57675C84.0408 8.81917 85 10.6677 85 13.1222C85 14.9404 84.3812 16.4858 83.1744 17.7586C81.7201 19.2434 79.8635 20.001 77.5737 20.001C75.9028 20.001 74.4176 19.5464 73.118 18.6677C71.1995 17.3646 70.2712 15.5161 70.2712 13.0616C70.2712 11.304 70.8592 9.81917 72.035 8.60705C73.4584 7.1222 75.3768 6.39493 77.7594 6.39493C79.3684 6.39493 80.8227 6.78887 82.0914 7.57675Z" fill="#0D2051"/>
<path d="M20.051 1.51517V18.9091V19.697H16.6163V18.9091V4.36365L9.19003 19.9091H8.54023L1.36149 6.48486V18.9091V19.697H0V1.51517H2.5992L9.99454 15.6364L16.6163 1.51517H20.051Z" fill="#0D2051"/>
<path d="M28.7459 7.36462C29.0863 7.21311 29.4885 7.1525 29.9217 7.1525C31.3451 7.1525 32.2424 7.81917 32.6138 9.1222C32.7375 9.51614 32.7685 9.91008 32.7685 10.304C32.7685 11.304 32.3043 11.9101 31.407 12.1222C30.9119 12.2434 30.1693 12.2737 29.241 12.2434L26.3014 12.1828C26.3633 9.60705 27.1988 8.00099 28.7459 7.36462ZM34.2537 17.5767C33.573 18.304 32.7066 18.7889 31.6545 19.0313C31.3142 19.1222 30.9428 19.1525 30.6025 19.1525C27.8486 19.1525 26.3942 17.1222 26.3014 13.0919V13.0313L29.9217 13.0919C32.9541 13.1525 34.8416 12.8192 35.5843 12.0919C35.9246 11.698 36.1103 11.2131 36.1103 10.6374C36.1103 9.1222 35.2748 7.97069 33.6349 7.18281C32.5209 6.66766 31.2832 6.39493 29.8908 6.39493C27.2606 6.39493 25.3112 7.30402 24.0116 9.1525C23.2071 10.3343 22.7739 11.698 22.7739 13.2434C22.7739 15.9404 23.8569 17.8495 25.992 19.0313C27.1678 19.6677 28.4674 20.001 29.9527 20.001C32.2734 20.001 34.0062 19.304 35.1201 17.8798L34.2537 17.5767Z" fill="#0D2051"/>

<path d="M61.1431 7.36462C61.4835 7.21311 61.8857 7.1525 62.3189 7.1525C63.7423 7.1525 64.6397 7.81917 65.011 9.1222C65.1347 9.51614 65.1657 9.91008 65.1657 10.304C65.1657 11.304 64.7015 11.9101 63.8042 12.1222C63.3091 12.2434 62.5665 12.2737 61.6382 12.2434L58.6986 12.1828C58.7605 9.60705 59.596 8.00099 61.1431 7.36462ZM66.6509 17.5767C65.9702 18.304 65.1038 18.7889 64.0517 19.0313C63.7114 19.1222 63.3401 19.1525 62.9997 19.1525C60.2458 19.1525 58.7915 17.1222 58.6986 13.0919V13.0313L62.3189 13.0919C65.3513 13.1525 67.2388 12.8192 67.9815 12.0919C68.3218 11.698 68.5075 11.2131 68.5075 10.6374C68.5075 9.1222 67.672 7.97069 66.0321 7.18281C64.9181 6.66766 63.6804 6.39493 62.288 6.39493C59.6579 6.39493 57.7085 7.30402 56.4089 9.1525C55.6043 10.3343 55.1711 11.698 55.1711 13.2434C55.1711 15.9404 56.2541 17.8495 58.3892 19.0313C59.565 19.6677 60.8956 20.001 62.3808 20.001C64.7015 20.001 66.4343 19.304 67.5483 17.8798L66.6509 17.5767Z" fill="#0D2051"/></g>

</svg>