<svg id="LOGO" xmlns="http://www.w3.org/2000/svg" xmlns:xlink="http://www.w3.org/1999/xlink" viewBox="0 0 126.93 42.62"><defs><style>.cls-1{fill:#fff;}.cls-2{fill:#55bcc3;}.cls-3{fill:none;}.cls-4{fill:url(#VERLOOP_);}.cls-5{fill:#398aa3;}.cls-6{opacity:0.46;fill:url(#VERLOOP_2);}</style><linearGradient id="VERLOOP_" x1="61.3" y1="63.78" x2="88.85" y2="50.39" gradientTransform="translate(97.9 0)" gradientUnits="userSpaceOnUse"><stop offset="0" stop-color="#55bcc3"/><stop offset="1" stop-color="#b2ff6e"/></linearGradient><linearGradient id="VERLOOP_2" x1="63.52" y1="68.34" x2="91.06" y2="54.94" xlink:href="#VERLOOP_"/></defs><path class="cls-1" d="M67.31,65.23c-.14-.34-.33-.78-.57-1.31L66,62.2c-.27-.62-.56-1.25-.87-1.9l-.87-1.85c-.27-.58-.53-1.1-.77-1.56s-.42-.81-.57-1c-.15,1.69-.28,3.52-.38,5.49s-.19,4-.26,6h-2c.05-1.29.12-2.6.19-3.91s.16-2.6.25-3.87.19-2.5.3-3.7.23-2.35.35-3.42h1.83c.39.63.8,1.37,1.25,2.23s.89,1.76,1.33,2.7.87,1.88,1.29,2.82.8,1.79,1.14,2.57c.34-.78.72-1.63,1.14-2.57s.84-1.88,1.29-2.82.89-1.84,1.33-2.7.86-1.6,1.25-2.23H75q.72,7.2,1.09,14.9H74q-.11-3-.26-6t-.39-5.49c-.14.24-.33.59-.56,1s-.5,1-.77,1.56l-.87,1.85c-.31.65-.6,1.28-.87,1.9l-.76,1.72c-.24.53-.43,1-.57,1.31Z" transform="translate(-60.22 -46.81)"/><path class="cls-1" d="M78.6,61.73A7.06,7.06,0,0,1,79,59.14a5.23,5.23,0,0,1,1.14-1.84,4.61,4.61,0,0,1,1.63-1.1,5.2,5.2,0,0,1,1.89-.36,4.29,4.29,0,0,1,3.46,1.41,6.45,6.45,0,0,1,1.21,4.28v.34a2.13,2.13,0,0,1,0,.37H80.68a4.11,4.11,0,0,0,1,2.65,3.72,3.72,0,0,0,2.75.9,7.45,7.45,0,0,0,1.78-.18,5.58,5.58,0,0,0,1.08-.36l.28,1.68a5.62,5.62,0,0,1-1.28.41,9.29,9.29,0,0,1-2.07.21,6.47,6.47,0,0,1-2.53-.44A4.73,4.73,0,0,1,80,65.9a4.94,4.94,0,0,1-1-1.84A7.86,7.86,0,0,1,78.6,61.73Zm7.67-1.1a3.35,3.35,0,0,0-.68-2.22,2.31,2.31,0,0,0-1.92-.87,2.73,2.73,0,0,0-1.21.26,3,3,0,0,0-.9.7,3.46,3.46,0,0,0-.57,1,5.56,5.56,0,0,0-.27,1.14Z" transform="translate(-60.22 -46.81)"/><path class="cls-1" d="M90.61,61.73A7.28,7.28,0,0,1,91,59.14a5.53,5.53,0,0,1,1.14-1.84,4.65,4.65,0,0,1,1.64-1.1,5.12,5.12,0,0,1,1.89-.36,4.3,4.3,0,0,1,3.46,1.41,6.45,6.45,0,0,1,1.2,4.28v.34c0,.13,0,.26,0,.37H92.7a4.06,4.06,0,0,0,1,2.65,3.7,3.7,0,0,0,2.75.9,7.42,7.42,0,0,0,1.77-.18,6,6,0,0,0,1.09-.36l.28,1.68a5.8,5.8,0,0,1-1.28.41,9.32,9.32,0,0,1-2.08.21,6.45,6.45,0,0,1-2.52-.44A4.73,4.73,0,0,1,92,65.9a4.94,4.94,0,0,1-1-1.84A7.54,7.54,0,0,1,90.61,61.73Zm7.68-1.1a3.4,3.4,0,0,0-.68-2.22,2.34,2.34,0,0,0-1.92-.87,2.77,2.77,0,0,0-1.22.26,2.94,2.94,0,0,0-.89.7,3.46,3.46,0,0,0-.57,1,4.51,4.51,0,0,0-.27,1.14Z" transform="translate(-60.22 -46.81)"/><path class="cls-1" d="M105.85,65.86a3.88,3.88,0,0,0,1.82-.33,1.09,1.09,0,0,0,.59-1,1.36,1.36,0,0,0-.58-1.16,9.37,9.37,0,0,0-1.91-1c-.43-.17-.85-.34-1.24-.52a4.32,4.32,0,0,1-1-.64,2.7,2.7,0,0,1-.69-.88,3.11,3.11,0,0,1,.84-3.62,4.69,4.69,0,0,1,3-.87c.31,0,.63,0,.94,0l.89.13c.27,0,.51.1.72.16l.48.15-.37,1.72a5.13,5.13,0,0,0-1-.35,6.57,6.57,0,0,0-1.65-.19,3.06,3.06,0,0,0-1.46.34,1.1,1.1,0,0,0-.63,1,1.51,1.51,0,0,0,.14.65,1.66,1.66,0,0,0,.43.5,4,4,0,0,0,.72.42c.29.13.63.26,1,.41s1,.4,1.42.59a4.36,4.36,0,0,1,1.07.68,2.5,2.5,0,0,1,.67.93,3.36,3.36,0,0,1,.24,1.35,2.65,2.65,0,0,1-1.15,2.34,5.74,5.74,0,0,1-3.28.79,8.8,8.8,0,0,1-2.32-.24c-.56-.17-.94-.29-1.14-.38l.37-1.72,1.09.39A6.38,6.38,0,0,0,105.85,65.86Z" transform="translate(-60.22 -46.81)"/><path class="cls-1" d="M112.84,56.44c.46-.11,1.06-.24,1.82-.37a16.6,16.6,0,0,1,2.61-.19,5,5,0,0,1,1.8.29,3.16,3.16,0,0,1,1.23.85l.47-.3a5,5,0,0,1,.8-.38,7.71,7.71,0,0,1,1.05-.32,5.5,5.5,0,0,1,1.25-.14,5,5,0,0,1,2.1.38,3,3,0,0,1,1.28,1.06,4.14,4.14,0,0,1,.63,1.64A13.06,13.06,0,0,1,128,61V67.3h-2V61.45a11.86,11.86,0,0,0-.1-1.7,3.35,3.35,0,0,0-.36-1.18,1.66,1.66,0,0,0-.74-.7,2.68,2.68,0,0,0-1.19-.23,4.36,4.36,0,0,0-1.66.27,3.16,3.16,0,0,0-.9.49,7.08,7.08,0,0,1,.26,1.22,10.51,10.51,0,0,1,.09,1.4V67.3h-2V61.45a11.72,11.72,0,0,0-.11-1.7,3.34,3.34,0,0,0-.38-1.18,1.59,1.59,0,0,0-.73-.7,2.62,2.62,0,0,0-1.17-.23l-.64,0-.66.06-.57.07-.34.07V67.3h-2Z" transform="translate(-60.22 -46.81)"/><path class="cls-1" d="M135,55.84a5.74,5.74,0,0,1,2,.31,3.17,3.17,0,0,1,2,2.24,6.25,6.25,0,0,1,.22,1.73v7l-.72.12c-.31,0-.66.1-1,.14l-1.26.12c-.45,0-.9,0-1.35,0a7.31,7.31,0,0,1-1.74-.19,4,4,0,0,1-1.37-.61,2.84,2.84,0,0,1-.91-1.11,4,4,0,0,1-.32-1.66,3.22,3.22,0,0,1,.38-1.59,3,3,0,0,1,1-1.07,4.58,4.58,0,0,1,1.5-.6,8.23,8.23,0,0,1,1.81-.2,4.4,4.4,0,0,1,.62,0l.62.08.5.1.3.06v-.56a4.09,4.09,0,0,0-.11-1,2.26,2.26,0,0,0-.38-.85,1.89,1.89,0,0,0-.77-.61,3,3,0,0,0-1.25-.22,8.83,8.83,0,0,0-1.73.14A5.68,5.68,0,0,0,132,58l-.24-1.66A6.79,6.79,0,0,1,133,56,11,11,0,0,1,135,55.84Zm.17,10c.47,0,.89,0,1.26,0a5,5,0,0,0,.91-.12V62.37a2.53,2.53,0,0,0-.7-.18,7.67,7.67,0,0,0-1.17-.08,8.35,8.35,0,0,0-1,.07,2.8,2.8,0,0,0-.92.27,1.91,1.91,0,0,0-.7.56,1.49,1.49,0,0,0-.28.93,1.61,1.61,0,0,0,.69,1.5A3.57,3.57,0,0,0,135.13,65.86Z" transform="translate(-60.22 -46.81)"/><path class="cls-1" d="M142.57,56.44c.46-.11,1.06-.24,1.82-.37a17,17,0,0,1,2.63-.19,5.66,5.66,0,0,1,2.21.38,3.45,3.45,0,0,1,1.41,1.05,4,4,0,0,1,.74,1.62A9.64,9.64,0,0,1,151.6,61V67.3h-2V61.45a9.72,9.72,0,0,0-.14-1.76A3,3,0,0,0,149,58.5a1.76,1.76,0,0,0-.86-.65,3.64,3.64,0,0,0-1.33-.21l-.66,0-.66.06-.56.07-.35.07V67.3h-2Z" transform="translate(-60.22 -46.81)"/><path class="cls-2" d="M62.05,74a.87.87,0,0,1-1.47.65.89.89,0,0,1-.25-.65.91.91,0,0,1,.25-.66.9.9,0,0,1,1.22,0A.87.87,0,0,1,62.05,74Zm-.27,12H60.62V76.82h1.16Z" transform="translate(-60.22 -46.81)"/><path class="cls-2" d="M64.86,77.14c.35-.09.81-.2,1.4-.32a10.82,10.82,0,0,1,2.14-.18,4.54,4.54,0,0,1,1.77.3,2.8,2.8,0,0,1,1.12.87,3.62,3.62,0,0,1,.6,1.35,7.88,7.88,0,0,1,.18,1.74v5.17H70.91v-4.8a9.64,9.64,0,0,0-.13-1.66,2.81,2.81,0,0,0-.45-1.11,1.78,1.78,0,0,0-.83-.62,3.84,3.84,0,0,0-1.27-.18,9.83,9.83,0,0,0-1.43.09A3.52,3.52,0,0,0,66,78v8.12H64.86Z" transform="translate(-60.22 -46.81)"/><path class="cls-2" d="M82.4,85.78a9.38,9.38,0,0,1-1.33.34,10.29,10.29,0,0,1-2,.17A4.8,4.8,0,0,1,77.18,86a4.12,4.12,0,0,1-1.43-1,4.41,4.41,0,0,1-.93-1.52,5.84,5.84,0,0,1-.33-2,6.32,6.32,0,0,1,.28-1.94A4.31,4.31,0,0,1,75.58,78a3.73,3.73,0,0,1,1.32-1,4.16,4.16,0,0,1,1.78-.36,4.47,4.47,0,0,1,1.58.26,4.39,4.39,0,0,1,1,.49v-5l1.16-.22ZM81.24,78.5l-.41-.27a5.92,5.92,0,0,0-.56-.27,4.77,4.77,0,0,0-.7-.2,3.36,3.36,0,0,0-.79-.08,3.13,3.13,0,0,0-1.44.3,2.66,2.66,0,0,0-.94.82,3.44,3.44,0,0,0-.52,1.2,6.71,6.71,0,0,0-.16,1.45,3.94,3.94,0,0,0,.92,2.8,3.13,3.13,0,0,0,2.41,1,10.2,10.2,0,0,0,1.39-.08,4.84,4.84,0,0,0,.8-.17Z" transform="translate(-60.22 -46.81)"/><path class="cls-2" d="M84.92,81.44a5.88,5.88,0,0,1,.35-2.12,4.73,4.73,0,0,1,.91-1.52,3.77,3.77,0,0,1,1.29-.9,3.9,3.9,0,0,1,1.5-.3,3.5,3.5,0,0,1,2.71,1.11,5,5,0,0,1,1,3.42,2.81,2.81,0,0,1,0,.29l0,.27H86.16A4,4,0,0,0,87,84.3a3.12,3.12,0,0,0,2.5.91A5.05,5.05,0,0,0,91,85a7.2,7.2,0,0,0,.8-.3l.22,1a4.53,4.53,0,0,1-.94.34,6,6,0,0,1-1.62.2,5.38,5.38,0,0,1-2.08-.36,3.73,3.73,0,0,1-1.41-1,4,4,0,0,1-.81-1.53A7,7,0,0,1,84.92,81.44Zm6.57-.74a3.63,3.63,0,0,0-.68-2.25A2.2,2.2,0,0,0,89,77.64a2.48,2.48,0,0,0-1.11.25,2.81,2.81,0,0,0-.86.67,3.1,3.1,0,0,0-.58,1,4.52,4.52,0,0,0-.24,1.16Z" transform="translate(-60.22 -46.81)"/><path class="cls-2" d="M98.17,82.16c-.26.31-.52.64-.78,1s-.52.68-.76,1a10.51,10.51,0,0,0-.67,1q-.3.51-.51.9H94.24a24.82,24.82,0,0,1,1.59-2.53c.56-.77,1.14-1.53,1.72-2.27l-3.13-4.45h1.36l2.42,3.5,2.42-3.5h1.27l-3.07,4.4.84,1.06.89,1.19c.29.42.58.84.86,1.28s.53.88.76,1.32h-1.25c-.14-.26-.31-.55-.52-.87s-.43-.64-.67-1-.5-.69-.77-1Z" transform="translate(-60.22 -46.81)"/><path class="cls-2" d="M105.38,77.37a4.06,4.06,0,0,1,1-.49,4.47,4.47,0,0,1,1.58-.26,4.24,4.24,0,0,1,1.79.36A3.79,3.79,0,0,1,111,78a4.5,4.5,0,0,1,.82,1.53,6.64,6.64,0,0,1,.27,1.94,5.84,5.84,0,0,1-.33,2,4.41,4.41,0,0,1-.93,1.52,4.12,4.12,0,0,1-1.43,1,4.8,4.8,0,0,1-1.85.34,10.29,10.29,0,0,1-2-.17,9.38,9.38,0,0,1-1.33-.34V72.4l1.17-.22Zm0,7.61a4.46,4.46,0,0,0,.79.17,10.2,10.2,0,0,0,1.39.08,3.17,3.17,0,0,0,2.42-1,4,4,0,0,0,.91-2.8,6.71,6.71,0,0,0-.16-1.45,3.44,3.44,0,0,0-.52-1.2,2.58,2.58,0,0,0-.94-.82,3.13,3.13,0,0,0-1.44-.3,3.36,3.36,0,0,0-.79.08,4.77,4.77,0,0,0-.7.2,5.92,5.92,0,0,0-.56.27,4.53,4.53,0,0,0-.4.27Z" transform="translate(-60.22 -46.81)"/><path class="cls-2" d="M114.09,81.44a5.88,5.88,0,0,1,.35-2.12,4.73,4.73,0,0,1,.91-1.52,3.77,3.77,0,0,1,1.29-.9,3.86,3.86,0,0,1,1.5-.3,3.5,3.5,0,0,1,2.71,1.11,5,5,0,0,1,1,3.42c0,.1,0,.19,0,.29l0,.27h-6.49a4,4,0,0,0,.84,2.61,3.12,3.12,0,0,0,2.5.91,5.1,5.1,0,0,0,1.51-.18,7.2,7.2,0,0,0,.8-.3l.22,1a4.53,4.53,0,0,1-.94.34,6,6,0,0,1-1.62.2,5.35,5.35,0,0,1-2.08-.36,3.73,3.73,0,0,1-1.41-1,4,4,0,0,1-.81-1.53A7,7,0,0,1,114.09,81.44Zm6.57-.74a3.69,3.69,0,0,0-.68-2.25,2.2,2.2,0,0,0-1.83-.81,2.56,2.56,0,0,0-1.12.25,2.9,2.9,0,0,0-.85.67,3.1,3.1,0,0,0-.58,1,4.52,4.52,0,0,0-.24,1.16Z" transform="translate(-60.22 -46.81)"/><path class="cls-2" d="M126.8,86.23a3.8,3.8,0,0,1-1-.15,2,2,0,0,1-.74-.41,1.86,1.86,0,0,1-.44-.72,3.16,3.16,0,0,1-.16-1.1V72.4l1.17-.22V83.82a2.25,2.25,0,0,0,.08.69.88.88,0,0,0,.24.41,1.05,1.05,0,0,0,.42.22,5.51,5.51,0,0,0,.62.13Z" transform="translate(-60.22 -46.81)"/><path class="cls-2" d="M128.46,81.44a5.88,5.88,0,0,1,.35-2.12,4.73,4.73,0,0,1,.91-1.52,3.77,3.77,0,0,1,1.29-.9,3.86,3.86,0,0,1,1.5-.3,3.5,3.5,0,0,1,2.71,1.11,5,5,0,0,1,1,3.42c0,.1,0,.19,0,.29l0,.27H129.7a4,4,0,0,0,.84,2.61,3.12,3.12,0,0,0,2.5.91,5.1,5.1,0,0,0,1.51-.18,8.09,8.09,0,0,0,.8-.3l.22,1a4.77,4.77,0,0,1-.94.34,6,6,0,0,1-1.62.2,5.35,5.35,0,0,1-2.08-.36,3.73,3.73,0,0,1-1.41-1,4,4,0,0,1-.81-1.53A7,7,0,0,1,128.46,81.44ZM135,80.7a3.69,3.69,0,0,0-.68-2.25,2.2,2.2,0,0,0-1.83-.81,2.56,2.56,0,0,0-1.12.25,2.9,2.9,0,0,0-.85.67,3.1,3.1,0,0,0-.58,1,4.52,4.52,0,0,0-.24,1.16Z" transform="translate(-60.22 -46.81)"/><path class="cls-2" d="M144.85,85a1.64,1.64,0,0,1-.32.2,3.89,3.89,0,0,1-.53.24,3.3,3.3,0,0,1-.71.21,5,5,0,0,1-.91.08,4.79,4.79,0,0,1-1.55-.25,3.55,3.55,0,0,1-1.32-.79,3.89,3.89,0,0,1-.9-1.38,5.54,5.54,0,0,1-.34-2.07,5.4,5.4,0,0,1,.3-1.83,4.16,4.16,0,0,1,.87-1.45,3.79,3.79,0,0,1,1.38-1,4.63,4.63,0,0,1,1.83-.35,10.34,10.34,0,0,1,2.07.17,12.84,12.84,0,0,1,1.28.33v8.45a3.63,3.63,0,0,1-1.08,3,5,5,0,0,1-3.23.89,9.3,9.3,0,0,1-2.87-.45l.23-1.06a5.15,5.15,0,0,0,1.18.34,7.46,7.46,0,0,0,1.49.15,3.67,3.67,0,0,0,2.39-.64,2.71,2.71,0,0,0,.74-2.17Zm0-7a6,6,0,0,0-.78-.17,8.2,8.2,0,0,0-1.38-.08,3.1,3.1,0,0,0-1.33.26,2.78,2.78,0,0,0-1,.73,3.26,3.26,0,0,0-.62,1.13,4.35,4.35,0,0,0-.22,1.44,4.47,4.47,0,0,0,.25,1.56,3.14,3.14,0,0,0,.66,1.07,2.45,2.45,0,0,0,.92.6,3.18,3.18,0,0,0,1,.18,4.11,4.11,0,0,0,1.44-.23,3,3,0,0,0,1-.53Z" transform="translate(-60.22 -46.81)"/><path class="cls-2" d="M155.11,85a1.48,1.48,0,0,1-.33.2,3.71,3.71,0,0,1-.52.24,3.4,3.4,0,0,1-.72.21,4.94,4.94,0,0,1-.9.08,4.81,4.81,0,0,1-1.56-.25,3.44,3.44,0,0,1-1.31-.79,3.91,3.91,0,0,1-.91-1.38,5.54,5.54,0,0,1-.34-2.07,5.17,5.17,0,0,1,.31-1.83,4.29,4.29,0,0,1,.86-1.45,3.88,3.88,0,0,1,1.38-1,4.68,4.68,0,0,1,1.84-.35,10.3,10.3,0,0,1,2.06.17,12.15,12.15,0,0,1,1.28.33v8.45a3.66,3.66,0,0,1-1.07,3,5,5,0,0,1-3.24.89,8.81,8.81,0,0,1-1.62-.14,8.6,8.6,0,0,1-1.24-.31l.23-1.06a5.2,5.2,0,0,0,1.17.34,7.56,7.56,0,0,0,1.5.15,3.64,3.64,0,0,0,2.38-.64,2.71,2.71,0,0,0,.75-2.17Zm0-7a6.15,6.15,0,0,0-.79-.17,8.2,8.2,0,0,0-1.38-.08,3.13,3.13,0,0,0-1.33.26,2.66,2.66,0,0,0-1,.73,3.12,3.12,0,0,0-.63,1.13,4.64,4.64,0,0,0-.21,1.44,4.25,4.25,0,0,0,.25,1.56,3,3,0,0,0,.65,1.07,2.61,2.61,0,0,0,.92.6,3.23,3.23,0,0,0,1.06.18,4.18,4.18,0,0,0,1.44-.23,3.27,3.27,0,0,0,1-.53Z" transform="translate(-60.22 -46.81)"/><path class="cls-2" d="M158.78,81.44a5.89,5.89,0,0,1,.34-2.12A4.75,4.75,0,0,1,160,77.8a3.59,3.59,0,0,1,1.29-.9,3.85,3.85,0,0,1,1.49-.3,3.48,3.48,0,0,1,2.71,1.11,4.92,4.92,0,0,1,1,3.42,2.81,2.81,0,0,1,0,.29,2.45,2.45,0,0,1,0,.27H160a4.15,4.15,0,0,0,.84,2.61,3.14,3.14,0,0,0,2.51.91,5,5,0,0,0,1.5-.18,7.55,7.55,0,0,0,.81-.3l.21,1a4.53,4.53,0,0,1-.94.34,6,6,0,0,1-1.62.2,5.33,5.33,0,0,1-2.07-.36,3.69,3.69,0,0,1-1.42-1,3.87,3.87,0,0,1-.8-1.53A7,7,0,0,1,158.78,81.44Zm6.56-.74a3.63,3.63,0,0,0-.68-2.25,2.18,2.18,0,0,0-1.82-.81,2.53,2.53,0,0,0-1.12.25,2.81,2.81,0,0,0-.86.67,3.08,3.08,0,0,0-.57,1,3.81,3.81,0,0,0-.24,1.16Z" transform="translate(-60.22 -46.81)"/><path class="cls-2" d="M169.14,77.14c.34-.09.81-.2,1.39-.32a10.93,10.93,0,0,1,2.15-.18,4.52,4.52,0,0,1,1.76.3,2.84,2.84,0,0,1,1.13.87,3.62,3.62,0,0,1,.6,1.35,7.88,7.88,0,0,1,.18,1.74v5.17h-1.16v-4.8a8.64,8.64,0,0,0-.14-1.66,2.81,2.81,0,0,0-.45-1.11,1.7,1.7,0,0,0-.82-.62,3.91,3.91,0,0,0-1.28-.18,9.68,9.68,0,0,0-1.42.09,3.52,3.52,0,0,0-.78.16v8.12h-1.16Z" transform="translate(-60.22 -46.81)"/><path class="cls-3" d="M182.44,62.68h-1.32v.88a1.54,1.54,0,0,0,1.48,1.6h1.22v-1A1.45,1.45,0,0,0,182.44,62.68Z" transform="translate(-60.22 -46.81)"/><path class="cls-2" d="M178.56,53.36a10,10,0,0,1,.69,3.64V70.5a14.62,14.62,0,0,0,6.56,1.57h1.34V62.74C187.15,57.57,183.31,53.38,178.56,53.36Zm5.26,11.8H182.6a1.54,1.54,0,0,1-1.48-1.6v-.88h1.32a1.45,1.45,0,0,1,1.38,1.51Z" transform="translate(-60.22 -46.81)"/><path class="cls-4" d="M170,54.81V53.35h8.6a10.18,10.18,0,0,0-9.5-6.55H155.28v7.35A18.74,18.74,0,0,0,174,72.91h5.23V70.5A17.37,17.37,0,0,1,170,54.81Z" transform="translate(-60.22 -46.81)"/><path class="cls-5" d="M178.56,53.36H170v1.46a17.37,17.37,0,0,0,9.29,15.69V57A10,10,0,0,0,178.56,53.36Z" transform="translate(-60.22 -46.81)"/><path class="cls-6" d="M178.56,53.36H170v1.46a17.37,17.37,0,0,0,9.29,15.69V57A10,10,0,0,0,178.56,53.36Z" transform="translate(-60.22 -46.81)"/><path class="cls-2" d="M183.2,86.33V75.13a10.44,10.44,0,0,0,3.87-.81l0,8.17A4,4,0,0,1,183.2,86.33Z" transform="translate(-60.22 -46.81)"/></svg>