<svg xmlns="http://www.w3.org/2000/svg" xml:space="preserve" viewBox="0 0 129.556 129.415"><path d="M-229.64 666.328c-1.808-.131-3.059.107-3.338-.074-.82-.53-3.563-6.293-5.536-10.783-5.663-12.886-9.685-29.275-10.133-42.53-.197-5.81.102-7.62.875-12.198 1.556-9.2 3.416-14.156 8.377-20.05 4.44-5.275 13.121-10.828 19.157-12.385 4.4-1.135 11.49-1.831 19.07-1.583 10.466.343 15.533 2.045 23.985 6.03 8.494 4.006 8.548 4.695 17.194 12.684l9.18 8.482 1.734-3.36c5.302-10.27 13.541-11.357 20.42-15.382 9.982-5.84 20.336-8.66 31.656-8.66 20.407 0 35.175 9.033 40.95 24.99 2.68 7.409 3.69 17.04 2.871 25.625-1.523 15.954-6.502 33.73-13.143 45.387l-2.092 3.671-9.092.095c-10.76.113-14.788.56-14.782-.394.003-.65 2.126-5.627 6.614-15.486 6.461-14.19 9.108-24.186 9.459-38.195.31-12.398-.547-15.46-5.721-20.653-4.843-4.86-9.653-6.745-17.203-6.313-6.932.398-14.432 3.39-20.211 8.04-8.084 6.503-18.161 19.276-24.598 30.531-6.58 11.507-5.268 12.238-6.496 11.46-.456-.289-3.06-4.822-4.931-8.214-8.501-15.416-17.383-26.71-26.573-33.49-3.972-2.931-10.512-6.303-14.419-7.353-3.744-1.006-11.458-.937-14.807.07-6.903 2.078-11.286 6.769-13.359 14.27-.926 3.349-1.326 12.282-.73 18.047 1.252 12.113 4.665 22.596 12.98 39.848 2.772 5.75 4.31 7.499 3.743 7.736-.791.33-9.854.579-14.571.236z" style="fill:#f5f2f5;fill-opacity:1;stroke:none;stroke-width:1.64472;stroke-opacity:.216306" transform="matrix(.44542 0 0 .44542 131.986 -209.934)"/><path d="M4.496 198.763c-3.307-.442-8.333-1.846-9.731-2.718a5.126 5.126 0 0 0-1.297-.53c-.39-.091-.875-.33-1.077-.533-.203-.202-.96-.668-1.681-1.033-4.563-2.313-11.494-9.25-13.79-13.803-.37-.732-.746-1.391-.836-1.464-.09-.073-.297-.43-.458-.794-.162-.364-.555-1.222-.873-1.908-1.885-4.06-3.165-10.698-3.05-15.819.117-5.257 1.303-10.998 3.05-14.76.318-.686.71-1.545.873-1.909.161-.363.368-.72.458-.793.09-.073.466-.732.836-1.464 2.261-4.485 8.577-10.848 13.553-13.654a139.74 139.74 0 0 0 2.249-1.288c2.242-1.372 8.365-3.26 12.038-3.715 2.476-.305 8.342-.4 9.525-.154.291.06 1.363.206 2.382.323 2.015.23 1.939.218 2.513.439 1.022.394 3.04.992 3.347.992.189 0 .971.288 1.74.64l2.586 1.185c.655.299 1.548.755 1.985 1.013.436.258 1.389.817 2.116 1.242 1.793 1.047 3.185 2.21 6.2 5.18 2.792 2.75 4.233 4.454 5.48 6.483 3.173 5.158 5.073 10.305 5.666 15.345.559 4.756.475 7.603-.402 13.626-.181 1.246-1.565 5.543-2.282 7.088-.318.686-.711 1.544-.873 1.908-.162.364-.368.721-.459.794-.09.073-.466.732-.835 1.464-2.31 4.58-9.113 11.367-13.943 13.91-.804.423-1.641.88-1.86 1.016-1.118.695-4.142 1.88-6.614 2.594-5.21 1.504-10.749 1.872-16.536 1.097zm-9.658-24.955c0-.062-.578-1.282-1.285-2.712-2.184-4.417-3.208-8.245-3.209-11.993-.001-4.43 2.012-6.721 5.888-6.7 4.478.023 9.218 4.218 13.027 11.528.436.836.87 1.52.965 1.521.094 0 .557-.743 1.028-1.653 2.23-4.306 6.188-8.96 8.72-10.252 3.335-1.7 6.325-1.574 8.33.353 1.52 1.462 1.827 2.647 1.654 6.393-.158 3.432-1.08 6.635-3.108 10.8-.863 1.771-1.163 2.638-.944 2.722.177.068 1.622.09 3.21.048l2.89-.076.642-1.166c2.064-3.745 3.658-10.574 3.372-14.444-.459-6.202-3.636-9.718-9.488-10.501-5.675-.76-11.402 1.605-15.297 6.317-.504.61-.976 1.109-1.049 1.109-.073 0-.549-.505-1.058-1.122-2.233-2.704-5.456-4.885-8.731-5.907-1.997-.624-6.742-.636-8.738-.022-1.999.613-4.149 2.18-5.346 3.893-1.106 1.584-1.398 2.42-1.828 5.242-.555 3.641.82 10.373 3.013 14.75.438.872.93 1.674 1.093 1.781.307.202 6.25.288 6.25.09z" style="display:inline;fill:#6262f5" transform="matrix(1.68347 0 0 1.68347 47.65 -205.861)"/></svg>