<?xml version="1.0" encoding="UTF-8" standalone="no"?>
<!-- Created with Inkscape (http://www.inkscape.org/) -->

<svg
   width="129.55565mm"
   height="129.41467mm"
   viewBox="0 0 129.55565 129.41467"
   version="1.1"
   id="svg1"
   xml:space="preserve"
   inkscape:export-filename="memed2.svg"
   inkscape:export-xdpi="96"
   inkscape:export-ydpi="96"
   xmlns:inkscape="http://www.inkscape.org/namespaces/inkscape"
   xmlns:sodipodi="http://sodipodi.sourceforge.net/DTD/sodipodi-0.dtd"
   xmlns="http://www.w3.org/2000/svg"
   xmlns:svg="http://www.w3.org/2000/svg"><sodipodi:namedview
     id="namedview1"
     pagecolor="#ffffff"
     bordercolor="#000000"
     borderopacity="0.25"
     inkscape:showpageshadow="2"
     inkscape:pageopacity="0.0"
     inkscape:pagecheckerboard="0"
     inkscape:deskcolor="#ec9000"
     inkscape:document-units="mm"><inkscape:page
       x="0"
       y="0"
       width="129.55565"
       height="129.41467"
       id="page2"
       margin="0"
       bleed="0" /></sodipodi:namedview><defs
     id="defs1" /><g
     inkscape:label="Camada 1"
     inkscape:groupmode="layer"
     id="layer1"
     transform="matrix(1.6834732,0,0,1.6834732,47.649925,-205.86142)"><path
       style="fill:#f5f2f5;fill-opacity:1;stroke:none;stroke-width:1.64472;stroke-opacity:0.216306"
       d="m -229.63928,666.3282 c -1.80919,-0.13135 -3.05972,0.10695 -3.33899,-0.0739 -0.8201,-0.53107 -3.56255,-6.29326 -5.5356,-10.78298 -5.66304,-12.88636 -9.6848,-29.27567 -10.13326,-42.53094 -0.19655,-5.80951 0.10184,-7.61979 0.87562,-12.19698 1.5552,-9.19979 3.41577,-14.15687 8.37613,-20.05013 4.44031,-5.2754 13.12164,-10.82873 19.15739,-12.38511 4.40045,-1.1347 11.49057,-1.83141 19.07025,-1.58315 10.46549,0.34277 15.53289,2.0447 23.98486,6.0306 8.4934,4.00545 8.5476,4.69447 17.19355,12.68346 l 9.17947,8.48198 1.73483,-3.36021 c 5.30229,-10.27007 13.54153,-11.35636 20.42059,-15.3818 9.98116,-5.84072 20.33566,-8.65915 31.655487,-8.65915 20.40721,0 35.175223,9.03215 40.949411,24.9899 2.680505,7.40793 3.691311,17.03863 2.871769,25.62379 -1.523031,15.95462 -6.502251,33.73112 -13.14355,45.38711 l -2.092079,3.67176 -9.091661,0.0949 c -10.759893,0.11232 -14.787739,0.55882 -14.782316,-0.39427 0.0037,-0.6492 2.126398,-5.62719 6.614865,-15.48568 6.460624,-14.19017 9.107566,-24.18606 9.458064,-38.19534 0.310181,-12.39792 -0.54619,-15.46077 -5.720525,-20.65311 -4.842652,-4.8595 -9.652569,-6.74545 -17.203292,-6.31247 -6.931853,0.39749 -14.431373,3.39042 -20.210693,8.03964 -8.08359,6.50292 -18.16141,19.27599 -24.59806,30.53119 -6.58062,11.50695 -5.26814,12.2378 -6.49554,11.46026 -0.4565,-0.28918 -3.06129,-4.8228 -4.93182,-8.21504 -8.50061,-15.416 -17.38274,-26.70868 -26.57306,-33.49026 -3.97121,-2.93037 -10.51147,-6.3019 -14.41859,-7.35191 -3.7439,-1.00615 -11.45838,-0.93722 -14.80652,0.0702 -6.9037,2.07788 -11.28665,6.76825 -13.35945,14.26878 -0.92563,3.34947 -1.3257,12.28307 -0.72975,18.04782 1.25223,12.1133 4.66457,22.59592 12.97979,39.84761 2.77157,5.7502 4.31011,7.49886 3.74297,7.73574 -0.79147,0.33057 -9.85373,0.57929 -14.57149,0.23675 z"
       id="path8"
       sodipodi:nodetypes="cssssssssscsssssscsssssssssssscsssscc"
       transform="matrix(0.26458333,0,0,0.26458333,50.096465,-2.4191315)" /><path
       style="display:inline;fill:#6262f5"
       d="m 4.4956948,198.76332 c -3.30706,-0.44247 -8.3326,-1.84639 -9.73079,-2.71836 -0.32338,-0.20168 -0.90706,-0.44056 -1.29707,-0.53085 -0.39,-0.0903 -0.87471,-0.32978 -1.07713,-0.5322 -0.20241,-0.20241 -0.9589,-0.66744 -1.68108,-1.0334 -4.5630398,-2.31227 -11.4938598,-9.24939 -13.7898298,-13.80238 -0.3694,-0.73252 -0.7455,-1.39139 -0.83579,-1.46415 -0.0903,-0.0728 -0.29661,-0.42994 -0.4585,-0.79375 -0.16189,-0.3638 -0.55469,-1.22236 -0.87289,-1.90791 -1.88451,-4.06016 -3.16441,-10.69837 -3.05006,-15.81917 0.11739,-5.25717 1.3037,-10.99832 3.05006,-14.76084 0.3182,-0.68555 0.711,-1.54411 0.87289,-1.90791 0.16189,-0.3638 0.36821,-0.72099 0.4585,-0.79375 0.0903,-0.0728 0.46639,-0.73162 0.83579,-1.46414 2.26147,-4.48457 8.57756,-10.84773 13.5529798,-13.65397 1.01864,-0.57454 2.03068,-1.15388 2.24896,-1.28742 2.24204,-1.37166 8.36495,-3.26099 12.03854,-3.71469 2.47599,-0.3058 8.3413402,-0.40086 9.5250002,-0.15438 0.29104,0.0606 1.3626,0.20579 2.38125,0.32263 2.01526,0.23115 1.93948,0.21791 2.51354,0.43921 1.02205,0.39401 3.03969,0.99193 3.34719,0.99193 0.18838,0 0.97085,0.2881 1.73881,0.64022 0.76796,0.35212 1.93207,0.88513 2.58692,1.18446 0.65484,0.29934 1.54791,0.75538 1.98458,1.01343 0.43668,0.25805 1.38918,0.81695 2.11667,1.242 1.79243,1.04728 3.18453,2.21035 6.20039,5.1803 2.79182,2.74933 4.23282,4.45383 5.48018,6.48229 3.17204,5.1584 5.07219,10.30587 5.66481,15.34584 0.55918,4.7556 0.47529,7.60255 -0.40153,13.62604 -0.18126,1.24527 -1.56492,5.54247 -2.28224,7.08792 -0.3182,0.68555 -0.71099,1.54411 -0.87288,1.90791 -0.16189,0.36381 -0.36822,0.72099 -0.45851,0.79375 -0.0903,0.0728 -0.46639,0.73163 -0.83578,1.46415 -2.30965,4.5801 -9.11275,11.36702 -13.94307,13.9099 -0.8041,0.42331 -1.64059,0.88054 -1.85887,1.01607 -1.11841,0.6944 -4.14314,1.88062 -6.61459,2.59408 -5.20986,1.50399 -10.74885,1.87148 -16.5364502,1.09714 z m -9.6573,-24.95559 c 0,-0.0615 -0.57847,-1.28185 -1.28549,-2.71198 -2.18367,-4.41702 -3.20781,-8.24456 -3.20895,-11.99293 -0.001,-4.42964 2.01227,-6.72114 5.88783,-6.70038 4.47803005,0.024 9.21844,4.21886 13.02766,11.52839 0.43587,0.8364 0.8697302,1.52101 0.9641202,1.52136 0.0944,3.4e-4 0.55697,-0.74351 1.02794,-1.65302 2.22999,-4.30635 6.18881,-8.96011 8.72108,-10.25198 3.33434,-1.70105 6.32476,-1.57437 8.3288,0.35282 1.52052,1.46222 1.82726,2.64731 1.65484,6.39343 -0.15794,3.4314 -1.07983,6.63419 -3.10868,10.8001 -0.86224,1.77047 -1.16282,2.63732 -0.94364,2.72142 0.1769,0.0679 1.62162,0.0894 3.21049,0.0478 l 2.88886,-0.0756 0.64276,-1.1663 c 2.06367,-3.7446 3.65793,-10.57405 3.37181,-14.44411 -0.4585,-6.20174 -3.63562,-9.71814 -9.48799,-10.50118 -5.6749,-0.75929 -11.4014,1.60585 -15.29697,6.31791 -0.50399,0.60962 -0.97587,1.1084 -1.04863,1.1084 -0.0728,0 -0.5490102,-0.5047 -1.0583402,-1.12155 -2.23259,-2.70394 -5.45587,-4.88484 -8.73124995,-5.90763 -1.99626005,-0.62336 -6.74195005,-0.63537 -8.73812005,-0.0221 -1.9981998,0.61389 -4.1480898,2.17983 -5.3452198,3.89337 -1.1067,1.58409 -1.39833,2.42025 -1.82847,5.24242 -0.55493,3.64096 0.82065,10.37308 3.01361,14.7487 0.43759,0.87312 0.92909,1.67497 1.09223,1.78189 0.30781,0.20173 6.2497198,0.288 6.2497198,0.0907 z"
       id="path1"
       sodipodi:nodetypes="ssssssssssssscssssssssssssssssssssssscscssscsssssccsssssssssssscc" /></g></svg>
