<?xml version="1.0" encoding="UTF-8"?>
<svg xmlns:xodm="http://www.corel.com/coreldraw/odm/2003" xmlns="http://www.w3.org/2000/svg" xmlns:xlink="http://www.w3.org/1999/xlink" version="1.1" id="Layer_1" x="0px" y="0px" viewBox="0 450 2500 1650" style="enable-background:new 0 0 2500 2500;" xml:space="preserve">
    <rect y="250" width="2500" height="1650" style="fill:none;"></rect>
    <g id="_2500406570000">
        <path d="M2459.7,1566.6l-540.6-937.7c-118.5-195.5-407.5-197.5-521.9,8.3l-567.6,975.2c-106,178.8,25,403.3,237.1,403.3H2204C2418.1,2015.7,2578.2,1784.9,2459.7,1566.6z" style="fill:#3156AA;"></path>
        <path d="M1680,1639.4l-33.3-58.2c-31.2-54.1-99.8-170.5-99.8-170.5l-457.4-794.3C971,439.7,690.3,425.1,571.8,647.6L39.5,1568.7c-110.2,193.4,20.8,444.9,259.9,447h1131.1h482.4h286.9C1906.7,2017.8,1813.1,1866,1680,1639.4L1680,1639.4z" style="fill:#1972E2;"></path>
        
        <linearGradient id="SVGID_1_" gradientUnits="userSpaceOnUse" x1="703.637" y1="1211.6566" x2="1935.647" y2="727.2267" gradientTransform="matrix(1 0 0 -1 0 2497.8899)">
            <stop offset="0" style="stop-color:#264CA2;stop-opacity:0;"></stop>
            <stop offset="1" style="stop-color:#234588;"></stop>
        </linearGradient>
        
        <path d="M1680.1,1639.4l-33.3-58.2c-31.2-54.1-99.8-170.5-99.8-170.5l-295.3-519.8l-424.2,723.6c-106,178.8,25,403.4,237,403.4h363.9h482.4h289C1904.6,2015.7,1813.1,1866,1680.1,1639.4L1680.1,1639.4z" style="fill:url(#SVGID_1_);"></path>
    </g>
</svg>