<svg xmlns="http://www.w3.org/2000/svg" xml:space="preserve" style="enable-background:new 0 0 2500 2500" viewBox="0 450 2500 1650"><path d="M0 250h2500v1650H0z" style="fill:none"/><path d="m2459.7 1566.6-540.6-937.7c-118.5-195.5-407.5-197.5-521.9 8.3l-567.6 975.2c-106 178.8 25 403.3 237.1 403.3H2204c214.1 0 374.2-230.8 255.7-449.1z" style="fill:#3156aa"/><path d="m1680 1639.4-33.3-58.2c-31.2-54.1-99.8-170.5-99.8-170.5l-457.4-794.3C971 439.7 690.3 425.1 571.8 647.6L39.5 1568.7c-110.2 193.4 20.8 444.9 259.9 447h1900.4c-293.1 2.1-386.7-149.7-519.8-376.3z" style="fill:#1972e2"/><linearGradient id="a" x1="703.637" x2="1935.647" y1="1211.657" y2="727.227" gradientTransform="matrix(1 0 0 -1 0 2497.89)" gradientUnits="userSpaceOnUse"><stop offset="0" style="stop-color:#264ca2;stop-opacity:0"/><stop offset="1" style="stop-color:#234588"/></linearGradient><path d="m1680.1 1639.4-33.3-58.2c-31.2-54.1-99.8-170.5-99.8-170.5l-295.3-519.8-424.2 723.6c-106 178.8 25 403.4 237 403.4h1135.3c-295.2-2.2-386.7-151.9-519.7-378.5z" style="fill:url(#a)"/></svg>