<svg xmlns="http://www.w3.org/2000/svg" viewBox="0 0 241 241"><defs><style>.a{fill:#57a152;}.b{fill:#444444;}</style></defs><title>mfc</title><path class="a" d="M48.92,96.41c24,0,47.82,0,71.63,0,12.06,0,21.9,8.11,23.72,19.42,2,12.35-4.85,23.7-16.62,27.29a24,24,0,0,1-6.87.82c-23.82.06-47.65,0-71.2,0-1.79,1.87-1.11,3.8-1.11,5.54-0.05,22.17,0,44.33,0,66.5,0,13.88-10.11,24-23.84,24S0.43,229.77.42,216.18c0-43.33-1.08-86.69.28-130C2.1,41.21,31,.77,86.88.08,98-.06,109.21,0,120.37.06a23.74,23.74,0,0,1,24.09,24c0,13.73-10.17,23.84-23.94,24-12.15.16-24.34-.79-36.46,0.53C63,50.94,52.22,61.54,49.31,82.54,48.72,86.79,47.86,91,48.92,96.41Z"/><path class="b" d="M142.33,48c11.61-13.09,13.88-31.74,0-47.76,17.53-.83,35,1.82,50.93,9.53,30.33,14.72,45.73,39.47,46.9,72.72,0.83,23.64.21,47.32,0.18,71-0.06,43.66-26.64,75.79-69.55,84.47-11.07,2.24-22.19,2-33.34,2q-24,.06-48,0c-14.15,0-24.84-10.31-24.94-23.82s10.63-24,24.72-24.1c20.33-.12,40.66-0.07,61,0a55,55,0,0,0,20-3.87c13.74-5.27,21.53-15.46,21.88-29.92,0.62-25.31.68-50.66,0-76C191.62,64,179.49,52.48,159.46,49,154,48,148.58,48.13,142.33,48Z"/></svg>
