<svg xmlns="http://www.w3.org/2000/svg" version="1.0" viewBox="0 0 602.362 139.535"><path d="M106.369 119.885V62.02l-24.824 57.866H67.772L43.36 62.02v57.866H17.717V19.65h34.329l23.581 56.595 24.68-56.595h31.7v100.235H106.37zm45.375 0V19.65h21.927c1.921 0 3.842 1.921 3.842 4.012v96.223h-25.769zM248.66 62.16h32.594c2.571 0 4.025 2.105 4.025 4.577v51.778c-9.168 2.049-23.495 3.306-34.145 3.306-37.368 0-57.076-17.815-57.076-52.187.001-30.672 19.708-51.92 52.554-51.92 14.468 0 27.155 3.857 35.321 9.367l-10.1 17.25c-7.068-3.165-16.573-5.369-23.3-5.369-18.886 0-27.718 12.53-27.718 30.672 0 19.368 10.228 31.334 29.09 31.334 3.446 0 7.743-.127 11.175-.664v-17.66h-12.42V62.16zm93.81-23.198h-12.615v25.133h12.615c7.53 0 13.45-4.012 13.45-13.548 0-9.664-5.921-11.585-13.45-11.585zm18.987 80.923-11.895-27.59c-2.43-5.623-4.127-8.407-9.284-8.407h-10.423v35.997h-25.19V23.662c0-2.09 2.288-4.012 3.927-4.012h35.56c19.324 0 35.894 4.012 35.894 28.961 0 11.175-6.184 22.62-17.786 24.936 5.78 1.964 11.602 9.366 14.752 17.405l11.458 28.933h-27.013zm82.704-80.923c-13.52 0-23.141 9.65-23.141 30.672.001 21.318 9.62 30.94 23.14 30.94 11.599 0 21.092-9.622 21.092-30.94.001-21.023-9.493-30.672-21.091-30.672zm0 82.859c-32.818 0-50.183-23.183-50.183-52.187 0-28.75 17.364-51.92 50.182-51.92 30.742 0 48.134 23.17 48.134 51.92.001 29.003-17.393 52.187-48.133 52.187zm97.48 0c-16.952 0-32.692-6.074-39.712-10.906l11.428-20.26c6.373 3.858 18.775 9.79 30.204 9.79 6.47 0 14.65-1.242 14.65-8.433 0-6.753-9.139-8.816-21.121-12.25-14.466-4.139-31.306-9.903-31.306-29.357.001-20.965 18.633-32.69 42.88-32.69 16.004 0 28.409 5.664 34.738 11.725l-13.917 15.837c-6.88-4.111-13.914-7.304-21.798-7.304-9.493 0-14.861 3.603-14.861 8.844 0 5.199 6.88 7.855 15.552 10.468 15.332 4.734 36.268 9.565 36.268 29.641 0 20.682-16.532 34.895-43.005 34.895z" style="fill:#f60;fill-opacity:1;fill-rule:evenodd"/></svg>