<svg xmlns="http://www.w3.org/2000/svg" width="160" height="30" xmlns:v="https://vecta.io/nano"><g fill-rule="nonzero"><g fill="#68af85"><use href="#B"/><use href="#C"/><use href="#D"/><ellipse transform="matrix(.999999 -.001014 .001014 .999999 -.005289 .041473)" cx="40.898" cy="5.237" rx="2.508" ry="2.5"/></g><g fill="#8a8f93"><use href="#E"/><use href="#F"/><use href="#G"/><use href="#H"/><use href="#I"/></g><use href="#J" fill="#68af85"/><use href="#K" fill="#68af85"/><use href="#L" fill="#8a8f93"/><g fill="#68af85"><use href="#B"/><use href="#C"/><use href="#D"/><ellipse transform="matrix(.999999 -.001014 .001014 .999999 -.005289 .041473)" cx="40.898" cy="5.237" rx="2.508" ry="2.5"/></g><g fill="#8a8f93"><use href="#E"/><use href="#F"/><use href="#G"/><use href="#H"/><use href="#I"/></g><use href="#J" fill="#68af85"/><use href="#K" fill="#68af85"/><use href="#L" fill="#8a8f93"/></g><defs ><path id="B" d="M26.535 4.132c-3.512-.289-6.389 1.158-8.528 4.316-2.139-3.158-5.017-4.605-8.528-4.316-2.719.237-4.964 1.263-6.627 3.053C1.056 9.079.158 11.632.158 14.737v14.5h3.96V14.368c0-1.842.528-3.421 1.531-4.684s2.323-1.895 4.04-1.895 3.221.579 4.488 1.684c1.241 1.105 1.875 2.5 1.875 4.158v15.605h3.987V13.632c0-1.658.634-3.053 1.875-4.158s2.746-1.684 4.488-1.684c1.716 0 3.036.632 4.092 1.921 1.03 1.289 1.584 2.868 1.584 4.658v14.868h3.96v-14.5c0-3.105-.924-5.658-2.746-7.553-1.795-1.789-4.04-2.816-6.759-3.053z"/><path id="C" d="M56.818 4.395c-3.195 0-5.861 1.079-7.974 3.237-2.112 2.132-3.168 4.868-3.168 8.105v13.474h3.828V15.395c0-1.974.739-3.684 2.191-5.105s3.195-2.158 5.149-2.158c1.927 0 3.644.711 5.096 2.158 1.452 1.421 2.191 3.158 2.191 5.105v13.816h3.828V15.737c0-3.237-1.056-5.947-3.168-8.105-2.139-2.132-4.805-3.237-7.974-3.237z"/><path id="D" d="M80.317 11.237V7.632H74.64v-7.5h-3.828v21.763c0 5.211 3.116 7.868 9.215 7.868h.29V26.5h-.29c-3.644 0-5.386-1.684-5.386-5.158V11.263l5.677-.026z"/><path id="E" d="M101.359 28.737c0 .684-.343 1.026-1.03 1.026-.66 0-1.003-.342-1.003-1.026l.026-8.105c0-.842-.29-1.553-.898-2.158s-1.32-.895-2.165-.895-1.558.289-2.165.895-.898 1.316-.898 2.158l-.026 8.105c0 .684-.343 1.026-1.03 1.026-.66 0-1.003-.342-1.003-1.026l.026-8.105c0-.842-.29-1.553-.898-2.158s-1.32-.895-2.139-.895c-.845 0-1.558.289-2.165.895s-.898 1.316-.898 2.158l-.026 8.105c0 .684-.343 1.026-1.03 1.026s-1.003-.342-1.003-1.026l.026-12.158c0-.658.343-1 1.03-1s1.03.342 1.03 1.026c.898-.684 1.901-1 3.063-1 1.69 0 3.036.684 4.04 2.053 1.03-1.342 2.376-2.026 4.066-2.026 1.399 0 2.587.5 3.591 1.5s1.479 2.184 1.479 3.579v8.026z"/><path id="F" d="M117.359 22.685c0 1.974-.713 3.632-2.112 5.026s-3.063 2.079-5.043 2.079c-1.954 0-3.644-.711-5.017-2.079a6.84 6.84 0 0 1-2.086-5.026c0-1.947.713-3.632 2.112-5 1.399-1.395 3.063-2.079 5.043-2.079 1.954 0 3.644.711 5.017 2.079a6.74 6.74 0 0 1 2.086 5zm-2.033 0c0-1.395-.502-2.579-1.479-3.579-1.003-1-2.191-1.5-3.591-1.5a4.93 4.93 0 0 0-3.591 1.474 4.86 4.86 0 0 0-1.505 3.579c0 1.395.502 2.605 1.479 3.579 1.003 1 2.191 1.5 3.591 1.5a4.93 4.93 0 0 0 3.591-1.474 4.86 4.86 0 0 0 1.505-3.579z"/><path id="G" d="M133.412 22.737c0 1.974-.713 3.632-2.086 5.026-1.399 1.395-3.063 2.079-5.043 2.079-1.954 0-3.617-.711-5.017-2.079-1.373-1.395-2.086-3.053-2.059-5.026l.026-12.079c0-.684.343-1.026 1.03-1.026.66 0 1.003.342 1.003 1.026l-.026 7.105c1.399-1.421 3.089-2.132 5.096-2.132 1.98 0 3.644.711 5.043 2.079 1.347 1.395 2.033 3.053 2.033 5.026zm-2.033-.026c0-1.395-.502-2.579-1.479-3.579-1.003-1-2.191-1.5-3.591-1.5s-2.587.5-3.591 1.474a4.86 4.86 0 0 0-1.505 3.579c0 1.395.502 2.605 1.479 3.579 1.003 1 2.191 1.5 3.564 1.5 1.399 0 2.587-.5 3.591-1.474 1.03-.974 1.531-2.184 1.531-3.579z"/><path id="H" d="M145.901 28.842c0 .684-.343 1.026-1.03 1.026a3.82 3.82 0 0 1-2.851-1.211c-.792-.789-1.188-1.763-1.188-2.868l.026-15.184c0-.684.343-1.026 1.03-1.026.66 0 1.003.342 1.003 1.026l-.026 15.184c0 .553.211 1.026.607 1.447a1.96 1.96 0 0 0 1.426.605c.66 0 1.003.342 1.003 1z"/><path id="I" d="M159.868 25.816c0 .158-.053.342-.132.526-.581 1.079-1.426 1.921-2.587 2.579-1.162.632-2.35.974-3.591.947-1.954 0-3.644-.711-5.017-2.079a6.84 6.84 0 0 1-2.086-5.026c0-1.947.713-3.632 2.112-5 1.399-1.395 3.063-2.079 5.043-2.079.686 0 1.426.132 2.191.395.871.289 1.716.789 2.535 1.421 1.03.816 1.558 1.579 1.558 2.289 0 .368-.158.632-.502.816l-9.611 5.5c1.003 1.158 2.271 1.711 3.802 1.737 1.611 0 2.878-.579 3.828-1.737l.581-.789c.264-.342.554-.526.845-.526s.528.105.739.289c.185.237.29.474.29.737zm-2.508-6.368a4.81 4.81 0 0 0-3.802-1.737c-1.399 0-2.587.5-3.591 1.474a4.86 4.86 0 0 0-1.505 3.579c0 .553.079 1.105.264 1.632l8.634-4.947z"/><path id="J" d="M138.112 14.974c0 .421-.158.763-.449 1.053-.317.289-.66.447-1.083.447s-.792-.158-1.083-.447-.449-.658-.449-1.079.158-.789.449-1.079c.317-.289.66-.447 1.083-.447s.792.158 1.083.447c.317.316.449.684.449 1.105z"/><path id="K" d="M40.898 9.921c-.713 0-1.399-.158-2.007-.447v19.763h3.828V9.553c-.554.237-1.162.368-1.822.368z"/><path id="L" d="M136.581 17.895c-.37 0-.739-.079-1.056-.184l-.026 11.105c0 .684.343 1.026 1.003 1.026.686 0 1.003-.342 1.03-1.026l.026-11.079a3.04 3.04 0 0 1-.977.158z"/></defs></svg>