<?xml version="1.0" encoding="UTF-8"?>
<svg width="160px" height="30px" viewBox="0 0 160 30" version="1.1" xmlns="http://www.w3.org/2000/svg" xmlns:xlink="http://www.w3.org/1999/xlink">
    <!-- Generator: Sketch 63.1 (92452) - https://sketch.com -->
    <title>MM_Logo_Horizontal</title>
    <desc>Created with Sketch.</desc>
    <g id="Atoms" stroke="none" stroke-width="1" fill="none" fill-rule="evenodd">
        <g transform="translate(-850.000000, -95.000000)" id="atoms/MM_Logo_Horizontal">
            <g transform="translate(850.000000, 95.000000)">
                <g id="MM_Logo_Horizontal_RGB">
                    <g id="Group" fill="#68AF85" fill-rule="nonzero">
                        <path d="M26.5346535,4.13157895 C23.0231023,3.84210526 20.1452145,5.28947368 18.0066007,8.44736842 C15.8679868,5.28947368 12.990099,3.84210526 9.47854785,4.13157895 C6.75907591,4.36842105 4.51485149,5.39473684 2.85148515,7.18421053 C1.05610561,9.07894737 0.158415842,11.6315789 0.158415842,14.7368421 L0.158415842,29.2368421 L4.11881188,29.2368421 L4.11881188,14.3684211 C4.11881188,12.5263158 4.64686469,10.9473684 5.65016502,9.68421053 C6.65346535,8.42105263 7.97359736,7.78947368 9.68976898,7.78947368 C11.4059406,7.78947368 12.9108911,8.36842105 14.1782178,9.47368421 C15.4191419,10.5789474 16.0528053,11.9736842 16.0528053,13.6315789 L16.0528053,29.2368421 L20.039604,29.2368421 L20.039604,13.6315789 C20.039604,11.9736842 20.6732673,10.5789474 21.9141914,9.47368421 C23.1551155,8.36842105 24.660066,7.78947368 26.4026403,7.78947368 C28.1188119,7.78947368 29.4389439,8.42105263 30.4950495,9.71052632 C31.5247525,11 32.0792079,12.5789474 32.0792079,14.3684211 L32.0792079,29.2368421 L36.039604,29.2368421 L36.039604,14.7368421 C36.039604,11.6315789 35.1155116,9.07894737 33.2937294,7.18421053 C31.4983498,5.39473684 29.2541254,4.36842105 26.5346535,4.13157895 Z" id="Path"></path>
                        <path d="M56.8184818,4.39473684 C53.6237624,4.39473684 50.9570957,5.47368421 48.8448845,7.63157895 C46.7326733,9.76315789 45.6765677,12.5 45.6765677,15.7368421 L45.6765677,29.2105263 L49.5049505,29.2105263 L49.5049505,15.3947368 C49.5049505,13.4210526 50.2442244,11.7105263 51.6963696,10.2894737 C53.1485149,8.86842105 54.8910891,8.13157895 56.8448845,8.13157895 C58.7722772,8.13157895 60.4884488,8.84210526 61.9405941,10.2894737 C63.3927393,11.7105263 64.1320132,13.4473684 64.1320132,15.3947368 L64.1320132,29.2105263 L67.960396,29.2105263 L67.960396,15.7368421 C67.960396,12.5 66.9042904,9.78947368 64.7920792,7.63157895 C62.6534653,5.5 59.9867987,4.39473684 56.8184818,4.39473684 Z" id="Path"></path>
                        <path d="M80.3168317,11.2368421 L80.3168317,7.63157895 L74.640264,7.63157895 L74.640264,0.131578947 L70.8118812,0.131578947 L70.8118812,21.8947368 C70.8118812,27.1052632 73.9273927,29.7631579 80.0264026,29.7631579 L80.3168317,29.7631579 L80.3168317,26.5 L80.0264026,26.5 C76.3828383,26.5 74.640264,24.8157895 74.640264,21.3421053 L74.640264,11.2631579 L80.3168317,11.2368421 Z" id="Path"></path>
                        <ellipse id="Oval" transform="translate(40.897738, 5.236861) rotate(-0.058098) translate(-40.897738, -5.236861) " cx="40.8977376" cy="5.23686109" rx="2.50825211" ry="2.50000129"></ellipse>
                    </g>
                    <g id="Group" transform="translate(82.904290, 9.473684)" fill-rule="nonzero">
                        <g fill="#8A8F93">
                            <path d="M18.4554455,19.2631579 C18.4554455,19.9473684 18.1122112,20.2894737 17.4257426,20.2894737 C16.7656766,20.2894737 16.4224422,19.9473684 16.4224422,19.2631579 L16.4488449,11.1578947 C16.4488449,10.3157895 16.1584158,9.60526316 15.5511551,9 C14.9438944,8.39473684 14.2310231,8.10526316 13.3861386,8.10526316 C12.5412541,8.10526316 11.8283828,8.39473684 11.2211221,9 C10.6138614,9.60526316 10.3234323,10.3157895 10.3234323,11.1578947 L10.2970297,19.2631579 C10.2970297,19.9473684 9.95379538,20.2894737 9.26732673,20.2894737 C8.60726073,20.2894737 8.2640264,19.9473684 8.2640264,19.2631579 L8.29042904,11.1578947 C8.29042904,10.3157895 8,9.60526316 7.39273927,9 C6.78547855,8.39473684 6.07260726,8.10526316 5.25412541,8.10526316 C4.40924092,8.10526316 3.69636964,8.39473684 3.08910891,9 C2.48184818,9.60526316 2.19141914,10.3157895 2.19141914,11.1578947 L2.1650165,19.2631579 C2.1650165,19.9473684 1.82178218,20.2894737 1.13531353,20.2894737 C0.448844884,20.2894737 0.132013201,19.9473684 0.132013201,19.2631579 L0.158415842,7.10526316 C0.158415842,6.44736842 0.501650165,6.10526316 1.18811881,6.10526316 C1.87458746,6.10526316 2.21782178,6.44736842 2.21782178,7.13157895 C3.11551155,6.44736842 4.11881188,6.13157895 5.28052805,6.13157895 C6.97029703,6.13157895 8.31683168,6.81578947 9.32013201,8.18421053 C10.349835,6.84210526 11.6963696,6.15789474 13.3861386,6.15789474 C14.7854785,6.15789474 15.9735974,6.65789474 16.9768977,7.65789474 C17.980198,8.65789474 18.4554455,9.84210526 18.4554455,11.2368421 L18.4554455,19.2631579 Z" id="Path"></path>
                            <path d="M34.4554455,13.2105263 C34.4554455,15.1842105 33.7425743,16.8421053 32.3432343,18.2368421 C30.9438944,19.6315789 29.2805281,20.3157895 27.30033,20.3157895 C25.3465347,20.3157895 23.6567657,19.6052632 22.2838284,18.2368421 C20.8844884,16.8421053 20.1980198,15.1578947 20.1980198,13.2105263 C20.1980198,11.2631579 20.9108911,9.57894737 22.310231,8.21052632 C23.709571,6.81578947 25.3729373,6.13157895 27.3531353,6.13157895 C29.3069307,6.13157895 30.9966997,6.84210526 32.369637,8.21052632 C33.7689769,9.57894737 34.4554455,11.2631579 34.4554455,13.2105263 Z M32.4224422,13.2105263 C32.4224422,11.8157895 31.9207921,10.6315789 30.9438944,9.63157895 C29.9405941,8.63157895 28.7524752,8.13157895 27.3531353,8.13157895 C25.9537954,8.13157895 24.7392739,8.63157895 23.7623762,9.60526316 C22.7590759,10.6052632 22.2574257,11.7894737 22.2574257,13.1842105 C22.2574257,14.5789474 22.7590759,15.7894737 23.7359736,16.7631579 C24.7392739,17.7631579 25.9273927,18.2631579 27.3267327,18.2631579 C28.7260726,18.2631579 29.9405941,17.7631579 30.9174917,16.7894737 C31.9207921,15.7894737 32.4224422,14.6052632 32.4224422,13.2105263 Z" id="Shape"></path>
                            <path d="M50.5082508,13.2631579 C50.5082508,15.2368421 49.7953795,16.8947368 48.4224422,18.2894737 C47.0231023,19.6842105 45.359736,20.3684211 43.379538,20.3684211 C41.4257426,20.3684211 39.7623762,19.6578947 38.3630363,18.2894737 C36.990099,16.8947368 36.2772277,15.2368421 36.3036304,13.2631579 L36.330033,1.18421053 C36.330033,0.5 36.6732673,0.157894737 37.359736,0.157894737 C38.019802,0.157894737 38.3630363,0.5 38.3630363,1.18421053 L38.3366337,8.28947368 C39.7359736,6.86842105 41.4257426,6.15789474 43.4323432,6.15789474 C45.4125413,6.15789474 47.0759076,6.86842105 48.4752475,8.23684211 C49.8217822,9.63157895 50.5082508,11.2894737 50.5082508,13.2631579 Z M48.4752475,13.2368421 C48.4752475,11.8421053 47.9735974,10.6578947 46.9966997,9.65789474 C45.9933993,8.65789474 44.8052805,8.15789474 43.4059406,8.15789474 C42.0066007,8.15789474 40.8184818,8.65789474 39.8151815,9.63157895 C38.8118812,10.6315789 38.310231,11.8157895 38.310231,13.2105263 C38.310231,14.6052632 38.8118812,15.8157895 39.7887789,16.7894737 C40.7920792,17.7894737 41.980198,18.2894737 43.3531353,18.2894737 C44.7524752,18.2894737 45.9405941,17.7894737 46.9438944,16.8157895 C47.9735974,15.8421053 48.4752475,14.6315789 48.4752475,13.2368421 Z" id="Shape"></path>
                            <path d="M62.9966997,19.3684211 C62.9966997,20.0526316 62.6534653,20.3947368 61.9669967,20.3947368 C60.8580858,20.3947368 59.9075908,20 59.1155116,19.1842105 C58.3234323,18.3947368 57.9273927,17.4210526 57.9273927,16.3157895 L57.9537954,1.13157895 C57.9537954,0.447368421 58.2970297,0.105263158 58.9834983,0.105263158 C59.6435644,0.105263158 59.9867987,0.447368421 59.9867987,1.13157895 L59.960396,16.3157895 C59.960396,16.8684211 60.1716172,17.3421053 60.5676568,17.7631579 C60.9636964,18.1578947 61.4389439,18.3684211 61.9933993,18.3684211 C62.6534653,18.3684211 62.9966997,18.7105263 62.9966997,19.3684211 Z" id="Path"></path>
                            <path d="M76.9636964,16.3421053 C76.9636964,16.5 76.9108911,16.6842105 76.8316832,16.8684211 C76.2508251,17.9473684 75.4059406,18.7894737 74.2442244,19.4473684 C73.0825083,20.0789474 71.8943894,20.4210526 70.6534653,20.3947368 C68.69967,20.3947368 67.009901,19.6842105 65.6369637,18.3157895 C64.2376238,16.9210526 63.5511551,15.2368421 63.5511551,13.2894737 C63.5511551,11.3421053 64.2640264,9.65789474 65.6633663,8.28947368 C67.0627063,6.89473684 68.7260726,6.21052632 70.7062706,6.21052632 C71.3927393,6.21052632 72.1320132,6.34210526 72.8976898,6.60526316 C73.7689769,6.89473684 74.6138614,7.39473684 75.4323432,8.02631579 C76.4620462,8.84210526 76.990099,9.60526316 76.990099,10.3157895 C76.990099,10.6842105 76.8316832,10.9473684 76.4884488,11.1315789 L66.8778878,16.6315789 C67.8811881,17.7894737 69.1485149,18.3421053 70.679868,18.3684211 C72.290429,18.3684211 73.5577558,17.7894737 74.5082508,16.6315789 C74.640264,16.4473684 74.8250825,16.1842105 75.0891089,15.8421053 C75.3531353,15.5 75.6435644,15.3157895 75.9339934,15.3157895 C76.2244224,15.3157895 76.4620462,15.4210526 76.6732673,15.6052632 C76.8580858,15.8421053 76.9636964,16.0789474 76.9636964,16.3421053 Z M74.4554455,9.97368421 C73.4521452,8.81578947 72.1848185,8.23684211 70.6534653,8.23684211 C69.2541254,8.23684211 68.0660066,8.73684211 67.0627063,9.71052632 C66.0594059,10.7105263 65.5577558,11.8947368 65.5577558,13.2894737 C65.5577558,13.8421053 65.6369637,14.3947368 65.8217822,14.9210526 L74.4554455,9.97368421 Z" id="Shape"></path>
                        </g>
                        <path d="M55.2079208,5.5 C55.2079208,5.92105263 55.049505,6.26315789 54.7590759,6.55263158 C54.4422442,6.84210526 54.0990099,7 53.6765677,7 C53.2541254,7 52.8844884,6.84210526 52.5940594,6.55263158 C52.3036304,6.26315789 52.1452145,5.89473684 52.1452145,5.47368421 C52.1452145,5.05263158 52.3036304,4.68421053 52.5940594,4.39473684 C52.9108911,4.10526316 53.2541254,3.94736842 53.6765677,3.94736842 C54.0990099,3.94736842 54.4686469,4.10526316 54.7590759,4.39473684 C55.0759076,4.71052632 55.2079208,5.07894737 55.2079208,5.5 Z" id="Path" fill="#68AF85"></path>
                    </g>
                    <path d="M40.8976898,9.92105263 C40.1848185,9.92105263 39.4983498,9.76315789 38.8910891,9.47368421 L38.8910891,29.2368421 L42.7194719,29.2368421 L42.7194719,9.55263158 C42.1650165,9.78947368 41.5577558,9.92105263 40.8976898,9.92105263 Z" id="Path" fill="#68AF85" fill-rule="nonzero"></path>
                    <path d="M136.580858,17.8947368 C136.211221,17.8947368 135.841584,17.8157895 135.524752,17.7105263 L135.49835,28.8157895 C135.49835,29.5 135.841584,29.8421053 136.50165,29.8421053 C137.188119,29.8421053 137.50495,29.5 137.531353,28.8157895 L137.557756,17.7368421 C137.240924,17.8421053 136.924092,17.8947368 136.580858,17.8947368 Z" id="Path" fill="#8A8F93" fill-rule="nonzero"></path>
                    <g id="Group" fill="#68AF85" fill-rule="nonzero">
                        <path d="M26.5346535,4.13157895 C23.0231023,3.84210526 20.1452145,5.28947368 18.0066007,8.44736842 C15.8679868,5.28947368 12.990099,3.84210526 9.47854785,4.13157895 C6.75907591,4.36842105 4.51485149,5.39473684 2.85148515,7.18421053 C1.05610561,9.07894737 0.158415842,11.6315789 0.158415842,14.7368421 L0.158415842,29.2368421 L4.11881188,29.2368421 L4.11881188,14.3684211 C4.11881188,12.5263158 4.64686469,10.9473684 5.65016502,9.68421053 C6.65346535,8.42105263 7.97359736,7.78947368 9.68976898,7.78947368 C11.4059406,7.78947368 12.9108911,8.36842105 14.1782178,9.47368421 C15.4191419,10.5789474 16.0528053,11.9736842 16.0528053,13.6315789 L16.0528053,29.2368421 L20.039604,29.2368421 L20.039604,13.6315789 C20.039604,11.9736842 20.6732673,10.5789474 21.9141914,9.47368421 C23.1551155,8.36842105 24.660066,7.78947368 26.4026403,7.78947368 C28.1188119,7.78947368 29.4389439,8.42105263 30.4950495,9.71052632 C31.5247525,11 32.0792079,12.5789474 32.0792079,14.3684211 L32.0792079,29.2368421 L36.039604,29.2368421 L36.039604,14.7368421 C36.039604,11.6315789 35.1155116,9.07894737 33.2937294,7.18421053 C31.4983498,5.39473684 29.2541254,4.36842105 26.5346535,4.13157895 Z" id="Path"></path>
                        <path d="M56.8184818,4.39473684 C53.6237624,4.39473684 50.9570957,5.47368421 48.8448845,7.63157895 C46.7326733,9.76315789 45.6765677,12.5 45.6765677,15.7368421 L45.6765677,29.2105263 L49.5049505,29.2105263 L49.5049505,15.3947368 C49.5049505,13.4210526 50.2442244,11.7105263 51.6963696,10.2894737 C53.1485149,8.86842105 54.8910891,8.13157895 56.8448845,8.13157895 C58.7722772,8.13157895 60.4884488,8.84210526 61.9405941,10.2894737 C63.3927393,11.7105263 64.1320132,13.4473684 64.1320132,15.3947368 L64.1320132,29.2105263 L67.960396,29.2105263 L67.960396,15.7368421 C67.960396,12.5 66.9042904,9.78947368 64.7920792,7.63157895 C62.6534653,5.5 59.9867987,4.39473684 56.8184818,4.39473684 Z" id="Path"></path>
                        <path d="M80.3168317,11.2368421 L80.3168317,7.63157895 L74.640264,7.63157895 L74.640264,0.131578947 L70.8118812,0.131578947 L70.8118812,21.8947368 C70.8118812,27.1052632 73.9273927,29.7631579 80.0264026,29.7631579 L80.3168317,29.7631579 L80.3168317,26.5 L80.0264026,26.5 C76.3828383,26.5 74.640264,24.8157895 74.640264,21.3421053 L74.640264,11.2631579 L80.3168317,11.2368421 Z" id="Path"></path>
                        <ellipse id="Oval" transform="translate(40.897738, 5.236861) rotate(-0.058098) translate(-40.897738, -5.236861) " cx="40.8977376" cy="5.23686109" rx="2.50825211" ry="2.50000129"></ellipse>
                    </g>
                    <g id="Group" transform="translate(82.904290, 9.473684)" fill-rule="nonzero">
                        <g fill="#8A8F93">
                            <path d="M18.4554455,19.2631579 C18.4554455,19.9473684 18.1122112,20.2894737 17.4257426,20.2894737 C16.7656766,20.2894737 16.4224422,19.9473684 16.4224422,19.2631579 L16.4488449,11.1578947 C16.4488449,10.3157895 16.1584158,9.60526316 15.5511551,9 C14.9438944,8.39473684 14.2310231,8.10526316 13.3861386,8.10526316 C12.5412541,8.10526316 11.8283828,8.39473684 11.2211221,9 C10.6138614,9.60526316 10.3234323,10.3157895 10.3234323,11.1578947 L10.2970297,19.2631579 C10.2970297,19.9473684 9.95379538,20.2894737 9.26732673,20.2894737 C8.60726073,20.2894737 8.2640264,19.9473684 8.2640264,19.2631579 L8.29042904,11.1578947 C8.29042904,10.3157895 8,9.60526316 7.39273927,9 C6.78547855,8.39473684 6.07260726,8.10526316 5.25412541,8.10526316 C4.40924092,8.10526316 3.69636964,8.39473684 3.08910891,9 C2.48184818,9.60526316 2.19141914,10.3157895 2.19141914,11.1578947 L2.1650165,19.2631579 C2.1650165,19.9473684 1.82178218,20.2894737 1.13531353,20.2894737 C0.448844884,20.2894737 0.132013201,19.9473684 0.132013201,19.2631579 L0.158415842,7.10526316 C0.158415842,6.44736842 0.501650165,6.10526316 1.18811881,6.10526316 C1.87458746,6.10526316 2.21782178,6.44736842 2.21782178,7.13157895 C3.11551155,6.44736842 4.11881188,6.13157895 5.28052805,6.13157895 C6.97029703,6.13157895 8.31683168,6.81578947 9.32013201,8.18421053 C10.349835,6.84210526 11.6963696,6.15789474 13.3861386,6.15789474 C14.7854785,6.15789474 15.9735974,6.65789474 16.9768977,7.65789474 C17.980198,8.65789474 18.4554455,9.84210526 18.4554455,11.2368421 L18.4554455,19.2631579 Z" id="Path"></path>
                            <path d="M34.4554455,13.2105263 C34.4554455,15.1842105 33.7425743,16.8421053 32.3432343,18.2368421 C30.9438944,19.6315789 29.2805281,20.3157895 27.30033,20.3157895 C25.3465347,20.3157895 23.6567657,19.6052632 22.2838284,18.2368421 C20.8844884,16.8421053 20.1980198,15.1578947 20.1980198,13.2105263 C20.1980198,11.2631579 20.9108911,9.57894737 22.310231,8.21052632 C23.709571,6.81578947 25.3729373,6.13157895 27.3531353,6.13157895 C29.3069307,6.13157895 30.9966997,6.84210526 32.369637,8.21052632 C33.7689769,9.57894737 34.4554455,11.2631579 34.4554455,13.2105263 Z M32.4224422,13.2105263 C32.4224422,11.8157895 31.9207921,10.6315789 30.9438944,9.63157895 C29.9405941,8.63157895 28.7524752,8.13157895 27.3531353,8.13157895 C25.9537954,8.13157895 24.7392739,8.63157895 23.7623762,9.60526316 C22.7590759,10.6052632 22.2574257,11.7894737 22.2574257,13.1842105 C22.2574257,14.5789474 22.7590759,15.7894737 23.7359736,16.7631579 C24.7392739,17.7631579 25.9273927,18.2631579 27.3267327,18.2631579 C28.7260726,18.2631579 29.9405941,17.7631579 30.9174917,16.7894737 C31.9207921,15.7894737 32.4224422,14.6052632 32.4224422,13.2105263 Z" id="Shape"></path>
                            <path d="M50.5082508,13.2631579 C50.5082508,15.2368421 49.7953795,16.8947368 48.4224422,18.2894737 C47.0231023,19.6842105 45.359736,20.3684211 43.379538,20.3684211 C41.4257426,20.3684211 39.7623762,19.6578947 38.3630363,18.2894737 C36.990099,16.8947368 36.2772277,15.2368421 36.3036304,13.2631579 L36.330033,1.18421053 C36.330033,0.5 36.6732673,0.157894737 37.359736,0.157894737 C38.019802,0.157894737 38.3630363,0.5 38.3630363,1.18421053 L38.3366337,8.28947368 C39.7359736,6.86842105 41.4257426,6.15789474 43.4323432,6.15789474 C45.4125413,6.15789474 47.0759076,6.86842105 48.4752475,8.23684211 C49.8217822,9.63157895 50.5082508,11.2894737 50.5082508,13.2631579 Z M48.4752475,13.2368421 C48.4752475,11.8421053 47.9735974,10.6578947 46.9966997,9.65789474 C45.9933993,8.65789474 44.8052805,8.15789474 43.4059406,8.15789474 C42.0066007,8.15789474 40.8184818,8.65789474 39.8151815,9.63157895 C38.8118812,10.6315789 38.310231,11.8157895 38.310231,13.2105263 C38.310231,14.6052632 38.8118812,15.8157895 39.7887789,16.7894737 C40.7920792,17.7894737 41.980198,18.2894737 43.3531353,18.2894737 C44.7524752,18.2894737 45.9405941,17.7894737 46.9438944,16.8157895 C47.9735974,15.8421053 48.4752475,14.6315789 48.4752475,13.2368421 Z" id="Shape"></path>
                            <path d="M62.9966997,19.3684211 C62.9966997,20.0526316 62.6534653,20.3947368 61.9669967,20.3947368 C60.8580858,20.3947368 59.9075908,20 59.1155116,19.1842105 C58.3234323,18.3947368 57.9273927,17.4210526 57.9273927,16.3157895 L57.9537954,1.13157895 C57.9537954,0.447368421 58.2970297,0.105263158 58.9834983,0.105263158 C59.6435644,0.105263158 59.9867987,0.447368421 59.9867987,1.13157895 L59.960396,16.3157895 C59.960396,16.8684211 60.1716172,17.3421053 60.5676568,17.7631579 C60.9636964,18.1578947 61.4389439,18.3684211 61.9933993,18.3684211 C62.6534653,18.3684211 62.9966997,18.7105263 62.9966997,19.3684211 Z" id="Path"></path>
                            <path d="M76.9636964,16.3421053 C76.9636964,16.5 76.9108911,16.6842105 76.8316832,16.8684211 C76.2508251,17.9473684 75.4059406,18.7894737 74.2442244,19.4473684 C73.0825083,20.0789474 71.8943894,20.4210526 70.6534653,20.3947368 C68.69967,20.3947368 67.009901,19.6842105 65.6369637,18.3157895 C64.2376238,16.9210526 63.5511551,15.2368421 63.5511551,13.2894737 C63.5511551,11.3421053 64.2640264,9.65789474 65.6633663,8.28947368 C67.0627063,6.89473684 68.7260726,6.21052632 70.7062706,6.21052632 C71.3927393,6.21052632 72.1320132,6.34210526 72.8976898,6.60526316 C73.7689769,6.89473684 74.6138614,7.39473684 75.4323432,8.02631579 C76.4620462,8.84210526 76.990099,9.60526316 76.990099,10.3157895 C76.990099,10.6842105 76.8316832,10.9473684 76.4884488,11.1315789 L66.8778878,16.6315789 C67.8811881,17.7894737 69.1485149,18.3421053 70.679868,18.3684211 C72.290429,18.3684211 73.5577558,17.7894737 74.5082508,16.6315789 C74.640264,16.4473684 74.8250825,16.1842105 75.0891089,15.8421053 C75.3531353,15.5 75.6435644,15.3157895 75.9339934,15.3157895 C76.2244224,15.3157895 76.4620462,15.4210526 76.6732673,15.6052632 C76.8580858,15.8421053 76.9636964,16.0789474 76.9636964,16.3421053 Z M74.4554455,9.97368421 C73.4521452,8.81578947 72.1848185,8.23684211 70.6534653,8.23684211 C69.2541254,8.23684211 68.0660066,8.73684211 67.0627063,9.71052632 C66.0594059,10.7105263 65.5577558,11.8947368 65.5577558,13.2894737 C65.5577558,13.8421053 65.6369637,14.3947368 65.8217822,14.9210526 L74.4554455,9.97368421 Z" id="Shape"></path>
                        </g>
                        <path d="M55.2079208,5.5 C55.2079208,5.92105263 55.049505,6.26315789 54.7590759,6.55263158 C54.4422442,6.84210526 54.0990099,7 53.6765677,7 C53.2541254,7 52.8844884,6.84210526 52.5940594,6.55263158 C52.3036304,6.26315789 52.1452145,5.89473684 52.1452145,5.47368421 C52.1452145,5.05263158 52.3036304,4.68421053 52.5940594,4.39473684 C52.9108911,4.10526316 53.2541254,3.94736842 53.6765677,3.94736842 C54.0990099,3.94736842 54.4686469,4.10526316 54.7590759,4.39473684 C55.0759076,4.71052632 55.2079208,5.07894737 55.2079208,5.5 Z" id="Path" fill="#68AF85"></path>
                    </g>
                    <path d="M40.8976898,9.92105263 C40.1848185,9.92105263 39.4983498,9.76315789 38.8910891,9.47368421 L38.8910891,29.2368421 L42.7194719,29.2368421 L42.7194719,9.55263158 C42.1650165,9.78947368 41.5577558,9.92105263 40.8976898,9.92105263 Z" id="Path" fill="#68AF85" fill-rule="nonzero"></path>
                    <path d="M136.580858,17.8947368 C136.211221,17.8947368 135.841584,17.8157895 135.524752,17.7105263 L135.49835,28.8157895 C135.49835,29.5 135.841584,29.8421053 136.50165,29.8421053 C137.188119,29.8421053 137.50495,29.5 137.531353,28.8157895 L137.557756,17.7368421 C137.240924,17.8421053 136.924092,17.8947368 136.580858,17.8947368 Z" id="Path" fill="#8A8F93" fill-rule="nonzero"></path>
                </g>
            </g>
        </g>
    </g>
</svg>