<svg xmlns="http://www.w3.org/2000/svg" viewBox="0 0 500 500"><path fill="#FFD800" d="M71.41 73h71.42v70.75H71.41V73Zm285.71 0h71.42v70.75h-71.42V73Z"/><path fill="#FFAF00" d="M71.41 143.75h142.84v70.75H71.41v-70.75Zm214.29 0h142.84v70.75H285.7v-70.75Z"/><path fill="#FF8205" d="M71.41 214.5h357.13v70.75H71.41V214.5Z"/><path fill="#FA500F" d="M71.41 285.27h71.42v70.75H71.41v-70.75Zm142.86 0h71.42v70.75h-71.42v-70.75Zm142.85 0h71.42v70.75h-71.42v-70.75Z"/><path fill="#E10500" d="M0 356.06h214.3v70.76H0v-70.76Zm285.7 0H500v70.76H285.7v-70.76Z"/></svg>