<svg xmlns="http://www.w3.org/2000/svg" viewBox="0 0 320 280"><g class="layer"><g fill="#2a5e00" fill-rule="evenodd"><path d="M123.08 34.29C56.65 34.29 2.81 88.14 2.81 154.56c0 66.43 53.85 120.27 120.27 120.27 66.47 0 120.32-53.85 120.32-120.27 0-66.43-53.85-120.27-120.32-120.27zm0 215.67c-52.67 0-95.36-42.73-95.36-95.4 0-52.67 42.68-95.4 95.36-95.4 52.72 0 95.4 42.73 95.4 95.4 0 52.67-42.68 95.4-95.4 95.4z"/><path d="m138.72 146.29 59.61-41.47 7.78 33.7-67.39 7.78zM110.88 146.29l-59.61-41.47-7.78 33.7 67.39 7.78zM43.95 192.02l74.62 49.75 87.12-78.8-161.75 29.05zM94.24 59.29 63.76 4.19l54.26 33.24-23.79 21.86zM202.64 78.1 233.07 23l-54.22 33.24 23.79 21.86zM275.63 274.67h29.35V33.91h-29.35v240.76z"/><path d="M317.94 125.93c0 15.3-12.33 27.63-27.63 27.63-15.26 0-27.63-12.33-27.63-27.63 0-15.26 12.37-27.63 27.63-27.63 15.3 0 27.63 12.37 27.63 27.63zM288.84 33.91h-41.76l16.76 45.99h23.58l1.42-45.99z"/></g></g></svg>