<svg xmlns="http://www.w3.org/2000/svg" viewBox="0 0 500 393.749">
  <path fill="#FEE702" d="m213.125 3.511-81.331 72.301L78.1 125.211l-24.031 21.294-6.813 4.813 2 84.351 84.938 80.33 60.099 53.826 19.632 17.269 8.813-.413 89.355-77.107 61.288-57.837L387.8 238.88l4.407-32.143 10.024-53-54.5-42.982L237.168 12.75 225.55 4.312l-6.425-2.563-6 1.762Z"/>
  <path fill="#231F20" d="M218.187.024c-3.137.25-5.612 1.938-6.956 2.863C208.018 5.1 194.219 16.199 175.456 33a2165.135 2165.135 0 0 0-53.188 49.562 4265.125 4265.125 0 0 1-41.124 38.656l.081.101h-2l.031-10.401-.981-2.576s-38.619-.124-75.357 1.463L0 109.931v140.468h14.249v6.982h36.526l.006-18.063c4.601 4.437 28.1 27.125 40.75 38.981 3.919 3.681 38.7 36.301 54.313 50.344 3.975 3.575 8.831 8.044 14.031 12.813 11.649 10.687 24.856 22.8 33.256 29.749l3.794 3.139c9.669 7.999 13.668 11.3 15.938 12.736 2.086 1.32 4.187 1.988 6.312 1.988.868 0 1.75-.137 2.625-.357 1.031.689 4.032 2.658 5.45 3.533 1.719 1.069 4.174 2.968 9.85-.413 5.656-3.375 16.419-11.281 34.563-27.319a3275.228 3275.228 0 0 0 54.749-49.962 4579.481 4579.481 0 0 0 49.338-46.907 2367.524 2367.524 0 0 0 21.801-21.538h52.274v-28.656l14.312 17.713 6.769-5.501 5.088 6.294 18.532-15.037-18.12-22.437 14.169.531L500 137.744l-8.25-.651 1.219-7.906-35.793-2.838-4.17 69.069 11.788.438-19.569 15.874h-3.532v-10.193l-3.874.213c-9.326.62-18.672.945-28.019.974l42.994-80.206c-4.253-.243-8.506-.461-12.762-.657l6.499-12.112-5.362-.375c-45.45-2.588-78.943-2.093-92.194-2.093-.332-.313-37.957-35.5-56.868-52.414-19.002-16.98-35.951-32.017-44.714-38.681-8.775-6.656-10.737-8.287-12.948-8.875-.913-.23-1.838-.41-2.77-.537a116.71 116.71 0 0 0-7.232-5.125 10.238 10.238 0 0 0-6.261-1.625h.005Zm.833 3.425a6.98 6.98 0 0 1 3.6 1.15c.062.037 6.949 4.419 17.937 13.776 2.936 2.48 5.912 4.98 8.912 7.481 8.425 7.049 17.137 14.33 24.912 21.818 5.726 5.513 15.05 13.869 24.069 21.975a1113.037 1113.037 0 0 1 19.8 18 2677.917 2677.917 0 0 0 27.312 25.207v24.725H244.188v-10.969l-8.082.062v-13.25l-31.806.026 4.657 18.937-14.638 3.663.18 104.119h14.314v6.912h35.374V175.08c1.938-.056 4.489-.112 7.251-.193v6.462h19.893v88.376h14.3v6.936h36.063v-95.312h34.2v-29.412c10.788-.488 19.1-.75 25.875-.875l-45.551 88.112h19.863l-3.581 6.938h24.312c-4.706 4.662-22.286 22.031-46.318 44.643-27.438 25.813-101.25 90.519-106.3 93.576-4.463 2.687-7.501 1.462-9.651.1-2.099-1.338-6.337-4.838-15.618-12.519l-3.781-3.138c-8.344-6.88-21.519-18.981-33.144-29.637-5.2-4.763-10.081-9.25-14.062-12.832-12.645-11.399-40.057-36.967-54.25-50.293-1.738-1.625-4.169-3.95-6.307-5.975h13.493v7.05h35.001v-50.099l28.312 47.125 2.644-2.213c1.051-.856 2.07-1.737 3.1-2.587l5.362 8.906c10.082-8.349 28.701-25.899 28.701-25.899-3.392-3.876-6.8-7.736-10.226-11.582l-20.199-23.757c15.306-12.699 19.188-22.356 18.349-33.587-.736-9.706-4.818-16.25-10.562-20.731-6.981-17.607-27.438-21.263-41.756-22.975-13.582-1.544-35.231-.6-50.062.025l-2.232.081.068-18.5h-1.206c4.231-3.944 26.539-24.688 38.5-36.219 6.664-6.424 30.182-28.969 53.1-49.481 18.638-16.687 32.276-27.65 35.426-29.825 2.056-1.419 3.9-2.338 5.812-2.306l.013-.007.001-.007ZM50.355 151.575l36.338.037v117.775a7576.565 7576.565 0 0 1-35.919-34.425l.024-26.419h33.52v-28.981l-8.169.043.018-13.75-25.837.125.025-14.4v-.005Zm85.5 24.23h5.444a11.866 11.866 0 0 1 1.199 5.231c0 5.294-2.749 10.251-6.643 14.732v-19.963Z"/>
  <path fill="#ED1C24" d="M361.081 110.368c-5.631 0-10.012.037-13.006.032v31.199c17.812-.812 31.082-.725 42.501-.812l-49.251 95.269 2.187.006h95.138v-31.2c-20.831 1.369-36.206.956-46.937.706l49.905-93.101a1344.871 1344.871 0 0 0-80.524-2.099h-.013ZM76.2 111.392l-73.119 1.462V247.33h36.518l.033-48.836h33.511l.014-28.989-34.026.169.063-28.137 37.037-.063-.031-11.206v-18.876Zm156.812 5.182-24.831.05 4.588 18.044-15.294 3.825.169 98.55h35.375V116.574h-.007Zm227.094 13.125-3.774 62.713 23.668.874 9.419-61.256-29.313-2.331ZM240.257 140.7v31.388l34.201-.775V266.6h36.061v-95.287l34.2.775V140.7H240.252h.005Zm-118.7 1.125c-10.863-.05-22.681.47-31.862.844v124.375h34.999V165.763h7.532c3.507 0 13.269 4.9 13.269 15.269 0 10.962-9.813 20.062-17.863 26.437l37.338 62.137c10.087-8.349 19.662-16.574 28.031-25.211l-31.332-36.844c15.932-13.019 19.932-22.781 19.082-34.188-1.812-24.1-24.269-28.669-41.468-30.719a169.478 169.478 0 0 0-17.726-.813v-.006Zm346.488 55.4-18.538 15.037 15.018 18.569 18.526-15.038-15.008-18.569.002.001Z"/>
</svg>
