<svg xmlns="http://www.w3.org/2000/svg" viewBox="0 0 512 512"><path fill="#885a89" fill-rule="evenodd" d="M173.202 47.022c-32.45 8.502-55.945 45.699-61.148 96.813-1.209 11.881-1.058 11.733-12.801 12.496-77.33 5.025-86.775 126.514-14.526 186.858L93 350.1l.004 18.2c.014 61.62 30.401 104.485 81.496 114.961 23.131 4.742 151.361 3.417 174.23-1.801 43.52-9.931 73.27-55.534 73.27-112.317v-18.506l4.75-4.055c77.37-66.054 68.012-190.078-14.378-190.547-7.834-.045-8.132-.459-9.42-13.132-9.803-96.402-88.869-131.841-139.784-62.653-5.349 7.269-5.892 7.215-12.132-1.201-20.21-27.262-49.701-39.397-77.834-32.027m10.298 3.624c-36.236 5.429-63.477 49.282-63.496 102.217L120 164.227l-3.25-.654C32.364 146.584 16.48 292.362 97.721 338.212l5.352 3.02-.786 6.134c-8.258 64.397 24.637 116.364 79.213 125.141 15.214 2.447 40.776 3.737 59.5 3.003 9.625-.378 29.875-.84 45-1.027 42.691-.529 58.491-2.596 73-9.551 39.541-18.955 60.594-65.11 53.792-117.932l-.708-5.5 7.029-4.476c79.835-50.831 63.266-189.748-20.688-173.445l-3.075.597-.165-11.901c-1.409-101.5-90.709-139.608-132.411-56.505l-5.153 10.27-4.562-9.27C237.71 65.582 209.346 46.774 183.5 50.646"/><path fill="#e2c9e2" fill-rule="evenodd" d="M394.209 155.75c-.205 10.056-.166 10.248 2.041 10.134 1.637-.084 1.783-.239.535-.567-1.44-.378-1.766-1.998-2.04-10.134l-.326-9.683-.21 10.25m-273.881-.25c.005 3.85.185 5.302.402 3.228.216-2.075.213-5.225-.008-7-.221-1.776-.398-.078-.394 3.772m345.795 101.237c-9.161 26.156-26.542 54.298-46.111 74.661-8.277 8.612-8.928 9.526-5.012 7.038 22.449-14.263 40.111-37.45 48.87-64.156 5.041-15.372 7.096-31.371 2.253-17.543M46.534 256c5.644 32.969 26.509 65.676 51.966 81.457 1.759 1.091-.314-1.618-5.014-6.549C75.432 311.967 59.841 287.28 49.334 261c-1.934-4.836-3.14-6.991-2.8-5m361.985 122.653c-24.932 42.877-44.877 60.107-80.488 69.535-16.808 4.449-24.726 3.26-62.428-9.371l-8.897-2.981-11.103 3.551c-38.193 12.216-39.174 12.42-51.141 10.61-36.249-5.482-59.549-22.722-84.466-62.497l-8.144-13 .641 6c5.372 50.302 36.081 84.654 81.914 91.631 31.07 4.729 138.09 2.602 160.93-3.199 33.863-8.601 61.324-42.889 66.7-83.282 1.848-13.89 1.218-15.143-3.518-6.997"/><path fill="#ddcadd" fill-rule="evenodd" d="M164 57.059c-3.025 1.662-6.4 4-7.5 5.195l-2 2.172 2.125-1.755c1.169-.966 4.994-3.301 8.5-5.19 3.506-1.89 5.925-3.438 5.375-3.44-.55-.003-3.475 1.355-6.5 3.018m196.365 7.032c2.174 1.975 5.729 5.575 7.9 8 3.851 4.302 3.873 4.312.934.409-2.978-3.953-6.769-7.669-10.743-10.529-1.124-.809-.265.145 1.909 2.12M243.635 82c4.52 6.684 6.327 8.692 3.757 4.174-1.041-1.829-3.149-4.754-4.684-6.5-2.019-2.294-1.762-1.65.927 2.326m135.573 7.468c1.754 3.557 3.355 6.303 3.556 6.101.447-.447-5.599-12.569-6.269-12.569-.262 0 .959 2.911 2.713 6.468m58.235 78.703c7.546 4.227 15.458 11.442 19.565 17.841 3.549 5.532 5.126 6.779 2.299 1.819-4.611-8.088-18.404-20.04-25.807-22.361-1.1-.345.674.871 3.943 2.701M63.081 178.602c-2.816 3.08-5.586 6.568-6.155 7.75-.578 1.198-.024.821 1.252-.852 1.259-1.65 4.27-5.137 6.692-7.75 2.422-2.613 4.162-4.75 3.867-4.75-.295 0-2.84 2.521-5.656 5.602M470.389 235.5c.001 7.15.161 9.944.353 6.208.193-3.735.192-9.585-.003-13-.194-3.414-.352-.358-.35 6.792m-426.007 0c.002 6.6.164 9.17.359 5.711.196-3.459.195-8.859-.003-12s-.358-.311-.356 6.289m423.855 21c-.695 4.4-1.549 9.125-1.898 10.5s-.35 2.245-.002 1.932c1.005-.903 3.838-15.678 3.484-18.171-.177-1.244-.889 1.339-1.584 5.739M48.091 266.568c-.132 1.549 2.972 11.702 3.436 11.238.215-.215-.449-3.072-1.477-6.348-1.027-3.277-1.909-5.477-1.959-4.89M463.699 275c-6.369 21.744-26.518 48.921-45.449 61.301-3.988 2.608-7.243 5.294-7.235 5.97.011.843.246.888.75.143.404-.597 3.435-2.798 6.735-4.891 12.086-7.664 28.421-25.75 36.816-40.76 4.324-7.732 10.968-24.427 10.39-26.109-.218-.635-1.121 1.321-2.007 4.346m-411.165 6c4.762 16.969 29.544 48.383 45.089 57.156 2.89 1.631 5.454 3.726 5.699 4.655.41 1.552.455 1.548.562-.04.074-1.105-2.497-3.442-7.134-6.482-14.829-9.724-29.703-27.381-39.414-46.789-3.027-6.05-5.188-9.875-4.802-8.5m360.786 78c0 3.575.182 5.038.403 3.25.222-1.788.222-4.712 0-6.5-.221-1.788-.403-.325-.403 3.25m-311.841 11c.907 48.011 30.292 92.301 66.021 99.511 1.65.332-1.05-1.125-6-3.238-36.743-15.691-57.105-48.636-59.502-96.273l-.831-16.5.312 16.5m311.16 9.25c-3.023 42.634-30.867 80.008-66.795 89.656-4.039 1.085-6.413 2-5.276 2.033 22.288.654 56.547-31.301 67.329-62.8 3.783-11.054 7.974-38.139 5.9-38.139-.276 0-.797 4.163-1.158 9.25M306.75 473.732c2.337.211 6.163.211 8.5 0 2.337-.21.425-.383-4.25-.383s-6.587.173-4.25.383m-106 .991c1.787.222 4.713.222 6.5 0 1.787-.221.325-.403-3.25-.403s-5.037.182-3.25.403m52.026.01c2.352.212 5.952.209 8-.006s.124-.388-4.276-.384c-4.4.003-6.076.179-3.724.39m26.474.006c3.163.198 8.337.198 11.5 0 3.163-.198.575-.361-5.75-.361s-8.913.163-5.75.361m-57.5 1.004c3.988.189 10.512.189 14.5 0 3.988-.19.725-.346-7.25-.346s-11.238.156-7.25.346"/><path fill="#c0ffb6" fill-rule="evenodd" d="M319.75 87.723c1.788.222 4.712.222 6.5 0 1.788-.221.325-.403-3.25-.403s-5.038.182-3.25.403M202 90.077c2.475 1.118 6.955 4.596 9.957 7.728 4.698 4.903 4.964 5.069 1.915 1.195-3.823-4.859-12.084-11.014-14.735-10.978-.9.012.388.937 2.863 2.055m108-.116c-1.925 1.03-5.3 3.823-7.499 6.206l-3.999 4.333 4.499-4.197c2.474-2.308 6.524-5.111 8.999-6.228 2.475-1.117 3.825-2.021 3-2.009-.825.012-3.075.865-5 1.895m-136.127 1.905c-5.865 3.719-15.886 16.128-15.857 19.634.004.55 1.165-1.024 2.579-3.499 4.228-7.396 9.286-12.892 14.75-16.025 2.835-1.627 4.681-2.961 4.101-2.967-.58-.005-3.088 1.281-5.573 2.857m164.751.092c2.818 1.616 6.803 4.874 8.855 7.24 2.053 2.366 2.828 2.952 1.724 1.302-3.262-4.875-11.747-11.504-14.703-11.487-.55.003 1.306 1.328 4.124 2.945m-13.733 8.014c-8.612 4.607-6.736 15.552 3.499 20.409 14.182 6.729 20.736-10.06 7.61-19.494-3.877-2.786-7.112-3.053-11.109-.915m-150.968 2.951c-3.798 3.798-4.074 9.647-.609 12.903 7.783 7.311 21.291-4.702 14.704-13.076-3.166-4.025-9.981-3.941-14.095.173M355.096 111c-.036.275.843 3.2 1.954 6.5s1.8 4.585 1.531 2.856c-.44-2.834-3.322-10.571-3.485-9.356m-129.888 7.468c1.754 3.557 3.355 6.303 3.556 6.101.447-.447-5.599-12.569-6.269-12.569-.262 0 .959 2.911 2.713 6.468M152.374 145.5c.002 6.05.167 8.396.366 5.213.199-3.182.197-8.132-.004-11-.201-2.867-.364-.263-.362 5.787m208.969 0c.003 4.4.179 6.076.39 3.724.212-2.352.209-5.952-.006-8s-.388-.124-.384 4.276M274.32 170c0 3.575.182 5.037.403 3.25.222-1.787.222-4.713 0-6.5-.221-1.787-.403-.325-.403 3.25M110.5 194.392c2.2.693 5.013 1.803 6.25 2.469 1.237.665 2.25.947 2.25.625 0-.955-8.335-4.446-10.5-4.397-1.1.025-.2.611 2 1.303m286.91 1.562c-6.936 3.467-15.555 10.889-20.222 17.415-4.691 6.559-3.376 5.747 2.088-1.289 5.564-7.165 13.667-13.458 21.45-16.658 3.176-1.306 5.058-2.385 4.184-2.398-.875-.013-4.25 1.305-7.5 2.93m-310.985.965c-3.474 2.554-8.393 8.456-10.904 13.081-1.05 1.933-.152.974 5.963-6.378 2.69-3.234 6.268-6.719 7.953-7.747 1.685-1.027 2.589-1.869 2.01-1.871-.579-.002-2.839 1.31-5.022 2.915m43.692 10.741c7.976 8.419 13.214 16.731 18.085 28.702 1.598 3.926 2.631 5.788 2.297 4.138-2.014-9.942-15.727-31.472-24.164-37.94-2.423-1.857-1.03.021 3.782 5.1m282.83-5.104c-4.875 5.189-2.379 13.701 5.24 17.875 4.696 2.572 9.373.866 11.485-4.189 4.115-9.847-9.706-21.157-16.725-13.686m-326.73 3.005c-5.705 3.996-7.208 13.33-2.761 17.155 4.619 3.973 10.595 1.953 14.064-4.755 4.661-9.013-3.444-17.905-11.303-12.4M259.5 225.065c25.861 2.453 38.03 11.76 60.713 46.435 7.938 12.135 14.248 19.496 26.961 31.453 11.211 10.544 19.418 21.994 24.472 34.141 1.924 4.623 3.22 7.056 2.88 5.406-2.256-10.955-17.261-33.106-28.899-42.664-8.702-7.146-16.542-16.434-26.032-30.836-22.077-33.507-35.107-43.204-59.635-44.381l-10.46-.502 10 .948m-18.882 1.047c-13.322 3.128-27.881 16.365-43.072 39.163-10.832 16.256-20.239 27.673-28.861 35.029-13.463 11.486-30.84 39.531-30.652 49.469.018.95.829-.523 1.802-3.273 2.048-5.786 29.753-45.198 37.609-53.5 7.561-7.991 12.039-13.863 22.019-28.876 15.188-22.849 28.551-34.219 44.253-37.654 3.181-.696 4.659-1.266 3.284-1.267-1.375-.001-4.247.408-6.382.909m-10.801 10.42c-18.26 9.508-8.461 32.342 12.939 30.15 14.268-1.462 22.633-13.972 16.294-24.368-4.644-7.616-19.912-10.636-29.233-5.782m34.547 28.616c-7.191 3.556-4.703 15.852 3.209 15.852 4.683 0 7.427-2.915 7.427-7.889 0-6.451-5.447-10.529-10.636-7.963m93.026 63.278c-.91 2.371.377 4.765 2.357 4.384 1.107-.213 1.753-1.249 1.753-2.81 0-2.851-3.156-4.059-4.11-1.574"/><path fill="#98ff88" fill-rule="evenodd" d="M180.882 89.381c-11.878 4.244-20.25 14.568-24.952 30.767-2.002 6.897-4.156 44.086-2.32 40.045.341-.749 2.449 2.452 4.941 7.5 25.458 51.588 64.75 42.145 72.341-17.386l1.84-14.429-2.914-7.16c-13.452-33.057-29.781-46.182-48.936-39.337m130.598.915c-13.268 6.341-34.112 43.038-31.423 55.321.468 2.136 1.492 7.933 2.276 12.883 8.723 55.046 52.572 56.294 74.734 2.127 2.144-5.241 2.482-5.617 3.142-3.5 1.937 6.217-.106-27.957-2.13-35.627-6.984-26.472-27.606-40.281-46.599-31.204m13.411 9.676c-8.612 4.607-6.736 15.552 3.499 20.409 14.182 6.729 20.736-10.06 7.61-19.494-3.877-2.786-7.112-3.053-11.109-.915m-150.968 2.951c-3.798 3.798-4.074 9.647-.609 12.903 7.783 7.311 21.291-4.702 14.704-13.076-3.166-4.025-9.981-3.941-14.095.173m-81.286 91.481c-10.02 3.731-22.06 22.586-21.521 33.704.089 1.836.226 1.965.59.553.284-1.1 1.865 2.305 3.935 8.476 16.72 49.836 57.264 69.614 73.998 36.097 15.723-31.493-26.672-90.123-57.002-78.83m308.089 1.018c-17.165 7.058-32.201 27.024-38.092 50.578-2.43 9.716-4.129 26.424-2.59 25.473.471-.291 1.398.484 2.061 1.723 18.122 33.861 58.391 13.423 76.32-38.735l3.423-9.961.265 7.5c.265 7.484.266 7.487.632 1.547 1.69-27.424-20.058-47.156-42.019-38.125m12.221 7.134c-4.875 5.189-2.379 13.701 5.24 17.875 4.696 2.572 9.373.866 11.485-4.189 4.115-9.847-9.706-21.157-16.725-13.686m-326.73 3.005c-5.705 3.996-7.208 13.33-2.761 17.155 4.619 3.973 10.595 1.953 14.064-4.755 4.661-9.013-3.444-17.905-11.303-12.4m157.499 20.843c-15.883 3.657-29.097 14.919-44.253 37.72-9.98 15.013-14.458 20.885-22.019 28.876-21.038 22.233-53.713 80.701-40.557 72.57.488-.302 2.714 1.809 4.947 4.691 23.603 30.453 50.732 40.639 79.166 29.723 28.999-11.133 40.368-11.471 69.325-2.061 25.621 8.326 33.524 9.276 49.175 5.91 16.871-3.629 29.068-17.925 33.983-39.833.925-4.125 2.084-8.509 2.574-9.742.934-2.345-3.075-15.389-7.301-23.758-4.344-8.604-12.51-19.015-21.672-27.632-12.622-11.871-18.946-19.253-26.871-31.368-25.83-39.487-46.904-51.91-76.497-45.096m-13.899 10.128c-18.26 9.508-8.461 32.342 12.939 30.15 14.268-1.462 22.633-13.972 16.294-24.368-4.644-7.616-19.912-10.636-29.233-5.782m34.547 28.616c-7.191 3.556-4.703 15.852 3.209 15.852 4.683 0 7.427-2.915 7.427-7.889 0-6.451-5.447-10.529-10.636-7.963m93.026 63.278c-.91 2.371.377 4.765 2.357 4.384 1.107-.213 1.753-1.249 1.753-2.81 0-2.851-3.156-4.059-4.11-1.574"/><path fill="#4fff31" fill-rule="evenodd" d="M230.799 150.853c-7.244 58.999-46.922 68.129-72.347 16.647-4.821-9.761-5.526-9.019-2.537 2.669 13.123 51.311 56.944 67.13 76.414 27.586 7.161-14.545 7.42-53.34.402-60.357-.137-.138-1.007 5.917-1.932 13.455m46.4 3.155c-14.251 73.406 60.08 91.406 79.687 19.296 2.429-8.932 3.773-20.149 1.953-16.304-12.1 25.577-21.466 36.331-36.596 42.021-19.616 7.378-34.913-8.32-39.974-41.021-2.597-16.781-2.589-16.774-5.07-3.992m161.405 79.742c-16.993 52.952-53.78 71.727-76.901 39.25l-1.78-2.5.599 4c8.278 55.293 78.296 21.885 81.217-38.75.626-13.001.435-13.124-3.135-2m-366.978-4.395c-3.598 14.335 11.665 49.168 27.748 63.325 23.922 21.057 54.702 6.851 54.559-25.18l-.018-4-2.287 5.5c-16.028 38.544-58.301 20.85-75.964-31.794-2.69-8.018-3.568-9.725-4.038-7.851M375.691 355a949.273 949.273 0 0 0-2.269 9.5c-5.083 21.665-17.222 35.741-33.922 39.333-15.651 3.366-23.554 2.416-49.175-5.91-28.957-9.41-40.326-9.072-69.325 2.061-28.455 10.924-55.562.733-79.208-29.778-5.58-7.199-6.548-5.988-5.001 6.258 5.822 46.096 56.696 68.156 93.709 40.633 24.213-18.005 26.667-18.133 49.5-2.597 26.833 18.258 41.455 20.114 64.5 8.187 21.274-11.011 33.543-30.717 33.428-53.687-.053-10.356-1.259-17.904-2.237-14"/><path fill="#faf7f8" fill-rule="evenodd" d="M181 52.012c-34.097 5.886-59.984 49.352-59.997 100.738-.002 7.58-.404 13.25-.941 13.25-.516 0-4.003-.721-7.75-1.603-38.68-9.1-68.826 24.425-67.085 74.603.894 25.79 24.322 69.009 51.702 95.378l7.142 6.878-1.036 7.444c-.569 4.095-1.035 11.599-1.035 16.677v9.232l8.07 12.945c24.687 39.603 48.147 56.961 84.392 62.443 11.967 1.81 12.948 1.606 51.141-10.61l11.103-3.551 8.897 2.981c37.702 12.631 45.62 13.82 62.428 9.371 35.56-9.414 53.826-25.057 79.786-68.327 5.763-9.605 6.543-15.675 4.148-32.25l-.996-6.89 9.277-9.61c30.015-31.092 50.535-72.813 49.483-100.607-1.752-46.264-29.898-74.105-66.729-66.004-3.575.786-7.062 1.446-7.75 1.465-.942.026-1.25-3.403-1.25-13.914 0-79.761-57.586-125.769-107.603-85.969C275.73 74.57 259 100.114 259 107.913c0 2.968-2.395.028-5.054-6.205-15.065-35.314-43.609-54.76-72.946-49.696m-.668 36.773c-36.135 12.948-38.038 87.752-3.111 122.354 10.393 10.297 28.639 13.081 38.714 5.907 1.581-1.125 3.332-2.046 3.892-2.046s3.005-2.272 5.434-5.048c33.93-38.788-2.282-136.448-44.929-121.167m134.662-.91c-24.316 7.973-47.771 68.506-38.582 99.573 11.494 38.863 47.85 45.474 69.338 12.609 32.083-49.071 11.024-125.882-30.756-112.182M92.837 193.512c-21.666 6.959-28.506 40.528-14.455 70.94 17.047 36.895 45.947 50.728 65.067 31.144 31.297-32.056-9.906-115.159-50.612-102.084m309.377.318c-30.083 10.74-52.613 62.351-39.475 90.426 16.179 34.574 54.801 22.791 73.881-22.54 16.842-40.015-2.971-79.109-34.406-67.886m-158.451 31.635c-16.099 3.355-29.777 15.137-46.217 39.81-10.832 16.256-20.239 27.673-28.861 35.029-38.783 33.089-44.186 90.541-10.879 115.699 1.818 1.373 4.293 3.329 5.5 4.346 17.562 14.799 46.919 14.275 66.502-1.188 4.576-3.613 20.594-13.313 24.829-15.034 4.328-1.76 9.076.655 31.782 16.16 72.677 49.633 128.364-63.655 59.208-120.451-8.702-7.146-16.542-16.434-26.032-30.836-25.155-38.179-45.497-49.857-75.832-43.535"/></svg>