<svg xmlns="http://www.w3.org/2000/svg" width="512" height="512" viewBox="0 0 512 512" version="1.1"><path d="M 173.202 47.022 C 140.752 55.524, 117.257 92.721, 112.054 143.835 C 110.845 155.716, 110.996 155.568, 99.253 156.331 C 21.923 161.356, 12.478 282.845, 84.727 343.189 L 93 350.100 93.004 368.300 C 93.018 429.920, 123.405 472.785, 174.500 483.261 C 197.631 488.003, 325.861 486.678, 348.730 481.460 C 392.250 471.529, 422 425.926, 422 369.143 L 422 350.637 426.750 346.582 C 504.120 280.528, 494.762 156.504, 412.372 156.035 C 404.538 155.990, 404.240 155.576, 402.952 142.903 C 393.149 46.501, 314.083 11.062, 263.168 80.250 C 257.819 87.519, 257.276 87.465, 251.036 79.049 C 230.826 51.787, 201.335 39.652, 173.202 47.022 M 183.500 50.646 C 147.264 56.075, 120.023 99.928, 120.004 152.863 L 120 164.227 116.750 163.573 C 32.364 146.584, 16.480 292.362, 97.721 338.212 L 103.073 341.232 102.287 347.366 C 94.029 411.763, 126.924 463.730, 181.500 472.507 C 196.714 474.954, 222.276 476.244, 241 475.510 C 250.625 475.132, 270.875 474.670, 286 474.483 C 328.691 473.954, 344.491 471.887, 359 464.932 C 398.541 445.977, 419.594 399.822, 412.792 347 L 412.084 341.500 419.113 337.024 C 498.948 286.193, 482.379 147.276, 398.425 163.579 L 395.350 164.176 395.185 152.275 C 393.776 50.775, 304.476 12.667, 262.774 95.770 L 257.621 106.040 253.059 96.770 C 237.710 65.582, 209.346 46.774, 183.500 50.646" stroke="none" fill="#885a89" fill-rule="evenodd"/><path d="M 394.209 155.750 C 394.004 165.806, 394.043 165.998, 396.250 165.884 C 397.887 165.800, 398.033 165.645, 396.785 165.317 C 395.345 164.939, 395.019 163.319, 394.745 155.183 L 394.419 145.500 394.209 155.750 M 120.328 155.500 C 120.333 159.350, 120.513 160.802, 120.730 158.728 C 120.946 156.653, 120.943 153.503, 120.722 151.728 C 120.501 149.952, 120.324 151.650, 120.328 155.500 M 466.123 256.737 C 456.962 282.893, 439.581 311.035, 420.012 331.398 C 411.735 340.010, 411.084 340.924, 415 338.436 C 437.449 324.173, 455.111 300.986, 463.870 274.280 C 468.911 258.908, 470.966 242.909, 466.123 256.737 M 46.534 256 C 52.178 288.969, 73.043 321.676, 98.500 337.457 C 100.259 338.548, 98.186 335.839, 93.486 330.908 C 75.432 311.967, 59.841 287.280, 49.334 261 C 47.400 256.164, 46.194 254.009, 46.534 256 M 408.519 378.653 C 383.587 421.530, 363.642 438.760, 328.031 448.188 C 311.223 452.637, 303.305 451.448, 265.603 438.817 L 256.706 435.836 245.603 439.387 C 207.410 451.603, 206.429 451.807, 194.462 449.997 C 158.213 444.515, 134.913 427.275, 109.996 387.500 L 101.852 374.500 102.493 380.500 C 107.865 430.802, 138.574 465.154, 184.407 472.131 C 215.477 476.860, 322.497 474.733, 345.337 468.932 C 379.200 460.331, 406.661 426.043, 412.037 385.650 C 413.885 371.760, 413.255 370.507, 408.519 378.653" stroke="none" fill="#e2c9e2" fill-rule="evenodd"/><path d="M 164 57.059 C 160.975 58.721, 157.600 61.059, 156.500 62.254 L 154.500 64.426 156.625 62.671 C 157.794 61.705, 161.619 59.370, 165.125 57.481 C 168.631 55.591, 171.050 54.043, 170.500 54.041 C 169.950 54.038, 167.025 55.396, 164 57.059 M 360.365 64.091 C 362.539 66.066, 366.094 69.666, 368.265 72.091 C 372.116 76.393, 372.138 76.403, 369.199 72.500 C 366.221 68.547, 362.430 64.831, 358.456 61.971 C 357.332 61.162, 358.191 62.116, 360.365 64.091 M 243.635 82 C 248.155 88.684, 249.962 90.692, 247.392 86.174 C 246.351 84.345, 244.243 81.420, 242.708 79.674 C 240.689 77.380, 240.946 78.024, 243.635 82 M 379.208 89.468 C 380.962 93.025, 382.563 95.771, 382.764 95.569 C 383.211 95.122, 377.165 83, 376.495 83 C 376.233 83, 377.454 85.911, 379.208 89.468 M 437.443 168.171 C 444.989 172.398, 452.901 179.613, 457.008 186.012 C 460.557 191.544, 462.134 192.791, 459.307 187.831 C 454.696 179.743, 440.903 167.791, 433.500 165.470 C 432.400 165.125, 434.174 166.341, 437.443 168.171 M 63.081 178.602 C 60.265 181.682, 57.495 185.170, 56.926 186.352 C 56.348 187.550, 56.902 187.173, 58.178 185.500 C 59.437 183.850, 62.448 180.363, 64.870 177.750 C 67.292 175.137, 69.032 173, 68.737 173 C 68.442 173, 65.897 175.521, 63.081 178.602 M 470.389 235.500 C 470.390 242.650, 470.550 245.444, 470.742 241.708 C 470.935 237.973, 470.934 232.123, 470.739 228.708 C 470.545 225.294, 470.387 228.350, 470.389 235.500 M 44.382 235.500 C 44.384 242.100, 44.546 244.670, 44.741 241.211 C 44.937 237.752, 44.936 232.352, 44.738 229.211 C 44.540 226.070, 44.380 228.900, 44.382 235.500 M 468.237 256.500 C 467.542 260.900, 466.688 265.625, 466.339 267 C 465.990 268.375, 465.989 269.245, 466.337 268.932 C 467.342 268.029, 470.175 253.254, 469.821 250.761 C 469.644 249.517, 468.932 252.100, 468.237 256.500 M 48.091 266.568 C 47.959 268.117, 51.063 278.270, 51.527 277.806 C 51.742 277.591, 51.078 274.734, 50.050 271.458 C 49.023 268.181, 48.141 265.981, 48.091 266.568 M 463.699 275 C 457.330 296.744, 437.181 323.921, 418.250 336.301 C 414.262 338.909, 411.007 341.595, 411.015 342.271 C 411.026 343.114, 411.261 343.159, 411.765 342.414 C 412.169 341.817, 415.200 339.616, 418.500 337.523 C 430.586 329.859, 446.921 311.773, 455.316 296.763 C 459.640 289.031, 466.284 272.336, 465.706 270.654 C 465.488 270.019, 464.585 271.975, 463.699 275 M 52.534 281 C 57.296 297.969, 82.078 329.383, 97.623 338.156 C 100.513 339.787, 103.077 341.882, 103.322 342.811 C 103.732 344.363, 103.777 344.359, 103.884 342.771 C 103.958 341.666, 101.387 339.329, 96.750 336.289 C 81.921 326.565, 67.047 308.908, 57.336 289.500 C 54.309 283.450, 52.148 279.625, 52.534 281 M 413.320 359 C 413.320 362.575, 413.502 364.038, 413.723 362.250 C 413.945 360.462, 413.945 357.538, 413.723 355.750 C 413.502 353.962, 413.320 355.425, 413.320 359 M 101.479 370 C 102.386 418.011, 131.771 462.301, 167.500 469.511 C 169.150 469.843, 166.450 468.386, 161.500 466.273 C 124.757 450.582, 104.395 417.637, 101.998 370 L 101.167 353.500 101.479 370 M 412.639 379.250 C 409.616 421.884, 381.772 459.258, 345.844 468.906 C 341.805 469.991, 339.431 470.906, 340.568 470.939 C 362.856 471.593, 397.115 439.638, 407.897 408.139 C 411.680 397.085, 415.871 370, 413.797 370 C 413.521 370, 413 374.163, 412.639 379.250 M 306.750 473.732 C 309.087 473.943, 312.913 473.943, 315.250 473.732 C 317.587 473.522, 315.675 473.349, 311 473.349 C 306.325 473.349, 304.413 473.522, 306.750 473.732 M 200.750 474.723 C 202.537 474.945, 205.463 474.945, 207.250 474.723 C 209.037 474.502, 207.575 474.320, 204 474.320 C 200.425 474.320, 198.963 474.502, 200.750 474.723 M 252.776 474.733 C 255.128 474.945, 258.728 474.942, 260.776 474.727 C 262.824 474.512, 260.900 474.339, 256.500 474.343 C 252.100 474.346, 250.424 474.522, 252.776 474.733 M 279.250 474.739 C 282.413 474.937, 287.587 474.937, 290.750 474.739 C 293.913 474.541, 291.325 474.378, 285 474.378 C 278.675 474.378, 276.087 474.541, 279.250 474.739 M 221.750 475.743 C 225.738 475.932, 232.262 475.932, 236.250 475.743 C 240.238 475.553, 236.975 475.397, 229 475.397 C 221.025 475.397, 217.762 475.553, 221.750 475.743" stroke="none" fill="#ddcadd" fill-rule="evenodd"/><path d="M 319.750 87.723 C 321.538 87.945, 324.462 87.945, 326.250 87.723 C 328.038 87.502, 326.575 87.320, 323 87.320 C 319.425 87.320, 317.962 87.502, 319.750 87.723 M 202 90.077 C 204.475 91.195, 208.955 94.673, 211.957 97.805 C 216.655 102.708, 216.921 102.874, 213.872 99 C 210.049 94.141, 201.788 87.986, 199.137 88.022 C 198.237 88.034, 199.525 88.959, 202 90.077 M 310 89.961 C 308.075 90.991, 304.700 93.784, 302.501 96.167 L 298.502 100.500 303.001 96.303 C 305.475 93.995, 309.525 91.192, 312 90.075 C 314.475 88.958, 315.825 88.054, 315 88.066 C 314.175 88.078, 311.925 88.931, 310 89.961 M 173.873 91.866 C 168.008 95.585, 157.987 107.994, 158.016 111.500 C 158.020 112.050, 159.181 110.476, 160.595 108.001 C 164.823 100.605, 169.881 95.109, 175.345 91.976 C 178.180 90.349, 180.026 89.015, 179.446 89.009 C 178.866 89.004, 176.358 90.290, 173.873 91.866 M 338.624 91.958 C 341.442 93.574, 345.427 96.832, 347.479 99.198 C 349.532 101.564, 350.307 102.150, 349.203 100.500 C 345.941 95.625, 337.456 88.996, 334.500 89.013 C 333.950 89.016, 335.806 90.341, 338.624 91.958 M 324.891 99.972 C 316.279 104.579, 318.155 115.524, 328.390 120.381 C 342.572 127.110, 349.126 110.321, 336 100.887 C 332.123 98.101, 328.888 97.834, 324.891 99.972 M 173.923 102.923 C 170.125 106.721, 169.849 112.570, 173.314 115.826 C 181.097 123.137, 194.605 111.124, 188.018 102.750 C 184.852 98.725, 178.037 98.809, 173.923 102.923 M 355.096 111 C 355.060 111.275, 355.939 114.200, 357.050 117.500 C 358.161 120.800, 358.850 122.085, 358.581 120.356 C 358.141 117.522, 355.259 109.785, 355.096 111 M 225.208 118.468 C 226.962 122.025, 228.563 124.771, 228.764 124.569 C 229.211 124.122, 223.165 112, 222.495 112 C 222.233 112, 223.454 114.911, 225.208 118.468 M 152.374 145.500 C 152.376 151.550, 152.541 153.896, 152.740 150.713 C 152.939 147.531, 152.937 142.581, 152.736 139.713 C 152.535 136.846, 152.372 139.450, 152.374 145.500 M 361.343 145.500 C 361.346 149.900, 361.522 151.576, 361.733 149.224 C 361.945 146.872, 361.942 143.272, 361.727 141.224 C 361.512 139.176, 361.339 141.100, 361.343 145.500 M 274.320 170 C 274.320 173.575, 274.502 175.037, 274.723 173.250 C 274.945 171.463, 274.945 168.537, 274.723 166.750 C 274.502 164.963, 274.320 166.425, 274.320 170 M 110.500 194.392 C 112.700 195.085, 115.513 196.195, 116.750 196.861 C 117.987 197.526, 119 197.808, 119 197.486 C 119 196.531, 110.665 193.040, 108.500 193.089 C 107.400 193.114, 108.300 193.700, 110.500 194.392 M 397.410 195.954 C 390.474 199.421, 381.855 206.843, 377.188 213.369 C 372.497 219.928, 373.812 219.116, 379.276 212.080 C 384.840 204.915, 392.943 198.622, 400.726 195.422 C 403.902 194.116, 405.784 193.037, 404.910 193.024 C 404.035 193.011, 400.660 194.329, 397.410 195.954 M 86.425 196.919 C 82.951 199.473, 78.032 205.375, 75.521 210 C 74.471 211.933, 75.369 210.974, 81.484 203.622 C 84.174 200.388, 87.752 196.903, 89.437 195.875 C 91.122 194.848, 92.026 194.006, 91.447 194.004 C 90.868 194.002, 88.608 195.314, 86.425 196.919 M 130.117 207.660 C 138.093 216.079, 143.331 224.391, 148.202 236.362 C 149.800 240.288, 150.833 242.150, 150.499 240.500 C 148.485 230.558, 134.772 209.028, 126.335 202.560 C 123.912 200.703, 125.305 202.581, 130.117 207.660 M 412.947 202.556 C 408.072 207.745, 410.568 216.257, 418.187 220.431 C 422.883 223.003, 427.560 221.297, 429.672 216.242 C 433.787 206.395, 419.966 195.085, 412.947 202.556 M 86.217 205.561 C 80.512 209.557, 79.009 218.891, 83.456 222.716 C 88.075 226.689, 94.051 224.669, 97.520 217.961 C 102.181 208.948, 94.076 200.056, 86.217 205.561 M 259.500 225.065 C 285.361 227.518, 297.530 236.825, 320.213 271.500 C 328.151 283.635, 334.461 290.996, 347.174 302.953 C 358.385 313.497, 366.592 324.947, 371.646 337.094 C 373.570 341.717, 374.866 344.150, 374.526 342.500 C 372.270 331.545, 357.265 309.394, 345.627 299.836 C 336.925 292.690, 329.085 283.402, 319.595 269 C 297.518 235.493, 284.488 225.796, 259.960 224.619 L 249.500 224.117 259.500 225.065 M 240.618 226.112 C 227.296 229.240, 212.737 242.477, 197.546 265.275 C 186.714 281.531, 177.307 292.948, 168.685 300.304 C 155.222 311.790, 137.845 339.835, 138.033 349.773 C 138.051 350.723, 138.862 349.250, 139.835 346.500 C 141.883 340.714, 169.588 301.302, 177.444 293 C 185.005 285.009, 189.483 279.137, 199.463 264.124 C 214.651 241.275, 228.014 229.905, 243.716 226.470 C 246.897 225.774, 248.375 225.204, 247 225.203 C 245.625 225.202, 242.753 225.611, 240.618 226.112 M 229.817 236.532 C 211.557 246.040, 221.356 268.874, 242.756 266.682 C 257.024 265.220, 265.389 252.710, 259.050 242.314 C 254.406 234.698, 239.138 231.678, 229.817 236.532 M 264.364 265.148 C 257.173 268.704, 259.661 281, 267.573 281 C 272.256 281, 275 278.085, 275 273.111 C 275 266.660, 269.553 262.582, 264.364 265.148 M 357.390 328.426 C 356.480 330.797, 357.767 333.191, 359.747 332.810 C 360.854 332.597, 361.500 331.561, 361.500 330 C 361.500 327.149, 358.344 325.941, 357.390 328.426" stroke="none" fill="#c0ffb6" fill-rule="evenodd"/><path d="M 180.882 89.381 C 169.004 93.625, 160.632 103.949, 155.930 120.148 C 153.928 127.045, 151.774 164.234, 153.610 160.193 C 153.951 159.444, 156.059 162.645, 158.551 167.693 C 184.009 219.281, 223.301 209.838, 230.892 150.307 L 232.732 135.878 229.818 128.718 C 216.366 95.661, 200.037 82.536, 180.882 89.381 M 311.480 90.296 C 298.212 96.637, 277.368 133.334, 280.057 145.617 C 280.525 147.753, 281.549 153.550, 282.333 158.500 C 291.056 213.546, 334.905 214.794, 357.067 160.627 C 359.211 155.386, 359.549 155.010, 360.209 157.127 C 362.146 163.344, 360.103 129.170, 358.079 121.500 C 351.095 95.028, 330.473 81.219, 311.480 90.296 M 324.891 99.972 C 316.279 104.579, 318.155 115.524, 328.390 120.381 C 342.572 127.110, 349.126 110.321, 336 100.887 C 332.123 98.101, 328.888 97.834, 324.891 99.972 M 173.923 102.923 C 170.125 106.721, 169.849 112.570, 173.314 115.826 C 181.097 123.137, 194.605 111.124, 188.018 102.750 C 184.852 98.725, 178.037 98.809, 173.923 102.923 M 92.637 194.404 C 82.617 198.135, 70.577 216.990, 71.116 228.108 C 71.205 229.944, 71.342 230.073, 71.706 228.661 C 71.990 227.561, 73.571 230.966, 75.641 237.137 C 92.361 286.973, 132.905 306.751, 149.639 273.234 C 165.362 241.741, 122.967 183.111, 92.637 194.404 M 400.726 195.422 C 383.561 202.480, 368.525 222.446, 362.634 246 C 360.204 255.716, 358.505 272.424, 360.044 271.473 C 360.515 271.182, 361.442 271.957, 362.105 273.196 C 380.227 307.057, 420.496 286.619, 438.425 234.461 L 441.848 224.500 442.113 232 C 442.378 239.484, 442.379 239.487, 442.745 233.547 C 444.435 206.123, 422.687 186.391, 400.726 195.422 M 412.947 202.556 C 408.072 207.745, 410.568 216.257, 418.187 220.431 C 422.883 223.003, 427.560 221.297, 429.672 216.242 C 433.787 206.395, 419.966 195.085, 412.947 202.556 M 86.217 205.561 C 80.512 209.557, 79.009 218.891, 83.456 222.716 C 88.075 226.689, 94.051 224.669, 97.520 217.961 C 102.181 208.948, 94.076 200.056, 86.217 205.561 M 243.716 226.404 C 227.833 230.061, 214.619 241.323, 199.463 264.124 C 189.483 279.137, 185.005 285.009, 177.444 293 C 156.406 315.233, 123.731 373.701, 136.887 365.570 C 137.375 365.268, 139.601 367.379, 141.834 370.261 C 165.437 400.714, 192.566 410.900, 221 399.984 C 249.999 388.851, 261.368 388.513, 290.325 397.923 C 315.946 406.249, 323.849 407.199, 339.500 403.833 C 356.371 400.204, 368.568 385.908, 373.483 364 C 374.408 359.875, 375.567 355.491, 376.057 354.258 C 376.991 351.913, 372.982 338.869, 368.756 330.500 C 364.412 321.896, 356.246 311.485, 347.084 302.868 C 334.462 290.997, 328.138 283.615, 320.213 271.500 C 294.383 232.013, 273.309 219.590, 243.716 226.404 M 229.817 236.532 C 211.557 246.040, 221.356 268.874, 242.756 266.682 C 257.024 265.220, 265.389 252.710, 259.050 242.314 C 254.406 234.698, 239.138 231.678, 229.817 236.532 M 264.364 265.148 C 257.173 268.704, 259.661 281, 267.573 281 C 272.256 281, 275 278.085, 275 273.111 C 275 266.660, 269.553 262.582, 264.364 265.148 M 357.390 328.426 C 356.480 330.797, 357.767 333.191, 359.747 332.810 C 360.854 332.597, 361.500 331.561, 361.500 330 C 361.500 327.149, 358.344 325.941, 357.390 328.426" stroke="none" fill="#98ff88" fill-rule="evenodd"/><path d="M 230.799 150.853 C 223.555 209.852, 183.877 218.982, 158.452 167.500 C 153.631 157.739, 152.926 158.481, 155.915 170.169 C 169.038 221.480, 212.859 237.299, 232.329 197.755 C 239.490 183.210, 239.749 144.415, 232.731 137.398 C 232.594 137.260, 231.724 143.315, 230.799 150.853 M 277.199 154.008 C 262.948 227.414, 337.279 245.414, 356.886 173.304 C 359.315 164.372, 360.659 153.155, 358.839 157 C 346.739 182.577, 337.373 193.331, 322.243 199.021 C 302.627 206.399, 287.330 190.701, 282.269 158 C 279.672 141.219, 279.680 141.226, 277.199 154.008 M 438.604 233.750 C 421.611 286.702, 384.824 305.477, 361.703 273 L 359.923 270.500 360.522 274.500 C 368.800 329.793, 438.818 296.385, 441.739 235.750 C 442.365 222.749, 442.174 222.626, 438.604 233.750 M 71.626 229.355 C 68.028 243.690, 83.291 278.523, 99.374 292.680 C 123.296 313.737, 154.076 299.531, 153.933 267.500 L 153.915 263.500 151.628 269 C 135.600 307.544, 93.327 289.850, 75.664 237.206 C 72.974 229.188, 72.096 227.481, 71.626 229.355 M 375.691 355 C 375.346 356.375, 374.325 360.650, 373.422 364.500 C 368.339 386.165, 356.200 400.241, 339.500 403.833 C 323.849 407.199, 315.946 406.249, 290.325 397.923 C 261.368 388.513, 249.999 388.851, 221 399.984 C 192.545 410.908, 165.438 400.717, 141.792 370.206 C 136.212 363.007, 135.244 364.218, 136.791 376.464 C 142.613 422.560, 193.487 444.620, 230.500 417.097 C 254.713 399.092, 257.167 398.964, 280 414.500 C 306.833 432.758, 321.455 434.614, 344.500 422.687 C 365.774 411.676, 378.043 391.970, 377.928 369 C 377.875 358.644, 376.669 351.096, 375.691 355" stroke="none" fill="#4fff31" fill-rule="evenodd"/><path d="M 181 52.012 C 146.903 57.898, 121.016 101.364, 121.003 152.750 C 121.001 160.330, 120.599 166, 120.062 166 C 119.546 166, 116.059 165.279, 112.312 164.397 C 73.632 155.297, 43.486 188.822, 45.227 239 C 46.121 264.790, 69.549 308.009, 96.929 334.378 L 104.071 341.256 103.035 348.700 C 102.466 352.795, 102 360.299, 102 365.377 L 102 374.609 110.070 387.554 C 134.757 427.157, 158.217 444.515, 194.462 449.997 C 206.429 451.807, 207.410 451.603, 245.603 439.387 L 256.706 435.836 265.603 438.817 C 303.305 451.448, 311.223 452.637, 328.031 448.188 C 363.591 438.774, 381.857 423.131, 407.817 379.861 C 413.580 370.256, 414.360 364.186, 411.965 347.611 L 410.969 340.721 420.246 331.111 C 450.261 300.019, 470.781 258.298, 469.729 230.504 C 467.977 184.240, 439.831 156.399, 403 164.500 C 399.425 165.286, 395.938 165.946, 395.250 165.965 C 394.308 165.991, 394 162.562, 394 152.051 C 394 72.290, 336.414 26.282, 286.397 66.082 C 275.730 74.570, 259 100.114, 259 107.913 C 259 110.881, 256.605 107.941, 253.946 101.708 C 238.881 66.394, 210.337 46.948, 181 52.012 M 180.332 88.785 C 144.197 101.733, 142.294 176.537, 177.221 211.139 C 187.614 221.436, 205.860 224.220, 215.935 217.046 C 217.516 215.921, 219.267 215, 219.827 215 C 220.387 215, 222.832 212.728, 225.261 209.952 C 259.191 171.164, 222.979 73.504, 180.332 88.785 M 314.994 87.875 C 290.678 95.848, 267.223 156.381, 276.412 187.448 C 287.906 226.311, 324.262 232.922, 345.750 200.057 C 377.833 150.986, 356.774 74.175, 314.994 87.875 M 92.837 193.512 C 71.171 200.471, 64.331 234.040, 78.382 264.452 C 95.429 301.347, 124.329 315.180, 143.449 295.596 C 174.746 263.540, 133.543 180.437, 92.837 193.512 M 402.214 193.830 C 372.131 204.570, 349.601 256.181, 362.739 284.256 C 378.918 318.830, 417.540 307.047, 436.620 261.716 C 453.462 221.701, 433.649 182.607, 402.214 193.830 M 243.763 225.465 C 227.664 228.820, 213.986 240.602, 197.546 265.275 C 186.714 281.531, 177.307 292.948, 168.685 300.304 C 129.902 333.393, 124.499 390.845, 157.806 416.003 C 159.624 417.376, 162.099 419.332, 163.306 420.349 C 180.868 435.148, 210.225 434.624, 229.808 419.161 C 234.384 415.548, 250.402 405.848, 254.637 404.127 C 258.965 402.367, 263.713 404.782, 286.419 420.287 C 359.096 469.920, 414.783 356.632, 345.627 299.836 C 336.925 292.690, 329.085 283.402, 319.595 269 C 294.440 230.821, 274.098 219.143, 243.763 225.465" stroke="none" fill="#faf7f8" fill-rule="evenodd"/></svg>
