<svg xmlns="http://www.w3.org/2000/svg" width="512" height="512"><path fill="#ff80a2" fill-rule="evenodd" d="M224.985 114c-.893 76.224-54.548 95.725-86.673 31.5l-5.502-11 .651 5.413c.913 7.59 6.048 23.118 10.776 32.587 34.534 69.16 103.333 28.827 85.288-50-3.46-15.113-4.441-16.951-4.54-8.5m53.996 13.32c-10.496 48.159 15.727 87.584 52.019 78.211 23.337-6.028 42.387-37.274 46.354-76.031l.511-5-2.366 6.75c-26.057 74.304-92.105 66.847-92.481-10.441-.035-7.126-1.624-4.562-4.037 6.511m190.727 96.397c-19.568 60.812-64.692 85.54-88.902 48.718-4.938-7.512-4.911-7.508-3.645-.435 11.952 66.811 98.692 21.671 96.621-50.283l-.282-9.783zm-434.296-7.349c-4.904 12.781 10.305 52.754 27.239 71.588 28.069 31.22 67.933 19.031 69.97-21.395.387-7.684.342-7.897-.972-4.55-11.31 28.804-26.527 35.421-50.271 21.862-19.311-11.027-31.306-27.504-40.914-56.202-2.953-8.819-4.595-12.494-5.052-11.303m359.255 151.809c-5.989 50.958-40.099 69.699-94.167 51.739-39.825-13.23-54.592-13.219-87 .059-22.886 9.377-31.91 9.301-52.22-.439-20.132-9.654-30.266-18.271-47.091-40.045l-2.311-2.991.44 11c1.06 26.488 14.27 46.381 39.792 59.923 24.825 13.171 47.285 11.092 71.39-6.611C235.981 431.647 251.591 423 255.657 423c3.033 0 16.694 7.768 30.843 17.538 51.165 35.331 113.556 1.484 111.262-60.358-.557-15.019-2.057-20.835-3.095-12.003M66.36 382c0 5.225.169 7.363.375 4.75s.206-6.887 0-9.5-.375-.475-.375 4.75"/><path fill="#e1c8e1" fill-rule="evenodd" d="M171.28 6.736c2.629.207 6.679.204 9-.005 2.321-.21.17-.379-4.78-.376s-6.849.175-4.22.381m160 0c2.629.207 6.679.204 9-.005 2.321-.21.17-.379-4.78-.376s-6.849.175-4.22.381M270.179 44.75c-4.683 6.912-10.183 16.558-10.168 17.831.007.505 1.633-1.993 3.614-5.553s5.368-9.072 7.526-12.25S274.85 39 274.575 39s-2.254 2.587-4.396 5.75m-28.606 2.092c4.031 6.375 10.905 20.065 12.758 25.408.992 2.863 2.085 2.028 3.88-2.964 2.191-6.095 1.546-6.834-.741-.847l-1.741 4.56-3.287-7.561c-3.591-8.26-10.063-19.601-13.398-23.479-1.163-1.352-.025.845 2.529 4.883M418.355 130.5c-.003 4.95.166 7.101.376 4.78.209-2.321.212-6.371.005-9-.206-2.629-.378-.73-.381 4.22M76 138.72c1.925.219 6.391 1.059 9.924 1.866 4.902 1.118 6.679 1.188 7.5.293.777-.846.752-.99-.091-.518-.642.36-4.017-.017-7.5-.838-3.483-.822-7.908-1.428-9.833-1.348l-3.5.145zm-37.724 8.18c-3.319 2.145-6.391 4.508-6.827 5.25-.45.766.038.626 1.129-.325 1.057-.921 4.596-3.284 7.863-5.25S45.916 143 45.346 143s-3.751 1.755-7.07 3.9M3.392 225c0 7.425.157 10.463.35 6.75s.192-9.787 0-13.5c-.193-3.713-.35-.675-.35 6.75m503.323 10.757c-2.918 24.638-34.351 78.793-61.48 105.922-9.92 9.92-10.008 10.426-.858 4.943 25.688-15.396 50.516-51.092 59.115-84.993 2.329-9.18 5.168-29.302 4.262-30.208-.258-.259-.726 1.693-1.039 4.336M4.054 242.14c-1.048 32.06 35.467 91.269 65.377 106.009 3.877 1.911 3.751 1.707-2.666-4.322C42.874 321.382 15.623 278.12 6.403 248c-1.263-4.125-2.32-6.762-2.349-5.86M440 377.396v8.396l-6.092 9.854c-33.306 53.872-51.909 69.67-95.939 81.469-18.976 5.085-27.118 3.911-67.969-9.803-16.854-5.658-12.003-6.348-55.5 7.899-21.251 6.961-36.763 5.89-63.186-4.361-31.014-12.032-46.179-26.872-76.128-74.491l-4.313-6.859.519 8.075c3.322 51.712 40.365 96.923 87.108 106.314 36.055 7.244 171.109 6.012 201.815-1.842 37.428-9.572 69.149-46.554 77.631-90.503 2.004-10.386 4.053-42.544 2.71-42.544-.361 0-.656 3.778-.656 8.396M70.355 380.5c-.003 4.95.166 7.101.376 4.78.209-2.321.212-6.371.005-9-.206-2.629-.378-.73-.381 4.22"/><path fill="#fecfdb" fill-rule="evenodd" d="M336.222 65.123C331.058 67.49 329 70.382 329 75.272c0 13.294 20.943 22.474 26.547 11.637 5.899-11.407-7.938-27.006-19.325-21.786M160.03 66.279c-3.56 1.802-7.03 7.451-7.03 11.446 0 10.008 15.669 12.618 20.434 3.403 5.413-10.468-3.201-20.011-13.404-14.849M49.149 184.528c-4.385 4.797-11.266 13.73-8.453 10.972 2.336-2.289 14.342-16.5 13.941-16.5-.24 0-2.71 2.487-5.488 5.528m390.372 1.86c-5.476 5.476-3.305 16.11 4.242 20.774 14.835 9.169 22.692-11.097 8.496-21.912-2.886-2.199-10.041-1.559-12.738 1.138M56 188.704c-5.433 1.976-10.644 11.05-9.586 16.689 1.896 10.105 14.811 9.808 20.122-.462 4.623-8.94-2.102-19.296-10.536-16.227m168.5 37.751c-26.557 12.936-8.3 44.494 20.215 34.942 17.356-5.814 21.053-25.943 6.085-33.131-10.538-5.061-18.503-5.609-26.3-1.811m71.5-.18c0 .151 3.488 3.639 7.75 7.75l7.75 7.475-7.475-7.75c-6.943-7.198-8.025-8.206-8.025-7.475m-34.479 36.113c-3.246 3.247-4.135 8.523-2.099 12.461 5.734 11.088 21.355 2.685 16.555-8.905-2.564-6.19-9.995-8.017-14.456-3.556M170.4 281.75c-2.113 2.613-7.454 8.607-11.871 13.321-13.528 14.44-43.633 58.046-43.446 62.929.032.825.668-.16 1.414-2.189s7.882-12.829 15.858-24 15.996-22.515 17.823-25.209 6.08-7.869 9.452-11.5 7.623-8.402 9.448-10.602 3.975-4.788 4.776-5.75 1.215-1.75.921-1.75-2.263 2.137-4.375 4.75m203.011 53.621c-1.112 2.897.021 5.129 2.603 5.129 2.096 0 2.486-.471 2.486-3 0-3.355-3.98-5.019-5.089-2.129M111.343 384.5c.003 4.4.179 6.076.39 3.724s.209-5.952-.006-8-.388-.124-.384 4.276"/><path fill="#ffb4c8" fill-rule="evenodd" d="M166.271 52.54c-21.736 5.854-34.592 30.97-34.229 66.873.072 7.198.126 14.212.119 15.587s.221 1.923.507 1.218 2.911 3.569 5.833 9.5c14.823 30.081 44.164 47.374 61.136 36.032 17.905-11.966 31.3-62.257 22.44-84.25-14.897-36.978-32.572-51.218-55.806-44.96m158.229-.667c-11.896 3.168-22.587 15.032-33.005 36.627-5.98 12.395-10.637 26.225-9.541 28.335.475.916 1.411 6.615 2.078 12.665 7.788 70.557 70.495 72.278 91.112 2.5 1.326-4.489 1.331-4.492 1.977-1.5.356 1.65.505-4.425.332-13.5-.86-45.049-23.551-72.957-52.953-65.127m11.722 13.25C331.058 67.49 329 70.382 329 75.272c0 13.294 20.943 22.474 26.547 11.637 5.899-11.407-7.938-27.006-19.325-21.786M160.03 66.279c-3.56 1.802-7.03 7.451-7.03 11.446 0 10.008 15.669 12.618 20.434 3.403 5.413-10.468-3.201-20.011-13.404-14.849M63.5 176.357C55.466 178.4 43.113 189.677 39.792 198c-2.675 6.706-5.602 19.144-4.167 17.708.344-.343 2.557 5.148 4.919 12.202 15.039 44.918 48.791 72.345 73.381 59.629 5.838-3.019 17.603-20.771 18.217-27.486.078-.854.502.247.942 2.447.638 3.192.712 2.73.369-2.286-3.357-49.062-38.956-91.737-69.953-83.857m367.5-.035c-26.573 6.035-49.843 39.622-54.225 78.266l-1.144 10.088 4.718 7.097c25.037 37.661 69.442 13.44 89.702-48.929l3.882-11.952-2.431-7.696c-6.516-20.622-22.203-31.031-40.502-26.874m8.521 10.066c-5.476 5.476-3.305 16.11 4.242 20.774 14.835 9.169 22.692-11.097 8.496-21.912-2.886-2.199-10.041-1.559-12.738 1.138M56 188.704c-5.433 1.976-10.644 11.05-9.586 16.689 1.896 10.105 14.811 9.808 20.122-.462 4.623-8.94-2.102-19.296-10.536-16.227m274.737 16.892c-.328.328-3.891.979-7.917 1.446l-7.32.849 7.693-.364c6.632-.314 14.757-2.4 9.724-2.497-.871-.016-1.852.238-2.18.566m-90.763 9.344c-21.177 4.469-38.64 19.938-57.824 51.222-5.867 9.566-13.496 19.401-22.452 28.94-3.409 3.631-7.694 8.806-9.523 11.5s-9.982 14.232-18.118 25.64c-15.261 21.399-15.879 22.624-18.52 36.758l-1.401 7.5 5.605 7.5c11.677 15.626 25.447 26.861 43.575 35.554 20.271 9.72 29.309 9.793 52.184.421 32.408-13.278 47.175-13.289 87-.059 54.08 17.964 88.178-.779 94.17-51.765.478-4.069.862-5.045 1.422-3.613.422 1.079.799 1.443.838.809.146-2.402-7.274-22.156-11.023-29.347-6.267-12.02-21.495-30.196-31.086-37.105-4.863-3.503-18.429-20.198-26.324-32.395-29.276-45.226-53.016-59.054-88.523-51.56M224.5 226.455c-26.557 12.936-8.3 44.494 20.215 34.942 17.356-5.814 21.053-25.943 6.085-33.131-10.538-5.061-18.503-5.609-26.3-1.811m37.021 35.933c-3.246 3.247-4.135 8.523-2.099 12.461 5.734 11.088 21.355 2.685 16.555-8.905-2.564-6.19-9.995-8.017-14.456-3.556m111.89 72.983c-1.112 2.897.021 5.129 2.603 5.129 2.096 0 2.486-.471 2.486-3 0-3.355-3.98-5.019-5.089-2.129m24.932 49.129c.003 4.4.179 6.076.39 3.724s.209-5.952-.006-8-.388-.124-.384 4.276"/><path fill="#ff80a2" fill-rule="evenodd" d="M224.985 114c-.893 76.224-54.548 95.725-86.673 31.5l-5.502-11 .651 5.413c.913 7.59 6.048 23.118 10.776 32.587 34.534 69.16 103.333 28.827 85.288-50-3.46-15.113-4.441-16.951-4.54-8.5m53.996 13.32c-10.496 48.159 15.727 87.584 52.019 78.211 23.337-6.028 42.387-37.274 46.354-76.031l.511-5-2.366 6.75c-26.057 74.304-92.105 66.847-92.481-10.441-.035-7.126-1.624-4.562-4.037 6.511m190.727 96.397c-19.568 60.812-64.692 85.54-88.902 48.718-4.938-7.512-4.911-7.508-3.645-.435 11.952 66.811 98.692 21.671 96.621-50.283l-.282-9.783zm-434.296-7.349c-4.904 12.781 10.305 52.754 27.239 71.588 28.069 31.22 67.933 19.031 69.97-21.395.387-7.684.342-7.897-.972-4.55-11.31 28.804-26.527 35.421-50.271 21.862-19.311-11.027-31.306-27.504-40.914-56.202-2.953-8.819-4.595-12.494-5.052-11.303m359.255 151.809c-5.989 50.958-40.099 69.699-94.167 51.739-39.825-13.23-54.592-13.219-87 .059-22.886 9.377-31.91 9.301-52.22-.439-20.132-9.654-30.266-18.271-47.091-40.045l-2.311-2.991.44 11c1.06 26.488 14.27 46.381 39.792 59.923 24.825 13.171 47.285 11.092 71.39-6.611C235.981 431.647 251.591 423 255.657 423c3.033 0 16.694 7.768 30.843 17.538 51.165 35.331 113.556 1.484 111.262-60.358-.557-15.019-2.057-20.835-3.095-12.003M66.36 382c0 5.225.169 7.363.375 4.75s.206-6.887 0-9.5-.375-.475-.375 4.75"/><path fill="#835484" fill-rule="evenodd" d="M157.216 4.019c-38.161 9.998-68.098 62.701-68.198 120.058L89 134.655l-13.499-.458C-18.77 131-29.169 288.628 61.326 349.059l5.925 3.956.21 28.243c.543 72.835 34.874 118.002 97.438 128.195l16.349 2.663 73.626-.389c94.041-.498 105.972-1.656 125.869-12.222 46.464-24.674 71.033-80.393 62.64-142.061l-.552-4.056 6.335-3.859c29.877-18.206 60.521-70.533 61.966-105.814l.131-3.215.737 3.5c.405 1.925.728-6.625.718-19s-.295-20.475-.633-18l-.615 4.5-.724-6.29c-5.198-45.157-33.232-72.113-73.878-71.036l-13.632.361-.618-5.914c-.34-3.253-.618-8.378-.618-11.389C422 5.323 311.625-39.539 260.482 51.583c-5.591 9.962-4.818 9.66-8.109 3.167-20.069-39.606-58.803-60.256-95.157-50.731m2.146 3.903c-39.044 10.563-71.148 71.446-67.146 127.336.349 4.874.172 5.687-1.152 5.288C-7.973 110.708-30.601 283.812 64.338 345c4.694 3.025 8.368 6.02 8.166 6.656-2.823 8.851-2.813 41.575.018 57.81 7.932 45.486 41.444 84.274 80.842 93.571 35.353 8.343 176.245 7.61 208.427-1.084 53.842-14.545 93.447-91.95 76.724-149.953-.286-.994 1.509-2.613 5.318-4.797 59.976-34.391 84.646-138.013 44.457-186.737-16.212-19.654-45.664-28.318-67.62-19.893-1.484.57-1.67-.363-1.67-8.36 0-125.91-112.064-174.231-159.549-68.797l-3.812 8.464-4.7-9.807C231.01 20.482 193.945-1.435 159.362 7.922M.428 226c0 12.375.143 17.438.319 11.25.175-6.187.175-16.312 0-22.5-.176-6.187-.319-1.125-.319 11.25"/><path fill="#efe3f0" fill-rule="evenodd" d="M243.377 53c3.513 6.875 7.677 15.757 9.255 19.738 3.52 8.882 3.678 8.894 6.242.451 2.412-7.94 5.577-15.114 10.672-24.189 5.026-8.951 2.664-6.338-3.412 3.774-2.734 4.551-6.017 11.189-7.295 14.753-2.842 7.925-3.069 7.868-7.293-1.849-3.28-7.547-9.733-19.073-12.975-23.178-.869-1.1 1.294 3.625 4.806 10.5M93.553 121.423c-.379 3.034-.586 8.682-.461 12.553.281 8.649.565 8.391-7.197 6.561-3.517-.829-7.745-1.475-9.395-1.435-1.808.043-.02.763 4.5 1.811 4.125.957 9.188 2.47 11.251 3.363l3.752 1.623-.641-14.7c-.352-8.084-.748-14.832-.88-14.995s-.55 2.186-.929 5.219M416.764 125c-1.094 9.672-1.175 19.521-.159 19.348.492-.083 5.845-1.361 11.895-2.839 8.427-2.06 12.52-2.568 17.5-2.174l6.5.514-5.758-1.039c-5.393-.973-17.654.317-26.459 2.785-2.19.613-2.221.471-2.5-11.237-.263-11.037-.334-11.408-1.019-5.358M6.501 248.483C7.765 254.248 21.188 284 22.525 284c.275 0-1.145-3.262-3.156-7.25s-5.876-12.65-8.589-19.25-4.639-10.657-4.279-9.017M375.343 262.5c.003 4.4.179 6.076.39 3.724s.209-5.952-.006-8-.388-.124-.384 4.276m-229.444 43.759c-13.412 13.188-22.317 26.233-27.814 40.741-2.393 6.316-2.595 7.585-.635 3.982 1.399-2.571 31.58-45.245 35.526-50.232 3.692-4.666 1.671-3.093-7.077 5.509m-103.802 9.109c1.872 2.677 4.891 6.502 6.709 8.5s.952.482-1.925-3.368c-6.349-8.496-9.494-11.87-4.784-5.132m16.916 20.647c3.974 4.408 7.734 8.321 8.356 8.697s-2.412-3.231-6.742-8.014c-4.33-4.784-8.09-8.698-8.356-8.698s2.768 3.607 6.742 8.015m11.901 11.313c2.407 2.643 2.411 2.681 1.249 13.411-.641 5.919-1.147 14.811-1.125 19.761l.042 9 8.21 13.235c22.766 36.698 39.176 53.294 64.071 64.796 20.665 9.548 46.881 14.783 57.639 11.509 1.375-.418-1.1-.549-5.5-.289-42.975 2.533-82.142-23.039-114.199-74.563l-9.526-15.311.66-13.689c.364-7.528 1.03-15.903 1.48-18.61.852-5.111.121-10.067-1.487-10.093-.51-.009-1.603-.419-2.428-.912-.825-.492-.414.297.914 1.755m365.975 4.113c-.336.338-.226 2.514.243 4.836.47 2.323 1.107 9.848 1.415 16.723l.561 12.5-10.804 17.255c-21.313 34.039-32.483 46.205-54.383 59.234-4.631 2.755-8.051 5.01-7.599 5.01 1.095.001 8.831-4.476 15.858-9.178 17.48-11.696 29.014-25.56 51.847-62.321l6.211-10-.624-13.5c-.645-13.948-1.662-21.627-2.725-20.559M239.5 466.026c-4.4 1.525-14.182 4.699-21.738 7.052-7.556 2.354-13.56 4.457-13.343 4.674s6.399-1.488 13.738-3.79c21.437-6.723 33.493-10.873 31.343-10.788-1.1.044-5.6 1.327-10 2.852m122.041 2.171c-1.077.625-6.252 2.607-11.5 4.405s-9.014 3.298-8.369 3.333c1.703.094 17.308-5.322 20.828-7.23 1.65-.894 2.55-1.629 2-1.635-.55-.005-1.882.502-2.959 1.127m-86.541.716c29.681 10.557 43.143 12.663 58.775 9.195 9.214-2.044 6.855-2.499-2.807-.541-12.296 2.491-20.655 1.645-37.468-3.793-12.097-3.912-26.397-7.67-18.5-4.861"/><path fill="#faf7f8" fill-rule="evenodd" d="M168.352 8.005c-7.369.796-12.584 2.191-17.199 4.598-1.459.762-3.061 1.387-3.559 1.391-.498.003-2.38 1.131-4.183 2.506s-3.685 2.5-4.184 2.5c-1.74 0-15.855 14.548-19.89 20.5-18.314 27.017-26.383 59.818-23.802 96.761l.682 9.761-4.473-1.918c-19.032-8.157-45.261-4.379-58.744 8.463-9.943 9.47-12.77 12.971-17.404 21.552C-6.433 214.905 3.364 262.677 45.103 318c9.814 13.008 24.976 29.242 26.895 28.796s2.839 4.246 1.917 9.782c-.45 2.707-1.116 11.082-1.48 18.61l-.66 13.689 9.526 15.311c37.426 60.152 85.268 85.428 132.699 70.106 19.159-6.188 35.201-11.168 38.288-11.883 1.886-.438 6.417.503 14 2.907 47.06 14.916 49.267 15.334 64.816 12.265 43.481-8.581 67.199-26.835 97.2-74.807l10.804-17.276-.561-12.5c-.308-6.875-.895-14.3-1.304-16.5-1.206-6.493-1.077-6.752 7.843-15.672 32.171-32.171 61.926-87.968 61.908-116.09-.015-23.391-8.416-51.57-17.946-60.194-1.126-1.02-2.048-2.431-2.048-3.136 0-1.605-12.065-11.923-16.331-13.967a218 218 0 0 1-6.669-3.378c-1.925-1.023-3.791-1.683-4.146-1.467s-1.859-.236-3.342-1.005c-5.774-2.996-17.051-2.914-29.254.212-13.446 3.444-11.951 4.804-10.974-9.985C419.084 89.417 391.078 19 371.413 19c-.606 0-1.88-.859-2.83-1.909-.95-1.049-3.158-2.439-4.905-3.088s-4.303-1.757-5.678-2.462c-35.254-18.073-86.945 15.133-99.951 64.209-1.495 5.642-2.122 5.388-4.957-2-17.741-46.24-47.998-69.714-84.74-65.745m-2.182 43.391c-32.085 8.148-45.59 65.002-26.802 112.834 30.924 78.733 109.525 45.345 91.66-38.935-11.283-53.227-35.884-81.257-64.858-73.899m158.33-.521c-18.853 5.01-37.55 35.18-46.248 74.625-17.098 77.534 53.812 116.215 87.995 48 29.518-58.908 3.713-134.708-41.747-122.625M62.951 175.303c-29.085 8.223-37.354 48.97-17.872 88.062 23.861 47.877 65.785 59.025 83.712 22.259 21.317-43.721-25.274-121.791-65.84-110.321m366.154.222c-37.631 10.52-65.568 73.874-48.485 109.953 18.06 38.143 62.805 24.518 86.029-26.197 21.077-46.028-.48-94.117-37.544-83.756M239.64 213.481c-21.159 4.421-36.314 17.96-58.787 52.519-7.095 10.911-24.075 32-25.766 32-6.388 0-31.003 33.067-37.517 50.4-28.083 74.728 44.933 138.756 106.37 93.275 28.481-21.083 33.811-21.074 62.554.116 30.678 22.616 63.011 19.931 91.728-7.616 35.821-34.363 24.784-99.298-23.238-136.715-5.251-4.092-17.603-19.486-26.446-32.96-29.093-44.328-53.601-58.393-88.898-51.019"/></svg>