<svg xmlns="http://www.w3.org/2000/svg" xmlns:xlink="http://www.w3.org/1999/xlink" xml:space="preserve" viewBox="0 0 167.5 167.5"><defs><path id="a" d="M3.75 3.75h160v160h-160z"/></defs><clipPath id="b"><use xlink:href="#a" overflow="visible"/></clipPath><g clip-path="url(#b)"><path fill="#FFF" d="M3.75 3.75h160v160h-160z"/><g transform="translate(-283.001 134)"><path fill="#A2AAAD" d="M371.633-89.707c-8.596 0-14.667 3.859-19.81 8.422l-.283-5.307a1.227 1.227 0 0 0-1.217-1.178h-16.4c-.68.004-1.229.56-1.224 1.24V-12.037a1.23 1.23 0 0 0 1.221 1.236h18.258a1.231 1.231 0 0 0 1.225-1.236v-51.36c6.662-7.678 9.619-8.926 14.025-8.926 6.132 0 12.679 4.229 12.679 16.1v44.186a1.23 1.23 0 0 0 1.221 1.236h18.26a1.231 1.231 0 0 0 1.221-1.236v-47.985c.001-19.485-14.675-29.685-29.176-29.685"/><linearGradient id="c" x1="59.434" x2="59.434" y1="340.505" y2="339.505" gradientTransform="matrix(160 0 0 -160 -9142.66 54350.5)" gradientUnits="userSpaceOnUse"><stop offset="0" style="stop-color:#afd135"/><stop offset="1" style="stop-color:#70ba44"/></linearGradient><path fill="url(#c)" d="M366.751-130.25c-44.162.05-79.95 35.838-80 80 .051 44.162 35.838 79.949 80 80 44.162-.051 79.949-35.838 80-80-.05-44.162-35.838-79.95-80-80zm-63.528 80c.04-35.069 28.459-63.487 63.528-63.527 35.065.043 63.479 28.459 63.521 63.525-.042 35.065-28.456 63.481-63.521 63.525-35.066-.043-63.483-28.459-63.524-63.525"/></g></g></svg>