<svg xmlns="http://www.w3.org/2000/svg" class="icon" viewBox="0 0 1050 1024"><path fill="#d81e06" d="M681.802 142.26a100.529 100.529 0 0 1-66.042 37.537 1221.89 1221.89 0 0 1-206.102 5.63l-4.487-3.372V0c-37.537 37.537-82.962 37.537-129.884 41.672v143.697H128.13A120.53 120.53 0 0 0 2.322 289.417a211.44 211.44 0 0 0-2.229 37.537v581.062a119.708 119.708 0 0 1 75.075-37.537 428.157 428.157 0 0 1 57.8-4.516h425.226a119.356 119.356 0 0 0 119.004-97.948 231.205 231.205 0 0 0 3.372-42.435V156.57zM477.987 817.927H130.388V309.681a64.517 64.517 0 0 1 72.816-72.816h72.846v265.37h-54.077a70.558 70.558 0 0 0-75.045 63.431 239.328 239.328 0 0 1 128.36-10.88v212.085c0 18.768 3.753 22.522 22.14 22.522h85.221c18.769 0 22.522-3.372 22.522-21.76V569.801c0-13.138 4.135-17.273 16.892-16.51a301.235 301.235 0 0 0 48.798 0 70.558 70.558 0 0 0 64.928-62.699c-40.91 23.285-85.045 7.889-129.034 13.52v-262.76h144.518v504.874a65.309 65.309 0 0 1-73.315 71.32zm572.441-299.534v-16.892h-67.45a93.843 93.843 0 0 0 66.834-90.91 201.996 201.996 0 0 0 0-20.528V103.608a127.157 127.157 0 0 1-70.206 33.784 581.268 581.268 0 0 1-67.185 7.888h-60.06a121.966 121.966 0 0 0-128.623 131.527V1024c27.039-34.898 64.928-34.135 102.465-37.537V855.846h88.974a124.283 124.283 0 0 0 134.9-135.134c.762-67.45.38-134.899.38-202.348zM946.82 734.583a64.194 64.194 0 0 1-70.587 70.588h-48.388V270.267a64.517 64.517 0 0 1 75.074-75.074h44.663v276.279c-75.074 7.126-94.224 20.528-101.731 61.584 15.777-2.933 31.906-7.126 48.417-8.622s34.546 0 53.696 0v17.596zm0 0"/></svg>