<?xml version="1.0" encoding="UTF-8" standalone="no"?>
<svg
   width="1080"
   height="739.83081"
   viewBox="0 0 101.25 69.359138"
   fill="#000000"
   version="1.1"
   id="svg1"
   xmlns="http://www.w3.org/2000/svg"
   xmlns:svg="http://www.w3.org/2000/svg">
  <defs
     id="defs1" />
  <path
     fill="#000000"
     d="M 98.316725,34.46671 C 94.038978,29.682721 86.622531,29.227103 81.74995,33.420476 l -2.826519,2.434181 A 10.462338,10.462338 0 0 1 84.298035,45.5956 10.517181,10.517181 0 0 1 74.160536,55.509509 10.504525,10.504525 0 0 1 63.343828,45.030296 C 63.62648,37.668692 69.292174,34.551084 73.962258,34.551084 L 62.381968,7.1127584 C 59.892944,1.2234745 53.037581,-1.55242 47.063924,0.88176105 45.815193,1.4217527 42.419152,2.8350121 40.524962,7.1422894 L 31.459009,28.2104 22.57024,7.1971324 C 20.10231,1.3078482 13.221635,-1.4680463 7.2479768,0.96613475 1.2447884,3.4003159 -1.5859491,10.141774 0.90307497,16.005745 L 20.444023,62.24253 c 2.489024,5.893503 9.344387,8.669397 15.318044,6.230998 1.843566,-0.818425 4.674303,-2.235903 6.538962,-6.25631 l 9.065953,-21.068111 8.892988,21.03858 a 11.64357,11.64357 0 0 0 6.935517,6.454588 11.938878,11.938878 0 0 0 11.83763,-2.151529 L 97.300022,50.721302 A 11.390449,11.390449 0 0 0 98.316725,34.46671"
     id="path1"
     style="fill:#fe8427;fill-opacity:1;stroke-width:4.21868" />
</svg>
