<svg xmlns="http://www.w3.org/2000/svg" viewBox="0 0 101.25 69.359"><path d="M98.317 34.467c-4.278-4.784-11.694-5.24-16.567-1.047l-2.827 2.435a10.462 10.462 0 0 1 5.375 9.74 10.517 10.517 0 0 1-10.137 9.915 10.505 10.505 0 0 1-10.817-10.48c.282-7.361 5.948-10.479 10.618-10.479L62.382 7.113c-2.49-5.89-9.344-8.665-15.318-6.231-1.249.54-4.645 1.953-6.539 6.26L31.459 28.21 22.57 7.197c-2.468-5.89-9.348-8.665-15.322-6.23C1.245 3.4-1.586 10.141.903 16.005l19.541 46.237c2.489 5.893 9.344 8.669 15.318 6.23 1.844-.818 4.674-2.235 6.539-6.256l9.066-21.068 8.893 21.039a11.644 11.644 0 0 0 6.935 6.454 11.939 11.939 0 0 0 11.838-2.151L97.3 50.72a11.39 11.39 0 0 0 1.017-16.254" style="fill:#fe8427;fill-opacity:1;stroke-width:4.21868"/></svg>