<svg xmlns="http://www.w3.org/2000/svg" fill="none" viewBox="0 0 24 24"><path fill="currentColor" d="M20.232 2.786h.982v18.428H9.767V8.779a1.316 1.316 0 0 0-2.632 0v13.75c0 .728.59 1.317 1.316 1.317h14.08c.726 0 1.316-.59 1.316-1.316V1.47c0-.727-.59-1.316-1.317-1.316h-2.298a1.316 1.316 0 0 0 0 2.632Z"/><path fill="#2FE1B9" d="M3.768 21.214h-.981V2.786h11.446v12.435a1.316 1.316 0 1 0 2.633 0V1.471c0-.728-.59-1.317-1.317-1.317H1.471C.744.154.154.744.154 1.47v21.06c0 .727.59 1.316 1.317 1.316h2.297a1.316 1.316 0 1 0 0-2.632Z"/></svg>