<?xml version="1.0" encoding="UTF-8"?>
<!-- Generator: Adobe Illustrator 24.0.0, SVG Export Plug-In . SVG Version: 6.00 Build 0)  -->
<svg version="1.1" id="Layer_1" xmlns="http://www.w3.org/2000/svg" xmlns:xlink="http://www.w3.org/1999/xlink" x="0px" y="0px" viewBox="0 0 1000 1000" style="enable-background:new 0 0 1000 1000;" xml:space="preserve">
<style type="text/css">
	.st0{fill-rule:evenodd;clip-rule:evenodd;fill:#0A0D11;}
	.st1{fill-rule:evenodd;clip-rule:evenodd;fill:#544B40;}
	.st2{fill:#E1D8C7;}
</style>
<path class="st0" d="M500,1000c276.1,0,500-223.9,500-500S776.1,0,500,0S0,223.9,0,500S223.9,1000,500,1000z"/>
<path class="st1" d="M500,984.4c267.5,0,484.4-216.9,484.4-484.4S767.5,15.6,500,15.6S15.6,232.5,15.6,500S232.5,984.4,500,984.4z   M1000,500c0,276.1-223.9,500-500,500S0,776.1,0,500S223.9,0,500,0S1000,223.9,1000,500z"/>
<path class="st2" d="M436.5,462.5c-5.1-4.7-13.1,1.5-9.1,7.7l62.7,101.3c2.6,3.6,1.5,8.7-2.6,10.9c-1.5,1.1-2.9,1.5-4.4,1.5  c-2.6,0-5.1-1.5-6.6-3.6l-88.9-130.5c-4-5.5-12.8-1.1-10.6,5.5l66,180.1c1.1,3.6,0,7.7-3.6,9.5c-1.5,0.7-2.9,1.5-4.4,1.5  c-3.3,0-6.2-2.2-7.3-5.5L344,459.5c-2.9-6.6-12.8-4-11.7,3.3l39.4,220.9c0.4,3.6-1.5,7.3-4.4,8.7c-5.9,2.4-14.1,5.2-16-4L306,484  c-1.5-6.9-11.7-5.8-12,1.1l2.6,224.2c0,4-2.9,7.3-6.9,8c-3.6,0.7-7.7,1.1-11.7,1.5c-4.7,0.4-8.7-3.3-9.1-7.7l-4.7-200.9  c-0.4-7.7-10.6-8.4-12-1.1L212,708.9c-0.7,4.4-4.7,7.3-9.1,6.6c-8.4-1.1-16.4-2.9-24.8-4.7c-4.4-1.1-6.9-5.5-5.8-9.8l75.8-364.2  c4.7-24.1,25.9-41.6,51-41.6c14.6,0,27.7,5.8,37.2,14.9l227.5,227.5c5.1,4.7,13.1-1.5,9.1-7.7l-62.7-101.3  c-2.6-3.6-1.5-8.7,2.6-10.9c1.5-1.1,2.9-1.5,4.4-1.5c2.6,0,5.1,1.5,6.6,3.6l88.9,130.5c4,5.5,12.8,1.1,10.6-5.5l-66-180.1  c-1.1-3.6,0.4-7.7,3.6-9.5c1.5-0.7,2.9-1.5,4.4-1.5c3.3,0,6.2,2.2,7.3,5.5l83.8,181.2c2.9,6.6,12.8,4,11.7-3.3l-39.4-220.9  c-0.4-3.6,1.5-7.3,4.4-8.7c5.9-2.4,14.1-5.2,16,4L694.3,516c1.5,6.9,11.7,5.8,12-1.1l-2.6-224.2c0-4,2.9-7.3,6.9-8  c3.6-0.7,7.7-1.1,11.7-1.5c4.7-0.4,8.7,3.3,9.1,7.7l4.7,200.9c0.4,7.7,10.6,8.4,12,1.1l40.1-199.8c0.7-4.4,4.7-7.3,9.1-6.6  c8.4,1.1,16.4,2.9,24.8,4.7c4.4,1.1,6.9,5.5,5.8,9.8l-75.8,364.2c-4.7,24.1-25.9,41.6-51,41.6c-14.6,0-27.7-5.8-37.2-14.9  L436.5,462.5z"/>
</svg>