<svg xmlns="http://www.w3.org/2000/svg" xml:space="preserve" viewBox="0 0 113.892 51.849"><path d="M57.033 0C45.228 0 35.222 8.003 32.12 18.846c-2.696-5.751-8.536-9.78-15.264-9.78C7.605 9.065 0 16.67 0 25.921c0 9.252 7.605 16.861 16.857 16.861 6.728 0 12.568-4.032 15.264-9.784 3.1 10.844 13.107 18.85 24.912 18.85 11.718 0 21.673-7.885 24.853-18.607 2.745 5.622 8.514 9.541 15.146 9.541 9.251 0 16.86-7.609 16.86-16.86 0-9.252-7.609-16.858-16.86-16.858-6.632 0-12.4 3.917-15.146 9.538C78.706 7.883 68.751 0 57.033 0Zm0 9.895c8.912 0 16.03 7.116 16.03 16.027 0 8.912-7.118 16.031-16.03 16.031a15.954 15.954 0 0 1-16.027-16.03A15.951 15.951 0 0 1 57.033 9.894zm-40.176 9.066c3.904 0 6.965 3.057 6.965 6.961 0 3.905-3.06 6.966-6.965 6.966-3.904 0-6.962-3.061-6.962-6.966 0-3.904 3.058-6.961 6.962-6.961zm80.175 0c3.904 0 6.965 3.057 6.965 6.961 0 3.905-3.061 6.966-6.965 6.966-3.905 0-6.962-3.061-6.962-6.966 0-3.904 3.057-6.961 6.962-6.961z" style="color:#000;font-style:normal;font-variant:normal;font-weight:400;font-stretch:normal;font-size:medium;line-height:normal;font-family:sans-serif;text-indent:0;text-align:start;text-decoration:none;text-decoration-line:none;text-decoration-style:solid;text-decoration-color:#000;letter-spacing:normal;word-spacing:normal;text-transform:none;writing-mode:lr-tb;direction:ltr;baseline-shift:baseline;text-anchor:start;white-space:normal;clip-rule:nonzero;display:inline;overflow:visible;visibility:visible;opacity:1;isolation:auto;mix-blend-mode:normal;color-interpolation:sRGB;color-interpolation-filters:linearRGB;solid-color:#000;solid-opacity:1;fill:#0082c9;fill-opacity:1;fill-rule:nonzero;stroke:none;stroke-width:5.5659;stroke-linecap:butt;stroke-linejoin:miter;stroke-miterlimit:10;stroke-dasharray:none;stroke-dashoffset:0;stroke-opacity:1;color-rendering:auto;image-rendering:auto;shape-rendering:auto;text-rendering:auto;enable-background:accumulate"/></svg>