<?xml version="1.0" encoding="UTF-8" standalone="no"?>
<svg
   xmlns:dc="http://purl.org/dc/elements/1.1/"
   xmlns:cc="http://creativecommons.org/ns#"
   xmlns:rdf="http://www.w3.org/1999/02/22-rdf-syntax-ns#"
   xmlns:svg="http://www.w3.org/2000/svg"
   xmlns="http://www.w3.org/2000/svg"
   id="svg8"
   version="1.1"
   viewBox="0 0 600 200"
   height="200"
   width="600">
  <defs
     id="defs2" />
  <metadata
     id="metadata5">
    <rdf:RDF>
      <cc:Work
         rdf:about="">
        <dc:format>image/svg+xml</dc:format>
        <dc:type
           rdf:resource="http://purl.org/dc/dcmitype/StillImage" />
        <dc:title></dc:title>
      </cc:Work>
    </rdf:RDF>
  </metadata>
  <g
     transform="translate(0,-626.49998)"
     id="layer1">
    <rect
       y="626.5"
       x="0"
       height="200"
       width="600"
       id="rect80"
       style="opacity:1;vector-effect:none;fill:#e60012;fill-opacity:1;fill-rule:nonzero;stroke:none;stroke-width:15.00000095;stroke-miterlimit:4;stroke-dasharray:none;paint-order:stroke markers fill" />
    <path
       d="M 110.9662,789.5669 C 70.8232,789.5533 44.000009,761.10508 44.000009,726.61229 v 0 c 0,-34.49278 26.884385,-63.26737 66.904991,-63.17898 h 378.19 c 40.02061,-0.0884 66.90499,28.6862 66.90499,63.17898 v 0 c 0,34.49279 -26.82319,62.94101 -66.96618,62.95461 z m 0.12238,-110.61761 c -31.779868,0.0612 -51.287026,21.30216 -51.287026,47.58141 v 0 c 0,26.27245 19.38477,47.69021 51.287026,47.57462 h 377.82284 c 31.90226,0.10879 51.29383,-21.30217 51.29383,-47.57462 v 0 c 0,-26.27245 -19.50716,-47.51342 -51.28703,-47.57462 z m 398.14591,22.17927 c 2.8897,0 4.32435,0.9791 4.32435,2.9169 0,1.33266 -0.82952,2.33895 -2.20977,2.68572 l 2.26416,4.52152 h -2.74011 l -1.9378,-4.14756 h -1.20347 v 4.14756 h -2.46814 v -10.12414 z m -0.22438,-3.95718 c -5.04507,0 -9.13824,4.09317 -9.13824,9.13824 0,5.04507 4.09317,9.13824 9.13824,9.13824 5.04508,0 9.13825,-4.09317 9.13825,-9.13824 0,-5.04507 -4.09317,-9.13824 -9.13825,-9.13824 z m 7.39083,9.14504 c 0,4.07957 -3.31125,7.39083 -7.39083,7.39083 -4.07957,0 -7.39082,-3.31126 -7.39082,-7.39083 0,-4.07957 3.31125,-7.39083 7.39082,-7.39083 4.07958,0 7.39083,3.30446 7.39083,7.39083 z m -8.66909,-0.69353 h 1.20347 c 1.40745,0 2.08738,-0.42835 2.08738,-1.43465 0,-1.05389 -0.72752,-1.50944 -2.20977,-1.50944 h -1.08108 z M 301.19668,730.3655 c -0.0272,-3.46084 0.0476,-5.77259 1.18307,-7.74439 1.39386,-2.43414 3.95719,-3.59002 6.28254,-3.60362 h -0.007 c 2.32536,0.0136 4.88869,1.16948 6.28255,3.60362 1.13548,1.97859 1.18307,4.29035 1.15588,7.75119 z m 14.83604,11.90555 c 0,0 0.0136,0.17679 0.0136,2.39335 0,7.22085 -4.7527,8.82548 -7.39083,8.82548 -2.63812,0 -7.47241,-1.60463 -7.47241,-8.82548 0,-2.16217 0.0136,-8.15234 0.0136,-8.15234 0,0 33.63607,0.0136 33.63607,-0.007 0,-12.24552 -11.82396,-22.39006 -26.34724,-22.39006 -14.52328,0 -26.29284,9.92696 -26.29284,22.17248 0,12.24552 11.76956,22.16568 26.29284,22.16568 12.04834,0 22.22687,-6.87408 25.33415,-16.1959 z m 56.18252,-27.49632 c 6.6769,-0.19038 20.22108,4.18157 20.12589,19.81313 -0.0136,2.77411 -0.007,21.48575 -0.007,21.48575 h -17.73934 c 0,0 0,-23.46434 0,-25.93249 0,-3.44044 -3.29086,-7.26843 -8.15915,-7.26843 -4.86149,0 -8.47871,3.82799 -8.47871,7.26843 0,1.68623 0.0204,25.93249 0.0204,25.93249 h -17.72574 l 0.0136,-39.48347 17.71895,-0.0136 c 0,0 -0.0204,3.17526 0,4.15436 3.41324,-3.25686 8.33593,-5.78619 14.23091,-5.95618 z m -145.11041,0 c 6.6769,-0.19038 20.22109,4.18157 20.1259,19.81313 -0.0136,2.77411 -0.007,21.48575 -0.007,21.48575 h -17.73935 c 0,0 0,-23.46434 0,-25.93249 0,-3.44044 -3.29085,-7.26843 -8.15914,-7.26843 -4.86149,0 -8.47871,3.82799 -8.47871,7.26843 0,1.68623 0.0204,25.93249 0.0204,25.93249 h -17.72574 l -0.007,-39.48347 17.73934,-0.0136 c 0,0 -0.0204,3.17526 0,4.15436 3.41325,-3.25686 8.32913,-5.78619 14.23091,-5.95618 z m 203.72027,-18.0657 h 17.62376 v 59.37818 H 430.7979 c 0,0 -0.007,-1.9174 -0.007,-2.28456 -6.83328,4.29035 -14.54367,4.28355 -20.54744,1.48224 -1.61144,-0.74792 -12.21153,-5.83379 -12.21153,-19.57515 0,-10.42331 9.83178,-21.80532 22.70283,-20.67663 4.23595,0.37396 7.24804,1.9174 10.10374,3.52203 -0.0136,-9.13825 -0.0136,-21.84611 -0.0136,-21.84611 z m 0.12919,39.43587 c 0,0 0,-4.94989 0,-7.05767 0,-6.10576 -4.21556,-7.66279 -6.98967,-7.66279 -2.8421,0 -7.00327,1.55703 -7.00327,7.66279 0,2.02619 0.007,7.03727 0.007,7.03727 0,0 -0.007,4.92268 -0.007,7.02366 0,6.09896 4.16117,7.6968 6.99647,7.6968 2.78091,0 7.00327,-1.59784 7.00327,-7.6968 0,-2.53613 -0.007,-7.00326 -0.007,-7.00326 z m 56.57687,-0.11559 c 0,0 -0.007,5.96977 -0.007,8.36312 0,6.29614 -3.71921,8.89347 -7.29563,8.89347 -3.58323,0 -7.31604,-2.59733 -7.31604,-8.89347 0,-2.39335 0.007,-8.51271 0.007,-8.51271 0,0 0.0136,-5.84058 0.0136,-8.23393 0,-6.26895 3.73961,-8.84588 7.29564,-8.84588 3.56282,0 7.29563,2.57693 7.29563,8.84588 0,2.39335 -0.007,6.81968 0.0136,8.40392 z m -7.17325,-22.12489 c -14.41449,0 -26.09566,9.92697 -26.09566,22.17248 0,12.24552 11.68797,22.17248 26.09566,22.17248 14.41449,0 26.09567,-9.92696 26.09567,-22.17248 0,-12.24551 -11.68118,-22.17248 -26.09567,-22.17248 z m -312.95082,-5.07226 v -12.13673 h 17.89572 v 12.13673 z m 0.0408,47.25505 v -39.49027 l 17.85493,0.007 v 39.48347 z m 89.58062,0 0.007,-39.40868 h -9.70938 v -5.86098 l 9.71618,-0.007 -0.0136,-7.99596 h 17.86853 v 7.98916 h 9.66859 v 5.87458 h -9.66859 l 0.0136,39.40868 z m -162.244609,0 0.0068,-59.37818 h 18.500859 l 25.59252,41.40766 -0.0136,-41.40766 h 18.35808 v 59.37818 h -18.33089 l -25.7285,-41.40767 v 41.40767 z"
       style="fill:#ffffff;stroke-width:1"
       id="path29" />
  </g>
  <style
     type="text/css"
     id="style7">.logo{fill:#939598}</style>
</svg>
