<?xml version="1.0" encoding="UTF-8"?>
<svg 
    xmlns="http://www.w3.org/2000/svg" 
    viewBox="0 0 260 64" 
    fill="white">

  <path d="M48.15 37.892L35.1546 16.8821H25.7753L25.7713 47.016H35.0991V26.0034L48.153 47.016H57.458V16.8821H48.134L48.15 37.892ZM122.069 27.0192V24.0391H117.161V19.9821H108.092L108.1 24.0424H103.17V27.0192H108.096L108.092 47.016H117.176L117.161 27.0192L122.069 27.0192ZM62.639 47.016H71.697V26.9819L62.639 26.9739V47.016ZM62.617 23.0344H71.697V16.871H62.617V23.0344ZM221.415 25.6134C214.104 25.6134 208.169 30.645 208.169 36.857C208.169 43.073 214.104 48.104 221.415 48.104C228.729 48.104 234.653 43.073 234.653 36.857C234.653 30.645 228.729 25.6134 221.415 25.6134ZM225.044 41.074C225.044 44.269 223.158 45.584 221.343 45.584C219.529 45.584 217.636 44.269 217.636 41.074V36.755C217.636 36.755 217.64 33.7903 217.64 32.583C217.64 29.4036 219.532 28.0875 221.343 28.0875C223.15 28.0875 225.044 29.4036 225.044 32.583C225.044 33.7903 225.044 36.036 225.055 36.838C225.055 36.894 225.044 39.867 225.044 41.074ZM196.281 27.9676C194.834 27.1542 193.304 26.3672 191.156 26.1797C184.622 25.6094 179.639 31.3797 179.639 36.669C179.639 43.639 185.016 46.222 185.829 46.604C188.884 48.025 192.791 48.029 196.258 45.854C196.258 46.042 196.262 47.013 196.262 47.013H205.215V16.8821H196.281V27.9676ZM196.349 36.894V40.452C196.349 43.545 194.204 44.351 192.795 44.351C191.355 44.351 189.244 43.545 189.244 40.452V33.3138C189.244 30.2098 191.355 29.4258 192.795 29.4258C194.204 29.4258 196.345 30.2098 196.345 33.3138C196.345 34.3788 196.349 36.894 196.349 36.894ZM92.912 26.0519C89.913 26.1384 87.424 27.4244 85.685 29.074C85.674 28.5752 85.685 26.9669 85.685 26.9669L76.679 26.9739L76.694 47.005H85.685C85.685 47.005 85.674 34.7013 85.674 33.8467C85.674 32.1033 87.511 30.1613 89.974 30.1613C92.441 30.1613 94.113 32.1033 94.113 33.8467V47.005H103.125C103.125 47.005 103.114 37.517 103.125 36.107C103.17 28.1741 96.298 25.9549 92.912 26.0519ZM166.547 26.0519C163.544 26.1384 161.051 27.4244 159.316 29.074C159.305 28.5752 159.316 26.9669 159.316 26.9669L150.325 26.9739L150.321 47.005H159.316C159.316 47.005 159.305 34.7013 159.305 33.8467C159.305 32.1033 161.145 30.1613 163.612 30.1613C166.079 30.1613 167.748 32.1033 167.748 33.8467V47.005H176.752C176.752 47.005 176.741 37.517 176.752 36.107C176.797 28.1741 169.929 25.9549 166.547 26.0519ZM147.581 37.082C147.581 30.8658 141.579 25.7222 134.208 25.7222C126.846 25.7222 120.87 30.753 120.87 36.969C120.87 43.182 126.846 48.216 134.208 48.216C140.326 48.216 145.489 44.726 147.067 39.998L138.033 40.006C138.033 40.006 138.044 40.092 138.044 41.221C138.044 44.884 135.633 45.693 134.291 45.693C132.949 45.693 130.501 44.884 130.501 41.221C130.501 40.122 130.512 37.082 130.512 37.082C130.512 37.082 147.581 37.089 147.581 37.082ZM131.104 30.0263C131.817 28.7928 133.114 28.2114 134.291 28.2003C135.472 28.2114 136.769 28.7928 137.481 30.0263C138.051 31.0342 138.081 32.2081 138.066 33.9587H130.508C130.493 32.2081 130.531 31.0342 131.104 30.0263ZM238.259 20.6048C238.259 19.6192 237.532 19.1235 236.07 19.1235H234.052V24.2639H235.305V22.1608H235.916L236.898 24.2639H238.286L237.138 21.9693C237.843 21.7858 238.259 21.28 238.259 20.6048ZM235.916 21.407H235.305V19.9146H235.848C236.598 19.9146 236.97 20.1433 236.97 20.6795C236.97 21.1893 236.628 21.407 235.916 21.407ZM235.954 17.118C233.393 17.118 231.308 19.199 231.308 21.7596C231.308 24.3203 233.393 26.3974 235.954 26.3974C238.514 26.3974 240.584 24.3203 240.584 21.7596C240.584 19.199 238.514 17.118 235.954 17.118ZM235.954 25.5046C233.88 25.5046 232.201 23.8287 232.201 21.7596C232.201 19.6858 233.88 18.0068 235.954 18.0068C238.023 18.0068 239.703 19.6858 239.703 21.7596C239.703 23.8287 238.023 25.5046 235.954 25.5046ZM225.842 0.0001H33.9482C13.639 -0.0483 0 14.5541 0 32.054C0 49.562 13.6096 63.992 33.9815 64H225.813C246.192 63.992 259.793 49.562 259.793 32.054C259.793 14.5541 246.154 -0.0484 225.842 0.0001ZM225.756 56.149H34.0419C17.8533 56.213 8.0156 45.344 8.0156 32.0128C8.0156 18.6811 17.9097 7.907 34.0419 7.8728H225.756C241.881 7.907 251.775 18.6811 251.775 32.0128C251.775 45.344 241.941 56.213 225.756 56.149Z"/>
</svg>