<svg xmlns="http://www.w3.org/2000/svg" id="svg8" version="1.1" viewBox="0 0 600 200"><g id="layer1" transform="translate(0 -626.5)"><path id="rect80" d="M0 626.5h600v200H0z" style="opacity:1;vector-effect:none;fill:#e60012;fill-opacity:1;fill-rule:nonzero;stroke:none;stroke-width:15.00000095;stroke-miterlimit:4;stroke-dasharray:none;paint-order:stroke markers fill"/><path id="path29" d="M110.966 789.567C70.823 789.553 44 761.105 44 726.612c0-34.492 26.884-63.267 66.905-63.179h378.19c40.02-.088 66.905 28.687 66.905 63.18 0 34.492-26.823 62.94-66.966 62.954zm.123-110.618c-31.78.061-51.287 21.302-51.287 47.582 0 26.272 19.384 47.69 51.287 47.574H488.91c31.903.11 51.294-21.302 51.294-47.574 0-26.273-19.507-47.514-51.287-47.575zm398.145 22.18c2.89 0 4.325.979 4.325 2.916 0 1.333-.83 2.34-2.21 2.686l2.264 4.522h-2.74l-1.938-4.148h-1.203v4.148h-2.468v-10.124zm-.224-3.958c-5.045 0-9.138 4.094-9.138 9.139 0 5.045 4.093 9.138 9.138 9.138s9.138-4.093 9.138-9.138-4.093-9.139-9.138-9.139zm7.39 9.145c0 4.08-3.31 7.391-7.39 7.391a7.394 7.394 0 0 1-7.39-7.39c0-4.08 3.31-7.391 7.39-7.391a7.39 7.39 0 0 1 7.39 7.39zm-8.668-.693h1.203c1.408 0 2.088-.428 2.088-1.435 0-1.054-.728-1.51-2.21-1.51h-1.081zm-206.535 24.742c-.028-3.46.047-5.772 1.183-7.744 1.394-2.434 3.957-3.59 6.282-3.604h-.007c2.326.014 4.889 1.17 6.283 3.604 1.135 1.979 1.183 4.29 1.156 7.751zm14.836 11.906s.013.177.013 2.393c0 7.221-4.752 8.826-7.39 8.826-2.639 0-7.473-1.605-7.473-8.826 0-2.162.014-8.152.014-8.152s33.636.014 33.636-.007c0-12.245-11.824-22.39-26.347-22.39-14.524 0-26.293 9.927-26.293 22.172 0 12.246 11.77 22.166 26.293 22.166 12.048 0 22.226-6.874 25.334-16.196zm56.182-27.496c6.677-.19 20.221 4.181 20.126 19.813-.013 2.774-.007 21.486-.007 21.486h-17.74V730.14c0-3.44-3.29-7.268-8.158-7.268-4.862 0-8.48 3.828-8.48 7.268 0 1.686.021 25.933.021 25.933h-17.725l.013-39.484 17.72-.013s-.021 3.175 0 4.154c3.412-3.257 8.335-5.786 14.23-5.956zm-145.11 0c6.677-.19 20.22 4.181 20.126 19.813-.014 2.774-.007 21.486-.007 21.486h-17.74V730.14c0-3.44-3.29-7.268-8.159-7.268-4.861 0-8.478 3.828-8.478 7.268 0 1.686.02 25.933.02 25.933H195.14l-.007-39.484 17.74-.013s-.02 3.175 0 4.154c3.413-3.257 8.329-5.786 14.23-5.956zm203.72-18.066h17.624v59.378h-17.651s-.007-1.917-.007-2.284c-6.833 4.29-14.544 4.283-20.548 1.482-1.611-.748-12.211-5.834-12.211-19.575 0-10.424 9.832-21.806 22.703-20.677 4.236.374 7.248 1.918 10.104 3.522-.014-9.138-.014-21.846-.014-21.846zm.13 39.436v-7.058c0-6.106-4.216-7.663-6.99-7.663-2.842 0-7.004 1.557-7.004 7.663 0 2.026.007 7.037.007 7.037s-.007 4.923-.007 7.024c0 6.1 4.162 7.697 6.997 7.697 2.78 0 7.003-1.598 7.003-7.697 0-2.536-.007-7.003-.007-7.003zm56.576-.116s-.007 5.97-.007 8.363c0 6.297-3.72 8.894-7.295 8.894-3.584 0-7.317-2.597-7.317-8.894 0-2.393.007-8.512.007-8.512s.014-5.84.014-8.234c0-6.27 3.74-8.846 7.296-8.846 3.563 0 7.295 2.577 7.295 8.846 0 2.393-.007 6.82.014 8.404zm-7.173-22.125c-14.415 0-26.096 9.927-26.096 22.173 0 12.245 11.688 22.172 26.096 22.172 14.414 0 26.096-9.927 26.096-22.172 0-12.246-11.682-22.173-26.096-22.173zm-312.95-5.072v-12.137h17.895v12.137zm.04 47.255v-39.49l17.855.007v39.483zm89.58 0 .008-39.408h-9.71v-5.861l9.716-.007-.013-7.996h17.868v7.989h9.669v5.874h-9.669l.014 39.409zm-162.244 0 .007-59.378h18.5l25.593 41.408-.014-41.408h18.359v59.378h-18.331l-25.729-41.407v41.407z" style="fill:#fff;stroke-width:1"/></g><style id="style7" type="text/css">.logo{fill:#939598}</style></svg>