<svg xmlns="http://www.w3.org/2000/svg" xml:space="preserve" style="fill-rule:evenodd;clip-rule:evenodd;stroke-linejoin:round;stroke-miterlimit:2" viewBox="0 0 300 300"><path d="M104.712 80.594h14.575v45.939h-14.575z" style="fill:#1a2b57" transform="matrix(20.5829 0 0 -6.53046 -2155.26 826.318)"/><path d="M17.95 17.268V.327h5.062v1c.007 5.732.005 11.463.026 17.2a5.21 5.21 0 0 1-1.131 3.4 3.787 3.787 0 0 1-4.569 1.083 10.101 10.101 0 0 1-4.124-3.408c-2.374-2.962-4.785-5.9-7.368-9.079v18.485H0V4.521a3.165 3.165 0 0 1 2.2-3.253 3.706 3.706 0 0 1 3.917 1.26C7.538 4.196 8.83 5.952 10.191 7.66a2947.63 2947.63 0 0 0 7.229 9.039c.111.14.244.265.53.569Z" style="fill:#fff;fill-rule:nonzero" transform="translate(25.077 23.269) scale(8.37507)"/><path d="M24.693.265h5.136v1.028c0 6.291-.036 12.582.012 18.872.036 4.629-3.77 8.71-8.744 9.631-4.2.777-7.573-.745-10.357-3.422a39.34 39.34 0 0 1-3.082-3.7 2.555 2.555 0 0 1-.2-.313c-.014-2.4 0-5.045 0-7.6 1.231 1.587 2.569 3.361 3.877 4.894a27.875 27.875 0 0 0 3.956 4.134c3.027 2.34 6.773 1.635 8.452-1.491a7.032 7.032 0 0 0 .874-3.108c.094-5.918.066-11.836.079-17.755-.002-.368-.003-.734-.003-1.17Z" style="fill:#fff;fill-rule:nonzero" transform="translate(25.077 23.269) scale(8.37507)"/></svg>