<svg xmlns="http://www.w3.org/2000/svg" xml:space="preserve" viewBox="0 0 200 200"><path fill="#E9EAE8" d="M1 121c0-13.02 0-26.042.33-39.218.776-.973 1.451-1.743 1.631-2.615 4.01-19.427 13.547-36.025 27.417-49.785 13.383-13.278 29.608-22.2 48.195-26.44C79.483 2.735 80.196 1.667 81 1c13.02 0 26.042 0 39.217.336 6.497 2.443 12.963 4.242 19.16 6.717 17.327 6.92 31.635 17.903 42.61 33.037 8.112 11.186 14.147 23.38 17.13 36.98.094.426 1.232.625 1.883.93 0 14.354 0 28.708-.33 43.218-.776.971-1.45 1.739-1.631 2.61-3.236 15.465-10.372 29.16-20.527 40.954-14.389 16.71-32.036 28.718-54.09 33.3-.581.122-.953 1.256-1.422 1.918-14.354 0-28.708 0-43.219-.326-.804-.769-1.395-1.454-2.108-1.62-16.375-3.795-30.947-11.387-43.378-22.452-16.292-14.5-27.192-32.467-31.38-54.17-.112-.579-1.254-.959-1.915-1.432m161.957-55.858c-5.307 5.55-10.614 11.099-16.655 16.613-.57.292-1.26.463-1.69.893-11.85 11.796-23.686 23.605-35.464 35.471-.72.725-.945 1.94-2.054 3.007-12.364 12.287-24.727 24.573-37.777 36.9l-19.344 19.807c1.995 1.076 3.993 2.153 6.4 3.787 4.558 1.846 9.116 3.693 14.157 6.044 8.198 1.766 16.396 3.532 25.512 5.384 39.548.99 69.304-15.838 87.297-50.841 14.705-28.607 13.711-57.894-2.383-86.923l-3.734-6.054c-4.877 5.656-9.255 10.734-14.265 15.912m-54.49-7.276c.492-.395.985-.79 1.913-1.673 1.702-1.29 3.57-2.41 5.077-3.898 9.115-9.004 18.154-18.085 27.201-27.159 1.226-1.23 2.351-2.558 3.75-4.09-11.927-6.866-24.253-10.602-37.298-11.632-17.021-1.345-33.42 1.08-49.22 9.658-7.315 5.34-14.63 10.68-22.605 16.114C4.63 65.63 1.719 115.371 21.645 146.482c5.867-6.237 11.628-12.36 17.979-18.784 8.103-8.223 16.206-16.445 25-24.692 1.843-2.013 3.685-4.027 6.093-6.355 11.64-11.588 23.305-23.15 34.874-34.81 1.055-1.063 1.485-2.748 2.293-4.065 0 0-.098.066.582.09z"/><path fill="#fff" d="M80.531 1c-.335.667-1.049 1.735-1.958 1.942-18.587 4.24-34.812 13.162-48.195 26.44C16.508 43.142 6.97 59.74 2.96 79.167c-.18.872-.855 1.642-1.63 2.146C1 54.406 1 27.813 1 1h79.531zM201 78.531c-.651.164-1.789-.035-1.883-.462-2.983-13.599-9.018-25.793-17.13-36.98-10.975-15.133-25.283-26.116-42.61-33.036-6.197-2.475-12.663-4.274-18.692-6.717C147.593 1 174.185 1 201 1v77.531zM1 121.469c.661.004 1.803.384 1.914.963 4.189 21.703 15.09 39.67 31.38 54.17 12.432 11.065 27.004 18.657 43.38 22.453.712.165 1.303.85 1.639 1.619C53.073 201 27.144 201 1 201v-79.531zM123.469 201c0-.662.372-1.796.953-1.917 22.054-4.583 39.701-16.59 54.09-33.301 10.155-11.794 17.29-25.49 20.527-40.955.182-.87.855-1.638 1.63-2.14.331 26.24.331 52.167.331 78.313h-77.531z"/><path fill="#90BF02" d="M70.152 96.966c-1.843 2.013-3.685 4.027-5.875 5.581-.349-16.178-.349-31.896-.349-47.675H39.034v73.126l-17.388 18.484C1.719 115.37 4.63 65.629 37.72 35.462c1.416 1.39 2.265 2.668 3.401 3.591 6.293 5.113 17.247 4.217 22.21-1.734 4.616-5.537 3.449-13.263-2.76-18.275 15.119-8.55 31.518-10.975 48.54-9.63 13.044 1.03 25.37 4.766 37.298 11.632-1.4 1.532-2.525 2.86-3.75 4.09-9.048 9.074-18.087 18.155-27.202 27.16-1.506 1.487-3.375 2.607-5.608 4.212-1.042.654-1.552.994-2.063 1.334 0 0 .098-.066-.286-.028-4.377 2.796-8.369 5.553-12.438 8.364-.53-3.574-1.06-7.155-1.61-10.878h-23.3v41.666z"/><path fill="#90BE02" d="M181.065 55.966c15.985 28.347 16.979 57.634 2.274 86.24-17.993 35.004-47.75 51.832-87.78 50.333-.547-17.173-.61-33.839-.602-50.882.073-1.896.073-3.413.073-5.44 1.37.872 2.132 1.357 3.024 2.155 3.85 2.443 7.371 5.104 11.332 6.602 10.713 4.05 21.877 4.244 32.959 1.918 17.446-3.66 30.11-13.509 35.34-30.87 5.166-17.158 2.783-33.262-9.845-47.195-.03-.228-.129-.678.19-.833 4.558-4.113 8.796-8.07 13.035-12.028z"/><path fill="#FFF" d="M39.329 127.848c-.295-24.09-.295-48.331-.295-72.976h24.894c0 15.779 0 31.497.003 47.687-8.101 8.694-16.204 16.916-24.602 25.289zM94.885 142.035c.063 16.665.127 33.33.215 50.461-8.174-1.3-16.372-3.066-24.829-5.565-.316-7.128-.374-13.524-.35-20.166.135-.41.19-.575.516-.917 8.331-8.055 16.39-15.934 24.448-23.813z"/><path fill="#FFFFFE" d="M70.434 96.809c-.282-13.61-.282-27.375-.282-41.509h23.3c.55 3.723 1.08 7.304 1.61 10.878 4.07-2.811 8.061-5.568 12.394-8.403-.38 1.318-.81 3.003-1.865 4.067C94.022 73.5 82.357 85.062 70.434 96.809z"/><path fill="#FEFEFD" d="M60.23 19.058c6.55 4.998 7.717 12.724 3.1 18.261-4.962 5.951-15.916 6.847-22.209 1.734-1.136-.923-1.985-2.2-3.07-3.638C45.26 29.75 52.575 24.41 60.23 19.058z"/><path fill="#E5E5E4" d="M94.957 141.657c-8.13 8.257-16.189 16.136-24.589 23.75-.35-2.65-.357-5.036-.364-7.422 12.363-12.286 24.726-24.572 37.752-36.82 1.883.634 3.104 1.23 4.36 1.993.034.167.04.508-.103.834-4.792 4.906-9.44 9.486-14.089 14.066l-2.894-1.84c0 2.026 0 3.543-.073 5.439z"/><path fill="#81AB00" d="M112.08 122.991c-1.22-.596-2.44-1.192-3.997-1.866.12-1.065.345-2.28 1.065-3.006 11.778-11.866 23.614-23.675 35.463-35.471.432-.43 1.121-.601 2.217-.593 1.42 1.494 2.313 2.69 3.052 4.184a4787.143 4787.143 0 0 1-34.484 34.802c-.879.877-2.2 1.31-3.316 1.95z"/><path fill="#90BE03" d="M69.84 167.011c.057 6.396.115 12.792.19 19.668-4.54-1.366-9.099-3.213-13.708-5.638 4.472-5.062 8.995-9.546 13.518-14.03z"/><path fill="#82AC01" d="M69.921 166.765c-4.604 4.73-9.127 9.214-13.803 13.998-2.152-.777-4.15-1.854-6.145-2.93 6.642-6.8 12.993-13.304 19.688-19.828.35 2.366.358 4.751.434 7.579.015.606-.039.77-.174 1.18z"/><path fill="#E3E4E0" d="M150.035 85.94c-.894-1.195-1.787-2.39-2.84-3.868 5.148-5.831 10.455-11.38 16.386-16.862 1.792 1.025 2.961 1.982 4.13 2.939 0 0 .098.45-.154.834-5.726 5.991-11.2 11.597-16.887 17.141l-.635-.184z"/><path fill="#82AC02" d="M168.03 67.994c-1.488-.802-2.657-1.76-4.133-2.834 4.07-5.196 8.448-10.274 13.325-15.93 1.559 2.527 2.647 4.29 3.789 6.395-4.185 4.298-8.423 8.256-12.98 12.369z"/><path fill="#FFFFFE" d="M108.126 57.854c.17-.352.681-.692 1.505-1.102-.18.325-.672.72-1.505 1.102z"/><path fill="#FEFEFC" d="M150.882 86.186c5.474-5.606 10.949-11.212 16.706-16.974 12.88 13.548 15.263 29.652 10.096 46.81-5.228 17.361-17.893 27.21-35.34 30.87-11.08 2.326-22.245 2.132-32.958-1.918-3.96-1.498-7.481-4.159-11.332-6.602 4.519-4.894 9.167-9.474 14.344-14.304 2.11.243 3.667.87 5.283 1.208 11.995 2.504 23.066.93 31.364-8.884 7.941-9.393 7.407-19.758 1.837-30.206z"/><path fill="#90BF02" d="M150.67 86.124c5.782 10.51 6.316 20.875-1.625 30.268-8.298 9.815-19.37 11.388-31.364 8.884-1.616-.337-3.172-.965-5.14-1.534-.385-.076-.39-.417-.426-.584 1.08-.806 2.402-1.24 3.28-2.117a4787.143 4787.143 0 0 0 34.485-34.802c.155-.299.579-.176.79-.115z"/></svg>