<?xml version="1.0" encoding="UTF-8"?>
<svg xmlns="http://www.w3.org/2000/svg" width="110" height="24" viewBox="0 0 110 24" fill="none"><g id="Logo_NorthC_RGB 1" clip-path="url(#clip0_1676_16543)"><path id="Vector" d="M0.00390625 23.5372H3.73944V7.20659L16.8634 23.5372H19.6733V0.396667H15.9708V16.8595L2.84688 0.396667H0.00390625V23.5372Z" fill="black"/><path id="Vector_2" d="M36.0831 15.4049C36.0831 18.314 34.1988 20.7272 31.0583 20.7272C27.9839 20.7272 26.0666 18.314 26.0666 15.4049C26.0666 12.5289 27.9839 10.0496 31.0583 10.0496C34.0666 10.0496 36.0831 12.5289 36.0831 15.4049ZM39.5211 15.4049C39.5211 10.6446 36.0831 6.90906 31.0583 6.90906C26.0005 6.90906 22.6616 10.6446 22.6616 15.4049C22.6616 20.2644 25.9343 23.9008 31.0583 23.9008C36.2153 23.9008 39.5211 20.2644 39.5211 15.4049Z" fill="black"/><path id="Vector_3" d="M42.4834 23.5372H45.8884V14.7107C45.8884 11.7025 47.9379 10.2479 50.2851 10.2479C51.5743 10.2479 52.3346 10.5785 53.1611 11.2397L54.7148 8.26447C53.7892 7.43802 52.2685 6.87604 50.6818 6.87604C48.9297 6.87604 47.0784 7.30579 45.8884 9.38844L45.657 7.20662H42.4834V23.5372Z" fill="black"/><path id="Vector_4" d="M64.4273 23.7355C65.6452 23.753 66.8523 23.5049 67.9645 23.0082L66.9728 20.0992C66.3347 20.4533 65.6197 20.6463 64.8901 20.6611C63.3033 20.6611 62.543 19.7025 62.543 17.9835V10.1487H67.3364V7.2066H62.5761V2.54544L59.1381 2.90908V7.2066H55.9976V10.1487H59.1381V17.9835C59.1381 21.7521 61.0224 23.7355 64.4273 23.7355Z" fill="black"/><path id="Vector_5" d="M70.0503 23.5372H73.4552V14.9091C73.4552 12.2314 75.3065 10.0496 77.9511 10.0496C80.4635 10.0496 82.0503 11.5702 82.0503 14.6446V23.5372H85.4585V14.6115C85.4585 9.95039 83.3759 6.87601 78.7478 6.87601C76.7643 6.87601 74.88 7.53716 73.4586 9.52063V0.396667H70.0536L70.0503 23.5372Z" fill="black"/><path id="Vector_6" d="M100.642 23.9999C103.914 23.9999 106.956 22.9421 109.336 20.5619L106.79 18.0165C105.171 19.6363 102.79 20.5289 100.642 20.5289C94.6913 20.5289 92.1128 16.3305 92.1128 12.0991C92.1128 7.83466 94.7243 3.50408 100.642 3.50408C102.87 3.48811 105.017 4.34203 106.625 5.88424L109.105 3.50408C108.002 2.38064 106.685 1.49122 105.23 0.889107C103.776 0.286993 102.216 -0.0154305 100.642 -5.19668e-05C92.3442 -5.19668e-05 88.4434 6.04954 88.4434 12.1322C88.4434 18.2148 92.2781 23.9999 100.642 23.9999Z" fill="black"/><path id="Vector_7" d="M103.196 5.79504L95.1577 16.0132L99.5379 14.4116L101.429 18.676L103.196 5.79504Z" fill="#FFC20D"/></g><defs><clipPath id="clip0_1676_16543"><rect width="109.34" height="24" fill="white"/></clipPath></defs></svg>