<svg xmlns="http://www.w3.org/2000/svg" fill="none" viewBox="0 0 1024 1024"><g clip-path="url(#a)"><path fill="#000" d="M1024 0H0v1024h1024V0Z"/><path fill="#fff" d="M724.985 682.919A225.057 225.057 0 0 1 287 610.064v-110.25l79.121 33.053v77.152a145.584 145.584 0 0 0 49.804 109.688c2.97 2.587 6.053 5.107 9.236 7.459a145.194 145.194 0 0 0 80.494 28.597c.99 0 1.946.079 2.925.101.979.023 2.25 0 3.375 0h3.375c1.125 0 1.935 0 2.925-.101a145.267 145.267 0 0 0 80.471-28.575c3.173-2.351 6.255-4.86 9.237-7.447a145.958 145.958 0 0 0 43.582-67.5l73.44 30.678ZM737 414v196.065c0 2.531 0 5.074-.158 7.605l-78.963-33.019V414a145.894 145.894 0 0 0-40.725-101.066 145.893 145.893 0 0 0-202-8.003 145.889 145.889 0 0 0-48.594 97.526 156.794 156.794 0 0 0-.439 11.543v48.712L287 429.637V189h225a224.999 224.999 0 0 1 225 225Z"/></g><defs><clipPath id="a"><rect width="1024" height="1024" fill="#fff" rx="200"/></clipPath></defs></svg>