<svg xmlns="http://www.w3.org/2000/svg" width="128" height="128" fill="none"><path fill="#000" d="M124.333 78.5901c.879-15.8376-8.568-33.5379-15.322-43.7397-6.753-10.1922-15.7512-16.7164-38.0079-19.8018-22.2567-3.0758-34.2639 9.1702-46.0132 23.5845C13.2407 53.0474 8.3213 62.6474 8.3213 76.6224c0 13.9749 23.04 41.3136 60.0167 40.3866 36.977-.926 55.126-22.5813 55.995-38.4189Z"/><path fill="#000" d="M66.6753 120.258c-37.5976 0-61.5737-27.6637-61.5737-43.635 0-15.9714 6.1134-26.1923 17.3946-40.0239 10.8513-13.3063 22.2089-25.2466 41.8101-25.2466 2.2926 0 4.6997.172 7.1356.5063 23.9379 3.3146 33.4041 10.88 40.2531 21.2155 6.333 9.5618 16.812 28.2078 15.847 45.6979-.955 17.2991-20.413 40.4918-59.1378 41.4668-.5826.019-1.1653.019-1.7385.019h.0096Zm-2.369-102.4577c-16.7928 0-26.6125 10.3546-36.8238 22.8681C15.4084 55.4648 11.5398 64.2051 11.5398 76.623c0 5.4066 4.5755 15.3504 14.6149 24.406 11.1857 10.087 25.5713 12.781 40.511 12.781.5254 0 1.0508 0 1.5762-.019 34.6651-.87 52.0311-20.4707 52.8621-35.3722.898-16.2101-10.039-34.6173-14.787-41.7719-6.046-9.132-14.1468-15.3982-35.7635-18.3881-2.1493-.2961-4.2507-.4489-6.2567-.4489l.0095-.0096Z"/><path fill="#000" d="M79.0078 27.7914s11.2239-12.2842 16.5827-14.8347c5.3585-2.5504 12.1025-4.0597 15.8565-3.7158 3.754.3439 10.173 7.4221 11.071 9.5523.736 1.748 2.427 11.6155 3.009 15.102.124.7642-1.299.2006-2.111-.5158-2.531-2.2352-6.448-5.7218-8.167-5.1964-2.579.7928-10.756-1.9964-10.756-1.9964s-.067-.6782-1.71 1.557c-1.633 2.2448-6.2564 3.0758-6.2564 3.0758l-17.5188-3.028Z"/><path fill="#000" d="M125.202 35.6911c-1.051 0-2.216-.7833-2.732-1.2418l-.134-.1242c-1.624-1.4328-5.416-4.7761-6.705-4.7761-.411.1242-.936.191-1.576.191-2.914 0-7.766-1.4806-9.438-2.0251-.162.1911-.382.4585-.669.8597-1.92 2.6269-6.629 3.5439-7.1639 3.6394l-.2484.0478-20.3462-3.5152 1.7671-1.9296c.4681-.5062 11.4818-12.523 17.0317-15.1689C99.8981 9.3173 106.05 7.7412 110.31 7.7412c.449 0 .888.0191 1.28.0573 4.499.4108 11.253 8.0526 12.256 10.4311.716 1.6907 2.082 9.323 3.094 15.4268.086.535-.038 1.0508-.372 1.4329-.325.3916-.812.6018-1.366.6018Zm-9.571-8.9982c2.082 0 4.881 2.2352 8.071 5.034-1.156-6.7535-2.101-11.4149-2.502-12.3797-.812-1.92-6.926-8.4155-9.877-8.6926-.306-.0286-.65-.0477-1.013-.0477-3.811 0-9.61 1.4901-14.0895 3.6298-3.8018 1.815-10.9851 9.0747-14.3379 12.5899l14.6436 2.5313c1.6047-.3343 4.2218-1.2322 5.1198-2.4644 1.223-1.6812 1.92-2.2448 2.751-2.2448.335 0 .64.105.889.277 1.92.6304 6.428 1.9582 8.778 1.9582.449 0 .678-.0478.774-.0764.248-.0764.525-.1146.802-.1146h-.009ZM46.0808 23.7131s-14.3283-8.4728-20.1934-9.3421c-5.8746-.8692-12.7618-.3438-16.2484 1.0794-3.4865 1.4233-7.5558 10.0776-7.7946 12.3702-.2006 1.8913 1.0794 11.8161 1.5475 15.3313.105.7642 1.299-.191 1.8626-1.108 1.7672-2.8753 4.4992-7.3648 6.295-7.3648 2.6937 0 9.6955-5.0531 9.6955-5.0531s-.1337-.6687 2.0919.9934c2.2162 1.6621 6.8872 1.1081 6.8872 1.1081l15.8663-8.0144h-.0096Z"/><path fill="#000" d="M3.6497 44.8708c-.8693 0-1.5666-.6305-1.6812-1.5284C1.2998 38.3275.2109 29.6159.421 27.6768c.2675-2.56 4.4991-11.8448 8.6735-13.5547 2.4644-1.0125 6.4955-1.6143 10.7844-1.6143 2.1588 0 4.2508.1528 6.2185.4394 6.0753.9075 20.1266 9.1797 20.7188 9.5331l2.2544 1.3278-18.4263 9.3039-.2484.0286s-.8501.0956-1.9582.0956c-2.6364 0-4.6424-.4967-5.951-1.4806-.3917-.2961-.6782-.4872-.8884-.6209-1.9391 1.3564-7.3265 4.9671-10.0394 4.9671-1.1271.258-3.9164 4.8048-4.9671 6.5147l-.1051.1624c-.0478.0859-1.2896 2.0728-2.818 2.0728l-.019.0191ZM19.8789 15.383c-3.8686 0-7.5844.535-9.6955 1.4042-2.7415 1.1176-6.6961 9.1224-6.9063 11.1952-.105 1.0317.363 5.8556 1.2227 12.5708 2.5887-4.1743 4.7761-7.2979 7.0496-7.2979 1.471 0 5.8842-2.6651 8.5874-4.5851 0-.0096.0191-.0191.0287-.0287.2961-.3629.7451-.5635 1.2322-.5635.5636 0 1.2323.2388 2.8084 1.4137.7737.5827 2.3116.9075 4.2316.9075.6018 0 1.1081-.0287 1.3851-.0574l13.249-6.6961c-4.2317-2.3785-13.2203-7.231-17.3851-7.8424-1.7958-.2674-3.8018-.4107-5.7982-.4107l-.0096-.0096Z"/><path fill="#FBD2D3" d="M124.333 78.5901c.879-15.8376-8.568-33.5379-15.322-43.7397-6.753-10.1922-15.7512-16.7164-38.0079-19.8018-22.2567-3.0758-34.2639 9.1702-46.0132 23.5845C13.2407 53.0474 8.3213 62.6474 8.3213 76.6224c0 13.9749 23.04 41.3136 60.0167 40.3866 36.977-.926 55.126-22.5813 55.995-38.4189Z"/><path fill="#000" d="M54.2573 28.4983c.9648.0573 1.6812 1.2322 1.5952 2.6268-.086 1.3947-.9457 2.4741-1.9104 2.4072-.9648-.0573-1.6812-1.2322-1.5953-2.6269.086-1.385.9457-2.4644 1.9105-2.4071ZM73.076 26.0338c1.0508-.2771 2.1875.64 2.5505 2.0346.3629 1.3946-.1911 2.751-1.2323 3.0185-1.0507.277-2.1874-.64-2.5504-2.0346-.363-1.3947.191-2.7511 1.2322-3.0185Z"/><path fill="#000" stroke="#000" stroke-miterlimit="10" stroke-width="1.5" d="M38.554 50.755c-2.3881 9.2943 14.9397 16 19.0758 18.388 4.1361 2.3881 9.877 4.6233 20.6137-.0859 10.7367-4.7093 15.4651-8.3105 16.1242-14.6627.6591-6.3618-9.9248-11.6824-21.8746-13.7361-11.9499-2.0538-31.5511.8119-33.9391 10.1062v-.0095Z"/><path fill="#F4777C" d="M40.2064 50.8318c-2.2066 8.5015 13.7552 14.6245 17.5666 16.8024 3.8113 2.1779 9.1033 4.2221 19.0089-.0955 9.9057-4.3176 14.2615-7.6036 14.8729-13.4209.6113-5.8173-9.1415-10.6794-20.1553-12.5421-11.0137-1.8627-29.077.7642-31.2835 9.2561h-.0096Z"/><path fill="#000" d="M61.8895 55.9135c-.0383.9743-.6782 1.8053-2.7702 1.7098-1.3946-.0573-2.3116-.9552-2.2734-1.9295.0382-.9744 1.2036-1.7099 2.5982-1.6526 1.3946.0573 2.4836.8884 2.4454 1.8627v.0096ZM77.8134 53.6976c.1242.9934-.9552 1.9486-2.4167 2.1397-1.4615.191-2.7511-.4681-2.8753-1.4615-.1241-.9934.9553-1.9487 2.4168-2.1397 1.4615-.191 2.751.4681 2.8752 1.4615ZM46.205 79.5266c.277-.3343 1.4233.2866 1.4233.2866s1.8913 1.9868 3.4102 2.56c1.5283.5731 5.7695-.6687 5.7695-.6687s1.0603.0382 1.3946.6687c.3248.6304-.9647.7641-.9647.7641s-3.9642.8215-6.5338.3726c-2.5695-.449-4.4895-2.6173-4.4895-2.6173s-.2675-1.0317 0-1.366h-.0096Z"/><path fill="#FBD2D3" d="M43.1101 22.9677s-13.9176-6.1994-19.2573-6.9923c-5.3397-.7928-9.9535-.7259-13.1248.5732-3.1714 1.2991-6.9254 9.3038-7.145 11.3958-.2198 2.0919.7259 12.2651.7259 12.2651s4.4036-7.8615 6.8489-7.8615c2.4454 0 7.1451-3.5344 7.1451-3.5344s-1.7289-1.2227-1.8722-2.8083l.5062-1.2991s2.9612 1.8722 4.9768 3.391c2.0155 1.5093 6.782 2.1588 6.782 2.1588l14.4239-7.2883h-.0095ZM81.625 26.1966s11.5009-10.0012 16.3725-12.3223c4.8715-2.3212 9.3035-3.6012 12.7235-3.286 3.42.3152 9.342 6.8776 10.164 8.8167.821 1.9391 2.894 11.9403 2.894 11.9403s-6.505-6.2281-8.855-5.5116c-2.35.7164-7.861-1.2896-7.861-1.2896s1.299-1.6812.974-3.2382l-.86-1.0985s-2.283 2.6555-3.773 4.6997c-1.49 2.0442-5.8554 4.0501-5.8554 4.0501l-15.9236-2.751v-.0096Z"/></svg>