<svg xmlns="http://www.w3.org/2000/svg" fill="none" viewBox="0 0 128 128"><path fill="#000" d="M124.333 78.59c.879-15.837-8.568-33.538-15.322-43.74-6.753-10.192-15.751-16.716-38.008-19.801-22.257-3.076-34.264 9.17-46.013 23.584C13.24 53.047 8.32 62.647 8.32 76.623c0 13.974 23.04 41.313 60.017 40.386 36.977-.926 55.126-22.581 55.995-38.419Z"/><path fill="#000" d="M66.675 120.258c-37.597 0-61.573-27.664-61.573-43.635 0-15.971 6.113-26.192 17.394-40.024 10.851-13.306 22.21-25.247 41.81-25.247 2.293 0 4.7.172 7.136.507 23.938 3.314 33.404 10.88 40.253 21.215 6.333 9.562 16.812 28.208 15.847 45.698-.955 17.3-20.413 40.492-59.138 41.467-.582.019-1.165.019-1.738.019h.01ZM64.306 17.8c-16.793 0-26.612 10.355-36.824 22.868C15.408 55.465 11.54 64.205 11.54 76.623c0 5.407 4.575 15.35 14.615 24.406 11.185 10.087 25.571 12.781 40.51 12.781.526 0 1.051 0 1.577-.019 34.665-.87 52.031-20.47 52.862-35.372.898-16.21-10.039-34.617-14.787-41.772-6.046-9.132-14.147-15.398-35.764-18.388a46.043 46.043 0 0 0-6.256-.45l.01-.009Z"/><path fill="#000" d="M79.008 27.791S90.232 15.507 95.59 12.957c5.358-2.55 12.102-4.06 15.856-3.716 3.754.344 10.173 7.422 11.071 9.552.736 1.748 2.427 11.616 3.009 15.102.124.764-1.299.2-2.111-.516-2.531-2.235-6.448-5.721-8.167-5.196-2.579.793-10.756-1.996-10.756-1.996s-.067-.679-1.71 1.557c-1.633 2.244-6.256 3.075-6.256 3.075l-17.52-3.028Z"/><path fill="#000" d="M125.202 35.691c-1.051 0-2.216-.783-2.732-1.242l-.134-.124c-1.624-1.433-5.416-4.776-6.705-4.776-.411.124-.936.191-1.576.191-2.914 0-7.766-1.48-9.438-2.025-.162.191-.382.458-.669.86-1.92 2.627-6.629 3.544-7.164 3.639l-.248.048-20.346-3.515 1.767-1.93c.468-.506 11.481-12.523 17.031-15.169 4.91-2.33 11.062-3.907 15.322-3.907.449 0 .888.02 1.28.058 4.499.41 11.253 8.052 12.256 10.43.716 1.691 2.082 9.324 3.094 15.427.086.535-.038 1.051-.372 1.433-.325.392-.812.602-1.366.602Zm-9.571-8.998c2.082 0 4.881 2.235 8.071 5.034-1.156-6.754-2.101-11.415-2.502-12.38-.812-1.92-6.926-8.415-9.877-8.692-.306-.029-.65-.048-1.013-.048-3.811 0-9.61 1.49-14.09 3.63-3.801 1.815-10.985 9.074-14.337 12.59l14.643 2.53c1.605-.333 4.222-1.231 5.12-2.464 1.223-1.68 1.92-2.244 2.751-2.244.335 0 .64.105.889.277 1.92.63 6.428 1.958 8.778 1.958.449 0 .678-.048.774-.077.248-.076.525-.114.802-.114h-.009Zm-69.55-2.98s-14.328-8.473-20.194-9.342c-5.874-.87-12.761-.344-16.248 1.08-3.486 1.423-7.556 10.077-7.795 12.37-.2 1.89 1.08 11.816 1.548 15.33.105.765 1.299-.19 1.863-1.107 1.767-2.875 4.499-7.365 6.295-7.365 2.693 0 9.695-5.053 9.695-5.053s-.134-.669 2.092.993c2.216 1.662 6.887 1.108 6.887 1.108l15.866-8.014h-.01Z"/><path fill="#000" d="M3.65 44.87c-.87 0-1.567-.63-1.681-1.528C1.299 38.328.21 29.616.42 27.677c.268-2.56 4.5-11.845 8.674-13.555 2.464-1.012 6.495-1.614 10.784-1.614 2.159 0 4.25.153 6.218.44 6.076.907 20.127 9.179 20.72 9.532l2.254 1.328-18.427 9.304-.248.029s-.85.095-1.958.095c-2.637 0-4.643-.497-5.951-1.48a13.068 13.068 0 0 0-.889-.621c-1.939 1.356-7.326 4.967-10.04 4.967-1.126.258-3.916 4.805-4.966 6.515l-.105.162c-.048.086-1.29 2.073-2.818 2.073l-.02.019Zm16.229-29.487c-3.869 0-7.584.535-9.696 1.404-2.741 1.118-6.696 9.123-6.906 11.195-.105 1.032.363 5.856 1.223 12.571 2.589-4.174 4.776-7.298 7.05-7.298 1.47 0 5.884-2.665 8.587-4.585 0-.01.019-.019.029-.029a1.571 1.571 0 0 1 1.232-.563c.563 0 1.232.239 2.808 1.414.774.582 2.312.907 4.232.907.602 0 1.108-.029 1.385-.057l13.249-6.696c-4.232-2.379-13.22-7.231-17.385-7.843a40.125 40.125 0 0 0-5.798-.41l-.01-.01Z"/><path fill="#FBD2D3" d="M124.333 78.59c.879-15.837-8.568-33.538-15.322-43.74-6.753-10.192-15.751-16.716-38.008-19.801-22.257-3.076-34.264 9.17-46.013 23.584C13.24 53.047 8.32 62.647 8.32 76.623c0 13.974 23.04 41.313 60.017 40.386 36.977-.926 55.126-22.581 55.995-38.419Z"/><path fill="#000" d="M54.257 28.498c.965.058 1.682 1.232 1.596 2.627-.087 1.395-.946 2.474-1.91 2.407-.966-.057-1.682-1.232-1.596-2.627.086-1.385.945-2.464 1.91-2.407Zm18.819-2.464c1.05-.277 2.188.64 2.55 2.034.363 1.395-.19 2.751-1.232 3.019-1.05.277-2.187-.64-2.55-2.035-.363-1.394.19-2.75 1.232-3.018Z"/><path fill="#000" stroke="#000" stroke-miterlimit="10" stroke-width="1.5" d="M38.554 50.755c-2.388 9.294 14.94 16 19.076 18.388 4.136 2.388 9.877 4.623 20.614-.086 10.736-4.71 15.465-8.31 16.124-14.663.659-6.361-9.925-11.682-21.875-13.736-11.95-2.053-31.551.812-33.939 10.107v-.01Z"/><path fill="#F4777C" d="M40.206 50.832C38 59.333 53.962 65.456 57.773 67.634c3.811 2.178 9.103 4.222 19.009-.095 9.906-4.318 14.261-7.604 14.873-13.421.611-5.818-9.142-10.68-20.155-12.542-11.014-1.863-29.077.764-31.284 9.256h-.01Z"/><path fill="#000" d="M61.89 55.913c-.039.975-.679 1.806-2.77 1.71-1.395-.057-2.312-.955-2.274-1.93.038-.974 1.203-1.71 2.598-1.652 1.395.058 2.484.889 2.445 1.863v.01Zm15.923-2.215c.125.993-.955 1.948-2.416 2.14-1.462.19-2.751-.469-2.876-1.462-.124-.994.956-1.949 2.417-2.14 1.462-.19 2.751.468 2.875 1.462ZM46.205 79.527c.277-.335 1.423.286 1.423.286s1.892 1.987 3.41 2.56c1.529.573 5.77-.668 5.77-.668s1.06.038 1.395.668c.324.63-.965.764-.965.764s-3.964.822-6.534.373c-2.57-.45-4.49-2.617-4.49-2.617s-.267-1.032 0-1.366h-.009Z"/><path fill="#FBD2D3" d="M43.11 22.968s-13.917-6.2-19.257-6.993c-5.34-.792-9.954-.725-13.125.574-3.171 1.299-6.925 9.303-7.145 11.395-.22 2.092.726 12.266.726 12.266s4.404-7.862 6.849-7.862c2.445 0 7.145-3.534 7.145-3.534s-1.729-1.223-1.872-2.809l.506-1.299s2.961 1.872 4.977 3.391c2.015 1.51 6.782 2.159 6.782 2.159l14.424-7.288h-.01Zm38.515 3.229s11.5-10.002 16.372-12.323c4.872-2.32 9.304-3.6 12.724-3.286 3.42.316 9.342 6.878 10.164 8.817.821 1.94 2.894 11.94 2.894 11.94s-6.505-6.228-8.855-5.511c-2.35.716-7.861-1.29-7.861-1.29s1.299-1.681.974-3.238l-.86-1.099s-2.283 2.656-3.773 4.7c-1.49 2.044-5.855 4.05-5.855 4.05l-15.924-2.75v-.01Z"/></svg>