<svg xmlns="http://www.w3.org/2000/svg" viewBox="0 0 1755.87 2000"><path fill="#050708" d="M1755.8 1337.33q.08-337.44 0-674.87c.91-23-10.64-45.89-29.1-59.45q-402.1-293.8-804.21-587.69a72.07 72.07 0 0 0-58-14C852 3.77 840.74 10 830.71 17.54Q431.47 309.36 32.19 601.13A74.74 74.74 0 0 0 .12 662.85q-.23 337.36 0 674.67c-.35 24.36 12.3 48 32.32 61.72q399.24 291.67 798.32 583.45c25.47 21.78 65.4 23.5 91.68 2.27q400.82-292.66 801.35-585.62c20.11-13.55 33.12-37.61 32.01-62.01"/><path fill="#fff" d="M785.24 162.33c7.06-8 14.22-20.47 26.63-18.81 42.21.25 84.52-.66 126.72.45 7.31 4.54 12.91 11.35 19.16 17.2q-.23 65.35 0 130.71c-12.56.15-25.16.71-37.72-.15-.76-3.08-2.27-9.13-3-12.2 0-32.53 2.82-65.1.1-97.58q-46.52.08-93 0c-.15 10.94-.2 21.94-.3 32.88-13.06 0-26.17 0-39.28-.1.09-17.41-1.83-35.11.69-52.4M680 215.48c14.27-.55 28.54-.55 42.86-.2.2 60.26.45 120.47-.15 180.68-13.62.3-27.23.3-40.8.2-4.53-60.01-.91-120.47-1.91-180.68m363 64.75c38-.5 75.94-.35 113.92-.1.2 13.92.2 27.79.05 41.7-38 .4-76 .55-114-.1-.14-13.82-.14-27.73.03-41.5m-230.42 20.52c15.33-.35 30.66-.3 46-.3 14.67 28.54 33.08 55.17 45 85.07-14.07.66-28.19.66-42.26.71-16.72-28.23-32.86-56.79-48.74-85.48m156.52 50.18c13.26-.3 26.52-.25 39.84-.05 36.11 56 71.2 112.66 107.56 168.53-.05 17 .05 34-.3 51-3.93-.71-11.7-2.07-15.58-2.72-30.86-46-59.25-93.64-89.76-139.84-.5 52 .15 104-.35 156q-20.73.38-41.55 0c-.16-77.61-.41-155.27.14-232.92m164.8 31.51c14.12-.3 28.29-.3 42.41.1.1 13.31.1 26.68 0 40-14.12.35-28.29.35-42.36.1q-.15-20.05-.05-40.2M435.83 395.6c11.14-.2 22.29-.15 33.43-.05 29.75-2 59.45-1.41 89.21.3.1 12.91.05 25.87-.1 38.78-44 26.42-86.28 55.72-130.91 81-13.16-5-23.2-15.53-33.94-24.31 29.2-17.8 57.79-36.56 87.29-53.86-14.93-.76-29.9-.66-44.83-.81q-.38-20.57-.15-41.05m351.99 15.33c13.67-.4 27.38-.35 41 0 .35 13.72.35 27.38.05 41.1q-20.5.61-41 .05-.48-20.57-.05-41.15m-200.61 40.14c21.89 33.18 43.12 66.82 65.3 99.8 22.14-33.38 43.52-67.27 65.86-100.5 0 22 1.46 44.23-.45 66.21-20.27 34.74-43.72 67.57-65.56 101.36-21.48-33.23-44.23-65.76-64.6-99.64-2.31-22.3-.65-44.84-.55-67.23m605.99 5.6q98.56-.45 197.12.05c.05 13.31.05 26.68-.05 40q-98.49.23-197.07.05c-.05-13.37-.1-26.77 0-40.1m-347.8 52.04c13.21-.25 26.47-.25 39.74-.1.66 58.29-.05 116.64.35 175-6.15 5.85-12.25 11.8-18.25 17.75-45.54.5-91.07.05-136.56.25-6-5.75-12.15-11.25-17.55-17.45-2.32-17.85-.61-36.06-.66-54q19.06-.15 38.12 0c.35 10.29.3 20.57.15 30.86 31.32 3.53 62.88 1 94.35 1.76.16-51.35-.34-102.78.31-154.07M1480.64 681q-.61-66 0-132.07c13.77-.3 27.53-.35 41.35 0q.68 66-.05 132.12c-13.77.23-27.53.18-41.3-.05m-196.21-98.81c26-.25 52.14-4.29 78-.1 16.94 55.22 31.47 111.29 48.31 166.61-13.31.1-26.68.1-40 .1-12.71-42.91-23.55-86.33-36.66-129.15-7.31.1-14.62.2-21.94.25-10.89 43.22-24 85.78-35.25 128.84q-20.12.08-40.24-.05c16.51-55.31 31.99-110.98 47.78-166.5M172.85 603.27c59.91-.35 119.87-.5 179.77.05.35 13.77.35 27.48.05 41.25-60 .55-119.92.4-179.88.05-.19-13.77-.19-27.62.06-41.35m208.02.05c13.62-.1 27.23-.15 40.9-.05.3 13.82.3 27.68 0 41.5-13.67.15-27.28.1-40.9-.05-.16-13.82-.16-27.59 0-41.4M531.44 605c13.36-.1 26.78-.05 40.14.1.4 32 .2 64.09.2 96.12-13.57.1-27.13.15-40.64.05-.14-32.05-.56-64.17.3-96.27m1047.23 28.77c15.38-.3 30.81-.25 46.19-.3 15.23 28.24 33.74 55 45.08 85.17-14 .5-28.09.55-42.11.61-16.58-28.39-32.37-57.25-49.16-85.48M972.33 668q20-.15 40 .05c.3 43.87.1 87.74.1 131.62-13.41.1-26.78.15-40.19.15.04-43.91-.06-87.88.09-131.82M1113 721.37q-.23-20.57.05-41.25c13.46-.2 27-.2 40.49.15.05 13.72.1 27.43-.1 41.15-13.44.05-26.95 0-40.44-.05m-761.08 60.81c32.32-23.6 66.82-44.12 100-66.41 21.94.25 43.82-.05 65.76.3-32.58 23.3-67.22 43.42-100 66.41 33.69 21.18 66.72 43.37 100.2 64.75-22.54.4-45.08.15-67.62.2-32.53-22.08-66.32-42.43-98.34-65.25m1128.77-38.27c13.82-.3 27.63-.35 41.5-.05.35 13.82.3 27.58-.1 41.4-13.77.3-27.58.25-41.35-.05q-.45-20.65-.05-41.3M62.06 749.56c69-.4 138.12-.55 207.21.1.15 13.06.15 26.17.2 39.28-30.86 20.22-61.72 40.54-93.44 59.3-13.41-4.89-23.55-16-35-24.15 17.09-10.79 34.44-21.23 51-32.78-43.32-.2-86.63.25-130-.25q-.3-20.73.03-41.5m590.81 40.04c59.76.25 119.51-.3 179.22.25a170.33 170.33 0 0 1-.55 40.85c-59.56.25-119.06.05-178.56.1q-.16-20.66-.11-41.2m218.25.25c14.37-.3 28.69-.3 43.07.2q.08 20.12-.05 40.14c-14.32.4-28.69.4-43 .15-.14-13.51-.14-26.98-.02-40.49m187.95 57.79c-1.87-14.17 12.66-21.43 20.12-31.16 17.55.05 35.1-.1 52.65.25.4 13.21.4 26.42.2 39.69-11.09.2-22.24.2-33.33.35v94.1c51.59.35 103.17-.2 154.76.3.15 13.36.15 26.73-.2 40-58.09.4-116.24.05-174.33.2-7.41-9.68-21.63-17-19.82-31.06q-.38-56.31-.05-112.67m195.6-12.51c14.22-.5 28.54-.5 42.81.05q.23 20.42-.05 40.85c-14.27.5-28.49.5-42.76.05-.15-13.67-.15-27.28 0-40.95m135.91 0c60.11-.81 120.17-.25 180.28-.3.1 13.87.1 27.79-.05 41.65-60.06 0-120.12.5-180.18-.25q-.3-20.57-.05-41.1m-832.66 47.96c33.69-.05 67.32 0 101-.05.3 14 .3 28-.05 42q-50.45.08-100.86 0-.88-21.04-.09-41.95m222.13 0c52.85-.05 105.7.05 158.54-.1 19.21-3 38.43 16.94 36 35.9q-.15 58.24-.05 116.59c-6.76 7.31-13.56 14.52-20.37 21.78-17.5 0-34.95.05-52.44-.2q-.23-20-.05-39.94c10.94-.15 21.89-.25 32.83-.4.05-30.56-.05-61.17.1-91.73-51.34-4.59-103.07-.76-154.56-2.12q-.2-19.96 0-39.78m-372.46 12.3c25.82-.15 51.59-.3 77.41.1 15.63 55.82 32.42 111.34 47.2 167.42-13 0-26 0-38.93.1-13.26-43.07-23.5-86.94-37.17-129.8-7.36.45-14.72 1-22.09 1.56-9.78 43.17-23.75 85.22-34.44 128.19-13.36-.05-26.73-.05-40-.15 15.9-55.81 31.73-111.7 48.02-167.42M1534 945.82c45-.45 90.06-.91 135 .15 11.35 7 24.15 18.36 21.68 33.28 0 32-.2 64.09 0 96.12-.4 15.38.3 30.76-.15 46.14.71 12.56-2.72 24.91-2 37.52-12.81-.05-25.62 0-38.43-.15.15-57.79 0-115.63.1-173.42-31.42-.86-62.83-.2-94.25-.45-.05 10.74-.05 21.48-.25 32.27q-19.82.3-39.64.2c-.25-17.7-.2-35.45-.15-53.15 6.09-6.1 12.09-12.26 18.09-18.51m-1280.57 1.61h41.8c.1 43.92 0 87.79.05 131.67h-42c.2-43.87.05-87.79.15-131.67m-131.16 36.72c13.72-.2 27.43.2 41.1 1.11q.23 19.52 0 39.08c-13.82.15-27.63.2-41.45-.05-.15-13.42-.1-26.78.35-40.14m491.17 240.69q-.53-116.49-.05-233c13.62-.2 27.23-.2 40.85.1 32 51.59 65 102.62 97.68 153.85 14.12 18.2 5.65 42.61 7.92 63.79-4.74.05-9.48.1-14.17.2-29.4-46.7-60.11-92.59-88.25-140-5.09 51.54-.91 103.53-2.57 155.27-13.85.14-27.65.14-41.41-.21M795 1021.71q20.8-.45 41.6-.1c.2 33.94.15 67.88.05 101.81-13.92.25-27.79.25-41.7-.1-.23-33.88-.28-67.77.05-101.61m251.41 45.39c13.57-.1 27.18-.15 40.8 0q.38 20.73 0 41.45-20.42.08-40.8-.05-.23-20.65 0-41.4m132.27 1.81c42.26-.55 84.52-.25 126.83-.15 1.71 12.35 2.77 24.91 1.56 37.42-4 8.12-13.57 4.89-20.73 5.65-36-1.06-72.11 2.07-107.86-2-.25-13.69-.25-27.3.2-40.92m170.5 5.85c13.62-.2 27.38-1.11 40.95 1 1.31 47.7.55 95.56.3 143.32q-20.65.38-41.25-.05-.68-72.13 0-144.27M972.33 1103c13.31-.05 26.68-.1 40 .05.15 13.72.2 27.48 0 41.3q-20 .3-40 0c-.1-13.76-.1-27.58 0-41.35m-641.14 29.35c47.5-5.14 95.46-1.06 143.16-2.57a320.65 320.65 0 0 1 36.81 1.66c.2 13.87.15 27.79.05 41.65-60-.1-119.87.3-179.77-.2-.35-13.51-.35-27.02-.25-40.54M62.11 1163c6.51-6.35 13.06-12.76 19.62-19.11 17.35-.1 34.69-.15 52 .2.2 13.11.2 26.27.1 39.38-10.79.25-21.53.3-32.32.4.25 31.27-.15 62.53.25 93.8 51.08.15 102.17-.35 153.25.25.25 12.91.25 25.77.15 38.68-12.66.05-25.37.1-38 .1-45.33-.45-90.72.76-136.05-.55-7.56-4.29-15.18-11.35-18.61-19.36-1.19-44.57-.14-89.2-.39-133.79m1059.74 26c6.81-6.4 13.67-12.81 20.68-19.06 44.17.35 88.35.05 132.52.15 6.66 6.35 13.31 12.76 20 19.06q.08 65.58.05 131.11c-13.46.1-26.93.05-40.34-.35-.05-36.76-.3-73.47.15-110.23-31-.05-61.87 0-92.79-.05.05 11.19 0 22.39-.25 33.58-13.26.2-26.52.2-39.74.15-.43-18.12-.33-36.22-.28-54.36m283.6 77.19c49-31.92 98.49-63 147.9-94.2 11.8 7.87 23.4 16.14 34.9 24.41q-53.33 34-106.6 67.83c52.19.55 104.39-.05 156.63.3.1 13.87.1 27.79-.05 41.65q-116.34.38-232.67.05c-.21-13.37-.21-26.73-.11-40.04m-554.55 7.91c49.17-32.73 99.9-63.09 149.06-95.81 11.7 8.07 23.25 16.29 35.15 24.05-34 23.9-70.09 44.73-104.74 67.77 51.89.91 103.78-.1 155.67.55.35 14.27.35 28.59-.05 42.86-77.66.45-155.32.15-233 .15-1.99-13.09-1.99-26.35-2.09-39.57m-510.43-35.3c21.58 33 43.22 66 64.55 99.09 22.89-32.68 43.37-67 66.06-99.85.45 22.24.1 44.53.3 66.77-22.59 33.08-43.27 67.47-66.46 100.1-21.48-32.78-42.31-66-64.7-98.18-.22-22.64-.45-45.33.25-67.93M577 1323.47c-.5-14.12-.55-28.24.25-42.31 13.57-.15 27.23-.1 40.8 1q.45 20.65-.05 41.3c-13.64.11-27.31.16-41 .01m192.26 20.38c13.77-.15 27.58-.2 41.35-.05.35 51.28 0 102.57.2 153.85-9.78.4-19.57.86-29.35 1.76-3.13-.61-9.38-1.71-12.51-2.27.31-51.08-.25-102.21.31-153.29m284.86 32.15c26-.5 51.94-.15 77.91-.3q23.9 83.74 47.86 167.47c-13.41.05-26.83.05-40.19-.3-11.4-42.66-23.75-85.07-35.35-127.68-7.26-.45-14.52-.76-21.78-1.11q-18 64.6-35.9 129.15c-13.41-.05-26.78-.05-40.14-.2 16.33-55.57 32.57-111.14 47.59-167.03m-588.74 92.5c49.47-31.77 98.84-63.74 149-94.45 11.55 8.12 23.2 16 34.64 24.31-35.9 22.34-71.1 45.84-107.36 67.57 52.55 1 105.14-.15 157.74.61.25 13.82.3 27.63-.1 41.45-77.91.25-155.82.61-233.73-.15-.39-13.12-.34-26.23-.19-39.34M874 1384.19a303.67 303.67 0 0 0 43.32-2.62c17 28 37.06 55.77 45.79 87.64-13.56.1-27.13.1-40.64.2q-23.94-42.81-48.47-85.22m572.7 17.09c14.17-.45 28.39-.45 42.61-.15q.08 20.35 0 40.75c-14.22.35-28.39.35-42.56-.25-.25-13.47-.25-26.88-.05-40.35m-104.43 108.52c17.15-27.58 35.5-54.36 52.75-81.89.5 20.42.81 40.9.3 61.37.5 7.67-5.09 13.62-8.67 19.82-19 28.09-37.22 56.73-55.87 85-22.44-33.48-44.17-67.32-66.36-101-.1-22.39-.3-44.78.25-67.12 21.78 32.63 42.36 66.11 64.65 98.43 6.29-2.66 9.12-9.41 12.95-14.61m-1055.35-39.68c36.36-1.21 72.77-.61 109.18-.35.2 13.46 1.06 27-.66 40.44-36.11 1.76-72.36.91-108.47.25-.15-13.46-.15-26.88-.05-40.34M730.18 1558c58.29-.86 116.54-.05 174.83-.45q10 10 20 20.12c-.25 44.53-.15 89.11-.1 133.73q-8.77 9.15-17.35 18.51c-18.66.4-37.32.45-56-.1.25-12.61-1.36-25.47 1.66-37.82 10.54-1.11 21.13-.71 31.77-.81.1-31.21 0-62.38.05-93.54-51.64-.3-103.33.66-154.91-.5q-.23-19.59.05-39.14m-280.03 14.84q20.42-.3 40.9.1.3 20.42.05 40.95-20.57.3-41 .05-.28-20.58.05-41.1m721.22 22.03c15.43-13 29.45 8.67 42.66 15 0 1.21.05 3.68.05 4.89-34.49 22.24-69.79 43.27-103.53 66.67l19.57-.15q15.58 0 31.27.35c.1 13.62.1 27.28-.1 40.9-42.46.61-84.92.45-127.38.1-.86-12.86-1-25.77-1.11-38.58 45.33-31.05 92.63-59.05 138.57-89.18m-644.62 37.82c55.12-.2 110.29-.5 165.4.15q.15 20.35 0 40.75c-55.17.81-110.29.45-165.45.2-.25-13.71-.2-27.43.05-41.1m146.9 104.69c15.53-.15 31.06-.2 46.6.1 14.37 28.59 33.48 54.92 44.53 85.12-13.92.76-27.79.76-41.7.86-17.01-28.39-32.89-57.46-49.43-86.08m275.28 43.47c13.57-.1 27.13.1 40.64 1 .25 13.57.15 27.18-1.56 40.7q-19.44.08-38.78 0c-.5-13.96-.5-27.83-.3-41.7m-94.55 134.95c.05-31.67-.71-63.39.5-95.06 13.67.05 27.38.76 41 2q.23 46.52 0 93.09-20.75.32-41.5-.03"/></svg>