<svg xmlns="http://www.w3.org/2000/svg" viewBox="0 0 500 332">
  <path fill="#76B900" d="M51.085 142.924s45.207-66.93 135.471-73.855V44.787C86.577 52.844 0 137.814 0 137.814s49.036 142.245 186.556 155.269v-25.81C85.637 254.533 51.085 142.924 51.085 142.924Zm135.471 73.018v23.638c-76.272-13.645-97.444-93.205-97.444-93.205s36.622-40.709 97.444-47.311v25.938c-.047 0-.079-.014-.117-.014-31.923-3.845-56.86 26.08-56.86 26.08s13.977 50.377 56.977 64.874Zm0-215.942v44.787c2.935-.226 5.869-.417 8.82-.518 113.665-3.844 187.725 93.545 187.725 93.545s-85.06 103.79-173.679 103.79c-8.121 0-15.725-.756-22.866-2.026v27.695c6.106.778 12.438 1.235 19.045 1.235 82.466 0 142.102-42.261 199.849-92.279 9.574 7.694 48.77 26.413 56.828 34.607-54.906 46.128-182.867 83.311-255.413 83.311-6.993 0-13.708-.425-20.309-1.064V332H500V0H186.556Zm0 99.064V69.069c2.904-.203 5.831-.358 8.82-.453 81.736-2.576 135.361 70.482 135.361 70.482s-57.919 80.719-120.021 80.719c-8.937 0-16.949-1.442-24.16-3.875v-90.94c31.82 3.858 38.222 17.962 57.352 49.963l42.548-36s-31.059-40.874-83.416-40.874c-5.691-.002-11.137.399-16.484.973Z"/>
</svg>
