<svg xmlns="http://www.w3.org/2000/svg" width="300" height="300" preserveAspectRatio="xMidYMid" viewBox="0 0 245 245"><defs><clipPath id="a"><path d="M10 10.89h45.707v37.993H10Zm0 0"/></clipPath><clipPath id="b"><path d="M28.61 10.89h21.183c1.895 0 3.672.91 4.777 2.446a5.87 5.87 0 0 1 .809 5.305l-7.496 22.488a11.34 11.34 0 0 1-10.754 7.754H15.94c-1.89 0-3.668-.91-4.777-2.446a5.9 5.9 0 0 1-.809-5.308l7.497-22.488a11.34 11.34 0 0 1 10.757-7.75m0 0"/></clipPath><clipPath id="d"><path d="M0 .89h45.707v37.993H0Zm0 0"/></clipPath><clipPath id="e"><path d="M18.61.89h21.183c1.895 0 3.672.91 4.777 2.446a5.87 5.87 0 0 1 .809 5.305l-7.496 22.488a11.34 11.34 0 0 1-10.754 7.754H5.94c-1.89 0-3.668-.91-4.777-2.446a5.9 5.9 0 0 1-.809-5.308L7.852 8.64A11.34 11.34 0 0 1 18.609.89m0 0"/></clipPath><clipPath id="c"><path d="M0 0h46v39H0z"/></clipPath><clipPath id="f"><path d="M.883 3H52v40H.883Zm0 0"/></clipPath><clipPath id="i"><path d="M3.11.895h45.71V38.89H3.11Zm0 0"/></clipPath><clipPath id="j"><path d="M21.723.895h21.183a5.892 5.892 0 0 1 5.59 7.754L41 31.136a11.35 11.35 0 0 1-10.758 7.754H9.055a5.89 5.89 0 0 1-5.586-7.754l7.496-22.489A11.34 11.34 0 0 1 21.723.895m0 0"/></clipPath><clipPath id="l"><path d="M.11.895h45.71V38.89H.11Zm0 0"/></clipPath><clipPath id="m"><path d="M18.723.895h21.183a5.892 5.892 0 0 1 5.59 7.754L38 31.136a11.35 11.35 0 0 1-10.758 7.754H6.055a5.89 5.89 0 0 1-5.586-7.754L7.965 8.648A11.34 11.34 0 0 1 18.723.895m0 0"/></clipPath><clipPath id="k"><path d="M0 0h46v39H0z"/></clipPath><clipPath id="h"><path d="M0 0h52v40H0z"/></clipPath><clipPath id="o"><path d="M61 0h151v52.004H61Zm0 0"/></clipPath><clipPath id="p"><path d="M0 0h151v53H0z"/></clipPath><filter id="n" width="1" height="1" x="0" y="0" filterUnits="objectBoundingBox"><feColorMatrix in="SourceGraphic" values="0 0 0 0 1 0 0 0 0 1 0 0 0 0 1 0 0 0 1 0"/></filter></defs><rect width="100%" height="100%" rx="28" ry="28"/><g clip-path="url(#a)" transform="matrix(4 0 0 4 3.936 19.313)"><g clip-path="url(#b)"><g clip-path="url(#c)" transform="translate(10 10)"><g clip-path="url(#d)"><g clip-path="url(#e)"><path d="M-2.23.89h50.164v37.993H-2.23Zm0 0" fill="#fff"/></g></g></g></g></g><g clip-path="url(#f)" transform="matrix(4 0 0 4 3.936 19.313)"><g mask="url(#g)" transform="translate(0 3)"><g clip-path="url(#h)"><g clip-path="url(#i)"><g clip-path="url(#j)"><g clip-path="url(#k)" transform="translate(3)"><g clip-path="url(#l)"><g clip-path="url(#m)"><path d="M-2.117.895h50.164V38.89H-2.117Zm0 0" fill="#ff3131"/></g></g></g></g></g></g><mask id="g"><g filter="url(#n)"><path d="M0 0h213.75v52.5H0z" fill-opacity=".8"/></g></mask></g></g><g clip-path="url(#o)" transform="matrix(4 0 0 4 3.936 19.313)"><g clip-path="url(#p)" transform="translate(61)" fill="#fff"><path d="M16.025 44.593q-3.955 0-7.015-1.735-3.048-1.746-4.766-4.875-1.72-3.123-1.719-7.265c0-2.657.57-5 1.719-7.032a12.43 12.43 0 0 1 4.75-4.797q3.03-1.748 7.031-1.75c2.664 0 5.016.586 7.047 1.75a12.43 12.43 0 0 1 4.781 4.797q1.719 3.047 1.72 7.032c0 2.73-.571 5.136-1.704 7.218a12.25 12.25 0 0 1-4.75 4.891m18.199 1.25h-6.344V17.702h6.344v3.344q1.594-2.217 3.328-3.063 1.748-.843 3.86-.843 3.62 0 5.484 1.296 1.858 1.285 2.75 3.125.796 1.736.937 3.547.14 1.814.14 3.782v15.187h-6.296V28.796c0-1.344-.11-2.43-.328-3.266q-.33-1.249-1-2-1.125-1.172-3.328-1.172-2.688 0-4 1.594-.797.939-1.172 2.5-.375 1.547-.375 4.172zM67.306 14.78q-1.595 0-2.75-.984-1.159-.985-1.157-2.625-.002-1.606 1.156-2.61 1.156-1.014 2.75-1.015 1.593.001 2.75 1.015 1.156 1.004 1.157 2.61-.001 1.64-1.156 2.625-1.159.984-2.75.984m3.156 29.297h-6.344V17.702h6.344zm17.115.516q-3.44 0-6.078-1.735-2.627-1.748-4.094-4.843-1.453-3.108-1.453-7.158 0-4.03 1.453-7.125 1.467-3.107 4.094-4.843 2.638-1.749 6.078-1.75c1.563 0 2.93.277 4.11.828q1.764.815 3.359 3.078V8.201h6.343v35.876h-6.342v-3.344q-1.595 2.22-3.36 3.047-1.768.812-4.109.813m1.453-5.453q3.047 0 4.922-2.297 1.889-2.31 1.89-5.985-.002-3.656-1.89-5.953-1.875-2.31-4.922-2.312-3.017 0-4.844 2.328-1.828 2.33-1.828 5.937 0 3.581 1.828 5.938 1.828 2.343 4.844 2.343m31.211 5.454q-4.048.002-7.078-1.766a12.3 12.3 0 0 1-4.703-4.812q-1.673-3.061-1.672-6.954 0-2.59.797-5.078a13.7 13.7 0 0 1 2.453-4.5q1.641-1.999 4.125-3.172 2.498-1.171 5.89-1.172 2.53 0 4.907.797 2.374.799 4.25 2.47 1.888 1.674 2.985 4.265 1.108 2.577 1.109 6.14v1.375h-19.922q.095.845.375 1.672.281.814.61 1.422.934 1.846 2.515 2.86 1.577 1 3.594 1 2.248 0 3.781-1.172 1.53-1.171 2.14-2.782h6.485q-.75 2.55-2.39 4.688c-1.094 1.43-2.493 2.574-4.188 3.437q-2.534 1.28-6.063 1.282m-6.578-17.157h13.157a5.4 5.4 0 0 0-.266-1.172 3.6 3.6 0 0 0-.719-1.28 5.6 5.6 0 0 0-2.375-2.11 7.4 7.4 0 0 0-3.219-.703q-1.735 0-3.171.703c-.961.469-1.75 1.172-2.376 2.11q-.516.61-.734 1.28a10 10 0 0 0-.297 1.172m35.103 16.641h-4.079q-2.922 0-4.515-1.36c-1.062-.912-1.594-2.39-1.594-4.42V8.203h6.344v28.219q-.001 1.313.484 1.86.5.531 1.672.53h1.688zm0 0"/></g></g></svg>
