<svg xmlns="http://www.w3.org/2000/svg" width="300" height="300" preserveAspectRatio="xMidYMid" viewBox="0 0 225 225"><defs><clipPath id="a"><path d="M10 10.89h45.707v37.993H10Zm0 0"/></clipPath><clipPath id="b"><path d="M28.61 10.89h21.183c1.895 0 3.672.91 4.777 2.446a5.87 5.87 0 0 1 .809 5.305l-7.496 22.488a11.34 11.34 0 0 1-10.754 7.754H15.94c-1.89 0-3.668-.91-4.777-2.446a5.9 5.9 0 0 1-.809-5.308l7.497-22.488a11.34 11.34 0 0 1 10.757-7.75m0 0"/></clipPath><clipPath id="d"><path d="M0 .89h45.707v37.993H0Zm0 0"/></clipPath><clipPath id="e"><path d="M18.61.89h21.183c1.895 0 3.672.91 4.777 2.446a5.87 5.87 0 0 1 .809 5.305l-7.496 22.488a11.34 11.34 0 0 1-10.754 7.754H5.94c-1.89 0-3.668-.91-4.777-2.446a5.9 5.9 0 0 1-.809-5.308L7.852 8.64A11.34 11.34 0 0 1 18.609.89m0 0"/></clipPath><clipPath id="c"><path d="M0 0h46v39H0z"/></clipPath><clipPath id="f"><path d="M.883 3H52v40H.883Zm0 0"/></clipPath><clipPath id="i"><path d="M3.11.895h45.71V38.89H3.11Zm0 0"/></clipPath><clipPath id="j"><path d="M21.723.895h21.183a5.892 5.892 0 0 1 5.59 7.754L41 31.136a11.35 11.35 0 0 1-10.758 7.754H9.055a5.89 5.89 0 0 1-5.586-7.754l7.496-22.489A11.34 11.34 0 0 1 21.723.895m0 0"/></clipPath><clipPath id="l"><path d="M.11.895h45.71V38.89H.11Zm0 0"/></clipPath><clipPath id="m"><path d="M18.723.895h21.183a5.892 5.892 0 0 1 5.59 7.754L38 31.136a11.35 11.35 0 0 1-10.758 7.754H6.055a5.89 5.89 0 0 1-5.586-7.754L7.965 8.648A11.34 11.34 0 0 1 18.723.895m0 0"/></clipPath><clipPath id="k"><path d="M0 0h46v39H0z"/></clipPath><clipPath id="h"><path d="M0 0h52v40H0z"/></clipPath><clipPath id="o"><path d="M61 0h151v52.004H61Zm0 0"/></clipPath><clipPath id="p"><path d="M0 0h151v53H0z"/></clipPath><filter id="n" width="1" height="1" x="0" y="0" filterUnits="objectBoundingBox"><feColorMatrix in="SourceGraphic" values="0 0 0 0 1 0 0 0 0 1 0 0 0 0 1 0 0 0 1 0"/></filter></defs><g clip-path="url(#a)" transform="matrix(4 0 0 4 -6.064 9.313)"><g clip-path="url(#b)"><g clip-path="url(#c)" transform="translate(10 10)"><g clip-path="url(#d)"><g clip-path="url(#e)"><path d="M-2.23.89h50.164v37.993H-2.23Zm0 0" style="fill:#fff;fill-opacity:1;fill-rule:nonzero;stroke:none"/></g></g></g></g></g><g clip-path="url(#f)" transform="matrix(4 0 0 4 -6.064 9.313)"><g mask="url(#g)" transform="translate(0 3)"><g clip-path="url(#h)"><g clip-path="url(#i)"><g clip-path="url(#j)"><g clip-path="url(#k)" transform="translate(3)"><g clip-path="url(#l)"><g clip-path="url(#m)"><path d="M-2.117.895h50.164V38.89H-2.117Zm0 0" style="fill:#ff3131;fill-opacity:1;fill-rule:nonzero;stroke:none"/></g></g></g></g></g></g><mask id="g"><g filter="url(#n)"><path d="M0 0h213.75v52.5H0z" style="fill:#000;fill-opacity:.8;stroke:none"/></g></mask></g></g><g clip-path="url(#o)" transform="matrix(4 0 0 4 -6.064 9.313)"><g clip-path="url(#p)" transform="translate(61)"><g style="fill:#fff;fill-opacity:1"><path d="M15.281.516q-3.955 0-7.015-1.735Q5.218-2.965 3.5-6.094q-1.72-3.123-1.719-7.265c0-2.657.57-5 1.719-7.032a12.43 12.43 0 0 1 4.75-4.797q3.03-1.748 7.031-1.75c2.664 0 5.016.586 7.047 1.75a12.43 12.43 0 0 1 4.781 4.797q1.719 3.047 1.72 7.032c0 2.73-.571 5.136-1.704 7.218a12.25 12.25 0 0 1-4.75 4.891Q19.327.518 15.281.516m0-5.453c2.07 0 3.75-.782 5.031-2.344q1.923-2.357 1.922-6.078-.001-2.344-.875-4.172-.862-1.842-2.422-2.89-1.546-1.062-3.656-1.063-2.017 0-3.625 1.03c-1.062.688-1.89 1.65-2.484 2.876q-.89 1.828-.89 4.219 0 3.767 1.968 6.093 1.968 2.33 5.031 2.329m0 0" style="stroke:none" transform="translate(.744 44.077)"/></g><g style="fill:#fff;fill-opacity:1"><path d="M9.219 0H2.875v-26.375h6.344v3.344q1.594-2.217 3.328-3.063 1.748-.843 3.86-.843 3.62 0 5.484 1.296 1.858 1.285 2.75 3.125.796 1.736.937 3.547.14 1.814.14 3.782V0h-6.296v-15.281c0-1.344-.11-2.43-.328-3.266q-.33-1.249-1-2-1.125-1.172-3.328-1.172-2.688 0-4 1.594-.797.939-1.172 2.5-.375 1.547-.375 4.172zm0 0" style="stroke:none" transform="translate(32.099 44.077)"/></g><g style="fill:#fff;fill-opacity:1"><path d="M6.063-29.297q-1.595 0-2.75-.984c-.774-.657-1.157-1.532-1.157-2.625q-.002-1.606 1.156-2.61 1.156-1.014 2.75-1.015 1.593.001 2.75 1.015 1.156 1.004 1.157 2.61-.001 1.64-1.156 2.625c-.774.656-1.688.984-2.75.984M9.219 0H2.875v-26.375h6.344zm0 0" style="stroke:none" transform="translate(61.243 44.077)"/></g><g style="fill:#fff;fill-opacity:1"><path d="M13.5.516q-3.44 0-6.078-1.735C5.672-2.383 4.305-4 3.328-6.062Q1.875-9.17 1.875-13.22q0-4.03 1.453-7.125 1.467-3.107 4.094-4.843 2.638-1.749 6.078-1.75c1.563 0 2.93.277 4.11.828q1.764.815 3.359 3.078v-12.844h6.343V0H20.97v-3.344q-1.595 2.22-3.36 3.047-1.768.812-4.109.813m1.453-5.453q3.047 0 4.922-2.297 1.889-2.31 1.89-5.985-.002-3.656-1.89-5.953-1.875-2.31-4.922-2.312-3.017 0-4.844 2.328-1.828 2.33-1.828 5.937 0 3.581 1.828 5.938c1.22 1.562 2.832 2.343 4.844 2.343m0 0" style="stroke:none" transform="translate(74.077 44.077)"/></g><g style="fill:#fff;fill-opacity:1"><path d="M15.234.516c-2.699 0-5.058-.586-7.078-1.766a12.3 12.3 0 0 1-4.703-4.812Q1.78-9.123 1.781-13.016q0-2.59.797-5.078a13.7 13.7 0 0 1 2.453-4.5q1.641-1.999 4.125-3.172c1.664-.78 3.63-1.172 5.89-1.172q2.53 0 4.907.797 2.374.799 4.25 2.47 1.888 1.674 2.985 4.265 1.108 2.577 1.109 6.14v1.375H8.375q.095.845.375 1.672.281.814.61 1.422.934 1.846 2.515 2.86 1.577 1 3.594 1 2.248 0 3.781-1.172 1.53-1.171 2.14-2.782h6.485q-.75 2.55-2.39 4.688c-1.094 1.43-2.493 2.574-4.188 3.437C19.609.086 17.586.516 15.234.516M8.656-16.641h13.157a5.4 5.4 0 0 0-.266-1.172 3.6 3.6 0 0 0-.719-1.28 5.6 5.6 0 0 0-2.375-2.11 7.4 7.4 0 0 0-3.219-.703q-1.735 0-3.171.703c-.961.469-1.75 1.172-2.376 2.11q-.516.61-.734 1.28a10 10 0 0 0-.297 1.172m0 0" style="stroke:none" transform="translate(105.008 44.077)"/></g><g style="fill:#fff;fill-opacity:1"><path d="M12.969 0H8.89Q5.968 0 4.375-1.36C3.313-2.272 2.781-3.75 2.781-5.78v-30.094h6.344v28.219q-.001 1.313.484 1.86.5.531 1.672.53h1.688zm0 0" style="stroke:none" transform="translate(135.798 44.077)"/></g></g></g></svg>