<svg width="464" height="297" viewBox="0 0 464 297" fill="none" xmlns="http://www.w3.org/2000/svg">
<g clip-path="url(#clip0_587_556)">
<path d="M135.99 108C144.91 108 152.86 112.18 157.98 118.68C161.23 104.79 168.3 92.35 178.01 82.54C166.43 73.43 151.84 68 135.99 68C98.43 68 68 98.45 68 136C68 173.55 98.43 204 135.99 204C142.95 204 149.66 202.95 155.99 201.01V155.59C150.91 160.78 143.82 164 135.99 164C120.52 164 108 151.47 108 136C108 120.53 120.53 108 135.99 108Z" fill="#4642FF"/>
<path d="M185.999 186.52C190.869 190.91 196.869 194.61 202.859 197.46C211.689 201.65 221.559 204 231.989 204C238.949 204 245.659 202.95 251.979 201.01V155.59C246.899 160.78 239.819 164 231.989 164C216.519 164 203.989 151.47 203.989 136H185.999V186.52Z" fill="#4642FF"/>
<path d="M274.009 82.54C264.299 92.35 257.229 104.79 253.979 118.68C248.859 112.18 240.919 108 231.999 108C216.529 108 203.999 120.54 203.999 136H164.009C164.009 98.45 194.429 68 231.989 68C247.839 68 262.429 73.43 273.999 82.54H274.009Z" fill="url(#paint0_linear_587_556)"/>
<path fill-rule="evenodd" clip-rule="evenodd" d="M164.009 228V135H204.009V188C204.009 210.09 186.099 228 164.009 228Z" fill="#80AEFF"/>
<path d="M327.999 68C290.439 68 259.999 98.45 259.999 136C259.999 173.55 290.439 204 327.999 204C365.559 204 395.999 173.56 395.999 136C395.999 98.44 365.549 68 327.999 68ZM327.999 164C312.529 164 299.999 151.47 299.999 136C299.999 120.53 312.529 108 327.999 108C343.469 108 355.999 120.54 355.999 136C355.999 151.46 343.459 164 327.999 164Z" fill="url(#paint1_linear_587_556)"/>
<path d="M259.999 136H299.999V188.22C299.999 210.18 282.169 228 260.219 228H259.999V136Z" fill="#80AEFF"/>
</g>
<defs>
<linearGradient id="paint0_linear_587_556" x1="219.009" y1="136" x2="219.009" y2="68" gradientUnits="userSpaceOnUse">
<stop offset="0.1" stop-color="#80AEFF"/>
<stop offset="1" stop-color="#4642FF"/>
</linearGradient>
<linearGradient id="paint1_linear_587_556" x1="327.999" y1="68.82" x2="327.999" y2="202.85" gradientUnits="userSpaceOnUse">
<stop offset="0.5" stop-color="#80AEFF"/>
<stop offset="1" stop-color="#4642FF"/>
</linearGradient>
<clipPath id="clip0_587_556">
<rect width="328" height="160" fill="white" transform="translate(68 68)"/>
</clipPath>
</defs>
</svg>
