<svg xmlns="http://www.w3.org/2000/svg" fill="none" viewBox="0 0 498 499"><path fill="#444" d="M411.491 249.489c0 5.009-.248 9.972-.677 14.891h-92.467l-7.059-14.327-50.226 100.29-41.565-119.897-28.326 93.612-37.867-59.678H88.081c-.429-4.919-.677-9.882-.677-14.891s.248-9.996.677-14.914h81.664l11.818 18.636 36.13-119.22 48.376 139.888 45.444-90.814 25.26 51.51h73.973c.451 4.918.745 9.972.745 14.914Z"/><path fill="url(#a)" d="M277.276 40.92a42.133 42.133 0 0 1-7.854 23.798 42.11 42.11 0 0 1-19.976 15.123c-22.274 0-44.33 4.39-64.908 12.917a169.582 169.582 0 0 0-55.024 36.786 169.682 169.682 0 0 0-36.763 55.053 169.725 169.725 0 0 0-12.903 64.936 41.874 41.874 0 0 0-15.297-20.239 41.842 41.842 0 0 0-48.342 0A41.874 41.874 0 0 0 .912 249.533a248.688 248.688 0 0 1 18.9-95.164 248.604 248.604 0 0 1 53.873-80.678 248.477 248.477 0 0 1 80.639-53.902A248.4 248.4 0 0 1 249.446.872a42.114 42.114 0 0 1 20.299 15.585 42.138 42.138 0 0 1 7.531 24.463Z"/><path fill="url(#b)" d="M497.934 249.488a41.874 41.874 0 0 1-15.297 20.24 41.848 41.848 0 0 1-63.638-20.24 169.728 169.728 0 0 0-49.673-119.937 169.584 169.584 0 0 0-119.881-49.71 41.856 41.856 0 0 0 20.231-15.303 41.884 41.884 0 0 0 0-48.363A41.855 41.855 0 0 0 249.445.872c32.634 0 64.949 6.43 95.098 18.925a248.47 248.47 0 0 1 80.618 53.894 248.602 248.602 0 0 1 53.865 80.658 248.69 248.69 0 0 1 18.908 95.139Z"/><path fill="url(#c)" d="M497.933 249.488a248.656 248.656 0 0 1-18.909 95.136 248.573 248.573 0 0 1-53.865 80.652 248.451 248.451 0 0 1-80.619 53.888 248.371 248.371 0 0 1-95.096 18.917 41.866 41.866 0 0 1-20.231-15.303 41.89 41.89 0 0 1 0-48.362 41.867 41.867 0 0 1 20.231-15.304 169.53 169.53 0 0 0 64.91-12.909 169.58 169.58 0 0 0 55.029-36.778 169.717 169.717 0 0 0 49.682-119.983 41.874 41.874 0 0 0 15.297 20.24 41.848 41.848 0 0 0 63.639-20.24l-.068.046Z"/><path fill="url(#d)" d="M249.446 498.083a248.432 248.432 0 0 1-175.708-72.812A248.646 248.646 0 0 1 .957 249.489a41.87 41.87 0 0 1 15.297-20.239 41.843 41.843 0 0 1 48.342 0 41.87 41.87 0 0 1 15.296 20.239 169.706 169.706 0 0 0 49.675 119.975 169.6 169.6 0 0 0 55.021 36.78 169.534 169.534 0 0 0 64.903 12.915 41.86 41.86 0 0 0-20.231 15.303 41.894 41.894 0 0 0 0 48.363 41.86 41.86 0 0 0 20.231 15.303l-.045-.045Z"/><defs><linearGradient id="a" x1=".957" x2="277.276" y1="125.169" y2="125.169" gradientUnits="userSpaceOnUse"><stop stop-color="#D1C6E0"/><stop offset=".35" stop-color="#9274B2"/><stop offset=".71" stop-color="#652F8D"/><stop offset="1" stop-color="#2B1143"/></linearGradient><linearGradient id="b" x1="249.445" x2="497.934" y1="139.09" y2="139.09" gradientUnits="userSpaceOnUse"><stop offset=".01" stop-color="#82C2DF"/><stop offset=".3" stop-color="#3CAFD9"/><stop offset=".59" stop-color="#0379B8"/><stop offset=".7" stop-color="#006DAC"/><stop offset=".73" stop-color="#006AA9"/><stop offset=".91" stop-color="#334C84"/><stop offset="1" stop-color="#3A447A"/></linearGradient><linearGradient id="c" x1="240.4" x2="581.559" y1="466.797" y2="212.975" gradientUnits="userSpaceOnUse"><stop stop-color="#0C6237"/><stop offset=".406" stop-color="#31BB77"/><stop offset=".752" stop-color="#5BC792"/><stop offset=".98" stop-color="#B1E9CD"/></linearGradient><linearGradient id="d" x1=".957" x2="249.446" y1="359.865" y2="359.865" gradientUnits="userSpaceOnUse"><stop stop-color="#931B1E"/><stop offset=".32" stop-color="#ED4725"/><stop offset=".38" stop-color="#EE5F26"/><stop offset=".53" stop-color="#F08F27"/><stop offset=".74" stop-color="#F5C321"/><stop offset=".88" stop-color="#F8D718"/><stop offset="1" stop-color="#F6DF65"/></linearGradient></defs></svg>