<?xml version="1.0" standalone="no"?>
<!DOCTYPE svg PUBLIC "-//W3C//DTD SVG 20010904//EN"
 "http://www.w3.org/TR/2001/REC-SVG-20010904/DTD/svg10.dtd">
<svg version="1.0" xmlns="http://www.w3.org/2000/svg"
 width="81.000000pt" height="80.000000pt" viewBox="0 0 81.000000 80.000000"
 preserveAspectRatio="xMidYMid meet">

<g transform="translate(0.000000,80.000000) scale(0.100000,-0.100000)"
fill="#000000" stroke="none">
<path d="M303 756 c-104 -34 -185 -106 -232 -205 -22 -48 -26 -69 -26 -151 0
-87 3 -101 32 -161 39 -79 102 -140 181 -177 49 -23 70 -27 152 -27 82 0 103
4 152 27 79 37 142 98 181 177 29 60 32 74 32 161 0 87 -3 101 -32 161 -63
128 -176 200 -318 206 -49 2 -96 -3 -122 -11z m160 -167 c43 -11 101 -59 122
-98 61 -118 -12 -261 -146 -286 -99 -18 -204 60 -224 166 -15 82 47 185 130
214 49 17 69 18 118 4z"/>
</g>
</svg>
