<?xml version="1.0" encoding="UTF-8" standalone="no"?>
<!-- Created with Inkscape (http://www.inkscape.org/) -->

<svg
   width="900.82861"
   height="955.20648"
   viewBox="0 0 238.34422 252.7317"
   version="1.1"
   id="svg420"
   xmlns="http://www.w3.org/2000/svg"
   xmlns:svg="http://www.w3.org/2000/svg">
  <defs
     id="defs417" />
  <g
     id="layer1"
     transform="translate(-13.119542,-5.9258171)">
    <path
       d="m 213.66176,90.072122 c 4.95655,0 8.97383,4.018046 8.97383,8.973827 0,4.956581 -4.01728,8.974621 -8.97383,8.974621 -4.95657,0 -8.97462,-4.01804 -8.97462,-8.974621 0,-4.955781 4.01805,-8.973827 8.97462,-8.973827 z m 35.2316,37.450998 c -0.90048,29.80928 -23.66033,69.21262 -54.51292,79.34466 -36.04206,11.836 -63.40991,-5.92226 -72.08409,-26.74061 -6.75754,-16.21966 -1.65117,-35.62363 10.96266,-43.83669 10.6506,-6.93533 30.48543,-8.76736 47.15454,2.19144 -5.85627,-15.34246 -21.62491,-25.4256 -35.59101,-28.49424 -13.96613,-3.06867 -28.38324,0.43858 -38.74504,5.69946 13.29071,-14.68572 44.40801,-28.946049 78.24077,-10.95958 22.67676,12.05491 32.43775,28.93208 42.0489,51.72763 C 251.59637,117.87858 234.026,71.411066 203.39074,43.794029 172.15544,15.636686 129.95516,4.340214 97.668803,6.103155 108.32483,12.678273 120.84625,22.06586 132.41209,33.053363 81.298533,26.697169 39.174705,38.314245 13.119542,73.749217 27.67508,70.878527 46.868833,69.073666 65.974711,70.016861 28.737658,96.252107 7.1124298,140.38147 18.105298,186.43137 c 6.718497,-11.74129 16.767711,-25.84558 28.726275,-38.62863 -3.677175,34.36994 1.42836,80.83745 45.62293,110.85478 -2.25587,-9.42394 -4.08014,-20.88443 -4.91466,-33.0154 20.673197,16.1282 50.685067,29.42205 87.917917,20.24096 65.77679,-16.21975 83.34719,-79.78335 73.4356,-118.35996"
       style="fill:#f36118;fill-opacity:1;fill-rule:nonzero;stroke:none;stroke-width:0.0776283"
       id="path32" />
  </g>
</svg>
