<svg xmlns="http://www.w3.org/2000/svg" viewBox="0 0 238.344 252.732"><path d="M213.662 90.072a8.974 8.974 0 0 1 8.974 8.974 8.975 8.975 0 1 1-8.974-8.974zm35.231 37.451c-.9 29.81-23.66 69.213-54.513 79.345-36.042 11.836-63.41-5.922-72.084-26.74-6.757-16.22-1.65-35.624 10.963-43.838 10.65-6.935 30.485-8.767 47.155 2.192-5.857-15.343-21.625-25.426-35.591-28.494-13.967-3.069-28.384.438-38.746 5.7 13.291-14.687 44.409-28.947 78.241-10.96 22.677 12.054 32.438 28.932 42.05 51.727 25.228-38.576 7.658-85.044-22.977-112.661C172.155 15.637 129.955 4.34 97.669 6.104c10.656 6.574 23.177 15.962 34.743 26.95C81.3 26.696 39.175 38.313 13.12 73.748c14.555-2.87 33.749-4.675 52.855-3.732C28.738 96.252 7.112 140.38 18.105 186.43c6.719-11.74 16.768-25.845 28.727-38.628-3.678 34.37 1.428 80.837 45.623 110.855-2.256-9.424-4.08-20.885-4.915-33.016 20.673 16.128 50.685 29.422 87.918 20.241 65.777-16.22 83.347-79.783 73.435-118.36" style="fill:#f36118;fill-opacity:1;fill-rule:nonzero;stroke:none;stroke-width:.0776283" transform="translate(-13.12 -5.926)"/></svg>