<svg fill="#ffffff" viewBox="0 0 141.7 141.7" xmlns="http://www.w3.org/2000/svg">
  <path d="M66.2 56h-3.1c-1.2 0-2.3 1-2.3 2.3s1 2.3 2.3 2.3h3.1c1.2 0 2.3-1 2.3-2.3s-1-2.3-2.3-2.3M36 50.9c1.2 0 2.3-1 2.3-2.3s-1-2.3-2.2-2.3H33c-1.2 0-2.2 1-2.3 2.3 0 1.2 1 2.3 2.3 2.3h3.1ZM32.9 71.6c1.2 0 2.3-1 2.3-2.3s-1-2.3-2.3-2.3h-3.1c-1.2 0-2.3 1-2.3 2.3s1 2.3 2.3 2.3zM36 89.5h-3.1c-1.2 0-2.3 1-2.3 2.3s1 2.3 2.3 2.3H36c1.2 0 2.3-1 2.3-2.3s-1-2.3-2.3-2.3M57.5 89.3h-5.3c-1.2 0-2.2.9-2.3 2.1 0 1.2.9 2.3 2.2 2.3h5.3c1.2 0 2.2-.9 2.3-2.1 0-1.2-1-2.3-2.2-2.3"/>
  <path d="M113.6 47.2 80.4 27.6c-1.6-1-3.7-1-5.4 0L56.4 38.1H27.7c-1.2 0-2.3 1-2.3 2.3s1 2.3 2.3 2.3h20.7l-7 4c-1.7.9-2.7 2.7-2.7 4.7v4.8h-.6c-1.2 0-2.3 1-2.3 2.3s1 2.3 2.3 2.3h.5L38.3 90c0 1.9 1 3.7 2.6 4.7l33.2 19.6c.8.5 1.8.7 2.7.7s1.8-.2 2.6-.7l33.6-19c1.7-.9 2.7-2.7 2.7-4.6l.4-38.6c0-1.9-1-3.7-2.7-4.7Zm-55.9-4.7H65l5.4 3.4H51.6l6-3.4Zm16.2 66.1L43.3 90.5c-.2-.1-.4-.4-.4-.7v-7.7h5.5c1.2 0 2.2-1 2.3-2.2 0-1.2-1-2.3-2.2-2.3H43V72h31.3v5.5L57 77.3c-1.2 0-2.3 1-2.3 2.2s1 2.3 2.2 2.3l17.3.2v7.1l-6.4.1c-1.2 0-2.2 1.1-2.2 2.3s1 2.2 2.3 2.2h6.2l-.1 14.7Zm3-41H43.1v-7.1h12.1c1.2 0 2.3-1 2.3-2.3s-1-2.3-2.3-2.3H43.3v-4.8c0-.3.2-.6.5-.7l1.3-.7c.4.4 1 .7 1.6.7h27.5c.8 0 1.5-.4 1.9-1.1l10.2 6.4H74.7c-1.2 0-2.3 1-2.3 2.3s1 2.3 2.3 2.3h15.2L77 67.6Zm34.5 22.8c0 .3-.2.6-.4.7l-31 17.5.3-36.1 31.4-17.8-.3 35.6Z"/>
  <path d="M88.7 82.1c2.1 0 3.9-1.7 3.9-3.9s-1.7-3.9-3.9-3.9-3.9 1.7-3.9 3.9 1.7 3.9 3.9 3.9M86 100.6c.3.2.7.2 1.1.2.8 0 1.6-.4 2-1.2l17.6-32.7c.6-1.1.2-2.5-.9-3.1s-2.5-.2-3.1.9L85.1 97.4c-.6 1.1-.2 2.5.9 3.1ZM102.6 82.5c-2.2 0-4 1.8-4 4s1.8 4 4 4 4-1.8 4-4-1.8-4-4-4"/>
</svg>
