<?xml version="1.0" encoding="UTF-8"?> <svg xmlns="http://www.w3.org/2000/svg" xml:space="preserve" viewBox="0 0 512 512"><path d="M474.5 437c-35.8 35.8-81.4 60.2-131.1 70.1s-101.1 4.8-147.9-14.6-86.8-52.2-114.9-94.3A256.2 256.2 0 0 1 37.5 256c0-50.6 15-100.1 43.1-142.2s68.1-74.9 114.9-94.3S293.8-5 343.4 4.9c49.7 9.9 95.3 34.3 131.1 70.1l-181 181z" style="fill:#61b33a"></path><path d="M240 110.1c0-4.7.4-9.1 1.3-13.3s2.4-8.2 4.4-12.2 4.6-7.4 7.9-10.3c8.7-9.4 20.8-14.1 36.4-14.1 13 0 24.6 4.9 34.7 14.7s15.2 21.5 15.2 35.3c0 14.8-4.9 26.8-14.7 35.9-9.4 9.4-21.2 14.1-35.3 14.1-13.4 0-25.1-5-35-14.9-9.9-10.1-14.9-21.8-14.9-35.2" style="fill:#ff751f"></path></svg> 