<svg xmlns="http://www.w3.org/2000/svg" xml:space="preserve" style="fill-rule:evenodd;clip-rule:evenodd;stroke-linejoin:round;stroke-miterlimit:2" viewBox="0 0 512 512"><path d="M0 0h512v512H0z" style="fill:none"/><g transform="translate(24.142 50.42) scale(2.44447)"><clipPath id="a"><path d="M0 0h189.7v168.2H0z"/></clipPath><g clip-path="url(#a)"><path d="M173.9 17.6c-21.539-21.484-56.907-21.529-78.5-.1 21.23 21.444 21.185 56.511-.1 77.9-2.2 2.2-5 3.3-6.7 5.7-7.3 10.3-.1 16.7 8.5 25.5l16.5 17c4.6 4.5 5.4 7.5 7.1 6L174 96.3A55.55 55.55 0 0 0 190.299 57 55.551 55.551 0 0 0 173.9 17.6Z" style="fill:url(#b);fill-rule:nonzero" transform="translate(-.615 -.898)"/><path d="M95.6 17.1A55.706 55.706 0 0 0 56.3.865C25.752.865.615 26.002.615 56.55.615 71.35 6.515 85.555 17 96l26.2-26.2-.1-.1a18.606 18.606 0 0 1-5.21-12.91c0-10.204 8.396-18.6 18.6-18.6 4.814 0 9.445 1.869 12.91 5.21l.1.1L95.1 18l.7-.7-.2-.2Z" style="fill:url(#c);fill-rule:nonzero" transform="translate(-.615 -.898)"/><path d="M88.9 116.3c-3.672-3.865-3.582-10.043.2-13.8.141-.163.31-.298.5-.4a76.574 76.574 0 0 0 9.2-9.7c17.535-21.004 17.237-51.938-.7-72.6-.8-.9-1.7-1.8-2.4-2.5L69.5 43.4a18.606 18.606 0 0 1 5.21 12.91c0 10.204-8.396 18.6-18.6 18.6A18.606 18.606 0 0 1 43.2 69.7L17 96l69.4 69.3c5.079 5.065 13.421 5.065 18.5 0l16.5-16.5" style="fill:#32325d;fill-rule:nonzero" transform="translate(-.615 -.898)"/></g></g><defs><linearGradient id="b" x1="0" x2="1" y1="0" y2="0" gradientTransform="scale(125.8821) rotate(4.98 -7.642 9.767)" gradientUnits="userSpaceOnUse"><stop offset="0" style="stop-color:#d3368a;stop-opacity:1"/><stop offset=".28" style="stop-color:#dd4c7e;stop-opacity:1"/><stop offset=".68" style="stop-color:#ea5c7b;stop-opacity:1"/><stop offset="1" style="stop-color:#ff7575;stop-opacity:1"/></linearGradient><linearGradient id="c" x1="0" x2="1" y1="0" y2="0" gradientTransform="scale(92.3) rotate(4 -7.105 .413)" gradientUnits="userSpaceOnUse"><stop offset="0" style="stop-color:#038ef5;stop-opacity:1"/><stop offset=".17" style="stop-color:#038ef5;stop-opacity:1"/><stop offset=".38" style="stop-color:#4570fc;stop-opacity:1"/><stop offset="1" style="stop-color:#4869fd;stop-opacity:1"/></linearGradient></defs></svg>