<svg xmlns="http://www.w3.org/2000/svg" fill="none" viewBox="0 0 500 500"><g clip-path="url(#a)"><path fill="#002991" d="M395.978 115c0 61.933-57.156 135-143.633 135h-83.3l-4.089 25.8L145.522 400H42L104.278 0H272c56.478 0 100.911 31.478 117.278 75.222a107.646 107.646 0 0 1 6.7 39.778Z"/><path fill="#60CDFF" d="M455.645 230a143.268 143.268 0 0 1-141.712 120h-57.844l-24.078 150H129.045l16.477-100 19.445-124.2 4.078-25.8h83.3c86.366 0 143.633-73.067 143.633-135 42.5 21.933 67.278 66.256 59.667 115Z"/><path fill="#008CFF" d="M395.978 115c-17.822-9.322-39.433-15-62.956-15H192.578l-23.533 150h83.3c86.366 0 143.633-73.067 143.633-135Z"/></g><defs><clipPath id="a"><path fill="#fff" d="M0 0h500v500H0z"/></clipPath></defs></svg>