<svg xmlns="http://www.w3.org/2000/svg" xml:space="preserve" id="Layer_1" x="0" y="0" style="enable-background:new 0 0 160.5 95.1" version="1.1" viewBox="0 0 160.5 95.1"><style>.st0{fill:#fff}</style><path d="M152 47.7c2.3-2.3 4.5-5 5.9-8.1 8-18.1-3.6-37.8-23.4-38.5h-51v19.7h48.4c5 0 8.7 3.6 8.8 8.3.1 4.9-3.1 8.3-8.3 8.7-1 .1-48.8 0-48.8 0v56.3h51c19.8-.7 31.4-20.4 23.4-38.5-1.4-2.9-3.6-5.6-6-7.9zm-20.1 26.8h-28.5v-17h29c5.2.4 8.5 3.8 8.3 8.7-.2 4.7-3.8 8.3-8.8 8.3zM20.8 67.3V94H1.3V64c.3-15 10.2-25.2 25.3-26.1 7.6-.4 15.2-.1 22.8-.2 4.4-.1 7.7-2.3 8.7-5.8 1-3.7.1-6.9-2.9-9.4-1.6-1.3-3.5-1.9-5.6-1.8H29V1.1h19.2c4.3 0 6.1.4 8.4.9 13.7 2.7 21.6 13.3 21.3 28.3-.3 14.1-9.2 24.4-22.8 26.3-8.2 1.2-16.4.4-24.7.6-6.2.1-9.6 3-9.6 9.3v.8z" class="st0"/><path d="M1.2 1.3h19.5v19.5H1.2z" class="st0"/></svg>