<svg xmlns="http://www.w3.org/2000/svg" xml:space="preserve" id="Layer_1" width="36" height="42" x="0" y="0" style="enable-background:new 0 0 36 42" version="1.1"><style>.st3{fill:#cdcccc}</style><path d="m17.6.4-12.1 7v5L0 9.2v21.6l18.7 10.8v-6.3l4.3 2.5 12.1-7V10.5L17.6.4zm16.3 29.7L23 36.4l-5.5-3.2v6.3L1.2 30.1V11.2l5.5 3.2V8.1l10.9-6.3L34 11.3l-.1 18.8z" style="fill:#dddcdb"/><path d="m15.7 13.3-5.4 3.2 7.3 4.1 5.4-3.1z" style="fill:#feda47"/><path d="m23 25.9-5.4 3.2v-8.5l5.4-3.1z" style="fill:#eda920"/><path d="m17.6 3.9-7.3 4.2 13.6 7.8 7.3-4.2zM24.8 17.5l7.3-4.2v15.8l-7.3 4.2zM3 14.4l12.7 7.3v14.7L3 29.1z" class="st3"/></svg>