<svg xmlns="http://www.w3.org/2000/svg" viewBox="0 0 512 512"><path fill="#55B75E" d="m286.625 9.188 1.913.771C295.67 13.027 302.306 17.09 309 21l3.6 2.094c3.617 2.107 7.227 4.224 10.837 6.343l1.913 1.122c8.14 4.771 16.261 9.567 24.314 14.484a285.24 285.24 0 0 0 8.461 4.75c6.148 3.334 12.2 6.823 18.25 10.332 7.21 4.174 14.426 8.338 21.673 12.448 9.817 5.57 19.517 11.319 29.165 17.177 6.503 3.935 13.09 7.656 19.787 11.25 6.414 3.51 12.836 7.047 19.046 10.91 2.069 1.203 2.069 1.203 4.868 2.3 3.505 1.629 6.213 3.192 9.086 5.79 1.762 4.873 1.581 9.677 1.454 14.793.007 1.508.018 3.016.035 4.523.03 4.1-.014 8.196-.07 12.295-.048 4.35-.026 8.698-.013 13.047.016 8.297-.03 16.592-.096 24.888-.072 9.22-.08 18.44-.08 27.66 0 15.926-.06 31.85-.153 47.777-.062 10.69-.084 21.38-.037 32.071.009 1.977.016 3.954.023 5.93.027 7.171.027 7.171.074 14.342.216 26.583-2.742 50.27-21.809 70.342L457 390c-.748.76-1.495 1.519-2.266 2.3-8.239 7.899-18.002 13.138-27.96 18.54-5.964 3.243-11.84 6.628-17.712 10.035-2.297 1.33-4.595 2.66-6.894 3.988l-1.781 1.03a3501.733 3501.733 0 0 1-17.748 10.164 3136.852 3136.852 0 0 0-30.702 17.724c-8.378 4.9-16.783 9.751-25.194 14.594a3449.29 3449.29 0 0 0-25.565 14.883 565.185 565.185 0 0 1-16.569 9.311c-3.835 2.104-7.6 4.32-11.359 6.556a2516.468 2516.468 0 0 1-6.267 3.705c-1.322.78-2.64 1.567-3.954 2.36-4.71 2.796-4.71 2.796-7.904 2.935-3.689-1.328-6.48-3.23-9.68-5.469-4.284-2.902-8.887-5.216-13.445-7.656-3.4-1.846-6.794-3.703-10.188-5.563l-2.555-1.39c-4.407-2.415-8.77-4.843-12.92-7.68-2.364-1.487-2.364-1.487-5.325-2.382-3.867-1.546-6.168-2.911-9.012-5.985-2.282-6.908-1.389-14.74-1.172-21.902.023-2.165.04-4.33.052-6.495.045-5.685.163-11.366.296-17.05.123-5.804.178-11.609.238-17.414.129-11.382.333-22.76.586-34.139 4.266 1.372 7.938 2.94 11.816 5.195l3.297 1.909 3.45 2.021 3.54 2.058a743.454 743.454 0 0 1 20.213 12.18c3.678 2.243 7.443 4.297 11.25 6.309 2.166 1.182 4.186 2.475 6.246 3.828 3.042 1.834 3.042 1.834 5.938.86 3.704-1.55 7.044-3.489 10.438-5.61 1.338-.82 2.678-1.64 4.019-2.457l1.971-1.202c2.362-1.415 4.769-2.73 7.197-4.029 5.592-2.996 11.037-6.224 16.496-9.454a470.301 470.301 0 0 1 12.977-7.413c7.018-3.897 13.897-8.02 20.714-12.257 5.706-3.531 11.522-6.776 17.438-9.938 8.971-4.896 17.774-10.077 26.555-15.305l2.991-1.777c1.994-1.185 3.986-2.372 5.976-3.563l2.794-1.66 2.514-1.5C392 332 392 332 395 331l1-162-5-2a199.354 199.354 0 0 1-5.578-3.125l-3.244-1.877L378.75 160l-3.524-2.043c-7.26-4.21-14.496-8.46-21.718-12.736-4.555-2.688-9.175-5.229-13.836-7.729-4.246-2.371-8.345-4.977-12.473-7.547-3.795-2.307-7.671-4.42-11.586-6.515-2.582-1.413-5.098-2.901-7.613-4.43a200.51 200.51 0 0 0-10-5.688c-5.118-2.755-10.055-5.762-15-8.812-5.855-3.61-11.716-7.144-17.809-10.344-1.87-.987-3.693-2.063-5.503-3.156-3.652-1.359-5.1-.43-8.688 1a169.914 169.914 0 0 0-6.625 3.688l-1.843 1.072c-1.847 1.075-3.69 2.157-5.532 3.24l-6.125 3.563a5720.216 5720.216 0 0 0-8.55 5.007c-7.504 4.394-15.052 8.707-22.604 13.015A1947.036 1947.036 0 0 0 180 133l-5.688 3.313a1772.003 1772.003 0 0 0-10.46 6.14c-6.908 4.085-13.82 8.114-20.891 11.91-5.445 3.01-10.786 6.2-16.14 9.367l-2 1.182c-1.58.944-3.143 1.914-4.704 2.889C118 169 118 169 116 169v258c-4.656-1.552-7.299-2.638-11.188-5.25-3.503-2.288-6.998-4.461-10.687-6.438-26.088-14.059-49.785-28.335-59.336-58.105L34 354l-.497-1.961c-2.195-10.074-1.903-20.342-2-30.6l-.083-6.547c-.246-19.834-.369-39.67-.465-59.504a4977.9 4977.9 0 0 0-.402-43.944c-.137-10.319-.21-20.637-.234-30.956a1142.07 1142.07 0 0 0-.178-18.468 708.325 708.325 0 0 1-.1-17.363c-.002-2.12-.032-4.24-.094-6.358-.433-15.584-.433-15.584 3.722-20.121 4.074-3.203 8.522-5.37 13.299-7.328 2.735-1.144 5.277-2.575 7.848-4.045l2.595-1.396c4.897-2.665 9.705-5.486 14.526-8.284 2.292-1.326 4.583-2.652 6.876-3.977l1.777-1.028a4185.309 4185.309 0 0 1 19.847-11.37c8.488-4.843 16.967-9.7 25.418-14.607 4.396-2.553 8.798-5.094 13.207-7.623 12.214-7.013 24.365-14.11 36.403-21.421a385.873 385.873 0 0 1 16.831-9.605c3.608-1.994 7.113-4.14 10.63-6.29 26.588-16.172 53.56-24.237 83.699-12.017Z"/><path fill="#57BB60" d="M257.46 176.61c2.751 1.506 5.474 3.03 8.165 4.64 3.74 2.211 7.486 4.38 11.313 6.438 6.31 3.41 12.526 6.987 18.747 10.559 5.544 3.18 11.104 6.328 16.676 9.459l2.233 1.256L320 212c.185 9.692.328 19.384.414 29.077.042 4.502.099 9.002.19 13.502.087 4.345.134 8.688.155 13.033.015 1.657.044 3.313.087 4.97.325 12.967.325 12.967-2.494 16.461-2.082 1.325-4.023 2.159-6.352 2.957l-2.778 1.662-2.515 1.467-2.878 1.68-3.017 1.753-3.164 1.844a2490.573 2490.573 0 0 1-23.52 13.51l-2.401 1.365-2.34 1.317a113.452 113.452 0 0 0-5.033 3.148l-2.643 1.723-2.374 1.607c-2.337.924-2.337.924-4.77.282-2.804-1.484-5.585-2.981-8.337-4.561l-3.409-1.952-3.633-2.095-3.748-2.152c-3.817-2.193-7.63-4.394-11.44-6.598l-1.79-1.035c-3.823-2.212-7.643-4.43-11.46-6.652l-2.933-1.707-2.77-1.618-2.38-1.39L200 292l-2.05-.722c-2.644-1.136-4.094-2.057-5.95-4.278-1.309-5.427-1.25-10.846-1.238-16.395-.018-1.632-.038-3.265-.06-4.898-.034-3.42-.037-6.84-.02-10.261.018-4.37-.06-8.734-.164-13.103a442.702 442.702 0 0 1-.063-10.117c-.004-1.61-.028-3.22-.074-4.828-.129-5.092-.024-9.543 1.619-14.398 3.956-3.794 7.973-5.791 13-8a157.23 157.23 0 0 0 4.512-2.66c1.39-.803 2.783-1.604 4.175-2.403l2.335-1.345c1.704-.982 3.408-1.964 5.113-2.944 5-2.876 9.996-5.758 14.992-8.64a12418.215 12418.215 0 0 1 8.365-4.82l2.855-1.645a134.669 134.669 0 0 0 5.343-3.28C255 176 255 176 257.46 176.609Z"/></svg>