<svg xmlns="http://www.w3.org/2000/svg" fill="none" viewBox="0 0 500 500"><g clip-path="url(#a)"><path fill="#fff" d="M257.999 0c4.7 0 9.37.13 14.002.386V116.96c-5.31-.641-10.654-.96-16.003-.958-72.17 0-130.815 57.92-131.983 129.815L124 248v213.09C54.267 416.73 8 338.768 8 250 7.999 111.926 119.929 0 257.999 0Zm-2 159.997c4.918 0 9.743.406 14.44 1.183l1.562.27V248l.005 1.474c.313 28.493 9.651 54.814 25.294 76.251-12.314 6.556-26.373 10.276-41.302 10.276-48.597 0-87.997-39.4-87.997-88.002s39.4-88.002 87.997-88.002h.001Z" style="mix-blend-mode:difference"/><path fill="#00E6A5" d="M167.996 346.387c23.355 20.901 54.193 33.61 88.002 33.61 27.425 0 52.896-8.363 74.001-22.678 21.104 14.315 46.575 22.678 74 22.678 31.386 0 60.212-10.953 82.87-29.244C448.12 438.641 360.222 500 257.999 500c-31.724 0-62.073-5.909-90.003-16.69V346.386v.001Zm236.003-186.39c48.603 0 88.002 39.4 88.002 88.002s-39.399 88.002-88.002 88.002c-14.924 0-28.983-3.72-41.297-10.276 15.91-21.802 25.3-48.67 25.3-77.726 0-29.056-9.39-55.924-25.305-77.726 12.32-6.556 26.378-10.276 41.302-10.276Zm-74 40.358C338.857 214.086 344 230.443 344 247.999c0 17.556-5.143 33.913-14 47.644-8.86-13.73-14.003-30.088-14.003-47.644 0-17.07 4.862-33.006 13.272-46.497l.73-1.147ZM316.002 6.765c74.407 17.673 135.933 68.61 168.007 136.233C461.805 126.058 434.079 116 404 116c-27.425 0-52.896 8.363-74 22.678a131.374 131.374 0 0 0-12.189-7.343l-1.808-.943V6.764l-.001.001Z"/></g><defs><clipPath id="a"><path fill="#fff" d="M0 0h500v500H0z"/></clipPath></defs></svg>