<svg xmlns="http://www.w3.org/2000/svg" viewBox="0 0 145.68 145.7" xmlns:v="https://vecta.io/nano"><style><![CDATA[.B{fill:#9a0000}]]></style><defs><path id="A" d="M-44.87-119.05h481.89v680.32H-44.87z"/></defs><clipPath id="B"><use href="#A"/></clipPath><path d="M47.99 135.12l-.11.05-2.21-1.07-2.74-1.17-.04-.11.18-.4.11-.03.68.23c.39.14.65.21.77.21.09 0 .19-.05.3-.16.17-.17.59-.98 1.25-2.43l.74-1.63.82-1.87.21-.5c.1-.22.1-.35.01-.39-.04-.02-.19-.03-.46-.02l-1.87.03-.06-.08c.09-.26.17-.56.24-.89l.03-.05 4.66.46.09.16-.59 1.11-.74 1.53-1.19 2.57-1.25 3.01c0 .12.04.21.11.27.14.11.53.34 1.18.68l.06.1z" clip-path="url(#B)" class="B"/><defs><path id="C" d="M-44.87-119.05h481.89v680.32H-44.87z"/></defs><clipPath id="D"><use href="#C"/></clipPath><path d="M66.59 131.97c.06-.47-.04-.87-.32-1.19-.27-.33-.68-.52-1.21-.6-.48-.06-.88.02-1.2.25-.29.21-.47.51-.51.87-.05.36.08.72.38 1.06.16.18.41.37.74.57l.53.32.41.22c.69-.28 1.08-.78 1.18-1.5m-.65 5.27c.09-.69-.18-1.26-.82-1.7a14.65 14.65 0 0 0-1.35-.82l-.21-.11c-.83.42-1.29 1.02-1.4 1.81-.06.46-.02.84.13 1.14.33.69.87 1.08 1.63 1.18.53.07.98-.04 1.35-.32.38-.27.6-.67.67-1.18m1.89-.59c-.08.56-.25 1.04-.53 1.44-.53.76-1.3 1.23-2.3 1.4-.41.07-.9.07-1.46-.01q-1.8-.24-2.61-1.59c-.24-.4-.32-.9-.24-1.49.1-.72.43-1.28 1.01-1.66.19-.13.59-.29 1.21-.5-1-.68-1.43-1.52-1.3-2.51.15-1.11.82-1.86 2.02-2.22.52-.16 1.09-.2 1.71-.11.92.12 1.61.42 2.08.9.45.46.63 1.01.55 1.64-.12.86-.72 1.49-1.81 1.89q1.065.57 1.44 1.26c.24.43.32.94.23 1.56" clip-path="url(#D)" class="B"/><defs><path id="E" d="M-44.87-119.05h481.89v680.32H-44.87z"/></defs><clipPath id="F"><use href="#E"/></clipPath><path d="M82.57 132.53c-.12-.88-.36-1.52-.7-1.91q-.525-.585-1.26-.48c-.61.08-.99.44-1.12 1.07-.07.34-.08.72-.02 1.16q.15 1.11.69 1.65c.34.34.75.47 1.24.4.63-.09 1.01-.4 1.16-.93.06-.24.07-.56.01-.96m2.19.45c.18 1.27.07 2.36-.32 3.26-.41.95-1.02 1.75-1.83 2.38-.83.66-1.79 1.06-2.87 1.21l-.7-.38.15-.31a2 2 0 0 0 .6 0c.83-.12 1.52-.49 2.06-1.14.22-.26.41-.58.57-.99.26-.64.38-1.53.35-2.68-.7.77-1.1 1.16-1.19 1.18q-.51.24-1.11.33c-.71.1-1.32-.06-1.83-.46-.55-.44-.88-1.09-1-1.96-.19-1.4.21-2.51 1.21-3.33.47-.39 1.09-.63 1.84-.74 1.43-.2 2.52.26 3.29 1.37.39.56.64 1.31.78 2.26" clip-path="url(#F)" class="B"/><defs><path id="G" d="M-44.87-119.05h481.89v680.32H-44.87z"/></defs><clipPath id="H"><use href="#G"/></clipPath><path d="M100.36 131.48c-.28-.64-.81-.98-1.58-1.03-.51-.03-1.03-.03-1.58 0l-.23.01c-.49.79-.57 1.55-.26 2.27.18.42.42.72.71.91.64.42 1.31.47 2.01.17.49-.21.82-.54.99-.97.16-.43.14-.89-.06-1.36m-2.19-4.85c-.19-.43-.49-.72-.89-.86s-.85-.1-1.34.12c-.44.19-.74.47-.89.83-.14.34-.14.67.01 1.02.15.34.44.57.87.71.23.07.54.11.93.11h.62l.46-.02c.45-.61.52-1.25.23-1.91m3.5 3.36c.23.52.32 1.02.29 1.51-.06.93-.48 1.73-1.24 2.39-.31.28-.73.53-1.25.75-1.11.49-2.13.48-3.06-.01-.41-.22-.74-.6-.98-1.15q-.435-1.005 0-1.95.15-.315.78-1.05c-1.21-.07-2.01-.56-2.41-1.47-.45-1.03-.26-2.02.57-2.95q.54-.615 1.41-.99 1.275-.555 2.25-.3c.62.16 1.06.54 1.32 1.12.35.79.16 1.65-.56 2.56q1.2-.06 1.89.33c.41.24.74.64.99 1.21" clip-path="url(#H)" class="B"/><defs><path id="I" d="M-44.87-119.05h481.89v680.32H-44.87z"/></defs><clipPath id="J"><use href="#I"/></clipPath><path d="M45.42 137.76a70.2 70.2 0 0 1-22.39-15.09c-6.47-6.47-11.55-14-15.1-22.39C4.26 91.6 2.4 82.37 2.4 72.86s1.86-18.73 5.53-27.42c3.55-8.39 8.63-15.92 15.1-22.39s14-11.55 22.39-15.1c8.68-3.67 17.91-5.54 27.42-5.54s18.73 1.86 27.42 5.54a70.2 70.2 0 0 1 22.39 15.1c6.47 6.47 11.55 14 15.1 22.39 3.67 8.68 5.53 17.91 5.53 27.42s-1.86 18.74-5.53 27.42a70.2 70.2 0 0 1-15.1 22.39c-6.47 6.47-14 11.55-22.39 15.09-8.68 3.67-17.91 5.53-27.42 5.53s-18.74-1.86-27.42-5.53M44.48 5.73a72.4 72.4 0 0 0-23.15 15.61A72.6 72.6 0 0 0 5.72 44.5C1.92 53.48-.01 63.02-.01 72.86s1.93 19.38 5.73 28.36a72.6 72.6 0 0 0 15.61 23.15 72.6 72.6 0 0 0 23.15 15.61c8.98 3.8 18.52 5.72 28.35 5.72s19.37-1.93 28.36-5.72a72.4 72.4 0 0 0 23.15-15.61 72.6 72.6 0 0 0 15.61-23.15c3.8-8.98 5.73-18.52 5.73-28.36 0-9.83-1.93-19.37-5.73-28.36a72.7 72.7 0 0 0-15.61-23.16 72.6 72.6 0 0 0-23.15-15.61C92.21 1.93 82.67 0 72.83 0S53.46 1.93 44.48 5.73" clip-path="url(#J)" class="B"/><defs><path id="K" d="M-44.87-119.05h481.89v680.32H-44.87z"/></defs><clipPath id="L"><use href="#K"/></clipPath><path d="M52.5 120.99a51.9 51.9 0 0 1-16.6-11.2c-4.8-4.8-8.56-10.39-11.19-16.61-2.73-6.44-4.11-13.28-4.11-20.33s1.38-13.9 4.11-20.34c2.62-6.21 6.39-11.8 11.18-16.6 4.8-4.8 10.38-8.56 16.6-11.2 6.44-2.72 13.28-4.1 20.33-4.1 7.06 0 13.9 1.38 20.34 4.1 6.22 2.63 11.81 6.4 16.61 11.2s8.57 10.38 11.2 16.6c2.72 6.44 4.1 13.28 4.1 20.34 0 7.05-1.38 13.89-4.1 20.33a52.1 52.1 0 0 1-11.2 16.61c-4.8 4.8-10.39 8.57-16.61 11.2-6.44 2.73-13.28 4.11-20.34 4.11-7.04 0-13.88-1.39-20.32-4.11m-.63-97.77a53.7 53.7 0 0 0-17.12 11.54 53.7 53.7 0 0 0-11.54 17.12c-2.81 6.64-4.23 13.7-4.23 20.97s1.42 14.32 4.23 20.97c2.71 6.41 6.6 12.17 11.54 17.12a53.8 53.8 0 0 0 17.12 11.55c6.64 2.81 13.69 4.23 20.96 4.23 7.28 0 14.33-1.42 20.97-4.23a53.61 53.61 0 0 0 17.13-11.55 53.7 53.7 0 0 0 11.54-17.12c2.81-6.64 4.23-13.7 4.23-20.97s-1.42-14.33-4.23-20.97c-2.71-6.41-6.6-12.17-11.54-17.12A53.6 53.6 0 0 0 93.8 23.22c-6.64-2.81-13.7-4.23-20.97-4.23a53.3 53.3 0 0 0-20.96 4.23" clip-path="url(#L)" class="B"/><defs><path id="M" d="M-44.87-119.05h481.89v680.32H-44.87z"/></defs><clipPath id="N"><use href="#M"/></clipPath><path d="M12.3 93.84c-.67.26-1.12.58-1.34.98-.22.39-.2.94.06 1.63l.2.52 3.93-1.5-.1-.26c-.26-.69-.62-1.15-1.08-1.39-.45-.24-1.01-.23-1.67.02m-1.25-2.33c.51-.19.98-.26 1.43-.19a2.7 2.7 0 0 1 1.22.52 4.29 4.29 0 0 1 1.01 1.1c.29.44.55.97.78 1.57l.28.73 2.52-.96q.225-.09.36-.24c.135-.15.14-.25.14-.43a3.85 3.85 0 0 0-.05-.46l-.11-.52.5-.19 1.87 4.9-.5.19-.24-.47c-.1-.2-.18-.33-.25-.39-.13-.14-.25-.22-.37-.23-.12-.02-.26.01-.43.07l-6.33 2.42c-.15.06-.27.13-.35.22-.09.09-.14.24-.14.43-.01.14.01.31.05.53l.09.47-.49.19-1.89-4.95c-.44-1.16-.59-2.09-.44-2.81.12-.71.58-1.21 1.34-1.5" clip-path="url(#N)" class="B"/><defs><path id="O" d="M-44.87-119.05h481.89v680.32H-44.87z"/></defs><clipPath id="P"><use href="#O"/></clipPath><path d="M8.5 76.43l.06.53c-.35.17-.69.44-1.02.79-.34.36-.52.7-.55 1.02-.02.14-.01.32.01.56l.06.59.16 1.37 3.67-.43-.11-.97c-.03-.24-.08-.46-.16-.65s-.22-.36-.4-.51c-.11-.09-.31-.17-.58-.25a2.93 2.93 0 0 0-.7-.12l-.06-.52 3.97-.46.06.52a3.22 3.22 0 0 0-.69.29c-.27.14-.46.27-.55.38-.14.17-.24.35-.27.56-.04.21-.04.44-.01.7l.11.97 2.76-.32c.29-.03.51-.08.68-.14.16-.06.28-.15.36-.28.07-.12.11-.28.11-.48a6.75 6.75 0 0 0-.05-.8l-.07-.56a5.3 5.3 0 0 0-.27-1.09c-.07-.16-.14-.27-.24-.34-.24-.19-.61-.39-1.09-.61s-.84-.35-1.07-.41l-.06-.48 2.99-.16 1.04 8.94-.52.06c-.02-.13-.06-.29-.11-.51q-.075-.315-.15-.45c-.09-.16-.2-.27-.31-.31a.85.85 0 0 0-.43-.04l-6.73.79q-.24.03-.39.12-.15.09-.24.39-.06.18-.09.51l-.03.49-.53.06-.99-8.45z" clip-path="url(#P)" class="B"/><defs><path id="Q" d="M-44.87-119.05h481.89v680.32H-44.87z"/></defs><clipPath id="R"><use href="#Q"/></clipPath><path d="M17.11 58.67l-.54 3.75-2.41 1.22-2.46 1.43-.05.35 3 .43q.24.03.42-.03c.18-.06.23-.14.33-.31a2.23 2.23 0 0 0 .16-.34c.06-.15.11-.31.15-.46l.52.07-.72 5.05-.52-.08.03-.52c.01-.22.01-.38-.01-.48-.04-.17-.11-.29-.21-.37s-.24-.13-.41-.15l-6.74-.96c-.16-.02-.29-.01-.41.02-.11.04-.23.14-.34.31-.08.13-.16.29-.23.48l-.15.46-.52-.08.75-5.22.52.08c-.01.14-.01.31-.01.5q0 .3.03.51c.03.18.11.31.22.39a1.07 1.07 0 0 0 .4.15l3.21.46.04-.28-.97-1.38-.95-1.23-.83-.92c-.21-.2-.4-.31-.57-.34-.08-.01-.15.06-.21.22s-.13.4-.19.74l-.52-.07.59-4.13.52.07q-.03.75.09 1.29c.08.35.25.72.5 1.09l.94 1.33 1.04 1.36 2.14-1.26 2.47-1.47c.21-.12.41-.27.6-.44.2-.17.36-.36.5-.58.07-.1.12-.22.17-.36a2.54 2.54 0 0 0 .1-.36z" clip-path="url(#R)" class="B"/><defs><path id="S" d="M-44.87-119.05h481.89v680.32H-44.87z"/></defs><clipPath id="T"><use href="#S"/></clipPath><path d="M20.74 49.14l-1.98 4.95-.49-.2.16-.51c.07-.23.11-.39.11-.49q0-.27-.12-.42c-.12-.15-.2-.18-.36-.24l-6.32-2.53a.9.9 0 0 0-.41-.07q-.195.015-.39.21c-.08.08-.18.22-.31.39l-.29.47-.49-.2 1.98-4.95.49.2-.13.49c-.05.2-.08.37-.09.52-.01.18.03.33.12.43s.21.18.36.24l6.31 2.53a.93.93 0 0 0 .42.07c.13-.01.26-.09.39-.22.07-.07.17-.2.28-.39.12-.19.21-.35.27-.49z" clip-path="url(#T)" class="B"/><defs><path id="U" d="M-44.87-119.05h481.89v680.32H-44.87z"/></defs><clipPath id="V"><use href="#U"/></clipPath><path d="M22.29 29.65c-.06.11-.15.27-.25.48-.11.21-.16.43-.15.67 0 .21.1.42.31.65.2.23.53.51 1 .85l5.59 4.01-.71.98-9.52.51 3.66 2.63c.46.33.82.54 1.1.65s.52.14.73.08c.15-.04.34-.15.55-.32.22-.17.38-.31.5-.43l.43.31-2.41 3.35-.43-.31c.09-.15.18-.33.27-.55.09-.21.14-.41.14-.6 0-.22-.1-.43-.27-.64-.18-.21-.52-.49-1.02-.86l-3.7-2.66c-.18-.13-.38-.23-.58-.29s-.41-.07-.61-.04c-.22.04-.42.11-.61.23s-.38.26-.58.45l-.43-.31 2.11-2.94 8.35-.45-2.97-2.13c-.47-.34-.85-.56-1.12-.66s-.51-.13-.72-.07c-.16.04-.35.15-.56.31s-.37.3-.48.41l-.42-.3 2.39-3.34z" clip-path="url(#V)" class="B"/><defs><path id="W" d="M-44.87-119.05h481.89v680.32H-44.87z"/></defs><clipPath id="X"><use href="#W"/></clipPath><path d="M38.93 21.74l-.26.27c-.07.08-.15.2-.25.34-.11.16-.14.31-.1.46.04.14.11.27.2.39l.7.87.35.42.34.38c-.18.49-.54 1.11-1.08 1.85s-1.09 1.34-1.67 1.8c-.54.43-1.12.76-1.72.98-.61.21-1.22.3-1.85.26q-.93-.06-1.83-.54c-.59-.32-1.14-.79-1.65-1.42-.47-.58-.81-1.2-1.01-1.85s-.27-1.3-.19-1.95c.07-.64.29-1.26.65-1.87s.85-1.16 1.48-1.66c.42-.34.86-.61 1.3-.79q.66-.285 1.17-.39l.09-.55.46-.37 2.25 2.7-.46.37c-.93-.61-1.74-.96-2.43-1.06s-1.32.08-1.89.54c-.68.54-.96 1.26-.85 2.14s.58 1.84 1.41 2.88c.88 1.1 1.75 1.81 2.61 2.14s1.62.23 2.27-.3c.31-.25.54-.51.71-.8s.27-.54.3-.77l-1.22-1.51c-.1-.13-.21-.21-.32-.26s-.27-.05-.45 0a2.3 2.3 0 0 0-.49.2l-.45.25-.33-.41 3.89-3.13z" clip-path="url(#X)" class="B"/><defs><path id="Y" d="M-44.87-119.05h481.89v680.32H-44.87z"/></defs><clipPath id="Z"><use href="#Y"/></clipPath><path d="M61.3 7.37l-.53.24c-.23.11-.41.24-.54.4-.14.15-.2.38-.2.68.01.3.09.73.24 1.3l.92 3.45c.27 1.01.14 1.92-.38 2.72-.53.8-1.36 1.35-2.49 1.66-1.32.35-2.43.33-3.31-.07s-1.47-1.14-1.75-2.2l-1.27-4.75a.9.9 0 0 0-.19-.37.83.83 0 0 0-.42-.2c-.13-.02-.28-.03-.45-.02l-.42.04-.14-.51 4.87-1.3.14.51-.41.16c-.14.06-.28.14-.41.22-.15.1-.24.21-.26.35a1.05 1.05 0 0 0 .02.43l1.25 4.68c.25.92.63 1.53 1.15 1.84s1.16.36 1.94.15c.76-.2 1.3-.59 1.61-1.17s.35-1.31.11-2.21l-.84-3.14c-.15-.56-.3-.96-.45-1.22s-.32-.42-.51-.5c-.14-.07-.36-.1-.67-.1l-.63.02-.14-.53 4.05-1.08z" clip-path="url(#Z)" class="B"/><defs><path id="a" d="M-44.87-119.05h481.89v680.32H-44.87z"/></defs><clipPath id="b"><use href="#a"/></clipPath><path d="M79.44 6.68c-.13.01-.31.04-.54.07a1.38 1.38 0 0 0-.64.26c-.17.12-.29.33-.36.62s-.11.73-.12 1.3l-.1 6.88-1.21-.02-5.86-7.51-.06 4.51c-.01.56.02.98.09 1.28.07.29.19.51.35.65.12.1.31.19.58.27l.63.16-.01.53-4.13-.06.01-.53q.27-.015.6-.09c.23-.05.42-.13.57-.23.18-.13.3-.32.37-.59.07-.26.11-.71.12-1.33l.06-4.55c0-.23-.03-.44-.1-.64s-.17-.38-.32-.52c-.15-.16-.33-.28-.54-.37-.2-.09-.44-.16-.69-.22l.01-.53 3.61.05 5.14 6.59.05-3.66c.01-.58-.03-1.01-.1-1.3-.07-.28-.19-.5-.35-.64-.13-.11-.32-.2-.57-.28s-.46-.13-.61-.16l.01-.52 4.1.06z" clip-path="url(#b)" class="B"/><defs><path id="c" d="M-44.87-119.05h481.89v680.32H-44.87z"/></defs><clipPath id="d"><use href="#c"/></clipPath><path d="M89.79 18.18l-5.16-1.34.13-.51.53.09c.23.04.4.06.5.04.18-.02.31-.08.4-.17s.15-.22.2-.39l1.71-6.59a.97.97 0 0 0 .02-.41.62.62 0 0 0-.26-.36 3.16 3.16 0 0 0-.43-.26c-.19-.1-.36-.18-.51-.23l.13-.51 5.16 1.34-.13.51-.51-.07c-.2-.03-.38-.04-.52-.03-.19.01-.32.07-.41.18a.95.95 0 0 0-.19.39l-1.71 6.59a.86.86 0 0 0-.01.42c.03.12.12.25.27.36.08.06.22.14.43.23l.52.21z" clip-path="url(#d)" class="B"/><defs><path id="e" d="M-44.87-119.05h481.89v680.32H-44.87z"/></defs><clipPath id="f"><use href="#e"/></clipPath><path d="M108.7 16.89c-.14-.06-.28-.1-.41-.13-.14-.03-.29-.04-.46-.03-.22.01-.41.04-.57.11-.15.07-.33.17-.53.32l-1.16.93-1.72 1.4-1.88 1.55-1.95 1.63-1.2-.64q.255-2.49.51-5.07l.34-3.59c.01-.25 0-.45-.03-.59-.03-.15-.11-.32-.24-.53a3.1 3.1 0 0 0-.27-.35l-.37-.3.25-.47 4.6 2.44-.24.46c-.47-.18-.8-.29-.99-.31-.19-.03-.3.01-.35.09-.02.05-.04.09-.05.15s-.03.13-.04.23l-.22 2.1-.44 4.47 2.36-2.01 1.69-1.46a7.36 7.36 0 0 0 .63-.59c.18-.19.3-.33.36-.45.07-.13.03-.28-.11-.47-.14-.18-.45-.43-.94-.74l.25-.48 3.44 1.82z" clip-path="url(#f)" class="B"/><defs><path id="g" d="M-44.87-119.05h481.89v680.32H-44.87z"/></defs><clipPath id="h"><use href="#g"/></clipPath><path d="M119.15 28.05l-.39-.36c.15-.36.24-.78.26-1.27s-.07-.86-.25-1.13c-.08-.11-.2-.25-.38-.42l-.43-.41-1.02-.93-2.5 2.73.72.66a3.1 3.1 0 0 0 .55.39q.285.135.63.12c.14-.01.34-.07.6-.19a2.8 2.8 0 0 0 .61-.37l.39.36-2.7 2.95-.39-.36q.165-.24.33-.66c.11-.29.17-.5.17-.65 0-.22-.05-.42-.16-.6s-.26-.36-.45-.54l-.72-.66-1.87 2.05c-.2.21-.34.4-.42.55q-.12.225-.09.45a1.04 1.04 0 0 0 .23.44c.13.15.31.34.56.57l.42.38c.17.15.32.27.46.36.15.11.31.2.46.28s.29.11.4.1c.31-.02.71-.1 1.22-.25q.75-.225 1.08-.39l.36.33-2.15 2.08-6.64-6.07.36-.39.42.31c.18.13.31.21.41.24.18.06.32.07.44.03s.24-.13.35-.25l4.57-5a1.06 1.06 0 0 0 .22-.35c.04-.11.01-.27-.07-.46q-.075-.18-.27-.45l-.3-.39.36-.39 6.28 5.74z" clip-path="url(#h)" class="B"/><defs><path id="i" d="M-44.87-119.05h481.89v680.32H-44.87z"/></defs><clipPath id="j"><use href="#i"/></clipPath><path d="M127.65 39.18c.54-.35.84-.75.89-1.21s-.1-.97-.46-1.53l-.29-.45-3.38 2.18.28.43c.36.56.78.89 1.27 1.01s1.05-.03 1.69-.43m-3.52 7.73l-2-3.1 1.09-2.59.83-2.4-.19-.3-2.44 1.58c-.13.09-.23.19-.29.3s-.08.26-.05.45c.02.09.06.22.12.4l.19.44-.44.29-2.79-4.32.45-.29.33.41c.14.17.25.28.33.34.15.11.29.15.42.14s.26-.06.4-.15l5.69-3.67a.91.91 0 0 0 .3-.28c.06-.1.08-.25.04-.46q-.045-.24-.15-.51l-.18-.44.44-.29 2.92 4.53c.65 1.01.99 1.89 1.01 2.61.02.73-.29 1.3-.93 1.72-.57.37-1.13.5-1.68.4q-.825-.15-1.77-.96l-.58 1.65-.65 1.94a9.74 9.74 0 0 0-.23.83c-.08.34-.1.6-.05.79a2.92 2.92 0 0 0 .15.38l.15.31z" clip-path="url(#j)" class="B"/><defs><path id="k" d="M-44.87-119.05h481.89v680.32H-44.87z"/></defs><clipPath id="l"><use href="#k"/></clipPath><path d="M126.82 54.8c-.19-.56-.29-1.1-.32-1.63s0-.99.08-1.39l-.6-.29-.18-.54 3.26-1.18.19.56a10.14 10.14 0 0 0-.82.8 5.03 5.03 0 0 0-.7.98 3.62 3.62 0 0 0-.4 1.11c-.07.38-.03.79.11 1.22.19.58.49.98.87 1.2s.79.25 1.22.11c.35-.12.6-.35.76-.69.15-.34.22-.82.21-1.43l-.01-1.1.02-.95c.04-.7.24-1.27.59-1.71a2.86 2.86 0 0 1 1.37-.96c.36-.12.72-.16 1.1-.11.38.04.75.17 1.11.38.34.2.66.5.96.88.3.39.54.84.71 1.36.17.51.26 1 .27 1.49s-.01.88-.07 1.18l.51.26.19.56-3.09 1.1-.19-.56c.29-.24.58-.5.86-.79a4.82 4.82 0 0 0 .68-.84c.18-.29.29-.6.35-.92.05-.32.02-.67-.1-1.04-.15-.46-.41-.8-.77-1.01s-.73-.25-1.11-.12c-.36.12-.61.35-.76.68s-.21.8-.21 1.4v1.08l-.01.98c-.03.7-.2 1.29-.52 1.75-.31.46-.78.8-1.41 1.01-.39.13-.81.17-1.24.1-.43-.06-.82-.21-1.17-.44-.38-.25-.72-.58-1.02-.98-.27-.41-.52-.91-.72-1.51" clip-path="url(#l)" class="B"/><defs><path id="m" d="M-44.87-119.05h481.89v680.32H-44.87z"/></defs><clipPath id="n"><use href="#m"/></clipPath><path d="M129.97 69.57l-.55-5.3.53-.05.1.53c.04.23.08.39.13.48.09.16.19.26.3.31a.84.84 0 0 0 .43.05l6.77-.7c.15-.02.28-.06.39-.13s.19-.2.25-.37c.03-.11.06-.28.09-.49l.04-.55.53-.05.55 5.3-.53.05-.11-.5c-.05-.2-.1-.37-.16-.5-.08-.17-.18-.28-.31-.32a.9.9 0 0 0-.43-.04l-6.77.7a.9.9 0 0 0-.4.13c-.11.07-.19.2-.24.38-.03.1-.05.26-.07.48a3.61 3.61 0 0 0-.01.56z" clip-path="url(#n)" class="B"/><defs><path id="o" d="M-44.87-119.05h481.89v680.32H-44.87z"/></defs><clipPath id="p"><use href="#o"/></clipPath><path d="M135.86 85.08l.06-.52q.63-.135 1.38-.51c.75-.375.78-.5.85-.76l.11-.52q.06-.315.09-.54l.04-.32-7.47-.89a.9.9 0 0 0-.44.04c-.13.04-.24.15-.33.31a3.98 3.98 0 0 0-.18.47l-.16.55-.52-.06.63-5.34.52.06-.01.56c0 .24.01.4.03.49.05.18.13.31.25.39a1.04 1.04 0 0 0 .42.14l7.54.89.04-.32c.02-.15.03-.33.04-.55l.02-.53c0-.26-.22-.58-.65-.94s-.84-.64-1.23-.82l.06-.53 2.73.32-1.1 9.24z" clip-path="url(#p)" class="B"/><defs><path id="q" d="M-44.87-119.05h481.89v680.32H-44.87z"/></defs><clipPath id="r"><use href="#q"/></clipPath><path d="M132.73 101.71c.04-.16.07-.31.08-.45s0-.28-.02-.42c-.03-.22-.1-.43-.2-.63s-.23-.41-.37-.62l-.98-1.36-1.18-1.57c-.27-.37-.49-.62-.66-.74-.17-.13-.49-.28-.97-.46l-1.27-.49a1 1 0 0 0-.43-.07c-.14.01-.27.09-.4.22-.06.06-.15.2-.29.41a3.65 3.65 0 0 0-.28.48l-.49-.19 1.92-5.02.49.19-.15.53c-.06.23-.09.4-.09.5q.015.27.15.42c.135.15.22.18.38.24l1.58.6.37.13a.83.83 0 0 0 .28.06q.135 0 .36-.03l.59-.09 1.98-.32 1.76-.32a2.8 2.8 0 0 0 1.24-.53q.165-.135.3-.36a3.63 3.63 0 0 0 .23-.41l.49.19-1.97 5.14-.49-.19c.17-.48.26-.81.27-1s-.03-.3-.12-.33c-.05-.02-.15-.02-.31-.02l-.77.08-1.38.2-2.07.35 2.03 2.67c.39.49.64.76.75.8.14.05.29.01.43-.14s.3-.41.47-.79l.5.19-1.27 3.32z" clip-path="url(#r)" class="B"/><defs><path id="s" d="M-44.87-119.05h481.89v680.32H-44.87z"/></defs><clipPath id="t"><use href="#s"/></clipPath><path d="M103.63 98.04c-1.64-3.83-3.51-7.37-5.55-10.51-2.15-3.3-4.49-6.17-6.96-8.54-2.67-2.54-5.5-4.51-8.44-5.87-1.93-.89-3.91-1.51-5.92-1.86v-2.3a3.91 3.91 0 0 0-3.91-3.91 3.92 3.92 0 0 0-3.92 3.91v2.3c-2.01.35-3.99.97-5.92 1.86-2.94 1.35-5.78 3.33-8.44 5.87-2.48 2.36-4.82 5.24-6.96 8.54-2.04 3.14-3.91 6.67-5.55 10.51-.82 1.92.07 4.14 1.99 4.97a3.79 3.79 0 0 0 4.97-1.98c2.97-6.93 6.7-12.65 10.79-16.55 2.94-2.81 6-4.64 9.14-5.47v6.16c0 2.12-1.56 2.95-2.28 3.39l-.96.58c-1.45.94-3.12 2.4-4.68 4.4-2.82 3.61-5.01 8.53-6.17 13.86-.44 2.04.85 4.06 2.89 4.5 2.04.45 4.06-.85 4.5-2.89.92-4.24 2.61-8.08 4.74-10.81 1.09-1.4 3.3-3.74 5.87-3.74s4.78 2.34 5.87 3.74c2.13 2.73 3.82 6.57 4.74 10.81a3.776 3.776 0 1 0 7.39-1.61c-1.16-5.33-3.35-10.25-6.17-13.86-1.56-2-3.23-3.46-4.68-4.4l-.96-.58c-.72-.44-2.27-1.27-2.27-3.39v-6.16c3.14.83 6.2 2.66 9.14 5.47 4.09 3.9 7.82 9.62 10.79 16.55a3.776 3.776 0 0 0 4.97 1.98c1.89-.82 2.77-3.05 1.95-4.97m-27.44-62.8v24.47c0 1.29.93 3.16 2.95 3.59 4.54.97 9.73 3.62 14.42 7.49 4.6 3.8 8.92 8.78 12.84 14.82a3.78 3.78 0 0 0 6.95-2.07 3.8 3.8 0 0 0-.61-2.06c-4.34-6.68-9.18-12.25-14.37-16.53-4.61-3.81-9.43-6.53-14.36-8.14v-8.69c7.1 1.95 14.49 5.98 20.86 11.44a3.78 3.78 0 0 0 5.33-.41 3.786 3.786 0 0 0-.41-5.34 68 68 0 0 0-13.41-8.95c-4.15-2.09-8.3-3.61-12.38-4.55v-5.07c0-2.16-1.75-3.91-3.92-3.91-2.13-.01-3.89 1.74-3.89 3.91m-10.63-3.92a3.91 3.91 0 0 0-3.91 3.91v5.07c-4.08.93-8.23 2.46-12.38 4.55-4.7 2.37-9.34 5.47-13.41 8.95a3.786 3.786 0 1 0 4.93 5.75c6.37-5.46 13.77-9.49 20.86-11.44v8.69c-4.93 1.61-9.75 4.33-14.36 8.14-5.19 4.29-10.03 9.85-14.37 16.53a3.8 3.8 0 0 0 1.11 5.24 3.78 3.78 0 0 0 5.23-1.11c3.92-6.04 8.24-11.02 12.84-14.82 4.69-3.87 9.88-6.52 14.42-7.49 2.02-.43 2.95-2.3 2.95-3.59V35.24a3.9 3.9 0 0 0-3.91-3.92m56.83 41.53c0 27.36-22.18 49.55-49.55 49.55s-49.55-22.19-49.55-49.55C23.28 45.48 45.47 23.3 72.84 23.3c27.36 0 49.55 22.18 49.55 49.55" clip-path="url(#t)" class="B"/></svg>