<?xml version="1.0" encoding="UTF-8" standalone="no"?>
<!-- Generator: Adobe Illustrator 24.0.1, SVG Export Plug-In . SVG Version: 6.00 Build 0)  -->

<svg
   version="1.1"
   id="图层_1"
   x="0px"
   y="0px"
   viewBox="0 0 145.68 145.7"
   style="enable-background:new 0 0 145.68 145.7;"
   xml:space="preserve"
   sodipodi:docname="Peking_University_seal_2.svg"
   inkscape:version="1.2 (dc2aedaf03, 2022-05-15)"
   xmlns:inkscape="http://www.inkscape.org/namespaces/inkscape"
   xmlns:sodipodi="http://sodipodi.sourceforge.net/DTD/sodipodi-0.dtd"
   xmlns:xlink="http://www.w3.org/1999/xlink"
   xmlns="http://www.w3.org/2000/svg"
   xmlns:svg="http://www.w3.org/2000/svg"><defs
   id="defs291" /><sodipodi:namedview
   id="namedview289"
   pagecolor="#ffffff"
   bordercolor="#000000"
   borderopacity="0.25"
   inkscape:showpageshadow="2"
   inkscape:pageopacity="0.0"
   inkscape:pagecheckerboard="0"
   inkscape:deskcolor="#d1d1d1"
   showgrid="false"
   inkscape:zoom="2.8284271"
   inkscape:cx="59.220193"
   inkscape:cy="94.045202"
   inkscape:window-width="1440"
   inkscape:window-height="829"
   inkscape:window-x="-8"
   inkscape:window-y="-8"
   inkscape:window-maximized="1"
   inkscape:current-layer="图层_1" />
<style
   type="text/css"
   id="style2">
	.st0{clip-path:url(#SVGID_2_);fill:none;stroke:#FFFFFF;stroke-width:6;stroke-miterlimit:10;}
	.st1{clip-path:url(#SVGID_4_);fill:none;stroke:#9B0000;stroke-width:1.002;stroke-miterlimit:10;}
	.st2{clip-path:url(#SVGID_6_);fill:none;stroke:#9B0000;stroke-width:3;stroke-miterlimit:10;}
	.st3{clip-path:url(#SVGID_8_);fill:none;stroke:#9B0000;stroke-width:3;stroke-miterlimit:10;}
	.st4{clip-path:url(#SVGID_10_);fill:none;stroke:#9B0000;stroke-width:1.002;stroke-miterlimit:10;}
	.st5{clip-path:url(#SVGID_12_);fill:#9B0000;}
	.st6{clip-path:url(#SVGID_14_);fill:#9B0000;}
	.st7{clip-path:url(#SVGID_16_);fill:#9B0000;}
	.st8{clip-path:url(#SVGID_18_);fill:#9B0000;}
	.st9{clip-path:url(#SVGID_20_);fill:#9B0000;}
	.st10{clip-path:url(#SVGID_22_);fill:#9B0000;}
	.st11{clip-path:url(#SVGID_24_);fill:#9B0000;}
	.st12{clip-path:url(#SVGID_26_);fill:#9B0000;}
	.st13{clip-path:url(#SVGID_28_);fill:#9B0000;}
	.st14{clip-path:url(#SVGID_30_);fill:#9B0000;}
	.st15{clip-path:url(#SVGID_32_);fill:#9B0000;}
	.st16{clip-path:url(#SVGID_34_);fill:#9B0000;}
	.st17{clip-path:url(#SVGID_36_);fill:#9B0000;}
	.st18{clip-path:url(#SVGID_38_);fill:#9B0000;}
	.st19{clip-path:url(#SVGID_40_);fill:#9B0000;}
	.st20{clip-path:url(#SVGID_42_);fill:#9B0000;}
	.st21{clip-path:url(#SVGID_44_);fill:#9B0000;}
	.st22{clip-path:url(#SVGID_46_);fill:#9B0000;}
	.st23{clip-path:url(#SVGID_48_);fill:#9B0000;}
	.st24{clip-path:url(#SVGID_50_);fill:#9B0000;}
	.st25{clip-path:url(#SVGID_52_);fill:#9B0000;}
	.st26{clip-path:url(#SVGID_54_);fill:#9B0000;}
	.st27{clip-path:url(#SVGID_56_);fill:#9B0000;}
</style>
<g
   id="g54">
	<g
   id="g12">
		<defs
   id="defs5">
			<rect
   id="SVGID_1_"
   x="-44.87"
   y="-119.05"
   width="481.89"
   height="680.32" />
		</defs>
		<clipPath
   id="SVGID_2_">
			<use
   xlink:href="#SVGID_1_"
   style="overflow:visible;"
   id="use7" />
		</clipPath>
		<path
   class="st0"
   d="M437.02-83.05"
   clip-path="url(#SVGID_2_)"
   id="path10" />
	</g>
	<g
   id="g22">
		<defs
   id="defs15">
			<rect
   id="SVGID_3_"
   x="-44.87"
   y="-119.05"
   width="481.89"
   height="680.32" />
		</defs>
		<clipPath
   id="SVGID_4_">
			<use
   xlink:href="#SVGID_3_"
   style="overflow:visible;"
   id="use17" />
		</clipPath>
		<path
   class="st1"
   d="M437.02-85.55"
   clip-path="url(#SVGID_4_)"
   id="path20" />
	</g>
	<g
   id="g32">
		<defs
   id="defs25">
			<rect
   id="SVGID_5_"
   x="-44.87"
   y="-119.05"
   width="481.89"
   height="680.32" />
		</defs>
		<clipPath
   id="SVGID_6_">
			<use
   xlink:href="#SVGID_5_"
   style="overflow:visible;"
   id="use27" />
		</clipPath>
		<path
   class="st2"
   d="M437.02-81.55"
   clip-path="url(#SVGID_6_)"
   id="path30" />
	</g>
	<g
   id="g42">
		<defs
   id="defs35">
			<rect
   id="SVGID_7_"
   x="-44.87"
   y="-119.05"
   width="481.89"
   height="680.32" />
		</defs>
		<clipPath
   id="SVGID_8_">
			<use
   xlink:href="#SVGID_7_"
   style="overflow:visible;"
   id="use37" />
		</clipPath>
		<path
   class="st3"
   d="M437.02,526.77"
   clip-path="url(#SVGID_8_)"
   id="path40" />
	</g>
	<g
   id="g52">
		<defs
   id="defs45">
			<rect
   id="SVGID_9_"
   x="-44.87"
   y="-119.05"
   width="481.89"
   height="680.32" />
		</defs>
		<clipPath
   id="SVGID_10_">
			<use
   xlink:href="#SVGID_9_"
   style="overflow:visible;"
   id="use47" />
		</clipPath>
		<path
   class="st4"
   d="M437.02,530.76"
   clip-path="url(#SVGID_10_)"
   id="path50" />
	</g>
</g>
<g
   id="g286">
	<g
   id="g64">
		<defs
   id="defs57">
			<rect
   id="SVGID_11_"
   x="-44.87"
   y="-119.05"
   width="481.89"
   height="680.32" />
		</defs>
		<clipPath
   id="SVGID_12_">
			<use
   xlink:href="#SVGID_11_"
   style="overflow:visible;"
   id="use59" />
		</clipPath>
		<path
   class="st5"
   d="M47.99,135.12l-0.11,0.05c-0.59-0.32-1.33-0.68-2.21-1.07c-0.86-0.39-1.77-0.78-2.74-1.17l-0.04-0.11    l0.18-0.4l0.11-0.03c0.23,0.08,0.46,0.15,0.68,0.23c0.39,0.14,0.65,0.21,0.77,0.21c0.09,0,0.19-0.05,0.3-0.16    c0.17-0.17,0.59-0.98,1.25-2.43l0.74-1.63c0.22-0.49,0.49-1.11,0.82-1.87l0.21-0.5c0.1-0.22,0.1-0.35,0.01-0.39    c-0.04-0.02-0.19-0.03-0.46-0.02c-0.72,0-1.35,0.01-1.87,0.03l-0.06-0.08c0.09-0.26,0.17-0.56,0.24-0.89l0.03-0.05    c1.36,0.2,2.92,0.36,4.66,0.46l0.09,0.16c-0.13,0.25-0.33,0.62-0.59,1.11c-0.1,0.19-0.35,0.7-0.74,1.53l-1.19,2.57    c-0.83,1.84-1.25,2.85-1.25,3.01c0,0.12,0.04,0.21,0.11,0.27c0.14,0.11,0.53,0.34,1.18,0.68l0.06,0.1L47.99,135.12z"
   clip-path="url(#SVGID_12_)"
   id="path62"
   style="fill:#9a0000;fill-opacity:1" />
	</g>
	<g
   id="g74">
		<defs
   id="defs67">
			<rect
   id="SVGID_13_"
   x="-44.87"
   y="-119.05"
   width="481.89"
   height="680.32" />
		</defs>
		<clipPath
   id="SVGID_14_">
			<use
   xlink:href="#SVGID_13_"
   style="overflow:visible;"
   id="use69" />
		</clipPath>
		<path
   class="st6"
   d="M66.59,131.97c0.06-0.47-0.04-0.87-0.32-1.19c-0.27-0.33-0.68-0.52-1.21-0.6c-0.48-0.06-0.88,0.02-1.2,0.25    c-0.29,0.21-0.47,0.51-0.51,0.87c-0.05,0.36,0.08,0.72,0.38,1.06c0.16,0.18,0.41,0.37,0.74,0.57c0.11,0.07,0.29,0.18,0.53,0.32    l0.41,0.22C66.1,133.19,66.49,132.69,66.59,131.97 M65.94,137.24c0.09-0.69-0.18-1.26-0.82-1.7c-0.42-0.29-0.87-0.56-1.35-0.82    l-0.21-0.11c-0.83,0.42-1.29,1.02-1.4,1.81c-0.06,0.46-0.02,0.84,0.13,1.14c0.33,0.69,0.87,1.08,1.63,1.18    c0.53,0.07,0.98-0.04,1.35-0.32C65.65,138.15,65.87,137.75,65.94,137.24 M67.83,136.65c-0.08,0.56-0.25,1.04-0.53,1.44    c-0.53,0.76-1.3,1.23-2.3,1.4c-0.41,0.07-0.9,0.07-1.46-0.01c-1.2-0.16-2.07-0.69-2.61-1.59c-0.24-0.4-0.32-0.9-0.24-1.49    c0.1-0.72,0.43-1.28,1.01-1.66c0.19-0.13,0.59-0.29,1.21-0.5c-1-0.68-1.43-1.52-1.3-2.51c0.15-1.11,0.82-1.86,2.02-2.22    c0.52-0.16,1.09-0.2,1.71-0.11c0.92,0.12,1.61,0.42,2.08,0.9c0.45,0.46,0.63,1.01,0.55,1.64c-0.12,0.86-0.72,1.49-1.81,1.89    c0.71,0.38,1.19,0.8,1.44,1.26C67.84,135.52,67.92,136.03,67.83,136.65"
   clip-path="url(#SVGID_14_)"
   id="path72"
   style="fill:#9a0000;fill-opacity:1" />
	</g>
	<g
   id="g84">
		<defs
   id="defs77">
			<rect
   id="SVGID_15_"
   x="-44.87"
   y="-119.05"
   width="481.89"
   height="680.32" />
		</defs>
		<clipPath
   id="SVGID_16_">
			<use
   xlink:href="#SVGID_15_"
   style="overflow:visible;"
   id="use79" />
		</clipPath>
		<path
   class="st7"
   d="M82.57,132.53c-0.12-0.88-0.36-1.52-0.7-1.91c-0.35-0.39-0.77-0.55-1.26-0.48c-0.61,0.08-0.99,0.44-1.12,1.07    c-0.07,0.34-0.08,0.72-0.02,1.16c0.1,0.74,0.33,1.29,0.69,1.65c0.34,0.34,0.75,0.47,1.24,0.4c0.63-0.09,1.01-0.4,1.16-0.93    C82.62,133.25,82.63,132.93,82.57,132.53 M84.76,132.98c0.18,1.27,0.07,2.36-0.32,3.26c-0.41,0.95-1.02,1.75-1.83,2.38    c-0.83,0.66-1.79,1.06-2.87,1.21l-0.7-0.38l0.15-0.31c0.17,0.03,0.37,0.03,0.6,0c0.83-0.12,1.52-0.49,2.06-1.14    c0.22-0.26,0.41-0.58,0.57-0.99c0.26-0.64,0.38-1.53,0.35-2.68c-0.7,0.77-1.1,1.16-1.19,1.18c-0.34,0.16-0.71,0.27-1.11,0.33    c-0.71,0.1-1.32-0.06-1.83-0.46c-0.55-0.44-0.88-1.09-1-1.96c-0.19-1.4,0.21-2.51,1.21-3.33c0.47-0.39,1.09-0.63,1.84-0.74    c1.43-0.2,2.52,0.26,3.29,1.37C84.37,131.28,84.62,132.03,84.76,132.98"
   clip-path="url(#SVGID_16_)"
   id="path82"
   style="fill:#9a0000;fill-opacity:1" />
	</g>
	<g
   id="g94">
		<defs
   id="defs87">
			<rect
   id="SVGID_17_"
   x="-44.87"
   y="-119.05"
   width="481.89"
   height="680.32" />
		</defs>
		<clipPath
   id="SVGID_18_">
			<use
   xlink:href="#SVGID_17_"
   style="overflow:visible;"
   id="use89" />
		</clipPath>
		<path
   class="st8"
   d="M100.36,131.48c-0.28-0.64-0.81-0.98-1.58-1.03c-0.51-0.03-1.03-0.03-1.58,0l-0.23,0.01    c-0.49,0.79-0.57,1.55-0.26,2.27c0.18,0.42,0.42,0.72,0.71,0.91c0.64,0.42,1.31,0.47,2.01,0.17c0.49-0.21,0.82-0.54,0.99-0.97    C100.58,132.41,100.56,131.95,100.36,131.48 M98.17,126.63c-0.19-0.43-0.49-0.72-0.89-0.86s-0.85-0.1-1.34,0.12    c-0.44,0.19-0.74,0.47-0.89,0.83c-0.14,0.34-0.14,0.67,0.01,1.02c0.15,0.34,0.44,0.57,0.87,0.71c0.23,0.07,0.54,0.11,0.93,0.11    c0.14,0,0.34,0,0.62,0l0.46-0.02C98.39,127.93,98.46,127.29,98.17,126.63 M101.67,129.99c0.23,0.52,0.32,1.02,0.29,1.51    c-0.06,0.93-0.48,1.73-1.24,2.39c-0.31,0.28-0.73,0.53-1.25,0.75c-1.11,0.49-2.13,0.48-3.06-0.01c-0.41-0.22-0.74-0.6-0.98-1.15    c-0.29-0.67-0.29-1.32,0-1.95c0.1-0.21,0.36-0.56,0.78-1.05c-1.21-0.07-2.01-0.56-2.41-1.47c-0.45-1.03-0.26-2.02,0.57-2.95    c0.36-0.41,0.83-0.74,1.41-0.99c0.85-0.37,1.6-0.47,2.25-0.3c0.62,0.16,1.06,0.54,1.32,1.12c0.35,0.79,0.16,1.65-0.56,2.56    c0.8-0.04,1.43,0.07,1.89,0.33C101.09,129.02,101.42,129.42,101.67,129.99"
   clip-path="url(#SVGID_18_)"
   id="path92"
   style="fill:#9a0000;fill-opacity:1" />
	</g>
	<g
   id="g104">
		<defs
   id="defs97">
			<rect
   id="SVGID_19_"
   x="-44.87"
   y="-119.05"
   width="481.89"
   height="680.32" />
		</defs>
		<clipPath
   id="SVGID_20_">
			<use
   xlink:href="#SVGID_19_"
   style="overflow:visible;"
   id="use99" />
		</clipPath>
		<path
   class="st9"
   d="M45.42,137.76c-8.39-3.55-15.92-8.62-22.39-15.09c-6.47-6.47-11.55-14-15.1-22.39    C4.26,91.6,2.4,82.37,2.4,72.86s1.86-18.73,5.53-27.42c3.55-8.39,8.63-15.92,15.1-22.39s14-11.55,22.39-15.1    c8.68-3.67,17.91-5.54,27.42-5.54s18.73,1.86,27.42,5.54c8.39,3.55,15.92,8.63,22.39,15.1c6.47,6.47,11.55,14,15.1,22.39    c3.67,8.68,5.53,17.91,5.53,27.42c0,9.51-1.86,18.74-5.53,27.42c-3.55,8.39-8.63,15.92-15.1,22.39    c-6.47,6.47-14,11.55-22.39,15.09c-8.68,3.67-17.91,5.53-27.42,5.53S54.1,141.43,45.42,137.76 M44.48,5.73    C35.8,9.4,28.01,14.65,21.33,21.34C14.64,28.03,9.39,35.82,5.72,44.5c-3.8,8.98-5.73,18.52-5.73,28.36s1.93,19.38,5.73,28.36    c3.67,8.67,8.92,16.46,15.61,23.15c6.69,6.69,14.48,11.94,23.15,15.61c8.98,3.8,18.52,5.72,28.35,5.72s19.37-1.93,28.36-5.72    c8.68-3.67,16.47-8.92,23.15-15.61c6.69-6.69,11.94-14.48,15.61-23.15c3.8-8.98,5.73-18.52,5.73-28.36    c0-9.83-1.93-19.37-5.73-28.36c-3.67-8.67-8.92-16.47-15.61-23.16c-6.69-6.69-14.48-11.94-23.15-15.61C92.21,1.93,82.67,0,72.83,0    S53.46,1.93,44.48,5.73"
   clip-path="url(#SVGID_20_)"
   id="path102"
   style="fill:#9a0000;fill-opacity:1" />
	</g>
	<g
   id="g114">
		<defs
   id="defs107">
			<rect
   id="SVGID_21_"
   x="-44.87"
   y="-119.05"
   width="481.89"
   height="680.32" />
		</defs>
		<clipPath
   id="SVGID_22_">
			<use
   xlink:href="#SVGID_21_"
   style="overflow:visible;"
   id="use109" />
		</clipPath>
		<path
   class="st10"
   d="M52.5,120.99c-6.22-2.63-11.81-6.4-16.6-11.2c-4.8-4.8-8.56-10.39-11.19-16.61    c-2.73-6.44-4.11-13.28-4.11-20.33s1.38-13.9,4.11-20.34c2.62-6.21,6.39-11.8,11.18-16.6c4.8-4.8,10.38-8.56,16.6-11.2    c6.44-2.72,13.28-4.1,20.33-4.1c7.06,0,13.9,1.38,20.34,4.1c6.22,2.63,11.81,6.4,16.61,11.2s8.57,10.38,11.2,16.6    c2.72,6.44,4.1,13.28,4.1,20.34c0,7.05-1.38,13.89-4.1,20.33c-2.63,6.22-6.4,11.81-11.2,16.61c-4.8,4.8-10.39,8.57-16.61,11.2    c-6.44,2.73-13.28,4.11-20.34,4.11C65.78,125.1,58.94,123.71,52.5,120.99 M51.87,23.22c-6.41,2.71-12.18,6.6-17.12,11.54    c-4.95,4.95-8.83,10.71-11.54,17.12c-2.81,6.64-4.23,13.7-4.23,20.97c0,7.27,1.42,14.32,4.23,20.97    c2.71,6.41,6.6,12.17,11.54,17.12c4.95,4.95,10.71,8.83,17.12,11.55c6.64,2.81,13.69,4.23,20.96,4.23    c7.28,0,14.33-1.42,20.97-4.23c6.42-2.71,12.18-6.6,17.13-11.55c4.95-4.95,8.83-10.71,11.54-17.12c2.81-6.64,4.23-13.7,4.23-20.97    c0-7.27-1.42-14.33-4.23-20.97c-2.71-6.41-6.6-12.17-11.54-17.12c-4.95-4.95-10.71-8.83-17.13-11.54    c-6.64-2.81-13.7-4.23-20.97-4.23C65.56,18.98,58.51,20.41,51.87,23.22"
   clip-path="url(#SVGID_22_)"
   id="path112"
   style="fill:#9a0000;fill-opacity:1" />
	</g>
	<g
   id="g124">
		<defs
   id="defs117">
			<rect
   id="SVGID_23_"
   x="-44.87"
   y="-119.05"
   width="481.89"
   height="680.32" />
		</defs>
		<clipPath
   id="SVGID_24_">
			<use
   xlink:href="#SVGID_23_"
   style="overflow:visible;"
   id="use119" />
		</clipPath>
		<path
   class="st11"
   d="M12.3,93.84c-0.67,0.26-1.12,0.58-1.34,0.98c-0.22,0.39-0.2,0.94,0.06,1.63l0.2,0.52l3.93-1.5l-0.1-0.26    c-0.26-0.69-0.62-1.15-1.08-1.39C13.52,93.58,12.96,93.59,12.3,93.84 M11.05,91.51c0.51-0.19,0.98-0.26,1.43-0.19    c0.44,0.07,0.85,0.24,1.22,0.52c0.38,0.29,0.72,0.65,1.01,1.1c0.29,0.44,0.55,0.97,0.78,1.57l0.28,0.73l2.52-0.96    c0.15-0.06,0.27-0.14,0.36-0.24s0.14-0.25,0.14-0.43c0-0.1-0.02-0.25-0.05-0.46c-0.04-0.21-0.07-0.38-0.11-0.52l0.5-0.19l1.87,4.9    l-0.5,0.19c-0.06-0.12-0.14-0.27-0.24-0.47c-0.1-0.2-0.18-0.33-0.25-0.39c-0.13-0.14-0.25-0.22-0.37-0.23    c-0.12-0.02-0.26,0.01-0.43,0.07l-6.33,2.42c-0.15,0.06-0.27,0.13-0.35,0.22c-0.09,0.09-0.14,0.24-0.14,0.43    c-0.01,0.14,0.01,0.31,0.05,0.53c0.03,0.21,0.06,0.37,0.09,0.47l-0.49,0.19l-1.89-4.95c-0.44-1.16-0.59-2.09-0.44-2.81    C9.83,92.3,10.29,91.8,11.05,91.51"
   clip-path="url(#SVGID_24_)"
   id="path122"
   style="fill:#9a0000;fill-opacity:1" />
	</g>
	<g
   id="g134">
		<defs
   id="defs127">
			<rect
   id="SVGID_25_"
   x="-44.87"
   y="-119.05"
   width="481.89"
   height="680.32" />
		</defs>
		<clipPath
   id="SVGID_26_">
			<use
   xlink:href="#SVGID_25_"
   style="overflow:visible;"
   id="use129" />
		</clipPath>
		<path
   class="st12"
   d="M8.5,76.43l0.06,0.53c-0.35,0.17-0.69,0.44-1.02,0.79c-0.34,0.36-0.52,0.7-0.55,1.02    C6.97,78.91,6.98,79.09,7,79.33s0.04,0.43,0.06,0.59l0.16,1.37l3.67-0.43l-0.11-0.97c-0.03-0.24-0.08-0.46-0.16-0.65    s-0.22-0.36-0.4-0.51c-0.11-0.09-0.31-0.17-0.58-0.25s-0.5-0.11-0.7-0.12l-0.06-0.52l3.97-0.46l0.06,0.52    c-0.19,0.05-0.41,0.14-0.69,0.29c-0.27,0.14-0.46,0.27-0.55,0.38c-0.14,0.17-0.24,0.35-0.27,0.56c-0.04,0.21-0.04,0.44-0.01,0.7    l0.11,0.97l2.76-0.32c0.29-0.03,0.51-0.08,0.68-0.14c0.16-0.06,0.28-0.15,0.36-0.28c0.07-0.12,0.11-0.28,0.11-0.48    c0-0.2-0.01-0.46-0.05-0.8c-0.02-0.15-0.04-0.34-0.07-0.56c-0.03-0.22-0.07-0.41-0.11-0.57c-0.04-0.18-0.1-0.36-0.16-0.52    c-0.07-0.16-0.14-0.27-0.24-0.34c-0.24-0.19-0.61-0.39-1.09-0.61s-0.84-0.35-1.07-0.41l-0.06-0.48l2.99-0.16l1.04,8.94l-0.52,0.06    c-0.02-0.13-0.06-0.29-0.11-0.51c-0.05-0.21-0.1-0.36-0.15-0.45c-0.09-0.16-0.2-0.27-0.31-0.31c-0.12-0.05-0.26-0.06-0.43-0.04    l-6.73,0.79c-0.16,0.02-0.29,0.06-0.39,0.12c-0.1,0.06-0.18,0.19-0.24,0.39c-0.04,0.12-0.07,0.29-0.09,0.51s-0.03,0.38-0.03,0.49    l-0.53,0.06l-0.99-8.45L8.5,76.43z"
   clip-path="url(#SVGID_26_)"
   id="path132"
   style="fill:#9a0000;fill-opacity:1" />
	</g>
	<g
   id="g144">
		<defs
   id="defs137">
			<rect
   id="SVGID_27_"
   x="-44.87"
   y="-119.05"
   width="481.89"
   height="680.32" />
		</defs>
		<clipPath
   id="SVGID_28_">
			<use
   xlink:href="#SVGID_27_"
   style="overflow:visible;"
   id="use139" />
		</clipPath>
		<path
   class="st13"
   d="M17.11,58.67l-0.54,3.75c-0.95,0.44-1.76,0.85-2.41,1.22c-0.65,0.37-1.47,0.85-2.46,1.43l-0.05,0.35l3,0.43    c0.16,0.02,0.3,0.01,0.42-0.03s0.23-0.14,0.33-0.31c0.05-0.08,0.1-0.19,0.16-0.34c0.06-0.15,0.11-0.31,0.15-0.46l0.52,0.07    l-0.72,5.05l-0.52-0.08c0.01-0.12,0.02-0.29,0.03-0.52c0.01-0.22,0.01-0.38-0.01-0.48c-0.04-0.17-0.11-0.29-0.21-0.37    s-0.24-0.13-0.41-0.15l-6.74-0.96c-0.16-0.02-0.29-0.01-0.41,0.02c-0.11,0.04-0.23,0.14-0.34,0.31c-0.08,0.13-0.16,0.29-0.23,0.48    s-0.12,0.34-0.15,0.46L6,68.46l0.75-5.22l0.52,0.08c-0.01,0.14-0.01,0.31-0.01,0.5c0,0.2,0.01,0.37,0.03,0.51    c0.03,0.18,0.11,0.31,0.22,0.39c0.12,0.08,0.25,0.12,0.4,0.15l3.21,0.46l0.04-0.28c-0.27-0.39-0.59-0.85-0.97-1.38    c-0.38-0.53-0.7-0.94-0.95-1.23c-0.35-0.41-0.63-0.72-0.83-0.92c-0.21-0.2-0.4-0.31-0.57-0.34c-0.08-0.01-0.15,0.06-0.21,0.22    s-0.13,0.4-0.19,0.74l-0.52-0.07l0.59-4.13l0.52,0.07c-0.02,0.5,0.01,0.93,0.09,1.29c0.08,0.35,0.25,0.72,0.5,1.09    c0.36,0.53,0.67,0.98,0.94,1.33s0.61,0.81,1.04,1.36c0.58-0.35,1.3-0.77,2.14-1.26c0.84-0.49,1.67-0.98,2.47-1.47    c0.21-0.12,0.41-0.27,0.6-0.44c0.2-0.17,0.36-0.36,0.5-0.58c0.07-0.1,0.12-0.22,0.17-0.36s0.08-0.26,0.1-0.36L17.11,58.67z"
   clip-path="url(#SVGID_28_)"
   id="path142"
   style="fill:#9a0000;fill-opacity:1" />
	</g>
	<g
   id="g154">
		<defs
   id="defs147">
			<rect
   id="SVGID_29_"
   x="-44.87"
   y="-119.05"
   width="481.89"
   height="680.32" />
		</defs>
		<clipPath
   id="SVGID_30_">
			<use
   xlink:href="#SVGID_29_"
   style="overflow:visible;"
   id="use149" />
		</clipPath>
		<path
   class="st14"
   d="M20.74,49.14l-1.98,4.95l-0.49-0.2c0.04-0.12,0.09-0.29,0.16-0.51c0.07-0.23,0.11-0.39,0.11-0.49    c0-0.18-0.04-0.32-0.12-0.42s-0.2-0.18-0.36-0.24l-6.32-2.53c-0.14-0.06-0.28-0.08-0.41-0.07c-0.13,0.01-0.26,0.08-0.39,0.21    c-0.08,0.08-0.18,0.22-0.31,0.39c-0.12,0.18-0.22,0.34-0.29,0.47l-0.49-0.2l1.98-4.95l0.49,0.2c-0.04,0.13-0.08,0.29-0.13,0.49    s-0.08,0.37-0.09,0.52c-0.01,0.18,0.03,0.33,0.12,0.43s0.21,0.18,0.36,0.24l6.31,2.53c0.15,0.06,0.29,0.08,0.42,0.07    c0.13-0.01,0.26-0.09,0.39-0.22c0.07-0.07,0.17-0.2,0.28-0.39c0.12-0.19,0.21-0.35,0.27-0.49L20.74,49.14z"
   clip-path="url(#SVGID_30_)"
   id="path152"
   style="fill:#9a0000;fill-opacity:1" />
	</g>
	<g
   id="g164">
		<defs
   id="defs157">
			<rect
   id="SVGID_31_"
   x="-44.87"
   y="-119.05"
   width="481.89"
   height="680.32" />
		</defs>
		<clipPath
   id="SVGID_32_">
			<use
   xlink:href="#SVGID_31_"
   style="overflow:visible;"
   id="use159" />
		</clipPath>
		<path
   class="st15"
   d="M22.29,29.65c-0.06,0.11-0.15,0.27-0.25,0.48c-0.11,0.21-0.16,0.43-0.15,0.67c0,0.21,0.1,0.42,0.31,0.65    c0.2,0.23,0.53,0.51,1,0.85l5.59,4.01l-0.71,0.98l-9.52,0.51l3.66,2.63c0.46,0.33,0.82,0.54,1.1,0.65s0.52,0.14,0.73,0.08    c0.15-0.04,0.34-0.15,0.55-0.32c0.22-0.17,0.38-0.31,0.5-0.43l0.43,0.31l-2.41,3.35l-0.43-0.31c0.09-0.15,0.18-0.33,0.27-0.55    c0.09-0.21,0.14-0.41,0.14-0.6c0-0.22-0.1-0.43-0.27-0.64c-0.18-0.21-0.52-0.49-1.02-0.86l-3.7-2.66    c-0.18-0.13-0.38-0.23-0.58-0.29s-0.41-0.07-0.61-0.04c-0.22,0.04-0.42,0.11-0.61,0.23s-0.38,0.26-0.58,0.45l-0.43-0.31l2.11-2.94    l8.35-0.45l-2.97-2.13c-0.47-0.34-0.85-0.56-1.12-0.66c-0.27-0.1-0.51-0.13-0.72-0.07c-0.16,0.04-0.35,0.15-0.56,0.31    s-0.37,0.3-0.48,0.41l-0.42-0.3l2.39-3.34L22.29,29.65z"
   clip-path="url(#SVGID_32_)"
   id="path162"
   style="fill:#9a0000;fill-opacity:1" />
	</g>
	<g
   id="g174">
		<defs
   id="defs167">
			<rect
   id="SVGID_33_"
   x="-44.87"
   y="-119.05"
   width="481.89"
   height="680.32" />
		</defs>
		<clipPath
   id="SVGID_34_">
			<use
   xlink:href="#SVGID_33_"
   style="overflow:visible;"
   id="use169" />
		</clipPath>
		<path
   class="st16"
   d="M38.93,21.74c-0.1,0.1-0.19,0.19-0.26,0.27s-0.15,0.2-0.25,0.34c-0.11,0.16-0.14,0.31-0.1,0.46    c0.04,0.14,0.11,0.27,0.2,0.39l0.7,0.87c0.14,0.18,0.26,0.32,0.35,0.42s0.2,0.23,0.34,0.38c-0.18,0.49-0.54,1.11-1.08,1.85    c-0.54,0.74-1.09,1.34-1.67,1.8c-0.54,0.43-1.12,0.76-1.72,0.98c-0.61,0.21-1.22,0.3-1.85,0.26c-0.62-0.04-1.23-0.22-1.83-0.54    c-0.59-0.32-1.14-0.79-1.65-1.42c-0.47-0.58-0.81-1.2-1.01-1.85s-0.27-1.3-0.19-1.95c0.07-0.64,0.29-1.26,0.65-1.87    s0.85-1.16,1.48-1.66c0.42-0.34,0.86-0.61,1.3-0.79c0.44-0.19,0.83-0.32,1.17-0.39l0.09-0.55l0.46-0.37l2.25,2.7l-0.46,0.37    c-0.93-0.61-1.74-0.96-2.43-1.06s-1.32,0.08-1.89,0.54c-0.68,0.54-0.96,1.26-0.85,2.14s0.58,1.84,1.41,2.88    c0.88,1.1,1.75,1.81,2.61,2.14c0.86,0.33,1.62,0.23,2.27-0.3c0.31-0.25,0.54-0.51,0.71-0.8s0.27-0.54,0.3-0.77l-1.22-1.51    c-0.1-0.13-0.21-0.21-0.32-0.26s-0.27-0.05-0.45,0c-0.14,0.04-0.31,0.1-0.49,0.2c-0.18,0.1-0.33,0.18-0.45,0.25l-0.33-0.41    l3.89-3.13L38.93,21.74z"
   clip-path="url(#SVGID_34_)"
   id="path172"
   style="fill:#9a0000;fill-opacity:1" />
	</g>
	<g
   id="g184">
		<defs
   id="defs177">
			<rect
   id="SVGID_35_"
   x="-44.87"
   y="-119.05"
   width="481.89"
   height="680.32" />
		</defs>
		<clipPath
   id="SVGID_36_">
			<use
   xlink:href="#SVGID_35_"
   style="overflow:visible;"
   id="use179" />
		</clipPath>
		<path
   class="st17"
   d="M61.3,7.37C61.18,7.42,61,7.5,60.77,7.61c-0.23,0.11-0.41,0.24-0.54,0.4c-0.14,0.15-0.2,0.38-0.2,0.68    c0.01,0.3,0.09,0.73,0.24,1.3l0.92,3.45c0.27,1.01,0.14,1.92-0.38,2.72c-0.53,0.8-1.36,1.35-2.49,1.66    c-1.32,0.35-2.43,0.33-3.31-0.07s-1.47-1.14-1.75-2.2l-1.27-4.75c-0.04-0.15-0.1-0.27-0.19-0.37c-0.09-0.09-0.23-0.16-0.42-0.2    c-0.13-0.02-0.28-0.03-0.45-0.02c-0.17,0.01-0.32,0.02-0.42,0.04l-0.14-0.51l4.87-1.3l0.14,0.51C55.24,9,55.1,9.05,54.97,9.11    c-0.14,0.06-0.28,0.14-0.41,0.22c-0.15,0.1-0.24,0.21-0.26,0.35c-0.02,0.14-0.02,0.28,0.02,0.43l1.25,4.68    c0.25,0.92,0.63,1.53,1.15,1.84c0.52,0.31,1.16,0.36,1.94,0.15c0.76-0.2,1.3-0.59,1.61-1.17c0.31-0.58,0.35-1.31,0.11-2.21    l-0.84-3.14c-0.15-0.56-0.3-0.96-0.45-1.22c-0.15-0.26-0.32-0.42-0.51-0.5c-0.14-0.07-0.36-0.1-0.67-0.1c-0.3,0-0.51,0-0.63,0.02    l-0.14-0.53l4.05-1.08L61.3,7.37z"
   clip-path="url(#SVGID_36_)"
   id="path182"
   style="fill:#9a0000;fill-opacity:1" />
	</g>
	<g
   id="g194">
		<defs
   id="defs187">
			<rect
   id="SVGID_37_"
   x="-44.87"
   y="-119.05"
   width="481.89"
   height="680.32" />
		</defs>
		<clipPath
   id="SVGID_38_">
			<use
   xlink:href="#SVGID_37_"
   style="overflow:visible;"
   id="use189" />
		</clipPath>
		<path
   class="st18"
   d="M79.44,6.68c-0.13,0.01-0.31,0.04-0.54,0.07s-0.45,0.12-0.64,0.26c-0.17,0.12-0.29,0.33-0.36,0.62    s-0.11,0.73-0.12,1.3l-0.1,6.88l-1.21-0.02l-5.86-7.51l-0.06,4.51c-0.01,0.56,0.02,0.98,0.09,1.28c0.07,0.29,0.19,0.51,0.35,0.65    c0.12,0.1,0.31,0.19,0.58,0.27c0.26,0.08,0.48,0.13,0.63,0.16l-0.01,0.53l-4.13-0.06l0.01-0.53c0.18-0.01,0.38-0.04,0.6-0.09    c0.23-0.05,0.42-0.13,0.57-0.23c0.18-0.13,0.3-0.32,0.37-0.59c0.07-0.26,0.11-0.71,0.12-1.33l0.06-4.55c0-0.23-0.03-0.44-0.1-0.64    c-0.07-0.2-0.17-0.38-0.32-0.52c-0.15-0.16-0.33-0.28-0.54-0.37c-0.2-0.09-0.44-0.16-0.69-0.22l0.01-0.53l3.61,0.05l5.14,6.59    L76.95,9c0.01-0.58-0.03-1.01-0.1-1.3c-0.07-0.28-0.19-0.5-0.35-0.64c-0.13-0.11-0.32-0.2-0.57-0.28s-0.46-0.13-0.61-0.16    l0.01-0.52l4.1,0.06L79.44,6.68z"
   clip-path="url(#SVGID_38_)"
   id="path192"
   style="fill:#9a0000;fill-opacity:1" />
	</g>
	<g
   id="g204">
		<defs
   id="defs197">
			<rect
   id="SVGID_39_"
   x="-44.87"
   y="-119.05"
   width="481.89"
   height="680.32" />
		</defs>
		<clipPath
   id="SVGID_40_">
			<use
   xlink:href="#SVGID_39_"
   style="overflow:visible;"
   id="use199" />
		</clipPath>
		<path
   class="st19"
   d="M89.79,18.18l-5.16-1.34l0.13-0.51c0.12,0.02,0.3,0.05,0.53,0.09c0.23,0.04,0.4,0.06,0.5,0.04    c0.18-0.02,0.31-0.08,0.4-0.17c0.09-0.09,0.15-0.22,0.2-0.39l1.71-6.59c0.04-0.15,0.04-0.29,0.02-0.41    c-0.03-0.13-0.11-0.25-0.26-0.36c-0.09-0.07-0.24-0.16-0.43-0.26s-0.36-0.18-0.51-0.23l0.13-0.51l5.16,1.34l-0.13,0.51    c-0.13-0.02-0.3-0.05-0.51-0.07c-0.2-0.03-0.38-0.04-0.52-0.03c-0.19,0.01-0.32,0.07-0.41,0.18c-0.09,0.11-0.15,0.23-0.19,0.39    l-1.71,6.59c-0.04,0.16-0.04,0.3-0.01,0.42s0.12,0.25,0.27,0.36c0.08,0.06,0.22,0.14,0.43,0.23c0.2,0.09,0.37,0.16,0.52,0.21    L89.79,18.18z"
   clip-path="url(#SVGID_40_)"
   id="path202"
   style="fill:#9a0000;fill-opacity:1" />
	</g>
	<g
   id="g214">
		<defs
   id="defs207">
			<rect
   id="SVGID_41_"
   x="-44.87"
   y="-119.05"
   width="481.89"
   height="680.32" />
		</defs>
		<clipPath
   id="SVGID_42_">
			<use
   xlink:href="#SVGID_41_"
   style="overflow:visible;"
   id="use209" />
		</clipPath>
		<path
   class="st20"
   d="M108.7,16.89c-0.14-0.06-0.28-0.1-0.41-0.13c-0.14-0.03-0.29-0.04-0.46-0.03c-0.22,0.01-0.41,0.04-0.57,0.11    c-0.15,0.07-0.33,0.17-0.53,0.32c-0.27,0.21-0.66,0.52-1.16,0.93s-1.08,0.88-1.72,1.4c-0.58,0.47-1.2,0.99-1.88,1.55    s-1.33,1.11-1.95,1.63l-1.2-0.64c0.17-1.66,0.34-3.35,0.51-5.07c0.17-1.72,0.28-2.91,0.34-3.59c0.01-0.25,0-0.45-0.03-0.59    c-0.03-0.15-0.11-0.32-0.24-0.53c-0.1-0.15-0.19-0.26-0.27-0.35c-0.09-0.08-0.21-0.18-0.37-0.3l0.25-0.47l4.6,2.44l-0.24,0.46    c-0.47-0.18-0.8-0.29-0.99-0.31c-0.19-0.03-0.3,0.01-0.35,0.09c-0.02,0.05-0.04,0.09-0.05,0.15s-0.03,0.13-0.04,0.23    c-0.06,0.42-0.13,1.12-0.22,2.1c-0.09,0.98-0.24,2.47-0.44,4.47c0.94-0.79,1.72-1.45,2.36-2.01c0.64-0.55,1.2-1.03,1.69-1.46    c0.24-0.2,0.45-0.4,0.63-0.59s0.3-0.33,0.36-0.45c0.07-0.13,0.03-0.28-0.11-0.47c-0.14-0.18-0.45-0.43-0.94-0.74l0.25-0.48    l3.44,1.82L108.7,16.89z"
   clip-path="url(#SVGID_42_)"
   id="path212"
   style="fill:#9a0000;fill-opacity:1" />
	</g>
	<g
   id="g224">
		<defs
   id="defs217">
			<rect
   id="SVGID_43_"
   x="-44.87"
   y="-119.05"
   width="481.89"
   height="680.32" />
		</defs>
		<clipPath
   id="SVGID_44_">
			<use
   xlink:href="#SVGID_43_"
   style="overflow:visible;"
   id="use219" />
		</clipPath>
		<path
   class="st21"
   d="M119.15,28.05l-0.39-0.36c0.15-0.36,0.24-0.78,0.26-1.27c0.02-0.49-0.07-0.86-0.25-1.13    c-0.08-0.11-0.2-0.25-0.38-0.42c-0.17-0.17-0.32-0.3-0.43-0.41l-1.02-0.93l-2.5,2.73l0.72,0.66c0.18,0.16,0.37,0.29,0.55,0.39    c0.19,0.09,0.4,0.13,0.63,0.12c0.14-0.01,0.34-0.07,0.6-0.19c0.25-0.12,0.46-0.24,0.61-0.37l0.39,0.36l-2.7,2.95l-0.39-0.36    c0.11-0.16,0.22-0.38,0.33-0.66c0.11-0.29,0.17-0.5,0.17-0.65c0-0.22-0.05-0.42-0.16-0.6s-0.26-0.36-0.45-0.54l-0.72-0.66    l-1.87,2.05c-0.2,0.21-0.34,0.4-0.42,0.55c-0.08,0.15-0.11,0.3-0.09,0.45c0.03,0.14,0.1,0.28,0.23,0.44    c0.13,0.15,0.31,0.34,0.56,0.57c0.12,0.11,0.26,0.23,0.42,0.38c0.17,0.15,0.32,0.27,0.46,0.36c0.15,0.11,0.31,0.2,0.46,0.28    c0.15,0.08,0.29,0.11,0.4,0.1c0.31-0.02,0.71-0.1,1.22-0.25c0.5-0.15,0.86-0.28,1.08-0.39l0.36,0.33l-2.15,2.08l-6.64-6.07    l0.36-0.39c0.1,0.08,0.24,0.18,0.42,0.31s0.31,0.21,0.41,0.24c0.18,0.06,0.32,0.07,0.44,0.03s0.24-0.13,0.35-0.25l4.57-5    c0.11-0.12,0.18-0.24,0.22-0.35s0.01-0.27-0.07-0.46c-0.05-0.12-0.14-0.27-0.27-0.45s-0.23-0.31-0.3-0.39l0.36-0.39l6.28,5.74    L119.15,28.05z"
   clip-path="url(#SVGID_44_)"
   id="path222"
   style="fill:#9a0000;fill-opacity:1" />
	</g>
	<g
   id="g234">
		<defs
   id="defs227">
			<rect
   id="SVGID_45_"
   x="-44.87"
   y="-119.05"
   width="481.89"
   height="680.32" />
		</defs>
		<clipPath
   id="SVGID_46_">
			<use
   xlink:href="#SVGID_45_"
   style="overflow:visible;"
   id="use229" />
		</clipPath>
		<path
   class="st22"
   d="M127.65,39.18c0.54-0.35,0.84-0.75,0.89-1.21s-0.1-0.97-0.46-1.53l-0.29-0.45l-3.38,2.18l0.28,0.43    c0.36,0.56,0.78,0.89,1.27,1.01S127.01,39.58,127.65,39.18 M124.13,46.91l-2-3.1c0.47-1.06,0.84-1.92,1.09-2.59    c0.26-0.67,0.53-1.47,0.83-2.4l-0.19-0.3l-2.44,1.58c-0.13,0.09-0.23,0.19-0.29,0.3s-0.08,0.26-0.05,0.45    c0.02,0.09,0.06,0.22,0.12,0.4c0.07,0.17,0.13,0.32,0.19,0.44l-0.44,0.29l-2.79-4.32l0.45-0.29c0.08,0.1,0.19,0.24,0.33,0.41    s0.25,0.28,0.33,0.34c0.15,0.11,0.29,0.15,0.42,0.14s0.26-0.06,0.4-0.15l5.69-3.67c0.14-0.09,0.24-0.18,0.3-0.28    s0.08-0.25,0.04-0.46c-0.03-0.16-0.08-0.33-0.15-0.51c-0.07-0.19-0.13-0.33-0.18-0.44l0.44-0.29l2.92,4.53    c0.65,1.01,0.99,1.89,1.01,2.61c0.02,0.73-0.29,1.3-0.93,1.72c-0.57,0.37-1.13,0.5-1.68,0.4c-0.55-0.1-1.14-0.42-1.77-0.96    c-0.17,0.47-0.36,1.02-0.58,1.65s-0.43,1.27-0.65,1.94c-0.07,0.21-0.15,0.49-0.23,0.83s-0.1,0.6-0.05,0.79    c0.03,0.1,0.08,0.23,0.15,0.38c0.07,0.15,0.12,0.25,0.15,0.31L124.13,46.91z"
   clip-path="url(#SVGID_46_)"
   id="path232"
   style="fill:#9a0000;fill-opacity:1" />
	</g>
	<g
   id="g244">
		<defs
   id="defs237">
			<rect
   id="SVGID_47_"
   x="-44.87"
   y="-119.05"
   width="481.89"
   height="680.32" />
		</defs>
		<clipPath
   id="SVGID_48_">
			<use
   xlink:href="#SVGID_47_"
   style="overflow:visible;"
   id="use239" />
		</clipPath>
		<path
   class="st23"
   d="M126.82,54.8c-0.19-0.56-0.29-1.1-0.32-1.63c-0.03-0.53,0-0.99,0.08-1.39l-0.6-0.29l-0.18-0.54l3.26-1.18    l0.19,0.56c-0.27,0.23-0.54,0.5-0.82,0.8c-0.28,0.31-0.51,0.63-0.7,0.98c-0.2,0.36-0.33,0.73-0.4,1.11s-0.03,0.79,0.11,1.22    c0.19,0.58,0.49,0.98,0.87,1.2c0.38,0.22,0.79,0.25,1.22,0.11c0.35-0.12,0.6-0.35,0.76-0.69c0.15-0.34,0.22-0.82,0.21-1.43    c-0.01-0.4-0.01-0.76-0.01-1.1s0-0.65,0.02-0.95c0.04-0.7,0.24-1.27,0.59-1.71c0.35-0.45,0.81-0.77,1.37-0.96    c0.36-0.12,0.72-0.16,1.1-0.11c0.38,0.04,0.75,0.17,1.11,0.38c0.34,0.2,0.66,0.5,0.96,0.88c0.3,0.39,0.54,0.84,0.71,1.36    c0.17,0.51,0.26,1,0.27,1.49c0.01,0.49-0.01,0.88-0.07,1.18l0.51,0.26l0.19,0.56l-3.09,1.1l-0.19-0.56    c0.29-0.24,0.58-0.5,0.86-0.79c0.29-0.29,0.51-0.57,0.68-0.84c0.18-0.29,0.29-0.6,0.35-0.92c0.05-0.32,0.02-0.67-0.1-1.04    c-0.15-0.46-0.41-0.8-0.77-1.01s-0.73-0.25-1.11-0.12c-0.36,0.12-0.61,0.35-0.76,0.68s-0.21,0.8-0.21,1.4c0,0.35,0,0.71,0,1.08    c0,0.37,0,0.69-0.01,0.98c-0.03,0.7-0.2,1.29-0.52,1.75c-0.31,0.46-0.78,0.8-1.41,1.01c-0.39,0.13-0.81,0.17-1.24,0.1    c-0.43-0.06-0.82-0.21-1.17-0.44c-0.38-0.25-0.72-0.58-1.02-0.98C127.27,55.9,127.02,55.4,126.82,54.8"
   clip-path="url(#SVGID_48_)"
   id="path242"
   style="fill:#9a0000;fill-opacity:1" />
	</g>
	<g
   id="g254">
		<defs
   id="defs247">
			<rect
   id="SVGID_49_"
   x="-44.87"
   y="-119.05"
   width="481.89"
   height="680.32" />
		</defs>
		<clipPath
   id="SVGID_50_">
			<use
   xlink:href="#SVGID_49_"
   style="overflow:visible;"
   id="use249" />
		</clipPath>
		<path
   class="st24"
   d="M129.97,69.57l-0.55-5.3l0.53-0.05c0.02,0.12,0.05,0.29,0.1,0.53c0.04,0.23,0.08,0.39,0.13,0.48    c0.09,0.16,0.19,0.26,0.3,0.31c0.12,0.05,0.26,0.07,0.43,0.05l6.77-0.7c0.15-0.02,0.28-0.06,0.39-0.13s0.19-0.2,0.25-0.37    c0.03-0.11,0.06-0.28,0.09-0.49c0.02-0.22,0.04-0.4,0.04-0.55l0.53-0.05l0.55,5.3L139,68.65c-0.03-0.13-0.06-0.3-0.11-0.5    s-0.1-0.37-0.16-0.5c-0.08-0.17-0.18-0.28-0.31-0.32c-0.13-0.05-0.27-0.06-0.43-0.04l-6.77,0.7c-0.16,0.02-0.3,0.06-0.4,0.13    c-0.11,0.07-0.19,0.2-0.24,0.38c-0.03,0.1-0.05,0.26-0.07,0.48s-0.02,0.41-0.01,0.56L129.97,69.57z"
   clip-path="url(#SVGID_50_)"
   id="path252"
   style="fill:#9a0000;fill-opacity:1" />
	</g>
	<g
   id="g264">
		<defs
   id="defs257">
			<rect
   id="SVGID_51_"
   x="-44.87"
   y="-119.05"
   width="481.89"
   height="680.32" />
		</defs>
		<clipPath
   id="SVGID_52_">
			<use
   xlink:href="#SVGID_51_"
   style="overflow:visible;"
   id="use259" />
		</clipPath>
		<path
   class="st25"
   d="M135.86,85.08l0.06-0.52c0.42-0.09,0.88-0.26,1.38-0.51s0.78-0.5,0.85-0.76c0.03-0.14,0.07-0.32,0.11-0.52    c0.04-0.21,0.07-0.39,0.09-0.54l0.04-0.32l-7.47-0.89c-0.16-0.02-0.31-0.01-0.44,0.04c-0.13,0.04-0.24,0.15-0.33,0.31    c-0.05,0.1-0.11,0.26-0.18,0.47c-0.07,0.21-0.12,0.4-0.16,0.55l-0.52-0.06l0.63-5.34l0.52,0.06c0,0.13-0.01,0.32-0.01,0.56    s0.01,0.4,0.03,0.49c0.05,0.18,0.13,0.31,0.25,0.39c0.12,0.07,0.25,0.12,0.42,0.14l7.54,0.89l0.04-0.32    c0.02-0.15,0.03-0.33,0.04-0.55c0.01-0.21,0.02-0.39,0.02-0.53c0-0.26-0.22-0.58-0.65-0.94s-0.84-0.64-1.23-0.82l0.06-0.53    l2.73,0.32l-1.1,9.24L135.86,85.08z"
   clip-path="url(#SVGID_52_)"
   id="path262"
   style="fill:#9a0000;fill-opacity:1" />
	</g>
	<g
   id="g274">
		<defs
   id="defs267">
			<rect
   id="SVGID_53_"
   x="-44.87"
   y="-119.05"
   width="481.89"
   height="680.32" />
		</defs>
		<clipPath
   id="SVGID_54_">
			<use
   xlink:href="#SVGID_53_"
   style="overflow:visible;"
   id="use269" />
		</clipPath>
		<path
   class="st26"
   d="M132.73,101.71c0.04-0.16,0.07-0.31,0.08-0.45s0-0.28-0.02-0.42c-0.03-0.22-0.1-0.43-0.2-0.63    c-0.1-0.2-0.23-0.41-0.37-0.62c-0.3-0.43-0.62-0.88-0.98-1.36c-0.35-0.48-0.75-1-1.18-1.57c-0.27-0.37-0.49-0.62-0.66-0.74    c-0.17-0.13-0.49-0.28-0.97-0.46l-1.27-0.49c-0.15-0.06-0.3-0.08-0.43-0.07c-0.14,0.01-0.27,0.09-0.4,0.22    c-0.06,0.06-0.15,0.2-0.29,0.41c-0.14,0.21-0.23,0.37-0.28,0.48l-0.49-0.19l1.92-5.02l0.49,0.19c-0.04,0.12-0.09,0.3-0.15,0.53    s-0.09,0.4-0.09,0.5c0.01,0.18,0.06,0.32,0.15,0.42s0.22,0.18,0.38,0.24l1.58,0.6c0.14,0.05,0.26,0.1,0.37,0.13    c0.11,0.04,0.2,0.06,0.28,0.06c0.09,0,0.21-0.01,0.36-0.03s0.35-0.05,0.59-0.09c0.69-0.11,1.35-0.21,1.98-0.32    c0.63-0.11,1.21-0.21,1.76-0.32c0.29-0.05,0.53-0.13,0.72-0.22c0.2-0.09,0.37-0.2,0.52-0.31c0.11-0.09,0.21-0.21,0.3-0.36    c0.1-0.15,0.17-0.29,0.23-0.41l0.49,0.19l-1.97,5.14l-0.49-0.19c0.17-0.48,0.26-0.81,0.27-1s-0.03-0.3-0.12-0.33    c-0.05-0.02-0.15-0.02-0.31-0.02c-0.16,0.01-0.42,0.03-0.77,0.08c-0.33,0.04-0.79,0.1-1.38,0.2c-0.59,0.09-1.28,0.21-2.07,0.35    c0.96,1.29,1.64,2.18,2.03,2.67s0.64,0.76,0.75,0.8c0.14,0.05,0.29,0.01,0.43-0.14s0.3-0.41,0.47-0.79l0.5,0.19l-1.27,3.32    L132.73,101.71z"
   clip-path="url(#SVGID_54_)"
   id="path272"
   style="fill:#9a0000;fill-opacity:1" />
	</g>
	<g
   id="g284">
		<defs
   id="defs277">
			<rect
   id="SVGID_55_"
   x="-44.87"
   y="-119.05"
   width="481.89"
   height="680.32" />
		</defs>
		<clipPath
   id="SVGID_56_">
			<use
   xlink:href="#SVGID_55_"
   style="overflow:visible;"
   id="use279" />
		</clipPath>
		<path
   class="st27"
   d="M103.63,98.04c-1.64-3.83-3.51-7.37-5.55-10.51c-2.15-3.3-4.49-6.17-6.96-8.54    c-2.67-2.54-5.5-4.51-8.44-5.87c-1.93-0.89-3.91-1.51-5.92-1.86v-2.3c0-2.16-1.75-3.91-3.91-3.91s-3.92,1.75-3.92,3.91v2.3    c-2.01,0.35-3.99,0.97-5.92,1.86c-2.94,1.35-5.78,3.33-8.44,5.87c-2.48,2.36-4.82,5.24-6.96,8.54c-2.04,3.14-3.91,6.67-5.55,10.51    c-0.82,1.92,0.07,4.14,1.99,4.97c1.92,0.82,4.14-0.06,4.97-1.98c2.97-6.93,6.7-12.65,10.79-16.55c2.94-2.81,6-4.64,9.14-5.47v6.16    c0,2.12-1.56,2.95-2.28,3.39c-0.23,0.14-0.73,0.43-0.96,0.58c-1.45,0.94-3.12,2.4-4.68,4.4c-2.82,3.61-5.01,8.53-6.17,13.86    c-0.44,2.04,0.85,4.06,2.89,4.5c2.04,0.45,4.06-0.85,4.5-2.89c0.92-4.24,2.61-8.08,4.74-10.81c1.09-1.4,3.3-3.74,5.87-3.74    s4.78,2.34,5.87,3.74c2.13,2.73,3.82,6.57,4.74,10.81c0.44,2.04,2.46,3.34,4.5,2.89c2.04-0.44,3.34-2.46,2.89-4.5    c-1.16-5.33-3.35-10.25-6.17-13.86c-1.56-2-3.23-3.46-4.68-4.4c-0.24-0.15-0.73-0.44-0.96-0.58c-0.72-0.44-2.27-1.27-2.27-3.39    v-6.16c3.14,0.83,6.2,2.66,9.14,5.47c4.09,3.9,7.82,9.62,10.79,16.55c0.82,1.92,3.05,2.81,4.97,1.98    C103.57,102.19,104.45,99.96,103.63,98.04 M76.19,35.24v0.12v22.37v1.98c0,1.29,0.93,3.16,2.95,3.59    c4.54,0.97,9.73,3.62,14.42,7.49c4.6,3.8,8.92,8.78,12.84,14.82c1.14,1.75,3.48,2.25,5.23,1.11c1.12-0.73,1.72-1.94,1.72-3.18    c0-0.71-0.2-1.42-0.61-2.06c-4.34-6.68-9.18-12.25-14.37-16.53c-4.61-3.81-9.43-6.53-14.36-8.14v-8.69    c7.1,1.95,14.49,5.98,20.86,11.44c1.59,1.36,3.98,1.17,5.33-0.41c1.36-1.59,1.18-3.98-0.41-5.34c-4.07-3.49-8.71-6.58-13.41-8.95    c-4.15-2.09-8.3-3.61-12.38-4.55v-5.07c0-2.16-1.75-3.91-3.92-3.91C77.95,31.32,76.19,33.07,76.19,35.24 M65.56,31.32    c-2.16,0-3.91,1.75-3.91,3.91v5.07c-4.08,0.93-8.23,2.46-12.38,4.55c-4.7,2.37-9.34,5.47-13.41,8.95    c-1.59,1.36-1.77,3.75-0.41,5.34s3.75,1.77,5.34,0.41c6.37-5.46,13.77-9.49,20.86-11.44v8.69c-4.93,1.61-9.75,4.33-14.36,8.14    c-5.19,4.29-10.03,9.85-14.37,16.53c-0.41,0.64-0.61,1.35-0.61,2.06c0,1.24,0.61,2.45,1.72,3.18c1.75,1.14,4.09,0.64,5.23-1.11    c3.92-6.04,8.24-11.02,12.84-14.82c4.69-3.87,9.88-6.52,14.42-7.49c2.02-0.43,2.95-2.3,2.95-3.59v-1.98V35.36v-0.12    C69.48,33.07,67.73,31.32,65.56,31.32 M122.39,72.85c0,27.36-22.18,49.55-49.55,49.55s-49.55-22.19-49.55-49.55    C23.28,45.48,45.47,23.3,72.84,23.3C100.2,23.3,122.39,45.48,122.39,72.85"
   clip-path="url(#SVGID_56_)"
   id="path282"
   style="fill:#9a0000;fill-opacity:1" />
	</g>
</g>
</svg>
