<svg version="1.1" id="Layer_1" xmlns="http://www.w3.org/2000/svg" xmlns:xlink="http://www.w3.org/1999/xlink" x="0px" y="0px"
	 width="100%" viewBox="0 0 337 312" enable-background="new 0 0 337 312" xml:space="preserve">
<path fill="#000000" opacity="1.000000" stroke="none" 
	d="
M190.000000,313.000000 
	C126.666687,313.000000 63.833378,313.000000 1.000051,313.000000 
	C1.000034,209.000061 1.000034,105.000122 1.000017,1.000134 
	C113.333229,1.000090 225.666458,1.000090 337.999756,1.000045 
	C337.999847,104.999870 337.999847,208.999741 337.999939,312.999817 
	C288.833344,313.000000 239.666672,313.000000 190.000000,313.000000 
M131.981674,182.048065 
	C131.981674,182.048065 132.056946,182.040512 132.198822,182.435760 
	C132.198822,182.435760 132.511917,182.714737 132.511917,182.714737 
	C132.511917,182.714737 132.930908,182.695358 133.429611,182.909180 
	C133.606003,182.949142 133.782394,182.989090 133.933380,183.055634 
	C133.933380,183.055634 133.962616,183.077927 134.224899,183.653336 
	C135.144562,184.103546 136.064224,184.553757 136.990646,185.013992 
	C136.990646,185.013992 137.002380,185.017456 137.165146,185.408554 
	C137.329498,185.694031 137.571335,185.796509 138.498306,186.014999 
	C139.657089,186.686066 140.815887,187.357132 142.366547,188.555389 
	C143.224182,188.710190 144.081833,188.864990 144.940079,189.052307 
	C144.940079,189.052307 144.972610,189.053604 145.128891,189.533478 
	C145.413635,189.691208 145.698364,189.848953 146.322769,190.524918 
	C147.210266,191.021561 148.097763,191.518188 149.392059,192.576523 
	C151.375793,193.660614 153.289307,194.908752 155.358032,195.794296 
	C159.529175,197.579834 163.784714,199.168152 168.854736,200.961014 
	C170.567993,200.917114 172.281265,200.873199 174.709930,200.950790 
	C176.495453,199.977936 178.280975,199.005081 180.515015,197.848969 
	C180.798401,197.654541 180.967239,197.387650 181.704086,196.934052 
	C183.150024,195.989166 184.595963,195.044266 186.694626,193.986130 
	C187.123047,193.885910 187.551453,193.785690 188.637833,193.581375 
	C190.762054,192.075027 192.886276,190.568680 195.070358,189.067596 
	C195.070358,189.067596 195.062302,189.008041 195.723892,188.911179 
	C196.797180,188.287598 197.870453,187.664032 199.556305,186.888397 
	C199.753204,186.814301 199.950104,186.740189 200.519196,186.703293 
	C200.758682,186.569839 200.885086,186.366135 201.452026,185.918030 
	C201.629074,185.840042 201.806137,185.762070 202.593994,185.600708 
	C203.712204,184.752121 204.830429,183.903534 206.039154,183.073746 
	C206.039154,183.073746 206.058151,182.983261 206.688065,182.936035 
	C207.481995,182.313110 208.275940,181.690186 209.569168,180.970505 
	C209.730408,180.918121 209.891632,180.865753 210.534836,180.828308 
	C210.836884,180.656540 211.014709,180.398972 211.024384,180.004303 
	C211.024384,180.004303 211.078705,180.054367 211.655396,179.973480 
	C212.110336,179.658325 212.565277,179.343155 213.515015,178.948196 
	C213.667770,178.880569 213.820541,178.812943 214.635147,178.591049 
	C218.104843,176.420578 221.574539,174.250107 225.063538,172.069214 
	C225.063538,172.069214 225.077377,172.052170 225.760681,171.949081 
	C227.829742,170.649963 229.898804,169.350861 232.035843,168.069077 
	C232.035843,168.069077 232.052521,168.000946 232.689865,167.951843 
	C233.493973,167.315460 234.298065,166.679062 235.760193,165.958344 
	C236.861267,165.320511 237.962357,164.682693 239.537781,163.868896 
	C239.691650,163.580887 239.845535,163.292892 240.001801,163.001221 
	C240.001801,163.001221 240.004364,162.998428 240.728027,162.932266 
	C242.824585,161.287323 244.921143,159.642380 247.616257,157.573334 
	C248.405060,155.271744 249.868134,152.973328 249.879059,150.668045 
	C249.996964,125.782890 249.886368,100.896645 249.960190,75.203178 
	C249.981598,68.992035 246.434143,64.767784 241.718689,61.582146 
	C237.259857,58.569859 232.395752,56.157616 227.710968,53.479591 
	C212.915100,45.021641 198.133698,36.538189 183.311310,28.126945 
	C180.634293,26.607821 177.879013,24.494526 175.004181,24.205811 
	C168.684402,23.571119 162.141205,23.113743 156.660126,27.758001 
	C154.823547,29.314186 152.668045,30.527063 150.560944,31.725708 
	C132.834244,41.809769 115.091812,51.866234 97.337837,61.902222 
	C92.571960,64.596291 89.852020,68.260521 91.055595,74.945404 
	C91.092171,95.960869 91.128738,116.976341 91.030716,138.921829 
	C91.023918,157.891144 91.003242,176.860474 91.019623,195.829758 
	C91.023979,200.873672 93.211166,202.350082 97.848663,200.385071 
	C98.997475,199.898285 99.915321,198.866425 101.651970,197.931717 
	C111.434357,192.562820 121.216743,187.193924 131.472000,181.955933 
	C131.472000,181.955933 131.962311,181.974915 131.981674,182.048065 
M242.469940,226.331879 
	C242.313293,234.111526 242.061203,241.891068 242.051773,249.670898 
	C242.048477,252.395172 242.642151,255.120178 243.653595,258.204407 
	C249.210541,259.364777 249.878326,258.905792 249.975372,253.546448 
	C250.050339,249.406189 249.972672,245.263412 250.015793,241.122299 
	C250.066910,236.213348 251.270615,232.307175 257.257202,231.796768 
	C258.227264,231.714050 259.787537,229.640259 259.712219,228.583984 
	C259.627899,227.401871 258.035583,225.415100 257.024658,225.367508 
	C252.375748,225.148590 247.700729,225.484421 242.469940,226.331879 
M21.357876,227.609482 
	C21.239990,239.005341 21.089262,250.401077 21.046318,261.797211 
	C21.041027,263.201630 21.610840,264.608246 22.520739,266.524902 
	C31.296288,269.316986 27.980265,261.399872 29.744997,257.759705 
	C31.601055,258.123413 33.193924,258.671600 34.799065,258.710236 
	C42.768524,258.902191 48.530716,257.013977 48.036816,247.666016 
	C47.800091,243.185547 48.029434,238.682175 47.964165,234.190399 
	C47.908310,230.346558 46.264671,226.857834 42.482761,226.284988 
	C36.399036,225.363510 30.157389,225.437042 23.977596,225.265533 
	C23.305580,225.246902 22.601532,226.382324 21.357876,227.609482 
M132.995361,239.826309 
	C132.999298,244.158646 133.046158,248.491531 132.992111,252.823151 
	C132.956039,255.712997 133.082382,258.088684 137.098511,258.024689 
	C141.225677,257.958893 140.990570,255.309738 140.993454,252.580338 
	C140.998367,247.914749 141.138153,243.243958 140.960938,238.585266 
	C140.827789,235.084991 141.886200,232.342957 145.599075,232.275681 
	C149.455963,232.205780 150.978226,234.984955 150.983124,238.634628 
	C150.989838,243.633438 150.975906,248.632477 151.020889,253.630966 
	C151.043564,256.151459 150.813873,258.906738 154.646362,258.821442 
	C158.151520,258.743439 157.955307,256.180176 157.973816,253.839798 
	C158.018631,248.174759 158.012543,242.509125 157.993591,236.843842 
	C157.966202,228.651642 155.744171,225.012497 147.757324,225.640915 
	C141.287079,226.149994 135.148331,226.420700 128.801147,225.225464 
	C126.024712,224.702637 123.060539,225.264084 120.193314,225.112259 
	C117.090775,224.947983 114.969147,225.558182 115.007133,229.317947 
	C115.092979,237.814926 114.864883,246.320251 115.207451,254.804306 
	C115.263885,256.201996 117.355919,258.266266 118.880463,258.694916 
	C121.762627,259.505280 123.002724,257.568939 122.974007,254.673477 
	C122.917831,249.008972 122.703560,243.320099 123.164261,237.691193 
	C123.314949,235.850052 124.969543,233.378174 126.612328,232.571671 
	C129.917725,230.948959 132.420029,233.668732 132.995361,239.826309 
M275.585632,223.024811 
	C274.726593,225.053391 273.243073,227.050690 273.139526,229.117126 
	C272.929169,233.313858 274.188385,237.658157 273.565674,241.747284 
	C271.091370,257.995544 275.525787,259.406067 287.550201,258.971649 
	C288.213440,258.947693 288.882965,258.934906 289.536591,258.833344 
	C296.063019,257.819031 298.497559,255.576782 297.834137,248.953674 
	C297.163086,242.254684 297.685730,235.679077 298.031403,229.060577 
	C298.241333,225.041016 296.147034,222.019775 292.772736,221.729538 
	C287.319824,221.260559 281.747650,222.179001 275.585632,223.024811 
M73.236755,226.859451 
	C68.809814,226.541687 64.362465,225.800903 59.961094,226.013229 
	C54.457874,226.278702 52.133644,229.186646 52.029617,234.865753 
	C51.941132,239.696243 52.053329,244.530106 52.004883,249.361740 
	C51.958076,254.029617 54.096092,257.192627 58.702785,257.859406 
	C63.602776,258.568695 68.603523,258.916779 73.545265,258.797974 
	C75.022087,258.762451 77.310509,256.868561 77.717049,255.406311 
	C78.543106,252.435120 76.062309,252.015076 73.682755,252.007065 
	C70.352150,251.995804 66.941399,252.310150 63.728592,251.667282 
	C62.327286,251.386887 61.331924,249.077713 60.152206,247.689880 
	C61.451000,246.800552 62.677975,245.307281 64.062943,245.142578 
	C67.350769,244.751602 70.720192,245.105957 74.042282,244.912598 
	C75.234375,244.843216 76.869568,244.406845 77.469543,243.552795 
	C79.818260,240.209442 77.405075,229.920380 73.236755,226.859451 
M212.706070,232.626389 
	C212.544083,238.420456 211.632416,244.333923 212.528488,249.959457 
	C212.993927,252.881409 216.198135,256.739441 218.973099,257.615570 
	C223.728912,259.117126 229.123138,258.859283 234.239136,258.768158 
	C235.480484,258.746063 236.682144,256.495331 237.902054,255.269409 
	C236.605820,254.187637 235.420090,252.389435 233.990982,252.169006 
	C230.730316,251.666092 227.271820,252.338272 224.054642,251.709549 
	C222.611099,251.427429 221.553543,249.170181 220.320847,247.809219 
	C221.622284,246.883713 222.853165,245.309525 224.238892,245.158783 
	C227.863922,244.764450 231.568283,245.150909 235.215881,244.883484 
	C236.448364,244.793121 238.301041,243.952316 238.688065,242.982635 
	C242.091934,234.454285 236.338211,226.070663 227.235733,225.994019 
	C225.737366,225.981415 224.239105,225.911621 222.741592,225.849167 
	C218.131149,225.656891 214.680115,227.353394 212.706070,232.626389 
M165.017746,255.489517 
	C171.390991,260.503235 178.800705,258.920044 185.942215,258.520996 
	C186.658157,258.481049 187.750809,255.909576 187.689682,254.557205 
	C187.650177,253.682953 185.887878,252.282806 184.791077,252.171890 
	C181.333740,251.822296 177.749176,252.379608 174.371796,251.745163 
	C172.780136,251.446152 171.548935,249.228424 170.154404,247.880112 
	C171.551941,246.925507 172.874146,245.317566 174.361954,245.146042 
	C177.970917,244.730011 181.699997,245.296143 185.289719,244.803619 
	C186.635117,244.619034 188.251022,242.797287 188.797409,241.361801 
	C189.404526,239.766708 189.514130,237.487534 188.811325,235.988708 
	C187.211288,232.576523 185.729599,228.092239 182.847595,226.516006 
	C177.371628,223.521027 166.562256,225.764282 164.134079,228.997223 
	C163.837189,229.392532 163.498657,229.824371 163.395615,230.287384 
	C161.547699,238.591156 160.390564,246.872894 165.017746,255.489517 
M201.870056,220.784317 
	C200.002823,219.904861 198.192841,218.731293 196.228836,218.348969 
	C195.726349,218.251144 194.814484,220.712387 193.949326,221.894455 
	C193.069489,223.096573 192.165054,224.364700 191.006317,225.261337 
	C188.539017,227.170517 188.136871,230.860718 190.776215,231.628418 
	C194.243118,232.636856 193.984589,234.901352 193.996002,237.389008 
	C194.010513,240.554901 194.304733,243.756058 193.942139,246.879776 
	C193.092468,254.199661 197.694275,259.205078 206.413315,257.865570 
	C207.666367,257.673065 208.721939,256.195160 209.868912,255.312103 
	C208.954666,254.205261 208.200607,252.363098 207.097595,252.122803 
	C203.005615,251.231430 201.679367,248.867020 201.965942,244.944717 
	C202.171829,242.126816 202.084549,239.280014 201.995987,236.450241 
	C201.911041,233.735748 202.628571,232.140594 205.783875,231.805008 
	C206.939117,231.682159 208.693222,229.648666 208.704605,228.472549 
	C208.715576,227.338364 206.874146,226.142410 205.768311,225.052979 
	C204.551208,223.853973 203.244904,222.745499 201.870056,220.784317 
M89.983070,254.114685 
	C89.989624,249.133408 90.217140,244.139801 89.939926,239.174362 
	C89.668671,234.315643 91.687241,231.929810 96.474144,232.021820 
	C99.457825,232.079147 100.644241,230.395279 99.726059,228.028900 
	C99.248962,226.799347 97.085373,225.781006 95.536041,225.509491 
	C92.889374,225.045670 90.117348,225.357193 87.414856,225.136444 
	C84.092064,224.865005 81.928940,225.567551 81.986404,229.564423 
	C82.105743,237.864731 81.853554,246.174591 82.178436,254.463882 
	C82.237328,255.966553 84.053909,258.178009 85.527496,258.675964 
	C88.120033,259.552002 89.988716,258.087036 89.983070,254.114685 
M301.282471,230.860352 
	C303.645111,230.756821 306.007751,230.653275 309.013885,230.521530 
	C309.013885,238.363495 309.008789,246.460571 309.017212,254.557632 
	C309.019531,256.794861 309.078491,259.494904 312.214294,258.725739 
	C313.702972,258.360626 315.761414,256.160492 315.806488,254.736176 
	C316.121521,244.771729 316.041351,234.791855 315.897766,224.819656 
	C315.880341,223.608322 315.021790,221.741135 314.056610,221.322510 
	C308.787598,219.037231 301.163666,224.338867 301.282471,230.860352 
M109.995262,234.592392 
	C109.986557,232.935852 109.972801,231.279312 109.970299,229.622772 
	C109.966385,227.024597 109.348656,225.062531 106.122871,225.071045 
	C102.809517,225.079803 101.877106,226.874039 101.898232,229.827438 
	C101.956276,237.944412 101.944412,246.062210 101.902962,254.179382 
	C101.888130,257.083038 102.700432,258.918060 106.107010,258.906677 
	C109.722603,258.894623 110.011604,256.681183 109.996704,253.958313 
	C109.963150,247.829041 109.991806,241.699417 109.995262,234.592392 
M108.923973,214.490692 
	C107.777039,214.343475 106.472183,213.784805 105.521767,214.149582 
	C104.233665,214.643997 102.354622,215.770844 102.268196,216.760757 
	C102.100929,218.676575 102.491417,221.138687 103.668198,222.485153 
	C104.359390,223.276031 108.195702,222.886734 108.548798,222.099945 
	C109.475700,220.034576 109.268875,217.460403 108.923973,214.490692 
z"/>
<path fill="#3565CC" opacity="1.000000" stroke="none" 
	d="
M133.958801,183.029053 
	C133.782394,182.989090 133.606003,182.949142 133.062988,182.658844 
	C132.513809,182.232758 132.300674,182.110077 132.056946,182.040512 
	C132.056946,182.040512 131.981674,182.048065 131.831055,181.832321 
	C131.468796,181.396469 131.243790,181.190979 130.700684,180.863739 
	C126.333221,181.956970 122.085533,182.779648 118.255043,184.520370 
	C113.582626,186.643723 109.328911,189.668289 104.767853,192.062546 
	C100.335167,194.389420 98.481453,193.540680 98.084724,188.639542 
	C97.200943,177.721451 96.629166,166.776581 96.068703,155.835541 
	C95.987175,154.244217 96.667542,152.613861 97.167984,151.370850 
	C97.561348,153.537903 97.774818,155.336594 98.004089,157.133270 
	C98.947388,164.525421 99.640182,171.961761 100.927032,179.293747 
	C101.864204,184.633469 103.067001,184.979416 107.962990,182.833908 
	C118.145966,178.371536 128.312332,173.840195 139.775711,173.959335 
	C142.917480,173.991989 144.099274,172.321518 143.092728,169.495682 
	C142.340332,167.383392 141.359528,165.171783 139.889740,163.534760 
	C137.152679,160.486267 133.985275,157.824158 131.343323,155.091949 
	C133.741882,156.195206 135.822357,157.154739 137.841049,158.230209 
	C143.905548,161.461136 149.945969,164.737244 156.313965,168.040771 
	C157.422333,168.395447 158.212494,168.705093 159.146820,169.302994 
	C160.524719,170.392838 161.758469,171.194427 163.246048,171.999268 
	C163.669098,172.004929 163.838318,172.007309 164.100052,172.209198 
	C164.790985,172.607590 165.389389,172.806488 166.324890,173.007080 
	C167.111420,173.011185 167.560867,173.013626 168.221619,173.303650 
	C173.206558,175.884140 178.194656,174.567429 182.278519,169.868759 
	C183.715698,169.149445 184.865448,168.573669 186.362839,167.955566 
	C188.137299,166.945358 189.564133,165.977448 191.245361,165.005615 
	C191.669357,164.999359 191.838943,164.997040 192.327820,164.908478 
	C193.761932,163.885056 194.876785,162.947861 196.245911,162.006805 
	C196.669708,162.000595 196.839233,161.998215 197.355194,161.904510 
	C201.686432,159.765839 205.812912,157.947571 209.610931,155.598267 
	C212.615692,153.739639 215.217148,151.229019 217.998856,149.003967 
	C218.000000,149.000000 218.007935,148.997772 218.336182,148.885834 
	C224.884079,145.016052 223.771469,138.776978 224.292068,133.161102 
	C226.774719,135.549133 229.327499,137.521225 231.080658,140.048111 
	C233.670334,143.780640 235.800476,142.255768 236.939621,139.510818 
	C238.447693,135.876892 238.887924,131.814606 240.047073,128.015747 
	C240.783432,125.602493 241.992157,123.333374 242.990845,121.459106 
	C242.625839,130.386398 242.373444,138.861176 241.856735,147.319824 
	C241.429016,154.322098 238.945404,159.819016 232.076553,163.426575 
	C213.968338,172.937088 196.105927,182.922546 178.268723,192.938095 
	C172.253265,196.315765 166.701309,196.013351 160.760910,192.940781 
	C153.669907,189.273071 146.449768,185.835938 139.145920,182.615646 
	C137.749176,181.999802 135.704529,182.853394 133.958801,183.029053 
z"/>
<path fill="#3458A9" opacity="1.000000" stroke="none" 
	d="
M91.184334,74.018082 
	C89.852020,68.260521 92.571960,64.596291 97.337837,61.902222 
	C115.091812,51.866234 132.834244,41.809769 150.560944,31.725708 
	C152.668045,30.527063 154.823547,29.314186 156.660126,27.758001 
	C162.141205,23.113743 168.684402,23.571119 175.004181,24.205811 
	C177.879013,24.494526 180.634293,26.607821 183.311310,28.126945 
	C198.133698,36.538189 212.915100,45.021641 227.710968,53.479591 
	C232.395752,56.157616 237.259857,58.569859 241.718689,61.582146 
	C246.434143,64.767784 249.981598,68.992035 249.544022,75.605293 
	C248.417343,76.006416 247.706848,76.005417 246.862793,75.693008 
	C244.160934,72.593323 242.058319,69.043922 238.948273,67.141029 
	C219.645081,55.330299 200.026276,44.035824 180.707397,32.250061 
	C173.404968,27.795095 166.466080,28.324020 159.433212,32.085442 
	C151.809341,36.162952 144.217636,40.331577 136.845215,44.841854 
	C121.437187,54.268150 104.261238,60.944733 91.184334,74.018082 
z"/>
<path fill="#112957" opacity="1.000000" stroke="none" 
	d="
M132.991486,239.370743 
	C132.420029,233.668732 129.917725,230.948959 126.612328,232.571671 
	C124.969543,233.378174 123.314949,235.850052 123.164261,237.691193 
	C122.703560,243.320099 122.917831,249.008972 122.974007,254.673477 
	C123.002724,257.568939 121.762627,259.505280 118.880463,258.694916 
	C117.355919,258.266266 115.263885,256.201996 115.207451,254.804306 
	C114.864883,246.320251 115.092979,237.814926 115.007133,229.317947 
	C114.969147,225.558182 117.090775,224.947983 120.193314,225.112259 
	C123.060539,225.264084 126.024712,224.702637 128.801147,225.225464 
	C135.148331,226.420700 141.287079,226.149994 147.757324,225.640915 
	C155.744171,225.012497 157.966202,228.651642 157.993591,236.843842 
	C158.012543,242.509125 158.018631,248.174759 157.973816,253.839798 
	C157.955307,256.180176 158.151520,258.743439 154.646362,258.821442 
	C150.813873,258.906738 151.043564,256.151459 151.020889,253.630966 
	C150.975906,248.632477 150.989838,243.633438 150.983124,238.634628 
	C150.978226,234.984955 149.455963,232.205780 145.599075,232.275681 
	C141.886200,232.342957 140.827789,235.084991 140.960938,238.585266 
	C141.138153,243.243958 140.998367,247.914749 140.993454,252.580338 
	C140.990570,255.309738 141.225677,257.958893 137.098511,258.024689 
	C133.082382,258.088684 132.956039,255.712997 132.992111,252.823151 
	C133.046158,248.491531 132.999298,244.158646 132.991486,239.370743 
z"/>
<path fill="#112957" opacity="1.000000" stroke="none" 
	d="
M275.905731,222.768158 
	C281.747650,222.179001 287.319824,221.260559 292.772736,221.729538 
	C296.147034,222.019775 298.241333,225.041016 298.031403,229.060577 
	C297.685730,235.679077 297.163086,242.254684 297.834137,248.953674 
	C298.497559,255.576782 296.063019,257.819031 289.536591,258.833344 
	C288.882965,258.934906 288.213440,258.947693 287.550201,258.971649 
	C275.525787,259.406067 271.091370,257.995544 273.565674,241.747284 
	C274.188385,237.658157 272.929169,233.313858 273.139526,229.117126 
	C273.243073,227.050690 274.726593,225.053391 275.905731,222.768158 
M282.923340,251.860291 
	C285.683044,251.650467 289.355530,253.322479 290.442657,249.329971 
	C290.900085,247.649994 289.900208,243.989151 289.077637,243.836090 
	C286.410522,243.339813 283.518799,244.050873 280.713562,244.296982 
	C281.175568,246.763107 281.637573,249.229248 282.923340,251.860291 
M280.354645,234.063858 
	C282.434937,234.717163 284.476654,235.688034 286.604919,235.946472 
	C289.515686,236.299927 291.297852,234.255371 290.706757,231.712601 
	C290.297150,229.950546 288.331085,227.676392 286.651001,227.251984 
	C282.120941,226.107635 280.390533,228.008011 280.354645,234.063858 
z"/>
<path fill="#112957" opacity="1.000000" stroke="none" 
	d="
M21.912344,226.982452 
	C22.601532,226.382324 23.305580,225.246902 23.977596,225.265533 
	C30.157389,225.437042 36.399036,225.363510 42.482761,226.284988 
	C46.264671,226.857834 47.908310,230.346558 47.964165,234.190399 
	C48.029434,238.682175 47.800091,243.185547 48.036816,247.666016 
	C48.530716,257.013977 42.768524,258.902191 34.799065,258.710236 
	C33.193924,258.671600 31.601055,258.123413 29.744997,257.759705 
	C27.980265,261.399872 31.296288,269.316986 22.239067,265.800903 
	C21.942379,252.378769 21.927362,239.680618 21.912344,226.982452 
M39.999386,244.293335 
	C39.995361,242.133423 39.974533,239.973358 39.991283,237.813614 
	C40.015976,234.629105 39.125637,231.945358 35.368305,232.171265 
	C32.012276,232.373016 29.210953,233.816269 29.056553,237.826157 
	C28.967110,240.149033 29.042910,242.477768 29.002972,244.803162 
	C28.933695,248.836807 30.456892,251.672058 34.831573,251.901978 
	C39.587440,252.151932 40.061226,248.822952 39.999386,244.293335 
z"/>
<path fill="#3961B9" opacity="1.000000" stroke="none" 
	d="
M91.119965,74.481743 
	C104.261238,60.944733 121.437187,54.268150 136.845215,44.841854 
	C144.217636,40.331577 151.809341,36.162952 159.433212,32.085442 
	C166.466080,28.324020 173.404968,27.795095 180.707397,32.250061 
	C200.026276,44.035824 219.645081,55.330299 238.948273,67.141029 
	C242.058319,69.043922 244.160934,72.593323 246.845215,76.041977 
	C246.638840,77.800842 246.316513,78.899330 245.806610,79.709679 
	C243.766464,76.548126 242.526978,72.817223 239.941589,70.968719 
	C233.278961,66.205032 226.020844,62.274216 218.714233,57.824749 
	C205.413956,49.953121 192.364258,42.327168 179.401016,34.556984 
	C172.718964,30.551746 165.980026,30.818420 159.538910,34.498833 
	C141.107437,45.030479 122.865997,55.894093 104.479652,66.505577 
	C97.190315,70.712540 93.404594,76.463120 93.895721,85.202866 
	C94.361435,93.490349 94.010033,101.823868 94.013351,110.137146 
	C94.014793,113.757599 94.004700,117.378059 93.831100,121.356674 
	C93.763550,127.151085 93.864738,132.587341 93.616287,138.017883 
	C92.566200,138.005356 91.865761,137.998581 91.165314,137.991806 
	C91.128738,116.976341 91.092171,95.960869 91.119965,74.481743 
z"/>
<path fill="#112957" opacity="1.000000" stroke="none" 
	d="
M73.568954,227.095108 
	C77.405075,229.920380 79.818260,240.209442 77.469543,243.552795 
	C76.869568,244.406845 75.234375,244.843216 74.042282,244.912598 
	C70.720192,245.105957 67.350769,244.751602 64.062943,245.142578 
	C62.677975,245.307281 61.451000,246.800552 60.152210,247.689880 
	C61.331924,249.077713 62.327286,251.386887 63.728592,251.667282 
	C66.941399,252.310150 70.352150,251.995804 73.682755,252.007065 
	C76.062309,252.015076 78.543106,252.435120 77.717049,255.406311 
	C77.310509,256.868561 75.022087,258.762451 73.545265,258.797974 
	C68.603523,258.916779 63.602776,258.568695 58.702785,257.859406 
	C54.096092,257.192627 51.958076,254.029617 52.004883,249.361740 
	C52.053329,244.530106 51.941132,239.696243 52.029617,234.865753 
	C52.133644,229.186646 54.457874,226.278702 59.961094,226.013229 
	C64.362465,225.800903 68.809814,226.541687 73.568954,227.095108 
M61.764179,233.271255 
	C61.504002,235.312836 61.243828,237.354431 60.983650,239.396011 
	C63.533054,239.182358 66.150528,239.225861 68.585854,238.581223 
	C69.225639,238.411865 69.864670,235.135040 69.543274,234.949478 
	C67.641029,233.851303 65.462654,233.223236 63.355167,232.501236 
	C63.140366,232.427658 62.779545,232.780289 61.764179,233.271255 
z"/>
<path fill="#112957" opacity="1.000000" stroke="none" 
	d="
M212.818787,232.234009 
	C214.680115,227.353394 218.131149,225.656891 222.741592,225.849167 
	C224.239105,225.911621 225.737366,225.981415 227.235733,225.994019 
	C236.338211,226.070663 242.091934,234.454285 238.688065,242.982635 
	C238.301041,243.952316 236.448364,244.793121 235.215881,244.883484 
	C231.568283,245.150909 227.863922,244.764450 224.238892,245.158783 
	C222.853165,245.309525 221.622284,246.883713 220.320831,247.809204 
	C221.553543,249.170181 222.611099,251.427429 224.054642,251.709549 
	C227.271820,252.338272 230.730316,251.666092 233.990982,252.169006 
	C235.420090,252.389435 236.605820,254.187637 237.902054,255.269409 
	C236.682144,256.495331 235.480484,258.746063 234.239136,258.768158 
	C229.123138,258.859283 223.728912,259.117126 218.973099,257.615570 
	C216.198135,256.739441 212.993927,252.881409 212.528488,249.959457 
	C211.632416,244.333923 212.544083,238.420456 212.818787,232.234009 
M221.868210,233.327789 
	C221.487640,235.278900 221.107056,237.230011 220.726456,239.181122 
	C222.984177,239.333603 225.309097,239.870453 227.473938,239.491821 
	C228.735611,239.271164 230.750916,237.449356 230.635406,236.588272 
	C230.440536,235.135468 229.078476,233.260468 227.732895,232.698151 
	C226.293060,232.096451 224.304642,232.807465 221.868210,233.327789 
z"/>
<path fill="#112957" opacity="1.000000" stroke="none" 
	d="
M164.749115,255.203552 
	C160.390564,246.872894 161.547699,238.591156 163.395615,230.287384 
	C163.498657,229.824371 163.837189,229.392532 164.134079,228.997223 
	C166.562256,225.764282 177.371628,223.521027 182.847595,226.516006 
	C185.729599,228.092239 187.211288,232.576523 188.811325,235.988708 
	C189.514130,237.487534 189.404526,239.766708 188.797409,241.361801 
	C188.251022,242.797287 186.635117,244.619034 185.289719,244.803619 
	C181.699997,245.296143 177.970917,244.730011 174.361954,245.146042 
	C172.874146,245.317566 171.551941,246.925507 170.154404,247.880112 
	C171.548935,249.228424 172.780136,251.446152 174.371796,251.745163 
	C177.749176,252.379608 181.333740,251.822296 184.791077,252.171890 
	C185.887878,252.282806 187.650177,253.682953 187.689682,254.557205 
	C187.750809,255.909576 186.658157,258.481049 185.942215,258.520996 
	C178.800705,258.920044 171.390991,260.503235 164.749115,255.203552 
M174.565674,239.989075 
	C175.227814,239.984283 176.029953,240.219299 176.525879,239.929810 
	C178.018982,239.058197 179.392883,237.982391 180.813278,236.986221 
	C179.247421,235.362000 177.713058,232.476059 176.107635,232.435974 
	C174.143005,232.386932 171.312500,234.291473 170.326431,236.136810 
	C169.119690,238.395111 170.913635,240.121155 174.565674,239.989075 
z"/>
<path fill="#3363C4" opacity="1.000000" stroke="none" 
	d="
M133.946091,183.042343 
	C135.704529,182.853394 137.749176,181.999802 139.145920,182.615646 
	C146.449768,185.835938 153.669907,189.273071 160.760910,192.940781 
	C166.701309,196.013351 172.253265,196.315765 178.268723,192.938095 
	C196.105927,182.922546 213.968338,172.937088 232.076553,163.426575 
	C238.945404,159.819016 241.429016,154.322098 241.856735,147.319824 
	C242.373444,138.861176 242.625839,130.386398 242.992889,121.058899 
	C242.994888,119.132179 242.996628,118.065147 243.164276,116.658516 
	C243.887466,113.879158 244.444763,111.439407 245.334641,108.999702 
	C246.110199,109.000519 246.553177,109.001289 246.993958,109.466476 
	C246.987183,114.282852 246.982635,118.634827 246.681213,123.221649 
	C245.925415,125.328316 245.115845,127.191757 245.070908,129.073456 
	C244.912308,135.713715 245.015762,142.360245 245.019043,149.404327 
	C245.016830,150.870773 245.015411,151.937302 244.823547,153.291046 
	C243.090195,156.718323 241.547272,159.858368 240.004364,162.998428 
	C240.004364,162.998428 240.001801,163.001221 239.827667,163.161102 
	C239.432816,163.542679 239.236115,163.783981 239.063431,164.044861 
	C237.962357,164.682693 236.861267,165.320511 235.113007,166.051468 
	C233.661392,166.763382 232.856964,167.382156 232.052521,168.000946 
	C232.052521,168.000946 232.035843,168.069077 231.632019,168.064514 
	C229.177917,169.390701 227.127640,170.721436 225.077377,172.052170 
	C225.077377,172.052170 225.063538,172.069214 224.672668,172.080200 
	C220.086594,173.133331 215.859482,174.126022 213.973312,178.745316 
	C213.820541,178.812943 213.667770,178.880569 213.064606,178.915909 
	C212.102371,179.273865 211.590530,179.664124 211.078705,180.054367 
	C211.078705,180.054367 211.024384,180.004303 210.866409,180.141571 
	C210.478653,180.443207 210.260132,180.621384 210.052872,180.813370 
	C209.891632,180.865753 209.730408,180.918121 209.006104,181.064972 
	C207.648087,181.767380 206.853119,182.375320 206.058151,182.983261 
	C206.058151,182.983261 206.039154,183.073746 205.655243,183.070374 
	C204.175293,183.939362 203.079254,184.811737 201.983185,185.684113 
	C201.806137,185.762070 201.629074,185.840042 201.032349,186.073059 
	C200.427414,186.342148 200.272202,186.488144 200.147003,186.666061 
	C199.950104,186.740189 199.753204,186.814301 198.911987,186.972107 
	C197.199203,187.706558 196.130753,188.357300 195.062302,189.008041 
	C195.062302,189.008041 195.070358,189.067596 194.667389,189.073135 
	C192.169556,190.614273 190.074707,192.149872 187.979874,193.685455 
	C187.551453,193.785690 187.123047,193.885910 186.108810,193.935333 
	C184.022507,194.939117 182.522018,195.993698 181.021530,197.048279 
	C180.967239,197.387650 180.798401,197.654541 179.906769,197.941330 
	C177.530518,198.965561 175.762527,199.897415 173.994522,200.829285 
	C172.281265,200.873199 170.567993,200.917114 168.236862,200.633820 
	C163.990662,198.331650 160.444550,196.179382 156.704651,194.444977 
	C154.277802,193.319519 151.568176,192.803757 148.985260,192.014816 
	C148.097763,191.518188 147.210266,191.021561 145.998901,190.092056 
	C145.459137,189.436188 145.224991,189.234329 144.972610,189.053604 
	C144.972610,189.053604 144.940079,189.052307 144.830109,188.805786 
	C143.804977,188.382233 142.889816,188.205215 141.974670,188.028198 
	C140.815887,187.357132 139.657089,186.686066 138.065948,185.727570 
	C137.444214,185.267838 137.233810,185.126938 137.002380,185.017456 
	C137.002380,185.017456 136.990646,185.013992 136.825012,184.739594 
	C135.760468,184.002777 134.861542,183.540359 133.962616,183.077927 
	C133.962616,183.077927 133.933380,183.055634 133.946091,183.042343 
z"/>
<path fill="#112957" opacity="1.000000" stroke="none" 
	d="
M201.923767,221.190948 
	C203.244904,222.745499 204.551208,223.853973 205.768311,225.052979 
	C206.874146,226.142410 208.715576,227.338364 208.704605,228.472549 
	C208.693222,229.648666 206.939117,231.682159 205.783875,231.805008 
	C202.628571,232.140594 201.911041,233.735748 201.995987,236.450241 
	C202.084549,239.280014 202.171829,242.126816 201.965942,244.944717 
	C201.679367,248.867020 203.005615,251.231430 207.097595,252.122803 
	C208.200607,252.363098 208.954666,254.205261 209.868896,255.312103 
	C208.721939,256.195160 207.666367,257.673065 206.413315,257.865570 
	C197.694275,259.205078 193.092468,254.199661 193.942139,246.879776 
	C194.304733,243.756058 194.010513,240.554901 193.996002,237.389008 
	C193.984589,234.901352 194.243118,232.636856 190.776215,231.628418 
	C188.136871,230.860718 188.539017,227.170517 191.006317,225.261337 
	C192.165054,224.364700 193.069489,223.096573 193.949326,221.894455 
	C194.814484,220.712387 195.726349,218.251144 196.228836,218.348969 
	C198.192841,218.731293 200.002823,219.904861 201.923767,221.190948 
z"/>
<path fill="#3363C4" opacity="1.000000" stroke="none" 
	d="
M93.965927,138.023605 
	C93.864738,132.587341 93.763550,127.151085 93.995850,121.631660 
	C94.885811,122.701897 95.442291,123.855301 96.021683,125.426224 
	C96.361511,134.229691 96.678436,142.615631 96.995361,151.001556 
	C96.667542,152.613861 95.987175,154.244217 96.068703,155.835541 
	C96.629166,166.776581 97.200943,177.721451 98.084724,188.639542 
	C98.481453,193.540680 100.335167,194.389420 104.767853,192.062546 
	C109.328911,189.668289 113.582626,186.643723 118.255043,184.520370 
	C122.085533,182.779648 126.333221,181.956970 130.698669,181.069946 
	C131.001373,181.412567 130.999130,181.825027 130.999130,181.825027 
	C121.216743,187.193924 111.434357,192.562820 100.959351,198.053314 
	C97.121529,199.114594 95.521843,197.741318 95.044769,194.686432 
	C94.711632,192.553268 94.100632,190.422058 94.087257,188.286987 
	C93.982323,171.532928 93.991753,154.778152 93.965927,138.023605 
z"/>
<path fill="#112957" opacity="1.000000" stroke="none" 
	d="
M89.969055,254.566986 
	C89.988716,258.087036 88.120033,259.552002 85.527496,258.675964 
	C84.053909,258.178009 82.237328,255.966553 82.178436,254.463882 
	C81.853554,246.174591 82.105743,237.864731 81.986404,229.564423 
	C81.928940,225.567551 84.092064,224.865005 87.414856,225.136444 
	C90.117348,225.357193 92.889374,225.045670 95.536041,225.509491 
	C97.085373,225.781006 99.248962,226.799347 99.726059,228.028900 
	C100.644241,230.395279 99.457825,232.079147 96.474144,232.021820 
	C91.687241,231.929810 89.668671,234.315643 89.939926,239.174362 
	C90.217140,244.139801 89.989624,249.133408 89.969055,254.566986 
z"/>
<path fill="#112957" opacity="1.000000" stroke="none" 
	d="
M301.196350,230.479980 
	C301.163666,224.338867 308.787598,219.037231 314.056610,221.322510 
	C315.021790,221.741135 315.880341,223.608322 315.897766,224.819656 
	C316.041351,234.791855 316.121521,244.771729 315.806488,254.736176 
	C315.761414,256.160492 313.702972,258.360626 312.214294,258.725739 
	C309.078491,259.494904 309.019531,256.794861 309.017212,254.557632 
	C309.008789,246.460571 309.013885,238.363495 309.013885,230.521530 
	C306.007751,230.653275 303.645111,230.756821 301.196350,230.479980 
z"/>
<path fill="#112957" opacity="1.000000" stroke="none" 
	d="
M243.035065,225.621246 
	C247.700729,225.484421 252.375748,225.148590 257.024658,225.367508 
	C258.035583,225.415100 259.627899,227.401871 259.712219,228.583984 
	C259.787537,229.640259 258.227264,231.714050 257.257202,231.796768 
	C251.270615,232.307175 250.066910,236.213348 250.015793,241.122299 
	C249.972672,245.263412 250.050339,249.406189 249.975372,253.546448 
	C249.878326,258.905792 249.210541,259.364777 243.315170,257.567261 
	C242.996185,246.493805 243.015625,236.057526 243.035065,225.621246 
z"/>
<path fill="#112957" opacity="1.000000" stroke="none" 
	d="
M109.995209,235.081177 
	C109.991806,241.699417 109.963150,247.829041 109.996704,253.958313 
	C110.011604,256.681183 109.722603,258.894623 106.107010,258.906677 
	C102.700432,258.918060 101.888130,257.083038 101.902962,254.179382 
	C101.944412,246.062210 101.956276,237.944412 101.898232,229.827438 
	C101.877106,226.874039 102.809517,225.079803 106.122871,225.071045 
	C109.348656,225.062531 109.966385,227.024597 109.970299,229.622772 
	C109.972801,231.279312 109.986557,232.935852 109.995209,235.081177 
z"/>
<path fill="#325FB5" opacity="1.000000" stroke="none" 
	d="
M246.978088,122.986794 
	C246.982635,118.634827 246.987183,114.282852 246.994705,109.131271 
	C246.993103,107.885330 246.988525,107.438995 246.985596,106.539047 
	C246.971161,103.051285 246.955093,100.017136 246.943756,96.525360 
	C246.630386,90.711098 246.312271,85.354462 245.994171,79.997826 
	C246.316513,78.899330 246.638840,77.800842 246.978760,76.353378 
	C247.706848,76.005417 248.417343,76.006416 249.483032,76.009056 
	C249.886368,100.896645 249.996964,125.782890 249.879059,150.668045 
	C249.868134,152.973328 248.405060,155.271744 247.150269,157.491730 
	C246.127518,155.941360 245.570755,154.472580 245.013992,153.003815 
	C245.015411,151.937302 245.016830,150.870773 245.316681,149.171432 
	C246.075180,146.667084 246.887192,144.803925 246.931778,142.922546 
	C247.089249,136.280670 246.983826,129.632553 246.978088,122.986794 
z"/>
<path fill="#325FB5" opacity="1.000000" stroke="none" 
	d="
M93.616287,138.017883 
	C93.991753,154.778152 93.982323,171.532928 94.087257,188.286987 
	C94.100632,190.422058 94.711632,192.553268 95.044769,194.686432 
	C95.521843,197.741318 97.121529,199.114594 100.603043,198.130035 
	C99.915321,198.866425 98.997475,199.898285 97.848663,200.385071 
	C93.211166,202.350082 91.023979,200.873672 91.019623,195.829758 
	C91.003242,176.860474 91.023918,157.891144 91.098015,138.456818 
	C91.865761,137.998581 92.566200,138.005356 93.616287,138.017883 
z"/>
<path fill="#112957" opacity="1.000000" stroke="none" 
	d="
M109.218872,214.789825 
	C109.268875,217.460403 109.475700,220.034576 108.548798,222.099945 
	C108.195702,222.886734 104.359390,223.276031 103.668198,222.485153 
	C102.491417,221.138687 102.100929,218.676575 102.268196,216.760757 
	C102.354622,215.770844 104.233665,214.643997 105.521767,214.149582 
	C106.472183,213.784805 107.777039,214.343475 109.218872,214.789825 
z"/>
<path fill="#2E61BB" opacity="1.000000" stroke="none" 
	d="
M149.188660,192.295670 
	C151.568176,192.803757 154.277802,193.319519 156.704651,194.444977 
	C160.444550,196.179382 163.990662,198.331650 167.812225,200.572235 
	C163.784714,199.168152 159.529175,197.579834 155.358032,195.794296 
	C153.289307,194.908752 151.375793,193.660614 149.188660,192.295670 
z"/>
<path fill="#00007F" opacity="1.000000" stroke="none" 
	d="
M21.635111,227.295959 
	C21.927362,239.680618 21.942379,252.378769 21.935774,265.545380 
	C21.610840,264.608246 21.041027,263.201630 21.046318,261.797211 
	C21.089262,250.401077 21.239990,239.005341 21.635111,227.295959 
z"/>
<path fill="#2E61BB" opacity="1.000000" stroke="none" 
	d="
M244.823547,153.291046 
	C245.570755,154.472580 246.127518,155.941360 246.850998,157.703781 
	C244.921143,159.642380 242.824585,161.287323 240.366180,162.965347 
	C241.547272,159.858368 243.090195,156.718323 244.823547,153.291046 
z"/>
<path fill="#00007F" opacity="1.000000" stroke="none" 
	d="
M242.752502,225.976562 
	C243.015625,236.057526 242.996185,246.493805 242.969986,257.387451 
	C242.642151,255.120178 242.048477,252.395172 242.051773,249.670898 
	C242.061203,241.891068 242.313293,234.111526 242.752502,225.976562 
z"/>
<path fill="#2E61BB" opacity="1.000000" stroke="none" 
	d="
M214.304230,178.668182 
	C215.859482,174.126022 220.086594,173.133331 224.663025,172.085419 
	C221.574539,174.250107 218.104843,176.420578 214.304230,178.668182 
z"/>
<path fill="#2E61BB" opacity="1.000000" stroke="none" 
	d="
M188.308853,193.633423 
	C190.074707,192.149872 192.169556,190.614273 194.637451,189.070511 
	C192.886276,190.568680 190.762054,192.075027 188.308853,193.633423 
z"/>
<path fill="#2E61BB" opacity="1.000000" stroke="none" 
	d="
M174.352234,200.890045 
	C175.762527,199.897415 177.530518,198.965561 179.682510,198.032959 
	C178.280975,199.005081 176.495453,199.977936 174.352234,200.890045 
z"/>
<path fill="#2E61BB" opacity="1.000000" stroke="none" 
	d="
M225.419037,172.000626 
	C227.127640,170.721436 229.177917,169.390701 231.598022,168.055862 
	C229.898804,169.350861 227.829742,170.649963 225.419037,172.000626 
z"/>
<path fill="#2E61BB" opacity="1.000000" stroke="none" 
	d="
M181.362808,196.991165 
	C182.522018,195.993698 184.022507,194.939117 185.782440,193.991943 
	C184.595963,195.044266 183.150024,195.989166 181.362808,196.991165 
z"/>
<path fill="#2E61BB" opacity="1.000000" stroke="none" 
	d="
M202.288605,185.642410 
	C203.079254,184.811737 204.175293,183.939362 205.609985,183.060974 
	C204.830429,183.903534 203.712204,184.752121 202.288605,185.642410 
z"/>
<path fill="#2E61BB" opacity="1.000000" stroke="none" 
	d="
M195.393097,188.959610 
	C196.130753,188.357300 197.199203,187.706558 198.605698,187.048126 
	C197.870453,187.664032 196.797180,188.287598 195.393097,188.959610 
z"/>
<path fill="#2E61BB" opacity="1.000000" stroke="none" 
	d="
M142.170609,188.291794 
	C142.889816,188.205215 143.804977,188.382233 144.829803,188.789520 
	C144.081833,188.864990 143.224182,188.710190 142.170609,188.291794 
z"/>
<path fill="#2E61BB" opacity="1.000000" stroke="none" 
	d="
M134.093750,183.365631 
	C134.861542,183.540359 135.760468,184.002777 136.821640,184.734589 
	C136.064224,184.553757 135.144562,184.103546 134.093750,183.365631 
z"/>
<path fill="#2E61BB" opacity="1.000000" stroke="none" 
	d="
M206.373108,182.959656 
	C206.853119,182.375320 207.648087,181.767380 208.756470,181.113342 
	C208.275940,181.690186 207.481995,182.313110 206.373108,182.959656 
z"/>
<path fill="#2E61BB" opacity="1.000000" stroke="none" 
	d="
M232.371185,167.976395 
	C232.856964,167.382156 233.661392,166.763382 234.783997,166.093628 
	C234.298065,166.679062 233.493973,167.315460 232.371185,167.976395 
z"/>
<path fill="#2E61BB" opacity="1.000000" stroke="none" 
	d="
M211.367050,180.013916 
	C211.590530,179.664124 212.102371,179.273865 212.817200,178.955811 
	C212.565277,179.343155 212.110336,179.658325 211.367050,180.013916 
z"/>
<path fill="#2E61BB" opacity="1.000000" stroke="none" 
	d="
M200.333099,186.684677 
	C200.272202,186.488144 200.427414,186.342148 200.755524,186.160126 
	C200.885086,186.366135 200.758682,186.569839 200.333099,186.684677 
z"/>
<path fill="#2E61BB" opacity="1.000000" stroke="none" 
	d="
M137.083771,185.213013 
	C137.233810,185.126938 137.444214,185.267838 137.762115,185.578094 
	C137.571335,185.796509 137.329498,185.694031 137.083771,185.213013 
z"/>
<path fill="#2E61BB" opacity="1.000000" stroke="none" 
	d="
M132.127884,182.238129 
	C132.300674,182.110077 132.513809,182.232758 132.813644,182.551941 
	C132.930908,182.695358 132.511917,182.714737 132.511917,182.714737 
	C132.511917,182.714737 132.198822,182.435760 132.127884,182.238129 
z"/>
<path fill="#2E61BB" opacity="1.000000" stroke="none" 
	d="
M131.235565,181.890472 
	C130.999130,181.825027 131.001373,181.412567 131.003387,181.206345 
	C131.243790,181.190979 131.468796,181.396469 131.821381,181.795746 
	C131.962311,181.974915 131.472000,181.955933 131.235565,181.890472 
z"/>
<path fill="#2E61BB" opacity="1.000000" stroke="none" 
	d="
M239.300598,163.956879 
	C239.236115,163.783981 239.432816,163.542679 239.826462,163.162933 
	C239.845535,163.292892 239.691650,163.580887 239.300598,163.956879 
z"/>
<path fill="#2E61BB" opacity="1.000000" stroke="none" 
	d="
M210.293854,180.820831 
	C210.260132,180.621384 210.478653,180.443207 210.888367,180.167221 
	C211.014709,180.398972 210.836884,180.656540 210.293854,180.820831 
z"/>
<path fill="#2E61BB" opacity="1.000000" stroke="none" 
	d="
M145.050751,189.293549 
	C145.224991,189.234329 145.459137,189.436188 145.829071,189.832947 
	C145.698364,189.848953 145.413635,189.691208 145.050751,189.293549 
z"/>
<path fill="#3A69D0" opacity="1.000000" stroke="none" 
	d="
M97.167984,151.370850 
	C96.678436,142.615631 96.361511,134.229691 96.186592,125.098892 
	C96.553520,122.902367 96.778458,121.450714 97.295761,120.215851 
	C98.110680,121.962067 98.841927,123.454735 99.118851,125.027405 
	C100.186180,131.088913 100.912277,137.218674 102.219940,143.224045 
	C102.553932,144.757843 104.558037,145.927979 105.794800,147.265198 
	C107.129326,145.972717 108.977867,144.921310 109.715324,143.348831 
	C114.659286,132.806717 116.353424,121.503860 117.249146,109.870163 
	C117.996025,109.496323 118.493774,109.246826 118.992661,109.453545 
	C118.664719,119.509041 118.304031,129.107376 118.017799,138.707947 
	C117.830505,144.989822 120.555466,149.508392 126.322670,152.194977 
	C127.960999,152.958176 129.443192,154.056564 130.996994,155.001221 
	C133.985275,157.824158 137.152679,160.486267 139.889740,163.534760 
	C141.359528,165.171783 142.340332,167.383392 143.092728,169.495682 
	C144.099274,172.321518 142.917480,173.991989 139.775711,173.959335 
	C128.312332,173.840195 118.145966,178.371536 107.962990,182.833908 
	C103.067001,184.979416 101.864204,184.633469 100.927032,179.293747 
	C99.640182,171.961761 98.947388,164.525421 98.004089,157.133270 
	C97.774818,155.336594 97.561348,153.537903 97.167984,151.370850 
z"/>
<path fill="#3968CE" opacity="1.000000" stroke="none" 
	d="
M242.998383,116.998123 
	C242.996628,118.065147 242.994888,119.132179 242.991089,120.599411 
	C241.992157,123.333374 240.783432,125.602493 240.047073,128.015747 
	C238.887924,131.814606 238.447693,135.876892 236.939621,139.510818 
	C235.800476,142.255768 233.670334,143.780640 231.080658,140.048111 
	C229.327499,137.521225 226.774719,135.549133 224.291412,132.693207 
	C223.655685,119.274429 223.398865,106.487846 222.905807,93.710381 
	C222.756165,89.832764 222.003357,85.947540 216.903259,84.964142 
	C216.470657,84.964531 216.297867,84.957283 216.067200,84.751282 
	C216.009338,84.552536 215.951721,84.142563 215.887115,83.819778 
	C215.549606,82.664146 215.276718,81.831299 215.361115,81.048607 
	C222.537766,82.919907 225.075531,88.139519 225.945038,94.424461 
	C226.662994,99.613861 227.659698,104.478775 231.532684,108.484924 
	C234.822693,111.888023 236.391876,112.075027 237.452347,107.528358 
	C239.785416,97.525635 241.945801,87.402283 240.307861,77.188385 
	C241.267960,80.772301 242.368942,84.147926 242.499954,87.560783 
	C242.876297,97.365166 242.860229,107.184601 242.998383,116.998123 
z"/>
<path fill="#3361BF" opacity="1.000000" stroke="none" 
	d="
M164.007523,172.009689 
	C163.838318,172.007309 163.669098,172.004929 163.103638,171.709534 
	C161.472488,170.615936 160.237564,169.815338 159.002655,169.014740 
	C158.212494,168.705093 157.422333,168.395447 156.167969,167.740509 
	C154.193466,166.130722 152.807831,164.665756 151.151627,163.635910 
	C143.384460,158.806274 135.570435,154.050125 127.715897,149.363678 
	C123.951508,147.117630 121.785614,144.104034 122.452736,139.739182 
	C123.842445,140.864426 124.956535,141.824249 126.107796,143.150238 
	C127.445023,145.124863 128.432037,147.250122 130.095901,148.258041 
	C141.014160,154.872040 152.103897,161.202042 163.085098,167.713394 
	C169.031937,171.239578 174.732590,170.562164 180.463364,167.235687 
	C186.920151,163.487793 193.461639,159.885208 199.901505,156.108948 
	C205.045364,153.092636 210.252731,150.136703 215.102264,146.690155 
	C217.017365,145.329086 220.305679,143.331390 217.093414,139.535919 
	C217.126587,131.048477 217.108398,123.027565 217.149078,114.540634 
	C217.177094,107.385246 217.146240,100.695869 217.191223,93.636551 
	C217.350113,92.516129 217.433182,91.765656 217.842636,91.117966 
	C219.098801,93.011505 220.748077,94.765800 220.841003,96.598976 
	C221.421341,108.050369 221.560745,119.523277 222.038254,130.981049 
	C222.305496,137.393967 222.063583,143.596680 218.007935,148.997772 
	C218.007935,148.997772 218.000000,149.000000 217.667526,149.108521 
	C212.878937,151.713928 208.351105,154.093353 203.994537,156.753326 
	C201.521057,158.263535 199.328079,160.233139 197.008759,161.995850 
	C196.839233,161.998215 196.669708,162.000595 195.926666,162.092102 
	C194.238251,163.119064 193.123398,164.056885 192.008545,164.994705 
	C191.838943,164.997040 191.669357,164.999359 190.921478,165.088089 
	C188.900543,166.115616 187.457870,167.056747 186.015213,167.997879 
	C184.865448,168.573669 183.715698,169.149445 181.919998,169.962830 
	C176.852814,171.138962 172.431564,172.077499 168.010315,173.016052 
	C167.560867,173.013626 167.111420,173.011185 166.095047,172.849884 
	C165.021255,172.463898 164.514389,172.236801 164.007523,172.009689 
z"/>
<path fill="#3967C8" opacity="1.000000" stroke="none" 
	d="
M122.177124,139.573761 
	C121.785614,144.104034 123.951508,147.117630 127.715897,149.363678 
	C135.570435,154.050125 143.384460,158.806274 151.151627,163.635910 
	C152.807831,164.665756 154.193466,166.130722 155.849762,167.695480 
	C149.945969,164.737244 143.905548,161.461136 137.841049,158.230209 
	C135.822357,157.154739 133.741882,156.195206 131.343323,155.091949 
	C129.443192,154.056564 127.960999,152.958176 126.322670,152.194977 
	C120.555466,149.508392 117.830505,144.989822 118.017799,138.707947 
	C118.304031,129.107376 118.664719,119.509041 119.047096,109.054657 
	C120.066269,107.044502 121.032143,105.889465 122.056030,105.200867 
	C122.135056,116.969467 122.156090,128.271622 122.177124,139.573761 
z"/>
<path fill="#3967C8" opacity="1.000000" stroke="none" 
	d="
M218.336182,148.885834 
	C222.063583,143.596680 222.305496,137.393967 222.038254,130.981049 
	C221.560745,119.523277 221.421341,108.050369 220.841003,96.598976 
	C220.748077,94.765800 219.098801,93.011505 217.783752,90.741180 
	C217.305847,89.504761 217.213181,88.747902 217.184479,87.614868 
	C217.219986,86.477959 217.191528,85.717232 217.163086,84.956505 
	C222.003357,85.947540 222.756165,89.832764 222.905807,93.710381 
	C223.398865,106.487846 223.655685,119.274429 224.003876,132.525391 
	C223.771469,138.776978 224.884079,145.016052 218.336182,148.885834 
z"/>
<path fill="#3967C8" opacity="1.000000" stroke="none" 
	d="
M197.355194,161.904510 
	C199.328079,160.233139 201.521057,158.263535 203.994537,156.753326 
	C208.351105,154.093353 212.878937,151.713928 217.666382,149.112488 
	C215.217148,151.229019 212.615692,153.739639 209.610931,155.598267 
	C205.812912,157.947571 201.686432,159.765839 197.355194,161.904510 
z"/>
<path fill="#3967C8" opacity="1.000000" stroke="none" 
	d="
M168.221619,173.303650 
	C172.431564,172.077499 176.852814,171.138962 181.632584,170.106354 
	C178.194656,174.567429 173.206558,175.884140 168.221619,173.303650 
z"/>
<path fill="#3967C8" opacity="1.000000" stroke="none" 
	d="
M186.362839,167.955566 
	C187.457870,167.056747 188.900543,166.115616 190.667084,165.092010 
	C189.564133,165.977448 188.137299,166.945358 186.362839,167.955566 
z"/>
<path fill="#3967C8" opacity="1.000000" stroke="none" 
	d="
M159.146820,169.302994 
	C160.237564,169.815338 161.472488,170.615936 162.849823,171.706268 
	C161.758469,171.194427 160.524719,170.392838 159.146820,169.302994 
z"/>
<path fill="#3967C8" opacity="1.000000" stroke="none" 
	d="
M192.327820,164.908478 
	C193.123398,164.056885 194.238251,163.119064 195.672379,162.095963 
	C194.876785,162.947861 193.761932,163.885056 192.327820,164.908478 
z"/>
<path fill="#3967C8" opacity="1.000000" stroke="none" 
	d="
M164.100052,172.209198 
	C164.514389,172.236801 165.021255,172.463898 165.757965,172.848190 
	C165.389389,172.806488 164.790985,172.607590 164.100052,172.209198 
z"/>
<path fill="#000000" opacity="1.000000" stroke="none" 
	d="
M282.511475,251.777832 
	C281.637573,249.229248 281.175568,246.763107 280.713562,244.296967 
	C283.518799,244.050873 286.410522,243.339813 289.077637,243.836090 
	C289.900208,243.989151 290.900085,247.649994 290.442657,249.329971 
	C289.355530,253.322479 285.683044,251.650467 282.511475,251.777832 
z"/>
<path fill="#000000" opacity="1.000000" stroke="none" 
	d="
M280.255585,233.664368 
	C280.390533,228.008011 282.120941,226.107635 286.651001,227.251984 
	C288.331085,227.676392 290.297150,229.950546 290.706757,231.712601 
	C291.297852,234.255371 289.515686,236.299927 286.604919,235.946472 
	C284.476654,235.688034 282.434937,234.717163 280.255585,233.664368 
z"/>
<path fill="#000000" opacity="1.000000" stroke="none" 
	d="
M39.997158,244.750275 
	C40.061226,248.822952 39.587440,252.151932 34.831573,251.901978 
	C30.456892,251.672058 28.933695,248.836807 29.002972,244.803162 
	C29.042910,242.477768 28.967110,240.149033 29.056553,237.826157 
	C29.210953,233.816269 32.012276,232.373016 35.368305,232.171265 
	C39.125637,231.945358 40.015976,234.629105 39.991283,237.813614 
	C39.974533,239.973358 39.995361,242.133423 39.997158,244.750275 
z"/>
<path fill="#3F6AC8" opacity="1.000000" stroke="none" 
	d="
M97.003395,119.999054 
	C96.778458,121.450714 96.553520,122.902367 96.163681,124.681366 
	C95.442291,123.855301 94.885811,122.701897 94.164589,121.273499 
	C94.004700,117.378059 94.014793,113.757599 94.013351,110.137146 
	C94.010033,101.823868 94.361435,93.490349 93.895721,85.202866 
	C93.404594,76.463120 97.190315,70.712540 104.479652,66.505577 
	C122.865997,55.894093 141.107437,45.030479 159.538910,34.498833 
	C165.980026,30.818420 172.718964,30.551746 179.401016,34.556984 
	C192.364258,42.327168 205.413956,49.953121 218.844452,58.108078 
	C220.173630,59.720509 221.086182,60.863697 221.630157,61.960461 
	C219.312088,61.119621 217.277069,60.485126 215.430893,59.497559 
	C211.568268,57.431328 207.805206,55.178989 203.751175,53.001266 
	C203.334366,52.998631 203.167648,52.997807 202.857269,52.706787 
	C201.476379,51.612099 200.239136,50.807602 198.752655,49.772015 
	C191.827698,45.485615 185.136398,41.455692 178.480896,37.367485 
	C172.461090,33.669758 166.705841,34.023460 160.639282,37.613842 
	C141.733398,48.802944 122.609535,59.626324 103.796974,70.967682 
	C101.083405,72.603584 98.829445,76.038963 97.783669,79.123352 
	C96.654121,82.454803 97.192543,86.351799 97.002235,90.470627 
	C97.001854,100.625786 97.002625,110.312416 97.003395,119.999054 
z"/>
<path fill="#3967C8" opacity="1.000000" stroke="none" 
	d="
M221.998749,62.006886 
	C221.086182,60.863697 220.173630,59.720509 219.130844,58.293987 
	C226.020844,62.274216 233.278961,66.205032 239.941589,70.968719 
	C242.526978,72.817223 243.766464,76.548126 245.806610,79.709679 
	C246.312271,85.354462 246.630386,90.711098 246.596863,96.636292 
	C242.464432,100.046181 244.001129,103.558487 245.006470,107.336807 
	C245.003448,108.112938 245.002762,108.556297 245.002060,108.999657 
	C244.444763,111.439407 243.887466,113.879158 243.164276,116.658516 
	C242.860229,107.184601 242.876297,97.365166 242.499954,87.560783 
	C242.368942,84.147926 241.267960,80.772301 240.230164,76.850357 
	C238.037918,74.495750 236.395309,72.450607 234.377167,70.891624 
	C230.360275,67.788620 226.136856,64.952972 221.998749,62.006886 
z"/>
<path fill="#000000" opacity="1.000000" stroke="none" 
	d="
M62.125328,233.103195 
	C62.779545,232.780289 63.140366,232.427658 63.355167,232.501236 
	C65.462654,233.223236 67.641029,233.851303 69.543274,234.949478 
	C69.864670,235.135040 69.225639,238.411865 68.585854,238.581223 
	C66.150528,239.225861 63.533054,239.182358 60.983650,239.396011 
	C61.243828,237.354431 61.504002,235.312836 62.125328,233.103195 
z"/>
<path fill="#000000" opacity="1.000000" stroke="none" 
	d="
M222.211945,233.136658 
	C224.304642,232.807465 226.293060,232.096451 227.732895,232.698151 
	C229.078476,233.260468 230.440536,235.135468 230.635406,236.588272 
	C230.750916,237.449356 228.735611,239.271164 227.473938,239.491821 
	C225.309097,239.870453 222.984177,239.333603 220.726471,239.181122 
	C221.107056,237.230011 221.487640,235.278900 222.211945,233.136658 
z"/>
<path fill="#000000" opacity="1.000000" stroke="none" 
	d="
M174.141968,239.981018 
	C170.913635,240.121155 169.119690,238.395111 170.326431,236.136810 
	C171.312500,234.291473 174.143005,232.386932 176.107635,232.435974 
	C177.713058,232.476059 179.247421,235.362000 180.813278,236.986221 
	C179.392883,237.982391 178.018982,239.058197 176.525879,239.929810 
	C176.029953,240.219299 175.227814,239.984283 174.141968,239.981018 
z"/>
<path fill="#2E61BB" opacity="1.000000" stroke="none" 
	d="
M246.681198,123.221649 
	C246.983826,129.632553 247.089249,136.280670 246.931778,142.922546 
	C246.887192,144.803925 246.075180,146.667084 245.317474,148.771500 
	C245.015762,142.360245 244.912308,135.713715 245.070908,129.073456 
	C245.115845,127.191757 245.925415,125.328316 246.681198,123.221649 
z"/>
<path fill="#2E61BB" opacity="1.000000" stroke="none" 
	d="
M245.334641,108.999702 
	C245.002762,108.556297 245.003448,108.112938 245.335663,107.335274 
	C246.106094,106.998199 246.545013,106.995438 246.983948,106.992668 
	C246.988525,107.438995 246.993103,107.885330 246.996918,108.666855 
	C246.553177,109.001289 246.110199,109.000519 245.334641,108.999702 
z"/>
<path fill="#3363C4" opacity="1.000000" stroke="none" 
	d="
M246.985596,106.539047 
	C246.545013,106.995438 246.106094,106.998199 245.337967,107.002502 
	C244.001129,103.558487 242.464432,100.046181 246.592133,97.093918 
	C246.955093,100.017136 246.971161,103.051285 246.985596,106.539047 
z"/>
<path fill="#3D6CD1" opacity="1.000000" stroke="none" 
	d="
M97.295761,120.215851 
	C97.002625,110.312416 97.001854,100.625786 97.295853,90.690094 
	C98.081985,91.965576 98.707954,93.461426 99.040070,95.019890 
	C100.142693,100.194061 100.960793,105.437241 102.289772,110.549507 
	C102.671432,112.017647 104.411171,113.132736 105.528229,114.409698 
	C106.659538,113.317284 108.295891,112.429031 108.834366,111.096962 
	C111.115845,105.453087 112.999512,99.649757 115.188278,93.966202 
	C115.865059,92.208809 117.047760,90.646248 117.905487,89.401901 
	C117.541435,96.537720 117.270721,103.266113 117.000000,109.994507 
	C116.353424,121.503860 114.659286,132.806717 109.715324,143.348831 
	C108.977867,144.921310 107.129326,145.972717 105.794800,147.265198 
	C104.558037,145.927979 102.553932,144.757843 102.219940,143.224045 
	C100.912277,137.218674 100.186180,131.088913 99.118851,125.027405 
	C98.841927,123.454735 98.110680,121.962067 97.295761,120.215851 
z"/>
<path fill="#436FCE" opacity="1.000000" stroke="none" 
	d="
M117.249146,109.870163 
	C117.270721,103.266113 117.541435,96.537720 117.905762,89.070023 
	C117.999428,87.888062 117.999481,87.445404 118.330200,86.925583 
	C119.754753,86.559486 120.848640,86.270554 122.029259,86.390015 
	C122.076668,92.777077 122.037354,98.755753 121.998032,104.734421 
	C121.032143,105.889465 120.066269,107.044502 119.045959,108.598434 
	C118.493774,109.246826 117.996025,109.496323 117.249146,109.870163 
z"/>
<path fill="#DEEAFE" opacity="1.000000" stroke="none" 
	d="
M215.951721,84.142563 
	C215.951721,84.142563 216.009338,84.552536 215.926788,84.998047 
	C215.512665,85.904640 215.181076,86.365715 214.535858,86.969009 
	C208.103928,90.679619 201.985611,94.248009 195.530762,97.916855 
	C186.810364,102.714127 178.426514,107.410934 169.740829,111.928268 
	C161.316849,107.429611 153.194717,103.110420 144.859009,98.537849 
	C137.356293,94.175072 130.067154,90.065681 122.780807,85.655563 
	C122.898468,84.971115 123.013329,84.587387 123.409454,84.152100 
	C124.136116,83.762756 124.581505,83.424965 125.374016,83.011063 
	C139.173111,75.008820 152.625092,67.082695 166.437027,59.114975 
	C168.163467,58.790970 169.529968,58.508560 171.099808,58.502232 
	C172.795609,59.214607 174.288071,59.650902 175.950897,60.390930 
	C177.408752,61.710941 178.597382,62.896072 179.999359,63.716709 
	C190.976074,70.141747 201.993713,76.496872 213.275421,83.053055 
	C214.352005,83.535881 215.151855,83.839226 215.951721,84.142563 
z"/>
<path fill="#3D6CD1" opacity="1.000000" stroke="none" 
	d="
M221.630157,61.960457 
	C226.136856,64.952972 230.360275,67.788620 234.377167,70.891624 
	C236.395309,72.450607 238.037918,74.495750 239.928055,76.659073 
	C241.945801,87.402283 239.785416,97.525635 237.452347,107.528358 
	C236.391876,112.075027 234.822693,111.888023 231.532684,108.484924 
	C227.659698,104.478775 226.662994,99.613861 225.945038,94.424461 
	C225.075531,88.139519 222.537766,82.919907 215.110931,81.044853 
	C214.336731,80.988937 214.169952,80.986923 213.851456,80.688324 
	C210.538818,78.297409 207.477371,76.030281 204.197525,74.142654 
	C195.851135,69.339195 187.407104,64.705406 179.390305,60.022751 
	C181.527756,60.536396 183.339325,60.876118 185.016373,61.550423 
	C197.046585,66.387474 209.030411,71.340454 221.078735,76.131447 
	C223.224670,76.984772 225.602249,77.255531 229.161011,78.101509 
	C227.250870,71.452751 223.154968,68.641602 219.359726,65.570595 
	C214.217453,61.409592 209.118683,57.194798 204.001251,53.003078 
	C207.805206,55.178989 211.568268,57.431328 215.430893,59.497559 
	C217.277069,60.485126 219.312088,61.119621 221.630157,61.960457 
z"/>
<path fill="#3967C8" opacity="1.000000" stroke="none" 
	d="
M214.003204,80.984924 
	C214.169952,80.986923 214.336731,80.988937 214.753662,80.994698 
	C215.276718,81.831299 215.549606,82.664146 215.887115,83.819778 
	C215.151855,83.839226 214.352005,83.535881 213.370636,82.801895 
	C213.460495,81.909134 213.731842,81.447029 214.003204,80.984924 
z"/>
<path fill="#81B0F4" opacity="1.000000" stroke="none" 
	d="
M214.849487,86.826782 
	C215.181076,86.365715 215.512665,85.904640 215.984665,85.196800 
	C216.297867,84.957283 216.470657,84.964531 216.903259,84.964142 
	C217.191528,85.717232 217.219986,86.477959 216.881744,87.507843 
	C215.959869,87.460258 215.404678,87.143517 214.849487,86.826782 
z"/>
<path fill="#AFCCF9" opacity="1.000000" stroke="none" 
	d="
M122.778008,85.956284 
	C130.067154,90.065681 137.356293,94.175072 144.861374,98.942795 
	C145.491791,101.184868 145.569214,102.969635 146.374710,104.320183 
	C152.213867,114.110565 158.166855,123.833755 164.159760,133.531281 
	C165.950455,136.428925 167.982819,139.177231 169.939453,142.248550 
	C170.002365,142.672195 170.030258,142.841232 170.047058,143.478256 
	C170.023636,151.286224 170.011322,158.626190 169.593094,165.956497 
	C157.500824,159.422363 145.836685,152.857513 134.110718,146.405060 
	C131.543793,144.992538 128.756470,143.980530 126.070633,142.784073 
	C124.956535,141.824249 123.842445,140.864426 122.452736,139.739182 
	C122.156090,128.271622 122.135056,116.969467 122.056030,105.200874 
	C122.037354,98.755753 122.076668,92.777077 122.237183,86.352242 
	C122.358368,85.906082 122.778008,85.956284 122.778008,85.956284 
z"/>
<path fill="#89B5F5" opacity="1.000000" stroke="none" 
	d="
M169.999023,165.966156 
	C170.011322,158.626190 170.023636,151.286224 170.358429,143.355560 
	C171.688980,141.716965 172.936203,140.813141 173.667999,139.598740 
	C180.821701,127.727303 187.966965,115.848785 194.891144,103.843376 
	C195.841843,102.195038 195.572037,99.842758 195.867294,97.816391 
	C201.985611,94.248009 208.103928,90.679619 214.535858,86.969009 
	C215.404678,87.143517 215.959869,87.460258 216.817780,87.884018 
	C217.213181,88.747902 217.305847,89.504761 217.457397,90.638397 
	C217.433182,91.765656 217.350113,92.516129 216.862656,93.746155 
	C214.726669,96.189308 212.667053,97.951324 211.316315,100.149033 
	C202.074997,115.185219 192.844894,130.232132 183.912796,145.452606 
	C180.563416,151.160065 178.018417,157.339569 174.895447,163.515472 
	C173.122498,164.473450 171.560760,165.219803 169.999023,165.966156 
z"/>
<path fill="#81B0F4" opacity="1.000000" stroke="none" 
	d="
M175.106659,163.303864 
	C178.018417,157.339569 180.563416,151.160065 183.912796,145.452606 
	C192.844894,130.232132 202.074997,115.185219 211.316315,100.149033 
	C212.667053,97.951324 214.726669,96.189308 216.786835,94.116089 
	C217.146240,100.695869 217.177094,107.385246 216.822220,114.651962 
	C215.091736,116.638824 213.439285,117.861984 212.453949,119.489143 
	C207.392166,127.848145 202.390198,136.248825 197.638138,144.785706 
	C196.583755,146.679855 196.622375,149.182449 195.904816,151.619751 
	C188.803497,155.657684 181.955078,159.480774 175.106659,163.303864 
z"/>
<path fill="#325FB5" opacity="1.000000" stroke="none" 
	d="
M174.895447,163.515472 
	C181.955078,159.480774 188.803497,155.657684 196.244720,151.501129 
	C203.572357,147.445938 210.307205,143.724182 217.042038,140.002441 
	C220.305679,143.331390 217.017365,145.329086 215.102264,146.690155 
	C210.252731,150.136703 205.045364,153.092636 199.901505,156.108948 
	C193.461639,159.885208 186.920151,163.487793 180.463364,167.235687 
	C174.732590,170.562164 169.031937,171.239578 163.085098,167.713394 
	C152.103897,161.202042 141.014160,154.872040 130.095901,148.258041 
	C128.432037,147.250122 127.445023,145.124863 126.107796,143.150238 
	C128.756470,143.980530 131.543793,144.992538 134.110718,146.405060 
	C145.836685,152.857513 157.500824,159.422363 169.593094,165.956482 
	C171.560760,165.219803 173.122498,164.473450 174.895447,163.515472 
z"/>
<path fill="#79A9F2" opacity="1.000000" stroke="none" 
	d="
M217.093414,139.535919 
	C210.307205,143.724182 203.572357,147.445938 196.497620,151.286285 
	C196.622375,149.182449 196.583755,146.679855 197.638138,144.785706 
	C202.390198,136.248825 207.392166,127.848145 212.453949,119.489143 
	C213.439285,117.861984 215.091736,116.638824 216.763336,115.117981 
	C217.108398,123.027565 217.126587,131.048477 217.093414,139.535919 
z"/>
<path fill="#416FD3" opacity="1.000000" stroke="none" 
	d="
M203.751175,53.001266 
	C209.118683,57.194798 214.217453,61.409592 219.359726,65.570595 
	C223.154968,68.641602 227.250870,71.452751 229.161011,78.101509 
	C225.602249,77.255531 223.224670,76.984772 221.078735,76.131447 
	C209.030411,71.340454 197.046585,66.387474 185.016373,61.550423 
	C183.339325,60.876118 181.527756,60.536396 179.139862,60.019508 
	C178.334305,59.995396 178.167374,59.993553 177.837738,59.688469 
	C175.790604,56.805271 173.490433,56.656540 170.896454,58.226151 
	C169.529968,58.508560 168.163467,58.790970 166.161575,58.990074 
	C164.721786,58.962910 163.780289,58.764553 163.133392,59.113041 
	C151.890305,65.169807 140.615784,71.175552 129.532547,77.514854 
	C127.600372,78.619995 126.507446,81.192436 125.026901,83.087173 
	C124.581505,83.424965 124.136116,83.762756 123.136223,83.997696 
	C121.054329,84.930801 119.526932,85.966766 117.999527,87.002747 
	C117.999481,87.445404 117.999428,87.888062 117.999107,88.662598 
	C117.047760,90.646248 115.865059,92.208809 115.188278,93.966202 
	C112.999512,99.649757 111.115845,105.453087 108.834366,111.096962 
	C108.295891,112.429031 106.659538,113.317284 105.528229,114.409698 
	C104.411171,113.132736 102.671432,112.017647 102.289772,110.549507 
	C100.960793,105.437241 100.142693,100.194061 99.040070,95.019890 
	C98.707954,93.461426 98.081985,91.965576 97.297012,90.221573 
	C97.192543,86.351799 96.654121,82.454803 97.783669,79.123352 
	C98.829445,76.038963 101.083405,72.603584 103.796974,70.967682 
	C122.609535,59.626324 141.733398,48.802944 160.639282,37.613842 
	C166.705841,34.023460 172.461090,33.669758 178.480896,37.367485 
	C185.136398,41.455692 191.827698,45.485615 198.896027,50.062172 
	C200.526077,51.387939 201.763504,52.192459 203.000931,52.996979 
	C203.167648,52.997807 203.334366,52.998631 203.751175,53.001266 
M106.784325,93.168999 
	C108.067368,91.679375 109.679108,90.363304 110.573883,88.668671 
	C113.670784,82.803360 118.246819,78.760239 124.338692,76.217796 
	C126.780205,75.198830 129.007950,73.675209 131.358414,72.429199 
	C141.626297,66.986053 151.878036,61.511543 162.186676,56.146481 
	C168.619095,52.798775 175.070129,52.558926 181.860596,55.629025 
	C186.071487,57.532860 190.718414,58.495167 195.206299,59.748878 
	C196.476944,60.103844 197.876587,59.997055 200.353287,60.191021 
	C198.902893,58.077637 198.389603,56.779430 197.441406,56.035858 
	C190.375961,50.495205 183.434357,44.755562 176.020966,39.715115 
	C171.575134,36.692348 166.433990,37.416870 161.805313,40.205448 
	C143.844116,51.026325 125.882439,61.846710 107.962242,72.735237 
	C101.679970,76.552414 99.283951,82.836868 101.852135,89.432434 
	C102.486053,91.060448 104.664871,92.086906 106.784325,93.168999 
z"/>
<path fill="#3D6CD1" opacity="1.000000" stroke="none" 
	d="
M202.857269,52.706787 
	C201.763504,52.192459 200.526077,51.387939 199.145264,50.293266 
	C200.239136,50.807602 201.476379,51.612099 202.857269,52.706787 
z"/>
<path fill="#3D6CD1" opacity="1.000000" stroke="none" 
	d="
M118.330200,86.925583 
	C119.526932,85.966766 121.054329,84.930801 122.854958,84.049248 
	C123.013329,84.587387 122.898468,84.971115 122.780807,85.655563 
	C122.778008,85.956284 122.358368,85.906082 122.150452,85.943848 
	C120.848640,86.270554 119.754753,86.559486 118.330200,86.925583 
z"/>
<path fill="#91BCF6" opacity="1.000000" stroke="none" 
	d="
M195.530762,97.916855 
	C195.572037,99.842758 195.841843,102.195038 194.891144,103.843376 
	C187.966965,115.848785 180.821701,127.727303 173.667999,139.598740 
	C172.936203,140.813141 171.688980,141.716965 170.369537,142.887573 
	C170.030258,142.841232 170.002365,142.672195 169.960541,141.781494 
	C169.978638,131.409149 170.010651,121.758446 170.042664,112.107742 
	C178.426514,107.410934 186.810364,102.714127 195.530762,97.916855 
z"/>
<path fill="#ACCAF9" opacity="1.000000" stroke="none" 
	d="
M169.740829,111.928268 
	C170.010651,121.758446 169.978638,131.409149 169.925537,141.526901 
	C167.982819,139.177231 165.950455,136.428925 164.159760,133.531281 
	C158.166855,123.833755 152.213867,114.110565 146.374710,104.320183 
	C145.569214,102.969635 145.491791,101.184868 145.074936,99.196175 
	C153.194717,103.110420 161.316849,107.429611 169.740829,111.928268 
z"/>
<path fill="#436FCE" opacity="1.000000" stroke="none" 
	d="
M125.374016,83.011063 
	C126.507446,81.192436 127.600372,78.619995 129.532547,77.514854 
	C140.615784,71.175552 151.890305,65.169807 163.133392,59.113041 
	C163.780289,58.764553 164.721786,58.962910 165.801620,59.031670 
	C152.625092,67.082695 139.173111,75.008820 125.374016,83.011063 
z"/>
<path fill="#3968CE" opacity="1.000000" stroke="none" 
	d="
M178.000427,59.991707 
	C178.167374,59.993553 178.334305,59.995396 178.751709,60.000473 
	C187.407104,64.705406 195.851135,69.339195 204.197525,74.142654 
	C207.477371,76.030281 210.538818,78.297409 213.851471,80.688324 
	C213.731842,81.447029 213.460495,81.909134 213.093933,82.622406 
	C201.993713,76.496872 190.976074,70.141747 179.999359,63.716709 
	C178.597382,62.896072 177.408752,61.710941 176.320862,60.374641 
	C177.013779,60.033646 177.507111,60.012676 178.000427,59.991707 
z"/>
<path fill="#3D6CD1" opacity="1.000000" stroke="none" 
	d="
M177.837738,59.688469 
	C177.507111,60.012676 177.013779,60.033646 176.150482,60.070904 
	C174.288071,59.650902 172.795609,59.214607 171.099808,58.502235 
	C173.490433,56.656540 175.790604,56.805271 177.837738,59.688469 
z"/>
<path fill="#4371D6" opacity="1.000000" stroke="none" 
	d="
M106.458908,93.279449 
	C104.664871,92.086906 102.486053,91.060448 101.852135,89.432434 
	C99.283951,82.836868 101.679970,76.552414 107.962242,72.735237 
	C125.882439,61.846710 143.844116,51.026325 161.805313,40.205448 
	C166.433990,37.416870 171.575134,36.692348 176.020966,39.715115 
	C183.434357,44.755562 190.375961,50.495205 197.441406,56.035858 
	C198.389603,56.779430 198.902893,58.077637 200.353287,60.191021 
	C197.876587,59.997055 196.476944,60.103844 195.206299,59.748878 
	C190.718414,58.495167 186.071487,57.532860 181.860596,55.629025 
	C175.070129,52.558926 168.619095,52.798775 162.186676,56.146481 
	C151.878036,61.511543 141.626297,66.986053 131.358414,72.429199 
	C129.007950,73.675209 126.780205,75.198830 124.338692,76.217796 
	C118.246819,78.760239 113.670784,82.803360 110.573883,88.668671 
	C109.679108,90.363304 108.067368,91.679375 106.458908,93.279449 
z"/>
</svg>