<svg xmlns="http://www.w3.org/2000/svg" data-name="Layer 1" viewBox="0 0 943.11 911.62"><script/><ellipse cx="471.56" cy="454.28" fill="#46509e" rx="471.56" ry="454.28"/><g fill="#37474f"><ellipse cx="471.56" cy="390.28" rx="233.66" ry="207"/><path d="M705.22 848.95c-36.69 21.14-123.09 64.33-240.64 62.57-109.54-1.63-190.04-41.45-226.68-62.57V394.76h467.33v454.19Z"/></g><path fill="#fff" d="M658.81 397.7v475.8c-36.98 15.7-98.93 36.54-177.98 38.04-88.67 1.69-157.75-21.73-196.2-38.04V397.7c0-95.55 83.77-173.02 187.09-173.02s187.09 77.47 187.09 173.02Z"/><path fill="#46509e" d="m565.02 431.68-93.46 82.81-93.47-82.81h186.93z"/><ellipse cx="378.09" cy="369.58" fill="#37474f" rx="23.37" ry="20.7"/><ellipse cx="565.02" cy="369.58" fill="#37474f" rx="23.37" ry="20.7"/><path fill="#37474f" d="M658.49 400.63c0-40.04-36.59-72.45-81.78-72.45s-81.78 32.41-81.78 72.45c0 11.14 2.81 21.65 7.9 31.05h-62.54c5.1-9.4 7.9-19.91 7.9-31.05 0-40.04-36.59-72.45-81.78-72.45s-81.78 32.41-81.78 72.45l-46.73-10.35c0-114.32 104.63-207 233.66-207s233.66 92.69 233.66 207l-46.73 10.35Z"/></svg>