<svg xmlns="http://www.w3.org/2000/svg" xmlns:xlink="http://www.w3.org/1999/xlink" id="Layer_1" data-name="Layer 1" viewBox="0 0 719 165"><defs><linearGradient id="linear-gradient" x1="62.83" x2="211.47" y1="375.51" y2="375.51" gradientTransform="matrix(1 0 0 -1 0 752)" gradientUnits="userSpaceOnUse"><stop offset="0" stop-color="#ff7028"/><stop offset="1" stop-color="#ffcd4d"/></linearGradient><linearGradient xlink:href="#linear-gradient" id="linear-gradient-2" x1="183.61" x2="-4.86" y1="411.83" y2="411.83"/><linearGradient xlink:href="#linear-gradient" id="linear-gradient-3" x1="130.7" x2="14.99" y1="356.24" y2="356.24"/><linearGradient id="linear-gradient-4" x1="60.26" x2="92.91" y1="347.69" y2="347.69" gradientTransform="matrix(1 0 0 -1 0 752)" gradientUnits="userSpaceOnUse"><stop offset="0" stop-color="#c44100"/><stop offset="1" stop-color="#c84300" stop-opacity="0"/></linearGradient><linearGradient xlink:href="#linear-gradient" id="linear-gradient-5" x1="229.03" x2="52.03" y1="414.54" y2="362.3"/><style>.cls-1{fill:#ff7028}</style></defs><path d="M223.72 38.52h-46.63V140.2h28.85v-26.58h17.78c27.84 0 45.33-14.38 45.33-37.48s-17.49-37.62-45.33-37.62ZM222 91h-16V61.18h16c11.95 0 17.93 5.52 17.93 15S233.92 91 222 91ZM296.36 52.76c10.2 0 16.9-6.39 16.9-15.11 0-8.28-6.7-14.23-16.9-14.23s-16.91 6.39-16.91 14.67 6.71 14.67 16.91 14.67Zm-13.85 87.44h27.69V61.47h-27.69ZM367.84 141.51c26.09 0 44.59-17 44.59-40.82s-18.5-40.52-44.59-40.52c-25.8 0-44.6 16.84-44.6 40.52s18.76 40.82 44.6 40.82Zm0-21.94c-9.33 0-16.61-6.82-16.61-18.88s7.28-18.59 16.61-18.59 16.61 6.68 16.61 18.59-7.14 18.88-16.61 18.88ZM476.71 60.17c-9.91 0-18.8 3.34-25.07 9.87v-8.57h-26.38v78.73H453v-38.06c0-13.07 6.85-18.59 15.74-18.59 8 0 13 4.79 13 16.12v40.53h27.69v-45c-.08-24.43-14.22-35.03-32.72-35.03ZM608.61 101c0-26-18.94-40.81-42.26-40.81-24.92 0-43.43 16.84-43.43 40.52s18.22 40.82 46.34 40.82c15 0 26.09-4.36 33.67-12.79l-14.58-15.1c-5.39 4.65-10.49 6.82-18.21 6.82-10.2 0-17-4.64-19.39-12.63h57.42c.15-2.2.44-4.83.44-6.83Zm-42.12-21.21c8.6 0 14.72 5.23 16.18 13.51h-32.35c1.6-8.3 7.58-13.53 16.17-13.53ZM701 140.2l-30.17-40.38L700 61.47h-29.31l-14.58 19.9-14-19.9h-31.17l29.14 39.37-30 39.36h30l15.16-20.63 14.14 20.63Z" class="cls-1"/><path d="M67.42 373.41a28.79 28.79 0 0 1 25.32-15.08h72.59A36.33 36.33 0 0 1 129 394.65H55.91Z" style="fill:url(#linear-gradient)" transform="translate(-15 -293)"/><path d="M67.42 343.25a28.79 28.79 0 0 0 25.32 15.08h72.59A36.33 36.33 0 0 0 129 322H55.91Z" style="fill:url(#linear-gradient-2)" transform="translate(-15 -293)"/><path d="M64.8 378.12a37.81 37.81 0 0 1 33.25-19.8h26.65l-31.87 58.85a30.6 30.6 0 0 1-26.9 16H35Z" style="fill:url(#linear-gradient-3)" transform="translate(-15 -293)"/><g style="opacity:.6"><path d="M94.55 413.91c-12-17-31.55-19.1-38.77-19.2H105Z" style="fill:url(#linear-gradient-4)" transform="translate(-15 -293)"/></g><path d="M92.7 358.34a28.81 28.81 0 0 0-25.35 15.1l-11.44 21.21H105l19.67-36.31Z" style="fill:url(#linear-gradient-5)" transform="translate(-15 -293)"/><path d="M0 0h719v165H0z" style="fill:none"/></svg>