<svg id="Layer_1" data-name="Layer 1" xmlns="http://www.w3.org/2000/svg" xmlns:xlink="http://www.w3.org/1999/xlink" viewBox="0 0 719 165"><defs><style>.cls-1{fill:#ff7028;}.cls-2{fill:url(#linear-gradient);}.cls-3{fill:url(#linear-gradient-2);}.cls-4{fill:url(#linear-gradient-3);}.cls-5{opacity:0.6;}.cls-6{fill:url(#linear-gradient-4);}.cls-7{fill:url(#linear-gradient-5);}.cls-8{fill:none;}</style><linearGradient id="linear-gradient" x1="62.83" y1="375.51" x2="211.47" y2="375.51" gradientTransform="matrix(1, 0, 0, -1, 0, 752)" gradientUnits="userSpaceOnUse"><stop offset="0" stop-color="#ff7028"/><stop offset="1" stop-color="#ffcd4d"/></linearGradient><linearGradient id="linear-gradient-2" x1="183.61" y1="411.83" x2="-4.86" y2="411.83" xlink:href="#linear-gradient"/><linearGradient id="linear-gradient-3" x1="130.7" y1="356.24" x2="14.99" y2="356.24" xlink:href="#linear-gradient"/><linearGradient id="linear-gradient-4" x1="60.26" y1="347.69" x2="92.91" y2="347.69" gradientTransform="matrix(1, 0, 0, -1, 0, 752)" gradientUnits="userSpaceOnUse"><stop offset="0" stop-color="#c44100"/><stop offset="1" stop-color="#c84300" stop-opacity="0"/></linearGradient><linearGradient id="linear-gradient-5" x1="229.03" y1="414.54" x2="52.03" y2="362.3" xlink:href="#linear-gradient"/></defs><title>pionexlogo-freelogovectors.net</title><path class="cls-1" d="M238.72,331.52H192.09V433.2h28.85V406.62h17.78c27.84,0,45.33-14.38,45.33-37.48S266.56,331.52,238.72,331.52ZM237,384h-16V354.18h16c11.95,0,17.93,5.52,17.93,15S248.92,384,237,384Z" transform="translate(-15 -293)"/><path class="cls-1" d="M311.36,345.76c10.2,0,16.9-6.39,16.9-15.11,0-8.28-6.7-14.23-16.9-14.23s-16.91,6.39-16.91,14.67S301.16,345.76,311.36,345.76ZM297.51,433.2H325.2V354.47H297.51Z" transform="translate(-15 -293)"/><path class="cls-1" d="M382.84,434.51c26.09,0,44.59-17,44.59-40.82s-18.5-40.52-44.59-40.52c-25.8,0-44.6,16.84-44.6,40.52S357,434.51,382.84,434.51Zm0-21.94c-9.33,0-16.61-6.82-16.61-18.88s7.28-18.59,16.61-18.59,16.61,6.68,16.61,18.59S392.31,412.57,382.84,412.57Z" transform="translate(-15 -293)"/><path class="cls-1" d="M491.71,353.17c-9.91,0-18.8,3.34-25.07,9.87v-8.57H440.26V433.2H468V395.14c0-13.07,6.85-18.59,15.74-18.59,8,0,13,4.79,13,16.12V433.2h27.69v-45C524.35,363.77,510.21,353.17,491.71,353.17Z" transform="translate(-15 -293)"/><path class="cls-1" d="M623.61,394c0-26-18.94-40.81-42.26-40.81-24.92,0-43.43,16.84-43.43,40.52s18.22,40.82,46.34,40.82c15,0,26.09-4.36,33.67-12.79l-14.58-15.1c-5.39,4.65-10.49,6.82-18.21,6.82-10.2,0-17-4.64-19.39-12.63h57.42C623.32,398.63,623.61,396,623.61,394Zm-42.12-21.21c8.6,0,14.72,5.23,16.18,13.51H565.32C566.92,378,572.9,372.77,581.49,372.77Z" transform="translate(-15 -293)"/><path class="cls-1" d="M716,433.2l-30.17-40.38L715,354.47H685.69l-14.58,19.9-14-19.9H625.94l29.14,39.37-30,39.36h30l15.16-20.63,14.14,20.63Z" transform="translate(-15 -293)"/><path class="cls-2" d="M67.42,373.41a28.79,28.79,0,0,1,25.32-15.08h72.59A36.33,36.33,0,0,1,129,394.65H55.91Z" transform="translate(-15 -293)"/><path class="cls-3" d="M67.42,343.25a28.79,28.79,0,0,0,25.32,15.08h72.59A36.33,36.33,0,0,0,129,322H55.91Z" transform="translate(-15 -293)"/><path class="cls-4" d="M64.8,378.12a37.81,37.81,0,0,1,33.25-19.8H124.7L92.83,417.17a30.6,30.6,0,0,1-26.9,16H35Z" transform="translate(-15 -293)"/><g class="cls-5"><path class="cls-6" d="M94.55,413.91c-12-17-31.55-19.1-38.77-19.2H105Z" transform="translate(-15 -293)"/></g><path class="cls-7" d="M92.7,358.34a28.81,28.81,0,0,0-25.35,15.1L55.91,394.65H105l19.67-36.31Z" transform="translate(-15 -293)"/><rect class="cls-8" width="719" height="165"/></svg>