<?xml version="1.0" encoding="UTF-8"?>
<svg version="1.1" xmlns="http://www.w3.org/2000/svg" width="192" height="192">
<path d="M0 0 C19.8 0 39.6 0 60 0 C60 18.81 60 37.62 60 57 C78.81 57 97.62 57 117 57 C117 76.8 117 96.6 117 117 C98.19 117 79.38 117 60 117 C60 135.81 60 154.62 60 174 C40.2 174 20.4 174 0 174 C0 154.53 0 135.06 0 115 C19.14 115 38.28 115 58 115 C58 96.52 58 78.04 58 59 C38.86 59 19.72 59 0 59 C0 39.53 0 20.06 0 0 Z " fill="#4E4473" transform="translate(45,9)"/>
<path d="M0 0 C18.81 0 37.62 0 57 0 C57 18.81 57 37.62 57 57 C38.19 57 19.38 57 0 57 C0 38.19 0 19.38 0 0 Z " fill="#3E3268" transform="translate(47,125)"/>
<path d="M0 0 C18.81 0 37.62 0 57 0 C57 18.81 57 37.62 57 57 C38.19 57 19.38 57 0 57 C0 38.19 0 19.38 0 0 Z " fill="#3E3268" transform="translate(104,67)"/>
</svg>
