<svg xmlns="http://www.w3.org/2000/svg" width="300" height="372" xmlns:v="https://vecta.io/nano"><path d="M130.5.652C112.268 3.526 92.097 15.228 84.221 27.5c-11.865 18.49-14.368 37.471-6.912 52.418 1.847 3.701 1.913 3.656-6.763 4.56-37.358 3.893-47.034 24.956-35.474 77.215 2.439 11.024-.285 15.311-9.726 15.303C19.999 176.992 14 174.07 14 171.469 14 168.362 9.346 165 5.045 165c-8.246 0-4.317 13.821 5.841 20.543 9.441 6.248 20.101 6.062 28.856-.502 9.583-7.185 10.205-11.813 5.114-38.041-6.99-36.003 2.791-50 34.939-50 12.369 0 12.986-.278 15.141-6.807 1.292-3.914 1.236-4.199-1.453-7.382-12.187-14.423-9.472-38.305 6.144-54.046 22.814-22.996 74.538-21.107 86.841 3.171 2.069 4.085 3.182 5.151 6.274 6.009 5.102 1.417 5.681 1.35 7.71-.892 6.232-6.886 29.777-11.418 38.703-7.45 24.612 10.941 34.372 29.18 25.096 46.897-4.028 7.693-3.329 7.437-16.251 5.945-22.441-2.592-42.002-1.02-57.753 4.641C171.02 93.997 150 114.599 150 126.534c0 1.764-1.32 1.841-5.52.323-22.784-8.239-30.909 28.162-10.809 48.423 5.573 5.617 5.573 5.617 1.951 9.849-1.992 2.327-3.622 5.023-3.622 5.992s-.45 2.039-1 2.379c-2.534 1.566.538 16.603 3.983 19.5 2.591 2.178 16.72 21.39 18.239 24.799 3.244 7.283.698 11.511-13.722 22.785-10.164 7.946-13.303 13.566-14.093 25.233-.782 11.53.17 13.766 5.683 13.353 5.936-.445 6.389-1.114 6.401-9.46.014-9.968 2.099-13.571 12.604-21.774 20.347-15.888 22.001-27.239 6.847-46.984l-9.447-12.301c-4.851-6.313-5.562-9.687-3.06-14.526 1.516-2.93 8.949-10.125 10.461-10.125 4.022 0-.641-10.799-5.043-11.679-6.15-1.23-16.853-16.265-16.853-23.674 0-7.622 10.826-12.217 13.306-5.647 1.075 2.848 1.42 3 6.806 3 6.288 0 6.888-.589 6.888-6.761 0-16.089 14.769-33.668 33.583-39.973 22.039-7.386 65.417-6.739 65.417.975 0 1.665.418 4.654.93 6.643s1.463 6.316 2.114 9.616 1.625 7.481 2.162 9.291c.788 2.657.573 4.147-1.115 7.739-2.661 5.662-3.354 3.433 6.308 20.304 17.615 30.758 18.285 32.868 11.05 34.774-8.257 2.175-9.498 1.925-9.203-1.858.32-4.096-11.42-5.318-12.008-1.25-5.592 38.704-78.511 40.656-85.063 2.277-.84-4.92-12.129-6.968-13.017-2.361-1.087 5.647 6.255 20.731 13.42 27.57 5.537 5.284 5.537 5.284 3.074 7.899-10.717 11.377-9.552 20.714 4.878 39.115 16.247 20.717 16.309 23.943.69 35.832C169.259 306.46 165 314.008 165 328.121c0 7.501.95 8.879 6.118 8.879 6.582 0 6.88-.382 6.904-8.857.031-10.808 1.91-14.409 11.139-21.356 23.364-17.583 23.757-31.982 1.537-56.287-3.422-3.743-7.698-10.837-7.698-12.77 0-5.974 7.552-14.737 11.238-13.039 6.844 3.152 28.871 4.599 36.191 2.377L238 224.84c7.98-2.297 13.715-5.642 20.408-11.903 6.549-6.126 6.549-6.126 10.321-3.875 19.955 11.915 20.746 28.877 2.306 49.438-20.782 23.172-26.639 34.3-23.033 43.764 3.996 10.49 4.326 10.812 8.113 7.906 1.312-1.006 3.224-2.137 4.249-2.512 1.463-.536 1.715-1.272 1.17-3.42-2.806-11.057-1.143-14.974 13.171-31.017 26.77-30.003 29.662-52.686 8.7-68.236-3.753-2.784-4.247-3.978-1.655-4 21.357-.184 21.235-13.996-.456-51.682-5.903-10.255-5.939-10.389-3.684-13.83.976-1.49 1.317-3.15.866-4.215-.41-.967-1.134-3.671-1.61-6.008l-1.778-8.5c-4.947-23.053-5.02-25.082-1.136-31.669 13.363-22.664 2.499-52.835-22.952-63.742-6.07-2.601-7.699-3.238-10.899-4.257-5.217-1.661-23.785-1.336-29.101.509-6.077 2.11-11.363 4.605-12.134 5.729-1.013 1.474-2.408.485-6.007-4.26C182.411 5.29 154.098-3.068 130.5.652M174 48.617c-6.541 3.589-12.808 10.181-21.145 22.24-13.875 20.069-20.876 24.54-27.403 17.497-2.528-2.728-3.4-8.65-1.452-9.854 3.14-1.941-4.786-11.287-8.397-9.901-3.791 1.455-6.368 13.078-4.387 19.785 6.925 23.436 30.538 20.344 48.759-6.385 17.066-25.035 23.74-28.405 37.554-18.961 7.791 5.326 14.829-4.562 7.221-10.144-10.202-7.485-21.928-9.116-30.75-4.277m-79 62.542c-28.721 7.832-31.63 12.496-31.181 49.994.475 39.686-1.621 43.854-22.868 45.458-10.048.759-10.416 1.098-9.771 8.984.32 3.905.32 3.905 6.32 4.233 27.038 1.478 42.441-17.801 39.411-49.328-1.187-12.353-1.064-32.334.214-34.816C81.66 126.878 95.89 122 117.042 122c6.37 0 6.917-.649 6.944-8.25.014-3.878-18.272-5.513-28.986-2.591m131.5 12.083c-9.918 3.401-26.789 13.53-25.999 15.609.742 1.953 4.805 6.928 6.127 7.502.62.27 4.093-1.499 7.718-3.931s7.205-4.422 7.956-4.422 1.673-.308 2.05-.685c4.53-4.531 15.492-4.074 22.898.954 2.7 1.833 2.802 1.83 5.654-.201 1.598-1.137 3.398-2.068 4-2.068 2.261 0 .98-4.228-2.066-6.815-7.446-6.324-19.722-8.898-28.338-5.943m9.808 18.768c-6.227 2.508-6.32 10.5-.151 13.055 8.615 3.569 15.061-8.315 6.822-12.576-3.251-1.681-3.621-1.708-6.671-.479M224 248.383c-17.45 13.041-19.187 25.659-5.826 42.322 19.524 24.347 19.658 27.72 1.653 41.427-17.778 13.533-23.392 41.025-8.006 39.203 5.179-.614 5.179-.614 5.179-9.274 0-10.467 1.992-14.297 10.695-20.561 22.132-15.93 23.727-28.83 6.243-50.5-13.015-16.132-14.256-19.469-9.59-25.795 2.329-3.156 8.664-8.663 10.958-9.524 1.527-.574-3.41-10.075-5.414-10.421-.766-.131-3.417 1.274-5.892 3.123" fill="#dec685" fill-rule="evenodd"/></svg>
