<svg xmlns="http://www.w3.org/2000/svg" viewBox="0 0 431.882 500">
  <path fill="#20392B" d="M431.882 124.983v125L323.92 187.468l-107.968-62.485L323.92 62.485 431.882 0v124.983Z"/>
  <path fill="#005C30" d="M215.934 250.017V375l-107.967-62.515L0 250.017l107.967-62.519 107.967-62.515v125.034Z"/>
  <path fill="#3AB06A" d="M0 124.983V0l107.967 62.498 107.967 62.52-107.967 62.48L0 250V124.983Z"/>
  <path fill="#20392B" d="M0 375V250l107.967 62.515 107.967 62.52-107.967 62.497L0 500V375Z"/>
  <path fill="#3AB06A" d="m323.92 187.498-107.97-62.515v249.983l107.968 62.52L431.882 500V250.017L323.92 187.498Z"/>
</svg>
