<svg enable-background="new 0 0 512 512" height="512" viewBox="0 0 512 512" width="512" xmlns="http://www.w3.org/2000/svg"><path d="m256.024 29.736-80.851 46.679 53.892 31.112 26.887-15.556 27.017 15.548 53.881-31.119z" fill="#3c77b9"/><path d="m256.036 512 202.079-116.681-.006-124.454-53.912 31.115.019 62.224-148.204 85.569-148.221-85.586-.005-62.221-53.871-31.102v124.442z" fill="#3c77b9"/><path d="m215.607 301.986-53.91 31.117 94.318 54.433 94.288-54.443-53.879-31.118 188.657-108.927-.041-62.184 26.96-15.564-.021-77.759-229.045 132.233-26.929-15.554-26.949 15.554-229.056-132.222v77.789l26.98 15.574-.01 62.153z" fill="#1f2938"/></svg>