<svg xmlns="http://www.w3.org/2000/svg" xml:space="preserve" style="fill-rule:evenodd;clip-rule:evenodd;stroke-linejoin:round;stroke-miterlimit:2" viewBox="0 0 557 557"><path d="M0 0h556.25v556.25H0z" style="fill:none"/><path d="M45.455 412.973c-8.755-1.966-14.046-4.401-21.21-9.692-9.88-7.304-16.341-17.418-19.9-31.231-.655-2.481-.749-13.157-.889-90.601-.141-62.086-.047-89.102.328-92.333 2.013-17.746 12.969-33.384 28.795-41.251 8.896-4.401 14.609-5.478 29.545-5.478H73.08v109.096h121.27V142.294l12.97.187c12.267.187 13.297.281 17.699 1.451 18.682 4.964 32.963 19.432 37.832 38.348l1.498 5.759v180.266l-1.451 5.618c-3.886 14.984-12.642 26.408-25.893 33.712-4.495 2.482-8.849 4.074-14.702 5.338-3.933.843-6.087.983-16.247.983H194.35V306.733H73.08v107.223l-11.799-.046c-9.879-.047-12.501-.188-15.826-.937Z" style="fill:url(#a);fill-rule:nonzero"/><path d="M272.625 413.956V142.387l118.226.094 118.226.14 4.449 1.218c8.943 2.481 16.668 6.883 23.177 13.11 8.053 7.726 12.829 16.294 15.17 27.204.983 4.541.983 4.963.983 94.112v89.571l-1.123 4.917c-2.342 10.254-6.275 17.558-13.485 25.097-7.679 8.006-16.294 12.782-27.157 15.123l-4.589.983H272.625Zm215.148-61.805V204.193H337.006v147.958h150.767Z" style="fill:url(#b);fill-rule:nonzero"/><defs><linearGradient id="a" x1="0" x2="1" y1="0" y2="0" gradientTransform="rotate(90 63.556 205.944) scale(271.569)" gradientUnits="userSpaceOnUse"><stop offset="0" style="stop-color:#decc84;stop-opacity:1"/><stop offset=".49" style="stop-color:#e1b821;stop-opacity:1"/><stop offset="1" style="stop-color:#e2b201;stop-opacity:1"/></linearGradient><linearGradient id="b" x1="0" x2="1" y1="0" y2="0" gradientTransform="rotate(90 65.119 207.506) scale(271.569)" gradientUnits="userSpaceOnUse"><stop offset="0" style="stop-color:#decc84;stop-opacity:1"/><stop offset=".49" style="stop-color:#e1b821;stop-opacity:1"/><stop offset="1" style="stop-color:#e2b201;stop-opacity:1"/></linearGradient></defs></svg>