<svg xmlns="http://www.w3.org/2000/svg" fill="none" viewBox="1 1 38 38"><path fill="#232320" d="M29.4 1H10.6c-3.36 0-5.04 0-6.324.654a6 6 0 0 0-2.622 2.622C1 5.56 1 7.24 1 10.6v18.8c0 3.36 0 5.04.654 6.324a6 6 0 0 0 2.622 2.622C5.56 39 7.24 39 10.6 39h18.8c3.36 0 5.04 0 6.324-.654a6 6 0 0 0 2.622-2.622C39 34.44 39 32.76 39 29.4V10.6c0-3.36 0-5.04-.654-6.324a6 6 0 0 0-2.622-2.622C34.44 1 32.76 1 29.4 1Z"/><path fill="#fff" fill-rule="evenodd" d="M19.56 10H12v20.047h4.296V23.46h3.264c5.766 0 8.649-2.243 8.649-6.73 0-4.486-2.883-6.73-8.649-6.73Zm.2 3.781c2.712 0 4.067.983 4.067 2.95 0 1.966-1.355 2.95-4.066 2.95h-3.465v-5.9h3.465Z" clip-rule="evenodd"/></svg>