<?xml version="1.0" encoding="UTF-8" standalone="no"?><!DOCTYPE svg PUBLIC "-//W3C//DTD SVG 1.1//EN" "http://www.w3.org/Graphics/SVG/1.1/DTD/svg11.dtd"><svg width="100%" height="100%" viewBox="0 0 557 557" version="1.1" xmlns="http://www.w3.org/2000/svg" xmlns:xlink="http://www.w3.org/1999/xlink" xml:space="preserve" xmlns:serif="http://www.serif.com/" style="fill-rule:evenodd;clip-rule:evenodd;stroke-linejoin:round;stroke-miterlimit:2;"><rect id="Artboard1" x="0" y="0" width="556.25" height="556.25" style="fill:none;"/><g><path d="M45.455,412.973c-8.755,-1.966 -14.046,-4.401 -21.21,-9.692c-9.88,-7.304 -16.341,-17.418 -19.9,-31.231c-0.655,-2.481 -0.749,-13.157 -0.889,-90.601c-0.141,-62.086 -0.047,-89.102 0.328,-92.333c2.013,-17.746 12.969,-33.384 28.795,-41.251c8.896,-4.401 14.609,-5.478 29.545,-5.478l10.956,0l0,109.096l121.27,0l0,-109.189l12.97,0.187c12.267,0.187 13.297,0.281 17.699,1.451c18.682,4.964 32.963,19.432 37.832,38.348l1.498,5.759l0,180.266l-1.451,5.618c-3.886,14.984 -12.642,26.408 -25.893,33.712c-4.495,2.482 -8.849,4.074 -14.702,5.338c-3.933,0.843 -6.087,0.983 -16.247,0.983l-11.706,0l0,-107.223l-121.27,0l0,107.223l-11.799,-0.046c-9.879,-0.047 -12.501,-0.188 -15.826,-0.937Z" style="fill:url(#_Linear1);fill-rule:nonzero;"/><path d="M272.625,413.956l0,-271.569l118.226,0.094l118.226,0.14l4.449,1.218c8.943,2.481 16.668,6.883 23.177,13.11c8.053,7.726 12.829,16.294 15.17,27.204c0.983,4.541 0.983,4.963 0.983,94.112l0,89.571l-1.123,4.917c-2.342,10.254 -6.275,17.558 -13.485,25.097c-7.679,8.006 -16.294,12.782 -27.157,15.123l-4.589,0.983l-233.877,0Zm215.148,-61.805l0,-147.958l-150.767,0l0,147.958l150.767,0Z" style="fill:url(#_Linear2);fill-rule:nonzero;"/></g><defs><linearGradient id="_Linear1" x1="0" y1="0" x2="1" y2="0" gradientUnits="userSpaceOnUse" gradientTransform="matrix(1.66288e-14,271.569,-271.569,1.66288e-14,269.5,142.387)"><stop offset="0" style="stop-color:#decc84;stop-opacity:1"/><stop offset="0.49" style="stop-color:#e1b821;stop-opacity:1"/><stop offset="1" style="stop-color:#e2b201;stop-opacity:1"/></linearGradient><linearGradient id="_Linear2" x1="0" y1="0" x2="1" y2="0" gradientUnits="userSpaceOnUse" gradientTransform="matrix(1.66288e-14,271.569,-271.569,1.66288e-14,272.625,142.387)"><stop offset="0" style="stop-color:#decc84;stop-opacity:1"/><stop offset="0.49" style="stop-color:#e1b821;stop-opacity:1"/><stop offset="1" style="stop-color:#e2b201;stop-opacity:1"/></linearGradient></defs></svg>