<svg xmlns="http://www.w3.org/2000/svg" xml:space="preserve" style="fill-rule:evenodd;clip-rule:evenodd;stroke-linejoin:round;stroke-miterlimit:2" viewBox="0 0 33 34"><path d="M4.581 4.337c-.113.379-.049.822.077 1.707l1.604 11.224c.277 1.939.415 2.909.782 3.775A7.25 7.25 0 0 0 8.39 23.13c.638.691 1.465 1.217 3.117 2.269l2.349 1.495c1.126.716 1.69 1.075 2.295 1.214.465.108.947.121 1.416.042a7.236 7.236 0 0 1 9.876-9.367c.069-.432.14-.929.223-1.514v-.001L29.27 6.044c.126-.885.19-1.328.077-1.707a1.806 1.806 0 0 0-.557-.859c-.3-.257-.73-.38-1.59-.626L17.759.155c-.296-.085-.444-.127-.594-.144a1.801 1.801 0 0 0-.402 0c-.15.017-.298.059-.594.144L6.728 2.852c-.86.246-1.29.369-1.59.626a1.806 1.806 0 0 0-.557.859Z" style="fill:#ffd06f"/><path d="M13.246 2.719a.965.965 0 0 1 .201 0c.057.007.122.022.446.114l9.44 2.698c.444.126.727.208.94.287.202.075.274.124.311.156a.898.898 0 0 1 .278.429c.014.047.03.133.016.348-.015.226-.056.518-.122.974l-1.346 9.426a8.141 8.141 0 0 0-6.991 10.502l-.451.286c-1.183.753-1.594 1.001-2.012 1.097a2.73 2.73 0 0 1-1.22 0c-.417-.096-.829-.344-2.012-1.097l-2.349-1.494c-1.693-1.078-2.398-1.535-2.938-2.12A6.312 6.312 0 0 1 4.259 22.5c-.31-.733-.436-1.564-.72-3.551L1.936 7.725a13.373 13.373 0 0 1-.121-.974c-.015-.215.001-.301.015-.348a.9.9 0 0 1 .279-.429c.036-.032.109-.081.31-.156.213-.079.496-.161.94-.287l9.44-2.698c.324-.092.389-.107.447-.114ZM26.552 7.95l-1.318 9.228A8.142 8.142 0 0 1 24.2 33.394a8.138 8.138 0 0 1-7.048-4.064l-.212.136-.135.085c-.996.634-1.683 1.072-2.443 1.248a4.526 4.526 0 0 1-2.032 0c-.76-.176-1.447-.614-2.443-1.248l-.134-.085-2.466-1.57c-1.541-.98-2.461-1.565-3.179-2.344a8.124 8.124 0 0 1-1.515-2.347c-.413-.976-.567-2.054-.825-3.863L.14 7.95C.081 7.534.029 7.172.009 6.869a2.74 2.74 0 0 1 .087-.98C.244 5.388.535 4.94.931 4.6c.264-.226.557-.366.86-.478.285-.106.636-.206 1.04-.322l.031-.009 9.44-2.697.05-.014c.247-.071.465-.133.693-.159.2-.022.402-.022.603 0 .227.026.445.088.692.159l.05.014L23.861 3.8c.404.116.755.216 1.04.322.304.112.596.252.86.478.397.34.687.788.835 1.289.099.332.108.657.087.98-.02.303-.072.665-.131 1.08v.001ZM24.2 18.922a6.332 6.332 0 1 0 0 12.664 6.332 6.332 0 0 0 0-12.664Zm4.313 4.197a.905.905 0 0 0-1.39-1.158l-3.888 4.666-2.013-2.013a.906.906 0 0 0-1.28 1.279l2.714 2.713a.902.902 0 0 0 1.334-.06l4.523-5.427ZM8.824 12.59a4.522 4.522 0 1 1 7.235 3.619v3.617a2.713 2.713 0 1 1-5.426 0v-3.617a4.515 4.515 0 0 1-1.809-3.619Zm5.426 4.523h-1.808v2.713a.905.905 0 1 0 1.808 0v-2.713Zm-.904-1.809a2.713 2.713 0 1 0 0-5.426 2.713 2.713 0 0 0 0 5.426Z" style="fill:#28323f"/></svg>