<svg xmlns="http://www.w3.org/2000/svg" fill="none" viewBox="0 0 918 754"><g clip-path="url(#a)"><path fill="url(#b)" fill-rule="evenodd" d="M649.27 113.046H.227v546.898c0 52.034 42.495 94.173 94.96 94.173h485.451-163.591v-43.872a93.68 93.68 0 0 1 22.652-61.053l167.27-194.683v.097c-.098.095-.195.287-.388.383 19.36-21.983 47.819-35.807 79.473-35.807h36.978v-232.89c.096-40.415-32.912-73.246-73.762-73.246Z" clip-rule="evenodd"/><path fill="#B8D7FF" fill-rule="evenodd" d="M607.065 454.609c-16.457 18.431-26.426 42.718-26.426 69.214l-.001 230.294H417.047v-43.872a93.68 93.68 0 0 1 22.652-61.053l167.27-194.683.096.1Z" clip-rule="evenodd"/><path fill="#8F69FF" d="M673.082 634.504h33.396c1.355 5.76 4.743 10.848 9.583 14.399a25.765 25.765 0 0 0 16.65 5.088c15.101 0 25.071-8.256 25.071-20.351 0-12.096-10.357-18.816-30.879-18.816h-13.262v-27.263h11.52c19.844 0 27.974-7.296 27.974-18.143 0-10.849-8.808-18.336-21.004-18.336-5.422-.288-10.842 1.44-14.908 4.992-4.162 3.551-6.679 8.543-7.163 13.92h-32.234c1.161-19.008 16.262-46.271 54.111-46.271 30.395 0 51.4 17.183 51.4 41.374 0 7.776-2.42 15.36-7.066 21.6-4.646 6.24-11.132 10.943-18.586 13.247v.48c8.712 1.536 16.553 6.144 22.071 12.96a36.474 36.474 0 0 1 8.131 24.192c0 26.207-24.2 43.487-55.466 43.487-33.202.191-56.918-18.528-59.339-46.559ZM846.257 526.328h24.295v152.54h-31.361v-117.02l-30.202 20.351v-30.816l37.268-25.055Z"/><path fill="url(#c)" fill-rule="evenodd" d="M95.187.544h728.226c52.466 0 94.961 42.142 94.961 94.173V419.19H723.128v-232.89c0-40.511-33.105-73.253-73.858-73.253H.227V94.717C.227 42.687 42.722.544 95.187.544Z" clip-rule="evenodd"/></g><defs><radialGradient id="b" cx="0" cy="0" r="1" gradientTransform="matrix(1874.62 0 0 1592.06 883.262 -628.134)" gradientUnits="userSpaceOnUse"><stop offset=".556" stop-color="#6D4AFF"/><stop offset=".994" stop-color="#06B8FF"/></radialGradient><linearGradient id="c" x1="771.551" x2="203.726" y1="515.649" y2="-273.993" gradientUnits="userSpaceOnUse"><stop stop-color="#BFE8FF"/><stop offset=".307" stop-color="#BFABFF"/><stop offset="1" stop-color="#7341FF"/></linearGradient><clipPath id="a"><path fill="#fff" d="M0 0h918v754H0z"/></clipPath></defs></svg>