<svg xmlns="http://www.w3.org/2000/svg" fill="none" viewBox="0 0 1683 1461"><path fill="url(#a)" fill-rule="evenodd" d="M333.319 1113.48c-71.91 0-130.208-58.3-130.208-130.206 0-71.91 58.298-130.208 130.208-130.208s130.218 58.298 130.218 130.208c0 71.906-58.298 130.206-130.218 130.206Z" clip-rule="evenodd"/><path fill="url(#b)" fill-rule="evenodd" d="M1682.53 713.397v594.053c0 84.39-68.42 152.81-152.81 152.81H248.509l3.01-3.47L512.455 1156c1.29-1.36 2.561-2.74 3.811-4.14h.01c39.465-43.97 63.729-103.65 63.729-169.376 0-135.138-102.555-244.714-229.032-244.714H-.006V153.63C-.006 69.238 68.414.818 152.805.818h817.144c393.541 0 712.581 319.035 712.581 712.579Z" clip-rule="evenodd"/><path fill="#6D4AFF" fill-rule="evenodd" d="M1327.42 774.325v685.935H248.509l3.01-3.47L512.455 1156c1.29-1.36 2.561-2.74 3.811-4.14h.01c39.465-43.97 63.729-103.65 63.729-169.376 0-135.138-102.555-244.714-229.032-244.714H-.006V241.191h794.29c294.446 0 533.136 238.694 533.136 533.134Z" clip-rule="evenodd"/><path fill="url(#c)" fill-opacity=".9" fill-rule="evenodd" d="M1327.42 774.325v685.935H248.509l3.01-3.47L512.455 1156c1.29-1.36 2.561-2.74 3.811-4.14h.01c39.465-43.97 63.729-103.65 63.729-169.376 0-135.138-102.555-244.714-229.032-244.714H-.006V241.191h794.29c294.446 0 533.136 238.694 533.136 533.134Z" clip-rule="evenodd"/><path fill="#FFBB93" d="m516.046 1151.86-3.591 4.14-260.936 300.79-3.01 3.47h-95.704c-84.391 0-152.81-68.42-152.81-152.81v-82.97l297.85 2.31 53.128.41a211.433 211.433 0 0 0 11.511-.31c.06 0 .11 0 .17-.01.941-.05 1.881-.11 2.821-.17 59.068-4.01 112.055-31.96 150.561-74.85h.01Z"/><defs><linearGradient id="a" x1="248.534" x2="432.469" y1="1075.2" y2="913.224" gradientUnits="userSpaceOnUse"><stop stop-color="#EA777D"/><stop offset=".479" stop-color="#DC6E8E"/><stop offset=".764" stop-color="#D2699A"/><stop offset="1" stop-color="#C864A6"/></linearGradient><linearGradient id="b" x1="-210.798" x2="1871.67" y1="170.667" y2="979.674" gradientUnits="userSpaceOnUse"><stop stop-color="#957AFD"/><stop offset="1" stop-color="#FFC6C6"/></linearGradient><linearGradient id="c" x1="1252.32" x2="619.247" y1="426.167" y2="1730.93" gradientUnits="userSpaceOnUse"><stop offset=".15" stop-color="#FA528E" stop-opacity="0"/><stop offset=".721" stop-color="#FF8065"/><stop offset="1" stop-color="#FFA51F"/></linearGradient></defs></svg>