<svg xmlns="http://www.w3.org/2000/svg" xmlns:xlink="http://www.w3.org/1999/xlink" xml:space="preserve" id="Слой_1" x="0" y="0" style="enable-background:new 0 0 500 500" version="1.1" viewBox="0 0 500 500"><style>.st0{clip-path:url(#SVGID_00000160880367675937928300000013114190071515040655_)}.st1{fill:url(#SVGID_00000158020781677298841590000014386279406831169436_)}.st2{fill:url(#SVGID_00000038389245457700614160000015930090567954731184_)}.st3{fill:url(#SVGID_00000074402669088272121800000007567021010918974869_)}</style><defs><path id="SVGID_1_" d="M0 0h500v500H0z"/></defs><clipPath id="SVGID_00000097476224578929584770000017210037084984045718_"><use xlink:href="#SVGID_1_" style="overflow:visible"/></clipPath><g style="clip-path:url(#SVGID_00000097476224578929584770000017210037084984045718_)"><radialGradient id="SVGID_00000047755579261974386440000006872451468367864226_" cx="148.404" cy="350.241" r="4.717" gradientTransform="matrix(46.7033 -75.1155 -117.4926 -73.0513 34370.68 37242.473)" gradientUnits="userSpaceOnUse"><stop offset="0" style="stop-color:#ffd580"/><stop offset=".094" style="stop-color:#f6c592"/><stop offset=".205" style="stop-color:#ebb6a2"/><stop offset=".325" style="stop-color:#dfa5af"/><stop offset=".429" style="stop-color:#d397be"/><stop offset=".534" style="stop-color:#c486cb"/><stop offset=".649" style="stop-color:#b578d9"/><stop offset=".771" style="stop-color:#a166e5"/><stop offset=".891" style="stop-color:#8b57f2"/><stop offset="1" style="stop-color:#704cff"/></radialGradient><path d="M150.4 63.1c34.9-34.9 52.3-52.3 72.4-58.8 17.7-5.7 36.7-5.7 54.4 0 20.1 6.5 37.5 24 72.4 58.8l87.2 87.1c34.9 34.9 52.3 52.3 58.9 72.4 5.8 17.7 5.8 36.7 0 54.4-6.5 20.1-24 37.5-58.9 72.4l-87.2 87.1c-34.9 34.9-52.3 52.3-72.4 58.8-17.7 5.7-36.7 5.7-54.4 0-20.1-6.5-37.5-24-72.4-58.8L134 418.2c-9.9-11.1-14.9-16.7-18.4-23-3.1-5.6-5.4-11.6-6.8-17.9-1.6-7.1-1.6-14.5-1.6-29.4V151.8c0-14.9 0-22.3 1.6-29.4 1.4-6.3 3.7-12.3 6.8-17.9 3.5-6.3 8.5-11.9 18.4-23l16.4-18.4z" style="fill:url(#SVGID_00000047755579261974386440000006872451468367864226_)"/><linearGradient id="SVGID_00000017511077749203986220000003166735930388103090_" x1="234.602" x2="331.739" y1="617.754" y2="24.506" gradientTransform="matrix(1 0 0 -1 0 502)" gradientUnits="userSpaceOnUse"><stop offset="0" style="stop-color:#6d4aff"/><stop offset=".392" style="stop-color:#b39ffb;stop-opacity:.978"/><stop offset="1" style="stop-color:#ffe8db;stop-opacity:.8"/></linearGradient><path d="M150.4 63.1c34.9-34.9 52.3-52.3 72.4-58.8 17.7-5.7 36.7-5.7 54.4 0 20.1 6.5 37.5 24 72.4 58.8l87.2 87.1c34.9 34.9 52.3 52.3 58.9 72.4 5.8 17.7 5.8 36.7 0 54.4-6.5 20.1-24 37.5-58.9 72.4l-87.2 87.1c-34.9 34.9-52.3 52.3-72.4 58.8-17.7 5.7-36.7 5.7-54.4 0-20.1-6.5-37.5-24-72.4-58.8L134 418.2c-9.9-11.1-14.9-16.7-18.4-23-3.1-5.6-5.4-11.6-6.8-17.9-1.6-7.1-1.6-14.5-1.6-29.4V151.8c0-14.9 0-22.3 1.6-29.4 1.4-6.3 3.7-12.3 6.8-17.9 3.5-6.3 8.5-11.9 18.4-23l16.4-18.4z" style="fill:url(#SVGID_00000017511077749203986220000003166735930388103090_)"/><radialGradient id="SVGID_00000089555210451034675070000005649055941905357209_" cx="148.036" cy="350.467" r="4.717" gradientTransform="matrix(37.5657 -60.419 -94.5046 -58.7585 27673.916 29995.748)" gradientUnits="userSpaceOnUse"><stop offset="0" style="stop-color:#ffd580"/><stop offset=".094" style="stop-color:#f6c592"/><stop offset=".205" style="stop-color:#ebb6a2"/><stop offset=".325" style="stop-color:#dfa5af"/><stop offset=".429" style="stop-color:#d397be"/><stop offset=".534" style="stop-color:#c486cb"/><stop offset=".649" style="stop-color:#b578d9"/><stop offset=".771" style="stop-color:#a166e5"/><stop offset=".891" style="stop-color:#8b57f2"/><stop offset="1" style="stop-color:#704cff"/></radialGradient><path d="M144.1 69.4C161.5 52 170.3 43.3 180.3 40c8.8-2.9 18.4-2.9 27.2 0 10.1 3.3 18.8 12 36.2 29.4l130.8 130.7c17.4 17.4 26.2 26.1 29.4 36.2 2.9 8.8 2.9 18.4 0 27.2-3.3 10.1-12 18.8-29.4 36.2L243.8 430.4c-17.4 17.4-26.2 26.1-36.2 29.4-8.8 2.9-18.4 2.9-27.2 0-10.1-3.3-18.8-12-36.2-29.4l-81-80.9c-34.9-34.9-52.3-52.3-58.9-72.4-5.7-17.7-5.7-36.7 0-54.4 6.5-20.1 24-37.5 58.9-72.4l80.9-80.9z" style="fill:url(#SVGID_00000089555210451034675070000005649055941905357209_)"/></g></svg>