<svg xmlns="http://www.w3.org/2000/svg" fill="none" viewBox="0 0 918 833"><g clip-path="url(#a)"><g clip-path="url(#b)"><path fill="url(#c)" fill-rule="evenodd" d="M369.025 783.591c34.894 62.73 124.503 66.127 164.12 6.222l369.402-558.581c39.174-59.236 1.693-138.655-69.246-146.726L107.232 1.892C29.822-6.916-25.294 74.708 12.358 142.396l356.667 641.195Z" clip-rule="evenodd"/><path fill="url(#d)" d="m389.854 725.08 32.784-48.898L671.66 300.021c21.773-32.888.992-77.007-38.401-81.53L15.25 147.539l320.146 575.543c11.684 20.599 41.227 21.732 54.458 1.998Z"/></g></g><defs><linearGradient id="c" x1="830.496" x2="239.715" y1="783.548" y2="-235.266" gradientUnits="userSpaceOnUse"><stop offset=".066" stop-color="#8EFFEE"/><stop offset=".45" stop-color="#C9C7FF"/><stop offset="1" stop-color="#7341FF"/></linearGradient><linearGradient id="d" x1="884.537" x2="57.242" y1="-908.44" y2="861.083" gradientUnits="userSpaceOnUse"><stop offset=".48" stop-color="#6D4AFF"/><stop offset=".994" stop-color="#00F0C3"/></linearGradient><clipPath id="a"><path fill="#fff" d="M0 0h918v833H0z"/></clipPath><clipPath id="b"><path fill="#fff" d="M.227 1.234h918.147v831.53H.227z"/></clipPath></defs></svg>