<svg xmlns="http://www.w3.org/2000/svg" fill="none" viewBox="0 0 918 753"><g clip-path="url(#a)"><path fill="url(#b)" d="m648.843 188.37-359.633 2.016c-15.485.096-30.582-4.608-43.26-13.535l-80.134-56.446c-12.484-8.832-27.485-13.536-42.776-13.536H.227v552.077c0 52.03 42.486 94.172 94.94 94.172H723.17V261.616c0-40.607-33.292-73.534-74.326-73.246Z"/><path fill="url(#c)" fill-rule="evenodd" d="M432.928 75.382h390.505c52.454 0 94.941 42.143 94.941 94.173V658.85c0 52.03-42.487 94.173-94.941 94.173H723.169V261.616c0-40.607-33.292-73.534-74.326-73.246l-359.633 2.016c-15.485.096-30.582-4.608-43.26-13.535l-80.134-56.446c-12.484-8.832-27.485-13.536-42.776-13.536H.227V93.718c0-52.03 42.486-94.173 94.94-94.173h178.171c18.001 0 35.518 5.664 49.939 16.223l59.616 43.39c14.517 10.56 32.034 16.224 50.035 16.224Z" clip-rule="evenodd"/></g><defs><radialGradient id="b" cx="0" cy="0" r="1" gradientTransform="matrix(1713.25 0 0 1560.31 995.275 -518.146)" gradientUnits="userSpaceOnUse"><stop offset=".556" stop-color="#6D4AFF"/><stop offset="1" stop-color="#FF50C3"/></radialGradient><linearGradient id="c" x1="-11.877" x2="1125.4" y1="-393.727" y2="866.473" gradientUnits="userSpaceOnUse"><stop stop-color="#7341FF"/><stop offset=".359" stop-color="#B487FF"/><stop offset="1" stop-color="#FFC8FF"/></linearGradient><clipPath id="a"><path fill="#fff" d="M0 0h918v753H0z"/></clipPath></defs></svg>