<svg xmlns="http://www.w3.org/2000/svg" fill="none" viewBox="0 0 500 500"><path fill="url(#a)" d="M52 369.795V500h91.481V375.43a45.678 45.678 0 0 1 13.397-32.314 45.766 45.766 0 0 1 32.344-13.384h93.798a165.106 165.106 0 0 0 116.658-48.303A164.795 164.795 0 0 0 448 164.872a164.796 164.796 0 0 0-48.327-116.573A165.112 165.112 0 0 0 282.995 0H52v162.756h91.481V86.023H276.83a78.12 78.12 0 0 1 55.205 22.84 77.97 77.97 0 0 1 22.88 55.146 77.966 77.966 0 0 1-22.871 55.161 78.12 78.12 0 0 1-55.214 22.849h-96.945a127.943 127.943 0 0 0-48.952 9.709 127.856 127.856 0 0 0-41.499 27.698 127.7 127.7 0 0 0-27.72 41.463A127.595 127.595 0 0 0 52 369.795Z"/><path fill="url(#b)" d="M189.196 329.731a137.282 137.282 0 0 0-97.008 40.15A137.014 137.014 0 0 0 52 466.798V500h91.481V375.429a45.676 45.676 0 0 1 13.388-32.304 45.765 45.765 0 0 1 32.327-13.394Z"/><defs><radialGradient id="a" cx="0" cy="0" r="1" gradientTransform="matrix(503.735 0 0 503.255 449.441 -69.422)" gradientUnits="userSpaceOnUse"><stop stop-color="#A995FF"/><stop offset="1" stop-color="#6652F5"/></radialGradient><linearGradient id="b" x1="120.598" x2="120.598" y1="475.374" y2="284.048" gradientUnits="userSpaceOnUse"><stop stop-color="#6D4BFD"/><stop offset="1" stop-color="#1C0554"/></linearGradient></defs></svg>