<svg xmlns="http://www.w3.org/2000/svg" fill="none" viewBox="0 0 500 500"><path fill="#fff" d="M134.664 33c-10.257 0-19.193 1.837-27.87 5.518-8.42 3.682-15.784 8.678-22.36 15.255L250.4 235.779 416.102 53.773c-6.576-6.577-13.946-11.573-22.888-15.255C385.058 34.838 375.6 33 365.864 33c-10.257 0-19.986 2.108-28.664 6.054-8.942 3.94-16.312 9.729-23.146 16.563L250.4 126.105l-64.434-70.488c-6.576-6.834-13.945-12.624-23.152-16.563-8.15-3.946-17.892-6.054-28.15-6.054ZM250.4 263.4 84.434 445.678c6.576 6.312 13.94 11.566 22.36 15.254 8.677 3.681 17.627 5.519 27.355 5.519 10.787 0 19.987-2.366 28.665-6.055 9.207-4.203 17.091-9.729 23.667-16.562l63.92-70.488 63.911 70.488c6.576 6.833 13.946 12.359 22.888 16.562 8.678 3.689 18.142 6.055 28.665 6.055 9.735 0 19.193-1.838 27.349-5.519 8.942-3.688 16.312-8.942 22.888-15.254L250.4 263.4Z" style="mix-blend-mode:difference"/><path fill="#E57000" d="M54.705 87.712c-10.522.264-20.78 2.359-29.98 6.305-9.47 3.946-17.627 9.471-24.725 16.312l126.787 139.396L0 388.865c7.098 7.104 15.254 12.616 24.725 16.826 9.2 4.21 19.458 6.055 29.98 6.577 11.308-.522 21.844-2.36 31.573-7.092 9.736-4.474 18.142-10.529 25.24-18.163l124.936-137.288-124.934-137.03c-7.627-7.37-15.777-13.417-25.512-18.15-9.729-4.467-19.995-6.57-31.303-6.833Zm390.333 0c-11.309.264-21.309 2.366-31.045 6.834-9.728 4.732-18.149 10.78-25.512 18.149l-124.406 137.03L388.48 387.013c7.363 7.634 15.784 13.689 25.512 18.163 9.736 4.732 19.736 6.57 31.045 7.092 11.308-.522 21.037-2.367 30.244-6.577 9.993-4.21 17.62-9.722 24.718-16.827L373.492 249.725 500 110.33c-7.098-6.841-14.725-12.366-24.718-16.312-9.207-3.946-18.936-6.041-30.244-6.306Z"/></svg>