<svg xmlns="http://www.w3.org/2000/svg" viewBox="0 0 502.87 391.64"><defs><style>.cls-2{fill:#f6e4b9}.cls-3{fill:#dbb380}.cls-5{fill:#5d3051}</style></defs><g id="Layer_1" data-name="Layer 1"><path d="M131.64 220.67a39.08 39.08 0 0 1 28.9 13.06 46.51 46.51 0 0 1 0 61.87 38.49 38.49 0 0 1-57.79 0 44.84 44.84 0 0 1-10-18.2 177.7 177.7 0 0 0-1.55 23.44 175.93 175.93 0 0 0 175.88 175.93 177.92 177.92 0 0 0 97.86-29.14 170.5 170.5 0 0 0 64.3-77.36c13.58-33 24.72-42.74 35.38-41.6.5-.56 1-1.16 1.45-1.79 5.4-7.37 7.6-18.83 6.95-30.23S468.89 274.1 463 267.4c-.42-.48-.86-.94-1.31-1.37-8.34.9-19.55-11.21-39.41-48.24a176 176 0 0 0-316.62 13.08 38.67 38.67 0 0 1 26-10.2Z" transform="translate(-48 -105)" style="fill:#ffa647"/><path class="cls-2" d="M432.13 235.39Zm-6.87-12q-1.47-2.68-3-5.56a176 176 0 0 0-309.67-1.15c87.57-124.08 243.13-106.81 312.69 6.71ZM98.24 350.42a176.06 176.06 0 0 0 168.84 126.35 177.92 177.92 0 0 0 97.86-29.14 170.5 170.5 0 0 0 64.3-77.36c13.58-33 24.72-42.74 35.38-41.6.5-.56 1-1.16 1.45-1.79 4.14-5.64 6.39-13.68 6.93-22.25-34.68 2.15-56.12 20.54-71.74 38.89 4.09-20-5.14-44.46-19.87-46-28.21-3-41.8 10.92-53.11 21.09-10.18-6.86-20.87-11.59-35.66-9.73-33.56 4.22-54.68 31.79-83.47 34.27S154.79 319.77 125.2 321c-19.58.8-25.32 17.93-27 29.43Z" transform="translate(-48 -105)"/><path class="cls-3" d="M98.24 350.42a176.06 176.06 0 0 0 168.84 126.35 177.92 177.92 0 0 0 97.86-29.14 170.5 170.5 0 0 0 64.3-77.36c13.58-33 24.72-42.74 35.38-41.6.5-.56 1-1.16 1.45-1.79a31.53 31.53 0 0 0 4-7.72c-38.29-10.29-52.54 34.55-80.63 72.72C339.35 460 238.91 476.2 169.39 429.4c-50.81-34.19-71.15-79-71.15-79Z" transform="translate(-48 -105)"/><path class="cls-2" d="m469.62 260.31.6.66c7.42 8.38 11.74 21.72 12.49 35.15s-2 27-8.61 36.21c4.38 2.89 8.46 7.14 12.72 11.59 7.6 7.91 15.91 16.58 25.63 16.24 14.48-.49 23.34-18 26.93-40.56a162.15 162.15 0 0 0 1.29-36.89 151.41 151.41 0 0 0-6.81-35.77c-6.67-20.08-17.68-34.37-32.36-32.54-15.23 1.9-21.19 18.76-25.79 31.75-2 5.56-3.73 10.55-6.09 14.16Z" transform="translate(-48 -105)"/><path class="cls-3" d="M479.21 322.47a41 41 0 0 1-5.11 9.86c4.38 2.89 8.46 7.14 12.72 11.59 7.6 7.91 15.91 16.58 25.63 16.24 14.48-.49 23.34-18 26.93-40.56a162.15 162.15 0 0 0 1.29-36.89 151.41 151.41 0 0 0-6.81-35.77c15 70.89-32.79 87.15-49.1 78.28-1.91-1-3.75-1.94-5.55-2.75Z" transform="translate(-48 -105)"/><path d="M153.39 240.26a28.92 28.92 0 0 0-43.5 0 37 37 0 0 0 0 48.8 28.9 28.9 0 0 0 43.5 0 37 37 0 0 0 0-48.8Zm141.61 0a28.92 28.92 0 0 0-43.5 0 37 37 0 0 0 0 48.8 28.9 28.9 0 0 0 43.5 0 37 37 0 0 0 0-48.8Z" transform="translate(-48 -105)" style="fill:#fff"/><path class="cls-3" d="M96.86 375.08c-2.27.86-4.71 1.69-7.29 2.46a99.26 99.26 0 0 1-12.06 2.76 4.85 4.85 0 0 1-1.51-9.58 88.52 88.52 0 0 0 10.88-2.49c2.28-.68 4.42-1.4 6.39-2.14-1.09-2.9-2.11-5.84-3.06-8.8-2.52.41-5.22.77-8 1a100.15 100.15 0 0 1-12.29.25 4.85 4.85 0 0 1 .38-9.7 88.43 88.43 0 0 0 11.12-.24q3.24-.27 6.11-.71-1.71-6.56-3-13.31c-5.4-1.37-11.2-2.25-16.08-1.63-4.65.59-8.45 2.75-9.8 7.71-2 7.57-.58 19.7 2.83 32.16a134.75 134.75 0 0 0 12 29.74c4.34 7.65 8.78 13.09 12.37 14.06h.13a1.91 1.91 0 0 0 .88 0c7.14-1.95 12-4.79 15.6-8.15a41.42 41.42 0 0 0 7.22-9.31q-1.64-2.62-3.19-5.29c-1.66 1.26-3.43 2.53-5.3 3.77a98.63 98.63 0 0 1-10.52 6.1 4.86 4.86 0 0 1-4.33-8.71 89 89 0 0 0 9.49-5.48c2.19-1.46 4.18-2.9 6-4.29q-2.58-5-4.86-10.25Z" transform="translate(-48 -105)"/><path class="cls-5" d="M487.79 271.13a4.85 4.85 0 0 1-6.31-7.37s17.79-15.15 34.67-20.77a4.84 4.84 0 1 1 3 9.19c-15 5-31.36 18.92-31.4 18.95Zm-.4 49.59a4.86 4.86 0 0 1 5.25-8.17 86.65 86.65 0 0 0 15.33 7.6 90.9 90.9 0 0 0 16.6 4.63 4.86 4.86 0 0 1-1.67 9.58 100.82 100.82 0 0 1-18.39-5.13 96.68 96.68 0 0 1-17.12-8.51Zm6.43-23.37a4.86 4.86 0 1 1-1.17-9.65c.06 0 21-2.92 33.2-1.42a4.86 4.86 0 1 1-1.18 9.65c-10.89-1.33-30.79 1.42-30.85 1.42Zm-368.25 72.28c-2.87-11.11 11.48-12.72 13.16-2.44.83 6 .91 14.63 3.88 20.78 2.78 5.76-.68 6.62-4.17 4-4.52-3.42-10.21-11.95-12.87-22.3Z" transform="translate(-48 -105)"/><path d="M183.34 159.38c12-3.44 23.09-1.69 24.69 3.91s-6.86 12.93-18.89 16.37-23.1 1.69-24.7-3.91 6.86-12.93 18.9-16.37Zm52.87-19.32c10.6-1.21 19.65 1.8 20.22 6.74s-7.57 9.91-18.17 11.12-19.66-1.8-20.22-6.73 7.57-9.92 18.17-11.13Zm1.52 27.68c8.26-.94 15.31 1.41 15.74 5.25s-5.89 7.72-14.15 8.66-15.3-1.41-15.74-5.25 5.9-7.71 14.15-8.66Zm56.54-26.08c9 .71 16.06 4.68 15.73 8.87s-7.9 7-16.91 6.32-16-4.67-15.73-8.87 7.9-7 16.91-6.32Zm49.58 17.7c7.85 2.75 13.18 7.94 11.9 11.59s-8.69 4.39-16.54 1.64-13.18-8-11.9-11.6 8.69-4.39 16.54-1.63Zm42.32 30.32c6.92 4.62 10.79 11 8.65 14.19s-9.5 2.09-16.43-2.53-10.79-11-8.64-14.19 9.5-2.09 16.42 2.53Zm-40.77 17.53c7.62 3.32 12.54 8.89 11 12.43s-9 3.72-16.58.4-12.54-8.89-11-12.43 9-3.72 16.58-.4Z" transform="translate(-48 -105)" style="fill-rule:evenodd;fill:#f6e4b9"/><path class="cls-5" d="M344.32 331.58a4.85 4.85 0 1 1 .57-9.69A87.61 87.61 0 0 0 362 321a90.45 90.45 0 0 0 16.76-4.08 4.85 4.85 0 0 1 3.19 9.16 99.81 99.81 0 0 1-18.54 4.53 97.3 97.3 0 0 1-19.08 1Zm-4.73 30.48a4.85 4.85 0 0 1 5.17-8.21 86.71 86.71 0 0 0 15.41 7.5 89.77 89.77 0 0 0 16.61 4.51 4.86 4.86 0 0 1-1.6 9.58 100.49 100.49 0 0 1-18.43-5 96.89 96.89 0 0 1-17.16-8.37Zm3.35-15.14a4.86 4.86 0 1 1 2.51-9.39 87.33 87.33 0 0 0 16.91 2.61 91.11 91.11 0 0 0 17.24-.61 4.85 4.85 0 0 1 1.25 9.62 100.09 100.09 0 0 1-19.06.68 97 97 0 0 1-18.87-2.91Zm-140.82 34.14c-5.15-10.26 8.53-14.86 12.35-5.18 2.07 5.67 4 14.11 8.18 19.49 3.94 5.05.74 6.62-3.23 4.76-5.14-2.39-12.5-9.52-17.3-19.07Zm123.41 37.54c-9-7.08 1.37-17.09 9-10 4.29 4.25 9.62 11.06 15.72 14.14 5.71 2.87 3.49 5.66-.9 5.68-5.67 0-15.37-3.28-23.78-9.86ZM214.14 443c-5.15-10.25 8.53-14.86 12.35-5.17 2.07 5.67 4 14.11 8.18 19.49 3.94 5 .74 6.61-3.24 4.76-5.13-2.4-12.5-9.53-17.29-19.08ZM169 413c-5.16-10.25 8.53-14.86 12.35-5.17 2.07 5.67 4 14.11 8.18 19.49 3.94 5 .74 6.61-3.24 4.76-5.14-2.4-12.5-9.53-17.29-19.08Zm103.48 28.56c-7.36-8.81 4.92-16.41 10.84-7.85 3.31 5.05 7.09 12.83 12.41 17.11 5 4 2.23 6.27-2.06 5.37-5.55-1.16-14.35-6.42-21.19-14.63Zm-4.26-50.26c-7.35-8.81 4.92-16.42 10.85-7.86 3.31 5.05 7.09 12.83 12.41 17.11 5 4 2.22 6.28-2.07 5.38-5.55-1.16-14.34-6.43-21.19-14.63Zm106.2 31.8c-10.71-4.12-3.69-16.74 5.66-12.14 5.34 2.79 12.43 7.75 19.16 8.91 6.31 1.07 5 4.39.81 5.7-5.41 1.68-15.65 1.36-25.63-2.47Z" transform="translate(-48 -105)"/><path d="M224.9 332.93a32.29 32.29 0 0 0-9.5-6.08 41.73 41.73 0 0 0-31.4.15 31.83 31.83 0 0 0-9.11 5.91 31.79 31.79 0 0 0 3.18 2.59 40.06 40.06 0 0 0 43.63 0 30.81 30.81 0 0 0 3.19-2.59Z" transform="translate(-48 -105)" style="fill:#ff5252"/></g><g id="Layer_2" data-name="Layer 2"><path class="cls-5" d="M267.08 115.18a186.67 186.67 0 0 1 37.71 3.82c9.74-3.11 19.45-3 24.61-1.19 4.13 1.45 5.33 4.81-1 5.66a23.44 23.44 0 0 0-3.68.83 184.43 184.43 0 0 1 37.61 17.14c.86.51 1.7 1 2.54 1.55 9.68-.9 18.6 1 23.12 3.63 3.79 2.22 4.32 5.74-2.06 5.38a28.48 28.48 0 0 0-7 .61 186.61 186.61 0 0 1 51.92 60.61c17.72 33.06 25.3 43.61 28.79 43.43a5 5 0 0 1 1.31-.73c1.69-1.83 3.52-7 5.65-13 5.47-15.46 12.57-35.52 33.77-38.16 20.25-2.53 34.63 14.73 42.74 39.15a161.47 161.47 0 0 1 7.3 38.09 172.29 172.29 0 0 1-1.4 39.13c-4.3 27-16.09 48.05-36.2 48.74-14 .47-23.91-9.81-32.93-19.22-4.9-5.11-9.51-9.92-13.7-11.64-6.93-2.84-15 3.6-27.92 34.95a172.68 172.68 0 0 1-11.62 23.2l.24-.4a27.27 27.27 0 0 0 6.22 2c6.3 1.08 5 4.4.8 5.7a32.63 32.63 0 0 1-12.32.73 182.34 182.34 0 0 1-48.87 49 31.09 31.09 0 0 0 7.89 3.52c6.19 1.61 4.6 4.81.32 5.75s-11.77.42-19.44-2.21A185.84 185.84 0 0 1 331 475.36c5.31 1.66 3.68 4.63-.42 5.54-3.48.76-8.79.58-14.64-.82a188.26 188.26 0 0 1-48.84 6.42c-5.76 0-11.46-.27-17.09-.78a31.39 31.39 0 0 0 7 5.25c5.68 2.93 3.43 5.7-1 5.67-5.67 0-15.33-3.43-23.68-10.11a9.17 9.17 0 0 1-3-3.88 184.46 184.46 0 0 1-60.68-24.38 38.11 38.11 0 0 0 3.43 11.53c3.05 5.62-.37 6.64-4 4.16-4.67-3.22-10.75-11.47-13.89-21.68a9.71 9.71 0 0 1-.43-4.37A186.55 186.55 0 0 1 115.48 408a44.82 44.82 0 0 1-6.47 7.61c-4.68 4.34-10.81 8-19.67 10.39a11.41 11.41 0 0 1-5.83 0l-.27-.06c-6.24-1.63-12.71-8.8-18.24-18.59a145 145 0 0 1-12.88-32c-3.83-14-5.38-28-2.86-37.26 2.59-9.58 9.54-13.7 18-14.77a49.6 49.6 0 0 1 15.69.94 187 187 0 0 1-1.47-23.44 185.09 185.09 0 0 1 54.32-131.27 188.51 188.51 0 0 1 18-15.79 9.8 9.8 0 0 1 .43-4.39c3.14-10.22 9.22-18.46 13.89-21.68 3.61-2.49 7-1.47 4 4.16-1.81 3.34-2.76 7.5-3.44 11.56A184.73 184.73 0 0 1 229.29 119a9.43 9.43 0 0 1 3-3.91c8.35-6.67 18-10.08 23.68-10.11 4.39 0 6.64 2.74 1 5.68a31.37 31.37 0 0 0-7 5.28q8.48-.78 17.13-.78ZM96.86 375.08c-2.27.86-4.71 1.69-7.29 2.46a99.26 99.26 0 0 1-12.06 2.76 4.85 4.85 0 0 1-1.51-9.58 88.52 88.52 0 0 0 10.88-2.49c2.28-.68 4.42-1.4 6.39-2.14-1.09-2.9-2.11-5.84-3.06-8.8-2.52.41-5.22.77-8 1a100.15 100.15 0 0 1-12.29.25 4.85 4.85 0 0 1 .38-9.7 88.43 88.43 0 0 0 11.12-.24q3.24-.27 6.11-.71-1.71-6.56-3-13.31c-5.4-1.37-11.2-2.25-16.08-1.63-4.65.59-8.45 2.75-9.8 7.71-2 7.57-.58 19.7 2.83 32.16a134.75 134.75 0 0 0 12 29.74c4.34 7.65 8.78 13.09 12.37 14.06h.13a1.91 1.91 0 0 0 .88 0c7.14-1.95 12-4.79 15.6-8.15a41.42 41.42 0 0 0 7.22-9.31q-1.64-2.62-3.19-5.29c-1.66 1.26-3.43 2.53-5.3 3.77a98.63 98.63 0 0 1-10.52 6.1 4.86 4.86 0 0 1-4.33-8.71 89 89 0 0 0 9.49-5.48c2.19-1.46 4.18-2.9 6-4.29q-2.58-5-4.86-10.25ZM325 326.67a4.85 4.85 0 1 1-5.93-7.68c.16-.12 56.4-44.11 76.29-20.81 4.23 4.94 7.26 12.29 9.14 20.79 2.79 12.66 3.1 28.15 1 41.92-2.21 14.28-7.12 27-14.73 33.51a19.69 19.69 0 0 1-8.65 4.42c-26.17 5.78-63.3-31.39-63.41-31.49a4.85 4.85 0 0 1 6.8-6.92c.1.1 33.61 33.57 54.53 28.95a10.26 10.26 0 0 0 4.42-2.33c5.7-4.87 9.54-15.43 11.42-27.62 2-12.71 1.7-26.88-.83-38.35-1.55-7-3.89-12.89-7-16.57-13.81-16.17-62.85 22.07-63 22.18Zm-51.74-106a39.06 39.06 0 0 1 28.9 13.06 46.51 46.51 0 0 1 0 61.87 38.49 38.49 0 0 1-57.79 0 46.51 46.51 0 0 1 0-61.87 39.06 39.06 0 0 1 28.89-13.06ZM295 240.26a28.92 28.92 0 0 0-43.5 0 37 37 0 0 0 0 48.8 28.9 28.9 0 0 0 43.5 0 37 37 0 0 0 0-48.8Zm-163.36-19.59a39.08 39.08 0 0 1 28.9 13.06 46.51 46.51 0 0 1 0 61.87 38.49 38.49 0 0 1-57.79 0 44.84 44.84 0 0 1-10-18.2 177.7 177.7 0 0 0-1.55 23.44 175.93 175.93 0 0 0 175.88 175.93 177.92 177.92 0 0 0 97.86-29.14 170.5 170.5 0 0 0 64.3-77.36c13.58-33 24.72-42.74 35.38-41.6.5-.56 1-1.16 1.45-1.79 5.4-7.37 7.6-18.83 6.95-30.23S468.89 274.1 463 267.4c-.42-.48-.86-.94-1.31-1.37-8.34.9-19.55-11.21-39.41-48.24a176 176 0 0 0-316.62 13.08 38.67 38.67 0 0 1 26-10.2Zm21.75 19.59a28.92 28.92 0 0 0-43.5 0 37 37 0 0 0 0 48.8 28.9 28.9 0 0 0 43.5 0 37 37 0 0 0 0-48.8Zm316.23 20.05.6.66c7.42 8.38 11.74 21.72 12.49 35.15s-2 27-8.61 36.21c4.38 2.89 8.46 7.14 12.72 11.59 7.6 7.91 15.91 16.58 25.63 16.24 14.48-.49 23.34-18 26.93-40.56a162.15 162.15 0 0 0 1.29-36.89 151.41 151.41 0 0 0-6.81-35.77c-6.67-20.08-17.68-34.37-32.36-32.54-15.23 1.9-21.19 18.76-25.79 31.75-2 5.56-3.73 10.55-6.09 14.16Z" transform="translate(-48 -105)"/><path d="M138.19 244.6a26.31 26.31 0 1 1-26.31 26.31 26.31 26.31 0 0 1 26.31-26.31Zm136.21 0a26.31 26.31 0 1 1-26.31 26.31 26.31 26.31 0 0 1 26.31-26.31Z" transform="translate(-48 -105)" style="fill-rule:evenodd;fill:#5d3051"/><path d="M125.73 245.85a10 10 0 1 1-10 10 10 10 0 0 1 10-10ZM147.41 279a3.61 3.61 0 1 1-3.6 3.61 3.61 3.61 0 0 1 3.6-3.61ZM263 245.85a10 10 0 1 1-10 10 10 10 0 0 1 10-10ZM284.63 279a3.61 3.61 0 1 1-3.6 3.61 3.61 3.61 0 0 1 3.6-3.61Z" transform="translate(-48 -105)" style="fill-rule:evenodd;fill:#fff"/><path class="cls-5" d="M199.9 349.17a44.68 44.68 0 0 1-26-7.81 36.65 36.65 0 0 1-14.49-21 13.72 13.72 0 0 1-.34-5.31 10.93 10.93 0 0 1 2.43-5.55 10.71 10.71 0 0 1 5.62-3.43 16.43 16.43 0 0 1 6.42-.24q6.57.93 13.16 1.42t13.15.52q6.43 0 13.15-.52t13.16-1.42a16.33 16.33 0 0 1 6.4.24 10.66 10.66 0 0 1 5.63 3.43 10.81 10.81 0 0 1 2.43 5.55 13.56 13.56 0 0 1-.33 5.32 36.62 36.62 0 0 1-14.5 21 44.64 44.64 0 0 1-25.94 7.81Zm25-16.24a32.29 32.29 0 0 0-9.5-6.08 41.73 41.73 0 0 0-31.4.15 31.83 31.83 0 0 0-9.11 5.91 31.79 31.79 0 0 0 3.18 2.59 40.06 40.06 0 0 0 43.63 0 30.81 30.81 0 0 0 3.19-2.59Z" transform="translate(-48 -105)"/></g></svg>