<svg xmlns="http://www.w3.org/2000/svg" class="icon" viewBox="0 0 1024 1024"><path fill="#02A7E0" d="M1019.83 176.274c-4.241-4.169-8.484-4.169-12.726-4.169-12.8 4.242-165.742 259.145-497.152 250.66-55.223 0-114.761-4.242-169.984-21.21l-25.38-89.235s-4.243-21.211-25.527-34.011c-16.97-8.485-25.454-8.485-29.696-4.243v4.243l12.726 101.96C106.277 308.079 21.285 176.348 12.8 172.106c-4.242 0-8.485 0-12.727 4.242v12.727A519.314 519.314 0 0 0 280.503 499.2l38.254 242.25c4.242 68.022 50.98 110.445 110.445 110.445h182.711c59.465 0 106.204-42.423 110.446-110.446l34.011-199.68v-4.242s-16.969 0-50.98 21.211c-34.012 25.527-42.423 59.465-42.423 59.465s-34.012 84.992-42.57 119.004c-8.484 38.254-50.98 34.011-50.98 34.011H467.456c-16.97 0-34.011-12.8-34.011-29.769l-59.466-212.48c42.423 12.8 89.235 17.042 140.215 17.042 237.934 0 437.614-144.457 509.88-356.937-4.243 0-4.243-8.484-4.243-12.727"/></svg>