<?xml version="1.0" encoding="UTF-8"?>
<svg id="logosandtypes_com" data-name="logosandtypes com" xmlns="http://www.w3.org/2000/svg" viewBox="0 0 150 150">
  <defs>
    <style>
      .cls-1 {
        fill: #3ea448;
      }

      .cls-2 {
        fill: none;
      }
    </style>
  </defs>
  <path class="cls-2" d="M0,0H150V150H0V0Z"/>
  <path class="cls-1" d="M52.57,80.44c10.46-19.25,24.23-33.83,36.74-40.59l-12.57-19.79c-.99-1.55-2.57-1.55-3.5,0L4.47,128.46c-.99,1.55-.16,2.01,1.63,2.01H38.91c-.51-14.01,3.69-31.77,13.66-50.03Z"/>
  <path class="cls-1" d="M93.59,52.17c-6.74-3.69-21.29,9.97-32.49,30.54-11.18,20.54-14.79,40.19-8.05,43.91,4.89,2.65,13.13-4.33,21.93-15.8v-26.26c0-2.73,1.71-4.23,3-1.85l7.33,13.85c.11-.16,.16-.29,.27-.45,11.2-20.56,14.79-40.22,8.02-43.93Z"/>
  <path class="cls-1" d="M145.58,128.46l-27.76-43.77c-2.41,8.24-5.96,16.95-10.67,25.59-2.46,4.49-5.08,8.72-7.83,12.7l5.24,7.49h39.39c1.79,0,2.62-.45,1.63-2.01Z"/>
</svg>