<svg xmlns="http://www.w3.org/2000/svg" fill="none" class="hidden-seo-lg hidden-seo-md" viewBox="0 0 42 32"><path fill="#3EA448" d="M15.053 17.166C17.968 11.796 21.81 7.73 25.3 5.844L21.795.324c-.276-.432-.716-.432-.977 0L1.635 30.561c-.276.433-.045.56.455.56h9.151c-.141-3.909 1.03-8.86 3.812-13.955Z"/><path fill="#3EA448" d="M26.494 9.281c-1.879-1.03-5.936 2.782-9.062 8.518-3.117 5.728-4.124 11.21-2.245 12.247 1.365.738 3.662-1.209 6.116-4.408v-7.325c0-.76.478-1.178.836-.514l2.043 3.863c.03-.044.045-.082.075-.127 3.125-5.735 4.124-11.217 2.237-12.254ZM40.993 30.561l-7.742-12.21c-.671 2.298-1.663 4.73-2.976 7.138a40.054 40.054 0 0 1-2.185 3.543l1.462 2.089h10.986c.5 0 .731-.127.455-.56Z"/></svg>