<svg xmlns="http://www.w3.org/2000/svg" xml:space="preserve" id="Layer_1" x="0" y="0" style="enable-background:new 0 0 280.6 100" version="1.1" viewBox="0 0 280.6 100"><style>.st0{enable-background:new}.st1{fill:#fff}.st2,.st3{fill:#3f4257}.st3{fill-rule:evenodd;clip-rule:evenodd}.st5{fill:#ea4335}.st7{fill:#4285f4}</style><g class="st0"><path d="M114.5 57.9h-6.3L97.9 46.2h-7.2v11.7h-5.4V24.1h15.8c7.8 0 12 5.4 12 11 0 4.8-2.5 9.5-9.2 10.5L114 57l.5.9zM90.7 29.1v12.2H101c4.5 0 6.5-2.8 6.5-6 0-3-2-6.2-6.4-6.2H90.7zM124.5 57.9h5.4V24.2l-11.2 3.5v4.7l5.8-1.6zM139.7 38.1c0-19.6 28.4-19.5 28.4 0V44c0 19.5-28.4 19.6-28.4 0v-5.9zm5.5 5.9c0 12.8 17.5 12.8 17.5 0v-5.9c0-12.6-17.5-12.8-17.5 0V44z" class="st1"/></g><g class="st0"><path d="m188.8 24.2 22.8 27.9V24.2h2.6V58h-1l-22.9-28v27.9h-2.6V24.2h1.1zM226.3 39.7h19.8v2.4h-19.8v13.3h21.4v2.5h-24V24.2h23.4v2.5h-20.8v13zM263.3 26.5h-12.2v-2.3h27.1v2.3H266v31.4h-2.6V26.5z" class="st1"/></g><g id="Group_174_3_" transform="translate(-5071.999 -1624)"><path d="M5106.8 1722c-5.8 0-11.4-1.2-16.4-3.6-4.9-2.3-9.1-5.7-12-9.8-5-7.1-6.1-16-3-25v-.1c7.8-22.5 13-25.7 18.7-27.4l.5-.1v.2l.8-.1c.5 0 .9-.1 1.4-.1.6 0 1.2 0 1.8.1l.8.1.4.1c1.9.3 3.8.8 5.7 1.5.4.1.9.2 1.3.2 5.2 0 12.8-10.1 18.8-28.9-.3 1.7-1.1 6.5-1.4 8.1-1.2 6.5-2.3 12.7-3.2 17.7l-.1.5.5.2c2.8 1.2 5 3.8 6.5 7.6l.1.3.3.1c5.2 1.9 9.3 4.6 12.1 8 2.5 3 4.2 6.5 4.8 10.5.9 5.3 0 11.6-2.5 17.6-2.2 5.2-5.3 9.8-8.5 12.3-8.2 6.6-17.6 10-27.4 10zm-12.6-86.3.5 2.5-.2 16.8-.3-19.3zm5 18.7c-.2-8.7 5.1-17.6 12.8-21.7-.7.9-1.4 1.8-2 2.7-6.2 3.6-9.7 9.9-10.8 19z" class="st1"/><path d="M5128.3 1663.1c-1.7-4.1-4-6.7-6.9-8 1.5-8.3 3.6-20 5.7-31.1-.4 1.7-1.1 3.4-1.7 5-1.7 9.3-4.2 20.4-5.5 27.4 3.2 1.5 5.6 4.2 6.9 7.6 27.3 9.9 16.5 38.3 6.9 46.1-28 22.7-67.7 4-57.3-26.9 6.8-20.3 12.9-24.2 18.7-26 2.6-.5 6.9.4 9.2.9 1.4.4 2.2.5 2.5.5 8 .5 15.6-18.5 18.5-29.8-2.1 5.3-11.8 30.7-19.9 28.3-1.9-.7-3.8-1.2-5.8-1.6.8-8.8 4-15.8 10.7-19.6 1.2-1.8 2.7-3.6 4.2-5.1-9.9 3.5-16.8 14.4-16.1 24.6-1.1-.1-2.2-.1-3.3 0l.2-17.2-2.1-9.6.5 26.8c-6.3 1.9-11.6 5.9-19.1 27.8-7.8 22.6 10.4 39.4 32.1 39.4 9.2 0 19-3.1 27.7-10 10.2-8 22.7-38.9-6.1-49.5z" class="st1"/><path d="M5114.7 1630.8z" class="st2"/><g id="Group_1_3_" transform="translate(5072 1624)"><path id="Path_839_2_" d="M33.1 41.9c1.8-4.6 5.7-7.7 10.2-7.7 6.2 0 11.3 6.1 11.3 13.6s-5.1 13.6-11.3 13.6c-4.5 0-8.4-3.2-10.2-7.8.1-.2.2-.3.3-.5 1.7 4.2 5.2 7.2 9.4 7.2 5.7 0 10.4-5.6 10.4-12.4s-4.6-12.4-10.4-12.4c-4.1 0-7.7 2.9-9.4 7.1-.1-.4-.2-.5-.3-.7zm-8-5.5c2.9 0 5.5 1.9 7.1 4.8-1.2-2.3-3.6-3.7-6.2-3.8-4.4 0-7.9 4.6-7.9 10.3S22.5 58 26 58s4.7-1.9 6.1-4.2c-1.6 2.8-3.2 5.1-7 5.1s-8.7-5-8.7-11.2c0-6.2 3.9-11.3 8.7-11.3z" class="st3"/><path id="Path_840_2_" d="M27.8 45.5c.9 0 1.6-.7 1.6-1.5 0-.9-.7-1.6-1.5-1.6-.9 0-1.6.7-1.6 1.5 0 .9.7 1.5 1.5 1.6z" class="st3"/><path id="Path_842_2_" d="M46.9 46.4c.9 0 1.6-.6 1.6-1.5s-.6-1.6-1.5-1.6-1.6.6-1.6 1.5v.1c0 .8.7 1.5 1.5 1.5z" class="st3"/><path id="Path_843_2_" d="m26.1 62.8.6.1-2.3 23.4-.6-.1 2.3-23.4z" class="st3"/><path id="Path_844_2_" d="M38.6 65.3h.6l1.5 23.5h-.6l-1.5-23.5z" class="st3"/><path id="Path_845_2_" d="m51.6 64.2.5-.1 3.1 19.7-.6.2-3-19.8z" class="st3"/><path d="M8.1 57.5zM8.1 57.5c-4.3 39.6 64.1 47.3 56.7-.1l-.9.6c-.3.2-.6.5-1 .7-.9.6-2.2 1.2-3.8 1.9-17.7 6.3-41.9 1.6-51-3.1m1.2 1.4c7.6 7 37.3 10.1 53 2.1 0 0 .3-.1.5-.3 4.5 41.2-57 33.7-53.5-1.8z" class="st2"/></g></g><circle cx="177.1" cy="53.6" r="4" class="st1"/><path id="Forma_1_3_" d="M153 74.7c-1 0-2.1.3-2.9 1-.7.6-1.3 1.3-1.7 2-.4-.8-1-1.5-1.7-2-.8-.7-1.8-1-2.9-1-2.9 0-5.2 2.4-5.2 5.6 0 3.5 2.8 5.8 7 9.4.7.6 1.5 1.3 2.4 2 .2.2.6.2.8 0 .8-.7 1.6-1.4 2.4-2 4.2-3.6 7-6 7-9.4-.1-3.2-2.3-5.6-5.2-5.6z" style="fill-rule:evenodd;clip-rule:evenodd;fill:#ea4335"/><path d="m86.6 71.9 5.2 15.7 5.3-15.7h1.5l5.3 15.7 5.2-15.7h2.7l-6.6 19h-2.4l-4.9-14.2L93 90.9h-2.4l-6.6-19h2.6zM125.1 88.7c-1.4 1.6-3.7 2.4-5.8 2.4-4.1 0-7-2.7-7-7 0-4 2.9-6.9 6.9-6.9 4.1 0 7.2 2.5 6.7 7.9h-11.4c.2 2.5 2.3 4 4.9 4 1.5 0 3.4-.6 4.3-1.7l1.4 1.3zm-1.3-5.5c-.1-2.6-1.9-4-4.5-4-2.3 0-4.4 1.4-4.7 4h9.2z" class="st1"/><path d="M214.6 84.2c0 4.8-3.7 8.3-8.3 8.3S198 89 198 84.2c0-4.8 3.7-8.3 8.3-8.3s8.3 3.5 8.3 8.3zm-3.6 0c0-3-2.2-5-4.7-5s-4.7 2-4.7 5 2.2 5 4.7 5 4.7-2 4.7-5z" class="st5"/><path d="M232.6 84.2c0 4.8-3.7 8.3-8.3 8.3S216 89 216 84.2c0-4.8 3.7-8.3 8.3-8.3s8.3 3.5 8.3 8.3zm-3.6 0c0-3-2.2-5-4.7-5s-4.7 2-4.7 5 2.2 5 4.7 5 4.7-2 4.7-5z" style="fill:#fbbc05"/><path d="M249.9 76.4v14.9c0 6.1-3.6 8.7-7.9 8.7-4 0-6.5-2.7-7.4-4.9l3.2-1.3c.6 1.4 2 3 4.2 3 2.7 0 4.4-1.7 4.4-4.9v-1.2h-.1c-.8 1-2.4 1.9-4.4 1.9-4.2 0-8-3.6-8-8.3 0-4.7 3.8-8.3 8-8.3 2 0 3.6.9 4.4 1.9h.1v-1.4l3.5-.1zm-3.2 7.9c0-2.9-2-5.1-4.4-5.1-2.5 0-4.6 2.1-4.6 5.1 0 2.9 2.1 5 4.6 5 2.4 0 4.4-2.1 4.4-5z" class="st7"/><path d="M255.6 67.7V92H252V67.7h3.6z" style="fill:#34a853"/><path d="m269.5 87 2.8 1.9c-.9 1.4-3.1 3.7-6.9 3.7-4.7 0-8.3-3.7-8.3-8.3 0-4.9 3.6-8.3 7.8-8.3 4.3 0 6.4 3.4 7.1 5.3l.4.9-11.1 4.6c.9 1.7 2.2 2.5 4 2.5 2 0 3.3-.9 4.2-2.3zm-8.7-3 7.4-3.1c-.4-1-1.6-1.8-3.1-1.8-1.8 0-4.4 1.7-4.3 4.9z" class="st5"/><path d="M184.5 82.1v-3.5h11.9c.1.6.2 1.3.2 2.1 0 2.6-.7 5.9-3.1 8.3-2.3 2.4-5.2 3.6-9 3.6-7.1 0-13.1-5.8-13.1-12.9 0-7.1 6-12.9 13.1-12.9 3.9 0 6.7 1.5 8.9 3.6l-2.5 2.5c-1.5-1.4-3.6-2.5-6.4-2.5-5.2 0-9.3 4.2-9.3 9.4s4.1 9.4 9.3 9.4c3.4 0 5.3-1.4 6.5-2.6 1-1 1.7-2.4 1.9-4.4l-8.4-.1z" class="st7"/></svg>