<?xml version="1.0" encoding="utf-8"?>
<!DOCTYPE svg PUBLIC "-//W3C//DTD SVG 1.0//EN" "http://www.w3.org/TR/2001/REC-SVG-20010904/DTD/svg10.dtd">
<svg version="1.0" xmlns="http://www.w3.org/2000/svg" width="180px" height="180px" viewBox="0 0 180 180" preserveAspectRatio="xMidYMid meet">
 <g fill="#1583b6">
  <path d="M0 90 l0 -90 90 0 90 0 0 54.50 0 54.50 -1.45 0 c-0.80 0 -2.10 -0.50 -2.90 -1.15 -0.75 -0.65 -6.90 -4.85 -13.65 -9.35 -16.85 -11.25 -16.80 -11.20 -20.90 -15.40 -3.25 -3.20 -10.50 -8.60 -11.65 -8.60 -0.20 0 -1.70 -0.75 -3.30 -1.70 -1.65 -0.95 -3.50 -1.85 -4.20 -2.05 -0.90 -0.20 -1.60 -1.15 -2.70 -3.40 -1 -2.10 -1.55 -2.80 -1.65 -2.20 -0.15 0.80 -0.50 0.90 -2 0.70 -4.10 -0.60 -5.40 -1 -6.40 -1.90 -1.70 -1.55 -7.75 -3.90 -10.05 -3.95 -1.15 0 -2.20 -0.20 -2.35 -0.45 -0.20 -0.25 -1.20 -0.60 -2.30 -0.80 -1.10 -0.20 -2 -0.50 -2 -0.70 0 -0.20 -0.80 -0.25 -1.80 -0.15 -1.05 0.15 -1.95 0 -2.15 -0.35 -0.65 -1.05 -6.15 -1.70 -11.50 -1.35 -2.90 0.15 -5.35 0.45 -5.50 0.70 -0.40 0.45 -4.75 1.70 -7.15 2 -1.65 0.20 -1.90 0.05 -1.90 -0.80 0 -0.90 -0.20 -1 -1.50 -0.60 -3 0.85 -7.55 3.70 -10.50 6.60 -4.60 4.45 -8.65 11.15 -13.45 22 -5.95 13.50 -9.75 25.15 -10.50 32.05 -0.90 8.25 1.45 18.25 6.20 26.35 2.70 4.55 8.75 11.30 13.25 14.70 4.05 3.10 11.20 7 15.50 8.50 4.20 1.50 5.60 2.30 11.75 6.45 3.70 2.55 4.25 3.15 4.25 4.40 l0 1.45 -38.75 0 -38.75 0 0 -90z"/>
 </g>
 <g fill="#fdfdfe">
  <path d="M74 169.95 c-23.80 -3.05 -41.15 -16.90 -46.10 -36.80 -0.90 -3.60 -1.10 -5.80 -1.05 -12.15 0 -9.10 0.70 -12.80 4 -22 6.35 -17.65 11.85 -27.70 18.75 -34.30 3.70 -3.60 6.25 -5.25 9.85 -6.50 1.45 -0.55 2.85 -1.35 3.10 -1.85 0.65 -1.15 1.45 -1.10 1.45 0.10 0 1 0.05 1 2.75 0.05 1.50 -0.50 2.75 -0.80 2.80 -0.60 0.05 0.20 0.20 -0.20 0.40 -0.90 0.35 -1.30 2.05 -2.05 2.05 -0.90 0 0.55 1.10 0.65 5.90 0.50 5.85 -0.20 11.50 0.45 12.10 1.40 0.20 0.30 0.70 0.10 1.25 -0.50 0.50 -0.55 1.40 -1 2 -1 0.90 0 1.05 0.25 0.90 1.20 -0.20 1 0 1.20 1.70 1.55 1.05 0.20 2.15 0.55 2.40 0.75 0.30 0.25 2.05 0.80 3.95 1.20 1.90 0.45 4.85 1.60 6.60 2.50 1.70 0.95 3.25 1.60 3.35 1.50 0.15 -0.15 1.05 0.10 2.05 0.50 2.10 0.85 2.25 0.60 0.70 -1.10 l-1.15 -1.20 1.95 0.80 c2.65 1.10 2.95 1.40 4.25 4.25 1.10 2.25 1.45 2.55 4.50 3.75 5.50 2.15 11.45 6.15 16.10 10.75 8.05 8.05 11.30 17.30 10.80 30.80 -0.65 17.40 -8.40 33.70 -20.35 42.70 -11.35 8.55 -24.25 13.90 -37.25 15.50 -5.10 0.60 -14.90 0.65 -19.75 0z m62.35 -53 c0.30 -5.10 -0.20 -12.45 -0.80 -12.45 -0.20 0 -0.35 3.65 -0.35 8.15 0.05 4.45 -0.10 9.35 -0.30 10.85 l-0.35 2.75 0.75 -2.25 c0.45 -1.25 0.90 -4.40 1.05 -7.05z m-49.70 -3.30 c-1.20 -0.10 -3.10 -0.10 -4.25 0 -1.20 0.10 -0.25 0.20 2.10 0.20 2.35 0 3.30 -0.10 2.15 -0.20z m-8 -0.50 c-0.65 -0.10 -1.65 -0.10 -2.25 0 -0.65 0.10 -0.15 0.20 1.10 0.20 1.25 0 1.75 -0.10 1.15 -0.20z m-4.75 -0.50 c-0.80 -0.10 -2 -0.10 -2.75 0 -0.80 0.10 -0.15 0.20 1.35 0.20 1.50 0 2.15 -0.10 1.40 -0.20z"/>
 </g>
 <g fill="#0a425b">
  <path d="M76 179.30 c0 -0.40 -1.85 -1.95 -4.10 -3.50 -6.10 -4.15 -6.60 -4.55 -6.25 -5.50 0.40 -1 2.70 -1.05 8.35 -0.05 8.20 1.45 20.85 0.70 28.85 -1.70 6.10 -1.85 14.70 -5.65 18.95 -8.40 1.40 -0.90 2.80 -1.65 3.15 -1.65 0.30 0 0.55 -0.20 0.55 -0.40 0 -0.20 1.70 -1.60 3.75 -3.10 2.05 -1.50 3.75 -2.95 3.75 -3.25 0 -0.25 1.25 -1.70 2.75 -3.20 1.50 -1.45 2.75 -2.85 2.75 -3.10 0 -0.20 0.30 -0.60 0.65 -0.80 0.65 -0.40 1.15 -1.20 3.55 -5.65 0.80 -1.50 1.65 -2.85 1.85 -3 0.55 -0.40 2.25 -5 2.65 -7.10 0.20 -1.05 0.55 -1.90 0.80 -1.90 0.30 0 0.50 -0.45 0.50 -1 0 -0.55 0.45 -2.65 1 -4.65 1.30 -4.65 1.80 -13.90 1.05 -18.85 -0.65 -4.25 -1.55 -7.50 -2.05 -7.50 -0.55 0 -3.05 -5.45 -3.35 -7.30 -0.20 -1.25 -0.55 -1.70 -1.20 -1.70 -0.75 0 -0.95 -0.35 -0.95 -1.75 0 -2.05 0.30 -2.15 1.50 -0.60 0.50 0.65 2.35 2.15 4.10 3.35 5.60 3.85 28.45 19.20 29.95 20.15 l1.45 0.95 0 35.95 0 35.95 -52 0 c-44.35 0 -52 -0.10 -52 -0.70z"/>
 </g>
 <g fill="#222120">
  <path d="M79 172.50 c-2.60 -0.20 -6.15 -0.65 -7.90 -0.95 -2.35 -0.45 -3.35 -0.45 -3.85 -0.05 -0.50 0.40 -1.05 0.35 -2.20 -0.20 -0.85 -0.45 -3.15 -1.40 -5.15 -2.10 -4.20 -1.50 -11.45 -5.50 -15.40 -8.50 -4.50 -3.40 -10.55 -10.15 -13.25 -14.70 -5 -8.55 -7.35 -19.30 -6.30 -28.75 1.35 -11.80 10.60 -35.55 18.85 -48.35 3.90 -6.10 11.10 -11.85 16.30 -13.10 l1.40 -0.30 -0.25 -16.65 c-0.15 -9.10 -0.35 -19.40 -0.50 -22.85 -0.10 -3.55 -0.05 -5.95 0.20 -5.50 0.25 0.40 1.05 3.70 1.75 7.25 1.30 6.40 1.35 6.75 1.20 23.70 l-0.15 17.15 -2.75 1.05 c-7.60 2.80 -14.20 9.65 -20.05 20.60 -4.40 8.35 -10.20 23.40 -11.70 30.50 -1.30 5.95 -1.20 15.30 0.15 20.90 4.50 18.20 19.60 31.55 40.65 35.85 20.40 4.15 41.45 -1 59.45 -14.55 14.40 -10.85 23.20 -34.10 19.55 -51.70 -1.60 -7.70 -4.60 -13.40 -10 -18.80 -4.65 -4.60 -10.60 -8.60 -16.05 -10.75 -3.10 -1.20 -3.45 -1.50 -4.60 -3.85 -1.55 -3.20 -5.25 -7.35 -8.35 -9.45 -1.25 -0.85 -2.35 -1.60 -2.45 -1.65 -0.15 -0.15 2.60 -13.65 3.60 -17.65 1.35 -5.35 5.85 -27.70 5.65 -28.25 -0.10 -0.30 -0.70 0.90 -1.30 2.70 -0.65 1.75 -1.55 4.10 -2.05 5.20 -0.45 1.10 -1.60 3.90 -2.55 6.25 -0.95 2.35 -3.50 7.85 -5.75 12.25 -5.95 11.80 -9.90 17.55 -14.35 20.85 -4.05 3.05 -8.85 3.80 -8.85 1.40 0 -0.85 0.35 -1 2 -1 4.10 0 8.55 -3.50 13.90 -10.95 5.05 -6.95 12.35 -21.75 17.65 -35.65 0.90 -2.40 1.85 -4.20 2.05 -4.10 0.20 0.15 0.40 -0.10 0.40 -0.50 0 -0.40 0.25 -0.90 0.55 -1.10 0.40 -0.20 0.45 0.15 0.30 1.10 -0.20 0.80 -0.80 4.05 -1.35 7.20 -0.60 3.15 -1.60 8.65 -2.25 12.25 -0.70 3.60 -2.05 10.80 -3 16 -1 5.25 -1.90 10 -2 10.60 -0.20 0.90 0.30 1.45 2.65 3.05 3.35 2.30 6 5.55 7.95 9.65 1 2.10 1.70 3 2.60 3.20 0.70 0.20 2.55 1.10 4.20 2.05 1.60 0.95 3.10 1.70 3.30 1.70 1.60 0 12.75 8.75 13.30 10.45 0.15 0.50 0.75 1.15 1.40 1.50 0.60 0.30 1.15 1.10 1.15 1.75 0.10 1.25 2.65 6.80 3.20 6.80 0.50 0 1.40 3 1.75 6 0.20 1.50 0.55 2.85 0.70 3 0.20 0.15 0.20 3.85 0 8.20 -0.20 4.40 -0.25 8.25 -0.10 8.65 0.15 0.35 0 0.65 -0.35 0.65 -0.35 0 -0.50 0.40 -0.35 1 0.15 0.55 0.05 1 -0.25 1 -0.25 0 -0.30 0.45 -0.15 1 0.20 0.55 0.10 1 -0.20 1 -0.30 0 -0.40 0.35 -0.25 0.75 0.20 0.40 0.10 0.75 -0.20 0.75 -0.30 0 -0.40 0.40 -0.25 0.95 0.10 0.50 -0.15 1.25 -0.60 1.70 -0.45 0.45 -0.65 1.05 -0.50 1.35 0.15 0.25 0.10 0.50 -0.20 0.50 -0.30 0 -0.40 0.35 -0.25 0.75 0.20 0.40 0.10 1.05 -0.15 1.40 -0.30 0.30 -0.90 1.65 -1.40 3 -0.50 1.30 -1.10 2.35 -1.35 2.35 -0.25 0 -0.30 0.25 -0.15 0.50 0.15 0.30 0.05 0.50 -0.25 0.50 -0.30 0 -0.40 0.25 -0.25 0.50 0.15 0.30 0.05 0.50 -0.25 0.50 -0.30 0 -0.40 0.25 -0.25 0.50 0.15 0.30 0.05 0.50 -0.25 0.50 -0.30 0 -0.40 0.25 -0.25 0.50 0.15 0.30 0.05 0.50 -0.25 0.50 -0.30 0 -0.45 0.20 -0.30 0.45 0.15 0.25 -0.05 0.60 -0.50 0.75 -0.40 0.15 -0.65 0.50 -0.50 0.75 0.15 0.25 -0.05 0.60 -0.50 0.75 -0.40 0.15 -0.65 0.50 -0.45 0.75 0.15 0.30 -0.20 0.75 -0.75 1.05 -0.55 0.30 -0.95 0.70 -0.85 0.90 0.05 0.20 -0.95 1.35 -2.25 2.55 -1.30 1.20 -2.25 2.35 -2.10 2.60 0.15 0.25 -0.10 0.45 -0.55 0.45 -0.45 0 -0.70 0.20 -0.55 0.45 0.15 0.25 -1.50 1.75 -3.70 3.35 -2.20 1.60 -4 3.10 -4 3.30 0 0.20 -0.25 0.40 -0.55 0.40 -0.35 0 -1.75 0.75 -3.15 1.65 -6 3.90 -20.60 9.65 -25.55 10.10 -1.65 0.10 -9.45 0.75 -12.25 0.95 -0.95 0.05 -3.90 -0.05 -6.50 -0.20z"/>
  <path d="M85.25 158 c-14.40 -1.85 -28.75 -9.45 -37.05 -19.60 -7.40 -9 -11.20 -19.95 -11.20 -32.15 0 -2.30 0.20 -4.30 0.45 -4.45 0.20 -0.15 2.30 0.50 4.60 1.45 5.60 2.25 11.70 4 19.65 5.55 3.60 0.70 7.35 1.45 8.30 1.70 6.55 1.60 34.80 2.30 44.50 1.10 8.55 -1.05 9.80 -1.15 9 -0.70 -0.40 0.25 -2.30 0.85 -4.25 1.35 -1.90 0.50 -3.65 1.05 -3.85 1.20 -0.45 0.40 3.40 27.35 4.50 31.75 l0.40 1.40 3.35 -3.55 c3.40 -3.60 6.35 -8.70 8.05 -13.85 1.95 -6 2.70 -15 1.85 -21.95 -0.25 -1.65 -0.30 -3.25 -0.20 -3.55 0.35 -0.95 3.20 -2.35 3.75 -1.80 0.30 0.30 0.65 4.35 0.80 9.45 0.20 8.50 0.15 9.20 -1.10 14.10 -5.30 20.55 -20 32.10 -41.80 32.80 -3.45 0.10 -7.80 0 -9.75 -0.25z m8.05 -8.10 c-0.20 -3.40 -0.80 -12.20 -1.35 -19.65 -0.50 -7.40 -0.95 -13.75 -0.95 -14.05 0 -0.50 -8.35 -1.10 -19 -1.40 l-2.25 -0.05 -0.60 5.75 c-1.05 9.70 -2.65 26.65 -2.65 28.15 0 1.25 0.35 1.55 3.15 2.80 5.30 2.45 14.30 4.35 20.80 4.50 l3.20 0.05 -0.35 -6.10z m8.60 5 c5.70 -1.05 14.80 -4.95 16.55 -7.05 0.45 -0.55 0.35 -2.30 -0.40 -7.40 -2.10 -14.20 -4.05 -26.05 -4.35 -26.50 -0.15 -0.30 -0.60 -0.40 -0.95 -0.25 -1.35 0.50 -9.10 1.40 -14.75 1.75 l-5.75 0.30 0.10 2 c0.70 12.25 2.25 36.25 2.45 37.15 0.25 1.20 0.85 1.20 7.10 0z m-36.70 -6.75 c0.10 -0.50 0.60 -4.70 1.05 -9.40 0.40 -4.65 1 -10.30 1.25 -12.50 0.25 -2.20 0.60 -5.85 0.75 -8.10 l0.35 -4.10 -1.95 -0.30 c-4.05 -0.70 -14.05 -3.30 -17.25 -4.55 -1.85 -0.70 -4.75 -2.15 -6.50 -3.20 l-3.15 -1.90 -0.15 5.35 c-0.25 8.50 1.80 15.60 6.60 23 3.85 6 10.10 12 15.90 15.30 2.55 1.50 2.75 1.50 3.10 0.40z"/>
  <path d="M93.40 108.85 c-5 -1.90 -10 -6.35 -12.30 -11 -1.75 -3.50 -1.05 -4 0.85 -0.65 2 3.55 5.40 6.95 8.75 8.70 2.25 1.20 3.10 1.35 7.30 1.35 5.45 0 7.75 -0.85 11.65 -4.30 12.20 -10.75 10 -33.65 -3.90 -40.50 -8.65 -4.25 -18.45 -0.95 -23.65 8.05 -1.60 2.80 -1.55 2.75 -1.90 2.40 -0.65 -0.65 2.65 -5.90 5.55 -8.70 5.85 -5.70 13.25 -7.25 20.35 -4.25 6.10 2.60 10 6.85 12.75 13.90 1.25 3.10 1.35 4 1.35 10.15 0 6.20 -0.10 7.05 -1.35 10.25 -2.60 6.60 -5.90 10.50 -11.40 13.50 -2.35 1.30 -3.30 1.50 -7.45 1.60 -3.10 0.10 -5.40 -0.05 -6.60 -0.50z"/>
  <path d="M65.90 103.50 c-3 -0.50 -5.15 -1.80 -8.05 -4.95 -6.50 -6.90 -7.70 -17.50 -3 -26.15 2.95 -5.45 8.90 -8.95 13.85 -8.20 2.45 0.40 5.95 2.10 7.20 3.45 0.70 0.80 0.40 0.75 -1.75 -0.35 -7 -3.50 -14.40 0.05 -17.85 8.60 -0.50 1.35 -1 4.20 -1.15 6.60 -0.20 3.50 -0.05 4.80 0.85 7.45 3.10 9.15 10.35 13.85 17.30 11.20 0.60 -0.25 0.75 -0.15 0.45 0.30 -0.40 0.70 -4.20 2.55 -5 2.50 -0.25 -0.05 -1.55 -0.25 -2.85 -0.45z"/>
  <path d="M103.55 80.35 c-1.25 -2.40 0.85 -5 3.20 -3.95 2.40 1.10 1.65 4.75 -1.05 5 -1.15 0.10 -1.65 -0.10 -2.15 -1.05z"/>
  <path d="M70.30 79.20 c-1.60 -1.60 -0.50 -4.70 1.70 -4.70 2.25 0 3.30 3.10 1.60 4.65 -1.15 1.05 -2.30 1.10 -3.30 0.05z"/>
  <path d="M69.80 54.85 c-0.65 -5.95 1.70 -15.90 5.45 -22.70 4.05 -7.40 10.95 -14.25 17.80 -17.70 2.05 -1.05 3.75 -1.80 3.85 -1.70 0.10 0.10 -1.05 1.70 -2.60 3.55 -1.55 1.85 -2.80 3.55 -2.80 3.75 0 0.20 -1.40 1.35 -3.10 2.60 -4.45 3.20 -6.95 5.95 -9.90 10.80 -2.90 4.90 -4.65 10.05 -5.80 17.50 -1.05 6.60 -1 6.55 -1.85 6.55 -0.50 0 -0.80 -0.85 -1.05 -2.65z"/>
 </g>
</svg>
