<?xml version="1.0" encoding="utf-8"?>
<svg xmlns="http://www.w3.org/2000/svg" viewBox="1607.821 77.4338 255.9999 168.3038" width="256pt" height="168.304pt" preserveAspectRatio="none"><g style="" transform="matrix(0.3091410100460053, 0, 0, 0.2810179889202118, 1094.7597737815959, 243.8161028907902)" id="object-0"><path d="M 1701.81 -591.17 C 1682.41 -588.27 1666.21 -573.67 1661.21 -554.47 C 1659.11 -546.27 1659.11 -508.97 1661.21 -500.67 C 1664.81 -486.87 1675.01 -474.77 1688.41 -468.37 L 1696.21 -464.67 L 2071.21 -464.37 C 2443.91 -464.17 2446.21 -464.17 2452.81 -466.17 C 2469.21 -471.07 2481.81 -484.47 2486.21 -501.67 C 2488.01 -508.87 2488.31 -544.07 2486.61 -552.37 C 2482.51 -572.07 2465.21 -588.27 2445.21 -591.17 C 2436.81 -592.37 1710.11 -592.37 1701.81 -591.17 Z" stroke="none" style="stroke-width: 0.1; fill: rgb(64, 183, 255);"/><path d="M 1712.11 -387.17 C 1689.21 -381.17 1671.71 -364.57 1663.91 -341.67 L 1661.21 -333.67 L 1661.21 -293.67 C 1661.21 -249.17 1661.31 -248.07 1667.81 -234.67 C 1674.81 -220.07 1685.01 -209.67 1699.21 -202.77 C 1714.61 -195.17 1704.61 -195.67 1843.71 -195.67 C 1983.61 -195.67 1973.11 -195.07 1989.51 -203.27 C 2005.11 -211.17 2017.41 -225.47 2023.31 -242.67 C 2025.61 -249.37 2026.11 -252.87 2026.51 -263.97 L 2026.91 -277.17 L 2034.71 -284.57 C 2062.31 -310.47 2082.41 -310.07 2109.01 -283.07 L 2117.71 -274.17 L 2117.71 -264.87 C 2117.81 -244.77 2123.81 -229.97 2137.71 -216.07 C 2144.51 -209.17 2147.91 -206.67 2154.71 -203.37 C 2171.51 -195.07 2160.71 -195.67 2300.71 -195.67 C 2439.81 -195.67 2429.81 -195.17 2445.21 -202.77 C 2459.41 -209.67 2469.61 -220.07 2476.61 -234.67 C 2483.11 -248.07 2483.21 -249.17 2483.21 -293.67 L 2483.21 -333.67 L 2480.51 -341.67 C 2474.11 -360.47 2462.01 -374.27 2444.31 -382.77 C 2430.31 -389.57 2436.81 -389.27 2297.21 -388.97 L 2171.21 -388.67 L 2163.91 -385.97 C 2149.41 -380.67 2137.31 -371.27 2129.11 -358.97 C 2124.01 -351.27 2119.21 -338.87 2118.11 -330.47 C 2117.81 -327.57 2117.41 -325.17 2117.21 -325.17 C 2117.11 -325.17 2114.41 -326.77 2111.21 -328.67 C 2096.71 -337.37 2083.71 -340.67 2067.31 -339.97 C 2055.51 -339.37 2045.01 -336.27 2034.31 -330.07 C 2030.51 -327.97 2027.31 -326.27 2027.21 -326.37 C 2027.11 -326.57 2026.31 -330.27 2025.41 -334.67 C 2024.41 -339.47 2021.91 -346.47 2019.11 -352.07 C 2011.41 -367.67 1997.11 -380.17 1979.71 -386.37 L 1973.21 -388.67 L 1846.21 -388.87 C 1724.81 -389.07 1718.91 -388.97 1712.11 -387.17 Z" stroke="none" style="stroke-width: 0.1; fill: rgb(255, 255, 255);"/><path d="M 1697.51 -119.57 C 1680.31 -115.47 1665.81 -101.07 1661.21 -83.672 C 1659.11 -75.572 1659.11 -38.072 1661.21 -30.272 C 1664.61 -17.372 1674.21 -4.872 1685.31 1.028 C 1696.91 7.328 1666.21 6.828 2073.71 6.828 C 2326.41 6.828 2446.61 6.428 2449.71 5.728 C 2463.01 2.728 2475.91 -7.772 2482.21 -20.472 C 2487.01 -30.172 2487.71 -35.272 2487.71 -57.572 C 2487.71 -85.672 2485.11 -93.972 2472.81 -106.27 C 2465.41 -113.67 2456.71 -118.37 2447.31 -120.07 C 2443.11 -120.87 2333.41 -121.17 2072.31 -121.07 C 1761.01 -120.97 1702.31 -120.77 1697.51 -119.57 Z" stroke="none" style="stroke-width: 0.1; fill: rgb(64, 183, 255);"/></g></svg>