<svg xmlns="http://www.w3.org/2000/svg" xmlns:xlink="http://www.w3.org/1999/xlink" viewBox="0 0 24 24"><defs><path id="a" d="M12 0c6.627 0 12 5.373 12 12v12H12C5.373 24 0 18.627 0 12S5.373 0 12 0z"/><path id="c" d="M0 24V12l.004-.305C.166 5.209 5.474 0 12 0c6.627 0 12 5.373 12 12s-5.373 12-12 12H0z"/></defs><g fill="none" fill-rule="evenodd"><path fill="#0b7ed0" d="M17.657 4.843a8 8 0 0 1-.32 11.616L12 21.5l-5.337-5.04A8 8 0 1 1 17.657 4.843z"/><g transform="matrix(.5 0 0 .5 0 9.5)"><mask id="b" fill="#fff"><use xlink:href="#a" width="100%" height="100%"/></mask><use xlink:href="#a" width="100%" height="100%" fill="#2cd4ed"/><path fill="#0db4e2" d="M35.314-9.314c6.248 6.249 6.248 16.38 0 22.627-.209.21-.422.411-.64.606l-10.673 10.08-10.674-10.08c-.218-.195-.43-.397-.64-.606-6.248-6.248-6.248-16.379 0-22.627 6.249-6.248 16.38-6.248 22.627 0z" mask="url(#b)"/></g><g transform="matrix(.5 0 0 .5 12 9.5)"><mask id="d" fill="#fff"><use xlink:href="#c" width="100%" height="100%"/></mask><use xlink:href="#c" width="100%" height="100%" fill="#3169ff"/><path fill="#3153ff" d="M11.314-9.314c6.248 6.249 6.248 16.38 0 22.627-.209.21-.422.411-.64.606L.002 23.999l-10.674-10.08c-.218-.195-.43-.397-.64-.606-6.248-6.248-6.248-16.379 0-22.627 6.249-6.248 16.38-6.248 22.627 0z" mask="url(#d)"/></g></g></svg>