<svg width="343" height="358" xmlns="http://www.w3.org/2000/svg" xml:space="preserve" version="1.1">

 <g>
  <title>Layer 1</title>
  <rect id="svg_5" height="30" width="30.95238" y="151.73017" x="129.75477" fill="#ffffff"/>
  <rect id="svg_6" height="86.19048" width="53.80953" y="130.3016" x="166.42144" fill="#ffffff"/>
  <path id="svg_1" fill="#D64309" d="m171.3,102.6c0,0 -69,-2.1 -69,52.4c0,54.5 32.8,99.8 69,99.8c36.2,0 69,-45.4 69,-99.8c0,-54.5 -69,-52.4 -69,-52.4zm-16.7,68.5c-1.7,3.7 -5.1,5.6 -9.9,5.6c-4.9,0 -8.3,-1.9 -9.9,-5.6c-0.7,-1.5 -1,-3.2 -1,-5.4c0,-2.3 0.3,-3.9 1,-5.5c1.7,-3.7 5,-5.5 9.9,-5.5c4.8,0 8.2,1.8 9.9,5.5c0.7,1.6 1,3.2 1,5.5c0,2.2 -0.3,3.9 -1,5.4zm59.5,-19c-4.3,-0.6 -17.1,-0.7 -23.9,5.3c-3.4,3 -5.1,7.4 -5.1,13.3l0,40.2l-15.4,0l0,-40.2c0,-10.4 3.6,-19 10.4,-24.9c13.3,-11.6 33.7,-9.2 36,-8.9l-2,15.2z" class="st0"/>
 </g>
</svg>