<svg xmlns="http://www.w3.org/2000/svg" xml:space="preserve" style="enable-background:new 0 0 343 358" viewBox="0 0 343 358"><path d="M171.3 102.6s-69-2.1-69 52.4 32.8 99.8 69 99.8 69-45.4 69-99.8c0-54.5-69-52.4-69-52.4zm-16.7 68.5c-1.7 3.7-5.1 5.6-9.9 5.6-4.9 0-8.3-1.9-9.9-5.6-.7-1.5-1-3.2-1-5.4 0-2.3.3-3.9 1-5.5 1.7-3.7 5-5.5 9.9-5.5 4.8 0 8.2 1.8 9.9 5.5.7 1.6 1 3.2 1 5.5 0 2.2-.3 3.9-1 5.4zm59.5-19c-4.3-.6-17.1-.7-23.9 5.3-3.4 3-5.1 7.4-5.1 13.3v40.2h-15.4v-40.2c0-10.4 3.6-19 10.4-24.9 13.3-11.6 33.7-9.2 36-8.9l-2 15.2z" style="fill:#d64309"/></svg>