<svg xmlns="http://www.w3.org/2000/svg" xmlns:xlink="http://www.w3.org/1999/xlink" xml:space="preserve" width="97" height="111.4"><g transform="translate(-43.7 -36.7)"><defs><path id="a" d="M43.7 79.7h97v68.4h-97z"/></defs><clipPath id="b"><use xlink:href="#a" style="overflow:visible"/></clipPath><g style="clip-path:url(#b)"><defs><path id="c" d="M43.7 79.7h97v68.4h-97z"/></defs><clipPath id="d"><use xlink:href="#c" style="overflow:visible"/></clipPath><g style="clip-path:url(#d)"><path d="M-153 119.8c-8.2 0-15.6-2.6-15.6-8.4a68 68 0 0 1 15.2-31A78 78 0 0 1-129.5 61a86 86 0 0 1 40.9-9.5c5 0 9.2.4 14.6 1.1 1.6.2 2.6 1.8 2.5 3.8-.2 2.6-2.2 5.2-6.5 5.2q-25.2 0-39.2 12a50 50 0 0 0-11.6 15.5 86 86 0 0 0-6.9 22.4c-1.2 6.2-12.5 8.3-17.3 8.3" style="fill:#fff" transform="translate(212.3 28.3)"/><path d="M-134.8 47.2a87 87 0 0 1 40.7-9.4c5 0 9.2.4 14.5 1 1.6.2 2.5 1.8 2.4 3.9q-.2 1.6-1.1 2.8a7 7 0 0 1-5.4 2.3q-25.2-.1-39.1 12.1a49 49 0 0 0-11.6 15.5 86 86 0 0 0-6.9 22.3q-.2 1.2-.8 2.1c-2.9 4.6-12 6.3-16.3 6.3-8.2 0-15.6-2.6-15.6-8.4a77 77 0 0 1 39.2-50.5" style="fill:#fefefe" transform="translate(217.8 42)"/><path d="M-134.6 47.1a87 87 0 0 1 40.5-9.3c5 0 9.1.4 14.4 1.1 1.5.2 2.5 1.8 2.3 3.9a5 5 0 0 1-1.2 2.8 7 7 0 0 1-5.4 2.2c-16.9.1-29.6 4-39 12.1a49 49 0 0 0-11.6 15.5 86 86 0 0 0-6.9 22.3q-.2 1.2-.8 2.1c-2.9 4.6-11.8 6.3-16.2 6.3-8.2 0-15.6-2.6-15.6-8.4 0-1.9 3.4-16.9 15.4-31.2a78 78 0 0 1 24.1-19.4" style="fill:#fcfcfd" transform="translate(217.9 42)"/><path d="M-134.3 47A86 86 0 0 1-94 37.9c4.9 0 9.1.4 14.3 1 1.5.2 2.4 1.9 2.2 3.9q-.1 1.5-1.3 2.7a7 7 0 0 1-5.4 2.1q-25 0-38.9 12.2a49 49 0 0 0-11.6 15.5 82 82 0 0 0-6.9 22.3q-.2 1.2-.8 2.1c-2.8 4.6-11.7 6.3-16.1 6.4-8.2 0-15.6-2.6-15.6-8.4A77.5 77.5 0 0 1-134.3 47" style="fill:#f8fafb" transform="translate(218 42)"/><path d="M-134.1 47A87 87 0 0 1-94 38c4.9 0 9 .4 14.3 1 1.5.2 2.4 1.9 2 3.9q-.3 1.4-1.3 2.6a8 8 0 0 1-5.5 2.1q-25 .1-38.8 12.2a47 47 0 0 0-11.5 15.5 83 83 0 0 0-6.9 22.2q-.2 1.2-.8 2.1c-2.7 4.6-11.5 6.4-16.1 6.4-8.1 0-15.5-2.6-15.5-8.3a69 69 0 0 1 15.6-31.3c5.6-6.7 13.5-14 24.4-19.4" style="fill:#f6f7f8" transform="translate(218 42)"/><path d="M-133.9 46.9A87 87 0 0 1-94 38c4.8 0 9 .4 14.2 1 1.5.2 2.3 1.9 1.9 3.9q-.2 1.4-1.4 2.6a8 8 0 0 1-5.5 2q-24.9 0-38.7 12.3A48 48 0 0 0-135 75.2a87 87 0 0 0-7 22.2q-.2 1.2-.8 2.1c-2.7 4.7-11.4 6.4-16 6.5-8.1 0-15.5-2.6-15.5-8.3a70 70 0 0 1 15.7-31.4c5.8-6.7 13.8-14 24.7-19.4" style="fill:#f4f5f6" transform="translate(218 42)"/><path d="M-133.7 46.8A86 86 0 0 1-94 38.1c4.8 0 9 .4 14.1 1 1.4.2 2.3 2 1.8 3.9q-.3 1.4-1.4 2.5a8 8 0 0 1-5.5 1.9c-16.7.2-29.3 4.2-38.6 12.3a48 48 0 0 0-11.5 15.4 87 87 0 0 0-7 22.2q-.2 1.2-.8 2.1c-2.6 4.7-11.2 6.5-15.9 6.5-8.1 0-15.5-2.6-15.5-8.3 0-1.9 3.6-17 15.8-31.4 5.8-6.7 13.9-14 24.8-19.4" style="fill:#f1f3f4" transform="translate(218.2 42)"/><path d="M-133.5 46.7A87 87 0 0 1-94 38.1c4.8 0 8.9.4 14 1 1.4.2 2.2 2 1.7 3.9q-.3 1.4-1.5 2.4a9 9 0 0 1-5.5 1.9q-24.8.2-38.5 12.4a48 48 0 0 0-11.5 15.4 86 86 0 0 0-7 22.1q-.2 1.2-.8 2.1c-2.5 4.7-11.1 6.5-15.8 6.6-8.1 0-15.5-2.6-15.5-8.3 0-1.8 3.6-17.1 15.9-31.5 5.9-6.8 14.1-14 25-19.4" style="fill:#eff2f2" transform="translate(218.2 42)"/><path d="M-133.2 46.6a87 87 0 0 1 39.3-8.5c4.7 0 8.9.4 14 1 1.4.2 2.2 2 1.6 3.9q-.3 1.4-1.5 2.4a9 9 0 0 1-5.5 1.8q-24.8.3-38.4 12.4A49 49 0 0 0-135.2 75a86 86 0 0 0-7 22.1q-.2 1.2-.8 2.1c-2.5 4.7-11 6.6-15.8 6.6-8.1 0-15.5-2.6-15.5-8.3a77.5 77.5 0 0 1 41.1-50.9" style="fill:#edeff0" transform="translate(218.3 42)"/><path d="M-133 46.6c10.3-5 23.2-8.5 39.1-8.3 4.7 0 8.8.4 13.9 1 1.4.2 2.1 2 1.5 3.9a5 5 0 0 1-1.6 2.3 9 9 0 0 1-5.5 1.7q-24.7.3-38.3 12.4A49 49 0 0 0-135.4 75a86 86 0 0 0-7 22.1q-.2 1.2-.7 2.1c-2.4 4.7-10.8 6.6-15.7 6.7-8 .1-15.5-2.6-15.5-8.2 0-1.8 3.7-17.1 16.1-31.6 5.9-7 14.1-14.2 25.2-19.5" style="fill:#eceeef" transform="translate(218.4 42)"/><path d="M-132.8 46.5a88 88 0 0 1 38.9-8.2c4.7 0 8.8.4 13.8 1 1.3.2 2.1 2.1 1.4 3.9q-.4 1.2-1.7 2.2a10 10 0 0 1-5.5 1.6q-24.6.4-38.3 12.5a51 51 0 0 0-11.5 15.3 86 86 0 0 0-7 22q-.2 1.2-.7 2.1c-2.3 4.8-10.7 6.7-15.6 6.7-8 .1-15.5-2.6-15.5-8.2 0-1.8 3.7-17.2 16.2-31.7a83 83 0 0 1 25.5-19.2" style="fill:#e9ebed" transform="translate(218.4 42.1)"/><path d="M-132.6 46.4c10.3-4.9 23-8.2 38.7-8.1 4.6 0 8.8.4 13.7 1 1.3.2 2 2.1 1.3 3.9q-.4 1.2-1.7 2.2a11 11 0 0 1-5.6 1.6q-24.6.4-38.2 12.5a51 51 0 0 0-11.5 15.3 86 86 0 0 0-7 22q-.2 1.2-.7 2.1c-2.3 4.8-10.5 6.7-15.6 6.8-8 .1-15.5-2.6-15.5-8.2 0-1.7 3.8-17.2 16.3-31.7a83 83 0 0 1 25.8-19.4" style="fill:#e7eaeb" transform="translate(218.5 42.1)"/><path d="M-132.4 46.3a87 87 0 0 1 38.5-7.9c4.6 0 8.7.4 13.7 1 1.3.2 2 2.1 1.2 3.9q-.5 1.2-1.8 2.1a11 11 0 0 1-5.6 1.5 57 57 0 0 0-38.1 12.6 49 49 0 0 0-11.4 15.3 86 86 0 0 0-7 22q-.2 1.1-.7 2.1c-2.2 4.8-10.4 6.8-15.5 6.8-8 .1-15.4-2.6-15.4-8.2 0-1.7 3.8-17.2 16.4-31.8a80 80 0 0 1 25.7-19.4" style="fill:#e4e7e9" transform="translate(218.6 42.1)"/><path d="M-132.1 46.3a86 86 0 0 1 38.3-7.8c4.6 0 8.7.4 13.6 1 1.2.2 1.9 2.1 1.1 3.9q-.5 1.2-1.8 2-2.1 1.3-5.6 1.4a58 58 0 0 0-38 12.6 49 49 0 0 0-11.4 15.3 87 87 0 0 0-7 21.9q-.2 1.1-.7 2.1c-2.2 4.8-10.2 6.8-15.4 6.9-7.9.1-15.4-2.6-15.4-8.2 0-1.7 3.8-17.3 16.5-31.9 6-6.8 14.5-14 25.8-19.2" style="fill:#e2e5e8" transform="translate(218.6 42.2)"/><path d="M-131.9 46.2a87 87 0 0 1 38.1-7.7c4.5.1 8.6.4 13.5 1 1.2.2 1.9 2.2 1 4q-.5 1.2-1.9 2-2.2 1.2-5.6 1.4a57 57 0 0 0-37.9 12.7 50 50 0 0 0-11.4 15.2 87 87 0 0 0-7 21.9q-.2 1.1-.7 2.1c-2.1 4.8-10.1 6.8-15.3 6.9-7.9.1-15.4-2.6-15.4-8.2a76.5 76.5 0 0 1 42.6-51.3" style="fill:#e0e3e6" transform="translate(218.7 42.2)"/><path d="M-131.7 46.1a90 90 0 0 1 37.9-7.6c4.5.1 8.6.4 13.4 1 1.2.2 1.8 2.2.9 4a5 5 0 0 1-1.9 1.9q-2.2 1.2-5.6 1.3a57 57 0 0 0-37.8 12.7 50 50 0 0 0-11.4 15.2 85 85 0 0 0-7 21.9q-.2 1.1-.7 2.1c-2 4.8-9.9 6.9-15.3 7-7.9.1-15.4-2.6-15.4-8.1 0-1.6 3.9-17.3 16.7-32 6.3-7 14.8-14.2 26.2-19.4" style="fill:#dee1e4" transform="translate(218.8 42.2)"/><path d="M-131.5 46a87 87 0 0 1 37.8-7.4c4.5.1 8.6.4 13.4 1 1.2.2 1.8 2.2.8 4a4 4 0 0 1-2 1.8q-2.3 1.1-5.6 1.2a57 57 0 0 0-37.7 12.8 50 50 0 0 0-11.4 15.2 89 89 0 0 0-7.1 21.8l-.6 2.1c-2 4.9-9.8 6.9-15.2 7-7.9.1-15.4-2.6-15.4-8.1 0-1.6 3.9-17.4 16.8-32.1A80 80 0 0 1-131.5 46" style="fill:#dbdfe2" transform="translate(218.8 42.2)"/><path d="M-131.2 45.9a88 88 0 0 1 37.6-7.3c4.4.1 8.5.4 13.3 1 1.1.2 1.8 2.3.7 4a4 4 0 0 1-2.1 1.7q-2.3 1-5.6 1.2a57 57 0 0 0-37.6 12.8 50 50 0 0 0-11.4 15.2 85 85 0 0 0-7.1 21.8l-.6 2.1c-1.9 4.9-9.6 7-15.1 7.1-7.9.1-15.4-2.6-15.4-8.1a77.4 77.4 0 0 1 43.3-51.5" style="fill:#d8dde1" transform="translate(218.9 42.2)"/><path d="M-131 45.9a89 89 0 0 1 37.4-7.2c4.4.1 8.5.4 13.2 1 1.1.1 1.7 2.3.6 4a4 4 0 0 1-2.1 1.7 18 18 0 0 1-5.6 1.1A57 57 0 0 0-125 59.4a49 49 0 0 0-11.4 15.2 85 85 0 0 0-7.1 21.8l-.6 2.1c-1.8 4.9-9.5 7-15.1 7.1-7.8.1-15.4-2.6-15.4-8.1 0-1.6 4-17.4 17-32.2 6.3-7.2 15-14.3 26.6-19.4" style="fill:#d7dcdf" transform="translate(219 42.2)"/><path d="M-130.8 45.8a87 87 0 0 1 37.2-7c4.3.1 8.4.4 13.1 1 1.1.1 1.7 2.3.5 4q-.6 1.1-2.2 1.6-2.4.9-5.7 1a57 57 0 0 0-37.4 12.9 51 51 0 0 0-11.4 15.1 85 85 0 0 0-7.7 23.8c-1.8 4.9-9.3 7.1-15 7.2-7.8.1-15.4-2.6-15.4-8.1 0-1.6 4-17.5 17.1-32.2a80 80 0 0 1 26.9-19.3" style="fill:#d5dadd" transform="translate(219 42.2)"/><path d="M-130.6 45.7a88 88 0 0 1 37-6.9q6.3.1 13.1 1c1.1.1 1.6 2.3.4 4q-.7 1-2.2 1.5-2.4.8-5.7 1a57 57 0 0 0-37.3 13 49 49 0 0 0-11.3 15.1 85 85 0 0 0-7.7 23.8c-1.7 4.9-9.2 7.1-14.9 7.2-7.8.1-15.3-2.6-15.3-8a74 74 0 0 1 17.2-32.3c6.2-7.2 15-14.3 26.7-19.4" style="fill:#d1d8dc" transform="translate(219.1 42.3)"/><path d="M-130.4 45.6a89 89 0 0 1 36.8-6.8q6.3.1 13 1c1 .1 1.6 2.4.3 4q-.7 1-2.3 1.5-2.5.7-5.7.9-24 1-37.2 13a49 49 0 0 0-11.3 15.1 85 85 0 0 0-7.7 23.9c-1.6 5-9 7.2-14.9 7.3-7.8.1-15.3-2.6-15.3-8 0-1.5 4.1-17.5 17.3-32.4a77 77 0 0 1 27-19.5" style="fill:#cfd6da" transform="translate(219.2 42.3)"/><path d="M-130.1 45.6A88 88 0 0 1-93.5 39q6.2.1 12.9 1c1 .1 1.5 2.4.2 4q-.7 1-2.3 1.4-2.6.7-5.7.8-23.9 1-37.1 13a49 49 0 0 0-11.3 15.1 82 82 0 0 0-7.7 23.8c-1.6 5-8.9 7.2-14.8 7.3-7.7.1-15.3-2.6-15.3-8 0-1.5 4.1-17.6 17.4-32.4a74 74 0 0 1 27.1-19.4" style="fill:#ced4d8" transform="translate(219.2 42.3)"/><path d="M-129.9 45.5A89 89 0 0 1-93.5 39q6.2.1 12.8 1c1 .1 1.5 2.4.1 4a4 4 0 0 1-2.4 1.3q-2.5.6-5.7.8-23.8 1-37.1 13.1a50 50 0 0 0-11.3 15 81 81 0 0 0-7.1 21.6l-.6 2.1c-1.5 5-8.8 7.3-14.7 7.4-7.7.1-15.3-2.6-15.3-8a76.5 76.5 0 0 1 44.9-51.8" style="fill:#ccd2d6" transform="translate(219.3 42.3)"/><path d="M-129.7 45.4A89 89 0 0 1-93.5 39q6.1.1 12.8 1c1 .1 1.5 2.5 0 4a4 4 0 0 1-2.5 1.3q-2.7.7-5.8.7c-16 .7-28 5.1-37 13.1a50 50 0 0 0-11.3 15 81 81 0 0 0-7.1 21.6l-.5 2.2c-1.5 5-8.6 7.3-14.6 7.4-7.7.2-15.3-2.6-15.3-8a77 77 0 0 1 45.1-51.9" style="fill:#cad0d5" transform="translate(219.4 42.3)"/><path d="M-129.5 45.3c9.8-4 21.7-6.6 36-6.2q6 .1 12.7 1c.9.1 1.4 2.5-.1 4q-.9.8-2.5 1.2-2.7.4-5.7.6-23.7 1.1-36.9 13.2a50 50 0 0 0-11.3 15 81 81 0 0 0-7.1 21.5l-.5 2.2c-1.4 5-8.5 7.3-14.6 7.5-7.7.2-15.3-2.6-15.3-7.9 0-1.4 4.2-17.7 17.7-32.6a75 75 0 0 1 27.6-19.5" style="fill:#c6ced3" transform="translate(219.4 42.3)"/><path d="M-129.3 45.2c9.8-4 21.6-6.4 35.8-6.1q6 .1 12.6 1c.9.1 1.4 2.5-.2 4.1q-.8.9-2.6 1.1-2.7.4-5.7.6a57 57 0 0 0-36.8 13.2 50 50 0 0 0-11.3 15 85 85 0 0 0-7.2 21.5l-.5 2.2c-1.3 5-8.3 7.4-14.5 7.5-7.6.2-15.3-2.6-15.3-7.9a77.5 77.5 0 0 1 45.7-52.2" style="fill:#c4ccd1" transform="translate(219.5 42.3)"/><path d="M-129 45.2a90 90 0 0 1 35.6-6q6 .1 12.5 1c.9.1 1.4 2.6-.3 4.1q-.8.8-2.6 1.1l-5.8.5a57 57 0 0 0-36.7 13.3 52 52 0 0 0-11.3 15 85 85 0 0 0-7.2 21.5l-.5 2.2c-1.3 5.1-8.2 7.4-14.4 7.6-7.6.2-15.3-2.6-15.3-7.9 0-1.4 4.3-17.8 17.9-32.8 6.8-7.6 16-14.8 28.1-19.6" style="fill:#c2cacf" transform="translate(219.6 42.4)"/><path d="M-128.8 45.1a87 87 0 0 1 35.4-5.8q6 .1 12.5 1c.9.1 1.3 2.6-.4 4.1q-.9.8-2.7 1l-5.8.4a57 57 0 0 0-36.6 13.3A51 51 0 0 0-137.6 74a85 85 0 0 0-7.2 21.5l-.5 2.2c-1.2 5.1-8 7.5-14.4 7.6-7.6.2-15.2-2.6-15.2-7.9 0-1.3 4.3-17.8 18-32.8a74 74 0 0 1 28.1-19.5" style="fill:#c0c8ce" transform="translate(219.6 42.4)"/><path d="M-128.6 45a88 88 0 0 1 35.2-5.7q6 .1 12.4 1c.8.1 1.3 2.6-.6 4.1q-.9.8-2.7.9l-5.8.4a56 56 0 0 0-36.5 13.4A53 53 0 0 0-137.8 74a85 85 0 0 0-7.2 21.4l-.5 2.2c-1.1 5.1-7.9 7.5-14.3 7.7-7.6.2-15.2-2.6-15.2-7.9A77 77 0 0 1-128.6 45" style="fill:#bdc6cc" transform="translate(219.7 42.4)"/><path d="M-128.4 44.9c9.7-3.7 21.2-6 35-5.6q5.8.1 12.3 1c.8.1 1.2 2.7-.7 4.1q-.9.7-2.8.9l-5.8.3A57 57 0 0 0-126.8 59 53 53 0 0 0-138 73.9a85 85 0 0 0-7.2 21.4l-.5 2.2c-1.1 5.1-7.7 7.6-14.2 7.7-7.5.2-15.2-2.6-15.2-7.9a77 77 0 0 1 46.7-52.4" style="fill:#bbc5ca" transform="translate(219.8 42.4)"/><path d="M-128.1 44.9a91 91 0 0 1 34.8-5.5q5.9.1 12.2 1c.8.1 1.2 2.7-.8 4.1q-1 .8-2.9.8l-5.8.2A57 57 0 0 0-126.9 59a53 53 0 0 0-11.2 14.9 85 85 0 0 0-7.2 21.4l-.4 2.2c-1 5.1-7.6 7.6-14.1 7.8-7.5.2-15.2-2.6-15.2-7.8a76 76 0 0 1 18.3-33 72 72 0 0 1 28.6-19.6" style="fill:#b8c3c8" transform="translate(219.8 42.4)"/></g></g></g><g transform="translate(-43.7 -36.7)"><defs><path id="e" d="M19.6 26.2h143.9v135H19.6z" transform="rotate(-65 91.6 93.8)"/></defs><clipPath id="f"><use xlink:href="#e" style="overflow:visible"/></clipPath><g style="clip-path:url(#f)"><linearGradient id="g" x1="-69.5" x2="-66.3" y1="516.7" y2="516.7" gradientTransform="rotate(205 -594.3 7411)scale(-27.7304 27.7304)" gradientUnits="userSpaceOnUse"><stop offset="0" style="stop-color:#58b9e2"/><stop offset=".3" style="stop-color:#1479be"/><stop offset=".4" style="stop-color:#1163aa"/><stop offset=".6" style="stop-color:#0b57a0"/><stop offset="1" style="stop-color:#054a97"/></linearGradient><path d="M43.7 92.9V140c0 10.8 30.3 10.8 30.3 0V91.3c0-20 12.6-35 30.2-35.5 13.9-.3 25.2 6.8 25.2 27.1 0 5.1 10.1 5.1 10.1 0 0-34.2-19-46.2-42.8-46.2-22.4 0-53 13.6-53 56.2" style="fill:url(#g)"/></g></g></svg>