<?xml version="1.0" encoding="UTF-8" standalone="no"?>
<svg
   xml:space="preserve"
   width="97"
   height="111.4"
   viewBox="0 0 97 111.4"
   version="1.1"
   id="svg40"
   xmlns:xlink="http://www.w3.org/1999/xlink"
   xmlns="http://www.w3.org/2000/svg"
   xmlns:svg="http://www.w3.org/2000/svg"><defs
     id="defs40" /><g
     transform="translate(-43.7 -36.7)"
     id="g35"
     clip-path="none"><defs
       id="defs1"><path
         id="a"
         d="M41.7 77.7h101v72.4h-101z" /></defs><clipPath
       id="b"><use
         xlink:href="#a"
         overflow="visible"
         id="use1" /></clipPath><g
       clip-path="url(#b)"
       id="g34"><defs
         id="defs2"><path
           id="c"
           d="M41.7 77.7h101v72.4h-101z" /></defs><clipPath
         id="d"><use
           xlink:href="#c"
           overflow="visible"
           id="use2" /></clipPath><g
         clip-path="url(#d)"
         id="g33"><path
           fill="#fff"
           d="M59.313 148.091c-8.2 0-15.6-2.6-15.6-8.4 0-2 3.4-16.8 15.2-31 5.5-6.6 13.2-13.8 23.9-19.4 10.6-5.6 24.1-9.5 40.9-9.5 5 0 9.2.4 14.6 1.1 1.6.2 2.6 1.8 2.5 3.8-.2 2.6-2.2 5.2-6.5 5.2-16.9 0-29.8 3.9-39.2 12-4.7 4.1-8.5 9.3-11.6 15.5-3.1 6.3-5.3 13.7-6.9 22.4-1.2 6.2-12.5 8.3-17.3 8.3"
           id="path2" /><path
           fill="#fefefe"
           d="M83.024 89.177c10.6-5.5 24-9.4 40.7-9.4 5 0 9.2.4 14.5 1 1.6.2 2.5 1.8 2.4 3.9-.1 1-.5 2-1.1 2.8-1.1 1.3-2.9 2.3-5.4 2.3-16.9 0-29.7 3.9-39.1 12.1-4.7 4.1-8.5 9.2-11.6 15.5s-5.3 13.7-6.9 22.3c-.1.8-.4 1.5-.8 2.1-2.9 4.6-12 6.3-16.3 6.3-8.2 0-15.6-2.6-15.6-8.4 0-2 3.4-16.8 15.3-31.1 5.4-6.6 13.2-13.8 23.9-19.4"
           id="path3" /><path
           fill="#fcfcfd"
           d="M83.291 89.092c10.6-5.5 23.9-9.3 40.5-9.3 5 0 9.1.4 14.4 1.1 1.5.2 2.5 1.8 2.3 3.9-.1 1-.5 2-1.2 2.8-1.1 1.3-2.9 2.2-5.4 2.2-16.9.1-29.6 4-39 12.1-4.7 4.1-8.5 9.2-11.6 15.5s-5.3 13.7-6.9 22.3c-.1.8-.4 1.5-.8 2.1-2.9 4.6-11.8 6.3-16.2 6.3-8.2 0-15.6-2.6-15.6-8.4 0-1.9 3.4-16.9 15.4-31.2 5.5-6.6 13.4-13.9 24.1-19.4"
           id="path4" /><path
           fill="#f8fafb"
           d="M83.658 89.007c10.5-5.4 23.8-9.2 40.3-9.1 4.9 0 9.1.4 14.3 1 1.5.2 2.4 1.9 2.2 3.9-.1 1-.5 1.9-1.3 2.7-1.1 1.2-2.9 2.1-5.4 2.1-16.8.1-29.6 4-38.9 12.2-4.7 4.1-8.5 9.2-11.6 15.5s-5.4 13.7-6.9 22.3c-.1.8-.4 1.5-.8 2.1-2.8 4.6-11.7 6.3-16.1 6.4-8.2 0-15.6-2.6-15.6-8.4 0-1.9 3.5-16.9 15.5-31.2 5.6-6.7 13.5-14 24.3-19.5"
           id="path5" /><path
           fill="#f6f7f8"
           d="M83.925 89.021c10.5-5.3 23.7-9.1 40.1-9 4.9 0 9 .4 14.3 1 1.5.2 2.4 1.9 2 3.9-.2.9-.6 1.9-1.3 2.6-1.2 1.2-3 2-5.5 2.1-16.8.1-29.5 4.1-38.8 12.2-4.7 4.1-8.5 9.2-11.5 15.5q-4.65 9.45-6.9 22.2c-.1.8-.4 1.5-.8 2.1-2.7 4.6-11.5 6.4-16.1 6.4-8.1 0-15.5-2.6-15.5-8.3 0-1.9 3.5-16.9 15.6-31.3 5.6-6.7 13.5-14 24.4-19.4"
           id="path6" /><path
           fill="#f4f5f6"
           d="M84.192 88.936c10.5-5.3 23.6-8.9 39.9-8.9 4.8 0 9 .4 14.2 1 1.5.2 2.3 1.9 1.9 3.9-.2.9-.6 1.8-1.4 2.6-1.2 1.1-3 2-5.5 2-16.7.1-29.4 4.1-38.7 12.3-4.7 4.1-8.5 9.2-11.5 15.4-3.1 6.3-5.4 13.7-7 22.2-.1.8-.4 1.5-.8 2.1-2.7 4.7-11.4 6.4-16 6.5-8.1 0-15.5-2.6-15.5-8.3 0-1.9 3.6-17 15.7-31.4 5.8-6.7 13.8-14 24.7-19.4"
           id="path7" /><path
           fill="#f1f3f4"
           d="M84.459 88.85c10.4-5.2 23.5-8.8 39.7-8.7 4.8 0 9 .4 14.1 1 1.4.2 2.3 2 1.8 3.9-.2.9-.7 1.8-1.4 2.5-1.2 1.1-3 1.9-5.5 1.9-16.7.2-29.3 4.2-38.6 12.3-4.7 4.1-8.5 9.2-11.5 15.4-3.1 6.3-5.4 13.7-7 22.2-.1.8-.4 1.5-.8 2.1-2.6 4.7-11.2 6.5-15.9 6.5-8.1 0-15.5-2.6-15.5-8.3 0-1.9 3.6-17 15.8-31.4 5.8-6.7 13.9-14 24.8-19.4"
           id="path8" /><path
           fill="#eff2f2"
           d="M84.726 88.765c10.4-5.1 23.4-8.7 39.5-8.6 4.8 0 8.9.4 14 1 1.4.2 2.2 2 1.7 3.9-.2.9-.7 1.8-1.5 2.4-1.2 1.1-3.1 1.8-5.5 1.9-16.6.2-29.3 4.2-38.5 12.4-4.7 4.1-8.5 9.2-11.5 15.4-3.1 6.3-5.4 13.6-7 22.1-.1.8-.4 1.5-.8 2.1-2.5 4.7-11.1 6.5-15.8 6.6-8.1 0-15.5-2.6-15.5-8.3 0-1.8 3.6-17.1 15.9-31.5 5.9-6.8 14.1-14 25-19.4"
           id="path9" /><path
           fill="#edeff0"
           d="M85.093 88.68c10.4-5.1 23.3-8.6 39.3-8.5 4.7 0 8.9.4 14 1 1.4.2 2.2 2 1.6 3.9q-.3 1.35-1.5 2.4c-1.3 1-3.1 1.8-5.5 1.8-16.6.2-29.2 4.3-38.4 12.4-4.7 4.1-8.4 9.2-11.5 15.4-3.1 6.3-5.4 13.6-7 22.1-.1.8-.4 1.5-.8 2.1-2.5 4.7-11 6.6-15.8 6.6-8.1 0-15.5-2.6-15.5-8.3 0-1.8 3.7-17.1 16-31.5 5.8-6.8 14-14 25.1-19.4"
           id="path10" /><path
           fill="#eceeef"
           d="M85.36 88.695c10.3-5 23.2-8.5 39.1-8.3 4.7 0 8.8.4 13.9 1 1.4.2 2.1 2 1.5 3.9-.3.8-.8 1.7-1.6 2.3-1.3 1-3.1 1.7-5.5 1.7-16.6.3-29.1 4.3-38.3 12.4-4.7 4.1-8.4 9.2-11.5 15.4-3.1 6.3-5.4 13.6-7 22.1-.1.8-.4 1.5-.7 2.1-2.4 4.7-10.8 6.6-15.7 6.7-8 .1-15.5-2.6-15.5-8.2 0-1.8 3.7-17.1 16.1-31.6 5.9-7 14.1-14.2 25.2-19.5"
           id="path11" /><path
           fill="#e9ebed"
           d="M85.627 88.61c10.3-4.9 23.1-8.3 38.9-8.2 4.7 0 8.8.4 13.8 1 1.3.2 2.1 2.1 1.4 3.9-.3.8-.8 1.6-1.7 2.2-1.3.9-3.2 1.6-5.5 1.6-16.5.3-29.1 4.4-38.3 12.5-4.6 4.1-8.4 9.2-11.5 15.3-3.1 6.3-5.4 13.6-7 22-.1.8-.4 1.5-.7 2.1-2.3 4.8-10.7 6.7-15.6 6.7-8 .1-15.5-2.6-15.5-8.2 0-1.8 3.7-17.2 16.2-31.7 6.1-6.7 14.4-13.9 25.5-19.2"
           id="path12" /><path
           fill="#e7eaeb"
           d="M85.894 88.524c10.3-4.9 23-8.2 38.7-8.1 4.6 0 8.8.4 13.7 1 1.3.2 2 2.1 1.3 3.9-.3.8-.8 1.6-1.7 2.2-1.4.9-3.2 1.5-5.6 1.6-16.5.3-29 4.4-38.2 12.5-4.6 4.1-8.4 9.2-11.5 15.3-3.1 6.3-5.4 13.6-7 22-.1.8-.4 1.5-.7 2.1-2.3 4.8-10.5 6.7-15.6 6.8-8 .1-15.5-2.6-15.5-8.2 0-1.7 3.8-17.2 16.3-31.7 6.3-6.9 14.6-14.1 25.8-19.4"
           id="path13" /><path
           fill="#e4e7e9"
           d="M86.16 88.439c10.3-4.8 22.9-8.1 38.5-7.9 4.6 0 8.7.4 13.7 1 1.3.2 2 2.1 1.2 3.9q-.45 1.2-1.8 2.1c-1.4.8-3.2 1.5-5.6 1.5-16.5.3-28.9 4.5-38.1 12.6q-6.9 6.15-11.4 15.3c-3.1 6.3-5.4 13.6-7 22-.1.7-.4 1.5-.7 2.1-2.2 4.8-10.4 6.8-15.5 6.8-8 .1-15.4-2.6-15.4-8.2 0-1.7 3.8-17.2 16.4-31.8 6.1-6.9 14.5-14.1 25.7-19.4"
           id="path14" /><path
           fill="#e2e5e8"
           d="M86.527 88.453c10.2-4.8 22.8-8 38.3-7.8 4.6 0 8.7.4 13.6 1 1.2.2 1.9 2.1 1.1 3.9-.3.8-.9 1.5-1.8 2-1.4.8-3.3 1.4-5.6 1.4-16.4.4-28.8 4.6-38 12.6q-6.9 6.15-11.4 15.3c-3.1 6.3-5.4 13.6-7 21.9-.1.7-.4 1.5-.7 2.1-2.2 4.8-10.2 6.8-15.4 6.9-7.9.1-15.4-2.6-15.4-8.2 0-1.7 3.8-17.3 16.5-31.9 6-6.8 14.5-14 25.8-19.2"
           id="path15" /><path
           fill="#e0e3e6"
           d="M86.794 88.368c10.2-4.7 22.7-7.9 38.1-7.7 4.5.1 8.6.4 13.5 1 1.2.2 1.9 2.2 1 4-.4.7-.9 1.5-1.9 2-1.5.8-3.3 1.3-5.6 1.4-16.4.4-28.8 4.6-37.9 12.7-4.6 4.1-8.4 9.2-11.4 15.2-3.1 6.3-5.4 13.6-7 21.9-.1.7-.4 1.5-.7 2.1-2.1 4.8-10.1 6.8-15.3 6.9-7.9.1-15.4-2.6-15.4-8.2 0-1.7 3.8-17.3 16.6-31.9 6.1-7 14.6-14.2 26-19.4"
           id="path16" /><path
           fill="#dee1e4"
           d="M87.061 88.283c10.2-4.6 22.7-7.7 37.9-7.6 4.5.1 8.6.4 13.4 1 1.2.2 1.8 2.2.9 4-.4.7-1 1.4-1.9 1.9-1.5.7-3.3 1.3-5.6 1.3-16.3.4-28.7 4.7-37.8 12.7-4.6 4.1-8.4 9.2-11.4 15.2-3.1 6.3-5.4 13.5-7 21.9-.1.7-.4 1.5-.7 2.1-2 4.8-9.9 6.9-15.3 7-7.9.1-15.4-2.6-15.4-8.1 0-1.6 3.9-17.3 16.7-32 6.3-7 14.8-14.2 26.2-19.4"
           id="path17" /><path
           fill="#dbdfe2"
           d="M87.328 88.197c10.1-4.6 22.6-7.6 37.8-7.4 4.5.1 8.6.4 13.4 1 1.2.2 1.8 2.2.8 4-.4.7-1 1.4-2 1.8-1.5.7-3.4 1.2-5.6 1.2-16.3.5-28.6 4.7-37.7 12.8-4.6 4.1-8.4 9.2-11.4 15.2-3.1 6.2-5.4 13.5-7.1 21.8-.1.7-.4 1.5-.6 2.1-2 4.9-9.8 6.9-15.2 7-7.9.1-15.4-2.6-15.4-8.1 0-1.6 3.9-17.4 16.8-32.1 6.2-6.9 14.8-14.1 26.2-19.3"
           id="path18" /><path
           fill="#d8dde1"
           d="M87.695 88.112c10.1-4.5 22.5-7.5 37.6-7.3 4.4.1 8.5.4 13.3 1 1.1.2 1.8 2.3.7 4-.4.7-1.1 1.3-2.1 1.7-1.5.6-3.4 1.1-5.6 1.2-16.2.5-28.6 4.8-37.6 12.8-4.6 4.1-8.4 9.2-11.4 15.2-3.1 6.2-5.5 13.5-7.1 21.8-.1.7-.4 1.5-.6 2.1-1.9 4.9-9.6 7-15.1 7.1-7.9.1-15.4-2.6-15.4-8.1 0-1.6 4-17.4 16.9-32.1 6.2-7 14.8-14.2 26.4-19.4"
           id="path19" /><path
           fill="#d7dcdf"
           d="M87.962 88.127c10.1-4.4 22.4-7.4 37.4-7.2 4.4.1 8.5.4 13.2 1 1.1.1 1.7 2.3.6 4-.4.7-1.1 1.3-2.1 1.7-1.6.6-3.4 1-5.6 1.1-16.2.5-28.5 4.8-37.5 12.9-4.6 4.1-8.4 9.1-11.4 15.2-3.1 6.2-5.5 13.5-7.1 21.8-.1.7-.4 1.5-.6 2.1-1.8 4.9-9.5 7-15.1 7.1-7.8.1-15.4-2.6-15.4-8.1 0-1.6 4-17.4 17-32.2 6.3-7.2 15-14.3 26.6-19.4"
           id="path20" /><path
           fill="#d5dadd"
           d="M88.229 88.041c10-4.4 22.3-7.3 37.2-7 4.3.1 8.4.4 13.1 1 1.1.1 1.7 2.3.5 4-.5.7-1.1 1.3-2.2 1.6-1.6.5-3.5 1-5.7 1-16.2.5-28.4 4.9-37.4 12.9-4.6 4.1-8.3 9.1-11.4 15.1-3.1 6.2-5.5 13.5-7.1 21.7-.1.7-.3 1.5-.6 2.1-1.8 4.9-9.3 7.1-15 7.2-7.8.1-15.4-2.6-15.4-8.1 0-1.6 4-17.5 17.1-32.2 6.5-7.1 15.3-14.2 26.9-19.3"
           id="path21" /><path
           fill="#d1d8dc"
           d="M88.496 87.956c10-4.3 22.2-7.2 37-6.9 4.3.1 8.4.4 13.1 1 1.1.1 1.6 2.3.4 4-.5.6-1.2 1.2-2.2 1.5-1.6.5-3.5.9-5.7 1-16.1.6-28.3 4.9-37.3 13-4.6 4.1-8.3 9.1-11.3 15.1-3.1 6.2-5.5 13.5-7.1 21.7-.1.7-.3 1.5-.6 2.1-1.7 4.9-9.2 7.1-14.9 7.2-7.8.1-15.3-2.6-15.3-8 0-1.5 4.1-17.5 17.2-32.3 6.2-7.2 15-14.3 26.7-19.4"
           id="path22" /><path
           fill="#cfd6da"
           d="M88.762 87.87c10-4.3 22.1-7 36.8-6.8 4.3.1 8.4.4 13 1 1 .1 1.6 2.4.3 4-.5.6-1.2 1.2-2.3 1.5q-2.55.75-5.7.9c-16.1.6-28.3 5-37.2 13-4.6 4.1-8.3 9.1-11.3 15.1-3.1 6.2-5.5 13.5-7.1 21.7-.1.7-.3 1.5-.6 2.2-1.6 5-9 7.2-14.9 7.3-7.8.1-15.3-2.6-15.3-8 0-1.5 4.1-17.5 17.3-32.4 6.5-7.3 15.3-14.4 27-19.5"
           id="path23" /><path
           fill="#ced4d8"
           d="M89.13 87.885c9.9-4.2 22-6.9 36.6-6.6 4.2.1 8.3.4 12.9 1 1 .1 1.5 2.4.2 4-.5.6-1.2 1.1-2.3 1.4-1.7.4-3.6.8-5.7.8-16 .6-28.2 5-37.1 13-4.6 4.1-8.3 9.1-11.3 15.1-3.2 6.2-5.5 13.5-7.1 21.6-.1.7-.3 1.4-.6 2.2-1.6 5-8.9 7.2-14.8 7.3-7.7.1-15.3-2.6-15.3-8 0-1.5 4.1-17.6 17.4-32.4 6.4-7.3 15.2-14.4 27.1-19.4"
           id="path24" /><path
           fill="#ccd2d6"
           d="M89.396 87.8c9.9-4.1 21.9-6.8 36.4-6.5 4.2.1 8.3.4 12.8 1 1 .1 1.5 2.4.1 4-.5.6-1.3 1.1-2.4 1.3-1.7.4-3.6.7-5.7.8-16 .7-28.1 5.1-37.1 13.1-4.6 4.1-8.3 9.1-11.3 15-3.2 6.2-5.5 13.4-7.1 21.6q-.15 1.05-.6 2.1c-1.5 5-8.8 7.3-14.7 7.4-7.7.1-15.3-2.6-15.3-8 0-1.5 4.2-17.6 17.5-32.5 6.6-7.2 15.5-14.4 27.4-19.3"
           id="path25" /><path
           fill="#cad0d5"
           d="M89.663 87.715c9.9-4.1 21.8-6.7 36.2-6.4 4.2.1 8.2.4 12.8 1 1 .1 1.5 2.5 0 4-.5.6-1.3 1.1-2.5 1.3-1.8.4-3.7.7-5.8.7-16 .7-28 5.1-37 13.1-4.6 4.1-8.3 9.1-11.3 15-3.2 6.2-5.5 13.4-7.1 21.6-.1.7-.3 1.4-.5 2.2-1.5 5-8.6 7.3-14.6 7.4-7.7.2-15.3-2.6-15.3-8 0-1.4 4.2-17.7 17.6-32.6 6.6-7.2 15.6-14.4 27.5-19.3"
           id="path26" /><path
           fill="#c6ced3"
           d="M89.93 87.63c9.8-4 21.7-6.6 36-6.2 4.1.1 8.2.4 12.7 1 .9.1 1.4 2.5-.1 4-.6.5-1.4 1-2.5 1.2q-2.7.45-5.7.6c-15.9.7-28 5.2-36.9 13.2-4.6 4.1-8.3 9.1-11.3 15-3.2 6.2-5.5 13.4-7.1 21.5-.1.7-.3 1.4-.5 2.2-1.4 5-8.5 7.3-14.6 7.5-7.7.2-15.3-2.6-15.3-7.9 0-1.4 4.2-17.7 17.7-32.6 6.6-7.4 15.6-14.6 27.6-19.5"
           id="path27" /><path
           fill="#c4ccd1"
           d="M90.197 87.544c9.8-4 21.6-6.4 35.8-6.1 4.1.1 8.2.4 12.6 1 .9.1 1.4 2.5-.2 4.1-.6.5-1.4 1-2.6 1.1-1.8.2-3.7.5-5.7.6-15.9.7-27.9 5.3-36.8 13.2-4.6 4.1-8.3 9.1-11.3 15-3.2 6.2-5.5 13.4-7.2 21.5-.1.7-.3 1.4-.5 2.2-1.3 5-8.3 7.4-14.5 7.5-7.6.2-15.3-2.6-15.3-7.9 0-1.4 4.3-17.7 17.8-32.7 6.8-7.4 15.9-14.6 27.9-19.5"
           id="path28" /><path
           fill="#c2cacf"
           d="M90.564 87.559c9.8-3.9 21.5-6.3 35.6-6 4.1.1 8.1.4 12.5 1 .9.1 1.4 2.6-.3 4.1-.6.5-1.4.9-2.6 1.1-1.8.2-3.8.4-5.8.5-15.8.8-27.8 5.3-36.7 13.3-4.5 4.1-8.3 9.1-11.3 15-3.2 6.2-5.5 13.4-7.2 21.5-.1.7-.3 1.4-.5 2.2-1.3 5.1-8.2 7.4-14.4 7.6-7.6.2-15.3-2.6-15.3-7.9 0-1.4 4.3-17.8 17.9-32.8 6.8-7.6 16-14.8 28.1-19.6"
           id="path29" /><path
           fill="#c0c8ce"
           d="M90.831 87.473c9.7-3.9 21.4-6.2 35.4-5.8 4 .1 8.1.4 12.5 1 .9.1 1.3 2.6-.4 4.1-.6.5-1.5.9-2.7 1-1.9.2-3.8.3-5.8.4-15.8.8-27.8 5.4-36.6 13.3-4.5 4.1-8.3 9.1-11.2 14.9-3.2 6.2-5.5 13.4-7.2 21.5-.1.7-.3 1.4-.5 2.2-1.2 5.1-8 7.5-14.4 7.6-7.6.2-15.2-2.6-15.2-7.9 0-1.3 4.3-17.8 18-32.8 6.8-7.5 15.9-14.7 28.1-19.5"
           id="path30" /><path
           fill="#bdc6cc"
           d="M91.098 87.388c9.7-3.8 21.3-6.1 35.2-5.7 4 .1 8.1.4 12.4 1 .8.1 1.3 2.6-.6 4.1-.6.5-1.5.9-2.7.9-1.9.1-3.8.3-5.8.4-15.8.8-27.7 5.4-36.5 13.4-4.5 4.1-8.2 9.1-11.2 14.9-3.2 6.2-5.5 13.4-7.2 21.4-.1.7-.3 1.4-.5 2.2-1.1 5.1-7.9 7.5-14.3 7.7-7.6.2-15.2-2.6-15.2-7.9 0-1.3 4.4-17.8 18.1-32.9 6.9-7.5 16.1-14.7 28.3-19.5"
           id="path31" /><path
           fill="#bbc5ca"
           d="M91.365 87.303c9.7-3.7 21.2-6 35-5.6 3.9.1 8 .4 12.3 1 .8.1 1.2 2.7-.7 4.1-.6.5-1.5.8-2.8.9-1.9.1-3.9.2-5.8.3-15.7.9-27.6 5.5-36.4 13.4-4.5 4.1-8.2 9.1-11.2 14.9-3.2 6.2-5.5 13.4-7.2 21.4-.1.7-.3 1.4-.5 2.2-1.1 5.1-7.7 7.6-14.2 7.7-7.5.2-15.2-2.6-15.2-7.9 0-1.3 4.4-17.9 18.2-33 7-7.5 16.3-14.6 28.5-19.4"
           id="path32" /><path
           fill="#b8c3c8"
           d="M91.732 87.317c9.6-3.7 21.1-5.8 34.8-5.5 3.9.1 8 .4 12.2 1 .8.1 1.2 2.7-.8 4.1-.7.5-1.6.8-2.9.8-2 0-3.9.1-5.8.2-15.7.9-27.5 5.5-36.3 13.5-4.5 4.1-8.2 9.1-11.2 14.9-3.2 6.2-5.5 13.4-7.2 21.4-.1.7-.3 1.4-.4 2.2-1 5.1-7.6 7.6-14.1 7.8-7.5.2-15.2-2.6-15.2-7.8 0-1.3 4.4-17.9 18.3-33 6.9-7.8 16.2-14.9 28.6-19.6"
           id="path33" /></g></g></g><g
     transform="translate(-43.7 -36.7)"
     id="g40"
     clip-path="none"><defs
       id="defs35"><path
         id="e"
         d="M19.6 26.2h143.9v135H19.6z"
         transform="rotate(-65 91.607 93.754)" /></defs><clipPath
       id="f"><use
         xlink:href="#e"
         overflow="visible"
         id="use35" /></clipPath><g
       clip-path="url(#f)"
       id="g39"><linearGradient
         id="g"
         x1="-69.487"
         x2="-66.258"
         y1="516.74"
         y2="516.74"
         gradientTransform="rotate(205 -594.304 7411.082)scale(-27.7304 27.7304)"
         gradientUnits="userSpaceOnUse"><stop
           offset="0"
           stop-color="#58b9e2"
           id="stop35" /><stop
           offset=".25"
           stop-color="#1479be"
           id="stop36" /><stop
           offset=".4"
           stop-color="#1163aa"
           id="stop37" /><stop
           offset=".64"
           stop-color="#0b57a0"
           id="stop38" /><stop
           offset="1"
           stop-color="#054a97"
           id="stop39" /></linearGradient><path
         fill="url(#g)"
         d="M43.7 92.9V140c0 10.8 30.3 10.8 30.3 0V91.3c0-20 12.6-35 30.2-35.5 13.9-.3 25.2 6.8 25.2 27.1 0 5.1 10.1 5.1 10.1 0 0-34.2-19-46.2-42.8-46.2-22.4 0-53 13.6-53 56.2"
         id="path39" /></g></g></svg>
