<svg xmlns="http://www.w3.org/2000/svg" width="44" height="39" viewBox="0 0 44 39">
<path fill="#CC0000" d="M29.2553 22.1942C29.2856 22.1942 29.3159 22.1992 29.3462 22.1992C45.5498 22.6219 49.5805 2.83921 32.8668 1.03758C22.1839 -0.104793 12.0415 2.341 10.3444 3.97656C7.89971 6.33679 -0.394022 16.7037 0.0151083 23.1554C0.4798 30.5632 6.98043 33.2908 7.56129 31.9975C8.1371 30.6991 14.4559 14.1422 15.2691 7.37349C23.9568 4.88744 35.1953 6.34182 35.1953 6.34182L30.2251 12.5519L32.7506 19.23C32.7506 19.23 15.557 15.2594 15.5924 18.2185C15.6681 24.4236 18.1381 32.7423 21.8202 35.5504C30.7201 42.3342 42.0343 35.0119 40.913 33.94C38.2713 31.4187 32.5839 25.8226 29.2553 22.2042"/>
</svg>