<svg xmlns="http://www.w3.org/2000/svg" width="1024" height="1024"><path fill="#cb0b23" fill-rule="evenodd" d="M80 235.5c0 .275.225.5.5.5s.5-.225.5-.5-.225-.5-.5-.5-.5.225-.5.5M3.213 1023.18c-.942.374 49.549.711 112.204.75 62.654.038 113.673-.173 113.376-.47-.297-.298-50.789-.635-112.203-.75-61.415-.116-112.434.096-113.377.47m397.287-.134c-7.15.3 32.225.532 87.5.514 55.275-.017 86.325-.149 69-.294-17.325-.145-56.7-.376-87.5-.515-30.8-.138-61.85-.005-69 .295"/><path fill="#e31934" fill-rule="evenodd" d="M483.785.548c-.336.337-9.879 1.031-21.207 1.543-13.09.593-21.958 1.445-24.336 2.339-2.058.773-7.342 1.63-11.742 1.903-4.4.274-9.673 1.211-11.718 2.082-2.045.872-6.095 1.595-9 1.607-3.083.013-7.097.845-9.641 2-2.398 1.088-6.229 1.978-8.515 1.978-2.286 0-5.835.9-7.887 2-2.053 1.1-5.31 2-7.239 2-1.929 0-5.186.9-7.239 2-2.052 1.1-5.313 2.003-7.246 2.007-1.933.003-4.865.9-6.515 1.993-1.65 1.093-4.504 1.99-6.342 1.993-1.839.004-4.487.907-5.885 2.007-1.399 1.1-4.002 2-5.785 2-1.784 0-3.758.621-4.388 1.379-.63.759-2.586 1.668-4.348 2.021-1.762.352-5.24 1.553-7.728 2.669-2.488 1.116-5.798 2.682-7.355 3.48-1.557.798-3.634 1.451-4.615 1.451-.981 0-2.928.9-4.327 2-1.398 1.1-3.429 2-4.512 2-1.084 0-2.506.646-3.162 1.436-.655.789-2.479 1.718-4.053 2.064-1.574.346-3.374 1.246-4 2-.626.754-2.426 1.654-4 2-1.574.346-3.374 1.246-4 2-.626.754-2.42 1.653-3.986 1.997-1.566.344-3.079 1.23-3.363 1.97-.284.739-1.896 1.648-3.583 2.018-1.688.371-3.068 1.03-3.068 1.465 0 .436-2.925 2.292-6.5 4.126-3.575 1.833-6.5 3.656-6.5 4.051s-1.535 1.225-3.412 1.844c-1.876.619-3.662 1.779-3.968 2.577-.307.799-.999 1.452-1.538 1.452-.54 0-3.069 1.462-5.62 3.25-2.551 1.787-5.386 3.705-6.3 4.262-.914.557-3 1.907-4.635 3-1.635 1.093-7.708 5.504-13.495 9.801-5.787 4.296-10.885 8.459-11.327 9.25-.442.79-1.471 1.437-2.286 1.437s-1.741.675-2.057 1.5c-.317.825-1.18 1.5-1.919 1.5-.739 0-1.703.579-2.143 1.286-.44.707-1.991 2.198-3.447 3.313-1.455 1.114-5.913 4.923-9.906 8.464-3.992 3.54-15.626 14.8-25.853 25.022-10.227 10.222-21.581 21.922-25.231 26-3.65 4.078-8.038 9.049-9.75 11.047-1.712 1.998-3.113 3.91-3.113 4.25 0 .34-.787 1.46-1.75 2.49-.962 1.029-3.325 3.782-5.25 6.118-1.925 2.335-5.158 6.555-7.185 9.378-2.026 2.823-5.843 8.282-8.482 12.132-2.639 3.85-5.369 7.36-6.066 7.8-.697.44-1.267 1.42-1.267 2.178 0 .759-.77 2.15-1.712 3.091-.942.942-1.816 2.424-1.944 3.294-.128.87-.934 2.096-1.793 2.723-.858.628-2.052 2.552-2.653 4.277-.602 1.726-1.511 3.137-2.021 3.137-.509 0-1.389 1.012-1.953 2.25-.565 1.237-2.132 4.05-3.482 6.25s-3.195 5.688-4.1 7.75c-.905 2.063-1.983 3.75-2.396 3.75-.413 0-1.238 1.238-1.834 2.75-.596 1.512-1.54 3.425-2.098 4.25-.558.825-1.464 2.625-2.012 4-.549 1.375-1.449 3.175-2 4-.552.825-1.452 2.625-2 4-.549 1.375-1.382 3.175-1.852 4-.47.825-1.876 3.75-3.124 6.5-1.248 2.75-3.115 6.664-4.148 8.698-1.033 2.034-1.878 4.566-1.878 5.628 0 1.061-.646 2.465-1.436 3.121-.789.655-1.739 2.623-2.111 4.372-.372 1.75-1.244 3.856-1.938 4.681-.694.825-1.582 3.3-1.973 5.5s-1.287 4.675-1.991 5.5c-.704.825-1.55 3.264-1.88 5.419-.33 2.156-1.126 4.244-1.768 4.641-.642.397-1.532 3.026-1.977 5.844-.445 2.817-1.511 5.824-2.368 6.681-.894.894-1.558 3.271-1.558 5.579 0 2.506-.753 4.978-2 6.563-1.267 1.611-2 4.057-2 6.673 0 2.271-.9 5.809-2 7.861-1.1 2.053-2.003 5.646-2.006 7.985-.004 2.34-.731 5.604-1.616 7.254-.885 1.65-1.841 6.15-2.124 10-.284 3.85-1.187 8.322-2.007 9.937-.82 1.615-1.702 6.79-1.959 11.5-.257 4.71-1.14 10.415-1.962 12.679-.822 2.263-1.963 10.588-2.534 18.5C1.115 469.48.709 570.13.626 748.5l-.126 274 114.178.214 114.179.213 2.049-4.234 2.05-4.233.272-260.48c.221-211.98.516-261.033 1.581-263.45.72-1.633 1.706-8.158 2.191-14.5.485-6.341 1.564-13.33 2.397-15.53.834-2.2 1.535-6.037 1.559-8.527.024-2.491.709-5.478 1.522-6.638.813-1.161 1.773-4.748 2.133-7.973.36-3.224 1.248-6.549 1.974-7.388.726-.839 1.626-3.539 2-6 .375-2.461 1.234-5.149 1.911-5.974.676-.825 1.51-2.989 1.853-4.808.343-1.819 1.305-3.989 2.138-4.821.832-.833 1.513-2.546 1.513-3.808 0-1.261.9-3.437 2-4.836 1.1-1.398 2-3.488 2-4.645 0-1.156.9-2.872 2-3.814 1.1-.942 2-2.668 2-3.835 0-1.168.9-2.938 2-3.933 1.1-.995 2-2.571 2-3.502 0-.931.9-2.73 2-3.998 1.1-1.268 2-2.843 2-3.5s.9-2.232 2-3.5c1.1-1.268 2-2.912 2-3.653 0-.741.438-1.347.974-1.347s1.652-1.31 2.48-2.911c.828-1.6 4.029-6.438 7.114-10.75 3.086-4.311 7.032-9.572 8.771-11.69 1.739-2.118 3.86-4.593 4.714-5.5.854-.907 3.779-4.306 6.5-7.553 2.721-3.248 7.801-8.76 11.29-12.25 3.488-3.49 6.638-6.351 7-6.357.361-.006 2.457-1.721 4.657-3.811 2.2-2.091 7.466-6.473 11.701-9.739a2195.71 2195.71 0 0 1 12.658-9.689c2.726-2.062 5.3-3.75 5.72-3.75.42 0 1.59-.748 2.599-1.661 1.01-.914 2.845-2.252 4.079-2.973 1.234-.722 3.629-1.974 5.323-2.781 1.693-.808 3.661-2.17 4.372-3.027.711-.857 2.142-1.558 3.18-1.558 1.038 0 2.658-.9 3.6-2 .942-1.1 2.668-2 3.835-2 1.168 0 2.938-.9 3.933-2 .995-1.1 2.682-2 3.747-2 1.066 0 3.082-.9 4.48-2 1.399-1.1 3.459-2 4.579-2 1.12 0 2.825-.713 3.788-1.585.963-.871 3.625-1.836 5.915-2.143 2.29-.307 4.384-1.131 4.652-1.832.269-.7 2.683-1.575 5.364-1.943 2.681-.369 5.402-1.307 6.047-2.084.645-.777 2.58-1.433 4.3-1.457 1.721-.024 4.928-.744 7.128-1.599 2.2-.856 7.076-1.937 10.835-2.404 3.759-.467 7.472-1.378 8.25-2.024.779-.646 6.823-1.55 13.432-2.009 6.61-.46 13.697-1.302 15.75-1.872 2.053-.57 10.708-1.039 19.233-1.042 9.649-.004 18.459.561 23.338 1.494 4.311.825 10.851 1.5 14.535 1.5 4.133 0 8.875.766 12.387 2 3.129 1.1 7.299 2 9.265 2 1.966 0 4.894.683 6.507 1.517 1.614.834 5.079 1.795 7.701 2.134 2.622.34 5.442 1.184 6.267 1.875.825.691 3.499 1.584 5.942 1.985s5 1.288 5.683 1.971c.682.682 3.013 1.524 5.178 1.871 2.165.346 4.501 1.308 5.19 2.138.688.83 2.477 1.509 3.974 1.509 1.498 0 3.538.9 4.533 2 .995 1.1 2.833 2 4.084 2 1.25 0 2.915.642 3.699 1.426.784.784 2.954 2.125 4.821 2.98 1.868.854 4.184 2.013 5.146 2.574l3.5 2.04c.962.561 3.1 1.703 4.75 2.537 1.65.835 5.025 2.854 7.5 4.487 2.475 1.634 5.288 3.244 6.25 3.58.962.335 1.75.917 1.75 1.292 0 .376 3.6 3.058 8 5.961 4.4 2.903 8 5.624 8 6.048 0 .423.862 1.176 1.915 1.672 1.053.497 3.793 2.478 6.089 4.403 2.296 1.925 6.868 6.087 10.161 9.25 3.292 3.162 6.349 5.75 6.794 5.75.444 0 1.043.9 1.331 2 .287 1.1 1.24 2 2.116 2 .877 0 1.594.472 1.594 1.049s2.587 3.706 5.75 6.953c3.163 3.247 6.53 6.938 7.484 8.201.953 1.263 4.33 5.672 7.504 9.797 3.174 4.125 7.118 9.438 8.766 11.807 1.648 2.368 4.019 5.968 5.268 8 1.25 2.031 2.785 4.705 3.411 5.943.626 1.238 1.481 2.25 1.9 2.25.419 0 1.27 1.539 1.891 3.42.62 1.881 1.78 3.961 2.577 4.622.797.662 1.449 1.978 1.449 2.925 0 .948.9 2.538 2 3.533 1.1.995 2 2.795 2 4s.9 3.005 2 4c1.1.995 2 2.796 2 4.002s.9 3.23 2 4.498c1.1 1.268 2 3.404 2 4.745 0 1.342.9 3.584 2 4.982 1.1 1.399 2 3.777 2 5.285 0 1.509.653 3.285 1.451 3.947.798.663 1.753 3.305 2.122 5.873.37 2.567 1.233 5.343 1.92 6.168.686.825 1.558 3.975 1.937 7s1.267 6.4 1.974 7.5c.706 1.1 1.577 5.207 1.936 9.127.358 3.92 1.325 8.42 2.149 10 .929 1.78 1.513 5.725 1.537 10.373.022 4.125.636 13.688 1.365 21.25 1.101 11.42 1.101 16.08 0 27.5-.729 7.563-1.341 17.26-1.359 21.55-.02 5.01-.583 8.865-1.572 10.778-.847 1.638-1.801 6.003-2.119 9.7-.318 3.697-1.144 7.633-1.835 8.746-.691 1.114-1.586 4.489-1.989 7.5-.403 3.012-1.3 6.151-1.993 6.976-.694.825-1.511 3.477-1.817 5.894-.305 2.417-1.087 4.723-1.737 5.124-.65.402-1.588 2.909-2.086 5.572-.497 2.663-1.575 5.217-2.394 5.676-.82.458-1.49 2.092-1.49 3.631 0 1.538-.9 3.835-2 5.103-1.1 1.268-2 3.076-2 4.018 0 .942-.9 2.856-2 4.255-1.1 1.398-2 3.159-2 3.912 0 .754-.781 2.483-1.735 3.842-.954 1.36-3.189 5.173-4.966 8.473-1.778 3.3-3.808 7.125-4.511 8.5-.703 1.375-4.543 7.365-8.533 13.312-3.99 5.946-7.255 11.009-7.255 11.25 0 .241-.788 1.269-1.75 2.286-.962 1.016-2.65 3.125-3.75 4.686a106.714 106.714 0 0 1-4.25 5.546c-1.237 1.49-2.25 3.206-2.25 3.814 0 .608-.675 1.106-1.5 1.106s-1.5.659-1.5 1.465c0 .805-.9 1.946-2 2.535-1.1.589-2 1.453-2 1.92 0 .467-3.518 4.389-7.817 8.715-4.3 4.326-10.057 9.89-12.795 12.365-2.737 2.475-6.494 5.808-8.349 7.406-1.854 1.598-7.112 5.727-11.685 9.176s-9.223 6.559-10.334 6.912c-1.111.352-2.02 1.036-2.02 1.519 0 .483-1.237 1.561-2.75 2.396a138.763 138.763 0 0 1-5.83 2.997c-1.693.813-3.661 2.179-4.372 3.036-.711.857-2.069 1.558-3.017 1.558-.949 0-2.763.9-4.031 2-1.268 1.1-3.068 2-4 2-.932 0-2.732.9-4 2-1.268 1.1-3.376 2-4.684 2-1.309 0-2.625.641-2.926 1.425-.301.784-2.32 1.725-4.488 2.092-2.168.366-4.507 1.23-5.197 1.921-.69.69-3.044 1.582-5.23 1.982-2.186.401-4.875 1.299-5.975 1.997-1.1.699-3.944 1.576-6.32 1.95-2.377.373-5.302 1.291-6.5 2.039-1.199.748-4.655 1.599-7.68 1.891-3.025.292-6.85 1.242-8.5 2.111-1.691.89-5.44 1.582-8.591 1.586-3.075.003-7.8.711-10.5 1.573-3.802 1.214-13.254 1.794-41.909 2.571-20.35.552-52.697.715-71.882.363l-34.882-.64-6.868 2.252c-3.777 1.239-6.868 2.602-6.868 3.03 0 .429-1.012 1.722-2.25 2.875l-2.25 2.096-.263 108.598c-.233 95.966-.086 108.87 1.263 110.928l1.526 2.329 98.973.021c61.281.014 102.692-.372 108.738-1.011 5.369-.568 11.338-1.664 13.263-2.436 1.925-.772 6.284-1.614 9.687-1.872 3.404-.259 7.216-1.19 8.473-2.071 1.257-.88 4.097-1.603 6.313-1.606 2.215-.004 5.377-.72 7.027-1.593 1.65-.873 5.634-1.968 8.853-2.433 3.22-.465 6.63-1.548 7.579-2.407.949-.858 3.317-1.561 5.262-1.561 2.022 0 4.625-.856 6.079-2 1.398-1.1 3.976-2 5.727-2 1.751 0 4.329-.9 5.727-2 1.399-1.1 3.777-2 5.285-2 1.509 0 3.307-.679 3.995-1.509.689-.83 2.986-1.786 5.104-2.125 2.118-.338 4.368-1.238 5-2 .632-.761 2.863-1.658 4.957-1.993 2.095-.335 4.025-1.174 4.29-1.865.265-.69 2.048-1.549 3.962-1.908 1.913-.359 4.029-1.316 4.702-2.126.673-.811 1.866-1.474 2.652-1.474.787 0 3.319-.977 5.628-2.171a562.564 562.564 0 0 0 5.698-2.978c.825-.444 4.65-2.421 8.5-4.393 3.85-1.973 8.671-4.57 10.713-5.772 2.043-1.203 6.318-3.707 9.5-5.567 3.183-1.859 6.147-3.997 6.587-4.75.44-.753 1.681-1.369 2.759-1.369 1.079 0 2.731-.9 3.673-2 .942-1.1 2.302-2 3.022-2 .72 0 1.559-.653 1.866-1.452.306-.798 2.092-1.958 3.968-2.577 1.877-.619 3.412-1.552 3.412-2.073 0-.521 1.125-1.375 2.5-1.898 1.375-.523 2.5-1.381 2.5-1.908 0-.526 1.012-1.27 2.25-1.651 1.237-.382 2.925-1.31 3.75-2.062.825-.753 2.915-2.496 4.644-3.874 1.73-1.378 3.62-2.505 4.201-2.505.58 0 1.415-.573 1.855-1.274.44-.701 1.925-1.988 3.3-2.86 1.375-.872 7.45-5.542 13.5-10.379 6.05-4.836 11.742-9.512 12.649-10.39.907-.878 3.58-3.172 5.941-5.097 2.36-1.925 6.5-5.525 9.198-8 2.699-2.475 10.826-10.366 18.06-17.536 7.233-7.169 15.627-15.896 18.652-19.394 3.025-3.497 6.4-7.416 7.5-8.709 1.1-1.293 3.668-4.265 5.707-6.606 2.038-2.34 4.851-5.67 6.25-7.399 1.398-1.73 2.543-3.656 2.543-4.282 0-.625.675-1.396 1.5-1.712.825-.317 1.5-1.217 1.5-2 0-.784.61-1.659 1.356-1.945.745-.286 3.445-3.425 6-6.976 2.554-3.551 4.644-6.803 4.644-7.226 0-.424.9-1.541 2-2.483 1.1-.942 2-2.392 2-3.222 0-.831.473-1.51 1.052-1.51.579 0 1.523-1.35 2.098-3s1.475-3 2-3c.525 0 1.412-1.314 1.972-2.92.56-1.606 1.661-3.167 2.448-3.468.786-.302 1.43-1.394 1.43-2.426 0-1.032.9-2.691 2-3.686 1.1-.995 2-2.585 2-3.533 0-.947.701-2.304 1.558-3.015.857-.711 2.206-2.679 2.998-4.372.792-1.694 2.336-4.43 3.431-6.08 1.096-1.65 2.495-4.125 3.109-5.5.615-1.375 1.529-3.175 2.031-4 .502-.825 1.586-2.85 2.408-4.5.822-1.65 1.938-3.675 2.481-4.5.542-.825 1.434-2.625 1.982-4 .549-1.375 1.378-3.175 1.843-4 .465-.825 1.797-3.525 2.96-6s2.403-5.719 2.755-7.209c.352-1.49 1.271-3.233 2.042-3.872.771-.64 1.402-1.903 1.402-2.806 0-.904.9-3.322 2-5.374 1.1-2.053 2-4.398 2-5.211 0-.814.898-2.953 1.996-4.754 1.098-1.801 1.998-4.456 2-5.902.002-1.445.644-3.158 1.426-3.807.782-.649 1.731-3.067 2.109-5.373.378-2.305 1.258-4.867 1.956-5.692.697-.825 1.586-3.708 1.975-6.406.389-2.698 1.344-5.543 2.123-6.322.778-.778 1.415-3.083 1.415-5.121 0-2.038.775-4.813 1.723-6.165.947-1.353 2.011-5.249 2.364-8.659.379-3.668 1.309-6.866 2.277-7.834 1.035-1.035 1.648-3.354 1.67-6.314.019-2.574.903-6.479 1.966-8.679 1.211-2.507 1.957-6.24 2-10 .043-3.76.789-7.493 2-10 1.31-2.712 1.943-6.184 1.966-10.782.02-3.915.709-8.354 1.629-10.5 1.007-2.345 1.913-8.888 2.455-17.718.473-7.7 1.442-15.8 2.155-18 .979-3.023 1.282-14.133 1.243-45.5-.039-31.819-.355-42.2-1.355-44.5-.717-1.65-1.651-9.187-2.076-16.75-.516-9.192-1.226-14.297-2.144-15.403-.829-.999-1.616-5.399-1.985-11.106-.389-5.999-1.078-9.74-1.887-10.241-.716-.442-1.552-3.795-1.905-7.644-.364-3.967-1.36-7.898-2.363-9.329-1.078-1.537-1.733-4.344-1.733-7.421 0-3.053-.59-5.6-1.54-6.65-.847-.936-1.913-4.059-2.368-6.939-.455-2.879-1.386-5.581-2.069-6.003-.682-.422-1.474-2.96-1.759-5.64-.285-2.681-1.098-5.549-1.807-6.374-.708-.825-1.608-3.3-1.999-5.5s-1.291-4.675-2-5.5c-.709-.825-1.599-3.171-1.978-5.214-.379-2.043-1.317-4.236-2.085-4.873-.767-.637-1.395-2.251-1.395-3.587 0-1.337-.845-4.094-1.878-6.128s-2.833-5.835-4-8.448a2643.055 2643.055 0 0 0-4.27-9.5c-1.181-2.613-2.534-5.425-3.006-6.25a28.184 28.184 0 0 1-1.451-3c-.326-.825-1.92-4.299-3.542-7.721-1.622-3.421-3.378-6.485-3.901-6.809-.524-.323-.952-1.393-.952-2.376 0-.983-.9-2.826-2-4.094-1.1-1.268-2-3.067-2-3.998s-.9-2.507-2-3.502c-1.1-.995-2-2.645-2-3.665s-.9-2.625-2-3.567c-1.1-.942-2-2.527-2-3.522 0-.995-.634-2.052-1.41-2.35-.775-.297-1.712-1.746-2.081-3.218-.369-1.473-1.535-3.483-2.59-4.467-1.056-.984-1.919-2.686-1.919-3.781 0-1.096-.658-2.245-1.462-2.554-.804-.308-1.75-1.47-2.103-2.581-.353-1.112-2.958-5.491-5.788-9.731-2.831-4.241-5.597-8.413-6.147-9.271-.55-.858-2.703-4.046-4.786-7.084-2.082-3.038-4.444-6.07-5.25-6.738-.805-.669-1.464-1.611-1.464-2.093 0-.483-.788-1.704-1.75-2.713-.962-1.009-2.425-2.862-3.25-4.118-.825-1.255-3.537-4.861-6.027-8.013-2.489-3.152-5.189-6.462-6-7.357-.81-.895-2.373-2.793-3.473-4.218-1.1-1.425-3.8-4.65-6-7.167-2.2-2.518-8.388-9.063-13.75-14.547-5.362-5.483-9.75-10.369-9.75-10.857a.89.89 0 0 0-.886-.888c-.488 0-5.55-4.533-11.25-10.074-5.7-5.54-13.176-12.152-16.614-14.693-3.437-2.54-6.25-4.982-6.25-5.426 0-.444-.472-.807-1.05-.807-.577 0-2.623-1.528-4.546-3.396-1.924-1.868-5.389-4.679-7.701-6.245-2.311-1.567-6.381-4.539-9.043-6.604-2.662-2.065-5.474-3.755-6.25-3.755-.775 0-1.41-.461-1.41-1.025 0-.563-1.125-1.452-2.5-1.975-1.375-.523-2.5-1.357-2.5-1.854 0-.497-1.462-1.494-3.25-2.216-1.788-.722-3.61-1.901-4.05-2.621-.44-.72-1.382-1.309-2.095-1.309-.712 0-2.11-.9-3.105-2-.995-1.1-2.57-2-3.5-2-.93 0-2.505-.9-3.5-2-.995-1.1-2.383-2-3.084-2-.7 0-1.946-.673-2.769-1.496-.823-.823-2.543-1.971-3.822-2.552-1.279-.58-4.125-2.146-6.325-3.48-2.2-1.333-5.125-2.899-6.5-3.478a122.011 122.011 0 0 1-3.5-1.528c-.55-.261-3.25-1.793-6-3.404s-5.727-2.959-6.615-2.996c-.888-.036-2.759-.966-4.158-2.066-1.398-1.1-3.301-2-4.227-2-.926 0-2.829-.9-4.227-2-1.399-1.1-3.27-2.003-4.158-2.007-.888-.003-2.965-.9-4.615-1.993-1.65-1.093-3.98-1.99-5.179-1.993-1.198-.004-2.821-.649-3.606-1.435-.785-.785-3.168-1.754-5.296-2.153s-4.421-1.278-5.095-1.952c-.674-.674-2.935-1.543-5.025-1.931-2.089-.388-4.474-1.283-5.299-1.989-.825-.706-3.4-1.524-5.723-1.817-2.322-.293-4.942-1.252-5.821-2.131-.9-.9-3.248-1.599-5.372-1.599-2.504 0-4.383-.673-5.584-2-1.272-1.406-3.08-2-6.084-2-2.584 0-4.906-.633-5.874-1.601-.91-.91-4.452-1.954-8.213-2.42-3.637-.451-6.946-1.359-7.352-2.016-.407-.658-3.671-1.5-7.254-1.871-3.583-.371-7.243-1.279-8.133-2.018-.891-.739-4.875-1.566-8.855-1.839-3.979-.273-8.49-1.133-10.023-1.911-1.534-.778-7.217-1.799-12.629-2.27-5.413-.47-10.812-1.374-11.998-2.008-1.186-.635-10.803-1.645-21.371-2.245-10.568-.599-30.487-1.264-44.265-1.478-13.778-.213-25.327-.112-25.664.225M489.5 389.04c-6.228.344-11.402 1.195-13.718 2.256-2.045.937-4.537 1.704-5.538 1.704-1.002 0-3.586.9-5.744 2s-4.673 2-5.589 2c-.916 0-2.19.631-2.83 1.402-.639.771-2.247 1.674-3.571 2.006-1.325.333-6.445 3.332-11.378 6.665s-9.217 6.705-9.519 7.494c-.303.788-1.085 1.433-1.738 1.433s-2.903 1.688-5 3.75c-2.098 2.063-4.39 4.259-5.094 4.882-.705.623-2.646 2.648-4.314 4.5-1.668 1.852-4.645 5.393-6.614 7.868-1.969 2.475-4.301 5.85-5.181 7.5a191.56 191.56 0 0 0-3.121 6.182c-.836 1.75-1.978 3.464-2.536 3.809-.558.345-1.015 1.405-1.015 2.357 0 .951-.9 3.494-2 5.652s-2 5.189-2 6.736c0 1.548-.9 5.375-2 8.504-1.51 4.297-2.002 8.271-2.008 16.225-.005 5.794-.671 15.485-1.481 21.535-.809 6.05-1.471 17.75-1.47 26 .001 8.25.654 22.2 1.451 31s1.463 27.089 1.479 40.643c.026 22.519.18 24.704 1.779 25.346.962.386 26.725.645 57.25.575 30.525-.071 59.325-.543 64-1.05 4.675-.507 10.072-1.393 11.993-1.968 1.922-.575 6.212-1.046 9.535-1.046 3.478 0 8.456-.849 11.732-2 3.129-1.1 6.731-2 8.004-2 1.272 0 4.078-.9 6.236-2 2.158-1.1 4.673-2 5.589-2 .916 0 2.226-.675 2.911-1.5s2.029-1.5 2.988-1.5c.958 0 2.815-.805 4.127-1.79 1.312-.984 3.51-2.352 4.885-3.039a118.871 118.871 0 0 0 4.919-2.637c1.331-.763 2.816-2.095 3.3-2.961.484-.865 1.383-1.573 1.997-1.573.614 0 1.829-.656 2.7-1.458.871-.802 4.917-4.74 8.991-8.75 4.074-4.011 7.926-7.967 8.56-8.792.633-.825 2.738-3.525 4.677-6 1.938-2.475 5.36-7.733 7.602-11.685 2.243-3.952 4.403-8.227 4.801-9.5.397-1.273 1.337-3.203 2.088-4.288.751-1.084 1.365-2.79 1.365-3.789 0-1 .9-3.582 2-5.738 1.1-2.156 2-4.987 2-6.292 0-1.304.94-5.366 2.089-9.027 1.89-6.021 2.057-8.587 1.75-26.918-.29-17.331-.592-20.621-2.089-22.736-.962-1.359-1.75-4.174-1.75-6.253 0-2.08-.9-5.46-2-7.513-1.1-2.052-2-4.512-2-5.465 0-.954-.936-3.661-2.08-6.015-1.143-2.355-2.487-4.956-2.985-5.781-.498-.825-1.599-2.85-2.447-4.5-.848-1.65-2.101-3.9-2.785-5-.684-1.1-2.428-3.834-3.876-6.075-1.447-2.242-4.026-5.47-5.729-7.173-1.704-1.704-3.098-3.583-3.098-4.175 0-.592-.689-1.077-1.531-1.077-.843 0-1.808-.72-2.146-1.6-.337-.88-1.694-2.68-3.014-4-1.32-1.32-2.664-2.4-2.986-2.4-.323 0-1.99-1.462-3.705-3.25s-4.942-4.488-7.172-6c-2.229-1.512-4.569-2.75-5.2-2.75-.631 0-1.506-.583-1.946-1.295-.44-.712-3.5-2.573-6.8-4.135-3.3-1.563-7.35-3.448-9-4.19-1.65-.742-4.894-1.818-7.208-2.391-2.314-.574-4.478-1.481-4.809-2.016-.33-.535-2.358-.973-4.505-.973s-6.058-.84-8.691-1.866c-3.838-1.496-8.255-1.943-22.287-2.255-9.625-.215-22-.142-27.5.161"/></svg>