<svg xmlns="http://www.w3.org/2000/svg" viewBox="0 0 960 960">
  <path fill="#000000" d="M494.86,409.59l-37.52-83.51h-35.35v1.44c2.89,2.52,4.69,9.56,4.69,17.31v80.63c0,12.8-1.62,19.12-4.33,21.83v1.44h20.56s0-1.44,0-1.44c-2.71-2.71-5.41-7.22-5.41-21.83v-80.99s46.18,104.26,46.18,104.26h5.23l46.19-104.61v84.05c0,10.1-1.62,16.42-4.33,19.12v1.44h34.81s0-1.44,0-1.44c-2.71-2.71-4.33-9.01-4.33-19.12v-83.34c0-7.76,1.81-14.79,4.69-17.31v-1.44h-34.09l-36.98,83.51h0ZM378.21,373.87v-20.2h-.73l-31.03,11.19v1.27c3.79,3.25,6.49,10.28,6.49,20.92v41.12c0,10.1-1.62,16.42-4.33,19.12v1.44h35.71s0-1.44,0-1.44c-3.06-2.35-6.14-6.68-6.14-19.12v-47.98c3.79-3.6,9.56-5.6,16.96-5.6,6.14,0,11.9,1.08,16.23,3.25h1.44s0-22.54,0-22.54c-1.62-.36-3.97-.54-6.49-.54-12.44,0-22.37,8.66-28.14,19.12h.01Z"/>
</svg>