<svg xmlns="http://www.w3.org/2000/svg" viewBox="0 0 512 512" fill="#1ea2e9">
  <path d="M62.9 87.7C155.8-18.8 317.5-29.9 424.1 63.1c37.7 32.9 65 76.1 78.4 124.4 35 126-30.7 258.1-152.2 306.3-32.5 12.7-67.1 18.9-101.9 18.2-82.7-1.2-165.5 0-248.2-1.1V252.5c.5-60.7 22.7-119.1 62.7-164.8m72 47.7c-32.2 32.2-50.2 75.9-50.1 121.4-.3 56.3 0 112.7 0 169 50.5 1.5 100.9 0 151.4 1.1 27.2.7 54.9-1.1 80.3-11.5 88.2-33.5 132.6-132.1 99.1-220.3S283.4 62.6 195.2 96c-22.7 8.6-43.3 22-60.4 39.2z"/>
  <path d="M182.9 158.9c53.3-40.6 129.5-30.3 170.1 23s30.3 129.5-23 170.1c-20 15.3-44.3 23.9-69.4 24.8-42 .5-84-.9-126.1-.5v-124c.9-36.9 18.8-71.3 48.4-93.4"/>
</svg>