<svg xmlns="http://www.w3.org/2000/svg" viewBox="0 0 904 904"><path d="m451.438 1.813 3.372.001c15.818.024 31.477.19 47.19 2.186l3.31.407c90.239 11.333 177.64 48.58 245.108 110.257a190.29 190.29 0 0 0 4.225 3.736c5.992 5.123 11.578 10.634 17.147 16.205 1.636 1.633 3.28 3.258 4.923 4.883 5.815 5.784 11.255 11.683 16.372 18.109a149.374 149.374 0 0 0 4.927 5.872C857.23 230.454 894.094 322.109 901 411l.261 3.204c.9 12.406.938 24.8.927 37.233l-.001 3.367c-.018 15.826-.265 31.47-2.187 47.196l-.292 2.624c-10.126 90.217-49.002 178.663-110.372 245.794a190.29 190.29 0 0 0-3.736 4.225c-5.123 5.992-10.634 11.578-16.205 17.147a1354.281 1354.281 0 0 0-4.883 4.923c-5.784 5.815-11.683 11.255-18.109 16.372a149.374 149.374 0 0 0-5.872 4.927C673.671 857.119 581.617 894.115 493 901l-3.204.261c-12.406.9-24.8.939-37.233.927l-3.373-.002c-15.82-.024-31.474-.202-47.19-2.186l-3.245-.39C306.965 888.334 222.348 849.964 153 789l-2.738-2.395c-6.676-5.98-13.052-12.268-19.412-18.58-1.008-1-2.017-1.997-3.027-2.994-5.995-5.918-11.626-11.997-16.867-18.602-1.89-2.347-3.86-4.582-5.894-6.804C60 689.319 30.706 623.666 14 559l-1.207-4.512C7.742 534.585 4.601 513.463 3 493l-.261-3.2c-.9-12.407-.939-24.802-.926-37.238l.001-3.372C1.838 433.37 2.016 417.716 4 402l.39-3.245c6.56-53.406 21.507-107.03 47.708-154.298 1.701-3.092 3.256-6.21 4.777-9.394 13.354-26.817 32.066-51.683 51.619-74.27a164.09 164.09 0 0 0 3.313-4.09c6.19-7.814 13.02-14.836 20.085-21.856 1.98-1.969 3.949-3.948 5.917-5.929 6.374-6.38 12.772-12.493 19.877-18.063 2.384-1.911 4.598-3.94 6.814-6.043 7.619-6.947 16.141-12.8 24.5-18.812l2.852-2.066C221.583 62.734 254.048 45.367 288 32l2.764-1.095C328.924 15.954 370.129 6.197 411 3l3.2-.261c12.407-.9 24.802-.939 37.238-.926Z"/><path fill="#FEFEFE" d="M283 227c233.858 0 233.858 0 270 13l3.637 1.297C572.448 247.279 587.08 255.054 600 266l2.477 2.02c25.339 21.377 37.292 54.083 40.327 86.24 1.2 16.753.419 33.274-2.804 49.74l-.621 3.555c-5.388 27.372-23.626 52.156-46.48 67.62C569.344 490 569.344 490 562 490c7.994 14.395 16.112 28.704 24.438 42.91 5.604 9.565 11.124 19.18 16.658 28.786 1.92 3.33 3.84 6.66 5.763 9.988a5952.553 5952.553 0 0 1 17.203 29.941c4.78 8.385 9.632 16.728 14.503 25.06a5613.684 5613.684 0 0 1 18.81 32.491c1.447 2.514 2.897 5.027 4.348 7.539l2.215 3.847 1.84 3.192C669 676 669 676 669 677c-17.594.304-35.186.533-52.782.674-8.17.067-16.34.158-24.509.307-7.123.13-14.244.213-21.368.242-3.77.017-7.539.057-11.309.151-3.553.09-7.102.116-10.657.096-1.917.006-3.833.075-5.749.147-3.64-.056-6.249-.241-9.626-1.617-3.54-3.995-5.713-8.168-8-13a255.777 255.777 0 0 0-2.512-4.398 1084.6 1084.6 0 0 1-2.176-3.977 5503.02 5503.02 0 0 0-2.566-4.656l-1.348-2.446c-2.482-4.48-5.002-8.94-7.523-13.398-.54-.956-1.08-1.912-1.638-2.896-4.705-8.311-9.45-16.6-14.196-24.888-5.953-10.402-11.824-20.85-17.67-31.314a4430.678 4430.678 0 0 0-24.327-42.94l-1.388-2.423-1.193-2.08c-2.178-3.848-4.316-7.719-6.463-11.584l-30-1v161H283V227Z"/><path d="M412 324c77.16 0 77.16 0 93.523 14.352 11.833 13.21 13.279 28.332 12.634 45.27-.888 13.475-6.126 25.736-15.93 35.065C477.747 438.52 440.01 432 412 432V324Z"/></svg>