<svg xmlns="http://www.w3.org/2000/svg" viewBox="0 0 193.733 37.438"><path d="M24.979 12.562c0 2.787-1.52 4.46-4.764 4.46h-5.371V8.203h5.372c3.243 0 4.763 1.723 4.763 4.359Zm-24-11.555 5.2 7.213v28.36h8.666V23.153h2.078l7.4 13.43h9.781l-8.21-14.089a10.355 10.355 0 0 0 7.904-10.287c0-6.183-4.358-11.2-13.075-11.2Zm60.035 0H39.22V36.58h21.792v-6.94H47.886v-7.8h11.606v-6.694H47.886V8.211h13.126Zm20.981 26.86-8.818-26.86h-9.226L76.57 36.58h10.846l12.619-35.573h-9.173Zm56.659-9.173C138.654 8.001 130.596.5 120.46.5c-10.085 0-18.3 7.5-18.3 18.194a17.9 17.9 0 0 0 18.3 18.244 17.815 17.815 0 0 0 18.192-18.244Zm-27.62 0c0-6.335 3.649-10.338 9.426-10.338 5.676 0 9.376 4 9.376 10.338 0 6.233-3.7 10.338-9.376 10.338-5.779 0-9.428-4.105-9.428-10.338Zm32.432-17.687V36.58h20.02v-6.95h-11.355V1.007Zm22.248 7.2h9.426V36.58h8.666V8.205h9.426v-7.2h-27.518Z"/></svg>