<?xml version="1.0" encoding="UTF-8"?>
<svg version="1.1" xmlns="http://www.w3.org/2000/svg" width="32" height="32">
<path d="M0 0 C4.8846525 2.26787438 7.73212562 5.1153475 10 10 C10.75381535 15.5997712 10.77303575 20.33499991 8.375 25.5 C3.80134327 30.3143755 0.6912538 32.25156236 -6 32.5 C-12.6912538 32.25156236 -15.80134327 30.3143755 -20.375 25.5 C-22.77303575 20.33499991 -22.75381535 15.5997712 -22 10 C-17.52212837 0.3553534 -9.85292056 -1.32635469 0 0 Z " fill="#7908FF" transform="translate(22,0)"/>
<path d="M0 0 C0 3.3 0 6.6 0 10 C-3.3 11.32 -6.6 12.64 -10 14 C-10 10.7 -10 7.4 -10 4 C-2.25 0 -2.25 0 0 0 Z " fill="#FBF7FF" transform="translate(21,9)"/>
</svg>
