<svg xmlns="http://www.w3.org/2000/svg" viewBox="-0.017 1.099 34.317 19.514"><path d="M30.7 1.3a.5.5 0 0 0-.5.3l-5.6 11.8-5.7-11.8a.5.5 0 0 0-.5-.3h-3.1a.3.3 0 0 0-.3.4L24.2 20a.4.4 0 0 0 .6 0l.6-1.2 5.7-11v12.4a.4.4 0 0 0 .4.4h2.4a.4.4 0 0 0 .4-.4V1.7a.4.4 0 0 0-.4-.4h-3.2ZM14.3 7.5A6.4 6.4 0 0 0 8 1.1H.3a.3.3 0 0 0-.3.4l1.1 2.1a.6.6 0 0 0 .5.3H8a3.5 3.5 0 0 1 3.5 3.5A3.5 3.5 0 0 1 8 11.1H5.2a.2.2 0 0 0-.2.3l4.4 8.8a.7.7 0 0 0 .6.4h2.6a.3.3 0 0 0 .3-.5l-3.2-6.4a6.5 6.5 0 0 0 4.6-6.2Z" style="fill-rule:evenodd"/></svg>