<svg xmlns="http://www.w3.org/2000/svg" viewBox="-0.017335016280412674 1.0994987487792969 34.31733703613281 19.514122009277344">
  <g id="Homepage_ver1" fill="#000000">
    <path d="M30.7,1.3a0.5,0.5,0,0,0-.5.3L24.6,13.4,18.9,1.6a0.5,0.5,0,0,0-.5-0.3H15.3a0.3,0.3,0,0,0-.3.4l9.2,18.3a0.4,0.4,0,0,0,.6,0l0.6-1.2L31.1,7.8V20.2a0.4,0.4,0,0,0,.4.4h2.4a0.4,0.4,0,0,0,.4-0.4V1.7a0.4,0.4,0,0,0-.4-0.4H30.7Z" style="fill-rule:evenodd"></path>
    <path d="M14.3,7.5A6.4,6.4,0,0,0,8,1.1H0.3a0.3,0.3,0,0,0-.3.4L1.1,3.6a0.6,0.6,0,0,0,.5.3H8a3.5,3.5,0,0,1,3.5,3.5A3.5,3.5,0,0,1,8,11.1H5.2a0.2,0.2,0,0,0-.2.3l4.4,8.8a0.7,0.7,0,0,0,.6.4h2.6a0.3,0.3,0,0,0,.3-0.5L9.7,13.7A6.5,6.5,0,0,0,14.3,7.5Z" style="fill-rule:evenodd"></path>
  </g>
</svg>
