<svg xmlns="http://www.w3.org/2000/svg" width="35" height="35" viewBox="0 0 35 35">
  <g fill="#438ab5" fill-rule="evenodd" transform="translate(4 1)">
    <path d="M11.7311354 23.0557769L9.91249858 23.0557769 8.79846449 26.6069057 6.97030597 23 6.79891611 23 4.98027925 26.6347942 3.85672349 23.0557769 2 23.0557769 4.54228294 29.9814077 4.75175943 30 6.86556772 25.9189907 9.00794098 30 9.22693914 29.9814077 11.7311354 23.0557769zM14.3322795 29.8698539L14.3322795 23.0557769 12.7135975 23.0557769 12.7135975 29.8698539 14.3322795 29.8698539zM22.2084227 29.8698539L19.1900568 26.3001328 22.0560762 23.0557769 20.1422227 23.0557769 17.6951564 26.0212483 17.6951564 23.0557769 16.0764744 23.0557769 16.0764744 29.8698539 17.6951564 29.8698539 17.6951564 26.6812749 20.2564826 29.8698539 22.2084227 29.8698539zM25 29.8698539L25 23.0557769 23.381318 23.0557769 23.381318 29.8698539 25 29.8698539zM24.4742178 8.98009586L24.4742178 5.59616787C24.4732494 5.5136357 24.4163953 5.44228159 24.3362569 5.42252065 23.0272354 5.11977548 21.7162784 4.97854841 20.4033857 4.99883944 18.3648587 5.0303453 15.6405277 6.73541461 15.8150159 9.26543298 15.9313414 10.9521119 16.9379659 12.3146739 18.8348893 13.3531189 21.1050121 14.6587079 22.1112168 16.0505228 21.8535034 17.5285637 21.4669332 19.7456249 19.4833026 20.2699349 18.2011186 20.9636596 19.8933668 21.0568854 21.1108284 20.9541788 21.8535034 20.6555398 23.5576643 19.970275 24.621281 18.4776117 24.8765595 17.2814785 25.5814 13.9788769 23.0921699 12.4640398 21.8535034 11.6272857 20.6148368 10.7905315 18.5555838 9.39712448 18.5555838 8.2423436 18.5555838 7.08756273 19.0354769 6.19945178 20.606059 5.98878728 22.2560942 5.76746561 23.8084838 6.80552306 24.0666162 8.65926511 24.1000214 8.89915966 24.2358886 9.00610324 24.4742178 8.98009586z"/>
    <path d="M12.1896778,5.73473633 C12.2458703,5.76929923 12.2836806,5.79287044 12.3031088,5.80544997 C13.8305405,6.79444234 14.5459886,7.96859313 14.4494531,9.32790236 C14.3458984,10.7860487 13.4278718,12.1833682 11.6953731,13.5198609 C11.995423,13.6024263 13.0716006,15.2517434 14.923906,18.4678119 C15.9400176,19.5870375 17.2645126,20.0440386 18.8973912,19.8388151 C17.7166822,20.6938532 16.5941307,21.0918329 15.5297368,21.032754 C13.9331458,20.9441357 12.5153495,20.0153267 11.6953731,18.9752651 C10.8753968,17.9352035 9.17647457,14.3916396 8.02078511,13.3656207 C9.24887971,13.3176267 10.0712516,13.0717507 10.4879009,12.6279929 C11.0163711,12.0651387 11.4324817,11.1727564 11.3052905,9.86386602 C11.242381,9.21648063 10.8576813,8.46000935 10.2600254,7.66096138 C10.1677374,7.53757512 10.1984144,7.42387917 10.3520565,7.31987355 C10.8366434,7.01067102 11.3224095,6.50739801 11.8093549,5.81005452 L11.8102004,5.81066099 C11.8971472,5.68944809 12.0629706,5.65600737 12.1900999,5.73404867 Z"/>
    <path d="M5.46922112,0 C5.93751334,0 6.45488645,0.251926659 6.49405028,0.821037745 C6.52015951,1.20044514 6.40971704,1.46961432 6.16272288,1.62854529 L6.36548563,4.50160863 L9.73880697,4.59010439 C9.80515586,4.59184498 9.86880672,4.61673544 9.91873596,4.66046503 L10.8936611,5.51433494 C11.0118247,5.61782632 11.0237189,5.79751318 10.9202275,5.91567678 C10.9171724,5.91916507 10.9140324,5.92257811 10.9108103,5.92591286 L10.3160188,6.541511 C10.2118589,6.64931459 10.0419078,6.65776756 9.92756462,6.56083181 L9.4018415,6.11514401 L9.4018415,6.11514401 L7.33749093,6.11514401 C6.98986751,6.27375711 6.78712075,6.48688034 6.72925065,6.75451369 C6.67138054,7.02214704 6.66841118,9.38843602 6.72034254,13.8533806 C6.72034254,15.5011837 6.88214839,17.3116009 7.20576008,19.2846324 L5.58460752,21.9888272 L3.70958016,19.2846324 C4.08537518,17.1566151 4.27327269,15.282922 4.27327269,13.6635531 L3.43377358,12.9035744 L4.28218079,12.0252455 C4.31100967,8.71955904 4.31100967,6.96264844 4.28218079,6.75451369 C4.23893746,6.44231156 4.03865152,6.30830705 3.71848826,6.11514401 L1.69132923,6.11514401 L1.15474102,6.5615377 C1.03891569,6.65789407 0.868043682,6.64720638 0.765127903,6.53716821 L0.191996049,5.92437216 C0.0855950374,5.81060756 0.0905023165,5.63241981 0.203003442,5.52468375 L1.09677655,4.66876709 C1.14782548,4.61988037 1.2152487,4.59175365 1.28590527,4.58986886 L4.5946007,4.50160863 L4.5946007,4.50160863 L4.76223107,1.62854529 C4.55067524,1.43081789 4.44489732,1.16164871 4.44489732,0.821037745 C4.44489732,0.310121294 5.0009289,0 5.46922112,0 Z"/>
  </g>
</svg>
