<svg xmlns="http://www.w3.org/2000/svg" fill="none" viewBox="0 0 500 500"><path fill="#2ECC71" fill-rule="evenodd" d="M226.751 498.3c-27.802-3.168-57.35-12.547-89.518-28.415-41.99-20.714-70.648-45.662-93.326-81.246-7.469-11.719-18.59-30.899-22.414-38.653C7.09 320.782-.94 280.054.087 241.407 1.773 177.952 26.619 119.872 71.919 73.49c40.374-41.338 93.714-66.723 150.949-71.839 8.727-.78 23.267-.886 23.267-.17 0 .456-5.382 19.546-8.48 30.081-1.268 4.311-1.335 4.397-3.145 4-2.726-.6-20.954.814-29.636 2.296-42.446 7.248-80.822 28.817-111.76 62.811-24.106 26.487-39.75 52.413-49.25 81.613-5.02 15.43-7.295 28.182-8.397 47.079-2.5 42.849 2.09 74.904 14.45 100.913 6.21 13.07 22.374 40.248 29.019 48.795 7.03 9.044 24.701 29.084 25.638 29.076.544-.004 3.607-.738 6.807-1.63 18.047-5.031 38.97-8.789 59.783-10.737 12.511-1.172 44.294-.98 57.52.346 43.72 4.383 82.951 15.222 118.766 32.813 7.918 3.89 12.216 5.666 13.06 5.398 2.419-.768 18.498-11.885 25.226-17.442 19.973-16.496 30.079-28.154 45.397-52.365 6.68-10.558 18.017-33.099 21.778-43.303 6.057-16.428 9.721-32.13 11.085-47.503.858-9.665.458-40.542-.681-52.674-3.19-33.952-10.391-52.435-35.758-91.774-9.837-15.257-16.788-24.321-25.801-33.646-18.446-19.082-41.496-34.705-65.785-44.585-4.088-1.663-7.529-3.112-7.648-3.22-.117-.11 1.409-7.487 3.394-16.397 1.984-8.91 3.608-16.322 3.608-16.472 0-.38 11.073 3.008 16.229 4.964 26.488 10.049 51.149 27.355 75.244 52.804 15.444 16.312 30.893 37.162 42.308 57.097 12.985 22.68 23.606 54.866 28.077 85.09 6.556 44.323 1.693 84.895-14.842 123.807-14.279 33.608-32.493 61.64-55.48 85.388-13.396 13.84-28.685 26.244-41.448 33.625a1038.008 1038.008 0 0 0-11.351 6.695c-21.487 12.882-48.653 23.638-74.284 29.413-16.419 3.698-27.374 4.903-46.857 5.152-12.814.162-20.454-.038-26.17-.69v.001Zm23.907-125.717c-26.748-1.648-57.514-6.623-81.757-13.222-26.84-7.304-56.116-19.068-76.748-30.838-6.806-3.881-6.948-4.01-6.942-6.276.003-1.272 1.019-12.929 2.256-25.904 1.238-12.974 2.253-24.048 2.256-24.608.005-.844-2.05-1.244-11.968-2.333-6.586-.723-12.152-1.493-12.368-1.709-.484-.484 5.238-61.686 5.821-62.269.23-.23 6.143.062 13.14.647 6.998.587 12.816.972 12.93.859.146-.147 7.962-68.779 7.962-69.921 0-.328 11.211-4.28 16.158-5.696 18.712-5.356 53.151-10.525 82.789-12.427l6.848-.439 1.044-8.403c.573-4.621 1.127-8.481 1.23-8.577.103-.096 6.558.099 14.346.433 7.787.334 14.375.377 14.639.095.265-.282 8.316-22.907 17.892-50.277C277.372 2.593 277.62 1.95 279.401 1.74c2.336-.276 17.16 1.618 21.346 2.726 1.777.471 3.199 1.116 3.158 1.434-.039.317-4.673 22.894-10.296 50.17-5.623 27.277-10.094 49.724-9.934 49.885.16.159 7.249 1.626 15.754 3.259 8.505 1.632 15.585 3.089 15.733 3.237.147.148-.204 4.401-.782 9.451-.578 5.051-.913 9.321-.744 9.489.169.169 3.629.982 7.691 1.807 14.758 2.999 32.12 8.571 50.323 16.152 9.99 4.162 39.506 18.697 40.572 19.98.541.653-.109 9.73-2.575 35.902-1.814 19.266-3.163 35.164-2.997 35.331.166.166 5.853.772 12.638 1.347 10.386.879 12.336 1.205 12.336 2.068 0 1.884-5.748 62.205-5.945 62.397-.108.104-6.085-.303-13.283-.904-8.766-.733-13.1-.873-13.125-.426-.021.369-1.403 12.14-3.071 26.158l-3.033 25.489-8.401 2.13c-26.207 6.647-51.4 10.861-78.526 13.137-11.274.946-44.338 1.317-55.581.624h-.001Zm45.242-40.055c17.489-1.196 35.319-3.661 52.205-7.217 5.605-1.181 6.684-1.608 6.926-2.742.157-.738 3.218-29.548 6.802-64.02 6.173-59.385 6.455-62.721 5.374-63.511-2.244-1.642-13.601-7.206-21.219-10.397-25.649-10.741-52.974-17.465-86.281-21.23-14.523-1.641-54.71-1.635-70.086.011-13.533 1.448-24.593 3.057-36.443 5.3l-9.1 1.724-.368 2.681c-1.499 10.924-13.925 123.233-13.776 124.507.16 1.374 1.5 2.275 8.914 5.994 30.668 15.385 72.228 26.135 111.487 28.837 11.238.773 34.711.806 45.565.063Zm-86.607-84.66c3.823 3.554 7.932 6.886 9.132 7.407 4.159 1.806 9.057.824 12.744-2.555 2.096-1.921 2.362-2.517 2.358-5.284-.007-4.569-1.912-7.83-10.51-17.998-8.491-10.041-12.692-13.442-17.945-14.534-6.963-1.445-11.79.657-22.734 9.902-10.67 9.014-12.467 11.482-12.467 17.119 0 6.623 7.355 12.623 13.956 11.385 1.589-.298 4.969-2.392 9.973-6.177 4.162-3.149 7.787-5.726 8.055-5.726.267 0 3.614 2.908 7.438 6.461Zm93.73 8.803c3.014 3.062 6.773 6.406 8.353 7.432 6.263 4.063 15.966 1.038 17.164-5.352.768-4.094-1.624-8.612-9.738-18.39-4.095-4.934-8.814-10.058-10.488-11.386-6.076-4.822-13.405-5.634-20.225-2.239-4.024 2.003-18.889 14.574-21.08 17.827-3.472 5.156-3.155 9.855.973 14.43 2.697 2.988 5.501 4.389 8.789 4.389 3.439 0 4.934-.803 12.593-6.758 3.905-3.037 7.343-5.522 7.64-5.522.297 0 3.006 2.506 6.019 5.569Z" clip-rule="evenodd"/></svg>