<svg xmlns="http://www.w3.org/2000/svg" viewBox="0 0 35 35"><g fill="#438ab5" fill-rule="evenodd"><path d="M15.731 24.056h-1.819l-1.114 3.55L10.97 24H10.8L8.98 27.635l-1.123-3.58H6l2.542 6.926.21.019 2.114-4.081L13.008 31l.219-.019 2.504-6.925zm2.601 6.814v-6.814h-1.618v6.814h1.618zm7.876 0L23.19 27.3l2.866-3.244h-1.914l-2.447 2.965v-2.965h-1.619v6.814h1.62V27.68l2.56 3.189h1.952zm2.792 0v-6.814h-1.619v6.814H29zm-.526-20.89V6.596a.181.181 0 0 0-.138-.173 16.278 16.278 0 0 0-3.933-.424c-2.038.031-4.762 1.736-4.588 4.266.116 1.687 1.123 3.05 3.02 4.088 2.27 1.306 3.276 2.698 3.019 4.176-.387 2.217-2.37 2.74-3.653 3.435 1.692.093 2.91-.01 3.653-.308 1.704-.686 2.767-2.178 3.023-3.375.704-3.302-1.785-4.817-3.023-5.654-1.24-.836-3.298-2.23-3.298-3.385 0-1.154.48-2.043 2.05-2.253 1.65-.222 3.202.817 3.46 2.67.034.24.17.347.408.321z"/><path d="m16.19 6.735.113.07c1.528.99 2.243 2.164 2.146 3.523-.103 1.458-1.021 2.855-2.754 4.192.3.082 1.377 1.732 3.229 4.948 1.016 1.119 2.34 1.576 3.973 1.37-1.18.856-2.303 1.254-3.367 1.195-1.597-.089-3.015-1.018-3.835-2.058-.82-1.04-2.519-4.583-3.674-5.61 1.228-.047 2.05-.293 2.467-.737.528-.563.944-1.455.817-2.764-.063-.648-.447-1.404-1.045-2.203-.092-.123-.062-.237.092-.341.485-.31.97-.813 1.457-1.51h.001a.284.284 0 0 1 .38-.076Z"/><path d="M9.47 1c.468 0 .985.252 1.024.821.026.38-.084.649-.331.808l.202 2.873 3.374.088c.066.002.13.027.18.07l.975.854a.284.284 0 0 1 .017.412l-.595.616a.284.284 0 0 1-.388.019l-.526-.446h-2.065c-.347.159-.55.372-.608.64-.058.267-.06 2.633-.009 7.098 0 1.648.162 3.459.486 5.432l-1.621 2.704-1.875-2.704c.375-2.128.563-4.002.563-5.621l-.84-.76.85-.879c.028-3.305.028-5.062 0-5.27-.044-.313-.244-.447-.565-.64H5.691l-.536.447a.284.284 0 0 1-.39-.025l-.573-.613a.284.284 0 0 1 .011-.4l.894-.855a.284.284 0 0 1 .189-.08l3.309-.087.167-2.873c-.211-.198-.317-.467-.317-.808C8.445 1.311 9 1 9.469 1Z"/></g></svg>