<svg xmlns="http://www.w3.org/2000/svg" viewBox="0 0 495.606 500">
  <path fill="#06f" d="M225.342 0h45.166a570.552 570.552 0 0 1 55.42 5.005c24.778 3.487 48.46 10.568 71.045 21.24 14.937 7.379 28.609 16.575 41.016 27.588 14.243 14.662 25.513 31.386 33.813 50.171 9.029 20.563 15.213 41.966 18.555 64.21a587.475 587.475 0 0 1 5.25 53.71v55.908a589.666 589.666 0 0 1-5.494 55.42c-3.474 22.466-9.902 44.031-19.287 64.698-7.373 15.903-16.814 30.388-28.32 43.457a163.324 163.324 0 0 1-40.162 29.419c-25.09 12.756-51.62 20.896-79.59 24.414a559.047 559.047 0 0 1-60.302 4.76h-10.254a37.6 37.6 0 0 0-8.545 0h-10.254a560.329 560.329 0 0 1-60.303-4.76c-24.797-3.188-48.56-9.941-71.29-20.264-16.898-7.954-32.197-18.208-45.898-30.761-13.573-14.803-24.438-31.446-32.593-49.927a253.095 253.095 0 0 1-17.578-60.791A569.741 569.741 0 0 1 0 272.95v-46.143c.8-19.173 2.55-38.297 5.249-57.373 3.845-27.404 12.146-53.365 24.902-77.881A167.955 167.955 0 0 1 58.35 53.345c19.031-16.562 40.597-28.932 64.697-37.11a258.43 258.43 0 0 1 42.236-10.498A545.874 545.874 0 0 1 225.343 0Z" opacity=".999"/>
  <path fill="#fefeff" d="M153.076 320.557v-26.123h70.313c-.04 9.44 0 18.88.122 28.32 1.196 9.983 6.526 16.614 15.991 19.898a44.013 44.013 0 0 0 18.067.732c9.724-1.828 15.705-7.566 17.944-17.212 2.842-10.153 1.052-19.35-5.371-27.588a78.699 78.699 0 0 0-9.155-8.91c-4.097-3.12-8.33-6.05-12.696-8.79a2470.793 2470.793 0 0 0-40.527-22.95 216.295 216.295 0 0 1-27.832-19.286c-6.82-5.84-12.558-12.554-17.212-20.142-4.97-9.213-7.655-19.06-8.057-29.54-2.116-41.732 17.05-67.489 57.496-77.272a163.588 163.588 0 0 1 43.945-3.417 132.787 132.787 0 0 1 41.504 7.568c24.4 9.6 37.3 27.545 38.696 53.833.122 7.894.164 15.787.122 23.682h-65.43a758.1 758.1 0 0 0-.122-19.287c-1.298-11.472-7.605-18.348-18.92-20.63-7.49-1.41-14.49-.19-20.997 3.662-4.732 3.724-7.62 8.566-8.667 14.526-1.064 6.603-.088 12.87 2.93 18.799a49.84 49.84 0 0 0 13.306 12.817 309.683 309.683 0 0 0 12.45 7.813 1803.472 1803.472 0 0 1 42.726 23.437 150.206 150.206 0 0 1 32.348 25.025c6.924 7.412 11.765 16.037 14.527 25.879a116.468 116.468 0 0 1 2.075 31.25c-.361 36.833-18.223 60.23-53.59 70.19-16.425 4.104-33.107 5.65-50.048 4.64-14.103-.399-27.775-3.001-41.016-7.813-28.456-11.34-43.43-32.378-44.922-63.11Z"/>
  <path fill="#8eb7ff" d="M223.389 294.434h-70.313v26.123a712.163 712.163 0 0 1-.244-26.367c23.56-.08 47.08 0 70.557.244Z"/>
</svg>
