<svg xmlns="http://www.w3.org/2000/svg" xml:space="preserve" id="svg9969" x="0" y="0" style="enable-background:new 0 0 160.5 55" version="1.1" viewBox="0 0 160.5 55"><style>.st0{fill:#292075}</style><g id="layer1" transform="translate(-33.783 -175.577)"><g id="g9996" transform="translate(.132 -.132)"><path id="path2868" d="M128.5 203.6c-2.9-2.4-6.7-4-10.1-5.4-4.6-1.9-8.6-3.6-8.6-6.6 0-1.3.6-2.6 1.8-3.4 1.2-.9 2.9-1.4 4.7-1.4 5.8 0 10.4 4.1 10.4 4.1l1.1 1 5.1-9.6-.6-.6c-.2-.2-5.6-5.8-16-5.8-5 0-9.6 1.6-12.9 4.5-3.4 2.9-5.3 7-5.3 11.4 0 4.3 1.7 7.8 5.1 10.7 2.9 2.4 6.5 4 10 5.5 4.7 2 8.9 3.8 8.9 7 0 2.4-1.6 5-6.2 5-6.5 0-11.8-5-11.8-5l-1-1-6.4 8.8.6.7c.1.1 1.7 1.9 4.8 3.7 2.8 1.7 7.5 3.6 13.6 3.6 5.3 0 9.9-1.6 13.1-4.7 3.1-2.9 4.8-6.9 4.8-11.3.1-4.7-1.6-8.3-5.1-11.2" class="st0"/><path id="path2870" d="M182.3 229.9h11.9v-53.2h-11.9v53.2z" class="st0"/><path id="path2874" d="M159 219.9h-9.1v-33.3h8c3.6 0 5.6 2 5.6 5.5s-1.8 5.3-5.5 5.3h-2.8v9.8h3.7c2 0 3.7.6 4.9 1.8 1.2 1.3 1.7 2.5 1.7 4.3.1 4.1-2.5 6.6-6.5 6.6m15.8-13.9c-1.2-1.9-2.8-3.3-4.7-4.3 3.1-2.5 4.9-6.3 4.9-10.7 0-4.4-1.7-8.1-4.9-10.6-3-2.4-7.2-3.7-12-3.7h-19.4v53.2h19.6c5.2 0 9.7-1.3 13-3.8 3.8-2.8 5.7-7 5.7-12.2 0-2.9-.7-5.7-2.2-7.9" class="st0"/><path id="path2878" d="M61.2 175.7c-15.2 0-27.5 12.3-27.5 27.6 0 14.3 10.8 26 24.7 27.4v-20c-3-1.1-5.1-4-5.1-7.4 0-4.4 3.6-7.9 7.9-7.9 4.4 0 7.9 3.6 7.9 7.9 0 3.4-2.1 6.3-5.1 7.4v20c13.9-1.4 24.7-13.2 24.7-27.4 0-15.2-12.3-27.6-27.5-27.6" style="fill:#00b5ef"/></g></g></svg>