<svg xmlns="http://www.w3.org/2000/svg" width="351.547" height="329.84"><path d="M1090.05 2469.06c-24.19-7.15-103.737-35.43-111.945-99.52a82 82 0 0 1-.664-10.38c0-1.78.235-3.7.364-5.56-10.262.29-19.739.6-26.133.81l-65.332 1.34-23.559-4.16c-28.023-4.55-103.66-16.9-105.203-94.63-.223-5.16-1.117-25.66-1.117-25.66 0-46.17 9.445-96.59 26.602-141.96 5.046-13.56 12.753-23.97 18.382-31.57.071-.11 3.368-4.86 4.36-6.29 9.855-38.77 26.3-70.63 45.929-98.74-53.027-6.36-106.531-15-159.277-30.85l10.656 1.99c-28.793-2.16-56.379-17.47-84.343-46.81l-2.582-2.71-2.157-3.07c-9.359-13.34-16.133-26.39-20.597-39.33-108.993-32.27-198.711-59.86-271.504-83.66-64.18-21.16-191.942-75.53-197.344-77.84l-3.488-1.48s-.75-.5-.969-.64c-.926-.38-1.899-.79-1.899-.79C20.512 1627.77 0 1560.47 0 1511.02c0-77.67 60.293-99.23 89.273-109.59 6.536-2.34 13.305-4.76 16.79-6.72 39.054-21.38 76.554-14 103.933-8.62l18.535 3.23c13.426 1.65 28.203 6.02 42.918 10.64 13.539-28.39 38.336-54.64 77.246-62.14 33.27-6.51 55.453-.36 73.301 6.07.996-10.01 3.031-19.97 7.145-29.66 6.875-16.22 18.355-31.11 32.617-43.77-23.574-18.45-57.028-51.65-57.028-91.97 0-3.61.274-7.28.844-11-.008.04.399-2.76.399-2.76 3.066-21.52 11.211-78.7 89.461-110.76 30.101-12.33 64.925-15.82 103.968-10.82 3.43-11.8 8.594-22.92 15.438-33.02-21.535-10.618-26.383-14.302-29.688-16.97l-1.097-.91c-14.344-12.238-35.231-31.379-50.989-55.961-6.539-9.769-26.257-42.648-26.257-80.109 0-6.758.64-13.668 2.121-20.629 4.996-23.449 18.433-42.66 38.859-55.539 28.457-17.571 59.524-19.403 83.496-17.114 3.903-25.226 22.399-54.019 79.567-70.777l3.652-1.082c18.387-5.598 43.184-4.641 95.445-.18l21.008 1.61c6.332.222 16.938 1.801 29.336 4.019.02-25.679 7.574-48.519 21.941-65.519l1.036-1.188c32.378-35.941 81.164-45.679 100.636-48.211 21.704-3.019 49.384 6.219 103.054 28.078l13.14 5.274c2.61 1.027 9.13 2.937 16.79 5.066 2.08-2.797 3.56-5.718 6.13-8.359 11.57-11.93 32.27-25.891 65.17-24.75 30.02.793 80.65 12.051 86.31 13.332l3.03.68 2.91 1.05c62.56 22.559 268.81 97.289 296.36 112.11l1.04.57c22.84 11.539 205.84 69.93 283.99 94.859l56.19 18c82.34 25.911 157.95 84.43 179.73 107.129l.8.852c18.25 19.91 30.13 47.211 35.35 81.149.57 3.61.85 7.19.85 10.73 0 17.83-6.96 34.73-16.23 50.72 42.8 19.11 84.58 37.78 85.78 38.31 15.35 5.69 54.79 23.33 71.3 59.78 3.85 8.53 5.57 16.91 6.1 25.08l96.03 24.63c.05.01 1.58.37 1.58.37 28.95 6.86 105.87 25.09 177.5 60.59 66.98 32.41 79.83 70.82 79.83 103.21 0 4.38-.23 8.66-.6 12.8l-.24 2.95-.24-3.74c.31 2.41.46 4.85.46 7.29 0 33.59-27.8 69.46-53.31 88.19-.41 1.45-.69 2.46-.69 2.46-16.17 19.47-40.32 20.74-51.92 21.36l1.3-.09-14.24 2.33c-18.43 3.88-38.47 6.86-81.29 5.91-1.01 12.89-3.02 25.28-7.03 36.8-25.36 76.06-92.5 130.37-170.88 137.82-49.09 6.17-87.12 3.96-128.02.48 35.15 41.09 71.23 87.59 80.71 115.32 8.24 23.4 23.39 130.23 24.13 140.16l.1 1.48.21 13.73c0 29.46-2.97 49.47-5.44 65.61-.18 1.62-3.11 28.05-3.39 30.67-2.34 70.84-14.17 133.75-16.55 145.76l-23.69 117.63-70.81-96.45c-9.23-12.78-20.6-28.08-25.51-34.26-14.11-10.83-79.29-55.93-128.62-86.83-11.04 44.47-37.4 83.58-79.17 113.49l-1.87 1.35-1.99 1.16c-52.54 30.73-110.3 59.29-176.56 60.18-66.4 2.28-128.22-11.25-183.74-40.23-33.75-18.23-58.71-44.83-80.73-68.3-13.84-14.71-26.65-28.35-40.27-39.12l2.63 1.94c-12.03-8.28-23.19-17.08-33.97-26-8.34 43.79-18.04 92.87-39.65 140.64-26.22 56.12-61.23 104.55-110.28 152.92-23.83 24.47-67.53 43.26-91.52 52.28l-2.9 1.03-14.98 5.04z" style="fill:#fff;fill-opacity:1;fill-rule:nonzero;stroke:none" transform="matrix(.13333 0 0 -.13333 0 329.84)"/><path d="M473.715 1191.47c-2.852 17.82 20.695 43.53 44.914 60.65 24.98 17.09 64.922 34.93 89.207 43.49 24.219 7.87 41.348 13.57 54.894 17.87 78.485 27.09 255.391 89.13 262.52 91.97 7.832 3.61 409.42 134.83 443.68 142.01 33.48 7.13 177.58 71.27 192.62 84.14 9.92 8.56 301.68 42.09 339.51 23.53 37.06-18.53-12.12-145.54 55.66-126.98 66.96 18.53 275.99 51.36 313.07-8.52 37.09-59.97 7.18-89.93-19.21-101.31-25.71-10.75-511.44-131.98-511.44-131.98s-691.94-186.88-718.33-191.14c-20.68-3.61-163.326-47.83-217.564-65.61-14.961-5 2.149.69-26.355-7.88-36.418-10.65-29.981-5-46.399-2.12-36.367 7.12-64.199 32.12-67.07 66.3-2.84 33.53 53.527 52.79 49.269 52.79-4.289 0-106.289-52.09-179.757-22.13-54.942 22.13-56.375 56.4-59.219 74.92" style="fill:#fff;fill-opacity:1;fill-rule:nonzero;stroke:none" transform="matrix(.13333 0 0 -.13333 0 329.84)"/><path d="M728.52 1007.06s369.52 114.79 409.46 129.84c39.93 14.95 473.58 134.1 503.58 140.49 29.22 6.43 334.55 100.61 369.43 109.88 34.96 9.26 265.42 70.62 265.42 70.62s73.48 17.78 147.66 21.34c74.18 2.88 76.27-5.69 103.4-7.83 27.13-1.42 10.69-7.13 19.31-10 7.82-2.13 41.31-36.35 39.22-52.78-2.18-16.4 16.34-44.22-51.4-77-67.74-33.58-141.23-50.67-168.36-57.1-27.05-6.39-158.37-40.62-158.37-40.62s32.18-15 22.18-37.13c-10-22.09-44.96-34.22-44.96-34.22l-166.19-74.22s41.39-12.08 47.05-20.66c5.74-8.56 20.7-29.96 18.52-43.47-2.09-13.62-7.13-37.88-22.78-54.97-15.74-16.39-84.18-70.609-159.06-94.191-74.88-24.211-323.16-101.957-349.51-116.957-26.44-14.223-289.63-109.102-289.63-109.102s-50.62-11.441-77.03-12.128c-41.35-1.43-38.51 42.789-38.51 42.789s-53.48-12.871-67.07-18.571c-13.53-5-74.88-32.09-90.552-29.91-16.437 2.129-49.961 9.949-69.902 32.09-19.289 22.82-6.418 68.441.691 73.48 6.418 5 21.379 28.481 21.379 28.481s-94.121-22.09-113.41-22.781c-18.516-.7-83.438-8.621-99.871-3.61-16.367 5.039-54.895 13.571-47.766 43.52 7.129 30.699 26.387 53.488 47.071 62.051 20.695 8.609-74.903-26.352-74.903-26.352s-45.633-16.43-79.16 4.262c-32.832 20.699-12.129 67.789.703 87.008 12.824 20 31.387 36.402 41.367 44.921 10.676 8.61 111.993 52.83 111.993 52.83" style="fill:#1c63b7;fill-opacity:1;fill-rule:nonzero;stroke:none" transform="matrix(.13333 0 0 -.13333 0 329.84)"/><path d="M144.184 1624.47s130.488 55.6 193.277 76.31c144.078 47.09 321.703 98.43 380.211 115.57 55.613 17.09 227.519 69.18 373.038 113.4 115.6 34.96 215.41 64.93 226.15 67.75 24.94 5.7 524.24 162.66 540.68 143.4 16.4-18.52 67.78-64.92 64.92-132.01-2.87-67.74-126.97-232.5-148.37-243.89-22.13-10.73-391.6-83.49-391.6-83.49s191.15 75.62 199.68-2.86c7.91-78.45-148.36-106.28-156.19-110.54-7.83-5-310.29-99.87-537.097-172.63-150.559-48.47-247.531-85.56-256.828-87-24.219-2.14-66.309-34.96-108.426-18.56-28.508 11.38-64.875 43.47-48.488 83.44 16.418 40.7 51.379 48.52 51.379 48.52s-22.844-7.82-71.329-16.43c-48.527-7.84-57.089-26.35-97.031-18.53-40.637 7.83-51.379 56.36-49.246 69.92 2.848 13.53-57.023-14.27-86.293-17.87-29.957-3.56-62.07-17.09-92.031-.69-29.195 16.43-80.59 16.43-80.59 72.74 0 87.05 87.77 108.49 94.184 113.45" style="fill:#ed1c24;fill-opacity:1;fill-rule:nonzero;stroke:none" transform="matrix(.13333 0 0 -.13333 0 329.84)"/><path d="M1933.07 2015.15c0 .04-5.39 22.36-5.39 22.36-4.7 18.3-10.48 41.04-10.96 50.74-4.61 40.61-26.09 74.92-63.92 102-46.75 27.35-97.36 52.66-152.11 53.36-57.99 2.13-111.74-9.48-159.79-34.57-26-14.04-47.04-36.48-67.44-58.22-14.31-15.22-29.08-30.96-45.7-44.09-20.05-13.84-38.66-30.05-56.66-45.7l-31.8-27.05c-.72-.18-4.38-1.78-5.48-1.26l-.72 1.26c-6.5 24.43-11.26 49.57-15.89 73.88-8.42 44.27-17.09 90.05-37 134.05-23.51 50.31-55.42 94.32-100.45 138.58-20.18 20.83-71.6 39.74-73.76 40.57l-.9.3-.89-.25c-2.96-.88-71.84-21.48-76.51-57.93-2.35-18.43 12.11-37.17 43.03-55.7-.05 0 .7-.6 1.37-1.13-8.55-5.69-79.213-3.35-122.104-1.91l-59.785 1.22c-.547-.09-18.703-3.3-18.703-3.3-29.695-4.84-63.379-10.22-63.985-46.58-.71-7.95-1.062-16.09-1.062-24.48 0-40.04 8.191-84.14 23.367-124.27 2.637-7.08 7.305-13.44 11.809-19.52 4.433-6.09 8.672-11.83 11.023-18.22 15.195-66.48 54.719-109.79 96.594-155.71 0 0 .476-.56.691-.78-2.468-.23-5.019-.48-5.019-.48-78.934-7.39-160.645-15.05-238.086-38.31-15.672-1.17-32.852-11.47-51.875-31.44-12.324-17.56-17.891-32.35-17.891-46.96-.633-4.26-.886-8.56-.886-12.92 0-24.47 9.433-49.61 29.218-77.83 26.043-41 54.942-74.09 88.289-101.18 42.285-31.87 88.555-54.04 150.059-71.88 27.148-8.39 49.328 7.18 70.832 22.27 10.242 7.18 20.918 13.95 31.964 18.65-15.987-28.7-28.362-64-28.362-98.22 0-25.97 6.984-51.06 24.812-71.62 20.02-21.57 48.7-32.36 73.99-40.78 15-2.79 29.26-2.48 44.35-2.09l28.42-.18c31.61 2 64.33 18.92 83.75 43.13 56.2 83.31 84.5 172.06 84.5 264.42 0 10.65-.39 21.39-1.15 32.14.4.87 3.15 7 3.15 7s1.06 2.3 2.11 4.52c3.59-3.26 25.67-23.13 25.67-23.13 27.53-21.57 28.79-24.4 44.32-58.66l31.3-66.01c7.92-15.48 11.61-37.96 11.61-65.26 0-123.88-76.31-346.73-183.8-465.79-23.87-26.48-35.65-45.479-35.65-57.569 0-3.082.76-5.699 2.26-7.91 12.61-18.09 71.96 4.738 78.68 7.437l.84.301.48.781c1.53 2.391 151.32 240.16 199.37 429.52 7.92 31.17 12.79 66.31 12.79 102.49 0 74.31-20.44 153.15-76.97 211.23-.61.48-11.65 9.7-11.65 9.7-4.61 4.35-9.91 9.13-16.05 12.82 1.31 2.62 3.74 7.8 5.05 10.53 28-7.34 53.83-18.74 78.74-29.88 30-13.43 58.27-26.08 90.4-32.21 11.35-2.79 19.36-7.44 27.09-11.96 11.74-6.83 22.78-13.22 43.49-12.34l31.91 3.38c14.4 2.13 23.87 3.56 33.83-.99 3.56-1.62 8.44-.79 14.79 2.69 27.56 15 77.74 76.52 81.92 105.79.17 1.65.17 3.61.17 5.7 0 24.92-9.39 77.96-37.57 99.66-14.09 11.04-43.22 25.78-68.88 38.74-20.43 10.31-45.22 22.88-49.74 27.92 75.44 40.96 143.45 9.44 144.14 9.12 70.75-45.56 93.75-60.35 101.88-64.43.35-.26.14-.83.53-1.04 0 0 .34.47.43.56 3.13-1.48 3.74-1.09 4.3-.35l1.61 2.48-3.26 2.13c-2.57 1.65 2.66 12.61 7.22 22.27 10.74 22.6 26.91 56.73 19.7 96.39m-157.93-133.75v-.04z" style="fill:#00a650;fill-opacity:1;fill-rule:nonzero;stroke:none" transform="matrix(.13333 0 0 -.13333 0 329.84)"/><path d="M2381.63 1549.8c-19.35 58.06-69.83 99.1-128.66 104.58-50.74 6.52-87.62 3.26-134.32-.87l-31.66-2.69c-7.73 0-42.09-13.79-89.83-33.23-11.31-4.64-22.13-9.04-31.31-12.69 26.09 21.52 67.58 64.78 102.79 105.45 40.62 45.56 86.8 102.61 94.71 125.74 5.87 16.7 20.78 117.1 21.56 127.67.09 4.04.18 7.87.18 11.52 0 26.18-2.65 43.61-5.04 59.23l-3.65 33.04c-2.18 73.53-15.66 139.58-15.78 140.27l-1.27 6.31-3.83-5.22c-.26-.35-24.26-33.52-30.48-40.44-6.3-6.31-104.57-74.44-159.83-107.13-87.37-52.18-126.85-119.76-139.81-141.98l-3.09-5.22c-8.12-13.3-17.43-33.96-26.38-53.91-8.4-18.66-16.31-36.31-22.09-45.18-8.18-12.05-17.87-38.87-24.96-58.53-3.14-8.65-6.14-16.88-7.22-18.56-5.74-6.14-8.05-18.71-10.26-30.83-1.26-6.96-2.7-13.4-4.7-18.18-.91 1.74-1.91 3.92-2.7 6.3-.26.92-7.74 26.13-55.13 113.89-43.83 81.75-50.53 81.18-132.49 73.96l-30.75-2.57c-90.52-6.61-157.61-53.31-193.62-78.39l-16.61-11.19c-18.61-11.47-55.14-62.95-97.33-122.56l-47.75-66.71 6.37.65c11.18 1.31 21.61-.22 32.74-1.83 11.58-1.65 23.6-3.08 36.38-1.29-.72-3.44-1.52-6.92-1.52-10.41 0-17.38 9.08-34.64 25.87-47.91 20.93-20.91 41.13-33.3 67.29-41.13 3.28-.13 5.2-4.53 6.97-8.83 2.01-4.66 4.05-9.52 7.94-12.17l1.46-1.05 1.91.92c3.26 1.83 4.67 9.43 6.87 82.87.39 14.61.85 29.75 1.24 31.61 15.78 49.92 54.74 81.71 106.66 86.96 19.22 2.09 74.44-4.86 82.53-45.47.22-.75 10.95-24.74 17.31-31.26.08-.32 18-51.75 18-51.75 11.04-32.75 19.74-58.61 39.09-98.84 2.65-4.78 2.91-9.82 3.21-15.09l.83-8.43c.87-4.26 1.3-8.78 1.3-13.43 0-16.27-5.08-34.71-14.56-52.49-7.78-13.52-24.35-33.78-36.57-36.35-31.65-6-39.7-.78-59.13 11.91l-18.01 11.26c-13.12 7.7-25.6 64.01-29.34 85.06 4.38 42.96 10.56 117.18 3.3 123.05-4.39 3.91-12.74-2.61-63.44-49.7-30.74-28.56-68.98-64.09-100.56-87.96-45.07-33.66-67.46-75.7-83.84-106.44-7.11-13.35-13.27-24.88-19.27-31.58-8.53-9.09-5.27-21.34-2.15-33.13l2.84-12.04c5.53-28.18 22.73-49.4 39.34-69.92l3.37-4.17c11.22-15.49 44.61-56.01 44.93-56.41.81-.73 56.85-53.65 102.47-14.61 64.27 20.79 94.79 40.35 96 41.18 22.88 11.31 47.88 22.87 60.19 27.48-20.7-20.05-62.1-74.3-76.53-118.36-14.4-45.26-44.27-117.611-51.92-133.002l-7.83-15.269c-15.09-29.688-50.35-99.227-59.46-108.868-11.5-11.492-15.96-19.402-8.11-30.711 1.65-2.429 3.53-3.691 5.7-3.91 3.86-.308 7.12 2.918 11.22 6.961 3.86 3.828 8.7 8.598 15.17 11.688 9.26 4.832 59.84 51.711 113.31 101.32 42.71 39.57 86.84 80.492 101.19 91.57 29.53 23.012 51.87 45.401 80.14 73.701l7.91 7.87s73.97 75.23 85.4 86.84c9.13-5.74 56.18-34.52 92.88-46.18 26.53-5.22 57.83-9.22 90.78 0 58.71 17.35 147.76 82.4 212.11 133.88l3.74 3-4.34 1.87c-11.92 5.13-25.57.65-42.87-5-21.49-6.96-48.28-15.7-83.32-9.78-50.75 7.43-69.05 14.7-82.4 20l-9.22 3.44c-.04 0-5.47 1.74-5.47 1.74-34.22 10.6-69.62 21.7-90.05 51.34-.18.53-.27 1.05-.27 1.65 0 2.36 1 5.75 2.09 9.49l2.17 8.91c4.66 17.61 18.09 29.57 31.05 41.14l11.66 10.83c23.99 29.13 46.61 47.92 71.22 59.34 20.48 10.49 52.53 23.61 89.66 26.88l22.35.21c24.34.35 47.3.7 71.13-3.08 17.83-2.35 22.57-21.23 27.14-39.49l1.21-4.77c.62-12.05-1.95-27.23-7.08-41.1-4.44-3.82-57.1-9.25-88.49-12.52-43.75-4.48-43.78-4.65-44.44-7.65l-.26-1.13.83-1.22c12.3-18.87 53.01-27.22 76.22-30.48 65.05-9.13 153.67-3.05 183.41 22.78 38.96 35.74 67.83 74.32 83.53 111.58 18.05 47.96 22.04 84.96 12.13 113.35" style="fill:#fddd04;fill-opacity:1;fill-rule:nonzero;stroke:none" transform="matrix(.13333 0 0 -.13333 0 329.84)"/><path d="M712.691 1138.68c-4.218-.13-106.554-52.31-179.718-22.31-54.871 22.53-56.582 56.49-59.414 74.88-1.864 12.31 8.027 28.09 22.16 42.35-22.903-17.22-43.379-41.22-40.723-58.53 2.801-18.35 4.52-52.35 59.395-74.83 56.238-23.05 129.707 2.39 162.578 15.53 15.547 14.96 38.465 23 35.722 22.91m76.532-112.66c-18.789-4.34-46.356-8.56-58.817-6.22-36.328 6.83-64.043 31.83-66.965 66.22-.781 9.18 2.872 17.22 8.418 24.13-13.757-8.95-28.476-22.56-26.98-40.3 2.891-34.36 30.633-59.36 66.961-66.18 2.305-.43 4.133-.91 5.703-1.39a5703 5703 0 0 0 10.977 4.78s24.152 7.56 60.703 18.96" style="fill:#231f20;fill-opacity:1;fill-rule:nonzero;stroke:none" transform="matrix(.13333 0 0 -.13333 0 329.84)"/><path d="m51.754 239.469 112.68 7.051c2.437-18.29 7.402-32.239 14.898-41.829 12.195-15.5 29.629-23.261 52.289-23.261 16.899 0 29.934 3.961 39.082 11.902q13.727 11.894 13.727 27.566c0 9.942-4.364 18.821-13.075 26.672-8.714 7.852-28.933 15.25-60.652 22.219q-77.905 17.52-111.11 46.531c-22.308 19.352-33.46 44.012-33.46 73.989 0 19.703 5.707 38.3 17.125 55.82 11.41 17.512 28.582 31.281 51.504 41.301 22.914 10.031 54.332 15.039 94.242 15.039 48.976 0 86.312-9.11 112.019-27.328 25.711-18.211 41.004-47.18 45.887-86.922l-111.633-6.528c-2.964 17.25-9.191 29.797-18.691 37.641q-14.252 11.759-39.344 11.758-20.654-.001-31.113-8.75c-6.973-5.852-10.453-12.949-10.453-21.309q0-9.15 8.625-16.472c5.578-5.059 18.824-9.758 39.738-14.11 51.762-11.168 88.844-22.449 111.238-33.859q33.594-17.127 48.887-42.481c10.195-16.918 15.293-35.82 15.293-56.73q0-36.867-20.391-67.981c-13.593-20.738-32.589-36.457-56.992-47.187-24.402-10.711-55.16-16.07-92.285-16.07-65.184 0-110.32 12.55-135.418 37.648-25.098 25.09-39.308 56.992-42.617 95.68m607.305-18.039 101.171-11.5c-5.578-21.098-14.726-39.348-27.453-54.782-12.722-15.418-28.972-27.41-48.75-35.937-19.785-8.539-44.929-12.813-75.422-12.813-29.46 0-53.992 2.75-73.593 8.223-19.614 5.481-36.473 14.367-50.586 26.649-14.121 12.269-25.192 26.679-33.203 43.222-8.02 16.539-12.028 38.477-12.028 65.828 0 28.551 4.875 52.321 14.637 71.309 7.145 13.922 16.906 26.41 29.281 37.48 12.375 11.051 25.102 19.27 38.172 24.68 20.735 8.531 47.32 12.801 79.735 12.801 45.312 0 79.863-8.11 103.652-24.32 23.801-16.211 40.48-39.911 50.07-71.098l-100.129-13.34c-3.133 11.848-8.847 20.777-17.129 26.789-8.281 6.02-19.382 9.027-33.328 9.027q-26.403.001-42.746-18.929c-10.89-12.598-16.336-31.699-16.336-57.27 0-22.801 5.399-40.109 16.211-51.937 10.801-11.821 24.57-17.742 41.305-17.742 13.937 0 25.656 3.562 35.16 10.71 9.5 7.149 16.602 18.129 21.309 32.95m243.652 29.539c0-24.75 5-43.047 15.027-54.899 10.02-11.859 22.617-17.781 37.774-17.781q23 0 37.785 17.52 14.764 17.508 14.763 56.211c0 24.05-4.97 41.949-14.9 53.722-9.933 11.77-22.219 17.637-36.855 17.637q-23.28 0-38.438-17.91c-10.109-11.93-15.156-30.098-15.156-54.5m-106.672-.258c0 42.348 14.289 77.25 42.883 104.699 28.574 27.449 67.187 41.18 115.808 41.18 55.6 0 97.6-16.129 126.01-48.371 22.83-25.969 34.25-57.949 34.25-95.949 0-42.688-14.16-77.68-42.49-104.961-28.32-27.27-67.49-40.911-117.504-40.911-44.621 0-80.703 11.321-108.234 33.993-33.817 28.05-50.723 64.828-50.723 110.32m662.731-138.039h-99.36v44.969c-14.8-18.469-29.76-31.641-44.83-39.481s-33.59-11.762-55.55-11.762c-29.28 0-52.25 8.75-68.89 26.274-16.64 17.519-24.96 44.476-24.96 80.91v176.727h106.92v-152.68c0-17.43 3.23-29.797 9.67-37.117 6.45-7.321 15.52-10.973 27.19-10.973 12.72 0 23.14 4.871 31.25 14.641 8.09 9.75 12.15 27.269 12.15 52.539v133.59h106.41zM1651.7 495.93V390.309h58.55V312.41h-58.55v-98.371c0-11.828 1.13-19.66 3.4-23.48 3.47-5.918 9.57-8.868 18.3-8.868 7.83 0 18.81 2.258 32.93 6.778l7.85-73.438c-26.33-5.761-50.9-8.633-73.73-8.633-26.49 0-46.02 3.391-58.56 10.184-12.55 6.789-21.83 17.098-27.85 30.938-5.99 13.839-9 36.25-9 67.23v97.66h-39.22v77.899h39.22v50.98zm113.18-105.621h106.41V112.672h-106.41zm0 105.621h106.41v-72.418h-106.41zm174.38-105.621h99.08v-45.227c14.8 18.469 29.8 31.668 44.96 39.609 15.18 7.93 33.63 11.899 55.43 11.899 29.45 0 52.5-8.758 69.14-26.281 16.66-17.508 24.98-44.567 24.98-81.168V112.672h-106.93v152.68c0 17.418-3.22 29.75-9.67 36.988-6.45 7.23-15.51 10.851-27.19 10.851-12.91 0-23.36-4.882-31.36-14.64-8.03-9.762-12.04-27.281-12.04-52.551V112.672h-106.4zm450.17-134.637c0-20.043 4.28-34.891 12.82-44.57 8.53-9.672 19.78-14.512 33.73-14.512 13.24 0 24.35 5.012 33.32 15.039 8.98 10.019 13.47 25.133 13.47 45.351 0 20.211-4.7 35.68-14.12 46.399-9.41 10.73-20.92 16.082-34.51 16.082s-24.43-4.922-32.54-14.77c-8.1-9.851-12.17-26.191-12.17-49.019m100.14 134.637h99.61V128.09l.25-12.281c0-17.43-3.71-34.028-11.11-49.809-7.4-15.77-17.25-28.531-29.53-38.29-12.31-9.76-27.89-16.82-46.8-21.179C2483.07 2.171 2461.43 0 2437.01 0c-55.76 0-94.06 8.371-114.88 25.09-20.84 16.73-31.25 39.129-31.25 67.191 0 3.488.17 8.188.53 14.117l103.26-11.77c2.62-9.577 6.62-16.206 12.03-19.866 7.83-5.403 17.68-8.102 29.53-8.102 15.33 0 26.8 4.102 34.38 12.29 7.59 8.19 11.38 22.48 11.38 42.87v42.09c-10.47-12.371-20.92-21.351-31.38-26.918-16.37-8.722-34.07-13.082-53.07-13.082-37.11 0-67.09 16.211-89.92 48.629-16.21 23-24.32 53.41-24.32 91.242 0 43.219 10.45 76.16 31.37 98.821 20.92 22.648 48.28 33.988 82.09 33.988 21.6 0 39.43-3.66 53.45-10.988 14.05-7.313 27.15-19.43 39.36-36.34z" style="fill:#ed1c24;fill-opacity:1;fill-rule:nonzero;stroke:none" transform="matrix(.13333 0 0 -.13333 0 329.84)"/></svg>