<svg xmlns="http://www.w3.org/2000/svg" version="1.2" viewBox="0 0 180 120"><defs><linearGradient id="a" x2="1" gradientTransform="matrix(0 114.369 -177.525 0 89.989 2.834)" gradientUnits="userSpaceOnUse"><stop offset="0" stop-color="#fad956"/><stop offset="1" stop-color="#ffa10f"/></linearGradient></defs><path d="M1.2 52.8c0-3 2.4-5.4 5.4-5.4 1.4 0 2.7.6 3.6 1.5v-1.4c0-9.9 8-17.9 17.9-17.9 2.5 0 4.9.5 7.1 1.5v-1.5c0-14.8 12-26.8 26.8-26.8 14.7 0 26.6 11.9 26.8 26.6-4.8 4.2-8.7 9.6-11.2 15.7-4.8-3-10.4-4.8-16.5-4.8-12.4 0-23.2 7.1-28.3 17.8H6.6c-3 0-5.4-2.4-5.4-5.3zm141.2-16c-6.6-6.7-15.8-10.8-25.9-10.8C98 26 82.7 39.7 80.2 57.5c-4.5-6.1-11.8-10-20-10-13.8 0-25 11.2-25 25 0 4 .9 7.8 2.6 11.2-8.7 1.7-15.1 8.5-15.1 16.5 0 9.4 8.8 17 19.7 17 4.7 0 9.1-1.5 12.6-4l40.2-39.5c4.4-4.1 10.3-6.6 16.8-6.6 13.6 0 24.7 10.9 25.1 24.4l-.1-.1c.2 4-1.8 8.1-5.7 10.3-5.3 3.1-12 1.4-15-3.7-2.9-5.1-1-11.7 4.4-14.8q1.9-1.1 3.9-1.4-1.8-.4-3.6-.4c-9.9 0-17.9 8-17.9 17.9 0 9.9 8 17.9 17.9 17.9q.6 0 1.3-.1l.5-.1h35.1v.2c10.7-.5 20.9-10.4 20.9-22.5 0-12.3-10.6-22.4-22.9-22.4h-.1c-2 3.6-4.4 5.7-7.1 7.9 2.8-5.2 4.5-11.2 4.5-17.6-.1-10.1-4.2-19.2-10.8-25.8z" style="fill:url(#a)"/></svg>