<svg version="1.2" xmlns="http://www.w3.org/2000/svg" viewBox="0 0 180 120" width="180" height="120">
	<title>seafile</title>
	<defs>
		<linearGradient id="g1" x2="1" gradientUnits="userSpaceOnUse" gradientTransform="matrix(0,114.369,-177.525,0,89.989,2.834)">
			<stop offset="0" stop-color="#fad956"/>
			<stop offset="1" stop-color="#ffa10f"/>
		</linearGradient>
	</defs>
	<style>
		.s0 { fill: url(#g1) } 
	</style>
	<path class="s0" d="m1.2 52.8c0-3 2.4-5.4 5.4-5.4 1.4 0 2.7 0.6 3.6 1.5q0-0.7 0-1.4c0-9.9 8-17.9 17.9-17.9 2.5 0 4.9 0.5 7.1 1.5q0-0.8 0-1.5c0-14.8 12-26.8 26.8-26.8 14.7 0 26.6 11.9 26.8 26.6-4.8 4.2-8.7 9.6-11.2 15.7-4.8-3-10.4-4.8-16.5-4.8-12.4 0-23.2 7.1-28.3 17.8h-19.1-7.1c-3 0-5.4-2.4-5.4-5.3zm141.2-16c-6.6-6.7-15.8-10.8-25.9-10.8-18.5 0-33.8 13.7-36.3 31.5-4.5-6.1-11.8-10-20-10-13.8 0-25 11.2-25 25 0 4 0.9 7.8 2.6 11.2-8.7 1.7-15.1 8.5-15.1 16.5 0 9.4 8.8 17 19.7 17 4.7 0 9.1-1.5 12.6-4l40.2-39.5c4.4-4.1 10.3-6.6 16.8-6.6 13.6 0 24.7 10.9 25.1 24.4q0 0-0.1-0.1c0.2 4-1.8 8.1-5.7 10.3-5.3 3.1-12 1.4-15-3.7-2.9-5.1-1-11.7 4.4-14.8q1.9-1.1 3.9-1.4-1.8-0.4-3.6-0.4c-9.9 0-17.9 8-17.9 17.9 0 9.9 8 17.9 17.9 17.9q0.6 0 1.3-0.1l0.5-0.1h35.1v0.2c10.7-0.5 20.9-10.4 20.9-22.5 0-12.3-10.6-22.4-22.9-22.4q-0.1 0-0.1 0c-2 3.6-4.4 5.7-7.1 7.9 2.8-5.2 4.5-11.2 4.5-17.6-0.1-10.1-4.2-19.2-10.8-25.8z"/>
</svg>