<?xml version="1.0" encoding="UTF-8"?>
<!-- Created with Inkscape (http://www.inkscape.org/) -->
<svg width="211.2" height="135.74" version="1.1" viewBox="0 0 55.879 35.916" xml:space="preserve" xmlns="http://www.w3.org/2000/svg"><g transform="translate(-23.489 -9.6794)"><g transform="matrix(.53468 0 0 .53468 53.352 -60.205)"><path d="m-46.946 197.63c-3.8586-0.56388-8.9072-2.3071-8.9072-3.0755 0-0.33815 2.1155-8.7942 2.253-9.0058 0.02442-0.0376 0.93444 0.34292 2.0223 0.84552 3.1014 1.4329 6.0099 2.1128 9.0862 2.1238 2.3079 8e-3 2.8131-0.075 3.955-0.652 0.72004-0.3638 1.5403-0.98001 1.8229-1.3694 0.63848-0.87981 0.86729-3.024 0.45577-4.2709-0.50803-1.5393-2.1068-2.6841-7.2635-5.2008-4.4145-2.1545-5.0628-2.5607-7.0089-4.3914-2.9584-2.783-4.0548-4.96-4.2181-8.375-0.21613-4.5206 0.98092-7.6315 4.1618-10.816 3.4711-3.4747 7.2194-4.8458 13.254-4.8483 3.7561-2e-3 5.454 0.25617 8.7591 1.3296 3.311 1.0754 3.1778 0.66171 1.8343 5.6982-0.63531 2.3816-1.1803 4.3649-1.2112 4.4075-0.03082 0.0425-0.71317-0.21326-1.5163-0.56845-2.7614-1.2212-4.431-1.5944-7.2045-1.6104-2.3481-0.0135-2.7783 0.0592-3.8229 0.64625-0.6474 0.3638-1.414 1.0681-1.7035 1.565-0.69112 1.1863-0.6791 3.2572 0.02448 4.2185 0.77518 1.0592 3.0419 2.4524 6.5423 4.0212 8.4254 3.7762 11.792 7.9642 11.792 14.669 0 3.5185-1.1859 6.8724-3.2934 9.314-2.2577 2.6157-6.6539 4.7382-11.079 5.3492-2.3728 0.32757-6.4771 0.32549-8.7346-4e-3zm42.397-0.75801c-7.751-0.99097-13.418-4.7767-16.643-11.118-3.4065-6.6981-3.5264-17.134-0.2862-24.917 2.0029-4.8111 5.6709-8.8624 9.9075-10.943 3.6363-1.7854 5.1726-2.117 9.6925-2.0915 3.421 0.0193 4.0718 0.099 6.0099 0.73615 6.6466 2.1852 11.01 7.9451 12.369 16.33 0.39837 2.4564 0.56982 10.092 0.24558 10.936-0.14367 0.3744-1.6497 0.41851-14.287 0.41851-16.079 0-14.406-0.29437-13.832 2.4344 0.92776 4.4056 4.2057 7.4983 8.9334 8.4284 2.5549 0.50264 8.5507 0.1791 11.806-0.63707 1.4552-0.36488 2.8306-0.73504 3.0565-0.82256 0.34092-0.13213 0.55465 0.54968 1.259 4.0162 0.46661 2.2965 0.84738 4.3208 0.84614 4.4984-3e-3 0.43688-4.5773 1.8193-7.6752 2.3197-3.0789 0.49725-9.043 0.71182-11.402 0.4102zm9.6808-30.9c-0.69134-5.228-2.594-8.2264-5.7643-9.0842-1.4427-0.39035-4.3171-0.18171-5.4307 0.39419-1.378 0.71258-2.8813 2.2067-3.7525 3.7294-0.70281 1.2284-1.8519 4.8663-1.8519 5.8629 0 0.28897 1.569 0.35455 8.4829 0.35455h8.4829zm14.602 30.189c-0.09958-0.0996-0.18106-10.817-0.18106-23.817v-23.636h12.967l-0.13512 47.492-6.2351 0.0708c-3.4293 0.0389-6.3166-0.0107-6.4161-0.11024zm18.927-0.7749c-2.4569-1.2243-3.7507-3.3621-3.7507-6.1971 0-4.0218 2.8566-6.8868 6.8533-6.8734 2.0811 7e-3 3.5016 0.58314 4.8429 1.9642 1.4866 1.5307 1.9181 2.6352 1.9181 4.9091 0 2.274-0.43155 3.3784-1.9181 4.9091-2.0224 2.0824-5.2889 2.6119-7.9456 1.288zm-3.2332-40.858v-23.812h12.7v47.625h-12.7zm-12.318-10.418c-2.3487-1.0937-4.0863-3.8244-4.0863-6.4215 0-2.3642 2.078-5.3731 4.3731-6.3321 1.3782-0.57584 4.1346-0.48451 5.557 0.18414 2.5296 1.189 4.3556 4.3961 3.9962 7.0183-0.64944 4.7382-5.5947 7.528-9.84 5.5511z" fill="#a3d4ee"/><path d="m-46.089 197.63c-2.6409-0.28025-6.0013-1.1518-8.0866-2.0973-0.92293-0.41848-1.6781-0.82173-1.6781-0.89612 0-0.42141 2.1977-8.531 2.3578-8.7004 0.1058-0.11194 1.0162 0.17001 2.0231 0.62656 5.5195 2.5026 12.136 2.771 14.184 0.57537 1.0224-1.096 1.2784-1.7479 1.2784-3.2561 0-2.8456-1.2563-4.0789-6.6146-6.4935-8.3606-3.7675-12.137-8.0378-12.164-13.756-0.0336-6.9633 4.5986-12.513 12.032-14.415 2.4415-0.62479 7.4389-0.74991 10.17-0.25462 2.5082 0.45481 6.1397 1.6522 6.8446 2.2568 0.06646 0.057-1.8194 7.3438-2.2089 8.5351-0.08112 0.24808-0.47065 0.15549-1.4643-0.34804-3.2164-1.6299-8.4764-2.2255-10.707-1.2124-2.9425 1.3366-3.6084 4.6831-1.3764 6.9165 0.513 0.51331 2.7129 1.7533 5.4695 3.0829 6.1938 2.9875 8.3728 4.5828 10.173 7.4481 2.3846 3.7955 2.5989 9.5091 0.51754 13.799-1.0643 2.1936-3.9946 4.9996-6.4382 6.165-4.0452 1.9294-8.8298 2.6061-14.312 2.0243zm39.183-1.2774c-8.1794-1.8114-13.411-6.6903-15.721-14.661-3.1277-10.793 0.13947-23.518 7.5854-29.542 3.6177-2.9272 7.6962-4.2956 12.898-4.3273 5.6995-0.0348 9.2025 1.3255 12.876 5 1.7784 1.7789 2.3724 2.5995 3.3605 4.6425 1.3288 2.7475 2.1281 5.565 2.5408 8.9569 0.30182 2.4805 0.35775 7.263 0.10298 8.8043l-0.164 0.99219h-28.317l0.17193 1.645c0.20241 1.9366 1.2882 4.3766 2.6352 5.9219 1.0385 1.1914 3.872 2.7862 5.7349 3.2277 3.4818 0.82532 8.3343 0.59012 13.177-0.63869 1.4991-0.38042 2.7605-0.64824 2.803-0.59516 0.17255 0.21555 1.688 8.3118 1.5866 8.4764-0.18202 0.2955-3.3747 1.2822-5.9836 1.8492-3.6726 0.79823-12.18 0.93643-15.287 0.24835zm12.166-29.858c-0.00729-1.5745-0.68978-4.3856-1.4097-5.8062-0.75767-1.4952-2.4364-3.1197-3.8405-3.7166-1.4292-0.60749-4.385-0.54409-5.8972 0.1265-1.6155 0.71639-3.1982 2.3306-4.1673 4.2503-0.82716 1.6386-1.6141 4.295-1.6141 5.4487v0.68941h16.933zm14.557 5.887v-23.68h12.435v47.36h-12.435zm20.107 23.449c-3.0036-0.98552-5.0137-3.6508-5.0137-6.6478 0-2.5183 1.4887-4.9193 3.8248-6.1686 1.5057-0.80524 4.5884-0.79816 6.1231 0.0141 2.091 1.1066 3.7987 3.8734 3.7987 6.1546 0 2.2564-1.5039 4.7552-3.6019 5.9847-1.2669 0.74247-3.8657 1.0783-5.1311 0.66313zm-4.4962-41.308v-23.812h12.7v47.625h-12.7zm-12.318-10.418c-2.3487-1.0937-4.0863-3.8244-4.0863-6.4215 0-2.3642 2.078-5.3731 4.3731-6.3321 1.3782-0.57584 4.1346-0.48451 5.557 0.18414 2.5296 1.189 4.3556 4.3961 3.9962 7.0183-0.64944 4.7382-5.5947 7.528-9.84 5.5511z" fill="#d9e0a0"/><path d="m-46.089 197.63c-2.6409-0.28025-6.0013-1.1518-8.0866-2.0973-0.92293-0.41848-1.6781-0.82173-1.6781-0.89612 0-0.42141 2.1977-8.531 2.3578-8.7004 0.1058-0.11194 1.0162 0.17001 2.0231 0.62656 5.5195 2.5026 12.136 2.771 14.184 0.57537 1.0224-1.096 1.2784-1.7479 1.2784-3.2561 0-2.8456-1.2563-4.0789-6.6146-6.4935-8.3606-3.7675-12.137-8.0378-12.164-13.756-0.0336-6.9633 4.5986-12.513 12.032-14.415 2.4415-0.62479 7.4389-0.74991 10.17-0.25462 2.5082 0.45481 6.1397 1.6522 6.8446 2.2568 0.06646 0.057-1.8194 7.3438-2.2089 8.5351-0.08112 0.24808-0.47065 0.15549-1.4643-0.34804-3.2164-1.6299-8.4764-2.2255-10.707-1.2124-2.9425 1.3366-3.6084 4.6831-1.3764 6.9165 0.513 0.51331 2.7129 1.7533 5.4695 3.0829 6.1938 2.9875 8.3728 4.5828 10.173 7.4481 2.3846 3.7955 2.5989 9.5091 0.51754 13.799-1.0643 2.1936-3.9946 4.9996-6.4382 6.165-4.0452 1.9294-8.8298 2.6061-14.312 2.0243zm39.183-1.2774c-8.1794-1.8114-13.411-6.6903-15.721-14.661-3.1277-10.793 0.13947-23.518 7.5854-29.542 3.6177-2.9272 7.6962-4.2956 12.898-4.3273 5.6995-0.0348 9.2025 1.3255 12.876 5 1.7784 1.7789 2.3724 2.5995 3.3605 4.6425 1.3288 2.7475 2.1281 5.565 2.5408 8.9569 0.30182 2.4805 0.35775 7.263 0.10298 8.8043l-0.164 0.99219h-28.317l0.17193 1.645c0.20241 1.9366 1.2882 4.3766 2.6352 5.9219 1.0385 1.1914 3.872 2.7862 5.7349 3.2277 3.4818 0.82532 8.3343 0.59012 13.177-0.63869 1.4991-0.38042 2.7605-0.64824 2.803-0.59516 0.17255 0.21555 1.688 8.3118 1.5866 8.4764-0.18202 0.2955-3.3747 1.2822-5.9836 1.8492-3.6726 0.79823-12.18 0.93643-15.287 0.24835zm12.166-29.858c-0.00729-1.5745-0.68978-4.3856-1.4097-5.8062-0.75767-1.4952-2.4364-3.1197-3.8405-3.7166-1.4292-0.60749-4.385-0.54409-5.8972 0.1265-1.6155 0.71639-3.1982 2.3306-4.1673 4.2503-0.82716 1.6386-1.6141 4.295-1.6141 5.4487v0.68941h16.933zm14.557 5.887v-23.68h12.435v47.36h-12.435zm20.107 23.449c-3.0036-0.98552-5.0137-3.6508-5.0137-6.6478 0-2.5183 1.4887-4.9193 3.8248-6.1686 1.5057-0.80524 4.5884-0.79816 6.1231 0.0141 2.091 1.1066 3.7987 3.8734 3.7987 6.1546 0 2.2564-1.5039 4.7552-3.6019 5.9847-1.2669 0.74247-3.8657 1.0783-5.1311 0.66313zm-4.4962-41.445v-23.685l12.568 0.1418 0.13514 47.228h-12.703zm-11.408-10.002c-3.1189-1.1671-4.7516-3.4079-4.7666-6.542-0.02775-5.8028 6.7095-8.9782 11.198-5.278 2.9293 2.4146 3.1534 7.3038 0.45865 10.008-1.808 1.8141-4.7899 2.5984-6.8905 1.8124z" fill="#57b2e1"/><path d="m-48.09 197.26c-3.3416-0.60637-7.8913-2.3329-7.6697-2.9105 0.06505-0.16952 0.55144-1.9665 1.0809-3.9932 0.52942-2.0268 1.0209-3.8788 1.0922-4.1156 0.11253-0.37382 0.39908-0.31472 2.1726 0.44812 3.0351 1.3055 6.1509 2.0301 8.7807 2.042 3.5413 0.0161 5.4836-0.84403 6.3842-2.8271 0.65704-1.4468 0.62921-2.7092-0.09117-4.1352-0.80445-1.5925-2.6043-2.882-6.2839-4.502-9.9335-4.3734-13.424-9.6303-11.586-17.45 0.46979-1.9991 2.0871-4.7896 3.6927-6.3716 1.6804-1.6556 4.2018-3.082 6.9672-3.9413 2.3755-0.7382 7.1304-0.9958 10.208-0.55305 2.1633 0.31116 6.6576 1.6396 7.2719 2.1496 0.2243 0.18616 0.0058 1.3364-0.83173 4.379-0.62477 2.2696-1.185 4.1755-1.2449 4.2354s-0.77246-0.18453-1.5835-0.5432c-2.3412-1.0354-4.6488-1.5494-7.0735-1.5757-3.8347-0.0415-5.8241 1.384-6.0293 4.3203-0.18217 2.6066 1.0944 3.8078 6.7379 6.3401 4.2678 1.915 6.6346 3.4284 8.5849 5.4895 2.5047 2.647 3.4873 5.2657 3.4554 9.2088-0.03444 4.2574-1.1669 7.0981-3.925 9.8454-2.1194 2.1111-5.0945 3.6156-8.5593 4.3283-2.9647 0.60986-8.5667 0.67415-11.551 0.13256zm42.197-0.77981c-7.7811-1.38-13.555-6.049-16.068-12.994-1.1529-3.1862-1.6324-6.2534-1.6324-10.441 0-5.4864 0.91506-9.6054 3.0811-13.869 1.2626-2.4852 2.4001-3.9854 4.5855-6.0469 2.137-2.0159 4.5426-3.436 7.389-4.3621 2.7811-0.90479 8.0465-1.1315 11.003-0.47374 6.6134 1.4713 11.396 6.4583 13.28 13.848 0.82736 3.2449 1.3096 8.9706 0.99627 11.83l-0.23196 2.1167-28.448 0.1369 0.16146 1.1222c0.60909 4.2332 2.5186 7.0667 5.9258 8.7932 3.6514 1.8503 10.304 1.9153 16.536 0.16157 1.0166-0.28606 1.8912-0.47717 1.9437-0.42469 0.05248 0.0525 0.48427 1.9429 0.95952 4.201l0.8641 4.1055-0.95572 0.37754c-1.4577 0.57584-3.6292 1.1576-6.1151 1.6382-3.0735 0.59425-10.609 0.75367-13.275 0.28084zm11.158-30.169c0-2.5118-0.97888-5.5184-2.3675-7.2717-1.0667-1.3468-3.1452-2.4208-5.0126-2.5902-4.878-0.44232-8.5613 3.3824-9.6759 10.047l-0.16592 0.99219h17.222zm14.552 6.0724v-23.68h12.435v47.36h-12.435zm20.092 23.332c-4.4847-1.2568-6.3996-6.7143-3.6754-10.475 1.4681-2.0267 4.0849-3.1466 6.5045-2.7837 1.74 0.26093 3.7795 1.6134 4.7115 3.1244 0.63086 1.0227 0.81764 1.6644 0.89789 3.0847 0.05573 0.98634-0.03668 2.2115-0.20537 2.7227-1.0807 3.2745-4.8743 5.2682-8.2331 4.3269zm-4.4817-41.328v-23.685l12.568 0.1418 0.13514 47.228h-12.703zm-11.408-10.002c-3.1189-1.1671-4.7516-3.4079-4.7666-6.542-0.02775-5.8028 6.7095-8.9782 11.198-5.278 2.9293 2.4146 3.1534 7.3038 0.45865 10.008-1.808 1.8141-4.7899 2.5984-6.8905 1.8124z" fill="#bcc858"/><path d="m-48.09 197.26c-3.3416-0.60637-7.8913-2.3329-7.6697-2.9105 0.06505-0.16952 0.55144-1.9665 1.0809-3.9932 0.52942-2.0268 1.0209-3.8788 1.0922-4.1156 0.11253-0.37382 0.39908-0.31472 2.1726 0.44812 3.0351 1.3055 6.1509 2.0301 8.7807 2.042 3.5413 0.0161 5.4836-0.84403 6.3842-2.8271 0.65704-1.4468 0.62921-2.7092-0.09117-4.1352-0.80445-1.5925-2.6043-2.882-6.2839-4.502-9.9335-4.3734-13.424-9.6303-11.586-17.45 0.46979-1.9991 2.0871-4.7896 3.6927-6.3716 1.6804-1.6556 4.2018-3.082 6.9672-3.9413 2.3755-0.7382 7.1304-0.9958 10.208-0.55305 2.1633 0.31116 6.6576 1.6396 7.2719 2.1496 0.2243 0.18616 0.0058 1.3364-0.83173 4.379-0.62477 2.2696-1.185 4.1755-1.2449 4.2354s-0.77246-0.18453-1.5835-0.5432c-2.3412-1.0354-4.6488-1.5494-7.0735-1.5757-3.8347-0.0415-5.8241 1.384-6.0293 4.3203-0.18217 2.6066 1.0944 3.8078 6.7379 6.3401 4.2678 1.915 6.6346 3.4284 8.5849 5.4895 2.5047 2.647 3.4873 5.2657 3.4554 9.2088-0.03444 4.2574-1.1669 7.0981-3.925 9.8454-2.1194 2.1111-5.0945 3.6156-8.5593 4.3283-2.9647 0.60986-8.5667 0.67415-11.551 0.13256zm42.197-0.77981c-7.7811-1.38-13.555-6.049-16.068-12.994-1.1529-3.1862-1.6324-6.2534-1.6324-10.441 0-5.4864 0.91506-9.6054 3.0811-13.869 1.2626-2.4852 2.4001-3.9854 4.5855-6.0469 2.137-2.0159 4.5426-3.436 7.389-4.3621 2.7811-0.90479 8.0465-1.1315 11.003-0.47374 6.6134 1.4713 11.396 6.4583 13.28 13.848 0.82736 3.2449 1.3096 8.9706 0.99627 11.83l-0.23196 2.1167-28.448 0.1369 0.16146 1.1222c0.60909 4.2332 2.5186 7.0667 5.9258 8.7932 3.6514 1.8503 10.304 1.9153 16.536 0.16157 1.0166-0.28606 1.8912-0.47717 1.9437-0.42469 0.05248 0.0525 0.48427 1.9429 0.95952 4.201l0.8641 4.1055-0.95572 0.37754c-1.4577 0.57584-3.6292 1.1576-6.1151 1.6382-3.0735 0.59425-10.609 0.75367-13.275 0.28084zm11.158-30.169c0-2.5118-0.97888-5.5184-2.3675-7.2717-1.0667-1.3468-3.1452-2.4208-5.0126-2.5902-4.878-0.44232-8.5613 3.3824-9.6759 10.047l-0.16592 0.99219h17.222zm14.552 6.0724v-23.68h12.435v47.36h-12.435zm20.092 23.332c-4.4847-1.2568-6.3996-6.7143-3.6754-10.475 1.4681-2.0267 4.0849-3.1466 6.5045-2.7837 1.74 0.26093 3.7795 1.6134 4.7115 3.1244 0.63086 1.0227 0.81764 1.6644 0.89789 3.0847 0.05573 0.98634-0.03668 2.2115-0.20537 2.7227-1.0807 3.2745-4.8743 5.2682-8.2331 4.3269zm-4.4817-41.191v-23.548h12.435v47.096h-12.435zm-10.799-10.076c-3.8368-0.74145-6.199-4.8559-5.0293-8.7601 0.38478-1.2843 2.0757-3.2456 3.3653-3.9035 4.5917-2.3425 10.162 1.3514 9.7518 6.4663-0.33794 4.2101-3.9699 6.993-8.0879 6.1972z" fill="#aec01c"/><path d="m-48.09 197.26c-3.3416-0.60637-7.8913-2.3329-7.6697-2.9105 0.06505-0.16952 0.55144-1.9665 1.0809-3.9932 0.52942-2.0268 1.0209-3.8788 1.0922-4.1156 0.11253-0.37382 0.39908-0.31472 2.1726 0.44812 3.0351 1.3055 6.1509 2.0301 8.7807 2.042 3.5413 0.0161 5.4836-0.84403 6.3842-2.8271 0.65704-1.4468 0.62921-2.7092-0.09117-4.1352-0.80445-1.5925-2.6043-2.882-6.2839-4.502-9.9335-4.3734-13.424-9.6303-11.586-17.45 0.46979-1.9991 2.0871-4.7896 3.6927-6.3716 1.6804-1.6556 4.2018-3.082 6.9672-3.9413 2.3755-0.7382 7.1304-0.9958 10.208-0.55305 2.1633 0.31116 6.6576 1.6396 7.2719 2.1496 0.2243 0.18616 0.0058 1.3364-0.83173 4.379-0.62477 2.2696-1.185 4.1755-1.2449 4.2354s-0.77246-0.18453-1.5835-0.5432c-2.3412-1.0354-4.6488-1.5494-7.0735-1.5757-3.8347-0.0415-5.8241 1.384-6.0293 4.3203-0.18217 2.6066 1.0944 3.8078 6.7379 6.3401 4.2678 1.915 6.6346 3.4284 8.5849 5.4895 2.5047 2.647 3.4873 5.2657 3.4554 9.2088-0.03444 4.2574-1.1669 7.0981-3.925 9.8454-2.1194 2.1111-5.0945 3.6156-8.5593 4.3283-2.9647 0.60986-8.5667 0.67415-11.551 0.13256zm42.197-0.77981c-7.7811-1.38-13.555-6.049-16.068-12.994-1.1529-3.1862-1.6324-6.2534-1.6324-10.441 0-5.4864 0.91506-9.6054 3.0811-13.869 1.2626-2.4852 2.4001-3.9854 4.5855-6.0469 2.137-2.0159 4.5426-3.436 7.389-4.3621 2.7811-0.90479 8.0465-1.1315 11.003-0.47374 6.6134 1.4713 11.396 6.4583 13.28 13.848 0.82736 3.2449 1.3096 8.9706 0.99627 11.83l-0.23196 2.1167-28.448 0.1369 0.16146 1.1222c0.60909 4.2332 2.5186 7.0667 5.9258 8.7932 3.6514 1.8503 10.304 1.9153 16.536 0.16157 1.0166-0.28606 1.8912-0.47717 1.9437-0.42469 0.05248 0.0525 0.48427 1.9429 0.95952 4.201l0.8641 4.1055-0.95572 0.37754c-1.4577 0.57584-3.6292 1.1576-6.1151 1.6382-3.0735 0.59425-10.609 0.75367-13.275 0.28084zm11.158-30.169c0-2.5118-0.97888-5.5184-2.3675-7.2717-1.0667-1.3468-3.1452-2.4208-5.0126-2.5902-4.878-0.44232-8.5613 3.3824-9.6759 10.047l-0.16592 0.99219h17.222zm14.552 6.0724v-23.68h12.435v47.36h-12.435zm20.092 23.332c-4.4847-1.2568-6.3996-6.7143-3.6754-10.475 1.4681-2.0267 4.0849-3.1466 6.5045-2.7837 1.74 0.26093 3.7795 1.6134 4.7115 3.1244 0.63086 1.0227 0.81764 1.6644 0.89789 3.0847 0.05573 0.98634-0.03668 2.2115-0.20537 2.7227-1.0807 3.2745-4.8743 5.2682-8.2331 4.3269zm-4.3494-41.191v-23.416l12.039 0.1512v46.529l-12.039 0.1512zm-9.9835-10.332c-1.709-0.12125-2.2314-0.27541-3.1711-0.93587-0.61877-0.43489-1.3926-1.203-1.7197-1.7069-0.32705-0.50391-0.70861-1.0524-0.8479-1.2187-0.13929-0.1664-0.18896-0.36684-0.11038-0.44542 0.07859-0.0786 0.05555-0.28418-0.05118-0.45689-0.24605-0.39811-0.25417-2.7353-0.01088-3.129 0.10075-0.16302 0.1096-0.41546 0.01966-0.56098s-0.03743-0.26458 0.11668-0.26458 0.2802-0.17899 0.2802-0.39776c0-0.35718 1.9843-2.5051 2.9324-3.1741 0.20621-0.14552 0.73212-0.30459 1.1687-0.35348 0.43656-0.0489 0.90686-0.19773 1.0451-0.33073 0.34696-0.33381 1.3988-0.30398 1.615 0.0458 0.09777 0.1582 0.40246 0.22888 0.67707 0.15707 0.27462-0.0718 0.49931-0.01 0.49931 0.13754 0 0.14747 0.17859 0.19959 0.39688 0.11583 0.21828-0.0838 0.39688-0.0171 0.39688 0.14808 0 0.16521 0.07316 0.22722 0.16257 0.1378 0.25399-0.25398 2.3998 1.88 2.7566 2.7414 0.176 0.42491 0.41348 0.77257 0.52772 0.77257s0.14544 0.23812 0.06933 0.52916-0.0352 0.52917 0.09092 0.52917c0.27941 0 0.30906 2.454 0.03214 2.6606-0.10843 0.0809-0.2237 0.46787-0.25614 0.8599-0.03245 0.39203-0.17193 0.71278-0.30996 0.71278s-0.18361 0.0674-0.10127 0.1497c0.27039 0.27039-1.7561 2.1872-2.9719 2.8112-1.0411 0.53424-1.4477 0.59276-3.2367 0.46583z" fill="#a4b51a"/><path d="m-48.09 197.26c-3.3416-0.60637-7.8913-2.3329-7.6697-2.9105 0.06505-0.16952 0.55144-1.9665 1.0809-3.9932 0.52942-2.0268 1.0209-3.8788 1.0922-4.1156 0.11253-0.37382 0.39908-0.31472 2.1726 0.44812 3.0351 1.3055 6.1509 2.0301 8.7807 2.042 3.5413 0.0161 5.4836-0.84403 6.3842-2.8271 0.65704-1.4468 0.62921-2.7092-0.09117-4.1352-0.80445-1.5925-2.6043-2.882-6.2839-4.502-9.9335-4.3734-13.424-9.6303-11.586-17.45 0.46979-1.9991 2.0871-4.7896 3.6927-6.3716 1.6804-1.6556 4.2018-3.082 6.9672-3.9413 2.3755-0.7382 7.1304-0.9958 10.208-0.55305 2.1633 0.31116 6.6576 1.6396 7.2719 2.1496 0.2243 0.18616 0.0058 1.3364-0.83173 4.379-0.62477 2.2696-1.185 4.1755-1.2449 4.2354s-0.77246-0.18453-1.5835-0.5432c-2.3412-1.0354-4.6488-1.5494-7.0735-1.5757-3.8347-0.0415-5.8241 1.384-6.0293 4.3203-0.18217 2.6066 1.0944 3.8078 6.7379 6.3401 4.2678 1.915 6.6346 3.4284 8.5849 5.4895 2.5047 2.647 3.4873 5.2657 3.4554 9.2088-0.03444 4.2574-1.1669 7.0981-3.925 9.8454-2.1194 2.1111-5.0945 3.6156-8.5593 4.3283-2.9647 0.60986-8.5667 0.67415-11.551 0.13256zm42.197-0.77981c-7.7811-1.38-13.555-6.049-16.068-12.994-1.1529-3.1862-1.6324-6.2534-1.6324-10.441 0-5.4864 0.91506-9.6054 3.0811-13.869 1.2626-2.4852 2.4001-3.9854 4.5855-6.0469 2.137-2.0159 4.5426-3.436 7.389-4.3621 2.7811-0.90479 8.0465-1.1315 11.003-0.47374 6.6134 1.4713 11.396 6.4583 13.28 13.848 0.82736 3.2449 1.3096 8.9706 0.99627 11.83l-0.23196 2.1167-28.448 0.1369 0.16146 1.1222c0.60909 4.2332 2.5186 7.0667 5.9258 8.7932 3.6514 1.8503 10.304 1.9153 16.536 0.16157 1.0166-0.28606 1.8912-0.47717 1.9437-0.42469 0.05248 0.0525 0.48427 1.9429 0.95952 4.201l0.8641 4.1055-0.95572 0.37754c-1.4577 0.57584-3.6292 1.1576-6.1151 1.6382-3.0735 0.59425-10.609 0.75367-13.275 0.28084zm11.158-30.169c0-2.5118-0.97888-5.5184-2.3675-7.2717-1.0667-1.3468-3.1452-2.4208-5.0126-2.5902-4.878-0.44232-8.5613 3.3824-9.6759 10.047l-0.16592 0.99219h17.222zm14.552 6.0724v-23.68h12.435v47.36h-12.435zm20.092 23.332c-4.4847-1.2568-6.3996-6.7143-3.6754-10.475 1.4681-2.0267 4.0849-3.1466 6.5045-2.7837 1.74 0.26093 3.7795 1.6134 4.7115 3.1244 0.63086 1.0227 0.81764 1.6644 0.89789 3.0847 0.05573 0.98634-0.03668 2.2115-0.20537 2.7227-1.0807 3.2745-4.8743 5.2682-8.2331 4.3269z" fill="#008ad1"/></g></g></svg>
