<svg xmlns="http://www.w3.org/2000/svg" xml:space="preserve" viewBox="0 0 55.879 35.916"><path fill="#a3d4ee" d="M4.762 35.784c-2.063-.301-4.763-1.233-4.763-1.644 0-.18 1.132-4.702 1.205-4.815.013-.02.5.183 1.081.452 1.659.766 3.214 1.13 4.859 1.135 1.234.005 1.504-.04 2.114-.348.385-.195.824-.524.975-.732.341-.47.464-1.617.244-2.284-.272-.823-1.127-1.435-3.884-2.78-2.36-1.153-2.707-1.37-3.748-2.349C1.264 20.931.677 19.767.59 17.941c-.116-2.417.525-4.08 2.225-5.783 1.856-1.858 3.86-2.59 7.087-2.592 2.008-.001 2.916.137 4.683.71 1.77.576 1.7.355.981 3.048-.34 1.273-.631 2.333-.648 2.356-.016.023-.38-.114-.81-.304-1.477-.653-2.37-.852-3.852-.86-1.256-.008-1.486.03-2.044.345-.347.194-.756.57-.911.837-.37.634-.363 1.741.013 2.255.414.566 1.626 1.311 3.498 2.15 4.505 2.02 6.305 4.258 6.305 7.843 0 1.882-.634 3.675-1.761 4.98-1.207 1.399-3.558 2.534-5.924 2.86-1.269.176-3.463.174-4.67-.002zm22.669-.405c-4.145-.53-7.175-2.554-8.899-5.944-1.821-3.582-1.885-9.162-.153-13.323 1.07-2.572 3.032-4.739 5.297-5.851 1.945-.955 2.766-1.132 5.183-1.118 1.829.01 2.177.053 3.213.393 3.554 1.169 5.887 4.248 6.614 8.732.213 1.313.304 5.396.13 5.847-.076.2-.881.224-7.638.224-8.597 0-7.703-.158-7.396 1.301.496 2.356 2.249 4.01 4.777 4.507 1.366.268 4.572.095 6.312-.34.778-.196 1.514-.394 1.634-.44.183-.071.297.293.674 2.147.25 1.228.453 2.31.452 2.405-.002.233-2.447.973-4.104 1.24-1.646.266-4.835.38-6.096.22zm5.176-16.521c-.37-2.796-1.387-4.399-3.082-4.858-.772-.208-2.308-.097-2.904.211-.737.381-1.54 1.18-2.006 1.994-.376.657-.99 2.602-.99 3.135 0 .154.838.19 4.535.19h4.536zm7.807 16.141c-.053-.053-.097-5.784-.097-12.735V9.627h6.934l-.073 25.393-3.333.038c-1.834.02-3.378-.006-3.43-.06zm10.12-.414c-1.313-.655-2.005-1.798-2.005-3.314 0-2.15 1.527-3.682 3.664-3.675 1.113.004 1.872.312 2.59 1.05.794.819 1.025 1.41 1.025 2.625 0 1.216-.23 1.806-1.026 2.625-1.08 1.113-2.827 1.396-4.248.689zm-1.729-21.846V.007h6.79V25.47h-6.79zm-6.586-5.57c-1.256-.585-2.185-2.045-2.185-3.434 0-1.264 1.111-2.873 2.339-3.386.736-.308 2.21-.259 2.97.099 1.353.635 2.33 2.35 2.137 3.752-.347 2.534-2.99 4.025-5.26 2.968z"/><path fill="#d9e0a0" d="M5.22 35.784c-1.412-.15-3.209-.615-4.324-1.121-.493-.224-.897-.44-.897-.48 0-.224 1.175-4.56 1.26-4.651.057-.06.544.09 1.083.335 2.95 1.338 6.488 1.482 7.583.308.547-.586.684-.935.684-1.741 0-1.522-.672-2.181-3.537-3.472-4.47-2.015-6.49-4.298-6.504-7.355-.018-3.724 2.46-6.69 6.434-7.708 1.305-.334 3.977-.4 5.437-.136 1.341.243 3.283.883 3.66 1.207.036.03-.973 3.926-1.181 4.563-.043.133-.252.083-.783-.186-1.72-.871-4.532-1.19-5.725-.648-1.573.715-1.93 2.504-.736 3.698.275.275 1.45.938 2.925 1.648 3.311 1.598 4.477 2.45 5.439 3.983 1.275 2.03 1.39 5.084.277 7.378-.57 1.173-2.136 2.673-3.443 3.296-2.162 1.032-4.72 1.394-7.652 1.082zm20.95-.683c-4.373-.968-7.17-3.577-8.405-7.839-1.673-5.77.074-12.574 4.056-15.795 1.934-1.565 4.115-2.297 6.896-2.314 3.047-.018 4.92.709 6.884 2.674.951.95 1.269 1.39 1.797 2.482.71 1.469 1.138 2.975 1.359 4.789.161 1.326.191 3.883.055 4.707l-.088.53h-15.14l.091.88c.109 1.036.69 2.34 1.41 3.167.555.637 2.07 1.49 3.066 1.726 1.861.44 4.456.315 7.045-.342.802-.203 1.476-.346 1.499-.318.092.115.903 4.444.848 4.532-.097.158-1.804.686-3.199.989-1.964.427-6.512.5-8.174.133zm6.505-15.964c-.003-.842-.368-2.345-.753-3.105-.405-.799-1.303-1.668-2.054-1.987-.764-.325-2.344-.29-3.153.068-.864.383-1.71 1.246-2.228 2.272-.442.877-.863 2.297-.863 2.914v.368h9.054zm7.784 3.148V9.623h6.648v25.323H40.46zm10.75 12.537c-1.605-.527-2.68-1.952-2.68-3.554 0-1.347.796-2.63 2.045-3.298.805-.43 2.453-.427 3.274.007 1.118.592 2.03 2.071 2.03 3.29 0 1.207-.803 2.543-1.925 3.2-.677.398-2.067.577-2.743.355zm-2.403-22.086V.004h6.79v25.464h-6.79zm-6.587-5.57c-1.255-.585-2.185-2.045-2.185-3.434 0-1.264 1.112-2.873 2.339-3.386.737-.308 2.21-.259 2.97.099 1.353.636 2.33 2.35 2.138 3.752-.348 2.534-2.992 4.025-5.262 2.968z"/><path fill="#57b2e1" d="M5.22 35.784c-1.412-.15-3.209-.615-4.324-1.121-.493-.224-.897-.44-.897-.48 0-.224 1.175-4.56 1.26-4.651.057-.06.544.09 1.083.335 2.95 1.338 6.488 1.482 7.583.308.547-.586.684-.935.684-1.741 0-1.522-.672-2.181-3.537-3.472-4.47-2.015-6.49-4.298-6.504-7.355-.018-3.724 2.46-6.69 6.434-7.708 1.305-.334 3.977-.4 5.437-.136 1.341.243 3.283.883 3.66 1.207.036.03-.973 3.926-1.181 4.563-.043.133-.252.083-.783-.186-1.72-.871-4.532-1.19-5.725-.648-1.573.715-1.93 2.504-.736 3.698.275.275 1.45.938 2.925 1.648 3.311 1.598 4.477 2.45 5.439 3.983 1.275 2.03 1.39 5.084.277 7.378-.57 1.173-2.136 2.673-3.443 3.296-2.162 1.032-4.72 1.394-7.652 1.082zm20.95-.683c-4.373-.968-7.17-3.577-8.405-7.839-1.673-5.77.074-12.574 4.056-15.795 1.934-1.565 4.115-2.297 6.896-2.314 3.047-.018 4.92.709 6.884 2.674.951.95 1.269 1.39 1.797 2.482.71 1.469 1.138 2.975 1.359 4.789.161 1.326.191 3.883.055 4.707l-.088.53h-15.14l.091.88c.109 1.036.69 2.34 1.41 3.167.555.637 2.07 1.49 3.066 1.726 1.861.44 4.456.315 7.045-.342.802-.203 1.476-.346 1.499-.318.092.115.903 4.444.848 4.532-.097.158-1.804.686-3.199.989-1.964.427-6.512.5-8.174.133zm6.505-15.964c-.003-.842-.368-2.345-.753-3.105-.405-.799-1.303-1.668-2.054-1.987-.764-.325-2.344-.29-3.153.068-.864.383-1.71 1.246-2.228 2.272-.442.877-.863 2.297-.863 2.914v.368h9.054zm7.784 3.148V9.623h6.648v25.323H40.46zm10.75 12.537c-1.605-.527-2.68-1.952-2.68-3.554 0-1.347.796-2.63 2.045-3.298.805-.43 2.453-.427 3.274.007 1.118.592 2.03 2.071 2.03 3.29 0 1.207-.803 2.543-1.925 3.2-.677.398-2.067.577-2.743.355zm-2.403-22.16V0l6.72.075.072 25.252h-6.792zm-6.1-5.347c-1.668-.624-2.54-1.823-2.549-3.498-.015-3.103 3.588-4.8 5.988-2.822 1.566 1.29 1.686 3.905.245 5.35-.967.97-2.561 1.39-3.684.97z"/><path fill="#bcc858" d="M4.15 35.587c-1.786-.325-4.22-1.248-4.1-1.557.034-.09.294-1.051.577-2.135.283-1.083.546-2.074.584-2.2.06-.2.214-.168 1.162.24 1.623.697 3.289 1.085 4.695 1.091 1.893.009 2.932-.451 3.413-1.511.352-.774.337-1.449-.048-2.211-.43-.852-1.393-1.541-3.36-2.408-5.312-2.338-7.178-5.149-6.195-9.33.251-1.069 1.116-2.56 1.974-3.406.899-.886 2.247-1.648 3.726-2.108 1.27-.395 3.812-.532 5.458-.296 1.156.167 3.56.877 3.888 1.15.12.1.003.714-.445 2.341-.334 1.214-.634 2.233-.666 2.265s-.413-.099-.846-.29c-1.252-.554-2.486-.83-3.782-.843-2.05-.022-3.114.74-3.224 2.31-.098 1.394.585 2.036 3.603 3.39 2.281 1.024 3.547 1.833 4.59 2.935 1.339 1.415 1.864 2.815 1.847 4.924-.018 2.276-.624 3.795-2.098 5.264-1.134 1.129-2.724 1.933-4.577 2.314-1.585.326-4.58.36-6.176.07zm22.562-.417c-4.16-.738-7.247-3.235-8.591-6.948-.617-1.704-.873-3.344-.873-5.583 0-2.933.49-5.135 1.647-7.415.676-1.329 1.284-2.131 2.452-3.233a10.23 10.23 0 0 1 3.951-2.333c1.487-.483 4.302-.605 5.883-.253 3.536.787 6.093 3.453 7.1 7.404.443 1.735.7 4.797.533 6.326l-.124 1.131-15.21.074.086.6c.326 2.263 1.347 3.778 3.168 4.701 1.953.99 5.51 1.024 8.842.087.543-.153 1.011-.256 1.04-.228.027.029.258 1.04.512 2.247l.462 2.195-.51.202c-.78.308-1.941.619-3.27.876-1.644.317-5.673.403-7.098.15zm5.966-16.131c0-1.343-.523-2.95-1.266-3.888-.57-.72-1.681-1.295-2.68-1.385-2.608-.237-4.577 1.808-5.173 5.372l-.09.53h9.21zm7.78 3.247V9.624h6.65v25.323h-6.65zM51.203 34.76c-2.398-.672-3.422-3.59-1.966-5.601.785-1.084 2.184-1.682 3.478-1.488.93.14 2.021.862 2.52 1.67.337.547.437.89.48 1.65.03.527-.02 1.182-.11 1.455-.578 1.751-2.607 2.817-4.402 2.314zm-2.397-22.097V0l6.72.075.072 25.252h-6.792zm-6.1-5.348c-1.667-.624-2.54-1.822-2.548-3.498-.015-3.103 3.587-4.8 5.987-2.822 1.567 1.29 1.686 3.905.246 5.35-.967.97-2.561 1.39-3.685.97z"/><path fill="#aec01c" d="M4.15 35.587c-1.786-.325-4.22-1.248-4.1-1.557.034-.09.294-1.051.577-2.135.283-1.083.546-2.074.584-2.2.06-.2.214-.168 1.162.24 1.623.697 3.289 1.085 4.695 1.091 1.893.009 2.932-.451 3.413-1.511.352-.774.337-1.449-.048-2.211-.43-.852-1.393-1.541-3.36-2.408-5.312-2.338-7.178-5.149-6.195-9.33.251-1.069 1.116-2.56 1.974-3.406.899-.886 2.247-1.648 3.726-2.108 1.27-.395 3.812-.532 5.458-.296 1.156.167 3.56.877 3.888 1.15.12.1.003.714-.445 2.341-.334 1.214-.634 2.233-.666 2.265s-.413-.099-.846-.29c-1.252-.554-2.486-.83-3.782-.843-2.05-.022-3.114.74-3.224 2.31-.098 1.394.585 2.036 3.603 3.39 2.281 1.024 3.547 1.833 4.59 2.935 1.339 1.415 1.864 2.815 1.847 4.924-.018 2.276-.624 3.795-2.098 5.264-1.134 1.129-2.724 1.933-4.577 2.314-1.585.326-4.58.36-6.176.07zm22.562-.417c-4.16-.738-7.247-3.235-8.591-6.948-.617-1.704-.873-3.344-.873-5.583 0-2.933.49-5.135 1.647-7.415.676-1.329 1.284-2.131 2.452-3.233a10.23 10.23 0 0 1 3.951-2.333c1.487-.483 4.302-.605 5.883-.253 3.536.787 6.093 3.453 7.1 7.404.443 1.735.7 4.797.533 6.326l-.124 1.131-15.21.074.086.6c.326 2.263 1.347 3.778 3.168 4.701 1.953.99 5.51 1.024 8.842.087.543-.153 1.011-.256 1.04-.228.027.029.258 1.04.512 2.247l.462 2.195-.51.202c-.78.308-1.941.619-3.27.876-1.644.317-5.673.403-7.098.15zm5.966-16.131c0-1.343-.523-2.95-1.266-3.888-.57-.72-1.681-1.295-2.68-1.385-2.608-.237-4.577 1.808-5.173 5.372l-.09.53h9.21zm7.78 3.247V9.624h6.65v25.323h-6.65zM51.203 34.76c-2.398-.672-3.422-3.59-1.966-5.601.785-1.084 2.184-1.682 3.478-1.488.93.14 2.021.862 2.52 1.67.337.547.437.89.48 1.65.03.527-.02 1.182-.11 1.455-.578 1.751-2.607 2.817-4.402 2.314zm-2.397-22.024V.147h6.649v25.18h-6.649zm-5.774-5.388c-2.051-.396-3.314-2.596-2.689-4.683.206-.687 1.11-1.736 1.8-2.088 2.455-1.252 5.433.723 5.214 3.458-.181 2.25-2.123 3.739-4.325 3.313z"/><path fill="#a4b51a" d="M4.15 35.587c-1.786-.325-4.22-1.248-4.1-1.557.034-.09.294-1.051.577-2.135.283-1.083.546-2.074.584-2.2.06-.2.214-.168 1.162.24 1.623.697 3.289 1.085 4.695 1.091 1.893.009 2.932-.451 3.413-1.511.352-.774.337-1.449-.048-2.211-.43-.852-1.393-1.541-3.36-2.408-5.312-2.338-7.178-5.149-6.195-9.33.251-1.069 1.116-2.56 1.974-3.406.899-.886 2.247-1.648 3.726-2.108 1.27-.395 3.812-.532 5.458-.296 1.156.167 3.56.877 3.888 1.15.12.1.003.714-.445 2.341-.334 1.214-.634 2.233-.666 2.265s-.413-.099-.846-.29c-1.252-.554-2.486-.83-3.782-.843-2.05-.022-3.114.74-3.224 2.31-.098 1.394.585 2.036 3.603 3.39 2.281 1.024 3.547 1.833 4.59 2.935 1.339 1.415 1.864 2.815 1.847 4.924-.018 2.276-.624 3.795-2.098 5.264-1.134 1.129-2.724 1.933-4.577 2.314-1.585.326-4.58.36-6.176.07zm22.562-.417c-4.16-.738-7.247-3.235-8.591-6.948-.617-1.704-.873-3.344-.873-5.583 0-2.933.49-5.135 1.647-7.415.676-1.329 1.284-2.131 2.452-3.233a10.23 10.23 0 0 1 3.951-2.333c1.487-.483 4.302-.605 5.883-.253 3.536.787 6.093 3.453 7.1 7.404.443 1.735.7 4.797.533 6.326l-.124 1.131-15.21.074.086.6c.326 2.263 1.347 3.778 3.168 4.701 1.953.99 5.51 1.024 8.842.087.543-.153 1.011-.256 1.04-.228.027.029.258 1.04.512 2.247l.462 2.195-.51.202c-.78.308-1.941.619-3.27.876-1.644.317-5.673.403-7.098.15zm5.966-16.131c0-1.343-.523-2.95-1.266-3.888-.57-.72-1.681-1.295-2.68-1.385-2.608-.237-4.577 1.808-5.173 5.372l-.09.53h9.21zm7.78 3.247V9.624h6.65v25.323h-6.65zM51.203 34.76c-2.398-.672-3.422-3.59-1.966-5.601.785-1.084 2.184-1.682 3.478-1.488.93.14 2.021.862 2.52 1.67.337.547.437.89.48 1.65.03.527-.02 1.182-.11 1.455-.578 1.751-2.607 2.817-4.402 2.314zm-2.326-22.024V.217l6.437.08v24.879l-6.437.08zm-5.338-5.525c-.914-.064-1.193-.147-1.695-.5-.331-.232-.745-.643-.92-.913a9.776 9.776 0 0 0-.453-.651c-.075-.09-.101-.196-.06-.238.043-.042.03-.152-.027-.245-.131-.212-.136-1.462-.006-1.673.054-.087.06-.222.011-.3s-.02-.141.062-.141.15-.096.15-.213c0-.19 1.061-1.34 1.568-1.697.11-.078.392-.163.625-.189.233-.026.485-.106.559-.177.185-.178.748-.162.863.025.053.084.215.122.362.084.147-.039.267-.006.267.073 0 .08.096.107.212.062.117-.045.213-.009.213.08 0 .088.039.12.087.073.135-.136 1.283 1.005 1.473 1.466.095.227.222.413.283.413s.077.127.037.283-.02.283.048.283c.15 0 .166 1.312.017 1.422-.057.044-.12.25-.136.46-.018.21-.092.381-.166.381s-.098.036-.054.08c.144.145-.94 1.17-1.59 1.503-.556.286-.773.317-1.73.25z"/><path fill="#008ad1" d="M4.15 35.587c-1.786-.325-4.22-1.248-4.1-1.557.034-.09.294-1.051.577-2.135.283-1.083.546-2.074.584-2.2.06-.2.214-.168 1.162.24 1.623.697 3.289 1.085 4.695 1.091 1.893.009 2.932-.451 3.413-1.511.352-.774.337-1.449-.048-2.211-.43-.852-1.393-1.541-3.36-2.408-5.312-2.338-7.178-5.149-6.195-9.33.251-1.069 1.116-2.56 1.974-3.406.899-.886 2.247-1.648 3.726-2.108 1.27-.395 3.812-.532 5.458-.296 1.156.167 3.56.877 3.888 1.15.12.1.003.714-.445 2.341-.334 1.214-.634 2.233-.666 2.265s-.413-.099-.846-.29c-1.252-.554-2.486-.83-3.782-.843-2.05-.022-3.114.74-3.224 2.31-.098 1.394.585 2.036 3.603 3.39 2.281 1.024 3.547 1.833 4.59 2.935 1.339 1.415 1.864 2.815 1.847 4.924-.018 2.276-.624 3.795-2.098 5.264-1.134 1.129-2.724 1.933-4.577 2.314-1.585.326-4.58.36-6.176.07zm22.562-.417c-4.16-.738-7.247-3.235-8.591-6.948-.617-1.704-.873-3.344-.873-5.583 0-2.933.49-5.135 1.647-7.415.676-1.329 1.284-2.131 2.452-3.233a10.23 10.23 0 0 1 3.951-2.333c1.487-.483 4.302-.605 5.883-.253 3.536.787 6.093 3.453 7.1 7.404.443 1.735.7 4.797.533 6.326l-.124 1.131-15.21.074.086.6c.326 2.263 1.347 3.778 3.168 4.701 1.953.99 5.51 1.024 8.842.087.543-.153 1.011-.256 1.04-.228.027.029.258 1.04.512 2.247l.462 2.195-.51.202c-.78.308-1.941.619-3.27.876-1.644.317-5.673.403-7.098.15zm5.966-16.131c0-1.343-.523-2.95-1.266-3.888-.57-.72-1.681-1.295-2.68-1.385-2.608-.237-4.577 1.808-5.173 5.372l-.09.53h9.21zm7.78 3.247V9.624h6.65v25.323h-6.65zM51.203 34.76c-2.398-.672-3.422-3.59-1.966-5.601.785-1.084 2.184-1.682 3.478-1.488.93.14 2.021.862 2.52 1.67.337.547.437.89.48 1.65.03.527-.02 1.182-.11 1.455-.578 1.751-2.607 2.817-4.402 2.314z"/></svg>