<svg xmlns="http://www.w3.org/2000/svg" style="shape-rendering:geometricPrecision;text-rendering:geometricPrecision;image-rendering:optimizeQuality;fill-rule:evenodd;clip-rule:evenodd" viewBox="0 0 320 320"><path fill="#51a8e2" d="M126.5 8.5c58.334-.167 116.668 0 175 .5 4.719.93 7.552 3.763 8.5 8.5.667 58.333.667 116.667 0 175-1.833 9.833-7.667 15.667-17.5 17.5-22 .667-44 .667-66 0-9.833-1.833-15.667-7.667-17.5-17.5l-1-69c-2.263-6.052-6.43-10.219-12.5-12.5l-69-1c-9.833-1.833-15.667-7.667-17.5-17.5-.667-22-.667-44 0-66 2.014-9.846 7.847-15.846 17.5-18Z" style="opacity:.998"/><path fill="#50a8e2" d="M26.5 108.5a2177.1 2177.1 0 0 1 66 .5c9.833 1.833 15.667 7.667 17.5 17.5l1 69c2.263 6.052 6.43 10.219 12.5 12.5l69 1c9.833 1.833 15.667 7.667 17.5 17.5.667 22 .667 44 0 66-1.833 9.833-7.667 15.667-17.5 17.5-58.333.667-116.667.667-175 0-4.719-.929-7.552-3.763-8.5-8.5a7656.462 7656.462 0 0 1 0-175c2.014-9.846 7.847-15.846 17.5-18Z" style="opacity:.998"/></svg>