<svg version="1.1" id="Layer_1" xmlns="http://www.w3.org/2000/svg" xmlns:xlink="http://www.w3.org/1999/xlink" x="0px" y="0px"
	 width="100%" viewBox="0 0 1272 1589" enable-background="new 0 0 1272 1589" xml:space="preserve">
<path fill="#000000" opacity="1.000000" stroke="none" 
	d="
M0.999999,953.000000 
	C1.000000,848.311890 1.000000,743.623779 1.343195,638.368408 
	C29.432117,623.873169 57.188793,609.966980 84.920052,596.010376 
	C106.644798,585.076721 128.338043,574.080505 150.409943,563.062073 
	C164.204376,556.338196 177.662079,549.719727 191.057602,542.977783 
	C212.742798,532.063477 234.387177,521.068054 256.414185,510.058289 
	C269.654236,503.641083 282.568573,497.351196 295.394196,490.885315 
	C314.332977,481.337524 333.208588,471.664520 352.473267,462.017883 
	C361.637817,457.644104 370.472015,453.360321 379.236328,448.938019 
	C400.858093,438.028137 422.447754,427.054749 444.414429,416.057312 
	C450.201752,413.338287 455.648560,410.715759 461.043854,407.991150 
	C482.052460,397.381927 503.044739,386.740326 524.406433,376.056091 
	C539.510803,368.611572 554.251831,361.221771 569.340027,353.779877 
	C583.141296,346.854218 596.595459,339.980682 610.412048,333.053101 
	C619.188049,328.692780 627.601624,324.386444 636.359802,320.158569 
	C640.180847,321.962830 643.657227,323.688690 647.415161,325.664795 
	C648.729980,326.397644 649.772156,326.862152 650.795288,327.365417 
	C666.163818,334.924957 681.529968,342.489563 697.067993,350.367249 
	C720.157349,362.066010 743.075439,373.450531 766.315979,384.997406 
	C788.425049,396.050354 810.211609,406.940948 832.320312,417.993652 
	C839.411743,421.473175 846.180969,424.790588 853.124390,428.411560 
	C853.761902,428.887756 854.244629,429.021118 854.685669,429.238861 
	C869.446167,436.526520 884.202698,443.822296 899.135681,451.420288 
	C922.008789,463.066956 944.706055,474.410278 967.724426,485.877441 
	C988.028992,495.944550 1008.012451,505.887726 1028.315552,515.995789 
	C1039.411377,521.480591 1050.187622,526.800598 1061.146606,532.417480 
	C1069.758057,536.767639 1078.186523,540.820923 1086.806519,545.140503 
	C1101.996216,552.881653 1116.994385,560.356506 1132.310669,567.998474 
	C1173.791626,588.783020 1214.947388,609.414734 1256.125854,630.001160 
	C1261.692261,632.783997 1267.372437,635.339294 1273.000000,638.000000 
	C1273.000000,742.688110 1273.000000,847.376221 1272.633301,952.550415 
	C1251.641846,963.321533 1230.998291,973.569092 1210.398438,983.903687 
	C1194.535767,991.861755 1178.728027,999.929199 1162.536255,1007.988647 
	C1149.084473,1014.669922 1135.992432,1021.310608 1122.540039,1027.990479 
	C1104.417969,1037.002930 1086.656250,1045.976196 1068.534058,1054.987427 
	C1052.114380,1063.072388 1036.055054,1071.119385 1019.649902,1079.224365 
	C1007.535095,1085.244385 995.766235,1091.206787 983.650635,1097.224365 
	C974.869385,1101.576172 966.434875,1105.872681 957.652832,1110.221436 
	C940.201416,1118.904663 923.097473,1127.535645 905.646667,1136.222412 
	C902.820251,1137.531982 900.343872,1138.791992 897.860840,1140.039062 
	C868.571045,1154.749512 839.280212,1169.457764 809.642212,1184.222046 
	C792.238831,1192.843262 775.167480,1201.378418 758.131836,1209.984497 
	C743.609497,1217.320679 729.128174,1224.738159 714.238159,1232.106934 
	C711.225891,1233.401245 708.594421,1234.689087 705.984131,1236.018311 
	C691.518066,1243.385132 677.057068,1250.761963 662.205688,1258.113403 
	C653.515991,1262.347656 645.214966,1266.603760 636.582214,1270.764648 
	C631.513916,1268.408447 626.777344,1266.147583 621.851624,1263.593994 
	C621.200134,1263.117188 620.721436,1262.965820 620.277649,1262.744385 
	C584.512085,1244.888550 548.749268,1227.027222 512.664795,1209.006836 
	C494.300964,1199.779175 476.280029,1190.667725 458.208893,1181.656982 
	C444.853668,1174.997803 431.432983,1168.470093 417.862335,1161.585449 
	C412.421417,1158.671631 407.167053,1156.041016 401.896576,1153.442993 
	C385.947021,1145.581299 369.991241,1137.732178 353.859619,1129.576416 
	C353.217957,1129.103149 352.734802,1128.971680 352.294006,1128.754272 
	C337.562531,1121.491333 322.835114,1114.219971 307.928040,1106.640991 
	C306.438385,1105.680054 305.130371,1105.022949 303.816864,1104.377075 
	C287.892731,1096.545654 271.967712,1088.716064 255.867722,1080.580811 
	C241.751480,1073.382202 227.810440,1066.488770 213.587814,1059.344971 
	C198.535095,1051.784790 183.763992,1044.475098 168.668335,1037.007446 
	C148.560471,1026.955078 128.777145,1017.060791 108.668564,1007.009094 
	C72.562195,988.901184 36.781097,970.950562 0.999999,953.000000 
M267.335785,770.694397 
	C271.311737,772.682617 275.276215,774.694153 279.265625,776.655029 
	C294.471832,784.129150 309.686127,791.586853 325.274475,799.650696 
	C330.563721,802.296448 335.838409,804.971802 341.144958,807.582336 
	C355.721191,814.752991 370.310822,821.896362 385.260406,829.647583 
	C395.818024,834.916931 406.360779,840.216309 416.936859,845.448303 
	C432.930756,853.360718 448.947845,861.226318 465.313599,869.701965 
	C482.620483,878.353821 499.905212,887.050293 517.241028,895.643738 
	C531.760803,902.841187 546.340210,909.918274 561.259216,917.660339 
	C585.850342,929.949158 610.421570,942.278076 635.039795,954.512390 
	C650.833862,962.361511 666.697327,970.071228 682.953491,978.360474 
	C719.005981,996.440308 755.046692,1014.543701 791.147522,1032.526611 
	C792.857544,1033.378418 795.457092,1033.980469 797.029663,1033.294434 
	C802.511658,1030.902710 807.724060,1027.893066 813.762817,1024.992676 
	C912.587219,975.650269 1011.412903,926.310547 1110.218750,876.930969 
	C1111.270996,876.405151 1112.062256,875.357239 1112.975342,874.553040 
	C1111.933472,873.688843 1111.011353,872.585754 1109.832397,871.995117 
	C1067.175049,850.622986 1024.504395,829.277100 981.810364,807.978394 
	C965.587524,799.885315 949.303040,791.915833 932.711975,783.267883 
	C892.011597,762.928711 851.311218,742.589478 809.963684,721.993225 
	C806.111572,720.233215 802.194092,718.602356 798.418274,716.691650 
	C778.542542,706.634033 758.745056,696.421204 738.837097,686.428101 
	C722.296143,678.125244 705.639771,670.052185 688.695435,661.276184 
	C672.711365,653.294067 656.748413,645.269470 640.737305,637.341980 
	C624.884827,629.492981 608.983704,621.742065 592.753784,613.340027 
	C582.787537,608.360352 572.838562,603.345825 562.851196,598.408936 
	C546.261047,590.208130 529.646301,582.057129 512.679077,573.288086 
	C502.720642,568.315002 492.829773,563.197266 482.748383,558.487366 
	C480.661896,557.512634 477.421722,557.118591 475.470154,558.047424 
	C461.870636,564.519714 448.470551,571.411011 434.313385,578.275452 
	C422.591278,584.170959 410.862457,590.053223 399.148499,595.964905 
	C378.080200,606.597534 357.020844,617.247742 335.233154,628.001953 
	C277.539398,656.804565 219.844818,685.605469 162.160339,714.426636 
	C161.365799,714.823547 160.698135,715.474243 159.410370,716.417236 
	C161.385132,717.501099 162.768097,718.320312 164.201859,719.038025 
	C183.671188,728.784912 203.132050,738.549011 222.627289,748.243896 
	C237.380005,755.580322 252.178833,762.824036 267.335785,770.694397 
z"/>
<path fill="#000000" opacity="1.000000" stroke="none" 
	d="
M1273.000000,1273.000000 
	C1273.000000,1378.619019 1273.000000,1484.238159 1273.000000,1590.000000 
	C1062.309326,1590.000000 851.618530,1590.000000 640.124023,1589.752441 
	C640.660278,1588.639526 641.933533,1587.641724 643.349976,1586.928223 
	C673.888123,1571.544556 704.442322,1556.192749 735.345764,1540.797974 
	C753.814270,1531.542480 771.930481,1522.323608 790.412109,1513.052612 
	C807.886841,1504.349487 824.996033,1495.698608 842.469055,1487.020508 
	C874.217834,1471.273315 905.602783,1455.553467 937.338928,1439.795166 
	C937.960083,1439.568359 938.211426,1439.342896 938.502563,1439.196899 
	C969.996460,1423.405273 1001.493347,1407.619507 1033.339722,1391.789551 
	C1050.792236,1383.107544 1067.895020,1374.469482 1085.345703,1365.780762 
	C1094.495972,1361.169922 1103.298462,1356.609985 1112.462891,1352.016724 
	C1124.213989,1346.266846 1135.603394,1340.550171 1147.340576,1334.783813 
	C1164.123413,1326.433838 1180.558350,1318.133667 1197.340332,1309.781250 
	C1200.760498,1308.161499 1203.832886,1306.592896 1206.906616,1305.026611 
	C1221.389771,1297.645142 1235.873413,1290.264648 1250.746582,1282.885132 
	C1252.759277,1282.093018 1254.360840,1281.251465 1256.009521,1280.515259 
	C1261.664185,1277.990356 1267.335205,1275.502197 1273.000000,1273.000000 
z"/>
<path fill="#000000" opacity="1.000000" stroke="none" 
	d="
M641.000000,0.999995 
	C851.571655,1.000000 1062.143311,1.000000 1273.000000,1.000000 
	C1273.000000,106.357239 1273.000000,211.714737 1272.632080,317.517639 
	C1267.965942,316.014893 1263.667603,314.066742 1259.178711,311.856750 
	C1243.990845,304.119354 1228.993530,296.643768 1213.676758,289.004395 
	C1204.903442,284.615906 1196.449707,280.391144 1187.676025,276.003479 
	C1176.585083,270.523621 1165.813965,265.206635 1154.859253,259.591980 
	C1150.731934,257.331390 1146.796875,255.350845 1142.843018,253.408691 
	C1127.042114,245.647171 1111.235107,237.897614 1095.227783,229.881775 
	C1072.014038,218.135361 1049.003174,206.650803 1025.670410,195.006577 
	C1010.580872,187.526779 995.813049,180.206665 980.867798,172.583374 
	C974.081421,169.049561 967.472351,165.818909 960.577515,162.344727 
	C953.123108,158.519867 945.969971,154.907181 938.782776,151.363632 
	C923.546509,143.851639 908.292419,136.375687 892.868652,128.580780 
	C885.380371,124.631256 878.082947,120.957726 870.754944,117.346443 
	C855.525818,109.841446 840.280457,102.369438 824.867554,94.577805 
	C824.228271,94.107361 823.740723,93.988655 823.301453,93.772026 
	C807.325623,85.893799 791.354248,78.006447 775.196045,69.849174 
	C766.455811,65.420166 757.901855,61.262363 749.169556,56.829651 
	C741.326233,52.758694 733.661255,48.962646 725.671082,45.008720 
	C725.091614,44.642738 724.865723,44.377857 724.579041,44.234585 
	C697.730042,30.818254 670.868530,17.426710 644.048462,3.952945 
	C642.842224,3.346991 642.007690,2.001178 641.000000,0.999995 
z"/>
<path fill="#000000" opacity="1.000000" stroke="none" 
	d="
M633.000000,1590.000000 
	C422.428375,1590.000000 211.856720,1590.000000 1.000000,1590.000000 
	C1.000000,1484.642700 1.000000,1379.285278 1.371289,1273.472412 
	C2.055195,1273.098022 2.392932,1273.127686 2.676834,1273.266968 
	C15.417700,1279.521606 28.153778,1285.786011 41.061947,1292.364014 
	C41.697048,1292.846802 42.181839,1292.971680 42.621178,1293.188599 
	C56.735722,1300.158813 70.845886,1307.138062 85.128456,1314.423340 
	C99.247849,1321.632446 113.195480,1328.534058 127.430450,1335.676025 
	C144.936127,1344.522949 162.154480,1353.129395 179.695953,1361.866455 
	C195.662796,1369.700806 211.306519,1377.404541 227.123749,1385.411865 
	C231.830963,1387.955444 236.363052,1390.198853 240.898682,1392.435181 
	C257.582520,1400.660767 274.267517,1408.884155 291.127991,1417.412354 
	C322.865112,1433.422119 354.426300,1449.127808 386.306824,1464.999756 
	C407.885345,1475.814697 429.128754,1486.494995 450.409088,1497.101318 
	C465.230957,1504.488770 480.103394,1511.774780 495.135742,1519.404297 
	C540.232727,1542.136353 585.151978,1564.560913 630.036133,1587.055298 
	C631.218933,1587.648071 632.020569,1589.001465 633.000000,1590.000000 
z"/>
<path fill="#000000" opacity="1.000000" stroke="none" 
	d="
M1.000001,317.000000 
	C1.000000,211.714264 1.000000,106.428535 1.000000,1.000000 
	C211.024063,1.000000 421.048157,1.000000 631.729858,1.336945 
	C631.036682,2.548067 629.753723,3.557156 628.324707,4.275883 
	C610.559021,13.211165 592.753967,22.068029 574.995911,31.018414 
	C557.272827,39.951168 539.591431,48.966789 521.532349,57.986614 
	C508.103271,64.643944 495.033722,71.260750 481.602448,77.941895 
	C468.148956,84.630798 455.057159,91.255356 441.603271,97.943390 
	C426.492920,105.394180 411.744690,112.781494 396.650513,120.226425 
	C369.866730,133.578110 343.428864,146.872177 316.645630,160.224396 
	C305.930206,165.509094 295.557648,170.730621 285.190613,175.963196 
	C264.780304,186.264938 244.373047,196.572800 223.601196,206.942398 
	C211.099182,213.017685 198.927429,218.963028 186.829330,225.054611 
	C167.179443,234.948669 147.577789,244.938477 127.593430,254.948410 
	C123.131531,257.014282 119.014549,258.984863 114.935181,261.030426 
	C84.283134,276.400787 53.638535,291.786011 22.642101,307.216248 
	C18.415466,309.202240 14.581238,311.231598 10.647607,313.045410 
	C7.494333,314.499390 4.220390,315.691620 1.000001,317.000000 
z"/>
<path fill="#6000FC" opacity="1.000000" stroke="none" 
	d="
M1.000001,317.468658 
	C4.220390,315.691620 7.494333,314.499390 10.647607,313.045410 
	C14.581238,311.231598 18.415466,309.202240 22.716961,307.555267 
	C24.049088,309.805450 24.906235,311.791565 25.871923,313.723480 
	C66.357620,394.717072 106.856094,475.704315 147.330170,556.703735 
	C148.365128,558.774963 149.145950,560.973145 150.045288,563.112061 
	C128.338043,574.080505 106.644798,585.076721 84.920052,596.010376 
	C57.188793,609.966980 29.432117,623.873169 1.343195,637.900513 
	C1.000000,531.312439 1.000000,424.624878 1.000001,317.468658 
z"/>
<path fill="#4700BA" opacity="1.000000" stroke="none" 
	d="
M633.375000,1590.000000 
	C632.020569,1589.001465 631.218933,1587.648071 630.036133,1587.055298 
	C585.151978,1564.560913 540.232727,1542.136353 495.291626,1519.083496 
	C536.548828,1435.897949 577.835815,1353.333008 619.099121,1270.756226 
	C620.210693,1268.531860 621.065918,1266.179565 622.040710,1263.886841 
	C626.777344,1266.147583 631.513916,1268.408447 636.586487,1271.242188 
	C636.968384,1297.548340 637.014343,1323.281494 637.035767,1349.481812 
	C636.994568,1427.183838 636.987854,1504.418701 636.920837,1581.653564 
	C636.918396,1584.435913 636.320435,1587.217896 636.000000,1590.000000 
	C635.250000,1590.000000 634.500000,1590.000000 633.375000,1590.000000 
z"/>
<path fill="#4700BA" opacity="1.000000" stroke="none" 
	d="
M1259.369385,312.118652 
	C1263.667603,314.066742 1267.965942,316.014893 1272.632080,317.981506 
	C1273.000000,424.354218 1273.000000,530.708435 1273.000000,637.531372 
	C1267.372437,635.339294 1261.692261,632.783997 1256.125854,630.001160 
	C1214.947388,609.414734 1173.791626,588.783020 1132.399414,567.659790 
	C1133.144165,565.040649 1134.057495,562.896790 1135.100830,560.818115 
	C1175.334229,480.659088 1215.584229,400.508301 1255.803589,320.342255 
	C1257.141357,317.675873 1258.187378,314.863159 1259.369385,312.118652 
z"/>
<path fill="#5E00F7" opacity="1.000000" stroke="none" 
	d="
M40.890427,1292.049194 
	C28.153778,1285.786011 15.417700,1279.521606 2.676834,1273.266968 
	C2.392932,1273.127686 2.055195,1273.098022 1.371289,1273.008545 
	C1.000000,1255.645752 1.000000,1238.291504 1.313121,1220.339355 
	C2.908916,1217.844849 4.423969,1216.064453 5.440554,1214.034546 
	C38.186325,1148.645508 70.882980,1083.231689 103.591393,1017.823914 
	C105.372757,1014.261719 107.192154,1010.718506 108.993828,1007.166443 
	C128.777145,1017.060791 148.560471,1026.955078 168.582367,1037.346924 
	C168.369995,1038.916748 167.980072,1040.019653 167.459427,1041.057007 
	C126.093536,1123.479126 84.719673,1205.897339 43.322956,1288.303955 
	C42.658836,1289.625977 41.707615,1290.803955 40.890427,1292.049194 
z"/>
<path fill="#4600B8" opacity="1.000000" stroke="none" 
	d="
M521.891785,57.946083 
	C539.591431,48.966789 557.272827,39.951168 574.995911,31.018414 
	C592.753967,22.068029 610.559021,13.211165 628.324707,4.275883 
	C629.753723,3.557156 631.036682,2.548067 632.193726,1.336945 
	C633.388916,1.000000 634.777771,1.000000 636.567749,1.468455 
	C636.962830,31.044218 636.939880,60.151535 636.954834,89.258835 
	C636.977478,133.501221 637.026428,177.743607 637.029053,222.455322 
	C636.922668,240.276398 636.851501,257.628113 636.389038,274.981415 
	C633.891663,273.769867 630.921631,273.072998 629.833313,271.251709 
	C625.744873,264.409424 622.156433,257.257324 618.583252,250.119888 
	C587.516724,188.063843 556.498474,125.983582 525.438721,63.924175 
	C524.404358,61.857433 523.080627,59.935509 521.891785,57.946083 
z"/>
<path fill="#4600B8" opacity="1.000000" stroke="none" 
	d="
M1162.895874,1007.948120 
	C1178.728027,999.929199 1194.535767,991.861755 1210.398438,983.903687 
	C1230.998291,973.569092 1251.641846,963.321533 1272.633301,953.018311 
	C1273.000000,1042.355347 1273.000000,1131.710693 1272.666748,1221.441040 
	C1270.546143,1219.524902 1268.313599,1217.457031 1267.036255,1214.910034 
	C1233.450684,1147.943970 1199.968140,1080.926147 1166.441040,1013.930664 
	C1165.406128,1011.863037 1164.083984,1009.939087 1162.895874,1007.948120 
z"/>
<path fill="#6100FE" opacity="1.000000" stroke="none" 
	d="
M108.668564,1007.009094 
	C107.192154,1010.718506 105.372757,1014.261719 103.591393,1017.823914 
	C70.882980,1083.231689 38.186325,1148.645508 5.440554,1214.034546 
	C4.423969,1216.064453 2.908916,1217.844849 1.313121,1219.870850 
	C1.000000,1131.312500 1.000000,1042.624878 0.999999,953.468628 
	C36.781097,970.950562 72.562195,988.901184 108.668564,1007.009094 
z"/>
<path fill="#4800BE" opacity="1.000000" stroke="none" 
	d="
M1162.536255,1007.988647 
	C1164.083984,1009.939087 1165.406128,1011.863037 1166.441040,1013.930664 
	C1199.968140,1080.926147 1233.450684,1147.943970 1267.036255,1214.910034 
	C1268.313599,1217.457031 1270.546143,1219.524902 1272.666748,1221.907959 
	C1273.000000,1238.687622 1273.000000,1255.375122 1273.000000,1272.531494 
	C1267.335205,1275.502197 1261.664185,1277.990356 1256.009521,1280.515259 
	C1254.360840,1281.251465 1252.759277,1282.093018 1250.635132,1282.474854 
	C1249.200195,1279.931641 1248.358643,1277.753784 1247.319458,1275.674561 
	C1206.970581,1194.937866 1166.607056,1114.208618 1126.220337,1033.490967 
	C1125.259888,1031.571289 1124.013428,1029.794678 1122.900391,1027.951416 
	C1135.992432,1021.310608 1149.084473,1014.669922 1162.536255,1007.988647 
z"/>
<path fill="#6100FE" opacity="1.000000" stroke="none" 
	d="
M636.399963,1590.000000 
	C636.320435,1587.217896 636.918396,1584.435913 636.920837,1581.653564 
	C636.987854,1504.418701 636.994568,1427.183838 637.362793,1349.572754 
	C639.419373,1351.350098 641.559570,1353.285278 642.765503,1355.689087 
	C672.791748,1415.538574 702.722351,1475.436279 732.650330,1535.335083 
	C733.539368,1537.114380 734.217102,1538.999146 734.993408,1540.834717 
	C704.442322,1556.192749 673.888123,1571.544556 643.349976,1586.928223 
	C641.933533,1587.641724 640.660278,1588.639526 639.660156,1589.752441 
	C638.933289,1590.000000 637.866638,1590.000000 636.399963,1590.000000 
z"/>
<path fill="#6100FE" opacity="1.000000" stroke="none" 
	d="
M637.064209,221.985977 
	C637.026428,177.743607 636.977478,133.501221 636.954834,89.258835 
	C636.939880,60.151535 636.962830,31.044218 636.984375,1.468455 
	C638.066711,1.000000 639.133362,1.000000 640.600037,0.999995 
	C642.007690,2.001178 642.842224,3.346991 644.048462,3.952945 
	C670.868530,17.426710 697.730042,30.818254 724.579041,44.234585 
	C724.865723,44.377857 725.091614,44.642738 725.635254,45.370941 
	C725.283325,47.593277 724.787903,49.368401 723.979431,50.987141 
	C696.253845,106.501793 668.508850,162.006744 640.699280,217.479324 
	C639.854126,219.165283 638.292053,220.491852 637.064209,221.985977 
z"/>
<path fill="#5A00ED" opacity="1.000000" stroke="none" 
	d="
M813.038940,1025.118408 
	C807.724060,1027.893066 802.511658,1030.902710 797.029663,1033.294434 
	C795.457092,1033.980469 792.857544,1033.378418 791.147522,1032.526611 
	C755.046692,1014.543701 719.005981,996.440308 682.875671,977.700073 
	C683.679138,975.065430 684.486694,973.054443 685.452332,971.122437 
	C725.859253,890.277588 766.275696,809.437622 806.724487,728.613708 
	C807.832825,726.398926 809.307129,724.367310 810.610840,722.250305 
	C851.311218,742.589478 892.011597,762.928711 932.729004,783.899414 
	C893.493530,863.028503 854.238159,941.524597 815.008423,1020.033447 
	C814.199524,1021.652222 813.688782,1023.420105 813.038940,1025.118408 
z"/>
<path fill="#5500E0" opacity="1.000000" stroke="none" 
	d="
M810.287231,722.121765 
	C809.307129,724.367310 807.832825,726.398926 806.724487,728.613708 
	C766.275696,809.437622 725.859253,890.277588 685.452332,971.122437 
	C684.486694,973.054443 683.679138,975.065430 682.663757,977.441528 
	C666.697327,970.071228 650.833862,962.361511 635.039795,954.512390 
	C610.421570,942.278076 585.850342,929.949158 561.329346,917.122070 
	C567.888245,903.812561 574.422607,891.064331 580.858154,878.266418 
	C613.724548,812.907898 646.578552,747.543091 679.394714,682.159363 
	C682.751709,675.470764 685.828003,668.641357 689.034546,661.877319 
	C705.639771,670.052185 722.296143,678.125244 738.837097,686.428101 
	C758.745056,696.421204 778.542542,706.634033 798.418274,716.691650 
	C802.194092,718.602356 806.111572,720.233215 810.287231,722.121765 
z"/>
<path fill="#4B00C5" opacity="1.000000" stroke="none" 
	d="
M621.851624,1263.593994 
	C621.065918,1266.179565 620.210693,1268.531860 619.099121,1270.756226 
	C577.835815,1353.333008 536.548828,1435.897949 495.109131,1518.785278 
	C480.103394,1511.774780 465.230957,1504.488770 450.409088,1497.101318 
	C429.128754,1486.494995 407.885345,1475.814697 386.345825,1464.637939 
	C387.008820,1461.809692 387.808411,1459.437744 388.916382,1457.219849 
	C423.165039,1388.658813 457.441437,1320.111572 491.729156,1251.569946 
	C492.845123,1249.339111 494.206940,1247.230713 495.314819,1244.996216 
	C501.229767,1233.065063 507.100281,1221.111938 512.986206,1209.166382 
	C548.749268,1227.027222 584.512085,1244.888550 620.277649,1262.744385 
	C620.721436,1262.965820 621.200134,1263.117188 621.851624,1263.593994 
z"/>
<path fill="#5B00F0" opacity="1.000000" stroke="none" 
	d="
M150.409943,563.062134 
	C149.145950,560.973145 148.365128,558.774963 147.330170,556.703735 
	C106.856094,475.704315 66.357620,394.717072 25.871923,313.723480 
	C24.906235,311.791565 24.049088,309.805450 23.066444,307.505554 
	C53.638535,291.786011 84.283134,276.400787 114.935181,261.030426 
	C119.014549,258.984863 123.131531,257.014282 127.774475,255.247162 
	C129.471237,257.509003 130.723251,259.483276 131.763779,261.563354 
	C173.204056,344.405243 214.625183,427.256683 256.048798,510.106873 
	C234.387177,521.068054 212.742798,532.063477 191.057602,542.977783 
	C177.662079,549.719727 164.204376,556.338196 150.409943,563.062134 
z"/>
<path fill="#5000D4" opacity="1.000000" stroke="none" 
	d="
M688.864990,661.576782 
	C685.828003,668.641357 682.751709,675.470764 679.394714,682.159363 
	C646.578552,747.543091 613.724548,812.907898 580.858154,878.266418 
	C574.422607,891.064331 567.888245,903.812561 561.146362,916.816162 
	C546.340210,909.918274 531.760803,902.841187 517.241028,895.643738 
	C499.905212,887.050293 482.620483,878.353821 465.203217,869.044983 
	C465.907867,866.566895 466.650421,864.709167 467.548706,862.930054 
	C482.716095,832.890259 497.980865,802.899231 513.067932,772.819153 
	C538.692139,721.730469 564.202148,670.584534 589.787537,619.476379 
	C590.746643,617.560364 591.992004,615.787598 593.103943,613.948120 
	C608.983704,621.742065 624.884827,629.492981 640.737305,637.341980 
	C656.748413,645.269470 672.711365,653.294067 688.864990,661.576782 
z"/>
<path fill="#5400DD" opacity="1.000000" stroke="none" 
	d="
M1032.989990,1391.833374 
	C1001.493347,1407.619507 969.996460,1423.405273 938.502563,1439.196899 
	C938.211426,1439.342896 937.960083,1439.568359 937.253784,1439.455688 
	C935.845947,1437.038452 934.934753,1434.891968 933.894226,1432.810181 
	C893.605042,1352.206177 853.301453,1271.609375 813.018250,1191.002319 
	C811.905273,1188.775391 810.994568,1186.447510 809.989624,1184.166748 
	C839.280212,1169.457764 868.571045,1154.749512 897.860840,1140.039062 
	C900.343872,1138.791992 902.820251,1137.531982 905.735352,1136.561279 
	C907.145569,1138.959717 908.062500,1141.103760 909.103210,1143.185913 
	C949.392639,1223.789185 989.696228,1304.385620 1029.978394,1384.992554 
	C1031.090820,1387.218628 1031.990845,1389.550659 1032.989990,1391.833374 
z"/>
<path fill="#5600E4" opacity="1.000000" stroke="none" 
	d="
M256.414185,510.058319 
	C214.625183,427.256683 173.204056,344.405243 131.763779,261.563354 
	C130.723251,259.483276 129.471237,257.509003 128.136810,255.186615 
	C147.577789,244.938477 167.179443,234.948669 186.829330,225.054611 
	C198.927429,218.963028 211.099182,213.017685 223.680832,207.297729 
	C225.952484,211.132370 227.820541,214.656250 229.604065,218.222412 
	C269.254059,297.503632 308.891205,376.791321 348.556946,456.064667 
	C349.591919,458.133026 350.919830,460.054779 352.111115,462.044861 
	C333.208588,471.664520 314.332977,481.337524 295.394196,490.885315 
	C282.568573,497.351196 269.654236,503.641083 256.414185,510.058319 
z"/>
<path fill="#5900EA" opacity="1.000000" stroke="none" 
	d="
M809.642151,1184.221924 
	C810.994568,1186.447510 811.905273,1188.775391 813.018250,1191.002319 
	C853.301453,1271.609375 893.605042,1352.206177 933.894226,1432.810181 
	C934.934753,1434.891968 935.845947,1437.038452 936.902588,1439.494141 
	C905.602783,1455.553467 874.217834,1471.273315 842.228027,1486.770386 
	C840.713928,1484.962402 839.723206,1483.418091 838.906982,1481.786377 
	C798.432068,1400.869995 757.968567,1319.947876 717.529724,1239.013428 
	C716.417664,1236.787842 715.589355,1234.420776 714.628723,1232.119629 
	C729.128174,1224.738159 743.609497,1217.320679 758.131836,1209.984497 
	C775.167480,1201.378418 792.238831,1192.843262 809.642151,1184.221924 
z"/>
<path fill="#5000D2" opacity="1.000000" stroke="none" 
	d="
M512.664795,1209.006836 
	C507.100281,1221.111938 501.229767,1233.065063 495.314819,1244.996216 
	C494.206940,1247.230713 492.845123,1249.339111 491.729156,1251.569946 
	C457.441437,1320.111572 423.165039,1388.658813 388.916382,1457.219849 
	C387.808411,1459.437744 387.008820,1461.809692 386.026489,1464.471680 
	C354.426300,1449.127808 322.865112,1433.422119 291.282471,1417.092285 
	C332.696503,1333.600708 374.134766,1250.734375 415.550262,1167.856812 
	C416.512299,1165.931641 417.216858,1163.877686 418.041504,1161.883789 
	C431.432983,1168.470093 444.853668,1174.997803 458.208893,1181.656982 
	C476.280029,1190.667725 494.300964,1199.779175 512.664795,1209.006836 
z"/>
<path fill="#5200D9" opacity="1.000000" stroke="none" 
	d="
M352.473267,462.017883 
	C350.919830,460.054779 349.591919,458.133026 348.556946,456.064667 
	C308.891205,376.791321 269.254059,297.503632 229.604065,218.222412 
	C227.820541,214.656250 225.952484,211.132370 224.044159,207.233459 
	C244.373047,196.572800 264.780304,186.264938 285.190613,175.963196 
	C295.557648,170.730621 305.930206,165.509094 316.683990,160.586456 
	C318.009430,163.188507 318.806763,165.558777 319.913696,167.774353 
	C361.274780,250.560730 402.664459,333.332825 444.050293,416.106873 
	C422.447754,427.054749 400.858093,438.028137 379.236328,448.938019 
	C370.472015,453.360321 361.637817,457.644104 352.473267,462.017883 
z"/>
<path fill="#5F00FA" opacity="1.000000" stroke="none" 
	d="
M813.400879,1025.055542 
	C813.688782,1023.420105 814.199524,1021.652222 815.008423,1020.033447 
	C854.238159,941.524597 893.493530,863.028503 932.896362,784.210510 
	C949.303040,791.915833 965.587524,799.885315 981.810364,807.978394 
	C1024.504395,829.277100 1067.175049,850.622986 1109.832397,871.995117 
	C1111.011353,872.585754 1111.933472,873.688843 1112.975342,874.553040 
	C1112.062256,875.357239 1111.270996,876.405151 1110.218750,876.930969 
	C1011.412903,926.310547 912.587219,975.650269 813.400879,1025.055542 
z"/>
<path fill="#4E00CE" opacity="1.000000" stroke="none" 
	d="
M444.414429,416.057312 
	C402.664459,333.332825 361.274780,250.560730 319.913696,167.774353 
	C318.806763,165.558777 318.009430,163.188507 317.029358,160.528290 
	C343.428864,146.872177 369.866730,133.578110 396.738586,120.565292 
	C398.146210,122.960419 399.061768,125.103310 400.101776,127.183975 
	C440.434113,207.873322 480.781006,288.555389 521.102783,369.250000 
	C522.213013,371.471893 523.068665,373.820984 524.043091,376.110779 
	C503.044739,386.740326 482.052460,397.381927 461.043854,407.991150 
	C455.648560,410.715759 450.201752,413.338287 444.414429,416.057312 
z"/>
<path fill="#4D00CA" opacity="1.000000" stroke="none" 
	d="
M592.928833,613.644043 
	C591.992004,615.787598 590.746643,617.560364 589.787537,619.476379 
	C564.202148,670.584534 538.692139,721.730469 513.067932,772.819153 
	C497.980865,802.899231 482.716095,832.890259 467.548706,862.930054 
	C466.650421,864.709167 465.907867,866.566895 465.023987,868.749878 
	C448.947845,861.226318 432.930756,853.360718 416.936859,845.448303 
	C406.360779,840.216309 395.818024,834.916931 385.318298,829.098267 
	C386.210693,827.112854 387.126648,825.717407 387.868164,824.234802 
	C429.601959,740.789551 471.321167,657.336975 513.041870,573.885193 
	C529.646301,582.057129 546.261047,590.208130 562.851196,598.408936 
	C572.838562,603.345825 582.787537,608.360352 592.928833,613.644043 
z"/>
<path fill="#5100D5" opacity="1.000000" stroke="none" 
	d="
M1025.992188,195.166260 
	C1049.003174,206.650803 1072.014038,218.135361 1095.099365,230.286316 
	C1094.301392,232.930145 1093.510132,234.948135 1092.545044,236.879196 
	C1052.140625,317.721771 1011.725342,398.558807 971.278809,479.380249 
	C970.169800,481.596191 968.703125,483.633148 967.403259,485.753571 
	C944.706055,474.410278 922.008789,463.066956 899.214355,451.060272 
	C900.072205,448.276398 900.954163,446.119324 901.993103,444.040680 
	C942.393250,363.209076 982.810303,282.385864 1023.206116,201.552063 
	C1024.242920,199.477463 1025.068237,197.297211 1025.992188,195.166260 
z"/>
<path fill="#5A00ED" opacity="1.000000" stroke="none" 
	d="
M825.041748,94.883873 
	C840.280457,102.369438 855.525818,109.841446 870.754944,117.346443 
	C878.082947,120.957726 885.380371,124.631256 892.783813,128.939209 
	C892.295044,130.979370 891.789307,132.394562 891.122314,133.729156 
	C850.489075,215.025345 809.839905,296.313538 769.211304,377.612030 
	C768.034180,379.967468 767.061462,382.425079 765.993469,384.835083 
	C743.075439,373.450531 720.157349,362.066010 697.307739,350.115692 
	C698.136169,348.262177 698.970215,347.011993 699.645386,345.681213 
	C712.459900,320.422943 725.344543,295.199768 738.037109,269.880310 
	C766.190979,213.718246 794.250916,157.509109 822.324707,101.306961 
	C823.361450,99.231407 824.141846,97.027786 825.041748,94.883873 
z"/>
<path fill="#5600E4" opacity="1.000000" stroke="none" 
	d="
M766.315979,384.997406 
	C767.061462,382.425079 768.034180,379.967468 769.211304,377.612030 
	C809.839905,296.313538 850.489075,215.025345 891.122314,133.729156 
	C891.789307,132.394562 892.295044,130.979370 892.960876,129.243378 
	C908.292419,136.375687 923.546509,143.851639 938.782776,151.363632 
	C945.969971,154.907181 953.123108,158.519867 960.260010,162.585022 
	C959.218872,164.579254 958.039795,166.003738 957.225037,167.612717 
	C940.671814,200.301819 924.088379,232.975922 907.657654,265.726624 
	C883.306152,314.265442 859.064819,362.859558 834.797058,411.440338 
	C833.759033,413.518280 832.926453,415.698822 831.998169,417.831543 
	C810.211609,406.940948 788.425049,396.050354 766.315979,384.997406 
z"/>
<path fill="#5300DB" opacity="1.000000" stroke="none" 
	d="
M417.862335,1161.585449 
	C417.216858,1163.877686 416.512299,1165.931641 415.550262,1167.856812 
	C374.134766,1250.734375 332.696503,1333.600708 291.106537,1416.788330 
	C274.267517,1408.884155 257.582520,1400.660767 240.898682,1392.435181 
	C236.363052,1390.198853 231.830963,1387.955444 227.280182,1385.091064 
	C268.547394,1302.234009 309.838989,1220.004761 351.081177,1137.750610 
	C352.330597,1135.258667 353.063934,1132.508057 354.037903,1129.878052 
	C369.991241,1137.732178 385.947021,1145.581299 401.896576,1153.442993 
	C407.167053,1156.041016 412.421417,1158.671631 417.862335,1161.585449 
z"/>
<path fill="#4E00CE" opacity="1.000000" stroke="none" 
	d="
M967.724426,485.877441 
	C968.703125,483.633148 970.169800,481.596191 971.278809,479.380249 
	C1011.725342,398.558807 1052.140625,317.721771 1092.545044,236.879196 
	C1093.510132,234.948135 1094.301392,232.930145 1095.302124,230.548187 
	C1111.235107,237.897614 1127.042114,245.647171 1142.843018,253.408691 
	C1146.796875,255.350845 1150.731934,257.331390 1154.774292,259.950073 
	C1153.845703,262.876129 1152.893555,265.184021 1151.780273,267.411438 
	C1111.530396,347.943298 1071.263062,428.466370 1031.016724,509.000000 
	C1029.905029,511.224640 1028.998169,513.551636 1027.995850,515.830933 
	C1008.012451,505.887726 988.028992,495.944550 967.724426,485.877441 
z"/>
<path fill="#4A00C3" opacity="1.000000" stroke="none" 
	d="
M512.860474,573.586670 
	C471.321167,657.336975 429.601959,740.789551 387.868164,824.234802 
	C387.126648,825.717407 386.210693,827.112854 385.135681,828.799805 
	C370.310822,821.896362 355.721191,814.752991 341.144958,807.582336 
	C335.838409,804.971802 330.563721,802.296448 325.326233,799.099670 
	C326.211792,797.113098 327.126495,795.718018 327.867737,794.236145 
	C362.880615,724.243530 397.884125,654.246338 432.847443,584.229004 
	C433.798584,582.324280 434.297028,580.193420 435.006531,578.168030 
	C448.470551,571.411011 461.870636,564.519714 475.470154,558.047424 
	C477.421722,557.118591 480.661896,557.512634 482.748383,558.487366 
	C492.829773,563.197266 502.720642,568.315002 512.860474,573.586670 
z"/>
<path fill="#4A00C3" opacity="1.000000" stroke="none" 
	d="
M1122.540039,1027.990479 
	C1124.013428,1029.794678 1125.259888,1031.571289 1126.220337,1033.490967 
	C1166.607056,1114.208618 1206.970581,1194.937866 1247.319458,1275.674561 
	C1248.358643,1277.753784 1249.200195,1279.931641 1250.245361,1282.473633 
	C1235.873413,1290.264648 1221.389771,1297.645142 1206.906616,1305.026611 
	C1203.832886,1306.592896 1200.760498,1308.161499 1197.254150,1309.442017 
	C1195.923218,1307.188843 1195.089844,1305.190430 1194.118896,1303.261230 
	C1171.219116,1257.765259 1148.265503,1212.296265 1125.405640,1166.780151 
	C1107.698242,1131.523315 1090.112183,1096.205566 1072.440308,1060.930908 
	C1071.404663,1058.863770 1070.083130,1056.939941 1068.894531,1054.949463 
	C1086.656250,1045.976196 1104.417969,1037.002930 1122.540039,1027.990479 
z"/>
<path fill="#5000D4" opacity="1.000000" stroke="none" 
	d="
M1033.339722,1391.789551 
	C1031.990845,1389.550659 1031.090820,1387.218628 1029.978394,1384.992554 
	C989.696228,1304.385620 949.392639,1223.789185 909.103210,1143.185913 
	C908.062500,1141.103760 907.145569,1138.959717 906.082275,1136.505615 
	C923.097473,1127.535645 940.201416,1118.904663 957.740234,1110.560303 
	C963.303589,1120.938477 968.486938,1131.002563 973.551514,1141.125854 
	C1009.931641,1213.844849 1046.293823,1286.572754 1082.620728,1359.318359 
	C1083.646606,1361.372803 1084.215698,1363.655273 1084.997803,1365.831421 
	C1067.895020,1374.469482 1050.792236,1383.107544 1033.339722,1391.789551 
z"/>
<path fill="#5D00F5" opacity="1.000000" stroke="none" 
	d="
M714.238159,1232.106934 
	C715.589355,1234.420776 716.417664,1236.787842 717.529724,1239.013428 
	C757.968567,1319.947876 798.432068,1400.869995 838.906982,1481.786377 
	C839.723206,1483.418091 840.713928,1484.962402 841.864258,1486.797607 
	C824.996033,1495.698608 807.886841,1504.349487 790.256042,1512.732056 
	C771.349426,1476.028687 752.899658,1439.625977 734.595642,1403.150269 
	C711.357239,1356.841553 688.232056,1310.475952 665.083740,1264.121948 
	C664.120483,1262.192993 663.418152,1260.133911 662.594299,1258.135376 
	C677.057068,1250.761963 691.518066,1243.385132 705.984131,1236.018311 
	C708.594421,1234.689087 711.225891,1233.401245 714.238159,1232.106934 
z"/>
<path fill="#5800E7" opacity="1.000000" stroke="none" 
	d="
M179.372849,1361.735840 
	C162.154480,1353.129395 144.936127,1344.522949 127.747070,1335.438721 
	C129.352966,1332.636108 131.217682,1330.455811 132.464432,1327.965942 
	C173.693787,1245.624268 214.864029,1163.252808 256.042969,1080.885864 
	C271.967712,1088.716064 287.892731,1096.545654 303.816864,1104.377075 
	C305.130371,1105.022949 306.438385,1105.680054 307.687256,1106.891602 
	C306.492645,1109.482910 305.278320,1111.474121 304.238647,1113.552612 
	C264.066498,1193.862671 223.915604,1274.183105 183.726257,1354.484497 
	C182.468216,1356.998291 180.832535,1359.322998 179.372849,1361.735840 
z"/>
<path fill="#5E00F7" opacity="1.000000" stroke="none" 
	d="
M662.205688,1258.113403 
	C663.418152,1260.133911 664.120483,1262.192993 665.083740,1264.121948 
	C688.232056,1310.475952 711.357239,1356.841553 734.595642,1403.150269 
	C752.899658,1439.625977 771.349426,1476.028687 789.890503,1512.784302 
	C771.930481,1522.323608 753.814270,1531.542480 735.345764,1540.797974 
	C734.217102,1538.999146 733.539368,1537.114380 732.650330,1535.335083 
	C702.722351,1475.436279 672.791748,1415.538574 642.765503,1355.689087 
	C641.559570,1353.285278 639.419373,1351.350098 637.387390,1349.105713 
	C637.014343,1323.281494 636.968384,1297.548340 636.918152,1271.337646 
	C645.214966,1266.603760 653.515991,1262.347656 662.205688,1258.113403 
z"/>
<path fill="#4C00C8" opacity="1.000000" stroke="none" 
	d="
M1068.534058,1054.987427 
	C1070.083130,1056.939941 1071.404663,1058.863770 1072.440308,1060.930908 
	C1090.112183,1096.205566 1107.698242,1131.523315 1125.405640,1166.780151 
	C1148.265503,1212.296265 1171.219116,1257.765259 1194.118896,1303.261230 
	C1195.089844,1305.190430 1195.923218,1307.188843 1196.906982,1309.494141 
	C1180.558350,1318.133667 1164.123413,1326.433838 1147.254517,1334.444580 
	C1145.848145,1332.038818 1144.935425,1329.892822 1143.894653,1327.810547 
	C1103.605469,1247.207031 1063.302002,1166.610596 1023.019165,1086.003906 
	C1021.906433,1083.777222 1020.999084,1081.447876 1019.995850,1079.166504 
	C1036.055054,1071.119385 1052.114380,1063.072388 1068.534058,1054.987427 
z"/>
<path fill="#5D00F5" opacity="1.000000" stroke="none" 
	d="
M824.867493,94.577805 
	C824.141846,97.027786 823.361450,99.231407 822.324707,101.306961 
	C794.250916,157.509109 766.190979,213.718246 738.037109,269.880310 
	C725.344543,295.199768 712.459900,320.422943 699.645386,345.681213 
	C698.970215,347.011993 698.136169,348.262177 697.136353,349.801453 
	C681.529968,342.489563 666.163818,334.924957 650.795288,327.365417 
	C649.772156,326.862152 648.729980,326.397644 647.732483,325.424500 
	C649.000916,322.978546 650.411011,321.111969 651.440491,319.054932 
	C691.813354,238.384705 732.155029,157.698929 772.475525,77.002502 
	C773.586304,74.779366 774.419556,72.417519 775.382263,70.120361 
	C791.354248,78.006447 807.325623,85.893799 823.301453,93.772026 
	C823.740723,93.988655 824.228271,94.107361 824.867493,94.577805 
z"/>
<path fill="#5500E0" opacity="1.000000" stroke="none" 
	d="
M179.695953,1361.866455 
	C180.832535,1359.322998 182.468216,1356.998291 183.726257,1354.484497 
	C223.915604,1274.183105 264.066498,1193.862671 304.238647,1113.552612 
	C305.278320,1111.474121 306.492645,1109.482910 307.866333,1107.200439 
	C322.835114,1114.219971 337.562531,1121.491333 352.294006,1128.754272 
	C352.734802,1128.971680 353.217957,1129.103149 353.859619,1129.576416 
	C353.063934,1132.508057 352.330597,1135.258667 351.081177,1137.750610 
	C309.838989,1220.004761 268.547394,1302.234009 227.106659,1384.787720 
	C211.306519,1377.404541 195.662796,1369.700806 179.695953,1361.866455 
z"/>
<path fill="#4A00C3" opacity="1.000000" stroke="none" 
	d="
M1259.178711,311.856781 
	C1258.187378,314.863159 1257.141357,317.675873 1255.803589,320.342255 
	C1215.584229,400.508301 1175.334229,480.659088 1135.100830,560.818115 
	C1134.057495,562.896790 1133.144165,565.040649 1132.081421,567.492737 
	C1116.994385,560.356506 1101.996216,552.881653 1086.928223,544.732422 
	C1087.795654,541.925476 1088.642822,539.748047 1089.682861,537.666931 
	C1123.494873,470.003326 1157.323120,402.347870 1191.163940,334.698761 
	C1192.130859,332.765747 1193.340576,330.953827 1194.301025,329.017944 
	C1200.886475,315.744781 1207.435425,302.453522 1213.996338,289.168152 
	C1228.993530,296.643768 1243.990845,304.119354 1259.178711,311.856781 
z"/>
<path fill="#5400DD" opacity="1.000000" stroke="none" 
	d="
M1025.670410,195.006577 
	C1025.068237,197.297211 1024.242920,199.477463 1023.206116,201.552063 
	C982.810303,282.385864 942.393250,363.209076 901.993103,444.040680 
	C900.954163,446.119324 900.072205,448.276398 899.038452,450.756897 
	C884.202698,443.822296 869.446167,436.526520 854.685669,429.238861 
	C854.244629,429.021118 853.761902,428.887756 853.280762,428.090881 
	C895.857056,342.606659 938.451111,257.746613 981.045227,172.886566 
	C995.813049,180.206665 1010.580872,187.526779 1025.670410,195.006577 
z"/>
<path fill="#4C00C8" opacity="1.000000" stroke="none" 
	d="
M524.406433,376.056061 
	C523.068665,373.820984 522.213013,371.471893 521.102783,369.250000 
	C480.781006,288.555389 440.434113,207.873322 400.101776,127.183975 
	C399.061768,125.103310 398.146210,122.960419 397.084534,120.507675 
	C411.744690,112.781494 426.492920,105.394180 441.641113,98.324127 
	C442.880249,100.800240 443.552155,103.042656 444.582794,105.105850 
	C484.083466,184.178543 523.616150,263.235291 563.148804,342.292023 
	C565.077271,346.148438 567.043945,349.985748 568.992859,353.831970 
	C554.251831,361.221771 539.510803,368.611572 524.406433,376.056061 
z"/>
<path fill="#5B00F0" opacity="1.000000" stroke="none" 
	d="
M41.061920,1292.364014 
	C41.707615,1290.803955 42.658836,1289.625977 43.322956,1288.303955 
	C84.719673,1205.897339 126.093536,1123.479126 167.459427,1041.057007 
	C167.980072,1040.019653 168.369995,1038.916748 168.906906,1037.504883 
	C183.763992,1044.475098 198.535095,1051.784790 213.269867,1059.583984 
	C212.223038,1061.581421 211.035904,1063.000732 210.227325,1064.610229 
	C168.450104,1147.768555 126.705124,1230.943115 84.956680,1314.115845 
	C70.845886,1307.138062 56.735722,1300.158813 42.621178,1293.188599 
	C42.181839,1292.971680 41.697048,1292.846802 41.061920,1292.364014 
z"/>
<path fill="#5A00ED" opacity="1.000000" stroke="none" 
	d="
M85.128433,1314.423340 
	C126.705124,1230.943115 168.450104,1147.768555 210.227325,1064.610229 
	C211.035904,1063.000732 212.223038,1061.581421 213.551468,1059.834351 
	C227.810440,1066.488770 241.751480,1073.382202 255.867737,1080.580811 
	C214.864029,1163.252808 173.693787,1245.624268 132.464432,1327.965942 
	C131.217682,1330.455811 129.352966,1332.636108 127.459747,1335.198242 
	C113.195480,1328.534058 99.247849,1321.632446 85.128433,1314.423340 
z"/>
<path fill="#4800BE" opacity="1.000000" stroke="none" 
	d="
M434.659973,578.221741 
	C434.297028,580.193420 433.798584,582.324280 432.847443,584.229004 
	C397.884125,654.246338 362.880615,724.243530 327.867737,794.236145 
	C327.126495,795.718018 326.211792,797.113098 325.137695,798.799683 
	C309.686127,791.586853 294.471832,784.129150 279.265625,776.655029 
	C275.276215,774.694153 271.311737,772.682617 267.231537,770.043579 
	C268.005798,767.420654 268.810455,765.411621 269.773895,763.481873 
	C283.746979,735.495117 297.703491,707.500000 311.748657,679.549438 
	C317.647827,667.809753 323.931152,656.259949 329.668304,644.443420 
	C332.236145,639.154602 333.889404,633.421875 335.957703,627.890625 
	C357.020844,617.247742 378.080200,606.597534 399.148499,595.964905 
	C410.862457,590.053223 422.591278,584.170959 434.659973,578.221741 
z"/>
<path fill="#4A00C3" opacity="1.000000" stroke="none" 
	d="
M569.340027,353.779846 
	C567.043945,349.985748 565.077271,346.148438 563.148804,342.292023 
	C523.616150,263.235291 484.083466,184.178543 444.582794,105.105850 
	C443.552155,103.042656 442.880249,100.800240 442.003235,98.260651 
	C455.057159,91.255356 468.148956,84.630798 481.685577,78.301117 
	C482.933136,80.422981 483.658783,82.288513 484.549835,84.071396 
	C520.078918,155.162384 555.586182,226.264404 591.200989,297.312469 
	C597.242615,309.364929 603.754761,321.181549 610.049561,333.107117 
	C596.595459,339.980682 583.141296,346.854218 569.340027,353.779846 
z"/>
<path fill="#4800BE" opacity="1.000000" stroke="none" 
	d="
M610.412048,333.053101 
	C603.754761,321.181549 597.242615,309.364929 591.200989,297.312469 
	C555.586182,226.264404 520.078918,155.162384 484.549835,84.071396 
	C483.658783,82.288513 482.933136,80.422981 482.047272,78.236771 
	C495.033722,71.260750 508.103271,64.643944 521.532349,57.986618 
	C523.080627,59.935509 524.404358,61.857433 525.438721,63.924175 
	C556.498474,125.983582 587.516724,188.063843 618.583252,250.119888 
	C622.156433,257.257324 625.744873,264.409424 629.833313,271.251709 
	C630.921631,273.072998 633.891663,273.769867 636.443542,275.355835 
	C636.948547,276.481628 637.007812,277.234528 637.040649,278.455933 
	C636.681213,292.643036 636.348206,306.361603 636.015198,320.080139 
	C627.601624,324.386444 619.188049,328.692780 610.412048,333.053101 
z"/>
<path fill="#4E00CE" opacity="1.000000" stroke="none" 
	d="
M1019.649902,1079.224365 
	C1020.999084,1081.447876 1021.906433,1083.777222 1023.019165,1086.003906 
	C1063.302002,1166.610596 1103.605469,1247.207031 1143.894653,1327.810547 
	C1144.935425,1329.892822 1145.848145,1332.038818 1146.906616,1334.494385 
	C1135.603394,1340.550171 1124.213989,1346.266846 1112.222778,1351.765625 
	C1110.861816,1350.261475 1110.028564,1349.012451 1109.354736,1347.682861 
	C1095.436523,1320.216431 1081.452271,1292.782959 1067.650879,1265.257812 
	C1040.639282,1211.387207 1013.728088,1157.466064 986.795105,1103.556030 
	C985.757629,1101.479370 984.925232,1099.300415 983.997314,1097.169067 
	C995.766235,1091.206787 1007.535095,1085.244385 1019.649902,1079.224365 
z"/>
<path fill="#4C00C8" opacity="1.000000" stroke="none" 
	d="
M1028.315552,515.995789 
	C1028.998169,513.551636 1029.905029,511.224640 1031.016724,509.000000 
	C1071.263062,428.466370 1111.530396,347.943298 1151.780273,267.411438 
	C1152.893555,265.184021 1153.845703,262.876129 1154.958008,260.247742 
	C1165.813965,265.206635 1176.585083,270.523621 1187.640137,276.365540 
	C1186.984619,279.189758 1186.194458,281.564026 1185.083984,283.777557 
	C1144.774658,364.127380 1104.431763,444.460388 1064.118408,524.808228 
	C1062.929932,527.177002 1062.009277,529.680115 1060.963745,532.120544 
	C1050.187622,526.800598 1039.411377,521.480591 1028.315552,515.995789 
z"/>
<path fill="#4600B8" opacity="1.000000" stroke="none" 
	d="
M335.595428,627.946289 
	C333.889404,633.421875 332.236145,639.154602 329.668304,644.443420 
	C323.931152,656.259949 317.647827,667.809753 311.748657,679.549438 
	C297.703491,707.500000 283.746979,735.495117 269.773895,763.481873 
	C268.810455,765.411621 268.005798,767.420654 267.042206,769.750916 
	C252.178833,762.824036 237.380005,755.580322 222.627289,748.243896 
	C203.132050,738.549011 183.671188,728.784912 164.201859,719.038025 
	C162.768097,718.320312 161.385132,717.501099 159.410370,716.417236 
	C160.698135,715.474243 161.365799,714.823547 162.160339,714.426636 
	C219.844818,685.605469 277.539398,656.804565 335.595428,627.946289 
z"/>
<path fill="#5000D2" opacity="1.000000" stroke="none" 
	d="
M983.650635,1097.224365 
	C984.925232,1099.300415 985.757629,1101.479370 986.795105,1103.556030 
	C1013.728088,1157.466064 1040.639282,1211.387207 1067.650879,1265.257812 
	C1081.452271,1292.782959 1095.436523,1320.216431 1109.354736,1347.682861 
	C1110.028564,1349.012451 1110.861816,1350.261475 1111.860840,1351.799072 
	C1103.298462,1356.609985 1094.495972,1361.169922 1085.345703,1365.780762 
	C1084.215698,1363.655273 1083.646606,1361.372803 1082.620728,1359.318359 
	C1046.293823,1286.572754 1009.931641,1213.844849 973.551514,1141.125854 
	C968.486938,1131.002563 963.303589,1120.938477 958.087769,1110.508057 
	C966.434875,1105.872681 974.869385,1101.576172 983.650635,1097.224365 
z"/>
<path fill="#4B00C5" opacity="1.000000" stroke="none" 
	d="
M1061.146606,532.417480 
	C1062.009277,529.680115 1062.929932,527.177002 1064.118408,524.808228 
	C1104.431763,444.460388 1144.774658,364.127380 1185.083984,283.777557 
	C1186.194458,281.564026 1186.984619,279.189758 1187.959961,276.528442 
	C1196.449707,280.391144 1204.903442,284.615906 1213.676758,289.004395 
	C1207.435425,302.453522 1200.886475,315.744781 1194.301025,329.017944 
	C1193.340576,330.953827 1192.130859,332.765747 1191.163940,334.698761 
	C1157.323120,402.347870 1123.494873,470.003326 1089.682861,537.666931 
	C1088.642822,539.748047 1087.795654,541.925476 1086.736816,544.466187 
	C1078.186523,540.820923 1069.758057,536.767639 1061.146606,532.417480 
z"/>
<path fill="#5E00F7" opacity="1.000000" stroke="none" 
	d="
M636.359802,320.158569 
	C636.348206,306.361603 636.681213,292.643036 637.366821,278.364014 
	C639.422974,275.649170 641.561462,273.712860 642.766968,271.308716 
	C677.400146,202.238434 711.944275,133.123520 746.474365,64.001617 
	C747.584839,61.778805 748.396790,59.406925 749.347900,57.104553 
	C757.901855,61.262363 766.455811,65.420166 775.196045,69.849167 
	C774.419556,72.417519 773.586304,74.779366 772.475525,77.002502 
	C732.155029,157.698929 691.813354,238.384705 651.440491,319.054932 
	C650.411011,321.111969 649.000916,322.978546 647.450989,325.174225 
	C643.657227,323.688690 640.180847,321.962830 636.359802,320.158569 
z"/>
<path fill="#5500E0" opacity="1.000000" stroke="none" 
	d="
M980.867798,172.583374 
	C938.451111,257.746613 895.857056,342.606659 853.106567,427.787354 
	C846.180969,424.790588 839.411743,421.473175 832.320312,417.993652 
	C832.926453,415.698822 833.759033,413.518280 834.797058,411.440338 
	C859.064819,362.859558 883.306152,314.265442 907.657654,265.726624 
	C924.088379,232.975922 940.671814,200.301819 957.225037,167.612717 
	C958.039795,166.003738 959.218872,164.579254 960.545837,162.828552 
	C967.472351,165.818909 974.081421,169.049561 980.867798,172.583374 
z"/>
<path fill="#5F00FA" opacity="1.000000" stroke="none" 
	d="
M749.169556,56.829647 
	C748.396790,59.406925 747.584839,61.778805 746.474365,64.001617 
	C711.944275,133.123520 677.400146,202.238434 642.766968,271.308716 
	C641.561462,273.712860 639.422974,275.649170 637.393188,277.895477 
	C637.007812,277.234528 636.948547,276.481628 636.834839,275.354309 
	C636.851501,257.628113 636.922668,240.276398 637.029053,222.455322 
	C638.292053,220.491852 639.854126,219.165283 640.699280,217.479324 
	C668.508850,162.006744 696.253845,106.501793 723.979431,50.987141 
	C724.787903,49.368401 725.283325,47.593277 725.960449,45.528824 
	C733.661255,48.962646 741.326233,52.758694 749.169556,56.829647 
z"/>
</svg>