<svg xmlns="http://www.w3.org/2000/svg" xml:space="preserve" id="Layer_1" x="0" y="0" style="enable-background:new 0 0 545.5 445.6" version="1.1" viewBox="0 0 545.5 445.6"><style>.st0{fill-rule:evenodd;clip-rule:evenodd;fill:#00a2ff}</style><path d="M302.5 316.3c-2.1-.5-4.2-1-6.2-1.4-14.7-2.9-29.8-3-44.5-.3-1.8.3-3.6.7-5.4 1.2-11.2 2.8-13.9 9.2-8.8 19.4 5.8 12 15.1 20.8 27.2 26.7 5.9 3 12.9 2.9 18.7-.2 11.9-5.9 21.4-15.7 27-27.7 4.3-9.6 2.2-15.1-8-17.7z" class="st0"/><path d="M507.2 11.2c-34-35.7-158.2 24.1-184.7 37.4-3.3 1.7-7 2.6-10.8 2.6h-38.3l-38.7.1c-3.8 0-7.5-.9-10.9-2.6C197.3 35.3 73.2-24.4 39.3 11.2 1.2 51.2-11.1 314.6 11 340.4c11.5 13.4 90 57.8 152.4 81.5 23 8.9 62.5 23.7 110 23.7 46.1 0 87.8-14 109.2-23.5 98.7-43.3 140.2-67.4 151.7-80.8 22-25.8 11-290.1-27.1-330.1zm-133 55.6s25.3-18.2 61.9-27.1c5-1.2 10.1-1.8 15.3-1.7 18.6 0 32.8 12.1 37.3 30.9 0 0 8.3 36.7 8.7 69.9.1 11.1-8.4 18.9-18.9 18.9-2.8 0-5.6-.7-8.1-1.9h-.1l-97.2-56c-5.3-3.1-8.7-8.6-9.2-14.7 0-.5-.1-1-.1-1.5 0-7.3 4.2-12.7 10.4-16.8zM57.1 69c4.4-18.9 18.7-30.9 37.3-30.9 5.2-.1 10.3.4 15.3 1.7 36.6 8.9 61.9 27.1 61.9 27.1 6.3 4.1 10.4 9.5 10.4 16.8 0 .5 0 1-.1 1.5-.5 6.1-3.9 11.6-9.2 14.7L75.4 156h-.1c-2.5 1.2-5.3 1.8-8.1 1.9-10.4 0-19-7.8-18.9-18.9.5-33.4 8.8-70 8.8-70zm76.7 192.9-.1.1-41.8 27.6c-12.1 8-16.2 12.1-19.3 17.7-2.7 4.7-3.6 10.2-3.7 15.6 0 6.1-2.2 9.9-3.9 11.7-4 4.1-8.9 5-14.5 3.5-2.4-.6-4.7-1.7-6.6-3.3-20-16.4-22.3-48.4-5.1-71.2 10.8-14.4 18.4-18.5 64.1-48.6s52.5-35.4 70-39.7c27.7-6.8 56.2 7.9 63.4 32.8.7 2.4.8 4.9.4 7.3-.8 5.7-3.5 9.9-8.9 11.9-2.3.9-6.7 1.3-12.3-1-5-2.2-10.4-3.2-15.8-2.8-6.4.7-11.8 2.8-23.9 10.7L134 261.8l-.2.1zM385 364.2c-7.9 9.8-17.8 19.2-28.6 24.9-55 29.2-110.9 29-165.9-.2-10.6-5.6-20.3-14.8-28.1-24.4-14.3-17.7-13.8-39.8-.5-58.5 8.1-11.4 18.8-19.5 30.6-26 25.5-13.9 52.7-19.7 81.2-19.9 29.5.3 57.9 5.9 83.5 21.8 10.6 6.6 20.1 14.9 27.9 24.7 14.1 17.7 13.9 40.2-.1 57.6zm116.9-29.4c-1.9 1.6-4.2 2.7-6.6 3.3-5.5 1.5-10.5.7-14.5-3.5-1.7-1.8-3.9-5.6-3.9-11.7.1-5.4-1.1-10.8-3.7-15.6-3.1-5.6-7.2-9.7-19.3-17.7L412 262l-.1-.1-.1-.1-41.8-27.6c-12.1-8-17.5-10.1-23.9-10.7-5.4-.6-10.8.7-15.8 2.8-5.6 2.4-10 1.9-12.3 1-5.4-2-8.1-6.2-8.9-11.9-.4-2.4-.3-4.9.4-7.3 7.2-24.8 35.7-39.6 63.4-32.8 17.5 4.3 24.3 9.6 70 39.7s53.3 34.3 64.1 48.6c17.2 22.8 14.9 54.9-5.1 71.2z" class="st0"/></svg>