<svg version="1.1" id="Layer_1" xmlns="http://www.w3.org/2000/svg" xmlns:xlink="http://www.w3.org/1999/xlink" x="0px" y="0px"
	 width="100%" viewBox="0 0 400 400" enable-background="new 0 0 400 400" xml:space="preserve">
<path fill="#000000" opacity="1.000000" stroke="none" 
	d="
M401.000000,205.000000 
	C401.000000,270.260162 401.000000,335.520355 401.000000,401.000000 
	C336.312592,401.000000 271.624969,401.000000 206.227921,400.678772 
	C208.003571,398.571167 210.400055,396.643158 212.989685,395.024048 
	C221.957047,389.417480 231.059570,384.025177 239.980148,378.346344 
	C247.806946,373.363861 255.561676,368.253174 263.157257,362.926758 
	C270.287109,357.926971 277.166901,352.570557 284.496857,347.118042 
	C281.844513,344.494934 279.847290,341.996796 277.364685,340.151764 
	C264.051239,330.257599 250.705582,320.401733 237.201767,310.769989 
	C220.248154,298.677673 202.473862,287.969482 183.108170,280.112823 
	C179.427536,278.619598 175.738724,277.040283 171.914139,276.027924 
	C160.100830,272.901031 148.357147,268.977081 136.319839,267.408630 
	C127.543587,266.265106 118.277687,267.884735 109.358612,269.166779 
	C102.962692,270.086151 96.374542,271.639801 90.592506,274.412628 
	C81.081177,278.973877 72.191956,284.821075 62.956730,289.976105 
	C60.087704,291.577576 60.951252,293.520081 62.178337,295.310425 
	C63.582752,297.359467 65.334320,299.196289 67.085129,300.977844 
	C75.405945,309.444855 83.489700,318.174194 92.208603,326.212738 
	C101.894981,335.143280 111.775337,343.963684 122.303612,351.854889 
	C134.900146,361.296326 148.168182,369.861633 161.343872,378.503784 
	C170.444565,384.473022 179.933594,389.847473 189.130753,395.674500 
	C191.329330,397.067444 193.056183,399.204956 195.000000,401.000000 
	C130.406113,401.000000 65.812233,401.000000 1.000000,401.000000 
	C1.000000,336.312592 1.000000,271.624969 1.265697,206.133423 
	C4.359812,209.502106 7.267595,213.623672 9.993419,217.862244 
	C12.516477,221.785522 14.794105,225.865829 17.272202,229.819061 
	C20.126879,234.373016 23.084438,238.862473 25.994595,243.381668 
	C30.863808,250.943176 35.619244,258.581024 40.632858,266.045471 
	C44.929279,272.442200 49.520229,278.641113 54.157246,285.175964 
	C54.876854,284.803528 55.967621,284.581879 56.493805,283.914856 
	C63.635101,274.862366 70.828499,265.845764 77.741371,256.619751 
	C83.856659,248.458267 89.745399,240.120560 95.531624,231.721100 
	C99.839622,225.467468 104.121124,219.159729 107.868202,212.565689 
	C111.540512,206.103287 114.712723,199.333908 117.758713,192.544174 
	C121.554459,184.083206 125.097946,175.503708 128.511780,166.880920 
	C129.267990,164.970825 128.295822,162.151016 129.367752,160.629578 
	C134.554886,153.267334 133.034546,144.434967 134.578171,136.414047 
	C135.969025,129.186981 135.973190,121.276375 133.192719,113.634422 
	C130.638641,106.614685 129.913040,98.950722 127.906761,91.702087 
	C126.847412,87.874657 124.958992,84.231827 123.111435,80.679062 
	C120.924011,76.472733 118.079895,72.594406 116.051804,68.321678 
	C112.503143,60.845463 109.473915,60.169044 103.633453,65.836815 
	C99.088852,70.247055 94.275810,74.381096 89.741081,78.801018 
	C83.504295,84.879898 77.157959,90.878990 71.337547,97.343536 
	C65.179504,104.183044 59.355392,111.356178 53.805313,118.700874 
	C48.197384,126.122162 43.107651,133.934814 37.784454,141.571503 
	C32.873554,148.616699 27.810141,155.560730 23.074137,162.721420 
	C16.887838,172.074921 11.001280,181.626282 4.873360,191.019180 
	C3.880655,192.540802 2.305775,193.682617 0.999998,195.000000 
	C1.000000,130.406113 1.000000,65.812233 1.000000,1.000000 
	C65.687401,1.000000 130.375046,1.000000 195.762848,1.330103 
	C188.886597,6.362800 181.202713,10.902204 173.757324,15.803845 
	C160.528442,24.513035 147.414764,33.398579 134.312607,42.298271 
	C128.420074,46.300804 122.671356,50.515083 116.822128,54.658260 
	C117.371933,55.533989 117.538826,56.056633 117.896240,56.331844 
	C129.222305,65.053085 140.488663,73.854866 151.935333,82.415466 
	C159.951920,88.410835 167.990906,94.431442 176.438583,99.779404 
	C184.603531,104.948372 193.092850,109.717552 201.823303,113.852364 
	C212.937424,119.116096 224.207565,124.250244 235.842285,128.152863 
	C245.477219,131.384720 255.650482,133.763489 265.748383,134.639343 
	C274.775665,135.422333 284.216248,134.559601 293.125336,132.726364 
	C302.395782,130.818741 311.487488,127.428551 320.199615,123.635345 
	C326.095276,121.068398 331.109680,116.535324 336.687408,113.161278 
	C340.894318,110.616470 341.311218,109.006126 337.856964,105.364357 
	C329.585815,96.644249 321.390900,87.848984 312.988495,79.256889 
	C299.229584,65.187378 283.950012,52.921677 267.623230,41.975094 
	C259.197296,36.325775 250.565140,30.984415 242.037491,25.486359 
	C230.541000,18.074171 219.045578,10.660105 207.588974,3.186679 
	C206.883881,2.726729 206.521729,1.741061 206.000000,0.999997 
	C270.927216,1.000000 335.854401,1.000000 401.000000,1.000000 
	C401.000000,66.020729 401.000000,131.041702 400.732727,196.864746 
	C395.595520,189.682129 390.906769,181.579651 385.811401,173.741531 
	C378.868988,163.062225 371.656952,152.556931 364.483307,142.029648 
	C359.131165,134.175385 353.720734,126.357796 348.127197,118.676125 
	C347.625000,117.986473 344.863495,117.822289 344.372711,118.418892 
	C339.932007,123.816917 335.690155,129.384659 331.531708,135.007431 
	C324.245605,144.859222 316.871887,154.654831 309.889862,164.720230 
	C304.089996,173.081390 298.575317,181.662186 293.359833,190.399719 
	C289.578125,196.735260 286.339172,203.412598 283.138794,210.072372 
	C279.910950,216.789307 276.513428,223.498779 274.143463,230.532684 
	C271.847900,237.345749 270.607208,244.535965 269.196381,251.618912 
	C267.925293,258.000397 266.693542,264.427704 266.092133,270.895020 
	C265.325897,279.135040 266.829285,287.175446 269.459167,295.044708 
	C270.319519,297.619049 269.870789,300.655670 270.841614,303.163055 
	C272.847137,308.342987 275.234985,313.396332 277.777985,318.341125 
	C280.848663,324.311951 284.172913,330.156647 287.521515,335.978851 
	C289.887756,340.092987 292.035645,341.823425 296.370941,337.111725 
	C301.874542,331.130310 308.676666,326.365875 314.640869,320.779846 
	C320.563202,315.233002 326.241791,309.414093 331.834503,303.531219 
	C335.713013,299.451447 339.530396,295.260071 342.899841,290.762512 
	C347.830475,284.181122 352.329010,277.276428 357.023712,270.517853 
	C360.677795,265.257385 364.444702,260.072479 367.990692,254.740417 
	C372.467346,248.008835 376.793243,241.176361 381.142853,234.361008 
	C387.008087,225.170807 392.813568,215.942383 398.714020,206.774979 
	C399.206512,206.009857 400.225586,205.583664 401.000000,205.000000 
z"/>
<path fill="#81B9E4" opacity="1.000000" stroke="none" 
	d="
M401.000000,204.555847 
	C400.225586,205.583664 399.206512,206.009857 398.714020,206.774979 
	C392.813568,215.942383 387.008087,225.170807 381.142853,234.361008 
	C376.793243,241.176361 372.467346,248.008835 367.990692,254.740417 
	C364.444702,260.072479 360.677795,265.257385 357.023712,270.517853 
	C352.329010,277.276428 347.830475,284.181122 342.899841,290.762512 
	C339.530396,295.260071 335.713013,299.451447 331.834503,303.531219 
	C326.241791,309.414093 320.563202,315.233002 314.640869,320.779846 
	C308.676666,326.365875 301.874542,331.130310 296.370941,337.111725 
	C292.035645,341.823425 289.887756,340.092987 287.521515,335.978851 
	C284.172913,330.156647 280.848663,324.311951 277.777985,318.341125 
	C275.234985,313.396332 272.847137,308.342987 270.841614,303.163055 
	C269.870789,300.655670 270.319519,297.619049 269.459167,295.044708 
	C266.829285,287.175446 265.325897,279.135040 266.092133,270.895020 
	C266.693542,264.427704 267.925293,258.000397 269.196381,251.618912 
	C270.607208,244.535965 271.847900,237.345749 274.143463,230.532684 
	C276.513428,223.498779 279.910950,216.789307 283.138794,210.072372 
	C286.339172,203.412598 289.578125,196.735260 293.359833,190.399719 
	C298.575317,181.662186 304.089996,173.081390 309.889862,164.720230 
	C316.871887,154.654831 324.245605,144.859222 331.531708,135.007431 
	C335.690155,129.384659 339.932007,123.816917 344.372711,118.418892 
	C344.863495,117.822289 347.625000,117.986473 348.127197,118.676125 
	C353.720734,126.357796 359.131165,134.175385 364.483307,142.029648 
	C371.656952,152.556931 378.868988,163.062225 385.811401,173.741531 
	C390.906769,181.579651 395.595520,189.682129 400.732727,197.333405 
	C401.000000,199.370560 401.000000,201.741104 401.000000,204.555847 
z"/>
<path fill="#1870B8" opacity="1.000000" stroke="none" 
	d="
M195.458069,401.000000 
	C193.056183,399.204956 191.329330,397.067444 189.130753,395.674500 
	C179.933594,389.847473 170.444565,384.473022 161.343872,378.503784 
	C148.168182,369.861633 134.900146,361.296326 122.303612,351.854889 
	C111.775337,343.963684 101.894981,335.143280 92.208603,326.212738 
	C83.489700,318.174194 75.405945,309.444855 67.085129,300.977844 
	C65.334320,299.196289 63.582752,297.359467 62.178337,295.310425 
	C60.951252,293.520081 60.087704,291.577576 62.956730,289.976105 
	C72.191956,284.821075 81.081177,278.973877 90.592506,274.412628 
	C96.374542,271.639801 102.962692,270.086151 109.358612,269.166779 
	C118.277687,267.884735 127.543587,266.265106 136.319839,267.408630 
	C148.357147,268.977081 160.100830,272.901031 171.914139,276.027924 
	C175.738724,277.040283 179.427536,278.619598 183.108170,280.112823 
	C202.473862,287.969482 220.248154,298.677673 237.201767,310.769989 
	C250.705582,320.401733 264.051239,330.257599 277.364685,340.151764 
	C279.847290,341.996796 281.844513,344.494934 284.496857,347.118042 
	C277.166901,352.570557 270.287109,357.926971 263.157257,362.926758 
	C255.561676,368.253174 247.806946,373.363861 239.980148,378.346344 
	C231.059570,384.025177 221.957047,389.417480 212.989685,395.024048 
	C210.400055,396.643158 208.003571,398.571167 205.759262,400.678772 
	C202.638718,401.000000 199.277420,401.000000 195.458069,401.000000 
z"/>
<path fill="#1870B8" opacity="1.000000" stroke="none" 
	d="
M205.545898,0.999997 
	C206.521729,1.741061 206.883881,2.726729 207.588974,3.186679 
	C219.045578,10.660105 230.541000,18.074171 242.037491,25.486359 
	C250.565140,30.984415 259.197296,36.325775 267.623230,41.975094 
	C283.950012,52.921677 299.229584,65.187378 312.988495,79.256889 
	C321.390900,87.848984 329.585815,96.644249 337.856964,105.364357 
	C341.311218,109.006126 340.894318,110.616470 336.687408,113.161278 
	C331.109680,116.535324 326.095276,121.068398 320.199615,123.635345 
	C311.487488,127.428551 302.395782,130.818741 293.125336,132.726364 
	C284.216248,134.559601 274.775665,135.422333 265.748383,134.639343 
	C255.650482,133.763489 245.477219,131.384720 235.842285,128.152863 
	C224.207565,124.250244 212.937424,119.116096 201.823303,113.852364 
	C193.092850,109.717552 184.603531,104.948372 176.438583,99.779404 
	C167.990906,94.431442 159.951920,88.410835 151.935333,82.415466 
	C140.488663,73.854866 129.222305,65.053085 117.896240,56.331844 
	C117.538826,56.056633 117.371933,55.533989 116.822128,54.658260 
	C122.671356,50.515083 128.420074,46.300804 134.312607,42.298271 
	C147.414764,33.398579 160.528442,24.513035 173.757324,15.803845 
	C181.202713,10.902204 188.886597,6.362800 196.231506,1.330103 
	C199.030594,1.000000 202.061188,1.000000 205.545898,0.999997 
z"/>
<path fill="#81B9E4" opacity="1.000000" stroke="none" 
	d="
M0.999998,195.458069 
	C2.305775,193.682617 3.880655,192.540802 4.873360,191.019180 
	C11.001280,181.626282 16.887838,172.074921 23.074137,162.721420 
	C27.810141,155.560730 32.873554,148.616699 37.784454,141.571503 
	C43.107651,133.934814 48.197384,126.122162 53.805313,118.700874 
	C59.355392,111.356178 65.179504,104.183044 71.337547,97.343536 
	C77.157959,90.878990 83.504295,84.879898 89.741081,78.801018 
	C94.275810,74.381096 99.088852,70.247055 103.633453,65.836815 
	C109.473915,60.169044 112.503143,60.845463 116.051804,68.321678 
	C118.079895,72.594406 120.924011,76.472733 123.111435,80.679062 
	C124.958992,84.231827 126.847412,87.874657 127.906761,91.702087 
	C129.913040,98.950722 130.638641,106.614685 133.192719,113.634422 
	C135.973190,121.276375 135.969025,129.186981 134.578171,136.414047 
	C133.034546,144.434967 134.554886,153.267334 129.367752,160.629578 
	C128.295822,162.151016 129.267990,164.970825 128.511780,166.880920 
	C125.097946,175.503708 121.554459,184.083206 117.758713,192.544174 
	C114.712723,199.333908 111.540512,206.103287 107.868202,212.565689 
	C104.121124,219.159729 99.839622,225.467468 95.531624,231.721100 
	C89.745399,240.120560 83.856659,248.458267 77.741371,256.619751 
	C70.828499,265.845764 63.635101,274.862366 56.493805,283.914856 
	C55.967621,284.581879 54.876854,284.803528 54.157246,285.175964 
	C49.520229,278.641113 44.929279,272.442200 40.632858,266.045471 
	C35.619244,258.581024 30.863808,250.943176 25.994595,243.381668 
	C23.084438,238.862473 20.126879,234.373016 17.272202,229.819061 
	C14.794105,225.865829 12.516477,221.785522 9.993419,217.862244 
	C7.267595,213.623672 4.359812,209.502106 1.265697,205.664764 
	C1.000000,202.638718 1.000000,199.277420 0.999998,195.458069 
z"/>
</svg>