<svg xmlns="http://www.w3.org/2000/svg" viewBox="0 0 90 90"><path fill="#FF5900" fill-rule="nonzero" d="m76.14 69.42-1.43.92a53.07 53.07 0 0 1-60.03-.06l-1.42-.92L8 78.34l1.24.8a63.44 63.44 0 0 0 70.98 0l1.23-.8-5.31-8.92Zm-54.1-8.74L57.9 0H71.3l-35.8 60.68H22.04ZM36.63 5.23A15.12 15.12 0 0 0 25.75.73c-4.27 0-7.98 1.49-10.95 4.44a14.73 14.73 0 0 0-4.45 10.9c0 4.3 1.48 7.93 4.45 10.89 2.85 2.89 6.8 4.55 10.95 4.43 4.2 0 7.85-1.54 10.88-4.5a14.99 14.99 0 0 0 4.51-10.83c.06-4.07-1.57-8-4.51-10.83Zm-6.56 15.14a5.58 5.58 0 0 1-4.26 1.79 6.01 6.01 0 0 1-4.4-1.79 5.59 5.59 0 0 1-1.79-4.3c0-1.73.62-3.15 1.8-4.32a5.9 5.9 0 0 1 4.39-1.78 6 6 0 0 1 4.33 1.78 6.02 6.02 0 0 1-.07 8.62Zm48.42 15.2a15 15 0 0 0-10.89-4.5c-4.26 0-7.97 1.49-10.94 4.44a14.73 14.73 0 0 0-4.45 10.83c0 4.3 1.48 7.94 4.45 10.9 2.84 2.89 6.8 4.55 10.94 4.42 4.2 0 7.86-1.53 10.89-4.49A14.99 14.99 0 0 0 83 46.34c0-4.06-1.6-8-4.51-10.77Zm-6.56 15.14a6.01 6.01 0 0 1-4.33 1.79 6.01 6.01 0 0 1-6.12-6.16c0-1.72.62-3.14 1.8-4.3a5.9 5.9 0 0 1 4.39-1.8 6 6 0 0 1 4.32 1.8 5.95 5.95 0 0 1-.06 8.67Z"/></svg>