<svg role="img" viewBox="0 0 24 24" xmlns="http://www.w3.org/2000/svg"><title>Sipgate</title><clipPath id="a"><path d="M12.059 24a8.015 8.015 0 0 1-7.848-6.336l11.876-8.63c2.386 1.395 4.002 3.976 4.002 6.949 0 4.419-3.598 8.017-8.03 8.017"/></clipPath><g clip-path="url(#a)"><path d="m7.9 14.94-2.125 1.225-2.138 1.226 1.695 2.92 4.25-2.451z" style="fill:url(#b);fill-rule:nonzero"/></g><clipPath id="c"><path d="M12.059 24a8.015 8.015 0 0 1-7.848-6.336l11.876-8.63c2.386 1.395 4.002 3.976 4.002 6.949 0 4.419-3.598 8.017-8.03 8.017"/></clipPath><g clip-path="url(#c)"><path d="m7.574 14.536-2.372 1.916-2.36 1.916 4.159 5.137 4.732-3.833z" style="fill:url(#d);fill-rule:nonzero"/></g><clipPath id="e"><path d="M12.059 24a8.015 8.015 0 0 1-7.848-6.336l11.876-8.63c2.386 1.395 4.002 3.976 4.002 6.949 0 4.419-3.598 8.017-8.03 8.017"/></clipPath><g clip-path="url(#e)"><path d="m17.886 9.829-7.496 3.82-7.509 3.82 5.162 10.129 15.005-7.639z" style="fill:url(#f);fill-rule:nonzero"/></g><clipPath id="g"><path d="M12.059 24a8.015 8.015 0 0 1-7.848-6.336l11.876-8.63c2.386 1.395 4.002 3.976 4.002 6.949 0 4.419-3.598 8.017-8.03 8.017"/></clipPath><g clip-path="url(#g)"><path d="M17.86 9.842 2.607 16.96l4.798 10.299 15.252-7.105z" style="fill:url(#h);fill-rule:nonzero"/></g><clipPath id="i"><path d="M12.059 24a8.015 8.015 0 0 1-7.848-6.336l11.876-8.63c2.386 1.395 4.002 3.976 4.002 6.949 0 4.419-3.598 8.017-8.03 8.017"/></clipPath><g clip-path="url(#i)"><path d="m2.633 15.487.522 5.006.534 5.006 19.073-2.007-1.056-10.012L7.9 14.927z" style="fill:url(#j);fill-rule:nonzero"/></g><clipPath id="k"><path d="M12.059 24a8.015 8.015 0 0 1-7.848-6.336l11.876-8.63c2.386 1.395 4.002 3.976 4.002 6.949 0 4.419-3.598 8.017-8.03 8.017"/></clipPath><g clip-path="url(#k)"><path d="m5.749 10.09-3.885 1.734-3.885 1.721 7.796 17.521 7.77-3.455L7.9 14.927z" style="fill:url(#l);fill-rule:nonzero"/></g><clipPath id="m"><path d="M12.059 24a8.015 8.015 0 0 1-7.848-6.336l11.876-8.63c2.386 1.395 4.002 3.976 4.002 6.949 0 4.419-3.598 8.017-8.03 8.017"/></clipPath><g clip-path="url(#m)"><path d="m5.254 10.351-3.69 2.125-3.676 2.112 9.595 16.621 7.352-4.25L7.9 14.927z" style="fill:url(#n);fill-rule:nonzero"/></g><clipPath id="o"><path d="M12.059 24a8.015 8.015 0 0 1-7.848-6.336l11.876-8.63c2.386 1.395 4.002 3.976 4.002 6.949 0 4.419-3.598 8.017-8.03 8.017"/></clipPath><g clip-path="url(#o)"><path d="m4.784 10.651-3.441 2.49-3.429 2.503L9.178 31.157l6.883-4.993L7.9 14.927z" style="fill:url(#p);fill-rule:nonzero"/></g><clipPath id="q"><path d="M12.059 24a8.015 8.015 0 0 1-7.848-6.336l11.876-8.63c2.386 1.395 4.002 3.976 4.002 6.949 0 4.419-3.598 8.017-8.03 8.017"/></clipPath><g clip-path="url(#q)"><path d="m4.354 10.99-3.155 2.855-3.154 2.842 12.827 14.248 6.31-5.684L7.9 14.927z" style="fill:url(#r);fill-rule:nonzero"/></g><clipPath id="s"><path d="M12.059 24a8.015 8.015 0 0 1-7.848-6.336l11.876-8.63c2.386 1.395 4.002 3.976 4.002 6.949 0 4.419-3.598 8.017-8.03 8.017"/></clipPath><g clip-path="url(#s)"><path d="m3.963 11.381-2.842 3.168-2.842 3.154 14.249 12.828 5.684-6.309L7.9 14.927z" style="fill:url(#t);fill-rule:nonzero"/></g><clipPath id="u"><path d="M12.059 24a8.015 8.015 0 0 1-7.848-6.336l11.876-8.63c2.386 1.395 4.002 3.976 4.002 6.949 0 4.419-3.598 8.017-8.03 8.017"/></clipPath><g clip-path="url(#u)"><path d="m3.611 11.824-2.49 3.429-2.503 3.441 15.513 11.277 4.993-6.884L7.9 14.927z" style="fill:url(#v);fill-rule:nonzero"/></g><clipPath id="w"><path d="M12.059 24a8.015 8.015 0 0 1-7.848-6.336l11.876-8.63c2.386 1.395 4.002 3.976 4.002 6.949 0 4.419-3.598 8.017-8.03 8.017"/></clipPath><g clip-path="url(#w)"><path d="m3.311 12.28-2.125 3.677-2.125 3.689 16.609 9.582 4.25-7.353L7.9 14.927z" style="fill:url(#x);fill-rule:nonzero"/></g><clipPath id="y"><path d="M12.059 24a8.015 8.015 0 0 1-7.848-6.336l11.876-8.63c2.386 1.395 4.002 3.976 4.002 6.949 0 4.419-3.598 8.017-8.03 8.017"/></clipPath><g clip-path="url(#y)"><path d="M3.064 12.776 1.33 16.661l-1.721 3.884 17.521 7.796 3.454-7.77L7.9 14.927z" style="fill:url(#z);fill-rule:nonzero"/></g><clipPath id="A"><path d="M12.059 24a8.015 8.015 0 0 1-7.848-6.336l11.876-8.63c2.386 1.395 4.002 3.976 4.002 6.949 0 4.419-3.598 8.017-8.03 8.017"/></clipPath><g clip-path="url(#A)"><path d="m2.855 13.297-1.304 4.041L.235 21.38l18.238 5.918 2.633-8.082L7.9 14.927z" style="fill:url(#B);fill-rule:nonzero"/></g><clipPath id="C"><path d="M12.059 24a8.015 8.015 0 0 1-7.848-6.336l11.876-8.63c2.386 1.395 4.002 3.976 4.002 6.949 0 4.419-3.598 8.017-8.03 8.017"/></clipPath><g clip-path="url(#C)"><path d="m2.712 13.832-.874 4.158-.886 4.146 18.759 3.989 1.773-8.304L7.9 14.927z" style="fill:url(#D);fill-rule:nonzero"/></g><clipPath id="E"><path d="M12.059 24a8.015 8.015 0 0 1-7.848-6.336l11.876-8.63c2.386 1.395 4.002 3.976 4.002 6.949 0 4.419-3.598 8.017-8.03 8.017"/></clipPath><g clip-path="url(#E)"><path d="m2.633 14.379-.886 8.448 19.072 2.007.887-8.447L7.9 14.927z" style="fill:url(#F);fill-rule:nonzero"/></g><clipPath id="G"><path d="M12.059 24a8.015 8.015 0 0 1-7.848-6.336l11.876-8.63c2.386 1.395 4.002 3.976 4.002 6.949 0 4.419-3.598 8.017-8.03 8.017"/></clipPath><g clip-path="url(#G)"><path d="M2.607 14.927h19.177v9.477H2.607z" style="fill:url(#H);fill-rule:nonzero"/></g><clipPath id="I"><path d="M12.059 24a8.015 8.015 0 0 1-7.848-6.336l11.876-8.63c2.386 1.395 4.002 3.976 4.002 6.949 0 4.419-3.598 8.017-8.03 8.017"/></clipPath><g clip-path="url(#I)"><path d="M18.564 8.043 6.427 11.98-5.71 15.93l4.354 13.389 24.274-7.887z" style="fill:url(#J);fill-rule:nonzero"/></g><clipPath id="K"><path d="M12.059 24a8.015 8.015 0 0 1-7.848-6.336l11.876-8.63c2.386 1.395 4.002 3.976 4.002 6.949 0 4.419-3.598 8.017-8.03 8.017"/></clipPath><g clip-path="url(#K)"><path d="M18.173 7.444 7.848 14.94l-10.325 7.509L11.72 41.977l20.649-15.005z" style="fill:url(#L);fill-rule:nonzero"/></g><clipPath id="M"><path d="M12.059 24a8.015 8.015 0 0 1-7.848-6.336l11.876-8.63c2.386 1.395 4.002 3.976 4.002 6.949 0 4.419-3.598 8.017-8.03 8.017"/></clipPath><g clip-path="url(#M)"><path d="M18.903 8.565 7.848 14.94l-11.055 6.388L8.865 42.225l22.109-12.763z" style="fill:url(#N);fill-rule:nonzero"/></g><clipPath id="O"><path d="M12.059 24a8.015 8.015 0 0 1-7.848-6.336l11.876-8.63c2.386 1.395 4.002 3.976 4.002 6.949 0 4.419-3.598 8.017-8.03 8.017"/></clipPath><g clip-path="url(#O)"><path d="M19.502 9.751-3.807 20.128 6.01 42.186l23.322-10.377z" style="fill:url(#P);fill-rule:nonzero"/></g><clipPath id="Q"><path d="M12.059 24a8.015 8.015 0 0 1-7.848-6.336l11.876-8.63c2.386 1.395 4.002 3.976 4.002 6.949 0 4.419-3.598 8.017-8.03 8.017"/></clipPath><g clip-path="url(#Q)"><path d="M20.337 12.293 7.848 14.94l-12.489 2.659L.378 41.208l24.978-5.306z" style="fill:url(#R);fill-rule:nonzero"/></g><clipPath id="S"><path d="M12.059 24a8.015 8.015 0 0 1-7.848-6.336l11.876-8.63c2.386 1.395 4.002 3.976 4.002 6.949 0 4.419-3.598 8.017-8.03 8.017"/></clipPath><g clip-path="url(#S)"><path d="M19.985 11.003 7.848 14.94l-12.137 3.95 7.457 22.957 24.274-7.887z" style="fill:url(#T);fill-rule:nonzero"/></g><path d="M11.941 0a8.034 8.034 0 0 0-8.03 8.03c0 1.46.391 2.829 1.082 4.016a8.082 8.082 0 0 0 2.92 2.933l8.057-5.854 3.819-2.776C19.007 2.712 15.787 0 11.941 0" style="fill:#fff;fill-rule:nonzero"/><defs><linearGradient id="b" x1="0" x2="1" y1="0" y2="0" gradientTransform="rotate(-119.992 9.223 7.413)scale(3.36878)" gradientUnits="userSpaceOnUse"><stop offset="0" style="stop-color:#fff;stop-opacity:0"/><stop offset=".7" style="stop-color:#fff;stop-opacity:0"/><stop offset="1" style="stop-color:#fff;stop-opacity:.6"/></linearGradient><linearGradient id="d" x1="0" x2="1" y1="0" y2="0" gradientTransform="rotate(-129.008 9.813 8.559)scale(6.60567)" gradientUnits="userSpaceOnUse"><stop offset="0" style="stop-color:#fff;stop-opacity:0"/><stop offset=".7" style="stop-color:#fff;stop-opacity:0"/><stop offset="1" style="stop-color:#fff;stop-opacity:.7"/></linearGradient><linearGradient id="f" x1="0" x2="1" y1="0" y2="0" gradientTransform="rotate(-116.994 15.053 7.13)scale(11.37093)" gradientUnits="userSpaceOnUse"><stop offset="0" style="stop-color:#fff;stop-opacity:.4"/><stop offset=".5" style="stop-color:#fff;stop-opacity:.4"/><stop offset=".93" style="stop-color:#fff;stop-opacity:.05"/><stop offset="1" style="stop-color:#fff;stop-opacity:0"/></linearGradient><linearGradient id="h" x1="0" x2="1" y1="0" y2="0" gradientTransform="rotate(-115.005 15.065 7.055)scale(11.3702)" gradientUnits="userSpaceOnUse"><stop offset="0" style="stop-color:#fff;stop-opacity:.2"/><stop offset=".85" style="stop-color:#fff;stop-opacity:.2"/><stop offset=".98" style="stop-color:#fff;stop-opacity:.03"/><stop offset="1" style="stop-color:#fff;stop-opacity:0"/></linearGradient><linearGradient id="j" x1="0" x2="1" y1="0" y2="0" gradientTransform="rotate(174 10.643 9.826)scale(19.18076)" gradientUnits="userSpaceOnUse"><stop offset="0" style="stop-color:#fff;stop-opacity:0"/><stop offset="1" style="stop-color:#fff;stop-opacity:.2"/></linearGradient><linearGradient id="l" x1="0" x2="1" y1="0" y2="0" gradientTransform="rotate(-114 14.351 11.541)scale(19.17978)" gradientUnits="userSpaceOnUse"><stop offset="0" style="stop-color:#fff;stop-opacity:0"/><stop offset="1" style="stop-color:#fff;stop-opacity:.7"/></linearGradient><linearGradient id="n" x1="0" x2="1" y1="0" y2="0" gradientTransform="rotate(-119.998 13.953 11.307)scale(19.17991)" gradientUnits="userSpaceOnUse"><stop offset="0" style="stop-color:#fff;stop-opacity:0"/><stop offset="1" style="stop-color:#fff;stop-opacity:.7"/></linearGradient><linearGradient id="p" x1="0" x2="1" y1="0" y2="0" gradientTransform="rotate(-126.001 13.604 11.112)scale(19.1807)" gradientUnits="userSpaceOnUse"><stop offset="0" style="stop-color:#fff;stop-opacity:0"/><stop offset="1" style="stop-color:#fff;stop-opacity:.7"/></linearGradient><linearGradient id="r" x1="0" x2="1" y1="0" y2="0" gradientTransform="rotate(-131.999 13.262 10.914)scale(19.1801)" gradientUnits="userSpaceOnUse"><stop offset="0" style="stop-color:#fff;stop-opacity:0"/><stop offset="1" style="stop-color:#fff;stop-opacity:.7"/></linearGradient><linearGradient id="t" x1="0" x2="1" y1="0" y2="0" gradientTransform="rotate(-138.001 12.958 10.734)scale(19.1801)" gradientUnits="userSpaceOnUse"><stop offset="0" style="stop-color:#fff;stop-opacity:0"/><stop offset="1" style="stop-color:#fff;stop-opacity:.7"/></linearGradient><linearGradient id="v" x1="0" x2="1" y1="0" y2="0" gradientTransform="rotate(-143.999 12.64 10.57)scale(19.1807)" gradientUnits="userSpaceOnUse"><stop offset="0" style="stop-color:#fff;stop-opacity:0"/><stop offset="1" style="stop-color:#fff;stop-opacity:.7"/></linearGradient><linearGradient id="x" x1="0" x2="1" y1="0" y2="0" gradientTransform="rotate(-150.002 12.333 10.38)scale(19.17991)" gradientUnits="userSpaceOnUse"><stop offset="0" style="stop-color:#fff;stop-opacity:0"/><stop offset="1" style="stop-color:#fff;stop-opacity:.7"/></linearGradient><linearGradient id="z" x1="0" x2="1" y1="0" y2="0" gradientTransform="rotate(-156 12.026 10.23)scale(19.17967)" gradientUnits="userSpaceOnUse"><stop offset="0" style="stop-color:#fff;stop-opacity:0"/><stop offset="1" style="stop-color:#fff;stop-opacity:.7"/></linearGradient><linearGradient id="B" x1="0" x2="1" y1="0" y2="0" gradientTransform="rotate(-161.998 11.753 10.074)scale(19.181)" gradientUnits="userSpaceOnUse"><stop offset="0" style="stop-color:#fff;stop-opacity:0"/><stop offset="1" style="stop-color:#fff;stop-opacity:.3"/></linearGradient><linearGradient id="D" x1="0" x2="1" y1="0" y2="0" gradientTransform="rotate(-168 11.464 9.91)scale(19.18087)" gradientUnits="userSpaceOnUse"><stop offset="0" style="stop-color:#fff;stop-opacity:0"/><stop offset="1" style="stop-color:#fff;stop-opacity:.3"/></linearGradient><linearGradient id="F" x1="0" x2="1" y1="0" y2="0" gradientTransform="rotate(-174 11.181 9.745)scale(19.18076)" gradientUnits="userSpaceOnUse"><stop offset="0" style="stop-color:#fff;stop-opacity:0"/><stop offset="1" style="stop-color:#fff;stop-opacity:.3"/></linearGradient><linearGradient id="H" x1="0" x2="1" y1="0" y2="0" gradientTransform="rotate(180 10.876 9.833)scale(19.1785)" gradientUnits="userSpaceOnUse"><stop offset="0" style="stop-color:#fff;stop-opacity:0"/><stop offset="1" style="stop-color:#fff;stop-opacity:.2"/></linearGradient><linearGradient id="J" x1="0" x2="1" y1="0" y2="0" gradientTransform="rotate(-108.001 14.606 8.776)scale(14.0785)" gradientUnits="userSpaceOnUse"><stop offset="0" style="stop-color:#fff;stop-opacity:.6"/><stop offset="1" style="stop-color:#fff;stop-opacity:0"/></linearGradient><linearGradient id="L" x1="0" x2="1" y1="0" y2="0" gradientTransform="rotate(-125.999 19.804 11.624)scale(24.1413)" gradientUnits="userSpaceOnUse"><stop offset="0" style="stop-color:#fff;stop-opacity:.5"/><stop offset="1" style="stop-color:#fff;stop-opacity:0"/></linearGradient><linearGradient id="N" x1="0" x2="1" y1="0" y2="0" gradientTransform="rotate(-120 20.303 12.171)scale(24.1389)" gradientUnits="userSpaceOnUse"><stop offset="0" style="stop-color:#fff;stop-opacity:.5"/><stop offset="1" style="stop-color:#fff;stop-opacity:0"/></linearGradient><linearGradient id="P" x1="0" x2="1" y1="0" y2="0" gradientTransform="rotate(-114 20.843 12.76)scale(24.1394)" gradientUnits="userSpaceOnUse"><stop offset="0" style="stop-color:#fff;stop-opacity:.6"/><stop offset="1" style="stop-color:#fff;stop-opacity:0"/></linearGradient><linearGradient id="R" x1="0" x2="1" y1="0" y2="0" gradientTransform="rotate(-102.002 22.049 14.074)scale(24.1393)" gradientUnits="userSpaceOnUse"><stop offset="0" style="stop-color:#fff;stop-opacity:.6"/><stop offset="1" style="stop-color:#fff;stop-opacity:0"/></linearGradient><linearGradient id="T" x1="0" x2="1" y1="0" y2="0" gradientTransform="rotate(-107.999 21.421 13.39)scale(24.13948)" gradientUnits="userSpaceOnUse"><stop offset="0" style="stop-color:#fff;stop-opacity:.6"/><stop offset="1" style="stop-color:#fff;stop-opacity:0"/></linearGradient></defs></svg>