<svg version="1.2" xmlns="http://www.w3.org/2000/svg" viewBox="0 0 90 90" width="90" height="90">
	<title>skiff</title>
	<style>
		.s0 { fill: #000000 } 
	</style>
	<g id="Layer">
		<g id="Layer">
			<path id="Layer" fill-rule="evenodd" class="s0" d="m54.8 16.3q-1.8 0-3.6 0.3-1.7 0.4-3.4 1-1.7 0.7-3.2 1.7-1.5 0.9-2.8 2.2-1.3 1.2-2.3 2.7-1.1 1.4-1.8 3.1-0.8 1.6-1.2 3.3-0.5 1.8-0.6 3.6-0.1 1.8 0.2 3.5 0.2 1.8 0.7 3.5 0.6 1.8 1.5 3.3 0.8 1.6 2 3 1.1 1.4 2.5 2.5 1.4 1.2 2.9 2 1.6 0.9 3.3 1.4 1.7 0.6 3.5 0.8c0.6 0.1 1.2 0.2 1.8 0.2v0.9q-0.1 1.3-0.3 2.5c0 0.2-0.1 0.4-0.1 0.6-0.1 0.4-0.2 0.9-0.3 1.3-0.1 0.2-0.3 0.7-0.3 0.8l-0.2 0.6q-0.3 0.8-0.8 1.6-0.4 0.9-0.9 1.7-0.5 0.7-1 1.5-0.6 0.7-1.3 1.4-0.6 0.7-1.3 1.3-0.7 0.6-1.5 1.1-0.7 0.5-1.5 1-0.8 0.4-1.7 0.8c-2.1 0.9-4.4 1.4-6.8 1.5q-1.4 0-2.8-0.3l-0.8-0.1-0.9-0.2c-0.3-0.1-0.6-0.2-0.9-0.2-0.5-0.2-1.1-0.4-1.7-0.6-0.2-0.1-0.5-0.3-0.8-0.4l-0.7-0.4c-0.1 0-0.2-0.1-0.5-0.2-0.2-0.2-0.7-0.4-0.9-0.6l-0.3-0.2-0.2-0.1c-0.3-0.2-0.6-0.5-0.9-0.7l-0.2-0.2-0.2-0.1-0.4-0.4c-0.3-0.2-0.6-0.6-0.8-0.8l-1.2-1.2-1.1-1.2-0.7-0.9c-0.2-0.3-0.5-0.7-0.6-0.9-0.5-0.6-1-1.5-1.4-2.2q-1.4-2.4-2.4-5.1-0.9-2.7-1.4-5.5-0.5-2.8-0.5-5.7 0-2.8 0.5-5.6v-0.3c0.1-0.4 0.3-1.3 0.4-1.7 0.2-0.6 0.3-1.2 0.5-1.8 0.1-0.4 0.3-1 0.4-1.1 0-0.1 0.5-1.2 0.5-1.3l0.5-1.3c0.2-0.3 0.6-1.3 0.7-1.5 0.2-0.3 0.7-1.3 0.8-1.4 0.1-0.1 0.3-0.4 0.4-0.6 0.1-0.1 0.2-0.4 0.4-0.7 0.2-0.3 0.7-1.1 1-1.4l0.8-1.1c0.2-0.3 0.7-0.9 1.1-1.3 0.4-0.3 0.9-0.9 1.2-1.2 0.2-0.3 0.9-0.9 1.1-1.2 0.3-0.2 1-0.9 1.3-1.1q1.6-1.3 3.4-2.4 1.7-1.1 3.6-1.9 1.9-0.9 3.9-1.5 1.9-0.6 4-1 2-0.3 4.1-0.4 2.1-0.1 4.1 0.1 2.1 0.2 4.1 0.7 2 0.4 3.9 1.2 0.8 0.2 1.6 0.6 0.8 0.3 1.5 0.7 0.8 0.4 1.5 0.8 0.8 0.4 1.5 0.8c-2.5-1.1-5.3-1.7-8.1-1.6zm-22.3 50.8q2.3 0.9 4.7 1.1 2.5 0.2 4.9-0.3 2.5-0.5 4.6-1.7c-2.9 1.3-6.1 1.8-9.2 1.3q-1.1-0.2-2.3-0.5-1.1-0.4-2.2-0.8-1.1-0.5-2-1.2-1-0.6-1.9-1.4-0.3-0.2-0.5-0.5-0.2-0.2-0.5-0.4-0.2-0.3-0.4-0.5-0.3-0.3-0.5-0.5l-0.1-0.1-0.1-0.2-0.2-0.2q-0.8-1-1.6-2.1-0.7-1-1.3-2.1-0.6-1.1-1.2-2.2-0.5-1.2-0.9-2.4-1.1-3-1.5-6.1-0.4-3.1-0.1-6.2 0.3-3.2 1.2-6.2 1-3 2.6-5.7 0.7-1.4 1.6-2.6 1-1.3 2-2.5 1.1-1.1 2.2-2.2 1.2-1 2.5-1.9 1.2-0.9 2.6-1.7 1.4-0.7 2.8-1.3 1.4-0.6 2.9-1.1 1.5-0.4 3.1-0.7l1.3-0.2 1.4-0.2 1.3-0.1h-2.7l-1.4 0.1c-3.7 0.4-7.3 1.6-10.6 3.4q-1.5 0.9-2.9 1.9c-0.2 0.2-0.6 0.5-0.9 0.7q-1.1 0.9-2.2 2-1.1 1-2 2.2-1 1.2-1.8 2.4-0.8 1.3-1.5 2.6-1.4 2.7-2.2 5.6-0.8 2.9-1 5.9-0.3 3 0.1 6 0.4 3 1.5 5.9 0.4 1.4 1.1 2.7 0.6 1.4 1.4 2.7 0.8 1.3 1.7 2.5 0.9 1.2 1.9 2.3 0.3 0.2 0.5 0.5 0.3 0.3 0.5 0.5 0.3 0.2 0.5 0.5 0.3 0.2 0.6 0.4 1.9 1.6 4.2 2.6zm17.2-6.4c-2.9 1.5-6.1 2-9.2 1.4q-1.1-0.2-2.3-0.6-1.1-0.4-2.1-1-1-0.6-1.9-1.3-0.9-0.8-1.7-1.7c-0.4-0.4-0.8-0.9-1.2-1.4-0.2-0.2-0.5-0.7-0.7-0.9q-1-1.4-1.8-2.9-0.8-1.5-1.4-3-0.6-1.6-0.9-3.2-0.4-1.6-0.6-3.3-0.2-1.7-0.1-3.3 0-1.7 0.3-3.4 0.3-1.6 0.8-3.2 0.5-1.6 1.1-3.2 0.7-1.4 1.5-2.7 0.8-1.4 1.8-2.6 1-1.2 2.1-2.3 1.2-1.1 2.4-2.1 1.2-0.9 2.6-1.7 1.3-0.8 2.8-1.4 1.4-0.6 2.9-1.1 1.5-0.4 3.1-0.7 0.5-0.1 1-0.1 0.6-0.1 1.1-0.2 0.6 0 1.1 0 0.5-0.1 1.1-0.1-1.4-0.1-2.8-0.1h-1c-0.3 0-0.9 0.1-1.2 0.1q-0.8 0.1-1.7 0.3-0.8 0.1-1.6 0.3-0.8 0.2-1.6 0.5-0.8 0.2-1.5 0.5c-0.2 0.1-0.7 0.3-0.9 0.4-0.2 0.1-0.4 0.2-0.6 0.3-0.5 0.2-1.2 0.6-1.7 0.9-0.5 0.2-1.1 0.7-1.6 1q-0.3 0.2-0.7 0.4-0.3 0.3-0.6 0.5-0.3 0.3-0.6 0.5-0.3 0.3-0.6 0.6-1 0.8-1.9 1.8-0.8 0.9-1.6 2-0.8 1-1.5 2.1-0.6 1.1-1.2 2.3-1.1 2.3-1.7 4.8-0.6 2.6-0.8 5.2-0.1 2.6 0.3 5.1 0.4 2.6 1.3 5 0.5 1.3 1 2.4 0.6 1.2 1.3 2.3 0.7 1.1 1.5 2.1 0.7 1 1.6 2l0.8 0.8 0.1 0.1 0.2 0.2c4.7 4.3 12.2 5.4 17.5 1.6zm-14.3-10.1q-0.7-1.1-1.3-2.2-0.6-1.1-1.1-2.3-0.5-1.2-0.8-2.5-0.3-1.2-0.5-2.5-0.2-1.3-0.2-2.6-0.1-1.2 0.1-2.5 0.1-1.3 0.3-2.6 0.3-1.2 0.7-2.5 0.4-1.2 1-2.3 0.5-1.2 1.2-2.3 0.6-1.1 1.4-2.1 0.8-1 1.7-1.9 1-0.9 2-1.7 1-0.8 2.1-1.5 1-0.7 2.2-1.2 1.2-0.5 2.4-0.9 0.7-0.3 1.5-0.5 0.7-0.2 1.5-0.3 0.7-0.2 1.5-0.3 0.7-0.1 1.5-0.1h2.4c-0.4-0.1-0.9-0.2-1.3-0.2l-0.8-0.1h-2.2q-1 0.1-1.9 0.2-1 0.1-1.9 0.3-1 0.3-1.9 0.6-0.9 0.3-1.8 0.6c-0.4 0.2-0.7 0.3-1.3 0.6-0.5 0.3-1.1 0.7-1.6 1-0.3 0.2-0.7 0.4-1 0.6q-0.9 0.7-1.8 1.5-0.9 0.8-1.7 1.7-0.8 0.9-1.6 1.8-0.7 1-1.3 2-1.2 2.1-1.9 4.4-0.8 2.3-1 4.7-0.3 2.4 0 4.8 0.2 2.4 1 4.6 0.4 1.2 0.9 2.3 0.5 1.1 1.1 2.1 0.6 1 1.3 2 0.7 1 1.5 1.8 0.5 0.6 1 1 0.5 0.5 1.1 0.9 0.5 0.5 1.1 0.8 0.6 0.4 1.3 0.7 1.2 0.7 2.5 1 1.4 0.3 2.8 0.4 1.3 0 2.7-0.2 1.3-0.3 2.6-0.9c-2 0.7-4.2 0.8-6.3 0.3q-0.7-0.1-1.5-0.4-0.7-0.2-1.5-0.5-0.7-0.4-1.4-0.8-0.6-0.4-1.2-0.9-0.6-0.5-1-0.9-0.5-0.5-0.9-1-0.5-0.4-0.9-1-0.4-0.5-0.8-1z"/>
			<path id="Layer" class="s0" d="m37.4 35.8l-0.7-0.1v0.1q0.8 0 1.5 0.1z"/>
			<path id="Layer" fill-rule="evenodd" class="s0" d="m62 72.2q-1.7 1.1-3.6 2-1.9 0.8-3.9 1.4-2 0.6-4 1-2.1 0.3-4.1 0.4-2.1 0.1-4.2-0.1-2-0.2-4.1-0.6-2-0.5-3.9-1.2-0.8-0.3-1.6-0.6-0.8-0.3-1.5-0.7-0.8-0.4-1.5-0.8-0.7-0.4-1.5-0.9 2.2 1 4.5 1.4 2.3 0.4 4.7 0.2 2.3-0.1 4.6-0.9 2.2-0.7 4.2-2 1-0.6 1.9-1.3 0.9-0.8 1.7-1.6 0.8-0.9 1.5-1.8 0.8-0.9 1.3-2 0.6-1 1.1-2.1 0.5-1 0.8-2.2 0.3-1.1 0.5-2.3 0.2-1.1 0.3-2.3 0-1-0.1-1.9 0-0.9-0.2-1.9-0.2-0.9-0.4-1.8-0.2-0.9-0.6-1.8-0.3-0.8-0.7-1.7-0.4-0.8-0.9-1.6-0.5-0.8-1.1-1.5-0.6-0.8-1.2-1.5-0.7-0.6-1.4-1.3-0.7-0.6-1.5-1.1-0.7-0.5-1.5-1-0.9-0.4-1.7-0.8c-2.3-1-4.7-1.5-7.2-1.6v-1q0-1.3 0.3-2.5c0-0.2 0.1-0.4 0.1-0.6 0.1-0.4 0.2-0.9 0.3-1.3 0.1-0.2 0.2-0.7 0.3-0.8l0.2-0.6q0.3-0.8 0.7-1.7 0.4-0.8 0.9-1.6 0.5-0.8 1.1-1.5 0.6-0.7 1.2-1.4 0.7-0.7 1.4-1.3 0.7-0.6 1.4-1.1 0.8-0.5 1.6-1 0.8-0.4 1.7-0.8c2.1-0.9 4.4-1.4 6.7-1.5q0.4 0 0.8 0 0.3 0.1 0.7 0.1 0.3 0 0.7 0.1 0.3 0 0.7 0l0.8 0.2 0.8 0.2 1 0.2c0.5 0.2 1.1 0.4 1.7 0.6l0.7 0.4 0.8 0.4c0.1 0 0.2 0.1 0.4 0.2 0.3 0.2 0.7 0.4 1 0.6l0.2 0.2 0.3 0.1c0.2 0.2 0.6 0.5 0.8 0.7l0.3 0.2h0.1l0.1 0.1 0.4 0.4c0.2 0.2 0.6 0.6 0.8 0.8 0.4 0.3 0.9 0.9 1.2 1.1 0.2 0.3 0.8 1.1 1.1 1.3l0.6 0.9q0.1 0.1 0.2 0.3 0.1 0.1 0.2 0.2 0.1 0.1 0.1 0.2 0.1 0.1 0.2 0.2c0.4 0.7 1 1.5 1.4 2.2q1.4 2.4 2.3 5.1 1 2.7 1.5 5.5 0.5 2.8 0.5 5.7 0 2.8-0.6 5.6v0.3c0 0.4-0.2 1.3-0.3 1.7-0.2 0.6-0.4 1.2-0.6 1.8 0 0.3-0.2 1-0.3 1.1-0.1 0.1-0.5 1.2-0.5 1.3-0.2 0.4-0.4 1-0.5 1.3-0.2 0.3-0.7 1.3-0.8 1.5-0.1 0.3-0.7 1.3-0.7 1.4-0.1 0.1-0.3 0.5-0.4 0.6l-0.4 0.7c-0.2 0.3-0.8 1.1-1 1.4l-0.8 1.1c-0.3 0.3-0.8 1-1.1 1.3l-2.4 2.4c-0.2 0.2-1 0.9-1.2 1.1q-1.6 1.3-3.4 2.4zm-3.4-49.3q-2.3-0.9-4.8-1.2-2.5-0.2-4.9 0.4-2.4 0.5-4.6 1.7 1.2-0.5 2.5-0.9 1.3-0.3 2.7-0.5 1.3-0.1 2.6 0 1.4 0.1 2.7 0.4 1.3 0.3 2.6 0.8 1.2 0.5 2.4 1.2 1.1 0.7 2.1 1.6 1 0.9 1.9 2l0.1 0.1 0.1 0.1 0.2 0.3c0.3 0.3 0.6 0.7 0.9 1q1.5 2.1 2.6 4.3 1.2 2.3 1.9 4.7 0.8 2.4 1.1 4.9 0.3 2.5 0.1 5.1-0.1 2.5-0.7 4.9-0.5 2.5-1.5 4.8-1 2.4-2.4 4.5-1.3 2.1-3.1 4-1.9 2-4.2 3.7-2.2 1.6-4.8 2.8-2.5 1.2-5.3 1.9-2.7 0.7-5.5 0.8 1.7 0.1 3.5 0 1.7-0.2 3.4-0.5 1.7-0.4 3.4-1 1.6-0.6 3.2-1.3l1.2-0.7q0.4-0.2 0.8-0.4 0.4-0.3 0.7-0.5 0.4-0.3 0.8-0.5 0.3-0.3 0.7-0.5l0.7-0.6 0.1-0.1 0.3-0.2 0.5-0.5c0.4-0.2 0.8-0.6 1.1-0.9q2.1-2 3.7-4.3 1.6-2.4 2.8-5 1.2-2.6 1.8-5.4 0.6-2.8 0.7-5.7 0.1-2.8-0.4-5.7-0.5-2.8-1.5-5.5-1-2.6-2.5-5.1-1.5-2.4-3.4-4.5-0.3-0.3-0.5-0.5-0.3-0.3-0.5-0.5-0.3-0.3-0.6-0.5-0.2-0.3-0.5-0.5-1.9-1.6-4.2-2.5zm-0.5 7.3q0 0 0 0 0 0 0 0 0 0 0 0zm0 0c0 0 0 0 0 0-4.6-3.8-11.8-4.5-16.7-0.9q1-0.6 2.1-0.9 1.1-0.4 2.2-0.6 1.2-0.2 2.3-0.2 1.2 0 2.3 0.2 1.2 0.2 2.3 0.6 1.1 0.4 2.1 1 1 0.5 1.9 1.2 0.9 0.8 1.7 1.6c0.3 0.4 0.8 0.9 1 1.2 0.3 0.3 0.6 0.6 0.8 0.9q1 1.4 1.8 2.9 0.9 1.5 1.5 3.1 0.6 1.6 1 3.2 0.5 1.7 0.6 3.4 0.2 1.7 0.2 3.4 0 1.7-0.3 3.4-0.3 1.6-0.8 3.3-0.4 1.6-1.1 3.2-0.7 1.4-1.5 2.7-0.8 1.3-1.7 2.5-1 1.2-2 2.3-1.1 1.1-2.3 2-1.2 0.9-2.5 1.7-1.3 0.8-2.7 1.5-1.4 0.6-2.8 1.1-1.5 0.5-3 0.8-0.6 0.1-1.2 0.2-0.6 0.1-1.2 0.1-0.6 0.1-1.3 0.1-0.6 0.1-1.2 0.1 1.3 0.1 2.5 0.1 1.3 0 2.5-0.1 1.3-0.2 2.5-0.4 1.3-0.3 2.5-0.7c0.3-0.1 0.8-0.3 1.1-0.4l0.3-0.1 0.2-0.1 0.1-0.1 0.6-0.2q1.4-0.7 2.8-1.5 1.3-0.8 2.6-1.8 1.2-0.9 2.3-2.1 1.1-1.1 2-2.3 1-1.3 1.8-2.6 0.8-1.4 1.5-2.8 0.6-1.5 1-3 0.5-1.5 0.8-3 0.2-1.6 0.3-3.2 0.1-1.5 0-3.1-0.1-1.6-0.4-3.1-0.3-1.6-0.8-3.1-0.5-1.5-1.2-2.9-0.6-1.4-1.5-2.8-0.8-1.3-1.8-2.6-1-1.2-2.1-2.3c-0.4-0.3-0.7-0.6-1.1-0.9zm-12.6 42.4c-3 1.2-6.2 1.7-9.4 1.6q1.2 0.2 2.5 0.3 1.2 0.1 2.4 0 1.3-0.1 2.5-0.3 1.2-0.3 2.4-0.6 1.3-0.5 2.5-1 1.3-0.6 2.4-1.3 1.2-0.8 2.3-1.6 1-0.9 2-1.9 0.9-1 1.8-2.1 0.8-1.1 1.5-2.3 0.7-1.2 1.2-2.4 0.5-1.3 0.9-2.6 0.4-1.3 0.6-2.7 0.2-1.4 0.3-2.8 0-1.3-0.1-2.7-0.1-1.4-0.4-2.7-0.3-1.4-0.8-2.7-0.4-1.3-1-2.5-0.6-1.3-1.4-2.4-0.7-1.2-1.6-2.2-0.4-0.5-0.8-0.9-0.4-0.4-0.8-0.8-0.4-0.4-0.8-0.7-0.4-0.4-0.9-0.7-1.3-1-2.9-1.6-1.6-0.6-3.2-0.8-1.7-0.2-3.4 0-1.6 0.3-3.2 1 0.8-0.3 1.6-0.4 0.8-0.1 1.6-0.2 0.7 0 1.5 0 0.8 0.1 1.6 0.3 0.8 0.1 1.5 0.4 0.8 0.2 1.5 0.5 0.7 0.4 1.4 0.8 0.7 0.4 1.3 0.9 0.3 0.3 0.6 0.5 0.3 0.3 0.5 0.6 0.3 0.2 0.6 0.5 0.2 0.3 0.5 0.6l0.6 0.9 0.7 0.8 0.5 0.9q1.1 1.7 1.9 3.6 0.7 1.9 1.1 4 0.4 2 0.4 4 0 2.1-0.3 4.1-0.4 2-1.1 3.9-0.8 1.9-1.8 3.7-1.1 1.7-2.5 3.3-1.4 1.5-3 2.7c-0.3 0.2-0.7 0.6-1.1 0.8l-1.1 0.7c-0.4 0.2-0.8 0.4-1.2 0.6l-0.9 0.5-1 0.4z"/>
		</g>
	</g>
</svg>