<svg xmlns="http://www.w3.org/2000/svg" version="1.2" viewBox="0 0 90 90"><style>.s0{fill:#000}</style><g id="Layer"><path fill-rule="evenodd" d="M54.8 16.3q-1.8 0-3.6.3-1.7.4-3.4 1-1.7.7-3.2 1.7-1.5.9-2.8 2.2-1.3 1.2-2.3 2.7-1.1 1.4-1.8 3.1-.8 1.6-1.2 3.3-.5 1.8-.6 3.6-.1 1.8.2 3.5.2 1.8.7 3.5.6 1.8 1.5 3.3.8 1.6 2 3 1.1 1.4 2.5 2.5 1.4 1.2 2.9 2 1.6.9 3.3 1.4 1.7.6 3.5.8c.6.1 1.2.2 1.8.2v.9q-.1 1.3-.3 2.5c0 .2-.1.4-.1.6-.1.4-.2.9-.3 1.3-.1.2-.3.7-.3.8l-.2.6q-.3.8-.8 1.6-.4.9-.9 1.7-.5.7-1 1.5-.6.7-1.3 1.4-.6.7-1.3 1.3-.7.6-1.5 1.1-.7.5-1.5 1-.8.4-1.7.8c-2.1.9-4.4 1.4-6.8 1.5q-1.4 0-2.8-.3l-.8-.1-.9-.2c-.3-.1-.6-.2-.9-.2-.5-.2-1.1-.4-1.7-.6-.2-.1-.5-.3-.8-.4l-.7-.4c-.1 0-.2-.1-.5-.2-.2-.2-.7-.4-.9-.6l-.3-.2-.2-.1c-.3-.2-.6-.5-.9-.7l-.2-.2-.2-.1-.4-.4c-.3-.2-.6-.6-.8-.8l-1.2-1.2-1.1-1.2-.7-.9c-.2-.3-.5-.7-.6-.9-.5-.6-1-1.5-1.4-2.2q-1.4-2.4-2.4-5.1-.9-2.7-1.4-5.5-.5-2.8-.5-5.7 0-2.8.5-5.6v-.3c.1-.4.3-1.3.4-1.7.2-.6.3-1.2.5-1.8.1-.4.3-1 .4-1.1 0-.1.5-1.2.5-1.3l.5-1.3c.2-.3.6-1.3.7-1.5.2-.3.7-1.3.8-1.4.1-.1.3-.4.4-.6.1-.1.2-.4.4-.7.2-.3.7-1.1 1-1.4l.8-1.1c.2-.3.7-.9 1.1-1.3.4-.3.9-.9 1.2-1.2.2-.3.9-.9 1.1-1.2.3-.2 1-.9 1.3-1.1q1.6-1.3 3.4-2.4 1.7-1.1 3.6-1.9 1.9-.9 3.9-1.5 1.9-.6 4-1 2-.3 4.1-.4 2.1-.1 4.1.1 2.1.2 4.1.7 2 .4 3.9 1.2.8.2 1.6.6.8.3 1.5.7.8.4 1.5.8.8.4 1.5.8c-2.5-1.1-5.3-1.7-8.1-1.6zM32.5 67.1q2.3.9 4.7 1.1 2.5.2 4.9-.3 2.5-.5 4.6-1.7c-2.9 1.3-6.1 1.8-9.2 1.3q-1.1-.2-2.3-.5l-2.2-.8q-1.1-.5-2-1.2-1-.6-1.9-1.4-.3-.2-.5-.5-.2-.2-.5-.4-.2-.3-.4-.5l-.5-.5-.1-.1-.1-.2-.2-.2q-.8-1-1.6-2.1-.7-1-1.3-2.1l-1.2-2.2q-.5-1.2-.9-2.4-1.1-3-1.5-6.1-.4-3.1-.1-6.2.3-3.2 1.2-6.2 1-3 2.6-5.7.7-1.4 1.6-2.6 1-1.3 2-2.5l2.2-2.2q1.2-1 2.5-1.9 1.2-.9 2.6-1.7 1.4-.7 2.8-1.3 1.4-.6 2.9-1.1 1.5-.4 3.1-.7L45 14l1.4-.2 1.3-.1H45l-1.4.1c-3.7.4-7.3 1.6-10.6 3.4q-1.5.9-2.9 1.9c-.2.2-.6.5-.9.7q-1.1.9-2.2 2-1.1 1-2 2.2-1 1.2-1.8 2.4-.8 1.3-1.5 2.6-1.4 2.7-2.2 5.6-.8 2.9-1 5.9-.3 3 .1 6t1.5 5.9q.4 1.4 1.1 2.7.6 1.4 1.4 2.7.8 1.3 1.7 2.5.9 1.2 1.9 2.3.3.2.5.5l.5.5q.3.2.5.5l.6.4q1.9 1.6 4.2 2.6zm17.2-6.4c-2.9 1.5-6.1 2-9.2 1.4q-1.1-.2-2.3-.6-1.1-.4-2.1-1t-1.9-1.3q-.9-.8-1.7-1.7c-.4-.4-.8-.9-1.2-1.4-.2-.2-.5-.7-.7-.9q-1-1.4-1.8-2.9t-1.4-3q-.6-1.6-.9-3.2-.4-1.6-.6-3.3-.2-1.7-.1-3.3 0-1.7.3-3.4.3-1.6.8-3.2t1.1-3.2q.7-1.4 1.5-2.7.8-1.4 1.8-2.6 1-1.2 2.1-2.3 1.2-1.1 2.4-2.1 1.2-.9 2.6-1.7 1.3-.8 2.8-1.4 1.4-.6 2.9-1.1 1.5-.4 3.1-.7.5-.1 1-.1.6-.1 1.1-.2h1.1q.5-.1 1.1-.1-1.4-.1-2.8-.1h-1c-.3 0-.9.1-1.2.1q-.8.1-1.7.3-.8.1-1.6.3-.8.2-1.6.5-.8.2-1.5.5c-.2.1-.7.3-.9.4l-.6.3c-.5.2-1.2.6-1.7.9-.5.2-1.1.7-1.6 1q-.3.2-.7.4-.3.3-.6.5-.3.3-.6.5l-.6.6q-1 .8-1.9 1.8-.8.9-1.6 2-.8 1-1.5 2.1-.6 1.1-1.2 2.3-1.1 2.3-1.7 4.8-.6 2.6-.8 5.2-.1 2.6.3 5.1.4 2.6 1.3 5 .5 1.3 1 2.4.6 1.2 1.3 2.3.7 1.1 1.5 2.1.7 1 1.6 2l.8.8.1.1.2.2c4.7 4.3 12.2 5.4 17.5 1.6zM35.4 50.6q-.7-1.1-1.3-2.2-.6-1.1-1.1-2.3-.5-1.2-.8-2.5-.3-1.2-.5-2.5t-.2-2.6q-.1-1.2.1-2.5.1-1.3.3-2.6.3-1.2.7-2.5.4-1.2 1-2.3.5-1.2 1.2-2.3.6-1.1 1.4-2.1.8-1 1.7-1.9 1-.9 2-1.7 1-.8 2.1-1.5 1-.7 2.2-1.2 1.2-.5 2.4-.9.7-.3 1.5-.5.7-.2 1.5-.3.7-.2 1.5-.3.7-.1 1.5-.1H55c-.4-.1-.9-.2-1.3-.2l-.8-.1h-2.2q-1 .1-1.9.2-1 .1-1.9.3-1 .3-1.9.6l-1.8.6c-.4.2-.7.3-1.3.6-.5.3-1.1.7-1.6 1-.3.2-.7.4-1 .6q-.9.7-1.8 1.5t-1.7 1.7l-1.6 1.8q-.7 1-1.3 2-1.2 2.1-1.9 4.4-.8 2.3-1 4.7-.3 2.4 0 4.8.2 2.4 1 4.6.4 1.2.9 2.3.5 1.1 1.1 2.1.6 1 1.3 2 .7 1 1.5 1.8.5.6 1 1 .5.5 1.1.9.5.5 1.1.8.6.4 1.3.7 1.2.7 2.5 1 1.4.3 2.8.4 1.3 0 2.7-.2 1.3-.3 2.6-.9c-2 .7-4.2.8-6.3.3q-.7-.1-1.5-.4-.7-.2-1.5-.5l-1.4-.8q-.6-.4-1.2-.9t-1-.9q-.5-.5-.9-1-.5-.4-.9-1l-.8-1z" class="s0"/><path d="m37.4 35.8-.7-.1v.1q.8 0 1.5.1z" class="s0"/><path fill-rule="evenodd" d="M62 72.2q-1.7 1.1-3.6 2-1.9.8-3.9 1.4-2 .6-4 1-2.1.3-4.1.4-2.1.1-4.2-.1-2-.2-4.1-.6-2-.5-3.9-1.2l-1.6-.6q-.8-.3-1.5-.7-.8-.4-1.5-.8t-1.5-.9q2.2 1 4.5 1.4 2.3.4 4.7.2 2.3-.1 4.6-.9 2.2-.7 4.2-2 1-.6 1.9-1.3.9-.8 1.7-1.6.8-.9 1.5-1.8.8-.9 1.3-2 .6-1 1.1-2.1.5-1 .8-2.2.3-1.1.5-2.3.2-1.1.3-2.3 0-1-.1-1.9 0-.9-.2-1.9l-.4-1.8q-.2-.9-.6-1.8-.3-.8-.7-1.7-.4-.8-.9-1.6T51.2 43q-.6-.8-1.2-1.5-.7-.6-1.4-1.3-.7-.6-1.5-1.1-.7-.5-1.5-1-.9-.4-1.7-.8c-2.3-1-4.7-1.5-7.2-1.6v-1q0-1.3.3-2.5c0-.2.1-.4.1-.6.1-.4.2-.9.3-1.3.1-.2.2-.7.3-.8l.2-.6q.3-.8.7-1.7.4-.8.9-1.6t1.1-1.5l1.2-1.4q.7-.7 1.4-1.3.7-.6 1.4-1.1l1.6-1q.8-.4 1.7-.8c2.1-.9 4.4-1.4 6.7-1.5h.8q.3.1.7.1.3 0 .7.1h.7l.8.2.8.2 1 .2c.5.2 1.1.4 1.7.6l.7.4.8.4c.1 0 .2.1.4.2.3.2.7.4 1 .6l.2.2.3.1c.2.2.6.5.8.7l.3.2h.1l.1.1.4.4.8.8c.4.3.9.9 1.2 1.1.2.3.8 1.1 1.1 1.3l.6.9q.1.1.2.3l.2.2q.1.1.1.2l.2.2c.4.7 1 1.5 1.4 2.2q1.4 2.4 2.3 5.1 1 2.7 1.5 5.5t.5 5.7q0 2.8-.6 5.6v.3c0 .4-.2 1.3-.3 1.7l-.6 1.8c0 .3-.2 1-.3 1.1-.1.1-.5 1.2-.5 1.3-.2.4-.4 1-.5 1.3-.2.3-.7 1.3-.8 1.5-.1.3-.7 1.3-.7 1.4-.1.1-.3.5-.4.6l-.4.7c-.2.3-.8 1.1-1 1.4l-.8 1.1c-.3.3-.8 1-1.1 1.3l-2.4 2.4c-.2.2-1 .9-1.2 1.1q-1.6 1.3-3.4 2.4zm-3.4-49.3q-2.3-.9-4.8-1.2-2.5-.2-4.9.4-2.4.5-4.6 1.7 1.2-.5 2.5-.9 1.3-.3 2.7-.5 1.3-.1 2.6 0 1.4.1 2.7.4 1.3.3 2.6.8 1.2.5 2.4 1.2 1.1.7 2.1 1.6 1 .9 1.9 2l.1.1.1.1.2.3c.3.3.6.7.9 1q1.5 2.1 2.6 4.3 1.2 2.3 1.9 4.7.8 2.4 1.1 4.9.3 2.5.1 5.1-.1 2.5-.7 4.9-.5 2.5-1.5 4.8-1 2.4-2.4 4.5-1.3 2.1-3.1 4-1.9 2-4.2 3.7-2.2 1.6-4.8 2.8-2.5 1.2-5.3 1.9-2.7.7-5.5.8 1.7.1 3.5 0 1.7-.2 3.4-.5 1.7-.4 3.4-1 1.6-.6 3.2-1.3l1.2-.7.8-.4q.4-.3.7-.5.4-.3.8-.5.3-.3.7-.5l.7-.6.1-.1.3-.2.5-.5c.4-.2.8-.6 1.1-.9q2.1-2 3.7-4.3 1.6-2.4 2.8-5 1.2-2.6 1.8-5.4.6-2.8.7-5.7.1-2.8-.4-5.7-.5-2.8-1.5-5.5-1-2.6-2.5-5.1-1.5-2.4-3.4-4.5l-.5-.5-.5-.5q-.3-.3-.6-.5-.2-.3-.5-.5-1.9-1.6-4.2-2.5zm-.5 7.3zm0 0c-4.6-3.8-11.8-4.5-16.7-.9q1-.6 2.1-.9 1.1-.4 2.2-.6 1.2-.2 2.3-.2 1.2 0 2.3.2 1.2.2 2.3.6 1.1.4 2.1 1 1 .5 1.9 1.2.9.8 1.7 1.6c.3.4.8.9 1 1.2.3.3.6.6.8.9q1 1.4 1.8 2.9.9 1.5 1.5 3.1t1 3.2q.5 1.7.6 3.4.2 1.7.2 3.4t-.3 3.4q-.3 1.6-.8 3.3-.4 1.6-1.1 3.2-.7 1.4-1.5 2.7-.8 1.3-1.7 2.5-1 1.2-2 2.3-1.1 1.1-2.3 2-1.2.9-2.5 1.7-1.3.8-2.7 1.5-1.4.6-2.8 1.1-1.5.5-3 .8l-1.2.2q-.6.1-1.2.1-.6.1-1.3.1-.6.1-1.2.1 1.3.1 2.5.1 1.3 0 2.5-.1 1.3-.2 2.5-.4 1.3-.3 2.5-.7c.3-.1.8-.3 1.1-.4l.3-.1.2-.1.1-.1.6-.2q1.4-.7 2.8-1.5Q56 71 57.3 70q1.2-.9 2.3-2.1 1.1-1.1 2-2.3 1-1.3 1.8-2.6.8-1.4 1.5-2.8.6-1.5 1-3 .5-1.5.8-3 .2-1.6.3-3.2.1-1.5 0-3.1t-.4-3.1q-.3-1.6-.8-3.1t-1.2-2.9q-.6-1.4-1.5-2.8-.8-1.3-1.8-2.6-1-1.2-2.1-2.3c-.4-.3-.7-.6-1.1-.9zM45.5 72.6c-3 1.2-6.2 1.7-9.4 1.6q1.2.2 2.5.3 1.2.1 2.4 0 1.3-.1 2.5-.3l2.4-.6q1.3-.5 2.5-1 1.3-.6 2.4-1.3 1.2-.8 2.3-1.6 1-.9 2-1.9.9-1 1.8-2.1.8-1.1 1.5-2.3.7-1.2 1.2-2.4.5-1.3.9-2.6t.6-2.7q.2-1.4.3-2.8 0-1.3-.1-2.7-.1-1.4-.4-2.7-.3-1.4-.8-2.7-.4-1.3-1-2.5-.6-1.3-1.4-2.4-.7-1.2-1.6-2.2-.4-.5-.8-.9l-.8-.8q-.4-.4-.8-.7-.4-.4-.9-.7-1.3-1-2.9-1.6-1.6-.6-3.2-.8-1.7-.2-3.4 0-1.6.3-3.2 1 .8-.3 1.6-.4l1.6-.2h1.5q.8.1 1.6.3.8.1 1.5.4.8.2 1.5.5l1.4.8q.7.4 1.3.9.3.3.6.5.3.3.5.6.3.2.6.5.2.3.5.6l.6.9.7.8.5.9q1.1 1.7 1.9 3.6.7 1.9 1.1 4 .4 2 .4 4 0 2.1-.3 4.1-.4 2-1.1 3.9-.8 1.9-1.8 3.7-1.1 1.7-2.5 3.3-1.4 1.5-3 2.7c-.3.2-.7.6-1.1.8l-1.1.7-1.2.6-.9.5-1 .4z" class="s0"/></g></svg>