<svg xmlns="http://www.w3.org/2000/svg" viewBox="-376.452 18.166 399.284 251.868"><path d="M195.1 220c2.1 0 4.1-.5 6-1.6l21.9-12.6c4.4-2.5 9.5-3.6 14.6-3 26.6 3.1 45.2 8.1 50.7 9.7 1.1.3 2.4-.1 3.1-1 .9-1.1 2-2.9 2.9-5.5.8-2.5.9-4.6.8-6.1-.1-1.2-.9-2.3-2.1-2.6-8.6-2.5-46.7-12.8-97.9-12.8s-89.3 10.3-97.9 12.8c-1.2.3-2 1.4-2.1 2.6-.1 1.4 0 3.5.8 6.1.8 2.6 2 4.4 2.9 5.5.7.9 2 1.3 3.1 1 5.5-1.6 24.2-6.6 50.7-9.7 5.1-.6 10.2.5 14.6 3l21.9 12.6c1.9 1.1 4 1.6 6 1.6zM158.6 149.1c1.2 2.1 3.1 3.5 5.3 4.1 2.2.6 4.5.3 6.6-.9 2.1-1.2 3.5-3.1 4.1-5.3.6-2.2.3-4.5-.9-6.6L154 106.3c-.6-1.1-1.9-1.5-3.1-1.4-1.6.1-3.8.9-6.4 2.4-2.6 1.5-4.4 3-5.3 4.3-.7 1-.9 2.3-.3 3.4l19.7 34.1zM140.6 173.5c2.1 1.2 4.5 1.4 6.6.9 2.2-.6 4.1-2 5.3-4.1 1.2-2.1 1.4-4.5.9-6.6-.5-2.1-2-4.1-4.1-5.3l-34.1-19.7c-1.1-.6-2.4-.4-3.4.3-1.3.9-2.8 2.7-4.3 5.3-1.5 2.6-2.3 4.8-2.4 6.4-.1 1.3.4 2.5 1.4 3.1l34.1 19.7zM203.8 137c0 2.4-1 4.6-2.5 6.2-1.6 1.6-3.7 2.5-6.2 2.5-2.4 0-4.6-1-6.2-2.5-1.6-1.6-2.5-3.7-2.5-6.2V97.7c0-1.3.8-2.3 2-2.8 1.4-.7 3.7-1.1 6.7-1.1s5.3.4 6.7 1.1c1.1.6 2 1.5 2 2.8V137zM231.6 149.1c-1.2 2.1-3.1 3.5-5.3 4.1-2.2.6-4.5.3-6.6-.9-2.1-1.2-3.5-3.1-4.1-5.3-.6-2.2-.3-4.5.9-6.6l19.7-34.1c.6-1.1 1.9-1.5 3.1-1.4 1.6.1 3.8.9 6.4 2.4 2.6 1.5 4.4 3 5.3 4.3.7 1 .9 2.3.3 3.4l-19.7 34.1zM249.6 173.5c-2.1 1.2-4.5 1.4-6.6.9-2.2-.6-4.1-2-5.3-4.1-1.2-2.1-1.4-4.5-.9-6.6.6-2.2 2-4.1 4.1-5.3l34.1-19.7c1.1-.6 2.4-.4 3.4.3 1.3.9 2.8 2.7 4.3 5.3 1.5 2.6 2.3 4.8 2.4 6.4.1 1.3-.4 2.5-1.4 3.1l-34.1 19.7z" class="st0" style="fill:#0770e3" transform="translate(-566.187 -169.038) scale(1.99578)"/></svg>