<svg xmlns="http://www.w3.org/2000/svg" width="451" height="507.3"><g transform="translate(-168.8 -52.4)"><path d="M285 425.6c-41.5 0-74.3-15.4-94.8-44.5-23.7-33.4-28-83.1-11.6-129.7 21.3-60 68.3-89.4 68.8-89.6l2.8-1.7 4.5-15 21.4 4 14.9 29.7-.8 5.3-2.2 14.7-.2 1.2c-5.3 34.7-9.8 64.7-6 82.5a32 32 0 0 0 15.8 23c3-3.7 5-5.4 7.5-5.4h.8l1 .4c3.6 1.4 4 5.5 4 10.2l1 .3q9.6 2.6 13.6 10.8c4.2 9.1.3 17.2-3.2 24.3-2.6 5.2-6.4 13-8.8 23.4a27.5 27.5 0 0 1-2 31.5q1.5 7.2-1.9 13.7c-5.3 9.5-15.7 10.4-19 10.7l-5.3.2zM506.8 425.7a21 21 0 0 1-16.8-8c-8.3-10-6.8-26.5-4-41.8a27 27 0 0 1-9.6-11l-5.3-12.4L483 346q37.4-20.9 27.6-77.3c-3-4.2-7-11.9-10.8-25.6-2.7-10-13.2-72.7-7.5-83.2 1-2 5-8.1 14-8.1 5.7 0 19.3 3.6 28 12.4h.8c5.5 0 9.6 2.6 13.6 5.2l.5.3 3.5 2.2c2.3 1.3 6.7 4 10.6 9.7 6.3 1 11.4 6 20.3 15l1.2 1.3q3.3 3.1 5.6 9.1c11.4 4.4 18.3 21.6 19.6 27.9l.5 1.9C626 295 622 343.5 599.2 377.1c-18.5 27.2-48.6 43.5-89.5 48.4z" style="fill:#260859"/><path d="M382.7 555.4c-19.9-7-194-71-194-165V108.7a47 47 0 0 1 48-46c16.8 0 32.2 8.3 40.9 22 31.4-3.9 73.3-12 99.6-23.9l2.6-1.1 15.4-7.3 16.2 7.6c26.1 12.3 69 20.7 101.5 24.6a48 48 0 0 1 41-21.9 47 47 0 0 1 48 45.8l-.1 281.9c0 94.3-174.2 158-194 165l-12.6 4.3z" style="fill:#260859"/><path d="M389.6 535.5c-18.4-6.5-180-65.6-180-145.1l.1-281.7c0-13.9 12-24.9 27-24.9 14.3 0 26 10.3 26.8 23.5 35.4-3 88.6-12 122.4-27.3l2.4-1 7-3.3 7.1 3.4c33.5 15.8 88 25 124.6 28.2.7-13.2 12.5-23.5 26.8-23.5 14.9 0 27 11.1 27 24.7v281.9c0 79.7-161.6 138.6-180 145l-5.6 2z" style="fill:#7c3a00"/><path d="m395.2 112.8-1.6.6c-37.7 15.4-92 24.4-127.2 27.5l-23 2v130.8h151.8z" style="fill:#ffef6f"/><path d="m395.2 75.7-6.9 3.3-2.4 1c-33.8 15.3-87 24.2-122.4 27.3-.7-13.2-12.5-23.5-26.9-23.5-14.8 0-26.9 11-26.9 25v281.6c0 79.5 161.5 138.6 180 145l5.5 2z" style="fill:#e8941a"/><path d="M553.8 100.7c-5.4 0-9.8 3.3-10 7.5l-1 17.4-17.3-1.5c-38.2-3.3-94.9-13-130.3-29.8l-2.4 1.1v307l171-126.6V108.5c0-4.2-4.5-7.8-10-7.8" style="fill:#e8941a"/><path d="M392.9 397.4v-302c-35.6 16-90.5 25.4-128 28.7l-17.3 1.5-1-17.4c-.2-4.2-4.6-7.5-10-7.5-5.7 0-10 3.9-10 7.2v153.6z" style="fill:#ffef6f"/><path d="M525.5 124c-38.2-3.2-94.9-13-130.3-29.7l-1.5.7v41.6l30-1.6L537 156.5l10.1-13.6-4.2-17.3z" style="fill:#e8941a"/><path d="M393.7 95c-35.5 16.3-91 25.8-128.8 29l-17.3 1.6-4.2 17.3 19.5 6.9L365.3 138l28.4-1.4z" style="fill:#fff"/><path d="M226.6 243.2V391c0 55.2 105.3 106.9 168.6 129.1 63.3-22.2 168.7-73.9 168.7-129.1V243.2z" style="fill:#ffd26c"/><path d="M393.7 508c-74.8-27.5-150.3-72.5-150.3-110.7V143l23-2c35.1-3 89.5-12 127.2-27.5l1.6-.6 1.6.6c37.7 15.4 92.1 24.4 127.3 27.5l23 2-.1 254.4c0 38.3-75.5 83.2-150.3 110.7l-1.5.6z" style="fill:#fff"/><path d="M524 140.9c-35-3-89.5-12-127.2-27.5l-1.6-.6-1.6.6 1.6-.6v161H547v-131z" style="fill:#ffd26c"/><path d="m395.2 112.8-1.6.6c-37.7 15.4-92 24.4-127.2 27.5l-23 2v130.8h151.8z" style="fill:#ffef6f"/><linearGradient id="a" x1="395.2" x2="395.2" y1="132.9" y2="491.2" gradientUnits="userSpaceOnUse"><stop offset="0" style="stop-color:#e8941a;stop-opacity:1"/><stop offset="1" style="stop-color:#ffef6f;stop-opacity:1"/></linearGradient><path d="M395.2 494.4c-79.4-29.8-139.1-71.7-139.1-97.8V154.4l11.4-1c34.8-3 88.9-11.8 127.7-27 38.9 15.2 93 24 127.8 27l11.4 1v242.2c0 26.1-59.8 68-139.2 97.8" style="fill:url(#a)"/><path d="M534.4 377.3c0 26.2-59.8 68-139.2 97.8-79.4-29.7-139.1-71.7-139.1-97.8v23.8c0 26.1 59.7 68 139.1 97.8 79.4-29.7 139.2-71.6 139.2-97.8V154.5z" style="fill:#260859"/><path d="M395.2 126.4c-39 15.2-93 24-127.7 27l-11.4 1v16.8l10-.9c35.2-3 89.8-11.8 129-27z" style="fill:#a84d10"/><path d="M523 153.5c-34.9-3-89-11.9-127.8-27q-.3 0-.7.2l.7-.3v17-.1c39.3 15.2 93.9 24 129 27l10.2.9v-16.7z" style="fill:#a84d10"/><path d="M256 158v238.6c0 7.6 5.2 16.6 14.3 26.2q1.8 0 3.5.3 0 1.8.3 3.4c23.1 22.2 66.6 47.2 118.8 67v-1.8c-.6-18.3-2.4-35.6-4.7-46a132 132 0 0 0-37.4-62.4c-6.2-15.5-1.7-25.4 4.4-39.1q3-6.4 5.7-13.9c5.2-14.9 4.3-38.2-2-54-2.9-9.6-9.2-17-16.8-19.6q-3.4-1.2-8.2-1.6c-3.2-11-1.6-22-1.6-22.2l1.7-10.4-9.7-4a72.3 72.3 0 0 0-41.1-1.6l2.5-17.2 2.4-15.9.7-4.6-15.5-26.3-5.8.6zM514.7 428.1v-5.4l6.5-1.1c8.5-9.2 13.2-17.7 13.2-25L532.8 170l2.2-.1c-3.7-10.6-23.3-16.1-28.7-16.1-7.6 0-11 4.9-12.1 7-5.1 9.5 4.4 70 7.6 81.6l1 3.3-1.7 8.4c-14.3-13.7-32.4-28.6-42.8-28.6l-1.9.1q-4 .8-6 4.2-2.7 4.8.3 14.2c-5-1-11.1-2-16.3-2q-9.5 0-12.9 4.4-6.7 9 6.4 27.7c2.5 3.6 5.8 7.3 9 10.8l2 2.3c-9.2 14.4-11.6 36-6.4 58.2 2.3 9.8 5.4 16.7 8.2 22.8 1.8 3.9 3.2 7 4 10.3a128 128 0 0 0-42.6 67c-2.2 9.8-3.8 25.2-4.5 42.2l-.3 5.7c51.1-19.3 93.9-43.6 117.4-65.4" style="fill:#260859"/><path d="M321.7 323.6q-3-6.5-10.8-8.5c-19.5-5-29.8-14.7-33.3-31.7-4-18.6.7-48.9 6-84l.2-1.2 2.2-14.7.6-4-13.3-26.7-15.6-2.9-4 13-4.1 2.4c-.5.3-46.1 28.6-67 87.5-16 45.3-11.8 93.6 11 126 19.8 27.8 51.3 42.6 91.4 42.6q2.8 0 5.2-.2c5-.4 12-1.8 15.7-8.6q3.1-5.7 1-12.6 5.8-7 6.3-15.1c.2-3.6-.4-9-4.2-14.6 2.5-11.9 6.7-20.4 9.5-26 3.4-7 6.5-13.4 3.2-20.7" style="fill:#260859"/><path d="M200 259.6c14.3-66.6 55.9-77.5 55.9-77.5l-1 36 .8 76.4s-2.6 60.8 30.2 73.8c33 13 7 42.3-36.2 31.2-41.2-9.9-65.2-69.3-49.8-140" style="fill:#fff"/><path d="M228.9 317.4c-10-45.7 11.8-91.5 23-105.3l13.9-45.9 7.9 15.5c-4.5 30.6-9.4 58.6-10 80.7-.1 4.4 1 20.2 1.7 23.5 3.3 16 11 27.1 24.3 34.4 2.3 1.3 13.1-17 15.7-16 3.3 1.4-1.5 22 2.4 22.9 9.2 2.3-6.9 13.7-11.9 45.4-21.2 2-57-9.6-67-55.2" style="fill:#f26531"/><path d="M194.4 257c19.6-55.5 61.7-81 61.7-81l-.5 15.4c-15.7 12.8-62.3 71.2-44.4 141.3 13.5 48.7 52.8 63.2 80.6 58-4.1 9 14.1 18.2-6.8 18.2-91.7 0-114.8-83.6-90.6-152" style="fill:#7ac143"/><path d="m213.4 210.6-8.1 11.5 34.3 10.8zM191.3 240.5l-5.1 16.9 44.8-.6zM183.6 279l-.5 17.6 43.1-12.3zM180.8 326.4 186 346l43.4-27.9zM201.3 374l13.1 15.5 27.4-43.7zM241.3 405.7l17.8 4L268 367z" style="fill:#260859"/><path d="m324.6 268 .4.1c-9.2-17-5.7-37.3-5.7-37.3s-16.7-6.8-37.3.2c-24.4 8.3-27.1 26.7-24.3 32.1 2.7 5 9.7 6 16 2.3 3.5 9.3 8 15.9 18.3 24.2l34.6-20.1q-.1 0-2-1.4" style="fill:#fff200"/><path d="M275 347.6a17 17 0 0 1-9.4-2.4l-9.9-6.5 12.2-6.4c5.2-1.2 10.6-7.6 15.8-14.7l-3.2.6a100 100 0 0 1-17.4 1.7c-4.4 0-10.2 3.8-12 5.2l-6.7 5.4-4.5-8.7a19 19 0 0 1 1.9-14.7 29 29 0 0 1 23.4-13.9q2.7 0 5.4.7l1.7.2q4.3 0 8.8-5.9 1.2-1.5 1.7-2.6t1.4-2.2q2.6-3 6.9-3c5 0 11.2 2.6 13.8 10 0 0 .7 1.5 4.1 4.7q5.5 1.1 9 3.8 5 4 4.9 10.5-.3 12.2-23.5 28.6a43 43 0 0 1-24.4 9.6" style="fill:#260859"/><path d="M285 298.2a67 67 0 0 1-17.3-19.5H266c-8 0-14.5-3.8-18-10.4-3-5.6-3-13.9.2-21.6 2.7-6.8 10.2-19.3 30.2-26.1a71 71 0 0 1 45 0l8.3 3.3-1.5 8.7c0 .1-2.3 15.3 3.4 28l16.4 8-17.8 10.4-41.2 24z" style="fill:#260859"/><path d="M313.3 327.5c-4.7 0-5.8-4.4-6.8-8.3-.7-3-1.5-6-3.6-8.1-7.7-7.7-18.6-12.2-18.8-12.3l-1-.4-.2-1c-2-8 0-16 5.3-22.7a55 55 0 0 1 40.6-17.9q7 0 12.6 2c11.5 3.9 18.8 19 16.8 34.3-2.6 19.7-19.2 32.5-44.4 34.4z" style="fill:#260859"/><path d="M390.8 491.8a276 276 0 0 0-4.7-45.7 129 129 0 0 0-37-61.6c-6.8-16.6-2-27.4 4.2-41.2 1.8-4 4-8.8 5.6-13.7 6.4-18.5 3.3-52-9.3-64.7l-1-1-17.2 5-.3 1.2c-3.6 15.3-12.5 35.3-20 40.6l-5.2 3.7.7 6.4c1.4 13.1-5.6 28.9-23.1 64.3-7 14-9.2 28-7 43.7 23.3 21.2 64.7 44.9 114.3 63.9z" style="fill:#260859"/><path d="M286.4 296.6a64 64 0 0 1-17.6-20.2l-2.8.2c-7.1 0-13-3.4-16.2-9.3-2.6-5-2.5-12.7.3-19.8 2.6-6.5 9.8-18.4 29-25a69 69 0 0 1 43.6 0l6.6 2.7-1.2 7c0 .2-2.4 16.5 4 30l13.4 6.6-14.3 8.4-40 23.2z" style="fill:#260859"/><path d="m324.6 268 .4.1c-9.2-17-5.7-37.3-5.7-37.3s-16.7-6.8-37.3.2c-24.4 8.3-27.1 26.7-24.3 32.1 2.7 5 9.7 6 16 2.3 3.5 9.3 8 15.9 18.3 24.2l34.6-20.1q-.1 0-2-1.4" style="fill:#fff200"/><path d="M291.4 228.7A59 59 0 0 0 277 233l.4 2.3c2.2 13.1 5.4 31 23.7 49l3.8-2.2 4.5-4.7-1.4-1.3c-15-15.1-17.8-27.5-16.6-47.4M319.3 230.8s-4.7-2-12.2-2.7c-3 19.7.7 32.2 5.8 43.7 3-2 6.4-4.3 12.1-3.7-9.2-17-5.7-37.3-5.7-37.3" style="fill:#f26531"/><path d="M340.8 260.7c-22.5-7.5-62.2 9.5-55.9 36.2 0 0 11.4 4.6 19.5 12.7 5.5 5.5 3.2 16.2 9.2 15.8 55.1-4 48.6-57.2 27.2-64.7" style="fill:#260859"/><path d="M384 446.5c-5.3-23.9-22.3-47.8-36.7-60.8-7.4-17.6-2.1-29.4 4-43.2q3-6.3 5.6-13.6c6-17.5 3.1-50.5-8.8-62.5l-15 4.2c-3.6 15.6-12.6 36-20.7 41.8l-4.2 3 .5 5.1c1.4 13.8-5.6 29.7-23.3 65.5a71 71 0 0 0-6.5 45c23.3 20.3 62.8 42.6 109.8 60.9a269 269 0 0 0-4.6-45.4" style="fill:#260859"/><path d="M375.4 448.5c-4.7-21-20.5-44.6-35.5-57.5v-.2c-12.8-28.3 1.8-45 8.7-64.7 5.1-15 2.3-44.4-6.8-53.5-2.9 12.1-12.2 38.4-24.3 47 1.7 16.4-6.4 34.3-24.2 70.3a66 66 0 0 0-3.3 50c22 16.4 53.3 33.6 89.7 48.4-.8-17.5-2.4-31.6-4.3-39.8" style="fill:#f26531"/><path d="M336.8 268.2c-11-5-39.8.8-49.4 24.7 0 0 8.8 5.1 14.6 12.8 4 5.1 3.7 14 8.8 14.2 42.8 1 42.5-44 26-51.7" style="fill:#f26531"/><path d="M272.7 340.4q-3 0-4.7-2.5c-2-2.8-.8-6-.1-7.8a35 35 0 0 1 21.5-20.2l16-4.3 1.8.9c4.4 2.2 2.5-3 5.3-2 11.5 4.6 5.9 14 4.4 16-3.5 5-7.8 5-10.1 5.4a60 60 0 0 0-18.3 6l-4.2 1.8c-1 .4-3 2-4.3 3-2.8 2.2-4.7 3.7-7.3 3.7" style="fill:#260859"/><path d="m304.9 311.3-14.3 3.8c-6.9 1.6-14.8 9-17.7 16.9s4.8-1.5 9.5-3.3 10.1-5.9 23.5-8.1c13.4-2.3-1-9.3-1-9.3" style="fill:#f26531"/><path d="M290.9 310s-11.1 23-25.2 28.3l10.7 1.3S292 330.2 295 320c2.8-10.3 2.5-15.8 2.5-15.8z" style="fill:#260859"/><path d="M313.5 304.5c-6.2-4.8-21.8-2.7-21.8-2.7l8.7 5.2c-8.4 9.8-18.2 29.2-30.8 32.3 0 0 8 5.4 25.7-7 17.6-12.6 24.4-23 18.2-27.8" style="fill:#fff200"/><path d="M289.9 287.7c-.8 1-1.4 2.5-3.1 4.9-2.6 3.4-8.9 10.5-18 8.2-9-2.2-18 4.5-20.7 9.7-2.8 5.1-1.5 9-1.5 9s9.4-7.4 17.8-6.6c8.3.7 32-7 50.2-4 0 0-14.3-10.2-16.4-16.2-2-5.8-8-5.4-8.3-5" style="fill:#fff200"/><path d="M318.1 275.3c-8.2 11-12.2 13-20 17.4 18.3 33.6 52.7-9.3 20-17.4" style="fill:#260859"/><path d="M315 300c-4 0-7-2.7-9.3-5.5 5.2-3.2 9-6.3 14.4-13q6.8 2.8 6.1 8.4c-.5 4.7-5.5 10.2-11.1 10.2" style="fill:#fff"/><path d="m317.9 282.4-7.7 3.7c-1.4.6-3.9 2.6-3.7 3.2 1.2 2.8 3 5.5 6.1 6.7l1 .3q1-1.9 1.8-4c1.1-2.8 2-6.7 2.5-10" style="fill:#260859"/><path d="M313.7 296.4q0-4-.8-7.1a49 49 0 0 1-7.2 5.2c2 2.4 4.6 4.8 7.8 5.4z" style="fill:#f37344"/><path d="M280.8 251a51 51 0 0 0 12 29l4.9-4.1c-11.6-7.1-16.9-24.8-16.9-24.8M291.1 238.8a60 60 0 0 0 8.7 35.8l6.3-4c-12.1-10.4-15-31.8-15-31.8M306.7 232a60 60 0 0 0 3 36.7l7-3c-10.5-12-10-33.7-10-33.7" style="fill:#260859"/><path d="M334.8 367.4c.3-7 2.2-13.3 4.6-19.4.4-1-7.4 5.7-15.2 8-7.3 2-14.7-.5-15 .2q-3.6 8.6-8.8 19.3c19 1.7 27.1-2.2 34.4-8.1" style="fill:#7ac143"/><path d="M337.4 353.4q2-6 4.5-11.4c-13 7.7-20.5 10.5-31 10q-1.9 4.8-4.3 10.2a43 43 0 0 0 30.8-8.8M293.3 390a66 66 0 0 0-3.3 49.8 334 334 0 0 0 43.8 27.2 93 93 0 0 0-8.2-75.7c-8.2 2.3-33.2 11.2-32.3-1.3" style="fill:#fff"/><path d="M426 226.5c-3.5 0-6.2-1.3-7.6-2-1-.5-2-1-7.2-4.9a58 58 0 0 1-32.3 0c-5.2 3.9-6.4 4.4-7.1 4.8-1.4.7-4.2 2.1-7.8 2.1q-6 0-11-4.8c-4.9-4.8-6.5-9.3-5.6-15.6 0-1 .4-2.5 1.6-6.8q-2.4-3-4.4-6.6a75 75 0 0 1-14.1-5.4q-6.9-4.1-7-16.5-.2-12.2 6.4-16.5c.7-.4 1.8-1.2 8.3-4l.8-3.3c-5.2-7.4-6-9-6.3-9.8-1.4-3.1-2.2-8.2 2-14.8 1.6-2.4 7.3-10.3 15.1-10.3h.8l1.5.2c.9.2 2.2.5 9.5 3.2q6.5-4.5 13.7-7.1c2.3-5.7 3-7 3.5-7.6q4.3-7 16.3-7 12.4 0 16.6 7c.4.7 1 1.8 3.3 7.6q7.4 2.6 13.7 7c7.2-2.6 8.5-2.9 9.4-3l.7-.2h1.4c8 0 13.4 7.1 15.4 10.2 4.2 6.6 3.4 11.7 2 14.7-.4 1-1.1 2.6-6.3 9.9q.5 1.6.9 3.2c6.5 3 7.6 3.7 8.3 4.1q6.6 4.4 6.3 16.5 0 12.3-7 16.5c-1 .6-2.8 1.7-14 5.4q-2.1 3.7-4.7 7c1.3 4.5 1.5 5.7 1.6 6.4.9 6.3-.8 10.8-5.6 15.6q-5 4.8-11 4.8" style="fill:#260859"/><path d="M426 224.4c-3 0-5.4-1.2-6.7-1.8-.8-.4-2-1-7.7-5.3a56 56 0 0 1-33.1 0c-5.8 4.3-7 4.9-7.7 5.3-1.3.6-3.7 1.8-6.8 1.8q-5.3 0-9.5-4.2c-4.4-4.3-5.8-8.2-5-13.8 0-1 .4-2.6 1.9-7.5q-3-3.7-5.4-8a79 79 0 0 1-14.4-5.4q-6-3.5-6-14.7 0-11 5.4-14.7c.7-.4 1.9-1.2 9-4.4l1.3-5c-5.6-8-6.3-9.6-6.7-10.4-1.2-2.6-1.8-7 2-12.8 1.3-2.1 6.4-9.3 13.2-9.3h.8l1.1.2c.8.2 2.2.5 10.3 3.4a57 57 0 0 1 15-7.8c2.4-6.3 3.2-7.6 3.6-8.2Q384.2 96 395 96q11.2 0 14.7 6c.4.6 1 1.7 3.6 8.1a57 57 0 0 1 15 7.8c8-3 9.3-3.2 10.1-3.4l.8-.1h1c7 0 12.1 7 13.5 9.2 3.7 5.9 3.1 10.2 2 12.7-.5.9-1.2 2.5-6.8 10.4q.9 2.6 1.4 5.1c7.1 3.2 8.2 4 9 4.4q5.5 3.7 5.3 14.7 0 11.1-6 14.7c-.8.5-2.7 1.7-14.4 5.5a57 57 0 0 1-5.5 8.2 49 49 0 0 1 1.8 7.2c.8 5.6-.6 9.5-5 13.8q-4.3 4.2-9.5 4.2" style="fill:#260859"/><path d="M409.3 123s-5.3-14.5-6.7-16.8-13.3-2.6-14.8 0-6.8 16.7-6.8 16.7zM380.4 205.2S369.1 214 367 215s-3.9 1.8-6.6-.8-3-4-2.6-6.6c.4-2.7 4.9-16.6 4.9-16.6zM409.6 205.2S421 214 423 215s4 1.8 6.7-.8c2.6-2.6 3-4 2.6-6.6-.4-2.7-5-16.6-5-16.6zM352.5 155.5s-14.6 6.2-16.9 7.7c-2.2 1.4-2.1 13.6.4 15 2.5 1.6 17 6.2 17 6.2zM437.8 155.5s14.7 6.2 17 7.7c2.1 1.4 2 13.6-.4 15-2.5 1.6-17.1 6.2-17.1 6.2z" style="fill:#7f3f98"/><path d="m348.7 153.5-7.4 3a19 19 0 0 0 6.5 16.3c5.6 4.3 1-19.3 1-19.3M441.2 153.5l7.5 3a19 19 0 0 1-6.5 16.3c-5.6 4.3-1-19.3-1-19.3" style="fill:#260859"/><path d="M367.9 129s-15.2-5.8-17.8-6.3-9 7.4-7.8 10c1.2 2.7 10.5 15.5 10.5 15.5zM422.4 129s15.2-5.8 17.8-6.3 9 7.4 7.9 10c-1.3 2.7-10.5 15.5-10.5 15.5z" style="fill:#7f3f98"/><path d="M359.8 122c-2.3 3.7-6.8 9-3.4 17.3 3-4 11.2-15 11.5-16.8zM423.2 198.8l10.6-4.3 3.4 4.8c-4.2 3.2-7.8 6.5-14.7 6.1-8.6-.5.7-6.6.7-6.6M366.9 198.8l-10.6-4.3-3.4 4.8c4.1 3.2 7.7 6.5 14.6 6.1 8.7-.5-.6-6.6-.6-6.6M430.6 122c2.2 3.7 6.8 9 3.3 17.3-2.8-4-11.1-15-11.4-16.8z" style="fill:#260859"/><path d="M443.2 163.4a48 48 0 1 1-96 0 48 48 0 0 1 96 0" style="fill:#7f3f98"/><path d="M499 379.4c-24.1-14.6-50.7-41-46.2-67 1.8-10.7-6.4-19.9-14.4-28.8-3-3.5-6.3-7-8.8-10.6-5.6-8-11.2-18.8-6.4-25.2q2.7-3.6 11.2-3.6c6.4 0 14.3 1.5 19.5 2.7-2-5.5-3.8-12-1.6-16q1.4-2.6 4.5-3.1l1.5-.1c10.7 0 31.3 18.2 44.1 30.7l2.7-13.6 1.1 2.5c.9.2 21 5.6 31.7 37 15.4 14.4 30.8 37.7 28.4 60.9l-1.4 13.6-24.7-4.2-10.5-1.2 10.5 12.7-6.2 10.3-11 2.2a236 236 0 0 1-15.7 2.5l-4.4.6z" style="fill:#260859"/><path d="M499.9 380.7c-8.5-18-15.8-33.6-11.6-49.6q8.1-31.9-1.7-48a23 23 0 0 0-13.9-10.6l-2.4-.6-14 3.3-.4.2c-17.1 5.8-29.8 33.5-21.3 69.7 2.2 9.5 5.3 16.3 8 22.3 2 4.5 3.7 8 4.5 12a126 126 0 0 0-43 66.7 261 261 0 0 0-4.4 41.8l-.2 4.8C448.2 474.1 489 451 512.6 430a92 92 0 0 0-8.8-41z" style="fill:#260859"/><path d="M506.8 421.5q-8.4 0-13.5-6.4c-7.6-9.2-5.6-25.8-2.6-41l-1.5-1.2c-3-2.1-6.9-5-8.9-9.6l-3.8-9 8.5-4.7q40.3-22.2 29.7-82.3l-.2-.5c-2.8-3.7-6.9-11-10.6-24.8-3.6-13-12.3-71.8-7.9-80.1 1-1.8 3.9-6 10.3-6 4.7 0 18.6 3.7 26.4 12.7q1.2-.2 2.4-.2c4.2 0 7.5 2 11.4 4.5l4 2.6c2.3 1.3 6.7 4 10.4 10 5.6.2 9.6 3.8 19.7 14.1l1.3 1.3q2.9 2.9 5.3 9.5c10 2.2 17.3 18.5 18.7 25.3l.3 1.2.3 1c15 57 11.3 104.3-10.8 136.8-17.8 26.2-46.9 41.9-86.5 46.6z" style="fill:#260859"/><path d="M595.4 237.9c-1.8-8.7-10.7-20-11-16.2-.2 2 1.6 13.5 2.1 20.8l-2.7-2c-3-14-6.5-29-9.5-32-2.2-2.1-14.6-15.4-14-11.5 3 17.6 7.5 30.2 11.4 39l-6-4.4c-6.1-4.2-8.8-30.4-13.4-39.4-2.4-4.7-5.7-6.6-7.2-7.5-10-5.9-12.6-9.9-10.9 2.4 1.4 9.3 2.4 21.8 14.8 47.8l-8.2-6.2c-6.8-5.5-11.1-36-13.6-48-2-10.1-21-15.2-21.8-13.8-1.1 2.2 3.8 54 8.8 72.3s10.4 24.2 10.8 25.3c3.9 20.7 5.4 47.8-8.3 70-2.3 3.6-31.1-18.5-34.2-15.2s19.4 32 15.3 35l-7.6 4.7c1.8 4.4 10.4 6.8 11.9 12.6.5 0-11 41.1 5.8 39.1 136.8-16.3 89.3-164.1 87.5-172.8" style="fill:#fff"/><path d="M519.5 379.4c-7-21.4-20.7-50.1-20.7-50.1L470 318l19 63.1-6-5.6-1.1 4.5 10.5 19.6s28 4.2 31.4-6.2c-1.5-5.4-2-7-4.4-14" style="fill:#aaa4c4"/><path d="M506 389.2c-3 .1-3.5-7-6-6.6-2 12-3.2 29.4 8 28 105-12.4 101.3-102.5 93.2-147.6-1.4 28.9 1.3 121-95.2 126.2" style="fill:#aaa4c4"/><path d="M499.4 403.2c1 4.9 3.5 8.1 8.5 7.5 48.2-5.8 73.5-27.8 86-54.4-20.6 34.5-65 42-94.5 47" style="fill:#f2f1f8"/><path d="M536.1 285.5c-10.4-31.2-30.4-36.2-30.4-36.2L504 263c-2-2-34.7-35.1-46.8-33-8.3 1.4-.5 18.2.2 20-6-1.5-28-6.8-32.5-.8s2.9 17.6 6.4 22.7c8.9 12.6 26.3 24.9 23.6 40.9-4.4 25.6 22.3 51 45.2 64.8l3.2 2 3.7-.5q8.4-1 15.7-2.5l10-2 5-8.2-13-15.6 15.9 1.9 22.5 3.8 1.1-11.4c2.1-20.7-11-43.7-28-59.5" style="fill:#260859"/><path d="m511.4 262.4.5 25.7 21 8.6c-10-19.3-21.5-34.3-21.5-34.3" style="fill:#6b5f91"/><path d="M498 381.6c-8.6-18.4-16.1-34.3-11.8-51q8-31-1.4-46.3a21 21 0 0 0-12.5-9.8l-2-.4-13.3 3.1-.4.2c-16.3 5.5-28.2 32.2-20 67.2 2.2 9.3 5.2 16 8 22 2.2 5 4 9 4.9 13.6a126 126 0 0 0-43.3 66.3 259 259 0 0 0-4.4 41.5l-.2 4c46.3-18 85.3-40 108.9-60.1.8-13-2.1-27.5-8.7-42z" style="fill:#260859"/><path d="M414.9 448.5c-1.9 8.2-3.5 22.3-4.3 39.8 36.4-14.8 67.7-31.9 89.8-48.4a74 74 0 0 0-6.6-46.3c-10.2-22.4-22-42.6-16.1-65.2 10.6-41.4-7.3-45.2-7.3-45.2l-11 2.6c-11.8 4-21.2 26.8-14.2 56.8 4.4 18.8 12.9 26.3 13.6 41.5a118 118 0 0 0-44 64.4" style="fill:#fff"/><path d="m524.9 339 28.7 4.9-12.7-16.2-43-11.5-19.1 6 26.4 19.1 10.2-.2 3.1 5z" style="fill:#42316f"/><path d="m512.5 370.3-2.3-.3c-4-.3-11.2-.8-16.6-8.2a307 307 0 0 1-19-30.7l-1.9-3.6 16.2-15.3 3.6 2.6c11 7.8 31.3 22.5 27.2 51.2l-1 6.6zM508 273.9c-8.7-5-1.6 8-1.6 8l17.4 8.2s-7-11.3-15.8-16.2" style="fill:#260859"/><path d="M497.9 358.7c5.4 7.4 13 5.2 16.5 6.6 3.4-24.2-12.5-37.1-25-46.2l-10 9.5s9.3 17.5 18.5 30" style="fill:#f6a0a6"/><path d="m494.5 330.3 9.7-.9-4-9.3-9.8.9z" style="fill:#260859"/><path d="m477.7 328.4.9-4.6-.9-32.6-7-5.7-4.6-1.3-6.7 1.6q-4.6 1.6-8.5 6.7c4.6 7.2 9.7 10.2 8.5 22.2-1.4 12.8 10.8 25.4 16.8 28.7q-.3-7 1.5-15" style="fill:#aaa4c4"/><path d="m515.4 362.8 8-1.4c-12-10-24.4-25.4-30.3-40.8l3.5-.4-12-9-1.5 17.1 21 26.4z" style="fill:#260859"/><path d="M520.6 366c-12-10-24.5-25.4-30.4-40.8 14.2-2 31.8 0 63.4 18.7 2.4-23.7-8.2-64.2-120.3-88.8 19.6 31.7 35.4 34 32.2 59-2.5 19.4 17.7 40.7 40.2 54.3q8.4-1.1 14.9-2.4" style="fill:#fff"/><path d="m502.4 321.3 11.7 15.1 14.3-11.1z" style="fill:#fff"/><path d="m474.9 256.6-15 3.7 30.6 42.4z" style="fill:#260859"/><path d="m519 350.1-12.2 7 7.3 5.9zM515 361.7l5.6 4.3 2.7-7.9z" style="fill:#fff"/><path d="M462.4 239.8c11 28.7 21.6 50.3 24.3 56.7 3.4 7.9 6.4 11.2 16.8 16.8 6.9 3.7 19.9 10.4 31.6 10.4-8.8-21.8-16.2-32.9-38.2-53.1a1817 1817 0 0 0-34.5-30.8" style="fill:#594c82"/><path d="M522 322c-16.2-3.6-25.6-15.5-26.5-33.3l-.4-7.5 6 4.4c20.2 14.6 24.4 26.6 25.2 32.5l.6 5.1z" style="fill:#260859"/><path d="M504.7 294.4c.8 14.3 7.8 26.5 23.7 30.1-.8-6.8-6.4-17.6-23.7-30" style="fill:#fff"/><path d="m521 307.2-2-.8-.8 1.8c-1.8 4.4-1.4 8.7.8 9.6 1.6.7 4-.8 5.7-3.2z" style="fill:#260859"/><path d="m493.8 393.6-.2-.3-2.9 5.6s-19-6.3-25.1-8a94 94 0 0 0-8.5 75.8 334 334 0 0 0 43.3-26.8 74 74 0 0 0-6.6-46.3" style="fill:#6b5f91"/><path d="M282.9 437.3c23 18.9 59 39 101.6 56v-12.6c-45.7-18.5-81.5-40.2-101.6-58zM406.2 493.2c42.3-16.9 78.2-36.9 101-55.6v-14.7c-19.8 17.7-55 39-99.9 57.2z" style="fill:#260859"/><path d="m403.4 148.8.1-2.5a11 11 0 0 1 21.8 3.4q-11.5-1.8-21.9-1" style="fill:#fff"/><path d="M365.4 162.5a37.3 37.3 0 0 0 60 0z" style="fill:#260859"/><path d="M416.7 170.9a74 74 0 0 0-21.8-2.7c-8.6 0-16.2 1-21 2.5a37 37 0 0 0 42.8.2" style="fill:#b30838"/><path d="m359.1 162.5.5 1.3c3.1 9.6 4.8 12 8.3 12 3.4 0 5.2-2.5 8.4-11.9l.5-1.4z" style="fill:#260859"/><path d="M363.8 162.4s3 9 4 9c1.2 0 4.2-9 4.2-9z" style="fill:#fff"/><path d="m414.3 162.5.4 1.3c3.1 9.6 4.9 12 8.3 12s5.2-2.5 8.4-11.9l.5-1.4z" style="fill:#260859"/><path d="M419 162.4s3 9 4 9c1.1 0 4.2-9 4.2-9z" style="fill:#fff"/><path d="M411.1 196.8c0 4.7-7 8.5-15.9 8.5s-16-3.8-16-8.5c0-4.6 7.2-8.4 16-8.4s16 3.8 16 8.4" style="fill:#ffef6f"/><path d="M400.7 196.8c0 1.6-2.5 3-5.5 3s-5.4-1.4-5.4-3 2.4-2.9 5.4-2.9 5.5 1.3 5.5 3" style="fill:#7f3f98"/><path d="M410.7 141.7c0 2.2 1.3 3.9 2.7 3.8 1.4 0 2.5-1.9 2.4-4 0-2.2-1.3-4-2.7-3.9s-2.5 2-2.4 4.1" style="fill:#260859"/><path d="m387 148.8-.2-2.5a11 11 0 0 0-21.8 3.4q11.5-1.8 22-1" style="fill:#fff"/><path d="M379.6 141.7c0 2.2-1.3 3.9-2.7 3.8-1.4 0-2.5-1.9-2.4-4 .1-2.2 1.3-4 2.7-3.9s2.5 2 2.4 4.1" style="fill:#260859"/></g></svg>