<?xml version="1.0" encoding="UTF-8" standalone="no"?>
<!-- Created with Inkscape (http://www.inkscape.org/) -->

<svg width="219.192mm" height="202.94263mm" viewBox="0 0 219.192 202.94262" version="1.1" id="svg1" xmlns="http://www.w3.org/2000/svg" xmlns:svg="http://www.w3.org/2000/svg">
  <defs id="defs1" />
  <g id="layer1" transform="translate(6.7086116,-50.244678)">
    <g id="g3127" style="display:inline" transform="matrix(1.5291151,0,0,1.5291151,-501.38856,-93.192435)">
      <path d="m 426.086,226.523 c -3.566,0 -6.266,-1.336 -7.719,-2.051 -0.879,-0.445 -2,-1.012 -7.145,-4.84 -5.227,1.496 -10.617,2.254 -16.043,2.254 -5.52,0 -10.984,-0.777 -16.266,-2.309 -5.227,3.891 -6.375,4.465 -7.148,4.855 -1.371,0.684 -4.199,2.09 -7.797,2.09 -4.008,0 -7.691,-1.621 -10.949,-4.805 -4.895,-4.824 -6.535,-9.34 -5.664,-15.602 0.137,-0.996 0.441,-2.527 1.691,-6.785 -1.613,-2.074 -3.102,-4.285 -4.441,-6.59 -9.844,-3.238 -12.664,-4.578 -14.113,-5.461 -4.582,-2.82 -6.859,-8.195 -6.98,-16.441 -0.117,-8.219 1.965,-13.617 6.363,-16.496 0.707,-0.461 1.859,-1.211 8.289,-4.105 0.246,-1.074 0.527,-2.141 0.832,-3.195 -5.164,-7.422 -5.906,-9.02 -6.309,-9.887 -1.41,-3.07 -2.191,-8.109 2.059,-14.746 1.551,-2.414 7.227,-10.281 15.102,-10.281 h 0.797 l 1.406,0.211 c 0.941,0.184 2.262,0.449 9.582,3.125 4.242,-2.965 8.844,-5.352 13.707,-7.109 2.277,-5.695 3.047,-6.969 3.422,-7.594 2.812,-4.617 8.301,-6.957 16.328,-6.957 8.25,0 13.824,2.352 16.57,6.988 0.398,0.676 1.055,1.781 3.363,7.566 4.855,1.758 9.449,4.141 13.676,7.098 7.227,-2.648 8.523,-2.91 9.391,-3.09 l 0.734,-0.148 1.395,-0.086 c 7.91,0 13.363,7.188 15.348,10.277 4.25,6.629 3.473,11.66 2.07,14.715 -0.418,0.906 -1.176,2.527 -6.289,9.871 0.312,1.074 0.594,2.156 0.844,3.246 6.473,2.906 7.566,3.625 8.297,4.105 4.398,2.875 6.48,8.273 6.359,16.496 -0.113,8.125 -2.453,13.648 -6.957,16.414 -1.016,0.625 -2.891,1.785 -14.141,5.484 -1.391,2.406 -2.957,4.711 -4.656,6.879 1.348,4.625 1.508,5.785 1.605,6.496 0.871,6.266 -0.762,10.777 -5.645,15.582 -3.269,3.201 -6.956,4.826 -10.968,4.826 z" id="path3129" style="fill:#260859" />
      <path d="m 426.086,224.414 c -3.094,0 -5.512,-1.203 -6.812,-1.844 -0.746,-0.379 -1.895,-0.953 -7.633,-5.262 -5.348,1.641 -10.875,2.473 -16.461,2.473 -5.676,0 -11.273,-0.848 -16.676,-2.527 -5.824,4.367 -6.977,4.941 -7.691,5.301 -1.324,0.656 -3.75,1.859 -6.844,1.859 -3.438,0 -6.621,-1.41 -9.477,-4.203 -4.41,-4.344 -5.828,-8.211 -5.051,-13.801 0.137,-1 0.48,-2.645 1.938,-7.531 -1.992,-2.461 -3.781,-5.105 -5.344,-7.887 -10.289,-3.363 -13.133,-4.711 -14.441,-5.512 -3.922,-2.41 -5.867,-7.207 -5.973,-14.668 -0.109,-7.441 1.664,-12.254 5.41,-14.707 0.672,-0.438 1.848,-1.199 8.965,-4.375 0.359,-1.711 0.801,-3.402 1.309,-5.059 -5.598,-8.008 -6.336,-9.613 -6.707,-10.41 -1.188,-2.582 -1.816,-6.879 1.922,-12.715 1.41,-2.195 6.527,-9.309 13.328,-9.309 h 0.797 l 1.051,0.18 c 0.832,0.164 2.242,0.457 10.258,3.406 4.551,-3.312 9.668,-5.977 14.992,-7.801 2.492,-6.301 3.273,-7.594 3.621,-8.176 2.402,-3.941 7.281,-5.934 14.523,-5.934 7.453,0 12.418,2.004 14.754,5.953 0.371,0.625 1.039,1.754 3.574,8.16 5.312,1.828 10.418,4.48 14.965,7.789 8.012,-2.953 9.32,-3.219 10.129,-3.383 l 0.738,-0.152 1.047,-0.039 c 7.012,0 12.098,7.125 13.496,9.305 3.738,5.828 3.109,10.125 1.93,12.703 -0.387,0.828 -1.137,2.441 -6.684,10.375 0.52,1.68 0.957,3.387 1.32,5.109 7.172,3.195 8.281,3.922 8.969,4.375 3.746,2.449 5.52,7.262 5.414,14.707 -0.105,7.359 -2.109,12.285 -5.953,14.648 -0.922,0.566 -2.789,1.711 -14.469,5.527 -1.621,2.895 -3.48,5.625 -5.559,8.168 1.59,5.371 1.758,6.566 1.852,7.25 0.777,5.59 -0.633,9.457 -5.035,13.785 -2.863,2.808 -6.055,4.222 -9.492,4.222 z" id="path3131" style="fill:#260859" />
      <path d="m 409.34,122.93 c 0,0 -5.383,-14.453 -6.75,-16.773 -1.375,-2.324 -13.246,-2.52 -14.793,0.031 -1.535,2.566 -6.75,16.742 -6.75,16.742 z" id="path3133" style="fill:#7f3f98" />
      <path d="m 380.41,205.176 c 0,0 -11.297,8.801 -13.367,9.836 -2.066,1.031 -3.934,1.836 -6.656,-0.824 -2.676,-2.637 -2.969,-3.941 -2.598,-6.621 0.371,-2.668 4.875,-16.578 4.875,-16.578 z" id="path3135" style="fill:#7f3f98" />
      <path d="m 409.645,205.176 c 0,0 11.297,8.801 13.367,9.836 2.066,1.031 3.938,1.836 6.656,-0.824 2.676,-2.637 2.969,-3.941 2.598,-6.621 -0.371,-2.668 -4.875,-16.578 -4.875,-16.578 z" id="path3137" style="fill:#7f3f98" />
      <path d="m 352.539,155.469 c 0,0 -14.668,6.238 -16.891,7.691 -2.211,1.449 -2.164,13.59 0.336,15.125 2.5,1.531 17.105,6.121 17.105,6.121 z" id="path3139" style="fill:#7f3f98" />
      <path d="m 437.82,155.469 c 0,0 14.668,6.238 16.891,7.691 2.215,1.449 2.164,13.59 -0.336,15.125 -2.5,1.531 -17.105,6.121 -17.105,6.121 z" id="path3141" style="fill:#7f3f98" />
      <path d="m 348.719,153.543 -7.418,3.023 c -0.465,4.172 0.828,11.812 6.457,16.184 5.629,4.359 0.961,-19.207 0.961,-19.207 z" id="path3143" style="fill:#260859" />
      <path d="m 441.246,153.543 7.418,3.023 c 0.465,4.172 -0.828,11.812 -6.457,16.184 -5.629,4.359 -0.961,-19.207 -0.961,-19.207 z" id="path3145" style="fill:#260859" />
      <path d="m 367.875,129.066 c 0,0 -15.164,-5.836 -17.758,-6.371 -2.598,-0.547 -9.082,7.383 -7.863,10.039 1.223,2.66 10.508,15.508 10.508,15.508 z" id="path3147" style="fill:#7f3f98" />
      <path d="m 422.438,129.066 c 0,0 15.164,-5.836 17.754,-6.371 2.598,-0.547 9.086,7.383 7.867,10.039 -1.223,2.66 -10.508,15.508 -10.508,15.508 z" id="path3149" style="fill:#7f3f98" />
      <path d="m 359.793,121.949 c -2.27,3.754 -6.828,9.09 -3.359,17.332 2.875,-3.961 11.133,-15.062 11.43,-16.781 z" id="path3151" style="fill:#260859" />
      <path d="m 423.164,198.848 10.629,-4.398 3.391,4.844 c -4.156,3.188 -7.762,6.547 -14.637,6.121 -8.692,-0.552 0.617,-6.567 0.617,-6.567 z" id="path3153" style="fill:#260859" />
      <path d="m 366.891,198.848 -10.629,-4.398 -3.391,4.844 c 4.156,3.188 7.762,6.547 14.637,6.121 8.695,-0.552 -0.617,-6.567 -0.617,-6.567 z" id="path3155" style="fill:#260859" />
      <path d="m 430.566,121.949 c 2.266,3.754 6.824,9.09 3.352,17.332 -2.867,-3.961 -11.133,-15.062 -11.43,-16.781 z" id="path3157" style="fill:#260859" />
      <path d="m 443.168,163.367 c 0,26.504 -21.488,47.984 -47.988,47.984 -26.508,0 -47.992,-21.48 -47.992,-47.984 0,-26.504 21.484,-47.996 47.992,-47.996 26.5,0 47.988,21.492 47.988,47.996 z" id="path3159" style="fill:#7f3f98" />
    </g>
    <g id="g1" transform="matrix(1.5291151,0,0,1.5291151,-501.38856,-93.192435)">
      <path d="m 403.402,148.789 c -0.047,-0.816 0.004,-1.645 0.133,-2.477 1.031,-5.996 6.719,-10.016 12.719,-8.984 5.887,1.008 9.855,6.508 9.039,12.367 -7.613,-1.144 -14.949,-1.629 -21.891,-0.906 z" id="path3229" style="fill:#ffffff" />
      <path d="m 365.43,162.512 c 6.816,9.141 17.707,15.051 29.973,15.051 12.27,0 23.16,-5.91 29.973,-15.051 z" id="path3231" style="fill:#260859" />
      <path d="m 416.684,170.902 c -4.809,-1.645 -12.762,-2.707 -21.766,-2.707 -8.594,0 -16.242,0.969 -21.102,2.484 6.102,4.32 13.543,6.883 21.586,6.883 7.907,0 15.239,-2.472 21.282,-6.66 z" id="path3233" style="fill:#b30838" />
      <path d="m 359.141,162.512 0.438,1.328 c 3.145,9.539 4.848,12.016 8.293,12.043 h 0.027 c 3.363,0 5.168,-2.57 8.371,-11.938 l 0.496,-1.434 h -17.625 z" id="path3235" style="display:inline;fill:#260859" />
      <g id="g3237" style="display:inline">
        <path d="m 363.828,162.43 c 0,0 2.953,8.965 4.055,8.973 1.102,0.012 4.156,-8.914 4.156,-8.914 z" id="path3239" style="fill:#ffffff" />
      </g>
      <path d="m 414.266,162.512 0.438,1.328 c 3.145,9.539 4.848,12.016 8.293,12.043 h 0.027 c 3.363,0 5.168,-2.57 8.375,-11.938 l 0.492,-1.434 h -17.625 z" id="path3241" style="fill:#260859" />
      <g id="g3243">
        <path d="m 418.953,162.43 c 0,0 2.953,8.965 4.055,8.973 1.105,0.012 4.156,-8.914 4.156,-8.914 z" id="path3245" style="fill:#ffffff" />
      </g>
      <path d="m 411.148,196.828 c 0,4.668 -7.133,8.449 -15.926,8.449 -8.797,0 -15.93,-3.781 -15.93,-8.449 0,-4.668 7.133,-8.449 15.93,-8.449 8.794,0 15.926,3.781 15.926,8.449 z" id="path3247" style="fill:#ffef6f" />
      <path d="m 400.66,196.828 c 0,1.594 -2.434,2.883 -5.438,2.883 -3,0 -5.438,-1.289 -5.438,-2.883 0,-1.598 2.438,-2.891 5.438,-2.891 3.005,10e-4 5.438,1.293 5.438,2.891 z" id="path3249" style="fill:#7f3f98" />
      <path d="m 410.676,141.695 c 0.078,2.168 1.301,3.871 2.711,3.816 1.422,-0.066 2.496,-1.863 2.402,-4.031 -0.082,-2.176 -1.309,-3.895 -2.727,-3.832 -1.414,0.059 -2.492,1.868 -2.386,4.047 z" id="path3251" style="fill:#260859" />
      <path d="m 386.906,148.789 c 0.051,-0.816 -0.004,-1.645 -0.133,-2.477 -1.027,-5.996 -6.715,-10.016 -12.715,-8.984 -5.887,1.008 -9.855,6.508 -9.039,12.367 7.614,-1.144 14.95,-1.629 21.887,-0.906 z" id="path3253" style="fill:#ffffff" />
      <path d="m 379.633,141.695 c -0.082,2.168 -1.301,3.871 -2.707,3.816 -1.426,-0.066 -2.504,-1.863 -2.402,-4.031 0.082,-2.176 1.309,-3.895 2.723,-3.832 1.417,0.059 2.495,1.868 2.386,4.047 z" id="path3255" style="fill:#260859" />
    </g>
  </g>
</svg>
