<svg xmlns="http://www.w3.org/2000/svg" fill="none" viewBox="0 0 500 500"><path fill="#fff" d="M464.522 368.578c-77.428-37.481-89.768-95.35-90.318-99.643-.664-5.199-1.418-9.287 4.318-14.576 5.532-5.11 30.072-20.299 36.881-25.051 11.254-7.869 16.211-15.726 12.557-25.383-2.555-6.682-8.776-9.198-15.329-9.198a28.414 28.414 0 0 0-6.145.69c-12.366 2.682-24.374 8.878-31.324 10.552-.835.215-1.692.331-2.555.344-3.704 0-5.109-1.647-4.752-6.106.869-13.516 2.708-39.895.575-64.538-2.925-33.904-13.861-50.703-26.827-65.56-6.272-7.205-35.399-38.158-91.607-38.158-56.209 0-85.297 30.953-91.531 38.069-13.005 14.857-23.927 31.656-26.827 65.56-2.134 24.642-.217 51.009.575 64.538.255 4.241-1.048 6.106-4.753 6.106a11.024 11.024 0 0 1-2.555-.345c-6.936-1.673-18.944-7.869-31.31-10.552a28.544 28.544 0 0 0-6.145-.69c-6.58 0-12.775 2.555-15.33 9.198-3.653 9.658 1.278 17.514 12.57 25.384 6.81 4.752 31.35 19.928 36.881 25.051 5.723 5.289 4.982 9.376 4.318 14.576-.549 4.356-12.902 62.225-90.317 99.643-4.535 2.197-12.251 6.847 1.354 14.358 21.36 11.804 35.578 10.54 46.628 17.655 9.376 6.043 3.832 19.073 10.654 23.774 8.38 5.787 33.15-.409 65.151 10.156 26.827 8.84 43.127 33.815 90.7 33.815 47.574 0 64.347-25.09 90.701-33.815 31.937-10.565 56.758-4.369 65.151-10.156 6.809-4.701 1.278-17.731 10.654-23.774 11.05-7.115 25.256-5.851 46.628-17.655 13.58-7.422 5.864-12.072 1.329-14.269Z"/><path fill="#000" d="M498.208 364.171c-3.474-9.454-10.092-14.512-17.629-18.702a43.981 43.981 0 0 0-3.832-2.006c-2.248-1.163-4.548-2.287-6.835-3.475-23.492-12.455-41.837-28.168-54.56-46.794a105.952 105.952 0 0 1-9.364-16.607c-1.086-3.104-1.035-4.867-.256-6.477a10.538 10.538 0 0 1 3.002-3.129c4.037-2.67 8.202-5.379 11.025-7.205 5.033-3.258 9.019-5.838 11.587-7.665 9.644-6.745 16.39-13.912 20.605-21.922a43.638 43.638 0 0 0 2.159-36.254c-6.387-16.812-22.266-27.249-41.505-27.249a57.16 57.16 0 0 0-12.072 1.278c-1.06.23-2.121.472-3.155.741.178-11.498-.077-23.634-1.099-35.578-3.628-41.99-18.332-64.001-33.661-81.554a134.14 134.14 0 0 0-34.224-27.542C305.131 10.745 278.751 4 249.995 4c-28.755 0-55.007 6.744-78.296 20.03a133.66 133.66 0 0 0-34.287 27.593c-15.33 17.553-30.034 39.602-33.662 81.554-1.022 11.945-1.277 24.144-1.111 35.578a79.283 79.283 0 0 0-3.143-.741 57.229 57.229 0 0 0-12.072-1.278c-19.251 0-35.156 10.437-41.518 27.249a43.7 43.7 0 0 0 2.108 36.293c4.229 8.01 10.974 15.176 20.619 21.921 2.555 1.789 6.553 4.369 11.586 7.665a1301.22 1301.22 0 0 1 10.59 6.924 11.36 11.36 0 0 1 3.399 3.411c.817 1.673.843 3.475-.37 6.796a105.113 105.113 0 0 1-9.211 16.262c-12.443 18.204-30.25 33.636-52.99 45.989-12.047 6.388-24.566 10.654-29.855 25.026-3.985 10.846-1.38 23.186 8.751 33.585a50.63 50.63 0 0 0 12.775 9.67 138.419 138.419 0 0 0 31.26 12.507 20.63 20.63 0 0 1 6.31 2.823c3.692 3.232 3.168 8.099 8.087 15.227a35.531 35.531 0 0 0 9.249 9.403c10.322 7.128 21.921 7.575 34.21 8.048 11.102.421 23.685.907 38.056 5.646 5.953 1.967 12.136 5.774 19.303 10.22 17.208 10.577 40.764 25.051 80.187 25.051 39.423 0 63.145-14.55 80.481-25.166 7.115-4.369 13.26-8.138 19.047-10.054 14.371-4.752 26.955-5.225 38.056-5.646 12.289-.473 23.889-.92 34.211-8.048a35.633 35.633 0 0 0 10.526-11.498c3.539-6.017 3.449-10.219 6.771-13.158a19.578 19.578 0 0 1 5.927-2.708 138.924 138.924 0 0 0 31.681-12.621 49.822 49.822 0 0 0 13.414-10.501l.128-.153c9.504-10.169 11.893-22.152 7.996-32.729Zm-35.041 18.83c-21.372 11.804-35.577 10.539-46.627 17.654-9.39 6.043-3.833 19.073-10.654 23.774-8.381 5.787-33.151-.409-65.152 10.156-26.392 8.725-43.229 33.815-90.7 33.815-47.471 0-63.912-25.039-90.739-33.879-31.937-10.565-56.758-4.369-65.151-10.156-6.81-4.701-1.278-17.731-10.654-23.773-11.063-7.116-25.269-5.851-46.628-17.591-13.605-7.512-5.89-12.162-1.354-14.359 77.415-37.481 89.768-95.351 90.317-99.643.664-5.199 1.405-9.287-4.318-14.576-5.531-5.11-30.071-20.299-36.88-25.051-11.268-7.869-16.224-15.726-12.57-25.384 2.554-6.681 8.788-9.197 15.329-9.197 2.067.006 4.127.237 6.145.69 12.366 2.682 24.374 8.878 31.31 10.551a10.97 10.97 0 0 0 2.555.345c3.705 0 5.008-1.865 4.753-6.106-.792-13.528-2.709-39.895-.575-64.538 2.925-33.904 13.848-50.703 26.827-65.56 6.234-7.14 35.526-38.094 91.543-38.094 56.018 0 85.387 30.825 91.621 37.94 12.992 14.858 23.927 31.657 26.827 65.561 2.133 24.642.294 51.022-.575 64.538-.294 4.458 1.047 6.106 4.752 6.106.862-.014 1.72-.13 2.555-.345 6.949-1.673 18.958-7.869 31.324-10.552a28.538 28.538 0 0 1 6.144-.69c6.579 0 12.775 2.555 15.33 9.198 3.654 9.658-1.278 17.514-12.558 25.384-6.809 4.752-31.349 19.928-36.88 25.051-5.736 5.289-4.982 9.376-4.318 14.576.549 4.356 12.89 62.225 90.317 99.643 4.574 2.286 12.29 6.936-1.316 14.512Z"/></svg>