<?xml version="1.0" encoding="UTF-8" standalone="no"?>
<svg
   viewBox="0 0 1080 930.30913"
   version="1.1"
   id="svg1"
   width="1080"
   height="930.30914"
   xmlns="http://www.w3.org/2000/svg"
   xmlns:svg="http://www.w3.org/2000/svg">
  <defs
     id="defs1" />
  <g
     id="Layer_2"
     transform="translate(-4.2834068e-5,8.184791e-5)">
    <path
       d="M 487.90102,-8.1847912e-5 C 384.56215,-8.1847912e-5 267.14613,19.409287 167.96639,63.986846 75.398631,105.36507 6.9997971e-4,171.80483 6.9997971e-4,281.96899 -0.13837451,339.65904 21.801965,395.21579 61.32151,437.24395 c 26.767864,24.74162 69.95904,66.75973 182.78933,91.50135 50.44303,10.66444 158.261,27.83427 265.65239,39.13863 107.39141,11.30435 211.47683,21.32897 254.13479,32.73998 33.91307,8.63823 90.96804,20.36917 90.96804,84.35611 0,63.98694 -60.04102,83.18302 -70.49222,87.34217 -10.4512,4.15915 -82.54315,37.21907 -212.01006,37.21907 C 486.58412,807.16002 401.58374,792.54438 319.93535,766.13679 271.62522,748.86031 220.9689,726.14495 173.72522,668.45006 154.65924,641.2805 144.08177,609.06559 143.33143,575.88229 H 26.022051 V 904.34852 H 156.3421 v -44.47087 c -0.0905,-14.50193 15.74284,-23.49817 28.15425,-15.99674 61.39795,26.71643 125.26252,47.36164 190.68105,61.6407 68.46603,14.29042 112.72362,24.63497 197.82625,24.63497 89.80177,1.70736 179.30054,-10.92902 265.11921,-37.43235 56.98704,-15.62002 110.45503,-42.01009 157.51446,-77.74408 53.65948,-41.21717 84.88658,-105.21107 84.35598,-172.87138 0.4449,-63.40587 -24.0267,-124.45084 -68.146,-169.99194 -24.53218,-23.80881 -52.95349,-43.24927 -84.03613,-57.4816 C 894.39705,399.5384 859.70774,387.43997 824.15238,378.48261 756.53952,361.95266 604.67719,341.26355 532.05201,334.0117 455.90759,326.11997 323.77457,315.13555 270.98535,298.81888 c -15.99673,-5.01231 -48.63007,-20.47581 -48.63007,-58.33475 0,-26.98115 14.93028,-49.80315 44.36427,-68.25272 46.81711,-29.32734 141.30447,-47.56362 239.84433,-47.56362 95.38073,-1.15142 189.97915,17.32539 277.9166,54.28225 23.6257,10.2925 45.84442,23.55204 66.11979,39.4586 33.05177,28.22939 55.94008,66.51388 65.16003,108.99107 h 105.2585 V 41.484777 H 903.70942 v 33.166558 c 0,10.66449 -10.66449,24.741611 -31.99346,13.117322 C 818.82014,60.254274 670.15715,0.74643236 487.90102,-8.1847912e-5 Z"
       id="path1"
       fill="currentColor" />
  </g>
</svg>
