<svg version="1.1" id="Layer_1" xmlns="http://www.w3.org/2000/svg" xmlns:xlink="http://www.w3.org/1999/xlink" x="0px" y="0px"
	 width="100%" viewBox="0 0 800 800" enable-background="new 0 0 800 800" xml:space="preserve">
<path fill="#000000" opacity="1.000000" stroke="none" 
	d="
M528.000000,801.000000 
	C352.000000,801.000000 176.500000,801.000000 1.000000,801.000000 
	C1.000000,534.333313 1.000000,267.666656 1.000000,1.000000 
	C267.666656,1.000000 534.333313,1.000000 801.000000,1.000000 
	C801.000000,267.666656 801.000000,534.333313 801.000000,801.000000 
	C710.166687,801.000000 619.333313,801.000000 528.000000,801.000000 
M586.717651,324.645569 
	C591.091492,313.009888 598.113342,303.439880 607.820190,295.523193 
	C619.872803,285.693298 633.406555,279.143066 648.253601,274.982239 
	C660.368652,271.587067 672.649170,268.560913 683.483582,261.802948 
	C699.386597,251.883469 701.456177,237.468613 690.973450,224.029099 
	C676.872925,205.951370 657.609863,196.898041 634.020752,201.056229 
	C610.815674,205.146744 595.706909,219.414658 587.020752,240.761322 
	C577.672791,263.734558 578.655762,287.709412 581.145874,311.705994 
	C581.611450,316.193359 583.132568,320.571228 584.042603,325.730835 
	C584.325867,326.474182 584.609070,327.217529 585.373413,329.223480 
	C585.784912,326.902649 585.949829,325.972382 586.717651,324.645569 
M451.019104,98.536285 
	C446.938721,93.784004 443.049713,88.850212 438.744629,84.311035 
	C420.780212,65.369804 400.592560,49.444172 376.513611,38.819729 
	C362.183655,32.496887 347.577728,28.340176 331.584290,28.829716 
	C314.727875,29.345671 299.052368,33.279274 284.652344,41.831211 
	C271.604218,49.580265 261.824799,60.365849 255.706818,74.493233 
	C250.345490,86.873405 248.695679,99.725044 248.959946,113.049500 
	C249.291855,129.784958 255.262344,144.224060 266.772339,156.140350 
	C277.910950,167.672195 291.725281,175.447495 306.625214,180.895767 
	C326.132263,188.028687 345.892609,194.482590 365.626038,200.979279 
	C387.866699,208.301376 409.689240,216.061844 425.519897,234.876495 
	C434.347504,245.368073 441.195465,256.667633 443.905090,270.202118 
	C445.284973,277.094482 441.599609,284.201630 435.247375,287.310486 
	C425.837494,291.915802 416.218140,290.587372 406.944550,287.379181 
	C374.780640,276.252258 341.674316,270.853088 307.732422,271.145386 
	C293.406769,271.268738 279.073181,272.751526 264.782104,274.045990 
	C246.003769,275.746857 228.120499,280.954926 211.257584,289.377075 
	C187.385941,301.299713 165.007172,315.406464 148.107880,336.560638 
	C140.864655,345.627533 133.827408,355.058167 128.169205,365.149292 
	C117.502388,384.173004 111.050606,404.642792 108.748238,426.577789 
	C106.884644,444.332611 108.400406,461.596069 114.269737,478.139069 
	C124.018730,505.616974 141.707291,527.355713 165.579178,544.081726 
	C190.554810,561.581055 218.503250,566.288269 247.948380,561.723694 
	C271.598175,558.057495 292.922546,547.985107 312.454865,534.099854 
	C324.682312,525.407593 336.160583,515.633240 344.558380,503.385864 
	C358.999084,482.325470 372.431335,460.541626 385.581451,438.637939 
	C396.917175,419.756378 408.562286,401.437744 426.990143,388.396301 
	C442.655640,377.309784 459.515411,370.366913 478.956726,369.932678 
	C497.497192,369.518555 514.386230,374.983795 530.031860,384.167877 
	C541.674622,391.002228 552.911316,398.854034 560.646179,410.270508 
	C568.354126,421.647308 575.303345,433.537109 582.625427,445.176666 
	C592.496582,460.868408 601.904968,476.899109 616.461426,489.005493 
	C624.694092,495.852448 633.868164,498.995758 644.365784,496.167297 
	C666.827332,490.115387 674.157104,470.069183 671.781433,450.257355 
	C669.760010,433.400116 660.924194,419.452057 649.611816,407.224335 
	C636.170654,392.695709 620.003540,381.848694 602.502258,372.604156 
	C589.787720,365.888092 576.949829,358.804138 565.798950,349.851501 
	C540.857605,329.827057 528.812866,302.293945 523.964294,271.199890 
	C522.325928,260.692566 521.094604,250.012466 518.187500,239.836975 
	C513.430481,223.186783 507.855957,206.737610 501.892212,190.472794 
	C493.974854,168.879913 484.012482,148.171341 471.804077,128.657318 
	C465.465149,118.525085 458.305481,108.906303 451.019104,98.536285 
M685.281738,749.632446 
	C688.224609,749.120239 691.248108,748.883972 694.097717,748.052307 
	C717.256714,741.292969 730.412964,715.577087 722.571045,692.295837 
	C718.456604,680.080994 710.734863,671.485046 697.410583,669.473755 
	C693.006897,668.808960 688.442017,668.906128 683.966797,669.075806 
	C666.662109,669.732178 650.023804,683.556641 647.315247,700.487366 
	C643.588196,723.784973 640.652161,747.208923 637.358459,770.576111 
	C636.824707,774.362976 638.528564,774.868958 641.727295,773.920227 
	C655.752502,769.760498 656.190491,769.344299 658.693970,755.125854 
	C659.241333,752.016602 659.515930,748.858521 660.093201,745.755798 
	C660.406250,744.073120 661.092529,742.459839 661.901672,739.890442 
	C668.612976,746.510437 676.057495,749.316406 685.281738,749.632446 
M203.498352,721.834351 
	C213.569595,690.987610 195.431335,667.333618 163.760300,670.012085 
	C145.321777,671.571533 130.863281,685.570129 128.040863,704.771301 
	C125.334351,723.184021 122.734451,741.612488 120.151108,760.042969 
	C119.451653,765.033142 118.982048,770.055542 118.335808,775.682617 
	C120.436386,775.215759 121.591553,775.133911 122.602104,774.708557 
	C140.288925,767.263367 136.752609,773.116089 140.167084,753.746094 
	C140.891800,749.634827 141.856277,745.565796 142.833969,740.885254 
	C144.653915,741.930359 145.627853,742.259827 146.293442,742.906616 
	C155.005051,751.371887 165.534348,751.612061 176.137299,748.546631 
	C189.461884,744.694336 198.186447,735.403137 203.498352,721.834351 
M485.838745,742.175110 
	C487.751862,727.334900 489.544861,712.477783 491.619690,697.660217 
	C493.043427,687.492554 488.730438,677.358154 480.014587,673.215881 
	C471.880463,669.349976 463.509918,670.191040 455.385529,673.833130 
	C453.363098,674.739807 451.354279,675.676941 448.541107,676.965637 
	C448.379944,674.251831 448.017853,672.472229 448.220734,670.759583 
	C448.826965,665.641479 449.779449,660.564026 450.371582,655.444702 
	C451.992584,641.430054 453.861694,643.134338 439.841034,643.017212 
	C432.372986,642.954834 432.202881,643.157898 431.185974,650.673340 
	C427.083344,680.993286 422.977692,711.312744 418.914948,741.638000 
	C417.798920,749.968201 417.867615,750.106262 426.223297,749.968994 
	C438.535919,749.766846 437.148895,752.267517 439.089722,738.248657 
	C440.571320,727.546753 442.174133,716.844055 444.277710,706.251831 
	C445.732727,698.925537 449.756561,693.096008 457.019867,690.045288 
	C465.362366,686.541260 472.124939,691.281006 471.144836,700.262756 
	C469.774475,712.820557 468.069336,725.341736 466.531219,737.881470 
	C464.964386,750.655334 462.675140,750.017395 476.936615,749.997131 
	C484.213043,749.986755 484.213013,749.975830 485.838745,742.175110 
M303.135498,746.836365 
	C304.956024,745.789490 306.776581,744.742615 309.115143,743.397888 
	C309.829926,749.308289 313.743622,749.154114 317.691803,749.011108 
	C319.686066,748.938904 321.691498,748.885986 323.680176,749.010742 
	C327.650055,749.259766 329.698029,747.864563 330.272552,743.545410 
	C331.455048,734.655701 333.686066,725.888062 334.554138,716.979492 
	C335.191498,710.438782 335.556854,703.441406 333.944031,697.189148 
	C328.264587,675.172302 304.128021,663.758423 282.352325,671.836670 
	C265.513031,678.083618 254.324081,695.287048 254.838394,714.530029 
	C255.557907,741.451782 277.516327,756.896423 303.135498,746.836365 
M597.382202,669.048584 
	C577.347229,669.608948 561.168701,680.268372 555.052551,698.315186 
	C549.784973,713.857971 550.719666,728.961304 563.039246,741.449402 
	C571.106873,749.627319 581.545044,750.249573 592.295715,750.048767 
	C620.983887,749.512878 641.532104,717.408936 630.067749,691.096375 
	C623.943481,677.040222 613.058716,670.370178 597.382202,669.048584 
M83.175095,749.964661 
	C94.077332,749.181213 101.727631,743.684631 105.476776,733.512939 
	C109.178482,723.469849 106.173737,714.804260 98.305550,707.884033 
	C93.694229,703.828369 88.556503,700.366394 84.001175,696.254456 
	C82.408508,694.816772 81.850044,692.233459 80.819298,690.173279 
	C83.101471,689.126953 85.471809,687.060791 87.647293,687.248840 
	C92.034157,687.628052 96.534828,688.715698 100.594406,690.439331 
	C109.352867,694.158203 109.033714,694.246521 114.376587,686.591187 
	C117.187164,682.564087 116.407501,679.969849 112.707764,677.518188 
	C103.838394,671.641052 94.040283,668.759521 83.451813,669.106323 
	C72.997215,669.448792 63.802914,675.883972 61.231873,684.108582 
	C58.161953,693.929077 61.537659,703.405701 70.613564,710.414856 
	C74.954742,713.767456 79.547073,716.847778 83.544273,720.568604 
	C85.325775,722.226990 87.464699,726.210449 86.727425,727.296997 
	C85.231926,729.500916 81.793716,731.802734 79.326256,731.630432 
	C74.479797,731.292175 69.492722,729.861572 65.025902,727.854553 
	C56.373299,723.966980 56.502926,723.669678 50.613995,731.122742 
	C49.892502,732.035828 49.335884,733.108337 48.506371,733.901367 
	C46.077663,736.223328 46.511326,737.843079 49.130913,739.866089 
	C58.934814,747.437439 69.957336,750.722717 83.175095,749.964661 
M357.721222,725.851135 
	C355.115845,723.692810 352.856689,724.280090 350.836182,726.723755 
	C349.353607,728.516785 347.920868,730.353394 346.387756,732.102051 
	C342.443359,736.601074 342.615662,737.973816 347.718475,741.441406 
	C357.123260,747.832520 367.424683,750.668518 378.859833,750.063416 
	C389.494537,749.500671 398.817413,743.071960 402.021606,733.308411 
	C405.193909,723.642151 401.881683,713.314209 393.377350,706.593689 
	C389.075470,703.194214 384.526398,700.084778 380.430389,696.458740 
	C378.756042,694.976501 377.984619,692.474365 376.802368,690.436218 
	C379.055878,689.306824 381.373657,687.133728 383.549377,687.267761 
	C387.930511,687.537537 392.462708,688.508789 396.524994,690.180786 
	C406.615570,694.333984 406.450684,694.517456 411.701111,684.928833 
	C413.322266,681.968262 412.739166,679.899170 410.124878,678.116211 
	C400.444702,671.513977 389.711334,667.989319 378.068909,669.300415 
	C369.143463,670.305542 361.131409,674.148193 358.122955,683.577332 
	C355.163696,692.852234 356.780060,701.417114 364.567383,708.029907 
	C369.880707,712.541748 375.558746,716.645996 380.639771,721.396667 
	C382.226654,722.880310 383.691742,726.604736 382.904236,728.007385 
	C381.808350,729.959167 378.268494,732.079407 376.252228,731.685303 
	C370.161285,730.494385 364.300842,728.124695 357.721222,725.851135 
M519.000854,656.499023 
	C518.344727,660.769043 517.912415,665.092834 516.906372,669.278748 
	C516.571350,670.672852 514.842773,672.641113 513.618408,672.742615 
	C509.889343,673.051514 508.869690,675.282776 508.454071,678.303833 
	C508.114441,680.772461 507.495483,683.294189 507.739838,685.717896 
	C507.890228,687.209351 509.175659,689.447510 510.397217,689.798401 
	C513.338318,690.643188 514.094849,692.216553 513.721497,694.915588 
	C511.649902,709.892273 509.722992,724.890198 507.491455,739.842834 
	C505.971527,750.026917 505.784668,749.999084 515.728333,749.999939 
	C516.726929,750.000000 517.725647,750.004028 518.724182,749.997437 
	C525.658203,749.951965 526.104980,749.449402 527.024414,742.430298 
	C529.031250,727.108948 531.192810,711.807800 533.170532,696.482788 
	C533.743835,692.040527 535.399475,689.290771 540.458191,689.972961 
	C545.176575,690.609314 546.500122,687.591980 546.900391,683.693970 
	C547.053101,682.205994 547.102112,680.683594 547.469055,679.245911 
	C548.547974,675.019348 547.268982,672.692200 542.638855,673.018311 
	C537.745483,673.362854 536.540100,670.788208 537.197998,666.507629 
	C537.955261,661.580139 538.578003,656.631897 539.348022,651.706543 
	C540.441223,644.713928 539.957581,644.077393 533.116760,644.002869 
	C521.051697,643.871460 521.051697,643.871460 519.000854,656.499023 
M239.000381,710.487793 
	C241.396912,692.531494 243.820969,674.578857 246.181473,656.617859 
	C248.148895,641.647644 251.347672,643.103394 233.606445,642.973755 
	C229.984512,642.947266 228.304474,644.135437 227.795624,647.997009 
	C223.952515,677.161316 219.746307,706.278198 215.970200,735.450806 
	C213.985977,750.779907 214.270370,750.753723 228.951050,750.026123 
	C232.146545,749.867737 233.706161,748.820129 234.136063,745.441589 
	C235.583542,734.066284 237.309250,722.726440 239.000381,710.487793 
M737.570068,650.267334 
	C735.002625,654.656860 735.724121,658.704163 739.386414,661.955688 
	C742.607422,664.815308 746.424255,664.794800 750.000610,662.475037 
	C754.454285,659.586243 755.252808,653.559387 751.922363,649.331726 
	C748.514648,645.006165 742.998169,645.136047 737.570068,650.267334 
z"/>
<path fill="#216DB5" opacity="1.000000" stroke="none" 
	d="
M451.267822,98.795929 
	C458.305481,108.906303 465.465149,118.525085 471.804077,128.657318 
	C484.012482,148.171341 493.974854,168.879913 501.892212,190.472794 
	C507.855957,206.737610 513.430481,223.186783 518.187500,239.836975 
	C521.094604,250.012466 522.325928,260.692566 523.964294,271.199890 
	C528.812866,302.293945 540.857605,329.827057 565.798950,349.851501 
	C576.949829,358.804138 589.787720,365.888092 602.502258,372.604156 
	C620.003540,381.848694 636.170654,392.695709 649.611816,407.224335 
	C660.924194,419.452057 669.760010,433.400116 671.781433,450.257355 
	C674.157104,470.069183 666.827332,490.115387 644.365784,496.167297 
	C633.868164,498.995758 624.694092,495.852448 616.461426,489.005493 
	C601.904968,476.899109 592.496582,460.868408 582.625427,445.176666 
	C575.303345,433.537109 568.354126,421.647308 560.646179,410.270508 
	C552.911316,398.854034 541.674622,391.002228 530.031860,384.167877 
	C514.386230,374.983795 497.497192,369.518555 478.956726,369.932678 
	C459.515411,370.366913 442.655640,377.309784 426.990143,388.396301 
	C408.562286,401.437744 396.917175,419.756378 385.581451,438.637939 
	C372.431335,460.541626 358.999084,482.325470 344.558380,503.385864 
	C336.160583,515.633240 324.682312,525.407593 312.454865,534.099854 
	C292.922546,547.985107 271.598175,558.057495 247.948380,561.723694 
	C218.503250,566.288269 190.554810,561.581055 165.579178,544.081726 
	C141.707291,527.355713 124.018730,505.616974 114.269737,478.139069 
	C108.400406,461.596069 106.884644,444.332611 108.748238,426.577789 
	C111.050606,404.642792 117.502388,384.173004 128.169205,365.149292 
	C133.827408,355.058167 140.864655,345.627533 148.107880,336.560638 
	C165.007172,315.406464 187.385941,301.299713 211.257584,289.377075 
	C228.120499,280.954926 246.003769,275.746857 264.782104,274.045990 
	C279.073181,272.751526 293.406769,271.268738 307.732422,271.145386 
	C341.674316,270.853088 374.780640,276.252258 406.944550,287.379181 
	C416.218140,290.587372 425.837494,291.915802 435.247375,287.310486 
	C441.599609,284.201630 445.284973,277.094482 443.905090,270.202118 
	C441.195465,256.667633 434.347504,245.368073 425.519897,234.876495 
	C409.689240,216.061844 387.866699,208.301376 365.626038,200.979279 
	C345.892609,194.482590 326.132263,188.028687 306.625214,180.895767 
	C291.725281,175.447495 277.910950,167.672195 266.772339,156.140350 
	C255.262344,144.224060 249.291855,129.784958 248.959946,113.049500 
	C248.695679,99.725044 250.345490,86.873405 255.706818,74.493233 
	C261.824799,60.365849 271.604218,49.580265 284.652344,41.831211 
	C299.052368,33.279274 314.727875,29.345671 331.584290,28.829716 
	C347.577728,28.340176 362.183655,32.496887 376.513611,38.819729 
	C400.592560,49.444172 420.780212,65.369804 438.744629,84.311035 
	C443.049713,88.850212 446.938721,93.784004 451.267822,98.795929 
z"/>
<path fill="#216DB5" opacity="1.000000" stroke="none" 
	d="
M584.166626,324.999603 
	C583.132568,320.571228 581.611450,316.193359 581.145874,311.705994 
	C578.655762,287.709412 577.672791,263.734558 587.020752,240.761322 
	C595.706909,219.414658 610.815674,205.146744 634.020752,201.056229 
	C657.609863,196.898041 676.872925,205.951370 690.973450,224.029099 
	C701.456177,237.468613 699.386597,251.883469 683.483582,261.802948 
	C672.649170,268.560913 660.368652,271.587067 648.253601,274.982239 
	C633.406555,279.143066 619.872803,285.693298 607.820190,295.523193 
	C598.113342,303.439880 591.091492,313.009888 586.091553,324.836487 
	C585.032532,325.018158 584.599548,325.008881 584.166626,324.999603 
z"/>
<path fill="#221F1F" opacity="1.000000" stroke="none" 
	d="
M684.862305,749.676147 
	C676.057495,749.316406 668.612976,746.510437 661.901672,739.890442 
	C661.092529,742.459839 660.406250,744.073120 660.093201,745.755798 
	C659.515930,748.858521 659.241333,752.016602 658.693970,755.125854 
	C656.190491,769.344299 655.752502,769.760498 641.727295,773.920227 
	C638.528564,774.868958 636.824707,774.362976 637.358459,770.576111 
	C640.652161,747.208923 643.588196,723.784973 647.315247,700.487366 
	C650.023804,683.556641 666.662109,669.732178 683.966797,669.075806 
	C688.442017,668.906128 693.006897,668.808960 697.410583,669.473755 
	C710.734863,671.485046 718.456604,680.080994 722.571045,692.295837 
	C730.412964,715.577087 717.256714,741.292969 694.097717,748.052307 
	C691.248108,748.883972 688.224609,749.120239 684.862305,749.676147 
M677.278809,730.731323 
	C695.587036,733.807495 706.490845,718.553589 704.950317,702.884277 
	C703.842102,691.612671 693.462769,684.165039 682.513000,686.891479 
	C671.961609,689.518738 666.955750,697.143616 664.601135,706.931763 
	C662.106750,717.301025 666.711731,726.136841 677.278809,730.731323 
z"/>
<path fill="#221F1F" opacity="1.000000" stroke="none" 
	d="
M203.338562,722.192505 
	C198.186447,735.403137 189.461884,744.694336 176.137299,748.546631 
	C165.534348,751.612061 155.005051,751.371887 146.293442,742.906616 
	C145.627853,742.259827 144.653915,741.930359 142.833969,740.885254 
	C141.856277,745.565796 140.891800,749.634827 140.167084,753.746094 
	C136.752609,773.116089 140.288925,767.263367 122.602104,774.708557 
	C121.591553,775.133911 120.436386,775.215759 118.335808,775.682617 
	C118.982048,770.055542 119.451653,765.033142 120.151108,760.042969 
	C122.734451,741.612488 125.334351,723.184021 128.040863,704.771301 
	C130.863281,685.570129 145.321777,671.571533 163.760300,670.012085 
	C195.431335,667.333618 213.569595,690.987610 203.338562,722.192505 
M170.117569,687.157471 
	C157.276596,686.866882 148.545959,694.473633 145.883041,708.272217 
	C144.227859,716.848999 147.276855,725.452393 153.243210,729.040283 
	C160.850998,733.615417 170.408646,732.856934 177.446732,726.888062 
	C185.725632,719.866943 187.427032,710.506714 185.448975,700.539246 
	C183.951797,692.994995 178.608505,688.614014 170.117569,687.157471 
z"/>
<path fill="#221F1F" opacity="1.000000" stroke="none" 
	d="
M485.775085,742.607178 
	C484.213013,749.975830 484.213043,749.986755 476.936615,749.997131 
	C462.675140,750.017395 464.964386,750.655334 466.531219,737.881470 
	C468.069336,725.341736 469.774475,712.820557 471.144836,700.262756 
	C472.124939,691.281006 465.362366,686.541260 457.019867,690.045288 
	C449.756561,693.096008 445.732727,698.925537 444.277710,706.251831 
	C442.174133,716.844055 440.571320,727.546753 439.089722,738.248657 
	C437.148895,752.267517 438.535919,749.766846 426.223297,749.968994 
	C417.867615,750.106262 417.798920,749.968201 418.914948,741.638000 
	C422.977692,711.312744 427.083344,680.993286 431.185974,650.673340 
	C432.202881,643.157898 432.372986,642.954834 439.841034,643.017212 
	C453.861694,643.134338 451.992584,641.430054 450.371582,655.444702 
	C449.779449,660.564026 448.826965,665.641479 448.220734,670.759583 
	C448.017853,672.472229 448.379944,674.251831 448.541107,676.965637 
	C451.354279,675.676941 453.363098,674.739807 455.385529,673.833130 
	C463.509918,670.191040 471.880463,669.349976 480.014587,673.215881 
	C488.730438,677.358154 493.043427,687.492554 491.619690,697.660217 
	C489.544861,712.477783 487.751862,727.334900 485.775085,742.607178 
z"/>
<path fill="#221F1F" opacity="1.000000" stroke="none" 
	d="
M302.797943,746.999878 
	C277.516327,756.896423 255.557907,741.451782 254.838394,714.530029 
	C254.324081,695.287048 265.513031,678.083618 282.352325,671.836670 
	C304.128021,663.758423 328.264587,675.172302 333.944031,697.189148 
	C335.556854,703.441406 335.191498,710.438782 334.554138,716.979492 
	C333.686066,725.888062 331.455048,734.655701 330.272552,743.545410 
	C329.698029,747.864563 327.650055,749.259766 323.680176,749.010742 
	C321.691498,748.885986 319.686066,748.938904 317.691803,749.011108 
	C313.743622,749.154114 309.829926,749.308289 309.115143,743.397888 
	C306.776581,744.742615 304.956024,745.789490 302.797943,746.999878 
M287.587646,731.001343 
	C302.450592,733.555603 314.918182,722.227539 314.977081,706.115417 
	C315.025665,692.822510 304.846649,684.445374 291.873169,687.101318 
	C282.169891,689.087830 275.592834,696.636169 273.449921,708.245117 
	C271.532684,718.631409 276.717468,727.415466 287.587646,731.001343 
z"/>
<path fill="#221F1F" opacity="1.000000" stroke="none" 
	d="
M597.826172,669.068604 
	C613.058716,670.370178 623.943481,677.040222 630.067749,691.096375 
	C641.532104,717.408936 620.983887,749.512878 592.295715,750.048767 
	C581.545044,750.249573 571.106873,749.627319 563.039246,741.449402 
	C550.719666,728.961304 549.784973,713.857971 555.052551,698.315186 
	C561.168701,680.268372 577.347229,669.608948 597.826172,669.068604 
M609.018982,694.556519 
	C605.645691,690.539429 601.479919,688.169189 596.106934,688.016235 
	C586.796692,687.751160 580.103760,692.099243 575.779968,699.977966 
	C571.583740,707.624329 569.854980,715.867981 575.107300,723.595581 
	C577.261047,726.764465 580.977051,729.671936 584.591675,730.889160 
	C593.514038,733.893921 602.767334,730.337097 607.964844,723.025452 
	C614.434448,713.924255 615.032593,703.180786 609.018982,694.556519 
z"/>
<path fill="#221F1F" opacity="1.000000" stroke="none" 
	d="
M82.714615,749.974670 
	C69.957336,750.722717 58.934814,747.437439 49.130913,739.866089 
	C46.511326,737.843079 46.077663,736.223328 48.506371,733.901367 
	C49.335884,733.108337 49.892502,732.035828 50.613995,731.122742 
	C56.502926,723.669678 56.373299,723.966980 65.025902,727.854553 
	C69.492722,729.861572 74.479797,731.292175 79.326256,731.630432 
	C81.793716,731.802734 85.231926,729.500916 86.727425,727.296997 
	C87.464699,726.210449 85.325775,722.226990 83.544273,720.568604 
	C79.547073,716.847778 74.954742,713.767456 70.613564,710.414856 
	C61.537659,703.405701 58.161953,693.929077 61.231873,684.108582 
	C63.802914,675.883972 72.997215,669.448792 83.451813,669.106323 
	C94.040283,668.759521 103.838394,671.641052 112.707764,677.518188 
	C116.407501,679.969849 117.187164,682.564087 114.376587,686.591187 
	C109.033714,694.246521 109.352867,694.158203 100.594406,690.439331 
	C96.534828,688.715698 92.034157,687.628052 87.647293,687.248840 
	C85.471809,687.060791 83.101471,689.126953 80.819298,690.173279 
	C81.850044,692.233459 82.408508,694.816772 84.001175,696.254456 
	C88.556503,700.366394 93.694229,703.828369 98.305550,707.884033 
	C106.173737,714.804260 109.178482,723.469849 105.476776,733.512939 
	C101.727631,743.684631 94.077332,749.181213 82.714615,749.974670 
z"/>
<path fill="#221F1F" opacity="1.000000" stroke="none" 
	d="
M358.035889,726.032776 
	C364.300842,728.124695 370.161285,730.494385 376.252228,731.685303 
	C378.268494,732.079407 381.808350,729.959167 382.904236,728.007385 
	C383.691742,726.604736 382.226654,722.880310 380.639771,721.396667 
	C375.558746,716.645996 369.880707,712.541748 364.567383,708.029907 
	C356.780060,701.417114 355.163696,692.852234 358.122955,683.577332 
	C361.131409,674.148193 369.143463,670.305542 378.068909,669.300415 
	C389.711334,667.989319 400.444702,671.513977 410.124878,678.116211 
	C412.739166,679.899170 413.322266,681.968262 411.701111,684.928833 
	C406.450684,694.517456 406.615570,694.333984 396.524994,690.180786 
	C392.462708,688.508789 387.930511,687.537537 383.549377,687.267761 
	C381.373657,687.133728 379.055878,689.306824 376.802399,690.436279 
	C377.984619,692.474365 378.756042,694.976501 380.430389,696.458740 
	C384.526398,700.084778 389.075470,703.194214 393.377350,706.593689 
	C401.881683,713.314209 405.193909,723.642151 402.021606,733.308411 
	C398.817413,743.071960 389.494537,749.500671 378.859833,750.063416 
	C367.424683,750.668518 357.123260,747.832520 347.718475,741.441406 
	C342.615662,737.973816 342.443359,736.601074 346.387756,732.102051 
	C347.920868,730.353394 349.353607,728.516785 350.836182,726.723755 
	C352.856689,724.280090 355.115845,723.692810 358.035889,726.032776 
z"/>
<path fill="#221F1F" opacity="1.000000" stroke="none" 
	d="
M519.036621,656.058289 
	C521.051697,643.871460 521.051697,643.871460 533.116760,644.002869 
	C539.957581,644.077393 540.441223,644.713928 539.348022,651.706543 
	C538.578003,656.631897 537.955261,661.580139 537.197998,666.507629 
	C536.540100,670.788208 537.745483,673.362854 542.638855,673.018311 
	C547.268982,672.692200 548.547974,675.019348 547.469055,679.245911 
	C547.102112,680.683594 547.053101,682.205994 546.900391,683.693970 
	C546.500122,687.591980 545.176575,690.609314 540.458191,689.972961 
	C535.399475,689.290771 533.743835,692.040527 533.170532,696.482788 
	C531.192810,711.807800 529.031250,727.108948 527.024414,742.430298 
	C526.104980,749.449402 525.658203,749.951965 518.724182,749.997437 
	C517.725647,750.004028 516.726929,750.000000 515.728333,749.999939 
	C505.784668,749.999084 505.971527,750.026917 507.491455,739.842834 
	C509.722992,724.890198 511.649902,709.892273 513.721497,694.915588 
	C514.094849,692.216553 513.338318,690.643188 510.397217,689.798401 
	C509.175659,689.447510 507.890228,687.209351 507.739838,685.717896 
	C507.495483,683.294189 508.114441,680.772461 508.454071,678.303833 
	C508.869690,675.282776 509.889343,673.051514 513.618408,672.742615 
	C514.842773,672.641113 516.571350,670.672852 516.906372,669.278748 
	C517.912415,665.092834 518.344727,660.769043 519.036621,656.058289 
z"/>
<path fill="#221F1F" opacity="1.000000" stroke="none" 
	d="
M238.964447,710.930420 
	C237.309250,722.726440 235.583542,734.066284 234.136063,745.441589 
	C233.706161,748.820129 232.146545,749.867737 228.951050,750.026123 
	C214.270370,750.753723 213.985977,750.779907 215.970200,735.450806 
	C219.746307,706.278198 223.952515,677.161316 227.795624,647.997009 
	C228.304474,644.135437 229.984512,642.947266 233.606445,642.973755 
	C251.347672,643.103394 248.148895,641.647644 246.181473,656.617859 
	C243.820969,674.578857 241.396912,692.531494 238.964447,710.930420 
z"/>
<path fill="#221F1F" opacity="1.000000" stroke="none" 
	d="
M737.802551,649.962952 
	C742.998169,645.136047 748.514648,645.006165 751.922363,649.331726 
	C755.252808,653.559387 754.454285,659.586243 750.000610,662.475037 
	C746.424255,664.794800 742.607422,664.815308 739.386414,661.955688 
	C735.724121,658.704163 735.002625,654.656860 737.802551,649.962952 
z"/>
<path fill="#216DB5" opacity="1.000000" stroke="none" 
	d="
M584.104614,325.365234 
	C584.599548,325.008881 585.032532,325.018158 585.790100,325.034790 
	C585.949829,325.972382 585.784912,326.902649 585.373413,329.223480 
	C584.609070,327.217529 584.325867,326.474182 584.104614,325.365234 
z"/>
<path fill="#000000" opacity="1.000000" stroke="none" 
	d="
M676.878784,730.631409 
	C666.711731,726.136841 662.106750,717.301025 664.601135,706.931763 
	C666.955750,697.143616 671.961609,689.518738 682.513000,686.891479 
	C693.462769,684.165039 703.842102,691.612671 704.950317,702.884277 
	C706.490845,718.553589 695.587036,733.807495 676.878784,730.631409 
z"/>
<path fill="#000000" opacity="1.000000" stroke="none" 
	d="
M170.533630,687.217163 
	C178.608505,688.614014 183.951797,692.994995 185.448975,700.539246 
	C187.427032,710.506714 185.725632,719.866943 177.446732,726.888062 
	C170.408646,732.856934 160.850998,733.615417 153.243210,729.040283 
	C147.276855,725.452393 144.227859,716.848999 145.883041,708.272217 
	C148.545959,694.473633 157.276596,686.866882 170.533630,687.217163 
z"/>
<path fill="#000000" opacity="1.000000" stroke="none" 
	d="
M287.197693,730.938660 
	C276.717468,727.415466 271.532684,718.631409 273.449921,708.245117 
	C275.592834,696.636169 282.169891,689.087830 291.873169,687.101318 
	C304.846649,684.445374 315.025665,692.822510 314.977081,706.115417 
	C314.918182,722.227539 302.450592,733.555603 287.197693,730.938660 
z"/>
<path fill="#000000" opacity="1.000000" stroke="none" 
	d="
M609.269409,694.827515 
	C615.032593,703.180786 614.434448,713.924255 607.964844,723.025452 
	C602.767334,730.337097 593.514038,733.893921 584.591675,730.889160 
	C580.977051,729.671936 577.261047,726.764465 575.107300,723.595581 
	C569.854980,715.867981 571.583740,707.624329 575.779968,699.977966 
	C580.103760,692.099243 586.796692,687.751160 596.106934,688.016235 
	C601.479919,688.169189 605.645691,690.539429 609.269409,694.827515 
z"/>
</svg>