<svg xmlns="http://www.w3.org/2000/svg" xml:space="preserve" style="enable-background:new 0 0 163.2 107.8" viewBox="0 0 163.2 107.8"><path d="M60.8 41.5c5.2 3.2 12.5 5.3 20.8 5.3 8.2 0 15.6-2 20.9-5.3 5.3-3.2 8.4-7.6 8.4-12.1 0-4.6-3.1-8.9-8.4-12.1-5.3-3.2-12.6-5.2-20.9-5.2-8.2 0-15.6 2-20.8 5.2s-8.3 7.5-8.3 12.1c0 4.5 3 8.9 8.3 12.1m1.3 24.8c-5.3-3.2-12.6-5.2-20.9-5.2-8.2 0-15.6 2-20.8 5.2s-8.3 7.5-8.3 12c0 4.6 3.1 8.9 8.3 12.2 5.2 3.2 12.5 5.2 20.8 5.3 8.2 0 15.6-2.1 20.9-5.3 5.3-3.2 8.4-7.5 8.4-12.1s-3.1-8.9-8.4-12.1m80.6 0c-5.3-3.2-12.7-5.2-20.9-5.2s-15.6 2-20.8 5.2c-5.2 3.2-8.3 7.5-8.3 12.1s3.1 8.9 8.3 12.1c5.2 3.2 12.5 5.2 20.8 5.3 8.2 0 15.6-2.1 20.9-5.3s8.4-7.5 8.4-12.1-3.1-8.9-8.4-12.1m-21-17.2c-3.7 0-7.3.4-10.7 1 7.5-5.3 12.1-12.7 12.1-20.8C123.1 13 104.6 0 81.6 0S40.3 13 40.3 29.3c0 8.1 4.5 15.4 11.9 20.8-3.5-.7-7.1-1-10.9-1-23 0-41.3 13-41.3 29.2 0 16.3 18.2 29.5 41.2 29.5 19.6 0 35.9-9.6 40.4-22.4 4.4 12.9 20.5 22.4 40 22.4 23 0 41.6-13.2 41.6-29.5s-18.5-29.2-41.5-29.2M47.8 29.3c0-7.3 5.6-12.3 8.9-14.6 6.5-4.6 15.4-7.1 24.9-7.1 9.6 0 18.5 2.5 25 7.1 3.3 2.3 8.9 7.3 9 14.6-.1 12.2-15.8 22-34.1 22-9.5 0-18.3-2.5-24.8-7.2-5.7-4.1-8.9-9.3-8.9-14.8m-6.6 71c-9.5 0-18.3-2.5-24.8-7.2-5.6-4-8.9-9.3-8.9-14.7 0-7.3 5.6-12.3 8.9-14.6 6.5-4.6 15.4-7.1 24.9-7.1 9.6 0 18.5 2.5 25 7.2 3.3 2.3 8.9 7.3 9 14.6-.1 12-15.8 21.8-34.1 21.8m40.4-29c-1.8-5.2-5.5-9.8-10.6-13.5 3.3.6 6.9 1 10.5 1 3.7 0 7.3-.3 10.8-1-5.2 3.6-8.9 8.3-10.7 13.5m40 29c-9.5 0-18.3-2.5-24.8-7.2-5.7-4-8.9-9.3-8.9-14.7 0-7.3 5.6-12.3 8.9-14.6 6.5-4.6 15.4-7.1 24.9-7.1 9.6 0 18.5 2.5 25.1 7.2 3.3 2.3 8.9 7.3 8.9 14.6-.1 12-15.8 21.8-34.1 21.8" style="fill:#ed1d24"/></svg>