<?xml version="1.0" encoding="UTF-8" standalone="no"?>
<!DOCTYPE svg PUBLIC "-//W3C//DTD SVG 1.1//EN" "http://www.w3.org/Graphics/SVG/1.1/DTD/svg11.dtd">
<svg width="100%" height="100%" viewBox="0 0 307 307" version="1.1" xmlns="http://www.w3.org/2000/svg" xmlns:xlink="http://www.w3.org/1999/xlink" xml:space="preserve" xmlns:serif="http://www.serif.com/" style="fill-rule:evenodd;clip-rule:evenodd;stroke-linejoin:round;stroke-miterlimit:2;">
    <g transform="matrix(1,0,0,1,-3137.299793,-1719.592766)">
        <g transform="matrix(0.902657,0,0,0.902657,2863.823104,1374.738098)">
            <path d="M356.97,675.638C323.753,644.676 302.968,600.546 302.968,551.6C302.968,458.019 378.944,382.044 472.524,382.044C566.105,382.044 642.08,458.019 642.08,551.6C642.08,629.48 589.46,695.166 517.864,715.015C501.974,691.667 487.572,670.399 498.34,635.393C485.202,642.099 476.944,655.288 474.445,669.626C469.556,661.943 464.129,654.533 457.841,647.931C441.837,631.125 420.016,619.373 409.919,597.549C405.306,587.241 402.145,572.504 405.799,561.838C408.436,582.54 418.507,601.587 436.545,612.617C450.296,621.023 465.703,622.408 481.126,625.661C497.203,629.048 522.738,636.688 538.403,633.928C551.425,631.638 578.749,617.255 578.02,601.656C577.765,596.289 571.213,587.245 568.79,582.066C565.566,575.171 567.48,573.682 567.848,566.765C568.885,547.188 563.715,537.516 554.206,521.395C542.674,501.84 530.016,490.024 508.095,482.087C488.062,474.831 457.231,478.938 456.996,479.271C461.046,483.711 464.773,488.906 465.295,495.055C457.084,487.46 449.14,479.387 439.945,472.948C419.607,458.71 406.868,460.052 398.782,484.817C394.568,497.72 391.382,515.255 395.288,528.453C397.657,536.447 402.575,542.952 408.175,548.951C397.217,547.458 390.574,537.94 388.158,527.623C360.997,586.373 354.951,614.782 356.97,675.638ZM553.254,508.59C555.938,471.688 555.624,447.806 521.4,481.304C534.318,487.312 545.181,496.897 553.254,508.59ZM486.399,552.769C503.076,550.51 505.109,576.334 489.02,577.418C472.931,578.502 471.118,554.84 486.399,552.769ZM559.47,568.921C555.834,562.599 554.722,560.76 552.607,556.182C551.168,553.064 550.439,549.366 555.655,549.256C565.117,549.055 568.395,564.041 561.026,569.27C560.844,569.397 560.628,569.465 560.407,569.465C560.02,569.465 559.662,569.257 559.47,568.921ZM430.213,501.5C431.753,505.171 434.926,507.616 437.667,510.309C431.445,512.197 425.166,510.394 419.704,507.264C420.028,513.033 424.299,518.121 427.498,522.174C422.225,523.384 417.564,521.577 413.944,517.769C413.891,523.13 415.717,527.806 418.347,532.34C408.062,537.456 403.622,526.696 403.097,518.275C402.522,509.02 406.267,485.669 412.907,478.941C420.336,471.412 431.875,480.182 438.166,485.238C443.719,489.698 449.061,495.087 454.092,500.111C447.487,504.476 437.648,504.294 430.213,501.5ZM558.455,619.379L558.452,619.376C554.235,619.505 550.344,617.264 547.164,614.697C545.37,613.176 542.74,611.209 542.372,608.931C541.643,604.396 545.254,601.153 547.406,599.808C549.251,598.658 551.495,598.017 553.613,597.527C558.442,596.411 563.455,595.377 568.319,596.323C569.774,596.606 571.22,597.077 572.417,597.951C573.614,598.821 574.544,600.138 574.705,601.612C574.824,602.705 574.525,603.796 574.164,604.833C573.322,607.217 572.16,609.476 570.71,611.548C569.274,613.613 567.556,615.508 565.485,616.934C563.414,618.361 560.969,619.304 558.455,619.379Z" style="fill:rgb(39,32,56);"/>
        </g>
        <g transform="matrix(0.283653,0,0,0.283653,3185.723372,1793.419676)">
            <path d="M1.131,674.022C-5.294,480.363 13.948,389.958 100.38,203C108.07,235.83 129.21,266.12 164.08,270.87C146.26,251.78 130.61,231.08 123.07,205.64C110.64,163.64 120.78,107.84 134.19,66.78C159.92,-12.03 200.46,-16.3 265.18,29.01C294.44,49.5 319.72,75.19 345.85,99.36C344.19,79.79 332.33,63.26 319.44,49.13C320.19,48.07 418.3,35 482.05,58.09C551.81,83.35 592.09,120.95 628.79,183.18C659.05,234.48 675.5,265.26 672.2,327.56C671.03,349.57 664.94,354.31 675.2,376.25C682.91,392.73 703.76,421.51 704.57,438.59C706.89,488.23 619.94,534 578.5,541.29C528.65,550.07 447.39,525.76 396.23,514.98C347.15,504.63 298.12,500.22 254.36,473.47C196.96,438.37 164.91,377.76 156.52,311.88C144.89,345.82 154.95,392.72 169.63,425.52C201.76,494.97 271.2,532.37 322.13,585.85C342.14,606.86 359.41,630.44 374.97,654.89C382.92,609.26 409.2,567.29 451.01,545.95C416.741,657.349 462.573,725.027 513.139,799.329C467.207,812.064 418.82,818.869 368.857,818.869C226.818,818.869 97.524,763.871 1.131,674.022ZM625.76,142.43C600.07,105.22 565.5,74.72 524.39,55.6C633.3,-51 634.3,25 625.76,142.43ZM413.01,283.02C364.38,289.61 370.15,364.91 421.35,361.46C472.55,358.01 466.08,275.83 413.01,283.02ZM234.21,119.87C257.87,128.76 289.18,129.34 310.2,115.45C294.19,99.46 277.19,82.31 259.52,68.12C239.5,52.03 202.78,24.12 179.14,48.08C158.01,69.49 146.09,143.8 147.92,173.25C149.59,200.05 163.72,234.29 196.45,218.01C188.08,203.58 182.27,188.7 182.44,171.64C193.96,183.76 208.79,189.51 225.57,185.66C215.39,172.76 201.8,156.57 200.77,138.21C218.15,148.17 238.13,153.91 257.93,147.9C249.21,139.33 239.11,131.55 234.21,119.87ZM642.31,494.99C650.31,494.75 658.09,491.75 664.68,487.21C671.27,482.67 676.74,476.64 681.31,470.07C685.923,463.476 689.62,456.287 692.3,448.7C693.45,445.4 694.4,441.93 694.02,438.45C693.51,433.76 690.55,429.57 686.74,426.8C682.93,424.02 678.33,422.52 673.7,421.62C658.22,418.61 642.27,421.9 626.9,425.45C620.16,427.01 613.02,429.05 607.15,432.71C600.3,436.99 588.81,447.31 591.13,461.74C592.3,468.99 600.67,475.25 606.38,480.09C616.5,488.26 628.88,495.39 642.3,494.98L642.31,494.99ZM645.54,334.42C646.149,335.489 647.289,336.152 648.52,336.152C649.225,336.152 649.913,335.935 650.49,335.53C673.94,318.89 663.51,271.2 633.4,271.84C616.8,272.19 619.12,283.96 623.7,293.88C630.43,308.45 633.97,314.3 645.54,334.42Z" style="fill:white;"/>
        </g>
    </g>
</svg>
