<svg xmlns="http://www.w3.org/2000/svg" xml:space="preserve" width="423.307" height="368.64"><path d="M3174.8 0H0v2764.8h3174.8V0" style="fill:#100f0d;fill-opacity:1;fill-rule:nonzero;stroke:none" transform="matrix(.13333 0 0 -.13333 0 368.64)"/><path d="M1661.15 1542.1h-149.04v-108.32h149.04zm71.92-485.19-71.92 71.91v203.6h-149.04v-108.29h52.86v-167.22h-383.8v167.22h71.04v317.97h-71.04v168.09h642.01l108.3-108.31v-135.15l-96.18-71.92 96.18-72.78v-121.3h60.67v-143.82h-259.08M1931.78 2244.54v-341.38l-144.69-143.84h-389.91l-143.82 143.84v341.38h-71.07v168.08h393.34v-168.08h-62.35v-317.98h220.08v317.98h-53.73v168.08h313.63v-168.08h-61.48M2596.74 2245.31h-221.78v-114.38h221.78zm155.97-227.88h-377.75v-90.11H2446v-167.24h-402.04v167.24H2115v317.99h-71.04v168.08h696.63l114.35-114.37v-179.34l-102.23-102.25M2708.52 1056.91h-493.89l-170.67 167.22v318.82l170.67 167.24h389.08l48.5-60.66 47.63 60.66h155.1v-274.86h-202.73v107.62h-342.23v-318.82h342.23v109.83h202.73v-134.1l-146.42-142.95M1921.36 351.41h-740.19v167.219h71.04v317.98h-71.04v168.081h401.98V836.609h-71.04v-317.98h278.42v210.91h202.73V429.371l-71.9-77.961M2783.05 351.41h-740.24v167.219h71.04v317.98h-71.04v168.081h402.01V836.609h-71.03v-317.98h278.42v210.91h202.73V429.371l-71.89-77.961M1005.12 1759.32H552.055l-53.731 57.2-47.636-57.2H319.863v199.29H502.68v-56.33h341.281v95.33H437.699l-117.836 108.3v161.16l135.141 145.55h407.168l53.691-57.19 47.676 57.19h130.831v-199.26H911.547v56.3H602.305v-95.31h395.883l133.442-125.62v-152.5l-126.51-136.91M1058.93 1056.91H319.863v167.22h71.035v317.97h-71.035v168.09h739.067l71.91-78.84V1405.2H928.105v136.9H650.852v-97.9h119.582v-121.29H650.852v-98.78h277.253v136.9h202.735v-226.15l-71.91-77.97M1058.93 351.41H319.863v167.219h71.035v317.98h-71.035v168.081h739.067l71.91-78.85V699.699H928.105v136.91H650.852v-97.898h119.582V617.398H650.852v-98.769h277.253v136.902h202.735v-226.16l-71.91-77.961" style="fill:#fff;fill-opacity:1;fill-rule:nonzero;stroke:none" transform="matrix(.13333 0 0 -.13333 0 368.64)"/></svg>