<svg version="1.1" id="Layer_1" xmlns="http://www.w3.org/2000/svg" xmlns:xlink="http://www.w3.org/1999/xlink" x="0px" y="0px"
	 width="100%" viewBox="0 0 512 512" enable-background="new 0 0 512 512" xml:space="preserve">
<path fill="#000000" opacity="1.000000" stroke="none" 
	d="
M345.000000,513.000000 
	C230.027939,513.000000 115.555870,513.000000 1.041900,513.000000 
	C1.041900,342.402924 1.041900,171.805817 1.041900,1.104355 
	C171.555405,1.104355 342.110901,1.104355 512.833191,1.104355 
	C512.833191,171.666534 512.833191,342.333252 512.833191,513.000000 
	C457.139069,513.000000 401.319550,513.000000 345.000000,513.000000 
M463.996857,399.532257 
	C465.675049,397.508789 467.533600,395.606903 468.996033,393.437927 
	C472.707672,387.933075 475.397827,382.048096 477.653717,375.682129 
	C479.538422,370.363586 481.789520,365.147614 481.864563,359.631531 
	C482.080963,343.728180 483.723267,327.594879 476.737396,312.439301 
	C475.060944,308.802246 473.923340,304.860291 471.863220,301.468353 
	C467.559814,294.382965 462.727509,287.621307 458.257690,280.633789 
	C452.338196,271.380005 443.862183,264.678925 435.278259,258.291260 
	C430.474670,254.716629 424.671143,252.330109 419.061951,250.034180 
	C412.475983,247.338394 405.760803,244.141205 398.836090,243.268219 
	C386.286285,241.686127 373.545502,241.411057 360.872345,241.122604 
	C356.144531,241.014999 351.269135,241.970703 346.662720,243.198410 
	C339.436035,245.124527 332.344574,247.587891 325.262146,250.017029 
	C317.484467,252.684586 309.380768,254.795807 302.139679,258.542175 
	C291.006073,264.302429 279.576569,269.634705 269.806519,277.897217 
	C262.109039,284.406982 253.626221,289.988373 245.488998,295.977753 
	C240.753265,299.463440 236.105072,303.078003 231.251755,306.391876 
	C222.035263,312.684906 212.646194,318.725159 203.428085,325.015900 
	C193.504944,331.787811 183.934128,339.107361 173.763641,345.475708 
	C165.154419,350.866516 156.019440,355.465027 146.897614,359.969666 
	C142.385483,362.197845 137.019897,362.786865 132.669601,365.235321 
	C123.368980,370.470062 113.079414,370.642883 103.039322,371.809082 
	C98.886650,372.291443 94.286552,371.247314 90.248611,369.856232 
	C83.931023,367.679779 77.156715,365.633362 71.937843,361.716919 
	C61.681561,354.020264 58.226006,342.123871 56.147110,330.019470 
	C55.779194,327.877289 57.943726,325.389130 57.880314,323.089935 
	C57.635700,314.220947 61.716064,306.830139 66.184143,299.917694 
	C74.595818,286.904175 86.483955,278.179993 101.346870,273.193481 
	C112.827164,269.341888 124.422058,267.646912 136.460373,267.972961 
	C146.310364,268.239685 156.117981,267.858093 165.788895,270.841431 
	C170.873978,272.410095 176.461441,272.374573 181.830444,272.990143 
	C185.579254,273.419952 189.380417,273.502136 193.090607,274.135498 
	C199.672546,275.259094 206.153320,277.179169 212.769058,277.843872 
	C219.513535,278.521454 226.172653,278.258514 232.436768,274.167206 
	C239.514114,269.544739 244.272278,263.686401 245.962021,255.489822 
	C247.860931,246.278763 242.321716,239.713440 237.352966,233.116989 
	C232.728653,226.977783 227.387924,221.353775 223.043350,215.034882 
	C218.290878,208.122726 213.984985,200.848526 210.096573,193.412033 
	C205.791595,185.178818 202.927795,176.321640 203.099426,166.898300 
	C203.181366,162.400070 204.450760,157.935730 204.943756,153.429947 
	C205.766220,145.912872 208.414566,139.153244 211.842117,132.405548 
	C215.953064,124.312523 221.849701,117.352684 228.767822,112.578072 
	C239.497665,105.172768 251.800156,99.904297 265.607239,101.019226 
	C272.612152,101.584877 279.723389,101.759438 286.562561,103.185303 
	C293.119141,104.552254 299.899200,106.402290 305.661774,109.664070 
	C314.643402,114.747902 321.926361,121.833298 327.844025,130.760208 
	C335.143860,141.772095 337.700317,153.877365 338.839844,166.381210 
	C339.966797,178.746490 338.025757,190.980896 335.221436,203.151489 
	C333.294189,211.515457 332.859650,220.239532 332.015869,228.828003 
	C331.730286,231.734741 332.235565,234.719193 332.379456,237.668121 
	C334.827057,237.010056 337.482483,236.755188 339.684235,235.620178 
	C347.026031,231.835480 351.979828,225.836441 353.930359,217.793808 
	C355.391357,211.769867 356.439697,205.618164 357.233673,199.466797 
	C358.338043,190.910492 360.083557,182.245209 359.628937,173.729385 
	C359.097137,163.768997 358.214294,153.817322 355.455933,143.861511 
	C352.622406,133.634521 348.623657,124.406876 342.612305,116.013863 
	C339.051056,111.041695 333.756866,107.300529 330.261322,102.294060 
	C325.755890,95.841194 318.904327,92.625336 312.627289,89.310448 
	C304.881989,85.220192 296.058960,82.340797 287.386475,81.040825 
	C275.868896,79.314400 263.998657,78.741425 252.373932,79.381187 
	C245.446411,79.762444 238.545349,83.039154 231.919159,85.722351 
	C226.547760,87.897423 221.337128,90.736916 216.545319,94.001205 
	C211.687210,97.310669 206.628464,100.887627 203.116272,105.466324 
	C198.871918,110.999527 195.041855,116.949524 191.565186,123.179581 
	C185.539856,133.976715 183.717896,145.672333 182.354050,157.273193 
	C181.275070,166.451111 182.568863,176.142715 184.270126,185.335800 
	C185.550018,192.251984 188.721954,198.945755 191.837418,205.356659 
	C194.648499,211.141235 198.684860,216.316589 201.896637,221.923431 
	C206.791351,230.468185 211.440964,239.153336 216.489166,248.313263 
	C212.884552,247.554565 209.219177,246.284409 205.498291,246.092896 
	C194.095367,245.505997 182.671158,245.332809 171.255203,244.999832 
	C170.589111,244.980392 169.913376,245.037537 169.257874,244.946152 
	C159.895355,243.641174 150.569916,241.897003 141.164444,241.127396 
	C133.385605,240.490891 125.512993,240.989685 117.682014,241.012299 
	C116.524605,241.015640 115.328033,241.005981 114.217293,241.278412 
	C109.387291,242.463089 104.560852,243.673370 99.773338,245.017578 
	C92.621689,247.025574 84.782410,247.903229 78.531662,251.508636 
	C67.705231,257.753296 57.681046,265.468628 49.769157,275.499603 
	C44.457012,282.234558 39.980873,289.234009 36.469780,297.253174 
	C32.884697,305.441315 30.301037,313.620544 30.175625,322.299469 
	C30.052555,330.816254 29.525982,339.289093 31.647879,347.972229 
	C33.785648,356.720337 37.255482,364.692047 42.421040,371.452118 
	C47.385174,377.948578 54.037285,383.532867 60.896877,388.088837 
	C66.844124,392.038849 73.967972,395.883972 80.840584,396.437378 
	C96.575172,397.704407 112.475189,397.048187 128.305267,396.892456 
	C131.628769,396.859741 135.066650,395.979523 138.231537,394.864563 
	C145.040741,392.465790 151.824783,389.921753 158.399628,386.951324 
	C165.735886,383.636902 173.086700,380.210480 179.960739,376.054657 
	C188.096390,371.136108 195.656738,365.276093 203.601898,360.029266 
	C210.612900,355.399353 217.916336,351.209320 224.885803,346.520569 
	C229.124390,343.669037 232.817139,340.009552 237.038162,337.127625 
	C242.582077,333.342438 248.428452,330.002808 254.099045,326.399658 
	C257.849548,324.016632 261.454651,321.401062 265.241699,319.080261 
	C270.470734,315.875854 275.791321,312.818878 281.106201,309.756927 
	C289.094208,305.154877 296.964600,300.316650 305.163116,296.122589 
	C311.490967,292.885529 318.637115,291.145233 324.717102,287.551300 
	C333.315369,282.468811 343.083832,281.663391 352.274872,279.420105 
	C361.398041,277.193359 371.342010,278.153412 380.928955,278.074493 
	C386.003204,278.032715 391.184204,278.261780 396.132446,279.272278 
	C400.826416,280.230835 405.410797,282.077789 409.805206,284.061676 
	C415.207733,286.500671 421.210480,288.562195 425.440247,292.438477 
	C433.040649,299.403656 439.903412,306.949829 444.411774,316.909424 
	C447.966461,324.762115 450.996887,332.923126 452.533203,340.927032 
	C455.101105,354.305298 455.823853,368.202942 449.159302,381.349274 
	C444.966705,389.619537 441.794617,398.428650 438.551849,407.140137 
	C437.928833,408.813843 438.647308,411.401123 439.562836,413.136475 
	C440.941376,415.749512 442.600830,415.272400 444.860687,413.264404 
	C446.796600,411.544312 450.112549,411.459106 452.284027,409.904694 
	C456.363190,406.984772 460.056793,403.526184 463.996857,399.532257 
M116.452553,434.996765 
	C120.434929,434.341522 124.407089,433.614532 128.401886,433.046600 
	C135.899826,431.980591 143.410767,431.006042 150.916519,429.994965 
	C151.894211,429.863220 152.937653,429.916748 153.841385,429.585938 
	C162.458786,426.431641 171.106567,423.348297 179.629852,419.953918 
	C183.707520,418.329987 187.647797,416.273254 191.449600,414.066772 
	C196.152969,411.337006 200.684280,408.303101 205.224457,405.301544 
	C212.151306,400.722168 219.063812,396.118500 225.901352,391.407471 
	C230.212097,388.437408 234.307373,385.153900 238.627563,382.198486 
	C241.622360,380.149689 244.980209,378.620453 247.916275,376.499756 
	C252.026901,373.530731 255.759720,370.034058 259.901794,367.114471 
	C265.506348,363.164124 271.345978,359.547333 277.084259,355.786713 
	C285.232147,350.446930 293.263550,344.917328 301.563965,339.826263 
	C308.165436,335.777191 315.320038,332.612518 321.823639,328.425537 
	C330.235138,323.010254 339.558960,319.384888 348.973846,317.351746 
	C360.908020,314.774658 373.244476,312.640320 385.651428,314.081726 
	C390.231049,314.613770 395.346222,315.010498 399.105225,317.296936 
	C410.610718,324.295135 418.382874,334.140259 417.949310,348.532806 
	C417.739227,355.506348 418.218445,362.368469 416.270599,369.442871 
	C413.707855,378.750641 409.080627,386.247589 401.989258,392.297821 
	C396.376678,397.086426 390.652496,401.494080 382.946198,403.362976 
	C375.524750,405.162750 368.402100,407.765106 360.593903,408.094971 
	C347.373199,408.653412 334.587494,406.944366 322.117065,402.578888 
	C318.887451,401.448364 315.554688,400.614349 312.315765,399.508179 
	C306.115387,397.390625 300.019806,394.933502 293.743988,393.080475 
	C289.047760,391.693787 284.174744,390.744751 279.313934,390.111145 
	C269.818817,388.873444 260.122894,389.772919 251.605103,393.528839 
	C244.392532,396.709198 240.289383,403.607086 239.869659,412.373016 
	C239.407074,422.034332 242.208450,429.340607 251.171204,433.851227 
	C256.081635,436.322449 257.936890,435.469116 257.995026,430.205200 
	C258.015259,428.372345 257.936554,426.536560 258.010468,424.706451 
	C258.365082,415.927826 265.801636,409.052216 273.865601,410.261261 
	C281.915894,411.468262 289.692413,414.636444 297.519043,417.161591 
	C305.164612,419.628296 312.686401,422.479614 320.338440,424.924591 
	C322.780914,425.705017 325.494720,425.589081 328.033905,426.123169 
	C333.866699,427.350006 339.657593,429.732178 345.485413,429.794952 
	C353.566498,429.882050 361.624817,430.728119 369.916260,428.390961 
	C376.958527,426.405914 384.377747,425.587952 391.488831,423.160217 
	C401.682037,419.680176 410.302216,413.884369 418.008759,406.720184 
	C421.758179,403.234711 424.627441,398.761932 427.686371,394.583252 
	C432.926544,387.424927 436.047272,379.085480 437.696045,370.643372 
	C439.293976,362.461578 439.218262,353.816010 438.807404,345.426544 
	C438.529694,339.755219 437.036194,333.926178 434.962799,328.605560 
	C430.725433,317.732056 423.956268,309.071228 413.665375,302.516785 
	C404.990082,296.991394 396.056488,293.354889 386.171997,293.193726 
	C372.952057,292.978180 359.562531,291.507019 346.550201,295.906799 
	C339.386078,298.329163 331.528748,299.055359 324.756195,302.206177 
	C311.551941,308.349304 298.630981,315.218628 286.079132,322.612976 
	C274.102112,329.668671 262.658478,337.648590 251.136230,345.452332 
	C237.843811,354.454987 224.719040,363.705322 211.529709,372.859955 
	C209.611191,374.191589 207.847580,375.783020 205.824921,376.921295 
	C199.107788,380.701599 192.206390,384.161682 185.561401,388.061127 
	C178.018631,392.487366 171.031052,398.022797 163.150070,401.665222 
	C154.656693,405.590607 145.519440,408.286499 136.459564,410.779114 
	C126.174675,413.608795 115.732437,416.174561 104.864616,415.007599 
	C95.535950,414.005951 86.050468,416.860413 76.748711,413.161591 
	C72.165123,411.338898 66.942162,411.124542 62.008797,410.180908 
	C57.567059,409.331329 53.125717,408.479706 47.197292,407.344208 
	C48.213192,410.116333 48.369213,411.974396 49.374081,413.003967 
	C51.942265,415.635406 54.666664,418.235016 57.723804,420.246735 
	C68.443489,427.300812 80.765533,430.274994 93.059059,432.835358 
	C100.367332,434.357452 107.998245,434.330414 116.452553,434.996765 
M108.213181,309.376740 
	C109.684731,309.200409 111.169083,309.095856 112.625732,308.836029 
	C121.555923,307.243317 130.457413,304.432892 139.410858,304.263062 
	C154.689865,303.973267 169.996597,305.460266 185.300415,305.889191 
	C188.238159,305.971497 191.474274,305.131683 194.112579,303.803314 
	C197.699905,301.997070 200.967285,299.464874 204.124985,296.935699 
	C205.604675,295.750519 206.506470,293.843811 207.887161,291.969574 
	C198.231720,289.012573 190.167694,285.947693 181.829865,284.159515 
	C173.738083,282.424103 165.370468,281.253540 157.114410,281.195465 
	C147.641296,281.128815 138.213852,280.630463 128.566498,282.554199 
	C119.951279,284.272095 111.306915,285.227417 102.931244,288.365112 
	C97.152512,290.529999 91.936668,293.100769 86.989838,296.850708 
	C75.819687,305.318268 70.991699,318.644409 74.998573,332.014587 
	C76.986458,338.647797 81.325935,341.937469 88.397926,342.172394 
	C87.706726,328.399078 92.970657,315.567505 108.213181,309.376740 
M398.100403,358.384644 
	C396.998535,356.410553 396.232574,354.111877 394.714081,352.540375 
	C392.571686,350.323120 388.653656,353.306824 387.997101,357.549072 
	C386.841034,365.018799 378.076874,375.544250 371.426331,376.941467 
	C359.292755,379.490723 347.096924,379.387970 335.574707,374.641510 
	C325.090027,370.322388 316.510132,371.130127 308.333649,379.608215 
	C305.285980,382.768311 305.482269,383.697662 308.740479,385.504761 
	C310.069397,386.241852 311.234619,387.419250 312.641296,387.845886 
	C318.820587,389.720032 325.023315,391.545013 331.289948,393.095093 
	C337.301422,394.582031 343.350952,396.147614 349.478912,396.861206 
	C354.899261,397.492462 360.471588,397.294220 365.937469,396.906830 
	C370.241333,396.601746 374.666473,395.971252 378.715851,394.560974 
	C385.819275,392.086884 391.831879,387.726044 397.151581,382.319855 
	C403.415253,375.954346 404.252472,365.331848 398.100403,358.384644 
M314.470032,192.955383 
	C307.003754,187.527802 295.603699,188.568680 291.849548,198.469025 
	C289.183441,205.500031 293.669769,214.797729 300.455322,216.885544 
	C305.772705,218.521622 314.723083,215.283371 316.815460,211.631760 
	C320.309937,205.533142 319.674744,199.101318 314.470032,192.955383 
M364.913544,208.529968 
	C368.437927,210.674103 371.876343,214.425049 375.505096,214.619278 
	C382.504883,214.993927 386.659607,208.273346 387.134094,199.987244 
	C387.451874,194.437805 383.424622,191.925659 380.151489,190.445236 
	C377.141876,189.084015 371.965759,189.548584 369.118591,191.364243 
	C361.460876,196.247620 361.113617,199.060410 364.913544,208.529968 
z"/>
<path fill="#2AD2C9" opacity="1.000000" stroke="none" 
	d="
M463.953796,399.911926 
	C460.056793,403.526184 456.363190,406.984772 452.284027,409.904694 
	C450.112549,411.459106 446.796600,411.544312 444.860687,413.264404 
	C442.600830,415.272400 440.941376,415.749512 439.562836,413.136475 
	C438.647308,411.401123 437.928833,408.813843 438.551849,407.140137 
	C441.794617,398.428650 444.966705,389.619537 449.159302,381.349274 
	C455.823853,368.202942 455.101105,354.305298 452.533203,340.927032 
	C450.996887,332.923126 447.966461,324.762115 444.411774,316.909424 
	C439.903412,306.949829 433.040649,299.403656 425.440247,292.438477 
	C421.210480,288.562195 415.207733,286.500671 409.805206,284.061676 
	C405.410797,282.077789 400.826416,280.230835 396.132446,279.272278 
	C391.184204,278.261780 386.003204,278.032715 380.928955,278.074493 
	C371.342010,278.153412 361.398041,277.193359 352.274872,279.420105 
	C343.083832,281.663391 333.315369,282.468811 324.717102,287.551300 
	C318.637115,291.145233 311.490967,292.885529 305.163116,296.122589 
	C296.964600,300.316650 289.094208,305.154877 281.106201,309.756927 
	C275.791321,312.818878 270.470734,315.875854 265.241699,319.080261 
	C261.454651,321.401062 257.849548,324.016632 254.099045,326.399658 
	C248.428452,330.002808 242.582077,333.342438 237.038162,337.127625 
	C232.817139,340.009552 229.124390,343.669037 224.885803,346.520569 
	C217.916336,351.209320 210.612900,355.399353 203.601898,360.029266 
	C195.656738,365.276093 188.096390,371.136108 179.960739,376.054657 
	C173.086700,380.210480 165.735886,383.636902 158.399628,386.951324 
	C151.824783,389.921753 145.040741,392.465790 138.231537,394.864563 
	C135.066650,395.979523 131.628769,396.859741 128.305267,396.892456 
	C112.475189,397.048187 96.575172,397.704407 80.840584,396.437378 
	C73.967972,395.883972 66.844124,392.038849 60.896877,388.088837 
	C54.037285,383.532867 47.385174,377.948578 42.421040,371.452118 
	C37.255482,364.692047 33.785648,356.720337 31.647879,347.972229 
	C29.525982,339.289093 30.052555,330.816254 30.175625,322.299469 
	C30.301037,313.620544 32.884697,305.441315 36.469780,297.253174 
	C39.980873,289.234009 44.457012,282.234558 49.769157,275.499603 
	C57.681046,265.468628 67.705231,257.753296 78.531662,251.508636 
	C84.782410,247.903229 92.621689,247.025574 99.773338,245.017578 
	C104.560852,243.673370 109.387291,242.463089 114.217293,241.278412 
	C115.328033,241.005981 116.524605,241.015640 117.682014,241.012299 
	C125.512993,240.989685 133.385605,240.490891 141.164444,241.127396 
	C150.569916,241.897003 159.895355,243.641174 169.257874,244.946152 
	C169.913376,245.037537 170.589111,244.980392 171.255203,244.999832 
	C182.671158,245.332809 194.095367,245.505997 205.498291,246.092896 
	C209.219177,246.284409 212.884552,247.554565 216.489166,248.313263 
	C211.440964,239.153336 206.791351,230.468185 201.896637,221.923431 
	C198.684860,216.316589 194.648499,211.141235 191.837418,205.356659 
	C188.721954,198.945755 185.550018,192.251984 184.270126,185.335800 
	C182.568863,176.142715 181.275070,166.451111 182.354050,157.273193 
	C183.717896,145.672333 185.539856,133.976715 191.565186,123.179581 
	C195.041855,116.949524 198.871918,110.999527 203.116272,105.466324 
	C206.628464,100.887627 211.687210,97.310669 216.545319,94.001205 
	C221.337128,90.736916 226.547760,87.897423 231.919159,85.722351 
	C238.545349,83.039154 245.446411,79.762444 252.373932,79.381187 
	C263.998657,78.741425 275.868896,79.314400 287.386475,81.040825 
	C296.058960,82.340797 304.881989,85.220192 312.627289,89.310448 
	C318.904327,92.625336 325.755890,95.841194 330.261322,102.294060 
	C333.756866,107.300529 339.051056,111.041695 342.612305,116.013863 
	C348.623657,124.406876 352.622406,133.634521 355.455933,143.861511 
	C358.214294,153.817322 359.097137,163.768997 359.628937,173.729385 
	C360.083557,182.245209 358.338043,190.910492 357.233673,199.466797 
	C356.439697,205.618164 355.391357,211.769867 353.930359,217.793808 
	C351.979828,225.836441 347.026031,231.835480 339.684235,235.620178 
	C337.482483,236.755188 334.827057,237.010056 332.379456,237.668121 
	C332.235565,234.719193 331.730286,231.734741 332.015869,228.828003 
	C332.859650,220.239532 333.294189,211.515457 335.221436,203.151489 
	C338.025757,190.980896 339.966797,178.746490 338.839844,166.381210 
	C337.700317,153.877365 335.143860,141.772095 327.844025,130.760208 
	C321.926361,121.833298 314.643402,114.747902 305.661774,109.664070 
	C299.899200,106.402290 293.119141,104.552254 286.562561,103.185303 
	C279.723389,101.759438 272.612152,101.584877 265.607239,101.019226 
	C251.800156,99.904297 239.497665,105.172768 228.767822,112.578072 
	C221.849701,117.352684 215.953064,124.312523 211.842117,132.405548 
	C208.414566,139.153244 205.766220,145.912872 204.943756,153.429947 
	C204.450760,157.935730 203.181366,162.400070 203.099426,166.898300 
	C202.927795,176.321640 205.791595,185.178818 210.096573,193.412033 
	C213.984985,200.848526 218.290878,208.122726 223.043350,215.034882 
	C227.387924,221.353775 232.728653,226.977783 237.352966,233.116989 
	C242.321716,239.713440 247.860931,246.278763 245.962021,255.489822 
	C244.272278,263.686401 239.514114,269.544739 232.436768,274.167206 
	C226.172653,278.258514 219.513535,278.521454 212.769058,277.843872 
	C206.153320,277.179169 199.672546,275.259094 193.090607,274.135498 
	C189.380417,273.502136 185.579254,273.419952 181.830444,272.990143 
	C176.461441,272.374573 170.873978,272.410095 165.788895,270.841431 
	C156.117981,267.858093 146.310364,268.239685 136.460373,267.972961 
	C124.422058,267.646912 112.827164,269.341888 101.346870,273.193481 
	C86.483955,278.179993 74.595818,286.904175 66.184143,299.917694 
	C61.716064,306.830139 57.635700,314.220947 57.880314,323.089935 
	C57.943726,325.389130 55.779194,327.877289 56.147110,330.019470 
	C58.226006,342.123871 61.681561,354.020264 71.937843,361.716919 
	C77.156715,365.633362 83.931023,367.679779 90.248611,369.856232 
	C94.286552,371.247314 98.886650,372.291443 103.039322,371.809082 
	C113.079414,370.642883 123.368980,370.470062 132.669601,365.235321 
	C137.019897,362.786865 142.385483,362.197845 146.897614,359.969666 
	C156.019440,355.465027 165.154419,350.866516 173.763641,345.475708 
	C183.934128,339.107361 193.504944,331.787811 203.428085,325.015900 
	C212.646194,318.725159 222.035263,312.684906 231.251755,306.391876 
	C236.105072,303.078003 240.753265,299.463440 245.488998,295.977753 
	C253.626221,289.988373 262.109039,284.406982 269.806519,277.897217 
	C279.576569,269.634705 291.006073,264.302429 302.139679,258.542175 
	C309.380768,254.795807 317.484467,252.684586 325.262146,250.017029 
	C332.344574,247.587891 339.436035,245.124527 346.662720,243.198410 
	C351.269135,241.970703 356.144531,241.014999 360.872345,241.122604 
	C373.545502,241.411057 386.286285,241.686127 398.836090,243.268219 
	C405.760803,244.141205 412.475983,247.338394 419.061951,250.034180 
	C424.671143,252.330109 430.474670,254.716629 435.278259,258.291260 
	C443.862183,264.678925 452.338196,271.380005 458.257690,280.633789 
	C462.727509,287.621307 467.559814,294.382965 471.863220,301.468353 
	C473.923340,304.860291 475.060944,308.802246 476.737396,312.439301 
	C483.723267,327.594879 482.080963,343.728180 481.864563,359.631531 
	C481.789520,365.147614 479.538422,370.363586 477.653717,375.682129 
	C475.397827,382.048096 472.707672,387.933075 468.996033,393.437927 
	C467.533600,395.606903 465.675049,397.508789 463.953796,399.911926 
z"/>
<path fill="#2AD2C9" opacity="1.000000" stroke="none" 
	d="
M115.968323,434.998291 
	C107.998245,434.330414 100.367332,434.357452 93.059059,432.835358 
	C80.765533,430.274994 68.443489,427.300812 57.723804,420.246735 
	C54.666664,418.235016 51.942265,415.635406 49.374081,413.003967 
	C48.369213,411.974396 48.213192,410.116333 47.197292,407.344208 
	C53.125717,408.479706 57.567059,409.331329 62.008797,410.180908 
	C66.942162,411.124542 72.165123,411.338898 76.748711,413.161591 
	C86.050468,416.860413 95.535950,414.005951 104.864616,415.007599 
	C115.732437,416.174561 126.174675,413.608795 136.459564,410.779114 
	C145.519440,408.286499 154.656693,405.590607 163.150070,401.665222 
	C171.031052,398.022797 178.018631,392.487366 185.561401,388.061127 
	C192.206390,384.161682 199.107788,380.701599 205.824921,376.921295 
	C207.847580,375.783020 209.611191,374.191589 211.529709,372.859955 
	C224.719040,363.705322 237.843811,354.454987 251.136230,345.452332 
	C262.658478,337.648590 274.102112,329.668671 286.079132,322.612976 
	C298.630981,315.218628 311.551941,308.349304 324.756195,302.206177 
	C331.528748,299.055359 339.386078,298.329163 346.550201,295.906799 
	C359.562531,291.507019 372.952057,292.978180 386.171997,293.193726 
	C396.056488,293.354889 404.990082,296.991394 413.665375,302.516785 
	C423.956268,309.071228 430.725433,317.732056 434.962799,328.605560 
	C437.036194,333.926178 438.529694,339.755219 438.807404,345.426544 
	C439.218262,353.816010 439.293976,362.461578 437.696045,370.643372 
	C436.047272,379.085480 432.926544,387.424927 427.686371,394.583252 
	C424.627441,398.761932 421.758179,403.234711 418.008759,406.720184 
	C410.302216,413.884369 401.682037,419.680176 391.488831,423.160217 
	C384.377747,425.587952 376.958527,426.405914 369.916260,428.390961 
	C361.624817,430.728119 353.566498,429.882050 345.485413,429.794952 
	C339.657593,429.732178 333.866699,427.350006 328.033905,426.123169 
	C325.494720,425.589081 322.780914,425.705017 320.338440,424.924591 
	C312.686401,422.479614 305.164612,419.628296 297.519043,417.161591 
	C289.692413,414.636444 281.915894,411.468262 273.865601,410.261261 
	C265.801636,409.052216 258.365082,415.927826 258.010468,424.706451 
	C257.936554,426.536560 258.015259,428.372345 257.995026,430.205200 
	C257.936890,435.469116 256.081635,436.322449 251.171204,433.851227 
	C242.208450,429.340607 239.407074,422.034332 239.869659,412.373016 
	C240.289383,403.607086 244.392532,396.709198 251.605103,393.528839 
	C260.122894,389.772919 269.818817,388.873444 279.313934,390.111145 
	C284.174744,390.744751 289.047760,391.693787 293.743988,393.080475 
	C300.019806,394.933502 306.115387,397.390625 312.315765,399.508179 
	C315.554688,400.614349 318.887451,401.448364 322.117065,402.578888 
	C334.587494,406.944366 347.373199,408.653412 360.593903,408.094971 
	C368.402100,407.765106 375.524750,405.162750 382.946198,403.362976 
	C390.652496,401.494080 396.376678,397.086426 401.989258,392.297821 
	C409.080627,386.247589 413.707855,378.750641 416.270599,369.442871 
	C418.218445,362.368469 417.739227,355.506348 417.949310,348.532806 
	C418.382874,334.140259 410.610718,324.295135 399.105225,317.296936 
	C395.346222,315.010498 390.231049,314.613770 385.651428,314.081726 
	C373.244476,312.640320 360.908020,314.774658 348.973846,317.351746 
	C339.558960,319.384888 330.235138,323.010254 321.823639,328.425537 
	C315.320038,332.612518 308.165436,335.777191 301.563965,339.826263 
	C293.263550,344.917328 285.232147,350.446930 277.084259,355.786713 
	C271.345978,359.547333 265.506348,363.164124 259.901794,367.114471 
	C255.759720,370.034058 252.026901,373.530731 247.916275,376.499756 
	C244.980209,378.620453 241.622360,380.149689 238.627563,382.198486 
	C234.307373,385.153900 230.212097,388.437408 225.901352,391.407471 
	C219.063812,396.118500 212.151306,400.722168 205.224457,405.301544 
	C200.684280,408.303101 196.152969,411.337006 191.449600,414.066772 
	C187.647797,416.273254 183.707520,418.329987 179.629852,419.953918 
	C171.106567,423.348297 162.458786,426.431641 153.841385,429.585938 
	C152.937653,429.916748 151.894211,429.863220 150.916519,429.994965 
	C143.410767,431.006042 135.899826,431.980591 128.401886,433.046600 
	C124.407089,433.614532 120.434929,434.341522 115.968323,434.998291 
z"/>
<path fill="#2AD2C9" opacity="1.000000" stroke="none" 
	d="
M107.931740,309.682617 
	C92.970657,315.567505 87.706726,328.399078 88.397926,342.172394 
	C81.325935,341.937469 76.986458,338.647797 74.998573,332.014587 
	C70.991699,318.644409 75.819687,305.318268 86.989838,296.850708 
	C91.936668,293.100769 97.152512,290.529999 102.931244,288.365112 
	C111.306915,285.227417 119.951279,284.272095 128.566498,282.554199 
	C138.213852,280.630463 147.641296,281.128815 157.114410,281.195465 
	C165.370468,281.253540 173.738083,282.424103 181.829865,284.159515 
	C190.167694,285.947693 198.231720,289.012573 207.887161,291.969574 
	C206.506470,293.843811 205.604675,295.750519 204.124985,296.935699 
	C200.967285,299.464874 197.699905,301.997070 194.112579,303.803314 
	C191.474274,305.131683 188.238159,305.971497 185.300415,305.889191 
	C169.996597,305.460266 154.689865,303.973267 139.410858,304.263062 
	C130.457413,304.432892 121.555923,307.243317 112.625732,308.836029 
	C111.169083,309.095856 109.684731,309.200409 107.931740,309.682617 
z"/>
<path fill="#2AD2C9" opacity="1.000000" stroke="none" 
	d="
M398.383911,358.654388 
	C404.252472,365.331848 403.415253,375.954346 397.151581,382.319855 
	C391.831879,387.726044 385.819275,392.086884 378.715851,394.560974 
	C374.666473,395.971252 370.241333,396.601746 365.937469,396.906830 
	C360.471588,397.294220 354.899261,397.492462 349.478912,396.861206 
	C343.350952,396.147614 337.301422,394.582031 331.289948,393.095093 
	C325.023315,391.545013 318.820587,389.720032 312.641296,387.845886 
	C311.234619,387.419250 310.069397,386.241852 308.740479,385.504761 
	C305.482269,383.697662 305.285980,382.768311 308.333649,379.608215 
	C316.510132,371.130127 325.090027,370.322388 335.574707,374.641510 
	C347.096924,379.387970 359.292755,379.490723 371.426331,376.941467 
	C378.076874,375.544250 386.841034,365.018799 387.997101,357.549072 
	C388.653656,353.306824 392.571686,350.323120 394.714081,352.540375 
	C396.232574,354.111877 396.998535,356.410553 398.383911,358.654388 
z"/>
<path fill="#2AD2C9" opacity="1.000000" stroke="none" 
	d="
M314.747620,193.230194 
	C319.674744,199.101318 320.309937,205.533142 316.815460,211.631760 
	C314.723083,215.283371 305.772705,218.521622 300.455322,216.885544 
	C293.669769,214.797729 289.183441,205.500031 291.849548,198.469025 
	C295.603699,188.568680 307.003754,187.527802 314.747620,193.230194 
z"/>
<path fill="#29D2CA" opacity="1.000000" stroke="none" 
	d="
M364.663208,208.224075 
	C361.113617,199.060410 361.460876,196.247620 369.118591,191.364243 
	C371.965759,189.548584 377.141876,189.084015 380.151489,190.445236 
	C383.424622,191.925659 387.451874,194.437805 387.134094,199.987244 
	C386.659607,208.273346 382.504883,214.993927 375.505096,214.619278 
	C371.876343,214.425049 368.437927,210.674103 364.663208,208.224075 
z"/>
</svg>