<svg version="1.1" id="Layer_1" xmlns:x="ns_extend;" xmlns:i="ns_ai;" xmlns:graph="ns_graphs;" xmlns="http://www.w3.org/2000/svg" xmlns:xlink="http://www.w3.org/1999/xlink" x="0px" y="0px" viewBox="0 0 100.2 98" style="enable-background:new 0 0 100.2 98;" xml:space="preserve">
 <style type="text/css">
  .st0{fill:#E8762C;}
	.st1{fill:#C72035;}
	.st2{fill:#59879B;}
	.st3{fill:#5B6591;}
	.st4{fill:#EB912C;}
	.st5{fill:#1F447E;}
	.st6{fill:#7099A6;}
 </style>
 <metadata>
  <sfw xmlns="ns_sfw;">
   <slices>
   </slices>
   <sliceSourceBounds bottomLeftOrigin="true" height="98" width="100.2" x="-301.9" y="-233.3">
   </sliceSourceBounds>
  </sfw>
 </metadata>
 <g>
  <g>
   <g id="icon_1_">
    <polygon class="st0" points="65.7,51.8 52,51.8 52,66.8 46.6,66.8 46.6,51.8 32.8,51.8 32.8,46.6 46.6,46.6 46.6,31.6 52,31.6 
				52,46.6 65.7,46.6 			">
    </polygon>
    <polygon class="st1" points="38.2,70.3 25.9,70.3 25.9,56.8 21.3,56.8 21.3,70.3 8.8,70.3 8.8,74.3 21.3,74.3 21.3,87.6 
				25.9,87.6 25.9,74.3 38.2,74.3 			">
    </polygon>
    <polygon class="st2" points="90.7,23 78.3,23 78.3,9.6 73.7,9.6 73.7,23 61.4,23 61.4,27.2 73.7,27.2 73.7,40.5 78.3,40.5 
				78.3,27.2 90.7,27.2 			">
    </polygon>
    <polygon class="st3" points="59.8,84.9 51.5,84.9 51.5,75.6 47.5,75.6 47.5,84.9 39,84.9 39,88.5 47.5,88.5 47.5,98 51.5,98 
				51.5,88.5 59.8,88.5 			">
    </polygon>
    <polygon class="st4" points="38.1,22.9 25.6,22.9 25.6,9.6 21.1,9.6 21.1,22.9 8.6,22.9 8.6,26.9 21.1,26.9 21.1,40.5 25.6,40.5 
				25.6,26.9 38.1,26.9 			">
    </polygon>
    <polygon class="st3" points="100.2,47.4 91.9,47.4 91.9,38.1 87.8,38.1 87.8,47.4 79.4,47.4 79.4,51 87.8,51 87.8,60.3 
				91.9,60.3 91.9,51 100.2,51 			">
    </polygon>
    <polygon class="st5" points="89.9,70.3 77.6,70.3 77.6,56.8 73,56.8 73,70.3 60.6,70.3 60.6,74.3 73,74.3 73,87.6 77.6,87.6 
				77.6,74.3 89.9,74.3 			">
    </polygon>
    <polygon class="st6" points="59.2,9.3 50.9,9.3 50.9,0 47.9,0 47.9,9.3 39.6,9.3 39.6,12.1 47.9,12.1 47.9,21.2 50.9,21.2 
				50.9,12.1 59.2,12.1 			">
    </polygon>
    <polygon class="st6" points="19.6,47.8 11.3,47.8 11.3,38.7 8.3,38.7 8.3,47.8 0,47.8 0,50.6 8.3,50.6 8.3,59.7 11.3,59.7 
				11.3,50.6 19.6,50.6 			">
    </polygon>
   </g>
  </g>
 </g>
</svg>