<svg xmlns="http://www.w3.org/2000/svg" xml:space="preserve" id="Layer_1" x="0" y="0" style="enable-background:new 0 0 100.2 98" version="1.1" viewBox="0 0 100.2 98"><style>.st3{fill:#5b6591}.st6{fill:#7099a6}</style><g id="icon_1_"><path d="M65.7 51.8H52v15h-5.4v-15H32.8v-5.2h13.8v-15H52v15h13.7z" style="fill:#e8762c"/><path d="M38.2 70.3H25.9V56.8h-4.6v13.5H8.8v4h12.5v13.3h4.6V74.3h12.3z" style="fill:#c72035"/><path d="M90.7 23H78.3V9.6h-4.6V23H61.4v4.2h12.3v13.3h4.6V27.2h12.4z" style="fill:#59879b"/><path d="M59.8 84.9h-8.3v-9.3h-4v9.3H39v3.6h8.5V98h4v-9.5h8.3z" class="st3"/><path d="M38.1 22.9H25.6V9.6h-4.5v13.3H8.6v4h12.5v13.6h4.5V26.9h12.5z" style="fill:#eb912c"/><path d="M100.2 47.4h-8.3v-9.3h-4.1v9.3h-8.4V51h8.4v9.3h4.1V51h8.3z" class="st3"/><path d="M89.9 70.3H77.6V56.8H73v13.5H60.6v4H73v13.3h4.6V74.3h12.3z" style="fill:#1f447e"/><path d="M59.2 9.3h-8.3V0h-3v9.3h-8.3v2.8h8.3v9.1h3v-9.1h8.3zM19.6 47.8h-8.3v-9.1h-3v9.1H0v2.8h8.3v9.1h3v-9.1h8.3z" class="st6"/></g></svg>