<?xml version="1.0" encoding="UTF-8" standalone="no"?>
<svg xmlns="http://www.w3.org/2000/svg" xml:space="preserve" fill-rule="evenodd" stroke-linejoin="round" stroke-miterlimit="2" clip-rule="evenodd" viewBox="0 0 300 300">
  <path fill-rule="nonzero" stroke="#fff" stroke-width="3" d="M179.3 67c0 13.2-5 31.4-12.1 55.9l-5.2 18.7 16.3-10.6c31-21.7 49.7-30 62-30 14.2 0 28.7 10.2 28.7 30.2 0 25.4-27.2 32.7-79.7 33.6l-19.6.9 15.5 12.3c36.7 28.3 49.5 42.2 49.5 59.8a29.7 29.7 0 0 1-28.8 28.2c-24 0-34.8-24.9-49.4-67.1l-7.4-18.4-7 18.4c-16.4 48-29 66.7-49.8 66.7a29.7 29.7 0 0 1-28.8-28.3C63.5 218 81 202 113.4 178l15.4-12.3-19.1-1c-55.8-.4-79.7-8.4-79.7-34 0-20 15-30 28.8-30 16.7 0 34.9 11.2 61.9 30.3l16.3 10.6-5.2-18.7C124 97 120.4 78.2 120.4 67c0-17.5 9.8-32 29.1-32 19.7 0 29.8 14.5 29.8 32Z"/>
  <path fill="none" d="M.2 0H300v299.4H.2z"/>
</svg>
