<svg xmlns="http://www.w3.org/2000/svg" width="500" height="500" fill="none"><path fill="#fff" d="M225.009 216.292v209.921a516 516 0 0 0 30.74 27.509 516 516 0 0 0 30.739-27.509V216.292h127.688c5.113-19.54 8.756-40.172 10.417-61.768H86.904c1.662 21.596 5.369 42.228 10.417 61.768z" style="mix-blend-mode:difference"/><path fill="#fff" fill-rule="evenodd" d="m248.719 495.115 7.03 4.885 7.029-4.885c2.045-1.414 50.679-35.737 99.824-98.083 28.951-36.636 52.021-75.458 68.573-115.309 20.77-50.069 31.315-101.811 31.315-153.937v-8.806l-21.099-7.38q-.17-.599-.374-1.297a18 18 0 0 0-.376-1.353l-.001-.003-.134-.444-.001-.002c-.191-.642-.383-1.284-.574-2.054-.26-.897-.564-1.837-.885-2.832l-.001-.004c-.231-.717-.472-1.463-.712-2.242a28 28 0 0 1-.376-1.165c-.176-.572-.357-1.16-.583-1.727a83 83 0 0 0-.674-1.928l-.002-.005-.006-.018-.002-.004q-.199-.554-.402-1.13-.36-1-.727-2.05l-.006-.015-.001-.005c-.538-1.529-1.103-3.138-1.759-4.808q-.28-.716-.563-1.445c-.779-2.006-1.591-4.096-2.568-6.268q-.252-.594-.508-1.202l-.004-.011-.003-.006c-.408-.972-.826-1.965-1.275-2.959-.43-.952-.889-1.903-1.357-2.875l-.003-.005q-.34-.705-.685-1.426a70 70 0 0 0-1.084-2.246l-.002-.004a73 73 0 0 0-.575-1.125c-.192-.37-.384-.739-.575-1.124-.767-1.543-1.598-3.086-2.429-4.628-3.515-6.235-7.605-12.855-12.654-19.475s-11.12-13.305-18.405-19.411c-7.222-6.17-15.785-11.57-25.371-15.812-.288-.128-.592-.257-.895-.386a50 50 0 0 1-.895-.385l-.422-.173h-.001c-.478-.197-.935-.385-1.43-.534l-.422-.173h-.001a15 15 0 0 0-1.431-.534c-.639-.257-1.278-.45-1.917-.643a88 88 0 0 1-1.917-.61c-.639-.21-1.278-.418-1.917-.611a69 69 0 0 0-1.949-.547 70 70 0 0 1-1.95-.546c-1.278-.386-2.62-.643-3.962-.9a89 89 0 0 1-1.342-.271c-.895-.186-1.789-.371-2.684-.5-.62-.09-1.24-.192-1.866-.296-.73-.12-1.468-.243-2.224-.347-.63-.06-1.274-.135-1.926-.21a93 93 0 0 0-2.228-.24c-11.056-1.092-22.496-.642-33.871 1.222-.972.133-1.975.328-2.965.52q-.665.13-1.317.25l-.325.06c-1.306.238-2.659.485-3.957.84l-.001.001c-1.406.321-2.811.643-4.281.964-1.406.385-2.812.771-4.218 1.092-5.624 1.543-11.311 3.343-16.871 5.464q-1.087.385-2.109.771c-.352.129-.703.273-1.055.418-.351.144-.703.29-1.054.418q-.884.361-1.76.701c-.811.319-1.614.633-2.394.97q-1.374.609-2.748 1.207c-1.832.8-3.664 1.6-5.496 2.457-2.068.966-4.099 1.97-6.148 2.982l-2.033 1.003a120 120 0 0 0-4.026 2.12c-.351.193-.687.37-1.022.547-.336.177-.671.353-1.023.546q-.379.21-.738.414h-.001c-.425.242-.834.474-1.242.679-.671.386-1.342.755-2.013 1.125s-1.342.739-2.013 1.125c-1.342.77-2.62 1.542-3.962 2.378l-1.982 1.157-1.981 1.22c-.67.418-1.324.82-1.979 1.22l-.008.006c-.653.4-1.306.8-1.975 1.217-2.62 1.671-5.24 3.343-7.797 5.142-.532.375-1.076.74-1.617 1.101-.757.507-1.509 1.01-2.217 1.535l-3.835 2.699c-.638.45-1.277.916-1.916 1.382h-.002c-.638.466-1.277.932-1.916 1.382q-.703.528-1.401 1.039l-.002.002a81 81 0 0 0-2.368 1.787 600 600 0 0 0-7.477 5.849c-4.985 3.92-9.842 8.034-14.635 12.212a441 441 0 0 0-10.65 9.666L49.007 118.98v8.806c0 31.304 3.803 62.492 11.34 93.244a177 177 0 0 0-.86 2.011l-.958 2.121c-.2.441-.374.883-.555 1.339v.001a58 58 0 0 1-.34.845l-.386.957c-.45 1.115-.907 2.252-1.403 3.349-.22.566-.43 1.121-.639 1.671-.337.889-.668 1.762-1.023 2.636l-.83 2.185-.767 2.186c-.256.738-.511 1.46-.766 2.182l-.002.006c-.256.722-.511 1.444-.766 2.182-.256.739-.496 1.463-.735 2.186v.001c-.24.723-.48 1.445-.735 2.184a115 115 0 0 0-1.406 4.371c-.224.738-.447 1.46-.67 2.182l-.001.003c-.224.723-.448 1.446-.671 2.185-.192.739-.4 1.462-.607 2.186a87 87 0 0 0-.607 2.185c-.096.353-.192.723-.288 1.093-.096.369-.192.739-.288 1.092s-.191.723-.287 1.093c-.096.369-.192.739-.288 1.093-.697 2.629-1.289 5.312-1.87 7.952l-.002.004-.173.785c-.145.673-.277 1.345-.408 2.012-.157.798-.312 1.588-.486 2.359l-.051.281v.002c-.112.626-.23 1.288-.397 1.902-.064.353-.128.723-.192 1.092-.063.37-.127.74-.191 1.093l-.1.572c-.221 1.274-.436 2.512-.603 3.799-.096.739-.192 1.462-.288 2.185v.003c-.096.722-.192 1.444-.288 2.183-1.47 11.633-1.853 23.203-.894 34.322.511 5.592 1.214 11.055 2.364 16.39.064.322.128.659.192.997v.002c.064.337.128.673.192.994.109.366.197.731.289 1.109v.001c.069.286.14.578.222.882.096.322.176.643.256.964.08.322.16.643.255.965.096.321.176.642.256.964s.16.642.256.964l1.15 3.856c.064.161.112.322.16.482.048.161.096.322.16.482l.32.965c.095.321.207.626.319.931.111.306.223.611.32.932.095.322.207.627.319.932.111.306.223.611.32.932.105.353.248.687.388 1.011.115.267.228.528.314.789l.352.834c.391.923.774 1.825 1.118 2.765.288.579.56 1.157.83 1.736.272.578.544 1.157.832 1.735.255.579.511 1.157.83 1.736.16.289.304.562.448.835s.287.547.447.836.304.562.447.835.288.547.448.836q.114.205.218.402l.002.003c.229.423.447.826.739 1.266.32.547.639 1.077.958 1.607.32.53.64 1.061.959 1.607l.511.771c.096.129.176.257.256.386.08.128.16.257.255.385.16.258.336.515.512.772.175.257.351.514.51.771s.336.514.512.771.352.514.511.772l.512.771.575.707a110.4 110.4 0 0 0 19.236 20.054 133 133 0 0 0 20.834 13.69c.689.36 1.379.709 2.064 1.056 1.03.522 2.051 1.039 3.049 1.579 1.725.772 3.387 1.543 5.048 2.314.192.097.4.193.607.29.208.096.416.192.608.289.223.096.431.177.639.257s.415.161.639.257l.001.001c.831.321 1.661.642 2.491 1.027.415.161.814.321 1.213.482s.8.322 1.216.482c.44.185.901.348 1.372.515h.001l.001.001c.348.123.701.248 1.054.384l1.267.462.002.001c1.149.421 2.273.832 3.396 1.208 1.179.396 2.358.753 3.507 1.101l.022.007 1.009.306c.312.105.614.199.909.291l.003.001h.001l.002.001c.428.133.843.263 1.258.415.351.128.719.224 1.086.321.367.096.735.193 1.087.321 1.406.386 2.811.772 4.154 1.157 10.099 2.705 18.298 4.117 24.179 5.13h.003l1.189.205c5.943.836 9.075 1.286 9.075 1.286s-3.132-.515-9.011-1.543a661 661 0 0 0-3.357-.728c-5.57-1.196-12.93-2.777-21.759-5.314a95 95 0 0 1-1.749-.527h-.001a74 74 0 0 0-2.34-.694c-.703-.193-1.406-.386-2.109-.643s-1.406-.514-2.173-.771c-1.47-.514-2.94-1.029-4.473-1.543q-.849-.333-1.726-.671l-.007-.003c-.932-.361-1.888-.731-2.869-1.125-.281-.118-.571-.227-.863-.338-.504-.19-1.016-.382-1.501-.627-.384-.16-.784-.337-1.183-.514-.4-.177-.799-.353-1.182-.514q-.417-.176-.854-.368c-.514-.224-1.044-.455-1.574-.66a10 10 0 0 0-1.215-.515 22 22 0 0 0-.607-.289 22 22 0 0 1-.607-.289c-.812-.392-1.64-.801-2.485-1.217l-.005-.003-.002-.001-.005-.002q-1.22-.603-2.488-1.219l-4.985-2.7c-6.71-3.792-13.548-8.356-20.13-13.948-6.583-5.591-12.782-12.276-18.214-19.989l-.511-.707-.512-.771a29 29 0 0 0-.958-1.479c-.32-.514-.64-1.028-.959-1.478-.096-.128-.176-.257-.256-.386-.08-.128-.16-.257-.255-.385l-.448-.772c-.287-.514-.591-1.044-.895-1.575-.303-.53-.606-1.06-.894-1.574-.24-.388-.445-.812-.641-1.217l-.002-.004q-.094-.197-.188-.386c-.127-.256-.27-.528-.414-.801l-.001-.002a40 40 0 0 1-.416-.804 14 14 0 0 0-.415-.835c-.144-.274-.288-.547-.415-.836-.226-.363-.388-.759-.554-1.164v-.001q-.104-.251-.213-.506a177 177 0 0 0-.767-1.703c-.256-.562-.511-1.125-.767-1.704a203 203 0 0 1-1.342-3.535c-.08-.243-.172-.486-.266-.734-.13-.342-.262-.693-.373-1.065-.096-.29-.192-.595-.288-.9v-.002c-.096-.304-.192-.609-.287-.898-.096-.289-.192-.595-.288-.9s-.192-.61-.288-.9l-.32-.9a5 5 0 0 1-.217-.744l-.02-.08-.018-.075c-.16-.611-.335-1.238-.511-1.864s-.352-1.254-.511-1.864c-.158-.528-.272-1.056-.379-1.548v-.005l-.069-.311c-.127-.643-.255-1.286-.447-1.929-.128-.642-.256-1.285-.447-1.928-.128-.643-.256-1.285-.32-1.928-1.022-5.142-1.534-10.477-1.917-15.876-.64-10.798.064-21.982 1.725-33.23.128-.707.24-1.414.352-2.121s.224-1.414.351-2.121l.767-4.242q.192-1.093.384-2.121c.064-.354.143-.707.223-1.061.08-.353.16-.707.224-1.06q.51-2.121.959-4.242c.703-2.828 1.406-5.657 2.236-8.485q.32-1.092.576-2.121c.191-.707.383-1.414.639-2.121.447-1.414.895-2.828 1.278-4.242.224-.707.463-1.414.703-2.121s.48-1.414.703-2.121c.447-1.414.959-2.828 1.47-4.242l1.534-4.242c.317-.879.66-1.759.997-2.623v-.003l.002-.004q.308-.785.598-1.548l.831-2.121.895-2.121c.287-.707.575-1.398.863-2.089v-.003c.288-.69.575-1.38.862-2.086.288-.637.563-1.261.837-1.884 4.578 16.575 10.246 33.009 16.994 49.254 16.552 39.851 39.622 78.608 68.573 115.309 49.145 62.346 97.779 96.669 99.824 98.083m168.819-393.292q-.203-.635-.409-1.286v-.002c-.51-1.612-1.046-3.304-1.7-5.075-.273-.719-.546-1.465-.826-2.23l-.001-.003c-.571-1.561-1.171-3.2-1.857-4.838a230 230 0 0 1-1.528-3.778l-.003-.007-.003-.008c-.575-1.285-1.15-2.57-1.725-3.92a50 50 0 0 1-.446-1.025l-.001-.002-.002-.005-.003-.007a49 49 0 0 0-.443-1.017c-.16-.442-.369-.858-.582-1.28v-.002l-.002-.004-.001-.001a20 20 0 0 1-.374-.77c-.638-1.348-1.34-2.76-2.042-4.173l-.003-.005c-2.939-5.592-6.454-11.505-10.672-17.354-4.218-5.85-9.267-11.634-15.21-16.904-5.88-5.335-12.846-9.963-20.706-13.691-.448-.257-.959-.45-1.47-.643a15 15 0 0 1-.767-.321c-.256-.113-.512-.225-.767-.322-.256-.096-.511-.208-.767-.32l-.001-.001a16 16 0 0 0-.766-.321 22 22 0 0 0-1.534-.579h-.002a169 169 0 0 0-3.129-1.157 134 134 0 0 0-3.259-.964c-.914-.27-1.873-.495-2.801-.712l-.006-.002a191 191 0 0 1-1.728-.412H342c-.721-.18-1.434-.357-2.174-.48-.575-.097-1.15-.21-1.725-.322h-.001c-.575-.113-1.15-.225-1.725-.321a58 58 0 0 0-1.757-.257c-.591-.08-1.183-.161-1.758-.258-9.458-1.157-19.492-1.028-29.717.386-.852.086-1.704.229-2.556.371q-.639.11-1.278.208c-.608.116-1.202.22-1.789.321h-.003c-.709.124-1.408.245-2.107.386-.638.128-1.292.256-1.946.385h-.003c-.655.129-1.31.257-1.949.386-1.278.257-2.62.578-3.898.9-5.177 1.35-10.417 2.828-15.658 4.692a35 35 0 0 0-.99.321c-.336.113-.671.225-.991.322-.703.192-1.342.45-1.981.706-.639.258-1.294.498-1.949.74-.655.24-1.31.482-1.949.739-.873.364-1.746.72-2.619 1.078h-.001l-.003.001a204 204 0 0 0-5.238 2.199 286 286 0 0 0-5.907 2.715h-.002l-.001.001-.003.002-1.884.881a221 221 0 0 0-3.895 1.927l-.003.002q-.958.449-1.918.964c-.319.16-.639.337-.958.514-.32.176-.639.353-.959.514q-.655.344-1.294.675l-.002.001-.003.002c-.88.457-1.739.903-2.599 1.379a173 173 0 0 0-3.835 2.12l-3.834 2.186c-.639.386-1.278.755-1.917 1.125h-.001c-.639.37-1.278.74-1.917 1.125a238 238 0 0 1-2.732 1.685c-1.639 1-3.269 1.996-4.873 3.071-.638.418-1.261.819-1.883 1.22l-.002.002a193.601 193.601 0 0 0-3.765 2.47l-.005.004c-.623.418-1.247.835-1.886 1.253-.605.416-1.225.849-1.846 1.28l-.007.006c-.623.434-1.246.867-1.853 1.285-.607.45-1.231.884-1.854 1.318h-.001c-.622.434-1.245.868-1.852 1.318q-1.08.8-2.172 1.6l-.005.004c-1.726 1.27-3.465 2.548-5.172 3.859l-.242.182-.175.133 60.81-21.269 162.294 56.764c-.173-.56-.358-1.12-.544-1.68M167.675 381.029c-41.796-53.155-91.388-138.19-94.009-244.565L255.74 72.832l182.13 63.64c-2.62 106.374-52.27 191.402-94.065 244.557-36.3 46.213-73.047 76.872-88.065 88.506-14.955-11.634-51.765-42.293-88.065-88.506" clip-rule="evenodd" style="mix-blend-mode:difference"/></svg>