<svg xmlns="http://www.w3.org/2000/svg" version="1.2" viewBox="0 0 256 256"><defs><clipPath id="cp1" clipPathUnits="userSpaceOnUse"><path d="M211.62 166.19v47.1H44v-47.1z"/></clipPath></defs><style>.s1{fill:#fff}</style><path d="M226.9 46.8q-.8-.9-1.6-1.9-.8-1-1.6-1.9-.9-1-1.7-1.9-.9-.9-1.7-1.9C196.2 14 163.4 0 128 0c-8.3 0-16.7.8-24.9 2.4C94.8 4.1 86.8 6.5 79 9.7c-7.7 3.2-15.1 7.2-22.1 11.9-7 4.6-13.4 10-19.4 15.9-5.9 6-11.3 12.4-15.9 19.4-4.7 7-8.7 14.4-11.9 22.1-3.2 7.8-5.6 15.8-7.3 24.1C.8 111.3 0 119.7 0 128c0 8.4.8 16.8 2.5 25 1.6 8.3 4 16.3 7.2 24.1 3.2 7.7 7.2 15.1 11.9 22.1 4.6 7 10 13.4 15.9 19.4 6 5.9 12.4 11.3 19.4 15.9 7 4.7 14.4 8.7 22.1 11.9 7.8 3.2 15.8 5.6 24.1 7.2 8.2 1.7 16.6 2.5 24.9 2.4 8.4.1 16.8-.7 25-2.4 8.3-1.6 16.3-4 24-7.2 7.8-3.2 15.2-7.2 22.2-11.9 6.9-4.6 13.4-10 19.3-15.9 6-6 11.3-12.4 16-19.4 4.7-7 8.7-14.4 11.9-22.1 3.2-7.8 5.6-15.8 7.2-24.1 1.7-8.2 2.5-16.6 2.4-25 0-29.2-10.5-58.2-29.1-81.2" style="fill:#101010"/><g id="Clip-Path" clip-path="url(#cp1)"><path fill-rule="evenodd" d="M117.5 183.8c2.5-3.5 6.5-5.5 11.3-5.5 9.1 0 15.6 7 15.6 16.7 0 9.8-6.6 16.8-15.8 16.8-4.8 0-8.7-1.8-11.2-5.3l-.2 4.5h-6.9v-44.8h7.2zm20.2 11.4c0-5.7-4.1-10.4-9.3-10.4-5.2 0-9.4 4.7-9.4 10.4 0 5.8 4.2 10.5 9.4 10.5s9.3-4.7 9.3-10.5zm-70.4 9.4.3-.2 2.8 5.7-.1.1c-2.7 2.1-5.6 3.1-8.8 3.1-7 0-10.9-4-10.9-11.4v-16.7H44l1.6-6.5h5v-8.3h7.3v8.3h11.6v6.5H57.9v16.7c0 2.9 1.5 4.6 4.3 4.6 1.9 0 3.3-.5 5.1-1.9zm36.1-9.8q0 .5-.1.9v1.1H79.6c.7 5.6 4.1 8.6 9.5 8.6 3.5 0 6.3-1.2 8.9-3.8l.2-.2 3.8 4.7-.1.1c-3.4 3.8-7.6 5.5-13.2 5.5-9.9 0-16.3-6.6-16.3-16.8 0-9.7 6.7-16.8 16-16.8 9.1 0 15 6.6 15 16.7zm-7.3-2.7c-.6-4.8-3.5-7.6-7.8-7.6s-7.6 3-8.5 7.6zm82.8 2.7v.9q-.1.4-.1.8v.3h-23.7c.7 5.6 4.1 8.6 9.5 8.6 3.5 0 6.3-1.2 8.9-3.8l.2-.2 3.9 4.7-.2.1c-3.4 3.8-7.6 5.5-13.2 5.5-9.9 0-16.2-6.6-16.2-16.8 0-9.7 6.6-16.8 15.9-16.8 9.1 0 15 6.6 15 16.7zm-23.6-2.7h16.3c-.6-4.9-3.4-7.6-7.8-7.6-4.3 0-7.6 3-8.5 7.6zm55-13.4-11.2 15.4 12.5 16.9H203l-8.1-11.5-7.8 11.5h-8.2l12.1-16.5-11.5-15.8h8.5l7.1 10.5 7-10.5z" class="s1"/></g><path d="M130.9 71.8c4.5-7.3 12.5-9.5 12.5-9.5s-15.3-4-15.3-20.3c0 16.3-15.3 20.3-15.3 20.3s8 2.2 12.4 9.5h-20.9V100l4.8-8.7h9.5v48.6l19 19.4V99.8c-4.9-2.3-11.8-8.1-14.3-12.5 4.2 1.3 10 3 14.4 4h14.2V71.8z" class="s1"/></svg>