<svg xmlns="http://www.w3.org/2000/svg" xml:space="preserve" style="fill-rule:evenodd;clip-rule:evenodd;stroke-linejoin:round;stroke-miterlimit:2" viewBox="0 0 6048 6048"><g transform="translate(-3328.71 -2910.519) scale(2.0272)"><circle cx="3133.55" cy="2927.26" r="1491.53" style="fill:#ee5128"/><clipPath id="a"><circle cx="3133.55" cy="2927.26" r="1491.53"/></clipPath><g clip-path="url(#a)"><path d="M651.828 3023.62h4729.24v1958.3H651.828z" style="fill:#fab314" transform="rotate(-45 2962.595 2832.462)"/><path d="M3023.62 1353.88v1422.41l4.59 247.33 1276.58-1276.58-727.08-393.16h-554.09Z" style="fill:#7cbb41" transform="translate(109.931 -96.359)"/><path d="M4920.41 3023.62h-1892.2l1363.48-1363.48 528.72 1363.48Z" style="fill:#279ad5" transform="translate(109.931 -96.359)"/></g></g><g transform="matrix(1.78754 0 0 1.78754 -2577.703 -2208.953)"><circle cx="3133.55" cy="2927.26" r="1491.53"/><clipPath id="b"><circle cx="3133.55" cy="2927.26" r="1491.53"/></clipPath><g clip-path="url(#b)"><circle cx="3305.85" cy="4518.47" r="1209.3" style="fill:#fff" transform="translate(-3918.18 -3725.29) scale(2.13311)"/><path d="M3047.81 4345.68a51.459 51.459 0 0 1-48.37 0c-67.83-37.57-265.43-159.99-425.99-388.8-119.65-170.53-173.96-363.41-196.01-465.58a70.843 70.843 0 0 1 10.2-53.87 70.885 70.885 0 0 1 45.58-30.48c76.93-15.09 204.78-46.09 312.56-100.61 110.51-55.9 196.57-130.45 242.06-174.38 19.95-19.29 51.61-19.29 71.57 0 45.48 43.93 131.55 118.48 242.05 174.38 107.79 54.52 235.63 85.52 312.57 100.61a70.91 70.91 0 0 1 45.58 30.48 70.887 70.887 0 0 1 10.2 53.87c-22.06 102.17-76.36 295.05-196.02 465.58-160.55 228.81-358.15 351.23-425.98 388.8Z" style="fill:#fab314" transform="matrix(.77 0 0 .77 805.369 599.08)"/><path d="M2994.76 2354.51a33.065 33.065 0 0 0 28.86 16.93c11.98 0 23.02-6.47 28.86-16.93 54.72-97.89 141.03-171.5 249.28-200.5 236.84-63.46 489.55 110.49 563.96 388.22 74.42 277.72-57.45 554.72-294.29 618.18-200.88 53.83-413.18-63.14-518.41-269.34a33.052 33.052 0 0 0-29.4-17.93c-12.38 0-23.73 6.92-29.4 17.93-105.23 206.2-317.52 323.17-518.4 269.34-236.85-63.46-368.71-340.46-294.3-618.18 74.42-277.73 327.12-451.68 563.96-388.22 108.25 29 194.57 102.61 249.28 200.5Z" style="fill:#fff" transform="translate(-490.136 -696.426) scale(1.19846)"/><circle cx="2728.54" cy="2896.83" r="108.215" transform="translate(-1330.46 -1816.92) scale(1.52514)"/><circle cx="2728.54" cy="2896.83" r="108.215" transform="translate(-725.25 -1816.92) scale(1.52514)"/></g></g></svg>