<svg viewBox="0 0 6048 6048" version="1.1" xmlns="http://www.w3.org/2000/svg" xmlns:xlink="http://www.w3.org/1999/xlink" xml:space="preserve" xmlns:serif="http://www.serif.com/" style="fill-rule:evenodd;clip-rule:evenodd;stroke-linejoin:round;stroke-miterlimit:2;">
    <g id="OriginalVar02" transform="matrix(2.14229,0,0,2.14229,-3453.84,-3453.84)">
        <g transform="matrix(0.946278,0,0,0.946278,58.4097,253.617)">
            <circle cx="3133.55" cy="2927.26" r="1491.53" style="fill:rgb(238,81,40);"/>
            <clipPath id="_clip1">
                <circle cx="3133.55" cy="2927.26" r="1491.53"/>
            </clipPath>
            <g clip-path="url(#_clip1)">
                <g transform="matrix(0.707107,-0.707107,0.707107,0.707107,-1135.13,2924.48)">
                    <rect x="651.828" y="3023.62" width="4729.24" height="1958.3" style="fill:rgb(250,179,20);"/>
                </g>
                <g transform="matrix(1,0,0,1,109.931,-96.3589)">
                    <path d="M3023.62,1353.88L3023.62,2776.29L3028.21,3023.62L4304.79,1747.04L3577.71,1353.88L3023.62,1353.88Z" style="fill:rgb(124,187,65);"/>
                </g>
                <g transform="matrix(1,0,0,1,109.931,-96.3589)">
                    <path d="M4920.41,3023.62L3028.21,3023.62L4391.69,1660.14L4920.41,3023.62Z" style="fill:rgb(39,154,213);"/>
                </g>
            </g>
        </g>
        <g transform="matrix(0.834404,0,0,0.834404,408.972,581.101)">
            <circle cx="3133.55" cy="2927.26" r="1491.53"/>
            <clipPath id="_clip2">
                <circle cx="3133.55" cy="2927.26" r="1491.53"/>
            </clipPath>
            <g clip-path="url(#_clip2)">
                <g transform="matrix(2.13311,0,0,2.13311,-3918.18,-3725.29)">
                    <circle cx="3305.85" cy="4518.47" r="1209.3" style="fill:white;"/>
                </g>
                <g transform="matrix(0.769998,0,0,0.769998,805.369,599.08)">
                    <path d="M3047.81,4345.68C3032.69,4353.73 3014.55,4353.73 2999.44,4345.68C2931.61,4308.11 2734.01,4185.69 2573.45,3956.88C2453.8,3786.35 2399.49,3593.47 2377.44,3491.3C2373.47,3472.7 2377.15,3453.29 2387.64,3437.43C2398.12,3421.57 2414.55,3410.59 2433.22,3406.95C2510.15,3391.86 2638,3360.86 2745.78,3306.34C2856.29,3250.44 2942.35,3175.89 2987.84,3131.96C3007.79,3112.67 3039.45,3112.67 3059.41,3131.96C3104.89,3175.89 3190.96,3250.44 3301.46,3306.34C3409.25,3360.86 3537.09,3391.86 3614.03,3406.95C3632.7,3410.59 3649.12,3421.57 3659.61,3437.43C3670.1,3453.29 3673.77,3472.7 3669.81,3491.3C3647.75,3593.47 3593.45,3786.35 3473.79,3956.88C3313.24,4185.69 3115.64,4308.11 3047.81,4345.68Z" style="fill:rgb(250,179,20);"/>
                </g>
                <g transform="matrix(1.19846,0,0,1.19846,-490.136,-696.426)">
                    <path d="M2994.76,2354.51C3000.61,2364.97 3011.65,2371.44 3023.62,2371.44C3035.6,2371.44 3046.64,2364.97 3052.48,2354.51C3107.2,2256.62 3193.51,2183.01 3301.76,2154.01C3538.6,2090.55 3791.31,2264.5 3865.72,2542.23C3940.14,2819.95 3808.27,3096.95 3571.43,3160.41C3370.55,3214.24 3158.25,3097.27 3053.02,2891.07C3047.36,2880.06 3036.01,2873.14 3023.62,2873.14C3011.24,2873.14 2999.89,2880.06 2994.22,2891.07C2888.99,3097.27 2676.7,3214.24 2475.82,3160.41C2238.97,3096.95 2107.11,2819.95 2181.52,2542.23C2255.94,2264.5 2508.64,2090.55 2745.48,2154.01C2853.73,2183.01 2940.05,2256.62 2994.76,2354.51Z" style="fill:white;"/>
                </g>
                <g transform="matrix(1.52514,0,0,1.52514,-1330.46,-1816.92)">
                    <circle cx="2728.54" cy="2896.83" r="108.215"/>
                </g>
                <g transform="matrix(1.52514,0,0,1.52514,-725.25,-1816.92)">
                    <circle cx="2728.54" cy="2896.83" r="108.215"/>
                </g>
            </g>
        </g>
    </g>
</svg>
