<svg xmlns="http://www.w3.org/2000/svg" fill="none" viewBox="0 0 500 500"><path fill="#512FC9" d="m487.685 320.622-48.755-41.514.903-5.634c1.021-7.615 1.354-15.564 1.354-23.415 0-9.756-.51-19.786-2.257-29.05l48.755-41.454 1.08-.903a8.978 8.978 0 0 0 2.512-4.73 8.898 8.898 0 0 0-.628-5.339c-9.952-30.03-27.125-58.608-48.244-82.3-2.984-3.394-7.205-4.632-11.169-2.904l-61.432 20.962-5.103-3.946a191.16 191.16 0 0 0-45.603-25.084L306.93 12.856l-.353-1.295a10.194 10.194 0 0 0-3.109-4.515 10.103 10.103 0 0 0-4.995-2.257l-.022-.02a246.238 246.238 0 0 0-96.455 0 10.24 10.24 0 0 0-5.498 2.69 10.241 10.241 0 0 0-2.962 5.377l-12.165 62.457-5.521 2.197a178.707 178.707 0 0 0-45.207 26.831L69.228 83.34l-1.355-.432a9.77 9.77 0 0 0-5.418.255 9.837 9.837 0 0 0-4.436 3.12c-21.147 23.691-38.291 52.269-48.23 82.3a8.9 8.9 0 0 0-.476 6.007 8.956 8.956 0 0 0 3.456 4.965l48.75 41.474-.916 5.633c-1.022 7.616-1.336 15.605-1.336 23.397a159.667 159.667 0 0 0 2.253 29.049l-48.73 41.514-1.082.882a9.023 9.023 0 0 0-1.896 10.088c9.937 30.051 27.082 58.591 48.227 82.241 3.001 3.416 7.23 4.652 11.189 2.945l61.415-21.002 4.479 3.612a185.035 185.035 0 0 0 46.249 25.437l12.165 62.495.334 1.295a10.35 10.35 0 0 0 3.123 4.517 10.32 10.32 0 0 0 5.003 2.256c15.917 2.905 31.833 4.612 48.247 4.612 16.397 0 32.314-1.707 48.23-4.612a10.4 10.4 0 0 0 5.49-2.709 10.32 10.32 0 0 0 2.968-5.358l12.186-62.496 6.084-2.453c16.082-6.791 31.145-15.741 44.625-26.596l61.41 21.003 1.334.451c3.573.962 7.185-.354 9.854-3.397 21.159-23.65 38.293-52.19 48.225-82.241.864-1.883 1.021-4.022.491-6.025a8.954 8.954 0 0 0-3.455-4.945Zm-237.461 75.683c-80.958 0-146.582-65.497-146.582-146.286 0-80.784 65.577-146.299 146.571-146.305 80.973.006 146.596 65.521 146.596 146.305 0 80.789-65.628 146.286-146.585 146.286Z"/><path fill="#512FC9" d="M250.221 150.013c-55.221.004-100.149 44.864-100.149 100 0 55.137 44.929 99.992 100.153 99.992 55.225 0 100.153-44.855 100.153-99.992 0-55.136-44.932-99.996-100.157-100Zm.004 158.761c-32.49 0-58.922-26.359-58.922-58.761 0-32.406 26.428-58.768 58.91-58.768 32.494 0 58.933 26.362 58.933 58.768 0 32.402-26.43 58.761-58.921 58.761Z"/></svg>