<?xml version="1.0" encoding="utf-8"?><!-- Uploaded to: Free PNG Logo, freepnglogo.com -->
<svg xmlns="http://www.w3.org/2000/svg" width="624.935" height="624.935" viewBox="0 0 165.347 165.347"><defs><clipPath id="a" clipPathUnits="userSpaceOnUse"><path d="M-15.65 357.411h500v-500h-500Z"/></clipPath><clipPath id="b" clipPathUnits="userSpaceOnUse"><path d="M-364.524-468.702h468.7V0h-468.7Z"/></clipPath></defs><path d="M0 0v214.822q0 12.502 2.439 24.765a126.6 126.6 0 0 0 7.224 23.812 126.5 126.5 0 0 0 11.73 21.947 126.7 126.7 0 0 0 15.787 19.236 126.6 126.6 0 0 0 19.236 15.787 126.6 126.6 0 0 0 21.946 11.73 126.6 126.6 0 0 0 23.813 7.224 126.7 126.7 0 0 0 24.764 2.439H341.76q12.502 0 24.765-2.439a126.6 126.6 0 0 0 23.813-7.224 126.7 126.7 0 0 0 21.947-11.73 126.8 126.8 0 0 0 19.236-15.787 126.7 126.7 0 0 0 15.786-19.236 126.6 126.6 0 0 0 11.731-21.947 126.7 126.7 0 0 0 7.223-23.812 126.7 126.7 0 0 0 2.44-24.765V0q0-12.5-2.44-24.764a126.7 126.7 0 0 0-7.223-23.813 126.6 126.6 0 0 0-11.731-21.945 126.7 126.7 0 0 0-15.786-19.238 126.8 126.8 0 0 0-19.236-15.786 126.6 126.6 0 0 0-21.947-11.729 126.4 126.4 0 0 0-23.813-7.224 126.6 126.6 0 0 0-24.765-2.44H126.939q-12.502 0-24.764 2.44a126.4 126.4 0 0 0-23.813 7.224 126.6 126.6 0 0 0-21.946 11.729A126.6 126.6 0 0 0 37.18-89.76a126.7 126.7 0 0 0-15.787 19.238 126.5 126.5 0 0 0-11.73 21.945 126.6 126.6 0 0 0-7.224 23.813A126.7 126.7 0 0 0 0 0" clip-path="url(#a)" style="fill:#fcfcfc;fill-opacity:1;fill-rule:nonzero;stroke:none" transform="matrix(.35278 0 0 -.35278 0 120.566)"/><path d="M0 0c57.535 0 104.177-46.641 104.177-104.175v-260.349c0-57.536-46.642-104.177-104.177-104.177h-260.348c-57.535 0-104.176 46.641-104.176 104.177v260.349C-364.524-46.641-317.883 0-260.348 0Zm-117.175-243.458h-6.224c-5.538 0-10.07-4.486-10.024-10.025v-68.886c0-5.538 4.486-10.069 10.024-10.069s10.069 4.485 10.069 10.069v45.223l16.935-23.893c3.525-4.944 10.848-4.944 14.418 0l16.936 23.893v-45.223c0-5.538 4.485-10.069 10.07-10.069 5.538 0 10.07 4.485 10.024 10.069v68.886c0 5.539-4.486 10.07-10.024 10.025h-6.225c-2.38 0-4.669-1.145-6.042-3.113l-21.924-32.956-21.971 32.956c-1.373 1.968-3.616 3.113-6.042 3.113m155.715 0c-5.538 0-10.069-4.486-10.069-10.025v-42.064c0-13.227-7.461-20.003-19.728-19.956-12.267 0-19.727 7.002-19.681 20.551v41.469c0 5.539-4.487 10.07-10.071 10.025-5.538 0-10.069-4.486-10.023-10.025v-41.926c0-24.533 15.012-37.029 39.546-37.029s40.095 12.358 40.05 37.624v41.331c0 5.539-4.486 10.07-10.024 10.025m-282.365 0h-58.724c-5.539 0-10.07-4.486-10.07-10.025 0-5.538 4.486-10.07 10.07-10.07h19.315v-58.724c0-5.538 4.486-10.071 10.024-10.071 5.539 0 10.07 4.487 10.07 10.071v58.724h19.315c5.539 0 10.07 4.487 10.07 10.07 0 5.539-4.485 10.07-10.07 10.025m86.921 0h-54.423c-5.538 0-10.069-4.486-10.069-10.025v-68.794c0-5.538 4.485-10.071 10.069-10.071h54.423c5.538 0 10.07 4.487 10.024 10.071 0 5.538-4.486 10.069-10.024 10.069h-44.399v14.281h38.632c5.538 0 10.069 4.486 10.069 10.025 0 5.537-4.485 10.068-10.069 10.068h-38.632v14.281h44.399c5.538 0 10.07 4.487 10.024 10.07 0 5.539-4.486 10.07-10.024 10.025m-98.18 104.999-1.877-.045c-7.827-.504-13.182-3.891-16.203-8.469-3.524 5.264-10.116 8.973-20.048 8.422l-.229-.32c-1.144-1.83-5.447-10.024 1.511-18.949 1.418-1.511 4.897-5.767 3.478-11.214l-20.185-32.636c-1.648-2.654-.915-6.087 1.602-7.872 5.218-3.661 15.7-8.696 33.871-8.696 18.125 0 28.607 5.035 33.825 8.696l.687.595a5.82 5.82 0 0 1 .915 7.277l-20.139 32.636.137-.596-.229.916c-1.098 4.898 1.648 8.789 3.158 10.527l.367.367c7.003 8.925 2.654 17.072 1.51 18.949l-.183.32zm65.361-15.287c-6.911 13.73-15.882 16.066-20.368 12.496-3.433-2.748-11.351-13.595-11.901-14.328-8.742-12.403-8.238-15.425 2.975-22.473 6.317-3.983 11.398 1.144 13.595 2.655-1.053-6.546-4.257-16.845-9.063-24.077-2.609 1.969-4.532 3.479-5.722 4.578-1.51 1.373-3.798 1.281-5.263-.137a3.41 3.41 0 0 1-1.007-2.609 3.7 3.7 0 0 1 1.144-2.518c11.672-10.665 27.005-16.706 43.346-16.753 16.386 0 31.811 6.043 43.483 16.753 1.51 1.373 1.556 3.662.183 5.127a3.79 3.79 0 0 1-5.264.137 69 69 0 0 0-2.792-2.38l-5.126 11.442q-1.236 2.953-2.747 7.416c.504 1.236 1.557 2.426 3.067 3.982 1.099 1.098 2.014 2.197 2.701 3.25 3.387 5.355 1.464 8.514.412 10.619-2.427 4.943-6.225 3.34-8.972.412-3.387-3.57-6.683-5.127-11.992-6.318-4.44-1.006-7.873-.502-10.71 1.283-3.937 2.426-9.979 11.443-9.979 11.443m126.925 13.959c-14.647-13.914-.596-44.169-27.234-57.03-2.93-1.42-5.356 3.25-9.292 3.25-11.122-.092-32.36-9.888-33.184-14.831-.687-4.073 8.376-7.323 35.107-7.369 23.252 0 30.758 35.381 38.906 35.427 8.146 0 4.348-32.086 3.478-35.427h8.514c-.732 3.341-1.282 13.411-1.236 27.645 0 14.236 2.563 17.394 4.623 28.15 1.785 9.338-12.038 17.439-19.682 20.185m83.487-1.143H-3.158c-15.425 0-28.24-11.947-29.294-27.325l-1.739-24.672c-.824-11.718 8.468-21.649 20.185-21.696h45.497c11.764 0 21.009 9.933 20.232 21.696l-1.74 24.672c-1.098 15.378-13.869 27.325-29.294 27.325m-202.585-56.757c7.187 0 12.679-3.524 14.693-10.07-4.898-1.282-9.795-1.923-14.784-1.876-7.507 0-10.161.686-14.968 1.967 1.923 5.768 8.285 9.979 15.059 9.979M-2.06-161.39v-.687c0-5.95 4.852-10.848 10.803-10.848 5.95 0 10.848 4.852 10.848 10.848v.687c0 2.654 9.612 2.654 9.612 0v-.687c0-11.26-9.154-20.414-20.46-20.414-11.26 0-20.414 9.154-20.414 20.414v.687c0 2.654 9.566 2.654 9.611 0" clip-path="url(#b)" style="fill:#fb7701;fill-opacity:1;fill-rule:nonzero;stroke:none" transform="matrix(.35278 0 0 -.35278 128.596 0)"/></svg>