<svg xmlns="http://www.w3.org/2000/svg" class="icon" viewBox="0 0 1402 1024"><path fill="#00A3FF" d="M1215.068 831.198a199.234 199.234 0 0 1-148.202 58.441l-477.742 1.259c148.202-142.33 263.968-265.645 276.83-271.797a660.058 660.058 0 0 1 64.454-58.302c51.312-58.302 96.472-64.874 141.91-65.013a190.006 190.006 0 0 1 142.19 57.882c77.597 70.886 77.877 206.365 0 277.53zm95.912-368.129c-58.302-57.882-142.33-102.902-226.218-102.623S936.98 393.163 878.258 432.31c-19.294 19.574-57.883 45.44-83.888 83.888-32.017 19.295-508.36 504.726-508.36 504.726l703.68-1.398a520.385 520.385 0 0 0 109.613-6.711 372.323 372.323 0 0 0 206.364-91.158c122.337-129.467 121.777-335.552 5.313-458.308z"/><path fill="#00C8DC" d="M517.54 432.31a322.689 322.689 0 0 0-200.213-64.034A289.553 289.553 0 0 0 90.83 472.716a333.175 333.175 0 0 0 7.27 464.74q77.597 77.316 174.487 77.037l128.768-123.176H330.75a264.387 264.387 0 0 1-148.762-57.463c-77.596-77.177-77.876-199.793 0-283.96A180.639 180.639 0 0 1 323.2 491.45c38.868 0 77.456 6.292 129.327 57.883 19.574 25.586 77.596 64.314 97.03 90.04h6.432l77.316-90.6c-25.725-32.576-90.599-83.607-115.765-116.464"/><path fill="#006EFF" d="M1103.917 282.85C1045.335 115.214 877.279-1.11 696.5.008c-219.507.56-393.295 162.463-431.464 368.967 12.863 0 32.157-6.431 51.591-6.431s51.591 6.291 71.026 6.151a303.395 303.395 0 0 1 296.264-239.64 313.601 313.601 0 0 1 284.38 179.94s6.571 6.432 6.431 0c45.3-6.431 90.46-26.005 129.188-26.145"/></svg>