<svg xmlns="http://www.w3.org/2000/svg" viewBox="0 0 800 800"><path fill="#1A97F1" d="M645 196c4.218 1.898 6.567 4.732 9.375 8.313l1.57 1.99c43.518 56.118 66.63 124.964 66.367 195.822l-.005 3.12c-.047 15.783-.636 31.168-3.307 46.755l-.52 3.19C709.986 506.467 689.01 557.553 656 598l-2.227 2.805c-5.2 6.487-10.742 12.62-16.4 18.704-2.217 2.407-4.382 4.861-6.56 7.303-3.416 3.76-6.907 7.214-10.797 10.477a104.795 104.795 0 0 0-4.032 3.61c-42.386 39.867-113.143 76.256-172.047 77.663-11.788-.66-19.685-4.846-27.687-13.375-8.624-10.258-9.253-22.334-8.25-35.187 2.289-11.954 12.756-20.925 21.105-29.09l2.22-2.172c3.054-2.98 6.112-5.955 9.19-8.91 16.202-15.41 16.202-15.41 21.735-36.515-.154-10.352-4.066-18.779-11.102-26.29-8.378-7.843-17.43-10.423-28.699-10.296-15.538 1.231-25.584 13.118-35.91 23.555l-3.69 3.703a5435.157 5435.157 0 0 0-7.89 7.937 7670.25 7670.25 0 0 1-12.498 12.557 32104.075 32104.075 0 0 0-31.027 31.177 20036.311 20036.311 0 0 1-24.15 24.26 5976.364 5976.364 0 0 0-12.404 12.478 3522.988 3522.988 0 0 1-7.733 7.762c-1.191 1.195-2.38 2.392-3.565 3.593-10.357 10.481-19.714 18.21-35.082 18.626-12.254-.345-21.368-4.79-29.813-13.625-6.506-7.673-9.098-16.915-8.964-26.867 1.393-14.482 9.23-23.147 19.123-32.97l2.663-2.668c2.423-2.426 4.85-4.847 7.28-7.266 2.625-2.616 5.244-5.239 7.864-7.86 4.535-4.536 9.073-9.068 13.613-13.597 6.565-6.548 13.124-13.102 19.682-19.658a65935.158 65935.158 0 0 1 31.935-31.898c10.341-10.323 20.68-20.647 31.016-30.975l1.932-1.93 9.597-9.59C380.946 476.974 407.47 450.485 434 424c2.06 3.885 3.018 7.818 3.971 12.086l.563 2.46c.61 2.68 1.214 5.362 1.818 8.044.422 1.866.846 3.731 1.269 5.597.886 3.909 1.768 7.818 2.648 11.729 1.127 5.01 2.263 10.017 3.403 15.024a6864.74 6864.74 0 0 1 2.614 11.558c.417 1.847.836 3.693 1.256 5.54.587 2.58 1.167 5.164 1.746 7.747l.528 2.307c.82 3.696 1.388 7.117 1.184 10.908l1.362-1.252c3.798-3.414 7.67-6.55 11.845-9.492 6.515-4.632 12.704-9.575 18.73-14.818l1.662-1.444c13.859-12.248 22.532-24.253 23.963-43.076.718-13.628.195-27.147-.76-40.748l-.177-2.812c-.28-4.422-.63-8.803-1.164-13.2-1.064-10.95-1.064-10.95 1.827-14.93 3.273-3.29 6.982-5.76 10.95-8.133 2.62-1.628 4.955-3.565 7.324-5.533l2.649-2.175c3.767-3.224 7.408-6.572 11.024-9.963a271.88 271.88 0 0 1 8.593-7.733c4.61-4.014 8.925-8.297 13.235-12.628l2.314-2.303A257.75 257.75 0 0 0 582 312l2.668-3.063C612.723 276.228 636.065 238.603 645 196Z"/><path fill="#1A99F1" d="m610 159-1 2a172.29 172.29 0 0 1-8.25 2.125C560.499 173.223 524.558 196.404 494 224l-2.633 2.372c-6.996 6.337-13.785 12.86-20.459 19.535-1.6 1.598-3.208 3.187-4.816 4.777-5.756 5.725-11.129 11.55-16.172 17.922-1.875 2.338-3.833 4.56-5.858 6.769-4.31 4.78-8.175 9.873-12.058 15C430 293 430 293 429 294a97.514 97.514 0 0 1-5.3.19l-3.447.05-3.78.041-5.925.085c-2.793.039-5.586.073-8.378.108l-8.23.105c-1.346.018-2.693.034-4.04.05-3.377.043-6.752.105-10.128.206-6.261.174-12.354.181-18.588-.515-10.413-.91-18.022-.02-26.173 6.73-6.942 6.04-13.173 12.795-19.365 19.587-2.977 3.237-6.03 6.4-9.076 9.572A1176.351 1176.351 0 0 0 289 349c4.287 1.895 8.674 2.946 13.231 3.955l2.47.558c2.685.605 5.37 1.204 8.057 1.803l5.607 1.263c4.913 1.106 9.828 2.207 14.743 3.308 7.874 1.763 15.746 3.533 23.619 5.305 2.75.618 5.503 1.234 8.254 1.85l5.047 1.132 2.324.518c2.937.661 5.79 1.355 8.648 2.308-1.599 3.944-4.323 6.614-7.285 9.566l-1.65 1.668c-1.827 1.844-3.66 3.68-5.494 5.517l-3.933 3.963c-3.563 3.59-7.134 7.173-10.706 10.754l-6.7 6.722a21206.633 21206.633 0 0 1-20.986 21.042c-8.07 8.078-16.125 16.17-24.17 24.272a8145.8 8145.8 0 0 1-18.709 18.775 3492.094 3492.094 0 0 0-11.158 11.207 2067.916 2067.916 0 0 1-10.524 10.544 652.428 652.428 0 0 0-3.836 3.863c-10.352 10.504-20.11 18.09-35.474 18.42-11.626-.11-19.981-4.233-28.281-12.125-7.45-7.83-10.515-17.606-10.371-28.305 1.442-14.99 9.74-23.665 20.058-33.719l4.272-4.216c3.475-3.43 6.96-6.849 10.452-10.261 1.97-1.926 3.933-3.857 5.89-5.794a794.827 794.827 0 0 1 5.523-5.41c9.163-9.089 15.993-19.17 16.52-32.358-.267-9.965-4.166-18.26-10.688-25.688-8.486-7.522-17.388-11.075-28.77-10.714-18.091 1.683-29.335 16.356-41.178 28.612-2.083 2.15-4.178 4.287-6.275 6.423l-1.885 1.976c-8.188 8.323-18.222 13.02-29.982 13.364-6.965-.334-12.597-1.658-18.66-5.098l-3.063-1.688C95.844 385.942 90.078 378.197 88 368c-4.032-34.652 14.239-76.226 29-107l1.217-2.538C127.87 238.624 140.114 220.13 154 203l2.113-2.691C167.64 185.83 180.788 171.866 195 160l1.583-1.338C213.833 144.126 232.117 131.657 252 121l2.647-1.425C341.437 73.313 449.53 70.775 610 159Z"/><path fill="#1376EA" d="M166.313 531.25c7.734 7.22 11.669 17.593 12.125 28.063-.599 17.625-11.297 27.92-23.007 39.627a832.091 832.091 0 0 0-5.384 5.462C144.193 610.313 138.77 615.674 131 619l-2.688 1.25c-10.53 3.415-20.207 1.866-30.312-2.25-3.042-1.679-5.487-3.61-8-6l-2.121-2c-8.254-8.481-10.473-17.243-10.357-28.786.495-12.376 6.872-20.907 15.298-29.405l1.996-2.024c1.391-1.405 2.785-2.808 4.181-4.208a987.005 987.005 0 0 0 6.3-6.411c17.609-17.824 39.455-25.253 61.016-7.916Z"/><path fill="#20B6F8" d="M571 223c7.33 5.343 12.03 10.759 14.75 19.375 1.007 10.572-.088 19.25-6.867 27.766-7.016 6.928-14.51 9.146-24.124 9.099-9.626-.193-14.588-3.161-21.552-9.783-5.529-6.155-7.295-13.29-7.207-21.457.608-8.41 3.75-14.979 9.89-20.79 9.914-7.922 23.556-10.604 35.11-4.21Z"/></svg>