<svg xmlns="http://www.w3.org/2000/svg" width="60mm" height="60mm" viewBox="0 0 60 60"><path d="M2.05 239.5h55v55h-55z" style="opacity:.07000002;fill:#000;fill-opacity:1;stroke:none;stroke-width:22.29149818;stroke-linecap:butt;stroke-linejoin:miter;stroke-miterlimit:4;stroke-dasharray:none;stroke-opacity:1" transform="translate(0 -237)"/><path d="M5 242h50v50H5z" style="opacity:.07000002;fill:#000;fill-opacity:1;stroke:none;stroke-width:20.26499748;stroke-linecap:butt;stroke-linejoin:miter;stroke-miterlimit:4;stroke-dasharray:none;stroke-opacity:1" transform="translate(0 -237)"/><path d="M7.5 244.5h45v45h-45z" style="opacity:.07000002;fill:#0e0b0e;fill-opacity:1;stroke:none;stroke-width:18.23849869;stroke-linecap:butt;stroke-linejoin:miter;stroke-miterlimit:4;stroke-dasharray:none;stroke-opacity:1" transform="translate(0 -237)"/><path d="M0 237v10h10v10h10v-10h10v-10z" style="opacity:1;fill:#df4eaa;fill-opacity:1;stroke:none;stroke-width:20.26499939;stroke-linecap:butt;stroke-linejoin:miter;stroke-miterlimit:4;stroke-dasharray:none;stroke-opacity:1" transform="translate(0 -237)"/><path d="M10 257h10v40H10z" style="opacity:1;fill:#c040aa;fill-opacity:1;stroke:none;stroke-width:20.26499939;stroke-linecap:butt;stroke-linejoin:miter;stroke-miterlimit:4;stroke-dasharray:none;stroke-opacity:1" transform="translate(0 -237)"/><path d="M20 257h10v40H20z" style="opacity:1;fill:#7e5fe3;fill-opacity:1;stroke:none;stroke-width:20.26499939;stroke-linecap:butt;stroke-linejoin:miter;stroke-miterlimit:4;stroke-dasharray:none;stroke-opacity:1" transform="translate(0 -237)"/><path d="M30 287h20v-10H40v-20H30Z" style="opacity:1;fill:#2f51aa;fill-opacity:1;stroke:none;stroke-width:20.26499939;stroke-linecap:butt;stroke-linejoin:miter;stroke-miterlimit:4;stroke-dasharray:none;stroke-opacity:1" transform="translate(0 -237)"/><path d="M60 247H40v10h10v20h10z" style="opacity:1;fill:#15919d;fill-opacity:1;stroke:none;stroke-width:20.26499939;stroke-linecap:butt;stroke-linejoin:miter;stroke-miterlimit:4;stroke-dasharray:none;stroke-opacity:1" transform="translate(0 -237)"/></svg>