<svg xmlns="http://www.w3.org/2000/svg" xml:space="preserve" style="fill-rule:evenodd;clip-rule:evenodd;stroke-linejoin:round;stroke-miterlimit:2" viewBox="0 0 300 300"><path d="M11.023 11.145h122.659v93.434H11.023z" style="fill:none" transform="matrix(2.4458 0 0 3.21082 -26.961 -35.786)"/><path d="m46.8 684-5.8-5.8v-40.4l5.8-5.8h649l5.2 6.2v20.1c-.1 21.1-.3 22.2-4.7 24.5-1.6.9-81.7 1.2-325.8 1.2H46.8Zm4.7-81.4c-4.2-1.8-9.3-7.9-10-11.8-.3-1.8-.4-117.2-.3-256.4l.3-253.1 2.8-3.6c1.6-2.1 4.6-4.6 6.7-5.7 3.8-1.9 6-2 64.1-2 59.4 0 60.3 0 64.7 2.1 2.6 1.3 5.4 3.8 7 6.2l2.7 4.1.3 252.5c.2 173.3 0 253.7-.8 256.2-1.4 5.1-4.7 8.8-9.4 11-3.8 1.7-7.8 1.9-64.6 1.8-47.8 0-61.1-.3-63.5-1.3Zm190.9-.5c-4.8-2.2-8-6-9.4-11.1-.7-2.5-.9-88.4-.8-256.2l.3-252.4 2.7-4.1c1.6-2.4 4.4-4.9 7-6.2 4.4-2.1 5.3-2.1 64.7-2.1 53.5 0 60.6.2 63.4 1.6 4.5 2.3 6.6 4.4 8.8 8.6 1.8 3.6 1.9 10.4 1.9 257 0 244.8-.1 253.4-1.9 256.8-1 1.9-3.5 4.8-5.5 6.5l-3.8 3-61.6.2c-58.4.3-61.9.2-65.8-1.6Zm325.1 0c-2.2-1-5-3.2-6.2-4.9-2.5-3.4-2.7-4.1-60.2-199.2-21.4-72.9-49.2-166.9-61.6-209-14.5-48.9-22.6-78.1-22.7-81.1-.1-8.8 5.1-14.6 16-17.8 3.7-1.1 25.2-7.5 47.7-14.2 64.4-19.1 61.8-18.4 66.5-17 4.8 1.4 10.3 6 11.9 9.8.6 1.6 26.3 88.5 57.2 193.3 30.8 104.8 62.5 212.5 70.5 239.5 8.8 30 14.4 50.6 14.4 53.3 0 5.2-1.8 8.9-6.2 12.8-2.9 2.5-11.7 5.4-60.8 19.7-31.6 9.2-58.6 16.7-60 16.7-1.4 0-4.3-.9-6.5-1.9Z" style="fill:#130000;fill-rule:nonzero;stroke:#fff;stroke-width:21.12px" transform="matrix(.37879 0 0 .37879 9.47 9.417)"/></svg>