<svg xmlns="http://www.w3.org/2000/svg" version="1.0" viewBox="0 0 400 400"><path d="M0 200v200h400V0H0v200zM224.9 48.2c3.1 15.4 18.2 92.7 25.2 129.3 4.4 23.1 8.3 43 8.6 44.2l.5 2.3h-59.1c-42.9 0-59.1-.3-59.1-1.1 0-1.1 2.3-13.1 21.6-112.4 5.7-29.7 10.9-56.5 11.5-59.5.6-3 1.2-6.1 1.4-6.8.3-.9 6.1-1.2 24.4-1.2h24l1 5.2zm38.1 8.3c29.7 12.5 58.9 39.5 74.6 68.9 28.2 53 24.2 117.2-10.3 165.6-39.3 55-110.7 78.6-175.3 57.9-23.9-7.6-48.8-23.3-65.5-41.1C64.9 284.5 51.4 258 45.4 227c-2.7-14.3-2.5-40.9.4-55.6 9.8-49 39.7-89.1 82.9-111 9.8-5 26.7-11.3 27.7-10.3.2.2-2.9 17.4-6.9 38.1l-7.3 37.7-6.1 5.6c-16.1 14.9-26.6 35.8-29.2 57.9-2.1 17.7.9 34.6 9 51.1 13.3 26.7 36.5 44.9 65.4 51 9.1 2 27.8 1.9 37.5-.1 23.9-4.9 46-20.3 60-41.7 9.6-14.8 14.2-30.8 14.2-50.1 0-26.6-9.6-48.9-29-67.6l-6.8-6.5-7.1-37.5c-3.9-20.6-7.1-37.8-7.1-38.2 0-.8 10.7 2.8 20 6.7z"/><path d="M192.9 107.5c-7.8 2.5-14.5 10.7-15.6 19.4-.9 6.3 1.4 11.9 7 17.6l5.2 5.1-4.2 21.5c-2.3 11.8-4.2 22-4.3 22.6 0 1 4.4 1.3 19 1.3 10.5 0 19-.1 19-.3 0-.2-2-10.4-4.5-22.7l-4.5-22.3 4.4-4.1c7.1-6.7 9.4-13.2 7.5-21.4-2.9-13.3-16-20.9-29-16.7z"/></svg>