<?xml version="1.0" standalone="no"?>
<!DOCTYPE svg PUBLIC "-//W3C//DTD SVG 20010904//EN"
 "http://www.w3.org/TR/2001/REC-SVG-20010904/DTD/svg10.dtd">
<svg version="1.0" xmlns="http://www.w3.org/2000/svg"
 width="400.000000pt" height="400.000000pt" viewBox="0 0 400.000000 400.000000"
 preserveAspectRatio="xMidYMid meet">

<g transform="translate(0.000000,400.000000) scale(0.100000,-0.100000)"
fill="#000000" stroke="none">
<path d="M0 2000 l0 -2000 2000 0 2000 0 0 2000 0 2000 -2000 0 -2000 0 0
-2000z m2249 1518 c31 -154 182 -927 252 -1293 44 -231 83 -430 86 -442 l5
-23 -591 0 c-429 0 -591 3 -591 11 0 11 23 131 216 1124 57 297 109 565 115
595 6 30 12 61 14 68 3 9 61 12 244 12 l240 0 10 -52z m381 -83 c297 -125 589
-395 746 -689 282 -530 242 -1172 -103 -1656 -393 -550 -1107 -786 -1753 -579
-239 76 -488 233 -655 411 -216 233 -351 498 -411 808 -27 143 -25 409 4 556
98 490 397 891 829 1110 98 50 267 113 277 103 2 -2 -29 -174 -69 -381 l-73
-377 -61 -56 c-161 -149 -266 -358 -292 -579 -21 -177 9 -346 90 -511 133
-267 365 -449 654 -510 91 -20 278 -19 375 1 239 49 460 203 600 417 96 148
142 308 142 501 0 266 -96 489 -290 676 l-68 65 -71 375 c-39 206 -71 378 -71
382 0 8 107 -28 200 -67z"/>
<path d="M1929 2925 c-78 -25 -145 -107 -156 -194 -9 -63 14 -119 70 -176 l52
-51 -42 -215 c-23 -118 -42 -220 -43 -226 0 -10 44 -13 190 -13 105 0 190 1
190 3 0 2 -20 104 -45 227 l-45 223 44 41 c71 67 94 132 75 214 -29 133 -160
209 -290 167z"/>
</g>
</svg>
