<svg xmlns="http://www.w3.org/2000/svg" class="icon" viewBox="0 0 1606 1005"><path fill="none" d="M-1-1h1608v1007H-1z"/><path fill="#F3A22F" d="M1332.2 333.8c-12.8-108.8-108.8-185.6-217.6-185.6-25.6 0-57.6 6.4-83.2 12.8C961 77.8 852.2 26.6 743.4 26.6c-147.2 0-275.2 83.2-339.2 211.2H385c-198.4 0-358.4 153.6-364.8 352s153.6 358.4 352 364.8h467.2c38.4 0 70.4-32 70.4-70.4 0-38.4-32-70.4-70.4-70.4H397.8c-115.2 0-211.2-89.6-211.2-204.8 0-108.8 83.2-198.4 192-211.2 19.2 0 44.8 0 64 6.4h6.4l44.8 12.8c12.8-128 121.6-230.4 256-230.4 89.6 0 172.8 51.2 217.6 128 6.4 12.8 6.4 19.2 12.8 32l12.8-12.8c32-25.6 76.8-32 115.2-25.6v-6.4c64 6.4 108.8 57.6 108.8 121.6 0 19.2-6.4 38.4-12.8 57.6 19.2 12.8 32 25.6 57.6 32 12.8-12.8 25.6-19.2 32-32 102.4 6.4 179.2 96 172.8 198.4-6.4 96-89.6 172.8-192 172.8-76.8 0-153.6-51.2-179.2-128h76.8c12.8 0 19.2-6.4 19.2-19.2 0-6.4 0-6.4-6.4-12.8l-153.6-204.8c-6.4-6.4-19.2-12.8-32-6.4l-6.4 6.4-153.6 204.8c-6.4 6.4-6.4 25.6 6.4 32 6.4 0 6.4 6.4 12.8 6.4h89.6c32 179.2 204.8 300.8 384 268.8s300.8-204.8 268.8-384c-25.6-153.6-134.4-256-268.8-281.6z" class="selected"/></svg>