<?xml version="1.0" encoding="UTF-8" standalone="no"?>
<svg
   shape-rendering="geometricPrecision"
   text-rendering="geometricPrecision"
   image-rendering="optimizeQuality"
   fill-rule="evenodd"
   clip-rule="evenodd"
   viewBox="0 0 1080 1215.529"
   version="1.1"
   id="svg1"
   width="1080"
   height="1215.5291"
   xmlns="http://www.w3.org/2000/svg"
   xmlns:svg="http://www.w3.org/2000/svg">
  <defs
     id="defs1" />
  <path
     fill="currentColor"
     fill-rule="nonzero"
     d="M 762.71974,0.02596853 H 568.36246 V 825.77973 c 0,108.21362 -77.73864,177.82737 -172.28255,177.82737 -94.54628,0 -178.5869,-69.61137 -178.5869,-177.82737 0,-125.02602 97.71033,-191.04132 227.97257,-177.37398 V 439.16346 c -18.90831,-3.16404 -37.81661,-4.20131 -53.58699,-4.20131 C 178.61301,434.96215 0,606.20742 0,818.41199 c 0,224.83471 176.48624,397.11721 392.91587,397.11721 190.15595,0 391.87859,-139.7306 391.87859,-403.42156 V 382.41243 C 868.83508,466.45305 970.74673,492.72909 1080,492.72909 v -193.32 C 945.53407,289.9407 796.33741,201.69876 762.71974,-1.4135742e-4 Z"
     id="path1"
     style="stroke-width:2.37363" />
</svg>
