<svg xmlns="http://www.w3.org/2000/svg" viewBox="0 0 150 150"><defs><linearGradient id="b" x1="0" x2="1" y1="0" y2="0" gradientTransform="matrix(-5260917.80136 8126647.30652 -8315282.19864 -4522683.90549 16465983.176 8909439.138)" gradientUnits="userSpaceOnUse"><stop offset="0" stop-color="#519b4c" stop-opacity="0"/><stop offset="1" stop-color="#519b4c"/></linearGradient><linearGradient id="c" x1="0" x2="1" y1="0" y2="0" gradientTransform="matrix(13950.96576 294103.0492 -1705738.93998 13893.81745 6658671.789 1460881.843)" gradientUnits="userSpaceOnUse"><stop offset="0" stop-color="#519b4c" stop-opacity="0"/><stop offset="1" stop-color="#519b4c"/></linearGradient><linearGradient id="d" x1="0" x2="1" y1="0" y2="0" gradientTransform="matrix(298736.03064 8101822.35837 -2734932.54932 336632.36582 5291727.742 7226469.66)" gradientUnits="userSpaceOnUse"><stop offset="0" stop-color="#519b4c" stop-opacity="0"/><stop offset="1" stop-color="#519b4c"/></linearGradient><linearGradient id="e" x1="0" x2="1" y1="0" y2="0" gradientTransform="scale(376491.5625 153933.4369) rotate(-90 4.843 .045)" gradientUnits="userSpaceOnUse"><stop offset="0" stop-color="#e5e3e3"/><stop offset="1" stop-color="#e5e3e3" stop-opacity="0"/></linearGradient><linearGradient id="f" x1="0" x2="1" y1="0" y2="0" gradientTransform="matrix(-20614.91357 267511.81758 -386304.62692 -21442.3198 1992750.673 1470930.218)" gradientUnits="userSpaceOnUse"><stop offset="0" stop-color="#519b4c" stop-opacity="0"/><stop offset="1" stop-color="#519b4c"/></linearGradient><linearGradient id="g" x1="0" x2="1" y1="0" y2="0" gradientTransform="matrix(0 -153933.4369 375943.22508 0 1084972.148 752426.64)" gradientUnits="userSpaceOnUse"><stop offset="0" stop-color="#e5e3e3"/><stop offset="1" stop-color="#e5e3e3" stop-opacity="0"/></linearGradient><linearGradient id="h" x1="0" x2="1" y1="0" y2="0" gradientTransform="matrix(82.96444 69813.54202 -77049.71674 82.83061 482719.87 446167.055)" gradientUnits="userSpaceOnUse"><stop offset="0" stop-color="#f9ec31"/><stop offset="1" stop-color="#f6921e"/></linearGradient><linearGradient id="i" x1="0" x2="1" y1="0" y2="0" gradientTransform="matrix(-86381.45195 -39507.84813 45276.49642 -56037.9334 495620.955 349394.793)" gradientUnits="userSpaceOnUse"><stop offset="0" stop-color="#f9ec31"/><stop offset="1" stop-color="#f6921e"/></linearGradient><linearGradient id="j" x1="0" x2="1" y1="0" y2="0" gradientTransform="matrix(-2343.59218 50113.29446 -114742.21269 -2344.49545 607387.229 274785.684)" gradientUnits="userSpaceOnUse"><stop offset="0" stop-color="#f9ec31"/><stop offset="1" stop-color="#f6921e"/></linearGradient><linearGradient id="k" x1="0" x2="1" y1="0" y2="0" gradientTransform="matrix(-274.91999 -61211.3041 2080.80332 -287.31487 5216.6 333859.97)" gradientUnits="userSpaceOnUse"><stop offset=".2" stop-color="#fff" stop-opacity="0"/><stop offset=".97" stop-color="#fff"/></linearGradient><radialGradient id="a" cx="0" cy="0" r="1" fx="0" fy="0" gradientTransform="matrix(9085557.23114 0 0 1880412.94922 14718750.646 945006.123)" gradientUnits="userSpaceOnUse"><stop offset=".12" stop-color="#515252" stop-opacity=".7"/><stop offset=".97" stop-color="#515252" stop-opacity="0"/></radialGradient></defs><path fill="url(#a)" fill-rule="evenodd" d="M75.074 147.75C33.977 147.75.75 140.852.75 132.375S33.977 117 75.074 117c41.028 0 74.25 6.898 74.25 15.375s-33.222 15.375-74.25 15.375m0 0"/><path fill="#414242" d="M108.75 29.926C107.176 14.324 93.977 2.25 77.926 2.25c-15.977 0-29.176 12.148-30.977 27.676l-.3 3.523 9.601.602.227-3.528c1.421-11.25 9.824-18.75 21.449-18.75s20.25 7.579 21.449 18.977l.602 4.727 9.375-.676zm0 0"/><path fill="#60bb55" d="M21.45 28.5q-.75.002-1.5.3-.674.299-1.2.825a5 5 0 0 0-.824 1.273 3.5 3.5 0 0 0-.301 1.426l.148 55.653v12.597l.079 34.352c0 .5.097.972.296 1.426.204.5.477.921.829 1.273a3.7 3.7 0 0 0 1.273.824q.675.3 1.426.301l34.347-.074h6l38.102-.074c21-.079 38.102-17.25 38.102-38.25v-2.704l-.153-62.398c0-.898-.148-1.8-.523-2.625-.375-.898-.824-1.648-1.5-2.25a7.6 7.6 0 0 0-2.25-1.574c-.824-.301-1.727-.528-2.625-.528-6.977 0-14.176 0-21.153.375l-8.625.75c-7.722.977-15.523 2.704-21.75 5.926q-.445.151-.898.301a5.5 5.5 0 0 1-1.801 0 4.3 4.3 0 0 1-.824-.375c-6.523-3.375-13.648-5.176-21.75-6l-8.7-.676c-8.1-.375-16.425-.148-24.226-.074zm0 0"/><path fill="url(#b)" d="M25.273 28.5c-4.199 0-7.648 3.523-7.574 7.648l.074 51.829v12.597l.079 34.278q-.001.75.296 1.5c.204.449.477.875.829 1.273a3.7 3.7 0 0 0 1.273.824q.675.3 1.5.301l34.273-.074h6l38.102-.074c21-.079 38.102-17.25 38.102-38.25v-2.704l-.153-62.324c0-3.898-3.148-6.972-6.972-7.05-6.977 0-14.102 0-21.079.374l-8.625.75c-7.722.977-15.523 2.704-21.75 5.852a2.4 2.4 0 0 1-.824.3q-.45.148-.972.15-.452-.002-.903-.15-.45-.076-.824-.3c-6.602-3.375-13.648-5.176-21.75-6l-8.7-.676c-6.75-.3-13.726-.148-20.402-.074m0 0"/><path fill="#84c468" d="m28.648 138.75 27.375-.074h6l38.102-.074c9.3 0 17.852-3.454 24.45-9C116.772 111.602 98.851 99 78 99c-24.148.074-44.324 17.023-49.352 39.75m0 0"/><path fill="url(#c)" d="m28.648 138.75 27.375-.074h6l38.102-.074c9.3 0 17.852-3.454 24.45-9C116.772 111.602 98.851 99 78 99c-24.148.074-44.324 17.023-49.352 39.75m0 0"/><path fill="#4f9d4d" d="m78.074 138.602 22.5-.375c9.153 0 17.551-3.227 24-8.625 8.403-6.977 13.653-17.477 13.653-29.25v-2.704l-.153-66.222c0-.824-.3-1.574-.898-2.176a3.4 3.4 0 0 0-.45-.375 1.8 1.8 0 0 0-.601-.3 1.6 1.6 0 0 0-.523-.223h-.676c-8.176-.079-16.653-.153-24.903.296l-8.625.75c-8.472 1.051-17.023 3.079-23.546 6.829zm0 0"/><path fill="url(#d)" d="m78.074 138.602 22.5-.375c9.153 0 17.551-3.227 24-8.625 8.403-6.977 13.653-17.477 13.653-29.25v-2.704l-.153-66.222c0-.824-.3-1.574-.898-2.176a3.4 3.4 0 0 0-.45-.375 1.8 1.8 0 0 0-.601-.3 1.6 1.6 0 0 0-.523-.223h-.676c-8.176-.079-16.653-.153-24.903.296l-8.625.75c-8.472 1.051-17.023 3.079-23.546 6.829zm0 0"/><path fill="#fff" fill-rule="evenodd" d="M105.3 97.95c-13.198 0-23.85-10.65-23.85-23.848 0-13.204 10.652-23.852 23.85-23.852 13.2 0 23.848 10.648 23.848 23.852 0 13.199-10.648 23.847-23.847 23.847zm0 0"/><path fill="url(#e)" d="M128.324 67.574c-.75 2.477-1.8 4.801-3.3 6.977a23.4 23.4 0 0 1-5.325 5.55 24.5 24.5 0 0 1-6.824 3.524 23.3 23.3 0 0 1-7.574 1.273c-10.875 0-20.102-7.273-23.028-17.25q-.22.827-.449 1.653c-.097.55-.176 1.097-.222 1.648a18 18 0 0 0-.227 1.653 21 21 0 0 0-.074 1.722c.074 13.2 10.8 23.926 24 23.926 13.273-.074 24-10.8 24-24 0-2.324-.375-4.574-.977-6.676m0 0"/><path fill="#303030" d="M102.602 58.648c8.625-.898 16.347 5.403 17.25 14.102.898 8.7-5.403 16.426-14.102 17.324-8.625.824-16.426-5.472-17.25-14.097a9.7 9.7 0 0 1-.074-2.102c0-.7.05-1.398.148-2.102.153-.699.324-1.375.528-2.023q.299-.974.75-1.95.522.974 1.273 1.802c.55.546 1.148 1 1.8 1.347q1.051.528 2.177.75 1.049.228 2.25.074a7 7 0 0 0 2.773-.824 9.5 9.5 0 0 0 2.324-1.875 9.6 9.6 0 0 0 1.352-2.625c.3-.972.375-1.949.3-3a9.5 9.5 0 0 0-.226-1.273 10 10 0 0 0-.523-1.278 9 9 0 0 0-.676-1.125 8.3 8.3 0 0 0-.903-1.046q.376-.001.829-.079m0 0"/><path fill="#60bb55" d="M78.074 138.602h22.2c9.3 0 17.703-3.454 24.3-9C116.852 111.75 98.551 99.3 78 99.074zm0 0"/><path fill="url(#f)" d="M78.074 138.602h22.2c9.3 0 17.703-3.454 24.3-9C116.852 111.75 98.551 99.3 78 99.074zm0 0"/><path fill="#fff" fill-rule="evenodd" d="M50.398 97.95c-13.125 0-23.773-10.65-23.773-23.848 0-13.204 10.648-23.852 23.773-23.852 13.204 0 23.852 10.648 23.852 23.852 0 13.199-10.648 23.847-23.852 23.847zm0 0"/><path fill="url(#g)" d="M73.426 67.574c-2.852 9.977-12.074 17.324-22.95 17.324-10.953 0-20.175-7.273-23.101-17.25A21 21 0 0 0 27 69.301q-.151.823-.3 1.648a9.5 9.5 0 0 0-.15 1.653q-.074.895-.073 1.722c0 13.2 10.796 23.926 24 23.926 13.273-.074 23.921-10.8 23.921-24 0-2.324-.375-4.574-.972-6.676m0 0"/><path fill="#303030" d="M52.95 58.574c8.777 0 15.823 7.051 15.823 15.75s-7.046 15.75-15.75 15.824c-8.699 0-15.75-7.046-15.75-15.75q0-1.048.153-2.097a9.2 9.2 0 0 1 .375-2.028 9.4 9.4 0 0 1 .676-2.023c.25-.602.546-1.2.898-1.8q.45.978 1.125 1.874a7 7 0 0 0 1.727 1.5 5.8 5.8 0 0 0 2.023.977q1.05.3 2.176.3.75 0 1.5-.152c.5-.097.972-.222 1.426-.375a6.4 6.4 0 0 0 1.273-.75q.676-.376 1.2-.898.526-.526.902-1.2.444-.603.75-1.277.297-.675.449-1.426.147-.75.148-1.5-.073-.674-.148-1.347-.153-.674-.375-1.278a7 7 0 0 0-.602-1.199 5.5 5.5 0 0 0-.75-1.125zm0 0"/><path fill="url(#h)" d="M78.375 111.75c3.148 0 12.824-10.727 12.3-14.625-2.25-8.398-10.35-9.45-12.6-9.602h-.45c-2.176.227-10.352 1.579-12.375 10.204-.602 3.222 9.148 14.023 12.824 14.023zm0 0"/><path fill="url(#i)" d="M88.727 102.3c1.273-2.027 2.097-3.902 1.949-5.175-.903-3.375-2.778-5.55-4.801-6.977-3.074-1.648-6.375-2.023-7.727-2.097-.148 0-.222-.074-.597 0-1.278.148-4.574.597-7.653 2.398-2.023 1.574-3.824 3.824-4.648 7.278-.148.898.523 2.472 1.648 4.199 3.602 2.097 9.153 5.25 11.102 5.25 2.023 0 7.125-2.778 10.727-4.875zm0 0"/><path fill="url(#j)" d="M92.398 96.602c-2.546-9-11.773-10.125-14.25-10.278h-.597c-2.403.227-11.7 1.727-13.95 10.875q-.076.075-.078.227v.75s11.551 7.273 14.477 7.273c3.074 0 13.8-6.676 14.398-7.273a5.3 5.3 0 0 0 0-1.574m0 0"/><path fill="url(#k)" d="M81 86.7c-.2-.052-.426-.098-.676-.15q-.375-.074-.75-.073a3.4 3.4 0 0 0-.676-.079c-.25-.046-.5-.074-.75-.074h-.597s1.199 1.5.3 19.125c1.5-3.972 2.626-13.648 3.149-18.75zm0 0"/></svg>