<svg xmlns="http://www.w3.org/2000/svg" viewBox="0 0 512 512"><defs><linearGradient id="a" x1="50%" x2="50%" y1="0%" y2="100%"><stop offset="0%" stop-color="#272A52"/><stop offset="100%" stop-color="#090A15"/></linearGradient></defs><g fill="none" fill-rule="evenodd"><path fill="url(#a)" d="M167.934 0h176.132c58.394 0 79.57 6.08 100.917 17.497 21.349 11.417 38.103 28.171 49.52 49.52C505.92 88.365 512 109.54 512 167.934v176.132c0 58.394-6.08 79.57-17.497 100.917-11.417 21.349-28.171 38.103-49.52 49.52C423.635 505.92 402.46 512 344.066 512H167.934c-58.394 0-79.57-6.08-100.917-17.497-21.349-11.417-38.103-28.171-49.52-49.52C6.08 423.635 0 402.46 0 344.066V167.934c0-58.394 6.08-79.57 17.497-100.917 11.417-21.349 28.171-38.103 49.52-49.52C88.365 6.08 109.54 0 167.934 0Z"/><path fill="#FFF" fill-rule="nonzero" d="M256 123c43.078 0 78 34.922 78 78l.002 42.955c13.639 13.127 22.32 31.367 22.96 51.636 15.253 8.69 25.538 25.098 25.538 43.909 0 27.22-21.536 49.41-48.499 50.461L334 390l-44.299-.001c12.815-34.87 29.53-40.902 25.799-46.499-3.672-5.507-28.829 17.211-42.602 46.5l-26.89-.003C273.83 330.62 313.5 315.596 313.5 306c0-9.578-62.41 24.114-88.55 83.999l-23.433-.001C237.882 294.354 313.5 277.305 313.5 267c0-10.257-100.681 29.11-137.963 121.832C149.83 383.54 130.5 360.778 130.5 333.5c0-28.141 20.574-51.477 47.5-55.787V201c0-43.078 34.922-78 78-78Zm0 30c-26.245 0-47.57 21.063-47.994 47.206L208 201l.001 80.032c.284.114.567.23.848.348C216.409 247.957 246.289 223 282 223a74.989 74.989 0 0 1 22.001 3.279L304 201c0-26.51-21.49-48-48-48Z"/></g></svg>