<?xml version="1.0" encoding="UTF-8" standalone="no"?>
<!-- Created with Inkscape (http://www.inkscape.org/) -->

<svg
   version="1.1"
   id="svg1"
   width="415.74472"
   height="415.74817"
   viewBox="0 0 415.7447 415.74815"
   xmlns="http://www.w3.org/2000/svg"
   xmlns:svg="http://www.w3.org/2000/svg">
  <defs
     id="defs1">
    <linearGradient
       x1="0"
       y1="0"
       x2="1"
       y2="0"
       gradientUnits="userSpaceOnUse"
       gradientTransform="matrix(1.264e-4,-2890.81,-2890.81,-1.264e-4,4535.41,7270.59)"
       spreadMethod="pad"
       id="linearGradient17">
      <stop
         style="stop-opacity:1;stop-color:#fffef5"
         offset="0"
         id="stop14" />
      <stop
         style="stop-opacity:1;stop-color:#fffef5"
         offset="0.35"
         id="stop15" />
      <stop
         style="stop-opacity:1;stop-color:#faf8dd"
         offset="0.65"
         id="stop16" />
      <stop
         style="stop-opacity:1;stop-color:#faf8dd"
         offset="1"
         id="stop17" />
    </linearGradient>
    <clipPath
       clipPathUnits="userSpaceOnUse"
       id="clipPath17">
      <path
         d="m 4268.08,4405 c -784.36,147.57 -1300.52,903.14 -1152.85,1687.48 147.65,784.36 903.1,1300.59 1687.49,1152.9 C 5587.09,7097.75 6103.22,6342.23 5955.6,5557.83 5807.91,4773.43 5052.43,4257.31 4268.08,4405 Z"
         transform="translate(0,-2.5000001e-4)"
         id="path17" />
    </clipPath>
    <linearGradient
       x1="0"
       y1="0"
       x2="1"
       y2="0"
       gradientUnits="userSpaceOnUse"
       gradientTransform="matrix(1.363e-4,-3118.12,-3118.12,-1.363e-4,4535.39,7384.23)"
       spreadMethod="pad"
       id="linearGradient21">
      <stop
         style="stop-opacity:1;stop-color:#ce1a4f"
         offset="0"
         id="stop18" />
      <stop
         style="stop-opacity:1;stop-color:#ce1a4f"
         offset="0.35"
         id="stop19" />
      <stop
         style="stop-opacity:1;stop-color:#c51a5c"
         offset="0.65"
         id="stop20" />
      <stop
         style="stop-opacity:1;stop-color:#c51a5c"
         offset="1"
         id="stop21" />
    </linearGradient>
    <clipPath
       clipPathUnits="userSpaceOnUse"
       id="clipPath21">
      <path
         d="M 5928.03,5563 C 5783.22,4793.94 5042.32,4287.75 4273.26,4432.5 c -594.6,111.95 -1031.87,580.17 -1132.91,1142.28 7.68,-29.34 16.17,-58.36 25.68,-86.98 14.56,-44.15 31.3,-87.49 50.17,-129.63 18.8,-42.01 39.56,-83.12 62.19,-122.9 22.7,-39.68 47.31,-78.06 73.53,-114.9 26.2,-36.94 54.2,-72.27 83.63,-106.18 58.89,-67.5 123.84,-128.4 193.49,-182.08 69.67,-53.69 144.02,-99.99 221.7,-138.56 38.94,-19.18 78.59,-36.54 118.91,-51.75 40.3,-15.24 81.26,-28.42 122.63,-39.7 41.4,-11.06 83.28,-20 125.2,-26.9 41.96,-6.9 84.03,-11.57 126.02,-14.31 42.12,-2.63 83.87,-3.23 125.46,-1.72 41.5,1.52 82.52,5.07 122.9,10.55 40.4,5.48 80.68,12.89 120.33,22.33 39.65,9.35 78.86,20.6 117.33,33.81 38.38,13.19 76.08,28.31 112.76,45.06 36.65,16.75 72.39,35.32 106.84,55.52 34.52,20.2 67.86,42.02 99.77,65.16 32.01,23.35 62.66,48.01 91.69,74.01 58.38,51.96 110.79,109.2 156.8,170.3 46.09,61.1 85.68,126.27 118.32,194.08 16.23,33.89 30.86,68.51 43.63,103.54 12.8,35.21 23.75,70.84 32.99,106.66 9.14,35.84 16.52,72.17 21.97,108.41 5.5,36.43 9.19,72.86 11.02,109.11 1.83,36.23 1.83,72.48 0.06,108.15 -1.75,35.83 -5.45,73.74 -10.62,108.5 -5.31,34.77 -12.51,71.71 -21.21,105.82 -8.74,33.85 -19.03,67.39 -30.89,100.19 -11.88,32.82 -25.44,64.8 -40.46,95.96 -14.93,31.17 -31.42,61.36 -49.28,90.58 -17.8,29.04 -37.04,57.25 -57.31,84.09 -20.37,26.9 -41.99,52.64 -64.78,77.04 -45.24,48.93 -94.83,92.73 -147.82,130.68 -52.79,38.18 -108.72,70.54 -166.93,97.09 -28.92,13.21 -58.52,24.88 -88.4,35.03 -29.89,10.25 -60.18,18.82 -90.69,25.98 -30.46,7 -61.26,12.58 -91.97,16.4 -30.64,4 -61.39,6.49 -91.9,7.3 -30.53,0.81 -60.88,0.16 -90.99,-2.13 -29.94,-2.14 -59.59,-5.84 -88.72,-10.86 -29.08,-5.02 -57.89,-11.47 -86.22,-19.28 -28.27,-7.73 -56.16,-16.92 -83.33,-27.52 -27.19,-10.46 -53.58,-22.28 -79.32,-35.22 -25.69,-12.98 -50.56,-27.3 -74.5,-42.53 -23.95,-15.27 -46.89,-31.81 -68.85,-49.22 -22,-17.3 -42.94,-35.73 -62.75,-54.97 -39.69,-38.46 -74.95,-80.23 -105.41,-124.63 -30.46,-44.26 -56.03,-90.95 -76.51,-139.21 -20.51,-48.22 -36.11,-97.85 -46.36,-147.84 -5.12,-25.03 -8.97,-50.19 -11.5,-75.16 -2.65,-25.19 -3.86,-50.2 -3.86,-74.91 0,-24.92 1.16,-49.49 3.69,-73.78 2.35,-24.22 6.04,-48.16 10.81,-71.62 4.72,-23.6 10.62,-46.64 17.57,-69.27 6.95,-22.74 14.96,-44.86 24.09,-66.4 9.04,-21.6 19.19,-42.53 30.22,-62.71 10.99,-20.3 22.99,-39.69 35.82,-58.37 25.68,-37.55 54.7,-71.55 86.3,-102.01 31.48,-30.44 65.65,-57.24 101.44,-79.97 35.79,-22.74 73.31,-41.53 111.63,-56.13 38.38,-14.72 77.54,-25.17 116.62,-31.67 39.09,-6.3 78.22,-8.53 116.33,-6.8 19.02,0.71 37.92,2.54 56.49,5.26 18.62,2.66 36.73,6.2 54.61,10.77 35.71,8.94 69.83,21.32 101.6,36.64 31.91,15.43 61.5,33.7 88.48,54.4 26.93,20.71 51.05,43.76 72.2,68.31 21.3,24.77 39.46,51.26 54.58,78.47 14.99,27.41 26.92,55.63 35.65,84.14 8.72,28.42 14.21,57.05 16.69,85.36 2.43,28.22 1.83,55.94 -1.51,82.56 -3.42,26.81 -9.51,53.4 -17.98,77.87 -8.48,24.31 -19.32,47.81 -31.96,68.41 -12.74,20.45 -27.28,39.03 -43.04,55.36 -15.91,16.4 -33.04,30.5 -50.92,42.33 -18.02,11.82 -36.7,21.47 -55.62,28.73 -18.92,7.3 -37.95,12.13 -56.54,14.86 -18.71,2.59 -36.9,3 -54.2,1.48 -3.29,-0.3 -6.58,-0.71 -9.87,-1.22 -32.28,-2.95 -63.49,-18.02 -86.3,-44.51 -46.67,-54.16 -40.4,-135.81 13.8,-182.45 1.38,-1.16 2.81,-2.33 4.26,-3.5 l -0.54,0.14 c 50.65,-47.18 55.36,-126.15 9.9,-179.23 -21.49,-24.97 -50.4,-39.68 -80.59,-43.74 -4.99,-0.83 -10.06,-1.53 -15.28,-2.04 -17.25,-1.52 -35.47,-1.12 -54.05,1.63 -18.64,2.63 -37.64,7.6 -56.59,14.92 -18.89,7.2 -37.55,16.84 -55.42,28.82 -17.97,11.76 -35.08,26.07 -50.85,42.52 -15.8,16.25 -30.29,34.83 -42.88,55.43 -12.64,20.54 -23.5,43.18 -31.83,67.7 -8.52,24.36 -14.6,49.99 -18.11,76.78 -3.37,26.7 -4.01,54.46 -1.67,82.63 2.42,28.21 7.87,56.87 16.5,85.45 8.62,28.43 20.37,56.7 35.46,84.04 14.94,27.42 33.01,53.81 54.31,78.52 21.05,24.81 45.17,47.91 72.07,68.67 26.84,20.76 56.46,39.07 88.29,54.55 31.72,15.43 65.92,27.86 101.55,36.9 17.77,4.5 36.04,8.22 54.6,10.96 18.52,2.79 37.36,4.57 56.5,5.39 38.1,1.78 77.13,-0.35 116.32,-6.66 39.08,-6.29 78.24,-16.69 116.68,-31.26 38.32,-14.57 75.81,-33.19 111.68,-55.87 35.79,-22.59 70.05,-49.34 101.72,-79.73 31.67,-30.36 60.75,-64.35 86.48,-101.77 12.89,-18.6 24.9,-38.05 36.03,-58.31 11.09,-20.24 21.2,-41.15 30.36,-62.57 9.11,-21.62 17.27,-43.74 24.36,-66.28 6.85,-22.68 12.88,-47.5 17.78,-71.04 4.67,-23.34 8.31,-49.03 10.71,-73.39 2.34,-24.37 3.47,-48.97 3.45,-73.74 -0.05,-24.87 -1.38,-49.84 -3.97,-74.92 -2.7,-25.06 -6.6,-50.23 -11.78,-75.21 -10.34,-49.92 -25.97,-99.57 -46.59,-147.78 -20.64,-48.11 -46.55,-94.79 -76.95,-139.05 -30.62,-44.26 -65.98,-85.99 -105.68,-124.34 -19.94,-19.08 -40.88,-37.46 -62.88,-54.82 -22.02,-17.34 -45.06,-33.69 -69.04,-48.92 -23.96,-15.31 -48.9,-29.43 -74.58,-42.43 -25.76,-12.88 -52.21,-24.66 -79.4,-35.12 -27.16,-10.44 -55.06,-19.48 -83.35,-27.19 -28.36,-7.83 -57.17,-14.11 -86.33,-19.19 -29.04,-4.97 -58.81,-8.52 -88.75,-10.66 -30.06,-2.13 -60.37,-2.74 -90.89,-1.71 -30.62,0.8 -61.31,3.23 -92.01,7.3 -30.65,4.06 -61.31,9.64 -91.8,16.75 -60.97,14.31 -121.14,34.9 -179.09,61.51 -58.03,26.49 -113.96,59.07 -166.7,97.33 -52.66,38.16 -102.3,82.02 -147.42,130.95 -22.67,24.55 -44.26,50.22 -64.6,77.23 -20.28,26.91 -39.33,55.11 -57.14,84.34 -17.71,29.15 -34.15,59.5 -49.08,90.65 -14.88,31.27 -28.38,63.23 -40.19,96.13 -11.82,32.77 -22.04,66.27 -30.77,100.27 -8.52,34.01 -15.42,68.62 -20.76,103.32 -5.2,34.77 -8.87,70.14 -10.69,105.87 -1.89,35.79 -1.95,71.87 -0.17,108.15 1.76,36.33 5.34,72.62 10.67,109.01 5.47,36.29 12.81,72.58 21.78,108.46 9.11,35.93 20,71.56 32.77,106.77 12.7,35.08 27.11,69.74 43.39,103.59 32.41,67.96 71.83,133.16 117.82,194.48 45.76,61.16 98.1,118.44 156.28,170.66 29.14,25.99 59.65,50.75 91.51,74.2 31.93,23.24 65.22,45.07 99.58,65.42 34.5,20.2 70.11,38.88 106.76,55.78 36.65,16.88 74.3,32.03 112.74,45.26 38.46,13.3 77.59,24.77 117.27,34.17 39.69,9.48 79.93,16.99 120.25,22.53 40.37,5.58 81.5,9.28 122.9,10.81 41.5,1.72 83.44,1.21 125.43,-1.37 41.93,-2.54 84,-7.16 126.05,-13.97 41.94,-6.79 83.79,-15.71 125.19,-26.69 41.35,-11.05 82.36,-24.16 122.72,-39.22 40.4,-15.28 80.12,-32.48 119.01,-51.56 77.87,-38.27 152.63,-84.25 222.17,-138.05 C 6012.28,6377.6 5961.65,5741.66 5928.03,5563 Z M 4823.69,7357.04 C 3977.74,7516.33 3162.78,6959.56 3003.52,6113.55 2844.31,5267.44 3401,4452.59 4247.04,4293.34 c 845.98,-159.36 1660.96,397.38 1820.2,1243.48 159.28,846 -397.46,1660.96 -1243.55,1820.22 z"
         transform="translate(0,-2.5000001e-4)"
         id="path21" />
    </clipPath>
  </defs>
  <g
     id="g1"
     transform="translate(-380.03273,-187.89899)">
    <g
       id="g21"
       transform="translate(-90.793065,21.297138)">
      <path
         id="path14"
         d="m 4268.08,4405 c -784.36,147.57 -1300.52,903.14 -1152.85,1687.48 147.65,784.36 903.1,1300.59 1687.49,1152.9 C 5587.09,7097.75 6103.22,6342.23 5955.6,5557.83 5807.91,4773.43 5052.43,4257.31 4268.08,4405"
         style="fill:url(#linearGradient17);fill-opacity:1;fill-rule:nonzero;stroke:none"
         transform="matrix(0.13333333,0,0,-0.13333333,73.979534,1151.1664)"
         clip-path="url(#clipPath17)" />
      <path
         id="path18"
         d="M 5928.03,5563 C 5783.22,4793.94 5042.32,4287.75 4273.26,4432.5 c -594.6,111.95 -1031.87,580.17 -1132.91,1142.28 7.68,-29.34 16.17,-58.36 25.68,-86.98 14.56,-44.15 31.3,-87.49 50.17,-129.63 18.8,-42.01 39.56,-83.12 62.19,-122.9 22.7,-39.68 47.31,-78.06 73.53,-114.9 26.2,-36.94 54.2,-72.27 83.63,-106.18 58.89,-67.5 123.84,-128.4 193.49,-182.08 69.67,-53.69 144.02,-99.99 221.7,-138.56 38.94,-19.18 78.59,-36.54 118.91,-51.75 40.3,-15.24 81.26,-28.42 122.63,-39.7 41.4,-11.06 83.28,-20 125.2,-26.9 41.96,-6.9 84.03,-11.57 126.02,-14.31 42.12,-2.63 83.87,-3.23 125.46,-1.72 41.5,1.52 82.52,5.07 122.9,10.55 40.4,5.48 80.68,12.89 120.33,22.33 39.65,9.35 78.86,20.6 117.33,33.81 38.38,13.19 76.08,28.31 112.76,45.06 36.65,16.75 72.39,35.32 106.84,55.52 34.52,20.2 67.86,42.02 99.77,65.16 32.01,23.35 62.66,48.01 91.69,74.01 58.38,51.96 110.79,109.2 156.8,170.3 46.09,61.1 85.68,126.27 118.32,194.08 16.23,33.89 30.86,68.51 43.63,103.54 12.8,35.21 23.75,70.84 32.99,106.66 9.14,35.84 16.52,72.17 21.97,108.41 5.5,36.43 9.19,72.86 11.02,109.11 1.83,36.23 1.83,72.48 0.06,108.15 -1.75,35.83 -5.45,73.74 -10.62,108.5 -5.31,34.77 -12.51,71.71 -21.21,105.82 -8.74,33.85 -19.03,67.39 -30.89,100.19 -11.88,32.82 -25.44,64.8 -40.46,95.96 -14.93,31.17 -31.42,61.36 -49.28,90.58 -17.8,29.04 -37.04,57.25 -57.31,84.09 -20.37,26.9 -41.99,52.64 -64.78,77.04 -45.24,48.93 -94.83,92.73 -147.82,130.68 -52.79,38.18 -108.72,70.54 -166.93,97.09 -28.92,13.21 -58.52,24.88 -88.4,35.03 -29.89,10.25 -60.18,18.82 -90.69,25.98 -30.46,7 -61.26,12.58 -91.97,16.4 -30.64,4 -61.39,6.49 -91.9,7.3 -30.53,0.81 -60.88,0.16 -90.99,-2.13 -29.94,-2.14 -59.59,-5.84 -88.72,-10.86 -29.08,-5.02 -57.89,-11.47 -86.22,-19.28 -28.27,-7.73 -56.16,-16.92 -83.33,-27.52 -27.19,-10.46 -53.58,-22.28 -79.32,-35.22 -25.69,-12.98 -50.56,-27.3 -74.5,-42.53 -23.95,-15.27 -46.89,-31.81 -68.85,-49.22 -22,-17.3 -42.94,-35.73 -62.75,-54.97 -39.69,-38.46 -74.95,-80.23 -105.41,-124.63 -30.46,-44.26 -56.03,-90.95 -76.51,-139.21 -20.51,-48.22 -36.11,-97.85 -46.36,-147.84 -5.12,-25.03 -8.97,-50.19 -11.5,-75.16 -2.65,-25.19 -3.86,-50.2 -3.86,-74.91 0,-24.92 1.16,-49.49 3.69,-73.78 2.35,-24.22 6.04,-48.16 10.81,-71.62 4.72,-23.6 10.62,-46.64 17.57,-69.27 6.95,-22.74 14.96,-44.86 24.09,-66.4 9.04,-21.6 19.19,-42.53 30.22,-62.71 10.99,-20.3 22.99,-39.69 35.82,-58.37 25.68,-37.55 54.7,-71.55 86.3,-102.01 31.48,-30.44 65.65,-57.24 101.44,-79.97 35.79,-22.74 73.31,-41.53 111.63,-56.13 38.38,-14.72 77.54,-25.17 116.62,-31.67 39.09,-6.3 78.22,-8.53 116.33,-6.8 19.02,0.71 37.92,2.54 56.49,5.26 18.62,2.66 36.73,6.2 54.61,10.77 35.71,8.94 69.83,21.32 101.6,36.64 31.91,15.43 61.5,33.7 88.48,54.4 26.93,20.71 51.05,43.76 72.2,68.31 21.3,24.77 39.46,51.26 54.58,78.47 14.99,27.41 26.92,55.63 35.65,84.14 8.72,28.42 14.21,57.05 16.69,85.36 2.43,28.22 1.83,55.94 -1.51,82.56 -3.42,26.81 -9.51,53.4 -17.98,77.87 -8.48,24.31 -19.32,47.81 -31.96,68.41 -12.74,20.45 -27.28,39.03 -43.04,55.36 -15.91,16.4 -33.04,30.5 -50.92,42.33 -18.02,11.82 -36.7,21.47 -55.62,28.73 -18.92,7.3 -37.95,12.13 -56.54,14.86 -18.71,2.59 -36.9,3 -54.2,1.48 -3.29,-0.3 -6.58,-0.71 -9.87,-1.22 -32.28,-2.95 -63.49,-18.02 -86.3,-44.51 -46.67,-54.16 -40.4,-135.81 13.8,-182.45 1.38,-1.16 2.81,-2.33 4.26,-3.5 l -0.54,0.14 c 50.65,-47.18 55.36,-126.15 9.9,-179.23 -21.49,-24.97 -50.4,-39.68 -80.59,-43.74 -4.99,-0.83 -10.06,-1.53 -15.28,-2.04 -17.25,-1.52 -35.47,-1.12 -54.05,1.63 -18.64,2.63 -37.64,7.6 -56.59,14.92 -18.89,7.2 -37.55,16.84 -55.42,28.82 -17.97,11.76 -35.08,26.07 -50.85,42.52 -15.8,16.25 -30.29,34.83 -42.88,55.43 -12.64,20.54 -23.5,43.18 -31.83,67.7 -8.52,24.36 -14.6,49.99 -18.11,76.78 -3.37,26.7 -4.01,54.46 -1.67,82.63 2.42,28.21 7.87,56.87 16.5,85.45 8.62,28.43 20.37,56.7 35.46,84.04 14.94,27.42 33.01,53.81 54.31,78.52 21.05,24.81 45.17,47.91 72.07,68.67 26.84,20.76 56.46,39.07 88.29,54.55 31.72,15.43 65.92,27.86 101.55,36.9 17.77,4.5 36.04,8.22 54.6,10.96 18.52,2.79 37.36,4.57 56.5,5.39 38.1,1.78 77.13,-0.35 116.32,-6.66 39.08,-6.29 78.24,-16.69 116.68,-31.26 38.32,-14.57 75.81,-33.19 111.68,-55.87 35.79,-22.59 70.05,-49.34 101.72,-79.73 31.67,-30.36 60.75,-64.35 86.48,-101.77 12.89,-18.6 24.9,-38.05 36.03,-58.31 11.09,-20.24 21.2,-41.15 30.36,-62.57 9.11,-21.62 17.27,-43.74 24.36,-66.28 6.85,-22.68 12.88,-47.5 17.78,-71.04 4.67,-23.34 8.31,-49.03 10.71,-73.39 2.34,-24.37 3.47,-48.97 3.45,-73.74 -0.05,-24.87 -1.38,-49.84 -3.97,-74.92 -2.7,-25.06 -6.6,-50.23 -11.78,-75.21 -10.34,-49.92 -25.97,-99.57 -46.59,-147.78 -20.64,-48.11 -46.55,-94.79 -76.95,-139.05 -30.62,-44.26 -65.98,-85.99 -105.68,-124.34 -19.94,-19.08 -40.88,-37.46 -62.88,-54.82 -22.02,-17.34 -45.06,-33.69 -69.04,-48.92 -23.96,-15.31 -48.9,-29.43 -74.58,-42.43 -25.76,-12.88 -52.21,-24.66 -79.4,-35.12 -27.16,-10.44 -55.06,-19.48 -83.35,-27.19 -28.36,-7.83 -57.17,-14.11 -86.33,-19.19 -29.04,-4.97 -58.81,-8.52 -88.75,-10.66 -30.06,-2.13 -60.37,-2.74 -90.89,-1.71 -30.62,0.8 -61.31,3.23 -92.01,7.3 -30.65,4.06 -61.31,9.64 -91.8,16.75 -60.97,14.31 -121.14,34.9 -179.09,61.51 -58.03,26.49 -113.96,59.07 -166.7,97.33 -52.66,38.16 -102.3,82.02 -147.42,130.95 -22.67,24.55 -44.26,50.22 -64.6,77.23 -20.28,26.91 -39.33,55.11 -57.14,84.34 -17.71,29.15 -34.15,59.5 -49.08,90.65 -14.88,31.27 -28.38,63.23 -40.19,96.13 -11.82,32.77 -22.04,66.27 -30.77,100.27 -8.52,34.01 -15.42,68.62 -20.76,103.32 -5.2,34.77 -8.87,70.14 -10.69,105.87 -1.89,35.79 -1.95,71.87 -0.17,108.15 1.76,36.33 5.34,72.62 10.67,109.01 5.47,36.29 12.81,72.58 21.78,108.46 9.11,35.93 20,71.56 32.77,106.77 12.7,35.08 27.11,69.74 43.39,103.59 32.41,67.96 71.83,133.16 117.82,194.48 45.76,61.16 98.1,118.44 156.28,170.66 29.14,25.99 59.65,50.75 91.51,74.2 31.93,23.24 65.22,45.07 99.58,65.42 34.5,20.2 70.11,38.88 106.76,55.78 36.65,16.88 74.3,32.03 112.74,45.26 38.46,13.3 77.59,24.77 117.27,34.17 39.69,9.48 79.93,16.99 120.25,22.53 40.37,5.58 81.5,9.28 122.9,10.81 41.5,1.72 83.44,1.21 125.43,-1.37 41.93,-2.54 84,-7.16 126.05,-13.97 41.94,-6.79 83.79,-15.71 125.19,-26.69 41.35,-11.05 82.36,-24.16 122.72,-39.22 40.4,-15.28 80.12,-32.48 119.01,-51.56 77.87,-38.27 152.63,-84.25 222.17,-138.05 C 6012.28,6377.6 5961.65,5741.66 5928.03,5563 Z M 4823.69,7357.04 C 3977.74,7516.33 3162.78,6959.56 3003.52,6113.55 2844.31,5267.44 3401,4452.59 4247.04,4293.34 c 845.98,-159.36 1660.96,397.38 1820.2,1243.48 159.28,846 -397.46,1660.96 -1243.55,1820.22"
         style="fill:url(#linearGradient21);fill-opacity:1;fill-rule:nonzero;stroke:none"
         transform="matrix(0.13333333,0,0,-0.13333333,73.979534,1151.1664)"
         clip-path="url(#clipPath21)" />
    </g>
  </g>
</svg>
