<svg version="1.1" id="Layer_1" xmlns:x="ns_extend;" xmlns:i="ns_ai;" xmlns:graph="ns_graphs;" xmlns="http://www.w3.org/2000/svg" xmlns:xlink="http://www.w3.org/1999/xlink" x="0px" y="0px" viewBox="0 0 76.8 65" style="enable-background:new 0 0 76.8 65;" xml:space="preserve">
 <style type="text/css">
  .st0{fill-rule:evenodd;clip-rule:evenodd;}
 </style>
 <metadata>
  <sfw xmlns="ns_sfw;">
   <slices>
   </slices>
   <sliceSourceBounds bottomLeftOrigin="true" height="65" width="76.8" x="248.9" y="-138.9">
   </sliceSourceBounds>
  </sfw>
 </metadata>
 <path class="st0" d="M25.3,4.8L0,13v23.5l25.3-8.2c2-0.6,4.1-0.6,6.1,0.1l9.3,3.2c2,0.7,4.1,0.7,6.1,0.1l29.9-8.2V0L46.8,8.2
	c-2,0.6-4.1,0.6-6.1-0.1l-9.3-3.2C29.5,4.3,27.3,4.2,25.3,4.8z M25.3,33.3L0,41.5V65l25.3-8.2c2-0.6,4.1-0.6,6.1,0.1l9.3,3.2
	c2,0.7,4.1,0.7,6.1,0.1L76.8,52V28.5l-29.9,8.2c-2,0.6-4.1,0.6-6.1-0.1l-9.3-3.2C29.5,32.8,27.3,32.7,25.3,33.3z">
 </path>
</svg>