<svg xmlns="http://www.w3.org/2000/svg" fill="none" class="trusty" viewBox="0 0 72 72"><g clip-path="url(#a)"><path fill="#00CFEC" fill-rule="evenodd" d="M0 0v72h18.955c.66-7.15 1.46-10.01 5.238-17.43 4.3-8.44 5.619-14.86 5.619-23.18l.001-.317c.007-.876.016-2.168-.311-2.903-1.7.17-4.129-.58-5.569-2.31-1.22-1.48-2.05-3.37-2.05-4.56 0-.26.03-.45.19-.61 1.59-.44 4.71.27 6.829 1.26.87-1.42 1.63-2.34 3.519-3.38-1.72-3.65-4.839-6.09-9.537-6.09-5.429 0-8.988 3.05-10.148 6-.35.9.13 1.09.71.51 2.34-2.38 4.819-3.56 8.058-3.56 3.979 0 6.318 2.5 6.318 3.56 0 .35-.26.35-.61.22l-.048-.016c-1.26-.413-2.388-.784-4.54-.784-5.999 0-8.758 5.62-8.758 10.4 0 2.63.93 4.56 2.76 4.56 1.409 0 2.219-.9 2.919-2.34.22-.45.58-.45.87.03.39.64.48 1.73.48 2.57 0 3.79-2.79 5.78-6 5.78-5.997 0-9.656-5.33-9.656-12.26 0-9.37 5.908-19.23 17.905-19.23 8.637 0 13.126 4.61 15.515 9.18h1.27c1.73-4.11 4.849-6.55 9.497-6.55 6.198 0 8.758 4.82 8.758 10.56 0 1.57-.165 3.08-.323 4.527-.147 1.336-.287 2.62-.287 3.853 0 1.89.8 4.01 2.95 4.01 1.379 0 2.538-.9 3.108-3.05.16-.58.51-.67 1-.06.32.39.77 1.32.77 2.41 0 3.02-1.96 6.2-5.879 6.23-3.339.03-5.358-1.8-5.778-4.11-.06-.39.29-.58.51-.26 1.22 1.61 2.79 2.47 5.008 2.47 1.25 0 2.5-.55 2.92-1.48.13-.29.03-.45-.19-.35-.77.35-1.44.48-2.18.48-5.138 0-5.778-5.23-6.128-10.53-.48 1.38-1.41 2.57-3.819 2.79.22-.35.39-.93.39-1.35 0-.42-.22-.71-.74-.71-.77 0-1.44.58-1.44 1.51 0 .934.688 1.916 1.4 2.931.583.833 1.182 1.69 1.43 2.559.16.58.16 1.09.16 1.73 0 1.12-.13 2.22-.29 2.76-.13.42-.42.55-1.25.55-.58 0-.77-.19-.9-.67-.06-.26-.16-.58-.35-.58-.209 0-.282.236-.375.535l-.014.045c-.19.67-.77.8-2.15.8-.537 0-.89-.027-1.12-.045h-.001a3.798 3.798 0 0 0-.258-.015c-.35 0-.48.13-.48.32 0 .26.03.51.1.74.06.19.19.26.58.19 1.28-.19 2.409-.22 3.269-.22 2.34 0 2.469.22 2.28 1.03-.16.71-.42 1.64-.8 2.47-.26.55-.45.61-.83.64-.77.06-1.8.1-2.57.06-1.397-.066-2.623-.509-3.788-.93-1.136-.41-2.215-.8-3.34-.8-.61 0-1.166.083-1.737.168-.6.09-1.215.182-1.922.182-1.38 0-2.36-.29-3.299-.96-1.36 5.2-1.86 11.55-1.86 14.47 0 2.02.58 4.21 1.61 5.04.35.29.67.29.93-.19 2.507-4.664 5.22-6.272 7.789-7.794 2.397-1.421 4.669-2.767 6.527-6.456.19-.35.58-.29.64.13.64 3.79.22 8.38-.61 12.78-.1.51.26.71.61.26 1.06-1.35 2.44-3.79 2.949-5.75.13-.48.51-.51.71-.03 1.25 3.05 2.66 8.83 3.079 13 .03.45.45.48.61.06.9-2.5 1.48-6.65.8-9.7-.06-.35.13-.55.51-.35C61.692 59.16 67.12 64.14 72 71.98V0H0Zm23.134 65.1c-.97 2.1-1.7 4.42-1.88 6.9h3.14c-.49-2.47-.55-4.86-.55-6.9 0-.67-.32-.87-.71 0Zm22.593-29.79c-.74.06-1.06-.23-1.06-1.19h.01c0-.32.26-.74.74-.74.228 0 .495.03.815.067.479.055 1.077.123 1.845.123.25 0 .49-.037.74-.075.27-.042.552-.085.87-.085.35 0 .51.23.51.74 0 .71-.07 1.13-.55 1.16-.74.03-.9.16-1.06.77-.1.29-.42.35-.58.03-.39-.8-1.06-.9-2.28-.8ZM38.44 26c-.55-.8-2.12-1.8-3.689-1.77-1.44-.03-2.339.93-2.339 1.7 0 .19.13.32.32.19.29-.16.48-.22.71-.22.26.83 1 1.89 2.439 1.89 1.09 0 1.96-.51 1.8-1.67.26 0 .42.03.64.1.13.03.19-.13.13-.22h-.01Zm10.757-7.55c2.15 0 3.53 1.73 4.17 3.82-1.74-.29-2.7-.29-3.79.96-.61-1.76-2.02-3.14-3.239-3.72.39-.45 1.25-1.06 2.86-1.06Z" clip-rule="evenodd"/></g><defs><clipPath id="a"><path fill="#fff" d="M0 0h72v72H0z"/></clipPath></defs></svg>