<svg xmlns="http://www.w3.org/2000/svg" data-name="Ebene 1" viewBox="0 0 1300 530"><path d="M502.91 117v73.61H485.5V117h-23.28v-15.48h64V117Zm38.93 73.61v-89.09h58.71V117h-41.31v20.91h35.18v15.52h-35.18v21.66h41.31v15.52Zm128.69-6.51q-8.89 7.26-21.66 7.26a32.67 32.67 0 0 1-24-9.77 26.25 26.25 0 0 1-7.26-13.4q-1.51-7.51-1.5-22.16t1.5-22.22a25.58 25.58 0 0 1 7.26-13.33 32.67 32.67 0 0 1 24-9.77q12.89 0 21.72 7.26t11.08 20.9H664a17.93 17.93 0 0 0-5.07-9.2q-3.69-3.44-10-3.44-7.14 0-11.14 4.63a12.66 12.66 0 0 0-2.19 3.26 17.18 17.18 0 0 0-1.25 4.38 66.65 66.65 0 0 0-.69 6.76q-.25 4.13-.25 10.77t.25 10.77a66.58 66.58 0 0 0 .69 6.76 17.18 17.18 0 0 0 1.25 4.38 12.64 12.64 0 0 0 2.19 3.25q4 4.63 11.14 4.63 6.26 0 10-3.44a17.93 17.93 0 0 0 5.07-9.2h17.65q-2.23 13.7-11.12 20.96Zm75.24 6.51v-37.26H715.6v37.31h-17.4v-89.14h17.4v36.43h30.17v-36.43h17.4v89.13Zm92.39 0-35.3-54.71v54.71h-17.4v-89.09H801l35.3 54.58v-54.58h17.4v89.13Zm37.81 0v-89.09h17.4v89.13Zm88-6.45q-9.26 7.2-23.79 7.2a56.42 56.42 0 0 1-18.34-2.69 37.06 37.06 0 0 1-14.21-9.08l11.27-11.27a23.23 23.23 0 0 0 9.45 5.76 39.27 39.27 0 0 0 12.08 1.75q15.77 0 15.77-11a10.2 10.2 0 0 0-2.38-7.2q-2.38-2.57-8.26-3.44l-5-.75-5.76-.75q-11.39-1.63-17.28-7.39-6.39-6.38-6.39-17.52 0-12.14 8.39-19.59t22.66-7.45a48.75 48.75 0 0 1 16.27 2.44 34.18 34.18 0 0 1 12.55 7.98L960 122a19.21 19.21 0 0 0-8.32-4.88 37.59 37.59 0 0 0-10-1.25q-6.64 0-10.2 3.19a10.37 10.37 0 0 0-3.57 8.07 8.83 8.83 0 0 0 2.76 6.32q2.75 2.82 8.14 3.57l5.38.75 5.13.75a44.89 44.89 0 0 1 10.08 2.5 21.45 21.45 0 0 1 6.95 4.38q6.88 6.51 6.88 18.9 0 12.7-9.23 19.91Zm78.62-.06q-8.89 7.26-21.66 7.26a32.67 32.67 0 0 1-24-9.77 26.25 26.25 0 0 1-7.26-13.4q-1.5-7.51-1.5-22.16t1.5-22.22a25.58 25.58 0 0 1 7.26-13.33 32.67 32.67 0 0 1 24-9.77q12.89 0 21.72 7.26t11.08 20.9h-17.65a17.93 17.93 0 0 0-5.07-9.2q-3.69-3.44-10-3.44-7.14 0-11.14 4.63a12.67 12.67 0 0 0-2.19 3.26 17.19 17.19 0 0 0-1.25 4.38 66.63 66.63 0 0 0-.69 6.76q-.25 4.13-.25 10.77t.25 10.77a66.56 66.56 0 0 0 .69 6.76 17.18 17.18 0 0 0 1.25 4.38 12.65 12.65 0 0 0 2.19 3.25q4 4.63 11.14 4.63 6.26 0 10-3.44a17.92 17.92 0 0 0 5.07-9.2h17.65q-2.26 13.7-11.15 20.96Zm75.24 6.51v-37.26h-30.17v37.31h-17.4v-89.14h17.4v36.43h30.17v-36.43h17.4v89.13Zm39.68 0v-89.09h58.71V117h-41.32v20.91h35.18v15.52h-35.18v21.66h41.31v15.52ZM525.24 291.85a29.51 29.51 0 0 1-7 10 30.61 30.61 0 0 1-10.51 6.39 38.29 38.29 0 0 1-25.54 0 30.61 30.61 0 0 1-10.52-6.39 29.46 29.46 0 0 1-7-10 31.68 31.68 0 0 1-2.5-12.77v-58.59h17.4v58q0 7.64 4.19 12t11.2 4.38q7.13 0 11.33-4.38t4.19-12v-58h17.28v58.59a31.68 31.68 0 0 1-2.52 12.77Zm75.11 17.78-35.3-54.71v54.71h-17.4v-89.14h15.52l35.3 54.58v-54.58h17.4v89.13Zm36.81 0v-89.14h17.4v89.13Zm71.1 0h-13l-29.42-89.13h18l17.9 58.09 17.9-58.09h18.15Zm40.81 0v-89.14h58.71V236h-41.31v20.91h35.18v15.52h-35.18v21.67h41.31v15.52Zm123.56 0-17.4-35.55h-12.52v35.55h-17.4v-89.14h34.93a33 33 0 0 1 12.08 2.13 26.42 26.42 0 0 1 9.2 5.89 25.22 25.22 0 0 1 5.7 8.7 28.73 28.73 0 0 1 1.94 10.58q0 8.89-4.63 14.9a25.09 25.09 0 0 1-11.64 8.51l19.91 38.43Zm-4.38-70.36a12.9 12.9 0 0 0-9.14-3.25h-16.4v23.54h16.4a12.88 12.88 0 0 0 9.14-3.26 12.09 12.09 0 0 0 0-17ZM956 303.18q-9.26 7.2-23.79 7.2a56.42 56.42 0 0 1-18.34-2.69 37.06 37.06 0 0 1-14.21-9.08l11.27-11.27a23.23 23.23 0 0 0 9.45 5.76 39.29 39.29 0 0 0 12.08 1.75q15.77 0 15.77-11 0-4.63-2.38-7.2t-8.26-3.44l-5-.75-5.76-.75q-11.39-1.63-17.28-7.39-6.39-6.38-6.39-17.52 0-12.14 8.39-19.59t22.66-7.45a48.75 48.75 0 0 1 16.27 2.44 34.18 34.18 0 0 1 12.52 7.93L952 241a19.21 19.21 0 0 0-8.32-4.88 37.6 37.6 0 0 0-10-1.25q-6.64 0-10.2 3.19a10.37 10.37 0 0 0-3.57 8.07 8.83 8.83 0 0 0 2.76 6.32q2.75 2.82 8.14 3.57l5.38.75 5.13.75a44.89 44.89 0 0 1 10.08 2.5 21.45 21.45 0 0 1 6.95 4.38q6.88 6.51 6.88 18.9.04 12.7-9.23 19.88Zm26.17 6.45v-89.14h17.4v89.13ZM1054.9 236v73.61h-17.4V236h-23.28v-15.51h64V236Zm81.1 73.62-5.26-15.77h-31.67l-5.38 15.77h-18.15l32.46-89.13h13.64l32.55 89.13Zm-20.78-62.84L1104 279.2h22.16Zm-28.4-42.56h15.34v15.67h-15.34v-15.67Zm41.87 0v15.67h15.35v-15.67Zm63.54 31.78v73.61h-17.4V236h-23.28v-15.51h64V236ZM525.35 406.44a26.37 26.37 0 0 1-7.45 13.65 27 27 0 0 1-10.33 6.38 39.65 39.65 0 0 1-13.21 2.13H462.2v-89.14h32.17a39.71 39.71 0 0 1 13.21 2.13A27 27 0 0 1 517.9 348a24.91 24.91 0 0 1 4.94 6.51 30 30 0 0 1 2.69 7.7 59.41 59.41 0 0 1 1.13 9q.25 4.82.25 12.46.01 15.01-1.56 22.77Zm-16.52-38.25a15.24 15.24 0 0 0-3.07-7.7q-4.51-5.51-13-5.51H479.6v58.09h13.14q8.51 0 13-5.51a15.55 15.55 0 0 0 3.07-7.95 132.05 132.05 0 0 0 .69-16 122.6 122.6 0 0 0-.67-15.42Zm83.68 60.4L575.11 393h-12.52v35.6h-17.4v-89.14h34.93a33 33 0 0 1 12.08 2.13 26.43 26.43 0 0 1 9.2 5.89 25.22 25.22 0 0 1 5.7 8.7 28.73 28.73 0 0 1 1.9 10.58q0 8.89-4.63 14.9a25.09 25.09 0 0 1-11.64 8.51l19.91 38.43Zm-4.38-70.36A12.9 12.9 0 0 0 579 355h-16.4v23.54H579a12.88 12.88 0 0 0 9.14-3.26 12.09 12.09 0 0 0 0-17Zm39.43 70.36v-89.13h58.71V355H645v20.91h35.18v15.52H645v21.66h41.31v15.51Zm124.56-6.45q-9.26 7.2-23.79 7.2a56.42 56.42 0 0 1-18.33-2.68 37.06 37.06 0 0 1-14.21-9.08l11.27-11.27a23.22 23.22 0 0 0 9.45 5.76 39.27 39.27 0 0 0 12.08 1.75q15.77 0 15.77-11 0-4.63-2.38-7.2t-8.26-3.44l-5-.75-5.76-.75q-11.39-1.63-17.28-7.39-6.39-6.38-6.39-17.52 0-12.14 8.39-19.59t22.66-7.45a48.75 48.75 0 0 1 16.27 2.44 34.17 34.17 0 0 1 12.52 7.95l-11 10.89a19.21 19.21 0 0 0-8.32-4.88 37.59 37.59 0 0 0-10-1.25q-6.64 0-10.2 3.19a10.37 10.37 0 0 0-3.57 8.07 8.83 8.83 0 0 0 2.76 6.32q2.75 2.82 8.14 3.57l5.38.75 5.13.75a44.89 44.89 0 0 1 10.08 2.5 21.45 21.45 0 0 1 6.95 4.38q6.88 6.51 6.88 18.9.03 12.69-9.24 19.84Zm89.32-15.71a26.37 26.37 0 0 1-7.44 13.65 27 27 0 0 1-10.33 6.38 39.65 39.65 0 0 1-13.21 2.13h-32.17v-89.13h32.17a39.71 39.71 0 0 1 13.21 2.13A27 27 0 0 1 834 348a24.91 24.91 0 0 1 4.94 6.51 30 30 0 0 1 2.69 7.7 59.42 59.42 0 0 1 1.13 9q.25 4.82.25 12.46-.01 15.01-1.57 22.77Zm-16.52-38.25a15.24 15.24 0 0 0-3.07-7.7q-4.51-5.51-13-5.51h-13.16v58.09h13.14q8.51 0 13-5.51a15.55 15.55 0 0 0 3.07-7.95 132.05 132.05 0 0 0 .69-16 122.6 122.6 0 0 0-.67-15.41Zm36.37 60.4v-89.12H920V355h-41.31v20.91h35.18v15.52h-35.18v21.66H920v15.51Zm128.94 0-35.3-54.71v54.73h-17.4v-89.14H953L988.35 394v-54.54h17.4v89.14Zm-743.12-.29h64.57l98.77-99.09V200.71l-98.77-99.09h-64.57v9.91h60.42l93 93v120.84l-93 93h-60.42ZM83.77 200.71v128.5l99.09 99.09h64.25v-9.91h-60.42l-93-93V204.54l93-93h60.42v-9.91h-64.25l-99.09 99.08Zm306.86 19.82v-12.15l-86.94-86.95h-56.58v9.91h52.74l79.27 79.27H282V314.5h-34.89v9.91h44.75V220.53Zm-143.52-99.1h-56.58l-86.95 86.95v12.15h99.09v103.89h44.43v-9.92h-34.52V210.62h-97.17l79.28-79.27h52.42ZM381 240.34h-69.32v103.89h-64.57v-9.91h54.66V230.44h88.86v91.1l-86.94 86.95h-56.58v-9.91h52.74l80.87-80.88.32-77.36ZM247.11 344.23h-64.25V240.34h-69.37v77.36l81.19 80.88h52.42v9.91h-56.57l-86.95-86.95v-91.1h89.18v103.88h54.34Z" style="fill:#00305d"/></svg>