<svg xmlns="http://www.w3.org/2000/svg" viewBox="0 0 500 500">
  <path fill="#dae64a" d="M485.31 165.563v.602L348.796 350.316a34.424 34.424 0 0 1-29.5 15.804h-133.88c-17.836 0-25.362-4.967-32.812-23.706l-40.563-130.72a36.301 36.301 0 0 1 2.86-34.767L250.36 0h-1.129C112.38.421 0 113.14 0 250c0 137.146 112.854 250 250 250 137.146 0 250-112.854 250-250a249.94 249.94 0 0 0-14.69-84.437Z"/>
  <path d="m112.041 211.695 40.563 130.72c7.526 18.738 15.051 23.705 32.811 23.705h133.88a34.424 34.424 0 0 0 29.501-15.804L485.31 166.165v-.602C449.82 66.85 355.863.474 250.963 0l-135.46 176.927a36.295 36.295 0 0 0-3.462 34.768Zm55.388-44.702h165.563v53.883h-55.388v91.662h-53.808v-91.662h-56.367v-53.883Z"/>
</svg>
