<svg xmlns="http://www.w3.org/2000/svg" viewBox="0 0 428.57 500">
  <path fill="#9146ff" d="M89.107 0H428.57v250.178a202961.823 202961.823 0 0 0-160.535 160.446l-71.607.179a63286.443 63286.443 0 0 0-89.107 89.196h-.178v-89.286H0V89.107A31425.37 31425.37 0 0 0 89.107 0Z"/>
  <path fill="#fefffe" d="M107.143 35.714h285.713c.03 65.476 0 130.952-.09 196.428l-71.338 71.34c-23.87.058-47.738.119-71.607.178l-62.232 62.232c-.09-20.773-.12-41.548-.09-62.321h-80.356V35.714Z"/>
  <path fill="#9146ff" d="M205.357 98.214h35.714v107.143h-35.714V98.214Zm98.213 0h35.715v107.143H303.57V98.214Z"/>
</svg>
