<svg xmlns="http://www.w3.org/2000/svg" viewBox="0 0 78 167"><path fill="#2C4399" d="M0 0h78v167H0V0Z"/><path fill="#F8F9FB" d="M0 0h78v167H0V0Zm68.875 4.5-3.32 1.969L63 8c2.647 1.46 3.894 2 7 2-.062 12.398-.14 24.795-.236 37.193-.044 5.759-.083 11.518-.11 17.277a3980.46 3980.46 0 0 1-.117 16.729c-.017 2.108-.028 4.217-.035 6.326-.163 49.652-.163 49.652-16.006 66.03-6.368 5.62-12.275 6.974-20.496 7.445v-2l2.625-.25C43.452 157.01 48.293 151.176 53 145c7.956-12.529 9.169-27.1 9.114-41.569v-3.077c0-3.328-.008-6.655-.016-9.983l-.005-6.956c-.003-6.081-.013-12.162-.024-18.243-.01-6.215-.015-12.429-.02-18.643C62.039 34.353 62.02 22.176 62 10c-3.345.619-5.897 1.29-8.813 3.063L50 15v2l6 1c-.108 11.38-.22 22.76-.34 34.139-.054 5.285-.108 10.57-.157 15.855-.048 5.11-.1 10.22-.156 15.328-.02 1.94-.039 3.88-.056 5.821-.403 45.014-.403 45.014-11.978 56.537-1.548 1.246-1.548 1.246-1.313 3.32-6.053 3.138-11.23 4.44-18 5v-2l2.563-.125c6.594-1.679 10.176-6.11 13.687-11.75 8.577-15.352 8.033-31.487 7.945-48.613l-.008-6.469a6502.02 6502.02 0 0 0-.05-16.901c-.02-5.766-.03-11.53-.04-17.296C48.078 39.564 48.043 28.282 48 17c-4.59 1.427-8.076 3.197-12 6l1 2h4a8435.367 8435.367 0 0 1-.184 34.766c-.04 5.382-.071 10.765-.087 16.148-.015 5.206-.05 10.413-.097 15.62a844.41 844.41 0 0 0-.024 5.921c-.013 14.688-.103 32.46-10.1 44.315-4.402 4.33-8.432 5.202-14.508 5.23v-2l2.188-.188c5.287-1.527 7.819-5.573 10.5-10.125 6.855-13.022 5.45-28.413 5.41-42.695l-.005-5.809c-.003-5.066-.013-10.133-.024-15.2-.01-5.182-.015-10.364-.02-15.546C34.039 45.293 34.02 35.147 34 25c-4.414.611-7.714 2.26-11.613 4.379l-1.862 1.005c-1.95 1.053-3.893 2.116-5.837 3.178a4966.65 4966.65 0 0 1-3.979 2.155C7.469 37.47 4.233 39.233 1 41 .954 51.893.918 62.785.896 73.678.886 78.737.872 83.795.85 88.854c-.022 4.89-.034 9.778-.039 14.667-.003 1.858-.01 3.716-.021 5.574C-.087 128.34-.087 128.34 8 145c1.322.374 2.656.713 4 1 1.063 1.875 1.063 1.875 2 4 1.354 1.772 1.354 1.772 3 3h3l.625 2.25c1.796 3.593 3.972 4.681 7.375 6.75l2.316 2.082C35.141 167.53 40.323 166.832 46 166c9.71-3.262 16.762-10.353 21.785-19.113 3.456-7.09 5.672-14.174 7.215-21.887l.553-2.76c2.06-12.161 1.698-24.375 1.642-36.67l-.008-7.338a8384.1 8384.1 0 0 0-.05-19.185c-.02-6.543-.03-13.086-.04-19.629C77.078 26.612 77.044 13.806 77 1c-3.216 0-5.4 1.877-8.125 3.5Z"/><path fill="#EFF1F7" d="m49 15 1 2c3.03.658 3.03.658 6 1 .023 11.38.041 22.76.052 34.139.005 5.285.012 10.57.023 15.855.011 5.11.017 10.219.02 15.328.002 1.94.005 3.88.01 5.821.122 45.185.122 45.185-14.105 59.857-4.633 3.404-7.938 5.146-13.688 5.063l-2.449-.028L24 154v-2l1.723-.559C32.638 148.844 36.053 145.143 40 139l1.215-1.766c7.822-13.105 6.19-31.733 6.078-46.332a4355.358 4355.358 0 0 0-.087-23.499c-.03-5.799-.044-11.598-.06-17.397C47.115 38.67 47.063 27.336 47 16l2-1Z"/><path fill="#F9FAFC" d="m34 23 7 2c.093 11.589.164 23.177.207 34.766.021 5.383.05 10.765.095 16.148.044 5.206.067 10.413.078 15.62.007 1.973.021 3.948.043 5.921.158 14.943.044 32.535-10.138 44.572-3.589 3.59-6.112 5.402-11.285 5.41a64.687 64.687 0 0 1-4-.437v-2l3.125-.875c5.366-2.314 7.494-7.037 9.875-12.125 3.733-9.397 4.164-19.187 4.098-29.198l-.005-2.6c-.004-1.842-.01-3.684-.018-5.526-.013-2.912-.02-5.824-.024-8.736-.011-6.168-.03-12.335-.051-18.502-.024-7.18-.044-14.36-.056-21.54-.006-2.875-.019-5.75-.032-8.624l-.01-5.241-.015-2.435c0-1.866.05-3.733.113-5.598l1-1Z"/><path fill="#CDD2E6" d="m34 23 3 1-2 1v76h-1c-.154-10.022-.302-20.044-.443-30.067-.066-4.653-.133-9.306-.205-13.96-.07-4.486-.134-8.973-.195-13.46-.024-1.716-.05-3.432-.078-5.147-.038-2.395-.07-4.79-.1-7.184l-.04-2.171c-.018-1.67.016-3.341.061-5.011l1-1Z"/></svg>