<?xml version="1.0" standalone="no"?>
<!DOCTYPE svg PUBLIC "-//W3C//DTD SVG 20010904//EN"
 "http://www.w3.org/TR/2001/REC-SVG-20010904/DTD/svg10.dtd">
<svg version="1.0" xmlns="http://www.w3.org/2000/svg"
 width="2109.000000pt" height="2106.000000pt" viewBox="0 0 2109.000000 2106.000000"
 preserveAspectRatio="xMidYMid meet">

<g transform="translate(0.000000,2106.000000) scale(0.100000,-0.100000)"
fill="#000000" stroke="none">
<path d="M130 10535 l0 -10405 10405 0 10405 0 0 10405 0 10405 -10405 0
-10405 0 0 -10405z m13497 2783 c-2 -2334 -6 -4256 -10 -4273 -3 -16 -8 -109
-12 -205 -7 -200 -38 -656 -60 -870 -171 -1668 -582 -2770 -1295 -3480 -234
-233 -432 -370 -785 -545 -388 -193 -674 -263 -1030 -252 -295 9 -487 65 -682
199 -91 63 -215 192 -273 285 -38 60 -50 72 -79 78 -52 10 -158 54 -231 96
-147 85 -259 204 -327 346 l-35 72 -66 20 c-109 34 -208 95 -297 185 -92 92
-147 171 -211 304 -38 78 -48 92 -69 92 -39 0 -190 55 -252 91 -71 42 -197
165 -250 244 -218 325 -330 805 -395 1695 -8 109 -12 1139 -15 3472 l-4 3318
1500 750 c825 412 1502 746 1504 742 2 -4 3 -1557 2 -3452 -2 -2405 -6 -3528
-14 -3720 -25 -602 -73 -1049 -142 -1325 -35 -138 -135 -426 -198 -570 -195
-444 -480 -793 -833 -1019 -197 -126 -506 -236 -661 -236 -69 0 -30 -18 96
-44 416 -87 748 -47 1018 123 393 247 684 634 869 1156 93 263 159 663 195
1180 37 540 38 604 42 4288 l4 3627 -182 0 c-105 0 -179 4 -174 9 6 5 215 115
465 246 250 130 497 260 548 287 l93 50 -4 -3934 c-3 -2868 -7 -3989 -16
-4138 -43 -744 -115 -1184 -276 -1665 -191 -576 -445 -1008 -745 -1272 -287
-252 -680 -417 -1152 -485 -49 -6 -85 -15 -80 -19 4 -4 59 -17 122 -28 354
-61 669 -41 927 59 176 67 412 231 580 402 157 160 248 281 371 495 215 376
418 1006 516 1603 67 401 97 749 122 1385 7 188 14 7542 7 7561 -3 7 -70 16
-179 24 -96 7 -171 17 -167 21 6 6 962 540 1074 600 19 10 19 -78 18 -3873 -1
-2136 -5 -3966 -10 -4068 -53 -1236 -211 -2126 -524 -2950 -293 -774 -880
-1397 -1548 -1644 -191 -71 -438 -122 -615 -127 -40 -1 -69 -5 -65 -9 8 -7
267 -60 403 -82 120 -20 438 -17 540 5 170 37 303 97 492 223 508 340 962 931
1248 1626 266 646 408 1527 436 2703 3 132 8 265 11 295 3 30 7 1804 10 3941
l5 3887 -99 22 c-54 12 -138 32 -187 44 l-88 22 553 326 c305 180 558 327 562
327 4 1 6 -1908 4 -4241z"/>
</g>
</svg>
