<svg xmlns="http://www.w3.org/2000/svg" xml:space="preserve" viewBox="0 0 89.979 102.649"><path d="M58.476 150.22c-5.481-2.473-12.438-6.663-16.825-10.135-3.059-2.42-8.595-7.912-11.03-10.942-1.17-1.456-2.945-3.896-3.945-5.424-2.253-3.445-5.604-10.099-6.88-13.663-1.216-3.395-2.758-9.606-3.108-12.524-.164-1.364-.27-11.342-.27-25.466V48.84h89.98l-.082 24.408c-.08 24.304-.084 24.42-.69 27.297-2.802 13.3-8.857 24.42-18.528 34.03-6.15 6.113-11.682 10.043-20.012 14.218-3.11 1.558-5.646 2.74-5.787 2.695-.019-.006-1.29-.577-2.823-1.27zm.585-8.789c1.011-.735 1.981-1.392 2.156-1.459.175-.067 1.229.535 2.342 1.337 1.113.803 2.084 1.46 2.16 1.46.074 0-.154-.923-.507-2.051a108.669 108.669 0 0 1-.784-2.58c-.113-.424.293-.843 2.052-2.116l2.193-1.588-2.804-.075-2.804-.074-.768-2.502c-.422-1.376-.84-2.504-.929-2.505-.089-.002-.494 1.124-.901 2.502l-.74 2.505-2.793.075-2.794.074 1.975 1.437c1.086.79 2.078 1.524 2.203 1.63.181.154-.48 2.566-1.353 4.937-.21.57.2.372 2.096-1.007zm6.086-16.563c.604-.546.624-1.615.042-2.257-.414-.458-.41-.512.066-.87 1.769-1.332 5.024-1.559 7.255-.505 5.257 2.482 8.245 2.518 12.901.157l1.922-.974-.07-9.79c-.064-9.081-.102-9.796-.532-9.879-.434-.083-.463.512-.463 9.549v9.637l-1.786.822c-3.896 1.794-6.257 1.77-10.662-.111-2.705-1.155-2.966-1.215-4.797-1.11-2.305.134-3.777.773-5.652 2.453l-1.312 1.176 1.257.012c1.076.01 1.256.087 1.256.54 0 .5-.176.53-3.175.53-2.998 0-3.175-.03-3.175-.53 0-.453.18-.53 1.257-.54l1.257-.01-1.19-1.085c-1.847-1.68-4.006-2.597-6.12-2.598-1.492 0-2.168.178-4.525 1.19-4.307 1.85-6.71 1.87-10.589.083l-1.786-.822v-9.637c0-9.037-.028-9.632-.463-9.549-.43.083-.468.799-.532 9.903l-.07 9.813 1.525.809c4.628 2.453 8.041 2.443 13.299-.04 1.942-.916 4.094-.936 5.987-.055 1.573.733 1.83 1.03 1.286 1.483-.524.434-.5 1.557.044 2.16.38.419.877.483 3.75.483 2.71 0 3.399-.08 3.795-.438zm-5.112-5.21c-1.968-1.69-5.368-2.668-8.037-2.312-.73.097-2.487.685-3.902 1.306-3.24 1.42-5.237 1.575-7.8.603l-1.653-.628v-9.493c0-5.22-.05-9.493-.11-9.493-.061 0-.3.073-.53.161-.37.142-.418 1.25-.418 9.75v9.59l1.786.805c3.284 1.481 5.407 1.367 9.658-.52 2.063-.915 2.64-1.058 4.268-1.055 2.29.005 4.243.688 6.116 2.14 1.238.96 1.329.99 1.416.467.062-.378-.196-.807-.794-1.321zm6.079-.716c1.014-.382 2.112-.567 3.383-.57 1.628-.003 2.206.14 4.269 1.055 4.25 1.887 6.373 2.001 9.658.52l1.786-.805v-9.618c0-5.29-.05-9.618-.11-9.618-.062 0-.3-.072-.53-.16-.377-.145-.419.775-.419 9.227 0 7.19-.077 9.453-.33 9.662-.182.15-1.102.532-2.045.85-2.278.765-3.825.563-7.414-.972-2.517-1.077-2.978-1.189-4.895-1.19-3.456-.004-7.292 1.84-7.496 3.602l-.087.756 1.364-1.086c.75-.598 2.04-1.342 2.866-1.653zm-20.063-.654c.51-.183 1.82-.729 2.91-1.212 1.778-.787 2.235-.878 4.367-.87 2.567.009 4.454.554 6.341 1.836.527.357 1.014.65 1.082.65.068 0 .093-4.317.054-9.592l-.07-9.59-2.38-1.185c-2.333-1.16-2.433-1.183-4.895-1.163-2.251.017-2.79.125-5.16 1.033-2.49.953-2.821 1.014-5.622 1.024l-2.976.01v18.605l.727.286c2.135.838 3.637.884 5.623.168zm34.529.388a20.188 20.188 0 0 0 1.786-.56l.727-.282V99.209l-2.844.018c-2.666.016-3.027-.048-5.755-1.026-2.506-.898-3.222-1.044-5.16-1.051-1.844-.007-2.59.124-4.154.73-1.048.407-2.21.979-2.58 1.27l-.674.53v18.955l2.051-1.045c3.777-1.924 6.773-1.97 10.636-.161 1.37.641 3.45 1.296 4.776 1.503.073.012.609-.104 1.19-.256zM47.346 91.704c-.42-1.31-.765-2.532-.765-2.716 0-.184.982-1.047 2.182-1.918l2.183-1.584-2.825-.075-2.825-.075-.857-2.57-.856-2.571-.838 2.513-.838 2.514-2.69.075c-1.48.042-2.687.16-2.682.265.005.104.947.877 2.094 1.718l2.085 1.53-.595 1.91c-.327 1.05-.681 2.178-.788 2.505-.107.328-.114.596-.015.596s.97-.573 1.936-1.272c.966-.7 1.9-1.358 2.074-1.462.185-.112 1.228.468 2.513 1.396 1.208.874 2.214 1.591 2.235 1.595.021.004-.306-1.064-.728-2.374zm29.88.596 1.94-1.424 2.162 1.578c1.189.869 2.193 1.498 2.23 1.398.039-.1-.287-1.237-.724-2.53-.5-1.477-.704-2.455-.552-2.637.134-.158 1.084-.884 2.111-1.611 1.028-.728 1.87-1.408 1.872-1.512.002-.104-1.207-.223-2.687-.265l-2.69-.075-.851-2.514c-.492-1.453-.917-2.346-1.007-2.117-.086.219-.46 1.376-.833 2.571l-.678 2.174-2.826.075-2.826.075 2.165 1.588c1.19.873 2.167 1.706 2.17 1.852.003.145-.338 1.365-.758 2.71-.42 1.346-.627 2.366-.46 2.268.167-.099 1.176-.82 2.243-1.604zM36.256 79.141c.797-.212 2.368-.865 3.492-1.451 2.64-1.378 4.553-1.861 7.37-1.861 2.642 0 4.318.435 7.137 1.852 2.78 1.398 4.504 1.853 6.993 1.846 2.891-.01 3.985-.299 7.69-2.036 3.07-1.438 3.264-1.492 5.839-1.607 3.353-.151 4.896.179 7.838 1.676 1.282.652 3.01 1.363 3.842 1.58 3.17.825 7.178.325 10.383-1.295 2.556-1.293 3.915-1.749 5.833-1.96l1.72-.188V50.826l-43.06-.067-43.062-.067v25.137l1.125.003c1.662.005 3.742.634 6.278 1.9 1.24.618 2.91 1.267 3.71 1.44 2.028.441 5.153.427 6.872-.03zm-4.094-8.34c.09-.145.424-.265.743-.267 1.237-.008 1.737-.322 2.149-1.351 1.141-2.852-.19-4.682-4.033-5.543-2.187-.49-4.388.678-5.917 3.14-1.056 1.7-.815.552.4-1.914.838-1.697 1.234-2.836 1.234-3.545 0-1.625.607-2.156 2.768-2.424 1.358-.169 2.457-.544 4.23-1.444 3.24-1.646 5.044-1.852 7.16-.817 1.752.858 2.776 2.222 2.972 3.958.216 1.919-.12 2.936-1.563 4.714-1.443 1.78-1.904 2.676-2.184 4.237-.143.795-.097.992.23.992.226 0 .41.12.41.265 0 .166-1.637.264-4.381.264-2.854 0-4.325-.092-4.218-.264zm6.86-.68c.891-.89.031-3.288-1.18-3.288-.534 0-1.674 1.708-1.987 2.977l-.179.727h1.465c.98 0 1.603-.138 1.881-.415zm20.392.68c.09-.145.462-.264.827-.264 1.007 0 1.692-.477 2.106-1.468.875-2.095.119-3.75-2.2-4.811-1.955-.895-4.09-.94-5.429-.112-.513.317-1.389 1.24-1.947 2.05-.559.811-1.053 1.362-1.098 1.226-.046-.137.457-1.359 1.117-2.715.765-1.572 1.2-2.821 1.2-3.448 0-1.584.674-2.164 2.77-2.38 1.39-.145 2.34-.47 4.275-1.463 2.285-1.172 2.646-1.278 4.403-1.288 2.573-.014 4.066.816 5.063 2.816 1.227 2.463.886 4.245-1.306 6.812-1.512 1.77-2.506 4.781-1.579 4.781.218 0 .397.12.397.265 0 .166-1.637.264-4.381.264-2.854 0-4.325-.092-4.218-.264zm6.74-.519c.58-.366.505-2.223-.117-2.91-.782-.865-1.501-.58-2.317.916-1.086 1.99-1.01 2.25.655 2.245.764-.002 1.565-.115 1.78-.251zm20.38.52c0-.146.422-.265.938-.265 1.274 0 2.141-.901 2.377-2.472.259-1.729-.376-2.736-2.349-3.723-3.122-1.563-5.765-.88-7.61 1.969-1.314 2.027-1.238 1.127.14-1.67.76-1.541 1.212-2.813 1.212-3.411 0-1.582.674-2.13 2.913-2.37 1.53-.162 2.25-.4 3.443-1.137 1.494-.922 3.976-1.74 5.275-1.736 2.073.005 4.206 1.393 5.074 3.303.96 2.114.471 4.129-1.595 6.577-1.428 1.692-2.375 4.67-1.484 4.67.218 0 .397.12.397.265 0 .166-1.632.264-4.366.264s-4.365-.098-4.365-.264zm7.034-.924c.512-.78.342-1.754-.443-2.539-.783-.783-1.339-.537-2.153.953-1.094 2-1.016 2.245.715 2.245 1.253 0 1.508-.09 1.881-.66z" style="fill:#0c0c48;fill-opacity:1" transform="translate(-16.418 -48.841)"/></svg>