<?xml version="1.0" encoding="UTF-8" standalone="no"?>
<!-- Created with Inkscape (http://www.inkscape.org/) -->

<svg
   width="89.979073mm"
   height="102.64883mm"
   viewBox="0 0 89.97907 102.64883"
   version="1.1"
   id="svg1"
   xml:space="preserve"
   xmlns="http://www.w3.org/2000/svg"
   xmlns:svg="http://www.w3.org/2000/svg"><defs
     id="defs1" /><g
     id="layer1"
     transform="translate(-16.418143,-48.841469)"><path
       style="fill:#0c0c48;fill-opacity:1"
       d="m 58.475643,150.21987 c -5.48067,-2.47276 -12.43741,-6.66332 -16.82485,-10.13485 -3.05847,-2.42 -8.59469,-7.91204 -11.03053,-10.94251 -1.16967,-1.45521 -2.94453,-3.89599 -3.94414,-5.42396 -2.25343,-3.44451 -5.60444,-10.09848 -6.88086,-13.66303 -1.21549,-3.39439 -2.75679,-9.60596 -3.10758,-12.523781 -0.16393,-1.36351 -0.26954,-11.34205 -0.26954,-25.46614 v -23.22413 h 44.98953 44.989537 l -0.0812,24.40781 c -0.0809,24.30391 -0.0838,24.42011 -0.68994,27.296481 -2.80256,13.29961 -8.857527,24.42098 -18.527997,34.03099 -6.15053,6.11207 -11.68244,10.04201 -20.01219,14.21693 -3.11016,1.55882 -5.64615,2.74001 -5.787,2.69541 -0.0186,-0.006 -1.28905,-0.57704 -2.82321,-1.26922 z m 0.58519,-8.78852 c 1.01117,-0.73546 1.9816,-1.39212 2.15651,-1.45924 0.17491,-0.0671 1.22858,0.53462 2.34148,1.3372 1.11289,0.80258 2.08464,1.45924 2.15944,1.45924 0.0748,0 -0.15324,-0.92273 -0.50675,-2.05052 -0.35351,-1.12779 -0.70611,-2.28865 -0.78356,-2.57969 -0.11293,-0.4244 0.29337,-0.84345 2.05229,-2.11666 l 2.19311,-1.5875 -2.80432,-0.0747 -2.80431,-0.0747 -0.76756,-2.50209 c -0.42216,-1.37615 -0.84022,-2.5034 -0.92902,-2.50499 -0.0888,-0.002 -0.49435,1.12435 -0.90121,2.5021 l -0.73975,2.50501 -2.79358,0.0747 -2.79358,0.0747 1.975,1.43657 c 1.08624,0.79012 2.07757,1.52373 2.20295,1.63025 0.18098,0.15376 -0.48036,2.56613 -1.3534,4.93682 -0.20968,0.56938 0.20029,0.37254 2.09626,-1.00647 z m 6.08595,-16.56318 c 0.60393,-0.54655 0.62388,-1.61469 0.0422,-2.25747 -0.41383,-0.45728 -0.40965,-0.51218 0.0661,-0.8704 1.76861,-1.33154 5.02351,-1.55792 7.25471,-0.50458 5.25721,2.4819 8.24487,2.51838 12.9016,0.15753 l 1.92139,-0.9741 -0.0693,-9.78997 c -0.0643,-9.08163 -0.10281,-9.79641 -0.53233,-9.87907 -0.43413,-0.0836 -0.46302,0.51226 -0.46302,9.54841 v 9.63753 l -1.78594,0.82229 c -3.89571,1.7937 -6.25747,1.76899 -10.6623,-0.11157 -2.70463,-1.15469 -2.96614,-1.21514 -4.79731,-1.10908 -2.30504,0.13352 -3.77611,0.77183 -5.65169,2.45233 l -1.31213,1.17565 1.25677,0.0119 c 1.07643,0.0101 1.25677,0.0878 1.25677,0.54102 0,0.49977 -0.17639,0.52917 -3.175,0.52917 -2.99861,0 -3.175,-0.0294 -3.175,-0.52917 0,-0.45337 0.18,-0.53072 1.25677,-0.54002 l 1.25677,-0.0109 -1.19063,-1.0843 c -1.8458,-1.68098 -4.00511,-2.5977 -6.11938,-2.59795 -1.49181,-1.8e-4 -2.16771,0.17762 -4.52523,1.19041 -4.30616,1.84992 -6.70891,1.86864 -10.5882,0.0825 l -1.78594,-0.82229 v -9.63753 c 0,-9.03615 -0.0289,-9.63196 -0.46302,-9.54841 -0.42954,0.0827 -0.46803,0.79858 -0.53234,9.90272 l -0.0693,9.8136 1.52453,0.80827 c 4.62717,2.45319 8.04074,2.44318 13.2985,-0.039 1.94224,-0.91693 4.0937,-0.93681 5.98684,-0.0553 1.57309,0.73246 1.83125,1.02995 1.28628,1.48224 -0.52352,0.43448 -0.50067,1.55778 0.0439,2.15956 0.37979,0.41965 0.87728,0.48385 3.74948,0.48385 2.71018,0 3.39947,-0.0795 3.79545,-0.43788 z m -5.112,-5.21014 c -1.96781,-1.6902 -5.36735,-2.66841 -8.0363,-2.31243 -0.73096,0.0975 -2.48717,0.68519 -3.90269,1.30598 -3.23956,1.42076 -5.23713,1.57519 -7.79901,0.60294 l -1.65364,-0.62757 v -9.49274 c 0,-5.22101 -0.0498,-9.492741 -0.11065,-9.492741 -0.0609,0 -0.29899,0.0723 -0.52917,0.1606 -0.37098,0.14236 -0.41852,1.249831 -0.41852,9.750411 v 9.58982 l 1.78594,0.80517 c 3.28456,1.48083 5.40745,1.36648 9.65796,-0.52021 2.06292,-0.91567 2.64124,-1.05864 4.26856,-1.05526 2.29054,0.005 4.24265,0.68802 6.11567,2.14058 1.23816,0.96022 1.32885,0.9901 1.4156,0.46639 0.0626,-0.37769 -0.19543,-0.80702 -0.79375,-1.32094 z m 6.07904,-0.716 c 1.01375,-0.3823 2.11239,-0.56739 3.38353,-0.57003 1.62732,-0.003 2.20563,0.13959 4.26856,1.05526 4.25051,1.88669 6.3734,2.00104 9.65796,0.52021 l 1.78593,-0.80517 v -9.61813 c 0,-5.28996 -0.0498,-9.618121 -0.11065,-9.618121 -0.0609,0 -0.29898,-0.0723 -0.52916,-0.1606 -0.37679,-0.14458 -0.41852,0.775531 -0.41852,9.228021 0,7.18895 -0.0775,9.45256 -0.33073,9.66154 -0.1819,0.1501 -1.10183,0.53222 -2.0443,0.84914 -2.27879,0.7663 -3.82573,0.56359 -7.41455,-0.9716 -2.51651,-1.07649 -2.97745,-1.18856 -4.89479,-1.19012 -3.45567,-0.003 -7.29186,1.84092 -7.49587,3.60264 l -0.0875,0.75589 1.36446,-1.0864 c 0.75046,-0.59753 2.04001,-1.34116 2.86566,-1.65253 z m -20.06235,-0.65355 c 0.50932,-0.18349 1.81901,-0.72905 2.91042,-1.21236 1.77666,-0.78675 2.23363,-0.87788 4.36562,-0.87059 2.5676,0.009 4.45406,0.55494 6.3419,1.83606 0.5267,0.35743 1.01337,0.64988 1.08149,0.64988 0.0681,0 0.0926,-4.31602 0.0544,-9.59115 l -0.0694,-9.591141 -2.38125,-1.18371 c -2.333,-1.15971 -2.43218,-1.1833 -4.89479,-1.16393 -2.25095,0.0177 -2.78996,0.12564 -5.15938,1.03318 -2.48971,0.9536 -2.82147,1.01403 -5.6224,1.02411 l -2.97656,0.0107 v 9.301991 9.302 l 0.72761,0.28599 c 2.13442,0.83897 3.63729,0.88413 5.62239,0.16897 z m 34.52813,0.38776 c 0.58208,-0.15227 1.38575,-0.40418 1.78593,-0.55979 l 0.72761,-0.28293 v -9.31249 -9.312481 l -2.84427,0.018 c -2.66581,0.0169 -3.02689,-0.0474 -5.75469,-1.02507 -2.50656,-0.89834 -3.22249,-1.04429 -5.15938,-1.05175 -1.84466,-0.007 -2.5916,0.12428 -4.15498,0.73083 -1.04831,0.40672 -2.20917,0.97795 -2.57969,1.26939 l -0.67366,0.52991 v 9.477371 9.47736 l 2.05052,-1.0447 c 3.77701,-1.92432 6.77305,-1.96971 10.63602,-0.16111 1.3696,0.64123 3.44964,1.29608 4.77596,1.5036 0.0728,0.0114 0.60854,-0.10389 1.19063,-0.25616 z M 47.346413,91.703959 c -0.42118,-1.3097 -0.76577,-2.53184 -0.76577,-2.71587 0,-0.18403 0.98226,-1.04723 2.18281,-1.91822 l 2.18281,-1.58361 -2.82537,-0.0749 -2.82537,-0.0749 -0.85651,-2.57092 -0.85651,-2.57093 -0.83775,2.51354 -0.83776,2.51354 -2.69026,0.0754 c -1.47964,0.0415 -2.68633,0.16053 -2.68154,0.26458 0.005,0.10405 0.94698,0.87738 2.09373,1.7185 l 2.085,1.52932 -0.59452,1.91027 c -0.32699,1.05064 -0.68188,2.17815 -0.78864,2.50557 -0.10676,0.32743 -0.11343,0.59532 -0.0148,0.59532 0.0986,0 0.96984,-0.57231 1.93606,-1.2718 0.96621,-0.69949 1.89939,-1.35754 2.07372,-1.46233 0.18542,-0.11144 1.22865,0.46835 2.51355,1.39695 1.20811,0.87311 2.21374,1.59069 2.23473,1.59462 0.021,0.004 -0.30643,-1.06443 -0.7276,-2.37412 z m 29.88024,0.59642 1.93872,-1.42425 2.16232,1.57832 c 1.18928,0.86808 2.19334,1.49709 2.23124,1.3978 0.0379,-0.0993 -0.28837,-1.23753 -0.72506,-2.52942 -0.49952,-1.47778 -0.70404,-2.45594 -0.55147,-2.63752 0.13338,-0.15875 1.08335,-0.88394 2.11106,-1.61155 1.0277,-0.7276 1.86992,-1.40805 1.87161,-1.5121 0.002,-0.10404 -1.20755,-0.22311 -2.68719,-0.26458 l -2.69026,-0.0754 -0.85093,-2.51354 c -0.49207,-1.45351 -0.9167,-2.34617 -1.00687,-2.11667 -0.0858,0.21828 -0.46069,1.37516 -0.83315,2.57083 l -0.67721,2.17395 -2.82618,0.075 -2.82619,0.075 2.16472,1.5875 c 1.1906,0.87312 2.16731,1.70656 2.17049,1.85208 0.003,0.14552 -0.3379,1.3654 -0.75793,2.71084 -0.42002,1.34544 -0.62706,2.36564 -0.46006,2.2671 0.16699,-0.0985 1.17604,-0.82007 2.24234,-1.60341 z m -40.9717,-13.15893 c 0.79655,-0.21197 2.36784,-0.86528 3.49176,-1.45179 2.64011,-1.37773 4.55321,-1.86069 7.37066,-1.86069 2.6416,0 4.31781,0.43503 7.13618,1.85209 2.78119,1.39835 4.50451,1.85315 6.99334,1.84561 2.89111,-0.009 3.98494,-0.29822 7.69104,-2.0353 3.0695,-1.4387 3.26348,-1.49213 5.83771,-1.60777 3.35343,-0.15064 4.89679,0.17945 7.83864,1.67651 1.28164,0.6522 3.01027,1.36295 3.8414,1.57943 3.17002,0.82568 7.17814,0.32585 10.38364,-1.2949 2.55567,-1.29218 3.914717,-1.74866 5.832987,-1.9592 l 1.71979,-0.18876 v -12.43542 -12.43541 l -43.060937,-0.0669 -43.06094,-0.0669 v 12.5685 12.5685 l 1.12448,0.003 c 1.66184,0.005 3.74193,0.63403 6.27833,1.89967 1.23996,0.61873 2.90933,1.26717 3.70969,1.44099 2.02791,0.44039 5.15316,0.42615 6.87223,-0.0313 z m -4.0941,-8.33956 c 0.0899,-0.14552 0.42438,-0.26621 0.74321,-0.2682 1.23719,-0.008 1.73732,-0.32207 2.14891,-1.35073 1.14109,-2.85187 -0.19048,-4.68219 -4.03276,-5.54327 -2.18672,-0.49005 -4.38821,0.67855 -5.91766,3.14122 -1.05569,1.69982 -0.81502,0.55139 0.40139,-1.91538 0.8368,-1.69696 1.23295,-2.83576 1.23295,-3.54433 0,-1.62501 0.60662,-2.15626 2.76833,-2.42435 1.35827,-0.16845 2.45691,-0.54357 4.22963,-1.4442 3.23924,-1.64569 5.04396,-1.85149 7.15955,-0.81643 1.75252,0.85743 2.77688,2.2213 2.97261,3.95784 0.21625,1.91854 -0.12091,2.93571 -1.56268,4.71435 -1.44305,1.78023 -1.90466,2.67552 -2.18444,4.23671 -0.14251,0.79519 -0.0966,0.99219 0.23105,0.99219 0.22488,0 0.40886,0.11906 0.40886,0.26458 0,0.16574 -1.6368,0.26458 -4.38124,0.26458 -2.85345,0 -4.32421,-0.0923 -4.21771,-0.26458 z m 6.86026,-0.68036 c 0.89132,-0.89132 0.0313,-3.28839 -1.17977,-3.28839 -0.53472,0 -1.67461,1.70765 -1.98691,2.97656 l -0.17908,0.72761 h 1.465 c 0.97903,0 1.60291,-0.13792 1.88076,-0.41578 z m 20.39182,0.68036 c 0.0899,-0.14552 0.46198,-0.26458 0.82676,-0.26458 1.00742,0 1.69209,-0.47725 2.10605,-1.46801 0.8755,-2.09536 0.11898,-3.74997 -2.19996,-4.81162 -1.95493,-0.89499 -4.09009,-0.93888 -5.42869,-0.11157 -0.51274,0.31689 -1.38909,1.23946 -1.94744,2.05016 -0.55835,0.8107 -1.05248,1.3621 -1.09806,1.22534 -0.0456,-0.13676 0.45717,-1.35827 1.11725,-2.71446 0.76536,-1.57252 1.20013,-2.82159 1.20013,-3.44789 0,-1.58441 0.67435,-2.16412 2.7697,-2.381 1.38955,-0.14382 2.33984,-0.46878 4.27545,-1.46202 2.28489,-1.17247 2.64556,-1.27798 4.40254,-1.28791 2.57383,-0.0145 4.06659,0.81551 5.06319,2.81542 1.22724,2.46276 0.88569,4.24484 -1.30556,6.81196 -1.51182,1.77115 -2.50612,4.7816 -1.57928,4.7816 0.21828,0 0.39688,0.11906 0.39688,0.26458 0,0.16574 -1.6368,0.26458 -4.38124,0.26458 -2.85345,0 -4.32422,-0.0923 -4.21772,-0.26458 z m 6.74086,-0.51985 c 0.57892,-0.36609 0.5038,-2.22351 -0.11769,-2.91025 -0.7826,-0.86476 -1.50106,-0.58061 -2.31751,0.91656 -1.08521,1.99001 -1.00939,2.24976 0.65528,2.2449 0.76398,-0.002 1.56495,-0.11527 1.77992,-0.25121 z m 20.37893,0.51985 c 0,-0.14552 0.42213,-0.26458 0.93807,-0.26458 1.2746,0 2.14133,-0.90162 2.37691,-2.47258 0.25922,-1.72859 -0.37598,-2.73564 -2.34837,-3.72308 -3.122,-1.56298 -5.76568,-0.87907 -7.61116,1.96898 -1.31351,2.0271 -1.23763,1.12702 0.1407,-1.66889 0.76026,-1.54219 1.21218,-2.81414 1.21218,-3.41173 0,-1.58169 0.67407,-2.12987 2.91313,-2.36911 1.52916,-0.16339 2.24928,-0.40147 3.44296,-1.13825 1.49373,-0.92198 3.97581,-1.7388 5.27502,-1.73595 2.07278,0.005 4.20557,1.39333 5.07337,3.30354 0.96009,2.11339 0.47163,4.12849 -1.59408,6.57632 -1.42865,1.69293 -2.375,4.67075 -1.48435,4.67075 0.21828,0 0.39687,0.11906 0.39687,0.26458 0,0.1657 -1.6316,0.26458 -4.36562,0.26458 -2.73403,0 -4.36563,-0.0989 -4.36563,-0.26458 z m 7.03453,-0.92412 c 0.51135,-0.78042 0.34146,-1.75406 -0.44294,-2.53846 -0.78319,-0.78319 -1.33926,-0.5373 -2.15364,0.95234 -1.09354,2.00028 -1.01538,2.24566 0.71533,2.24566 1.25262,0 1.5077,-0.0894 1.88125,-0.65954 z"
       id="path1" /></g></svg>
