<svg xmlns="http://www.w3.org/2000/svg" fill="none" viewBox="0 0 500 404"><path fill="#461EC5" d="M232.61 401.571c-11.716-2.929-18.599-6.151-28.558-13.181-4.833-3.514-49.061-46.718-98.269-96.218-68.539-68.832-90.653-91.825-94.607-98.562-14.206-24.604-14.792-47.45-2.197-72.347 5.712-11.276 17.72-24.457 66.05-72.786 40.274-40.274 43.349-42.47 64.292-47.01 12.009-2.49 21.089-1.905 34.855 2.489 14.059 4.247 23.725 11.57 50.086 37.784 13.181 13.035 24.751 23.725 25.776 23.725.878 0 1.611 1.319 1.611 2.93 0 1.61-.586 2.928-1.318 2.928-.586 0-6.444 5.273-12.888 11.717-13.034 12.887-20.796 26.068-22.114 37.345-.733 7.176 2.196 24.164 4.247 24.164.732 0 1.318 1.318 1.318 2.929 0 4.247 19.917 23.725 27.826 27.387 3.661 1.61 9.812 3.807 13.62 4.832 6.59 1.758 7.615 1.611 17.574-2.196 5.858-2.344 11.13-4.98 11.716-6.151.586-1.025 1.611-1.904 2.343-1.904.586 0 10.691-9.52 22.554-21.236 20.063-19.624 21.967-21.235 27.093-21.235 5.126 0 7.323 1.904 42.471 37.052 20.21 20.21 36.906 37.785 36.906 38.81 0 .878.585 1.757 1.318 1.757.585 0 3.075 4.101 5.418 9.227 3.369 7.469 4.247 11.569 4.687 23.432.586 12.302.293 14.206-1.758 14.206-1.318 0-2.343.878-2.343 1.903 0 1.026-30.169 31.927-66.928 68.54-59.899 59.605-68.246 67.221-77.326 71.907-18.6 9.519-35.881 12.009-53.455 7.762ZM2.242 152.311c-.293-2.343-.586-.732-.586 3.222 0 4.101.293 5.858.586 4.101.293-1.904.293-5.126 0-7.323Z"/><path fill="#36198A" d="M430.319 233.152c0-1.171-.586-2.197-1.318-2.197-.732 0-1.025-1.318-.586-2.929 1.318-5.125 4.833-3.514 4.833 2.197 0 2.783-.586 5.126-1.464 5.126-.732 0-1.465-1.025-1.465-2.197ZM421.386 210.745c-4.248-4.979-4.54-7.615-.586-7.615 3.222 0 3.661.585 3.661 5.125 0 5.858-.146 6.005-3.075 2.49ZM252.527 182.48c-4.832-1.611-11.423-4.833-14.791-7.176-8.787-6.005-25.336-24.897-21.968-24.897.586 0-.146-1.025-1.318-2.343-1.318-1.172-2.05-2.929-1.611-3.661.586-.732.147-1.318-.732-1.318-1.025 0-1.318-1.172-.732-2.929.439-1.611.439-2.929-.293-2.929-.586 0-1.172-5.565-1.172-12.449 0-6.883.586-12.448 1.318-12.448.586 0 .879-1.025.293-2.197-.439-1.171-.146-2.197.732-2.197.879 0 1.318-1.025.733-2.196-.44-1.172-.147-2.197.732-2.197s1.171-.586.732-1.318c-.439-.732.147-1.758 1.465-2.197 1.318-.44 2.05-1.904 1.611-2.929a2.274 2.274 0 0 1 1.318-2.929c1.171-.44 1.904-1.318 1.757-1.904-.439-1.464 23.579-25.336 25.483-25.336.732 0 .878-.732.293-1.61-.586-1.026 0-1.319 1.757-.733 2.197.732 8.787-5.126 29.876-25.922 28.997-28.704 33.684-31.926 52.722-36.906 16.989-4.54 39.982.147 54.773 10.984 6.737 4.98 55.066 52.576 55.066 54.334 0 .585.879 1.464 1.904 1.757.878.44-4.101.732-11.423.732-10.106-.146-14.646.44-19.332 2.636-7.03 3.222-63.56 57.702-59.899 57.702 1.611 0 2.344 1.318 2.344 4.394 0 3.954.439 4.393 4.393 4.393 4.101 0 4.394.44 4.394 5.419v5.419l-9.373-9.227c-8.641-8.494-9.812-9.226-12.156-7.322-1.464 1.171-11.423 10.837-22.26 21.528-10.838 10.544-20.21 19.331-20.796 19.331-.586 0-1.758.879-2.344 1.904-.585 1.172-5.565 3.808-11.13 5.858-11.716 4.687-20.21 4.98-32.366.879Zm36.32-40.567c8.495-7.176 10.691-14.499 6.884-22.846-3.662-8.202-8.202-11.863-17.135-14.06-6.737-1.464-8.201-1.318-13.034 1.026-4.247 2.196-6.005 4.54-8.787 11.276-3.369 8.202-3.369 8.641-1.026 15.085 2.637 7.029 8.202 12.155 15.671 14.645 4.833 1.611 12.009-.439 17.427-5.126ZM383.455 170.178l-4.979-5.126h5.418c5.273 0 5.419.147 5.419 5.126 0 2.783-.146 5.126-.439 5.126-.293 0-2.636-2.343-5.419-5.126Z"/><path fill="#2B146D" d="M430.026 239.157c-.586-10.545-1.465-14.06-6.005-23.14-4.686-9.519-9.372-14.645-41.885-47.303-20.21-20.064-37.052-37.785-37.638-39.249-1.171-3.515 53.894-57.556 62.828-61.803 4.686-2.05 9.226-2.782 18.892-2.782h12.741l20.064 19.624c21.675 21.382 29.876 32.366 33.831 45.254 1.464 4.54 3.075 8.64 3.807 9.08.733.585.879 2.343.44 3.954-.586 1.611-.293 3.368.585 3.954 1.904 1.172 1.904 14.938-.146 16.256-.879.439-1.318 2.197-.879 3.661.44 1.465-.586 5.126-2.05 8.202-1.465 2.929-2.783 6.736-2.783 8.201 0 3.368-5.858 14.206-7.615 14.206-.586 0-1.172.878-1.172 1.903 0 2.197-48.622 52.284-50.818 52.284-.879 0-1.758-5.126-2.197-12.302ZM266.586 151.432c-6.151-2.343-15.231-9.519-14.206-11.423.586-.732.147-1.318-.732-1.318-.878 0-1.171-.586-.732-1.464.439-.733.293-1.465-.586-1.465s-1.171-1.025-.732-2.197c.586-1.171.293-2.197-.439-2.197-.733 0-1.319-2.636-1.172-5.858 0-3.221.439-5.858.879-5.858 1.464 0 4.393-7.469 3.514-8.933-.585-.732-.146-1.318.586-1.318.879 0 1.465-.732 1.172-1.758-.147-.878 2.343-3.222 5.565-4.979 7.323-4.247 16.256-5.858 19.039-3.515 1.171.879 2.782 1.318 3.515.879.732-.586 1.757-.293 2.343.586.586.878 1.464 1.171 2.197.732 2.05-1.318 10.544 6.883 13.327 13.181 3.514 7.762 3.514 9.519-.44 9.519-2.489 0-3.954-1.465-5.711-5.712-2.929-6.883-11.716-13.766-17.282-13.62-5.125.147-16.109 5.419-17.281 8.348-.439 1.172-2.05 2.197-3.515 2.197-2.343 0-2.782 1.171-2.782 6.59 0 3.808 1.025 8.641 2.197 10.838 2.636 5.125 10.105 11.569 14.791 12.741 2.49.586 3.515 1.904 3.515 4.393 0 3.955-.293 3.955-7.03 1.611Z"/><path fill="#2B146D" d="M275.081 149.821c0-2.782 1.025-3.807 4.54-4.54 5.565-1.171 14.352-10.251 15.524-15.67.586-3.075 1.611-4.101 4.247-4.101 3.954 0 4.101 1.172 2.05 8.934-1.904 6.59-7.615 12.595-15.377 16.11-8.201 3.807-10.984 3.514-10.984-.733Z"/><path fill="#1F0E4E" d="M265.561 150.114c-8.054-4.1-10.983-6.883-14.059-13.62-3.661-8.054-3.515-14.205.879-22.7 7.762-15.523 29.437-18.892 40.86-6.59 6.737 7.176 7.762 8.641 7.029 10.691-.292.879.147 1.757 1.026 1.757.878 0 1.611 2.344 1.611 5.126 0 2.783-.733 5.126-1.611 5.126-.879 0-1.318 1.318-.879 2.929.439 1.611.146 2.929-.732 2.929-.733 0-1.026.586-.586 1.318.439.732-.147 1.758-1.465 2.197-1.318.586-2.05 1.318-1.464 1.904.439.439-.586 1.611-2.49 2.636-1.757.879-3.075 2.343-2.929 3.222.147.879-2.343 1.904-5.419 2.489-3.222.44-5.858 1.611-5.858 2.344 0 2.343-7.615 1.318-13.913-1.758Z"/><path fill="#461EC5" d="M1.217 150.407h4.394v10.252H1.217z"/><path fill="#2B146D" d="M462.539 88.165c43.622 42.561 48.698 78.323 17.574 114.965L462.539 88.165Z"/><circle cx="275.081" cy="125.51" r="27.826" fill="#1F0E4E"/><path fill="#36198A" d="M222.359 89.63c-25.499 27.979-22.602 43.307-.732 70.296l.732-70.296Z"/></svg>