<svg xmlns="http://www.w3.org/2000/svg" fill="none" viewBox="0 0 500 500"><g fill="#5A2989" clip-path="url(#a)"><path d="M397.756 276.664a62.6 62.6 0 0 1-45.697-18.245 62.597 62.597 0 0 1-18.398-45.636c0-35.677 26.654-65.876 64.049-65.953 37.35 0 62.301 30.23 62.301 65.938 0 35.707-24.859 63.896-62.224 63.896h-.031ZM402.559 111c-32.991 0-54.812 12.076-69.19 30.414v-26.378h-40.02v274.137h40.02V281.989c14.378 18.138 36.199 30.444 69.19 30.444 55.166 0 97.441-40.296 97.441-99.819C500 153.076 457.725 111 402.559 111Z"/><path fill-rule="evenodd" d="M87.558 218.706a126.626 126.626 0 0 0 40.02-46.234V224c0 32.071 17.57 50.608 47.293 50.608s54.597-18.506 54.597-50.608V115.128h40.097v193.484h-40.25v-24.444c-6.476 9.897-24.844 28.388-60.613 28.388-52.955 0-81.021-33.068-81.021-80.039l-.077-13.841-.046.03Z" clip-rule="evenodd"/><path d="M.046 202.026v38.823a128.346 128.346 0 0 0 90.06-36.92 124.732 124.732 0 0 0 27.624-40.728 124.74 124.74 0 0 0 9.725-48.242H88.203a86.66 86.66 0 0 1-25.841 61.503A88.782 88.782 0 0 1 0 202.026h.046Z"/></g><defs><clipPath id="a"><path fill="#fff" d="M0 0h500v500H0z"/></clipPath></defs></svg>