<svg xmlns="http://www.w3.org/2000/svg" width="2500" height="2500" viewBox="0 0 192.756 192.756"><g fill-rule="evenodd" clip-rule="evenodd"><path fill="#fff" fill-opacity="0" d="M0 0h192.756v192.756H0V0z"/><path d="M155.189 17.198c-2.016-2.017-4.387-3.025-7.209-3.025H44.826c-2.823 0-5.243 1.008-7.209 3.025-2.017 1.966-3.024 4.386-3.024 7.209v97.002c0 2.822 1.008 5.242 3.024 7.209 1.967 2.018 4.387 2.975 7.209 2.975H147.98c2.822 0 5.193-.957 7.209-2.975 2.018-1.967 2.975-4.387 2.975-7.209V24.408c0-2.824-.957-5.244-2.975-7.21z"/><path d="M154.938 24.408c0-1.916-.705-3.529-2.066-4.941-1.312-1.361-2.975-2.017-4.891-2.017H44.826c-1.966 0-3.579.656-4.94 2.017-1.361 1.412-2.017 3.025-2.017 4.941v97.002c0 1.916.656 3.578 2.017 4.941 1.361 1.361 2.975 2.016 4.94 2.016H147.98c1.916 0 3.578-.654 4.891-2.016 1.361-1.363 2.066-3.025 2.066-4.941V24.408h.001z" fill="#e6c337"/><path d="M150.602 21.785c-.756-.705-1.613-1.058-2.621-1.058H44.826c-1.008 0-1.916.353-2.621 1.058-.706.707-1.109 1.614-1.109 2.623v97.002c0 1.008.403 1.916 1.109 2.621.706.707 1.613 1.059 2.621 1.059H147.98c1.008 0 1.865-.352 2.621-1.059.705-.705 1.059-1.613 1.059-2.621V24.408c0-1.009-.353-1.916-1.058-2.623z"/><path fill="#e6c337" d="M144.098 61.414h-35.342L97.764 28.038 86.572 61.414H50.927l29.141 20.519-10.89 33.428 28.435-20.369 28.94 20.871-10.688-34.282 28.233-20.167z"/><path d="M132.4 64.741h-26.468l-8.217-25.007-8.37 25.007H62.624l21.78 15.377-8.117 25.007 21.326-15.226 21.629 15.63-7.967-25.663L132.4 64.741z"/><path fill="#fff" d="M107.848 79.11l15.982-11.395h-19.965L97.664 48.86l-6.302 18.855H71.195l16.436 11.597-6.101 18.856 16.032-11.496 16.336 11.799-6.05-19.361z"/><path d="M44.826 134.721c-2.823 0-5.243 1.008-7.209 3.023-2.017 1.967-3.024 4.387-3.024 7.209v23.445c0 2.773 1.008 5.193 3.024 7.16 1.967 2.016 4.387 3.023 7.209 3.023H147.98c2.822 0 5.193-1.008 7.209-3.023 2.018-1.967 2.975-4.387 2.975-7.16v-23.445c0-2.822-.957-5.242-2.975-7.209-2.016-2.016-4.387-3.023-7.209-3.023H44.826z"/><path d="M39.886 140.014c-1.361 1.361-2.017 3.025-2.017 4.939v23.445c0 1.916.656 3.529 2.017 4.891s2.975 2.018 4.94 2.018H147.98c1.916 0 3.578-.656 4.891-2.018 1.361-1.361 2.066-2.975 2.066-4.891v-23.445c0-1.914-.705-3.578-2.066-4.939-1.312-1.361-2.975-2.018-4.891-2.018H44.826c-1.966 0-3.579.656-4.94 2.018z" fill="#e6c337"/><path d="M44.826 141.273c-1.008 0-1.916.354-2.621 1.059-.706.707-1.109 1.613-1.109 2.621v23.445c0 1.008.403 1.865 1.109 2.572.706.756 1.613 1.107 2.621 1.107H147.98c1.008 0 1.865-.352 2.621-1.107.705-.707 1.059-1.564 1.059-2.572v-23.445c0-1.008-.354-1.914-1.059-2.621-.756-.705-1.613-1.059-2.621-1.059H44.826z"/><path d="M113.344 155.088v-5.293l-3.127-2.924h-8.016v20.268h4.639v-8.117h1.967v8.117h4.537v-8.117l-2.369-1.967 2.369-1.967zm-64.736-8.217v17.293l3.126 2.975h5.243l3.025-2.975v-17.293h-4.689v16.436h-2.017v-16.436h-4.688zm60.199 3.781v4.588h-1.967v-4.588h1.967zm21.425-3.781h-5.494l-1.514 9.781h-.402l-1.664-9.781h-5.445v20.268h4.234v-12.857h.203l1.965 12.857h1.715l1.967-12.857h.201v12.857h4.234v-20.268zm8.27 7.311h-.051l-1.664-7.311h-4.639l3.982 11.746v8.521h4.689v-8.521l4.035-11.746h-4.641l-1.711 7.311zm-72.249 12.957v-3.934h-4.688v3.934h4.688zm14.823-3.934v3.934h4.638v-3.934h-4.638zm-1.613-13.41l-3.277-2.924h-4.941l-3.025 2.924v6.1l3.227 2.924 3.328.252v4.236h-1.916v-2.672H68.22v3.529l3.025 2.975h5.143l3.076-2.975v-6.152l-3.177-2.924-3.428-.303v-4.133h1.916v2.723h4.689v-3.58h-.001zm17.848-2.924h-6.756l-2.824 20.268h4.538l.403-3.781h2.672l.404 3.781h4.537l-2.974-20.268zm-4.336 12.705l.706-8.42h.454l.857 8.42h-2.017z" fill="#fff"/></g></svg>
