<svg xmlns="http://www.w3.org/2000/svg" width="128" height="128" fill="none"><g clip-path="url(#a)"><path fill="#fff" d="M64 128c35.3462 0 64-28.6538 64-64 0-35.3462-28.6538-64-64-64C28.6538 0 0 28.6538 0 64c0 35.3462 28.6538 64 64 64Z"/><path fill="#C33" d="M102.827 40.96c-.64.2133-1.494.4267-2.134.64 4.054 6.6133 6.187 14.2933 6.187 22.4 0 23.68-19.2 43.093-43.0933 43.093-23.68 0-43.0934-19.1997-43.0934-43.093 0-8.5333 2.56-16.64 6.8267-23.2533-.64-.2134-1.28-.4267-2.1333-.8534-4.0534 7.04-6.6134 15.36-6.6134 24.1067 0 24.96 20.2667 45.227 45.2267 45.227S109.227 88.96 109.227 64c0-8.32-2.347-16.2133-6.4-23.04ZM39.04 29.0133c7.04-5.12 15.7867-8.1066 24.96-8.1066 10.4533 0 20.0533 3.6266 27.52 9.8133l2.56-.64c-7.8933-7.04-18.3467-11.3067-29.8667-11.3067-10.24 0-19.84 3.4134-27.3066 9.1734.4266.2133.64.2133 1.0666.4266.2134.2134.64.4267 1.0667.64Z"/><path fill="#999" d="M64 0C28.5867 0 0 28.5867 0 64s28.5867 64 64 64 64-28.5867 64-64S99.4133 0 64 0Zm0 123.947C30.9333 123.947 4.0533 97.0667 4.0533 64c0-33.0667 26.88-59.9467 59.9467-59.9467S123.947 30.9333 123.947 64 97.0667 123.947 64 123.947Z"/><path fill="#036" d="M48.64 51.2c-.8533-.4267-1.7067-1.0667-2.56-1.7067-2.7733-2.56-3.4133-5.12-2.56-8.1066.4267-1.7067 1.28-2.7734 1.0667-4.48-.2134-1.0667-.8534-1.92-1.7067-2.7734-1.92-1.7066-4.0533-2.7733-7.2533-3.84-1.92-.64-7.68-2.56-10.24-4.6933-.64 1.7067.64 4.0533 2.1333 4.2667-1.28.2133-2.3467.8533-2.9867 1.4933 1.0667 1.0667 2.9867 2.3467 4.48 2.3467-.8533.4266-1.7066 1.4933-1.92 2.1333 1.4934.64 3.6267 1.28 5.3334 1.28-.64.64-1.28 1.28-1.7067 1.92 1.0667.4267 3.4133 1.28 5.5467 1.4933-.8534.4267-1.92 1.7067-2.56 2.56 1.28.64 3.84.8534 5.5466 1.0667-1.0666.64-2.3466 1.92-2.9866 2.9867 1.28.64 3.4133 1.28 5.12 1.0666-.8534.8534-1.4934 1.92-1.92 2.9867 1.28.2133 2.7733.2133 4.48 0-1.0667 1.28-1.4934 2.9867-1.4934 4.2667 1.28 0 3.2-.4267 4.48-1.0667-.2133 1.0667-.2133 2.3467.2134 3.4133.4266-.2133 1.0666-.4266 1.92-.64-.4267-2.3466-.4267-4.48-.4267-5.9733ZM103.68 28.3733C101.12 30.72 97.0667 31.36 92.8 32.64c-3.2 1.0667-5.12 1.7067-8.1067 4.0533-.8533.64-1.7066 1.7067-1.4933 3.2 0 1.92.4267 2.56.4267 5.12 0 1.92-.64 3.4134-1.28 4.2667-.8534.8533-1.92 1.7067-2.7734 2.1333 0 1.4934-.2133 3.2-.2133 4.9067.64.4267 1.4933.64 2.1333.8533.4267-1.0666.4267-2.3466.2134-3.4133 1.28.8533 2.9866 1.0667 4.48 1.0667-.2134-1.28-.64-2.9867-1.4934-4.2667 1.7067.2133 3.2.2133 4.48 0-.4266-1.0667-.8533-2.1333-1.92-2.9867 1.7067 0 4.0534-.64 5.12-1.0666-.64-1.0667-1.92-2.3467-2.9866-2.9867 1.7066-.2133 4.2666-.4267 5.5466-1.0667-.64-.8533-1.7066-2.1333-2.56-2.56 2.1334-.2133 4.48-.8533 5.5467-1.4933-.4267-.64-1.0667-1.4933-1.7067-1.92 1.92-.2133 3.8397-.4267 5.3337-1.28-.214-.64-1.28-1.7067-1.9203-2.1333 4.0533-.8534 4.0533-2.9867 4.0533-4.6934Z"/><path fill="#036" d="M85.5467 32.8533C79.36 28.5867 71.8933 26.0267 64 26.0267c-7.2533 0-14.08 2.1333-19.84 5.76 1.4933 1.0666 2.3467 2.3466 2.56 3.6266.2133 1.0667.2133 2.56-.4267 4.48-.64 2.1334-1.0666 4.2667.4267 6.4 1.4933 2.1334 3.6267 3.2 5.12 3.4134 2.1333-.4267 4.48-.64 7.04-.8534.2133-1.0666 1.28-1.92 2.1333-2.56 1.28-1.0666 1.0667-1.92.64-2.7733-.2133-.64-.64-1.0667-1.4933-1.28-.64-.2133-2.7733-.64-2.7733.8533-.4267-.4266-.64-1.28-.4267-2.1333.2133-1.28 2.3467-1.4933 2.7733-1.4933-.4266-.4267-.2133-.8534.64-1.0667 1.0667-.2133 2.1334-.4267 2.9867-.2133 1.92 0 2.3467.64 3.4133 1.4933 1.28 1.0667 2.7734 1.4933 3.6267.8533-.4267 1.0667-1.92 1.7067-2.9867 1.4934.4267 1.4933.64 2.7733.8534 4.2666 0 .64.2133 1.92.4266 2.7734 2.7734.2133 5.5467.64 7.8934 1.0666 1.0666-.2133 1.92-.8533 2.9866-1.92.8534-1.0666 1.7067-2.3466 1.28-5.5466 0-.8534-.64-3.2-.4266-4.2667.4266-2.56 2.3466-4.0533 5.12-5.5467Z"/><path fill="#036" d="M60.3733 39.68c.4267.2133.64.2133.64.2133l.4267.4267c.2133 0 .64-.2133 1.0667-.4267.4266-.2133 1.0666-.2133 1.0666-.2133-1.92-.4267-2.1333.2133-3.2 0Z"/><path fill="#069" d="M62.9333 69.5467 62.08 69.12l-.4267-1.28-1.0666-.4267-1.28-1.0666-.64.8533-1.0667.2133-.64.8534-.8533.8533-1.28.64-.8534 1.4933-.4266.64-.8534.64-.4266-.4266-.4267.4266L51.2 73.6c-.2133-.8533-.4267-1.4933-.64-2.7733-.2133-2.56-.4267-5.5467-.4267-8.7467 4.0534-.8533 9.1734-1.4933 13.44-1.4933v9.6c-.2133 0-.4266-.2134-.64-.64Z"/><path fill="#390" d="M63.5733 74.24h-12.16c.2134.4267.4267.64.64 1.0667.8534 1.28 2.1334 2.1333 3.6267 2.56 2.1333.64 3.4133 1.0666 4.48 1.4933l1.28.4267c1.0667.2133 1.7067.64 2.1333 1.28V74.24Z"/><path fill="#036" d="M76.3733 69.5467c.4267-.2134.64-.64 1.28-.8534 0-1.0666.2134-2.3466.2134-3.6266-.2134 0-.2134.2133-.4267.4266-.64.4267-1.28 1.0667-2.56 1.0667s-1.92-.4267-2.56-.8533c-.4267-.2134-.8533-.64-1.4933-.64-.64 0-1.28.4266-1.92.64-.64.4266-1.28.8533-2.3467.8533-.8533 0-1.4933-.2133-2.1333-.64v3.4133c.2133 0 .2133.2134.4266.2134.64.4266 1.0667.64 1.7067.64.4267 0 .8533-.2134 1.4933-.64.64-.4267 1.4934-.8534 2.56-.8534 1.0667 0 1.7067.4267 2.3467.8534.64.4266 1.0667.64 1.7067.64.8533 0 1.28-.2134 1.7066-.64ZM66.56 77.2267c-.8533 0-1.4933-.2134-2.1333-.64v4.2666c.4266-.4266 1.0666-.8533 2.1333-1.28l1.28-.4266c1.0667-.2134 2.3467-.64 4.48-1.4934.64-.2133 1.28-.4266 1.7067-.8533-.8534-.2133-1.28-.4267-1.92-.8533-.4267-.2134-.8534-.64-1.4934-.64s-1.28.4266-1.92.64c-.4266.8533-1.28 1.28-2.1333 1.28Z"/><path fill="#069" d="M76.3733 64.2133c.4267-.4266.8534-.64 1.4934-.8533v-1.28c-4.0534-.8533-9.1734-1.4933-13.44-1.4933v3.6266c.2133 0 .2133.2134.4266.2134.64.4266 1.0667.64 1.7067.64.4267 0 .8533-.2134 1.4933-.64.64-.4267 1.4934-.8534 2.56-.8534 1.0667 0 1.7067.4267 2.3467.8534.64.4266 1.0667.64 1.7067.64.8533 0 1.28-.4267 1.7066-.8534ZM64.4267 71.2533V74.88c.2133 0 .2133.2133.4266.2133.64.4267 1.0667.64 1.7067.64.4267 0 .8533-.2133 1.4933-.64.64-.4266 1.4934-.8533 2.56-.8533 1.0667 0 1.7067.4267 2.3467.8533.64.4267 1.0667.64 1.7067.64.64 0 .8533-.2133 1.28-.4266.8533-1.0667 1.28-2.56 1.28-4.2667v-.2133c-.64.4266-1.28 1.0666-2.56 1.0666s-1.92-.4266-2.56-.8533c-.4267-.2133-.8534-.64-1.4934-.64s-1.28.4267-1.92.64c-.64.4267-1.28.8533-2.3466.8533-.64 0-1.28-.2133-1.92-.64Z"/><path fill="#036" d="M49.92 61.2267c-.2133-3.6267-.4267-7.04-.4267-10.0267C53.76 50.1333 59.52 49.4933 64 49.4933s10.24.64 14.5067 1.7067c0 2.7733-.2134 6.4-.4267 10.0267-4.0533-.8534-9.3867-1.4934-14.08-1.4934-4.6933 0-10.0267.64-14.08 1.4934Z"/><path fill="#fff" d="M52.9067 53.5467v-.64l-.64-.4267h.8533v-.8533l.2133.8533.8534-.2133-.64.4266.4266.64-.64-.2133-.4266.4267ZM57.6 52.9067l-.64-.4267-.64.64.2133-.8533-.64-.2134h.64l.2134-.8533.2133.64h.8533l-.64.4267.4267.64ZM61.0133 52.6933l-.64-.4266-.4266.4266.2133-.64-.64-.4266h.64l.2133-.64.2134.64h.8533l-.64.4266.2133.64ZM64.64 52.6933l-.64-.64-.64.64.4267-.8533-.64-.4267.64.2134.2133-.8534.2133.8534.8534-.2134-.64.4267.2133.8533ZM74.6667 53.12l-.64.2133.4266-.64-.64-.4266.8534.2133.2133-.8533.2133.8533h.64l-.64.4267.2134.64-.64-.4267ZM70.8267 52.2667l-.64-.4267h.8533l.2133-.64.2134.8533h.64l-.64.2134.2133.8533-.64-.64-.64.4267.4267-.64ZM67.2 52.0533l-.64-.4266h.8533l.2134-.64.2133.64h.8533l-.8533.4266.2133.64-.4266-.4266-.64.4266.2133-.64ZM53.3333 59.3067l.2134-.64-.8534-.4267h.8534v-.8533l.4266.64h.64l-.4266.4266.4266.64-.8533-.2133-.4267.4267ZM58.0267 58.6667l-.8534-.4267-.4266.64.2133-.64-.64-.4267h.64l.2133-.8533.2134.64h.8533l-.64.4267.4267.64ZM61.2267 58.4533l-.4267-.4266-.64.64.2133-.8534-.64-.4266h.64l.2134-.64.2133.64h.8533l-.64.4266.2134.64ZM64.64 58.4533l-.4267-.4266-.64.4266.2134-.64-.64-.4266H64l.2133-.8534.2134.8534h.64l-.64.4266.2133.64ZM74.4533 58.88l-.64.4267.2134-.8534-.4267-.4266.64.2133.4267-.8533v.8533h.8533l-.8533.4267.2133.64-.4267-.4267ZM70.6133 58.0267l-.4266-.4267.64.2133.2133-.8533.2133.8533h.8534l-.8534.4267.2134.64-.4267-.4267-.64.4267.2133-.8533ZM67.2 57.8133l-.64-.4266h.8533l.2134-.64.2133.64h.64l-.64.4266.2133.8534-.4266-.64-.64.4266.2133-.64ZM55.04 55.8933l.2133-.64-.8533-.4266h.8533l.2134-.8534.2133.8534.8533-.2134-.64.4267.2134.8533-.64-.4266-.4267.4266ZM51.6267 56.5333l.2133-.8533-.8533-.2133.8533-.2134v-.64l.4267.64.64-.2133-.4267.64.4267.64-.8534-.4267-.4266.64ZM59.52 55.4667l-.64-.4267-.4267.64.2134-.8533-.64-.4267h.64l.2133-.64.2133.64h.8534l-.64.4267.2133.64ZM62.9333 55.2533l-.64-.4266-.4266.64.2133-.8534-.64-.4266h.64l.2133-.64.2134.64h.8533l-.64.4266.2133.64ZM66.3467 55.4667l-.64-.64-.4267.4266.2133-.64-.64-.4266h.8534l.2133-.64v.64h.8533l-.64.4266.2134.8534ZM75.9467 55.8933l-.64.4267.4266-.64-.4266-.64.64.2133.4266-.64v.8534h.64l-.64.2133.2134.8533-.64-.64ZM72.32 55.2533l-.64-.64.8533.2134.2134-.8534.2133.8534h.64l-.64.4266.2133.64-.64-.4266-.64.4266.4267-.64ZM68.9067 54.8267l-.64-.4267h.8533l.2133-.64.2134.64h.64l-.64.4267.2133.8533-.64-.64-.64.4267.4267-.64Z"/><path fill="#036" d="M111.36 40.96c1.707-.8533 3.84-.4267 4.267.8533.426 1.28-.64 2.9867-2.347 3.6267-1.707.8533-3.84.4267-4.267-.8533-.426-1.0667.64-2.7734 2.347-3.6267Zm2.773 6.1867c2.134-1.0667 3.2-3.4134 2.347-5.5467-.853-2.1333-3.413-2.9867-5.76-2.1333-2.133 1.0666-3.2 3.4133-2.347 5.5466 1.067 2.1334 3.414 2.9867 5.76 2.1334ZM110.933 52.9067l-.853-3.4134.427-.2133.213.8533 7.04-1.7066-.213-.8534.426-.2133 1.28 5.12h.427l.213.64-1.92.4267-.213-.64.853-.2134-.64-2.56-2.773.8534.427 1.92.853-.2134.213.64-2.346.64-.214-.64.854-.2133-.427-1.92-3.2.8533.213.8534h-.64ZM11.52 43.9467l-.4267.8533 4.6934 1.28c1.28.4267 2.1333 1.0667 2.3466 2.3467 0 .64 0 1.28-.2133 1.92-.64 1.92-2.1333 2.9866-3.84 2.3466L9.1733 51.2l-.2133.8533-.4267-.2133L9.6 48.4267l.4267.2133-.2134.8533L14.08 51.2c1.28.4267 1.92.2133 2.3467-.2133.4266-.2134.64-.64.64-.8534.4266-1.4933-.2134-2.56-1.7067-2.9866l-4.48-1.28-.2133.8533-.4267-.2133.8533-2.7734.4267.2134ZM19.4133 45.8667c-.2133.4266-.64.64-1.0666.4266-.4267-.2133-.64-.64-.4267-1.0666.2133-.4267.64-.64 1.0667-.4267.4266 0 .64.64.4266 1.0667ZM21.12 42.24l-.4267.64-1.92-1.0667.4267-.64.8533.4267c.64-.2133 1.0667-.64 1.28-1.0667.4267-.64.2134-1.4933-.4266-1.7066-.4267-.2134-1.0667-.2134-2.3467.4266-1.28.64-1.4933.8534-1.92.8534-.4267 0-1.0667 0-1.4933-.2134-1.28-.64-1.4934-2.1333-.8534-3.4133.2134-.4267.4267-.64.8534-1.0667l-.2134-.2133.4267-.64 1.92 1.0667-.4267.64L16 35.84c-.64.2133-.8533.64-1.0667.8533-.4266.64-.2133 1.28.4267 1.4934.4267.2133.8533.2133 2.1333-.64.64-.4267 1.0667-.64 1.0667-.64.4267-.2134.64-.2134 1.0667-.2134.4266 0 .8533 0 1.28.4267 1.28.64 1.7066 2.1333.8533 3.4133-.4267.64-.8533 1.0667-1.28 1.28l.64.4267ZM24.32 36.48c0 .4267-.4267.8533-.8533.8533-.4267 0-.8534-.4266-.8534-.8533 0-.4267.4267-.8533.8534-.8533.64 0 .8533.4266.8533.8533ZM44.16 20.0533l-5.3333 2.7734-.2134-.4267.8534-.4267-3.4134-6.6133-.8533.4267-.2133-.4267 4.6933-2.3467-.2133-.2133.64-.2133.8533 1.7066-.64.2134-.4267-.8534-2.3466 1.28 1.28 2.7734 1.7066-.8534L40.1067 16l.64-.4267 1.0666 2.1334-.64.4266-.4266-.8533-1.92.8533 1.4933 2.7734 2.56-1.28-.2133-.8534.64-.2133.8533 1.4933ZM49.28 18.1333 45.8667 19.2l-.2134-.4267.8534-.2133-2.3467-7.04-.8533.2133-.2134-.4266 3.84-1.28c1.4934-.4267 2.7734 0 3.2 1.4933.4267 1.28-.4266 2.7733-1.7066 3.4133-.2134 0-.4267 0-.64.2134l-.2134-.64H48c.8533-.2134 1.0667-1.0667.64-2.1334-.4267-1.0666-1.0667-1.4933-1.92-1.28l-.64.2134 2.3467 6.8266 1.0666-.4266-.2133.4266ZM53.5467 13.44l.64-3.4133 1.7066 2.9866-2.3466.4267Zm6.1866 1.92h-.4266l-4.48-7.4667-.8534.2134-1.92 8.5333-.8533.2133v.4267l2.56-.4267v-.4266l-1.0667.2133.4267-2.1333 2.9867-.4267L57.6 15.7867 56.7467 16v.4267l2.9866-.64V15.36ZM63.36 8.1067h.8533c.8534 0 1.4934.64 1.4934 1.7066 0 1.0667-.64 1.7067-1.4934 1.7067H63.36V8.1067Zm5.12 7.2533h-.4267c-.2133 0-.4266-.2133-.64-.64l-1.7066-2.7733c1.28-.4267 1.7066-1.0667 1.7066-2.3467 0-.64-.2133-1.28-.64-1.7067-.4266-.4266-1.0666-.64-2.1333-.64H60.8v.64h1.0667v7.2534H60.8v.64h3.6267V15.36h-.8534v-3.2H64l1.92 2.9867c.4267.64.64.8533 1.28.8533h1.7067l-.4267-.64ZM74.24 16.8533l-4.0533-.64v-.4266l1.28.2133 1.28-7.04-2.1334-.4267L70.4 9.6l-.64-.2133.4267-2.1334.64.2134v.4266L76.8 8.96v-.4267h.64l-.4267 2.1334-.64-.2134.2134-1.0666-2.1334-.4267-1.28 7.04 1.28.2133-.2133.64ZM86.1867 20.9067l-3.6267-1.28.2133-.4267 1.0667.4267 1.92-5.12-4.6933 4.48-.64-6.8267-1.92 5.12 1.0666.4267-.2133.4266-2.9867-1.0666.2134-.4267 1.0666.4267 2.56-6.8267-1.0666-.4267.2133-.4266 2.1333.8533.64 6.6133 4.6934-4.48 2.3466.8534-.2133.4266-1.0667-.4266-2.56 6.8266L86.4 20.48l-.2133.4267ZM92.3733 24.96l-5.12-3.2.2134-.4267.8533.4267 4.0533-6.1867-.8533-.4266.2133-.64 4.48 2.7733.2134-.2133.64.4266L96 19.2l-.64-.4267.4267-.8533-2.1334-1.4933L91.9467 19.2l1.7066 1.0667.4267-.64.64.4266-1.28 2.1334-.64-.4267.4267-.8533L91.52 19.84l-1.7067 2.56 2.3467 1.4933.4267-.8533.64.4267-.8534 1.4933ZM35.84 19.84c-1.4933-1.92-4.0533-2.3467-5.9733-.8533l-3.2 2.3466.2133.4267.8533-.64L32 27.0933c.2133 0 .4267.2134.64.2134l2.1333-1.4934c1.0667-.64 1.4934-1.4933 1.7067-2.56.4267-1.4933 0-2.56-.64-3.4133Zm-1.7067 5.5467-.8533.64-4.0533-5.5467.8533-.64c1.28-.8533 3.2-.4267 4.2667 1.0667 1.28 1.4933 1.0666 3.4133-.2134 4.48ZM103.253 23.2533l-.426.4267.64.64-3.627 4.0533.853-7.04-1.9197-1.7066-.4266.4266.64.64-.2134.8534-4.48 4.9066-.8533-.64-.4267.4267 2.1334 1.92.4266-.4267-.64-.64 3.84-4.0533-.8533 6.6133 2.56-.64h.213l3.2-3.6266.854.64.426-.4267-1.92-2.3467ZM111.787 32.4267l-.214.2133-3.626-4.9067.213-.2133-.427-.64-1.706 1.28.426.64.854-.64 1.28 1.7067-5.76 4.2666h-.214c-.213 0-.426.2134-.426.2134l2.133 2.7733.427-.4267-.64-1.0666 5.76-4.2667 1.28 1.7067-.854.64.427.64 1.707-1.28-.64-.64ZM74.6667 120.107l-.64.213-.4267-2.347.64-.213.2133.853c.64.427 1.0667.427 1.7067.214.8533-.214 1.28-.854 1.0667-1.494-.2134-.64-.64-.853-1.92-1.28-1.4934-.426-1.4934-.64-1.92-.853-.4267-.213-.64-.853-.8534-1.28-.2133-1.28.4267-2.56 2.1334-2.773.4266 0 .8533-.214 1.4933 0v-.427l.64-.213.4267 2.133-.64.213-.2134-.853c-.64-.213-.8533-.213-1.4933-.213-.64.213-1.0667.64-.8533 1.28.2133.426.4266.64 1.92 1.28.64.213 1.0666.426 1.28.426.4266.214.64.427.8533.64.4267.427.4267.64.64 1.28.2133 1.494-.4267 2.56-1.92 2.987-.64.213-1.28.213-1.92 0l-.2133.427ZM87.4667 116.053l-5.5467 2.134-.2133-.427.8533-.427-2.7733-6.826-.8534.426-.2133-.426 4.9067-1.92-.2134-.427.64-.213.64 1.92-.64.213-.4266-.853-2.56 1.066 1.0666 2.774 1.92-.64-.2133-.854.64-.213.8533 2.347-.64.213-.4266-.853-1.92.64 1.0666 2.986 2.56-1.066-.4266-.854.64-.213 1.28 1.493ZM96 110.72c-.64.853-1.28 1.28-2.1333 1.92-2.3467 1.493-4.9067.853-6.1867-1.28-1.28-2.133-.64-4.693 1.4933-5.973.64-.427 1.28-.64 2.1334-.64l-.2134-.427.64-.427 1.28 1.92-.64.427-.4266-.64c-.8534 0-1.28 0-1.92.427-1.4934.853-1.7067 2.773-.64 4.693 1.0666 1.707 2.9866 2.347 4.48 1.493.64-.426.8533-.64 1.28-1.28l-.4267-.853.64-.427.64 1.067ZM99.84 97.7067l-.8533.64 3.2003 3.6263c1.066 1.067 1.28 2.134.853 3.2-.213.64-.64 1.067-1.067 1.494-1.493 1.493-3.1997 1.493-4.4797.213l-3.4133-3.84-.64.64-.4267-.427 2.56-2.346.4267.426-.64.64 3.2 3.414c.8533.853 1.493 1.28 2.133 1.066.427 0 .64-.213.854-.64 1.066-1.066 1.28-2.346.213-3.413l-3.2-3.4133-.8533.64L97.28 99.2l2.1333-1.92.4267.4267ZM114.133 90.24l-1.706 3.2-.427-.2133.427-.8534-6.4-3.4133-.427.64-.427-.2133 1.707-3.2.427.2133-.427.8533 6.4 3.4134.427-.8534.426.4267ZM117.547 82.56l-1.494 3.84-.426-.2133.426-1.0667-6.613-2.56-.853 2.1333 1.066.4267-.213.64-2.133-.8533.213-.64.427.2133 2.133-5.76-.427-.2133.214-.64L112 78.72l-.213.64-1.067-.4267-.853 2.1334 6.613 2.56.427-1.0667h.64ZM119.68 73.1733l-.64 3.4134h-.427l.214-.8534-3.627-.8533-4.267 1.92v.64h-.426l.64-3.4133h.426l-.213.8533 2.987-1.28L112 71.4667l-.213 1.0666h-.427l.64-2.9866h.427l-.214.8533 2.987 2.7733 3.84.64.213-.8533.427.2133ZM111.147 94.72l-.214.4267c-.213.2133-.426.2133-.853.2133l-3.413-.2133c.426-1.28.213-2.1334-.64-2.7734-.64-.4266-1.067-.64-1.707-.4266-.64 0-1.067.4266-1.707 1.28l-2.346 3.2.426.2133.64-.8533 5.974 4.4803-.64.853.426.213 2.134-2.773-.64-.4267-.64.8534-2.56-1.92.213-.2134 3.627.2134c.853 0 .853 0 1.493-.64l1.067-1.28-.64-.4267Zm-8.747 0 .427-.64c.64-.64 1.28-.8533 2.133-.2133.853.64 1.067 1.4933.427 2.1333l-.427.64-2.56-1.92ZM10.0267 81.0667l-.8534-3.4134L9.6 77.44l.2133.8533 3.2-.8533-1.0666-4.0533-3.2.8533.2133.8533-.4267.2134-.8533-3.4134.4267-.2133.4266 1.0667 7.04-1.7067-.2133-.8533.4267-.2134.8533 3.4134-.4267.2133v-1.0667l-3.2.8534L14.08 77.44l2.9867-.8533-.2134-.8534.4267-.2133.8533 3.4133-.4266.2134-.2134-.8534L10.4533 80l.2134.8533-.64.2134ZM14.9333 82.9867c1.7067-.8534 3.84-.4267 4.2667.64.4267 1.0666-.64 2.9866-2.3467 3.6266-1.7066.8534-3.84.4267-4.2666-.64-.4267-1.0666.64-2.7733 2.3466-3.6266Zm2.7734 5.9733c2.1333-1.0667 3.2-3.4133 2.1333-5.5467-1.0667-2.1333-3.4133-2.9866-5.76-1.92-2.1333 1.0667-3.2 3.4134-2.1333 5.5467 1.0666 2.1333 3.6266 2.9867 5.76 1.92ZM20.9067 101.12l-2.1334-2.9867.4267-.4266.64.8533 4.48-3.2-6.6133 1.28 3.2-5.9733-4.2667 3.2.64.8533-.4267.2133-1.7066-2.3466.4266-.2134.64.8534 5.9734-4.2667-.64-.8533.4266-.2134 1.28 1.92-2.9866 5.9734 6.4-1.28L28.16 96.64l-.4267.2133-.64-.8533-5.9733 4.267.64.853h-.8533ZM27.52 107.733l-4.48-4.053.4267-.427.64.64 4.9066-5.333-.64-.64.4267-.4267 3.84 3.6267.2133-.213.4267.426-1.28 1.28-.4267-.426.64-.64-1.92-1.707-2.1333 2.133 1.4933 1.28.64-.64.4267.427-1.7067 1.92-.4266-.427.64-.64-1.4934-1.493-2.1333 2.347 2.1333 1.92.64-.64.4267.426-1.28 1.28ZM35.2 112.853l-4.9067-3.413.2134-.427.8533.64 4.0533-6.186-.8533-.64.2133-.427 2.9867 1.92-.2133.427-.8534-.214-4.0533 5.974L34.9867 112l.4266-.853.64.426-.8533 1.28ZM40.32 111.787l2.56-2.347-.2133 3.413-2.3467-1.066Zm4.0533 5.12-.4266-.214.4266-8.746-.64-.427-6.4 5.973-.64-.426-.4266.64 2.3466 1.066.2134-.426-.8534-.427 1.7067-1.493 2.7733 1.28-.2133 2.133-.8533-.427-.2134.427 2.7734 1.28.4266-.213ZM53.12 119.893l-.8533-.213-2.7734-7.04-1.28 5.333 1.0667.214-.2133.426-2.7734-.64.2134-.426 1.0666.213 1.4934-6.613-.2134-.64-.8533-.214.2133-.426 2.56.64 2.56 6.613 1.28-5.12-1.28-.427.2134-.426 2.7733.64-.2133.426L55.04 112l-1.92 7.893ZM61.44 112l-4.0533-.213v.64h1.0666l-.2133 7.253h-1.0667v.64l4.0534.213c1.28 0 2.1333-.213 2.9866-1.066.8534-.854 1.4934-1.92 1.4934-2.987 0-2.56-1.92-4.267-4.2667-4.48Zm2.3467 4.267c0 1.92-1.28 3.413-2.9867 3.413h-1.0667l.2134-7.04h1.0666c1.7067.213 2.7734 1.707 2.7734 3.627ZM104.747 69.3333l-3.2 1.0667.64.2133-1.067.64c.213-.64.213-1.28.213-1.92l1.707-1.4933v.8533l1.92-2.56-2.987 1.28.64.2134-1.28 1.0666c0-.8533.214-1.4933.214-2.3466l1.706-1.92.214.8533 1.493-2.7733L102.4 64h.853l-1.28 1.4933V64c0-3.84-.64-7.4667-1.493-10.88-1.7067.2133-3.4133-.4267-4.2667-.64 2.1334 1.28 2.9867 2.7733 3.2 4.2667-1.7066.4266-4.0533-.2134-5.3333-1.28 1.28 1.0666 2.1333 2.7733 2.1333 4.6933-1.7066 0-3.4133-.8533-4.6933-1.92.8533.8533 1.7067 3.2 1.4933 4.6933-1.4933-.2133-3.2-1.0666-4.2666-2.3466.8533 1.7066 1.28 3.2 1.0666 4.6933-1.4933-.2133-2.56-.64-4.0533-1.92.64 1.7067.8533 3.2.64 4.48-1.7067-.64-2.9867-1.28-3.84-2.9867.4267 1.4934.8533 3.4134.4267 4.48-1.4934-.4266-2.3467-1.28-3.2-2.7733.8533 1.4933.64 3.4133.4266 4.48-.64-.2133-1.4933-.64-1.92-1.0667v.8534c0 1.0666-.2133 2.1333-.64 2.9866l.4267.4267c.8533.8533 1.92 1.7067 2.56 1.92-.4267 0-.8533.4267-1.28.4267.64.64 1.7067.8533 2.3467 1.4933-.64 0-.64.4267-1.28.4267 1.28 1.0666 2.3466 1.0666 2.9866 1.0666.2134 0 1.0667.2134 1.7067 0 .64 0 1.28.2134 1.7067.4267l6.8266-13.8667-.8533.2134 2.1333-2.56-.64 3.2-.4266-.64L87.04 80.2133c.2133.2134.2133.4267.2133.64l.2134-.2133L98.56 71.8933l-.4267-.2133 2.9867-1.28-1.92 2.56v-.8533l-11.0933 8.7466c.2133 0 .64.2134.64.2134.2133.2133.2133.4266 0 1.0666-.2134.4267-.2134.64-.64.64H87.68l.2133.2134c0 .2133.2134.4266-.2133.8533-.4267.4267-.64.64-1.0667.4267-.2133 0-.2133-.2134-.2133-.2134v.4267c0 .4267-.2133.64-.64.64-.64.2133-1.0667.2133-1.28-.2133-.4267-.64-.2133-1.28 0-1.4934v.64c0 .2134.2133.64.64.64.2133 0 .64-.2133.8533-.2133.2134-.2133.2134-.4267 0-.64 0-.2133 0-.2133-.2133-.4267.2133 0 .4267.2134.64.4267.2133.2133.4267.2133.64 0s.4267-.4267.4267-.64c.2133-.4267-.2134-.64-.64-.8533.4266 0 .64.2133 1.0666.2133.4267 0 .64-.64.64-.8533 0-.2134-.2133-.4267-.4266-.4267h-.64v.2133c0 .2134-.2134.4267-.4267.64h-.2133c.2133-.2133.4266-.8533 0-1.28-.2134-.2133-.64-.4266-1.28-.4266h-1.92c-.4267 0-.64.4266-.64.64-.2134.4266-.2134 1.0666-1.0667.8533-.8533-.4267-2.1333-.4267-3.6267-1.0667.2134.4267.2134.8534.4267 1.28-1.28-.2133-1.7067-1.0666-2.7733-1.4933.2133.4267.2133.8533.4266 1.28-1.0666-.2133-1.92-1.0667-3.4133-1.4933h-.2133c-.4267.2133-1.0667.2133-1.4934.4266 1.0667 1.0667 1.92 2.56 2.3467 4.2667 0 0-.64 0-1.7067-.4267.2134.8534.4267 1.92.4267 2.9867 0 0-.8533-.2133-1.92-.8533 0 1.0666 0 2.1333-.2133 3.2 0 0-.8534-.4267-2.1334-1.4934-.2133 1.0667-.4266 2.1334-.8533 3.2 0 0-.8533-.64-1.7067-1.92-.4266 1.0667-.8533 2.1334-1.4933 3.2 0 0-.8533-1.0666-1.4933-2.9866-.8534 1.28-1.7067 1.92-1.7067 1.92-.4267-1.0667-.64-2.1334-.8533-3.2-1.0667 1.0666-2.1334 1.4933-2.1334 1.4933-.2133-1.0667-.2133-2.1333-.2133-3.2-1.0667.64-1.92.8533-1.92.8533 0-1.0666.2133-2.1333.4267-2.9866-1.0667.4266-1.7067.4266-1.7067.4266.4267-1.7066 1.4933-3.6266 2.3467-4.48-.4267-.2133-.8534-.2133-1.28-.4266h-.2134c-1.4933.4266-2.3466 1.28-3.4133 1.4933.2133-.4267.2133-.8533.4267-1.28-1.28.4267-1.4934 1.0667-2.7734 1.4933.2134-.4266.2134-.8533.4267-1.28-1.28.64-2.7733 1.0667-3.6267 1.0667-.8533.2133-.8533-1.0667-1.0666-1.28-.2134-.2133-.8534-.2133-1.0667-.2133h-1.7067c-.64 0-1.0666.2133-1.28.4266-.4266.2134-.2133 1.0667 0 1.28.2134.2134 0 .2134-.2133 0-.4267-.2133-.4267-.4266-.4267-.64h-.64c-.2133 0-.4266.2134-.4266.4267 0 .2133 0 .8533.4266 1.0667.4267 0 .4267-.2134 1.0667-.2134-.2133.2134-.8533.4267-.64.8534 0 .2133.2133.4266.4267.64.2133.2133.4266.2133.64 0 .2133-.2134.4266-.2134.64-.4267-.2134.2133-.2134.2133-.2134.4267v.64c.2134.2133.64.2133.8534.2133.4266 0 .4266-.2133.64-.4267v-.64c.2133.2134.4266.8534 0 1.4934-.2134.2133-.64.4266-1.28 0-.4267-.2134-.64-.2134-.64-.64 0-.2134 0-.2134.2133-.4267l-.2133.2133c-.2134.2134-.64 0-1.0667-.4266-.4267-.4267-.2133-.64-.2133-.8534 0-.2133.2133-.2133.2133-.2133h-.4267c-.4266 0-.4266-.2133-.64-.64-.2133-.4267-.2133-.64 0-1.0667.2134-.2133.8534-.4266 1.28-.2133 0-.2133 0-.64.4267-.8533.2133-.2134 1.0667-.64 1.92-.4267h1.7067C44.8 80 46.72 79.5733 48 78.72c-.64 0-.8533-.4267-1.28-.4267.64-.64 1.92-.8533 2.3467-1.4933-.4267 0-.8534-.4267-1.28-.4267 1.0666-.64 1.92-1.0666 2.56-1.7066 0 0 .2133-.4267.4266-.4267-.4266-.8533-.64-1.92-.64-2.9867V70.4c-.2133.2133-.8533.64-1.7066.8533-.4267-1.0666-.2134-2.9866.2133-4.48-.8533 1.4934-1.7067 2.56-3.2 2.9867-.4267-1.0667-.2133-2.9867.4267-4.48-1.0667 1.7067-1.92 2.56-3.84 2.9867-.2134-1.28 0-3.2.64-4.6934-1.28 1.28-2.56 1.7067-4.0534 1.92 0-1.4933.2134-2.9866 1.0667-4.6933-1.0667 1.28-2.9867 1.92-4.48 2.1333.2133-1.28 1.0667-3.2 1.7067-4.2666-1.4934 1.0666-2.9867 1.7066-4.48 1.92.2133-1.4934.8533-3.2 2.1333-4.6934-1.4933 1.0667-3.6267 1.7067-5.12 1.4934.4267-1.7067 1.4933-3.4134 2.7733-4.2667-.8533.2133-2.3466.4267-4.0533.4267-1.0667 3.4133-1.4933 7.04-1.4933 10.6666-.8534-.64-1.4934-.8533-2.1334-1.4933.2134.8533.2134 1.28.2134 2.1333.2133 1.7067.8533 2.7734 1.92 3.4134 0 .4266.2133 1.0666.2133 1.4933-.8533-.64-1.92-.8533-3.4133-.8533.8533 2.9866 2.1333 3.2 3.84 3.4133 0 .2133.2133.4267.2133.8533-.8533-.2133-1.92-.2133-3.2 0 .8533 1.28 2.1333 2.1334 4.0533 2.3467-1.28 0-2.3466 0-3.4133.64 1.4933 1.28 2.7733 1.7067 4.2667 1.4933 0 .2134.2133.4267.2133.4267-1.0667.2133-1.92.8533-2.56 1.28 1.0667.4267 2.3467.64 3.4133.4267-.64.4266-1.0666 1.28-1.4933 2.3466.8533-.2133 1.7067-.2133 2.56-.4266.2133.2133.4267.64.4267.8533-.4267.8533-.64 1.92-.4267 2.9867.64-.2134 1.28-.4267 1.7067-.8534.2133.2134.4266.4267.4266.64-.2133 1.28.2134 2.56.8534 3.6267.2133-.4267.64-.64.8533-1.0667 1.7067-2.56.64-4.48.64-6.1866.2133 1.92 1.92 4.0533-.2133 6.4l-.2134.2133c7.04 8.1067 17.28 13.227 28.5867 13.227 16.2133 0 30.08-10.2403 35.4133-24.747l1.7067-.64-.213.8533 2.56-2.1333-3.2.8533.64.4267-1.2803.64c.2133-.64.4263-1.28.6403-1.92l1.92-1.0667v.8534l2.346-2.3467-3.2.8533.64.2134-1.493.8533c.213-.64.427-1.4933.64-2.3467l1.493-.8533v.8533l2.134-2.56Z"/><path fill="#fff" d="M87.4667 81.28h.64c.2133 0 .4266.2133.4266.4267 0 .2133-.2133.8533-.64.8533-.4266 0-.4266-.2133-1.0666-.2133.2133.2133.8533.4266.64.8533 0 .2133-.2134.4267-.4267.64-.2133.2133-.4267.2133-.64 0s-.4267-.2133-.64-.4267c.2133.2134.2133.2134.2133.4267v.64c-.2133.2133-.64.2133-.8533.2133-.4267 0-.4267-.4266-.64-.64v-.64c-.2133.2134-.4267.8534 0 1.4934.2133.2133.64.4266 1.28.2133.4267-.2133.64-.2133.64-.64v-.4267l.2133.2134c.2134.2133.64 0 1.0667-.4267.4267-.4267.4267-.64.2133-.8533 0-.2134-.2133-.2134-.2133-.2134h.4267c.4266 0 .4266-.2133.64-.64.2133-.4266.2133-.64 0-1.0666 0-.2134-.4267-.2134-.64-.2134L99.2 72.1067v.8533l1.92-2.56-2.9867 1.28.64.2133L87.68 80.64l-.2133.2133M87.2533 80.2133 94.08 66.3467l.4267.64.64-3.2-2.1334 2.56.64-.2134L86.8267 80"/><path fill="#fff" d="M85.5467 81.92c.2133.4267.2133 1.0667 0 1.28.64-.2133.8533-.8533.8533-1.0667-.2133-.4266-.64-.4266-.8533-.2133ZM85.3333 81.92c-.4266 0-.64-.2133-.64-.4267 0-.2133-.2133-.4266-.2133 0 0 .2134 0 .4267.2133.64 0 0 .4267 0 .64-.2133ZM85.3333 83.2c-.2133-.2133-.2133-.4267-.2133-.64 0 .2133-.2133.64-.2133 1.0667 0 0 0 .2133.2133.2133s.4267 0 .64-.2133c0-.2134-.2133-.2134-.4267-.4267ZM93.8667 68.6933h.8533l-4.2667 6.6134c-.4266 1.0666-1.0666 1.92-1.4933 2.9866l5.9733-9.1733.2134.64 1.0666-3.2-2.3466 2.1333Z"/><path fill="#fff" d="m92.16 74.4533 7.893-9.8133.214.64 1.28-2.9867-2.5603 1.92h.8533l-7.04 8.96c-.64.8534-1.0667 1.7067-1.7067 2.56.2134-.4266.64-.8533 1.0667-1.28ZM91.3067 77.2267c.64-.4267 1.28-1.0667 1.92-1.4934l6.4-5.9733v.8533l1.7063-2.7733-2.9863 1.4933.8533.2134-6.6133 5.9733c-.2134.64-.8534 1.28-1.28 1.7067ZM98.3467 75.9467 89.1733 80.64c-.2133.2133-.2133.2133-.4266.2133l.2133.2134 9.6-4.6934-.2133.8534 2.5603-2.1334-3.2003.64.64.2134ZM84.6933 85.5467c-.2133 0-.2133-.2134-.4266-.2134L82.56 88.7467l-.64.2133L80 92.5867l.8533-.2134.4267.8534L83.2 89.6l-.2133-.64 1.7066-3.4133Z"/><path fill="#fff" d="M91.0933 79.1467c.64-.2134 1.28-.64 2.1334-1.0667l6.1866-4.0533v.8533l2.1337-2.3467L98.1333 73.6l.64.2133L92.16 78.08c-.2133.4267-.8533.64-1.0667 1.0667ZM83.84 84.6933v-.64L81.7067 86.4h-.64l-3.2 3.2h.8533l.2133.64 2.56-3.2h.4267l1.92-2.3467ZM87.8933 80c.2134-.2133.64-.4267 1.0667-.8533l10.6667-11.7334.2133.8534 1.493-2.9867-2.773 1.7067h.8533L88.32 79.1467c-.2133.4266-.4267.64-.4267.8533ZM78.2933 87.8933l4.0534-2.7733c.4266-.4267.8533-1.0667 1.0666-1.28l-4.9066 3.2-.64-.2133-.4267.2133-3.2 1.92.8533.2133.2134.64 2.56-2.1333.4266.2133ZM75.0933 88.32l2.9867-2.1333h.4267s3.6266-2.1334 4.48-2.7734L78.2933 85.76l-.64-.2133-3.6266 1.92.8533.2133.2133.64ZM40.32 81.28c-.4267 0-1.28 0-1.28.2133-.2133.2134-.2133.4267 0 1.0667.2133.4267.2133.64.64.64h.4267l-.2134.2133c0 .2134-.2133.4267.2134.8534.4266.4266.64.64 1.0666.4266.2134 0 .2134-.2133.2134-.2133 0 .2133 0 .2133-.2134.4267 0 .4266.2134.64.64.64.64.2133 1.0667.2133 1.28 0 .4267-.64.2134-1.28 0-1.4934v.64c0 .2134-.2133.64-.64.4267-.2133 0-.64-.2133-.8533-.2133-.2133-.2134-.2133-.4267 0-.64 0-.2134 0-.2134.2133-.4267-.2133 0-.4266.2133-.64.4267-.2133.2133-.4266.2133-.64 0-.2133-.2134-.4266-.4267-.4266-.64-.2134-.4267.4266-.64.64-.8534-.4267 0-.64.2134-1.0667.2134-.4267 0-.4267-.64-.4267-1.0667 0-.2133.2134-.2133.4267-.4267h.64M30.72 76.8c.2133 0 .2133 0 0 0-1.28-.64-1.92-.8533-3.6267-.64 1.7067.2133 2.7734.4267 3.6267.64ZM31.5733 84.9067c.2134-1.0667.8534-2.3467 1.92-3.2.8534-.64 1.0667-.8534.64-.2134-1.0666.8534-2.1333 2.56-2.56 3.4134ZM33.92 87.8933c-.4267-1.0666 0-2.7733.4267-3.84.2133-.8533 1.0666-1.92 1.28-1.92-.8534 1.28-1.92 4.6934-1.7067 5.76ZM29.7708 74.2415a.64.64 0 1 0-.2548-1.2544.64.64 0 0 0 .2548 1.2544ZM36.6933 74.4533c0-1.0666-.2133-2.1333 0-3.4133-2.1333 1.4933-2.9866 4.2667-1.92 6.1867H34.56c-.4267 0-.64.4266-.64.8533 0 .4267.4267.64.8533.64.4267 0 .64-.4267.64-.8533 0-.2134-.2133-.4267-.4266-.4267-.4267-1.7067 0-3.84.8533-4.6933-.2133 1.0666-.8533 3.2-.4267 5.3333.4267-.4267.64-.8533.8534-1.0667 0 .4267.2133.64.2133 1.0667 0-1.7067.64-3.2 2.3467-4.48-1.28 1.4933-1.92 3.4133-2.1334 4.9067.8534-1.0667 2.9867-1.4934 3.2-5.9734-1.28 0-2.56.8534-3.2 1.92ZM37.5143 80.1995a.8532.8532 0 0 0 .668-1.005.8532.8532 0 0 0-1.005-.668.8533.8533 0 0 0 .337 1.673ZM37.3013 82.5359a.8534.8534 0 1 0-.3365-1.6732.8534.8534 0 1 0 .3365 1.6732Z"/><path fill="#fff" d="M33.28 69.9733c-1.4933 1.28-1.92 2.9867-1.92 4.48h-.2133c-.4267 0-.64.4267-.4267.64 0 .4267.4267.64.64.4267h.2133c.2134.4267.4267.8533.64 1.0667C32 76.16 32 75.52 32 75.0933V74.88c0-1.28.2133-2.56.8533-3.4133-.2133 1.28-.64 4.0533-.2133 5.5466.4267-1.7066 2.7733-2.56.64-7.04ZM39.1506 80.8506a.64.64 0 1 0-.2537-1.2547.64.64 0 0 0 .2537 1.2547ZM35.9664 80.8247a.64.64 0 1 0-.254-1.2546.64.64 0 0 0 .254 1.2546ZM28.5867 72.32c0-.2133-.2134-.4267-.4267-.4267-.8533-1.0666-1.92-2.1333-3.84-2.3466 1.0667.4266 2.56 1.4933 3.6267 2.3466-.2134 0-.4267.4267-.4267.64 0 .2134.2133.4267.64.4267s.64-.2133.4267-.64ZM28.5867 68.9067c0-.4267-.4267-.64-.8534-.4267-.4266-1.7067-.8533-2.9867-2.7733-4.2667.8533 1.28 2.1333 2.9867 2.56 4.2667-.2133.2133-.4267.4267-.4267.64 0 .4267.4267.64.8534.4267.64 0 .8533-.4267.64-.64ZM30.5067 75.3067c0-.2134-.2134-.4267-.64-.4267-.2134 0-.2134 0-.4267.2133C27.7333 73.6 26.6667 73.6 25.8133 73.6c.64.2133 2.56.64 3.6267 1.7067v.4266c0 .2134.2133.4267.64.4267.4267-.2133.64-.4267.4267-.8533ZM31.4956 78.2629a.64.64 0 1 0-.2516-1.255.64.64 0 0 0 .2516 1.255ZM33.0667 78.72c0-.2133-.2134-.4267-.64-.4267-.2134 0-.2134.2134-.4267.2134-1.4933-.2134-2.9867 0-4.48.8533 1.4933-.4267 2.9867-.64 4.2667-.64v.2133c0 .2134.2133.4267.64.4267.4266 0 .64-.4267.64-.64ZM34.56 79.5733c0-.4266-.4267-.64-.8533-.4266-.4267 0-.64.4266-.4267.8533-1.0667 0-2.9867.2133-4.0533 1.4933 1.0666-.64 2.9866-1.28 4.0533-1.4933 0 .4267.4267.64.8533.4267.2134 0 .64-.4267.4267-.8534ZM31.7867 66.3467C29.44 67.4133 28.16 70.4 29.44 72.7467c1.28-1.7067 3.4133-1.92 2.3467-6.4ZM29.44 72.5333c-.2133-1.28.4267-4.48 1.4933-5.12-.64 1.7067-.8533 2.9867-1.4933 5.12ZM29.44 61.8667c-.8533.2133-1.92 1.4933-2.3467 2.7733.2134.2133.4267.4267.4267.64.2133-1.0667.8533-2.3467 1.4933-2.7733-.4266.64-.8533 2.1333-1.28 3.2.2134.64.4267 1.28.4267 1.92 1.4933-1.28 1.92-3.6267 1.28-5.76ZM44.16 82.9867c2.9867 2.3466 4.9067 5.5466 5.3333 8.1066-.4266-.2133-1.0666-.64-1.4933-.4266-.4267-2.7734-1.92-4.9067-4.0533-6.8267-.2134-.4267 0-.64.2133-.8533ZM41.1733 82.1333c.2134-.2133.64-.2133 1.0667-.2133-.2133.4267-.2133 1.0667 0 1.28-.8533 0-1.0667-.64-1.0667-1.0667ZM42.24 82.1333c.4267 0 .64-.2133.64-.4266 0-.2134.2133-.4267.2133 0 0 .2133 0 .4266-.2133.64 0 0-.2133 0-.64-.2134Z"/><path fill="#fff" d="M42.4533 82.7733c0 .2134-.2133.4267-.2133.64l-.4267.4267c.2134.2133.4267.2133.64.2133.2134 0 .2134 0 .2134-.2133s0-.8533-.2134-1.0667Z"/></g><defs><clipPath id="a"><path fill="#fff" d="M0 0h128v128H0z"/></clipPath></defs></svg>