<?xml version="1.0" encoding="utf-8"?>
<!-- Generator: Adobe Illustrator 15.1.0, SVG Export Plug-In . SVG Version: 6.00 Build 0)  -->
<!DOCTYPE svg PUBLIC "-//W3C//DTD SVG 1.1//EN" "http://www.w3.org/Graphics/SVG/1.1/DTD/svg11.dtd">
<svg version="1.1" id="Layer_1" xmlns="http://www.w3.org/2000/svg" xmlns:xlink="http://www.w3.org/1999/xlink" x="0px" y="0px"
	 width="400px" height="400px" viewBox="1754.66 549.858 400 400" enable-background="new 1754.66 549.858 400 400"
	 xml:space="preserve">
<g>
	<g id="deeditor_bgCarrier">
		<rect id="dee_c_e" x="1754.66" y="549.858" fill="#1043B8" width="400" height="400"/>
	</g>
	<g>
		<path fill="#E6E7E8" d="M2137.105,669.97l-45.542,18.7c0,0,45.358-18.52,45.358-18.701h-131.485v2.541
			c-0.184,4.357-0.918,8.534-2.204,12.347c-1.652,5.446-4.224,10.531-7.713,14.888c-4.591,6.173-10.65,11.439-17.813,14.888
			c-0.184,0-0.367,0.182-0.367,0.182c-0.367,0.18-0.734,0.362-1.286,0.544h-0.184c-0.367,0.182-0.367,0.182-0.551,0.182h-0.184
			V669.97h-50.134c-0.918,0-1.836,0.726-1.836,1.634v7.262c1.469-1.999,3.856-3.269,6.611-3.269c1.469,0,2.938,0.364,4.04,1.09
			c0.184,0,0.367,0.182,0.551,0.182c0.551,0.362,0.918,0.726,1.285,0.906c1.47,1.091,2.755,2.362,3.856,3.813l2.571,3.995
			l5.142,8.17l-13.957,21.786c-0.734-0.362-1.285-0.542-2.203-1.088c-6.945-3.615-13.023-8.695-17.813-14.888
			c-3.319-4.537-5.921-9.559-7.713-14.888c-1.12-3.853-1.858-7.806-2.203-11.803c0-1.088-0.184-2.177-0.184-3.085h-130.751
			l44.991,18.701l-45.176-18.519c1.47,5.083,3.306,9.985,5.143,14.888l35.259,14.888h-28.465c2.571,5.083,5.326,10.167,8.447,14.888
			l60.785,14.888h-50.501c4.04,5.266,8.264,10.167,12.671,14.888l78.414,15.252h-62.621c6.428,5.446,13.223,10.349,20.385,14.888
			l82.638,14.889h-54.357c20.935,8.896,43.522,13.98,67.396,14.889h14.324c23.873-0.908,46.645-6.174,67.396-14.889h-54.357
			l82.821-14.889c7.162-4.541,13.957-9.622,20.384-14.888h-62.621l78.414-14.888c4.407-4.722,8.631-9.805,12.671-14.889h-50.5
			l60.784-14.89c2.938-4.901,5.877-9.803,8.447-14.888h-28.647l35.259-14.888C2133.984,679.955,2135.637,675.054,2137.105,669.97"/>
		<path fill="#99999B" d="M1951.63,685.402c3.854,0,6.979-3.088,6.979-6.899c0-3.812-3.124-6.898-6.979-6.898
			s-6.979,3.089-6.979,6.898C1944.651,682.314,1947.777,685.402,1951.63,685.402"/>
		<path fill="#E7E7E6" d="M2005.62,669.97h-0.184v2.541c-0.184,4.357-0.918,8.534-2.204,12.347
			c-1.652,5.446-4.224,10.531-7.713,14.888c-4.591,6.173-10.65,11.439-17.813,14.888c-0.184,0-0.367,0.182-0.367,0.182
			c-0.367,0.181-0.734,0.363-1.286,0.544h-0.184c-0.367,0.182-0.367,0.182-0.551,0.182h-0.184V669.97h-50.134
			c-0.918,0-1.836,0.726-1.836,1.634v7.262c1.469-1.999,3.856-3.269,6.611-3.269c1.469,0,2.938,0.364,4.04,1.09
			c0.184,0,0.367,0.182,0.551,0.182c0.551,0.362,0.918,0.726,1.285,0.906c1.47,1.091,2.755,2.362,3.856,3.813l2.571,3.995
			l5.142,8.17l-13.957,21.786c-0.734-0.362-1.285-0.542-2.203-1.088c-6.945-3.615-13.023-8.695-17.813-14.888
			c-3.319-4.537-5.921-9.559-7.713-14.888c-1.12-3.853-1.858-7.806-2.203-11.803c0-1.088-0.184-2.177-0.184-3.085h-130.751
			l44.991,18.701l1.469,0.544l1.286,0.908l134.424,99.316l134.424-99.134l1.285-0.908l1.47-0.544c0,0,45.358-18.519,45.358-18.701
			H2005.62z M1951.813,673.057c2.388,0,4.407,1.997,4.407,4.357c0,2.361-2.02,4.357-4.407,4.357s-4.407-1.997-4.407-4.357
			C1947.406,675.054,1949.426,673.057,1951.813,673.057"/>
		<path fill="#CED4D4" d="M2137.105,669.97l-45.542,18.7l-1.47,0.544l-1.285,0.908l-134.24,99.134l-134.607-99.132l-1.286-0.908
			l-1.469-0.544l-44.992-18.701c1.47,5.083,3.306,9.985,5.143,14.888l35.259,14.888h-28.465c2.571,5.083,5.326,10.167,8.447,14.888
			l60.785,14.888h-50.501c4.04,5.266,8.264,10.167,12.671,14.888l78.414,15.252h-62.621c6.428,5.446,13.223,10.349,20.385,14.888
			l82.638,14.889h-54.357c20.935,8.896,43.522,13.98,67.396,14.889h14.324c23.873-0.908,46.645-6.174,67.396-14.889h-54.357
			l82.821-14.889c7.162-4.541,13.957-9.622,20.384-14.888h-62.621l78.414-14.888c4.407-4.722,8.631-9.805,12.671-14.889h-50.5
			l60.784-14.89c2.938-4.901,5.877-9.803,8.447-14.888h-28.647l35.259-14.888C2133.984,679.955,2135.637,675.054,2137.105,669.97"/>
		<path fill="#0055A2" d="M1970.359,726.256h-74.741l17.263,29.412h86.678l17.262-29.412H1970.359z"/>
		<path fill="#CE2832" d="M1999.559,755.668h-29.199v49.93l16.16-27.596L1999.559,755.668z"/>
		<path fill="#F2F2F2" d="M1942.08,755.668v49.93l14.141,24.331l14.141-24.331v-49.93H1942.08z"/>
		<path fill="#CE2832" d="M1940.426,755.668h-27.545L1925.919,778l16.16,27.598v-49.93H1940.426z"/>
		<path fill="#FFFFFF" d="M1956.219,732.426l2.388,4.903l5.325,0.727l-3.855,3.813l0.918,5.266l-4.774-2.542l-4.959,2.542
			l1.103-5.266l-4.041-3.813l5.51-0.727L1956.219,732.426z M1984.684,732.426l2.387,4.903l5.51,0.727l-4.04,3.813l0.918,5.266
			l-4.774-2.542l-4.774,2.542l0.918-5.266l-3.856-3.813l5.325-0.727L1984.684,732.426z M1927.571,732.426l2.571,4.903l5.325,0.727
			l-3.856,3.813l0.919,5.266l-4.959-2.542l-4.774,2.542l0.918-5.266l-3.856-3.813l5.326-0.727L1927.571,732.426z"/>
	</g>
</g>
</svg>
