<svg xmlns="http://www.w3.org/2000/svg" xml:space="preserve" viewBox="1754.66 549.858 400 400"><path fill="#1043B8" d="M1754.66 549.858h400v400h-400z"/><path fill="#E6E7E8" d="m2137.105 669.97-45.542 18.7s45.358-18.52 45.358-18.701h-131.485v2.541c-.184 4.357-.918 8.534-2.204 12.347-1.652 5.446-4.224 10.531-7.713 14.888-4.591 6.173-10.65 11.439-17.813 14.888-.184 0-.367.182-.367.182-.367.18-.734.362-1.286.544h-.184c-.367.182-.367.182-.551.182h-.184V669.97H1925c-.918 0-1.836.726-1.836 1.634v7.262c1.469-1.999 3.856-3.269 6.611-3.269 1.469 0 2.938.364 4.04 1.09.184 0 .367.182.551.182.551.362.918.726 1.285.906a19.115 19.115 0 0 1 3.856 3.813l2.571 3.995 5.142 8.17-13.957 21.786c-.734-.362-1.285-.542-2.203-1.088a54.097 54.097 0 0 1-17.813-14.888 54.802 54.802 0 0 1-7.713-14.888 61.11 61.11 0 0 1-2.203-11.803c0-1.088-.184-2.177-.184-3.085h-130.751l44.991 18.701-45.176-18.519c1.47 5.083 3.306 9.985 5.143 14.888l35.259 14.888h-28.465c2.571 5.083 5.326 10.167 8.447 14.888l60.785 14.888h-50.501c4.04 5.266 8.264 10.167 12.671 14.888l78.414 15.252h-62.621c6.428 5.446 13.223 10.349 20.385 14.888l82.638 14.889h-54.357c20.935 8.896 43.522 13.98 67.396 14.889h14.324a192.913 192.913 0 0 0 67.396-14.889h-54.357l82.821-14.889c7.162-4.541 13.957-9.622 20.384-14.888h-62.621l78.414-14.888c4.407-4.722 8.631-9.805 12.671-14.889h-50.5l60.784-14.89c2.938-4.901 5.877-9.803 8.447-14.888h-28.647l35.259-14.888c2.204-5.263 3.857-10.164 5.325-15.248"/><path fill="#99999B" d="M1951.63 685.402c3.854 0 6.979-3.088 6.979-6.899 0-3.812-3.124-6.898-6.979-6.898s-6.979 3.089-6.979 6.898c0 3.811 3.126 6.899 6.979 6.899"/><path fill="#E7E7E6" d="M2005.62 669.97h-.184v2.541c-.184 4.357-.918 8.534-2.204 12.347-1.652 5.446-4.224 10.531-7.713 14.888-4.591 6.173-10.65 11.439-17.813 14.888-.184 0-.367.182-.367.182-.367.181-.734.363-1.286.544h-.184c-.367.182-.367.182-.551.182h-.184V669.97H1925c-.918 0-1.836.726-1.836 1.634v7.262c1.469-1.999 3.856-3.269 6.611-3.269 1.469 0 2.938.364 4.04 1.09.184 0 .367.182.551.182.551.362.918.726 1.285.906a19.115 19.115 0 0 1 3.856 3.813l2.571 3.995 5.142 8.17-13.957 21.786c-.734-.362-1.285-.542-2.203-1.088a54.097 54.097 0 0 1-17.813-14.888 54.802 54.802 0 0 1-7.713-14.888 61.11 61.11 0 0 1-2.203-11.803c0-1.088-.184-2.177-.184-3.085h-130.751l44.991 18.701 1.469.544 1.286.908 134.424 99.316 134.424-99.134 1.285-.908 1.47-.544s45.358-18.519 45.358-18.701H2005.62zm-53.807 3.087c2.388 0 4.407 1.997 4.407 4.357 0 2.361-2.02 4.357-4.407 4.357s-4.407-1.997-4.407-4.357c0-2.36 2.02-4.357 4.407-4.357"/><path fill="#CED4D4" d="m2137.105 669.97-45.542 18.7-1.47.544-1.285.908-134.24 99.134-134.607-99.132-1.286-.908-1.469-.544-44.992-18.701c1.47 5.083 3.306 9.985 5.143 14.888l35.259 14.888h-28.465c2.571 5.083 5.326 10.167 8.447 14.888l60.785 14.888h-50.501c4.04 5.266 8.264 10.167 12.671 14.888l78.414 15.252h-62.621c6.428 5.446 13.223 10.349 20.385 14.888l82.638 14.889h-54.357c20.935 8.896 43.522 13.98 67.396 14.889h14.324a192.913 192.913 0 0 0 67.396-14.889h-54.357l82.821-14.889c7.162-4.541 13.957-9.622 20.384-14.888h-62.621l78.414-14.888c4.407-4.722 8.631-9.805 12.671-14.889h-50.5l60.784-14.89c2.938-4.901 5.877-9.803 8.447-14.888h-28.647l35.259-14.888c2.201-5.265 3.854-10.166 5.322-15.25"/><path fill="#0055A2" d="M1970.359 726.256h-74.741l17.263 29.412h86.678l17.262-29.412h-46.462z"/><path fill="#CE2832" d="M1999.559 755.668h-29.199v49.93l16.16-27.596 13.039-22.334z"/><path fill="#F2F2F2" d="M1942.08 755.668v49.93l14.141 24.331 14.141-24.331v-49.93h-28.282z"/><path fill="#CE2832" d="M1940.426 755.668h-27.545L1925.919 778l16.16 27.598v-49.93h-1.653z"/><path fill="#FFF" d="m1956.219 732.426 2.388 4.903 5.325.727-3.855 3.813.918 5.266-4.774-2.542-4.959 2.542 1.103-5.266-4.041-3.813 5.51-.727 2.385-4.903zm28.465 0 2.387 4.903 5.51.727-4.04 3.813.918 5.266-4.774-2.542-4.774 2.542.918-5.266-3.856-3.813 5.325-.727 2.386-4.903zm-57.113 0 2.571 4.903 5.325.727-3.856 3.813.919 5.266-4.959-2.542-4.774 2.542.918-5.266-3.856-3.813 5.326-.727 2.386-4.903z"/></svg>