<svg xmlns="http://www.w3.org/2000/svg" xml:space="preserve" x="0" y="0" version="1.1" viewBox="0 0 2955 2888"><circle fill="#fff" cx="1481" cy="1420" r="1250" transform="rotate(-67.3 1480 1420)"/><path d="M2240 970c-13 5-27 10-41 12a840 840 0 11-1425-17c-13-3-27-8-40-15A882 882 0 10 2240 970zM994 737a837 837 0 01 1024 36l49-13a879 879 0 00-1120-41 693 693 0 01 47 18" fill="#c41230"/><path d="M1481 170a1250 1250 0 10 0 2500 1250 1250 0 00 0-2500zm0 2422a1173 1173 0 11 0-2345 1173 1173 0 01 0 2345" fill="#c0c2c4"/><path d="M1180 1169c-18-10-34-20-50-35-54-49-67-100-51-160 10-34 24-52 19-89-3-20-18-38-33-52a352 352 0 00-141-77c-39-13-152-48-201-93-12 33 12 77 41 83a82 82 0 00-57 30c19 23 57 46 89 46-15 10-32 30-38 42 27 15 70 27 104 25a153 153 0 00-34 39 350 350 0 00 108 28c-15 8-37 34-48 50 23 10 74 17 106 20a170 170 0 00-60 58 250 250 0 00 102 22 141 141 0 00-36 56c27 6 55 6 88 2-20 25-28 58-30 81a190 190 0 00 86-21c-6 20-4 47 4 67 10-3 23-7 36-14l-5-108zm1077-445c-50 45-130 57-213 85-64 20-103 33-159 78a72 72 0 00-30 64c2 36 8 51 10 101 0 36-13 65-28 82a203 203 0 01-55 44c0 30-2 60-4 97 13 7 30 13 40 16 10-20 10-47 5-67 25 15 60 20 86 21-2-23-10-56-30-81 32 4 60 4 87-2-6-20-18-40-35-56a250 250 0 00 101-22 170 170 0 00-60-58c33-3 85-10 109-20a193 193 0 00-50-50 350 350 0 00 108-29 150 150 0 00-34-38c40-3 77-10 104-25-6-11-24-32-38-42 84-23 85-65 86-98" fill="#005288"/><path d="M1902 813a736 736 0 00-810-21c30 22 47 46 51 71a170 170 0 01-6 87c-14 41-21 83 9 126 30 43 70 60 101 67 43-7 90-14 136-17 6-20 25-37 43-51 26-20 20-38 14-52-5-11-14-20-28-27-12-6-55-10-54 17-7-10-13-24-9-40 6-25 46-31 56-30-8-7-3-17 14-22 21-6 40-7 60-6 40 0 46 10 66 28 24 22 56 30 69 16a60 60 0 01-57 29 330 330 0 01 16 83c1 13 4 36 8 55 53 4 106 12 153 20 19-5 39-16 57-37 17-20 32-45 26-107-2-18-10-63-10-84 3-48 40-80 95-105" fill="#005288"/><path d="M1411 945c8 5 12 6 14 6l4 3 2 4 20-8 20-6c-35-7-40 3-60 0" fill="#005288"/><path d="M1480 1791h-7c-4-25-22-40-48-48l-111-35c-72-22-109-80-114-153-7-102-17-283-21-398a1390 1390 0 01 302-35c100 0 220 15 302 35-4 115-14 296-21 398-5 73-42 131-114 153l-111 35c-26 8-44 23-48 48h-8" fill="#fff"/><path d="m1460 1529-14-8-10-24-21-10-25-22-14 16-22 5-11 19-17 18-24 12-16 28-10 12-15 13-10-10-9 10-11 21a150 150 0 01-12-55c-4-48-7-109-10-170 79-18 180-30 263-30v188c-4-2-8-4-12-13" fill="#0078ae"/><path d="M1472 1620h-237a136 136 0 00 84 72c42 12 69 20 88 27l23 7c20 6 33 14 42 24v-130" fill="#5e9732"/><path d="M1722 1528c7-5 14-12 24-15l4-70-9 6c-10 10-25 20-50 20a90 90 0 01-50-16c-10-6-18-10-30-10s-23 6-35 13c-13 7-27 16-44 16-18 0-31-5-42-11v66l7 4c10 7 20 13 35 13 9 0 18-6 28-12 14-9 30-18 51-18 20 0 34 8 46 15a60 60 0 00 34 13c14 0 22-6 31-14zm-190 151c-18 0-31-5-42-10v80c10-9 23-18 42-23l23-8 88-27c12-4 23-9 33-15a100 100 0 01-35-15c-10-6-18-11-30-11s-23 6-35 13a87 87 0 01-44 16" fill="#005288"/><path d="M1722 1426c8-7 17-14 30-17l2-26c-80-17-182-28-264-30v72l7 4c10 7 20 12 34 12 10 0 18-5 29-11 14-9 30-18 51-18 20 0 34 8 46 15 10 7 20 12 34 12s22-6 31-13zM1490 1563v70l7 4a60 60 0 00 34 12c10 0 18-6 29-12 14-8 30-18 51-18 20 0 34 8 46 16 10 6 20 12 34 12a40 40 0 00 26-10 166 166 0 00 26-87l-2 2a70 70 0 01-50 20 90 90 0 01-50-16c-10-7-18-11-30-11s-23 6-35 13a86 86 0 01-44 16 80 80 0 01-42-11" fill="#0078ae"/><path d="m1207 1365-9-194c84-19 196-31 283-31s199 12 283 31l-10 194c-79-17-183-30-273-30s-194 13-274 30" fill="#005288"/><path d="m1263 1217 3-15-14-6 15-2 1-15 7 14 14-3-11 10 8 13-13-7zm92-12-13-9-11 11 4-14-13-7 15-1 2-15 5 14 15-3-11 10zm69-6-12-9-11 11 4-15-13-7 15-1 3-14 5 14 15-2-12 9zm69-1-12-10-12 10 6-14-13-9 15 1 4-15 4 15 15-1-12 9zm197 8-13 7 7-13-11-10 15 3 6-14 2 15 15 2-14 6 3 15zm-75-15-12-9 15 2 5-14 3 15 15 1-14 7 4 14-10-11-13 9zm-70-6-12-9 15 2 5-14 3 14 15 1-13 7 4 15-11-11-12 9zm-272 144 3-15-14-6 15-2 2-15 6 14 14-3-11 10 8 13-13-7zm89-11-12-9-11 11 4-15-14-7h15l3-16 5 15 15-3-12 10zm67-5-12-9-12 10 5-15-13-7h15l3-15 5 14 15-1-12 9zm66-1-12-10-11 10 5-15-12-8 15 1 3-15 5 15 15-1-13 8zm189 6-13 8 8-13-11-10 14 3 6-14 2 15 15 1-14 7 4 15zm-72-14-12-9 15 2 5-14 3 15 15 1-14 7 4 15-10-11-13 8zm-67-5-12-9 15 2 4-15 3 15h15l-13 8 5 14-11-10-13 9zm-239-36 3-15-13-7 15-1 2-15 5 14 15-2-11 9 7 14-13-8zm-67 10 3-15-13-6 15-2 1-15 6 14 15-3-11 10 8 14-14-8zm156-20-12-8-11 10 4-14-13-8h15l2-15 6 14 15-2-13 10zm66-3-12-9-11 10 5-14-13-8h15l3-15 5 15 15-1-12 8zm67 1-12-10-12 9 6-14-12-8 15 1 4-15 4 15h15l-13 8zm188 11-13 8 8-13-11-11 14 4 7-14 1 15 15 2-14 6 3 15zm-72-15-12-10 15 3 6-15 2 16 15 1-14 6 4 15-11-11-12 8zm-67-7-12-9 15 2 5-15 3 15 15 1-13 7 4 15-11-11-13 9" fill="#fff"/><path d="m2276 1522-61 19 13 6-20 13 5-38 34-28v15l39-51-59 26 15 4-27 22 4-46 33-37 3 15 30-56-54 34 15 2-26 28a712 712 0 00-30-241c-34 3-67-8-84-11 43 25 58 52 64 83-34 8-80-3-105-23 25 22 40 55 41 90-35 2-68-15-92-39a130 130 0 01 30 92c-29-3-64-23-82-46 15 35 23 63 20 94-28-6-50-14-77-39a190 190 0 01 15 90 125 125 0 01-76-58c10 28 17 65 10 87a98 98 0 01-63-56c15 32 13 68 8 86-12-2-28-10-36-20l-1 17c-1 20-6 40-12 59l8 10c15 16 35 30 52 36-7 1-17 7-27 8 11 12 33 15 47 29-11 1-13 9-26 8 24 18 46 19 59 20 5 1 21 3 32 1a60 60 0 01 36 9c9 5 8 17 6 24 0 3-2 8-10 11-3 1-5 2-2-1 4-3 7-19-1-25-6-4-14-8-24-7h-36c-8 0-12 10-13 14-3 10-6 22-20 16-18-10-43-10-71-21 4 9 2 16 7 26-26-6-32-20-56-28 4 10 2 16 8 24-20-3-40-21-68-30l-2 2-29 8c20 23 37 51 45 85 0 0-14 0-35-7a200 200 0 01 10 60s-16-3-38-17c2 20 1 40-3 62 0 0-18-7-40-30-3 21-8 42-17 63 0 0-16-11-34-38-7 20-17 41-30 60 0 0-19-19-31-58a156 156 0 01-32 36c-10-20-14-42-17-62-22 22-40 30-40 30-4-22-5-43-3-63a121 121 0 01-38 16c0-20 4-40 10-60-20 8-35 8-35 8 8-35 30-70 46-86l-24-7-3-1c-28 7-47 26-68 30 6-10 5-16 9-25-24 9-30 22-56 28 4-10 2-17 7-26-24 11-56 20-70 22-16 4-17-20-22-25-3-2-15-3-20-2h-35c-12 0-20 3-25 8-9 6-5 22-1 25 4 3 1 2-3 1-6-3-8-8-10-11 0-7-1-20 8-24a60 60 0 01 36-9 146 146 0 00 97-27c-12 2-15-6-25-7 13-14 35-17 46-29-10-1-18-9-25-10 21-12 35-19 50-35l9-10c-7-17-12-37-13-58l-1-16c-5 6-16 12-34 18-8-20-4-57 6-86-14 30-31 48-60 57-7-21-3-59 7-87-19 32-40 48-73 60-3-26 0-60 12-92a136 136 0 01-78 39 190 190 0 01 22-94 143 143 0 01-88 42c2-27 21-63 32-85-28 20-57 34-90 36a190 190 0 01 42-90 150 150 0 01-101 27c7-33 28-66 56-83-17 3-46 10-80 7-20 66-30 136-30 208-17-13-29-16-40-28l6 44c3 35 16 55 38 68l4 30a110 110 0 00-67-17c18 57 43 60 76 66l4 16c-18-5-40-5-64 2 17 26 40 42 78 47v1a130 130 0 00-68 12c29 24 56 33 83 30l4 10a120 120 0 00-50 27c22 7 45 11 65 9l1 1a85 85 0 00-29 48c16-4 32-5 48-10l10 18a85 85 0 00-6 59 90 90 0 00 34-16l10 14c-4 26 2 52 17 70l16-20c33-52 13-88 14-121v-2c3 39 37 78-3 125l-2 3a737 737 0 00 1254-226l33-15-2 15 48-42-62 13 13 7-26 10 13-39 37-20-2 15 45-47-61 20 13 5-30 16c5-14 8-29 11-44l28-18v15l43-46" fill="#005288"/><path d="M1092 1791c60 46 94 109 103 160-8-6-22-12-30-10-8-54-36-97-80-132 2-8 4-14 7-18zm-46 47c14 6 21 4 25-1 8-11 4-25-1-28v14c-1 4-3 11-11 10a40 40 0 01-17-5c-3-2-3-8-1-13 0-2 2-6 5-8-5 1-8 4-12 7-3 3-10 3-12 0l-8-11c-4-8 6-14 12-17-10 0-12 4-20 3-8-2-10-15-10-19 0-3 4-6 9-7h13l-1-8c-8-2-24 1-27 6-4 5-3 9 0 19 3 10 5 13 12 14h9c-2 0-4 1-5 4 0 3-2 7 5 16 7 8 14 12 20 9 3-2 4-4 5-6l-2 7c-2 8 4 11 12 14" fill="#fff"/><path d="M1035 1776c4-5 14-6 20-3a40 40 0 00-2 26c-14-3-17-16-18-23zm23-1c8 0 10-5 12-9 2-4 6-6 7 0 0 6 0 9-4 10-3 2-10 2-15-1zm4 13a30 30 0 01-6 13l-7 7c4 3 10 4 14 4 4 0 5 0 4-2 0-8-4-19-5-22zm838-20c5 7 5 20 3 25 14-2 16-15 17-22-4-5-14-6-20-3zm-2 2c-8 0-11-5-13-9-1-4-6-7-6 0 0 6 0 8 3 10 4 2 10 2 16-1zm0 26c-2-4-4-9-4-13-2 3-5 14-6 21 0 2 0 3 4 3 5 0 10-1 14-4l-7-7" fill="#fff"/><path d="m2146 1570 15 4-217 170-5 5-1 7h10c5 2 10 5 10 8-1 5-3 18-11 19-9 1-10-3-20-3 5 3 15 9 12 17-2 3-4 6-9 10-3 4-9 3-12 0-4-3-7-6-12-7 3 2 4 6 5 8 2 5 2 10-2 13-4 3-12 5-17 5-7 0-10-6-10-10V1800c-5 3-9 17-2 28 4 5 10 7 26 2 7-2 13-5 12-13l-2-7c1 1 2 3 6 5 5 3 12 0 19-8 8-9 6-13 5-16 0-2-2-4-4-5 4 2 7 1 9 1 6 0 9-4 12-14 3-10 4-13 0-19 0-2-6-4-12-5l215-170v15l39-51-59 26zm-115 52 153-193 3 15 26-59-50 39h14L2039 1600c-10 17-22 34-33 50l25-27" fill="#fff"/><path d="m2013 1680 39-31 127-118 2 15 34-54-56 30 14 3-127 118-33 37zm140-28-178 90-7 5 3 4v1l187-93-3 15 48-42-62 13 13 7zm-270 190-7-4-31 66-12 4-38 72 18-5 7 18 36-74-4-12 32-65" fill="#fff"/><path d="m2008 1716 41-21 119-78v15l42-47-60 20 13 5-130 85-25 20zM1870 1824v-11l-43 46-13 1-1 1-60 60h4l15-1 2 14 50-64 9-2 37-44zm78-93 22-17 209-228 3 15 30-57-54 35 15 2-219 239-6 12zm-186 157 77-55 22-24-97 64-12-3-7 5-62 39 17 3 2 14 50-44h10zm-65 7 31-20 30-20 10 2s70-43 87-55h2l-93 46-12-4-74 35 17 6 2 10zm350-430 15-3-134 271 3 2 4 3 134-272 7 13 13-62-42 48zm16 45h15l-84 127-28 57 1-2 118-178 5 14 20-60-47 43zm-1230 161c2 0 1 0 0 0a94 94 0 00-70-13c30 2 50 6 70 13zm14 157c3-21 17-47 38-64 14-12 23-16 10-4-18 20-40 51-48 68zm45 59c-8-20 0-53 8-74 6-15 20-37 25-39a308 308 0 00-33 113zm-67-281c-1-8-9-13-16-11-8 1-13 9-11 16 1 8 9 13 16 11 8-1 13-9 11-16zm123 20c0-22-3-44 0-68-42 30-57 84-40 121h-5a15 15 0 10 18 12c-1-4-4-7-7-10-7-33-1-74 16-91-5 20-15 64-8 104a150 150 0 00 15-23l5 20a100 100 0 01 45-86 200 200 0 00-41 94c18-22 58-29 60-117-20 6-44 21-58 43zm28 90a15 15 0 10-30 5 15 15 0 00 30-6zm-6 46a15 15 0 10-30 5 15 15 0 00 30-5" fill="#fff"/><path d="M882 1536a98 98 0 00-37 87h-3c-7 2-10 8-10 14a12 12 0 00 18 8c3 8 7 16 12 22l-6-30v-5c-2-24 2-50 15-68-4 27-10 78-4 110 9-34 57-49 15-138zm124 200a12 12 0 10-23 5 12 12 0 00 23-5zm-66-2a10 10 0 00-13-9 10 10 0 00-8 13c1 6 7 10 13 9 6-2 10-7 8-13zm-150-150a10 10 0 00-10-10c-15-20-37-42-73-46 20 10 50 28 71 47a10 10 0 00-7 12c0 5 6 9 11 8 6 0 10-6 9-12zm1-70c-1-7-8-12-15-10-10-33-17-58-54-84a500 500 0 01 52 84 13 13 0 00 7 25c7-2 12-8 10-15zm38 128c-1-6-6-10-12-8a10 10 0 00-6 4c-33-30-56-30-73-30 10 3 48 14 72 30-1 3-2 5-1 7 0 6 6 10 11 8 6 0 10-6 9-11zm27 40a15 15 0 10-28 6 15 15 0 00 28-5zm21 26c0-6-6-10-11-8a10 10 0 00-8 5c-28-3-60 0-85 15a390 390 0 01 85-13v4c0 6 6 10 11 9 6-1 10-7 8-12zm30 17c-2-7-9-12-16-10-7 0-11 8-10 15H880c-21-1-56 5-78 30 22-13 57-26 79-30a13 13 0 00 26-5" fill="#fff"/><path d="M2407 970c35-15 74-8 84 15s-11 57-46 72c-34 15-74 8-84-15s12-57 46-72zm53 120c44-20 64-68 45-110a83 83 0 00-110-40 83 83 0 00-46 109c18 42 68 60 111 40zm-60 113-17-65 10-3 5 18 139-35-5-18 10-3 26 100 6-2 3 13-38 10-3-13 17-5-13-50-57 15 10 38 17-4 3 13-47 12-4-13 17-4-10-39-64 17 4 16-10 3zM454 1026l-6 20 90 27c27 8 40 22 44 46 2 12 1 24-3 36-11 39-40 58-73 48l-96-29-6 18-10-3 20-66 10 3-5 18 89 26c24 7 36 6 47-4 4-5 8-11 10-19 8-28-3-50-33-59l-88-26-6 20-10-3 16-56 10 3zm158 39a17 17 0 11-30-13 17 17 0 01 30 13zm30-71-6 12-39-22 7-12 16 9c13-5 20-11 26-22 8-13 5-28-6-34-10-6-20-3-45 10a109 109 0 01-39 17c-10 2-20 0-29-6-24-13-30-40-15-66a50 50 0 01 18-20l-7-5 7-11 37 20-6 12-15-8c-11 6-17 10-21 18-7 12-4 25 7 30 8 6 17 4 42-10l22-12a50 50 0 01 48 2c24 13 32 41 17 67-7 12-14 20-26 27l8 4zM709 880c0 10-7 16-16 16-10 0-16-7-16-16 0-9 7-16 16-16 9 0 16 7 16 16zm384-320-105 55-5-10 17-8L934 470l-16 10-5-10 91-47-3-6 12-7 18 36-12 6-8-16-46 24 27 52 35-19-8-15 12-6 23 44-12 6-8-15-36 18 29 55 48-25-9-17 12-6 15 30zm102-36-69 23-3-10 18-6-45-136-18 6-3-10 71-24c30-10 55 2 63 29 9 26-7 54-34 63-4 2-7 2-14 3l-3-11 6-2c16-5 21-20 14-40-7-23-20-31-37-26l-14 5 44 133 20-7 4 10zm81-90 14-66 34 57-48 8zm121 35-10 1-88-146-15 3-36 168-15 2 1 10 51-8-2-10-20 3 10-43 60-10 21 37-17 3 2 10 60-10-2-10zm71-140h16c18 0 28 11 28 31s-12 34-30 34h-14v-65zm101 140h-10c-5 0-8-2-14-11l-35-55c24-7 35-21 35-44 0-13-4-23-12-32-9-9-20-12-42-12h-74v10h20l-1 144h-19v10h70v-10h-19v-63h7l37 59c9 13 11 14 26 14h32v-10zm113 30-79-13 2-10 23 4 24-138-43-7-3 20-14-2 7-42 14 3-1 7 116 20 1-8 14 3-7 41-14-2 4-20-43-7-23 137 24 4-2 10zm233 79-70-27 5-10 20 8 38-100-95 92L1800 410l-38 98 20 8-4 10-54-21 4-10 20 8 51-134-20-8 4-10 42 17 13 129 90-90 46 18-4 10-20-7-50 132 20 8-4 10zm121 80-100-65 6-8 16 10 77-121-16-10 6-10L2110 510l4-6 11 7-21 34-11-7 10-15-44-28-32 50 34 20 9-14 11 7-26 42-12-7 10-15-34-21-33 52 45 29 10-16 12 7-18 28zM931 554A82 82 0 00 815 540l-62 46 6 8 15-11L860 697l12 5 42-30c20-15 30-30 33-52 4-24-1-46-15-65zm-32 110-16 11-81-110 17-13c24-17 62-6 84 23 23 32 22 70-4 88zm1350-42-8 8 15 13-70 77 17-139-37-33-7 7 14 12-3 15-88 97-15-14-7 8 40 37 7-7-14-14 73-80-16 128 50-13 3-2 63-68 16 14 7-8-42-38zm167 181-6 4-71-93 5-5-8-10-34 25 9 11 16-12 26 34-110 84-6-7-10 5 41 53 9-6-15-20 110-84 27 34-17 13 9 10 33-25-8-10zm-728 1711-14 3-10-43 14-3 4 18c13 6 22 7 34 5 15-4 24-15 20-28-2-10-10-17-36-26a120 120 0 01-39-18 42 42 0 01-15-25c-6-27 10-50 40-56 10-2 17-2 27 0l-2-7 14-3 9 41-13 3-4-17c-12-4-19-5-28-3-13 3-20 14-18 25 2 10 10 15 36 25l24 9a48 48 0 01 30 36c7 28-10 51-38 58-14 3-25 2-37-2l2 8zm253-80-110 44-4-10 17-6-52-134-18 7-3-10 95-37-2-7 12-5 15 37-13 5-6-17-48 20 21 54 37-15-6-15 12-6 18 46-12 5-7-16-37 15 23 57 50-20-7-17 13-5 12 30zm166-100a137 137 0 01-40 36c-45 28-96 17-121-26a84 84 0 01 30-118 95 95 0 01 40-15l-5-9 11-7 24 38-12 7-8-13c-18-1-26 0-37 7-30 18-36 56-14 90 20 35 60 48 90 30 10-6 16-13 22-25l-10-16 13-8 17 29zm75-257-16 14 64 69c19 20 23 40 14 62a87 87 0 01-21 30c-30 27-64 28-88 3l-67-74-14 12-7-7 51-47 7 7-13 13 62 69c17 18 28 24 42 20a50 50 0 00 19-10c22-20 23-45 2-68l-62-68-16 14-7-8 43-39 7 8zm280-146-34 62-9-5 10-17-127-68-10 16-8-5 33-61 10 5-10 16 127 69 8-17 10 5zm63-149-28 75-10-3 9-23-130-50-16 41 20 8-5 12-40-15 5-12 7 2 41-110-6-3 4-13 40 15-5 13-19-7-15 40 130 49 9-22 10 3zM2570 1600l-13 69-10-2 3-19-67-13-83 34-3 15-10-2 13-68 10 2-3 18 60-24-47-43-4 20-10-1 10-57 10 2-3 18 60 53 73 15 4-19 10 2zm-167 422-6 8c-4 4-7 5-18 5l-64-4c8-23 3-41-15-54a40 40 0 00-33-10c-13 2-22 10-35 27l-44 59 9 6 10-15 116 85-11 16 8 6 42-56-9-6-10 15-51-38 4-5 70 5c15 0 17 0 26-12l20-26-10-6zM2230 2020l10-12c10-14 25-16 41-4 16 12 20 30 10 43l-9 12-52-39zM428 1753l-17-68 10-2 5 18 63-15-19-80-63 16 4 18-10 3-17-68 10-2 5 18 140-34-5-18 10-3 17 68-10 2-5-18-61 15 19 79 61-15-4-18 10-3 17 68-10 3-5-19-140 34 5 19-10 2zm95 38c34-16 74-10 84 13s-10 57-45 73c-35 16-74 10-85-14-10-22 11-56 46-72zm53 118c44-20 63-69 44-110a83 83 0 00-112-40 83 83 0 00-44 110c20 42 70 60 112 40zm64 237-44-60 9-6 12 16 87-63-130 27 60-118-84 61 12 17-9 7L520 1980l8-6L540 1990l116-85-12-16 9-7 25 36-59 116 125-26 29 40-9 6-12-17-116 84 12 17-8 7zm130 127-88-80 7-8 14 13 97-106-14-13 8-7 75 70 5-6 10 10-27 28-10-9 12-13-38-35-40 43 30 27 11-12 10 9-33 36-10-10 11-12-29-27-42 45 40 37 13-14 10 10-23 24zm148 102-98-66 6-9 16 11 80-120-16-10 6-8L970 2210l-6 10-15-11-78 115 44 30 10-15 11 7-18 28zm99-22 49-46-5 67-44-20zm80 98-10-4 10-170-13-7-125 118-14-6-4 10 47 20 4-9-18-8 31-30 55 25-2 43-16-7-4 10 55 24 4-9zM1270 2510l-17-4-56-140-26 107 20 4-3 10-55-13 3-10 20 5 30-127-5-14-17-5 2-10 49 12 51 130 25-101-20-5 3-10 55 13-3 10-20-5L1270 2510zm161-152-77-3v10l18 1-5 143h-19v10l77 3c24 1 42-5 59-20a84 84 0 00 28-60 82 82 0 00-80-84zm46 83c-2 40-26 68-58 67h-20l5-137h21c30 2 53 34 52 70" fill="#005288"/><path d="M853 1466c-48 20-70 80-45 124 22-32 64-39 45-124zm-45 121c-6-23 9-87 30-100-13 30-20 60-30 100zm-3-210a98 98 0 00-47 55l10 14c5-20 17-44 28-54a280 280 0 00-23 64 90 90 0 01 7 38c30-27 40-73 25-117" fill="#fff"/></svg>
