<svg xmlns="http://www.w3.org/2000/svg" viewBox="0 0 295.51 288.76" xmlns:v="https://vecta.io/nano"><circle transform="matrix(.3856 -.9227 .9227 .3856 -39.9933 223.8667)" cx="148.1" cy="141.96" r="125" fill="#fff"/><path d="M224.05 97.06c-1.4.48-2.8.87-4.16 1.16 7.78 12.74 12.27 27.72 12.27 43.74 0 46.41-37.62 84.04-84.04 84.04-46.41 0-84.04-37.63-84.04-84.04 0-16.72 4.89-32.31 13.31-45.4-1.34-.39-2.65-.9-3.96-1.52-8.56 13.59-13.51 29.68-13.51 46.92 0 48.71 39.49 88.2 88.2 88.2s88.2-39.49 88.2-88.2c0-16.4-4.48-31.75-12.27-44.9zM99.26 73.58c13.77-9.85 30.64-15.66 48.86-15.66a83.7 83.7 0 0 1 53.56 19.28 185.57 185.57 0 0 1 4.87-1.31 87.87 87.87 0 0 0-58.43-22.13A87.79 87.79 0 0 0 94.67 71.8l2.12.79 2.47.99z" fill="#c41230"/><path d="M148.1 16.96c-69.03 0-125 55.96-125 125s55.97 125 125 125c69.04 0 125-55.96 125-125 0-69.03-55.96-125-125-125zm0 242.26c-64.76 0-117.26-52.5-117.26-117.26 0-64.75 52.5-117.25 117.26-117.25 64.75 0 117.25 52.5 117.25 117.25.01 64.76-52.49 117.26-117.25 117.26z" fill="#c0c2c4"/><path d="M117.94 116.9c-1.78-.91-3.34-1.97-5.01-3.49-5.36-4.89-6.63-10.03-5.05-15.93.94-3.51 2.38-5.28 1.89-8.95-.28-2.1-1.77-3.79-3.25-5.21-3.59-3.45-7.84-5.58-14.12-7.69-3.88-1.3-15.16-4.81-20.14-9.31-1.12 3.31 1.28 7.71 4.15 8.3-2.54.26-4.71 1.58-5.72 3.02 1.91 2.22 5.74 4.53 8.9 4.59-1.46.98-3.23 3.05-3.83 4.21 2.73 1.45 7.08 2.67 10.43 2.44-1.41 1.13-2.63 2.56-3.42 3.87 2.27 1.03 6.67 2.53 10.87 2.85-1.55.76-3.75 3.4-4.89 5.02 2.36 1.06 7.47 1.69 10.64 2.01-2.27 1.2-4.64 3.58-5.95 5.73 2.3 1.1 6.62 2.33 10.15 2.22-1.74 1.67-2.89 3.7-3.55 5.66 2.67.55 5.49.56 8.74.12-1.98 2.5-2.77 5.81-3.05 8.18 2.65-.08 6.17-.68 8.65-2.17-.54 2.03-.42 4.76.45 6.7 1.04-.23 2.25-.67 3.56-1.38l-.45-10.79zm107.71-44.51c-4.98 4.51-12.94 5.71-21.3 8.48-6.3 2.08-10.21 3.29-15.84 7.79-1.61 1.28-3.14 3.16-2.97 6.4.19 3.6.78 5.15.87 10.18.07 3.58-1.17 6.47-2.67 8.17-1.59 1.8-3.66 3.37-5.51 4.34l-.42 9.7c1.31.71 2.99 1.38 4.03 1.61.87-1.93.99-4.67.45-6.7 2.48 1.49 6 2.09 8.65 2.17-.28-2.37-1.07-5.68-3.05-8.18 3.25.44 6.07.42 8.74-.12-.66-1.96-1.81-4-3.55-5.66 3.53.11 7.86-1.11 10.16-2.22-1.31-2.15-3.68-4.53-5.95-5.73 3.17-.32 8.42-.93 10.78-1.99-1.14-1.62-3.49-4.28-5.03-5.05 4.2-.31 8.6-1.81 10.87-2.85-.8-1.31-2.02-2.74-3.42-3.87 3.93-.26 7.7-.99 10.43-2.44-.6-1.16-2.38-3.24-3.83-4.21 8.41-2.33 8.55-6.54 8.56-9.82zm-35.43 8.9c-11.95-8.3-26.46-13.17-42.12-13.17-14.27 0-27.59 4.05-38.89 11.05 2.93 2.28 4.67 4.68 5.09 7.18.37 2.19.63 4.83-.64 8.69-1.34 4.09-2.08 8.29.94 12.56 3 4.25 6.91 6.08 10.14 6.7h0c4.23-.74 8.93-1.35 13.6-1.72h0c.61-1.98 2.42-3.7 4.22-5.1 2.63-2.04 2.05-3.83 1.42-5.22-.48-1.08-1.42-1.97-2.77-2.67-1.18-.61-5.51-1.06-5.4 1.71-.7-1-1.28-2.36-.86-4.09.58-2.41 4.53-3.03 5.51-2.96-.76-.64-.29-1.68 1.44-2.16 2.1-.58 4.09-.67 6.01-.62 3.96.1 4.58 1.07 6.59 2.85 2.42 2.15 5.62 2.9 6.88 1.6-.9 2.06-3.78 3.16-5.63 2.84.9 2.85 1.22 5.33 1.54 8.32.15 1.36.43 3.65.8 5.52 5.31.44 10.63 1.17 15.27 2.06h0c1.93-.56 3.92-1.69 5.71-3.76 1.7-1.96 3.26-4.45 2.62-10.71-.18-1.76-1.06-6.27-.94-8.4.29-4.81 3.86-7.95 9.47-10.5zm-49.09 13.19c.73.55 1.16.62 1.41.57.02.13.26.31.32.36.16.14.24.27.29.42l2.02-.79 1.94-.62c-3.51-.74-4.04.33-5.98.06z" fill="#005288"/><path d="M148.09 179.11h-.79c-.39-2.48-2.2-4.02-4.83-4.83l-11.11-3.46c-7.19-2.21-10.86-8-11.36-15.27l-2.11-39.82c8.11-2 20.1-3.56 30.19-3.56 10.1 0 22.08 1.57 30.2 3.56-.38 11.49-1.41 29.55-2.11 39.82-.49 7.28-4.16 13.06-11.36 15.27l-11.11 3.46c-2.63.81-4.44 2.35-4.83 4.83h-.78" fill="#fff"/><path d="M146.03 152.87l-1.47-.73-.95-2.49-2.16-.94-2.42-2.17-1.44 1.59-2.15.5-1.14 1.82-1.74 1.84-2.36 1.25-1.63 2.76-.92 1.22-1.59 1.24-.88-.93-.94.9-1.18 2.18c-.62-1.62-1-2.89-1.19-5.5l-1.04-17.1c7.97-1.72 18.11-2.86 26.35-2.93v18.82c-.37-.22-.76-.4-1.15-1.33z" fill="#0078ae"/><path d="M147.18 161.94h-23.69a14.08 14.08 0 0 0 1.21 2.06c1.71 2.39 4.14 4.17 7.22 5.11l8.8 2.74 2.32.72c1.9.59 3.22 1.44 4.15 2.38v-13.01z" fill="#5e9732"/><path d="M172.2 152.78c.65-.52 1.39-1.13 2.38-1.49l.43-7.02c-.26.17-.54.39-.87.66-1.13.91-2.54 2.05-5.02 2.05-2.33 0-3.84-.92-5.05-1.67-.99-.61-1.78-1.09-2.93-1.09-1.28 0-2.38.66-3.55 1.36-1.25.75-2.68 1.61-4.43 1.61-1.79 0-3.09-.54-4.14-1.13v6.65l.7.42c1.06.65 1.98 1.22 3.44 1.22.9 0 1.8-.54 2.85-1.17 1.41-.84 3-1.79 5.13-1.79 2.02 0 3.36.82 4.54 1.54 1.06.66 1.97 1.22 3.44 1.22 1.39.01 2.14-.6 3.08-1.37zm-19.05 15.16c-1.79 0-3.09-.54-4.14-1.13v8.14c.93-.95 2.26-1.8 4.15-2.38l2.32-.72 8.8-2.74c1.22-.37 2.34-.88 3.35-1.5-1.52-.29-2.63-.96-3.56-1.54-.99-.61-1.78-1.09-2.93-1.09-1.28 0-2.38.66-3.55 1.36-1.26.75-2.69 1.6-4.44 1.6z" fill="#005288"/><path d="M172.2 142.55c.78-.63 1.7-1.38 3.01-1.67l.15-2.57c-7.97-1.71-18.11-2.85-26.35-2.93v7.11l.7.42c1.06.65 1.98 1.22 3.44 1.22.9 0 1.8-.54 2.85-1.17 1.41-.84 3-1.8 5.13-1.8 2.02 0 3.36.83 4.54 1.55 1.06.65 1.97 1.21 3.44 1.21 1.4 0 2.15-.6 3.09-1.37zm-23.19 13.75v6.93l.7.42c1.06.66 1.98 1.22 3.44 1.22.9 0 1.8-.54 2.85-1.17 1.41-.84 3-1.8 5.13-1.8 2.02 0 3.36.83 4.54 1.55 1.06.65 1.97 1.21 3.44 1.21 1.13 0 1.84-.4 2.58-.96 1.52-2.25 2.4-5.04 2.62-8.29l.03-.41a2.8 2.8 0 0 0-.2.16c-1.13.91-2.54 2.06-5.02 2.06-2.33 0-3.84-.92-5.05-1.67-.99-.62-1.78-1.1-2.93-1.1-1.28 0-2.38.66-3.55 1.36-1.25.75-2.68 1.6-4.43 1.6-1.8.02-3.1-.52-4.15-1.11z" fill="#0078ae"/><path d="M120.73 136.51l-.91-19.39c8.4-1.91 19.53-3.16 28.27-3.16s19.88 1.25 28.27 3.16l-.91 19.39c-7.91-1.68-18.38-2.92-27.36-2.92-8.97 0-19.44 1.24-27.36 2.92z" fill="#005288"/><path d="M126.25 121.69l.31-1.49-1.38-.63 1.5-.16.16-1.51.62 1.39 1.47-.31-1.12 1.02.75 1.33-1.3-.77zm9.22-1.22l-1.28-.83-1.05 1.09.37-1.48-1.35-.68 1.51-.09.22-1.51.56 1.42 1.49-.25-1.17.97zm6.92-.53l-1.23-.9-1.11 1.04.45-1.46-1.32-.75 1.51-.02.31-1.49.48 1.44 1.49-.17-1.21.91zm6.91-.15l-1.17-.97-1.18.97.54-1.43-1.26-.84 1.5.08.4-1.47.39 1.47 1.5-.08-1.26.84zm19.69.78l-1.3.77.75-1.33-1.12-1.02 1.47.31.62-1.39.16 1.51 1.5.16-1.38.63.31 1.49zm-7.52-1.45l-1.17-.97 1.49.24.55-1.42.23 1.51 1.51.08-1.35.69.38 1.48-1.06-1.09-1.28.83zm-6.98-.57l-1.21-.91 1.5.17.48-1.45.3 1.49 1.51.02-1.31.75.45 1.46-1.11-1.03-1.23.89zm-27.23 14.34l.32-1.49-1.38-.64 1.5-.15.17-1.51.61 1.4 1.47-.3-1.12 1.01.74 1.33-1.3-.78zm8.97-1.14l-1.27-.83-1.07 1.08.39-1.48-1.35-.7 1.51-.07.24-1.51.54 1.42 1.49-.23-1.17.96zm6.64-.48l-1.22-.9-1.12 1.03.46-1.45-1.31-.76 1.51-.01.31-1.49.47 1.45 1.5-.17-1.22.91zm6.66-.12l-1.18-.97-1.17.97.54-1.43-1.26-.83 1.5.07.39-1.47.4 1.47 1.5-.07-1.26.83zm18.91.69l-1.3.78.75-1.33-1.12-1.02 1.47.31.61-1.4.16 1.52 1.51.15-1.38.63.32 1.49zm-7.26-1.4l-1.17-.96 1.49.24.54-1.43.24 1.51 1.5.09-1.34.69.38 1.48-1.06-1.09-1.28.84zm-6.72-.53l-1.21-.91 1.5.17.48-1.45.3 1.49 1.51.02-1.32.75.46 1.46-1.12-1.04-1.23.9zm-23.9-3.63l.35-1.49-1.36-.67 1.51-.11.2-1.51.57 1.41 1.49-.26-1.15.98.71 1.35-1.28-.81zm-6.62 1.05l.3-1.5-1.38-.62 1.5-.17.14-1.51.63 1.39 1.47-.32-1.11 1.03.77 1.32-1.32-.77zm15.57-1.99l-1.25-.86-1.09 1.06.42-1.47-1.33-.73 1.51-.04.27-1.5.51 1.43 1.5-.2-1.2.94zm6.62-.31l-1.2-.93-1.14 1 .49-1.44-1.29-.79 1.51.03.34-1.49.44 1.46 1.5-.12-1.23.87zm6.63.08l-1.14-1-1.21.93.6-1.42-1.24-.87 1.5.13.44-1.46.34 1.48 1.51-.02-1.29.79zm18.86 1.13l-1.33.74.78-1.31-1.09-1.04 1.46.34.65-1.38.12 1.51 1.5.19-1.39.6.28 1.5zm-7.23-1.56l-1.16-.99 1.49.27.58-1.41.2 1.51 1.5.12-1.36.66.36 1.49-1.05-1.11-1.29.8zm-6.69-.68l-1.2-.94 1.5.2.51-1.43.27 1.5 1.51.05-1.33.72.42 1.47-1.09-1.06-1.25.86z" fill="#fff"/><path d="M227.58 152.21l-6.11 1.88 1.38.56-2.14 1.36.62-3.77 3.36-2.81.08 1.49 3.78-5.16-5.82 2.67 1.44.38-2.68 2.24.42-4.67 3.31-3.66.28 1.46 3.05-5.62-5.41 3.42 1.48.18-2.64 2.83.06-2.93c0-7.37-1.08-14.49-3.09-21.21-3.35.31-6.7-.76-8.31-1.07 4.29 2.51 5.77 5.23 6.4 8.35-3.43.77-8.01-.36-10.51-2.32 2.46 2.15 4 5.52 4.11 9-3.54.18-6.8-1.48-9.2-3.88 1.54 1.71 3.49 6.06 3.03 9.15-2.95-.31-6.43-2.24-8.31-4.55 1.56 3.46 2.31 6.25 2.13 9.35-2.94-.55-5.16-1.38-7.79-3.88 1.27 3.15 1.73 6.32 1.45 8.93-3.39-1.2-5.64-2.54-7.55-5.74 1.01 2.81 1.68 6.51.97 8.66-2.87-.86-4.76-2.58-6.25-5.51 1.47 3.11 1.29 6.72.79 8.6-1.2-.24-2.77-1.07-3.61-1.99l-.11 1.64c-.14 2.1-.56 4.07-1.24 5.88l.82.96c1.51 1.62 3.57 3.16 5.2 3.68-.71.1-1.67.71-2.64.81 1.08 1.22 3.27 1.49 4.63 2.88-1.06.12-1.31.89-2.58.75 2.44 1.88 4.67 1.95 5.92 2.1.5.06 2.14.21 3.18.05 1.47-.23 2.99.51 3.58.85.9.53.85 1.77.68 2.4-.11.38-.27.83-.95 1.18-.39.11-.63.14-.25-.15.36-.26.68-1.84-.14-2.45-.6-.44-1.44-.8-2.43-.76-1.1.05-2.79.15-3.6.07-.75-.08-1.21.91-1.32 1.32-.27.98-.57 2.2-1.99 1.59-1.74-1-4.23-.92-7.08-2.06.41.88.23 1.63.67 2.61-2.54-.62-3.18-1.91-5.6-2.76.4.89.29 1.57.84 2.4-2.04-.36-3.94-2.19-6.78-2.95-.09.03-.17.05-.26.08l-2.83.87c2.01 2.28 3.67 5.07 4.44 8.45 0 0-1.41.04-3.51-.69.6 1.84.97 3.82 1 5.94 0 0-1.59-.29-3.77-1.64.19 2 .12 4.08-.29 6.22 0 0-1.84-.75-4.01-2.97-.25 2.07-.77 4.17-1.66 6.24 0 0-1.67-1.14-3.39-3.8a24.14 24.14 0 0 1-3.07 6.05s-1.83-1.92-3.07-5.8c-1.66 2.48-3.23 3.55-3.23 3.55-.89-2.08-1.41-4.18-1.66-6.24-2.17 2.21-4.01 2.97-4.01 2.97-.42-2.14-.49-4.23-.3-6.23-2.18 1.35-3.77 1.64-3.77 1.64a20.42 20.42 0 0 1 1.01-5.94c-2.1.73-3.51.69-3.51.69.79-3.45 3.05-6.99 4.56-8.58l-2.4-.74c-.09-.03-.17-.05-.26-.08-2.84.76-4.74 2.59-6.78 2.95.54-.84.43-1.52.83-2.4-2.42.85-3.06 2.14-5.59 2.76.43-.98.26-1.73.67-2.61-2.35 1.15-5.58 1.95-7.01 2.25-1.57.33-1.67-2.02-2.19-2.54-.23-.23-1.49-.33-2.02-.24-.78.13-2.31.07-3.45.04-1.14-.02-1.92.32-2.52.77-.83.61-.44 2.25-.08 2.52.39.29.15.26-.24.15-.68-.35-.84-.8-.95-1.18-.17-.63-.23-1.87.68-2.4.59-.34 2.11-1.08 3.58-.85 1.04.16 2.68.01 3.18-.05.5-.05 4.18-.73 6.61-2.61-1.27.14-1.53-.62-2.59-.75 1.36-1.38 3.55-1.65 4.63-2.88-.97-.11-1.82-.88-2.52-.99 2.14-1.2 3.57-1.89 5.08-3.51.02-.03.58-.66.81-.93-.69-1.81-1.11-3.79-1.25-5.9l-.11-1.58c-.53.58-1.61 1.17-3.37 1.8-.82-1.99-.42-5.72.62-8.59-1.49 2.93-3.18 4.84-6.05 5.7-.7-2.15-.29-5.91.72-8.72-1.91 3.19-3.95 4.81-7.34 6-.28-2.61-.01-6.04 1.24-9.2-2.62 2.51-4.85 3.33-7.78 3.88-.19-3.1.57-5.89 2.13-9.35-1.88 2.31-5.79 3.89-8.74 4.2.22-2.68 2.1-6.35 3.2-8.51-2.78 2-5.74 3.42-8.94 3.6.4-3.04 1.77-6.34 4.11-9-2.75 2.04-6.97 3.15-10.14 2.72.77-3.34 2.82-6.6 5.6-8.34-1.61.31-4.53.98-7.88.67-1.98 6.62-3.06 13.62-3.09 20.87-1.68-1.32-2.84-1.65-3.99-2.79.22 1.57.42 2.42.6 4.37.31 3.49 1.63 5.49 3.82 6.75.11 1 .23 1.98.38 2.97-1.62-1.04-3.8-1.69-6.68-1.65 1.75 5.69 4.25 6.11 7.6 6.65a38.82 38.82 0 0 0 .36 1.55c-1.78-.46-3.92-.47-6.36.2 1.68 2.61 4.02 4.2 7.75 4.76.01.02.01.04.02.06-2.3-.19-4.78.15-6.76 1.16 2.83 2.44 5.61 3.36 8.26 3.09.13.35.27.69.42 1.04-2.1.56-3.94 1.65-4.98 2.66 2.21.7 4.47 1.07 6.52.85.02.05.05.1.07.15-1.2.92-2.25 2.4-2.89 4.73 1.57-.4 3.18-.51 4.79-.97.32.59.66 1.18 1 1.77-.85 1.61-1.14 3.64-.64 5.89 1.35-.31 2.47-.84 3.39-1.52l.97 1.39c-.34 2.58.26 5.18 1.8 6.9a17.79 17.79 0 0 0 1.54-2.02c3.33-5.09 1.32-8.75 1.39-12.05.03-.07.05-.13.08-.21.27 3.93 3.69 7.81-.32 12.55-.08.09-.15.17-.22.26 13.56 15.74 33.62 25.71 56.03 25.71 31.81 0 58.92-20.09 69.35-48.27l3.36-1.46-.25 1.46 4.84-4.19-6.27 1.29 1.33.69-2.59 1.06c.46-1.3.88-2.62 1.27-3.95l3.68-2.03-.12 1.48 4.44-4.61-6.12 1.86 1.38.57-2.94 1.62c.39-1.44.74-2.9 1.05-4.38l2.8-1.78-.12 1.48 4.36-4.61z" fill="#005288"/><path d="M109.18 179.13c6.02 4.53 9.43 10.82 10.31 15.88-.76-.55-2.18-1.13-3.05-.96-.78-5.34-3.57-9.66-7.95-13.17.19-.82.45-1.37.69-1.75zm-4.61 4.7c1.43.56 2.15.35 2.51-.15.77-1.09.4-2.52-.09-2.77.11.44.09.9-.01 1.42-.08.42-.29 1.12-1.08 1.03-.42-.05-1.2-.25-1.66-.57-.33-.22-.32-.79-.14-1.27.09-.24.2-.58.5-.82-.49.11-.78.37-1.16.67s-.95.36-1.27 0c-.41-.44-.65-.78-.79-1.08-.34-.78.66-1.35 1.24-1.65-1 .01-1.18.39-1.99.25s-1.02-1.45-1.02-1.88c0-.32.39-.62.87-.73.44-.1.98-.06 1.28-.03-.04-.2-.07-.45-.06-.71-.82-.19-2.4.09-2.7.54-.38.57-.29.88.02 1.89.3.98.53 1.33 1.17 1.42.18.02.51.07.89-.07-.2.13-.34.23-.44.49-.11.26-.28.7.49 1.63.68.81 1.34 1.13 1.9.82.32-.18.43-.37.58-.53-.09.21-.18.45-.23.69-.17.81.44 1.12 1.19 1.41zm-1.04-6.26c.41-.51 1.4-.57 1.96-.22-.38.72-.42 1.92-.2 2.51-1.43-.22-1.68-1.57-1.76-2.29zm2.22-.08c.83-.06 1.14-.47 1.29-.88.15-.4.6-.65.61-.04s.01.88-.34 1.05-.96.22-1.56-.13zm.42 1.32c-.08.45-.24.87-.52 1.27-.21.31-.52.5-.74.69a2.27 2.27 0 0 0 1.38.44c.45-.02.47-.09.44-.26-.09-.76-.38-1.84-.56-2.14zm83.89-1.97c.39.71.41 1.92.21 2.51 1.42-.23 1.67-1.57 1.76-2.29-.42-.51-1.4-.57-1.97-.22zm-.26.14c-.84-.06-1.14-.47-1.29-.88-.16-.4-.6-.65-.61-.04s-.01.88.33 1.05c.36.17.98.22 1.57-.13zm.09 2.59a3.26 3.26 0 0 1-.52-1.27c-.17.3-.46 1.38-.57 2.14-.03.17-.01.24.45.26.45.02 1-.14 1.38-.44-.22-.19-.52-.38-.74-.69zm24.75-22.58l1.44.39-21.64 17.1h0l-.51.4c-.03 0-.06.01-.1.01a2.72 2.72 0 0 1-.04.71c.31-.01.72-.01 1.08.08.47.12.85.44.84.75-.01.43-.25 1.73-1.06 1.85-.82.12-.98-.27-1.99-.31.57.32 1.56.92 1.19 1.69-.14.3-.4.62-.81 1.06-.33.34-.9.27-1.27-.04-.38-.31-.66-.57-1.14-.7.29.25.39.6.47.84.17.48.16 1.05-.18 1.27-.47.3-1.25.48-1.68.52-.79.07-.99-.63-1.06-1.06-.08-.52-.09-.99.03-1.42-.49.24-.9 1.66-.17 2.77.34.51 1.05.74 2.51.22.77-.27 1.38-.57 1.25-1.37-.04-.24-.13-.48-.21-.69.15.16.25.36.56.54.55.32 1.21.03 1.92-.77.79-.9.63-1.36.54-1.62s-.23-.37-.42-.5c.38.15.71.11.89.09.64-.08.88-.42 1.21-1.39.34-1.01.44-1.3.07-1.89-.15-.24-.67-.45-1.25-.56l21.48-16.95.06 1.49 3.85-5.11-5.86 2.6zm-11.54 5.25l15.25-19.31.4 1.44 2.56-5.87-5.1 3.87 1.49.05-13.81 17.5-3.31 5.02.03.02 2.49-2.72zm-1.82 5.74l3.92-3.1 12.7-11.76.18 1.48 3.43-5.41-5.63 3.04 1.46.28-12.74 11.82-3.32 3.65zm14.11-2.77l-17.89 8.96-.72.57c.13.1.23.21.31.34.04.06.06.11.09.16l18.58-9.3-.25 1.47 4.82-4.22-6.26 1.34 1.32.68zm-27.04 18.95c-.27-.09-.5-.22-.7-.41l-3.2 6.64.02.01-1.17.39-3.79 7.26 1.83-.56.67 1.8 3.59-7.36-.42-1.19 3.17-6.58zm12.47-12.61l4.08-2.05 11.89-7.77-.08 1.49 4.3-4.74-6.07 2.04 1.39.52-12.94 8.46-2.57 2.05zm-13.92 10.83a3.31 3.31 0 0 1-.09-1.09l-4.25 4.63-1.25.1-.11.11h0l-5.91 5.91.28-.01-.02.02.07-.03 1.46-.07.26 1.45 4.9-6.44.94-.2 3.72-4.38zm7.83-9.23l2.17-1.71 20.88-22.83.29 1.46 2.99-5.66-5.37 3.48 1.48.16-21.85 23.91-.59 1.19zm-18.68 15.6l7.78-5.48 2.21-2.41-9.72 6.42.01.02-1.21-.25-.71.44-6.24 3.89 1.75.36.21 1.32 5.03-4.34.89.03zm-6.45.72l3.12-1.94 2.91-1.98.99.19 8.82-5.5.14-.09h0c.02-.01.04-.02.05-.04l-9.3 4.64-1.18-.37-7.4 3.51 1.67.61.18.97zm35.08-42.96l1.47-.26-13.37 27.08c.11.05.2.11.28.15a1.42 1.42 0 0 1 .39.33l13.44-27.2.69 1.32 1.3-6.27-4.2 4.85zm1.6 4.57l1.49-.08-8.4 12.74-2.78 5.63.13-.15 11.73-17.78.52 1.4 2.06-6.06-4.75 4.3zm-123 16.05c.19.02.15.01-.07-.06-2.23-1.25-3.81-1.67-6.88-1.26 2.88.21 4.9.6 6.95 1.32zm1.37 15.71c.33-2.14 1.75-4.7 3.83-6.42 1.46-1.21 2.28-1.65 1.07-.38-1.85 1.94-3.99 5.07-4.9 6.8zm4.56 5.83c-.8-2.01-.1-5.25.77-7.36.6-1.46 2.1-3.68 2.56-3.89-1.65 2.55-3.42 9.31-3.33 11.25zm-6.69-28.1c-.15-.76-.9-1.25-1.66-1.1a1.4 1.4 0 0 0-1.1 1.66c.15.76.9 1.26 1.66 1.1a1.4 1.4 0 0 0 1.1-1.66zm12.26 1.94c.05-2.11-.27-4.28-.02-6.74-4.2 3.06-5.63 8.43-3.89 12.18a1.63 1.63 0 0 0-.54 0 1.46 1.46 0 0 0-1.14 1.72 1.46 1.46 0 0 0 1.72 1.14c.79-.16 1.3-.93 1.14-1.71-.08-.4-.32-.73-.63-.93-.7-3.32-.12-7.46 1.62-9.21-.54 2.08-1.53 6.43-.89 10.44.68-.78 1.19-1.54 1.58-2.29.08.63.23 1.29.5 1.97.09-3.19 1.16-6.35 4.47-8.55-2.43 3.08-3.82 6.68-4.11 9.38 1.77-2.24 5.78-2.91 6.06-11.68-2.04.6-4.48 2.09-5.87 4.28zm2.77 9.02c-.17-.83-.97-1.37-1.8-1.2a1.52 1.52 0 0 0-1.19 1.8c.17.82.97 1.36 1.79 1.19a1.53 1.53 0 0 0 1.2-1.79zm-.53 4.62c-.17-.83-.97-1.37-1.8-1.2-.82.17-1.36.97-1.19 1.8a1.52 1.52 0 0 0 1.79 1.19 1.53 1.53 0 0 0 1.2-1.79zm-8.85-22.52c-3.09 2.59-3.96 5.84-3.63 8.69-.12-.01-.24-.01-.36.01-.64.13-1.06.76-.93 1.39.13.64.75 1.06 1.39.93a1.29 1.29 0 0 0 .4-.16c.29.83.68 1.59 1.13 2.25a16.8 16.8 0 0 1-.58-3.11c.01-.12.02-.24-.01-.36-.01-.03-.02-.05-.02-.08-.17-2.43.21-4.94 1.56-6.74-.42 2.65-1.05 7.77-.45 10.95.9-3.4 5.77-4.89 1.5-13.77zm12.41 19.97a1.19 1.19 0 0 0-1.4-.93c-.64.13-1.06.76-.93 1.4s.76 1.06 1.4.93c.64-.14 1.06-.76.93-1.4zm-6.56-.23c-.12-.59-.69-.97-1.28-.85a1.1 1.1 0 0 0-.86 1.28c.12.59.7.98 1.28.86a1.09 1.09 0 0 0 .86-1.29zm-14.95-15.04c-.08-.49-.51-.84-.99-.84-1.53-2.07-3.74-4.29-7.42-4.68 2.02.96 5.05 2.82 7.15 4.72-.5.13-.83.62-.74 1.14.1.55.62.92 1.17.83s.92-.62.83-1.17zm.04-6.97c-.14-.7-.81-1.14-1.51-1l-.09.03c-.84-3.26-1.64-5.8-5.35-8.35 1.86 2.38 4 5.84 5.2 8.39a1.28 1.28 0 0 0-.77 1.44c.14.69.82 1.14 1.51 1 .7-.15 1.15-.82 1.01-1.51zm3.76 12.82a1 1 0 0 0-1.17-.82 1.06 1.06 0 0 0-.64.39c-3.28-2.89-5.53-2.91-7.26-2.99 1.04.37 4.79 1.45 7.17 3.13-.1.19-.14.4-.1.63a1.01 1.01 0 0 0 1.17.83c.55-.1.92-.62.83-1.17zm2.75 4.09a1.46 1.46 0 0 0-1.72-1.14 1.46 1.46 0 0 0-1.14 1.72 1.46 1.46 0 0 0 1.72 1.14 1.46 1.46 0 0 0 1.14-1.72zm2.12 2.51c-.09-.55-.62-.92-1.17-.82a.98.98 0 0 0-.75.58c-2.85-.38-5.96.02-8.56 1.47 2.93-.68 5.99-1.3 8.5-1.31-.03.13-.04.28-.01.42.1.55.62.92 1.17.83a1.02 1.02 0 0 0 .82-1.17zm2.94 1.71c-.15-.71-.84-1.18-1.56-1.04-.71.14-1.17.84-1.03 1.54-.03 0-.06-.01-.09-.01-2.11-.08-5.63.48-7.78 3.03 2.21-1.3 5.73-2.64 7.84-2.93h.06c.18.66.84 1.09 1.53.95.7-.13 1.17-.83 1.03-1.54z" fill="#fff"/><path d="M240.74 97.03c3.44-1.51 7.39-.82 8.39 1.46 1 2.31-1.16 5.68-4.6 7.18-3.47 1.52-7.42.83-8.43-1.47-.99-2.28 1.17-5.65 4.64-7.17zm5.2 11.86c4.36-1.91 6.33-6.77 4.49-10.97s-6.75-6.02-11.1-4.11c-4.36 1.91-6.37 6.76-4.53 10.96 1.85 4.2 6.78 6.03 11.14 4.12zm-6.09 11.36l-1.67-6.57 1.02-.26.46 1.83 13.91-3.53-.46-1.84 1.01-.26 2.53 9.95.67-.18.33 1.31-3.84.97-.33-1.28 1.74-.44-1.27-5.02-5.7 1.45.98 3.86 1.64-.42.35 1.3-4.75 1.21-.36-1.3 1.69-.43-.98-3.86-6.38 1.62.41 1.61-1 .28zM45.4 102.62l-.6 2 8.98 2.68c2.7.8 4.11 2.24 4.46 4.56.16 1.19.08 2.44-.29 3.68-1.15 3.86-4.02 5.74-7.32 4.76l-9.65-2.87-.54 1.81-1-.3 2-6.68 1 .3-.54 1.79 8.9 2.65c2.41.72 3.64.62 4.65-.41a4.6 4.6 0 0 0 1.04-1.85c.85-2.86-.34-5.04-3.26-5.91l-8.88-2.65-.59 1.98-1.03-.31 1.65-5.54 1.02.31zm15.78 3.88a1.67 1.67 0 0 1-2.19.89 1.665 1.665 0 0 1 1.29-3.07 1.67 1.67 0 0 1 .9 2.18zm3.1-7.11l-.67 1.2-3.91-2.2.67-1.2 1.6.9c1.33-.54 2.03-1.12 2.63-2.18.76-1.35.5-2.77-.63-3.41-.98-.55-2.02-.31-4.46.98-2.54 1.37-2.91 1.51-3.88 1.7-.94.19-1.96-.02-2.92-.55-2.39-1.34-2.99-3.99-1.5-6.64A6.57 6.57 0 0 1 53 85.91l-.65-.37.66-1.17 3.71 2.09-.66 1.17-1.5-.84c-1.1.58-1.65 1.04-2.1 1.85-.63 1.13-.32 2.45.7 3.02.87.49 1.69.29 4.19-1.04l2.27-1.18c.63-.3 1.36-.49 2.16-.53.9-.04 1.73.17 2.58.65 2.47 1.39 3.2 4.17 1.77 6.71-.71 1.26-1.48 2.03-2.63 2.69l.78.43zm6.53-11.28c0 .91-.72 1.63-1.63 1.63s-1.63-.72-1.63-1.63.72-1.63 1.63-1.63 1.63.72 1.63 1.63zm38.54-32.04L98.81 61.5l-.48-.93 1.68-.86-6.57-12.76-1.68.87-.48-.93 9.12-4.7-.31-.62 1.19-.62 1.81 3.52-1.17.61-.82-1.6-4.61 2.37 2.69 5.23 3.54-1.83-.78-1.5 1.19-.64 2.25 4.36-1.19.64-.8-1.55-3.54 1.82 2.82 5.47 4.8-2.48-.85-1.64 1.19-.61 1.54 2.95zm10.14-3.66l-6.86 2.27-.33-1 1.8-.59-4.52-13.62-1.8.59-.33-.99 7.16-2.38c2.93-.97 5.44.17 6.33 2.89.85 2.58-.71 5.46-3.48 6.37-.4.13-.67.19-1.32.28l-.38-1.16c.33-.03.45-.07.66-.14 1.61-.53 2.12-1.99 1.42-4.09-.73-2.22-1.99-3.09-3.7-2.53l-1.42.47 4.41 13.29 2.01-.67.35 1.01zm8.12-9.07l1.42-6.57 3.4 5.73-4.82.84zm12.12 3.53l-1.03.18-8.81-14.62-1.5.26-3.61 16.78-1.52.26.18 1.03 5.08-.88-.18-1.03-1.96.34.9-4.25 5.96-1.04 2.21 3.71-1.72.3.18 1.03 5.99-1.04-.17-1.03zm7.1-13.99h1.57c1.77.01 2.79 1.15 2.78 3.15 0 1.97-1.18 3.33-2.89 3.33l-1.47-.01.01-6.47zm10.11 14h-1.02c-.5 0-.8-.23-1.37-1.1l-3.52-5.44c2.34-.72 3.49-2.16 3.5-4.4 0-1.32-.39-2.39-1.21-3.22-.89-.9-2.09-1.23-4.23-1.23l-7.35-.02v1.05h1.89l-.03 14.35-1.89-.01v1.05l6.98.02v-1.05h-1.87l.02-6.28h.68l3.72 5.86c.85 1.32 1.09 1.47 2.56 1.48l3.16.01-.02-1.07zm11.27 3.05l-7.91-1.34.17-1.03 2.38.4 2.32-13.73-4.25-.72-.34 2.04-1.35-.23.7-4.18 1.36.23-.12.69 11.64 1.97.12-.69 1.35.23-.71 4.18-1.35-.23.35-2.04-4.22-.71-2.32 13.73 2.36.4-.18 1.03zm23.27 7.86l-6.9-2.68.38-.97 1.95.76 3.89-10.03-9.47 9.26-1.32-13.2-3.81 9.82 1.95.76-.38.97-5.37-2.08.38-.98 1.95.76 5.19-13.38-1.95-.76.38-.98 4.11 1.6 1.32 12.93 9.04-8.92 4.6 1.78-.38.97-1.95-.76-5.19 13.37 1.95.76-.37 1zm12.13 7.93l-10-6.38.56-.88 1.6 1.02 7.72-12.09-1.6-1.02.56-.88 8.65 5.52.37-.59 1.14.72-2.13 3.34-1.12-.71.97-1.51-4.37-2.79-3.16 4.96 3.35 2.15.92-1.43 1.15.7-2.64 4.14-1.15-.7.94-1.47-3.36-2.14-3.31 5.18 4.55 2.91.99-1.55 1.13.72-1.76 2.78zM93.12 55.53c-2.73-3.71-7.8-4.43-11.59-1.65l-6.26 4.6.62.84 1.53-1.12 8.48 11.54a58.96 58.96 0 0 0 1.2.46l4.15-3.05c1.97-1.45 3-3.03 3.37-5.17.38-2.33-.14-4.6-1.5-6.45zm-3.19 10.88l-1.63 1.2-8.1-11.02 1.71-1.25c2.35-1.73 6.22-.67 8.39 2.28 2.31 3.14 2.16 6.93-.37 8.79zm134.89-4.1l-.71.78 1.45 1.33-7.03 7.71 1.77-13.92-3.66-3.34-.7.77 1.32 1.21-.26 1.47-8.81 9.66-1.53-1.39-.71.77 4.16 3.79.7-.78-1.45-1.33 7.33-8.04-1.57 12.77 4.9-1.32.42-.12 6.27-6.88 1.55 1.41.71-.77-4.15-3.78zm16.77 18.11l-.55.42-7.16-9.38.55-.42-.83-1.09-3.36 2.57.83 1.09 1.64-1.25 2.61 3.42-11.06 8.45-.57-.75c-.32.18-.64.33-.96.47l4.1 5.37.83-.63-1.45-1.9 11.06-8.45 2.6 3.4-1.64 1.26.84 1.09 3.36-2.57-.84-1.1zm-72.83 171.03l-1.34.29-.96-4.38 1.34-.29.39 1.8c1.29.63 2.18.77 3.37.51 1.51-.33 2.41-1.47 2.13-2.74-.24-1.1-1.12-1.72-3.7-2.68-2.71-.99-3.06-1.16-3.85-1.76-.77-.57-1.29-1.47-1.53-2.54-.59-2.68 1-4.89 3.96-5.54.95-.21 1.74-.22 2.74-.04l-.16-.73 1.31-.29.91 4.16-1.31.29-.37-1.68c-1.17-.43-1.87-.54-2.77-.34-1.27.28-2.05 1.39-1.79 2.54.21.97.91 1.46 3.57 2.43l2.39.9c.64.27 1.27.69 1.83 1.26.63.66 1.02 1.41 1.23 2.36.61 2.77-.98 5.16-3.84 5.78-1.41.31-2.49.24-3.75-.17l.2.86zm25.33-7.96l-11.03 4.33-.38-.97 1.76-.69-5.24-13.36-1.76.7-.38-.97 9.56-3.75-.26-.65 1.25-.49 1.45 3.69-1.23.48-.65-1.67-4.83 1.89 2.15 5.47 3.71-1.46-.62-1.58 1.25-.52 1.79 4.57-1.24.52-.64-1.62-3.71 1.46 2.25 5.72 5.04-1.97-.68-1.72 1.25-.49 1.19 3.08zm16.6-10.11c-1.41 1.76-2.39 2.68-4.02 3.66-4.49 2.73-9.53 1.64-12.1-2.6-2.54-4.2-1.25-9.27 3.04-11.86 1.38-.84 2.45-1.23 4.01-1.45l-.54-.89 1.17-.71 2.31 3.81-1.17.71-.83-1.37c-1.73-.12-2.56.06-3.69.75-2.96 1.8-3.52 5.52-1.38 9.05 2.1 3.45 6 4.76 8.94 2.97 1.07-.64 1.69-1.34 2.31-2.57l-.98-1.62 1.19-.72 1.74 2.84zm7.49-25.71l-1.54 1.41 6.31 6.92c1.9 2.08 2.37 4.04 1.48 6.2-.48 1.11-1.19 2.13-2.15 3-2.98 2.73-6.41 2.85-8.73.31l-6.78-7.44-1.4 1.28-.7-.77 5.15-4.7.71.77-1.38 1.26 6.27 6.87c1.7 1.86 2.8 2.4 4.19 2.04a4.73 4.73 0 0 0 1.85-1.05c2.21-2.01 2.3-4.5.26-6.74l-6.25-6.85-1.53 1.4-.72-.79 4.27-3.89.69.77zm27.98-14.53l-3.33 6.13-.92-.5.9-1.67-12.61-6.83-.91 1.66-.91-.5 3.32-6.13.92.5-.89 1.64 12.62 6.83.89-1.64.92.51zm6.36-14.91l-2.82 7.5-.98-.37.85-2.26-13.03-4.91-1.52 4.03 1.94.73-.48 1.29-3.96-1.49.48-1.28.65.25 4.16-11.05-.65-.25.48-1.28 3.97 1.49-.48 1.28-1.93-.73-1.51 4.01 13.03 4.91.84-2.24.96.37zm4.41-18.32l-1.34 6.85-1.03-.2.36-1.84-6.75-1.32-8.28 3.41-.3 1.54-1.03-.2 1.33-6.84 1.03.2-.36 1.81 6.03-2.42-4.72-4.3-.4 2.08-1.02-.2 1.11-5.69 1.02.2-.34 1.76 5.9 5.39 7.38 1.45.36-1.86 1.05.18zm-16.77 42.21l-.61.82c-.3.4-.65.51-1.7.45l-6.47-.4c.82-2.31.34-4.09-1.46-5.43-1.06-.79-2.16-1.11-3.31-.94-1.26.19-2.23.95-3.51 2.67l-4.38 5.9.83.62 1.13-1.52 11.52 8.55-1.13 1.52.84.62 4.16-5.6-.84-.62-1.11 1.5-5.04-3.75.4-.54 6.93.49c1.56.11 1.83-.01 2.71-1.19l1.89-2.54-.85-.61zm-17.26-.19l.93-1.26c1.06-1.42 2.59-1.56 4.19-.37 1.58 1.18 1.98 2.93.96 4.31l-.88 1.18-5.2-3.86zM42.78 175.31l-1.66-6.77 1.02-.25.44 1.82 6.36-1.55-1.92-7.87-6.36 1.55.45 1.81-1.02.25-1.66-6.77 1.02-.25.45 1.84 13.94-3.41-.45-1.84 1.02-.25 1.65 6.77-1.02.25-.44-1.81-6.15 1.5 1.92 7.86 6.15-1.5-.44-1.81 1.02-.25 1.65 6.78-1.02.25-.45-1.84-13.94 3.41.45 1.84-1.01.24zm9.49 3.79c3.42-1.56 7.38-.92 8.41 1.34 1.04 2.29-1.07 5.69-4.5 7.25-3.45 1.57-7.4.93-8.44-1.36-1.03-2.26 1.08-5.65 4.53-7.23zm5.37 11.79c4.33-1.97 6.23-6.86 4.33-11.03s-6.83-5.92-11.16-3.95-6.27 6.85-4.37 11.02 6.87 5.94 11.2 3.96zm6.33 23.66l-4.35-5.99.85-.61 1.23 1.69 8.71-6.32-12.97 2.64 6.04-11.8-8.52 6.19 1.23 1.69-.85.62-3.38-4.66.85-.61 1.23 1.69 11.61-8.43-1.23-1.69.84-.62 2.59 3.56-5.9 11.59 12.43-2.6 2.9 3.99-.85.62-1.23-1.7-11.61 8.43 1.23 1.7-.85.62zm12.96 12.74l-8.72-8.03.71-.77 1.39 1.28 9.72-10.55-1.39-1.28.71-.77 7.55 6.96.47-.52.99.91-2.69 2.91-.97-.89 1.21-1.32-3.81-3.51-3.98 4.32 2.93 2.7 1.15-1.25 1 .89-3.33 3.61-1.01-.89 1.18-1.29-2.93-2.7-4.17 4.52 3.97 3.66 1.25-1.36.99.91-2.22 2.46zm14.83 10.18L82 230.91l.59-.87 1.57 1.06 8.01-11.91-1.57-1.06.59-.87 5.79 3.89-.58.87-1.55-1.04-7.77 11.55 4.4 2.96 1.03-1.53 1.11.75-1.86 2.76zm9.94-2.12l4.87-4.62-.43 6.65-4.44-2.03zm8.02 9.75l-.95-.44.97-17.04-1.38-.63-12.44 11.82-1.4-.64-.43.95 4.69 2.14.43-.96-1.81-.82 3.14-3 5.51 2.51-.27 4.31-1.59-.72-.43.95 5.53 2.52.43-.95zm17.23 5.88l-1.7-.41-5.59-13.89-2.53 10.59 1.91.46-.24 1.02-5.48-1.31.24-1.02 2.01.48 3.05-12.71-.48-1.42-1.74-.42.24-1.02 4.82 1.16 5.17 13.04 2.43-10.15-1.92-.46.25-1.02 5.47 1.31-.25 1.02-2.04-.49-3.62 15.24zm16.17-15.2l-7.77-.28-.04 1.04 1.89.07-.51 14.34h0l-1.89-.07-.04 1.05 7.74.28h-.02.02c2.44.09 4.23-.52 5.85-1.96 1.75-1.58 2.75-3.69 2.83-5.98.18-4.61-3.36-8.32-8.06-8.49zm4.56 8.36c-.14 3.91-2.61 6.79-5.75 6.67l-2.02-.07.49-13.67 2.11.08c2.92.1 5.3 3.33 5.17 6.99z" fill="#005288"/><path d="M85.29 146.61c-4.76 2.08-6.96 8.01-4.53 12.36 2.23-3.17 6.42-3.86 4.53-12.36zm-4.51 12.13c-.57-2.39.92-8.76 3.05-10.07-1.38 3.09-1.95 5.95-3.05 10.07zm-.32-21.03c-1.52.62-3.68 2.74-4.65 5.52a8.52 8.52 0 0 1 .97 1.37c.54-2.04 1.69-4.42 2.85-5.43-.76 1.3-1.82 4.17-2.34 6.43.54 1.26.77 2.57.73 3.81 2.9-2.66 3.91-7.26 2.44-11.7z" fill="#fff"/></svg>