<?xml version="1.0" encoding="UTF-8"?>
<!-- Generator: Adobe Illustrator 20.1.0, SVG Export Plug-In . SVG Version: 6.00 Build 0)  -->
<svg version="1.1" id="Logo" xmlns="http://www.w3.org/2000/svg" xmlns:xlink="http://www.w3.org/1999/xlink" x="0px" y="0px" width="150px" height="150px" viewBox="0 0 150 150" style="enable-background:new 0 0 150 150;" xml:space="preserve">
<style type="text/css">
	.st0{fill-rule:evenodd;clip-rule:evenodd;fill:#009865;stroke:#009865;stroke-width:0.2658;stroke-miterlimit:3.8637;}
	.st1{fill-rule:evenodd;clip-rule:evenodd;stroke:#000000;stroke-width:0.2658;stroke-miterlimit:3.8637;}
</style>
<g>
	<g id="Bildmarke">
		<path class="st0" d="M73,55.7c-0.7-0.1-1.4-0.1-2.1-0.1c-14.2,0-25.7,11.5-25.7,25.7c0,0.7,0,1.4,0.1,2.2h-0.1v28.7l-6.7,6.6    l-7.2-7.2l0.1-28.2c0-0.8-0.1-1.6-0.1-2.4c0-16.1,9.7-30,23.5-36.2l-0.1,0L73,55.7z"/>
		<path class="st0" d="M47.9,93.8c0.3,0.6,0.6,1.2,1,1.9c7.1,12.3,22.8,15.9,35.1,8.8c0.6-0.4,1.2-0.8,1.8-1.2l0,0.1L110,89.2    l10.1,2.5l-2.6,9.8l-24.7,13.8c-0.7,0.4-1.3,0.9-2,1.3c-14,8.1-30.8,6.6-43.1-2.3l0.1,0L47.9,93.8z"/>
		<path class="st0" d="M93,96.4c0.4-0.6,0.8-1.2,1.1-1.8c7.1-12.3,2.9-28-9.4-35.1c-0.6-0.4-1.3-0.7-1.9-1l0-0.1L58.3,43.7l-2.4-9.1    l9.8-2.6l24.1,14.5c0.7,0.4,1.4,0.7,2.1,1.1c14,8.1,21.2,23.4,19.6,38.5l0-0.1L93,96.4z"/>
		<polygon class="st1" points="53.7,83.4 53.7,83.4 53.3,74 48.6,74 50.1,89.6 55.1,89.6 62.9,74 58.2,74   "/>
		<path class="st1" d="M69.8,84.1l2,0.1c-1.6,2.3-3.3,2.3-3.6,2.3c-0.7,0-3.3-0.5-2.5-4.6c0.5-2.9,2.8-4.5,4.4-4.4    c1.4,0.1,2.5,1.2,2.4,1.8h4.4c0.3-2.2-1-5-5.8-5.6c-5.3-0.7-9.4,3.7-9.7,8.3c-0.4,5.6,2,8.2,5.8,8.2c2.9,0,4-1.1,5.1-2.1l-0.3,1.7    H75l1.8-8.5h-6.7L69.8,84.1z"/>
		<polygon class="st1" points="87.9,83.6 87.9,83.6 84.8,74 80.5,74 77.1,89.8 81.4,89.8 83.3,80.8 83.3,80.8 86.7,89.8 90.8,89.8     94.2,74 89.9,74   "/>
	</g>
</g>
</svg>