<?xml version="1.0" encoding="UTF-8" standalone="no"?>
<!-- Generator: Adobe Illustrator 20.1.0, SVG Export Plug-In . SVG Version: 6.00 Build 0)  -->

<svg
   version="1.1"
   id="Logo"
   x="0px"
   y="0px"
   width="89.096207"
   height="90.179787"
   viewBox="0 0 89.096207 90.179787"
   xml:space="preserve"
   xmlns="http://www.w3.org/2000/svg"
   xmlns:svg="http://www.w3.org/2000/svg"><defs
   id="defs4" />
<style
   type="text/css"
   id="style1">
	.st0{fill-rule:evenodd;clip-rule:evenodd;fill:#009865;stroke:#009865;stroke-width:0.2658;stroke-miterlimit:3.8637;}
	.st1{fill-rule:evenodd;clip-rule:evenodd;stroke:#000000;stroke-width:0.2658;stroke-miterlimit:3.8637;}
</style>
<g
   id="g4"
   transform="translate(-31.166904,-31.857115)">
	<g
   id="Bildmarke">
		<path
   class="st0"
   d="m 73,55.7 c -0.7,-0.1 -1.4,-0.1 -2.1,-0.1 -14.2,0 -25.7,11.5 -25.7,25.7 0,0.7 0,1.4 0.1,2.2 h -0.1 v 28.7 l -6.7,6.6 -7.2,-7.2 0.1,-28.2 c 0,-0.8 -0.1,-1.6 -0.1,-2.4 0,-16.1 9.7,-30 23.5,-36.2 h -0.1 z"
   id="path1" />
		<path
   class="st0"
   d="m 47.9,93.8 c 0.3,0.6 0.6,1.2 1,1.9 7.1,12.3 22.8,15.9 35.1,8.8 0.6,-0.4 1.2,-0.8 1.8,-1.2 v 0.1 l 24.2,-14.2 10.1,2.5 -2.6,9.8 -24.7,13.8 c -0.7,0.4 -1.3,0.9 -2,1.3 -14,8.1 -30.8,6.6 -43.1,-2.3 h 0.1 z"
   id="path2" />
		<path
   class="st0"
   d="m 93,96.4 c 0.4,-0.6 0.8,-1.2 1.1,-1.8 7.1,-12.3 2.9,-28 -9.4,-35.1 -0.6,-0.4 -1.3,-0.7 -1.9,-1 V 58.4 L 58.3,43.7 55.9,34.6 65.7,32 89.8,46.5 c 0.7,0.4 1.4,0.7 2.1,1.1 14,8.1 21.2,23.4 19.6,38.5 V 86 Z"
   id="path3" />
		<polygon
   class="st1"
   points="62.9,74 58.2,74 53.7,83.4 53.3,74 48.6,74 50.1,89.6 55.1,89.6 "
   id="polygon3" />
		<path
   class="st1"
   d="m 69.8,84.1 2,0.1 c -1.6,2.3 -3.3,2.3 -3.6,2.3 -0.7,0 -3.3,-0.5 -2.5,-4.6 0.5,-2.9 2.8,-4.5 4.4,-4.4 1.4,0.1 2.5,1.2 2.4,1.8 h 4.4 c 0.3,-2.2 -1,-5 -5.8,-5.6 -5.3,-0.7 -9.4,3.7 -9.7,8.3 -0.4,5.6 2,8.2 5.8,8.2 2.9,0 4,-1.1 5.1,-2.1 L 72,89.8 h 3 l 1.8,-8.5 h -6.7 z"
   id="path4" />
		<polygon
   class="st1"
   points="83.3,80.8 83.3,80.8 86.7,89.8 90.8,89.8 94.2,74 89.9,74 87.9,83.6 84.8,74 80.5,74 77.1,89.8 81.4,89.8 "
   id="polygon4" />
	</g>
</g>
</svg>
