<svg xmlns="http://www.w3.org/2000/svg" class="icon" viewBox="0 0 1024 1024"><path fill="#00E5E5" d="M836.395 475.861 709.973 970.155a8.661 8.661 0 0 0 0 4.138 9.216 9.216 0 0 0 9.174 7.04H971.86a9.216 9.216 0 0 0 9.216-11.178L854.06 475.86a9.301 9.301 0 0 0-14.379-4.736 8.96 8.96 0 0 0-3.328 4.694M140.8 587.86 42.88 970.155a9.173 9.173 0 0 0 9.259 11.136h195.029a9.344 9.344 0 0 0 7.381-3.328 8.917 8.917 0 0 0 1.792-3.67 8.661 8.661 0 0 0 .043-4.138L158.379 587.86a8.96 8.96 0 0 0-3.328-4.65 9.387 9.387 0 0 0-5.419-1.792 9.387 9.387 0 0 0-5.547 1.792 8.96 8.96 0 0 0-3.285 4.65"/><path fill="#006EFF" d="M313.43 271.36 135.082 970.155a8.96 8.96 0 0 0 1.706 7.594 9.088 9.088 0 0 0 7.04 3.542H500.65a9.216 9.216 0 0 0 9.258-11.094L331.051 271.275a8.96 8.96 0 0 0-3.328-4.651 9.387 9.387 0 0 0-5.462-1.792 9.387 9.387 0 0 0-5.504 1.792 8.96 8.96 0 0 0-3.328 4.693"/><path fill="#006EFF" d="M621.141 49.11a8.96 8.96 0 0 0-3.328-4.651 9.387 9.387 0 0 0-5.504-1.792 9.387 9.387 0 0 0-5.461 1.792 8.96 8.96 0 0 0-3.328 4.65L359.723 970.155a9.173 9.173 0 0 0 9.216 11.093h487.253a9.344 9.344 0 0 0 7.339-3.328 9.472 9.472 0 0 0 1.877-3.67 9.173 9.173 0 0 0 0-4.095L621.141 49.109z"/><path fill="#00E5E5" d="M442.027 372.95 287.36 970.111a8.832 8.832 0 0 0 1.835 7.85 9.216 9.216 0 0 0 7.381 3.371h308.608a9.387 9.387 0 0 0 7.424-3.413 9.301 9.301 0 0 0 1.835-7.808L459.648 372.907a8.96 8.96 0 0 0-3.328-4.608 9.387 9.387 0 0 0-5.504-1.835 9.387 9.387 0 0 0-5.461 1.835 8.96 8.96 0 0 0-3.328 4.608"/></svg>