<svg xmlns="http://www.w3.org/2000/svg" xml:space="preserve" style="fill-rule:evenodd;clip-rule:evenodd;stroke-linejoin:round;stroke-miterlimit:2" viewBox="0 0 300 300"><path d="M104.712 80.594h14.575v45.939h-14.575z" style="fill:none" transform="matrix(20.5829 0 0 -6.53046 -2155.26 826.318)"/><path d="M47.758 40c-2.519 0-4.723-1.579-5.825-3.79l-3.149-7.579-.63.79c-1.259 1.421-2.991 2.21-4.723 2.21-1.889 0-3.621-.789-4.723-2.21l-.63-.79-3.463 7.579C23.67 38.579 21.308 40 18.789 40c-2.519 0-4.723-1.579-5.825-3.79L1.471 8.736C.054 5.578 1.629 1.947 4.777.526c3.149-1.422 6.77.157 8.187 3.315l5.983 13.895 1.417-3.473c.787-2.053 2.676-3.474 4.88-3.79 2.047-.158 4.251.632 5.668 2.211l2.519 2.842 2.361-2.842c1.418-1.579 3.622-2.527 5.668-2.211 2.204.316 3.936 1.737 4.881 3.79l1.417 3.473L53.74 3.841C55.157.683 58.778-.896 61.927.526c3.149 1.421 4.723 5.052 3.306 8.21L53.583 36.21C52.481 38.579 50.277 40 47.758 40Z" style="fill:#fff;fill-rule:nonzero;stroke:#000;stroke-width:2.07px" transform="translate(21.346 72.851) scale(3.85743)"/></svg>