<svg xmlns="http://www.w3.org/2000/svg" viewBox="0 0 24 24"><g fill-rule="evenodd" clip-rule="evenodd"><path fill="#030407" d="M20.5 20.5 12 24l-8.5-3.5L0 12l3.5-8.5L12 0l8.5 3.5L24 12z"/><g fill="#fff"><path fill-opacity=".5" d="m3 12 2.75-6.25L12 3l6.25 2.75L21 12h-3V7h-2.5L14 8.5V12h-4V8.5L8.5 7H6v5z"/><path d="M6 7v10.5h2.75L12 14l3.25 3.5H18V7h-2.5v7.5L12 10.75 8.5 14.5V7z"/><path d="m19.25 4.75-7.25-3-7.25 3-3 7.25 3 7.25 7.25 3 7.25-3 3-7.25zM20.5 20.5 12 24l-8.5-3.5L0 12l3.5-8.5L12 0l8.5 3.5L24 12z"/></g></g></svg>