<svg xmlns="http://www.w3.org/2000/svg" xml:space="preserve" id="Layer_1" x="0" y="0" style="enable-background:new 0 0 42.9 54.8" version="1.1" viewBox="0 0 42.9 54.8"><style>.st2{fill:#fff}</style><path d="M2.4 0h38.1c1.3 0 2.4 1.1 2.4 2.4v50c0 1.3-1.1 2.4-2.4 2.4H2.4c-1.3 0-2.4-1.1-2.4-2.4v-50C0 1.1 1.1 0 2.4 0"/><path d="M2.4 0h38.1c1.3 0 2.4 1.1 2.4 2.4v50c0 1.3-1.1 2.4-2.4 2.4H2.4c-1.3 0-2.4-1.1-2.4-2.4v-50C0 1.1 1.1 0 2.4 0z" style="fill:none;stroke:#231f20;stroke-width:0;stroke-miterlimit:3.864"/><path d="M3.6 39.3h7.1v-25l7.2 25H25l7.2-25v25h7.1V3.6H28.6l-7.2 23.8-7.1-23.8H3.6z" style="fill-rule:evenodd;clip-rule:evenodd;fill:#fff"/><path d="M13.9 50H12v-4.2c0-1-.5-1.4-1-1.4-.9 0-1.3.6-1.3 1.4V50H7.8v-4.1c0-.6 0-1.4-1.1-1.4-.9 0-1.2.6-1.2 1.3V50H3.6v-6.9h1.8v1c.2-.5.8-1.2 2-1.2 1 0 1.5.4 2 1.1.2-.3.8-1.1 1.9-1.1 1.4 0 2.5.8 2.5 2.3V50zM21.8 48c-.5 1.7-1.9 2.2-3.1 2.2-2 0-3.6-.9-3.6-3.8 0-.8.3-3.5 3.4-3.5 1.4 0 3.4.6 3.4 3.8v.3H17c.1.5.2 1.7 1.7 1.7.5 0 1.1-.3 1.2-.8h1.9zm-1.9-2.1c-.1-1.1-.8-1.4-1.5-1.4-.9 0-1.4.5-1.5 1.4h3zM25.2 43.1h1.2v1.3h-1.2v3.7c0 .4 0 .6.8.6h.4V50h-1.1c-1.6 0-1.9-.6-1.9-1.5v-4.2h-1V43h1v-1.9h1.9v2zM27.6 43.1h1.8v1.2c.4-.7.8-1.4 2-1.4h.4v1.8h-.5c-1.5 0-1.7.9-1.7 1.6V50h-1.9v-6.9zM36 50.2c-1.9 0-3.7-1.1-3.7-3.6S34 43 36 43c1.9 0 3.7 1.1 3.7 3.6 0 2.4-1.7 3.6-3.7 3.6m0-5.7c-1.5 0-1.7 1.2-1.7 2.1 0 .9.3 2.1 1.7 2.1 1.5 0 1.7-1.2 1.7-2.1.1-.9-.2-2.1-1.7-2.1" class="st2"/></svg>