<svg xmlns="http://www.w3.org/2000/svg" viewBox="0 0 1080 851.067"><g fill="#218dc1" fill-rule="nonzero"><path d="m541.2 163.248 56.593 124.069v2.177h-19.59v6.53c0 6.53-2.176 10.883-4.353 17.413-2.176 2.176-2.176 4.353-4.353 6.53 0 0-2.177 26.12-2.177 76.182 0 30.473 2.177 74.006 4.354 121.892 58.769 4.353 113.185 10.883 163.248 19.59V328.673h-15.237l37.003-82.712 37.003 82.712h-15.236v217.664c54.416 10.884 100.125 23.944 141.481 37.003V400.502H904.7l37.003-82.712 37.003 82.712h-15.237v198.075c47.886 17.413 84.89 34.826 106.656 45.71 32.65-263.374-26.12-491.922-26.12-491.922C778.455 143.658 541.201 0 541.201 0ZM965.646 644.286v206.781h60.946c8.707-28.296 17.413-58.769 21.766-87.065 8.707-28.297 13.06-52.24 15.237-69.653v-2.176c-10.883-10.884-45.71-28.297-97.949-47.887zM780.631 587.694V848.89H924.29V626.873c-41.356-13.06-89.243-26.12-143.659-39.18ZM737.098 848.89V578.988c-50.062-8.706-102.302-15.236-158.894-19.59 0 0 4.353 30.473 4.353 34.827 8.706 67.476 26.12 171.954 45.71 254.667h89.242zM454.135 848.89c17.413-82.712 37.003-187.19 45.71-254.666 0-4.354 4.353-32.65 4.353-34.827-58.77 4.354-111.01 10.884-158.895 19.59v269.904H454.135c2.176 0 2.176 0 0 0 2.176 0 2.176 0 0 0zM114.578 596.4V398.326H99.342l37.003-82.713 37.003 82.713H158.11v182.838c41.357-13.06 89.243-26.12 141.482-37.003V326.496h-15.236l37.003-82.712 37.003 82.712h-15.237v208.958c50.063-8.706 104.479-15.236 163.248-19.59 4.354-47.886 4.354-93.595 4.354-121.892 0-50.062-2.177-76.182-2.177-76.182-2.177-2.177-2.177-4.353-4.353-6.53-2.177-4.353-4.354-10.883-4.354-17.413v-6.53h-19.59v-2.177l60.947-121.892V0S303.946 141.482 36.219 150.188c0 0-56.592 228.548-28.296 491.922 21.766-10.883 58.77-26.12 106.655-45.71ZM158.111 626.873v222.018H301.77V587.694c-56.593 13.06-104.48 26.12-143.659 39.18zM12.276 689.996v2.177c2.177 17.413 8.707 41.356 15.237 69.652 6.53 28.296 13.06 58.77 21.766 87.066h60.946V642.11c-47.886 21.766-82.712 39.18-97.949 47.886Z"/></g></svg>