<?xml version="1.0" encoding="UTF-8" standalone="no"?>
<svg
   width="1080.0001"
   height="851.0675"
   viewBox="0 0 1080.0001 851.0675"
   version="1.1"
   id="svg7"
   xmlns="http://www.w3.org/2000/svg"
   xmlns:svg="http://www.w3.org/2000/svg">
  <defs
     id="defs7" />
  <title
     id="title1">74FDA2E1-9A1B-4358-9AE3-D85B76EDB345</title>
  <g
     id="Page-1"
     stroke="none"
     stroke-width="1"
     fill="none"
     fill-rule="evenodd"
     transform="matrix(9.6603828,0,0,9.6603828,-0.7835916,0)">
    <g
       id="Landingpage"
       transform="translate(-736,-5696)"
       fill="#218dc1"
       fill-rule="nonzero">
      <g
         id="Group-36"
         transform="translate(0,4798)">
        <g
           id="Plugins-Copy"
           transform="translate(273,325)">
          <g
             id="Group-25"
             transform="translate(1,531)">
            <g
               id="Group-11-Copy-19"
               transform="translate(426)">
              <g
                 id="wordfence-security-logo"
                 transform="translate(36,42)">
                <path
                   d="m 56.103797,16.898734 v 0 l 5.858228,12.843038 v 0.225317 h -2.027848 c 0,0 0,0 0,0 0,0.225316 0,0.450632 0,0.675949 0,0.675949 -0.225316,1.126582 -0.450633,1.802532 -0.225316,0.225316 -0.225316,0.450632 -0.450633,0.675949 0,0 -0.225316,2.703797 -0.225316,7.886076 0,0 0,0 0,0 0,3.15443 0.225316,7.660759 0.450633,12.617721 6.083544,0.450633 11.716455,1.126583 16.898734,2.027849 v -21.63038 h -1.577215 l 3.83038,-8.562025 3.830379,8.562025 H 80.663291 V 56.55443 c 5.632912,1.126583 10.364557,2.478481 14.64557,3.83038 V 41.458228 h -1.577215 l 3.830379,-8.562026 3.830375,8.562026 h -1.57721 v 20.503797 c 4.95696,1.802532 8.78734,3.605064 11.04051,4.731646 C 114.23544,39.43038 108.1519,15.772152 108.1519,15.772152 80.663291,14.870886 56.103797,0 56.103797,0 Z"
                   id="Path" />
                <path
                   d="m 100.04051,66.693671 v 21.405063 h 2.70379 v 0 h 0.67595 1.57722 v 0 h 1.3519 c 0.90126,-2.929114 1.80253,-6.083544 2.25316,-9.012658 v 0 c 0.90127,-2.929114 1.3519,-5.407595 1.57722,-7.210127 0,0 0,0 0,0 0,0 0,-0.225316 0,-0.225316 -1.12658,-1.126582 -4.73165,-2.929114 -10.13924,-4.956962 z"
                   id="path1" />
                <path
                   d="m 80.888608,60.835443 v 27.037975 h 2.703797 v 0 h 4.956962 v 0 h 2.703798 4.506329 V 64.891139 C 91.478481,63.53924 86.521519,62.187342 80.888608,60.835443 Z"
                   id="path2" />
                <path
                   d="M 76.382278,87.873418 V 59.934177 C 71.2,59.032911 65.792405,58.356962 59.934177,57.906329 c 0,0 0,0 0,0 0,0 0.450633,3.154431 0.450633,3.605063 0.901266,6.98481 2.703798,17.8 4.731646,26.362026 v 0 c 0,0 0,0 0,0 v 0 h 9.237974 v 0 0 z"
                   id="path3" />
                <path
                   d="m 47.091139,87.873418 c 1.802532,-8.562026 3.83038,-19.377216 4.731646,-26.362026 0,0 0,0 0,0 v 0 c 0,0 0,0 0,0 0,-0.450632 0.450633,-3.379746 0.450633,-3.605063 0,0 0,0 0,0 -6.083545,0.450633 -11.49114,1.126582 -16.448102,2.027848 v 27.939241 0 h 2.027849 v 0 h 9.237974 c 0.225317,0 0.225317,0 0,0 0.225317,0 0.225317,0 0,0 z"
                   id="path4" />
                <path
                   d="M 11.941772,61.736709 V 41.232911 h -1.577215 l 3.83038,-8.562025 3.830379,8.562025 h -1.577215 v 18.926583 c 4.281013,-1.351899 9.237975,-2.703798 14.64557,-3.83038 V 33.797468 h -1.577215 l 3.830379,-8.562025 3.83038,8.562025 H 35.6 v 21.63038 C 40.782278,54.526582 46.41519,53.850633 52.498734,53.4 c 0.450633,-4.956962 0.450633,-9.688608 0.450633,-12.617722 0,0 0,0 0,0 0,-5.182278 -0.225316,-7.886076 -0.225316,-7.886076 -0.225317,-0.225316 -0.225317,-0.450632 -0.450633,-0.675949 -0.225317,-0.450633 -0.450633,-1.126582 -0.450633,-1.802532 0,-0.225316 0,-0.450632 0,-0.675949 0,0 0,0 0,0 h -2.027848 v -0.225316 l 6.30886,-12.617722 v 0 V 0 c 0,0 -24.559493,14.64557 -52.2734172,15.546835 0,0 -5.8582279,23.658228 -2.92911398,50.921519 C 3.1544304,65.341772 6.9848101,63.764557 11.941772,61.736709 Z"
                   id="path5" />
                <path
                   d="m 16.448101,64.891139 v 22.982279 h 4.506329 2.703798 v 0 h 4.956962 v 0 0 h 2.703797 v 0 -27.037975 c -5.858227,1.351899 -10.81519,2.703797 -14.870886,4.055696 z"
                   id="path6" />
                <path
                   d="m 1.3518987,71.425316 c 0,0 0,0 0,0 0,0 0,0.225317 0,0.225317 0,0 0,0 0,0 0,0 0,0 0,0 0.2253165,1.802532 0.9012659,4.281013 1.5772152,7.210126 v 0 c 0.6759494,2.929114 1.3518988,6.083545 2.2531646,9.012659 h 1.3518987 v 0 h 2.2531646 v 0 H 11.491139 V 66.468354 C 6.5341772,68.721519 2.9291139,70.524051 1.3518987,71.425316 Z"
                   id="path7" />
              </g>
            </g>
          </g>
        </g>
      </g>
    </g>
  </g>
</svg>
