<svg xmlns="http://www.w3.org/2000/svg" fill="none" viewBox="0 0 34 34"><path fill="#B2CADB" d="M6.625 2.773h23.7a2.739 2.739 0 0 1 2.742 2.736 2.739 2.739 0 0 1-2.741 2.737H6.625V2.773ZM12.45 14.575h17.876a2.739 2.739 0 0 1 2.74 2.736 2.739 2.739 0 0 1-2.74 2.737H12.45v-5.473ZM6.625 26.376h23.7a2.739 2.739 0 0 1 2.742 2.736 2.739 2.739 0 0 1-2.741 2.737H6.625v-5.473Z"/><path fill="#47525B" d="M4.74 10.242A4.736 4.736 0 0 0 9.48 5.51 4.736 4.736 0 0 0 4.74.778 4.736 4.736 0 0 0 0 5.51a4.736 4.736 0 0 0 4.74 4.732ZM13.42 22.043a4.736 4.736 0 0 0 4.74-4.732 4.736 4.736 0 0 0-4.74-4.732 4.736 4.736 0 0 0-4.74 4.732 4.736 4.736 0 0 0 4.74 4.732ZM4.74 33.845a4.736 4.736 0 0 0 4.74-4.732 4.736 4.736 0 0 0-4.74-4.732A4.736 4.736 0 0 0 0 29.113a4.736 4.736 0 0 0 4.74 4.732Z"/></svg>