<svg xmlns="http://www.w3.org/2000/svg" xml:space="preserve" style="fill-rule:evenodd;clip-rule:evenodd;stroke-linejoin:round;stroke-miterlimit:2" viewBox="0 0 467 467"><path d="M2271.15 0h826.773v708.241H2271.15z" style="fill:none" transform="matrix(.56485 0 0 .65932 -1282.85 0)"/><path d="M1493.5 1056.38V1037h3v24.62l-70.48-41.24 70.48-40.988V1004h-3v-19.392l-61.52 35.782 61.52 35.99Z" style="fill:#fff" transform="matrix(2.8058 -.75181 .75181 2.8058 -4628.699 -1488.911)"/><path d="M212.517 110h-12.125L190 92l-10.392 18h-12.125L190 71l22.517 39Z" style="fill:url(#a)" transform="matrix(-.75181 -2.80581 2.8058 -.75181 -45.336 922.928)"/><path d="M212.517 110h-12.125L190 92l-10.392 18h-12.125L190 71l22.517 39Z" style="fill:url(#b)" transform="matrix(2.8058 .75181 -.75181 2.80581 -143.404 -331.577)"/><path d="M212.517 110h-12.125L190 92l-10.392 18h-12.125L190 71l22.517 39Z" style="fill:url(#c)" transform="matrix(-2.054 2.054 -2.054 -2.054 993.143 212.053)"/><path d="M139.622 117 149 142h-18.756l9.378-25Z" style="fill:url(#d)" transform="matrix(-2.8058 -.75181 .75181 -2.80581 530.819 871.396)"/><path d="M139.622 117 149 142h-18.756l9.378-25Z" style="fill:url(#e)" transform="matrix(-2.054 2.054 2.054 2.054 187.578 -381.151)"/><path d="M139.622 117 149 142h-18.756l9.378-25Z" style="fill:url(#f)" transform="matrix(-.75181 -2.80581 -2.8058 .75181 870.557 528.8)"/><circle cx="1496" cy="1004" r="7" style="fill:#fff" transform="matrix(2.8058 -.75181 .75181 2.8058 -4631.506 -1488.16)"/><circle cx="1496" cy="1004" r="7" style="fill:#fff" transform="matrix(2.8058 -.75181 .75181 2.8058 -4606.692 -1395.572)"/><circle cx="1496" cy="1004" r="7" style="fill:#fff" transform="matrix(2.8058 -.75181 .75181 2.8058 -4590.153 -1333.84)"/><circle cx="1496" cy="1004" r="7" style="fill:#fff" transform="matrix(2.8058 -.75181 .75181 2.8058 -4804.372 -1392.572)"/><circle cx="1496" cy="1004" r="7" style="fill:#fff" transform="matrix(2.8058 -.75181 .75181 2.8058 -4648.045 -1549.892)"/><path d="M1499.26 757.787s-1.89-1.298-2.26-2.587c-.29-1.018-.43-4.538-.46-5.2-.13-2.697 2.67-4.356 2.67-4.356l-9.2.191s3.14-.122 3.45 4.165c.05.661-.23 3.476-.46 5.2-.09 1.247-1.8 2.468-1.8 2.468l8.06.119Z" style="fill:#fff" transform="matrix(2.8058 -.75181 .65784 2.45508 -4377.076 -548.11)"/><path d="M1495 760v-16" style="fill:none" transform="matrix(2.8058 -.75181 .65784 2.45508 -4335.73 -393.792)"/><path d="M1498.27 757.077s-1.56-.617-1.62-2.277c0-1.142-.01-1.519 0-2.784-.03-.682-.06-1.408 0-2.067.13-3.113 1.85-3.793 1.85-3.793l-7.04-.225s1.91.788 2.19 3.899c.06.659.04 1.698 0 2.379a88.86 88.86 0 0 0 0 2.309c.03 1.816-1.07 2.309-1.07 2.309l5.69.25Z" style="fill:#fff" transform="matrix(2.8058 -.75181 .65784 2.45508 -4335.73 -393.792)"/><path d="m1496.17 759.473 59.37-39.459" style="fill:none" transform="matrix(2.8058 -.75181 .65784 2.45508 -4542.367 -446.685)"/><path d="M1500.86 762.056s-1-1.656 2.23-4.6c1.82-1.659 4.24-3.305 6.89-5.201 4.84-3.465 10.7-7.315 16.54-11.206 4.93-3.283 9.86-6.57 14.3-9.369 3.7-2.331 7.03-4.384 9.72-5.88.53-.294 1.06-.471 1.51-.771 2.68-1.772 4.8-.061 4.8-.061l-4.62-8.686s-.24 3.172-2.23 4.715c-.43.336-.85.744-1.33 1.123-2.47 1.933-5.68 4.224-9.28 6.747-4.33 3.031-9.26 6.299-14.2 9.571-5.84 3.876-11.67 7.796-16.7 10.891-2.75 1.694-5.21 3.248-7.36 4.269-3.14 1.488-5.85.019-5.85.019l5.58 8.439Z" style="fill:#fff" transform="matrix(2.8058 -.75181 .65784 2.45508 -4542.367 -446.685)"/><path d="m1496.17 759.473 59.37-39.459" style="fill:none" transform="matrix(2.8058 -.75181 -.65784 -2.45508 -3540.543 3292.16)"/><path d="M1496.1 754.362s1.1 1.245 5.03-.764c2.12-1.089 4.61-2.575 7.36-4.269 5.03-3.095 10.86-7.015 16.7-10.891 4.94-3.272 9.75-6.606 14.08-9.636 3.6-2.523 10.09-6.743 10.54-7.052 2.94-2.02 2.37-3.554 2.37-3.554l3.1 5.956s-1.51-1.247-3.91.529c-.44.325-6.85 4.668-10.55 6.999-4.44 2.799-9.37 6.086-14.3 9.369-5.84 3.891-11.7 7.741-16.54 11.206-2.65 1.896-5.09 3.516-6.89 5.201-3.62 3.385-1.83 5.827-1.83 5.827l-5.16-8.921Z" style="fill:#fff" transform="matrix(2.8058 -.75181 -.65784 -2.45508 -3540.543 3292.16)"/><defs><linearGradient id="a" x1="0" x2="1" y1="0" y2="0" gradientTransform="scale(-160.7235) rotate(-75 -.938 .578)" gradientUnits="userSpaceOnUse"><stop offset="0" style="stop-color:#ff8f00;stop-opacity:1"/><stop offset="1" style="stop-color:#fe00ff;stop-opacity:1"/></linearGradient><linearGradient id="b" x1="0" x2="1" y1="0" y2="0" gradientTransform="scale(160.7235) rotate(-15 4.962 -1.993)" gradientUnits="userSpaceOnUse"><stop offset="0" style="stop-color:#ff8f00;stop-opacity:1"/><stop offset="1" style="stop-color:#fe00ff;stop-opacity:1"/></linearGradient><linearGradient id="c" x1="0" x2="1" y1="0" y2="0" gradientTransform="rotate(-135 173.811 54.311) scale(160.724)" gradientUnits="userSpaceOnUse"><stop offset="0" style="stop-color:#ff8f00;stop-opacity:1"/><stop offset="1" style="stop-color:#fe00ff;stop-opacity:1"/></linearGradient><linearGradient id="d" x1="0" x2="1" y1="0" y2="0" gradientTransform="scale(-160.7235) rotate(-15 -4.103 4.77)" gradientUnits="userSpaceOnUse"><stop offset="0" style="stop-color:#ff8f00;stop-opacity:1"/><stop offset="1" style="stop-color:#fe00ff;stop-opacity:1"/></linearGradient><linearGradient id="e" x1="0" x2="1" y1="0" y2="0" gradientTransform="scale(-160.724 160.724) rotate(45 -1.58 -1.166)" gradientUnits="userSpaceOnUse"><stop offset="0" style="stop-color:#ff8f00;stop-opacity:1"/><stop offset="1" style="stop-color:#fe00ff;stop-opacity:1"/></linearGradient><linearGradient id="f" x1="0" x2="1" y1="0" y2="0" gradientTransform="scale(-160.7235 160.7235) rotate(-75 .592 1.434)" gradientUnits="userSpaceOnUse"><stop offset="0" style="stop-color:#ff8f00;stop-opacity:1"/><stop offset="1" style="stop-color:#fe00ff;stop-opacity:1"/></linearGradient></defs></svg>