<?xml version="1.0" standalone="no"?>
<!DOCTYPE svg PUBLIC "-//W3C//DTD SVG 20010904//EN"
 "http://www.w3.org/TR/2001/REC-SVG-20010904/DTD/svg10.dtd">
<svg version="1.0" xmlns="http://www.w3.org/2000/svg"
 width="240.000000pt" height="240.000000pt" viewBox="0 0 240.000000 240.000000"
 preserveAspectRatio="xMidYMid meet">

<g transform="translate(0.000000,240.000000) scale(0.100000,-0.100000)"
fill="#000000" stroke="none">
<path d="M765 2069 c-179 -12 -224 -23 -273 -65 -74 -63 -73 -55 -70 -619 l3
-500 34 -70 c61 -125 213 -256 420 -362 110 -56 289 -126 321 -125 14 0 77 21
140 47 313 126 514 275 597 442 l38 77 3 483 c2 341 0 495 -9 525 -7 28 -27
59 -58 89 -56 56 -85 64 -309 79 -178 12 -648 11 -837 -1z m850 -403 c39 -1
99 2 135 7 l65 7 -100 -34 c-95 -33 -103 -38 -167 -105 l-68 -71 0 -73 c0
-100 -22 -138 -128 -222 -116 -93 -137 -142 -167 -390 -9 -71 -18 -141 -21
-154 l-5 -24 -21 20 c-11 12 -27 45 -35 74 -21 80 -27 325 -10 434 9 55 11 97
5 107 -4 10 -36 36 -69 58 -33 23 -92 71 -132 106 -55 51 -102 80 -202 129
l-130 64 183 0 182 1 122 -45 c66 -24 136 -47 154 -51 31 -6 35 -3 63 42 71
118 103 137 211 127 36 -3 97 -6 135 -7z"/>
</g>
</svg>
