<svg xmlns="http://www.w3.org/2000/svg" version="1.0" viewBox="0 0 240 240"><path d="M76.5 33.1c-17.9 1.2-22.4 2.3-27.3 6.5-7.4 6.3-7.3 5.5-7 61.9l.3 50 3.4 7c6.1 12.5 21.3 25.6 42 36.2 11 5.6 28.9 12.6 32.1 12.5 1.4 0 7.7-2.1 14-4.7 31.3-12.6 51.4-27.5 59.7-44.2l3.8-7.7.3-48.3c.2-34.1 0-49.5-.9-52.5-.7-2.8-2.7-5.9-5.8-8.9-5.6-5.6-8.5-6.4-30.9-7.9-17.8-1.2-64.8-1.1-83.7.1zm85 40.3c3.9.1 9.9-.2 13.5-.7l6.5-.7-10 3.4c-9.5 3.3-10.3 3.8-16.7 10.5L148 93v7.3c0 10-2.2 13.8-12.8 22.2-11.6 9.3-13.7 14.2-16.7 39-.9 7.1-1.8 14.1-2.1 15.4l-.5 2.4-2.1-2c-1.1-1.2-2.7-4.5-3.5-7.4-2.1-8-2.7-32.5-1-43.4.9-5.5 1.1-9.7.5-10.7-.4-1-3.6-3.6-6.9-5.8-3.3-2.3-9.2-7.1-13.2-10.6-5.5-5.1-10.2-8-20.2-12.9l-13-6.4h18.3L93 80l12.2 4.5c6.6 2.4 13.6 4.7 15.4 5.1 3.1.6 3.5.3 6.3-4.2 7.1-11.8 10.3-13.7 21.1-12.7 3.6.3 9.7.6 13.5.7z"/></svg>