<svg xmlns="http://www.w3.org/2000/svg" viewBox="0 0 24 24"><defs><linearGradient id="a" x1="7.573" x2="24.427" y1="30.596" y2="1.404" gradientTransform="scale(.75)" gradientUnits="userSpaceOnUse"><stop offset="0" stop-color="#0845BF"/><stop offset=".6" stop-color="#0B5CFF"/><stop offset="1" stop-color="#4F90EE"/></linearGradient></defs><path fill="url(#a)" d="M23.7 8.232A9.602 9.602 0 0 0 15.769.3a23.749 23.749 0 0 0-7.537 0A9.602 9.602 0 0 0 .3 8.232a23.749 23.749 0 0 0 0 7.536A9.602 9.602 0 0 0 8.232 23.7a23.751 23.751 0 0 0 7.537 0 9.602 9.602 0 0 0 7.931-7.932 23.752 23.752 0 0 0 0-7.536z"/><path fill="#fff" d="M10.204 15.721H4.265c-.417 0-.789-.249-.948-.634s-.073-.824.222-1.118l4.114-4.114H4.704c-.81 0-1.466-.657-1.466-1.467h5.477c.417 0 .789.249.948.634.16.385.073.824-.222 1.119l-4.114 4.114h3.41c.81 0 1.467.656 1.467 1.466zm10.559-4.583a2.863 2.863 0 0 0-2.86-2.86c-.843 0-1.602.368-2.126.95a2.853 2.853 0 0 0-2.127-.95 2.863 2.863 0 0 0-2.86 2.86v4.583c.81 0 1.467-.657 1.467-1.466v-3.117c0-.768.625-1.393 1.393-1.393s1.393.625 1.393 1.393v3.117c0 .81.657 1.466 1.467 1.466v-4.583c0-.768.625-1.393 1.393-1.393s1.393.625 1.393 1.393v3.117c0 .81.657 1.466 1.467 1.466z"/></svg>