<svg version="1.2" xmlns="http://www.w3.org/2000/svg" viewBox="12.833333333333332 17.250098619329382 116.746614069691 117.5748849441157" width="118" height="118"><style>.a{fill:#6caa25}.b{fill:#b1b2b3}</style><path class="a" d="m51.9 93.2q1.9-0.1 3.8-0.5 1.8-0.3 3.6-0.9 1.8-0.6 3.5-1.5 1.7-0.8 3.3-1.8v5.5l0.2 2.8q0.1 1.4 0.2 2.7c-8.2 7.7-26.8 11.4-34.9 16.4l-0.2-0.2q2.8-2.6 5.5-5.3 2.7-2.7 5.2-5.5 2.6-2.8 5.1-5.8 2.4-2.9 4.7-5.9zm38.1-36q-1.9 0.1-3.8 0.5-1.8 0.4-3.6 1-1.8 0.6-3.5 1.4-1.7 0.9-3.3 1.9v-5.5l-0.2-2.8-0.2-2.8c8.3-7.6 26.9-11.4 35-16.4l0.2 0.2q-2.8 2.6-5.5 5.3-2.7 2.7-5.3 5.5-2.6 2.8-5 5.8-2.5 2.9-4.8 5.9zm-19.8 43.6q1.2-1.4 2.3-3 1-1.5 1.8-3.2 0.9-1.7 1.5-3.5 0.6-1.7 1-3.6l2 2 2 1.8q1 1 2.1 1.9 1.1 0.8 2.1 1.7c0 11.3-11 27.7-13.2 37.2h-0.2c0.6-15.3-0.7-23.6-1.4-31.3zm13.5-21q1.5 0 2.9-0.1 1.5 0 2.9-0.1 1.5-0.1 2.9-0.2 1.5-0.1 2.9-0.3c8 8.1 12.3 27 17.5 34.8l-0.1 0.1c-11-11.2-18-16-24.3-20.9q-0.1-1.8-0.5-3.5-0.4-1.8-1-3.4-0.6-1.7-1.4-3.3-0.8-1.6-1.8-3.1zm-11.9-30.2q-1.3 1.4-2.3 3-1.1 1.5-1.9 3.2-0.8 1.7-1.5 3.5-0.6 1.8-0.9 3.6-1-1-2-1.9-1-1-2.1-1.9-1-1-2.1-1.8-1-0.9-2.1-1.8c0-11.2 10.7-27.3 13.1-36.8h0.3c-0.5 15 0.7 23.3 1.5 30.9zm-26.4 25.4q1.4 1.2 2.9 2.1 1.5 1 3.1 1.8 1.7 0.8 3.4 1.3 1.7 0.6 3.4 0.9l-2.1 2.1q-1 1-2 2.1-1 1.1-1.9 2.2-1 1.1-1.9 2.2c-11.1-0.5-26.6-10.1-35.8-12.1v-0.3c15.1 0.1 23.3-1.3 30.9-2.3zm51.1 0.4q-1.4-1.1-2.9-2.1-1.5-1-3.1-1.8-1.6-0.7-3.3-1.3-1.7-0.6-3.5-0.9 1.1-1 2.1-2.1 1-1 2-2.1 1-1 2-2.2l1.8-2.2c11.4 0.6 27.2 10.4 36.3 12.2v0.2c-15.4-0.1-23.7 1.3-31.4 2.3zm-38.3-4.8q-1.4 0-2.9 0.1-1.5 0-2.9 0.1-1.5 0.1-2.9 0.2-1.4 0.1-2.9 0.3c-7.8-8-12-26.1-17.1-34.3l0.2-0.2c10.7 10.9 17.6 15.7 23.8 20.5q0.2 1.8 0.6 3.5 0.3 1.8 0.9 3.5 0.6 1.6 1.4 3.2 0.8 1.7 1.8 3.1z"/><path class="b" d="m106.1 58.5c8-0.3 14.5 3.2 19.1 6.8q0.2 0.1 0.4 0.3l0.4 0.4q0.2 0.1 0.4 0.3l0.4 0.4q1.1-1.6 1.8-3.4 0.7-1.8 0.9-3.7 0.2-1.9-0.1-3.8-0.3-1.9-1-3.7-0.9-2.1-2.3-3.9-1.5-1.8-3.4-3.1-1.9-1.3-4.1-1.9-2.2-0.6-4.5-0.6l-0.2-0.1zm-21.8-21.4q1.8-1.6 3.8-2.9 2-1.3 4.2-2.3 2.2-1 4.5-1.6 2.3-0.6 4.7-0.8 0.9-0.1 1.8-0.1-0.3-1.8-1.2-3.5-0.8-1.7-2-3.1-1.1-1.4-2.6-2.5-1.5-1.1-3.3-1.9-1.8-0.8-3.9-1-2-0.3-4.1 0-2 0.3-3.9 1.1-1.9 0.9-3.5 2.2zm-30.5 3.2c-0.1-7.8 3.3-14.2 6.8-18.7l0.4-0.4q0.1-0.2 0.3-0.3 0.1-0.2 0.3-0.4l0.3-0.3q-1.5-1.1-3.3-1.7-1.8-0.7-3.7-0.8-1.9-0.2-3.7 0.1-1.9 0.2-3.7 1-2 0.8-3.8 2.2-1.7 1.4-3 3.2-1.2 1.8-1.9 4-0.7 2.1-0.7 4.3zm36.1 71.9q-0.1 2.4-0.5 4.9-0.5 2.4-1.4 4.7-0.9 2.3-2.1 4.5-1.3 2.1-2.8 4-0.3 0.4-0.6 0.7-0.3 0.3-0.5 0.6l-0.6 0.6q-0.3 0.3-0.6 0.5 1.5 0.9 3.2 1.5 1.7 0.5 3.5 0.6 1.8 0.1 3.5-0.2 1.8-0.2 3.5-0.9 2.1-0.9 3.9-2.4 1.8-1.5 3.1-3.4 1.3-2 1.9-4.2 0.6-2.3 0.5-4.6zm35.1-28.7l-15.7 5.3c5.4 5.4 7.4 12.2 8.1 17.8q0.1 0.3 0.1 0.5v1.1q0.1 0.2 0 0.5 1.8-0.4 3.4-1.3 1.6-0.8 2.9-2 1.4-1.1 2.4-2.6 1.1-1.4 1.8-3.1 0.8-2 1.1-4.2 0.2-2.2-0.2-4.4-0.4-2.1-1.4-4.1-1-2-2.5-3.5zm-107.8-14.4l16.2-5.5c-6-5.5-8.2-12.7-8.9-18.5-0.1-0.5-0.1-1-0.1-1.5q-1.7 0.4-3.3 1.3-1.6 0.8-3 2-1.3 1.1-2.3 2.6-1.1 1.4-1.8 3.1-0.9 2.1-1.1 4.3-0.2 2.2 0.2 4.4 0.4 2.2 1.5 4.2 1.1 2 2.6 3.6zm41.3 46q-1.8 1.5-3.8 2.8-2 1.3-4.2 2.2-2.1 1-4.4 1.6-2.3 0.6-4.7 0.8-0.4 0.1-0.8 0.1h-2.6q0.4 1.8 1.3 3.4 0.8 1.7 2 3.1 1.2 1.4 2.6 2.5 1.5 1.1 3.2 1.8 2.1 0.9 4.3 1.1 2.3 0.3 4.5-0.1 2.2-0.4 4.2-1.5 1.9-1 3.5-2.6zm-23.1-21.1q-2.4-0.1-4.8-0.6-2.4-0.5-4.6-1.4-2.3-0.8-4.4-2.1-2-1.2-3.9-2.7-0.3-0.2-0.5-0.5-0.3-0.2-0.5-0.4l-0.5-0.5-0.5-0.5q-1.1 1.6-1.8 3.4-0.7 1.8-0.9 3.7-0.2 1.9 0.1 3.8 0.2 1.9 1 3.7 0.8 2 2.2 3.8 1.4 1.7 3.2 3 1.8 1.2 4 1.9 2.1 0.7 4.3 0.7z"/></svg>