<svg xmlns="http://www.w3.org/2000/svg" viewBox="0 0 127.56 27.9"><defs><style>.cls-1{fill:#007acc;}.cls-2{fill:#002f5e;}</style></defs><title>logoo</title><g id="Слой_2" data-name="Слой 2"><g id="Layer_1" data-name="Layer 1"><path class="cls-1" d="M73.8,8.37C74.94,3.79,72.16,0,65.35,0L50.59,0,45.06,22.4l3.21,5.51h10.5c6.88,0,12.21-3.21,13.58-8.79.69-2.86-.11-4.86-1.91-5.86v-.07A7.78,7.78,0,0,0,73.8,8.37Zm-9,10.57c-.28,1.17-1.07,2.37-4.34,2.37h-6.7l1.17-4.8h6.67C64.83,16.5,65.07,17.73,64.76,18.94ZM66.14,8.52c-.24.9-.93,2-3.75,2h-6l1-3.9h6C66.24,6.6,66.38,7.52,66.14,8.52Z"/><polygon class="cls-1" points="83.09 17.1 96.53 17.1 98.06 10.5 84.71 10.5 85.75 6.6 98.97 6.6 100.5 0 78.8 0 71.92 27.9 96.5 27.9 98.11 21.3 82.1 21.3 83.09 17.1"/><polygon class="cls-1" points="102.38 0 100.84 6.6 108.87 6.6 103.6 27.9 112.03 27.9 117.31 6.6 125.91 6.6 127.56 0 102.38 0"/><path class="cls-2" d="M8.82,27.9H.32L4,13l.85-2.25L2.6,13,.1,15.53,0,8.09,8.82,0h6.87Z"/><path class="cls-2" d="M39.51,16.34,36.8,11.75,49.95,0H37.7l-5,4.8,0,0L15.74,20.35,7.6,27.9H19.19l8.71-7.77,2.93,5c1,1.26,2.41,2.79,8.39,2.79h7L39.52,16.33Z"/><path class="cls-2" d="M31.76,3.26l0-.06A7.69,7.69,0,0,0,25.12,0H16.07l6.75,11.48Z"/></g></g></svg>