<svg xmlns="http://www.w3.org/2000/svg" viewBox="0 0 498.014 500">
  <path fill="#00a59a" d="M498.014 0v500H0V0h498.014Z"/>
  <path fill="#fff" d="M326.155 308.766h56.029c.317 0 .6-.202.699-.504l18.956-57.01c.004-.012.004-.02.008-.027l16.432-56.552a.738.738 0 0 0-.055-.55l-2.391-4.489a.726.726 0 0 0-.651-.39h-68.717a.732.732 0 0 0-.725.618l-9.844 61.367c-.004.003-.004.011-.004.018l-10.454 56.651a.735.735 0 0 0 .72.868h-.003Zm-126.166 0h55.794a.74.74 0 0 0 .699-.5l19.085-57.015c.003-.01.003-.019.007-.026l16.543-56.552a.737.737 0 0 0-.06-.55l-2.405-4.489a.735.735 0 0 0-.647-.39h-69.196a.729.729 0 0 0-.721.618l-9.921 61.374v.007l-9.903 56.662a.737.737 0 0 0 .725.861Zm-122.837 0h56.026a.736.736 0 0 0 .699-.504l18.956-57.01a.107.107 0 0 1 .01-.027l16.433-56.552a.733.733 0 0 0-.06-.55l-2.39-4.489a.735.735 0 0 0-.647-.39H97.462a.732.732 0 0 0-.725.618l-9.851 61.367v.018l-10.46 56.651a.735.735 0 0 0 .726.868Z"/>
</svg>