<svg xmlns="http://www.w3.org/2000/svg" viewBox="0 0 374.107 500">
  <g transform="translate(-209.821 -207.59) scale(4.46429)">
    <path fill="#2d7aae" d="M116.9 109.5c0 5.2-2.8 9.7-7 12.1v8.9c0 3.9-3.1 7-7 7 4.9 0 9.5-1.3 13.5-3.5.3-1.1.5-2.3.5-3.5v-21z" class="st0"/>
    <linearGradient id="a" x1="42.708" x2="130.681" y1="135.749" y2="47.776" gradientTransform="matrix(1 0 0 -1 0 206)" gradientUnits="userSpaceOnUse">
      <stop offset="0" stop-color="#3ae7e1"/>
      <stop offset=".948" stop-color="#1993d2"/>
    </linearGradient>
    <path fill="url(#a)" d="M102.9 95.5H75c-3.9 0-7 3.1-7 7v28c0 3.9 3.1 7 7 7h28c3.9 0 7-3.1 7-7v-28c-.1-3.9-3.2-7-7.1-7zm-7 28H82v-14h14l-.1 14z" class="st1"/>
  </g>
  <g transform="translate(-209.821 -207.59) scale(4.46429)">
    <linearGradient id="b" x1="67.759" x2="155.732" y1="160.8" y2="72.827" gradientTransform="matrix(1 0 0 -1 0 206)" gradientUnits="userSpaceOnUse">
      <stop offset="0" stop-color="#3ae7e1"/>
      <stop offset=".948" stop-color="#1993d2"/>
    </linearGradient>
    <path fill="url(#b)" d="M76.9 67.5c2.4-4.2 6.9-7 12.1-7s9.7 2.8 12.1 7h1.9c4.7 0 9.3 1 13.6 2.8-2-13.4-13.6-23.8-27.6-23.8S63.4 56.8 61.4 70.3c4.3-1.8 8.9-2.8 13.6-2.8h1.9z"/>
    <path fill="#2d7aae" d="M61 78.3c4.1-2.4 8.9-3.8 14-3.8 0-2.5.7-4.9 1.9-7H75c-4.7 0-9.3 1-13.6 2.8-.2 1.4-.3 2.8-.3 4.2v3.8H61zm40-10.8c1.2 2.1 1.9 4.4 1.9 7 5.1 0 9.9 1.4 14 3.8v-3.8c0-1.4-.1-2.8-.3-4.2-4.3-1.8-8.9-2.8-13.6-2.8h-2z" class="st0"/>
    <linearGradient id="c" x1="42.676" x2="130.649" y1="135.717" y2="47.744" gradientTransform="matrix(1 0 0 -1 0 206)" gradientUnits="userSpaceOnUse">
      <stop offset="0" stop-color="#3ae7e1"/>
      <stop offset=".948" stop-color="#1993d2"/>
    </linearGradient>
    <path fill="url(#c)" d="M116.9 130.5c0 1.2-.2 2.4-.5 3.5 8.6-4.8 14.4-13.9 14.4-24.5v-7c0-10.3-5.6-19.4-14-24.2-4.1-2.4-8.9-3.8-14-3.8H75c-5.1 0-9.9 1.4-14 3.8-8.4 4.8-14 13.8-14 24.2v28c0 15.4 12.5 28 28 28h28c0-7.7-6.3-14-14-14H75c-7.7 0-14-6.3-14-14v-28c0-7.7 6.3-14 14-14h28c7.7 0 14 6.3 14 14v7l-.1 21z"/>
  </g>
</svg>