<svg xmlns="http://www.w3.org/2000/svg" viewBox="-738.2 149.1 435.4 102.8" xml:space="preserve"><path d="M-612.2 149.1h-18.4v99.6h18.4zm-104.1 79 25.4-55 14 30.2zm79.3 20.7-17.9-38.7 17.4-11-8.9-15-15.9 10-17.4-37.6c-1.1-2.3-2.7-4.2-4.7-5.5s-4.4-2-6.7-1.9c-2.4.1-4.7.9-6.6 2.3s-3.4 3.3-4.3 5.5l-34.9 75.5-.1.2c-2.3 5.7-.8 12.2 3.8 16.2 4.5 3.9 10.8 4.2 15.6.9l48.2-30.3 13.7 29.5zm54.3-53.1h27.3c14.1 0 18.8-7.7 18.8-16.4s-4.7-15.9-18.7-15.9h-27.4zm30.9-46.6c26.2 0 34.6 14.6 34.6 30 0 11.6-5.8 23.7-21.5 27.9l24.7 41.7h-20.8l-23-39.1h-24.9v39.1H-601v-99.6zm40.1 15.4h35v84.2h18.4v-84.2h35v-15.4h-88.4zm123.9-15.4H-415v99.6h16.6v-72.1c0-4.5-.3-8.6-.7-12.1h.5c.5 2.7 1.9 7.9 3.2 11.6l27.3 72.5h17.3l27.3-72.5c1.5-3.8 3.1-9.4 3.5-11.6h.5c-.4 3.6-.7 8-.7 12.1v72.1h17.2v-99.6h-27.4l-25.8 69.5c-1.5 4.2-2.3 6.7-2.8 10.1h-.3c-.5-3-1.2-5.2-2.3-8.7-.1-.4-.3-.9-.4-1.4z" style="fill:#050505"/></svg>
