<svg xmlns="http://www.w3.org/2000/svg" xmlns:xlink="http://www.w3.org/1999/xlink" viewBox="0 0 177.5 146.3"><defs><linearGradient id="a" x1="23.81" y1="-10.95" x2="154.81" y2="-10.95" gradientTransform="translate(-0.6 95.1)" gradientUnits="userSpaceOnUse"><stop offset="0" stop-color="#fd743e"/><stop offset="1" stop-color="#fd3254"/></linearGradient><linearGradient id="b" x1="38.19" y1="-69.68" x2="137.21" y2="-87.5" xlink:href="#a"/><linearGradient id="c" x1="39.75" y1="-60.99" x2="138.77" y2="-78.82" xlink:href="#a"/><linearGradient id="d" x1="58.81" y1="44.91" x2="157.84" y2="27.09" xlink:href="#a"/></defs><path d="M138.5,99.1a27,27,0,0,1,9,1.6c4.5-5.2,6.9-10.8,6.9-16.6,0-9.6-6.5-18.8-18.2-26-12.6-7.6-29.5-11.9-47.3-11.9-18,0-34.9,4.3-47.3,11.9-11.8,7.2-18.2,16.4-18.2,26,0,5.8,2.4,11.5,6.9,16.6a26.6,26.6,0,0,1,9-1.6A25.85,25.85,0,0,1,58,106.9a26.87,26.87,0,0,1,7,12.5,103.46,103.46,0,0,0,24.1,2.7,104.71,104.71,0,0,0,24.1-2.7,26.49,26.49,0,0,1,7-12.5A24.52,24.52,0,0,1,138.5,99.1ZM88.8,77A14.72,14.72,0,0,1,74.1,62.3h29.5A14.87,14.87,0,0,1,88.8,77Z" fill="url(#a)"/><path d="M37.7,51.2c1.5-.9,2.9-1.7,4.4-2.5H42a20.68,20.68,0,0,0-12.5-4.2A20.41,20.41,0,0,0,13,52.7l-1.7,2.4L23,63.9A52.74,52.74,0,0,1,37.7,51.2Z" fill="#fd743e"/><path d="M23.2,104.3A33.77,33.77,0,0,1,16.1,88a26.93,26.93,0,0,1-.3-4,32.19,32.19,0,0,1,6.4-19H20.7A20.68,20.68,0,0,0,0,85.7v2.9H15.4a20.88,20.88,0,0,0-7.3,13.2,20.43,20.43,0,0,0,4,15.3l1.2,1.7a25.29,25.29,0,0,1,6.9-11.9A34.77,34.77,0,0,1,23.2,104.3Z" fill="#fd743e"/><path d="M154.4,63.9l11.7-8.8-1.7-2.4a20.7,20.7,0,0,0-29-4h-.1c1.5.8,3,1.6,4.4,2.5a50,50,0,0,1,14.7,12.7Z" fill="#df2c4a"/><path d="M177.5,85.7A20.68,20.68,0,0,0,156.8,65h-1.6a31.74,31.74,0,0,1,6.4,19,26.93,26.93,0,0,1-.3,4,35.77,35.77,0,0,1-7.1,16.3,34.67,34.67,0,0,1,2.9,2.5,26.15,26.15,0,0,1,6.9,11.9l1.2-1.7a20.12,20.12,0,0,0,4-15.3,20.63,20.63,0,0,0-7.3-13.2h15.5V85.6h.1Z" fill="#df2c4a"/><path d="M63.8,41.4A20.7,20.7,0,1,0,43.1,20.7,20.68,20.68,0,0,0,63.8,41.4Zm0-32.1h0A8.77,8.77,0,0,0,61.6,15a8,8,0,0,0,8,8,7.85,7.85,0,0,0,5.7-2.4v.1a11.4,11.4,0,1,1-22.8,0A11.25,11.25,0,0,1,63.8,9.3Z" fill="url(#b)"/><path d="M113.6,41.4A20.7,20.7,0,1,0,92.9,20.7,20.68,20.68,0,0,0,113.6,41.4Zm0-32.1h0a8.77,8.77,0,0,0-2.2,5.7,8,8,0,0,0,8,8,7.85,7.85,0,0,0,5.7-2.4v.1a11.39,11.39,0,0,1-11.4,11.4,11.16,11.16,0,0,1-11.3-11.3A11.25,11.25,0,0,1,113.6,9.3Z" fill="url(#c)"/><path d="M39.1,104.8a20.7,20.7,0,0,0,0,41.4A20,20,0,0,0,46,145a3.39,3.39,0,0,1-.6-.6c-6-6-8.1-13.7-4.5-17.2s11.2-1.5,17.2,4.5a3.39,3.39,0,0,0,.6.6,19.23,19.23,0,0,0,1.2-6.9A20.94,20.94,0,0,0,39.1,104.8Z" fill="#fd743e"/><path d="M138.5,104.8a20.61,20.61,0,0,0-20.7,20.7,20,20,0,0,0,1.2,6.9,3.39,3.39,0,0,1,.6-.6c6-6,13.7-8.1,17.2-4.5s1.5,11.2-4.5,17.2l-.6.6a19.23,19.23,0,0,0,6.9,1.2,20.61,20.61,0,0,0,20.7-20.7,21,21,0,0,0-20.8-20.8Z" fill="url(#d)"/></svg>
