<?xml version="1.0" encoding="UTF-8"?>
<svg version="1.1" xmlns="http://www.w3.org/2000/svg" width="32" height="32">
<path d="M0 0 C0.66 0.33 1.32 0.66 2 1 C2.928125 0.979375 3.85625 0.95875 4.8125 0.9375 C8.6668805 2.2222935 9.05060739 3.14110052 10.9375 6.625 C12.93998526 11.12576269 13.57329312 14.18178981 12 19 C10.38329756 21.10007827 9.51016439 21.89861551 6.88696289 22.41992188 C4.27768125 22.47269327 1.67239117 22.50738823 -0.9375 22.5 C-1.84435547 22.52835938 -2.75121094 22.55671875 -3.68554688 22.5859375 C-10.30617762 22.60542427 -10.30617762 22.60542427 -13.63671875 19.69921875 C-15.47754349 16.05449125 -15.02746626 13.88969368 -14 10 C-13.34 9.34 -12.68 8.68 -12 8 C-11.505 6.824375 -11.01 5.64875 -10.5 4.4375 C-8.11509581 -1.02790543 -5.60322001 -0.200115 0 0 Z M-10 12 C-10.38218767 13.65614657 -10.71395102 15.32457024 -11 17 C-10.02667739 18.19341752 -10.02667739 18.19341752 -8.23413086 18.11352539 C-7.48526611 18.10828857 -6.73640137 18.10305176 -5.96484375 18.09765625 C-5.15595703 18.09443359 -4.34707031 18.09121094 -3.51367188 18.08789062 C-2.2384668 18.07532227 -2.2384668 18.07532227 -0.9375 18.0625 C-0.08349609 18.05798828 0.77050781 18.05347656 1.65039062 18.04882812 C3.76695663 18.03700373 5.88348685 18.01906769 8 18 C8.38218767 16.34385343 8.71395102 14.67542976 9 13 C8.02667739 11.80658248 8.02667739 11.80658248 6.23413086 11.88647461 C5.48526611 11.89171143 4.73640137 11.89694824 3.96484375 11.90234375 C3.15595703 11.90556641 2.34707031 11.90878906 1.51367188 11.91210938 C0.66353516 11.92048828 -0.18660156 11.92886719 -1.0625 11.9375 C-1.91650391 11.94201172 -2.77050781 11.94652344 -3.65039062 11.95117188 C-5.76695663 11.96299627 -7.88348685 11.98093231 -10 12 Z " fill="#EEC57A" transform="translate(17,5)"/>
<path d="M0 0 C4.62 0 9.24 0 14 0 C14 1.32 14 2.64 14 4 C9.38 4 4.76 4 0 4 C0 2.68 0 1.36 0 0 Z " fill="#EDC170" transform="translate(9,18)"/>
</svg>
