<?xml version="1.0" standalone="no"?><!DOCTYPE svg PUBLIC "-//W3C//DTD SVG 1.1//EN" "http://www.w3.org/Graphics/SVG/1.1/DTD/svg11.dtd"><svg t="1727340610287" class="icon" viewBox="0 0 1653 1024" version="1.1" xmlns="http://www.w3.org/2000/svg" p-id="17270" xmlns:xlink="http://www.w3.org/1999/xlink" width="322.8515625" height="200"><path d="M344.8620198 721.82988526a57.857089 57.857089 0 0 1-46.13274501-56.07295017v-308.4012244a59.89610558 59.89610558 0 0 1 46.13274501-56.07295017l286.35436058-62.06256065 30.07549089-122.72329718H328.80476645A210.78331632 210.78331632 0 0 0 116.61962599 327.28021902v364.47417458a213.71440233 213.71440233 0 0 0 212.18514046 212.31257895h332.48710482l-30.07549089-122.21354321zM1178.05508073 116.49690269H843.01920461l30.58524561 122.72329718 286.35436059 62.06256065a57.98452749 57.98452749 0 0 1 46.132745 56.07295017v308.4012244a60.15098257 60.15098257 0 0 1-46.13274502 56.07295017l-286.35436057 62.06256066-30.58524561 122.72329716H1178.05508073a212.44001744 212.44001744 0 0 0 212.94977139-212.82233291V327.28021902A213.33208686 213.33208686 0 0 0 1178.05508073 116.49690269z" fill="#F76E05" p-id="17271"></path><path d="M631.21638038 495.49906876h244.29964793v30.07549166H631.21638038z" fill="#F76E05" p-id="17272"></path></svg>