<svg aria-describedby="allianzLifeLogoDesc" aria-labelledby="allianzLifeLogoTitle" focusable="true" preserveaspectratio="xMidYMid meet" role="img" viewBox="0 0 122 30" xmlns="http://www.w3.org/2000/svg"><title id="allianzLifeLogoTitle">Allianz Life Logo</title><desc id="allianzLifeLogoDesc">Corporate logo for AllianzLife North America</desc><defs>
<polygon points="92 0 122 0 122 30 92 30"></polygon>
</defs>
<g fill="none" fill-rule="evenodd">
<path d="M10.8985333 15.9039643L6.81096996 15.9039643 8.98478818 8.55712908 10.8985333 15.9039643zM4.6950548 24L6.08669102 19.1718187 11.59337 19.1718187 12.8986424 24 18 24 12.9271032 5.58875184C12.6375879 4.5096188 11.9996729 4 10.8985333 4L3.68126056 4 3.68126056 5.73899802 4.28973338 5.73899802C5.04345456 5.73899802 5.44877597 6.0384752 5.44877597 6.63844475 5.44877597 7.02827268 5.36143067 7.35820517 5.07191538 8.2576519L0 24 4.6950548 24zM24 24L24 5.52987158C24 4.56951424 23.4404248 4 22.5293727 4L18 4 18 5.7400132 18.2947229 5.7400132C19.0594092 5.7400132 19.383007 6.06893051 19.383007 6.84858637L19.383007 24 24 24zM32 24L32 5.52987158C32 4.56951424 31.440332 4 30.5291286 4L26 4 26 5.7400132 26.2937759 5.7400132C27.0585892 5.7400132 27.3822407 6.06893051 27.3822407 6.84858637L27.3822407 24 32 24zM40 6.12334582C40 4.79600499 39.0338563 4 37.3651528 4 35.7271676 4 34.7312964 4.79600499 34.7312964 6.12334582 34.7312964 7.45068664 35.7271676 8.24669164 37.3651528 8.24669164 39.0338563 8.24669164 40 7.45068664 40 6.12334582L40 6.12334582zM39.9118084 24L39.9118084 10.7545568C39.9118084 9.81073658 39.3559042 9.25043695 38.4492155 9.25043695L34 9.25043695 34 10.9313358 34.2625929 10.9313358C35.0246078 10.9313358 35.3456647 11.2848939 35.3456647 12.0529338L35.3456647 24 39.9118084 24zM50.1545712 16.8213861L50.1545712 19.6632721C49.3750453 20.454834 48.4158631 20.924018 47.605887 20.924018 46.7664757 20.924018 46.4670485 20.51435 46.4670485 19.429176 46.4670485 18.345986 46.7076053 17.847044 47.5470166 17.524666 48.1763213 17.2608121 48.9852824 17.026716 50.1545712 16.8213861L50.1545712 16.8213861zM43.8290437 13.39426C45.3880954 12.662214 47.0973682 12.252546 48.4452983 12.252546 49.7049228 12.252546 50.1545712 12.69098 50.1545712 13.980492L50.1545712 14.3018781C48.2362068 14.59549 47.6363373 14.71353 46.5573842 14.947626 45.9270645 15.09344 45.3576452 15.270004 44.7882259 15.5041 42.8992967 16.236146 42 17.671472 42 19.868602 42 22.652956 43.2301892 24 45.7778583 24 46.7076053 24 47.5470166 23.824428 48.2960922 23.531808 48.9548322 23.238196 49.3456101 23.0031081 50.3037773 22.271062L50.3037773 22.476392C50.3037773 23.385002 50.7838759 23.854186 51.7136229 23.854186L56 23.854186 56 22.271062 55.7909084 22.271062C54.9809324 22.271062 54.6815051 21.9209099 54.6815051 20.982542L54.6815051 14.01025C54.6815051 10.28852 53.3630102 9 49.5547017 9 48.3255274 9 47.1268035 9.14680598 45.9575147 9.41065997 44.7882259 9.67352202 44.1893714 9.90860997 42.7795258 10.582132L43.8290437 13.39426zM62.8557409 24L62.8557409 13.980261C63.6084396 13.1201071 64.3915604 12.7346939 65.2904809 12.7346939 66.2473013 12.7346939 66.4789009 13.1201071 66.4789009 14.6025427L66.4789009 24 71 24 71 13.9210438C71 11.5784543 70.8253189 10.8377384 70.1020608 10.0368016 69.4926398 9.35530278 68.5652601 9 67.37684 9 65.609421 9 64.3631011 9.56306457 62.6820412 11.1639344L62.6820412 10.5707595C62.6820412 9.6523921 62.2178606 9.17765139 61.2904809 9.17765139L57 9.17765139 57 10.8668451 57.2610402 10.8668451C58.0147203 10.8668451 58.3336605 11.2231516 58.3336605 11.9939779L58.3336605 24 62.8557409 24zM85 20.849482L78.3428695 20.849482 84.693925 12.0895795 84.693925 9 74.7402844 9C73.6080138 9 73.0899612 9.50985172 73.0899612 10.6199472L73.0899612 13.3499898 74.8612667 13.3499898 74.8612667 13.0798294C74.8612667 12.3902092 75.2273158 12.0601259 75.9904352 12.0601259L79.4120638 12.0601259 73 20.9094048 73 24 85 24 85 20.849482z" fill="#003781"></path>
<mask fill="#fff">
<use href="#wordmark+avatar-a"></use>
</mask>
<path d="M109.168221,23.407836 L109.168221,6.85600926 C109.168221,5.53777484 108.699068,5.09836337 107.410633,5.09836337 L103.542353,5.09836337 L103.542353,6.94329641 L103.777425,6.94329641 C104.658203,6.94329641 104.832771,7.14861961 104.832771,8.20300876 L104.832771,23.407836 L109.168221,23.407836 Z M111.072605,23.407836 L115.378298,23.407836 L115.378298,10.5181022 C115.378298,9.22962473 114.882365,8.76045627 113.621702,8.76045627 L111.072605,8.76045627 L111.072605,23.407836 Z M102.927395,23.407836 L102.927395,8.76045627 L100.381274,8.76045627 C99.1196191,8.76045627 98.6207102,9.22962473 98.6207102,10.5181022 L98.6207102,23.407836 L102.927395,23.407836 Z M119.449911,14.9995041 C119.449911,22.2949248 114.207895,27.5986113 107.000992,27.5986113 C99.7940885,27.5986113 94.5500893,22.2949248 94.5500893,14.9995041 C94.5500893,7.70507522 99.7940885,2.40337246 107.000992,2.40337246 C114.207895,2.40337246 119.449911,7.7348322 119.449911,14.9995041 L119.449911,14.9995041 Z M122,14.9995041 C122,6.41659778 115.585598,0 107.000992,0 C98.4173775,0 92,6.41659778 92,14.9995041 C92,23.5843941 98.4173775,30 107.000992,30 C115.585598,30 122,23.5843941 122,14.9995041 L122,14.9995041 Z" fill="#003781" mask="url(#wordmark+avatar-b)"></path>
</g></svg>