<svg width="500" height="500" viewBox="0 0 500 500" fill="none" xmlns="http://www.w3.org/2000/svg">
<path fill-rule="evenodd" clip-rule="evenodd" d="M442.375 441.562C390.672 479.687 315.75 500 251.25 500C160.625 500 79.344 466.562 17.7346 410.89C13.0471 406.515 17.2346 400.547 23.0471 403.953C89.5315 442.656 171.875 465.937 256.656 465.937C317.884 465.655 378.451 453.272 434.875 429.5C443.625 425.781 450.969 435.218 442.375 441.562ZM463.875 416.968C457.313 408.531 420.188 412.984 403.563 414.937C398.485 415.562 397.719 411.14 402.281 407.968C431.969 387.187 480.313 393.172 485.969 400.156C491.625 407.14 484.5 455.781 456.75 478.968C452.485 482.531 448.422 480.64 450.5 475.906C456.75 460.343 470.719 425.437 464.094 416.968" fill="#FF9900"/>
<g style="mix-blend-mode:difference">
<path fill-rule="evenodd" clip-rule="evenodd" d="M287.969 216.625C287.969 243.063 288.641 265.109 275.281 288.578C264.344 307.641 247.156 319.406 228.328 319.406C202.281 319.406 187.016 299.563 187.016 270.266C187.016 212.453 238.828 201.938 287.984 201.938L287.969 216.625ZM356.422 382C351.938 386.016 345.453 386.297 340.391 383.625C317.891 364.922 313.766 356.234 301.453 338.391C264.234 376.359 237.797 387.719 189.609 387.719C132.453 387.719 88.0781 352.5 88.0781 281.984C88.0781 226.922 117.844 189.422 160.422 171.094C197.25 154.875 248.703 152.031 288 147.656V139.062C288 122.938 289.25 103.844 279.719 89.9219C271.516 77.4219 255.656 72.2656 241.641 72.2656C215.781 72.2656 192.781 85.5469 187.156 113.016C186.016 119.266 181.531 125.141 175.328 125.422L109.375 118.047C103.844 116.797 97.6563 112.328 99.2656 103.984C114.5 24.0625 186.641 0 251.156 0C284.172 0 327.313 8.78125 353.344 33.7812C386.359 64.6094 383.219 105.734 383.219 150.5V256.25C383.219 288.031 396.391 301.953 408.797 319.141C413.094 325.391 414.047 332.578 408.516 337.172C391.003 351.98 373.669 366.997 356.516 382.219L356.422 382.031" fill="white"/>
</g>
</svg>
