<svg xmlns="http://www.w3.org/2000/svg" xml:space="preserve" width="1209.4" height="1209.4"><defs><clipPath id="a" clipPathUnits="userSpaceOnUse"><path d="M0 907h907V0H0Z"/></clipPath></defs><g clip-path="url(#a)" transform="matrix(1.3333333 0 0 -1.3333333 0 1209.4)"><path d="M0 0a349.3 349.3 0 0 1-327.6 204.7A346.3 346.3 0 0 1-570.1 95a350 350 0 0 1-72-115.3 348.2 348.2 0 0 1 8.4-265 349.3 349.3 0 0 1 327.6-204.8A346.4 346.4 0 0 1-63.6-380.4a350 350 0 0 1 72 115.3A348.5 348.5 0 0 1 0 0m-53.6-142.7a261.5 261.5 0 0 0-77.2-186 264.7 264.7 0 0 0-85.7-57.3 263.8 263.8 0 0 0-200.7 0 264.7 264.7 0 0 0-142.9 142.9 263.8 263.8 0 0 0 0 200.7 264.7 264.7 0 0 0 142.9 142.9 263.7 263.7 0 0 0 200.7 0A264.7 264.7 0 0 0-73.6-42.4c13.2-31.8 20-65.8 20-100.3" style="fill:#fefefe;fill-opacity:1;fill-rule:evenodd;stroke:none" transform="translate(770.4 596.3)"/><path d="M0 0c.9.2 2 1.2 2.7 3.4v4c0 1 .3.6 0 1.5-2 5-2.5 19.5-1.5 28.3-.5 2.1-3.2 3.5-5.8 3.5-5.5 0-5-8.2-5.2-12-.5-8.3-.2-18.2 1.3-22.3.1-.4 1.4-4.6 2.3-5.3C-3.7-1.1-.5-.2 0 0m-81.8 20.6c-3.4-2.6-5.1-19.5-2.1-35.5 0 0 .2-3.2 1.8-4 1-.5 4.4-1 5.1-.5 1.3.7 2.2 2.2 2.9 3.4l1 1.2c1 1 .4.8 0 2.2a97.6 97.6 0 0 0-1.2 34.5c.3 1.7 1.8 2.3-.4 1.6zM72.7-13.9c-.3-2.5-.5-5.1-.3-7.4.1-1.1.7-2.4 1.7-2.7 2.7-.9 6.8.7 7.3 4l1 3.8v.2c2.4 4 3 28.2-2 33.4-1 1-10.3 5.7-10 5 4.5-5.2 4-29 2.3-36.3M87-321.7a250.1 250.1 0 0 0-271.5 54.3 250.2 250.2 0 0 0 0 352.8 250.1 250.1 0 0 0 352.7 0 247.9 247.9 0 0 0 54.3-271.5A251.1 251.1 0 0 0 87-321.8" style="fill:#284985;fill-opacity:1;fill-rule:evenodd;stroke:none" transform="translate(461.7 544.6)"/><path d="M0 0c0 2 .7 6.2.5 8.2 5.5-1.4 10.3 1.2 19 7.3A62.3 62.3 0 0 0 0 0m-63.3 88.5V99l9.4-9.8c2-1.8 4.1-3.6 4.1-5.4.2-1.6-1.2-4-2.8-4a26.1 26.1 0 0 1-10.7 8.8m35.6-60c3.2-12.1 14.2-16.2 14.5-16.4 1-1.8-.8-10.5-.7-11.7-3 .3-23.8 19.5-23.8 19.9 1 2.5 7.7 7 10 8.1M28 8.7c4.3-1 17.6-15 17.8-15.5-9.1-.8-37.9-.5-37.7-1C10.3-5.7 27 9.8 28 8.7M58-2.5c-2 5.7-21.6 19.7-21.2 20.1 2.8 2 17.4 14 18 12.4 2.8-8.3 3.7-20.6 4.8-29.8.3-2.5 1-2.7-1.6-2.7m-7.3 47c-.2-3.6-20.7-19.4-22-19.3-1 .2-1.9 1.1-1.3 2.2.5 1.8 3.9 8.5.5 22.7 0 1.1 17.6-.3 19.6-.7 2-.5 3.4-3.2 3.2-5M13.9 68.1c2.5 2.3 9 9 11.3 9.2 7.2 1 14.3-11.3 15.5-14.4 1-2.4-2.1-3.3-5.3-3.5-4.5-.2-12.8-.7-13.4 0C17.6 66 12.8 67 14 68m-141.4-42.5c1.4-.4 2.7-1.8 4-2.7.6-.5 2.2-1 2-1.7-.3-1.3-2-2.2-3-2.9-5.3-3.9-11.3-8.7-16.8-12-1-.4-2.4-1.1-3.2-1.1-.8.1-1.1.8-1.3 1.6 0 2 .2 5 0 6 0 .7.5 1 1.4 1.2 2.2.6 7 2.2 10 4.3 4.4 3.2 6.4 7.5 7 7.3m77.4 23c2.7-.6 21.7.7 22 .7 0-.4-1-1.5-1.9-7.3-1.2-1.6-14.6-12.1-16-12.7-.2-.7-10 6.4-11 8.7 5.2 5.4 6.4 8.6 7 10.5m-23.2-18.8c.2 1.6 1.8.3 5.7 2.1 4.1-5 1.4-1.8 11.7-10.5-1.4-4-16-15.6-16-15.3-.7 4.3-1.7 19.8-1.4 23.7m6.8 90.9c2.6.1 6-.6 8.9 0 2 .3 5.5-.2 9.7-1 11.8-2.2 26.9-8.6 26.4-10.8-1.5-1.2-18-16-19-16-1.1.2-1.7 1.3-6.6 5.9l-10 9.6c-2.8 2.8-7.8 6.2-10.3 9.6-1.6 2-2.5 2.3.9 2.7M-39.8 75c1.8-1 15.4-12.2 17-14 .2 0-14.2.5-23.4.5.7 3.4-1.1 7.7-.7 7.8 2 1.1 6.7 5.7 7 5.7m27.8 25.5c1.3-2.9 1.4-11.6-.7-13.6-2.5-2.4-2.3-3.2-2.5-7.8-1 0-1.6-8.3-.2-8.9-.7-1.2-4.8 3-5.7 4.1-2 2-5.1 5.2-7.8 6.4a45 45 0 0 0-3 2.5c-.2.2 18.8 19.6 20 17.3M-113 98c-2 1.6-11.3 9-14.8 12.2-1 1-1.3 1.1 1.6 1.8 5.5 1.8 21.5 8.4 35.5 7 3.8-.2-18-17-22.4-21m21.2 1.8c.5-3.4.9-9.3 0-12a18 18 0 0 1-4.6-4.4c-1-1-1.1-.2-2.4 1.2-1.7 1.8-4 3.8-5.6 5.7 3.5 2.9 7.6 8 11.5 10.5 2.3 1.3.9.4 1-1m-69.8 2.6c.5 0 .7-1.3.8-3v7.1c.5 7.2 1.9 12.7 3.8 14.1l7.1 2.9c1.1.4 1.5.5 1.6 0 0-.1 0-.3-.2-.5l-.6-1.5c-.9-3.3-1.1-9.8-.9-16.5.3-7.2 1-14.4 2.2-17.8 0-.4.2-.7.3-1 .3-.5.3-.7-.4-1.5l-.5-.5-.5-.6-1.3-2a6 6 0 0 0-1.7-1.5c-.4-.3-1.3-.3-2.3-.2-1.2 0-2.5.4-3.1.7-1.7.8-2 3.9-2 4.1-.6 3-1 6-1.2 8.9-4-2.8-5.4-5.4-6.6-8.6-2.3 0-6 2.5-7.3 3.2-1.8 3.9 10.1 12.4 12.8 14.2m-21-21.7c3.6-3.4 7.5-6.7 11-10.1a17 17 0 0 1-6-6.2c-6.2-.4-11.7.1-18 0 1.8 5.5 6 11.7 13 16.3m-19.9-28.6c4.6.2 13.7-.2 18.3 0-1.6-3.6-1.6-8-1-11.7.3-1.5-.8-2.4-2.5-2.5-1.6 0-2 1.4-3.4 2.8-2.7 2.5-5.2 5.2-7.8 7.7-.7.5-5.2 3.7-3.6 3.7m79.7-2.3c.3.3 1.6-.2 3.3 0 2.2 0 14.8.3 15.2-.2.5-1.4 2-7.1 5.6-10.5.2-.3-7.2-7.5-10.6-8.9-1-.5-1.8 0-2.5.7l-10.5 10.5c.2.2.2 6.8-.5 8.4m8 31.5c3.3-1.8 7-6 10.8-9.5-1.4-1.6-2.7-6.5-2.3-10 .2-1.3-6.6-.1-9.6-1.2-5 .4-7.5 0-12.3.6 0 .5-3.2 4.2-3.7 4.8 0 1 1.2 2 2.1 2.8 1 .9 14.8 12.5 15 12.5m-12 12s2.4-2.3 2.4-3.2c-.2-3-10.3-11.5-12.7-13.1-.5-.4-1.2-.2-1.4.3-.2 4 1.6 10.7-5.5 15.9-.3.1-2.1 1.8-2.7 2 0 2.4-1.2 8.5 1 9.5 2.4 1.1 3.1 2.2 4.7 1.3 4.3-2.7 9.6-8.7 14.3-12.7m79.8-80.9C-43.4 10-27.7-5.2-27.6-5c-.3-.5-32.9 1-37.7 1C-63.5-.3-47.7 12.5-47 12.3m-64.7-1.2 3.9-4.6 6-5.9 3-2.3-24.8-.7-1 .3-.8 1.1 2.1 2.1zM-88.5 32c1.7-1.6 2.6-1 3.5-1.6.4-4.4-1.2-14.6-1-20.6.1-7.3-.2-6.2-4.7-.7-3.4 4.6-7.6 8.1-11.4 11.3 4.5 3 10.7 9.1 13.6 11.6M-187 19.7c5.6-5.3 13.8-11.3 17.2-18.5a152.5 152.5 0 0 0-42.1-.5l1.7 2c4.8 6 10.4 12.4 17.8 16.9 2.7 1.6 3 2 5.4.1m-22 21.6 10.4-9.7c1.6-2 1.4-1.7-.7-3.5l-18.5-16.2c-.5-.3-2.1-1.8-2-1-4.8 2.3 1.5 24.5 7.3 30.4 1.8 1.7 2.2 1.4 3.6 0M9.6-88.7c4.6.2 8.7.2 12.3-.1 3-.2 5.5-1 8.9-1 .3 0 1.6-.6 1.7-1 .4-.5-.7-1.6-.9-2.1-1.2-2.5-7-9.4-9.4-12.1-1.6-2.7-10.8 10.8-13.1 12.6-2.5 3-3.8 3.4.5 3.7m-233 64c-1.2 2.7 1.7 6.1 4.2 3.8 7-6.4 16.2-13 23-20.1 1.5-1.4 1.2-2.7-.4-3.7-4.3-3.4-8.8-8.6-13.4-10.7-3.5-1.6-6.6 5.3-7 9.2 0 2-5.4 19.2-6.3 21.6M-76-29c-.2 2.3.9 2.1 3.2.5 4.2-3 13-10.6 16-13.3-.2-1.6-1.6-2.7-3-3.5-4-2.5-7.5-5.2-11.2-7.9-1-.5-1.8-1.2-2.7-2-2.1-1.3-2.3.8-2.3 2.6 0 6.2.5 19.7 0 23.6m133.5 2.1C59-25.8 59-51.9 47.3-64c-.9-.9-11.7 12.3-13.5 14.2-1.3 1.6 19 18.9 23.8 23M8-19.3c11.6 1 23 .9 34.5 1.2 1.2 0 3.4.2 4.6-.1.4-.2 0-1.1-.2-1.5-4.2-5.1-17-16.3-21.8-19.7-2.5-1.2-16.2 14-18.9 16.7-.5.7-1 1.4-1.2 2.2-.4 1 2 1 3 1.2M-151-87c-.1 0 2.9.6 4-.3l13.7-14.6c1-1.2 1-1.6 0-2.8-2.5-2.5-5.6-5-8.2-7.5-1.3-1.2-1.6-2-3.4-1.8l-3.4.6c-2 0-2.8 0-3.2.7-.9 1.7.2 12.6 0 15 1.4 4.3 1.6 6.1.5 10.7m63.3 62.6c1.3-7.8.8-35.9-.3-35.2-6.4 4.7-13.7 12.3-19.4 18-.9 1 14.2 14.4 17.4 17 .7.6 2 1 2.3.2m-11.9 7.5c1.5 0-1.4-2.7-2.5-3.7-3.9-4.1-7.4-8.6-11.7-12.3-.5-.4-1.2-.4-1.8 0-4.2 3.4-13.3 9-17.6 13.5-1.4 1.8-1.4 1.6 1.1 2 6.4.7 26.3 1 32.5.5m-63-77.9c.3-3.7.8-11.2-.8-12.6-1-1-5.3-.7-8.3-.5-3 0-4.3 2.5-3.3 6.2.4 1.2 1.8 1.6 3.8 3.2l7 4.6c1.3.9 1.3 1 1.5-.9m-34.8 15.9c10.3.1 17.4.3 27.4-.2 2-.2 2-1.5 1-2.7-2.5-3-11.7-10.8-14.4-13.2a5 5 0 0 0-3.4-1.4c-2.5-.2-4.2 2.5-6 4.6-2.9 3.2-5 7.2-7 10.7-1.2 2.3.2 2.2 2.4 2.2m13.5 24.1c3.2-2.8 7-5.8 10.5-8.9 2.5-2 5.7-3.3.7-3.5-10.2-.4-20-.5-29.5-.2-4.7.2-2.2 1.4.7 3.2 4.6 2.9 8 6 12 10 2.6 2.6 2.7 2 5.6-.6m7.3 12 6.7 7c1.4 1.3 9 9.7 9.5 9.5-.4-7.3-.6-21-.8-29.2-.1-4.4-.3-3.2-3-.3l-12.4 13m30.4 20.4c7.4-5.9 13.8-13.3 17.4-17.3 2.8-3 1.8-2.8-.9-6.2A89 89 0 0 0-149-63.7c-2-1 1.4 42.4 2.7 41.3m31-30.4c3.6-3.7 19.6-14.6 11.3-14.6-9.8-.2-19.6-.3-29.7-.7-4.3 0-3 .2-.2 2.7l14.2 12.6c2.5 2.3 2.2 2.7 4.5 0m-20-28.1 28.2.9c4.4.2 4.8.7 1.2-2.3a105 105 0 0 1-14.4-12c-2-1.9-2-1.4-4 .4-4 3.4-7.5 7.5-11.5 11-2.3 2-2.8 2 .6 2M-61-18.5c2 .2 36.5.4 35.8-.3a172.7 172.7 0 0 0-19.6-14.5c-.9-.5-1.4-.8-2.5-.3-3.4 1.4-10 9.6-15 13.5-1.2.9-1.9 1.4 1.3 1.6m21-105.8c-1.4-1.6-4.6-2.7-6.6-1.8-.3.2.4 3.2.5 3.6.6.9 3.3 2.1 3.6 2 .9-.8 4.6-1.5 4.1-2.7-.2-.7-1-.7-1.6-1m42.5 22.8 1.8-1.6c1.6-1.7 3-3.3 4.8-5 6.5-5.8.9-6-4.8-10.6-1.3-1.6-1.6-3.6-5.9-1.2-1.2.7-.5 2.4-.5 5.3l-.2 10.7c.2 4.4 1.4 6.9 4.8 2.4m-16.7 1.6c-.4-5.3-1-11.5-1.3-17.7.6 0-4-2.5-8-2.7-2-.2-3.5.5-4.4 2-.4.8-1.8 2-2.9 3-2 1.6-1.7 1.2 0 2.8 3.8 3 7.2 6.4 9.8 9.6 1.3 1.4 2.2 2.9 3 4.3 2.9 3.7 3.8 2.3 3.8-1.3m-88.7-76.4c-1.8 2-4.5 1.8-6 9.6-1 2.5-2.6 7.6-.6 9.4 4 3.7 9.8 5.3 15.3 6.2 8.1.6 7.3-2.1 10.8-1.6 2.5.4 4 4 6.4 4.3 4.1.7 8.5.7 12.3-1 3.7-2 9.8-8.2 10.6-11.6a18 18 0 0 0-4.8-16s-43.9.3-44 .7m-17.1 62.8c1.6-1.6 3-3.6 5-5 2.6-2.3 6.7-2.5 4.6-7.3-1-2.1-5.2-2.5-7-3.2-3.3-1-10.6-1.3-13.6.5-2 1 2.6 3.6 2.3 5.2-1.3 3.9-5.2 5.1-1 7.8.8.4 2.6.9 2.8 1 3.3 3 3.2 5.6 6.9 1m7 10c5.4 3.1 9.7 6.8 14.7 10.8 3.2 2.4 6.7 7 10.1 8.8 1.3.8.2-14.7-.5-26.8-.4-7.5-.2-13.7-1-14-1-.2-3.1-.4-3.8 0-2.3.7-3 3-5.5 5.6-4.1 4.5-10.5 10.5-14 15.5m35.3-18c-2.1 3.3-.9 16.8.2 25.3.3 3.2 1 5.5.9 6.4 0 .9 19.5-18.3 24.1-23 .6-.3-.7-.8-1-1.2-3.4-3.5-6.4-7-10.5-9.6-3.7-2.3-11.7-.9-13.7 2.2m13.3 36.6c-.9 1-.9 2.5.6 2.3 12.2-2.9 26.5-3.6 38.7-3.7 1.3-.2-1-2.2-2-3-4.9-4-10-9.8-13.4-14-2.5-2.6-2-2.4-5-.1-5.7 4.3-12 12-18.9 18.5m12.7 31c4 3.5 5 1.7 8.1-1.5 5.7-5.9 11.6-11.4 17.3-17 2-2 2.3-2.2-1-2.2-13-.5-27.5 2.7-40.4 5.3-.4 0-.6 1.1-.2 1.5 4.4 4.4 10.7 9.2 16.2 13.8m38.7 26c.4-12.1.4-26 .7-38.2 0-2.7.4-2.7-1.7-.8-7.2 6.6-14.8 14-22 20.5-2.2 2-1.9 2.5.6 4.3 6.8 4.8 14.2 10.3 21 15 1.8 1.3 1.4 1.1 1.4-.8M.5-36c3.8-2.3 11.4-11.4 12-15-.8-.7-3.3-2.4-3.8-3-2.7-2.5-3.4-3-8.5-7.4 0 9-.4 15.8.3 25.4M6-76.3c-2 1.3 5 6.6 5.4 7.1a111 111 0 0 0 11.9 10.7c1 .9 1.8-.2 2.7-1 2-1.8 3.9-3.8 5.6-5.8 1.1-1.4 10-8.5 7.3-12.4-3.5.2-30.2 0-32.9 1.4m2.7-57c.7 1 3.2 1 4.3 1.5.7.4 1.6 2.7 3.4 3.4 2.8 1 5.1 1.6 5.6 2.3 4.5 2.3 5.6 4.3 7.9 6.6 2.6 2.3 6.5 5 10 8.7 4.2 4.3 6.1 8 9.9 13.5 4.8 7 11.5 14.4 14 22.3 2.7 4.4 3 10.6 7.3 13.7 2 1.4 2.5-3.4 5-4 1.8-.3 3 .6 5 .4.9-.2 1.6-.7 1.2-1.6-.5-2.7-3-1.8-3.5-3.7-.4-1.8-.2-4.7.5-6.3.5-1.2 3-1.6 3-3 0-1.8-2-2.7-2.1-4.4a11 11 0 0 1 .7-6.8c.7-1.4 4-2.1 3.7-3.7-1.2-5.2-1.7-7.8-3.9-12.3-3-7-8-15-14.2-20.3a51.1 51.1 0 0 0-20.3-11.3c-4.4-1.1-11.7-1.3-16.9-1.3-6.7.2-12.2-.2-18.5 3.2-1.6 1-2.8 2-2 3M-207-13.2c12.7-.5 27-1 41-1 3.7 0 2.3-.2 0-2.2-3.4-2.8-18-17.6-20.5-18-1.3-.1-16.4 14.1-22.2 18.6-2.5 2-1.8 2.8 1.7 2.6m45.2-122c-12-4-42.8 2.6-55.5 6-7.6 1.9-14.4 6.7-18.5 12.6-5.5 7.6-8.7 18-11.2 27-.8 3-1.6 7.3-2.3 10.1 6 3.2 5.9 9.3 4.5 12.6 3.9 2.2 5.7 7.7 4.8 12.1-.2 2.3-1.6 3.8-1.8 5.9l7 3.6a92 92 0 0 1 4.7-17.6 148 148 0 0 1 13.7-25.3c4.1-6 12.8-18.7 25.8-28.6a93.4 93.4 0 0 1 29-14.6c3.4-.4 2-3-.2-3.7m14.2 174.4c-.2 1.6 0 1.8 1.6 1.8 2.8-.2 12.8 1 15.8 0 1.2-.4.2-5.2-2.1-10-2.9-5.3-10.3-11.4-15-10.3.4 4-.1 12.6-.3 18.5m-2.3 11.9c-.4 5.3-.6 12.4.7 14.6 6.7 1.2 19.8-13.4 18.2-17.5v-.1l-14.5-.7c-3-.2-4 .5-4.4 3.7m-5.7-4.5c-2-.7-13.5.6-20.5.8-.9 2.8-.9 5.6.4 8.1 2.8 5.9 10.5 10.3 18.3 10.3 2-2.3 1.6-13.5 1.8-19.2m74.8 6.4.6-12.4c0-4.4-1.5-5.5-5.2-3.7-8 4-14.6 11.3-13.9 20.4.7 1 11.8-.7 14.6-.7 2.7-.2 3.7-.7 4-3.6m6.9 0v.3c0 1.4 0 1.7 1.6 1.7l18-1.2c3-.2-8.3-18.4-20.4-17.3.4 3.7 1 11.2.8 16.5m2.4 10.7c-.3 5.3-.8 19.2 0 20.5 9 2.4 21.9-16.4 18.9-23.5l-10.9.2c-3 0-7.6-.4-8 2.8m-6.7.2c-2.3-1-15.5-1.4-19 2-1 2.8-.4 4.4.9 6.9 2.8 5.7 9 11.5 16.7 11.5 2-2.3 1.2-14.7 1.4-20.4M4.6 32.8c0 .6.1 1.3.3 1.9.1.8.5.8 1.8.7 2.7-.4 13 .3 15.5 0 1.4-.2-.4-6.4-3.4-10.7-3.4-5.2-10-9.6-14.4-7.8 0 3.6-.2 10.1.2 15.9M3.5 51.9c.4 4.4 0 8.9.9 10.1 9 1.8 20.8-14 18.5-19.9l-.2-.3-18-.4c-1.6 0-1.4 7.3-1.2 10.5m-6.6 9.8c2.7-6 .4-14.6.7-20.8.2-1-14.9-.6-19.7-.6a16 16 0 0 0 .4 5c.5 1.6 1.2 3.2 2 4.3 2.4 3 5 6 8 8.3 2.6 1.8 5.8 3.2 8.6 3.8m1.8-28.8v-3.3c-.1-5.2.2-9.6.2-13-6-1-11.8 2.4-15.5 6.7-2.7 3-5 7-4.4 11.2.8 1.4 10.8.3 16.7.3 2.1 0 2.8.3 3-1.9m-155.2 4c.2-6 0-14.2.2-18-7.2-1.7-15.9 8-17.8 12.2-1 1.8-3.8 7.3-2.5 8.5.7 1.5 5.7.7 11.4 1.1 1.4.2 3.3.2 5-.2 2.8-.3 3.5-.7 3.7-3.5m-83.2-70.6c-2.8-.9-6.5-2.7-9.2-1.4-2.7 1.4-2.3 7.3-5 8.5-3.4 1.6-9 1.6-11.5-.9-2.9-2.8.8-9.2-2.2-11.7-1-1-3 .2-4-.6-2.7-1.6-2.6-3.2-5-4.6-6.8-3.5-15.9-6.6-22.5-11.7-2.4-1.8-3-7.8 0-8.9 5.6-1.8 9.3 1 14.8 2.1 2.3.6 4-.9 6.2-.7a94 94 0 0 1 13.7 4.3c5.7 2.1 4.8 4.6 6.6 4.4 2-.1.5-4.2-.2-6.2-1.2-3.4-4.8-3.2-5-6.7-.5-16.4 5-32.4 11.2-47.5a43.5 43.5 0 0 1 10-15.8c9.4-9.5 25.2-15 38.2-17.7 17.8-3.9 31.1-3 49.5-2.6 3.5.2 5.6.2 8.8-1 6-2.2 9.8-5.8 14-10.4 5.6-5.9 11.1-24.7 12-28.5 8.2 2 68 .4 75.6-.1a107 107 0 0 0 13 29.5c4 4.8 10.6 7.3 17 7.3 18.1-.2 50.9-4.3 71.7 5 13.1 5.6 30.4 27 35.2 39.8 5.5 15.3 5.3 11.9 3.9 28.3-.2 3.5.7 3.7-.7 7-.7 2-4.7 7.4-2.7 7.5 1.2.2 4 .8 7.1.4 1.4-.2.7-2.3 2.3-3 1.8-.6 3.4-2 7-.6 1.4.6 1.2 1.1 2 1.1 2.4-.2 2-.3 4.4-.7 6.9-.5 7.8 6.6 9.7 7 3 .5 7.5 2 5.7 3.7-6.7 4.6-10.1 1-15.4 5.1a13 13 0 0 1-9.3 1.8c-2.7-.5-6-1.8-7.5-2.8-1.4-1-3.2-.2-3.5 0-1 2.6 7 10.4 3 13.8-2.7 2.5-10.1 2.2-13.5.4-2.5-1.4-2.5-9.3-2.7-10.9-1.7-1.2-4.2 1.3-7.8 2.2-1.6.3-1.4 1.7-1 3 2.3 5.9 4.7 33.6 3.7 42.8 1.4 1.3 3.9 5.4 3.5 8.4-.5 3.2-4 6.6-5.7 7.6-.3 25.1-7.2 21.4-6.2 29.7a5.4 5.4 0 0 0 3 4c5.7 2 9.1 3.3 10 3.3 2.5-.7 4-1.6 4.3-2.5.3-1.2-.7-2.8-.2-4.6 3.2-10.7 12.3-9.6 16.5-3.9 2.2 2.8 3.2 6.2 1 9.6-1.3 1.8-3.1 3.4-4.4 4.6-2 2 .4 3.8 2.2 4 5.5.3 5.7 1.9 8.7 3.9 2.3 0 11.2 3.5 13.1 9.4 2.4.5 4 2.3 5.2 3.9 4 5.1 2.8 7.5-4 5.3-3.1-1-5.4-.2-8.3-1.8-3.3-1.6-6.4-2.4-8.9-4.4-3-2.3-2.6 4-14.9-4.4-.3 2.3 2 10-2.5 12.6-7 4.6-15.4-1.3-14.6-8.4.8-4.8 5.7-4.4 5.4-7.8-1-.9-5.5-4-9.8-5.7L66.9 58c-1.8-.2-3.4-.4-4 0-2.8 7.4-9.4 14.2-12 17-2.9 6.3-1.1 13 .8 14.8 1.3 1.2 1.6.9 2.7.3 1-1 .9-2.4.9-3.7 0-2.3 3-4.3 5.9-5 2.5-.7 8.1 0 9.4 2.7 1.2 3 2.3 5.9 2 9-.4 4.3-6.8 4.5-6.6 9.7.5 1-.2 1.8 1.7 2.5 3 .9 2.9.5 4.3 1.2 2.3 1.6 2.7 5 4 7.7 3.1 7 4.9 6.7 7.7 16.5 1.8 3.4 4.3 1.6 4 8.2 0 3.7-5 7.6-10.2 2.6-1.4-1.4 1-3.3-1.4-4.8-4-4.2-7.5-5-10-7.6-1-1.3-1.4-3.6-2.6-4.6a7 7 0 0 1-5-3.2c-1.2-1.8-1.2-4-1.8-5.5-2-2.2-2.1-5.4-5-4.7-1.2 2.3-4 10-7.8 9.3-3.9.3-8.7-2.2-10.5-5.9a10 10 0 0 1 1.3-10c1-1.2 6.7-2.6 6.7-4.2-1.4-3.6-2.5-5.4-5.5-6.4-2.3 1.6-15 11.9-21 15.6 0 3.2 4.3 11.6 6.8 11.8 1.4-1.5 2.3-3.4 5-3.8 4-.5 6 .7 9.2 3.2 1.8 1.5 3.4 3.6 3.2 5.9-.2 2-1 5.3-2.3 7-1.2 3-4.6 3-8.5 3-1.1-.2-1.3 2-1.1 3 .4.5 6.4.9 8 5.5.9 2.7.2 7.6-1 10 1.4 1.2 2.6 2.4 2.8 3.5.7 1.4-.6 13-.7 15.8-.4 2.2-1 4-1.8 4.7-3.7 2.3-12-9-15.5-11.4-3.4-2.3-2-2.9-2.8-9.3-3.8-7.8-2.3-10.8-2.5-11-1.8 0-6.2 1.4-12 .4-3.5-.6-9.7-2.7-8.5-7.2.4-14.5 7.2-11.3 11.4-11.9.7-2 1.2-8.7-1.1-10 .9-.6 1.6-1 1.8-1.3 2.3-2.4 3.4-8.3 3.8-14.5.2-3 .2-6.2 0-9 2.4-.2 10.8-6.4 9.4-7.8-1-1-4.1-5.7-5.7-5.4-1.8.5-3.4 4.6-4 8-.4-2.4-.8-4.3-1.4-5.2l-1-4V79a5.4 5.4 0 0 0-2.9-3 6.8 6.8 0 0 0-4.7-.5c-.6.2-1 .6-1.3 1-.4.6-.6 1.3-.7 2a28.4 28.4 0 0 0 .3 7.5 100 100 0 0 1 1 22.3c-.4 6.2-1.4 11.6-3.2 13.7-.1.2-.1.3 0 .4-6.7 2.9-12.7 4.6-19.3 7-.8 7.4-.3 8.1-1 15 .3.6 2.8.6 5-.5 1.4-.7 4.6 1.8 6 2.7 3 2.1 2.8 4.8 3.4 7.1.5 2-2.2 10-4.8 11.8-2 1.4-5.2-.7-7 .1 1 1.8 3.6 2.4 3.4 5.2 1 4-3.5 6.8-4.4 11 2.1 3.8 1.4 6 4.2 7.1 1.6 1.6 5.4-.1 7.5.4 2.7.7 5.5.5 4.6 3-2 5.9-6.5 2.3-9 4.6-1 1.6 2.5.4 3.5 5.9.6 3.7-3 5-2.6 8.4.1 3.9.3 7.3-1.3 9-2.3 3-9.2-.1-12-2.5-4.4 0-7.4-3.7-8-6.9-2.4-4.8 3.8-5.5 1.7-8-2.3-2.5-10.9-.7-13.3-3.4-3.6-2.1.9-6.4 6.2-6.7-2.3-9-4.5-6.3-5.3-9.5-1-3.7-.4-8.3.3-8.8 2-2.9 6.8 6.2 5.9 3-.6-2.2 4-9 2.1-9.8-2.7-1.2-3.7 0-6.2-1.4-4.1-2.5-6.4-5.4-6.2-10.2.1-1.7 1.7-3 2.3-4.2 2.1-5.7 5.3-8.2 8.3-7.9.4-2.8 2.2-10-.3-11-6.8 3.2-21.4 4.1-28.7 2.9-1.5-.4-2.7.4-3.6 1.3v-.1c-.5-4.5-.7-10.6-.4-16a45.7 45.7 0 0 1 2-13.2c-.1 0-.2-.2-.2-.5a18.8 18.8 0 0 0 0-4.2 8 8 0 0 0-1.2-2.4 3 3 0 0 0-1.7-1.2 8 8 0 0 0-3.5-.2 6 6 0 0 0-3 1.4c-.8.6-1.7 3.3-2.1 4.7l-.3.7c-.7 2-1.1 5.3-1.4 9.1a114.6 114.6 0 0 0 .2 14.8c0 4.3.2 10.9 5.4 10.9 1.4 0 2.9-.4 4-1.1.4-.3.9-.6 1.2-1 1 3.5-2.1 10-2 13 1.7.7 6-2.9 9.7-1 7.6 2 7.8 10.6 5.5 14.3-1.8 2.5-1.3 2.7-2.9 4.1-14-.9-13.3-.2-11.2 7.3.4 1.2-1.4 2-1.6 3.4-.1 2.1-2.8 3-3 5.8 0 .6 1 1.3 1.3 1.6.1 2.2-.4 7 .5 9.1.5 1 1.6.9 2.5 1 2.5.4 3.7 0 6.4-.3 3.2-.3 4.8-.5 5.7 1.6.9 2.1.3 3-1.3 4.6-2.1 2.5-8.2-.3-11.2 1-2 .8-5.1 4.6-5.7 6.7-.5 2-1.4 5.7-.9 7.5.8 2.3 2.4 2.6 1.8 5.3-.5 2.1-2.8 6-4.8 8-1.8 1.8-3.5 1.2-5-.7a21 21 0 0 1-4-7.5c-.6-2.7 1-3 2-5.3.4-1.8-.3-5.5-.6-7.7-.6-2-3.6-5.8-5.5-6.7-3-1.4-8 .9-10.2-1.8-1.4-1.8.4-4.8 1.5-6.8a9.5 9.5 0 0 1 4.4-3.7c1.4-.5 3.2-1.2 4.3 0 1.7 2.1-2.7 5.7-.2 5.3 1 0 2.1.2 2.7-.9.8-2 .5-6.7.8-9 0-.4 1.3-1 1.3-1.4-.2-3-2.7-4-2.9-6-.1-4.2 4.7-7.7 3-11.6-1.4-3.8-3.5.7-6.3-2.2a34.2 34.2 0 0 1-5.9-7c-2.3-3.6-3.4-12.9 4.3-14.9 3.7-1.4 9 4.7 12 1.8.6-.5 1.1-1.2 1.5-2l-.2-8.6-.9-.6c-13 1-32-3.4-42.1-7-2.5 1-4.6 10.4-4.3 13.2 3.7-.5 8.4 2.4 8 5.6 2.5.3 8.9 2.6 9.3 9.4 0 4.8-2.4 7.1-6.6 9.4-2.5 1.3-7.7-2.1-10.2-.9-2 1-2.6 5.2-3.3 7.3-1.1 3.2-5 8.5-3.4 11.4 3.4.5 9-1 11.2 2.1 1.8 2.5 1.4 5.2-.7 7.3-2.5 2.5-9.8 1.3-12.3 3.7-2.3 2.4.5 6-2 10.7-.8 3.2-.8 9.6-3.7 11.6-3 2.3-5.3 1.2-7.4-1.8-1.5-2.1-1-7.8-.6-11.7.4-3.4-2.8-4-2-7.7.4-2.1 1.8-1.8 1.1-3.4-2.5-4-13.3-1.6-15-7.6-1-2.7 1.7-4 4.4-4.5 2.3-.3 6.4 3.6 8 2.2 2.1-1.8 1.2-5.9.7-8.6-1-4.2-5.4-8-4.3-12 .7-2.7 7.1 0 6.4-2.7-2-2.2-5.1-4.3-7.1-5.9-5.5-4-4.6-13.1 1.8-16.7 2.8-1.4 5.1.2 7.6 1.6 2.2 1.2 4.1 2.1 5.2.5 2.3-9.4.9-11.2 2.5-15.6a167 167 0 0 1-26.2-12c-2.3 0-7.6 2.7-7.3 4.9 3.8 3.4 9.1 5.1 10.5 10.5.7 2.6-.9 8.3-3.5 8.7-12.7 7.6-15.3-5.4-21-3.4-2.7 2.5-9.3 13.3-15.7 17.6-3.7 2.3-10 4.6-13.6 2.1-3.4-2.3-2.2-8.3-1.1-12.2a44 44 0 0 1 8.2-12.5c2.5-2.8 10.5-5 10.8-5.5 1-2.3-5.1-4.4-6.6-6.6-1-1.7-.7-3.2-.9-5.3 0-2.1 1-5.7 2.7-7 3.4-2.4 6-4 10.1-3.5 2.7.5 6.3 6.6 9 6.8 2.4 0 6.7-3.8 6.7-7-3.6-4-9.3-7.6-14.8-14.6-2.8-3-3.9-5.8-6.4-6.9-3 .9-5.1 2.5-6.5 6 0 1.7 5.8 1.3 6.9 2.7 2 2.5 1.6 7.1 0 10-1.8 3.5-6.4 6.4-10.5 5.9-4.8 1.2-5.3-6.8-6.4-9.1-2.8-1-4 3.4-5.9 5.5-2.5 2.5-2.8 6.4-5.7 8.5-1.2 1.1-5.3-.3-6.5 1a25.5 25.5 0 0 1-11.8 7.6c-3.9 2.1-3.9 7.4-8.3 7-1.3-.1-2.3-2.4-2-4.2.4-2.1 2.3-3.9 2.9-5.3-2.9-8.6 2.6-11.2 8-17.4 1.2-2.5 1.7-6.1 4.2-7.3 1.5-1 5.5 0 8.6-1 2.1-.5 3.5-3 3.9-4 2.1-3.8-6.2-3.6-6.4-8-.2-3-.2-6 1.2-9 1-2 4-3.3 6-3.8 2.7-.7 5.2-1.4 7.4.2 2.3 1.7 1.6 7.8 4.2 9 2.3 1 7.7-4.8 7.3-7.3-6.6-6-12.8-18-16.7-26.5-2.1-4.6-1-6.7-2.8-10.1-2.2 0-7.5 3.4-9 5.2-.5 3.3 6.5 4.4 6.8 9.2.4 3.4-2.6 7.3-5.5 9-3 2-8 2.4-10.8.3-3.2-2.4-2-7-2.3-9.3-2.2 0-3 5.5-6 7.7-2.8 2-5.8 3.2-9.2 4.6a51.2 51.2 0 0 1-13.7 4.4c-2 .4-.8-2.1-1.4-4.2-.7-2.5-1.4-5.7-.3-8a36.3 36.3 0 0 1 9.8-14.6c3-2.5 6.4-2.9 9-2.9 0-.9 1-2.5 0-3.4-2.5-2.6-5.5-8.3-3-11.7 1.2-2 6.8-4.4 9-4.4s4 1.2 5.2 2.8c1.6 2.1-.2 5.9 2.3 6 4 .4 9.8-2.6 14.4-6.7-1.6-2.1.7-46 1.6-46.4" style="fill:#e5c97c;fill-opacity:1;fill-rule:evenodd;stroke:none" transform="translate(537 444.8)"/><path d="M0 0c-.4-5.8-.3-12.2-.3-15.9 4.5-1.8 11 2.7 14.4 7.8 3 4.3 4.8 10.5 3.4 10.7-2.5.3-12.8-.4-15.4 0-1.3.1-1.7.2-1.9-.7L0 0m-1.2 19.1C-1.3 16-1.5 8.6.1 8.6L18 9l.1.3c2.4 5.9-9.4 21.7-18.5 20-.9-1.3-.5-5.7-.9-10.2M-7.7 29c-2.9-.5-6-2-8.6-3.7-3-2.3-5.7-5.4-8-8.4-.9-1-1.6-2.7-2.1-4.3a16 16 0 0 1-.4-5c4.8 0 20-.5 19.8.6-.4 6.2 2 14.8-.7 20.8M-6 .1c-.1 2.2-.8 2-3 2-5.8 0-15.8 1-16.7-.4-.5-4 1.8-8.2 4.5-11.2 3.7-4.3 9.4-7.6 15.4-6.6L-6-3.2V0m-146.3 6.4c.2-5.9.7-14.4.4-18.5 4.6-1 12 5 15 10.3 2.2 4.8 3.3 9.6 2 10-3 1-13-.2-15.8 0-1.6 0-1.8-.2-1.6-1.8m-2.3 12c.4-3.3 1.4-4 4.5-3.8l14.4.7v.1c1.6 4.1-11.5 18.7-18.2 17.5-1.2-2.1-1-9.2-.7-14.6m-5.7-4.4c-.2 5.7.2 16.9-1.8 19.2-7.8 0-15.4-4.5-18.3-10.3a10.8 10.8 0 0 1-.3-8.2c7-.2 18.5-1.4 20.4-.7m-.9-9.8c-.1 2.8-.9 3.2-3.7 3.5-1.6.4-3.6.4-5 .2-5.7-.3-10.6.4-11.4-1-1.2-1.3 1.6-6.8 2.5-8.6 2-4.2 10.7-13.8 17.8-12.2-.2 3.9 0 12-.2 18m75.8 16.3.5-12.5c0-4.4-1.4-5.5-5.1-3.7-8 4-14.6 11.4-14 20.4.8 1.1 11.8-.7 14.7-.7 2.6-.2 3.7-.7 3.9-3.5m7 0v.3c0 1.3 0 1.6 1.5 1.6l18.1-1.2c2.9-.2-8.3-18.3-20.4-17.3.4 3.8.9 11.2.7 16.6M-76 31c-.4 5.4-.9 19.2 0 20.5C-67.1 54-54.1 35.2-57.2 28l-10.8.2c-3 0-7.6-.4-8 2.8m-6.8.2c-2.3-1-15.4-1.4-19 2-.9 2.8-.3 4.4 1 7 2.8 5.6 9 11.5 16.6 11.5 2-2.3 1.3-14.8 1.4-20.5m-75.4 16.2c-1.3 0-3.1.3-3.9.7a2 2 0 0 0-.7.6c.6-.7 1.6-1.2 3.6-1.3h1m-5.8 4.4c-2-.5-2.5-4.4-1.8-6.4.4-1 .2-3 1.3-3.3 3.7-1.3 9.7-1.5 13.1 1 1.6 2.7 2.3 8-.3 9.3-1.6.7-2.3-2.1-4-3.8.7.7 1.2 1.6 1.6 2.4l1.1 1.2c.9.9.4.7 0 2.1a51 51 0 0 0-1.6 9.4c6.3-1 12.6-7.8 12.5-13.8-.2-6.8-1.6-6.6-4-8.9 7.7-4 20.5-15.5 20.1-31.3a33.4 33.4 0 0 0-33-31 32.3 32.3 0 0 0-9.5 63c-2 2.5-3.7 2.3-3.3 8.9.2 4 3 7.7 6.8 10.1.2-2.8.6-5.8 1.2-8.7v-.4l-.2.2m75.2 22 .3-.2c-.4 1-.6 2.5-.9 4.1-1.2-.8-2.4-1.7-3.5-3C-97.3 70-96.4 62-96 56c-5.5-4.8-11-9.6-13.5-17.7a31.3 31.3 0 0 1 26.8-42c17.8-.4 32.6 16 33.1 31.8.4 15.8-10.1 23.7-17.8 27.6 1.8 3 .7 12.2-1 15.4-1.8 3.5-5.7 7.1-9.7 8.5.3-1.5.6-2.7 1-3.7.3-.8 0-.5 0-1.4v-4a7 7 0 0 0-1.5-2.7c3 2.4.6 8 2.2 7.3 2.6-1.3 3.9-13.6 2.3-16.2-6.2 2.1-13.2.5-13.9.2-2.3-.8-3.4 16-.7 14.9M9.4 34.8c7.6-4.1 17-13.5 16.5-29.4-.4-15.6-12.5-31.3-30.3-30.9C-12.7-25.1-21-20-26-15c-8.6 8.7-10 21.3-6.4 32.7 2.6 8.2 7.2 11 13 16-2.2 6.4-1.8 16.4 2.6 21.3 2.7 3 6.4 3.5 10.4 3.9-.2-1.8-.3-3.3-.6-4.6 0 .4 0 .6-.2.7-10.5-6.9-8-20-5.2-17.6 2 1.6 11.6 2.2 15.5.8 1.6 2.4 3 11.5 0 13-1 .4-.8-2.1-1.6-4.5v.2l.9 3.9.1.1c.5.8.8 2.2 1.1 4.1C5.4 53.5 7 51.7 8 50c1.6-3.4 3-12.1 1.4-15.1" style="fill:#e5c97c;fill-opacity:1;fill-rule:evenodd;stroke:none" transform="translate(541.6 477.6)"/><path d="M0 0c3.8-2 8.2-4.9 11.7-9.2a27.6 27.6 0 0 0 6-18.5A34.2 34.2 0 0 0 6.9-50.5a32 32 0 0 0-22.6-9.3c-3.8 0-7.4 1-10.6 2.5a35 35 0 0 0-9.7 7 29.3 29.3 0 0 0-8 14.9 35 35 0 0 0 1.1 18c2.5 8.1 8 13 13.5 17.8v1.2c-.4 5.9-1 13.1 3.3 17.7 1.2 1.2 2.4 2.2 3.7 3l.1-.6c-1.2-.8-2.3-1.7-3.3-2.9-4-4.3-3.6-11.4-3.2-17.2V0c-5.5-4.8-11-9.6-13.5-17.7-1.9-5.8-2.3-11.9-1.1-17.6a28.7 28.7 0 0 1 7.8-14.6c2.7-2.6 5.9-5 9.6-6.8 3.1-1.5 6.6-2.4 10.3-2.5C-7.2-59.4.6-55.7 6.5-50c6.2 6 10.2 14.2 10.5 22.3a27 27 0 0 1-5.8 18C7.7-5.2 3.2-2.3-.6-.3l-.3.1.2.3C0 1.4.3 4.1 0 7a23 23 0 0 1-1.9 8.2 18.2 18.2 0 0 1-9.3 8.2l-.1.8a18.9 18.9 0 0 0 10-8.7c1-1.7 1.7-5.2 2-8.5.1-2.8 0-5.5-.8-7m-78.5-14.6a42 42 0 0 0 14.7-13.8c3.1-5 5.3-10.9 5.2-17.6a32.1 32.1 0 0 0-10.6-22.2c-6-5.6-14-9.2-22.8-9A32.9 32.9 0 0 0-123.8-44a32.8 32.8 0 0 0 21.8 30l-.8 1c-1.6 1.4-2.6 2.4-2.3 7.8.2 3.2 2 6.3 4.7 8.6.7.7 1.5 1.3 2.4 1.9v-.7l-2-1.6a12.2 12.2 0 0 1-4.5-8.2c-.3-5.2.7-6 2.1-7.4l1.2-1.3.3-.4-.4-.1A31.4 31.4 0 0 1-123.1-44 32.2 32.2 0 0 1-92-76.6a32 32 0 0 1 22.3 9A31.5 31.5 0 0 1-59.3-46c.2 6.6-2 12.4-5 17.3A41 41 0 0 1-79.3-15l-.4.2.4.3c.4.4.7.8 1.1 1 1.6 1.4 2.5 2.3 2.7 7.7l-.1 1.3c-.4 2.9-2.2 6-4.7 8.3-2.1 2-4.7 3.5-7.3 3.9l-.1.6a15 15 0 0 0 7.9-4c2.6-2.5 4.4-5.7 4.8-8.7l.1-1.4c-.1-5.7-1.2-6.6-2.9-8.1l-.8-.7m155.3-6.2c4.3-2.4 9.1-6.4 12.4-12.2a32.3 32.3 0 0 0 4-17.3 33.8 33.8 0 0 0-9.4-22.5c-5.3-5.4-12.6-9-21.1-8.7a29 29 0 0 0-11.3 3c-4.2 2-8 4.8-10.6 7.5A28.8 28.8 0 0 0 33-56c-1.2 5.9-.7 12.2 1.2 18.2 2.3 7 6 10.2 10.6 14l2.3 2a28.9 28.9 0 0 0-1 11.9c.5 3.7 1.7 7.2 3.8 9.5 1.5 1.6 3.2 2.5 5.1 3.1 1.7.5 3.6.7 5.5 1v-.7c-1.9-.2-3.7-.4-5.3-1-1.8-.5-3.5-1.3-4.8-2.8a17 17 0 0 1-3.7-9.2c-.5-4 0-8.4 1-11.8l.1-.2-.1-.1-2.5-2.2A27.7 27.7 0 0 1 34.9-38c-1.8-5.9-2.3-12-1.2-18 1-5.3 3.5-10.3 7.5-14.4 2.7-2.7 6.4-5.4 10.5-7.4 3.5-1.7 7.2-2.8 11-3C71-81 78-77.6 83.3-72.3c5.7 5.8 9.1 14 9.3 22a31.5 31.5 0 0 1-16.4 29l-.3.2.2.3c.7 1.3.8 3.8.5 6.4-.3 3.2-1 6.6-2 8.4-.9 1.7-2.3 3.5-4 5l.1.7c2-1.6 3.5-3.5 4.5-5.4 1-1.9 1.8-5.3 2-8.6.3-2.6.2-5-.4-6.5" style="fill:#284985;fill-opacity:1;fill-rule:evenodd;stroke:none" transform="translate(474.5 533.3)"/><path d="M0 0c.2-5.9.7-14.4.4-18.5 4.6-1 12 5 14.9 10.3 2.3 4.8 3.4 9.6 2.1 10-3 1-13-.2-15.8 0C0 1.8-.2 1.6 0 0m-2.3 12C-2 8.6-1 8 2 8.1l14.4.7V9c1.7 4.1-11.4 18.7-18.1 17.5-1.2-2.1-1-9.3-.7-14.6M-8 7.5c-.2 5.7.2 16.9-1.8 19.2-7.8 0-15.4-4.5-18.3-10.3a10.8 10.8 0 0 1-.3-8.2C-21.5 8-10 6.8-8 7.5m74.8 6.4.6-12.5C67.4-3 66-4 62.2-2.3 54.2 1.7 47.6 9 48.4 18c.7 1.1 11.7-.7 14.5-.7 2.7-.2 3.8-.7 4-3.5m6.9 0C74 8.5 73.4 1 73-2.7c12-1 23.3 17.1 20.4 17.3l-18.1 1.2c-1.5 0-1.6-.3-1.6-1.6zm2.5 10.6c-.4 5.4-1 19.2 0 20.5C85.2 47.5 98 28.7 95 21.5l-10.8.2c-3 0-7.7-.4-8 2.8m-6.8.2c-.2 5.7.5 18.2-1.4 20.5-7.6 0-13.9-5.9-16.7-11.6-1.3-2.5-1.8-4-1-7 3.6-3.3 16.8-3 19.1-1.9m82.8-31.2c-.4-5.8-.3-12.2-.3-15.9 4.5-1.8 11 2.7 14.4 7.8 3 4.3 4.8 10.5 3.4 10.7-2.5.3-12.8-.4-15.5 0-1.3.1-1.6.2-1.8-.7l-.2-1.9M151 12.6c-.2-3.2-.3-10.5 1.3-10.5l18 .4v.3c2.5 5.9-9.3 21.7-18.4 20-.9-1.3-.5-5.7-.9-10.2m-6.6 9.8c-2.8-.5-6-2-8.5-3.7-3-2.3-5.7-5.4-8-8.4-.9-1-1.6-2.7-2.1-4.3a16 16 0 0 1-.4-5c4.8 0 20-.5 19.8.6-.4 6.2 2 14.8-.8 20.8m1.8-28.8c-.2 2.2-.9 2-3 2-5.9 0-15.8 1-16.7-.4-.5-4 1.8-8.2 4.4-11.2 3.8-4.3 9.5-7.6 15.5-6.6 0 3.3-.3 7.7-.2 12.9v3.3M-9-2.4c-.2 3-.9 3.3-3.7 3.6-1.6.4-3.6.4-5 .2-5.7-.3-10.7.4-11.4-1-1.2-1.3 1.6-6.8 2.5-8.6 2-4.2 10.7-13.8 17.8-12.2-.2 3.9 0 12-.2 18" style="fill:#284985;fill-opacity:1;fill-rule:evenodd;stroke:none" transform="translate(389.3 484.1)"/><path d="M0 0c-2-.5-2.5-4.4-1.8-6.4.4-1 .2-3 1.3-3.4 3.7-1.2 9.7-1.4 13.1 1C14.2-6 15-.7 12.3.6c-2.3 1.1-2.7-5.7-7.5-5C-.5-4.2 1.2-.8 0 0m75.2 22c1.2-.8.9-6.9 6-7 8.8-.6 4.3 9.2 6.3 8.1C90 22 91.4 9.6 89.8 7c-6.2 2.2-13.2.6-13.9.2-2.3-.7-3.4 16-.7 15m81.6-18.9c-10.5-7-8-20-5.1-17.6 2 1.6 11.5 2.1 15.4.7 1.6 2.5 3 11.6 0 13-2 .9.7-8.7-8-8.2-5.3.4-1 11.2-2.3 12.1" style="fill:#284985;fill-opacity:1;fill-rule:evenodd;stroke:none" transform="translate(377.6 529.4)"/><path d="M0 0c-2-.5-2.5-4.4-1.8-6.4.4-1 .2-3 1.3-3.4 3.7-1.2 9.7-1.4 13.1 1C14.2-6 15-.7 12.3.6c-2.3 1.1-2.7-5.7-7.5-5C-.5-4.2 1.2-.8 0 0Zm75.2 22c1.2-.8.9-6.9 6-7 8.8-.6 4.3 9.2 6.3 8.1C90 22 91.4 9.6 89.8 7c-6.2 2.2-13.2.6-13.9.2-2.3-.7-3.4 16-.7 15Zm81.6-18.8c-10.5-7-8-20-5.1-17.6 2 1.6 11.5 2.1 15.4.7 1.6 2.5 3 11.6 0 13-2 .9.7-8.7-8-8.2-5.3.4-1 11.2-2.3 12.1z" style="fill:none;stroke:#284985;stroke-width:.21600001;stroke-linecap:butt;stroke-linejoin:miter;stroke-miterlimit:22.9260006;stroke-dasharray:none;stroke-opacity:1" transform="translate(377.6 529.4)"/><path d="M0 0c-2-.5-2.5-4.4-1.8-6.4.4-1 .2-3 1.3-3.4 3.7-1.2 9.7-1.4 13.1 1C14.2-6 15-.7 12.3.6c-2.3 1.1-2.7-5.7-7.5-5C-.5-4.2 1.2-.8 0 0m75.2 22c1.2-.8.9-6.9 6-7 8.8-.6 4.3 9.2 6.3 8.1C90 22 91.4 9.6 89.8 7c-6.2 2.2-13.2.6-13.9.2-2.3-.7-3.4 16-.7 15m81.6-18.9c-10.5-7-8-20-5.1-17.6 2 1.6 11.5 2.1 15.4.7 1.6 2.5 3 11.6 0 13-2 .9.7-8.7-8-8.2-5.3.4-1 11.2-2.3 12.1" style="fill:#284985;fill-opacity:1;fill-rule:evenodd;stroke:none" transform="translate(377.6 529.4)"/><path d="M0 0c-2-.5-2.5-4.4-1.8-6.4.4-1 .2-3 1.3-3.4 3.7-1.2 9.7-1.4 13.1 1C14.2-6 15-.7 12.3.6c-2.3 1.1-2.7-5.7-7.5-5C-.5-4.2 1.2-.8 0 0Zm75.2 22c1.2-.8.9-6.9 6-7 8.8-.6 4.3 9.2 6.3 8.1C90 22 91.4 9.6 89.8 7c-6.2 2.2-13.2.6-13.9.2-2.3-.7-3.4 16-.7 15Zm81.6-18.8c-10.5-7-8-20-5.1-17.6 2 1.6 11.5 2.1 15.4.7 1.6 2.5 3 11.6 0 13-2 .9.7-8.7-8-8.2-5.3.4-1 11.2-2.3 12.1z" style="fill:none;stroke:#284985;stroke-width:.21600001;stroke-linecap:butt;stroke-linejoin:miter;stroke-miterlimit:22.9260006;stroke-dasharray:none;stroke-opacity:1" transform="translate(377.6 529.4)"/><path d="M0 0c-1.4-.5-2.3-1.3-2.9-2.5-.9-1.3-.9-2.9-.9-4.5l1.1-5.4c.7-3 2.2-5.2 3.4-6.8C2.3-21 4-21.5 5.7-21c2 .6 3 2 3.6 4.2.2 2 0 4.6-.7 7.3-.9 3-2 5.7-3.2 7.5C3.8 0 2 .5.2 0Zm-18 .4a23.3 23.3 0 0 0 3 14.8c1.2 2.4 2.8 4 5 5.6a16 16 0 0 0 6.6 3.6c2.9.9 5.4 1 7.3.5a10 10 0 0 0 5-2.1 7.2 7.2 0 0 0 2.7-4.2c.6-1.4.2-3-.5-4.5a6.6 6.6 0 0 0-4-3 8.8 8.8 0 0 0-4.2.2 4.8 4.8 0 0 0-2.7 3.2 8.7 8.7 0 0 0 0 4.3c.3.4.5.7.3 1 0 .4-.7.6-1.2 1-.6.2-1.6.2-2.7 0-2-1-3.2-2.3-4.1-4.7-.6-2.3-1-5-.4-8C-7.7 5-6.8 1.6-6-2c.7 2 2 3.9 3.2 5.1 1.5 1.5 3.3 2.5 5.4 3 2.2.6 4.3.6 6.3.3 2.3-.6 4.3-1.5 6-3.1 1.8-1.6 3.1-3.8 4-6.4.5-1.8.7-4.3.7-6.3-.2-2.3-.5-4.3-1.6-6.1-.9-2-2.3-3.6-4.1-5a16 16 0 0 0-6.3-3.2 17.6 17.6 0 0 0-10.9-.2c-3.2 1-6 3-8.2 5.7-2 2.9-4 6.1-4.9 10.2-.7 2.4-1.2 5.2-1.6 8.3m-43.5-17.2 13.6.7-1.2 17zm17.6 32 4.4.4.2-9.3 1.6-21.7 7.4.7.3-4.8-7.7-.6.6-5.7v-.4c0-.5.3-1.2.9-1.4.7 0 1.8-.2 3.7 0h1.6l.4-4.3-22.7-1.6-.4 4.3 3.4.5c2 0 3 .8 3 2.4l-.3 5.7-18-1.4-.6 5zm-53.7-4c-4 0-6.1-3.1-7.2-9.8-.5-7.3 1.3-11.3 5.2-11.4 2.2-.2 4 .7 4.7 2.8.9 1.8 1.6 4.5 1.6 7.7.3 6.5-1 10.3-4.3 10.6M-116.5.4c.2 2.6 1 5 1.8 6.8a18 18 0 0 0 4.3 4.6c1.4 1.3 3.6 2 5.5 2.3 1.8.8 4 1 6.1.8 4-.4 7.3-1.6 10-3.8 2.9-2.3 4.9-5 5.8-8.4 1.2-3.2 1.6-6.6 1.4-10.4-.2-1.8-.5-3.6-1-5.7-.3-1.8-.8-3.6-1.3-4.9-.6-1.6-1-2.8-1.6-3.7a18.3 18.3 0 0 0-11.8-10.7c-2.6-.6-5-1-7.6-.6a13 13 0 0 0-5.9 1.4c-2 .7-3.4 2-4.5 3.2a6.3 6.3 0 0 0-1.6 4.5c.4 1.8 1.3 3 2.4 4.3 1 1 2.8 1.6 4.6 1.6 1.6-.1 2.9-.7 4-2 1.2-.8 1.2-2 1.2-3.5 0-.7-.4-1.5-.9-2.5-.9-1-1.2-1.8-1.4-2.2.2-.9.7-1.2 1.8-1.2 1.8-.2 3.4.1 4.8 1 1.3 1 2.7 2.2 3.8 4 .7 1.8 1.4 3.7 2 6 .3 2.4.8 5 1 8.1v.2c-1.4-2-3-3.2-4.7-4-1.7-.8-3.4-1.2-5.5-1.4a14 14 0 0 0-6.6 2.7c-2.2 1.3-3.6 3-4.9 5.6a17 17 0 0 0-1.2 7.9m90 603.3c0 2.1-.7 3.6-1.8 4.1-.9.7-2.3 1.6-3.7 1.8l.7 3.8 24.7-5.8-1-3.7c-1.7.3-3.3.5-4.2.5-1 .4-1.6-.2-1.8-.7v-1.1l4.6-32.2 16 23c.7.8.9 1.5.9 2 .2.8.2 1.7.2 2-.4.9-.6 1.3-1.3 2-.5.3-1.3.9-2 1.2-.7.4-1.6 1-2.7 1.1l1 3.4 20.3-4.6-.9-3.6c-1.7.3-3.7 0-5.7-1.3-2.1-.9-4-2.5-4.8-4.3L-13.6 556l-5.7 1.3zm-31.1 22.2c.2 1.4.7 2.3 1.8 3.4 1.2 1 2.5 1.3 3.7 1.3 1 0 1.6-.6 2.5-1 .7-.3 1.1-1 1.6-2 .6-1 .6-1.9.6-2.6 0-1.4-1-2.5-2-3.6-1-1-2.3-1.2-3.4-1.2-.9 0-1.6.5-2.5.9-.9.7-1.4 1.2-2 2.1l-.3 2.7m-5.8-54.1 2.7 35.8c.2 1.3 0 2.2-.7 2.7-.5.5-2 .7-4 1h-2.4l.3 4.6 28-2-.6-4.5-2.9.2c-1.7 0-3 .2-3.7-.4-.5-.1-1-1-1.3-2.3l-2.8-36.4c0-.9.3-1.2.3-1.8.2-.5.6-.8 1.5-.8.7-.4 1.8-.6 3-.8.7.2 1.6.2 2.7 0l-.4-3.9-27.7 2 .3 4c1.3 0 2.2 0 2.6-.5 2 .2 3.2.2 4 .6.8.3 1.1 1.2 1.1 2.3zm-61.5 34.7a9.2 9.2 0 0 1-7.9 3.4l-.2 3.8 17.4 1 30-30.2-1.4 20.8c-.2 2.9-.9 5-2.3 6-1.3.6-3.4 1.2-6 1v3.7l19.6 1.5.4-3.8c-2.4-.5-4-.9-5-2-1-.9-1.5-1.8-2-2.8 0-1.6-.2-3 0-4.9l2.3-38.3-4.1-.5-36.3 37.6 1.7-26.7c.2-3.2 1.3-5.2 2.7-6.3a9.7 9.7 0 0 1 6-1l.3-4.5-20.4-1.5-.2 4.5c1.8.2 3 .4 4.1 1 1.1.3 1.8 1 2.5 2.2.6.8 1 2.5.7 4.3zm-49.2 6.7c.3-1.3 1-2.4 2.3-3.3 1.2-.8 2.7-.8 4.1-.5.5.2 1.3.7 1.8 1.3.7.7 1 1.2 1.4 2.3.2.9.2 2 0 2.7a6.3 6.3 0 0 1-2.3 3.2c-1.6.5-2.5.9-4 .4-1.4-.4-2.4-1-2.8-2.2a4.5 4.5 0 0 1-.5-4m-14.4-3.9c.2-1.2 1.1-2.3 2.4-3.2 1-.9 2.5-.9 3.7-.7 1.1.5 2.2 1 2.7 2.3.7 1.5 1.3 2.7.7 4.3-.1.7-.7 1.5-1.4 2-.7.9-1.6 1.2-2.3 1.6-1 .2-1.8 0-2.4 0-1.6-.5-2.5-1.3-3-2.5a3.6 3.6 0 0 1-.4-3.8m3.8-45.1-7.7 26.5c-.2 1-.7 1.8-1 2.3h-2c-.6 0-2.4-.3-4.9-.9l-1 3.6 26 7.2 1-3.6-3-.7c-1.3-.6-2.4-1-2.7-1.6-.6-.6-.6-1.5 0-2.7l7-25c.8-2.6 1.9-5.1 2.8-6.7 1.6-1.6 3-2.7 5.2-2.9 2.1-.5 4.6-.3 7.9.5 3.7 1.1 6.2 3.1 7.5 6.1 1 2.7 1.4 6.1.3 9.9l-5.9 20.2c-.5 2.2-1.2 3.4-2 4.3-.8.8-1.7 1.5-3 1.8-1.2 0-2.7 0-4.6-.5l-1.1 3.6 20 5.5 1.1-3.7c-2-.4-3.2-1.3-4.3-2.2-1-.7-1.8-2-2-3.4-.1-1.4 0-3 .6-5.2l5.9-21c.9-2.3.9-5 .5-7.3a13 13 0 0 0-2-6.3c-1.4-1.8-3-3.5-5-5a43.5 43.5 0 0 0-7.1-3.2c-7.2-2-13-2.3-17.2-.7-4.6 1.2-7.7 5-9.3 11m278-25.5 5.7-3.8c2.8-1.8 5.3-2.5 7.5-2.1 2.3.5 4.3 2.1 5.9 4.3 1.6 2.1 2.1 4.3 2.1 6 0 2-1.2 4-3.9 6-.4.1-.7.5-1.4.9-.6.3-1 .9-1.3 1.2-1 1-2.3 1-3.4 1.3-1 0-2-.4-2.7-1.6zM71 529l20.7 29c1 1 1 2 .7 2.5-.2.7-1 1.4-2.8 2.7l-2.4 1.6L90 568l27.4-18.8a19 19 0 0 0 6-6.6c1.3-2.2 2-4.7 2-7s-.8-4.3-2-6.3c-1-1-2.2-2.3-3.5-2.8-1.6-1-3-1.5-4.6-2-2 0-3.8 0-5.8.7-1.8.2-4 1.3-6.2 2.5 2.1-2 3.2-4 3.5-6 .4-2 .4-4.2 0-5.8-.3-2-1.2-4-2.1-6.4-1-2-1.4-3.4-1.6-3.8-.5-1.3-.4-2.5.3-3.2 1-.4 1.7 0 3 .3 1 .4 2 1.6 3.7 3.6l2.8-2c-2.5-3.5-5.3-5.3-8.4-5.5-3.2-.5-5.9.2-9 2.1-1.2 1-2.3 2-3.2 3.3-.8 1.6-1.4 2.8-1.6 4 0 2 .8 4.4 2 6.7l4.3 7c1 2 1.6 4 1.3 6-.2 1.9-1.8 3.7-5 6-.4.4-1.1.7-2.4 1.4L80.7 521c-.7-.7-.7-1.6-.5-2.5.5-.3 1.2-1.2 2.5-2.5.7-.2 1.6-.9 2.8-1.6L83 511l-22.5 16 2.1 3c2-1.5 3.4-2.2 4-2.7 1-.4 1.8-.7 2.3-.4.5.4 1.4.7 2 1.8zm-49.8 25.4c-.5-1.4-1.3-2.1-2-2.1-1 0-2.3 0-4 .9-.4.1-1.2.9-2.6 1.2l-1.6-4L54.6 531l8.4 16.4-3 1.3a54.8 54.8 0 0 0-6.8-5.6 11.4 11.4 0 0 0-7-2 25 25 0 0 0-9.3 2.6 54 54 0 0 0-3.4 1.8c-.6.5-1.1.9-1.1 1.2a4 4 0 0 0 .2 2.5l7 14.7c2.3-1 3.9-2.3 5-3.6 1-1.4 1.6-3.2 1.6-5 .3-1.6-.2-3.6-1.1-5.2l4-1.8 9.6 22.2-3.4 1.5c-.9-1.8-2.1-3-3.4-4.1a8.2 8.2 0 0 0-4.5-1.8c-1.6-.4-3.2.1-4.6.7-.7.3-1.3.7-1.8.7l6.3 13.4c.7 1.6 1.4 2.2 2.6 2.4 1.5 0 2.7-.6 4.5-1.3 2.9-1 4.8-2.3 6.6-4a20 20 0 0 0 3.4-4.8c.6-1.6 1-3.2 1-5.2s-.3-4-.4-6.2l3.2-1.3 7.1 16.8L32 596.5l-1.8-3.7c1.5-.8 2.6-1.1 3.6-1.5l2-1.4c.5-.4.7-.7.7-1.4 0-.4 0-1.1-.3-2zm113-38.3c-3.7-3.6-5.6-7.4-5.4-11 0-3.7 1.2-7.3 3-10.7l5.7-10.4c2.2-3.4 2.4-6 1.3-7.5-.6-.5-1-1-1.6-1.8-1.3-.9-2.7-1.6-4-2-1.2-.1-3 0-4.4.6-1.5.7-2.9 1.6-4.2 2.8a26 26 0 0 0-3 4.7c-.5 1.4-1 3.4-1.3 5.5-.3 2.2-.1 4.5.4 7 .4 2.5 1.3 5.2 2.5 8l-2.3 2.2-14-14 2.4-2.3 6.2.2c.2-2.8 1-5.4 2.2-7.7a26 26 0 0 1 4-6c1.9-1.9 3.7-3.3 5.6-4.4 1.8-1 4-1.6 6.3-2 2-.3 4.1-.1 5.9.4 2 .6 3.6 1.5 5.2 2.9.3 0 .9.3 1.4 1 3.2 3.1 5.2 6.5 5.2 10 0 3.1-.3 6.5-2 9.2-1.2 2.5-3 5.8-5.3 9.3-2.4 3.6-3.6 6.1-3.6 7.4 0 2.1.5 4 1.8 5.2 1.4 1.4 3.6 2 5.7 1.6a8.8 8.8 0 0 0 6.3-3.4c1.8-1.4 2.5-3.6 3.4-5.7.9-2 1-4.9.5-7.7-.2-3-1-6.1-2.9-9.4l2.6-2.5 12.7 13.5-2.2 2.1-5.2.2c-.5 4.5-2.5 8.4-5.9 11.8-2.1 2.3-4.5 4-7.3 5-2.7 1.3-5.6 1.6-8.4 1.3-2.7-.6-5.2-1.8-7.4-3.4m69.6-81.2-34.3-15.7a3 3 0 0 0-2.2-.2c-.3 0-1 .7-1.6 1.2-.3 1.1-1 3-2.3 5l-4.1-1.7 12.2-25.8 4 1.8c-.3.9-1 1.6-1.2 2-.9 2-1.2 3.5-1.2 4.2 0 1 .3 1.7 1.2 2l35.1 16c1 .3 2.3 0 2.9-1.5.9-1.8.9-3.4.7-5a9.6 9.6 0 0 0-2-4.8c-1-1.8-2.3-3.3-3.6-4.3-1.2-1.3-2.7-2.2-4-3.3l1.3-2.8 17 8.6-19.3 42.3-18.2-7 1.6-3c2 .6 4.3 1 7 1 2.5.4 5-.2 7.3-.9 2-1 3.6-2.5 4.6-4.7 1-1.6.8-2.6-.9-3.4m-17.7-53.7 34.4 9.5c.9.3 1.4.5 1.8 1 .5.4.7.8.7 1.5-.2.4-.2 1.3-.4 2.3-.5 1.1-.7 2-1 3.6l4 1.3 13.1-45.2-17.8-5.7-1.1 3.4c2 1 3.7 2.5 5.2 3.6 1.4 1.2 2.5 2.7 3.6 4.1.7 1.6 1 3.6 1.2 5.7a23.1 23.1 0 0 1-2.9 11.7c-1 .7-2 1.2-3.5.7l-14.2-4c0-.3 0-1 .4-1.6a9.2 9.2 0 0 1 2.3-4.3 9.8 9.8 0 0 1 4.5-2.3 11 11 0 0 1 5.2.5l1-3.5-23.2-6.8-1.1 3.7c1.6.4 3.4 1.4 4.7 2.7 1.4 1 2.3 2.5 2.6 4.3.6 1.8.4 3.8-.5 6l-15.7-4.2c-.8-.2-1.7-.5-2-1.3-.4-.1-.4-.7-.4-1.8 0-.8.4-2 1-3.5a20 20 0 0 1 3.9-8.8c1.6-2 3.7-3.2 5.9-4 2.5-.5 5.5-1.2 8.7-1.4l1-3.4-18-4.1-13.2 45.7 4.5 1.2.5-3c.5-1.5 1.3-2.7 1.8-3.4.7-.4 1.4-.6 3-.2m40.8-47c2.7 0 5.6-.7 8-2 2.2-1.5 4.2-3.7 5.5-6.2a19 19 0 0 0 2.5-8.6c.1-4.6-.6-9-3.3-12.7l4-3.4.2-3-18.5-2.4-.5 3.3c3.6 1.7 6.4 3.5 8.6 5.5 2 2 3.6 4.1 4.6 6.5.7 2.1 1.1 4 1 6.4 0 2.5-1 4.8-2.6 6.6a8.4 8.4 0 0 1-5.5 2.5c-1.8-.1-3.4-1.4-4.9-2.8-.7-1.1-1.4-3.6-2-8-.6-4.2-1-7.8-1.9-10.7-.7-3-2.3-5.7-4.5-8.2-2.3-2.7-5.9-4.1-10.2-4.3-.9-.4-1.4-.4-2.1 0-2-.2-3.8.4-5.7 1-1.7.8-3.4 2-4.7 3.7a20.2 20.2 0 0 0-3.6 5.3 22 22 0 0 0-1.4 6.8c-.2 2.5 0 4.9.7 7.4.5 2.5 2 5 3.4 7.3l-4.8 4-.4 3.2 19.9 1.6.2-3.2c-2.5-1-5-2.7-7-4.3-2-1.8-3.6-3.2-5-5.4-1.1-1.6-2-3.2-2.5-5.2-.4-1.8-1-3.6-.8-5.2 0-1.8.8-3.4 1.3-4.6.9-1.5 2-2.7 3-3.4 1.5-.6 3-1.3 4.7-1.1.9 0 1.6.5 2.1.5 1.8.4 3.4 2.7 4.2 6.5.5 3.7 1.4 7.9 2.3 11.6.5 3.8 2.1 7.4 4.5 10.2 2.1 2.9 6.2 4.7 11.2 4.9m25.8-60a5 5 0 0 0 3.4-1.7 6.3 6.3 0 0 0 1.3-3.7c0-1-.6-1.8-1-2.5a4 4 0 0 0-1.9-1.5c-1-.7-2-.7-2.7-.7-1.6.2-2.5 1-3.6 2-1 1-1.2 2.3-1.2 3.4 0 .9.3 1.6.7 2.5.7.7 1.4 1.4 2.1 1.8 1.1.2 2 .4 3 .4M146.8 454.8l30 21c.8.9 1.4 1.4 1.4 2.3 0 .5-.8 2.2-1.8 3.6l-1.6 2.1 3.7 2.5 16.1-22.3-3.6-2.6-1.6 2.2c-1 1.4-2 2.5-2.8 2.7-.4.3-1.5.3-2.4-.4l-30.2-21.5c-.5-.5-.7-1-1-1.4-.3-.4-.4-.9.3-1.6.2-.7.5-1.4 1.2-2.5.6-.7 1.3-1.3 1.8-2.2l-3.4-2.3-16 22.4 3.3 2.1c.6-.9 1.3-1.6 1.3-2 1.2-1.5 2.1-2.3 2.8-2.8 1-.4 1.8 0 2.5.7m-488.7 8.8 11-15.4 7.6 12zm12.9-26.3-24.4 35.3 3 4.4 47.3-7.7a5 5 0 0 1 3.4.4 9 9 0 0 1 2.7 3l4-2.3-13.3-20.8-4 2.4 1.3 2c1 1.7 1.4 3 .5 3.3-.3.2-.9.2-1.2.6l-8.4 1.2-9.5-15a18 18 0 0 1 4.1-5c2.7-1.7 5 0 7.3 3.7l3.8-2.3-11-17-3.5 2.1c1.8 3.2 1 7.4-2.1 11.7m-55.7-45.2 35-13.4c1-.4 1.3-.7 1.5-1 .4-.4.4-1 .4-1.9l-1.8-4.8 4.3-1.4 9.6 24.5-4 1.8c-1-2-1.5-3.6-1.9-4.3-.5-.7-1-1.3-1.4-1.6-.2 0-1.3 0-2 .5l-10.2 3.8-3.4 8 18.1 3c1.2.4 2.3.4 3 .3.8-.2 1-1 .8-1.5-.2-.9-1-2.3-1.5-4.6l4-1.5 9.3 23.5-4.1 1.6c-.4-1-1.1-2-1.5-2.5l-1-1c-.8-.4-1.1-.4-2-.6l-30.3-6-3.9 8.1c-2.9 6.7-3.4 11.9-2.2 16l-3.4 1.4-8.7-22 3.6-1.6c.9 2.3 1.7 4 2.5 4.8.7 1 1.6 1.3 2.1 1 .7 0 1.4-1 2.2-2l10.7-22.1-19 7.3c-.7.2-1.4 1.1-1.6 1.7 0 1 .2 2.3 1 4.3l.4 1.6-3.5 1.2-9.7-24.9 3.6-1.2c.9 2.1 1.8 3.7 2 4.4.7 1 1 1.7 1.4 1.7.3.1.7 0 1.6-.6m-12.9-65c-2.7-1.6-4.5-3.6-4.8-6.6l-3.8.7 2.9 17 37 21.3-20.7 3.8c-2.9.5-5 .2-6.3-1-1-1-2.1-2.8-2.7-5.3l-3.6.5 3.6 19.8 3.8-.6c-.2-2.3 0-4.3.7-5.2.3-1.6 1.4-2.3 2.1-2.8 1.5-.4 2.9-1.1 4.7-1.3l38.3-6.8-.5-4.3-45.5-26 26.3-4.6c3-.6 5.6-.2 7 1 1.2 1.3 2 3 2.5 5.6l4.5-.9-3.8-19.7-4.5.9c.4 1.4.4 3 .4 4.1-.2 1-.7 2-1.6 2.9-.6.7-2.3 1.4-4.3 1.8zm5.7-51.6 18-5.9-1 14.2zm139.1 276.6 3.4-18.5 12 7.7zm.4-29.2-7 42 4.4 3 39.6-27c1.3-.8 2.5-1 3.4-1 1 .2 2.3.7 3.8 1.6l2.3-3.6-21-13.2-2.5 3.6 2.2 1.2c1.8 1.3 2.3 2 1.8 3-.2.4-.7.6-1 .8l-6.9 4.6-15-9.6c.3-2.7 1-4.7 1.6-6.3 1.6-2.3 4.3-2.2 8.2.4l2.3-3.5-17-11-2.3 3.5c2.9 2.4 4.1 6.3 3 11.5m-44.7-19-10.2 11c-.9 1-1.2 1.9-.9 2.8 0 .9.7 2.1 2 3.2l1.4 1c.4.3 1 .6 1.3 1.2 2.5 1.8 4.6 2.8 6.4 2.3 2-.2 4-1.3 5.6-3 2.1-2.2 2.8-4.5 3.2-6.9 0-2.1-1.5-4.4-3.8-7zm4.7-23.3.1-.3c1-.8 1.3-1.7 1.3-2.2.4-.7 0-1.2-.5-2.1-.8-.4-1.8-2-3.4-3.4l2.5-2.7 20.4 18.4-2.7 3c-1-.7-2-1.5-2.2-2.3-1.4-.9-2.5-1.6-3.2-1.8-.5-.1-1.8.2-2.3 1l-12 13c.5 1 1.4 1.6 2 1.8 2.6 2.7 5 4 7 3.8 2-.4 3.7-1.1 5.5-2.9 1.8-1.6 3.8-3.2 5.9-5.2 2-2 4.1-3.2 6.3-3.4 1.2-.2 2.8.2 4.3.5l3.9 2.6c2.7 2.3 4 5 4.1 8.2.4 2.9-.9 6-3.7 9.1l-2.6-2.1c1.5-2 2.4-3.2 2.7-4.5.2-1.3.2-2.2-.1-2.7-1.1-.7-2.2-.7-3.4 0-.2.4-1.8 1.3-3.6 2.5-2.2 1.5-3.8 2.7-5.8 3.4-1.4 1-3.4 1.3-5.7 1.3-2.1 0-4.5-.6-6.8-2 2 1.8 3.2 3.8 4 5.4a11.7 11.7 0 0 1 .8 10.2 17 17 0 0 1-2.1 4 11.6 11.6 0 0 1-5.7 3.2c-2.4.7-4.9.5-7.4-.2-2.6-.7-5.3-2.5-7.7-4.5l-24.5-22.8 2.7-3.2 2.2 2c1.2 1.2 2.5 2 3.2 2 .7 0 1.2-.2 2.3-1.1zm-73.2-218.5-40.8 14.1-.2 5.6 42.8 20.8c1.4.5 2.3 1.6 2.5 2.5.3 1 .3 2.3.3 3.9l4.5.2 1.6-24.2-4.5-.4-.2 2.4c0 2.1-.7 3.2-1.6 3.2-.5-.4-.9-.5-1.4-.7l-7.2-3.6 1-17.7c2.8-1.1 5-1.6 6.6-1.6 2.8.1 3.9 2.5 3.7 7.1l4.3.4 1.3-20-4.3-.3c-.6 3.4-3.6 6.3-8.4 8.3m563.5 18 36.4-2.6c1.2-.4 2.1-.2 2.7.5.5.6.7 2.2.9 4l.1 2.5 4.5-.4-2-27.6-4.4.6.1 2.6c0 2 0 3.3-.3 3.8-.2.7-1 1-2.3 1.3l-37 2.7c-.8 0-1.2-.2-1.5-.2-.7-.2-1-.6-1-1.5-.5-.7-.6-1.6-.8-2.8.2-1 .2-1.8 0-2.9l-4 .4 2 27.4 4-.2c0-1.3 0-2.2-.4-2.7.2-1.8.2-3 .5-3.8.6-.9 1.3-1 2.4-1zm-5.1 205c-1-.4-1.3-.9-1.8-1.8-.4-.9-.6-1.6-.6-2.7.2-1 .4-2 1-2.5.6-1 1.7-1.8 3.1-2 1.6-.1 3 0 4.2 1 .5.5 1.2 1.2 1.4 2 .5 1 .7 1.9.7 2.4-.2 1-.7 2-1 2.5-.8 1-2 1.8-3.5 2-1.4.3-2.5 0-3.5-1M-157.7-12.8l7.7 25.8.4 2.3c0 .4-.2.7-.7 1.1a5 5 0 0 1-2.4.9l-4.8 1.4 1.3 4c3.5-1 6.8-1.5 9.4-1.6 3-.4 5.6.3 8.3 1.2l2-.5-10.8-36.7c-.4-2-.7-3-.7-4 0-.7.3-1.4.7-2 .5-.1 1.8-.9 3.2-1.2.7 0 2.2-.5 3.8-1l-1-3.5-26.8 7.5 1.1 3.6 4-1c1.2-.2 2.3-.6 3-.2.5 0 .9.3 1.3.9.5.7.7 1.4 1 3" style="fill:#284985;fill-opacity:1;fill-rule:evenodd;stroke:none" transform="translate(535.7 162.5)"/><path d="M0 0a250.1 250.1 0 0 0-271.5 54.3 250.2 250.2 0 0 0-54.3 271.5 251.1 251.1 0 0 0 135.5 135.6A250.1 250.1 0 0 0 81.2 407a247.9 247.9 0 0 0 54.3-271.5A251 251 0 0 0 0 0m168 230.7a261.5 261.5 0 0 0-77.2-186A264.7 264.7 0 0 0 5.2-12.6a263.8 263.8 0 0 0-200.7 0 264.7 264.7 0 0 0-142.9 142.9 263.8 263.8 0 0 0 0 200.8A264.6 264.6 0 0 0-195.5 474a263.7 263.7 0 0 0 200.7 0A264.7 264.7 0 0 0 148.1 331c13.2-31.9 20-66 20-100.4m53.6 142.7a348.5 348.5 0 0 0 8.4-265A349.9 349.9 0 0 0 47.6-86.3a346.4 346.4 0 0 0-380.4 63.6A349.3 349.3 0 0 0-412 88a348.2 348.2 0 0 0-8.4 265.1A350 350 0 0 0-238 547.6a346.3 346.3 0 0 0 380.4-63.7 349.3 349.3 0 0 0 79.2-110.5m21.2-269.9A359.5 359.5 0 0 1 234 379a362.9 362.9 0 0 1-340.8 212.7 359.9 359.9 0 0 1-251.6-114 359.5 359.5 0 0 1-66.2-395.4A363 363 0 0 1-83.8-130.3 360 360 0 0 1 168-16.3c32.5 34.6 58 75.4 74.9 119.8" style="fill:#e5c97c;fill-opacity:1;fill-rule:evenodd;stroke:none" transform="translate(548.7 222.9)"/><path d="M0 0c.9.2 2 1.2 2.7 3.4v4c0 1 .3.6 0 1.5-2 5-2.5 19.5-1.5 28.3-.5 2.1-3.2 3.5-5.8 3.5-5.5 0-5-8.2-5.2-12-.5-8.3-.2-18.2 1.3-22.3.1-.4 1.4-4.6 2.3-5.3C-3.7-1.1-.5-.2 0 0m-81.8 20.6 7.1 2.9c2.2.7.7.1.4-1.6-2-7-1-28 1.2-34.5.4-1.4 1-1.3 0-2.2l-1-1.2a8.8 8.8 0 0 0-2.9-3.4c-.7-.5-4 0-5.1.6-1.6.7-1.8 3.9-1.8 3.9-3 16-1.3 32.9 2.1 35.5M72.7-13.9c-.3-2.5-.5-5.1-.3-7.4.1-1.1.7-2.4 1.7-2.7 2.7-.9 6.8.7 7.3 4l1 3.8v.2c2.4 4 3 28.2-2 33.4-1 1-10.3 5.7-10 5 4.5-5.2 4-29 2.3-36.3" style="fill:#e5c97c;fill-opacity:1;fill-rule:evenodd;stroke:none" transform="translate(461.7 544.6)"/><path d="M0 0a3 3 0 0 0-1.7-1.2 8 8 0 0 0-3.5-.2 6 6 0 0 0-3 1.4c-.7.6-1.7 3.3-2.1 4.7l-.3.7c-.7 2-1.1 5.3-1.3 9.1a114.8 114.8 0 0 0 .1 14.8c0 4.3.2 10.9 5.4 10.9 1.5 0 2.9-.4 4-1.1 1.1-.7 2-1.6 2.2-2.7v-.1c-.5-4.5-.6-10.6-.4-16A45.6 45.6 0 0 1 1.4 7c-.1 0-.2-.2-.2-.5a19 19 0 0 0 0-4.2A8 8 0 0 0 0 0m-1.8-.6c.4.1.9.4 1.3 1C-.1.9.3 1.7.6 2.6l.1 1.7-.1 2.3.1.8v.5c-1 2.4-1.7 7.2-2 12.3-.2 5.5 0 11.6.5 16a4 4 0 0 1-2 2.3c-1 .7-2.3 1-3.6 1-4.5 0-4.7-6.2-4.8-10.2v-1.6c-.3-4.2-.3-9 0-13.1a37.4 37.4 0 0 1 1.5-9.7c.4-1.3 1.3-4 2-4.4C-7-.4-6-.7-5.2-.9c1.6-.3 3 .1 3.3.2zm-74.5 22.9-7-2.8c-1.7-1.4-3-6.6-3.4-13.6-.4-6.3 0-14 1.4-21.6 0 0 .1-3 1.5-3.7.6-.3 1.8-.6 3-.7l1.9.1c.6.4 1.1.9 1.5 1.4.5.6.9 1.3 1.2 1.9a6.5 6.5 0 0 0 1.2 1.3c.4.4.4.5.2.8l-.3 1a82 82 0 0 0-2.2 18c-.3 6.7 0 13.3 1 16.7 0 .7.4 1.3.6 1.6h.1c0 .3-.1-.2-.7-.4m-7.3-2.2 7 2.8c1.1.4 1.5.5 1.6 0 .1-.1 0-.3-.2-.5-.1-.3-.4-.8-.5-1.5a66 66 0 0 1-1-16.5c.3-7.2 1.1-14.4 2.2-17.8l.3-1c.3-.5.4-.7-.4-1.5l-.5-.5-.5-.6-1.2-2a6 6 0 0 0-1.8-1.5c-.4-.3-1.3-.3-2.3-.2-1.2 0-2.5.4-3.1.7-1.7.8-2 3.9-2 4.1A91.7 91.7 0 0 0-87.4 6c.4 7.1 1.8 12.6 3.7 14zM70.3-18.7c0 1.3.2 2.7.4 4a100 100 0 0 1 .9 22.3c-.4 6.2-1.4 11.6-3.2 13.7v.4c0 .3.4.3 1 0a45 45 0 0 0 9.5-5c2.2-2.3 3.4-8.2 3.8-14.4.5-8.2-.3-17-1.7-19.4h-.1l-.9-4c0-.2 0-.4-.2-.6a5.4 5.4 0 0 0-2.7-3 6.8 6.8 0 0 0-4.8-.5c-.6.2-1 .6-1.3 1-.4.6-.6 1.3-.7 2v3.5m1 4a43.6 43.6 0 0 1-.4-7.5c.1-.5.3-1.1.6-1.6a2 2 0 0 1 1-.8l.6-.1c1.2-.2 2.5 0 3.7.6 1 .5 2 1.4 2.4 2.6l.2.6.9 4v.1h.1a49.8 49.8 0 0 1 1.6 19c-.4 6.2-1.5 12-3.6 14.1a45.3 45.3 0 0 1-9 4.8 33 33 0 0 0 2.8-13.4c.6-8.5 0-18.3-1-22.5" style="fill:#284985;fill-opacity:1;fill-rule:evenodd;stroke:none" transform="translate(463.4 545.4)"/></g></svg>