<svg xmlns="http://www.w3.org/2000/svg" xml:space="preserve" width="1209.4" height="1209.4"><defs><clipPath id="a" clipPathUnits="userSpaceOnUse"><path d="M0 907h907V0H0Z"/></clipPath></defs><g clip-path="url(#a)" transform="matrix(1.3333333 0 0 -1.3333333 0 1209)"><path d="M0 0a349 349 0 0 1-328 205A346 346 0 0 1-570 95a350 350 0 0 1-72-115 348 348 0 0 1 8-265 349 349 0 0 1 328-205A346 346 0 0 1-64-380 350 350 0 0 1 8-265 349 349 0 0 1 0 0m-54-143a262 262 0 0 0-77-186 265 265 0 0 0-86-57 264 264 0 0 0-200 0 265 265 0 0 0-143 143 264 264 0 0 0 0 201 265 265 0 0 0 143 143 264 264 0 0 0 200 0A265 265 0 0 0-74-42c14-32 20-66 20-101" style="fill:#fefefe;fill-opacity:1;fill-rule:evenodd;stroke:none" transform="translate(770 596)"/><path d="m0 0 3 3v6c-2 5-3 19-2 28 0 2-3 4-6 4-5 0-5-8-5-12l1-23 3-5c2-2 6-1 6-1m-82 21c-3-3-5-20-2-36 0 0 0-3 2-4h5l3 3 1 1v2a98 98 0 0 0-1 35c0 2 2 2-1 2zM73-14l-1-7 2-3c3-1 7 1 7 4l1 4c3 4 3 28-2 33l-10 5c5-5 4-29 3-36m14-308a250 250 0 0 0-271 55 250 250 0 0 0 0 352 250 250 0 0 0 352 0 248 248 0 0 0 54-271A251 251 0 0 0 88-322" style="fill:#284985;fill-opacity:1;fill-rule:evenodd;stroke:none" transform="translate(462 545)"/><path d="m0 0 1 8c5-1 10 1 19 7A62 62 0 0 0 0 1m-63 89v10l9-10c2-2 4-3 4-5s-1-4-3-4a26 26 0 0 1-10 9m35-60c4-13 15-17 15-17 1-2-1-10-1-12-3 1-24 20-24 20 1 3 8 7 10 8M28 9C32 8 46-6 46-7L8-8c2 2 19 18 20 17M58-2c-2 5-22 19-21 20 3 2 17 14 18 12 3-8 3-21 5-30 0-2 1-3-2-3m-7 48c-1-4-21-20-22-20l-2 2c1 2 4 9 1 23l19-1c3 0 4-3 4-5M14 68c2 2 9 9 11 9 7 1 15-11 16-14s-2-3-6-4H22c-4 7-9 8-8 9m-141-42 4-3 2-2-3-3-17-12-3-1-2 2v6l2 1 10 4c4 3 6 8 7 8m77 23h22l-2-7-16-13-11 9c5 5 7 9 7 10m-23-18 6 2 11-11c-1-4-16-15-16-15l-1 24m7 91h9l9-1c12-3 27-9 27-11l-19-16-7 6-10 9c-3 3-8 6-10 10-2 2-3 2 1 3m26-46 17-14-23 1c1 3-1 7-1 7l7 6m28 26c1-3 1-12-1-14s-2-3-2-8c-1 0-2-8 0-9-1-1-5 3-6 4l-8 7a45 45 0 0 0-3 2s19 20 20 18m-101-3-15 12c-1 1-1 1 2 2 5 2 21 8 35 7 4 0-18-17-22-21m21 2V88a18 18 0 0 1-4-5c-1-1-2 0-3 2l-5 5 11 11c2 1 1 0 1-1m-70 2 1-3v7c1 8 2 13 4 15l7 2h2-1v-2l-1-16 2-18v-2l-1-1-1-2a6 6 0 0 0-2-2h-2l-3 1c-2 0-2 3-2 4l-2 9c-4-3-5-6-6-9-3 0-6 3-8 3-1 4 11 13 13 14m-21-21 11-10a17 17 0 0 1-6-7h-18c2 6 6 12 13 17m-20-29h19c-2-3-2-8-1-12 0-1-1-2-3-2l-3 3-8 7-4 4m80-2h19c0-2 2-7 5-11l-10-9-3 1-10 10-1 9m8 31c3-1 7-6 11-9-2-2-3-7-2-10l-10-1h-12l-4 5 2 3 15 12m-12 12 2-3c0-3-10-11-12-13h-2c0 4 2 11-5 16l-3 2c0 3-1 9 1 10 3 1 3 2 5 1l14-13m80-81c4-2 19-17 19-17l-37 1c2 4 17 17 18 16m-65-1 4-4 6-6 3-3h-26v1l2 2zm24 21c1-2 2-1 3-2l-1-20c0-8 0-6-5-1-3 5-7 8-11 11l13 12m-98-12c6-6 14-12 17-19a153 153 0 0 0-42 0l2 2c5 6 10 12 18 17 2 1 3 2 5 0m-22 21 10-9c2-2 2-2 0-4l-19-16-2-1c-5 2 2 24 8 30 1 2 2 2 3 0M10-89h12l9-1 1-1v-2l-10-12c-1-3-11 11-13 13-2 3-4 3 1 3m-233 64c-2 3 1 6 4 4l23-20c1-1 1-3-1-4-4-3-8-8-13-10-4-2-7 5-7 9l-6 21m147-4c0 2 1 2 3 1l16-14-3-3-11-8-3-2c-2-1-2 1-2 2v24m134 2c1 1 1-25-11-37-1-1-11 12-13 14s19 19 24 23M8-19l35 1h4v-2c-4-5-17-16-22-19-2-2-16 14-19 16l-1 2 3 2m-159-68h4l14-15v-3l-9-7c-1-1-1-2-3-2l-3 1h-4l1 15v11m63 63c2-8 1-36 0-36l-19 18c-1 1 14 15 17 17l2 1m-12 7c2 0-1-3-2-4l-12-12h-2c-4 4-13 9-17 14-2 1-2 1 1 2h32m-63-78v-12l-9-1c-3 0-4 3-3 6 0 2 2 2 4 4l7 4c1 1 1 1 1-1m-35 16h28c2 0 2-2 1-3l-15-13a5 5 0 0 0-3-1c-2-1-4 2-6 4l-7 11c-1 2 0 2 2 2m14 24 10-9c3-2 6-3 1-3h-29c-5 0-3 1 0 3l12 10c3 2 3 2 6-1m7 12 7 7 9 10v-30c0-4-1-3-3 0l-13 13m31 21 17-18c3-3 2-3-1-6a89 89 0 0 0-19-18c-2-1 1 43 3 42m31-31c3-4 19-14 11-14l-30-1c-4 0-3 0 0 3l14 12c3 2 2 3 5 0m-20-28 28 1c4 0 5 1 1-2a105 105 0 0 1-14-12c-2-2-2-2-4 0l-12 11c-2 2-2 2 1 2m74 63c2 0 37 0 36-1a173 173 0 0 0-20-14l-2-1c-4 2-10 10-15 14-2 1-2 1 1 2m21-106c-1-2-5-3-7-2l1 4 3 2 5-3-2-1m42 23 2-2 5-5c7-6 1-6-5-11-1-1-1-3-6-1v16c0 5 1 7 4 3m-16 1-2-17c1 0-4-3-8-3-2 0-3 0-4 2l-3 3c-2 1-2 1 0 3a64 64 0 0 1 13 14c3 3 4 2 4-2m-89-76c-2 2-4 2-6 9-1 3-3 8-1 10 5 4 10 5 16 6 8 1 7-2 11-2l6 5 12-1c4-2 10-8 11-12a18 18 0 0 0-5-16s-44 0-44 1m-17 63 5-5c3-3 7-3 5-8-1-2-6-2-7-3-4-1-11-1-14 1-2 1 3 3 2 5-1 4-5 5-1 8l3 1c3 3 3 5 7 1m7 10 15 10c3 3 6 7 10 9l-1-27-1-14h-3c-3 1-3 3-6 6l-14 16m35-18c-2 3-1 16 1 25v6l25-23-1-1-11-10c-4-2-12 0-14 3m14 36v3c12-3 27-4 39-4l-2-3-13-14c-3-3-2-3-5 0-6 4-12 12-19 18m12 31c4 4 5 2 8-1l18-17c2-2 2-2-1-2-13-1-28 2-41 5v1l16 14m39 26 1-38c0-3 0-3-2-1l-22 21c-2 2-2 2 1 4l21 15c1 1 1 1 1-1m14-8c3-2 11-11 12-15l-4-3-9-7v25m6-40c-2 1 5 6 5 7a111 111 0 0 0 12 10h3l6-6c1-2 10-9 7-13-4 0-30 0-33 2m3-57 4 1 3 4 6 2c5 2 6 4 8 6l10 9 10 14c5 7 11 14 14 22 2 4 3 11 7 14 2 1 3-4 5-4h5c1 0 2-1 1-2 0-2-3-1-3-3v-7l3-2-2-5a11 11 0 0 1 1-7l4-3-4-13c-3-7-8-15-14-20a51 51 0 0 0-21-11l-17-2c-6 1-12 0-18 4-2 1-3 2-2 3M-207-13l41-1c4 0 2 0 0-2-3-3-18-18-20-18-2-1-17 14-23 18-2 2-1 3 2 3m45-122c-12-4-43 2-55 6-8 2-15 6-19 12-5 8-9 18-11 27l-2 10c6 4 6 10 4 13 4 2 6 8 5 12l-2 6 7 4a92 92 0 0 1 5-18 148 148 0 0 1 14-25c4-6 12-19 25-29a93 93 0 0 1 29-14c4-1 2-3 0-4m14 174c0 2 0 2 2 2h16l-2-10c-3-5-11-11-15-10l-1 18m-2 12c0 5-1 13 1 15 6 1 20-14 18-18l-15-1c-3 0-4 1-4 4m-6-4h-20v9c3 5 11 10 19 10 2-2 1-14 1-19m75 6 1-12c0-5-2-6-5-4-8 4-15 11-14 20h14c3-1 4-1 4-4m7 0c0 2 0 2 2 2l18-1c3 0-9-19-21-17l1 16m3 11v20c9 3 21-16 18-23h-10c-3 0-8 0-8 3m-7 0c-2-1-16-1-19 2-1 3-1 4 1 7 3 6 9 11 16 11 2-2 2-14 2-20M5 33v2h17c2 0 0-6-3-10-4-6-10-10-15-8l1 16M4 52v10c9 2 21-14 19-20L5 41c-2 0-2 8-2 11m-6 10c3-6 0-15 1-21l-20-1a16 16 0 0 0 0 5l2 5 8 8 9 4m2-29V17c-6-1-12 2-16 6-2 3-5 7-4 12h17c2 0 2 0 3-2m-155 4V19c-8-2-16 8-18 12-1 2-4 7-3 9l12 1 5-1c3 0 3 0 3-3m-83-71c-3-1-6-2-9-1s-2 7-5 9c-3 1-9 1-11-1-3-3 0-10-3-12l-4-1c-2-1-2-3-5-4-6-4-16-7-22-12-3-2-3-8 0-9 5-2 9 1 15 2 2 1 4-1 6-1a94 94 0 0 1 14 5c5 2 4 4 6 4s1-4 0-6c-1-3-5-3-5-7 0-16 5-32 11-47a44 44 0 0 1 10-16c10-10 25-15 38-18 18-4 31-3 50-2l9-1c6-3 9-6 14-11 5-6 11-24 12-28 8 2 68 0 75 0a107 107 0 0 0 13 29c4 5 11 7 17 7 18 0 51-4 72 6 13 5 30 27 35 39 6 16 5 12 4 29 0 3 1 3-1 7 0 2-4 7-2 7h7c1 0 0-2 2-2 2-1 3-2 7-1l2 1 4-1c7 0 8 7 10 7 3 1 8 2 6 4-7 5-10 1-16 5a13 13 0 0 1-9 2l-7-3h-4c-1 3 7 11 3 14-3 2-10 2-13 0-3-1-3-9-3-11-2-1-4 2-8 3l-1 3c2 6 5 33 4 42 1 2 4 6 3 9 0 3-4 6-5 7-1 26-8 22-7 30a5 5 0 0 0 3 4l10 3c3 0 4-1 5-2v-5c3-10 12-9 16-4 2 3 3 7 1 10l-4 5c-2 2 0 3 2 4 5 0 6 2 9 4 2 0 11 3 13 9 2 0 4 2 5 4 4 5 3 7-4 5-3-1-6 0-8-2-4-1-7-2-9-4-3-2-3 4-15-4-1 2 2 10-3 12-7 5-15-1-14-8 0-5 5-5 5-8l-10-6-4-1h-4c-3 7-9 14-12 17-3 6-1 13 1 15h2l1-4c0-2 3-4 6-5 3 0 8 0 10 3l2 9c-1 4-7 5-7 10 1 1 0 2 2 2l4 1 4 8c3 7 5 7 8 17 2 3 4 1 4 8 0 4-5 7-10 2-2-1 1-3-2-4-4-5-7-5-10-8l-2-5a7 7 0 0 1-5-3c-2-2-2-4-2-5-2-2-2-6-5-5-1 2-4 10-8 9-4 1-9-2-11-6a10 10 0 0 1 2-10c1-1 6-2 6-4-1-3-2-5-5-6-2 1-15 12-21 15 0 4 4 12 7 12 1-1 2-3 5-4 4 0 6 1 9 4 2 1 3 3 3 6l-2 7c-1 3-5 3-9 3-1-1-1 2-1 3 1 0 7 0 8 5 1 3 0 8-1 10 2 1 3 2 3 4 1 1-1 13-1 15l-1 5c-4 2-12-9-16-11-3-3-2-3-3-10-4-7-2-10-2-11-2 0-6 2-12 1-4-1-10-3-9-7 1-15 7-12 12-12 0-2 1-9-1-10l1-2c3-2 4-8 4-14v-9c3 0 11-7 10-8s-5-6-6-5c-2 0-4 4-4 8l-2-6-1-4a5 5 0 0 0-2-3 7 7 0 0 0-5 0l-1 1-1 2a28 28 0 0 0 0 7 100 100 0 0 1 1 22c0 6-1 12-3 14l-19 7-1 15h5c1-1 4 2 6 3 3 2 2 4 3 7 1 2-2 10-5 11-2 2-5 0-7 1 1 1 4 2 4 5 1 4-4 7-5 11 2 4 2 6 4 7h8c3 1 5 1 5 3-2 6-7 3-9 5-1 1 2 0 3 6 1 3-3 5-3 8 1 4 1 7-1 9-2 3-9 0-12-2-4 0-7-4-8-7-2-5 4-6 2-8-2-3-11-1-13-4-4-2 0-6 6-6-3-9-5-7-6-10-1-4 0-8 1-9 2-3 7 7 6 3-1-2 4-9 2-9-3-2-4 0-6-2-5-2-7-5-7-10 0-2 2-3 3-4 2-6 5-8 8-8 0-3 2-10 0-11-7 3-22 4-29 3-2-1-3 0-4 1v-16a46 46 0 0 1 2-13v-1a19 19 0 0 0 0-4 8 8 0 0 0-1-2 3 3 0 0 0-2-2 8 8 0 0 0-4 0 6 6 0 0 0-3 2l-2 4v1l-1 9a115 115 0 0 0 0 15c0 4 0 11 5 11l4-1 1-1c1 3-2 10-2 13 2 1 6-3 10-1 8 2 8 10 6 14l-3 4c-14-1-14 0-12 8 1 1-1 2-1 3 0 2-3 3-3 6l1 1 1 9 2 1h7c3 0 4 0 5 2s1 3-1 4c-2 3-8 0-11 1l-6 7-1 8c1 2 3 2 2 5l-5 8c-2 2-3 1-5-1a21 21 0 0 1-4-7l2-6v-7l-6-7c-3-1-8 1-10-2-2-2 0-5 1-7a10 10 0 0 1 5-3c1-1 3-2 4 0 2 2-3 5 0 5l3-1v-9l2-1-3-6c0-5 4-8 3-12-2-4-4 1-7-2a34 34 0 0 1-5-7c-3-4-4-13 4-15 3-1 9 5 12 2l1-2v-9h-1c-13 1-32-4-42-7-2 1-5 10-4 13 3-1 8 2 8 5 2 1 9 3 9 10 0 5-2 7-7 9-2 1-7-2-10-1-2 1-2 5-3 8s-5 8-3 11c3 0 9-1 11 2s1 5-1 7c-2 3-10 2-12 4-3 2 0 6-2 11-1 3-1 9-4 11-3 3-5 2-7-1s-1-8-1-12-3-4-2-8c0-2 2-2 1-3-2-4-13-2-15-8-1-3 2-4 5-4 2-1 6 3 8 2 2-2 1-6 0-9-1-4-5-8-4-12 1-2 7 0 6-2l-7-6c-5-4-4-13 2-17 3-1 5 0 8 2 2 1 4 2 5 0l2-16a167 167 0 0 1-26-12c-2 0-7 3-7 5 4 4 9 5 10 11 1 2-1 8-3 9-13 7-15-6-21-4-3 3-9 13-16 18-4 2-10 4-13 2-4-2-3-8-2-12a44 44 0 0 1 9-13c2-3 10-5 10-5 1-3-5-5-6-7l-1-5c0-2 1-6 3-7 3-3 6-4 10-4 2 1 6 7 9 7 2 0 6-4 6-7-3-4-9-8-14-15-3-3-4-5-7-6-3 0-5 2-6 6l7 2c2 3 1 7 0 10-2 4-7 7-11 6-5 1-5-7-6-9-3-1-4 3-6 6-3 2-3 6-6 8l-6 1a26 26 0 0 1-12 8c-4 2-4 7-8 7-2 0-3-3-2-5l2-5c-2-8 3-11 8-17 2-3 2-6 5-8l8-1c2 0 4-3 4-4 2-3-6-3-6-8l1-9c1-2 4-3 6-3 3-1 5-2 7 0 3 2 2 8 5 9 2 1 7-5 7-7-7-6-13-18-17-27-2-5-1-7-3-10l-9 5c0 3 7 5 7 9 1 4-2 8-5 9-3 2-8 3-11 1-3-3-2-7-2-10-3 0-3 6-6 8l-10 5a51 51 0 0 1-13 4c-2 0-1-2-2-4v-8a36 36 0 0 1 10-15l9-3v-3c-3-3-6-8-3-12 1-2 7-4 9-4l5 3c2 2 0 6 2 6 4 0 10-3 15-7-2-2 0-46 1-46" style="fill:#e5c97c;fill-opacity:1;fill-rule:evenodd;stroke:none" transform="translate(537 445)"/><path d="M0 0v-16c4-2 11 3 14 8 3 4 5 10 3 11H3L0 2V0m-1 19L0 9h18c3 6-9 22-18 20l-1-10m-7 10c-3 0-6-2-8-4l-8-8-2-4a16 16 0 0 1-1-5h20c0 6 2 15-1 21m2-29c0 2-1 2-3 2h-17c0-4 2-8 5-11 4-5 9-8 15-7V0m-146 6v-18c5-1 12 5 15 10l2 10h-16c-1 0-2 0-1-2m-3 12c1-3 2-4 5-3h14c2 5-11 19-18 18l-1-15m-5-4c0 6 0 17-2 19-8 0-15-4-18-10a11 11 0 0 1-1-8c7-1 19-2 21-1m-1-10c0 3-1 3-4 4h-5l-11-1c-2-2 1-7 2-9 2-4 11-14 18-12V4m76 16V8c0-5-1-6-5-4-8 4-15 11-14 20 1 2 12 0 15 0 2 0 3-1 4-4m7 0v1l1 1 18-1c3 0-8-18-20-17l1 16m2 11v21c9 2 22-17 19-24h-11c-3 0-8 0-8 3m-7 0c-2-1-15-1-19 2-1 3 0 5 1 7 3 6 9 12 17 12 2-3 1-15 1-21m-75 16-4 1a2 2 0 0 0-1 1l4-2h1m-6 5c-2-1-2-5-2-7l1-3c4-1 10-1 14 1 1 3 2 8-1 9-1 1-2-2-4-3l2 2 1 1v2a51 51 0 0 0-2 10c7-1 13-8 13-14 0-7-2-7-4-9 8-4 20-15 20-31a33 33 0 0 0-33-31 32 32 0 0 0-10 63c-2 2-3 2-3 9 0 4 3 7 7 10l1-9m75 22v4l-4-3c-4-5-3-13-3-19-5-5-11-10-13-18A31 31 0 0 1-83-4c18 0 33 16 33 32 1 16-10 24-17 28 1 3 0 12-1 15-2 4-6 7-10 9l1-4v-5a7 7 0 0 0-2-3c3 2 1 8 3 7s3-14 2-16c-6 2-13 0-14 0-2-1-3 16-1 15M9 35c8-4 17-14 17-30 0-15-13-31-30-30-9 0-17 5-22 10-9 9-10 21-6 33 2 8 7 11 13 16-3 6-2 16 2 21 3 3 7 4 11 4l-1-5v1c-11-7-8-20-5-18 2 2 11 3 15 1 2 3 3 12 0 13-1 1-1-2-1-4v4h1l1 4 4-5c2-3 3-12 1-15" style="fill:#e5c97c;fill-opacity:1;fill-rule:evenodd;stroke:none" transform="translate(542 478)"/><path d="m0 0 12-9a28 28 0 0 0 6-19A34 34 0 0 0 7-50a32 32 0 0 0-23-10c-4 0-7 1-10 3a35 35 0 0 0-10 7 29 29 0 0 0-8 15 35 35 0 0 0 1 18c3 8 8 13 14 17v2c-1 6-1 13 3 17 1 2 2 3 4 3l-4-3c-4-4-3-12-3-17V0c-5-5-11-10-13-18-2-5-3-12-1-17a29 29 0 0 1 7-15l10-7 10-2a34 34 0 0 1 33 31 27 27 0 0 1-6 18C8-5 3-2-1 0l1 7a23 23 0 0 1-2 8 18 18 0 0 1-9 8v1a19 19 0 0 0 10-8A24 24 0 0 0 0 0m-79-15a42 42 0 0 0 15-13c3-5 5-11 5-18a32 32 0 0 0-10-22c-6-6-14-9-23-9a33 33 0 0 0-32 33 33 33 0 0 0 22 30l-1 1c-1 1-2 2-2 8 0 3 2 6 5 8l2 2-2-2a12 12 0 0 1-4-8c-1-5 0-6 2-8l1-1a31 31 0 0 1-22-30 32 32 0 0 1 31-33 32 32 0 0 1 22 9 32 32 0 0 1 11 22c0 7-2 12-5 17a41 41 0 0 1-15 14h-1 1l1 2c1 1 2 2 2 7v2l-4 8-8 4a15 15 0 0 0 8-4c3-2 5-5 5-8v-2c0-5-1-6-3-8l-1-1m156-6c4-2 9-6 12-12a32 32 0 0 0 4-17 34 34 0 0 0-9-23c-6-5-13-9-21-8a29 29 0 0 0-12 3c-4 2-8 4-10 7a29 29 0 0 0-8 15c-1 6-1 12 1 18 3 7 6 10 11 14l2 2a29 29 0 0 0-1 12l4 10 5 3 6 1V3l-6-1c-2 0-3-1-5-3a17 17 0 0 1-3-9c-1-4 0-8 1-12l-3-2a28 28 0 0 1-10-14c-2-6-2-12-1-18 1-5 3-10 7-14l11-8c3-2 7-3 11-3 8 0 15 3 20 9 6 6 9 14 10 22a32 32 0 0 1-17 29l1 7-2 8-4 5v1l4-6 2-8v-7" style="fill:#284985;fill-opacity:1;fill-rule:evenodd;stroke:none" transform="translate(475 533)"/><path d="M0 0v-18c5-1 12 5 15 10s4 9 2 10H2C0 2 0 2 0 0m-2 12c0-3 1-4 4-4l14 1c2 4-11 19-18 18V12m-6-4c0 5 0 16-2 19-8 0-15-5-18-11a11 11 0 0 1 0-8h20m75 6V1c0-4-1-5-5-3-8 4-14 11-14 20 1 1 12-1 15-1s4 0 4-3m7 0L73-3c12-1 23 17 20 18l-18 1-1-2zm2 10v21c9 3 22-16 19-23H84c-3 0-7-1-8 2m-7 1c0 5 1 18-1 20-8 0-14-6-17-11-1-3-2-4-1-7 4-4 17-3 19-2m83-31v-16c4-2 11 2 14 7s5 11 4 11h-16l-2-1v-1m-1 19 1-11h18v1c3 6-9 22-18 20l-1-10m-7 9-8-3-8-9-2-4a16 16 0 0 1-1-5l20 1c0 6 2 14-1 20m2-28c0 2-1 2-3 2-6 0-16 1-16-1-1-4 1-8 4-11 4-4 9-8 15-7v17M-9-2c0 3-1 3-4 3h-5c-5 0-10 1-11-1-1-1 1-6 2-8 2-4 11-14 18-12v18" style="fill:#284985;fill-opacity:1;fill-rule:evenodd;stroke:none" transform="translate(389 484)"/><path d="M0 0c-2 0-2-4-2-6 1-1 0-3 2-4 3-1 9-1 13 1 1 3 2 8-1 10-2 1-2-6-7-5-5 0-4 3-5 4m75 22c1-1 1-7 6-7 9-1 5 9 7 8s3-13 2-16c-6 2-13 1-14 0-2 0-4 16-1 15m82-19c-11-7-8-20-5-17 2 1 11 2 15 0 2 3 3 12 0 13-2 1 1-8-8-8-5 1-1 11-2 12" style="fill:#284985;fill-opacity:1;fill-rule:evenodd;stroke:none" transform="translate(378 529)"/><path d="M0 0c-2 0-2-4-2-6 1-1 0-3 2-4 3-1 9-1 13 1 1 3 2 8-1 10-2 1-2-6-7-5-5 0-4 3-5 4Zm75 22c1-1 1-7 6-7 9-1 5 9 7 8s3-13 2-16c-6 2-13 1-14 0-2 0-4 16-1 15Zm82-19c-11-7-8-20-5-17 2 1 11 2 15 0 2 3 3 12 0 13-2 1 1-8-8-8-5 0-1 11-2 12z" style="fill:none;stroke:#284985;stroke-width:.21600001;stroke-linecap:butt;stroke-linejoin:miter;stroke-miterlimit:22.9260006;stroke-dasharray:none;stroke-opacity:1" transform="translate(378 529)"/><path d="M0 0c-2 0-2-4-2-6 1-1 0-3 2-4 3-1 9-1 13 1 1 3 2 8-1 10-2 1-2-6-7-5-5 0-4 3-5 4m75 22c1-1 1-7 6-7 9-1 5 9 7 8s3-13 2-16c-6 2-13 1-14 0-2 0-4 16-1 15m82-19c-11-7-8-20-5-17 2 1 11 2 15 0 2 3 3 12 0 13-2 1 1-8-8-8-5 1-1 11-2 12" style="fill:#284985;fill-opacity:1;fill-rule:evenodd;stroke:none" transform="translate(378 529)"/><path d="M0 0c-2 0-2-4-2-6 1-1 0-3 2-4 3-1 9-1 13 1 1 3 2 8-1 10-2 1-2-6-7-5-5 0-4 3-5 4Zm75 22c1-1 1-7 6-7 9-1 5 9 7 8s3-13 2-16c-6 2-13 1-14 0-2 0-4 16-1 15Zm82-19c-11-7-8-20-5-17 2 1 11 2 15 0 2 3 3 12 0 13-2 1 1-8-8-8-5 0-1 11-2 12z" style="fill:none;stroke:#284985;stroke-width:.21600001;stroke-linecap:butt;stroke-linejoin:miter;stroke-miterlimit:22.9260006;stroke-dasharray:none;stroke-opacity:1" transform="translate(378 529)"/><path d="m0 0-3-2-1-5 1-5 4-7c1-2 3-2 5-2 2 1 3 2 3 4v7L5-1C4 0 2 1 0 0Zm-18 0a23 23 0 0 0 3 15c1 3 3 4 5 6a16 16 0 0 0 7 3l7 1a10 10 0 0 0 5-2 7 7 0 0 0 3-4l-1-5a7 7 0 0 0-4-3 9 9 0 0 0-4 0 5 5 0 0 0-3 4 9 9 0 0 0 0 4v1l-1 1h-2c-2-1-4-2-5-5V8l2-10 3 5 6 3h6l6-3c2-1 3-4 4-6l1-6-2-6-4-5a16 16 0 0 0-6-4 18 18 0 0 0-11 0c-4 1-6 3-9 6-2 3-4 6-4 10l-2 8m-44-17 14 1-1 17zm18 32 4 1 1-10 1-21h8v-5h-8l1-6 1-2h5l1-4-23-2-1 5h4c2 0 3 1 3 3l-1 5-17-1-1 5zm-54-4c-4 0-6-3-7-10 0-7 1-11 5-11 3 0 4 1 5 3l2 7c0 7-1 11-5 11m-18-11 1 7a18 18 0 0 0 5 5l5 2 6 1c4 0 7-2 10-4s5-5 6-8a25 25 0 0 0 0-16l-1-5-2-4a18 18 0 0 0-11-11h-8a13 13 0 0 0-6 1l-4 3a6 6 0 0 0-2 5l3 4 4 2 4-2 1-4-1-2-1-2 2-2 5 1 3 4 2 6 1 8v1l-4-4-6-2a14 14 0 0 0-6 3c-3 1-4 3-5 6a17 17 0 0 0-2 7m90 604-1 4-4 2 1 3 24-5-1-4h-6v-1l5-33 16 23 1 2v2l-1 2-2 2-3 1 1 3 20-5-1-3-5-1-5-5-26-35-5 1zm-31 22 2 3 4 2 2-1 2-2 1-3-2-4-4-1-2 1-2 2-1 3m-5-54 2 36v2l-4 1h-3v5l28-2v-5l-3 1-4-1-1-2-3-37v-1l2-1 3-1h3l-1-4-27 2v4h6l2 3zm-62 34a9 9 0 0 1-8 4v4l17 1 30-31-1 21-2 6-6 1v4l19 1 1-3-5-2-2-3v-5l2-38-4-1-36 38 1-27 3-6a10 10 0 0 1 6-1v-5l-20-1v4l4 1 2 2 1 5zm-49 7 2-3 4-1 2 2 1 2 1 3a6 6 0 0 1-3 3h-4l-3-2a5 5 0 0 1 0-4m-15-4 3-3 4-1c1 1 2 1 2 3 1 1 2 2 1 4l-1 2-3 1h-2c-2 0-3-1-3-2a4 4 0 0 1-1-4m4-45-7 27-1 2h-2l-5-1-1 4 26 7 1-4-3-1-3-1v-3l7-25 3-7 5-2h8c4 1 6 3 7 6s2 6 1 10l-6 20-2 5-3 1h-5l-1 3 20 6 1-4-4-2-2-3v-6l6-21 1-7a13 13 0 0 0-2-6l-5-5a44 44 0 0 0-7-3c-7-2-13-3-17-1-5 1-8 5-10 11m278-26 6-3c3-2 5-3 7-2 3 0 5 2 6 4 2 2 2 4 2 6l-3 6-2 1-1 1-4 1-2-1zm-22-9 21 29v3l-2 2-3 2 3 3 27-19a19 19 0 0 0 6-6c2-3 2-5 2-7l-2-7-3-2-5-2h-5l-7 3c2-2 4-4 4-6v-6l-2-6-2-4v-3h3l4 3 3-2c-3-3-5-5-8-5-4-1-6 0-9 2l-4 3-1 4 2 7 4 7c1 2 2 4 1 6 0 2-1 4-5 6l-2 1-10-14-1-2 3-3 3-2-3-3-22 16 2 3 4-3h2l2 2zm-50 25-2-2-4 1-2 1-2-4 44-19 8 16-3 2a55 55 0 0 0-7-6 11 11 0 0 0-7-2 25 25 0 0 0-9 3 54 54 0 0 0-4 1l-1 2a4 4 0 0 0 1 2l7 15 5-4 1-5-1-5 4-2 10 22-4 2-3-4a8 8 0 0 0-5-2l-4 1-2 1 6 13c1 2 2 2 3 2l4-1 7-4a20 20 0 0 0 3-5l1-5v-6l3-1 7 16-43 20-2-4 4-2 2-1v-3zm113-38c-4-3-5-7-5-11s1-7 3-11l5-10c3-3 3-6 2-7l-2-2-4-2h-4l-4 3a26 26 0 0 0-3 5l-2 5 1 7 2 8-2 3-14-14 2-3h6l3-7a26 26 0 0 1 4-6l5-5 7-2 5 1c3 0 4 1 6 3l1 1c3 3 5 6 5 10 0 3 0 6-2 9l-5 9-4 8 2 5c2 1 4 2 6 1a9 9 0 0 0 6-3c2-1 3-4 4-6v-7c0-3-1-7-3-10l3-2 12 13-2 2h-5c0 5-2 9-6 12-2 3-4 4-7 5-3 2-6 2-9 2l-7-4m70-81-35-16a3 3 0 0 0-2 0l-1 1-3 5-4-1 12-26 4 2-1 2-1 4 1 2 35 16c1 0 3 0 3-2l1-5a10 10 0 0 0-2-5l-4-4-4-3 2-3 17 9-20 42-18-7 2-3 7 1 7-1c2-1 4-2 5-5 1-1 0-2-1-3m-18-54 34 10 2 1 1 1v3l-1 3 4 1 13-45-18-5-1 3 5 4 3 4 2 5a23 23 0 0 1-3 12l-4 1-14-4v-2a9 9 0 0 1 3-4 10 10 0 0 1 4-2 11 11 0 0 1 5 0l1-3-23-7-1 3 5 3 2 4v6l-16-4-2-1v-2l1-3a20 20 0 0 1 4-9c1-2 3-3 6-4l8-2 1-3-18-4-13 46 5 1v-3l2-4h3m41-47c3 0 5 0 8-2 2-1 4-3 5-6a19 19 0 0 0 3-9c0-4-1-9-3-12l4-4v-3l-19-2v3l8 6 5 6 1 7-3 6a8 8 0 0 1-5 3c-2 0-4-2-5-3l-2-8-2-11-5-8c-2-3-5-4-10-4h-2l-6 1-4 3a20 20 0 0 0-4 6 22 22 0 0 0-1 7l1 7 3 7-5 4v3l20 2v-3l-7-4-5-6-3-5-1-5 2-5 3-3c1-1 3-2 4-1h3c1 1 3 3 4 7l2 11c1 4 2 8 5 10 2 3 6 5 11 5m26-60a5 5 0 0 0 3-1 6 6 0 0 0 1-4l-1-3a4 4 0 0 0-2-1l-2-1-4 2-1 4 1 2 2 2h3M147 455l30 21 1 2-2 4-1 2 4 2 16-22-4-3-2 3-2 2h-3l-30-22-1-1v-2l2-2 1-2-3-3-16 23 3 2 2-2 2-3 3 1m-489 9 11-16 8 12zm13-27-24 36 3 4 47-8a5 5 0 0 1 3 1 9 9 0 0 1 3 3l4-3-13-20-4 2 1 2 1 3-2 1-8 1-10-15a18 18 0 0 1 5-5c2-2 5 0 7 4l4-3-11-17-4 3c2 3 1 7-2 11m-56-45 35-13 2-1v-2l-2-5 5-1 9 24-4 2-2-4-1-2-2 1-10 3-4 8 19 3 3 1v-2l-1-4 4-2 9 24-4 1-1-2-1-1-2-1-31-6-4 8c-3 7-3 12-2 16l-3 2-9-22 4-2 2 5 2 1 2-2 11-22-19 7-1 2 1 4v1l-4 2-9-25 3-1 2 4 2 2 1-1m-13-65c-2-2-4-4-4-7l-4 1 3 17 37 21-21 4c-3 1-5 0-6-1l-3-5h-4l4 20h4l1-6 2-2 4-2 39-6-1-5-45-26 26-4c3-1 6-1 7 1l2 5 5-1-4-19-4 1v4l-2 3-4 1zm6-52 18-5-1 14zm139 277 4-18 12 7zm1-29-7 42 4 3 40-27 3-1 4 1 2-3-21-13-2 3 2 1 2 3-1 1-7 5-15-10 1-6c2-2 5-2 9 0l2-3-17-11-2 3c2 3 4 7 3 12m-45-19-10 11c-1 1-2 2-1 3 0 1 0 2 2 3l1 1 1 1c3 2 5 3 7 2 2 0 4-1 5-3 3-2 3-4 4-7l-4-7zm5-23v-1l1-2-1-2-3-3 3-3 20 18-3 3-2-2-3-2-2 1-12 13 2 2c2 3 5 4 7 4l5-3 6-5c2-2 4-4 6-4l5 1 3 2c3 3 4 5 5 9 0 2-1 6-4 9l-3-2 3-5v-3h-4l-3 3-6 3-6 2-6-2 4 5a12 12 0 0 1 0 10 17 17 0 0 1-2 4 12 12 0 0 1-5 3h-8l-8-4-24-23 3-3 2 2 3 2 2-1zm-74-219-40 14-1 6 43 21c2 0 2 1 3 2v4h4l2-24h-4l-1 2-1 3-2-1-7-3 1-18 7-1c3 0 4 2 3 7h5l1-20h-4c-1 3-4 6-9 8m564 18 36-3 3 1 1 4v2h4l-2-28-4 1v6l-2 2-37 2h-2l-1-1-1-3v-3h-4l2 28h4v-7l3-1zm-5 205-2-2-1-2 1-3 3-2 5 1 1 2 1 2-1 3-4 2-3-1M-158-13l8 26v3a5 5 0 0 1-3 1l-4 2 1 4 9-2 9 1h2l-11-37-1-4 1-2 3-1 4-1-1-4-27 8 1 3 4-1h3l1 1 1 3" style="fill:#284985;fill-opacity:1;fill-rule:evenodd;stroke:none" transform="translate(536 163)"/><path d="M0 0a250 250 0 0 0-271 54 250 250 0 0 0-55 272 251 251 0 0 0 136 135 250 250 0 0 0 271-54 248 248 0 0 0 54-271A251 251 0 0 0 1 0m168 231A262 262 0 0 0 91 45 265 265 0 0 0 5-13a264 264 0 0 0-200 0 265 265 0 0 0-143 143 264 264 0 0 0 0 201 265 265 0 0 0 143 143 264 264 0 0 0 200 0 265 265 0 0 0 143-143c13-32 20-66 20-100m54 142a349 349 0 0 0 8-265A350 350 0 0 0 48-86a346 346 0 0 0-381 63 349 349 0 0 0-79 111 348 348 0 0 0-8 265 350 350 0 0 0 182 195 346 346 0 0 0 380-64 349 349 0 0 0 80-111m21-269a360 360 0 0 1-9 275 363 363 0 0 1-341 213 360 360 0 0 1-251-114 360 360 0 0 1-67-396A363 363 0 0 1-84-130 360 360 0 0 1 168-16c33 34 58 75 75 120" style="fill:#e5c97c;fill-opacity:1;fill-rule:evenodd;stroke:none" transform="translate(549 223)"/><path d="m0 0 3 3v6c-2 5-3 19-2 28 0 2-3 4-6 4-5 0-5-8-5-12l1-23 3-5c2-2 6-1 6-1m-82 21 7 3c2 0 1 0 1-2-2-7-1-28 1-35v-2l-1-1a9 9 0 0 0-3-3h-5c-2 1-2 4-2 4-3 16-1 33 2 36M73-14l-1-7 2-3c3-1 7 1 7 4l1 4c3 4 3 28-2 33l-10 5c5-5 4-29 3-36" style="fill:#e5c97c;fill-opacity:1;fill-rule:evenodd;stroke:none" transform="translate(462 545)"/><path d="M0 0a3 3 0 0 0-2-1 8 8 0 0 0-3 0 6 6 0 0 0-3 1l-2 5h-1l-1 10a115 115 0 0 0 0 14c0 5 0 11 6 11l4-1c1-1 2-1 2-3l-1-16A46 46 0 0 1 1 7a19 19 0 0 0 0-5 8 8 0 0 0-1-2m-2-1 2 1 1 3v5l-2 12v16a4 4 0 0 1-2 3l-3 1c-5 0-5-7-5-11V15a37 37 0 0 1 1-10l2-4 3-2h3zm-74 23-7-3c-2-1-3-6-4-13 0-6 0-14 2-22l1-3 3-1h2l2 1 1 2a7 7 0 0 0 1 2v1a82 82 0 0 0-2 18c-1 7 0 14 1 17v2-1m-8-2 7 3h2v-1l-1-1a66 66 0 0 1-1-17l2-17 1-1-1-2-1-1-1-2a6 6 0 0 0-2-2h-2l-3 1c-2 1-2 4-2 4a92 92 0 0 0-1 22c0 7 1 13 3 14zM70-19l1 4a100 100 0 0 1 1 23c-1 6-2 11-4 13v1h1a45 45 0 0 0 10-5 51 51 0 0 0 2-34l-1-4v-1a5 5 0 0 0-3-3 7 7 0 0 0-5 0l-1 1-1 2v3m1 4a44 44 0 0 1 0-7v-2a2 2 0 0 1 1-1h1l4 1 2 2v1l1 4a50 50 0 0 1 2 19c0 6-2 12-4 14a45 45 0 0 1-9 5 33 33 0 0 0 3-13c1-9 0-19-1-23" style="fill:#284985;fill-opacity:1;fill-rule:evenodd;stroke:none" transform="translate(463 545)"/></g></svg>