<svg xmlns="http://www.w3.org/2000/svg" aria-label="Orcid" role="img" version="1.1" viewBox="0.79 51.26 510.85 401.95">
 <g transform="matrix(1.8847 0 0 1.8847 -226.47 142.44)">
  <path d="m210.18 163.64c-14.707-2.2926-31.751-9.0578-44.305-17.585-2.8482-1.9348-8.7317-6.9155-13.075-11.068-21.324-20.391-32.22-46.1-32.22-76.022 0-17.205 2.7096-29.835 9.5175-44.363 5.8047-12.387 10.213-18.754 20.167-29.132 13.999-14.594 31.147-24.495 51.284-29.609 11.441-2.9055 37.22-2.9624 48.711-0.1076 40.087 9.9595 70.882 41.824 79.154 81.902 1.9229 9.3165 2.1434 16.351 2.157 68.808l0.0151 58.431-36.249-0.63384-0.57539-10.345c-0.69065-12.418-1.4635-12.921-10.457-6.8047-8.8696 6.0316-21.846 11.745-32.623 14.363-10.811 2.6264-31.592 3.7112-41.501 2.1665zm37.596-39.57c11.397-3.9634 19.648-9.2846 27.823-17.943 23.762-25.167 25.535-62.553 4.2627-89.883-24.032-30.876-70.734-34.898-99.77-8.5916-9.161 8.2997-14.976 17.186-19.235 29.396-8.3593 23.965-2.0768 51.448 15.95 69.775 10.466 10.64 20.214 15.985 35.674 19.561 9.7042 2.2446 25.084 1.2359 35.294-2.3148z" fill="#0b0b0b" stroke-width="1.1508"></path>
  <ellipse cx="368.88" cy="-25.341" rx="22.749" ry="23.037" fill="#4b72e6" stroke-width=".91944"></ellipse>
 </g>
</svg>
