<?xml version="1.0" encoding="utf-8"?><!-- Uploaded to: SVG Repo, www.svgrepo.com, Generator: SVG Repo Mixer Tools -->
<svg width="800px" height="800px" viewBox="0 0 24 24" xmlns="http://www.w3.org/2000/svg">
  <path fill="#FF8300" fill-rule="evenodd" d="M12.1099561,17.3015551 C9.03598293,17.3015551 6.50849391,14.8423766 6.50849391,11.836714 C6.50849391,8.83105139 9.03598293,6.37187289 12.1099561,6.37187289 C15.1839292,6.37187289 17.7114182,8.83105139 17.7114182,11.836714 C17.7114182,14.8423766 15.1839292,17.3015551 12.1099561,17.3015551 L12.1099561,17.3015551 Z M12.1099561,2 C6.50849391,2 2,6.4401834 2,11.836714 C2,17.3015551 6.50849391,21.673428 12.1099561,21.673428 C14.4325135,21.673428 16.5501395,20.9220123 18.2579023,19.6241126 C19.28256,21.3318754 22.2199121,21.673428 22.2199121,21.673428 L22.2199121,11.836714 C22.2199121,6.4401834 17.7114182,2 12.1099561,2 L12.1099561,2 Z"/>
</svg>