<?xml version="1.0" encoding="UTF-8"?>
<!DOCTYPE svg PUBLIC "-//W3C//DTD SVG 1.1//EN" "http://www.w3.org/Graphics/SVG/1.1/DTD/svg11.dtd">
<svg xmlns="http://www.w3.org/2000/svg" version="1.1" width="500px" height="500px" style="shape-rendering:geometricPrecision; text-rendering:geometricPrecision; image-rendering:optimizeQuality; fill-rule:evenodd; clip-rule:evenodd" xmlns:xlink="http://www.w3.org/1999/xlink">
<g><path style="opacity:0.993" fill="#2b87d3" d="M -0.5,-0.5 C 166.167,-0.5 332.833,-0.5 499.5,-0.5C 499.5,166.167 499.5,332.833 499.5,499.5C 332.833,499.5 166.167,499.5 -0.5,499.5C -0.5,332.833 -0.5,166.167 -0.5,-0.5 Z M 62.5,62.5 C 187.167,62.5 311.833,62.5 436.5,62.5C 436.5,187.167 436.5,311.833 436.5,436.5C 311.833,436.5 187.167,436.5 62.5,436.5C 62.5,311.833 62.5,187.167 62.5,62.5 Z"/></g>
<g><path style="opacity:0.964" fill="#2b87d3" d="M 92.5,92.5 C 134.833,92.5 177.167,92.5 219.5,92.5C 219.5,113.833 219.5,135.167 219.5,156.5C 198.5,156.5 177.5,156.5 156.5,156.5C 156.5,177.5 156.5,198.5 156.5,219.5C 135.167,219.5 113.833,219.5 92.5,219.5C 92.5,177.167 92.5,134.833 92.5,92.5 Z"/></g>
<g><path style="opacity:0.964" fill="#2b87d3" d="M 279.5,92.5 C 321.833,92.5 364.167,92.5 406.5,92.5C 406.5,134.833 406.5,177.167 406.5,219.5C 385.167,219.5 363.833,219.5 342.5,219.5C 342.5,198.5 342.5,177.5 342.5,156.5C 321.5,156.5 300.5,156.5 279.5,156.5C 279.5,135.167 279.5,113.833 279.5,92.5 Z"/></g>
<g><path style="opacity:0.984" fill="#2b87d3" d="M 186.5,186.5 C 228.5,186.5 270.5,186.5 312.5,186.5C 312.5,228.5 312.5,270.5 312.5,312.5C 270.5,312.5 228.5,312.5 186.5,312.5C 186.5,270.5 186.5,228.5 186.5,186.5 Z"/></g>
<g><path style="opacity:0.964" fill="#2b87d3" d="M 92.5,279.5 C 113.833,279.5 135.167,279.5 156.5,279.5C 156.5,300.5 156.5,321.5 156.5,342.5C 177.5,342.5 198.5,342.5 219.5,342.5C 219.5,363.833 219.5,385.167 219.5,406.5C 177.167,406.5 134.833,406.5 92.5,406.5C 92.5,364.167 92.5,321.833 92.5,279.5 Z"/></g>
<g><path style="opacity:0.964" fill="#2b87d3" d="M 342.5,279.5 C 363.833,279.5 385.167,279.5 406.5,279.5C 406.5,321.833 406.5,364.167 406.5,406.5C 364.167,406.5 321.833,406.5 279.5,406.5C 279.5,385.167 279.5,363.833 279.5,342.5C 300.5,342.5 321.5,342.5 342.5,342.5C 342.5,321.5 342.5,300.5 342.5,279.5 Z"/></g>
</svg>
