<?xml version="1.0" standalone="no"?>
<!DOCTYPE svg PUBLIC "-//W3C//DTD SVG 20010904//EN"
 "http://www.w3.org/TR/2001/REC-SVG-20010904/DTD/svg10.dtd">
<svg version="1.0" xmlns="http://www.w3.org/2000/svg"
 width="537.000000pt" height="537.000000pt" viewBox="0 0 537.000000 537.000000"
 preserveAspectRatio="xMidYMid meet">

<g transform="translate(0.000000,537.000000) scale(0.100000,-0.100000)"
fill="#000000" stroke="none">
<path d="M2490 5364 c-19 -2 -78 -9 -130 -15 -219 -25 -457 -86 -675 -174
-349 -140 -623 -322 -896 -594 -432 -433 -683 -945 -770 -1571 -18 -125 -18
-525 0 -650 34 -245 91 -463 176 -675 140 -349 322 -623 594 -896 433 -432
945 -683 1571 -770 125 -18 525 -18 650 0 245 34 463 91 675 176 349 140 623
322 896 594 432 433 683 945 770 1571 8 56 14 189 14 325 0 297 -25 479 -102
745 -127 442 -351 819 -682 1151 -425 424 -928 675 -1535 765 -96 14 -481 27
-556 18z m-833 -1136 c25 -10 11 -13 -111 -24 -217 -20 -348 -69 -449 -169
-267 -262 -169 -752 266 -1335 81 -108 527 -564 658 -674 611 -507 1296 -850
1859 -932 157 -22 384 -15 490 16 207 60 338 192 380 380 21 95 21 96 32 76
16 -29 -10 -150 -50 -229 -50 -101 -125 -174 -235 -226 -541 -262 -1639 130
-2578 922 l-68 57 -189 0 -189 0 -38 -105 c-29 -82 -42 -106 -59 -110 -11 -3
-106 -4 -211 -3 l-190 3 1 25 c1 14 70 192 154 395 84 204 154 377 157 386 2
8 -33 71 -79 140 -151 226 -263 473 -303 666 -31 149 -18 312 36 431 73 167
253 280 492 311 95 13 193 12 224 -1z m278 -122 c378 -81 818 -271 1210 -524
229 -148 231 -173 3 -36 -378 227 -745 379 -1033 429 -132 23 -338 24 -422 2
-132 -35 -225 -105 -271 -205 -38 -82 -42 -209 -12 -335 24 -105 72 -233 85
-230 4 1 22 37 38 80 16 43 34 84 40 91 7 9 58 12 192 12 161 0 184 -2 197
-17 8 -10 115 -271 239 -580 123 -310 225 -556 227 -548 2 9 -37 183 -87 388
-50 204 -111 453 -135 552 -30 125 -41 184 -34 193 15 18 331 17 347 -1 6 -8
17 -45 25 -83 8 -38 44 -195 80 -349 35 -155 70 -311 76 -348 14 -77 30 -84
43 -16 5 24 51 202 103 396 52 193 94 358 94 366 0 39 26 47 163 47 73 0 138
-4 145 -8 10 -7 195 -680 226 -824 9 -39 23 -35 30 10 16 93 180 798 189 810
12 15 342 18 352 2 8 -12 -343 -1480 -357 -1498 -17 -20 -338 -13 -349 8 -6
12 -189 671 -217 783 -4 16 -11 28 -16 28 -6 0 -22 -46 -36 -103 -57 -223
-193 -704 -203 -716 -6 -8 -21 -10 -42 -6 -68 12 -40 -16 93 -94 384 -224 696
-354 995 -414 149 -30 391 -32 482 -4 171 52 254 145 274 310 3 28 11 50 16
49 17 -5 17 -147 0 -215 -98 -380 -560 -467 -1235 -233 -318 111 -643 280
-1012 527 -311 208 -551 413 -807 691 -184 200 -208 230 -311 392 -157 246
-241 427 -281 605 -65 293 43 516 295 607 141 51 387 54 601 9z"/>
<path d="M1750 2835 c-9 -24 -7 -33 16 -66 56 -81 69 -73 33 21 -27 72 -36 80
-49 45z"/>
</g>
</svg>
