<?xml version="1.0" standalone="no"?><!DOCTYPE svg PUBLIC "-//W3C//DTD SVG 1.1//EN" "http://www.w3.org/Graphics/SVG/1.1/DTD/svg11.dtd"><svg t="1727340333809" class="icon" viewBox="0 0 1024 1024" version="1.1" xmlns="http://www.w3.org/2000/svg" p-id="8815" xmlns:xlink="http://www.w3.org/1999/xlink" width="200" height="200"><path d="M245.824 651.52V459.776c0-37.44-18.56-72.512-51.2-91.264L64.32 291.328v465.472c0 11.712 6.976 23.36 16.256 28.096l400.32 233.856v-152c0-37.44-18.624-72.512-51.2-91.264L262.144 679.68c-9.344-7.04-16.32-16.384-16.32-28.096" fill="#008DD5" p-id="8816"></path><path d="M760.192 679.616l-167.616 98.24c-32.576 18.688-51.2 53.76-51.2 91.2v152.064l400.32-233.92a32.448 32.448 0 0 0 16.256-28.032v-467.84l-130.304 74.88c-32.576 18.688-51.2 53.76-51.2 91.2v191.808c0 14.08-6.976 23.36-16.256 30.4" fill="#EE3306" p-id="8817"></path><path d="M701.952 101.888L534.4 3.648a39.552 39.552 0 0 0-32.576 0L101.568 237.568l130.304 74.88c32.64 18.688 72.128 18.688 102.4 0l167.552-98.304c2.368-2.304 4.672-2.304 7.04-2.304a32.832 32.832 0 0 1 25.6 2.304l167.488 98.24c32.64 18.752 72.192 18.752 102.4 0l130.368-74.88-232.768-135.616z" fill="#5AB200" p-id="8818"></path></svg>