<svg id="svg" xmlns="http://www.w3.org/2000/svg" xmlns:xlink="http://www.w3.org/1999/xlink" width="400" height="400" viewBox="0, 0, 400,400" version="1.1"><g id="svgg"><path id="path0" d="M120.000 49.179 C 99.865 51.655,84.217 67.053,80.992 87.565 C 80.270 92.159,80.098 228.720,80.802 238.577 C 84.422 289.270,119.099 333.100,165.800 346.013 C 189.598 352.593,210.402 352.593,234.200 346.013 C 275.665 334.548,310.662 295.285,317.552 252.502 C 318.625 245.835,318.804 244.291,319.238 237.914 C 320.075 225.621,318.625 212.760,314.807 198.600 C 299.518 141.900,239.311 103.605,181.200 113.617 C 179.990 113.826,177.560 114.292,175.800 114.653 C 174.040 115.013,172.105 115.395,171.500 115.500 L 170.400 115.691 170.393 102.745 C 170.383 86.310,169.664 81.734,165.909 74.200 C 157.312 56.957,138.800 46.867,120.000 49.179 M131.600 67.766 C 141.340 70.144,148.487 77.102,151.515 87.153 C 152.136 89.217,152.210 95.477,152.421 163.800 C 152.548 204.720,152.788 238.740,152.955 239.400 C 153.122 240.060,153.524 241.728,153.849 243.106 C 162.556 280.027,210.959 291.649,235.870 262.800 C 262.610 231.833,240.881 184.250,200.000 184.250 C 188.873 184.250,181.760 186.523,171.500 193.359 L 170.400 194.092 170.400 183.620 L 170.400 173.148 173.300 171.813 C 190.097 164.080,210.822 164.306,227.904 172.408 C 266.429 190.681,277.700 240.224,250.788 273.000 C 218.427 312.411,155.281 301.529,138.211 253.600 C 134.273 242.542,134.407 245.718,134.403 163.484 C 134.400 83.206,134.649 90.358,131.749 87.458 C 127.106 82.815,118.754 84.834,116.892 91.049 C 116.093 93.718,116.203 233.616,117.010 240.400 C 120.291 267.973,135.314 290.894,158.800 304.159 C 197.124 325.805,244.955 314.391,269.517 277.737 C 300.575 231.388,277.479 167.525,223.896 151.587 C 215.267 149.020,209.769 148.253,200.000 148.253 C 189.997 148.253,184.525 149.042,175.441 151.796 C 172.894 152.568,170.717 153.200,170.605 153.200 C 170.492 153.200,170.400 149.056,170.400 143.990 L 170.400 134.780 171.500 134.343 C 172.707 133.863,174.342 133.422,177.400 132.751 C 250.292 116.760,314.510 180.299,299.134 253.200 C 298.200 257.627,298.143 257.829,295.965 264.400 C 279.080 315.339,223.389 344.197,171.405 328.945 C 139.967 319.721,114.185 295.020,104.035 264.400 C 100.865 254.836,99.757 249.469,98.801 239.031 C 98.225 232.750,98.261 95.764,98.840 91.000 C 100.793 74.921,116.187 64.002,131.600 67.766 M208.400 203.208 C 230.515 210.348,236.946 237.551,220.197 253.111 C 201.188 270.772,170.400 257.472,170.400 231.600 C 170.400 212.034,190.114 197.304,208.400 203.208 " stroke="none" fill="#fafbfa" fill-rule="evenodd"></path><path id="path1" d="M82.800 0.294 C 81.151 0.374,79.630 0.610,79.420 0.820 C 79.211 1.029,77.906 1.200,76.520 1.200 C 75.107 1.200,74.000 1.376,74.000 1.600 C 74.000 1.822,72.933 2.000,71.600 2.000 C 70.267 2.000,69.200 2.178,69.200 2.400 C 69.200 2.620,68.480 2.800,67.600 2.800 C 66.720 2.800,66.000 2.980,66.000 3.200 C 66.000 3.420,65.280 3.600,64.400 3.600 C 63.520 3.600,62.800 3.780,62.800 4.000 C 62.800 4.220,62.181 4.400,61.424 4.400 C 60.667 4.400,59.936 4.580,59.800 4.800 C 59.664 5.020,59.113 5.200,58.576 5.200 C 58.039 5.200,57.600 5.380,57.600 5.600 C 57.600 5.820,57.251 6.000,56.824 6.000 C 56.397 6.000,55.936 6.180,55.800 6.400 C 55.664 6.620,55.113 6.800,54.576 6.800 C 54.039 6.800,53.600 6.980,53.600 7.200 C 53.600 7.420,53.240 7.600,52.800 7.600 C 52.360 7.600,52.000 7.780,52.000 8.000 C 52.000 8.220,51.540 8.400,50.978 8.400 C 49.959 8.400,45.541 10.395,44.400 11.371 C 44.070 11.653,43.215 12.134,42.500 12.439 C 41.785 12.745,41.200 13.131,41.200 13.298 C 41.200 13.464,40.964 13.600,40.675 13.600 C 40.387 13.600,39.764 13.960,39.292 14.400 C 38.820 14.840,38.196 15.200,37.905 15.200 C 37.614 15.200,37.117 15.560,36.800 16.000 C 36.483 16.440,35.979 16.800,35.680 16.800 C 35.382 16.800,34.446 17.520,33.600 18.400 C 32.754 19.280,31.875 20.000,31.645 20.000 C 31.100 20.000,20.000 31.100,20.000 31.645 C 20.000 31.875,19.280 32.754,18.400 33.600 C 17.520 34.446,16.800 35.382,16.800 35.680 C 16.800 35.979,16.440 36.483,16.000 36.800 C 15.560 37.117,15.200 37.697,15.200 38.088 C 15.200 38.480,15.042 38.800,14.849 38.800 C 14.655 38.800,14.273 39.340,14.000 40.000 C 13.727 40.660,13.389 41.200,13.249 41.200 C 13.110 41.200,12.739 41.779,12.426 42.486 C 12.113 43.193,11.362 44.505,10.757 45.401 C 10.153 46.297,9.535 47.520,9.385 48.119 C 9.234 48.718,8.951 49.306,8.756 49.427 C 8.560 49.548,8.400 50.177,8.400 50.824 C 8.400 51.471,8.220 52.000,8.000 52.000 C 7.780 52.000,7.600 52.360,7.600 52.800 C 7.600 53.240,7.420 53.600,7.200 53.600 C 6.980 53.600,6.800 54.039,6.800 54.576 C 6.800 55.113,6.620 55.664,6.400 55.800 C 6.180 55.936,6.000 56.397,6.000 56.824 C 6.000 57.251,5.820 57.600,5.600 57.600 C 5.380 57.600,5.200 58.039,5.200 58.576 C 5.200 59.113,5.020 59.664,4.800 59.800 C 4.580 59.936,4.400 60.667,4.400 61.424 C 4.400 62.181,4.220 62.800,4.000 62.800 C 3.780 62.800,3.600 63.520,3.600 64.400 C 3.600 65.280,3.420 66.000,3.200 66.000 C 2.980 66.000,2.800 66.720,2.800 67.600 C 2.800 68.480,2.620 69.200,2.400 69.200 C 2.178 69.200,2.000 70.267,2.000 71.600 C 2.000 72.933,1.822 74.000,1.600 74.000 C 1.376 74.000,1.200 75.107,1.200 76.520 C 1.200 78.003,0.994 79.246,0.700 79.540 C -0.035 80.275,-0.035 319.725,0.700 320.460 C 0.994 320.754,1.200 321.997,1.200 323.480 C 1.200 324.893,1.376 326.000,1.600 326.000 C 1.822 326.000,2.000 327.067,2.000 328.400 C 2.000 329.733,2.178 330.800,2.400 330.800 C 2.620 330.800,2.800 331.520,2.800 332.400 C 2.800 333.280,2.980 334.000,3.200 334.000 C 3.420 334.000,3.600 334.720,3.600 335.600 C 3.600 336.480,3.780 337.200,4.000 337.200 C 4.220 337.200,4.400 337.819,4.400 338.576 C 4.400 339.333,4.580 340.064,4.800 340.200 C 5.020 340.336,5.200 340.887,5.200 341.424 C 5.200 341.961,5.380 342.400,5.600 342.400 C 5.820 342.400,6.000 342.749,6.000 343.176 C 6.000 343.603,6.180 344.064,6.400 344.200 C 6.620 344.336,6.800 344.887,6.800 345.424 C 6.800 345.961,6.980 346.400,7.200 346.400 C 7.420 346.400,7.600 346.760,7.600 347.200 C 7.600 347.640,7.780 348.000,8.000 348.000 C 8.220 348.000,8.400 348.529,8.400 349.176 C 8.400 349.823,8.560 350.452,8.756 350.573 C 8.951 350.694,9.234 351.282,9.385 351.881 C 9.535 352.480,10.153 353.703,10.757 354.599 C 11.362 355.495,12.113 356.807,12.426 357.514 C 12.739 358.221,13.110 358.800,13.249 358.800 C 13.389 358.800,13.727 359.340,14.000 360.000 C 14.273 360.660,14.655 361.200,14.849 361.200 C 15.042 361.200,15.200 361.520,15.200 361.912 C 15.200 362.303,15.560 362.883,16.000 363.200 C 16.440 363.517,16.800 364.021,16.800 364.320 C 16.800 364.618,17.520 365.554,18.400 366.400 C 19.280 367.246,20.000 368.125,20.000 368.355 C 20.000 368.900,31.100 380.000,31.645 380.000 C 31.875 380.000,32.754 380.720,33.600 381.600 C 34.446 382.480,35.382 383.200,35.680 383.200 C 35.979 383.200,36.483 383.560,36.800 384.000 C 37.117 384.440,37.614 384.800,37.905 384.800 C 38.196 384.800,38.820 385.160,39.292 385.600 C 39.764 386.040,40.387 386.400,40.675 386.400 C 40.964 386.400,41.200 386.536,41.200 386.702 C 41.200 386.869,41.785 387.255,42.500 387.561 C 43.215 387.866,44.070 388.347,44.400 388.629 C 45.541 389.605,49.959 391.600,50.978 391.600 C 51.540 391.600,52.000 391.780,52.000 392.000 C 52.000 392.220,52.360 392.400,52.800 392.400 C 53.240 392.400,53.600 392.580,53.600 392.800 C 53.600 393.020,54.039 393.200,54.576 393.200 C 55.113 393.200,55.664 393.380,55.800 393.600 C 55.936 393.820,56.397 394.000,56.824 394.000 C 57.251 394.000,57.600 394.180,57.600 394.400 C 57.600 394.620,58.039 394.800,58.576 394.800 C 59.113 394.800,59.664 394.980,59.800 395.200 C 59.936 395.420,60.667 395.600,61.424 395.600 C 62.181 395.600,62.800 395.780,62.800 396.000 C 62.800 396.220,63.520 396.400,64.400 396.400 C 65.280 396.400,66.000 396.580,66.000 396.800 C 66.000 397.020,66.720 397.200,67.600 397.200 C 68.480 397.200,69.200 397.380,69.200 397.600 C 69.200 397.822,70.267 398.000,71.600 398.000 C 72.933 398.000,74.000 398.178,74.000 398.400 C 74.000 398.624,75.107 398.800,76.520 398.800 C 78.003 398.800,79.246 399.006,79.540 399.300 C 80.275 400.035,319.725 400.035,320.460 399.300 C 320.754 399.006,321.997 398.800,323.480 398.800 C 324.893 398.800,326.000 398.624,326.000 398.400 C 326.000 398.178,327.067 398.000,328.400 398.000 C 329.733 398.000,330.800 397.822,330.800 397.600 C 330.800 397.380,331.520 397.200,332.400 397.200 C 333.280 397.200,334.000 397.020,334.000 396.800 C 334.000 396.580,334.720 396.400,335.600 396.400 C 336.480 396.400,337.200 396.220,337.200 396.000 C 337.200 395.780,337.819 395.600,338.576 395.600 C 339.333 395.600,340.064 395.420,340.200 395.200 C 340.336 394.980,340.887 394.800,341.424 394.800 C 341.961 394.800,342.400 394.620,342.400 394.400 C 342.400 394.180,342.749 394.000,343.176 394.000 C 343.603 394.000,344.064 393.820,344.200 393.600 C 344.336 393.380,344.887 393.200,345.424 393.200 C 345.961 393.200,346.400 393.020,346.400 392.800 C 346.400 392.580,346.760 392.400,347.200 392.400 C 347.640 392.400,348.000 392.220,348.000 392.000 C 348.000 391.780,348.460 391.600,349.022 391.600 C 350.041 391.600,354.459 389.605,355.600 388.629 C 355.930 388.347,356.785 387.866,357.500 387.561 C 358.215 387.255,358.800 386.869,358.800 386.702 C 358.800 386.536,359.036 386.400,359.325 386.400 C 359.613 386.400,360.236 386.040,360.708 385.600 C 361.180 385.160,361.804 384.800,362.095 384.800 C 362.386 384.800,362.883 384.440,363.200 384.000 C 363.517 383.560,364.021 383.200,364.320 383.200 C 364.618 383.200,365.554 382.480,366.400 381.600 C 367.246 380.720,368.125 380.000,368.355 380.000 C 368.900 380.000,380.000 368.900,380.000 368.355 C 380.000 368.125,380.720 367.246,381.600 366.400 C 382.480 365.554,383.200 364.618,383.200 364.320 C 383.200 364.021,383.560 363.517,384.000 363.200 C 384.440 362.883,384.800 362.303,384.800 361.912 C 384.800 361.520,384.958 361.200,385.151 361.200 C 385.345 361.200,385.727 360.660,386.000 360.000 C 386.273 359.340,386.611 358.800,386.751 358.800 C 386.890 358.800,387.261 358.221,387.574 357.514 C 387.887 356.807,388.638 355.495,389.243 354.599 C 389.847 353.703,390.465 352.480,390.615 351.881 C 390.766 351.282,391.049 350.694,391.244 350.573 C 391.440 350.452,391.600 349.823,391.600 349.176 C 391.600 348.529,391.780 348.000,392.000 348.000 C 392.220 348.000,392.400 347.640,392.400 347.200 C 392.400 346.760,392.580 346.400,392.800 346.400 C 393.020 346.400,393.200 345.961,393.200 345.424 C 393.200 344.887,393.380 344.336,393.600 344.200 C 393.820 344.064,394.000 343.603,394.000 343.176 C 394.000 342.749,394.180 342.400,394.400 342.400 C 394.620 342.400,394.800 341.961,394.800 341.424 C 394.800 340.887,394.980 340.336,395.200 340.200 C 395.420 340.064,395.600 339.333,395.600 338.576 C 395.600 337.819,395.780 337.200,396.000 337.200 C 396.220 337.200,396.400 336.480,396.400 335.600 C 396.400 334.720,396.580 334.000,396.800 334.000 C 397.020 334.000,397.200 333.280,397.200 332.400 C 397.200 331.520,397.380 330.800,397.600 330.800 C 397.822 330.800,398.000 329.733,398.000 328.400 C 398.000 327.067,398.178 326.000,398.400 326.000 C 398.624 326.000,398.800 324.893,398.800 323.480 C 398.800 321.997,399.006 320.754,399.300 320.460 C 399.698 320.062,399.800 295.435,399.800 200.000 C 399.800 104.565,399.698 79.938,399.300 79.540 C 399.006 79.246,398.800 78.003,398.800 76.520 C 398.800 75.107,398.624 74.000,398.400 74.000 C 398.178 74.000,398.000 72.933,398.000 71.600 C 398.000 70.267,397.822 69.200,397.600 69.200 C 397.380 69.200,397.200 68.480,397.200 67.600 C 397.200 66.720,397.020 66.000,396.800 66.000 C 396.580 66.000,396.400 65.280,396.400 64.400 C 396.400 63.520,396.220 62.800,396.000 62.800 C 395.780 62.800,395.600 62.181,395.600 61.424 C 395.600 60.667,395.420 59.936,395.200 59.800 C 394.980 59.664,394.800 59.113,394.800 58.576 C 394.800 58.039,394.620 57.600,394.400 57.600 C 394.180 57.600,394.000 57.251,394.000 56.824 C 394.000 56.397,393.820 55.936,393.600 55.800 C 393.380 55.664,393.200 55.113,393.200 54.576 C 393.200 54.039,393.020 53.600,392.800 53.600 C 392.580 53.600,392.400 53.240,392.400 52.800 C 392.400 52.360,392.220 52.000,392.000 52.000 C 391.780 52.000,391.600 51.471,391.600 50.824 C 391.600 50.177,391.440 49.548,391.244 49.427 C 391.049 49.306,390.766 48.718,390.615 48.119 C 390.465 47.520,389.847 46.297,389.243 45.401 C 388.638 44.505,387.887 43.193,387.574 42.486 C 387.261 41.779,386.890 41.200,386.751 41.200 C 386.611 41.200,386.273 40.660,386.000 40.000 C 385.727 39.340,385.345 38.800,385.151 38.800 C 384.958 38.800,384.800 38.480,384.800 38.088 C 384.800 37.697,384.440 37.117,384.000 36.800 C 383.560 36.483,383.200 35.979,383.200 35.680 C 383.200 35.382,382.480 34.446,381.600 33.600 C 380.720 32.754,380.000 31.875,380.000 31.645 C 380.000 31.100,368.900 20.000,368.355 20.000 C 368.125 20.000,367.246 19.280,366.400 18.400 C 365.554 17.520,364.618 16.800,364.320 16.800 C 364.021 16.800,363.517 16.440,363.200 16.000 C 362.883 15.560,362.386 15.200,362.095 15.200 C 361.804 15.200,361.180 14.840,360.708 14.400 C 360.236 13.960,359.613 13.600,359.325 13.600 C 359.036 13.600,358.800 13.464,358.800 13.298 C 358.800 13.131,358.215 12.745,357.500 12.439 C 356.785 12.134,355.930 11.653,355.600 11.371 C 354.459 10.395,350.041 8.400,349.022 8.400 C 348.460 8.400,348.000 8.220,348.000 8.000 C 348.000 7.780,347.640 7.600,347.200 7.600 C 346.760 7.600,346.400 7.420,346.400 7.200 C 346.400 6.980,345.961 6.800,345.424 6.800 C 344.887 6.800,344.336 6.620,344.200 6.400 C 344.064 6.180,343.603 6.000,343.176 6.000 C 342.749 6.000,342.400 5.820,342.400 5.600 C 342.400 5.380,341.961 5.200,341.424 5.200 C 340.887 5.200,340.336 5.020,340.200 4.800 C 340.064 4.580,339.333 4.400,338.576 4.400 C 337.819 4.400,337.200 4.220,337.200 4.000 C 337.200 3.780,336.480 3.600,335.600 3.600 C 334.720 3.600,334.000 3.420,334.000 3.200 C 334.000 2.980,333.280 2.800,332.400 2.800 C 331.520 2.800,330.800 2.620,330.800 2.400 C 330.800 2.178,329.733 2.000,328.400 2.000 C 327.067 2.000,326.000 1.822,326.000 1.600 C 326.000 1.376,324.893 1.200,323.480 1.200 C 321.997 1.200,320.754 0.994,320.460 0.700 C 319.993 0.233,92.121 -0.156,82.800 0.294 M134.437 49.758 C 148.106 52.650,159.626 61.597,165.909 74.200 C 169.664 81.734,170.383 86.310,170.393 102.745 L 170.400 115.691 171.500 115.500 C 172.105 115.395,174.040 115.013,175.800 114.653 C 236.815 102.143,298.909 139.642,314.807 198.600 C 318.625 212.760,320.075 225.621,319.238 237.914 C 318.804 244.291,318.625 245.835,317.552 252.502 C 310.662 295.285,275.665 334.548,234.200 346.013 C 210.402 352.593,189.598 352.593,165.800 346.013 C 119.099 333.100,84.422 289.270,80.802 238.577 C 80.098 228.720,80.270 92.159,80.992 87.565 C 85.065 61.662,109.386 44.457,134.437 49.758 M118.272 68.035 C 107.640 71.066,100.192 79.869,98.840 91.000 C 98.261 95.764,98.225 232.750,98.801 239.031 C 99.757 249.469,100.865 254.836,104.035 264.400 C 114.185 295.020,139.967 319.721,171.405 328.945 C 223.389 344.197,279.080 315.339,295.965 264.400 C 298.143 257.829,298.200 257.627,299.134 253.200 C 314.510 180.299,250.292 116.760,177.400 132.751 C 174.342 133.422,172.707 133.863,171.500 134.343 L 170.400 134.780 170.400 143.990 C 170.400 149.056,170.492 153.200,170.605 153.200 C 170.717 153.200,172.894 152.568,175.441 151.796 C 184.525 149.042,189.997 148.253,200.000 148.253 C 235.556 148.253,266.504 169.955,278.599 203.371 C 291.217 238.228,279.204 276.912,248.790 299.354 C 213.530 325.373,162.812 318.369,134.716 283.600 C 124.896 271.447,118.990 257.037,117.010 240.400 C 116.203 233.616,116.093 93.718,116.892 91.049 C 118.754 84.834,127.106 82.815,131.749 87.458 C 134.649 90.358,134.400 83.206,134.403 163.484 C 134.406 224.702,134.494 236.055,134.998 239.800 C 139.483 273.149,166.557 296.955,200.000 296.955 C 249.283 296.955,280.663 245.501,258.154 201.600 C 242.408 170.890,204.337 157.525,173.300 171.813 L 170.400 173.148 170.400 183.620 L 170.400 194.092 171.500 193.359 C 188.836 181.808,207.914 180.892,224.427 190.816 C 256.254 209.945,254.912 256.427,222.033 273.736 C 195.023 287.955,160.801 272.582,153.849 243.106 C 153.524 241.728,153.122 240.060,152.955 239.400 C 152.788 238.740,152.548 204.720,152.421 163.800 C 152.169 82.062,152.364 88.185,149.836 82.753 C 144.270 70.798,130.728 64.483,118.272 68.035 M195.000 202.379 C 171.056 206.389,162.012 236.582,179.803 253.111 C 198.812 270.772,229.600 257.472,229.600 231.600 C 229.600 213.432,212.952 199.372,195.000 202.379 " stroke="none" fill="#1cbd2c" fill-rule="evenodd"></path></g></svg>