<?xml version="1.0" encoding="UTF-8" standalone="no"?>
<svg width="110px" height="38px" viewBox="0 0 110 38" version="1.1" xmlns="http://www.w3.org/2000/svg" xmlns:xlink="http://www.w3.org/1999/xlink">
    <!-- Generator: Sketch 50.2 (55047) - http://www.bohemiancoding.com/sketch -->
    <title>Group 2</title>
    <desc>Created with Sketch.</desc>
    <defs></defs>
    <g id="Symbols" stroke="none" stroke-width="1" fill="none" fill-rule="evenodd">
        <g id="Navbar-Light-V2" transform="translate(-63.000000, -21.000000)">
            <g id="Group-2" transform="translate(63.000000, 21.000000)">
                <path d="M7.14851485,0 L27.0891089,0 C33.1150277,-1.10694332e-15 38,4.88497233 38,10.9108911 C38,10.9289854 38,10.9470798 38,10.9651741 C38,16.1030327 34.5970149,17.8007816 34.5970149,19 C34.5970149,20.1992184 38,21.8969673 38,27.0348259 C38,27.0529202 38,27.0710146 38,27.0891089 C38,33.1150277 33.1150277,38 27.0891089,38 L7.14851485,38 C3.20049912,38 4.60406833e-16,34.7995009 -1.77635684e-15,30.8514851 L-8.8817842e-16,7.14851485 C-1.3716709e-15,3.20049912 3.20049912,-1.62939695e-16 7.14851485,-8.8817842e-16 Z M9.5,7.80357143 C8.56308837,7.80357143 7.80357143,8.56308837 7.80357143,9.5 L7.80357143,28.5 C7.80357143,29.4369116 8.56308837,30.1964286 9.5,30.1964286 L27.3803574,30.1964286 C28.317269,30.1964286 29.076786,29.4369116 29.076786,28.5 L29.076786,9.5 C29.076786,8.56308837 28.317269,7.80357143 27.3803574,7.80357143 L9.5,7.80357143 Z M12.8928571,13.2321429 L23.9705362,13.2321429 C24.5326832,13.2321429 24.9883934,13.687853 24.9883934,14.25 C24.9883934,14.812147 24.5326832,15.2678571 23.9705362,15.2678571 L12.8928571,15.2678571 C12.3307102,15.2678571 11.875,14.812147 11.875,14.25 C11.875,13.687853 12.3307102,13.2321429 12.8928571,13.2321429 Z M12.8928571,17.9821429 L23.9705362,17.9821429 C24.5326832,17.9821429 24.9883934,18.437853 24.9883934,19 C24.9883934,19.562147 24.5326832,20.0178571 23.9705362,20.0178571 L12.8928571,20.0178571 C12.3307102,20.0178571 11.875,19.562147 11.875,19 C11.875,18.437853 12.3307102,17.9821429 12.8928571,17.9821429 Z M15.9464286,22.7321429 L21.2053571,22.7321429 C21.7675041,22.7321429 22.2232143,23.187853 22.2232143,23.75 C22.2232143,24.312147 21.7675041,24.7678571 21.2053571,24.7678571 L15.9464286,24.7678571 C15.3842816,24.7678571 14.9285714,24.312147 14.9285714,23.75 C14.9285714,23.187853 15.3842816,22.7321429 15.9464286,22.7321429 Z" id="Combined-Shape" fill="#20C98B"></path>
                <path d="M49.8351648,10.3367089 L55.611643,10.3367089 C57.4806681,10.3367089 58.9174595,10.7415571 59.9220605,11.5512658 C60.9266615,12.3609745 61.4289544,13.5113849 61.4289544,15.0025316 C61.4289544,15.8362911 61.2303735,16.5978868 60.8332057,17.2873418 C60.4360378,17.9767967 59.8948075,18.5059053 59.2094983,18.8746835 C60.1751612,19.1472587 60.938335,19.6843842 61.4990425,20.4860759 C62.05975,21.2877677 62.3400996,22.2337498 62.3400996,23.3240506 C62.3400996,25.039671 61.7988692,26.3504174 60.7163922,27.2563291 C59.6339152,28.1622408 58.0725239,28.6151899 56.0321716,28.6151899 L49.8351648,28.6151899 C49.373916,28.6151899 49,28.2412738 49,27.780025 L49,11.1718737 C49,10.7106249 49.373916,10.3367089 49.8351648,10.3367089 Z M52.387591,25.7531646 L55.7751819,25.7531646 C56.7252697,25.7531646 57.4572935,25.5246858 57.9712754,25.0677215 C58.4852573,24.6107572 58.7422444,23.965405 58.7422444,23.1316456 C58.7422444,21.4641267 57.6909335,20.6303797 55.5882804,20.6303797 L52.387591,20.6303797 L52.387591,25.7531646 Z M52.387591,17.8164557 L55.0976637,17.8164557 C56.0633267,17.8164557 56.787563,17.6240526 57.2703945,17.2392405 C57.753226,16.8544285 57.9946381,16.2611854 57.9946381,15.4594937 C57.9946381,14.7219372 57.7571197,14.1607614 57.2820758,13.7759494 C56.807032,13.3911373 56.0944769,13.1987342 55.1443891,13.1987342 L52.387591,13.1987342 L52.387591,17.8164557 Z M70.1432401,29 C69.0997012,29 68.1613089,28.7354457 67.3280352,28.2063291 C66.4947616,27.6772125 65.8367189,26.9196252 65.3538874,25.9335443 C64.8710559,24.9474634 64.6296438,23.8130866 64.6296438,22.5303797 C64.6296438,21.3438759 64.8671622,20.2575999 65.3422061,19.271519 C65.8172499,18.2854381 66.4908676,17.4917752 67.3630793,16.8905063 C68.235291,16.2892375 69.2165144,15.9886076 70.306779,15.9886076 C71.1166899,15.9886076 71.8526074,16.1609687 72.5145538,16.5056962 C73.1765002,16.8504237 73.7021556,17.3354399 74.0915358,17.9607595 L74.1263308,16.7787134 C74.1329758,16.5529712 74.3178925,16.3734177 74.5437324,16.3734177 L76.8279174,16.3734177 C77.0585418,16.3734177 77.2454998,16.5603757 77.2454998,16.7910001 L77.2454998,28.1976075 C77.2454998,28.4282319 77.0585418,28.6151899 76.8279174,28.6151899 L74.5435489,28.6151899 C74.3177823,28.6151899 74.1328979,28.4357489 74.1261529,28.2100831 L74.0915358,27.0518987 C73.6865804,27.6932522 73.1492437,28.1782684 72.4795098,28.506962 C71.8097758,28.8356557 71.031027,29 70.1432401,29 Z M71.0310226,26.0177215 C71.9499599,26.0177215 72.7053462,25.6890328 73.2972041,25.0316456 C73.8890621,24.3742583 74.1849866,23.5244778 74.1849866,22.4822785 C74.1849866,21.456113 73.8929558,20.6143493 73.3088855,19.956962 C72.7248152,19.2995748 71.9655351,18.9708861 71.0310226,18.9708861 C70.0965101,18.9708861 69.33723,19.2995748 68.7531597,19.956962 C68.1690894,20.6143493 67.8770586,21.456113 67.8770586,22.4822785 C67.8770586,23.5244778 68.1729831,24.3742583 68.7648411,25.0316456 C69.356699,25.6890328 70.1120853,26.0177215 71.0310226,26.0177215 Z M84.3711222,29 C83.4677601,29 82.6111364,28.8917732 81.8012256,28.6753165 C81.3251276,28.5480745 80.7844468,28.3117534 80.1791831,27.9663531 L80.17914,27.9664287 C80.029873,27.8812479 79.9480207,27.713329 79.9728724,27.5432738 L80.2416721,25.7037507 C80.2750232,25.4755357 80.4870646,25.3175673 80.7152796,25.3509185 C80.7632659,25.3579312 80.809664,25.3732486 80.8523937,25.396184 C81.3821991,25.6805604 81.8269712,25.8797227 82.1867101,25.9936709 C82.8953821,26.2181446 83.5767872,26.3303797 84.230946,26.3303797 C85.5548387,26.3303797 86.2167752,25.9856575 86.2167752,25.2962025 C86.2167752,24.9274243 86.0766004,24.6468364 85.7962466,24.4544304 C85.5158929,24.2620244 84.9318313,24.037554 84.0440444,23.7810127 C82.6422756,23.3801668 81.6415835,22.8711001 81.041938,22.2537975 C80.4422924,21.6364948 80.1424741,20.8067563 80.1424741,19.764557 C80.1424741,18.594087 80.570786,17.6721553 81.4274224,16.9987342 C82.2840589,16.3253131 83.4599695,15.9886076 84.9551896,15.9886076 C85.6872244,15.9886076 86.4192482,16.0767924 87.151283,16.2531646 C87.5737864,16.35496 88.0799499,16.5428806 88.6697735,16.8169262 L88.669792,16.8168864 C88.8366098,16.8943938 88.9330734,17.0719208 88.9073388,17.2540562 L88.6561363,19.0320698 C88.6238694,19.2604369 88.4125837,19.4194076 88.1842166,19.3871407 C88.1443674,19.3815103 88.1055413,19.370149 88.0689428,19.3534095 C87.6060637,19.1416958 87.2184076,18.9941458 86.9059747,18.9107595 C86.2751788,18.7424042 85.6716485,18.6582278 85.0953658,18.6582278 C83.9583755,18.6582278 83.3898889,18.9708829 83.3898889,19.5962025 C83.3898889,19.9489469 83.52617,20.2255264 83.7987361,20.4259494 C84.0713023,20.6263723 84.6125327,20.8468342 85.4224435,21.0873418 C86.9176635,21.5362892 87.9728681,22.0653978 88.5880889,22.6746835 C89.2033096,23.2839693 89.5109154,24.125733 89.5109154,25.2 C89.5109154,26.3865038 89.0553473,27.3164523 88.1441976,27.9898734 C87.2330479,28.6632945 85.9753687,29 84.3711222,29 Z M92.6385705,16.3734177 L95.0508205,16.3734177 C95.2814449,16.3734177 95.4684029,16.5603757 95.4684029,16.7910001 L95.4684029,28.1976075 C95.4684029,28.4282319 95.2814449,28.6151899 95.0508205,28.6151899 L92.6385705,28.6151899 C92.4079461,28.6151899 92.2209881,28.4282319 92.2209881,28.1976075 L92.2209881,16.7910001 C92.2209881,16.5603757 92.4079461,16.3734177 92.6385705,16.3734177 Z M93.8330142,13.8721519 C93.2723067,13.8721519 92.8089511,13.6837572 92.4429337,13.306962 C92.0769163,12.9301669 91.8939104,12.469201 91.8939104,11.9240506 C91.8939104,11.3789002 92.0769163,10.9219428 92.4429337,10.5531646 C92.8089511,10.1843863 93.2723067,10 93.8330142,10 C94.3937217,10 94.8570772,10.1843863 95.2230946,10.5531646 C95.589112,10.9219428 95.772118,11.3789002 95.772118,11.9240506 C95.772118,12.4852349 95.589112,12.9502091 95.2230946,13.3189873 C94.8570772,13.6877656 94.3937217,13.8721519 93.8330142,13.8721519 Z M99.3436644,16.3734177 L101.64549,16.3734177 C101.873604,16.3734177 102.059506,16.5564752 102.063023,16.7845622 L102.080046,17.8886076 C102.422701,17.2793218 102.901631,16.8103392 103.516852,16.4816456 C104.132073,16.1529519 104.852415,15.9886076 105.677901,15.9886076 C107.07967,15.9886076 108.15045,16.4335399 108.890272,17.3234177 C109.630094,18.2132956 110,19.4999916 110,21.1835443 L110,28.1976075 C110,28.4282319 109.813042,28.6151899 109.582418,28.6151899 L107.170168,28.6151899 C106.939543,28.6151899 106.752585,28.4282319 106.752585,28.1976075 L106.752585,21.8088608 C106.752585,19.9008343 106.043924,18.9468354 104.62658,18.9468354 C103.847819,18.9468354 103.244289,19.2153982 102.815971,19.7525316 C102.387653,20.2896651 102.173497,21.0472525 102.173497,22.0253165 L102.173497,28.1976075 C102.173497,28.4282319 101.986539,28.6151899 101.755914,28.6151899 L99.3436644,28.6151899 C99.11304,28.6151899 98.926082,28.4282319 98.926082,28.1976075 L98.926082,16.7910001 C98.926082,16.5603757 99.11304,16.3734177 99.3436644,16.3734177 Z" id="Basin" fill="#242739"></path>
            </g>
        </g>
    </g>
</svg>