<svg id="svg" xmlns="http://www.w3.org/2000/svg" xmlns:xlink="http://www.w3.org/1999/xlink" width="400" height="400" viewBox="0, 0, 400,400" version="1.1"><g id="svgg"><path id="path0" d="M82.800 0.294 C 81.151 0.374,79.630 0.610,79.420 0.820 C 79.211 1.029,77.906 1.200,76.520 1.200 C 75.107 1.200,74.000 1.376,74.000 1.600 C 74.000 1.822,72.933 2.000,71.600 2.000 C 70.267 2.000,69.200 2.178,69.200 2.400 C 69.200 2.620,68.480 2.800,67.600 2.800 C 66.720 2.800,66.000 2.980,66.000 3.200 C 66.000 3.420,65.280 3.600,64.400 3.600 C 63.520 3.600,62.800 3.780,62.800 4.000 C 62.800 4.220,62.181 4.400,61.424 4.400 C 60.667 4.400,59.936 4.580,59.800 4.800 C 59.664 5.020,59.113 5.200,58.576 5.200 C 58.039 5.200,57.600 5.380,57.600 5.600 C 57.600 5.820,57.251 6.000,56.824 6.000 C 56.397 6.000,55.936 6.180,55.800 6.400 C 55.664 6.620,55.113 6.800,54.576 6.800 C 54.039 6.800,53.600 6.980,53.600 7.200 C 53.600 7.420,53.240 7.600,52.800 7.600 C 52.360 7.600,52.000 7.780,52.000 8.000 C 52.000 8.220,51.471 8.400,50.824 8.400 C 50.177 8.400,49.548 8.560,49.427 8.756 C 49.306 8.951,48.718 9.234,48.119 9.385 C 47.520 9.535,46.297 10.153,45.401 10.757 C 44.505 11.362,43.193 12.113,42.486 12.426 C 41.779 12.739,41.200 13.110,41.200 13.249 C 41.200 13.389,40.660 13.727,40.000 14.000 C 39.340 14.273,38.800 14.655,38.800 14.849 C 38.800 15.042,38.480 15.200,38.088 15.200 C 37.697 15.200,37.117 15.560,36.800 16.000 C 36.483 16.440,35.979 16.800,35.680 16.800 C 35.382 16.800,34.446 17.520,33.600 18.400 C 32.754 19.280,31.877 20.000,31.650 20.000 C 31.114 20.000,20.000 31.119,20.000 31.655 C 20.000 31.879,19.280 32.754,18.400 33.600 C 17.520 34.446,16.800 35.382,16.800 35.680 C 16.800 35.979,16.440 36.483,16.000 36.800 C 15.560 37.117,15.200 37.697,15.200 38.088 C 15.200 38.480,15.042 38.800,14.849 38.800 C 14.655 38.800,14.273 39.340,14.000 40.000 C 13.727 40.660,13.389 41.200,13.249 41.200 C 13.110 41.200,12.739 41.779,12.426 42.486 C 12.113 43.193,11.362 44.505,10.757 45.401 C 10.153 46.297,9.535 47.520,9.385 48.119 C 9.234 48.718,8.951 49.306,8.756 49.427 C 8.560 49.548,8.400 50.177,8.400 50.824 C 8.400 51.471,8.220 52.000,8.000 52.000 C 7.780 52.000,7.600 52.360,7.600 52.800 C 7.600 53.240,7.420 53.600,7.200 53.600 C 6.980 53.600,6.800 54.039,6.800 54.576 C 6.800 55.113,6.620 55.664,6.400 55.800 C 6.180 55.936,6.000 56.397,6.000 56.824 C 6.000 57.251,5.820 57.600,5.600 57.600 C 5.380 57.600,5.200 58.039,5.200 58.576 C 5.200 59.113,5.020 59.664,4.800 59.800 C 4.580 59.936,4.400 60.667,4.400 61.424 C 4.400 62.181,4.220 62.800,4.000 62.800 C 3.780 62.800,3.600 63.520,3.600 64.400 C 3.600 65.280,3.420 66.000,3.200 66.000 C 2.980 66.000,2.800 66.720,2.800 67.600 C 2.800 68.480,2.620 69.200,2.400 69.200 C 2.178 69.200,2.000 70.267,2.000 71.600 C 2.000 72.933,1.822 74.000,1.600 74.000 C 1.376 74.000,1.200 75.107,1.200 76.520 C 1.200 78.003,0.994 79.246,0.700 79.540 C -0.035 80.275,-0.035 319.725,0.700 320.460 C 0.984 320.744,1.200 321.953,1.200 323.256 C 1.200 324.519,1.380 325.664,1.600 325.800 C 1.820 325.936,2.000 327.027,2.000 328.224 C 2.000 329.421,2.180 330.400,2.400 330.400 C 2.620 330.400,2.800 331.109,2.800 331.976 C 2.800 332.843,2.980 333.664,3.200 333.800 C 3.420 333.936,3.600 334.757,3.600 335.624 C 3.600 336.491,3.780 337.200,4.000 337.200 C 4.220 337.200,4.400 337.729,4.400 338.376 C 4.400 339.023,4.580 339.664,4.800 339.800 C 5.020 339.936,5.200 340.476,5.200 341.000 C 5.200 341.524,5.380 342.064,5.600 342.200 C 5.820 342.336,6.000 342.797,6.000 343.224 C 6.000 343.651,6.180 344.000,6.400 344.000 C 6.620 344.000,6.800 344.540,6.800 345.200 C 6.800 345.860,6.980 346.400,7.200 346.400 C 7.420 346.400,7.600 346.760,7.600 347.200 C 7.600 347.640,7.780 348.000,8.000 348.000 C 8.220 348.000,8.400 348.338,8.400 348.751 C 8.400 349.743,9.519 352.419,10.302 353.300 C 10.644 353.685,10.797 354.000,10.643 354.000 C 10.488 354.000,10.910 354.797,11.581 355.772 C 12.251 356.747,12.800 357.812,12.800 358.139 C 12.800 358.466,12.935 358.793,13.100 358.867 C 13.606 359.092,15.200 361.536,15.200 362.088 C 15.200 362.374,15.560 362.832,16.000 363.107 C 16.440 363.382,16.800 363.831,16.800 364.106 C 16.800 364.380,17.520 365.369,18.400 366.303 C 19.280 367.237,20.000 368.159,20.000 368.351 C 20.000 368.873,27.158 376.000,27.682 376.000 C 27.930 376.000,28.020 376.114,27.881 376.253 C 27.606 376.527,31.112 380.000,31.663 380.000 C 31.847 380.000,32.763 380.720,33.697 381.600 C 34.631 382.480,35.620 383.200,35.894 383.200 C 36.169 383.200,36.618 383.560,36.893 384.000 C 37.168 384.440,37.626 384.800,37.912 384.800 C 38.464 384.800,40.908 386.394,41.133 386.900 C 41.207 387.065,41.541 387.200,41.875 387.200 C 42.210 387.200,43.240 387.711,44.165 388.335 C 46.427 389.861,50.160 391.600,51.175 391.600 C 51.629 391.600,52.000 391.780,52.000 392.000 C 52.000 392.220,52.360 392.400,52.800 392.400 C 53.240 392.400,53.600 392.580,53.600 392.800 C 53.600 393.020,54.140 393.200,54.800 393.200 C 55.460 393.200,56.000 393.380,56.000 393.600 C 56.000 393.820,56.349 394.000,56.776 394.000 C 57.203 394.000,57.664 394.180,57.800 394.400 C 57.936 394.620,58.487 394.800,59.024 394.800 C 59.561 394.800,60.000 394.980,60.000 395.200 C 60.000 395.420,60.630 395.600,61.400 395.600 C 62.170 395.600,62.800 395.780,62.800 396.000 C 62.800 396.220,63.509 396.400,64.376 396.400 C 65.243 396.400,66.064 396.580,66.200 396.800 C 66.336 397.020,67.067 397.200,67.824 397.200 C 68.581 397.200,69.200 397.380,69.200 397.600 C 69.200 397.822,70.259 398.000,71.576 398.000 C 72.883 398.000,74.064 398.180,74.200 398.400 C 74.336 398.620,75.592 398.800,76.990 398.800 C 78.669 398.800,79.590 398.970,79.700 399.300 C 79.945 400.036,320.055 400.036,320.300 399.300 C 320.410 398.970,321.331 398.800,323.010 398.800 C 324.408 398.800,325.664 398.620,325.800 398.400 C 325.936 398.180,327.117 398.000,328.424 398.000 C 329.741 398.000,330.800 397.822,330.800 397.600 C 330.800 397.380,331.419 397.200,332.176 397.200 C 332.933 397.200,333.664 397.020,333.800 396.800 C 333.936 396.580,334.757 396.400,335.624 396.400 C 336.491 396.400,337.200 396.220,337.200 396.000 C 337.200 395.780,337.729 395.600,338.376 395.600 C 339.023 395.600,339.664 395.420,339.800 395.200 C 339.936 394.980,340.476 394.800,341.000 394.800 C 341.524 394.800,342.064 394.620,342.200 394.400 C 342.336 394.180,342.797 394.000,343.224 394.000 C 343.651 394.000,344.000 393.820,344.000 393.600 C 344.000 393.380,344.540 393.200,345.200 393.200 C 345.860 393.200,346.400 393.020,346.400 392.800 C 346.400 392.580,346.760 392.400,347.200 392.400 C 347.640 392.400,348.000 392.220,348.000 392.000 C 348.000 391.780,348.371 391.600,348.825 391.600 C 349.840 391.600,353.573 389.861,355.835 388.335 C 356.760 387.711,357.790 387.200,358.125 387.200 C 358.459 387.200,358.793 387.065,358.867 386.900 C 359.092 386.394,361.536 384.800,362.088 384.800 C 362.374 384.800,362.832 384.440,363.107 384.000 C 363.382 383.560,363.831 383.200,364.106 383.200 C 364.380 383.200,365.369 382.480,366.303 381.600 C 367.237 380.720,368.157 380.000,368.347 380.000 C 368.789 380.000,373.221 375.755,373.006 375.539 C 372.917 375.450,373.373 375.022,374.021 374.589 C 374.668 374.155,375.198 373.564,375.199 373.276 C 375.199 372.988,375.380 372.864,375.600 373.000 C 375.820 373.136,376.000 372.937,376.000 372.557 C 376.000 372.177,376.111 371.978,376.248 372.114 C 376.569 372.436,377.600 371.405,377.600 370.762 C 377.600 370.490,377.717 370.383,377.860 370.526 C 378.125 370.791,379.999 368.843,380.000 368.301 C 380.000 368.136,380.720 367.237,381.600 366.303 C 382.480 365.369,383.200 364.380,383.200 364.106 C 383.200 363.831,383.560 363.382,384.000 363.107 C 384.440 362.832,384.800 362.374,384.800 362.088 C 384.800 361.536,386.394 359.092,386.900 358.867 C 387.065 358.793,387.200 358.466,387.200 358.139 C 387.200 357.812,387.749 356.747,388.419 355.772 C 389.090 354.797,389.512 354.000,389.357 354.000 C 389.203 354.000,389.356 353.685,389.698 353.300 C 390.481 352.419,391.600 349.743,391.600 348.751 C 391.600 348.338,391.780 348.000,392.000 348.000 C 392.220 348.000,392.400 347.640,392.400 347.200 C 392.400 346.760,392.580 346.400,392.800 346.400 C 393.020 346.400,393.200 345.860,393.200 345.200 C 393.200 344.540,393.380 344.000,393.600 344.000 C 393.820 344.000,394.000 343.651,394.000 343.224 C 394.000 342.797,394.180 342.336,394.400 342.200 C 394.620 342.064,394.800 341.513,394.800 340.976 C 394.800 340.439,394.980 340.000,395.200 340.000 C 395.420 340.000,395.600 339.370,395.600 338.600 C 395.600 337.830,395.780 337.200,396.000 337.200 C 396.220 337.200,396.400 336.491,396.400 335.624 C 396.400 334.757,396.580 333.936,396.800 333.800 C 397.020 333.664,397.200 332.843,397.200 331.976 C 397.200 331.109,397.380 330.400,397.600 330.400 C 397.820 330.400,398.000 329.421,398.000 328.224 C 398.000 327.027,398.180 325.936,398.400 325.800 C 398.620 325.664,398.800 324.519,398.800 323.256 C 398.800 321.953,399.016 320.744,399.300 320.460 C 399.698 320.062,399.800 295.435,399.800 200.000 C 399.800 104.565,399.698 79.938,399.300 79.540 C 399.016 79.256,398.800 78.047,398.800 76.744 C 398.800 75.481,398.620 74.336,398.400 74.200 C 398.180 74.064,398.000 72.973,398.000 71.776 C 398.000 70.579,397.820 69.600,397.600 69.600 C 397.380 69.600,397.200 68.790,397.200 67.800 C 397.200 66.810,397.020 66.000,396.800 66.000 C 396.580 66.000,396.400 65.280,396.400 64.400 C 396.400 63.520,396.220 62.800,396.000 62.800 C 395.780 62.800,395.600 62.170,395.600 61.400 C 395.600 60.630,395.420 60.000,395.200 60.000 C 394.980 60.000,394.800 59.460,394.800 58.800 C 394.800 58.140,394.620 57.600,394.400 57.600 C 394.180 57.600,394.000 57.240,394.000 56.800 C 394.000 56.360,393.820 56.000,393.600 56.000 C 393.380 56.000,393.200 55.460,393.200 54.800 C 393.200 54.140,393.020 53.600,392.800 53.600 C 392.580 53.600,392.400 53.240,392.400 52.800 C 392.400 52.360,392.220 52.000,392.000 52.000 C 391.780 52.000,391.600 51.563,391.600 51.029 C 391.600 50.495,390.993 48.920,390.252 47.529 C 389.511 46.138,388.476 44.198,387.952 43.218 C 387.428 42.237,386.787 41.201,386.526 40.915 C 386.266 40.629,385.938 40.036,385.799 39.598 C 385.660 39.159,385.378 38.800,385.173 38.800 C 384.968 38.800,384.800 38.480,384.800 38.088 C 384.800 37.697,384.440 37.117,384.000 36.800 C 383.560 36.483,383.200 36.037,383.200 35.810 C 383.200 35.582,382.480 34.631,381.600 33.697 C 380.720 32.763,380.000 31.827,380.000 31.618 C 380.000 31.124,368.871 20.000,368.377 20.000 C 368.170 20.000,367.259 19.280,366.352 18.400 C 365.445 17.520,364.495 16.800,364.240 16.800 C 363.985 16.800,363.517 16.440,363.200 16.000 C 362.883 15.560,362.303 15.200,361.912 15.200 C 361.520 15.200,361.200 15.042,361.200 14.849 C 361.200 14.655,360.660 14.273,360.000 14.000 C 359.340 13.727,358.800 13.389,358.800 13.249 C 358.800 13.110,358.221 12.739,357.514 12.426 C 356.807 12.113,355.495 11.362,354.599 10.757 C 353.703 10.153,352.480 9.535,351.881 9.385 C 351.282 9.234,350.694 8.951,350.573 8.756 C 350.452 8.560,349.823 8.400,349.176 8.400 C 348.529 8.400,348.000 8.220,348.000 8.000 C 348.000 7.780,347.640 7.600,347.200 7.600 C 346.760 7.600,346.400 7.420,346.400 7.200 C 346.400 6.980,345.961 6.800,345.424 6.800 C 344.887 6.800,344.336 6.620,344.200 6.400 C 344.064 6.180,343.603 6.000,343.176 6.000 C 342.749 6.000,342.400 5.820,342.400 5.600 C 342.400 5.380,341.860 5.200,341.200 5.200 C 340.540 5.200,340.000 5.020,340.000 4.800 C 340.000 4.580,339.370 4.400,338.600 4.400 C 337.830 4.400,337.200 4.220,337.200 4.000 C 337.200 3.780,336.480 3.600,335.600 3.600 C 334.720 3.600,334.000 3.420,334.000 3.200 C 334.000 2.980,333.280 2.800,332.400 2.800 C 331.520 2.800,330.800 2.620,330.800 2.400 C 330.800 2.178,329.733 2.000,328.400 2.000 C 327.067 2.000,326.000 1.822,326.000 1.600 C 326.000 1.376,324.893 1.200,323.480 1.200 C 321.997 1.200,320.754 0.994,320.460 0.700 C 319.993 0.233,92.121 -0.156,82.800 0.294 M206.800 41.306 C 208.010 41.971,209.180 42.653,209.400 42.821 C 209.620 42.989,212.860 44.871,216.600 47.003 C 220.340 49.136,223.580 51.016,223.800 51.183 C 224.020 51.349,225.190 52.027,226.400 52.690 C 228.117 53.630,252.657 67.738,258.600 71.202 C 259.260 71.587,270.510 78.066,283.600 85.600 C 296.690 93.134,307.940 99.614,308.600 99.999 C 309.260 100.385,316.280 104.436,324.200 109.001 C 332.120 113.566,339.320 117.733,340.200 118.260 C 341.080 118.787,342.385 119.518,343.100 119.883 L 344.400 120.548 344.400 152.078 L 344.400 183.608 326.100 183.504 L 307.800 183.400 307.696 163.794 C 307.597 145.061,307.559 144.167,306.836 143.716 C 306.421 143.456,303.227 141.586,299.740 139.560 C 291.523 134.787,285.907 131.516,276.800 126.200 C 270.224 122.361,262.008 117.579,258.600 115.606 C 255.664 113.907,237.352 103.239,233.100 100.750 C 230.515 99.238,226.285 96.766,223.700 95.258 C 221.115 93.750,215.048 90.210,210.217 87.391 C 205.387 84.573,201.243 82.267,201.008 82.267 C 200.774 82.267,197.076 84.300,192.791 86.785 C 188.506 89.271,184.415 91.641,183.700 92.052 C 182.985 92.463,181.815 93.136,181.100 93.547 C 178.157 95.239,162.159 104.513,156.200 107.982 C 152.680 110.031,149.215 112.043,148.500 112.453 C 147.785 112.864,146.615 113.536,145.900 113.948 C 145.185 114.359,140.640 116.991,135.800 119.798 C 127.403 124.667,126.086 125.429,123.100 127.149 C 122.385 127.560,120.180 128.844,118.200 130.000 C 116.220 131.157,113.790 132.554,112.800 133.105 C 111.810 133.656,110.010 134.698,108.800 135.420 C 107.590 136.142,103.900 138.299,100.600 140.213 C 97.300 142.126,94.510 143.776,94.400 143.879 C 94.290 143.982,94.110 152.916,94.000 163.733 L 93.800 183.400 75.909 183.504 L 58.017 183.608 57.815 182.704 C 57.703 182.207,57.744 168.054,57.906 151.253 L 58.200 120.706 67.200 115.500 C 77.515 109.534,78.260 109.105,80.300 107.953 C 81.125 107.487,82.278 106.767,82.862 106.353 C 83.446 105.939,84.023 105.600,84.144 105.600 C 84.266 105.600,85.318 105.035,86.482 104.344 C 87.647 103.653,89.140 102.782,89.800 102.407 C 90.460 102.032,94.330 99.784,98.400 97.411 C 105.696 93.157,107.038 92.379,109.800 90.800 C 111.995 89.546,113.147 88.880,124.000 82.600 C 129.610 79.354,134.740 76.386,135.400 76.005 C 136.060 75.624,137.590 74.721,138.800 74.000 C 140.869 72.766,141.496 72.402,145.000 70.400 C 147.584 68.924,148.961 68.127,157.800 63.002 C 166.619 57.889,168.082 57.042,170.500 55.653 C 179.123 50.702,187.756 45.693,189.200 44.802 C 190.190 44.192,191.810 43.243,192.800 42.694 C 193.790 42.144,196.034 40.870,197.787 39.862 L 200.974 38.029 202.787 39.063 C 203.784 39.631,205.590 40.641,206.800 41.306 M211.748 106.037 C 211.719 106.787,211.478 109.380,211.212 111.800 C 210.550 117.826,210.059 122.336,209.603 126.600 C 208.923 132.960,208.453 136.552,208.034 138.600 C 207.810 139.700,207.440 141.545,207.213 142.700 C 206.756 145.026,206.176 147.963,205.811 149.800 C 204.713 155.332,204.130 156.400,202.209 156.400 C 201.868 156.400,201.277 156.559,200.895 156.753 C 200.513 156.948,199.750 157.288,199.200 157.511 C 198.650 157.733,196.451 158.758,194.313 159.789 C 190.528 161.614,189.600 161.768,189.600 160.571 C 189.600 160.251,189.442 159.677,189.249 159.295 C 188.711 158.229,188.000 155.823,188.000 155.066 C 188.000 154.694,187.836 154.077,187.636 153.695 C 187.214 152.890,185.779 147.677,185.392 145.542 C 185.107 143.974,185.314 143.519,189.748 136.000 C 190.332 135.010,191.120 133.525,191.499 132.700 C 191.878 131.875,192.326 131.200,192.494 131.200 C 192.662 131.200,192.800 131.004,192.800 130.765 C 192.800 130.402,196.551 124.629,197.196 124.000 C 197.309 123.890,198.201 122.630,199.179 121.200 C 200.157 119.770,202.125 116.890,203.554 114.800 C 204.983 112.710,206.267 110.910,206.408 110.800 C 206.549 110.690,207.608 109.194,208.761 107.476 C 210.965 104.191,211.835 103.772,211.748 106.037 M171.056 109.500 C 170.760 112.576,170.316 116.122,169.539 121.600 C 168.866 126.348,168.851 132.149,169.499 137.600 C 171.213 152.020,171.423 151.024,166.342 152.563 C 164.284 153.186,161.340 154.111,159.800 154.617 C 154.977 156.205,154.451 156.212,152.337 154.717 C 147.069 150.992,143.750 148.578,143.311 148.153 C 143.041 147.892,142.186 147.286,141.411 146.807 C 139.720 145.762,139.797 143.803,141.600 142.000 C 141.710 141.890,142.172 141.080,142.627 140.200 C 143.507 138.497,146.360 133.229,147.806 130.640 C 148.384 129.604,149.134 128.918,150.038 128.598 C 152.911 127.580,154.287 127.200,155.105 127.200 C 155.571 127.200,156.064 127.020,156.200 126.800 C 156.336 126.580,156.887 126.400,157.424 126.400 C 157.961 126.400,158.400 126.212,158.400 125.982 C 158.400 125.752,159.300 124.230,160.400 122.600 C 161.500 120.970,162.400 119.555,162.400 119.456 C 162.400 119.358,163.844 117.054,165.610 114.338 C 167.375 111.622,168.933 109.130,169.071 108.800 C 169.444 107.908,170.468 106.800,170.920 106.800 C 171.168 106.800,171.219 107.810,171.056 109.500 M242.268 118.500 C 242.062 120.142,241.525 124.191,240.797 129.600 C 240.604 131.030,240.261 133.730,240.033 135.600 C 239.642 138.825,239.260 141.117,238.437 145.200 C 238.237 146.190,237.883 147.990,237.648 149.200 C 234.682 164.535,234.270 165.372,229.200 166.390 C 227.990 166.633,225.110 167.253,222.800 167.767 C 217.615 168.921,217.977 169.226,216.207 162.199 C 214.415 155.085,214.392 155.385,217.057 151.062 C 218.299 149.048,219.688 146.770,220.144 146.000 C 220.600 145.230,221.115 144.540,221.287 144.467 C 221.459 144.393,221.600 144.156,221.600 143.939 C 221.600 143.722,222.140 142.759,222.800 141.800 C 223.460 140.841,224.000 139.863,224.000 139.628 C 224.000 139.393,224.180 139.200,224.400 139.200 C 224.620 139.200,224.800 138.930,224.800 138.600 C 224.800 138.270,224.980 138.000,225.200 138.000 C 225.420 138.000,225.600 137.807,225.600 137.572 C 225.600 137.178,227.490 134.239,228.663 132.809 C 228.938 132.474,230.026 131.107,231.081 129.772 C 232.949 127.409,233.436 126.790,237.200 122.000 C 238.190 120.740,239.515 119.055,240.144 118.255 C 241.747 116.218,242.542 116.310,242.268 118.500 M268.649 137.500 C 268.530 138.105,268.056 140.670,267.594 143.200 C 267.132 145.730,266.598 148.610,266.407 149.600 C 266.217 150.590,265.855 152.570,265.604 154.000 C 264.709 159.088,263.873 161.848,261.726 166.800 C 261.392 167.570,260.981 168.560,260.813 169.000 C 260.347 170.220,259.761 171.672,259.200 173.000 C 258.921 173.660,258.552 174.560,258.380 175.000 C 256.964 178.619,257.004 178.578,253.972 179.545 C 253.186 179.795,252.162 180.000,251.695 180.000 C 251.229 180.000,250.748 180.160,250.627 180.356 C 250.506 180.551,249.821 180.806,249.104 180.922 C 248.387 181.038,246.932 181.346,245.872 181.605 C 243.737 182.127,242.840 181.575,242.813 179.724 C 242.806 179.242,242.620 178.736,242.400 178.600 C 242.180 178.464,242.000 177.924,242.000 177.400 C 242.000 176.876,241.820 176.336,241.600 176.200 C 241.380 176.064,241.200 175.524,241.200 175.000 C 241.200 174.476,241.020 173.936,240.800 173.800 C 240.127 173.384,240.372 171.059,241.200 170.000 C 241.630 169.450,241.986 168.775,241.991 168.500 C 241.996 168.225,242.180 168.000,242.400 168.000 C 242.620 168.000,242.800 167.730,242.800 167.400 C 242.800 167.070,242.980 166.800,243.200 166.800 C 243.420 166.800,243.600 166.627,243.600 166.417 C 243.600 165.469,253.757 150.737,256.052 148.356 C 257.453 146.902,260.578 143.617,262.996 141.056 C 267.464 136.324,269.077 135.310,268.649 137.500 M284.575 160.679 C 284.804 161.276,284.611 163.418,283.650 170.961 C 283.512 172.040,283.560 174.683,283.755 176.835 L 284.110 180.748 281.986 187.274 C 279.264 195.639,280.222 194.841,273.056 194.710 L 267.027 194.600 264.721 187.800 C 261.724 178.961,261.589 179.717,266.400 178.400 C 267.390 178.129,268.650 177.769,269.200 177.600 C 269.750 177.431,270.992 177.054,271.959 176.763 C 273.015 176.445,273.794 175.946,273.906 175.516 C 274.009 175.122,274.252 174.800,274.447 174.800 C 274.641 174.800,274.800 174.530,274.800 174.200 C 274.800 173.870,274.980 173.600,275.200 173.600 C 275.420 173.600,275.600 173.330,275.600 173.000 C 275.600 172.670,275.780 172.400,276.000 172.400 C 276.220 172.400,276.400 172.238,276.400 172.040 C 276.400 171.842,277.677 169.637,279.237 167.140 C 284.107 159.346,284.077 159.382,284.575 160.679 M158.701 165.787 C 163.266 166.330,168.620 166.964,170.600 167.195 C 172.580 167.426,175.550 167.783,177.200 167.988 C 178.850 168.193,181.910 168.559,184.000 168.801 C 190.008 169.497,193.985 169.994,196.907 170.412 C 198.397 170.625,200.252 170.800,201.030 170.800 C 204.350 170.800,206.118 171.664,214.800 177.526 C 224.488 184.068,225.717 184.911,226.000 185.213 C 226.110 185.330,228.180 186.760,230.600 188.390 C 233.020 190.020,235.060 191.499,235.133 191.677 C 235.207 191.855,235.488 192.000,235.758 192.000 C 236.028 192.000,236.609 192.336,237.050 192.746 C 237.490 193.156,238.278 193.720,238.800 194.000 C 239.322 194.280,239.941 194.680,240.175 194.891 C 240.409 195.101,242.505 196.562,244.833 198.137 C 255.813 205.565,257.809 206.956,257.933 207.266 C 258.007 207.450,258.277 207.600,258.533 207.601 C 258.790 207.601,259.630 208.141,260.400 208.800 C 261.170 209.459,262.010 209.999,262.267 209.999 C 262.523 210.000,262.793 210.147,262.867 210.328 C 262.940 210.508,264.123 211.413,265.495 212.339 C 268.446 214.331,268.165 213.344,269.154 225.191 C 270.043 235.840,270.166 235.227,266.757 237.104 C 262.797 239.283,260.362 240.607,258.400 241.646 C 257.410 242.171,256.540 242.735,256.467 242.900 C 256.393 243.065,256.123 243.204,255.867 243.209 C 255.610 243.214,254.950 243.570,254.400 244.000 C 253.341 244.828,251.016 245.073,250.600 244.400 C 250.464 244.180,249.834 244.000,249.200 244.000 C 248.566 244.000,247.936 243.820,247.800 243.600 C 247.664 243.380,247.124 243.200,246.600 243.200 C 246.076 243.200,245.536 243.020,245.400 242.800 C 245.264 242.580,244.711 242.400,244.171 242.400 C 243.100 242.400,241.752 241.752,240.804 240.781 C 240.472 240.441,239.570 239.729,238.800 239.200 C 238.030 238.671,237.310 238.139,237.200 238.016 C 237.090 237.894,235.200 236.367,233.000 234.621 C 230.800 232.876,228.910 231.346,228.800 231.222 C 228.690 231.097,227.941 230.504,227.135 229.904 C 226.329 229.303,225.429 228.584,225.135 228.306 C 224.841 228.028,223.941 227.308,223.135 226.706 C 222.329 226.104,221.424 225.384,221.125 225.106 C 220.825 224.828,219.775 223.972,218.790 223.206 C 217.806 222.439,216.730 221.592,216.400 221.325 C 216.070 221.057,214.180 219.538,212.200 217.948 C 210.220 216.358,208.510 214.954,208.400 214.827 C 208.290 214.699,207.541 214.104,206.735 213.504 C 205.929 212.903,205.029 212.184,204.735 211.906 C 204.441 211.628,203.570 210.925,202.800 210.345 C 202.030 209.765,201.019 208.955,200.553 208.545 C 200.088 208.135,199.114 207.350,198.390 206.800 C 197.665 206.250,195.610 204.630,193.823 203.200 C 192.035 201.770,189.890 200.060,189.056 199.400 C 186.842 197.648,183.735 197.248,166.742 196.531 L 162.083 196.335 160.842 198.140 C 160.159 199.132,159.600 200.137,159.600 200.372 C 159.600 200.607,159.464 200.800,159.298 200.800 C 158.776 200.800,157.926 203.156,158.255 203.689 C 158.427 203.968,158.705 205.007,158.871 205.998 C 159.038 206.989,159.354 208.700,159.574 209.800 C 159.794 210.900,160.154 212.700,160.374 213.800 C 160.594 214.900,160.966 216.790,161.200 218.000 C 161.434 219.210,161.794 221.010,162.000 222.000 C 162.344 223.656,162.614 225.030,163.573 230.000 C 163.980 232.112,164.738 235.934,165.200 238.200 C 166.806 246.083,167.144 248.147,166.895 248.561 C 166.670 248.934,143.494 248.609,137.090 248.142 L 133.580 247.886 131.441 244.243 C 130.264 242.239,128.784 239.610,128.151 238.400 C 127.518 237.190,126.906 236.110,126.792 236.000 C 126.677 235.890,125.958 234.540,125.194 233.000 C 124.429 231.460,123.668 230.140,123.502 230.067 C 123.336 229.993,123.200 229.588,123.200 229.167 C 123.200 228.745,123.020 228.400,122.800 228.400 C 122.580 228.400,122.400 228.055,122.400 227.633 C 122.400 227.212,122.255 226.807,122.079 226.733 C 121.902 226.660,120.715 224.447,119.440 221.815 L 117.123 217.031 117.600 212.015 C 117.862 209.257,118.235 205.560,118.429 203.800 C 118.623 202.040,118.887 199.340,119.016 197.800 C 119.145 196.260,119.341 194.550,119.451 194.000 C 119.835 192.085,147.534 164.800,149.094 164.800 C 149.814 164.800,154.137 165.244,158.701 165.787 M343.903 228.331 C 344.300 228.584,344.384 234.779,344.303 257.969 L 344.200 287.288 340.400 289.503 C 338.310 290.722,331.470 294.685,325.200 298.311 C 318.930 301.937,313.260 305.217,312.600 305.599 C 311.940 305.982,307.440 308.591,302.600 311.398 C 297.760 314.204,293.215 316.838,292.500 317.250 C 289.210 319.148,288.306 319.672,283.800 322.294 C 281.160 323.830,274.410 327.740,268.800 330.982 C 263.190 334.224,258.420 337.014,258.200 337.181 C 257.980 337.348,256.810 338.027,255.600 338.689 C 254.390 339.352,249.440 342.195,244.600 345.008 C 226.164 355.721,222.991 357.507,222.700 357.332 C 222.142 356.998,222.338 317.348,222.900 316.892 C 223.175 316.668,224.030 316.128,224.800 315.691 C 226.438 314.762,246.058 303.406,260.200 295.201 C 260.860 294.818,265.360 292.209,270.200 289.402 C 275.040 286.596,279.540 283.984,280.200 283.598 C 280.860 283.212,284.820 280.925,289.000 278.515 C 293.180 276.105,299.030 272.706,302.000 270.963 L 307.400 267.792 307.500 248.396 C 307.555 237.728,307.684 228.775,307.787 228.500 C 308.003 227.925,343.004 227.761,343.903 228.331 M94.304 248.219 L 94.407 267.838 104.444 273.619 C 115.800 280.160,117.315 281.033,119.000 282.006 C 120.653 282.961,137.519 292.742,139.000 293.604 C 139.660 293.988,142.990 295.914,146.400 297.884 C 149.810 299.854,157.190 304.134,162.800 307.394 C 168.410 310.655,174.440 314.160,176.200 315.183 L 179.400 317.042 179.504 337.321 C 179.561 348.475,179.505 357.600,179.381 357.600 C 179.256 357.600,178.399 357.172,177.477 356.649 C 174.233 354.810,159.185 346.096,150.600 341.086 C 147.960 339.545,144.810 337.744,143.600 337.085 C 142.390 336.425,141.220 335.748,141.000 335.581 C 140.780 335.414,136.010 332.623,130.400 329.381 C 114.550 320.219,106.144 315.351,96.600 309.807 C 91.760 306.995,87.260 304.383,86.600 304.002 C 85.240 303.217,66.875 292.560,61.400 289.379 L 57.800 287.288 57.697 258.344 C 57.640 242.425,57.680 229.173,57.786 228.896 C 57.937 228.499,61.814 228.414,76.089 228.496 L 94.200 228.600 94.304 248.219 M194.800 241.943 C 196.230 242.154,198.660 242.529,200.200 242.776 C 201.740 243.023,204.080 243.391,205.400 243.595 C 206.720 243.798,209.060 244.165,210.600 244.411 C 212.140 244.656,214.390 245.010,215.600 245.196 C 230.549 247.502,228.856 246.950,229.990 249.893 C 230.478 251.162,231.023 252.560,231.201 253.000 C 231.709 254.258,233.721 259.588,236.557 267.191 L 239.166 274.182 234.511 283.191 C 231.951 288.146,229.123 293.640,228.228 295.400 C 227.333 297.160,226.465 298.660,226.300 298.733 C 226.135 298.807,226.000 299.212,226.000 299.633 C 226.000 300.055,225.862 300.400,225.694 300.400 C 225.526 300.400,225.091 301.075,224.727 301.900 C 223.328 305.072,223.553 305.033,218.400 302.996 C 213.906 301.220,211.539 300.242,208.104 298.741 C 207.172 298.333,206.224 298.000,205.999 298.000 C 205.774 298.000,205.277 297.820,204.895 297.600 C 204.513 297.380,203.357 296.851,202.326 296.425 C 201.295 295.999,200.199 295.234,199.891 294.725 C 199.583 294.216,198.221 292.034,196.865 289.876 C 195.509 287.719,194.400 285.864,194.400 285.755 C 194.400 285.645,193.680 284.496,192.800 283.200 C 191.920 281.904,191.200 280.654,191.200 280.422 C 191.200 280.190,191.020 280.000,190.800 280.000 C 190.580 280.000,190.400 279.825,190.400 279.611 C 190.400 279.239,186.083 272.372,185.154 271.266 C 184.697 270.723,184.728 269.817,185.608 258.000 C 185.829 255.030,186.153 250.254,186.327 247.387 C 186.754 240.390,186.293 240.686,194.800 241.943 " stroke="none" fill="#fbeeb8" fill-rule="evenodd"></path><path id="path1" d="M209.880 106.772 C 209.514 107.392,208.077 109.497,206.687 111.450 C 190.388 134.352,185.026 143.798,186.349 147.281 C 186.783 148.425,187.163 149.731,188.854 155.900 C 190.391 161.504,190.044 161.278,193.986 159.247 C 195.644 158.393,198.572 157.103,200.494 156.380 C 202.456 155.643,204.076 154.789,204.189 154.433 C 205.017 151.822,208.050 135.054,208.572 130.200 C 208.927 126.900,209.387 122.760,209.594 121.000 C 209.800 119.240,210.163 115.910,210.398 113.600 C 210.634 111.290,210.920 108.651,211.033 107.735 C 211.285 105.692,210.772 105.263,209.880 106.772 M170.033 108.474 C 169.787 108.763,168.626 110.530,167.454 112.400 C 166.282 114.270,163.912 118.050,162.188 120.800 C 158.177 127.199,158.869 126.606,153.650 128.105 L 149.139 129.400 148.038 131.400 C 147.432 132.500,145.556 135.904,143.868 138.963 C 140.286 145.458,140.286 145.460,142.501 146.921 C 143.435 147.538,145.370 148.918,146.800 149.987 C 153.701 155.149,154.551 155.643,155.817 155.231 C 156.468 155.020,159.700 154.004,163.000 152.975 C 171.139 150.437,170.530 151.715,169.192 140.000 C 168.752 136.150,168.295 132.010,168.176 130.800 C 168.036 129.375,168.452 125.008,169.356 118.410 C 170.782 108.012,170.813 107.557,170.033 108.474 M237.501 122.518 C 235.577 124.983,232.512 128.898,230.689 131.217 C 228.867 133.536,225.831 137.946,223.943 141.017 C 222.055 144.088,219.558 148.130,218.395 150.000 C 217.232 151.870,216.023 153.850,215.708 154.400 C 214.771 156.041,217.899 167.818,219.258 167.760 C 220.672 167.700,232.927 164.838,233.233 164.496 C 233.478 164.223,234.230 161.346,235.767 154.800 C 237.674 146.677,241.597 122.263,241.600 118.500 C 241.600 117.473,240.912 118.148,237.501 122.518 M266.746 137.903 C 266.446 138.327,263.332 141.671,259.827 145.334 C 256.322 148.997,252.787 153.031,251.970 154.297 C 251.154 155.564,248.286 160.016,245.598 164.192 L 240.711 171.783 242.303 176.392 C 244.152 181.744,243.865 181.597,249.400 180.030 C 251.160 179.531,253.371 178.944,254.314 178.726 C 256.494 178.221,256.488 178.231,260.419 168.400 C 263.454 160.808,264.060 158.768,265.232 152.200 C 265.468 150.880,265.816 148.990,266.006 148.000 C 266.196 147.010,266.566 144.940,266.828 143.400 C 267.089 141.860,267.457 139.975,267.644 139.212 C 268.048 137.565,267.526 136.804,266.746 137.903 M281.317 165.124 C 280.043 167.117,277.819 170.604,276.376 172.874 L 273.752 177.000 268.976 178.336 C 266.349 179.071,263.975 179.741,263.700 179.824 C 262.936 180.055,263.041 180.543,265.335 187.410 C 267.812 194.827,267.120 194.276,274.051 194.353 C 279.156 194.410,278.619 194.912,281.054 187.796 L 282.969 182.200 283.012 175.600 C 283.036 171.970,283.261 167.388,283.512 165.417 C 284.096 160.827,284.068 160.823,281.317 165.124 M134.336 179.075 C 125.567 187.841,120.343 193.356,120.207 193.992 C 120.088 194.546,119.803 196.890,119.574 199.200 C 119.344 201.510,118.988 204.930,118.783 206.800 C 118.577 208.670,118.299 211.820,118.165 213.800 L 117.921 217.400 122.347 226.074 C 127.490 236.154,130.213 241.133,132.642 244.900 L 134.384 247.600 139.683 247.600 C 142.598 247.600,149.726 247.796,155.523 248.035 C 167.522 248.530,166.606 248.713,166.029 245.931 C 165.786 244.759,164.509 238.310,163.192 231.600 C 161.875 224.890,160.058 215.667,159.154 211.105 C 158.250 206.543,157.628 202.505,157.770 202.133 C 157.913 201.760,158.865 200.138,159.885 198.528 C 162.025 195.150,160.940 195.408,170.400 196.025 C 173.810 196.248,178.970 196.575,181.867 196.753 L 187.134 197.075 191.867 200.837 C 194.470 202.906,206.950 212.885,219.600 223.012 L 242.600 241.425 247.235 242.712 C 253.134 244.351,251.778 244.651,260.575 239.767 C 270.203 234.422,269.287 235.533,268.801 229.783 C 268.578 227.152,268.223 222.827,268.013 220.171 C 267.538 214.193,267.706 214.565,264.497 212.400 C 263.029 211.410,259.212 208.787,256.014 206.572 C 252.816 204.356,244.440 198.604,237.400 193.790 C 230.360 188.976,220.387 182.129,215.237 178.575 L 205.874 172.113 201.837 171.634 C 199.617 171.370,196.540 170.993,195.000 170.794 C 193.460 170.596,190.490 170.237,188.400 169.997 C 186.310 169.757,183.250 169.395,181.600 169.192 C 179.950 168.988,176.980 168.632,175.000 168.400 C 173.020 168.168,170.050 167.812,168.400 167.608 C 166.750 167.405,163.690 167.042,161.600 166.800 C 157.932 166.376,153.099 165.789,149.825 165.369 L 148.249 165.166 134.336 179.075 M187.436 243.961 C 187.157 246.432,186.786 251.380,185.961 263.677 L 185.513 270.355 193.257 282.774 L 201.000 295.193 208.400 298.176 C 212.470 299.817,217.377 301.827,219.305 302.642 C 221.232 303.457,222.870 304.051,222.945 303.962 C 223.085 303.794,227.372 295.556,232.396 285.800 C 233.982 282.720,235.993 278.821,236.865 277.136 L 238.452 274.072 236.793 269.736 C 235.881 267.351,234.610 264.005,233.967 262.300 C 231.210 254.978,230.415 252.859,229.534 250.484 C 228.884 248.732,228.357 247.915,227.800 247.795 C 227.360 247.699,224.030 247.167,220.400 246.611 C 216.770 246.056,208.670 244.788,202.400 243.794 C 196.130 242.801,190.261 241.880,189.357 241.747 L 187.714 241.507 187.436 243.961 " stroke="none" fill="#640d05" fill-rule="evenodd"></path><path id="path2" d="M197.787 39.862 C 196.034 40.870,193.790 42.144,192.800 42.694 C 191.810 43.243,190.190 44.192,189.200 44.802 C 187.756 45.693,179.123 50.702,170.500 55.653 C 168.082 57.042,166.619 57.889,157.800 63.002 C 148.961 68.127,147.584 68.924,145.000 70.400 C 141.496 72.402,140.869 72.766,138.800 74.000 C 137.590 74.721,136.060 75.624,135.400 76.005 C 134.740 76.386,129.610 79.354,124.000 82.600 C 113.147 88.880,111.995 89.546,109.800 90.800 C 107.038 92.379,105.696 93.157,98.400 97.411 C 94.330 99.784,90.460 102.032,89.800 102.407 C 89.140 102.782,87.647 103.653,86.482 104.344 C 85.318 105.035,84.266 105.600,84.144 105.600 C 84.023 105.600,83.446 105.939,82.862 106.353 C 82.278 106.767,81.125 107.487,80.300 107.953 C 78.260 109.105,77.515 109.534,67.200 115.500 L 58.200 120.706 57.906 151.253 C 57.744 168.054,57.703 182.207,57.815 182.704 L 58.017 183.608 75.909 183.504 L 93.800 183.400 94.000 163.733 C 94.110 152.916,94.290 143.982,94.400 143.879 C 94.510 143.776,97.300 142.126,100.600 140.213 C 103.900 138.299,107.590 136.142,108.800 135.420 C 110.010 134.698,111.810 133.656,112.800 133.105 C 113.790 132.554,116.220 131.157,118.200 130.000 C 120.180 128.844,122.385 127.560,123.100 127.149 C 126.086 125.429,127.403 124.667,135.800 119.798 C 140.640 116.991,145.185 114.359,145.900 113.948 C 146.615 113.536,147.785 112.864,148.500 112.453 C 149.215 112.043,152.680 110.031,156.200 107.982 C 162.159 104.513,178.157 95.239,181.100 93.547 C 181.815 93.136,182.985 92.463,183.700 92.052 C 184.415 91.641,188.506 89.271,192.791 86.785 C 197.076 84.300,200.774 82.267,201.008 82.267 C 201.243 82.267,205.387 84.573,210.217 87.391 C 215.048 90.210,221.115 93.750,223.700 95.258 C 226.285 96.766,230.515 99.238,233.100 100.750 C 237.352 103.239,255.664 113.907,258.600 115.606 C 262.008 117.579,270.224 122.361,276.800 126.200 C 285.907 131.516,291.523 134.787,299.740 139.560 C 303.227 141.586,306.421 143.456,306.836 143.716 C 307.559 144.167,307.597 145.061,307.696 163.794 L 307.800 183.400 326.100 183.504 L 344.400 183.608 344.400 152.078 L 344.400 120.548 343.100 119.883 C 342.385 119.518,341.080 118.787,340.200 118.260 C 339.320 117.733,332.120 113.566,324.200 109.001 C 316.280 104.436,309.260 100.385,308.600 99.999 C 307.940 99.614,296.690 93.134,283.600 85.600 C 270.510 78.066,259.260 71.587,258.600 71.202 C 252.657 67.738,228.117 53.630,226.400 52.690 C 225.190 52.027,224.020 51.349,223.800 51.183 C 223.580 51.016,220.340 49.136,216.600 47.003 C 212.860 44.871,209.620 42.989,209.400 42.821 C 209.180 42.653,208.010 41.971,206.800 41.306 C 205.590 40.641,203.784 39.631,202.787 39.063 L 200.974 38.029 197.787 39.862 M208.761 107.476 C 207.608 109.194,206.549 110.690,206.408 110.800 C 206.267 110.910,204.983 112.710,203.554 114.800 C 202.125 116.890,200.157 119.770,199.179 121.200 C 198.201 122.630,197.309 123.890,197.196 124.000 C 196.551 124.629,192.800 130.402,192.800 130.765 C 192.800 131.004,192.662 131.200,192.494 131.200 C 192.326 131.200,191.878 131.875,191.499 132.700 C 191.120 133.525,190.332 135.010,189.748 136.000 C 185.314 143.519,185.107 143.974,185.392 145.542 C 185.779 147.677,187.214 152.890,187.636 153.695 C 187.836 154.077,188.000 154.694,188.000 155.066 C 188.000 155.823,188.711 158.229,189.249 159.295 C 189.442 159.677,189.600 160.251,189.600 160.571 C 189.600 161.768,190.528 161.614,194.313 159.789 C 196.451 158.758,198.650 157.733,199.200 157.511 C 199.750 157.288,200.513 156.948,200.895 156.753 C 201.277 156.559,201.868 156.400,202.209 156.400 C 204.130 156.400,204.713 155.332,205.811 149.800 C 206.176 147.963,206.756 145.026,207.213 142.700 C 207.440 141.545,207.810 139.700,208.034 138.600 C 208.453 136.552,208.923 132.960,209.603 126.600 C 210.059 122.336,210.550 117.826,211.212 111.800 C 212.149 103.278,211.887 102.817,208.761 107.476 M211.033 107.735 C 210.920 108.651,210.634 111.290,210.398 113.600 C 210.163 115.910,209.800 119.240,209.594 121.000 C 209.387 122.760,208.927 126.900,208.572 130.200 C 208.050 135.054,205.017 151.822,204.189 154.433 C 204.076 154.789,202.456 155.643,200.494 156.380 C 198.572 157.103,195.644 158.393,193.986 159.247 C 190.044 161.278,190.391 161.504,188.854 155.900 C 187.163 149.731,186.783 148.425,186.349 147.281 C 185.026 143.798,190.388 134.352,206.687 111.450 C 208.077 109.497,209.514 107.392,209.880 106.772 C 210.772 105.263,211.285 105.692,211.033 107.735 M169.923 107.500 C 169.592 107.885,169.209 108.470,169.071 108.800 C 168.933 109.130,167.375 111.622,165.610 114.338 C 163.844 117.054,162.400 119.358,162.400 119.456 C 162.400 119.555,161.500 120.970,160.400 122.600 C 159.300 124.230,158.400 125.752,158.400 125.982 C 158.400 126.212,157.961 126.400,157.424 126.400 C 156.887 126.400,156.336 126.580,156.200 126.800 C 156.064 127.020,155.571 127.200,155.105 127.200 C 154.287 127.200,152.911 127.580,150.038 128.598 C 149.134 128.918,148.384 129.604,147.806 130.640 C 146.360 133.229,143.507 138.497,142.627 140.200 C 142.172 141.080,141.710 141.890,141.600 142.000 C 139.797 143.803,139.720 145.762,141.411 146.807 C 142.186 147.286,143.041 147.892,143.311 148.153 C 143.750 148.578,147.069 150.992,152.337 154.717 C 154.451 156.212,154.977 156.205,159.800 154.617 C 161.340 154.111,164.284 153.186,166.342 152.563 C 171.423 151.024,171.213 152.020,169.499 137.600 C 168.851 132.149,168.866 126.348,169.539 121.600 C 171.539 107.495,171.592 105.557,169.923 107.500 M169.356 118.410 C 168.452 125.008,168.036 129.375,168.176 130.800 C 168.295 132.010,168.752 136.150,169.192 140.000 C 170.530 151.715,171.139 150.437,163.000 152.975 C 159.700 154.004,156.468 155.020,155.817 155.231 C 154.551 155.643,153.701 155.149,146.800 149.987 C 145.370 148.918,143.435 147.538,142.501 146.921 C 140.286 145.460,140.286 145.458,143.868 138.963 C 145.556 135.904,147.432 132.500,148.038 131.400 L 149.139 129.400 153.650 128.105 C 158.869 126.606,158.177 127.199,162.188 120.800 C 163.912 118.050,166.282 114.270,167.454 112.400 C 171.193 106.436,171.057 106.006,169.356 118.410 M240.144 118.255 C 239.515 119.055,238.190 120.740,237.200 122.000 C 233.436 126.790,232.949 127.409,231.081 129.772 C 230.026 131.107,228.938 132.474,228.663 132.809 C 227.490 134.239,225.600 137.178,225.600 137.572 C 225.600 137.807,225.420 138.000,225.200 138.000 C 224.980 138.000,224.800 138.270,224.800 138.600 C 224.800 138.930,224.620 139.200,224.400 139.200 C 224.180 139.200,224.000 139.393,224.000 139.628 C 224.000 139.863,223.460 140.841,222.800 141.800 C 222.140 142.759,221.600 143.722,221.600 143.939 C 221.600 144.156,221.459 144.393,221.287 144.467 C 221.115 144.540,220.600 145.230,220.144 146.000 C 219.688 146.770,218.299 149.048,217.057 151.062 C 214.392 155.385,214.415 155.085,216.207 162.199 C 217.977 169.226,217.615 168.921,222.800 167.767 C 225.110 167.253,227.990 166.633,229.200 166.390 C 234.270 165.372,234.682 164.535,237.648 149.200 C 237.883 147.990,238.237 146.190,238.437 145.200 C 239.260 141.117,239.642 138.825,240.033 135.600 C 240.261 133.730,240.604 131.030,240.797 129.600 C 241.525 124.191,242.062 120.142,242.268 118.500 C 242.542 116.310,241.747 116.218,240.144 118.255 M241.600 118.500 C 241.597 122.263,237.674 146.677,235.767 154.800 C 234.230 161.346,233.478 164.223,233.233 164.496 C 232.927 164.838,220.672 167.700,219.258 167.760 C 217.899 167.818,214.771 156.041,215.708 154.400 C 216.023 153.850,217.232 151.870,218.395 150.000 C 219.558 148.130,222.055 144.088,223.943 141.017 C 225.831 137.946,228.867 133.536,230.689 131.217 C 232.512 128.898,235.577 124.983,237.501 122.518 C 240.912 118.148,241.600 117.473,241.600 118.500 M262.996 141.056 C 260.578 143.617,257.453 146.902,256.052 148.356 C 253.757 150.737,243.600 165.469,243.600 166.417 C 243.600 166.627,243.420 166.800,243.200 166.800 C 242.980 166.800,242.800 167.070,242.800 167.400 C 242.800 167.730,242.620 168.000,242.400 168.000 C 242.180 168.000,241.996 168.225,241.991 168.500 C 241.986 168.775,241.630 169.450,241.200 170.000 C 240.372 171.059,240.127 173.384,240.800 173.800 C 241.020 173.936,241.200 174.476,241.200 175.000 C 241.200 175.524,241.380 176.064,241.600 176.200 C 241.820 176.336,242.000 176.876,242.000 177.400 C 242.000 177.924,242.180 178.464,242.400 178.600 C 242.620 178.736,242.806 179.242,242.813 179.724 C 242.840 181.575,243.737 182.127,245.872 181.605 C 246.932 181.346,248.387 181.038,249.104 180.922 C 249.821 180.806,250.506 180.551,250.627 180.356 C 250.748 180.160,251.229 180.000,251.695 180.000 C 252.162 180.000,253.186 179.795,253.972 179.545 C 257.004 178.578,256.964 178.619,258.380 175.000 C 258.552 174.560,258.921 173.660,259.200 173.000 C 259.761 171.672,260.347 170.220,260.813 169.000 C 260.981 168.560,261.392 167.570,261.726 166.800 C 263.873 161.848,264.709 159.088,265.604 154.000 C 265.855 152.570,266.217 150.590,266.407 149.600 C 266.598 148.610,267.132 145.730,267.594 143.200 C 268.056 140.670,268.530 138.105,268.649 137.500 C 269.077 135.310,267.464 136.324,262.996 141.056 M267.644 139.212 C 267.457 139.975,267.089 141.860,266.828 143.400 C 266.566 144.940,266.196 147.010,266.006 148.000 C 265.816 148.990,265.468 150.880,265.232 152.200 C 264.060 158.768,263.454 160.808,260.419 168.400 C 256.488 178.231,256.494 178.221,254.314 178.726 C 253.371 178.944,251.160 179.531,249.400 180.030 C 243.865 181.597,244.152 181.744,242.303 176.392 L 240.711 171.783 245.598 164.192 C 248.286 160.016,251.154 155.564,251.970 154.297 C 252.787 153.031,256.322 148.997,259.827 145.334 C 263.332 141.671,266.446 138.327,266.746 137.903 C 267.526 136.804,268.048 137.565,267.644 139.212 M282.937 161.303 C 280.649 164.740,276.400 171.720,276.400 172.040 C 276.400 172.238,276.220 172.400,276.000 172.400 C 275.780 172.400,275.600 172.670,275.600 173.000 C 275.600 173.330,275.420 173.600,275.200 173.600 C 274.980 173.600,274.800 173.870,274.800 174.200 C 274.800 174.530,274.641 174.800,274.447 174.800 C 274.252 174.800,274.009 175.122,273.906 175.516 C 273.794 175.946,273.015 176.445,271.959 176.763 C 270.992 177.054,269.750 177.431,269.200 177.600 C 268.650 177.769,267.390 178.129,266.400 178.400 C 261.589 179.717,261.724 178.961,264.721 187.800 L 267.027 194.600 273.056 194.710 C 280.222 194.841,279.264 195.639,281.986 187.274 L 284.110 180.748 283.755 176.835 C 283.560 174.683,283.512 172.040,283.650 170.961 C 285.093 159.637,284.989 158.219,282.937 161.303 M283.512 165.417 C 283.261 167.388,283.036 171.970,283.012 175.600 L 282.969 182.200 281.054 187.796 C 278.619 194.912,279.156 194.410,274.051 194.353 C 267.120 194.276,267.812 194.827,265.335 187.410 C 263.041 180.543,262.936 180.055,263.700 179.824 C 263.975 179.741,266.349 179.071,268.976 178.336 L 273.752 177.000 276.376 172.874 C 282.619 163.056,283.644 161.510,283.801 161.668 C 283.893 161.760,283.763 163.447,283.512 165.417 M133.718 178.900 C 124.766 187.873,119.579 193.364,119.451 194.000 C 119.341 194.550,119.145 196.260,119.016 197.800 C 118.887 199.340,118.623 202.040,118.429 203.800 C 118.235 205.560,117.862 209.257,117.600 212.015 L 117.123 217.031 119.440 221.815 C 120.715 224.447,121.902 226.660,122.079 226.733 C 122.255 226.807,122.400 227.212,122.400 227.633 C 122.400 228.055,122.580 228.400,122.800 228.400 C 123.020 228.400,123.200 228.745,123.200 229.167 C 123.200 229.588,123.336 229.993,123.502 230.067 C 123.668 230.140,124.429 231.460,125.194 233.000 C 125.958 234.540,126.677 235.890,126.792 236.000 C 126.906 236.110,127.518 237.190,128.151 238.400 C 128.784 239.610,130.264 242.239,131.441 244.243 L 133.580 247.886 137.090 248.142 C 143.494 248.609,166.670 248.934,166.895 248.561 C 167.144 248.147,166.806 246.083,165.200 238.200 C 164.738 235.934,163.980 232.112,163.573 230.000 C 162.614 225.030,162.344 223.656,162.000 222.000 C 161.794 221.010,161.434 219.210,161.200 218.000 C 160.966 216.790,160.594 214.900,160.374 213.800 C 160.154 212.700,159.794 210.900,159.574 209.800 C 159.354 208.700,159.038 206.989,158.871 205.998 C 158.705 205.007,158.427 203.968,158.255 203.689 C 157.926 203.156,158.776 200.800,159.298 200.800 C 159.464 200.800,159.600 200.607,159.600 200.372 C 159.600 200.137,160.159 199.132,160.842 198.140 L 162.083 196.335 166.742 196.531 C 183.735 197.248,186.842 197.648,189.056 199.400 C 189.890 200.060,192.035 201.770,193.823 203.200 C 195.610 204.630,197.665 206.250,198.390 206.800 C 199.114 207.350,200.088 208.135,200.553 208.545 C 201.019 208.955,202.030 209.765,202.800 210.345 C 203.570 210.925,204.441 211.628,204.735 211.906 C 205.029 212.184,205.929 212.903,206.735 213.504 C 207.541 214.104,208.290 214.699,208.400 214.827 C 208.510 214.954,210.220 216.358,212.200 217.948 C 214.180 219.538,216.070 221.057,216.400 221.325 C 216.730 221.592,217.806 222.439,218.790 223.206 C 219.775 223.972,220.825 224.828,221.125 225.106 C 221.424 225.384,222.329 226.104,223.135 226.706 C 223.941 227.308,224.841 228.028,225.135 228.306 C 225.429 228.584,226.329 229.303,227.135 229.904 C 227.941 230.504,228.690 231.097,228.800 231.222 C 228.910 231.346,230.800 232.876,233.000 234.621 C 235.200 236.367,237.090 237.894,237.200 238.016 C 237.310 238.139,238.030 238.671,238.800 239.200 C 239.570 239.729,240.472 240.441,240.804 240.781 C 241.752 241.752,243.100 242.400,244.171 242.400 C 244.711 242.400,245.264 242.580,245.400 242.800 C 245.536 243.020,246.076 243.200,246.600 243.200 C 247.124 243.200,247.664 243.380,247.800 243.600 C 247.936 243.820,248.566 244.000,249.200 244.000 C 249.834 244.000,250.464 244.180,250.600 244.400 C 251.016 245.073,253.341 244.828,254.400 244.000 C 254.950 243.570,255.610 243.214,255.867 243.209 C 256.123 243.204,256.393 243.065,256.467 242.900 C 256.540 242.735,257.410 242.171,258.400 241.646 C 260.362 240.607,262.797 239.283,266.757 237.104 C 270.166 235.227,270.043 235.840,269.154 225.191 C 268.165 213.344,268.446 214.331,265.495 212.339 C 264.123 211.413,262.940 210.508,262.867 210.328 C 262.793 210.147,262.523 210.000,262.267 209.999 C 262.010 209.999,261.170 209.459,260.400 208.800 C 259.630 208.141,258.790 207.601,258.533 207.601 C 258.277 207.600,258.007 207.450,257.933 207.266 C 257.809 206.956,255.813 205.565,244.833 198.137 C 242.505 196.562,240.409 195.101,240.175 194.891 C 239.941 194.680,239.322 194.280,238.800 194.000 C 238.278 193.720,237.490 193.156,237.050 192.746 C 236.609 192.336,236.028 192.000,235.758 192.000 C 235.488 192.000,235.207 191.855,235.133 191.677 C 235.060 191.499,233.020 190.020,230.600 188.390 C 228.180 186.760,226.110 185.330,226.000 185.213 C 225.717 184.911,224.488 184.068,214.800 177.526 C 206.118 171.664,204.350 170.800,201.030 170.800 C 200.252 170.800,198.397 170.625,196.907 170.412 C 193.985 169.994,190.008 169.497,184.000 168.801 C 181.910 168.559,178.850 168.193,177.200 167.988 C 175.550 167.783,172.580 167.426,170.600 167.195 C 168.620 166.964,163.266 166.330,158.701 165.787 C 154.137 165.244,149.814 164.800,149.094 164.800 C 147.906 164.800,146.483 166.105,133.718 178.900 M154.600 165.966 C 156.360 166.183,159.510 166.558,161.600 166.800 C 163.690 167.042,166.750 167.405,168.400 167.608 C 170.050 167.812,173.020 168.168,175.000 168.400 C 176.980 168.632,179.950 168.988,181.600 169.192 C 183.250 169.395,186.310 169.757,188.400 169.997 C 190.490 170.237,193.460 170.596,195.000 170.794 C 196.540 170.993,199.617 171.370,201.837 171.634 L 205.874 172.113 215.237 178.575 C 220.387 182.129,230.360 188.976,237.400 193.790 C 244.440 198.604,252.816 204.356,256.014 206.572 C 259.212 208.787,263.029 211.410,264.497 212.400 C 267.706 214.565,267.538 214.193,268.013 220.171 C 268.223 222.827,268.578 227.152,268.801 229.783 C 269.287 235.533,270.203 234.422,260.575 239.767 C 251.778 244.651,253.134 244.351,247.235 242.712 L 242.600 241.425 219.600 223.012 C 206.950 212.885,194.470 202.906,191.867 200.837 L 187.134 197.075 181.867 196.753 C 178.970 196.575,173.810 196.248,170.400 196.025 C 160.940 195.408,162.025 195.150,159.885 198.528 C 158.865 200.138,157.913 201.760,157.770 202.133 C 157.628 202.505,158.250 206.543,159.154 211.105 C 160.058 215.667,161.875 224.890,163.192 231.600 C 164.509 238.310,165.786 244.759,166.029 245.931 C 166.606 248.713,167.522 248.530,155.523 248.035 C 149.726 247.796,142.598 247.600,139.683 247.600 L 134.384 247.600 132.642 244.900 C 130.213 241.133,127.490 236.154,122.347 226.074 L 117.921 217.400 118.165 213.800 C 118.299 211.820,118.577 208.670,118.783 206.800 C 118.988 204.930,119.344 201.510,119.574 199.200 C 119.803 196.890,120.088 194.546,120.207 193.992 C 120.343 193.356,125.567 187.841,134.336 179.075 L 148.249 165.166 149.825 165.369 C 150.691 165.480,152.840 165.748,154.600 165.966 M307.787 228.500 C 307.684 228.775,307.555 237.728,307.500 248.396 L 307.400 267.792 302.000 270.963 C 299.030 272.706,293.180 276.105,289.000 278.515 C 284.820 280.925,280.860 283.212,280.200 283.598 C 279.540 283.984,275.040 286.596,270.200 289.402 C 265.360 292.209,260.860 294.818,260.200 295.201 C 246.058 303.406,226.438 314.762,224.800 315.691 C 224.030 316.128,223.175 316.668,222.900 316.892 C 222.338 317.348,222.142 356.998,222.700 357.332 C 222.991 357.507,226.164 355.721,244.600 345.008 C 249.440 342.195,254.390 339.352,255.600 338.689 C 256.810 338.027,257.980 337.348,258.200 337.181 C 258.420 337.014,263.190 334.224,268.800 330.982 C 274.410 327.740,281.160 323.830,283.800 322.294 C 288.306 319.672,289.210 319.148,292.500 317.250 C 293.215 316.838,297.760 314.204,302.600 311.398 C 307.440 308.591,311.940 305.982,312.600 305.599 C 313.260 305.217,318.930 301.937,325.200 298.311 C 331.470 294.685,338.310 290.722,340.400 289.503 L 344.200 287.288 344.303 257.969 C 344.384 234.779,344.300 228.584,343.903 228.331 C 343.004 227.761,308.003 227.925,307.787 228.500 M57.786 228.896 C 57.680 229.173,57.640 242.425,57.697 258.344 L 57.800 287.288 61.400 289.379 C 66.875 292.560,85.240 303.217,86.600 304.002 C 87.260 304.383,91.760 306.995,96.600 309.807 C 106.144 315.351,114.550 320.219,130.400 329.381 C 136.010 332.623,140.780 335.414,141.000 335.581 C 141.220 335.748,142.390 336.425,143.600 337.085 C 144.810 337.744,147.960 339.545,150.600 341.086 C 159.185 346.096,174.233 354.810,177.477 356.649 C 178.399 357.172,179.256 357.600,179.381 357.600 C 179.505 357.600,179.561 348.475,179.504 337.321 L 179.400 317.042 176.200 315.183 C 174.440 314.160,168.410 310.655,162.800 307.394 C 157.190 304.134,149.810 299.854,146.400 297.884 C 142.990 295.914,139.660 293.988,139.000 293.604 C 137.519 292.742,120.653 282.961,119.000 282.006 C 117.315 281.033,115.800 280.160,104.444 273.619 L 94.407 267.838 94.304 248.219 L 94.200 228.600 76.089 228.496 C 61.814 228.414,57.937 228.499,57.786 228.896 M186.966 241.655 C 186.790 241.940,186.502 244.520,186.327 247.387 C 186.153 250.254,185.829 255.030,185.608 258.000 C 184.728 269.817,184.697 270.723,185.154 271.266 C 186.083 272.372,190.400 279.239,190.400 279.611 C 190.400 279.825,190.580 280.000,190.800 280.000 C 191.020 280.000,191.200 280.190,191.200 280.422 C 191.200 280.654,191.920 281.904,192.800 283.200 C 193.680 284.496,194.400 285.645,194.400 285.755 C 194.400 285.864,195.509 287.719,196.865 289.876 C 198.221 292.034,199.583 294.216,199.891 294.725 C 200.199 295.234,201.295 295.999,202.326 296.425 C 203.357 296.851,204.513 297.380,204.895 297.600 C 205.277 297.820,205.774 298.000,205.999 298.000 C 206.224 298.000,207.172 298.333,208.104 298.741 C 211.539 300.242,213.906 301.220,218.400 302.996 C 223.553 305.033,223.328 305.072,224.727 301.900 C 225.091 301.075,225.526 300.400,225.694 300.400 C 225.862 300.400,226.000 300.055,226.000 299.633 C 226.000 299.212,226.135 298.807,226.300 298.733 C 226.465 298.660,227.333 297.160,228.228 295.400 C 229.123 293.640,231.951 288.146,234.511 283.191 L 239.166 274.182 236.557 267.191 C 233.721 259.588,231.709 254.258,231.201 253.000 C 231.023 252.560,230.478 251.162,229.990 249.893 C 228.856 246.950,230.549 247.502,215.600 245.196 C 214.390 245.010,212.140 244.656,210.600 244.411 C 209.060 244.165,206.720 243.798,205.400 243.595 C 204.080 243.391,201.740 243.023,200.200 242.776 C 190.525 241.224,187.396 240.959,186.966 241.655 M202.400 243.794 C 208.670 244.788,216.770 246.056,220.400 246.611 C 224.030 247.167,227.360 247.699,227.800 247.795 C 228.357 247.915,228.884 248.732,229.534 250.484 C 230.415 252.859,231.210 254.978,233.967 262.300 C 234.610 264.005,235.881 267.351,236.793 269.736 L 238.452 274.072 236.865 277.136 C 235.993 278.821,233.982 282.720,232.396 285.800 C 227.372 295.556,223.085 303.794,222.945 303.962 C 222.870 304.051,221.232 303.457,219.305 302.642 C 217.377 301.827,212.470 299.817,208.400 298.176 L 201.000 295.193 193.257 282.774 L 185.513 270.355 185.961 263.677 C 186.786 251.380,187.157 246.432,187.436 243.961 L 187.714 241.507 189.357 241.747 C 190.261 241.880,196.130 242.801,202.400 243.794 " stroke="none" fill="#e3c390" fill-rule="evenodd"></path></g></svg>