<svg xmlns="http://www.w3.org/2000/svg" viewBox="0 0 90 90"><path fill="#FDC500" d="M0 0h90v90H0z"/><path d="m27.424 45-7.178 7.187L13 45l7.244-7.25 7.18 7.25Zm17.545-17.563 12.362 12.374 7.246-7.248L44.97 13 25.361 32.627l7.247 7.248 12.361-12.438ZM69.695 37.75 62.515 45l7.244 7.25L77 45l-7.305-7.25ZM44.969 62.563 32.608 50.125l-7.247 7.251L44.97 77l19.608-19.627-7.246-7.248L44.97 62.563Zm0-10.374 7.244-7.253-7.244-7.184L37.726 45l7.243 7.187v.002ZM58 77.845v-1.448h1.27v1.448H58Zm11.15-4.138c0 2.828-1.613 4.293-4.014 4.293-2.385 0-4.014-1.465-4.014-4.207v-5.638h1.08v5.57c0 2.085 1.098 3.258 2.95 3.258 1.785 0 2.9-1.086 2.9-3.19v-5.638h1.08v5.552h.017Zm5.711-1.241C77.005 72.93 78 73.724 78 75.224c0 1.673-1.372 2.759-3.293 2.759-1.527 0-2.779-.517-3.945-1.552l.669-.81c1.012.914 1.972 1.362 3.31 1.362 1.286 0 2.144-.673 2.144-1.655 0-.914-.48-1.431-2.504-1.862-2.213-.483-3.242-1.207-3.242-2.81 0-1.553 1.338-2.656 3.173-2.656 1.407 0 2.402.397 3.38 1.19l-.635.844c-.892-.74-1.784-1.051-2.78-1.051-1.251 0-2.057.69-2.057 1.569.034.948.514 1.465 2.641 1.914Z" fill="#32313A"/></svg>