<?xml version="1.0" encoding="UTF-8"?><svg id="a" xmlns="http://www.w3.org/2000/svg" xmlns:xlink="http://www.w3.org/1999/xlink" viewBox="0 0 150 150"><defs><style>.e{fill:#2a54ff;}.f{fill:url(#d);}.g{fill:none;}</style><linearGradient id="d" x1="17.68" y1="116.45" x2="132.14" y2="32.11" gradientTransform="matrix(1, 0, 0, 1, 0, 0)" gradientUnits="userSpaceOnUse"><stop offset="0" stop-color="#2a54ff"/><stop offset=".52" stop-color="#2143cb"/><stop offset="1" stop-color="#2a54ff"/></linearGradient></defs><g id="b"><path id="c" class="g" d="M0,0H150V150H0V0Z"/></g><path class="f" d="M140.2,22.33c-25.18-.09-49.79,10.83-66.63,29.47-6.06,6.27-10.1,13.95-14.96,21.06-11.64,15.93-29.81,25.14-49.5,25.13h0v28.65h0c25.17,.1,49.78-10.86,66.63-29.5,6.03-6.27,10.13-13.94,14.96-21.06,11.64-15.91,29.81-25.12,49.5-25.11V22.33h0Z"/><path class="e" d="M140.2,97.99c-19.68,0-37.86-9.2-49.5-25.11-4.81-7.12-8.92-14.78-14.94-21.06C58.95,33.18,34.3,22.24,9.13,22.35h0v28.65h0c21.8-.11,42.05,11.62,53.01,30.46,3.22,5.62,7.06,10.9,11.45,15.74,16.83,18.63,41.46,29.59,66.63,29.5l-.02-28.7h0Z"/></svg>