<?xml version="1.0" encoding="UTF-8" standalone="no" ?>
<!DOCTYPE svg PUBLIC "-//W3C//DTD SVG 1.1//EN" "http://www.w3.org/Graphics/SVG/1.1/DTD/svg11.dtd">
<svg xmlns="http://www.w3.org/2000/svg" xmlns:xlink="http://www.w3.org/1999/xlink" version="1.1" width="1080" height="1080" viewBox="0 0 1080 1080" xml:space="preserve">
<desc>Created with Fabric.js 5.2.4</desc>
<defs>
</defs>
<rect x="0" y="0" width="100%" height="100%" fill="transparent"></rect>
<g transform="matrix(1 0 0 1 540 540)" id="ceabe7a7-7e25-4d8f-8d2f-6b37a90cc0cb"  >
<rect style="stroke: none; stroke-width: 1; stroke-dasharray: none; stroke-linecap: butt; stroke-dashoffset: 0; stroke-linejoin: miter; stroke-miterlimit: 4; fill: rgb(255,255,255); fill-rule: nonzero; opacity: 1; visibility: hidden;" vector-effect="non-scaling-stroke"  x="-540" y="-540" rx="0" ry="0" width="1080" height="1080" />
</g>
<g transform="matrix(1 0 0 1 540 540)" id="87098762-46d3-4a73-9230-1bba0b35a6f1"  >
</g>
<g transform="matrix(3.64 0 0 3.64 540 719.83)"  >
<g style="" vector-effect="non-scaling-stroke"   >
		<g transform="matrix(1 0 0 1 -157.13 137.61)" clip-path="url(#CLIPPATH_3)"  >
<clipPath id="CLIPPATH_3" >
	<path transform="matrix(1 0 0 1 157.13 -137.6) translate(-186.41, -175.63)" id="1" d="M 0 0 L 372.816 0 L 372.816 351.267 L 0 351.267 z" stroke-linecap="round" />
</clipPath>
<path style="stroke: none; stroke-width: 1; stroke-dasharray: none; stroke-linecap: butt; stroke-dashoffset: 0; stroke-linejoin: miter; stroke-miterlimit: 4; fill: rgb(255,255,255); fill-rule: nonzero; opacity: 1;" vector-effect="non-scaling-stroke"  transform=" translate(-29.28, -372.83)" d="M 31.573 354.28 C 28.659638854102358 354.27163400485784 25.76708188376355 354.77075912550004 23.024999999999988 355.755 L 23.025 368.688 C 24.969502027840164 367.69732933122623 27.12168623220214 367.18319072531085 29.304 367.188 C 37.413 367.188 43.977999999999994 374.08799999999997 43.977999999999994 382.58799999999997 C 43.977999999999994 391.08799999999997 37.413 397.98799999999994 29.303999999999995 397.98799999999994 C 27.12157454639297 397.99376745503633 24.96916856775913 397.4795758691228 23.02499999999999 396.48799999999994 C 17.826686120152473 393.81453853120854 14.585439487253307 388.4331089806474 14.652999999999997 382.58799999999997 L 14.652999999999995 337.62299999999993 C 14.652447853655252 336.06539525934465 13.389604838518835 334.8029999021364 11.831999999999994 334.80299999999994 L 2.8 334.80299999999994 C 1.2547735161401878 334.8029991130712 0.001655599803834562 336.0547744030687 0 337.6 L 0 407 C -2.8771074644820067e-15 407.74260617155073 0.2949991530231656 408.45479712766786 0.8201010126776627 408.9798989873223 C 1.3452028723321598 409.5050008469768 2.057393828449274 409.8 2.799999999999999 409.8 L 11.832 409.8 C 13.387620724561504 409.7961573045601 14.648054028555665 408.53661760801293 14.653 406.981 L 14.653 404.581 C 17.119349863426343 406.68988883598496 19.95901205596589 408.3179799162752 23.025000000000002 409.38100000000003 C 25.766984723379416 410.3657199283886 28.659567914329184 410.86518796650773 31.573000000000008 410.857 C 46.466 410.857 58.563 398.18800000000005 58.563 382.567 C 58.563 366.94599999999997 46.463 354.278 31.573000000000004 354.278" stroke-linecap="round" />
</g>
		<g transform="matrix(1 0 0 1 -109.25 107.54)" clip-path="url(#CLIPPATH_4)"  >
<clipPath id="CLIPPATH_4" >
	<path transform="matrix(1 0 0 1 109.25 -107.54) translate(-186.41, -175.63)" id="1" d="M 0 0 L 372.816 0 L 372.816 351.267 L 0 351.267 z" stroke-linecap="round" />
</clipPath>
<path style="stroke: none; stroke-width: 1; stroke-dasharray: none; stroke-linecap: butt; stroke-dashoffset: 0; stroke-linejoin: miter; stroke-miterlimit: 4; fill: rgb(255,255,255); fill-rule: nonzero; opacity: 1;" vector-effect="non-scaling-stroke"  transform=" translate(-92.08, -342.77)" d="M 92.179 334.8 C 89.98300484690343 334.7495469099546 87.86048783706997 335.5921305920289 86.297 337.135 C 84.72200196617561 338.5576654354709 83.83162121874145 340.58668517635317 83.851 342.709 C 83.81184903677124 344.88013676249386 84.70182822906472 346.9646383130455 86.297 348.438 C 87.86524139643424 349.9687894966262 89.98849259321211 350.79614273413296 92.179 350.72999999999996 C 94.32962613363411 350.7910552108615 96.41009575865142 349.96176192728933 97.929 348.438 C 99.4893084285368 346.94568186494394 100.35259485689078 344.86762810526335 100.309 342.709 C 100.33354697028616 340.5992339402198 99.46982398186438 338.57638018498324 97.929 337.135 C 96.41482491330297 335.5993070444442 94.33516197781283 334.7547830523799 92.179 334.8" stroke-linecap="round" />
</g>
		<g transform="matrix(1 0 0 1 -109.15 147.36)" clip-path="url(#CLIPPATH_5)"  >
<clipPath id="CLIPPATH_5" >
	<path transform="matrix(1 0 0 1 109.15 -147.36) translate(-186.41, -175.63)" id="1" d="M 0 0 L 372.816 0 L 372.816 351.267 L 0 351.267 z" stroke-linecap="round" />
</clipPath>
<path style="stroke: none; stroke-width: 1; stroke-dasharray: none; stroke-linecap: butt; stroke-dashoffset: 0; stroke-linejoin: miter; stroke-miterlimit: 4; fill: rgb(255,255,255); fill-rule: nonzero; opacity: 1;" vector-effect="non-scaling-stroke"  transform=" translate(-92.38, -387.04)" d="M 96.847 359.823 L 87.94699999999999 359.823 C 87.13696216868884 359.75545153473246 86.33799774217522 360.0461990511743 85.76082659842837 360.61856043538995 C 85.18365545468153 361.1909218196056 84.88623234038171 361.987425281137 84.94699999999999 362.798 L 84.94699999999999 411.291 C 84.9119217497713 412.0879479694197 85.19793907532947 412.8656701430722 85.74099999999999 413.45 C 86.32618902819544 414.02038816481246 87.12543928559778 414.3164740556229 87.94099999999999 414.265 L 96.841 414.265 C 97.64450717939562 414.31642557656994 98.4312662302403 414.0194694730277 99.0004026023433 413.4499502308459 C 99.56953897444629 412.8804309886641 99.86596591940572 412.0934724142658 99.814 411.28999999999996 L 99.814 362.8 C 99.86332830030679 361.996237864301 99.5671742644947 361.2096469239745 99 360.63800000000003 C 98.42430824240462 360.0796201798743 97.64308229288878 359.78457886900526 96.842 359.82300000000004" stroke-linecap="round" />
</g>
		<g transform="matrix(1 0 0 1 -75.59 139.83)" clip-path="url(#CLIPPATH_6)"  >
<clipPath id="CLIPPATH_6" >
	<path transform="matrix(1 0 0 1 75.59 -139.83) translate(-186.41, -175.63)" id="1" d="M 0 0 L 372.816 0 L 372.816 351.267 L 0 351.267 z" stroke-linecap="round" />
</clipPath>
<path style="stroke: none; stroke-width: 1; stroke-dasharray: none; stroke-linecap: butt; stroke-dashoffset: 0; stroke-linejoin: miter; stroke-miterlimit: 4; fill: rgb(255,255,255); fill-rule: nonzero; opacity: 1;" vector-effect="non-scaling-stroke"  transform=" translate(-131.33, -376.15)" d="M 144.474 355.491 L 136.51899999999998 355.491 L 136.51899999999998 343.88 C 136.60517039288902 343.07364613848813 136.32200628732363 342.2715821652333 135.74867865442542 341.6980603156573 C 135.17535102152723 341.12453846608133 134.37338300082968 340.8411027208895 133.56699999999998 340.927 L 124.84199999999998 340.927 C 124.03231854323343 340.83550285681423 123.22484010642937 341.1162231760446 122.64653055798341 341.69025614967853 C 122.06822100953745 342.26428912331244 121.78151507578357 343.0696617271938 121.86699999999999 343.88 L 121.86699999999999 355.491 L 118.21099999999998 355.491 C 117.39718290343096 355.3991232429402 116.58581836247734 355.6828551398212 116.006609839597 356.2618690361818 C 115.42740131671667 356.84088293254234 115.14339675411897 357.65215207163754 115.23499999999999 358.466 L 115.23499999999999 365.494 C 115.19720704737765 366.29398411359074 115.47434511897693 367.07693506457264 116.00699999999999 367.675 C 116.6055777650712 368.21946751145043 117.3994930634922 368.49769873648796 118.207 368.446 L 121.863 368.446 L 121.863 397.793 C 121.863 401.561 122.613 404.403 124.022 406.32 C 125.5218620023749 408.262386697472 127.62009825252727 409.65629037722147 129.99200000000002 410.286 C 133.40351578497675 411.099947202572 136.9070903253885 411.4627105582101 140.413 411.365 C 142.043 411.365 143.27900000000002 411.343 144.15800000000002 411.277 C 144.97011814187385 411.2644277408077 145.7422281973949 410.92223029684607 146.29700000000003 410.329 C 146.80903949091814 409.71290865090236 147.0757400092155 408.92954264255224 147.04600000000002 408.129 L 147.04600000000002 401.564 C 147.04600000000002 399.66900000000004 145.98700000000002 398.678 143.96 398.678 L 143.26000000000002 398.678 C 140.55 398.678 138.76500000000001 397.995 137.88400000000001 396.65 C 136.86201857383656 394.7863630513047 136.38842993865316 392.6715089703246 136.518 390.54999999999995 L 136.518 368.44999999999993 L 144.473 368.44999999999993 C 145.2790988967648 368.53545803721255 146.08063927172986 368.2520235942758 146.6538314330029 367.6788314330028 C 147.2270235942759 367.1056392717298 147.51045803721266 366.30409889676474 147.425 365.49799999999993 L 147.425 358.4699999999999 C 147.47508147059847 357.6627161352737 147.19706480113226 356.86941305767874 146.65400000000002 356.2699999999999 C 146.05566940258007 355.73789404301357 145.27281469965175 355.4611489829688 144.473 355.4989999999999" stroke-linecap="round" />
</g>
		<g transform="matrix(1 0 0 1 40.58 147.42)" clip-path="url(#CLIPPATH_7)"  >
<clipPath id="CLIPPATH_7" >
	<path transform="matrix(1 0 0 1 -40.58 -147.42) translate(-186.41, -175.63)" id="1" d="M 0 0 L 372.816 0 L 372.816 351.267 L 0 351.267 z" stroke-linecap="round" />
</clipPath>
<path style="stroke: none; stroke-width: 1; stroke-dasharray: none; stroke-linecap: butt; stroke-dashoffset: 0; stroke-linejoin: miter; stroke-miterlimit: 4; fill: rgb(255,255,255); fill-rule: nonzero; opacity: 1;" vector-effect="non-scaling-stroke"  transform=" translate(-270.49, -387.12)" d="M 294.684 359.957 L 249.60600000000002 359.957 C 248.79049519993686 359.9059062227626 247.99139436002537 360.20193676118436 247.40600000000003 360.772 C 246.84623001188828 361.3458158863743 246.5580765000165 362.13132527037817 246.61400000000003 362.931 L 246.61400000000003 369.76 C 246.5539646322501 370.56710562127336 246.84223820725862 371.3613138796933 247.40600000000003 371.942 C 247.99698342053836 372.503154548517 248.79205907209823 372.79769393761757 249.60600000000002 372.757 L 272.166 372.757 L 245.133 410.7 C 244.7005091352413 411.23951796366856 244.45330259841754 411.903995108748 244.428 412.59499999999997 C 244.40532529266724 413.07407598885817 244.62946749922318 413.53141665274 245.022 413.80699999999996 C 245.48281600297986 414.13970598461253 246.04092347678844 414.3102681300424 246.60899999999998 414.292 L 292.392 414.292 C 293.2068929421614 414.3389715268374 294.00438418118534 414.0435372723808 294.592 413.477 C 294.98774150721493 413.0591127869872 295.2420682216664 412.52737055044486 295.31899999999996 411.957 C 295.3565760048827 411.74586192669926 295.3713275537649 411.5312939429578 295.36299999999994 411.317 L 295.36299999999994 404.377 C 295.40766782622194 403.5704747207158 295.1303619491077 402.77919984438455 294.5919999999999 402.177 C 293.9903145987993 401.63559261445033 293.2007381327609 401.3509861882829 292.39199999999994 401.384 L 268.73 401.384 L 295.874 363.55400000000003 C 296.1793049990467 363.1152541860658 296.3966486999828 362.62147646550153 296.514 362.1 C 296.5495389772166 361.9558361283964 296.5643545458844 361.80734372424865 296.558 361.65900000000005 C 296.5788900646909 361.191155473894 296.40343644948973 360.73584609229766 296.074 360.4030000000001 C 295.67370613709755 360.104100741309 295.18439998603526 359.9487486803886 294.685 359.9620000000001" stroke-linecap="round" />
</g>
		<g transform="matrix(1 0 0 1 97.07 147.43)" clip-path="url(#CLIPPATH_8)"  >
<clipPath id="CLIPPATH_8" >
	<path transform="matrix(1 0 0 1 -97.07 -147.43) translate(-186.41, -175.63)" id="1" d="M 0 0 L 372.816 0 L 372.816 351.267 L 0 351.267 z" stroke-linecap="round" />
</clipPath>
<path style="stroke: none; stroke-width: 1; stroke-dasharray: none; stroke-linecap: butt; stroke-dashoffset: 0; stroke-linejoin: miter; stroke-miterlimit: 4; fill: rgb(255,255,255); fill-rule: nonzero; opacity: 1;" vector-effect="non-scaling-stroke"  transform=" translate(-339.22, -387.13)" d="M 363.408 359.957 L 318.285 359.957 C 317.48338514392805 359.9170828322246 316.7012738182684 360.2123217068946 316.12600000000003 360.772 C 315.7149181230483 361.18175701176176 315.45147726773223 361.7163766380373 315.377 362.292 C 315.3577753797151 362.50475850911255 315.35043064314664 362.71842357292326 315.355 362.93199999999996 L 315.355 369.76099999999997 C 315.2879779585214 370.5651436581257 315.56865138499774 371.3594749377252 316.12600000000003 371.943 C 316.70693989319386 372.4937019817927 317.4850641480837 372.7874357787984 318.285 372.758 L 340.913 372.758 L 313.856 410.7 C 313.37327230256903 411.20931941068835 313.1202917498987 411.8941739068459 313.156 412.59499999999997 C 313.1333252926672 413.07407598885817 313.3574674992232 413.53141665274 313.75 413.80699999999996 C 314.21430132283314 414.14948622425993 314.7827701704243 414.3208394816134 315.359 414.292 L 361.12 414.292 C 361.9287565618185 414.3635586846495 362.72766085802186 414.0731501568645 363.30167575414015 413.49894224968494 C 363.87569065025843 412.92473434250536 364.16583057723994 412.1257324587319 364.094 411.31699999999995 L 364.094 404.37699999999995 C 364.13894014576215 403.5706139936623 363.86200016244334 402.7793568984657 363.324 402.17699999999996 C 362.71842641098436 401.6421229909835 361.9315656659778 401.35849545880615 361.124 401.38399999999996 L 337.41 401.38399999999996 L 364.59700000000004 363.554 C 364.9991550011111 362.99963942394504 365.23565755630597 362.34249522732586 365.27900000000005 361.659 C 365.3002600092221 361.1910952408854 365.1247511494463 360.7356424973348 364.7950000000001 360.403 C 364.3966818311096 360.101012096683 363.9065747742767 359.94529364418787 363.4070000000001 359.96200000000005" stroke-linecap="round" />
</g>
		<g transform="matrix(1 0 0 1 -22.98 147.32)" clip-path="url(#CLIPPATH_9)"  >
<clipPath id="CLIPPATH_9" >
	<path transform="matrix(1 0 0 1 22.98 -147.32) translate(-186.41, -175.63)" id="1" d="M 0 0 L 372.816 0 L 372.816 351.267 L 0 351.267 z" stroke-linecap="round" />
</clipPath>
<path style="stroke: none; stroke-width: 1; stroke-dasharray: none; stroke-linecap: butt; stroke-dashoffset: 0; stroke-linejoin: miter; stroke-miterlimit: 4; fill: rgb(255,255,255); fill-rule: nonzero; opacity: 1;" vector-effect="non-scaling-stroke"  transform=" translate(-192.47, -386.76)" d="M 218.954 359.527 L 209.92000000000002 359.527 C 208.3646079838437 359.53194040372534 207.10494040372538 360.7916079838437 207.10000000000002 362.347 L 207.10000000000002 364.74699999999996 C 204.6330239461389 362.6384683935432 201.79310563938344 361.0104249357113 198.72700000000003 359.94699999999995 C 195.9850257190616 358.9622404810559 193.09243552440793 358.4627712335935 190.17900000000003 358.47099999999995 C 175.28500000000003 358.47099999999995 163.18900000000002 371.13999999999993 163.18900000000002 386.76099999999997 C 163.18900000000002 402.382 175.28900000000002 415.04999999999995 190.17900000000003 415.04999999999995 C 193.09247681090213 415.05871888879466 195.98515118354607 414.5592351061528 198.72700000000003 413.57399999999996 L 198.72700000000003 400.63899999999995 C 196.7830054147126 401.6310479135393 194.6304836157439 402.1452671679513 192.44800000000004 402.13899999999995 C 184.34000000000003 402.13899999999995 177.77400000000003 395.239 177.77400000000003 386.739 C 177.77400000000003 378.239 184.33900000000003 371.339 192.44800000000004 371.339 C 194.63040756933765 371.33338610160206 196.78277797960288 371.8475691905331 198.72700000000003 372.839 C 203.92570188405577 375.5121847922324 207.16736936290732 380.8936702760538 207.10000000000002 386.739 L 207.10000000000002 411.239 C 207.10000000000002 412.7964429945228 208.36255700547719 414.05899999999997 209.92000000000002 414.05899999999997 L 218.954 414.05899999999997 C 219.69660617155074 414.05899999999997 220.40879712766784 413.7640008469768 220.93389898732235 413.23889898732233 C 221.45900084697686 412.7137971276678 221.75400000000002 412.0016061715507 221.75400000000002 411.25899999999996 L 221.75400000000002 362.32499999999993 C 221.75400000000002 361.5823938284492 221.45900084697686 360.8702028723321 220.93389898732235 360.34510101267756 C 220.40879712766784 359.8199991530231 219.69660617155074 359.5249999999999 218.954 359.5249999999999" stroke-linecap="round" />
</g>
		<g transform="matrix(1 0 0 1 157.13 147.32)" clip-path="url(#CLIPPATH_10)"  >
<clipPath id="CLIPPATH_10" >
	<path transform="matrix(1 0 0 1 -157.13 -147.32) translate(-186.41, -175.63)" id="1" d="M 0 0 L 372.816 0 L 372.816 351.267 L 0 351.267 z" stroke-linecap="round" />
</clipPath>
<path style="stroke: none; stroke-width: 1; stroke-dasharray: none; stroke-linecap: butt; stroke-dashoffset: 0; stroke-linejoin: miter; stroke-miterlimit: 4; fill: rgb(255,255,255); fill-rule: nonzero; opacity: 1;" vector-effect="non-scaling-stroke"  transform=" translate(-411.58, -386.76)" d="M 438.063 359.527 L 429.031 359.527 C 427.47521747449935 359.53139169063115 426.21494328846774 360.79121912934403 426.21 362.347 L 426.21 364.74699999999996 C 423.7434452736615 362.6384018081577 420.90384061789575 361.01034371598433 417.83799999999997 359.94699999999995 C 415.0960361634901 358.96220088408904 412.2034389634225 358.462730426988 409.28999999999996 358.47099999999995 C 394.39699999999993 358.47099999999995 382.29999999999995 371.13899999999995 382.29999999999995 386.75999999999993 C 382.29999999999995 402.3809999999999 394.4 415.0489999999999 409.28999999999996 415.0489999999999 C 412.2034768109021 415.0577188887946 415.096151183546 414.5582351061528 417.83799999999997 413.5729999999999 L 417.83799999999997 400.6389999999999 C 415.8943464962286 401.63100228895274 413.74215919485334 402.1452235301224 411.55999999999995 402.1389999999999 C 403.44999999999993 402.1389999999999 396.88599999999997 395.2389999999999 396.88599999999997 386.7389999999999 C 396.88599999999997 378.2389999999999 403.45099999999996 371.33899999999994 411.55999999999995 371.33899999999994 C 413.74206970477303 371.3335449517849 415.8940789262748 371.8477236444024 417.83799999999997 372.83899999999994 C 423.0363138798475 375.5124614687913 426.2775605127467 380.8938910193525 426.21 386.7389999999999 L 426.21 411.2389999999999 C 426.2105521463447 412.7966047406552 427.47339516148116 414.05900009786353 429.031 414.0589999999999 L 438.063 414.0589999999999 C 438.8056061715507 414.0589999999999 439.51779712766785 413.7640008469767 440.04289898732236 413.2388989873223 C 440.5680008469768 412.71379712766776 440.863 412.00160617155063 440.863 411.2589999999999 L 440.863 362.32499999999993 C 440.863 361.5823938284492 440.5680008469768 360.8702028723321 440.04289898732236 360.34510101267756 C 439.51779712766785 359.8199991530231 438.8056061715507 359.5249999999999 438.063 359.5249999999999" stroke-linecap="round" />
</g>
		<g transform="matrix(1 0 0 1 0 -49.97)" clip-path="url(#CLIPPATH_11)"  >
<clipPath id="CLIPPATH_11" >
	<path transform="matrix(1 0 0 1 0 49.97) translate(-186.41, -175.63)" id="1" d="M 0 0 L 372.816 0 L 372.816 351.267 L 0 351.267 z" stroke-linecap="round" />
</clipPath>
<path style="stroke: none; stroke-width: 1; stroke-dasharray: none; stroke-linecap: butt; stroke-dashoffset: 0; stroke-linejoin: miter; stroke-miterlimit: 4; fill: rgb(16,244,139); fill-rule: nonzero; opacity: 1;" vector-effect="non-scaling-stroke"  transform=" translate(-201.88, -125.66)" d="M 298.246 129.84 L 291.76 125.25500000000001 L 298.246 120.66900000000001 C 310.50814695674376 111.98238731078104 317.4948316295694 97.64307585196508 316.77869344636287 82.63292481662123 C 316.0625552631564 67.62277378127737 307.7424484539692 54.0137532980044 294.709 46.53399999999999 L 294.141 46.18500000000001 C 281.94106355559626 39.15195292331788 267.11665961056895 38.36540497465566 254.24099999999999 44.06800000000002 L 247.18800000000002 47.21200000000001 L 246.358 39.52500000000001 C 244.84424010040942 25.503162243897194 236.73458002165992 13.043734873000556 224.526 5.983000000000025 L 224.32600000000002 5.8960000000000115 C 217.64616168077765 2.0246360871603093 210.06059625607818 -0.00958995413998398 202.33999999999997 -3.552713678800501e-15 C 194.29042997579745 0.0010034294192468958 186.39362796414932 2.1978633235528697 179.49999999999997 6.354000000000013 L 178.386 7.031000000000001 C 166.8025496823484 14.12187109912815 159.10231029395766 26.125033732352136 157.486 39.609999999999985 L 156.569 47.21 L 149.60199999999998 44.11 C 136.71839931720504 38.36249341599406 121.86136508152177 39.13360174944769 109.64199999999995 46.18400000000001 L 108.94199999999996 46.577999999999996 C 95.33792512958092 54.46887262580879 86.95565060584866 68.99807229214899 86.93399999999997 84.725 L 86.93399999999997 85.512 C 86.95916244761919 99.7950346294029 93.88827419857742 113.18461175590511 105.53399999999995 121.454 L 112 126.04 L 105.537 130.626 C 93.27668700946812 139.30035754704977 86.28196659242897 153.6245183742684 86.98053840961136 168.6269098801618 C 87.67911022679374 183.6293013860552 95.97465947057994 197.24148562887558 108.98799999999999 204.739 L 109.621 205.132 C 121.8418785414796 212.14569894965754 136.67097901731725 212.92541579282485 149.56000000000003 207.232 L 156.614 204.109 L 157.421 211.79600000000002 C 158.93341579815157 225.77259090404013 166.99844537674556 238.19846033578096 179.148 245.27100000000002 L 179.432 245.424 C 193.35948160408108 253.46249740466936 210.56108880614147 253.27083177198605 224.30599999999998 244.924 L 225.398 244.269 C 236.9923276641956 237.1892441911733 244.69632766841295 225.18021949560404 246.298 211.69 L 247.198 204.09 L 254.185 207.213 C 267.0993020133923 212.9432790137332 281.9745481279988 212.1561660332266 294.212 205.095 L 294.823 204.72299999999998 C 308.42739027430605 196.8421516041288 316.81221508700867 182.31917182904698 316.835 166.59699999999998 L 316.835 165.789 C 316.8075895508558 151.5102898144488 309.8865351515675 138.1236752595535 298.25199999999995 129.846 M 292 166.591 C 291.9855433292174 173.45166788041462 288.3267401630249 179.787932023033 282.392 183.23000000000002 L 281.738 183.62400000000002 C 275.7776753830515 187.03029933162622 268.4603246169485 187.03029933162622 262.5 183.62400000000002 L 244.61599999999999 173.27300000000002 L 221.77499999999998 186.48400000000004 L 221.77499999999998 206.61700000000005 C 221.75561110122808 213.3230885930683 218.25901161024467 219.53913928500708 212.53799999999998 223.03800000000004 L 211.42399999999998 223.71500000000003 C 205.42758540939778 227.3414061141591 197.93472915483133 227.42489411127104 191.85899999999998 223.93300000000002 L 191.61899999999997 223.78000000000003 C 185.67848824375173 220.34080641949498 182.01168695736357 214.0051982570637 181.98899999999998 207.14100000000002 L 181.98899999999998 186.484 L 159.14799999999997 173.273 L 141.26399999999995 183.624 C 135.31930035425432 187.0313447400668 128.0136996457456 187.0313447400668 122.06899999999996 183.624 L 121.39199999999995 183.209 C 115.46942564478239 179.80598813076057 111.80147348634007 173.51196824474567 111.76028870271179 166.6814718799957 C 111.71910391908351 159.85097551524572 115.31089199732804 153.51318270045974 121.19199999999995 150.039 L 139.83999999999995 139.012 L 139.68699999999995 112.699 L 121.38699999999996 102.13 C 115.44050948370402 98.70704030568913 111.77014812047298 92.37328484004288 111.75699999999996 85.512 L 111.75699999999996 84.725 C 111.77539481350337 77.85964234708409 115.4433447463896 71.52204951912 121.38699999999996 68.086 L 122.04199999999996 67.67099999999999 C 127.99480402810816 64.26460183866143 135.30619597189175 64.26460183866143 141.25899999999996 67.67099999999999 L 159.14299999999997 78.02199999999999 L 181.98399999999998 64.833 L 181.98399999999998 44.7 C 182.02733438880298 37.994886096733495 185.52743332394067 31.786728328976345 191.242 28.27900000000001 L 192.356 27.602000000000004 C 198.34156234652488 23.96442501908408 205.83442924443858 23.880463811007786 211.9 27.382999999999996 L 212.14000000000001 27.514000000000003 C 218.09616380295887 30.94826665164735 221.76725684012607 37.299676941599905 221.77 44.17500000000001 L 221.77 64.833 L 244.61100000000002 78.02199999999999 L 262.5 67.671 C 268.4603246169485 64.2647006683738 275.7776753830515 64.2647006683738 281.738 67.67100000000002 L 282.392 68.08600000000001 C 288.3030115923677 71.49780871159808 291.96093306855977 77.78879197970863 292.00208390692944 84.61365852332273 C 292.0432347452992 91.43852506693682 288.46144000247625 97.77316052810744 282.592 101.25600000000001 L 263.92199999999997 112.28300000000002 L 264.075 138.596 L 282.396 149.165 C 288.33173024033954 152.5953170986041 291.99118841723856 158.92735333180988 292 165.783 z" stroke-linecap="round" />
</g>
		<g transform="matrix(1 0 0 1 0 -80.41)" clip-path="url(#CLIPPATH_12)"  >
<clipPath id="CLIPPATH_12" >
	<path transform="matrix(1 0 0 1 0 80.41) translate(-186.41, -175.63)" id="1" d="M 0 0 L 372.816 0 L 372.816 351.267 L 0 351.267 z" stroke-linecap="round" />
</clipPath>
<path style="stroke: none; stroke-width: 1; stroke-dasharray: none; stroke-linecap: butt; stroke-dashoffset: 0; stroke-linejoin: miter; stroke-miterlimit: 4; fill: rgb(16,244,139); fill-rule: nonzero; opacity: 1;" vector-effect="non-scaling-stroke"  transform=" translate(-218.72, -111.2)" d="M 255.89 111.218 L 218.724 132.65 L 181.559 111.218 L 218.724 89.755 z" stroke-linecap="round" />
</g>
		<g transform="matrix(1 0 0 1 -26.33 -34.8)" clip-path="url(#CLIPPATH_13)"  >
<clipPath id="CLIPPATH_13" >
	<path transform="matrix(1 0 0 1 26.33 34.8) translate(-186.41, -175.63)" id="1" d="M 0 0 L 372.816 0 L 372.816 351.267 L 0 351.267 z" stroke-linecap="round" />
</clipPath>
<path style="stroke: none; stroke-width: 1; stroke-dasharray: none; stroke-linecap: butt; stroke-dashoffset: 0; stroke-linejoin: miter; stroke-miterlimit: 4; fill: rgb(16,244,139); fill-rule: nonzero; opacity: 1;" vector-effect="non-scaling-stroke"  transform=" translate(-190.72, -164.36)" d="M 209.3 153.613 L 209.3 196.54 L 172.13400000000001 175.077 L 172.13400000000001 132.177 z" stroke-linecap="round" />
</g>
		<g transform="matrix(1 0 0 1 26.33 -34.8)" clip-path="url(#CLIPPATH_14)"  >
<clipPath id="CLIPPATH_14" >
	<path transform="matrix(1 0 0 1 -26.33 34.8) translate(-186.41, -175.63)" id="1" d="M 0 0 L 372.816 0 L 372.816 351.267 L 0 351.267 z" stroke-linecap="round" />
</clipPath>
<path style="stroke: none; stroke-width: 1; stroke-dasharray: none; stroke-linecap: butt; stroke-dashoffset: 0; stroke-linejoin: miter; stroke-miterlimit: 4; fill: rgb(16,244,139); fill-rule: nonzero; opacity: 1;" vector-effect="non-scaling-stroke"  transform=" translate(-254.77, -164.36)" d="M 273.357 132.181 L 273.357 175.08100000000002 L 236.19100000000003 196.54000000000002 L 236.19100000000003 153.61300000000003 z" stroke-linecap="round" />
</g>
</g>
</g>
</svg>
