<svg width="96" height="96" viewBox="0 0 36 36" fill="none" xmlns="http://www.w3.org/2000/svg"><g clip-path="url(#a)"><rect width="36" height="36" rx="18" fill="#54FFF5"/><g filter="url(#b)"><path d="M1.896 27.928c-6.02 16.936 26.181 12.153 43.035 7.644 17.248-5.724 5.326-30.957-7.045-31.515-12.37-.559 1.534 11.667-8.974 15.16-10.509 3.491-19.491-12.46-27.016 8.71" fill="#fff"/></g><g filter="url(#c)"><path d="M12.025-6.445C8.867-15.073-2.379-3.375-7.608 3.552-12.595 11.087.423 17.598 5.53 14.067c5.107-3.532-4.436-4.22-1.399-8.812s11.842-.915 7.895-11.7" fill="#00FFF0" fill-opacity=".67"/></g><g filter="url(#d)"><path d="M13.568 31.7c-4.308-14.494-22.86-6.861-31.599-1.234C-26.436 37.13-6.479 56.298 1.81 55.317c8.29-.98-6.65-9.324-1.53-13.388 5.118-4.063 18.672 7.886 13.288-10.23" fill="#9D81FF"/></g><g filter="url(#e)"><path d="M39.673-15.098c-9.291-11.064-22.592-1.915-28.081 4.042C6.788-4.31 31.539 8.046 38.408 5.928s-9.367-6.5-6.444-10.611c2.922-4.112 19.324 3.415 7.71-10.415" fill="#4D94FF"/></g><path fill-rule="evenodd" clip-rule="evenodd" d="M13.105 21.493h6.115l-6.956-7.001 7.045-7.001 1.92-1.866H14.88L6.797 13.75a1.045 1.045 0 0 0 .004 1.48zm3.676-6.985h-.047zm0 0 6.955 7-7.045 7.001-1.92 1.866h6.348l8.084-8.124a1.045 1.045 0 0 0-.004-1.48l-6.304-6.263z" fill="#000"/></g><defs><filter id="b" x="-12.69" y="-9.807" width="80.094" height="63.481" filterUnits="userSpaceOnUse" color-interpolation-filters="sRGB"><feFlood flood-opacity="0" result="BackgroundImageFix"/><feBlend in="SourceGraphic" in2="BackgroundImageFix" result="shape"/><feGaussianBlur stdDeviation="6.923" result="effect1_foregroundBlur_2029_330"/></filter><filter id="c" x="-22.572" y="-23.342" width="49.443" height="52.243" filterUnits="userSpaceOnUse" color-interpolation-filters="sRGB"><feFlood flood-opacity="0" result="BackgroundImageFix"/><feBlend in="SourceGraphic" in2="BackgroundImageFix" result="shape"/><feGaussianBlur stdDeviation="6.923" result="effect1_foregroundBlur_2029_330"/></filter><filter id="d" x="-33.901" y="9.511" width="62.557" height="59.688" filterUnits="userSpaceOnUse" color-interpolation-filters="sRGB"><feFlood flood-opacity="0" result="BackgroundImageFix"/><feBlend in="SourceGraphic" in2="BackgroundImageFix" result="shape"/><feGaussianBlur stdDeviation="6.923" result="effect1_foregroundBlur_2029_330"/></filter><filter id="e" x="-2.868" y="-34.139" width="60.496" height="54.155" filterUnits="userSpaceOnUse" color-interpolation-filters="sRGB"><feFlood flood-opacity="0" result="BackgroundImageFix"/><feBlend in="SourceGraphic" in2="BackgroundImageFix" result="shape"/><feGaussianBlur stdDeviation="6.923" result="effect1_foregroundBlur_2029_330"/></filter><clipPath id="a"><rect width="36" height="36" rx="18" fill="#fff"/></clipPath></defs></svg>
