<svg xmlns="http://www.w3.org/2000/svg" fill="none" class="logo" viewBox="0 0 500 500">
  <g fill="#fff">
    <path d="M307.382 358.988H153.698v13.428h153.684v-13.428zm-115.22 83.526H76.885v13.43h115.277v-13.43zm-76.984-83.468h-76.7v13.428h76.7v-13.428zm192.204-38.864H192.105v13.428h115.277v-13.428zm-153.797 0H76.942v13.428h76.643v-13.428zM307.38 146.585H115.236v13.428H307.38v-13.428zm-153.795-44.664h-76.7v13.428h76.7v-13.428z"/>
    <path d="M409.287 231.022v-.34A153.91 153.91 0 0 0 276.144.3h-160.91v19.232H276.6a134.58 134.58 0 0 1 106.653 53.207 134.574 134.574 0 0 1 22.564 117.033 117.661 117.661 0 0 0-63.274-132.566A117.668 117.668 0 0 0 291.45 45.42H153.7v19.232h137.92a98.265 98.265 0 0 1 93.597 128.078 76.986 76.986 0 0 0-13.255-66.509 76.985 76.985 0 0 0-60.713-30.218H191.764v19.402H310.68a57.81 57.81 0 0 1 50.186 86.316 154.248 154.248 0 0 0-53.714-9.673H153.528v19.23h153.625a134.624 134.624 0 0 1 132.234 109.474 115.392 115.392 0 0 0-112.32-89.559H115.179v19.062h212.175a96.05 96.05 0 0 1 62.678 23.55 96.055 96.055 0 0 1 32.058 58.781 76.87 76.87 0 0 0-75.505-62.986H115.292v19.233h231.236a57.637 57.637 0 1 1 0 115.276H76.885v19.232h269.7a76.872 76.872 0 0 0 75.504-62.988 96.047 96.047 0 0 1-95.021 82.163H230.34v19.23h96.727a115.44 115.44 0 0 0 110.838-83.697A134.673 134.673 0 0 1 307.44 480.466H115.463V499.7h191.69a153.629 153.629 0 0 0 149.901-190.401 153.642 153.642 0 0 0-47.482-78.388l-.285.112z"/>
  </g>
</svg>
