<svg xmlns="http://www.w3.org/2000/svg" xml:space="preserve" fill-rule="evenodd" stroke-linejoin="round" stroke-miterlimit="2" clip-rule="evenodd" viewBox="0 0 30 30">
  <path fill="#03ceaa" d="M10.898 0v5.108L7.367 1.575l-.08-.079-.079.079-5.633 5.636-.08.08.08.079 3.531 3.533H0v8.195h5.106L1.575 22.63l-.08.079.08.08 5.633 5.636.079.079.08-.079 3.531-3.533V30h8.19v-5.108l3.531 3.533.08.079.079-.079 5.633-5.636.08-.08-.08-.079-3.531-3.532h5.106v-8.195H24.88l3.531-3.533.08-.079-.08-.08-5.633-5.636-.079-.079-.08.079-3.531 3.533V0h-8.19Zm1.651 6.543h4.888V1.652h-4.888v4.891Zm6.693.748 3.457-3.458 3.456 3.458-3.456 3.458-3.457-3.458Zm-15.411 0 3.456-3.458 3.457 3.458-3.457 3.458-3.456-3.458Zm4.36 10.528v-5.638l3.985-3.986h5.635l3.984 3.986v5.638l-3.984 3.986h-5.635l-3.985-3.986Zm15.256-.374h4.888v-4.89h-4.888v4.89Zm-21.796 0H6.54v-4.89H1.651v4.89Zm17.591 5.264 3.457-3.458 3.456 3.458-3.456 3.459-3.457-3.459Zm-15.411 0 3.456-3.458 3.457 3.458-3.457 3.459-3.456-3.459Zm8.718 5.639h4.888v-4.89h-4.888v4.89Z"/>
</svg>
