<?xml version="1.0" encoding="UTF-8"?>
<svg version="1.1" xmlns="http://www.w3.org/2000/svg" width="1500" height="1500">
<path d="M0 0 C389.07 0 778.14 0 1179 0 C1185.435 11.385 1185.435 11.385 1192 23 C1194.28051034 26.94523607 1196.56493281 30.88497704 1198.875 34.8125 C1205.67100718 46.41815142 1212.39590883 58.06394691 1219.10888672 69.71777344 C1222.23680148 75.14659942 1225.36858448 80.57319281 1228.5 86 C1229.75001879 88.16665583 1231.00001878 90.3333225 1232.25 92.5 C1232.86875 93.5725 1233.4875 94.645 1234.125 95.75 C1299.74999999 209.49999999 1299.74999999 209.49999999 1301.6262207 212.75219727 C1302.8720577 214.91159395 1304.11798818 217.07093669 1305.36401367 219.23022461 C1308.55348953 224.75767597 1311.74116885 230.28615121 1314.92578125 235.81640625 C1315.571521 236.93700439 1316.21726074 238.05760254 1316.88256836 239.2121582 C1318.15415253 241.41961546 1319.42452765 243.62776968 1320.69360352 245.83666992 C1323.47239382 250.66423877 1326.26982456 255.47496149 1329.1640625 260.234375 C1329.87405396 261.40891235 1329.87405396 261.40891235 1330.59838867 262.60717773 C1331.45872764 264.02403131 1332.32797506 265.43553466 1333.20825195 266.84008789 C1335.34705008 270.36875871 1336.83843549 272.8723176 1336 277 C1334.73318788 279.51275911 1333.42601124 281.81245949 1331.9375 284.1875 C1331.01144165 285.71258388 1330.08707128 287.23869354 1329.1640625 288.765625 C1328.65649414 289.60029297 1328.14892578 290.43496094 1327.62597656 291.29492188 C1324.61691283 296.30099187 1321.72208637 301.37319594 1318.8125 306.4375 C1317.51710163 308.68629847 1316.22152635 310.93499505 1314.92578125 313.18359375 C1314.27561035 314.31265137 1313.62543945 315.44170898 1312.95556641 316.60498047 C1309.80667946 322.0716998 1306.65316736 327.53574887 1303.5 333 C1302.2499765 335.16665311 1300.99997653 337.33331979 1299.75 339.5 C1297.25 343.83333333 1294.75 348.16666667 1292.25 352.5 C1291.63116943 353.57266113 1291.01233887 354.64532227 1290.37475586 355.75048828 C1289.12564482 357.91557071 1287.87645871 360.08060982 1286.62719727 362.24560547 C1283.48797691 367.68615706 1280.35009437 373.12747216 1277.21484375 378.5703125 C1271.19252671 389.02206199 1265.15330663 399.46299548 1259.0625 409.875 C1253.98724877 418.55262241 1248.97741233 427.26605568 1244 436 C1238.4599827 445.72115617 1232.86625191 455.40894658 1227.21655273 465.06689453 C1221.06233258 475.59084625 1214.97630004 486.15380137 1208.89111328 496.71777344 C1205.76319852 502.14659942 1202.63141552 507.57319281 1199.5 513 C1198.24998121 515.16665583 1196.99998122 517.3333225 1195.75 519.5 C1168.25 567.16666667 1140.75 614.83333333 1113.25 662.5 C1112.63116943 663.57266113 1112.01233887 664.64532227 1111.37475586 665.75048828 C1110.12564482 667.91557071 1108.87645871 670.08060982 1107.62719727 672.24560547 C1104.48797691 677.68615706 1101.35009437 683.12747216 1098.21484375 688.5703125 C1092.19252671 699.02206199 1086.15330663 709.46299548 1080.0625 719.875 C1074.98724877 728.55262241 1069.97741233 737.26605568 1065 746 C1059.4599827 755.72115617 1053.86625191 765.40894658 1048.21655273 775.06689453 C1042.06233258 785.59084625 1035.97630004 796.15380137 1029.89111328 806.71777344 C1026.76319852 812.14659942 1023.63141552 817.57319281 1020.5 823 C1019.24998121 825.16665583 1017.99998122 827.3333225 1016.75 829.5 C994.25 868.5 971.75 907.5 949.25 946.5 C948.63116943 947.57266113 948.01233887 948.64532227 947.37475586 949.75048828 C946.12564482 951.91557071 944.87645871 954.08060982 943.62719727 956.24560547 C940.48797691 961.68615706 937.35009437 967.12747216 934.21484375 972.5703125 C928.19252671 983.02206199 922.15330663 993.46299548 916.0625 1003.875 C910.98724877 1012.55262241 905.97741233 1021.26605568 901 1030 C895.4599827 1039.72115617 889.86625191 1049.40894658 884.21655273 1059.06689453 C878.06233258 1069.59084625 871.97630004 1080.15380137 865.89111328 1090.71777344 C862.76319852 1096.14659942 859.63141552 1101.57319281 856.5 1107 C855.24998121 1109.16665583 853.99998122 1111.3333225 852.75 1113.5 C830.25 1152.5 807.75 1191.5 785.25 1230.5 C784.32127075 1232.10983765 784.32127075 1232.10983765 783.3737793 1233.75219727 C782.1279423 1235.91159395 780.88201182 1238.07093669 779.63598633 1240.23022461 C776.44651047 1245.75767597 773.25883115 1251.28615121 770.07421875 1256.81640625 C764.45024164 1266.58011894 758.82522407 1276.34303524 753.125 1286.0625 C752.71403076 1286.76511963 752.30306152 1287.46773926 751.87963867 1288.19165039 C749.12047717 1292.87952283 749.12047717 1292.87952283 748 1294 C746.24590288 1294.10909893 744.48739663 1294.14765276 742.729949 1294.15936089 C741.5798876 1294.16936902 740.42982621 1294.17937715 739.24491447 1294.18968856 C737.96538039 1294.19564328 736.6858463 1294.20159799 735.36753845 1294.20773315 C734.00706514 1294.21746759 732.64659468 1294.22760635 731.28612715 1294.23811734 C727.52993075 1294.26572246 723.77372154 1294.28678251 720.01747715 1294.30663323 C716.79990303 1294.32440061 713.58235714 1294.34582645 710.36480509 1294.36717294 C679.864024 1294.5684644 649.36254597 1294.67202173 618.86124325 1294.75568962 C614.88934713 1294.76677825 610.91745165 1294.77807047 606.94555664 1294.78955078 C605.46471238 1294.79381758 605.46471238 1294.79381758 603.95395208 1294.79817058 C587.9641266 1294.8456426 571.97496224 1294.94194296 555.98549681 1295.05712186 C539.57766792 1295.17433539 523.17018279 1295.24235388 506.76194578 1295.26382077 C497.54578897 1295.2772299 488.3308628 1295.31303794 479.11512566 1295.405056 C471.26518653 1295.48342343 463.41662162 1295.51798503 455.56629693 1295.4950311 C451.56018752 1295.48471346 447.55706295 1295.49549019 443.55144691 1295.56312943 C439.88129333 1295.62462738 436.21617685 1295.62576848 432.54584569 1295.57947291 C430.59404468 1295.57037665 428.64226743 1295.62532084 426.69128937 1295.68271911 C423.03449009 1295.59977373 420.38897402 1295.38931875 417 1294 C413.43772016 1290.0174065 411.31364631 1285.82275672 409 1281 C407.77281054 1278.79378562 406.49229296 1276.62493605 405.2109375 1274.44921875 C403.93042328 1272.19637346 402.65183389 1269.94243321 401.375 1267.6875 C399.9690968 1265.21390363 398.56102435 1262.74154681 397.15234375 1260.26953125 C396.80166336 1259.65392334 396.45098297 1259.03831543 396.0896759 1258.40405273 C392.74437809 1252.53835699 389.34800562 1246.70300524 385.9375 1240.875 C379.20771319 1229.3713931 372.54344175 1217.83076481 365.89111328 1206.28222656 C362.76319852 1200.85340058 359.63141552 1195.42680719 356.5 1190 C355.24998121 1187.83334417 353.99998122 1185.6666775 352.75 1183.5 C351.821875 1181.89125 351.821875 1181.89125 350.875 1180.25 C255.25 1014.50000001 255.25 1014.50000001 253.37475586 1011.24951172 C252.12564482 1009.08442929 250.87645871 1006.91939018 249.62719727 1004.75439453 C246.48797691 999.31384294 243.35009437 993.87252784 240.21484375 988.4296875 C234.19252671 977.97793801 228.15330663 967.53700452 222.0625 957.125 C216.64078822 947.85500223 211.29795085 938.54168248 205.98077393 929.21154785 C200.77954871 920.0871716 195.51972122 910.99867226 190.21655273 901.93310547 C184.06233258 891.40915375 177.97630004 880.84619863 171.89111328 870.28222656 C168.76319852 864.85340058 165.63141552 859.42680719 162.5 854 C161.24998121 851.83334417 159.99998122 849.6666775 158.75 847.5 C158.13125 846.4275 157.5125 845.355 156.875 844.25 C76.25 704.5 76.25 704.5 74.37475586 701.24951172 C73.12564482 699.08442929 71.87645871 696.91939018 70.62719727 694.75439453 C67.48797691 689.31384294 64.35009437 683.87252784 61.21484375 678.4296875 C55.19252671 667.97793801 49.15330663 657.53700452 43.0625 647.125 C37.64078822 637.85500223 32.29795085 628.54168248 26.98077393 619.21154785 C21.77954871 610.0871716 16.51972122 600.99867226 11.21655273 591.93310547 C5.06233258 581.40915375 -1.02369996 570.84619863 -7.10888672 560.28222656 C-10.23680148 554.85340058 -13.36858448 549.42680719 -16.5 544 C-17.75001879 541.83334417 -19.00001878 539.6666775 -20.25 537.5 C-20.86875 536.4275 -21.4875 535.355 -22.125 534.25 C-102.75 394.5 -102.75 394.5 -104.62524414 391.24951172 C-105.87435518 389.08442929 -107.12354129 386.91939018 -108.37280273 384.75439453 C-111.51202309 379.31384294 -114.64990563 373.87252784 -117.78515625 368.4296875 C-124.36873389 357.00386852 -130.9808477 345.59593015 -137.640625 334.21435547 C-140.8743821 328.67691225 -144.08068824 323.124755 -147.2578125 317.5546875 C-147.61700272 316.92499054 -147.97619293 316.29529358 -148.3462677 315.64651489 C-150.09514069 312.57872881 -151.84117102 309.50935917 -153.58374023 306.43798828 C-154.21739502 305.32407715 -154.8510498 304.21016602 -155.50390625 303.0625 C-156.39746826 301.48275391 -156.39746826 301.48275391 -157.30908203 299.87109375 C-158.78506247 297.36495312 -160.3658741 295.00882289 -162.02734375 292.625 C-163.80418872 289.79619761 -164.00011044 288.99443494 -164.0703125 285.45703125 C-162.84043053 281.48460227 -161.07479733 278.17931709 -158.875 274.6875 C-157.95800324 273.18067957 -157.04275232 271.67279582 -156.12890625 270.1640625 C-155.62762207 269.34196289 -155.12633789 268.51986328 -154.60986328 267.67285156 C-151.60249157 262.67972062 -148.71573844 257.61663391 -145.8125 252.5625 C-144.51712034 250.31369075 -143.22154486 248.06499429 -141.92578125 245.81640625 C-141.27561035 244.68734863 -140.62543945 243.55829102 -139.95556641 242.39501953 C-136.80667946 236.9283002 -133.65316736 231.46425113 -130.5 226 C-129.2499765 223.83334689 -127.99997653 221.66668021 -126.75 219.5 C-124.25 215.16666667 -121.75 210.83333333 -119.25 206.5 C-118.63116943 205.42733887 -118.01233887 204.35467773 -117.37475586 203.24951172 C-116.12564482 201.08442929 -114.87645871 198.91939018 -113.62719727 196.75439453 C-110.48797691 191.31384294 -107.35009437 185.87252784 -104.21484375 180.4296875 C-98.19252671 169.97793801 -92.15330663 159.53700452 -86.0625 149.125 C-80.98724877 140.44737759 -75.97741233 131.73394432 -71 123 C-65.4599827 113.27884383 -59.86625191 103.59105342 -54.21655273 93.93310547 C-48.06233258 83.40915375 -41.97630004 72.84619863 -35.89111328 62.28222656 C-32.76319851 56.85340057 -29.63140434 51.42681365 -26.5 46 C-25.26430886 43.85808102 -24.02863183 41.71615391 -22.79296875 39.57421875 C-20.49750542 35.59537568 -18.20176586 31.61669227 -15.90567017 27.63821411 C-14.87326522 25.84933082 -13.84092044 24.06041283 -12.80859375 22.27148438 C-11.51314052 20.02662364 -10.2175743 17.7818281 -8.921875 15.53710938 C-8.04208984 14.0124707 -8.04208984 14.0124707 -7.14453125 12.45703125 C-6.63253174 11.56991455 -6.12053223 10.68279785 -5.59301758 9.76879883 C-3.72180666 6.51647652 -1.86161423 3.25782491 0 0 Z " fill="#010000" transform="translate(164,103)"/>
<path d="M0 0 C79.2 0 158.4 0 240 0 C249 16 249 16 250 21 C250.66 21 251.32 21 252 21 C252.58007812 22.03898437 253.16015625 23.07796875 253.7578125 24.1484375 C254.54660519 25.55744275 255.33568718 26.96628606 256.125 28.375 C256.73589478 29.46687622 256.73589478 29.46687622 257.35913086 30.58081055 C260.11955606 35.49385591 262.9820209 40.32399496 266.00390625 45.08203125 C267 47 267 47 267 50 C461.7 50 656.4 50 857 50 C855.51338481 54.45984558 854.27228191 57.5588997 851.953125 61.484375 C851.355 62.50273437 850.756875 63.52109375 850.140625 64.5703125 C849.51671875 65.61960937 848.8928125 66.66890625 848.25 67.75 C847.33734375 69.30074219 847.33734375 69.30074219 846.40625 70.8828125 C843.6112136 75.62481871 840.7906184 80.35051656 837.9453125 85.0625 C834.73646514 90.40132127 831.67598201 95.81984533 828.625 101.25 C827.47546505 103.28917787 826.32572628 105.32824086 825.17578125 107.3671875 C824.62744629 108.34010742 824.07911133 109.31302734 823.51416016 110.31542969 C818.4053791 119.37317824 813.20545682 128.3737343 807.92333984 137.33129883 C801.29719253 148.57456173 794.73827338 159.85565875 788.375 171.25 C785.12571147 177.06683246 781.75456269 182.79750394 778.30419922 188.49707031 C775.12082136 193.76524857 772.07607685 199.10293225 769.0390625 204.45703125 C766.87894552 208.23776385 764.62942536 211.96248984 762.375 215.6875 C759.29356649 220.78554105 756.35136973 225.93113134 753.53125 231.1796875 C744.23605497 248.29991916 744.23605497 248.29991916 739 256 C738.34 256 737.68 256 737 256 C736.76796875 256.65742187 736.5359375 257.31484375 736.296875 257.9921875 C734.60564588 261.91461649 732.44911158 265.46927083 730.25 269.125 C727.47000491 273.79681283 724.6973965 278.45948916 722.125 283.25 C714.47904268 297.45268608 706.23066425 311.3340875 698.08105469 325.25097656 C694.14393174 331.99190754 690.31126118 338.78184438 686.54858398 345.62133789 C683.3606077 351.39909348 680.03487208 357.08709849 676.66992188 362.76318359 C673.96770631 367.32975927 671.33381368 371.9280217 668.75 376.5625 C665.06031297 383.17318927 661.26293672 389.71702841 657.4375 396.25 C652.1744926 405.24022131 646.97249908 414.26295209 641.8125 423.3125 C634.44891796 436.22355645 627.03484873 449.10334102 619.53125 461.93359375 C614.10836266 471.20793877 608.69074635 480.47930925 603.46118164 489.86425781 C600.15830331 495.76906278 596.7349485 501.60140332 593.3125 507.4375 C588.44644111 515.74027867 583.67999708 524.09098965 579 532.5 C573.81562777 541.81300455 568.51235359 551.04772253 563.12036133 560.24194336 C559.26251289 566.82272327 555.45728579 573.43091724 551.6875 580.0625 C547.88452149 586.75079805 544.0028598 593.38057398 540.01269531 599.95874023 C537.37628971 604.32188256 534.93361679 608.76521409 532.52734375 613.2578125 C530.77700852 616.4003581 528.90060598 619.44609625 527 622.5 C524.05779514 627.2297331 521.32236115 632.01230867 518.6953125 636.921875 C516.16008175 641.52501287 513.47079268 646.03555554 510.77783203 650.54785156 C507.95701028 655.29644261 505.29198095 660.1146329 502.66015625 664.97021484 C499.85075721 670.09736809 496.94537099 675.16967441 494.04101562 680.2434082 C492.99968692 682.06304708 491.9606769 683.8839958 490.921875 685.70507812 C487.95859468 690.89204994 484.97997633 696.06629582 481.890625 701.1796875 C478.73034878 706.41109616 475.73827894 711.73150473 472.75 717.0625 C468.39537159 724.80122563 463.98223678 732.49821559 459.45800781 740.13891602 C456.2700926 745.52519153 453.16354084 750.95320448 450.0703125 756.39453125 C447.32725711 761.19554852 444.50497642 765.95052006 441.67578125 770.70117188 C439.40992285 774.52621007 437.23299313 778.38661218 435.1171875 782.296875 C431.95524234 788.12869454 428.61577416 793.84659208 425.25 799.5625 C419.72989276 808.97829654 414.36657802 818.46647791 409.09521484 828.02294922 C404.31494964 836.65214842 399.32541755 845.15092825 394.22338867 853.59301758 C391.52292071 858.08008458 388.95398201 862.62310772 386.484375 867.2421875 C385.14499638 869.73061199 383.78092139 872.20277763 382.40722656 874.67236328 C381.73122406 875.88800461 381.73122406 875.88800461 381.04156494 877.12820435 C380.69784851 877.74589691 380.35413208 878.36358948 380 879 C349.78250531 879.20530439 319.56504629 879.36458195 289.34701165 879.45958797 C285.77967979 879.47084435 282.21234932 879.48249325 278.64501953 879.49438477 C277.93482708 879.49674556 277.22463463 879.49910635 276.49292119 879.50153869 C264.99280902 879.54070301 253.49310167 879.61166486 241.99322967 879.69437516 C230.19363647 879.77853347 218.39425531 879.82852763 206.5943743 879.84679645 C199.96624177 879.85803878 193.33886266 879.8861961 186.71100998 879.95157051 C180.47439402 880.01258845 174.23907574 880.03151852 168.00218964 880.01796913 C165.71158168 880.02044835 163.42093105 880.03839471 161.1305809 880.07284927 C158.00442984 880.11757645 154.88318989 880.1068967 151.75692749 880.08229065 C150.39407452 880.12161401 150.39407452 880.12161401 149.00368917 880.16173178 C146.3810841 880.10585079 144.44623528 879.95639648 142 879 C139.4060949 876.28350263 137.71193351 873.32342854 136 870 C135.28149318 868.76060601 134.55968945 867.52310588 133.83203125 866.2890625 C133.15555908 865.0695303 132.48246994 863.84811638 131.8125 862.625 C131.04016474 861.23376253 130.26667497 859.84316551 129.4921875 858.453125 C129.08967773 857.73060547 128.68716797 857.00808594 128.27246094 856.26367188 C126.03240913 852.27868333 123.7341645 848.32754692 121.4375 844.375 C118.53434015 839.37867794 115.63962444 834.37882699 112.79077148 829.35131836 C109.35221987 823.28343754 105.77481844 817.3253022 102.0546875 811.42578125 C100.34934992 808.58247126 98.74553367 805.72313522 97.16796875 802.80859375 C94.04844809 797.04704003 90.76073891 791.39582101 87.4375 785.75 C82.59957685 777.4953987 77.8228108 769.2101599 73.125 760.875 C72.58101562 759.91005615 72.03703125 758.9451123 71.4765625 757.95092773 C69.98367727 755.30101059 68.49171096 752.65057829 67 750 C62.41636491 741.85804232 57.70019752 733.81311675 52.875 725.8125 C49.34131187 719.95206577 45.88115507 714.08419728 42.65625 708.046875 C35.39316388 694.68553732 27.61595078 681.59444712 19.94042969 668.46777344 C16.22789933 662.11614072 12.55858831 655.74298756 8.921875 649.34765625 C6.64439288 645.38057866 4.32498456 641.43936294 2 637.5 C-1.61893143 631.36822408 -5.17640442 625.20551149 -8.6953125 619.015625 C-11.04455458 614.90391985 -13.44320612 610.82153482 -15.83813477 606.73632812 C-21.4320144 597.19180444 -26.93219976 587.60417443 -32.3125 577.9375 C-36.41323875 570.56993718 -40.5644732 563.25197567 -44.94824219 556.04907227 C-47.39369865 552.03014252 -49.74747681 547.96959884 -52.0625 543.875 C-54.66064858 539.29337418 -57.34251703 534.7845362 -60.125 530.3125 C-63.02304557 525.64529871 -65.71358776 520.92050811 -68.3046875 516.078125 C-70.45687931 512.17045876 -72.72562168 508.33746296 -75 504.5 C-77.71755953 499.91103129 -80.41244752 495.32379331 -82.9375 490.625 C-85.98729229 484.95136406 -89.2303437 479.39619111 -92.47143555 473.83056641 C-95.13146525 469.25354702 -97.76220213 464.662099 -100.35546875 460.046875 C-100.92064209 459.04108398 -101.48581543 458.03529297 -102.06811523 456.99902344 C-103.15494056 455.06106984 -104.23926521 453.12171076 -105.32055664 451.18066406 C-108.5104268 445.49426375 -111.87346066 439.96320474 -115.42602539 434.49560547 C-117.50414353 431.20065842 -119.32829508 427.79507356 -121.16796875 424.36328125 C-128.38288455 411.11798806 -136.07943858 398.13062735 -143.69921875 385.1159668 C-148.40104212 377.06786509 -153.00661043 368.96809981 -157.56225586 360.83642578 C-160.50822917 355.58880595 -163.5354418 350.40214269 -166.64697266 345.25097656 C-168.37262396 342.38008068 -170.03566602 339.47640939 -171.6875 336.5625 C-175.39760876 330.03681463 -179.15557591 323.5395179 -182.92358398 317.04711914 C-185.3912296 312.79168508 -187.84036801 308.52701165 -190.26220703 304.24536133 C-192.93652895 299.52002089 -195.67859285 294.87364121 -198.625 290.3125 C-201.41035818 285.99644949 -203.91910753 281.59717157 -206.34375 277.0703125 C-209.80100213 270.66134982 -213.4129962 264.33698799 -217 258 C-217.33789551 257.4028418 -217.67579102 256.80568359 -218.02392578 256.19042969 C-221.83332085 249.46752119 -225.70209553 242.78221686 -229.625 236.125 C-238.6293345 220.84241392 -247.61496469 205.55789269 -256.25 190.0625 C-263.00943757 177.93324121 -269.92769138 165.92358785 -277.25 154.125 C-280.05194576 149.59963523 -282.6663579 145.02220643 -285.1796875 140.33203125 C-289.1962745 132.97978079 -293.41615264 125.73939426 -297.58398438 118.47216797 C-298.7939413 116.35975008 -300.00020816 114.24533762 -301.203125 112.12890625 C-305.0750089 105.3216307 -309.01868234 98.56108221 -313.00170898 91.81860352 C-316.97337407 85.07878532 -320.85466807 78.28850575 -324.72265625 71.48876953 C-328.04789253 65.64675593 -331.4283988 59.84416485 -334.890625 54.08203125 C-336 52 -336 52 -336 50 C-257.46 50 -178.92 50 -98 50 C-95.36 54.62 -92.72 59.24 -90 64 C-86.93601932 68.96755264 -86.93601932 68.96755264 -83.86328125 73.9296875 C-81.65642249 77.56614659 -79.62078029 81.27247785 -77.609375 85.01953125 C-68.87338524 101.19807539 -59.60079588 117.11085673 -50.07568359 132.83544922 C-47.32950464 137.39072829 -44.76248306 142.02229102 -42.2890625 146.73046875 C-41.0593098 149.02038933 -41.0593098 149.02038933 -39.4609375 150.98828125 C-37.83057111 153.23330449 -37.01749697 155.42494997 -36 158 C-34.95369396 159.73125896 -33.86743729 161.43877706 -32.75 163.125 C-29.90458626 167.52404455 -27.32884963 171.97854063 -24.85546875 176.59375 C-18.47048676 188.31523273 -11.77827784 199.86289401 -4.71484375 211.1875 C-2.59344907 214.66678056 -0.66745192 218.22995453 1.2578125 221.8203125 C4.88795739 228.4457339 8.73678807 234.94887601 12.53564453 241.47851562 C13.97501931 243.95698556 15.40852618 246.43874463 16.83984375 248.921875 C21.10512906 256.31801372 25.39378417 263.69428972 29.8125 271 C32.77676706 275.90372269 35.59215033 280.86305841 38.3046875 285.91015625 C43.45778367 295.30208959 48.95525204 304.50967687 54.3671875 313.75390625 C60.85499838 324.84118956 67.2831797 335.95579277 73.56201172 347.16308594 C76.93653245 353.1741912 80.42186266 359.10781019 84 365 C86.20437634 362.17623896 88.04128253 359.3032791 89.78515625 356.17578125 C90.31101318 355.23766602 90.83687012 354.29955078 91.37866211 353.33300781 C92.21216187 351.83785645 92.21216187 351.83785645 93.0625 350.3125 C97.11757644 343.08203481 101.20656672 335.87911436 105.4375 328.75 C108.65576392 323.32421417 111.77624684 317.8642298 114.74609375 312.296875 C115.15988281 311.53890625 115.57367187 310.7809375 116 310 C116.4905989 308.7100423 116.4905989 308.7100423 116.99110889 307.39402485 C119 305 119 305 120.83671415 304.54188097 C123.36879089 304.36501308 125.85804159 304.35842931 128.39616394 304.39872742 C129.37061268 304.39445529 130.34506141 304.39018317 131.3490389 304.38578159 C134.62923096 304.37751568 137.90815729 304.40509685 141.18823242 304.43237305 C143.53347239 304.43378273 145.87871457 304.4329931 148.22395325 304.43016052 C154.60392937 304.42872188 160.98343852 304.45818466 167.36330581 304.49303031 C173.35118147 304.52106124 179.33905723 304.52614198 185.32698599 304.53128967 C197.18837525 304.54223669 209.04959271 304.57552177 220.91088867 304.62280273 C232.4339919 304.66868789 243.95704849 304.70408486 255.48022461 304.7253418 C256.19034139 304.72665541 256.90045816 304.72796903 257.63209363 304.72932246 C261.19449039 304.73584758 264.75688748 304.74216613 268.3192848 304.74838197 C297.87963411 304.80022761 327.43981403 304.88867518 357 305 C355.46770445 308.92878495 353.68568599 312.53298299 351.62890625 316.21875 C351.14441261 317.08929016 351.14441261 317.08929016 350.65013123 317.97741699 C349.96988477 319.19844743 349.28822432 320.41869109 348.60522461 321.63818359 C347.56652074 323.49282085 346.53189878 325.34968572 345.49804688 327.20703125 C342.72663131 332.1767253 339.94226657 337.1288456 337 342 C334.28269629 346.59889126 331.57841328 351.2054335 328.875 355.8125 C328.29925735 356.7934967 328.29925735 356.7934967 327.71188354 357.79431152 C323.08002479 365.69076663 318.48300093 373.6024962 314.03173828 381.60253906 C311.11266735 386.83799768 308.06838071 391.99456536 305.01220703 397.15087891 C301.40389706 403.26246257 297.91519008 409.43835648 294.4375 415.625 C290.87113301 421.96709659 287.28357751 428.28475175 283.5 434.5 C277.92280556 443.66458143 272.72398072 453.0461996 267.46582031 462.39599609 C262.4705976 471.26992105 257.37384917 480.08061344 252.19799805 488.85009766 C243.56116126 503.50958726 235.11281031 518.28069842 226.6875 533.0625 C223.06275822 539.42100914 219.4018822 545.75592904 215.6875 552.0625 C215.28329834 552.7531958 214.87909668 553.4438916 214.46264648 554.15551758 C212.60745939 557.31755119 210.7262814 560.45247895 208.75390625 563.54296875 C208.09261719 564.60128906 207.43132813 565.65960937 206.75 566.75 C205.87601563 568.10351562 205.87601563 568.10351562 204.984375 569.484375 C203.74093948 571.95304324 203.74093948 571.95304324 204.59375 574.4453125 C206.22275563 577.40467273 207.94109355 580.27141501 209.75 583.125 C212.88610314 588.12471858 215.79444732 593.20475292 218.58203125 598.40625 C219.93212116 600.87583595 221.3498835 603.2831989 222.8125 605.6875 C225.38782622 609.92842681 227.83167168 614.23111895 230.25 618.5625 C233.73657993 624.80210633 237.32207249 630.97455892 240.97192383 637.11987305 C243.50894404 641.41084631 245.98339376 645.7320136 248.41796875 650.08203125 C249.0015918 651.12415771 249.58521484 652.16628418 250.18652344 653.23999023 C251.33610824 655.29824713 252.48143394 657.35888979 253.62207031 659.42211914 C254.14768555 660.3630542 254.67330078 661.30398926 255.21484375 662.2734375 C255.68011475 663.11310059 256.14538574 663.95276367 256.62475586 664.81787109 C257.9126853 666.86145593 259.2190454 668.38202357 261 670 C268.86604904 656.63277519 276.63202109 643.22671607 284.11572266 629.64086914 C287.3774714 623.75575224 290.83858845 618.06288191 294.48779297 612.41040039 C296.19453425 609.68991981 297.6209475 606.89890916 299 604 C300.25517191 601.74122581 301.52688427 599.49158639 302.8125 597.25 C303.1636084 596.63729248 303.5147168 596.02458496 303.87646484 595.39331055 C305.91871402 591.84098682 308.00027805 588.31632907 310.125 584.8125 C312.05373663 581.6270068 313.87267382 578.4106116 315.625 575.125 C319.0347583 568.79259172 322.770437 562.66115437 326.51025391 556.52001953 C329.65152233 551.33811065 332.62366821 546.09052314 335.50390625 540.75927734 C337.9502108 536.24750612 340.4741134 531.78007064 343 527.3125 C343.5561499 526.32846191 344.1122998 525.34442383 344.68530273 524.33056641 C349.33334188 516.13012979 354.07161785 507.98432059 358.83349609 499.84960938 C364.13530586 490.78774492 369.35093165 481.67838949 374.54541016 472.5546875 C399.88129472 428.05742397 399.88129472 428.05742397 409.14355469 412.77929688 C411.67517295 408.58819679 414.02784172 404.32269094 416.33984375 400.0078125 C418.4827906 396.12529702 420.73962465 392.31500759 423 388.5 C425.71749279 383.91098868 428.41244533 379.32379738 430.9375 374.625 C433.98962714 368.94702046 437.23631974 363.38833393 440.47802734 357.81738281 C444.22538469 351.3657599 447.90322153 344.87691702 451.5625 338.375 C455.66981907 331.08016149 459.84225809 323.83319217 464.11914062 316.63671875 C468.51237863 309.20417805 472.68371033 301.64827103 476.8828125 294.10498047 C480.73408064 287.20584744 484.68612229 280.39288632 488.83984375 273.671875 C490.89480679 270.27213681 492.75923098 266.77101233 494.63500977 263.27050781 C494.95913094 262.66703522 495.28325211 262.06356262 495.61719513 261.44180298 C496.41211056 259.96154933 497.20614368 258.48082192 498 257 C497.26320782 257.00433928 496.52641565 257.00867855 495.76729643 257.01314932 C452.09391911 257.26819948 408.42097487 257.43458887 364.74685869 257.48592833 C359.50229939 257.49217002 354.25774132 257.49915208 349.01318359 257.5065918 C347.44704549 257.50879479 347.44704549 257.50879479 345.84926824 257.51104229 C328.9456721 257.53658498 312.0428847 257.62209619 295.13963516 257.72979213 C277.79377789 257.83897237 260.44861795 257.88365644 243.10241926 257.86853737 C232.39914903 257.86123921 221.6985052 257.90417285 210.99576037 258.0114845 C203.65522913 258.08026416 196.31630749 258.08636151 188.97558685 258.04335362 C184.73976514 258.02038263 180.50870016 258.02486541 176.27344894 258.10386848 C151.53553782 258.53938239 151.53553782 258.53938239 145.70408964 254.35097384 C142.1621315 250.42669868 140.28942544 246.14356593 138.73432994 241.14099205 C137.56673621 237.73678809 135.74602202 234.88069445 133.875 231.8125 C132.58221335 229.54230409 131.29054831 227.2714691 130 225 C128.6264411 222.58251012 127.25114267 220.16601982 125.875 217.75 C124.97394531 216.16445313 124.97394531 216.16445313 124.0546875 214.546875 C122.46243585 211.77464035 120.82434474 209.03206609 119.17578125 206.29296875 C115.83741421 200.74538823 112.57027537 195.15769267 109.3125 189.5625 C108.70019531 188.51191406 108.08789062 187.46132813 107.45703125 186.37890625 C103.35962734 179.34502953 99.27679339 172.3028338 95.20239258 165.25561523 C91.31593058 158.53704685 87.41013509 151.82981454 83.5 145.125 C82.89994141 144.09568359 82.29988281 143.06636719 81.68164062 142.00585938 C80.83375977 140.55276367 80.83375977 140.55276367 79.96875 139.0703125 C79.46794922 138.21195801 78.96714844 137.35360352 78.45117188 136.46923828 C77.4311356 134.73359782 76.38285857 133.01439725 75.31445312 131.30810547 C74 129 74 129 74 127 C73.34 127 72.68 127 72 127 C71.61070312 126.18660156 71.22140625 125.37320313 70.8203125 124.53515625 C66.37206163 115.42341657 61.39666077 106.72857282 56.19921875 98.02685547 C54.44491449 95.06182412 52.75532116 92.06309488 51.0625 89.0625 C47.9450405 83.57374778 44.68584673 78.18651532 41.375 72.8125 C38.00524851 67.33722075 34.74582212 61.84802316 31.72265625 56.171875 C29.21546047 51.55545103 26.60617455 46.9986031 24 42.4375 C23.50121338 41.56246826 23.00242676 40.68743652 22.48852539 39.78588867 C19.54947294 34.6477289 16.54633597 29.55373905 13.49072266 24.48413086 C11.01899515 20.36525968 8.60023908 16.21611803 6.1875 12.0625 C5.69830078 11.22654297 5.20910156 10.39058594 4.70507812 9.52929688 C4.23908203 8.72685547 3.77308594 7.92441406 3.29296875 7.09765625 C2.66684692 6.02269897 2.66684692 6.02269897 2.02807617 4.92602539 C1 3 1 3 0 0 Z " fill="#EB1B24" transform="translate(486,439)"/>
<path d="M0 0 C315.81 0 631.62 0 957 0 C955.64529159 3.38677104 954.42807707 6.17988185 952.63671875 9.2734375 C952.1687085 10.08635254 951.70069824 10.89926758 951.21850586 11.73681641 C950.71327393 12.60741699 950.20804199 13.47801758 949.6875 14.375 C948.598396 16.26530112 947.50987477 18.1559381 946.421875 20.046875 C945.85791016 21.02591797 945.29394531 22.00496094 944.71289062 23.01367188 C941.92789391 27.86915646 939.18445175 32.74792698 936.4375 37.625 C920.88393747 65.18205685 920.88393747 65.18205685 912.65625 78.23828125 C910.96113169 80.98387172 910.96113169 80.98387172 909.55078125 83.90625 C907.77177891 87.45529245 905.75780045 90.80339714 903.6875 94.1875 C901.05087999 98.53683701 898.4659494 102.89085011 896.0625 107.375 C893.63209996 111.90377822 891.05888373 116.3304345 888.4375 120.75 C884.36735221 127.61656957 880.41325555 134.5429102 876.5 141.5 C872.2245867 149.09816657 867.88933782 156.65356396 863.44824219 164.15600586 C860.34449144 169.40099164 857.31671722 174.68610586 854.3046875 179.984375 C851.95512 184.09664971 849.55612284 188.17959294 847.16088867 192.26538086 C840.87989213 202.98214338 834.72369127 213.75886048 828.70654297 224.6262207 C825.97146988 229.55137824 823.17747713 234.40088078 820.15454102 239.15478516 C818.25389375 242.19244471 816.50562091 245.3145205 814.75 248.4375 C811.13297872 254.86702128 811.13297872 254.86702128 810 256 C806.94072956 256.09803082 803.90402112 256.12990898 800.84434509 256.12025452 C799.87160521 256.12110894 798.89886532 256.12196337 797.89664847 256.12284368 C794.61068684 256.12450144 791.32477535 256.11897229 788.03881836 256.11352539 C785.6938731 256.11324356 783.34892775 256.11340118 781.00398254 256.1139679 C774.61580807 256.11425602 768.2276522 256.10835693 761.83948207 256.10139394 C755.84648813 256.09579345 749.8534942 256.09477212 743.86049814 256.09374207 C731.98699198 256.09155123 720.11349267 256.08489031 708.23999023 256.07543945 C696.70320673 256.06626614 685.16642508 256.05918491 673.62963867 256.05493164 C672.91899645 256.05466892 672.20835422 256.05440619 671.47617739 256.05413551 C667.91123907 256.05283051 664.34630075 256.05156679 660.78136241 256.05032361 C631.1875704 256.03995002 601.59378552 256.02225674 572 256 C573.10229267 253.7735476 574.20695786 251.54832527 575.31298828 249.32373047 C575.62178421 248.69939621 575.93058014 248.07506195 576.24873352 247.43180847 C578.87027543 242.16652099 581.77965199 237.12647512 584.875 232.125 C590.15718044 223.53596975 595.04726235 214.80486693 600 206 C363.06 206 126.12 206 -118 206 C-112.38095238 194.76190476 -112.38095238 194.76190476 -110.01171875 190.7578125 C-109.47844971 189.85119873 -108.94518066 188.94458496 -108.39575195 188.01049805 C-107.83202881 187.05828369 -107.26830566 186.10606934 -106.6875 185.125 C-101.3323996 176.01437465 -96.04501904 166.86878971 -90.8125 157.6875 C-73.62731803 127.5590189 -73.62731803 127.5590189 -65.7578125 114.89453125 C-63.58881522 111.32291573 -61.59373307 107.67674212 -59.6171875 103.99609375 C-54.38086344 94.2949813 -48.92145041 84.72397778 -43.18237305 75.31152344 C-41.2708803 72.16676621 -39.42946727 68.99629545 -37.65234375 65.7734375 C-34.63881087 60.31104792 -31.47194639 54.94137068 -28.3125 49.5625 C-23.53020292 41.39818453 -18.84059047 33.19358365 -14.27783203 24.90478516 C-11.76690454 20.35142607 -9.18320549 15.857995 -6.44921875 11.43359375 C-4.21038445 7.67404181 -2.12501997 3.82503594 0 0 Z " fill="#EB1B23" transform="translate(210,183)"/>
<path d="M0 0 C2.91093445 -0.5289917 2.91093445 -0.5289917 6.69018555 -0.73730469 C7.37839386 -0.77790009 8.06660217 -0.81849548 8.77566528 -0.86032104 C16.01588411 -1.25862891 23.26719344 -1.4365722 30.51586914 -1.59960938 C33.9468375 -1.68395091 37.36406526 -1.8361898 40.78930664 -2.05078125 C68.29065151 -3.73313167 68.29065151 -3.73313167 75.98590088 2.36694336 C80.92051351 8.20521338 83.97173957 14.70379679 86.70874023 21.79281616 C88.71091683 26.76574924 91.34805498 31.35085751 94 36 C94.75948756 37.37146956 95.5176479 38.7436766 96.2734375 40.1171875 C100.40842372 47.53048254 104.69228747 54.80548223 109.1796875 62.01171875 C111.33572936 65.55114369 113.29980888 69.16890034 115.2578125 72.8203125 C118.88795739 79.4457339 122.73678807 85.94887601 126.53564453 92.47851562 C127.97501931 94.95698556 129.40852618 97.43874463 130.83984375 99.921875 C135.10512698 107.3180101 139.39364108 114.69437856 143.8125 122 C146.79311542 126.9287596 149.61953298 131.91528439 152.33984375 136.9921875 C154.89894696 141.62868038 157.61779097 146.16945691 160.3190918 150.72412109 C162.71420111 154.77473359 165.03381562 158.84757032 167.25 163 C169.4789664 167.15570006 171.96116618 171.04385618 174.6171875 174.9375 C177.03459987 178.54313202 179.33281942 182.20656963 180.8515625 186.2890625 C182.53230674 190.2565336 184.91123824 193.76025875 187.25390625 197.359375 C190 201.68472413 190 201.68472413 190 205 C88.36 205 -13.28 205 -118 205 C-113.50573937 196.01147873 -113.50573937 196.01147873 -111.6328125 192.88671875 C-111.22530762 192.2019043 -110.81780273 191.51708984 -110.39794922 190.81152344 C-109.97787598 190.1105957 -109.55780273 189.40966797 -109.125 188.6875 C-106.28910255 183.9172372 -103.49164062 179.1454183 -100.875 174.25 C-98.1059067 169.08728368 -95.02328846 164.14498446 -91.9296875 159.171875 C-89.71096328 155.5249032 -87.68799786 151.80032396 -85.671875 148.0390625 C-83.64585109 144.35624334 -81.51683299 140.74132557 -79.375 137.125 C-75.48498821 130.55260632 -71.65910089 123.94645156 -67.875 117.3125 C-67.10506714 115.96297241 -67.10506714 115.96297241 -66.31958008 114.58618164 C-64.1816537 110.83578932 -62.04665973 107.08376678 -59.91796875 103.328125 C-55.95850327 96.35946575 -51.90465801 89.45389124 -47.8125 82.5625 C-42.74355325 74.02150094 -37.81346871 65.41133084 -32.94873047 56.75268555 C-28.44374818 48.74840593 -23.82940675 40.81152636 -19.18676758 32.88647461 C-14.64441353 25.1261145 -10.16806186 17.32985158 -5.73022461 9.50927734 C-5.26753174 8.69539551 -4.80483887 7.88151367 -4.328125 7.04296875 C-3.72339355 5.97598755 -3.72339355 5.97598755 -3.10644531 4.88745117 C-2.13021074 3.22212251 -1.07078023 1.60617035 0 0 Z " fill="#EB1B24" transform="translate(1224,184)"/>
<path d="M0 0 C315.81 0 631.62 0 957 0 C955 5 955 5 953 7 C953 5.35 953 3.7 953 2 C638.84 2 324.68 2 1 2 C0.34 3.65 -0.32 5.3 -1 7 C-1.99 7.495 -1.99 7.495 -3 8 C-1.125 2.25 -1.125 2.25 0 0 Z " fill="#AF242A" transform="translate(210,183)"/>
<path d="M0 0 C0.33 0 0.66 0 1 0 C1.66 2.64 2.32 5.28 3 8 C0.35261084 9.4606285 -0.89448334 10 -4 10 C-4 11.32 -4 12.64 -4 14 C230.96 14.33 465.92 14.66 708 15 C708.33 15.66 708.66 16.32 709 17 C472.06 17 235.12 17 -9 17 C-6.09023326 11.18046651 -3.27446419 5.57871677 0 0 Z " fill="#DC222A" transform="translate(101,372)"/>
<path d="M0 0 C2.63744638 1.31872319 3.20619668 2.8111975 4.625 5.375 C5.07101562 6.16648437 5.51703125 6.95796875 5.9765625 7.7734375 C7 10 7 10 7 13 C201.7 13 396.4 13 597 13 C595 19 595 19 593 20 C592.34 18.68 591.68 17.36 591 16 C397.95 15.67 204.9 15.34 6 15 C5.01 13.02 4.02 11.04 3 9 C2.01 9.66 1.02 10.32 0 11 C0 7.33333333 0 3.66666667 0 0 Z " fill="#D22732" transform="translate(746,476)"/>
<path d="M0 0 C0.66 0 1.32 0 2 0 C2 0.99 2 1.98 2 3 C2.66 3 3.32 3 4 3 C4 4.32 4 5.64 4 7 C4.66 7 5.32 7 6 7 C6 7.99 6 8.98 6 10 C7.65 9.67 9.3 9.34 11 9 C11 9.99 11 10.98 11 12 C125.84 12 240.68 12 359 12 C359 16.67325155 357.92757363 18.82359047 356 23 C355.34 23 354.68 23 354 23 C355.875 17.25 355.875 17.25 357 15 C356.26206866 15.00244067 355.52413732 15.00488135 354.76384443 15.00739598 C311.04044339 15.15048698 267.31730999 15.23115044 223.59366271 15.23060168 C218.34523795 15.23058988 213.09681336 15.23110034 207.84838867 15.23193359 C206.28107018 15.23216926 206.28107018 15.23216926 204.68208868 15.23240969 C187.75728825 15.23620039 170.83285376 15.28231155 153.90817677 15.34402815 C136.5454061 15.40640156 119.18302032 15.42337628 101.82015377 15.39809489 C91.10361713 15.38392528 80.38835492 15.40528194 69.67201097 15.47190216 C62.3260979 15.51417923 54.98102326 15.51240837 47.63508271 15.47584674 C43.39447558 15.45604647 39.15621829 15.45581297 34.91583252 15.50784111 C31.0324699 15.5550601 27.15328657 15.54692018 23.27002228 15.49485454 C21.86611741 15.48578116 20.46190368 15.49697897 19.058371 15.53055301 C14.77410923 15.62636035 11.0257457 15.52807877 7 14 C3.61352598 10.22704393 0 5.27478837 0 0 Z " fill="#C22D34" transform="translate(627,681)"/>
<path d="M0 0 C1.9375 0.75 1.9375 0.75 4 2 C4.8125 4.0625 4.8125 4.0625 5 6 C4 7 4 7 1.88807243 7.1241985 C0.94674573 7.12381878 0.00541903 7.12343906 -0.96443272 7.12304783 C-2.58719823 7.1260344 -2.58719823 7.1260344 -4.24274689 7.12908131 C-6.04766858 7.12471205 -6.04766858 7.12471205 -7.88905334 7.12025452 C-9.78918683 7.12153615 -9.78918683 7.12153615 -11.72770685 7.12284368 C-15.25994667 7.12509102 -18.79215645 7.12106411 -22.32439244 7.11606562 C-26.12740972 7.11176472 -29.93042518 7.11320729 -33.73344421 7.1139679 C-40.32778897 7.11449336 -46.92212387 7.11134422 -53.51646614 7.10573006 C-63.05088857 7.09761809 -72.58530621 7.09500015 -82.11973172 7.09374207 C-97.58706669 7.09155107 -113.0543964 7.08488969 -128.52172852 7.07543945 C-143.5506996 7.06626657 -158.57966926 7.05918513 -173.60864258 7.05493164 C-174.53434848 7.05466892 -175.46005439 7.05440619 -176.41381199 7.05413551 C-181.05760343 7.05283051 -185.70139489 7.05156679 -190.34518635 7.05032361 C-228.89679459 7.0399495 -267.44839695 7.02232989 -306 7 C-306 6.34 -306 5.68 -306 5 C-204.36 5 -102.72 5 2 5 C1.34 3.35 0.68 1.7 0 0 Z " fill="#4E0407" transform="translate(1412,384)"/>
<path d="M0 0 C0.6875 1.6875 0.6875 1.6875 1 4 C-0.66365404 7.32730807 -2.75617099 10.00822798 -5 13 C72.22 13 149.44 13 229 13 C229.33 11.35 229.66 9.7 230 8 C230.99 8 231.98 8 233 8 C233 7.01 233 6.02 233 5 C233.66 5 234.32 5 235 5 C232.79487206 12.46350995 232.79487206 12.46350995 230 15 C226.87729897 15.61363174 223.77666227 15.52131837 220.60383606 15.48101807 C219.62938732 15.48443577 218.65493859 15.48785347 217.6509611 15.49137473 C214.37093493 15.49798712 211.09171892 15.4759217 207.81176758 15.45410156 C205.4665275 15.45297381 203.12128601 15.45360552 200.77604675 15.45587158 C194.39613973 15.45702248 188.01653156 15.43345214 181.63669419 15.40557575 C175.64881215 15.38315098 169.66093004 15.37908641 163.67301401 15.37496826 C151.81165656 15.36621067 139.95040906 15.33958259 128.08911133 15.30175781 C116.56600495 15.26504968 105.04292842 15.23673208 93.51977539 15.21972656 C92.80965861 15.21867567 92.09954184 15.21762477 91.36790637 15.21654204 C87.8055095 15.21132194 84.24311242 15.20626709 80.6807152 15.20129442 C51.12040582 15.15981797 21.56020484 15.08905991 -8 15 C-6.85657478 12.68628057 -5.71038936 10.37400323 -4.5625 8.0625 C-4.23701172 7.40314453 -3.91152344 6.74378906 -3.57617188 6.06445312 C-1.11328125 1.11328125 -1.11328125 1.11328125 0 0 Z " fill="#C22C35" transform="translate(790,424)"/>
<path d="M0 0 C78.54 0 157.08 0 238 0 C236.33516769 4.16208077 234.51455762 7.8899777 232.375 11.8125 C232.05015625 12.40998047 231.7253125 13.00746094 231.390625 13.62304688 C230.59620849 15.08337135 229.79844624 16.54187491 229 18 C228.67 18 228.34 18 228 18 C228 16.35 228 14.7 228 13 C228.66 13 229.32 13 230 13 C230.144375 12.236875 230.28875 11.47375 230.4375 10.6875 C231 8 231 8 232 5 C232.66 5 233.32 5 234 5 C234 4.34 234 3.68 234 3 C118.665 2.505 118.665 2.505 1 2 C0.67 3.32 0.34 4.64 0 6 C-0.99 6.33 -1.98 6.66 -3 7 C-1.125 2.25 -1.125 2.25 0 0 Z " fill="#C11F1E" transform="translate(605,744)"/>
<path d="M0 0 C1 3 1 3 0.00390625 5.26171875 C-0.47175781 6.06222656 -0.94742188 6.86273437 -1.4375 7.6875 C-2.14712891 8.89986328 -2.14712891 8.89986328 -2.87109375 10.13671875 C-3.24363281 10.75160156 -3.61617187 11.36648438 -4 12 C-34.2686764 12.11399302 -64.53734184 12.20251213 -94.80618434 12.25532665 C-98.37738171 12.26158039 -101.94857866 12.26805198 -105.51977539 12.2746582 C-106.23075478 12.27596976 -106.94173416 12.27728131 -107.67425837 12.2786326 C-119.1956479 12.3004061 -130.71691305 12.33983823 -142.23822872 12.38576398 C-154.05477511 12.43247472 -165.87125625 12.46028396 -177.68789119 12.47044247 C-184.32742678 12.47669542 -190.96673056 12.49238685 -197.60618019 12.52865028 C-203.84993691 12.56247763 -210.09329377 12.5730797 -216.33713341 12.56553841 C-218.63378952 12.56691889 -220.9304584 12.57692968 -223.22703552 12.59602737 C-226.35313391 12.62075745 -229.47770532 12.61497799 -232.60383606 12.60127258 C-233.97979681 12.62311889 -233.97979681 12.62311889 -235.38355476 12.64540654 C-237.70219879 12.61776334 -239.75247415 12.57004376 -242 12 C-244.08726025 9.46242046 -244.08726025 9.46242046 -245 7 C-244.34 6.67 -243.68 6.34 -243 6 C-243 6.99 -243 7.98 -243 9 C-164.46 9.33 -85.92 9.66 -5 10 C-5 9.01 -5 8.02 -5 7 C-4.34 7 -3.68 7 -3 7 C-2.814375 6.1028125 -2.814375 6.1028125 -2.625 5.1875 C-2 3 -2 3 0 0 Z " fill="#A7141C" transform="translate(870,1306)"/>
<path d="M0 0 C79.2 0 158.4 0 240 0 C240.33 1.32 240.66 2.64 241 4 C240.01 3.505 240.01 3.505 239 3 C235.92620863 2.89159458 232.87446679 2.84507733 229.80001831 2.84178162 C228.3518775 2.83437465 228.3518775 2.83437465 226.87448132 2.82681805 C223.61928493 2.81138357 220.36410835 2.80306637 217.10888672 2.79467773 C214.78349634 2.78510388 212.45810771 2.7750941 210.13272095 2.76467896 C203.80247396 2.7375704 197.47221947 2.71659312 191.14194632 2.69667697 C185.20187271 2.67706308 179.2618191 2.65290341 173.32176246 2.62875474 C161.55420222 2.58106373 149.78663002 2.53780365 138.01904297 2.49731445 C126.58609078 2.4579672 115.15314924 2.41654283 103.72021484 2.37231445 C103.01580933 2.36959018 102.31140382 2.36686591 101.58565269 2.36405908 C98.05195301 2.35037973 94.51825349 2.33665943 90.98455405 2.32291877 C61.65639188 2.2089303 32.32820561 2.10219975 3 2 C3.66 2.66 4.32 3.32 5 4 C6.1875 5.875 6.1875 5.875 7 8 C6.67 9.32 6.34 10.64 6 12 C4.02 8.04 2.04 4.08 0 0 Z " fill="#C02E33" transform="translate(486,439)"/>
<path d="M0 0 C1 2 1 2 0 7 C99.33 7 198.66 7 301 7 C301.33 6.34 301.66 5.68 302 5 C302.33 6.32 302.66 7.64 303 9 C201.36 9 99.72 9 -5 9 C-1 1 -1 1 0 0 Z " fill="#D0252F" transform="translate(1111,380)"/>
<path d="M0 0 C9.4139771 -0.23195945 18.82696756 -0.4095049 28.24318123 -0.51812172 C32.61594865 -0.57026125 36.98675813 -0.6409357 41.35839844 -0.75439453 C45.57961016 -0.86326038 49.79894269 -0.92288057 54.02145004 -0.94877243 C55.63004022 -0.96721524 57.23853015 -1.00323586 58.84631729 -1.05730057 C63.73715764 -1.21518413 68.24649661 -1.24978011 73 0 C76.12043607 2.94371457 77.73174683 5.92269614 79 10 C79 10.66 79 11.32 79 12 C78.01 12 77.02 12 76 12 C76 10.68 76 9.36 76 8 C75.34 8 74.68 8 74 8 C73.87625 7.360625 73.7525 6.72125 73.625 6.0625 C73.315625 5.0415625 73.315625 5.0415625 73 4 C72.01 3.505 72.01 3.505 71 3 C71 2.34 71 1.68 71 1 C47.9 1 24.8 1 1 1 C0.34 2.98 -0.32 4.96 -1 7 C-2.5 9.875 -2.5 9.875 -4 12 C-4.66 12 -5.32 12 -6 12 C-4.43256542 7.68955489 -2.29213067 3.95532304 0 0 Z " fill="#CC252F" transform="translate(1224,184)"/>
<path d="M0 0 C0.99 0 1.98 0 3 0 C-0.76471816 9.88017583 -6.64455972 18.92110273 -12 28 C-12.33 26.68 -12.66 25.36 -13 24 C-12.34 24 -11.68 24 -11 24 C-11 22.68 -11 21.36 -11 20 C-10.34 20 -9.68 20 -9 20 C-9 19.01 -9 18.02 -9 17 C-8.34 17 -7.68 17 -7 17 C-7.020625 16.2575 -7.04125 15.515 -7.0625 14.75 C-6.94257549 9.47332169 -5.55122807 6.98167996 -2 3 C-1.34 2.67 -0.68 2.34 0 2 C0 1.34 0 0.68 0 0 Z " fill="#CA2428" transform="translate(1108,280)"/>
<path d="M0 0 C0.33 1.32 0.66 2.64 1 4 C0.34 4 -0.32 4 -1 4 C-0.6596875 5.11375 -0.6596875 5.11375 -0.3125 6.25 C0 9 0 9 -1.25 11.25 C-3 13 -3 13 -6 14 C-6.94777326 15.76575709 -6.94777326 15.76575709 -7.5625 17.875 C-8.48808088 20.70926461 -9.30105884 22.45158826 -11 25 C-11.66 25 -12.32 25 -13 25 C-13.33 25.99 -13.66 26.98 -14 28 C-14.33 27.34 -14.66 26.68 -15 26 C-13.84423828 23.49389648 -13.84423828 23.49389648 -12.0703125 20.37109375 C-11.43996094 19.25412109 -10.80960938 18.13714844 -10.16015625 16.98632812 C-9.48179471 15.80337172 -8.803409 14.62042918 -8.125 13.4375 C-7.45372772 12.25104646 -6.78314579 11.06420204 -6.11328125 9.87695312 C-1.1788009 1.1788009 -1.1788009 1.1788009 0 0 Z " fill="#C12029" transform="translate(776,1059)"/>
<path d="M0 0 C3.05804466 1.05906309 3.94894032 1.91400475 5.6328125 4.75 C6.12523437 5.8225 6.61765625 6.895 7.125 8 C9.0678902 12.34440016 9.0678902 12.34440016 12 16 C12 16.99 12 17.98 12 19 C12.66 19 13.32 19 14 19 C17.28571429 26.42857143 17.28571429 26.42857143 18 30 C18.66 30 19.32 30 20 30 C20.66 32.31 21.32 34.62 22 37 C18.98825325 34.36182569 17.2783475 31.25488401 15.3125 27.79296875 C14.96872314 27.18995438 14.62494629 26.58694 14.27075195 25.96565247 C13.54574104 24.69185314 12.82305113 23.41673031 12.10253906 22.14038086 C11.0082162 20.20205301 9.90713484 18.26770066 8.8046875 16.33398438 C5.7433697 10.9468382 2.7306911 5.56483339 0 0 Z " fill="#BD282F" transform="translate(449,1008)"/>
<path d="M0 0 C0.6875 1.625 0.6875 1.625 1 4 C-1.33333333 9.66666667 -1.33333333 9.66666667 -4 11 C-4.755368 12.7406306 -5.50668898 14.48339678 -6.21875 16.2421875 C-7.18826748 18.42360183 -8.56003401 20.09924489 -10 22 C-11.40530713 24.63240502 -12.71286245 27.30811843 -14 30 C-14.66 30 -15.32 30 -16 30 C-14.49263127 24.63952582 -11.98708721 20.28118896 -9.125 15.5625 C-8.25221576 14.10570138 -7.37981555 12.64867261 -6.5078125 11.19140625 C-6.08790039 10.49289551 -5.66798828 9.79438477 -5.23535156 9.07470703 C-3.44814672 6.07319187 -1.72191225 3.03937534 0 0 Z " fill="#BF242C" transform="translate(958,742)"/>
<path d="M0 0 C0.33 0.66 0.66 1.32 1 2 C0.29296875 3.84765625 0.29296875 3.84765625 -0.8125 6.0625 C-2.95022156 10.61902761 -4.11272157 15.06159507 -5 20 C-6.65 20 -8.3 20 -10 20 C-10.28875 20.804375 -10.5775 21.60875 -10.875 22.4375 C-12 25 -12 25 -14 26 C-12.65788025 22.444218 -11.07755303 19.20894833 -9.1796875 15.91796875 C-8.64472656 14.98662109 -8.10976563 14.05527344 -7.55859375 13.09570312 C-7.00300781 12.13599609 -6.44742188 11.17628906 -5.875 10.1875 C-5.31167969 9.20845703 -4.74835937 8.22941406 -4.16796875 7.22070312 C-2.78155585 4.81210445 -1.39214945 2.40528605 0 0 Z " fill="#B8222F" transform="translate(973,716)"/>
<path d="M0 0 C0 3.53487596 -0.86246695 4.85736507 -2.625 7.88671875 C-3.43710938 9.2934082 -3.43710938 9.2934082 -4.265625 10.72851562 C-4.83796875 11.70498047 -5.4103125 12.68144531 -6 13.6875 C-6.57234375 14.67556641 -7.1446875 15.66363281 -7.734375 16.68164062 C-9.15052464 19.12449876 -10.57258458 21.56371318 -12 24 C-13.2077558 20.37673261 -12.54311128 19.35853631 -11 16 C-10.34 16 -9.68 16 -9 16 C-9 14.68 -9 13.36 -9 12 C-8.34 12 -7.68 12 -7 12 C-7 11.01 -7 10.02 -7 9 C-6.34 9 -5.68 9 -5 9 C-5.33 6.69 -5.66 4.38 -6 2 C-4.02 1.34 -2.04 0.68 0 0 Z " fill="#C8242B" transform="translate(1056,984)"/>
<path d="M0 0 C1 1 2 2 3 3 C3.4846875 3.43570313 3.969375 3.87140625 4.46875 4.3203125 C6.25337989 6.27794222 7.14306923 8.13349816 8.1875 10.5625 C8.53167969 11.34753906 8.87585938 12.13257813 9.23046875 12.94140625 C10 15 10 15 10 17 C10.66 17 11.32 17 12 17 C12 17.99 12 18.98 12 20 C12.66 20 13.32 20 14 20 C17.28571429 27.42857143 17.28571429 27.42857143 18 31 C14.94385301 28.34945276 13.17890082 25.05532334 11.25 21.5625 C10.54754852 20.30821631 9.84440977 19.05431731 9.140625 17.80078125 C8.78677734 17.16865723 8.43292969 16.5365332 8.06835938 15.88525391 C5.86299939 11.99362003 3.54825441 8.16538906 1.25 4.328125 C0 2 0 2 0 0 Z " fill="#C12728" transform="translate(609,650)"/>
<path d="M0 0 C0.97918775 3.07556958 1.1498998 3.68592423 -0.3125 6.75 C-0.869375 7.4925 -1.42625 8.235 -2 9 C-2.66 9 -3.32 9 -4 9 C-5.07525194 11.65228812 -6.09456151 14.28368454 -7 17 C-7.66 17 -8.32 17 -9 17 C-9 18.32 -9 19.64 -9 21 C-9.66 21 -10.32 21 -11 21 C-11.144375 21.598125 -11.28875 22.19625 -11.4375 22.8125 C-11.8872439 24.56150404 -12.42892341 26.28677023 -13 28 C-13.66 28 -14.32 28 -15 28 C-11.09228576 18.00188429 -5.71371404 9.04553241 0 0 Z " fill="#BD222E" transform="translate(810,1000)"/>
<path d="M0 0 C0.66 0 1.32 0 2 0 C2 0.66 2 1.32 2 2 C2.66 2 3.32 2 4 2 C5.25664978 4.90600261 6 6.79604584 6 10 C6.66 10 7.32 10 8 10 C9.4375 12.1875 9.4375 12.1875 11 15 C11.5775 15.845625 12.155 16.69125 12.75 17.5625 C14.20649349 20.40266231 13.91380179 21.07953887 13 24 C10.99022984 20.67246846 8.99303647 17.33757952 7 14 C6.35417969 12.92234375 5.70835937 11.8446875 5.04296875 10.734375 C4.41003906 9.66703125 3.77710938 8.5996875 3.125 7.5 C2.52945312 6.4996875 1.93390625 5.499375 1.3203125 4.46875 C0 2 0 2 0 0 Z " fill="#C6232D" transform="translate(483,1066)"/>
<path d="M0 0 C0.66 0.33 1.32 0.66 2 1 C-1.22555604 6.66008286 -4.48373122 12.30082882 -7.75 17.9375 C-8.25660156 18.81212891 -8.76320313 19.68675781 -9.28515625 20.58789062 C-10.5232564 22.72536542 -11.76154165 24.86273274 -13 27 C-13.33 25.68 -13.66 24.36 -14 23 C-13.34 23 -12.68 23 -12 23 C-11.71125 21.9275 -11.4225 20.855 -11.125 19.75 C-10.27179891 16.90599636 -9.4363497 14.56491017 -8 12 C-7.34 12 -6.68 12 -6 12 C-5.81824219 11.38511719 -5.63648438 10.77023437 -5.44921875 10.13671875 C-5.19785156 9.32847656 -4.94648437 8.52023437 -4.6875 7.6875 C-4.44386719 6.88699219 -4.20023438 6.08648437 -3.94921875 5.26171875 C-2.95817977 2.90035427 -1.91925057 1.66120007 0 0 Z " fill="#C0242A" transform="translate(1093,309)"/>
<path d="M0 0 C6.88990205 6.34114879 14.18651141 18.82588123 16 28 C15.34 27.67 14.68 27.34 14 27 C14 26.34 14 25.68 14 25 C13.34 25 12.68 25 12 25 C12 23.68 12 22.36 12 21 C11.34 21 10.68 21 10 21 C8.5393715 18.35261084 8 17.10551666 8 14 C7.34 14 6.68 14 6 14 C4.99515796 12.04414675 3.99626195 10.08523763 3 8.125 C2.1646875 6.48917969 2.1646875 6.48917969 1.3125 4.8203125 C0 2 0 2 0 0 Z " fill="#B92529" transform="translate(1303,196)"/>
<path d="M0 0 C0.66 1.32 1.32 2.64 2 4 C1.360625 4.185625 0.72125 4.37125 0.0625 4.5625 C-0.618125 5.036875 -1.29875 5.51125 -2 6 C-2.38063221 8.3260857 -2.71269945 10.66055264 -3 13 C-4.4375 14.9375 -4.4375 14.9375 -6 16 C-6.66 16 -7.32 16 -8 16 C-8.33 17.65 -8.66 19.3 -9 21 C-9.66 21 -10.32 21 -11 21 C-9.53171057 15.82064939 -7.18508737 11.65626588 -4.375 7.125 C-3.95476562 6.43664062 -3.53453125 5.74828125 -3.1015625 5.0390625 C-2.07307528 3.35608342 -1.037279 1.67757468 0 0 Z " fill="#240102" transform="translate(1337,500)"/>
<path d="M0 0 C0.75 1.5625 0.75 1.5625 1 4 C-0.13084437 6.50286409 -1.52139516 8.67007722 -3 11 C-3.66 11 -4.32 11 -5 11 C-5 12.32 -5 13.64 -5 15 C-5.99 15.66 -6.98 16.32 -8 17 C-8.72382467 19.05925139 -8.72382467 19.05925139 -9 21 C-9.66 21 -10.32 21 -11 21 C-10.4532528 17.06342019 -9.36306033 15.12281496 -7 12 C-5.93078549 10.11956553 -4.89004345 8.22271995 -3.875 6.3125 C-1.09915014 1.09915014 -1.09915014 1.09915014 0 0 Z " fill="#AE2128" transform="translate(794,1028)"/>
<path d="M0 0 C3.66201642 1.83100821 4.61079313 6.67569388 6.171875 10.3125 C7.78868741 13.31483121 7.78868741 13.31483121 11.203125 13.875 C12.12609375 13.91625 13.0490625 13.9575 14 14 C14 14.33 14 14.66 14 15 C11.36 15 8.72 15 6 15 C5.01 13.02 4.02 11.04 3 9 C2.01 9.66 1.02 10.32 0 11 C0 7.33333333 0 3.66666667 0 0 Z " fill="#C6202A" transform="translate(746,476)"/>
<path d="M0 0 C1.06528748 2.73019786 1.07998186 3.79298812 0.00390625 6.578125 C-0.47175781 7.45984375 -0.94742188 8.3415625 -1.4375 9.25 C-1.91058594 10.14203125 -2.38367188 11.0340625 -2.87109375 11.953125 C-3.24363281 12.62859375 -3.61617187 13.3040625 -4 14 C-4.99 14 -5.98 14 -7 14 C-7 14.99 -7 15.98 -7 17 C-7.66 17 -8.32 17 -9 17 C-7.68925635 12.53817564 -5.92933989 9.00381243 -3.375 5.125 C-2.74335938 4.15820312 -2.11171875 3.19140625 -1.4609375 2.1953125 C-0.73777344 1.10863281 -0.73777344 1.10863281 0 0 Z " fill="#C2232C" transform="translate(176,243)"/>
<path d="M0 0 C1.98 0 3.96 0 6 0 C5.06385433 1.72990025 4.12602042 3.45888696 3.1875 5.1875 C2.66542969 6.15042969 2.14335938 7.11335938 1.60546875 8.10546875 C0.12365426 10.77706129 -1.35664063 13.42430493 -3 16 C-3.33 16 -3.66 16 -4 16 C-4.1875 13.6875 -4.1875 13.6875 -4 11 C-3.525625 10.566875 -3.05125 10.13375 -2.5625 9.6875 C0.00914674 6.91012153 -0.3030844 3.69762964 0 0 Z " fill="#CC232C" transform="translate(904,1240)"/>
<path d="M0 0 C0.66 0 1.32 0 2 0 C0.53171057 5.17935061 -1.81491263 9.34373412 -4.625 13.875 C-5.04523438 14.56335938 -5.46546875 15.25171875 -5.8984375 15.9609375 C-6.92692472 17.64391658 -7.962721 19.32242532 -9 21 C-9.33 19.68 -9.66 18.36 -10 17 C-9.34 17 -8.68 17 -8 17 C-8 15.68 -8 14.36 -8 13 C-7.34 13 -6.68 13 -6 13 C-5.67 11.02 -5.34 9.04 -5 7 C-4.01 7 -3.02 7 -2 7 C-2 5.68 -2 4.36 -2 3 C-1.34 3 -0.68 3 0 3 C0 2.01 0 1.02 0 0 Z " fill="#C7252F" transform="translate(1337,496)"/>
<path d="M0 0 C1.0326802 2.78823655 1.04509293 3.8677274 0.0625 6.75 C-0.288125 7.4925 -0.63875 8.235 -1 9 C-1.66 9 -2.32 9 -3 9 C-3.66 10.65 -4.32 12.3 -5 14 C-5.66 14 -6.32 14 -7 14 C-7.144375 14.598125 -7.28875 15.19625 -7.4375 15.8125 C-7.8872439 17.56150404 -8.42892341 19.28677023 -9 21 C-9.66 21 -10.32 21 -11 21 C-9.70922066 16.62425805 -8.02218836 13.16896978 -5.5 9.375 C-3.47443849 6.31090907 -1.56216493 3.32741129 0 0 Z " fill="#2D0103" transform="translate(1068,355)"/>
<path d="M0 0 C0.99 0.495 0.99 0.495 2 1 C2 1.66 2 2.32 2 3 C2.99 3.33 3.98 3.66 5 4 C5.84375 5.671875 5.84375 5.671875 6.5 7.75 C8.45104872 13.87632396 8.45104872 13.87632396 13 18 C13 19.65 13 21.3 13 23 C9.4777579 18.8880247 6.86663378 14.52158847 4.25 9.8125 C3.83878906 9.08869141 3.42757813 8.36488281 3.00390625 7.61914062 C0 2.25502232 0 2.25502232 0 0 Z " fill="#C1252E" transform="translate(344,825)"/>
<path d="M0 0 C2.9552728 2.61778794 4.75832727 5.67583335 6.75 9.0625 C7.38421875 10.12597656 8.0184375 11.18945312 8.671875 12.28515625 C9.11015625 13.18105469 9.5484375 14.07695312 10 15 C9.67 15.66 9.34 16.32 9 17 C7.10786631 14.61426621 5.97608217 12.92824652 5 10 C3.68 10.33 2.36 10.66 1 11 C1.33 8.69 1.66 6.38 2 4 C1.34 4 0.68 4 0 4 C0 2.68 0 1.36 0 0 Z " fill="#C02029" transform="translate(1353,283)"/>
<path d="M0 0 C1.39195915 4.17587745 -0.17676781 6.13474776 -2 10 C-2.66 10 -3.32 10 -4 10 C-4.33 11.65 -4.66 13.3 -5 15 C-5.99 15.33 -6.98 15.66 -8 16 C-8.73323796 18.01508358 -8.73323796 18.01508358 -9 20 C-9.33 19.34 -9.66 18.68 -10 18 C-8.92578125 15.64453125 -8.92578125 15.64453125 -7.3125 12.8125 C-6.75949219 11.8328125 -6.20648437 10.853125 -5.63671875 9.84375 C-5.09660156 8.9053125 -4.55648438 7.966875 -4 7 C-3.57332031 6.2471875 -3.14664062 5.494375 -2.70703125 4.71875 C-1.81187843 3.14172986 -0.90718567 1.57012905 0 0 Z " fill="#2B0303" transform="translate(1129,249)"/>
<path d="M0 0 C0.67578125 1.68359375 0.67578125 1.68359375 1 4 C-0.14453125 6.47265625 -0.14453125 6.47265625 -1.8125 9.0625 C-2.62654297 10.34833984 -2.62654297 10.34833984 -3.45703125 11.66015625 C-4.6329837 13.44343604 -5.8151013 15.22265196 -7 17 C-7.66 17 -8.32 17 -9 17 C-7.51481201 12.95698825 -5.57122002 9.38853744 -3.375 5.6875 C-2.74335937 4.61886719 -2.11171875 3.55023437 -1.4609375 2.44921875 C-0.97882812 1.64097656 -0.49671875 0.83273437 0 0 Z " fill="#2C0301" transform="translate(788,840)"/>
<path d="M0 0 C0.33 0.66 0.66 1.32 1 2 C0.28735352 3.69580078 0.28735352 3.69580078 -0.87109375 5.6953125 C-1.28037109 6.41074219 -1.68964844 7.12617187 -2.11132812 7.86328125 C-2.54896484 8.60964844 -2.98660156 9.35601563 -3.4375 10.125 C-3.87126953 10.87910156 -4.30503906 11.63320313 -4.75195312 12.41015625 C-5.82748966 14.27757134 -6.91284139 16.13932697 -8 18 C-8.87840996 14.90279155 -8.99435406 13.09354597 -8 10 C-7.01 10 -6.02 10 -5 10 C-5 8.68 -5 7.36 -5 6 C-4.34 6 -3.68 6 -3 6 C-2.814375 4.7934375 -2.814375 4.7934375 -2.625 3.5625 C-2.41875 2.716875 -2.2125 1.87125 -2 1 C-1.34 0.67 -0.68 0.34 0 0 Z " fill="#CB262F" transform="translate(1220,698)"/>
<path d="M0 0 C0.33 0 0.66 0 1 0 C1.66 2.64 2.32 5.28 3 8 C0.36095629 9.41377341 -2.07120629 10.37240135 -5 11 C-3.55049545 7.2089881 -1.84827434 3.6125362 0 0 Z " fill="#CE2324" transform="translate(101,372)"/>
<path d="M0 0 C0.33 0 0.66 0 1 0 C1.3669579 6.48292295 1.3669579 6.48292295 -0.375 8.9375 C-2 10 -2 10 -4 10 C-4 10.99 -4 11.98 -4 13 C-4.66 13 -5.32 13 -6 13 C-6.33 13.99 -6.66 14.98 -7 16 C-7.33 15.34 -7.66 14.68 -8 14 C-6.85546875 11.50390625 -6.85546875 11.50390625 -5.1875 8.5625 C-4.64480469 7.59441406 -4.10210938 6.62632812 -3.54296875 5.62890625 C-2.42075011 3.71687298 -1.22978996 1.84468495 0 0 Z " fill="#C01F2F" transform="translate(1125,355)"/>
<path d="M0 0 C0.33 1.32 0.66 2.64 1 4 C0.34 4 -0.32 4 -1 4 C-1 5.32 -1 6.64 -1 8 C-1.66 8 -2.32 8 -3 8 C-2.67 8.99 -2.34 9.98 -2 11 C-2.639375 11.433125 -3.27875 11.86625 -3.9375 12.3125 C-6.26746003 13.91239177 -6.26746003 13.91239177 -7 17 C-7.66 17 -8.32 17 -9 17 C-7.51481201 12.95698825 -5.57122002 9.38853744 -3.375 5.6875 C-2.74335938 4.61886719 -2.11171875 3.55023438 -1.4609375 2.44921875 C-0.97882813 1.64097656 -0.49671875 0.83273437 0 0 Z " fill="#BF2328" transform="translate(132,319)"/>
<path d="M0 0 C0.33 1.32 0.66 2.64 1 4 C0.34 4 -0.32 4 -1 4 C-1.20625 5.216875 -1.4125 6.43375 -1.625 7.6875 C-2.78866557 12.50473321 -5.00692215 14.22220672 -9 17 C-7.51481201 12.95698825 -5.57122002 9.38853744 -3.375 5.6875 C-2.74335937 4.61886719 -2.11171875 3.55023438 -1.4609375 2.44921875 C-0.97882812 1.64097656 -0.49671875 0.83273437 0 0 Z " fill="#BF222F" transform="translate(800,407)"/>
<path d="M0 0 C0.66 0.33 1.32 0.66 2 1 C-0.97 6.28 -3.94 11.56 -7 17 C-7.33 15.68 -7.66 14.36 -8 13 C-7.34 13 -6.68 13 -6 13 C-6 11.68 -6 10.36 -6 9 C-5.34 9 -4.68 9 -4 9 C-3.67 7.02 -3.34 5.04 -3 3 C-2.01 2.67 -1.02 2.34 0 2 C0 1.34 0 0.68 0 0 Z " fill="#290102" transform="translate(1151,307)"/>
<path d="M0 0 C2.8079107 1.40395535 2.85489163 3.10688167 4 6 C5.81299768 8.90642422 7.71988218 11.73545677 9.63671875 14.57421875 C10.08660156 15.37472656 10.53648437 16.17523437 11 17 C10.67 17.66 10.34 18.32 10 19 C9.01 18.34 8.02 17.68 7 17 C7 15.68 7 14.36 7 13 C6.34 13 5.68 13 5 13 C5 12.01 5 11.02 5 10 C4.01 9.67 3.02 9.34 2 9 C1.26953125 6.93359375 1.26953125 6.93359375 0.8125 4.4375 C0.65394531 3.61121094 0.49539063 2.78492188 0.33203125 1.93359375 C0.16767578 0.97646484 0.16767578 0.97646484 0 0 Z " fill="#BF2028" transform="translate(446,591)"/>
<path d="M0 0 C0.66 0.33 1.32 0.66 2 1 C-1.3 6.61 -4.6 12.22 -8 18 C-8.33 17.34 -8.66 16.68 -9 16 C-8.06421005 13.64018187 -7.06652192 11.30368736 -6 9 C-5.34 9 -4.68 9 -4 9 C-4.33 7.35 -4.66 5.7 -5 4 C-4.01 3.67 -3.02 3.34 -2 3 C-1.34 2.01 -0.68 1.02 0 0 Z " fill="#2F0103" transform="translate(1137,332)"/>
<path d="M0 0 C0.66 0 1.32 0 2 0 C2.41765625 0.85078125 2.8353125 1.7015625 3.265625 2.578125 C5.60043178 7.18463567 8.14314217 11.66949704 10.671875 16.171875 C11.11015625 17.10515625 11.5484375 18.0384375 12 19 C11.67 19.66 11.34 20.32 11 21 C9.34587239 18.2549092 7.70319166 15.5031388 6.0625 12.75 C5.59392578 11.97269531 5.12535156 11.19539063 4.64257812 10.39453125 C4.19462891 9.64042969 3.74667969 8.88632813 3.28515625 8.109375 C2.66459351 7.07248535 2.66459351 7.07248535 2.03149414 6.01464844 C1.00584929 4.01142447 0.4502987 2.19763 0 0 Z " fill="#BD2830" transform="translate(515,1121)"/>
<path d="M0 0 C2.9552728 2.61778794 4.75832727 5.67583335 6.75 9.0625 C7.38421875 10.12597656 8.0184375 11.18945312 8.671875 12.28515625 C9.11015625 13.18105469 9.5484375 14.07695313 10 15 C9.67 15.66 9.34 16.32 9 17 C8.67 16.01 8.34 15.02 8 14 C7.34 14 6.68 14 6 14 C6 13.01 6 12.02 6 11 C5.01 11.33 4.02 11.66 3 12 C3.020625 11.236875 3.04125 10.47375 3.0625 9.6875 C3.12942841 6.89814214 3.12942841 6.89814214 2 4 C1.34 4 0.68 4 0 4 C0 2.68 0 1.36 0 0 Z " fill="#C1242B" transform="translate(725,1075)"/>
<path d="M0 0 C1.32 0.33 2.64 0.66 4 1 C4 2.65 4 4.3 4 6 C4.66 6 5.32 6 6 6 C9.125 12.625 9.125 12.625 8 16 C5.36 10.72 2.72 5.44 0 0 Z M6 5 C6.66 5 7.32 5 8 5 C7.67 5.66 7.34 6.32 7 7 C6.67 6.34 6.34 5.68 6 5 Z " fill="#230101" transform="translate(1359,291)"/>
<path d="M0 0 C0.66 0 1.32 0 2 0 C2 0.99 2 1.98 2 3 C2.66 3 3.32 3 4 3 C4.33 4.65 4.66 6.3 5 8 C5.99 8.33 6.98 8.66 8 9 C9.25 10.8125 9.25 10.8125 10 13 C9.546875 15.13671875 9.546875 15.13671875 9 17 C7.68085608 14.92062051 6.36961787 12.83691981 5.0625 10.75 C4.68931641 10.16347656 4.31613281 9.57695313 3.93164062 8.97265625 C2.1034339 6.04093735 0.53724618 3.44519771 0 0 Z " fill="#C72232" transform="translate(361,855)"/>
<path d="M0 0 C0.33 0 0.66 0 1 0 C0.67 2.31 0.34 4.62 0 7 C-0.99 7.33 -1.98 7.66 -3 8 C-3.33 9.65 -3.66 11.3 -4 13 C-4.99 13.33 -5.98 13.66 -7 14 C-5.56032356 8.76481294 -3.18303389 4.36973991 0 0 Z " fill="#C32332" transform="translate(842,944)"/>
<path d="M0 0 C0.66 0.66 1.32 1.32 2 2 C-0.64 6.62 -3.28 11.24 -6 16 C-7 12 -7 12 -6 10 C-5.34 10 -4.68 10 -4 10 C-4 8.02 -4 6.04 -4 4 C-3.01 4.33 -2.02 4.66 -1 5 C-0.67 3.35 -0.34 1.7 0 0 Z " fill="#CD282F" transform="translate(1104,898)"/>
<path d="M0 0 C1.33332095 2.6666419 0.67102033 4.16680303 0 7 C2.97 7.33 5.94 7.66 9 8 C9 8.33 9 8.66 9 9 C4.38 9 -0.24 9 -5 9 C-1.125 1.125 -1.125 1.125 0 0 Z " fill="#C02429" transform="translate(1111,380)"/>
<path d="M0 0 C1.32 0 2.64 0 4 0 C2.42986223 5.96652354 -0.75029782 10.82909025 -4 16 C-4.33 14.68 -4.66 13.36 -5 12 C-4.34 12 -3.68 12 -3 12 C-2.87625 11.401875 -2.7525 10.80375 -2.625 10.1875 C-2 8 -2 8 0 5 C0.16713569 2.37468476 0.16713569 2.37468476 0 0 Z " fill="#C7242A" transform="translate(1056,368)"/>
<path d="M0 0 C0.66 0 1.32 0 2 0 C0.45454854 5.47932789 -2.15543212 10.11429181 -5 15 C-5.33 15 -5.66 15 -6 15 C-6 13.35 -6 11.7 -6 10 C-5.34 10 -4.68 10 -4 10 C-3.7834375 8.8553125 -3.7834375 8.8553125 -3.5625 7.6875 C-3 5 -3 5 -2 2 C-1.34 2 -0.68 2 0 2 C0 1.34 0 0.68 0 0 Z " fill="#CE222E" transform="translate(839,747)"/>
<path d="M0 0 C3.35945814 2.23963876 4.2489896 3.85865891 6.125 7.375 C6.64320313 8.33148437 7.16140625 9.28796875 7.6953125 10.2734375 C8.79032288 12.56181248 9.51909489 14.52509808 10 17 C9.34 17 8.68 17 8 17 C8 16.01 8 15.02 8 14 C7.34 14 6.68 14 6 14 C6 12.68 6 11.36 6 10 C5.01 9.67 4.02 9.34 3 9 C2.05078125 6.93359375 2.05078125 6.93359375 1.3125 4.4375 C1.06113281 3.61121094 0.80976563 2.78492188 0.55078125 1.93359375 C0.36902344 1.29550781 0.18726563 0.65742187 0 0 Z " fill="#BB242F" transform="translate(457,611)"/>
<path d="M0 0 C1.24546405 2.49092811 0.7767578 3.41080733 0 6 C-0.66 6 -1.32 6 -2 6 C-2.061875 6.721875 -2.12375 7.44375 -2.1875 8.1875 C-3.24456647 11.84657625 -5.20550071 13.49211602 -8 16 C-6.42986223 10.03347646 -3.24970218 5.17090975 0 0 Z " fill="#BC2428" transform="translate(809,391)"/>
<path d="M0 0 C0.66 0.33 1.32 0.66 2 1 C0.71481447 3.31632275 -0.57771266 5.62796942 -1.875 7.9375 C-2.23980469 8.59685547 -2.60460938 9.25621094 -2.98046875 9.93554688 C-5.7734375 14.88671875 -5.7734375 14.88671875 -8 16 C-7.34 13.69 -6.68 11.38 -6 9 C-5.34 9 -4.68 9 -4 9 C-4 8.01 -4 7.02 -4 6 C-3.34 6 -2.68 6 -2 6 C-2 4.68 -2 3.36 -2 2 C-1.34 2 -0.68 2 0 2 C0 1.34 0 0.68 0 0 Z " fill="#C4282C" transform="translate(1159,194)"/>
<path d="M0 0 C0.33 0 0.66 0 1 0 C1.49318182 6.41136364 1.49318182 6.41136364 -0.9375 9.3125 C-1.618125 9.869375 -2.29875 10.42625 -3 11 C-3.33 11.66 -3.66 12.32 -4 13 C-4.66 13 -5.32 13 -6 13 C-4.58707905 8.1725201 -2.57025846 4.2837641 0 0 Z " fill="#240001" transform="translate(903,1251)"/>
<path d="M0 0 C0.33 0.66 0.66 1.32 1 2 C-0.14453125 4.71484375 -0.14453125 4.71484375 -1.8125 7.9375 C-2.35519531 8.99839844 -2.89789062 10.05929687 -3.45703125 11.15234375 C-5 14 -5 14 -7 17 C-7.66 17 -8.32 17 -9 17 C-7.51481201 12.95698825 -5.57122002 9.38853744 -3.375 5.6875 C-2.74335937 4.61886719 -2.11171875 3.55023437 -1.4609375 2.44921875 C-0.97882812 1.64097656 -0.49671875 0.83273437 0 0 Z " fill="#BC2628" transform="translate(856,920)"/>
<path d="M0 0 C1 2 1 2 0.4765625 3.875 C0.05503906 4.926875 0.05503906 4.926875 -0.375 6 C-0.65085937 6.70125 -0.92671875 7.4025 -1.2109375 8.125 C-1.76277726 9.43630239 -2.3637546 10.72750919 -3 12 C-3.99 12 -4.98 12 -6 12 C-4.68139111 7.38486888 -2.78644563 3.90102388 0 0 Z " fill="#C92225" transform="translate(863,908)"/>
<path d="M0 0 C1.21994269 3.65982807 0.49026663 4.58115302 -1 8 C-1 8.66 -1 9.32 -1 10 C-5.31818182 14.65909091 -5.31818182 14.65909091 -8 16 C-6.57250019 12.20950293 -4.83763458 8.72877544 -2.875 5.1875 C-2.33617187 4.21167969 -1.79734375 3.23585938 -1.2421875 2.23046875 C-0.83226562 1.49441406 -0.42234375 0.75835938 0 0 Z " fill="#2C0204" transform="translate(1125,865)"/>
<path d="M0 0 C1 3 1 3 -0.4375 6.1875 C-1.2109375 7.5796875 -1.2109375 7.5796875 -2 9 C-2.66 9 -3.32 9 -4 9 C-4.144375 9.78375 -4.28875 10.5675 -4.4375 11.375 C-5 14 -5 14 -6 16 C-6.66 16 -7.32 16 -8 16 C-6.42986223 10.03347646 -3.24970218 5.17090975 0 0 Z " fill="#2D0201" transform="translate(1181,768)"/>
<path d="M0 0 C1.65 0 3.3 0 5 0 C5.33 2.97 5.66 5.94 6 9 C6.66 9 7.32 9 8 9 C7.67 10.32 7.34 11.64 7 13 C6.01719585 11.39805929 5.03888283 9.79336258 4.0625 8.1875 C3.51722656 7.29417969 2.97195313 6.40085937 2.41015625 5.48046875 C1 3 1 3 0 0 Z " fill="#CB262D" transform="translate(601,637)"/>
<path d="M0 0 C1.82421875 0.16015625 1.82421875 0.16015625 4 1 C5.51953125 3.43359375 5.51953125 3.43359375 6.8125 6.4375 C7.25207031 7.42621094 7.69164062 8.41492188 8.14453125 9.43359375 C8.42683594 10.28050781 8.70914063 11.12742187 9 12 C8.67 12.66 8.34 13.32 8 14 C6.66397562 11.85580015 5.33107996 9.70976582 4 7.5625 C3.6184375 6.95083984 3.236875 6.33917969 2.84375 5.70898438 C0 1.11328125 0 1.11328125 0 0 Z " fill="#C4232B" transform="translate(546,543)"/>
<path d="M0 0 C1 2 1 2 0.44140625 3.9453125 C0.15136719 4.66460937 -0.13867188 5.38390625 -0.4375 6.125 C-0.72496094 6.84945313 -1.01242187 7.57390625 -1.30859375 8.3203125 C-1.53675781 8.87460937 -1.76492188 9.42890625 -2 10 C-2.66 10 -3.32 10 -4 10 C-4.103125 10.61875 -4.20625 11.2375 -4.3125 11.875 C-5 14 -5 14 -8 16 C-6.57250019 12.20950293 -4.83763458 8.72877544 -2.875 5.1875 C-2.33617187 4.21167969 -1.79734375 3.23585938 -1.2421875 2.23046875 C-0.83226562 1.49441406 -0.42234375 0.75835937 0 0 Z " fill="#BF232C" transform="translate(1169,279)"/>
<path d="M0 0 C0.99 0 1.98 0 3 0 C3.67408308 1.26691507 4.33900497 2.53870749 5 3.8125 C5.556875 4.87404297 5.556875 4.87404297 6.125 5.95703125 C7 8 7 8 7 11 C7.66 11 8.32 11 9 11 C8.67 12.32 8.34 13.64 8 15 C6.66407203 12.6889639 5.33115569 10.37628245 4 8.0625 C3.6184375 7.40314453 3.236875 6.74378906 2.84375 6.06445312 C0 1.11328125 0 1.11328125 0 0 Z " fill="#C32432" transform="translate(396,916)"/>
<path d="M0 0 C1 3 1 3 0.1875 5.625 C-1 8 -1 8 -3 9 C-3.65213292 11.02463255 -3.65213292 11.02463255 -4 13 C-4.66 13 -5.32 13 -6 13 C-6.33 13.99 -6.66 14.98 -7 16 C-7.33 15.34 -7.66 14.68 -8 14 C-6.75717988 11.54961707 -5.47117661 9.226675 -4.0625 6.875 C-3.48338867 5.88693359 -3.48338867 5.88693359 -2.89257812 4.87890625 C-1.93553422 3.248387 -0.96867185 1.62363816 0 0 Z " fill="#B8232D" transform="translate(589,772)"/>
<path d="M0 0 C1.32 0 2.64 0 4 0 C5 3 5 3 5.375 5.375 C6.08376026 8.35179309 7.32808407 10.45578011 9 13 C8.01 13.495 8.01 13.495 7 14 C6.01441551 12.42065361 5.03677459 10.83634827 4.0625 9.25 C3.51722656 8.36828125 2.97195313 7.4865625 2.41015625 6.578125 C1.17284288 4.31600083 0.46409487 2.51433675 0 0 Z " fill="#240101" transform="translate(537,747)"/>
<path d="M0 0 C2.95749791 3.46741134 5.07848152 6.86873527 7 11 C6.01 11.495 6.01 11.495 5 12 C5 11.01 5 10.02 5 9 C4.34 9 3.68 9 3 9 C3 8.01 3 7.02 3 6 C2.01 6.33 1.02 6.66 0 7 C-0.66 6.67 -1.32 6.34 -2 6 C-1.34 4.02 -0.68 2.04 0 0 Z " fill="#CF2229" transform="translate(530,737)"/>
<path d="M0 0 C0.33 0 0.66 0 1 0 C1 2.31 1 4.62 1 7 C-0.65 7 -2.3 7 -4 7 C-4.28875 7.804375 -4.5775 8.60875 -4.875 9.4375 C-6 12 -6 12 -8 13 C-7.34938905 11.32700041 -6.67966676 9.66140763 -6 8 C-5.71125 7.2575 -5.4225 6.515 -5.125 5.75 C-4 4 -4 4 -1.875 3.25 C-1.25625 3.1675 -0.6375 3.085 0 3 C0 2.01 0 1.02 0 0 Z " fill="#CF2028" transform="translate(967,729)"/>
<path d="M0 0 C0.66 0 1.32 0 2 0 C0.74194623 4.50802601 -0.90407165 7.4912812 -4 11 C-4.625 8.1875 -4.625 8.1875 -5 5 C-4.34 4.01 -3.68 3.02 -3 2 C-2.34 2 -1.68 2 -1 2 C-0.67 1.34 -0.34 0.68 0 0 Z " fill="#D42326" transform="translate(1275,603)"/>
<path d="M0 0 C0.66 0.99 1.32 1.98 2 3 C1.360625 3.763125 0.72125 4.52625 0.0625 5.3125 C-2.14232781 7.88246713 -2.14232781 7.88246713 -3 11 C-3.66 11 -4.32 11 -5 11 C-5.33 11.99 -5.66 12.98 -6 14 C-6.33 13.34 -6.66 12.68 -7 12 C-5.8203125 9.43359375 -5.8203125 9.43359375 -4.125 6.4375 C-3.57070313 5.44621094 -3.01640625 4.45492188 -2.4453125 3.43359375 C-1 1 -1 1 0 0 Z " fill="#290203" transform="translate(874,1302)"/>
<path d="M0 0 C2.38594197 1.19297098 2.83734847 2.14357265 4.125 4.4375 C4.47820313 5.05496094 4.83140625 5.67242188 5.1953125 6.30859375 C6 8 6 8 6 10 C5.01 9.67 4.02 9.34 3 9 C3 8.01 3 7.02 3 6 C1.68 6 0.36 6 -1 6 C-1.33 4.68 -1.66 3.36 -2 2 C-1.34 2 -0.68 2 0 2 C0 1.34 0 0.68 0 0 Z " fill="#CD2228" transform="translate(698,1028)"/>
<path d="M0 0 C-1.56641751 4.30764815 -3.68336156 8.06171464 -6 12 C-7.32022153 9.35955695 -7.40974493 7.93650531 -7 5 C-2.77777778 0 -2.77777778 0 0 0 Z " fill="#CD2527" transform="translate(783,848)"/>
<path d="M0 0 C0.66 0 1.32 0 2 0 C2.40992188 0.77085937 2.81984375 1.54171875 3.2421875 2.3359375 C3.78101563 3.33882812 4.31984375 4.34171875 4.875 5.375 C5.40867188 6.37273438 5.94234375 7.37046875 6.4921875 8.3984375 C7.8820138 11.05348395 7.8820138 11.05348395 10 13 C9.625 15.125 9.625 15.125 9 17 C7.49743011 14.35559624 5.9978388 11.70958148 4.5 9.0625 C4.07074219 8.30775391 3.64148438 7.55300781 3.19921875 6.77539062 C2.79316406 6.05673828 2.38710937 5.33808594 1.96875 4.59765625 C1.59169922 3.93258057 1.21464844 3.26750488 0.82617188 2.58227539 C0 1 0 1 0 0 Z " fill="#BB262F" transform="translate(227,623)"/>
<path d="M0 0 C0.99 0 1.98 0 3 0 C3.33 1.32 3.66 2.64 4 4 C4.66 4 5.32 4 6 4 C6 5.65 6 7.3 6 9 C6.66 9 7.32 9 8 9 C7.67 10.32 7.34 11.64 7 13 C5.83072457 11.02237345 4.66464427 9.04285742 3.5 7.0625 C2.8503125 5.96035156 2.200625 4.85820313 1.53125 3.72265625 C0 1 0 1 0 0 Z " fill="#CD232B" transform="translate(161,509)"/>
<path d="M0 0 C1 2 1 2 1.4296875 3.8671875 C2.24127361 6.9022972 3.75626541 9.45110575 5.2578125 12.1953125 C5.50273438 12.79085938 5.74765625 13.38640625 6 14 C5.67 14.66 5.34 15.32 5 16 C1.04 9.07 1.04 9.07 -3 2 C-2.01 1.34 -1.02 0.68 0 0 Z " fill="#290001" transform="translate(1393,344)"/>
<path d="M0 0 C0.33 0 0.66 0 1 0 C1.56952451 4.84095834 -0.17218422 7.17413159 -3 11 C-3.99 12.485 -3.99 12.485 -5 14 C-5.66 13.67 -6.32 13.34 -7 13 C-3.535 6.565 -3.535 6.565 0 0 Z " fill="#CA252C" transform="translate(1136,336)"/>
<path d="M0 0 C1 2 1 2 0.6171875 3.8046875 C-1.07884945 8.53573794 -2.63759729 11.17033338 -7 14 C-5.53967505 8.68972746 -3.01679014 4.53669968 0 0 Z " fill="#270201" transform="translate(1109,284)"/>
<path d="M0 0 C1.13583456 3.71727674 0.66670026 5.47051709 -1 9 C-1.66 9 -2.32 9 -3 9 C-3 9.66 -3 10.32 -3 11 C-3.66 11 -4.32 11 -5 11 C-5 11.99 -5 12.98 -5 14 C-5.66 14 -6.32 14 -7 14 C-5.23570801 9.02790438 -2.6060834 4.56561939 0 0 Z " fill="#300203" transform="translate(956,1159)"/>
<path d="M0 0 C0.99 0.33 1.98 0.66 3 1 C0.69 5.62 -1.62 10.24 -4 15 C-4.33 15 -4.66 15 -5 15 C-5 13.35 -5 11.7 -5 10 C-4.34 10 -3.68 10 -3 10 C-3 8.68 -3 7.36 -3 6 C-2.34 6 -1.68 6 -1 6 C-0.67 4.02 -0.34 2.04 0 0 Z " fill="#CC242A" transform="translate(996,1084)"/>
<path d="M0 0 C0.33 0.66 0.66 1.32 1 2 C-0.43359375 4.8203125 -0.43359375 4.8203125 -2.4375 8.125 C-3.09621094 9.22070312 -3.75492188 10.31640625 -4.43359375 11.4453125 C-4.95050781 12.28835938 -5.46742188 13.13140625 -6 14 C-6.66 12.68 -7.32 11.36 -8 10 C-7.01 10 -6.02 10 -5 10 C-5 8.68 -5 7.36 -5 6 C-4.34 5.67 -3.68 5.34 -3 5 C-1.9590934 3.35857037 -0.95495674 1.69287785 0 0 Z " fill="#C22232" transform="translate(804,810)"/>
<path d="M0 0 C1.32 0.33 2.64 0.66 4 1 C4 2.32 4 3.64 4 5 C4.66 5 5.32 5 6 5 C6 6.32 6 7.64 6 9 C6.66 9 7.32 9 8 9 C7.67 10.32 7.34 11.64 7 13 C5.83072457 11.02237345 4.66464427 9.04285742 3.5 7.0625 C2.8503125 5.96035156 2.200625 4.85820313 1.53125 3.72265625 C0 1 0 1 0 0 Z " fill="#C6222B" transform="translate(329,800)"/>
<path d="M0 0 C1.24546405 2.49092811 0.7767578 3.41080733 0 6 C-0.66 6 -1.32 6 -2 6 C-2.33 7.65 -2.66 9.3 -3 11 C-3.66 11 -4.32 11 -5 11 C-5 11.66 -5 12.32 -5 13 C-5.66 12.67 -6.32 12.34 -7 12 C-4.69 8.04 -2.38 4.08 0 0 Z " fill="#BF2529" transform="translate(829,967)"/>
<path d="M0 0 C2.94995547 3.45856848 5.22675738 6.80021485 7 11 C6.67 11.66 6.34 12.32 6 13 C5.34 13 4.68 13 4 13 C2.74335022 10.09399739 2 8.20395416 2 5 C1.34 5 0.68 5 0 5 C0 3.35 0 1.7 0 0 Z " fill="#300203" transform="translate(425,967)"/>
<path d="M0 0 C1.57432497 3.14864995 0.71895552 5.64487425 0 9 C-0.99 9.66 -1.98 10.32 -3 11 C-3.99 10.67 -4.98 10.34 -6 10 C-4.02 6.7 -2.04 3.4 0 0 Z " fill="#270204" transform="translate(1108,895)"/>
<path d="M0 0 C0.33 0.66 0.66 1.32 1 2 C-0.43359375 4.8203125 -0.43359375 4.8203125 -2.4375 8.125 C-3.09621094 9.22070312 -3.75492188 10.31640625 -4.43359375 11.4453125 C-4.95050781 12.28835938 -5.46742187 13.13140625 -6 14 C-6.33 12.68 -6.66 11.36 -7 10 C-6.34 10 -5.68 10 -5 10 C-5 8.68 -5 7.36 -5 6 C-4.34 6 -3.68 6 -3 6 C-2.814375 5.071875 -2.814375 5.071875 -2.625 4.125 C-2 2 -2 2 0 0 Z " fill="#C12333" transform="translate(1188,754)"/>
<path d="M0 0 C0.66 0.99 1.32 1.98 2 3 C0.625 5 0.625 5 -1 7 C-1.66 7 -2.32 7 -3 7 C-2.67 7.99 -2.34 8.98 -2 10 C-3.65 10.66 -5.3 11.32 -7 12 C-4.69 8.04 -2.38 4.08 0 0 Z " fill="#2E0404" transform="translate(1214,711)"/>
<path d="M0 0 C0.99 0.33 1.98 0.66 3 1 C3 1.99 3 2.98 3 4 C3.66 4 4.32 4 5 4 C5 4.99 5 5.98 5 7 C5.66 7 6.32 7 7 7 C7.33 9.31 7.66 11.62 8 14 C4.17398376 9.76405345 2.13637096 5.21592698 0 0 Z " fill="#2F0201" transform="translate(464,621)"/>
<path d="M0 0 C0.33 0.66 0.66 1.32 1 2 C-0.43359375 4.8203125 -0.43359375 4.8203125 -2.4375 8.125 C-3.09621094 9.22070312 -3.75492188 10.31640625 -4.43359375 11.4453125 C-4.95050781 12.28835938 -5.46742187 13.13140625 -6 14 C-6.33 12.68 -6.66 11.36 -7 10 C-6.34 10 -5.68 10 -5 10 C-5 8.68 -5 7.36 -5 6 C-4.34 6 -3.68 6 -3 6 C-2.814375 5.071875 -2.814375 5.071875 -2.625 4.125 C-2 2 -2 2 0 0 Z " fill="#C32434" transform="translate(1300,562)"/>
<path d="M0 0 C0.97918775 3.07556958 1.1498998 3.68592423 -0.3125 6.75 C-0.869375 7.4925 -1.42625 8.235 -2 9 C-2.66 9 -3.32 9 -4 9 C-4 9.99 -4 10.98 -4 12 C-4.99 12.33 -5.98 12.66 -7 13 C-5.35821735 8.22390502 -2.73453298 4.20617096 0 0 Z " fill="#2E0102" transform="translate(1310,547)"/>
<path d="M0 0 C1.1484375 3.6953125 1.1484375 3.6953125 -0.1875 6.4375 C-2.0318806 9.04507258 -3.96240549 11.54083421 -6 14 C-5.41892368 10.2397015 -4.34800504 7.46964968 -2.4375 4.1875 C-1.98246094 3.39730469 -1.52742187 2.60710937 -1.05859375 1.79296875 C-0.53458984 0.90544922 -0.53458984 0.90544922 0 0 Z " fill="#C0232B" transform="translate(790,424)"/>
<path d="M0 0 C0.99 0.33 1.98 0.66 3 1 C0.69 4.96 -1.62 8.92 -4 13 C-5 9 -5 9 -4.0625 6.75 C-3.5365625 5.88375 -3.5365625 5.88375 -3 5 C-2.34 5 -1.68 5 -1 5 C-0.67 3.35 -0.34 1.7 0 0 Z " fill="#280101" transform="translate(108,356)"/>
<path d="M0 0 C1.8125 0.5 1.8125 0.5 4 2 C5.92471503 5.7992201 7.01008551 9.87381439 8 14 C5.50447597 11.72402354 3.93377014 9.39278822 2.3125 6.4375 C1.87550781 5.65246094 1.43851563 4.86742187 0.98828125 4.05859375 C0 2 0 2 0 0 Z " fill="#BC2729" transform="translate(617,1298)"/>
<path d="M0 0 C0.66 1.32 1.32 2.64 2 4 C1.01 4 0.02 4 -1 4 C-1.103125 4.556875 -1.20625 5.11375 -1.3125 5.6875 C-2.14011401 8.47129258 -3.37737752 10.59851873 -5 13 C-5.99 13.495 -5.99 13.495 -7 14 C-5.23570801 9.02790438 -2.6060834 4.56561939 0 0 Z " fill="#270201" transform="translate(974,1128)"/>
<path d="M0 0 C1 3 1 3 0.109375 5.4453125 C-0.33921875 6.32960938 -0.7878125 7.21390625 -1.25 8.125 C-1.90742187 9.45917969 -1.90742187 9.45917969 -2.578125 10.8203125 C-4 13 -4 13 -7 14 C-5.23570801 9.02790438 -2.6060834 4.56561939 0 0 Z " fill="#340303" transform="translate(727,945)"/>
<path d="M0 0 C0.66 0.33 1.32 0.66 2 1 C1.02526874 2.66926454 0.04510211 4.33535642 -0.9375 6 C-1.75541016 7.3921875 -1.75541016 7.3921875 -2.58984375 8.8125 C-3.05519531 9.534375 -3.52054688 10.25625 -4 11 C-4.33 11 -4.66 11 -5 11 C-5.20016822 7.39697197 -4.99767079 5.04907647 -3 2 C-2.01 1.34 -1.02 0.68 0 0 Z " fill="#D22532" transform="translate(766,875)"/>
<path d="M0 0 C1.32 0 2.64 0 4 0 C2.55049545 3.7910119 0.84827434 7.3874638 -1 11 C-1.33 11 -1.66 11 -2 11 C-2.125 8.125 -2.125 8.125 -2 5 C-1.34 4.34 -0.68 3.68 0 3 C0 2.01 0 1.02 0 0 Z " fill="#CC212E" transform="translate(1147,820)"/>
<path d="M0 0 C0.66 0 1.32 0 2 0 C3.47265625 2.01171875 3.47265625 2.01171875 5.0625 4.6875 C5.58972656 5.55761719 6.11695313 6.42773438 6.66015625 7.32421875 C7.96711737 9.9343306 8.58056486 12.12609257 9 15 C5.96343083 12.4011345 4.53836261 9.37928272 2.8125 5.8125 C2.28269531 4.72582031 1.75289062 3.63914062 1.20703125 2.51953125 C0.80871094 1.68808594 0.41039062 0.85664062 0 0 Z " fill="#BD262C" transform="translate(580,601)"/>
<path d="M0 0 C3 1 3 1 4.421875 3.1796875 C4.86015625 4.06914063 5.2984375 4.95859375 5.75 5.875 C6.19859375 6.75929688 6.6471875 7.64359375 7.109375 8.5546875 C8 11 8 11 7 14 C5.82807953 12.04480616 4.6626071 10.0857461 3.5 8.125 C2.8503125 7.03445313 2.200625 5.94390625 1.53125 4.8203125 C0 2 0 2 0 0 Z " fill="#C62532" transform="translate(571,585)"/>
<path d="M0 0 C1.26026798 2.52053595 0.91874445 3.8542098 0.5625 6.625 C0.46066406 7.44226563 0.35882812 8.25953125 0.25390625 9.1015625 C0.17011719 9.72804688 0.08632813 10.35453125 0 11 C-1.65 11.33 -3.3 11.66 -5 12 C-3.68938409 7.76570244 -2.05643741 3.92592596 0 0 Z " fill="#E31F2A" transform="translate(792,423)"/>
<path d="M0 0 C1 2 1 2 0.58203125 3.875 C-1.51579094 9.66797093 -1.51579094 9.66797093 -4.1875 11.5 C-4.785625 11.665 -5.38375 11.83 -6 12 C-4.68139111 7.38486888 -2.78644563 3.90102388 0 0 Z " fill="#C02528" transform="translate(1197,231)"/>
<path d="M0 0 C0.99 0 1.98 0 3 0 C2.36934243 3.21852831 1.21979305 5.50801069 -0.5625 8.25 C-1.01753906 8.95640625 -1.47257812 9.6628125 -1.94140625 10.390625 C-2.29074219 10.92171875 -2.64007812 11.4528125 -3 12 C-3.33 11.01 -3.66 10.02 -4 9 C-3.01439389 7.65599167 -2.01241685 6.32392972 -1 5 C-0.28566879 2.35065178 -0.28566879 2.35065178 0 0 Z " fill="#C22333" transform="translate(1088,924)"/>
<path d="M0 0 C1 2 1 2 0.44140625 3.9453125 C0.15136719 4.66460938 -0.13867188 5.38390625 -0.4375 6.125 C-0.72496094 6.84945312 -1.01242187 7.57390625 -1.30859375 8.3203125 C-1.53675781 8.87460937 -1.76492188 9.42890625 -2 10 C-2.66 10 -3.32 10 -4 10 C-4.33 10.99 -4.66 11.98 -5 13 C-5.33 12.34 -5.66 11.68 -6 11 C-4.78515625 8.3984375 -4.78515625 8.3984375 -3.0625 5.375 C-2.21365234 3.87066406 -2.21365234 3.87066406 -1.34765625 2.3359375 C-0.90292969 1.56507813 -0.45820312 0.79421875 0 0 Z " fill="#C01F24" transform="translate(601,751)"/>
<path d="M0 0 C3.32643967 2.98232523 5.29152862 5.86370087 7 10 C6.67 10.66 6.34 11.32 6 12 C5.67 11.01 5.34 10.02 5 9 C2.98491642 8.26676204 2.98491642 8.26676204 1 8 C0.67 5.36 0.34 2.72 0 0 Z " fill="#C7232A" transform="translate(520,720)"/>
<path d="M0 0 C0.33 0 0.66 0 1 0 C1.25532751 3.06393013 1.21861333 4.63233212 -0.375 7.3125 C-1.179375 8.1478125 -1.179375 8.1478125 -2 9 C-2.66 9 -3.32 9 -4 9 C-4 9.99 -4 10.98 -4 12 C-4.66 12 -5.32 12 -6 12 C-4.43358249 7.69235185 -2.31663844 3.93828536 0 0 Z " fill="#320204" transform="translate(1233,680)"/>
<path d="M0 0 C1.24546405 2.49092811 0.7767578 3.41080733 0 6 C-0.66 6 -1.32 6 -2 6 C-2.144375 6.61875 -2.28875 7.2375 -2.4375 7.875 C-3 10 -3 10 -4 12 C-4.66 12 -5.32 12 -6 12 C-4.68139111 7.38486888 -2.78644563 3.90102388 0 0 Z " fill="#2E0203" transform="translate(1141,838)"/>
<path d="M0 0 C3.32643967 2.98232523 5.29152862 5.86370087 7 10 C6.67 10.66 6.34 11.32 6 12 C5.67 11.01 5.34 10.02 5 9 C4.34 9 3.68 9 3 9 C3 7.68 3 6.36 3 5 C1.68 4.34 0.36 3.68 -1 3 C-0.67 2.01 -0.34 1.02 0 0 Z " fill="#BF2727" transform="translate(416,540)"/>
<path d="M0 0 C0.6875 1.6875 0.6875 1.6875 1 4 C-0.3125 6.75 -0.3125 6.75 -2 9 C-2.66 9 -3.32 9 -4 9 C-4 9.99 -4 10.98 -4 12 C-4.66 12 -5.32 12 -6 12 C-4.43358249 7.69235185 -2.31663844 3.93828536 0 0 Z " fill="#360404" transform="translate(1029,1032)"/>
<path d="M0 0 C1 2 1 2 0.58203125 3.875 C-1.51579094 9.66797093 -1.51579094 9.66797093 -4.1875 11.5 C-4.785625 11.665 -5.38375 11.83 -6 12 C-4.68139111 7.38486888 -2.78644563 3.90102388 0 0 Z " fill="#BB2232" transform="translate(941,772)"/>
<path d="M0 0 C0.33 1.32 0.66 2.64 1 4 C0.34 4 -0.32 4 -1 4 C-0.67 5.32 -0.34 6.64 0 8 C-1.98 8.99 -1.98 8.99 -4 10 C-4 5.75354935 -2.18249194 3.61475228 0 0 Z " fill="#290403" transform="translate(1196,742)"/>
<path d="M0 0 C1.890625 0.18359375 1.890625 0.18359375 4 1 C5.046875 3.28515625 5.046875 3.28515625 5.75 6.0625 C5.99234375 6.98160156 6.2346875 7.90070312 6.484375 8.84765625 C6.65453125 9.55792969 6.8246875 10.26820313 7 11 C4.59424393 8.81482901 3.20464419 6.74080329 1.8125 3.8125 C1.46832031 3.09707031 1.12414062 2.38164063 0.76953125 1.64453125 C0.51558594 1.10183594 0.26164063 0.55914063 0 0 Z " fill="#C4262B" transform="translate(184,549)"/>
<path d="M0 0 C0.66 0 1.32 0 2 0 C0.74194623 4.50802601 -0.90407165 7.4912812 -4 11 C-3.67 8.36 -3.34 5.72 -3 3 C-2.01 3 -1.02 3 0 3 C0 2.01 0 1.02 0 0 Z " fill="#C92729" transform="translate(1039,401)"/>
<path d="M0 0 C1.32 0 2.64 0 4 0 C4.33 0.99 4.66 1.98 5 3 C3.0625 5.6875 3.0625 5.6875 1 8 C0.67 5.36 0.34 2.72 0 0 Z " fill="#CB2329" transform="translate(1146,210)"/>
<path d="M0 0 C0.625 1.8125 0.625 1.8125 1 4 C0.01 5.485 0.01 5.485 -1 7 C-1.66 7 -2.32 7 -3 7 C-3 7.99 -3 8.98 -3 10 C-3.99 10.33 -4.98 10.66 -6 11 C-4.54955729 6.89041233 -2.48889248 3.56741255 0 0 Z " fill="#BB222E" transform="translate(206,191)"/>
<path d="M0 0 C6 7.4 6 7.4 6 11 C5.34 11 4.68 11 4 11 C4 10.01 4 9.02 4 8 C3.34 8 2.68 8 2 8 C0.23537317 4.91190305 0 3.76687864 0 0 Z " fill="#BE222D" transform="translate(719,1064)"/>
<path d="M0 0 C0.99 0 1.98 0 3 0 C1.8141763 3.37503669 0.72426311 5.64722731 -2 8 C-1.125 1.125 -1.125 1.125 0 0 Z " fill="#CC2426" transform="translate(1010,1060)"/>
<path d="M0 0 C0.33 1.32 0.66 2.64 1 4 C0.34 4 -0.32 4 -1 4 C-1.4021875 5.7015625 -1.4021875 5.7015625 -1.8125 7.4375 C-2.204375 8.613125 -2.59625 9.78875 -3 11 C-3.99 11.33 -4.98 11.66 -6 12 C-4.43358249 7.69235185 -2.31663844 3.93828536 0 0 Z " fill="#330201" transform="translate(1097,914)"/>
<path d="M0 0 C1.05609899 3.16829698 1.13055309 3.98519175 0 7 C-1.4375 8.75 -1.4375 8.75 -3 10 C-3.66 10 -4.32 10 -5 10 C-3.66511872 6.40608886 -2.03977277 3.24509304 0 0 Z " fill="#230103" transform="translate(755,897)"/>
<path d="M0 0 C1.125 3.75 1.125 3.75 0 6 C-0.66 6 -1.32 6 -2 6 C-2 7.32 -2 8.64 -2 10 C-2.99 10.33 -3.98 10.66 -5 11 C-3.77472971 6.94718288 -2.30119506 3.55639236 0 0 Z " fill="#BF232E" transform="translate(877,883)"/>
<path d="M0 0 C0.33 1.32 0.66 2.64 1 4 C0.34 4 -0.32 4 -1 4 C-1.2165625 5.175625 -1.2165625 5.175625 -1.4375 6.375 C-2 9 -2 9 -3 11 C-3.66 11 -4.32 11 -5 11 C-3.77472971 6.94718288 -2.30119506 3.55639236 0 0 Z " fill="#340102" transform="translate(808,805)"/>
<path d="M0 0 C0.33 0.66 0.66 1.32 1 2 C0.00390625 4.1640625 0.00390625 4.1640625 -1.4375 6.625 C-1.91058594 7.44226563 -2.38367187 8.25953125 -2.87109375 9.1015625 C-3.24363281 9.72804688 -3.61617187 10.35453125 -4 11 C-4.33 11 -4.66 11 -5 11 C-5 9.02 -5 7.04 -5 5 C-4.360625 4.731875 -3.72125 4.46375 -3.0625 4.1875 C-0.66868314 3.11332248 -0.66868314 3.11332248 0 0 Z " fill="#C92729" transform="translate(1166,792)"/>
<path d="M0 0 C0.33 0.66 0.66 1.32 1 2 C-0.21484375 4.3828125 -0.21484375 4.3828125 -1.9375 7.125 C-2.50339844 8.03507812 -3.06929687 8.94515625 -3.65234375 9.8828125 C-4.09707031 10.58148438 -4.54179687 11.28015625 -5 12 C-5.33 10.68 -5.66 9.36 -6 8 C-5.34 8 -4.68 8 -4 8 C-3.8453125 7.13375 -3.8453125 7.13375 -3.6875 6.25 C-2.90207202 3.67950842 -1.69495803 2.06342716 0 0 Z " fill="#2D0101" transform="translate(137,308)"/>
<path d="M0 0 C0.33 1.32 0.66 2.64 1 4 C0.01 4.33 -0.98 4.66 -2 5 C-3.22969878 8.51190809 -3.22969878 8.51190809 -4 12 C-4.66 12 -5.32 12 -6 12 C-4.68139111 7.38486888 -2.78644563 3.90102388 0 0 Z " fill="#B32528" transform="translate(1189,245)"/>
<path d="M0 0 C1 3 1 3 0.00390625 5.04296875 C-0.47175781 5.75066406 -0.94742188 6.45835938 -1.4375 7.1875 C-1.91058594 7.90292969 -2.38367188 8.61835937 -2.87109375 9.35546875 C-3.24363281 9.89816406 -3.61617187 10.44085937 -4 11 C-4.66 10.67 -5.32 10.34 -6 10 C-5.67 9.01 -5.34 8.02 -5 7 C-4.34 7 -3.68 7 -3 7 C-2.87625 6.401875 -2.7525 5.80375 -2.625 5.1875 C-2 3 -2 3 0 0 Z " fill="#B72531" transform="translate(870,1306)"/>
<path d="M0 0 C1 2 1 2 0.25 4.3125 C-1.01118343 7.02404437 -2.30790527 9.53236186 -4 12 C-4.66 12 -5.32 12 -6 12 C-4.43358249 7.69235185 -2.31663844 3.93828536 0 0 Z " fill="#300202" transform="translate(993,1095)"/>
<path d="M0 0 C0.75 1.5625 0.75 1.5625 1 4 C-0.13084437 6.50286409 -1.52139516 8.67007722 -3 11 C-3.66 10.67 -4.32 10.34 -5 10 C-4.35699811 8.51960029 -3.71051501 7.04071218 -3.0625 5.5625 C-2.70285156 4.73878906 -2.34320312 3.91507813 -1.97265625 3.06640625 C-1 1 -1 1 0 0 Z " fill="#CA252D" transform="translate(794,1028)"/>
<path d="M0 0 C0.66 0.33 1.32 0.66 2 1 C-0.475 5.455 -0.475 5.455 -3 10 C-3.66 9.34 -4.32 8.68 -5 8 C-5 7.01 -5 6.02 -5 5 C-4.01 5 -3.02 5 -2 5 C-2 4.01 -2 3.02 -2 2 C-1.34 2 -0.68 2 0 2 C0 1.34 0 0.68 0 0 Z " fill="#C4242E" transform="translate(709,974)"/>
<path d="M0 0 C2.23960447 2.87949147 4.29864224 5.76742026 6 9 C5.67 9.66 5.34 10.32 5 11 C3.0625 10 3.0625 10 1 8 C0.33450549 5.30075428 0.18319237 2.79368363 0 0 Z " fill="#250205" transform="translate(291,735)"/>
<path d="M0 0 C0.99 0 1.98 0 3 0 C3 0.99 3 1.98 3 3 C3.66 3 4.32 3 5 3 C7.125 7.625 7.125 7.625 6 11 C4.99735282 9.35577799 3.99794896 7.70957779 3 6.0625 C2.443125 5.14597656 1.88625 4.22945312 1.3125 3.28515625 C0 1 0 1 0 0 Z " fill="#C22327" transform="translate(282,719)"/>
<path d="M0 0 C-1.3697164 3.99500618 -3.25722422 6.80009492 -6 10 C-5.67558396 8.33157466 -5.34060811 6.66519519 -5 5 C-4.855625 4.2575 -4.71125 3.515 -4.5625 2.75 C-4.376875 2.1725 -4.19125 1.595 -4 1 C-2 0 -2 0 0 0 Z " fill="#CE202E" transform="translate(1233,680)"/>
<path d="M0 0 C1 3 1 3 0.0390625 5.04296875 C-0.42757813 5.75066406 -0.89421875 6.45835937 -1.375 7.1875 C-1.83648438 7.90292969 -2.29796875 8.61835937 -2.7734375 9.35546875 C-3.17820312 9.89816406 -3.58296875 10.44085937 -4 11 C-4.33 11 -4.66 11 -5 11 C-5.39169887 8.33644766 -5.40564529 6.60775627 -3.88671875 4.33203125 C-2.63610683 2.8489112 -1.32135486 1.42045648 0 0 Z " fill="#C9262F" transform="translate(1250,648)"/>
<path d="M0 0 C1 3 1 3 0.328125 5.0078125 C-0.02765625 5.70648437 -0.3834375 6.40515625 -0.75 7.125 C-1.26820312 8.18074219 -1.26820312 8.18074219 -1.796875 9.2578125 C-3 11 -3 11 -6 12 C-4.43358249 7.69235185 -2.31663844 3.93828536 0 0 Z " fill="#360303" transform="translate(1283,593)"/>
<path d="M0 0 C2.40575607 2.18517099 3.79535581 4.25919671 5.1875 7.1875 C5.53167969 7.90292969 5.87585938 8.61835937 6.23046875 9.35546875 C6.48441406 9.89816406 6.73835937 10.44085937 7 11 C6.01 11 5.02 11 4 11 C0 4.5 0 4.5 0 0 Z " fill="#360206" transform="translate(573,590)"/>
<path d="M0 0 C3.0916909 2.52956528 3.90931332 5.22454612 5 9 C4.34 9 3.68 9 3 9 C3 8.34 3 7.68 3 7 C2.34 7 1.68 7 1 7 C0.67 4.69 0.34 2.38 0 0 Z " fill="#C82727" transform="translate(411,531)"/>
<path d="M0 0 C2.52349243 3.12432397 4.27256146 6.38060496 6 10 C5.01 10 4.02 10 3 10 C3 9.01 3 8.02 3 7 C2.01 6.67 1.02 6.34 0 6 C0 4.02 0 2.04 0 0 Z " fill="#350404" transform="translate(152,494)"/>
<path d="M0 0 C0.66 0 1.32 0 2 0 C0.94124926 3.40312738 -0.00902154 6.01353231 -2 9 C-2.66 9 -3.32 9 -4 9 C-3.67 7.02 -3.34 5.04 -3 3 C-2.01 3 -1.02 3 0 3 C0 2.01 0 1.02 0 0 Z " fill="#C3282B" transform="translate(1023,429)"/>
<path d="M0 0 C4 4.625 4 4.625 4 8 C2.35 8 0.7 8 -1 8 C-0.67 5.36 -0.34 2.72 0 0 Z " fill="#C7212A" transform="translate(1331,244)"/>
<path d="M0 0 C1.32 0 2.64 0 4 0 C2.90931332 3.77545388 2.0916909 6.47043472 -1 9 C-1 7.68 -1 6.36 -1 5 C-0.34 5 0.32 5 1 5 C0.67 3.35 0.34 1.7 0 0 Z " fill="#C72528" transform="translate(896,1256)"/>
<path d="M0 0 C2.475 0.495 2.475 0.495 5 1 C4.67 2.65 4.34 4.3 4 6 C4.66 6 5.32 6 6 6 C5.67 6.99 5.34 7.98 5 9 C4.16396622 7.68921847 3.3312426 6.37632511 2.5 5.0625 C2.0359375 4.33160156 1.571875 3.60070313 1.09375 2.84765625 C0 1 0 1 0 0 Z " fill="#270204" transform="translate(697,1025)"/>
<path d="M0 0 C2.74277578 3.19990508 4.6302836 6.00499382 6 10 C3.525 9.01 3.525 9.01 1 8 C1.33 6.68 1.66 5.36 2 4 C1.34 4 0.68 4 0 4 C0 2.68 0 1.36 0 0 Z " fill="#2B0005" transform="translate(439,992)"/>
<path d="M0 0 C0.33 0 0.66 0 1 0 C1 1.65 1 3.3 1 5 C0.34 5 -0.32 5 -1 5 C-1.66 6.32 -2.32 7.64 -3 9 C-3.66 8.67 -4.32 8.34 -5 8 C-4.19185349 6.66402348 -3.37836819 5.331275 -2.5625 4 C-2.11003906 3.2575 -1.65757812 2.515 -1.19140625 1.75 C-0.79824219 1.1725 -0.40507813 0.595 0 0 Z " fill="#2A0003" transform="translate(738,927)"/>
<path d="M0 0 C0.99 0.99 1.98 1.98 3 3 C1.92598892 5.91517292 1.22189824 7.77810176 -1 10 C-1.02689216 8.52093108 -1.04634621 7.04172517 -1.0625 5.5625 C-1.07410156 4.73878906 -1.08570313 3.91507813 -1.09765625 3.06640625 C-1 1 -1 1 0 0 Z " fill="#D32625" transform="translate(794,821)"/>
<path d="M0 0 C1.32 0.33 2.64 0.66 4 1 C4 2.32 4 3.64 4 5 C4.66 5 5.32 5 6 5 C6 6.65 6 8.3 6 10 C3.47650757 6.87567603 1.72743854 3.61939504 0 0 Z " fill="#290000" transform="translate(521,720)"/>
<path d="M0 0 C2.91488977 2.6234008 4.88503898 5.71816394 7 9 C6.67 9.66 6.34 10.32 6 11 C4.98805294 9.92781799 3.99081943 8.84173622 3 7.75 C2.443125 7.14671875 1.88625 6.5434375 1.3125 5.921875 C0 4 0 4 0 0 Z " fill="#B8202B" transform="translate(729,447)"/>
<path d="M0 0 C2.33333823 2.12121657 3.9148886 4.01594365 5 7 C4.625 9.25 4.625 9.25 4 11 C0 4.5 0 4.5 0 0 Z " fill="#C52334" transform="translate(488,440)"/>
<path d="M0 0 C1 2 1 2 0.0625 5.125 C-0.288125 6.07375 -0.63875 7.0225 -1 8 C-1.66 8 -2.32 8 -3 8 C-3 8.99 -3 9.98 -3 11 C-3.66 11 -4.32 11 -5 11 C-3.77472971 6.94718288 -2.30119506 3.55639236 0 0 Z " fill="#310404" transform="translate(1032,417)"/>
<path d="M0 0 C0.66 0 1.32 0 2 0 C0.79157144 4.43090471 -0.51668565 6.98112756 -4 10 C-4 8.68 -4 7.36 -4 6 C-3.34 5.67 -2.68 5.34 -2 5 C-1.27840576 3.35636866 -0.60648579 1.68949614 0 0 Z " fill="#C42735" transform="translate(1131,242)"/>
<path d="M0 0 C0.99 0.33 1.98 0.66 3 1 C3 1.66 3 2.32 3 3 C4.32 3.33 5.64 3.66 7 4 C6.01 4.99 5.02 5.98 4 7 C0 1.125 0 1.125 0 0 Z " fill="#350100" transform="translate(742,1103)"/>
<path d="M0 0 C3.48331435 3.01887244 4.79157144 5.56909529 6 10 C4.125 9.5 4.125 9.5 2 8 C1.01505446 5.34822355 0.54087618 2.79452693 0 0 Z " fill="#B72323" transform="translate(705,1040)"/>
<path d="M0 0 C1 3 1 3 0.00390625 5.04296875 C-0.47175781 5.75066406 -0.94742188 6.45835937 -1.4375 7.1875 C-1.91058594 7.90292969 -2.38367188 8.61835937 -2.87109375 9.35546875 C-3.24363281 9.89816406 -3.61617187 10.44085937 -4 11 C-4.33 9.68 -4.66 8.36 -5 7 C-4.34 7 -3.68 7 -3 7 C-2.87625 6.401875 -2.7525 5.80375 -2.625 5.1875 C-2 3 -2 3 0 0 Z " fill="#BF282D" transform="translate(694,1000)"/>
<path d="M0 0 C0.66 0 1.32 0 2 0 C0.74194623 4.50802601 -0.90407165 7.4912812 -4 11 C-3.39301257 6.87248551 -1.96189209 3.6678852 0 0 Z " fill="#BE242E" transform="translate(755,893)"/>
<path d="M0 0 C0.66 0.33 1.32 0.66 2 1 C-0.475 5.455 -0.475 5.455 -3 10 C-4 6 -4 6 -3.0625 3.75 C-2.711875 3.1725 -2.36125 2.595 -2 2 C-1.34 2 -0.68 2 0 2 C0 1.34 0 0.68 0 0 Z " fill="#C3272A" transform="translate(1143,831)"/>
<path d="M0 0 C0.33 0.66 0.66 1.32 1 2 C0.22265625 3.9453125 0.22265625 3.9453125 -0.9375 6.125 C-1.31777344 6.84945312 -1.69804688 7.57390625 -2.08984375 8.3203125 C-2.39019531 8.87460938 -2.69054688 9.42890625 -3 10 C-3.66 10 -4.32 10 -5 10 C-3.66511872 6.40608886 -2.03977277 3.24509304 0 0 Z " fill="#B7222C" transform="translate(1223,186)"/>
<path d="M0 0 C0.88492145 2.47778006 1.11637742 3.66056586 0.25 6.1875 C-1 8 -1 8 -4 9 C-2.80100302 5.9168649 -1.52299523 2.93720508 0 0 Z " fill="#370205" transform="translate(919,1223)"/>
<path d="M0 0 C0.66 0.33 1.32 0.66 2 1 C1.19185349 2.33597652 0.37836819 3.668725 -0.4375 5 C-0.88996094 5.7425 -1.34242188 6.485 -1.80859375 7.25 C-2.20175781 7.8275 -2.59492187 8.405 -3 9 C-3.33 9 -3.66 9 -4 9 C-4.25 6.75 -4.25 6.75 -4 4 C-2 1.6875 -2 1.6875 0 0 Z " fill="#C32431" transform="translate(717,960)"/>
<path d="M0 0 C0.99 0.33 1.98 0.66 3 1 C2.50168276 4.68754757 1.89932357 6.60490662 -1 9 C-1 7.68 -1 6.36 -1 5 C-0.34 5 0.32 5 1 5 C0.67 3.35 0.34 1.7 0 0 Z " fill="#C92323" transform="translate(1080,936)"/>
<path d="M0 0 C0.6875 1.6875 0.6875 1.6875 1 4 C-0.3125 6.75 -0.3125 6.75 -2 9 C-2.66 9 -3.32 9 -4 9 C-2.94124926 5.59687262 -1.99097846 2.98646769 0 0 Z " fill="#340403" transform="translate(749,907)"/>
<path d="M0 0 C0.33 0 0.66 0 1 0 C1 1.65 1 3.3 1 5 C0.34 5 -0.32 5 -1 5 C-1 5.99 -1 6.98 -1 8 C-1.99 8.33 -2.98 8.66 -4 9 C-2.94124926 5.59687262 -1.99097846 2.98646769 0 0 Z " fill="#BF1E2D" transform="translate(924,801)"/>
<path d="M0 0 C0.88492145 2.47778006 1.11637742 3.66056586 0.25 6.1875 C-1 8 -1 8 -4 9 C-2.80100302 5.9168649 -1.52299523 2.93720508 0 0 Z " fill="#330202" transform="translate(813,796)"/>
<path d="M0 0 C3 1 3 1 4.75 3.875 C6 7 6 7 5 10 C3.35 6.7 1.7 3.4 0 0 Z " fill="#2A0100" transform="translate(554,777)"/>
<path d="M0 0 C0.66 0 1.32 0 2 0 C0.50079488 3.11373372 -1.08152136 6.12228205 -3 9 C-3.66 9 -4.32 9 -5 9 C-3.7580393 5.56072421 -2.44259716 2.74792181 0 0 Z " fill="#2F0402" transform="translate(1264,627)"/>
<path d="M0 0 C0.66 0.99 1.32 1.98 2 3 C0.35 5.31 -1.3 7.62 -3 10 C-3.66 9.67 -4.32 9.34 -5 9 C-3.35 6.03 -1.7 3.06 0 0 Z " fill="#240000" transform="translate(1270,616)"/>
<path d="M0 0 C2.74277578 3.19990508 4.6302836 6.00499382 6 10 C5.01 9.34 4.02 8.68 3 8 C3 7.34 3 6.68 3 6 C2.34 6 1.68 6 1 6 C0.67 4.02 0.34 2.04 0 0 Z " fill="#BD2231" transform="translate(440,581)"/>
<path d="M0 0 C2.79872437 2.52788007 4.45773019 4.20411134 5 8 C4.01 8 3.02 8 2 8 C1.34 5.36 0.68 2.72 0 0 Z " fill="#2E0203" transform="translate(198,575)"/>
<path d="M0 0 C3.0916909 2.52956528 3.90931332 5.22454612 5 9 C4.01 9.495 4.01 9.495 3 10 C0.96564469 6.27034861 0 4.33094958 0 0 Z " fill="#CF2237" transform="translate(1385,338)"/>
<path d="M0 0 C2 3 2 3 1.625 5.1875 C1.41875 5.785625 1.2125 6.38375 1 7 C0.34 7 -0.32 7 -1 7 C-1 6.34 -1 5.68 -1 5 C-1.66 4.67 -2.32 4.34 -3 4 C-2.34 4 -1.68 4 -1 4 C-0.67 2.68 -0.34 1.36 0 0 Z " fill="#E42129" transform="translate(126,332)"/>
<path d="M0 0 C0.33 0.99 0.66 1.98 1 3 C-0.9375 6.1875 -0.9375 6.1875 -3 9 C-3.625 7.1875 -3.625 7.1875 -4 5 C-3.34 4.01 -2.68 3.02 -2 2 C-1.34 2 -0.68 2 0 2 C0 1.34 0 0.68 0 0 Z " fill="#C7272C" transform="translate(1007,1068)"/>
<path d="M0 0 C0.33 0 0.66 0 1 0 C1.20086443 3.71599191 1.1519437 4.77208445 -1 8 C-1.99 7.67 -2.98 7.34 -4 7 C-2.68 4.69 -1.36 2.38 0 0 Z " fill="#250101" transform="translate(1020,1048)"/>
<path d="M0 0 C1 3 1 3 -0.25 6.125 C-2 9 -2 9 -5 10 C-3.66511872 6.40608886 -2.03977277 3.24509304 0 0 Z " fill="#320202" transform="translate(1077,949)"/>
<path d="M0 0 C1.32 0.33 2.64 0.66 4 1 C4.33 3.64 4.66 6.28 5 9 C2.67527795 6.14693203 1.2491742 3.45925163 0 0 Z " fill="#BE2725" transform="translate(391,907)"/>
<path d="M0 0 C1 3 1 3 0.22265625 4.82421875 C-0.8515625 6.54947917 -1.92578125 8.27473958 -3 10 C-4.05609899 6.83170302 -4.13055309 6.01480825 -3 3 C-1.4375 1.25 -1.4375 1.25 0 0 Z " fill="#B4262F" transform="translate(1206,722)"/>
<path d="M0 0 C0.33 0.66 0.66 1.32 1 2 C0.06421005 4.35981813 -0.93347808 6.69631264 -2 9 C-2.66 9 -3.32 9 -4 9 C-2.94124926 5.59687262 -1.99097846 2.98646769 0 0 Z " fill="#BD2028" transform="translate(985,695)"/>
<path d="M0 0 C3.0916909 2.52956528 3.90931332 5.22454612 5 9 C4.34 9 3.68 9 3 9 C0 2.25 0 2.25 0 0 Z " fill="#2B0203" transform="translate(226,623)"/>
<path d="M0 0 C0.33 0.66 0.66 1.32 1 2 C0.06421005 4.35981813 -0.93347808 6.69631264 -2 9 C-2.66 9 -3.32 9 -4 9 C-2.94124926 5.59687262 -1.99097846 2.98646769 0 0 Z " fill="#320202" transform="translate(1289,583)"/>
<path d="M0 0 C0.99 0 1.98 0 3 0 C4.79682816 3.80504787 5.07349791 4.70600835 4 9 C2.68 6.03 1.36 3.06 0 0 Z " fill="#2B0100" transform="translate(435,571)"/>
<path d="M0 0 C0.66 1.32 1.32 2.64 2 4 C1.01 4.33 0.02 4.66 -1 5 C-1 5.99 -1 6.98 -1 8 C-1.99 7.67 -2.98 7.34 -4 7 C-2.68 4.69 -1.36 2.38 0 0 Z " fill="#C92827" transform="translate(1116,371)"/>
<path d="M0 0 C0.66 0.33 1.32 0.66 2 1 C1.75 2.875 1.75 2.875 1 5 C-1.0625 6.25 -1.0625 6.25 -3 7 C-1.125 2.25 -1.125 2.25 0 0 Z " fill="#C62628" transform="translate(114,350)"/>
<path d="M0 0 C0.66 0 1.32 0 2 0 C1.38722388 2.96175123 0.74627478 4.38058783 -1 7 C-1.66 7 -2.32 7 -3 7 C-1.125 1.125 -1.125 1.125 0 0 Z " fill="#C42B2B" transform="translate(1201,224)"/>
</svg>
