<?xml version="1.0" encoding="utf-8"?>
<!-- Generator: Adobe Illustrator 19.2.1, SVG Export Plug-In . SVG Version: 6.00 Build 0)  -->
<svg version="1.1" id="layer" xmlns="http://www.w3.org/2000/svg"
  xmlns:xlink="http://www.w3.org/1999/xlink" x="0px" y="0px"
  viewBox="0 0 652 652" style="enable-background:new 0 0 652 652;" xml:space="preserve">
<style type="text/css">
	.st0{fill:#003B2F;}
</style>
<path class="st0" d="M108.8,331.4c0-11.4-6.6-20.5-17.3-24.2c8.1-3.7,13.7-11.4,13.7-21.3c0-15.5-13-26.3-31.5-26.3H21v13.2
	c8.3,0,15,6.7,15,15s-6.7,15-15,15v11.9c8.3,0,15,6.7,15,15s-6.7,15-15,15V359h55c18.9,0,32.6-11.2,32.6-27.5 M49.3,273.9H71
	c8.9,0,15.2,5.8,15.2,13.9s-6.3,13.7-15.2,13.7H49.3C49.3,301.5,49.3,273.9,49.3,273.9z M49.3,344.5v-30H73
	c9.8,0,16.4,6.1,16.4,14.9s-6.6,15.1-16.4,15.1C73,344.5,49.3,344.5,49.3,344.5z M130.2,254.4c6.6,0,11.4,4.7,11.4,11.4
	s-4.7,11.4-11.4,11.4c-6.6,0-11.2-4.7-11.2-11.4S123.7,254.4,130.2,254.4 M120.7,286.5h18.9v72.4h-18.9V286.5L120.7,286.5z
	 M176.2,286.4h20.1v14.4h-20.1v34.6c0,5.5,4.4,10.1,9.9,10.2c2.9,0,6.1-0.4,9.6-1.3l2.5,14.2c-5.8,1.5-11.2,2.2-16.4,2.2
	c-14.5,0-24.6-9.5-24.6-23.4v-67.4c0-2.6,2.1-4.7,4.7-4.7h14.2V286.4L176.2,286.4z M234.6,284.7c8.4,0,17.4,1.7,26.6,5l-4.1,13.6
	c-7.3-2.8-14.5-4.6-21-4.6c-6.5,0-11.2,3.1-11.2,7.8c0,13.1,38.7,3.6,38.7,31.6c0,13.2-11.9,22.5-29,22.5c-8.9,0-18.6-2-28.8-5.8
	l4-13.5c8.4,3.4,16.4,5.2,23.4,5.2c7,0,11.9-3.4,11.9-8.4c0-13.7-38.6-4.1-38.6-31.6c0-12.7,11.5-21.9,28.3-21.9 M293.7,286.4h20.1
	v14.4h-20.1v34.6c0,5.5,4.4,10.1,9.9,10.2c2.9,0,6.1-0.4,9.6-1.3l2.5,14.2c-5.8,1.5-11.2,2.2-16.4,2.2c-14.5,0-24.6-9.5-24.6-23.4
	v-67.4c0-2.7,2.2-4.7,4.7-4.7h14.2V286.4z M413.8,286.4h15.1l2.4,9.9c5.8-7.5,14.2-11.6,23.8-11.6c10.5,0,19,5,23.2,13.3
	c6.6-8.6,15.7-13.3,26.2-13.3c15.8,0,27.1,11,27.1,26.4v47.7h-18.9v-44.8c0-8.1-5.8-13.9-14-13.9c-9.6,0-16.4,7.3-16.4,17.6v41.1
	h-18.9v-44.8c0-8.1-5.8-13.9-13.9-13.9c-9.8,0-16.5,7.3-16.5,17.6v41.1h-18.9v-72.4H413.8z M547.1,286.4h15.1l2.4,9.3
	c5.3-7.1,13.6-11.1,23.2-11.1c19.5,0,33.3,15.7,33.3,38c0,22.3-13.7,37.9-33.3,37.9c-8.9,0-16.5-3.6-21.8-10v32.2
	c0,2.6-2.1,4.7-4.7,4.7H547L547.1,286.4L547.1,286.4z M582.8,299.6c-10,0-17.2,7.5-17.2,18.2v9.8c0,10.5,7.1,18.2,17.2,18.2
	c11.1,0,18.9-9.6,18.9-23C601.8,309.4,593.9,299.7,582.8,299.6 M378.1,327.5c0,10.5-7.1,18.2-17.2,18.2c-11.1,0-18.9-9.6-18.9-23
	c0-13.4,7.8-23.1,18.9-23.1c10,0,17.2,7.5,17.2,18.2V327.5L378.1,327.5z M396.7,323.3L396.7,323.3v-36.9h-15.1l-2.4,9.3
	c-5.3-7.1-13.6-11.1-23.2-11.1c-19.5,0-33.3,15.7-33.3,38c0,22.3,13.7,37.9,33.3,37.9c1.1,0,2.2,0,3.3-0.2
	c8.2-0.8,15.1-4.7,19.9-10.9l2.4,9.3h15.1L396.7,323.3L396.7,323.3z"/>
</svg>
