<?xml version="1.0" encoding="UTF-8"?>
<svg version="1.1" xmlns="http://www.w3.org/2000/svg" width="400" height="400">
<path d="M0 0 C132 0 264 0 400 0 C400 132 400 264 400 400 C268 400 136 400 0 400 C0 268 0 136 0 0 Z " fill="#FEFEFE" transform="translate(0,0)"/>
<path d="M0 0 C6.4659375 -0.12375 6.4659375 -0.12375 13.0625 -0.25 C15.08129272 -0.30462402 15.08129272 -0.30462402 17.14086914 -0.36035156 C23.97575142 -0.42364224 28.56053362 -0.31536029 34 4 C36.83336975 6.87972344 37.43132482 8.92980962 37.4375 12.9375 C37.32823692 16.47033951 37.07495173 17.87151132 35.25 21 C33.20903605 22.81419017 31.53007066 24.00604367 29 25 C29.9075 25.4125 30.815 25.825 31.75 26.25 C37.15384615 29.15976331 37.15384615 29.15976331 39 32 C39.8500547 36.60934832 40.05448614 40.96325279 37.859375 45.203125 C34.66821454 49.20047337 31.95122606 50.60149193 27 52 C23.84033203 52.22705078 23.84033203 52.22705078 20.5078125 52.1953125 C19.4264502 52.19031738 18.34508789 52.18532227 17.23095703 52.18017578 C15.87599121 52.16196777 14.52102539 52.14375977 13.125 52.125 C8.79375 52.08375 4.4625 52.0425 0 52 C0 34.84 0 17.68 0 0 Z " fill="#0B0B0B" transform="translate(65,173)"/>
<path d="M0 0 C1.82666452 1.21187913 3.43732948 2.58186073 4.98828125 4.1328125 C5.31828125 2.4828125 5.64828125 0.8328125 5.98828125 -0.8671875 C8.62828125 -0.8671875 11.26828125 -0.8671875 13.98828125 -0.8671875 C13.98828125 11.0128125 13.98828125 22.8928125 13.98828125 35.1328125 C11.34828125 35.1328125 8.70828125 35.1328125 5.98828125 35.1328125 C5.49328125 32.6578125 5.49328125 32.6578125 4.98828125 30.1328125 C4.06015625 30.9371875 3.13203125 31.7415625 2.17578125 32.5703125 C-0.83918743 35.18328536 -3.17267531 36.03410151 -7.19921875 36.5078125 C-12.14266593 36.02157179 -15.21574066 34.26899304 -19.01171875 31.1328125 C-23.68723881 24.94906017 -23.86714366 17.63940637 -23.01171875 10.1328125 C-21.42501855 5.99159081 -19.08905561 3.14677661 -15.88671875 0.1328125 C-10.87138571 -1.61165117 -4.97467099 -2.14442128 0 0 Z " fill="#131313" transform="translate(223.01171875,189.8671875)"/>
<path d="M0 0 C2.97 0 5.94 0 9 0 C13.66666667 14 18.33333333 28 23 42 C24.94929058 39.07606413 25.60007327 37.16693814 26.4375 33.8125 C27.43220132 29.83937871 28.68929207 26.06196702 30.1550293 22.23706055 C31.74758355 18.02077201 33.20585602 13.75624658 34.6875 9.5 C35.00783203 8.5821875 35.32816406 7.664375 35.65820312 6.71875 C36.43962433 4.47945343 37.21992845 2.23976709 38 0 C40.97 0 43.94 0 47 0 C46.28117039 4.27213509 44.96046957 8.24869007 43.5 12.3125 C43.24444336 13.03091064 42.98888672 13.74932129 42.72558594 14.48950195 C39.93031142 22.29256799 37.00550806 30.04799496 34.07226562 37.80004883 C32.29334061 42.50775812 30.53551943 47.2055856 29 52 C25.37 52 21.74 52 18 52 C17.68248779 51.13310547 17.36497559 50.26621094 17.0378418 49.37304688 C15.84716679 46.12263224 14.65621713 42.8723185 13.46508789 39.62207031 C12.95195882 38.22171934 12.43893575 36.82132953 11.92602539 35.42089844 C8.92961016 27.23983873 5.91951951 19.06522038 2.83203125 10.91796875 C2.49558594 10.01691406 2.15914062 9.11585938 1.8125 8.1875 C1.46832031 7.27355469 1.12414062 6.35960937 0.76953125 5.41796875 C0 3 0 3 0 0 Z " fill="#0D0D0D" transform="translate(154,173)"/>
<path d="M0 0 C5.64645471 6.25688225 5 7.38978451 5 17 C-3.58 17 -12.16 17 -21 17 C-19.1428089 24.71211684 -19.1428089 24.71211684 -16 26 C-14.19272528 26.17252544 -12.37741317 26.26670538 -10.5625 26.3125 C-9.59441406 26.34988281 -8.62632812 26.38726562 -7.62890625 26.42578125 C-4.84927774 26.25454597 -4.84927774 26.25454597 -3.15234375 23.98046875 C-2.77207031 23.32691406 -2.39179688 22.67335937 -2 22 C0.38564077 22.57584432 2.66682784 23.22227595 5 24 C3.50521886 27.80489745 1.30557786 29.66190835 -2 32 C-8.24892531 34.0829751 -15.57630523 34.10554498 -21.5625 31.375 C-26.71350195 26.35607503 -28.26186779 23.254374 -28.4375 16 C-28.43093315 10.01103256 -27.38599447 5.69696532 -23.3515625 1.13671875 C-15.84568644 -5.16346228 -8.56078862 -5.32671292 0 0 Z " fill="#070707" transform="translate(329,192)"/>
<path d="M0 0 C2.64 0 5.28 0 8 0 C8 3.63 8 7.26 8 11 C11.63 11 15.26 11 19 11 C19 13.31 19 15.62 19 18 C15.37 18 11.74 18 8 18 C8 25.26 8 32.52 8 40 C11.3 40 14.6 40 18 40 C18 42.31 18 44.62 18 47 C7.08025418 47.78371382 7.08025418 47.78371382 2.8125 44.6875 C0.33944748 41.02056006 -0.12382787 38.43159885 -0.09765625 34.11328125 C-0.09443359 33.17548828 -0.09121094 32.23769531 -0.08789062 31.27148438 C-0.07951172 30.29501953 -0.07113281 29.31855469 -0.0625 28.3125 C-0.05798828 27.32443359 -0.05347656 26.33636719 -0.04882812 25.31835938 C-0.03704303 22.87884526 -0.02059011 20.43945311 0 18 C-2.31 18 -4.62 18 -7 18 C-7 15.69 -7 13.38 -7 11 C-4.69 11 -2.38 11 0 11 C0 7.37 0 3.74 0 0 Z " fill="#101010" transform="translate(133,178)"/>
<path d="M0 0 C2.97 0 5.94 0 9 0 C9.23187012 0.7113208 9.46374023 1.4226416 9.70263672 2.15551758 C10.7553749 5.3760757 11.81510018 8.59429207 12.875 11.8125 C13.23980469 12.93205078 13.60460937 14.05160156 13.98046875 15.20507812 C14.33496094 16.27822266 14.68945312 17.35136719 15.0546875 18.45703125 C15.37937012 19.44678955 15.70405273 20.43654785 16.03857422 21.45629883 C16.96105645 24.18501107 16.96105645 24.18501107 19 27 C19.48919922 25.515 19.48919922 25.515 19.98828125 24 C26.2327321 5.10880228 26.2327321 5.10880228 29 0 C31.64 0 34.28 0 37 0 C34.54709766 7.60237282 31.74836267 15.04747435 28.875 22.5 C28.41996094 23.69109375 27.96492188 24.8821875 27.49609375 26.109375 C27.06167969 27.23859375 26.62726563 28.3678125 26.1796875 29.53125 C25.78507324 30.55798828 25.39045898 31.58472656 24.98388672 32.64257812 C24 35 24 35 23 36 C21.48071962 36.07179964 19.95832518 36.08392007 18.4375 36.0625 C17.61121094 36.05347656 16.78492188 36.04445312 15.93359375 36.03515625 C15.29550781 36.02355469 14.65742188 36.01195312 14 36 C12.32255053 32.0044671 10.66014823 28.0027429 9 24 C8.63036133 23.11054688 8.26072266 22.22109375 7.87988281 21.3046875 C6.64526043 18.32969381 5.41594957 15.35254733 4.1875 12.375 C3.57370483 10.89845947 3.57370483 10.89845947 2.94750977 9.39208984 C2.56651123 8.46605957 2.1855127 7.5400293 1.79296875 6.5859375 C1.4477417 5.7511084 1.10251465 4.9162793 0.74682617 4.05615234 C0 2 0 2 0 0 Z " fill="#101010" transform="translate(261,189)"/>
<path d="M0 0 C3.0625 1.8125 3.0625 1.8125 5 5 C5.68963526 9.12071314 5.72886982 12.88302439 5 17 C2.78436838 19.97361086 1.26080415 21.36959793 -2 23 C-6.99691647 23.37712577 -9.99067725 23.09290612 -14 20 C-17.10815637 15.33776545 -16.61156181 10.45984696 -16 5 C-12.16531853 -1.74375018 -6.93500367 -1.6882058 0 0 Z " fill="#F5F5F5" transform="translate(224,196)"/>
<path d="M0 0 C2.64 0 5.28 0 8 0 C8 17.16 8 34.32 8 52 C5.36 52 2.72 52 0 52 C0 34.84 0 17.68 0 0 Z " fill="#171717" transform="translate(247,173)"/>
<path d="M0 0 C3.08427046 -0.10800947 6.16475747 -0.18731002 9.25 -0.25 C10.12269531 -0.28351563 10.99539062 -0.31703125 11.89453125 -0.3515625 C18.35641403 -0.4502172 18.35641403 -0.4502172 21.57421875 1.80078125 C23.69862633 5.07760718 23.60306045 7.18061718 23 11 C20.97091099 13.8082592 19.41630333 15.73084798 15.90209961 16.39868164 C13.47870154 16.49195769 11.10932689 16.43674526 8.6875 16.3125 C7.85154297 16.28994141 7.01558594 16.26738281 6.15429688 16.24414062 C4.10208851 16.1855061 2.05080798 16.09583215 0 16 C0 10.72 0 5.44 0 0 Z " fill="#F7F7F7" transform="translate(73,202)"/>
<path d="M0 0 C4.23899676 2.0823142 6.10152695 3.76494474 8 8 C8.99 8.33 9.98 8.66 11 9 C10.01 10.485 10.01 10.485 9 12 C8.34 12 7.68 12 7 12 C6.484375 11.360625 5.96875 10.72125 5.4375 10.0625 C1.92795211 7.09288256 -1.47132524 6.77396989 -6 7 C-9.05147152 8.33501879 -10.51186717 9.02373434 -12 12 C-12.26365764 15.22614424 -12.4443034 18.44547376 -12.60546875 21.67773438 C-12.89920831 26.89920831 -12.89920831 26.89920831 -14 28 C-15.66617115 28.04063832 -17.33388095 28.042721 -19 28 C-21.5700512 22.35414456 -21.77624518 17.114911 -21 11 C-19.40470605 6.86014627 -17.079303 4.01581459 -13.875 1 C-9.26123075 -0.6047893 -4.82282079 -0.64351421 0 0 Z " fill="#0C0C0C" transform="translate(221,189)"/>
<path d="M0 0 C2.4375 2.5 2.4375 2.5 4 5 C3.67 5.99 3.34 6.98 3 8 C1.68 7.67 0.36 7.34 -1 7 C-1.33 8.65 -1.66 10.3 -2 12 C-8.27 12 -14.54 12 -21 12 C-20.67 9.03 -20.34 6.06 -20 3 C-20.66 2.01 -21.32 1.02 -22 0 C-15.22090777 -5.77478227 -7.28760195 -4.53450788 0 0 Z " fill="#0B0B0B" transform="translate(329,192)"/>
<path d="M0 0 C2.75105422 -0.10812003 5.49785087 -0.18734945 8.25 -0.25 C9.02730469 -0.28351563 9.80460937 -0.31703125 10.60546875 -0.3515625 C16.36986123 -0.45009912 16.36986123 -0.45009912 19.515625 1.796875 C21.68942352 5.02324965 21.54267635 7.20126556 21 11 C19.515625 13.203125 19.515625 13.203125 17 15 C14.06626418 15.48299309 11.2128856 15.37775294 8.25 15.25 C7.06083984 15.22292969 7.06083984 15.22292969 5.84765625 15.1953125 C3.89791652 15.14833082 1.94880122 15.07659044 0 15 C0 10.05 0 5.1 0 0 Z " fill="#F8F8F8" transform="translate(73,180)"/>
<path d="M0 0 C2.31 0 4.62 0 7 0 C7 11.55 7 23.1 7 35 C4.69 35 2.38 35 0 35 C0 23.45 0 11.9 0 0 Z " fill="#050505" transform="translate(112,190)"/>
<path d="M0 0 C8.58 0 17.16 0 26 0 C26 0.33 26 0.66 26 1 C24.02 1.33 22.04 1.66 20 2 C19.71125 2.94875 19.4225 3.8975 19.125 4.875 C18 8 18 8 16 10 C11.19712009 10.65563123 6.56266008 10.967361 2.375 8.375 C1 6 1 6 0 0 Z " fill="#E8E8E8" transform="translate(308,209)"/>
<path d="M0 0 C2.38564077 0.57584432 4.66682784 1.22227595 7 2 C5.50521886 5.80489745 3.30557786 7.66190835 0 10 C-3.37768474 11.12589491 -6.00812072 11.13294275 -9.5625 11.125 C-10.71878906 11.12757813 -11.87507813 11.13015625 -13.06640625 11.1328125 C-16 11 -16 11 -18 10 C-17.67 8.35 -17.34 6.7 -17 5 C-16.02417969 4.97421875 -15.04835938 4.9484375 -14.04296875 4.921875 C-12.77066406 4.86515625 -11.49835938 4.8084375 -10.1875 4.75 C-8.92292969 4.70359375 -7.65835937 4.6571875 -6.35546875 4.609375 C-2.92847161 4.32743779 -2.92847161 4.32743779 -1.05078125 1.953125 C-0.70402344 1.30859375 -0.35726563 0.6640625 0 0 Z " fill="#0F0F0F" transform="translate(327,214)"/>
<path d="M0 0 C2.625 1.6875 2.625 1.6875 4 4 C4 5.65 4 7.3 4 9 C-2.27 9 -8.54 9 -15 9 C-14 4 -14 4 -12.5625 1.6875 C-8.57136207 -0.94081035 -4.63648555 -0.76247852 0 0 Z " fill="#ECECEC" transform="translate(323,195)"/>
<path d="M0 0 C0.33 0 0.66 0 1 0 C1 7.26 1 14.52 1 22 C4.3 22 7.6 22 11 22 C11 24.31 11 26.62 11 29 C9.06280622 29.05406122 7.12518079 29.09282025 5.1875 29.125 C4.10855469 29.14820313 3.02960938 29.17140625 1.91796875 29.1953125 C-1 29 -1 29 -4 27 C-2.125 23.125 -2.125 23.125 -1 22 C-0.84285346 20.36743242 -0.74914586 18.72864662 -0.68359375 17.08984375 C-0.62075195 15.60581055 -0.62075195 15.60581055 -0.55664062 14.09179688 C-0.51732422 13.05087891 -0.47800781 12.00996094 -0.4375 10.9375 C-0.39431641 9.89271484 -0.35113281 8.84792969 -0.30664062 7.77148438 C-0.20018775 5.18113116 -0.0981724 2.59067814 0 0 Z " fill="#222222" transform="translate(140,196)"/>
<path d="M0 0 C3 6.5 3 6.5 3 11 C3.66 11 4.32 11 5 11 C5.33 12.65 5.66 14.3 6 16 C3.36 16 0.72 16 -2 16 C-2.70088156 14.25531628 -3.38524009 12.50398839 -4.0625 10.75 C-4.44535156 9.77546875 -4.82820313 8.8009375 -5.22265625 7.796875 C-6.01187776 4.95726396 -6.25801581 3.64973378 -5 1 C-2 0 -2 0 0 0 Z " fill="#0A0A0A" transform="translate(276,208)"/>
<path d="M0 0 C3.0625 0.375 3.0625 0.375 5 2.0625 C6.34483625 4.98949654 6.09365662 6.36084989 5.0625 9.375 C3.0625 11.375 3.0625 11.375 0.125 11.75 C-2.9375 11.375 -2.9375 11.375 -4.875 9.6875 C-6.21983625 6.76050346 -5.96865662 5.38915011 -4.9375 2.375 C-2.9375 0.375 -2.9375 0.375 0 0 Z " fill="#8B8B8B" transform="translate(345.9375,213.625)"/>
<path d="M0 0 C6.57692308 0.57692308 6.57692308 0.57692308 8 2 C7.71269945 4.33944736 7.38063221 6.6739143 7 9 C3.625 9.625 3.625 9.625 0 10 C-2 8 -2 8 -2.25 5 C-2 2 -2 2 0 0 Z " fill="#0E0E0E" transform="translate(113,172)"/>
<path d="M0 0 C0 0.66 0 1.32 0 2 C-0.99 2.495 -0.99 2.495 -2 3 C-2 3.66 -2 4.32 -2 5 C-1.01 5.66 -0.02 6.32 1 7 C-0.06541016 7.07347656 -0.06541016 7.07347656 -1.15234375 7.1484375 C-2.07144531 7.22320312 -2.99054688 7.29796875 -3.9375 7.375 C-4.85402344 7.44460937 -5.77054687 7.51421875 -6.71484375 7.5859375 C-7.46894531 7.72257813 -8.22304688 7.85921875 -9 8 C-9.33 8.66 -9.66 9.32 -10 10 C-10.99 8.02 -11.98 6.04 -13 4 C-8.77894053 0.40428268 -5.4674729 0 0 0 Z " fill="#1E1E1E" transform="translate(320,188)"/>
<path d="M0 0 C0 1.98 0 3.96 0 6 C-2.64 6 -5.28 6 -8 6 C-7.625 3.5625 -7.625 3.5625 -7 1 C-4.53721199 -0.231394 -2.7204945 -0.07159196 0 0 Z " fill="#020202" transform="translate(151,190)"/>
<path d="M0 0 C-0.99 2.97 -1.98 5.94 -3 9 C-4.74627478 6.38058783 -5.38722388 4.96175123 -6 2 C-3 0 -3 0 0 0 Z " fill="#EFEFEF" transform="translate(283,209)"/>
<path d="M0 0 C2.64 0 5.28 0 8 0 C4.87567603 2.52349243 1.61939504 4.27256146 -2 6 C-1.34 4.02 -0.68 2.04 0 0 Z " fill="#2C2C2C" transform="translate(290,189)"/>
<path d="M0 0 C1.98 0.495 1.98 0.495 4 1 C3.34 2.98 2.68 4.96 2 7 C1.67 6.34 1.34 5.68 1 5 C0.34 5 -0.32 5 -1 5 C-0.67 3.35 -0.34 1.7 0 0 Z " fill="#ECECEC" transform="translate(324,210)"/>
</svg>
