<svg xmlns="http://www.w3.org/2000/svg" width="400" height="400" fill="#009ae4" xmlns:v="https://vecta.io/nano"><path d="M68.408 110.1l4.127 2.643 10.1.15c5.237 2.284 9.43 6.116 12.808 10.665.218 5.5-.4 10.982-1.126 16.427l2.717 3.502c-.26 2.534-.63 5.063-1.347 7.514-.68 10.134-.158 20.298-.326 30.446l3.008 2.974c1.26 10.807.588 21.786-.822 32.54-1.705 6.454.772 12.9.893 19.377-1.027 1.747-3.152 3.308-2.5 5.6.585 4.06-.335 8.097-1.075 12.07-.88 6.25-2.896 12.737-.98 18.982 5.944 1.023 12.582 1.597 16.952-3.497 5.355 1.902 11.017 2.36 16.662 2.086a648.82 648.82 0 0 1 4.753-2.919c15.792-1.737 31.68-.214 47.512-.796 1.3 7.73-1.446 16.218 2.7 23.3-8.375-.186-17.06.805-24.963-2.645l-2.496-1.115c-5.395-1.155-10.935-.808-16.404-1.142-11.998-3.3-24.597-.813-36.803-2.076-4.248-1.243-8.554-2.32-13.013-2.342l-9.3 7.704-14.6.015a526.76 526.76 0 0 1 2.119-3.814c2.942-1.805 5.776-3.773 8.64-5.696 2.056-9.527-1.4-19.293 2.143-28.612l1.4-5.305a7262.31 7262.31 0 0 1-3.36-3.248c-.013-5.6-.128-11.2.33-16.765 1.84-5.124.516-10.74 2.38-15.856.318-5.4.014-10.892 1.28-16.203.847-2.758-.393-5.482-.703-8.215-1.125-7.337 1.064-14.998-1.46-22.14-.25-3.4-.33-6.827-.4-10.242l3.147-2.704c.3-4.353.287-8.746-.805-13 3.015-5.4 1.658-11.407-1.45-16.425l-2.982-.126c-2.16-2.384-4.396-4.696-6.76-6.876l.016-4.237zm124.613 3.016l42.146.083c3.2-.156 6.293.614 9.295 1.62-1.848 4.14-3.744 8.275-6.232 12.078l-.165 5.667-4.473 5.13-.01 5.48-2.743 2.694c-.556 4.012-1.4 7.974-2.247 11.933-3.73 7.6-.955 16.38-3.55 24.273-1.065 5.398-5.112 10.055-4.55 15.738-1.58 2.666-3.463 5.18-4.634 8.07-1.147 6.864.94 14.084-1.432 20.77-3.464 8.566-1.366 18.585-7.383 26.27-.996 3.522-2.293 6.95-3.746 10.3 4.04-.202 8.13-.297 12.1-1.198 1.893-2.383 2.654-6.047 5.957-6.934 6.06-2.516 12.226-5.133 17.054-9.72 3.487.648 7.65-.125 10.33 2.688a28.816 28.816 0 0 1-1.281 5.216c1.026 6.313 1.795 12.77.94 19.153l-1.88 1.87c-7.117.495-14.4.756-21.424-.646l-6.94-1.644-4.9 4.028c-6.993-.432-14.074-.166-20.435 3.07-2.655-3.797-1.268-9.026-.232-13.207l.57-4.262 2.6-2.693c1.228-8.93 4.268-17.697 3.16-26.825-4.112-5.048-2.865-11.752-2.904-17.75.086-9.485 5.22-17.816 8.077-26.613 1.487-3.848.42-8.095 1.7-12 1.176-5.858 5.006-10.874 5.38-16.916.822-10.697 10.542-17.87 11.7-28.465l-2.912-1.16c-3.404.314-6.727-.284-9.488-2.404-2.93.5-6.657.44-8.05 3.64-2.88 5.953-3.076 12.756-5.035 19.02l-6.25 2.06a253.43 253.43 0 0 0 .045-8.675c3.645-9.47 1.085-19.87 1.836-29.75zM99.4 115.5c10.048-.456 20.112-.135 30.168-.227l1.64 3.474c-3.738 1.708-7.184 4.084-8.926 7.945 2.608 6.006-.75 12.382.068 18.633.73 13.345-1.5 26.97 1.792 40.076l-2.67 3.2c.22 6.13.9 12.227 1.407 18.337.5 3.026-1.972 5.28-3.243 7.763 1.264 5.435 2.364 10.93 4.33 16.17-.584 6.4-4.614 12.692-1.684 19.07 3.095 1.765 6.114 3.66 9.157 5.515l-.001 4.128c-7.336-.552-14.688-.47-22.022.035a201.866 201.866 0 0 1-5.455 3.556c-.574-4.58 3.582-7.08 6.32-9.906-.32-9.396 2.783-18.723 1.057-28.033 3.814-11.24 1.327-23.235 1.382-34.826.165-11.17-.43-22.36.448-33.508-2.204-11.102-.975-22.56-2.847-33.74-3.842-2.255-7.6-4.7-10.922-7.663z"/><path d="M305.83 129.513c5.64 2.183 9.2 7.26 12.782 11.843 2.553 3.142 2.12 7.3 2.323 11.078-1.97 5.8-2.2 12.295-5.67 17.5-2.132 3.134-6.112 3.684-9.512 4.473l.078-44.904zm-11.042-17.936c9.296-.465 17.878 3.512 26.833 5.26 9.024 2.522 12.4 12.012 15.628 19.78 2.156 4.922.495 10.34-.957 15.202-.13 3.046-.34 6.088-.57 9.13-3.298 6.9-7.844 14.687-16.505 14.974a1024.86 1024.86 0 0 0 0 5.467l5.38-.024a793.129 793.129 0 0 0 6.219 6.546c4.518 6.414 5.202 14.276 5.23 21.883-.082 6.545 5.254 11.506 5.588 17.965 1.072 5.096-.732 10.67 1.723 15.445 2.642 5.017 1.418 10.884 1.6 16.31.227 9.216-2.813 18.06-3.706 27.172-8.202-2.535-13-12.012-22.422-11.053 1.653-5.37 4-10.518 5.322-16 1.724-9.683 1.34-19.664-.81-29.248-1.156-5.742-3.118-11.25-5.663-16.515-.573-3.94.068-7.974.054-11.947-2.57-4.33-5.22-8.643-8.657-12.35-1.387 5.17-4.35 10.136-3.757 15.656.44 12.014 3.38 23.876 2.962 35.912 1.492 8.085-.575 16.238.405 24.356.835 7.615-.5 15.212-1.98 22.66-2.795-10.104-10.93-17.126-19.475-22.47 1.222-9.255 6.223-17.417 7.733-26.573l-2.8-2.88c-.55-14.77 1.12-29.608-.225-44.32-3.356-11.45-3.482-23.464-5.457-35.156-2.546-5.405-3.242-11.268-2.94-17.192 5.07-4.565 10.6-8.604 15.3-13.587-3.282-1.277-6.785-2.145-10.07-.322-2.4-6.33-8.16-10.046-13.64-13.45 6.56.224 13.145.215 19.668-.638z" fill-rule="evenodd"/><path d="M138.917 131.947c-.008-5.835-.704-11.937 1.868-17.4 13.834-.108 27.646.7 41.482.596.195 6.6 1.943 13.055 1.794 19.677-.166 7.635 1.185 15.843-3.223 22.626l1.423 3.027c-5.168 7.254-8.7 15.882-9.063 24.848-2.492 1.745-5.165 3.355-7.094 5.758-1.04 2.143-.366 4.628-.5 6.917-6.35 7.682-10.65 17.03-12.393 26.84-.985 5.077-2.913 9.907-4.943 14.643l-.68 2.46a113.512 113.512 0 0 0-3.207 9.127c6.015-1.66 12.015-3.536 17.788-5.894 3.95-4.675 6.852-10.485 12.64-13.28l2.23-4.448 3.488.66c1.56-3.197 2.978-6.687 6.142-8.655l1.01 8.387c-6 8.188-3.026 18.65-3.642 28.027-7.196 3.63-15.42 2.516-23.043 1.195-2.804-.4-5.102 2.514-7.94 1.905-5.046-.882-10.173-.906-15.256-1.376.468-4.274 1.163-8.526 1.33-12.83l2.196-2.977-2.588-6.68c-2.598-9.606.13-19.297 3.103-28.463 1.254-3.497 3.486-6.508 5.556-9.55 1.117-4.522 3.513-8.54 6.447-12.1l.375-4.098c1.465-4.503 2.9-9.023 4.73-13.395 3.336-3.08 6.4-6.533 8.74-10.433.23-2.812-.07-5.633-.143-8.443 3.983-4.48 7.638-9.236 11.22-14.038l-.263-10.283c-5.905-.002-11.808.014-17.7-.02-4.23 2.578-8.015 5.953-9.017 11.036a542.466 542.466 0 0 0-5.396 3.992c-.07 6.17 1.313 12.856-2.374 18.34-3.572-6.954-4.386-14.844-1.812-22.27l-3.263-3.43z"/><path d="M362.25 148.77l9.833 1.213c4.326 4.3 9.65 8.296 11.096 14.56 2.474 5.928 2.442 12.428 1.974 18.726-1.478 2.993-2.552 6.158-3.382 9.385-7.036 13.117-2.19 28.53-4.573 42.53-3.903 8.817-3.98 19.164-10.662 26.674-.385-21.344-.084-42.698-.133-64.045.018-7.663-3.868-14.746-3.613-22.45.244-8.876-2.37-17.778-.54-26.593zm-26.824-41.16a157.21 157.21 0 0 1 11.379 1.954c4.037 2.54 8.397 4.506 12.502 6.934l2.507.655 5.916 1.77c3 .943 6.135 1.43 9.277 1.72l6.83.87c4.172 3.88 8.554 7.805 10.912 13.125 4.902 7.83 1.012 17.37 3.628 25.8 1.23 8.182 3.292 17.466-.8 25.132-.052 6.206.426 12.994-4.4 17.737-3.988 14.986-.065 30.625-2.947 45.747-.45 8.427-1.184 16.964-4.158 24.94-1.688 4.095-4.762 8.06-9.303 9.054-4.895 1.425-9.862 3.456-15.058 2.7-3.964-.214-7.737 1.32-11.463 2.433 4.142-6.073 4.64-13.395 3.406-20.455l6.073-3.04c-2.898-4.735-6.167-9.76-6.045-15.528-.004-8.25 2.328-16.36 1.513-24.652-3.304-6.08-5.706-12.65-6.56-19.538-1.23-5.382-.82-10.93-1.2-16.393-1.27-6.273-.337-12.773-1.492-19.1.26-13.432-1.22-27.292 3.02-40.284l.42-7.745c-4.91-4.35-9.847-8.715-13.966-13.846zm-80.684 63.16c2.032 3.485 5.277 5.836 9.038 7.198 3.187 11.087 3.703 22.775 2.15 34.178-5.135-3.535-10.797-6.54-17.246-6.054-.937-7.557-.35-15.125 1.272-22.54 2.43-3.903 4.695-8.058 4.785-12.783zm1.648-56.836c-.387-3.636 4.004-1.186 5.478-.16.045 8.44 7.835 14.4 6.578 23.056 5.292 14.388 8.8 29.29 12.684 44.093 1.2 5.986.02 12.197 1.495 18.165 2.564 12.004 2.173 24.307 2 36.5-.377 10.727-8.727 19.53-8.305 30.383a390.343 390.343 0 0 0-2.642 8.82l-1.298 2.223c-.125 5.228-1.263 10.362-2.686 15.375l-2.954-1.69c.877-9.13-3.695-17.364-4.514-26.297-1.812-3.697-4.788-6.664-7.148-10.006 5.054-7.52 9.288-15.71 10.47-24.812-6.517-5.247-13.948-9.192-21.426-12.87.182 4.27.4 8.545.328 12.825l5.5 5.047a785.161 785.161 0 0 0-3.515 3.206l-9.522-.642c-5.484 1.977-11 3.9-16.4 6.1l-1.785-5.27c1.91-2.13 3.856-4.23 5.826-6.31a1374.3 1374.3 0 0 1-.049-4.756 558.093 558.093 0 0 1 5.632-4.12l-1.676-2.573c.684-8.332 1.387-16.688 4.04-24.68l-1.542-2.17c.177-2.656.273-5.316.35-7.973 2.306-4.375 4.053-9.022 4.922-13.902l1.622-2.046c.105-7.322 1.618-14.74 6.1-20.7l-.35-2.95c2.453-7.58 8.475-13.977 8.306-22.263 3.063-2.412 4.92-5.603 4.472-9.595zM32.255 182.38a114.033 114.033 0 0 0 11.887 9.915c2.123 6.728 2.715 14 .768 20.838 1.29 3.26 3.626 6.86.91 10.174.777 6.268 2.59 12.702.65 18.956l-.062.23-1.272 4.055c-1.3 5.327.15 11.597-3.716 16.047-3.628 4.908-9.15 7.883-14.593 10.35l2.334-5.48c-.694-17.05 3.7-34.057.812-51.054 1.036-3.035 2.266-6.1 2.2-9.363-.164-8.223.137-16.443.1-24.666zm1.6-49.748l7.926 1.02a158.412 158.412 0 0 0 6.236 3.435l-1.964 2.12c1.42 5.376-.337 10.84-.215 16.28-4.283 1.767-7.2 5.332-9.23 9.372l-4.35.007c.456-9.868-1.07-19.9.943-29.642l.653-2.6zM2.18 115.43c7.556.025 14.968-1.816 22.525-1.695l23.707.192c2.314 2.583 5.423 4.053 8.6 5.277 4.464 1.742 5.983 6.708 8.2 10.498.06 3.32.15 6.64.4 9.95 2.347 4.08.694 8.486-1.496 12.182-3.6 6.768-7.233 13.698-12.966 18.948 1.624 3.207 5.198 3.972 8.304 5.072-.432 2.087-1.03 4.147-1.28 6.27 1.813 2.05 4.054 3.773 5.413 6.194-.317 7.065-2.146 14.886 3.1 20.748-.724 9.972 2.626 20.435-1.585 29.924.2 6.056 1.117 12.577-2.143 18.053-2.95 5.02-5.828 10.31-5.314 16.365-6.224 3.938-12.827 7.465-17.795 13.048l-5.12.213-5.042 2.548-2.294-3.22a338.3 338.3 0 0 0-4.462 3.489c-7.118-.382-14.693 1.482-21.456-1.38 7.045-2.97 7.105-11.37 8.113-17.86.167-11.03.76-22.16-.964-33.105-1.056-10.16-.025-20.376-.17-30.56l2.97-2.658c-.664-7.116-2.456-14.198-1.432-21.382 2.673-5.218-.507-10.736-.284-16.16.055-10.146-.222-20.304.283-30.44.655-2.33 1.2-4.692 1.7-7.054l-4.304-.093A995.788 995.788 0 0 0 .9 122.254l-.9-3.68 2.18-3.143z" fill-rule="evenodd"/></svg>