<svg xmlns="http://www.w3.org/2000/svg" xml:space="preserve" fill-rule="evenodd" stroke-linejoin="round" stroke-miterlimit="2" clip-rule="evenodd" viewBox="0 0 24 24">
  <path fill="#3d89f5" d="M2.053 8.723.958 9.818a3.12 3.12 0 0 0 0 4.5l8.82 8.91c.21.213.453.39.72.524V12.953l-8.445-4.23Z"/>
  <path fill="#1656b9" d="m21.946 8.723 1.095 1.095a3.12 3.12 0 0 1 0 4.5l-8.822 8.91c-.21.213-.452.39-.72.524V12.953l8.447-4.23Z"/>
  <path fill="#85b5f8" d="M19.827 6.488 14.307.953a3.133 3.133 0 0 0-4.5 0L4.272 6.488l7.755 3.87 7.8-3.87Z"/>
</svg>
