<svg xmlns="http://www.w3.org/2000/svg" viewBox="0 0 383.673 500"><path fill="#F96605" fill-rule="evenodd" d="M71.984 28.786c0 1.797 3.264 17.354 5.556 26.478 9.77 38.898 27.54 80.308 49.945 116.357 1.724 2.781 3.248 4.941 3.379 4.804.132-.137.805-2.076 1.504-4.304 5.271-16.934 15.015-39.602 23.887-55.575 3.022-5.439 3.038-4.351-.168-10.963-12.53-25.858-40.942-53.062-76.498-73.244-6.806-3.858-7.605-4.231-7.605-3.553m238.049 1.571c-40.143 21.859-71.378 52.673-83.03 81.932l-1.225 3.07 1.493 2.974c6.412 12.777 15.993 36.344 22.825 56.142l2.318 6.707 3.017-4.604c27.277-41.663 49.315-96.154 57.913-143.172 1.051-5.766 1.283-5.551-3.311-3.049M189.051 89.59c-20.025 23.85-36.417 63.652-45.61 110.765l-.967 4.956 2.928 5.255c1.613 2.891 4.536 8.504 6.501 12.467s3.574 6.938 3.579 6.607c.063-4.757 6.528-22.216 13.066-35.277 2.922-5.834 3.18-6.17 1.929-2.496-7.164 21.012-6.817 55.458.799 79.614 4.714 14.947 8.162 28.312 11.531 44.668l1.734 8.41.19-2.25c.1-1.24.326-6.244.499-11.116.368-10.291 2.071-50.492 3.143-74.195.405-9.003 1.361-30.289 2.118-47.307 1.419-31.761 1.561-33.926 1.992-30.489 2.817 22.447 7.037 112.095 7.495 159.202l.026 3.153.568-2.706c3.106-14.853 6.417-28.113 9.917-39.707 1.319-4.363 1.819-7.8 3.112-21.265 2.853-29.711 2.964-52.794.32-67.715-.736-4.158-.636-4 2.702 4.183 4.167 10.238 8.193 23.493 10.101 33.243l1.004 5.161 3.805-7.715c2.092-4.242 5.125-10.076 6.733-12.966l2.932-5.256-.688-3.458c-8.252-41.4-27.651-89.374-46.361-114.665-2.244-3.033-1.713-3.127-5.098.899M79.878 194.195c.006.825.063 1.13.132.673.068-.458.068-1.13-.005-1.504-.069-.367-.127.006-.127.831m223.785 1.503c0 .825.063 1.13.132.673.068-.458.063-1.136-.006-1.503-.073-.368-.126.005-.126.83m-199.345 1.514c-.405 5.387-.563 37.699-.221 46.098 3.343 82.631 22.195 141.805 54.886 172.294 10.527 9.818 21.275 24.187 25.375 33.915l1.135 2.702-.132-2.702c-5.644-115.132-33.721-206.383-77.207-250.957l-3.658-3.747zm171.589 2.459c-35.029 35.582-60.414 101.972-72.045 188.419-2.775 20.634-5.487 51.927-5.393 62.181l.021 2.549.636-1.498c4.126-9.765 15.11-24.471 25.564-34.215 32.686-30.489 51.538-89.647 54.886-172.299.357-8.741.163-41.726-.268-46.188l-.21-2.186zM79.878 221.078c0 .746.058 1.051.127.678a4.2 4.2 0 0 0 0-1.351c-.069-.373-.127-.068-.127.673m223.78 1.503c0 .746.058 1.051.131.678a4.1 4.1 0 0 0 0-1.351c-.073-.373-.131-.068-.131.673" clip-rule="evenodd"/><path fill="#F9C511" fill-rule="evenodd" d="M61.93 52.416c-.815 9.944.804 30.651 3.747 48.063 1.535 9.067 5.645 28.55 6.081 28.828 5.377 3.48 13.402 9.419 18.727 13.854 2.086 1.74 3.863 3.091 3.941 3.007.084-.079-.93-2.013-2.249-4.294-12.241-21.149-23.047-53.425-28.896-86.3-.515-2.896-.973-5.46-1.02-5.707-.047-.253-.194.898-.331 2.549m261.81-2.344c-.068 1.198-2.107 11.867-3.343 17.517-6.659 30.368-16.292 57.23-26.872 74.926-1.078 1.808-1.966 3.332-1.966 3.39 0 .053 1.251-.936 2.78-2.202 4.993-4.136 18.417-13.839 19.783-14.301 1.009-.342 6.538-28.602 8.215-41.988 1.577-12.593 2.454-30.946 1.718-36.05-.152-1.072-.294-1.655-.315-1.292M22.601 141.106c-.573 28.786 1.693 73.124 5.251 102.803 8.745 72.882 38.919 130.852 86.488 166.171 7.663 5.687 18.511 12.172 24.702 14.753 1.745.731 1.356.336-1.445-1.472-59.894-38.635-95.471-120.503-102.13-235.021-.552-9.513-.872-37.905-.515-45.51.221-4.64.195-5.445-.189-5.707-.815-.547-11.584-6.454-11.773-6.454-.1 0-.273 4.693-.389 10.437m332.547-6.012-5.355 2.927.205 8.415c.221 9.119-.21 27.582-.925 39.649-6.507 110.098-40.617 193.386-95.655 233.55-4.635 3.385-8.835 6.601-8.609 6.601 1.761 0 17.26-9.26 24.524-14.653 42.519-31.571 71.336-81.49 83.035-143.839 4.662-24.834 7.658-60.047 8.593-100.884.3-12.977.121-34.694-.283-34.688-.095 0-2.586 1.314-5.53 2.922" clip-rule="evenodd"/><path fill="#121831" fill-rule="evenodd" d="M47.356 3.379c0 1.861.147 8.452.326 14.648.178 6.192.357 21.938.404 34.993.074 23.414.158 25.811 1.246 36.796.92 9.281 2.701 20.26 4.452 27.398l.42 1.713-2.901-1.456c-7.942-3.978-18.395-8.251-27.976-11.436C14.66 103.149.469 99.355.023 99.801c-.106.106.162 3.002.588 6.439 1.419 11.363 2.434 23.115 3.243 37.494.441 7.868.515 41.153.131 59.622-1.445 69.118 20.55 140.302 57.593 186.384 20.303 25.27 48.521 46.645 73.186 55.454 33.648 12.014 54.224 30.331 56.484 50.282.562 5.003 1.109 6.033 1.167 2.202.283-18.695 22.683-38.909 56.494-50.981 24.665-8.809 52.883-30.184 73.186-55.453 37.037-46.083 59.033-117.267 57.593-186.385-.384-18.474-.31-51.754.131-59.627.809-14.374 1.824-26.126 3.243-37.489.425-3.437.694-6.339.588-6.444s-1.776.19-3.71.657c-16.067 3.863-30.268 8.83-44.737 15.652l-3.39 1.603.179-.804c.105-.447.431-1.819.735-3.059 1.456-5.955 3.138-16.64 4.016-25.532 1.093-10.99 1.172-13.382 1.251-36.796.042-13.055.22-28.801.399-34.993.179-6.196.326-12.787.326-14.648V0h-.957c-2.16 0-15.383 4.515-23.498 8.02-37.941 16.403-72.981 47.581-96.301 85.674-1.393 2.271-1.982 3.012-2.171 2.702-6.711-11.169-12.829-19.604-19.273-26.552-4.383-4.725-4.047-4.62-6.475-2.071-4.578 4.798-13.276 15.925-18.463 23.619-2.712 4.016-2.555 3.905-3.406 2.386-14.989-26.673-46.687-58.228-75.525-75.183C78.98 10.554 53.815 0 48.312 0h-.956zm31.24 28.255c36.075 20.34 64.945 47.843 77.622 73.949 2.896 5.97 2.88 5.907 1.871 7.763-11.746 21.685-18.91 38.114-25.322 58.091-.967 3.012-1.845 5.482-1.955 5.482-.3.011-6.927-10.79-10.969-17.869C98.61 121.86 83.147 82.452 74.849 44.385c-1.067-4.899-3.164-15.725-3.164-16.346 0-.173 2.801 1.283 6.911 3.595m234.759 2.208c-7.553 41.221-24.056 84.949-47.502 125.849-6.291 10.979-13.365 22.121-13.596 21.406-5.414-16.855-16.041-43.685-23.777-60.015l-2.765-5.834 1.13-2.88c9.581-24.445 32.155-49.199 64.567-70.811 7.91-5.271 22.51-13.891 22.889-13.507.058.053-.368 2.659-.946 5.792M64.495 61.277c6.049 30.499 16.371 60.914 26.71 78.699 2.412 4.153 3.863 6.917 3.516 6.712-.195-.121-2.203-1.734-4.462-3.584-5.156-4.226-8.867-7.038-14.217-10.759-4.962-3.453-4.352-2.575-5.676-8.136-5.466-22.962-8.199-42.903-8.504-62.07-.2-12.882 0-15.337.851-10.323.305 1.819 1.109 6.076 1.782 9.461m259.713.452c-.284 19.52-2.97 39.271-8.499 62.48-1.329 5.577-.709 4.709-5.744 8.068-5.272 3.516-10.139 7.116-15.247 11.273-2.518 2.045-3.7 2.854-3.322 2.276 12.808-19.504 26.305-59.185 31.908-93.778.867-5.34 1.088-2.97.904 9.681M194.979 89.642c18.043 24.76 35.03 66.506 44.9 110.355l1.514 6.696-2.88 5.166c-1.582 2.844-4.683 8.814-6.896 13.276-2.207 4.463-4.02 8.031-4.026 7.937-.347-7.206-8.267-33.422-13.276-43.938l-.594-1.246.174 1.203c.1.657.373 2.55.62 4.205 2.407 16.235 1.466 48.931-2.239 77.948-.384 3.012-.941 5.608-1.808 8.409-2.891 9.387-6.664 24.361-9.15 36.323l-1.288 6.181-.194-6.155c-.105-3.39-.331-11.704-.5-18.474-1.445-59.211-4.152-114.071-6.706-135.772l-.389-3.306-.21 2.255c-.116 1.241-1.151 23.273-2.302 48.963s-2.229 49.745-2.402 53.467c-.573 12.519-2.087 49.656-2.291 56.247-.111 3.595-.247 6.49-.3 6.438-.058-.053-.783-3.469-1.619-7.589-3.416-16.835-6.89-30.521-11.405-44.885-8.052-25.648-8.756-59.721-1.666-80.481.951-2.78.946-2.906-.026-1.224-4.583 7.894-11.757 26.094-13.812 35.04l-.836 3.647-3.668-7.405c-2.024-4.068-4.92-9.629-6.449-12.357-3.238-5.786-3.122-4.404-1.151-14.038 9.45-46.166 26.11-85.453 45.898-108.242 2.323-2.675 1.971-2.775 4.977 1.356M34.29 136.686c23.961 13.639 40.207 25.633 45.951 33.921l.788 1.14-.336 5.645c-1.161 19.715-.846 50.561.767 74.327 5.314 78.458 25.034 138.584 55.822 170.239 3.8 3.905 3.758 3.968-1.12 1.629-50.581-24.218-90.725-83.739-104.563-155.023-6.165-31.735-11.005-104.684-8.977-135.268l.189-2.927 3.185 1.703c1.751.941 5.482 3.017 8.294 4.614m326.918 13.502c.142 56.053-4.798 106.256-13.785 139.972-16.446 61.713-54.587 113.224-99.912 134.931-4.878 2.338-4.92 2.275-1.12-1.63 30.788-31.655 50.508-91.786 55.822-170.239 1.608-23.766 1.928-54.618.767-74.327l-.336-5.65.788-1.135c6.259-9.029 25.191-22.594 52.263-37.447l5.103-2.801.19 2.181c.099 1.198.199 8.467.22 16.145M114.924 205.91c31.434 37.363 53.945 99.465 64.73 178.575 2.885 21.175 5.907 55.432 5.87 66.532l-.01 1.503-1.283-3.001c-4.283-10.017-11.715-20.014-24.686-33.195-7.705-7.826-9.555-9.881-13.123-14.601-23.615-31.219-37.779-80.575-41.842-145.799-1.119-17.986-1.261-52.747-.241-60.074l.184-1.345 3.432 3.6c1.886 1.982 5.024 5.492 6.969 7.805m164.957 5.587c1.734 60.325-7.206 119.636-23.935 158.771-8.651 20.245-16.555 32.06-31.818 47.559-13.061 13.271-20.818 23.756-24.939 33.721-1.135 2.749-1.13 2.759-.751-5.382 2.622-56.352 13.039-115.348 28.134-159.365 12.992-37.883 29.185-66.417 49.966-88.06l2.56-2.659.199 1.161c.116.636.374 7.053.584 14.254" clip-rule="evenodd"/><path fill="#F9C511" fill-rule="evenodd" d="M35.105 138.1c-.384.936-.242 39.986.168 47.086 6.838 117.519 42.056 199.682 102.003 237.965l2.145 1.367-2.554-2.67c-31.083-32.497-50.498-92.559-55.711-172.384-1.561-23.829-1.766-54.539-.505-74.468l.205-3.28-.883-1.225c-5.587-7.752-19.72-18.479-39.991-30.357-4.909-2.875-4.588-2.738-4.877-2.034m312.927.951c-.741.458-3.921 2.36-7.058 4.226-18.648 11.09-31.961 21.344-37.274 28.718l-.888 1.224.21 3.28c1.261 19.93 1.051 50.639-.505 74.468-5.245 80.282-24.675 140.082-56.157 172.841-3.485 3.627-3.432 3.616 1.944-.373 7.847-5.813 8.588-6.386 12.467-9.608 51.002-42.424 82.032-122.438 88.307-227.742.988-16.545 1.314-47.974.499-47.89-.11.016-.804.399-1.545.856" clip-rule="evenodd"/><path fill="#121831" fill-rule="evenodd" d="M192.026 157.862c-.105.268-.174 1.051-.158 1.739.037 1.241.042 1.241.305-.373.273-1.624.2-2.281-.147-1.366m-.405 7.799c.005.825.063 1.125.131.673.069-.457.063-1.135-.005-1.503-.073-.368-.126.005-.126.83m-169.13-.152c0 .578.063.815.136.525a2.36 2.36 0 0 0 0-1.051c-.073-.289-.136-.052-.136.526m338.528 1.503c0 .578.063.815.137.526a2.6 2.6 0 0 0 0-1.052c-.074-.289-.137-.052-.137.526m-169.698 5.256c0 .825.063 1.13.132.673.068-.458.063-1.136-.005-1.504-.074-.367-.127.006-.127.831m-110.554 1.351c0 .578.063.819.136.525a2.5 2.5 0 0 0 0-1.051c-.073-.289-.136-.053-.136.526m221.976 1.503c0 .578.063.814.137.525a2.36 2.36 0 0 0 0-1.051c-.074-.289-.137-.052-.137.526m-111.721 3.453c0 .83.058 1.13.131.672.063-.457.063-1.13-.005-1.503-.074-.368-.131.006-.126.831m-110.544.452c0 .746.057 1.051.131.678a4.5 4.5 0 0 0 0-1.351c-.074-.373-.131-.068-.131.673m222.581 1.503c0 .741.058 1.046.126.673a4.2 4.2 0 0 0 0-1.351c-.068-.368-.126-.068-.126.678m-112.337 4.656c0 .826.058 1.125.126.668.069-.452.069-1.13 0-1.498-.073-.373-.131.005-.126.83m3.884-.452c0 .579.063.815.142.526a2.5 2.5 0 0 0 0-1.051c-.079-.289-.142-.053-.142.525m-114.423 1.504c0 .909.058 1.282.126.825a6.6 6.6 0 0 0 0-1.651c-.068-.457-.126-.084-.126.826m223.181 1.503c0 .904.057 1.277.126.825a6.8 6.8 0 0 0 0-1.656c-.069-.452-.126-.078-.126.831m-108.453 1.498c0 .578.063.814.137.525a2.55 2.55 0 0 0 0-1.051c-.074-.289-.137-.052-.137.526m-4.494 2.554c.006.825.063 1.13.132.673.068-.458.068-1.136-.005-1.503-.069-.368-.127.005-.127.83m4.799 2.102c.005.662.063.894.137.526.073-.379.068-.915-.006-1.204-.079-.289-.136.016-.131.678m-88.539 3.154c1.314 1.324 2.46 2.402 2.539 2.402.084 0-.925-1.078-2.239-2.402-1.314-1.32-2.454-2.402-2.538-2.402-.085 0 .925 1.082 2.238 2.402m-26.762 2.554c0 2.313.048 3.222.105 2.013a51 51 0 0 0-.005-4.205c-.052-1.103-.1-.121-.1 2.192m196.77-.978-2.396 2.481 2.48-2.396c2.297-2.224 2.613-2.56 2.392-2.56-.042 0-1.156 1.114-2.476 2.475m-172.488-1.277c0 .578.063.82.136.526a2.5 2.5 0 0 0 0-1.051c-.073-.284-.136-.053-.136.525m85.921 1.051c.005.831.063 1.13.131.673.069-.457.069-1.13-.005-1.503-.068-.368-.126.005-.126.83m113.577 2.707c0 2.313.047 3.217.105 2.013a51 51 0 0 0 0-4.205c-.058-1.108-.105-.12-.105 2.192m-108.185-2.255c0 .579.063.815.137.526a2.55 2.55 0 0 0 0-1.051c-.074-.289-.137-.053-.137.525m83.803 0c0 .579.063.815.142.526a2.5 2.5 0 0 0 0-1.051c-.079-.289-.142-.053-.142.525m-175.405 5.109c0 .741.058 1.046.131.673a4.5 4.5 0 0 0 0-1.351c-.073-.368-.131-.068-.131.678m91.907.147c.005.662.068.899.137.526.073-.373.068-.915-.006-1.204-.073-.289-.131.021-.131.678m-5.997.904c.006.825.063 1.125.132.673.068-.457.068-1.135-.006-1.503-.073-.373-.126.005-.126.83m89.811.452c0 .741.057 1.046.131.673a4.5 4.5 0 0 0 0-1.351c-.074-.373-.131-.068-.131.678m-63.979 2.549c.006.825.063 1.13.132.673.068-.457.068-1.13-.006-1.503-.073-.368-.126.005-.126.83m-19.53 1.656c0 .741.063 1.046.131.672a4.1 4.1 0 0 0 0-1.35c-.068-.373-.131-.069-.131.678m-116.205 5.403c0 2.727.048 3.842.105 2.48a77 77 0 0 0 0-4.956c-.057-1.361-.105-.247-.105 2.476m109.604-3.453c.005.825.063 1.13.131.672s.063-1.135-.005-1.503c-.074-.368-.126.005-.126.831m114.181 4.956c0 2.728.047 3.842.1 2.481a71 71 0 0 0 0-4.957c-.053-1.366-.1-.252-.1 2.476m-200.06.599c0 2.234.052 3.148.105 2.029a44 44 0 0 0 0-4.052c-.053-1.115-.105-.205-.105 2.023m92.785-1.498c0 .741.058 1.046.126.673a4.2 4.2 0 0 0 0-1.351c-.068-.368-.126-.068-.126.678m83.54 3.001c0 2.234.047 3.143.105 2.029a47 47 0 0 0 0-4.058c-.058-1.114-.105-.199-.105 2.029m-90.746-.452c0 .831.058 1.13.131.673.069-.457.064-1.13-.005-1.503-.073-.368-.131.005-.126.83m7.511 3.606c0 .825.057 1.13.126.672.068-.457.068-1.13 0-1.503-.074-.368-.132.005-.126.831m-31.53 1.203c0 1.156.058 1.593.121.972.063-.625.063-1.571-.005-2.107-.063-.531-.116-.021-.116 1.135m23.72 1.803c0 .825.057 1.125.126.673.068-.458.068-1.136 0-1.504-.074-.367-.132.006-.126.831m-85.275 3.605c0 2.476.047 3.448.105 2.16a61 61 0 0 0-.005-4.504c-.053-1.188-.1-.136-.1 2.344m112.021-.904c0 1.157.053 1.593.121.973.063-.626.063-1.572-.005-2.103-.069-.536-.121-.026-.116 1.13m64.299 2.402c0 2.481.047 3.453.105 2.166a58 58 0 0 0 0-4.505c-.058-1.193-.105-.136-.105 2.339m-82.931-1.351c0 .91.053 1.283.121.826a6.6 6.6 0 0 0 0-1.651c-.068-.457-.121-.084-.121.825m-116.84.605c0 1.072.052 1.514.121.972.063-.536.063-1.414 0-1.95-.069-.541-.121-.1-.121.978m85.017 1.95c-.005 1.487.047 2.134.11 1.435.063-.694.063-1.914 0-2.702-.058-.788-.11-.221-.11 1.267m138.163-.452c0 1.077.053 1.513.121.977.063-.536.063-1.413 0-1.95-.068-.541-.121-.099-.121.973m-114.759.751c.005.825.063 1.13.131.673s.068-1.135-.005-1.503c-.068-.368-.126.005-.126.83m26.73 3.453c0 .747.058 1.052.132.678a4.2 4.2 0 0 0 0-1.35c-.074-.374-.132-.069-.132.672m-18.016.752c0 .825.063 1.13.131.673.068-.458.063-1.13-.005-1.503-.074-.368-.126.005-.126.83m-116.846 1.204c0 .825.058 1.129.131.672.063-.457.063-1.135-.005-1.503-.074-.368-.131.005-.126.831m107.832 1.203c.005.825.063 1.125.132.668.068-.458.068-1.13-.006-1.498-.068-.373-.126 0-.126.83m114.744.3c.005.825.063 1.124.131.667.068-.452.068-1.13-.005-1.498-.068-.373-.126.006-.126.831m-137.585-.153c0 .578.063.815.136.526a2.5 2.5 0 0 0 0-1.051c-.073-.289-.136-.053-.136.525m49.561 1.803c0 .578.063.815.137.526a2.5 2.5 0 0 0 0-1.052c-.074-.289-.137-.052-.137.526m-111.122 2.255c0 .825.058 1.124.126.667.068-.452.068-1.13 0-1.498-.073-.373-.131 0-.126.831m-23.141.599c.005.662.063.893.137.52.073-.373.068-.914-.006-1.198-.079-.289-.136.016-.131.678m116.862.452c0 .909.052 1.277.126.825a6.7 6.7 0 0 0 0-1.65c-.074-.458-.126-.084-.126.825m82 .447c0 .83.058 1.13.126.672s.068-1.13 0-1.503c-.074-.368-.131.005-.126.831m23.115.604c.005.657.068.893.136.52.074-.373.069-.914-.005-1.198-.074-.289-.131.016-.131.678m-114.733.599c.005.825.063 1.13.131.673s.068-1.135-.005-1.503-.126.005-.126.83m26.72-.452c0 .578.063.815.136.526a2.5 2.5 0 0 0 0-1.051c-.073-.289-.136-.053-.136.525m-133.67 3.606c0 .578.063.814.137.525a2.55 2.55 0 0 0 0-1.051c-.074-.289-.137-.053-.137.526m23.131 1.503c0 .578.063.814.136.525a2.5 2.5 0 0 0 0-1.051c-.073-.289-.136-.052-.136.526m198.247 0c0 .578.063.814.136.525a2.36 2.36 0 0 0 0-1.051c-.073-.289-.136-.052-.136.526m-104.506 1.65c0 .993.053 1.361.121.82.069-.536.069-1.351 0-1.803-.068-.447-.126-.005-.121.983m81.375-.147c0 .578.063.815.142.525a2.5 2.5 0 0 0 0-1.051c-.079-.289-.142-.052-.142.526m-91.602.599c0 .741.058 1.046.131.678a4.2 4.2 0 0 0 0-1.356c-.073-.368-.131-.063-.131.678m-.289 6.607c0 .909.052 1.282.121.825a6.3 6.3 0 0 0 0-1.651c-.069-.452-.121-.084-.121.826m10.816 1.203c0 1.072.058 1.514.121.978a9.4 9.4 0 0 0 0-1.955c-.063-.537-.121-.095-.121.977m-11.121 5.555c0 .826.058 1.13.131.673.063-.457.063-1.13-.005-1.503-.074-.368-.131.005-.126.83m11.426 3.453c0 1.241.058 1.751.121 1.13.063-.62.063-1.634 0-2.254s-.121-.111-.121 1.124m-11.726 3.606c0 .909.058 1.282.126.825a6.6 6.6 0 0 0 0-1.65c-.068-.452-.126-.084-.126.825m12.031 6.312c0 1.235.052 1.745.115 1.125s.063-1.635 0-2.255-.115-.11-.115 1.13m-12.33.899c0 .909.057 1.282.126.825a6.7 6.7 0 0 0 0-1.65c-.069-.458-.126-.084-.126.825m-.305 7.058c.005.825.063 1.13.131.673.069-.457.069-1.135-.005-1.503-.068-.368-.126.005-.126.83m12.934 2.702c0 1.324.053 1.829.121 1.119.063-.704.058-1.787-.005-2.402s-.116-.036-.116 1.283m-13.229 4.357c0 .909.058 1.282.127.825a6.7 6.7 0 0 0 0-1.65c-.069-.452-.127-.085-.127.825m13.534 7.058c0 1.488.047 2.134.11 1.435.063-.694.069-1.913.006-2.701-.063-.789-.116-.221-.116 1.266m-13.833.3c.005.993.058 1.361.126.82.068-.536.068-1.351 0-1.803-.074-.447-.126-.005-.126.983m-.3 7.363c0 .904.053 1.277.121.825a6.2 6.2 0 0 0 0-1.655c-.068-.452-.121-.079-.121.83m14.433 5.103c0 1.572.052 2.213.115 1.43.063-.788.063-2.071 0-2.854s-.115-.142-.115 1.424m-14.732 2.854c0 .994.058 1.362.126.82.063-.536.063-1.351-.005-1.803-.069-.452-.121-.005-.121.983m-.463 7.437c-.073.699-.026 1.545.1 1.877.153.388.237-.058.252-1.278.021-2.16-.157-2.465-.352-.599m-25.164 92.522c0 .048 1.051 1.094 2.328 2.329l2.328 2.244-2.244-2.328c-2.086-2.16-2.412-2.465-2.412-2.245m62.48 3.674c-1.23 1.235-2.171 2.25-2.086 2.25s1.156-1.015 2.386-2.25c1.23-1.24 2.17-2.254 2.086-2.254-.079 0-1.156 1.014-2.386 2.254m-85.905 1.13c0 .048 1.046 1.093 2.323 2.329l2.328 2.249-2.244-2.328c-2.087-2.166-2.407-2.465-2.407-2.25m109.383 3.627c-1.251 1.256-1.987 2.202-1.719 2.202.257 0 .399-.074.31-.158-.089-.089.757-1.082 1.871-2.207s1.96-2.045 1.876-2.045c-.078 0-1.135.994-2.338 2.208m-60.957 7.705c0 .578.063.82.137.525a2.36 2.36 0 0 0 0-1.051c-.074-.284-.137-.052-.137.526m14.722 1.503c0 .578.063.814.136.525a2.5 2.5 0 0 0 0-1.051c-.073-.289-.136-.052-.136.526m-14.412 3.153c0 .662.063.899.137.526.068-.373.068-.915-.01-1.204-.074-.289-.132.021-.127.678m14.117 1.503c.006.663.063.894.137.526.068-.378.068-.92-.005-1.204-.079-.289-.137.016-.132.678m-.289 5.708c0 .825.058 1.13.126.673.069-.457.069-1.135 0-1.503-.073-.368-.131.005-.126.83m-13.223 4.357c0 .741.058 1.046.131.673a4.1 4.1 0 0 0 0-1.351c-.073-.368-.131-.068-.131.678m12.834 3.154c0 1.13.09 1.96.2 1.85.216-.216.158-3.548-.068-3.774-.074-.068-.132.794-.132 1.924M61.846 51.217c.005.663.068.894.137.521.073-.374.068-.915-.006-1.199-.073-.289-.131.016-.131.678m262.23 0c.006.663.069.894.137.521.074-.374.068-.915-.005-1.199-.074-.289-.132.016-.132.678m-262.23 16.22c.005.662.068.893.137.525.073-.378.068-.92-.006-1.203-.073-.289-.131.015-.131.678m262.23 0c.006.662.069.893.137.525.074-.378.068-.92-.005-1.203-.074-.289-.132.015-.132.678M22.538 139.078c0 1.897.047 2.675.105 1.724.058-.946.058-2.502 0-3.453-.058-.946-.105-.174-.105 1.729m338.523 1.503c0 1.897.048 2.675.111 1.724.057-.946.057-2.502 0-3.453-.063-.952-.111-.174-.111 1.729M22.538 161.157c0 1.982.047 2.754.105 1.714s.058-2.66 0-3.606c-.058-.941-.105-.095-.105 1.892m338.523 1.498c.005 1.987.053 2.754.111 1.719a38 38 0 0 0 0-3.606c-.063-.946-.111-.094-.111 1.887M22.817 174.67c0 .993.058 1.361.126.82.063-.536.063-1.346-.005-1.798-.069-.452-.121-.01-.121.978m337.924 1.503c0 .993.057 1.361.126.82.063-.536.063-1.351-.006-1.803-.068-.447-.12-.005-.12.983m-337.635 7.058c0 .747.058 1.051.131.678a4.5 4.5 0 0 0 0-1.35c-.073-.374-.131-.069-.131.672m337.325 1.503c0 .742.057 1.046.131.678a4.5 4.5 0 0 0 0-1.356c-.074-.367-.131-.063-.131.678M23.4 189.99c.005.662.063.894.137.526.068-.379.068-.915-.006-1.204-.078-.289-.136.016-.131.678m336.72 1.503c.006.663.069.894.137.521.074-.373.074-.915-.005-1.199-.074-.289-.132.016-.132.678M23.694 195.85c0 .579.063.815.137.526a2.5 2.5 0 0 0 0-1.051c-.074-.289-.137-.053-.137.525m336.122 1.498c0 .578.063.82.136.526a2.36 2.36 0 0 0 0-1.051c-.073-.284-.136-.053-.136.525m-256.203 25.233c0 .909.058 1.283.127.825a6.7 6.7 0 0 0 0-1.65c-.069-.457-.127-.084-.127.825m176.326 1.503c0 .91.052 1.283.121.825a6.7 6.7 0 0 0 0-1.65c-.069-.457-.121-.084-.121.825M93.612 392.447c1.398 1.403 2.607 2.554 2.691 2.554s-.994-1.151-2.392-2.554-2.607-2.554-2.691-2.554c-.079 0 .994 1.151 2.392 2.554m196.139 1.577-2.544 2.628 2.628-2.549c2.439-2.365 2.765-2.707 2.544-2.707-.042 0-1.225 1.182-2.628 2.628" clip-rule="evenodd"/></svg>