<svg width="115" height="116" viewBox="0 0 115 116" fill="none" xmlns="http://www.w3.org/2000/svg">
<path fill-rule="evenodd" clip-rule="evenodd" d="M34.3484 15.9256C34.3484 16.2676 34.9693 19.2278 35.4054 20.9641C37.264 28.365 40.6457 36.2437 44.9078 43.1026C45.2367 43.6318 45.5262 44.0433 45.5511 44.017C45.5759 43.9904 45.7045 43.6218 45.8368 43.1975C46.8407 39.9755 48.6947 35.6625 50.3822 32.6243C50.9568 31.5893 50.96 31.7962 50.3504 30.5382C47.9663 25.6177 42.5606 20.442 35.7949 16.6022C34.5007 15.8678 34.3484 15.7964 34.3484 15.9256ZM79.6415 16.2247C72.0029 20.384 66.0607 26.2472 63.8429 31.8142L63.6103 32.398L63.8944 32.9638C65.1143 35.3945 66.9375 39.8789 68.2374 43.6455L68.678 44.9223L69.2518 44.0456C74.4418 36.1189 78.6357 25.7509 80.2711 16.8046C80.4714 15.7081 80.5157 15.7487 79.6415 16.2247ZM56.6226 27.4949C52.812 32.0325 49.6935 39.6054 47.9443 48.5698L47.7606 49.5128L48.3175 50.5129C48.6242 51.063 49.1805 52.1304 49.5543 52.8848C49.9281 53.6392 50.2347 54.205 50.2353 54.1421C50.247 53.2371 51.4772 49.9146 52.7211 47.4302C53.2772 46.3194 53.3266 46.2554 53.088 46.9552C51.7255 50.9527 51.7915 57.5067 53.2403 62.1031C54.1368 64.947 54.7935 67.49 55.4347 70.602L55.7645 72.2022L55.7999 71.7736C55.8193 71.5378 55.8625 70.5862 55.8956 69.659C55.9657 67.7012 56.2894 60.0519 56.4932 55.5423C56.5703 53.8292 56.7521 49.7785 56.8967 46.5409C57.1664 40.4982 57.1933 40.0855 57.2753 40.7399C57.8117 45.0112 58.6144 62.0674 58.701 71.0306L58.7067 71.6307L58.8141 71.1163C59.4048 68.2899 60.0349 65.7672 60.701 63.5611C60.9519 62.7304 61.0476 62.0771 61.2937 59.5144C61.8366 53.8618 61.8572 49.4696 61.3542 46.6306C61.2139 45.8396 61.2334 45.8696 61.8678 47.4267C62.6613 49.3753 63.4277 51.8972 63.7898 53.752L63.9815 54.7339L64.7054 53.2663C65.1032 52.4593 65.6798 51.3488 65.9867 50.7987L66.5442 49.7985L66.4134 49.1413C64.8431 41.264 61.1525 32.1356 57.5919 27.3234C57.165 26.7468 57.2659 26.7288 56.6226 27.4949ZM35.8506 47.3981C35.8512 47.5553 35.8624 47.6128 35.8755 47.5259C35.8884 47.439 35.8881 47.3104 35.8746 47.2401C35.8609 47.1698 35.8504 47.241 35.8506 47.3981ZM78.4291 47.6839C78.4296 47.8411 78.4408 47.8985 78.4539 47.8116C78.4668 47.7248 78.4665 47.5962 78.4531 47.5259C78.4393 47.4556 78.4288 47.5267 78.4291 47.6839ZM40.5003 47.9717C40.4228 48.997 40.3931 55.1451 40.458 56.7425C41.0946 72.4648 44.6815 83.7241 50.9014 89.5251C52.904 91.3928 54.9492 94.1264 55.729 95.9776L55.9456 96.4919L55.9202 95.9776C54.8458 74.0714 49.5043 56.7097 41.2298 48.2289L40.5345 47.5162L40.5003 47.9717ZM73.1485 48.4398C66.4828 55.21 61.6529 67.8418 59.4402 84.2899C58.9121 88.2157 58.3958 94.1701 58.4141 96.1204L58.4186 96.6062L58.5395 96.3205C59.3245 94.4627 61.4145 91.6651 63.4029 89.8108C69.6227 84.0096 73.2088 72.7535 73.8466 57.0283C73.914 55.3649 73.8772 49.0884 73.7951 48.2397L73.7549 47.8237L73.1485 48.4398ZM35.8498 52.5133C35.8498 52.6547 35.8609 52.7127 35.8746 52.6419C35.8884 52.5713 35.8884 52.4553 35.8746 52.3847C35.8609 52.3141 35.8498 52.3718 35.8498 52.5133ZM78.4282 52.799C78.4282 52.9405 78.4393 52.9985 78.4531 52.9276C78.4668 52.857 78.4668 52.741 78.4531 52.6704C78.4393 52.5999 78.4282 52.6576 78.4282 52.799Z" fill="#F96605"/>
<path fill-rule="evenodd" clip-rule="evenodd" d="M32.4355 20.4223C32.2806 22.3137 32.5878 26.2535 33.1484 29.5666C33.4405 31.2915 34.2218 34.9984 34.3049 35.0521C35.3279 35.7136 36.8556 36.8435 37.8686 37.688C38.2653 38.0186 38.6028 38.2761 38.6185 38.2603C38.6342 38.2446 38.4416 37.8766 38.1904 37.4428C35.8617 33.4184 33.8057 27.278 32.6926 21.0224C32.5946 20.4723 32.5072 19.9836 32.4983 19.9365C32.4895 19.8893 32.4612 20.1079 32.4355 20.4223ZM82.2491 19.9759C82.2359 20.2042 81.8484 22.234 81.613 23.3085C80.3462 29.0871 78.5136 34.1974 76.5007 37.5648C76.2949 37.9089 76.1266 38.1989 76.1266 38.2095C76.1266 38.2198 76.3647 38.0315 76.6553 37.7906C77.6052 37.0039 80.159 35.1578 80.4188 35.0701C80.6111 35.0052 81.663 29.6278 81.9819 27.0805C82.2819 24.6853 82.4488 21.1927 82.3096 20.2222C82.2805 20.0179 82.2531 19.907 82.2491 19.9759ZM24.9522 37.2965C24.8428 42.7739 25.274 51.2099 25.9515 56.8568C27.6155 70.7237 33.3562 81.7538 42.4068 88.4737C43.8651 89.5562 45.9294 90.7895 47.1076 91.2813C47.4388 91.4196 47.3656 91.3453 46.8321 91.001C35.4365 83.6495 28.6677 68.073 27.4004 46.2837C27.2952 44.4739 27.234 39.0716 27.3023 37.6251C27.3441 36.7418 27.3389 36.5884 27.266 36.5392C27.1109 36.4346 25.062 35.3104 25.0265 35.3104C25.0074 35.3104 24.974 36.2043 24.9522 37.2965ZM88.2249 36.1531L87.2067 36.7098L87.2453 38.3104C87.2873 40.0458 87.2056 43.5586 87.0696 45.855C85.8311 66.8033 79.3409 82.6499 68.8697 90.2917C67.9873 90.9356 67.1886 91.5482 67.2317 91.5482C67.5664 91.5482 70.5157 89.7854 71.8974 88.7595C79.9875 82.7528 85.4704 73.2552 87.6962 61.3921C88.583 56.6668 89.1536 49.9671 89.3314 42.1973C89.3879 39.7277 89.3542 35.5959 89.2776 35.5965C89.2588 35.5965 88.785 35.8471 88.2249 36.1531Z" fill="#F9C511"/>
<path fill-rule="evenodd" clip-rule="evenodd" d="M29.6625 11.0922C29.6625 11.4457 29.6905 12.6996 29.7243 13.8784C29.7583 15.0571 29.7926 18.0533 29.8008 20.5366C29.8154 24.9922 29.8309 25.4474 30.038 27.5377C30.2132 29.3035 30.5527 31.3927 30.885 32.7506L30.965 33.0769L30.4135 32.8003C28.9021 32.043 26.9132 31.2298 25.0898 30.6234C23.4415 30.0753 20.7411 29.3529 20.6565 29.4375C20.6365 29.4575 20.6868 30.009 20.7685 30.6631C21.038 32.8249 21.2312 35.0613 21.3852 37.7966C21.4695 39.2942 21.4832 45.6264 21.41 49.1413C21.1357 62.2917 25.3207 75.836 32.3678 84.6042C36.2313 89.4116 41.5999 93.4788 46.2933 95.1551C52.6952 97.4412 56.6101 100.926 57.0399 104.722C57.1476 105.674 57.2514 105.87 57.2625 105.141C57.3162 101.584 61.5778 97.7381 68.0111 95.4409C72.7045 93.7646 78.0731 89.6974 81.9366 84.89C88.9837 76.1217 93.1687 62.5775 92.8944 49.427C92.8212 45.9122 92.8349 39.58 92.9192 38.0823C93.0732 35.347 93.2664 33.1107 93.5359 30.9489C93.6176 30.2948 93.6679 29.7432 93.6479 29.7232C93.6282 29.7032 93.3104 29.7592 92.9421 29.8478C89.885 30.5825 87.1831 31.5278 84.4304 32.8263L83.7849 33.1309L83.8197 32.9775C83.8389 32.8932 83.9017 32.6314 83.9592 32.3957C84.2361 31.2632 84.5559 29.2303 84.7236 27.5377C84.9308 25.4465 84.9462 24.9922 84.9608 20.5366C84.9691 18.0533 85.0034 15.0571 85.0374 13.8784C85.0711 12.6996 85.0991 11.4457 85.0991 11.0922L85.0996 10.4492H84.9173C84.5058 10.4492 81.99 11.3079 80.4466 11.9752C73.2277 15.0963 66.5603 21.0278 62.1233 28.2756C61.8587 28.7082 61.7458 28.8488 61.7107 28.7899C60.4336 26.6644 59.2691 25.0602 58.0429 23.738C57.2091 22.839 57.2728 22.8593 56.811 23.3436C55.9403 24.2569 54.2852 26.3738 53.2979 27.8378C52.7826 28.6019 52.8126 28.5808 52.6506 28.2921C49.7981 23.2173 43.7669 17.2129 38.2802 13.9864C35.679 12.4564 30.8916 10.4492 29.8443 10.4492H29.662L29.6625 11.0922ZM35.6058 16.4682C42.4701 20.338 47.963 25.5708 50.3748 30.5382C50.926 31.6736 50.9232 31.6616 50.7317 32.0148C48.4962 36.1409 47.1334 39.2671 45.9132 43.068C45.7295 43.6409 45.562 44.1105 45.5414 44.111C45.4846 44.1125 44.2229 42.0578 43.4542 40.7113C39.4139 33.6345 36.4719 26.1367 34.8934 18.8937C34.6902 17.9619 34.2913 15.9015 34.2913 15.7841C34.2913 15.7504 34.8245 16.0276 35.6058 16.4682ZM80.2737 16.8883C78.836 24.731 75.6961 33.0504 71.2357 40.8328C70.0383 42.922 68.6918 45.0415 68.6481 44.9057C67.6185 41.6986 65.5962 36.5941 64.1242 33.4864L63.5987 32.3768L63.8133 31.829C65.6365 27.1783 69.9314 22.4678 76.0982 18.3559C77.6033 17.3524 80.3812 15.7132 80.4537 15.7858C80.464 15.7961 80.3832 16.2922 80.2737 16.8883ZM32.9228 22.1083C34.0744 27.9109 36.0387 33.6976 38.0056 37.0822C38.4643 37.8717 38.7403 38.3981 38.6746 38.3587C38.6372 38.3361 38.2548 38.0292 37.825 37.6768C36.8446 36.8727 36.1385 36.3383 35.12 35.6296C34.1761 34.9727 34.2927 35.1401 34.0407 34.0817C33.0002 29.713 32.4804 25.9189 32.4227 22.2714C32.3838 19.821 32.4224 19.3538 32.5839 20.308C32.6425 20.6538 32.7951 21.4639 32.9228 22.1083ZM82.3381 22.194C82.284 25.9075 81.7728 29.6655 80.7209 34.0817C80.468 35.1427 80.5858 34.9775 79.6285 35.6165C78.6257 36.2857 77.699 36.971 76.7268 37.7614C76.2479 38.1509 76.0236 38.3049 76.0956 38.1952C78.5323 34.4834 81.1007 26.9336 82.1666 20.3514C82.3312 19.3355 82.3732 19.7873 82.3381 22.194ZM57.7506 27.5049C61.1834 32.2159 64.4154 40.159 66.2937 48.5015L66.5809 49.7762L66.0337 50.759C65.7325 51.2994 65.1421 52.4361 64.7214 53.2848C64.3008 54.1335 63.9559 54.8131 63.955 54.7951C63.889 53.4237 62.3825 48.4363 61.4292 46.4351L61.3163 46.1979L61.3495 46.4266C61.3678 46.5523 61.4206 46.9123 61.4672 47.2267C61.9256 50.3158 61.7467 56.5371 61.0411 62.0577C60.968 62.6306 60.862 63.1247 60.6976 63.658C60.1473 65.4434 59.4291 68.293 58.9562 70.5685L58.7116 71.745L58.6744 70.5734C58.6539 69.929 58.6113 68.3473 58.5796 67.0585C58.3044 55.7924 57.7889 45.3544 57.3034 41.2257L57.2296 40.597L57.1896 41.0257C57.1676 41.2614 56.9705 45.4535 56.7516 50.3415C56.5327 55.2294 56.3269 59.8073 56.2946 60.5146C56.1855 62.8973 55.8977 69.963 55.8586 71.2169C55.8371 71.901 55.8114 72.452 55.8008 72.4417C55.7905 72.4314 55.652 71.7816 55.4931 70.998C54.8435 67.7952 54.182 65.1911 53.3236 62.4578C51.7913 57.5781 51.657 51.095 53.0067 47.1452C53.1873 46.6163 53.1867 46.5923 53.0009 46.9123C52.1294 48.4143 50.7643 51.8772 50.3734 53.5786L50.2139 54.2724L49.5158 52.8642C49.1317 52.0898 48.5799 51.0316 48.2896 50.5129C47.6735 49.4122 47.6949 49.6745 48.0701 47.8416C49.8679 39.0582 53.0381 31.5824 56.8036 27.2465C57.2454 26.7379 57.1782 26.7193 57.7506 27.5049ZM27.1758 36.4558C31.7357 39.0513 34.826 41.3329 35.919 42.91L36.069 43.1266L36.0056 44.2008C35.7844 47.9514 35.8447 53.8212 36.1513 58.3428C37.1626 73.2704 40.9141 84.7111 46.7722 90.7338C47.4952 91.4771 47.4872 91.4888 46.559 91.0442C36.9357 86.4357 29.2973 75.1113 26.6638 61.5476C25.4916 55.5103 24.5706 41.63 24.9558 35.8108L24.9926 35.2536L25.5984 35.5782C25.9316 35.7565 26.6415 36.1514 27.1758 36.4558ZM89.3781 39.0253C89.4055 49.6897 88.4651 59.2418 86.7556 65.6569C83.6266 77.3991 76.3694 87.2001 67.7454 91.3299C66.8172 91.7746 66.8092 91.7628 67.5322 91.0196C73.3903 84.9969 77.1418 73.5561 78.1531 58.6286C78.4597 54.107 78.52 48.2371 78.2988 44.4865L78.2354 43.4123L78.3854 43.1957C79.5762 41.4775 83.1785 38.8965 88.3288 36.0711L89.3003 35.5382L89.3358 35.9531C89.3552 36.1812 89.3744 37.5637 89.3781 39.0253ZM42.5187 49.6271C48.4994 56.7354 52.7821 68.5516 54.8341 83.6041C55.3833 87.6327 55.9583 94.1504 55.9509 96.2633L55.9497 96.5491L55.7054 95.9775C54.8907 94.0715 53.4762 92.1698 51.0078 89.6622C49.5418 88.1731 49.19 87.7819 48.5111 86.884C44.018 80.9442 41.323 71.553 40.5503 59.1429C40.3372 55.7212 40.3103 49.1064 40.504 47.7133L40.5395 47.4573L41.1924 48.142C41.5516 48.5189 42.1486 49.187 42.5187 49.6271ZM73.9038 50.6898C74.2339 62.1683 72.533 73.4533 69.3505 80.8988C67.7039 84.7505 66.2 86.9989 63.2966 89.948C60.8117 92.4724 59.3357 94.4682 58.5516 96.3639C58.3355 96.8866 58.3358 96.8891 58.4081 95.3403C58.9076 84.6177 60.8894 73.3924 63.7613 65.0182C66.2334 57.8098 69.3139 52.3807 73.2686 48.2631L73.7549 47.7568L73.7935 47.9774C73.8149 48.0988 73.8647 49.3196 73.9038 50.6898Z" fill="#121831"/>
<path fill-rule="evenodd" clip-rule="evenodd" d="M27.3312 36.725C27.2581 36.9027 27.2849 44.3325 27.3635 45.6836C28.664 68.0435 35.3651 83.6767 46.771 90.9604L47.179 91.2211L46.6932 90.713C40.7788 84.5297 37.0854 73.1015 36.0929 57.9142C35.7966 53.3797 35.7572 47.5367 35.9969 43.745L36.0366 43.1211L35.8683 42.8877C34.805 41.4132 32.116 39.3722 28.2591 37.1122C27.3252 36.5649 27.3864 36.5904 27.3312 36.725ZM86.8713 36.9058C86.7298 36.993 86.1254 37.3548 85.5282 37.71C81.9805 39.8195 79.4469 41.7712 78.4359 43.1734L78.2676 43.4069L78.3073 44.0307C78.547 47.8225 78.5076 53.6655 78.2113 58.1999C77.2131 73.4744 73.5162 84.8529 67.5258 91.0862C66.8628 91.7763 66.8728 91.7743 67.8967 91.0153C69.389 89.9088 69.5304 89.8 70.268 89.1864C79.9724 81.1145 85.876 65.8906 87.0704 45.855C87.2582 42.7065 87.3202 36.7264 87.165 36.7432C87.1447 36.7455 87.0127 36.8184 86.8713 36.9058Z" fill="#F9C511"/>
<path fill-rule="evenodd" clip-rule="evenodd" d="M57.1878 40.485C57.1681 40.5359 57.1553 40.685 57.1587 40.8159C57.1655 41.052 57.1658 41.0514 57.2167 40.7453C57.2681 40.4356 57.2544 40.3113 57.1878 40.485ZM57.1112 41.9687C57.1118 42.1259 57.123 42.1833 57.1361 42.0964C57.149 42.0096 57.1487 41.881 57.1353 41.8107C57.1215 41.7404 57.111 41.8115 57.1112 41.9687ZM24.9314 41.9401C24.9314 42.0501 24.9434 42.0953 24.9577 42.0401C24.972 41.9853 24.972 41.8952 24.9577 41.8401C24.9434 41.7852 24.9314 41.8301 24.9314 41.9401ZM89.342 42.2259C89.342 42.3359 89.354 42.381 89.3683 42.3259C89.3826 42.271 89.3826 42.181 89.3683 42.1259C89.354 42.071 89.342 42.1159 89.342 42.2259ZM57.0541 43.226C57.0547 43.3832 57.0658 43.4406 57.079 43.3538C57.0918 43.2669 57.0915 43.1383 57.0781 43.068C57.0644 42.9977 57.0538 43.0689 57.0541 43.226ZM36.0189 43.4832C36.0189 43.5932 36.0309 43.6384 36.0452 43.5832C36.0595 43.5284 36.0595 43.4381 36.0452 43.3832C36.0309 43.3281 36.0189 43.3732 36.0189 43.4832ZM78.2544 43.769C78.2544 43.879 78.2664 43.9242 78.2807 43.869C78.295 43.8141 78.295 43.7238 78.2807 43.669C78.2664 43.6138 78.2544 43.659 78.2544 43.769ZM56.9969 44.4262C56.9975 44.5834 57.0087 44.6408 57.0218 44.554C57.0347 44.4671 57.0344 44.3385 57.021 44.2682C57.0072 44.1979 56.9967 44.2691 56.9969 44.4262ZM35.9641 44.512C35.9641 44.6534 35.9752 44.7114 35.9889 44.6406C36.0026 44.57 36.0026 44.454 35.9889 44.3834C35.9752 44.3128 35.9641 44.3705 35.9641 44.512ZM78.3139 44.7977C78.3139 44.9392 78.325 44.9972 78.3387 44.9263C78.3525 44.8557 78.3525 44.7397 78.3387 44.6691C78.325 44.5985 78.3139 44.6563 78.3139 44.7977ZM56.9398 45.6836C56.9404 45.8408 56.9515 45.8982 56.9647 45.8113C56.9775 45.7244 56.9772 45.5959 56.9638 45.5256C56.9501 45.4553 56.9395 45.5264 56.9398 45.6836ZM57.6796 45.5979C57.6796 45.7079 57.6916 45.753 57.7059 45.6979C57.7202 45.643 57.7202 45.5527 57.7059 45.4978C57.6916 45.443 57.6796 45.4878 57.6796 45.5979ZM35.9086 45.8836C35.9086 46.0565 35.9192 46.1274 35.9323 46.0408C35.9455 45.9542 35.9455 45.813 35.9323 45.7264C35.9192 45.6401 35.9086 45.7107 35.9086 45.8836ZM78.3727 46.1694C78.3727 46.3423 78.3833 46.4131 78.3965 46.3265C78.4096 46.24 78.4096 46.0988 78.3965 46.0122C78.3833 45.9259 78.3727 45.9965 78.3727 46.1694ZM57.7368 46.4551C57.7368 46.5652 57.7488 46.6103 57.7631 46.5552C57.7774 46.5003 57.7774 46.41 57.7631 46.3551C57.7488 46.3003 57.7368 46.3451 57.7368 46.4551ZM56.8826 46.9409C56.8832 47.0981 56.8944 47.1555 56.9075 47.0687C56.9204 46.9818 56.9201 46.8532 56.9066 46.7829C56.8929 46.7126 56.8824 46.7838 56.8826 46.9409ZM57.7951 47.341C57.7959 47.4667 57.8077 47.5113 57.8211 47.4404C57.8348 47.3693 57.8342 47.2664 57.8199 47.2118C57.8057 47.157 57.7945 47.2153 57.7951 47.341ZM40.9495 47.9411C41.1995 48.1926 41.417 48.3983 41.4327 48.3983C41.4484 48.3983 41.2566 48.1926 41.0066 47.9411C40.7566 47.6896 40.5391 47.4839 40.5234 47.4839C40.5077 47.4839 40.6994 47.6896 40.9495 47.9411ZM35.8569 48.4269C35.8569 48.867 35.866 49.0396 35.8769 48.8101C35.8878 48.5809 35.8875 48.2209 35.8766 48.01C35.8658 47.7994 35.8569 47.9868 35.8569 48.4269ZM73.2962 48.2411L72.8404 48.7127L73.3119 48.2569C73.7497 47.8334 73.8094 47.7696 73.7677 47.7696C73.7591 47.7696 73.5471 47.9817 73.2962 48.2411ZM40.4768 47.9982C40.4768 48.1083 40.4888 48.1534 40.5031 48.0983C40.5174 48.0434 40.5174 47.9534 40.5031 47.8982C40.4888 47.8434 40.4768 47.8882 40.4768 47.9982ZM56.8255 48.1983C56.8261 48.3555 56.8372 48.4129 56.8504 48.326C56.8632 48.2391 56.8629 48.1106 56.8495 48.0403C56.8358 47.97 56.8252 48.0411 56.8255 48.1983ZM78.4353 48.7127C78.4353 49.1527 78.4445 49.3253 78.4553 49.0959C78.4662 48.8667 78.4659 48.5066 78.455 48.2957C78.4442 48.0851 78.4353 48.2726 78.4353 48.7127ZM57.8511 48.284C57.8511 48.394 57.8631 48.4392 57.8774 48.384C57.8917 48.3292 57.8917 48.2391 57.8774 48.184C57.8631 48.1291 57.8511 48.174 57.8511 48.284ZM73.7966 48.284C73.7966 48.394 73.8086 48.4392 73.8229 48.384C73.8371 48.3292 73.8371 48.2391 73.8229 48.184C73.8086 48.1291 73.7966 48.174 73.7966 48.284ZM40.4219 49.2556C40.4219 49.397 40.4331 49.4548 40.4468 49.3842C40.4605 49.3136 40.4605 49.1976 40.4468 49.127C40.4331 49.0564 40.4219 49.1141 40.4219 49.2556ZM57.9094 49.2842C57.9102 49.4099 57.922 49.4545 57.9354 49.3836C57.9491 49.3125 57.9485 49.2096 57.9342 49.155C57.92 49.1001 57.9088 49.1584 57.9094 49.2842ZM56.7683 49.4556C56.7689 49.6128 56.7801 49.6702 56.7932 49.5834C56.8061 49.4965 56.8058 49.3679 56.7923 49.2976C56.7786 49.2273 56.7681 49.2985 56.7683 49.4556ZM73.856 49.5414C73.856 49.6828 73.8671 49.7405 73.8809 49.67C73.8946 49.5994 73.8946 49.4833 73.8809 49.4128C73.8671 49.3422 73.856 49.3999 73.856 49.5414ZM61.6834 50.0272C61.684 50.1843 61.6951 50.2418 61.7083 50.1549C61.7211 50.068 61.7209 49.9394 61.7074 49.8691C61.6937 49.7988 61.6831 49.87 61.6834 50.0272ZM57.9677 50.3415C57.9677 50.4829 57.9788 50.541 57.9925 50.4701C58.0063 50.3995 58.0063 50.2838 57.9925 50.2129C57.9788 50.1423 57.9677 50.2 57.9677 50.3415ZM35.8575 51.3702C35.8575 51.8889 35.8663 52.1012 35.8769 51.8417C35.8875 51.5826 35.8875 51.1582 35.8769 50.8987C35.8663 50.6395 35.8575 50.8516 35.8575 51.3702ZM56.7112 50.713C56.7118 50.8701 56.7229 50.9276 56.736 50.8407C56.7489 50.7538 56.7486 50.6253 56.7352 50.555C56.7215 50.4847 56.7109 50.5558 56.7112 50.713ZM78.4359 51.656C78.4359 52.1747 78.4448 52.387 78.4553 52.1275C78.4659 51.8683 78.4659 51.444 78.4553 51.1845C78.4448 50.9253 78.4359 51.1373 78.4359 51.656ZM40.3716 51.7703C40.3716 52.1947 40.3808 52.3684 40.3917 52.1561C40.4028 51.944 40.4028 51.5968 40.3917 51.3845C40.3808 51.1725 40.3716 51.3459 40.3716 51.7703ZM58.0248 51.4845C58.0248 51.626 58.036 51.684 58.0497 51.6131C58.0634 51.5425 58.0634 51.4268 58.0497 51.3559C58.036 51.2854 58.0248 51.3431 58.0248 51.4845ZM73.92 52.0561C73.92 52.4804 73.9291 52.6542 73.94 52.4418C73.9512 52.2298 73.9512 51.8826 73.94 51.6703C73.9291 51.4582 73.92 51.6317 73.92 52.0561ZM56.654 51.9703C56.6546 52.1275 56.6657 52.1849 56.6789 52.0981C56.6918 52.0112 56.6915 51.8826 56.678 51.8123C56.6643 51.742 56.6537 51.8132 56.654 51.9703ZM58.0828 52.6562C58.0834 52.8133 58.0946 52.8708 58.1077 52.7839C58.1206 52.697 58.1203 52.5684 58.1068 52.4981C58.0931 52.4278 58.0826 52.499 58.0828 52.6562ZM52.0844 52.8848C52.0847 53.1048 52.095 53.1877 52.1073 53.0694C52.1196 52.9508 52.1196 52.7707 52.1067 52.6693C52.0941 52.5676 52.0841 52.6647 52.0844 52.8848ZM56.5969 53.2277C56.5975 53.3848 56.6086 53.4423 56.6217 53.3554C56.6346 53.2685 56.6343 53.1399 56.6209 53.0697C56.6072 52.9994 56.5966 53.0705 56.5969 53.2277ZM40.3722 53.9135C40.3722 54.385 40.3811 54.5702 40.3919 54.3253C40.4025 54.0801 40.4025 53.6943 40.3917 53.468C40.3808 53.2414 40.3722 53.442 40.3722 53.9135ZM61.686 53.7421C61.6863 53.9621 61.6966 54.045 61.7089 53.9267C61.7211 53.8081 61.7211 53.628 61.7083 53.5266C61.6957 53.4249 61.6857 53.522 61.686 53.7421ZM73.9206 54.1993C73.9206 54.6708 73.9294 54.8559 73.9403 54.6111C73.9509 54.3659 73.9509 53.9801 73.94 53.7538C73.9291 53.5272 73.9206 53.7278 73.9206 54.1993ZM58.1409 53.9421C58.1409 54.115 58.1514 54.1858 58.1646 54.0993C58.1777 54.013 58.1777 53.8715 58.1646 53.7849C58.1514 53.6983 58.1409 53.7692 58.1409 53.9421ZM35.9098 54.0564C35.9098 54.2607 35.9201 54.3444 35.9329 54.2421C35.9455 54.1401 35.9455 53.9729 35.9329 53.8706C35.9201 53.7683 35.9098 53.8521 35.9098 54.0564ZM52.0859 54.4279C52.0856 54.7108 52.0953 54.8337 52.1073 54.7011C52.1193 54.5685 52.1196 54.337 52.1076 54.1867C52.0959 54.0364 52.0861 54.145 52.0859 54.4279ZM78.3739 54.3421C78.3739 54.5465 78.3842 54.6302 78.397 54.5279C78.4096 54.4259 78.4096 54.2587 78.397 54.1564C78.3842 54.0541 78.3739 54.1378 78.3739 54.3421ZM56.5397 54.485C56.5403 54.6422 56.5514 54.6996 56.5646 54.6128C56.5774 54.5259 56.5772 54.3973 56.5637 54.327C56.55 54.2567 56.5394 54.3279 56.5397 54.485ZM61.6254 55.1423C61.6254 55.2837 61.6366 55.3415 61.6503 55.2709C61.664 55.2003 61.664 55.0846 61.6503 55.0137C61.6366 54.9431 61.6254 55.0008 61.6254 55.1423ZM58.1971 55.2852C58.1977 55.4423 58.2089 55.4998 58.222 55.4129C58.2349 55.326 58.2346 55.1974 58.2211 55.1271C58.2074 55.0568 58.1969 55.128 58.1971 55.2852ZM35.9649 55.5138C35.9655 55.6709 35.9766 55.7284 35.9898 55.6415C36.0026 55.5546 36.0024 55.426 35.9889 55.3557C35.9752 55.2854 35.9646 55.3566 35.9649 55.5138ZM56.4826 55.7424C56.4831 55.8995 56.4943 55.957 56.5074 55.8701C56.5203 55.7832 56.52 55.6546 56.5066 55.5844C56.4929 55.5141 56.4823 55.5852 56.4826 55.7424ZM78.3147 55.7995C78.3153 55.9567 78.3265 56.0141 78.3396 55.9273C78.3525 55.8404 78.3522 55.7118 78.3387 55.6415C78.325 55.5712 78.3144 55.6424 78.3147 55.7995ZM52.1359 55.771C52.1359 55.881 52.1479 55.9261 52.1622 55.871C52.1764 55.8161 52.1764 55.7261 52.1622 55.6709C52.1479 55.6161 52.1359 55.6609 52.1359 55.771ZM61.566 56.1139C61.566 56.2239 61.578 56.2688 61.5923 56.2139C61.6066 56.159 61.6066 56.069 61.5923 56.0139C61.578 55.959 61.566 56.0038 61.566 56.1139ZM40.4228 56.5425C40.4234 56.6997 40.4345 56.7571 40.4477 56.6702C40.4605 56.5834 40.4602 56.4548 40.4468 56.3845C40.4331 56.3142 40.4225 56.3853 40.4228 56.5425ZM36.0201 56.6568C36.0209 56.7826 36.0326 56.8271 36.0461 56.7563C36.0598 56.6851 36.0592 56.5822 36.0449 56.5277C36.0306 56.4728 36.0195 56.5311 36.0201 56.6568ZM58.2552 56.7425C58.2552 56.9154 58.2657 56.9863 58.2789 56.8997C58.292 56.8131 58.292 56.672 58.2789 56.5854C58.2657 56.4991 58.2552 56.5697 58.2552 56.7425ZM73.8569 56.8283C73.8574 56.9854 73.8686 57.0429 73.8817 56.956C73.8946 56.8691 73.8943 56.7405 73.8809 56.6702C73.8671 56.5999 73.8566 56.6711 73.8569 56.8283ZM78.2556 56.9426C78.2564 57.0683 78.2682 57.1129 78.2816 57.042C78.2953 56.9709 78.2947 56.868 78.2804 56.8134C78.2662 56.7585 78.255 56.8168 78.2556 56.9426ZM56.4254 57.0569C56.426 57.214 56.4371 57.2715 56.4503 57.1846C56.4631 57.0977 56.4629 56.9692 56.4494 56.8989C56.4357 56.8286 56.4251 56.8997 56.4254 57.0569ZM61.5088 56.9711C61.5088 57.0812 61.5208 57.126 61.5351 57.0712C61.5494 57.0163 61.5494 56.9263 61.5351 56.8711C61.5208 56.8163 61.5088 56.8611 61.5088 56.9711ZM36.0761 57.657C36.0761 57.767 36.0881 57.8121 36.1024 57.757C36.1167 57.7021 36.1167 57.6121 36.1024 57.557C36.0881 57.5021 36.0761 57.547 36.0761 57.657ZM40.4768 57.9427C40.4768 58.0528 40.4888 58.0979 40.5031 58.0428C40.5174 57.9879 40.5174 57.8979 40.5031 57.8427C40.4888 57.7879 40.4768 57.8327 40.4768 57.9427ZM78.1973 57.9427C78.1973 58.0528 78.2093 58.0979 78.2236 58.0428C78.2379 57.9879 78.2379 57.8979 78.2236 57.8427C78.2093 57.7879 78.1973 57.8327 78.1973 57.9427ZM58.3129 58.2571C58.3132 58.4457 58.3237 58.516 58.3366 58.4131C58.3492 58.3105 58.3492 58.1562 58.336 58.0702C58.3229 57.9845 58.3126 58.0685 58.3129 58.2571ZM73.7966 58.2285C73.7966 58.3385 73.8086 58.3837 73.8229 58.3285C73.8371 58.2736 73.8371 58.1836 73.8229 58.1285C73.8086 58.0736 73.7966 58.1185 73.7966 58.2285ZM56.3674 58.3428C56.3674 58.4843 56.3786 58.5423 56.3923 58.4714C56.406 58.4008 56.406 58.2851 56.3923 58.2142C56.3786 58.1436 56.3674 58.2014 56.3674 58.3428ZM56.312 59.6002C56.312 59.773 56.3226 59.8439 56.3357 59.7573C56.3488 59.6707 56.3488 59.5296 56.3357 59.443C56.3226 59.3567 56.312 59.4273 56.312 59.6002ZM58.3706 59.8288C58.3706 60.0331 58.3809 60.1165 58.3937 60.0145C58.4063 59.9125 58.4063 59.745 58.3937 59.643C58.3809 59.541 58.3706 59.6244 58.3706 59.8288ZM56.254 60.8861C56.2545 61.0433 56.2657 61.1007 56.2788 61.0138C56.2917 60.9269 56.2914 60.7984 56.278 60.7281C56.2643 60.6578 56.2537 60.7289 56.254 60.8861ZM58.4286 61.5433C58.4286 61.7791 58.4389 61.8757 58.4512 61.7577C58.4635 61.6399 58.4635 61.447 58.4512 61.329C58.4389 61.2113 58.4286 61.3076 58.4286 61.5433ZM56.1977 62.2292C56.1977 62.402 56.2082 62.4729 56.2214 62.3863C56.2345 62.3 56.2345 62.1586 56.2214 62.072C56.2082 61.9854 56.1977 62.0563 56.1977 62.2292ZM58.4858 63.4294C58.4858 63.6651 58.4961 63.7617 58.5083 63.6437C58.5206 63.5259 58.5206 63.3331 58.5083 63.215C58.4961 63.0973 58.4858 63.1936 58.4858 63.4294ZM56.1405 63.6008C56.1405 63.7737 56.1511 63.8446 56.1642 63.758C56.1774 63.6714 56.1774 63.5302 56.1642 63.4436C56.1511 63.3573 56.1405 63.4279 56.1405 63.6008ZM56.0825 64.9439C56.0831 65.1011 56.0942 65.1585 56.1074 65.0716C56.1202 64.9848 56.1199 64.8562 56.1065 64.7859C56.0928 64.7156 56.0822 64.7867 56.0825 64.9439ZM58.5435 65.4583C58.5435 65.7097 58.5535 65.8055 58.5658 65.6712C58.5778 65.5366 58.5775 65.3308 58.5652 65.2139C58.5529 65.0968 58.5432 65.2068 58.5435 65.4583ZM56.0262 66.287C56.0262 66.4599 56.0368 66.5307 56.0499 66.4441C56.0631 66.3578 56.0631 66.2164 56.0499 66.1298C56.0368 66.0435 56.0262 66.1141 56.0262 66.287ZM58.6012 67.63C58.6009 67.913 58.6106 68.0358 58.6226 67.9032C58.6346 67.7706 58.6349 67.5392 58.6229 67.3889C58.6112 67.2386 58.6015 67.3471 58.6012 67.63ZM55.9696 67.6872C55.9699 67.8758 55.9805 67.9461 55.9934 67.8432C56.0059 67.7406 56.0059 67.5863 55.9928 67.5003C55.9796 67.4146 55.9693 67.4986 55.9696 67.6872ZM55.9119 69.0874C55.9119 69.2603 55.9225 69.3312 55.9356 69.2446C55.9488 69.1583 55.9488 69.0168 55.9356 68.9303C55.9225 68.8437 55.9119 68.9145 55.9119 69.0874ZM58.6586 70.059C58.6586 70.3576 58.6684 70.4799 58.6801 70.3305C58.6918 70.1813 58.6918 69.937 58.6801 69.7875C58.6684 69.6384 58.6586 69.7604 58.6586 70.059ZM55.8553 70.602C55.8556 70.7906 55.8662 70.8609 55.879 70.758C55.8916 70.6554 55.8916 70.5011 55.8785 70.4151C55.8653 70.3293 55.855 70.4134 55.8553 70.602ZM55.7673 72.0165C55.7533 72.1502 55.7619 72.3108 55.7862 72.3737C55.8148 72.448 55.8316 72.3625 55.8339 72.1308C55.8382 71.7199 55.8042 71.6616 55.7673 72.0165ZM50.9797 89.6208C50.9797 89.6294 51.1788 89.8288 51.4226 90.0637L51.8655 90.4909L51.4383 90.048C51.0414 89.6365 50.9797 89.5791 50.9797 89.6208ZM62.8673 90.3195C62.6333 90.5552 62.4544 90.7481 62.4701 90.7481C62.4858 90.7481 62.6905 90.5552 62.9245 90.3195C63.1585 90.0837 63.3374 89.8908 63.3217 89.8908C63.306 89.8908 63.1014 90.0837 62.8673 90.3195ZM46.5218 90.5352C46.5218 90.5438 46.7213 90.7433 46.9647 90.9782L47.4077 91.4054L46.9804 90.9625C46.5835 90.551 46.5218 90.4935 46.5218 90.5352ZM67.3346 91.2245C67.0966 91.4642 66.9566 91.6434 67.0075 91.6434C67.0566 91.6434 67.0829 91.63 67.0663 91.6134C67.0497 91.5965 67.2098 91.408 67.4221 91.1942C67.6344 90.9802 67.795 90.8053 67.7796 90.8053C67.7639 90.8053 67.5635 90.9939 67.3346 91.2245ZM55.7365 92.6913C55.7365 92.8013 55.7485 92.8465 55.7627 92.7913C55.777 92.7365 55.777 92.6464 55.7627 92.5913C55.7485 92.5364 55.7365 92.5813 55.7365 92.6913ZM58.5369 92.9771C58.5369 93.0871 58.5489 93.1322 58.5632 93.0771C58.5775 93.0222 58.5775 92.9322 58.5632 92.877C58.5489 92.8222 58.5369 92.867 58.5369 92.9771ZM55.7948 93.5772C55.7956 93.7029 55.8073 93.7475 55.8208 93.6766C55.8345 93.6055 55.8339 93.5026 55.8196 93.448C55.8053 93.3931 55.7942 93.4514 55.7948 93.5772ZM58.4809 93.8629C58.4818 93.9887 58.4935 94.0332 58.5069 93.9624C58.5206 93.8912 58.5201 93.7883 58.5058 93.7338C58.4915 93.6789 58.4803 93.7372 58.4809 93.8629ZM58.4258 94.9488C58.4263 95.106 58.4375 95.1634 58.4506 95.0766C58.4635 94.9897 58.4632 94.8611 58.4498 94.7908C58.436 94.7205 58.4255 94.7916 58.4258 94.9488ZM55.9102 95.7775C55.9102 95.919 55.9213 95.977 55.9351 95.9061C55.9488 95.8355 55.9488 95.7198 55.9351 95.6489C55.9213 95.5784 55.9102 95.6361 55.9102 95.7775ZM58.3523 96.3776C58.3523 96.5925 58.3695 96.7508 58.3906 96.7297C58.4315 96.6891 58.4198 96.0544 58.3775 96.0121C58.3637 95.9984 58.3523 96.1627 58.3523 96.3776Z" fill="#121831"/>
<path fill-rule="evenodd" clip-rule="evenodd" d="M32.4195 20.1937C32.4203 20.3194 32.432 20.364 32.4455 20.2931C32.4592 20.222 32.4586 20.1191 32.4443 20.0645C32.43 20.0097 32.4189 20.068 32.4195 20.1937ZM82.3134 20.1937C82.3142 20.3194 82.3259 20.364 82.3394 20.2931C82.3531 20.222 82.3525 20.1191 82.3382 20.0645C82.3239 20.0097 82.3128 20.068 82.3134 20.1937ZM32.4195 23.2799C32.4203 23.4056 32.432 23.4502 32.4455 23.3794C32.4592 23.3082 32.4586 23.2053 32.4443 23.1507C32.43 23.0959 32.4189 23.1542 32.4195 23.2799ZM82.3134 23.2799C82.3142 23.4056 82.3259 23.4502 82.3394 23.3794C82.3531 23.3082 82.3525 23.2053 82.3382 23.1507C82.3239 23.0959 82.3128 23.1542 82.3134 23.2799ZM24.9399 36.9107C24.9399 37.2722 24.9491 37.4202 24.9605 37.2393C24.9717 37.0587 24.9717 36.763 24.9605 36.5821C24.9491 36.4015 24.9399 36.5492 24.9399 36.9107ZM89.3505 37.1965C89.3505 37.558 89.3597 37.706 89.3711 37.5251C89.3822 37.3445 89.3822 37.0487 89.3711 36.8679C89.3597 36.6873 89.3505 36.835 89.3505 37.1965ZM24.9399 41.1114C24.9402 41.4886 24.9494 41.6355 24.9605 41.4377C24.9717 41.24 24.9717 40.9314 24.9605 40.7519C24.9491 40.5725 24.9399 40.7342 24.9399 41.1114ZM89.3505 41.3972C89.3508 41.7744 89.3599 41.9213 89.3711 41.7235C89.3822 41.5258 89.3822 41.2171 89.3711 41.0377C89.3597 40.8582 89.3505 41.02 89.3505 41.3972ZM24.9931 43.6833C24.9934 43.8719 25.004 43.9422 25.0168 43.8393C25.0294 43.7367 25.0294 43.5824 25.0162 43.4964C25.0031 43.4106 24.9928 43.4947 24.9931 43.6833ZM89.2894 43.969C89.2897 44.1576 89.3002 44.2279 89.3131 44.125C89.3257 44.0225 89.3257 43.8681 89.3125 43.7821C89.2994 43.6964 89.2891 43.7804 89.2894 43.969ZM25.048 45.3121C25.048 45.4536 25.0591 45.5116 25.0728 45.4407C25.0865 45.3701 25.0865 45.2544 25.0728 45.1835C25.0591 45.1129 25.048 45.1706 25.048 45.3121ZM89.2299 45.5979C89.2299 45.7393 89.2411 45.7973 89.2548 45.7265C89.2685 45.6559 89.2685 45.5401 89.2548 45.4693C89.2411 45.3987 89.2299 45.4564 89.2299 45.5979ZM25.104 46.598C25.1048 46.7238 25.1165 46.7683 25.13 46.6975C25.1437 46.6263 25.1431 46.5234 25.1288 46.4689C25.1145 46.414 25.1034 46.4723 25.104 46.598ZM89.1716 46.8838C89.1725 47.0095 89.1842 47.0541 89.1976 46.9832C89.2114 46.9121 89.2108 46.8092 89.1965 46.7546C89.1822 46.6998 89.1711 46.7581 89.1716 46.8838ZM25.16 47.7125C25.16 47.8225 25.172 47.8677 25.1863 47.8125C25.2006 47.7576 25.2006 47.6676 25.1863 47.6125C25.172 47.5576 25.16 47.6025 25.16 47.7125ZM89.1133 47.9983C89.1133 48.1083 89.1253 48.1534 89.1396 48.0983C89.1539 48.0434 89.1539 47.9534 89.1396 47.8982C89.1253 47.8434 89.1133 47.8882 89.1133 47.9983ZM40.3665 52.799C40.3665 52.9719 40.377 53.0428 40.3902 52.9562C40.4033 52.8699 40.4033 52.7285 40.3902 52.6419C40.377 52.5553 40.3665 52.6262 40.3665 52.799ZM73.9148 53.0848C73.9148 53.2577 73.9254 53.3286 73.9386 53.242C73.9517 53.1557 73.9517 53.0142 73.9386 52.9276C73.9254 52.841 73.9148 52.9119 73.9148 53.0848ZM38.4633 85.1186C38.7291 85.3858 38.9594 85.6044 38.9751 85.6044C38.9908 85.6044 38.7862 85.3858 38.5205 85.1186C38.2547 84.8514 38.0244 84.6328 38.0087 84.6328C37.9929 84.6328 38.1975 84.8514 38.4633 85.1186ZM75.7826 85.4187L75.2979 85.9188L75.798 85.4341C76.2624 84.9843 76.3241 84.9186 76.2827 84.9186C76.2741 84.9186 76.0489 85.1438 75.7826 85.4187Z" fill="#121831"/>
</svg>
