<svg xmlns="http://www.w3.org/2000/svg" version="1.0" viewBox="0 0 500 500">
  <path fill="#0085ff" d="M27.672 29.228C13.737 33.12 7.077 40.088 2.364 55.97c-2.562 8.71-2.46 35.862.102 66.089a378.9 378.9 0 0 1 1.025 11.783c.41 4.509.922 9.837 1.127 11.784.205 1.947.615 7.275 1.024 11.783.615 8.607 2.357 24.899 3.074 29.202.205 1.435.615 5.328 1.025 8.71.615 5.43 1.332 10.041 2.971 17.521 1.128 5.533 6.456 17.01 11.374 24.591 11.066 17.112 28.792 30.945 48.158 37.81 2.869.922 6.045 2.151 7.172 2.664 3.074 1.332 18.546 4.713 25.616 5.635 3.382.41 11.579.82 18.137.82 6.557.102 11.68.41 11.27.717-.614.41-6.66 1.742-20.185 4.406-1.127.205-4.816 1.127-8.197 2.152-3.381.922-7.48 2.05-9.222 2.459-5.123 1.435-18.443 6.968-25.103 10.554-9.325 5.02-17.727 12.193-22.44 19.263-5.123 7.685-6.25 11.476-6.967 22.235-1.23 18.443 9.529 42.112 31.763 69.778 22.747 28.382 45.29 46.109 67.934 53.69 9.017 2.972 23.874 3.177 31.661.41 18.444-6.557 34.12-23.464 48.466-52.358 7.89-15.882 19.366-46.519 25.308-68.036 1.947-6.866 2.972-7.788 3.997-3.484.922 3.996 2.766 10.246 9.324 32.48 15.164 50.618 31.251 77.259 52.871 87.095 7.583 3.484 11.169 4.099 22.44 3.996 11.066-.102 20.698-2.766 33.3-9.324 9.427-4.918 27.358-16.497 30.227-19.673.308-.307 2.562-2.152 5.124-4.201 5.328-4.303 15.472-14.652 21.005-21.415 2.05-2.562 4.508-5.533 5.43-6.66 2.87-3.381 12.501-18.341 12.501-19.366 0-.512.615-1.742 1.434-2.561.82-.923 2.87-5.84 4.714-10.862 11.066-31.661-1.332-57.175-36.375-74.49-13.32-6.661-29.92-12.092-44.572-14.756-7.48-1.434-5.533-1.947 6.968-2.049 26.026-.102 47.953-5.43 67.626-16.394 24.694-13.833 43.137-40.576 45.801-66.5.41-3.893.82-7.377 1.025-7.684.205-.513.512-2.87 2.05-17.214.307-2.357.717-6.25 1.024-8.71a816.84 816.84 0 0 1 1.127-11.476c.308-3.996.717-8.811.922-10.758.205-1.947.718-7.788 1.025-12.808.41-5.123.82-10.861 1.025-12.808 2.049-20.903 2.664-49.183 1.332-57.175-2.664-15.677-8.198-25.309-17.214-29.92-20.8-10.656-46.314-4.098-83.713 21.415-13.423 9.222-16.6 11.681-25.411 19.059-32.686 27.665-69.983 70.187-99.083 113.222-9.324 13.73-22.337 35.248-22.337 36.887 0 2.357-1.845.718-3.996-3.688-2.767-5.943-13.833-23.67-21.518-34.736-6.558-9.529-21.62-30.227-23.157-31.866a242.786 242.786 0 0 1-3.586-4.508 242.855 242.855 0 0 0-3.586-4.509c-.615-.615-3.996-4.713-7.583-9.222-12.705-15.574-37.911-42.01-52.359-54.92-1.946-1.742-4.508-3.996-5.635-5.021C107.287 55.151 69.99 33.224 51.546 29.33c-5.84-1.332-19.365-1.332-23.874-.102z"/>
</svg>
