<svg xmlns="http://www.w3.org/2000/svg" viewBox="0 0 109.6 57.192" width="57.192" height="57.192"><linearGradient id="a" gradientUnits="userSpaceOnUse" x1="18.684" y1="66.562" x2="293.223" y2="66.562"><stop offset="0" stop-color="#e20613"/><stop offset=".2" stop-color="#ffec00"/><stop offset=".4" stop-color="#009540"/><stop offset=".6" stop-color="#009be0"/><stop offset=".8" stop-color="#312782"/><stop offset="1" stop-color="#e5007e"/></linearGradient><path d="M88.834 34.196c6-16.3-.1-34.4-18.4-37.5 3.2-7.9 6-15.3 8-21.7-1.6-.5-3.3-.9-5.1-1.2-1.2 6.4-3.5 14.1-6.4 22.5-.7 0-1.4-.1-2.2-.1-19.6 0-39.7 13.8-48.6 32 .8-.6 1.6-1 2.6-1.3.9-.2 1.9-.3 2.8-.1 8.6-14.9 26.5-26.5 42.7-26.5h1.3c-7.8 21.8-18.9 47.1-25.1 65.6-.1.4-.3.9-.4 1.3h-1.2c-6.7 0-12.1-1.8-15.9-5-4.1-2.2-7.9-7.6-9.8-14.4-.6-2.1-.9-4.1-1-6.1-2.1 16.6 8 29.3 26 29.3h.6c-1 2.9-1.9 5.8-2.4 7.9-.4 1.5-1.1 3.8-1.2 4.3v.2c.5-2 .5-1.9 1.3-4.2.2-.6 1.2-3.8 1.5-4.5.4-1.2.9-2.4 1.3-3.6 18.4-.6 41.5-14.6 49.6-36.9zm-48.3 33c7.3-18.8 19.2-44.4 28.3-66.5 16.9 2.3 21.4 17.7 15.9 32.7-6.5 17.6-26.3 32.8-44.2 33.8z"/><path d="M18.7 71.8c2.3-3.2 4.6-6.5 6.9-9.7 4.58-.327 28.538-.522 60.407-.623l-1.049 2.871C50.255 65.715 23.776 68.018 18.7 71.8z" fill="url(#a)" transform="translate(11.734 -26.104)"/></svg>