<svg xmlns="http://www.w3.org/2000/svg" xml:space="preserve" fill-rule="evenodd" stroke-linejoin="round" stroke-miterlimit="2" clip-rule="evenodd" viewBox="0 0 192 193">
  <path fill="#003b95" fill-rule="nonzero" d="M37.8 0h116.5C175.1 0 192 16.9 192 37.8v116.5c0 20.9-16.9 37.8-37.8 37.8H37.8C16.9 192 0 175.1 0 154.2V37.8C0 16.9 16.9 0 37.8 0Z"/>
  <path fill="#fff" fill-rule="nonzero" d="M144.2 143.8c6.7 0 12.1-5.5 12.1-12.2 0-6.7-5.4-12.2-12.1-12.2-6.7 0-12.1 5.4-12.1 12.2 0 6.7 5.5 12.2 12.1 12.2ZM106.7 91.9l-3.1-1.7 2.7-2.3c3.2-2.7 8.4-8.8 8.4-19.3 0-16.1-12.5-26.5-31.8-26.5H58.4c-5.7.2-10.3 4.9-10.4 10.6V144h35.4c21.5 0 35.4-11.7 35.4-29.8-.1-9.8-4.6-18.1-12.1-22.3ZM67.6 66c0-4.7 2-7 6.4-7.3h8.8c7.5 0 12 4.5 12 12.1 0 5.8-3.1 12.4-11.8 12.4H67.6V66Zm17.2 60.7H67.6v-20.5c0-4.4 1.7-6.7 5.5-7.2h11.7c8.4 0 13.8 5.3 13.8 13.8 0 8.8-5.3 13.9-13.8 13.9Z"/>
</svg>
