<svg xmlns="http://www.w3.org/2000/svg" viewBox="0 0 499.74 500">
  <path fill="#003b95" d="M98.386 0h303.228c54.138 0 98.126 43.988 98.126 98.386v303.228c0 54.398-43.988 98.386-98.387 98.386H98.386C43.988 499.74 0 455.752 0 401.353V98.386C0 43.988 43.988 0 98.386 0Z"/>
  <path fill="#fff" d="M375.325 374.284c17.439 0 31.494-14.315 31.494-31.754s-14.055-31.754-31.494-31.754-31.494 14.055-31.494 31.754c0 17.439 14.316 31.754 31.494 31.754ZM277.72 239.198l-8.069-4.424 7.028-5.987c8.329-7.028 21.863-22.905 21.863-50.234 0-41.905-32.535-68.975-82.769-68.975h-63.769c-14.836.521-26.809 12.754-27.069 27.59v237.637h92.139c55.961 0 92.14-30.453 92.14-77.564-.26-25.508-11.973-47.111-31.494-58.043Zm-101.77-67.412c0-12.234 5.206-18.22 16.658-19.001h22.905c19.521 0 31.233 11.713 31.233 31.494 0 15.096-8.068 32.275-30.713 32.275H175.95v-44.768Zm44.768 157.99H175.95v-53.357c0-11.453 4.425-17.439 14.315-18.741h30.453c21.864 0 35.919 13.795 35.919 35.919 0 22.905-13.795 36.179-35.919 36.179Z"/>
</svg>
