<svg xmlns="http://www.w3.org/2000/svg" viewBox="0 0 32.47 32.47"><circle cx="16.24" cy="16.24" r="16.24" fill="#cc092f"/><path fill="#fff" d="M30.54 20.62c-1.86-.74-3.56-.49-5.26.54l-.81.5c-.79.5-1.54.97-2.26.97s-1.36-.18-1.65-1.51l-2.01-9.69-.59-2.82c-.28-.95-.79-1.47-1.52-1.56 0 0-.11-.02-.21-.02s-.22.02-.22.02c-.72.09-1.23.61-1.51 1.55-.16.54-.31 1.34-.59 2.82l-2.01 9.69c-.29 1.33-.96 1.51-1.65 1.51s-1.47-.47-2.26-.97l-.81-.5c-1.7-1.03-3.4-1.28-5.26-.54l-1.17.52a16.6 16.6 0 0 0 .95 2.34c.41-.2.84-.4 1.28-.53.63-.19 1.28-.2 1.91.01.61.2 1.16.57 1.7.91 1.02.64 2.18 1.37 3.66 1.37 2.19 0 3.72-1.31 4.21-3.58l1.76-8.42 1.76 8.42c.49 2.28 2.02 3.58 4.21 3.58 1.48 0 2.63-.73 3.66-1.37.54-.34 1.09-.7 1.7-.91.63-.21 1.28-.2 1.91-.01.44.13.87.33 1.28.53.37-.75.69-1.54.95-2.34l-1.17-.52"/></svg>