<?xml version="1.0" encoding="UTF-8"?>
<svg width="32" height="48" version="1.1" viewBox="0 0 32 48" xml:space="preserve" xmlns="http://www.w3.org/2000/svg" xmlns:cc="http://creativecommons.org/ns#" xmlns:dc="http://purl.org/dc/elements/1.1/" xmlns:rdf="http://www.w3.org/1999/02/22-rdf-syntax-ns#"><metadata><rdf:RDF><cc:Work rdf:about=""><dc:format>image/svg+xml</dc:format><dc:type rdf:resource="http://purl.org/dc/dcmitype/StillImage"/></cc:Work></rdf:RDF></metadata><path d="m17.351 11.385c1.6733-3.3158 5.137-7.3066 9.8548-3.8535" fill="none" stroke="#000" stroke-width=".37428"/><path d="m16.862 11.739c1.6534-5.0341 2.321-11.195-2.2978-11.914" fill="none" stroke="#000" stroke-width=".37428"/><path d="m24.456 16.482v-2.2146h0.24784c-0.36174-0.16966-0.76375-0.26733-1.1889-0.26733h-14.373c-1.5509 0-2.8131 1.2622-2.8131 2.8131v14.372c0 1.5517 1.2622 2.8139 2.8131 2.8139h14.373c1.5508 0 2.8131-1.2622 2.8131-2.8139v-14.372c0-0.11233-0.0085-0.22239-0.02126-0.33122z" opacity=".5"/><path d="m23.186 33.555h-14.373c-1.551 0-2.8132-1.2622-2.8132-2.8138v-14.372c0-1.551 1.2622-2.8132 2.8132-2.8132h14.373c1.5508 0 2.813 1.2622 2.813 2.8132v14.372c0 1.5515-1.2622 2.8138-2.813 2.8138" fill="#fff"/><path d="m25.155 30.741c0 1.0878-0.88176 1.9695-1.9694 1.9695h-14.373c-1.0877 0-1.9694-0.88165-1.9694-1.9695v-14.373c0-1.0878 0.88175-1.9695 1.9694-1.9695h14.373c1.0877 0 1.9694 0.88166 1.9694 1.9695z" fill="#90449e"/><path d="m27.009 16.595c-1.3801-0.99752-2.7558-1.7544-3.2702-2.027 0.41436 0.95919 0.56746 1.712 0.5721 1.718-0.0029-4.35e-4 -0.41792-0.91869-1.0233-2.0406-0.60447-1.1241-1.5685-2.3894-2.988-2.9962-0.4817-0.20626-0.92302-0.28942-1.3269-0.28942-1.4756-0.0052-2.5183 1.1404-2.9438 1.7251-0.14185 0.19305-0.21103 0.31496-0.21103 0.31561l-0.02952 0.05189-0.05413 0.02439c-0.45624 0.20174-0.98689 0.75544-1.4047 1.138-1.2217 1.1084-1.9663 2.5015-1.9663 4.0145 0 0.55512 0.10003 1.1282 0.31626 1.7141 0.39399 1.0646 1.0675 1.9068 1.9657 2.5987 1.0263 0.83163 0.96881 3.0821 0.98571 3.0997v2.3781c0.02375 0.02482 0.04444 0.04837 0.07122 0.07526 0.07715 0.07671 0.16684 0.15906 0.27056 0.242 0.38891 0.3116 0.94888 0.61737 1.6484 0.61737 0.44456-4.35e-4 0.94997-0.12333 1.5157-0.45549l0.033 0.0041c0.24966-1.7126 0.82318-2.6249 1.7361-3.0755 0.91802-0.45118 2.1-0.44706 3.5849-0.50801 1.4747-0.05726 2.9105-0.29234 3.9914-0.87798 1.0799-0.58902 1.8134-1.4977 1.9535-2.988 0.0044-0.05324 0.0057-0.10697 0.0057-0.16047 0.02055-1.3878-1.6849-3.0476-3.4332-4.2978" fill="#f6bd6d"/><path d="m12.459 32.722 2.2421-4.0826s-3.895-1.7087-5.8645 4.0357v0.04715z"/><path d="m20.94 13.012c0.05805 0.143 0.10016 0.2971 0.13389 0.45561-0.0181-0.1388-0.04458-0.27372-0.08208-0.40222-0.01766-0.01726-0.03403-0.03648-0.05183-0.05344"/><path d="m22.43 15.837c-0.09496-0.97738-0.66738-2.0032-1.4102-2.7416 0.67724 0.79677 1.1577 1.8787 1.1577 2.8629 0 1.8389-0.99881 2.639-2.5204 2.626-0.95799-0.0072-1.5828-0.18786-1.9904-0.49535 0.41966 0.50749 1.1444 0.77621 2.4666 0.65895 1.5442-0.13722 2.4779-1.0463 2.2968-2.911"/><path d="m18.479 12.12c-0.0044 1e-3 -0.0085 0.0031-0.01154 0.0041-0.03373 0.03329-0.06572 0.06947-0.09742 0.10595 0.03604-0.03763 0.07107-0.07628 0.10972-0.10985"/><path d="m20.989 13.057c7.53e-4 0.0031 1e-3 0.0052 0.0015 0.0083 0.01009 0.0092 0.01912 0.01994 0.02865 0.02945-0.01008-0.01302-0.01997-0.02605-0.0307-0.03835" fill="#fff"/><path d="m21.02 13.095c-0.01009-0.01069-0.01896-0.01995-0.02866-0.02946 0.03751 0.12869 0.06399 0.26354 0.08221 0.40224 0.01462 0.11262 0.02518 0.22715 0.02518 0.34505 0 1.172-0.73473 2.1219-1.6412 2.1219-0.90645 0-1.6413-0.94998-1.6413-2.1219 0-0.63067 0.21491-1.194 0.55282-1.5826 0.03171-0.03648 0.0637-0.07267 0.09742-0.10585 0.06442-0.06336 0.13158-0.12216 0.20291-0.1727-1.2807 0.19804-1.7671 1.5999-1.7671 3.3032 0 1.2046-0.01009 2.2498 0.7645 2.8339 0.40754 0.30751 1.0324 0.48744 1.9905 0.49546 1.5216 0.01302 2.5204-0.78725 2.5204-2.6261 0-0.98409-0.48051-2.0662-1.1577-2.8629" fill="#fff"/><path d="m17.816 13.813c0 1.1719 0.73484 2.1219 1.6413 2.1219 0.90644 0 1.6412-0.94998 1.6412-2.1219 0-0.26677-0.0398-0.52101-0.10943-0.75617-0.5825-0.67171-1.3056-1.1313-2.0002-1.1313-0.11233 0-0.21763 0.01069-0.31973 0.02636-0.50833 0.36054-0.85318 1.0586-0.85318 1.8612"/><path d="m19.728 13.285c0 0.45344-0.30467 0.82103-0.68026 0.82103-0.37591 0-0.68027-0.3676-0.68027-0.82103 0-0.45334 0.30436-0.82104 0.68027-0.82104 0.37559 0 0.68026 0.3677 0.68026 0.82104" fill="#fff"/><path d="m15.145 27.877 3.18e-4 -3.21e-4c-2.17e-4 -2.06e-4 -3.18e-4 -2.06e-4 -3.18e-4 -2.06e-4z" fill="#231e1f"/><path d="m19.476 28.617c0.01154-0.0072 0.02388-0.01458 0.03603-0.02254l-0.15581-0.233c-0.07425 0.04952-0.14702 0.09428-0.21925 0.1368l0.22694 0.02667s0.0414 0.03327 0.11204 0.092" fill="#231e1f"/><path d="m15.378 28.056 0.32438 0.03845-0.07135-0.0083z" fill="#f6bd6d"/><path d="m23.494 14.04c0.17389 0.08858 0.89844 0.46243 1.8047 1.0027-0.17746-1.1121-1.4645-2.5072-2.2291-3.1892-0.26744-0.24015-0.48029-0.30566-0.64692-0.3062-0.16642-5.38e-4 -0.30111 0.06896-0.39725 0.142-0.07064 0.05365-0.11406 0.10424-0.13244 0.12737l-0.01476 0.03205c0.72044 0.65244 1.2431 1.4514 1.6158 2.1912" fill="#f6bd6d"/><path d="m22.201 25.125s-1.6412-1.3599-3.7513-0.70335c0 0 2.8139-0.09386 3.1419 0.93763z"/><path d="m14.558-0.26749c0 0.24598-0.19945 0.44554-0.44554 0.44554-0.24588 0-0.44543-0.19956-0.44543-0.44554 0-0.24589 0.19955-0.44544 0.44543-0.44544 0.24609 0 0.44554 0.19956 0.44554 0.44544" fill="#9c61a4"/><path d="m14.558-0.26749c0 0.24598-0.19945 0.44554-0.44554 0.44554-0.24588 0-0.44543-0.19956-0.44543-0.44554 0-0.24589 0.19955-0.44544 0.44543-0.44544 0.24609 0 0.44554 0.19956 0.44554 0.44544z" fill="#5a222f" stroke="#000" stroke-width=".3"/><path d="m27.782 7.7044c0 0.24599-0.19943 0.44554-0.44532 0.44554-0.24599 0-0.44542-0.19955-0.44542-0.44554 0-0.24588 0.19943-0.44544 0.44542-0.44544 0.24588 0 0.44532 0.19957 0.44532 0.44544" fill="#5f122b"/><path d="m27.782 7.7044c0 0.24599-0.19943 0.44554-0.44532 0.44554-0.24599 0-0.44542-0.19955-0.44542-0.44554 0-0.24588 0.19943-0.44544 0.44542-0.44544 0.24588 0 0.44532 0.19957 0.44532 0.44544z" fill="#5a222f" stroke="#000" stroke-width=".3"/><path d="m20.091 28.881c0-0.23052-0.16922-0.41762-0.37808-0.41762-0.1394 0-0.25964 0.08405-0.32535 0.20799-0.64281 0.40257-1.2373 0.56377-1.7632 0.56377h-0.0029c-1.1363-0.0052-1.9163-0.70581-2.2667-1.0987l0.01462-0.13896-0.22866 0.08775-0.29883 0.15829-0.09683 0.06171-0.05268 0.26365 0.07745 0.15667-0.0086 0.01069c0.13245 0.14272 0.35653 0.36357 0.66489 0.58728 0.51601 0.37451 1.2507 0.74458 2.1333 0.74405 0.65299-6.51e-4 1.3924-0.14596 2.2027-0.71136 0.1846-0.0278 0.32968-0.26332 0.32968-0.47487" fill="#fff"/><path d="m30.436 21.053c-0.14012 1.4904-0.87374 2.399-1.9535 2.9881-1.0809 0.58554-2.5169 0.82048-3.9915 0.87786-1.4847 0.06109-2.6668 0.05685-3.5847 0.50801-0.91306 0.45064-1.4865 1.3628-1.7362 3.0755l-0.03285-0.0041c-0.56572 0.33207-1.0711 0.45494-1.5157 0.4555-0.69964 0-1.2596-0.30587-1.6485-0.61748-0.10378-0.0829-0.19327-0.16532-0.27046-0.24198l-0.32438-0.03825 0.25302 0.02977 0.07136 0.0083c-0.02693-0.02687-0.04748-0.05044-0.07136-0.07525v-2.378c-0.01694-0.01756 0.04067-2.268-0.98569-3.0997-0.898-0.69186-1.5716-1.534-1.9657-2.5986-0.21621-0.58587-0.31614-1.159-0.31614-1.714 0-1.513 0.74457-2.9062 1.9663-4.0145 0.41782-0.38242 0.94846-0.93624 1.4047-1.138l0.05414-0.0243 0.02952-0.05189c0-5.58e-4 0.06919-0.1226 0.21091-0.31561 0.4255-0.58468 1.4683-1.7308 2.9438-1.7251 0.40395 0 0.84527 0.08311 1.3268 0.28952 1.4194 0.60675 2.3836 1.872 2.9881 2.9961 0.60524 1.1219 1.0199 2.0402 1.0232 2.0407-0.0044-0.0052-0.15765-0.75889-0.572-1.718 0.51429 0.27241 1.8901 1.0294 3.2702 2.0269 1.7482 1.2501 3.4537 2.9099 3.4332 4.2979 0 0.05344-0.0015 0.10712-0.0057 0.16036m-10.501 8.0575c-0.01737 0.0462-0.04256 0.08806-0.0731 0.12144-0.16012 0.17346-0.40547 0.27361-0.61411 0.37451-0.36044 0.17389-0.71242 0.34095-1.1102 0.40809-0.18991 0.03195-0.38675 0.05273-0.57969 0.05314-0.88252 5.47e-4 -1.6172-0.36954-2.1333-0.74405-0.29589-0.2147-0.51179-0.42484-0.64604-0.56766-0.0015-0.0072-0.0029-0.01302-0.0044-0.01955-0.11407-0.44067 0.41564-0.58771 0.56181-0.61965 0.34139 0.38892 1.1295 1.1134 2.2874 1.1189 0.5132 0 1.0315-0.14867 1.4778-0.39813 0.14156-0.07877 0.29678-0.16403 0.42172-0.26786 0.02475-0.02068 0.1597 0.05355 0.18167 0.06564 0.07107 0.03876 0.13766 0.08941 0.19088 0.15092 0.07701 0.08817 0.07946 0.21733 0.03924 0.3245m1.957-17.294c0.01839-0.02315 0.0618-0.07359 0.13245-0.12737 0.09626-0.07307 0.23083-0.14259 0.39735-0.14201 0.16654 5.38e-4 0.3795 0.06605 0.64682 0.3062 0.7646 0.68203 2.0516 2.0771 2.2291 3.1892-0.90612-0.54028-1.6307-0.91393-1.8047-1.0027-0.37277-0.73983-0.8954-1.5388-1.6158-2.1912zm5.3313 4.4812c-0.54244-0.39162-1.1062-0.75684-1.628-1.0757-0.07483-1.3301-1.517-2.824-2.3382-3.5776-0.30229-0.27425-0.58823-0.37994-0.83531-0.37874-0.47097 0.0052-0.72811 0.34723-0.76352 0.39334-0.35882-0.2933-0.76136-0.55024-1.2148-0.74697-0.52306-0.22434-1.016-0.31907-1.4711-0.31907-2.0366 0.01448-3.2328 1.8391-3.4402 2.1738-0.5434 0.26798-1.0544 0.82144-1.4488 1.1764-1.278 1.1584-2.0861 2.6475-2.0861 4.2853 0 0.59927 0.10871 1.2164 0.33878 1.8407 0.41922 1.135 1.1433 2.0376 2.0855 2.7619 0.38706 0.28823 0.62472 0.99329 0.7318 1.628 0.11102 0.63306 0.11044 1.1803 0.11146 1.1818v2.2025c-1.0172 0.1124-0.75645 1.0244-0.75645 1.0244l0.01737 0.0275c-6.53e-4 2.26e-4 -0.0014 4.33e-4 -0.0015 6.5e-4 0.35621 0.3914 1.4578 1.4473 3.0338 1.4527h0.0029c0.76222 0 1.6276-0.26668 2.5453-0.95886 0.06165-0.0337 0.1184-0.0858 0.1184-0.0858l0.0015-0.0031c0.0057-0.0041 0.01154-0.0072 0.01709-0.01302-0.0015-1e-3 -0.0044-0.0041-0.0057-0.0052l0.0029-0.0052s0.23938-0.84269-0.66738-0.98419c0.26406-1.4834 0.76027-2.1701 1.4947-2.5377 0.79353-0.39899 1.9442-0.41458 3.4367-0.47046 1.5029-0.06037 2.9867-0.29362 4.1508-0.92204 1.1653-0.62398 2.0025-1.6734 2.1437-3.2769 0.0057-0.06512 0.0085-0.12911 0.0085-0.19305-0.01955-1.6692-1.8233-3.3097-3.5842-4.5944"/><path d="m22.911 32.722c-0.35254-1.1617-1.7346-2.5788-2.6668-3.434-0.96935 0.77243-1.8827 1.0609-2.6831 1.0609h-0.0029c-1.576-0.0052-2.6775-1.0614-3.0337-1.4527-1.9649 0.89303-2.9513 3.2302-3.1757 3.8258z" fill="#c7584d"/><path d="m11.504 32.71c0.10465-0.26972 0.32644-0.78996 0.68071-1.3733 0.50108-0.82633 1.2638-1.7646 2.3075-2.2706 0.42789 0.44815 1.5179 1.4145 3.0659 1.4227h0.0029c0.80781 5.47e-4 1.7209-0.28324 2.6759-1.0171 0.90927 0.83855 2.1806 2.1805 2.5256 3.2383h0.29091c-0.36206-1.2306-1.7697-2.6536-2.7142-3.5266l-0.08857-0.08124-0.0945 0.07504c-0.94922 0.75596-1.8287 1.0299-2.5951 1.0304h-0.0029c-1.509-0.0031-2.5854-1.0263-2.9295-1.4066l-0.06947-0.07587-0.09307 0.04197c-2.0755 0.95198-3.0623 3.4021-3.2623 3.9428z"/></svg>