<?xml version="1.0" encoding="UTF-8"?>
<!DOCTYPE svg PUBLIC "-//W3C//DTD SVG 1.1//EN" "http://www.w3.org/Graphics/SVG/1.1/DTD/svg11.dtd">
<!-- Creator: CorelDRAW X5 -->
<svg xmlns="http://www.w3.org/2000/svg" xml:space="preserve" width="135.467mm" height="45.1272mm" style="shape-rendering:geometricPrecision; text-rendering:geometricPrecision; image-rendering:optimizeQuality; fill-rule:evenodd; clip-rule:evenodd"
viewBox="0 0 13547 4513"
xmlns:xlink="http://www.w3.org/1999/xlink"
xmlns:svg="http://www.w3.org/2000/svg">
 <defs>
  <style type="text/css">
    <![CDATA[
      .fil0 { fill: #F6A500; fill-rule: nonzero; }
      .fil1 { fill: #15182A; fill-rule: nonzero; }
      @media (prefers-color-scheme: dark) {
        .fil1 { fill: #FFFFFF; }
        svg { background-color: #15182A; }
      }
    ]]>
  </style>
 </defs>
 <g id="Layer_x0020_1">
  <metadata id="CorelCorpID_0Corel-Layer"/>
 </g>
 <g id="Layer_x0020_1_0">
  <metadata id="CorelCorpID_1Corel-Layer"/>
  <g id="Bybit_x0020_Logo.cdr">
   <!-- Orange Polygon -->
   <polygon class="fil0" points="9655,3480 9655,-1 10355,-1 10355,3480 "/>
   <!-- Navy Path (default) -->
   <path class="fil1" d="M1500 4514l-1500 0 0 -3481 1440 0c700,0 1107,381 1107,978 0,386 -262,636 -443,719 216,98 493,318 493,782 0,650 -458,1002 -1097,1002zm-116 -2875l0 0 -685 0 0 802 685 0c297,0 463,-161 463,-401 0,-239 -166,-401 -463,-401zm45 1413l0 0 -730 0 0 856 730 0c317,0 468,-195 468,-430 0,-235 -151,-425 -468,-425z"/>
   <!-- Navy Polygon (default) -->
   <polygon class="fil1" points="4732,3086 4732,4514 4037,4514 4037,3086 2960,1033 3720,1033 4389,2436 5049,1033 5809,1033 "/>
   <!-- Navy Path (default) -->
   <path class="fil1" d="M7793 4514l-1500 0 0 -3481 1440 0c700,0 1107,381 1107,978 0,386 -262,636 -443,719 216,98 493,318 493,782 0,650 -458,1002 -1097,1002zm-116 -2875l0 0 -685 0 0 802 685 0c297,0 463,-161 463,-401 0,-239 -166,-401 -463,-401zm45 1413l0 0 -730 0 0 856 730 0c317,0 468,-195 468,-430 0,-235 -151,-425 -468,-425z"/>
   <!-- Navy Polygon (default) -->
   <polygon class="fil1" points="12610,1639 12610,4514 11911,4514 11911,1639 10974,1639 10974,1033 13547,1033 13547,1639 "/>
  </g>
 </g>
</svg>
