<?xml version="1.0" encoding="UTF-8"?>
<!DOCTYPE svg PUBLIC "-//W3C//DTD SVG 1.1//EN" "http://www.w3.org/Graphics/SVG/1.1/DTD/svg11.dtd">
<svg xmlns="http://www.w3.org/2000/svg" version="1.1" width="500px" height="500px" style="shape-rendering:geometricPrecision; text-rendering:geometricPrecision; image-rendering:optimizeQuality; fill-rule:evenodd; clip-rule:evenodd" xmlns:xlink="http://www.w3.org/1999/xlink">
<g><path style="opacity:0.99" fill="#0170ae" d="M 268.5,114.5 C 268.343,115.873 268.51,117.207 269,118.5C 291.11,156.392 312.943,194.392 334.5,232.5C 281.008,234.166 227.341,235.166 173.5,235.5C 135.941,171.393 98.6076,107.06 61.5,42.5C 116.5,41.1667 171.5,41.1667 226.5,42.5C 240.022,66.8911 254.022,90.8911 268.5,114.5 Z"/></g>
<g><path style="opacity:0.982" fill="#f5812a" d="M 499.5,43.5 C 499.5,44.5 499.5,45.5 499.5,46.5C 449.174,108.835 399.174,171.502 349.5,234.5C 345.217,235.492 340.884,235.826 336.5,235.5C 336.573,233.973 335.906,232.973 334.5,232.5C 312.943,194.392 291.11,156.392 269,118.5C 268.51,117.207 268.343,115.873 268.5,114.5C 286.953,90.8749 305.619,67.3749 324.5,44C 382.832,43.5 441.166,43.3333 499.5,43.5 Z"/></g>
<g><path style="opacity:0.561" fill="#337394" d="M 334.5,232.5 C 335.906,232.973 336.573,233.973 336.5,235.5C 282.167,235.5 227.833,235.5 173.5,235.5C 227.341,235.166 281.008,234.166 334.5,232.5 Z"/></g>
<g><path style="opacity:0.988" fill="#f5812a" d="M 325.5,264.5 C 322.22,267.043 319.387,270.043 317,273.5C 289.381,309.454 261.381,345.12 233,380.5C 231.121,382.527 229.954,384.86 229.5,387.5C 211.307,410.688 192.973,433.855 174.5,457C 116.168,457.5 57.8343,457.667 -0.5,457.5C -0.5,456.5 -0.5,455.5 -0.5,454.5C 50.0174,391.474 100.017,327.974 149.5,264C 208.335,263.168 267.001,263.335 325.5,264.5 Z"/></g>
<g><path style="opacity:0.99" fill="#0170ae" d="M 325.5,264.5 C 364.664,327.999 402.998,391.999 440.5,456.5C 383.829,456.833 327.163,456.5 270.5,455.5C 256.822,432.806 243.155,410.139 229.5,387.5C 229.954,384.86 231.121,382.527 233,380.5C 261.381,345.12 289.381,309.454 317,273.5C 319.387,270.043 322.22,267.043 325.5,264.5 Z"/></g>
</svg>
