<?xml version="1.0" encoding="UTF-8"?>
<svg version="1.1" xmlns="http://www.w3.org/2000/svg" width="180" height="180">
<path d="M0 0 C1.216875 0.020625 2.43375 0.04125 3.6875 0.0625 C3.6875 4.0625 3.6875 4.0625 2.16796875 5.7109375 C1.41128906 6.28070313 0.65460938 6.85046875 -0.125 7.4375 C-1.03636719 8.13101562 -1.94773438 8.82453125 -2.88671875 9.5390625 C-4.02764718 10.38156241 -5.16968238 11.22256448 -6.3125 12.0625 C-7.7565572 13.13274938 -9.20056406 14.20306668 -10.64453125 15.2734375 C-13.90582535 17.68482679 -17.17380637 20.08686248 -20.4453125 22.484375 C-24.75697348 25.64750016 -29.04090831 28.84555554 -33.3125 32.0625 C-39.1191859 36.43249518 -44.95721655 40.75785308 -50.8125 45.0625 C-58.02819557 50.36847873 -65.21424402 55.71130543 -72.3671875 61.1015625 C-75.1511493 63.19760635 -77.95005947 65.27187937 -80.7578125 67.3359375 C-81.48846924 67.87589355 -82.21912598 68.41584961 -82.97192383 68.97216797 C-84.36943365 70.00441414 -85.77014116 71.03235027 -87.17456055 72.05517578 C-87.80402588 72.52165527 -88.43349121 72.98813477 -89.08203125 73.46875 C-89.91118042 74.07686523 -89.91118042 74.07686523 -90.75708008 74.69726562 C-93.26358561 76.89729371 -95.09044944 78.55549345 -95.59912395 82.00775146 C-95.7230475 84.54383818 -95.74887146 87.0653304 -95.74487305 89.60449219 C-95.7550647 90.57067978 -95.76525635 91.53686737 -95.77575684 92.53233337 C-95.80594211 95.72473915 -95.81516137 98.91684513 -95.82421875 102.109375 C-95.8410613 104.32327272 -95.85921097 106.53716086 -95.87861633 108.7510376 C-95.92616827 114.57726038 -95.95594416 120.40344429 -95.98205566 126.22979736 C-96.01183489 132.17541176 -96.05837429 138.12089216 -96.10351562 144.06640625 C-96.18960792 155.73170082 -96.25692694 167.39702292 -96.3125 179.0625 C-101.05725098 180.1831665 -101.05725098 180.1831665 -103.35449219 179.09716797 C-104.01610352 178.58814941 -104.67771484 178.07913086 -105.359375 177.5546875 C-106.1129126 176.9867749 -106.8664502 176.4188623 -107.64282227 175.83374023 C-108.44131592 175.20798096 -109.23980957 174.58222168 -110.0625 173.9375 C-111.32114868 172.98049194 -111.32114868 172.98049194 -112.60522461 172.00415039 C-115.18555013 170.0377602 -117.74987864 168.05188375 -120.3125 166.0625 C-122.47462467 164.40101878 -124.63946141 162.74312958 -126.8046875 161.08569336 C-128.1901875 160.02451146 -129.57429387 158.96150764 -130.95703125 157.89672852 C-136.8267567 153.38971568 -142.8146091 149.05944199 -148.83056641 144.75048828 C-154.58745281 140.61672226 -160.22146345 136.34809812 -165.80859375 131.98828125 C-167.59488297 130.61442698 -169.43746682 129.31252212 -171.3125 128.0625 C-171.63038843 125.01040105 -171.75299942 122.15899284 -171.74829102 119.10229492 C-171.75836685 118.17369156 -171.76844269 117.2450882 -171.77882385 116.28834534 C-171.80741215 113.20643196 -171.81318627 110.12500662 -171.81640625 107.04296875 C-171.82604121 104.90545955 -171.83613322 102.76795236 -171.84666443 100.63044739 C-171.86465402 96.14380304 -171.87018269 91.65733218 -171.8684082 87.1706543 C-171.86810352 81.42000057 -171.9090306 75.67045971 -171.96072483 69.92006969 C-171.99407891 65.50282176 -172.00016603 61.08584281 -171.99857903 56.66848183 C-172.00212145 54.54855837 -172.01540414 52.42862812 -172.03857613 50.30882835 C-172.06796459 47.34205673 -172.05935251 44.37769895 -172.04125977 41.41088867 C-172.05811829 40.53433624 -172.07497681 39.65778381 -172.09234619 38.75466919 C-172.00286946 32.98264995 -172.00286946 32.98264995 -170.07895565 30.41838646 C-167.34279813 28.00061731 -164.60841434 26.44461555 -161.01928711 25.84472656 C-160.2473703 25.70651489 -159.47545349 25.56830322 -158.68014526 25.42590332 C-157.89882233 25.30598022 -157.11749939 25.18605713 -156.3125 25.0625 C-155.19598557 24.8695636 -155.19598557 24.8695636 -154.05691528 24.67272949 C-151.70905331 24.27412963 -149.35790781 23.90736472 -147.00390625 23.546875 C-145.2036029 23.26544729 -143.40331037 22.98395032 -141.60302734 22.70239258 C-140.66883972 22.55734283 -139.7346521 22.41229309 -138.77215576 22.2628479 C-123.88310396 19.94842169 -109.01745878 17.54260511 -94.1875 14.875 C-83.77477733 13.0054211 -73.35592165 11.24716887 -62.89331055 9.67773438 C-51.74780132 7.99904297 -40.62454003 6.18670916 -29.5 4.375 C-28.05380783 4.14008347 -28.05380783 4.14008347 -26.57839966 3.90042114 C-23.8164122 3.45162066 -21.05464953 3.00146461 -18.29296875 2.55078125 C-17.04466782 2.34790497 -17.04466782 2.34790497 -15.77114868 2.14093018 C-12.63326851 1.62716849 -9.50881782 1.10194075 -6.39111328 0.47558594 C-4.20763175 0.04165938 -2.22270858 -0.03767303 0 0 Z " fill="#312938" transform="translate(171.3125,-0.0625)"/>
<path d="M0 0 C2.83810952 32.4514779 2.83810952 32.4514779 -1.54101562 41.01269531 C-5.45389819 45.52354064 -10.31646991 48.2459153 -15.64501953 50.82177734 C-19.07303284 52.53685014 -22.01066916 54.76337297 -25.0625 57.0625 C-26.18807081 57.85964971 -27.31570591 58.65389209 -28.4453125 59.4453125 C-32.51926796 62.34280705 -36.47681154 65.38790779 -40.4375 68.4375 C-47.58191534 73.93697294 -54.80930684 79.30560943 -62.10009766 84.60888672 C-64.14196397 86.10394638 -66.17136892 87.6148965 -68.19921875 89.12890625 C-69.23151611 89.89630127 -69.23151611 89.89630127 -70.28466797 90.67919922 C-71.61063603 91.66545382 -72.93399757 92.65522498 -74.25439453 93.64892578 C-78.77533404 97 -78.77533404 97 -81 97 C-81 97.66 -81 98.32 -81 99 C-83.07289562 100.63820852 -85.13280065 102.14252648 -87.3125 103.625 C-87.90740234 104.04523438 -88.50230469 104.46546875 -89.11523438 104.8984375 C-93.62156301 108 -93.62156301 108 -97 108 C-99.7665866 73.06652384 -99.7665866 73.06652384 -94.0703125 66.328125 C-90.84552139 63.64805081 -87.22174123 61.88379844 -83.40527344 60.18847656 C-78.96930157 57.99660577 -75.17629818 54.85895443 -71.25 51.875 C-69.76030861 50.78207642 -68.2658279 49.69563715 -66.765625 48.6171875 C-66.13430664 48.15940918 -65.50298828 47.70163086 -64.85253906 47.22998047 C-61.34322043 44.89999269 -58.92169433 43.73931098 -54.6640625 43.91015625 C-53.84679687 43.93013672 -53.02953125 43.95011719 -52.1875 43.97070312 C-50.48682426 44.03162672 -48.78629161 44.0966935 -47.0859375 44.16601562 C-41.9346787 44.28345785 -38.40114567 44.00550213 -34 41 C-30.1959044 37.24837469 -29.29220417 33.91848191 -28.25 28.75 C-26.12802212 19.63934615 -21.45734282 14.46354542 -14.125 8.9375 C-11 7 -11 7 -9 7 C-9 6.34 -9 5.68 -9 5 C-7.5390625 3.7109375 -7.5390625 3.7109375 -5.625 2.375 C-4.99851562 1.92898437 -4.37203125 1.48296875 -3.7265625 1.0234375 C-2 0 -2 0 0 0 Z " fill="#FD6410" transform="translate(180,66)"/>
<path d="M0 0 C2.21758282 14.78388547 2.21758282 14.78388547 -1.31103516 19.90136719 C-4.8114477 23.41706537 -8.89545084 26.10742765 -13.07177734 28.75537109 C-15.74835749 30.4830497 -18.21121831 32.43642679 -20.6875 34.4375 C-21.43386719 35.01371094 -22.18023437 35.58992188 -22.94921875 36.18359375 C-27.94068488 40.60460661 -29.82348556 44.73330464 -31.5 51 C-32.88954801 56.19403464 -34.18194233 60.00013006 -38 64 C-40.35270593 65.17635297 -41.820752 65.13359359 -44.4375 65.125 C-45.61119141 65.12886719 -45.61119141 65.12886719 -46.80859375 65.1328125 C-49 65 -49 65 -52 64 C-61.8966718 63.02973806 -68.54849626 68.9044853 -75.875 74.8125 C-77.4544099 76.06286617 -79.0351299 77.31157934 -80.6171875 78.55859375 C-81.36967773 79.15269043 -82.12216797 79.74678711 -82.89746094 80.35888672 C-93.96816424 89 -93.96816424 89 -97 89 C-97.13539281 86.10259378 -97.23426829 83.21154379 -97.3125 80.3125 C-97.35439453 79.49587891 -97.39628906 78.67925781 -97.43945312 77.83789062 C-97.52067017 73.82576874 -97.50593286 71.69075323 -95.0859375 68.38671875 C-94.06757812 67.59910156 -93.04921875 66.81148438 -92 66 C-91.310271 65.44997314 -90.62054199 64.89994629 -89.90991211 64.33325195 C-87.40358555 62.3524162 -84.86348582 60.4229442 -82.3125 58.5 C-81.38566406 57.7972998 -80.45882812 57.09459961 -79.50390625 56.37060547 C-72.82012137 51.32238475 -66.05959568 46.38927286 -59.24926758 41.51367188 C-53.8709015 37.65628395 -48.63092743 33.657388 -43.40625 29.59375 C-39.34061803 26.46634079 -35.16779941 23.48902786 -31 20.5 C-18.39340556 11.50092613 -18.39340556 11.50092613 -6.39453125 1.72265625 C-4 0 -4 0 0 0 Z " fill="#62C3FC" transform="translate(180,39)"/>
<path d="M0 0 C1.81818182 15.60606061 1.81818182 15.60606061 -2.109375 20.77734375 C-4.70592692 22.66159832 -7.33679035 24.32349092 -10.13476562 25.89111328 C-13.54161511 27.91649422 -16.61341072 30.39802805 -19.75 32.8125 C-21.12230488 33.84430327 -22.49601727 34.87423707 -23.87109375 35.90234375 C-26.55242639 37.91318569 -29.23205576 39.92626196 -31.91015625 41.94140625 C-39.13927454 47.37752191 -46.39719578 52.77116024 -53.6875 58.125 C-60.0966623 62.83382444 -66.4375083 67.61345314 -72.73046875 72.4765625 C-76.64294682 75.49856398 -80.56395943 78.50873436 -84.5 81.5 C-85.5067981 82.27561279 -85.5067981 82.27561279 -86.53393555 83.06689453 C-89.90454207 85.61792266 -92.92562131 87.68366227 -97 89 C-98.82307755 72.55854132 -98.82307755 72.55854132 -94.71484375 66.79296875 C-91.56542869 64.21248028 -88.4711606 62.12486934 -85 60 C-83.21959718 58.70051058 -81.44831267 57.38841315 -79.6875 56.0625 C-77.79221722 54.70756289 -75.89634032 53.35345661 -74 52 C-71.59881099 50.25729143 -69.20499476 48.5046199 -66.8125 46.75 C-66.18037598 46.28658203 -65.54825195 45.82316406 -64.89697266 45.34570312 C-56.2318515 38.98126849 -47.64755416 32.50823294 -39.06640625 26.03125 C-31.12207223 20.04345932 -23.11595055 14.153377 -15.02587891 8.36352539 C-13.95539307 7.59576782 -13.95539307 7.59576782 -12.86328125 6.8125 C-11.85515381 6.09126953 -11.85515381 6.09126953 -10.82666016 5.35546875 C-9.24207872 4.17963393 -7.72832935 2.90948412 -6.23046875 1.625 C-4 0 -4 0 0 0 Z " fill="#FCC015" transform="translate(180,11)"/>
</svg>
