<svg xmlns="http://www.w3.org/2000/svg" viewBox="0 0 926.7 958.6"><path fill="#0c4da2" d="m874 951.9 4-358.3H678.1c-15.7 43.4-60 72.7-113.2 72.7a163 163 0 0 1-82.5-21.2 180.4 180.4 0 0 1-75-82 373.8 373.8 0 0 1-28.4-123c4.7-79.8 28.9-108.2 73.3-141 9.8-7.4 37.3-13.2 45.2-13.2 17.4-.1 32 10.5 39.8 26 11.4 22.7-5.3 50.1-21.9 69.7L677 492.9l249.7-261.2C839.6 93 680.4 0 498.6 0 223.2 0 0 213 0 475.7s216 461.4 498.6 482.9l376.6-1.7c.2-315-12.8-291-1.3-5Z"/><path fill="#ffcb08" d="M498.2 89.4C271.2 90.8 86 256 86 472.4S290.5 874.5 538.2 869l240.7.7V680h-45.4c-14.3 35.7-81 70.7-129.4 70.7-25.5 0-89.6-3.5-113.4-11.8C448.8 724.3 389 703.2 337 615.8c-14-30.6-53.2-105.2-44.4-214.1 4.2-65.7 46-147.6 120.8-184.7 32.6-16.2 65.4-18.9 123-13.6 41.5 3.7 82.6 32.8 97 67.8 11 27 7.9 60-5.2 78.7-1 1.3-1 2.5-.8 3.8.2 1 1.4 2.6 1.4 2.6l22.8 17.8s6.5 4.5 14.1 4.3c4.4-.1 12.3-5 12.3-5L808 237C727.7 128.4 584.8 89.4 498.3 89.4Z"/></svg>
