<?xml version="1.0" encoding="UTF-8"?>
<svg version="1.1" xmlns="http://www.w3.org/2000/svg" width="256" height="256">
<path d="M0 0 C84.48 0 168.96 0 256 0 C256 84.48 256 168.96 256 256 C171.52 256 87.04 256 0 256 C0 171.52 0 87.04 0 0 Z " fill="#535B65" transform="translate(0,0)"/>
<path d="M0 0 C4.01074483 1.93109936 5.5993303 3.21407097 7.625 7.1875 C9.67637192 10.22212241 9.67637192 10.22212241 12.5625 10.46484375 C14.65023385 10.57402371 16.73893597 10.66575376 18.828125 10.7421875 C26.37317761 11.35545532 32.70235957 14.70235957 38 20 C38 20.66 38 21.32 38 22 C39.03125 22.226875 40.0625 22.45375 41.125 22.6875 C46.50135872 24.25469768 49.86801015 27.22654924 52.875 31.9375 C55.13347687 38.09083518 55.33301449 46.27116216 53.1328125 52.42578125 C51.96704762 54.48076095 50.67770177 56.32229823 49 58 C49.33 58.99 49.66 59.98 50 61 C49.14453125 62.9375 49.14453125 62.9375 47.8125 65 C47.38582031 65.680625 46.95914063 66.36125 46.51953125 67.0625 C43.45197207 70.97383509 40.60662331 72.3567618 35.75 73.1875 C34.85796875 73.34605469 33.9659375 73.50460938 33.046875 73.66796875 C32.03367188 73.83232422 32.03367188 73.83232422 31 74 C31.72445312 73.96519531 32.44890625 73.93039063 33.1953125 73.89453125 C43.39774291 73.6088632 43.39774291 73.6088632 48 77 C48.6484375 79.109375 48.6484375 79.109375 49 81 C54.2966646 76.68982021 58.93453237 71.97913395 63.50244141 66.90844727 C71.36770426 58.22338305 79.6089011 49.70948054 88.64453125 42.234375 C90.13889782 41.02236435 90.13889782 41.02236435 91 39 C91.66 39.33 92.32 39.66 93 40 C89.86756551 47.60182993 85.0526337 52.43884926 79.203125 58.1171875 C78.24374978 59.06399898 77.28541275 60.01186346 76.32806396 60.96072388 C73.82455176 63.43781951 71.31009722 65.90346805 68.79217529 68.36590576 C64.7461716 72.32511901 60.71408222 76.29839586 56.6880722 80.2779274 C55.28125061 81.66428913 53.86737366 83.04347949 52.45343018 84.4225769 C51.60544861 85.25749664 50.75746704 86.09241638 49.88378906 86.95263672 C49.1319635 87.68795624 48.38013794 88.42327576 47.60552979 89.18087769 C45.77942687 90.84553386 45.77942687 90.84553386 46 93 C48.31 93.99 50.62 94.98 53 96 C53.9178125 95.07058594 54.835625 94.14117187 55.78125 93.18359375 C67.35179585 81.51211905 67.35179585 81.51211905 73.3984375 76.37890625 C75.72593554 74.37498721 77.85844831 72.19943147 80 70 C81.66666667 68.33333333 83.33333333 66.66666667 85 65 C83.54901708 71.84330384 81.78973466 78.55029386 79.875 85.27734375 C79.57159698 86.35039261 79.26819397 87.42344147 78.95559692 88.52900696 C77.97327577 91.99932799 76.98693668 95.468489 76 98.9375 C75.66562927 100.11542114 75.33125854 101.29334229 74.98675537 102.50695801 C70.74882778 117.43557666 66.48419305 132.3562987 62.125 147.25 C61.91649414 147.96582245 61.70798828 148.6816449 61.49316406 149.41915894 C60.91828862 151.3898607 60.33822048 153.35904557 59.7578125 155.328125 C59.28045654 156.95089355 59.28045654 156.95089355 58.79345703 158.60644531 C58 161 58 161 57 162 C54.1883662 162.08861992 51.40141745 162.11522355 48.58984375 162.09765625 C47.74780899 162.0962413 46.90577423 162.09482635 46.03822327 162.09336853 C43.33794665 162.08775263 40.63775172 162.07519748 37.9375 162.0625 C36.11132932 162.05748705 34.28515734 162.05292379 32.45898438 162.04882812 C27.97262458 162.03777804 23.48632616 162.02050279 19 162 C19 160.68 19 159.36 19 158 C17.948125 157.50693359 17.948125 157.50693359 16.875 157.00390625 C7.18055826 152.14351358 0.29208377 146.03348155 -3.3125 135.58984375 C-6.02056585 125.38843661 -5.45405336 115.33377935 -0.33203125 105.94140625 C6.23392691 96.28250173 13.36126272 91.67774746 24.77734375 89.39453125 C29.35064101 88.8346488 33.48949478 89.15323229 38 90 C39.546875 90.2784375 39.546875 90.2784375 41.125 90.5625 C41.74375 90.706875 42.3625 90.85125 43 91 C43.28875 90.236875 43.5775 89.47375 43.875 88.6875 C45 86 45 86 47 83 C38.7479866 83.63485058 30.61450346 84.73565661 22.4375 86 C-13.65663265 91.5622449 -13.65663265 91.5622449 -22 86 C-29.07007692 78.98152948 -32.16291781 69.77150683 -32.45410156 59.96801758 C-32.45347592 57.35778901 -32.4322366 54.75381587 -32.390625 52.14453125 C-32.3831448 50.74778563 -32.3774603 49.35102937 -32.37347412 47.95426941 C-32.3583572 44.31596807 -32.31920077 40.67832734 -32.2746582 37.0402832 C-32.23340007 33.31275361 -32.21539862 29.58511503 -32.1953125 25.85742188 C-32.15268874 18.57131665 -32.08461263 11.28575163 -32 4 C-25.6047635 3.11271763 -22.75556151 3.00231171 -17 6 C-16.67 5.01 -16.34 4.02 -16 3 C-10.96901744 -0.48298793 -5.91668991 -0.85763095 0 0 Z " fill="#696F7C" transform="translate(32,54)"/>
<path d="M0 0 C0.53394179 1.4117783 1.05165104 2.82970244 1.5625 4.25 C1.85253906 5.03890625 2.14257812 5.8278125 2.44140625 6.640625 C3.05652048 9.23872985 2.96483837 10.53254449 2 13 C1.34 13.66 0.68 14.32 0 15 C1.74816858 15.50636607 3.49862263 16.00484619 5.25 16.5 C6.22453125 16.7784375 7.1990625 17.056875 8.203125 17.34375 C11.27202798 18.06382779 13.83666054 18.58037425 16.75390625 17.125 C17.64916016 16.568125 17.64916016 16.568125 18.5625 16 C23.61153967 13.34360226 28.40879687 13.37782101 34 14 C35.19625 14.4125 36.3925 14.825 37.625 15.25 C41.40923333 16.09094074 41.7279693 15.85367378 44.9375 14.125 C49.97300294 11.51593112 54.81253314 11.71263815 60.32788086 11.97314453 C64.46589249 12.14183682 67.24636726 11.69684767 71 10 C78.45507087 8.83004362 84.7369775 10.9443695 90.79296875 15.28515625 C96.01993098 19.91843882 97.57802003 25.68444306 98.4375 32.4375 C97.52540411 39.86456652 94.9233436 46.23243076 89 51 C77.4770411 58.71249168 58.58944847 57.10082745 45.1875 58.125 C42.83785584 58.30814809 40.48824609 58.49173808 38.13867188 58.67578125 C32.42616815 59.12228644 26.71326288 59.56332178 21 60 C22.84560879 65.75277581 24.7011786 71.50228897 26.5625 77.25 C26.85690979 78.15918182 27.15131958 79.06836365 27.45465088 80.00509644 C31.89050504 93.67827069 36.43726918 107.31174591 41.05078125 120.92578125 C41.31108438 121.69406879 41.57138752 122.46235634 41.83957863 123.25392532 C44.47124955 131.01934665 47.10837936 138.78289076 49.75409603 146.54353809 C50.75454118 149.47967278 51.75274062 152.41656803 52.75055504 155.35359764 C53.22150671 156.73772099 53.69360223 158.12145571 54.16687965 159.50478554 C54.8175608 161.40664891 55.46430755 163.30985701 56.11083984 165.21313477 C56.47720551 166.28700943 56.84357117 167.36088409 57.22103882 168.46730042 C58 171 58 171 58 173 C45.13 173 32.26 173 19 173 C16.75183547 168.50367093 15.28785772 165.02522099 13.984375 160.29296875 C13.80817627 159.66022034 13.63197754 159.02747192 13.45043945 158.37554932 C12.87787607 156.31440901 12.31394039 154.25101455 11.75 152.1875 C11.34598301 150.7271273 10.94135242 149.26692423 10.53613281 147.80688477 C9.72432166 144.87920739 8.91552617 141.95072517 8.109375 139.02148438 C6.93133501 134.74457812 5.73215789 130.47377474 4.52905273 126.20385742 C0.10786321 110.50454733 -4.21587364 94.77780876 -8.55761719 79.05639648 C-8.83516342 78.05177872 -9.11270966 77.04716095 -9.39866638 76.01210022 C-9.92275145 74.11498884 -10.44658114 72.21780687 -10.97010803 70.32054138 C-11.43519691 68.63711917 -11.90154144 66.95404313 -12.36941528 65.27139282 C-12.77515322 63.80990762 -13.17720878 62.34739249 -13.57467651 60.88363647 C-14.46088793 57.66810556 -15.13469739 55.28357034 -17.5 52.875 C-21.29169746 48.51454792 -22.21156677 44.65043817 -23 39 C-27.4769293 42.73077442 -31.66578561 46.58590115 -35.71484375 50.77734375 C-37.6673447 52.67644297 -39.66014854 54.45033106 -41.72265625 56.2265625 C-46.18492039 60.10159123 -50.34772221 64.23524109 -54.5 68.4375 C-55.22703125 69.16904297 -55.9540625 69.90058594 -56.703125 70.65429688 C-58.47109499 72.43389824 -60.23666378 74.21580918 -62 76 C-64.01067037 71.97865926 -61.72516631 67.05515761 -60.41426086 62.9854126 C-54.74392804 48.55636907 -41.55951744 38.08285981 -30.60357666 27.59436035 C-28.02400335 25.11133718 -25.47352056 22.59950359 -22.92375469 20.08593369 C-17.66949961 14.90732306 -12.39775697 9.74579815 -7.07299805 4.63964844 C-6.1392485 3.74066833 -5.20549896 2.84168823 -4.24345398 1.91546631 C-2 0 -2 0 0 0 Z " fill="#696F7C" transform="translate(147,43)"/>
<path d="M0 0 C2.74526517 2.74526517 3.48898524 5.95106707 4.66699219 9.56274414 C5.05797844 10.73723618 5.05797844 10.73723618 5.4568634 11.93545532 C6.32580047 14.55020143 7.18623381 17.167669 8.046875 19.78515625 C8.66008992 21.63482918 9.27389075 23.48430796 9.88824463 25.33360291 C11.51886792 30.24649743 13.14259359 35.16164326 14.7645874 40.07739258 C17.30616581 47.7765884 19.85761111 55.47252284 22.40919495 63.16840744 C23.04308678 65.08089619 23.67658032 66.993517 24.30967712 68.90626907 C27.8275128 79.53325602 31.3764195 90.14834327 35.00585938 100.73779297 C35.32952106 101.68231418 35.65318275 102.62683538 35.98665237 103.59997845 C37.5258518 108.08719587 39.07036985 112.57250464 40.62200928 117.05543518 C41.17413866 118.65861135 41.7262437 120.2617959 42.27832031 121.86499023 C42.52577751 122.57456564 42.77323471 123.28414104 43.02819061 124.01521873 C43.25972084 124.68904406 43.49125107 125.36286938 43.72979736 126.05711365 C43.92806751 126.62915244 44.12633766 127.20119123 44.330616 127.79056454 C45.3505324 131.15700212 46.14686973 134.5874789 47 138 C34.13 138 21.26 138 8 138 C5.75183547 133.50367093 4.28785772 130.02522099 2.984375 125.29296875 C2.80817627 124.66022034 2.63197754 124.02747192 2.45043945 123.37554932 C1.87787607 121.31440901 1.31394039 119.25101455 0.75 117.1875 C0.34598301 115.7271273 -0.05864758 114.26692423 -0.46386719 112.80688477 C-1.27567834 109.87920739 -2.08447383 106.95072517 -2.890625 104.02148438 C-4.06871855 99.74438367 -5.26777666 95.4733406 -6.47143555 91.20336914 C-7.60255696 87.18503283 -8.7216415 83.16335882 -9.84228516 79.14208984 C-10.7467 75.90167028 -11.65676204 72.66285987 -12.56787109 69.42431641 C-14.06102995 64.11596654 -15.5471643 58.80568339 -17.02990723 53.49441528 C-17.63252959 51.3401923 -18.23741086 49.18659988 -18.84460449 47.03366089 C-19.70323064 43.98763717 -20.55365103 40.93942903 -21.40234375 37.890625 C-21.79555061 36.50627007 -21.79555061 36.50627007 -22.19670105 35.09394836 C-22.43463882 34.23311142 -22.6725766 33.37227448 -22.91772461 32.48535156 C-23.12755478 31.73690979 -23.33738495 30.98846802 -23.55357361 30.21734619 C-24.05413608 27.73111259 -24.17058506 25.52990643 -24 23 C-22.55053711 20.96704102 -22.55053711 20.96704102 -20.52734375 19.00390625 C-19.42422852 17.91819336 -19.42422852 17.91819336 -18.29882812 16.81054688 C-17.51958984 16.06869141 -16.74035156 15.32683594 -15.9375 14.5625 C-15.18533203 13.82451172 -14.43316406 13.08652344 -13.65820312 12.32617188 C-9.25050758 8.03296193 -4.71552814 3.95152491 0 0 Z " fill="#FEFEFE" transform="translate(158,78)"/>
<path d="M0 0 C1.14782559 3.44347676 0.8246995 4.38942738 -0.18066406 7.78637695 C-0.60856987 9.25565895 -0.60856987 9.25565895 -1.04512024 10.75462341 C-1.36538681 11.8217305 -1.68565338 12.88883759 -2.015625 13.98828125 C-2.34278 15.10336563 -2.669935 16.21845001 -3.00700378 17.36732483 C-4.07999923 21.01812854 -5.1649066 24.66527563 -6.25 28.3125 C-6.98661125 30.80980721 -7.72236656 33.30736705 -8.45727539 35.80517578 C-9.56765438 39.57788707 -10.67888122 43.35033195 -11.79359436 47.12176514 C-14.05165447 54.76177824 -16.28352658 62.40859892 -18.48046875 70.06640625 C-18.73802948 70.96323624 -18.99559021 71.86006622 -19.26095581 72.78407288 C-20.22116761 76.1293778 -21.18066497 79.47487607 -22.13562012 82.82168579 C-22.77374977 85.05643612 -23.41574576 87.29004078 -24.05859375 89.5234375 C-24.41236084 90.76013184 -24.76612793 91.99682617 -25.13061523 93.27099609 C-26 96 -26 96 -27 97 C-29.8116338 97.08861992 -32.59858255 97.11522355 -35.41015625 97.09765625 C-36.25219101 97.0962413 -37.09422577 97.09482635 -37.96177673 97.09336853 C-40.66205335 97.08775263 -43.36224828 97.07519748 -46.0625 97.0625 C-47.88867068 97.05748705 -49.71484266 97.05292379 -51.54101562 97.04882812 C-56.02737542 97.03777804 -60.51367384 97.02050279 -65 97 C-62.84188342 88.45517869 -60.11538242 80.1505363 -57.23876953 71.82788086 C-56.49588872 69.67558869 -55.76133545 67.52057196 -55.02734375 65.36523438 C-54.54997456 63.97639213 -54.07212693 62.58771421 -53.59375 61.19921875 C-53.16771484 59.96002686 -52.74167969 58.72083496 -52.30273438 57.4440918 C-49.65466342 50.44327903 -46.48528299 46.05493238 -41.20703125 40.87890625 C-40.54217209 40.21592026 -39.87731293 39.55293427 -39.19230652 38.86985779 C-37.78787574 37.47212873 -36.37986195 36.07799175 -34.96850586 34.68725586 C-32.82999686 32.57974326 -30.70218942 30.46190266 -28.57617188 28.34179688 C-27.20374182 26.97854541 -25.83071368 25.61589574 -24.45703125 24.25390625 C-23.51595268 23.3192025 -23.51595268 23.3192025 -22.55586243 22.36561584 C-18.73992815 18.60974775 -14.81436877 15.02580257 -10.75639343 11.53257751 C-6.72702999 8.01667288 -3.26283277 4.22959804 0 0 Z " fill="#FDFDFD" transform="translate(116,119)"/>
<path d="M0 0 C5.92643599 -0.12349116 11.85212529 -0.21428772 17.77954102 -0.2746582 C19.79627525 -0.29982071 21.81291813 -0.3339543 23.8293457 -0.37719727 C26.7263032 -0.43777325 29.62205661 -0.46619169 32.51953125 -0.48828125 C33.87435356 -0.52699089 33.87435356 -0.52699089 35.25654602 -0.56648254 C37.61071301 -0.56754014 39.7074149 -0.53635578 42 0 C43.96435547 2.45629883 43.96435547 2.45629883 45 5 C47.02569693 6.25467878 47.02569693 6.25467878 49.3125 7 C53.7078624 8.78539191 56.67313272 10.58996104 60 14 C60.65625 16.66015625 60.65625 16.66015625 61 19 C62.25296875 19.04898437 63.5059375 19.09796875 64.796875 19.1484375 C66.44793821 19.22348583 68.09897881 19.29903277 69.75 19.375 C70.9875 19.42140625 70.9875 19.42140625 72.25 19.46875 C73.04921875 19.50742187 73.8484375 19.54609375 74.671875 19.5859375 C75.4050293 19.6173584 76.13818359 19.6487793 76.89355469 19.68115234 C79.29567566 20.04475573 80.94435532 20.71114342 83 22 C84.0541657 24.78600935 84.09715921 26.52634886 83.5 29.4375 C79.37351616 36.4869099 72.5634244 39.62882997 65 42 C60.93053363 42.95387796 57.18248908 43.08200959 53 43 C52.75499756 43.63897217 52.50999512 44.27794434 52.25756836 44.9362793 C51 47 51 47 49.11938477 47.76098633 C42.76128407 48.49469327 39.21381241 47.15807147 33.9375 43.6875 C28.61178958 40.29936368 24.18067415 38.3639654 18 37 C13.87719608 34.38553898 10.87261236 30.77055244 7.78125 27.03515625 C6.09888449 24.9961778 6.09888449 24.9961778 4.21875 23.55859375 C1.64594016 21.33165694 0.14908467 19.47079336 -0.20498657 15.97770691 C-0.2521695 13.56105355 -0.22312024 11.15844524 -0.16015625 8.7421875 C-0.14859497 7.90228271 -0.13703369 7.06237793 -0.12512207 6.19702148 C-0.09502225 4.13114591 -0.04906489 2.06551217 0 0 Z " fill="#696F7C" transform="translate(0,0)"/>
<path d="M0 0 C0.99 0.495 0.99 0.495 2 1 C-1.13243449 8.60182993 -5.9473663 13.43884926 -11.796875 19.1171875 C-12.75625022 20.06399898 -13.71458725 21.01186346 -14.67193604 21.96072388 C-17.17544824 24.43781951 -19.68990278 26.90346805 -22.20782471 29.36590576 C-26.2538284 33.32511901 -30.28591778 37.29839586 -34.3119278 41.2779274 C-35.71874939 42.66428913 -37.13262634 44.04347949 -38.54656982 45.4225769 C-39.39455139 46.25749664 -40.24253296 47.09241638 -41.11621094 47.95263672 C-41.8680365 48.68795624 -42.61986206 49.42327576 -43.39447021 50.18087769 C-45.22057313 51.84553386 -45.22057313 51.84553386 -45 54 C-43.02 54.99 -41.04 55.98 -39 57 C-40.30900345 60.65500962 -42.56643994 62.2591846 -45.54541016 64.60253906 C-57.38127714 74.45154714 -60.70840356 89.01752984 -65.13327026 103.18002319 C-66.82361735 108.57244167 -68.77206623 113.8083593 -71 119 C-81.3018042 114.62173322 -88.77330286 109.58209678 -93.4375 99.125 C-96.84918272 89.24025854 -96.66361498 79.82135222 -93 70 C-88.2903618 61.36382503 -82.26629552 55.13337448 -72.890625 51.94140625 C-65.98430556 50.11755429 -60.01035357 49.68392991 -53 51 C-51.453125 51.2784375 -51.453125 51.2784375 -49.875 51.5625 C-49.25625 51.706875 -48.6375 51.85125 -48 52 C-47.7525 51.278125 -47.505 50.55625 -47.25 49.8125 C-45.19984817 45.19965839 -42.24573616 42.15386305 -38.4375 38.9375 C-34.45778374 35.53678481 -30.99698556 31.79325726 -27.49658203 27.90722656 C-19.63122826 19.22284483 -11.39077052 10.70920888 -2.35546875 3.234375 C-0.86110218 2.02236435 -0.86110218 2.02236435 0 0 Z " fill="#696F7C" transform="translate(123,93)"/>
<path d="M0 0 C9.9 0 19.8 0 30 0 C31.12521441 9.00171527 31.12521441 9.00171527 29.6015625 13.9609375 C29.12976563 15.53294922 29.12976563 15.53294922 28.6484375 17.13671875 C28.31070313 18.20535156 27.97296875 19.27398438 27.625 20.375 C27.295 21.46683594 26.965 22.55867188 26.625 23.68359375 C24.23028274 31.53943452 24.23028274 31.53943452 23 34 C23.99 34.33 24.98 34.66 26 35 C26.77403259 37.67630005 26.77403259 37.67630005 27 41 C25.26002502 43.58175659 25.26002502 43.58175659 22.61547852 46.17919922 C22.13769958 46.65800034 21.65992065 47.13680145 21.16766357 47.63011169 C19.58743742 49.20546856 17.98389478 50.75459988 16.37890625 52.3046875 C15.27736602 53.39316923 14.17736331 54.48320896 13.07884216 55.57473755 C10.18578408 58.44109036 7.27232539 61.28580343 4.35412598 64.12652588 C1.3790833 67.02991375 -1.57619914 69.95326244 -4.53320312 72.875 C-10.33630427 78.60306597 -16.16110701 84.30842389 -22 90 C-23 88 -23 88 -22.56425476 86.11599731 C-22.30159317 85.35084808 -22.03893158 84.58569885 -21.76831055 83.79736328 C-21.47437912 82.92951202 -21.18044769 82.06166077 -20.87760925 81.16751099 C-20.55061539 80.22793549 -20.22362152 79.28835999 -19.88671875 78.3203125 C-19.55710648 77.35600311 -19.2274942 76.39169373 -18.88789368 75.39816284 C-18.18765785 73.35423738 -17.48378943 71.31155342 -16.77661133 69.27001953 C-15.6953052 66.14753903 -14.62500409 63.02146075 -13.55664062 59.89453125 C-12.87564614 57.91123635 -12.19402588 55.92815619 -11.51171875 53.9453125 C-11.19079758 53.00978546 -10.8698764 52.07425842 -10.53923035 51.11038208 C-10.23584244 50.2362265 -9.93245453 49.36207092 -9.61987305 48.46142578 C-9.35482468 47.69468536 -9.08977631 46.92794495 -8.81669617 46.13796997 C-8.01338651 44.03504357 -7.00673789 42.01347577 -6 40 C-0.06 39.67 5.88 39.34 12 39 C10.35128906 38.50628906 8.70257813 38.01257812 7.00390625 37.50390625 C4.85672057 36.85693764 2.70958787 36.20979316 0.5625 35.5625 C-0.52611328 35.23701172 -1.61472656 34.91152344 -2.73632812 34.57617188 C-3.77080078 34.26357422 -4.80527344 33.95097656 -5.87109375 33.62890625 C-6.82943115 33.34088135 -7.78776855 33.05285645 -8.77514648 32.75610352 C-11 32 -11 32 -12 31 C-12.04080783 29.00041636 -12.04254356 26.99954746 -12 25 C-11.21665283 24.77779785 -10.43330566 24.5555957 -9.6262207 24.32666016 C-6.83370453 23.23764613 -6.83370453 23.23764613 -5.78979492 20.66162109 C-5.38917847 19.23197021 -5.38917847 19.23197021 -4.98046875 17.7734375 C-4.57284302 16.3800415 -4.57284302 16.3800415 -4.15698242 14.95849609 C-3.83705322 13.77594238 -3.51712402 12.59338867 -3.1875 11.375 C-2.135625 7.62125 -1.08375 3.8675 0 0 Z " fill="#696F7C" transform="translate(117,0)"/>
<path d="M0 0 C4.24431997 -0.61896333 7.62636431 -0.87225866 11.34375 1.48828125 C17.81573059 7.15126426 17.81573059 7.15126426 18.23828125 11.390625 C18.35685234 15.95873242 18.35092188 19.22797186 16.4375 23.4375 C10.5330662 29.64472528 4.77897499 30.6843136 -3.4375 31.265625 C-4.93410156 31.39031158 -4.93410156 31.39031158 -6.4609375 31.51751709 C-8.56821246 31.68987594 -10.67616446 31.85412707 -12.78466797 32.01074219 C-15.96359438 32.247291 -19.13977345 32.5080192 -22.31640625 32.7734375 C-33.24617299 33.65918312 -44.03509386 34.1998811 -55 34 C-57.475 26.575 -57.475 26.575 -60 19 C-62.78252349 19 -63.38040247 20.12664264 -65.3359375 22.0625 C-65.98820312 22.69414063 -66.64046875 23.32578125 -67.3125 23.9765625 C-68.68352463 25.32162075 -70.05074561 26.67056748 -71.4140625 28.0234375 C-72.06890625 28.65507813 -72.72375 29.28671875 -73.3984375 29.9375 C-73.99317871 30.52402344 -74.58791992 31.11054687 -75.20068359 31.71484375 C-77 33 -77 33 -81 33 C-83.25 30.5 -83.25 30.5 -85 28 C-84.57332031 27.64550781 -84.14664063 27.29101562 -83.70703125 26.92578125 C-76.75534157 21.00609499 -70.40692615 14.49482605 -64 8 C-58.54826499 12.17284275 -57.15174217 14.20472119 -56 21 C-54.35 21.33 -52.7 21.66 -51 22 C-49.82590116 18.60129282 -50.18677817 16.80569633 -51.5 13.5 C-52.79195994 10.24782497 -53.34139614 8.31743131 -52 5 C-48.08585139 2.69755964 -44.45778765 2.53884955 -40 3 C-35.19232365 4.86461242 -31.75894341 7.60612716 -29 12 C-28.15210346 14.32565909 -27.56899376 16.58177652 -27 19 C-25.35 19 -23.7 19 -22 19 C-22.49330865 11.26767987 -22.49330865 11.26767987 -25 4 C-21.51617223 1.38712918 -18.52700753 0.34002052 -14.125 0.5234375 C-9.93651482 1.4627669 -6.9092497 3.92987013 -4 7 C-2.56681345 9.34251871 -1.85102463 11.34680555 -1 14 C-0.505 15.485 -0.505 15.485 0 17 C1.65 17 3.3 17 5 17 C4.69343615 10.37822074 3.25711277 5.77874846 0 0 Z " fill="#535B65" transform="translate(219,61)"/>
<path d="M0 0 C4.98704856 -0.35480978 8.82919691 -0.58540154 13.375 1.6875 C17.53881973 5.35562691 20.19275226 8.72886077 22 14 C22.67095703 13.16855469 22.67095703 13.16855469 23.35546875 12.3203125 C27.74072196 7.06548883 30.35577557 4.41255371 37.3125 3.625 C43.18261858 4.22196121 47.37147406 6.28795991 51.4375 10.5625 C54.42751867 15.22692913 54.5978341 19.61949309 54 25 C50.20996664 38.21390009 35.47607482 49.17873731 24.26171875 55.96875 C22 57 22 57 18 57 C16.23852157 52.00586315 14.47876232 47.01112475 12.72045898 42.01586914 C12.12455425 40.32365352 11.52821445 38.63159102 10.93139648 36.93969727 C9.21294075 32.06760787 7.50284031 27.19273831 5.8057251 22.31317139 C5.27736824 20.79630172 4.74680459 19.28019854 4.21380615 17.76495361 C3.49290368 15.71176512 2.78214749 13.65534791 2.07421875 11.59765625 C1.67162842 10.43886963 1.26903809 9.28008301 0.85424805 8.08618164 C0.05784484 5.20897873 -0.18391801 2.96173807 0 0 Z " fill="#535B65" transform="translate(177,129)"/>
<path d="M0 0 C0.33 -0.66 0.66 -1.32 1 -2 C2.21895048 1.62537726 3.33582774 5.27494252 4.4375 8.9375 C4.95473633 10.46987305 4.95473633 10.46987305 5.48242188 12.03320312 C7.67689385 19.58122211 7.67689385 19.58122211 5.73876953 23.64355469 C-0.79830027 32.22116777 -9.30129709 38.17417346 -20 40 C-30.54639999 41.01631975 -40.57866777 38.54992507 -49 32 C-47.38905817 20.50525881 -44.04596965 11.66111592 -34.8125 4.0625 C-23.80759719 -2.83759925 -12.11411628 -3.20752015 0 0 Z " fill="#696F7C" transform="translate(153,175)"/>
<path d="M0 0 C11.88 0 23.76 0 36 0 C36 13.2 36 26.4 36 40 C21.64540059 43.18991098 21.64540059 43.18991098 15.8671875 39.71875 C6.18520738 31.91426412 2.08278472 20.94538293 0 9 C0 6.03 0 3.06 0 0 Z " fill="#696F7C" transform="translate(220,0)"/>
<path d="M0 0 C3.11451443 0.28313768 5.91527513 1.30897843 8.84765625 2.33203125 C16.09042166 4.76289767 23.52829815 6.53304641 30.93359375 8.39453125 C32.05636719 8.68714844 33.17914063 8.97976562 34.3359375 9.28125 C35.35220215 9.53970703 36.3684668 9.79816406 37.41552734 10.06445312 C40.07177244 11.02598073 41.16207454 11.92512699 43 14 C45.09718742 14.81633421 45.09718742 14.81633421 47.375 15.375 C51.69876822 16.74337037 54.31520743 18.18932667 57 22 C57.5625 25.625 57.5625 25.625 57 29 C54.56853215 31.68278235 52.89747456 32.01586446 49.2890625 32.57421875 C47.73534669 32.64089891 46.18010545 32.67626955 44.625 32.6875 C43.77663574 32.69458984 42.92827148 32.70167969 42.05419922 32.70898438 C32.09099552 32.44933406 22.6775748 29.64068919 13.18212891 26.84643555 C11.94897949 26.48461182 10.71583008 26.12278809 9.4453125 25.75 C8.34719238 25.41484375 7.24907227 25.0796875 6.11767578 24.734375 C3.01220765 23.87453733 3.01220765 23.87453733 -0.21533203 24.015625 C-3 24 -3 24 -6 22 C-3.89473684 3.89473684 -3.89473684 3.89473684 0 0 Z " fill="#696F7C" transform="translate(11,217)"/>
<path d="M0 0 C2.5625 1.625 2.5625 1.625 4.5625 3.625 C4.73796482 6.63808951 4.79377445 9.55810454 4.7578125 12.5703125 C4.7549826 13.4553244 4.75215271 14.3403363 4.74923706 15.25216675 C4.7380224 18.08491412 4.7129157 20.91734784 4.6875 23.75 C4.67747185 25.66796419 4.66834572 27.58593333 4.66015625 29.50390625 C4.63807889 34.21105876 4.60354045 38.91797616 4.5625 43.625 C2.00364774 44.63531065 -0.55890376 45.63340145 -3.125 46.625 C-3.84623047 46.91117188 -4.56746094 47.19734375 -5.31054688 47.4921875 C-9.14790321 48.9640502 -12.25316589 50.02114998 -16.4375 49.625 C-16.7675 47.315 -17.0975 45.005 -17.4375 42.625 C-16.4475 42.625 -15.4575 42.625 -14.4375 42.625 C-14.67460693 42.00455811 -14.91171387 41.38411621 -15.15600586 40.74487305 C-16.22965756 37.93433123 -17.30233961 35.1234203 -18.375 32.3125 C-18.74818359 31.33603516 -19.12136719 30.35957031 -19.50585938 29.35351562 C-19.86357422 28.41572266 -20.22128906 27.47792969 -20.58984375 26.51171875 C-20.91976318 25.64764404 -21.24968262 24.78356934 -21.58959961 23.89331055 C-23.85818853 17.82436161 -24.46783582 12.49909465 -22.25 6.3125 C-16.9082486 -1.60802793 -8.66250988 -3.46500395 0 0 Z " fill="#696F7C" transform="translate(251.4375,191.375)"/>
<path d="M0 0 C0.495 0.99 0.495 0.99 1 2 C1.8353125 2.1546875 1.8353125 2.1546875 2.6875 2.3125 C6.82811516 3.5434937 9.95287365 6.47690713 12.375 10 C13.12860024 12.41152078 13.13952346 14.48857781 13 17 C14.32 16.67 15.64 16.34 17 16 C17.495 18.475 17.495 18.475 18 21 C16.68 21 15.36 21 14 21 C13.8453125 21.804375 13.8453125 21.804375 13.6875 22.625 C11.92445524 28.71551827 9.28890744 32.44015846 4 36 C0.125 36.8125 0.125 36.8125 -3 37 C-3 38.98 -3 40.96 -3 43 C-3.99 43 -4.98 43 -6 43 C-6 41.02 -6 39.04 -6 37 C-6.99 37 -7.98 37 -9 37 C-7.83445193 30.9490696 -6.54656904 24.96533774 -5 19 C-5.78375 19.99 -6.5675 20.98 -7.375 22 C-8.24125 22.99 -9.1075 23.98 -10 25 C-10.66 25 -11.32 25 -12 25 C-12.226875 25.556875 -12.45375 26.11375 -12.6875 26.6875 C-15.89158947 32.33280049 -21.70465036 36.43533124 -26.484375 40.70703125 C-29.76977142 43.70163947 -32.89100185 46.82341494 -36 50 C-38.64 48.68 -41.28 47.36 -44 46 C-42.16276432 42.32552864 -40.76243632 40.51834987 -37.91748047 37.69042969 C-36.65639969 36.4295755 -36.65639969 36.4295755 -35.36984253 35.14324951 C-34.46146637 34.24519592 -33.55309021 33.34714233 -32.6171875 32.421875 C-31.68778351 31.4953009 -30.75837952 30.56872681 -29.80081177 29.61407471 C-27.3359615 27.15684211 -24.86516334 24.70567639 -22.39306641 22.2557373 C-19.86909235 19.75226191 -17.35080612 17.24307937 -14.83203125 14.734375 C-9.89356403 9.81732475 -4.948788 4.90666212 0 0 Z " fill="#696F7C" transform="translate(121,101)"/>
<path d="M0 0 C2.2699065 0.01195387 4.53982265 0.05613194 6.80859375 0.12890625 C7.95779297 0.13083984 9.10699219 0.13277344 10.29101562 0.13476562 C18.69574359 0.26770508 18.69574359 0.26770508 21.05175781 2.08154297 C22.57470818 4.13435056 22.96210947 5.87641278 23.43359375 8.37890625 C23.59214844 9.18714844 23.75070313 9.99539063 23.9140625 10.828125 C24.02363281 11.44300781 24.13320312 12.05789063 24.24609375 12.69140625 C26.22609375 12.69140625 28.20609375 12.69140625 30.24609375 12.69140625 C30.24609375 14.01140625 30.24609375 15.33140625 30.24609375 16.69140625 C28.26609375 16.69140625 26.28609375 16.69140625 24.24609375 16.69140625 C24.20484375 17.70203125 24.16359375 18.71265625 24.12109375 19.75390625 C23.43945925 24.54482302 20.77777913 27.53506908 17.24609375 30.69140625 C13.81110658 32.57247065 12.25186872 32.69140625 8.24609375 32.69140625 C8.24609375 34.67140625 8.24609375 36.65140625 8.24609375 38.69140625 C7.25609375 38.69140625 6.26609375 38.69140625 5.24609375 38.69140625 C5.24609375 36.71140625 5.24609375 34.73140625 5.24609375 32.69140625 C4.35921875 32.58828125 3.47234375 32.48515625 2.55859375 32.37890625 C-3.30110014 31.16274337 -6.33700632 28.5221958 -9.75390625 23.69140625 C-11.36292461 20.95607504 -11.75390625 19.9325511 -11.75390625 16.69140625 C-13.40390625 16.69140625 -15.05390625 16.69140625 -16.75390625 16.69140625 C-16.75390625 15.37140625 -16.75390625 14.05140625 -16.75390625 12.69140625 C-14.77390625 12.69140625 -12.79390625 12.69140625 -10.75390625 12.69140625 C-10.67140625 11.82515625 -10.58890625 10.95890625 -10.50390625 10.06640625 C-8.99584775 3.280143 -7.09492386 0.36509042 0 0 Z " fill="#676E7B" transform="translate(177.75390625,-0.69140625)"/>
<path d="M0 0 C0.53394179 1.4117783 1.05165104 2.82970244 1.5625 4.25 C1.85253906 5.03890625 2.14257812 5.8278125 2.44140625 6.640625 C3.08024302 9.33892857 2.93867428 10.4141391 2 13 C0.4150238 14.95246887 0.4150238 14.95246887 -1.65844727 17.01489258 C-2.43338028 17.79282669 -3.20831329 18.5707608 -4.00672913 19.37226868 C-4.85142258 20.20461533 -5.69611603 21.03696198 -6.56640625 21.89453125 C-7.43385971 22.76011154 -8.30131317 23.62569183 -9.1950531 24.51750183 C-11.03515273 26.35087345 -12.87884928 28.1806409 -14.72583008 30.00708008 C-17.53389378 32.78420892 -20.33135671 35.5716551 -23.12695312 38.36132812 C-24.91865411 40.14384928 -26.71095319 41.9257695 -28.50390625 43.70703125 C-29.749692 44.94644218 -29.749692 44.94644218 -31.02064514 46.21089172 C-35.32363353 50.46200903 -39.70218221 54.55893957 -44.28477478 58.50691223 C-46.36767899 60.32006118 -48.33695416 62.22309545 -50.28125 64.18359375 C-50.97734375 64.88291016 -51.6734375 65.58222656 -52.390625 66.30273438 C-53.08671875 67.00720703 -53.7828125 67.71167969 -54.5 68.4375 C-55.22703125 69.16904297 -55.9540625 69.90058594 -56.703125 70.65429688 C-58.47109499 72.43389824 -60.23666378 74.21580918 -62 76 C-64.01067037 71.97865926 -61.72516631 67.05515761 -60.41426086 62.9854126 C-54.74392804 48.55636907 -41.55951744 38.08285981 -30.60357666 27.59436035 C-28.02400335 25.11133718 -25.47352056 22.59950359 -22.92375469 20.08593369 C-17.66949961 14.90732306 -12.39775697 9.74579815 -7.07299805 4.63964844 C-6.1392485 3.74066833 -5.20549896 2.84168823 -4.24345398 1.91546631 C-2 0 -2 0 0 0 Z " fill="#FAFAFA" transform="translate(147,43)"/>
<path d="M0 0 C3.57900274 3.1856003 5.58201056 7.28599819 6.8125 11.875 C6.8125 14.185 6.8125 16.495 6.8125 18.875 C-10.6775 18.875 -28.1675 18.875 -46.1875 18.875 C-42.3336228 14.05765349 -41.67871596 13.24780399 -36.1875 11.875 C-36.166875 10.864375 -36.14625 9.85375 -36.125 8.8125 C-35.37898329 3.70435784 -32.18500534 0.87312901 -28.1875 -2.125 C-18.72312733 -7.65892038 -8.78076039 -5.85384026 0 0 Z " fill="#696F7C" transform="translate(149.1875,237.125)"/>
<path d="M0 0 C10.89 0 21.78 0 33 0 C29.48281356 4.10338418 26.16189686 7.96284248 22.37158203 11.74194336 C21.51114288 12.60230698 20.65070374 13.46267059 19.76419067 14.34910583 C18.85458588 15.25354935 17.94498108 16.15799286 17.0078125 17.08984375 C16.05209752 18.04368954 15.09660612 18.99775941 14.1413269 19.95204163 C11.64805084 22.44153194 9.15178475 24.92800224 6.65484619 27.41381836 C4.09878491 29.95957994 1.54561495 32.50823777 -1.0078125 35.05664062 C-6.00241019 40.04057069 -11.00017799 45.02131048 -16 50 C-17 48 -17 48 -16.56425476 46.11599731 C-16.30159317 45.35084808 -16.03893158 44.58569885 -15.76831055 43.79736328 C-15.47437912 42.92951202 -15.18044769 42.06166077 -14.87760925 41.16751099 C-14.55061539 40.22793549 -14.22362152 39.28835999 -13.88671875 38.3203125 C-13.55710648 37.35600311 -13.2274942 36.39169373 -12.88789368 35.39816284 C-12.18765785 33.35423738 -11.48378943 31.31155342 -10.77661133 29.27001953 C-9.6953052 26.14753903 -8.62500409 23.02146075 -7.55664062 19.89453125 C-6.87564614 17.91123635 -6.19402588 15.92815619 -5.51171875 13.9453125 C-5.03033699 12.54202194 -5.03033699 12.54202194 -4.53923035 11.11038208 C-4.23584244 10.2362265 -3.93245453 9.36207092 -3.61987305 8.46142578 C-3.35482468 7.69468536 -3.08977631 6.92794495 -2.81669617 6.13796997 C-2.01338651 4.03504357 -1.00673789 2.01347577 0 0 Z " fill="#FDFDFD" transform="translate(111,40)"/>
<path d="M0 0 C5.75 2.75 5.75 2.75 8 5 C10.04614084 5.09092257 10.04614084 5.09092257 12.3125 4.875 C15.68191095 4.81531639 16.91193784 4.95413429 20 6.5625 C22.62643937 9.76347299 22.92787 11.88859012 23 16 C21.02856758 22.58187226 15.69593265 26.9547419 9.8046875 30.21484375 C5.84140169 31.84988752 3.05516471 32.33241126 -1 31 C-5.61817011 26.23285666 -8.80240553 19.50969668 -10 13 C-9.78268657 9.57731347 -9.52839761 7.05679522 -8 4 C-5.67843403 3.59270772 -3.3431213 3.25561323 -1 3 C-0.67 2.01 -0.34 1.02 0 0 Z " fill="#696F7C" transform="translate(90,212)"/>
<path d="M0 0 C8.8913058 -0.4947249 16.54219973 -0.53318469 23.66015625 5.37890625 C25.0625 6.75 25.0625 6.75 27 9 C27.515625 8.54625 28.03125 8.0925 28.5625 7.625 C34.77306682 3.48462212 40.94283478 3.60729244 48 5 C53.49506518 6.90213795 56.75154177 10.30890349 60 15 C62.68284878 20.60959291 62.91677407 26.508573 61.34765625 32.484375 C59.02172157 38.91313867 55.48482982 43.89227715 51 49 C50.49984375 49.59425781 49.9996875 50.18851563 49.484375 50.80078125 C42.30854461 58.68332221 32.18702811 63.80886039 23 69 C22.34 66.69 21.68 64.38 21 62 C22.3921875 61.4740625 22.3921875 61.4740625 23.8125 60.9375 C36.89833061 55.22396832 48.22457322 45.64746333 55 33 C56.75138012 27.74585964 56.98290651 22.25175425 54.5 17.1875 C51.91026329 13.25256436 48.4247949 11.39468207 44 10 C38.76569768 9.36827386 35.38050721 10.04791906 31 13 C29.10699423 15.24171736 27.59125811 17.51950942 26 20 C23.46645752 18.73322876 23.30198565 17.74370327 22.1875 15.1875 C20.06052473 10.74236067 17.434214 8.217107 13 6 C11.29636178 5.77377919 9.58671299 5.59111527 7.875 5.4375 C6.96492187 5.35371094 6.05484375 5.26992187 5.1171875 5.18359375 C4.41851562 5.12300781 3.71984375 5.06242188 3 5 C2.67 5.66 2.34 6.32 2 7 C1.34 4.69 0.68 2.38 0 0 Z " fill="#696F7C" transform="translate(174,124)"/>
<path d="M0 0 C3.95390533 2.8564499 5.69023283 5.33138752 6.5859375 10.15625 C5.72206102 15.82327968 2.60725298 19.11645661 -1 23.4375 C-1.66773437 24.26443359 -2.33546875 25.09136719 -3.0234375 25.94335938 C-4.66757718 27.97504627 -6.32624455 29.99270171 -8 32 C-11.26488369 31.41787177 -12.90649106 30.47004122 -15.234375 28.12890625 C-15.80800781 27.55462891 -16.38164062 26.98035156 -16.97265625 26.38867188 C-17.55917969 25.78603516 -18.14570313 25.18339844 -18.75 24.5625 C-19.35199219 23.96373047 -19.95398438 23.36496094 -20.57421875 22.74804688 C-25 18.26706881 -25 18.26706881 -25 16 C-25.66 16 -26.32 16 -27 16 C-27.4921875 13.86328125 -27.4921875 13.86328125 -27 11 C-24.65652147 8.63815064 -21.92979003 6.95583984 -19.125 5.1875 C-18.39796875 4.68541016 -17.6709375 4.18332031 -16.921875 3.66601562 C-11.50935286 0.17636319 -6.44024588 -1.39623624 0 0 Z " fill="#535B65" transform="translate(33,0)"/>
<path d="M0 0 C2.8695461 1.48444951 4.50407212 3.13797949 6 6 C7.01383908 10.92772946 6.80197941 14.67258581 4.1875 19 C1.29409109 21.64540244 -0.36310773 22.92789899 -4.3125 23.375 C-8.6426687 22.93464386 -10.68146743 21.76544381 -14 19 C-14.33 18.01 -14.66 17.02 -15 16 C-15.66 16 -16.32 16 -17 16 C-17.2475 16.598125 -17.495 17.19625 -17.75 17.8125 C-19.23611853 20.41320743 -20.37949839 21.54416577 -23 23 C-24.98 23 -26.96 23 -29 23 C-29 16.4 -29 9.8 -29 3 C-21.125 3 -21.125 3 -17 7 C-16.13375 5.824375 -16.13375 5.824375 -15.25 4.625 C-11.05154268 -0.2732002 -6.23463722 -1.18447339 0 0 Z " fill="#555D67" transform="translate(29,58)"/>
<path d="M0 0 C0.33 0 0.66 0 1 0 C1 4.95 1 9.9 1 15 C1.66 15 2.32 15 3 15 C3.33 13.68 3.66 12.36 4 11 C7.11877121 13.75491457 7.95901686 16.3668048 9.15625 20.2578125 C9.4346875 20.83273438 9.713125 21.40765625 10 22 C10.99 22.33 11.98 22.66 13 23 C13 23.66 13 24.32 13 25 C12.34 25 11.68 25 11 25 C11.90512957 29.6649014 11.90512957 29.6649014 14.5625 33.375 C16.66464808 35.75134131 16.29717878 37.57993452 16.1875 40.6875 C16.16042969 41.68136719 16.13335937 42.67523438 16.10546875 43.69921875 C16.07066406 44.45847656 16.03585938 45.21773437 16 46 C8.5982761 44.51297195 3.27598431 39.84296035 -1 33.8125 C-6.0064405 26.26807231 -5.88868711 17.81137581 -5 9 C-3.95598535 5.52153301 -2.62240677 2.62240677 0 0 Z " fill="#535B65" transform="translate(38,161)"/>
<path d="M0 0 C0.33 -0.66 0.66 -1.32 1 -2 C1 7.57 1 17.14 1 27 C-14.40401146 18.19770774 -14.40401146 18.19770774 -17 9 C-17.20380303 5.32497109 -16.80024031 2.18130713 -14.6875 -0.9375 C-9.69785588 -4.07912778 -4.78353895 -3.18902596 0 0 Z " fill="#696F7C" transform="translate(255,155)"/>
<path d="M0 0 C1.6744239 0.6469365 3.34302621 1.30959426 5 2 C5 1.34 5 0.68 5 0 C9.75 0.875 9.75 0.875 12 2 C12 3.65 12 5.3 12 7 C12.99 7 13.98 7 15 7 C14.44561128 10.72581831 13.08115582 12.04804706 10.25 14.4375 C5.6332643 18.7749314 4.12174719 23.33583279 2.3984375 29.33984375 C1 32 1 32 -1.9609375 32.94140625 C-5 33 -5 33 -8 32 C-9.485 32.495 -9.485 32.495 -11 33 C-12.32 31.68 -13.64 30.36 -15 29 C-13.35 28.67 -11.7 28.34 -10 28 C-11.39195915 25.2160817 -13.15575779 25.02101003 -16 24 C-16 23.34 -16 22.68 -16 22 C-13 20 -13 20 -10.6875 19.4375 C-6.90534464 20.22911391 -5.62129886 22.38115321 -3.33203125 25.37109375 C-2.07775666 27.13166095 -2.07775666 27.13166095 0 28 C-0.350625 27.46375 -0.70125 26.9275 -1.0625 26.375 C-2.33302894 23.15632669 -1.98013473 21.29045231 -1 18 C1.0625 16.125 1.0625 16.125 3 15 C2.67 14.34 2.34 13.68 2 13 C2.33 12.34 2.66 11.68 3 11 C3.99 11 4.98 11 6 11 C6 10.34 6 9.68 6 9 C5.01 9 4.02 9 3 9 C3 8.34 3 7.68 3 7 C2.29875 7.144375 1.5975 7.28875 0.875 7.4375 C-2.07556141 8.01478375 -5.03270151 8.51695141 -8 9 C-8 8.01 -8 7.02 -8 6 C-5 3.8125 -5 3.8125 -2 2 C-3.32 1.34 -4.64 0.68 -6 0 C-3.43417606 -1.28291197 -2.6963913 -0.84743727 0 0 Z " fill="#545C66" transform="translate(62,149)"/>
<path d="M0 0 C3.30444034 0.30040367 5.59438344 0.75038981 8.4375 2.5 C10.37020575 5.5923292 10.255573 7.73079373 9.6875 11.28125 C6.29230769 24.70769231 6.29230769 24.70769231 2 29 C-2.06405122 28.67459897 -4.89974062 27.07616254 -8.3125 24.9375 C-9.19550781 24.38964844 -10.07851563 23.84179688 -10.98828125 23.27734375 C-11.65214844 22.85582031 -12.31601562 22.43429688 -13 22 C-12.40874565 18.93349441 -11.52239443 17.08144409 -9.53125 14.6875 C-9.04269531 14.08679687 -8.55414063 13.48609375 -8.05078125 12.8671875 C-6.5 11 -6.5 11 -4.94921875 9.1328125 C-4.21638672 8.23175781 -4.21638672 8.23175781 -3.46875 7.3125 C-3.01951172 6.77238281 -2.57027344 6.23226563 -2.10742188 5.67578125 C-0.87150719 3.80556114 -0.42195334 2.18843597 0 0 Z " fill="#535B65" transform="translate(45,13)"/>
<path d="M0 0 C8.23427332 0.79175705 8.23427332 0.79175705 11 4 C11.76595884 7.21702712 11.40178119 9.19497126 9.9296875 12.14453125 C5.7437544 18.85803597 -0.19142824 25.73633628 -7.8203125 28.56640625 C-17.62387132 30.51657655 -25.77187102 29.48541932 -34 24 C-33.50769231 16.61538462 -33.50769231 16.61538462 -30.9375 13.5 C-30.298125 13.005 -29.65875 12.51 -29 12 C-28.74605469 12.54269531 -28.49210937 13.08539063 -28.23046875 13.64453125 C-27.88628906 14.35996094 -27.54210937 15.07539063 -27.1875 15.8125 C-26.85105469 16.52019531 -26.51460938 17.22789062 -26.16796875 17.95703125 C-24.36130633 21.1171799 -22.66049085 22.68548055 -19.375 24.25 C-13.9674956 25.45166765 -9.17162621 24.99139457 -4.125 22.6875 C-0.36052174 19.69806138 1.1006822 17.51181566 1.8125 12.75 C2.21278177 8.108271 1.36896797 4.42901401 0 0 Z " fill="#545C66" transform="translate(145,180)"/>
<path d="M0 0 C3.04354203 6.08708407 0.42852014 15.01791882 -1.59375 21.19921875 C-2.80804211 24.69792965 -4.09747513 28.16462298 -5.40625 31.62890625 C-6.57758146 34.73385384 -7.51430861 37.70134599 -8 41 C-8.99 41 -9.98 41 -11 41 C-11.09924823 36.12538525 -11.17164581 31.25136503 -11.21972656 26.37597656 C-11.23978009 24.71929675 -11.26703029 23.06268718 -11.30175781 21.40625 C-11.35055512 19.01805242 -11.37303064 16.63079453 -11.390625 14.2421875 C-11.41127014 13.50757294 -11.43191528 12.77295837 -11.45318604 12.01608276 C-11.45541026 6.86070394 -10.26483828 3.95924252 -7 0 C-4.30234372 -1.34882814 -2.84835666 -0.80338265 0 0 Z " fill="#696F7C" transform="translate(11,154)"/>
<path d="M0 0 C2.19348227 4.18916736 3.97287768 8.20336749 4 13 C2.58081231 15.99347389 0.51728082 18.11285651 -1.8125 20.4375 C-2.94485851 21.64373566 -4.07640812 22.85073134 -5.20703125 24.05859375 C-5.7172583 24.57736084 -6.22748535 25.09612793 -6.75317383 25.63061523 C-8.11286538 26.99949062 -8.11286538 26.99949062 -9 29 C-14.04969516 28.55443866 -16.47618687 26.44186399 -20 23 C-20 20 -20 20 -18.0625 17.9375 C-17.61519531 17.51726562 -17.16789062 17.09703125 -16.70703125 16.6640625 C-14.45378747 14.46753652 -12.35934585 12.14724644 -10.25 9.8125 C-9.08210937 8.52279297 -9.08210937 8.52279297 -7.890625 7.20703125 C-5.97415522 5.15018771 -5.97415522 5.15018771 -5 3 C-3.35857037 1.9590934 -1.69287785 0.95495674 0 0 Z " fill="#696F7C" transform="translate(143,139)"/>
<path d="M0 0 C3.72228608 2.25035546 6.31013587 4.7702422 8.4375 8.5625 C9 11 9 11 9 16 C5.04 16 1.08 16 -3 16 C-3.66 14.68 -4.32 13.36 -5 12 C-7.51743517 10.68509277 -7.51743517 10.68509277 -10.4375 9.8125 C-11.40558594 9.48894531 -12.37367187 9.16539062 -13.37109375 8.83203125 C-14.23863281 8.55746094 -15.10617188 8.28289062 -16 8 C-16.99 7.67 -17.98 7.34 -19 7 C-19 6.34 -19 5.68 -19 5 C-18.34 5 -17.68 5 -17 5 C-17 4.34 -17 3.68 -17 3 C-11.31475483 -0.60943358 -6.57458587 -2.23865827 0 0 Z " fill="#535B65" transform="translate(140,240)"/>
<path d="M0 0 C0.66 0.33 1.32 0.66 2 1 C-1.18580306 8.85939232 -6.46644831 13.98501274 -12.453125 19.84375 C-13.47961495 20.86276627 -14.50521547 21.88267919 -15.52996826 22.90344238 C-18.21069999 25.56900652 -20.90322765 28.2223301 -23.59851074 30.87316895 C-26.35424172 33.58775441 -29.09848163 36.3139038 -31.84375 39.0390625 C-37.21807217 44.37067073 -42.60492609 49.68938272 -48 55 C-48.33 54.34 -48.66 53.68 -49 53 C-46.70876746 46.12630237 -42.36823331 42.19954901 -37.03662109 37.56494141 C-33.29880303 34.3027853 -30.04516806 30.84211934 -26.8190918 27.07470703 C-23.72204886 23.54247365 -20.39263625 20.24836834 -17.0625 16.9375 C-16.39798828 16.26912109 -15.73347656 15.60074219 -15.04882812 14.91210938 C-11.03209318 10.90316635 -6.90351537 7.10582817 -2.56420898 3.44750977 C-0.88532167 2.06457917 -0.88532167 2.06457917 0 0 Z " fill="#F6F6F7" transform="translate(123,93)"/>
<path d="M0 0 C3.93344966 0.5363795 5.19022886 2.42141791 7.75 5.375 C8.554375 6.1175 9.35875 6.86 10.1875 7.625 C11.91969356 10.67366066 11.91594471 11.16670962 11.25 14.4375 C10.78558514 16.09372649 10.28078011 17.7388338 9.75 19.375 C9.40710938 20.4475 9.06421875 21.52 8.7109375 22.625 C7.75138702 25.55197414 6.76381029 28.46644718 5.75 31.375 C3.82274711 28.48412067 2.25883052 25.59633187 0.6875 22.5 C0.16027344 21.47132812 -0.36695312 20.44265625 -0.91015625 19.3828125 C-2.90456833 14.90556089 -3.38957815 10.99410326 -3.375 6.125 C-3.37757812 5.25359375 -3.38015625 4.3821875 -3.3828125 3.484375 C-3.19758704 0.54255889 -2.90162455 0.48360409 0 0 Z " fill="#696F7C" transform="translate(93.25,44.625)"/>
<path d="M0 0 C3.03209857 3.46779602 4.31860236 7.30738933 5.6875 11.625 C5.91244141 12.305625 6.13738281 12.98625 6.36914062 13.6875 C8 18.70400361 8 18.70400361 8 21 C2.39 21 -3.22 21 -9 21 C-11.62959077 14.42602308 -11.62959077 14.42602308 -11 11 C-9.21336981 8.8508231 -7.53604497 7.06096153 -5.5 5.1875 C-4.97535156 4.68541016 -4.45070312 4.18332031 -3.91015625 3.66601562 C-2.61777468 2.43237867 -1.31030401 1.21458375 0 0 Z " fill="#696F7C" transform="translate(214,235)"/>
<path d="M0 0 C0.93139648 2.52587891 0.93139648 2.52587891 1 6 C-0.89474543 8.92314955 -3.38450307 11.19710574 -5.90234375 13.5859375 C-6.61403214 14.28772125 -7.32572052 14.989505 -8.05897522 15.71255493 C-10.33592378 17.95031808 -12.63598858 20.16253444 -14.9375 22.375 C-16.4853097 23.88770207 -18.0315546 25.40200705 -19.57617188 26.91796875 C-23.36615326 30.63076982 -27.17540573 34.32288219 -31 38 C-32 36 -32 36 -31.68408203 34.09619141 C-28.81412603 25.60874687 -22.99572473 20.21512182 -16.69970703 14.13720703 C-14.85789884 12.35848459 -13.03902861 10.55856323 -11.22265625 8.75390625 C-10.06374936 7.61331252 -8.90363649 6.47394254 -7.7421875 5.3359375 C-7.19634003 4.79858978 -6.65049255 4.26124207 -6.08810425 3.70761108 C-2.23458384 0 -2.23458384 0 0 0 Z " fill="#686E7B" transform="translate(210,217)"/>
<path d="M0 0 C4 4.5 4 4.5 4 9 C2.05859375 11.11328125 2.05859375 11.11328125 -0.5625 13.3125 C-4.91203067 17.04950786 -8.98999176 20.90281767 -13 25 C-15.64 23.68 -18.28 22.36 -21 21 C-14 14 -7 7 0 0 Z " fill="#545C66" transform="translate(98,126)"/>
<path d="M0 0 C-7.92 7.92 -15.84 15.84 -24 24 C-25 22 -25 22 -24.37915039 19.75341797 C-24.03875732 18.84221191 -23.69836426 17.93100586 -23.34765625 16.9921875 C-22.98349609 16.00605469 -22.61933594 15.01992187 -22.24414062 14.00390625 C-21.85419922 12.97136719 -21.46425781 11.93882812 -21.0625 10.875 C-20.48338867 9.31458984 -20.48338867 9.31458984 -19.89257812 7.72265625 C-18.93513499 5.14583399 -17.97068496 2.57185712 -17 0 C-14.72979256 -0.19493195 -12.45879711 -0.38070418 -10.1875 -0.5625 C-8.92292969 -0.66691406 -7.65835938 -0.77132812 -6.35546875 -0.87890625 C-3 -1 -3 -1 0 0 Z " fill="#686F7C" transform="translate(208,216)"/>
<path d="M0 0 C1.84375 0.66796875 1.84375 0.66796875 3.90625 2.79296875 C5.12049865 6.51666462 4.82173899 8.8957255 3.84375 12.66796875 C2.65625 14.60546875 2.65625 14.60546875 0.84375 15.66796875 C-3.06029583 16.08329277 -5.8580281 15.86678335 -9.15625 13.66796875 C-10.76069499 10.45907877 -10.62998865 7.14891799 -10.15625 3.66796875 C-7.56404326 -0.76038443 -4.6974322 -0.88515047 0 0 Z " fill="#696F7C" transform="translate(29.15625,61.33203125)"/>
<path d="M0 0 C2.9375 1.9375 2.9375 1.9375 5 5 C5.62418198 8.12638517 5.64869118 10.87667209 5 14 C3.3125 16.125 3.3125 16.125 1 17 C-3.41025641 16.58974359 -3.41025641 16.58974359 -5 15 C-5.04063832 13.33382885 -5.042721 11.66611905 -5 10 C-4.01 10 -3.02 10 -2 10 C-2.33 11.65 -2.66 13.3 -3 15 C-1.35 14.34 0.3 13.68 2 13 C1.855625 11.700625 1.71125 10.40125 1.5625 9.0625 C1.44068359 7.96615234 1.44068359 7.96615234 1.31640625 6.84765625 C1.18113386 4.98859771 1.18113386 4.98859771 0 4 C-3.37357334 3.49929679 -3.37357334 3.49929679 -7 4 C-11.10118291 7.88533118 -11.84775591 10.94470473 -12.25 16.375 C-11.96195624 20.55163454 -11.52050718 22.63932376 -9 26 C-6.08230952 27.37607388 -3.13250348 28.25135137 0 29 C0 29.33 0 29.66 0 30 C-3.10457569 30.4346406 -5.90928194 30.5889479 -9 30 C-12.6148103 27.16616723 -15.69306481 23.3078418 -16.30859375 18.6796875 C-16.60737207 12.17899564 -15.82075539 8.56489714 -11.60546875 3.55859375 C-7.80450486 -0.13139309 -5.18051306 -0.62523433 0 0 Z " fill="#555C67" transform="translate(77,85)"/>
<path d="M0 0 C0.33 0 0.66 0 1 0 C1 7.92 1 15.84 1 24 C-6.63636364 22.72727273 -6.63636364 22.72727273 -9 20 C-9.65880498 14.91779017 -8.99198332 12.08904387 -6 8 C-5.505 7.31164062 -5.01 6.62328125 -4.5 5.9140625 C-1.53908587 1.85704074 -1.53908587 1.85704074 0 0 Z " fill="#696F7C" transform="translate(255,109)"/>
<path d="M0 0 C6.19047619 3.71428571 6.19047619 3.71428571 8 8 C8.72593424 14.4297033 7.7192318 17.73108829 4 23 C2.68 23.99 1.36 24.98 0 26 C0 17.42 0 8.84 0 0 Z " fill="#696F7C" transform="translate(0,27)"/>
<path d="M0 0 C2.52242315 1.26121158 2.67086617 2.14297873 3.7265625 4.7109375 C4.0359375 5.46117188 4.3453125 6.21140625 4.6640625 6.984375 C4.98117188 7.77328125 5.29828125 8.5621875 5.625 9.375 C5.94984375 10.15617187 6.2746875 10.93734375 6.609375 11.7421875 C9 17.60825893 9 17.60825893 9 21 C7 23 7 23 4.625 23.5 C2 23 2 23 -0.3125 20.625 C-2.89257471 15.08261729 -2.93150261 9.79450783 -1 4 C-0.67 3.34 -0.34 2.68 0 2 C0 1.34 0 0.68 0 0 Z " fill="#545C66" transform="translate(31,97)"/>
<path d="M0 0 C0 0.33 0 0.66 0 1 C-0.59167969 1.15855469 -1.18335937 1.31710938 -1.79296875 1.48046875 C-7.0572756 3.03485625 -10.67430936 4.40272176 -14 9 C-19.2668079 20.21595529 -17.72905533 32.60029718 -14 44 C-13.65500725 45.3303642 -13.31735993 46.66277468 -13 48 C-15.53816868 45.73740392 -16.80410385 43.62022714 -18.125 40.5 C-18.45757812 39.7265625 -18.79015625 38.953125 -19.1328125 38.15625 C-22.1152884 30.74036397 -22.4454555 20.00610831 -19.8125 12.375 C-15.03812041 3.48477593 -10.18835824 -0.51805211 0 0 Z " fill="#565D68" transform="translate(69,75)"/>
<path d="M0 0 C0.66 1.32 1.32 2.64 2 4 C-5.92 11.92 -13.84 19.84 -22 28 C-22.66 27.01 -23.32 26.02 -24 25 C-22.56476266 21.71893495 -20.79474921 19.54874414 -18.26171875 17.03125 C-17.52373047 16.29519531 -16.78574219 15.55914062 -16.02539062 14.80078125 C-14.86813477 13.66189453 -14.86813477 13.66189453 -13.6875 12.5 C-12.92759766 11.74074219 -12.16769531 10.98148438 -11.38476562 10.19921875 C-7.7379686 6.58093708 -4.11751735 3.09019266 0 0 Z " fill="#F3F3F4" transform="translate(153,64)"/>
<path d="M0 0 C7.8140752 0.59336828 15.02892377 2.457101 22.5625 4.5625 C23.76197266 4.89185547 24.96144531 5.22121094 26.19726562 5.56054688 C29.13323933 6.36764722 32.06734878 7.18092529 35 8 C35 9.32 35 10.64 35 12 C27.58068882 10.61400866 20.29655755 8.86233001 13 6.9375 C11.96488281 6.66873047 10.92976563 6.39996094 9.86328125 6.12304688 C2.2612251 4.13061255 2.2612251 4.13061255 0 3 C0 2.01 0 1.02 0 0 Z " fill="#565D68" transform="translate(14,223)"/>
<path d="M0 0 C5.61 0 11.22 0 17 0 C14.14556465 5.70887071 9.76991757 7.57473245 4 10 C1.40934399 10.43473337 -0.37527126 10.34996383 -3 10 C-2.36738317 6.30973516 -1.42909641 3.57274103 0 0 Z " fill="#545C66" transform="translate(60,26)"/>
<path d="M0 0 C3.6875 0.375 3.6875 0.375 6.25 2.4375 C7.6875 5.375 7.6875 5.375 7 9.125 C5.6875 12.375 5.6875 12.375 4.6875 13.375 C2.875 13.5078125 2.875 13.5078125 0.6875 13.5 C-0.034375 13.50257812 -0.75625 13.50515625 -1.5 13.5078125 C-3.3125 13.375 -3.3125 13.375 -4.3125 12.375 C-4.41101171 10.54384117 -4.44222629 8.70880067 -4.4375 6.875 C-4.44007813 5.8746875 -4.44265625 4.874375 -4.4453125 3.84375 C-4.2423136 0.07035871 -3.87555057 0.43874157 0 0 Z " fill="#696F7C" transform="translate(4.3125,63.625)"/>
<path d="M0 0 C0.66 0 1.32 0 2 0 C2 0.66 2 1.32 2 2 C2.99 2 3.98 2 5 2 C5 1.34 5 0.68 5 0 C6.9375 0.3125 6.9375 0.3125 9 1 C10 4 10 4 9.0625 6.1875 C8.711875 6.785625 8.36125 7.38375 8 8 C8.66 8.33 9.32 8.66 10 9 C8.625 11 8.625 11 7 13 C6.34 13 5.68 13 5 13 C5 12.01 5 11.02 5 10 C3.35 10.66 1.7 11.32 0 12 C-0.99 11.01 -1.98 10.02 -3 9 C-2.34 8.67 -1.68 8.34 -1 8 C-1 7.01 -1 6.02 -1 5 C-1.66 5 -2.32 5 -3 5 C-1.125 1.125 -1.125 1.125 0 0 Z " fill="#555D67" transform="translate(181,8)"/>
<path d="M0 0 C-4.97161218 6.01826738 -10.29829243 11.66337352 -16 17 C-16.33 17 -16.66 17 -17 17 C-17.60775408 12.13796733 -17.1653883 9.69432764 -14.25 5.6875 C-10.09540172 0.34737241 -6.67283624 -0.25664755 0 0 Z " fill="#535B65" transform="translate(149,67)"/>
<path d="M0 0 C1.9375 1.6875 1.9375 1.6875 3 4 C2.75925978 7.37036311 2.41201979 8.58798021 0 11 C-3.5 11.3125 -3.5 11.3125 -7 11 C-9 8 -9 8 -8.75 4.375 C-8.5025 3.26125 -8.255 2.1475 -8 1 C-5.17116253 -0.41441874 -3.12623255 -0.31900332 0 0 Z " fill="#535B65" transform="translate(129,185)"/>
<path d="M0 0 C0.33 0.99 0.66 1.98 1 3 C2.65 2.34 4.3 1.68 6 1 C8.09350689 4.4019487 8.17942163 7.05272412 8 11 C6.02 11.99 6.02 11.99 4 13 C2 9.25 2 9.25 2 7 C1.01 8.32 0.02 9.64 -1 11 C-1.99 10.67 -2.98 10.34 -4 10 C-4 9.34 -4 8.68 -4 8 C-3.34 8 -2.68 8 -2 8 C-2 7.34 -2 6.68 -2 6 C-2.66 6 -3.32 6 -4 6 C-2.25 1.125 -2.25 1.125 0 0 Z " fill="#58606A" transform="translate(114,113)"/>
<path d="M0 0 C1.98 0 3.96 0 6 0 C4.39112383 6.2892432 1.32988263 9.44674491 -4 13 C-5.32 13 -6.64 13 -8 13 C-8.375 10.75 -8.375 10.75 -8 8 C-6.04690112 6.59886384 -4.04291182 5.26660533 -2 4 C-0.61131484 1.89960669 -0.61131484 1.89960669 0 0 Z " fill="#545C66" transform="translate(194,16)"/>
<path d="M0 0 C2.25 -0.375 2.25 -0.375 5 0 C6.40113616 1.95309888 7.73339467 3.95708818 9 6 C11.10039331 7.38868516 11.10039331 7.38868516 13 8 C13 9.65 13 11.3 13 13 C9.64644834 13 7.59074465 12.51528026 5.04296875 10.29296875 C0 4.75700102 0 4.75700102 0 0 Z " fill="#535B65" transform="translate(170,16)"/>
<path d="M0 0 C1.65 0 3.3 0 5 0 C5 3.35355166 4.51528026 5.40925535 2.29296875 7.95703125 C-3.24299898 13 -3.24299898 13 -8 13 C-8.375 10.75 -8.375 10.75 -8 8 C-6.04690112 6.59886384 -4.04291182 5.26660533 -2 4 C-0.61131484 1.89960669 -0.61131484 1.89960669 0 0 Z " fill="#535B65" transform="translate(126,122)"/>
<path d="M0 0 C4.58667523 0.27798032 7.24498018 2.33918506 10.55078125 5.30078125 C12.61026175 7.71553602 12.92573929 9.88105014 13 13 C10.75 13.375 10.75 13.375 8 13 C6.59886384 11.04690112 5.26660533 9.04291182 4 7 C1.89960669 5.61131484 1.89960669 5.61131484 0 5 C0 3.35 0 1.7 0 0 Z " fill="#535B65" transform="translate(118,105)"/>
<path d="M0 0 C0 1.65 0 3.3 0 5 C-0.763125 5.226875 -1.52625 5.45375 -2.3125 5.6875 C-5.20546554 6.78832459 -5.20546554 6.78832459 -6.5 9.625 C-7.2425 10.800625 -7.2425 10.800625 -8 12 C-10.6875 12.3125 -10.6875 12.3125 -13 12 C-12.76064014 6.97344297 -11.27236889 4.44725097 -7.69921875 1.125 C-5.12670363 -0.57818242 -2.97748067 -0.42535438 0 0 Z " fill="#535B66" transform="translate(183,0)"/>
<path d="M0 0 C0.99 0.495 0.99 0.495 2 1 C1.01 1.495 1.01 1.495 0 2 C0 1.34 0 0.68 0 0 Z M-1 2 C0.32 2.66 1.64 3.32 3 4 C2.21753906 4.91523438 1.43507812 5.83046875 0.62890625 6.7734375 C-0.39333531 7.97386795 -1.41546493 9.17439374 -2.4375 10.375 C-2.95376953 10.97828125 -3.47003906 11.5815625 -4.00195312 12.203125 C-6.78632294 15.40448704 -6.78632294 15.40448704 -9 19 C-9.66 19 -10.32 19 -11 19 C-11.15114765 12.04720829 -7.59414993 8.82008518 -2.93359375 3.94140625 C-2.29550781 3.30074219 -1.65742188 2.66007813 -1 2 Z M-15 17 C-14.01 17.495 -14.01 17.495 -13 18 C-13.66 18.66 -14.32 19.32 -15 20 C-15 19.01 -15 18.02 -15 17 Z " fill="#666C79" transform="translate(138,142)"/>
<path d="M0 0 C4.41186874 0.17647475 7.21790677 0.75324258 10.4375 3.75 C12.49837191 6.01313254 12.9666088 6.74400077 13.375 9.875 C13.25125 10.57625 13.1275 11.2775 13 12 C10.6875 12.3125 10.6875 12.3125 8 12 C6.94228261 10.36935236 5.94726954 8.69719127 5 7 C4.113125 6.484375 3.22625 5.96875 2.3125 5.4375 C1.549375 4.963125 0.78625 4.48875 0 4 C0 2.68 0 1.36 0 0 Z " fill="#545C66" transform="translate(186,0)"/>
<path d="M0 0 C-4.95 4.95 -9.9 9.9 -15 15 C-16 12 -16 12 -14.4375 8.625 C-11.09175795 3.12259496 -6.6462162 -1.66155405 0 0 Z " fill="#666C79" transform="translate(114,103)"/>
<path d="M0 0 C1.98 0 3.96 0 6 0 C6 4.95 6 9.9 6 15 C0.03448276 9.03448276 0.03448276 9.03448276 -0.0625 3.3125 C-0.041875 2.219375 -0.02125 1.12625 0 0 Z " fill="#545C66" transform="translate(250,0)"/>
<path d="M0 0 C2.31 0.33 4.62 0.66 7 1 C6.17079137 6.80446041 3.4809952 10.35867307 0 15 C0 10.05 0 5.1 0 0 Z " fill="#545C66" transform="translate(0,82)"/>
<path d="M0 0 C0.99 0.33 1.98 0.66 3 1 C2.35550393 4.01217112 1.34977818 6.51655836 -0.0625 9.25 C-0.42472656 9.95640625 -0.78695312 10.6628125 -1.16015625 11.390625 C-1.43730469 11.92171875 -1.71445313 12.4528125 -2 13 C-2.99 12.67 -3.98 12.34 -5 12 C-4.50769231 4.61538462 -4.50769231 4.61538462 -1.9375 1.5 C-1.298125 1.005 -0.65875 0.51 0 0 Z " fill="#565E68" transform="translate(238,196)"/>
<path d="M0 0 C0.33 0 0.66 0 1 0 C1.35430394 3.18873549 1.25953249 4.61589191 -0.5625 7.3125 C-3.93440894 9.64689849 -5.99084677 9.65604326 -10 9 C-12 6.6875 -12 6.6875 -13 4 C-12.67 3.01 -12.34 2.02 -12 1 C-11.01 2.32 -10.02 3.64 -9 5 C-5.56206661 4.81870185 -5.56206661 4.81870185 -2 4 C-0.48705712 2.06402968 -0.48705712 2.06402968 0 0 Z " fill="#565D68" transform="translate(17,90)"/>
<path d="M0 0 C4.70588235 0.70588235 4.70588235 0.70588235 6 2 C6.04063832 3.66617115 6.042721 5.33388095 6 7 C4.0085944 7.38133299 2.00720923 7.71325582 0 8 C-1 7 -1 7 -1.125 4 C-1 1 -1 1 0 0 Z " fill="#545B66" transform="translate(40,126)"/>
<path d="M0 0 C0.66 0.99 1.32 1.98 2 3 C-1.63 6.63 -5.26 10.26 -9 14 C-9.66 13.01 -10.32 12.02 -11 11 C-7.37 7.37 -3.74 3.74 0 0 Z " fill="#6D737F" transform="translate(113,71)"/>
<path d="M0 0 C3.69230769 0.69230769 3.69230769 0.69230769 5 2 C4.71269945 4.33944736 4.38063221 6.6739143 4 9 C0.125 8.125 0.125 8.125 -1 7 C-1.125 4 -1.125 4 -1 1 C-0.67 0.67 -0.34 0.34 0 0 Z " fill="#555D67" transform="translate(26,119)"/>
<path d="M0 0 C3.875 1.875 3.875 1.875 5 3 C4.71269945 5.33944736 4.38063221 7.6739143 4 10 C0.125 8.125 0.125 8.125 -1 7 C-1.125 4 -1.125 4 -1 1 C-0.67 0.67 -0.34 0.34 0 0 Z " fill="#555D67" transform="translate(250,16)"/>
<path d="M0 0 C1.98 0 3.96 0 6 0 C6.66 1.98 7.32 3.96 8 6 C6.02 6.99 6.02 6.99 4 8 C1.10067643 5.60490662 0.49831724 3.68754757 0 0 Z " fill="#59616B" transform="translate(101,122)"/>
<path d="M0 0 C0.33 0.99 0.66 1.98 1 3 C-0.40580276 4.65512248 -1.82506266 6.29882206 -3.25 7.9375 C-4.03890625 8.85402344 -4.8278125 9.77054688 -5.640625 10.71484375 C-7.91251033 12.91526249 -8.92319022 13.66832555 -12 14 C-8 9.33333333 -4 4.66666667 0 0 Z " fill="#656C78" transform="translate(197,242)"/>
<path d="M0 0 C1.32 0.66 2.64 1.32 4 2 C4 4.64 4 7.28 4 10 C2.02 10.99 2.02 10.99 0 12 C-0.66 11.01 -1.32 10.02 -2 9 C-1.34 8.67 -0.68 8.34 0 8 C0 6.68 0 5.36 0 4 C-0.66 3.34 -1.32 2.68 -2 2 C-1.34 1.34 -0.68 0.68 0 0 Z " fill="#545C66" transform="translate(118,114)"/>
<path d="M0 0 C-1.53643852 3.68069887 -3.78150945 5.98775204 -6.625 8.75 C-7.85089844 9.94882813 -7.85089844 9.94882813 -9.1015625 11.171875 C-9.72804687 11.77515625 -10.35453125 12.3784375 -11 13 C-11.33 12.01 -11.66 11.02 -12 10 C-10.38113585 8.32737283 -8.7547271 6.66204463 -7.125 5 C-6.22007812 4.071875 -5.31515625 3.14375 -4.3828125 2.1875 C-2 0 -2 0 0 0 Z " fill="#656C79" transform="translate(213,228)"/>
<path d="M0 0 C0.66 0.33 1.32 0.66 2 1 C1.21753906 1.91523438 0.43507812 2.83046875 -0.37109375 3.7734375 C-1.39333531 4.97386795 -2.41546493 6.17439374 -3.4375 7.375 C-3.95376953 7.97828125 -4.47003906 8.5815625 -5.00195312 9.203125 C-7.78632294 12.40448704 -7.78632294 12.40448704 -10 16 C-10.66 16 -11.32 16 -12 16 C-10.37921571 12.27131047 -8.02767716 9.42653322 -5.4375 6.3125 C-4.63183594 5.33925781 -3.82617188 4.36601562 -2.99609375 3.36328125 C-1 1 -1 1 0 0 Z " fill="#555D67" transform="translate(139,145)"/>
<path d="M0 0 C2.64850992 2.64850992 4.33103223 5.66206447 6 9 C4.68 9.33 3.36 9.66 2 10 C-1 6.25 -1 6.25 -1 4 C-1.66 3.67 -2.32 3.34 -3 3 C-2.01 2.01 -1.02 1.02 0 0 Z " fill="#6E7480" transform="translate(100,122)"/>
<path d="M0 0 C1.9375 0.1875 1.9375 0.1875 4 1 C4.66 2.32 5.32 3.64 6 5 C3.03 5 0.06 5 -3 5 C-1 1 -1 1 0 0 Z " fill="#545C66" transform="translate(14,79)"/>
<path d="M0 0 C0.66 0 1.32 0 2 0 C2.89434157 1.40453643 3.76493192 2.82421869 4.625 4.25 C5.11226563 5.03890625 5.59953125 5.8278125 6.1015625 6.640625 C7 9 7 9 6.1484375 11.296875 C5.76945312 11.85890625 5.39046875 12.4209375 5 13 C4.15930585 11.39967863 3.32768495 9.79458829 2.5 8.1875 C1.80390625 6.84751953 1.80390625 6.84751953 1.09375 5.48046875 C0 3 0 3 0 0 Z " fill="#575F69" transform="translate(94,59)"/>
<path d="M0 0 C1.98 0.495 1.98 0.495 4 1 C3.67 2.65 3.34 4.3 3 6 C1.68 5.67 0.36 5.34 -1 5 C-0.67 3.35 -0.34 1.7 0 0 Z " fill="#686E7B" transform="translate(183,11)"/>
<path d="M0 0 C-0.33 1.65 -0.66 3.3 -1 5 C-1.66 4.67 -2.32 4.34 -3 4 C-3 3.34 -3 2.68 -3 2 C-3.99 2.99 -4.98 3.98 -6 5 C-6 3.35 -6 1.7 -6 0 C-3.50907189 -1.24546405 -2.58919267 -0.7767578 0 0 Z " fill="#6A717D" transform="translate(119,118)"/>
<path d="M0 0 C2.97 0 5.94 0 9 0 C6.1709277 2.8290723 5.61855575 3.37611108 2 4 C1.34 2.68 0.68 1.36 0 0 Z " fill="#545C66" transform="translate(2,0)"/>
<path d="M0 0 C1.32 0.33 2.64 0.66 4 1 C4 2.65 4 4.3 4 6 C2.68 5.67 1.36 5.34 0 5 C0 3.35 0 1.7 0 0 Z " fill="#545C66" transform="translate(242,1)"/>
<path d="M0 0 C0.99 0.33 1.98 0.66 3 1 C3 2.65 3 4.3 3 6 C1.68 5.67 0.36 5.34 -1 5 C-0.67 3.35 -0.34 1.7 0 0 Z " fill="#545B66" transform="translate(22,102)"/>
<path d="M0 0 C2.31 0 4.62 0 7 0 C2.5 4 2.5 4 -2 4 C-1.34 2.68 -0.68 1.36 0 0 Z " fill="#555D68" transform="translate(124,0)"/>
<path d="M0 0 C2.31 0 4.62 0 7 0 C7 0.66 7 1.32 7 2 C4.69 2.66 2.38 3.32 0 4 C0 2.68 0 1.36 0 0 Z " fill="#535B65" transform="translate(0,61)"/>
</svg>
