<svg xmlns="http://www.w3.org/2000/svg" viewBox="0 0 500 500">
  <path fill="#f4801f" d="m342.286 335.43 2.553-8.888c3.031-10.565 1.91-20.316-3.197-27.503-4.773-6.612-12.552-10.493-22.072-10.948l-180.229-2.3a3.493 3.493 0 0 1-2.857-1.551 3.528 3.528 0 0 1-.364-3.24 4.769 4.769 0 0 1 4.175-3.211l181.971-2.395c21.476-.982 44.956-18.567 53.14-40.032l10.356-27.215c.294-.764.44-1.577.43-2.396a7.92 7.92 0 0 0-.143-1.294c-5.65-25.314-19.385-48.08-39.113-64.833a118.283 118.283 0 0 0-70.17-27.97 118.19 118.19 0 0 0-72.755 20.246c-21.406 14.53-37.495 35.685-45.819 60.243a53.2 53.2 0 0 0-30.496-10.554 53.184 53.184 0 0 0-30.978 9.027 53.51 53.51 0 0 0-20.128 25.307 53.758 53.758 0 0 0-1.915 32.328 75.475 75.475 0 0 0-30.925 7.517 75.753 75.753 0 0 0-25.118 19.61 76.123 76.123 0 0 0-14.875 28.24 76.309 76.309 0 0 0-2.004 31.884 3.53 3.53 0 0 0 1.165 2.17 3.494 3.494 0 0 0 2.296.872h332.85a4.356 4.356 0 0 0 2.628-.85 4.388 4.388 0 0 0 1.595-2.264Z"/>
  <path fill="#f9ab41" d="M402.346 210.207c-1.59 0-3.26.048-5.01.144a2.088 2.088 0 0 0-.764.167 2.792 2.792 0 0 0-1.814 1.917l-7.158 24.58c-3.055 10.565-1.933 20.315 3.197 27.502a27.831 27.831 0 0 0 9.753 8.056 27.713 27.713 0 0 0 12.296 2.893l38.441 2.395a3.43 3.43 0 0 1 2.72 1.486c.66.963.811 2.188.406 3.282a4.775 4.775 0 0 1-4.176 3.21l-39.92 2.396c-21.69 1.006-45.052 18.566-53.237 40.008l-2.887 7.57a2.168 2.168 0 0 0 .203 1.942c.372.576.997.94 1.682.98h137.516a3.689 3.689 0 0 0 2.326-.755 3.717 3.717 0 0 0 1.35-2.047 99.42 99.42 0 0 0 1.914-45.174 99.224 99.224 0 0 0-18.284-41.321 98.728 98.728 0 0 0-34.672-28.856 98.337 98.337 0 0 0-43.834-10.375h-.048Z"/>
</svg>
