<svg xmlns="http://www.w3.org/2000/svg" viewBox="-.001 -.001 500 456.273">
  <path d="M27.181.018C16.017-.181 5.751 6.178.946 16.272c-1.425 10.409-1.283 17.252.713 20.674.713 2.567 1.569 4.705 2.852 6.131l7.271 8.127 31.653 36.215c2.567 4.848 1.426 16.54.428 26.092a119.356 119.356 0 0 0-.856 15.969c.713 11.407 20.104 47.051 23.241 52.612a165.761 165.761 0 0 0-21.957 88.827c0 2.281 1.14 56.746 37.926 73.428l3.849 1.426 5.133 10.123a51.341 51.341 0 0 0-36.358 22.385c-7.414 11.977-5.703 24.524 4.848 35.36 7.985 10.265 26.52 12.119 28.801 12.261a53.179 53.179 0 0 0 48.477-5.132c.428 12.974 10.551 21.672 11.692 22.67 4.847 6.701 19.961 8.554 25.379 8.84 5.275 2.709 14.258 3.992 23.383 3.992 5.418 0 10.836-.428 16.111-1.426 15.113-2.994 25.522-10.836 28.373-21.387h3.565c22.67-.998 64.16-2.709 69.293-38.639a134.916 134.916 0 0 0 66.87-14.971c5.988 9.696 17.822 14.971 33.934 14.971 14.828 0 58.457-25.949 63.448-34.219 4.705-7.699-.428-17.109-3.28-21.102 5.276-11.406 28.231-64.16 23.668-112.637-4.448-52.869-36.714-99.378-84.692-122.048a194.241 194.241 0 0 0-97.096-16.967c-.57-25.807-8.27-51.471-25.664-62.022-7.842-4.848-17.823-5.56-29.657-2.139-28.373 8.555-59.741 39.495-71.147 63.163a184.182 184.182 0 0 0-10.693 32.08 681.006 681.006 0 0 0-39.922 14.829c-3.28.285-6.274.712-9.268 1.283-2.567-28.231-38.069-93.532-47.622-104.796C74.517 19.266 46.287-.695 27.038.018h.143Z"/>
  <path fill="#fff" d="M27.324 7.575c15.683-.57 41.918 17.68 50.33 27.803 9.125 10.693 44.627 74.141 45.911 101.231a86.11 86.11 0 0 0-38.925 21.53c-4.705-9.838-12.689-27.661-13.259-35.503l-.856-13.83a343.53 343.53 0 0 0-3.564-41.205c-1.854-8.127-32.651-49.76-42.204-52.184-5.56-1.426-10.266-1.141-14.258.713 2.424-3.422 7.414-8.127 16.825-8.555Z"/>
  <path fill="#f8a693" d="M16.202 21.975c2.139-.285 4.42 0 6.274.571 4.99 2.424 34.789 36.215 37.071 46.481 1.71 8.127 2.709 26.519 3.421 40.064l.856 13.973c.998 11.692 13.26 37.071 15.256 41.206-2.852 3.136-5.561 6.558-8.127 10.265-8.555-15.683-19.961-38.781-20.246-45.625 0-4.99.285-9.981.855-14.828 1.141-11.549 2.139-23.954-1.426-30.37a309.652 309.652 0 0 0-32.793-37.783 195.214 195.214 0 0 1-6.986-7.557c-1.426-1.996-2.994-9.268 0-13.26a8.552 8.552 0 0 1 5.845-3.137Z"/>
  <path fill="#fff" d="M472.313 356.466c-3.849 6.416-44.912 30.512-56.604 30.512l-4.562-.142c-1.141-5.133-.998-10.551.713-15.684l-4.705-1.426c16.111-3.707 31.937-9.41 46.623-17.109l-3.707-6.844c-.713.285-67.012 35.645-84.549 6.844-18.108-29.514 2.851-57.032 3.707-58.173l-6.274-4.847c-.285.285-25.236 32.793-4.277 67.154 4.277 6.702 10.836 11.407 18.535 13.26a12.108 12.108 0 0 0 1.283 2.995 127.818 127.818 0 0 1-63.305 15.113c0-.285-.143-28.944-7.842-42.916l-6.844 4.42c6.702 12.404 6.702 38.496 6.702 38.496h.285l-.285 3.137c-1.996 29.941-31.796 33.221-62.165 34.504l-6.701.285-3.422.143-.285 3.279c-1.283 9.98-12.547 15.684-22.67 17.68-12.832 2.566-30.085.998-34.647-1.996 0 0-.428-.571-.57-1.426-.713-5.703 3.849-16.397 7.984-21.102l-5.988-5.275a43.425 43.425 0 0 0-9.696 26.377c-6.843-1.141-13.117-2.994-14.258-4.99-2.851-5.989-.427-14.544 6.844-22.813l-5.988-5.133c-4.277 4.705-7.414 10.408-8.983 16.682a18.881 18.881 0 0 1 .286-15.399l.285-.57v-.285a31.39 31.39 0 0 1 22.955-17.68c3.564-.856 9.41 0 15.684.57 8.127.856 17.537 1.996 24.951 0 13.83-3.849 16.682-11.121 17.395-24.666l-7.985-.428c-.57 11.407-2.138 14.829-11.549 17.395-5.845 1.711-14.543.713-22.099-.143-6.844-.855-13.26-1.425-17.965-.57a41.355 41.355 0 0 0-23.811 14.258c-1.283-3.85-2.852-7.414-4.705-10.979l-6.844 3.85c2.709 5.133 4.563 10.693 5.703 16.397a44.932 44.932 0 0 1-46.623 9.695c-3.28-7.272-3.28-14.258 5.275-25.664l-6.416-4.705c-9.125 12.404-9.98 21.387-7.984 28.515-5.989-1.283-13.688-3.849-17.11-8.554-5.275-7.129 4.99-25.094 8.412-27.946l-4.99-6.131a47.175 47.175 0 0 0-10.693 17.965c0-3.422.998-6.986 2.851-9.98 7.985-12.975 26.805-20.959 35.93-18.108l12.547 3.85-8.127-9.981a73.127 73.127 0 0 1-5.418-9.125c11.977 2.852 24.239 4.278 36.643 3.992 30.227 0 61.309-6.273 75.995-12.689 27.09-11.406 66.442-53.325 66.442-98.522 0-18.251-5.133-36.073-14.829-51.329a158.757 158.757 0 0 0 46.909-49.903c5.846-11.406 9.553-27.803 9.98-44.912a186.765 186.765 0 0 1 93.818 16.254c45.397 21.472 75.966 65.444 80.272 115.489 4.705 51.329-23.811 110.214-24.096 110.784l-1.141 2.424 1.711 1.996c1.711 2.281 6.559 9.838 4.135 13.83h-.143ZM52.275 270.491a161.432 161.432 0 0 1 12.262-67.44c18.107-42.489 46.338-62.164 88.827-62.164 7.414 0 14.828.855 22.099 2.423l-6.273 45.911 7.984.713c0-.713 5.846-67.725 21.387-99.663 10.409-21.672 40.35-51.329 66.157-59.028 9.553-2.851 17.395-2.281 23.24 1.426 24.239 14.543 28.089 74.711 12.547 104.368-15.398 29.229-57.316 60.311-84.977 68.438l2.281 7.699a143.556 143.556 0 0 0 36.216-18.107c8.982 13.972 13.687 30.226 13.687 46.908 0 43.344-39.637 81.841-61.594 91.251-23.526 9.98-86.973 19.106-120.337 3.992-32.365-14.686-33.506-66.014-33.506-66.727Z"/>
  <path fill="#f8a693" fill-rule="evenodd" d="M186.442 199.629s1.141-72.715 25.379-110.071c15.114-22.955 36.358-38.924 65.301-23.811 29.372 20.532 23.669 60.596 0 81.841-33.648 30.227-90.68 52.041-90.68 52.041Z"/>
  <path d="m186.727 199.629-.285-4.848c0-2.566-1.711-63.59 21.387-103.227 14.828-25.379 44.199-45.055 73.571-28.231l.428.428c11.121 8.555 17.965 21.815 18.535 36.215a74.124 74.124 0 0 1-21.53 54.893c-31.652 32.081-85.405 43.344-87.686 43.772l-4.42.998ZM258.872 65.32c-18.107 0-34.646 13.83-44.199 30.512-18.393 31.224-20.247 78.418-20.389 93.817 13.687-3.565 54.18-15.541 79.131-40.635a66.736 66.736 0 0 0 19.249-48.477 40.301 40.301 0 0 0-15.256-30.085 36.858 36.858 0 0 0-18.536-5.132Zm-69.578 177.083c-7.129 0-17.11 7.414-17.11 15.969s6.844 12.547 14.115 12.547c3.708 0 7.272-1.426 9.981-3.992a14.215 14.215 0 0 0 4.277-10.409c0-8.554-3.849-14.115-11.263-14.115Zm4.134 11.121a9.646 9.646 0 0 0-8.127-3.137l-.142-1.853s7.984-2.567 10.836 1.711l-2.567 3.279Z"/>
  <path fill-rule="evenodd" d="M59.119 299.577c1.853-1.14 5.133 5.133 10.123 7.129 4.99 1.996 15.113-.998 16.824 1.426 1.854 2.281-1.14 22.955-12.832 19.391-11.406-3.565-14.543-17.823-14.543-17.823s-1.426-8.982.428-9.98v-.143Z"/>
  <path fill="#fff" d="m178.458 128.054-1.426 7.415a136.163 136.163 0 0 0-13.83-1.997l15.256-5.418ZM402.877 385.41c-6.558-1.711-12.974-5.276-15.969-12.404l-.285-.713c0-.286 0-.571.285-.998l3.28.285c4.562 0 9.125-.428 13.687-1.426-1.425 4.99-1.711 10.266-.998 15.256Z"/>
</svg>