<?xml version="1.0" encoding="UTF-8"?>
<!DOCTYPE svg PUBLIC "-//W3C//DTD SVG 1.1//EN" "http://www.w3.org/Graphics/SVG/1.1/DTD/svg11.dtd">
<svg xmlns="http://www.w3.org/2000/svg" version="1.1" width="512px" height="512px" style="shape-rendering:geometricPrecision; text-rendering:geometricPrecision; image-rendering:optimizeQuality; fill-rule:evenodd; clip-rule:evenodd" xmlns:xlink="http://www.w3.org/1999/xlink">
<g><path style="opacity:1" fill="#0f0f0f" d="M 511.5,272.5 C 511.5,285.5 511.5,298.5 511.5,311.5C 508.543,328.958 502.376,345.291 493,360.5C 489.783,363.38 486.95,366.547 484.5,370C 491.258,380.639 489.591,389.639 479.5,397C 464.044,407.934 447.377,416.601 429.5,423C 412.83,426.168 399.163,421.335 388.5,408.5C 367.197,419.324 344.531,424.491 320.5,424C 318.692,436.612 312.359,446.279 301.5,453C 283.703,460.911 265.036,464.411 245.5,463.5C 242.9,471.276 237.9,477.109 230.5,481C 217.623,486.044 204.289,487.711 190.5,486C 185.821,485.662 181.488,484.328 177.5,482C 156.539,481.714 144.039,471.214 140,450.5C 127.176,458.148 113.343,460.648 98.5,458C 90.6339,455.515 82.6339,453.515 74.5,452C 54.9132,442.997 49.0799,428.497 57,408.5C 66.2342,395.627 78.7342,387.961 94.5,385.5C 92.6275,381.588 90.6275,377.755 88.5,374C 70.6568,365.82 58.8235,352.32 53,333.5C 40.7936,289.193 46.2936,247.193 69.5,207.5C 59.4487,191.064 51.2821,173.73 45,155.5C 46.0538,140.201 46.3871,124.867 46,109.5C 35.4808,94.9732 23.4808,81.6398 10,69.5C 6.25674,65.2678 2.75674,60.9345 -0.5,56.5C -0.5,52.1667 -0.5,47.8333 -0.5,43.5C 9.76623,24.2659 25.0996,18.7659 45.5,27C 67.9457,36.2887 85.1124,51.4554 97,72.5C 110.456,95.0753 121.456,118.742 130,143.5C 131.478,149.551 132.812,155.551 134,161.5C 150.985,156.607 167.819,150.94 184.5,144.5C 189.063,124.296 197.563,105.963 210,89.5C 221.355,76.4675 234.189,65.3008 248.5,56C 281.602,35.3661 304.768,43.1994 318,79.5C 320.953,90.3093 322.453,101.309 322.5,112.5C 360.236,109.787 395.903,116.953 429.5,134C 465.163,161.014 489.997,195.848 504,238.5C 507.153,249.807 509.653,261.14 511.5,272.5 Z"/></g>
<g><path style="opacity:1" fill="#f9f9f9" d="M 24.5,29.5 C 29.5518,29.4502 34.5518,29.9502 39.5,31C 64.2651,40.4294 82.7651,56.9294 95,80.5C 105.37,98.9048 114.37,117.905 122,137.5C 124.445,145.715 126.278,154.048 127.5,162.5C 112.806,166.18 99.806,173.013 88.5,183C 87.6683,183.688 87.0016,183.521 86.5,182.5C 81.5074,171.354 77.0074,160.021 73,148.5C 71.949,132.503 70.949,116.503 70,100.5C 69.8323,89.9943 66.4989,80.661 60,72.5C 50.2229,59.4865 39.3896,47.3198 27.5,36C 24.3562,34.3084 21.0229,33.1418 17.5,32.5C 19.7639,31.1308 22.0972,30.1308 24.5,29.5 Z"/></g>
<g><path style="opacity:1" fill="#f8a38f" d="M 12.5,38.5 C 17.3236,37.9711 21.6569,39.1378 25.5,42C 39.5654,55.7226 51.7321,70.8893 62,87.5C 64.8374,107.385 66.5041,127.385 67,147.5C 70.9051,161.478 76.0717,174.978 82.5,188C 79.7313,192.44 76.5646,196.606 73,200.5C 64.0573,185.948 56.724,170.614 51,154.5C 51.9952,139.197 52.3286,123.864 52,108.5C 48.7377,102.307 44.7377,96.6405 40,91.5C 29,79.8333 18,68.1667 7,56.5C 3.70863,48.8182 5.54196,42.8182 12.5,38.5 Z"/></g>
<g><path style="opacity:1" fill="#fafafa" d="M 75.5,358.5 C 75.5,358.167 75.5,357.833 75.5,357.5C 89.9869,361.531 96.4869,355.865 95,340.5C 88.9149,339.688 82.7482,339.188 76.5,339C 72.7424,337.077 69.4091,334.577 66.5,331.5C 65.914,331.709 65.414,332.043 65,332.5C 64.3219,336.221 64.4886,339.888 65.5,343.5C 65.5,344.167 65.5,344.833 65.5,345.5C 56.2828,328.814 51.9494,310.814 52.5,291.5C 52.6554,251.963 65.6554,217.463 91.5,188C 109.872,171.873 131.372,164.04 156,164.5C 163.871,164.941 171.705,165.774 179.5,167C 180.059,167.725 180.392,168.558 180.5,169.5C 177.315,184.684 175.315,200.018 174.5,215.5C 176.5,215.5 178.5,215.5 180.5,215.5C 182.202,180.727 189.035,147.061 201,114.5C 217.196,84.2957 241.363,63.4624 273.5,52C 285.541,49.4426 295.374,52.9426 303,62.5C 310.113,73.413 314.447,85.413 316,98.5C 321.979,137.67 310.146,170.17 280.5,196C 263.081,211.714 243.415,223.881 221.5,232.5C 221.08,234.326 221.08,236.326 221.5,238.5C 234.851,234.241 247.351,228.241 259,220.5C 259.772,220.645 260.439,220.978 261,221.5C 275.359,247.499 277.359,274.499 267,302.5C 255.866,325.636 239.699,344.469 218.5,359C 205.461,365.355 191.794,369.689 177.5,372C 152.14,376.37 126.806,376.37 101.5,372C 91.2074,370.356 82.5408,365.856 75.5,358.5 Z"/></g>
<g><path style="opacity:1" fill="#0f0c0c" d="M 193.5,223.5 C 192.507,215.35 192.174,207.017 192.5,198.5C 193.5,169.804 200.666,142.804 214,117.5C 225.84,98.1554 243.007,87.1554 265.5,84.5C 286.335,85.1601 299.835,95.4934 306,115.5C 309.914,142.091 302.081,164.591 282.5,183C 256.19,203.482 226.523,216.982 193.5,223.5 Z"/></g>
<g><path style="opacity:1" fill="#fca592" d="M 257.5,90.5 C 284.894,88.5662 299.56,101.233 301.5,128.5C 300.608,150.45 291.608,168.284 274.5,182C 251.674,198.494 226.507,209.994 199,216.5C 197.361,188.998 201.361,162.331 211,136.5C 219.834,114.165 235.334,98.8314 257.5,90.5 Z"/></g>
<g><path style="opacity:1" fill="#fafafa" d="M 60.5,425.5 C 59.5386,423.735 59.2053,421.735 59.5,419.5C 63.1115,407.716 70.7781,399.549 82.5,395C 91.0632,391.633 99.5632,391.799 108,395.5C 108.667,394.833 108.667,394.167 108,393.5C 102.81,388.767 99.4764,383.1 98,376.5C 102.705,378.033 107.538,379.2 112.5,380C 140.837,382.162 168.837,380.162 196.5,374C 217.812,367.925 235.645,356.425 250,339.5C 264.443,322.614 274.11,303.281 279,281.5C 281.871,258.038 277.038,236.371 264.5,216.5C 281.854,203.979 296.687,188.979 309,171.5C 318.099,155.03 322.599,137.363 322.5,118.5C 360.451,115.776 396.117,123.276 429.5,141C 473.317,176.458 498.484,222.292 505,278.5C 507.615,302.611 503.949,325.611 494,347.5C 489.686,356.123 483.52,363.123 475.5,368.5C 480.461,372.751 482.961,378.085 483,384.5C 480.5,388.333 477.333,391.5 473.5,394C 459.716,403.227 445.049,410.893 429.5,417C 425.514,417.499 421.514,417.666 417.5,417.5C 417.193,411.907 417.527,406.407 418.5,401C 417.167,400.333 415.833,399.667 414.5,399C 430.794,394.523 446.461,388.356 461.5,380.5C 461.014,378.503 459.847,377.169 458,376.5C 440.722,385.148 422.555,390.982 403.5,394C 380.37,396.219 367.203,385.719 364,362.5C 362.937,347.817 366.437,334.317 374.5,322C 373.465,320.726 372.298,319.56 371,318.5C 354.722,340.239 353.389,362.905 367,386.5C 371.262,392.27 376.762,396.27 383.5,398.5C 384.736,400.034 385.236,401.7 385,403.5C 364.91,414.289 343.41,418.956 320.5,417.5C 319.84,404.55 317.673,391.883 314,379.5C 311.816,377.129 309.65,377.296 307.5,380C 314.177,397.067 315.677,414.567 312,432.5C 305.593,444.224 295.76,451.39 282.5,454C 268.581,456.057 254.581,457.224 240.5,457.5C 239.833,466.67 235.166,472.837 226.5,476C 215.527,480.056 204.193,481.39 192.5,480C 187.997,479.932 183.83,478.765 180,476.5C 179.18,467.46 181.68,459.46 187.5,452.5C 186.167,451.5 184.833,450.5 183.5,449.5C 176.525,456.706 173.192,465.372 173.5,475.5C 155.566,474.56 151.066,466.227 160,450.5C 165.03,445.927 164.364,443.594 158,443.5C 153.995,448.511 151.328,454.178 150,460.5C 149.667,460.167 149.333,459.833 149,459.5C 144.897,446.475 148.397,435.975 159.5,428C 163.945,425.443 168.611,423.443 173.5,422C 182.977,422.438 192.477,422.938 202,423.5C 220.978,425.676 230.811,417.343 231.5,398.5C 229.5,398.5 227.5,398.5 225.5,398.5C 226.791,409.364 222.125,415.864 211.5,418C 200.619,418.627 189.786,418.127 179,416.5C 166.002,416.349 155.502,421.349 147.5,431.5C 146.029,427.759 144.363,424.092 142.5,420.5C 141.998,419.479 141.332,419.312 140.5,420C 139.272,420.779 138.272,421.779 137.5,423C 139.652,428.271 141.652,433.604 143.5,439C 129.108,453.41 112.441,456.91 93.5,449.5C 89.7245,439.648 91.3911,430.815 98.5,423C 97.3147,421.647 95.9814,420.48 94.5,419.5C 87.1734,427.469 84.5067,436.803 86.5,447.5C 75.3584,448.43 68.025,443.597 64.5,433C 65.9688,424.073 69.6355,416.239 75.5,409.5C 74.5,407.833 73.1667,406.5 71.5,405.5C 66.2677,411.297 62.601,417.964 60.5,425.5 Z"/></g>
<g><path style="opacity:1" fill="#e5e5e5" d="M 180.5,151.5 C 181.675,151.281 182.675,151.614 183.5,152.5C 182.878,155.37 182.211,158.204 181.5,161C 175.174,160.8 168.84,160.134 162.5,159C 168.652,156.569 174.652,154.069 180.5,151.5 Z"/></g>
<g><path style="opacity:1" fill="#9b9b9b" d="M 192.5,198.5 C 192.174,207.017 192.507,215.35 193.5,223.5C 193.44,224.043 193.107,224.376 192.5,224.5C 191.179,215.675 191.179,207.009 192.5,198.5 Z"/></g>
<g><path style="opacity:1" fill="#090909" d="M 190.5,275.5 C 203.491,273.992 208.658,279.659 206,292.5C 201.745,299.54 195.578,302.04 187.5,300C 181.092,296.677 178.925,291.511 181,284.5C 183.679,280.924 186.846,277.924 190.5,275.5 Z"/></g>
<g><path style="opacity:1" fill="#dddddd" d="M 192.5,279.5 C 196.302,278.88 199.635,279.714 202.5,282C 201.646,283.022 200.646,283.855 199.5,284.5C 197.382,283.054 195.049,282.387 192.5,282.5C 192.5,281.5 192.5,280.5 192.5,279.5 Z"/></g>
<g><path style="opacity:1" fill="#070707" d="M 75.5,357.5 C 71.1612,353.465 67.8279,348.798 65.5,343.5C 64.4886,339.888 64.3219,336.221 65,332.5C 65.414,332.043 65.914,331.709 66.5,331.5C 69.4091,334.577 72.7424,337.077 76.5,339C 82.7482,339.188 88.9149,339.688 95,340.5C 96.4869,355.865 89.9869,361.531 75.5,357.5 Z"/></g>
<g><path style="opacity:1" fill="#afafaf" d="M 65.5,343.5 C 67.8279,348.798 71.1612,353.465 75.5,357.5C 75.5,357.833 75.5,358.167 75.5,358.5C 70.6417,355.312 67.3083,350.979 65.5,345.5C 65.5,344.833 65.5,344.167 65.5,343.5 Z"/></g>
<g><path style="opacity:1" fill="#ededed" d="M 407.5,398.5 C 409.167,398.5 410.833,398.5 412.5,398.5C 411.966,404.499 411.299,410.499 410.5,416.5C 402.406,414.736 396.739,410.069 393.5,402.5C 393.608,401.558 393.941,400.725 394.5,400C 399.019,399.825 403.353,399.325 407.5,398.5 Z"/></g>
<g><path style="opacity:1" fill="#8e8e8e" d="M 59.5,419.5 C 59.2053,421.735 59.5386,423.735 60.5,425.5C 60.6068,427.379 60.1068,427.712 59,426.5C 58.2042,423.961 58.3709,421.628 59.5,419.5 Z"/></g>
</svg>
