<svg xmlns="http://www.w3.org/2000/svg" viewBox="0 0 305.5 234.9"><path fill="#183648" d="M142.1 142.4c0-24 1.7-23.5 6.2-25.5 3-1.5 4.7-3.8 4.7-7.1 0-10.6-20-10.7-27.2-10.7-30 0-29.4 8.4-29.4 11.3 0 4 2.7 5.3 5.6 7 2 1 4.6 2.1 4.6 18.5 0 4.8.2 6.3-9.7 6.3h-7.7c-7.2 0-11.1 1-11.1-7.5 0-13.4.9-15.2 4.6-17.3 3.5-2.2 6-3.8 6-8.5 0-9-17.4-9.8-23.7-9.8-8.5 0-33.7 1.2-33.7 12.8 0 3 2.7 4.4 5 5.6 5.6 3 6.2-.3 6.2 39.9 0 31.6-2 31.2-7.4 33.7-2.6 1.2-4.8 3.2-4.8 6.4 0 10.2 21 10.8 27.9 10.8 7.2 0 29.2-.6 29.2-11.2 0-9.7-9.3-1.5-9.3-22.2 0-13.5-2-14.2 19-14.2 7.6 0 9.5-.3 9.5 8 0 30.6-11.2 17.7-10.6 29.4 0 10 19.3 10.3 26 10.3 29.6 0 30-7.6 30-11.3 0-3.7-2.2-4.6-5.2-6.3-4-2.2-4.7-4.5-4.7-9zm93.8 27.7c0 8.2-4 16.2-13.1 16.2-16.3 0-25.3-36.2-25.3-49 0-7.4 4.2-16.1 12.6-16.1 17.6 0 25.8 35.2 25.8 49zM216 230c8.7 3.1 15.3 5 24.7 5 24.8 0 34.5-13.5 34.5-18.2 0-2-1.6-5.9-3.9-5.9-1.2 0-5.8 2.7-11.9 2.7-17.5 0-22.6-4.5-22.6-7 0-.8 1.2-1.8 2-2 22-9 35.8-26 35.8-49.7 0-19.5-16-56.3-57.6-56.3-32.8 0-58.3 22.7-58.3 54.7 0 30.4 19.2 40.4 19.2 43.7 0 1.2-1.4 1.5-2.3 1.5l-3.2-.2c-5.7 0-11.9 3.5-11.9 9.9 0 2.1 1 4.3 3.5 4.3l3.7-.2c6.8 0 12.1 2.8 25 8.1zM0 47c0 16 12.7 27.6 28.4 27.6 14.5 0 23.9-8 23.9-14.1 0-2.5-1.9-5.7-4.7-5.7-2.2 0-4.3 2.7-10.9 2.7-8.2 0-14-7.8-14-15.5 0-4.1 2.5-8.9 7.1-8.9 8.3 0 3 13 14.3 13a10 10 0 0 0 10.2-10.3c0-7.3-8.2-16-23.8-16C13 19.8 0 32 0 47zm88.3-12.8c0-15 1.3-26.4 1.3-28.8 0-3-.8-5.4-4.4-5.4-1.4 0-28.5 2.2-28.5 11.3 0 5.9 6.2 3.2 7.7 11 1 4.6.8 12.4.8 16.5 0 5 0 18.1-1.4 22.4-1.2 3.9-5.7 2.5-5.7 6.1 0 7.5 14.6 7 19.2 7 4.5 0 17.2.5 17.2-6.5 0-4.4-4.7-2.6-5.8-6.4-.5-1.6-.4-5-.4-7zM126 74.6c15.3 0 33.6-10.5 33.6-27.6 0-13-10.4-27.2-28.6-27.2-17.1 0-33.5 10.6-33.5 29.2 0 16.5 13.1 25.6 28.5 25.6zm9.7-19.6c0 3.3-.8 6.6-4.8 6.4-7.2-.4-9-16.5-9.5-23-.2-3 1.7-6.3 5.1-6.3 7.1 0 9.2 18.1 9.2 22.9zm57-31c0-2.5-.2-3.9-3.1-3.9-.9 0-27 .3-27 7 0 6.9 7.1-.1 7.1 15.9 0 15.6-1.7 31.2 18.1 31.2 4.6 0 7.9-1.5 10.4-3 2.5-1.6 4.2-3.2 5.3-3.2 4.2 0-1.1 6.2 6.9 6.2 5.7 0 24.1-2 24.1-9 0-5-5.7-2.1-5.7-8.4v-21l.2-9.8c0-3.7-1.6-5.9-5.3-5.9-4 0-24.9 1-24.9 7.2 0 4.4 5.1 2.6 6 7.8.5 3.4.4 7.9.4 11.3 0 5 1 14.8-6.5 14.8-5.6 0-5.9-6.5-5.9-10.6zM277 44c0 4.7.4 17.5-6.5 17.5-6.5 0-7.7-8.5-7.7-13.4 0-5 1.2-17 8.2-17 6 0 6 9 6 13zm23-38.4c0-3.4-.7-5.6-3.8-5.6-.4 0-26.9 2-26.9 9.7 0 5.6 7.6 2.2 7.6 8.6 0 1.2 0 4.6-1.6 4.6-1.2 0-5.2-3.1-12.4-3.1-14.4 0-25.6 13.6-25.6 27.4 0 12.8 10.6 27.4 24.2 27.4a19 19 0 0 0 10.2-3c2.4-1.6 4-3.1 4.9-3.1 3.5 0-.3 5.7 5 5.7 1.2 0 24-.5 24-8.4 0-5.4-5.6-3-5.6-10.3z"/></svg>