<svg width="500" height="500" viewBox="0 0 500 500" fill="none" xmlns="http://www.w3.org/2000/svg">
<path d="M341.368 359.947L343.921 351.059C346.952 340.494 345.83 330.743 340.724 323.556C335.951 316.944 328.172 313.063 318.652 312.608L138.423 310.308C137.857 310.3 137.302 310.155 136.805 309.885C136.307 309.614 135.882 309.228 135.566 308.757C135.249 308.286 135.051 307.746 134.988 307.182C134.924 306.617 134.998 306.046 135.202 305.517C135.508 304.63 136.067 303.853 136.809 303.282C137.552 302.711 138.445 302.372 139.377 302.306L321.348 299.911C342.824 298.929 366.304 281.344 374.488 259.879L384.844 232.664C385.138 231.9 385.284 231.087 385.274 230.268C385.262 229.833 385.214 229.401 385.131 228.974C379.481 203.66 365.746 180.894 346.018 164.141C326.29 147.388 301.649 137.566 275.848 136.172C250.046 134.778 224.498 141.887 203.093 156.417C181.687 170.947 165.598 192.102 157.274 216.66C148.437 210.066 137.785 206.379 126.778 206.106C115.772 205.833 104.951 208.986 95.8004 215.133C86.65 221.28 79.6189 230.12 75.6722 240.44C71.7255 250.759 71.0566 262.051 73.7573 272.768C63.0348 273.046 52.4935 275.608 42.8317 280.285C33.17 284.962 24.6082 291.646 17.7136 299.896C10.819 308.145 5.74894 317.771 2.83918 328.136C-0.0705683 338.501 -0.753564 349.369 0.835439 360.019C0.950401 360.859 1.36372 361.63 1.9994 362.189C2.63508 362.748 3.45038 363.058 4.29541 363.061H337.145C338.089 363.071 339.012 362.772 339.773 362.211C340.535 361.649 341.094 360.855 341.368 359.947Z" fill="#F4801F"/>
<path d="M401.428 234.724C399.838 234.724 398.167 234.772 396.417 234.868C396.155 234.875 395.896 234.932 395.654 235.035C395.218 235.18 394.824 235.431 394.508 235.765C394.192 236.1 393.962 236.507 393.84 236.952L386.682 261.532C383.627 272.097 384.749 281.847 389.879 289.034C392.471 292.435 395.808 295.191 399.632 297.09C403.455 298.989 407.662 299.978 411.928 299.983L450.369 302.378C450.907 302.395 451.433 302.538 451.905 302.796C452.378 303.054 452.783 303.42 453.089 303.864C453.414 304.338 453.62 304.884 453.691 305.455C453.761 306.026 453.694 306.606 453.495 307.146C453.189 308.033 452.63 308.81 451.887 309.381C451.145 309.951 450.252 310.29 449.319 310.356L409.398 312.752C387.708 313.758 364.347 331.318 356.162 352.76L353.275 360.33C353.154 360.647 353.11 360.988 353.145 361.326C353.181 361.663 353.295 361.987 353.478 362.272C353.662 362.557 353.91 362.794 354.202 362.965C354.495 363.135 354.823 363.234 355.16 363.253H492.676C493.514 363.273 494.335 363.007 495.002 362.497C495.67 361.988 496.146 361.266 496.351 360.45C500.45 345.742 501.106 330.281 498.266 315.276C495.427 300.271 489.169 286.129 479.982 273.955C470.796 261.781 458.929 251.905 445.31 245.099C431.691 238.294 416.689 234.743 401.476 234.724H401.428Z" fill="#F9AB41"/>
</svg>
