<svg xmlns="http://www.w3.org/2000/svg" fill="none" viewBox="0 0 500 500">
  <path fill="#182954" d="m75.006 269.464 12.657 10.855a41.066 41.066 0 0 1-8.676 8.889 53.579 53.579 0 0 1-13.654 7.76 45.952 45.952 0 0 1-17.066 3.107 49.217 49.217 0 0 1-25.313-6.492 46.023 46.023 0 0 1-17.21-17.64A51.033 51.033 0 0 1-.49 250.556a52.832 52.832 0 0 1 3.538-19.472 49.477 49.477 0 0 1 10.242-16.086 46.79 46.79 0 0 1 15.5-10.855 49.825 49.825 0 0 1 20.05-3.954 46.083 46.083 0 0 1 23.605 5.503 49.212 49.212 0 0 1 15.215 13.685l-12.795 11.29a39.526 39.526 0 0 0-10.667-10.584 27.467 27.467 0 0 0-15.358-3.95 27.747 27.747 0 0 0-16.212 4.651 30.818 30.818 0 0 0-10.52 12.559 39.113 39.113 0 0 0-3.702 16.946 36.87 36.87 0 0 0 3.699 16.508 29.838 29.838 0 0 0 10.224 11.84 27.317 27.317 0 0 0 15.501 4.376 31.64 31.64 0 0 0 13.511-2.401 27.877 27.877 0 0 0 8.247-5.644l5.403-5.503m17.656-5.362a35.619 35.619 0 0 1 4.553-17.781 34.98 34.98 0 0 1 12.8-12.98 39.655 39.655 0 0 1 18.913-4.797 39.66 39.66 0 0 1 18.913 4.797 34.985 34.985 0 0 1 12.8 12.98 37.037 37.037 0 0 1 4.55 17.779 37.04 37.04 0 0 1-4.55 17.78 36.665 36.665 0 0 1-13.418 13.205 37.023 37.023 0 0 1-18.254 4.856 37.027 37.027 0 0 1-18.276-4.774A36.659 36.659 0 0 1 97.2 282.022a35.62 35.62 0 0 1-4.553-17.777v-.142zm36.123 21.31a17.017 17.017 0 0 0 10.666-3.244 20.199 20.199 0 0 0 6.4-8.184 24.947 24.947 0 0 0 2.133-9.736 24.391 24.391 0 0 0-2.133-9.736 20.347 20.347 0 0 0-6.4-8.183 19.133 19.133 0 0 0-10.666-3.245c-3.803 0-7.518 1.13-10.667 3.245a20.2 20.2 0 0 0-6.256 8.041 24.393 24.393 0 0 0-2.134 9.736 24.812 24.812 0 0 0 2.134 9.878 20.065 20.065 0 0 0 6.4 8.184 17.017 17.017 0 0 0 10.666 3.244m39.667-82.975h16.924v17.781H168.58v-17.781zm0 28.223h16.924v67.026H168.58V230.66zm23.605 67.025v-66.884h16.212l.42 7.62a36.08 36.08 0 0 1 7.537-5.929 23.751 23.751 0 0 1 12.8-3.106c3.556-.227 7.12.326 10.438 1.618a24.317 24.317 0 0 1 8.76 5.86 29.164 29.164 0 0 1 6.687 20.177v40.64h-17.067v-40.498a13.31 13.31 0 0 0-.763-5.298 13.39 13.39 0 0 0-2.792-4.58 12.239 12.239 0 0 0-4.18-2.705 12.32 12.32 0 0 0-4.921-.823c-2.2-.058-4.388.367-6.403 1.245a14.929 14.929 0 0 0-5.257 3.836 18.118 18.118 0 0 0-4.552 12.559v36.264l-16.919.004z"/>
  <path fill="#FA4A29" d="m464.104 246.605 29.874-44.184h-28.3l-15.502 24.695-15.946-24.695h-31.288l1.421 1.975-.997-.418a63.582 63.582 0 0 0-23.175-4.062 50.655 50.655 0 0 0-26.025 6.634 46.796 46.796 0 0 0-14.365 12.98 40.496 40.496 0 0 0-15.644-11.853 65.288 65.288 0 0 0-26.45-5.098h-36.833v95.107h36.691a64.283 64.283 0 0 0 26.45-5.223 41.778 41.778 0 0 0 15.643-11.71 45.958 45.958 0 0 0 14.647 12.98 51.646 51.646 0 0 0 25.882 6.35 55.244 55.244 0 0 0 24.744-5.361l-1.99 2.964h27.872l18.631-29.225 19.2 29.225H500.5l-36.396-51.081zm-148.042 21.71a25.875 25.875 0 0 1-8.938 5.526 26.02 26.02 0 0 1-10.417 1.53H286.33v-50.777h10.38a25.677 25.677 0 0 1 10.727 1.384 25.529 25.529 0 0 1 9.184 5.672 26.25 26.25 0 0 1 6.4 18.345 24.92 24.92 0 0 1-1.604 9.876 25.065 25.065 0 0 1-5.365 8.469l.009-.025zm101.955 6.939L405.93 263.98a38.727 38.727 0 0 1-10.237 9.185 27.198 27.198 0 0 1-13.654 2.965 25.611 25.611 0 0 1-13.368-3.386 22.93 22.93 0 0 1-8.836-9.453 29.577 29.577 0 0 1-3.13-13.685 29.036 29.036 0 0 1 2.987-13.406 23.352 23.352 0 0 1 8.676-9.452 25.756 25.756 0 0 1 13.793-3.528 24.898 24.898 0 0 1 12.8 3.244 32.19 32.19 0 0 1 9.677 8.767l12.657-12.558 18.488 26.386-17.765 26.194z"/>
</svg>
