<?xml version="1.0" encoding="utf-8"?>
<!-- Generator: Adobe Illustrator 26.0.3, SVG Export Plug-In . SVG Version: 6.00 Build 0)  -->
<svg version="1.0" id="katman_1" xmlns="http://www.w3.org/2000/svg" xmlns:xlink="http://www.w3.org/1999/xlink" x="0px" y="0px"
	 viewBox="0 0 800 600" style="enable-background:new 0 0 800 600;" xml:space="preserve">
<style type="text/css">
	.st0{fill:#0052FF;}
	.st1{fill:#FFFFFF;}
</style>
<path class="st0" d="M399.8,69.1L399.8,69.1c127.3,0,230.5,103.2,230.5,230.5l0,0c0,127.3-103.2,230.5-230.5,230.5l0,0
	c-127.3,0-230.5-103.2-230.5-230.5l0,0C169.3,172.3,272.5,69.1,399.8,69.1z"/>
<path class="st1" d="M399.9,380.6c-44.8,0-81-36.3-81-81s36.3-81,81-81c40.1,0,73.4,29.2,79.8,67.5h81.6
	c-6.9-83.2-76.5-148.6-161.5-148.6c-89.5,0-162.1,72.6-162.1,162.1s72.6,162.1,162.1,162.1c85,0,154.6-65.4,161.5-148.6h-81.7
	C473.2,351.4,440,380.6,399.9,380.6z"/>
</svg>
