<svg xmlns="http://www.w3.org/2000/svg" fill="none" viewBox="0 0 500 500">
  <path fill="#182954" d="m75.705 269.386 12.606 10.812a40.902 40.902 0 0 1-8.642 8.853 53.365 53.365 0 0 1-13.599 7.73 45.769 45.769 0 0 1-16.998 3.094 49.02 49.02 0 0 1-25.212-6.466A45.84 45.84 0 0 1 6.72 275.84a50.83 50.83 0 0 1-6.212-25.287 52.621 52.621 0 0 1 3.525-19.394 49.28 49.28 0 0 1 10.2-16.022 46.603 46.603 0 0 1 15.44-10.812 49.626 49.626 0 0 1 19.969-3.938 45.9 45.9 0 0 1 23.51 5.48A49.016 49.016 0 0 1 88.308 219.5l-12.744 11.244A39.368 39.368 0 0 0 64.938 220.2a27.358 27.358 0 0 0-15.296-3.933 27.636 27.636 0 0 0-16.147 4.632 30.695 30.695 0 0 0-10.478 12.508 38.957 38.957 0 0 0-3.688 16.879 36.724 36.724 0 0 0 3.684 16.442 29.719 29.719 0 0 0 10.184 11.793 27.208 27.208 0 0 0 15.44 4.358c4.608.197 9.203-.62 13.456-2.391a27.765 27.765 0 0 0 8.214-5.622l5.381-5.481M93.275 264.047a35.477 35.477 0 0 1 4.535-17.71 34.84 34.84 0 0 1 12.748-12.929 39.497 39.497 0 0 1 18.838-4.778 39.497 39.497 0 0 1 18.838 4.778 34.846 34.846 0 0 1 12.749 12.928 36.889 36.889 0 0 1 4.532 17.709 36.891 36.891 0 0 1-4.532 17.708 36.519 36.519 0 0 1-13.365 13.153 36.875 36.875 0 0 1-18.181 4.837 36.88 36.88 0 0 1-18.203-4.756 36.513 36.513 0 0 1-13.424-13.092 35.479 35.479 0 0 1-4.535-17.707v-.141zm35.979 21.224a16.949 16.949 0 0 0 10.623-3.23c2.804-2.121 5-4.93 6.375-8.151a24.848 24.848 0 0 0 2.124-9.698 24.293 24.293 0 0 0-2.124-9.697 20.265 20.265 0 0 0-6.375-8.15 19.056 19.056 0 0 0-10.623-3.233 19.057 19.057 0 0 0-10.625 3.233 20.118 20.118 0 0 0-6.231 8.009 24.296 24.296 0 0 0-2.125 9.697 24.713 24.713 0 0 0 2.125 9.839 19.985 19.985 0 0 0 6.374 8.15 16.949 16.949 0 0 0 10.624 3.231M168.905 202.628h16.856v17.71h-16.856v-17.71zm0 28.11h16.856v66.758h-16.856v-66.758zM192.416 297.495V230.88h16.147l.42 7.589a35.937 35.937 0 0 1 7.505-5.905 23.656 23.656 0 0 1 12.749-3.094 24.38 24.38 0 0 1 10.396 1.612 24.22 24.22 0 0 1 8.726 5.836 29.047 29.047 0 0 1 6.66 20.097v40.477H238.02v-40.335a13.257 13.257 0 0 0-.76-5.278 13.337 13.337 0 0 0-2.78-4.561 12.19 12.19 0 0 0-4.164-2.694 12.27 12.27 0 0 0-4.902-.82 14.974 14.974 0 0 0-6.377 1.24 14.87 14.87 0 0 0-5.236 3.82 18.046 18.046 0 0 0-4.534 12.51v36.118l-16.851.004z"/>
  <path fill="#FA4A29" d="m463.25 246.618 29.754-44.007h-28.187l-15.44 24.596-15.883-24.596h-31.163l1.416 1.967-.993-.416a63.329 63.329 0 0 0-23.083-4.046 50.453 50.453 0 0 0-25.92 6.607 46.609 46.609 0 0 0-14.308 12.929 40.334 40.334 0 0 0-15.582-11.806 65.028 65.028 0 0 0-26.344-5.077h-36.686v94.727h36.544a64.026 64.026 0 0 0 26.344-5.202A41.612 41.612 0 0 0 339.3 280.63c3.87 5.299 8.846 9.709 14.59 12.928a51.44 51.44 0 0 0 25.777 6.325 55.023 55.023 0 0 0 24.646-5.34l-1.982 2.953h27.76l18.558-29.108 19.122 29.108h31.73l-36.252-50.878zm-147.452 21.624a25.772 25.772 0 0 1-8.902 5.504 25.916 25.916 0 0 1-10.376 1.523h-10.334v-50.573h10.338c3.62-.305 7.264.165 10.685 1.378a25.427 25.427 0 0 1 9.147 5.65 26.146 26.146 0 0 1 6.374 18.271 24.821 24.821 0 0 1-1.597 9.836 24.965 24.965 0 0 1-5.343 8.436l.008-.025zm101.549 6.911-12.04-11.228a38.572 38.572 0 0 1-10.197 9.149 27.09 27.09 0 0 1-13.6 2.952 25.509 25.509 0 0 1-13.314-3.372 22.838 22.838 0 0 1-8.8-9.415 29.459 29.459 0 0 1-3.118-13.63c-.091-4.623.929-9.2 2.975-13.353a23.258 23.258 0 0 1 8.642-9.415 25.653 25.653 0 0 1 13.738-3.513 24.798 24.798 0 0 1 12.748 3.23 32.061 32.061 0 0 1 9.639 8.733l12.606-12.508 18.415 26.28-17.694 26.09z"/>
</svg>
