<?xml version="1.0" encoding="utf-8"?>
<!-- Generator: Adobe Illustrator 27.0.0, SVG Export Plug-In . SVG Version: 6.00 Build 0)  -->
<svg version="1.1" id="Layer_1" xmlns="http://www.w3.org/2000/svg" xmlns:xlink="http://www.w3.org/1999/xlink" x="0px" y="0px"
	 viewBox="0 0 30 30" style="enable-background:new 0 0 30 30;" xml:space="preserve">
<style type="text/css">
	.st0{fill:#C5C8CA;}
	.st1{fill:#9DA4A8;}
	.st2{fill:#B7BBBD;}
	.st3{fill:#CBCFD1;}
	.st4{fill:#BBBFC2;}
	.st5{fill:#CACDCE;}
	.st6{fill:#BFC3C5;}
	.st7{fill:#BCC0C2;}
	.st8{fill:#BDC1C4;}
	.st9{fill:#C7CACC;}
	.st10{fill:url(#SVGID_1_);}
	.st11{fill:#FFFFFF;}
	.st12{fill:#B8BCBF;}
	.st13{fill:#C4C7C9;}
	.st14{fill:#C1C5C7;}
	.st15{fill:url(#SVGID_00000003093454306001190100000011813141018663887528_);}
	.st16{fill:url(#SVGID_00000017503418065689336600000007511615486600436881_);}
	.st17{fill:url(#SVGID_00000057845154053127761930000017803385842445649033_);}
	.st18{fill:url(#SVGID_00000156571711195124538550000006687723982713171592_);}
	.st19{fill:#DF3030;}
	.st20{fill:url(#SVGID_00000001636660173574603980000008731795684331757470_);}
	.st21{fill:#17181C;}
	.st22{fill:url(#SVGID_00000180343933242210086490000003762167186865041053_);}
	.st23{fill:url(#SVGID_00000015338415700440354440000005681408021599925436_);}
</style>
<g>
	<path class="st0" d="M14.4,29.5c0.1,0,0.1,0,0.2,0c0.1,0,0.2,0,0.2,0H14.4z"/>
	<path class="st1" d="M15.3,29.5h0.1c0,0,0,0,0,0c0,0,0,0,0,0c0,0,0,0,0,0c0,0,0,0,0,0c0,0,0,0,0,0L15.3,29.5
		C15.2,29.5,15.3,29.5,15.3,29.5z"/>
	<path class="st2" d="M15.3,29.5L15.3,29.5l-0.2,0C15.2,29.5,15.2,29.5,15.3,29.5z"/>
	<path class="st3" d="M15.5,29.5L15.5,29.5L15.5,29.5L15.5,29.5L15.5,29.5z"/>
	<path class="st0" d="M14.1,29.5c0.1,0,0.1,0,0.2,0H14.1z"/>
	<path class="st4" d="M13.9,29.5C13.9,29.5,14,29.5,13.9,29.5c0.1,0,0.1,0,0.2,0H13.9z"/>
	<path class="st5" d="M13.6,29.5C13.6,29.5,13.6,29.5,13.6,29.5c0.1,0,0.1,0,0.1,0H13.6z"/>
	<path class="st6" d="M13.7,29.5C13.8,29.5,13.8,29.5,13.7,29.5c0.1,0,0.1,0,0.1,0H13.7z"/>
	<path class="st7" d="M13.3,29.4C13.3,29.4,13.3,29.4,13.3,29.4C13.4,29.4,13.4,29.4,13.3,29.4L13.3,29.4z"/>
	<path class="st8" d="M13.4,29.5C13.4,29.4,13.5,29.4,13.4,29.5C13.5,29.4,13.5,29.4,13.4,29.5L13.4,29.5z"/>
	<path class="st8" d="M13.1,29.4C13.1,29.4,13.1,29.4,13.1,29.4C13.1,29.4,13.1,29.4,13.1,29.4L13.1,29.4z"/>
	<path class="st9" d="M13.2,29.4C13.2,29.4,13.2,29.4,13.2,29.4C13.2,29.4,13.2,29.4,13.2,29.4C13.2,29.4,13.2,29.4,13.2,29.4
		C13.3,29.4,13.3,29.4,13.2,29.4L13.2,29.4z"/>
	
		<linearGradient id="SVGID_1_" gradientUnits="userSpaceOnUse" x1="21.8812" y1="-88.078" x2="8.2545" y2="-104.6955" gradientTransform="matrix(1 0 0 -1 0 -81.48)">
		<stop  offset="0" style="stop-color:#020037"/>
		<stop  offset="1" style="stop-color:#050F62"/>
	</linearGradient>
	<path class="st10" d="M15,0.4C11.1,0.4,7.5,2,4.7,4.7C2,7.4,0.5,11.1,0.5,15c0,1.7,0.3,3.4,0.9,5.1c0.3,0,0.5,0,0.8,0
		c2.9,0,5.8,0.9,8.2,2.6c2.4,1.7,4.2,4.1,5.1,6.9c3.8-0.1,7.4-1.7,10-4.4c2.6-2.7,4.1-6.4,4.1-10.1c0-3.9-1.5-7.6-4.3-10.3
		C22.6,2,18.9,0.4,15,0.4"/>
	<path class="st11" d="M20.7,22.5C20.7,22.5,20.7,22.5,20.7,22.5L20.7,22.5c0,0.4,0.1,0.8,0.3,1c0.2,0.2,0.6,0.3,1,0.3c0,0,0,0,0,0
		c0,0,0,0,0,0c0,0,0,0,0,0c0,0,0,0,0,0c0,0,0,0,0,0l0,0c-0.4,0-0.7,0.1-1,0.3c-0.2,0.2-0.3,0.6-0.3,1c0,0,0,0,0,0c0,0,0,0,0,0
		c0,0,0,0,0,0c0,0,0,0,0,0h0l0,0c0-0.4-0.1-0.7-0.3-1c-0.2-0.2-0.6-0.3-1-0.3c0,0,0,0,0,0l0,0c0,0,0,0,0,0s0,0,0,0c0,0,0,0,0,0
		c0,0,0,0,0,0c0.4,0,0.7-0.1,1-0.3S20.7,22.9,20.7,22.5C20.7,22.5,20.7,22.5,20.7,22.5C20.7,22.5,20.7,22.5,20.7,22.5z"/>
	<path class="st11" d="M6.9,15.5C6.9,15.5,6.9,15.5,6.9,15.5L6.9,15.5c0,0.4,0.1,0.8,0.3,1c0.2,0.2,0.6,0.3,1,0.3c0,0,0,0,0,0
		c0,0,0,0,0,0c0,0,0,0,0,0c0,0,0,0,0,0c0,0,0,0,0,0l0,0c-0.4,0-0.7,0.1-1,0.3c-0.2,0.2-0.3,0.6-0.3,1c0,0,0,0,0,0c0,0,0,0,0,0
		c0,0,0,0,0,0c0,0,0,0,0,0h0l0,0c0-0.4-0.1-0.7-0.3-1c-0.2-0.2-0.6-0.3-1-0.3c0,0,0,0,0,0l0,0c0,0,0,0,0,0c0,0,0,0,0,0c0,0,0,0,0,0
		c0,0,0,0,0,0c0.4,0,0.7-0.1,1-0.3C6.8,16.2,6.9,15.9,6.9,15.5C6.9,15.5,6.9,15.5,6.9,15.5C6.9,15.5,6.9,15.5,6.9,15.5z"/>
	<path class="st11" d="M10.6,4.1L10.6,4.1C10.7,4.1,10.7,4.1,10.6,4.1c0,0.3,0.1,0.5,0.3,0.7c0.2,0.2,0.4,0.3,0.7,0.2h0v0l0,0l0,0
		l0,0l0,0c-0.3,0-0.5,0.1-0.7,0.2c-0.2,0.2-0.3,0.4-0.2,0.7l0,0l0,0l0,0l0,0h0v0c0-0.3-0.1-0.5-0.2-0.7C10.2,5.1,10,5,9.7,5.1h0v0v0
		h0C10,5,10.2,5,10.4,4.8C10.6,4.6,10.7,4.3,10.6,4.1C10.6,4.1,10.6,4.1,10.6,4.1C10.6,4.1,10.6,4.1,10.6,4.1z"/>
	<path class="st12" d="M12.8,29.4C12.8,29.4,12.8,29.4,12.8,29.4C12.8,29.4,12.8,29.4,12.8,29.4C12.8,29.4,12.8,29.4,12.8,29.4
		C12.8,29.4,12.8,29.4,12.8,29.4L12.8,29.4z"/>
	<path class="st13" d="M13,29.4C13,29.4,13,29.4,13,29.4C13,29.4,13,29.4,13,29.4L13,29.4z"/>
	<path class="st14" d="M12.9,29.4C12.9,29.4,12.9,29.4,12.9,29.4C12.9,29.4,12.9,29.4,12.9,29.4L12.9,29.4z"/>
	
		<linearGradient id="SVGID_00000173122186048074043340000017421439166240502921_" gradientUnits="userSpaceOnUse" x1="19.2457" y1="-89.3156" x2="22.9553" y2="-91.7188" gradientTransform="matrix(1 0 0 -1 0 -81.48)">
		<stop  offset="0" style="stop-color:#E5E5E5"/>
		<stop  offset="1" style="stop-color:#B7B8C1"/>
	</linearGradient>
	<path style="fill:url(#SVGID_00000173122186048074043340000017421439166240502921_);" d="M21.8,1.2c-1.4,0.7-3,1.9-4.4,4.2
		c-2.5,3.9-3.2,7.4-3.2,7.4L16,14l0.3,0.2l1.9,1.2c0,0,2.9-2,5.4-5.9c1.5-2.3,2-4.3,2-5.8c-0.8-0.1-1.5-0.4-2.2-0.8
		C22.8,2.5,22.2,1.9,21.8,1.2z"/>
	
		<linearGradient id="SVGID_00000127763695479642710240000017533313096818365313_" gradientUnits="userSpaceOnUse" x1="21.2378" y1="-99.9826" x2="19.0472" y2="-97.8815" gradientTransform="matrix(1 0 0 -1 0 -81.48)">
		<stop  offset="0" style="stop-color:#EC4F4F"/>
		<stop  offset="1" style="stop-color:#A91919"/>
	</linearGradient>
	<path style="fill:url(#SVGID_00000127763695479642710240000017533313096818365313_);" d="M20.8,16.8c0.9-1.4,0.3-3.2,0-3.8
		c-0.7,0.8-1.5,1.5-2.3,2.1c0.1,0.4,0.3,0.8,0.3,1.2c0,0.1,0,0.2-0.1,0.3c-0.4,0.6-0.8,1.3-1.1,2c-0.1,0.1-0.1,0.2-0.1,0.3
		c-0.1,0.2-0.1,0.3,0,0.5c0,0.3,0.2,0.5,0.3,0.8c0,0,0.1,0.1,0.1,0.1c0.1,0,0.1,0.1,0.2,0.1s0.1,0,0.2-0.1c0.1-0.1,0.3-0.2,0.4-0.4
		C19.5,19,19.8,18.5,20.8,16.8z"/>
	
		<linearGradient id="SVGID_00000060717637781723915790000002744012061535479481_" gradientUnits="userSpaceOnUse" x1="11.3158" y1="-99.2586" x2="14.8122" y2="-101.5237" gradientTransform="matrix(1 0 0 -1 0 -81.48)">
		<stop  offset="0" style="stop-color:#F2A518"/>
		<stop  offset="1" style="stop-color:#F4E23E"/>
	</linearGradient>
	<path style="fill:url(#SVGID_00000060717637781723915790000002744012061535479481_);" d="M15.1,15.7l-1.7-1.1c-2,3.1-3.3,7-2.4,7.5
		c0.9,0.6,3.9-2.2,5.9-5.3L15.1,15.7z"/>
	
		<linearGradient id="SVGID_00000070084874335106853820000008402293642909580433_" gradientUnits="userSpaceOnUse" x1="-4386.2534" y1="747.6443" x2="-4497.9517" y2="769.0099" gradientTransform="matrix(1 0 0 -1 0 -81.48)">
		<stop  offset="0" style="stop-color:#EC4F4F"/>
		<stop  offset="1" style="stop-color:#A91919"/>
	</linearGradient>
	<path style="fill:url(#SVGID_00000070084874335106853820000008402293642909580433_);" d="M15.2,9.5c-0.7-0.1-2.5,0.1-3.4,1.5
		c-1.1,1.6-1.5,2.1-2,3.2c-0.1,0.2-0.1,0.3-0.2,0.5c0,0.1,0,0.1,0,0.2C9.6,15,9.7,15,9.7,15c0,0,0.1,0,0.2,0.1c0.3,0.1,0.6,0,0.8,0
		c0.2,0,0.3-0.1,0.4-0.2c0.1-0.1,0.2-0.2,0.3-0.3c0.5-0.6,0.9-1.2,1.3-1.8c0.1-0.1,0.2-0.2,0.3-0.2c0.4-0.1,0.8-0.1,1.2-0.2l0,0
		C14.5,11.4,14.8,10.4,15.2,9.5z"/>
	<path class="st19" d="M25,0.6c-0.2-0.1-1.5-0.2-3.2,0.7c0.4,0.7,1,1.2,1.6,1.7c0.7,0.4,1.4,0.7,2.2,0.8C25.7,1.9,25.1,0.7,25,0.6z"
		/>
	<path class="st19" d="M18.4,15.5L14,12.7c-0.1,0-0.1,0-0.2,0l-0.9,1.4c0,0.1,0,0.1,0,0.2l4.4,2.8c0.1,0,0.1,0,0.2,0l0.9-1.4
		C18.4,15.6,18.4,15.6,18.4,15.5z"/>
	
		<linearGradient id="SVGID_00000044894753735506851200000013592864944465274029_" gradientUnits="userSpaceOnUse" x1="14.9436" y1="-95.9217" x2="16.3716" y2="-96.8468" gradientTransform="matrix(1 0 0 -1 0 -81.48)">
		<stop  offset="0" style="stop-color:#B71E1E"/>
		<stop  offset="0.44" style="stop-color:#DF3030"/>
		<stop  offset="1" style="stop-color:#C51D1D"/>
	</linearGradient>
	<path style="fill:url(#SVGID_00000044894753735506851200000013592864944465274029_);" d="M17.8,11.6c-0.4-0.2-2.1,1.6-3.2,3.3
		c-0.8,1.2-1.4,3-1.1,3.2c0.4,0.2,1.7-1,2.5-2.3C17.1,14.2,18.1,11.9,17.8,11.6z"/>
	<path class="st21" d="M21.2,8.6c1.3,0,2.3-1,2.3-2.3s-1-2.3-2.3-2.3c-1.3,0-2.3,1-2.3,2.3S20,8.6,21.2,8.6z"/>
	
		<linearGradient id="SVGID_00000090987122570624474440000002432161440392897685_" gradientUnits="userSpaceOnUse" x1="20.068" y1="-87.0655" x2="22.3556" y2="-88.5473" gradientTransform="matrix(1 0 0 -1 0 -81.48)">
		<stop  offset="0" style="stop-color:#CED1EC"/>
		<stop  offset="1" style="stop-color:#FFFFFF"/>
	</linearGradient>
	<path style="fill:url(#SVGID_00000090987122570624474440000002432161440392897685_);" d="M21.2,7.7c0.8,0,1.4-0.6,1.4-1.4
		S22,5,21.2,5c-0.8,0-1.4,0.6-1.4,1.4S20.5,7.7,21.2,7.7z"/>
	
		<linearGradient id="SVGID_00000044151119195171880090000016489263670362291109_" gradientUnits="userSpaceOnUse" x1="14.4192" y1="-110.4727" x2="2.0973" y2="-101.7197" gradientTransform="matrix(1 0 0 -1 0 -81.48)">
		<stop  offset="0" style="stop-color:#B7B7BD"/>
		<stop  offset="0.68" style="stop-color:#EFEFEF"/>
	</linearGradient>
	<path style="fill:url(#SVGID_00000044151119195171880090000016489263670362291109_);" d="M2.1,20c-0.3,0-0.5,0-0.8,0
		c1,2.8,2.9,5.2,5.3,6.9s5.3,2.6,8.3,2.6c0.1,0,0.3,0,0.4,0c-0.9-2.8-2.7-5.2-5.1-6.9C7.9,20.9,5.1,20,2.1,20z"/>
</g>
</svg>
