<?xml version="1.0" encoding="UTF-8"?>
<svg version="1.1" xmlns="http://www.w3.org/2000/svg" width="464" height="464">
<path d="M0 0 C0.8939447 -0.00067474 1.7878894 -0.00134949 2.70892334 -0.00204468 C16.2805355 0.01422313 29.41164925 0.55527652 42.75 3.25 C43.6260791 3.41628906 44.5021582 3.58257812 45.40478516 3.75390625 C87.03111375 11.76610281 124.10787271 31.41871187 155.75 59.25 C156.74257813 60.11882813 157.73515625 60.98765625 158.7578125 61.8828125 C164.18223795 66.71601991 169.10589996 71.67319368 173.75 77.25 C174.59304688 78.21679688 175.43609375 79.18359375 176.3046875 80.1796875 C216.05219286 125.88059445 235.22559137 186.33089501 231.54785156 246.56054688 C228.00767396 292.11528508 212.35636492 336.34978797 183.75 372.25 C183.06808594 373.12398438 182.38617188 373.99796875 181.68359375 374.8984375 C143.90732005 422.34488071 88.69851938 453.7125829 28.24511719 460.65234375 C-34.37189258 466.81196118 -95.92023521 450.38447219 -145.32373047 410.84912109 C-150.63059762 406.44354697 -155.62331058 401.69957299 -160.56298828 396.89013672 C-162.11230568 395.38386838 -163.67658294 393.8953131 -165.24609375 392.41015625 C-172.34316289 385.55468946 -178.35256425 378.1277555 -184.25 370.25 C-184.87406738 369.43305664 -184.87406738 369.43305664 -185.51074219 368.59960938 C-221.70234035 321.12863129 -236.255038 259.54945873 -229.125 200.625 C-223.65339389 160.98806158 -208.5347753 121.51559714 -183.25 90.25 C-182.6209375 89.43144531 -181.991875 88.61289063 -181.34375 87.76953125 C-175.73595711 80.54145393 -169.54040683 73.88109081 -163.25 67.25 C-162.53714844 66.49460937 -161.82429688 65.73921875 -161.08984375 64.9609375 C-155.86381746 59.57394531 -150.12911839 54.90365572 -144.25 50.25 C-143.27289063 49.4559375 -142.29578125 48.661875 -141.2890625 47.84375 C-132.4373368 40.7980439 -123.02475219 34.92815996 -113.25 29.25 C-112.63463379 28.88664551 -112.01926758 28.52329102 -111.38525391 28.14892578 C-77.7399993 8.43365597 -38.64381278 0.02618084 0 0 Z " fill="#0152FF" transform="translate(231.25,0.75)"/>
<path d="M0 0 C1.15219528 0.00323273 1.15219528 0.00323273 2.32766724 0.00653076 C46.5920503 0.20539431 86.3613979 17.15905335 117.875 48.3125 C129.3506392 59.925572 138.17221165 72.99064893 145.875 87.3125 C146.40867187 88.28574219 146.94234375 89.25898438 147.4921875 90.26171875 C153.97570121 102.57367613 157.87724071 115.31499682 160.75 128.875 C160.965354 129.88594727 161.18070801 130.89689453 161.40258789 131.93847656 C162.5567448 137.69444587 162.875 142.26232321 162.875 148.3125 C135.815 148.3125 108.755 148.3125 80.875 148.3125 C78.895 140.3925 78.895 140.3925 76.875 132.3125 C73.01912026 122.99682416 67.61430699 114.79765915 60.875 107.3125 C60.28460938 106.62929687 59.69421875 105.94609375 59.0859375 105.2421875 C45.82581396 90.8535428 26.25081675 82.81513123 6.9296875 81.94140625 C-15.82776053 81.49114274 -33.37630167 86.44103207 -51.125 101.3125 C-51.95386719 101.95058594 -52.78273438 102.58867187 -53.63671875 103.24609375 C-67.01650901 114.35741093 -76.32245113 133.7719616 -77.95727539 150.94946289 C-78.7845932 162.6053713 -79.02063903 174.17097236 -75.125 185.3125 C-74.76148438 186.38886719 -74.39796875 187.46523438 -74.0234375 188.57421875 C-66.85648891 208.47984048 -53.16199311 224.73833972 -34.125 234.3125 C-22.24116835 239.47938333 -12.28408945 241.65925979 0.625 241.625 C1.82382813 241.64111328 3.02265625 241.65722656 4.2578125 241.67382812 C15.13116783 241.67972474 24.94707086 239.60770873 34.875 235.1875 C35.88445679 234.73963135 35.88445679 234.73963135 36.91430664 234.28271484 C43.60090916 231.18170478 49.2920051 227.12007895 54.875 222.3125 C55.67421875 221.62542969 56.4734375 220.93835938 57.296875 220.23046875 C70.17339685 208.26418379 77.47881348 192.2934326 80.875 175.3125 C107.935 175.3125 134.995 175.3125 162.875 175.3125 C161.72034654 193.78695543 161.72034654 193.78695543 159.6875 200.25 C159.46682861 200.9910498 159.24615723 201.73209961 159.01879883 202.49560547 C158.32779264 204.77609494 157.60642624 207.04468382 156.875 209.3125 C156.64651367 210.03614746 156.41802734 210.75979492 156.18261719 211.50537109 C148.20098681 236.50582439 134.68330188 257.13677494 116.875 276.3125 C116.2975 276.95574219 115.72 277.59898437 115.125 278.26171875 C104.08045348 290.02120243 90.19356562 299.0741488 75.875 306.3125 C75.23820313 306.63444336 74.60140625 306.95638672 73.9453125 307.28808594 C59.11895893 314.67856932 44.1525632 319.43429789 27.875 322.3125 C26.85817139 322.49256592 26.85817139 322.49256592 25.82080078 322.67626953 C7.12014261 325.83144721 -11.58008855 324.89065948 -30.125 321.3125 C-31.21240479 321.11164795 -31.21240479 321.11164795 -32.32177734 320.90673828 C-60.31415204 315.60636896 -84.60079698 301.51463953 -106.125 283.3125 C-106.78242187 282.77882813 -107.43984375 282.24515625 -108.1171875 281.6953125 C-112.64277216 277.97427622 -116.35828242 273.78690391 -120.125 269.3125 C-120.87652344 268.47203125 -121.62804687 267.6315625 -122.40234375 266.765625 C-139.33234936 247.40176393 -151.77531886 222.450249 -157.125 197.3125 C-157.40601563 196.06210937 -157.68703125 194.81171875 -157.9765625 193.5234375 C-162.26681816 172.32844099 -162.35863192 147.32944708 -157.125 126.3125 C-156.95871094 125.59320313 -156.79242188 124.87390625 -156.62109375 124.1328125 C-153.836591 112.21101554 -149.47578439 101.30049164 -144.125 90.3125 C-143.81191895 89.65652832 -143.49883789 89.00055664 -143.17626953 88.32470703 C-136.1444676 73.7287857 -126.31185167 60.98489211 -115.125 49.3125 C-114.320625 48.44496094 -113.51625 47.57742187 -112.6875 46.68359375 C-92.86548432 25.94716961 -67.14696372 12.28214517 -39.75 4.4375 C-39.08605225 4.24623535 -38.42210449 4.0549707 -37.73803711 3.85791016 C-25.30600388 0.53525727 -12.78348897 -0.06474055 0 0 Z " fill="#FEFEFF" transform="translate(230.125,69.6875)"/>
<path d="M0 0 C0.66 0.33 1.32 0.66 2 1 C-6.91 9.91 -15.82 18.82 -25 28 C-25.66 27.67 -26.32 27.34 -27 27 C-18.40135601 17.51620148 -9.76517923 8.31079083 0 0 Z " fill="#2B6FFF" transform="translate(84,53)"/>
</svg>
