<svg xmlns="http://www.w3.org/2000/svg" viewBox="0 0 500 429.163">
  <path fill="#ed1c24" d="M338.928 121.944V0L216.433 122.274l-101.877.276-81.7-81.479v265.497c0 67.698 54.908 122.396 122.606 122.164l183.797-.496V121.944h-.331Z"/>
  <path fill="#fff" d="M302.198 168.45v96.385c0 2.55-2.07 4.626-4.62 4.633l-223.069.597a4.607 4.607 0 0 1-4.62-4.607v-96.386c0-2.55 2.07-4.626 4.62-4.633l223.07-.597a4.607 4.607 0 0 1 4.62 4.607Z"/>
  <circle cx="398.589" cy="-49.921" r="3.7" transform="matrix(11.0256 -.02954 0 11.0256 -4149.714 778.981)"/>
  <path fill="#ed1c24" d="M126.464 185.032c25.458-.066 41.368 27.454 28.645 49.539-12.735 22.084-44.566 22.172-57.289.154a32.944 32.944 0 0 1-4.433-16.527c0-18.27 14.808-33.121 33.077-33.166m0-8.159c-31.489 0-51.269 34.081-35.591 61.358 15.668 27.267 55.029 27.267 70.851-.011a41.024 41.024 0 0 0 5.535-20.552c-.066-22.503-18.291-40.695-40.795-40.684v-.111Z"/>
  <path fill="#fff" d="M204.416 300.813a4.08 4.08 0 0 0-5.844.011l-12.459 12.492-12.569-12.415c-1.963-2.459-5.844-1.863-6.991 1.069a4.078 4.078 0 0 0 1.257 4.675l14.223 14.179v27.785a4.061 4.061 0 0 0 4.08 4.068 4.212 4.212 0 0 0 4.079-4.09v-27.785l14.224-14.256a4.087 4.087 0 0 0 0-5.733ZM18.744 316.965l82.692-.22c1.698 0 3.087-1.4 3.087-3.098a2.968 2.968 0 0 0-3.087-3.077l-82.692.221a2.992 2.992 0 0 0-3.088 3.098 3.073 3.073 0 0 0 3.088 3.076Zm98.348 8.336-114.005.308A3.092 3.092 0 0 0 0 328.708a3.183 3.183 0 0 0 3.087 3.076l114.005-.309c1.676-.055 3.032-1.422 3.088-3.098a3.08 3.08 0 0 0-3.088-3.076Zm-15.656 14.818-82.692.221a2.992 2.992 0 0 0-3.088 3.098 3.073 3.073 0 0 0 3.088 3.076l82.692-.22c1.698 0 3.087-1.401 3.087-3.099a2.967 2.967 0 0 0-3.087-3.076Zm169.905-26.913 82.803-.221c2.37-.011 3.859-2.591 2.668-4.642a3.037 3.037 0 0 0-2.668-1.532l-82.803.22c-2.381 0-3.87 2.58-2.679 4.631a3.112 3.112 0 0 0 2.679 1.544Zm98.349 8.335-113.895.309c-2.382 0-3.87 2.569-2.679 4.63a3.109 3.109 0 0 0 2.679 1.544l113.895-.309c2.37-.011 3.859-2.591 2.668-4.641a3.058 3.058 0 0 0-2.668-1.533Zm-15.546 14.818-82.803.221c-2.381 0-3.87 2.58-2.679 4.631a3.111 3.111 0 0 0 2.679 1.543l82.803-.22c2.37-.011 3.859-2.591 2.668-4.642a3.038 3.038 0 0 0-2.668-1.533Z"/>
  <path fill="#ed1c24" d="M489.539 202.475c-10.96-29.769-50.068-36.418-70.388-11.974a41.32 41.32 0 0 0-9.548 26.186 42.238 42.238 0 0 0 3.308 16.307 131.816 131.816 0 0 1 7.828 44.963c-.066 74.103-60.189 134.292-134.293 134.435a138.323 138.323 0 0 1-35.282-4.2c112.98 62.151 251.209-21.478 248.805-150.556a167.628 167.628 0 0 0-10.43-55.161Z"/>
</svg>