<svg xmlns="http://www.w3.org/2000/svg" viewBox="0 0 500 333.333">
  <path fill="#5FD800" d="M239.585 333.333c0-86.296-69.955-156.25-156.252-156.25H0c0 86.295 69.955 156.25 156.252 156.25h83.333Zm104.163 0c86.296 0 156.252-69.955 156.252-156.25h-83.333c-86.297 0-156.252 69.954-156.252 156.25h83.333ZM83.333 156.253c86.297 0 156.252-69.957 156.252-156.253h-83.333C69.955 0 0 69.956 0 156.252h83.333Zm416.667 0C500 69.955 430.044 0 343.748 0h-83.333c0 86.296 69.955 156.252 156.252 156.252H500Z"/>
</svg>
