<svg xmlns="http://www.w3.org/2000/svg" width="349" height="289" viewBox="0 0 349 289" version="1.1"><path d="" stroke="none" fill="#f05c54" fill-rule="evenodd"/><path d="M 239.500 5.541 C 205.730 9.902, 171.702 22.773, 146.551 40.697 C 125.629 55.608, 103.242 80.036, 90.251 102.131 C 83.727 113.228, 76.448 129.673, 73.378 140.250 C 71.855 145.501, 70.437 150.315, 66.679 163 C 65.294 167.675, 62.815 176.450, 61.169 182.500 C 59.524 188.550, 57.071 197.325, 55.718 202 C 54.365 206.675, 50.676 219.725, 47.521 231 C 44.366 242.275, 40.532 255.775, 39.001 261 C 37.470 266.225, 35.995 271.400, 35.722 272.500 C 35.450 273.600, 34.927 275.223, 34.561 276.107 C 33.745 278.077, 36.477 279.236, 47 281.382 C 97.602 291.700, 156.970 279.284, 201 249.173 C 221.648 235.052, 240.499 215.912, 253.638 195.726 C 262.663 181.860, 272.732 160.215, 276.073 147.500 C 276.507 145.850, 277.599 142.025, 278.500 139 C 279.402 135.975, 280.966 130.575, 281.977 127 C 285.631 114.068, 290.042 98.385, 291.539 93 C 292.380 89.975, 293.680 85.475, 294.427 83 C 295.791 78.484, 298.841 67.263, 301.495 57 C 302.277 53.975, 304.994 44.525, 307.533 36 C 313.697 15.306, 314.432 12.032, 313.198 10.798 C 311.811 9.411, 301.685 7.277, 288.038 5.496 C 274.453 3.723, 253.426 3.743, 239.500 5.541" stroke="none" fill="#ec5c54" fill-rule="evenodd"/></svg>