<svg width="40" height="40" viewBox="0 0 40 40" fill="none" xmlns="http://www.w3.org/2000/svg">
<path fill-rule="evenodd" clip-rule="evenodd" d="M26.0543 0C30.07 0 32.0773 0 34.239 0.683333C36.599 1.54233 38.4577 3.401 39.3167 5.761C40 7.92233 40 9.93033 40 13.9457V26.0543C40 30.07 40 32.0773 39.3167 34.239C38.4577 36.599 36.599 38.4577 34.239 39.3163C32.0773 40 30.07 40 26.0543 40H13.9457C9.93 40 7.92233 40 5.761 39.3163C3.401 38.4577 1.54233 36.599 0.683333 34.239C0 32.0773 0 30.07 0 26.0543V13.9457C0 9.93033 0 7.92233 0.683333 5.761C1.54233 3.401 3.401 1.54233 5.761 0.683333C7.92233 0 9.93 0 13.9457 0H26.0543Z" fill="#0B1426"/>
<mask id="mask0" style="mask-type:alpha" maskUnits="userSpaceOnUse" x="0" y="0" width="40" height="40">
<path fill-rule="evenodd" clip-rule="evenodd" d="M26.0543 0C30.07 0 32.0773 0 34.239 0.683333C36.599 1.54233 38.4577 3.401 39.3167 5.761C40 7.92233 40 9.93033 40 13.9457V26.0543C40 30.07 40 32.0773 39.3167 34.239C38.4577 36.599 36.599 38.4577 34.239 39.3163C32.0773 40 30.07 40 26.0543 40H13.9457C9.93 40 7.92233 40 5.761 39.3163C3.401 38.4577 1.54233 36.599 0.683333 34.239C0 32.0773 0 30.07 0 26.0543V13.9457C0 9.93033 0 7.92233 0.683333 5.761C1.54233 3.401 3.401 1.54233 5.761 0.683333C7.92233 0 9.93 0 13.9457 0H26.0543Z" fill="white"/>
</mask>
<g mask="url(#mask0)">
<rect width="40" height="40" fill="#0B1426"/>
<path fill-rule="evenodd" clip-rule="evenodd" d="M34 12V28L19.9548 36L6 28V12L19.9548 4L34 12ZM7.16742 12.6629V27.2654L19.9548 34.5666L32.7149 27.2654V12.6629L19.9548 5.37066L7.16742 12.6629Z" fill="white"/>
<path d="M25.4131 10.9091H14.5243L13.2727 16.7179L26.7273 16.7273L25.4131 10.9091Z" fill="white"/>
<path d="M16.6138 20.5837L13.3383 18.5454L9.63635 21.2396L14.6903 29.8182H16.7046L19.0909 27.6381V26.5569L16.6138 24.235V20.5837Z" fill="white"/>
<path d="M27.013 18.5454L23.755 20.6103V24.2616L21.2727 26.5746L21.2818 27.6735L23.682 29.8182H25.6806L30.7273 21.2661L27.013 18.5454Z" fill="white"/>
<path d="M16.5454 17.4546L17.7698 20.5489L17.3924 24L22.9712 23.9911L22.6214 20.5489L23.8181 17.4546H16.5454Z" fill="white"/>
</g>
</svg>
