<?xml version="1.0" encoding="UTF-8" standalone="no"?>
<svg
   xmlns:dc="http://purl.org/dc/elements/1.1/"
   xmlns:cc="http://creativecommons.org/ns#"
   xmlns:rdf="http://www.w3.org/1999/02/22-rdf-syntax-ns#"
   xmlns:svg="http://www.w3.org/2000/svg"
   xmlns="http://www.w3.org/2000/svg"
   xmlns:xlink="http://www.w3.org/1999/xlink"
   xmlns:sodipodi="http://sodipodi.sourceforge.net/DTD/sodipodi-0.dtd"
   xmlns:inkscape="http://www.inkscape.org/namespaces/inkscape"
   width="190.76459mm"
   height="36.247917mm"
   viewBox="0 0 190.76459 36.247917"
   version="1.1"
   id="svg8"
   inkscape:version="0.92.5 (2060ec1f9f, 2020-04-08)"
   sodipodi:docname="crypto.com logo.svg">
  <defs
     id="defs2">
    <path
       d="m 70.1,264.3 v 24.9 h 19.6 l 4.7,20 H 70.1 v 3 h 12.8 l -4.2,11.2 1.2,12.5 h -9.8 v 43.6 L 120,350.7 V 293.1 Z M 83,323.5 v 0 l 11.5,-7.5 13.1,9.9 -17.8,31.1 h -7.1 l -8.5,-7.8 v -4 l 8.8,-8.4 z"
       id="SVGID_1_"
       inkscape:connector-curvature="0" />
    <path
       d="m 70.1,264.3 -49.9,28.8 v 57.6 l 49.9,28.8 V 336 h -9.7 l 1.3,-12.5 -4.3,-11.2 h 12.7 v -3 H 45.9 l 4.6,-20 h 19.7 v -25 z m -37.5,61.6 v 0 l 13.2,-9.8 11.6,7.4 v 13.3 l 8.8,8.4 v 4 l -8.5,7.9 h -7.2 z"
       id="SVGID_3_"
       inkscape:connector-curvature="0" />
  </defs>
  <sodipodi:namedview
     id="base"
     pagecolor="#ffffff"
     bordercolor="#666666"
     borderopacity="1.0"
     inkscape:pageopacity="0.0"
     inkscape:pageshadow="2"
     inkscape:zoom="1.1894531"
     inkscape:cx="232.13793"
     inkscape:cy="3.8725744"
     inkscape:document-units="mm"
     inkscape:current-layer="layer1"
     showgrid="false"
     fit-margin-top="0"
     fit-margin-left="0"
     fit-margin-right="0"
     fit-margin-bottom="0"
     inkscape:window-width="1920"
     inkscape:window-height="1017"
     inkscape:window-x="1912"
     inkscape:window-y="70"
     inkscape:window-maximized="1" />
  <metadata
     id="metadata5">
    <rdf:RDF>
      <cc:Work
         rdf:about="">
        <dc:format>image/svg+xml</dc:format>
        <dc:type
           rdf:resource="http://purl.org/dc/dcmitype/StillImage" />
        <dc:title></dc:title>
      </cc:Work>
    </rdf:RDF>
  </metadata>
  <g
     inkscape:label="Layer 1"
     inkscape:groupmode="layer"
     id="layer1"
     transform="translate(-5.3750828,-113.61004)">
    <g
       id="g903"
       transform="matrix(0.31794097,0,0,0.31465205,-1.0473248,30.447499)">
      <path
         id="path817"
         d="m 70.1,264.3 -49.9,28.8 v 57.6 l 49.9,28.8 49.9,-28.8 v -57.6 z m 0,0 -49.9,28.8 v 57.6 l 49.9,28.8 49.9,-28.8 v -57.6 z"
         class="st0"
         inkscape:connector-curvature="0"
         style="fill:#ffffff" />
      <path
         id="path819"
         d="m 89.8,357 h -7.1 l -8.5,-7.8 v -4 l 8.8,-8.4 v -13.3 l 11.5,-7.5 13.1,9.9 z m -29.4,-21 1.3,-12.5 -4.3,-11.2 h 25.4 l -4.2,11.2 1.2,12.5 H 70 Z m 5.8,13.2 -8.5,7.9 h -7.2 l -17.9,-31.2 13.2,-9.8 11.6,7.4 v 13.3 l 8.8,8.4 z m -15.8,-60 h 39.3 l 4.7,20 H 45.8 Z m 19.7,-24.9 -49.9,28.8 v 57.6 l 49.9,28.8 49.9,-28.8 v -57.6 z"
         class="st1"
         inkscape:connector-curvature="0"
         style="fill:#03316c" />
      <g
         id="g831">
	<g
   id="g829">
		<g
   id="g827">
			<defs
   id="defs822">
				<path
   d="m 70.1,264.3 v 24.9 h 19.6 l 4.7,20 H 70.1 v 3 h 12.8 l -4.2,11.2 1.2,12.5 h -9.8 v 43.6 L 120,350.7 V 293.1 Z M 83,323.5 v 0 l 11.5,-7.5 13.1,9.9 -17.8,31.1 h -7.1 l -8.5,-7.8 v -4 l 8.8,-8.4 z"
   id="path877"
   inkscape:connector-curvature="0" />

			</defs>

			<clipPath
   id="SVGID_2_">
				<use
   id="use824"
   style="overflow:visible"
   xlink:href="#SVGID_1_"
   x="0"
   y="0"
   width="100%"
   height="100%" />

			</clipPath>

		</g>

	</g>

</g>
      <g
         id="g843">
	<g
   id="g841">
		<g
   id="g839">
			<defs
   id="defs834">
				<path
   d="m 70.1,264.3 -49.9,28.8 v 57.6 l 49.9,28.8 V 336 h -9.7 l 1.3,-12.5 -4.3,-11.2 h 12.7 v -3 H 45.9 l 4.6,-20 h 19.7 v -25 z m -37.5,61.6 v 0 l 13.2,-9.8 11.6,7.4 v 13.3 l 8.8,8.4 v 4 l -8.5,7.9 h -7.2 z"
   id="path885"
   inkscape:connector-curvature="0" />

			</defs>

			<clipPath
   id="SVGID_4_">
				<use
   id="use836"
   style="overflow:visible"
   xlink:href="#SVGID_3_"
   x="0"
   y="0"
   width="100%"
   height="100%" />

			</clipPath>

		</g>

	</g>

</g>
       

    </g>
  </g>
  <style
     id="style815"
     type="text/css">
	.st0{fill:#FFFFFF;}
	.st1{fill:#03316C;}
	.st2{fill:#002E73;}
</style>
</svg>
