<svg xmlns="http://www.w3.org/2000/svg" viewBox="0 0 1024 1024">
<circle cx="512" cy="512" r="512" fill="#9a2857"/>
<path d="M727 278.6q-99 37.09-197.74 74.76a27.83 27.83 0 0 1-20.85.41q-102.54-36.2-205.09-72.35c-4.45-1.57-9-2.82-14.22-4.56v469.89c3.42-1.16 5.67-1.83 7.84-2.7 69-28.07 138.13-55.9 206.95-84.41a34.06 34.06 0 0 1 29.52.36c66.62 29.54 133.53 58.41 201.5 88V276c-3.35 1.09-5.67 1.74-7.91 2.6Zm-208 339-.57-225.6c18.21-6.66 36.44-13.21 54.6-20 42.69-15.8 85.34-31.83 129.09-48.23v373.44C640.57 671 579.79 644.3 519 617.63Zm162.1-107a14 14 0 0 1-12.86 13.31 14.34 14.34 0 0 1-13.66-12.66c-.32-5.93 6.92-13.46 13-13.53a14.58 14.58 0 0 1 13.51 12.88Z" fill="#fff"/>
</svg>
