<svg xmlns="http://www.w3.org/2000/svg" width="786" height="790"><path fill="#fff" fill-rule="evenodd" d="M557 66.5c5.203 5.225 9.685 9.5 9.96 9.5.275 0-3.757-4.275-8.96-9.5-5.203-5.225-9.685-9.5-9.96-9.5-.275 0 3.757 4.275 8.96 9.5m8.875 66.7c-.25 37.8-.042 56.368.625 55.701 1.314-1.314 1.937-99.439.678-106.901-.643-3.812-1.043 11.905-1.303 51.2m-13.133 63.714c-3.997 2.563-4.735 3.602-1.242 1.75 4.19-2.222 6.178-3.644 5-3.576-.55.032-2.241.854-3.758 1.826m-6.503 3.752c-2.063.831-3.397 4.001-1.685 4.001.795 0 1.22-.226.944-.503-.276-.276.243-1.326 1.155-2.333 1.722-1.903 1.684-2.01-.414-1.165M726 211.571c0 .674 1.724 2.355 4.504 4.391 1.098.804.674.016-.941-1.75-2.962-3.239-3.563-3.685-3.563-2.641M71.5 221c-2.148 2.2-3.477 3.962-2.953 3.915.917-.081 8.114-7.915 7.272-7.915-.227 0-2.171 1.8-4.319 4m234 60.589c-26.271 5.884-49.173 24.929-62.986 52.377-12.871 25.578-20.238 60.58-19.249 91.46.891 27.835 7.299 45.501 21.609 59.574 8.736 8.592 16.533 12.96 28.572 16.007 31.609 8.001 60.074-1.816 80.764-27.851 3.246-4.085 7.495-10.591 9.442-14.457C367.325 451.405 374 432.27 374 429.035c0-1.125-4.524-5.706-11.547-11.693-6.352-5.413-11.976-9.992-12.5-10.175-.524-.183-1.238.492-1.588 1.5-11.711 33.772-29.19 51.137-47.514 47.208-6.594-1.414-12.876-7.54-15.525-15.139-2.588-7.42-2.561-33.091.05-47.736 6.154-34.526 18.101-60.611 30.706-67.042 7.727-3.942 12.794-1.846 14.957 6.185 1.501 5.576-.831 18.746-5.54 31.282-1.863 4.961-3.3 9.092-3.193 9.18.107.089 12.415.486 27.351.884l27.158.723 1.536-2.356c2.66-4.078 6.771-21.924 7.359-31.944 1.697-28.893-12.671-48.963-40.726-56.89-10.227-2.889-29.81-3.6-39.484-1.433m191.528-.095c-16.02 3.641-30.039 11.438-42.147 23.439-16.431 16.286-27.001 36.601-34.301 65.924-4.9 19.679-6.066 29.436-5.993 50.143.063 17.804.3 20.37 2.726 29.5 4.019 15.127 9.577 25.583 18.096 34.041 12.91 12.818 27.996 18.597 49.091 18.805 13.914.137 19.651-1.032 31.127-6.341 22.962-10.623 39.718-31.625 47.427-59.442 1.07-3.862 1.946-7.788 1.946-8.723 0-1.591-22.189-21.84-23.933-21.84-.439 0-1.811 2.813-3.047 6.25-4.921 13.681-14.025 28.386-21.939 35.436-5.027 4.478-12.883 7.648-18.932 7.639-22.924-.034-29.047-28.433-17.101-79.325 2.906-12.381 5.641-20.327 10.567-30.696 7.283-15.335 18.285-24.458 26.188-21.718 3.32 1.152 6.193 6.58 6.195 11.706.003 6.242-2.92 18.661-6.515 27.678-1.857 4.658-3.288 8.537-3.18 8.62.108.082 12.645.452 27.86.82l27.663.671 2.193-5.79c6.454-17.039 7.736-40.131 2.93-52.791-6.468-17.04-17.835-26.775-37.949-32.501-9.94-2.83-29.772-3.596-38.972-1.505m-53.611 261.862c-.414 1.08.749 3.513 3.302 6.906C453.24 558.929 458 565.927 458 566.847c0 .976-13.636 6.795-25 10.668-10.78 3.674-29.756 7.253-42.5 8.017-27.787 1.664-59.19-6.449-93.682-24.201-7.074-3.641-13.019-6.443-13.21-6.226-.191.217-4.026 7.3-8.522 15.739-6.824 12.81-7.966 15.596-6.912 16.866 2.347 2.827 19.26 13.294 30.326 18.767 19.433 9.611 39.493 15.887 61.127 19.121 16.231 2.427 45.6 1.484 61.985-1.989 19.325-4.097 37.475-11.14 52.872-20.516l6.984-4.253 2.516 2.943c1.384 1.619 4.991 6.451 8.016 10.739 8.099 11.481 9.662 13.173 10.973 11.886 1.044-1.026 18.426-69.542 19.701-77.658l.589-3.75h-22.972c-12.634 0-30.456-.295-39.603-.656-14.974-.59-16.695-.49-17.271 1.012M727 727.982l-9.5 8.931-318.469.044L80.563 737l-5.522-5.25c-3.756-3.571-4.406-3.991-2.032-1.313 1.92 2.165 4.391 4.738 5.491 5.717 1.909 1.698 16.54 1.779 320.5 1.773l318.5-.007 10-9.429c5.5-5.185 9.775-9.431 9.5-9.434-.275-.004-4.775 4.013-10 8.925"/><path fill="#cef161" fill-rule="evenodd" d="M0 395.001v395.002l393.25-.252 393.25-.251.251-394.75L787.003 0H0v395.001m.495.499c0 217.25.115 306.274.255 197.831.14-108.442.14-286.192 0-395C.61 89.524.495 178.25.495 395.5M539.573 55.117c.519.841.097 1.03-1.418.634-1.324-.346-1.915-.172-1.531.449.397.643-.197.753-1.624.3-1.635-.519-2.045-.382-1.5.5.545.882.135 1.019-1.5.5-1.635-.519-2.045-.382-1.5.5.545.882.135 1.019-1.5.5-1.413-.448-2.02-.341-1.631.288.78 1.262-1.871 2.34-3.869 1.574-.826-.317-1.5-.03-1.5.638s-.674.955-1.5.638c-.825-.316-1.5-.153-1.5.362s-.675.678-1.5.362c-.826-.317-1.5-.03-1.5.638 0 .686-.675.955-1.552.618-.973-.373-1.299-.186-.875.501.458.74-.052.864-1.573.381-1.635-.519-2.045-.382-1.5.5.545.882.135 1.019-1.5.5-1.635-.519-2.045-.382-1.5.5.545.882.135 1.019-1.5.5-1.533-.487-2.032-.361-1.566.393.679 1.098-1.127 1.581-4.742 1.267-1.146-.1-1.544.271-1.086 1.011.485.785.176.959-.942.53-.915-.351-1.664-.172-1.664.398 0 .601-.892.753-2.125.361-1.526-.484-1.914-.332-1.375.54.545.882.135 1.019-1.5.5-1.635-.519-2.045-.382-1.5.5.545.882.135 1.019-1.5.5-1.686-.535-2.053-.394-1.461.563.561.908.308 1.092-.875.638-.915-.351-1.664-.216-1.664.299s-.675.678-1.5.362c-.826-.317-1.5-.03-1.5.638s-.674.955-1.5.638c-.825-.316-1.5-.091-1.5.5 0 .592-.698.808-1.552.48-1.006-.386-1.303-.192-.844.551.482.78.019.966-1.449.582-1.324-.346-1.915-.172-1.531.449.397.643-.197.753-1.624.3-1.533-.487-2.032-.361-1.566.393.679 1.098-1.127 1.581-4.742 1.267-1.09-.095-1.537.282-1.125.949.465.752-.035.877-1.567.391-1.635-.519-2.045-.382-1.5.5.545.882.135 1.019-1.5.5-1.676-.532-2.051-.392-1.469.55.569.921.195 1.112-1.376.701-1.324-.346-1.915-.172-1.531.449.397.643-.197.753-1.624.3-1.635-.519-2.045-.382-1.5.5.545.882.135 1.019-1.5.5-1.635-.519-2.045-.382-1.5.5.545.882.135 1.019-1.5.5-1.686-.535-2.053-.394-1.461.563.561.908.308 1.092-.875.638-.915-.351-1.664-.216-1.664.299s-.675.678-1.5.362c-.826-.317-1.5-.03-1.5.638s-.674.955-1.5.638c-.825-.316-1.5-.181-1.5.3s-1.012.653-2.25.382c-1.808-.397-1.955-.283-.75.578 1.274.91 1.199 1.098-.5 1.245-1.1.096-2.814.103-3.808.017-1.09-.095-1.537.282-1.125.949.465.752-.035.877-1.567.391-1.635-.519-2.045-.382-1.5.5.539.872.151 1.024-1.375.54-1.343-.427-2.125-.243-2.125.5 0 .65-.692.908-1.552.578-.973-.373-1.299-.186-.875.501.458.74-.052.864-1.573.381-1.676-.532-2.051-.392-1.469.55.569.921.195 1.112-1.376.701-1.324-.346-1.915-.172-1.531.449.397.643-.197.753-1.624.3-1.533-.487-2.032-.361-1.566.393.644 1.042-1.215 1.567-4.184 1.182-.687-.09-1.25.355-1.25.988s-.675.892-1.5.575c-.825-.316-1.5-.113-1.5.452 0 .566-.5.719-1.112.341-.611-.378-1.46-.123-1.886.566-.426.689-1.943 1.253-3.37 1.253-1.53 0-2.334.424-1.957 1.033.398.644-.174.82-1.52.468-1.324-.346-1.915-.172-1.531.449.397.643-.197.753-1.624.3-1.676-.532-2.051-.392-1.469.55.569.921.195 1.112-1.376.701-1.324-.346-1.915-.172-1.531.449.397.643-.197.753-1.624.3-1.676-.532-2.051-.392-1.469.55.569.921.195 1.112-1.376.701-1.324-.346-1.915-.172-1.531.449.397.643-.197.753-1.624.3-1.676-.532-2.051-.392-1.469.55.569.921.195 1.112-1.376.701-1.324-.346-1.915-.172-1.531.449.397.643-.197.753-1.624.3-1.635-.519-2.045-.382-1.5.5.545.882.135 1.019-1.5.5-1.521-.483-2.031-.359-1.573.381.424.687.098.874-.875.501-.877-.337-1.552-.068-1.552.618 0 .686-.675.955-1.552.618-.973-.373-1.299-.186-.875.501.452.731-.029.871-1.448.421-1.343-.427-2.125-.243-2.125.5 0 .646-.675.915-1.5.598-.825-.316-1.5-.153-1.5.362s-.749.65-1.664.299c-1.119-.43-1.427-.256-.941.531.722 1.169-.988 1.652-4.703 1.33-1.136-.099-1.542.273-1.094.999.489.791.034.978-1.443.592-1.324-.346-1.915-.172-1.531.449.397.643-.197.753-1.624.3-1.533-.487-2.032-.361-1.566.393.679 1.098-1.127 1.581-4.742 1.267-1.09-.095-1.537.282-1.125.949.465.752-.035.877-1.567.391-1.635-.519-2.045-.382-1.5.5.545.882.135 1.019-1.5.5-1.533-.487-2.032-.361-1.566.393.63 1.019-.832 1.5-4.184 1.376-.687-.026-1.25.401-1.25.949 0 .548-.675.737-1.5.42-.825-.316-1.5-.153-1.5.362s-.749.65-1.664.299c-1.042-.4-1.418-.241-1.007.424.777 1.258-3.905 2.657-5.529 1.653-.671-.414-.827-.229-.395.469.711 1.152-1.022 1.635-4.713 1.315-.995-.086-1.53.292-1.191.841.612.991-1.336 1.46-4.809 1.159-1.136-.099-1.542.273-1.094.999.489.791.034.978-1.443.592-1.324-.346-1.915-.172-1.531.449.397.643-.197.753-1.624.3-1.533-.487-2.032-.361-1.566.393.679 1.098-1.127 1.581-4.742 1.267-1.09-.095-1.537.282-1.125.949.465.752-.035.877-1.567.391-1.635-.519-2.045-.382-1.5.5.545.882.135 1.019-1.5.5-1.686-.535-2.053-.394-1.461.563.561.908.308 1.092-.875.638-.915-.351-1.664-.216-1.664.299s-.749.65-1.664.299c-1.21-.465-1.44-.277-.844.689.616.995.282 1.186-1.337.763-1.324-.346-1.915-.172-1.531.449.397.643-.197.753-1.624.3-1.533-.487-2.032-.361-1.566.393.626 1.013.173 1.198-3.684 1.507-.687.055-1.548.512-1.912 1.017-.364.504-2.032.916-3.706.916-1.756 0-2.785.42-2.432.991.368.595-.251.765-1.545.427-1.324-.346-1.915-.172-1.531.449.397.643-.197.753-1.624.3-1.635-.519-2.045-.382-1.5.5.545.882.135 1.019-1.5.5-1.635-.519-2.045-.382-1.5.5.545.882.135 1.019-1.5.5-1.676-.532-2.051-.392-1.469.55.569.921.195 1.112-1.376.701-1.324-.346-1.915-.172-1.531.449.397.643-.197.753-1.624.3-1.635-.519-2.045-.382-1.5.5.545.882.135 1.019-1.5.5-1.635-.519-2.045-.382-1.5.5.545.882.135 1.019-1.5.5-1.686-.535-2.053-.394-1.461.563.561.908.308 1.092-.875.638-.916-.351-1.664-.155-1.664.437s-.698.808-1.552.48c-.89-.341-1.291-.173-.941.393.607.982-1.352 1.45-4.815 1.149-.995-.086-1.53.292-1.191.841.612.991-1.336 1.46-4.809 1.159-.995-.086-1.56.244-1.257.735.697 1.128-4.147 2.401-5.635 1.481-.671-.414-.827-.229-.395.469.711 1.152-1.022 1.635-4.713 1.315-1.136-.099-1.542.273-1.094.999.489.791.034.978-1.443.592-1.324-.346-1.915-.172-1.531.449.397.643-.197.753-1.624.3-1.533-.487-2.032-.361-1.566.393.388.629.01 1.107-.875 1.107-2.086 0-2.655.169-5.433 1.61-1.306.677-3.068.966-3.914.641-1.011-.388-1.291-.189-.817.579.722 1.169-.988 1.652-4.703 1.33-1.09-.095-1.537.282-1.125.949.465.752-.035.877-1.567.391-1.635-.519-2.045-.382-1.5.5.545.882.135 1.019-1.5.5-1.533-.487-2.032-.361-1.566.393.679 1.098-1.127 1.581-4.742 1.267-1.136-.099-1.542.273-1.094.999.489.791.034.978-1.443.592-1.324-.346-1.915-.172-1.531.449.397.643-.197.753-1.624.3-1.533-.487-2.032-.361-1.566.393.63 1.019-.832 1.5-4.184 1.376-.687-.026-1.25.401-1.25.949 0 .548-.675.737-1.5.42-.825-.316-1.5-.113-1.5.452 0 .566-.453.748-1.008.405-.554-.342-1.726.096-2.605.975-.984.984-2.373 1.352-3.618.957-1.343-.427-1.79-.271-1.335.466.679 1.098-1.127 1.581-4.742 1.267-.995-.086-1.53.292-1.191.841.612.991-1.336 1.46-4.809 1.159-1.09-.095-1.537.282-1.125.949.465.752-.035.877-1.567.391-1.635-.519-2.045-.382-1.5.5.545.882.135 1.019-1.5.5-1.676-.532-2.051-.392-1.469.55.569.921.195 1.112-1.376.701-1.324-.346-1.915-.172-1.531.449.397.643-.197.753-1.624.3-1.676-.532-2.051-.392-1.469.55.569.921.195 1.112-1.376.701-1.324-.346-1.915-.172-1.531.449.397.643-.197.753-1.624.3-1.533-.487-2.032-.361-1.566.393.626 1.013.173 1.198-3.684 1.507-.687.055-1.536.494-1.886.975-.35.481-1.805.875-3.232.875-1.53 0-2.334.424-1.957 1.033.398.644-.174.82-1.52.468-1.324-.346-1.915-.172-1.531.449.397.643-.197.753-1.624.3-1.676-.532-2.051-.392-1.469.55.569.921.195 1.112-1.376.701-1.396-.365-1.923-.185-1.492.512.426.69.041.837-1.073.41-1.017-.39-2.374-.032-3.27.864-.928.929-2.325 1.279-3.551.89-1.472-.467-1.808-.298-1.238.623.569.921.195 1.112-1.376.701-1.351-.353-1.918-.177-1.517.472.359.581.034.834-.74.576-.759-.253-1.983.143-2.72.88-.736.737-1.693 1.121-2.125.854-.432-.267-1.633.516-2.669 1.741-1.863 2.202-1.862 2.21.132.726 1.109-.825-.581.901-3.756 3.835-3.175 2.935-5.482 5.805-5.128 6.379.354.573-1.555 3.136-4.244 5.695-2.688 2.56-5.113 5.315-5.388 6.122-.75 2.204-1.212 460.184-.474 469.628l.638 8.159 7.668 7.791c4.217 4.285 6.543 6.923 5.168 5.862-2.672-2.061 2.744 4.34 6.5 7.683 1.909 1.698 16.555 1.78 320.5 1.792l318.5.013 10.654-10.23c5.86-5.626 11.147-11.212 11.75-12.413.786-1.566 1.096-71.144 1.096-245.67V226.16l-6.25-5.744c-3.437-3.159-5.35-5.115-4.25-4.347 1.974 1.378 1.975 1.368.116-.813-1.036-1.215-2.284-1.961-2.774-1.658-.491.303-.768-.045-.617-.774.155-.748-.44-1.207-1.37-1.054-.904.148-2.796-1.099-4.203-2.772l-2.559-3.041-87.88.032c-77.322.028-87.88-.148-87.88-1.463 0-1.212.288-1.261 1.526-.26 1.079.873 1.318.889.817.053-.39-.649-.244-1.468.324-1.819.568-.351.731-1.127.362-1.724-.401-.647-.206-.797.483-.371.635.392 1.155.236 1.155-.346s.337-1.006.75-.941c2.097.331 3.292-.242 2.655-1.273-.442-.714-.275-.883.439-.442 1.317.815 5.488-1.737 4.483-2.743-.363-.363-.135-.66.506-.66 2.083 0 2.648-.276 3.885-1.901.67-.879 1.233-1.212 1.25-.738.018.473.966-.202 2.108-1.5 1.142-1.299 1.751-1.686 1.353-.861-.599 1.244-.484 1.278.674.2 2.168-2.017 2.069-110.064-.103-112.738-1.333-1.641-1.333-1.754 0-1.019.825.454-2.752-3.495-7.949-8.777-5.196-5.281-9.66-9.391-9.918-9.132-.259.259-1.182-.145-2.052-.898-2.178-1.884-7.502-3.127-6.508-1.519M553 63.5c2.987 3.025 5.657 5.5 5.932 5.5.275 0-1.945-2.475-4.932-5.5s-5.657-5.5-5.932-5.5c-.275 0 1.945 2.475 4.932 5.5M261.966 305.75l-5.466 5.75 5.75-5.466c5.342-5.078 6.208-6.034 5.466-6.034-.156 0-2.744 2.587-5.75 5.75m74.818 67.988c2.905.203 7.405.201 10-.004 2.594-.206.216-.371-5.284-.369-5.5.003-7.622.171-4.716.373m190.966.002c3.438.196 9.063.196 12.5 0 3.438-.195.625-.355-6.25-.355s-9.687.16-6.25.355M222.328 419.5c.005 3.85.185 5.302.402 3.228.216-2.075.213-5.225-.008-7-.221-1.776-.398-.078-.394 3.772m20.63 64.75c2.452 2.613 4.59 4.75 4.75 4.75.751 0-.043-.898-4.458-5.042l-4.75-4.458 4.458 4.75m231.241 58.494c4.785.183 12.885.184 18 .002 5.116-.182 1.201-.332-8.699-.333-9.9-.001-14.085.148-9.301.331m40.065-.026c1.52.229 3.77.223 5-.014 1.23-.237-.014-.425-2.764-.418-2.75.008-3.756.202-2.236.432M378.28 585.736c2.629.207 6.679.204 9-.005 2.321-.21.17-.379-4.78-.376-4.95.003-6.849.175-4.22.381m2.504 42.002c2.905.203 7.405.201 10-.004 2.594-.206.216-.371-5.284-.369-5.5.003-7.622.171-4.716.373m350.669 95.512-3.953 4.25 4.25-3.953c3.952-3.676 4.71-4.547 3.953-4.547-.163 0-2.076 1.913-4.25 4.25"/><path fill="#040404" fill-rule="evenodd" d="M508.5 66.166c-17.6 6.056-50.225 17.23-72.5 24.833-22.275 7.602-57.6 19.669-78.5 26.815-74.01 25.307-206.478 70.515-241 82.248-39.448 13.408-33.961 10.269-50.16 28.694l-7.16 8.145-.645 7.299c-.355 4.015-.508 111.278-.34 238.362l.305 231.062 11 11.682 11 11.683 318.085.005L716.67 737l4.423-4.25c2.433-2.337 7.907-7.457 12.165-11.376l7.742-7.126V226.212l-7.75-6.884c-4.263-3.786-9.453-8.333-11.535-10.106L717.93 206h-87.538c-82.83 0-87.521-.094-87.207-1.75.183-.963 2.485-3.1 5.117-4.75s7.578-4.8 10.991-7l6.207-4 .258-56.382.259-56.382-10.759-10.332c-6.514-6.255-11.547-10.315-12.758-10.289-1.1.022-16.4 4.996-34 11.051m-204 215.308c-25.39 5.566-48.672 25.121-62.477 52.478-4.544 9.004-9.577 23.289-13.019 36.949-12.47 49.488-6.829 92.7 14.896 114.1 19.865 19.568 55.277 24.774 81.6 11.995 13.711-6.656 27.288-19.236 35.406-32.804 6.92-11.567 13.988-31.857 12.668-36.365-.711-2.426-20.53-19.741-23.479-20.512-1.311-.343-2.099.861-3.514 5.371-4.4 14.018-15.007 30.52-23.734 36.926-15.868 11.648-32.074 7.211-37.485-10.265-6.16-19.896 1.637-68.102 15.292-94.541 5.461-10.573 11.212-16.826 17.785-19.336 4.306-1.644 5.089-1.684 7.423-.374 3.698 2.076 5.109 5.501 5.108 12.404 0 7.361-1.959 15.943-6.078 26.623-2.059 5.339-2.764 8.338-2.064 8.771.586.362 13.245.8 28.131.974l27.066.317 1.506-3.604c3.511-8.403 6.466-23.996 6.468-34.121.002-17.315-4.264-28.951-14.225-38.801-11.957-11.823-28.622-17.723-49.652-17.58-6.392.044-14.322.672-17.622 1.395m190 .441c-22.07 5.572-39.793 18.666-53.841 39.778-16.126 24.235-26.665 62.957-26.655 97.935.013 44.764 16.005 71.543 48.483 81.19 10.804 3.208 28.045 4.006 38.513 1.782 9.546-2.029 21.848-7.918 29.518-14.131 16.738-13.56 26.418-28.628 33.025-51.41 2.005-6.914 2.222-8.753 1.202-10.169-2.664-3.699-22.848-20.065-24.135-19.57-.744.285-1.667 1.792-2.051 3.349-1.276 5.177-9.466 21.447-13.981 27.774-7.627 10.688-15.419 16.159-24.555 17.241-7.131.844-11.66-.361-15.963-4.249-10.784-9.743-12.626-31.775-5.485-65.597 5.638-26.706 12.241-43.147 21.292-53.02 11.825-12.898 22.603-10.718 22.437 4.54-.078 7.247-2.439 17.299-6.449 27.46-1.589 4.025-2.683 7.652-2.431 8.059.252.408 12.825.861 27.941 1.009 31.749.309 28.014 1.739 32.078-12.286 6.79-23.432 4.989-42.762-5.434-58.336-9.778-14.608-30.456-23.345-54.887-23.19-7.578.048-14.058.688-18.622 1.841m-50.761 260.679c-1.561 1.561-.502 3.68 6.78 13.563 4.225 5.734 7.14 10.584 6.655 11.069-1.64 1.64-23.129 9.801-32.388 12.3-14.587 3.937-26.148 5.466-41.36 5.47-27.636.008-51.892-6.556-83.627-22.631-8.163-4.134-15.338-7.352-15.945-7.15-1.249.417-16.813 29.593-16.838 31.565-.025 1.988 19.015 13.86 33.452 20.857 46.027 22.31 95.637 26.122 141.26 10.856 10.969-3.671 25.284-9.99 30.035-13.259 1.505-1.035 4.353-2.854 6.329-4.042l3.591-2.159 8.909 12.439c7.992 11.159 11.533 14.737 13.067 13.202.967-.967 20.356-80.992 19.767-81.582-.876-.876-78.822-1.363-79.687-.498"/></svg>