<?xml version="1.0" encoding="UTF-8" standalone="no"?>
<!DOCTYPE svg PUBLIC "-//W3C//DTD SVG 1.1//EN" "http://www.w3.org/Graphics/SVG/1.1/DTD/svg11.dtd">
<svg width="100%" height="100%" viewBox="0 0 24 24" version="1.1" xmlns="http://www.w3.org/2000/svg" xmlns:xlink="http://www.w3.org/1999/xlink" xml:space="preserve" xmlns:serif="http://www.serif.com/" style="fill-rule:evenodd;clip-rule:evenodd;">
    <g transform="matrix(1.59257,0,0,1.59257,0,9.06171)">
        <path d="M0.87,0.08L3.17,0.08C4.2,0.08 5.13,0.51 5.13,1.67C5.13,2.92 3.91,3.6 2.78,3.6L0.06,3.6C0.06,3.6 0.87,0.09 0.87,0.08ZM2.85,2.82C3.44,2.82 4.14,2.39 4.14,1.74C4.14,1.19 3.7,0.85 3.17,0.85L1.71,0.85L1.26,2.81L2.85,2.81L2.85,2.82Z" style="fill:rgb(245,158,15);fill-rule:nonzero;stroke:rgb(245,158,15);stroke-width:0.09px;"/>
        <path d="M11.95,1.33C11.87,1.31 11.65,1.26 11.65,1.14C11.65,0.81 12.52,0.81 12.74,0.81C13.25,0.81 13.96,0.91 14.4,1.17L15,0.59C14.39,0.18 13.59,0.04 12.86,0.04C12.07,0.04 10.65,0.18 10.65,1.24C10.65,2.45 13.65,1.96 13.65,2.52C13.65,2.86 12.89,2.88 12.66,2.88C11.9,2.88 11.39,2.74 10.77,2.29C10.57,2.48 10.36,2.67 10.16,2.86C10.95,3.44 11.7,3.64 12.67,3.64C13.4,3.64 14.68,3.36 14.68,2.42C14.68,1.34 12.67,1.5 11.97,1.32L11.95,1.32L11.95,1.33Z" style="fill:rgb(245,158,15);fill-rule:nonzero;stroke:rgb(245,158,15);stroke-width:0.09px;"/>
        <path d="M9.18,2.35L9.16,2.35C9.07,2.43 8.41,2.95 7.67,2.87C7.14,2.81 6.41,2.44 6.41,1.95C6.41,1.15 7.26,0.83 7.94,0.83C8.39,0.83 8.82,0.93 9.17,1.18C9.48,1.07 9.8,0.97 10.11,0.86C9.59,0.3 8.82,0.07 8.06,0.07C6.92,0.07 5.43,0.73 5.43,2.06C5.43,3.22 6.65,3.63 7.61,3.63C8.41,3.63 9.18,3.4 9.78,2.88C9.78,2.88 9.18,2.38 9.17,2.37L9.16,2.37L9.18,2.35Z" style="fill:rgb(245,158,15);fill-rule:nonzero;stroke:rgb(245,158,15);stroke-width:0.09px;"/>
    </g>
</svg>
