<svg xmlns="http://www.w3.org/2000/svg" xmlns:xlink="http://www.w3.org/1999/xlink" viewBox="0 0 256 191.473" width="256" height="192"><g transform="translate(-.581 -32.781)scale(.72645)" fill="#0080ff"><path d="M177 221.5v-34.2c36.2 0 64.3-35.9 50.4-74-5.1-14-16.4-25.3-30.5-30.4-38.1-13.8-74 14.2-74 50.4H88.8c0-57.7 55.8-102.7 116.3-83.8 26.4 8.3 47.5 29.3 55.7 55.7 18.9 60.5-26.1 116.3-83.8 116.3"/><path d="M143 187.5v-34.1h34.1v34.1zm-26.1 26.1v-26.1H143v26.1zm0-26.1H95v-21.9h21.9z" fill-rule="evenodd"/><path d="M31.2 256.1c-4.4-3.1-10-4.6-16.4-4.6H.8V296h14.1c6.4 0 12-1.6 16.4-4.9 2.4-1.7 4.3-4.1 5.7-7.1 1.3-3 2-6.6 2-10.5s-.7-7.4-2-10.4c-1.4-3-3.3-5.4-5.8-7M9 259h4.4c4.9 0 8.9 1 12 2.9 3.4 2.1 5.1 6 5.1 11.6 0 5.8-1.7 9.9-5.1 12.1-2.9 1.9-6.9 2.9-11.9 2.9H9zm39.7-8.1c-1.4 0-2.5.5-3.5 1.4-.9.9-1.4 2-1.4 3.4s.5 2.5 1.4 3.5c.9.9 2.1 1.4 3.5 1.4 1.3 0 2.5-.5 3.5-1.4.9-.9 1.4-2.1 1.4-3.5s-.5-2.5-1.4-3.4c-1-.9-2.2-1.4-3.5-1.4m-4 13.7h7.9V296h-7.9zm36.6 2.6c-2.4-2.1-5-3.4-7.9-3.4q-6.6 0-10.8 4.5c-2.8 2.9-4.3 6.7-4.3 11.3 0 4.4 1.4 8.2 4.2 11.2 2.8 2.9 6.5 4.4 10.8 4.4 3 0 5.7-.8 7.8-2.5v.7q0 3.9-2.1 6c-2.1 2.1-3.3 2.1-5.7 2.1-3.6 0-5.9-1.4-8.7-5.2l-5.4 5.2.1.2c1.2 1.6 2.9 3.2 5.3 4.7 2.3 1.5 5.3 2.3 8.8 2.3 4.7 0 8.5-1.4 11.3-4.3s4.2-6.7 4.2-11.4v-28.5h-7.8v2.7zm-2.1 18.6c-1.4 1.6-3.2 2.3-5.4 2.3-2.3 0-4-.8-5.4-2.3-1.4-1.6-2-3.6-2-6.1 0-2.6.7-4.6 2-6.2s3.2-2.3 5.4-2.3c2.3 0 4 .8 5.4 2.3 1.4 1.6 2.1 3.7 2.1 6.2s-.7 4.5-2.1 6.1m16.6-21.2h7.9V296h-7.9zm4-13.7c-1.4 0-2.5.5-3.5 1.4-.9.9-1.4 2-1.4 3.4s.5 2.5 1.4 3.5c.9.9 2.1 1.4 3.5 1.4 1.3 0 2.5-.5 3.5-1.4.9-.9 1.4-2.1 1.4-3.5s-.5-2.5-1.4-3.4c-1-.9-2.1-1.4-3.5-1.4m21.2 5.2h-7.8v8.5h-4.5v7.2h4.5v13q0 6.15 2.4 8.7c2.4 2.55 4.5 2.5 8.5 2.5l3.8-.1h.4v-7.2l-2.7.1c-1.9 0-3.1-.3-3.7-1s-.9-2.1-.9-4.2v-11.9h7.4v-7.2H121zm44.4-4.7h7.9V296h-7.9zm87.7 33.4c-1.4 1.6-2.9 3-4 3.7s-2.5 1.1-4.1 1.1c-2.3 0-4.2-.8-5.7-2.6-1.5-1.7-2.3-4-2.3-6.6 0-2.7.8-4.9 2.3-6.6s3.4-2.6 5.7-2.6c2.5 0 5.2 1.6 7.5 4.3l5.2-5c-3.4-4.4-7.7-6.5-12.9-6.5-4.3 0-8.1 1.6-11.2 4.7s-4.6 7-4.6 11.7 1.6 8.6 4.6 11.7c3.1 3.1 6.8 4.7 11.2 4.7 5.7 0 10.3-2.5 13.5-7zm32.5-15.8c-1.1-1.6-2.6-2.8-4.5-3.7s-4.1-1.4-6.5-1.4c-4.4 0-8 1.6-10.7 4.8-2.6 3.2-4 7.1-4 11.8 0 4.8 1.5 8.7 4.3 11.7q4.35 4.5 11.4 4.5c5.3 0 9.7-2.2 13-6.4l.2-.2-5.2-5c-.5.6-1.2 1.2-1.8 1.8-.8.7-1.5 1.3-2.3 1.7-1.2.6-2.5.9-4 .9-2.2 0-4-.6-5.4-1.9-1.3-1.2-2.1-2.8-2.3-4.8h20.9l.1-2.9c0-2-.3-4-.8-5.8s-1.3-3.5-2.4-5.1m-17.3 7.4c.4-1.5 1.1-2.8 2.1-3.7 1.1-1.1 2.5-1.6 4.1-1.6 1.9 0 3.4.5 4.4 1.6.9 1 1.5 2.2 1.6 3.7z"/><use xlink:href="#a"/><path d="M349.9 267.6c-2.2-2.5-5.3-3.7-9.2-3.7-3.1 0-5.7.9-7.6 2.7v-1.9h-7.7V296h7.9v-17.3c0-2.4.6-4.3 1.7-5.6s2.6-2 4.7-2c1.8 0 3.1.6 4.1 1.8s1.5 2.9 1.5 4.9V296h7.9v-18.2c0-4.3-1.1-7.8-3.3-10.2"/><use xlink:href="#a" x="-160.4"/><path d="M202 296.7c-12.7 0-23-10.3-23-23s10.3-23 23-23 23 10.3 23 23-10.3 23-23 23m0-37.9c-8.2 0-14.9 6.7-14.9 14.9s6.7 14.9 14.9 14.9 14.9-6.7 14.9-14.9-6.7-14.9-14.9-14.9"/></g><defs><path id="a" d="M315.9 267c-2.4-2-5.7-3.1-9.8-3.1a16.3 16.3 0 0 0-7.3 1.7c-2.1 1-4.1 2.8-5.4 5l.1.1 5.1 4.8c2.1-3.3 4.4-4.5 7.5-4.5 1.7 0 3 .4 4.1 1.3 1 .9 1.6 2 1.6 3.4v1.5c-2-.6-3.9-.9-5.8-.9-3.9 0-7.1.9-9.5 2.7s-3.6 4.5-3.6 7.9c0 3 1 5.3 3.1 7.1 2.1 1.7 4.6 2.6 7.6 2.6s5.8-1.2 8.4-3.3v2.6h7.8v-20.2c-.3-3.7-1.5-6.7-3.9-8.7m-14 17c.9-.6 2.2-.9 3.8-.9 1.9 0 3.9.4 6 1.1v3.1c-1.7 1.6-4 2.4-6.8 2.4-1.4 0-2.4-.3-3.2-.9-.7-.6-1.1-1.3-1.1-2.3 0-1.1.4-1.9 1.3-2.5"/></defs></svg>