<?xml version="1.0" encoding="UTF-8"?>
<svg viewBox="120 570 1800 900" width="447.2135955" height="223.60679775" version="1.1" xmlns="http://www.w3.org/2000/svg" xmlns:xlink="http://www.w3.org/1999/xlink" style="background: #FFFFFF;">
    <!-- Generator: Sketch 46.2 (44496) - http://www.bohemiancoding.com/sketch -->
    <title>drop_logo_large</title>
    <desc>Created with Sketch.</desc>
    <defs>
        <polygon id="path-1" points="1672.19157 0.48 0.72 0.48 0.72 828 1672.19157 828 1672.19157 0.48"></polygon>
    </defs>
    <g id="Page-1" stroke="none" stroke-width="1" fill="none" fill-rule="evenodd">
        <g id="drop_logo_large">
            <g transform="translate(184.000000, 604.000000)">
                <mask id="mask-2" fill="white">
                    <use xlink:href="#path-1"></use>
                </mask>
                <g id="Clip-2"></g>
                <path d="M143.16,210 C30.324,250.548 -27.84,375.744 13.128,488.58 C54.144,601.452 178.872,659.628 291.708,618.612 C405,577.632 463.176,452.436 421.74,340.032 C380.76,226.308 339.324,113.484 297.888,0.18 L198.276,36.792 L257.76,200.292 C220.74,193.26 181.08,195.888 143.16,210 Z M1529.016,618.612 C1641.888,577.632 1700.064,452.904 1659.048,340.032 C1618.08,226.728 1492.872,168.564 1380.048,210 C1267.644,250.548 1209.468,375.744 1250.016,488.58 C1291.452,601.872 1332.42,714.696 1373.856,828 L1473.936,791.856 L1414.404,627.888 C1451.436,634.92 1491.144,632.292 1529.016,618.612 Z M1492.872,519 C1434.708,539.712 1371.24,510.18 1350.048,452.436 C1328.904,394.68 1358.436,330.324 1416.612,309.18 C1474.356,288.468 1538.292,318.42 1559.436,376.164 C1580.628,433.92 1550.628,497.856 1492.872,519 Z M972.744,196.776 C852.42,196.776 754.968,294.18 754.968,414.516 C754.968,534.42 852.42,631.824 972.744,631.824 C1092.66,631.824 1190.064,534.42 1190.064,414.516 C1190.064,294.18 1092.66,196.776 972.744,196.776 Z M972.744,302.58 C1034.016,302.58 1084.26,352.824 1084.26,414.516 C1084.26,475.824 1034.016,525.612 972.744,525.612 C911.016,525.612 861.24,475.824 861.24,414.516 C861.24,352.824 911.016,302.58 972.744,302.58 Z M680.484,595.68 L580.452,632.292 C549.144,546.792 525.792,481.548 494.484,396 C471.564,332.532 503.724,258.516 570.276,234.228 L685.356,192.372 L721.92,292.452 L606.42,334.308 C596.292,337.824 591,348.42 594.564,359.436 L680.484,595.68 Z M179.292,309.18 C237.048,288.048 300.984,318.42 322.128,375.744 C343.26,433.92 313.308,497.856 255.564,519 C197.808,539.712 133.92,510.18 112.74,452.016 C92.016,394.68 121.548,330.324 179.292,309.18 Z" id="Fill-1" fill="#2BD686" mask="url(#mask-2)"></path>
            </g>
        </g>
    </g>
</svg>