<svg role="img" viewBox="0 0 24 24" xmlns="http://www.w3.org/2000/svg"><title>dus.net</title><circle cx="12" cy="21.799" r="2.201"/><path d="M5.467 0a2.202 2.202 0 1 0 .001 4.403A2.202 2.202 0 0 0 5.467 0M12 0a2.201 2.201 0 1 0 0 4.402A2.201 2.201 0 0 0 12 0m6.533 4.402a2.201 2.201 0 1 0 0-4.402 2.201 2.201 0 0 0 0 4.402M5.467 6.533a2.201 2.201 0 1 0 0 4.402 2.201 2.201 0 0 0 0-4.402m6.533 0a2.2 2.2 0 1 0-.001 4.4 2.2 2.2 0 0 0 .001-4.4m6.533 0a2.201 2.201 0 1 0-.001 4.403 2.201 2.201 0 0 0 .001-4.403M5.467 13.065a2.202 2.202 0 1 0 .001 4.403 2.202 2.202 0 0 0-.001-4.403m6.533 0a2.201 2.201 0 1 0 0 4.402 2.201 2.201 0 0 0 0-4.402m6.533 0a2.202 2.202 0 1 0 0 4.404 2.202 2.202 0 0 0 0-4.404" fill="#eb311b"/></svg>