<?xml version="1.0" encoding="UTF-8"?>
<!DOCTYPE svg PUBLIC "-//W3C//DTD SVG 1.1//EN" "http://www.w3.org/Graphics/SVG/1.1/DTD/svg11.dtd">
<svg xmlns="http://www.w3.org/2000/svg" version="1.1" width="500px" height="500px" style="shape-rendering:geometricPrecision; text-rendering:geometricPrecision; image-rendering:optimizeQuality; fill-rule:evenodd; clip-rule:evenodd" xmlns:xlink="http://www.w3.org/1999/xlink">
<g><path style="opacity:0.984" fill="#fe4746" d="M 223.5,-0.5 C 240.833,-0.5 258.167,-0.5 275.5,-0.5C 362.426,11.5279 427.593,55.5279 471,131.5C 486.091,160.555 495.591,191.222 499.5,223.5C 499.5,240.833 499.5,258.167 499.5,275.5C 487.472,362.426 443.472,427.593 367.5,471C 338.445,486.091 307.778,495.591 275.5,499.5C 258.167,499.5 240.833,499.5 223.5,499.5C 136.574,487.472 71.4072,443.472 28,367.5C 12.9093,338.445 3.40931,307.778 -0.5,275.5C -0.5,258.167 -0.5,240.833 -0.5,223.5C 11.5279,136.574 55.5279,71.4072 131.5,28C 160.555,12.9093 191.222,3.40931 223.5,-0.5 Z M 150.5,153.5 C 197.168,153.333 243.835,153.5 290.5,154C 283.708,164.415 277.042,174.915 270.5,185.5C 223.837,186.667 177.17,186.833 130.5,186C 137.565,175.362 144.232,164.528 150.5,153.5 Z M 320.5,154.5 C 357.686,211.02 395.019,267.52 432.5,324C 419.167,324.667 405.833,324.667 392.5,324C 385.081,312.494 377.414,301.16 369.5,290C 348.167,289.667 326.833,289.333 305.5,289C 312.209,279.085 318.542,268.919 324.5,258.5C 332.138,257.503 339.804,257.169 347.5,257.5C 347.649,256.448 347.483,255.448 347,254.5C 339.068,242.29 330.901,230.29 322.5,218.5C 299.67,253.51 277.003,288.676 254.5,324C 194.5,324.667 134.5,324.667 74.5,324C 88.9582,301.585 103.292,279.085 117.5,256.5C 107.183,255.668 96.8494,255.168 86.5,255C 93.7487,244.504 100.749,233.838 107.5,223C 151.167,222.333 194.833,222.333 238.5,223C 231.251,233.496 224.251,244.162 217.5,255C 198.158,255.167 178.825,255.667 159.5,256.5C 152.167,267.833 144.833,279.167 137.5,290.5C 170.167,291.833 202.833,291.833 235.5,290.5C 263.86,245.149 292.193,199.816 320.5,154.5 Z"/></g>
</svg>
