<svg viewBox="0 0 64 64" xmlns="http://www.w3.org/2000/svg"><path d="M32 2C19.7 2 9.1 9.4 4.5 20h55C54.9 9.4 44.3 2 32 2" fill="#3e4347"/><path d="M32 62c12.3 0 22.9-7.4 27.5-18h-55C9.1 54.6 19.7 62 32 62" fill="#75a843"/><path d="M62 32c0-2.8-.4-5.5-1.1-8H3.1C2.4 26.5 2 29.2 2 32s.4 5.5 1.1 8h57.8c.7-2.5 1.1-5.2 1.1-8" fill="#c94747"/><g fill="#fff"><path d="M3.7 42c.2.7.5 1.3.8 2h55c.3-.7.6-1.3.8-2s.4-1.3.6-2H3.1c.2.7.4 1.3.6 2m56.6-20c-.2-.7-.5-1.3-.8-2h-55c-.3.7-.6 1.3-.8 2s-.4 1.3-.6 2h57.8c-.2-.7-.4-1.3-.6-2"/><path d="m20.2 52.3.7.4 19.3-33.4c1.1-.3 1.7-1.4 2.4-2.4.4-.7 2.1-3.6 2.8-7.3-2.9 2.5-4.5 5.3-4.9 6.1-.6 1.1-1.2 2.1-.9 3.3z"/><path d="m43.8 52.3-.7.4-19.3-33.4c-1.1-.3-1.7-1.4-2.4-2.4-.4-.7-2.1-3.6-2.8-7.3 2.9 2.5 4.5 5.3 4.9 6.1.6 1.1 1.2 2.1.9 3.3z"/></g><path d="M40 32c0 11-8 20-8 20s-8-9-8-20 8-20 8-20 8 9 8 20" fill="#c94747"/><path d="M26.1 40c1.7-1.7 2.9-4.6 2.9-8s-1.1-6.3-2.9-8c-.7 2.3-1.1 5.1-1.1 8s.4 5.7 1.1 8m11.8-16c-1.7 1.7-2.9 4.6-2.9 8s1.1 6.3 2.9 8c.7-2.3 1.1-5.1 1.1-8s-.4-5.7-1.1-8" fill="#3e4347"/><g fill="#fff"><ellipse cx="32" cy="32" rx="1.6" ry="2.4"/><path d="M31.4 12.7c-.6 1.7-1 4.9-1 8.4 0 3.6.4 6.7 1 8.4.2-2.5.4-5.3.4-8.4 0-3-.1-5.9-.4-8.4m1.2 0c.6 1.7 1 4.9 1 8.4 0 3.6-.4 6.7-1 8.4-.2-2.5-.4-5.3-.4-8.4 0-3 .1-5.9.4-8.4m-1.2 21.7c-.6 1.7-1 4.9-1 8.4 0 3.6.4 6.7 1 8.4.2-2.5.4-5.3.4-8.4 0-3-.1-5.9-.4-8.4m1.2 0c.6 1.7 1 4.9 1 8.4 0 3.6-.4 6.7-1 8.4-.2-2.5-.4-5.3-.4-8.4 0-3 .1-5.9.4-8.4"/></g></svg>
