<svg xmlns="http://www.w3.org/2000/svg" fill="none" viewBox="">

  <g clip-path="url(#a)">
    <path fill="#858585" d="M176.588 34.655h-15.843c.208 1.775.749 3.137 1.705 4.045.957.908 2.204 1.362 3.784 1.362 2.37 0 3.95-.99 4.824-3.013h4.948c-.541 2.147-1.705 3.839-3.451 5.118-1.747 1.28-3.868 1.9-6.404 1.9-3.16 0-5.697-.992-7.609-3.014-1.913-2.022-2.911-4.664-2.911-7.966 0-3.302.956-5.985 2.869-7.966 1.954-2.023 4.491-3.014 7.568-3.014 3.202 0 5.738 1.032 7.609 3.137 1.871 2.105 2.828 4.83 2.828 8.214v1.197h.083Zm-15.801-3.55h10.645c-.208-1.527-.79-2.765-1.705-3.673-.915-.908-2.121-1.362-3.618-1.362-3.077 0-4.823 1.692-5.322 5.035Zm24.157 9.04c-2.619-2.724-3.95-6.439-3.95-11.02 0-4.623 1.289-8.338 3.909-11.062 2.578-2.724 5.988-4.086 10.27-4.086 3.41 0 6.321.908 8.733 2.724 2.411 1.816 3.908 4.458 4.49 7.883h-5.613c-.499-1.898-1.414-3.343-2.745-4.334-1.33-.99-2.952-1.485-4.906-1.485-2.578 0-4.657.908-6.113 2.765-1.497 1.816-2.245 4.375-2.245 7.595 0 3.26.748 5.778 2.204 7.594 1.455 1.817 3.534 2.725 6.154 2.725 2.037 0 3.742-.578 5.198-1.775 1.455-1.197 2.328-2.848 2.619-4.953h5.531c-.375 3.673-1.788 6.521-4.367 8.544-2.494 2.022-5.53 3.013-9.023 3.013-4.158-.041-7.526-1.403-10.146-4.128Zm28.777 3.467v-21.01h5.156v21.01h-5.156Zm.041-23.775v-4.788h5.073v4.788h-5.073Zm22.414 6.646h-4.2v11.35c0 .661.167 1.157.541 1.445.374.29.998.413 1.871.413h1.746v3.921a25.096 25.096 0 0 1-2.702.165c-2.287 0-3.992-.412-5.032-1.28-1.039-.866-1.58-2.228-1.58-4.085v-11.93h-3.285v-3.92h3.285v-6.068h5.115v6.109h4.199v3.88h.042Zm5.07 17.129v-21.01h5.156v21.01h-5.156Zm.042-23.775v-4.788h5.073v4.788h-5.073Zm28.277 19.773v4.003h-17.963v-3.385l8.357-10.443c.375-.454.874-1.031 1.456-1.733.582-.702.998-1.197 1.206-1.486-.666.041-2.121.041-4.366.041h-6.487v-4.003h17.256v3.343l-8.358 10.443c-.374.454-.873 1.032-1.455 1.733-.582.702-.998 1.197-1.206 1.486.665-.041 2.121-.041 4.366-.041h7.194v.041Zm24.076-4.955h-15.843c.208 1.775.749 3.137 1.705 4.045.956.908 2.204 1.362 3.784 1.362 2.37 0 3.95-.99 4.823-3.013h4.949c-.541 2.147-1.705 3.839-3.452 5.118-1.746 1.28-3.867 1.9-6.403 1.9-3.16 0-5.697-.992-7.61-3.014-1.912-2.022-2.91-4.664-2.91-7.966 0-3.302.956-5.985 2.869-7.966 1.954-2.023 4.491-3.014 7.568-3.014 3.201 0 5.738 1.032 7.609 3.137 1.871 2.105 2.828 4.83 2.828 8.214v1.197h.083Zm-15.801-3.55h10.603c-.208-1.527-.79-2.765-1.705-3.673-.915-.908-2.12-1.362-3.617-1.362-3.036 0-4.782 1.692-5.281 5.035Zm38.212-7.016c1.33 1.32 1.996 3.178 1.996 5.613v13.91h-5.156V30.528c0-2.642-1.331-4.004-3.992-4.004-1.331 0-2.412.454-3.327 1.403-.915.95-1.372 2.23-1.372 3.88v11.764h-5.156V22.603h4.99v3.013c1.621-2.353 3.825-3.509 6.611-3.509 2.246 0 4.075.66 5.406 1.982Z"/>
    <mask id="b" width="6" height="6" x="118" y="50" maskUnits="userSpaceOnUse" style="mask-type:alpha">
      <path fill="#fff" fill-rule="evenodd" d="M123.38 55.492h-4.698v-4.664h4.698v4.664Z" clip-rule="evenodd"/>
    </mask>
    <g mask="url(#b)">
      <path fill="#E8292B" fill-rule="evenodd" d="M123.386 53.18c0 1.28-1.04 2.354-2.329 2.354a2.325 2.325 0 0 1-2.328-2.353c0-1.28 1.039-2.353 2.328-2.353a2.352 2.352 0 0 1 2.329 2.353Z" clip-rule="evenodd"/>
    </g>
    <mask id="c" width="5" height="6" x="97" y="22" maskUnits="userSpaceOnUse" style="mask-type:alpha">
      <path fill="#fff" fill-rule="evenodd" d="M97 27.342v-4.705h4.657v4.705H97Z" clip-rule="evenodd"/>
    </mask>
    <g mask="url(#c)">
      <path fill="#858585" fill-rule="evenodd" d="M101.657 24.99c0 1.279-1.039 2.352-2.328 2.352-1.29 0-2.329-1.073-2.329-2.353 0-1.28 1.04-2.352 2.329-2.352 1.289 0 2.328 1.073 2.328 2.352Z" clip-rule="evenodd"/>
    </g>
    <path fill="#14B04C" fill-rule="evenodd" d="M137.665 20.251c0 1.28-1.04 2.353-2.329 2.353a2.325 2.325 0 0 1-2.328-2.353c0-1.28 1.039-2.353 2.328-2.353 1.289.042 2.329 1.074 2.329 2.353Z" clip-rule="evenodd"/>
    <path fill="#858585" d="M116.501 23.842c-2.661 1.155-5.239 2.806-7.443 4.911-2.204 2.105-4.117 4.582-5.406 7.347-.623 1.363-1.122 2.807-1.289 4.293-.166 1.445-.083 2.93.582 4.21l.25.496.333.454.166.206.208.206.374.413c.125.124.291.248.416.33.166.124.291.248.457.33l.499.29.25.165.249.123c1.414.66 3.036.95 4.699 1.074.125 0 .208.123.208.206 0 .124-.083.165-.208.206-1.663.124-3.41.042-5.073-.454l-.333-.082-.291-.124-.665-.289a2.64 2.64 0 0 1-.582-.33c-.208-.124-.416-.207-.582-.33l-.541-.413-.291-.206-.25-.248-.498-.495-.416-.578-.167-.29c-.041-.082-.124-.206-.166-.288l-.333-.62c-.083-.206-.166-.412-.249-.66a4.09 4.09 0 0 1-.208-.66c-.125-.495-.25-.95-.291-1.403-.042-.248-.083-.455-.083-.702l-.042-.702c-.041-1.816.25-3.632.749-5.325.998-3.425 2.786-6.562 4.989-9.37 2.204-2.806 4.907-5.282 8.109-7.222 1.455-.908 3.41-.454 4.324.99.915 1.445.458 3.385-.998 4.293-.166.124-.332.165-.457.248Z"/>
    <path fill="#14B04C" d="M127.771 35.605c.374-2.848.291-5.902-.375-8.874-.665-2.972-1.788-5.861-3.534-8.38-.873-1.238-1.871-2.393-3.035-3.301-1.165-.908-2.495-1.569-3.951-1.693l-.54-.04-.541.04h-.291l-.208.083-.54.124c-.167.041-.333.124-.541.206-.166.083-.374.124-.54.207l-.499.288-.25.124-.249.165c-1.289.867-2.412 2.106-3.368 3.426-.084.083-.208.124-.292.042-.083-.042-.124-.165-.083-.248.79-1.486 1.705-2.89 2.994-4.086l.25-.207.249-.206.541-.413c.166-.124.374-.248.582-.33.208-.124.416-.207.624-.33l.665-.29.333-.123.332-.083.707-.165.707-.041h.707l.707.041c.249.042.457.083.707.124.249.041.457.083.665.165.457.124.915.248 1.331.454.207.083.415.165.623.29l.624.33c1.622.907 2.994 2.104 4.2 3.384 2.411 2.642 4.199 5.737 5.488 9.08a30.28 30.28 0 0 1 2.038 10.609c0 1.733-1.372 3.137-3.077 3.137-1.746 0-3.16-1.363-3.16-3.055v-.454Z"/>
    <path fill="#E8292B" d="M111.803 39.279a25.59 25.59 0 0 0 7.817 4.293c2.869.99 5.988 1.527 9.023 1.403 1.539-.083 3.036-.33 4.408-.825 1.372-.537 2.661-1.28 3.493-2.436l.333-.454.249-.495.125-.248.083-.247.166-.537c.042-.165.083-.371.125-.536.042-.166.083-.372.083-.537l.042-.578v-.578c-.083-1.568-.541-3.137-1.165-4.623-.041-.123 0-.206.125-.289a.202.202 0 0 1 .25.083c.873 1.403 1.58 2.972 1.954 4.705l.083.33.042.33.041.661c.042.207 0 .454 0 .66 0 .207 0 .455-.041.661l-.125.66-.083.33-.125.33-.208.703-.332.619-.167.33a1.216 1.216 0 0 1-.208.289l-.415.578c-.167.165-.292.33-.458.536-.166.165-.332.372-.499.495-.332.29-.707.62-1.081.867-.208.124-.374.29-.582.372l-.582.33c-1.622.867-3.368 1.445-5.115 1.775-3.534.66-7.152.537-10.645-.083-3.534-.619-6.985-1.898-10.187-3.797-1.497-.867-1.954-2.766-1.081-4.251.873-1.486 2.786-1.94 4.283-1.074.124.042.249.166.374.248Z"/>
  </g>
  <defs>
    <clipPath id="a">
      <path fill="#858585" d="M97 11.5h221.048v44H97z"/>
    </clipPath>
  </defs>
</svg>