<svg xmlns="http://www.w3.org/2000/svg"  viewBox="0 0 48 48" width="480px" height="480px"><path fill="#66bb6a" d="M11.622,31.768c0.46,0.787-0.09,1.951-1.229,2.6S7.58,35.391,7.12,34.604 c-0.46-0.787,0.469-2.436,1.607-3.086C9.866,30.869,11.162,30.981,11.622,31.768z"/><path fill="#66bb6a" d="M18.766,27.808c0.115,0.812,1.256,1.326,2.549,1.148c1.293-0.178,2.841-0.851,2.726-1.663 c-0.115-0.812-1.85-1.457-3.142-1.279C19.606,26.192,18.651,26.996,18.766,27.808z"/><path fill="#aa2c2c" d="M38.352,14.876l-0.031-3.849L36,8c0,0-1.355-1.052-1.589-1.197c-1.12-0.693-2.797-1.453-3.463-0.064 c-0.364,0.759,0.694,2.314,1.053,3.074c1.571,3.325,1.03,4.822-0.387,10.514L38.352,14.876z"/><path fill="#fb8c00" d="M8.277,15.795l-3.124,2.422c0,0-1.153,0.451-1.153,4.569c0,2.343,0.867,4.499,2.434,4.183 c0.856-0.172,1.44-2.013,1.828-2.783c1.697-3.367,3.271-3.852,8.841-6.227L8.277,15.795z"/><path fill="#43a047" d="M23.888,32.502l4.786,8.997c0,0,0.96,0.758,4.539-1.295c2.037-1.169,3.484-2.983,2.438-4.163 c-0.571-0.644-2.457-0.198-3.319-0.172C27.413,36.017,23.888,32.502,23.888,32.502z"/><path fill="#ff1744" d="M42.266,21.316c0.913-0.806,1.803-1.836,1.73-2.356c-0.101-0.721-1.156-0.865-2.133-0.775 c-0.418-3.378-3.511-9.378-8.003-11.683c1.233,3.926,0.175,8.972-5.791,14.952c-0.009,0.009-0.018,0.018-0.027,0.027 c-2.091,2.075-2.671,5.223-1.299,7.845c2.05,3.92,6.758,4.705,9.863,2.354l0.008-0.008c0.296-0.253,0.593-0.507,0.866-0.784 c0.094-0.079,0.172-0.158,0.258-0.245c0.683-0.693,1.276-1.443,1.794-2.229c1.418-0.78,3.332-2.199,3.332-2.864 c0-0.563-0.716-0.808-1.577-0.869c0.001-0.003,0.002-0.007,0.003-0.01c1.288-0.8,2.677-1.913,2.677-2.48 C43.967,21.6,43.18,21.361,42.266,21.316z"/><path fill="#66bb6a" d="M14.786,23.021c3.086-0.244,5.884,1.626,7.033,4.519c0.005,0.012,2.976,9.717,10.954,12.963 c-0.809,0.511-1.675,0.943-2.594,1.308c-8.356,3.319-17.821-0.551-21.142-8.657c-0.049-0.12-0.093-0.228-0.132-0.352 c-0.156-0.38-0.279-0.773-0.402-1.167l-0.004-0.011C7.498,27.633,10.172,23.386,14.786,23.021z"/><path fill="#ffb74d" d="M26.375,8.221c0.324-0.298,0.526-0.67,0.526-1.081c0-0.356-0.147-0.686-0.397-0.962 c0.241-0.206,0.397-0.476,0.397-0.777c0-0.282-0.144-0.53-0.357-0.731c0.048-0.052,0.099-0.092,0.144-0.151 c0.431-0.564,0.526-1.208,0.212-1.438c-0.314-0.23-0.918,0.04-1.35,0.604c-0.148,0.193-0.24,0.392-0.306,0.584 c-0.73,0.071-1.304,0.54-1.304,1.132c0,0.021,0.014,0.038,0.015,0.058c-0.804,0.149-1.437,0.597-1.677,1.175 C13.537,5.445,5.434,11.67,4.165,20.541c-0.14,0.976-0.194,1.94-0.151,2.894c6.823-5.257,16.795-2.954,16.809-2.953 c3.104,0.459,6.137-1.018,7.464-3.803C29.813,13.479,28.756,10.123,26.375,8.221z"/></svg>