<svg xmlns="http://www.w3.org/2000/svg" width="280" height="280" style="shape-rendering:geometricPrecision;text-rendering:geometricPrecision;image-rendering:optimizeQuality;fill-rule:evenodd;clip-rule:evenodd"><path style="opacity:.944" fill="#f5c04c" d="M153.5 27.5a436.772 436.772 0 0 0-16.5-3 80.554 80.554 0 0 0-8.5 1 221.817 221.817 0 0 1 21-22.5c2.402-.814 4.735-.647 7 .5a11.254 11.254 0 0 1 1 3.5 98.664 98.664 0 0 1-5 18.5c.363.683.696 1.35 1 2z"/><path style="opacity:.996" fill="#fdca54" d="M153.5 27.5c.259 3.065-.741 5.565-3 7.5 14.55 9.273 22.883 22.44 25 39.5a190.93 190.93 0 0 0-2 11 196.913 196.913 0 0 1-13 18.5 47.806 47.806 0 0 1-16 9.5c-31.226 1.272-48.892-13.561-53-44.5 2.181-20.317 12.515-34.484 31-42.5 2.121.175 4.121-.159 6-1a80.554 80.554 0 0 1 8.5-1 436.772 436.772 0 0 1 16.5 3z"/><path style="opacity:.985" fill="#ae001a" d="M207.5 28.5c-.543.06-.876.393-1 1a19.35 19.35 0 0 1 4.5 7 83.233 83.233 0 0 1-.5 21c-6.361 18.723-15.361 36.056-27 52h-1c7.622-12.368 11.955-25.868 13-40.5-.181-10.847-3.348-20.68-9.5-29.5-3.083-8.996-.083-14.33 9-16 4.612.81 8.779 2.476 12.5 5z"/><path style="opacity:.995" fill="#fcc54d" d="M122.5 26.5c-18.485 8.016-28.819 22.183-31 42.5 4.108 30.939 21.774 45.772 53 44.5-2.454 1.121-5.121 1.954-8 2.5a100.2 100.2 0 0 1-20 0 2790.239 2790.239 0 0 1-51-9.5c-9.412-14.176-12.912-29.843-10.5-47 .91-6.481 2.41-12.814 4.5-19 19.332-11.655 40.332-16.321 63-14z"/><path style="opacity:.978" fill="#d90858" d="M207.5 28.5c19.903 11.235 34.57 27.235 44 48-2.635-2.579-4.801-5.579-6.5-9-8.484-10.923-16.318-10.59-23.5 1-.941-2.625-2.107-2.625-3.5 0-2.449-3.233-3.783-6.9-4-11-.986.671-2.153.671-3.5 0a83.233 83.233 0 0 0 .5-21 19.35 19.35 0 0 0-4.5-7c.124-.607.457-.94 1-1z"/><path style="opacity:.994" fill="#fbbe46" d="M59.5 40.5a104.558 104.558 0 0 0-4.5 19c-2.412 17.157 1.088 32.824 10.5 47a655.027 655.027 0 0 0-43-2.5c-5.828-1.31-8.828-4.977-9-11 .695-5.54 2.362-10.706 5-15.5 10.171-16.17 23.838-28.503 41-37z"/><path style="opacity:1" fill="#fecf59" d="M138.5 51.5c19.478-.367 26.812 8.8 22 27.5-6.616 9.735-15.283 12.068-26 7-8.512-6.865-10.679-15.365-6.5-25.5 2.791-3.967 6.291-6.967 10.5-9z"/><path style="opacity:.995" fill="#e6136c" d="M251.5 76.5a102.874 102.874 0 0 1 8 26c-12.192-1.574-23.858-5.24-35-11a121.795 121.795 0 0 1-10.5-8c-.383.556-.883.89-1.5 1a94.194 94.194 0 0 1 9-16c7.182-11.59 15.016-11.923 23.5-1 1.699 3.421 3.865 6.421 6.5 9z"/><path style="opacity:.991" fill="#f6ae41" d="M18.5 77.5c-2.638 4.794-4.305 9.96-5 15.5.172 6.023 3.172 9.69 9 11 14.367.362 28.7 1.196 43 2.5a2790.239 2790.239 0 0 0 51 9.5 100.2 100.2 0 0 0 20 0c2.879-.546 5.546-1.379 8-2.5a47.806 47.806 0 0 0 16-9.5 196.913 196.913 0 0 0 13-18.5c-6.827 18.95-20.16 30.783-40 35.5-14.797 1.747-29.464.913-44-2.5-20.17-3.657-40.503-3.824-61-.5-7.694 2.002-14.694 5.336-21 10-4.47 4.574-6.47 10.074-6 16.5-1.738-19.392 1.428-38.059 9.5-56a80.742 80.742 0 0 1 7.5-11z"/><path style="opacity:1" fill="#e10f63" d="M210.5 57.5c1.347.671 2.514.671 3.5 0 .217 4.1 1.551 7.767 4 11 1.393-2.625 2.559-2.625 3.5 0a94.194 94.194 0 0 0-9 16 496.82 496.82 0 0 1-18 23 25.658 25.658 0 0 1-6 6 119.872 119.872 0 0 0-5-4c11.639-15.944 20.639-33.277 27-52z"/><path style="opacity:.997" fill="#e91c76" d="M259.5 102.5a36.242 36.242 0 0 0 2.5 11 33.66 33.66 0 0 1 9.5 4c2.118 5.49.784 9.823-4 13-18.11 1.454-35.444-1.713-52-9.5a7894.08 7894.08 0 0 1-21-13.5 496.82 496.82 0 0 0 18-23c.617-.11 1.117-.444 1.5-1a121.795 121.795 0 0 0 10.5 8c11.142 5.76 22.808 9.426 35 11z"/><path style="opacity:.996" fill="#eb227c" d="M194.5 107.5a7894.08 7894.08 0 0 0 21 13.5c16.556 7.787 33.89 10.954 52 9.5-.558 1.29-1.558 2.123-3 2.5 4.439.317 8.605 1.484 12.5 3.5 1.086 5.75-1.081 9.75-6.5 12-24.72 3.226-47.72-1.274-69-13.5a408.304 408.304 0 0 1-19-13.5 35.061 35.061 0 0 0 6-8 25.658 25.658 0 0 0 6-6z"/><path style="opacity:.983" fill="#f66321" d="M89.5 118.5c-19.151-2.626-36.818 1.207-53 11.5-6.36 5.02-11.193 11.187-14.5 18.5-3.682 5.673-8.849 7.507-15.5 5.5-2.995-2.489-4.662-5.656-5-9.5-.47-6.426 1.53-11.926 6-16.5 6.306-4.664 13.306-7.998 21-10 20.497-3.324 40.83-3.157 61 .5z"/><path style="opacity:.997" fill="#eb2780" d="M182.5 121.5a408.304 408.304 0 0 0 19 13.5c21.28 12.226 44.28 16.726 69 13.5-1.975 2.846-4.641 5.013-8 6.5 5.158.048 7.825 2.548 8 7.5-26.968 3.743-52.301-1.091-76-14.5a466.31 466.31 0 0 0-22-15.5 78.988 78.988 0 0 1 10-11z"/><path style="opacity:.951" fill="#dc1a6d" d="M182.5 109.5h1a119.872 119.872 0 0 1 5 4 35.061 35.061 0 0 1-6 8 78.988 78.988 0 0 0-10 11 104.265 104.265 0 0 0-11 16c-3.724 5.789-6.058 12.123-7 19a62.212 62.212 0 0 0 3.5 23 41.965 41.965 0 0 1 6.5 12c-8.317-9.095-12.651-19.928-13-32.5.882-14.042 5.215-26.875 13-38.5a9994.516 9994.516 0 0 0 18-22z"/><path style="opacity:.996" fill="#ed2c85" d="M172.5 132.5a466.31 466.31 0 0 1 22 15.5c23.699 13.409 49.032 18.243 76 14.5-2.047 4.221-5.047 7.721-9 10.5a8598.033 8598.033 0 0 0-15 9.5c-21.679-1.103-42.012-6.937-61-17.5a527.167 527.167 0 0 0-24-16.5 104.265 104.265 0 0 1 11-16z"/><path style="opacity:.988" fill="#7bf1c0" d="M67.5 137.5c17.122-1.584 31.456 3.749 43 16-30.521 14.85-51.521 38.184-63 70-.722-.418-1.222-1.084-1.5-2-5.082 1.137-10.249 1.304-15.5.5-2.349-3.666-2.515-7.5-.5-11.5a104.612 104.612 0 0 0 6.5-12c-3.653-16.991-.82-32.658 8.5-47 5.879-7.399 13.379-12.066 22.5-14z"/><path style="opacity:.997" fill="#ef328c" d="M161.5 148.5a527.167 527.167 0 0 1 24 16.5c18.988 10.563 39.321 16.397 61 17.5a81.634 81.634 0 0 1-17 20c-27.797-5.827-52.797-17.494-75-35 .942-6.877 3.276-13.211 7-19z"/><path style="opacity:.998" fill="#73eebc" d="M110.5 153.5c3.079 2.757 5.412 6.09 7 10-.453.958-1.119 1.792-2 2.5-20.518 8.847-36.351 23.014-47.5 42.5a471.54 471.54 0 0 0-11.5 26c-4.05-2.726-7.05-6.392-9-11 11.479-31.816 32.479-55.15 63-70z"/><path style="opacity:.979" fill="#68e3b2" d="M121.5 159.5c6.777.067 13.11 1.734 19 5 2.903 3.459 2.57 6.459-1 9-2.974-1.155-5.974-.821-9 1a101.303 101.303 0 0 1-9-15z"/><path style="opacity:.997" fill="#6bebb8" d="M117.5 163.5a134.092 134.092 0 0 1 9 21c.131.876-.202 1.543-1 2-28.857 13.534-44.857 36.2-48 68-8.31-5.311-15.31-11.978-21-20a471.54 471.54 0 0 1 11.5-26c11.149-19.486 26.982-33.653 47.5-42.5.881-.708 1.547-1.542 2-2.5z"/><path style="opacity:.993" fill="#ef3991" d="M154.5 167.5c22.203 17.506 47.203 29.173 75 35-17.888 14.305-37.222 16.639-58 7a34.807 34.807 0 0 1-7-7 41.965 41.965 0 0 0-6.5-12 62.212 62.212 0 0 1-3.5-23z"/><path style="opacity:.996" fill="#61e7b2" d="M126.5 184.5a133.12 133.12 0 0 1 6 19c-18.337 7.991-30.171 21.658-35.5 41a99.644 99.644 0 0 0-1.5 19h-3a168.609 168.609 0 0 1-15-9c3.143-31.8 19.143-54.466 48-68 .798-.457 1.131-1.124 1-2z"/><path style="opacity:1" fill="#32a17c" d="M136.5 192.5a47.1 47.1 0 0 1 5 10c-.958-.453-1.792-1.119-2.5-2a15.024 15.024 0 0 1-2.5-8z"/><path style="opacity:1" fill="#52d8a2" d="M67.5 137.5c22.38-3.663 40.38 3.671 54 22a101.303 101.303 0 0 0 9 15c3.026-1.821 6.026-2.155 9-1-1.783 2.918-4.117 5.418-7 7.5 1.47 3.777 2.804 7.61 4 11.5a15.024 15.024 0 0 0 2.5 8c.708.881 1.542 1.547 2.5 2a4214.33 4214.33 0 0 1 8 19c-2.755 1.131-5.089 2.798-7 5h-1a490.788 490.788 0 0 1-9-23 133.12 133.12 0 0 0-6-19 134.092 134.092 0 0 0-9-21c-1.588-3.91-3.921-7.243-7-10-11.544-12.251-25.878-17.584-43-16z"/><path style="opacity:.996" fill="#56e2ac" d="M132.5 203.5a490.788 490.788 0 0 0 9 23 147.211 147.211 0 0 1-10.5 9c-9.002 11.175-11.502 23.675-7.5 37.5a2.428 2.428 0 0 1-2 .5c-10.258-1.979-19.925-5.313-29-10h3a99.644 99.644 0 0 1 1.5-19c5.329-19.342 17.163-33.009 35.5-41z"/><path style="opacity:.985" fill="#259a7d" d="M141.5 202.5c6.741 11.576 15.741 21.076 27 28.5 10.997 5.329 22.664 7.663 35 7 8.533 8.321 7.533 15.488-3 21.5-.06-.543-.393-.876-1-1-3.536 1.59-7.203 2.09-11 1.5-9.381-3.123-17.215-8.623-23.5-16.5a428.788 428.788 0 0 1-15.5-22 4214.33 4214.33 0 0 0-8-19z"/><path style="opacity:1" fill="#4bdea6" d="M141.5 226.5h1a138.644 138.644 0 0 0 14.5 29c4.222 10.084 1.055 16.251-9.5 18.5-5.991.499-11.991.666-18 .5-2.885.306-5.552-.027-8-1a2.428 2.428 0 0 0 2-.5c-4.002-13.825-1.502-26.325 7.5-37.5a147.211 147.211 0 0 0 10.5-9z"/><path style="opacity:.988" fill="#40cf96" d="M149.5 221.5a428.788 428.788 0 0 0 15.5 22c6.285 7.877 14.119 13.377 23.5 16.5 3.797.59 7.464.09 11-1.5.607.124.94.457 1 1-21.681 14.336-45.348 19.336-71 15 6.009.166 12.009-.001 18-.5 10.555-2.249 13.722-8.416 9.5-18.5a138.644 138.644 0 0 1-14.5-29c1.911-2.202 4.245-3.869 7-5z"/></svg>