<?xml version="1.0" encoding="UTF-8"?>
<!-- Uploaded to: SVG Repo, www.svgrepo.com, Generator: SVG Repo Mixer Tools -->
<svg width="800px" height="800px" viewBox="0 -1 256 256" version="1.1" xmlns="http://www.w3.org/2000/svg" xmlns:xlink="http://www.w3.org/1999/xlink" preserveAspectRatio="xMidYMid">
    <defs>
        <linearGradient x1="61.0500426%" y1="82.514%" x2="38.4498197%" y2="28.19%" id="linearGradient-1">
            <stop stop-color="#477CD8" offset="0%">
</stop>
            <stop stop-color="#4573D2" offset="16%">
</stop>
            <stop stop-color="#3F5BC2" offset="43%">
</stop>
            <stop stop-color="#3633A7" offset="76%">
</stop>
            <stop stop-color="#2F1391" offset="100%">
</stop>
        </linearGradient>
        <linearGradient x1="62.8566029%" y1="19.708%" x2="52.4304188%" y2="78.902%" id="linearGradient-2">
            <stop stop-color="#2055DA" offset="0%">
</stop>
            <stop stop-color="#2055DA" offset="11%">
</stop>
            <stop stop-color="#00BFF6" offset="100%">
</stop>
        </linearGradient>
    </defs>
    <g>
        <path d="M72.7150149,126.611074 C72.7150149,96.8615479 96.8317711,72.7447918 126.581297,72.7447918 C156.330824,72.7447918 180.44758,96.8615479 180.44758,126.611074 C180.44758,156.360601 156.330824,180.477357 126.581297,180.477357 L126.581297,180.477357 C96.8317711,180.477357 72.7150149,156.360601 72.7150149,126.611074 L72.7150149,126.611074 M0,126.611074 C0,196.503549 56.6590457,253.162595 126.551521,253.162595 C196.443996,253.162595 253.103041,196.503549 253.103041,126.611074 C253.103041,56.7185994 196.443996,0.0595536568 126.551521,0.0595536568 L126.551521,0.0595536568 C56.6998474,0.157959542 0.0984058848,56.759401 0,126.611074" fill="url(#linearGradient-1)">
</path>
        <path d="M152.457361,38.9183147 L126.491967,72.7745686 C155.723692,73.4621836 179.062432,97.3563743 179.062432,126.596186 C179.062432,155.835997 155.723692,179.730188 126.491967,180.417803 L93.9756704,217.370847 L126.491967,253.103041 C171.746201,254.147449 214.1137,230.946873 237.608402,192.255331 C261.103105,153.563788 262.148498,105.271151 240.350136,65.5991464 C218.551774,25.927142 177.227941,0.914894993 131.970903,0 C130.154517,0 128.308354,0 126.491967,0 L152.457361,38.9183147 Z" fill="url(#linearGradient-2)">
</path>
    </g>
</svg>