<svg xmlns="http://www.w3.org/2000/svg" viewBox="0 0 430.964 500">
  <path d="m156.633 323.503-6.557 16.51h12.996l-6.439-16.51Zm38.498-171.881v-48.197c0-7.683-3.53-11.231-10.894-11.231h-11.986v70.676h11.986c7.364 0 10.894-3.564 10.894-11.23v-.018ZM391.791 0H39.138C10.524 0 0 10.541 0 39.138V384.21l.42 9.027c.64 6.255.791 12.307 6.591 19.165 2.11 1.765 4.28 3.458 6.505 5.078l8.961 4.169 173.646 72.743c9.027 4.119 12.777 5.75 19.333 5.598h.05c6.557.135 10.306-1.479 19.335-5.598l173.645-72.743 8.961-4.169 6.505-5.077c5.8-6.893 5.934-12.945 6.591-19.165.293-3.001.433-6.014.42-9.029V39.155c0-28.614-10.558-39.138-39.138-39.138h-.033V0h-.001ZM237.447 66.441h29.168v191.715h-29.168V66.44v.001Zm1.966 238.403h16.98v57.999h-16.004v-33.32l-14.829 22.695h-.337l-14.743-22.527v33.151h-15.752v-57.999h16.979l13.837 22.477 13.835-22.477h.034v.001ZM143.083 66.44h45.778c23.704 0 35.438 11.768 35.438 35.607v50.938c0 23.822-11.717 35.607-35.438 35.607h-16.61v69.582h-29.168V66.439v.001Zm-79.501 0h64.875v26.561H92.75v54.216h34.346v26.562H92.75v57.798h36.262v26.562h-65.43V66.44Zm55.763 288.635c-6.136 5.044-14.676 8.944-25.183 8.944-18.073 0-31.572-12.439-31.572-30.008v-.168c0-16.896 13.247-30.177 31.235-30.177 10.205 0 17.401 3.143 23.536 8.457l-9.447 11.347c-4.153-3.48-8.289-5.464-14.005-5.464-8.372 0-14.828 7.027-14.828 15.921v.168c-.466 8.938 6.806 16.366 15.752 16.088 3.901 0 6.893-.84 9.281-2.403v-7.028H92.683v-11.769h26.68v26.11l-.018-.018Zm29.672-50.635h15.5l24.679 58.419h-17.231l-4.236-10.373h-22.393l-4.154 10.373h-16.894l24.678-58.419h.052-.001Zm65.128 155.186-81.736-28.108h166.955l-85.218 28.109-.001-.001Zm99.978-96.75h-47.072v-57.999h46.652v13.667h-30.732v8.793h27.857v12.693h-27.857v9.195h31.169v13.668-.034l-.017.017Zm-32.06-138.677V100.398c0-23.822 11.717-35.607 35.438-35.607h14.172c23.704 0 35.169 11.517 35.169 35.338V139.3H338.23v-37.523c0-7.682-3.564-11.23-10.894-11.23h-4.91c-7.615 0-11.178 3.564-11.178 11.23V222.82c0 7.682 3.563 11.23 11.178 11.23h5.465c7.363 0 10.893-3.565 10.893-11.23v-43.256h28.614v44.634c0 23.822-11.718 35.624-35.439 35.624h-14.458c-23.704 0-35.438-11.768-35.438-35.623Zm86.831 120.772c0 11.853-9.364 18.88-23.452 18.88-10.289 0-20.056-3.228-27.185-9.616l8.944-10.709a29.76 29.76 0 0 0 18.795 6.944c4.321 0 6.641-1.48 6.641-3.985v-.168c0-2.404-1.9-3.732-9.784-5.548-12.357-2.824-21.889-6.304-21.889-18.241v-.168c0-10.793 8.541-18.576 22.477-18.576 9.868 0 17.568 2.656 23.872 7.699l-8.036 11.349c-5.295-3.733-11.095-5.717-16.256-5.717-3.901 0-5.8 1.648-5.8 3.733v.167c0 2.656 1.983 3.817 10.036 5.633 13.331 2.908 21.637 7.195 21.637 18.071v.252Z"/>
</svg>
