<svg xmlns="http://www.w3.org/2000/svg" width="192" height="192" style="shape-rendering:geometricPrecision;text-rendering:geometricPrecision;image-rendering:optimizeQuality;fill-rule:evenodd;clip-rule:evenodd"><path style="opacity:.725" fill="#ebaaaa" d="M121.5 23.5h-28c9.326-2.535 18.659-2.535 28 0z"/><path style="opacity:1" fill="#c21217" d="M93.5 23.5h28a54.58 54.58 0 0 1 12 7c.337 3.808-.163 7.474-1.5 11a369.603 369.603 0 0 1-13.5 10c-3.637.764-6.97 2.097-10 4-1.291-.237-2.291.096-3 1h-15v-4a34.822 34.822 0 0 1 7-7c3.331.482 5.997-.518 8-3 5.921-.462 10.921-2.795 15-7-5.82-1.316-11.487-1.316-17 0-.709.904-1.709 1.237-3 1h-3c-1.476-1.932-3.143-2.265-5-1-1.903.296-3.57.962-5 2-.709.904-1.709 1.237-3 1-5.72.517-10.554 2.85-14.5 7-.684 4.952.482 9.452 3.5 13.5.948.483 1.948.65 3 .5.709.904 1.709 1.237 3 1v3a27.426 27.426 0 0 1-11 2c-.762-1.762-2.096-2.762-4-3a19.572 19.572 0 0 1-6-6c.397-1.025 1.063-1.192 2-.5 3.356 3.52 7.356 6.02 12 7.5l1-1a65.467 65.467 0 0 1-11.5-12c-2.169-3.01-2.836-6.344-2-10a118.838 118.838 0 0 1 9.5-9 10.174 10.174 0 0 0 3-3c1.903-.296 3.57-.962 5-2 5.576-.371 10.909-1.371 16-3z"/><path style="opacity:.29" fill="#eba7a8" d="M121.5 23.5c3.605.299 6.939 1.465 10 3.5 1.323.816 1.989 1.983 2 3.5a54.58 54.58 0 0 0-12-7z"/><path style="opacity:.592" fill="#e89c9d" d="M93.5 23.5c-5.091 1.629-10.424 2.629-16 3 5.006-2.06 10.34-3.06 16-3z"/><path style="opacity:.439" fill="#eeb4b6" d="M77.5 26.5c-1.43 1.038-3.097 1.704-5 2 1.135-1.713 2.802-2.38 5-2z"/><path style="opacity:.439" fill="#efb8b9" d="M72.5 28.5a10.174 10.174 0 0 1-3 3 20.677 20.677 0 0 0-5 1c2.289-1.887 4.955-3.22 8-4z"/><path style="opacity:.29" fill="#eba8a8" d="M64.5 32.5c-.986 1.908-2.652 2.908-5 3 1.16-1.75 2.826-2.75 5-3z"/><path style="opacity:.282" fill="#ecadae" d="M103.5 35.5c5.513-1.316 11.18-1.316 17 0-4.079 4.205-9.079 6.538-15 7a118.652 118.652 0 0 0 13-6.5c-5.354.034-10.354-.133-15-.5z"/><path style="opacity:.065" fill="#f3cccc" d="m92.5 35.5 5 2c-2.005 2.745-3.671 2.412-5-1a9.106 9.106 0 0 1-5 1c1.43-1.038 3.097-1.704 5-2z"/><path style="opacity:.941" fill="#db5156" d="M92.5 35.5c1.857-1.265 3.524-.932 5 1v1l-5-2z"/><path style="opacity:.51" fill="#eeb7b8" d="M59.5 35.5c-.238 1.904-1.238 3.238-3 4 .238-1.904 1.238-3.238 3-4z"/><path style="opacity:.004" fill="#f8e4e5" d="M97.5 37.5v-1h3c-.304 2.296-1.304 2.629-3 1z"/><path style="opacity:1" fill="#ae171d" d="M69.5 31.5a118.838 118.838 0 0 0-9.5 9c-.836 3.656-.169 6.99 2 10a65.467 65.467 0 0 0 11.5 12l-1 1c-4.644-1.48-8.644-3.98-12-7.5-.937-.692-1.603-.525-2 .5h-1c-.25-2.174-1.25-3.84-3-5v-9c1.406-.473 2.073-1.473 2-3 1.762-.762 2.762-2.096 3-4 2.348-.092 4.014-1.092 5-3a20.677 20.677 0 0 1 5-1z"/><path style="opacity:.102" fill="#f1c9ca" d="M56.5 39.5c.073 1.527-.594 2.527-2 3-.073-1.527.594-2.527 2-3z"/><path style="opacity:.004" fill="#f1bcbc" d="M133.5 30.5c2.562 5.92 1.228 11.086-4 15.5a42.51 42.51 0 0 1-11 5.5 369.603 369.603 0 0 0 13.5-10c1.337-3.526 1.837-7.192 1.5-11z"/><path style="opacity:.424" fill="#f5d1d1" d="M105.5 42.5c-2.003 2.482-4.669 3.482-8 3 2.003-2.482 4.669-3.482 8-3z"/><path style="opacity:.282" fill="#f4d3d3" d="M54.5 43.5v7c-.79-.283-1.456-.783-2-1.5v-4c.544-.717 1.21-1.217 2-1.5z"/><path style="opacity:.106" fill="#f6dada" d="M97.5 45.5a34.822 34.822 0 0 0-7 7h-1c-.333-1.333-.667-1.333-1 0h-3a18.436 18.436 0 0 1 .5-6c.826-1.905 1.993-2.239 3.5-1-1.439 1.843-1.272 3.51.5 5 1.857-2.7 4.357-4.367 7.5-5z"/><path style="opacity:.184" fill="#f2c8c8" d="M54.5 51.5c1.75 1.16 2.75 2.826 3 5l-3-1.5c.671-.986.671-2.153 0-3.5z"/><path style="opacity:.004" fill="#f2c4c4" d="M118.5 51.5c-2.84 2.415-6.173 3.748-10 4 3.03-1.903 6.363-3.236 10-4z"/><path style="opacity:.071" fill="#f5d7d8" d="M105.5 56.5c.709-.904 1.709-1.237 3-1-.605 1.981-1.605 2.315-3 1z"/><path style="opacity:.137" fill="#f0babb" d="M84.5 38.5c.11 2.148-.556 2.481-2 1a23.668 23.668 0 0 1-6 2.5 9.468 9.468 0 0 0-1.5 2.5l-1-1a10.505 10.505 0 0 0-3.5 5c.742 4.493 2.742 8.16 6 11a4.932 4.932 0 0 1-3-.5c-3.018-4.048-4.184-8.548-3.5-13.5 3.946-4.15 8.78-6.483 14.5-7z"/><path style="opacity:.427" fill="#de6d6f" d="M89.5 52.5h1v4h3v1h-2a8.434 8.434 0 0 1-4-.5c1.607-1.049 2.273-2.549 2-4.5z"/><path style="opacity:.106" fill="#f7dede" d="M93.5 57.5v-1h8c1.158 1.45.658 2.45-1.5 3a14.826 14.826 0 0 0-6.5-2z"/><path style="opacity:.38" fill="#f2c8c9" d="M88.5 52.5h1c.273 1.951-.393 3.451-2 4.5a8.434 8.434 0 0 0 4 .5c-.283.79-.783 1.456-1.5 2-1.398-.55-2.732-.884-4-1 .483-2.037 1.316-4.037 2.5-6z"/><path style="opacity:.131" fill="#f4cecd" d="M79.5 63.5v-3c-1.291.237-2.291-.096-3-1 6.266-1.75 7.266-.416 3 4z"/><path style="opacity:.366" fill="#efbcbd" d="M122.5 59.5c7.155-1.155 14.488-1.322 22-.5 4.267.19 8.267 1.023 12 2.5h-5c-9.441-1.739-19.107-2.405-29-2z"/><path style="opacity:1" fill="#c51317" d="M133.5 60.5c-.763.768-1.763 1.268-3 1.5l3 1a18.95 18.95 0 0 1-5 3 78.8 78.8 0 0 1 3 8 20.495 20.495 0 0 1-2.5 3.5c-3.135-3.769-6.969-4.769-11.5-3v-1l2-1h1c1.291.237 2.291-.096 3-1h1c3.77-1.078 3.77-1.745 0-2-1.855-.16-3.188.507-4 2h-1c-7.949 2.828-15.949 4.828-24 6-1.599.268-2.932-.066-4-1-2.484-.869-5.15-1.536-8-2-.916.043-1.583.376-2 1a68.634 68.634 0 0 0-9 2c-2.652-.09-4.986.576-7 2-1.068.934-2.401 1.268-4 1-1.7-.16-3.366.007-5 .5a59.39 59.39 0 0 1-18 7 157.706 157.706 0 0 1-6 4.5h-3v-4c1.788.285 3.455-.048 5-1-1.103-.498-2.103-.83-3-1a8.905 8.905 0 0 0 3-4c-.457-.797-1.124-1.13-2-1 7.463-5.393 15.796-9.227 25-11.5 1.388-.89 1.221-1.39-.5-1.5a52.405 52.405 0 0 1-8.5 2v-1c4.106-1.467 8.273-2.8 12.5-4l2.5.5c-1.208 2.645-.208 3.812 3 3.5a238.89 238.89 0 0 0 14-4c3.018-.204 6.018-.537 9-1 3.622.178 6.956-.489 10-2l10-1a940.363 940.363 0 0 1 24-1z"/><path style="opacity:1" fill="#c10712" d="m133.5 60.5 18 1h5l1 2c.087 3.098-.413 3.432-1.5 1a4.458 4.458 0 0 0-1.5 2c.502 1.216.835 2.383 1 3.5a14.505 14.505 0 0 0-5 4c-3.437.356-6.604.19-9.5-.5a66.874 66.874 0 0 0-7.5 6 42.717 42.717 0 0 1-9 1.5c-1.134 1.016-.801 1.683 1 2-3.646 1.453-7.312 1.62-11 .5a3.647 3.647 0 0 1 1-1.5c-1.032-1.627-2.366-2.793-4-3.5 1.647-1.826 3.647-3.16 6-4 4.531-1.769 8.365-.769 11.5 3a20.495 20.495 0 0 0 2.5-3.5 78.8 78.8 0 0 0-3-8 18.95 18.95 0 0 0 5-3l-3-1c1.237-.232 2.237-.732 3-1.5z"/><path style="opacity:1" fill="#d54a47" d="M122.5 59.5c9.893-.405 19.559.261 29 2l-18-1c-8.005.231-16.005.565-24 1v-1a46.797 46.797 0 0 1 13-1z"/><path style="opacity:.427" fill="#eca8a9" d="M109.5 60.5v1l-10 1h-2c3.812-1.955 7.812-2.622 12-2z"/><path style="opacity:.647" fill="#e17d7f" d="M64.5 62.5c1.904.238 3.238 1.238 4 3a5.728 5.728 0 0 1-3-1l-1-2z"/><path style="opacity:.961" fill="#df6d6d" d="M97.5 62.5h2c-3.044 1.511-6.378 2.178-10 2v-1c2.555-.888 5.221-1.221 8-1z"/><path style="opacity:.369" fill="#edb2b3" d="M89.5 63.5v1c-2.982.463-5.982.796-9 1a469.345 469.345 0 0 1 8-3c.607.124.94.457 1 1z"/><path style="opacity:1" fill="#c81519" d="M157.5 63.5a108.37 108.37 0 0 1 13 5 30.566 30.566 0 0 0 8 7c-.073 1.527.594 2.527 2 3 .551 3.307.884 6.64 1 10-1.344 6.353-4.011 12.019-8 17-.342.838-1.008 1.172-2 1a5.727 5.727 0 0 0-3 1c-1.855.228-2.688-.439-2.5-2 2.259-1.746 3.592-4.08 4-7a13.24 13.24 0 0 0 5-3 741.722 741.722 0 0 0 4.5-8.5c-1.557-6.715-5.224-11.881-11-15.5-.607.124-.94.457-1 1-1.648-1.31-3.314-2.643-5-4-.552 1.503-.552 3.17 0 5-4.148-.059-6.482 1.941-7 6l-2 1h-1c-1.915-.284-3.581.049-5 1-5.541-1.124-9.874.542-13 5-2.83.463-5.497 1.13-8 2-3.103.928-5.769 2.595-8 5a48.608 48.608 0 0 0 5 3.5 11.142 11.142 0 0 1-5.5 3.5 12.93 12.93 0 0 0-.5 5c-1.495.489-2.829 1.155-4 2 0 .667-.333 1-1 1-1.562.233-2.895.9-4 2-.722.418-1.222 1.084-1.5 2-.732-2.206-.065-3.872 2-5 .779-2.307.279-4.307-1.5-6a31.147 31.147 0 0 0 2-2c.891-.761 1.558-1.761 2-3a20.211 20.211 0 0 0-6-1.5c-.837-1.011-1.17-2.178-1-3.5.423-2.281-.244-3.948-2-5h-2c-.418-.722-1.084-1.222-2-1.5.556-.383.89-.883 1-1.5 1.527.073 2.527-.594 3-2a8.947 8.947 0 0 0 4-3h5c1.634.707 2.968 1.873 4 3.5a3.647 3.647 0 0 0-1 1.5c3.688 1.12 7.354.953 11-.5-1.801-.317-2.134-.984-1-2a42.717 42.717 0 0 0 9-1.5 66.874 66.874 0 0 1 7.5-6c2.896.69 6.063.856 9.5.5a14.505 14.505 0 0 1 5-4c-.165-1.117-.498-2.284-1-3.5a4.458 4.458 0 0 1 1.5-2c1.087 2.432 1.587 2.098 1.5-1zm7 34a20.676 20.676 0 0 1-5 1c-.016-1.984.984-2.984 3-3 1.213.247 1.88.914 2 2z"/><path style="opacity:.282" fill="#edb1b1" d="M156.5 61.5c5.264 1.299 9.931 3.632 14 7a108.37 108.37 0 0 0-13-5l-1-2z"/><path style="opacity:.137" fill="#f0baba" d="M57.5 56.5h1a19.572 19.572 0 0 0 6 6l1 2c.186 4.81 1.186 5.143 3 1 3.819.086 7.485-.58 11-2-1.531 1.424-1.198 2.091 1 2a238.89 238.89 0 0 1-14 4c-3.208.312-4.208-.855-3-3.5l-2.5-.5a197.089 197.089 0 0 0-12.5 4h-2a379.13 379.13 0 0 1 15-6.5c-1.79-1.853-3.124-4.02-4-6.5zm8 8c.891.61 1.891.943 3 1-1.814 4.143-2.814 3.81-3-1z"/><path style="opacity:.071" fill="#f3cecf" d="M124.5 71.5c-1.349-1.144-1.683-1.144-1 0-.709.904-1.709 1.237-3 1v-1c.812-1.493 2.145-2.16 4-2 3.77.255 3.77.922 0 2z"/><path style="opacity:.137" fill="#f1c0c1" d="M167.5 72.5c2.942 2.28 4.609 5.28 5 9a2.427 2.427 0 0 1-2-.5v-3a71.466 71.466 0 0 1-6.5-6.5c-.278.916-.778 1.582-1.5 2-.552-1.83-.552-3.497 0-5 1.686 1.357 3.352 2.69 5 4z"/><path style="opacity:.824" fill="#e68c8d" d="M46.5 69.5h2v1c-6.176.835-11.843 2.835-17 6 4.047-4.032 9.047-6.366 15-7z"/><path style="opacity:.227" fill="#f2c8c8" d="M170.5 68.5c3.913.95 6.58 3.283 8 7a30.566 30.566 0 0 1-8-7z"/><path style="opacity:.024" fill="#f1bfbf" d="M119.5 71.5v1l-2 1v1c-2.353.84-4.353 2.174-6 4h-4c.763-.768 1.763-1.268 3-1.5l-4-.5a38.845 38.845 0 0 0-11 1c8.051-1.172 16.051-3.172 24-6z"/><path style="opacity:.102" fill="#f1c4c5" d="M162.5 73.5a49.138 49.138 0 0 0-7 6c.518-4.059 2.852-6.059 7-6z"/><path style="opacity:.071" fill="#f2c5c6" d="M81.5 75.5a4.932 4.932 0 0 1 3 .5c-3.605.643-6.605 2.31-9 5l1 .5a134.34 134.34 0 0 1 15-5c1.068.934 2.401 1.268 4 1-2.082 2.134-4.082 2.134-6 0-3.51 1.275-6.51 3.275-9 6-1.946-1.587-3.446-1.254-4.5 1-3.18-2.207-3.014-4.374.5-6.5a8.434 8.434 0 0 0-4-.5 68.634 68.634 0 0 1 9-2z"/><path style="opacity:.373" fill="#eaa6a7" d="M31.5 76.5c-.9 2.227-2.567 3.227-5 3 1.4-1.39 3.066-2.39 5-3z"/><path style="opacity:.282" fill="#efbfc0" d="M178.5 75.5c1.406.473 2.073 1.473 2 3-1.406-.473-2.073-1.473-2-3z"/><path style="opacity:.427" fill="#edb0b1" d="M72.5 77.5c-2.034 2.207-4.367 2.874-7 2 2.014-1.424 4.348-2.09 7-2z"/><path style="opacity:1" fill="#de4746" d="M81.5 75.5c.417-.624 1.084-.957 2-1 2.85.464 5.516 1.131 8 2a134.34 134.34 0 0 0-15 5l-1-.5c2.395-2.69 5.395-4.357 9-5a4.932 4.932 0 0 0-3-.5z"/><path style="opacity:.024" fill="#f5d4d4" d="M106.5 78.5a8.947 8.947 0 0 1-4 3c.548-2.032 1.881-3.032 4-3z"/><path style="opacity:.933" fill="#e99898" d="M26.5 79.5c-1.534 1.869-3.534 3.202-6 4 1.134-2.534 3.134-3.867 6-4z"/><path style="opacity:.004" fill="#faecec" d="M155.5 79.5c0 1.333-.667 2-2 2v-1l2-1z"/><path style="opacity:.004" fill="#f9e8e8" d="M147.5 81.5c1.419-.951 3.085-1.284 5-1 0 .667.333 1 1 1-1.889 1.242-3.889 1.242-6 0z"/><path style="opacity:.51" fill="#ebaeaf" d="M102.5 81.5c-.473 1.406-1.473 2.073-3 2 .473-1.406 1.473-2.073 3-2z"/><path style="opacity:.18" fill="#edafb0" d="M61.5 80.5a320.81 320.81 0 0 1-29 12 157.706 157.706 0 0 0 6-4.5 59.39 59.39 0 0 0 18-7c1.634-.493 3.3-.66 5-.5z"/><path style="opacity:.643" fill="#e38283" d="M180.5 78.5c1.574 1.602 2.241 3.602 2 6 .268 1.599-.066 2.932-1 4a76.923 76.923 0 0 0-1-10z"/><path style="opacity:.004" fill="#faebeb" d="M64.5 84.5c2.6 1.422 2.434 2.756-.5 4-1.059-.13-1.892-.63-2.5-1.5a81.718 81.718 0 0 0 3-2.5z"/><path style="opacity:.592" fill="#f0c0c1" d="M99.5 83.5c-.11.617-.444 1.117-1 1.5.916.278 1.582.778 2 1.5-2.25.319-4.25-.181-6-1.5 1.405-1.27 3.071-1.77 5-1.5z"/><path style="opacity:.106" fill="#f3cfd0" d="M172.5 81.5c1.333 2.333 1.333 4.667 0 7-1.333-2.333-1.333-4.667 0-7z"/><path style="opacity:.557" fill="#f3cece" d="M147.5 81.5c-2.131.814-4.464 1.314-7 1.5-1.212 1.107-.879 1.607 1 1.5.321 1.548 1.321 2.215 3 2a38.662 38.662 0 0 1-10 0c3.126-4.458 7.459-6.124 13-5z"/><path style="opacity:.71" fill="#df6c6e" d="M146.5 83.5c-.282 1.278-.949 2.278-2 3-1.679.215-2.679-.452-3-2 1.542-.8 3.208-1.134 5-1z"/><path style="opacity:.043" fill="#f5d9d9" d="M146.5 83.5c1.855-.228 2.688.439 2.5 2-1.356.88-2.856 1.213-4.5 1 1.051-.722 1.718-1.722 2-3z"/><path style="opacity:.29" fill="#eeb2b3" d="M20.5 83.5c-3.974 3.638-7.974 7.305-12 11 2.696-5.027 6.696-8.694 12-11z"/><path style="opacity:.91" fill="#e58687" d="M134.5 86.5c-.473 1.406-1.473 2.073-3 2h-5c2.503-.87 5.17-1.537 8-2z"/><path style="opacity:.424" fill="#f9e8e8" d="M56.5 87.5c1.478-.262 2.811.071 4 1a32.05 32.05 0 0 0-3.5 4c-3.02-1.322-3.187-2.989-.5-5z"/><path style="opacity:.557" fill="#f4d1d1" d="M182.5 84.5c2.084 2.276 3.584 4.943 4.5 8 .494 1.634.66 3.3.5 5-2.906-.403-4.739-2.07-5.5-5-1.336 5.347-4.17 9.68-8.5 13 3.989-4.981 6.656-10.647 8-17 .934-1.068 1.268-2.401 1-4z"/><path style="opacity:.227" fill="#f0c1c1" d="M102.5 86.5c1.756 1.052 2.423 2.719 2 5l-3 2a16.08 16.08 0 0 1 2-5 44.147 44.147 0 0 1-1-2z"/><path style="opacity:.137" fill="#f0b9b9" d="M29.5 92.5h3c-1.681 1.507-3.681 2.507-6 3a6.541 6.541 0 0 1 3-3z"/><path style="opacity:1" fill="#d43a39" d="M104.5 91.5c-.17 1.322.163 2.489 1 3.5 2.077.192 4.077.692 6 1.5-.442 1.239-1.109 2.239-2 3v-3c-4.048-.67-7.048.663-9 4-.342.838-1.008 1.172-2 1-1.25-.077-2.083-.744-2.5-2-1.848 2.541-4.348 3.541-7.5 3l2-2c2.592-2.068 5.592-3.401 9-4a184.223 184.223 0 0 0 2-3l3-2z"/><path style="opacity:.424" fill="#f8e5e5" d="M135.5 90.5a4.932 4.932 0 0 1 3 .5c1.333.667 1.333 1.333 0 2a54.152 54.152 0 0 0-6.5 2.5l-1.5-1a23.73 23.73 0 0 1 5-4z"/><path style="opacity:.102" fill="#f0b9b9" d="M172.5 88.5c-.308 3.51-2.308 5.176-6 5 .271 1.88-.396 3.213-2 4-2.035 1.695-4.368 3.028-7 4-.34-3.175-2.007-5.341-5-6.5 1.333-.667 1.333-1.333 0-2a4.932 4.932 0 0 1 3-.5c.577-2.152 1.744-2.485 3.5-1 .388-.928 1.055-1.595 2-2 4.37 4.246 8.203 3.913 11.5-1zm-8 9a20.676 20.676 0 0 1-5 1c-.016-1.984.984-2.984 3-3 1.213.247 1.88.914 2 2z"/><path style="opacity:1" fill="#dc2a2d" d="M155.5 92.5c1.846-.278 3.18.389 4 2-1.223 1.114-2.556 1.28-4 .5-1.098-.77-1.098-1.603 0-2.5z"/><path style="opacity:1" fill="#de3031" d="M160.5 91.5c1.495-.085 2.495.582 3 2-1.896 1.14-2.896.473-3-2z"/><path style="opacity:1" fill="#b7161a" d="M32.5 81.5c-11.576 4.076-19.243 11.909-23 23.5 1.305.804 1.971 1.971 2 3.5-.351 1.286-1.018 2.119-2 2.5 2.859 2.364 4.859 5.364 6 9-1.873.953-2.207 2.12-1 3.5-1.562-.233-2.895-.9-4-2 .073-1.527-.594-2.527-2-3-1.323-3.317-2.657-6.65-4-10a19.062 19.062 0 0 0 1-6c.838-.342 1.172-1.008 1-2 1.574-1.602 2.24-3.602 2-6 4.026-3.695 8.026-7.362 12-11 2.466-.798 4.466-2.131 6-4 2.433.227 4.1-.773 5-3 5.157-3.165 10.824-5.165 17-6a52.405 52.405 0 0 0 8.5-2c1.721.11 1.888.61.5 1.5-9.204 2.273-17.537 6.107-25 11.5z"/><path style="opacity:.043" fill="#f4d0d0" d="M25.5 96.5c-.333 1-1 1.667-2 2 0-1.333.667-2 2-2z"/><path style="opacity:.004" fill="#f2c8c9" d="M101.5 93.5c-.641.982-1.307 1.982-2 3-3.408.599-6.408 1.932-9 4-.838-.342-1.172-1.008-1-2 2.752-6.149 2.085-6.482-2-1-3.856 2.754-8.189 4.088-13 4 2.063-1.276 4.396-2.11 7-2.5a71.755 71.755 0 0 1 13-9.5c1.166 1.865.833 3.532-1 5a15.681 15.681 0 0 0 4 2c.783-1.788 2.116-2.788 4-3zm-11 4c2.5.01 2.668.678.5 2a2.428 2.428 0 0 1-.5-2z"/><path style="opacity:.706" fill="#dd6e72" d="m89.5 98.5-2-1c4.085-5.482 4.752-5.149 2 1z"/><path style="opacity:.878" fill="#e79394" d="M8.5 94.5c.24 2.398-.426 4.398-2 6-.24-2.398.426-4.398 2-6z"/><path style="opacity:.102" fill="#f2c8c9" d="M126.5 88.5h5c-3.301.435-6.635 1.768-10 4 1.169 1.947 3.169 3.28 6 4-2.777 2.463-5.777 4.464-9 6 .237 1.291-.096 2.291-1 3a12.93 12.93 0 0 1 .5-5 11.142 11.142 0 0 0 5.5-3.5 48.608 48.608 0 0 1-5-3.5c2.231-2.405 4.897-4.072 8-5z"/><path style="opacity:.427" fill="#eeb2b3" d="M109.5 99.5c-2.358-.248-4.358.42-6 2v-2a5.727 5.727 0 0 1-3 1c1.952-3.337 4.952-4.67 9-4v3z"/><path style="opacity:.071" fill="#f4d3d4" d="M6.5 100.5c.172.992-.162 1.658-1 2-1.531-1.425-1.198-2.091 1-2z"/><path style="opacity:1" fill="#c01517" d="m87.5 97.5 2 1c-.172.992.162 1.658 1 2l-2 2c-1.885 1.553-2.885 3.553-3 6 2.42-.208 4.753.126 7 1a19.057 19.057 0 0 1 7-2.5c1.323-.816 1.989-1.983 2-3.5.333-1 1-1.667 2-2 1.642-1.58 3.642-2.248 6-2a31.147 31.147 0 0 1-2 2c1.779 1.693 2.279 3.693 1.5 6-2.065 1.128-2.732 2.794-2 5 .278-.916.778-1.582 1.5-2 2.775 2.534 5.775 2.534 9 0a41.928 41.928 0 0 1 10 1c4.034.005 8.034.338 12 1 .315 1.726.481 3.393.5 5a40.747 40.747 0 0 1-6.5 3c-1.719.522-3.052 1.522-4 3-3.185-.48-6.019.186-8.5 2-.808 3.527-.641 6.86.5 10 .838.342 1.172 1.008 1 2 .282 5.237 2.282 9.57 6 13-.073 1.527.594 2.527 2 3-.073 1.527.594 2.527 2 3 1 3 3 5 6 6 .535 1.946 1.868 2.946 4 3a4.934 4.934 0 0 1-.5 3c-2.381-.935-4.881-1.268-7.5-1h-1a5.727 5.727 0 0 0-3-1h-1c0-.667-.333-1-1-1-2.053.098-3.72-.569-5-2a25.658 25.658 0 0 0-6-6 37.79 37.79 0 0 0-6-10c-.732-4.287-2.065-8.287-4-12-.801-1.542-1.134-3.208-1-5v-4h-3a44.093 44.093 0 0 1 3-2c-.124-.607-.457-.94-1-1 1.048-8.541-.618-9.208-5-2a301.462 301.462 0 0 1-3 4c-1 .333-1.667 1-2 2 0 .667-.333 1-1 1-2.087 1.085-3.42 2.751-4 5-1.762.762-2.762 2.096-3 4 0 .667-.333 1-1 1-1.406.473-2.073 1.473-2 3-2.36 1.365-4.026 3.365-5 6a71.06 71.06 0 0 0-9 11c-1.517.011-2.684.677-3.5 2a30.123 30.123 0 0 0-3.5 6c-1.643.02-2.976-.647-4-2-2.448 2.469-5.115 4.469-8 6a2.429 2.429 0 0 1-2-.5c2.107-1.264 3.107-3.097 3-5.5 3.018-1.355 4.351-3.688 4-7 3.613-1.805 5.446-4.805 5.5-9 3.433-2.538 5.6-5.871 6.5-10 3.05-2.049 5.383-4.716 7-8a19.342 19.342 0 0 1 3-5c2.627-.29 4.294-1.624 5-4 2.422-.585 4.089-2.085 5-4.5a30.485 30.485 0 0 0-11 0c-1.877 2.106-4.21 3.439-7 4-.752.671-1.086 1.504-1 2.5a11.741 11.741 0 0 0-5 3c-1.517-.011-2.684-.677-3.5-2-1.914 1.176-1.748 2.176.5 3-3.648 1.544-7.315 2.711-11 3.5a615.815 615.815 0 0 0 20-22.5c.645-1.312 1.645-2.312 3-3 .929-1.189 1.262-2.522 1-4 4.811.088 9.144-1.246 13-4zm16 2v2c-1 .333-1.667 1-2 2-4.356 3.504-9.356 4.671-15 3.5a19.885 19.885 0 0 1 4-3.5c2.245-.245 4.578-.245 7 0 .797-.457 1.13-1.124 1-2 .992.172 1.658-.162 2-1a5.727 5.727 0 0 0 3-1z"/><path style="opacity:.102" fill="#eeb5b6" d="M23.5 98.5c-5.058 4.119-7.392 9.452-7 16-2.42-7.289-.086-12.623 7-16z"/><path style="opacity:.51" fill="#eaa5a7" d="M157.5 101.5c-2.584 1.972-5.584 2.972-9 3 2.715-1.572 5.715-2.572 9-3z"/><path style="opacity:1" fill="#c61b1c" d="M168.5 107.5a43.362 43.362 0 0 0-13 8c-1.068.934-2.401 1.268-4 1-1.562.233-2.895.9-4 2-3.655-.575-6.655.425-9 3a20.69 20.69 0 0 0-5-1 40.747 40.747 0 0 0 6.5-3 29.812 29.812 0 0 0-.5-5 73.314 73.314 0 0 0-12-1v-1c3.198.536 5.865-.131 8-2 .342-.838 1.008-1.172 2-1 3.339-.39 6.673-.89 10-1.5.556-.383.889-.883 1-1.5 3.416-.028 6.416-1.028 9-3 2.632-.972 4.965-2.305 7-4 1.604-.787 2.271-2.12 2-4 3.692.176 5.692-1.49 6-5 1.333-2.333 1.333-4.667 0-7-.391-3.72-2.058-6.72-5-9 .06-.543.393-.876 1-1 5.776 3.619 9.443 8.785 11 15.5a741.722 741.722 0 0 1-4.5 8.5 13.24 13.24 0 0 1-5 3c-.408 2.92-1.741 5.254-4 7-.188 1.561.645 2.228 2.5 2z"/><path style="opacity:.439" fill="#eba4a4" d="M74.5 101.5c.262 1.478-.071 2.811-1 4-1.355.688-2.355 1.688-3 3h-2c2.03-2.358 4.03-4.692 6-7z"/><path style="opacity:.29" fill="#f0bdbe" d="M98.5 101.5c.13.876-.203 1.543-1 2-2.422-.245-4.755-.245-7 0a19.885 19.885 0 0 0-4 3.5c5.644 1.171 10.644.004 15-3.5-.011 1.517-.677 2.684-2 3.5a19.057 19.057 0 0 0-7 2.5 15.417 15.417 0 0 0-7-1c.115-2.447 1.115-4.447 3-6 3.152.541 5.652-.459 7.5-3 .417 1.256 1.25 1.923 2.5 2z"/><path style="opacity:.004" fill="#f2cbcc" d="M117.5 105.5c-.683 1.676-2.017 2.343-4 2 1.171-.845 2.505-1.511 4-2z"/><path style="opacity:.725" fill="#edb0b1" d="M148.5 104.5c-.111.617-.444 1.117-1 1.5-3.327.61-6.661 1.11-10 1.5 3.37-1.639 7.037-2.639 11-3z"/><path style="opacity:.878" fill="#eda2a2" d="M135.5 108.5c-2.135 1.869-4.802 2.536-8 2 2.503-.871 5.17-1.537 8-2z"/><path style="opacity:.137" fill="#eeb4b5" d="M112.5 108.5c-.453.958-1.119 1.792-2 2.5l2 .5 5-2c3.245-.143 6.579.191 10 1v1a41.928 41.928 0 0 0-10-1c-3.225 2.534-6.225 2.534-9 0 1.105-1.1 2.438-1.767 4-2z"/><path style="opacity:.004" fill="#f3c9c9" d="M171.5 106.5c-.453.958-1.119 1.792-2 2.5-4.038.601-6.871 2.768-8.5 6.5a33.892 33.892 0 0 1-5.5 0 43.362 43.362 0 0 1 13-8 5.727 5.727 0 0 1 3-1z"/><path style="opacity:.282" fill="#f0bcbc" d="M5.5 102.5a19.062 19.062 0 0 1-1 6c1.343 3.35 2.677 6.683 4 10-.958-.453-1.792-1.119-2.5-2a25.708 25.708 0 0 0-3.5-7.5c1.452-1.958 1.785-3.958 1-6a2.429 2.429 0 0 1 2-.5z"/><path style="opacity:.592" fill="#e99ea0" d="m68.5 108.5-1 2c-5.93 3.119-12.264 5.452-19 7a143.79 143.79 0 0 0 14-7.5l6-1.5z"/><path style="opacity:.024" fill="#f3cdcd" d="M151.5 116.5c-1.038 2.128-2.371 3.128-4 3v-1c1.105-1.1 2.438-1.767 4-2z"/><path style="opacity:.024" fill="#f1c0c1" d="M83.5 121.5c.453-.958 1.12-1.792 2-2.5a15.252 15.252 0 0 1-4.5-1.5c-4.106 2.296-7.94 4.296-11.5 6-.086-.996.248-1.829 1-2.5 2.79-.561 5.123-1.894 7-4a30.485 30.485 0 0 1 11 0c-.911 2.415-2.578 3.915-5 4.5z"/><path style="opacity:.004" fill="#f5d2d2" d="M8.5 118.5c1.406.473 2.073 1.473 2 3-1.406-.473-2.073-1.473-2-3z"/><path style="opacity:.024" fill="#f2cccc" d="M105.5 123.5a71.254 71.254 0 0 1-4 2c.457.798 1.124 1.131 2 1h3v4a15.057 15.057 0 0 0-6-3c.454-2.241.454-4.241 0-6 4.382-7.208 6.048-6.541 5 2z"/><path style="opacity:1" fill="#bc1114" d="M32.5 81.5c.876-.13 1.543.203 2 1a8.905 8.905 0 0 1-3 4c.897.17 1.897.502 3 1-1.545.952-3.212 1.285-5 1v4a6.541 6.541 0 0 0-3 3c0 .667-.333 1-1 1-1.333 0-2 .667-2 2-7.086 3.377-9.42 8.711-7 16-.215 1.679.452 2.679 2 3 1.536 2.592 3.87 3.592 7 3h7c5.052.05 10.052-.45 15-1.5.556-.383.89-.883 1-1.5 6.736-1.548 13.07-3.881 19-7-6.306 6.64-12.639 13.307-19 20-2.885-.306-5.552.027-8 1-6.193-.365-12.193-1.365-18-3-1.28-1.431-2.947-2.098-5-2a10.177 10.177 0 0 1-3-3c-1.207-1.38-.873-2.547 1-3.5-1.141-3.636-3.141-6.636-6-9 .982-.381 1.649-1.214 2-2.5-.029-1.529-.695-2.696-2-3.5 3.757-11.591 11.424-19.424 23-23.5z"/><path style="opacity:.071" fill="#f2c2c3" d="M18.5 117.5c2.518.764 4.851 1.764 7 3-3.13.592-5.464-.408-7-3z"/><path style="opacity:.427" fill="#f0bcbd" d="M48.5 117.5c-.11.617-.444 1.117-1 1.5a68.769 68.769 0 0 1-15 1.5c5.216-.993 10.55-1.993 16-3z"/><path style="opacity:.184" fill="#f2c1c1" d="M16.5 114.5c.901.79 1.568 1.79 2 3-1.548-.321-2.215-1.321-2-3z"/><path style="opacity:.592" fill="#e17d7f" d="M147.5 118.5v1h-2c-1.291-.237-2.291.096-3 1l-2 1h-2c2.345-2.575 5.345-3.575 9-3z"/><path style="opacity:.004" fill="#f9ebeb" d="M145.5 119.5c-.721 1.882-1.721 2.215-3 1 .709-.904 1.709-1.237 3-1z"/><path style="opacity:.004" fill="#f9e6e6" d="M10.5 121.5c1.105 1.1 2.438 1.767 4 2a10.177 10.177 0 0 0 3 3c-3.64.025-5.973-1.642-7-5z"/><path style="opacity:.38" fill="#efbabb" d="M133.5 120.5a20.69 20.69 0 0 1 5 1h2c-1.141.839-2.474 1.506-4 2a4.457 4.457 0 0 1-1.5-2 72.144 72.144 0 0 1-5.5 2c.948-1.478 2.281-2.478 4-3z"/><path style="opacity:.341" fill="#f7dedd" d="M69.5 123.5c-.246 2.97-1.912 4.303-5 4v-1a11.741 11.741 0 0 1 5-3z"/><path style="opacity:.427" fill="#e18084" d="M105.5 123.5c.543.06.876.393 1 1a44.093 44.093 0 0 0-3 2c-.876.131-1.543-.202-2-1a71.254 71.254 0 0 0 4-2z"/><path style="opacity:.004" fill="#f3cfcf" d="M97.5 125.5c0 1.333-.667 2-2 2 .333-1 1-1.667 2-2z"/><path style="opacity:.004" fill="#f4cfcf" d="M17.5 126.5c2.053-.098 3.72.569 5 2-2.119.955-3.785.288-5-2z"/><path style="opacity:.227" fill="#f3cdcd" d="M22.5 128.5c5.807 1.635 11.807 2.635 18 3-2.592 1.957-5.092 1.957-7.5 0-3.281 3.089-5.614 2.423-7-2-1.313.787-2.48.454-3.5-1z"/><path style="opacity:.767" fill="#dc6366" d="M78.5 125.5a19.342 19.342 0 0 0-3 5c-4-.667-4-1.333 0-2v-3h3z"/><path style="opacity:.282" fill="#eeb7b8" d="M129.5 123.5a96.578 96.578 0 0 1-6.5 2 24.362 24.362 0 0 0-1.5 10c-1.141-3.14-1.308-6.473-.5-10 2.481-1.814 5.315-2.48 8.5-2z"/><path style="opacity:.427" fill="#e49295" d="M40.5 131.5c2.448-.973 5.115-1.306 8-1v2h-1c-2.107-.968-4.44-1.302-7-1z"/><path style="opacity:1" fill="#bc2728" d="M68.5 108.5h2a615.815 615.815 0 0 1-20 22.5c3.685-.789 7.352-1.956 11-3.5-2.248-.824-2.414-1.824-.5-3 .816 1.323 1.983 1.989 3.5 2v1c-.333 1-1 1.667-2 2-2.065.453-3.732 1.453-5 3-2.824.392-5.824.392-9 0v-2c6.361-6.693 12.694-13.36 19-20l1-2z"/><path style="opacity:.004" fill="#f3cbcb" d="M62.5 129.5c-.986 1.908-2.652 2.908-5 3 1.268-1.547 2.935-2.547 5-3z"/><path style="opacity:.651" fill="#eeb0b0" d="M83.5 121.5c-.706 2.376-2.373 3.71-5 4h-3v3c-4 .667-4 1.333 0 2-1.617 3.284-3.95 5.951-7 8 1.043-2.556 2.71-4.723 5-6.5a9.457 9.457 0 0 1-2.5-1.5 4.451 4.451 0 0 1-1.5 2c-1.701.31-3.368-.19-5-1.5.457-.414.79-.914 1-1.5l9-2.5a4.934 4.934 0 0 0-3-.5v-3c4.313.51 8.313-.157 12-2z"/><path style="opacity:.137" fill="#ecaaaa" d="M94.5 128.5c-.58 2.249-1.913 3.915-4 5 .58-2.249 1.913-3.915 4-5z"/><path style="opacity:.03" fill="#f5d2d2" d="M47.5 132.5h1c3.176.392 6.176.392 9 0-.462 1.38-1.462 2.047-3 2-2.038-1.134-4.038-1.134-6 0-1.645-.536-1.978-1.203-1-2z"/><path style="opacity:.004" fill="#f3cacb" d="M90.5 133.5c-.238 1.904-1.238 3.238-3 4 .238-1.904 1.238-3.238 3-4z"/><path style="opacity:.004" fill="#f4cfcf" d="M86.5 138.5c.073 1.527-.594 2.527-2 3-.073-1.527.594-2.527 2-3z"/><path style="opacity:.259" fill="#f5d2d2" d="M107.5 135.5c1.935 3.713 3.268 7.713 4 12-1.879.107-2.212-.393-1-1.5a14.972 14.972 0 0 0-3-3.5c.553-2.227.553-4.561 0-7z"/><path style="opacity:.024" fill="#f2c5c5" d="M84.5 141.5c-.943 2.609-2.61 4.609-5 6 .974-2.635 2.64-4.635 5-6z"/><path style="opacity:.573" fill="#efbbbc" d="M68.5 138.5c-.9 4.129-3.067 7.462-6.5 10-.054 4.195-1.887 7.195-5.5 9 1.098-.897 1.098-1.73 0-2.5 3.288-1.358 4.788-3.858 4.5-7.5 2.995-2.702 5.495-5.702 7.5-9z"/><path style="opacity:.29" fill="#eeb1b1" d="M122.5 137.5a115.566 115.566 0 0 1 6 13c-3.718-3.43-5.718-7.763-6-13z"/><path style="opacity:.137" fill="#f2cdce" d="M128.5 150.5c1.406.473 2.073 1.473 2 3-1.406-.473-2.073-1.473-2-3z"/><path style="opacity:.227" fill="#eeb1b2" d="M79.5 147.5c-1.933 4.594-4.933 8.26-9 11a71.06 71.06 0 0 1 9-11z"/><path style="opacity:.369" fill="#efbbbc" d="M130.5 153.5c1.406.473 2.073 1.473 2 3-1.406-.473-2.073-1.473-2-3z"/><path style="opacity:.043" fill="#f3c7c8" d="M111.5 147.5a37.79 37.79 0 0 1 6 10c-1.431-.582-2.764-1.415-4-2.5l1-1-4-5c.556-.383.889-.883 1-1.5z"/><path style="opacity:.337" fill="#f0bebf" d="M132.5 156.5a25.658 25.658 0 0 1 6 6c-3-1-5-3-6-6z"/><path style="opacity:.18" fill="#efb3b4" d="M70.5 158.5c-1.854 3.01-4.187 5.676-7 8a30.123 30.123 0 0 1 3.5-6c.816-1.323 1.983-1.989 3.5-2z"/><path style="opacity:.004" fill="#f7dfdf" d="M117.5 157.5a25.658 25.658 0 0 1 6 6c-3.916-.721-5.916-2.721-6-6z"/><path style="opacity:.043" fill="#f3cccc" d="M56.5 157.5c.351 3.312-.982 5.645-4 7 .897-2.713 2.23-5.046 4-7z"/><path style="opacity:.004" fill="#f1bbbb" d="M138.5 162.5c1.73.526 3.064 1.526 4 3-2.132-.054-3.465-1.054-4-3z"/><path style="opacity:.004" fill="#f8e4e5" d="M128.5 165.5c.667 0 1 .333 1 1-1.846 1.242-2.179.909-1-1z"/><path style="opacity:.071" fill="#f3c7c8" d="M63.5 166.5c-.548 2.032-1.881 3.032-4 3a4.932 4.932 0 0 0-.5-3 19.897 19.897 0 0 0-3.5 4c-1.226-.863-2.56-.863-4 0 2.885-1.531 5.552-3.531 8-6 1.024 1.353 2.357 2.02 4 2z"/><path style="opacity:.004" fill="#f7dfdf" d="M130.5 166.5a5.727 5.727 0 0 1 3 1c-1.279 1.215-2.279.882-3-1z"/><path style="opacity:.024" fill="#f5d2d2" d="M142.5 165.5c.934 1.068 1.268 2.401 1 4-2.737-.713-5.404-.713-8 0-.798-.457-1.131-1.124-1-2 2.619-.268 5.119.065 7.5 1a4.934 4.934 0 0 0 .5-3z"/><path style="opacity:.592" fill="#f1bfbf" d="M52.5 164.5c.107 2.403-.893 4.236-3 5.5a2.429 2.429 0 0 0 2 .5c-1.277 2.414-2.943 2.581-5 .5a53.848 53.848 0 0 0 6-6.5z"/></svg>