<svg version="1.0" id="katman_1" xmlns="http://www.w3.org/2000/svg" xmlns:xlink="http://www.w3.org/1999/xlink" x="0px" y="0px" viewBox="0 0 800 600" style="enable-background:new 0 0 800 600;" xml:space="preserve"><path d="M95.3,265h186.2v-31.7H95.3V265z M95.3,217.1H129c0,0,0-7.9,0-10.9c4.7,0,152.6,0,152.6,0v-31.7H95.3V217.1z M129,280.9H95.3v42.7h186.2V292c0,0-147.8,0-152.6,0C129,289,129,280.9,129,280.9z M551.7,280.9h-33.7v42.7h186.2V292c0,0-147.9,0-152.6,0C551.7,289,551.7,280.9,551.7,280.9z M399.9,288.6c-4-6.9-65.9-114.1-65.9-114.1h-36.6l102.5,178.3l102.4-178.3h-36.6C465.6,174.5,403.8,281.6,399.9,288.6z M518.1,174.5v42.6h33.7c0,0,0-7.9,0-10.9c4.7,0,152.6,0,152.6,0v-31.7H518.1z M518.1,265h186.2v-31.7H518.1V265z"/><path d="M218,403.7c0-2.5,0.5-4.2,1.4-5.1c0.9-0.9,2.7-1.4,5.4-1.4h20.1c2.7,0,4.5,0.4,5.4,1.4c0.9,0.9,1.4,2.6,1.4,5.1v14.5c0,2.5-0.5,4.2-1.4,5.1c-0.9,0.9-2.7,1.4-5.4,1.4h-20.1c-2.7,0-4.5-0.4-5.4-1.4c-0.9-0.9-1.4-2.6-1.4-5.1L218,403.7L218,403.7zM224.4,419.5h21v-17.4h-21V419.5z"/><path d="M292.9,424.7v-27.4h4.4l19.3,16.2c0.7,0.6,1.2,1,1.7,1.5c0.5,0.5,1,1,1.4,1.5c-0.1-1.5-0.2-2.6-0.2-3.3c0-0.7-0.1-1.1-0.1-1.5v-14.4h5.7v27.4h-4.4l-20.1-16.9c-0.5-0.4-0.9-0.8-1.3-1.2c-0.4-0.3-0.7-0.7-1-1.1c0.1,0.9,0.1,1.7,0.2,2.4c0,0.8,0,1.4,0,2v14.8L292.9,424.7L292.9,424.7z"/><path d="M367,424.7v-27.4h6.4v22.3H394v5.2L367,424.7L367,424.7z"/><path d="M431.1,424.7v-27.4h6.4v27.4H431.1z"/><path d="M479.3,424.7v-27.4h4.4l19.3,16.2c0.7,0.6,1.2,1,1.8,1.5c0.5,0.5,1,1,1.4,1.5c-0.1-1.5-0.2-2.6-0.2-3.3c0-0.7-0.1-1.1-0.1-1.5v-14.4h5.7v27.4h-4.4L487,407.7c-0.5-0.4-0.9-0.8-1.3-1.2c-0.3-0.3-0.7-0.7-1-1.1c0.1,0.9,0.2,1.7,0.2,2.4c0.1,0.8,0.1,1.4,0.1,2v14.8L479.3,424.7L479.3,424.7z"/><path d="M553.4,424.7v-27.4h28.1v4.7h-21.7v6.1h12.6v4.7h-12.6v6.8h21.9v5.2L553.4,424.7L553.4,424.7z"/></svg>
