<svg xmlns="http://www.w3.org/2000/svg" width="121.774" fill="#fff" height="121.774"><path d="M0 61.145h37.244v-6.342H0zm0-9.566h6.732v-2.177h30.512v-6.347H0zm6.732 12.76H0v8.548h37.244v-6.345H6.732V64.34zm84.525 0h-6.73v8.548h37.242v-6.345H91.254c.003-.593.003-2.202.003-2.202zm-30.364 1.523c-.799-1.38-13.172-22.807-13.172-22.807H40.4L60.893 78.72l20.48-35.664h-7.328L60.893 65.862zm23.638-22.807v8.524h6.729v-2.177h30.514v-6.347zm0 18.09h37.241v-6.342H84.531z" fill="#000"/><defs id="defs30215"><clipPath id="clip0"><path fill="#fff" id="rect30212" d="M0 0h130v50.039H0z"/></clipPath></defs></svg>