<svg xmlns="http://www.w3.org/2000/svg" width="38.907" height="38.907"><path d="M13.246 8.742c0 .387-.032 1.032-.42 1.452-.418.387-1.064.419-1.45.419h-4.13c-1.193 0-1.903 0-2.387.064-.258.033-.58.162-.742.226-.064.032-.064 0-.032-.032l9.42-9.58c.032-.033.064-.033.032.032-.065.16-.194.483-.226.742-.065.483-.065 1.193-.065 2.387zM22.02 37.71c-1.096-.71-1.677-1.645-1.903-2.226a4.705 4.705 0 01-.355-1.774c0-2.678 2.194-4.871 4.904-4.871.806 0 1.451.645 1.451 1.451 0 .549-.29 1-.742 1.258a1.863 1.863 0 01-.548.194c-.161.032-.774.097-1.065.355-.322.258-.58.677-.58 1.129 0 .484.193.935.516 1.258.58.58 1.355.903 2.193.903a3.965 3.965 0 003.968-3.968c0-1.967-1.322-3.71-3.064-4.484-.258-.129-.678-.225-1.065-.322a13.245 13.245 0 00-.968-.161c-1.354-.162-4.742-1.226-4.967-4.226 0 0-1 4.516-3 5.742a3.296 3.296 0 01-.742.258c-.29.064-.613.097-.71.097-3.258.193-6.71-.84-9.097-3.29 0 0-1.613-1.323-2.451-5.033-.194-.903-.581-2.516-.807-4.032-.097-.549-.129-.968-.161-1.355 0-1.58.968-2.645 2.193-2.807H11.601c1.13 0 1.774-.29 2.194-.677.548-.516.677-1.258.677-2.129V2.387v-.193C14.633 1 15.698 0 17.28 0h.774c.322 0 .71.032 1.064.065.258.032.484.096.871.193 1.968.484 2.387 2.484 2.387 2.484s3.71.645 5.581.968c1.774.322 6.161.613 7 5.032 1.968 10.516.774 20.71.677 20.71-1.387 9.935-9.645 9.451-9.645 9.451-1.774 0-3.097-.58-3.968-1.193zm7.42-21.13c-1.065-.096-1.968.323-2.29 1.13-.065.161-.13.355-.097.451.032.097.097.13.161.162.387.193 1.032.29 1.968.387.935.096 1.58.161 2 .096.064 0 .129-.032.193-.129.065-.096.033-.29.033-.451-.13-.903-.904-1.516-1.968-1.645z" fill="#00a82d"/></svg>