<svg width="800px" height="800px" viewBox="-4 0 48 48" version="1.1" xmlns="http://www.w3.org/2000/svg" xmlns:xlink="http://www.w3.org/1999/xlink"><title>Evernote-color</title><desc>Created with Sketch.</desc><defs></defs><g id="Icons" stroke="none" stroke-width="1" fill="none" fill-rule="evenodd"><g id="Color-" transform="translate(-805.000000, -1043.000000)" fill="#20C05C"><path d="M834.792989,1065.70423 C834.147558,1065.68173 833.526032,1065.72223 832.946339,1065.81523 C833.109191,1064.49374 833.653026,1062.87076 835.578862,1062.93826 C837.710876,1063.01326 838.009687,1065.03524 838.017157,1066.40622 C837.117737,1066.00273 836.004667,1065.74773 834.792989,1065.70423 M843.909706,1051.35086 C843.552627,1049.43538 842.41864,1048.49189 841.392225,1048.12139 C840.286625,1047.7194 838.042556,1047.3039 835.223277,1046.9694 C832.955303,1046.70241 830.289911,1046.72341 828.679321,1046.7729 C828.486588,1045.44392 827.55878,1044.23043 826.518919,1043.81043 C823.751931,1042.69144 819.474455,1042.96144 818.377819,1043.27044 C817.505292,1043.51493 816.538639,1044.01743 816.00078,1044.78992 C815.640713,1045.30592 815.40764,1045.96891 815.406146,1046.8929 C815.406146,1047.4164 815.421087,1048.64789 815.433039,1049.74288 C815.446486,1050.84087 815.461426,1051.82336 815.461426,1051.83086 C815.461426,1052.80735 814.671072,1053.60384 813.692467,1053.60534 L809.205823,1053.60534 C808.248134,1053.60534 807.516048,1053.76734 806.958766,1054.02084 C806.398496,1054.27734 806.002571,1054.62083 805.700773,1055.02733 C805.101657,1055.83582 804.997073,1056.83181 805.000061,1057.8488 C805.000061,1057.8488 805.009026,1058.6813 805.209229,1060.28928 C805.375069,1061.53427 806.719717,1070.23269 807.997133,1072.87717 C808.491665,1073.90616 808.821851,1074.33515 809.79448,1074.78815 C811.962352,1075.72114 816.915141,1076.75763 819.235406,1077.05463 C821.552684,1077.35162 823.006398,1077.97712 823.87295,1076.15314 C823.875938,1076.14864 824.04626,1075.69864 824.280826,1075.04015 C825.033829,1072.75117 825.138413,1070.72019 825.138413,1069.2517 C825.138413,1069.1017 825.356545,1069.0957 825.356545,1069.2517 C825.356545,1070.28819 825.15933,1073.96016 827.921836,1074.94565 C829.012495,1075.33414 831.274492,1075.67914 833.572347,1075.95064 C835.650576,1076.19064 837.159571,1077.01113 837.159571,1082.36458 C837.159571,1085.62105 836.478282,1086.06805 832.916458,1086.06805 C830.028451,1086.06805 828.927334,1086.14304 828.927334,1083.84057 C828.927334,1081.97908 830.762032,1082.17408 832.120127,1082.17408 C832.728207,1082.17408 832.287461,1081.72108 832.287461,1080.5721 C832.287461,1079.42911 832.998631,1078.76911 832.326306,1078.75261 C827.626013,1078.62211 824.860519,1078.74661 824.860519,1084.64756 C824.860519,1090.00551 826.902891,1091 833.572347,1091 C838.80303,1091 840.646692,1090.8275 842.8056,1084.10156 C843.232899,1082.77258 844.266785,1078.72111 844.891299,1071.91567 C845.287224,1067.61371 844.51928,1054.62833 843.909706,1051.35086 M808.995161,1052.29735 L808.998149,1052.29735 L813.484793,1052.29735 C813.74177,1052.29735 813.949444,1052.08586 813.949444,1051.83086 C813.949444,1051.82936 813.895658,1047.96839 813.895658,1046.8944 L813.895658,1046.8809 C813.895658,1045.99891 814.079427,1045.23092 814.400648,1044.58592 L814.554536,1044.29793 C814.536607,1044.29943 814.520172,1044.30843 814.502244,1044.32493 L805.78444,1053.00535 C805.768005,1053.01885 805.756053,1053.03835 805.75157,1053.05635 C805.932351,1052.96635 806.17887,1052.84485 806.213233,1052.82985 C806.972212,1052.48485 807.89255,1052.29735 808.995161,1052.29735" id="Evernote"></path></g></g></svg>
