<?xml version="1.0" encoding="UTF-8"?>
<!DOCTYPE svg PUBLIC "-//W3C//DTD SVG 1.1//EN" "http://www.w3.org/Graphics/SVG/1.1/DTD/svg11.dtd">
<svg xmlns="http://www.w3.org/2000/svg" version="1.1" width="500px" height="500px" style="shape-rendering:geometricPrecision; text-rendering:geometricPrecision; image-rendering:optimizeQuality; fill-rule:evenodd; clip-rule:evenodd" xmlns:xlink="http://www.w3.org/1999/xlink">
<g><path style="opacity:0.996" fill="#fe6909" d="M 491.5,-0.5 C 494.167,-0.5 496.833,-0.5 499.5,-0.5C 499.5,83.1667 499.5,166.833 499.5,250.5C 455.166,250.011 410.832,249.344 366.5,248.5C 366.137,247.817 365.804,247.15 365.5,246.5C 402.133,172.85 439.633,100.183 478,28.5C 482.977,19.0758 487.477,9.40918 491.5,-0.5 Z"/></g>
<g><path style="opacity:0.97" fill="#fd5a00" d="M 365.5,246.5 C 365.804,247.15 366.137,247.817 366.5,248.5C 410.832,249.344 455.166,250.011 499.5,250.5C 499.5,333.167 499.5,415.833 499.5,498.5C 498.833,498.5 498.5,498.833 498.5,499.5C 495.167,499.5 491.833,499.5 488.5,499.5C 383.759,447.247 275.759,394.247 164.5,340.5C 151.982,333.758 138.649,327.591 124.5,322C 124.833,321.667 125.167,321.333 125.5,321C 120.311,319.61 115.645,317.277 111.5,314C 72.6618,295.671 35.3284,278.171 -0.5,261.5C -0.5,257.167 -0.5,252.833 -0.5,248.5C 0.75618,248.539 1.75618,248.039 2.5,247C 123.5,246.5 244.5,246.333 365.5,246.5 Z"/></g>
</svg>
