<?xml version="1.0" encoding="UTF-8"?>
<!DOCTYPE svg PUBLIC "-//W3C//DTD SVG 1.1//EN" "http://www.w3.org/Graphics/SVG/1.1/DTD/svg11.dtd">
<svg xmlns="http://www.w3.org/2000/svg" version="1.1" width="193px" height="192px" style="shape-rendering:geometricPrecision; text-rendering:geometricPrecision; image-rendering:optimizeQuality; fill-rule:evenodd; clip-rule:evenodd" xmlns:xlink="http://www.w3.org/1999/xlink">
<g><path style="opacity:0.981" fill="#fe9800" d="M 82.5,-0.5 C 91.8333,-0.5 101.167,-0.5 110.5,-0.5C 155.5,9.16667 182.833,36.5 192.5,81.5C 192.5,90.8333 192.5,100.167 192.5,109.5C 182.833,154.5 155.5,181.833 110.5,191.5C 100.833,191.5 91.1667,191.5 81.5,191.5C 33.1065,180.108 5.77315,149.775 -0.5,100.5C -0.5,97.1667 -0.5,93.8333 -0.5,90.5C 0.229617,86.9694 0.896284,83.3027 1.5,79.5C 47.5,78.8333 93.5,78.1667 139.5,77.5C 143.5,68.8333 147.5,60.1667 151.5,51.5C 151.291,50.914 150.957,50.414 150.5,50C 104.167,49.6667 57.8333,49.3333 11.5,49C 27.6181,21.6126 51.2848,5.11265 82.5,-0.5 Z M 61.5,91.5 C 85.3164,91.0108 108.983,91.5108 132.5,93C 128.167,102 123.833,111 119.5,120C 111.167,120.333 102.833,120.667 94.5,121C 84.6878,133.81 74.5211,146.31 64,158.5C 63.228,158.355 62.5613,158.022 62,157.5C 61.5,135.503 61.3334,113.503 61.5,91.5 Z"/></g>
</svg>
