<?xml version="1.0" encoding="utf-8"?>
<!-- Generator: $$$/GeneralStr/196=Adobe Illustrator 27.6.0, SVG Export Plug-In . SVG Version: 6.00 Build 0)  -->
<svg version="1.1" id="Ebene_1" xmlns="http://www.w3.org/2000/svg" xmlns:xlink="http://www.w3.org/1999/xlink" x="0px" y="0px"
	 viewBox="0 0 518.4 476.9" style="enable-background:new 0 0 518.4 476.9;" xml:space="preserve">
<style type="text/css">
	.st0{fill:#4D6BDD;}
	.st1{fill:#FFFFFF;}
	.st2{fill:#FFD749;}
	.st3{fill:#FF6B4A;}
	.st4{fill:#89A3F4;}
	.st5{fill:#FCE088;}
	.st6{fill:#FC9381;}
	.st7{fill:#C2D3FF;}
	.st8{fill:#FCECC0;}
	.st9{fill:#F9BEB7;}
</style>
<g>
	<g>
		
			<ellipse transform="matrix(0.7071 -0.7071 0.7071 0.7071 -94.1312 252.3384)" class="st0" cx="257.5" cy="239.8" rx="237.1" ry="237.1"/>
		<g>
			<g>
				<g>
					<path class="st1" d="M350.6,211.4c-8.9-9.6-12.2-30.5-12.2-30.5l-2.6-12c0,0-3.1-11.3-5.4-14.6c-1-2.6-2.8-9.7,3.5-16.9
						c0,0,6.3-8.1-2.8-14.6c0,0-10-8.3-17.2,1.2c0,0-6.7,12.3-16.4,10.4c-2.6-0.7-4.3-1-4.3-1s-21.7-4.2-35.7-4.3
						c-14,0-35.7,4.3-35.7,4.3s-1.6,0.3-4.3,1c-9.6,1.8-16.4-10.4-16.4-10.4c-7.2-9.6-17.2-1.2-17.2-1.2c-9.2,6.6-2.8,14.6-2.8,14.6
						c6.3,7.2,4.5,14.4,3.5,16.9c-2.3,3.4-5.4,14.6-5.4,14.6l-2.6,12c0,0-3.3,20.8-12.2,30.5c0,0-60.2,54.1-19.4,109.4
						c0,0,26.8,31.8,71,7.2c0,0,20.6-11.4,41.5-11.5c20.8,0,41.5,11.5,41.5,11.5c44.2,24.6,70.9-7.2,70.9-7.2
						C410.8,265.5,350.6,211.4,350.6,211.4z M217.8,257.2c-4.2,5.6-14.6,5-23.2-1.4c-8.6-6.4-12.2-16.2-8-21.8
						c4.2-5.6,14.6-5,23.2,1.4C218.4,241.8,222,251.6,217.8,257.2z M224.8,196.7c-7.6,0-13.8-7.1-13.8-12.4h11.4
						c1.3,0,1.7-2.2,0.9-3.3l-7.2-9.6c2.4-1.9,5.4-3.4,8.7-3.4c7.6,0,13.8,6.7,13.8,14.3C238.7,190,232.5,196.7,224.8,196.7z
						 M276.4,184.3h11.4c1.3,0,1.7-2.2,0.9-3.3l-7.2-9.6c2.4-1.9,5.4-3.4,8.7-3.4c7.6,0,13.8,6,13.8,13.6c0,7.6-6.2,15.2-13.8,15.2
						C282.6,196.8,276.4,189.6,276.4,184.3z M320.5,254.4c-8.6,6.4-19,7-23.2,1.4c-4.2-5.7-0.6-15.4,8-21.8c8.6-6.4,19-7,23.2-1.4
						C332.7,238.2,329.2,248,320.5,254.4z"/>
				</g>
				<g>
					<path class="st1" d="M257.6,331.6c-27.6,0-39.9,15.3-39.9,15.3s-12.4,13.4,39.9,13.4c52.3,0,39.9-13.4,39.9-13.4
						S285.2,331.6,257.6,331.6z"/>
				</g>
			</g>
		</g>
	</g>
</g>
</svg>
