<svg xmlns="http://www.w3.org/2000/svg" viewBox="0 0 167 151"><path fill="url(#a)" d="M116.78 20.61h19.23a31 31 0 0 1 30.99 31v67.61a31 31 0 0 1-30.99 31h-1.52c-8.8-1.39-12.62-4.03-15.57-6.26l-24.45-20.1a3.45 3.45 0 0 0-4.32 0l-7.95 6.53L59.83 112a3.44 3.44 0 0 0-4.32 0l-31.08 27.35c-6.26 5.08-10.4 4.14-13.08 3.85A30.94 30.94 0 0 1 0 119.22V51.6a31 31 0 0 1 31-30.99h19.18l-.04.08-.64 1.89-.2.64-.87 3.87-.12.67-.39 3.87-.05 1.06v.38l.03 1.77.09 1.04.21 1.63.28 1.46.33 1.35.42 1.46 1.1 3.1.36.92 1.91 4.04.68 1.24 2.2 3.8.85 1.36 3.09 4.55.44.6 4.02 5.22 1.3 1.61 4.58 5.36.94 1.03 3.78 4.07 1.5 1.55 2.47 2.46-.5.41-.3.28a30.3 30.3 0 0 0-2.39 2.5 16.8 16.8 0 0 0-2.88 4.68 11.1 11.1 0 0 0-.72 3.25v.97c.03 1.36.3 2.7.81 3.97a11.06 11.06 0 0 0 2.2 3.47 11.27 11.27 0 0 0 2.34 1.9c.73.44 1.5.8 2.32 1.09a13 13 0 0 0 5.47.62h.01a12.35 12.35 0 0 0 4.52-1.34 11.65 11.65 0 0 0 1.72-1.12 11.07 11.07 0 0 0 3.48-4.62c.57-1.42.85-2.94.82-4.47l-.04-.8a11.3 11.3 0 0 0-.75-3.08 17.33 17.33 0 0 0-2.66-4.34 29.81 29.81 0 0 0-2.66-2.78l-.67-.57 1.13-1.12 4.87-5.09 1.69-1.85 2.61-2.94 1.7-2 2.44-2.95 1.64-2.07 2.41-3.22 1.22-1.67 1.73-2.59 1.44-2.2 2.71-4.73 1.56-3.1.04-.1 1.19-2.87.04-.11 1.28-4 .13-.58.56-3.17.1-.86.04-.53.04-1.99-.01-.37-.1-1.78-.13-1.38-.63-4a1.52 1.52 0 0 0-.04-.15l-.8-2.95-.29-.82-.36-.9zm9.14 84.32a7.48 7.48 0 0 0-7.34 7.35 7.5 7.5 0 0 0 7.34 7.34 7.5 7.5 0 0 0 7.35-7.34 7.48 7.48 0 0 0-7.35-7.35z"/><path fill="#24175b" d="m72.5 147.57-1.3 1.1a6.8 6.8 0 0 1-4.25 1.54H30.99a30.87 30.87 0 0 1-19.64-7.02c2.69.3 6.82 1.23 13.08-3.85L55.5 112a3.44 3.44 0 0 1 4.32 0l22.37 18.4 7.95-6.54a3.45 3.45 0 0 1 4.32 0l24.45 20.1c2.95 2.23 6.77 4.87 15.57 6.25h-16.26a6.92 6.92 0 0 1-4-1.33l-.28-.22-1.2-1a2.38 2.38 0 0 0-.32-.32 21845.26 21845.26 0 0 0-18.7-15.5 2.04 2.04 0 0 0-2.6 0s.04.06-18.39 15.5a2.3 2.3 0 0 0-.24.23zm53.42-42.64a7.48 7.48 0 0 0-7.34 7.35c.06 4 3.33 7.28 7.34 7.34a7.5 7.5 0 0 0 7.35-7.34 7.48 7.48 0 0 0-7.35-7.35zM78.45 82.7l-2.47-2.46-1.5-1.55-3.78-4.07-.94-1.03-4.58-5.36-1.3-1.6-4.02-5.23-.44-.6-3.09-4.55-.84-1.37-2.21-3.8-.68-1.23-1.91-4.04-.36-.93-1.1-3.1-.42-1.45-.33-1.35-.28-1.46-.21-1.63-.09-1.04-.03-1.77v-.38l.05-1.06.39-3.87.12-.67.87-3.87.2-.64.65-1.89.2-.49 1.03-2.26.72-1.35.99-1.64 1-1.46.7-.92.81-.98.9-.99.76-.77 1.87-1.64 1.36-1.12.1-.08 1.62-1.09 1.28-.82 2.44-1.28.12-.06 3.45-1.43.32-.12 3.08-.9 1.3-.3 1.75-.35L77.1.47l1.78-.22L80.1.14 82.53 0l.94-.01 1.8.04.46.02 2.6.22 3.43.48.4.09 3.39.84 1 .3 1.1.38 1.35.51 1.06.45 1.57.74.99.5 1.77 1.05.66.4 2.42 1.77.7.6 1.68 1.54.08.08 1.43 1.53.5.56 1.67 2.23.35.53 1.33 2.25.4.77.75 1.68.78 1.96.28.82.81 2.95.04.16.63 3.99.13 1.38.1 1.78v.37l-.03 2-.03.52-.11.86-.56 3.17-.13.59-1.28 3.99a1.19 1.19 0 0 1-.04.11l-1.19 2.88-.04.1-1.56 3.1-2.7 4.72-1.45 2.2-1.73 2.59-1.22 1.67-2.41 3.22-1.64 2.07-2.43 2.96-1.7 1.99-2.62 2.94-1.69 1.85-4.87 5.09-1.13 1.12.67.57a29.69 29.69 0 0 1 3.38 3.7 17.33 17.33 0 0 1 1.94 3.42c.4.98.65 2.03.75 3.08l.05.8a11.6 11.6 0 0 1-.83 4.47 11.06 11.06 0 0 1-3.48 4.62c-.54.43-1.11.8-1.72 1.12a12.35 12.35 0 0 1-4.52 1.34 13 13 0 0 1-5.48-.62 11.93 11.93 0 0 1-2.32-1.1 11.27 11.27 0 0 1-2.33-1.9 11.06 11.06 0 0 1-2.21-3.46 11.47 11.47 0 0 1-.82-3.97l.01-.97a11.1 11.1 0 0 1 1.25-4.46 16.83 16.83 0 0 1 2.35-3.48 30.3 30.3 0 0 1 2.39-2.49l.3-.28.5-.41z"/><path fill="#fff" d="m71.2 148.66 19.93-16.82a2.04 2.04 0 0 1 2.6 0l20.22 16.82a6.9 6.9 0 0 0 4.35 1.55H66.88a6.8 6.8 0 0 0 4.32-1.55zm12.4-60.03.2.05c.06.03.12.08.17.12l.17.14a23.62 23.62 0 0 1 1.94 2.03 12.69 12.69 0 0 1 1.2 1.76l.24.51c.12.3.21.63.24.96v.61a3.5 3.5 0 0 1-1.67 2.73 4.75 4.75 0 0 1-2.02.67l-.76.02-.64-.05a4.96 4.96 0 0 1-.88-.22 4.17 4.17 0 0 1-.83-.39l-.5-.37a3.43 3.43 0 0 1-1.14-1.95 5.02 5.02 0 0 1-.06-.38l-.02-.6c.01-.15.03-.3.07-.46.09-.34.21-.68.37-1 .2-.39.44-.77.7-1.13a17.5 17.5 0 0 1 2.4-2.66l.25-.22c.17-.12.18-.12.37-.17h.2zM82.36 6.96l.08-.01v68.48l-.17-.31a191.26 191.26 0 0 1-6.3-12.75 136.32 136.32 0 0 1-4.26-10.69 84.36 84.36 0 0 1-2.58-8.8 47.05 47.05 0 0 1-1.12-7.2 35.03 35.03 0 0 1-.06-3.1 50.84 50.84 0 0 1 1.17-10.23 30.4 30.4 0 0 1 2.7-7.39 16.66 16.66 0 0 1 5.46-6.21 11.42 11.42 0 0 1 5.08-1.8zm8.88.17 4.6 1.31a28.2 28.2 0 0 1 6.08 3.1 24.39 24.39 0 0 1 6.53 6.52 24.62 24.62 0 0 1 2.53 4.87 28.59 28.59 0 0 1 1.77 7.9 32.19 32.19 0 0 1 .06 4.1 22.3 22.3 0 0 1-.82 4.36 34.28 34.28 0 0 1-1.2 3.43 49.43 49.43 0 0 1-1.9 4.1 79.73 79.73 0 0 1-5.19 8.54 133.12 133.12 0 0 1-7.49 9.77 185.47 185.47 0 0 1-8.99 9.96c2.12-3.96 4.1-8 5.92-12.1a149.96 149.96 0 0 0 2.88-6.93 108.8 108.8 0 0 0 2.67-7.79 76.33 76.33 0 0 0 1.54-5.98c.37-1.72.66-3.47.84-5.22.15-1.47.2-2.94.17-4.41a62.15 62.15 0 0 0-.1-2.7 46.15 46.15 0 0 0-1.82-10.67 31.25 31.25 0 0 0-1.45-3.85 20.57 20.57 0 0 0-5.78-7.69l-.85-.62z"/><defs><radialGradient id="a" cx="0" cy="0" r="1" gradientTransform="matrix(121 0 0 121 88.67 84.85)" gradientUnits="userSpaceOnUse"><stop offset="0" stop-color="#ba7bf0"/><stop offset=".45" stop-color="#996bec"/><stop offset="1" stop-color="#5046e4"/></radialGradient></defs></svg>