<?xml version="1.0" encoding="UTF-8"?>
<!-- Created with Inkscape (http://www.inkscape.org/) -->
<svg width="21.087mm" height="21.735mm" version="1.1" viewBox="0 0 21.087 21.735" xmlns="http://www.w3.org/2000/svg">
 <g transform="translate(34.396 -25.136)">
  <path d="m-26.575 34.404 3.5438-9.2136c-0.38165-0.0363-0.76329-0.0545-1.1631-0.0545-1.9082 0-3.7983 0.49067-5.452 1.4538-1.6538 0.96316-3.035 2.3261-3.9982 3.998-0.09087 0.14538-0.16356 0.30893-0.25443 0.47249v0.0545l-0.14538 0.39981c-1.0904 2.7804 0.56337 4.834 2.1626 5.4337 0.45433 0.16355 0.92685 0.25441 1.3994 0.25441 0.72694 0 1.4175-0.18172 2.0536-0.54517 0.6179-0.36347 1.1449-0.8723 1.5084-1.4902 0.14539-0.23624 0.25443-0.49067 0.34529-0.76326m6.4334 2.3625c-2.1081 5.5246-7.2149 7.5962-11.885 6.7966 0.70877 0.72692 1.5084 1.3448 2.3807 1.8536 1.6538 0.96316 3.5257 1.4538 5.452 1.4538 1.9082 0 3.7619-0.49067 5.4339-1.4538 1.6538-0.96316 3.035-2.3261 3.9982-3.9798 0.94502-1.6537 1.4539-3.5437 1.4539-5.4337 0-1.9082-0.50886-3.8163-1.4539-5.4518-0.5452-0.94499-1.1994-1.7628-1.9809-2.4897l-3.3984 8.7048" fill="#023d6b" fill-rule="evenodd" stroke-width=".26458"/>
 </g>
</svg>
