<?xml version="1.0" encoding="utf-8"?><!-- Uploaded to: SVG Repo, www.svgrepo.com, Generator: SVG Repo Mixer Tools -->
<svg width="800px" height="800px" viewBox="0 0 1024 1024" xmlns="http://www.w3.org/2000/svg">
   <circle cx="512" cy="512" r="512" style="fill:#004788"/>
   <path d="m736.6 506.6 50.1-83.3h-51.1L709 465.6l-28.6-42.3h-56l59 83.2-59 93.9h56l31.9-53.4 37.8 53.4h50l-63.5-93.8zm-185.1-83.4-38 94.8-36-94.8h-45.4L402 600.6h45.9l14.8-102.2h.5l40.7 102.2h18.4l42.6-102.2h.6l12.9 102.2h46.1l-26.9-177.4h-46.1zm-233.8 78.5v36.1h37.6c-2 20.2-17.3 30.6-37.1 30.6-30.1 0-46.4-27.7-46.4-55.2s15.6-55.6 45.7-55.6c18.5 0 31.7 11.2 38.1 27.9l43.5-18.2c-15.2-32.9-43.2-49.2-79.5-49.2-56.8 0-95.5 37.6-95.5 94.8 0 55.4 38.5 93 93.9 93 29.4 0 55.4-10.5 72.6-34.6 15.4-21.8 17.6-43.9 18-69.7h-90.9z" style="fill:#fff"/>
</svg>