<svg xmlns="http://www.w3.org/2000/svg" width="87.3" height="87.3"><path d="M6.6 71.5l3.85 6.65c.8 1.4 1.95 2.5 3.3 3.3l13.75-23.8H0c0 1.55.4 3.1 1.2 4.5z" fill="#0066da"/><path d="M43.65 29.65L29.9 5.85c-1.35.8-2.5 1.9-3.3 3.3l-25.4 44a9.06 9.06 0 00-1.2 4.5h27.5z" fill="#00ac47"/><path d="M73.55 81.45c1.35-.8 2.5-1.9 3.3-3.3l1.6-2.75 7.65-13.25c.8-1.4 1.2-2.95 1.2-4.5H59.798l5.852 11.5z" fill="#ea4335"/><path d="M43.65 29.65L57.4 5.85c-1.35-.8-2.9-1.2-4.5-1.2H34.4c-1.6 0-3.15.45-4.5 1.2z" fill="#00832d"/><path d="M59.8 57.65H27.5l-13.75 23.8c1.35.8 2.9 1.2 4.5 1.2h50.8c1.6 0 3.15-.45 4.5-1.2z" fill="#2684fc"/><path d="M73.4 31.15l-12.7-22c-.8-1.4-1.95-2.5-3.3-3.3l-13.75 23.8 16.15 28h27.45c0-1.55-.4-3.1-1.2-4.5z" fill="#ffba00"/></svg>