<svg width="500" height="500" viewBox="0 0 500 500" fill="none" xmlns="http://www.w3.org/2000/svg">
<path d="M495 255.682C495 237.955 493.409 220.909 490.455 204.545H255V301.364H389.545C383.636 332.5 365.909 358.864 339.318 376.591V439.545H420.455C467.727 395.909 495 331.818 495 255.682Z" fill="#4285F4"/>
<path d="M254.998 499.999C322.498 499.999 379.089 477.727 420.453 439.545L339.317 376.59C317.044 391.59 288.635 400.681 254.998 400.681C189.998 400.681 134.771 356.818 114.998 297.727H31.8167V362.272C72.953 443.863 157.271 499.999 254.998 499.999Z" fill="#34A853"/>
<path d="M115 297.499C110 282.499 107.045 266.59 107.045 249.999C107.045 233.408 110 217.499 115 202.499V137.953H31.8182C14.7727 171.59 5 209.544 5 249.999C5 290.453 14.7727 328.408 31.8182 362.044L96.5909 311.59L115 297.499Z" fill="#FBBC05"/>
<path d="M254.998 99.5455C291.817 99.5455 324.544 112.273 350.68 136.818L422.271 65.2273C378.862 24.7727 322.498 0 254.998 0C157.271 0 72.953 56.1364 31.8167 137.955L114.998 202.5C134.771 143.409 189.998 99.5455 254.998 99.5455Z" fill="#EA4335"/>
</svg>
