<svg xmlns="http://www.w3.org/2000/svg" viewBox="0 0 490 500">
  <path fill="#4285F4" d="M490 255.682c0-17.727-1.591-34.773-4.545-51.137H250v96.819h134.545c-5.909 31.136-23.636 57.5-50.227 75.227v62.954h81.137C462.727 395.909 490 331.818 490 255.682Z"/>
  <path fill="#34A853" d="M249.998 499.999c67.5 0 124.091-22.272 165.455-60.454l-81.136-62.955c-22.273 15-50.682 24.091-84.319 24.091-65 0-120.227-43.863-140-102.954H26.817v64.545c41.136 81.591 125.454 137.727 223.181 137.727Z"/>
  <path fill="#FBBC05" d="M110 297.499c-5-15-7.955-30.909-7.955-47.5s2.955-32.5 7.955-47.5v-64.546H26.818C9.773 171.59 0 209.544 0 249.999c0 40.454 9.773 78.409 26.818 112.045l64.773-50.454L110 297.499Z"/>
  <path fill="#EA4335" d="M249.998 99.546c36.819 0 69.546 12.727 95.682 37.272l71.591-71.591C373.862 24.773 317.498 0 249.998 0 152.271 0 67.953 56.137 26.817 137.955l83.181 64.545c19.773-59.091 75-102.954 140-102.954Z"/>
</svg>
