<svg xmlns="http://www.w3.org/2000/svg" viewBox="0 0 1024 1024">
   <circle cx="512" cy="512" r="512" style="fill:#ee2f53"/>
   <path d="M768 511.51a892.66 892.66 0 0 1-5.18 94.8 138.36 138.36 0 0 1-47.4 84.35S680.6 716 637.64 742.17a869.63 869.63 0 0 1-82.22 43.29 116.91 116.91 0 0 1-47.4 9 119.39 119.39 0 0 1-47.4-8.73 864.24 864.24 0 0 1-82.22-43.29c-43-25.38-77.77-51.51-77.77-51.51-9.63-7.79-19.23-19.17-27.29-31.93a2.19 2.19 0 0 1 1.87-3.35h36.24a3 3 0 0 1 2.26 1 93.83 93.83 0 0 0 11.79 11.44s30.64 22.8 68.44 45a762.9 762.9 0 0 0 72.35 37.78 105.85 105.85 0 0 0 41.71 7.61 103.61 103.61 0 0 0 41.72-7.82 767.21 767.21 0 0 0 72.35-37.78c37.81-22.8 68.44-45 68.44-45a120.5 120.5 0 0 0 41.72-73.62 772.63 772.63 0 0 0 4.56-82.74c-.65-44.76-5.21-82.54-5.21-82.54-2-25.41-21.51-58-41.06-73.61a747 747 0 0 0-68.44-44.3 762.58 762.58 0 0 0-72.35-37.78 105.83 105.83 0 0 0-41.73-7.78 103.61 103.61 0 0 0-41.72 7.82 767.4 767.4 0 0 0-72.35 37.78c-37.81 22.8-68.44 44.3-68.44 44.3a120.46 120.46 0 0 0-13.64 13.39 3 3 0 0 1-2.27 1h-36.1a2.18 2.18 0 0 1-1.89-3.3 137.79 137.79 0 0 1 29-34s34.81-24.63 77.77-50.76a869.5 869.5 0 0 1 82.22-43.29 116.89 116.89 0 0 1 47.4-9 119.4 119.4 0 0 1 47.4 9 864.24 864.24 0 0 1 82.22 43.29 848.16 848.16 0 0 1 77.77 50.76c22.22 17.92 44.44 55.24 46.66 84.35.04.09 5.23 43.38 5.97 94.66Zm-318 76.58h17.1a.89.89 0 0 0 .89-.89v-69.48a.89.89 0 0 0-.89-.89H415a.88.88 0 0 0-.89.85 296 296 0 0 1-3.78 35.51 289.23 289.23 0 0 1-8.1 33.77.89.89 0 0 0 .85 1.14h17.52a.88.88 0 0 0 .83-.6 250.76 250.76 0 0 0 7.12-28.54 228.6 228.6 0 0 0 3.45-25.43h17.13v53.67a.89.89 0 0 0 .87.89ZM256.89 484.17h17a.89.89 0 0 0 .89-.89v-53.67h26a.87.87 0 0 0 .9-.54l6.22-14.93a.89.89 0 0 0-.81-1.23h-50.2a.89.89 0 0 0-.89.89v69.49a.89.89 0 0 0 .89.88Zm322.9 103.92a.89.89 0 0 0 .89-.89v-53.67h26a.87.87 0 0 0 .9-.54l6.23-14.93a.89.89 0 0 0-.81-1.23h-50.3a.89.89 0 0 0-.89.89v69.48a.89.89 0 0 0 .89.89Zm-290.16 25.63C303.27 586 313.31 561.34 327 518a.89.89 0 0 0-.84-1.17h-17.09a.9.9 0 0 0-.86.65 455.34 455.34 0 0 1-15.81 47L275 517.4a.89.89 0 0 0-.83-.58h-17.28a.88.88 0 0 0-.83 1.18L282 588.1c-3.66 7.69-7.72 15.79-12.37 24.81a.89.89 0 0 0 .79 1.3h18.44a.9.9 0 0 0 .77-.49Zm204.2.49h18.44a.9.9 0 0 0 .79-.49C526.7 586 536.75 561.34 550.47 518a.9.9 0 0 0-.84-1.17H532.5a.9.9 0 0 0-.86.65 455.2 455.2 0 0 1-15.81 47l-17.4-47.08a.89.89 0 0 0-.83-.58h-17.28a.88.88 0 0 0-.83 1.18l25.92 70.09c-3.66 7.69-7.72 15.79-12.37 24.81a.89.89 0 0 0 .79 1.31Zm-124-82.78a46.93 46.93 0 0 1 13.7 2.14.92.92 0 0 0 1.08-.46c1.94-3.63 4.29-8.08 6.93-13.52a.91.91 0 0 0 0-.77 1 1 0 0 0-.58-.53 76.92 76.92 0 0 0-22.36-3.44c-24.49 0-35.41 11.5-35.41 37.31 0 26.18 10.92 37.86 35.41 37.86 6.14 0 18.23-1.28 24.07-3.6a.94.94 0 0 0 .53-1.18l-5.06-14a1 1 0 0 0-.49-.53 1 1 0 0 0-.72 0 59.43 59.43 0 0 1-17.1 2.74c-11.69 0-17.26-3.14-17.26-21-.01-14.29 1.7-21.01 17.25-21.01Zm58.65-103.92a46.94 46.94 0 0 1 13.7 2.14.92.92 0 0 0 1.08-.46c1.94-3.63 4.29-8.08 6.93-13.52a.91.91 0 0 0 0-.77 1 1 0 0 0-.58-.53 76.93 76.93 0 0 0-22.36-3.44c-24.49 0-35.41 11.5-35.41 37.31 0 26.18 10.92 37.86 35.41 37.86 6.14 0 18.23-1.28 24.07-3.6a.94.94 0 0 0 .53-1.18l-5.06-14a1 1 0 0 0-.49-.53 1 1 0 0 0-.72 0 59.41 59.41 0 0 1-17.1 2.74c-11.69 0-17.26-3.14-17.26-21-.01-14.29 1.7-21.01 17.25-21.01Zm-49.24 20.73c0 27.26-9.41 37.86-33.55 37.86-23.95 0-33.27-10.6-33.27-37.86 0-26.85 9.32-37.31 33.27-37.31 24.14.01 33.55 10.47 33.55 37.32Zm-19 .27c0-20.16-3.78-21.95-14.59-21.95-10.6 0-14.31 1.79-14.31 21.95 0 18.93 3.4 22 14.31 22 11.16-.04 14.63-3.06 14.63-21.99Zm279.66 68.32h-17.05a.88.88 0 0 0-.89.89v40.58c.41 22.82 8.69 31.76 29.13 31.76a102.78 102.78 0 0 0 33.16-6 .9.9 0 0 0 .6-.87v-65.48a.85.85 0 0 0-.87-.89H667a.88.88 0 0 0-.89.89v53.69a42 42 0 0 1-11.54 1.53c-10.34 0-13.34-2.91-13.73-15v-40.22a.88.88 0 0 0-.94-.88Z" style="fill:#fff"/>
</svg>
