<svg xmlns="http://www.w3.org/2000/svg" fill="none" viewBox="0 0 400 400"><path fill="#150A45" d="M0 0h400v400H0z"/><path fill="#fff" d="M234.117 91.106C225.896 77.188 211.92 69 192.19 69 155.196 69 133 98.475 133 139.413c0 40.937 22.196 70.412 59.19 70.412 6.577 0 13.976-.819 19.73-3.275 6.577-2.456 12.332-6.55 16.442-11.463v19.65c0 13.1-7.399 29.475-29.595 29.475-17.264 0-25.485-9.825-28.773-19.65L139.577 239.3c8.221 18.012 26.306 34.388 61.656 34.388 51.792 0 65.767-35.207 65.767-65.5V70.638h-32.061l-.822 20.468Zm-33.706 86.788c-18.908 0-29.595-14.738-29.595-38.481 0-23.744 10.687-38.482 29.595-38.482s29.595 14.738 29.595 38.482c0 22.925-10.687 38.481-29.595 38.481ZM267 284.332V331H133.822v-27.837h106.049v-18.831H267Z"/></svg>