<svg xmlns="http://www.w3.org/2000/svg" width="370.484" height="370.484"><path d="M114.716 179.595c-3.805.292-8.38.68-14.585.68s-10.779-.388-14.587-.68c-2.202-.17-3.38.307-2.986 1.397.317.891 3.029 1.144 5.7 3.943 2.276 2.385 2.738 6.49 2.738 13.216l.008 27.79c.002 3.738.807 4.826 4.692 7.518 4.392 3.035 8.55 6.393 10.99 9.943.46.668 1.164 1.145 1.748.96.637-.203.86-2.472.86-2.472l.002-46.24c0-7.418 1.207-9.143 2.708-10.715 2.67-2.799 5.384-3.052 5.702-3.943.392-1.09-.784-1.568-2.99-1.397"/><path d="M64.892 127.452c14.67 0 21.683 3.52 28.777 9.268 5.015 4.067 8.51 9.662 10.554 13.62 2.145 4.492 1.802 5.794 3.021 6.324.677.298 1.993-.325 1.993-2.993.096-4.272.056-9.848.014-19.05-.014-2.967-1.904-4.065-11.247-7.96-4.3-1.793-16.981-6.669-33.112-6.669C26.922 119.992 0 148.252 0 183.08c0 31.134 21.38 56.432 43.37 62.915.737.215 1.678.49 2.19.575 1.139.188 1.347-.832 1.347-3.458 0-.962-.198-1.389-1.571-2.624-13.784-12.416-23.35-34.869-23.35-56.529 0-31.956 18.514-56.507 42.906-56.507M196.625 205.86c-.917-.415-2.198.552-3.337 2.365l-6.724 10.748-33.488-80.009c-2.547-7.125-2.415-9.144-1.701-11.39.49-1.56 3.082-3.154 3.397-4.04.39-1.093-.783-1.57-2.987-1.4-3.806.294-8.38.677-14.585.678-6.204-.001-10.777-.384-14.585-.679-2.204-.169-3.383.308-2.991 1.402.321.885 3.033 1.142 5.704 3.938 1.585 1.667 4.19 4.582 8.135 12.264.69 1.475 1.349 2.971 1.988 4.463l1.568 3.743c.312.753.622 1.505.933 2.248.035.086.075.168.11.241l41.062 97.944c.577 1.376 1.376 2.513 2.25 2.513.635 0 1.566-.814 1.92-1.838l13.054-37.77c.875-2.53 1.423-4.897.277-5.42m79.583-83.728c-2.897.223-6.237.5-10.396.618-4.719-.05-4.9-.35-8.377-.618-2.206-.169-3.38.308-2.987 1.402.319.885 2.908 2.478 3.403 4.04.64 2.041.809 3.896-1.071 9.556l-28.539 80.064-32.793-78.523c-2.439-6.885-2.301-8.881-1.603-11.097.495-1.562 3.086-3.155 3.406-4.04.388-1.094-.787-1.57-2.99-1.402-3.81.295-8.382.678-14.588.68-6.202-.002-10.78-.385-14.582-.68-2.206-.169-3.383.308-2.995 1.402.325.885 3.035 1.142 5.704 3.938 1.615 1.692 4.28 4.675 8.332 12.648a133.181 133.181 0 011.83 4.122l1.526 3.638.955 2.31c.04.086.074.168.116.242l41.189 98.26c.987 2.284 2.735 3.77 3.937.452l39.087-108.286.005.018c3.63-9.558 6.63-11.76 8.154-13.288 2.732-2.737 5.944-3.169 6.264-4.054.393-1.094-.788-1.57-2.987-1.402M369.022 217.376c-.886.317-2.686 3.102-5.617 5.733-3.612 3.239-11.568 6.39-23.997 6.39h-31.495c23.528-31.757 54.748-55.003 54.748-77.731 0-20.682-11.337-32.364-37.945-32.364-8.323 0-21.651 3.746-33.603 10.62-1.828 1.05-2.316 2.082-2.315 3.581l.028 18.541c.002 3.471 1.304 3.799 1.982 3.503.818-.357.92-1.104 1.545-2.932 1.06-3.08 5.167-11.613 13.292-18.715 6.568-5.744 12.561-6.841 17.739-6.841 15.42 0 20.125 11.176 20.125 22.93 0 18.083-14.948 35.86-27.124 52.437-16.628 22.65-27.19 36.368-31.205 41.626-.414.542-.59 1.099-.391 1.444.31.522 1.13.492 2.415.422 7.394-.407 24.856-1.35 37.79-1.084 9.804.201 24.344 1 26.816 1.128 2.783.146 7.366.298 8.87-.41 1.23-.59 2.313-3.249 2.812-4.738 3.308-9.928 6.288-14.82 6.934-20.551.247-2.193-.312-3.383-1.404-2.99"/></svg>