<svg version="1.1" id="Layer_1" xmlns="http://www.w3.org/2000/svg" xmlns:xlink="http://www.w3.org/1999/xlink" x="0px" y="0px" viewBox="0 0 333.8 127" style="enable-background:new 0 0 333.8 127;" xml:space="preserve">
  <path d="M296.4,18.6c-20.6,0-37.4,16.8-37.4,37.6c0,20.7,16.8,37.6,37.4,37.6c20.6,0,37.4-16.9,37.4-37.6
		C333.8,35.4,317,18.6,296.4,18.6L296.4,18.6z M296.4,75.9c-10.9,0-19.7-8.9-19.7-19.8c0-10.9,8.8-19.8,19.7-19.8
		c10.8,0,19.7,8.9,19.7,19.8C316.1,67,307.2,75.9,296.4,75.9L296.4,75.9z M186.2,48.5l-6.5-3.3c-2.8-1.4-4.6-2.5-5.3-3.3
		c-0.7-0.7-1.1-1.7-1.1-2.6c0-1.3,0.6-2.3,1.7-3.2c1.1-0.9,2.7-1.3,4.7-1.3c3.7,0,7.7,2.2,12.2,6.7l11-11.1
		c-2.7-3.7-6.3-6.7-10.4-8.8c-4-2-8.5-3.1-13-3c-6.7,0-12.3,2-16.6,6c-4.3,4-6.5,8.8-6.5,14.5c0,8.7,5.7,16,17.2,21.8l6,3
		c5.2,2.6,7.8,5.3,7.8,8.1c0,1.5-0.7,2.8-2.1,4c-1.4,1.1-3.3,1.7-5.7,1.7c-2.2,0-4.7-0.8-7.5-2.3c-2.8-1.5-5.3-3.5-7.3-5.9l-11,12
		c6.2,8.1,14.5,12.2,24.8,12.2c7.8,0,14-2.1,18.6-6.4c4.6-4.2,7-9.5,7-15.9c0-4.8-1.3-8.9-3.8-12.5C197.8,55.4,193.1,52,186.2,48.5
		L186.2,48.5z M75.2,85.5V20.1H57.4v4.4c-6-3.9-13-5.9-20.1-5.9C16.8,18.6,0,35.4,0,56.1c0,20.7,16.8,37.6,37.4,37.6
		c7,0,13.9-2,19.9-5.7c0,0.6,0,1.1,0,1.4c0,10.9-8.8,19.8-19.7,19.8c-3.7,0-7.3-1.1-10.4-3l-8.8,15.4c5.8,3.5,12.4,5.4,19.2,5.4
		c20.6,0,37.6-16.9,37.6-37.6C75.2,88.6,75.3,86.3,75.2,85.5L75.2,85.5z M37.4,75.9c-10.8,0-19.7-8.9-19.7-19.8
		c0-10.9,8.8-19.8,19.7-19.8c10.9,0,19.7,8.9,19.7,19.8C57.1,67,48.2,75.9,37.4,75.9L37.4,75.9z M145.9,20h-17.8v35.7
		c0,5.1,0,13.8-3.7,17.6c-1.8,1.8-3.7,3.4-7.8,3.4c-4.1,0-6.1-1.6-7.9-3.4c-3.7-3.7-3.7-12.5-3.7-17.6V20H87.2v35.6
		c-0.1,7.4-0.1,21,8.8,30c5.2,5.3,11.5,8,20.5,8c9,0,15.3-2.7,20.5-8c8.9-9,8.9-22.7,8.8-30L145.9,20z M247,72.7
		c-1.4,1.1-4.9,3.5-8.8,3c-3.2-0.4-5.8-2.8-6.2-10.7V35.3h21V20h-21V0h-17.8v3.9h0v58.7c0,9.3,2.3,31,24,31
		c10.9-0.2,17.6-6.1,20.4-8.5l0.4-0.3l-10.7-13.2C248.2,71.8,247.5,72.4,247,72.7L247,72.7z M247,72.7" style="fill:#F45D48;">
  </path>
</svg>