<?xml version="1.0" encoding="utf-8"?><!-- Uploaded to: SVG Repo, www.svgrepo.com, Generator: SVG Repo Mixer Tools -->
<svg xmlns="http://www.w3.org/2000/svg"
aria-label="Heroku" role="img"
viewBox="0 0 512 512" fill="#409"><rect
width="512" height="512"
rx="15%"/><path d="M367 99H145c-22 0-30 8-30 30v254c0 22 8 30 30 30h222c22 0 30-8 30-30V129c0-22-9-30-30-30" stroke="#ffffff" stroke-width="16"/><path fill="#ffffff" d="M182 284c56-28 94-31 107-25 9 4 9 15 9 15v99h33V273s-1-32-27-44-62-1-88 6v-95h-34m124 54s22-22 25-54h-34c-5 29-25 54-25 54m-90 178l37-33-37-33"/></svg>