<svg xmlns="http://www.w3.org/2000/svg" viewBox="0 0 500 500">
  <g clip-path="url(#a)">
    <path fill="#fff" d="M301.399 153.471c1.48-73.53-40.157-137.614-61.84-153.005-.098-.1-2.022-1.16-1.874 1.726 0 .05-.05.05-.05.099-2.219 138.897-73.628 176.315-112.38 227.227-86.16 113.194-14.281 242.323 78.86 266.792 1.578.395 5.895 1.677 14.06 3.355 4.266.912 5.5-2.714 2.367-8.116-11.124-19.363-30.932-52.046-34.854-94.028-8.904-97.482 113.984-158.506 115.71-244.05z"/>
    <path fill="#008CD6" d="M348.339 200.56c-.74-.543-1.776-.494-1.875.444-1.973 17.66-20.25 54.315-44.325 88.577-81.005 115.513-40.207 167.904-8.51 204.262 5.846 6.734 8.756 5.23 11.84.444 2.86-4.563 7.227-10.36 25.949-19.215 2.91-1.381 73.604-38.923 81.276-124.393 7.4-82.681-45.633-134.974-64.355-150.12z"/>
  </g>
</svg>
