<svg xmlns="http://www.w3.org/2000/svg" fill="#a00000" viewBox="0 0 25.57 25.57"><path d="M11 18.16s.05-.04.02-.1c-3-6.53-7.1-11.49-7.1-11.49S1.68 8.68 1.84 10.8a3.73 3.73 0 0 0 1.3 2.56c1.95 1.89 6.67 4.28 7.76 4.82.02 0 .07.02.1-.02zm-.72 1.62c-.02-.07-.1-.07-.1-.07l-7.87.27c.86 1.51 2.3 2.7 3.79 2.33 1.03-.26 3.37-1.88 4.14-2.43.06-.06.04-.1.04-.1zm.12-.7c.03-.07-.04-.13-.04-.13A152.15 152.15 0 0 0 .23 13.07a4.6 4.6 0 0 0 2.69 5.73c.75.3 1.5.32 1.5.32.12.02 4.67 0 5.9 0 .05 0 .07-.05.07-.05zm.52-15.9c-.34.04-1.27.25-1.27.25-2.08.53-2.57 2.41-2.57 2.41a4.77 4.77 0 0 0 .01 2.49c.7 3.07 4.12 8.1 4.85 9.17.05.05.1.03.1.03.08-.03.07-.1.07-.1 1.13-11.25-1.2-14.24-1.2-14.24zm2.6 14.35c.08.03.11-.05.11-.05.76-1.08 4.15-6.1 4.85-9.15 0 0 .37-1.48 0-2.49 0 0-.5-1.9-2.59-2.41 0 0-.6-.15-1.24-.24 0 0-2.33 2.99-1.2 14.26.02.07.07.08.07.08zm1.86 2.18s-.07 0-.09.06c0 0-.02.07.04.1.75.54 3.03 2.13 4.13 2.44 0 0 2.03.7 3.8-2.33zm9.96-6.65s-6.68 3.57-10.13 5.9c0 0-.06.03-.04.1 0 0 .04.06.09.06h6.03s.6-.03 1.36-.32c0 0 1.66-.53 2.52-2.4 0-.01.77-1.55.17-3.34zm-10.76 5.1s.05.03.1 0c1.13-.56 5.81-2.93 7.76-4.8 0 0 1.22-.99 1.3-2.57.13-2.2-2.08-4.22-2.08-4.22s-4.1 4.94-7.1 11.47c0-.01-.04.07.02.12z"/></svg>
