<?xml version="1.0" encoding="UTF-8"?>
<!DOCTYPE svg PUBLIC "-//W3C//DTD SVG 1.1//EN" "http://www.w3.org/Graphics/SVG/1.1/DTD/svg11.dtd">
<svg xmlns="http://www.w3.org/2000/svg" version="1.1" width="500px" height="500px" style="shape-rendering:geometricPrecision; text-rendering:geometricPrecision; image-rendering:optimizeQuality; fill-rule:evenodd; clip-rule:evenodd" xmlns:xlink="http://www.w3.org/1999/xlink">
<g><path style="opacity:0.989" fill="#cc2929" d="M 215.5,-0.5 C 238.167,-0.5 260.833,-0.5 283.5,-0.5C 385.121,17.9636 453.621,75.6303 489,172.5C 493.564,186.705 497.064,201.039 499.5,215.5C 499.5,238.167 499.5,260.833 499.5,283.5C 485.274,365.842 442.274,428.008 370.5,470C 342.969,484.445 313.969,494.279 283.5,499.5C 260.833,499.5 238.167,499.5 215.5,499.5C 133.16,485.276 70.9933,442.276 29,370.5C 14.5546,342.969 4.72126,313.969 -0.5,283.5C -0.5,260.833 -0.5,238.167 -0.5,215.5C 13.724,133.16 56.724,70.9933 128.5,29C 156.033,14.5531 185.033,4.71976 215.5,-0.5 Z"/></g>
<g><path style="opacity:1" fill="#edb7b7" d="M 294.5,125.5 C 306.322,124.505 318.322,124.172 330.5,124.5C 330.784,126.415 330.451,128.081 329.5,129.5C 329.5,128.167 329.5,126.833 329.5,125.5C 317.833,125.5 306.167,125.5 294.5,125.5 Z"/></g>
<g><path style="opacity:1" fill="#fefcfc" d="M 294.5,125.5 C 306.167,125.5 317.833,125.5 329.5,125.5C 329.5,126.833 329.5,128.167 329.5,129.5C 329.5,130.5 329.5,131.5 329.5,132.5C 327.254,136.805 325.92,141.471 325.5,146.5C 324.699,148.042 324.366,149.708 324.5,151.5C 323.076,153.515 322.41,155.848 322.5,158.5C 318.938,171.878 315.938,185.544 313.5,199.5C 312.076,201.515 311.41,203.848 311.5,206.5C 311.5,207.833 311.5,209.167 311.5,210.5C 310.076,212.515 309.41,214.848 309.5,217.5C 305.886,236.027 303.219,254.694 301.5,273.5C 300.71,274.609 300.21,275.942 300,277.5C 299.175,287.675 299.342,297.675 300.5,307.5C 300.725,314.453 303.059,320.62 307.5,326C 310.817,326.498 314.15,326.665 317.5,326.5C 321.416,326.975 324.749,325.975 327.5,323.5C 336.912,318.086 343.912,310.419 348.5,300.5C 350.969,299.393 351.969,297.393 351.5,294.5C 352.024,292.694 352.691,291.028 353.5,289.5C 355.405,285.784 356.739,281.784 357.5,277.5C 362.833,277.5 368.167,277.5 373.5,277.5C 373.5,280.167 373.5,282.833 373.5,285.5C 373.252,289.906 372.585,294.24 371.5,298.5C 370.076,300.515 369.41,302.848 369.5,305.5C 361.816,327.016 349.483,345.516 332.5,361C 323.808,367.398 314.141,371.565 303.5,373.5C 298.463,373.587 293.463,373.254 288.5,372.5C 278.456,368.788 271.789,361.788 268.5,351.5C 267.538,347.605 266.204,343.939 264.5,340.5C 259.853,314.996 259.186,289.329 262.5,263.5C 263.451,262.081 263.784,260.415 263.5,258.5C 253.319,258.173 243.319,258.506 233.5,259.5C 232.566,260.568 232.232,261.901 232.5,263.5C 230.162,270.872 228.829,278.539 228.5,286.5C 228.5,286.833 228.5,287.167 228.5,287.5C 227.076,289.515 226.41,291.848 226.5,294.5C 225.869,299.657 224.869,304.657 223.5,309.5C 222.076,311.515 221.41,313.848 221.5,316.5C 219.5,324.501 217.5,332.501 215.5,340.5C 214.076,342.515 213.41,344.848 213.5,347.5C 211.875,351.303 210.542,355.303 209.5,359.5C 208.076,361.515 207.41,363.848 207.5,366.5C 206.677,369.48 205.343,372.147 203.5,374.5C 191.833,374.5 180.167,374.5 168.5,374.5C 168.5,373.5 168.5,372.5 168.5,371.5C 168.232,369.901 168.566,368.568 169.5,367.5C 170.924,365.485 171.59,363.152 171.5,360.5C 171.676,357.273 172.343,354.273 173.5,351.5C 174.924,349.485 175.59,347.152 175.5,344.5C 176.167,341.167 176.833,337.833 177.5,334.5C 178.924,332.485 179.59,330.152 179.5,327.5C 180.343,322.462 181.343,317.462 182.5,312.5C 183.117,312.389 183.617,312.056 184,311.5C 184.497,308.854 184.664,306.187 184.5,303.5C 186.343,296.616 187.677,289.616 188.5,282.5C 189.117,282.389 189.617,282.056 190,281.5C 190.497,278.854 190.664,276.187 190.5,273.5C 191.663,265.008 192.997,256.675 194.5,248.5C 196.748,239.091 198.082,229.425 198.5,219.5C 198.5,209.833 198.5,200.167 198.5,190.5C 198.59,187.848 197.924,185.515 196.5,183.5C 195.017,174.429 189.684,170.762 180.5,172.5C 178.102,172.259 176.102,172.926 174.5,174.5C 160.64,181.198 151.14,191.865 146,206.5C 144.485,211.521 142.985,216.521 141.5,221.5C 136.167,221.5 130.833,221.5 125.5,221.5C 125.833,216.167 126.167,210.833 126.5,205.5C 126.629,203.784 126.962,202.117 127.5,200.5C 129.277,197.495 130.277,194.162 130.5,190.5C 137.847,169.303 150.18,151.47 167.5,137C 170.406,134.381 173.739,132.547 177.5,131.5C 179.967,131.245 181.967,130.245 183.5,128.5C 184.833,128.167 186.167,127.833 187.5,127.5C 193.797,126.68 200.131,126.347 206.5,126.5C 220.999,130.335 229.666,139.669 232.5,154.5C 232.41,157.152 233.076,159.485 234.5,161.5C 235.985,181.939 236.985,202.272 237.5,222.5C 248.221,223.142 258.554,222.475 268.5,220.5C 270.04,218.162 270.706,215.495 270.5,212.5C 270.448,210.097 270.781,207.764 271.5,205.5C 273.074,203.898 273.741,201.898 273.5,199.5C 273.714,194.317 274.714,189.317 276.5,184.5C 277.924,182.485 278.59,180.152 278.5,177.5C 279.924,175.485 280.59,173.152 280.5,170.5C 282.723,159.94 285.723,149.607 289.5,139.5C 291.277,136.495 292.277,133.162 292.5,129.5C 292.66,127.847 293.326,126.514 294.5,125.5 Z"/></g>
<g><path style="opacity:1" fill="#f4cccc" d="M 206.5,126.5 C 200.131,126.347 193.797,126.68 187.5,127.5C 190.865,125.961 194.531,125.294 198.5,125.5C 201.355,125.503 204.022,125.836 206.5,126.5 Z"/></g>
<g><path style="opacity:1" fill="#f1bdbd" d="M 183.5,128.5 C 181.967,130.245 179.967,131.245 177.5,131.5C 179.033,129.755 181.033,128.755 183.5,128.5 Z"/></g>
<g><path style="opacity:1" fill="#ecaaa8" d="M 292.5,129.5 C 292.277,133.162 291.277,136.495 289.5,139.5C 289.723,135.838 290.723,132.505 292.5,129.5 Z"/></g>
<g><path style="opacity:1" fill="#d75753" d="M 329.5,132.5 C 328.805,137.582 327.471,142.249 325.5,146.5C 325.92,141.471 327.254,136.805 329.5,132.5 Z"/></g>
<g><path style="opacity:1" fill="#df7572" d="M 324.5,151.5 C 324.59,154.152 323.924,156.485 322.5,158.5C 322.41,155.848 323.076,153.515 324.5,151.5 Z"/></g>
<g><path style="opacity:1" fill="#f1bfbe" d="M 232.5,154.5 C 233.924,156.515 234.59,158.848 234.5,161.5C 233.076,159.485 232.41,157.152 232.5,154.5 Z"/></g>
<g><path style="opacity:1" fill="#e17977" d="M 180.5,172.5 C 178.898,174.074 176.898,174.741 174.5,174.5C 176.102,172.926 178.102,172.259 180.5,172.5 Z"/></g>
<g><path style="opacity:1" fill="#efb5b4" d="M 280.5,170.5 C 280.59,173.152 279.924,175.485 278.5,177.5C 278.41,174.848 279.076,172.515 280.5,170.5 Z"/></g>
<g><path style="opacity:1" fill="#e79896" d="M 278.5,177.5 C 278.59,180.152 277.924,182.485 276.5,184.5C 276.41,181.848 277.076,179.515 278.5,177.5 Z"/></g>
<g><path style="opacity:1" fill="#e38886" d="M 196.5,183.5 C 197.924,185.515 198.59,187.848 198.5,190.5C 197.076,188.485 196.41,186.152 196.5,183.5 Z"/></g>
<g><path style="opacity:1" fill="#f5d1d0" d="M 234.5,161.5 C 235.748,164.942 236.581,168.608 237,172.5C 237.5,189.163 237.667,205.83 237.5,222.5C 236.985,202.272 235.985,181.939 234.5,161.5 Z"/></g>
<g><path style="opacity:1" fill="#ea9f9e" d="M 130.5,190.5 C 130.277,194.162 129.277,197.495 127.5,200.5C 127.723,196.838 128.723,193.505 130.5,190.5 Z"/></g>
<g><path style="opacity:1" fill="#e48988" d="M 273.5,199.5 C 273.741,201.898 273.074,203.898 271.5,205.5C 271.259,203.102 271.926,201.102 273.5,199.5 Z"/></g>
<g><path style="opacity:1" fill="#e79998" d="M 313.5,199.5 C 313.59,202.152 312.924,204.485 311.5,206.5C 311.41,203.848 312.076,201.515 313.5,199.5 Z"/></g>
<g><path style="opacity:1" fill="#e28382" d="M 311.5,210.5 C 311.59,213.152 310.924,215.485 309.5,217.5C 309.41,214.848 310.076,212.515 311.5,210.5 Z"/></g>
<g><path style="opacity:1" fill="#e38685" d="M 270.5,212.5 C 270.706,215.495 270.04,218.162 268.5,220.5C 268.565,217.572 269.232,214.905 270.5,212.5 Z"/></g>
<g><path style="opacity:1" fill="#f6d7d7" d="M 126.5,205.5 C 126.167,210.833 125.833,216.167 125.5,221.5C 130.833,221.5 136.167,221.5 141.5,221.5C 136.025,222.489 130.358,222.822 124.5,222.5C 124.216,216.583 124.883,210.916 126.5,205.5 Z"/></g>
<g><path style="opacity:1" fill="#eeb3b2" d="M 198.5,219.5 C 198.082,229.425 196.748,239.091 194.5,248.5C 195.292,238.627 196.625,228.96 198.5,219.5 Z"/></g>
<g><path style="opacity:1" fill="#dc6d6c" d="M 233.5,259.5 C 243.319,258.506 253.319,258.173 263.5,258.5C 263.784,260.415 263.451,262.081 262.5,263.5C 262.5,262.167 262.5,260.833 262.5,259.5C 252.833,259.5 243.167,259.5 233.5,259.5 Z"/></g>
<g><path style="opacity:1" fill="#de706c" d="M 232.5,263.5 C 232.171,271.461 230.838,279.128 228.5,286.5C 228.829,278.539 230.162,270.872 232.5,263.5 Z"/></g>
<g><path style="opacity:1" fill="#edafae" d="M 373.5,285.5 C 373.5,282.833 373.5,280.167 373.5,277.5C 368.167,277.5 362.833,277.5 357.5,277.5C 356.739,281.784 355.405,285.784 353.5,289.5C 354.293,285.12 355.293,280.786 356.5,276.5C 362.5,276.5 368.5,276.5 374.5,276.5C 374.81,279.713 374.477,282.713 373.5,285.5 Z"/></g>
<g><path style="opacity:1" fill="#f1c0bf" d="M 190.5,273.5 C 190.664,276.187 190.497,278.854 190,281.5C 189.617,282.056 189.117,282.389 188.5,282.5C 188.676,279.273 189.343,276.273 190.5,273.5 Z"/></g>
<g><path style="opacity:1" fill="#e5908f" d="M 301.5,273.5 C 300.741,284.817 300.407,296.15 300.5,307.5C 299.342,297.675 299.175,287.675 300,277.5C 300.21,275.942 300.71,274.609 301.5,273.5 Z"/></g>
<g><path style="opacity:1" fill="#df7877" d="M 228.5,287.5 C 228.59,290.152 227.924,292.485 226.5,294.5C 226.41,291.848 227.076,289.515 228.5,287.5 Z"/></g>
<g><path style="opacity:1" fill="#f3c2c0" d="M 351.5,294.5 C 351.969,297.393 350.969,299.393 348.5,300.5C 348.992,298.181 349.992,296.181 351.5,294.5 Z"/></g>
<g><path style="opacity:1" fill="#dc6b68" d="M 371.5,298.5 C 371.59,301.152 370.924,303.485 369.5,305.5C 369.41,302.848 370.076,300.515 371.5,298.5 Z"/></g>
<g><path style="opacity:1" fill="#f2bfbe" d="M 184.5,303.5 C 184.664,306.187 184.497,308.854 184,311.5C 183.617,312.056 183.117,312.389 182.5,312.5C 182.676,309.273 183.343,306.273 184.5,303.5 Z"/></g>
<g><path style="opacity:1" fill="#e2817f" d="M 223.5,309.5 C 223.59,312.152 222.924,314.485 221.5,316.5C 221.41,313.848 222.076,311.515 223.5,309.5 Z"/></g>
<g><path style="opacity:1" fill="#efb5b4" d="M 327.5,323.5 C 324.749,325.975 321.416,326.975 317.5,326.5C 320.726,325.511 324.06,324.511 327.5,323.5 Z"/></g>
<g><path style="opacity:1" fill="#eba5a4" d="M 179.5,327.5 C 179.59,330.152 178.924,332.485 177.5,334.5C 177.41,331.848 178.076,329.515 179.5,327.5 Z"/></g>
<g><path style="opacity:1" fill="#db6360" d="M 215.5,340.5 C 215.59,343.152 214.924,345.485 213.5,347.5C 213.41,344.848 214.076,342.515 215.5,340.5 Z"/></g>
<g><path style="opacity:1" fill="#e58d8c" d="M 264.5,340.5 C 266.204,343.939 267.538,347.605 268.5,351.5C 266.01,348.374 264.677,344.708 264.5,340.5 Z"/></g>
<g><path style="opacity:1" fill="#eeb5b5" d="M 175.5,344.5 C 175.59,347.152 174.924,349.485 173.5,351.5C 173.41,348.848 174.076,346.515 175.5,344.5 Z"/></g>
<g><path style="opacity:1" fill="#e07876" d="M 209.5,359.5 C 209.59,362.152 208.924,364.485 207.5,366.5C 207.41,363.848 208.076,361.515 209.5,359.5 Z"/></g>
<g><path style="opacity:1" fill="#f0bbba" d="M 171.5,360.5 C 171.59,363.152 170.924,365.485 169.5,367.5C 169.41,364.848 170.076,362.515 171.5,360.5 Z"/></g>
<g><path style="opacity:1" fill="#ebabaa" d="M 288.5,372.5 C 293.463,373.254 298.463,373.587 303.5,373.5C 301.696,374.162 299.696,374.495 297.5,374.5C 294.186,374.657 291.186,373.991 288.5,372.5 Z"/></g>
<g><path style="opacity:1" fill="#dd6e6e" d="M 168.5,371.5 C 168.5,372.5 168.5,373.5 168.5,374.5C 180.167,374.5 191.833,374.5 203.5,374.5C 191.678,375.495 179.678,375.828 167.5,375.5C 167.232,373.901 167.566,372.568 168.5,371.5 Z"/></g>
</svg>
