<svg xmlns="http://www.w3.org/2000/svg" xmlns:xlink="http://www.w3.org/1999/xlink" width="528.602" height="528.602" viewBox="0 0 139.859 139.859"><defs><linearGradient xlink:href="#a" id="d" gradientUnits="userSpaceOnUse" gradientTransform="scale(-.74441 .74441) rotate(-45 -9477.333 9708.193)" x1="3740.42" y1="9629.791" x2="3814.157" y2="9616.79"/><linearGradient id="a" x1="3740.42" y1="9629.791" x2="3814.157" y2="9616.79" gradientTransform="scale(-1 1) rotate(-45 -9806.195 9448.598)" gradientUnits="userSpaceOnUse"><stop offset=".2" stop-opacity="0"/><stop offset=".287" stop-opacity=".03"/><stop offset=".501" stop-opacity=".2"/><stop offset=".793" stop-opacity=".742"/><stop offset="1"/></linearGradient><linearGradient xlink:href="#b" id="e" gradientUnits="userSpaceOnUse" gradientTransform="matrix(.7444 0 0 -.7444 .898 -947.456)" x1="81.047" y1="-1585.099" x2="124.272" y2="-1560.143"/><linearGradient id="b" x1="81.047" y1="-1585.099" x2="124.272" y2="-1560.143" gradientTransform="matrix(1 0 0 -1 -86.035 -1581.34)" gradientUnits="userSpaceOnUse"><stop offset=".08"/><stop offset=".753" stop-opacity=".07"/><stop offset=".875" stop-opacity="0"/></linearGradient><linearGradient xlink:href="#c" id="f" gradientUnits="userSpaceOnUse" gradientTransform="matrix(.7444 0 0 -.7444 .898 -947.456)" x1="179.851" y1="-1589.807" x2="245.602" y2="-1534.636"/><linearGradient id="c" x1="179.851" y1="-1589.807" x2="245.602" y2="-1534.636" gradientTransform="matrix(1 0 0 -1 -86.035 -1581.34)" gradientUnits="userSpaceOnUse"><stop offset=".138" stop-opacity="0"/><stop offset=".32" stop-opacity=".07"/><stop offset=".847" stop-opacity=".764"/><stop offset=".947"/></linearGradient></defs><path class="cls-1" d="M100.474 254.901a47.502 47.502 0 0167.177-67.178 48.196 48.196 0 013.78 4.254 47.628 47.628 0 012.307 3.197l-4.417 2.915a42.235 42.235 0 00-2.05-2.839 42.853 42.853 0 00-3.36-3.783 42.21 42.21 0 00-59.694 59.694z" fill="url(#d)" transform="translate(-64.347 -137.016)"/><path d="M18.612 57.44a2.635 2.635 0 01-1.32-.354L4.79 49.868a2.75 2.75 0 01-1.3-3.259 2.649 2.649 0 013.815-1.4l12.5 7.218a2.746 2.746 0 011.151 3.597 2.646 2.646 0 01-2.345 1.416zM40.215 35.842a2.645 2.645 0 01-2.294-1.323l-7.217-12.5a2.75 2.75 0 01.503-3.473 2.648 2.648 0 014.004.696l7.212 12.49a2.757 2.757 0 01-.699 3.636 2.642 2.642 0 01-1.51.474zM67.07 25.117V10.878a2.762 2.762 0 012.526-2.816 2.646 2.646 0 012.766 2.643V25.29a2.646 2.646 0 01-2.766 2.644 2.762 2.762 0 01-2.527-2.817zM99.217 35.842a2.639 2.639 0 01-1.508-.473 2.759 2.759 0 01-.699-3.639l7.21-12.488a2.648 2.648 0 014.005-.697 2.75 2.75 0 01.503 3.474l-7.217 12.5a2.646 2.646 0 01-2.294 1.323zM120.82 57.44a2.645 2.645 0 01-2.345-1.416 2.746 2.746 0 011.15-3.597l12.39-7.153a2.733 2.733 0 013.44.499 2.649 2.649 0 01-.683 4.02l-12.631 7.293a2.635 2.635 0 01-1.32.354zM103.579 131.8H30.472A30.681 30.681 0 01.001 100.89l5.292.04a25.388 25.388 0 0025.199 25.577h73.064a30.996 30.996 0 0023.118-51.66l3.944-3.529a36.289 36.289 0 01-27.04 60.482z"/><path class="cls-2" d="M69.64 237.946l-5.292-.04a30.648 30.648 0 0125.566-30.028l.884 5.218a25.361 25.361 0 00-21.157 24.85z" fill="url(#e)" transform="translate(-64.347 -137.016)"/><path class="cls-3" d="M136.924 232.297l-5.292-.04a36.288 36.288 0 0163.333-23.923l-3.944 3.529a30.996 30.996 0 00-54.097 20.433z" fill="url(#f)" transform="translate(-64.347 -137.016)"/></svg>