<svg xmlns="http://www.w3.org/2000/svg" viewBox="0 0 1024 1024">
   <circle cx="512" cy="512" r="512" style="fill:#1f4fd0"/>
   <path d="M476.88 258.41C532 250.77 589.62 261.39 638 289c54.28 30.53 97 81.45 116.52 140.69 16.71 48.8 17.87 102.62 4 152.26a256.48 256.48 0 0 1-96 137.42c-42.36 31-94.6 48.48-147.1 48.59a252.5 252.5 0 0 1-157.68-51.19c-50.49-37.72-86-94.87-97.39-156.9-11.4-60.07-.78-124.17 30.4-176.86 38.62-67.18 109.25-114.78 186.13-124.6m-76.49 135.95c-20.82-11.19-48.29 2.33-53.85 24.87-14.89 9.82-29.46 20.5-41.72 33.51-14.86 49.8-10.3 105 12.21 151.83C340.53 654.71 384.18 695 436 714.51a215.88 215.88 0 0 0 121.46 9.23 96.58 96.58 0 0 1-12.15-22.89c-14.38-38.71 3.78-87 41.77-104.39 19-11.21 41.77-3.89 62.19-9.39 26-6.25 47.7-25 61.65-47.3 5.37-7.62.86-17.41-4.88-23.37-23-23-53.82-35.25-82.42-49.34-11.78-14.41-13-37.05-29.89-47.73-56.26-37-129.37-44.72-193.3-25m127.89 59.32c-6.17 3.38-13.84 11.27-7.81 18.32 15 0 30 1.74 45 .38 6-1.5 13.15-8.08 8.37-14.38-6.2-2.82-13.09-3.41-19.61-5.18-8.42-2.15-18.06-4.05-25.94.86" style="fill:#fff"/>
</svg>
