<svg width="126" height="45" viewBox="0 0 126 45" fill="none" xmlns="http://www.w3.org/2000/svg">
<path d="M6.76597 0.337891H4.59152C1.87715 0.337891 0.5 1.14359 0.5 2.73083V42.0032C0.5 43.5914 1.87715 44.3961 4.59152 44.3961H6.76597C9.4814 44.3961 10.8575 43.5904 10.8575 42.0032V2.73083C10.8585 1.14359 9.4814 0.337891 6.76597 0.337891Z" fill="white"/>
<path d="M45.1179 39.5856C45.1179 34.9006 48.2073 30.9351 52.4743 29.5706C52.9617 27.3867 53.2075 24.978 53.2117 22.3445C53.2117 8.14862 45.9908 0.330078 32.878 0.330078H18.8996C16.9468 0.330078 16.0371 1.23137 16.0371 3.16736V41.5216C16.0371 43.4576 16.9468 44.3589 18.8985 44.3589H32.877C37.8761 44.3589 42.0159 43.2191 45.2282 41.0268C45.1578 40.5499 45.1211 40.0678 45.1169 39.5856M32.8759 35.5298H26.4398V9.15916H32.8759C40.9287 9.15916 42.6199 16.3296 42.6199 22.3445C42.6199 28.3594 40.9287 35.5298 32.8759 35.5298Z" fill="white"/>
<path d="M55.7368 34.7764C58.4165 34.7764 60.5889 36.9298 60.5889 39.5864C60.5889 42.243 58.4165 44.3964 55.7368 44.3964C53.0571 44.3964 50.8848 42.243 50.8848 39.5864C50.8848 36.9298 53.0571 34.7764 55.7368 34.7764Z" fill="#2EA76D"/>
<path d="M124.735 32.8363C124.593 32.7754 124.441 32.7417 124.286 32.7365C123.623 32.7144 123.171 32.9728 122.772 33.6126C122.536 33.996 122.303 34.3857 122.072 34.7754C121.192 36.2618 120.283 37.7965 118.962 38.8974C117.168 40.3912 114.57 41.0897 112.342 40.6842C111.017 40.4437 110.071 39.493 109.51 38.7388C108.482 37.3522 107.981 35.4855 108.061 33.3342C111.341 33.06 121.224 31.6114 122.01 24.1847C122.163 22.7446 121.749 21.4399 120.814 20.4104C119.629 19.1058 117.736 18.3862 115.487 18.3862C108.895 18.3862 102.389 25.2215 101.564 33.0138C101.338 35.1515 101.607 37.1253 102.364 38.8848C101.884 39.3449 101.335 39.7283 100.74 40.0224C100.187 40.283 99.7092 40.3365 99.3584 40.1769C98.9245 39.9773 98.7481 39.4741 98.6787 39.0886C98.4193 37.6621 98.7544 36.0223 99.1514 34.3279C99.3846 33.3342 99.6777 32.2995 99.9351 31.3856C100.732 28.5672 101.557 25.6533 101.282 22.7088C101.032 20.0134 99.1231 18.3389 96.3016 18.3389C92.3455 18.3389 89.7404 21.1374 88.0544 23.5366C88.0187 21.7487 87.5891 20.4504 86.7466 19.5827C85.9451 18.757 84.7676 18.3379 83.2486 18.3379C79.3682 18.3379 76.7956 21.026 75.1139 23.379C75.1359 23.1626 75.159 22.942 75.1832 22.7214C75.2893 21.713 75.3366 20.2676 74.5246 19.3747C74.0414 18.8432 73.3144 18.5732 72.3638 18.5732C71.7104 18.5532 71.057 18.6037 70.4152 18.7255C70.4057 18.7266 69.5339 18.8957 69.2019 19.1982C68.621 19.7266 68.8059 20.4556 68.912 20.8716C68.9256 20.9241 68.9382 20.9724 68.9445 21.0134C69.0107 21.4746 69.0307 21.941 69.0055 22.4063C68.8836 25.2362 68.3542 28.0651 67.851 30.4591C67.5789 31.7491 67.2733 33.0611 66.9707 34.3563C66.2985 37.2303 65.6051 40.2 65.249 43.1875C65.1703 43.7684 65.5757 44.3031 66.1566 44.3818C66.2092 44.3892 66.2627 44.3923 66.3163 44.3913L66.5253 44.3934C68.6578 44.4218 70.7534 44.3346 71.2461 43.1286C71.7913 41.7988 72.0928 40.1811 72.3596 38.7503L72.4772 38.1159C73.1096 34.8258 73.6621 32.4686 74.7756 29.4381C75.3492 27.876 76.3975 26.4695 77.2452 25.4169C78.2715 24.1427 79.3787 22.8958 80.6277 22.8643C81.1445 22.838 81.4817 22.9904 81.7359 23.3255C82.9492 24.9306 81.4387 30.1103 80.7937 32.3226C80.654 32.8006 80.5363 33.205 80.4617 33.5012L80.0174 35.2103C79.363 37.702 78.6865 40.2777 78.3398 42.8839C78.3052 43.1507 78.2726 43.4186 78.2453 43.6896L78.2159 44.053L78.489 44.261C79.0394 44.6844 82.9702 44.0919 83.0017 44.0825C84.4514 43.5971 84.7665 42.2452 84.8705 41.8009C85.1405 40.6517 85.3789 39.4773 85.609 38.3428L85.6258 38.2587C86.0586 36.1211 86.5061 33.9098 87.1752 31.7764C88.482 27.625 90.2236 24.7929 92.3539 23.358C93.2647 22.7425 94.2007 22.6742 94.624 23.1941C95.3604 24.0912 94.8939 26.5199 94.6944 27.5567C94.4191 28.9958 94.0662 30.4591 93.7258 31.8751L93.708 31.9476C93.4895 32.8499 93.2731 33.7512 93.0714 34.6557C92.4485 37.4583 91.9369 40.9332 93.5284 42.9385C94.3383 43.9606 95.5914 44.4785 97.2533 44.4785C99.0159 44.4785 100.674 43.8955 102.471 42.6444C102.966 42.2967 103.466 41.8923 104.05 41.4111C106.073 43.6906 108.37 44.6676 111.687 44.6676C119.185 44.6676 122.71 39.7283 124.71 36.0129C124.976 35.537 125.211 35.0443 125.412 34.538C125.66 33.8542 125.362 33.1062 124.734 32.8373M115.539 23.4557C115.549 23.5713 115.559 23.6868 115.56 23.8034C115.56 23.9778 115.551 24.1522 115.533 24.3265C115.477 24.9043 115.363 25.4757 115.194 26.0314C114.124 29.4717 111.112 30.0809 108.506 30.1681C108.849 28.6996 109.358 27.2741 110.021 25.919C111.288 23.358 112.881 21.7676 114.175 21.7666C114.295 21.7666 114.414 21.7844 114.528 21.817C114.588 21.838 114.646 21.8632 114.701 21.8937L114.756 21.9178C114.778 21.9262 114.799 21.9368 114.819 21.9494C114.876 21.9872 114.928 22.0313 114.977 22.0786L115.021 22.1195C115.039 22.1342 115.054 22.15 115.07 22.1668C115.105 22.2078 115.137 22.2519 115.166 22.2981L115.204 22.3559C115.233 22.3958 115.259 22.4378 115.282 22.4809C115.296 22.5082 115.307 22.5387 115.342 22.6185C115.379 22.7036 115.41 22.7908 115.438 22.879L115.462 22.9862C115.491 23.0986 115.513 23.212 115.528 23.3265L115.539 23.4557Z" fill="white"/>
</svg>
