<svg xmlns="http://www.w3.org/2000/svg" width="246.277" height="246.277"><path d="M204.323 107.334c-.666-1.198-1.198-2.266-2-3.198-4.398-6.667-10-12-16.666-15.867-4-2.535-8.532-4.268-13.334-5.467l-60-16.134c-4.666-1.199-9.333-1.866-13.732-1.866-9.068-.134-17.734 2.266-26.268 7.2-.8.4-1.598.934-2.265 1.467-4 2.532-7.467 5.333-10.535 8.8-5.598 5.867-9.465 13.2-11.598 21.599L31.79 163.869c-3.733 14-2 27.334 5.2 39.864 7.2 12.667 17.866 20.803 32 24.535l60.134 16.132c14 3.734 27.198 1.868 39.732-5.333 12.666-7.198 20.8-17.864 24.666-31.733l16.134-60c3.333-12.934 2.268-25.065-3.599-36.8-.535-1.2-1.068-2.265-1.735-3.2zm2-70.8c-10-17.333-24.666-28.666-44.265-33.866-19.467-5.199-37.868-2.8-55.333 7.2C89.39 20 78.058 34.802 72.857 54.269c-.799 3.065-1.466 6-2 8.932 10.401-5.333 20.534-7.732 30.534-7.333 3.734-9.066 10.132-16.134 18.932-21.334 10.802-6.133 22.268-7.732 34.402-4.533 12.132 3.333 21.333 10.268 27.465 21.067 5.068 8.8 6.935 18 5.868 27.734 8.265 4.532 15.867 12.134 22.667 22.4 1.2-2.933 2.265-5.868 3.2-9.066 4.932-19.468 2.533-38.135-7.602-55.602" fill="#ee2f3b"/><path d="M97.791 144.134h45.866c-.667-7.598-2.667-13.333-6.266-17.067-3.868-3.999-9.466-5.999-16.666-5.999-6.535 0-12 2-16.134 5.999-4.268 4.135-6.533 9.734-6.8 17.067m54 33.2h22.532c-3.333 11.869-9.598 20.934-18.932 27.202-9.333 6.53-20.933 9.732-35.068 9.732-17.065 0-30.398-5.201-40-15.732-9.598-10.268-14.398-24.803-14.398-43.868 0-18.132 4.666-32.266 14-42.532 9.598-10.534 22.932-15.735 40-15.735 18 0 32 5.068 41.866 15.333 9.6 10.535 14.4 25.067 14.4 43.867v4.667c0 1.465-.133 2.4-.4 2.935H97.925c.265 8.798 2.533 15.333 6.8 19.598 3.866 4.533 9.733 6.8 17.598 6.8 5.068 0 9.468-.933 13.068-2.933.932-.268 1.734-.799 2.534-1.465.8-.667 1.598-1.47 2.533-2.402.267-.8 1.467-2 3.333-3.333 1.6-1.334 4.4-2.134 8-2.134" fill="#fff"/></svg>