<svg xmlns="http://www.w3.org/2000/svg" viewBox="0 0 1024 1024">
   <circle cx="512" cy="512" r="512" style="fill:#f34"/>
   <path d="M267 451.92c-.52-22.65-28-28.12-31.37-29-3.62-.92-3.24-4.88-3.24-4.88h85.08a1.69 1.69 0 0 1 1.3.61 1.73 1.73 0 0 1 .38 1.4l-29.62 181.87a1.71 1.71 0 0 1-1.58 1.45l-44.17 2.56h-.1a1.69 1.69 0 0 1-1.27-.57 1.75 1.75 0 0 1-.41-1.44Zm225.52-33a1.73 1.73 0 0 1 .05 1.67l-87.62 171.6a1.66 1.66 0 0 1-1.39.91l-50.37 2.9h-.09a1.68 1.68 0 0 1-1.64-1.39l-32.31-174.52a1.73 1.73 0 0 1 .36-1.4 1.65 1.65 0 0 1 1.28-.62h43.63a1.68 1.68 0 0 1 1.64 1.4l20.36 116.08L446.23 419a1.67 1.67 0 0 1 1.48-.91H491a1.67 1.67 0 0 1 1.47.8Zm135 36.84a69.67 69.67 0 0 1-.83 18.19L622.81 496c-2.39 13.65-6.86 24.4-13.27 31.95s-13.05 13-19.92 16.46a66.4 66.4 0 0 1-25.86 6.87h-40.51l-5 31a1.65 1.65 0 0 1-1.51 1.4l-41.62 2.44h-.09a1.6 1.6 0 0 1-1.21-.56 1.71 1.71 0 0 1-.39-1.39l26.73-164.74a1.64 1.64 0 0 1 1.61-1.4h82.79c9.35.58 17.54 2.9 24.42 6.92a43.41 43.41 0 0 1 8.22 6.69 35.3 35.3 0 0 1 6.7 10.11 45.78 45.78 0 0 1 3.55 13.97Zm-48 39.37 3.48-21.49a16.62 16.62 0 0 0-.74-6.41 11.77 11.77 0 0 0-3.08-4.35c-1.31-1.2-3.51-1.81-6.52-1.81h-35.29L530 508h34.73a13.15 13.15 0 0 0 7.39-1.82 16.82 16.82 0 0 0 4.58-4.44 17 17 0 0 0 2.75-6.65Zm210.57-77a1.61 1.61 0 0 1 1.26.62 1.83 1.83 0 0 1 .37 1.43l-24.25 156.17a1.69 1.69 0 0 1-1.53 1.47l-57.1 3.49a1.67 1.67 0 0 1-1.65-1.17l-22.69-67.51-10.74 69.44a1.69 1.69 0 0 1-1.53 1.47l-42.85 2.61a1.6 1.6 0 0 1-1.23-.59 1.84 1.84 0 0 1-.4-1.47l25.7-164.56a1.69 1.69 0 0 1 1.63-1.47h42.11a1.66 1.66 0 0 1 1.55 1.16l32.53 96.39 15-96.08a1.69 1.69 0 0 1 1.63-1.47Z" style="fill:#fff"/>
</svg>
