<?xml version="1.0" standalone="no"?><!DOCTYPE svg PUBLIC "-//W3C//DTD SVG 1.1//EN" "http://www.w3.org/Graphics/SVG/1.1/DTD/svg11.dtd"><svg t="1727341297099" class="icon" viewBox="0 0 1289 1024" version="1.1" xmlns="http://www.w3.org/2000/svg" p-id="3181" data-darkreader-inline-fill="" xmlns:xlink="http://www.w3.org/1999/xlink" width="251.7578125" height="200"><path d="M236.778157 919.328328c-31.803413-8.038225-39.317406-10.659386-57.840273-19.571331-28.65802-13.804778-47.180887-27.260068-74.266212-53.995905-41.414334-41.064846-71.470307-107.467577-71.470307-158.492833 0-12.406826 0.174744-12.756314 4.368601-12.756314 4.368601 0 4.368601 0.174744 4.368601 14.503755 0 26.211604 4.543345 45.433447 17.998634 75.489419 24.28942 54.520137 69.722867 101.701024 122.670308 127.56314 21.144027 10.309898 47.180887 19.047099 67.800682 22.716724 14.32901 2.62116 16.950171 3.494881 16.950171 6.290785 0 4.543345-6.989761 4.193857-30.580205-1.74744zM477.051195 921.949488c0-1.397952 2.795904-5.242321 6.290785-8.737201 6.116041-6.116041 6.116041-6.116041 3.320136-11.70785-1.572696-2.970648-5.242321-6.290785-8.038225-7.339249-5.766553-2.271672-6.989761-8.212969-1.74744-8.21297 6.989761 0 12.232082 3.494881 16.775426 11.183618 5.242321 9.086689 4.892833 12.406826-2.970648 21.318772-5.417065 6.116041-13.630034 8.212969-13.630034 3.49488z" fill="#E7B15B" p-id="3182" data-darkreader-inline-fill="" style="--darkreader-inline-fill: #8f6015;"></path><path d="M257.048464 890.320819c-30.929693-4.892833-54.869625-13.105802-81.954949-28.133788-21.318771-11.882594-52.772696-38.443686-52.772696-44.559727 0-2.096928-1.223208-3.320137-3.145392-3.320137-3.145392 0-5.417065-2.795904-16.775427-19.571331-2.795904-4.193857-7.164505-10.659386-9.785666-14.503754-4.543345-6.465529-7.339249-12.406826-14.503754-29.706485-2.795904-6.815017-7.164505-22.54198-11.882594-43.686007-1.74744-6.989761-2.446416-21.843003-2.446416-45.433447 0.174744-33.550853 0.349488-35.822526 5.766553-56.267576 2.970648-11.533106 7.164505-25.337884 9.086689-30.580205 5.766553-14.32901 18.872355-37.569966 29.531741-52.07372 11.008874-14.853242 37.045734-40.890102 44.384983-44.210239 2.62116-1.048464 4.718089-2.62116 4.718089-3.145393 0-4.368601 60.985666-34.774061 69.373378-34.774061 1.572696 0 2.271672 1.397952 1.922185 3.844368-0.349488 2.970648-3.669625 4.892833-14.503755 9.261434-40.540614 15.726962-73.217747 40.191126-98.031399 73.392491-40.540614 54.170648-53.995904 114.806826-41.064846 184.180205 2.271672 11.882594 11.70785 40.715358 16.251194 49.802048 15.377474 30.230717 39.49215 58.364505 69.548123 81.430717 4.368601 3.320137 8.212969 6.465529 8.737201 7.164505 2.795904 3.669625 38.793174 20.095563 55.044369 24.988396 29.881229 9.086689 34.774061 9.96041 64.305802 11.008873 25.16314 1.048464 27.434812 1.397952 27.434812 4.193857 0 3.145392-1.74744 3.320137-22.192491 3.145392-12.406826-0.174744-29.007509-1.223208-37.045734-2.446416zM332.013652 889.447099c0-3.320137 1.223208-3.494881 33.201365-3.494881s33.201365 0.174744 33.201365 3.494881-1.223208 3.494881-33.201365 3.494881-33.201365-0.174744-33.201365-3.494881zM447.34471 889.447099c0-3.145392 1.223208-3.494881 11.358362-3.494881s11.358362 0.349488 11.358361 3.494881-1.223208 3.494881-11.358361 3.494881-11.358362-0.349488-11.358362-3.494881zM495.049829 852.925597c-26.561092-13.280546-52.248464-47.705119-57.490785-76.712628-5.766553-31.453925-6.290785-41.589078-5.417064-85.799317 1.223208-67.276451 8.387713-106.943345 32.152901-176.666212 35.473038-105.02116 75.139932-172.996587 130.883276-225.070307 17.299659-16.251195 50.850512-39.841638 68.674403-48.229351 10.309898-4.892833 13.105802-5.417065 28.133788-5.417065s17.649147 0.524232 27.959044 5.417065c18.348123 8.911945 34.424573 21.493515 67.625939 52.772696 56.267577 53.471672 86.847782 87.372014 128.262116 142.76587 5.766553 7.688737 12.58157 16.600683 15.20273 19.920819 10.659386 13.45529 51.724232 74.6157 65.529011 97.332423 5.242321 8.737201 6.465529 12.406826 6.465529 19.746076v9.086689l-6.290785-0.524232c-4.193857-0.349488-7.164505-1.74744-8.387714-4.019113-1.048464-1.922184-4.193857-6.989761-7.164505-11.358362-2.795904-4.368601-6.640273-10.309898-8.212969-13.45529-4.543345-8.212969-23.066212-34.075085-27.260068-37.74471-3.494881-3.145392-3.494881-3.145392-4.543345 0.174744-0.698976 1.922184-4.368601 4.892833-8.562457 6.46553-4.019113 1.572696-9.610922 5.067577-12.58157 7.863481-6.815017 6.290785-11.70785 8.737201-17.823891 8.737201-5.242321 0-20.270307 9.610922-25.337884 16.076451-1.572696 2.096928-5.766553 4.718089-9.436177 5.766553-4.892833 1.397952-8.562457 4.368601-14.678499 12.057337-4.368601 5.766553-9.086689 10.83413-10.484641 11.183618-1.397952 0.524232-5.941297 3.145392-9.96041 5.766553-4.543345 3.145392-9.610922 5.067577-13.280546 5.067577-4.718089 0-8.562457 1.922184-15.901707 8.038225-5.417065 4.368601-9.785666 8.911945-9.785665 10.135154 0 2.446416-11.70785 8.038225-16.775427 8.038225-4.892833 0-13.280546 5.417065-24.464163 15.901706-9.261433 8.562457-12.057338 10.309898-17.299659 10.309898-6.815017 0-14.154266 4.543345-22.367236 13.630034-3.145392 3.320137-6.815017 5.591809-9.261433 5.591809-2.795904 0-7.339249 3.145392-13.45529 9.436178-4.892833 5.067577-11.882594 10.309898-15.202731 11.358361s-8.911945 4.892833-12.58157 8.387714c-5.591809 5.417065-7.164505 6.116041-13.105802 5.417064-5.941297-0.87372-7.339249-0.174744-13.105802 6.116041-3.669625 4.019113-6.640273 8.911945-6.640273 11.008874 0 4.019113-2.970648 5.941297-8.911945 5.941297-1.922184 0-7.164505 1.922184-11.70785 4.543345-19.920819 10.659386-28.308532 16.950171-28.308532 20.969283s-8.212969 8.038225-15.377475 7.513993-11.882594 2.795904-18.522867 12.58157c-1.572696 2.62116-5.941297 5.417065-9.785665 6.640273-4.892833 1.397952-9.436177 5.067577-15.901707 12.58157-5.067577 5.591809-11.008874 10.83413-13.280546 11.358362-2.271672 0.698976-4.019113 2.096928-4.019112 3.320136 0 3.494881-11.882594 13.105802-16.076451 13.105803-3.494881 0-3.145392 0.698976 2.970649 6.989761 3.844369 3.844369 10.135154 8.562457 13.979522 10.484641 9.96041 4.718089 14.853242 10.83413 14.853242 18.348123 0 6.116041 0 6.116041-7.339249 5.941297-4.368601-0.174744-11.358362-2.096928-16.600683-4.892833z" fill="#E7B15B" p-id="3183" data-darkreader-inline-fill="" style="--darkreader-inline-fill: #8f6015;"></path><path d="M33.201365 629.60273c0-9.261433 5.941297-37.919454 10.135154-49.452559 7.863481-20.969283 11.183618-28.483276 19.221843-43.161775 9.785666-17.649147 18.348123-30.405461 22.192491-33.725597 1.397952-1.223208 2.62116-3.145392 2.621161-4.193857 0-3.320137 35.99727-37.74471 50.675768-48.57884 12.58157-9.261433 43.336519-27.609556 46.481911-27.609556 4.193857-0.174744 6.116041-3.844369 7.863481-14.154266 4.019113-25.862116 17.474403-59.063481 33.026621-81.954949 8.737201-12.756314 30.230717-34.774061 43.686007-44.734471 30.230717-22.192491 69.198635-36.521502 102.225256-37.569966 14.32901-0.524232 15.901706-1.74744 23.4157-17.998635 11.183618-24.114676 29.356997-49.103072 51.2-70.247099 14.678498-14.32901 34.424573-30.405461 37.220477-30.40546 0.87372 0 3.145392-1.572696 5.242321-3.494881 5.417065-5.067577 36.346758-19.920819 54.170649-25.862116 29.881229-10.135154 49.277816-13.979522 70.421843-14.154266 11.533106-0.174744 12.58157 0.174744 12.58157 3.320136s-1.223208 3.494881-14.32901 3.494881c-8.038225 0-17.299659 0.87372-20.619796 1.74744s-13.630034 3.494881-22.891467 5.766553c-26.211604 6.815017-62.733106 22.891468-79.333789 34.948806-14.503754 10.659386-30.405461 24.114676-40.191126 34.424573-18.173379 19.047099-20.794539 21.843003-23.590444 26.735836-1.397952 2.446416-5.417065 8.212969-8.737201 12.931058-3.320137 4.543345-9.96041 16.251195-14.853242 25.862116l-8.737202 17.474403-7.863481 0.524232c-38.61843 2.096928-80.032765 16.600683-107.991809 37.919454-6.989761 5.242321-14.32901 9.610922-16.251194 9.610921-1.74744 0-3.320137 1.223208-3.320137 2.795905 0 1.397952-4.892833 8.212969-10.659386 15.20273-23.4157 27.085324-38.268942 56.092833-44.559726 87.19727-2.271672 11.533106-5.242321 22.017747-6.640274 23.4157-1.397952 1.223208-9.610922 6.116041-18.522866 10.659385-19.396587 10.135154-44.909215 29.007509-62.383618 46.132423-37.220478 36.521502-65.878498 90.866894-70.771331 133.504437-2.271672 19.920819-2.271672 20.095563-6.640273 20.095563-2.795904 0-3.494881-1.048464-3.494881-6.465529z" fill="#E7B15B" p-id="3184" data-darkreader-inline-fill="" style="--darkreader-inline-fill: #8f6015;"></path><path d="M223.672355 422.356314c0-12.58157 4.543345-31.978157 11.533106-49.627304 4.543345-11.533106 12.406826-25.337884 15.20273-26.386348 0.698976-0.349488 1.223208-1.572696 1.223208-2.62116 0-2.446416 25.687372-30.929693 27.959045-30.929693 0.698976 0 3.844369-2.271672 6.989761-5.242321 3.145392-2.795904 6.640273-5.242321 8.038225-5.242321s2.446416-0.698976 2.446416-1.572696c0-4.892833 48.404096-22.891468 61.859386-22.891468 10.83413 0 7.688737 4.543345-5.417065 7.863482-25.16314 6.290785-45.782935 15.726962-62.034129 28.308532-9.785666 7.513993-34.948805 33.725597-36.172014 37.74471-0.349488 1.223208-2.795904 5.766553-5.591809 10.135154-6.290785 9.96041-16.425939 39.666894-17.998635 52.423208-2.096928 15.726962-2.970648 19.047099-5.591809 19.047099-1.922184 0-2.446416-2.62116-2.446416-11.008874zM400.163823 283.085324c-2.446416-0.698976-10.484642-1.048464-17.823891-0.524232-12.931058 1.048464-13.630034 0.87372-13.630034-2.62116 0-3.145392 1.397952-3.669625 12.756314-4.718089 7.164505-0.698976 15.901706-0.349488 20.445051 0.698976 12.58157 2.970648 12.756314 2.795904 17.299659-9.785665 10.135154-28.133788 25.862116-55.044369 43.511262-74.091468 7.164505-7.513993 14.154266-13.804778 15.726963-13.804778 1.74744 0 3.844369-1.74744 4.718088-3.844369 1.048464-2.096928 3.320137-4.543345 5.242321-5.591809s4.193857-2.970648 4.892833-4.019112c0.698976-1.223208 2.446416-2.271672 3.669625-2.271673 1.397952 0 2.795904-1.048464 3.320136-2.271672 0.349488-1.223208 3.844369-3.669625 7.513993-5.591809 3.844369-1.922184 7.164505-4.019113 7.688738-4.543345 1.922184-2.446416 21.144027-11.183618 34.599317-15.726962 8.038225-2.795904 22.891468-6.640273 33.026621-8.737201 16.251195-3.320137 22.017747-3.669625 49.277816-2.795905 26.735836 0.87372 33.026621 1.572696 49.103071 6.116041 18.872355 5.067577 43.860751 14.853242 47.70512 18.522867 1.223208 1.048464 5.067577 2.970648 8.737201 4.193857 11.882594 4.193857 22.891468-4.193857 20.969284-16.076451-0.524232-3.494881-1.74744-6.290785-2.621161-6.290785s-4.543345-2.446416-8.212969-5.242321c-9.261433-7.513993-38.268942-19.920819-61.684642-26.211604-30.580205-8.562457-31.279181-8.737201-42.812286-8.737201-10.135154 0-11.008874-0.349488-11.008874-3.669625 0-3.669625 0.349488-3.844369 16.425938-2.62116 17.124915 1.223208 20.794539 2.096928 56.966553 13.45529 30.580205 9.785666 46.132423 17.823891 54.520137 28.308532 8.911945 11.358362 9.261433 20.095563 1.048464 27.784301-10.83413 9.96041-17.998635 10.309898-35.822526 1.572696-17.299659-8.562457-30.405461-13.630034-48.578839-18.697611-16.425939-4.718089-19.571331-5.067577-51.549488-5.067577-36.521502 0-42.113311 0.87372-69.023891 9.96041-31.279181 10.83413-53.995904 24.988396-79.683276 50.32628-23.590444 23.240956-42.812287 53.82116-52.947441 85.275085l-3.145392 9.08669-8.038226-0.174745c-4.543345-0.174744-10.135154-0.87372-12.581569-1.572696z" fill="#E7B15B" p-id="3185" data-darkreader-inline-fill="" style="--darkreader-inline-fill: #8f6015;"></path><path d="M740.040956 942.394539c-43.336519-2.62116-78.9843-7.339249-114.457338-15.20273-38.443686-8.212969-94.886007-28.832765-110.962458-40.540614-2.795904-1.922184-9.086689-5.766553-13.979522-8.21297-11.183618-5.591809-38.793174-31.628669-48.753583-45.608191-10.135154-14.154266-18.872355-31.803413-24.638908-49.976792-4.718089-14.678498-4.892833-15.726962-5.591809-70.421843-0.698976-38.268942-0.349488-57.840273 1.048464-63.432082 1.048464-4.193857 3.494881-16.950171 5.417065-28.308532 5.766553-32.851877 17.998635-79.508532 29.007508-109.564505 18.872355-51.2 38.793174-94.886007 57.665529-126.864164 33.900341-57.316041 71.120819-98.730375 116.030035-129.135836 23.590444-15.901706 26.561092-19.047099 29.356996-30.580205 3.669625-14.503754 12.931058-26.03686 25.337884-32.152901 25.512628-12.057338 62.733106-22.716724 83.352901-23.939932 15.377474-0.87372 45.258703-0.698976 60.461434 0.174744 50.501024 3.320137 113.23413 23.240956 158.318088 50.151536 23.066212 13.804778 21.843003 12.931058 62.558362 44.035495 8.562457 6.465529 11.358362 5.417065 27.085324-9.785665 27.609556-26.386348 75.838908-48.753584 106.069625-48.928328 21.318771 0 30.580205 3.145392 42.462799 14.853242 21.318771 21.144027 34.075085 48.753584 34.075085 73.916724 0 10.659386-0.524232 12.756314-4.019113 16.07645-5.242321 4.892833-9.436177 4.892833-29.53174-0.349488-30.580205-8.038225-51.724232-7.513993-69.722867 1.572696-11.358362 5.591809-30.580205 20.095563-33.201365 24.813652-2.446416 4.368601-1.922184 5.417065 14.678498 32.502389 6.465529 10.309898 11.70785 19.221843 11.70785 19.571331s2.271672 4.543345 4.892832 9.08669c10.83413 18.522867 26.211604 57.840273 33.550854 85.449829 13.804778 52.94744 15.901706 113.583618 5.941297 170.200683-6.989761 39.142662-23.590444 87.372014-41.589079 120.573379-10.309898 19.221843-15.901706 25.687372-28.483276 31.803413-11.008874 5.417065-11.183618 5.417065-25.16314 3.49488-17.299659-2.446416-19.396587-1.572696-34.599318 14.678498-44.210239 47.180887-88.245734 73.217747-170.025938 100.303072-31.978157 10.659386-39.317406 12.58157-64.65529 15.726963-26.386348 3.494881-69.023891 5.417065-89.643686 4.019112z m59.412969-10.135153c12.58157-1.048464 36.172014-4.543345 53.296928-8.038226 10.309898-2.096928 71.120819-21.668259 74.091468-24.114675 1.048464-0.698976 5.941297-2.795904 10.659385-4.543345 14.678498-5.417065 43.161775-19.571331 54.869625-27.434812 6.116041-4.193857 13.630034-9.086689 16.775427-11.008874 10.135154-6.290785 25.862116-20.445051 45.782935-40.715358l19.571331-20.095564 18.697611 1.048465c17.124915 1.048464 19.396587 0.87372 26.386348-2.621161 9.96041-4.892833 16.076451-12.756314 26.91058-34.075085 26.91058-52.94744 45.258703-125.291468 45.258703-178.76314 0-30.754949-5.941297-74.965188-13.45529-101.002048-3.844369-13.804778-4.019113-10.309898-0.349488 7.513993 5.067577 23.939932 7.863481 86.498294 5.242321 116.729011-3.145392 35.99727-13.45529 80.731741-23.590444 102.574744-2.446416 5.242321-4.543345 10.484642-4.543345 11.707849 0 3.320137-14.154266 33.725597-21.843003 46.656656-3.844369 6.465529-8.911945 13.280546-11.358362 15.027986-8.911945 6.290785-30.230717 9.261433-34.599317 4.892833-2.446416-2.446416-2.795904-19.920819-0.349488-21.493516 2.096928-1.397952 2.271672-32.152901 0.174744-41.938566-4.718089-21.843003-12.057338-41.763823-30.055973-81.081229-10.309898-22.54198-40.715358-75.139932-47.006143-81.081228l-3.844369-3.844369 3.844369 7.863481c2.096928 4.368601 5.591809 10.309898 7.688737 13.105802 5.417065 7.339249 35.123549 63.082594 39.666894 74.440956 19.571331 48.928328 23.765188 67.625939 21.843004 97.507167-1.048464 19.396587-4.543345 29.531741-13.979523 42.113311-6.989761 9.261433-40.191126 42.462799-50.501023 50.501024-14.32901 10.83413-53.995904 33.550853-68.150171 38.967918-5.067577 1.922184-11.882594 4.892833-15.377474 6.640273s-12.232082 4.892833-19.221844 6.989761c-7.164505 2.096928-18.522867 5.591809-25.337883 7.863481-18.173379 5.941297-67.800683 14.503754-95.934471 16.600683-90.69215 6.640273-168.977474-4.019113-248.486007-34.075086-20.270307-7.688737-22.716724-6.465529-4.019113 2.096929 28.65802 12.931058 44.734471 18.348123 89.119454 30.230716 17.299659 4.718089 67.625939 11.882594 96.109215 13.979523 45.782935 3.320137 46.831399 3.320137 76.013652 0.87372z m-284.832765-59.587714c-5.417065-4.193857-17.124915-9.96041-15.726962-7.863481 1.048464 1.74744 16.251195 10.484642 18.348123 10.484642 0.524232 0-0.698976-1.223208-2.621161-2.621161z m-0.87372-20.794539c0-2.446416-8.562457-10.135154-13.630034-12.232082-11.533106-4.892833-38.793174-36.172014-38.793174-44.559727 0-1.397952 1.223208-0.524232 2.970649 1.747441 6.116041 9.261433 11.70785 13.979522 16.600682 13.979522 5.067577 0 17.124915-9.086689 17.124915-13.105802 0-1.223208 1.74744-2.62116 4.019112-3.320137 2.271672-0.524232 8.212969-5.766553 13.280547-11.358362 6.465529-7.513993 11.008874-11.183618 15.901706-12.58157 3.844369-1.223208 8.212969-4.019113 9.610922-6.116041 8.911945-13.630034 18.173379-19.396587 23.066211-14.503754 2.446416 2.446416 11.008874-2.271672 11.008874-6.116041 0-4.019113 8.387713-10.309898 28.133788-20.969283 6.815017-3.669625 12.057338-5.417065 19.571331-6.116041 0.698976-0.174744 1.223208-1.922184 1.223208-4.193857 0-6.116041 13.804778-20.445051 19.571332-20.445051 2.62116 0 5.242321 0.87372 5.941296 1.922184 0.698976 1.223208 3.494881-0.524232 7.513994-4.3686 3.494881-3.320137 9.086689-7.164505 12.406826-8.21297s10.309898-6.290785 15.20273-11.358361c6.116041-6.290785 10.659386-9.436177 13.45529-9.436178 2.446416 0 6.116041-2.271672 9.261433-5.591809 8.212969-9.261433 18.522867-15.726962 23.939932-14.678498 4.019113 0.698976 6.640273-0.87372 15.901707-9.436177 11.008874-10.309898 19.396587-15.726962 24.28942-15.726963 5.067577 0 16.775427-5.591809 16.775426-8.038225 0-1.223208 4.368601-5.766553 9.785666-10.135154 7.339249-6.116041 11.183618-8.038225 15.901706-8.038225 3.669625 0 8.737201-1.922184 13.280546-5.067577 4.019113-2.62116 8.562457-5.242321 9.96041-5.766553 1.397952-0.349488 6.116041-5.417065 10.484641-11.183617 6.116041-7.688737 9.785666-10.659386 14.678499-12.057338 3.669625-1.048464 7.863481-3.669625 9.436177-5.766553 5.067577-6.465529 20.095563-16.076451 25.337884-16.076451 6.290785 0 10.659386-2.271672 20.270307-10.659385 4.019113-3.669625 8.038225-6.640273 8.737202-6.465529 3.145392 0.87372 8.562457-2.62116 10.309897-6.640273 2.970648-6.290785 2.62116-10.135154-1.397952-13.804779-1.922184-1.74744-3.494881-4.193857-3.49488-5.591808 0-1.223208-1.397952-4.543345-2.970649-7.164506l-2.970648-4.718088 4.718088 4.193856c2.62116 2.446416 4.718089 5.067577 4.718089 6.116041s5.067577 8.038225 11.358362 15.377475c12.58157 15.027986 27.260068 35.123549 31.978157 43.860751 1.572696 2.970648 5.591809 9.261433 8.737201 13.804778 2.970648 4.543345 5.591809 8.911945 5.591809 9.785665s1.223208 2.62116 2.62116 3.844369c5.067577 4.193857 2.970648-5.242321-3.844368-16.425939-13.804778-22.716724-54.869625-83.877133-65.52901-97.332423-2.62116-3.320137-9.436177-12.232082-15.202731-19.920819-41.414334-55.393857-71.994539-89.294198-128.262116-142.76587-46.831399-44.210239-68.150171-58.015017-90.342662-58.015017-14.503754 0-26.561092 5.417065-55.219113 24.813651-72.693515 49.103072-124.592491 127.737884-167.230034 253.728328-22.891468 67.276451-30.754949 109.389761-32.152901 171.423891-0.87372 38.793174-0.174744 49.45256 5.417065 80.556996 5.242321 29.007509 30.929693 63.432082 57.490785 76.712628 8.737201 4.543345 13.45529 5.941297 13.45529 4.193857z m490.331741-300.909215c-1.397952-2.795904-3.844369-6.465529-5.417065-8.387713-2.795904-3.320137-2.970648-3.320137-0.524232 0.87372 1.397952 2.446416 3.494881 6.116041 4.718089 8.387713 1.048464 2.096928 2.446416 3.844369 2.970648 3.844369 0.349488 0-0.349488-2.096928-1.74744-4.718089z m-35.99727-54.69488c-2.096928-2.795904-4.193857-5.242321-4.543344-5.242321-0.524232 0 0.698976 2.446416 2.795904 5.242321 2.096928 2.970648 4.193857 5.242321 4.543345 5.24232 0.524232 0-0.698976-2.271672-2.795905-5.24232z m145.911263-167.055291c1.397952-6.116041 29.881229-26.735836 43.686007-31.628669 13.45529-4.718089 52.597952-4.193857 72.868259 1.048465 8.562457 2.096928 16.076451 3.320137 17.124915 2.795904 2.096928-1.223208 2.271672-20.619795 0.349488-27.085324-0.87372-3.145392-1.397952-0.698976-2.096928 8.737201-0.87372 12.756314-1.048464 13.105802-5.766553 13.630034-2.795904 0.349488-12.931058-1.572696-22.716724-4.193856-14.678498-4.019113-21.493515-4.892833-38.094198-5.067577-17.124915 0-20.969283 0.524232-23.765187 3.145392-1.922184 1.572696-4.543345 2.970648-5.941297 2.970649s-11.008874 6.465529-21.493516 14.503754c-10.484642 7.863481-20.445051 15.027986-22.017747 15.901707-2.795904 1.572696-2.62116 2.271672 1.572696 8.212969 3.145392 4.543345 4.718089 5.591809 5.067577 3.49488 0.174744-1.572696 0.87372-4.543345 1.223208-6.465529z" fill="#99632B" p-id="3186" data-darkreader-inline-fill="" style="--darkreader-inline-fill: #7a4f22;"></path><path d="M244.641638 920.202048c-72.868259-15.027986-133.679181-56.617065-171.948123-117.253243-23.4157-37.220478-35.647782-73.217747-36.172013-105.720136 0-8.038225-0.524232-10.309898-1.572697-7.863481-0.87372 2.096928-1.572696-8.212969-1.572696-26.735836-0.174744-16.600683 0.524232-31.453925 1.397952-33.201366 0.87372-1.572696 2.446416-9.96041 3.320137-18.697611 4.718089-42.462799 33.550853-96.808191 70.771331-133.504436 17.823891-17.474403 43.336519-36.346758 63.432082-46.656656 9.261433-4.718089 17.474403-9.436177 18.348123-10.484641 0.698976-1.048464 3.494881-11.358362 5.766553-22.891468 11.70785-57.665529 54.869625-111.137201 108.690785-134.727645 25.862116-11.358362 41.23959-15.377474 67.451194-17.474403l14.503754-1.223208 8.737202-17.474403c4.892833-9.610922 11.533106-21.318771 14.853242-26.03686s8.387713-11.70785 11.183618-15.726962c7.164505-10.135154 33.201365-36.696246 45.608191-46.307167 20.969283-16.251195 41.23959-27.7843 66.227986-37.74471 10.659386-4.193857 21.668259-7.339249 52.597953-15.027987 9.261433-2.446416 69.722867-2.446416 78.634812-0.174744 47.180887 12.232082 77.062116 23.765188 89.81843 34.774062 13.804778 11.70785 15.20273 24.464164 3.844369 33.725597-8.911945 7.513993-17.474403 7.164505-34.774062-1.397952-33.201365-16.425939-58.189761-23.066212-92.264846-24.28942-20.794539-0.87372-27.434812-0.349488-43.161775 2.795904-49.103072 10.135154-81.954949 27.959044-117.427986 63.956314-20.619795 20.794539-38.443686 51.025256-47.530376 79.858021-3.494881 11.358362-2.970648 11.008874-20.619795 7.688737-15.901706-3.145392-36.87099-1.048464-62.03413 6.290785-28.65802 8.212969-44.909215 17.998635-66.752218 40.016382-27.7843 27.959044-42.637543 60.461433-44.909215 98.380888l-1.048464 19.047099-22.716724 9.960409c-24.638908 10.659386-27.085324 12.057338-45.433447 25.512628-26.211604 19.396587-48.404096 44.909215-64.131058 74.091468-10.659386 19.396587-14.32901 29.007509-20.969283 54.69488-5.067577 19.746075-5.591809 23.4157-5.591809 51.025256-0.174744 19.221843 0.698976 33.376109 2.271672 40.191127 4.718089 21.144027 9.086689 36.87099 11.882594 43.686006 7.513993 18.173379 9.96041 23.066212 13.630034 27.959045 2.096928 2.970648 5.067577 7.688737 6.640273 10.659385 6.465529 12.58157 30.929693 39.49215 49.277816 54.345393 21.668259 17.474403 56.442321 34.948805 82.129693 41.414334 28.308532 7.164505 41.589078 7.863481 144.163822 7.164506 107.991809-0.698976 107.467577-0.698976 112.535154 9.436177 4.543345 8.737201 3.669625 15.377474-3.145393 22.192492l-5.941297 5.941296-109.913993-0.174744c-105.370648-0.349488-110.438225-0.349488-128.087372-4.019112z" fill="#99632B" p-id="3187" data-darkreader-inline-fill="" style="--darkreader-inline-fill: #7a4f22;"></path><path d="M753.146758 939.074403c-58.189761-3.669625-106.069625-9.785666-131.058021-16.425939-45.957679-12.232082-66.926962-19.396587-90.342662-31.104437-43.161775-21.493515-62.733106-37.74471-83.003413-68.499658-10.659386-16.425939-18.173379-33.725597-20.619795-47.70512-0.87372-4.892833-2.446416-13.979522-3.494881-19.746075-1.048464-5.941297-1.922184-29.182253-1.74744-51.724232 0-48.054608 3.844369-77.935836 15.726963-124.592491 12.931058-49.976792 20.794539-72.868259 43.161774-125.640956 38.094198-89.81843 89.119454-156.920137 150.454608-197.635495 12.931058-8.562457 24.464164-17.124915 25.862116-19.047099 1.223208-2.096928 3.844369-8.911945 5.766553-15.20273 5.941297-18.872355 11.882594-24.28942 37.569966-33.725598 11.882594-4.368601 31.453925-10.309898 43.336518-13.105802 20.969283-5.242321 22.54198-5.242321 58.189761-4.892832 46.656655 0.698976 64.131058 3.494881 107.467577 16.775426 25.862116 7.863481 57.316041 21.843003 78.285324 34.424574 18.522867 11.183618 45.258703 29.881229 53.646417 37.569965 7.863481 7.164505 13.280546 10.309898 17.474403 10.309898 1.572696 0 8.562457-5.417065 15.726962-12.232082 14.678498-13.979522 30.580205-24.638908 51.549488-34.599317 27.434812-13.105802 35.123549-15.20273 58.539249-15.202731 24.464164 0 27.7843 1.397952 42.637543 17.649147 16.600683 18.173379 25.337884 38.268942 27.085324 62.90785 0.87372 12.406826 0.698976 14.853242-2.271672 18.348123l-3.320137 4.019112-20.445051-5.067576c-35.99727-8.911945-63.606826-6.989761-82.129693 5.766553-15.552218 10.659386-27.085324 20.095563-27.959044 23.066211-1.223208 3.844369 2.970648 14.32901 8.562457 21.66826 2.271672 2.970648 7.513993 11.358362 11.882594 18.522866 58.888737 99.079863 73.043003 213.362457 39.666894 321.529011-9.436177 30.230717-16.775427 49.103072-27.609556 70.421843s-16.950171 29.182253-26.735836 33.900341c-8.737201 4.368601-16.425939 5.067577-33.376109 3.145392l-12.057338-1.397952-19.396587 20.095563c-19.920819 20.270307-35.647782 34.424573-45.782936 40.715359-3.145392 1.922184-10.659386 6.815017-16.775426 11.008873-11.70785 7.863481-40.191126 22.017747-54.869625 27.434813-4.718089 1.74744-9.610922 3.844369-10.484641 4.543344-2.096928 1.572696-55.918089 19.746075-67.276451 22.54198-7.339249 1.922184-24.638908 4.892833-50.675768 8.562457-13.804778 1.922184-47.879863 3.494881-61.160409 2.621161z m32.327645-25.16314c28.133788-2.096928 77.761092-10.659386 95.934471-16.600683 6.815017-2.271672 18.173379-5.766553 25.337884-7.863481 6.989761-2.096928 15.726962-5.242321 19.221843-6.989761s10.309898-4.718089 15.377474-6.640273c14.154266-5.417065 53.82116-28.133788 68.150171-38.967918 10.309898-8.038225 43.511263-41.23959 50.501024-50.501024 8.038225-10.659386 12.58157-22.891468 13.804778-36.87099 2.096928-23.765188-2.795904-45.083959-21.843004-92.264846-4.543345-11.358362-31.279181-62.208874-39.317406-74.440956-3.145392-4.718089-8.737201-14.154266-12.232082-20.794539-10.659386-19.571331-47.530375-73.916724-70.596587-103.972696-2.446416-3.145392-6.815017-9.086689-9.785665-13.105802-26.561092-37.395222-66.577474-83.003413-114.282594-130.009557-49.45256-49.103072-73.043003-68.324915-92.614335-76.013652-21.493515-8.387713-32.677133-6.465529-60.111945 10.135154-40.890102 24.988396-67.101706 48.404096-96.808191 86.498293-23.240956 30.055973-54.869625 84.401365-65.878498 113.583618-2.271672 6.290785-6.465529 16.076451-8.911946 21.843004-18.522867 41.064846-38.61843 111.311945-45.258703 157.269624-8.038225 56.966553-8.212969 94.187031-0.174744 140.14471 8.038225 46.481911 52.07372 89.468942 115.505802 113.059386 75.838908 27.959044 151.328328 38.443686 233.982253 32.502389z m327.295563-135.776109c3.145392-1.572696 8.038225-6.116041 10.83413-10.135154 7.863481-11.358362 26.211604-49.103072 26.211604-53.995904 0-1.048464 2.096928-6.290785 4.543344-11.533106 9.086689-19.571331 18.697611-58.713993 22.716724-92.614335 2.970648-25.862116 1.922184-77.23686-2.096928-103.098976-5.417065-34.249829-19.396587-76.537884-36.521502-110.962457-14.853242-29.531741-17.299659-33.376109-38.268942-61.16041-8.737201-11.533106-37.395222-44.559727-49.802048-57.316041-20.794539-21.493515-66.577474-53.471672-98.031399-68.324914-23.066212-10.83413-58.713993-22.716724-84.750853-28.308533-36.696246-7.688737-78.809556-8.387713-110.962458-1.74744-25.16314 5.242321-55.568601 13.979522-65.179522 18.697611-13.280546 6.640273-22.192491 17.474403-22.192491 26.91058 0 5.242321-0.349488 5.067577 8.038225 1.572696 19.221843-8.038225 52.94744 3.844369 82.129693 29.007509 4.019113 3.320137 12.232082 10.484642 18.348123 15.726962 55.219113 47.705119 108.166553 104.671672 158.492832 170.375427 30.230717 39.666894 41.938567 56.267577 64.480546 91.391126 5.941297 9.261433 12.58157 19.221843 14.853243 22.017748 8.212969 10.309898 37.569966 61.859386 46.656655 81.60546 17.998635 39.317406 25.337884 59.238225 30.055973 81.081229 2.096928 9.96041 1.922184 51.025256-0.174744 52.423208-2.446416 1.572696-2.096928 8.562457 0.524232 11.183618 2.446416 2.446416 11.358362 1.223208 20.095563-2.795904z m-9.261434-460.275768c2.096928-3.320137 38.443686-29.531741 40.890103-29.531741 1.397952 0 4.019113-1.397952 5.941297-2.970648 2.970648-2.795904 6.989761-3.145392 29.881228-2.970649 22.716724 0.174744 28.483276 0.698976 42.113311 4.718089 8.562457 2.446416 16.251195 4.019113 16.950171 3.49488 4.193857-2.446416-1.397952-32.152901-8.737202-47.355631-5.417065-11.533106-17.649147-25.337884-24.813652-28.308532-8.212969-3.320137-34.599317-1.048464-51.549488 4.3686-14.503754 4.718089-40.890102 17.998635-53.995904 26.91058-11.008874 7.688737-35.99727 32.327645-35.99727 35.822526 0 3.844369 31.628669 37.569966 35.298294 37.74471 1.572696 0 3.494881-0.87372 4.019112-1.922184z" fill="#050506" p-id="3188" data-darkreader-inline-fill="" style="--darkreader-inline-fill: #040405;"></path></svg>