<svg xmlns="http://www.w3.org/2000/svg" viewBox="0 0 41.37 39.85"><path fill="#2e3234" d="M3.97 32.1c.4.02.79.07 1.15.2l.06.03 4.84-4.73.18.24c.25.34.52.65.8.96.35.41.77.8 1.12 1.13a12.87 12.87 0 0 0 14.94 1.27l.37.39c.43.45.88.91 1.3 1.37a15.23 15.23 0 0 1-8.64 2.42 15.22 15.22 0 0 1-9.42-3.56l.02-.03-3.11 3.07a3.87 3.87 0 1 1-3.7-2.76h.1zm29.61-19.97a15.23 15.23 0 0 1-1.6 18l.02.02 1.9 2.03a2.4 2.4 0 0 1 1.99 4.11 2.39 2.39 0 0 1-4-2.2l-3.36-3.56-.2-.2.23-.18a12.82 12.82 0 0 0 4.84-9.76c.07-2.3-.49-4.56-1.6-6.57zM6.6 3.08c.68-.01 1.32.26 1.8.74.52.56.75 1.35.6 2.1l3.67 3.85-.22.18A12.93 12.93 0 0 0 9.19 26.3l-1.76 1.72A15.36 15.36 0 0 1 9 9.96L6.98 7.85A2.4 2.4 0 0 1 5 3.73c.38-.35.86-.58 1.37-.64l.23-.01ZM37.5 0a3.87 3.87 0 1 1-1.21 7.55l-.06-.01-5.26 4.99-.17-.24c-.28-.37-.6-.74-.92-1.08l-.06-.07-.16-.17a12.86 12.86 0 0 0-15.74-2.03l-1.7-1.76A15.23 15.23 0 0 1 30.3 8.34h.03l3.48-3.3A3.87 3.87 0 0 1 37.5 0Z"/><path fill="#047aed" d="M20.62 8.65a11.42 11.42 0 0 1 11.22 12.82 11.42 11.42 0 0 1-12.74 9.9 11.42 11.42 0 0 1-9.91-12.73c.75-5.8 5.62-9.97 11.43-10Zm-.17 4.89a4.69 4.69 0 0 0-4.43 4.66c.04 1.77.8 3.01 2.25 3.99l.35.19-.88 4.14h5.9l-.88-4.14a4.7 4.7 0 0 0 2.59-4.18 4.68 4.68 0 0 0-4.66-4.67zm.08-.02h-.01z"/></svg>
