<svg xmlns="http://www.w3.org/2000/svg" viewBox="0 0 65.721 66.007" width="50.005" height="50.005"><defs><linearGradient id="a" x2="0" y1="64.47" gradientTransform="scale(.97671 1.02384)" x1="0" y2="17.363" gradientUnits="userSpaceOnUse"><stop stop-color="#030303" offset=".24"/><stop stop-color="#3f3f3f" offset="1"/></linearGradient><linearGradient id="b" x2="17.033" y2="42.854" gradientTransform="scale(1.2638 .79126)" x1="17.033" y1="40.774" gradientUnits="userSpaceOnUse"><stop stop-color="#ff7b00" offset="0"/><stop stop-color="#fd3203" offset="1"/></linearGradient><linearGradient id="c" x2="17.22" y1="37.004" gradientTransform="scale(1.13556 .88062)" x1="17.22" y2="31.215" gradientUnits="userSpaceOnUse"><stop stop-color="#ff7b00" offset="0"/><stop stop-color="#fd3203" offset="1"/></linearGradient><linearGradient id="d" x1="37.603" x2="34.09" y2="5.614" gradientTransform="scale(.76641 1.30479)" y1="3.154" gradientUnits="userSpaceOnUse"><stop stop-color="#fa4a06" offset="0"/><stop stop-color="#b21502" offset="1"/></linearGradient><linearGradient id="e" x2="24.262" y2="6.186" gradientTransform="scale(.7663 1.30498)" x1="21.229" y1="3.153" gradientUnits="userSpaceOnUse"><stop stop-color="#fa4a06" offset="0"/><stop stop-color="#b21502" offset="1"/></linearGradient></defs><g fill-rule="evenodd"><path d="M12.16 66.007S0 61.073 0 48.559c0-6.55 2.906-9.567 5.423-14.65 1.505-3.039 2.447-6.815 3.779-9.383 2.567-4.949 4.93-6.749 4.93-6.749s1.787 2.14 8.873 2.14c6.939 0 8.874-2.14 8.874-2.14s2.581 2.546 4.929 6.914c1.262 2.346 1.897 5.656 3.287 8.395 2.922 5.755 5.915 9.907 5.915 15.473 0 11.954-12.159 17.284-12.159 17.284s6.244-2.146 6.244-12.84c0-10.693-6.902-18.765-6.902-18.765s1.48-1.603 1.479-5.103c-.001-3.054-1.123-8.066-5.423-8.066-4.665 0-5.422 6.091-5.422 6.091s-.491-.165-.986-.165c-.398 0-.822.165-.822.165s-.864-6.091-5.422-6.091c-4.559 0-5.423 6.017-5.423 8.231 0 2.214 1.479 4.938 1.479 4.938s-7.066 9.091-7.066 19.259c0 10.169 6.573 12.51 6.573 12.51z" fill="url(#a)" transform="translate(9.856)"/><path d="M41.017 29.464c-.67-.049-.504-.574-1.503-1.144-1.113-.634-1.931-.366-1.671-.816.52-.9 2.25-1.093 2.84-.491.59.602.732 2.481.334 2.451zm-16.701 0c-.391.03-.252-1.863.329-2.469.58-.606 2.283-.412 2.794.494.256.454-.484.32-1.644.823-.961.417-.82 1.102-1.48 1.152z"/><path d="M22.841 32.263c.853 0 1.314.372 1.314.658 0 .286-.699.988-1.314.988-.615 0-1.315-.672-1.315-.988 0-.315.462-.658 1.315-.658z" fill="url(#b)" transform="translate(9.856)"/><path d="M22.841 27.489c1.27 0 3.286 2.256 3.286 4.28 0 1.839-1.487 0-3.286 0-1.616 0-3.287 1.603-3.287 0 0-1.988 2.016-4.28 3.287-4.28z" fill="url(#c)" transform="translate(9.856)"/><path d="M21.852 4.28l2.3 13.168s2.22 1.975 8.545 1.975c6.855 0 8.709-1.975 8.709-1.975L43.542 4.28l-6.573 6.419L32.697 0l-4.273 10.534z" fill="#fb8e31"/><path d="M28.099 4.115l-1.972 2.963 1.151 2.633 2.136-2.14z" fill="url(#d)" transform="translate(9.856)"/><path d="M17.583 4.115l1.971 2.963-1.15 2.633-2.136-2.14z" fill="url(#e)" transform="translate(9.856)"/></g></svg>