<svg width="150" height="150" viewBox="0 0 150 150" fill="none" xmlns="http://www.w3.org/2000/svg">
<path d="M0 0 C16.51609799 13.78388103 26.78945808 30.37994064 29.9375 51.8125 C31.60365015 72.47276181 26.18347293 92.00538863 13.15234375 108.3125 C0.25256773 123.23710859 -16.37587433 132.52146526 -36 135.4375 C-55.3821639 136.72964426 -75.66936482 132.88496585 -90.95703125 120.10546875 C-94.0135961 117.41931005 -96.8854214 114.57680878 -99.75 111.6875 C-100.49121094 110.97980469 -101.23242188 110.27210937 -101.99609375 109.54296875 C-114.55469701 96.73955841 -120.03632901 78.24858455 -120.25 60.6875 C-119.99578268 39.79401367 -111.97546672 21.40455017 -97.515625 6.36328125 C-88.3053946 -2.50081304 -77.00924384 -8.73453329 -64.75 -12.3125 C-64.02425781 -12.53679688 -63.29851563 -12.76109375 -62.55078125 -12.9921875 C-41.15449729 -18.44394572 -17.53604486 -13.02151142 0 0 Z M-95.87890625 21.23046875 C-105.9647934 34.93246231 -110.2601026 50.75398996 -108.75 67.6875 C-106.05979432 85.3587089 -98.04963665 100.45413838 -83.875 111.5625 C-78.43628974 115.42267458 -72.99463992 118.36285302 -66.75 120.6875 C-65.95980469 121.00589844 -65.16960937 121.32429688 -64.35546875 121.65234375 C-49.18190749 126.83763949 -30.88575614 124.61655816 -16.625 118 C-0.57016353 109.49051748 11.30759568 95.78299417 16.75830078 78.42016602 C21.16695193 62.16443743 19.01947426 44.87222004 11.5625 29.9375 C8.18739643 24.16251123 3.96113434 19.40648623 -0.75 14.6875 C-1.81734375 13.60275391 -1.81734375 13.60275391 -2.90625 12.49609375 C-14.31425121 1.60475926 -29.68131603 -3.32033928 -45.25 -3.8125 C-65.64417655 -3.14700582 -82.8144851 5.62507762 -95.87890625 21.23046875 Z " fill="#C9C8C8" transform="translate(119.75,14.3125)"/>
<path d="M0 0 C4.875 1.875 4.875 1.875 6 3 C6.15740605 4.70563778 6.25093392 6.41727244 6.31640625 8.12890625 C6.37924805 9.68061523 6.37924805 9.68061523 6.44335938 11.26367188 C6.48267578 12.35228516 6.52199219 13.44089844 6.5625 14.5625 C6.60568359 15.65498047 6.64886719 16.74746094 6.69335938 17.87304688 C6.79982068 20.58189564 6.90183516 23.29083992 7 26 C7.73637695 25.2479126 8.47275391 24.4958252 9.23144531 23.72094727 C11.96711295 20.93095387 14.71271826 18.15092173 17.46142578 15.3737793 C18.64938098 14.17074358 19.83462895 12.96502827 21.01708984 11.7565918 C22.71787064 10.01939629 24.42817535 8.29209066 26.140625 6.56640625 C26.66682434 6.02472305 27.19302368 5.48303986 27.73516846 4.92494202 C32.53641461 0.12152095 32.53641461 0.12152095 36 0 C38.25 1.4375 38.25 1.4375 40 3 C39.55320448 7.89934398 38.49070872 10.12085452 34.96484375 13.5234375 C34.23644287 14.23935059 33.50804199 14.95526367 32.75756836 15.69287109 C31.8269458 16.57797363 30.89632324 17.46307617 29.9375 18.375 C26.988125 21.22125 24.03875 24.0675 21 27 C35.85 27.495 35.85 27.495 51 28 C50.92105982 20.61069075 50.92105982 20.61069075 50.81982422 13.22167969 C50.8148291 12.29774414 50.80983398 11.37380859 50.8046875 10.421875 C50.78897705 9.00793457 50.78897705 9.00793457 50.77294922 7.56542969 C51.01170446 4.86775222 51.54307781 3.26746794 53 1 C54.875 0.0625 54.875 0.0625 57 0 C59.10244751 1.1325531 59.10244751 1.1325531 61 3 C61.49447632 5.62513733 61.49447632 5.62513733 61.48583984 8.81665039 C61.49506973 10.6084951 61.49506973 10.6084951 61.50448608 12.4365387 C61.49011505 13.72720749 61.47574402 15.01787628 61.4609375 16.34765625 C61.45855297 17.68379031 61.45764777 19.01992776 61.4581604 20.35606384 C61.45503329 23.15466333 61.43847449 25.95275017 61.41162109 28.7512207 C61.3776079 32.34164987 61.36999344 35.93151664 61.37151146 39.52208805 C61.37096815 42.28016039 61.36000801 45.03810933 61.34550858 47.79614067 C61.33603506 49.76488111 61.33258276 51.73364752 61.32919312 53.70240784 C61.31643341 54.89381882 61.30367371 56.0852298 61.29052734 57.31274414 C61.27909195 58.89134972 61.27909195 58.89134972 61.26742554 60.50184631 C61 63 61 63 59 65 C56.5625 65.375 56.5625 65.375 54 65 C51.87779463 62.82256996 51.06212859 61.46799085 50.65942383 58.43457031 C50.6829895 57.02062988 50.6829895 57.02062988 50.70703125 55.578125 C50.71827026 54.19222168 50.71827026 54.19222168 50.72973633 52.77832031 C50.75704834 51.61397461 50.78436035 50.44962891 50.8125 49.25 C50.874375 45.5375 50.93625 41.825 51 38 C41.1 38.33 31.2 38.66 21 39 C27.27916024 45.00256903 27.27916024 45.00256903 33.59594727 50.96533203 C34.36994873 51.72185059 35.1439502 52.47836914 35.94140625 53.2578125 C36.74263916 54.0223877 37.54387207 54.78696289 38.36938477 55.57470703 C40 58 40 58 39.75366211 61.29638672 C39.50495361 62.1885791 39.25624512 63.08077148 39 64 C36.39208984 64.84936523 36.39208984 64.84936523 33 65 C30.57169741 63.20070624 28.76435891 61.58486287 26.7265625 59.41015625 C25.87365128 58.54238808 25.87365128 58.54238808 25.00350952 57.65708923 C23.19357739 55.80801392 21.4094969 53.93610166 19.625 52.0625 C18.40136749 50.803754 17.17612415 49.54657174 15.94921875 48.29101562 C12.94716212 45.21183495 9.96806408 42.1119453 7 39 C6.970271 40.02154175 6.970271 40.02154175 6.93994141 41.0637207 C6.84473017 44.14703917 6.73503534 47.22967649 6.625 50.3125 C6.5940625 51.38435547 6.563125 52.45621094 6.53125 53.56054688 C6.47324219 55.10258789 6.47324219 55.10258789 6.4140625 56.67578125 C6.3826416 57.62364502 6.3512207 58.57150879 6.31884766 59.5480957 C6 62 6 62 4 65 C1.21334312 65.42871644 -0.31123926 65.49431737 -2.63490295 63.8266449 C-4.5278853 61.29363338 -4.38725314 59.54418261 -4.40405273 56.39868164 C-4.41673691 55.25061539 -4.42942108 54.10254913 -4.44248962 52.91969299 C-4.43955399 51.67904587 -4.43661835 50.43839874 -4.43359375 49.16015625 C-4.4388356 47.88651718 -4.44407745 46.61287811 -4.44947815 45.30064392 C-4.4559079 42.60449431 -4.45598429 39.90918907 -4.44604492 37.21313477 C-4.43455932 33.76166105 -4.45475698 30.31121107 -4.48396206 26.85987186 C-4.50674367 23.56412806 -4.49985663 20.26846036 -4.49609375 16.97265625 C-4.50732773 15.73403336 -4.51856171 14.49541046 -4.53013611 13.21925354 C-4.51606468 11.49242592 -4.51606468 11.49242592 -4.50170898 9.73071289 C-4.50154282 8.71828018 -4.50137665 7.70584747 -4.50120544 6.66273499 C-3.87405472 3.33089532 -2.56098608 2.13583901 0 0 Z " fill="#E6444B" transform="translate(46,42)"/>
</svg>
