<?xml version="1.0" encoding="UTF-8"?>
<svg version="1.1" xmlns="http://www.w3.org/2000/svg" width="994" height="964">
<path d="M0 0 C0.80926941 -0.00626404 1.61853882 -0.01252808 2.45233154 -0.01898193 C18.08978837 -0.09558749 33.54256978 1.60098183 48.5625 6.125 C49.42391602 6.37918701 50.28533203 6.63337402 51.17285156 6.89526367 C81.49919587 16.11626079 108.58092106 31.934282 131.8828125 53.375 C133.82933822 55.16553237 135.80595245 56.90264159 137.8125 58.625 C150.1120555 69.37841809 161.72102202 80.87206117 173.25292969 92.43505859 C175.64663831 94.8341873 178.04572881 97.2278427 180.4453125 99.62109375 C181.99511282 101.17155405 183.54460335 102.72232409 185.09375 104.2734375 C185.79802124 104.97568451 186.50229248 105.67793152 187.22790527 106.40145874 C191.72632781 110.92098828 195.96437949 115.60703266 200.125 120.4375 C202.57589788 123.17255571 205.06475298 125.8702244 207.5625 128.5625 C208.48772461 129.57763672 208.48772461 129.57763672 209.43164062 130.61328125 C215.44006448 137.07812023 221.4607033 143.38626117 230.6875 143.875 C238.86482729 143.76787344 244.65310158 139.08014085 250.3125 133.5625 C253.42790951 130.27852124 256.39389349 126.87006031 259.34375 123.4375 C261.75597809 120.72903337 264.32908097 118.20597355 266.9375 115.6875 C268.71533132 113.8588735 270.3536389 112.00639351 272.00390625 110.06640625 C277.11020222 104.19001608 282.66525934 98.74819952 288.17651367 93.25561523 C290.05828274 91.37920525 291.93464738 89.49751031 293.81054688 87.61523438 C299.15688886 82.26627818 304.49349328 76.99347968 310.25756836 72.09106445 C314.17843564 68.61923361 317.77266015 64.80002108 321.4375 61.0625 C328.04698437 54.39964672 334.57506824 48.03582458 342.125 42.4375 C343.17300781 41.64601562 344.22101562 40.85453125 345.30078125 40.0390625 C388.0996058 8.24600151 441.97329939 -5.53778954 494.83447266 2.09130859 C495.59034668 2.20555176 496.3462207 2.31979492 497.125 2.4375 C497.88989746 2.5504541 498.65479492 2.6634082 499.44287109 2.77978516 C528.32089815 7.26178936 557.27066798 18.48595804 581.125 35.4375 C582.61966797 36.49517578 582.61966797 36.49517578 584.14453125 37.57421875 C609.43688041 56.03796512 629.65846183 78.63570821 644.125 106.4375 C644.50543457 107.16565918 644.88586914 107.89381836 645.27783203 108.64404297 C653.60327871 124.80232702 659.00301183 141.59251194 662.9375 159.3125 C663.1324707 160.1900293 663.32744141 161.06755859 663.52832031 161.97167969 C666.46474245 176.00125214 667.47661527 189.76894367 667.44067383 204.06298828 C667.43751956 206.67132688 667.46106533 209.27851946 667.48632812 211.88671875 C667.54629215 227.56873778 665.95255251 243.146572 661.3125 258.1875 C661.05243164 259.05616699 660.79236328 259.92483398 660.52441406 260.81982422 C659.74814903 263.36726573 658.94479753 265.90376679 658.125 268.4375 C657.89441895 269.15389648 657.66383789 269.87029297 657.42626953 270.60839844 C647.47734711 300.79474403 627.9519644 326.26968017 605.35546875 348.14453125 C603.54967938 350.00092067 601.8842126 351.88063989 600.20800781 353.85009766 C595.25240077 359.52718096 589.89769254 364.8090957 584.56640625 370.12890625 C583.45199782 371.24399011 582.33773771 372.35922222 581.22361755 373.47459412 C578.89963979 375.80003762 576.57388536 378.12368511 574.24682617 380.44604492 C571.28379549 383.40337903 568.3252783 386.36518128 565.36808872 389.32835484 C563.07147368 391.62860598 560.77245434 393.92644231 558.47273064 396.22358513 C557.38170194 397.31395297 556.29139823 398.4050468 555.20187569 399.49691963 C549.85009173 404.85771633 544.48580581 410.15900943 538.71879578 415.07762146 C528.86228307 423.37518115 528.86228307 423.37518115 523.68359375 434.77734375 C523.16638118 441.91927903 525.84169651 445.96469592 530.125 451.4375 C533.12363073 454.78015757 536.28524006 457.92861452 539.5 461.0625 C540.71816406 462.27292969 540.71816406 462.27292969 541.9609375 463.5078125 C545.51389657 467.01522081 549.10006363 470.42877508 552.88110352 473.68920898 C557.36006784 477.58817105 561.56193162 481.73024565 565.75390625 485.93359375 C566.9439048 487.12215721 566.9439048 487.12215721 568.15794373 488.33473206 C569.82389081 490.00000283 571.48859256 491.66652029 573.15209961 493.33422852 C575.68036134 495.86784622 578.21391661 498.39608167 580.74804688 500.92382812 C582.3753207 502.55176283 584.00228425 504.18000775 585.62890625 505.80859375 C586.37701065 506.55467392 587.12511505 507.30075409 587.89588928 508.06944275 C591.95958623 512.15106959 595.85692825 516.31781541 599.60023499 520.69598389 C601.92986846 523.35678355 604.45922291 525.79345937 607 528.25 C612.48423099 533.6546129 617.3841523 539.3648594 622.125 545.4375 C622.93710937 546.44425781 623.74921875 547.45101562 624.5859375 548.48828125 C630.89212979 556.37862603 636.1602818 564.6514135 641.125 573.4375 C641.4947998 574.07606934 641.86459961 574.71463867 642.24560547 575.37255859 C659.63335744 605.52390117 667.58954013 639.45019794 667.4375 674.0625 C667.43534485 674.94556824 667.4331897 675.82863647 667.43096924 676.73846436 C667.21373062 732.21718971 644.67033661 780.99576022 606.125 820.4375 C603.56311829 822.91932291 600.89369102 825.190309 598.125 827.4375 C597.07267136 828.32523012 596.02061339 829.21328115 594.96875 830.1015625 C568.30412892 852.33245351 536.35836221 867.4359938 502.125 873.4375 C501.14563477 873.61410156 500.16626953 873.79070313 499.15722656 873.97265625 C489.01285476 875.62550705 479.0086626 875.8363885 468.75 875.8125 C467.86960052 875.81195618 466.98920105 875.81141235 466.0821228 875.81085205 C451.77976289 875.77032856 438.06298259 874.87744679 424.125 871.4375 C423.21282715 871.21255859 422.3006543 870.98761719 421.36083984 870.75585938 C415.21264962 869.19160982 409.15571396 867.40461061 403.125 865.4375 C402.41972168 865.20836914 401.71444336 864.97923828 400.98779297 864.74316406 C374.46982057 855.92304194 350.10099996 840.65947483 329.63671875 821.73828125 C327.59615143 819.8690835 325.52517534 818.06321525 323.42578125 816.26171875 C317.7250969 811.28934792 312.4944287 805.85298695 307.19140625 800.46484375 C303.61676209 796.85543805 300.04784828 793.30516981 296.19140625 789.99609375 C291.061169 785.58979424 286.33187462 780.78980021 281.5625 776 C280.65564453 775.09701172 279.74878906 774.19402344 278.81445312 773.26367188 C272.52572206 766.96582009 266.6324582 760.46432125 260.94921875 753.62109375 C249.70344491 740.00344839 249.70344491 740.00344839 233.87109375 733.03125 C224.68621534 732.65826001 217.40971737 736.29618995 210.71875 742.44921875 C205.54699729 747.45042544 200.67353615 752.76535343 196.015625 758.24682617 C188.26975196 767.22199646 180.02115826 775.70342407 171.6262207 784.06665039 C169.92476222 785.76269726 168.22878737 787.46409821 166.53320312 789.16601562 C161.48153476 794.22039715 156.41300241 799.16158609 150.97387695 803.80249023 C147.40853424 806.95541512 144.13840691 810.41128233 140.8125 813.8125 C134.5325401 820.15574948 128.21432375 826.00270085 121.125 831.4375 C119.67673828 832.61119141 119.67673828 832.61119141 118.19921875 833.80859375 C93.07844764 854.0260065 62.84309254 867.78415214 31.125 873.4375 C30.1347583 873.61555176 29.1445166 873.79360352 28.12426758 873.97705078 C18.17311036 875.59028438 8.37518166 875.83774665 -1.6875 875.8125 C-2.5436087 875.81162384 -3.39971741 875.81074768 -4.2817688 875.80984497 C-49.23268221 875.65868881 -93.07161748 860.6886177 -128.875 833.4375 C-129.83148438 832.72464844 -130.78796875 832.01179687 -131.7734375 831.27734375 C-151.18298646 816.15188442 -167.10974385 796.98643606 -178.875 775.4375 C-179.21337891 774.82116699 -179.55175781 774.20483398 -179.90039062 773.56982422 C-188.06032348 758.50203234 -194.10349003 742.63591472 -198.1875 726 C-198.53288818 724.61083374 -198.53288818 724.61083374 -198.88525391 723.19360352 C-202.98912742 705.45180258 -204.32215954 687.70860786 -204.25595093 669.55386353 C-204.259418 667.4442055 -204.26418953 665.33454929 -204.27013266 663.22489679 C-204.28252844 657.49468248 -204.27652495 651.76462019 -204.26717401 646.03440571 C-204.2603364 639.82840312 -204.27088797 633.62242517 -204.27911377 627.41642761 C-204.29163796 615.98385057 -204.29061619 604.55134044 -204.28237936 593.11876382 C-204.2748049 582.55241067 -204.27287546 571.986075 -204.2764473 561.4197197 C-204.27667645 560.71629176 -204.27690561 560.01286382 -204.27714171 559.28811988 C-204.27807587 556.43198849 -204.27903108 553.57585711 -204.280021 550.71972574 C-204.28917958 523.97549384 -204.28090728 497.23129228 -204.26473031 470.48706507 C-204.25049866 446.77879535 -204.2517669 423.07057399 -204.26611328 399.36230469 C-204.28221349 372.66710112 -204.28852672 345.97192434 -204.27927649 319.27671659 C-204.27831448 316.42544834 -204.27737595 313.57418009 -204.2764473 310.72291183 C-204.27621006 310.0209631 -204.27597283 309.31901436 -204.27572841 308.59579446 C-204.27233064 298.04308963 -204.2762794 287.4904043 -204.28388596 276.93770218 C-204.29250228 264.92493744 -204.2899521 252.91224209 -204.27404372 240.8994794 C-204.26620468 234.78001521 -204.26299416 228.66064866 -204.27299118 222.54118538 C-204.28203012 216.92285552 -204.27685628 211.30471242 -204.26105852 205.68639915 C-204.25774915 203.67049419 -204.2593162 201.65457295 -204.26668589 199.63867874 C-204.32924625 181.08010237 -202.99839487 162.24712036 -198.1875 144.25 C-197.93258789 143.27135986 -197.67767578 142.29271973 -197.41503906 141.28442383 C-186.58840455 101.19547878 -163.38774847 66.94737196 -129.875 42.4375 C-129.32070312 42.02822266 -128.76640625 41.61894531 -128.1953125 41.19726562 C-109.37101039 27.47673556 -87.90178801 17.73806681 -65.875 10.4375 C-64.98893066 10.14262695 -64.10286133 9.84775391 -63.18994141 9.54394531 C-42.38817728 2.77490093 -21.80851499 0.07871605 0 0 Z M394.125 109.4375 C392.69969971 110.60418213 392.69969971 110.60418213 391.24560547 111.79443359 C383.73827619 118.01469572 376.69944997 124.57622166 369.84765625 131.5090332 C368.23499116 133.14018086 366.61423938 134.762957 364.9921875 136.38476562 C360.16101449 141.23270762 355.4549849 146.13277782 351.00292969 151.3347168 C347.1088221 155.69508454 342.92345192 159.78598565 338.7824707 163.91040039 C337.19041034 165.49709946 335.6037701 167.08907742 334.01757812 168.68164062 C328.55866571 174.14444252 323.01336882 179.43553515 317.125 184.4375 C304.11966595 195.03838949 304.11966595 195.03838949 296.640625 209.55078125 C296.11768604 217.03171356 300.2356895 222.61182442 304.875 228 C307.38408053 230.78845295 310.05457198 233.2689906 312.890625 235.71484375 C317.89714821 240.04875347 322.49107573 244.75213189 327.125 249.4765625 C331.04001387 253.43745544 335.05833665 257.1853544 339.27685547 260.82080078 C341.85522786 263.07628056 344.26841005 265.44869965 346.6875 267.875 C347.98880859 269.17244141 347.98880859 269.17244141 349.31640625 270.49609375 C351.35258175 272.58261969 353.25698872 274.74807112 355.14648438 276.96777344 C359.26380743 281.68602105 363.67816665 286.07513495 368.13960075 290.46613503 C369.62844265 291.93254869 371.11294357 293.4032355 372.59632874 294.87516785 C376.80880996 299.05444185 381.02546655 303.22942847 385.25268555 307.39379883 C387.85450228 309.95753955 390.44858592 312.52890223 393.0381794 315.10498619 C394.0139855 316.07285087 394.99253555 317.03795869 395.97410393 317.99997902 C415.25968446 336.90802805 415.25968446 336.90802805 415.5625 346.5625 C415.18059537 357.74684994 406.84711976 365.79609578 399.75097656 373.63964844 C398.1519746 375.40767403 396.57141356 377.19087571 394.9921875 378.9765625 C379.07690387 396.79621743 379.07690387 396.79621743 367.25 397.75 C351.54899148 397.18500159 340.00823098 381.60836529 329.80151367 371.31982422 C327.43787813 368.93788106 325.06628713 366.56408894 322.69335938 364.19140625 C321.16619372 362.65932545 319.63948529 361.12678873 318.11328125 359.59375 C317.41519852 358.89455444 316.71711578 358.19535889 315.99787903 357.47497559 C315.32995834 356.80067505 314.66203766 356.12637451 313.97387695 355.43164062 C313.39781204 354.85176392 312.82174713 354.27188721 312.22822571 353.67443848 C310.45137195 351.78462108 308.76458293 349.85820835 307.07693195 347.88985252 C302.84478233 343.04729261 298.33933772 338.50675968 293.79086304 333.96292114 C292.87117159 333.04025857 291.95148013 332.11759599 291.00391924 331.16697395 C288.47031077 328.62536261 285.93363443 326.08683335 283.39639258 323.54884982 C280.65283178 320.80342671 277.91211992 318.05516181 275.17098999 315.30731201 C269.18588552 309.30867254 263.19704783 303.31376966 257.20737791 297.31968927 C253.46236143 293.57190274 249.7180799 289.82338253 245.97392654 286.07473373 C235.59220349 275.68082539 225.20953903 265.28785947 214.82341576 254.89834785 C214.15975177 254.2344643 213.49608778 253.57058074 212.81231276 252.88657951 C212.14713219 252.22118065 211.48195161 251.5557818 210.79661405 250.87021935 C209.44888047 249.52204232 208.10114845 248.17386373 206.75341797 246.82568359 C206.08490758 246.15695177 205.41639718 245.48821995 204.7276289 244.79922353 C193.89994187 233.96758995 183.0790249 223.12921997 172.26101558 212.28792168 C161.13463367 201.13778186 150.00259121 189.99331947 138.86490595 178.85447013 C132.61951925 172.60816928 126.37654083 166.35950407 120.13981247 160.10455704 C114.82873795 154.77802163 109.51247439 149.45673275 104.18955271 144.14203538 C101.4783302 141.43469795 98.7695093 138.72507449 96.06730652 136.00873184 C67.14376577 106.94288153 35.07327417 85.368863 -7.4375 85.0625 C-38.54154382 85.31503238 -66.55973657 98.09572122 -88.875 119.4375 C-89.62265625 120.11039063 -90.3703125 120.78328125 -91.140625 121.4765625 C-109.43790994 138.55829354 -118.77432568 163.71776411 -120.9973774 188.23159695 C-121.08083458 189.13829271 -121.16429176 190.04498847 -121.25027794 190.97915986 C-122.09007956 200.83660434 -122.14292262 210.65808577 -122.10446167 220.54444885 C-122.10406625 222.58184575 -122.10454802 224.61924297 -122.10581791 226.65663952 C-122.10671287 232.19159321 -122.09511794 237.72645738 -122.08122444 243.26139104 C-122.06838556 249.25532013 -122.06728114 255.24925394 -122.06452942 261.24319458 C-122.05717258 272.95994089 -122.0386475 284.67664838 -122.01556377 296.39337248 C-121.99683238 305.92120556 -121.98143252 315.4490386 -121.96832657 324.97688103 C-121.96450379 327.72898689 -121.9606664 330.48109274 -121.95682538 333.23319858 C-121.95587126 333.9175455 -121.95491714 334.60189242 -121.95393412 335.30697712 C-121.92701388 354.52588619 -121.89566604 373.74478391 -121.85536003 392.96366978 C-121.853089 394.04810888 -121.853089 394.04810888 -121.8507721 395.15445585 C-121.84309093 398.81794809 -121.83537616 402.48144025 -121.82765304 406.1449324 C-121.82612021 406.87239857 -121.82458738 407.59986474 -121.8230081 408.34937534 C-121.81990808 409.82048279 -121.8168054 411.29159023 -121.81370004 412.76269766 C-121.76548664 435.65844357 -121.73350286 458.55416355 -121.71386719 481.44995117 C-121.69174801 507.22552504 -121.65617766 533.00103319 -121.6017276 558.77656025 C-121.59596251 561.52835165 -121.59024807 564.28014316 -121.58456802 567.03193474 C-121.58316156 567.70940296 -121.58175511 568.38687118 -121.58030603 569.08486874 C-121.55805937 579.94858577 -121.54843931 590.81227808 -121.5432932 601.67601507 C-121.53775865 612.6037167 -121.5168903 623.53130972 -121.48186211 634.45895667 C-121.46330514 640.36932925 -121.45098451 646.27953214 -121.45611382 652.18993568 C-121.46065595 657.61264665 -121.44652319 663.03499341 -121.41823794 668.45762955 C-121.41122194 670.4068611 -121.41072333 672.35613089 -121.41784512 674.30536205 C-121.52222752 706.22285724 -111.92553857 733.83916518 -89.625 757.125 C-65.60846881 780.3331206 -32.30734952 793.85423344 0.91503906 793.80810547 C39.37066273 793.09905384 66.36920596 769.41751452 92.18139648 743.51147461 C93.94987219 741.73758997 95.72370044 739.96918223 97.49804688 738.20117188 C102.63088401 733.07111558 107.66686664 727.93590653 112.37817383 722.41137695 C116.24127759 718.04615068 120.43348714 713.98640512 124.5625 709.875 C125.91698242 708.5147168 125.91698242 708.5147168 127.29882812 707.12695312 C132.4141093 702.01908003 137.64293325 697.14561127 143.125 692.4375 C145.71068928 690.14982237 148.26615251 687.83131094 150.8125 685.5 C151.44994141 684.93087891 152.08738281 684.36175781 152.74414062 683.77539062 C158.58554077 678.40419606 163.6385323 672.39947054 164.4375 664.25 C163.25812847 649.86166737 147.24795323 638.40053936 137.64086914 628.82299805 C135.55954811 626.74705574 133.48365187 624.66579578 131.40820312 622.58398438 C130.06282062 621.23926248 128.71712806 619.89485071 127.37109375 618.55078125 C126.76253036 617.94019363 126.15396698 617.32960602 125.52696228 616.70051575 C122.59354976 613.78274916 119.61767144 610.97124526 116.47122192 608.28372192 C111.77320103 604.18899512 107.37413328 599.82700736 102.97436523 595.41625977 C102.09686615 594.540513 101.21936707 593.66476624 100.3152771 592.76248169 C97.93124309 590.38207046 95.54944995 587.99946234 93.16882205 585.61564755 C90.66321375 583.10748679 88.15514289 580.60179031 85.6474762 578.09568787 C81.43872279 573.88874778 77.23206841 569.67971749 73.02661133 565.46948242 C68.18197525 560.61940535 63.33374758 555.77294092 58.48363918 550.92833668 C54.30065981 546.74991236 50.11965363 542.56952114 45.9402557 538.38751453 C43.45233872 535.8980479 40.96377342 533.40923942 38.47341728 530.9222126 C35.69480931 528.14706079 32.92034403 525.36778938 30.14624023 522.58813477 C29.33305832 521.77697708 28.5198764 520.9658194 27.68205261 520.13008118 C23.49764467 515.93022407 19.48687975 511.64544449 15.61803913 507.15331173 C13.85108016 505.12270928 11.99728783 503.2086541 10.07666016 501.32324219 C9.36547028 500.62181091 8.6542804 499.92037964 7.92153931 499.19769287 C6.80408829 498.10210052 6.80408829 498.10210052 5.6640625 496.984375 C4.04137139 495.37920469 2.41898507 493.77372622 0.796875 492.16796875 C-1.72290549 489.67902473 -4.24491832 487.19248823 -6.77246094 484.71142578 C-36.71417964 455.28997514 -36.71417964 455.28997514 -37.1875 438.375 C-36.90845766 420.81858616 -24.25954806 408.34470843 -12.43505859 396.88061523 C-11.02099555 395.51293248 -9.60297246 394.14931948 -8.17919922 392.79174805 C-6.30137932 390.87314058 -4.56598089 388.92870306 -2.82350159 386.89096069 C1.44856172 381.99552921 6.0070321 377.41524953 10.60522461 372.82788086 C11.52973923 371.90161392 12.45425385 370.97534698 13.40678406 370.02101135 C15.9210345 367.5022388 18.43839348 364.98659548 20.95649791 362.47167659 C23.6047939 359.82593138 26.25062756 357.17772548 28.89686584 354.52992249 C33.33919785 350.08577668 37.78362142 345.64373077 42.22924805 341.20288086 C47.35198285 336.08558715 52.47110553 330.96470125 57.5883674 325.8419351 C62.00033609 321.42541276 66.41427011 317.01086171 70.82982069 312.59792048 C73.459016 309.97027558 76.08755159 307.34198029 78.71430779 304.7118969 C81.64512778 301.77762331 84.58005834 298.84749406 87.51538086 295.91772461 C88.37329224 295.057789 89.23120361 294.19785339 90.1151123 293.31185913 C94.43272257 289.00930489 98.81488788 284.85179764 103.44695377 280.88837528 C109.57823677 275.58713459 115.06391605 269.58966502 120.33984375 263.453125 C132.24051798 250.01603988 132.24051798 250.01603988 139.0625 249 C145.33888869 249.89662696 149.79381707 254.77506648 154.25 259 C155.39570228 260.07045279 156.54153861 261.1407621 157.6875 262.2109375 C158.26113281 262.74944336 158.83476562 263.28794922 159.42578125 263.84277344 C162.02384593 266.28107207 164.63150631 268.70865523 167.25 271.125 C167.73960205 271.5772998 168.2292041 272.02959961 168.73364258 272.49560547 C172.03125438 275.5129066 175.44248598 278.34043221 178.9375 281.125 C191.8155505 291.60237345 191.8155505 291.60237345 193.08984375 300.15625 C193.21504836 308.28063822 188.99955609 313.30182143 183.58984375 318.95703125 C182.77644531 319.77558594 181.96304687 320.59414063 181.125 321.4375 C180.36316406 322.22511719 179.60132813 323.01273438 178.81640625 323.82421875 C175.50361786 327.20590395 172.13427651 330.44060936 168.54205322 333.52320862 C163.84884305 337.6228129 159.43104374 341.96916536 155.01855469 346.36694336 C154.1459903 347.23293655 153.2734259 348.09892975 152.37442017 348.99116516 C149.51234357 351.83366501 146.65417293 354.680043 143.796875 357.52734375 C142.80639943 358.51376459 141.81589272 359.50015418 140.82535553 360.48651314 C136.17543925 365.11744278 131.52789392 369.75073567 126.8832767 374.38698 C121.54263697 379.7178286 116.19379807 385.04027167 110.8379333 390.3558225 C106.68121618 394.48233108 102.53225122 398.61653269 98.38895726 402.75651842 C95.9211741 405.22195952 93.45024664 407.68403415 90.97103119 410.13798332 C88.20749676 412.87379666 85.46010152 415.62547807 82.71386719 418.37866211 C81.89925018 419.18046906 81.08463318 419.982276 80.24533081 420.80838013 C74.80039521 426.30364596 70.32129961 431.31520827 69.9375 439.375 C71.90269201 449.25635169 82.57061616 457.16501966 89.42893982 463.98867798 C90.57227378 465.13360267 91.71516976 466.27896486 92.85766846 467.42472303 C95.98017159 470.55360613 99.10883633 473.67626231 102.23859513 476.79788542 C105.6199145 480.17260144 108.99543843 483.55310592 112.3717041 486.93287659 C118.97937722 493.54558152 125.59236303 500.15294867 132.20718222 506.75850441 C139.91418377 514.4551022 147.61593552 522.15694442 155.31749368 529.85898845 C169.06114795 543.60314295 182.80962184 557.34246618 196.56079102 571.07910156 C209.89710041 584.40132298 223.22990203 597.72704191 236.55883789 611.05664062 C237.37987338 611.87771607 238.20090886 612.69879151 239.04682421 613.54474802 C240.27627104 614.77425539 240.27627104 614.77425539 241.53055519 616.02860129 C256.71588195 631.21461838 271.9044983 646.39734155 287.09464471 661.57853759 C292.46179619 666.94267617 297.82797395 672.30778768 303.19384575 677.67320633 C309.73472281 684.21340033 316.27749343 690.75169344 322.82261353 697.2876413 C326.16050494 700.62092472 329.49761727 703.95497787 332.83257484 707.29119682 C335.88807589 710.34779748 338.94589183 713.4020626 342.00553919 716.45451264 C343.1092891 717.55645797 344.2122116 718.65923284 345.3141995 719.76294024 C350.5559945 725.01200522 355.81062541 730.19652339 361.46937996 735.0008167 C364.22888278 737.39540695 366.7485121 740.01453721 369.28515625 742.640625 C370.42075612 743.79863605 371.55683992 744.95617271 372.69335938 746.11328125 C374.43299496 747.88963031 376.16935994 749.66873049 377.8972168 751.45654297 C400.52164857 774.82398276 429.9395903 793.10493584 463.30786133 793.73046875 C493.32017744 793.92158435 518.37981929 783.96471302 541.125 764.4375 C542.48238281 763.28121094 542.48238281 763.28121094 543.8671875 762.1015625 C564.86260989 743.66513896 581.28768092 716.69488181 584.125 688.4375 C585.78112227 650.33019252 575.52024297 619.80069089 549.94329834 591.46499634 C544.97487486 586.07266559 539.73474474 580.93950149 534.53484726 575.77218246 C532.44624322 573.69652808 530.36094229 571.61760306 528.27639771 569.53787231 C523.8537617 565.12657025 519.42718192 560.71923915 515 556.3125 C509.85691789 551.19312516 504.71552369 546.07207794 499.57834244 540.94678116 C497.53596966 538.91083196 495.49058184 536.87794658 493.44503784 534.84518433 C482.28028777 523.72436292 482.28028777 523.72436292 477.48074341 518.04031372 C471.76625205 511.284415 465.60703418 505.30308434 456.5625 503.875 C440.60457536 506.48629676 427.71440484 524.70062804 416.89453125 535.53515625 C415.13211903 537.29689367 413.36955848 539.05848273 411.6068573 540.81993103 C407.92809169 544.49722872 404.25112453 548.17631266 400.57543945 551.85668945 C395.878371 556.55946305 391.1768227 561.25771373 386.47391224 565.9546442 C382.83887965 569.58605385 379.20624375 573.21985349 375.57431602 576.85436821 C373.84199981 578.58734846 372.10894888 580.31959461 370.37513161 582.05107307 C367.94923025 584.47441845 365.52658514 586.90097459 363.10473633 589.32836914 C362.04396378 590.38610535 362.04396378 590.38610535 360.96176147 591.46520996 C356.48376502 595.96210078 352.25327702 600.61862887 348.125 605.4375 C332.24887228 623.63319184 332.24887228 623.63319184 321.25 624.875 C312.61028562 624.47470435 305.9574454 619.42059897 300.125 613.4375 C299.0651403 612.21819703 298.00965574 610.99508582 296.95703125 609.76953125 C292.13889369 604.21122719 286.8291984 599.15864143 281.53320312 594.06054688 C275.72624986 588.36085891 270.71796822 583.079681 270.0234375 574.546875 C270.74955301 559.46601431 284.98716578 548.37251482 295.25683594 538.89868164 C302.73047525 531.96316496 309.89333826 524.72450005 317.05517578 517.4699707 C317.52964142 516.99131058 318.00410706 516.51265045 318.49295044 516.01948547 C319.78389384 514.71692594 321.07175306 513.41131175 322.359375 512.10546875 C324.48261769 510.05719932 326.62258154 508.12536413 328.85628414 506.2043829 C332.78574857 502.7762398 336.51064754 499.1924645 340.19007874 495.49940491 C341.18522662 494.50659701 341.18522662 494.50659701 342.20047849 493.49373239 C344.40042667 491.29774053 346.59682161 489.0982306 348.79321289 486.89868164 C350.3788674 485.31438355 351.96473426 483.73029798 353.55079651 482.14640808 C357.84225015 477.85950007 362.13055042 473.56945076 366.41814351 469.27868199 C370.91369109 464.78059598 375.41168564 460.28495794 379.9092865 455.78892517 C387.9437716 447.75637371 395.9757367 439.72130834 404.00670802 431.68524431 C411.27625655 424.41122855 418.54842279 417.13983849 425.82250977 409.87036133 C434.2864247 401.41180779 442.74864494 392.95156442 451.20840448 384.48885435 C455.68046062 380.01524223 460.15318242 375.54230125 464.6276722 371.07112312 C468.8349014 366.86679054 473.03966154 362.66000391 477.24255943 358.45134163 C478.7819737 356.91060936 480.32223168 355.37071953 481.86341095 353.83175278 C483.97357206 351.72434104 486.08060219 349.61384588 488.18690491 347.50257874 C488.79139168 346.90032268 489.39587846 346.29806663 490.01868302 345.67756039 C493.69287095 341.98666022 497.1702426 338.17024427 500.56554091 334.221017 C502.81292684 331.65073412 505.19620817 329.26980526 507.6262207 326.87036133 C508.37906845 326.12452286 508.37906845 326.12452286 509.14712524 325.36361694 C510.2219415 324.29918499 511.29787092 323.23587604 512.37484169 322.17362404 C514.09103778 320.47979949 515.80294529 318.78174476 517.51371765 317.08244324 C522.37321824 312.25619491 527.23680321 307.43412675 532.11108398 302.62280273 C535.10844278 299.66355499 538.09804685 296.69664916 541.08315086 293.72504234 C542.20801824 292.60811183 543.33562918 291.493936 544.46627235 290.38285255 C554.40121254 280.61678178 563.5825198 270.23573762 570.3125 257.9375 C570.72048828 257.19685303 571.12847656 256.45620605 571.54882812 255.69311523 C577.84488262 243.78423194 582.76227844 229.88950851 584.125 216.4375 C584.25648438 215.26832031 584.38796875 214.09914062 584.5234375 212.89453125 C586.49189059 190.73849815 581.71852944 170.36836959 572.125 150.4375 C571.65191406 149.44878906 571.17882812 148.46007812 570.69140625 147.44140625 C556.95455526 120.62925233 531.82635507 100.5551318 503.6875 90.6875 C466.54949392 79.04837232 424.77647437 84.2750994 394.125 109.4375 Z " fill="#000000" transform="translate(277.875,36.5625)"/>
</svg>
