<svg xmlns="http://www.w3.org/2000/svg" viewBox="0 0 475.541 500">
  <path fill="#00AD00" fill-rule="evenodd" d="M79.069 245.61c5.732-3.659 18.293-11.708 33.049-19.512-12.439-29.025-19.512-54.635-19.146-74.391 0-43.17 10.731-78.536 29.268-96.829 48.78-48.049 144.39 13.415 188.049 78.293 13.414-1.83 29.268-4.269 42.927-4.391C309.557 51.829 220.777 0 165.289 0 88.947 0 54.923 76.22 54.923 151.829c.122 35.976 12.439 65.488 24.146 93.781Zm278.659-94.39c-21.708 0-35.854 3.17-35.854 3.17 4.756 10.976 8.171 23.537 10.122 36.586 8.537-1.22 17.317-2.196 25.61-2.074 48.536-.243 78.536 26.83 79.878 60.976 0 18.049-9.878 41.707-19.512 64.634-4.878 11.586-13.903 34.147-18.659 53.415C391.386 400 368.094 489.634 315.655 455c-12.195 5.122-28.537 12.561-41.22 15.976 25 21.707 41.951 29.024 66.22 29.024 65 0 87.195-89.268 95.609-122.927 8.171-36.585 39.878-87.927 39.269-127.195-.854-59.268-56.098-100.488-117.805-98.78v.122Z" clip-rule="evenodd"/>
  <path fill="#00AD00" fill-rule="evenodd" d="M296.386 438.78c-9.756-9.268-19.268-18.78-28.78-28.414-67.439 24.756-151.829-4.268-201.22-51.098-17.683-17.317-28.17-36.585-28.17-51.707 0-21.098 6.951-36.341 21.951-48.049a675.778 675.778 0 0 1-14.268-35.853C16.533 241.244-1.004 273.341.045 307.561c0 25.488 14.024 53.171 39.512 78.049 50.732 52.073 169.268 97.439 256.707 53.17h.122Zm-78.048-270.853 25.975 26.341 25.976-26.341-25.976-26.342-26.097 26.342h.122Zm33.414 140c11.464.244 23.171.975 35 2.683 18.781-28.659 28.293-53.049 25.976-70.122-3.049-27.683-27.439-44.512-57.317-33.903v28.537c12.805-1.342 23.049-.244 22.561 11.585 0 7.683-3.659 18.781-23.171 55.366l-3.049 5.854Zm57.439-1.829-6.829 6.463c11.341 2.195 23.049 4.878 33.537 8.293 25.609-21.342 33.78-36.952 32.926-50.122.244-20.244-18.658-32.195-40.609-30.122.609 8.292-.366 17.073-2.683 25.61 0 0 11.463-1.708 11.463 5.487 0 5.61-4.024 11.952-27.805 34.513v-.122Zm-72.317 1.829c-11.585.244-23.171.975-35.122 2.683-18.78-28.659-28.292-53.049-25.975-70.122 3.048-27.683 27.439-44.512 57.317-33.903v28.537c-12.805-1.342-23.049-.244-22.561 11.585 0 7.683 3.658 18.781 23.17 55.366l3.171 5.854Z" clip-rule="evenodd"/>
  <path fill="#00AD00" fill-rule="evenodd" d="m179.313 306.098 6.829 6.463c-11.341 2.195-23.048 4.878-33.536 8.293-25.488-21.342-33.659-36.952-32.927-50.122-.244-20.244 18.659-32.195 40.61-30.122-.61 8.292.366 17.073 2.683 25.61 0 0-11.464-1.708-11.464 5.487 0 5.61 4.025 11.952 27.805 34.513v-.122Zm65.244 20.487c-28.049 0-55.854 3.659-82.439 11.098l10.732 31.341a267.847 267.847 0 0 1 143.414 0l10.732-31.341a307.59 307.59 0 0 0-82.439-11.098Z" clip-rule="evenodd"/>
</svg>