<svg xmlns="http://www.w3.org/2000/svg" viewBox="0 0 600 450" xmlns:v="https://vecta.io/nano"><path d="M288.4 80.9c31.9-2.1 64.3 4.3 92.9 18.6 42.2 20.7 75.8 58.2 91.7 102.4 7 19.5 10.8 40.2 10.8 60.9v77c0 3.1.1 6.4-.6 9.4-1.7 7.8-7.2 14.6-14.6 17.9-5.1 2.4-10.9 2.7-16.3 1.8-11.8-2.2-20.8-13.2-21-25.1v-71.7c.2-6.8.2-14-3.5-20-5.9-11-20.4-16.3-32-11.6-9.8 3.5-17 13.4-17.1 23.9v72.7c0 4.5.2 9.2-1.1 13.5-2.5 8.5-9.6 15.4-18.1 17.8-11.2 3.1-24.1-1.8-29.8-12.2-3.9-6.3-3.6-13.8-3.5-20.7l-.1-72.3c-.2-12.2-10.3-23.2-22.5-24.8-7.9-1.2-16.2 1.4-21.9 7-5.2 4.9-8.1 11.9-8.1 19v70.2c-.1 5.9.6 12-1.6 17.5-3.5 10-13.6 17.4-24.3 17.1-10.9.6-21.6-6.9-25.1-17.2-1.9-5.1-1.5-10.5-1.5-15.9v-72.7c-.1-12-9.4-22.9-21.2-25.1-10.6-2.3-22.4 3.1-27.8 12.7-2.3 4-3.5 8.6-3.5 13.2V343c.1 7.7-3.5 15.2-9.3 20.1-8.9 7.8-23.2 8.2-32.6 1.1-6.8-4.6-10.8-12.5-10.8-20.7v-79.6c.1-30.1 7.7-60.2 22-86.6 11.8-21.6 27.9-40.9 47.2-56.3 29.5-23.7 66-37.8 103.3-40.1z" fill="#4b4c9b"/></svg>
