<svg width="210mm" height="297mm" viewBox="0 0 210 297" version="1.1" id="svg1" xml:space="preserve" xmlns:inkscape="http://www.inkscape.org/namespaces/inkscape" xmlns:sodipodi="http://sodipodi.sourceforge.net/DTD/sodipodi-0.dtd" xmlns="http://www.w3.org/2000/svg" xmlns:svg="http://www.w3.org/2000/svg"><sodipodi:namedview id="namedview1" pagecolor="#505050" bordercolor="#eeeeee" borderopacity="1" inkscape:showpageshadow="0" inkscape:pageopacity="0" inkscape:pagecheckerboard="0" inkscape:deskcolor="#505050" inkscape:document-units="mm"><inkscape:page x="0" y="0" width="210" height="297" id="page2" margin="0" bleed="0" /></sodipodi:namedview><defs id="defs1"><clipPath clipPathUnits="userSpaceOnUse" id="clipPath2"><rect style="fill:none;fill-opacity:1;stroke:#000000;stroke-width:1.00016;stroke-dasharray:none;stroke-opacity:1" id="rect2" width="154.40462" height="122.69654" x="1.6766653" y="16.59478" clip-path="none" /></clipPath></defs><g inkscape:label="Camada 1" inkscape:groupmode="layer" id="layer1"><g id="g1" transform="matrix(1.3347829,0,0,1.3347829,15.12038,49.219326)" style="stroke-width:1.00016;stroke-dasharray:none" clip-path="url(#clipPath2)" inkscape:export-filename="Leaseweb.svg" inkscape:export-xdpi="96" inkscape:export-ydpi="96"><path d="m 126.836,63.443 a 3.17,3.17 0 0 1 -0.46,-0.035 L 80.334,56.438 C 78.024,56.087 76.146,53.73 76.146,51.182 V 32.644 c 0,-1.987 1.126,-3.322 2.804,-3.322 0.358,0 0.733,0.062 1.111,0.188 l 46.23,15.197 c 1.974,0.646 3.642,3.184 3.642,5.544 v 9.511 c -0.002,2.1 -1.333,3.681 -3.097,3.681 M 79.928,93.186 c -2.121,0 -3.784,-1.835 -3.784,-4.18 V 70.471 c 0,-2.347 1.665,-4.184 3.792,-4.184 0.104,0 0.214,0.003 0.325,0.013 l 46.005,4.079 c 2.021,0.182 3.665,2.247 3.665,4.605 v 9.505 c 0,2.36 -1.645,4.425 -3.663,4.604 L 80.26,93.17 c -0.11,0.011 -0.223,0.016 -0.332,0.016 m -0.977,36.964 c -1.68,0 -2.807,-1.334 -2.807,-3.32 v -18.536 c 0,-2.552 1.88,-4.91 4.188,-5.254 l 46.044,-6.976 c 0.156,-0.023 0.31,-0.035 0.457,-0.035 1.767,0 3.097,1.582 3.097,3.683 v 9.509 c 0,2.396 -1.633,4.883 -3.641,5.545 l -46.231,15.199 a 3.51,3.51 0 0 1 -1.107,0.185" fill="#f39000" id="path1" style="stroke-width:1.00016;stroke-dasharray:none" /><path d="m 7.052,69.578 c -1.829,0 -3.156,-1.553 -3.156,-3.69 v -1.549 c 0,-2.551 1.776,-5.559 3.883,-6.563 L 65.865,30.005 c 0.466,-0.223 0.917,-0.336 1.338,-0.336 1.346,0 2.217,1.17 2.217,2.979 v 18.534 c 0,2.56 -1.829,5.049 -4.076,5.547 L 7.812,69.49 c -0.255,0.059 -0.51,0.088 -0.76,0.088 m 58.82,23.46 c -0.148,0 -0.301,-0.011 -0.453,-0.029 L 7.998,85.649 C 5.735,85.366 3.896,83.062 3.896,80.516 v -1.557 c 0,-2.543 1.839,-4.846 4.102,-5.134 l 57.421,-7.353 c 0.155,-0.021 0.308,-0.03 0.459,-0.03 2.021,0 3.543,1.732 3.543,4.03 v 18.536 c 0,1.122 -0.372,2.154 -1.041,2.898 a 3.341,3.341 0 0 1 -2.508,1.132 m 1.329,36.769 c -0.421,0 -0.871,-0.115 -1.336,-0.337 L 7.781,101.699 C 5.676,100.693 3.896,97.691 3.896,95.14 v -1.558 c 0,-2.134 1.327,-3.684 3.151,-3.684 0.25,0 0.508,0.029 0.765,0.086 l 57.531,12.758 c 2.246,0.503 4.078,2.992 4.078,5.552 v 18.538 c 0,0.92 -0.224,1.686 -0.646,2.217 a 1.95,1.95 0 0 1 -1.574,0.758 M 167.985,48.229 h 12.366 v 62.226 h -12.366 z m 32.181,45.183 c 0.872,6.262 4.043,9.354 10.305,9.354 4.994,0 8.799,-1.109 11.099,-2.3 l 2.775,7.689 c -3.33,1.665 -8.086,3.091 -15.3,3.091 -13.08,0 -20.61,-8.641 -20.61,-22.274 0,-13.396 6.977,-22.038 19.264,-22.038 12.365,0 18.629,8.403 18.073,22.83 z m 7.056,-19.183 c -5.073,0 -8.243,4.36 -7.848,13.159 l 14.903,-2.22 c 0.001,-7.61 -2.537,-10.939 -7.055,-10.939 m 41.939,37.017 c -12.366,0 -18.708,-4.596 -18.708,-13.475 0,-11.018 11.019,-14.269 23.859,-15.456 v -1.983 c 0,-4.439 -3.011,-5.708 -7.528,-5.708 -4.123,0 -8.323,1.348 -11.098,2.616 l -2.696,-7.056 c 3.013,-1.268 8.562,-3.25 16.092,-3.25 9.671,0 16.804,4.043 16.804,15.617 v 25.524 c -3.567,1.904 -9.356,3.171 -16.725,3.171 m 5.15,-23.225 c -7.451,0.713 -12.285,2.457 -12.285,9.274 0,4.994 2.853,7.135 7.768,7.135 1.824,0 3.41,-0.317 4.518,-0.871 V 88.021 Z m 30.914,23.147 c -5.234,0 -9.911,-1.348 -12.523,-3.091 l 3.169,-7.849 c 1.585,1.27 4.518,2.457 7.609,2.457 3.172,0 5.312,-1.981 5.312,-4.677 0,-2.854 -1.508,-4.439 -5.474,-6.025 -7.841,-3.091 -9.587,-7.451 -9.587,-11.891 0,-7.292 5.707,-13.158 14.27,-13.158 5.312,0 8.955,1.031 12.284,3.091 l -3.012,7.056 c -1.271,-1.032 -3.728,-2.219 -6.499,-2.219 -3.251,0 -4.915,1.98 -4.915,4.438 0,2.852 2.142,4.44 5.468,5.865 8.243,3.489 10.147,7.531 10.147,12.525 0,7.455 -6.105,13.478 -16.249,13.478 m 34.082,-17.756 c 0.872,6.262 4.041,9.354 10.303,9.354 4.995,0 8.8,-1.109 11.1,-2.3 l 2.772,7.689 c -3.328,1.665 -8.083,3.091 -15.3,3.091 -13.076,0 -20.606,-8.641 -20.606,-22.274 0,-13.396 6.974,-22.038 19.258,-22.038 12.367,0 18.632,8.403 18.075,22.83 z m 7.053,-19.183 c -5.074,0 -8.243,4.36 -7.847,13.159 l 14.902,-2.22 c 10e-4,-7.61 -2.536,-10.939 -7.055,-10.939 m 71.104,36.225 h -11.415 l -6.103,-23.146 c -0.716,-2.854 -0.873,-5.865 -0.873,-5.865 h -0.078 c 0,0 -0.159,3.011 -0.948,5.865 l -6.264,23.146 H 360.445 L 348.714,67.729 h 12.287 l 5.154,24.651 c 0.709,3.489 0.79,6.185 0.79,6.185 h 0.16 c 0,0 0.079,-2.615 1.033,-6.185 l 6.496,-24.651 h 10.145 l 6.105,24.651 c 0.714,3.013 1.03,6.185 1.03,6.185 h 0.16 c 0,0 0.076,-3.171 0.793,-6.262 l 5.466,-24.574 h 10.859 z m 27.189,-17.042 c 0.87,6.262 4.046,9.354 10.306,9.354 4.992,0 8.802,-1.109 11.098,-2.3 l 2.775,7.689 c -3.328,1.665 -8.086,3.091 -15.3,3.091 -13.08,0 -20.61,-8.641 -20.61,-22.274 0,-13.396 6.975,-22.038 19.262,-22.038 12.367,0 18.628,8.403 18.073,22.83 z m 7.054,-19.183 c -5.073,0 -8.239,4.36 -7.847,13.159 l 14.902,-2.22 c 10e-4,-7.61 -2.538,-10.939 -7.055,-10.939 m 41.851,37.017 c -7.372,0 -12.604,-1.346 -15.458,-3.169 V 48.229 h 12.365 V 68.76 c 1.981,-0.951 4.2,-1.586 7.927,-1.586 10.068,0 17.041,8.085 17.041,20.689 0.001,14.982 -7.843,23.383 -21.875,23.383 m 1.348,-37.017 c -1.981,0 -3.252,0.318 -4.439,0.951 v 27.982 c 0.951,0.396 2.3,0.635 3.807,0.635 6.261,0 8.958,-5.549 8.958,-15.141 -0.003,-8.323 -1.748,-14.427 -8.326,-14.427 m -22.084,89.853 c -18.098,-0.441 -34.513,-0.663 -50.542,-0.663 -84.614,0 -109.854,4.323 -110.11,4.385 a 1.564,1.564 0 0 0 -0.962,0.701 c -0.217,0.356 -0.279,-0.114 -0.185,0.287 0.17,0.704 -0.098,1.19 0.624,1.19 0.125,0 0.25,-0.015 0.364,-0.043 0.253,-0.062 26.273,-4.302 110.149,-4.302 16.035,0 33.354,0.225 51.495,0.667 0.848,0 0.663,0.208 0.687,-0.63 a 1.56,1.56 0 0 0 -1.52,-1.592" fill="#0b314c" id="path2" style="stroke-width:1.00016;stroke-dasharray:none" /><path d="m 291.647,170.025 c -0.553,0 -0.571,-0.283 -0.597,-0.676 -0.013,-0.164 -0.023,-0.347 -0.071,-0.55 -0.019,-0.067 -0.029,-0.11 -0.037,-0.135 -0.011,-0.041 -0.015,-0.06 0,-0.076 l 0.015,-0.019 h 0.036 l 0.023,0.017 c 0.007,0.008 0.019,0.015 0.027,0.015 0.014,0 0.06,-0.009 0.122,-0.119 0.226,-0.364 0.574,-0.619 0.991,-0.723 0.182,-0.043 24.908,-4.385 110.118,-4.385 15.66,0 32.194,0.217 50.546,0.661 a 1.605,1.605 0 0 1 1.562,1.639 c -0.004,0.149 -0.001,0.267 10e-4,0.357 0.005,0.165 0.007,0.249 -0.042,0.297 -0.035,0.037 -0.089,0.042 -0.14,0.042 -0.039,0 -0.086,-0.002 -0.146,-0.007 -0.098,-0.007 -0.229,-0.017 -0.403,-0.017 -18.112,-0.441 -35.438,-0.668 -51.492,-0.668 -83.934,0 -109.963,4.258 -110.141,4.301 a 1.322,1.322 0 0 1 -0.372,0.046 m -0.603,-1.334 a 0.738,0.738 0 0 1 0.025,0.091 c 0.048,0.208 0.062,0.396 0.071,0.561 0.025,0.396 0.039,0.595 0.51,0.595 0.12,0 0.241,-0.014 0.352,-0.041 0.181,-0.041 26.221,-4.303 110.162,-4.303 16.055,0 33.381,0.227 51.494,0.667 0.176,0 0.311,0.009 0.408,0.015 0.122,0.011 0.199,0.013 0.22,-0.008 0.021,-0.021 0.021,-0.104 0.016,-0.231 -0.002,-0.093 -0.005,-0.21 -0.002,-0.359 a 1.516,1.516 0 0 0 -1.476,-1.551 c -18.352,-0.446 -34.884,-0.663 -50.543,-0.663 -85.202,0 -109.917,4.342 -110.097,4.387 a 1.501,1.501 0 0 0 -0.937,0.682 c -0.067,0.109 -0.132,0.162 -0.2,0.162 h -0.004 v -0.004 z m -28.711,-25 c 0,-0.12 0.176,-0.473 0.531,-1.125 0.416,-0.649 0.593,-1.062 0.593,-1.241 -0.829,0 -3.019,2.247 -6.628,6.743 -3.606,4.438 -5.618,6.686 -6.151,6.686 -0.709,0 -1.717,-0.65 -1.717,-1.361 0,0.062 0.533,-0.826 1.54,-2.541 2.067,-3.611 3.135,-7.162 3.135,-10.651 0,-0.648 -0.179,-2.249 -0.179,-2.897 0,-0.415 0.354,-0.769 1.006,-1.007 1.006,0.474 1.536,1.717 1.536,3.729 0,2.306 -0.827,5.205 -2.425,8.813 l 1.48,-1.894 c 1.064,-1.362 1.597,-1.952 1.597,-1.896 a 179.454,179.454 0 0 1 4.319,-5.026 c 2.365,-2.604 4.021,-3.904 4.908,-3.904 0.534,0 1.422,1.184 1.422,1.832 0,0.535 -0.888,2.604 -2.662,6.215 -0.236,0.532 -0.591,0.768 -1.124,0.768 -0.767,0.002 -1.181,-0.414 -1.181,-1.243" fill="#0b314c" id="path3" style="stroke-width:1.00016;stroke-dasharray:none" /><path d="m 250.679,154.844 c -0.757,0 -1.723,-0.646 -1.801,-1.357 h -0.004 l -0.001,-0.062 v -0.027 h 0.087 l -0.055,-0.064 c 0.103,-0.107 1.168,-1.927 1.519,-2.523 2.072,-3.615 3.121,-7.183 3.121,-10.604 0,-0.32 -0.044,-0.89 -0.087,-1.442 -0.045,-0.554 -0.09,-1.127 -0.09,-1.455 0,-0.453 0.379,-0.841 1.063,-1.09 l 0.036,-0.015 0.032,0.017 c 1.054,0.497 1.589,1.777 1.589,3.809 0,2.125 -0.703,4.816 -2.154,8.209 l 1.049,-1.338 c 0.874,-1.118 1.412,-1.756 1.603,-1.902 a 176.49,176.49 0 0 1 4.316,-5.026 c 2.374,-2.61 4.05,-3.936 4.976,-3.936 0.607,0 1.511,1.261 1.511,1.922 0,0.553 -0.873,2.598 -2.67,6.253 -0.248,0.559 -0.633,0.816 -1.205,0.816 -0.833,0 -1.272,-0.459 -1.272,-1.33 0,-0.131 0.134,-0.414 0.543,-1.168 0.405,-0.629 0.527,-0.947 0.567,-1.099 -0.86,0.181 -3.028,2.435 -6.453,6.699 -3.931,4.829 -5.676,6.713 -6.22,6.713 m -1.627,-1.419 c 0.026,0.632 0.941,1.24 1.626,1.24 0.596,0 3.562,-3.554 6.081,-6.651 3.714,-4.623 5.84,-6.775 6.695,-6.775 h 0.09 v 0.088 c 0,0.22 -0.216,0.677 -0.606,1.289 -0.167,0.305 -0.518,0.951 -0.518,1.076 0,0.766 0.366,1.154 1.094,1.154 0.503,0 0.823,-0.222 1.045,-0.718 1.761,-3.581 2.652,-5.659 2.652,-6.176 0,-0.621 -0.857,-1.743 -1.334,-1.743 -0.601,0 -1.93,0.672 -4.844,3.874 a 180.985,180.985 0 0 0 -4.312,5.026 l -0.159,0.188 v -0.048 c -0.204,0.221 -0.661,0.758 -1.438,1.75 l -1.92,2.459 0.291,-0.655 c 1.626,-3.675 2.417,-6.547 2.417,-8.779 0,-1.934 -0.488,-3.153 -1.453,-3.629 -0.589,0.221 -0.914,0.545 -0.914,0.907 0,0.319 0.048,0.892 0.091,1.442 0.044,0.554 0.09,1.128 0.09,1.456 0,3.455 -1.061,7.052 -3.146,10.694 -1.084,1.847 -1.407,2.379 -1.528,2.531 m 32.328,-2.338 c -2.78,1.599 -5.796,2.427 -8.991,2.427 -0.475,0 -1.123,-0.296 -2.011,-0.828 -1.243,-0.889 -1.894,-2.131 -1.894,-3.729 0,-1.952 1.124,-4.496 3.429,-7.632 2.31,-3.134 4.261,-4.731 5.799,-4.731 2.364,0 4.32,1.299 4.32,3.607 0,1.537 -1.186,3.076 -3.551,4.674 -2.19,1.479 -4.143,2.189 -5.74,2.189 h -0.532 c -0.177,-0.061 -0.354,-0.061 -0.471,-0.061 -0.179,0 -0.356,0.354 -0.594,1.004 -0.234,0.653 -0.355,1.125 -0.355,1.422 0,0.827 0.415,1.361 1.243,1.598 0.296,0.06 1.065,0.117 2.189,0.117 0.413,0 1.183,-0.178 2.307,-0.529 1.124,-0.417 1.833,-0.71 2.249,-0.949 1.537,-0.885 2.427,-1.357 2.602,-1.357 0.653,0 1.36,0.887 1.36,1.598 0.001,0.234 -0.472,0.648 -1.359,1.18 m -2.899,-12.01 c -0.651,0 -1.657,0.709 -3.018,2.188 -1.359,1.479 -2.128,2.543 -2.307,3.194 h 1.063 c 0.649,0 1.716,-0.593 3.312,-1.774 1.598,-1.183 2.366,-2.07 2.366,-2.604 0.004,-0.472 -0.883,-1.004 -1.416,-1.004" fill="#0b314c" id="path4" style="stroke-width:1.00016;stroke-dasharray:none" /><path d="m 272.388,153.604 c -0.458,0 -1.074,-0.254 -2.059,-0.843 -1.286,-0.918 -1.936,-2.196 -1.936,-3.805 0,-1.99 1.161,-4.575 3.448,-7.685 2.328,-3.164 4.303,-4.77 5.868,-4.77 2.637,0 4.409,1.484 4.409,3.697 0,1.564 -1.177,3.117 -3.59,4.747 -2.135,1.44 -4.136,2.204 -5.789,2.204 l -0.56,-0.004 c -0.164,-0.057 -0.334,-0.057 -0.444,-0.057 -0.167,0 -0.425,0.712 -0.511,0.947 -0.229,0.637 -0.351,1.104 -0.351,1.389 0,0.792 0.387,1.285 1.18,1.514 0.263,0.051 0.992,0.113 2.165,0.113 0.402,0 1.171,-0.178 2.28,-0.527 1.145,-0.422 1.835,-0.711 2.231,-0.939 2.092,-1.206 2.508,-1.372 2.645,-1.372 0.733,0 1.449,0.966 1.449,1.687 0,0.276 -0.471,0.701 -1.404,1.259 -2.811,1.622 -5.85,2.445 -9.031,2.445 m 5.324,-16.922 c -1.507,0 -3.433,1.581 -5.726,4.697 -2.266,3.077 -3.414,5.627 -3.414,7.578 0,1.546 0.623,2.775 1.857,3.657 0.934,0.559 1.538,0.811 1.958,0.811 3.148,0 6.158,-0.812 8.947,-2.416 1.223,-0.729 1.317,-1.03 1.317,-1.104 0,-0.691 -0.69,-1.509 -1.273,-1.509 -0.146,0 -1.005,0.453 -2.557,1.349 -0.406,0.229 -1.102,0.524 -2.263,0.951 -1.13,0.357 -1.915,0.538 -2.336,0.538 -1.188,0 -1.933,-0.065 -2.209,-0.12 -0.871,-0.249 -1.312,-0.815 -1.312,-1.685 0,-0.309 0.118,-0.783 0.359,-1.449 0.291,-0.797 0.461,-1.064 0.676,-1.064 0.12,0 0.301,0 0.487,0.061 h 0.518 c 1.617,0 3.583,-0.752 5.69,-2.175 2.359,-1.594 3.51,-3.101 3.51,-4.6 0.002,-2.431 -2.124,-3.52 -4.229,-3.52 m -3.49,7.868 h -1.182 l 0.029,-0.112 c 0.184,-0.672 0.946,-1.728 2.328,-3.229 1.352,-1.473 2.388,-2.218 3.083,-2.218 0.554,0 1.509,0.54 1.509,1.093 0,0.74 -1.307,1.861 -2.403,2.675 -1.67,1.238 -2.709,1.791 -3.364,1.791 m -0.944,-0.179 h 0.946 c 0.604,0 1.642,-0.559 3.259,-1.757 2.026,-1.502 2.33,-2.23 2.33,-2.531 0,-0.406 -0.826,-0.917 -1.33,-0.917 -0.441,0 -1.312,0.374 -2.952,2.159 -1.268,1.38 -2.026,2.404 -2.253,3.046 M 297.471,124.583 287,150.852 c 0.235,0 0.829,-0.297 1.064,-0.297 0.474,0 0.71,0.178 0.71,0.532 0,0.118 0,0.237 -0.062,0.354 0,1.184 -1.479,2.485 -2.661,2.485 -1.005,0 -1.536,-0.709 -1.536,-2.131 0,-1.599 0.829,-4.317 2.424,-8.165 a 596.357,596.357 0 0 1 5.505,-12.896 l 1.773,-4.144 c 0.944,-2.188 1.537,-3.312 1.833,-3.368 0.297,-0.062 0.53,-0.119 0.711,-0.119 0.413,0 0.648,0.177 0.709,0.53 z" fill="#0b314c" id="path5" style="stroke-width:1.00016;stroke-dasharray:none" /><path d="m 286.052,154.016 c -0.741,0 -1.626,-0.384 -1.626,-2.219 0,-1.574 0.796,-4.257 2.432,-8.195 a 619.302,619.302 0 0 1 5.504,-12.899 l 1.774,-4.142 c 1.267,-2.929 1.659,-3.377 1.898,-3.425 l 0.169,-0.034 c 0.228,-0.048 0.406,-0.084 0.559,-0.084 0.573,0 0.752,0.328 0.798,0.605 v 0.979 l -0.005,0.019 -10.417,26.12 c 0.108,-0.027 0.24,-0.075 0.365,-0.119 0.218,-0.08 0.427,-0.153 0.56,-0.153 0.66,0 0.8,0.339 0.8,0.621 0,0.117 0,0.245 -0.06,0.375 -0.017,1.195 -1.474,2.551 -2.751,2.551 m 10.709,-30.823 a 2.89,2.89 0 0 0 -0.521,0.08 l -0.171,0.035 c -0.244,0.049 -0.838,1.166 -1.771,3.32 l -1.773,4.141 c -2.13,4.865 -4.033,9.323 -5.501,12.896 -1.628,3.919 -2.421,6.577 -2.421,8.13 0,1.354 0.486,2.042 1.45,2.042 1.179,0 2.574,-1.3 2.574,-2.396 l 0.008,-0.038 c 0.05,-0.102 0.05,-0.205 0.05,-0.316 0,-0.188 -0.064,-0.444 -0.621,-0.444 -0.104,0 -0.313,0.075 -0.502,0.145 -0.219,0.077 -0.428,0.154 -0.562,0.154 h -0.131 l 0.049,-0.123 10.464,-26.25 v -0.933 c -0.053,-0.297 -0.247,-0.443 -0.621,-0.443 m 2.84,18.132 c 0.06,0.948 -0.298,2.307 -1.065,4.142 a 46.369,46.369 0 0 0 -1.657,4.082 c -0.177,1.066 -0.591,2.485 -1.122,4.26 -0.18,0.355 -0.476,0.532 -0.948,0.532 -0.768,0.06 -1.185,-0.413 -1.239,-1.422 -0.059,-0.944 1.183,-4.733 3.727,-11.299 0.178,-0.412 0.473,-0.771 0.889,-1.183 0.413,0 0.828,0.236 1.358,0.709 0.057,0.062 0.057,0.122 0.057,0.179 m 1.714,-5.207 c -0.356,0.889 -0.709,1.36 -1.125,1.421 -0.532,0 -1.479,-1.005 -1.536,-1.655 -0.062,-1.007 0.708,-3.019 1.595,-3.019 0.947,-0.061 1.479,0.412 1.537,1.357 0.002,0.477 -0.175,1.13 -0.471,1.896" fill="#0b314c" id="path6" style="stroke-width:1.00016;stroke-dasharray:none" /><path d="m 294.684,154.436 c -0.742,0 -1.149,-0.508 -1.206,-1.51 -0.062,-0.973 1.191,-4.788 3.732,-11.338 0.162,-0.383 0.425,-0.734 0.905,-1.214 l 0.027,-0.024 h 0.036 c 0.415,0 0.843,0.219 1.421,0.731 0.088,0.091 0.088,0.179 0.088,0.246 0.061,0.946 -0.292,2.312 -1.073,4.174 a 45.975,45.975 0 0 0 -1.654,4.077 c -0.174,1.056 -0.595,2.492 -1.123,4.256 -0.201,0.406 -0.536,0.595 -1.033,0.595 a 0.912,0.912 0 0 1 -0.12,0.007 m 3.533,-13.907 c -0.448,0.447 -0.693,0.775 -0.844,1.126 -3.147,8.128 -3.761,10.61 -3.719,11.262 0.056,0.955 0.438,1.384 1.146,1.335 0.438,0 0.707,-0.148 0.872,-0.484 0.521,-1.742 0.939,-3.17 1.116,-4.232 a 45.771,45.771 0 0 1 1.663,-4.104 c 0.769,-1.832 1.114,-3.175 1.058,-4.101 0,-0.062 0,-0.088 -0.033,-0.12 -0.52,-0.463 -0.901,-0.67 -1.259,-0.682 m 1.98,-2.901 h -0.007 c -0.59,0 -1.563,-1.039 -1.626,-1.737 -0.045,-0.762 0.362,-2.095 0.979,-2.742 0.229,-0.246 0.466,-0.369 0.704,-0.369 0.05,-0.004 0.104,-0.004 0.157,-0.004 0.891,0 1.413,0.512 1.473,1.445 0,0.465 -0.157,1.094 -0.479,1.932 -0.382,0.957 -0.752,1.414 -1.195,1.477 z m 0.208,-4.677 -0.151,0.002 c -0.19,0 -0.387,0.107 -0.583,0.314 -0.572,0.609 -0.972,1.902 -0.931,2.61 0.055,0.583 0.955,1.563 1.446,1.573 0.361,-0.057 0.692,-0.491 1.046,-1.365 0.313,-0.816 0.465,-1.424 0.465,-1.861 -0.05,-0.842 -0.487,-1.273 -1.292,-1.273 m 20.136,18.904 c 0,0.77 -1.064,1.537 -1.951,1.537 -1.776,0 -3.376,-1.655 -4.733,-5.027 l -2.839,2.486 c -0.532,0.293 -1.361,0.709 -2.546,1.183 -1.184,0.472 -2.013,0.71 -2.427,0.71 -2.425,0 -3.609,-1.42 -3.609,-4.26 0,-2.189 1.125,-4.793 3.433,-7.869 2.428,-3.312 4.732,-4.969 6.863,-4.969 1.772,0 2.603,1.239 2.544,3.785 v 0.709 c 0.829,-1.123 1.419,-1.656 1.834,-1.656 0.295,0 0.768,0.238 1.481,0.77 -0.062,0.355 -0.477,1.596 -1.188,3.785 -0.531,1.48 -0.828,2.782 -0.828,3.848 0,0.77 0.118,1.598 0.354,2.545 0.354,1.24 0.77,1.834 1.302,1.834 0.06,0 0.651,-0.121 1.776,-0.298 0.355,0.356 0.534,0.651 0.534,0.887 m -9.583,-4.317 c 2.068,-2.013 3.193,-3.667 3.313,-5.029 -0.475,0.06 -0.711,0.119 -0.653,0.119 -0.77,0 -1.124,-0.533 -1.124,-1.657 0,-0.65 0.297,-2.07 0.354,-2.603 -1.597,0.413 -3.37,1.952 -5.267,4.496 -1.894,2.545 -2.839,4.614 -2.839,6.329 0,0.473 0.652,1.361 1.064,1.361 1.364,0.001 3.08,-1.005 5.152,-3.016" fill="#0b314c" id="path7" style="stroke-width:1.00016;stroke-dasharray:none" /><path d="m 318.59,153.482 c -1.814,0 -3.419,-1.672 -4.769,-4.969 l -2.748,2.403 c -0.503,0.281 -1.343,0.707 -2.567,1.197 -1.172,0.471 -2.021,0.716 -2.456,0.716 -2.455,0 -3.699,-1.462 -3.699,-4.348 0,-2.236 1.129,-4.827 3.447,-7.922 2.432,-3.32 4.766,-5.004 6.936,-5.004 0.752,0 1.348,0.221 1.775,0.66 0.61,0.625 0.892,1.678 0.854,3.217 v 0.44 c 0.768,-1.006 1.325,-1.479 1.746,-1.479 0.329,0 0.816,0.252 1.532,0.787 l 0.043,0.032 -0.009,0.054 c -0.052,0.306 -0.343,1.199 -0.87,2.828 l -0.317,0.971 c -0.547,1.519 -0.824,2.802 -0.824,3.818 0,0.749 0.118,1.574 0.354,2.522 0.338,1.188 0.736,1.767 1.214,1.767 0.025,-0.002 0.167,-0.025 0.341,-0.058 a 73.24,73.24 0 0 1 1.422,-0.236 l 0.045,-0.009 0.031,0.031 c 0.374,0.375 0.559,0.687 0.559,0.949 10e-4,0.867 -1.142,1.633 -2.04,1.633 m -4.701,-5.265 0.048,0.114 c 1.332,3.301 2.896,4.976 4.653,4.976 0.886,0 1.86,-0.759 1.86,-1.449 0,-0.205 -0.159,-0.472 -0.475,-0.793 -0.627,0.101 -1.087,0.18 -1.373,0.229 -0.263,0.047 -0.34,0.061 -0.371,0.061 -0.575,0 -1.017,-0.603 -1.384,-1.896 -0.241,-0.966 -0.359,-1.805 -0.359,-2.568 0,-1.037 0.28,-2.342 0.834,-3.876 l 0.313,-0.968 c 0.48,-1.482 0.78,-2.406 0.854,-2.749 -0.643,-0.478 -1.104,-0.718 -1.382,-0.718 -0.381,0 -0.958,0.529 -1.763,1.62 l -0.16,0.218 v -0.979 c 0.032,-1.491 -0.229,-2.502 -0.809,-3.094 -0.397,-0.406 -0.936,-0.604 -1.647,-0.604 -2.109,0 -4.395,1.658 -6.79,4.932 -2.299,3.062 -3.414,5.618 -3.414,7.814 0,2.808 1.151,4.172 3.521,4.172 0.408,0 1.257,-0.25 2.394,-0.705 1.216,-0.484 2.047,-0.907 2.531,-1.178 z m -8.078,2.426 c -0.477,0 -1.151,-0.938 -1.151,-1.449 0,-1.713 0.932,-3.799 2.854,-6.383 1.929,-2.593 3.716,-4.114 5.312,-4.528 l 0.127,-0.033 -0.016,0.128 a 18.01,18.01 0 0 1 -0.122,0.803 c -0.104,0.611 -0.232,1.372 -0.232,1.79 0,1.066 0.312,1.552 1.009,1.567 0.082,-0.033 0.267,-0.068 0.668,-0.118 l 0.109,-0.013 -0.01,0.107 c -0.118,1.353 -1.21,3.018 -3.341,5.086 -2.078,2.018 -3.83,3.043 -5.207,3.043 m 6.933,-12.154 c -1.524,0.45 -3.233,1.938 -5.087,4.428 -1.898,2.551 -2.823,4.604 -2.823,6.276 0,0.451 0.628,1.272 0.978,1.272 1.33,0 3.041,-1.005 5.084,-2.989 2.04,-1.982 3.111,-3.576 3.275,-4.865 a 4.652,4.652 0 0 0 -0.521,0.094 l -0.03,-0.079 v 0.091 l -0.083,-0.003 c -0.761,-0.036 -1.129,-0.608 -1.129,-1.739 0,-0.437 0.127,-1.203 0.231,-1.819 0.042,-0.261 0.083,-0.491 0.105,-0.667 m 22.112,12.777 c -2.781,2.482 -5.028,3.727 -6.743,3.727 -1.481,0 -2.251,-0.77 -2.251,-2.307 0,-0.475 0.179,-1.065 0.592,-1.832 0.414,-0.771 0.771,-1.188 1.188,-1.188 0.412,0 0.59,0.297 0.59,0.947 0,0.473 -0.295,1.717 -0.295,2.188 0,0.061 0,0.116 0.058,0.177 1.42,-0.295 3.254,-1.479 5.562,-3.668 2.13,-2.013 3.192,-3.666 3.192,-4.969 0,-1.835 -1.36,-3.787 -3.076,-3.787 -1.42,0 -2.959,0.709 -4.673,2.07 -1.479,1.241 -2.426,2.307 -2.78,3.193 -0.532,1.242 -1.537,4.082 -3.137,8.52 -0.058,0.298 -1.063,0.652 -1.479,0.652 -0.474,0 -0.709,-0.354 -0.709,-1.066 0,-0.059 0.235,-0.65 0.648,-1.831 0.475,-1.241 0.71,-1.896 0.77,-1.954 1.007,-3.017 2.071,-6.271 3.254,-9.701 2.781,-8.045 4.498,-13.961 5.146,-17.808 0.181,-0.295 0.358,-0.415 0.653,-0.415 1.005,0 1.479,0.594 1.479,1.717 0,0.651 -0.711,3.431 -2.189,8.226 -1.124,3.728 -2.012,6.506 -2.663,8.342 1.953,-1.479 3.786,-2.248 5.502,-2.248 1.598,0 2.958,0.707 3.965,2.128 1.008,1.361 1.539,2.898 1.539,4.616 -0.001,1.714 -1.362,3.786 -4.143,6.271" fill="#0b314c" id="path8" style="stroke-width:1.00016;stroke-dasharray:none" /><path d="m 328.112,155.079 c -1.529,0 -2.338,-0.827 -2.338,-2.396 0,-0.51 0.196,-1.123 0.603,-1.877 0.47,-0.871 0.838,-1.229 1.264,-1.229 0.606,0 0.68,0.589 0.68,1.037 0,0.242 -0.073,0.662 -0.149,1.105 -0.072,0.42 -0.146,0.852 -0.146,1.082 0,0.033 10e-4,0.06 0.01,0.078 1.416,-0.316 3.253,-1.539 5.461,-3.635 2.104,-1.983 3.168,-3.634 3.168,-4.904 0,-1.744 -1.278,-3.697 -2.986,-3.697 -1.366,0 -2.878,0.67 -4.617,2.052 -1.51,1.269 -2.411,2.301 -2.753,3.157 -0.456,1.06 -1.257,3.289 -2.472,6.668 l -0.665,1.851 c -0.071,0.364 -1.164,0.707 -1.562,0.707 -0.53,0 -0.797,-0.388 -0.797,-1.151 0,-0.043 0.022,-0.117 0.184,-0.552 0.111,-0.303 0.27,-0.738 0.468,-1.313 l 0.281,-0.739 c 0.326,-0.854 0.435,-1.138 0.493,-1.224 0.259,-0.771 0.519,-1.558 0.783,-2.358 0.781,-2.353 1.587,-4.782 2.466,-7.33 2.812,-8.138 4.496,-13.958 5.144,-17.796 l 0.013,-0.031 c 0.194,-0.324 0.408,-0.456 0.728,-0.456 1.044,0 1.568,0.606 1.568,1.806 0,0.715 -0.818,3.801 -2.192,8.248 -1.062,3.529 -1.926,6.242 -2.565,8.072 1.898,-1.389 3.688,-2.093 5.318,-2.093 1.641,0 3.033,0.749 4.036,2.166 1.032,1.395 1.555,2.964 1.555,4.666 0,1.759 -1.364,3.832 -4.169,6.338 -2.793,2.487 -5.08,3.748 -6.812,3.748 m -0.473,-5.323 c -0.348,0 -0.678,0.34 -1.105,1.139 -0.391,0.726 -0.581,1.312 -0.581,1.791 0,1.472 0.728,2.22 2.16,2.22 1.687,0 3.933,-1.247 6.687,-3.706 2.767,-2.473 4.11,-4.5 4.11,-6.203 0,-1.664 -0.513,-3.198 -1.523,-4.562 -0.981,-1.392 -2.293,-2.097 -3.893,-2.097 -1.66,0 -3.494,0.751 -5.447,2.233 l -0.237,0.177 0.101,-0.278 c 0.647,-1.824 1.543,-4.631 2.66,-8.34 1.369,-4.436 2.188,-7.497 2.188,-8.195 0,-1.095 -0.456,-1.627 -1.392,-1.627 -0.255,0 -0.403,0.094 -0.563,0.358 -0.655,3.847 -2.338,9.669 -5.148,17.803 -0.88,2.55 -1.685,4.98 -2.465,7.331 -0.271,0.805 -0.53,1.596 -0.788,2.369 l -0.024,0.035 c -0.04,0.055 -0.218,0.527 -0.467,1.181 l -0.277,0.741 c -0.2,0.573 -0.363,1.01 -0.474,1.312 -0.094,0.259 -0.17,0.463 -0.175,0.5 0,0.968 0.468,0.968 0.622,0.968 0.418,0 1.349,-0.358 1.392,-0.578 l 0.67,-1.865 c 1.216,-3.377 2.016,-5.61 2.473,-6.673 0.353,-0.882 1.27,-1.939 2.803,-3.229 1.776,-1.406 3.324,-2.092 4.733,-2.092 1.81,0 3.165,2.045 3.165,3.874 0,1.32 -1.083,3.015 -3.224,5.032 -2.261,2.146 -4.148,3.387 -5.604,3.689 l -0.047,0.013 -0.033,-0.035 c -0.084,-0.085 -0.084,-0.173 -0.084,-0.238 0,-0.245 0.069,-0.665 0.148,-1.11 0.07,-0.416 0.146,-0.85 0.146,-1.077 -0.005,-0.76 -0.258,-0.861 -0.507,-0.861 m 26.087,-25.173 -10.473,26.269 c 0.236,0 0.829,-0.297 1.064,-0.297 0.473,0 0.71,0.178 0.71,0.532 0,0.118 0,0.237 -0.06,0.354 0,1.184 -1.479,2.485 -2.663,2.485 -1.004,0 -1.537,-0.709 -1.537,-2.131 0,-1.599 0.829,-4.317 2.427,-8.165 1.359,-3.312 3.193,-7.63 5.501,-12.896 l 1.773,-4.144 c 0.946,-2.188 1.539,-3.312 1.834,-3.368 0.297,-0.062 0.531,-0.119 0.712,-0.119 0.412,0 0.649,0.177 0.709,0.53 z" fill="#0b314c" id="path9" style="stroke-width:1.00016;stroke-dasharray:none" /><path d="m 342.307,154.016 c -0.743,0 -1.626,-0.384 -1.626,-2.219 0,-1.574 0.796,-4.257 2.431,-8.195 a 619.895,619.895 0 0 1 5.505,-12.899 l 1.772,-4.142 c 1.267,-2.929 1.661,-3.377 1.898,-3.425 l 0.17,-0.034 c 0.229,-0.048 0.405,-0.084 0.559,-0.084 0.574,0 0.753,0.328 0.798,0.605 l 0.002,0.979 -0.006,0.019 -10.417,26.12 c 0.108,-0.027 0.24,-0.075 0.366,-0.119 0.218,-0.08 0.425,-0.153 0.557,-0.153 0.661,0 0.803,0.339 0.803,0.621 0,0.117 0,0.245 -0.062,0.375 -0.016,1.195 -1.472,2.551 -2.75,2.551 m 10.709,-30.823 c -0.133,0 -0.312,0.037 -0.521,0.08 l -0.171,0.035 c -0.244,0.049 -0.838,1.166 -1.771,3.32 l -1.775,4.141 a 609.913,609.913 0 0 0 -5.499,12.896 c -1.63,3.919 -2.421,6.577 -2.421,8.13 0,1.354 0.486,2.042 1.449,2.042 1.178,0 2.575,-1.3 2.575,-2.396 l 0.007,-0.038 c 0.051,-0.102 0.051,-0.205 0.051,-0.316 0,-0.188 -0.063,-0.444 -0.622,-0.444 -0.103,0 -0.312,0.075 -0.502,0.145 -0.219,0.077 -0.43,0.154 -0.562,0.154 h -0.131 l 0.049,-0.123 10.465,-26.25 v -0.933 c -0.052,-0.297 -0.25,-0.443 -0.621,-0.443 m 9.699,27.894 c -2.778,1.599 -5.795,2.427 -8.991,2.427 -0.473,0 -1.122,-0.296 -2.012,-0.828 -1.241,-0.889 -1.893,-2.131 -1.893,-3.729 0,-1.952 1.124,-4.496 3.431,-7.632 2.309,-3.134 4.26,-4.731 5.797,-4.731 2.365,0 4.32,1.299 4.32,3.607 0,1.537 -1.185,3.076 -3.552,4.674 -2.188,1.479 -4.141,2.189 -5.738,2.189 h -0.533 c -0.174,-0.061 -0.354,-0.061 -0.472,-0.061 -0.177,0 -0.354,0.354 -0.592,1.004 -0.236,0.653 -0.356,1.125 -0.356,1.422 0,0.827 0.415,1.361 1.243,1.598 0.296,0.06 1.064,0.117 2.19,0.117 0.412,0 1.181,-0.178 2.306,-0.529 1.124,-0.417 1.833,-0.71 2.251,-0.949 1.534,-0.885 2.425,-1.357 2.601,-1.357 0.652,0 1.361,0.887 1.361,1.598 0,0.234 -0.473,0.648 -1.361,1.18 m -2.899,-12.01 c -0.65,0 -1.655,0.709 -3.017,2.188 -1.36,1.479 -2.131,2.543 -2.307,3.194 h 1.065 c 0.649,0 1.715,-0.593 3.312,-1.774 1.599,-1.183 2.367,-2.07 2.367,-2.604 0.002,-0.472 -0.886,-1.004 -1.42,-1.004" fill="#0b314c" id="path10" style="stroke-width:1.00016;stroke-dasharray:none" /><path d="m 353.723,153.604 c -0.459,0 -1.073,-0.254 -2.058,-0.843 -1.287,-0.918 -1.936,-2.196 -1.936,-3.805 0,-1.99 1.16,-4.575 3.449,-7.685 2.327,-3.164 4.3,-4.77 5.866,-4.77 2.639,0 4.41,1.484 4.41,3.697 0,1.564 -1.177,3.117 -3.591,4.747 -2.135,1.44 -4.137,2.204 -5.789,2.204 l -0.559,-0.004 c -0.166,-0.057 -0.334,-0.057 -0.446,-0.057 -0.164,0 -0.423,0.712 -0.51,0.947 -0.229,0.637 -0.351,1.104 -0.351,1.389 0,0.792 0.387,1.285 1.18,1.514 0.263,0.051 0.993,0.113 2.166,0.113 0.402,0 1.17,-0.178 2.279,-0.527 1.144,-0.422 1.835,-0.711 2.229,-0.939 2.094,-1.206 2.508,-1.372 2.646,-1.372 0.733,0 1.449,0.966 1.449,1.687 0,0.276 -0.471,0.701 -1.402,1.259 -2.812,1.622 -5.849,2.445 -9.032,2.445 m 5.325,-16.922 c -1.506,0 -3.432,1.581 -5.725,4.697 -2.265,3.077 -3.414,5.627 -3.414,7.578 0,1.546 0.624,2.775 1.856,3.657 0.934,0.559 1.54,0.811 1.959,0.811 3.149,0 6.159,-0.812 8.947,-2.416 1.223,-0.729 1.316,-1.03 1.316,-1.104 0,-0.691 -0.688,-1.509 -1.271,-1.509 -0.146,0 -1.005,0.453 -2.558,1.349 -0.408,0.229 -1.102,0.524 -2.263,0.951 -1.129,0.357 -1.915,0.538 -2.337,0.538 -1.188,0 -1.931,-0.065 -2.209,-0.12 -0.874,-0.249 -1.312,-0.815 -1.312,-1.685 0,-0.309 0.119,-0.783 0.36,-1.449 0.289,-0.797 0.461,-1.064 0.676,-1.064 0.121,0 0.302,0 0.488,0.061 h 0.517 c 1.616,0 3.582,-0.752 5.689,-2.175 2.359,-1.594 3.513,-3.101 3.513,-4.6 -10e-4,-2.431 -2.128,-3.52 -4.232,-3.52 m -3.489,7.868 h -1.184 l 0.029,-0.112 c 0.184,-0.672 0.946,-1.728 2.329,-3.229 1.351,-1.473 2.389,-2.218 3.082,-2.218 0.554,0 1.509,0.54 1.509,1.093 0,0.74 -1.306,1.861 -2.402,2.675 -1.668,1.238 -2.709,1.791 -3.363,1.791 m -0.945,-0.179 h 0.945 c 0.604,0 1.642,-0.559 3.259,-1.757 2.029,-1.502 2.331,-2.23 2.331,-2.531 0,-0.406 -0.825,-0.917 -1.332,-0.917 -0.44,0 -1.312,0.374 -2.95,2.159 -1.267,1.38 -2.027,2.404 -2.253,3.046 m 43.182,7.011 c -1.24,0 -2.25,-0.53 -2.956,-1.596 -0.652,-0.946 -0.947,-2.071 -0.947,-3.433 0,-0.412 0.237,-1.241 0.711,-2.545 0.533,-1.359 0.768,-2.129 0.768,-2.306 l -0.061,-0.12 c -1.419,1.124 -2.542,2.129 -3.429,3.018 l -4.853,5.442 c -2.546,2.724 -4.2,4.081 -4.972,4.081 -0.944,0 -1.419,-0.531 -1.419,-1.536 2.188,-5.502 5.621,-14.553 10.295,-27.271 0.177,-0.414 0.474,-0.888 0.886,-1.538 0.415,-0.652 0.77,-1.007 1.007,-1.007 0.477,0 1.36,0.71 1.36,1.184 -5.62,14.97 -8.754,23.19 -9.466,24.789 3.376,-3.608 5.325,-5.619 5.738,-6.034 2.898,-2.779 5.086,-4.142 6.447,-4.142 0.889,0 1.481,1.125 1.481,2.013 0,0.294 -0.414,1.418 -1.186,3.253 -0.77,1.834 -1.124,3.077 -1.124,3.728 0,1.361 0.591,2.07 1.716,2.07 0.299,0 1.064,-0.178 1.36,-0.178 0.77,0 1.126,0.297 1.126,0.828 0.003,0.886 -0.825,1.3 -2.482,1.3" fill="#0b314c" id="path11" style="stroke-width:1.00016;stroke-dasharray:none" /><path d="m 382.06,154.016 c -0.987,0 -1.508,-0.562 -1.508,-1.627 l 0.006,-0.033 c 2.326,-5.844 5.885,-15.272 10.293,-27.269 0.176,-0.414 0.456,-0.864 0.896,-1.557 0.442,-0.696 0.807,-1.046 1.082,-1.046 0.513,0 1.45,0.746 1.45,1.271 l -0.008,0.031 c -5.324,14.188 -8.3,21.991 -9.269,24.328 3.223,-3.443 5.014,-5.285 5.396,-5.667 2.842,-2.729 5.093,-4.167 6.51,-4.167 0.972,0 1.568,1.225 1.568,2.101 0,0.305 -0.391,1.38 -1.189,3.287 -0.923,2.201 -1.118,3.225 -1.118,3.691 0,1.315 0.55,1.982 1.628,1.982 0.141,0 0.407,-0.044 0.666,-0.087 0.274,-0.047 0.539,-0.09 0.694,-0.09 1.003,0 1.213,0.497 1.213,0.916 0,0.937 -0.842,1.392 -2.573,1.392 -1.287,0 -2.309,-0.553 -3.031,-1.637 -0.648,-0.941 -0.96,-2.081 -0.96,-3.48 0,-0.414 0.225,-1.232 0.712,-2.573 0.576,-1.472 0.75,-2.097 0.763,-2.259 -1.282,1.021 -2.405,2.011 -3.337,2.942 l -4.848,5.438 c -2.586,2.768 -4.235,4.113 -5.036,4.113 m -1.333,-1.612 c 0.007,0.951 0.456,1.433 1.333,1.433 0.741,0 2.391,-1.362 4.902,-4.055 l 4.853,-5.44 c 0.96,-0.962 2.116,-1.979 3.441,-3.027 l 0.085,-0.068 0.117,0.256 c 0,0.223 -0.297,1.12 -0.773,2.341 -0.48,1.318 -0.704,2.116 -0.704,2.511 0,1.365 0.306,2.47 0.933,3.381 0.689,1.035 1.659,1.559 2.886,1.559 1.61,0 2.396,-0.396 2.396,-1.213 0,-0.497 -0.338,-0.74 -1.035,-0.74 -0.142,0 -0.408,0.046 -0.666,0.089 -0.274,0.046 -0.539,0.091 -0.693,0.091 -1.181,0 -1.805,-0.748 -1.805,-2.162 0,-0.697 0.392,-1.996 1.129,-3.763 0.975,-2.314 1.178,-3.028 1.178,-3.219 0,-0.801 -0.527,-1.921 -1.391,-1.921 -1.371,0 -3.578,1.424 -6.385,4.115 -0.498,0.496 -2.554,2.627 -5.735,6.033 l -0.359,0.385 0.213,-0.483 c 0.694,-1.562 3.7,-9.433 9.459,-24.769 -0.021,-0.428 -0.852,-1.076 -1.272,-1.076 -0.073,0 -0.361,0.066 -0.933,0.963 -0.433,0.686 -0.709,1.129 -0.88,1.527 -4.408,11.981 -7.967,21.407 -10.294,27.252 m 36.53,-5.459 c -1.239,1.893 -2.723,3.432 -4.492,4.615 -2.015,1.357 -4.025,2.012 -6.037,2.012 -2.84,0 -4.675,-2.426 -4.675,-5.269 0,-1.064 0.355,-2.362 1.006,-3.844 0.771,-1.717 1.654,-2.544 2.545,-2.544 0.709,0 1.48,0.886 1.48,1.596 l -1.539,2.604 c -0.65,1.184 -1.006,2.131 -1.006,2.783 0,0.944 0.297,1.597 0.827,1.893 0.415,0.175 1.125,0.295 2.129,0.295 1.834,0 3.668,-0.89 5.562,-2.604 1.894,-1.717 2.84,-3.49 2.84,-5.324 0,-1.95 -0.709,-2.896 -2.129,-2.896 -0.71,0 -1.538,0.413 -2.427,1.301 -0.889,0.83 -1.359,1.597 -1.359,2.307 0,0.236 0.413,0.593 0.413,1.006 0,0.412 -0.473,0.592 -1.36,0.592 -0.886,0 -1.359,-0.592 -1.359,-1.773 0,-1.362 0.649,-2.661 1.893,-3.905 1.243,-1.301 2.545,-1.952 3.903,-1.952 2.132,0 4.261,1.893 4.438,3.963 0.237,0.475 0.355,1.006 0.355,1.538 -0.003,1.417 -0.36,2.602 -1.008,3.606" fill="#0b314c" id="path12" style="stroke-width:1.00016;stroke-dasharray:none" /><path d="m 406.727,153.66 c -2.715,0 -4.763,-2.303 -4.763,-5.355 0,-1.044 0.342,-2.352 1.013,-3.881 0.762,-1.697 1.671,-2.596 2.626,-2.596 0.731,0 1.567,0.898 1.567,1.686 v 0.024 l -0.013,0.021 -1.538,2.604 c -0.658,1.196 -0.994,2.117 -0.994,2.735 0,0.901 0.271,1.529 0.783,1.814 0.426,0.182 1.171,0.284 2.085,0.284 1.786,0 3.587,-0.845 5.502,-2.58 1.866,-1.688 2.812,-3.459 2.812,-5.26 0,-1.89 -0.667,-2.81 -2.04,-2.81 -0.712,0 -1.53,0.441 -2.362,1.274 -0.888,0.829 -1.337,1.582 -1.337,2.247 0,0.072 0.074,0.193 0.153,0.318 0.115,0.188 0.261,0.422 0.261,0.686 0,0.681 -1.089,0.681 -1.448,0.681 -0.661,0 -1.449,-0.323 -1.449,-1.864 0,-1.358 0.646,-2.693 1.919,-3.967 1.253,-1.312 2.589,-1.979 3.967,-1.979 2.183,0 4.334,1.918 4.524,4.027 0.232,0.474 0.355,1.014 0.355,1.563 0,1.399 -0.332,2.599 -1.02,3.658 -1.276,1.944 -2.756,3.463 -4.521,4.638 -1.987,1.351 -4.034,2.032 -6.082,2.032 m -1.124,-11.653 c -0.882,0 -1.73,0.86 -2.463,2.49 -0.661,1.505 -0.997,2.788 -0.997,3.812 0,2.949 1.97,5.176 4.586,5.176 2.012,0 4.023,-0.672 5.985,-1.997 1.745,-1.163 3.207,-2.665 4.472,-4.591 0.666,-1.028 0.99,-2.193 0.99,-3.561 0,-0.527 -0.119,-1.046 -0.348,-1.497 l -0.009,-0.032 c -0.174,-2.031 -2.247,-3.883 -4.35,-3.883 -1.326,0 -2.618,0.647 -3.839,1.926 -1.237,1.238 -1.868,2.53 -1.868,3.842 0,1.119 0.428,1.687 1.271,1.687 1.272,0 1.272,-0.38 1.272,-0.503 0,-0.212 -0.126,-0.413 -0.236,-0.593 -0.096,-0.153 -0.177,-0.285 -0.177,-0.413 0,-0.725 0.453,-1.499 1.387,-2.371 0.865,-0.865 1.729,-1.326 2.488,-1.326 1.473,0 2.217,1.005 2.217,2.987 0,1.852 -0.965,3.665 -2.868,5.391 -1.95,1.767 -3.79,2.625 -5.622,2.625 -0.951,0 -1.702,-0.104 -2.161,-0.304 -0.581,-0.32 -0.883,-1.001 -0.883,-1.973 0,-0.647 0.342,-1.599 1.016,-2.823 l 1.527,-2.586 c -0.016,-0.685 -0.763,-1.483 -1.39,-1.483 m 29.104,-4.407 -4.732,0.709 c -2.9,0.532 -4.377,1.242 -4.377,2.131 0,0.293 0.532,0.77 1.597,1.3 1.479,0.71 2.78,1.718 3.904,3.018 1.36,1.479 2.015,2.957 2.015,4.378 0,1.481 -0.711,2.723 -2.132,3.848 -1.421,1.123 -2.897,1.656 -4.438,1.656 -0.235,0 -0.944,-0.178 -1.184,-0.178 -1.123,0 -2.247,-0.355 -3.371,-1.006 -1.241,-0.77 -1.834,-1.717 -1.834,-2.779 0,-1.48 1.714,-2.841 3.312,-2.841 0.888,0 1.358,0.354 1.358,1.123 0,0.531 -0.647,1.241 -2.009,2.188 0.888,0.65 2.247,1.006 4.081,1.006 1.715,0 3.846,-1.359 3.846,-3.019 0,-1.834 -1.893,-3.727 -5.62,-5.737 -1.599,-0.83 -2.426,-2.013 -2.426,-3.551 0,-1.123 1.243,-2.13 3.787,-2.897 2.012,-0.652 3.785,-1.007 5.324,-1.007 1.952,0 2.958,0.474 3.018,1.422 z" fill="#0b314c" id="path13" style="stroke-width:1.00016;stroke-dasharray:none" /><path d="m 426.543,154.727 c -0.125,0 -0.359,-0.045 -0.606,-0.091 a 4.256,4.256 0 0 0 -0.576,-0.088 c -1.099,0 -2.249,-0.342 -3.415,-1.017 -1.249,-0.771 -1.88,-1.731 -1.88,-2.856 0,-1.479 1.687,-2.93 3.404,-2.93 0.96,0 1.446,0.407 1.446,1.212 0,0.559 -0.616,1.255 -1.944,2.188 0.895,0.608 2.214,0.918 3.927,0.918 1.69,0 3.757,-1.352 3.757,-2.93 0,-1.783 -1.821,-3.636 -5.571,-5.66 -1.642,-0.851 -2.472,-2.069 -2.472,-3.628 0,-1.188 1.33,-2.221 3.849,-2.982 2.1,-0.679 3.851,-1.011 5.351,-1.011 1.999,0 3.044,0.508 3.104,1.504 l 0.002,0.024 -0.148,0.3 -4.779,0.717 c -2.853,0.522 -4.302,1.209 -4.302,2.041 0,0.209 0.405,0.651 1.548,1.223 a 12.111,12.111 0 0 1 3.934,3.04 c 1.349,1.465 2.033,2.959 2.033,4.437 0,1.483 -0.709,2.762 -2.164,3.912 -1.411,1.113 -2.924,1.677 -4.498,1.677 m -3.075,-6.804 c -1.627,0 -3.228,1.361 -3.228,2.749 0,1.059 0.604,1.969 1.793,2.705 1.139,0.658 2.258,0.995 3.325,0.995 0.127,0 0.362,0.043 0.607,0.088 0.229,0.042 0.467,0.087 0.575,0.087 1.533,0 3.009,-0.551 4.381,-1.637 1.412,-1.117 2.099,-2.354 2.099,-3.776 0,-1.431 -0.67,-2.882 -1.988,-4.317 -1.111,-1.287 -2.415,-2.295 -3.878,-2.998 -0.615,-0.308 -1.646,-0.893 -1.646,-1.379 0,-0.942 1.456,-1.67 4.451,-2.219 l 4.688,-0.703 0.088,-0.174 c -0.072,-0.871 -1.056,-1.313 -2.928,-1.313 -1.481,0 -3.214,0.327 -5.296,1.001 -2.439,0.736 -3.728,1.712 -3.728,2.814 0,1.483 0.801,2.652 2.378,3.473 3.813,2.06 5.666,3.962 5.666,5.815 0,1.722 -2.149,3.104 -3.933,3.104 -1.819,0 -3.212,-0.344 -4.135,-1.021 l -0.101,-0.072 0.103,-0.07 c 1.328,-0.926 1.975,-1.616 1.975,-2.116 0.003,-0.699 -0.414,-1.036 -1.268,-1.036 m 22.359,-8.253 c -1.479,3.844 -2.544,7.217 -3.254,9.996 0.062,0.592 0.121,0.889 0.177,0.889 0.18,0 0.711,-0.355 1.008,-0.355 0.296,0 0.412,0.236 0.412,0.709 0,1.007 -1.24,2.367 -2.189,2.367 -1.182,0 -1.771,-0.89 -1.771,-2.604 0,-1.24 0.411,-3.017 1.182,-5.266 1.006,-2.898 1.539,-4.676 1.657,-5.326 -1.304,-0.116 -2.603,-0.234 -3.904,-0.411 -1.834,-0.297 -2.722,-0.946 -2.722,-1.953 0,-0.532 0.354,-0.829 1.124,-0.829 0.294,0 0.708,0.119 1.124,0.297 0.474,0.176 2.071,0.295 4.791,0.414 0.354,0 0.593,-0.121 0.65,-0.297 l 4.143,-12.779 c 0.472,-1.479 1.005,-2.484 1.596,-3.018 0.949,0.412 1.424,0.946 1.424,1.598 l -4.616,13.961 c 0.298,0 0.89,-0.235 1.125,-0.235 h 2.427 c 1.716,0 2.543,0.235 2.543,0.711 0,0.413 -1.006,0.888 -2.959,1.301 z" fill="#0b314c" id="path14" style="stroke-width:1.00016;stroke-dasharray:none" /><path d="m 441.98,153.365 c -1.235,0 -1.861,-0.905 -1.861,-2.693 0,-1.226 0.389,-2.957 1.188,-5.295 0.865,-2.496 1.471,-4.425 1.635,-5.214 -1.242,-0.114 -2.522,-0.231 -3.812,-0.408 -1.856,-0.298 -2.797,-0.985 -2.797,-2.039 0,-0.419 0.212,-0.918 1.212,-0.918 0.294,0 0.702,0.108 1.158,0.304 0.425,0.158 1.85,0.279 4.762,0.409 0.299,0 0.515,-0.092 0.562,-0.237 l 4.142,-12.778 c 0.476,-1.485 1.021,-2.515 1.623,-3.056 l 0.043,-0.037 0.054,0.023 c 0.978,0.428 1.473,0.99 1.473,1.68 l -0.005,0.024 -4.573,13.834 c 0.139,-0.022 0.312,-0.069 0.47,-0.112 0.209,-0.061 0.404,-0.111 0.527,-0.111 h 2.426 c 1.797,0 2.634,0.252 2.634,0.799 0,0.617 -1.647,1.095 -3.03,1.387 l -3.915,0.819 c -1.375,3.575 -2.459,6.915 -3.229,9.93 0.055,0.545 0.102,0.726 0.122,0.785 0.071,-0.019 0.2,-0.076 0.312,-0.13 0.221,-0.104 0.473,-0.219 0.657,-0.219 0.451,0 0.505,0.455 0.505,0.797 -0.002,1.056 -1.302,2.456 -2.283,2.456 m -4.435,-16.386 c -0.697,0 -1.035,0.241 -1.035,0.739 0,0.968 0.865,1.578 2.646,1.865 a 90.75,90.75 0 0 0 3.9,0.413 l 0.097,0.01 -0.018,0.096 c -0.135,0.741 -0.741,2.688 -1.661,5.338 -0.794,2.316 -1.179,4.029 -1.179,5.235 0,1.669 0.566,2.515 1.686,2.515 0.882,0 2.102,-1.32 2.102,-2.278 0,-0.547 -0.166,-0.62 -0.325,-0.62 -0.147,0 -0.39,0.114 -0.582,0.202 -0.202,0.096 -0.33,0.153 -0.425,0.153 -0.104,0 -0.173,-0.066 -0.266,-0.968 l -0.002,-0.017 0.006,-0.018 c 0.774,-3.035 1.87,-6.402 3.256,-10.007 l 0.019,-0.045 0.048,-0.011 3.963,-0.828 c 2.126,-0.452 2.888,-0.923 2.888,-1.214 0,-0.282 -0.427,-0.622 -2.454,-0.622 h -2.426 c -0.1,0 -0.294,0.054 -0.48,0.107 -0.231,0.062 -0.475,0.127 -0.645,0.127 h -0.121 l 0.037,-0.116 4.61,-13.946 c -0.006,-0.593 -0.45,-1.09 -1.314,-1.479 -0.558,0.529 -1.073,1.517 -1.527,2.937 l -4.145,12.782 c -0.072,0.222 -0.349,0.355 -0.735,0.355 -2.977,-0.129 -4.37,-0.25 -4.822,-0.42 -0.432,-0.182 -0.83,-0.285 -1.096,-0.285 m 20.112,4.346 c 0.06,0.948 -0.296,2.307 -1.064,4.142 a 46.491,46.491 0 0 0 -1.655,4.082 c -0.179,1.066 -0.592,2.485 -1.124,4.26 -0.179,0.355 -0.475,0.532 -0.947,0.532 -0.767,0.06 -1.184,-0.413 -1.239,-1.422 -0.061,-0.944 1.183,-4.733 3.728,-11.299 0.174,-0.412 0.471,-0.771 0.888,-1.183 0.412,0 0.826,0.236 1.36,0.709 0.053,0.062 0.053,0.122 0.053,0.179 m 1.718,-5.207 c -0.356,0.889 -0.709,1.36 -1.125,1.421 -0.533,0 -1.479,-1.005 -1.536,-1.655 -0.062,-1.007 0.708,-3.019 1.598,-3.019 0.944,-0.061 1.478,0.412 1.536,1.357 -0.001,0.477 -0.178,1.13 -0.473,1.896" fill="#0b314c" id="path15" style="stroke-width:1.00016;stroke-dasharray:none" /><path d="m 452.742,154.436 c -0.744,0 -1.149,-0.508 -1.207,-1.51 -0.061,-0.973 1.194,-4.788 3.733,-11.338 0.162,-0.383 0.427,-0.734 0.906,-1.214 l 0.024,-0.024 h 0.037 c 0.415,0 0.841,0.219 1.42,0.731 0.089,0.091 0.089,0.179 0.089,0.246 0.061,0.946 -0.29,2.312 -1.071,4.174 a 45.089,45.089 0 0 0 -1.653,4.077 c -0.177,1.056 -0.596,2.492 -1.124,4.256 -0.203,0.406 -0.538,0.595 -1.033,0.595 a 0.907,0.907 0 0 1 -0.121,0.007 m 3.531,-13.907 c -0.447,0.447 -0.691,0.775 -0.843,1.126 -3.148,8.128 -3.761,10.61 -3.72,11.262 0.059,0.955 0.438,1.384 1.146,1.335 0.439,0 0.708,-0.148 0.873,-0.484 0.522,-1.742 0.941,-3.17 1.117,-4.232 a 45.463,45.463 0 0 1 1.665,-4.104 c 0.768,-1.832 1.111,-3.175 1.057,-4.101 0,-0.062 -0.003,-0.088 -0.035,-0.12 -0.517,-0.463 -0.898,-0.67 -1.26,-0.682 m 1.983,-2.901 h -0.006 c -0.59,0 -1.562,-1.039 -1.628,-1.737 -0.043,-0.762 0.364,-2.095 0.979,-2.742 0.23,-0.246 0.468,-0.369 0.706,-0.369 0.049,-0.004 0.104,-0.004 0.155,-0.004 0.892,0 1.414,0.512 1.473,1.445 0,0.465 -0.155,1.094 -0.479,1.932 -0.386,0.957 -0.752,1.414 -1.194,1.477 z m 0.208,-4.677 -0.15,0.002 c -0.192,0 -0.387,0.107 -0.582,0.314 -0.574,0.609 -0.973,1.902 -0.931,2.61 0.051,0.583 0.953,1.563 1.441,1.573 0.366,-0.057 0.697,-0.491 1.049,-1.365 0.312,-0.816 0.465,-1.424 0.465,-1.861 -0.051,-0.842 -0.488,-1.273 -1.292,-1.273 m 19.189,17.604 c -1.243,0 -2.25,-0.531 -2.958,-1.654 -0.649,-0.947 -0.947,-2.071 -0.947,-3.434 0,-0.296 0.299,-1.24 0.829,-2.723 0.593,-1.479 0.889,-2.307 0.889,-2.482 -1.718,1.358 -2.957,2.426 -3.727,3.252 l -4.852,5.504 c -2.484,2.661 -4.142,4.021 -4.972,4.021 -0.945,0 -1.421,-0.533 -1.421,-1.538 1.065,-2.78 2.725,-6.863 4.973,-12.306 0.708,-1.717 1.301,-2.543 1.833,-2.543 0.473,0 1.36,0.649 1.36,1.123 0,0.061 -1.24,3.074 -3.667,8.992 l 0.295,0.236 c 3.312,-3.551 5.09,-5.445 5.386,-5.68 2.662,-2.544 4.729,-3.848 6.093,-3.848 0.888,0 1.48,1.125 1.48,2.015 0,0.295 -0.414,1.419 -1.185,3.252 -0.769,1.834 -1.126,3.077 -1.126,3.727 0,1.363 0.593,2.071 1.717,2.071 0.297,0 1.065,-0.177 1.362,-0.177 0.769,0 1.124,0.297 1.124,0.827 10e-4,0.891 -0.828,1.365 -2.486,1.365" fill="#0b314c" id="path16" style="stroke-width:1.00016;stroke-dasharray:none" /><path d="m 461.918,153.128 c -0.988,0 -1.51,-0.562 -1.51,-1.627 l 0.008,-0.031 c 0.989,-2.591 2.522,-6.387 4.969,-12.309 0.732,-1.772 1.343,-2.599 1.918,-2.599 0.537,0 1.449,0.688 1.449,1.213 0,0.062 -0.252,0.676 -2.668,6.572 l -0.982,2.394 0.179,0.144 c 3.53,-3.781 5.051,-5.4 5.336,-5.627 2.684,-2.562 4.754,-3.863 6.15,-3.863 0.973,0 1.567,1.222 1.567,2.1 0,0.305 -0.389,1.38 -1.19,3.287 -0.921,2.199 -1.117,3.224 -1.117,3.691 0,1.317 0.551,1.982 1.628,1.982 0.141,0 0.407,-0.045 0.667,-0.088 0.275,-0.046 0.539,-0.09 0.695,-0.09 1.001,0 1.211,0.498 1.211,0.916 0,0.66 -0.446,1.451 -2.573,1.451 -1.303,0 -2.322,-0.57 -3.035,-1.697 -0.646,-0.94 -0.957,-2.079 -0.957,-3.479 0,-0.296 0.265,-1.17 0.834,-2.751 0.526,-1.318 0.744,-1.941 0.828,-2.23 -1.732,1.385 -2.824,2.343 -3.521,3.091 l -4.851,5.501 c -2.546,2.725 -4.192,4.049 -5.035,4.049 m -1.334,-1.608 c 0.009,0.949 0.457,1.432 1.334,1.432 0.78,0 2.432,-1.344 4.904,-3.994 l 4.852,-5.5 c 0.728,-0.787 1.879,-1.792 3.736,-3.268 l 0.145,-0.112 v 0.185 c 0,0.12 -0.091,0.516 -0.896,2.518 -0.546,1.515 -0.821,2.42 -0.821,2.688 0,1.364 0.307,2.471 0.932,3.383 0.679,1.072 1.646,1.616 2.886,1.616 1.591,0 2.396,-0.43 2.396,-1.272 0,-0.497 -0.34,-0.74 -1.034,-0.74 -0.143,0 -0.408,0.045 -0.667,0.091 -0.276,0.045 -0.54,0.089 -0.695,0.089 -1.18,0 -1.803,-0.748 -1.803,-2.162 0,-0.697 0.391,-1.996 1.129,-3.762 0.974,-2.314 1.177,-3.027 1.177,-3.218 0,-0.804 -0.528,-1.925 -1.389,-1.925 -1.333,0 -3.418,1.324 -6.035,3.82 -0.306,0.246 -2.329,2.405 -5.377,5.678 l -0.06,0.061 -0.411,-0.329 1.031,-2.517 c 1.69,-4.123 2.623,-6.396 2.657,-6.523 -0.002,-0.396 -0.835,-1.017 -1.272,-1.017 -0.485,0 -1.059,0.813 -1.751,2.489 -2.445,5.908 -3.975,9.701 -4.968,12.289 m 37.834,-6.82 c -0.235,0.649 -0.652,1.653 -1.241,2.956 l -3.136,5.856 c -2.068,3.964 -3.255,6.15 -3.432,6.448 -1.241,2.129 -2.604,4.141 -4.143,6.033 -0.473,0.652 -1.36,0.945 -2.722,0.945 -1.598,0 -2.957,-0.945 -4.083,-2.78 -1.004,-1.656 -1.535,-3.312 -1.535,-5.028 0,-1.062 0.296,-1.597 0.944,-1.597 0.533,0 0.949,1.125 1.243,3.312 0.061,0.649 0.474,1.479 1.24,2.485 0.77,1.062 1.424,1.597 2.014,1.597 1.362,0 3.492,-2.663 6.33,-7.985 0.828,-1.537 2.188,-4.319 4.143,-8.282 -0.533,0.591 -1.422,1.419 -2.66,2.425 -2.31,1.538 -4.023,2.307 -5.209,2.307 -1.42,0 -2.426,-0.591 -3.075,-1.717 -0.533,-0.945 -0.711,-2.129 -0.593,-3.549 0.771,-6.804 4.731,-11.418 10.115,-11.418 2.073,0 3.729,1.832 3.729,3.904 0,2.012 -0.414,3.018 -1.185,3.018 -0.89,0 -1.301,-0.413 -1.301,-1.238 0,-1.361 -0.12,-2.311 -0.415,-2.843 -0.412,-0.297 -0.887,-0.474 -1.539,-0.474 -2.955,0 -5.264,2.896 -6.92,8.695 -0.059,0.414 -0.12,0.77 -0.12,1.185 0,1.241 0.474,1.896 1.421,1.896 1.716,0 4.732,-1.953 8.992,-5.918 l 1.42,-1.715 c 0.771,-0.891 1.304,-1.302 1.598,-1.302 0.711,0 1.064,0.411 1.064,1.185 z" fill="#0b314c" id="path17" style="stroke-width:1.00016;stroke-dasharray:none" /><path d="m 483.746,167.031 c -1.61,0 -3.01,-0.948 -4.156,-2.823 -1.045,-1.721 -1.553,-3.379 -1.553,-5.074 0,-1.135 0.338,-1.685 1.035,-1.685 0.588,0 1.023,1.105 1.333,3.387 0.056,0.637 0.47,1.458 1.224,2.444 0.761,1.053 1.396,1.562 1.939,1.562 0.921,0 2.753,-1.378 6.253,-7.94 0.739,-1.373 1.913,-3.756 3.537,-7.055 l 0.346,-0.701 c -0.468,0.47 -1.188,1.135 -2.27,2.011 -2.351,1.567 -4.068,2.325 -5.263,2.325 -1.416,0 -2.477,-0.59 -3.153,-1.758 -0.528,-0.943 -0.726,-2.117 -0.604,-3.603 0.383,-3.378 1.542,-6.252 3.351,-8.313 1.832,-2.084 4.202,-3.187 6.855,-3.187 2.067,0 3.814,1.828 3.814,3.995 0,2.06 -0.427,3.104 -1.271,3.104 -0.923,0 -1.391,-0.447 -1.391,-1.33 0,-1.397 -0.124,-2.281 -0.394,-2.781 -0.433,-0.301 -0.898,-0.442 -1.472,-0.442 -2.899,0 -5.198,2.901 -6.836,8.631 l -0.017,0.125 c -0.055,0.36 -0.1,0.673 -0.1,1.033 0,1.196 0.448,1.804 1.331,1.804 1.727,0 4.731,-1.979 8.934,-5.892 l 1.412,-1.706 c 0.767,-0.889 1.325,-1.335 1.665,-1.335 0.755,0 1.153,0.438 1.153,1.272 v 0.024 l -0.013,0.021 -0.946,1.599 c -0.258,0.712 -0.7,1.766 -1.237,2.946 l -3.138,5.863 c -2.016,3.858 -3.239,6.131 -3.433,6.453 -1.305,2.235 -2.66,4.213 -4.149,6.044 -0.481,0.671 -1.366,0.982 -2.786,0.982 m -4.674,-9.406 c -0.369,0 -0.857,0.154 -0.857,1.507 0,1.663 0.501,3.293 1.525,4.981 1.112,1.818 2.461,2.738 4.006,2.738 1.355,0 2.197,-0.289 2.648,-0.908 1.482,-1.826 2.836,-3.797 4.138,-6.029 0.19,-0.318 1.414,-2.588 3.429,-6.441 l 3.136,-5.858 c 0.532,-1.175 0.973,-2.222 1.235,-2.945 l 0.943,-1.59 c -0.009,-0.709 -0.336,-1.07 -0.978,-1.07 -0.159,0 -0.57,0.165 -1.53,1.271 l -1.418,1.712 c -4.244,3.954 -7.29,5.951 -9.062,5.951 -0.688,0 -1.507,-0.346 -1.507,-1.983 0,-0.373 0.049,-0.705 0.1,-1.06 l 0.021,-0.137 c 1.662,-5.824 4.02,-8.771 7.009,-8.771 0.618,0 1.125,0.155 1.591,0.489 l 0.023,0.027 c 0.292,0.522 0.426,1.438 0.426,2.885 0,0.787 0.389,1.152 1.215,1.152 0.904,0 1.095,-1.593 1.095,-2.928 0,-2.069 -1.666,-3.815 -3.639,-3.815 -5.312,0 -9.251,4.45 -10.026,11.339 -0.121,1.443 0.066,2.588 0.579,3.498 0.651,1.122 1.633,1.67 2.999,1.67 1.156,0 2.843,-0.752 5.156,-2.293 1.126,-0.912 2.067,-1.771 2.646,-2.412 l 0.43,-0.475 -0.887,1.801 c -1.624,3.299 -2.8,5.685 -3.54,7.062 -2.843,5.328 -5,8.03 -6.409,8.03 -0.615,0 -1.275,-0.52 -2.083,-1.633 -0.772,-1.013 -1.196,-1.863 -1.26,-2.529 -0.361,-2.675 -0.828,-3.236 -1.154,-3.236" fill="#0b314c" id="path18" style="stroke-width:1.00016;stroke-dasharray:none" /></g></g></svg>
