<svg xmlns="http://www.w3.org/2000/svg" width="2500" height="710" viewBox="3.895 29.322 495.555 140.703"><path d="M126.836 63.443a3.17 3.17 0 0 1-.46-.035l-46.042-6.97c-2.31-.351-4.188-2.708-4.188-5.256V32.644c0-1.987 1.126-3.322 2.804-3.322.358 0 .733.062 1.111.188l46.23 15.197c1.974.646 3.642 3.184 3.642 5.544v9.511c-.002 2.1-1.333 3.681-3.097 3.681M79.928 93.186c-2.121 0-3.784-1.835-3.784-4.18V70.471c0-2.347 1.665-4.184 3.792-4.184.104 0 .214.003.325.013l46.005 4.079c2.021.182 3.665 2.247 3.665 4.605v9.505c0 2.36-1.645 4.425-3.663 4.604L80.26 93.17c-.11.011-.223.016-.332.016M78.951 130.15c-1.68 0-2.807-1.334-2.807-3.32v-18.536c0-2.552 1.88-4.91 4.188-5.254l46.044-6.976c.156-.023.31-.035.457-.035 1.767 0 3.097 1.582 3.097 3.683v9.509c0 2.396-1.633 4.883-3.641 5.545l-46.231 15.199a3.51 3.51 0 0 1-1.107.185" fill="#f39000"/><path d="M7.052 69.578c-1.829 0-3.156-1.553-3.156-3.69v-1.549c0-2.551 1.776-5.559 3.883-6.563l58.086-27.771c.466-.223.917-.336 1.338-.336 1.346 0 2.217 1.17 2.217 2.979v18.534c0 2.56-1.829 5.049-4.076 5.547L7.812 69.49c-.255.059-.51.088-.76.088M65.872 93.038c-.148 0-.301-.011-.453-.029l-57.421-7.36c-2.263-.283-4.102-2.587-4.102-5.133v-1.557c0-2.543 1.839-4.846 4.102-5.134l57.421-7.353c.155-.021.308-.03.459-.03 2.021 0 3.543 1.732 3.543 4.03v18.536c0 1.122-.372 2.154-1.041 2.898a3.341 3.341 0 0 1-2.508 1.132M67.201 129.807c-.421 0-.871-.115-1.336-.337L7.781 101.699c-2.105-1.006-3.885-4.008-3.885-6.559v-1.558c0-2.134 1.327-3.684 3.151-3.684.25 0 .508.029.765.086l57.531 12.758c2.246.503 4.078 2.992 4.078 5.552v18.538c0 .92-.224 1.686-.646 2.217a1.95 1.95 0 0 1-1.574.758M167.985 48.229h12.366v62.226h-12.366zM200.166 93.412c.872 6.262 4.043 9.354 10.305 9.354 4.994 0 8.799-1.109 11.099-2.3l2.775 7.689c-3.33 1.665-8.086 3.091-15.3 3.091-13.08 0-20.61-8.641-20.61-22.274 0-13.396 6.977-22.038 19.264-22.038 12.365 0 18.629 8.403 18.073 22.83l-25.606 3.648zm7.056-19.183c-5.073 0-8.243 4.36-7.848 13.159l14.903-2.22c.001-7.61-2.537-10.939-7.055-10.939M249.161 111.246c-12.366 0-18.708-4.596-18.708-13.475 0-11.018 11.019-14.269 23.859-15.456v-1.983c0-4.439-3.011-5.708-7.528-5.708-4.123 0-8.323 1.348-11.098 2.616l-2.696-7.056c3.013-1.268 8.562-3.25 16.092-3.25 9.671 0 16.804 4.043 16.804 15.617v25.524c-3.567 1.904-9.356 3.171-16.725 3.171m5.15-23.225c-7.451.713-12.285 2.457-12.285 9.274 0 4.994 2.853 7.135 7.768 7.135 1.824 0 3.41-.317 4.518-.871V88.021h-.001zM285.225 111.168c-5.234 0-9.911-1.348-12.523-3.091l3.169-7.849c1.585 1.27 4.518 2.457 7.609 2.457 3.172 0 5.312-1.981 5.312-4.677 0-2.854-1.508-4.439-5.474-6.025-7.841-3.091-9.587-7.451-9.587-11.891 0-7.292 5.707-13.158 14.27-13.158 5.312 0 8.955 1.031 12.284 3.091l-3.012 7.056c-1.271-1.032-3.728-2.219-6.499-2.219-3.251 0-4.915 1.98-4.915 4.438 0 2.852 2.142 4.44 5.468 5.865 8.243 3.489 10.147 7.531 10.147 12.525 0 7.455-6.105 13.478-16.249 13.478M319.307 93.412c.872 6.262 4.041 9.354 10.303 9.354 4.995 0 8.8-1.109 11.1-2.3l2.772 7.689c-3.328 1.665-8.083 3.091-15.3 3.091-13.076 0-20.606-8.641-20.606-22.274 0-13.396 6.974-22.038 19.258-22.038 12.367 0 18.632 8.403 18.075 22.83l-25.602 3.648zm7.053-19.183c-5.074 0-8.243 4.36-7.847 13.159l14.902-2.22c.001-7.61-2.536-10.939-7.055-10.939M397.464 110.454h-11.415l-6.103-23.146c-.716-2.854-.873-5.865-.873-5.865h-.078s-.159 3.011-.948 5.865l-6.264 23.146h-11.338l-11.731-42.725h12.287l5.154 24.651c.709 3.489.79 6.185.79 6.185h.16s.079-2.615 1.033-6.185l6.496-24.651h10.145l6.105 24.651c.714 3.013 1.03 6.185 1.03 6.185h.16s.076-3.171.793-6.262l5.466-24.574h10.859l-11.728 42.725zM424.653 93.412c.87 6.262 4.046 9.354 10.306 9.354 4.992 0 8.802-1.109 11.098-2.3l2.775 7.689c-3.328 1.665-8.086 3.091-15.3 3.091-13.08 0-20.61-8.641-20.61-22.274 0-13.396 6.975-22.038 19.262-22.038 12.367 0 18.628 8.403 18.073 22.83l-25.604 3.648zm7.054-19.183c-5.073 0-8.239 4.36-7.847 13.159l14.902-2.22c.001-7.61-2.538-10.939-7.055-10.939M473.558 111.246c-7.372 0-12.604-1.346-15.458-3.169V48.229h12.365V68.76c1.981-.951 4.2-1.586 7.927-1.586 10.068 0 17.041 8.085 17.041 20.689.001 14.982-7.843 23.383-21.875 23.383m1.348-37.017c-1.981 0-3.252.318-4.439.951v27.982c.951.396 2.3.635 3.807.635 6.261 0 8.958-5.549 8.958-15.141-.003-8.323-1.748-14.427-8.326-14.427M452.822 164.082c-18.098-.441-34.513-.663-50.542-.663-84.614 0-109.854 4.323-110.11 4.385a1.564 1.564 0 0 0-.962.701c-.217.356-.279-.114-.185.287.17.704-.098 1.19.624 1.19.125 0 .25-.015.364-.043.253-.062 26.273-4.302 110.149-4.302 16.035 0 33.354.225 51.495.667.848 0 .663.208.687-.63a1.56 1.56 0 0 0-1.52-1.592" fill="#0b314c"/><path d="M291.647 170.025c-.553 0-.571-.283-.597-.676-.013-.164-.023-.347-.071-.55-.019-.067-.029-.11-.037-.135-.011-.041-.015-.06 0-.076l.015-.019h.036l.023.017c.007.008.019.015.027.015.014 0 .06-.009.122-.119.226-.364.574-.619.991-.723.182-.043 24.908-4.385 110.118-4.385 15.66 0 32.194.217 50.546.661a1.605 1.605 0 0 1 1.562 1.639c-.004.149-.001.267.001.357.005.165.007.249-.042.297-.035.037-.089.042-.14.042-.039 0-.086-.002-.146-.007-.098-.007-.229-.017-.403-.017-18.112-.441-35.438-.668-51.492-.668-83.934 0-109.963 4.258-110.141 4.301a1.322 1.322 0 0 1-.372.046m-.603-1.334a.738.738 0 0 1 .025.091c.048.208.062.396.071.561.025.396.039.595.51.595.12 0 .241-.014.352-.041.181-.041 26.221-4.303 110.162-4.303 16.055 0 33.381.227 51.494.667.176 0 .311.009.408.015.122.011.199.013.22-.008.021-.021.021-.104.016-.231-.002-.093-.005-.21-.002-.359a1.516 1.516 0 0 0-1.476-1.551c-18.352-.446-34.884-.663-50.543-.663-85.202 0-109.917 4.342-110.097 4.387a1.501 1.501 0 0 0-.937.682c-.067.109-.132.162-.2.162h-.004v-.004zM262.333 143.691c0-.12.176-.473.531-1.125.416-.649.593-1.062.593-1.241-.829 0-3.019 2.247-6.628 6.743-3.606 4.438-5.618 6.686-6.151 6.686-.709 0-1.717-.65-1.717-1.361 0 .062.533-.826 1.54-2.541 2.067-3.611 3.135-7.162 3.135-10.651 0-.648-.179-2.249-.179-2.897 0-.415.354-.769 1.006-1.007 1.006.474 1.536 1.717 1.536 3.729 0 2.306-.827 5.205-2.425 8.813l1.48-1.894c1.064-1.362 1.597-1.952 1.597-1.896a179.454 179.454 0 0 1 4.319-5.026c2.365-2.604 4.021-3.904 4.908-3.904.534 0 1.422 1.184 1.422 1.832 0 .535-.888 2.604-2.662 6.215-.236.532-.591.768-1.124.768-.767.002-1.181-.414-1.181-1.243" fill="#0b314c"/><path d="M250.679 154.844c-.757 0-1.723-.646-1.801-1.357h-.004l-.001-.062v-.027h.087l-.055-.064c.103-.107 1.168-1.927 1.519-2.523 2.072-3.615 3.121-7.183 3.121-10.604 0-.32-.044-.89-.087-1.442-.045-.554-.09-1.127-.09-1.455 0-.453.379-.841 1.063-1.09l.036-.015.032.017c1.054.497 1.589 1.777 1.589 3.809 0 2.125-.703 4.816-2.154 8.209l1.049-1.338c.874-1.118 1.412-1.756 1.603-1.902a176.49 176.49 0 0 1 4.316-5.026c2.374-2.61 4.05-3.936 4.976-3.936.607 0 1.511 1.261 1.511 1.922 0 .553-.873 2.598-2.67 6.253-.248.559-.633.816-1.205.816-.833 0-1.272-.459-1.272-1.33 0-.131.134-.414.543-1.168.405-.629.527-.947.567-1.099-.86.181-3.028 2.435-6.453 6.699-3.931 4.829-5.676 6.713-6.22 6.713m-1.627-1.419c.026.632.941 1.24 1.626 1.24.596 0 3.562-3.554 6.081-6.651 3.714-4.623 5.84-6.775 6.695-6.775h.09v.088c0 .22-.216.677-.606 1.289-.167.305-.518.951-.518 1.076 0 .766.366 1.154 1.094 1.154.503 0 .823-.222 1.045-.718 1.761-3.581 2.652-5.659 2.652-6.176 0-.621-.857-1.743-1.334-1.743-.601 0-1.93.672-4.844 3.874a180.985 180.985 0 0 0-4.312 5.026l-.159.188v-.048c-.204.221-.661.758-1.438 1.75l-1.92 2.459.291-.655c1.626-3.675 2.417-6.547 2.417-8.779 0-1.934-.488-3.153-1.453-3.629-.589.221-.914.545-.914.907 0 .319.048.892.091 1.442.044.554.09 1.128.09 1.456 0 3.455-1.061 7.052-3.146 10.694-1.084 1.847-1.407 2.379-1.528 2.531M281.38 151.087c-2.78 1.599-5.796 2.427-8.991 2.427-.475 0-1.123-.296-2.011-.828-1.243-.889-1.894-2.131-1.894-3.729 0-1.952 1.124-4.496 3.429-7.632 2.31-3.134 4.261-4.731 5.799-4.731 2.364 0 4.32 1.299 4.32 3.607 0 1.537-1.186 3.076-3.551 4.674-2.19 1.479-4.143 2.189-5.74 2.189h-.532c-.177-.061-.354-.061-.471-.061-.179 0-.356.354-.594 1.004-.234.653-.355 1.125-.355 1.422 0 .827.415 1.361 1.243 1.598.296.06 1.065.117 2.189.117.413 0 1.183-.178 2.307-.529 1.124-.417 1.833-.71 2.249-.949 1.537-.885 2.427-1.357 2.602-1.357.653 0 1.36.887 1.36 1.598.001.234-.472.648-1.359 1.18m-2.899-12.01c-.651 0-1.657.709-3.018 2.188-1.359 1.479-2.128 2.543-2.307 3.194h1.063c.649 0 1.716-.593 3.312-1.774 1.598-1.183 2.366-2.07 2.366-2.604.004-.472-.883-1.004-1.416-1.004" fill="#0b314c"/><path d="M272.388 153.604c-.458 0-1.074-.254-2.059-.843-1.286-.918-1.936-2.196-1.936-3.805 0-1.99 1.161-4.575 3.448-7.685 2.328-3.164 4.303-4.77 5.868-4.77 2.637 0 4.409 1.484 4.409 3.697 0 1.564-1.177 3.117-3.59 4.747-2.135 1.44-4.136 2.204-5.789 2.204l-.56-.004c-.164-.057-.334-.057-.444-.057-.167 0-.425.712-.511.947-.229.637-.351 1.104-.351 1.389 0 .792.387 1.285 1.18 1.514.263.051.992.113 2.165.113.402 0 1.171-.178 2.28-.527 1.145-.422 1.835-.711 2.231-.939 2.092-1.206 2.508-1.372 2.645-1.372.733 0 1.449.966 1.449 1.687 0 .276-.471.701-1.404 1.259-2.811 1.622-5.85 2.445-9.031 2.445m5.324-16.922c-1.507 0-3.433 1.581-5.726 4.697-2.266 3.077-3.414 5.627-3.414 7.578 0 1.546.623 2.775 1.857 3.657.934.559 1.538.811 1.958.811 3.148 0 6.158-.812 8.947-2.416 1.223-.729 1.317-1.03 1.317-1.104 0-.691-.69-1.509-1.273-1.509-.146 0-1.005.453-2.557 1.349-.406.229-1.102.524-2.263.951-1.13.357-1.915.538-2.336.538-1.188 0-1.933-.065-2.209-.12-.871-.249-1.312-.815-1.312-1.685 0-.309.118-.783.359-1.449.291-.797.461-1.064.676-1.064.12 0 .301 0 .487.061h.518c1.617 0 3.583-.752 5.69-2.175 2.359-1.594 3.51-3.101 3.51-4.6.002-2.431-2.124-3.52-4.229-3.52m-3.49 7.868h-1.182l.029-.112c.184-.672.946-1.728 2.328-3.229 1.352-1.473 2.388-2.218 3.083-2.218.554 0 1.509.54 1.509 1.093 0 .74-1.307 1.861-2.403 2.675-1.67 1.238-2.709 1.791-3.364 1.791m-.944-.179h.946c.604 0 1.642-.559 3.259-1.757 2.026-1.502 2.33-2.23 2.33-2.531 0-.406-.826-.917-1.33-.917-.441 0-1.312.374-2.952 2.159-1.268 1.38-2.026 2.404-2.253 3.046M297.471 124.583L287 150.852c.235 0 .829-.297 1.064-.297.474 0 .71.178.71.532 0 .118 0 .237-.062.354 0 1.184-1.479 2.485-2.661 2.485-1.005 0-1.536-.709-1.536-2.131 0-1.599.829-4.317 2.424-8.165a596.357 596.357 0 0 1 5.505-12.896l1.773-4.144c.944-2.188 1.537-3.312 1.833-3.368.297-.062.53-.119.711-.119.413 0 .648.177.709.53l.001.95z" fill="#0b314c"/><path d="M286.052 154.016c-.741 0-1.626-.384-1.626-2.219 0-1.574.796-4.257 2.432-8.195a619.302 619.302 0 0 1 5.504-12.899l1.774-4.142c1.267-2.929 1.659-3.377 1.898-3.425l.169-.034c.228-.048.406-.084.559-.084.573 0 .752.328.798.605v.979l-.005.019-10.417 26.12c.108-.027.24-.075.365-.119.218-.08.427-.153.56-.153.66 0 .8.339.8.621 0 .117 0 .245-.06.375-.017 1.195-1.474 2.551-2.751 2.551m10.709-30.823a2.89 2.89 0 0 0-.521.08l-.171.035c-.244.049-.838 1.166-1.771 3.32l-1.773 4.141c-2.13 4.865-4.033 9.323-5.501 12.896-1.628 3.919-2.421 6.577-2.421 8.13 0 1.354.486 2.042 1.45 2.042 1.179 0 2.574-1.3 2.574-2.396l.008-.038c.05-.102.05-.205.05-.316 0-.188-.064-.444-.621-.444-.104 0-.313.075-.502.145-.219.077-.428.154-.562.154h-.131l.049-.123 10.464-26.25v-.933c-.053-.297-.247-.443-.621-.443M299.601 141.325c.06.948-.298 2.307-1.065 4.142a46.369 46.369 0 0 0-1.657 4.082c-.177 1.066-.591 2.485-1.122 4.26-.18.355-.476.532-.948.532-.768.06-1.185-.413-1.239-1.422-.059-.944 1.183-4.733 3.727-11.299.178-.412.473-.771.889-1.183.413 0 .828.236 1.358.709.057.062.057.122.057.179m1.714-5.207c-.356.889-.709 1.36-1.125 1.421-.532 0-1.479-1.005-1.536-1.655-.062-1.007.708-3.019 1.595-3.019.947-.061 1.479.412 1.537 1.357.002.477-.175 1.13-.471 1.896" fill="#0b314c"/><path d="M294.684 154.436c-.742 0-1.149-.508-1.206-1.51-.062-.973 1.191-4.788 3.732-11.338.162-.383.425-.734.905-1.214l.027-.024h.036c.415 0 .843.219 1.421.731.088.091.088.179.088.246.061.946-.292 2.312-1.073 4.174a45.975 45.975 0 0 0-1.654 4.077c-.174 1.056-.595 2.492-1.123 4.256-.201.406-.536.595-1.033.595a.912.912 0 0 1-.12.007m3.533-13.907c-.448.447-.693.775-.844 1.126-3.147 8.128-3.761 10.61-3.719 11.262.056.955.438 1.384 1.146 1.335.438 0 .707-.148.872-.484.521-1.742.939-3.17 1.116-4.232a45.771 45.771 0 0 1 1.663-4.104c.769-1.832 1.114-3.175 1.058-4.101 0-.062 0-.088-.033-.12-.52-.463-.901-.67-1.259-.682m1.98-2.901h-.007c-.59 0-1.563-1.039-1.626-1.737-.045-.762.362-2.095.979-2.742.229-.246.466-.369.704-.369.05-.004.104-.004.157-.004.891 0 1.413.512 1.473 1.445 0 .465-.157 1.094-.479 1.932-.382.957-.752 1.414-1.195 1.477l-.006-.002zm.208-4.677l-.151.002c-.19 0-.387.107-.583.314-.572.609-.972 1.902-.931 2.61.055.583.955 1.563 1.446 1.573.361-.057.692-.491 1.046-1.365.313-.816.465-1.424.465-1.861-.05-.842-.487-1.273-1.292-1.273M320.541 151.855c0 .77-1.064 1.537-1.951 1.537-1.776 0-3.376-1.655-4.733-5.027l-2.839 2.486c-.532.293-1.361.709-2.546 1.183-1.184.472-2.013.71-2.427.71-2.425 0-3.609-1.42-3.609-4.26 0-2.189 1.125-4.793 3.433-7.869 2.428-3.312 4.732-4.969 6.863-4.969 1.772 0 2.603 1.239 2.544 3.785v.709c.829-1.123 1.419-1.656 1.834-1.656.295 0 .768.238 1.481.77-.062.355-.477 1.596-1.188 3.785-.531 1.48-.828 2.782-.828 3.848 0 .77.118 1.598.354 2.545.354 1.24.77 1.834 1.302 1.834.06 0 .651-.121 1.776-.298.355.356.534.651.534.887m-9.583-4.317c2.068-2.013 3.193-3.667 3.313-5.029-.475.06-.711.119-.653.119-.77 0-1.124-.533-1.124-1.657 0-.65.297-2.07.354-2.603-1.597.413-3.37 1.952-5.267 4.496-1.894 2.545-2.839 4.614-2.839 6.329 0 .473.652 1.361 1.064 1.361 1.364.001 3.08-1.005 5.152-3.016" fill="#0b314c"/><path d="M318.59 153.482c-1.814 0-3.419-1.672-4.769-4.969l-2.748 2.403c-.503.281-1.343.707-2.567 1.197-1.172.471-2.021.716-2.456.716-2.455 0-3.699-1.462-3.699-4.348 0-2.236 1.129-4.827 3.447-7.922 2.432-3.32 4.766-5.004 6.936-5.004.752 0 1.348.221 1.775.66.61.625.892 1.678.854 3.217v.44c.768-1.006 1.325-1.479 1.746-1.479.329 0 .816.252 1.532.787l.043.032-.009.054c-.052.306-.343 1.199-.87 2.828l-.317.971c-.547 1.519-.824 2.802-.824 3.818 0 .749.118 1.574.354 2.522.338 1.188.736 1.767 1.214 1.767.025-.002.167-.025.341-.058a73.24 73.24 0 0 1 1.422-.236l.045-.009.031.031c.374.375.559.687.559.949.001.867-1.142 1.633-2.04 1.633m-4.701-5.265l.048.114c1.332 3.301 2.896 4.976 4.653 4.976.886 0 1.86-.759 1.86-1.449 0-.205-.159-.472-.475-.793-.627.101-1.087.18-1.373.229-.263.047-.34.061-.371.061-.575 0-1.017-.603-1.384-1.896-.241-.966-.359-1.805-.359-2.568 0-1.037.28-2.342.834-3.876l.313-.968c.48-1.482.78-2.406.854-2.749-.643-.478-1.104-.718-1.382-.718-.381 0-.958.529-1.763 1.62l-.16.218v-.979c.032-1.491-.229-2.502-.809-3.094-.397-.406-.936-.604-1.647-.604-2.109 0-4.395 1.658-6.79 4.932-2.299 3.062-3.414 5.618-3.414 7.814 0 2.808 1.151 4.172 3.521 4.172.408 0 1.257-.25 2.394-.705 1.216-.484 2.047-.907 2.531-1.178l2.919-2.559zm-8.078 2.426c-.477 0-1.151-.938-1.151-1.449 0-1.713.932-3.799 2.854-6.383 1.929-2.593 3.716-4.114 5.312-4.528l.127-.033-.016.128a18.01 18.01 0 0 1-.122.803c-.104.611-.232 1.372-.232 1.79 0 1.066.312 1.552 1.009 1.567.082-.033.267-.068.668-.118l.109-.013-.01.107c-.118 1.353-1.21 3.018-3.341 5.086-2.078 2.018-3.83 3.043-5.207 3.043m6.933-12.154c-1.524.45-3.233 1.938-5.087 4.428-1.898 2.551-2.823 4.604-2.823 6.276 0 .451.628 1.272.978 1.272 1.33 0 3.041-1.005 5.084-2.989 2.04-1.982 3.111-3.576 3.275-4.865a4.652 4.652 0 0 0-.521.094l-.03-.079v.091l-.083-.003c-.761-.036-1.129-.608-1.129-1.739 0-.437.127-1.203.231-1.819.042-.261.083-.491.105-.667M334.856 151.266c-2.781 2.482-5.028 3.727-6.743 3.727-1.481 0-2.251-.77-2.251-2.307 0-.475.179-1.065.592-1.832.414-.771.771-1.188 1.188-1.188.412 0 .59.297.59.947 0 .473-.295 1.717-.295 2.188 0 .061 0 .116.058.177 1.42-.295 3.254-1.479 5.562-3.668 2.13-2.013 3.192-3.666 3.192-4.969 0-1.835-1.36-3.787-3.076-3.787-1.42 0-2.959.709-4.673 2.07-1.479 1.241-2.426 2.307-2.78 3.193-.532 1.242-1.537 4.082-3.137 8.52-.058.298-1.063.652-1.479.652-.474 0-.709-.354-.709-1.066 0-.059.235-.65.648-1.831.475-1.241.71-1.896.77-1.954 1.007-3.017 2.071-6.271 3.254-9.701 2.781-8.045 4.498-13.961 5.146-17.808.181-.295.358-.415.653-.415 1.005 0 1.479.594 1.479 1.717 0 .651-.711 3.431-2.189 8.226-1.124 3.728-2.012 6.506-2.663 8.342 1.953-1.479 3.786-2.248 5.502-2.248 1.598 0 2.958.707 3.965 2.128 1.008 1.361 1.539 2.898 1.539 4.616-.001 1.714-1.362 3.786-4.143 6.271" fill="#0b314c"/><path d="M328.112 155.079c-1.529 0-2.338-.827-2.338-2.396 0-.51.196-1.123.603-1.877.47-.871.838-1.229 1.264-1.229.606 0 .68.589.68 1.037 0 .242-.073.662-.149 1.105-.072.42-.146.852-.146 1.082 0 .033.001.06.01.078 1.416-.316 3.253-1.539 5.461-3.635 2.104-1.983 3.168-3.634 3.168-4.904 0-1.744-1.278-3.697-2.986-3.697-1.366 0-2.878.67-4.617 2.052-1.51 1.269-2.411 2.301-2.753 3.157-.456 1.06-1.257 3.289-2.472 6.668l-.665 1.851c-.071.364-1.164.707-1.562.707-.53 0-.797-.388-.797-1.151 0-.043.022-.117.184-.552.111-.303.27-.738.468-1.313l.281-.739c.326-.854.435-1.138.493-1.224.259-.771.519-1.558.783-2.358.781-2.353 1.587-4.782 2.466-7.33 2.812-8.138 4.496-13.958 5.144-17.796l.013-.031c.194-.324.408-.456.728-.456 1.044 0 1.568.606 1.568 1.806 0 .715-.818 3.801-2.192 8.248-1.062 3.529-1.926 6.242-2.565 8.072 1.898-1.389 3.688-2.093 5.318-2.093 1.641 0 3.033.749 4.036 2.166 1.032 1.395 1.555 2.964 1.555 4.666 0 1.759-1.364 3.832-4.169 6.338-2.793 2.487-5.08 3.748-6.812 3.748m-.473-5.323c-.348 0-.678.34-1.105 1.139-.391.726-.581 1.312-.581 1.791 0 1.472.728 2.22 2.16 2.22 1.687 0 3.933-1.247 6.687-3.706 2.767-2.473 4.11-4.5 4.11-6.203 0-1.664-.513-3.198-1.523-4.562-.981-1.392-2.293-2.097-3.893-2.097-1.66 0-3.494.751-5.447 2.233l-.237.177.101-.278c.647-1.824 1.543-4.631 2.66-8.34 1.369-4.436 2.188-7.497 2.188-8.195 0-1.095-.456-1.627-1.392-1.627-.255 0-.403.094-.563.358-.655 3.847-2.338 9.669-5.148 17.803-.88 2.55-1.685 4.98-2.465 7.331-.271.805-.53 1.596-.788 2.369l-.024.035c-.04.055-.218.527-.467 1.181l-.277.741c-.2.573-.363 1.01-.474 1.312-.094.259-.17.463-.175.5 0 .968.468.968.622.968.418 0 1.349-.358 1.392-.578l.67-1.865c1.216-3.377 2.016-5.61 2.473-6.673.353-.882 1.27-1.939 2.803-3.229 1.776-1.406 3.324-2.092 4.733-2.092 1.81 0 3.165 2.045 3.165 3.874 0 1.32-1.083 3.015-3.224 5.032-2.261 2.146-4.148 3.387-5.604 3.689l-.047.013-.033-.035c-.084-.085-.084-.173-.084-.238 0-.245.069-.665.148-1.11.07-.416.146-.85.146-1.077-.005-.76-.258-.861-.507-.861M353.726 124.583l-10.473 26.269c.236 0 .829-.297 1.064-.297.473 0 .71.178.71.532 0 .118 0 .237-.06.354 0 1.184-1.479 2.485-2.663 2.485-1.004 0-1.537-.709-1.537-2.131 0-1.599.829-4.317 2.427-8.165 1.359-3.312 3.193-7.63 5.501-12.896l1.773-4.144c.946-2.188 1.539-3.312 1.834-3.368.297-.062.531-.119.712-.119.412 0 .649.177.709.53l.003.95z" fill="#0b314c"/><path d="M342.307 154.016c-.743 0-1.626-.384-1.626-2.219 0-1.574.796-4.257 2.431-8.195a619.895 619.895 0 0 1 5.505-12.899l1.772-4.142c1.267-2.929 1.661-3.377 1.898-3.425l.17-.034c.229-.048.405-.084.559-.084.574 0 .753.328.798.605l.002.979-.006.019-10.417 26.12c.108-.027.24-.075.366-.119.218-.08.425-.153.557-.153.661 0 .803.339.803.621 0 .117 0 .245-.062.375-.016 1.195-1.472 2.551-2.75 2.551m10.709-30.823c-.133 0-.312.037-.521.08l-.171.035c-.244.049-.838 1.166-1.771 3.32l-1.775 4.141a609.913 609.913 0 0 0-5.499 12.896c-1.63 3.919-2.421 6.577-2.421 8.13 0 1.354.486 2.042 1.449 2.042 1.178 0 2.575-1.3 2.575-2.396l.007-.038c.051-.102.051-.205.051-.316 0-.188-.063-.444-.622-.444-.103 0-.312.075-.502.145-.219.077-.43.154-.562.154h-.131l.049-.123 10.465-26.25v-.933c-.052-.297-.25-.443-.621-.443M362.715 151.087c-2.778 1.599-5.795 2.427-8.991 2.427-.473 0-1.122-.296-2.012-.828-1.241-.889-1.893-2.131-1.893-3.729 0-1.952 1.124-4.496 3.431-7.632 2.309-3.134 4.26-4.731 5.797-4.731 2.365 0 4.32 1.299 4.32 3.607 0 1.537-1.185 3.076-3.552 4.674-2.188 1.479-4.141 2.189-5.738 2.189h-.533c-.174-.061-.354-.061-.472-.061-.177 0-.354.354-.592 1.004-.236.653-.356 1.125-.356 1.422 0 .827.415 1.361 1.243 1.598.296.06 1.064.117 2.19.117.412 0 1.181-.178 2.306-.529 1.124-.417 1.833-.71 2.251-.949 1.534-.885 2.425-1.357 2.601-1.357.652 0 1.361.887 1.361 1.598 0 .234-.473.648-1.361 1.18m-2.899-12.01c-.65 0-1.655.709-3.017 2.188-1.36 1.479-2.131 2.543-2.307 3.194h1.065c.649 0 1.715-.593 3.312-1.774 1.599-1.183 2.367-2.07 2.367-2.604.002-.472-.886-1.004-1.42-1.004" fill="#0b314c"/><path d="M353.723 153.604c-.459 0-1.073-.254-2.058-.843-1.287-.918-1.936-2.196-1.936-3.805 0-1.99 1.16-4.575 3.449-7.685 2.327-3.164 4.3-4.77 5.866-4.77 2.639 0 4.41 1.484 4.41 3.697 0 1.564-1.177 3.117-3.591 4.747-2.135 1.44-4.137 2.204-5.789 2.204l-.559-.004c-.166-.057-.334-.057-.446-.057-.164 0-.423.712-.51.947-.229.637-.351 1.104-.351 1.389 0 .792.387 1.285 1.18 1.514.263.051.993.113 2.166.113.402 0 1.17-.178 2.279-.527 1.144-.422 1.835-.711 2.229-.939 2.094-1.206 2.508-1.372 2.646-1.372.733 0 1.449.966 1.449 1.687 0 .276-.471.701-1.402 1.259-2.812 1.622-5.849 2.445-9.032 2.445m5.325-16.922c-1.506 0-3.432 1.581-5.725 4.697-2.265 3.077-3.414 5.627-3.414 7.578 0 1.546.624 2.775 1.856 3.657.934.559 1.54.811 1.959.811 3.149 0 6.159-.812 8.947-2.416 1.223-.729 1.316-1.03 1.316-1.104 0-.691-.688-1.509-1.271-1.509-.146 0-1.005.453-2.558 1.349-.408.229-1.102.524-2.263.951-1.129.357-1.915.538-2.337.538-1.188 0-1.931-.065-2.209-.12-.874-.249-1.312-.815-1.312-1.685 0-.309.119-.783.36-1.449.289-.797.461-1.064.676-1.064.121 0 .302 0 .488.061h.517c1.616 0 3.582-.752 5.689-2.175 2.359-1.594 3.513-3.101 3.513-4.6-.001-2.431-2.128-3.52-4.232-3.52m-3.489 7.868h-1.184l.029-.112c.184-.672.946-1.728 2.329-3.229 1.351-1.473 2.389-2.218 3.082-2.218.554 0 1.509.54 1.509 1.093 0 .74-1.306 1.861-2.402 2.675-1.668 1.238-2.709 1.791-3.363 1.791m-.945-.179h.945c.604 0 1.642-.559 3.259-1.757 2.029-1.502 2.331-2.23 2.331-2.531 0-.406-.825-.917-1.332-.917-.44 0-1.312.374-2.95 2.159-1.267 1.38-2.027 2.404-2.253 3.046M397.796 151.382c-1.24 0-2.25-.53-2.956-1.596-.652-.946-.947-2.071-.947-3.433 0-.412.237-1.241.711-2.545.533-1.359.768-2.129.768-2.306l-.061-.12c-1.419 1.124-2.542 2.129-3.429 3.018l-4.853 5.442c-2.546 2.724-4.2 4.081-4.972 4.081-.944 0-1.419-.531-1.419-1.536 2.188-5.502 5.621-14.553 10.295-27.271.177-.414.474-.888.886-1.538.415-.652.77-1.007 1.007-1.007.477 0 1.36.71 1.36 1.184-5.62 14.97-8.754 23.19-9.466 24.789 3.376-3.608 5.325-5.619 5.738-6.034 2.898-2.779 5.086-4.142 6.447-4.142.889 0 1.481 1.125 1.481 2.013 0 .294-.414 1.418-1.186 3.253-.77 1.834-1.124 3.077-1.124 3.728 0 1.361.591 2.07 1.716 2.07.299 0 1.064-.178 1.36-.178.77 0 1.126.297 1.126.828.003.886-.825 1.3-2.482 1.3" fill="#0b314c"/><path d="M382.06 154.016c-.987 0-1.508-.562-1.508-1.627l.006-.033c2.326-5.844 5.885-15.272 10.293-27.269.176-.414.456-.864.896-1.557.442-.696.807-1.046 1.082-1.046.513 0 1.45.746 1.45 1.271l-.008.031c-5.324 14.188-8.3 21.991-9.269 24.328 3.223-3.443 5.014-5.285 5.396-5.667 2.842-2.729 5.093-4.167 6.51-4.167.972 0 1.568 1.225 1.568 2.101 0 .305-.391 1.38-1.189 3.287-.923 2.201-1.118 3.225-1.118 3.691 0 1.315.55 1.982 1.628 1.982.141 0 .407-.044.666-.087.274-.047.539-.09.694-.09 1.003 0 1.213.497 1.213.916 0 .937-.842 1.392-2.573 1.392-1.287 0-2.309-.553-3.031-1.637-.648-.941-.96-2.081-.96-3.48 0-.414.225-1.232.712-2.573.576-1.472.75-2.097.763-2.259-1.282 1.021-2.405 2.011-3.337 2.942l-4.848 5.438c-2.586 2.768-4.235 4.113-5.036 4.113m-1.333-1.612c.007.951.456 1.433 1.333 1.433.741 0 2.391-1.362 4.902-4.055l4.853-5.44c.96-.962 2.116-1.979 3.441-3.027l.085-.068.117.256c0 .223-.297 1.12-.773 2.341-.48 1.318-.704 2.116-.704 2.511 0 1.365.306 2.47.933 3.381.689 1.035 1.659 1.559 2.886 1.559 1.61 0 2.396-.396 2.396-1.213 0-.497-.338-.74-1.035-.74-.142 0-.408.046-.666.089-.274.046-.539.091-.693.091-1.181 0-1.805-.748-1.805-2.162 0-.697.392-1.996 1.129-3.763.975-2.314 1.178-3.028 1.178-3.219 0-.801-.527-1.921-1.391-1.921-1.371 0-3.578 1.424-6.385 4.115-.498.496-2.554 2.627-5.735 6.033l-.359.385.213-.483c.694-1.562 3.7-9.433 9.459-24.769-.021-.428-.852-1.076-1.272-1.076-.073 0-.361.066-.933.963-.433.686-.709 1.129-.88 1.527-4.408 11.981-7.967 21.407-10.294 27.252M417.257 146.945c-1.239 1.893-2.723 3.432-4.492 4.615-2.015 1.357-4.025 2.012-6.037 2.012-2.84 0-4.675-2.426-4.675-5.269 0-1.064.355-2.362 1.006-3.844.771-1.717 1.654-2.544 2.545-2.544.709 0 1.48.886 1.48 1.596l-1.539 2.604c-.65 1.184-1.006 2.131-1.006 2.783 0 .944.297 1.597.827 1.893.415.175 1.125.295 2.129.295 1.834 0 3.668-.89 5.562-2.604 1.894-1.717 2.84-3.49 2.84-5.324 0-1.95-.709-2.896-2.129-2.896-.71 0-1.538.413-2.427 1.301-.889.83-1.359 1.597-1.359 2.307 0 .236.413.593.413 1.006 0 .412-.473.592-1.36.592-.886 0-1.359-.592-1.359-1.773 0-1.362.649-2.661 1.893-3.905 1.243-1.301 2.545-1.952 3.903-1.952 2.132 0 4.261 1.893 4.438 3.963.237.475.355 1.006.355 1.538-.003 1.417-.36 2.602-1.008 3.606" fill="#0b314c"/><path d="M406.727 153.66c-2.715 0-4.763-2.303-4.763-5.355 0-1.044.342-2.352 1.013-3.881.762-1.697 1.671-2.596 2.626-2.596.731 0 1.567.898 1.567 1.686v.024l-.013.021-1.538 2.604c-.658 1.196-.994 2.117-.994 2.735 0 .901.271 1.529.783 1.814.426.182 1.171.284 2.085.284 1.786 0 3.587-.845 5.502-2.58 1.866-1.688 2.812-3.459 2.812-5.26 0-1.89-.667-2.81-2.04-2.81-.712 0-1.53.441-2.362 1.274-.888.829-1.337 1.582-1.337 2.247 0 .072.074.193.153.318.115.188.261.422.261.686 0 .681-1.089.681-1.448.681-.661 0-1.449-.323-1.449-1.864 0-1.358.646-2.693 1.919-3.967 1.253-1.312 2.589-1.979 3.967-1.979 2.183 0 4.334 1.918 4.524 4.027.232.474.355 1.014.355 1.563 0 1.399-.332 2.599-1.02 3.658-1.276 1.944-2.756 3.463-4.521 4.638-1.987 1.351-4.034 2.032-6.082 2.032m-1.124-11.653c-.882 0-1.73.86-2.463 2.49-.661 1.505-.997 2.788-.997 3.812 0 2.949 1.97 5.176 4.586 5.176 2.012 0 4.023-.672 5.985-1.997 1.745-1.163 3.207-2.665 4.472-4.591.666-1.028.99-2.193.99-3.561 0-.527-.119-1.046-.348-1.497l-.009-.032c-.174-2.031-2.247-3.883-4.35-3.883-1.326 0-2.618.647-3.839 1.926-1.237 1.238-1.868 2.53-1.868 3.842 0 1.119.428 1.687 1.271 1.687 1.272 0 1.272-.38 1.272-.503 0-.212-.126-.413-.236-.593-.096-.153-.177-.285-.177-.413 0-.725.453-1.499 1.387-2.371.865-.865 1.729-1.326 2.488-1.326 1.473 0 2.217 1.005 2.217 2.987 0 1.852-.965 3.665-2.868 5.391-1.95 1.767-3.79 2.625-5.622 2.625-.951 0-1.702-.104-2.161-.304-.581-.32-.883-1.001-.883-1.973 0-.647.342-1.599 1.016-2.823l1.527-2.586c-.016-.685-.763-1.483-1.39-1.483M434.707 137.6l-4.732.709c-2.9.532-4.377 1.242-4.377 2.131 0 .293.532.77 1.597 1.3 1.479.71 2.78 1.718 3.904 3.018 1.36 1.479 2.015 2.957 2.015 4.378 0 1.481-.711 2.723-2.132 3.848-1.421 1.123-2.897 1.656-4.438 1.656-.235 0-.944-.178-1.184-.178-1.123 0-2.247-.355-3.371-1.006-1.241-.77-1.834-1.717-1.834-2.779 0-1.48 1.714-2.841 3.312-2.841.888 0 1.358.354 1.358 1.123 0 .531-.647 1.241-2.009 2.188.888.65 2.247 1.006 4.081 1.006 1.715 0 3.846-1.359 3.846-3.019 0-1.834-1.893-3.727-5.62-5.737-1.599-.83-2.426-2.013-2.426-3.551 0-1.123 1.243-2.13 3.787-2.897 2.012-.652 3.785-1.007 5.324-1.007 1.952 0 2.958.474 3.018 1.422l-.119.236z" fill="#0b314c"/><path d="M426.543 154.727c-.125 0-.359-.045-.606-.091a4.256 4.256 0 0 0-.576-.088c-1.099 0-2.249-.342-3.415-1.017-1.249-.771-1.88-1.731-1.88-2.856 0-1.479 1.687-2.93 3.404-2.93.96 0 1.446.407 1.446 1.212 0 .559-.616 1.255-1.944 2.188.895.608 2.214.918 3.927.918 1.69 0 3.757-1.352 3.757-2.93 0-1.783-1.821-3.636-5.571-5.66-1.642-.851-2.472-2.069-2.472-3.628 0-1.188 1.33-2.221 3.849-2.982 2.1-.679 3.851-1.011 5.351-1.011 1.999 0 3.044.508 3.104 1.504l.002.024-.148.3-4.779.717c-2.853.522-4.302 1.209-4.302 2.041 0 .209.405.651 1.548 1.223a12.111 12.111 0 0 1 3.934 3.04c1.349 1.465 2.033 2.959 2.033 4.437 0 1.483-.709 2.762-2.164 3.912-1.411 1.113-2.924 1.677-4.498 1.677m-3.075-6.804c-1.627 0-3.228 1.361-3.228 2.749 0 1.059.604 1.969 1.793 2.705 1.139.658 2.258.995 3.325.995.127 0 .362.043.607.088.229.042.467.087.575.087 1.533 0 3.009-.551 4.381-1.637 1.412-1.117 2.099-2.354 2.099-3.776 0-1.431-.67-2.882-1.988-4.317-1.111-1.287-2.415-2.295-3.878-2.998-.615-.308-1.646-.893-1.646-1.379 0-.942 1.456-1.67 4.451-2.219l4.688-.703.088-.174c-.072-.871-1.056-1.313-2.928-1.313-1.481 0-3.214.327-5.296 1.001-2.439.736-3.728 1.712-3.728 2.814 0 1.483.801 2.652 2.378 3.473 3.813 2.06 5.666 3.962 5.666 5.815 0 1.722-2.149 3.104-3.933 3.104-1.819 0-3.212-.344-4.135-1.021l-.101-.072.103-.07c1.328-.926 1.975-1.616 1.975-2.116.003-.699-.414-1.036-1.268-1.036M445.827 139.67c-1.479 3.844-2.544 7.217-3.254 9.996.062.592.121.889.177.889.18 0 .711-.355 1.008-.355.296 0 .412.236.412.709 0 1.007-1.24 2.367-2.189 2.367-1.182 0-1.771-.89-1.771-2.604 0-1.24.411-3.017 1.182-5.266 1.006-2.898 1.539-4.676 1.657-5.326-1.304-.116-2.603-.234-3.904-.411-1.834-.297-2.722-.946-2.722-1.953 0-.532.354-.829 1.124-.829.294 0 .708.119 1.124.297.474.176 2.071.295 4.791.414.354 0 .593-.121.65-.297l4.143-12.779c.472-1.479 1.005-2.484 1.596-3.018.949.412 1.424.946 1.424 1.598l-4.616 13.961c.298 0 .89-.235 1.125-.235h2.427c1.716 0 2.543.235 2.543.711 0 .413-1.006.888-2.959 1.301l-3.968.83z" fill="#0b314c"/><path d="M441.98 153.365c-1.235 0-1.861-.905-1.861-2.693 0-1.226.389-2.957 1.188-5.295.865-2.496 1.471-4.425 1.635-5.214-1.242-.114-2.522-.231-3.812-.408-1.856-.298-2.797-.985-2.797-2.039 0-.419.212-.918 1.212-.918.294 0 .702.108 1.158.304.425.158 1.85.279 4.762.409.299 0 .515-.092.562-.237l4.142-12.778c.476-1.485 1.021-2.515 1.623-3.056l.043-.037.054.023c.978.428 1.473.99 1.473 1.68l-.005.024-4.573 13.834c.139-.022.312-.069.47-.112.209-.061.404-.111.527-.111h2.426c1.797 0 2.634.252 2.634.799 0 .617-1.647 1.095-3.03 1.387l-3.915.819c-1.375 3.575-2.459 6.915-3.229 9.93.055.545.102.726.122.785.071-.019.2-.076.312-.13.221-.104.473-.219.657-.219.451 0 .505.455.505.797-.002 1.056-1.302 2.456-2.283 2.456m-4.435-16.386c-.697 0-1.035.241-1.035.739 0 .968.865 1.578 2.646 1.865a90.75 90.75 0 0 0 3.9.413l.097.01-.018.096c-.135.741-.741 2.688-1.661 5.338-.794 2.316-1.179 4.029-1.179 5.235 0 1.669.566 2.515 1.686 2.515.882 0 2.102-1.32 2.102-2.278 0-.547-.166-.62-.325-.62-.147 0-.39.114-.582.202-.202.096-.33.153-.425.153-.104 0-.173-.066-.266-.968l-.002-.017.006-.018c.774-3.035 1.87-6.402 3.256-10.007l.019-.045.048-.011 3.963-.828c2.126-.452 2.888-.923 2.888-1.214 0-.282-.427-.622-2.454-.622h-2.426c-.1 0-.294.054-.48.107-.231.062-.475.127-.645.127h-.121l.037-.116 4.61-13.946c-.006-.593-.45-1.09-1.314-1.479-.558.529-1.073 1.517-1.527 2.937l-4.145 12.782c-.072.222-.349.355-.735.355-2.977-.129-4.37-.25-4.822-.42-.432-.182-.83-.285-1.096-.285M457.657 141.325c.06.948-.296 2.307-1.064 4.142a46.491 46.491 0 0 0-1.655 4.082c-.179 1.066-.592 2.485-1.124 4.26-.179.355-.475.532-.947.532-.767.06-1.184-.413-1.239-1.422-.061-.944 1.183-4.733 3.728-11.299.174-.412.471-.771.888-1.183.412 0 .826.236 1.36.709.053.062.053.122.053.179m1.718-5.207c-.356.889-.709 1.36-1.125 1.421-.533 0-1.479-1.005-1.536-1.655-.062-1.007.708-3.019 1.598-3.019.944-.061 1.478.412 1.536 1.357-.001.477-.178 1.13-.473 1.896" fill="#0b314c"/><path d="M452.742 154.436c-.744 0-1.149-.508-1.207-1.51-.061-.973 1.194-4.788 3.733-11.338.162-.383.427-.734.906-1.214l.024-.024h.037c.415 0 .841.219 1.42.731.089.091.089.179.089.246.061.946-.29 2.312-1.071 4.174a45.089 45.089 0 0 0-1.653 4.077c-.177 1.056-.596 2.492-1.124 4.256-.203.406-.538.595-1.033.595a.907.907 0 0 1-.121.007m3.531-13.907c-.447.447-.691.775-.843 1.126-3.148 8.128-3.761 10.61-3.72 11.262.059.955.438 1.384 1.146 1.335.439 0 .708-.148.873-.484.522-1.742.941-3.17 1.117-4.232a45.463 45.463 0 0 1 1.665-4.104c.768-1.832 1.111-3.175 1.057-4.101 0-.062-.003-.088-.035-.12-.517-.463-.898-.67-1.26-.682m1.983-2.901h-.006c-.59 0-1.562-1.039-1.628-1.737-.043-.762.364-2.095.979-2.742.23-.246.468-.369.706-.369.049-.004.104-.004.155-.004.892 0 1.414.512 1.473 1.445 0 .465-.155 1.094-.479 1.932-.386.957-.752 1.414-1.194 1.477l-.006-.002zm.208-4.677l-.15.002c-.192 0-.387.107-.582.314-.574.609-.973 1.902-.931 2.61.051.583.953 1.563 1.441 1.573.366-.057.697-.491 1.049-1.365.312-.816.465-1.424.465-1.861-.051-.842-.488-1.273-1.292-1.273M477.653 150.555c-1.243 0-2.25-.531-2.958-1.654-.649-.947-.947-2.071-.947-3.434 0-.296.299-1.24.829-2.723.593-1.479.889-2.307.889-2.482-1.718 1.358-2.957 2.426-3.727 3.252l-4.852 5.504c-2.484 2.661-4.142 4.021-4.972 4.021-.945 0-1.421-.533-1.421-1.538 1.065-2.78 2.725-6.863 4.973-12.306.708-1.717 1.301-2.543 1.833-2.543.473 0 1.36.649 1.36 1.123 0 .061-1.24 3.074-3.667 8.992l.295.236c3.312-3.551 5.09-5.445 5.386-5.68 2.662-2.544 4.729-3.848 6.093-3.848.888 0 1.48 1.125 1.48 2.015 0 .295-.414 1.419-1.185 3.252-.769 1.834-1.126 3.077-1.126 3.727 0 1.363.593 2.071 1.717 2.071.297 0 1.065-.177 1.362-.177.769 0 1.124.297 1.124.827.001.891-.828 1.365-2.486 1.365" fill="#0b314c"/><path d="M461.918 153.128c-.988 0-1.51-.562-1.51-1.627l.008-.031c.989-2.591 2.522-6.387 4.969-12.309.732-1.772 1.343-2.599 1.918-2.599.537 0 1.449.688 1.449 1.213 0 .062-.252.676-2.668 6.572l-.982 2.394.179.144c3.53-3.781 5.051-5.4 5.336-5.627 2.684-2.562 4.754-3.863 6.15-3.863.973 0 1.567 1.222 1.567 2.1 0 .305-.389 1.38-1.19 3.287-.921 2.199-1.117 3.224-1.117 3.691 0 1.317.551 1.982 1.628 1.982.141 0 .407-.045.667-.088.275-.046.539-.09.695-.09 1.001 0 1.211.498 1.211.916 0 .66-.446 1.451-2.573 1.451-1.303 0-2.322-.57-3.035-1.697-.646-.94-.957-2.079-.957-3.479 0-.296.265-1.17.834-2.751.526-1.318.744-1.941.828-2.23-1.732 1.385-2.824 2.343-3.521 3.091l-4.851 5.501c-2.546 2.725-4.192 4.049-5.035 4.049m-1.334-1.608c.009.949.457 1.432 1.334 1.432.78 0 2.432-1.344 4.904-3.994l4.852-5.5c.728-.787 1.879-1.792 3.736-3.268l.145-.112v.185c0 .12-.091.516-.896 2.518-.546 1.515-.821 2.42-.821 2.688 0 1.364.307 2.471.932 3.383.679 1.072 1.646 1.616 2.886 1.616 1.591 0 2.396-.43 2.396-1.272 0-.497-.34-.74-1.034-.74-.143 0-.408.045-.667.091-.276.045-.54.089-.695.089-1.18 0-1.803-.748-1.803-2.162 0-.697.391-1.996 1.129-3.762.974-2.314 1.177-3.027 1.177-3.218 0-.804-.528-1.925-1.389-1.925-1.333 0-3.418 1.324-6.035 3.82-.306.246-2.329 2.405-5.377 5.678l-.06.061-.411-.329 1.031-2.517c1.69-4.123 2.623-6.396 2.657-6.523-.002-.396-.835-1.017-1.272-1.017-.485 0-1.059.813-1.751 2.489-2.445 5.908-3.975 9.701-4.968 12.289M498.418 144.7c-.235.649-.652 1.653-1.241 2.956l-3.136 5.856c-2.068 3.964-3.255 6.15-3.432 6.448-1.241 2.129-2.604 4.141-4.143 6.033-.473.652-1.36.945-2.722.945-1.598 0-2.957-.945-4.083-2.78-1.004-1.656-1.535-3.312-1.535-5.028 0-1.062.296-1.597.944-1.597.533 0 .949 1.125 1.243 3.312.061.649.474 1.479 1.24 2.485.77 1.062 1.424 1.597 2.014 1.597 1.362 0 3.492-2.663 6.33-7.985.828-1.537 2.188-4.319 4.143-8.282-.533.591-1.422 1.419-2.66 2.425-2.31 1.538-4.023 2.307-5.209 2.307-1.42 0-2.426-.591-3.075-1.717-.533-.945-.711-2.129-.593-3.549.771-6.804 4.731-11.418 10.115-11.418 2.073 0 3.729 1.832 3.729 3.904 0 2.012-.414 3.018-1.185 3.018-.89 0-1.301-.413-1.301-1.238 0-1.361-.12-2.311-.415-2.843-.412-.297-.887-.474-1.539-.474-2.955 0-5.264 2.896-6.92 8.695-.059.414-.12.77-.12 1.185 0 1.241.474 1.896 1.421 1.896 1.716 0 4.732-1.953 8.992-5.918l1.42-1.715c.771-.891 1.304-1.302 1.598-1.302.711 0 1.064.411 1.064 1.185l-.944 1.599z" fill="#0b314c"/><path d="M483.746 167.031c-1.61 0-3.01-.948-4.156-2.823-1.045-1.721-1.553-3.379-1.553-5.074 0-1.135.338-1.685 1.035-1.685.588 0 1.023 1.105 1.333 3.387.056.637.47 1.458 1.224 2.444.761 1.053 1.396 1.562 1.939 1.562.921 0 2.753-1.378 6.253-7.94.739-1.373 1.913-3.756 3.537-7.055l.346-.701c-.468.47-1.188 1.135-2.27 2.011-2.351 1.567-4.068 2.325-5.263 2.325-1.416 0-2.477-.59-3.153-1.758-.528-.943-.726-2.117-.604-3.603.383-3.378 1.542-6.252 3.351-8.313 1.832-2.084 4.202-3.187 6.855-3.187 2.067 0 3.814 1.828 3.814 3.995 0 2.06-.427 3.104-1.271 3.104-.923 0-1.391-.447-1.391-1.33 0-1.397-.124-2.281-.394-2.781-.433-.301-.898-.442-1.472-.442-2.899 0-5.198 2.901-6.836 8.631l-.017.125c-.055.36-.1.673-.1 1.033 0 1.196.448 1.804 1.331 1.804 1.727 0 4.731-1.979 8.934-5.892l1.412-1.706c.767-.889 1.325-1.335 1.665-1.335.755 0 1.153.438 1.153 1.272v.024l-.013.021-.946 1.599c-.258.712-.7 1.766-1.237 2.946l-3.138 5.863c-2.016 3.858-3.239 6.131-3.433 6.453-1.305 2.235-2.66 4.213-4.149 6.044-.481.671-1.366.982-2.786.982m-4.674-9.406c-.369 0-.857.154-.857 1.507 0 1.663.501 3.293 1.525 4.981 1.112 1.818 2.461 2.738 4.006 2.738 1.355 0 2.197-.289 2.648-.908 1.482-1.826 2.836-3.797 4.138-6.029.19-.318 1.414-2.588 3.429-6.441l3.136-5.858c.532-1.175.973-2.222 1.235-2.945l.943-1.59c-.009-.709-.336-1.07-.978-1.07-.159 0-.57.165-1.53 1.271l-1.418 1.712c-4.244 3.954-7.29 5.951-9.062 5.951-.688 0-1.507-.346-1.507-1.983 0-.373.049-.705.1-1.06l.021-.137c1.662-5.824 4.02-8.771 7.009-8.771.618 0 1.125.155 1.591.489l.023.027c.292.522.426 1.438.426 2.885 0 .787.389 1.152 1.215 1.152.904 0 1.095-1.593 1.095-2.928 0-2.069-1.666-3.815-3.639-3.815-5.312 0-9.251 4.45-10.026 11.339-.121 1.443.066 2.588.579 3.498.651 1.122 1.633 1.67 2.999 1.67 1.156 0 2.843-.752 5.156-2.293 1.126-.912 2.067-1.771 2.646-2.412l.43-.475-.887 1.801c-1.624 3.299-2.8 5.685-3.54 7.062-2.843 5.328-5 8.03-6.409 8.03-.615 0-1.275-.52-2.083-1.633-.772-1.013-1.196-1.863-1.26-2.529-.361-2.675-.828-3.236-1.154-3.236" fill="#0b314c"/></svg>