<svg xmlns="http://www.w3.org/2000/svg" width="50.001" height="50.001"><path stroke="#000" stroke-linejoin="round" d="M38.957.5c-3.53.418-6.452.902-9.286 2.984C5.535 1.786-.69 18.533.681 29.364 3.494 50.214 31.92 55.785 41.331 41.7c-7.445 7.696-19.277 8.752-28.324 3.084C3.96 39.116-.505 27.392 4.684 17.567 9.874 7.742 18.997 4.535 29.031 6.405c2.43-1.418 5.225-3.22 7.655-3.187l-1.694 4.86 12.752 21.37c-.439 5.654-5.459 6.112-5.459 6.112-.574-1.47-1.634-2.942-4.842-6.036-3.207-3.094-17.465-10.177-15.788-16.207-2 6.967 10.311 14.152 14.04 17.663 3.73 3.51 5.426 6.04 5.795 6.756 0 0 9.392-2.504 7.838-8.927L37.401 7.171z"/></svg>