<svg width="720" height="720" viewBox="0 0 720 720" fill="none" xmlns="http://www.w3.org/2000/svg">
<rect width="720" height="720" rx="130" fill="#0077B5"/>
<rect x="102" y="125" width="553" height="526" fill="white"/>
<path fill-rule="evenodd" clip-rule="evenodd" d="M76.239 41.2792C60.8773 44.6189 47.2174 56.8477 42.0041 71.9263L40 77.7254V360.037C40 633.509 40.0524 642.502 41.6628 647.24C47.2947 663.806 61.8007 676.435 78.3507 679.18C82.8246 679.922 158.262 680.122 363.055 679.933C619.124 679.698 642.004 679.558 645.76 678.212C660.854 672.805 671.656 662.53 676.997 648.501L679 643.238V360.037V76.8363L676.997 71.5733C671.018 55.8687 656.853 43.8525 640.843 40.9066C637.101 40.2175 555.218 39.9561 358.67 40.0059C129.483 40.0646 80.8178 40.2842 76.239 41.2792ZM193.587 129.279C203.936 131.472 212.17 136.088 220.372 144.292C228.628 152.549 232.464 159.09 235.099 169.395C238.425 182.405 236.695 197.251 230.466 209.157C226.656 216.438 215.082 228.018 207.805 231.829C191.841 240.189 171.525 240.176 155.701 231.797C148.911 228.201 137.71 217.293 133.993 210.657C122.441 190.03 125.158 163.751 140.611 146.666C154.345 131.482 173.824 125.089 193.587 129.279ZM498.587 274.228C522.29 278.345 538.775 286.085 551.987 299.303C568.325 315.65 578.067 339.072 582.535 372.748C584.671 388.849 585.307 421.426 585.055 501.86L584.794 585.442L537.538 585.672L490.28 585.902L489.913 498.089C489.524 405.148 489.416 402.629 485.207 388.491C482.767 380.294 477.842 371.903 472.724 367.224C464.002 359.249 455.719 356.507 440.295 356.491C408.571 356.458 391.436 371.862 385.56 405.694C384.354 412.639 384.09 426.449 383.762 499.867L383.378 585.902L336.111 585.672L288.846 585.442L288.621 432.727L288.396 280.012H334.152H379.909L380.147 301.061L380.385 322.111L384.359 315.961C393.304 302.12 409.933 288.272 425.949 281.329C434.147 277.775 446.948 274.202 455.928 272.962C464.357 271.798 488.765 272.522 498.587 274.228ZM229.745 432.957V585.902L181.975 585.672L134.206 585.442L133.981 432.727L133.756 280.012H181.75H229.745V432.957Z" fill="#0077B5"/>
</svg>
