<svg id="svg" version="1.1" xmlns="http://www.w3.org/2000/svg" xmlns:xlink="http://www.w3.org/1999/xlink" width="400" height="400" viewBox="0, 0, 400,400"><g id="svgg"><path id="path0" d="M188.000 12.436 C 125.665 16.444,69.347 51.313,37.529 105.600 C 35.741 108.651,32.815 114.063,32.070 115.700 C 31.995 115.865,107.563 116.000,200.000 116.000 C 292.437 116.000,368.005 115.865,367.930 115.700 C 365.251 109.818,358.518 98.695,352.858 90.800 C 314.942 37.919,252.597 8.284,188.000 12.436 " stroke="none" fill="#1c1c1c" fill-rule="evenodd"></path><path id="path1" d="M32.070 284.300 C 35.724 292.324,45.272 307.342,52.350 316.200 C 128.786 411.851,271.214 411.851,347.650 316.200 C 354.728 307.342,364.276 292.324,367.930 284.300 C 368.005 284.135,292.437 284.000,200.000 284.000 C 107.563 284.000,31.995 284.135,32.070 284.300 " stroke="none" fill="#fcb404" fill-rule="evenodd"></path><path id="path2" d="M185.200 0.249 C 173.626 1.236,161.954 2.812,158.800 3.813 C 157.810 4.127,154.390 4.944,151.200 5.628 C 148.010 6.312,144.860 7.111,144.200 7.404 C 143.540 7.697,141.290 8.418,139.200 9.004 C 137.110 9.591,133.780 10.705,131.800 11.479 C 129.820 12.254,126.940 13.338,125.400 13.890 C 123.860 14.442,122.420 15.032,122.200 15.202 C 121.980 15.373,120.270 16.145,118.400 16.918 C 109.485 20.603,92.819 29.962,86.477 34.845 C 85.445 35.640,84.024 36.585,83.320 36.945 C 82.616 37.305,81.896 37.844,81.720 38.142 C 81.544 38.439,81.021 38.882,80.558 39.125 C 78.497 40.205,66.814 49.910,62.945 53.755 C 62.035 54.660,60.145 56.507,58.745 57.860 C 55.489 61.006,49.104 67.831,47.915 69.435 C 47.412 70.115,46.516 71.195,45.925 71.835 C 44.491 73.389,39.660 79.540,39.203 80.394 C 39.003 80.767,38.291 81.660,37.620 82.379 C 36.949 83.097,36.400 83.865,36.400 84.085 C 36.400 84.305,35.725 85.356,34.900 86.420 C 30.074 92.643,20.588 109.512,16.917 118.400 C 16.144 120.270,15.375 121.980,15.207 122.200 C 15.040 122.420,14.317 124.220,13.602 126.200 C 12.886 128.180,11.969 130.541,11.565 131.447 C 11.160 132.352,10.174 135.322,9.373 138.047 C 8.572 140.771,7.681 143.540,7.394 144.200 C 7.106 144.860,6.307 148.010,5.617 151.200 C 4.051 158.437,3.946 158.872,3.486 160.000 C 3.105 160.935,1.720 170.334,0.922 177.400 C -0.118 186.614,-0.118 213.386,0.922 222.600 C 1.720 229.666,3.105 239.065,3.486 240.000 C 3.946 241.128,4.051 241.563,5.617 248.800 C 6.307 251.990,7.106 255.140,7.394 255.800 C 7.681 256.460,8.572 259.229,9.373 261.953 C 10.174 264.678,11.160 267.648,11.565 268.553 C 11.969 269.459,12.886 271.820,13.602 273.800 C 14.317 275.780,15.040 277.580,15.207 277.800 C 15.375 278.020,16.144 279.730,16.917 281.600 C 20.588 290.488,30.074 307.357,34.900 313.580 C 35.725 314.644,36.400 315.695,36.400 315.915 C 36.400 316.135,36.949 316.903,37.620 317.621 C 38.291 318.340,39.003 319.233,39.203 319.606 C 40.005 321.105,46.163 328.640,50.600 333.552 C 54.884 338.294,56.158 339.634,58.768 342.137 C 60.181 343.492,62.071 345.340,62.968 346.245 C 66.631 349.936,78.460 359.775,80.558 360.875 C 81.021 361.118,81.544 361.561,81.720 361.858 C 81.896 362.156,82.616 362.695,83.320 363.055 C 84.024 363.415,85.445 364.360,86.477 365.155 C 92.819 370.038,109.485 379.397,118.400 383.082 C 120.270 383.855,121.980 384.627,122.200 384.798 C 122.420 384.968,123.860 385.558,125.400 386.110 C 126.940 386.662,129.820 387.746,131.800 388.521 C 133.780 389.295,137.110 390.409,139.200 390.996 C 141.290 391.582,143.540 392.303,144.200 392.596 C 144.860 392.889,148.010 393.688,151.200 394.372 C 154.390 395.056,157.810 395.873,158.800 396.187 C 172.247 400.455,210.765 401.154,234.200 397.557 C 237.060 397.118,240.210 396.502,241.200 396.187 C 242.190 395.873,245.610 395.056,248.800 394.372 C 251.990 393.688,255.140 392.894,255.800 392.606 C 256.460 392.319,259.229 391.428,261.953 390.627 C 264.678 389.826,267.648 388.840,268.553 388.435 C 269.459 388.031,271.820 387.114,273.800 386.398 C 275.780 385.683,277.580 384.960,277.800 384.793 C 278.020 384.625,279.730 383.855,281.600 383.082 C 290.590 379.366,307.300 369.970,313.580 365.100 C 314.644 364.275,315.674 363.600,315.868 363.600 C 316.063 363.600,316.812 363.061,317.533 362.402 C 318.255 361.743,319.169 361.031,319.564 360.819 C 321.603 359.728,333.517 349.787,337.032 346.245 C 337.929 345.340,339.819 343.492,341.232 342.137 C 347.462 336.162,359.249 322.544,360.875 319.442 C 361.118 318.979,361.561 318.456,361.858 318.280 C 362.156 318.104,362.695 317.384,363.055 316.680 C 363.415 315.976,364.360 314.555,365.155 313.523 C 369.993 307.239,379.443 290.412,383.083 281.600 C 383.856 279.730,384.625 278.020,384.793 277.800 C 384.960 277.580,385.683 275.780,386.398 273.800 C 387.114 271.820,388.031 269.459,388.435 268.553 C 388.840 267.648,389.826 264.678,390.627 261.953 C 391.428 259.229,392.319 256.460,392.606 255.800 C 392.894 255.140,393.693 251.990,394.383 248.800 C 395.949 241.563,396.054 241.128,396.514 240.000 C 396.895 239.065,398.280 229.666,399.078 222.600 C 400.118 213.386,400.118 186.614,399.078 177.400 C 398.280 170.334,396.895 160.935,396.514 160.000 C 396.054 158.872,395.949 158.437,394.383 151.200 C 393.693 148.010,392.894 144.860,392.606 144.200 C 392.319 143.540,391.428 140.771,390.627 138.047 C 389.826 135.322,388.840 132.352,388.435 131.447 C 388.031 130.541,387.114 128.180,386.398 126.200 C 385.683 124.220,384.960 122.420,384.793 122.200 C 384.625 121.980,383.856 120.270,383.083 118.400 C 379.443 109.588,369.993 92.761,365.155 86.477 C 364.360 85.445,363.415 84.024,363.055 83.320 C 362.695 82.616,362.156 81.896,361.858 81.720 C 361.561 81.544,361.118 81.021,360.875 80.558 C 360.028 78.942,354.088 71.638,349.400 66.448 C 345.116 61.706,343.842 60.366,341.232 57.863 C 339.819 56.508,337.929 54.660,337.032 53.755 C 333.369 50.064,321.540 40.225,319.442 39.125 C 318.979 38.882,318.456 38.439,318.280 38.142 C 318.104 37.844,317.384 37.305,316.680 36.945 C 315.976 36.585,314.555 35.640,313.523 34.845 C 307.181 29.962,290.515 20.603,281.600 16.918 C 279.730 16.145,278.020 15.373,277.800 15.202 C 277.580 15.032,276.140 14.442,274.600 13.890 C 273.060 13.338,270.180 12.254,268.200 11.479 C 266.220 10.705,262.890 9.591,260.800 9.004 C 258.710 8.418,256.460 7.697,255.800 7.404 C 255.140 7.111,251.990 6.312,248.800 5.628 C 245.610 4.944,242.190 4.130,241.200 3.819 C 233.018 1.253,198.919 -0.921,185.200 0.249 M211.407 12.410 C 276.812 16.604,334.339 53.495,365.657 111.326 C 366.946 113.705,368.000 115.730,368.000 115.826 C 368.000 115.922,292.400 116.000,200.000 116.000 C 107.600 116.000,32.000 115.922,32.000 115.826 C 32.000 115.123,38.692 103.436,42.235 97.952 C 78.897 41.195,144.329 8.109,211.407 12.410 M367.930 284.300 C 364.276 292.324,354.728 307.342,347.650 316.200 C 271.214 411.851,128.786 411.851,52.350 316.200 C 45.272 307.342,35.724 292.324,32.070 284.300 C 31.995 284.135,107.563 284.000,200.000 284.000 C 292.437 284.000,368.005 284.135,367.930 284.300 " stroke="none" fill="#f3f3f3" fill-rule="evenodd"></path></g></svg>