<?xml version="1.0" encoding="UTF-8"?>
<!DOCTYPE svg PUBLIC "-//W3C//DTD SVG 1.1//EN" "http://www.w3.org/Graphics/SVG/1.1/DTD/svg11.dtd">
<svg xmlns="http://www.w3.org/2000/svg" version="1.1" width="320px" height="320px" style="shape-rendering:geometricPrecision; text-rendering:geometricPrecision; image-rendering:optimizeQuality; fill-rule:evenodd; clip-rule:evenodd" xmlns:xlink="http://www.w3.org/1999/xlink">
<g><path style="opacity:0.992" fill="#52bb7b" d="M 146.5,-0.5 C 155.167,-0.5 163.833,-0.5 172.5,-0.5C 183.052,2.2756 192.719,6.94227 201.5,13.5C 234.5,46.5 267.5,79.5 300.5,112.5C 318.79,135.86 322.456,161.527 311.5,189.5C 308.11,195.357 304.443,201.023 300.5,206.5C 268.052,239.07 235.385,271.404 202.5,303.5C 201.614,304.325 201.281,305.325 201.5,306.5C 197.68,307.84 194.347,310.006 191.5,313C 185.322,315.892 178.989,318.059 172.5,319.5C 163.833,319.5 155.167,319.5 146.5,319.5C 139.355,317.751 132.355,315.418 125.5,312.5C 125.5,311.5 125.5,310.5 125.5,309.5C 122.643,308.667 119.977,307.334 117.5,305.5C 84.5,272.5 51.5,239.5 18.5,206.5C 0.210219,183.14 -3.45645,157.473 7.5,129.5C 10.89,123.643 14.5567,117.977 18.5,112.5C 51.5,79.5 84.5,46.5 117.5,13.5C 126.281,6.94227 135.948,2.2756 146.5,-0.5 Z"/></g>
<g><path style="opacity:1" fill="#fafdfb" d="M 151.5,41.5 C 152.47,57.4524 152.803,73.4524 152.5,89.5C 129.661,112.506 106.994,135.672 84.5,159C 105.661,180.994 126.994,202.828 148.5,224.5C 149.031,226.544 150.198,228.211 152,229.5C 152.5,244.496 152.667,259.496 152.5,274.5C 152.141,276.371 151.141,277.871 149.5,279C 146.833,279.667 144.167,279.667 141.5,279C 111.333,248.833 81.1667,218.667 51,188.5C 47.074,183.63 43.4073,178.63 40,173.5C 34.8493,157.438 38.1826,143.438 50,131.5C 80.1667,101.333 110.333,71.1667 140.5,41C 143.702,39.5167 147.036,39.1834 150.5,40C 151.056,40.3826 151.389,40.8826 151.5,41.5 Z"/></g>
<g><path style="opacity:1" fill="#fbfdfc" d="M 279.5,148.5 C 280.903,153.387 281.569,158.387 281.5,163.5C 279.693,171.198 276.193,178.198 271,184.5C 239.5,216 208,247.5 176.5,279C 173.833,279.667 171.167,279.667 168.5,279C 167.177,278.184 166.511,277.017 166.5,275.5C 166.197,259.786 166.531,244.119 167.5,228.5C 189.951,205.881 212.284,183.048 234.5,160C 212.374,136.874 189.874,114.04 167,91.5C 166.536,90.9056 166.369,90.2389 166.5,89.5C 166.212,73.4649 166.545,57.4649 167.5,41.5C 167.611,40.8826 167.944,40.3826 168.5,40C 171.964,39.1834 175.298,39.5167 178.5,41C 208.667,71.1667 238.833,101.333 269,131.5C 271.667,134.833 274.333,138.167 277,141.5C 278.411,143.65 279.245,145.984 279.5,148.5 Z"/></g>
<g><path style="opacity:1" fill="#cfecdb" d="M 151.5,41.5 C 152.117,41.6107 152.617,41.944 153,42.5C 153.828,58.3388 153.661,74.0054 152.5,89.5C 152.803,73.4524 152.47,57.4524 151.5,41.5 Z"/></g>
<g><path style="opacity:1" fill="#cfecda" d="M 167.5,41.5 C 166.545,57.4649 166.212,73.4649 166.5,89.5C 165.339,74.0054 165.172,58.3388 166,42.5C 166.383,41.944 166.883,41.6107 167.5,41.5 Z"/></g>
<g><path style="opacity:1" fill="#57bd7e" d="M 138.5,63.5 C 139.654,69.987 139.821,76.6536 139,83.5C 114.597,107.948 90.0967,132.281 65.5,156.5C 62.1667,161.167 58.8333,165.833 55.5,170.5C 50.2141,162.481 50.3807,154.481 56,146.5C 83.2852,118.477 110.785,90.8102 138.5,63.5 Z"/></g>
<g><path style="opacity:1" fill="#59be80" d="M 179.5,63.5 C 180.473,63.9867 181.473,64.4867 182.5,65C 203.99,87.4562 225.823,109.623 248,131.5C 250.67,138.156 249.67,144.156 245,149.5C 223.333,127.833 201.667,106.167 180,84.5C 179.5,77.5079 179.334,70.5079 179.5,63.5 Z"/></g>
<g><path style="opacity:1" fill="#fafdfb" d="M 144.5,113.5 C 153.839,113.334 163.173,113.5 172.5,114C 173.416,114.374 174.25,114.874 175,115.5C 175.667,118.167 175.667,120.833 175,123.5C 164.243,124.653 153.41,124.82 142.5,124C 140.522,121.503 140.022,118.669 141,115.5C 142.302,114.915 143.469,114.249 144.5,113.5 Z"/></g>
<g><path style="opacity:1" fill="#f2faf4" d="M 122.5,142.5 C 122.287,139.549 122.954,136.882 124.5,134.5C 147.094,133.345 169.761,133.178 192.5,134C 193.416,134.374 194.25,134.874 195,135.5C 195.667,137.833 195.667,140.167 195,142.5C 194.5,143.667 193.667,144.5 192.5,145C 170.167,145.667 147.833,145.667 125.5,145C 124.309,144.302 123.309,143.469 122.5,142.5 Z"/></g>
<g><path style="opacity:1" fill="#addfc0" d="M 124.5,134.5 C 122.954,136.882 122.287,139.549 122.5,142.5C 120.816,139.282 121.483,136.615 124.5,134.5 Z"/></g>
<g><path style="opacity:1" fill="#57bd7f" d="M 265.5,151.5 C 267.083,157.318 266.75,162.985 264.5,168.5C 262.887,171.286 261.054,173.953 259,176.5C 232.986,202.68 206.82,228.68 180.5,254.5C 179.167,247.833 179.167,241.167 180.5,234.5C 206.181,209.652 231.348,184.319 256,158.5C 258.478,155.71 260.312,152.544 261.5,149C 263.615,148.464 264.948,149.297 265.5,151.5 Z"/></g>
<g><path style="opacity:1" fill="#f1f9f4" d="M 105.5,153.5 C 141.168,153.333 176.835,153.5 212.5,154C 215.57,156.569 216.237,159.736 214.5,163.5C 213.975,164.192 213.308,164.692 212.5,165C 176.833,165.667 141.167,165.667 105.5,165C 100.193,161.036 100.193,157.202 105.5,153.5 Z"/></g>
<g><path style="opacity:1" fill="#94d5ad" d="M 279.5,148.5 C 281.13,150.026 281.963,152.026 282,154.5C 282.805,157.696 282.638,160.696 281.5,163.5C 281.569,158.387 280.903,153.387 279.5,148.5 Z"/></g>
<g><path style="opacity:1" fill="#a5dcba" d="M 265.5,151.5 C 266.117,151.611 266.617,151.944 267,152.5C 269.288,158.528 268.454,163.861 264.5,168.5C 266.75,162.985 267.083,157.318 265.5,151.5 Z"/></g>
<g><path style="opacity:1" fill="#5abe80" d="M 73.5,169.5 C 95.4114,190.911 117.245,212.577 139,234.5C 139.667,241.5 139.667,248.5 139,255.5C 115.895,233.306 93.2279,210.64 71,187.5C 69.4661,183.289 69.1327,178.956 70,174.5C 70.6972,172.416 71.8639,170.749 73.5,169.5 Z"/></g>
<g><path style="opacity:1" fill="#fefefe" d="M 122.5,182.5 C 122.448,180.097 122.781,177.764 123.5,175.5C 146.761,174.345 170.094,174.178 193.5,175C 196.167,178.333 196.167,181.667 193.5,185C 170.5,185.667 147.5,185.667 124.5,185C 123.619,184.292 122.953,183.458 122.5,182.5 Z"/></g>
<g><path style="opacity:1" fill="#a0dab7" d="M 123.5,175.5 C 122.781,177.764 122.448,180.097 122.5,182.5C 121.853,181.726 121.52,180.726 121.5,179.5C 121.34,177.645 122.007,176.312 123.5,175.5 Z"/></g>
<g><path style="opacity:1" fill="#fbfdfc" d="M 143.5,194.5 C 153.506,194.334 163.506,194.5 173.5,195C 176.936,198.06 177.269,201.393 174.5,205C 164.167,205.667 153.833,205.667 143.5,205C 141.09,204.242 140.09,202.575 140.5,200C 140.12,197.297 141.12,195.463 143.5,194.5 Z"/></g>
<g><path style="opacity:1" fill="#d2eddd" d="M 148.5,224.5 C 150.129,225.625 151.629,226.959 153,228.5C 153.828,244.006 153.661,259.339 152.5,274.5C 152.667,259.496 152.5,244.496 152,229.5C 150.198,228.211 149.031,226.544 148.5,224.5 Z"/></g>
<g><path style="opacity:1" fill="#d1eddc" d="M 167.5,228.5 C 166.531,244.119 166.197,259.786 166.5,275.5C 165.339,260.339 165.172,245.006 166,229.5C 166.383,228.944 166.883,228.611 167.5,228.5 Z"/></g>
</svg>
