<svg xmlns="http://www.w3.org/2000/svg" viewBox="0 0 500 494.446">
  <path fill="#51BB7B" d="m94.1 246.828 139.044-139.177a14.065 14.065 0 0 0 4.217-9.845V14.862A14.058 14.058 0 0 0 228.933.806a14.05 14.05 0 0 0-15.45 4.211L28.094 189.184A84.394 84.394 0 0 0 0 248.245a81.556 81.556 0 0 0 28.089 56.233l185.394 185.573a14.058 14.058 0 0 0 9.834 4.222 8.447 8.447 0 0 0 5.611-1.411 14.054 14.054 0 0 0 8.433-14.056v-82.944a14.084 14.084 0 0 0-4.217-9.845L94.1 246.828Zm-56.178 28.117a45.014 45.014 0 0 1-9.833-28.111 59.07 59.07 0 0 1 21.067-37.961L209.267 50.006v42.178L61.8 239.795a91.424 91.424 0 0 0-23.878 35.15Zm172.745 171.517L74.444 310.095c-.811-1.05-1.755-2-2.811-2.811-4.211-4.222-16.85-16.872 2.811-42.178l134.834 136.367v42.178l1.4 2.811h-.011Zm75.85-441.445a14.045 14.045 0 0 0-14.045-2.811 14.054 14.054 0 0 0-9.833 14.056v82.955a14.074 14.074 0 0 0 4.217 9.845L407.3 248.239 266.856 388.828a14.082 14.082 0 0 0-4.217 8.434v82.944a14.056 14.056 0 0 0 9.833 14.061c1.395.239 2.817.239 4.211 0 4.189.35 8.311-1.2 11.239-4.216L470.5 307.284a84.376 84.376 0 0 0 29.5-59.05 81.595 81.595 0 0 0-28.089-57.639L286.517 5.017Zm5.616 88.572V50.006l133.428 133.556c.811 1.055 1.756 2 2.811 2.816 4.211 4.217 16.85 16.867-2.811 42.173L292.133 93.589Zm157.311 192.606L290.722 446.462v-42.173l147.472-150.433a92.759 92.759 0 0 0 23.878-33.739 45.056 45.056 0 0 1 9.834 26.711 60.47 60.47 0 0 1-21.067 37.961l-1.406 1.406h.011Zm-96.911-28.117H141.856a11.24 11.24 0 0 1-9.834-9.844 11.248 11.248 0 0 1 9.834-11.245h210.672a11.24 11.24 0 0 1 11.239 9.839v1.406c.005 6.211-5.028 11.25-11.239 11.25v-1.406h.005Zm-29.494-52.016c.839 6.744-4.439 12.689-11.233 12.65H182.583c-5.655-.711-9.877-5.545-9.833-11.245-.822-6.222 3.6-11.916 9.833-12.655H311.8c6.206 0 11.233 5.033 11.233 11.25h.006Zm-40.733-42.178v1.405c.044 5.7-4.178 10.534-9.834 11.245H220.5c-5.656-.711-9.878-5.545-9.833-11.245a11.244 11.244 0 0 1 9.833-11.25h51.967a11.245 11.245 0 0 1 9.833 11.25v-1.405h.006Zm-9.834 156.055a11.248 11.248 0 0 1 9.834 11.245 11.24 11.24 0 0 1-9.834 11.244H220.5a11.234 11.234 0 0 1-9.833-9.839v-1.405a11.244 11.244 0 0 1 9.833-11.25h51.967l.005.005Zm39.328-18.277H182.583a11.24 11.24 0 0 1-9.833-11.25c-.822-6.223 3.6-11.917 9.833-12.656H311.8c6.206 0 11.233 5.039 11.233 11.25.839 6.745-4.439 12.689-11.233 12.65v.006Z"/>
</svg>
