<?xml version="1.0" encoding="utf-8"?>
<svg viewBox="0 0 90 90" xmlns="http://www.w3.org/2000/svg">
  <path fill="#FFF" d="M33.258 25.45h26.027v33.51H33.258z"/>
  <path d="m39.22 53.522 2.194-12.578a6.684 6.684 0 0 1-2.21-7.444 6.645 6.645 0 0 1 6.311-4.495v-13.96H28.567c-3.627 0-6.567 2.952-6.567 6.593v32.324c-.005.61.13 1.213.394 1.762C23.816 58.61 29.43 67.876 45.5 75V54.038a36.635 36.635 0 0 1-6.28-.516Z" fill="#E21D3E"/>
  <path d="M62.417 15H45.5v13.96a6.644 6.644 0 0 1 6.302 4.458 6.684 6.684 0 0 1-2.14 7.435l2.193 12.638c-2.098.367-4.225.55-6.355.547V74.97c16.055-7.094 21.684-16.39 23.106-19.276.264-.55.399-1.153.394-1.762v-32.31a6.606 6.606 0 0 0-1.918-4.686A6.555 6.555 0 0 0 62.417 15Z" fill="#B51E23"/>
</svg>