<svg xmlns="http://www.w3.org/2000/svg" width="786.32" height="786.32"><path d="M547.303 786.319h-38.667V593h38.667V786.32M545.975 193.319h-38.667V0h38.667V193.32M422.607 772.637l-36.688-12.213L446.975 577l36.688 12.212-61.056 183.424M310.69 722.052l-31.289-22.717 113.574-156.438 31.29 22.718-113.574 156.437M218.978 637.93l-22.496-31.45 157.233-112.47 22.496 31.45-157.233 112.47M159.036 531.767l-11.98-36.764 183.808-59.891 11.979 36.764-183.807 59.89M133.99 411.668v-38.667h193.318v38.667H133.991M146.338 290.13l11.925-36.78 183.894 59.62-11.925 36.782-183.894-59.621M196.945 176.57l22.866-31.18 155.892 114.323-22.867 31.18-155.891-114.322M483.245 196.736L446.5 208.769 386.34 25.05l36.747-12.032 60.158 183.719M425.588 218.256l-31.167 22.887L279.997 85.327l31.166-22.887 114.425 155.816" fill="#f68213"/><path d="M599.33 409.785c-1-27.001-2-59.334-2-92.334h-.667c-7.334 28.666-16.667 60.666-25.334 87.001l-27.333 87.667h-39.667l-24-87c-7.333-26.335-14.666-58.002-20.333-87.668h-.667c-1 30.333-2.333 65-3.666 93.001l-4.334 85.333h-47l14.334-224.668h67.666l22 75c7.334 26 14 54.002 19 80.335h1.334c6-26 13.666-55.668 21.333-80.668l23.667-74.667h66.666l12 224.668h-49.333l-3.667-86" fill="#100f0d"/></svg>