<svg xmlns="http://www.w3.org/2000/svg" viewBox="0 0 464.107 500">
  <path fill="#fff" d="m208.312 0 67.539.664 44.397 60.984-85.631 148.757L208.312 0Z"/>
  <path fill="#12bd9d" d="M153.12 3.049c-1.421 1.663-8.533 14.044-15.88 27.61l-13.502 24.513 25.597 36.178c13.988 19.993 38.635 55.215 54.758 78.299 16.35 23.327 30.338 42.37 31.288 42.37 2.37 0 92.442-150.657 92.442-154.227 0-2.142-9.246-18.807-28.203-50.938C296.057.671 294.872.193 278.278.193h-17.307l4.027 6.426c2.37 3.806 10.903 16.658 19.207 28.56l14.694 22.135-18.964 45.696c-10.425 25.226-22.52 55.215-26.783 66.639-8.54 21.899-15.172 35.7-15.408 31.659 0-1.428 4.741-34.515 10.667-73.543l10.66-71.165-7.582-28.325L244.14.193h-44.325c-32.71 0-45.033.714-46.697 2.856Z"/>
  <path fill="#3199dc" d="M396.554 93.492c-14.937.95-32.473 2.857-38.635 3.806l-11.381 1.664-25.126 48.795c-58.55 114.956-79.17 154.698-80.112 154.698-.95 0-9.96-13.324-92.679-136.847-49.78-74.5-38.164-66.168-98.369-69.024l-36.979-1.663-1.656 55.692c-.95 30.46-2.613 84.968-3.792 120.904-1.185 35.936-2.848 82.59-3.555 103.531-.714 20.942-1.9 57.6-2.614 81.397L0 500h119.225l.479-88.773c.471-48.553.714-99.961.714-114.006 0-13.802.707-24.755 1.656-24.276.714.478 7.347 10.945 14.695 22.848 7.347 12.138 27.018 44.504 43.611 72.115l30.574 49.98 34.13-.713c21.813-.714 35.086-1.907 36.743-3.57 1.428-1.664 16.83-33.08 34.13-70.209 17.307-37.128 32.244-67.83 33.187-68.31.714-.478 3.32 39.507 5.69 88.774 2.371 49.266 4.977 99.247 5.927 111.15l1.428 21.42h101.918l-.472-9.518c-.242-5.24-4.983-96.634-10.667-203.022l-9.96-193.254-9.71.472c-5.22 0-21.814 1.192-36.744 2.384Z"/>
</svg>
