<svg xmlns="http://www.w3.org/2000/svg" viewBox="0 0 499.999 345.587">
  <path fill="#2d3277" d="M499.999 163.34C499.999 73.53 388.13 0 250 0S0 73.53 0 163.34v9.454c0 95.588 97.689 172.793 250 172.793 152.834 0 250-77.205 250-172.793v-9.454Z"/>
  <path fill="#ffe600" d="M491.071 163.34c0 84.56-107.668 153.362-240.02 153.362-132.354 0-240.022-68.803-240.022-153.362C11.03 78.782 118.697 9.98 251.05 9.98c132.353 0 240.021 68.802 240.021 153.36Z"/>
  <path fill="#fff" d="M171.22 115.021s-2.628 2.626-1.052 4.727c3.675 4.727 15.23 7.353 27.31 4.727 6.83-1.576 16.284-8.929 24.684-15.757 9.454-7.352 18.908-15.23 28.362-17.856 9.98-3.152 16.284-1.576 20.484-.526 4.727 1.576 9.98 4.727 18.907 11.03 16.281 12.08 82.458 69.853 94.015 79.831 8.927-4.201 49.892-21.533 105.565-34.138-4.727-29.412-22.585-56.723-49.896-78.782-37.815 15.757-84.557 24.16-130.25 2.101 0 0-24.687-11.554-49.372-11.03-36.238 1.051-51.469 16.282-68.276 33.089l-20.481 22.584Z"/>
  <path fill="#fff" d="M381.303 187.5c-.527-.525-77.733-67.752-95.064-80.882-9.978-7.353-15.758-9.454-21.535-10.505-3.15-.525-7.35 0-10.503 1.05-7.878 2.102-18.908 9.455-28.362 16.808-9.977 7.878-18.907 15.23-27.311 16.806-11.027 2.627-24.158-.525-29.936-4.726-2.626-1.576-4.201-3.677-5.252-5.778-2.1-5.252 2.101-9.454 2.626-9.979l21.008-23.109 7.354-7.353c-6.827 1.05-13.13 2.626-19.434 4.202-7.878 2.1-15.23 4.201-22.583 4.201-3.151 0-19.958-2.626-23.11-3.676-19.432-5.252-36.239-10.504-61.45-22.06-29.936 22.585-50.42 50.421-56.196 81.409 4.201 1.05 11.554 3.15 14.18 3.676 68.277 15.231 89.286 30.987 93.488 34.139 4.201-4.727 9.978-7.353 16.806-7.353 7.353 0 14.181 3.676 18.382 9.454 3.677-3.152 9.454-5.778 16.282-5.778 3.15 0 6.304.525 9.977 1.576 7.88 2.626 11.558 7.878 13.658 12.605 2.626-1.05 5.777-2.1 9.453-2.1 3.677 0 7.354 1.05 11.554 2.625 12.607 5.252 14.708 17.857 13.658 27.31h2.623c15.234 0 27.311 12.08 27.311 27.312 0 4.727-1.05 8.929-3.15 12.605 4.2 2.1 14.18 7.353 23.635 6.302 7.353-1.05 9.977-3.15 11.03-4.726.524-1.05 1.574-2.101.524-3.152l-19.431-21.533s-3.154-3.151-2.104-4.202c1.05-1.05 3.154.525 4.727 1.576 9.98 8.403 21.534 20.483 21.534 20.483s1.05 1.576 5.254 2.626c3.677.525 10.504 0 15.23-3.677 1.05-1.05 2.627-2.1 3.15-3.15 4.728-6.303-.523-12.606-.523-12.606l-22.584-25.21s-3.153-3.151-2.103-4.202c1.053-1.05 3.153.526 4.727 1.576 7.353 5.777 17.334 16.282 26.787 25.735 2.1 1.576 10.504 6.828 21.535-.525 6.827-4.727 8.403-9.979 7.877-14.18-.527-5.253-4.727-9.454-4.727-9.454l-30.462-30.988s-3.153-2.626-2.1-4.201c1.05-1.05 3.15.525 4.727 1.575 9.977 8.404 36.239 32.563 36.239 32.563.523 0 9.453 6.828 21.007-.525 4.204-2.626 6.827-6.303 6.827-11.03.527-6.827-5.25-11.554-5.25-11.554Z"/>
  <path fill="#fff" d="M232.67 226.89c-4.728 0-9.981 2.627-10.508 2.627-.523 0 0-2.101.527-3.151.527-1.05 6.827-19.958-8.404-26.786-11.554-5.252-18.907.525-21.007 3.151-.527.525-1.05.525-1.05 0 0-3.151-1.577-12.605-12.081-15.756-14.706-4.727-23.635 5.777-26.26 9.453-1.051-8.403-7.879-14.705-16.807-14.705-9.454 0-16.807 7.353-16.807 16.807 0 9.453 7.353 16.806 16.807 16.806 4.727 0 8.403-1.575 11.554-4.727v.525c-.525 4.202-2.1 19.433 13.656 25.21 6.302 2.626 11.553.526 16.28-2.625 1.577-1.05 1.577-.526 1.577.525-.527 3.676 0 12.08 12.08 16.806 8.928 3.677 14.181 0 17.331-3.15 1.577-1.577 2.1-1.051 2.1 1.05.527 11.03 9.98 19.958 21.011 19.958 11.554 0 21.008-9.454 21.008-21.009 0-11.554-9.454-21.008-21.008-21.008Z"/>
  <path fill="#2d3277" d="M384.453 179.622c-23.634-20.483-78.257-68.277-93.487-79.307-8.404-6.302-14.181-9.979-19.431-11.03-2.104-.525-5.254-1.575-9.454-1.575-3.677 0-7.88.525-12.08 2.1-9.455 3.152-18.908 10.505-28.362 17.858l-.527.525c-8.403 6.828-17.33 13.656-24.158 15.231-3.153.526-5.777 1.05-8.93 1.05-7.354 0-14.18-2.1-16.804-5.251-.527-.525 0-1.576 1.05-2.626l21.008-22.584c16.28-16.282 31.511-31.513 67.226-32.563h1.577c22.058 0 44.115 9.979 46.742 11.029 21.008 9.98 42.019 15.231 63.55 15.231 22.584 0 45.695-5.777 69.853-16.807-2.627-2.1-5.777-4.727-8.404-6.827-21.534 9.453-41.492 13.655-61.45 13.655-19.957 0-39.915-4.727-59.346-14.18-1.053-.526-25.21-12.08-50.945-12.08h-2.104c-29.934.525-46.742 11.029-57.772 20.483-11.028 0-20.481 3.151-28.885 5.252-7.354 2.1-14.182 3.676-20.484 3.676h-7.878c-7.353 0-44.118-8.928-73.004-20.483-3.152 2.1-5.778 4.202-8.93 6.303 30.463 12.605 67.753 22.058 79.308 23.109 3.151 0 6.828.525 10.504.525 7.878 0 15.231-2.1 23.108-4.201 4.726-1.051 9.453-2.626 14.18-3.677l-4.2 4.202-21.008 23.11c-1.576 1.575-5.252 6.301-3.152 11.554 1.05 2.1 3.152 4.201 5.778 6.302 5.251 3.151 14.182 5.778 22.582 5.778 3.154 0 6.304-.526 8.93-1.051 8.928-2.1 18.381-9.454 27.835-17.332 7.88-6.303 18.908-14.18 27.312-16.807 2.626-.525 5.253-1.05 7.88-1.05h2.1c5.777.525 11.027 2.626 21.008 9.979 17.33 13.13 94.537 80.357 95.064 80.882 0 0 4.727 4.202 4.727 11.555 0 3.676-2.627 7.353-6.304 9.979-3.15 2.1-6.827 3.151-9.98 3.151-5.25 0-8.927-2.626-8.927-2.626s-26.785-24.16-36.239-32.563c-1.576-1.575-3.153-2.626-4.727-2.626-1.05 0-1.576.525-2.103 1.05-1.573 2.101 0 4.727 2.103 6.303l30.985 30.987s3.677 3.677 4.204 8.404c0 5.252-2.1 9.453-7.354 12.605-3.677 2.626-7.354 3.676-11.03 3.676-4.727 0-7.877-2.1-8.928-2.626l-4.726-4.202c-7.877-7.878-16.281-16.281-22.585-21.008-1.576-1.05-3.15-2.626-4.727-2.626-.526 0-1.576 0-2.1 1.05-.526.526-1.05 2.101.524 4.727.526 1.05 1.576 1.576 1.576 1.576l22.585 25.21s4.727 5.777.526 10.504l-3.153 3.151c-3.677 3.152-8.927 3.677-11.03 3.677h-3.15c-2.1-.525-3.678-1.05-4.728-2.1-1.05-1.577-12.604-12.606-22.057-20.484-1.05-1.05-2.627-2.1-4.204-2.1-.523 0-1.573.524-2.1 1.05-1.577 2.1 1.05 5.251 2.1 6.302l19.434 21.008s0 .526-.526 1.576c-.524 1.05-3.15 3.151-9.977 4.202h-2.627c-7.354 0-14.704-3.677-18.908-5.778 1.577-3.676 2.627-7.878 2.627-12.08a28.243 28.243 0 0 0-28.361-28.36h-1.05c.523-7.354-.527-21.01-14.708-26.786-4.2-1.576-7.877-2.626-12.08-2.626-3.15 0-5.777.525-8.927 1.575-3.15-5.777-7.877-9.979-14.181-12.08-3.677-1.05-6.827-1.575-10.504-1.575-5.778 0-11.03 1.575-15.757 5.252a24.175 24.175 0 0 0-18.907-8.929c-6.303 0-12.605 2.626-16.807 6.828-5.777-4.727-29.412-19.433-92.962-34.139-3.151-.525-9.979-2.626-14.18-4.201-.526 3.15-1.051 6.827-1.576 10.504 0 0 11.554 2.626 14.18 3.151 64.601 14.18 86.135 29.412 89.811 32.038-1.05 3.151-1.575 6.302-1.575 9.454 0 13.655 11.029 24.16 24.16 24.16 1.575 0 3.15 0 4.726-.526 2.101 9.98 8.404 17.332 18.382 21.008 3.152 1.051 5.778 1.576 8.404 1.576 1.576 0 3.678 0 5.778-.525 1.574 4.727 5.777 10.504 15.23 14.18 3.15 1.576 6.304 2.101 9.454 2.101 2.627 0 5.25-.525 7.354-1.575 4.2 10.504 14.704 17.857 26.258 17.857 7.88 0 15.234-3.151 20.484-8.929 4.727 2.626 14.181 7.353 24.161 7.353h3.674c9.98-1.05 14.18-5.252 16.284-7.878.523-.525.523-1.05 1.05-1.576 2.1.526 4.727 1.05 7.877 1.05 5.254 0 10.504-1.575 15.758-5.776 5.25-3.677 8.927-8.929 8.927-13.656 1.576.525 3.677.525 5.253.525 5.25 0 11.03-1.575 16.281-5.252 9.98-6.302 11.554-15.23 11.554-20.483 1.577.525 3.677.525 5.253.525 5.25 0 10.504-1.575 15.231-4.727 6.304-4.201 9.977-9.979 10.504-16.806.527-4.727-1.05-9.454-3.15-13.656 16.804-7.353 54.622-21.008 99.788-31.512 0-3.677-.524-6.828-1.574-10.505-54.099 11.555-94.537 28.887-104.518 33.614Zm-151.784 87.71c-10.507 0-18.907-8.403-19.434-18.908 0-1.05 0-3.15-2.1-3.15-1.05 0-1.577.524-2.627 1.05-2.1 2.1-5.253 4.201-9.453 4.201-2.1 0-4.2-.525-6.304-1.575-11.027-4.727-11.554-12.08-11.027-15.231 0-1.05 0-1.576-.527-2.101l-.527-.526h-.523c-.527 0-1.05 0-2.1 1.05-3.153 2.102-6.304 3.152-9.455 3.152-1.576 0-3.676-.525-5.252-1.05-14.706-5.778-13.655-19.433-12.605-23.635 0-1.05 0-1.575-.525-2.1l-1.05-1.051-1.051 1.05c-3.151 2.626-6.828 4.202-10.504 4.202-8.404 0-15.231-6.828-15.231-15.231 0-8.403 6.827-15.231 15.23-15.231 7.354 0 14.181 5.777 15.232 13.13l.525 4.202 2.1-3.677c0-.525 6.303-9.979 17.859-9.453 2.1 0 4.2.525 6.827 1.05 8.927 2.626 10.504 11.03 10.504 14.18 0 2.101 1.577 2.101 1.577 2.101.523 0 1.573-.525 1.573-1.05 1.577-1.576 5.254-4.727 11.03-4.727 2.627 0 5.254.526 8.404 2.101 14.18 6.303 7.877 24.16 7.877 24.685-1.05 3.151-1.573 4.202 0 5.252h1.05c.527 0 1.577 0 2.627-.525 2.1-.525 4.727-1.576 7.354-1.576 10.504 0 19.434 8.929 19.434 19.433.523 11.555-8.404 19.958-18.908 19.958Z"/>
</svg>
