<?xml version="1.0" encoding="UTF-8"?>
<!DOCTYPE svg PUBLIC "-//W3C//DTD SVG 1.1//EN" "http://www.w3.org/Graphics/SVG/1.1/DTD/svg11.dtd">
<svg xmlns="http://www.w3.org/2000/svg" version="1.1" width="320px" height="320px" style="shape-rendering:geometricPrecision; text-rendering:geometricPrecision; image-rendering:optimizeQuality; fill-rule:evenodd; clip-rule:evenodd" xmlns:xlink="http://www.w3.org/1999/xlink">
<g><path style="opacity:1" fill="#fee600" d="M -0.5,-0.5 C 106.167,-0.5 212.833,-0.5 319.5,-0.5C 319.5,106.167 319.5,212.833 319.5,319.5C 212.833,319.5 106.167,319.5 -0.5,319.5C -0.5,212.833 -0.5,106.167 -0.5,-0.5 Z"/></g>
<g><path style="opacity:1" fill="#2e3376" d="M 140.5,58.5 C 185.901,54.8721 227.568,65.3721 265.5,90C 284.288,103.45 296.788,121.283 303,143.5C 307.287,173.308 298.453,198.474 276.5,219C 248.251,242.78 215.584,256.113 178.5,259C 131.025,263.718 88.0254,252.384 49.5,225C 27.8033,207.941 16.1367,185.608 14.5,158C 15.3601,139.745 21.5268,123.579 33,109.5C 52.2222,88.2941 75.7222,73.7941 103.5,66C 115.932,63.2664 128.265,60.7664 140.5,58.5 Z"/></g>
<g><path style="opacity:1" fill="#f7db04" d="M 141.5,62.5 C 175.904,59.8662 208.904,65.3662 240.5,79C 249.331,83.2454 257.664,88.2454 265.5,94C 244.867,105.212 223.2,107.545 200.5,101C 191.609,97.3886 182.609,94.0552 173.5,91C 155.262,85.6004 139.595,89.6004 126.5,103C 101.067,109.238 77.0672,105.905 54.5,93C 80.7744,74.9646 109.774,64.7979 141.5,62.5 Z"/></g>
<g><path style="opacity:1" fill="#fcfcfd" d="M 151.5,93.5 C 161.432,93.2321 171.098,94.7321 180.5,98C 210.357,113.441 240.023,113.275 269.5,97.5C 283.373,108.372 292.373,122.372 296.5,139.5C 296.38,142.064 295.047,143.564 292.5,144C 272.275,148.806 252.609,155.306 233.5,163.5C 215.355,149.19 197.355,134.69 179.5,120C 175.411,116.905 171.077,114.239 166.5,112C 162.833,111.333 159.167,111.333 155.5,112C 145.301,118.597 134.968,124.931 124.5,131C 119.442,132.01 114.609,131.51 110,129.5C 109.251,128.365 109.417,127.365 110.5,126.5C 119.736,116.43 129.403,106.93 139.5,98C 143.61,96.4852 147.61,94.9852 151.5,93.5 Z"/></g>
<g><path style="opacity:1" fill="#fcfcfd" d="M 49.5,96.5 C 61.2346,102.469 73.568,106.969 86.5,110C 98.1557,109.468 109.822,109.135 121.5,109C 115.667,114.833 109.833,120.667 104,126.5C 104.91,131.093 107.743,134.26 112.5,136C 119.14,137.035 125.473,136.035 131.5,133C 139.897,126.94 148.563,121.273 157.5,116C 160.928,115.299 164.262,115.632 167.5,117C 188.454,132.952 209.121,149.286 229.5,166C 234.833,170.667 234.833,175.333 229.5,180C 226.938,181.141 224.272,181.974 221.5,182.5C 212.233,175.239 203.233,167.573 194.5,159.5C 193.417,160.365 193.251,161.365 194,162.5C 201,169.5 208,176.5 215,183.5C 215.804,187.07 214.97,190.237 212.5,193C 209.274,195.547 205.607,197.047 201.5,197.5C 195.5,191.833 189.5,186.167 183.5,180.5C 182.417,181.365 182.251,182.365 183,183.5C 187.333,188.5 191.667,193.5 196,198.5C 196.683,202.84 194.85,205.673 190.5,207C 187.923,208.25 185.257,208.584 182.5,208C 177,202.5 171.5,197 166,191.5C 164.385,192.656 164.385,193.989 166,195.5C 170.022,200.021 173.856,204.688 177.5,209.5C 176.91,210.799 175.91,211.632 174.5,212C 170.074,212.791 165.741,212.457 161.5,211C 161.307,206.601 161.141,202.101 161,197.5C 158.044,190.047 152.544,186.381 144.5,186.5C 144.698,173.53 138.364,167.697 125.5,169C 124.584,169.374 123.75,169.874 123,170.5C 118.07,162.312 111.237,160.312 102.5,164.5C 94.9839,157.877 87.4839,157.877 80,164.5C 61.7822,154.233 42.2822,147.566 21.5,144.5C 24.6416,124.883 33.9749,108.883 49.5,96.5 Z"/></g>
<g><path style="opacity:1" fill="#f7db04" d="M 294.5,147.5 C 295.5,147.5 296.5,147.5 297.5,147.5C 298.439,165.758 292.939,181.758 281,195.5C 261.334,216.09 237.5,229.59 209.5,236C 168.907,245.003 128.907,243.003 89.5,230C 65.4674,221.42 45.9674,206.92 31,186.5C 23.6528,175.268 20.1528,162.934 20.5,149.5C 40.522,151.845 59.1887,158.178 76.5,168.5C 76.4644,174.809 78.4644,180.309 82.5,185C 86.1179,186.653 89.7845,188.153 93.5,189.5C 96.9398,197.471 102.773,200.137 111,197.5C 115.035,206.601 121.868,209.934 131.5,207.5C 134.257,215.552 139.924,219.052 148.5,218C 151.698,217.152 154.531,215.652 157,213.5C 162.751,216.812 168.917,217.979 175.5,217C 177.844,216.163 179.844,214.829 181.5,213C 186.875,213.038 191.875,211.704 196.5,209C 198.972,207.202 200.639,204.868 201.5,202C 211.654,201.333 217.987,196.167 220.5,186.5C 234.059,186.436 240.059,179.602 238.5,166C 257.071,159.199 275.738,153.032 294.5,147.5 Z"/></g>
<g><path style="opacity:1" fill="#fafafc" d="M 87.5,164.5 C 93.9614,163.141 98.4614,165.475 101,171.5C 110.06,163.536 116.227,165.203 119.5,176.5C 121.783,176.392 123.783,175.559 125.5,174C 131.202,172.28 135.702,173.78 139,178.5C 140.469,183.174 140.969,187.841 140.5,192.5C 152.493,189.734 157.66,194.401 156,206.5C 151.733,213.876 145.899,215.376 138.5,211C 135.897,207.961 134.231,204.461 133.5,200.5C 128.267,204.374 123.101,204.374 118,200.5C 116.643,197.308 115.143,194.308 113.5,191.5C 108.268,195.813 103.435,195.48 99,190.5C 97.7475,187.986 97.2475,185.32 97.5,182.5C 86.52,185.02 81.6866,180.687 83,169.5C 84.1932,167.503 85.6932,165.836 87.5,164.5 Z"/></g>
</svg>
