<svg xmlns="http://www.w3.org/2000/svg" viewBox="0 0 24 24"><defs><radialGradient id="paint0_radial_2253_2948" cx="0" cy="0" r="1" gradientTransform="matrix(-9.1078 21.447 -27.064 -11.493 10.943 5.234)" gradientUnits="userSpaceOnUse"><stop offset=".06" stop-color="#AE7FE2"/><stop offset="1" stop-color="#0078D4"/></radialGradient><radialGradient id="paint2_radial_2253_2948" cx="0" cy="0" r="1" gradientTransform="matrix(14.846 -4.9755 3.7895 11.307 6.368 19.448)" gradientUnits="userSpaceOnUse"><stop offset=".111" stop-color="#D59DFF"/><stop offset="1" stop-color="#5E438F"/></radialGradient><radialGradient id="paint4_radial_2253_2948" cx="0" cy="0" r="1" gradientTransform="matrix(-26.443 -6.4905 4.7493 -19.349 23.585 12.29)" gradientUnits="userSpaceOnUse"><stop offset=".096" stop-color="#50E6FF"/><stop offset="1" stop-color="#436DCD"/></radialGradient><linearGradient id="paint1_linear_2253_2948" x1="13.592" x2="11.378" y1="24.74" y2="19.401" gradientTransform="translate(-.468 -.468) scale(.77926)" gradientUnits="userSpaceOnUse"><stop offset="0" stop-color="#114A8B"/><stop offset="1" stop-color="#0078D4" stop-opacity="0"/></linearGradient><linearGradient id="paint3_linear_2253_2948" x1="27.449" x2="23.878" y1="16.963" y2="22.083" gradientTransform="translate(-.468 -.468) scale(.77926)" gradientUnits="userSpaceOnUse"><stop offset="0" stop-color="#493474"/><stop offset="1" stop-color="#8C66BA" stop-opacity="0"/></linearGradient><linearGradient id="paint5_linear_2253_2948" x1="11.128" x2="17.351" y1="3.486" y2="3.756" gradientTransform="translate(-.468 -.468) scale(.77926)" gradientUnits="userSpaceOnUse"><stop offset="0" stop-color="#2D3F80"/><stop offset="1" stop-color="#436DCD" stop-opacity="0"/></linearGradient><style>.cls-1{fill:none}.cls-2{fill:#ca64ea}.cls-3{opacity:.75}.cls-4{fill:#7719aa}.cls-5{fill:#fff}.cls-6{fill:#ae4bd5}.cls-7{fill:#9332bf}</style></defs><path fill="url(#paint0_radial_2253_2948)" d="M9.864.558 9.74.632s2.109.146 2.804.146l.546 4.13-2.727 2.727-2.728 1.896v2.186c0 1.527.798 2.943 2.104 3.733l2.872 1.738-6.067 3.539h-1.17l-2.18-1.32a4.364 4.364 0 0 1-2.105-3.733V8.323c0-1.527.799-2.943 2.106-3.734L9.74.629c.041-.024.082-.048.123-.07z"/><path fill="url(#paint1_linear_2253_2948)" d="M9.864.558 9.74.632s2.109.146 2.804.146l.546 4.13-2.727 2.727-2.728 1.896v2.186c0 1.527.798 2.943 2.104 3.733l2.872 1.738-6.067 3.539h-1.17l-2.18-1.32a4.364 4.364 0 0 1-2.105-3.733V8.323c0-1.527.799-2.943 2.106-3.734L9.74.629c.041-.024.082-.048.123-.07z"/><path fill="url(#paint2_radial_2253_2948)" d="M16.363 9.272v2.444a4.364 4.364 0 0 1-2.104 3.733l-6.546 3.962a4.364 4.364 0 0 1-4.368.088l6.394 3.87c1.39.841 3.13.841 4.52 0l6.546-3.962a4.364 4.364 0 0 0 2.104-3.733v-1.765l-.546-.819z"/><path fill="url(#paint3_linear_2253_2948)" d="M16.363 9.272v2.444a4.364 4.364 0 0 1-2.104 3.733l-6.546 3.962a4.364 4.364 0 0 1-4.368.088l6.394 3.87c1.39.841 3.13.841 4.52 0l6.546-3.962a4.364 4.364 0 0 0 2.104-3.733v-1.765l-.546-.819z"/><path fill="url(#paint4_radial_2253_2948)" d="M20.805 4.59 14.259.63A4.364 4.364 0 0 0 9.872.554l-.13.079a4.364 4.364 0 0 0-2.105 3.734V9.54l2.105-1.273a4.364 4.364 0 0 1 4.517 0l6.546 3.959a4.364 4.364 0 0 1 2.103 3.59l.002-.142v-7.35a4.364 4.364 0 0 0-2.105-3.735z"/><path fill="url(#paint5_linear_2253_2948)" d="M20.805 4.59 14.259.63A4.364 4.364 0 0 0 9.872.554l-.13.079a4.364 4.364 0 0 0-2.105 3.734V9.54l2.105-1.273a4.364 4.364 0 0 1 4.517 0l6.546 3.959a4.364 4.364 0 0 1 2.103 3.59l.002-.142v-7.35a4.364 4.364 0 0 0-2.105-3.735z"/></svg>