<?xml version="1.0" encoding="utf-8"?><!-- Uploaded to: SVG Repo, www.svgrepo.com, Generator: SVG Repo Mixer Tools -->
<svg width="800px" height="800px" viewBox="0 -13.27 70 70" xmlns:dc="http://purl.org/dc/elements/1.1/" xmlns:cc="http://creativecommons.org/ns#" xmlns:rdf="http://www.w3.org/1999/02/22-rdf-syntax-ns#" xmlns="http://www.w3.org/2000/svg">
    <metadata>
        <rdf:RDF>
            <cc:Work>
                <dc:subject>
                    Miscellaneous
                </dc:subject>
                <dc:identifier>
                    microsoft-azure
                </dc:identifier>
                <dc:title>
                    Microsoft Azure
                </dc:title>
                <dc:format>
                    image/svg+xml
                </dc:format>
                <dc:publisher>
                    Amido Limited
                </dc:publisher>
                <dc:creator>
                    Richard Slater
                </dc:creator>
                <dc:type rdf:resource="http://purl.org/dc/dcmitype/StillImage"/>
            </cc:Work>
        </rdf:RDF>
    </metadata>
    <path d="m 7.553283,751.52546 c -4.0589,-0.4695 -8.2851,-3.0178 -10.4547,-6.304 -1.8856,-2.8561 -2.6882,-5.6893 -2.548,-8.9942 0.1672,-3.9394 1.4636,-6.922 4.2132,-9.6929 2.1802,-2.1972 4.0502,-3.2888 6.9808,-4.0751 1.1634,-0.3122 1.6003,-0.3568 3.5254,-0.3601 1.8095,0 2.3913,0.048 3.2961,0.2873 0.6042,0.16 1.194,0.3285 1.3104,0.3745 0.1627,0.064 0.3176,-0.18 0.6682,-1.0532 2.6928,-6.7075 8.3745,-11.4906 15.6456,-13.171 1.5312,-0.3539 5.4667,-0.5005 7.2088,-0.2686 9.5698,1.2741 17.1117,8.691 18.6548,18.3456 0.3515,2.1992 0.1411,6.3215 -0.4223,8.2745 l -0.1288,0.4463 0.8488,0 c 3.1291,0.01 6.0347,1.8052 7.3487,4.5435 0.6949,1.4481 0.9046,2.5146 0.8147,4.144 -0.1885,3.4178 -2.3854,6.1602 -5.8726,7.3309 -0.7225,0.2425 -1.8299,0.2543 -25.4072,0.2713 -13.5586,0.01 -25.1154,-0.036 -25.6819,-0.1013 z m 23.5183,-12.9019 c 0.283,-0.079 0.7311,-0.3658 0.9957,-0.6383 l 0.4812,-0.4954 0,0.5704 0,0.5704 1.03,0 1.03,0 0,-3.5021 0,-3.502 -1.03,0 -1.03,0 0,2.2457 c 0,2.1108 -0.019,2.2738 -0.3136,2.7124 -0.2702,0.4021 -0.4011,0.4724 -0.9459,0.5079 -0.548,0.036 -0.6712,-0.01 -0.9225,-0.3275 -0.2699,-0.3432 -0.2901,-0.5346 -0.2901,-2.7537 l 0,-2.3848 -1.1164,0 -1.1165,0 0.068,2.6437 c 0.041,1.5718 0.1349,2.8108 0.2329,3.0557 0.4689,1.1725 1.5892,1.6692 2.927,1.2976 z m 16.0689,-0.1464 c 0.5098,-0.1656 0.515,-0.1746 0.515,-0.8996 0,-0.4027 -0.023,-0.7323 -0.052,-0.7323 -0.029,0 -0.2738,0.093 -0.545,0.206 -0.6487,0.2711 -2.0472,0.2662 -2.5795,-0.01 -0.3382,-0.1749 -0.8064,-0.8847 -0.8064,-1.2225 0,-0.04 1.0197,-0.073 2.2661,-0.073 l 2.266,0 0,-0.9957 c -0.01,-2.0313 -1.1697,-3.2602 -3.087,-3.2602 -2.2757,0 -3.8103,2.0384 -3.3945,4.5084 0.2364,1.4044 1.0265,2.3026 2.308,2.6241 0.6554,0.1644 2.4098,0.082 3.1122,-0.146 z m -3.3816,-4.0757 c -0.1381,-0.2233 0.4295,-1.2048 0.7921,-1.37 0.4574,-0.2084 0.6633,-0.2115 1.0915,-0.016 0.3744,0.1706 0.6396,0.651 0.6396,1.1587 0,0.3324 -0.016,0.3368 -1.2279,0.3368 -0.6754,0 -1.2583,-0.049 -1.2953,-0.1091 z m -30.4507,3.0924 0.3462,-1.0681 1.7823,0.038 1.7823,0.038 0.3452,1.0644 0.3451,1.0643 1.1487,0 c 1.1285,0 1.147,-0.01 1.0517,-0.309 -0.053,-0.1699 -0.8217,-2.3484 -1.7075,-4.8411 l -1.6105,-4.5321 -1.3026,-0.039 -1.3026,-0.039 -1.7375,4.7772 c -0.9556,2.6274 -1.7373,4.826 -1.7372,4.8857 10e-5,0.06 0.5065,0.091 1.1252,0.069 l 1.125,-0.04 0.3462,-1.0681 z m 0.8372,-2.8114 c 0,-0.056 0.2418,-0.8445 0.5373,-1.751 0.2955,-0.9066 0.5808,-1.8337 0.634,-2.0603 0.087,-0.3685 0.1304,-0.2887 0.4155,0.7554 0.1753,0.642 0.4462,1.5324 0.602,1.9785 0.426,1.2199 0.458,1.1802 -0.9528,1.1802 -0.6798,0 -1.236,-0.046 -1.236,-0.1028 z m 12.635,3.1929 0,-0.7554 -1.5713,0 c -0.8642,0 -1.5984,-0.046 -1.6316,-0.103 -0.033,-0.057 0.6739,-1.0573 1.5713,-2.2236 1.4271,-1.8549 1.6316,-2.1862 1.6316,-2.6437 l 0,-0.5231 -2.9528,0 -2.9527,0 0,0.7553 0,0.7554 1.5794,0 c 0.8686,0 1.578,0.046 1.5764,0.103 0,0.057 -0.7739,1.0918 -1.7162,2.3004 -1.3893,1.7818 -1.7134,2.2817 -1.7138,2.6437 l 0,0.4463 3.0901,0 3.09,0 0,-0.7553 z m 11.8326,-1.2704 c 0.04,-1.7413 0.086,-2.0932 0.3285,-2.5064 0.3861,-0.6589 0.8971,-0.8894 1.5851,-0.7148 l 0.5367,0.1363 0,-0.9308 c 0,-1.048 -0.1506,-1.1912 -0.999,-0.9503 -0.5964,0.1695 -0.6934,0.2449 -1.1123,0.8651 l -0.3607,0.5342 0,-0.7059 0,-0.7058 -1.03,0 -1.0301,0 0,3.502 0,3.5021 1.0175,0 1.0174,0 0.047,-2.0257 z" fill="#00bcf2" transform="translate(5.465 -708.156)"/>
</svg>