<?xml version="1.0" encoding="UTF-8" standalone="no"?>
<!-- Created with Inkscape (http://www.inkscape.org/) -->
<svg
  xmlns:svg="http://www.w3.org/2000/svg"
  xmlns="http://www.w3.org/2000/svg"
  version="1.0"
  width="602.36218"
  height="139.53543"
  id="svg3058">
  <defs
    id="defs3060" />
  <g
    id="layer1">
    <path
      d="M 106.369,119.88512 L 106.369,62.018665 L 81.544594,119.88512 L 67.772114,119.88512 L 43.359087,62.018665 L 43.359087,119.88512 L 17.716529,119.88512 L 17.716529,19.650275 L 52.045504,19.650275 L 75.627274,76.245395 L 100.30782,19.650275 L 132.00731,19.650275 L 132.00731,119.88512 L 106.369,119.88512 z M 151.74424,119.88514 L 151.74424,19.650295 L 173.67129,19.650295 C 175.59247,19.650295 177.51259,21.571475 177.51259,23.661675 L 177.51259,119.88514 L 151.74424,119.88514 z M 248.65971,62.160065 L 281.25389,62.160065 C 283.82526,62.160065 285.27873,64.264785 285.27873,66.736595 L 285.27873,118.51459 C 276.11148,120.56404 261.78448,121.82085 251.13365,121.82085 C 213.76593,121.82085 194.05842,104.00581 194.05842,69.633955 C 194.05948,38.962025 213.76593,17.714585 246.61239,17.714585 C 261.08007,17.714585 273.76688,21.571475 281.93349,27.080965 L 271.83223,44.330845 C 264.76546,41.165965 255.25983,38.962025 248.53357,38.962025 C 229.64739,38.962025 220.81534,51.492935 220.81534,69.633955 C 220.81534,89.002025 231.04275,100.96814 249.90412,100.96814 C 253.35105,100.96814 257.64767,100.84093 261.08007,100.30377 L 261.08007,82.644625 L 248.65971,82.644625 L 248.65971,62.160065 z M 342.46983,38.962025 L 329.85459,38.962025 L 329.85459,64.094705 L 342.46983,64.094705 C 349.99971,64.094705 355.91916,60.082975 355.91916,50.546515 C 355.92022,40.883215 349.99865,38.962025 342.46983,38.962025 z M 361.45735,119.88514 L 349.56211,92.294115 C 347.1314,86.671595 345.43451,83.888325 340.27794,83.888325 L 329.85459,83.888325 L 329.85459,119.88514 L 304.66452,119.88514 L 304.66452,23.661675 C 304.66452,21.571475 306.95349,19.650295 308.59192,19.650295 L 344.15113,19.650295 C 363.47597,19.650295 380.04625,23.661675 380.04625,48.611165 C 380.04625,59.785695 373.86247,71.230215 362.26026,73.547185 C 368.0401,75.510535 373.86247,82.913205 377.01176,90.951915 L 388.47046,119.88514 L 361.45735,119.88514 z M 444.16061,38.962025 C 430.64148,38.962025 421.01998,48.611165 421.01998,69.633955 C 421.02105,90.951915 430.64042,100.57341 444.15991,100.57341 C 455.75892,100.57341 465.25215,90.951915 465.25215,69.633955 C 465.25321,48.611165 455.75892,38.962025 444.16061,38.962025 z M 444.16061,121.82085 C 411.34321,121.82085 393.97817,98.638055 393.97817,69.633955 C 393.97817,40.883215 411.34215,17.714585 444.15991,17.714585 C 474.90235,17.714585 492.29396,40.883215 492.29396,69.633955 C 492.29502,98.636985 474.90128,121.82085 444.16061,121.82085 z M 541.64053,121.82085 C 524.689,121.82085 508.94892,115.74656 501.92857,110.91455 L 513.3575,90.655685 C 519.73014,94.512575 532.13207,100.4455 543.56101,100.4455 C 550.03179,100.4455 558.21187,99.202855 558.21187,92.012065 C 558.21187,85.258875 549.07227,83.196315 537.08986,79.762855 C 522.62431,75.623205 505.78439,69.859315 505.78439,50.405135 C 505.7851,29.439745 524.41723,17.714585 548.66337,17.714585 C 564.66778,17.714585 577.07254,23.378915 583.4023,29.439745 L 569.48526,45.277265 C 562.60593,41.165965 555.57104,37.973445 547.68719,37.973445 C 538.19396,37.973445 532.82585,41.576285 532.82585,46.816835 C 532.82691,52.015925 539.70518,54.671985 548.37813,57.285175 C 563.71002,62.018685 584.64565,66.850335 584.64565,86.926005 C 584.64671,107.60829 568.11435,121.82085 541.64053,121.82085 z "
      style="fill:#f60;fill-opacity:1;fill-rule:evenodd"
      id="polygon3036" />
  </g>
</svg>
