<svg xmlns="http://www.w3.org/2000/svg" viewBox="0 0 500 500">
  <path d="M0 0h500v500H0z"/>
  <path fill="#FFF" d="M169.611 194.444a13.128 13.128 0 0 0-9.394 3.945 13.694 13.694 0 0 0 0 19.15 13.128 13.128 0 0 0 18.777 0 13.694 13.694 0 0 0 3.912-9.572c-.017-7.484-5.967-13.534-13.295-13.523Zm146.278 57.678v-19.378h-18.222v-38.3l-22.017 12.928v74.167c0 17.939 10.306 28.844 29.922 28.844 3.672 0 7.056-.433 10.311-1.433v-18.511a19.119 19.119 0 0 1-5.083.572c-8.611 0-13.128-3.444-13.128-12.2v-26.694h18.211Zm-204.967-.15c8.19 0 12.284 4.89 12.284 14.645v42.766h22.022v-47.789c0-18.51-8.89-30.572-26.54-30.572-10.588 0-17.644 3.734-24.988 12.206-4.233-8.184-11.572-12.206-22.017-12.206-9.033 0-17.927 4.306-22.027 11.767h-.278v-10.045h-21.6v76.64H49.8V266.9c0-9.039 4.517-14.922 13.411-14.922 8.183 0 12.278 5.022 12.278 14.928v42.477h21.883v-42.766c0-9.045 4.945-14.64 13.556-14.64Zm361.3 34.311c0-13.35-10.022-20.95-29.083-24.966-6.633-1.44-9.878-3.74-9.878-7.04 0-3.01 3.389-5.594 7.906-5.594 6.35 0 10.866 2.445 13.694 7.317l15.95-9.611c-4.944-9.333-15.105-15.5-29.083-15.5-7.9 0-14.678 2.294-20.467 6.889-5.65 4.444-8.467 10.333-8.467 17.36 0 12.49 8.89 20.812 26.817 24.829 9.6 2.155 12 4.45 12 7.466 0 3.006-3.667 5.595-9.178 5.595-8.183 0-13.833-3.161-16.933-9.328l-16.233 9.756c6.066 11.766 17.077 17.655 32.889 17.655 18.633 0 30.066-10.044 30.066-24.833Zm-127.1-15.355c0-5.595 1.834-10.334 5.361-13.922 3.528-3.734 7.906-5.595 13.128-5.595s9.739 1.861 13.267 5.595c3.528 3.588 5.36 8.327 5.36 13.922 0 11.478-7.9 19.655-18.488 19.655-5.222 0-9.739-1.86-13.267-5.45-3.533-3.733-5.36-8.46-5.36-14.205Zm-22.589.283c0 11.483 3.95 20.956 11.856 28.561 7.905 7.606 17.644 11.34 29.222 11.34 11.433 0 21.167-3.879 29.222-11.484 8.045-7.745 12-17.367 12-28.845 0-11.339-3.955-20.666-11.86-28.277-7.906-7.6-17.645-11.478-29.084-11.478-11.428 0-21.317 3.878-29.356 11.628-8.05 7.6-12 17.222-12 28.555Zm-57.96 38.178v-47.65c0-8.606-2.262-15.783-6.923-21.667-4.517-5.883-11.294-8.755-20.328-8.755-3.244 0-7.194.144-13.833 4.016a19.833 19.833 0 0 0-7.478 7.461h-.144v-10.05h-21.884v76.64h22.028V266.9c0-8.461 4.656-14.922 13.55-14.922 8.611 0 13.122 5.883 13.122 14.928v42.477h21.89v.006Zm-105.979 0h22.167v-76.645h-22.167v76.645Z"/>
</svg>
