<svg width="500" height="500" viewBox="0 0 500 500" fill="none" xmlns="http://www.w3.org/2000/svg">
<path fill-rule="evenodd" clip-rule="evenodd" d="M0 22.72H90.9091V113.629V113.629V204.538V295.447H0V204.538V113.629V113.629V22.72ZM363.636 22.72H454.545V113.629H363.636V22.72ZM363.636 113.629L363.636 204.538H272.727V113.629L363.636 113.629ZM90.9091 295.447H0V386.357V477.266H90.9091V386.357V295.447ZM181.818 295.447H272.727V386.357H181.818V295.447ZM454.545 295.447H363.636V386.357V477.266H454.545V386.357V295.447Z" fill="black"/>
<path fill-rule="evenodd" clip-rule="evenodd" d="M409.091 386.356H500V477.266H409.091V386.356ZM45.4551 386.356H136.364V477.266H45.4551V386.356Z" fill="#EA3326"/>
<path fill-rule="evenodd" clip-rule="evenodd" d="M45.4551 295.448H136.364V386.357H45.4551V295.448ZM318.182 295.448H227.273V386.357H318.182V295.448ZM500 295.448H409.091V386.357H500V295.448Z" fill="#EB5829"/>
<path fill-rule="evenodd" clip-rule="evenodd" d="M45.4551 204.538H136.364H136.364H227.273H318.182H409.091H500V295.447H409.091H318.182H227.273H136.364H136.364H45.4551V204.538Z" fill="#EE792F"/>
<path fill-rule="evenodd" clip-rule="evenodd" d="M45.4551 113.629H136.364L227.273 113.629V204.538L136.364 204.538L136.364 204.538L45.4551 204.538V113.629ZM409.091 113.629H500V204.538H409.091H318.182V113.629H409.091Z" fill="#F2A73B"/>
<path fill-rule="evenodd" clip-rule="evenodd" d="M45.4551 22.72H136.364V113.629H45.4551V22.72ZM409.091 22.72H500V113.629H409.091V22.72Z" fill="#F7D046"/>
</svg>
