<svg width="500" height="500" viewBox="0 0 500 500" fill="none" xmlns="http://www.w3.org/2000/svg">
<g style="mix-blend-mode:difference">
<path fill-rule="evenodd" clip-rule="evenodd" d="M363.636 23H409.091V477.545H363.636V23ZM0 23H45.4545V477.545H0V23ZM227.273 295.727H181.818V386.636H227.273V295.727ZM272.727 113.909H318.182V204.818H272.727V113.909Z" fill="white"/>
</g>
<path d="M136.364 386.636H45.4545V477.545H136.364V386.636Z" fill="#EA3326"/>
<path d="M500 386.636H409.091V477.545H500V386.636Z" fill="#EA3326"/>
<path d="M136.364 295.727H45.4545V386.636H136.364V295.727Z" fill="#EB5829"/>
<path d="M318.182 295.727H227.273V386.636H318.182V295.727Z" fill="#EB5829"/>
<path d="M500 295.727H409.091V386.636H500V295.727Z" fill="#EB5829"/>
<path d="M136.364 23H45.4545V113.909H136.364V23Z" fill="#F7D046"/>
<path d="M500 23H409.091V113.909H500V23Z" fill="#F7D046"/>
<path d="M227.273 113.909H45.4545V204.818H227.273V113.909Z" fill="#F2A73B"/>
<path d="M500 113.909H318.182V204.818H500V113.909Z" fill="#F2A73B"/>
<path d="M500 204.818H45.4545V295.727H500V204.818Z" fill="#EE792F"/>
</svg>
