<svg xmlns="http://www.w3.org/2000/svg" viewBox="0 0 500 454.546">
  <path fill-rule="evenodd" d="M0 0h90.909v272.727H0V0Zm363.636 0h90.909v90.909h-90.909V0Zm0 90.909v90.909h-90.909V90.909h90.909ZM90.909 272.727H0v181.819h90.909V272.727Zm90.909 0h90.909v90.91h-90.909v-90.91Zm272.727 0h-90.909v181.819h90.909V272.727Z" clip-rule="evenodd"/>
  <path fill="#EA3326" fill-rule="evenodd" d="M409.091 363.636H500v90.91h-90.909v-90.91Zm-363.636 0h90.909v90.91H45.455v-90.91Z" clip-rule="evenodd"/>
  <path fill="#EB5829" fill-rule="evenodd" d="M45.455 272.728h90.909v90.909H45.455v-90.909Zm272.727 0h-90.909v90.909h90.909v-90.909Zm181.818 0h-90.909v90.909H500v-90.909Z" clip-rule="evenodd"/>
  <path fill="#EE792F" fill-rule="evenodd" d="M45.455 181.818H500v90.909H45.455v-90.909Z" clip-rule="evenodd"/>
  <path fill="#F2A73B" fill-rule="evenodd" d="M45.455 90.909h181.818v90.909H45.455V90.909Zm363.636 0H500v90.909H318.182V90.909h90.909Z" clip-rule="evenodd"/>
  <path fill="#F7D046" fill-rule="evenodd" d="M45.455 0h90.909v90.909H45.455V0Zm363.636 0H500v90.909h-90.909V0Z" clip-rule="evenodd"/>
</svg>
