<svg xmlns="http://www.w3.org/2000/svg" viewBox="0 0 512 514"><path fill="#1BD96A" d="M503.2 323.6a256.3 256.3 0 1 0-502.5-93H44a212.3 212.3 0 0 1 409.2-49l-42.2 11a168.1 168.1 0 0 0-104.7-95.8l-7.7 43.9a123.9 123.9 0 0 1 10 228.5l11.5 43a168 168 0 0 0 102.3-177l42-11.3a210.2 210.2 0 0 1-3.9 84.2l42.7 15.5Z"/><path fill="#1BD96A" d="M322 504.2a256.3 256.3 0 0 1-314-181 257.6 257.6 0 0 1-8-47.7h43.3A212.5 212.5 0 0 0 62.8 347l38.6-23.2A168 168 0 0 1 263 89.1l-7.8 43.9a124 124 0 0 0-115.6 168l49.3-29.6-14.8-39.4 46.6-48 58.9-12.6 17 21-27.1 27.5-23.7 7.4-17 17.4 8.4 23 16.8 18 23.7-6.4 16.9-18.5 36.8-11.7 11 24.7-38 46.6-63.7 20.2-28.6-31.8-49.8 29.9c25.5 29 63.9 45.2 103.7 41.9l11.5 43a168.5 168.5 0 0 1-153.5-62l-38.4 23a212.4 212.4 0 0 0 359.8-35.2l42.7 15.5A255.6 255.6 0 0 1 322 504.2Z"/></svg>
