<svg xmlns="http://www.w3.org/2000/svg" width="500" height="500" fill="none"><g clip-path="url(#a)"><path fill="url(#b)" d="M449.654 98.128C404.468 38.62 334.019 1.533 259.925.055c-58.042-1.158-98.147 16.284-120.837 30.306C169.446 12.755 213.373 2.769 251.835 3.26 350.78 4.524 457.038 71.896 472.82 193.345c18.117 139.413-78.98 255.769-215.583 256.121-150.282.386-241.685-132.679-217.796-252.199 1.193-5.968.598-11.774 2.587-17.414 1.138-21.015 9.077-53.956 26.202-87.613-17.303 8.952-39.34 37.278-50.22 63.515C2.324 193.58-3.203 238.813 1.773 281.848c.374 3.238.714 6.469 1.137 9.681C23.038 409.89 125.845 500 249.662 500c138.259 0 250.339-112.346 250.339-250.932 0-56.664-18.745-108.935-50.347-150.94"/><path fill="url(#c)" d="M449.654 98.128C404.468 38.62 334.019 1.533 259.925.055c-58.042-1.158-98.147 16.284-120.837 30.306C169.446 12.755 213.373 2.769 251.835 3.26 350.78 4.524 457.038 71.896 472.82 193.345c18.117 139.413-78.98 255.769-215.583 256.121-150.282.386-241.685-132.679-217.796-252.199 1.193-5.968.598-11.774 2.587-17.414 1.138-21.015 9.077-53.956 26.202-87.613-17.303 8.952-39.34 37.278-50.22 63.515C2.324 193.58-3.203 238.813 1.773 281.848c.374 3.238.714 6.469 1.137 9.681C23.038 409.89 125.845 500 249.662 500c138.259 0 250.339-112.346 250.339-250.932 0-56.664-18.745-108.935-50.347-150.94" opacity=".67"/><path fill="url(#d)" d="M449.654 98.128C404.468 38.62 334.019 1.533 259.925.055c-58.042-1.158-98.147 16.284-120.837 30.306C169.446 12.755 213.373 2.769 251.835 3.26 350.78 4.524 457.038 71.896 472.82 193.345c18.117 139.413-78.98 255.769-215.583 256.121-150.282.386-241.685-132.679-217.796-252.199 1.193-5.968.598-11.774 2.587-17.414 1.138-21.015 9.077-53.956 26.202-87.613-17.303 8.952-39.34 37.278-50.22 63.515C2.324 193.58-3.203 238.813 1.773 281.848c.374 3.238.714 6.469 1.137 9.681C23.038 409.89 125.845 500 249.662 500c138.259 0 250.339-112.346 250.339-250.932 0-56.664-18.745-108.935-50.347-150.94"/><path fill="url(#e)" d="M449.654 98.128C404.468 38.62 334.019 1.533 259.925.055c-58.042-1.158-98.147 16.284-120.837 30.306C169.446 12.755 213.373 2.769 251.835 3.26 350.78 4.524 457.038 71.896 472.82 193.345c18.117 139.413-78.98 255.769-215.583 256.121-150.282.386-241.685-132.679-217.796-252.199 1.193-5.968.598-11.774 2.587-17.414 1.138-21.015 9.077-53.956 26.202-87.613-17.303 8.952-39.34 37.278-50.22 63.515C2.324 193.58-3.203 238.813 1.773 281.848c.374 3.238.714 6.469 1.137 9.681C23.038 409.89 125.845 500 249.662 500c138.259 0 250.339-112.346 250.339-250.932 0-56.664-18.745-108.935-50.347-150.94"/><path fill="url(#f)" d="M449.654 98.128C404.468 38.62 334.019 1.533 259.925.055c-58.042-1.158-98.147 16.284-120.837 30.306C169.446 12.755 213.373 2.769 251.835 3.26 350.78 4.524 457.038 71.896 472.82 193.345c18.117 139.413-78.98 255.769-215.583 256.121-150.282.386-241.685-132.679-217.796-252.199 1.193-5.968.598-11.774 2.587-17.414 1.138-21.015 9.077-53.956 26.202-87.613-17.303 8.952-39.34 37.278-50.22 63.515C2.324 193.58-3.203 238.813 1.773 281.848c.374 3.238.714 6.469 1.137 9.681C23.038 409.89 125.845 500 249.662 500c138.259 0 250.339-112.346 250.339-250.932 0-56.664-18.745-108.935-50.347-150.94"/><path fill="url(#g)" d="M472.82 193.345c2.001 15.395 2.591 30.534 1.884 45.289a792 792 0 0 1 24.915-3.31c-2.767-51.358-20.935-98.61-49.965-137.196C404.468 38.62 334.019 1.533 259.925.055c-58.042-1.158-98.147 16.284-120.837 30.306C169.447 12.755 213.373 2.769 251.835 3.26 350.78 4.524 457.038 71.896 472.82 193.345"/><path fill="url(#h)" d="M478.906 186.412C464.837 59.488 351.644 2.437 251.835 3.26c-38.463.317-82.388 9.494-112.747 27.1-14.181 8.764-21.559 16.186-22.248 16.895.805-.668 3.21-2.648 7.199-5.386q.197-.135.394-.272l.347-.234c14.472-10.002 30.805-17.266 48.077-22.327 26.377-7.73 54.937-10.324 82.395-9.634 112.881 6.51 192.539 100.198 195.312 199.926 2.295 82.538-65.264 148.362-143.139 152.174-56.637 2.772-109.987-24.634-136.061-79.461-5.8-12.197-10.054-24.594-12.273-39.581-12.353-83.437 43.679-154.592 95.062-172.209-27.724-24.213-97.177-22.571-148.871 15.459-37.228 27.387-61.377 69.057-69.378 118.769-6.1 37.902-.355 77.319 14.625 112.521 15.265 35.87 40.09 67.493 71.299 90.778 33.891 25.286 74.701 40 116.763 43.205 6.203.472 12.425.703 18.646.703 165.392 0 237.158-125.543 221.669-265.274"/><path fill="url(#i)" d="M478.906 186.412C464.837 59.488 351.644 2.437 251.835 3.26c-38.463.317-82.388 9.494-112.747 27.1-14.181 8.764-21.559 16.186-22.248 16.895.805-.668 3.21-2.648 7.199-5.386q.197-.135.394-.272l.347-.234c14.472-10.002 30.805-17.266 48.077-22.327 26.377-7.73 54.937-10.324 82.395-9.634 112.881 6.51 192.539 100.198 195.312 199.926 2.295 82.538-65.264 148.362-143.139 152.174-56.637 2.772-109.987-24.634-136.061-79.461-5.8-12.197-10.054-24.594-12.273-39.581-12.353-83.437 43.679-154.592 95.062-172.209-27.724-24.213-97.177-22.571-148.871 15.459-37.228 27.387-61.377 69.057-69.378 118.769-6.1 37.902-.355 77.319 14.625 112.521 15.265 35.87 40.09 67.493 71.299 90.778 33.891 25.286 74.701 40 116.763 43.205 6.203.472 12.425.703 18.646.703 165.392 0 237.158-125.543 221.669-265.274"/><path fill="url(#j)" d="M478.906 186.412C464.837 59.488 351.644 2.437 251.835 3.26c-38.463.317-82.388 9.494-112.747 27.1-14.181 8.764-21.559 16.186-22.248 16.895.805-.668 3.21-2.648 7.199-5.386q.197-.135.394-.272l.347-.234c14.472-10.002 30.805-17.266 48.077-22.327 26.377-7.73 54.937-10.324 82.395-9.634 112.881 6.51 192.539 100.198 195.312 199.926 2.295 82.538-65.264 148.362-143.139 152.174-56.637 2.772-109.987-24.634-136.061-79.461-5.8-12.197-10.054-24.594-12.273-39.581-12.353-83.437 43.679-154.592 95.062-172.209-27.724-24.213-97.177-22.571-148.871 15.459-37.228 27.387-61.377 69.057-69.378 118.769-6.1 37.902-.355 77.319 14.625 112.521 15.265 35.87 40.09 67.493 71.299 90.778 33.891 25.286 74.701 40 116.763 43.205 6.203.472 12.425.703 18.646.703 165.392 0 237.158-125.543 221.669-265.274" opacity=".53"/><path fill="url(#k)" d="M478.906 186.412C464.837 59.488 351.644 2.437 251.835 3.26c-38.463.317-82.388 9.494-112.747 27.1-14.181 8.764-21.559 16.186-22.248 16.895.805-.668 3.21-2.648 7.199-5.386q.197-.135.394-.272l.347-.234c14.472-10.002 30.805-17.266 48.077-22.327 26.377-7.73 54.937-10.324 82.395-9.634 112.881 6.51 192.539 100.198 195.312 199.926 2.295 82.538-65.264 148.362-143.139 152.174-56.637 2.772-109.987-24.634-136.061-79.461-5.8-12.197-10.054-24.594-12.273-39.581-12.353-83.437 43.679-154.592 95.062-172.209-27.724-24.213-97.177-22.571-148.871 15.459-37.228 27.387-61.377 69.057-69.378 118.769-6.1 37.902-.355 77.319 14.625 112.521 15.265 35.87 40.09 67.493 71.299 90.778 33.891 25.286 74.701 40 116.763 43.205 6.203.472 12.425.703 18.646.703 165.392 0 237.158-125.543 221.669-265.274" opacity=".53"/><path fill="url(#l)" d="M307.425 361.503c106.891-6.502 152.627-94.977 155.493-157.783C467.395 105.643 409.2-.127 255.252 9.402c-27.458-.69-56.018 1.904-82.395 9.634-23.123 7.071-39.183 16.316-48.077 22.327-.115.08-.233.155-.347.235-.139.094-.259.18-.394.272a137 137 0 0 0-7.02 5.263c4.28-2.928 57.37-34.28 131.129-24.6 88.364 11.596 169.181 80.357 169.181 171.083 0 69.804-53.948 123.095-117.112 119.291-93.847-5.652-117.478-101.883-68.682-143.462-13.164-2.834-37.903 2.717-55.127 28.469-15.455 23.107-14.582 58.811-5.044 84.128 26.074 54.827 79.46 82.903 136.061 79.461"/><path fill="url(#m)" d="M449.653 98.128c-6.7-8.826-14.018-17.092-21.761-24.888-6.211-6.59-12.867-12.663-19.857-18.287 4.028 3.53 7.905 7.235 11.554 11.184 13.537 14.648 24.258 31.953 30.511 50.899 13.057 39.559 12.205 89.064-12.722 127.947-29.706 46.334-78.066 69.207-130.345 68.093-2.26.01-4.53-.031-6.817-.169-93.845-5.653-117.477-101.883-68.68-143.461-13.166-2.835-37.903 2.717-55.127 28.468-15.455 23.107-14.583 58.811-5.044 84.127-5.801-12.196-10.055-24.593-12.273-39.58-12.353-83.437 43.679-154.594 95.062-172.21-27.724-24.213-97.177-22.57-148.872 15.46-30.122 22.159-51.673 53.676-63.045 91.232 1.671-21.073 9.631-52.547 25.992-84.703-17.301 8.951-39.34 37.278-50.218 63.514C2.326 193.58-3.203 238.813 1.772 281.848c.376 3.238.715 6.469 1.138 9.682C23.037 409.89 125.845 500 249.663 500c138.258 0 250.339-112.346 250.339-250.932 0-56.664-18.746-108.934-50.349-150.94"/><path fill="url(#n)" d="M450.1 117.036c-6.253-18.946-16.974-36.252-30.512-50.899-15.95-17.257-35.813-30.37-56.839-40.582-17.889-8.688-36.571-15.544-55.878-19.805-34.582-7.632-70.863-7.496-103.533-.604-35.518 7.493-66.752 22.864-86.505 42.08 14.812-9 35.472-16.3 50.194-20.02 68.316-17.261 143.543 1.435 194.831 50.622 10.312 9.889 19.559 20.954 27.056 33.143 30.597 49.742 27.702 112.277 3.847 149.159-17.722 27.399-55.671 53.102-91.079 52.824 54.321 2.849 104.977-20.056 135.695-67.971 24.928-38.883 25.78-88.388 12.723-127.947"/><path fill="url(#o)" d="M450.1 117.036c-6.253-18.946-16.974-36.252-30.512-50.899-15.95-17.257-35.813-30.37-56.839-40.582-17.889-8.688-36.571-15.544-55.878-19.805-34.582-7.632-70.863-7.496-103.533-.604-35.518 7.493-66.752 22.864-86.505 42.08 14.812-9 35.472-16.3 50.194-20.02 68.316-17.261 143.543 1.435 194.831 50.622 10.312 9.889 19.559 20.954 27.056 33.143 30.597 49.742 27.702 112.277 3.847 149.159-17.722 27.399-55.671 53.102-91.079 52.824 54.321 2.849 104.977-20.056 135.695-67.971 24.928-38.883 25.78-88.388 12.723-127.947"/></g><defs><radialGradient id="b" cx="0" cy="0" r="1" gradientTransform="matrix(567.377 0 0 568.723 447.072 94.714)" gradientUnits="userSpaceOnUse"><stop stop-color="#FFF44F"/><stop offset=".295" stop-color="#FF980E"/><stop offset=".432" stop-color="#FF5D36"/><stop offset=".53" stop-color="#FF3750"/><stop offset=".749" stop-color="#F5156C"/><stop offset=".765" stop-color="#F1136E"/><stop offset=".88" stop-color="#DA057A"/><stop offset=".953" stop-color="#D2007F"/></radialGradient><radialGradient id="c" cx="0" cy="0" r="1" gradientTransform="matrix(335.789 0 0 336.586 41.434 118.242)" gradientUnits="userSpaceOnUse"><stop stop-color="#B5007F"/><stop offset="1" stop-color="#F5156C" stop-opacity="0"/></radialGradient><radialGradient id="d" cx="0" cy="0" r="1" gradientTransform="matrix(666.248 0 0 667.828 495.573 62.354)" gradientUnits="userSpaceOnUse"><stop stop-color="#FD0" stop-opacity=".6"/><stop offset=".084" stop-color="#FFD801" stop-opacity=".524"/><stop offset=".182" stop-color="#FECA05" stop-opacity=".435"/><stop offset=".288" stop-color="#FEB20C" stop-opacity=".339"/><stop offset=".4" stop-color="#FD9115" stop-opacity=".239"/><stop offset=".515" stop-color="#FB6621" stop-opacity=".134"/><stop offset=".633" stop-color="#F9332F" stop-opacity=".028"/><stop offset=".664" stop-color="#F92433" stop-opacity="0"/></radialGradient><radialGradient id="e" cx="0" cy="0" r="1" gradientTransform="matrix(859.512 0 0 861.552 264.281 278.186)" gradientUnits="userSpaceOnUse"><stop offset=".153" stop-color="#960E18"/><stop offset=".206" stop-color="#CC2335" stop-opacity=".554"/><stop offset=".249" stop-color="#F13148" stop-opacity=".191"/><stop offset=".272" stop-color="#FF3750" stop-opacity="0"/></radialGradient><radialGradient id="f" cx="0" cy="0" r="1" gradientTransform="matrix(859.512 0 0 861.552 199.239 267.352)" gradientUnits="userSpaceOnUse"><stop offset=".113" stop-color="#960E18"/><stop offset=".189" stop-color="#CC2335" stop-opacity=".554"/><stop offset=".252" stop-color="#F13148" stop-opacity=".191"/><stop offset=".284" stop-color="#FF3750" stop-opacity="0"/></radialGradient><radialGradient id="h" cx="0" cy="0" r="1" gradientTransform="matrix(532.55 0 0 533.814 435.167 75.5)" gradientUnits="userSpaceOnUse"><stop stop-color="#FF980E"/><stop offset=".295" stop-color="#FF7139"/><stop offset=".485" stop-color="#FF5B51"/><stop offset=".626" stop-color="#FF4F5E"/><stop offset=".737" stop-color="#FF4055"/><stop offset=".843" stop-color="#FF3750"/></radialGradient><radialGradient id="i" cx="0" cy="0" r="1" gradientTransform="matrix(532.55 0 0 533.814 435.167 75.5)" gradientUnits="userSpaceOnUse"><stop offset=".084" stop-color="#FFDE08"/><stop offset=".208" stop-color="#FFD609" stop-opacity=".832"/><stop offset=".403" stop-color="#FFBF0B" stop-opacity=".568"/><stop offset=".644" stop-color="#FF9B0F" stop-opacity=".242"/><stop offset=".822" stop-color="#FF7B12" stop-opacity="0"/></radialGradient><radialGradient id="j" cx="0" cy="0" r="1" gradientTransform="matrix(64.57256 253.6797 -264.1886 67.24754 312.131 241.565)" gradientUnits="userSpaceOnUse"><stop offset=".363" stop-color="#FF3750"/><stop offset=".411" stop-color="#FF444B" stop-opacity=".789"/><stop offset=".59" stop-color="#FF7139" stop-opacity="0"/></radialGradient><radialGradient id="k" cx="0" cy="0" r="1" gradientTransform="rotate(75.719 -36.085 303.678)scale(261.769 261.454)" gradientUnits="userSpaceOnUse"><stop offset=".216" stop-color="#FF3750" stop-opacity=".8"/><stop offset=".27" stop-color="#FF444B" stop-opacity=".632"/><stop offset=".474" stop-color="#FF7139" stop-opacity="0"/></radialGradient><radialGradient id="l" cx="0" cy="0" r="1" gradientTransform="matrix(900.107 0 0 902.242 541.45 15.2)" gradientUnits="userSpaceOnUse"><stop offset=".054" stop-color="#FFF44F"/><stop offset=".457" stop-color="#FF980E"/><stop offset=".521" stop-color="#FF8424"/><stop offset=".587" stop-color="#FF7634"/><stop offset=".639" stop-color="#FF7139"/></radialGradient><linearGradient id="g" x1="286.442" x2="434.03" y1="48.594" y2="303.619" gradientUnits="userSpaceOnUse"><stop stop-color="#FFBC04"/><stop offset=".26" stop-color="#FFA202" stop-opacity=".489"/><stop offset=".508" stop-color="#FF8E00" stop-opacity="0"/></linearGradient><linearGradient id="m" x1="368.882" x2="112.796" y1="44.108" y2="486.612" gradientUnits="userSpaceOnUse"><stop stop-color="#FFF44F" stop-opacity=".8"/><stop offset=".75" stop-color="#FFF44F" stop-opacity="0"/></linearGradient><linearGradient id="n" x1="287.639" x2="287.639" y1="314.472" y2="3.171" gradientUnits="userSpaceOnUse"><stop stop-color="#3A8EE6"/><stop offset=".236" stop-color="#5C79F0"/><stop offset=".629" stop-color="#9059FF"/><stop offset="1" stop-color="#C139E6"/></linearGradient><linearGradient id="o" x1="173.353" x2="425.949" y1="1.743" y2="253.742" gradientUnits="userSpaceOnUse"><stop offset=".805" stop-color="#9059FF" stop-opacity="0"/><stop offset="1" stop-color="#6E008B" stop-opacity=".5"/></linearGradient><clipPath id="a"><path fill="#fff" d="M0 0h500v500H0z"/></clipPath></defs></svg>