<svg clip-rule="evenodd" fill-rule="evenodd" stroke-linejoin="round" stroke-miterlimit="2" version="1.1" viewBox=".1 51.817 499.9 394.63" xml:space="preserve" xmlns="http://www.w3.org/2000/svg">
    <g transform="matrix(2.8243 0 0 2.8243 -.18243 53.511)">
        <path d="m75.5 1.2-28.8 25.6-19 17.4-8.5 7.6-2.5 1.7 0.7 29.8 30.1 28.4 21.3 19 7 6.1 3.1-0.2 31.6-27.2 21.8-20.5 5.1-4.5 1.5-11.3 3.6-18.8-19.3-15.2-39.2-34.6-4.1-3-2.3-0.9-2.1 0.6" fill="#ffe500" fill-rule="nonzero"/>
    </g>
    <g transform="matrix(2.8243 0 0 2.8243 -.18243 53.511)">
        <clipPath id="au">
            <path d="m77.6 2.2h0.1-0.1m67.8 62.4c-4-4.5-12.5-13.6-32-31.6-29.5-27.5-34.9-30.4-35.7-30.8-0.8 0.3-6.2 3.2-35.3 30.7-14.8 14-25.3 24.3-31.4 30.7-2.6 2.8-4.4 4.9-4.6 5.2 0.5 1 4.7 6.9 36.4 36.3 13.6 12.6 23.6 21.5 29.7 26.5 0.9 0.7 5 3.9 5 3.9h0.2c0.4-0.1 5.1-1.8 35.9-30.8 19-17.9 27.5-26.9 31.6-31.5l0.2-8.6m-139.2 4.7c0.1-0.2 0.1-0.4 0.1-0.5l-0.1 0.5"/>
        </clipPath>
        <g clip-path="url(#au)">
            <path d="m65.5 122.7-3.6-4.4-3.7-4.2-2.5-2.6c-13.4-13.3-40.6-40.6-40.9-40.9l-0.1-0.2c0-0.1 0.1-0.2 0.1-0.2 1.2-1.1 27.7-26.7 42.2-39l22.3-18-0.7-13.8-33.9 30.3c-12.4 10.9-36.1 36.9-36.3 37.1-0.6 0.5-0.9 1.3-0.9 2.1s0.3 1.6 1 2.2l0.1 0.1c4.1 3.9 25 23.8 35.6 34 3.6 3.5 4.9 4.5 6.2 5.6l5.8 4.7 9.3 7.2z" fill="#ffe500" fill-rule="nonzero"/>
        </g>
    </g>
    <g transform="matrix(2.8243 0 0 2.8243 -.18243 53.511)">
        <clipPath id="aj">
            <path d="m77.6 2.2h0.1-0.1m67.8 62.4c-4-4.5-12.5-13.6-32-31.6-29.5-27.5-34.9-30.4-35.7-30.8-0.8 0.3-6.2 3.2-35.3 30.7-14.8 14-25.3 24.3-31.4 30.7-2.6 2.8-4.4 4.9-4.6 5.2 0.5 1 4.7 6.9 36.4 36.3 13.6 12.6 23.6 21.5 29.7 26.5 0.9 0.7 5 3.9 5 3.9h0.2c0.4-0.1 5.1-1.8 35.9-30.8 19-17.9 27.5-26.9 31.6-31.5l0.2-8.6m-139.2 4.7c0.1-0.2 0.1-0.4 0.1-0.5l-0.1 0.5"/>
        </clipPath>
        <g clip-path="url(#aj)">
            <path d="m61.8 118.4s-0.5-0.5-3.7-4.2l-2.5-2.6-40.9-40.9-0.1-0.3 0.1-0.3c2.8-2.7 28.2-27.1 42.2-39 0 0 21.8-17.6 22.2-18 0-0.1-0.6-13-0.6-13.5-0.3 0.4-33.7 30.2-33.7 30.2-12.5 10.9-36.1 36.9-36.4 37.1-0.6 0.5-0.9 1.3-0.9 2.1s0.3 1.5 0.9 2.1l0.1 0.1c4.1 3.9 25 23.8 35.6 34 3.5 3.4 4.9 4.5 6.1 5.5l5.9 4.8s6.4 4.9 8.6 6.5c-0.7-0.9-2.9-3.6-2.9-3.6zm-0.1 0.1s-0.3-0.4-3.7-4.2l-2.5-2.6-40.9-40.9-0.2-0.3 0.1-0.4c2.9-2.8 28.1-27 42.2-39 0 0 21.8-17.6 22.2-18 0-0.1-0.6-12.7-0.6-13.2-0.4 0.3-33.6 29.9-33.6 29.9-12.3 11-36 36.9-36.2 37.2-0.6 0.5-0.9 1.2-0.9 2s0.3 1.5 0.9 2l0.1 0.1c7.5 7.1 25.8 24.6 35.6 34 3.5 3.4 4.9 4.5 6.1 5.5l5.9 4.8s6.8 5.2 7.9 6c-0.7-0.9-2.4-2.9-2.4-2.9z" fill="#ffe600" fill-rule="nonzero"/>
        </g>
    </g>
    <g transform="matrix(2.8243 0 0 2.8243 -.18243 53.511)">
        <clipPath id="y">
            <path d="m77.6 2.2h0.1-0.1m67.8 62.4c-4-4.5-12.5-13.6-32-31.6-29.5-27.5-34.9-30.4-35.7-30.8-0.8 0.3-6.2 3.2-35.3 30.7-14.8 14-25.3 24.3-31.4 30.7-2.6 2.8-4.4 4.9-4.6 5.2 0.5 1 4.7 6.9 36.4 36.3 13.6 12.6 23.6 21.5 29.7 26.5 0.9 0.7 5 3.9 5 3.9h0.2c0.4-0.1 5.1-1.8 35.9-30.8 19-17.9 27.5-26.9 31.6-31.5l0.2-8.6m-139.2 4.7c0.1-0.2 0.1-0.4 0.1-0.5l-0.1 0.5"/>
        </clipPath>
        <g clip-path="url(#y)">
            <path d="m61.6 118.5s-0.3-0.3-3.7-4.2l-2.5-2.6-35.1-35.2-5.7-5.7-0.2-0.3 0.1-0.5c0.3-0.3 27.3-26.3 42.3-39.1 0 0 21.8-17.6 22.2-17.9 0-0.1-0.6-12.4-0.6-12.9-0.4 0.4-33.5 29.8-33.5 29.8-12.1 10.7-35.4 36.2-36.3 37.1-0.5 0.5-0.9 1.2-0.9 1.9s0.3 1.4 0.9 2l0.1 0.1c7.4 7.1 25.8 24.6 35.6 34 3.5 3.4 4.8 4.5 6.1 5.5l5.9 4.8s6 4.5 7.1 5.4c-0.6-0.8-1.8-2.2-1.8-2.2zm-0.1 0.1 0.1 0.1c-0.1-0.1-0.3-0.3-3.6-4l-0.2-0.2-2.5-2.6-35.1-35.3-5.7-5.7-0.2-0.4 0.1-0.5c0.2-0.3 27.4-26.5 42.3-39.1 0 0 21.7-17.5 22.1-17.9 0-0.1-0.6-12.2-0.6-12.6-0.3 0.3-33.2 29.6-33.2 29.6-12.3 10.8-35.4 36.1-36.3 37.1-0.5 0.5-0.8 1.2-0.8 1.9s0.3 1.4 0.8 1.9l0.1 0.1c7.4 7.1 25.8 24.6 35.6 34 3.5 3.4 4.8 4.5 6.1 5.5l5.9 4.8s4.6 3.5 6.4 4.8c-0.6-0.6-1.3-1.5-1.3-1.5z" fill="#ffe700" fill-rule="nonzero"/>
        </g>
    </g>
    <g transform="matrix(2.8243 0 0 2.8243 -.18243 53.511)">
        <clipPath id="n">
            <path d="m77.6 2.2h0.1-0.1m67.8 62.4c-4-4.5-12.5-13.6-32-31.6-29.5-27.5-34.9-30.4-35.7-30.8-0.8 0.3-6.2 3.2-35.3 30.7-14.8 14-25.3 24.3-31.4 30.7-2.6 2.8-4.4 4.9-4.6 5.2 0.5 1 4.7 6.9 36.4 36.3 13.6 12.6 23.6 21.5 29.7 26.5 0.9 0.7 5 3.9 5 3.9h0.2c0.4-0.1 5.1-1.8 35.9-30.8 19-17.9 27.5-26.9 31.6-31.5l0.2-8.6m-139.2 4.7c0.1-0.2 0.1-0.4 0.1-0.5l-0.1 0.5"/>
        </clipPath>
        <g clip-path="url(#n)">
            <path d="m61.5 118.7c-0.3-0.3-0.9-1.1-3.5-4l-0.2-0.2-2.5-2.6-40.9-40.9-0.2-0.4c0-0.1 0.1-0.6 0.1-0.6 0.2-0.2 27.3-26.4 42.3-39.1 0 0 21.7-17.5 22.1-17.9 0-0.1-0.6-11.9-0.6-12.3-0.4 0.3-33 29.5-33 29.5-12.3 10.6-35.4 36-36.4 37-0.5 0.4-0.7 1.1-0.7 1.7 0 0.7 0.3 1.3 0.8 1.8l0.1 0.1c7.4 7 25.7 24.5 35.6 34 3.5 3.4 4.8 4.5 6.1 5.5l5.9 4.8s4.7 3.6 5.6 4.3c-0.3-0.3-0.6-0.7-0.6-0.7z" fill="#ffe70a" fill-rule="nonzero"/>
        </g>
    </g>
    <g transform="matrix(2.8243 0 0 2.8243 -.18243 53.511)">
        <clipPath id="e">
            <path d="m77.6 2.2h0.1-0.1m67.8 62.4c-4-4.5-12.5-13.6-32-31.6-29.5-27.5-34.9-30.4-35.7-30.8-0.8 0.3-6.2 3.2-35.3 30.7-14.8 14-25.3 24.3-31.4 30.7-2.6 2.8-4.4 4.9-4.6 5.2 0.5 1 4.7 6.9 36.4 36.3 13.6 12.6 23.6 21.5 29.7 26.5 0.9 0.7 5 3.9 5 3.9h0.2c0.4-0.1 5.1-1.8 35.9-30.8 19-17.9 27.5-26.9 31.6-31.5l0.2-8.6m-139.2 4.7c0.1-0.2 0.1-0.4 0.1-0.5l-0.1 0.5"/>
        </clipPath>
        <g clip-path="url(#e)">
            <path d="m61.4 118.7-3.7-4.2-2.5-2.6-35.2-35.1-5.7-5.8-0.2-0.4c0-0.1 0.1-0.7 0.1-0.7 0.1-0.2 27-26.2 42.4-39.2 0 0 21.7-17.5 22.1-17.8 0-0.1-0.6-11.6-0.6-12-0.4 0.3-32.9 29.3-32.9 29.3-12 10.4-34 34.7-36.4 37-0.5 0.4-0.8 1.1-0.8 1.7s0.3 1.3 0.8 1.7l0.2 0.2c7.4 7 25.6 24.4 35.6 34 3.5 3.4 4.8 4.5 6.1 5.5l5.9 4.8c-0.1 0 3.9 3 4.8 3.6z" fill="#ffe81d" fill-rule="nonzero"/>
        </g>
    </g>
    <g transform="matrix(2.8243 0 0 2.8243 -.18243 53.511)">
        <clipPath id="d">
            <path d="m77.6 2.2h0.1-0.1m67.8 62.4c-4-4.5-12.5-13.6-32-31.6-29.5-27.5-34.9-30.4-35.7-30.8-0.8 0.3-6.2 3.2-35.3 30.7-14.8 14-25.3 24.3-31.4 30.7-2.6 2.8-4.4 4.9-4.6 5.2 0.5 1 4.7 6.9 36.4 36.3 13.6 12.6 23.6 21.5 29.7 26.5 0.9 0.7 5 3.9 5 3.9h0.2c0.4-0.1 5.1-1.8 35.9-30.8 19-17.9 27.5-26.9 31.6-31.5l0.2-8.6m-139.2 4.7c0.1-0.2 0.1-0.4 0.1-0.5l-0.1 0.5"/>
        </clipPath>
        <g clip-path="url(#d)">
            <path d="m57.6 114.6-2.5-2.6-35.1-35.2-5.7-5.7-0.3-0.4c0-0.1 0.1-0.8 0.1-0.8 0.1-0.1 27.1-26.3 42.4-39.3 0 0 21.6-17.5 22-17.8 0-0.1-0.6-11.3-0.6-11.7-0.4 0.3-32.7 29.2-32.7 29.2-11.9 10.4-33.9 34.6-36.3 37-0.5 0.4-0.7 1-0.7 1.6s0.3 1.2 0.7 1.6l0.1 0.2c7.4 7 25.6 24.3 35.6 34 3.5 3.4 4.8 4.5 6.1 5.5l5.9 4.8s2.7 2.1 4.1 3.1c-0.8-0.9-3.1-3.5-3.1-3.5z" fill="#ffe829" fill-rule="nonzero"/>
        </g>
    </g>
    <g transform="matrix(2.8243 0 0 2.8243 -.18243 53.511)">
        <clipPath id="c">
            <path d="m77.6 2.2h0.1-0.1m67.8 62.4c-4-4.5-12.5-13.6-32-31.6-29.5-27.5-34.9-30.4-35.7-30.8-0.8 0.3-6.2 3.2-35.3 30.7-14.8 14-25.3 24.3-31.4 30.7-2.6 2.8-4.4 4.9-4.6 5.2 0.5 1 4.7 6.9 36.4 36.3 13.6 12.6 23.6 21.5 29.7 26.5 0.9 0.7 5 3.9 5 3.9h0.2c0.4-0.1 5.1-1.8 35.9-30.8 19-17.9 27.5-26.9 31.6-31.5l0.2-8.6m-139.2 4.7c0.1-0.2 0.1-0.4 0.1-0.5l-0.1 0.5"/>
        </clipPath>
        <g clip-path="url(#c)">
            <path d="m57.5 114.7-2.5-2.6-35.1-35.2-5.7-5.7-0.3-0.5c0-0.2 0.1-0.8 0.1-0.8 0.1-0.1 26.8-26 42.4-39.3 0 0 21.6-17.4 22-17.8 0-0.1-0.6-11-0.6-11.5-0.4 0.3-32.5 29-32.5 29-11.9 10.4-33.9 34.7-36.3 37.1-0.4 0.4-0.7 1-0.7 1.6s0.3 1.1 0.7 1.6l0.1 0.1c7.3 7 25.5 24.2 35.6 34 3.5 3.4 4.8 4.5 6.1 5.5h-0.1c0.1 0 0.7 0.5 5.4 4.3l0.6 0.5s2.6 2 3.2 2.4c-0.9-1-2.4-2.7-2.4-2.7z" fill="#ffe932" fill-rule="nonzero"/>
        </g>
    </g>
    <g transform="matrix(2.8243 0 0 2.8243 -.18243 53.511)">
        <clipPath id="b">
            <path d="m77.6 2.2h0.1-0.1m67.8 62.4c-4-4.5-12.5-13.6-32-31.6-29.5-27.5-34.9-30.4-35.7-30.8-0.8 0.3-6.2 3.2-35.3 30.7-14.8 14-25.3 24.3-31.4 30.7-2.6 2.8-4.4 4.9-4.6 5.2 0.5 1 4.7 6.9 36.4 36.3 13.6 12.6 23.6 21.5 29.7 26.5 0.9 0.7 5 3.9 5 3.9h0.2c0.4-0.1 5.1-1.8 35.9-30.8 19-17.9 27.5-26.9 31.6-31.5l0.2-8.6m-139.2 4.7c0.1-0.2 0.1-0.4 0.1-0.5l-0.1 0.5"/>
        </clipPath>
        <g clip-path="url(#b)">
            <path d="m57.4 114.7-2.5-2.6-40.8-40.8-0.3-0.5c0-0.2 0.1-0.9 0.1-0.9 0-0.1 26.8-26.1 42.5-39.4 0 0 21.5-17.4 22-17.7 0-0.1-0.6-10.7-0.6-11.2-0.4 0.3-32.3 28.8-32.3 28.8-12 10.4-34.1 34.7-36.4 37.1-0.4 0.4-0.7 0.9-0.7 1.5s0.2 1.1 0.7 1.5l0.1 0.1c7.3 7 25.5 24.3 35.6 34 3.5 3.4 4.8 4.5 6.1 5.5 0.3 0.2 1.3 1 5.3 4.3l0.6 0.5s1.4 1.1 2.4 1.8c-0.4-0.4-1.8-2-1.8-2z" fill="#ffe93b" fill-rule="nonzero"/>
        </g>
    </g>
    <g transform="matrix(2.8243 0 0 2.8243 -.18243 53.511)">
        <clipPath id="a">
            <path d="m77.6 2.2h0.1-0.1m67.8 62.4c-4-4.5-12.5-13.6-32-31.6-29.5-27.5-34.9-30.4-35.7-30.8-0.8 0.3-6.2 3.2-35.3 30.7-14.8 14-25.3 24.3-31.4 30.7-2.6 2.8-4.4 4.9-4.6 5.2 0.5 1 4.7 6.9 36.4 36.3 13.6 12.6 23.6 21.5 29.7 26.5 0.9 0.7 5 3.9 5 3.9h0.2c0.4-0.1 5.1-1.8 35.9-30.8 19-17.9 27.5-26.9 31.6-31.5l0.2-8.6m-139.2 4.7c0.1-0.2 0.1-0.4 0.1-0.5l-0.1 0.5"/>
        </clipPath>
        <g clip-path="url(#a)">
            <path d="m57.3 114.8-2.5-2.6-35.1-35.1-5.7-5.8-0.3-0.5v-0.1l0.1-0.9c0-0.1 26.4-25.8 42.5-39.5 0 0 21.5-17.4 21.9-17.7 0-0.1-0.6-10.5-0.6-10.9-0.4 0.3-32.2 28.7-32.2 28.7-11.8 10.5-33.9 34.8-36.3 37.1-0.4 0.4-0.6 0.9-0.6 1.4s0.2 1 0.6 1.4l0.1 0.1c7.3 7 25.5 24.3 35.6 34 3.5 3.4 4.8 4.4 6.1 5.5 0.3 0.3 5.9 4.8 5.9 4.8s0.8 0.6 1.5 1.1c-0.5-0.4-1-1-1-1z" fill="#ffe943" fill-rule="nonzero"/>
        </g>
    </g>
    <g transform="matrix(2.8243 0 0 2.8243 -.18243 53.511)">
        <clipPath id="at">
            <path d="m77.6 2.2h0.1-0.1m67.8 62.4c-4-4.5-12.5-13.6-32-31.6-29.5-27.5-34.9-30.4-35.7-30.8-0.8 0.3-6.2 3.2-35.3 30.7-14.8 14-25.3 24.3-31.4 30.7-2.6 2.8-4.4 4.9-4.6 5.2 0.5 1 4.7 6.9 36.4 36.3 13.6 12.6 23.6 21.5 29.7 26.5 0.9 0.7 5 3.9 5 3.9h0.2c0.4-0.1 5.1-1.8 35.9-30.8 19-17.9 27.5-26.9 31.6-31.5l0.2-8.6m-139.2 4.7c0.1-0.2 0.1-0.4 0.1-0.5l-0.1 0.5"/>
        </clipPath>
        <g clip-path="url(#at)">
            <path d="m57.2 114.9-2.5-2.6-35-35.2-5.7-5.7-0.3-0.5v-0.1l0.1-0.9c0.1-0.3 27.3-26.6 42.5-39.5 0 0 21.5-17.3 21.9-17.7 0-0.1-0.6-10.2-0.6-10.6-0.4 0.3-32 28.5-32 28.5-11.9 10.3-34 34.6-36.4 37-0.4 0.4-0.6 0.8-0.6 1.3s0.2 1 0.6 1.3l0.1 0.1c7.3 7 25.5 24.3 35.6 34 3.5 3.4 4.8 4.4 6.1 5.5l5.9 4.8s0.1 0.1 0.6 0.5c-0.1 0-0.3-0.2-0.3-0.2z" fill="#ffea4a" fill-rule="nonzero"/>
        </g>
    </g>
    <g transform="matrix(2.8243 0 0 2.8243 -.18243 53.511)">
        <clipPath id="as">
            <path d="m77.6 2.2h0.1-0.1m67.8 62.4c-4-4.5-12.5-13.6-32-31.6-29.5-27.5-34.9-30.4-35.7-30.8-0.8 0.3-6.2 3.2-35.3 30.7-14.8 14-25.3 24.3-31.4 30.7-2.6 2.8-4.4 4.9-4.6 5.2 0.5 1 4.7 6.9 36.4 36.3 13.6 12.6 23.6 21.5 29.7 26.5 0.9 0.7 5 3.9 5 3.9h0.2c0.4-0.1 5.1-1.8 35.9-30.8 19-17.9 27.5-26.9 31.6-31.5l0.2-8.6m-139.2 4.7c0.1-0.2 0.1-0.4 0.1-0.5l-0.1 0.5"/>
        </clipPath>
        <g clip-path="url(#as)">
            <path d="m54.7 112.4-35.1-35.2-5.7-5.7-0.4-0.5v-0.2l0.1-0.9c0.1-0.3 27.3-26.6 42.6-39.6 0 0 21.4-17.3 21.8-17.6 0-0.1-0.6-9.9-0.6-10.3-0.4 0.2-31.8 28.2-31.8 28.2-11.9 10.4-33.9 34.7-36.3 37.1-0.4 0.3-0.6 0.8-0.6 1.3s0.2 0.9 0.6 1.3l0.1 0.1c7.3 7 25.5 24.2 35.6 34 3.5 3.4 4.8 4.4 6 5.5 0 0 4.6 3.7 5.4 4.4-0.7-0.9-1.7-1.9-1.7-1.9z" fill="#ffeb51" fill-rule="nonzero"/>
        </g>
    </g>
    <g transform="matrix(2.8243 0 0 2.8243 -.18243 53.511)">
        <clipPath id="ar">
            <path d="m77.6 2.2h0.1-0.1m67.8 62.4c-4-4.5-12.5-13.6-32-31.6-29.5-27.5-34.9-30.4-35.7-30.8-0.8 0.3-6.2 3.2-35.3 30.7-14.8 14-25.3 24.3-31.4 30.7-2.6 2.8-4.4 4.9-4.6 5.2 0.5 1 4.7 6.9 36.4 36.3 13.6 12.6 23.6 21.5 29.7 26.5 0.9 0.7 5 3.9 5 3.9h0.2c0.4-0.1 5.1-1.8 35.9-30.8 19-17.9 27.5-26.9 31.6-31.5l0.2-8.6m-139.2 4.7c0.1-0.2 0.1-0.4 0.1-0.5l-0.1 0.5"/>
        </clipPath>
        <g clip-path="url(#ar)">
            <path d="m54.6 112.5-35.1-35.2-5.7-5.7-0.4-0.8 0.1-1c0.1-0.3 27.2-26.6 42.6-39.7 0 0 21.4-17.3 21.8-17.6 0-0.1-0.6-9.6-0.6-10-0.4 0.3-31.6 28.2-31.6 28.2-11.8 10.3-34 34.7-36.3 37.1-0.3 0.3-0.5 0.8-0.5 1.2s0.2 0.9 0.5 1.2l0.1 0.1c7.3 6.9 25.4 24.2 35.6 34 3.5 3.4 4.8 4.4 6 5.4 0 0 3.8 3.1 4 3.3l-0.5-0.5z" fill="#ffeb58" fill-rule="nonzero"/>
        </g>
    </g>
    <g transform="matrix(2.8243 0 0 2.8243 -.18243 53.511)">
        <clipPath id="aq">
            <path d="m77.6 2.2h0.1-0.1m67.8 62.4c-4-4.5-12.5-13.6-32-31.6-29.5-27.5-34.9-30.4-35.7-30.8-0.8 0.3-6.2 3.2-35.3 30.7-14.8 14-25.3 24.3-31.4 30.7-2.6 2.8-4.4 4.9-4.6 5.2 0.5 1 4.7 6.9 36.4 36.3 13.6 12.6 23.6 21.5 29.7 26.5 0.9 0.7 5 3.9 5 3.9h0.2c0.4-0.1 5.1-1.8 35.9-30.8 19-17.9 27.5-26.9 31.6-31.5l0.2-8.6m-139.2 4.7c0.1-0.2 0.1-0.4 0.1-0.5l-0.1 0.5"/>
        </clipPath>
        <g clip-path="url(#aq)">
            <path d="m19.4 77.4-5.7-5.7-0.4-0.6-0.1-0.2v-0.1l0.1-1c0.1-0.3 27.2-26.7 42.7-39.7 0 0 21.4-17.2 21.8-17.6 0-0.1-0.6-9.3-0.6-9.8-0.4 0.3-31.5 28.1-31.5 28.1-11.8 10.3-33.9 34.7-36.3 37-0.3 0.3-0.5 0.7-0.5 1.1s0.2 0.8 0.5 1.1l0.1 0.1c7.3 6.9 25.4 24.1 35.6 34 3.5 3.4 4.8 4.4 6 5.4 0 0 1.4 1.1 2.5 2-2.9-2.8-14.4-14.3-34.2-34.1z" fill="#ffec5e" fill-rule="nonzero"/>
        </g>
    </g>
    <g transform="matrix(2.8243 0 0 2.8243 -.18243 53.511)">
        <clipPath id="ap">
            <path d="m77.6 2.2h0.1-0.1m67.8 62.4c-4-4.5-12.5-13.6-32-31.6-29.5-27.5-34.9-30.4-35.7-30.8-0.8 0.3-6.2 3.2-35.3 30.7-14.8 14-25.3 24.3-31.4 30.7-2.6 2.8-4.4 4.9-4.6 5.2 0.5 1 4.7 6.9 36.4 36.3 13.6 12.6 23.6 21.5 29.7 26.5 0.9 0.7 5 3.9 5 3.9h0.2c0.4-0.1 5.1-1.8 35.9-30.8 19-17.9 27.5-26.9 31.6-31.5l0.2-8.6m-139.2 4.7c0.1-0.2 0.1-0.4 0.1-0.5l-0.1 0.5"/>
        </clipPath>
        <g clip-path="url(#ap)">
            <path d="m13.7 71.7-0.4-0.6-0.1-0.2v-0.1l0.1-1c0.1-0.3 27.2-26.7 42.7-39.8 0 0 21.3-17.2 21.7-17.5 0-0.1-0.6-9-0.6-9.5-0.4 0.3-31.3 27.9-31.3 27.9-11.8 10.3-33.9 34.6-36.3 37-0.3 0.3-0.5 0.7-0.5 1 0 0.4 0.2 0.7 0.5 1l0.1 0.1c7.3 7 25.4 24.2 35.6 34 3.5 3.4 4.8 4.4 6 5.4 0 0 0.4 0.3 0.9 0.7-2.5-2.4-38.4-38.4-38.4-38.4zm-0.1 0.1-0.4-0.6-0.1-0.2v-0.1l0.1-1c0.1-0.3 27.2-26.8 42.7-39.9 0 0 21.3-17.2 21.7-17.5 0-0.1-0.6-8.8-0.6-9.2-0.4 0.3-31.1 27.7-31.1 27.7-11.7 10.2-33.9 34.6-36.3 37-0.3 0.3-0.5 0.6-0.5 1s0.2 0.7 0.4 1h0.2c7.3 7 25.4 24.2 35.6 34 2.8 2.7 4.2 3.9 5.3 4.8-2.8-2.7-37-37-37-37z" fill="#ffec64" fill-rule="nonzero"/>
        </g>
    </g>
    <g transform="matrix(2.8243 0 0 2.8243 -.18243 53.511)">
        <clipPath id="ao">
            <path d="m77.6 2.2h0.1-0.1m67.8 62.4c-4-4.5-12.5-13.6-32-31.6-29.5-27.5-34.9-30.4-35.7-30.8-0.8 0.3-6.2 3.2-35.3 30.7-14.8 14-25.3 24.3-31.4 30.7-2.6 2.8-4.4 4.9-4.6 5.2 0.5 1 4.7 6.9 36.4 36.3 13.6 12.6 23.6 21.5 29.7 26.5 0.9 0.7 5 3.9 5 3.9h0.2c0.4-0.1 5.1-1.8 35.9-30.8 19-17.9 27.5-26.9 31.6-31.5l0.2-8.6m-139.2 4.7c0.1-0.2 0.1-0.4 0.1-0.5l-0.1 0.5"/>
        </clipPath>
        <g clip-path="url(#ao)">
            <path d="m13.5 71.9-0.4-0.6-0.1-0.3v-0.2l0.1-1c0.1-0.3 27.2-26.8 42.8-40 0 0 21.3-17.1 21.7-17.5 0-0.1-0.6-8.5-0.6-8.9-0.5 0.4-31.1 27.6-31.1 27.6-11.7 10.3-33.9 34.6-36.3 37-0.3 0.2-0.4 0.6-0.4 0.9s0.1 0.6 0.4 0.9l0.1 0.1c5.7 5.4 25 23.8 35.6 34 1.2 1.1 2.1 2 2.8 2.7-3.9-3.9-34.6-34.7-34.6-34.7zm-0.1 0-0.4-0.6-0.1-0.3v-0.2l0.1-1c0.1-0.3 27.2-26.8 42.8-40 0 0 21.2-17.1 21.6-17.5 0-0.1-0.6-8.2-0.6-8.6-0.4 0.3-30.8 27.4-30.8 27.4-11.7 10.3-33.9 34.6-36.3 37-0.2 0.2-0.4 0.5-0.4 0.8s0.1 0.6 0.4 0.8l0.1 0.1c5.1 4.8 21.1 20 32 30.5l-28.4-28.4z" fill="#ffed6a" fill-rule="nonzero"/>
        </g>
    </g>
    <g transform="matrix(2.8243 0 0 2.8243 -.18243 53.511)">
        <clipPath id="an">
            <path d="m77.6 2.2h0.1-0.1m67.8 62.4c-4-4.5-12.5-13.6-32-31.6-29.5-27.5-34.9-30.4-35.7-30.8-0.8 0.3-6.2 3.2-35.3 30.7-14.8 14-25.3 24.3-31.4 30.7-2.6 2.8-4.4 4.9-4.6 5.2 0.5 1 4.7 6.9 36.4 36.3 13.6 12.6 23.6 21.5 29.7 26.5 0.9 0.7 5 3.9 5 3.9h0.2c0.4-0.1 5.1-1.8 35.9-30.8 19-17.9 27.5-26.9 31.6-31.5l0.2-8.6m-139.2 4.7c0.1-0.2 0.1-0.4 0.1-0.5l-0.1 0.5"/>
        </clipPath>
        <g clip-path="url(#an)">
            <path d="m13.4 72-0.4-0.7-0.1-0.3v-0.2l0.1-1.1c0.1-0.3 27.3-26.9 42.8-40.1 0 0 21.2-17.1 21.6-17.4 0-0.1-0.6-7.9-0.6-8.3-0.4 0.3-30.5 27.3-30.5 27.3-11.7 10.3-33.9 34.6-36.3 37-0.2 0.2-0.4 0.5-0.4 0.7 0 0.3 0.1 0.5 0.3 0.7 0 0 16.5 15.7 25.8 24.6-7.7-7.5-22.3-22.2-22.3-22.2z" fill="#ffee76" fill-rule="nonzero"/>
        </g>
    </g>
    <g transform="matrix(2.8243 0 0 2.8243 -.18243 53.511)">
        <clipPath id="am">
            <path d="m77.6 2.2h0.1-0.1m67.8 62.4c-4-4.5-12.5-13.6-32-31.6-29.5-27.5-34.9-30.4-35.7-30.8-0.8 0.3-6.2 3.2-35.3 30.7-14.8 14-25.3 24.3-31.4 30.7-2.6 2.8-4.4 4.9-4.6 5.2 0.5 1 4.7 6.9 36.4 36.3 13.6 12.6 23.6 21.5 29.7 26.5 0.9 0.7 5 3.9 5 3.9h0.2c0.4-0.1 5.1-1.8 35.9-30.8 19-17.9 27.5-26.9 31.6-31.5l0.2-8.6m-139.2 4.7c0.1-0.2 0.1-0.4 0.1-0.5l-0.1 0.5"/>
        </clipPath>
        <g clip-path="url(#am)">
            <path d="m13.3 72.1-0.5-0.7-0.2-0.6 0.1-1.1c0.1-0.3 27.3-26.9 42.9-40.2 0 0 21.1-17 21.5-17.4 0-0.1-0.6-7.6-0.6-8.1-0.4 0.3-30.4 27.1-30.4 27.1-11.7 10.3-33.9 34.6-36.3 37-0.2 0.2-0.3 0.4-0.3 0.7 0 0.2 0.1 0.5 0.3 0.6l19.5 18.6c-6.4-6.3-16-15.9-16-15.9z" fill="#ffee7b" fill-rule="nonzero"/>
        </g>
    </g>
    <g transform="matrix(2.8243 0 0 2.8243 -.18243 53.511)">
        <clipPath id="al">
            <path d="m77.6 2.2h0.1-0.1m67.8 62.4c-4-4.5-12.5-13.6-32-31.6-29.5-27.5-34.9-30.4-35.7-30.8-0.8 0.3-6.2 3.2-35.3 30.7-14.8 14-25.3 24.3-31.4 30.7-2.6 2.8-4.4 4.9-4.6 5.2 0.5 1 4.7 6.9 36.4 36.3 13.6 12.6 23.6 21.5 29.7 26.5 0.9 0.7 5 3.9 5 3.9h0.2c0.4-0.1 5.1-1.8 35.9-30.8 19-17.9 27.5-26.9 31.6-31.5l0.2-8.6m-139.2 4.7c0.1-0.2 0.1-0.4 0.1-0.5l-0.1 0.5"/>
        </clipPath>
        <g clip-path="url(#al)">
            <path d="m13.2 72.2-0.1-0.1-0.4-0.6-0.2-0.6 0.1-1.1c0.1-0.3 27.3-27 42.9-40.3 0 0 21.1-17 21.5-17.4 0-0.1-0.6-7.3-0.6-7.8-0.4 0.3-30.2 27-30.2 27-11.6 10.3-33.8 34.7-36.2 37-0.2 0.2-0.3 0.4-0.3 0.6s0.1 0.4 0.3 0.6c0 0 8.5 8.1 13.2 12.6-4.8-4.7-10-9.9-10-9.9z" fill="#ffef81" fill-rule="nonzero"/>
        </g>
    </g>
    <g transform="matrix(2.8243 0 0 2.8243 -.18243 53.511)">
        <clipPath id="ak">
            <path d="m77.6 2.2h0.1-0.1m67.8 62.4c-4-4.5-12.5-13.6-32-31.6-29.5-27.5-34.9-30.4-35.7-30.8-0.8 0.3-6.2 3.2-35.3 30.7-14.8 14-25.3 24.3-31.4 30.7-2.6 2.8-4.4 4.9-4.6 5.2 0.5 1 4.7 6.9 36.4 36.3 13.6 12.6 23.6 21.5 29.7 26.5 0.9 0.7 5 3.9 5 3.9h0.2c0.4-0.1 5.1-1.8 35.9-30.8 19-17.9 27.5-26.9 31.6-31.5l0.2-8.6m-139.2 4.7c0.1-0.2 0.1-0.4 0.1-0.5l-0.1 0.5"/>
        </clipPath>
        <g clip-path="url(#ak)">
            <path d="m13.1 72.2-0.1-0.1 0.1 0.1c-0.1-0.2-0.2-0.3-0.5-0.7l-0.2-0.6 0.1-1.1c0.1-0.3 27.3-27 42.9-40.3 0 0 21.1-17 21.5-17.3 0-0.1-0.6-7.1-0.6-7.5-0.4 0.3-30 26.8-30 26.8-11.6 10.1-33.9 34.5-36.3 36.9-0.2 0.2-0.3 0.3-0.3 0.5s0.1 0.4 0.2 0.5c0 0 4.9 4.7 6.8 6.5-1.6-1.7-3.6-3.7-3.6-3.7z" fill="#ffef86" fill-rule="nonzero"/>
        </g>
    </g>
    <g transform="matrix(2.8243 0 0 2.8243 -.18243 53.511)">
        <clipPath id="ai">
            <path d="m77.6 2.2h0.1-0.1m67.8 62.4c-4-4.5-12.5-13.6-32-31.6-29.5-27.5-34.9-30.4-35.7-30.8-0.8 0.3-6.2 3.2-35.3 30.7-14.8 14-25.3 24.3-31.4 30.7-2.6 2.8-4.4 4.9-4.6 5.2 0.5 1 4.7 6.9 36.4 36.3 13.6 12.6 23.6 21.5 29.7 26.5 0.9 0.7 5 3.9 5 3.9h0.2c0.4-0.1 5.1-1.8 35.9-30.8 19-17.9 27.5-26.9 31.6-31.5l0.2-8.6m-139.2 4.7c0.1-0.2 0.1-0.4 0.1-0.5l-0.1 0.5"/>
        </clipPath>
        <g clip-path="url(#ai)">
            <path d="m12.6 71.6-0.2-0.4-0.1-0.3 0.1-1.1c0.1-0.3 27.3-27.1 43-40.4 0 0 21-17 21.4-17.3 0-0.1-0.6-6.8-0.6-7.2-0.4 0.3-29.8 26.6-29.8 26.6-11.6 10.2-33.8 34.6-36.2 37-0.1 0.1-0.2 0.3-0.2 0.4s0.1 0.3 0.2 0.4c0 0 1.8 1.7 2.7 2.6-0.2-0.1-0.3-0.3-0.3-0.3z" fill="#fff08b" fill-rule="nonzero"/>
        </g>
    </g>
    <g transform="matrix(2.8243 0 0 2.8243 -.18243 53.511)">
        <clipPath id="ah">
            <path d="m77.6 2.2h0.1-0.1m67.8 62.4c-4-4.5-12.5-13.6-32-31.6-29.5-27.5-34.9-30.4-35.7-30.8-0.8 0.3-6.2 3.2-35.3 30.7-14.8 14-25.3 24.3-31.4 30.7-2.6 2.8-4.4 4.9-4.6 5.2 0.5 1 4.7 6.9 36.4 36.3 13.6 12.6 23.6 21.5 29.7 26.5 0.9 0.7 5 3.9 5 3.9h0.2c0.4-0.1 5.1-1.8 35.9-30.8 19-17.9 27.5-26.9 31.6-31.5l0.2-8.6m-139.2 4.7c0.1-0.2 0.1-0.4 0.1-0.5l-0.1 0.5"/>
        </clipPath>
        <g clip-path="url(#ah)">
            <path d="m12.3 71.3-0.1-0.3 0.1-1.2c0.1-0.3 27.3-27.1 43-40.5 0 0 21-16.9 21.4-17.3 0-0.1-0.6-6.5-0.6-6.9-0.4 0.3-29.7 26.5-29.7 26.5-11.6 10.2-33.8 34.6-36.2 37-0.1 0.1-0.2 0.3-0.2 0.4s0.1 0.2 0.2 0.3c0 0 1.6 1.5 2.2 2.1l-0.1-0.1z" fill="#fff190" fill-rule="nonzero"/>
        </g>
    </g>
    <g transform="matrix(2.8243 0 0 2.8243 -.18243 53.511)">
        <clipPath id="ag">
            <path d="m77.6 2.2h0.1-0.1m67.8 62.4c-4-4.5-12.5-13.6-32-31.6-29.5-27.5-34.9-30.4-35.7-30.8-0.8 0.3-6.2 3.2-35.3 30.7-14.8 14-25.3 24.3-31.4 30.7-2.6 2.8-4.4 4.9-4.6 5.2 0.5 1 4.7 6.9 36.4 36.3 13.6 12.6 23.6 21.5 29.7 26.5 0.9 0.7 5 3.9 5 3.9h0.2c0.4-0.1 5.1-1.8 35.9-30.8 19-17.9 27.5-26.9 31.6-31.5l0.2-8.6m-139.2 4.7c0.1-0.2 0.1-0.4 0.1-0.5l-0.1 0.5"/>
        </clipPath>
        <g clip-path="url(#ag)">
            <path d="m12.1 70.9 0.1-1.2c0.1-0.3 27.3-27.2 43.1-40.6 0 0 21-16.9 21.4-17.2 0-0.1-0.6-6.2-0.6-6.6-0.4 0.3-29.5 26.3-29.5 26.3-11.5 10.1-33.8 34.6-36.2 37l-0.2 0.3 0.1 0.3s1.6 1.6 1.9 1.8l-0.1-0.1z" fill="#fff195" fill-rule="nonzero"/>
        </g>
    </g>
    <g transform="matrix(2.8243 0 0 2.8243 -.18243 53.511)">
        <clipPath id="af">
            <path d="m77.6 2.2h0.1-0.1m67.8 62.4c-4-4.5-12.5-13.6-32-31.6-29.5-27.5-34.9-30.4-35.7-30.8-0.8 0.3-6.2 3.2-35.3 30.7-14.8 14-25.3 24.3-31.4 30.7-2.6 2.8-4.4 4.9-4.6 5.2 0.5 1 4.7 6.9 36.4 36.3 13.6 12.6 23.6 21.5 29.7 26.5 0.9 0.7 5 3.9 5 3.9h0.2c0.4-0.1 5.1-1.8 35.9-30.8 19-17.9 27.5-26.9 31.6-31.5l0.2-8.6m-139.2 4.7c0.1-0.2 0.1-0.4 0.1-0.5l-0.1 0.5"/>
        </clipPath>
        <g clip-path="url(#af)">
            <path d="m12.1 69.7c0.1-0.3 27.3-27.2 43.1-40.6 0.2-0.2 20.6-16.6 21.3-17.2v-1.5s-0.6-4.4-0.6-4.8c-0.3 0.3-29.3 26.2-29.3 26.2-9 7.9-24.6 24.5-32 32.5l-4.2 4.4-0.1 0.2 0.1 0.2s1.2 1.2 1.7 1.6c-0.1-0.2 0-1 0-1z" fill="#fff29a" fill-rule="nonzero"/>
        </g>
    </g>
    <g transform="matrix(2.8243 0 0 2.8243 -.18243 53.511)">
        <clipPath id="ae">
            <path d="m77.6 2.2h0.1-0.1m67.8 62.4c-4-4.5-12.5-13.6-32-31.6-29.5-27.5-34.9-30.4-35.7-30.8-0.8 0.3-6.2 3.2-35.3 30.7-14.8 14-25.3 24.3-31.4 30.7-2.6 2.8-4.4 4.9-4.6 5.2 0.5 1 4.7 6.9 36.4 36.3 13.6 12.6 23.6 21.5 29.7 26.5 0.9 0.7 5 3.9 5 3.9h0.2c0.4-0.1 5.1-1.8 35.9-30.8 19-17.9 27.5-26.9 31.6-31.5l0.2-8.6m-139.2 4.7c0.1-0.2 0.1-0.4 0.1-0.5l-0.1 0.5"/>
        </clipPath>
        <g clip-path="url(#ae)">
            <path d="m12 69.7c0.1-0.3 27.3-27.3 43.1-40.7 0 0 20.9-16.8 21.3-17.2v-1.4s-0.5-3.7-0.6-4.7c-0.3 0.3-29.1 26-29.1 26-9 7.9-24.5 24.5-32 32.5l-4.2 4.4v-0.1l-0.1 0.3 0.1 0.2c0.1 0.1 0.5 0.5 1.6 1.4-0.1-0.1-0.1-0.7-0.1-0.7z" fill="#fff29f" fill-rule="nonzero"/>
        </g>
    </g>
    <g transform="matrix(2.8243 0 0 2.8243 -.18243 53.511)">
        <clipPath id="ad">
            <path d="m77.6 2.2h0.1-0.1m67.8 62.4c-4-4.5-12.5-13.6-32-31.6-29.5-27.5-34.9-30.4-35.7-30.8-0.8 0.3-6.2 3.2-35.3 30.7-14.8 14-25.3 24.3-31.4 30.7-2.6 2.8-4.4 4.9-4.6 5.2 0.5 1 4.7 6.9 36.4 36.3 13.6 12.6 23.6 21.5 29.7 26.5 0.9 0.7 5 3.9 5 3.9h0.2c0.4-0.1 5.1-1.8 35.9-30.8 19-17.9 27.5-26.9 31.6-31.5l0.2-8.6m-139.2 4.7c0.1-0.2 0.1-0.4 0.1-0.5l-0.1 0.5"/>
        </clipPath>
        <g clip-path="url(#ad)">
            <path d="m11.9 69.7c0.1-0.3 27.3-27.3 43.1-40.8 0 0 20.8-16.8 21.2-17.1v-1.4s-0.5-3.5-0.5-4.4c-0.3 0.3-29 25.9-29 25.9-9 7.9-24.5 24.5-32 32.5l-4.2 4.5 0.1 0.1h-0.1c0.1 0.1 0.5 0.4 1.4 1.3v-0.6z" fill="#fff3a3" fill-rule="nonzero"/>
        </g>
    </g>
    <g transform="matrix(2.8243 0 0 2.8243 -.18243 53.511)">
        <clipPath id="ac">
            <path d="m77.6 2.2h0.1-0.1m67.8 62.4c-4-4.5-12.5-13.6-32-31.6-29.5-27.5-34.9-30.4-35.7-30.8-0.8 0.3-6.2 3.2-35.3 30.7-14.8 14-25.3 24.3-31.4 30.7-2.6 2.8-4.4 4.9-4.6 5.2 0.5 1 4.7 6.9 36.4 36.3 13.6 12.6 23.6 21.5 29.7 26.5 0.9 0.7 5 3.9 5 3.9h0.2c0.4-0.1 5.1-1.8 35.9-30.8 19-17.9 27.5-26.9 31.6-31.5l0.2-8.6m-139.2 4.7c0.1-0.2 0.1-0.4 0.1-0.5l-0.1 0.5"/>
        </clipPath>
        <g clip-path="url(#ac)">
            <path d="m11.8 69.7c0.1-0.4 27.4-27.4 43.2-40.9l11.6-9.5 9.6-7.6c0-0.1-0.6-4.6-0.6-5.5-0.4 0.3-28.8 25.8-28.8 25.8-9 7.9-24.5 24.5-32 32.5-0.1 0.1-0.2 0.3-0.6 0.7l-3.6 3.8v0.1c0.2 0.1 0.5 0.4 1.1 1.1 0.1-0.3 0.1-0.5 0.1-0.5z" fill="#fff3a8" fill-rule="nonzero"/>
        </g>
    </g>
    <g transform="matrix(2.8243 0 0 2.8243 -.18243 53.511)">
        <clipPath id="ab">
            <path d="m77.6 2.2h0.1-0.1m67.8 62.4c-4-4.5-12.5-13.6-32-31.6-29.5-27.5-34.9-30.4-35.7-30.8-0.8 0.3-6.2 3.2-35.3 30.7-14.8 14-25.3 24.3-31.4 30.7-2.6 2.8-4.4 4.9-4.6 5.2 0.5 1 4.7 6.9 36.4 36.3 13.6 12.6 23.6 21.5 29.7 26.5 0.9 0.7 5 3.9 5 3.9h0.2c0.4-0.1 5.1-1.8 35.9-30.8 19-17.9 27.5-26.9 31.6-31.5l0.2-8.6m-139.2 4.7c0.1-0.2 0.1-0.4 0.1-0.5l-0.1 0.5"/>
        </clipPath>
        <g clip-path="url(#ab)">
            <path d="m11.7 69.7c0.1-0.4 27.4-27.5 43.2-40.9 0-0.1 0.1-0.1 0.3-0.3l20.8-16.8c0-0.1-0.6-4.8-0.6-5.2-0.3 0.3-28.6 25.5-28.6 25.5-9 7.9-24.5 24.5-32 32.5l-0.6 0.6s-3.2 3.4-3.6 3.8c0.1 0.1 0.7 0.6 0.9 0.9l0.2-0.1z" fill="#fff4ad" fill-rule="nonzero"/>
        </g>
    </g>
    <g transform="matrix(2.8243 0 0 2.8243 -.18243 53.511)">
        <clipPath id="aa">
            <path d="m77.6 2.2h0.1-0.1m67.8 62.4c-4-4.5-12.5-13.6-32-31.6-29.5-27.5-34.9-30.4-35.7-30.8-0.8 0.3-6.2 3.2-35.3 30.7-14.8 14-25.3 24.3-31.4 30.7-2.6 2.8-4.4 4.9-4.6 5.2 0.5 1 4.7 6.9 36.4 36.3 13.6 12.6 23.6 21.5 29.7 26.5 0.9 0.7 5 3.9 5 3.9h0.2c0.4-0.1 5.1-1.8 35.9-30.8 19-17.9 27.5-26.9 31.6-31.5l0.2-8.6m-139.2 4.7c0.1-0.2 0.1-0.4 0.1-0.5l-0.1 0.5"/>
        </clipPath>
        <g clip-path="url(#aa)">
            <path d="m46.9 32.1c-9 7.9-24.5 24.5-32 32.5l-0.6 0.6s-3.1 3.3-3.5 3.7l0.7 0.7c0.1-0.3 27.4-27.5 43.3-40.9l0.3-0.3s20.3-16.4 20.8-16.8c0-0.1-0.1-1.2-0.1-1.2-0.2-1.3-0.4-3.2-0.4-3.8-0.3 0.4-28.5 25.5-28.5 25.5z" fill="#fff4b1" fill-rule="nonzero"/>
        </g>
    </g>
    <g transform="matrix(2.8243 0 0 2.8243 -.18243 53.511)">
        <clipPath id="z">
            <path d="m77.6 2.2h0.1-0.1m67.8 62.4c-4-4.5-12.5-13.6-32-31.6-29.5-27.5-34.9-30.4-35.7-30.8-0.8 0.3-6.2 3.2-35.3 30.7-14.8 14-25.3 24.3-31.4 30.7-2.6 2.8-4.4 4.9-4.6 5.2 0.5 1 4.7 6.9 36.4 36.3 13.6 12.6 23.6 21.5 29.7 26.5 0.9 0.7 5 3.9 5 3.9h0.2c0.4-0.1 5.1-1.8 35.9-30.8 19-17.9 27.5-26.9 31.6-31.5l0.2-8.6m-139.2 4.7c0.1-0.2 0.1-0.4 0.1-0.5l-0.1 0.5"/>
        </clipPath>
        <g clip-path="url(#z)">
            <path d="m47 32.2c-9 7.9-24.5 24.5-32 32.5 0 0-3.6 3.9-4 4.2l0.6 0.5c1.8-2 27.9-27.8 43.2-40.8l0.3-0.3s20.1-16.2 20.7-16.7c0-0.1-0.1-1.2-0.1-1.2s-0.3-2.8-0.4-3.6c-0.3 0.4-28.3 25.4-28.3 25.4z" fill="#fff5b5" fill-rule="nonzero"/>
        </g>
    </g>
    <g transform="matrix(2.8243 0 0 2.8243 -.18243 53.511)">
        <clipPath id="x">
            <path d="m77.6 2.2h0.1-0.1m67.8 62.4c-4-4.5-12.5-13.6-32-31.6-29.5-27.5-34.9-30.4-35.7-30.8-0.8 0.3-6.2 3.2-35.3 30.7-14.8 14-25.3 24.3-31.4 30.7-2.6 2.8-4.4 4.9-4.6 5.2 0.5 1 4.7 6.9 36.4 36.3 13.6 12.6 23.6 21.5 29.7 26.5 0.9 0.7 5 3.9 5 3.9h0.2c0.4-0.1 5.1-1.8 35.9-30.8 19-17.9 27.5-26.9 31.6-31.5l0.2-8.6m-139.2 4.7c0.1-0.2 0.1-0.4 0.1-0.5l-0.1 0.5"/>
        </clipPath>
        <g clip-path="url(#x)">
            <path d="m47.1 32.3c-9 7.9-24.5 24.5-31.9 32.5 0 0-3.8 4.1-4 4.2l0.4 0.4c2.2-2.4 28-28 43.1-40.8l0.3-0.3 20.7-16.7c0-0.1-0.1-1.1-0.1-1.1s-0.3-2.6-0.4-3.4c-0.3 0.3-28.1 25.2-28.1 25.2z" fill="#fff5ba" fill-rule="nonzero"/>
        </g>
    </g>
    <g transform="matrix(2.8243 0 0 2.8243 -.18243 53.511)">
        <clipPath id="w">
            <path d="m77.6 2.2h0.1-0.1m67.8 62.4c-4-4.5-12.5-13.6-32-31.6-29.5-27.5-34.9-30.4-35.7-30.8-0.8 0.3-6.2 3.2-35.3 30.7-14.8 14-25.3 24.3-31.4 30.7-2.6 2.8-4.4 4.9-4.6 5.2 0.5 1 4.7 6.9 36.4 36.3 13.6 12.6 23.6 21.5 29.7 26.5 0.9 0.7 5 3.9 5 3.9h0.2c0.4-0.1 5.1-1.8 35.9-30.8 19-17.9 27.5-26.9 31.6-31.5l0.2-8.6m-139.2 4.7c0.1-0.2 0.1-0.4 0.1-0.5l-0.1 0.5"/>
        </clipPath>
        <g clip-path="url(#w)">
            <path d="m47.1 32.4c-9 7.9-24.5 24.5-31.9 32.4 0 0-3.8 4-3.9 4.1l0.3 0.2c2.6-2.7 28-27.9 43.1-40.7l0.3-0.3 11.5-9.3 9.1-7.3c0-0.1-0.1-1.1-0.1-1.1s-0.3-2.8-0.4-3.1c-0.3 0.3-28 25.1-28 25.1z" fill="#fff6be" fill-rule="nonzero"/>
        </g>
    </g>
    <g transform="matrix(2.8243 0 0 2.8243 -.18243 53.511)">
        <clipPath id="v">
            <path d="m77.6 2.2h0.1-0.1m67.8 62.4c-4-4.5-12.5-13.6-32-31.6-29.5-27.5-34.9-30.4-35.7-30.8-0.8 0.3-6.2 3.2-35.3 30.7-14.8 14-25.3 24.3-31.4 30.7-2.6 2.8-4.4 4.9-4.6 5.2 0.5 1 4.7 6.9 36.4 36.3 13.6 12.6 23.6 21.5 29.7 26.5 0.9 0.7 5 3.9 5 3.9h0.2c0.4-0.1 5.1-1.8 35.9-30.8 19-17.9 27.5-26.9 31.6-31.5l0.2-8.6m-139.2 4.7c0.1-0.2 0.1-0.4 0.1-0.5l-0.1 0.5"/>
        </clipPath>
        <g clip-path="url(#v)">
            <path d="m47.2 32.4c-9 7.9-24.5 24.5-31.9 32.4l-2 2.1s-1.7 1.8-1.8 1.9l0.1 0.1c2.8-3 28-27.9 43-40.6l0.3-0.3v0.1c0.1-0.1 0.4-0.4 2-1.7l18.6-15c0-0.1-0.1-1-0.1-1s-0.3-2.6-0.3-2.9c-0.3 0.3-27.9 24.9-27.9 24.9z" fill="#fff7c2" fill-rule="nonzero"/>
        </g>
    </g>
    <g transform="matrix(2.8243 0 0 2.8243 -.18243 53.511)">
        <clipPath id="u">
            <path d="m77.6 2.2h0.1-0.1m67.8 62.4c-4-4.5-12.5-13.6-32-31.6-29.5-27.5-34.9-30.4-35.7-30.8-0.8 0.3-6.2 3.2-35.3 30.7-14.8 14-25.3 24.3-31.4 30.7-2.6 2.8-4.4 4.9-4.6 5.2 0.5 1 4.7 6.9 36.4 36.3 13.6 12.6 23.6 21.5 29.7 26.5 0.9 0.7 5 3.9 5 3.9h0.2c0.4-0.1 5.1-1.8 35.9-30.8 19-17.9 27.5-26.9 31.6-31.5l0.2-8.6m-139.2 4.7c0.1-0.2 0.1-0.4 0.1-0.5l-0.1 0.5"/>
        </clipPath>
        <g clip-path="url(#u)">
            <path d="m47.3 32.5c-9 7.9-24.5 24.5-31.9 32.4 0 0.1-0.1 0.2-0.4 0.5 0 0-0.7 0.7-1.1 1.2 7.2-7.2 27.7-27.3 40.7-38.3l0.3-0.3v0.1c0.1-0.1 0.3-0.3 2-1.7l18.6-15c0-0.1-0.1-0.9-0.1-0.9s-0.3-2.5-0.3-2.7c-0.4 0.2-27.8 24.7-27.8 24.7z" fill="#fff7c6" fill-rule="nonzero"/>
        </g>
    </g>
    <g transform="matrix(2.8243 0 0 2.8243 -.18243 53.511)">
        <clipPath id="t">
            <path d="m77.6 2.2h0.1-0.1m67.8 62.4c-4-4.5-12.5-13.6-32-31.6-29.5-27.5-34.9-30.4-35.7-30.8-0.8 0.3-6.2 3.2-35.3 30.7-14.8 14-25.3 24.3-31.4 30.7-2.6 2.8-4.4 4.9-4.6 5.2 0.5 1 4.7 6.9 36.4 36.3 13.6 12.6 23.6 21.5 29.7 26.5 0.9 0.7 5 3.9 5 3.9h0.2c0.4-0.1 5.1-1.8 35.9-30.8 19-17.9 27.5-26.9 31.6-31.5l0.2-8.6m-139.2 4.7c0.1-0.2 0.1-0.4 0.1-0.5l-0.1 0.5"/>
        </clipPath>
        <g clip-path="url(#t)">
            <path d="m89.8 15.7 3.6 4.4 3.7 4.2 2.5 2.6c13.3 13.3 40.5 40.6 40.8 40.9l0.1 0.2c0 0.1-0.1 0.2-0.1 0.2-1.2 1.1-27.7 26.7-42.2 39l-22.3 18 0.6 13.7 33.9-30.3c12.4-10.9 36.1-36.9 36.4-37.1 0.6-0.5 0.9-1.3 0.9-2.1s-0.3-1.6-1-2.2l-0.1-0.1c-4.1-3.9-25-23.8-35.6-34-3.6-3.5-4.9-4.5-6.2-5.6l-5.8-4.7-9.2-7.1" fill="#ffe500" fill-rule="nonzero"/>
        </g>
    </g>
    <g transform="matrix(2.8243 0 0 2.8243 -.18243 53.511)">
        <clipPath id="s">
            <path d="m145.1 72.9c-1.9 2-5.3 5.8-9.5 10.2l2.3-2.3c3.3-3.4 5.6-5.9 7.2-7.7v-0.2m-54-55.9c0.8 0.9 2.4 2.9 2.4 2.9h-0.1c0.1 0.1 0.4 0.4 3.8 4.3l2.5 2.6 35.1 35.2 5.7 5.7 0.2 0.3-0.1 0.4c-2.9 2.8-28.1 27-42.2 39 0 0-21.8 17.6-22.2 18 0 0.1 0.3 5.5 0.5 9.4 0.1 0.1 0.2 0.1 0.2 0.2-0.2-3.7-0.5-9.4-0.5-9.5 0.4-0.3 22.1-17.9 22.1-17.9 14.9-12.6 42-38.9 42.3-39.1l0.1-0.5-0.2-0.4-5.7-5.7-35-35.3-2.5-2.6-0.2-0.2c-3.3-3.7-3.5-4-3.6-4l0.1 0.1s-0.7-0.9-1.3-1.5c1.8 1.4 6.4 4.8 6.4 4.8l5.9 4.8c1.3 1 2.6 2.1 6.1 5.5 9.4 9 26.5 25.4 34.5 33v-0.3c-8.1-7.7-25.1-23.9-34.4-32.9-3.5-3.4-4.9-4.5-6.1-5.5l-5.9-4.9s-6.8-5.1-7.9-5.9"/>
        </clipPath>
        <g clip-path="url(#s)">
            <rect x="76.2" y="17" width="69.2" height="117.9" fill="#ffe500" fill-rule="nonzero"/>
        </g>
    </g>
    <g transform="matrix(2.8243 0 0 2.8243 -.18243 53.511)">
        <clipPath id="r">
            <path d="m77.6 2.2h0.1-0.1m67.8 62.4c-4-4.5-12.5-13.6-32-31.6-29.5-27.5-34.9-30.4-35.7-30.8-0.8 0.3-6.2 3.2-35.3 30.7-14.8 14-25.3 24.3-31.4 30.7-2.6 2.8-4.4 4.9-4.6 5.2 0.5 1 4.7 6.9 36.4 36.3 13.6 12.6 23.6 21.5 29.7 26.5 0.9 0.7 5 3.9 5 3.9h0.2c0.4-0.1 5.1-1.8 35.9-30.8 19-17.9 27.5-26.9 31.6-31.5l0.2-8.6m-139.2 4.7c0.1-0.2 0.1-0.4 0.1-0.5l-0.1 0.5"/>
        </clipPath>
        <g clip-path="url(#r)">
            <path d="m145.1 72.5c-2.8 3-9.3 10-16.3 17.3 2.6-2.5 4.8-4.8 6.8-6.8 4.2-4.4 7.6-8.2 9.5-10.2v-0.3m-52.6-54.2c0.5 0.7 1.3 1.5 1.3 1.5l-0.1-0.1c0.1 0.1 0.3 0.3 3.6 4l0.2 0.2 2.5 2.6 35.1 35.2 5.7 5.7 0.2 0.4-0.1 0.5c-0.2 0.2-27.4 26.5-42.3 39.1 0 0-21.7 17.5-22.1 17.9 0 0.1 0.3 5.8 0.5 9.5 0.1 0.1 0.2 0.1 0.2 0.2-0.2-3.5-0.5-9.5-0.5-9.6 0.4-0.3 22.1-17.8 22.1-17.8 15.3-13 42.2-39 42.4-39.2 0 0 0.1-0.6 0.1-0.7l-0.2-0.4-5.7-5.7-35.1-35.2-2.5-2.6-3.7-4.2-0.1-0.1c1 0.8 4.9 3.7 4.9 3.7l5.9 4.8c1.3 1 2.6 2.1 6.1 5.5 9.6 9.3 26.7 25.6 34.6 33.1v-0.3c-8-7.6-25.1-23.9-34.5-33-3.5-3.4-4.8-4.5-6.1-5.5l-5.9-4.8c-0.1 0.1-4.7-3.3-6.5-4.7" fill="#fee500" fill-rule="nonzero"/>
        </g>
    </g>
    <g transform="matrix(2.8243 0 0 2.8243 -.18243 53.511)">
        <clipPath id="q">
            <path d="m77.6 2.2h0.1-0.1m67.8 62.4c-4-4.5-12.5-13.6-32-31.6-29.5-27.5-34.9-30.4-35.7-30.8-0.8 0.3-6.2 3.2-35.3 30.7-14.8 14-25.3 24.3-31.4 30.7-2.6 2.8-4.4 4.9-4.6 5.2 0.5 1 4.7 6.9 36.4 36.3 13.6 12.6 23.6 21.5 29.7 26.5 0.9 0.7 5 3.9 5 3.9h0.2c0.4-0.1 5.1-1.8 35.9-30.8 19-17.9 27.5-26.9 31.6-31.5l0.2-8.6m-139.2 4.7c0.1-0.2 0.1-0.4 0.1-0.5l-0.1 0.5"/>
        </clipPath>
        <g clip-path="url(#q)">
            <path d="m103.2 114.2c-3.9 3.5-8.9 7.9-13.4 12 3.4-3 7.8-6.9 13.4-12m41.9-42c-3.4 3.6-12.7 13.7-21.7 22.9 1.9-1.9 3.7-3.6 5.4-5.2 7-7.3 13.5-14.3 16.3-17.3v-0.4m-51.3-52.6 0.1 0.1 3.7 4.2 2.5 2.6 35.1 35.2 5.7 5.7 0.2 0.4c0 0.1-0.1 0.7-0.1 0.7-0.1 0.2-27 26.2-42.4 39.2 0 0-21.7 17.5-22.1 17.8 0 0.1 0.3 6.1 0.5 9.6 0.1 0.1 0.2 0.1 0.2 0.2-0.2-3.2-0.5-9.6-0.5-9.7 0.4-0.3 22-17.8 22-17.8 15.7-13.3 42.4-39.2 42.4-39.3 0 0 0.1-0.7 0.1-0.8l-0.3-0.5-5.7-5.7-35.1-35.2-2.5-2.6-2.4-2.7c0.6 0.4 3.2 2.4 3.2 2.4l0.6 0.5c4.7 3.8 5.3 4.3 5.4 4.3h-0.1c1.3 1 2.6 2.1 6.1 5.5 9.8 9.4 27 25.8 34.8 33.3v-0.3c-7.9-7.5-25.1-23.9-34.6-33.1-3.5-3.4-4.8-4.5-6.1-5.5l-5.9-4.8c0.1 0-3.8-3-4.8-3.7m17.3 87.2c-0.4 0.4-0.9 0.8-1.3 1.1 0 0-15.6 14-25.1 22.4 1.4-1.1 3-2.5 5-4.2 4.5-4.1 9.5-8.5 13.4-12 2.5-2.2 5.1-4.6 8-7.3m34-34.9c-4.1 4.4-18.1 19.5-28.9 30.1 2.6-2.5 5-4.8 7.2-6.9 9-9.2 18.3-19.2 21.7-22.9v-0.3m-49.7-50.9c0.9 1 2.4 2.7 2.4 2.7l2.5 2.6 35.1 35.2 5.7 5.7 0.3 0.5c0 0.2-0.1 0.8-0.1 0.8-0.1 0.1-26.8 26-42.4 39.3 0 0-21.6 17.4-22 17.8 0 0.1 0.4 6.4 0.5 9.7 0.1 0 0.1 0.1 0.1 0.1h0.2c-0.2-2.9-0.6-9.5-0.6-9.6 0.4-0.4 21.9-17.8 21.9-17.8 16.1-13.6 42.5-39.4 42.5-39.5l0.1-0.9v-0.1l-0.3-0.5-5.7-5.7-35.1-35.2-2.5-2.5s-0.5-0.6-1-1.1c0.7 0.5 1.5 1.1 1.5 1.1s5.6 4.5 5.9 4.8c1.3 1 2.6 2.1 6.1 5.5 9.8 9.5 27.2 26 34.9 33.4v-0.3c-7.8-7.4-25-23.8-34.8-33.3-3.5-3.4-4.8-4.5-6.1-5.5h0.1c-0.1 0-0.7-0.5-5.4-4.3l-0.6-0.5s-2.7-2-3.2-2.4" fill="#fde500" fill-rule="nonzero"/>
        </g>
    </g>
    <g transform="matrix(2.8243 0 0 2.8243 -.18243 53.511)">
        <clipPath id="p">
            <path d="m77.6 2.2h0.1-0.1m67.8 62.4c-4-4.5-12.5-13.6-32-31.6-29.5-27.5-34.9-30.4-35.7-30.8-0.8 0.3-6.2 3.2-35.3 30.7-14.8 14-25.3 24.3-31.4 30.7-2.6 2.8-4.4 4.9-4.6 5.2 0.5 1 4.7 6.9 36.4 36.3 13.6 12.6 23.6 21.5 29.7 26.5 0.9 0.7 5 3.9 5 3.9h0.2c0.4-0.1 5.1-1.8 35.9-30.8 19-17.9 27.5-26.9 31.6-31.5l0.2-8.6m-139.2 4.7c0.1-0.2 0.1-0.4 0.1-0.5l-0.1 0.5"/>
        </clipPath>
        <g clip-path="url(#p)">
            <path d="m145.2 71.6c-4.7 5-24.5 26.6-35.4 36.2 0 0-19 17-27.7 24.7 0.8-0.6 1.7-1.3 2.7-2.1 9.5-8.4 25.1-22.4 25.1-22.4 0.4-0.4 0.8-0.7 1.3-1.1l2.4-2.2c0.9-0.9 1.9-1.7 2.7-2.6 10.8-10.5 24.8-25.7 28.9-30.1v-0.4m-48.2-49.1c0.5 0.5 1 1.1 1 1.1l2.5 2.6 35.1 35.2 5.7 5.7 0.3 0.5v0.1l-0.1 0.9c0 0.1-26.4 25.8-42.5 39.5 0 0-21.5 17.4-21.9 17.7 0 0.1 0.4 6.7 0.6 9.6 0 0 0.1 0 0.2-0.1-0.1-2.5-0.6-9.4-0.6-9.4 0.4-0.3 21.8-17.6 21.8-17.6 15.3-13 42.4-39.3 42.6-39.6l0.1-0.9v-0.2l-0.3-0.5-5.7-5.7-35.2-35.4s-1-1.1-1.8-1.8c0.8 0.7 5.4 4.4 5.4 4.4 1.3 1 2.6 2.1 6 5.5 9.9 9.6 27.4 26.2 35.1 33.5v-0.3c-7.7-7.4-25.1-23.9-34.9-33.4-3.5-3.4-4.8-4.4-6.1-5.5-0.3-0.3-5.9-4.8-5.9-4.8s-0.7-0.6-1.4-1.1" fill="#fce500" fill-rule="nonzero"/>
        </g>
    </g>
    <g transform="matrix(2.8243 0 0 2.8243 -.18243 53.511)">
        <clipPath id="o">
            <path d="m77.6 2.2h0.1-0.1m67.8 62.4c-4-4.5-12.5-13.6-32-31.6-29.5-27.5-34.9-30.4-35.7-30.8-0.8 0.3-6.2 3.2-35.3 30.7-14.8 14-25.3 24.3-31.4 30.7-2.6 2.8-4.4 4.9-4.6 5.2 0.5 1 4.7 6.9 36.4 36.3 13.6 12.6 23.6 21.5 29.7 26.5 0.9 0.7 5 3.9 5 3.9h0.2c0.4-0.1 5.1-1.8 35.9-30.8 19-17.9 27.5-26.9 31.6-31.5l0.2-8.6m-139.2 4.7c0.1-0.2 0.1-0.4 0.1-0.5l-0.1 0.5"/>
        </clipPath>
        <g clip-path="url(#o)">
            <path d="m145.2 71.3c-4.4 4.7-24.6 26.7-35.6 36.3 0 0-22.3 19.9-29.3 26.2 0.5-0.4 1.1-0.8 1.8-1.3 8.6-7.7 27.7-24.7 27.7-24.7 11-9.6 30.7-31.2 35.4-36.2v-0.3m-46.4-47.1c0.7 0.8 1.8 1.8 1.8 1.8l35.1 35.2 5.7 5.7 0.3 0.5v0.2l-0.1 0.9c-0.1 0.3-27.3 26.6-42.6 39.6 0 0-21.4 17.3-21.8 17.6 0 0.1 0.4 6.9 0.6 9.4l0.2-0.1c-0.1-2-0.6-9.1-0.6-9.2 0.4-0.3 21.8-17.6 21.8-17.6 15.4-13.1 42.5-39.4 42.6-39.7l0.1-1v-0.1l-0.1-0.2-0.4-0.6-5.7-5.7c-19.8-19.8-31.2-31.3-34.3-34.3 1.1 0.9 2.5 2 2.5 2 1.2 1 2.5 2.1 6 5.4 10.1 9.7 27.7 26.5 35.2 33.6v-0.3c-7.6-7.3-25.2-24-35.1-33.5-3.5-3.4-4.8-4.4-6-5.5 0.2 0.3-4.4-3.5-5.2-4.1m46.4 46.7c-4.1 4.3-24.6 26.7-35.8 36.5 0 0-26 23.2-30.5 27.2 0.3-0.2 0.8-0.5 1.3-0.9 7.1-6.3 29.3-26.2 29.3-26.2 11-9.7 31.2-31.7 35.6-36.3l0.1-0.3m-43.6-44.2 40 40 0.4 0.6 0.1 0.2v0.1l-0.1 1c-0.1 0.3-27.2 26.7-42.6 39.7 0 0-21.4 17.2-21.8 17.6 0 0.1 0.5 7.2 0.6 9.2l0.2-0.1c-0.1-1.3-0.6-8.9-0.6-9 0.4-0.3 21.7-17.5 21.7-17.5 15.5-13.1 42.6-39.6 42.7-39.9l0.1-1v-0.1l-0.1-0.2-0.4-0.6s-34.2-34.3-37-37.1c1.1 0.9 2.5 2.1 5.3 4.8 10 9.7 27.8 26.7 35.3 33.8v-0.3c-7.5-7.2-25.1-23.9-35.2-33.6-3.5-3.4-4.8-4.4-6-5.4-0.1-0.2-1.5-1.3-2.6-2.2" fill="#fbe500" fill-rule="nonzero"/>
        </g>
    </g>
    <g transform="matrix(2.8243 0 0 2.8243 -.18243 53.511)">
        <clipPath id="m">
            <path d="m77.6 2.2h0.1-0.1m67.8 62.4c-4-4.5-12.5-13.6-32-31.6-29.5-27.5-34.9-30.4-35.7-30.8-0.8 0.3-6.2 3.2-35.3 30.7-14.8 14-25.3 24.3-31.4 30.7-2.6 2.8-4.4 4.9-4.6 5.2 0.5 1 4.7 6.9 36.4 36.3 13.6 12.6 23.6 21.5 29.7 26.5 0.9 0.7 5 3.9 5 3.9h0.2c0.4-0.1 5.1-1.8 35.9-30.8 19-17.9 27.5-26.9 31.6-31.5l0.2-8.6m-139.2 4.7c0.1-0.2 0.1-0.4 0.1-0.5l-0.1 0.5"/>
        </clipPath>
        <g clip-path="url(#m)">
            <path d="m104.7 29.5c2.8 2.8 37 37.1 37 37.1l0.4 0.6 0.1 0.2v0.1l-0.1 1c-0.1 0.3-27.2 26.8-42.7 39.9 0 0-21.3 17.2-21.7 17.5 0 0.1 0.6 7.7 0.6 9 0.2-0.1 0.4-0.2 0.6-0.4 4.4-3.9 30.5-27.2 30.5-27.2 11.1-9.8 31.7-32.3 35.8-36.5v-0.3c-3.7 3.8-24.6 26.8-35.9 36.7 0 0-30.4 27.1-30.7 27.4 0-0.4-0.6-8.5-0.6-8.6 0.4-0.3 21.6-17.5 21.6-17.5 15.5-13.2 42.7-39.7 42.8-40l0.1-1v-0.2l-0.1-0.3-0.4-0.6s-19.9-20-28.4-28.5c10.8 10.4 26.6 25.4 31.8 30.4v-0.3c-7.6-7-25.4-24-35.4-33.7-2.9-2.7-4.2-3.9-5.3-4.8" fill="#fae500" fill-rule="nonzero"/>
        </g>
    </g>
    <g transform="matrix(2.8243 0 0 2.8243 -.18243 53.511)">
        <clipPath id="l">
            <path d="m77.6 2.2h0.1-0.1m67.8 62.4c-4-4.5-12.5-13.6-32-31.6-29.5-27.5-34.9-30.4-35.7-30.8-0.8 0.3-6.2 3.2-35.3 30.7-14.8 14-25.3 24.3-31.4 30.7-2.6 2.8-4.4 4.9-4.6 5.2 0.5 1 4.7 6.9 36.4 36.3 13.6 12.6 23.6 21.5 29.7 26.5 0.9 0.7 5 3.9 5 3.9h0.2c0.4-0.1 5.1-1.8 35.9-30.8 19-17.9 27.5-26.9 31.6-31.5l0.2-8.6m-139.2 4.7c0.1-0.2 0.1-0.4 0.1-0.5l-0.1 0.5"/>
        </clipPath>
        <g clip-path="url(#l)">
            <path d="m113.4 38c8.5 8.5 28.4 28.5 28.4 28.5l0.4 0.6 0.1 0.3v0.2l-0.1 1c-0.1 0.3-27.2 26.8-42.8 40 0 0-21.2 17.1-21.6 17.5 0 0.1 0.6 8.2 0.6 8.6 0.4-0.3 30.7-27.4 30.7-27.4 11.3-9.9 32.3-32.9 35.9-36.7v-0.3c-3.1 3.2-24.6 26.8-36.1 36.8 0 0-30 26.8-30.4 27.1 0-0.4-0.6-8-0.6-8.1 0.4-0.3 21.5-17.4 21.5-17.4 15.6-13.3 42.8-39.9 42.9-40.2l0.1-1.1-0.2-0.6-0.4-0.6-0.1-0.1s-9.6-9.6-16-16.1c6.1 5.8 17.9 17.1 19.3 18.5v-0.3c-4.9-4.8-20.7-19.8-31.6-30.2" fill="#fae400" fill-rule="nonzero"/>
        </g>
    </g>
    <g transform="matrix(2.8243 0 0 2.8243 -.18243 53.511)">
        <clipPath id="k">
            <path d="m77.6 2.2h0.1-0.1m67.8 62.4c-4-4.5-12.5-13.6-32-31.6-29.5-27.5-34.9-30.4-35.7-30.8-0.8 0.3-6.2 3.2-35.3 30.7-14.8 14-25.3 24.3-31.4 30.7-2.6 2.8-4.4 4.9-4.6 5.2 0.5 1 4.7 6.9 36.4 36.3 13.6 12.6 23.6 21.5 29.7 26.5 0.9 0.7 5 3.9 5 3.9h0.2c0.4-0.1 5.1-1.8 35.9-30.8 19-17.9 27.5-26.9 31.6-31.5l0.2-8.6m-139.2 4.7c0.1-0.2 0.1-0.4 0.1-0.5l-0.1 0.5"/>
        </clipPath>
        <g clip-path="url(#k)">
            <path d="m125.9 50.2c6.4 6.5 16 16.1 16 16.1l0.1 0.1 0.4 0.6 0.2 0.6-0.1 1.1c-0.1 0.3-27.3 26.9-42.9 40.2 0 0-21.1 17-21.5 17.4 0 0.1 0.6 7.6 0.6 8.1 0.4-0.3 30.4-27.1 30.4-27.1 11.4-10.1 32.9-33.6 36.1-36.8v-0.3c-2.4 2.4-24.6 26.8-36.2 37 0 0-29.7 26.5-30 26.8 0-0.4-0.6-7.4-0.6-7.5 0.4-0.3 21.5-17.3 21.5-17.3 15.7-13.3 42.8-40 42.9-40.3l0.1-1.1-0.2-0.6c-0.3-0.4-0.4-0.6-0.4-0.6l-3.8-3.8c1.9 1.8 6.6 6.3 6.8 6.5v-0.3c-1.5-1.7-13.3-12.9-19.4-18.8" fill="#fae200" fill-rule="nonzero"/>
        </g>
    </g>
    <g transform="matrix(2.8243 0 0 2.8243 -.18243 53.511)">
        <clipPath id="j">
            <path d="m77.6 2.2h0.1-0.1m67.8 62.4c-4-4.5-12.5-13.6-32-31.6-29.5-27.5-34.9-30.4-35.7-30.8-0.8 0.3-6.2 3.2-35.3 30.7-14.8 14-25.3 24.3-31.4 30.7-2.6 2.8-4.4 4.9-4.6 5.2 0.5 1 4.7 6.9 36.4 36.3 13.6 12.6 23.6 21.5 29.7 26.5 0.9 0.7 5 3.9 5 3.9h0.2c0.4-0.1 5.1-1.8 35.9-30.8 19-17.9 27.5-26.9 31.6-31.5l0.2-8.6m-139.2 4.7c0.1-0.2 0.1-0.4 0.1-0.5l-0.1 0.5"/>
        </clipPath>
        <g clip-path="url(#j)">
            <path d="m138.4 62.4 3.8 3.8c0.1 0.1 0.2 0.2 0.4 0.6l0.2 0.6-0.1 1.1c-0.1 0.3-27.3 27-42.9 40.3 0 0-21.1 17-21.5 17.3 0 0.1 0.6 7.1 0.6 7.5 0.4-0.3 30-26.8 30-26.8 11.6-10.2 33.8-34.6 36.2-37v-0.4c0 0.1-0.1 0.1-0.2 0.2-2.4 2.4-24.7 26.8-36.2 37 0 0-29.3 26.2-29.7 26.5 0-0.4-0.6-6.8-0.6-6.9 0.6-0.2 21.6-17.1 21.6-17.1 15.7-13.3 42.9-40.1 43-40.5l0.1-1.2-0.1-0.3-0.1-0.1c0.7 0.6 2.2 2.1 2.2 2.1 0.1 0.1 0.1 0.1 0.1 0.2v-0.3c-0.2-0.3-4.9-4.7-6.8-6.6" fill="#f9e000" fill-rule="nonzero"/>
        </g>
    </g>
    <g transform="matrix(2.8243 0 0 2.8243 -.18243 53.511)">
        <clipPath id="i">
            <path d="m77.6 2.2h0.1-0.1m67.8 62.4c-4-4.5-12.5-13.6-32-31.6-29.5-27.5-34.9-30.4-35.7-30.8-0.8 0.3-6.2 3.2-35.3 30.7-14.8 14-25.3 24.3-31.4 30.7-2.6 2.8-4.4 4.9-4.6 5.2 0.5 1 4.7 6.9 36.4 36.3 13.6 12.6 23.6 21.5 29.7 26.5 0.9 0.7 5 3.9 5 3.9h0.2c0.4-0.1 5.1-1.8 35.9-30.8 19-17.9 27.5-26.9 31.6-31.5l0.2-8.6m-139.2 4.7c0.1-0.2 0.1-0.4 0.1-0.5l-0.1 0.5"/>
        </clipPath>
        <g clip-path="url(#i)">
            <path d="m79.4 132.8c0-0.4-0.5-4.9-0.5-4.9l-0.1-1.5c0.7-0.6 21.1-17 21.3-17.2 15.8-13.4 43-40.3 43.1-40.6 0 0 0-0.8 0.1-1 0.5 0.5 1.7 1.6 1.7 1.6l0.1 0.2-0.1 0.2-4.2 4.4c-7.5 8-23 24.6-32 32.5-0.1 0.2-29.1 26-29.4 26.3m63.5-65.8 0.1 0.1 0.1 0.3-0.1 1.2c-0.1 0.3-27.3 27.1-43 40.5 0 0-21 16.9-21.4 17.3 0 0.1 0.6 6.5 0.6 6.9 0.4-0.3 29.7-26.5 29.7-26.5 11.6-10.2 33.8-34.6 36.2-37l0.2-0.2v-0.3l-0.1-0.2c-0.1 0-1.6-1.5-2.3-2.1" fill="#f9de00" fill-rule="nonzero"/>
        </g>
    </g>
    <g transform="matrix(2.8243 0 0 2.8243 -.18243 53.511)">
        <clipPath id="h">
            <path d="m77.6 2.2h0.1-0.1m67.8 62.4c-4-4.5-12.5-13.6-32-31.6-29.5-27.5-34.9-30.4-35.7-30.8-0.8 0.3-6.2 3.2-35.3 30.7-14.8 14-25.3 24.3-31.4 30.7-2.6 2.8-4.4 4.9-4.6 5.2 0.5 1 4.7 6.9 36.4 36.3 13.6 12.6 23.6 21.5 29.7 26.5 0.9 0.7 5 3.9 5 3.9h0.2c0.4-0.1 5.1-1.8 35.9-30.8 19-17.9 27.5-26.9 31.6-31.5l0.2-8.6m-139.2 4.7c0.1-0.2 0.1-0.4 0.1-0.5l-0.1 0.5"/>
        </clipPath>
        <g clip-path="url(#h)">
            <path d="m79.6 132.4c0-0.9-0.5-4.3-0.5-4.3s-0.1-1.4-0.1-1.5c0.4-0.4 21.2-17.1 21.2-17.1 15.8-13.5 43.1-40.5 43.2-40.8v-0.6c0.9 0.9 1.3 1.2 1.4 1.3h-0.1l0.1 0.1c-4 4.3-4.2 4.5-4.2 4.5-7.5 8-23 24.6-32 32.5 0 0-28.7 25.6-29 25.9m63.6-64.8c0 0.2-0.1 1-0.1 1-0.1 0.3-27.3 27.2-43.1 40.6-0.2 0.2-20.6 16.6-21.3 17.2l0.1 1.5s0.5 4.5 0.5 4.9c0.3-0.3 29.3-26.2 29.3-26.2 9-7.9 24.5-24.5 32-32.5l4.2-4.4 0.1-0.2-0.1-0.2c0.1-0.1-1.1-1.2-1.6-1.7" fill="#f8dd00" fill-rule="nonzero"/>
        </g>
    </g>
    <g transform="matrix(2.8243 0 0 2.8243 -.18243 53.511)">
        <clipPath id="g">
            <path d="m77.6 2.2h0.1-0.1m67.8 62.4c-4-4.5-12.5-13.6-32-31.6-29.5-27.5-34.9-30.4-35.7-30.8-0.8 0.3-6.2 3.2-35.3 30.7-14.8 14-25.3 24.3-31.4 30.7-2.6 2.8-4.4 4.9-4.6 5.2 0.5 1 4.7 6.9 36.4 36.3 13.6 12.6 23.6 21.5 29.7 26.5 0.9 0.7 5 3.9 5 3.9h0.2c0.4-0.1 5.1-1.8 35.9-30.8 19-17.9 27.5-26.9 31.6-31.5l0.2-8.6m-139.2 4.7c0.1-0.2 0.1-0.4 0.1-0.5l-0.1 0.5"/>
        </clipPath>
        <g clip-path="url(#g)">
            <path d="m100.4 109.6c15.8-13.4 43.1-40.5 43.2-40.8v-0.2l0.9 0.9c-0.3 0.4-3.5 3.7-3.6 3.8l-0.6 0.6c-7.5 8-23 24.6-32 32.5 0 0-28.3 25.3-28.6 25.6 0-0.4-0.6-5.1-0.6-5.2l20.8-16.8 0.5-0.4m43-41.5v0.6c-0.1 0.3-27.4 27.3-43.2 40.7 0 0-20.8 16.8-21.2 17.1 0 0.1 0.1 1.5 0.1 1.5s0.4 3.4 0.5 4.3c0.3-0.3 29-25.9 29-25.9 9-7.9 24.5-24.5 32-32.5 0 0 0.2-0.2 4.2-4.5l-0.1-0.1h0.1c-0.1 0-0.5-0.3-1.4-1.2" fill="#f8db00" fill-rule="nonzero"/>
        </g>
    </g>
    <g transform="matrix(2.8243 0 0 2.8243 -.18243 53.511)">
        <clipPath id="f">
            <path d="m77.6 2.2h0.1-0.1m67.8 62.4c-4-4.5-12.5-13.6-32-31.6-29.5-27.5-34.9-30.4-35.7-30.8-0.8 0.3-6.2 3.2-35.3 30.7-14.8 14-25.3 24.3-31.4 30.7-2.6 2.8-4.4 4.9-4.6 5.2 0.5 1 4.7 6.9 36.4 36.3 13.6 12.6 23.6 21.5 29.7 26.5 0.9 0.7 5 3.9 5 3.9h0.2c0.4-0.1 5.1-1.8 35.9-30.8 19-17.9 27.5-26.9 31.6-31.5l0.2-8.6m-139.2 4.7c0.1-0.2 0.1-0.4 0.1-0.5l-0.1 0.5"/>
        </clipPath>
        <g clip-path="url(#f)">
            <path d="m143.6 68.6v0.2c-0.1 0.3-27.4 27.4-43.2 40.8 0 0.1-0.1 0.1-0.3 0.3l-20.8 16.8c0 0.1 0.6 4.8 0.6 5.2 0.3-0.3 28.6-25.6 28.6-25.6 9-7.9 24.5-24.5 32-32.5l0.6-0.6s3.2-3.4 3.6-3.8c-0.3-0.1-0.8-0.6-1.1-0.8" fill="#f8d900" fill-rule="nonzero"/>
        </g>
    </g>
    <g transform="matrix(2.8243 0 0 2.8243 -.18243 53.511)">
        <path d="m135.4 86.1-0.2 0.2-0.5-0.5c-0.1 0.1-8 7.9-17.7 17s-35.9 32-37.7 33.1c-1.6 1-2.7 0.5-3.4 0s-2.2-1.7-5.5-4.4l-1.3-1.1c-3-2.4-7.6-6.7-11.7-10.5-1.8-1.7-3.6-3.3-5-4.5-4.5-4-14.2-13.1-19.2-17.8-4.9-4.6-15.3-14.7-15.5-14.8l-0.7 0.8c0.1 0.1 10.6 10.2 15.5 14.8 1.4 1.3 13.7 12.8 19.2 17.8 1.4 1.3 3.1 2.8 5 4.5 4.1 3.8 8.8 8.1 11.8 10.5l1.3 1.1c3.4 2.8 4.8 4 5.6 4.5 0.7 0.5 1.5 0.7 2.2 0.7l0.9-0.1c0.4 0.2 1.4 0.9 1.9 1.2 0.6 0.4 1.5 1 3.5-0.1 2-1.2 5.8-4 12.2-9.7s15.2-13.7 19.4-17.7 13.4-12.6 17.5-16.6c4-3.9 8.1-8 8.1-8l-5.7-0.4zm-91.2-56c2.4-2.3 10.7-10.2 18.8-17.5 6.6-5.9 11.4-9.8 12.5-10.6 1.2-0.8 2.1-1.1 3.3-0.4 0 0 2.5 1.6 6.4 4.9 1 0.9 2.1 1.8 3.2 2.6 3 2.5 6.1 5.1 8.8 7.7 2 1.9 5.3 4.9 8.5 7.8 2.7 2.5 5.3 4.8 7 6.4 3.6 3.4 10.2 9.4 10.3 9.5l0.8-0.9s-0.5-0.4-1.2-1.1h1.4l-0.4-0.5s-13.5-12.6-20.2-18.6-12.7-11.3-15.8-13.7-3.8-2.9-4.6-3.1l-1-0.2c-1.6-1.2-2.5-1.8-2.6-1.8-2.1-1.3-3.9-0.1-4.7 0.4-1.1 0.8-6 4.7-12.7 10.6-8 7.3-16.3 15.3-18.7 17.6-4.6 4.4-14.5 13.6-14.6 13.7l0.8 0.9c0.2-0.2 10-9.3 14.7-13.7zm17.3 46.6c5.4-4.5 6.8-7.9 6.5-11.9-0.3-3.4-1.7-5.7-3.7-7.3-2.5-6.2-9.7-7.5-14.8-8.1-4.8-0.5-12.5-0.2-17.7 0h-0.8v-6.5h-2.9v-3.7l-0.3-0.9s-13.7 0-26.7 0.5h-1v49.6h5v2.5h12.9v-17.3h11.9v-10.2h-2.9v-4.9h-9.2v-5.1h12.9v41.8h5v2.5h12.4v-17.5l10 16.6 0.9-0.8 1.1-0.9 1.9 3.1c3.6-2.9 10.2-9.2 10.2-9.2-1.2-1.4-2.4-2.8-3.6-4.1l-7.1-8.2zm-13.4-7.5v-7.1h1.9c0.3 0.5 0.4 1.1 0.4 1.8 0.1 1.9-0.9 3.7-2.3 5.3zm125.7 1.1 3.3-21.6-2.9-0.2 0.4-2.8-12.7-1-1.4 24.3 4.2 0.2-6.9 5.6h-1.3v-3.6l-1.4 0.1c-3.9 0.3-7.1 0.3-9.9 0.3l15.2-28.3c-1.5-0.1-3-0.2-4.5-0.2l2.3-4.3-1.9-0.1c-16.8-0.9-29.2-0.7-33.4-0.7h-0.5v10.7h-35.9v-3.9h-2.9v-4.7h-11.3l1.7 6.7-5.2 1.3 0.1 36.8h5.1v2.4h12.5v-25.4c0.7 0 1.6 0 2.6-0.1v2.3h7v31.2h5.1v2.4h12.8v-33.6h12.1v-10.4c3.8-0.2 6.8-0.3 9.2-0.3l-16.1 31.1h7.1l-1.3 2.5h34.5v-10.1l5.1 6.3 2.4-1.9 1.8 2.2 6.6-5.3-6.4-7.9h4.8z" fill="#020d00" fill-rule="nonzero"/>
    </g>
    <g transform="matrix(2.8243 0 0 2.8243 -.18243 53.511)">
        <path d="m82.5 41.2v42.6h-12.5v-34.9l5.4-1.3-1.7-6.4h8.8zm-50.7 9.2c5.2-0.2 12.8-0.6 17.6 0 6.1 0.7 14 2.3 14.7 10.9 0.3 4-1.1 7.5-6.8 12.1l11.1 13c-3 3.1-6.4 6-9.9 8.9l-13.2-22c2.9-2.3 6.3-5.5 6.3-9.3 0-3.7-3.5-5.4-4.7-5.4h-2.7v35.8h-12.4v-44zm65.4 43.8v-33.7l-12.1 0.3v-11.1h37v11.1l-12.1-0.3v33.7h-12.8zm26.1-44.2v-11c4.2 0 16.4-0.2 33.1 0.7l-17.7 32.9c3.8 0.1 9.2 0.2 16.6-0.3v11h-34.5l17.4-33.7c-3.9 0.2-8.6 0.1-14.9 0.4z" fill="#e30613"/>
    </g>
    <g transform="matrix(2.8243 0 0 2.8243 -.18243 53.511)">
        <path d="m27 39.4v10.6h-13.1v10l12-0.1v10.2h-11.9v17.3h-12.9v-47.5l25.9-0.5z" fill="#e30613" fill-rule="nonzero"/>
    </g>
    <g transform="matrix(2.8243 0 0 2.8243 -.18243 53.511)">
        <path d="m161.6 68 8.4 0.3 3.4-21.6-10.4-0.9-1.4 22.2z" fill="#e30613"/>
    </g>
    <g transform="matrix(2.8243 0 0 2.8243 -.18243 53.511)">
        <path d="m159.19 75.034 6.527-5.288 5.288 6.527-6.527 5.288-5.288-6.527z" fill="#e30613" fill-rule="nonzero"/>
    </g>
</svg>
