<svg enable-background="new 0 0 1510.1 240.3" viewBox="0 0 1510.1 240.3"
  xmlns="http://www.w3.org/2000/svg">
  <path
    d="m873.5 203.7c0 16.2-11.9 29.1-28.9 29.1-16.4 0-28.6-12.9-28.6-29.1s12.2-30 28.6-30c17 0 28.9 13.7 28.9 30z"
    fill="#6eda78" />
  <g fill="#282828">
    <path
      d="m9.7 229v-135.4l38.7-9.4-5.9 43.6h4.2c2.4-10.1 6.2-18.6 11.3-25.7 5.2-7 11.8-12.4 19.8-16 8.2-3.8 17.6-5.7 28.4-5.7 14 0 26.1 3.2 36.3 9.7 10.1 6.3 17.9 15.5 23.3 27.7 5.6 12 8.3 26.3 8.3 43.1v68.1h-38.5v-57.9c0-11.2-1.7-20.7-5.1-28.5-3.4-8-8.4-14-14.9-18-6.5-4.2-14.4-6.3-23.5-6.3-13.7 0-24.4 4.6-32.1 13.7s-11.5 22.1-11.5 39.1v57.9z" />
    <path clip-rule="evenodd"
      d="m252.4 232.7c-19.6 0-36.4-3.9-45.7-11.7-9.3-8-14-18.7-14-32.2 0-13.1 4.7-23.6 14-31.4 25.1-21.6 103.6-13.3 108.6-11.6 0-3.3-.2-8.9-3.5-14.4-7.9-13.8-24.3-19.7-39-19.7-12.3 0-25.3 6.1-32.9 15.4-3 3.7-5.5 9.1-5.5 9.1h-36.8c.6-7 4.6-18.4 10.7-27 6-8.7 15.4-16.1 27-21.2 11.8-5.3 20.7-7.6 38-7.6 18 0 31.8 3 43.9 9.1s21.1 14.6 26.9 25.7c5.9 11 8.8 24 8.8 38.8v23.3 52h-37.7l6-30.9h-4.1c-1.9 8.5-5.4 14.9-9.6 19.6-4.3 4.7-9.8 7.6-19.5 10.5-9.5 2.8-21.4 4.2-35.6 4.2zm-23.2-46.4c-2-32.9 77-23.3 86.1-22.2 0 4.8-.3 9.5-1.4 14-5.8 23.3-38.1 28.4-58 26.6-14.5-1.3-26-6.6-26.7-18.4z"
      fill-rule="evenodd" />
    <path
      d="m375.3 94.7v134.3h38.7v-71.9c0-12.2 2.8-21.7 8.3-28.5 5.6-6.8 13.1-10.3 22.5-10.3 6.4 0 11.8 1.5 16.4 4.6 4.7 3 8.3 7.5 10.8 13.4 2.6 5.7 3.9 12.6 3.9 20.8v71.9h38.5v-71.9c0-12.2 2.8-21.7 8.3-28.5 5.7-6.8 13.3-10.3 22.8-10.3 6.4 0 11.8 1.5 16.4 4.6 4.7 3 8.3 7.5 10.8 13.4 2.4 5.7 3.7 12.6 3.7 20.8v71.9h38.7v-82.1c0-14.1-2.2-26-6.6-35.9-4.2-10.1-10.3-17.7-18.1-22.8s-17.1-7.7-27.9-7.7c-13.1 0-23.8 3.5-32.1 10.6-8.2 6.8-14 17.1-17.4 30.8h-3.4c-1.1-7.8-3.8-14.7-7.8-20.8-4.1-6.3-9.6-11.2-16.4-14.8-6.7-3.8-14.7-5.7-24-5.7-12.7 0-23.1 3.4-31.1 10.3-8 6.7-13.7 16.5-17.1 29.7h-4.2l5.1-36.2z" />
    <path clip-rule="evenodd"
      d="m718.3 232.7c-18 0-33.4-3.3-46.3-10-12.7-6.8-22.4-16-28.9-27.4-6.5-11.6-9.8-24.5-9.8-38.8s3.3-27.1 9.8-38.5c6.5-11.6 16.2-20.7 29.1-27.4 12.9-6.8 28.4-10.3 46.5-10.3s33.6 3.4 46.3 10.3c12.9 6.7 22.6 15.8 29.2 27.4 6.5 11.6 9.8 24.6 9.8 39.1 0 4-.7 10.2-.7 10.2h-133.4c.9 4.3 2.4 8.3 4.5 12.1 3.8 6.5 9.3 11.6 16.7 15.4 7.5 3.6 16.8 5.4 27.9 5.4 12.6 0 22.2-1.7 28.9-5.1 5.2-2.7 9.5-5.9 13-9.5h39.1c-2.6 6.7-6.7 13.4-12.2 20-6.4 7.6-15.4 14.1-27.2 19.4-11.5 5.2-25.6 7.7-42.3 7.7zm-43.8-98.3c-1.4 2.4-2.9 6.1-3.4 8.8h47.6 47.6c-.6-2.7-2-6.4-3.4-8.8-3.8-6.7-9.3-11.8-16.7-15.4-7.3-3.8-16.5-5.7-27.4-5.7-11.1 0-20.3 1.9-27.7 5.7-7.3 3.6-12.9 8.7-16.6 15.4z"
      fill-rule="evenodd" />
    <path
      d="m896.2 195.4c6.5 11.4 16.1 20.5 28.7 27.4 12.7 6.7 28.1 10 46.1 10 16 0 30.1-2.8 42.4-8.3 12.2-5.5 22-13.2 29.2-23.1s11.4-21.1 12.7-33.6h-38.7c-1.5 8.4-6.1 15.4-14 21.1-7.8 5.7-18.4 8.6-31.6 8.6-9.8 0-18.1-1.8-25-5.4-6.9-3.8-12.1-8.7-15.7-14.8s-5.4-12.9-5.4-20.5c0-7.4 1.8-14.2 5.4-20.2 3.6-6.3 8.8-11.2 15.7-14.8s15.2-5.4 25-5.4c8.8 0 16.5 1.4 23 4.3 6.5 2.7 11.7 6.2 15.4 10.6 3.8 4.4 6.1 9.3 7.1 14.8h38.7c-1.3-12.7-5.6-24-12.7-33.6-7.2-9.9-16.9-17.6-29.2-23.1-12.2-5.7-26.4-8.6-42.4-8.6-18 0-33.3 3.4-46.1 10.3-12.6 6.7-22.1 15.8-28.7 27.4-6.5 11.6-9.8 24.4-9.8 38.5.1 13.9 3.4 26.8 9.9 38.4z" />
    <path clip-rule="evenodd"
      d="m1159.2 232.7c-18.6 0-34.5-3.3-47.5-10-13.1-6.8-22.9-16-29.6-27.4-6.5-11.6-9.8-24.5-9.8-38.8s3.3-27.1 9.8-38.5c6.7-11.6 16.6-20.7 29.6-27.4 13.1-6.8 28.9-10.3 47.5-10.3 18.5 0 34.2 3.4 47.3 10.3 13.1 6.7 22.9 15.8 29.4 27.4 6.7 11.4 10 24.2 10 38.5s-3.3 27.2-10 38.8c-6.5 11.4-16.3 20.5-29.4 27.4-13 6.7-28.8 10-47.3 10zm0-35.3c10.3 0 19-1.8 26.2-5.4 7.3-3.6 12.8-8.5 16.4-14.5 3.8-6.1 5.6-13 5.6-20.8 0-7.4-1.9-14.2-5.6-20.2-3.6-6.3-9.1-11.2-16.4-14.8-7.2-3.6-15.9-5.4-26.2-5.4-10.5 0-19.4 1.8-26.7 5.4-7.2 3.6-12.7 8.6-16.4 14.8-3.6 6.1-5.4 12.8-5.4 20.2 0 7.8 1.8 14.7 5.4 20.8 3.8 6.1 9.2 10.9 16.4 14.5 7.4 3.6 16.3 5.4 26.7 5.4z"
      fill-rule="evenodd" />
    <path
      d="m1265.3 93.6v135.4h38.7v-71.9c0-12.2 2.8-21.7 8.3-28.5 5.6-6.8 13.1-10.3 22.5-10.3 6.4 0 11.8 1.5 16.4 4.6 4.7 3 8.3 7.5 10.8 13.4 2.6 5.7 3.9 12.6 3.9 20.8v71.9h38.5v-71.9c0-12.2 2.8-21.7 8.3-28.5 5.7-6.8 13.3-10.3 22.8-10.3 6.4 0 11.8 1.5 16.4 4.6 4.7 3 8.3 7.5 10.8 13.4 2.4 5.7 3.7 12.6 3.7 20.8v71.9h38.7v-82.1c0-14.1-2.2-26-6.6-35.9-4.2-10.1-10.3-17.7-18.1-22.8s-17.1-7.7-27.9-7.7c-13.1 0-23.8 3.5-32.1 10.6-8.2 6.8-14 17.1-17.4 30.8h-3.4c-1.1-7.8-3.8-14.7-7.8-20.8-4.1-6.3-9.6-11.2-16.4-14.8-6.7-3.8-14.7-5.7-24-5.7-12.7 0-23.1 3.4-31.1 10.3-8 6.7-13.7 16.5-17.1 29.7h-4.2l5.1-36.2z" />
  </g>
</svg>
