<svg xmlns="http://www.w3.org/2000/svg" width="1280" height="1280" viewBox="0 0 1280 1280" version="1.1"><path d="M 460.250 95.739 C 463.413 95.937, 468.587 95.937, 471.750 95.739 C 474.913 95.541, 472.325 95.378, 466 95.378 C 459.675 95.378, 457.087 95.541, 460.250 95.739 M 816.250 95.739 C 819.413 95.937, 824.587 95.937, 827.750 95.739 C 830.913 95.541, 828.325 95.378, 822 95.378 C 815.675 95.378, 813.087 95.541, 816.250 95.739 M 448.731 106.465 C 379.826 116.368, 327.883 174.563, 299.960 273.142 C 298.255 279.159, 297.019 284.557, 297.212 285.137 C 297.406 285.717, 299.190 280.186, 301.178 272.846 C 311.655 234.154, 328.507 197.979, 348.787 170.650 C 431.369 59.360, 581.941 98.006, 639.534 245.274 C 643.785 256.143, 644.584 256.585, 647.066 249.442 C 686.457 136.069, 794.939 77.338, 883.200 121.600 C 952.761 156.485, 1001.259 263.050, 1001.140 380.750 C 1001.113 407.401, 1000.198 405.462, 1011.161 401.995 C 1044.056 391.593, 1091.083 396.717, 1117.506 413.582 C 1166.981 445.161, 1192.891 495.659, 1198.028 570.515 C 1200.307 603.721, 1197.145 618.482, 1177.252 667.500 C 1149.817 735.103, 1097.429 812.072, 1050.272 854.064 L 1043.044 860.500 1044.491 865.500 C 1047.041 874.311, 1049.123 894.898, 1049.704 917.064 C 1050.326 940.773, 1050.686 938.867, 1043.477 950 C 1041.163 953.575, 1034.639 964.150, 1028.981 973.500 C 968.822 1072.911, 924.051 1111.829, 840.956 1136.945 C 794.563 1150.968, 772.206 1150.968, 729.966 1136.942 C 718.647 1133.184, 702.661 1128.254, 694.443 1125.987 C 686.224 1123.720, 673.632 1119.668, 666.461 1116.982 C 642.573 1108.036, 639.407 1107.999, 617.892 1116.409 C 611.626 1118.858, 599.956 1122.668, 591.959 1124.874 C 583.961 1127.081, 566.959 1132.296, 554.177 1136.464 C 507.414 1151.710, 483.140 1151.123, 430.589 1133.476 C 352.715 1107.325, 310.381 1068.182, 249.026 965.598 L 237.720 946.696 238.308 921.598 C 238.695 905.061, 239.589 891.383, 240.929 881.500 C 243.890 859.660, 244.253 861.493, 235.507 854.137 C 194.903 819.988, 141.250 743.639, 113.479 680.491 C 109.869 672.282, 106.597 665.326, 106.208 665.033 C 105.819 664.740, 105.500 663.825, 105.500 663 C 105.500 662.175, 104.880 661.632, 104.122 661.793 C 103.181 661.992, 102.914 661.437, 103.279 660.041 C 103.573 658.917, 103.501 658.191, 103.118 658.427 C 101.917 659.169, 97.687 648.704, 97.491 644.507 C 97.388 642.303, 96.341 637.716, 95.163 634.314 C 87.453 612.041, 88.125 562.131, 96.646 524.125 C 117.679 430.313, 193.157 378.498, 275.188 401.558 C 288.248 405.229, 287 407.174, 287 383.157 C 287 371.693, 287.200 356.731, 287.444 349.907 C 287.872 337.922, 287.853 337.772, 286.873 345.500 C 286.315 349.900, 285.804 364.652, 285.737 378.283 C 285.650 395.924, 285.297 402.944, 284.510 402.642 C 152.928 352.149, 50.666 508.543, 102.499 681 C 124.725 754.948, 183.974 833.255, 237.250 859.095 C 242.834 861.803, 242.677 860.582, 239.944 880 C 218.742 1030.633, 295.008 1165.634, 419.579 1197.979 C 461.206 1208.787, 557.915 1214.238, 630.500 1209.869 C 640.400 1209.273, 674.375 1208.660, 706 1208.506 C 806.145 1208.021, 859.093 1203.032, 891.381 1191.040 C 968.913 1162.243, 1030.754 1082.643, 1046.404 991.500 C 1052.749 954.545, 1052.475 883.531, 1045.921 866.292 C 1044.660 862.975, 1045.609 861.478, 1050.309 859.375 C 1088.371 842.344, 1143.637 780.083, 1168.256 726.500 C 1251.048 546.304, 1161.449 359.735, 1011.544 400.183 C 1001.548 402.881, 1002.639 405.777, 1002.438 376 C 1001.833 286.490, 970.749 198.528, 922.364 149.402 C 837.219 62.955, 700.075 109.442, 648.448 242.250 C 644.036 253.598, 643.971 253.640, 641.550 246.750 C 609.780 156.347, 525.962 95.366, 448.731 106.465 M 294.111 297.160 C 291.197 310.850, 287.980 330.794, 288.089 334.500 C 288.138 336.150, 289.024 331.875, 290.060 325 C 291.095 318.125, 293.104 306.937, 294.525 300.138 C 295.946 293.339, 296.924 287.590, 296.697 287.364 C 296.470 287.137, 295.307 291.546, 294.111 297.160 M 276.400 373.500 C 276.401 381.750, 276.556 384.992, 276.744 380.704 C 276.932 376.417, 276.931 369.667, 276.742 365.704 C 276.552 361.742, 276.399 365.250, 276.400 373.500 M 1060.382 929.500 C 1060.384 936.100, 1060.546 938.670, 1060.741 935.211 C 1060.937 931.752, 1060.936 926.352, 1060.738 923.211 C 1060.540 920.070, 1060.380 922.900, 1060.382 929.500" stroke="none" fill="#e1c8e1" fill-rule="evenodd"/><path d="M 470.280 203.736 C 472.909 203.943, 476.959 203.940, 479.280 203.731 C 481.601 203.521, 479.450 203.352, 474.500 203.355 C 469.550 203.358, 467.651 203.530, 470.280 203.736 M 806.280 203.736 C 808.909 203.943, 812.959 203.940, 815.280 203.731 C 817.601 203.521, 815.450 203.352, 810.500 203.355 C 805.550 203.358, 803.651 203.530, 806.280 203.736 M 413 225.500 C 408.903 229.625, 405.775 233, 406.050 233 C 406.325 233, 409.903 229.625, 414 225.500 C 418.097 221.375, 421.225 218, 420.950 218 C 420.675 218, 417.097 221.375, 413 225.500 M 914.355 348.500 C 914.352 353.450, 914.521 355.601, 914.731 353.280 C 914.940 350.959, 914.943 346.909, 914.736 344.280 C 914.530 341.651, 914.358 343.550, 914.355 348.500 M 189.705 496.250 C 181.717 504.085, 176.876 510.223, 172.552 518 C 171.196 520.440, 173.719 517.649, 182.497 507 C 186.804 501.775, 192.602 495.137, 195.380 492.250 C 203.726 483.577, 199.818 486.331, 189.705 496.250 M 285.500 490.643 C 286.050 491.199, 289.650 493.852, 293.500 496.539 C 297.350 499.226, 305 505.699, 310.500 510.924 L 320.500 520.424 312.500 512.154 C 308.100 507.605, 301.350 501.490, 297.500 498.565 C 290.614 493.334, 283.541 488.664, 285.500 490.643 M 587.879 587.750 C 587.645 589.209, 588.185 600.505, 588.505 600.831 C 588.683 601.014, 588.980 597.975, 589.165 594.079 C 589.427 588.537, 588.493 583.936, 587.879 587.750 M 593 593.167 C 593 596.558, 593.329 599.004, 593.731 598.602 C 594.729 597.604, 594.786 587, 593.794 587 C 593.357 587, 593 589.775, 593 593.167 M 579.500 590.726 C 567.282 595.666, 564.031 599.336, 565.082 607 L 565.700 611.500 565.850 605.750 C 565.937 602.421, 566.451 600, 567.071 600 C 567.661 600, 568.818 599.325, 569.643 598.500 C 572.143 596, 572.879 596.762, 573.263 602.250 L 573.630 607.500 573.815 601.809 C 574.064 594.156, 576 593.092, 576 600.608 C 576 607.870, 576.805 607.291, 577.107 599.812 C 577.456 591.195, 582 590.260, 582 598.805 C 582 605.955, 582.809 605.169, 583.111 597.727 C 583.279 593.571, 583.730 592, 584.754 592 C 586.267 592, 586.002 589.797, 584.438 589.367 C 583.922 589.225, 581.700 589.837, 579.500 590.726 M 376.328 668.500 C 376.333 672.350, 376.513 673.802, 376.730 671.728 C 376.946 669.653, 376.943 666.503, 376.722 664.728 C 376.501 662.952, 376.324 664.650, 376.328 668.500 M 418.936 751.145 C 397.563 768.809, 374.365 795.429, 360.238 818.500 C 350.685 834.101, 344.840 846.994, 338.426 866.612 C 338.086 867.650, 338.984 866.529, 340.421 864.119 C 341.857 861.709, 349.253 851.134, 356.856 840.619 C 375.574 814.730, 392.109 791.474, 406.500 770.796 C 413.100 761.313, 420.454 751.629, 422.842 749.277 C 428.844 743.364, 427.672 743.924, 418.936 751.145 M 959.370 937 C 959.370 942.775, 959.535 945.138, 959.737 942.250 C 959.939 939.362, 959.939 934.638, 959.737 931.750 C 959.535 928.862, 959.370 931.225, 959.370 937" stroke="none" fill="#ffdce6" fill-rule="evenodd"/><path d="M 458 203.993 C 448.654 205.012, 431.922 210.256, 433.377 211.710 C 433.617 211.951, 435.151 211.456, 436.785 210.611 C 442.108 207.858, 454.207 205.030, 461.282 204.885 C 465.555 204.797, 467.685 204.415, 466.851 203.887 C 466.108 203.416, 465.275 203.088, 465 203.157 C 464.725 203.227, 461.575 203.603, 458 203.993 M 817.983 204.010 C 817.356 204.398, 820.141 204.754, 824.171 204.801 C 832.269 204.896, 832.335 204.392, 824.312 203.732 C 821.458 203.497, 818.611 203.623, 817.983 204.010 M 846.051 209.850 C 854.447 213.433, 865.390 220.619, 870.500 225.904 C 872.700 228.180, 875.400 230.527, 876.500 231.119 C 880.651 233.354, 866.206 220.640, 859.718 216.348 C 852.898 211.836, 842.994 206.977, 840.721 207.027 C 840.050 207.042, 842.448 208.312, 846.051 209.850 M 498.083 208.337 C 499.653 209.605, 510 215.038, 510 214.594 C 510 213.895, 499.817 208.022, 498.583 208.009 C 498.079 208.004, 497.854 208.152, 498.083 208.337 M 774.864 214.244 C 766.297 219.957, 745.240 242, 748.350 242 C 748.607 242, 751.031 239.188, 753.736 235.750 C 760.294 227.417, 768.276 219.715, 774.996 215.236 C 781.275 211.052, 782.644 210, 781.814 210 C 781.492 210, 778.364 211.910, 774.864 214.244 M 425.405 215.861 C 415.648 222.241, 397.378 242.443, 392.269 252.500 C 390.113 256.746, 391.084 255.572, 396.819 247 C 403.704 236.708, 418.893 220.806, 426.067 216.378 C 431.347 213.119, 432.775 212, 431.655 212 C 431.465 212, 428.653 213.738, 425.405 215.861 M 518.104 221.803 C 522.286 225.704, 528.311 232.294, 531.493 236.448 C 537.864 244.766, 540.040 246.680, 534.812 239.367 C 530.178 232.885, 519.679 221.679, 514.691 217.892 C 512.386 216.142, 513.922 217.902, 518.104 221.803 M 820.500 235.560 C 794.600 248.279, 801.986 279.381, 833.893 291.958 C 863.685 303.701, 879.074 268.117, 854.730 243.774 C 842.956 232, 832.741 229.549, 820.500 235.560 M 438.757 236.022 C 427.016 238.982, 417.083 252.699, 418.366 264.182 C 421.767 294.606, 467.506 286.989, 467.498 256 C 467.495 240.707, 454.900 231.952, 438.757 236.022 M 889.560 249.750 C 892.982 255.660, 895 258.644, 895 257.794 C 895 256.852, 887.856 245, 887.288 245 C 887.025 245, 888.048 247.137, 889.560 249.750 M 900.579 272.250 C 902.498 278.301, 904.862 284.386, 904.927 283.444 C 905.027 282, 900.933 270, 900.341 270 C 900.079 270, 900.186 271.012, 900.579 272.250 M 913.336 339 C 913.336 343.125, 913.513 344.813, 913.728 342.750 C 913.944 340.688, 913.944 337.313, 913.728 335.250 C 913.513 333.188, 913.336 334.875, 913.336 339 M 370.389 352.500 C 370.390 359.650, 370.550 362.444, 370.742 358.708 C 370.935 354.973, 370.934 349.123, 370.739 345.708 C 370.545 342.294, 370.387 345.350, 370.389 352.500 M 220 478.600 C 211.549 480.855, 202.606 485.401, 197.674 489.946 C 186.811 499.960, 166.975 526.240, 167.064 530.500 C 167.076 531.050, 168.304 529.125, 169.793 526.222 C 173.295 519.394, 197.446 490.419, 202 487.582 C 208.546 483.504, 217.643 480.043, 225.582 478.609 C 231.340 477.570, 232.409 477.173, 229.500 477.156 C 227.300 477.142, 223.025 477.792, 220 478.600 M 1026 479.070 C 1001.815 485.391, 974.041 506.469, 954.216 533.550 C 946.937 543.493, 941.469 552, 942.358 552 C 942.617 552, 944.280 549.638, 946.054 546.750 C 968.591 510.063, 1004.317 482.661, 1035.539 478.112 C 1040.515 477.387, 1040.839 477.233, 1037.500 477.177 C 1035.300 477.140, 1030.125 477.992, 1026 479.070 M 1058.500 478.534 C 1062.350 479.279, 1066.625 480.204, 1068 480.591 C 1069.375 480.979, 1070.183 480.950, 1069.796 480.527 C 1068.783 479.421, 1058.037 477.018, 1054.500 477.106 C 1052.850 477.147, 1054.650 477.790, 1058.500 478.534 M 260 480.617 C 298.301 491.931, 336.886 532.708, 357.092 583.226 C 359.451 589.125, 361.546 593.788, 361.746 593.587 C 364.359 590.975, 342.870 550.405, 329.125 532 C 308.718 504.674, 270.867 477.678, 253.500 478.062 C 252.400 478.087, 255.325 479.236, 260 480.617 M 1077.385 484.486 C 1090.358 491.159, 1099.181 499.140, 1107.180 511.438 C 1111.473 518.037, 1112.937 519.794, 1110.984 516 C 1103.778 502.008, 1084.358 484.404, 1073 481.569 C 1071.625 481.226, 1073.598 482.538, 1077.385 484.486 M 1054.491 497.865 C 1042.404 503.356, 1037.889 519.035, 1044.497 532.571 C 1055.423 554.954, 1081.783 559.698, 1091.208 540.979 C 1102.298 518.952, 1076.014 488.088, 1054.491 497.865 M 202.241 508.567 C 188.037 515.645, 179.665 537.102, 186.173 549.748 C 195.310 567.503, 218.591 562.775, 229.243 541 C 239.289 520.463, 221.426 499.007, 202.241 508.567 M 162.587 544.714 C 161.666 548.446, 160.652 552.400, 160.332 553.500 C 160.013 554.600, 160.068 555.202, 160.456 554.837 C 161.371 553.975, 165.236 538.902, 164.683 538.350 C 164.451 538.118, 163.508 540.982, 162.587 544.714 M 1120.663 541.978 C 1120.991 543.892, 1121.861 547.267, 1122.597 549.478 C 1123.872 553.313, 1123.906 553.338, 1123.337 550.022 C 1123.009 548.108, 1122.139 544.733, 1121.403 542.522 C 1120.128 538.687, 1120.094 538.662, 1120.663 541.978 M 937.706 559.250 C 932.752 568.182, 929.810 574.145, 930.180 574.502 C 930.356 574.672, 933.087 569.903, 936.249 563.905 C 942.408 552.223, 943.450 548.892, 937.706 559.250 M 645.083 560.370 C 645.313 560.573, 648.875 560.991, 653 561.297 C 658.560 561.711, 659.465 561.630, 656.500 560.985 C 652.498 560.115, 644.298 559.673, 645.083 560.370 M 603 564.427 C 563.557 573.194, 525.794 607.373, 485.071 671.164 C 479.335 680.149, 473.996 688.513, 473.206 689.750 C 472.416 690.987, 472 692, 472.281 692 C 472.562 692, 474.282 689.638, 476.104 686.750 C 528.214 604.158, 560.209 575.074, 611.500 563.676 C 613.044 563.333, 612.931 563.229, 611 563.218 C 609.625 563.211, 606.025 563.755, 603 564.427 M 676 564.068 C 686.571 566.062, 694.711 568.393, 700.566 571.104 C 704.008 572.697, 707.051 574, 707.329 574 C 707.607 574, 711.359 576.079, 715.667 578.619 C 741.558 593.888, 766.982 620.939, 794.737 662.750 C 799.940 670.587, 804.383 677, 804.611 677 C 807.130 677, 775.634 633.307, 761.024 616.533 C 733.906 585.399, 696.555 562.322, 674.560 563.110 C 672.063 563.199, 672.329 563.375, 676 564.068 M 589 584.721 C 538.955 593.706, 533.928 658.895, 582.500 669.007 C 650.228 683.106, 684.488 607.558, 619 588.520 C 603.725 584.080, 597.186 583.252, 589 584.721 M 587.879 587.750 C 587.645 589.209, 588.185 600.505, 588.505 600.831 C 588.683 601.014, 588.980 597.975, 589.165 594.079 C 589.427 588.537, 588.493 583.936, 587.879 587.750 M 593 593.167 C 593 596.558, 593.329 599.004, 593.731 598.602 C 594.729 597.604, 594.786 587, 593.794 587 C 593.357 587, 593 589.775, 593 593.167 M 579.500 590.726 C 567.282 595.666, 564.031 599.336, 565.082 607 L 565.700 611.500 565.850 605.750 C 565.937 602.421, 566.451 600, 567.071 600 C 567.661 600, 568.818 599.325, 569.643 598.500 C 572.143 596, 572.879 596.762, 573.263 602.250 L 573.630 607.500 573.815 601.809 C 574.064 594.156, 576 593.092, 576 600.608 C 576 607.870, 576.805 607.291, 577.107 599.812 C 577.456 591.195, 582 590.260, 582 598.805 C 582 605.955, 582.809 605.169, 583.111 597.727 C 583.279 593.571, 583.730 592, 584.754 592 C 586.267 592, 586.002 589.797, 584.438 589.367 C 583.922 589.225, 581.700 589.837, 579.500 590.726 M 365.147 604.500 C 365.117 605.050, 366.199 609.325, 367.551 614 C 368.903 618.675, 369.758 620.794, 369.452 618.709 C 368.868 614.743, 365.239 602.764, 365.147 604.500 M 908.360 671 C 908.360 676.225, 908.529 678.362, 908.735 675.750 C 908.941 673.138, 908.941 668.862, 908.735 666.250 C 908.529 663.638, 908.360 665.775, 908.360 671 M 664.279 664.273 C 642.333 672.631, 647.509 708.416, 670.623 708.140 C 696.609 707.829, 697.618 665.542, 671.691 663.394 C 669.386 663.203, 666.050 663.599, 664.279 664.273 M 464.392 702.259 C 453.792 716.039, 438.800 733.291, 428.048 744.081 C 421.579 750.571, 414.630 759.204, 406.500 770.847 C 399.900 780.298, 384.736 801.637, 372.802 818.266 C 340.039 863.919, 339.396 864.914, 336.525 874.324 C 332.930 886.110, 333.509 887.329, 337.311 875.979 C 340.175 867.428, 341.830 864.627, 353.561 848.479 C 368.075 828.502, 407.370 773.206, 416.438 760 C 419.649 755.325, 426.392 747.225, 431.424 742 C 436.456 736.775, 443.032 729.600, 446.036 726.055 C 449.041 722.511, 453.101 717.786, 455.058 715.555 C 457.015 713.325, 459.490 710.326, 460.558 708.891 C 461.626 707.456, 464.329 703.856, 466.565 700.891 C 470.841 695.220, 472.322 692.994, 471.809 693.009 C 471.639 693.013, 468.301 697.176, 464.392 702.259 M 819.132 700 C 821.616 703.852, 838.449 724.076, 849.329 736.279 C 853.143 740.557, 860.817 747.805, 866.382 752.386 C 878.525 762.381, 898.102 782.433, 907.073 794.065 C 926.510 819.264, 934.536 833.870, 946.877 866.500 L 948.012 869.500 947.436 866.500 C 941.373 834.926, 902.305 779.508, 865.500 750.276 C 856.908 743.452, 849.213 735.234, 831.500 713.966 C 816.244 695.649, 816.548 695.992, 819.132 700 M 904.189 829.039 C 901.346 831.687, 901.250 837.250, 904 840 C 909.686 845.686, 918.356 838.457, 914.589 831.171 C 912.186 826.526, 907.842 825.635, 904.189 829.039 M 331.600 895.012 C 330.642 900.230, 329.661 906.750, 329.420 909.500 C 329.179 912.250, 330.101 908.425, 331.468 901 C 332.836 893.575, 333.817 887.055, 333.648 886.512 C 333.479 885.968, 332.557 889.793, 331.600 895.012" stroke="none" fill="#ffd1dd" fill-rule="evenodd"/><path d="M 458 205.078 C 419.514 208.769, 387.202 246.176, 376.061 299.936 C 371.315 322.840, 369.076 372.955, 372.465 380.416 C 373.235 382.112, 375.950 388.675, 378.499 395 C 416.386 489.033, 501.697 530.386, 539.698 473.137 C 560.558 441.710, 572.495 402.073, 576.030 352.500 C 576.618 344.250, 577.454 334.887, 577.887 331.693 C 578.867 324.468, 563.002 284.480, 553.013 269 C 552.481 268.175, 549.933 263.900, 547.351 259.500 C 521.547 215.523, 498.086 201.233, 458 205.078 M 798.302 205.108 C 775.205 208.932, 753.187 230.248, 730.757 270.500 C 721.964 286.280, 709.268 315.758, 705.994 328 C 705.332 330.475, 704.217 333.625, 703.516 335 C 702.815 336.375, 701.963 339.075, 701.623 341 C 701.207 343.355, 701.284 343.846, 701.859 342.500 C 702.461 341.089, 702.919 343.150, 703.414 349.500 C 707.423 400.876, 719.274 441.195, 739.305 471.600 C 781.368 535.446, 872.732 484.004, 909.098 376 C 913.475 363.003, 913.759 363.956, 911.443 383.861 C 910.588 391.209, 910.085 397.419, 910.326 397.659 C 913.396 400.730, 914.328 341.795, 911.558 319.638 C 901.590 239.872, 857.517 195.304, 798.302 205.108 M 820.500 235.560 C 794.600 248.279, 801.986 279.381, 833.893 291.958 C 863.685 303.701, 879.074 268.117, 854.730 243.774 C 842.956 232, 832.741 229.549, 820.500 235.560 M 438.757 236.022 C 427.016 238.982, 417.083 252.699, 418.366 264.182 C 421.767 294.606, 467.506 286.989, 467.498 256 C 467.495 240.707, 454.900 231.952, 438.757 236.022 M 595.378 418 C 595.378 424.325, 595.541 426.913, 595.739 423.750 C 595.937 420.587, 595.937 415.413, 595.739 412.250 C 595.541 409.087, 595.378 411.675, 595.378 418 M 230.500 477.705 C 196.882 482.445, 166.435 517.203, 160.263 557.886 C 159.963 559.862, 160.139 561.032, 160.685 560.695 C 161.199 560.377, 162.418 563.578, 163.394 567.808 C 175.466 620.162, 203.878 672.376, 233.881 697.347 C 297.581 750.365, 344.112 741.034, 370.258 670 C 372.181 664.775, 374.037 659.825, 374.382 659 C 374.728 658.175, 374.860 664.700, 374.677 673.500 C 374.481 682.884, 374.650 687.433, 375.084 684.500 C 376.179 677.110, 376.144 658.863, 375.024 653.326 C 374.488 650.672, 373.085 642.650, 371.906 635.500 C 357.089 545.575, 288.890 469.472, 230.500 477.705 M 1035.539 478.078 C 972.720 487.589, 913.463 573.729, 909.324 661.553 L 908.709 674.606 915.105 684.948 C 973.700 779.700, 1076.287 718.878, 1121.632 562.500 L 1123.371 556.500 1124.054 560 C 1124.513 562.353, 1124.780 562.746, 1124.868 561.200 C 1125.076 557.569, 1119.142 536.342, 1115.325 527.063 C 1101.050 492.359, 1069.432 472.947, 1035.539 478.078 M 1054.491 497.865 C 1042.404 503.356, 1037.889 519.035, 1044.497 532.571 C 1055.423 554.954, 1081.783 559.698, 1091.208 540.979 C 1102.298 518.952, 1076.014 488.088, 1054.491 497.865 M 713.455 506.500 C 716.306 511.124, 724.480 521.215, 727.630 524 C 729.186 525.375, 728.587 524.407, 726.300 521.850 C 724.014 519.292, 720.043 514.342, 717.477 510.850 C 712.203 503.672, 710.728 502.077, 713.455 506.500 M 202.241 508.567 C 188.037 515.645, 179.665 537.102, 186.173 549.748 C 195.310 567.503, 218.591 562.775, 229.243 541 C 239.289 520.463, 221.426 499.007, 202.241 508.567 M 428.009 517.010 C 431.427 520.866, 434.736 524.331, 435.362 524.711 C 435.988 525.090, 433.407 521.936, 429.627 517.700 C 425.848 513.465, 422.539 510, 422.274 510 C 422.010 510, 424.591 513.155, 428.009 517.010 M 559.070 520.289 C 551.145 528.947, 551.045 529.110, 557.395 523 C 563.176 517.437, 568.863 510.912, 567.818 511.039 C 567.643 511.060, 563.706 515.222, 559.070 520.289 M 851.978 520.750 L 843.500 529.500 852.250 521.022 C 860.377 513.148, 861.456 512, 860.728 512 C 860.578 512, 856.641 515.938, 851.978 520.750 M 548.249 530.151 C 546.476 531.924, 540.298 535.570, 531.500 540.036 C 524.346 543.667, 524.062 544.583, 531.008 541.624 C 536.783 539.163, 551.859 529.141, 549.950 529.032 C 549.648 529.014, 548.882 529.518, 548.249 530.151 M 739.500 533.499 C 743.145 536.549, 757.357 543.661, 761.500 544.508 C 763.150 544.845, 761.273 543.770, 757.328 542.119 C 753.384 540.468, 747.084 537.288, 743.328 535.053 C 739.173 532.580, 737.674 531.971, 739.500 533.499 M 826.476 538.547 C 819.383 541.907, 804.154 545.762, 793.054 547.005 C 784.394 547.976, 779.683 547.826, 771.500 546.319 C 769.850 546.015, 768.759 546.041, 769.076 546.376 C 775.844 553.537, 816.748 547.695, 831.325 537.485 C 834.390 535.338, 832.267 535.803, 826.476 538.547 M 463.866 542.981 C 476.455 548.850, 495.231 550.714, 510.500 547.611 C 519.029 545.877, 516.434 545.623, 504.974 547.070 C 492.767 548.610, 479.822 546.963, 461.500 541.538 C 460.400 541.212, 461.465 541.862, 463.866 542.981 M 631.500 560.692 C 566.099 568.202, 536.984 592.247, 472.841 691.724 C 467.147 700.556, 462.879 706.273, 455.500 714.954 C 453.300 717.543, 449.041 722.549, 446.036 726.080 C 443.032 729.611, 436.456 736.775, 431.424 742 C 426.392 747.225, 419.649 755.325, 416.440 760 C 407.347 773.245, 357.556 843.236, 348.493 855.513 C 338.866 868.554, 335.706 877.037, 331.364 901.500 C 328.811 915.887, 327.270 928.751, 328.808 922.839 C 329.454 920.355, 330.101 921.017, 338.500 932.742 C 369.895 976.570, 413.603 1009.479, 461.048 1025.011 C 490.957 1034.802, 506.933 1033.258, 549 1016.512 C 573.873 1006.610, 586.952 1002.440, 603.912 999.005 C 609.638 997.845, 617.063 996.262, 620.412 995.487 C 649.884 988.665, 679.602 993.277, 736.500 1013.503 C 861.282 1057.859, 933.197 1018.484, 951.112 896 C 952.056 889.547, 952.530 888.102, 953.078 890 C 953.476 891.375, 953.845 891.799, 953.900 890.942 C 954.022 889.034, 945.353 862.020, 941.660 852.800 C 927.262 816.853, 899.157 779.365, 866.382 752.386 C 860.817 747.805, 853.143 740.557, 849.329 736.279 C 834.377 719.508, 821.059 703.114, 815.796 695 C 773.327 629.530, 757.291 609.588, 730 588.307 C 724.311 583.871, 708.687 574, 707.353 574 C 707.088 574, 704.313 572.820, 701.186 571.378 C 687.233 564.943, 647.518 558.853, 631.500 560.692 M 1125.402 580 C 1125.402 588.525, 1125.556 592.013, 1125.743 587.750 C 1125.931 583.487, 1125.931 576.513, 1125.743 572.250 C 1125.556 567.987, 1125.402 571.475, 1125.402 580 M 589 584.721 C 538.955 593.706, 533.928 658.895, 582.500 669.007 C 650.228 683.106, 684.488 607.558, 619 588.520 C 603.725 584.080, 597.186 583.252, 589 584.721 M 664.279 664.273 C 642.333 672.631, 647.509 708.416, 670.623 708.140 C 696.609 707.829, 697.618 665.542, 671.691 663.394 C 669.386 663.203, 666.050 663.599, 664.279 664.273 M 1101.212 671.538 C 1098.903 676.192, 1097.231 680, 1097.496 680 C 1098.162 680, 1106.212 663.878, 1105.767 663.434 C 1105.570 663.237, 1103.520 666.883, 1101.212 671.538 M 371.401 697.728 C 370.255 702.003, 368.992 706.400, 368.595 707.500 C 368.177 708.657, 368.496 708.435, 369.351 706.974 C 371.007 704.144, 374.273 692.319, 373.795 690.884 C 373.625 690.374, 372.548 693.454, 371.401 697.728 M 1084.639 700 C 1082.079 703.850, 1080.196 707, 1080.455 707 C 1080.714 707, 1082.664 704.413, 1084.789 701.250 C 1089.494 694.247, 1090.237 693, 1089.706 693 C 1089.479 693, 1087.199 696.150, 1084.639 700 M 203.546 706.750 C 216.993 724.864, 231.888 740.123, 244.457 748.665 C 250.415 752.713, 248.400 750.573, 241.244 745.251 C 231.777 738.212, 217.520 723.755, 208.963 712.519 C 204.976 707.284, 201.499 703, 201.238 703 C 200.977 703, 202.015 704.688, 203.546 706.750 M 1072.249 716.750 C 1064.520 726.423, 1052.496 738.296, 1043.714 744.926 C 1036.795 750.150, 1036.149 751.415, 1042.750 746.812 C 1049.118 742.372, 1069.506 722.033, 1075.391 714.250 C 1082.367 705.024, 1080.313 706.659, 1072.249 716.750 M 363 720.001 C 362.301 721.687, 360.215 725.639, 358.362 728.783 C 356.510 731.927, 355.945 733.376, 357.108 732.003 C 359.578 729.083, 365.330 717.996, 364.700 717.367 C 364.463 717.130, 363.698 718.315, 363 720.001 M 920.023 718.360 C 919.982 719.884, 925.938 730.406, 928.592 733.500 L 931.165 736.500 928.852 733.021 C 927.579 731.108, 925.077 726.833, 923.292 723.521 C 921.506 720.210, 920.035 717.887, 920.023 718.360 M 936.629 743.256 C 944.809 752.624, 958.497 761.590, 967.500 763.478 C 969.150 763.824, 967.350 762.817, 963.500 761.241 C 953.745 757.248, 948.730 753.867, 939.552 745.096 C 932.285 738.152, 932.034 737.994, 936.629 743.256 M 343.081 747.036 C 338.719 751.118, 332.669 755.519, 328.395 757.719 C 324.397 759.777, 321.290 761.624, 321.490 761.823 C 322.716 763.049, 337.298 753.623, 343.876 747.351 C 348.069 743.353, 351.275 740.084, 351 740.088 C 350.725 740.092, 347.162 743.218, 343.081 747.036 M 904.189 829.039 C 901.346 831.687, 901.250 837.250, 904 840 C 909.686 845.686, 918.356 838.457, 914.589 831.171 C 912.186 826.526, 907.842 825.635, 904.189 829.039 M 327.374 937.500 C 327.376 943.550, 327.541 945.896, 327.740 942.713 C 327.939 939.531, 327.937 934.581, 327.736 931.713 C 327.535 928.846, 327.372 931.450, 327.374 937.500 M 914.481 1044.250 L 904.500 1054.500 914.750 1044.519 C 920.388 1039.029, 925 1034.417, 925 1034.269 C 925 1033.545, 923.752 1034.730, 914.481 1044.250 M 364 1037.275 C 364 1037.426, 367.488 1040.914, 371.750 1045.025 L 379.500 1052.500 372.025 1044.750 C 365.082 1037.552, 364 1036.544, 364 1037.275 M 562.789 1211.741 C 566.248 1211.937, 571.648 1211.936, 574.789 1211.738 C 577.930 1211.540, 575.100 1211.380, 568.500 1211.382 C 561.900 1211.384, 559.330 1211.546, 562.789 1211.741" stroke="none" fill="#ffb4c8" fill-rule="evenodd"/><path d="M 577.679 333 C 577.343 336.575, 576.589 345.800, 576.002 353.500 C 572.242 402.882, 560.377 441.982, 539.698 473.137 C 501.534 530.631, 416.234 488.943, 378.152 394.184 C 375.429 387.411, 373.013 381.680, 372.782 381.448 C 371.333 379.999, 376.704 410.798, 380.028 423 C 403.045 507.483, 450.940 553.782, 508 546.709 C 523.357 544.805, 530.910 541.710, 548.256 530.210 C 584.205 506.377, 603.328 439.561, 591.103 380.500 C 587.492 363.054, 581.845 338.689, 579.748 331.500 L 578.289 326.500 577.679 333 M 702.134 341.158 C 702.060 341.520, 700.238 349.620, 698.084 359.158 C 689.670 396.413, 688.322 408.235, 689.915 430.796 C 696.198 519.760, 758.475 568.446, 827.427 538.298 C 866.641 521.152, 903.423 453.429, 911.499 383.506 C 913.755 363.972, 913.460 363.047, 909.098 376 C 888.328 437.688, 851.954 480.590, 808 495.244 C 765.305 509.479, 740.917 490.307, 717.053 423.750 C 709.760 403.410, 708.170 394.814, 703.137 348.500 C 702.658 344.100, 702.207 340.796, 702.134 341.158 M 1011.397 375 C 1011.397 382.975, 1011.553 386.238, 1011.743 382.250 C 1011.932 378.262, 1011.932 371.738, 1011.743 367.750 C 1011.553 363.762, 1011.397 367.025, 1011.397 375 M 234.292 385.742 C 238.027 385.935, 243.877 385.934, 247.292 385.739 C 250.706 385.545, 247.650 385.387, 240.500 385.389 C 233.350 385.390, 230.556 385.550, 234.292 385.742 M 1041.750 385.740 C 1045.188 385.936, 1050.813 385.936, 1054.250 385.740 C 1057.688 385.545, 1054.875 385.385, 1048 385.385 C 1041.125 385.385, 1038.313 385.545, 1041.750 385.740 M 1121.615 562.500 C 1077.524 716.059, 975.407 778.854, 917.261 688.162 C 914.092 683.220, 910.960 678.349, 910.301 677.338 C 907.195 672.578, 911.879 697.079, 916.122 707.788 C 954.872 805.587, 1059.943 775.009, 1110.466 651.230 C 1122.248 622.364, 1128.297 582.141, 1124.111 560.500 L 1123.337 556.500 1121.615 562.500 M 160.701 560.674 C 153.664 572.060, 162.842 625.766, 177.573 659.402 C 231.559 782.672, 344.217 803.573, 372.142 695.500 C 374.080 687.999, 376.113 654.837, 374.380 659 C 374.036 659.825, 372.181 664.775, 370.258 670 C 344.112 741.034, 297.581 750.365, 233.881 697.347 C 203.841 672.345, 177.529 624.239, 163.713 569.062 C 162.414 563.871, 161.058 560.097, 160.701 560.674 M 88.328 582.500 C 88.333 586.350, 88.513 587.802, 88.730 585.728 C 88.946 583.653, 88.943 580.503, 88.722 578.728 C 88.501 576.952, 88.324 578.650, 88.328 582.500 M 184 818.500 C 189.203 823.725, 193.685 828, 193.960 828 C 194.235 828, 190.203 823.725, 185 818.500 C 179.797 813.275, 175.315 809, 175.040 809 C 174.765 809, 178.797 813.275, 184 818.500 M 951.103 896 C 933.334 1018.388, 861.260 1057.851, 736.500 1013.503 C 679.602 993.277, 649.884 988.665, 620.412 995.487 C 617.063 996.262, 609.638 997.845, 603.912 999.005 C 586.952 1002.440, 573.873 1006.610, 549 1016.512 C 506.933 1033.258, 490.957 1034.802, 461.048 1025.011 C 413.610 1009.481, 369.927 976.594, 338.500 932.750 L 329.500 920.194 328.669 923.847 C 319.513 964.077, 345.881 1025.680, 385.428 1056.450 C 451.846 1108.128, 510.163 1108.589, 579 1057.980 C 600.312 1042.312, 634.272 1023.175, 642.387 1022.260 C 648.968 1021.518, 682.164 1039.740, 706.308 1057.347 C 772.336 1105.498, 824.971 1108.094, 887.371 1066.278 C 943.889 1028.403, 967.569 971.471, 955.491 902.500 C 952.723 886.695, 952.502 886.367, 951.103 896 M 236.374 932.500 C 236.376 938.550, 236.541 940.896, 236.740 937.713 C 236.939 934.531, 236.937 929.581, 236.736 926.713 C 236.535 923.846, 236.372 926.450, 236.374 932.500 M 969.980 1139.750 L 960.500 1149.500 970.250 1140.020 C 979.306 1131.215, 980.455 1130, 979.730 1130 C 979.582 1130, 975.194 1134.388, 969.980 1139.750 M 317.500 1140 C 321.874 1144.400, 325.678 1148, 325.953 1148 C 326.228 1148, 322.874 1144.400, 318.500 1140 C 314.126 1135.600, 310.322 1132, 310.047 1132 C 309.772 1132, 313.126 1135.600, 317.500 1140 M 974.978 1149.750 L 966.500 1158.500 975.250 1150.022 C 983.377 1142.148, 984.456 1141, 983.728 1141 C 983.578 1141, 979.641 1144.938, 974.978 1149.750 M 741.728 1208.722 C 743.503 1208.943, 746.653 1208.946, 748.728 1208.730 C 750.802 1208.513, 749.350 1208.333, 745.500 1208.328 C 741.650 1208.324, 739.952 1208.501, 741.728 1208.722 M 546.728 1211.722 C 548.503 1211.943, 551.653 1211.946, 553.728 1211.730 C 555.802 1211.513, 554.350 1211.333, 550.500 1211.328 C 546.650 1211.324, 544.952 1211.501, 546.728 1211.722 M 583.750 1211.732 C 586.087 1211.943, 589.913 1211.943, 592.250 1211.732 C 594.587 1211.522, 592.675 1211.349, 588 1211.349 C 583.325 1211.349, 581.413 1211.522, 583.750 1211.732" stroke="none" fill="#ff80a2" fill-rule="evenodd"/><path d="M 442 97.400 C 350.376 111.410, 280.752 224.228, 277.319 364.250 C 276.985 377.863, 276.439 388.998, 276.106 388.996 C 275.773 388.994, 271.450 388.327, 266.500 387.514 C 172.254 372.029, 96.708 435.012, 82.996 540.500 C 80.906 556.584, 82.169 637.002, 84.717 650 C 102.874 742.644, 159.325 827.286, 230.454 868.517 C 232.038 869.435, 232.103 870.257, 231.127 877.017 C 212.529 1005.865, 260.591 1124.431, 355.249 1183.222 C 381.662 1199.626, 398.520 1205.084, 449.500 1213.738 L 471.500 1217.472 621 1217.794 C 778.551 1218.134, 782.092 1218.060, 828.500 1213.411 C 877.105 1208.542, 888.967 1205.820, 912.500 1194.136 C 1019.322 1141.096, 1075.599 1019.434, 1057.577 880.500 C 1056.293 870.601, 1056.307 869.400, 1057.719 868.500 C 1086.534 850.125, 1101.125 837.653, 1124.313 811.578 C 1173.556 756.205, 1201.032 692.339, 1207.091 619.167 C 1219.698 466.915, 1141.531 369.078, 1022 387.500 C 1016.775 388.305, 1012.224 388.972, 1011.886 388.982 C 1011.549 388.992, 1011.025 377.637, 1010.722 363.750 C 1007.924 235.447, 946.399 125.174, 864.500 101.672 C 782.560 78.159, 696.724 122.691, 650.867 212.505 C 643.243 227.439, 644.647 227.279, 638.124 213.954 C 597.950 131.879, 519.892 85.490, 442 97.400 M 449.500 106.067 C 379.130 115.666, 324.991 177.397, 298.532 278.203 C 289.006 314.497, 285.650 339.995, 285.561 376.749 C 285.527 390.635, 285.357 401.998, 285.181 401.999 C 285.006 401.999, 280.506 400.906, 275.181 399.569 C 147.728 367.566, 59.804 496.120, 96.595 660.681 C 114.595 741.195, 176.265 828.772, 236.375 859.183 L 242.251 862.155 241.589 866.828 C 233.860 921.410, 234.746 963.786, 244.527 1007.273 C 263.966 1093.703, 327.134 1168.347, 402 1193.354 C 447.599 1208.585, 550.918 1215.796, 638.500 1209.858 C 648.044 1209.211, 673.921 1208.793, 697.500 1208.904 C 840.178 1209.579, 892.894 1200.023, 941.500 1164.673 C 1025.330 1103.707, 1065.151 996.098, 1047.954 877 C 1046.882 869.575, 1046.004 863.169, 1046.002 862.764 C 1046.001 862.360, 1048.813 860.614, 1052.250 858.885 C 1072.636 848.631, 1101.169 823.835, 1123.461 797 C 1268.423 622.502, 1193.817 353.734, 1013.141 399.566 C 1001.563 402.503, 1002.807 404.485, 1002.948 383.331 C 1003.547 293.167, 972.893 201.973, 925.106 151.757 C 839.386 61.680, 699.674 107.972, 647.471 243.750 C 644.091 252.542, 644.071 252.545, 641.137 244.750 C 607.086 154.299, 526.014 95.629, 449.500 106.067" stroke="none" fill="#855886" fill-rule="evenodd"/><path d="M 453.500 107.050 C 438.752 109.278, 434.330 110.269, 424.291 113.592 C 391.402 124.480, 362.353 148.510, 339.742 183.533 C 334.041 192.365, 325.843 207.176, 326.367 207.700 C 326.586 207.919, 328.903 204.139, 331.515 199.299 C 336.263 190.504, 341.257 182.669, 343.702 180.179 C 344.416 179.452, 345 178.443, 345 177.937 C 345 176.768, 351.241 168.434, 355.063 164.500 C 356.666 162.850, 359.998 159.062, 362.469 156.083 C 364.939 153.104, 368.042 149.954, 369.364 149.083 C 370.687 148.212, 374.350 144.936, 377.505 141.803 C 380.661 138.670, 385.325 135.140, 387.871 133.960 C 390.417 132.780, 393.850 130.553, 395.500 129.012 C 399.047 125.700, 407.080 121.552, 412 120.493 C 413.925 120.078, 416.575 118.897, 417.888 117.867 C 420.900 115.506, 432.113 112, 436.655 112 C 438.549 112, 441.474 111.289, 443.154 110.420 C 450.717 106.509, 497.822 108.893, 506.933 113.648 C 508.345 114.385, 510.496 114.990, 511.712 114.994 C 514.756 115.002, 524.980 118.893, 527.885 121.148 C 529.197 122.167, 531.029 123, 531.957 123 C 533.928 123, 545.035 128.814, 546.500 130.611 C 547.050 131.287, 549.525 132.778, 552 133.925 C 554.475 135.073, 559.124 138.259, 562.331 141.006 C 565.538 143.753, 568.546 146, 569.015 146 C 570.141 146, 592.350 168.039, 598.040 174.803 C 606.667 185.059, 628.679 228.785, 639.671 257.500 C 644.939 271.263, 646.251 271.199, 649.973 257 C 654.225 240.776, 666.351 213.153, 676.195 197.265 C 678.500 193.544, 681.762 187.947, 683.443 184.827 C 688.095 176.194, 715.991 146, 719.315 146 C 719.805 146, 722.504 143.934, 725.313 141.408 C 728.122 138.883, 733.026 135.501, 736.210 133.894 C 739.395 132.286, 742 130.615, 742 130.179 C 742 129.743, 745.263 127.890, 749.250 126.061 C 753.237 124.232, 759.740 121.195, 763.701 119.313 C 767.661 117.430, 772.611 115.647, 774.701 115.350 C 776.790 115.052, 780.026 114.126, 781.891 113.291 C 783.756 112.456, 788.256 111.348, 791.891 110.829 C 795.526 110.310, 801.200 109.440, 804.500 108.896 C 812.640 107.553, 840.135 108.539, 845.932 110.382 C 848.444 111.181, 853.200 112.317, 856.500 112.907 C 859.800 113.497, 865.094 115.335, 868.265 116.990 C 871.435 118.646, 874.585 120, 875.265 120.001 C 877.485 120.002, 889.439 126.076, 892 128.503 C 893.375 129.806, 896.876 132.139, 899.781 133.686 C 914.305 141.425, 936.105 165.437, 951.588 190.750 C 957.249 200.004, 959.531 202.866, 956.373 196.750 C 930.811 147.247, 885.992 113.887, 836.433 107.477 C 759.941 97.583, 678.656 158.521, 647.066 249.442 C 644.584 256.585, 643.785 256.143, 639.534 245.274 C 604.342 155.286, 524.902 96.262, 453.500 107.050 M 961.222 207.750 C 964.352 214.529, 967 219.088, 967 217.700 C 967 216.652, 959.072 201, 958.541 201 C 958.301 201, 959.508 204.037, 961.222 207.750 M 322.117 215.563 C 317.935 224.500, 318.242 225.169, 322.614 216.648 C 324.548 212.880, 325.929 209.595, 325.682 209.349 C 325.436 209.103, 323.832 211.899, 322.117 215.563 M 316.067 229.067 C 314.853 231.887, 314.056 234.389, 314.294 234.628 C 314.533 234.866, 315.720 232.753, 316.933 229.933 C 318.147 227.113, 318.944 224.611, 318.706 224.372 C 318.467 224.134, 317.280 226.247, 316.067 229.067 M 287.705 349.500 C 287.322 356.650, 287.006 371.837, 287.004 383.250 C 286.999 407.015, 287.888 405.353, 277 401.958 C 263.951 397.889, 224 394.082, 224 396.906 C 224 397.405, 223.149 397.590, 222.109 397.318 C 213.748 395.132, 181.517 406.614, 164.500 417.840 C 133.156 438.518, 102.875 484.935, 97.526 520.500 C 96.866 524.887, 98.661 519.795, 103.077 504.750 C 104.328 500.488, 105.678 497, 106.076 497 C 106.475 497, 107.318 494.863, 107.951 492.250 C 108.584 489.637, 110.614 484.800, 112.462 481.500 C 114.311 478.200, 117.477 472.350, 119.498 468.500 C 123.653 460.585, 127.363 455.360, 130.747 452.655 C 132.017 451.641, 133.900 449.166, 134.932 447.155 C 137.093 442.943, 146.621 433, 148.496 433 C 149.191 433, 151.436 431.087, 153.485 428.750 C 158.175 423.399, 165.315 418.286, 170.096 416.853 C 172.121 416.246, 175.290 414.459, 177.139 412.881 C 181.043 409.549, 191.783 405.002, 195.761 404.996 C 197.267 404.994, 199.887 404.146, 201.583 403.112 C 209.627 398.207, 237.510 396.083, 251 399.348 C 255.125 400.346, 261.425 401.768, 265 402.507 C 272.362 404.029, 283.836 408.165, 288.897 411.122 C 293.643 413.894, 294.218 412.730, 293.075 402.668 C 292.533 397.899, 291.582 383.310, 290.962 370.248 C 289.416 337.678, 288.614 332.565, 287.705 349.500 M 998.719 348 C 998.333 351.025, 998.013 357.771, 998.009 362.991 C 998.004 368.211, 997.485 380.933, 996.855 391.262 C 995.487 413.682, 993.968 411.708, 1009.039 407.104 C 1015.892 405.010, 1025.100 402.706, 1029.500 401.983 C 1033.900 401.261, 1039.450 399.844, 1041.833 398.835 C 1046.677 396.783, 1058.896 396.296, 1060.683 398.083 C 1061.279 398.679, 1063.957 399.148, 1066.633 399.125 C 1073.422 399.067, 1082.934 401.004, 1086.500 403.170 C 1088.150 404.172, 1090.850 405.005, 1092.500 405.020 C 1096.580 405.057, 1105.370 408.815, 1111.862 413.298 C 1114.811 415.334, 1117.874 417, 1118.667 417 C 1120.941 417, 1131.615 424.650, 1133.985 427.979 C 1135.165 429.636, 1138.058 432.122, 1140.414 433.503 C 1145.010 436.196, 1151.625 443.433, 1154.399 448.801 C 1155.337 450.617, 1156.781 452.363, 1157.609 452.680 C 1159.607 453.447, 1168.503 466.756, 1169.368 470.275 C 1169.744 471.802, 1170.969 473.969, 1172.092 475.092 C 1174.126 477.126, 1181.444 493, 1180.347 493 C 1180.030 493, 1180.429 494.012, 1181.233 495.250 C 1182.038 496.488, 1183.260 499.218, 1183.948 501.317 C 1184.636 503.416, 1185.402 504.931, 1185.650 504.684 C 1189.875 500.458, 1162.872 453.394, 1146.811 436.992 C 1135.543 425.485, 1116.143 411.176, 1113.785 412.633 C 1113.177 413.009, 1112.973 412.853, 1113.327 412.280 C 1114.357 410.613, 1090.611 401.439, 1079 399.020 C 1058.430 394.734, 1030.211 395.971, 1011.161 401.995 C 1000.208 405.459, 1001.163 407.664, 1001.089 378.750 C 1001.053 364.863, 1000.663 351.025, 1000.222 348 L 999.420 342.500 998.719 348 M 1186.725 509.892 C 1187.368 514.795, 1190.909 524.632, 1190.903 521.500 C 1190.901 520.400, 1189.830 516.350, 1188.524 512.500 C 1186.448 506.381, 1186.221 506.053, 1186.725 509.892 M 1191.149 525 C 1191.110 525.825, 1191.955 530.550, 1193.028 535.500 C 1194.246 541.123, 1194.785 542.624, 1194.463 539.500 C 1193.905 534.088, 1191.267 522.545, 1191.149 525 M 94.098 536.272 C 93.334 540.546, 93 544.333, 93.355 544.688 C 93.710 545.043, 94 544.200, 94 542.816 C 94 541.431, 94.483 538.913, 95.073 537.220 C 95.664 535.527, 95.998 532.872, 95.816 531.321 C 95.603 529.495, 94.997 531.241, 94.098 536.272 M 1195.125 549.614 C 1195.056 552.426, 1195.479 557.151, 1196.064 560.114 C 1196.649 563.076, 1197.173 575.175, 1197.229 587 C 1197.319 606.015, 1197.434 607.460, 1198.220 599.500 C 1199.103 590.571, 1197.723 558.688, 1196.034 549 L 1195.250 544.500 1195.125 549.614 M 91.550 553.295 C 91.114 557.582, 90.997 561.330, 91.290 561.624 C 92.008 562.341, 93.316 549.789, 92.773 547.394 C 92.537 546.352, 91.986 549.008, 91.550 553.295 M 90.349 572 C 90.349 576.675, 90.522 578.587, 90.732 576.250 C 90.943 573.913, 90.943 570.087, 90.732 567.750 C 90.522 565.413, 90.349 567.325, 90.349 572 M 90.074 600.583 C 90.115 606.587, 90.519 613.525, 90.972 616 C 91.474 618.746, 91.587 614.653, 91.261 605.500 C 90.631 587.813, 89.969 585.070, 90.074 600.583 M 1191.696 625.696 C 1190.251 630.485, 1189.251 634.584, 1189.471 634.805 C 1189.692 635.025, 1191.065 631.298, 1192.522 626.522 C 1193.979 621.745, 1194.980 617.646, 1194.746 617.413 C 1194.513 617.179, 1193.140 620.907, 1191.696 625.696 M 92.035 622.522 C 92.016 623.084, 92.838 626.567, 93.863 630.262 C 94.888 633.958, 95.520 638.058, 95.269 639.373 C 95.017 640.689, 95.322 642.081, 95.946 642.467 C 96.744 642.960, 96.878 642.327, 96.399 640.334 C 96.025 638.775, 96.065 637.820, 96.487 638.211 C 96.910 638.602, 97.361 641.102, 97.489 643.766 C 97.721 648.606, 101.804 659.239, 103.118 658.427 C 103.501 658.191, 103.573 658.917, 103.279 660.041 C 102.914 661.437, 103.181 661.992, 104.122 661.793 C 104.914 661.624, 105.441 662.244, 105.361 663.250 C 105.285 664.212, 105.568 665, 105.990 665 C 106.412 665, 107.323 666.364, 108.013 668.032 C 108.704 669.700, 109.429 670.905, 109.623 670.710 C 109.818 670.515, 108.042 665.541, 105.676 659.657 C 103.311 653.773, 101.096 649.237, 100.755 649.578 C 100.414 649.919, 100.401 649.183, 100.725 647.943 C 101.130 646.395, 100.955 645.909, 100.169 646.396 C 99.476 646.824, 99.212 646.589, 99.502 645.802 C 99.765 645.086, 98.200 639.325, 96.025 633 C 93.849 626.675, 92.054 621.960, 92.035 622.522 M 1181.650 654.150 C 1180.192 658.100, 1179.165 661.499, 1179.370 661.703 C 1179.574 661.907, 1180.937 658.846, 1182.400 654.900 C 1183.863 650.954, 1184.889 647.555, 1184.680 647.347 C 1184.472 647.139, 1183.108 650.200, 1181.650 654.150 M 1172.667 676.167 C 1171.202 679.561, 1170.164 682.498, 1170.360 682.694 C 1170.556 682.890, 1171.919 680.278, 1173.389 676.889 C 1174.859 673.500, 1175.896 670.563, 1175.695 670.362 C 1175.494 670.161, 1174.131 672.773, 1172.667 676.167 M 113.060 679.592 C 112.871 683.027, 149.537 751, 151.579 751 C 152.096 751, 147.967 743.494, 144.978 739 C 140.622 732.449, 127.858 708.877, 120.883 694.500 C 116.613 685.700, 113.093 678.992, 113.060 679.592 M 1165.204 692.552 C 1162.892 697.215, 1161.023 701.360, 1161.051 701.765 C 1161.078 702.169, 1163.132 698.516, 1165.614 693.646 C 1168.095 688.777, 1169.964 684.631, 1169.767 684.434 C 1169.570 684.237, 1167.517 687.890, 1165.204 692.552 M 1142.957 734.750 C 1139.514 740.663, 1136.038 746.513, 1135.233 747.750 C 1134.429 748.987, 1134.018 750, 1134.321 750 C 1134.827 750, 1146.199 731.482, 1148.906 726.250 C 1152.077 720.123, 1148.499 725.235, 1142.957 734.750 M 224 732.500 C 227.543 736.075, 230.667 739, 230.942 739 C 231.217 739, 228.543 736.075, 225 732.500 C 221.457 728.925, 218.333 726, 218.058 726 C 217.783 726, 220.457 728.925, 224 732.500 M 152.519 753 C 154.326 756.340, 171.371 781.111, 172.224 781.638 C 172.729 781.950, 168.763 775.747, 163.410 767.853 C 154.421 754.594, 150.451 749.181, 152.519 753 M 1107.133 789 C 1102.686 795.050, 1099.235 800, 1099.465 800 C 1099.905 800, 1106 792.098, 1112.383 783.250 C 1114.466 780.362, 1115.957 778, 1115.695 778 C 1115.434 778, 1111.581 782.950, 1107.133 789 M 175.921 787 C 177.616 789.475, 180.163 792.850, 181.581 794.500 C 183.562 796.804, 183.445 796.456, 181.079 793 C 179.384 790.525, 176.837 787.150, 175.419 785.500 C 173.438 783.196, 173.555 783.544, 175.921 787 M 185.166 799.750 C 185.979 800.712, 190.129 805.663, 194.389 810.750 C 198.650 815.837, 202.335 820, 202.579 820 C 202.822 820, 198.922 815.050, 193.911 809 C 188.900 802.950, 184.550 798, 184.245 798 C 183.940 798, 184.354 798.788, 185.166 799.750 M 1066.474 837.107 C 1060.988 842.665, 1053.270 850.116, 1049.322 853.665 C 1041.612 860.595, 1041.972 859.653, 1043.455 869 C 1043.673 870.375, 1043.930 873.975, 1044.025 877 C 1044.158 881.183, 1044.379 881.901, 1044.951 880 C 1045.452 878.332, 1045.747 880.102, 1045.836 885.321 C 1045.910 889.623, 1046.255 893.604, 1046.604 894.169 C 1047.651 895.862, 1048.160 905.516, 1048.155 923.563 L 1048.150 940.626 1043.253 948.063 C 1040.560 952.153, 1034.152 962.475, 1029.012 971 C 969.332 1069.988, 924.660 1109.650, 845 1134.370 C 795.172 1149.833, 774.181 1149.947, 728.500 1134.999 C 715.300 1130.679, 699.325 1125.777, 693 1124.105 C 681.536 1121.073, 668.352 1116.808, 660.209 1113.495 C 657.848 1112.535, 655.689 1111.978, 655.410 1112.256 C 654.547 1113.120, 679.158 1121.766, 694.652 1126.042 C 702.756 1128.278, 718.647 1133.184, 729.966 1136.942 C 772.206 1150.968, 794.563 1150.968, 840.956 1136.945 C 924.051 1111.829, 968.822 1072.911, 1028.981 973.500 C 1034.639 964.150, 1041.163 953.575, 1043.477 950 C 1050.686 938.867, 1050.326 940.773, 1049.704 917.064 C 1049.124 894.967, 1047.048 874.373, 1044.505 865.500 C 1043.382 861.582, 1043.335 860.245, 1044.286 859.321 C 1044.954 858.673, 1048.930 855.073, 1053.121 851.321 C 1060.128 845.050, 1077.726 827, 1076.833 827 C 1076.622 827, 1071.960 831.548, 1066.474 837.107 M 221.500 840.872 C 225.900 845.401, 232.537 851.648, 236.250 854.754 C 244.150 861.364, 243.873 859.781, 240.929 881.500 C 239.589 891.383, 238.695 905.061, 238.308 921.598 L 237.720 946.696 249.026 965.598 C 310.381 1068.182, 352.715 1107.325, 430.589 1133.476 C 483.140 1151.123, 507.414 1151.710, 554.177 1136.464 C 566.959 1132.296, 583.961 1127.081, 591.959 1124.873 C 605.032 1121.265, 630.087 1112.220, 627.444 1112.063 C 626.863 1112.028, 621.013 1113.987, 614.444 1116.416 C 607.875 1118.845, 596.425 1122.430, 589 1124.382 C 581.575 1126.335, 565.150 1131.326, 552.500 1135.473 C 507.566 1150.202, 485.130 1149.711, 433.222 1132.862 C 356.574 1107.982, 312.077 1067.924, 253.973 971.500 C 238.418 945.686, 239.704 948.678, 240.234 939.521 C 240.489 935.116, 240.382 932.409, 239.997 933.506 C 239.205 935.760, 239.594 915.167, 240.489 907.500 C 240.810 904.750, 241.269 899.350, 241.510 895.500 C 242.171 884.930, 243.031 878.119, 244.525 871.637 C 245.338 868.106, 245.531 865.122, 245.011 864.137 C 243.504 861.286, 242.677 858.544, 242.906 857.162 C 243.054 856.273, 242.492 856.026, 241.229 856.427 C 239.778 856.888, 236.287 854.155, 226.415 844.834 C 217.901 836.794, 216.226 835.444, 221.500 840.872" stroke="none" fill="#ecddec" fill-rule="evenodd"/><path d="M 449 109.045 C 446.525 109.346, 443.517 110.134, 442.316 110.796 C 441.114 111.458, 438.574 112, 436.671 112 C 432.116 112, 420.905 115.502, 417.888 117.867 C 416.575 118.897, 413.925 120.078, 412 120.493 C 407.080 121.552, 399.047 125.700, 395.500 129.012 C 393.850 130.553, 390.417 132.780, 387.871 133.960 C 385.325 135.140, 380.661 138.670, 377.505 141.803 C 374.350 144.936, 370.687 148.212, 369.364 149.083 C 368.042 149.954, 364.939 153.104, 362.469 156.083 C 359.998 159.062, 356.666 162.850, 355.063 164.500 C 351.367 168.305, 345 176.754, 345 177.853 C 345 178.313, 343.933 179.931, 342.629 181.448 C 338.271 186.520, 319 221.680, 319 224.560 C 319 224.892, 317.579 228.390, 315.842 232.332 C 309.115 247.602, 302.435 269.524, 295.526 299 C 292.142 313.440, 289.657 330.916, 289.696 340 C 289.752 352.828, 291.832 391.391, 293.063 402.421 C 294.214 412.739, 293.657 413.902, 288.897 411.122 C 283.836 408.165, 272.362 404.029, 265 402.507 C 261.425 401.768, 255.125 400.346, 251 399.348 C 237.510 396.083, 209.627 398.207, 201.583 403.112 C 199.887 404.146, 197.267 404.994, 195.761 404.996 C 191.783 405.002, 181.043 409.549, 177.139 412.881 C 175.290 414.459, 172.121 416.246, 170.096 416.853 C 165.315 418.286, 158.175 423.399, 153.485 428.750 C 151.436 431.087, 149.191 433, 148.496 433 C 146.621 433, 137.093 442.943, 134.932 447.155 C 133.900 449.166, 132.017 451.641, 130.747 452.655 C 127.363 455.360, 123.653 460.585, 119.498 468.500 C 117.477 472.350, 114.311 478.200, 112.462 481.500 C 110.614 484.800, 108.584 489.637, 107.951 492.250 C 107.318 494.863, 106.475 497, 106.076 497 C 105.678 497, 104.326 500.488, 103.071 504.750 C 101.816 509.012, 99.911 515.443, 98.837 519.039 C 97.763 522.636, 96.505 528.036, 96.041 531.039 C 95.576 534.043, 94.732 539.200, 94.165 542.500 C 88.406 576.004, 89.432 613.238, 96.716 635 C 121.807 709.968, 169.767 788.075, 223.701 841.807 C 235.928 853.989, 239.467 856.987, 241.033 856.490 C 242.194 856.121, 243 856.327, 243 856.992 C 243 857.616, 242.443 857.792, 241.750 857.387 C 241.063 856.985, 241.287 857.556, 242.250 858.657 C 243.212 859.757, 244 861.320, 244 862.129 C 244 862.938, 244.435 864.035, 244.966 864.566 C 245.587 865.187, 245.423 867.712, 244.506 871.642 C 243.723 875.002, 242.800 880.845, 242.457 884.626 C 241.379 896.485, 241.254 897.451, 240.524 899.500 C 239.928 901.172, 240.006 901.254, 241 900 C 242.006 898.731, 242.092 898.795, 241.563 900.414 C 240.108 904.862, 238.559 937.597, 239.997 933.506 C 240.382 932.409, 240.489 935.116, 240.234 939.521 C 239.704 948.678, 238.418 945.686, 253.973 971.500 C 312.077 1067.924, 356.574 1107.982, 433.222 1132.862 C 485.130 1149.711, 507.566 1150.202, 552.500 1135.473 C 565.150 1131.326, 581.575 1126.335, 589 1124.382 C 596.425 1122.430, 607.899 1118.836, 614.497 1116.396 C 638.480 1107.529, 644.128 1107.577, 669.694 1116.858 C 675.851 1119.094, 686.201 1122.323, 692.694 1124.034 C 699.187 1125.745, 715.300 1130.679, 728.500 1134.999 C 774.181 1149.947, 795.172 1149.833, 845 1134.370 C 924.660 1109.650, 969.332 1069.988, 1029.012 971 C 1034.152 962.475, 1040.560 952.153, 1043.253 948.063 L 1048.150 940.626 1048.155 923.563 C 1048.160 905.516, 1047.651 895.862, 1046.604 894.169 C 1046.255 893.604, 1045.910 889.623, 1045.836 885.321 C 1045.747 880.102, 1045.452 878.332, 1044.951 880 C 1044.378 881.905, 1044.156 881.190, 1044.017 877 C 1043.841 871.654, 1043.495 868.328, 1042.545 862.835 C 1042.150 860.554, 1043.122 859.237, 1049.292 853.691 C 1112.517 796.859, 1173.825 695.493, 1195.990 611.141 C 1197.449 605.589, 1197.503 567.418, 1196.062 560.114 C 1195.478 557.151, 1195 552.806, 1195 550.458 C 1195 544.945, 1190.582 522.328, 1188.559 517.487 C 1187.702 515.435, 1187 512.912, 1187 511.882 C 1187 509.400, 1183.079 498.096, 1181.231 495.250 C 1180.427 494.012, 1180.030 493, 1180.347 493 C 1181.444 493, 1174.126 477.126, 1172.092 475.092 C 1170.969 473.969, 1169.744 471.802, 1169.368 470.275 C 1168.503 466.756, 1159.607 453.447, 1157.609 452.680 C 1156.781 452.363, 1155.337 450.617, 1154.399 448.801 C 1151.625 443.433, 1145.010 436.196, 1140.414 433.503 C 1138.058 432.122, 1135.165 429.636, 1133.985 427.979 C 1131.615 424.650, 1120.941 417, 1118.667 417 C 1117.874 417, 1114.811 415.334, 1111.862 413.298 C 1105.370 408.815, 1096.580 405.057, 1092.500 405.020 C 1090.850 405.005, 1088.150 404.172, 1086.500 403.170 C 1082.934 401.004, 1073.422 399.067, 1066.633 399.125 C 1063.957 399.148, 1061.279 398.679, 1060.683 398.083 C 1058.896 396.296, 1046.677 396.783, 1041.833 398.835 C 1039.450 399.844, 1033.900 401.261, 1029.500 401.983 C 1025.100 402.706, 1015.892 405.010, 1009.039 407.104 C 993.968 411.708, 995.487 413.682, 996.855 391.262 C 997.485 380.933, 998.027 367.761, 998.060 361.991 C 998.092 356.221, 998.452 349.475, 998.858 347 C 999.944 340.382, 997.868 325.350, 991.403 293 C 988.748 279.716, 977.137 242.447, 972.885 233.562 C 971.848 231.396, 971 229.273, 971 228.844 C 971 224.636, 951.535 189.390, 941.206 174.895 C 929.483 158.443, 910.150 139.211, 899.781 133.686 C 896.876 132.139, 893.375 129.806, 892 128.503 C 889.439 126.076, 877.485 120.002, 875.265 120.001 C 874.585 120, 871.435 118.646, 868.265 116.990 C 865.094 115.335, 859.800 113.497, 856.500 112.907 C 853.200 112.317, 848.444 111.181, 845.932 110.382 C 840.135 108.539, 812.640 107.553, 804.500 108.896 C 801.200 109.440, 795.526 110.310, 791.891 110.829 C 788.256 111.348, 783.756 112.456, 781.891 113.291 C 780.026 114.126, 776.790 115.052, 774.701 115.350 C 772.611 115.647, 767.661 117.430, 763.701 119.313 C 759.740 121.195, 753.237 124.232, 749.250 126.061 C 745.263 127.890, 742 129.743, 742 130.179 C 742 130.615, 739.395 132.286, 736.210 133.894 C 733.026 135.501, 728.122 138.883, 725.313 141.408 C 722.504 143.934, 719.805 146, 719.315 146 C 715.991 146, 688.095 176.194, 683.443 184.827 C 681.762 187.947, 678.500 193.544, 676.195 197.265 C 666.351 213.153, 654.225 240.776, 649.973 257 C 646.251 271.199, 644.939 271.263, 639.671 257.500 C 628.679 228.785, 606.667 185.059, 598.040 174.803 C 592.350 168.039, 570.141 146, 569.015 146 C 568.546 146, 565.538 143.753, 562.331 141.006 C 559.124 138.259, 554.475 135.073, 552 133.925 C 549.525 132.778, 547.050 131.287, 546.500 130.611 C 545.035 128.814, 533.928 123, 531.957 123 C 531.029 123, 529.197 122.167, 527.885 121.148 C 524.980 118.893, 514.756 115.002, 511.712 114.994 C 510.496 114.990, 508.345 114.385, 506.933 113.648 C 499.407 109.721, 465.562 107.031, 449 109.045 M 452.324 203.987 C 417.315 211.390, 389.009 243.804, 377.108 290.121 C 343.888 419.401, 426.405 574.948, 514 548.168 C 517.575 547.075, 523.078 545.456, 526.229 544.569 C 568.316 532.723, 601.489 466.610, 596.008 405.500 C 584.960 282.314, 519.051 189.879, 452.324 203.987 M 796 204.555 C 761.056 212.060, 714.094 279.666, 700.178 342.500 C 682.912 420.458, 683.738 450.549, 704.252 490.871 C 745.081 571.126, 829.061 571.189, 876.712 491 C 955.753 357.986, 905.871 180.957, 796 204.555 M 222 477.492 C 165.022 490.282, 141.015 572.036, 171.645 648.974 C 221.111 773.223, 326.675 808.419, 367.224 714.182 C 408.601 618.020, 310.227 457.688, 222 477.492 M 1027.500 477.958 C 949.415 498.574, 882.950 636.343, 915.479 710.154 C 922.684 726.502, 925.011 730.608, 931.901 739.133 C 985.977 806.044, 1086.299 746.663, 1119.873 627.871 C 1145.158 538.408, 1096.659 459.699, 1027.500 477.958 M 615.333 561.410 C 564.772 570.413, 529.333 600.263, 484 672.031 C 464.341 703.154, 439.749 733.457, 421.955 748.486 C 283.362 865.542, 298.220 1047.227, 450.035 1091.851 C 492.015 1104.190, 533.712 1093.912, 577.544 1060.421 C 584.855 1054.835, 589.821 1051.661, 615.362 1036.257 C 643.226 1019.452, 643.945 1019.478, 674.500 1038.360 C 678.900 1041.079, 686.325 1045.576, 691 1048.353 C 695.675 1051.129, 703.100 1056.156, 707.500 1059.523 C 770.633 1107.833, 829.811 1109.031, 894.314 1063.304 C 991.889 994.130, 977.924 838.794, 866.151 750.025 C 851.463 738.361, 823.016 704.688, 809.485 682.951 C 745.742 580.549, 693.062 547.571, 615.333 561.410" stroke="none" fill="#faf7f8" fill-rule="evenodd"/></svg>
