<?xml version="1.0" standalone="no"?><!DOCTYPE svg PUBLIC "-//W3C//DTD SVG 1.1//EN" "http://www.w3.org/Graphics/SVG/1.1/DTD/svg11.dtd"><svg t="1727340195618" class="icon" viewBox="0 0 1050 1024" version="1.1" xmlns="http://www.w3.org/2000/svg" p-id="6355" xmlns:xlink="http://www.w3.org/1999/xlink" width="205.078125" height="200"><path d="M681.80215 142.259694a100.529011 100.529011 0 0 1-66.041812 37.537087 1221.89083 1221.89083 0 0 1-206.102068 5.630563l-4.486854-3.372473V0c-37.537087 37.537087-82.962827 37.537087-129.884186 41.672032v143.69666H128.130119A120.52924 120.52924 0 0 0 2.322226 289.416805a211.439372 211.439372 0 0 0-2.228765 37.537087v581.062375a119.708116 119.708116 0 0 1 75.074174-37.537087 428.157397 428.157397 0 0 1 57.801249-4.516181h425.224812a119.356206 119.356206 0 0 0 119.004296-97.948336 231.204995 231.204995 0 0 0 3.372473-42.434504V156.570709z m-203.814651 675.667564H130.388209V309.680967a64.516868 64.516868 0 0 1 72.816084-72.816084h72.845409v265.369609H221.972836a70.557993 70.557993 0 0 0-75.044848 63.431812 239.328255 239.328255 0 0 1 128.359242-10.87989v212.084541c0 18.768543 3.753709 22.522252 22.141016 22.522252h85.220917c18.768543 0 22.522252-3.372473 22.522253-21.75978V569.801249c0-13.13798 4.134945-17.272925 16.891689-16.510453a301.235122 301.235122 0 0 0 48.798213 0 70.557993 70.557993 0 0 0 64.92743-62.698666c-40.90956 23.284724-85.044962 7.888653-129.033737 13.519217V241.351738h144.517785v504.873819a65.308666 65.308666 0 0 1-73.314623 71.320465z m572.440575-299.534223v-16.891689h-67.449453a93.842717 93.842717 0 0 0 66.83361-90.910132 201.996449 201.996449 0 0 0 0-20.528095V103.608225a127.156882 127.156882 0 0 1-70.206083 33.783378 581.267656 581.267656 0 0 1-67.18552 7.888654h-60.059339a121.966207 121.966207 0 0 0-128.623174 131.526433v747.19331c27.038433-34.89776 64.92743-34.135288 102.464517-37.537087v-130.617332h88.974626a124.282949 124.282949 0 0 0 134.898906-135.133513c0.762472-67.449453 0.381236-134.898906 0.381236-202.348359z m-103.608225 216.19016a64.194284 64.194284 0 0 1-70.587319 70.587319h-48.387651V270.267026a64.516868 64.516868 0 0 1 75.074174-75.074174h44.663268v276.278824c-75.074174 7.126181-94.223953 20.528094-101.731371 61.584284 15.777307-2.932585 31.906524-7.126181 48.416977-8.6218s34.54585 0 53.69563 0v17.59551z m0 0" p-id="6356" fill="#d81e06"></path></svg>