<svg viewBox="0 0 76 67" xmlns="http://www.w3.org/2000/svg"><g fill="none"><path d="M34.995 16.099V.436L35.43 0h5.222l.436.436V16.1l-.436.436H35.43zm-18.756-.743v-.718l3.581-3.59h.718l5.476 5.487v3.8l-.506.508h-3.794zm5.041 21.196H.434L0 36.116v-5.232l.435-.436H21.28l.435.436v5.232zm-.742 19.393h-.718l-3.581-3.588v-.72l5.475-5.485h3.794l.506.506v3.801zm14.457 10.619V50.901l.435-.436h5.222l.436.436v15.663l-.436.436H35.43zm40.57-30.012H54.72l-.435-.436v-5.232l.435-.436h20.844l.435.436v5.232z" fill="#05BDBA"/><path d="M47.769 44.378h-5.21l-.436-.436V31.72c0-2.174-.853-3.86-3.47-3.918-1.347-.036-2.888 0-4.535.065l-.247.253v15.816l-.435.436h-5.211l-.435-.436V23.058l.435-.436h11.728c4.558 0 8.251 3.7 8.251 8.268v13.052l-.435.436Z" fill="#014847"/></g></svg>