<svg viewBox="0 0 90 90" xmlns="http://www.w3.org/2000/svg"><defs><linearGradient x1="50%" y1="0%" x2="50%" y2="153.355%" id="a"><stop stop-color="#FF9D00" offset="0%"/><stop stop-color="#FF0B33" offset="100%"/></linearGradient></defs><path d="M31.81 8a9.088 9.088 0 0 1 9.088 9.088v62.125A3.787 3.787 0 0 1 37.11 83h-8.33a3.787 3.787 0 0 1-3.787-3.787V27.537a3.787 3.787 0 0 0-3.787-3.787h-1.515a3.787 3.787 0 0 0-3.786 3.787v51.676A3.787 3.787 0 0 1 12.118 83H3.787A3.787 3.787 0 0 1 0 79.213V11.787A3.787 3.787 0 0 1 3.787 8h28.022Zm49.102 0A9.088 9.088 0 0 1 90 17.088v15.633a3.03 3.03 0 0 1-3.03 3.029H76.368a3.03 3.03 0 0 1-3.029-3.03v-6.698a2.272 2.272 0 0 0-2.272-2.272H67.28a2.272 2.272 0 0 0-2.272 2.272v38.963c0 .837.678 1.515 1.515 1.515h6.059c.836 0 1.514-.678 1.514-1.515V57.5h-1.514a3.03 3.03 0 0 1-3.03-3.03v-9.69a3.03 3.03 0 0 1 3.03-3.03h14.39A3.03 3.03 0 0 1 90 44.78v29.132A9.088 9.088 0 0 1 80.912 83H58.19a9.088 9.088 0 0 1-9.089-9.088V17.088A9.088 9.088 0 0 1 58.191 8h22.72Z" fill="url(#a)" fill-rule="evenodd"/><style xmlns="" data-source="base" class="dblt-ykjmwcnxmi"/><style xmlns="" data-source="stylesheet-processor" class="dblt-ykjmwcnxmi"/></svg>