<svg xmlns="http://www.w3.org/2000/svg" width="162.688" height="162.688"><path d="M44.387 162.594c-.6 0-1.3 0-1.9-.1-1.5-.2-2.9-.5-4.5-1-2.8-.9-5.2-2.2-6.9-3.2-3.8-2.2-7.7-4.9-11.8-8.3-1.8-1.5-3.6-3.1-5.3-4.7l-1.4-1.4c-1-.9-1.9-1.9-2.6-3-1.3-2-2.4-4.6-2.5-8-.1-1.1-.2-2.2-.2-3.4 0-2.4.1-5 .5-7.5.7-5.2 2.4-9.8 3.7-13.3l.3-.9c-.4-.9-.7-1.9-1.1-2.9-1.8-5.2-3-11-3.6-16.8-.6-6.1-.4-12.3.5-18.4.2-1.3.4-2.6.7-3.8-2.4-3.5-5.4-8.5-7.3-14.3v-.1c-.4-1.2-1.4-4.2-.8-8 .2-1.4.5-2.8 1-4.3.9-2.8 2.2-5.1 3.2-6.8 2.2-3.8 4.9-7.6 8.2-11.7 1.5-1.8 3-3.6 4.6-5.2l1.4-1.4c.7-.8 1.5-1.5 2.4-2.1 2-1.5 4.8-2.8 8.6-2.9 1.2-.1 2.5-.2 3.8-.2h.1c2.5 0 5.2.2 7.8.6 4 .6 7.6 1.7 10.8 2.9 2.1-.9 4.3-1.7 6.6-2.5 5.4-1.8 11.2-3 17-3.4 6.1-.5 12.3-.2 18.2.8 1.4.2 2.8.5 4.2.8 4.7-3.2 9-5.5 13.5-6.9h.1c1-.4 3.2-1.1 6.1-1.1.6 0 1.3 0 1.9.1 1.5.2 2.9.5 4.5 1 2.8.9 5.2 2.2 6.9 3.2 3.8 2.2 7.7 4.9 11.8 8.3 1.8 1.5 3.6 3.1 5.3 4.7l1.4 1.4c.7.6 1.4 1.3 1.9 2.1 1.8 2.3 3.2 5.6 3.3 10.2.1 1.6.1 3.3 0 5-.2 3.7-.7 7.2-1.6 10.4-.7 2.4-1.5 4.8-2.4 7.2 1.8 4.5 3.1 9.1 4 13.8 1.8 9.9 1.6 20.1-.6 29.9 1.3 1.9 2.5 3.7 3.5 5.5 1.7 3 3.1 6.1 4.1 9.3.4 1.2 1.3 4.2.7 8.2-.2 1.4-.6 2.7-1.1 4.2-1.8 5.1-4.6 9.3-7.1 12.8-2.7 3.8-5.8 7.5-9 10.9l-1.2 1.2c-.7.8-1.5 1.5-2.4 2.2-2 1.5-4.8 2.7-8.6 2.9-1.2.1-2.5.2-3.8.2h-.1c-2.7 0-5.4-.2-8.2-.7-4.5-.7-8.5-2.1-12.1-3.5-1.9.8-3.9 1.5-5.8 2.1-5.6 1.7-11.5 2.8-17.4 3.1-6.1.4-12.3-.1-18.3-1.2-.7-.1-1.5-.3-2.2-.4-5.2 3.7-9.8 6.1-14.6 7.7h-.1c-1-.1-3.2.7-6.1.7z"/><path class="theme-secondary" d="M133.487 140.094l-.3.3-.5.1c-3.5.4-7.3.2-11.2-.7h-.1c-4.9-1.3-9.8-3.2-14.7-5.6 8.56-21.716 36.355-21.294 26.8 5.9zM22.187 133.494l-.3-.3-.1-.5c-.4-3.5-.2-7.3.7-11.2v-.1c1.3-4.9 3.2-9.8 5.6-14.7 21.716 8.559 21.294 36.355-5.9 26.8zM28.387 23.894l.3-.3.5-.1c3.5-.4 7.3-.2 11.2.7h.1c4.9 1.3 9.8 3.2 14.7 5.6-8.559 21.716-36.355 21.294-26.8-5.9zM140.087 29.194l.3.3.1.5c.4 3.5.2 7.3-.7 11.2v.1c-1.3 4.9-3.2 9.8-5.6 14.7-21.716-8.56-21.294-36.355 5.9-26.8z" fill="#b4762c"/><circle class="theme-primary" cx="81.4" cy="80.8" r="60.5" transform="translate(-.013 .094)" fill="#da8e35"/><path d="M58.587 59.994c-3.5-1.6-6.1-3.2-8.7-5.1-4-2.8-7.7-5.9-10.8-9.2-7.6-7.7-11.6-15.6-10.5-22.1l-2.3 2.4c-5.5 5.8-12.8 16-12.9 20.4l.1.5c1 3.4 2.6 6.8 4.9 10.1v.1c3 4.8 8.9 12.7 29.9 21.9l-3.7 7 28.3-7.6-10-26.4zM58.287 103.294c-1.6 3.5-3.2 6.1-5.1 8.7-2.8 4-5.9 7.7-9.2 10.8-7.7 7.6-15.6 11.6-22.1 10.5l2.4 2.3c5.8 5.5 16 12.8 20.4 12.9l.5-.1c3.4-1 6.8-2.6 10.1-4.9h.1c4.8-3 12.7-8.9 21.9-29.9l7 3.7-7.6-28.3-26.4 10zM103.287 103.994c3.5 1.6 6.1 3.2 8.7 5.1 4 2.8 7.7 5.9 10.8 9.2 7.6 7.7 11.6 15.6 10.5 22.1l2.3-2.4c5.5-5.8 12.8-16 12.9-20.4l-.1-.5c-1-3.4-2.6-6.8-4.9-10.1v-.1c-3-4.8-8.9-12.7-29.9-21.9l3.7-7-28.3 7.6 10 26.4zM103.987 59.394c1.6-3.5 3.2-6.1 5.1-8.7 2.8-4 5.9-7.7 9.2-10.8 7.7-7.6 15.6-11.6 22.1-10.5l-2.4-2.3c-5.8-5.5-16-12.8-20.4-12.9l-.5.1c-3.4 1-6.8 2.6-10.1 4.9h-.1c-4.8 3-12.7 8.9-21.9 29.9l-7-3.7 7.6 28.3 26.4-10z" fill="#fff"/></svg>