<svg width="500" height="500" viewBox="0 0 500 500" fill="none" xmlns="http://www.w3.org/2000/svg">
<path fill-rule="evenodd" clip-rule="evenodd" d="M348.185 1.98651C335.888 -0.838881 322.856 -0.18931 307.908 1.10769L61.7824 19.4822L61.5904 19.4969L61.459 19.5078C46.029 20.8632 32.37 27.1506 23.121 39.1599C14.4013 50.4814 12 63.8022 12 74.9404V348.014C12 367.649 19.4888 383.288 31.5785 399.623L31.7723 399.879L89.7367 476.12L89.8101 476.215C96.3914 484.701 104.432 492.043 115.735 496.225C126.186 500.092 137 500.293 146.936 499.813L147.02 499.809L147.177 499.8L147.253 499.796L433.252 482.287L433.303 482.284L433.436 482.275L433.517 482.27C448.807 481.169 464.24 476.661 475.101 464.16C485.703 451.959 487.694 436.935 487.694 425.047V117.831C487.694 108.11 485.351 98.6341 477.959 89.9565C473.589 84.8263 467.561 80.3871 462.902 76.9554L462.351 76.5496C461.668 76.0456 461.001 75.5537 460.339 75.0625L460.197 74.9568L459.961 74.7882L381.488 18.8742C371.335 11.4076 361.321 5.00502 348.185 1.98651Z" fill="white"/>
<path fill-rule="evenodd" clip-rule="evenodd" d="M309.904 25.9322L63.6284 44.3172C43.7692 46.0606 36.8488 59.1944 36.8488 74.9395V348.013C36.8488 360.281 41.1626 370.768 51.537 384.783L109.43 460.93C118.938 473.19 127.581 475.814 145.739 474.936L431.736 457.428C455.927 455.686 462.846 444.299 462.846 425.046V117.83C462.846 107.878 458.961 105.003 447.509 96.5273C446.879 96.0604 446.225 95.5772 445.55 95.0754L366.935 39.0622C347.927 25.063 340.146 23.3022 309.904 25.9322ZM152.223 112.792C128.873 114.389 123.567 114.753 110.307 103.832L76.587 76.7003C73.148 73.1924 74.8725 68.8153 83.5074 67.9473L320.274 50.4414C340.142 48.6869 350.509 55.7002 358.291 61.8231L398.9 91.5849C400.628 92.4566 404.942 97.7016 399.756 97.7016L155.237 112.586L152.223 112.792ZM124.988 422.415V161.6C124.988 150.224 128.444 144.969 138.807 144.086L419.627 127.462C429.152 126.587 433.466 132.718 433.466 144.086V403.151C433.466 414.537 431.734 424.178 416.173 425.046L147.45 440.809C131.898 441.675 124.988 436.433 124.988 422.415ZM390.272 175.591C391.995 183.476 390.272 191.354 382.481 192.241L369.532 194.856V387.406C358.291 393.531 347.924 397.033 339.286 397.033C325.455 397.033 321.991 392.653 311.632 379.532L226.94 244.746V375.155L253.739 381.286C253.739 381.286 253.739 397.033 232.117 397.033L172.511 400.538C170.779 397.033 172.511 388.287 178.557 386.535L194.111 382.164V209.74L172.513 207.986C170.783 200.101 175.095 188.731 187.202 187.85L251.146 183.48L339.286 320.021V199.232L316.814 196.618C315.088 186.978 321.991 179.979 330.634 179.111L390.272 175.591Z" fill="black"/>
</svg>
