<svg xmlns="http://www.w3.org/2000/svg" viewBox="0 0 475.694 500">
  <path fill="#fff" fill-rule="evenodd" d="M336.185 1.987c-12.297-2.826-25.329-2.176-40.277-.879L49.782 19.482l-.192.015-.131.011c-15.43 1.355-29.089 7.643-38.338 19.652C2.401 50.481 0 63.802 0 74.94v273.074c0 19.635 7.489 35.274 19.578 51.609l.194.256 57.965 76.241.073.095c6.581 8.486 14.622 15.828 25.925 20.01 10.451 3.867 21.265 4.068 31.201 3.588l.084-.004.157-.009.076-.004 285.999-17.509.051-.003.133-.009.081-.005c15.29-1.101 30.723-5.609 41.584-18.11 10.602-12.201 12.593-27.225 12.593-39.113V117.831c0-9.721-2.343-19.197-9.735-27.874-4.37-5.131-10.398-9.57-15.057-13.002l-.551-.405c-.683-.504-1.35-.996-2.012-1.487l-.142-.106-.236-.169-78.473-55.914c-10.153-7.466-20.167-13.869-33.303-16.887Z" clip-rule="evenodd"/>
  <path fill-rule="evenodd" d="M297.904 25.932 51.628 44.317C31.769 46.061 24.849 59.194 24.849 74.94v273.073c0 12.268 4.314 22.755 14.688 36.77L97.43 460.93c9.508 12.26 18.151 14.884 36.309 14.006l285.997-17.508c24.191-1.742 31.11-13.129 31.11-32.382V117.83c0-9.952-3.885-12.827-15.337-21.303-.63-.467-1.284-.95-1.959-1.452l-78.615-56.013c-19.008-13.999-26.789-15.76-57.031-13.13Zm-157.681 86.86c-23.35 1.597-28.656 1.961-41.916-8.96L64.587 76.7c-3.439-3.508-1.715-7.885 6.92-8.753l236.767-17.506c19.868-1.754 30.235 5.259 38.017 11.382L386.9 91.585c1.728.872 6.042 6.117.856 6.117l-244.519 14.884-3.014.206Zm-27.235 309.623V161.6c0-11.376 3.456-16.631 13.819-17.514l280.82-16.624c9.525-.875 13.839 5.256 13.839 16.624v259.065c0 11.386-1.732 21.027-17.293 21.895L135.45 440.809c-15.552.866-22.462-4.376-22.462-18.394Zm265.284-246.824c1.723 7.885 0 15.763-7.791 16.65l-12.949 2.615v192.55c-11.241 6.125-21.608 9.627-30.246 9.627-13.831 0-17.295-4.38-27.654-17.501L214.94 244.746v130.409l26.799 6.131s0 15.747-21.622 15.747l-59.606 3.505c-1.732-3.505 0-12.251 6.046-14.003l15.554-4.371V209.74l-21.598-1.754c-1.73-7.885 2.582-19.255 14.689-20.136l63.944-4.37 88.14 136.541V199.232l-22.472-2.614c-1.726-9.64 5.177-16.639 13.82-17.507l59.638-3.52Z" clip-rule="evenodd"/>
</svg>
