<svg xmlns="http://www.w3.org/2000/svg" viewBox="0 0 500 275.86">
  <path fill="#820ad1" d="M90.259 26.315C106.067 9.703 127.042 0 151.682 0c48.002 0 79.826 35.047 85.915 87.549 1.974 17.05 1.955 41.089 1.936 68.931-.003 2.854-.003 5.75-.003 8.681v104.303h-66.011V192.32s-.133-66.025-.539-78.365c-1.771-53.745-33.588-87.515-82.729-87.549-14.825 15.663-22.769 34.816-23.942 64.101-.161 4.084-.12 18.562-.067 37.642.029 9.886.059 21.008.067 32.561.049 50.284 0 108.766 0 108.766H.299V150.749c0-4.067-.075-8.169-.149-12.289-.15-8.286-.3-16.633.149-24.902.745-13.78 3.129-27.33 9.561-39.915 14.721-28.834 44.883-47.4 77.039-47.4 1.123 0 2.247.027 3.36.07v.002Zm409.442 135.989c.449-8.267.299-16.618.149-24.902-.076-4.12-.149-8.222-.149-12.289V6.386h-66.01s-.049 58.482 0 108.764c.008 11.553.038 22.675.067 32.561.053 19.084.094 33.56-.067 37.644-1.171 29.285-9.115 48.438-23.942 64.103-49.139-.036-80.956-33.808-82.728-87.551-.403-12.338-.574-42.961-.574-78.425V6.337l-65.962.059v104.303l-.003 8.683c-.021 27.842-.038 51.88 1.936 68.93 6.076 52.503 37.902 87.548 85.902 87.548 24.64 0 45.615-9.703 61.425-26.313 1.111.042 2.234.068 3.358.068 32.154 0 62.318-18.564 77.039-47.397 6.43-12.587 8.814-26.135 9.56-39.918l-.001.004Z" class="Path-xrtkpd-0 eqfYiR"/>
</svg>
