<?xml version="1.0" encoding="UTF-8"?>
<!DOCTYPE svg PUBLIC "-//W3C//DTD SVG 1.1//EN" "http://www.w3.org/Graphics/SVG/1.1/DTD/svg11.dtd">
<svg xmlns="http://www.w3.org/2000/svg" version="1.1" width="900px" height="900px" style="shape-rendering:geometricPrecision; text-rendering:geometricPrecision; image-rendering:optimizeQuality; fill-rule:evenodd; clip-rule:evenodd" xmlns:xlink="http://www.w3.org/1999/xlink">
<g><path style="opacity:1" fill="#fefefe" d="M -0.5,-0.5 C 299.5,-0.5 599.5,-0.5 899.5,-0.5C 899.5,299.5 899.5,599.5 899.5,899.5C 599.5,899.5 299.5,899.5 -0.5,899.5C -0.5,599.5 -0.5,299.5 -0.5,-0.5 Z"/></g>
<g><path style="opacity:1" fill="#e0a5fc" d="M 297.5,264.5 C 309.66,263.34 321.993,263.173 334.5,264C 337.457,264.279 340.123,265.113 342.5,266.5C 327.57,264.717 312.57,264.051 297.5,264.5 Z"/></g>
<g><path style="opacity:1" fill="#8f02d8" d="M 297.5,264.5 C 312.57,264.051 327.57,264.717 342.5,266.5C 369.173,272.584 390.673,286.584 407,308.5C 421.104,329.299 429.604,352.299 432.5,377.5C 432.334,383.509 432.501,389.509 433,395.5C 433.21,397.058 433.71,398.391 434.5,399.5C 434.5,406.5 434.5,413.5 434.5,420.5C 434.5,421.5 434.5,422.5 434.5,423.5C 433.71,422.391 433.21,421.058 433,419.5C 432.5,487.833 432.333,556.166 432.5,624.5C 404.167,624.5 375.833,624.5 347.5,624.5C 347.832,575.997 347.499,527.664 346.5,479.5C 346.829,464.99 346.496,450.657 345.5,436.5C 347.595,406.902 342.095,378.902 329,352.5C 307.252,317.035 275.419,299.368 233.5,299.5C 233.5,299.167 233.5,298.833 233.5,298.5C 250.906,279.797 272.24,268.463 297.5,264.5 Z"/></g>
<g><path style="opacity:1" fill="#e2aefc" d="M 464.5,272.5 C 494.329,271.502 524.329,271.169 554.5,271.5C 554.5,330.167 554.5,388.833 554.5,447.5C 554.5,452.833 554.5,458.167 554.5,463.5C 553.501,400.002 553.168,336.336 553.5,272.5C 523.833,272.5 494.167,272.5 464.5,272.5 Z"/></g>
<g><path style="opacity:1" fill="#c47ceb" d="M 789.5,272.5 C 759.662,272.169 729.995,272.502 700.5,273.5C 700.667,355.501 700.5,437.501 700,519.5C 699.819,522.695 699.319,525.695 698.5,528.5C 699.467,442.842 699.801,357.175 699.5,271.5C 729.671,271.169 759.671,271.502 789.5,272.5 Z"/></g>
<g><path style="opacity:1" fill="#f9fff3" d="M 790.5,489.5 C 790.5,417.167 790.5,344.833 790.5,272.5C 791.341,271.991 791.841,272.657 792,274.5C 792.667,345.167 792.667,415.833 792,486.5C 791.667,489.5 791.333,492.5 791,495.5C 790.505,493.527 790.338,491.527 790.5,489.5 Z"/></g>
<g><path style="opacity:1" fill="#fedffe" d="M 789.5,272.5 C 789.833,272.5 790.167,272.5 790.5,272.5C 790.5,344.833 790.5,417.167 790.5,489.5C 789.833,492.167 789.167,494.833 788.5,497.5C 789.469,422.51 789.802,347.51 789.5,272.5 Z"/></g>
<g><path style="opacity:1" fill="#eb99fb" d="M 464.5,272.5 C 464.168,339.002 464.501,405.335 465.5,471.5C 465.5,480.5 465.5,489.5 465.5,498.5C 464.672,492.347 464.172,486.013 464,479.5C 463.168,410.332 463.335,341.332 464.5,272.5 Z"/></g>
<g><path style="opacity:1" fill="#8113b9" d="M 464.5,272.5 C 494.167,272.5 523.833,272.5 553.5,272.5C 553.168,336.336 553.501,400.002 554.5,463.5C 554.334,472.173 554.5,480.84 555,489.5C 555.183,492.365 555.683,495.031 556.5,497.5C 557.067,504.237 558.067,510.904 559.5,517.5C 558.069,517.119 557.236,516.119 557,514.5C 555.425,506.905 554.259,499.238 553.5,491.5C 552.5,418.836 552.167,346.17 552.5,273.5C 523.5,273.5 494.5,273.5 465.5,273.5C 465.5,339.5 465.5,405.5 465.5,471.5C 464.501,405.335 464.168,339.002 464.5,272.5 Z"/></g>
<g><path style="opacity:1" fill="#8f02d8" d="M 559.5,517.5 C 567.209,549.077 585.209,572.91 613.5,589C 621.878,592.737 630.545,595.571 639.5,597.5C 641.515,598.924 643.848,599.59 646.5,599.5C 652.509,599.701 658.509,600.034 664.5,600.5C 664.833,601.167 665.167,601.833 665.5,602.5C 652.044,616.271 636.044,625.937 617.5,631.5C 613.313,632.213 609.313,633.213 605.5,634.5C 604.167,634.5 602.833,634.5 601.5,634.5C 584.03,635.144 566.696,634.144 549.5,631.5C 522.738,623.576 502.238,607.576 488,583.5C 473.799,557.033 466.299,528.699 465.5,498.5C 465.5,489.5 465.5,480.5 465.5,471.5C 465.5,405.5 465.5,339.5 465.5,273.5C 494.5,273.5 523.5,273.5 552.5,273.5C 552.167,346.17 552.5,418.836 553.5,491.5C 554.259,499.238 555.425,506.905 557,514.5C 557.236,516.119 558.069,517.119 559.5,517.5 Z"/></g>
<g><path style="opacity:1" fill="#8f01d8" d="M 700.5,273.5 C 730.005,273.169 759.338,273.502 788.5,274.5C 787.167,309.327 786.5,344.494 786.5,380C 786.5,415.506 787.167,450.673 788.5,485.5C 787.326,491.399 786.659,497.399 786.5,503.5C 786.5,505.167 786.5,506.833 786.5,508.5C 775.375,553.295 747.708,582.629 703.5,596.5C 699.521,596.742 695.854,597.742 692.5,599.5C 684.181,600.124 675.848,600.457 667.5,600.5C 685.44,579.935 695.774,555.935 698.5,528.5C 699.319,525.695 699.819,522.695 700,519.5C 700.5,437.501 700.667,355.501 700.5,273.5 Z"/></g>
<g><path style="opacity:1" fill="#9700e9" d="M 788.5,274.5 C 788.5,344.833 788.5,415.167 788.5,485.5C 787.167,450.673 786.5,415.506 786.5,380C 786.5,344.494 787.167,309.327 788.5,274.5 Z"/></g>
<g><path style="opacity:1" fill="#7c10b7" d="M 700.5,273.5 C 729.995,272.502 759.662,272.169 789.5,272.5C 789.802,347.51 789.469,422.51 788.5,497.5C 787.833,499.5 787.167,501.5 786.5,503.5C 786.659,497.399 787.326,491.399 788.5,485.5C 788.5,415.167 788.5,344.833 788.5,274.5C 759.338,273.502 730.005,273.169 700.5,273.5 Z"/></g>
<g><path style="opacity:1" fill="#e0b2f7" d="M 214.5,299.5 C 220.645,298.51 226.978,298.177 233.5,298.5C 233.5,298.833 233.5,299.167 233.5,299.5C 232.833,299.833 232.167,300.167 231.5,300.5C 226.025,299.511 220.358,299.178 214.5,299.5 Z"/></g>
<g><path style="opacity:1" fill="#bb82dc" d="M 203.5,301.5 C 201.485,302.924 199.152,303.59 196.5,303.5C 198.515,302.076 200.848,301.41 203.5,301.5 Z"/></g>
<g><path style="opacity:1" fill="#8f01d8" d="M 214.5,299.5 C 220.358,299.178 226.025,299.511 231.5,300.5C 214.94,317.802 205.273,338.469 202.5,362.5C 201.693,366.021 201.026,369.688 200.5,373.5C 199.833,374.5 199.167,375.5 198.5,376.5C 196.503,458.827 195.836,541.493 196.5,624.5C 168.167,624.5 139.833,624.5 111.5,624.5C 111.5,552.833 111.5,481.167 111.5,409.5C 111.5,408.833 111.5,408.167 111.5,407.5C 111.646,403.481 111.979,399.481 112.5,395.5C 113.768,393.095 114.435,390.428 114.5,387.5C 121.985,358.168 138.319,335.001 163.5,318C 173.533,310.984 184.533,306.151 196.5,303.5C 199.152,303.59 201.485,302.924 203.5,301.5C 207.221,301.089 210.888,300.422 214.5,299.5 Z"/></g>
<g><path style="opacity:1" fill="#9500e4" d="M 198.5,376.5 C 198.5,459.833 198.5,543.167 198.5,626.5C 169.147,627.159 140.147,626.492 111.5,624.5C 139.833,624.5 168.167,624.5 196.5,624.5C 195.836,541.493 196.503,458.827 198.5,376.5 Z"/></g>
<g><path style="opacity:1" fill="#7d10b7" d="M 200.5,373.5 C 199.513,458.149 199.18,542.815 199.5,627.5C 169.833,627.5 140.167,627.5 110.5,627.5C 110.167,554.665 110.501,481.998 111.5,409.5C 111.5,481.167 111.5,552.833 111.5,624.5C 140.147,626.492 169.147,627.159 198.5,626.5C 198.5,543.167 198.5,459.833 198.5,376.5C 199.167,375.5 199.833,374.5 200.5,373.5 Z"/></g>
<g><path style="opacity:1" fill="#a456d2" d="M 432.5,377.5 C 434.105,384.603 434.772,391.937 434.5,399.5C 433.71,398.391 433.21,397.058 433,395.5C 432.501,389.509 432.334,383.509 432.5,377.5 Z"/></g>
<g><path style="opacity:1" fill="#d898f7" d="M 114.5,387.5 C 114.435,390.428 113.768,393.095 112.5,395.5C 112.294,392.505 112.96,389.838 114.5,387.5 Z"/></g>
<g><path style="opacity:1" fill="#fccbfe" d="M 111.5,407.5 C 111.5,408.167 111.5,408.833 111.5,409.5C 110.501,481.998 110.167,554.665 110.5,627.5C 140.167,627.5 169.833,627.5 199.5,627.5C 169.671,628.498 139.671,628.831 109.5,628.5C 109.333,555.166 109.5,481.833 110,408.5C 110.383,407.944 110.883,407.611 111.5,407.5 Z"/></g>
<g><path style="opacity:1" fill="#8313bf" d="M 434.5,420.5 C 435.499,489.331 435.833,558.331 435.5,627.5C 405.833,627.5 376.167,627.5 346.5,627.5C 346.5,578.167 346.5,528.833 346.5,479.5C 347.499,527.664 347.832,575.997 347.5,624.5C 376.147,626.492 405.147,627.159 434.5,626.5C 434.5,558.833 434.5,491.167 434.5,423.5C 434.5,422.5 434.5,421.5 434.5,420.5 Z"/></g>
<g><path style="opacity:1" fill="#e6b9fc" d="M 434.5,399.5 C 435.327,404.651 435.827,409.984 436,415.5C 436.832,486.335 436.665,557.001 435.5,627.5C 435.833,558.331 435.499,489.331 434.5,420.5C 434.5,413.5 434.5,406.5 434.5,399.5 Z"/></g>
<g><path style="opacity:1" fill="#c48ee5" d="M 202.5,362.5 C 202.271,369.515 201.771,376.515 201,383.5C 200.833,465.001 200.333,546.334 199.5,627.5C 199.18,542.815 199.513,458.149 200.5,373.5C 201.026,369.688 201.693,366.021 202.5,362.5 Z"/></g>
<g><path style="opacity:1" fill="#9800e9" d="M 434.5,423.5 C 434.5,491.167 434.5,558.833 434.5,626.5C 405.147,627.159 376.147,626.492 347.5,624.5C 375.833,624.5 404.167,624.5 432.5,624.5C 432.333,556.166 432.5,487.833 433,419.5C 433.21,421.058 433.71,422.391 434.5,423.5 Z"/></g>
<g><path style="opacity:1" fill="#fde2ff" d="M 554.5,447.5 C 555.97,463.978 556.637,480.645 556.5,497.5C 555.683,495.031 555.183,492.365 555,489.5C 554.5,480.84 554.334,472.173 554.5,463.5C 554.5,458.167 554.5,452.833 554.5,447.5 Z"/></g>
<g><path style="opacity:1" fill="#e6b4fd" d="M 788.5,497.5 C 788.749,501.458 788.082,505.124 786.5,508.5C 786.5,506.833 786.5,505.167 786.5,503.5C 787.167,501.5 787.833,499.5 788.5,497.5 Z"/></g>
<g><path style="opacity:1" fill="#e6b5fa" d="M 703.5,596.5 C 700.146,598.258 696.479,599.258 692.5,599.5C 695.854,597.742 699.521,596.742 703.5,596.5 Z"/></g>
<g><path style="opacity:1" fill="#d196ef" d="M 639.5,597.5 C 642.152,597.41 644.485,598.076 646.5,599.5C 643.848,599.59 641.515,598.924 639.5,597.5 Z"/></g>
<g><path style="opacity:1" fill="#eebef9" d="M 692.5,599.5 C 683.638,600.905 674.638,601.905 665.5,602.5C 665.167,601.833 664.833,601.167 664.5,600.5C 665.5,600.5 666.5,600.5 667.5,600.5C 675.848,600.457 684.181,600.124 692.5,599.5 Z"/></g>
<g><path style="opacity:1" fill="#e8b7fd" d="M 345.5,436.5 C 346.496,450.657 346.829,464.99 346.5,479.5C 346.5,528.833 346.5,578.167 346.5,627.5C 376.167,627.5 405.833,627.5 435.5,627.5C 405.671,628.498 375.671,628.831 345.5,628.5C 345.5,564.5 345.5,500.5 345.5,436.5 Z"/></g>
<g><path style="opacity:1" fill="#eeccfd" d="M 617.5,631.5 C 614.032,634.114 610.032,635.114 605.5,634.5C 609.313,633.213 613.313,632.213 617.5,631.5 Z"/></g>
<g><path style="opacity:1" fill="#902eca" d="M 549.5,631.5 C 566.696,634.144 584.03,635.144 601.5,634.5C 598.375,635.479 595.042,635.813 591.5,635.5C 581.461,635.758 571.461,635.424 561.5,634.5C 557.098,634.692 553.098,633.692 549.5,631.5 Z"/></g>
<g><path style="opacity:1" fill="#e2b3f9" d="M 561.5,634.5 C 571.461,635.424 581.461,635.758 591.5,635.5C 582.009,636.658 572.342,636.825 562.5,636C 561.944,635.617 561.611,635.117 561.5,634.5 Z"/></g>
</svg>
