<svg xmlns="http://www.w3.org/2000/svg" viewBox="0 0 19.42 25"><path fill="#a88bfa" d="M6.92 14.6c.64-.2 1.67-.49 2.86-.56a10.2 10.2 0 0 1-.75-4.77c.16-1.62.73-2.97 1.29-4.11a51.34 51.34 0 0 1 .78-1.6c.22-.48.4-.91.48-1.32.08-.4.08-.74-.02-1.08-.1-.34-.3-.7-.7-1.1a1.67 1.67 0 0 0-1.54.37L4.16 5.07c-.29.25-.48.6-.53.99L3.18 9a14.58 14.58 0 0 1 3.74 5.58zm-3.95-4.25a1.67 1.67 0 0 1-.1.3L.15 16.73a1.67 1.67 0 0 0 .32 1.84L4.76 23a8.66 8.66 0 0 0 .87-8.65c-.76-1.8-1.9-3.2-2.66-3.99Zm2.78 13.16.23.02c.81.03 2.18.1 3.3.3.9.17 2.7.67 4.17 1.1 1.13.33 2.29-.57 2.45-1.73.12-.85.34-1.81.76-2.69h-.01a9.24 9.24 0 0 0-2.52-4 5.51 5.51 0 0 0-2.9-1.31c-1.6-.23-3.07.2-4 .47a9.65 9.65 0 0 1-1.48 7.84Zm11.62-4.2a71.84 71.84 0 0 0 1.94-3.08.84.84 0 0 0-.07-.93 18.1 18.1 0 0 1-2.12-3.5c-.58-1.38-.67-3.53-.67-4.57a1.78 1.78 0 0 0-.37-1.1l-3.34-4.22c0 .19-.04.38-.08.56a7.43 7.43 0 0 1-.55 1.56l-.47.96-.32.65a10.92 10.92 0 0 0-1.18 3.74 9.17 9.17 0 0 0 .85 4.67 7.3 7.3 0 0 1 .4.04 6.63 6.63 0 0 1 3.47 1.57c.95.83 1.81 2 2.51 3.65z"/></svg>
