<svg xmlns="http://www.w3.org/2000/svg" viewBox="0 0 500 500">
  <defs>
    <linearGradient id="a" x1="0" x2="1" y1="0" y2="0" gradientTransform="rotate(45.043 -14.606 34.73) scale(128.4643)" gradientUnits="userSpaceOnUse">
      <stop offset="0" stop-color="#2e79ef"/>
      <stop offset="1" stop-color="#389d93"/>
    </linearGradient>
    <linearGradient id="b" x1="0" x2="1" y1="0" y2="0" gradientTransform="rotate(-90 191.946 -57.554) scale(132.907)" gradientUnits="userSpaceOnUse">
      <stop offset="0" stop-color="#fbb94b"/>
      <stop offset="1" stop-color="#fc7e27"/>
    </linearGradient>
    <linearGradient id="c" x1="0" x2="1" y1="0" y2="0" gradientTransform="rotate(-62.181 250.835 -202.634) scale(119.902)" gradientUnits="userSpaceOnUse">
      <stop offset="0" stop-color="#fdaf60"/>
      <stop offset="1" stop-color="#ab82d5"/>
    </linearGradient>
    <linearGradient id="d" x1="0" x2="1" y1="0" y2="0" gradientTransform="rotate(45.043 168.839 476.151) scale(130.8827)" gradientUnits="userSpaceOnUse">
      <stop offset="0" stop-color="#fc9aa2"/>
      <stop offset="1" stop-color="#7269fe"/>
    </linearGradient>
    <linearGradient id="e" x1="0" x2="1" y1="0" y2="0" gradientTransform="translate(141.309 66.467) scale(66.239)" gradientUnits="userSpaceOnUse">
      <stop offset="0" stop-color="#87b391"/>
      <stop offset="1" stop-color="#dfb962"/>
    </linearGradient>
  </defs>
  <path stroke="#000" d="M0 0h500v500H0z"/>
  <path fill="url(#a)" d="M66.25.299c36.803.028 66.576 29.747 66.549 66.247-.027 36.606-29.845 66.183-66.549 66.155-36.796.071-66.577-29.648-66.549-66.254C-.272 29.947 29.553.272 66.25.299Z" transform="matrix(-.00052 .70126 .70126 .00052 74.86 203.507)"/>
  <path fill="url(#b)" d="M216.401 0h66.197v133.099h-66.197z" transform="matrix(.70126 0 0 -.70126 75.035 296.669)"/>
  <path fill="url(#c)" d="M291.5 66.599c0-36.704 29.598-66.5 66.197-66.5v133c-36.5 0-66.197-29.802-66.197-66.5Z" transform="matrix(.70126 0 0 -.70126 75.035 296.738)"/>
  <path fill="url(#d)" d="M432.75.398c36.803-.071 66.577 29.648 66.549 66.254-.027 36.598-29.845 66.174-66.549 66.147-36.796-.027-66.576-29.747-66.549-66.246C366.228 29.947 396.053.371 432.75.398Z" transform="matrix(-.00052 .70126 .70126 .00052 332.064 -53.506)"/>
  <path fill="url(#e)" d="M141.303 0h.222c36.325.12 65.856 29.755 65.975 66.277v.446C207.381 103.319 177.827 133 141.303 133V0Z" transform="matrix(.70126 0 0 -.70126 75.035 296.599)"/>
</svg>
