<svg xmlns="http://www.w3.org/2000/svg" width="1030.04" height="1030.04"><path d="M622.291 630.397L834.904 427.07C790.74 254.863 615.337 151.063 443.13 195.227a321.9 321.9 0 00-188.92 134.837c3.29-.083 368.082 300.333 368.082 300.333z" fill="#0364b8"/><path d="M392.775 368.342l-.01.035a256.233 256.233 0 00-135.267-38.397c-1.104 0-2.189.07-3.29.083C112.062 331.824-1.742 448.483.018 590.626a257.389 257.389 0 0046.244 144.04l318.528-39.894 244.21-196.915z" fill="#0078d4"/><path d="M834.904 427.071c-4.674-.312-9.37-.528-14.123-.528a208.464 208.464 0 00-82.93 17.117l-.006-.022-128.844 54.22 142.041 175.456 253.934 61.728c54.8-101.732 16.752-228.625-84.98-283.424a209.23 209.23 0 00-85.09-24.546z" fill="#1490df"/><path d="M46.263 734.666c48.095 69.15 127.006 110.36 211.236 110.315H820.78c76.946.022 147.691-42.202 184.195-109.937L609 497.857z" fill="#28a8ea"/></svg>