<svg xmlns="http://www.w3.org/2000/svg" viewBox="0 0 90 90"><path fill="#91CE9B" d="M40.788.151c-4.777.37-10.645 2.047-15.472 4.39C11.206 11.375 1.896 24.596.189 40.158c-.148 1.407-.223 2.59-.174 2.638.05.05.816-.862 1.733-2.047 6.783-9.003 17.95-14.947 29.164-15.538l2.648-.148.544-.937c.298-.542 1.163-1.825 1.956-2.885 6.734-9.053 16.636-14.626 28.37-15.983l1.485-.173-2.104-.963C56.906.916 48.835-.489 40.788.151z"/><path fill="#79B743" d="M64.39 7.143C53.281 8.3 43.1 14.25 36.744 23.273l-1.251 1.77 1.676.172c4.477.443 9.656 1.894 13.835 3.885 5.754 2.754 11.633 7.622 15.086 12.565.45.615.875 1.132.95 1.132.275 0 2.176-4.279 2.928-6.639 1.35-4.155 1.652-6.294 1.652-11.31 0-6.22-.901-10.449-3.404-15.809-.824-1.745-1.126-2.138-1.55-2.115-.299.024-1.3.121-2.276.22z"/><path fill="#D6E029" d="M69.467 6.936c0 .075.266.67.58 1.313.898 1.835 2.277 6.025 2.86 8.827.46 2.156.532 3.248.532 7.836 0 4.587-.074 5.677-.533 7.859-.727 3.471-1.792 6.645-3.244 9.694l-1.211 2.53 1.09 2.306c1.404 2.9 2.688 6.72 3.365 9.942.461 2.157.533 3.249.533 7.836s-.074 5.677-.533 7.836c-.58 2.802-1.961 6.992-2.858 8.826-.315.644-.58 1.24-.58 1.313 0 .299 3.583-2.405 5.714-4.315 2.664-2.379 5.206-5.38 7.436-8.777 6.612-10.065 8.937-22.859 6.346-34.784C86.541 24.169 80.27 14.574 71.213 8.03c-.973-.699-1.746-1.195-1.746-1.094z"/><path fill="#58B28D" d="M29.159 27.3c-4.105.468-9.175 1.945-12.884 3.816-4.674 2.315-10.238 6.97-13.256 11.057-1.83 2.437-1.954 2.708-1.583 3.399.717 1.33 3.017 4.136 5.093 6.23 6.134 6.18 14.046 9.949 23.073 10.959 1.41.147 2.596.221 2.67.147.076-.05-.32-1.157-.864-2.413-2.226-5.195-3.09-9.579-3.067-15.612 0-5.788.816-10.022 2.969-15.12.47-1.157.916-2.265.988-2.438.15-.345-.295-.345-3.14-.025z"/><path fill="#A1DBE6" d="M0 47.422c0 .147.124 1.33.272 2.66 1.087 9.903 5.392 19.042 12.417 26.334C18.947 82.92 27.9 87.675 36.878 89.3c9.003 1.626 18.797.395 26.936-3.4l2.101-.962-1.483-.172c-11.723-1.356-21.617-6.922-28.344-15.963-.792-1.06-1.657-2.34-1.954-2.882l-.544-.936-2.77-.147c-7.964-.444-16.224-3.671-22.532-8.794-2.276-1.848-5.418-5.125-6.901-7.218C.197 47.15 0 46.955 0 47.422z"/><path fill="#79B743" d="M65.521 49.098c-1.8 2.456-5.325 5.941-8 7.881-5.676 4.15-11.877 6.63-19.027 7.611l-3.001.417 1.05 1.472c6.899 9.724 16.726 15.272 29.125 16.451l1.526.147 1-2.161c2.5-5.304 3.424-9.552 3.424-15.665.026-4.936-.324-7.341-1.625-11.344-.774-2.431-2.674-6.704-2.95-6.704-.072.03-.771.864-1.522 1.895z"/></svg>