<svg width="1251" height="1942" viewBox="0 0 1251 1942" xmlns="http://www.w3.org/2000/svg"><g fillRule="nonzero" fill="none"><path d="M235.91 1333.56c53.54 32.86 786.2 484.26 786.2 484.26s76.62 60 153.83 22.79c77.21-37.21 74.06-112.61 74.06-122.49v-997s2.85-59.82-22.79-113.94c-28.91-61-68.27-93.36-111.09-119.64-42.82-26.28-743.48-458.62-743.48-458.62s-62.29-49.27-136.73-17.09C161.47 44.01 159 115.52 159 134.32v1078.14c.52 16.25 2.43 37.81 8.55 49.89 10.68 21.09 14.82 38.35 68.36 71.21zM487 487.37l436 267.87v607l-436-265V487.37z" fill="#26ABFF"/><path d="M0 1299.37c.52 16.25 2.43 39.2 8.55 51.27 10.68 21.1 14.82 38.36 68.36 71.22s786.2 484.25 786.2 484.25 76.62 60.06 153.83 22.79c77.21-37.27 74.06-112.61 74.06-122.49v-997s2.85-59.82-22.79-113.95c-28.91-61-68.27-93.36-111.09-119.64-42.82-26.28-743.48-458.6-743.48-458.6S151.35 68 76.91 100.12 0 203.82 0 222.61v1076.76zm327-723.71l436 267.87v607l-436-265V575.66z" fill="#F50049"/></g></svg>