<svg width="500" height="500" viewBox="0 0 500 500" fill="none" xmlns="http://www.w3.org/2000/svg">
<g clip-path="url(#clip0_203_147)">
<path d="M395.978 115C395.978 176.933 338.822 250 252.345 250H169.045L164.956 275.8L145.522 400H42.0002L104.278 0H272C328.478 0 372.911 31.4778 389.278 75.2222C393.998 87.9408 396.271 101.437 395.978 115Z" fill="#002991"/>
<path d="M455.645 230C450.119 263.571 432.827 294.081 406.862 316.067C380.898 338.054 347.956 350.082 313.933 350H256.089L232.011 500H129.045L145.522 400L164.967 275.8L169.045 250H252.345C338.711 250 395.978 176.933 395.978 115C438.478 136.933 463.256 181.256 455.645 230Z" fill="#60CDFF"/>
<path d="M395.978 115C378.156 105.678 356.545 100 333.022 100H192.578L169.045 250H252.345C338.711 250 395.978 176.933 395.978 115Z" fill="#008CFF"/>
</g>
<defs>
<clipPath id="clip0_203_147">
<rect width="500" height="500" fill="white"/>
</clipPath>
</defs>
</svg>
