<?xml version="1.0" encoding="UTF-8"?>
<!-- Generator: Adobe Illustrator 26.3.1, SVG Export Plug-In . SVG Version: 6.00 Build 0)  -->
<svg version="1.1" id="Layer_1" xmlns="http://www.w3.org/2000/svg" xmlns:xlink="http://www.w3.org/1999/xlink" x="0px" y="0px" viewBox="0 0 160.5 95.1" style="enable-background:new 0 0 160.5 95.1;" xml:space="preserve">
<style type="text/css">
	.st0{fill:#FFFFFF;}
</style>
<path class="st0" d="M152,47.7c2.3-2.3,4.5-5,5.9-8.1c8-18.1-3.6-37.8-23.4-38.5h-51v19.7h48.4c5,0,8.7,3.6,8.8,8.3  c0.1,4.9-3.1,8.3-8.3,8.7c-1,0.1-48.8,0-48.8,0v56.3h51c19.8-0.7,31.4-20.4,23.4-38.5C156.6,52.7,154.4,50,152,47.7z M131.9,74.5  h-28.5v-17c13.3,0,28.5,0,29,0c5.2,0.4,8.5,3.8,8.3,8.7C140.5,70.9,136.9,74.5,131.9,74.5z"/>
<path class="st0" d="M20.8,67.3V94H1.3V64c0.3-15,10.2-25.2,25.3-26.1c7.6-0.4,15.2-0.1,22.8-0.2c4.4-0.1,7.7-2.3,8.7-5.8  c1-3.7,0.1-6.9-2.9-9.4c-1.6-1.3-3.5-1.9-5.6-1.8H29V1.1h19.2c4.3,0,6.1,0.4,8.4,0.9c13.7,2.7,21.6,13.3,21.3,28.3  c-0.3,14.1-9.2,24.4-22.8,26.3c-8.2,1.2-16.4,0.4-24.7,0.6c-6.2,0.1-9.6,3-9.6,9.3L20.8,67.3z"/>
<rect x="1.2" y="1.3" class="st0" width="19.5" height="19.5"/>
</svg>