<svg xmlns="http://www.w3.org/2000/svg" viewBox="0 0 1024 1024">
   <circle cx="512" cy="512" r="512" style="fill:#1ebcc5"/>
   <path d="M550.35 470.76a16.57 16.57 0 0 1-16.56 16.57h-41.57V454.2h41.56a16.56 16.56 0 0 1 16.57 16.56Zm92.14 17.67a132 132 0 1 1-132-132 132 132 0 0 1 131.99 132Zm-52.81-17.69a56 56 0 0 0-56.06-56h-62.5A21.28 21.28 0 0 0 449.83 436v115.42a21.28 21.28 0 1 0 42.56 0v-24.56h41.22v-.08a56.05 56.05 0 0 0 56.06-56.04ZM805.06 583.1a94.06 94.06 0 0 1-92.18 94v.16H358.36a139.36 139.36 0 0 1-17.51-277.62 187.32 187.32 0 0 0-17.08 78c0 1.52.14 3 .18 4.53 3.58-100.84 86.4-181.49 188.1-181.49 102 0 185 81.11 188.11 182.33.07-1.79.16-3.57.16-5.37a185.38 185.38 0 0 0-16.94-77.76 78.53 78.53 0 0 1 45.7 147.8 79.17 79.17 0 0 0 40.82-37.94 93.92 93.92 0 0 1 35.16 73.36Zm-143-94.45a151.53 151.53 0 1 0-151.49 151.54 151.52 151.52 0 0 0 151.52-151.53Z" style="fill:#fff"/>
</svg>
