<?xml version="1.0" encoding="UTF-8"?>
<svg version="1.1" xmlns="http://www.w3.org/2000/svg" width="512" height="512">
<path d="M0 0 C0.63123779 0.25467041 1.26247559 0.50934082 1.9128418 0.77172852 C9.04609396 3.83935931 15.68134782 7.90292449 22.375 11.8125 C23.57482172 12.51058067 24.77469105 13.20857954 25.97460938 13.90649414 C29.59166035 16.01347884 33.20249863 18.13096661 36.8125 20.25 C37.75920563 20.80501694 37.75920563 20.80501694 38.72503662 21.37124634 C46.86407272 26.14292446 54.98638678 30.93898936 63.0390625 35.85546875 C65.83541241 37.49595037 68.65024306 39.06118991 71.5 40.60546875 C77.6479054 43.93988177 83.70064023 47.42824076 89.75 50.9375 C96.96034172 55.11177375 104.17568566 59.27561501 111.42285156 63.38574219 C121.24011249 68.95584635 130.93979232 74.70438711 140.58813477 80.5625 C147.09104183 84.49778359 153.6782828 88.21810235 160.375 91.8125 C166.78947637 95.32330663 173.21090676 98.85950478 179.42103958 102.72315979 C181.48997399 103.92553657 181.48997399 103.92553657 184.28876877 105.02281189 C187.79429894 106.65133424 190.50230811 108.21426585 193.375 110.8125 C195.13659666 115.68591758 194.95614507 120.48983808 194.82910156 125.60546875 C194.83558837 127.11333243 194.84735444 128.62118117 194.8639679 130.12896729 C194.89415723 134.22852939 194.85039584 138.32437845 194.79365635 142.42353439 C194.74633819 146.7727229 194.76776522 151.12159994 194.78143311 155.47094727 C194.79717055 163.76750068 194.75187244 172.06256071 194.68461108 180.35881138 C194.61258013 189.57872021 194.60546545 198.79824722 194.60561085 208.01839447 C194.60477762 223.94437616 194.54538886 239.86941732 194.45184803 255.79509735 C194.39039222 266.48615214 194.36779774 277.17582579 194.4150281 287.86697197 C194.42369019 289.84352613 194.43095544 291.82008625 194.43819809 293.79664612 C194.46454349 300.96758089 194.46454349 300.96758089 194.51194 308.13839722 C194.7281654 334.72183474 191.76984431 358.40853125 172.703125 378.48046875 C171.93484375 379.25003906 171.1665625 380.01960938 170.375 380.8125 C169.62734375 381.57175781 168.8796875 382.33101563 168.109375 383.11328125 C159.87019199 391.01143848 150.10725734 396.25028427 140.1484375 401.65234375 C134.18461537 404.89536027 128.30873831 408.28043433 122.4375 411.6875 C120.13962618 413.01745539 117.84153892 414.34703079 115.54296875 415.67578125 C114.95521667 416.01562546 114.3674646 416.35546967 113.76190186 416.70561218 C107.85859753 420.11612535 101.93668553 423.49375474 96.01358032 426.86972046 C85.74682498 432.72199663 75.51204411 438.62603436 65.31201172 444.59399414 C56.93446697 449.49397575 48.52923619 454.34492118 40.1184082 459.1875 C31.57429941 464.11059223 23.05431422 469.0741234 14.55273438 474.0703125 C9.08114515 477.27526596 3.56016012 480.36233727 -2.01586914 483.3815918 C-5.85139393 485.48508303 -9.61558702 487.70160148 -13.375 489.9375 C-15.46263637 491.17475972 -17.55088236 492.41087448 -19.64208984 493.64208984 C-20.96399904 494.42234504 -22.28206522 495.20914799 -23.59619141 496.00244141 C-28.30671863 498.79866168 -28.30671863 498.79866168 -31.5 498.9375 C-35.188609 497.60960076 -37.97988095 495.70755854 -41.1796875 493.46875 C-45.46429261 490.56671715 -50.06684042 488.25251709 -54.625 485.8125 C-58.02543979 483.96671088 -61.41938828 482.10921806 -64.8125 480.25 C-65.65594971 479.79085205 -66.49939941 479.3317041 -67.3684082 478.85864258 C-71.77454961 476.44471549 -76.13745147 474.01681998 -80.28831482 471.17993164 C-82.65164531 469.69201202 -82.65164531 469.69201202 -85.61277771 468.7975769 C-89.48021947 467.25117602 -91.78070251 465.88623193 -94.625 462.8125 C-96.90728996 455.90407669 -96.01382189 448.071646 -95.796875 440.91015625 C-95.77448007 438.74544483 -95.75740485 436.58067239 -95.74542236 434.4158783 C-95.69970553 428.73097389 -95.58193234 423.04977701 -95.44897461 417.36633301 C-95.32598753 411.56178957 -95.27136354 405.756644 -95.2109375 399.95117188 C-95.08242247 388.56998971 -94.87775217 377.19155367 -94.625 365.8125 C-90.3593874 367.18492873 -86.68706046 368.7524503 -82.80859375 371.0078125 C-81.72070557 371.6376001 -80.63281738 372.2673877 -79.51196289 372.91625977 C-78.37364014 373.58326904 -77.23531738 374.25027832 -76.0625 374.9375 C-74.88226199 375.62392941 -73.70184142 376.31004502 -72.52124023 376.99584961 C-65.71937001 380.95598196 -58.98138228 385.00189317 -52.30859375 389.17578125 C-48.63128311 391.41856605 -44.86642436 393.4726909 -41.05859375 395.484375 C-38.89258857 396.6664645 -36.87303225 397.95985301 -34.8125 399.3125 C-31.77101079 401.14609124 -31.77101079 401.14609124 -28.875 400.171875 C-25.1713869 398.6227676 -21.83065987 396.6839931 -18.4375 394.5625 C-17.09870577 393.74177511 -15.75885587 392.92276983 -14.41796875 392.10546875 C-13.76747559 391.7089209 -13.11698242 391.31237305 -12.44677734 390.90380859 C-10.08486996 389.48894314 -7.67801801 388.17266965 -5.25 386.875 C0.34177624 383.87820974 5.78741691 380.65080452 11.24633789 377.42089844 C15.53807931 374.88441051 19.85233449 372.40687588 24.22265625 370.0078125 C31.24064739 366.11034374 38.12048744 361.98738385 44.9375 357.75 C50.64299209 354.21900251 56.45946463 350.97472167 62.375 347.8125 C71.3461847 342.91630938 80.14865965 337.73524516 88.9296875 332.5078125 C89.91686768 331.92128906 90.90404785 331.33476562 91.92114258 330.73046875 C93.91466675 329.54548765 95.90672113 328.35803001 97.8972168 327.16796875 C98.81929932 326.62011719 99.74138184 326.07226562 100.69140625 325.5078125 C101.52099854 325.01297363 102.35059082 324.51813477 103.20532227 324.00830078 C105.375 322.8125 105.375 322.8125 108.375 321.8125 C108.705 268.3525 109.035 214.8925 109.375 159.8125 C107.725 159.1525 106.075 158.4925 104.375 157.8125 C102.49840578 156.80218372 100.64010242 155.75748014 98.796875 154.6875 C97.19114624 153.75828735 97.19114624 153.75828735 95.55297852 152.81030273 C94.42174561 152.15102783 93.2905127 151.49175293 92.125 150.8125 C90.95058724 150.13133693 89.77602564 149.45043041 88.60131836 148.76977539 C81.34147225 144.55892546 74.10491047 140.30893999 66.8828125 136.03369141 C62.32771681 133.34586673 57.70792293 130.80470412 53.046875 128.3046875 C48.80074977 125.93331347 44.70229444 123.32747855 40.57421875 120.7578125 C36.77931211 118.45028685 32.90265679 116.33816282 28.98828125 114.2421875 C26.4063798 112.82966742 23.88965281 111.3410921 21.375 109.8125 C18.08774902 107.81446776 14.770938 105.93168043 11.375 104.125 C6.25728997 101.36986917 1.31961549 98.36283595 -3.625 95.3125 C-9.47992118 91.70317747 -15.34090888 88.16857228 -21.43359375 84.96875 C-23.30408631 83.98182344 -25.1270165 82.90562211 -26.9375 81.8125 C-30.58919155 80.45373105 -32.03690982 81.38330885 -35.625 82.8125 C-37.86121991 83.99017029 -40.06855199 85.22372754 -42.25 86.5 C-42.85827637 86.85376709 -43.46655273 87.20753418 -44.09326172 87.57202148 C-45.94004701 88.6473496 -47.78257464 89.72972388 -49.625 90.8125 C-51.66662184 92.00007706 -53.70828568 93.18758193 -55.75 94.375 C-58.60166198 96.04189547 -61.45201128 97.71097961 -64.30078125 99.3828125 C-71.80387936 103.77642299 -79.35177343 108.08913562 -86.90380859 112.39794922 C-93.50079363 116.16409863 -100.07251276 119.96939898 -106.625 123.8125 C-108.52065567 124.91697165 -110.41649572 126.02112689 -112.3125 127.125 C-115.80618545 129.16069073 -119.29378165 131.20607494 -122.7734375 133.265625 C-129.68065367 137.35083577 -136.59282338 141.37906978 -143.6640625 145.17578125 C-149.1090602 148.18561507 -154.45006806 151.37593757 -159.8046875 154.54296875 C-160.46436523 154.93274902 -161.12404297 155.3225293 -161.80371094 155.72412109 C-163.38331719 156.66807346 -164.94711934 157.63837672 -166.5078125 158.61328125 C-168.625 159.8125 -168.625 159.8125 -170.625 159.8125 C-170.625 244.9525 -170.625 330.0925 -170.625 417.8125 C-175.28110044 416.26046652 -177.92374094 415.17461653 -181.8125 412.5625 C-185.31649691 410.27484381 -188.81145481 408.10121578 -192.5 406.125 C-218.58836226 392.06585377 -242.28465793 377.78917364 -251.8359375 348.01953125 C-252.09632813 346.96121094 -252.35671875 345.90289062 -252.625 344.8125 C-252.78903981 344.16522477 -252.95307962 343.51794954 -253.12209034 342.85105991 C-255.3174782 332.77734979 -255.02472102 322.50930038 -255.12182617 312.25170898 C-255.14912462 310.06928792 -255.17701836 307.88687424 -255.20545959 305.70446777 C-255.45055838 285.87086809 -255.5739522 266.03522921 -255.67006969 246.20040798 C-255.74233105 231.55082166 -255.87055378 216.90492892 -256.07212847 202.2566523 C-256.20931955 191.9379295 -256.28143832 181.61995896 -256.30584508 171.30036026 C-256.32225883 165.14287037 -256.36757457 158.98876069 -256.48354149 152.83227348 C-256.59134559 147.04337628 -256.61848279 141.25961846 -256.58441734 135.46987152 C-256.58589751 133.3500936 -256.61635878 131.23010091 -256.67840958 129.11123085 C-257.11091988 113.52721086 -257.11091988 113.52721086 -252.95633721 108.99026227 C-248.88162325 105.78736008 -244.43389902 103.6203725 -239.65697443 101.66289437 C-236.92203024 100.51830264 -234.37976866 99.08775888 -231.80859375 97.6171875 C-230.95249512 97.15666992 -230.09639648 96.69615234 -229.21435547 96.22167969 C-224.31735054 93.55663043 -219.50931397 90.73555038 -214.6875 87.9375 C-212.39612791 86.61146604 -210.10454397 85.28580877 -207.8125 83.9609375 C-207.22578018 83.62171265 -206.63906036 83.28248779 -206.03456116 82.9329834 C-199.43260459 79.11878189 -192.81018457 75.34055365 -186.1875 71.5625 C-177.7000669 66.71914429 -169.22074423 61.86270419 -160.77026367 56.95507812 C-156.3743324 54.40232741 -151.97192862 51.86141239 -147.5625 49.33203125 C-135.34882899 42.3197137 -123.19758162 35.22201538 -111.15966797 27.91113281 C-105.62154517 24.55903765 -100.02759871 21.37659145 -94.32885742 18.30639648 C-90.72089889 16.31297904 -87.21593184 14.16694317 -83.69970703 12.01708984 C-57.11084734 -4.15551554 -30.13959602 -12.22099634 0 0 Z " fill="#55B75E" transform="translate(286.625,9.1875)"/>
<path d="M0 0 C2.75030828 1.50632269 5.47288499 3.0302708 8.1640625 4.640625 C11.90393512 6.85198861 15.64963696 9.02122882 19.4765625 11.078125 C25.78793801 14.48918633 32.00337533 18.06513999 38.22436523 21.63745117 C43.76764417 24.81772468 49.32832109 27.96566761 54.8996582 31.09643555 C55.6367527 31.51083641 56.3738472 31.92523727 57.13327789 32.35219574 C58.9351127 33.36517163 60.73707457 34.37792151 62.5390625 35.390625 C62.7245013 45.08279835 62.86660613 54.77436044 62.95355988 64.46792126 C62.99529635 68.96924214 63.05189167 73.46934877 63.14257812 77.9699707 C63.22956647 82.31429762 63.27734824 86.65745765 63.29808044 91.00258827 C63.31285201 92.65933928 63.34170017 94.31602701 63.38490295 95.9722805 C63.70965917 108.93924899 63.70965917 108.93924899 60.89091492 112.43409729 C58.80860561 113.75889062 56.86813432 114.59232455 54.5390625 115.390625 C53.62229736 115.93920166 52.70553223 116.48777832 51.76098633 117.05297852 C50.93107178 117.53694092 50.10115723 118.02090332 49.24609375 118.51953125 C48.29621582 119.07382812 47.34633789 119.628125 46.36767578 120.19921875 C45.3723584 120.77800781 44.37704102 121.35679687 43.3515625 121.953125 C42.30726074 122.5615625 41.26295898 123.17 40.18701172 123.796875 C32.37153563 128.34320183 24.5317582 132.8459391 16.66723633 137.30688477 C15.47843872 137.98255493 15.47843872 137.98255493 14.265625 138.671875 C13.49379883 139.10628906 12.72197266 139.54070312 11.92675781 139.98828125 C10.2203613 140.99048387 8.54517889 142.0466102 6.89355469 143.13671875 C5.58499512 143.98943359 5.58499512 143.98943359 4.25 144.859375 C3.0751001 145.65504883 3.0751001 145.65504883 1.87646484 146.46679688 C-0.4609375 147.390625 -0.4609375 147.390625 -2.89477539 146.74902344 C-5.6984088 145.26491952 -8.47905673 143.7671258 -11.23046875 142.1875 C-12.35549805 141.54337158 -13.48052734 140.89924316 -14.63964844 140.2355957 C-15.85100092 139.53742733 -17.06226189 138.83910017 -18.2734375 138.140625 C-19.52236192 137.42324881 -20.77138658 136.70604711 -22.02050781 135.98901367 C-25.83754086 133.79569327 -29.65007883 131.5946529 -33.4609375 129.390625 C-34.05171082 129.04896301 -34.64248413 128.70730103 -35.25115967 128.35528564 C-39.07415363 126.14315873 -42.89360932 123.9250127 -46.7109375 121.703125 C-47.67878174 121.14012695 -48.64662598 120.57712891 -49.64379883 119.99707031 C-50.55798584 119.46307617 -51.47217285 118.92908203 -52.4140625 118.37890625 C-53.19942383 117.92040283 -53.98478516 117.46189941 -54.79394531 116.98950195 C-55.67405273 116.46187256 -56.55416016 115.93424316 -57.4609375 115.390625 C-58.13762985 115.15224411 -58.8143222 114.91386322 -59.51152039 114.66825867 C-62.15491367 113.53264156 -63.60473694 112.61173821 -65.4609375 110.390625 C-66.76991211 104.96398823 -66.71053632 99.5444179 -66.69921875 93.99609375 C-66.71732041 92.36328807 -66.73705495 90.73049975 -66.75834656 89.09773254 C-66.79267566 85.67686846 -66.79556383 82.25764747 -66.77856445 78.83666992 C-66.76099457 74.46603488 -66.83896292 70.10302977 -66.94314289 65.73382092 C-67.00982556 62.36093499 -67.0162442 58.98986787 -67.00584984 55.61641884 C-67.00973284 54.00680686 -67.034121 52.39710153 -67.07995033 50.78813744 C-67.20859044 45.69647836 -67.10427979 41.24521606 -65.4609375 36.390625 C-61.50460417 32.59674472 -57.48757899 30.59966854 -52.4609375 28.390625 C-50.9441694 27.5260912 -49.43634828 26.64504511 -47.94921875 25.73046875 C-46.55837001 24.92781602 -45.16642162 24.12706609 -43.7734375 23.328125 C-43.00306152 22.88404297 -42.23268555 22.43996094 -41.43896484 21.98242188 C-39.73499354 21.00034809 -38.03054575 20.01910069 -36.32568359 19.03857422 C-31.32608777 16.16254969 -26.33008505 13.2802937 -21.33383179 10.39846802 C-19.61650384 9.40824968 -17.89871017 8.41883916 -16.1809082 7.42944336 C-15.120896 6.8185083 -14.06088379 6.20757324 -12.96875 5.578125 C-12.02660645 5.03542969 -11.08446289 4.49273437 -10.11376953 3.93359375 C-8.30718629 2.88282934 -6.52621829 1.78704407 -4.77050781 0.65332031 C-2.4609375 -0.609375 -2.4609375 -0.609375 0 0 Z " fill="#57BB60" transform="translate(257.4609375,176.609375)"/>
</svg>
