<svg xmlns="http://www.w3.org/2000/svg" viewBox="0 0 484.002 500">
  <path d="M250 0c4.7 0 9.37.13 14.002.386V116.96a133.128 133.128 0 0 0-16.003-.958c-72.17 0-130.815 57.92-131.983 129.815l-.015 2.183v213.09C46.268 416.73.001 338.768.001 250 0 111.926 111.93 0 250 0Zm-2 159.997c4.918 0 9.743.406 14.44 1.183l1.562.27V248l.005 1.474c.313 28.493 9.651 54.814 25.294 76.251-12.314 6.556-26.373 10.276-41.302 10.276-48.597 0-87.997-39.4-87.997-88.002s39.4-88.002 87.997-88.002Z"/>
  <path fill="#00E6A5" d="M159.997 346.387c23.355 20.901 54.193 33.61 88.002 33.61 27.425 0 52.896-8.363 74.001-22.678 21.104 14.315 46.575 22.678 74 22.678 31.386 0 60.212-10.953 82.87-29.244C440.121 438.641 352.223 500 250 500c-31.724 0-62.073-5.909-90.003-16.69V346.386ZM396 159.997c48.603 0 88.002 39.4 88.002 88.002S444.603 336.001 396 336.001c-14.924 0-28.983-3.72-41.297-10.276 15.91-21.802 25.3-48.67 25.3-77.726 0-29.056-9.39-55.924-25.305-77.726 12.32-6.556 26.378-10.276 41.302-10.276Zm-74 40.358c8.858 13.731 14.001 30.088 14.001 47.644 0 17.556-5.143 33.913-14 47.644-8.86-13.73-14.003-30.088-14.003-47.644 0-17.07 4.862-33.006 13.272-46.497l.73-1.147ZM308.003 6.765c74.407 17.673 135.933 68.61 168.007 136.233C453.806 126.058 426.08 116 396.001 116c-27.425 0-52.896 8.363-74 22.678a131.582 131.582 0 0 0-12.189-7.343l-1.808-.943V6.764Z"/>
</svg>
