<svg xmlns="http://www.w3.org/2000/svg" class="shared-nav-ps-logo" width="40.023" height="40.023"><path d="M.81 27.112c-1.5 1-1 2.9 2.2 3.8 3.3 1.1 6.9 1.4 10.4.8.2 0 .4-.1.5-.1v-3.4l-3.4 1.1c-1.3.4-2.6.5-3.9.2-1-.3-.8-.9.4-1.4l6.9-2.4v-3.7l-9.6 3.3c-1.2.4-2.4 1-3.5 1.8zm23.2-15v9.7c4.1 2 7.3 0 7.3-5.2 0-5.3-1.9-7.7-7.4-9.6-2.9-1-5.9-1.9-8.9-2.5v28.9l7 2.1v-24.3c0-1.1 0-1.9.8-1.6 1.1.3 1.2 1.4 1.2 2.5zm13 12.7c-2.9-1-6-1.4-9-1.1-1.6.1-3.1.5-4.5 1l-.3.1v3.9l6.5-2.4c1.3-.4 2.6-.5 3.9-.2 1 .3.8.9-.4 1.4l-10 3.7v3.8l13.8-5.1c1-.4 1.9-.9 2.7-1.7.7-1 .4-2.4-2.7-3.4z" fill="#0070d1"/></svg>