<svg xmlns="http://www.w3.org/2000/svg" width="150" height="132" style="shape-rendering:geometricPrecision;text-rendering:geometricPrecision;image-rendering:optimizeQuality;fill-rule:evenodd;clip-rule:evenodd"><path style="opacity:1" fill="#f9af3d" d="M121.5 60.5c1.381-9.57-.619-18.236-6-26a14.758 14.758 0 0 0-4-5c.438.065.772-.101 1-.5-4.271-3.795-5.438-8.295-3.5-13.5 4.924-4.195 9.257-3.529 13 2 5.049 9.403 6.716 19.403 5 30-.784 4.873-2.617 9.206-5.5 13z"/><path style="opacity:1" fill="#ed5265" d="M111.5 29.5a14.758 14.758 0 0 1 4 5 69.822 69.822 0 0 1 2 11c-.02 4.042-1.02 7.708-3 11a26.332 26.332 0 0 0-2-5 2072.437 2072.437 0 0 0-10-17c.909-5.593 3.909-7.26 9-5z"/><path style="opacity:1" fill="#80c34f" d="M79.5 40.5h-1c-7.972-2.766-15.972-3.433-24-2-5.31.576-10.31 1.909-15 4-.667 0-1 .333-1 1h-1c-.667 0-1 .333-1 1-.667 0-1 .333-1 1h-1c-.667 0-1 .333-1 1-.667 0-1 .333-1 1-.667 0-1 .333-1 1-.667 0-1 .333-1 1-.667 0-1 .333-1 1-.667 0-1 .333-1 1-1 .333-1.667 1-2 2v1c-.667 0-1 .333-1 1-.667 0-1 .333-1 1v1c-.863.963-1.53.963-2 0a9.106 9.106 0 0 0 1-5c7.24-14.132 18.907-21.466 35-22 6.377.041 12.377 1.541 18 4.5 1.66 1.488 2.66 3.321 3 5.5z"/><path style="opacity:1" fill="#14466d" d="M78.5 40.5c-.292 3.504-2.292 5.17-6 5a149.176 149.176 0 0 0-18-7c8.028-1.433 16.028-.766 24 2z"/><path style="opacity:1" fill="#388bc4" d="M54.5 38.5a149.176 149.176 0 0 1 18 7c3.708.17 5.708-1.496 6-5h1c7.515 1.344 11.682 5.678 12.5 13-5.501 6.313-11.001 6.146-16.5-.5a55.489 55.489 0 0 0-13-5.5c-4.97-2.484-9.97-2.484-15 0-2.436 1.371-5.103 2.371-8 3 .01-1.517.677-2.684 2-3.5l6-4c-7.178 1.664-12.511 5.83-16 12.5-2.031 1.039-3.364 2.705-4 5-1.333 1.333-2.667 1.333-4 0a5.728 5.728 0 0 0 1-3c1.333-.333 1.333-.667 0-1 0-.667.333-1 1-1s1-.333 1-1c.667 0 1-.333 1-1 1-.333 1.667-1 2-2v-1c.667 0 1-.333 1-1 .667 0 1-.333 1-1 .667 0 1-.333 1-1 .667 0 1-.333 1-1s.333-1 1-1c.333 1.333.667 1.333 1 0 .667 0 1-.333 1-1s.333-1 1-1c.333 1.333.667 1.333 1 0 1.724.04 2.057-.294 1-1 4.69-2.091 9.69-3.424 15-4z"/><path style="opacity:1" fill="#1a4e7c" d="M39.5 50.5c-.342.838-1.008 1.172-2 1a17.908 17.908 0 0 0-6 4c3.489-6.67 8.822-10.836 16-12.5l-6 4c-1.323.816-1.99 1.983-2 3.5z"/><path style="opacity:.784" fill="#88b8db" d="M62.5 47.5c-4.987-1.173-9.987-1.173-15 0 5.03-2.484 10.03-2.484 15 0z"/><path style="opacity:1" fill="#e82d1b" d="M115.5 34.5c5.381 7.764 7.381 16.43 6 26-.901.79-1.568 1.79-2 3-2.023 3.02-4.69 5.354-8 7a27.43 27.43 0 0 0 2-11c.904-.709 1.237-1.709 1-3 1.98-3.292 2.98-6.958 3-11a69.822 69.822 0 0 0-2-11z"/><path style="opacity:.039" fill="#eef5f3" d="M28.5 51.5h1c-.333 1-1 1.667-2 2h-1c.333-1 1-1.667 2-2z"/><path style="opacity:.753" fill="#f595a0" d="M112.5 51.5a26.332 26.332 0 0 1 2 5c.237 1.291-.096 2.291-1 3a41.541 41.541 0 0 1-1-8z"/><path style="opacity:1" fill="#85c459" d="M37.5 51.5a32.897 32.897 0 0 0-3 7c-1.333.333-1.333.667 0 1a11.741 11.741 0 0 0-3 5c-3.002 2.661-5.002 5.995-6 10h-1a72.046 72.046 0 0 1 1-11c.667 0 1-.333 1-1 .838-.342 1.172-1.008 1-2 .636-2.295 1.969-3.961 4-5a17.908 17.908 0 0 1 6-4z"/><path style="opacity:1" fill="#70aad7" d="M36.5 64.5c.126-1.7.793-3.2 2-4.5l-1-1.5a5.576 5.576 0 0 1-3 1v-1c6.31-4.654 13.31-7.987 21-10l2 1c-8.433 3.116-15.433 8.116-21 15z"/><path style="opacity:.835" fill="#b0d891" d="M23.5 52.5a9.106 9.106 0 0 1-1 5c.47.963 1.137.963 2 0a5.728 5.728 0 0 1-1 3l-3 6c-.235-5.046.765-9.713 3-14z"/><path style="opacity:1" fill="#2481bb" d="M36.5 64.5c-.996-.086-1.83.248-2.5 1l-1-2a72.444 72.444 0 0 0-.5 12h-1v-11a11.741 11.741 0 0 1 3-5 5.576 5.576 0 0 0 3-1l1 1.5c-1.207 1.3-1.874 2.8-2 4.5z"/><path style="opacity:.063" fill="#fef4e3" d="M125.5 65.5c0-.667-.333-1-1-1 1.99-3.602 2.823-3.602 2.5 0-.383.556-.883.89-1.5 1z"/><path style="opacity:1" fill="#77acd6" d="M36.5 64.5a30.53 30.53 0 0 0-3 12c-.667 0-1-.333-1-1a72.444 72.444 0 0 1 .5-12l1 2c.67-.752 1.504-1.086 2.5-1z"/><path style="opacity:.58" fill="#f9b4bc" d="M121.5 60.5c-.095 2.286-.762 4.286-2 6v-3c.432-1.21 1.099-2.21 2-3z"/><path style="opacity:.953" fill="#81b4d8" d="M23.5 60.5c1.333 1.333 2.667 1.333 4 0 .172.992-.162 1.658-1 2-.667 0-1 .333-1 1a59.607 59.607 0 0 0-5 9c-.667 0-1-.333-1-1-.134-1.791.2-3.458 1-5l3-6z"/><path style="opacity:1" fill="#0f436e" d="M31.5 64.5v11c-.536 6.927.464 13.594 3 20-5.874-5.578-8.874-12.578-9-21 .998-4.005 2.998-7.339 6-10z"/><path style="opacity:1" fill="#faae39" d="M113.5 59.5a27.43 27.43 0 0 1-2 11 10.162 10.162 0 0 1-3 3c-.667 0-1 .333-1 1a31.686 31.686 0 0 1-6 2c-1.175.219-2.175-.114-3-1 1.493-.641 2.493-1.641 3-3a55.537 55.537 0 0 0 12-13z"/><path style="opacity:1" fill="#f0596b" d="M119.5 63.5v3l-2 6h-1a25.615 25.615 0 0 1-6 6l-7 2a17.9 17.9 0 0 0 4-6c.667 0 1-.333 1-1a10.162 10.162 0 0 0 3-3c3.31-1.646 5.977-3.98 8-7z"/><path style="opacity:.006" fill="#f0f6fa" d="M19.5 71.5c0 .667.333 1 1 1 .219 1.175-.114 2.175-1 3-1.282-1.458-1.282-2.792 0-4z"/><path style="opacity:.875" fill="#f9a4ae" d="M123.5 70.5c-.542 3.412-1.875 6.412-4 9a2.429 2.429 0 0 0-.5-2 25.136 25.136 0 0 1-4.5 4v-1a6913.86 6913.86 0 0 0 9-10z"/><path style="opacity:1" fill="#f9af3a" d="M86.5 81.5c4.134.985 8.468 1.318 13 1-2.465 2.337-5.465 3.837-9 4.5 7.839-.22 14.505-3.053 20-8.5a25.615 25.615 0 0 0 6-6c.333 1.333.667 1.333 1 0a30.572 30.572 0 0 0 7-8c.667 0 1 .333 1 1a16.336 16.336 0 0 1-2 5 6913.86 6913.86 0 0 1-9 10c-.667 0-1 .333-1 1-.667 0-1 .333-1 1h-1c-.667 0-1 .333-1 1-.667 0-1 .333-1 1-.992-.172-1.658.162-2 1-.992-.172-1.658.162-2 1h-2c-.992-.172-1.658.162-2 1h-1c-.992-.172-1.658.162-2 1h-1a41.744 41.744 0 0 1-9 1h-4c-6.258-2.808-11.925-6.641-17-11.5-3.516-.741-6.183.425-8 3.5v2a159.42 159.42 0 0 1-9.5-11c-2.084-6.085.083-9.418 6.5-10 2.11.554 4.11 1.388 6 2.5 5.791 8.728 13.791 14.228 24 16.5z"/><path style="opacity:.863" fill="#fec66e" d="M101.5 72.5c-.507 1.359-1.507 2.359-3 3 .825.886 1.825 1.219 3 1-2.719 1.413-5.719 2.08-9 2-1.599.268-2.932-.066-4-1 4.43-1.38 8.763-3.047 13-5z"/><path style="opacity:.208" fill="#fdeacc" d="M88.5 77.5c1.068.934 2.401 1.268 4 1-2.855 1.303-5.855 1.303-9 0 1.545-.952 3.212-1.285 5-1z"/><path style="opacity:1" fill="#e72b1b" d="M84.5 89.5c-9.18-.094-17.514-2.76-25-8 1.817-3.075 4.484-4.241 8-3.5 5.075 4.859 10.742 8.692 17 11.5z"/><path style="opacity:.765" fill="#ffdca7" d="M102.5 80.5c-.473 1.406-1.473 2.073-3 2-4.532.318-8.866-.015-13-1 5.395.234 10.728-.1 16-1z"/><path style="opacity:1" fill="#7dc04d" d="M31.5 75.5h1c0 .667.333 1 1 1 3.155 6.997 7.988 12.663 14.5 17 2.043 3.55 1.376 6.55-2 9-1.69.649-3.523.649-5.5 0-2.71-1.775-4.71-4.109-6-7-2.536-6.406-3.536-13.073-3-20z"/><path style="opacity:1" fill="#ea3d1b" d="M110.5 78.5c-5.495 5.447-12.161 8.28-20 8.5 3.535-.663 6.535-2.163 9-4.5 1.527.073 2.527-.594 3-2h1l7-2z"/><path style="opacity:1" fill="#3c8dc5" d="M24.5 74.5h1c.126 8.422 3.126 15.422 9 21 1.29 2.891 3.29 5.225 6 7a90.077 90.077 0 0 0 6.5 7c.696 10.217-3.47 12.717-12.5 7.5-11.037-12.352-14.37-26.518-10-42.5z"/><path style="opacity:1" fill="#ef586a" d="M59.5 81.5c7.486 5.24 15.82 7.906 25 8h4c2.862 1.181 5.862 1.181 9 0h1c.992.172 1.658-.162 2-1 1.724.04 2.057-.294 1-1 .342-.838 1.008-1.172 2-1 .667 1.333 1.333 1.333 2 0h2c4.054-.29 4.554.377 1.5 2a4.934 4.934 0 0 0-.5 3c-17.334 9.275-33.5 7.608-48.5-5a4.932 4.932 0 0 1-.5-3v-2z"/><path style="opacity:1" fill="#f97682" d="M119.5 79.5c-2.255 5.257-5.922 9.257-11 12a4.934 4.934 0 0 1 .5-3c3.054-1.623 2.554-2.29-1.5-2v-1c.992.172 1.658-.162 2-1 .667 0 1-.333 1-1s.333-1 1-1c.333 1.333.667 1.333 1 0 .667 0 1-.333 1-1h1a25.136 25.136 0 0 0 4.5-4c.464.594.631 1.261.5 2z"/><path style="opacity:.224" fill="#fde4dd" d="M100.5 87.5v1c-.342.838-1.008 1.172-2 1v-1c.342-.838 1.008-1.172 2-1z"/><path style="opacity:.335" fill="#f8c0c3" d="M97.5 88.5v1c-3.138 1.181-6.138 1.181-9 0a41.744 41.744 0 0 0 9-1z"/></svg>