<svg xmlns="http://www.w3.org/2000/svg" viewBox="0 0 500 500">
  <circle cx="244.823" cy="405.132" r="250" fill="#f27777" transform="translate(5.177 -155.132)"/>
  <path fill="#fff" d="M121.67 122.114c22.202 4.884 43.517 12.877 62.611 23.534-22.647 11.546-41.74 28.864-55.507 50.178-8.88-11.989-13.765-27.087-13.765-43.073 0-11.1 2.22-21.314 6.661-30.639Z"/>
  <path fill="#fff" d="M384.991 353.02c0 13.765-11.1 24.867-24.866 24.867s-24.867-11.102-24.867-24.867v-19.982h-170.96l.001 19.982c0 13.765-11.102 24.867-24.867 24.867-13.766 0-24.867-11.102-24.867-24.867v-75.933c0-73.268 56.838-135.435 130.107-138.099 76.82-2.665 139.875 58.614 139.875 134.991l.444 79.041Z"/>
  <path fill="#fff" d="M371.226 195.826c-13.766-21.314-32.86-38.632-55.506-50.178 19.538-10.657 40.408-18.65 62.611-23.534 4.44 9.325 6.66 19.538 6.66 30.64 0 15.985-5.328 30.64-13.765 43.072Z"/>
  <path fill="#f27777" d="M309.06 247.336c-1.777-.888-3.554-.444-4.442.888-1.776 2.664-3.996 4.44-7.105 6.217v-2.22c0-6.217-2.22-11.99-5.772-16.43-2.664-3.997-7.105-6.217-12.434-6.217-8.437 0-15.54 7.105-15.54 15.542 0 3.552 1.331 7.104 3.551 9.77 2.664 3.107 5.773 5.771 9.77 7.548-2.665 1.332-5.329 2.22-8.438 2.22-3.552 0-6.216 3.108-6.216 6.217 0 3.552 2.664 6.216 6.216 6.216h3.11c9.768 0 18.65-5.772 22.645-13.765 6.661-1.777 11.99-6.217 15.542-11.99 1.332-.888.888-3.108-.888-3.996Zm-25.312 8.437c-3.997-1.332-7.549-3.553-9.769-7.105-.888-.888-1.332-2.22-1.332-3.552 0-3.553 2.664-6.217 6.216-6.217 3.11 0 6.217 2.664 6.217 5.773 0 .888.444 1.776.444 3.108.444 2.664-.444 5.773-1.776 7.993Z"/>
</svg>
