<svg xmlns="http://www.w3.org/2000/svg" width="1680" height="1680"><path d="m970 275 2.85.772c42.135 11.627 81.039 31.343 116.15 57.228l1.763 1.3c24.437 18.138 47.663 39.55 66.237 63.7l1.65 2.135c8.687 11.272 16.959 22.7 24.35 34.865l1.407 2.311C1211.43 482.139 1235.904 539.783 1235 593l2.21-.402C1324.925 577.762 1418.686 609.06 1490 659a230.213 230.213 0 0 1 13 10l1.612 1.33a466.906 466.906 0 0 1 32.45 29.545l2.815 2.777c6.15 6.137 11.707 12.56 17.123 19.348 1.56 1.815 3.121 3.628 4.688 5.438 13.244 15.942 23.972 33.65 34.312 51.562l1.257 2.166c2.413 4.199 4.638 8.474 6.743 12.834l1.2 2.474c23.352 48.924 35.314 102.89 35.112 157.026l-.006 3.175c-.173 52.611-11.36 104.806-34.306 152.325l-1.01 2.113A446.833 446.833 0 0 1 1598 1125l-1.095 2.098c-11.326 21.507-25.346 41.267-40.905 59.902l-2.39 2.957c-6.756 8.236-14.164 15.813-21.672 23.355l-1.536 1.551c-6.798 6.853-13.842 13.118-21.402 19.137a536.066 536.066 0 0 0-3.73 3.16c-16.354 13.815-34.576 25.451-53.27 35.84l-2.146 1.208c-56.365 31.526-120.73 44.445-184.854 43.792-2.504-6.339-4.415-12.735-6.188-19.313l-.826-2.994-.779-2.869-.704-2.59C1256 1288 1256 1288 1256 1285c3.278-.95 6.382-1.218 9.785-1.395 41.506-2.37 81.681-10.163 119.215-28.605l3.005-1.474c13.998-6.928 27.31-14.402 39.995-23.526l1.743-1.25A323.06 323.06 0 0 0 1440 1221l2.719-2.133c15.784-12.654 30.879-26.863 43.281-42.867l3.055-3.867c48.512-61.906 69.434-139.193 60.945-217.133-7.299-59.484-32.514-115.384-72.883-159.664a310.862 310.862 0 0 1-5.617-6.399c-6.293-7.209-13.173-13.792-20.5-19.937l-1.571-1.342C1403.659 728.673 1345.913 704.226 1286 699l-3.852-.336c-14.856-1.102-29.677-1.078-44.523.152l-3.237.264c-13.175 1.11-26.311 2.578-39.45 4.045l-7.608.84c-6.11.674-12.22 1.353-18.33 2.035l-1.25-11.375-.237-2.158c-.9-8.236-1.706-16.475-2.427-24.729-6.33-71.996-28.677-137.313-78.586-191.015a159.692 159.692 0 0 1-5.688-6.536c-2.6-3.073-5.495-5.647-8.562-8.25-2.54-2.187-4.983-4.466-7.438-6.75-16.678-15.13-35.902-27.727-55.812-38.187l-1.93-1.021C937.2 379.272 856.042 374.024 781 397c-33.053 10.588-64.034 27.193-91 49l-3.066 2.426C671.576 460.725 657.124 474.49 645 490c-.88 1.091-1.762 2.18-2.645 3.27C625.791 513.817 612.481 536.795 602 561l-1.193 2.747c-9.27 21.897-14.486 45.114-20.258 68.11-1.6 6.362-3.23 12.715-4.877 19.065l-.769 2.984-.713 2.738-.625 2.41C573 661 573 661 572 663c-4.354-.698-8.299-2.16-12.379-3.773l-2.17-.848c-1.538-.601-3.076-1.205-4.613-1.81-2.427-.955-4.857-1.903-7.288-2.85-7.468-2.915-14.923-5.856-22.347-8.883-49.247-19.992-102.015-23.61-151.92-3.07-47.958 20.554-83.547 57.643-103.47 105.672C260.147 767.005 255.599 787.966 255 809l-.121 3.184c-.299 14.925 1.244 29.844 4.309 44.441l.52 2.556c4.166 18.567 12.167 36.35 19.23 53.944 1.31 3.268 2.62 6.536 3.924 9.807.804 2.013 1.61 4.025 2.42 6.036l1.085 2.716.959 2.388C288 936 288 936 288 938l-1.753.674a15032.4 15032.4 0 0 0-18.303 7.06c-2.267.874-4.534 1.748-6.802 2.62C231.122 959.905 203.533 971.417 180 994l-2.887 2.695C145.832 1026.435 129.7 1069.48 128 1112c-.745 43.77 15.356 85.839 45 118l1.372 1.505C202.241 1261.73 242.218 1279.77 283 1283c4.047.128 8.087.101 12.136.06l7.207-.032 3.796-.018c6.532-.017 13.063.032 19.594.082l4.138.03 10.733.08c3.795.029 7.59.056 11.386.084 7.14.052 14.278.106 21.417.16l24.444.18c16.717.124 33.433.248 50.149.374-.31 2.055-.623 4.11-.935 6.165l-.526 3.468c-.728 4.55-1.633 9.05-2.601 13.554l-.526 2.518c-1.281 6.033-1.281 6.033-2.412 8.295-22.55.047-45.1.082-67.651.104-10.473.01-20.946.024-31.419.047-9.138.02-18.277.033-27.416.037-4.83.003-9.659.009-14.488.023-48.765.143-48.765.143-71.214-4.461l-3.282-.66c-43.534-9.038-82.544-30.39-114.53-61.09l-1.704-1.621c-8.592-8.216-16.302-16.764-23.296-26.379l-1.394-1.914C77.662 1212.46 71.474 1202.53 66 1192l-1.23-2.362C54.248 1169.166 47.215 1147.613 43 1125l-.496-2.614c-10.702-59.068 4.282-121.853 37.983-171.099A245.484 245.484 0 0 1 99 928l1.615-1.802c6.132-6.803 12.268-13.411 19.385-19.198 1.15-.972 2.297-1.945 3.445-2.918C168.795 866 168.795 866 189 866l-.655-1.962c-9.898-29.816-16.568-59.062-16.595-90.6l-.002-2.181c.09-61.357 22.408-122.646 64.17-167.991a240.352 240.352 0 0 0 5.582-6.328c6.345-7.248 13.172-13.68 20.695-19.692a259.356 259.356 0 0 0 5.422-4.46C304.62 541.547 353.097 522.94 401 518l2.883-.336C443.474 513.758 484.2 520.132 521 535l.559-2.586C533.914 479.148 561.876 428.756 598 388l3.375-3.938c9.35-10.6 18.987-20.742 29.625-30.062l1.623-1.44C711.143 283.02 819.227 250.59 970 275z" fill="#3758A7"/><path d="M1090 859c2.689 2.689 3.057 5.096 4.097 8.76l.613 2.14c.682 2.389 1.355 4.78 2.029 7.171l1.47 5.164c1.07 3.75 2.133 7.503 3.194 11.256 1.722 6.09 3.453 12.176 5.184 18.263 2.51 8.827 5.017 17.655 7.52 26.484a52192.26 52192.26 0 0 0 11.975 42.16l1.018 3.58a614842.255 614842.255 0 0 0 10.368 36.46c13.69 48.16 27.459 96.297 41.256 144.428l5.324 18.576c6.315 22.036 12.631 44.072 18.949 66.108l11.664 40.687.822 2.869 3.253 11.348c10.752 37.516 21.507 75.031 32.264 112.546-3.334 0-4.283-.549-7.07-2.238l-2.439-1.468-2.616-1.607-2.726-1.655a700.9 700.9 0 0 1-18.435-11.676c-6.146-4.013-12.36-7.911-18.589-11.793a4002.745 4002.745 0 0 1-21.938-13.75l-2.326-1.472-9.133-5.78a6067.481 6067.481 0 0 0-31.824-19.994c-6.908-4.314-13.8-8.653-20.681-13.008A3875.767 3875.767 0 0 0 1094 1320.5a4492.072 4492.072 0 0 1-23.777-14.941A3880.319 3880.319 0 0 0 1051 1293.5a6300.11 6300.11 0 0 1-33.272-20.938 6067.481 6067.481 0 0 0-31.824-19.995c-6.908-4.314-13.8-8.653-20.681-13.008A3875.767 3875.767 0 0 0 946 1227.5a4492.072 4492.072 0 0 1-23.777-14.941A3880.319 3880.319 0 0 0 903 1200.5a6300.11 6300.11 0 0 1-33.272-20.938 7200.496 7200.496 0 0 0-37.92-23.81 23837.824 23837.824 0 0 1-16.152-10.092L813 1144c1.594-3.912 4.139-6.372 7.125-9.313l2.758-2.738c2.211-2.132 4.495-4.152 6.825-6.153 4.198-3.663 8.15-7.526 12.073-11.48l2.118-2.122c2.203-2.208 4.402-4.42 6.601-6.631l4.516-4.53c3.664-3.675 7.325-7.353 10.984-11.033l-2.83-3.322-1.593-1.869c-5.66-6.493-12.002-12.417-18.55-18-3.334-2.975-6.421-6.192-9.55-9.38-2.877-2.821-5.913-5.369-9.079-7.859C823 1048 823 1048 823 1044c2.155-1.79 4.212-3.254 6.563-4.75 1.48-.98 2.959-1.96 4.437-2.941l2.441-1.606c4.592-3.056 9.101-6.23 13.621-9.39 1.98-1.38 3.961-2.759 5.942-4.137l3.008-2.095c5.78-4.026 11.563-8.047 17.346-12.069 4.88-3.394 9.76-6.79 14.638-10.188 8.945-6.229 17.895-12.449 26.884-18.614 8.74-6 17.433-12.07 26.132-18.13 5.78-4.025 11.563-8.046 17.346-12.068 4.88-3.394 9.76-6.79 14.638-10.188 9.01-6.273 18.024-12.537 27.08-18.743 6.197-4.254 12.35-8.573 18.503-12.89a1954.837 1954.837 0 0 1 17.343-12.007A1873.003 1873.003 0 0 0 1055 883c11.582-8.122 23.184-16.22 35-24zM781 1173c4.886.344 8.38 2.96 12.313 5.625 1.518 1.006 3.037 2.01 4.558 3.012l2.488 1.642c4.794 3.124 9.657 6.136 14.516 9.159l6.191 3.859 3.036 1.892c6.551 4.093 13.076 8.228 19.604 12.36 3.93 2.486 7.862 4.968 11.794 7.451 4.693 2.963 9.385 5.927 14.074 8.895A5216.83 5216.83 0 0 0 896 1243.5c11.116 6.94 22.2 13.93 33.272 20.938A5533.655 5533.655 0 0 0 958 1282.5a5506.908 5506.908 0 0 1 28.706 18.048c3.93 2.487 7.862 4.97 11.794 7.452 4.693 2.963 9.385 5.927 14.074 8.895A5216.83 5216.83 0 0 0 1039 1333.5a5506.908 5506.908 0 0 1 28.706 18.048c3.93 2.487 7.862 4.97 11.794 7.452 4.693 2.963 9.385 5.927 14.074 8.895A5216.83 5216.83 0 0 0 1120 1384.5a4873.025 4873.025 0 0 1 26.36 16.566c3.317 2.1 6.64 4.19 9.968 6.274l2.653 1.665c1.684 1.057 3.369 2.111 5.055 3.164l2.28 1.433 2.014 1.26C1170 1416 1170 1416 1172 1418H520c6.749-7.874 6.749-7.874 9.559-10.473l1.894-1.764 1.985-1.825 2.11-1.961c1.444-1.34 2.888-2.679 4.334-4.016 2.619-2.424 5.227-4.86 7.834-7.297 1.852-1.732 3.707-3.462 5.561-5.191 2.515-2.345 5.028-4.692 7.54-7.04a3281.807 3281.807 0 0 1 17.62-16.37c6.21-5.72 12.366-11.493 18.52-17.27 5.716-5.366 11.45-10.712 17.184-16.06a553168.95 553168.95 0 0 1 13.109-12.234c.619-.576 1.237-1.154 1.875-1.749l35.625-33.25 1.875-1.75 3.746-3.496c3.15-2.94 6.3-5.881 9.45-8.824a3295.156 3295.156 0 0 1 17.616-16.368c6.21-5.718 12.366-11.492 18.52-17.269 5.716-5.366 11.45-10.712 17.184-16.06a553168.95 553168.95 0 0 1 13.109-12.234l1.875-1.749 7.503-7.003 3.716-3.468c3.299-3.08 6.598-6.158 9.898-9.236l2.096-1.955 4.004-3.734c2.86-2.645 2.86-2.645 5.658-5.354zM580 859c5.738 4.774 11.036 9.886 16.314 15.16l2.78 2.767a7422.43 7422.43 0 0 1 7.586 7.564c2.732 2.725 5.466 5.448 8.2 8.172a31914.861 31914.861 0 0 1 25.333 25.269 88542.886 88542.886 0 0 1 42.646 42.577l2.01 2.007a33996.22 33996.22 0 0 0 32.33 32.243 27911.644 27911.644 0 0 1 33.185 33.114c6.206 6.203 12.416 12.401 18.637 18.589a6036.269 6036.269 0 0 1 15.845 15.817 2063.8 2063.8 0 0 0 8.093 8.07 1699.28 1699.28 0 0 1 8.742 8.744l2.624 2.582 2.335 2.367 2.042 2.038c1.298 1.92 1.298 1.92 1.084 4.074-.91 2.138-1.88 3.218-3.602 4.772l-1.791 1.64c-.645.576-1.29 1.153-1.956 1.746a9789.57 9789.57 0 0 0-4.132 3.774l-2.161 1.96c-3.395 3.094-6.737 6.244-10.082 9.391-1.34 1.259-2.682 2.516-4.023 3.774L778 1121a12027.865 12027.865 0 0 1-25.358 23.733 9841.768 9841.768 0 0 0-19.626 18.376l-12.014 11.264-10.037 9.412a10398.95 10398.95 0 0 1-21.323 19.948 9841.768 9841.768 0 0 0-19.626 18.376l-12.014 11.264-10.037 9.412a10398.95 10398.95 0 0 1-21.323 19.948 9841.768 9841.768 0 0 0-19.626 18.376l-12.014 11.264-10.037 9.412a10398.95 10398.95 0 0 1-21.323 19.948 9841.768 9841.768 0 0 0-19.626 18.376l-12.014 11.264-10.037 9.412a10398.95 10398.95 0 0 1-21.323 19.948 7452.871 7452.871 0 0 0-13.58 12.705l-1.983 1.858c-3.52 3.298-7.033 6.603-10.54 9.915l-2.207 2.08c-1.4 1.32-2.797 2.64-4.193 3.963l-1.909 1.797-1.675 1.583C463 1416 463 1416 460 1418c.617-6.402 1.635-12.564 3.008-18.844l.62-2.89c.685-3.184 1.376-6.368 2.067-9.551.497-2.302.992-4.605 1.488-6.907 1.215-5.64 2.434-11.278 3.654-16.917 1.452-6.707 2.898-13.416 4.344-20.124a85001.06 85001.06 0 0 1 7.446-34.51 80196.993 80196.993 0 0 0 13.052-60.565l3.887-18.062 6.9-32.046c8.706-40.434 17.4-80.87 26.086-121.308a175371.22 175371.22 0 0 1 20.89-97.135 435162.097 435162.097 0 0 1 16.617-77.15l2.054-9.535.77-3.57a1881.556 1881.556 0 0 0 3.357-15.871l.565-2.728c.338-1.642.673-3.284 1.004-4.927 1.081-5.25 1.081-5.25 2.191-6.36zM636 859h382c-3.054 3.054-5.29 4.99-8.813 7.25-6.225 4.076-12.335 8.304-18.437 12.563-6.57 4.582-13.142 9.16-19.75 13.687a3186.3 3186.3 0 0 0-19.5 13.5 3500.579 3500.579 0 0 1-21.363 14.777A3126.671 3126.671 0 0 0 912.5 933a3500.579 3500.579 0 0 1-21.363 14.777A3126.671 3126.671 0 0 0 873.5 960a3500.579 3500.579 0 0 1-21.363 14.777c-6.9 4.736-13.763 9.524-20.629 14.307a2146.152 2146.152 0 0 1-18.978 13.089 275.29 275.29 0 0 0-9.48 6.757l-1.936 1.434a240.181 240.181 0 0 0-3.6 2.73c-3.941 2.922-3.941 2.922-6.329 2.856-3.308-1.438-5.545-3.91-8.036-6.444l-1.74-1.735c-1.9-1.897-3.79-3.805-5.679-5.712a6415.57 6415.57 0 0 0-3.968-3.974c-2.776-2.78-5.547-5.566-8.314-8.356-3.53-3.558-7.07-7.108-10.611-10.655-3.393-3.398-6.781-6.8-10.169-10.203l-1.938-1.944c-1.833-1.84-3.663-3.683-5.491-5.527l-1.605-1.608a178.585 178.585 0 0 1-8.097-8.759c-3.308-3.816-6.785-7.41-10.371-10.965l-1.95-1.945a3647.823 3647.823 0 0 0-4.15-4.132 5054.594 5054.594 0 0 1-6.586-6.562A20281.53 20281.53 0 0 0 688.5 913.5a20936.46 20936.46 0 0 1-16.212-16.156 6176.38 6176.38 0 0 0-6.46-6.428 24458.07 24458.07 0 0 1-3.994-3.984l-1.789-1.774c-3.642-3.641-7.078-7.413-10.43-11.322-2.548-2.897-5.292-5.582-8.053-8.274A313.911 313.911 0 0 1 636 860v-1z" fill="#F9B52E"/></svg>