<svg width="16" height="16" viewBox="0 0 16 16" fill="none" xmlns="http://www.w3.org/2000/svg">
<g clip-path="url(#clip0_474_869)">
<path d="M4.81133 2.02124C5.92747 0.905106 6.48554 0.347036 7.12906 0.137943C7.69512 -0.045981 8.30488 -0.0459809 8.87094 0.137943C9.51446 0.347036 10.0725 0.905106 11.1887 2.02125L13.9788 4.81133C15.0949 5.92747 15.653 6.48554 15.8621 7.12906C16.046 7.69512 16.046 8.30488 15.8621 8.87094C15.653 9.51446 15.0949 10.0725 13.9788 11.1887L11.1887 13.9788C10.0725 15.0949 9.51446 15.653 8.87093 15.8621C8.30488 16.046 7.69512 16.046 7.12906 15.8621C6.48554 15.653 5.92747 15.0949 4.81133 13.9788L4.28676 13.3907C3.96933 13.0348 3.81061 12.8568 3.69744 12.6545C3.59708 12.475 3.52344 12.2818 3.47886 12.081C3.4286 11.8547 3.4286 11.6162 3.4286 11.1394L3.42859 4.86064C3.42859 4.38376 3.42859 4.14532 3.47886 3.91896C3.52344 3.71821 3.59707 3.52503 3.69744 3.34553C3.8106 3.14316 3.96932 2.96522 4.28676 2.60934L4.81133 2.02124Z" fill="url(#paint0_radial_474_869)"/>
<path d="M4.81133 2.02124C5.92747 0.905106 6.48554 0.347036 7.12906 0.137943C7.69512 -0.045981 8.30488 -0.0459809 8.87094 0.137943C9.51446 0.347036 10.0725 0.905106 11.1887 2.02125L13.9788 4.81133C15.0949 5.92747 15.653 6.48554 15.8621 7.12906C16.046 7.69512 16.046 8.30488 15.8621 8.87094C15.653 9.51446 15.0949 10.0725 13.9788 11.1887L11.1887 13.9788C10.0725 15.0949 9.51446 15.653 8.87093 15.8621C8.30488 16.046 7.69512 16.046 7.12906 15.8621C6.48554 15.653 5.92747 15.0949 4.81133 13.9788L4.28676 13.3907C3.96933 13.0348 3.81061 12.8568 3.69744 12.6545C3.59708 12.475 3.52344 12.2818 3.47886 12.081C3.4286 11.8547 3.4286 11.6162 3.4286 11.1394L3.42859 4.86064C3.42859 4.38376 3.42859 4.14532 3.47886 3.91896C3.52344 3.71821 3.59707 3.52503 3.69744 3.34553C3.8106 3.14316 3.96932 2.96522 4.28676 2.60934L4.81133 2.02124Z" fill="url(#paint1_linear_474_869)"/>
<path d="M4.61204 2.2204C5.17011 1.66233 5.44914 1.3833 5.77091 1.27875C6.05394 1.18679 6.35881 1.18679 6.64184 1.27875C6.9636 1.3833 7.24264 1.66233 7.80071 2.2204L11.9858 6.40553C12.5439 6.9636 12.8229 7.24263 12.9275 7.56439C13.0195 7.84742 13.0195 8.1523 12.9275 8.43533C12.8229 8.75709 12.5439 9.03613 11.9858 9.5942L7.80071 13.7793C7.24264 14.3374 6.9636 14.6164 6.64184 14.721C6.35881 14.8129 6.05393 14.8129 5.7709 14.721C5.44914 14.6164 5.17011 14.3374 4.61204 13.7793L2.02124 11.1885C0.905106 10.0724 0.347036 9.51432 0.137943 8.8708C-0.045981 8.30474 -0.0459809 7.69498 0.137943 7.12893C0.347036 6.4854 0.905106 5.92733 2.02124 4.81119L4.61204 2.2204Z" fill="url(#paint2_radial_474_869)"/>
</g>
<defs>
<radialGradient id="paint0_radial_474_869" cx="0" cy="0" r="1" gradientUnits="userSpaceOnUse" gradientTransform="translate(4.82879 16.3118) rotate(-58.142) scale(13.3561 20.8862)">
<stop stop-color="#FFD580"/>
<stop offset="0.09375" stop-color="#F6C592"/>
<stop offset="0.205" stop-color="#EBB6A2"/>
<stop offset="0.324466" stop-color="#DFA5AF"/>
<stop offset="0.42875" stop-color="#D397BE"/>
<stop offset="0.53375" stop-color="#C486CB"/>
<stop offset="0.64875" stop-color="#B578D9"/>
<stop offset="0.77125" stop-color="#A166E5"/>
<stop offset="0.89125" stop-color="#8B57F2"/>
<stop offset="1" stop-color="#704CFF"/>
</radialGradient>
<linearGradient id="paint1_linear_474_869" x1="4.27773" y1="-3.17697" x2="7.38926" y2="15.8163" gradientUnits="userSpaceOnUse">
<stop stop-color="#6D4AFF"/>
<stop offset="0.392009" stop-color="#B39FFB" stop-opacity="0.978022"/>
<stop offset="1" stop-color="#FFE8DB" stop-opacity="0.8"/>
</linearGradient>
<radialGradient id="paint2_radial_474_869" cx="0" cy="0" r="1" gradientUnits="userSpaceOnUse" gradientTransform="translate(3.65559 14.6855) rotate(-58.142) scale(10.7429 16.7998)">
<stop stop-color="#FFD580"/>
<stop offset="0.09375" stop-color="#F6C592"/>
<stop offset="0.205" stop-color="#EBB6A2"/>
<stop offset="0.324466" stop-color="#DFA5AF"/>
<stop offset="0.42875" stop-color="#D397BE"/>
<stop offset="0.53375" stop-color="#C486CB"/>
<stop offset="0.64875" stop-color="#B578D9"/>
<stop offset="0.77125" stop-color="#A166E5"/>
<stop offset="0.89125" stop-color="#8B57F2"/>
<stop offset="1" stop-color="#704CFF"/>
</radialGradient>
<clipPath id="clip0_474_869">
<rect width="16" height="16" fill="white"/>
</clipPath>
</defs>
</svg>
