<svg width="36" height="36" viewBox="0 0 36 36" fill="none" xmlns="http://www.w3.org/2000/svg">
<path d="M12.4198 7.53718C14.3731 5.58394 15.3497 4.60731 16.4759 4.2414C17.4665 3.91953 18.5335 3.91953 19.5241 4.2414C20.6503 4.60731 21.6269 5.58394 23.5802 7.53718L28.4628 12.4198C30.4161 14.3731 31.3927 15.3497 31.7586 16.4759C32.0805 17.4665 32.0805 18.5335 31.7586 19.5241C31.3927 20.6503 30.4161 21.6269 28.4628 23.5802L23.5802 28.4628C21.6269 30.4161 20.6503 31.3927 19.5241 31.7586C18.5335 32.0805 17.4665 32.0805 16.4759 31.7586C15.3497 31.3927 14.3731 30.4161 12.4198 28.4628L11.5018 27.4337C10.9463 26.8109 10.6686 26.4995 10.4705 26.1453C10.2949 25.8312 10.166 25.4931 10.088 25.1418C10 24.7457 10 24.3284 10 23.4939L10 12.5061C10 11.6716 10 11.2543 10.088 10.8582C10.166 10.5069 10.2949 10.1688 10.4705 9.85469C10.6686 9.50052 10.9463 9.18913 11.5018 8.56634L12.4198 7.53718Z" fill="url(#paint0_radial_474_194)"/>
<path d="M12.4198 7.53718C14.3731 5.58394 15.3497 4.60731 16.4759 4.2414C17.4665 3.91953 18.5335 3.91953 19.5241 4.2414C20.6503 4.60731 21.6269 5.58394 23.5802 7.53718L28.4628 12.4198C30.4161 14.3731 31.3927 15.3497 31.7586 16.4759C32.0805 17.4665 32.0805 18.5335 31.7586 19.5241C31.3927 20.6503 30.4161 21.6269 28.4628 23.5802L23.5802 28.4628C21.6269 30.4161 20.6503 31.3927 19.5241 31.7586C18.5335 32.0805 17.4665 32.0805 16.4759 31.7586C15.3497 31.3927 14.3731 30.4161 12.4198 28.4628L11.5018 27.4337C10.9463 26.8109 10.6686 26.4995 10.4705 26.1453C10.2949 25.8312 10.166 25.4931 10.088 25.1418C10 24.7457 10 24.3284 10 23.4939L10 12.5061C10 11.6716 10 11.2543 10.088 10.8582C10.166 10.5069 10.2949 10.1688 10.4705 9.85469C10.6686 9.50052 10.9463 9.18913 11.5018 8.56634L12.4198 7.53718Z" fill="url(#paint1_linear_474_194)"/>
<path d="M12.0711 7.88565C13.0477 6.90903 13.536 6.42072 14.0991 6.23777C14.5944 6.07683 15.1279 6.07683 15.6232 6.23777C16.1863 6.42072 16.6746 6.90903 17.6512 7.88565L24.9752 15.2096C25.9518 16.1862 26.4401 16.6746 26.6231 17.2376C26.784 17.7329 26.784 18.2665 26.6231 18.7618C26.4401 19.3249 25.9518 19.8132 24.9752 20.7898L17.6512 28.1138C16.6746 29.0904 16.1863 29.5787 15.6232 29.7617C15.1279 29.9226 14.5944 29.9226 14.0991 29.7617C13.536 29.5787 13.0477 29.0904 12.0711 28.1138L7.53718 23.5799C5.58394 21.6266 4.60731 20.65 4.2414 19.5239C3.91953 18.5332 3.91953 17.4662 4.2414 16.4756C4.60731 15.3494 5.58394 14.3728 7.53718 12.4195L12.0711 7.88565Z" fill="url(#paint2_radial_474_194)"/>
<defs>
<radialGradient id="paint0_radial_474_194" cx="0" cy="0" r="1" gradientUnits="userSpaceOnUse" gradientTransform="translate(12.4504 32.5457) rotate(-58.142) scale(23.3731 36.5508)">
<stop stop-color="#FFD580"/>
<stop offset="0.09375" stop-color="#F6C592"/>
<stop offset="0.205" stop-color="#EBB6A2"/>
<stop offset="0.324466" stop-color="#DFA5AF"/>
<stop offset="0.42875" stop-color="#D397BE"/>
<stop offset="0.53375" stop-color="#C486CB"/>
<stop offset="0.64875" stop-color="#B578D9"/>
<stop offset="0.77125" stop-color="#A166E5"/>
<stop offset="0.89125" stop-color="#8B57F2"/>
<stop offset="1" stop-color="#704CFF"/>
</radialGradient>
<linearGradient id="paint1_linear_474_194" x1="11.486" y1="-1.5597" x2="16.9312" y2="31.6785" gradientUnits="userSpaceOnUse">
<stop stop-color="#6D4AFF"/>
<stop offset="0.392009" stop-color="#B39FFB" stop-opacity="0.978022"/>
<stop offset="1" stop-color="#FFE8DB" stop-opacity="0.8"/>
</linearGradient>
<radialGradient id="paint2_radial_474_194" cx="0" cy="0" r="1" gradientUnits="userSpaceOnUse" gradientTransform="translate(10.3973 29.6995) rotate(-58.142) scale(18.8001 29.3996)">
<stop stop-color="#FFD580"/>
<stop offset="0.09375" stop-color="#F6C592"/>
<stop offset="0.205" stop-color="#EBB6A2"/>
<stop offset="0.324466" stop-color="#DFA5AF"/>
<stop offset="0.42875" stop-color="#D397BE"/>
<stop offset="0.53375" stop-color="#C486CB"/>
<stop offset="0.64875" stop-color="#B578D9"/>
<stop offset="0.77125" stop-color="#A166E5"/>
<stop offset="0.89125" stop-color="#8B57F2"/>
<stop offset="1" stop-color="#704CFF"/>
</radialGradient>
</defs>
</svg>
