<svg xmlns="http://www.w3.org/2000/svg" viewBox="0 0 500 433.451">
  <path d="M134.664 0c-10.257 0-19.193 1.837-27.87 5.518-8.421 3.682-15.784 8.678-22.36 15.255L250.4 202.779 416.102 20.773c-6.576-6.577-13.946-11.573-22.888-15.255C385.058 1.838 375.6 0 365.864 0c-10.257 0-19.986 2.108-28.664 6.054-8.942 3.94-16.312 9.729-23.146 16.563L250.4 93.105l-64.434-70.488c-6.576-6.834-13.945-12.624-23.152-16.563C154.664 2.108 144.922 0 134.664 0ZM250.4 230.4 84.434 412.678c6.576 6.312 13.939 11.566 22.36 15.254 8.677 3.681 17.627 5.519 27.355 5.519 10.787 0 19.987-2.366 28.665-6.055 9.207-4.203 17.091-9.729 23.667-16.562l63.92-70.488 63.911 70.488c6.576 6.833 13.946 12.359 22.888 16.562 8.678 3.689 18.142 6.055 28.665 6.055 9.735 0 19.193-1.838 27.349-5.519 8.942-3.688 16.312-8.942 22.888-15.254L250.4 230.4Z"/>
  <path fill="#e57000" d="M54.705 54.712c-10.522.264-20.78 2.359-29.98 6.305C15.255 64.963 7.098 70.488 0 77.329l126.787 139.396L0 355.865c7.098 7.104 15.254 12.616 24.725 16.826 9.2 4.21 19.458 6.055 29.98 6.577 11.308-.522 21.844-2.36 31.573-7.092 9.736-4.474 18.142-10.529 25.24-18.163l124.936-137.288L111.52 79.695c-7.627-7.37-15.777-13.417-25.512-18.15-9.729-4.467-19.994-6.569-31.302-6.833Zm390.333 0c-11.309.264-21.309 2.366-31.045 6.834-9.728 4.732-18.149 10.78-25.512 18.149l-124.406 137.03L388.48 354.013c7.363 7.634 15.784 13.689 25.512 18.163 9.736 4.732 19.736 6.57 31.045 7.092 11.308-.522 21.037-2.367 30.244-6.577 9.993-4.21 17.62-9.722 24.718-16.827L373.492 216.725 500 77.33c-7.098-6.841-14.725-12.366-24.718-16.312-9.207-3.946-18.936-6.04-30.244-6.305Z"/>
</svg>
