<svg xmlns="http://www.w3.org/2000/svg" viewBox="0 0 352 352.1"><path fill="#ffff" d="M352 176.2a176 176 0 0 1-176 176A176 176 0 0 1 0 175.7C.1 78.7 79.2-.2 176.2 0A176 176 0 0 1 352 176.2Zm-28-.1a148 148 0 1 0-296 4.3c2 77 65.5 145.8 152 143.6 77.3-2 143.4-64 144.1-148Zm-91.4 28.7c-6.5.3-9.6-4.3-11-15.9-3 4.4-5.2 9-8.4 12.5a129.3 129.3 0 0 1-16.5 15.7c-5.8 4.5-8.4 9.9-7.7 16.8.2 2 2.3 4 3.8 6.4-3.4 3.2-1.8 7.3.3 10.8a215.4 215.4 0 0 0 12 18.4c4.1 5.7 8.8 11 13.2 16.6a20.8 20.8 0 0 1 2.5 3.8c2.8 5.8 1.7 8.2-4.7 9.3a256 256 0 0 1-58.8 2.3 205.6 205.6 0 0 1-22.8-2.6c-5.8-1-6.5-2.6-3.6-7.6 3.1-5.2 7-10 10.4-14.9 6-8.5 12.5-16.8 17.9-25.7 3.3-5.4 2.5-6 0-11 5.8-4.9 5.8-16-1.4-20.5a78.1 78.1 0 0 1-26.8-30.4c-.2-.3-.8-.4-1.7-.8-.7 7 .8 15-8 17.5l-1.7-.8a31 31 0 0 1 2-5.3c3.5-5.6 3.8-10.1-1.1-15-8.3-8.2-17.2-15.7-25.8-23.6-5.2-4.6-10.7-9-15.7-14a45.7 45.7 0 0 1-13.4-43.5c4.2-18 17.5-32.8 39.8-25.5 6.3 2 11.8 6.4 17.8 9.7 1 .6 2.2 1.5 3.3 1.4 19.2-.8 38.5-2.2 57.8-2.3 13.8-.1 27.5 1.6 41.3 2.4 1 0 2.3-.8 3.3-1.4 6-3.3 11.5-7.7 17.7-9.8C263.8 72.1 280 81.7 285 99c5.5 19 .8 35-12.7 48.6-8.4 8.4-18 15.7-27 23.7-4.6 4-9 8.4-13.4 12.8s-5.3 9-1.6 14.4c1.1 1.6 1.4 3.9 2.3 6.3ZM127 180.2c0-.8-.4-2.6-.8-4.5-1.7-9-4.4-18-5-27.1a334 334 0 0 1 .2-42.1c.3-5.4-.7-8.2-5.2-10a65.6 65.6 0 0 0-8-3c-13.7-3.8-22.8 1.9-25.5 15.9a42 42 0 0 0 7.8 34.6c4.8 6.3 10.9 11.6 16.6 17.2l20 19Zm96.8 1.7a24.6 24.6 0 0 0 2.7-2c6-6 11.8-11.9 17.6-18 6.8-7.2 14.3-14 20-22a39.6 39.6 0 0 0 4.7-33.2c-2-8.2-8.1-14.1-14.8-14.5a33 33 0 0 0-21.6 6.5 5.2 5.2 0 0 0-2.1 3.5c0 7.3.1 14.6.7 21.8 1.3 19.4-.4 38.4-7.2 57.9Z"/><path fill="#336190" d="M324 176c-.7 84-66.8 146-144.2 148A147.4 147.4 0 0 1 28 180.4C26 94.8 94.1 28.1 176 28.1c81.8 0 147.8 66.7 148 148Zm-91.4 28.8c-.8-2.4-1.1-4.7-2.3-6.3-3.7-5.5-2.6-10.2 1.7-14.5s8.7-8.7 13.3-12.8c9-8 18.6-15.2 27-23.7A46.2 46.2 0 0 0 285 99c-5-17.4-21.2-27-38.4-21.2-6.3 2.1-11.8 6.5-17.7 9.8-1 .6-2.2 1.4-3.3 1.4-13.8-.8-27.6-2.5-41.3-2.4-19.3 0-38.6 1.5-57.8 2.3-1.1 0-2.3-.8-3.4-1.4-5.9-3.3-11.4-7.7-17.7-9.7-22.3-7.3-35.6 7.5-39.8 25.5a45.6 45.6 0 0 0 13.5 43.5c4.9 5 10.4 9.4 15.6 14 8.6 7.8 17.5 15.4 25.8 23.6 4.9 4.8 4.7 9.3 1.2 15a31 31 0 0 0-2.1 5.3l1.8.7c8.7-2.4 7.2-10.4 8-17.4.9.4 1.5.5 1.6.8a77.5 77.5 0 0 0 26.7 30.4c7.2 4.5 7.3 15.6 1.5 20.5 2.5 5 3.3 5.6 0 11-5.4 8.9-11.9 17.1-17.9 25.7-3.5 5-7.3 9.7-10.4 15-3 4.8-2.2 6.5 3.6 7.5a205.6 205.6 0 0 0 22.8 2.6c19.7 1.1 39.3 1.1 58.8-2.3 6.4-1.2 7.5-3.6 4.6-9.4a20.8 20.8 0 0 0-2.4-3.7c-4.4-5.6-9.1-11-13.3-16.6a215.4 215.4 0 0 1-12-18.4c-2-3.5-3.6-7.6-.2-10.8-1.5-2.4-3.6-4.3-3.8-6.4-.7-7 2-12.3 7.7-16.8a129.3 129.3 0 0 0 16.5-15.7c3.2-3.5 5.5-8 8.4-12.5 1.4 11.6 4.5 16.2 11 16Zm-105.5-24.6-20-19c-5.7-5.7-11.8-11-16.6-17.3a42.2 42.2 0 0 1-7.8-34.6c2.7-14 11.8-19.7 25.6-16a65.6 65.6 0 0 1 7.9 3c4.5 2 5.5 4.8 5.2 10a334 334 0 0 0-.1 42.2c.5 9.1 3.2 18 5 27.1.3 2 .7 3.8.7 4.6Zm96.7 1.7c6.8-19.5 8.5-38.5 7.2-57.9-.6-7.3-.7-14.5-.7-21.8a5.2 5.2 0 0 1 2.1-3.5 33 33 0 0 1 21.6-6.5c6.7.4 12.7 6.3 14.8 14.5 2.9 11.6 2 23.3-4.8 33.1-5.6 8-13.1 14.9-20 22.1-5.7 6.1-11.6 12.1-17.5 18.1a25.4 25.4 0 0 1-2.7 1.9Z"/></svg>