<svg xmlns="http://www.w3.org/2000/svg" viewBox="0 0 256 256"><rect width="256" height="256" fill="#323232" rx="20"/><path fill="#fff" fill-rule="evenodd" d="M59 94.2h3.8v-15h3.7v-7.5h3.8V68H74v-3.8h3.8v-7.5h7.5V53h3.8v-3.8h7.5v-3.7h7.5v-3.8h41.4v3.8h7.5v3.7h7.5V53h7.5v3.7h3.8v3.8h3.8v3.7h3.7v7.5h3.8v7.5h3.7v7.5h3.8v37.5h-3.8v11.3h-3.7v7.5h-3.8v3.8h-3.7v3.7h-3.8v3.8H168v3.7h-3.7v3.8h-7.5v3.7h-7.6v3.8h-15v3.7H96.6v3.8h-3.8v18.7h-3.7v3.8h-3.8v3.7H66.5v-3.8h-3.7v-3.7H59Zm41.4 0v-7.4h3.7V83h7.5v-3.7h7.6v-3.8h11.2v3.8h11.3V83h3.8v3.8h3.7v7.5h3.8v22.5h-3.8v3.7h-3.7v3.8h-3.8v3.7H138v3.8h-26.4V128H108v-3.8h-4v-3.7h-3.7V113h-3.8V94.3Z"/><path fill="#fdce45" d="M115.4 90.5h-7.5V98H104v11.3h3.8v7.5h3.7v-7.5h3.8v-7.5h3.8V98h7.5v-3.8h7.5v-3.7h3.8v-3.8h-11.3V83h-3.8v3.8h-7.5zm86.5 3.8H198V128h-3.7v11.3h-3.8v7.4h-3.8v3.8H183v3.8h-3.8v3.7h-3.7v3.8h-3.8v3.7H168v3.8h-7.5v3.7H153v3.8h-15v3.7h-37.6v18.8h-3.8v3.7h-3.8v3.8h-3.7v3.7H77.8v3.8h3.8v3.7h18.8v-3.8h3.7v-3.7h3.8v-18.8h3.7V188h37.6v-3.8h15v-3.7h7.6v-3.8h7.5V173h3.8v-3.8h3.7v-3.7h3.8v-3.8h3.8V158h3.7v-7.5h3.8v-11.3h3.7v-37.4H202z"/></svg>