<svg xmlns="http://www.w3.org/2000/svg" viewBox="0 0 158.5 158.5"><rect width="158.5" height="158.5" fill="#0010d8" rx="22.3"/><g fill="none" stroke="#fff" stroke-width="3"><path stroke-linecap="square" stroke-miterlimit="10" d="M79.3 113.1V81.5h-9m40.3 24.6-8.8-8.8V81.5h-9m-18-27a23 23 0 0 1 6.7-16.3M62 63.5c1.9-5.5 7-9.1 12.7-9a13 13 0 0 1 10 4.4M48 106l8.7-8.7V81.5H52a22.4 22.4 0 0 1-22.5-22.1v-.5a22.4 22.4 0 0 1 22-22.5h.5c2.5 0 5 .4 7.3 1.3 2.3-3.7 6.4-5.9 10.8-5.9a13.2 13.2 0 0 1 11.3 6.4c4.2-4.1 9.9-6.4 15.8-6.4A22.4 22.4 0 0 1 119.9 54v1.3c5.4 1.8 9 7 9 12.6.1 7.4-5.7 13.5-13 13.6h-.5"/><circle cx="115.4" cy="110.9" r="6.8"/><circle cx="79.3" cy="119.9" r="6.8"/><circle cx="43.1" cy="110.9" r="6.8"/></g></svg>