<?xml version="1.0" standalone="no"?><!DOCTYPE svg PUBLIC "-//W3C//DTD SVG 1.1//EN" "http://www.w3.org/Graphics/SVG/1.1/DTD/svg11.dtd"><svg t="1727340476837" class="icon" viewBox="0 0 1024 1024" version="1.1" xmlns="http://www.w3.org/2000/svg" p-id="12844" xmlns:xlink="http://www.w3.org/1999/xlink" width="200" height="200"><path d="M1019.830857 176.274286c-4.242286-4.169143-8.484571-4.169143-12.726857-4.169143-12.8 4.242286-165.741714 259.145143-497.152 250.660571-55.222857 0-114.761143-4.242286-169.984-21.211428L314.587429 312.32s-4.242286-21.211429-25.526858-34.011429c-16.969143-8.484571-25.453714-8.484571-29.696-4.242285v4.242285l12.726858 101.961143C106.276571 308.077714 21.284571 176.347429 12.8 172.105143c-4.242286 0-8.484571 0-12.726857 4.242286v12.726857a519.314286 519.314286 0 0 0 280.429714 310.125714l38.253714 242.249143c4.242286 68.022857 50.980571 110.445714 110.445715 110.445714h182.710857c59.465143 0 106.203429-42.422857 110.445714-110.445714l34.011429-199.68v-4.242286s-16.969143 0-50.980572 21.211429c-34.011429 25.526857-42.422857 59.465143-42.422857 59.465143s-34.011429 84.992-42.569143 119.003428c-8.484571 38.253714-50.980571 34.011429-50.980571 34.011429H467.456c-16.969143 0-34.011429-12.8-34.011429-29.769143l-59.465142-212.48c42.422857 12.8 89.234286 17.042286 140.214857 17.042286 237.933714 0 437.613714-144.457143 509.878857-356.937143-4.242286 0-4.242286-8.484571-4.242286-12.726857" fill="#02A7E0" p-id="12845"></path></svg>