<svg xmlns="http://www.w3.org/2000/svg" width="103.241" height="103.241"><g fill="#231f20"><path d="M61.445 71.907l-1.276-.916H30.203V31.443h39.894v33.548c11.982 3.733 20.222 8.541 25.834 13.107.95-2.402 1.436-5.178 1.436-8.344V33.216c0-12.544-7.343-19.153-22.004-19.84v-.057h-2.395c-.09 0-.176-.01-.263-.01v.01H24.67C8.221 13.32 0 19.954 0 33.216v36.538c0 13.184 8.221 19.781 24.67 19.781h48.106v-.016c2.568-.003 4.91-.19 7.077-.516-4.016-5.78-11.454-12.065-18.408-17.096"/><path d="M52.152 62.63c8.972 5.696 25.318 17.001 30.726 27.301h20.363c-3.477-6.207-15.236-21.165-51.09-27.3"/></g></svg>