<svg xmlns="http://www.w3.org/2000/svg" width="643" height="121" viewBox="0 0 643 121" xml:space="preserve"><path fill="#27387D" d="M123.583 3.836v-.088h-3.47c-.13 0-.247-.011-.375-.011v.011H50.137c-23.839 0-35.744 9.614-35.744 28.837v52.941c0 19.101 11.908 28.658 35.744 28.658h69.692v-.034c23.751-.029 35.638-9.57 35.638-28.626V32.583c-.002-18.176-10.634-27.75-31.884-28.747m-7.628 83.479H58.152V30.012h57.803zm357.394 26.481h-41.473V84.861h-58.064v28.935h-41.453V28.787c0-7.251 2.718-13.013 8.205-17.322 5.348-4.185 12.988-6.269 22.923-6.269h78.919c9.935 0 17.57 2.084 22.918 6.269 5.357 4.18 8.025 9.974 8.025 17.322zm-41.475-48.939V33.43H373.81v31.427zm190.174-54.219c-4.185-3.325-10.633-5.104-19.271-5.386l.146-.038h-1.622c-.347-.007-.663-.019-1.034-.019h-73.809l-.031.019h-2.412c-9.935 0-17.569 2.07-22.921 6.265-5.351 4.165-8.062 9.791-8.202 16.8h-.013v.259c0 .11-.009.18-.009.273h.009v84.985h41.478v-28.37h67.049c18.209 0 27.316-7.291 27.316-21.95v-34.83c.005-8.365-2.223-14.353-6.674-18.008M586.53 61.577h-52.749V33.432h52.749zM280.24 5.195h-6.193v63.172c-.273.663-.866 1.159-2.133.935 0 0-.814-.17-1.389-.777-6.999-10.824-33.95-47.869-42.577-59.673-.021-.048-.069-.079-.105-.125h.025a4 4 0 0 0-.428-.371c-.065-.101-.123-.18-.208-.209-2.192-1.974-5.071-2.95-8.898-2.95h-33.497c-4.217 0-7.452 1.199-9.72 3.549-2.281 2.381-3.415 5.589-3.465 9.549l-.062.03v95.472h39.178s-.219-50.434-.323-65.296c.166-.986.881-2.417 3.871-2.055 0 0 1.15.086 1.64.955 7.56 12.07 57.097 66.396 57.097 66.396h40.692V5.197H280.24z"/><path fill="#EC2727" stroke="#FFF" stroke-width="1.433" d="M81.054 72.543s43.898 25.216 53.042 45.215h34.16c-2.832-6.715-19.113-36.586-87.202-45.215z"/></svg>