<?xml version="1.0" encoding="utf-8"?>
<!-- Generator: Adobe Illustrator 25.0.1, SVG Export Plug-In . SVG Version: 6.00 Build 0)  -->
<svg version="1.1" id="Layer_1" xmlns="http://www.w3.org/2000/svg" xmlns:xlink="http://www.w3.org/1999/xlink" x="0px" y="0px"
	 viewBox="0 0 280.6 100" style="enable-background:new 0 0 280.6 100;" xml:space="preserve">
<style type="text/css">
	.st0{enable-background:new    ;}
	.st1{fill:#FFFFFF;}
	.st2{fill:#3F4257;}
	.st3{fill-rule:evenodd;clip-rule:evenodd;fill:#3F4257;}
	.st4{fill-rule:evenodd;clip-rule:evenodd;fill:#EA4335;}
	.st5{fill:#EA4335;}
	.st6{fill:#FBBC05;}
	.st7{fill:#4285F4;}
	.st8{fill:#34A853;}
</style>
<g>
	<g class="st0">
		<path class="st1" d="M114.5,57.9h-6.3L97.9,46.2h-7.2v11.7h-5.4V24.1c5.3,0,10.5,0,15.8,0c7.8,0,12,5.4,12,11
			c0,4.8-2.5,9.5-9.2,10.5L114,57L114.5,57.9z M90.7,29.1v12.2H101c4.5,0,6.5-2.8,6.5-6c0-3-2-6.2-6.4-6.2H90.7z"/>
		<polygon class="st1" points="124.5,57.9 129.9,57.9 129.9,24.2 118.7,27.7 118.7,32.4 124.5,30.8 		"/>
		<path class="st1" d="M139.7,38.1c0-19.6,28.4-19.5,28.4,0V44c0,19.5-28.4,19.6-28.4,0V38.1z M145.2,44c0,12.8,17.5,12.8,17.5,0
			v-5.9c0-12.6-17.5-12.8-17.5,0V44z"/>
	</g>
	<g class="st0">
		<path class="st1" d="M188.8,24.2l22.8,27.9V24.2h2.6v33.8h-1L190.3,30v27.9h-2.6V24.2H188.8z"/>
		<path class="st1" d="M226.3,39.7h19.8v2.4h-19.8v13.3h21.4v2.5h-24V24.2h23.4v2.5h-20.8V39.7z"/>
		<path class="st1" d="M263.3,26.5h-12.2v-2.3h27.1v2.3h-12.2v31.4h-2.6V26.5z"/>
	</g>
	<g id="Group_174_3_" transform="translate(-5071.999 -1624)">
		<path class="st1" d="M5106.8,1722c-5.8,0-11.4-1.2-16.4-3.6c-4.9-2.3-9.1-5.7-12-9.8c-5-7.1-6.1-16-3-25l0-0.1
			c7.8-22.5,13-25.7,18.7-27.4l0.5-0.1l0,0.2l0.8-0.1c0.5,0,0.9-0.1,1.4-0.1c0.6,0,1.2,0,1.8,0.1l0.8,0.1l0.4,0.1
			c1.9,0.3,3.8,0.8,5.7,1.5l0,0l0,0c0.4,0.1,0.9,0.2,1.3,0.2c0,0,0,0,0,0c5.2,0,12.8-10.1,18.8-28.9c-0.3,1.7-1.1,6.5-1.4,8.1
			c-1.2,6.5-2.3,12.7-3.2,17.7l-0.1,0.5l0.5,0.2c2.8,1.2,5,3.8,6.5,7.6l0.1,0.3l0.3,0.1c5.2,1.9,9.3,4.6,12.1,8
			c2.5,3,4.2,6.5,4.8,10.5c0.9,5.3,0,11.6-2.5,17.6c-2.2,5.2-5.3,9.8-8.5,12.3C5126,1718.6,5116.6,1722,5106.8,1722L5106.8,1722z
			 M5094.2,1635.7l0.5,2.5l-0.2,16.8L5094.2,1635.7z M5099.2,1654.4c-0.2-8.7,5.1-17.6,12.8-21.7c-0.7,0.9-1.4,1.8-2,2.7
			C5103.8,1639,5100.3,1645.3,5099.2,1654.4z"/>
		<g>
			<path class="st1" d="M5128.3,1663.1c-1.7-4.1-4-6.7-6.9-8c1.5-8.3,3.6-20,5.7-31.1c-0.4,1.7-1.1,3.4-1.7,5
				c-1.7,9.3-4.2,20.4-5.5,27.4c3.2,1.5,5.6,4.2,6.9,7.6c27.3,9.9,16.5,38.3,6.9,46.1c-28,22.7-67.7,4-57.3-26.9
				c6.8-20.3,12.9-24.2,18.7-26v0c2.6-0.5,6.9,0.4,9.2,0.9c1.4,0.4,2.2,0.5,2.5,0.5c8,0.5,15.6-18.5,18.5-29.8
				c-2.1,5.3-11.8,30.7-19.9,28.3c-1.9-0.7-3.8-1.2-5.8-1.6c0.8-8.8,4-15.8,10.7-19.6c1.2-1.8,2.7-3.6,4.2-5.1
				c-9.9,3.5-16.8,14.4-16.1,24.6c-1.1-0.1-2.2-0.1-3.3,0l0.2-17.2l-2.1-9.6l0.5,26.8c-6.3,1.9-11.6,5.9-19.1,27.8l0,0
				c-7.8,22.6,10.4,39.4,32.1,39.4c9.2,0,19-3.1,27.7-10C5144.6,1704.6,5157.1,1673.7,5128.3,1663.1z"/>
			<polygon class="st2" points="5114.7,1630.8 5114.7,1630.8 5114.7,1630.8 			"/>
		</g>
		<g id="Group_1_3_" transform="translate(5072 1624)">
			<path id="Path_839_2_" class="st3" d="M33.1,41.9c1.8-4.6,5.7-7.7,10.2-7.7c6.2,0,11.3,6.1,11.3,13.6s-5.1,13.6-11.3,13.6
				c-4.5,0-8.4-3.2-10.2-7.8c0.1-0.2,0.2-0.3,0.3-0.5c1.7,4.2,5.2,7.2,9.4,7.2c5.7,0,10.4-5.6,10.4-12.4s-4.6-12.4-10.4-12.4
				c-4.1,0-7.7,2.9-9.4,7.1C33.3,42.2,33.2,42.1,33.1,41.9z M25.1,36.4c2.9,0,5.5,1.9,7.1,4.8c-1.2-2.3-3.6-3.7-6.2-3.8
				c-4.4,0-7.9,4.6-7.9,10.3S22.5,58,26,58s4.7-1.9,6.1-4.2c-1.6,2.8-3.2,5.1-7,5.1c-3.8,0-8.7-5-8.7-11.2
				C16.4,41.5,20.3,36.4,25.1,36.4L25.1,36.4z"/>
			<path id="Path_840_2_" class="st3" d="M27.8,45.5c0.9,0,1.6-0.7,1.6-1.5c0-0.9-0.7-1.6-1.5-1.6c-0.9,0-1.6,0.7-1.6,1.5
				c0,0,0,0,0,0C26.3,44.8,27,45.4,27.8,45.5z"/>
			<path id="Path_842_2_" class="st3" d="M46.9,46.4c0.9,0,1.6-0.6,1.6-1.5c0-0.9-0.6-1.6-1.5-1.6s-1.6,0.6-1.6,1.5c0,0,0,0,0,0.1
				C45.4,45.7,46.1,46.4,46.9,46.4z"/>
			<path id="Path_843_2_" class="st3" d="M26.1,62.8l0.6,0.1l-2.3,23.4l-0.6-0.1L26.1,62.8z"/>
			<path id="Path_844_2_" class="st3" d="M38.6,65.3l0.6,0l1.5,23.5l-0.6,0L38.6,65.3z"/>
			<path id="Path_845_2_" class="st3" d="M51.6,64.2l0.5-0.1l3.1,19.7L54.6,84L51.6,64.2z"/>
			<g>
				<polygon class="st2" points="8.1,57.5 8.1,57.5 8.1,57.5 8.1,57.5 				"/>
				<path class="st2" d="M8.1,57.5c-4.3,39.6,64.1,47.3,56.7-0.1c0,0,0,0,0,0c0,0,0,0,0,0s0,0,0,0c-0.3,0.2-0.6,0.4-0.9,0.6
					c-0.3,0.2-0.6,0.5-1,0.7c-0.9,0.6-2.2,1.2-3.8,1.9C41.4,66.9,17.2,62.2,8.1,57.5 M9.3,58.9c7.6,7,37.3,10.1,53,2.1
					c0,0,0.3-0.1,0.5-0.3C67.3,101.9,5.8,94.4,9.3,58.9z"/>
			</g>
		</g>
	</g>
	<circle class="st1" cx="177.1" cy="53.6" r="4"/>
	<path id="Forma_1_3_" class="st4" d="M153,74.7c-1,0-2.1,0.3-2.9,1c-0.7,0.6-1.3,1.3-1.7,2c-0.4-0.8-1-1.5-1.7-2
		c-0.8-0.7-1.8-1-2.9-1c-2.9,0-5.2,2.4-5.2,5.6c0,3.5,2.8,5.8,7,9.4c0.7,0.6,1.5,1.3,2.4,2c0.2,0.2,0.6,0.2,0.8,0
		c0.8-0.7,1.6-1.4,2.4-2c4.2-3.6,7-6,7-9.4C158.1,77.1,155.9,74.7,153,74.7z"/>
	<g>
		<path class="st1" d="M86.6,71.9l5.2,15.7l5.3-15.7h1.5l5.3,15.7l5.2-15.7h2.7l-6.6,19h-2.4l-4.9-14.2L93,90.9h-2.4l-6.6-19H86.6z"
			/>
		<path class="st1" d="M125.1,88.7c-1.4,1.6-3.7,2.4-5.8,2.4c-4.1,0-7-2.7-7-7c0-4,2.9-6.9,6.9-6.9c4.1,0,7.2,2.5,6.7,7.9h-11.4
			c0.2,2.5,2.3,4,4.9,4c1.5,0,3.4-0.6,4.3-1.7L125.1,88.7L125.1,88.7z M123.8,83.2c-0.1-2.6-1.9-4-4.5-4c-2.3,0-4.4,1.4-4.7,4
			L123.8,83.2L123.8,83.2z"/>
	</g>
	<g>
		<path class="st5" d="M214.6,84.2c0,4.8-3.7,8.3-8.3,8.3s-8.3-3.5-8.3-8.3c0-4.8,3.7-8.3,8.3-8.3S214.6,79.4,214.6,84.2z M211,84.2
			c0-3-2.2-5-4.7-5s-4.7,2-4.7,5c0,3,2.2,5,4.7,5S211,87.2,211,84.2z"/>
		<path class="st6" d="M232.6,84.2c0,4.8-3.7,8.3-8.3,8.3s-8.3-3.5-8.3-8.3c0-4.8,3.7-8.3,8.3-8.3S232.6,79.4,232.6,84.2z M229,84.2
			c0-3-2.2-5-4.7-5s-4.7,2-4.7,5c0,3,2.2,5,4.7,5S229,87.2,229,84.2z"/>
		<path class="st7" d="M249.9,76.4v14.9c0,6.1-3.6,8.7-7.9,8.7c-4,0-6.5-2.7-7.4-4.9l3.2-1.3c0.6,1.4,2,3,4.2,3
			c2.7,0,4.4-1.7,4.4-4.9v-1.2h-0.1c-0.8,1-2.4,1.9-4.4,1.9c-4.2,0-8-3.6-8-8.3c0-4.7,3.8-8.3,8-8.3c2,0,3.6,0.9,4.4,1.9h0.1v-1.4
			L249.9,76.4L249.9,76.4z M246.7,84.3c0-2.9-2-5.1-4.4-5.1c-2.5,0-4.6,2.1-4.6,5.1c0,2.9,2.1,5,4.6,5
			C244.7,89.3,246.7,87.2,246.7,84.3z"/>
		<path class="st8" d="M255.6,67.7V92H252V67.7H255.6z"/>
		<path class="st5" d="M269.5,87l2.8,1.9c-0.9,1.4-3.1,3.7-6.9,3.7c-4.7,0-8.3-3.7-8.3-8.3c0-4.9,3.6-8.3,7.8-8.3
			c4.3,0,6.4,3.4,7.1,5.3l0.4,0.9l-11.1,4.6c0.9,1.7,2.2,2.5,4,2.5C267.3,89.3,268.6,88.4,269.5,87L269.5,87z M260.8,84l7.4-3.1
			c-0.4-1-1.6-1.8-3.1-1.8C263.3,79.1,260.7,80.8,260.8,84z"/>
		<path class="st7" d="M184.5,82.1v-3.5h11.9c0.1,0.6,0.2,1.3,0.2,2.1c0,2.6-0.7,5.9-3.1,8.3c-2.3,2.4-5.2,3.6-9,3.6
			c-7.1,0-13.1-5.8-13.1-12.9c0-7.1,6-12.9,13.1-12.9c3.9,0,6.7,1.5,8.9,3.6l-2.5,2.5c-1.5-1.4-3.6-2.5-6.4-2.5
			c-5.2,0-9.3,4.2-9.3,9.4c0,5.2,4.1,9.4,9.3,9.4c3.4,0,5.3-1.4,6.5-2.6c1-1,1.7-2.4,1.9-4.4L184.5,82.1z"/>
	</g>
</g>
</svg>
