<?xml version="1.0" encoding="UTF-8" standalone="no"?>
<!-- Created with Inkscape (http://www.inkscape.org/) -->
<svg xmlns:svg="http://www.w3.org/2000/svg" xmlns="http://www.w3.org/2000/svg" version="1.0" width="990.35431" height="207.28346" id="svg2">
  <defs id="defs4"/>
  <g transform="translate(116.92129,-338.61963)" id="layer1">
    <g transform="translate(35.40372,35.392161)" id="g31225">
      <path d="M -28.795615,415.09001 C -28.795615,415.09001 -59.115451,384.77025 -59.125465,384.77025 C -60.927824,382.91774 -63.370971,381.90646 -66.024482,381.90646 L -116.92129,381.90646 L -116.92129,401.27187 L -61.19811,401.27187 C -56.952604,401.27187 -52.957357,402.92402 -49.953371,405.92801 C -46.949465,408.93191 -45.297309,412.91715 -45.297309,417.17275 L -45.297309,472.88583 L -25.941913,472.88583 L -25.941913,421.98902 C -25.941913,419.34561 -26.953202,416.89237 -28.795615,415.09001" style="fill:#007cc5;fill-rule:nonzero;stroke:none" id="path38"/>
      <path d="M 25.195234,381.90646 C 22.551768,381.90646 20.09856,382.91774 18.296201,384.77025 L -12.023635,415.09001 C -13.866049,416.89237 -14.877338,419.34561 -14.877338,421.98902 L -14.877338,472.88583 L 4.4780586,472.88583 L 4.4780586,417.17275 C 4.4780586,408.40119 11.607388,401.27187 20.378939,401.27187 L 76.09204,401.27187 L 76.09204,381.90646 L 25.195234,381.90646" style="fill:#007cc5;fill-rule:nonzero;stroke:none" id="path42"/>
      <path d="M 209.20675,379.69354 C 199.83445,379.69354 190.17176,386.31226 185.7059,395.80471 L 185.5557,396.11513 L 184.29404,396.11513 L 184.29404,381.90646 L 169.60477,381.90646 L 169.60477,472.88583 L 185.36545,472.88583 L 185.36545,431.53162 C 185.36545,408.36114 195.43867,393.39152 211.00911,393.39152 C 214.37352,393.39152 217.30737,393.91222 219.85071,394.8434 L 219.85071,380.85511 C 216.47628,380.17419 213.99302,379.69354 209.20675,379.69354" style="fill:#007cc5;fill-rule:nonzero;stroke:none" id="path46"/>
      <path d="M 694.79406,388.47511 C 688.87629,382.54732 679.95458,379.67351 667.50825,379.67351 C 657.2648,379.67351 647.27168,382.50727 637.79925,388.04452 L 638.61032,401.2218 C 645.55944,395.64449 655.47244,392.18997 664.8047,392.18997 C 672.78517,392.18997 678.48265,394.01236 682.23757,397.76728 C 686.21279,401.73249 688.06522,407.81047 688.06522,416.88235 L 688.06522,417.47315 L 687.48446,417.4331 C 680.77566,417.07261 676.03944,417.07261 669.49085,417.08262 C 658.30617,417.07261 643.26643,420.16664 634.56501,428.86809 C 629.74868,433.68437 627.30548,439.74233 627.30548,446.85171 C 627.30548,455.20262 629.70863,461.83135 634.44485,466.57761 C 640.04219,472.16493 649.04401,475.11877 660.47902,475.11877 C 676.93061,475.11877 685.55192,465.50616 688.49579,461.37073 L 688.656,461.14041 L 689.85757,461.14041 L 689.85757,472.8658 L 703.82591,472.8658 L 703.82591,417.17275 C 703.82591,403.93539 700.88205,394.55301 694.79406,388.47511 z M 688.06522,428.93819 L 688.06522,437.61954 C 688.06522,444.83907 685.75219,450.99717 681.39648,455.43293 C 676.7704,460.12912 670.04157,462.60239 661.92091,462.61241 C 656.97442,462.61241 651.83768,460.53968 648.5033,457.21526 C 645.72966,454.43165 644.24772,450.88702 644.24772,446.95185 C 644.24772,430.37005 666.9375,428.5777 676.70031,428.5777 C 678.51268,428.5777 680.35511,428.66782 682.12743,428.75795 C 683.89976,428.84807 685.72215,428.93819 687.5145,428.93819 L 688.06522,428.93819" style="fill:#007cc5;fill-rule:nonzero;stroke:none" id="path50"/>
      <path d="M 285.2165,388.47511 C 279.28873,382.54732 270.36701,379.67351 257.92068,379.67351 C 247.67724,379.67351 237.68412,382.50727 228.21168,388.04452 L 229.02275,401.2218 C 235.97188,395.64449 245.88488,392.18997 255.21713,392.18997 C 263.1976,392.18997 268.9051,394.01236 272.65001,397.76728 C 276.62523,401.73249 278.47766,407.81047 278.47766,416.88235 L 278.47766,417.47315 L 277.8969,417.4331 C 271.1981,417.07261 266.46189,417.07261 259.90328,417.08262 C 248.72861,417.07261 233.67886,420.16664 224.98746,428.86809 C 220.16112,433.68437 217.71791,439.74233 217.71791,446.85171 C 217.71791,455.20262 220.12107,461.83135 224.86729,466.57761 C 230.45463,472.16493 239.45645,475.11877 250.89145,475.11877 C 267.34305,475.11877 275.96436,465.50616 278.90823,461.37073 L 279.07845,461.14041 L 280.27001,461.14041 L 280.27001,472.8658 L 294.24836,472.8658 L 294.24836,417.17275 C 294.24836,403.93539 291.28447,394.55301 285.2165,388.47511 z M 278.47766,428.93819 L 278.47766,437.61954 C 278.47766,444.83907 276.16463,450.99717 271.80891,455.43293 C 267.19285,460.12912 260.454,462.60239 252.33335,462.61241 C 247.38685,462.61241 242.25011,460.53968 238.92575,457.21526 C 236.1421,454.43165 234.67016,450.88702 234.67016,446.95185 C 234.67016,430.37005 257.35994,428.5777 267.11274,428.5777 C 268.92512,428.5777 270.76754,428.66782 272.54988,428.75795 C 274.31219,428.84807 276.13459,428.93819 277.92694,428.93819 L 278.47766,428.93819" style="fill:#007cc5;fill-rule:nonzero;stroke:none" id="path54"/>
      <path d="M 379.59037,388.13464 C 373.973,382.51728 365.87236,379.67351 355.50876,379.67351 C 342.50169,379.67351 330.55601,386.25218 325.79976,396.05504 L 325.64957,396.37548 L 324.38792,396.37548 L 324.38792,381.92648 L 309.16794,381.92648 L 309.16794,472.88583 L 324.93864,472.88583 L 324.93864,430.84068 C 324.93864,419.03519 327.24166,409.67292 331.78763,403.02416 C 336.70408,395.83475 344.02369,392.18997 353.54618,392.18997 C 367.97512,393.0811 373.6025,402.4634 373.6025,425.67393 L 373.6025,472.88583 L 389.37321,472.88583 L 389.37321,418.61462 C 389.37321,404.87658 386.07888,394.62311 379.59037,388.13464" style="fill:#007cc5;fill-rule:nonzero;stroke:none" id="path58"/>
      <path d="M 533.222,420.44702 C 524.52058,416.4718 516.29979,412.72689 516.29979,403.99547 C 516.29979,396.81599 522.87843,392.18997 533.06179,392.18997 C 536.77666,392.18997 546.07887,394.27271 550.45461,396.5957 L 551.76634,383.16808 C 544.79719,381.06532 538.58904,379.67351 531.25943,379.67351 C 520.74563,379.67351 512.20441,382.65747 506.56701,388.29486 C 501.78074,393.0811 499.35755,399.51957 499.35755,407.43997 C 499.35755,421.45839 511.46344,427.37616 522.14746,432.60299 C 530.91898,436.87862 539.18983,440.93395 539.18983,448.81429 C 539.18983,452.37896 538.01829,455.36283 535.70526,457.67588 C 531.25943,462.12174 524.18013,462.60239 521.35643,462.60239 C 516.85052,462.60239 507.67848,460.66986 500.73937,456.45431 L 499.91829,470.32252 C 508.10904,474.55809 517.39122,475.11877 524.59067,475.11877 C 533.09183,475.11877 540.86203,472.70559 546.44936,468.29986 C 552.78767,463.30326 556.14208,455.94362 556.14208,446.9919 C 556.14208,430.90077 543.9661,425.3535 533.222,420.44702" style="fill:#007cc5;fill-rule:nonzero;stroke:none" id="path62"/>
      <path d="M 611.11423,462.61241 C 607.20911,462.61241 603.6244,461.16044 601.01097,458.55708 C 597.92692,455.47298 596.3048,450.97714 596.3048,445.55997 L 596.3048,394.42292 L 620.66677,394.42292 L 620.66677,381.90646 L 596.3048,381.90646 L 596.3048,355.4017 L 580.52408,360.46832 L 580.52408,381.90646 L 559.76684,381.90646 L 559.76684,394.42292 L 580.52408,394.42292 L 580.52408,449.00455 C 580.52408,457.29537 582.747,463.71382 587.13276,468.08958 C 591.78887,472.75565 598.88818,475.11877 608.22043,475.11877 C 613.54742,475.11877 618.79431,473.68691 622.10866,472.74564 L 622.10866,459.71857 C 618.8644,461.61105 615.17957,462.61241 611.11423,462.61241" style="fill:#007cc5;fill-rule:nonzero;stroke:none" id="path66"/>
      <path d="M 786.85488,338.61963 L 786.85488,394.38286 L 785.63328,394.38286 L 785.47307,394.12251 C 779.53527,384.52993 769.44203,379.67351 755.47369,379.67351 C 744.8097,379.67351 735.94807,383.11801 729.14915,389.91698 C 720.8883,398.17784 716.34234,410.88448 716.34234,425.68395 C 716.34234,442.11546 721.31887,456.51439 730.00027,465.18573 C 736.58891,471.78442 745.10008,475.11877 755.29346,475.11877 C 770.87391,475.11877 781.47782,467.46874 786.20403,460.29936 L 786.36424,460.04902 L 787.56581,460.04902 L 787.56581,472.8658 L 802.62558,472.8658 L 802.62558,338.61963 L 786.85488,338.61963 z M 786.85488,427.57643 C 786.85488,438.71102 783.04989,449.15475 776.67152,455.53306 C 771.98537,460.22926 766.12768,462.61241 759.25866,462.61241 C 753.08055,462.61241 747.71351,460.3294 743.32775,455.83347 C 735.5876,447.89304 733.08431,435.35664 733.28457,427.04571 C 733.03424,415.32032 736.34859,405.06684 742.36649,398.90875 C 746.73222,394.45296 752.35961,392.18997 759.07843,392.18997 C 766.01753,392.18997 771.95533,394.60308 776.71157,399.35936 C 783.16003,405.80784 786.85488,416.09128 786.85488,427.57643" style="fill:#007cc5;fill-rule:nonzero;stroke:none" id="path70"/>
      <path d="M 472.51232,338.61963 L 472.51232,394.38286 L 471.29072,394.38286 L 471.13051,394.12251 C 465.1827,384.52993 455.08945,379.67351 441.13114,379.67351 C 430.45712,379.67351 421.5955,383.11801 414.80658,389.91698 C 406.54575,398.17784 401.98976,410.88448 401.98976,425.68395 C 401.98976,442.11546 406.97631,456.51439 415.64769,465.18573 C 422.23633,471.78442 430.74751,475.11877 440.95089,475.11877 C 456.52134,475.11877 467.12525,467.46874 471.85145,460.29936 L 472.01166,460.04902 L 473.22325,460.04902 L 473.22325,472.8658 L 488.27301,472.8658 L 488.27301,338.61963 L 472.51232,338.61963 z M 472.51232,427.57643 C 472.51232,438.71102 468.69731,449.15475 462.32896,455.53306 C 457.63279,460.22926 451.7751,462.61241 444.9161,462.61241 C 438.72798,462.61241 433.37095,460.3294 428.9852,455.83347 C 421.24503,447.89304 418.73173,435.35664 418.94201,427.04571 C 418.69168,415.32032 421.99602,405.06684 428.02393,398.90875 C 432.38966,394.45296 438.00704,392.18997 444.73587,392.18997 C 451.67497,392.18997 457.60275,394.60308 462.359,399.35936 C 468.80746,405.80784 472.51232,416.09128 472.51232,427.57643" style="fill:#007cc5;fill-rule:nonzero;stroke:none" id="path74"/>
    </g>
  </g>
</svg>