<svg xmlns="http://www.w3.org/2000/svg" style="background:#ff9934" viewBox="0 0 90 90"><path fill="#fff" d="M29.16 44.8a1.65 1.65 0 0 0-2.33 0 1.65 1.65 0 0 0 .01 2.34l17.08 17a1.65 1.65 0 0 0 2.32 0l17.07-17a1.65 1.65 0 0 0 0-2.33 1.65 1.65 0 0 0-2.32 0L45.08 60.64Zm-7.84 16.68v2.46c0 3.24 2.66 5.9 5.9 5.9h35.7a5.92 5.92 0 0 0 5.92-5.9v-2.46h-3.36v2.46a2.5 2.5 0 0 1-2.54 2.54H27.21a2.5 2.5 0 0 1-2.54-2.54v-2.46zM33.76 21H56.4v4.27H33.76Zm0 6.05H56.4v4.28H33.76Zm0 6.06H56.4v4.27H33.76Zm0 6.05H56.4v6.41l-11.31 11.1-11.32-11.1Z"/></svg>
