<svg xmlns="http://www.w3.org/2000/svg" xmlns:xlink="http://www.w3.org/1999/xlink" viewBox="0 0 26.68 26.68"><g transform="translate(-114.287 -76.146)"><use xlink:href="#a" width="100%" height="100%" transform="rotate(120 129.685 87.662)"/><use xlink:href="#a" width="100%" height="100%" transform="rotate(-120 129.685 87.662)"/><path d="M131.676 88.653c-.392-.12-.632-.31-.725-.435-.133-.183.005-.424.456-.282.394.124 1.013.631 1.293.84a2.963 2.963 0 01-1.024-.123zm9.173-11.843a.421.421 0 00-.133-.143.428.428 0 00-.727-.39l-.24.25-.448.18a.786.786 0 00-.46-.016.333.333 0 01-.192.002 1.122 1.122 0 00-.627.04 1.035 1.035 0 00-.394.07c-.226.074-.36.247-.457.373l-.04.052c-.615.157-.884.498-1 .761-.035.08-.06.164-.079.25a2.193 2.193 0 00-.361-.218c-.716-.329-1.637-.192-2.294.338-.698.565-.977 1.436-.764 2.39.085.38.24.761.473 1.166.486.84 1.22 1.617 1.931 2.368.627.663 1.218 1.289 1.557 1.875.023.037.042.073.061.108.439.837.358 1.452-.242 1.828a1.52 1.52 0 01-.634.222c.212-.62.305-1.488-.162-2.295a2.565 2.565 0 00-.331-.452c-.88-.962-1.81-.748-2.18-.5a.428.428 0 00.289.78c.39-.048.82.212 1.071.645.104.18.37.756-.01 1.383a5.22 5.22 0 01-.598-.572l-.075-.079a1.725 1.725 0 01-.043-.048c-.729-.8-1.443-1.25-2.13-1.344-2.643.665-2.528 2.886-1.304 4.41.458.259 1.01.4 1.622.414a4.85 4.85 0 002.176-.482c.118-.056.213-.11.301-.166 1.683.696 3.09.133 3.861-.656a2.996 2.996 0 00.55-3.484 4.255 4.255 0 00-.164-.304c-.54-.937-1.331-1.754-2.094-2.541-.65-.67-1.263-1.304-1.674-1.958-.025-.037-.047-.076-.07-.114-.24-.415-.33-.713-.282-.943a.452.452 0 01.269-.326c.246-.119.493.087.918.563.124.14.241.27.362.37.312.26.675.378 1.023.331.33-.044.626-.232.832-.529.198-.284.346-.772-.066-1.487a3.144 3.144 0 00-.097-.158c.168.022.395.05.616-.051.172-.08.268-.149.336-.22.27-.127.384-.262.484-.4.047-.063.066-.09.147-.136a.8.8 0 00.332-.36l.425-.172.346.016a.43.43 0 00.444-.366.433.433 0 00-.054-.276" id="a" display="inline" fill="#4fbe37" stroke-width=".353"/> <use xlink:href="#b" transform="rotate(120 129.685 87.662)" width="100%" height="100%"/><use xlink:href="#b" transform="rotate(-120 129.685 87.662)" width="100%" height="100%"/><path d="M131.552 89.063c-.486-.149-.826-.441-.977-.7-.276-.474.05-1.142.985-.83.725.242 1.641 1.132 2.11 1.492-.69.255-1.494.229-2.118.038zm8.927-12.04l-.388-.097.208-.353-.304.318-.735.294c-.054-.068-.154-.119-.315-.08-.392.101-.405-.11-.842.052-.088.034-.06-.043-.34.052-.196.065-.306.384-.463.419-1.002.22-.982 1.013-.602 1.543.103.146.157.242.105.299-.038.042-.127.079-.24-.093-.22-.34-.677-.795-1.05-.967-1.135-.52-2.864.442-2.462 2.245.447 2.002 3.121 3.775 3.982 5.412.636 1.208.257 1.982-.393 2.39a1.987 1.987 0 01-1.514.243c.351-.535.754-1.844-.157-2.842-.862-.945-1.625-.433-1.625-.433 1.23-.151 2.482 1.669 1.202 3.034-.486-.286-.847-.698-1.073-.94-.188-.198-1.2-1.407-2.324-1.264-2.382 1.422-1.735 1.8-.977 3.378.94.792 2.523.75 3.745.158.174-.084.296-.162.443-.27 2.846 1.355 5.189-1.24 4.074-3.46-.908-1.808-2.933-3.205-3.913-4.766-.464-.74-.694-1.617.095-1.997.758-.364 1.33.65 1.738.99.453.378.948.294 1.23-.113.326-.468-.103-1.06-.215-1.237-.25-.395.07-.568.226-.6.145-.03.426.083.614-.004.27-.125.197-.16.283-.197.429-.182.298-.337.649-.54.136-.08.192-.196.171-.302l.729-.292.438.02" id="b" display="inline" fill="#110b09" stroke-width=".353"/></g></svg>