<?xml version="1.0" encoding="utf-8"?>
<!-- Generator: Adobe Illustrator 27.5.0, SVG Export Plug-In . SVG Version: 6.00 Build 0)  -->
<svg version="1.1" id="Layer_1" xmlns="http://www.w3.org/2000/svg" xmlns:xlink="http://www.w3.org/1999/xlink" x="0px" y="0px"
	 viewBox="0 0 343 358" style="enable-background:new 0 0 343 358;" xml:space="preserve">
<style type="text/css">
	.st0{fill:#D64309;}
</style>
<path class="st0" d="M171.3,102.6c0,0-69-2.1-69,52.4c0,54.5,32.8,99.8,69,99.8c36.2,0,69-45.4,69-99.8
	C240.3,100.5,171.3,102.6,171.3,102.6z M154.6,171.1c-1.7,3.7-5.1,5.6-9.9,5.6c-4.9,0-8.3-1.9-9.9-5.6c-0.7-1.5-1-3.2-1-5.4
	c0-2.3,0.3-3.9,1-5.5c1.7-3.7,5-5.5,9.9-5.5c4.8,0,8.2,1.8,9.9,5.5c0.7,1.6,1,3.2,1,5.5C155.6,167.9,155.3,169.6,154.6,171.1z
	 M214.1,152.1c-4.3-0.6-17.1-0.7-23.9,5.3c-3.4,3-5.1,7.4-5.1,13.3v40.2h-15.4v-40.2c0-10.4,3.6-19,10.4-24.9
	c13.3-11.6,33.7-9.2,36-8.9L214.1,152.1z"/>
</svg>
