<svg viewBox="0 0 90 90" xmlns="http://www.w3.org/2000/svg"><g fill="none"><path d="M45.155.025c-.033.034-1.094.1-2.34.167-1.245.05-2.49.134-2.776.168-.27.05-1.077.167-1.767.267-3.282.468-7.49 1.656-10.738 3.043A45.529 45.529 0 0 0 3.787 27.014C1.867 31.28.52 36.462.117 41.027-.1 43.57 0 48.97.304 50.56c.033.167.117.736.168 1.237.084.753.522 2.793 1.027 4.766.05.184.134.585.185.87.05.3.151.552.219.552.067 0 .134.1.134.234 0 .518.943 3.093 1.111 2.993.1-.05.118-.017.067.067-.151.25.286 1.254.472 1.103.067-.083.084-.033.016.084-.084.134.085.72.421 1.421.572 1.238 2.541 4.816 2.844 5.184.101.117.489.686.859 1.271.64 1.003 2.827 3.78 3.787 4.833 6.547 7.04 14.39 11.655 23.293 13.729 1.161.267 2.474.535 2.911.602.455.05.993.133 1.178.184 2.188.418 11.075.418 12.74-.017.136-.05.523-.117.842-.167 2.794-.435 7.204-1.64 9.257-2.525.32-.15.74-.318.926-.385.185-.067 1.094-.485 2.02-.92 7.304-3.444 13.598-8.88 18.193-15.735 1.8-2.659 2.912-4.816 4.207-8.16.556-1.422 1.549-4.633 1.7-5.469.034-.234.135-.685.22-1.003.083-.318.201-.853.252-1.17.05-.318.117-.77.168-1.004.505-2.642.64-8.31.27-11.12-.203-1.555-.809-4.348-1.01-4.732-.068-.117-.455.953-.876 2.458-.404 1.455-.757 2.642-.774 2.625-.017-.016-.084-.485-.135-1.02-.185-1.923-.269-2.525-.673-4.515-.437-2.19-1.313-5.05-2.053-6.772-.572-1.304-1.767-3.512-1.902-3.512-.067 0-.118 1.305-.118 2.876-.05 8.78-1.144 16.455-3.231 22.558-1.094 3.228-3.333 8.01-4.965 10.652-3.905 6.271-9.863 11.187-16.763 13.846-1.464.552-4.746 1.472-5.975 1.656-4.948.769-8.87.685-13.33-.268-12.942-2.76-23.377-13.36-25.868-26.32-.387-1.99-.42-2.174-.555-3.997-.168-2.408-.084-5.802.202-7.124.034-.217.118-.685.168-1.02.05-.334.286-1.354.522-2.257.236-.92.438-1.773.471-1.906.354-1.505 2.44-5.987 3.67-7.943 2.558-4.014 6.479-7.927 10.586-10.552 3.786-2.408 9.054-4.33 13.784-5.017 1.211-.167 6.361-.217 7.657-.05 3.3.385 3.753.452 5.89.836 7.71 1.405 15.4 4.716 24.455 10.569 1.212.802 2.222 1.354 2.222 1.237 0-.334-1.633-3.06-2.66-4.448-1.834-2.508-4.291-5.033-6.832-7.023-.808-.652-1.448-1.187-1.38-1.187.05 0 .387.1.723.234 1.515.568 4.46 1.455 4.612 1.404.1-.033-.522-.769-1.397-1.622-4.208-4.197-9.678-7.441-15.905-9.43C56.465 1.63 53.587.91 52.325.726c-.37-.066-1.28-.2-2.02-.317-.757-.117-2.154-.234-3.113-.268-.976-.017-1.801-.067-1.868-.117-.05-.033-.135-.033-.169 0Z" fill="#B8D995"/><path d="m44.845 89.975.048-.012.296-.031.676-.048 1.32-.076 1.47-.073 1.167-.08.14-.015.195-.033.803-.122.768-.112c3.282-.468 7.49-1.656 10.738-3.043a45.525 45.525 0 0 0 23.747-23.344c1.92-4.265 3.266-9.448 3.67-14.013.023-.276.043-.585.06-.92l.027-.699.019-.751.01-.788c-.01-1.452-.079-2.806-.21-3.8l-.056-.396-.068-.432-.08-.456-.133-.708-.192-.926-.143-.634-.09-.372-.084-.319-.075-.254a1.629 1.629 0 0 0-.089-.236c-.012-.022-.035-.004-.066.05l-.054.104-.066.153-.119.314-.138.404-.154.483-.164.55-.606 2.13-.222.731-.056.16c-.002.003-.003.005-.004.004l-.014-.051-.021-.128-.041-.302-.045-.395-.116-1.16-.065-.567-.069-.521-.079-.516a28.33 28.33 0 0 0-.045-.267l-.106-.579-.207-1.049c-.437-2.19-1.313-5.05-2.053-6.772l-.142-.316-.245-.515-.178-.358-.368-.716-.27-.502-.248-.44-.144-.246-.124-.196c-.092-.141-.157-.223-.183-.223-.01 0-.018.024-.026.07l-.017.12-.015.173-.026.486-.023.822-.01.993v.212c-.051 8.78-1.145 16.455-3.232 22.558a44.95 44.95 0 0 1-1.008 2.655l-.403.954c-1.108 2.57-2.466 5.282-3.554 7.043-3.905 6.271-9.863 11.187-16.763 13.846l-.233.086-.536.184-.297.097-.638.2-.678.201-.346.1-.694.193-.34.091-.657.17-.603.144c-.38.087-.707.153-.953.19-4.767.74-8.58.69-12.841-.167l-.862-.122-.822-.132-.938-.164-.365-.065c-7.708-1.405-15.4-4.716-24.454-10.569l-.505-.327-.466-.29-.412-.244-.346-.191-.186-.095a3.307 3.307 0 0 0-.078-.036l-.125-.051c-.067-.023-.104-.025-.104-.003 0 .048.033.144.094.279l.109.229.145.277.175.318.309.536.35.58.374.6.382.59.25.373.243.35.228.316c1.72 2.351 3.987 4.718 6.358 6.644l.616.493.734.603.336.289.107.098c.055.054.078.083.062.083l-.072-.014-.14-.04-.185-.06-.214-.076-.274-.104-.536-.19-.59-.2-.823-.265-.993-.305-.833-.238-.369-.095-.174-.038-.106-.015a.08.08 0 0 0-.026.002c-.028.009 0 .072.074.178l.11.145.149.18.185.211.218.237.247.257.27.273.144.14c4.067 4.058 9.314 7.225 15.285 9.229l.62.203c.198.065.408.131.625.198l.673.2.702.198.714.191.356.092.696.173.662.155.61.133.538.106c.165.03.316.056.449.076l.584.095 1.436.222.245.035.58.068c.209.022.43.043.656.062l.68.052c.337.023.664.04.952.05l.53.014.745.033.327.025.153.018.092.019.021.009c.05.033.135.033.169 0Z" fill="#9FD3EE"/></g></svg>