<svg fill="none" height="91px" version="1.1" viewBox="0 0 424 91" width="424px" xmlns="http://www.w3.org/2000/svg"><path clip-rule="evenodd" d="M342.734 0V26.4835C338.678 21.3701 332.696 18.2801 325.463 18.2801C311.569 18.2801 301.254 29.3751 301.254 44.0363C301.254 58.6974 311.578 69.7924 325.463 69.7924C332.987 69.7924 338.581 67.055 342.734 61.4612V68.6375H353.538V0H342.734ZM327.583 59.3806C318.802 59.3806 312.345 52.7245 312.345 44.0407C312.345 35.3568 318.802 28.7007 327.583 28.7007C336.364 28.7007 342.734 35.3568 342.734 44.0407C342.734 52.7245 336.276 59.3806 327.583 59.3806ZM283.291 41.6118V56.4713H283.287V68.6199H294.091V38.0413C294.091 26.3688 286.28 18.6548 274.607 18.6548C267.665 18.6548 261.97 21.2599 258.016 26.0823V19.4174H247.211V68.6243H258.016V41.4179C258.016 34.1887 263.226 29.0754 271.041 29.0754C278.469 29.0754 283.291 34.0873 283.291 41.6118ZM157.217 68.6198V19.4262H168.021V27.6295C171.878 22.0357 177.569 18.6592 184.516 18.6592H186.248V29.7542H184.516C174.1 29.7542 168.021 35.6345 168.021 44.7063V68.6287H157.217V68.6198ZM229.249 19.4218V26.4658C225.193 21.7448 219.212 18.6592 211.978 18.6592C198.084 18.6592 187.769 29.7542 187.769 44.4153C187.769 59.0764 198.093 70.1715 211.978 70.1715C219.106 70.1715 225.101 67.1343 229.249 62.0607V68.6287H240.053V19.4218H229.249ZM214.098 59.7509C205.317 59.7509 198.86 53.0947 198.86 44.4109C198.86 35.7271 205.317 29.071 214.098 29.071C222.879 29.071 229.249 35.7271 229.249 44.4109C229.249 53.0947 222.791 59.7509 214.098 59.7509ZM397.47 69.8321C386.19 69.8292 378.664 62.3053 378.664 50.8246V21.8947H389.468V47.6509C389.468 54.7875 394.004 59.4203 400.951 59.4203C408.286 59.4203 413.201 54.6949 413.201 47.4613V21.8991H424.005V68.4921C424.005 81.8087 414.457 90.5851 401.14 90.5851C390.045 90.5851 381.555 84.3169 379.047 74.1872H390.138C391.782 78.2426 396.318 80.8434 401.33 80.8434C408.078 80.8434 413.192 76.1179 413.192 68.9725V62.6029C409.432 67.3283 404.032 69.8365 397.464 69.8365L397.47 69.8321ZM371.5 68.6419H360.696V0H371.5V68.6419ZM101.063 44.4683C101.297 43.7982 101.451 43.2296 101.543 42.8549V0.211609H111.902V23.1731C112.929 22.4678 114.058 21.8022 115.297 21.2071C118.294 19.7656 123.134 18.1699 129.147 18.7694C130.398 18.8973 131.575 19.1133 132.699 19.3866C143.808 21.4098 151.76 31.4778 151.76 44.3493C151.76 53.2359 147.237 62.5104 139.285 67.0021C134 69.9908 128.706 70.0172 126.885 70.004C124.329 69.9864 118.845 69.5764 113.361 66.1734C109.474 63.7622 106.838 60.6193 105.052 57.6439C101.839 61.426 97.1266 65.4108 90.4749 67.7647C86.9881 68.9946 82.6771 70.0437 78.0839 70.0437C73.6009 70.0437 68.8491 69.0431 64.3441 66.2396C63.6079 65.7855 62.8057 65.2345 61.9725 64.5777C59.4688 66.1161 57.6218 66.9228 55.1577 67.6016C52.6363 68.2981 49.7314 68.6904 47.6993 68.6816H47.6156C39.0772 68.6816 32.8443 65.1243 28.8109 58.0847L19.9904 44.3845H11.17V68.5053H0V3.75126H28.3393C40.3423 3.75126 49.5419 12.5761 49.5419 24.3059C49.5419 34.3474 42.6874 42.0394 33.0206 43.9173L39.2139 52.8347C40.3203 54.5847 41.5854 55.603 42.3788 56.1452C47.0552 59.3407 51.4335 57.8884 52.2845 57.6061C52.3269 57.5921 52.3606 57.5809 52.3851 57.5734C53.6281 57.1899 54.5759 56.6653 55.1798 56.2774L54.9814 55.8674C50.2075 45.7025 52.5746 32.9809 60.6105 25.6151C66.1646 20.5282 75.7256 17.1341 84.5637 21.0175C89.8093 23.3185 95.9056 28.401 95.8307 35.1321C95.791 38.4866 94.1159 40.6553 91.6078 42.8814C89.3817 44.8562 85.5864 47.6905 78.6922 52.8391L77.8371 53.4783C77.4359 53.7957 75.1614 55.5633 71.5688 58.1155C74.0109 58.8296 80.094 60.227 86.9441 57.7761C87.8345 57.4588 97.8231 53.7163 101.063 44.4683ZM11.17 34.6295H28.0571H28.0615C33.7876 34.6295 38.103 30.2215 38.103 24.4029C38.103 18.5843 33.7832 14.2688 28.0615 14.2688H11.17V34.6295ZM71.3342 45.1161L71.3396 45.1118L71.3352 45.1074L71.441 45.0281L72.3491 44.3493C78.895 39.4607 83.497 36.0225 85.0751 34.5061C84.5373 33.4834 82.6683 31.7555 80.3012 30.7152C79.0625 30.173 77.7842 29.9438 76.5279 29.9438C72.9662 29.9438 69.5764 31.7775 67.7735 33.4261C63.004 37.7989 62.2414 45.2132 64.1633 50.375C68.4808 47.3455 71.1923 45.2269 71.3342 45.1161ZM111.902 44.3493C111.902 52.892 118.193 59.4424 126.515 59.4424L126.511 59.438C134.842 59.438 141.035 52.8876 141.035 44.3448C141.035 35.8021 134.833 29.2517 126.511 29.2517C125.497 29.2517 124.514 29.3531 123.57 29.5383C123.533 29.5471 123.495 29.5548 123.458 29.5625C123.421 29.5702 123.383 29.5779 123.346 29.5867C123.2 29.6176 123.05 29.6529 122.905 29.6881C122.874 29.6969 122.842 29.7047 122.81 29.7124C122.778 29.7201 122.746 29.7278 122.715 29.7366C116.35 31.394 111.902 37.1642 111.902 44.3493Z" fill="black" fill-rule="evenodd"></path></svg>