<?xml version="1.0" encoding="UTF-8"?>
<!DOCTYPE svg PUBLIC "-//W3C//DTD SVG 1.1//EN" "http://www.w3.org/Graphics/SVG/1.1/DTD/svg11.dtd">
<svg xmlns="http://www.w3.org/2000/svg" version="1.1" width="1200px" height="1500px" style="shape-rendering:geometricPrecision; text-rendering:geometricPrecision; image-rendering:optimizeQuality; fill-rule:evenodd; clip-rule:evenodd" xmlns:xlink="http://www.w3.org/1999/xlink">
<g><path style="opacity:0.999" fill="#7cb342" d="M 248.5,50.5 C 304.5,50.5 360.5,50.5 416.5,50.5C 416.333,162.834 416.5,275.167 417,387.5C 463.158,333.548 521.658,311.714 592.5,322C 621.211,325.695 647.211,336.029 670.5,353C 693.13,369.295 711.963,389.128 727,412.5C 736.716,433.069 742.383,454.736 744,477.5C 744.856,485.484 745.523,493.484 746,501.5C 746.667,760.167 746.667,1018.83 746,1277.5C 744.931,1301.25 741.264,1324.58 735,1347.5C 727.824,1365 717.824,1380.67 705,1394.5C 660.653,1440.51 606.486,1459.34 542.5,1451C 508.878,1448.13 478.545,1436.8 451.5,1417C 439.841,1407.01 428.508,1396.67 417.5,1386C 402.255,1378.15 387.255,1378.15 372.5,1386C 321.478,1439.78 259.478,1458.78 186.5,1443C 116.39,1421.89 71.5569,1376.06 52,1305.5C 37.0037,1228.41 59.1704,1164.57 118.5,1114C 145.794,1093.36 176.461,1080.36 210.5,1075C 231.775,1067.37 243.942,1052.2 247,1029.5C 248.491,703.18 248.991,376.847 248.5,50.5 Z M 488.5,488.5 C 525.651,484.321 552.817,498.655 570,531.5C 573.47,540.851 575.137,550.517 575,560.5C 575.986,784.18 575.652,1007.85 574,1231.5C 570.781,1249.77 561.615,1264.27 546.5,1275C 524.716,1290.02 501.049,1293.68 475.5,1286C 450.46,1275.63 430.96,1258.8 417,1235.5C 416.333,1003.5 416.333,771.5 417,539.5C 429.606,521.452 445.439,506.952 464.5,496C 472.328,492.55 480.328,490.05 488.5,488.5 Z"/></g>
<g><path style="opacity:1" fill="#7bb342" d="M 1126.5,319.5 C 1132.83,319.5 1139.17,319.5 1145.5,319.5C 1145.83,381.837 1145.5,444.17 1144.5,506.5C 1116.31,484.358 1085.31,479.525 1051.5,492C 1040.07,497.435 1029.74,504.435 1020.5,513C 1013.33,520.833 1006.17,528.667 999,536.5C 998.5,838.5 998.333,1140.5 998.5,1442.5C 942.5,1442.5 886.5,1442.5 830.5,1442.5C 830.5,1071.5 830.5,700.5 830.5,329.5C 886.5,329.5 942.5,329.5 998.5,329.5C 998.333,348.836 998.5,368.17 999,387.5C 1031.29,345.77 1073.79,323.104 1126.5,319.5 Z"/></g>
<g><path style="opacity:1" fill="#f9ec00" d="M 220.5,1166.5 C 269.575,1163.94 304.075,1184.94 324,1229.5C 336.379,1271.49 326.546,1307.32 294.5,1337C 260.872,1361.72 225.205,1365.06 187.5,1347C 151.009,1324.85 134.509,1292.35 138,1249.5C 144.7,1212.27 165.533,1186.43 200.5,1172C 207.192,1169.83 213.859,1168 220.5,1166.5 Z"/></g>
</svg>
