<svg xmlns="http://www.w3.org/2000/svg" viewBox="0 0 385.305 500">
  <path fill="#95c11f" d="M161.351 155.67c6.587.421 12.619 2.83 16.488 6.699 5.154 5.154 7.725 10.309 7.725 18.047V414.96c0 7.725-2.571 12.865-7.725 18.019-6.446 6.44-14.185 7.725-23.209 6.44-9.016-1.285-18.019-7.725-24.465-19.325V173.963c7.731-10.309 16.734-16.755 24.465-18.047a32.774 32.774 0 0 1 6.721-.253v.007ZM70.876 0v344.091c0 10.309-3.862 19.312-15.449 21.896C24.494 371.141 0 398.198 0 431.701c0 37.373 29.669 67.028 65.743 67.028 16.748 0 30.912-6.461 42.512-15.484l5.155-5.155c2.577-2.577 5.154-3.862 7.724-3.862 3.87 0 6.461 1.285 10.323 3.862 12.886 14.171 29.634 21.91 48.952 21.91h2.598c14.171 0 25.758-3.869 34.782-10.309 10.309-6.446 16.748-14.157 20.61-23.18 3.862-9.024 6.447-23.209 6.447-42.534V173.97c0-20.618-2.578-34.803-6.447-43.819-3.862-9.024-11.587-16.741-20.61-23.181-10.309-6.446-21.91-10.322-37.38-10.322-20.617 0-37.351 7.738-50.237 24.493V0H70.876Z"/>
  <path fill="#feeb17" d="M65.736 396.92c19.332 0 33.496 15.449 33.496 34.781 0 19.333-15.449 34.81-33.496 34.81-18.048 0-33.525-15.477-33.525-34.81 0-19.332 15.484-34.781 33.525-34.781Z"/>
  <path fill="#95c11f" d="M385.305 95.362c-20.617 0-38.657 7.739-51.543 24.494V99.239h-57.99v396.899h57.99V172.692c9.016-10.323 16.755-16.762 25.771-18.047 10.309-1.293 18.048 1.278 25.772 7.724V95.362Z"/>
</svg>
