<?xml version="1.0" encoding="UTF-8" standalone="no"?>
<svg
   xmlns:dc="http://purl.org/dc/elements/1.1/"
   xmlns:cc="http://creativecommons.org/ns#"
   xmlns:rdf="http://www.w3.org/1999/02/22-rdf-syntax-ns#"
   xmlns:svg="http://www.w3.org/2000/svg"
   xmlns="http://www.w3.org/2000/svg"
   xmlns:sodipodi="http://sodipodi.sourceforge.net/DTD/sodipodi-0.dtd"
   xmlns:inkscape="http://www.inkscape.org/namespaces/inkscape"
   data-v-2182ccfe=""
   viewBox="0 0 700 700"
   class=""
   version="1.1"
   id="svg16"
   sodipodi:docname="registro.br-logo.svg"
   width="700"
   height="700"
   inkscape:version="0.92.0 r15299"
   inkscape:export-filename="C:\Users\suitedoalex\sites\registro.br-logo-0.png"
   inkscape:export-xdpi="561.73712"
   inkscape:export-ydpi="561.73712">
  <metadata
     id="metadata22">
    <rdf:RDF>
      <cc:Work
         rdf:about="">
        <dc:format>image/svg+xml</dc:format>
        <dc:type
           rdf:resource="http://purl.org/dc/dcmitype/StillImage" />
        <dc:title></dc:title>
      </cc:Work>
    </rdf:RDF>
  </metadata>
  <defs
     id="defs20" />
  <sodipodi:namedview
     pagecolor="#ffffff"
     bordercolor="#666666"
     borderopacity="1"
     objecttolerance="10"
     gridtolerance="10"
     guidetolerance="10"
     inkscape:pageopacity="0"
     inkscape:pageshadow="2"
     inkscape:window-width="1366"
     inkscape:window-height="705"
     id="namedview18"
     showgrid="false"
     inkscape:zoom="0.51770318"
     inkscape:cx="438.87816"
     inkscape:cy="329.70262"
     inkscape:window-x="-8"
     inkscape:window-y="-8"
     inkscape:window-maximized="1"
     inkscape:current-layer="svg16" />
  <path
     d="m 606.43947,297.04316 v -6.41901 H 588.46624 V 409.6968 h 17.97323 v -96.92706 c 2.56761,-3.2095 5.13521,-5.13521 8.02377,-5.45616 2.88855,-0.32095 5.45616,0.32095 7.70281,2.24666 V 289.6613 c -6.41901,-0.32095 -11.87517,2.24666 -15.72658,7.38186 m -35.6255,-4.17235 c -3.20951,-2.24666 -6.73997,-3.20951 -11.23327,-3.20951 -6.41901,0 -11.55422,2.56761 -15.40563,7.38186 v -36.26741 h -17.97323 v 103.34608 c 0,2.88855 -1.2838,5.77711 -4.49331,6.41901 -9.62851,1.60475 -17.01037,9.62851 -17.01037,19.89893 0,10.91232 8.98661,19.89893 19.89893,19.89893 4.81426,0 9.62852,-1.9257 12.83802,-4.81426 l 0.32095,-0.32095 c 0.6419,-0.32095 0.96285,-0.96285 1.2838,-1.2838 0.6419,-0.6419 1.60476,-0.96285 2.56761,-0.96285 1.2838,0 2.24665,0.32095 3.2095,0.96285 3.85141,4.49331 8.98662,6.73996 15.08468,6.73996 h 0.6419 c 4.17236,0 8.02376,-0.96285 10.91232,-3.2095 2.88855,-1.92571 5.13521,-4.49331 6.41901,-7.06091 0.96285,-2.56761 1.60475,-6.41901 1.60475,-12.19612 v -75.10243 c 0,-6.09806 -0.6419,-10.59137 -1.9257,-13.15897 -1.60476,-2.5676 -3.53046,-4.81426 -6.73996,-7.06091 m -9.62852,86.01474 v 6.73996 c 0,2.24666 -0.6419,4.17236 -2.24665,5.45616 -1.92571,1.9257 -4.17236,2.5676 -7.06092,2.24665 -2.5676,-0.32095 -5.45615,-2.24665 -7.70281,-5.77711 v -74.46052 c 2.24666,-3.2095 4.81426,-5.13521 7.70281,-5.45616 2.88856,-0.32095 5.45616,0.32095 7.06092,2.24666 1.60475,1.2838 2.24665,3.2095 2.24665,5.45616 z"
     class="st0"
     id="path2"
     inkscape:connector-curvature="0"
     style="fill:#95c11f;stroke-width:3.20950532"
     inkscape:export-filename="C:\Users\suitedoalex\sites\registro.br-logo-4.png"
     inkscape:export-xdpi="70.545158"
     inkscape:export-ydpi="70.545158" />
  <path
     d="m 534.86751,390.43977 c 0,5.77711 -4.49331,10.27042 -10.27042,10.27042 -5.77711,0 -10.27042,-4.49331 -10.27042,-10.27042 0,-5.77711 4.49331,-10.27042 10.27042,-10.27042 5.45616,0 10.27042,4.49331 10.27042,10.27042"
     class="st1"
     id="path4"
     inkscape:connector-curvature="0"
     style="fill:#feeb17;stroke-width:3.20950532"
     inkscape:export-filename="C:\Users\suitedoalex\sites\registro.br-logo-4.png"
     inkscape:export-xdpi="70.545158"
     inkscape:export-ydpi="70.545158" />
  <path
     d="m 110.89185,311.16499 c -1.9257,-1.92571 -4.4933,-2.56761 -7.70281,-1.92571 -2.5676,0.32096 -5.45616,2.24666 -8.02376,5.45616 v 95.32231 H 77.83395 V 292.54986 h 17.33133 v 6.41901 c 3.85141,-4.81426 8.98661,-7.38186 15.40562,-7.38186 v 19.57798 z m 61.62251,73.49767 c 0,7.38186 -2.56761,13.47992 -7.70282,18.61513 -5.1352,5.13521 -11.23326,7.70281 -18.29418,7.70281 -7.38186,0 -13.80087,-2.5676 -18.93608,-7.70281 -5.13521,-5.13521 -7.70281,-11.23327 -7.70281,-18.61513 V 318.2259 c 0,-7.06091 2.5676,-13.47992 7.70281,-18.61513 5.13521,-5.13521 11.23327,-7.70281 18.61513,-7.70281 7.38187,0 13.47993,2.5676 18.61513,7.70281 5.13521,5.13521 7.70282,11.23327 7.70282,18.61513 v 48.78448 h -34.98361 v 18.29418 c 0,2.24665 0.96285,4.17236 2.5676,6.09806 1.60476,1.60475 3.85141,2.56761 6.09806,2.56761 2.56761,0 4.49331,-0.96286 6.09806,-2.56761 1.60476,-1.60475 2.56761,-3.53045 2.56761,-6.09806 v -6.41901 h 17.65228 z m -17.65228,-34.34171 v -32.416 c 0,-2.24665 -0.96285,-4.17236 -2.56761,-6.09806 -1.60475,-1.60475 -3.8514,-2.56761 -6.09806,-2.56761 a 8.7683685,8.7683685 0 0 0 -8.66566,8.66567 v 32.73695 h 17.33133 z m 81.52143,65.47391 c 0,7.06091 -2.5676,12.83802 -7.70281,17.01038 -5.13521,4.17236 -11.23327,6.41901 -18.61513,6.41901 -7.38186,0 -13.47992,-2.24665 -18.61513,-6.41901 -5.13521,-4.49331 -7.38186,-9.94947 -7.38186,-17.01038 h 17.33132 c 0,2.24665 0.96286,4.49331 2.56761,6.09806 1.60475,1.60475 3.53045,2.56761 6.09806,2.56761 2.5676,0 4.49331,-0.96286 6.09806,-2.56761 1.60475,-1.60475 2.5676,-3.85141 2.5676,-6.09806 v -12.19612 c -3.8514,4.81426 -8.98661,7.38186 -15.40562,7.38186 -4.49331,0 -8.34472,-0.96285 -11.23327,-3.2095 -2.88856,-1.92571 -5.13521,-4.49331 -6.09806,-6.73996 -1.2838,-2.56761 -1.60475,-6.73996 -1.60475,-13.15897 v -73.49768 c 0,-2.88855 0.32095,-7.38186 1.60475,-13.15897 1.2838,-2.5676 3.2095,-4.81426 6.41901,-6.73996 2.88855,-1.9257 6.73996,-3.2095 11.23327,-3.2095 6.41901,0 11.55422,2.5676 15.40562,7.38186 v -6.41901 h 17.65228 v 123.56595 z m -17.33133,-27.92269 v -73.49768 c -2.5676,-3.2095 -5.1352,-4.81425 -7.70281,-5.45616 -2.88855,-0.32095 -5.45616,0.32095 -7.06091,1.60476 -1.60475,1.60475 -2.56761,3.53045 -2.56761,5.77711 v 69.32531 c 0,2.24666 0.64191,3.85141 1.92571,5.45616 1.9257,1.9257 4.49331,2.5676 7.38186,1.9257 2.5676,-0.32095 5.45616,-1.9257 8.02376,-5.1352 m 29.2065,21.82463 h 17.65228 V 292.54986 h -17.65228 z m 0,-129.02211 h 17.65228 v -17.33133 h -17.65228 z m 80.87954,96.60611 v 7.38186 c 0,7.38186 -2.56761,13.47992 -7.70282,18.61513 -5.13521,5.13521 -11.23327,7.70281 -18.29418,7.70281 -7.38186,0 -13.47992,-2.5676 -18.61513,-7.70281 -5.13521,-5.13521 -8.02376,-11.23327 -8.02376,-18.61513 l 0.32095,-8.66566 h 17.65228 v 8.98661 c 0,2.24665 0.96285,4.17236 2.5676,6.09806 1.60476,1.60475 3.85141,2.5676 6.09806,2.5676 2.24666,0 4.17236,-0.96285 6.09806,-2.5676 1.60476,-1.60475 2.56761,-3.85141 2.56761,-6.09806 v -3.85141 c 0,-2.88855 -0.32095,-6.73996 -0.96285,-11.55422 -0.64191,-1.9257 -2.56761,-4.4933 -6.09806,-7.70281 0,0 -2.88856,-2.24665 -8.66567,-6.41901 -2.24665,-1.60475 -5.77711,-4.49331 -10.59137,-8.66566 -2.5676,-2.56761 -4.81425,-6.41901 -7.06091,-10.91232 -0.96285,-1.60475 -1.2838,-4.17236 -1.2838,-7.06091 0,-4.17236 -0.32095,-6.41901 -0.32095,-7.06091 V 317.584 c 0,-7.38186 2.88855,-13.47992 7.70281,-18.61513 5.13521,-5.13521 11.23327,-7.70281 18.61513,-7.70281 7.06091,0 13.47993,2.5676 18.61513,7.70281 5.13521,5.13521 7.70282,11.23327 7.70282,18.61513 v 6.73996 h -17.33133 v -6.41901 c 0,-2.24665 -0.96285,-4.17236 -2.56761,-6.09806 -1.60475,-1.60475 -3.8514,-2.56761 -6.09806,-2.56761 -2.5676,0 -4.4933,0.96286 -6.09806,2.56761 -1.60475,1.60475 -2.5676,3.85141 -2.5676,6.09806 v 2.5676 c 0,1.60476 0.32095,4.49331 0.96285,8.66567 0.96285,1.9257 2.88856,4.49331 6.09806,7.70281 1.9257,1.2838 4.81426,3.20951 8.66566,6.41901 3.20951,2.24665 6.41902,5.13521 9.62852,8.66567 3.53046,3.8514 6.41901,8.02376 8.02376,12.83802 0.64191,1.9257 0.96286,6.41901 0.96286,12.51707 m 63.22725,7.38186 c 0,7.38186 -2.24665,13.47992 -6.73996,18.61513 -4.49331,5.13521 -10.27042,7.70281 -17.33133,7.70281 -7.06091,0 -12.83802,-2.5676 -17.65228,-7.70281 -4.49331,-5.13521 -6.73996,-11.23327 -6.73996,-18.61513 v -74.46052 h -7.06091 v -16.04753 h 7.06091 v -16.68943 h 17.65228 v 16.68943 h 29.8484 v 16.04753 h -29.8484 v 75.10242 c 0,5.77711 2.24665,8.66567 6.73996,8.66567 4.49331,0 6.41901,-2.88856 6.41901,-8.66567 v -42.36547 h 17.65228 z m 41.40262,-73.49767 c -1.9257,-1.92571 -4.49331,-2.56761 -7.70281,-1.92571 -2.88856,0.32096 -5.45616,2.24666 -8.02377,5.45616 v 95.32231 H 400.38923 V 292.54986 h 17.65228 v 6.41901 c 3.85141,-4.81426 8.98662,-7.38186 15.40563,-7.38186 v 19.57798 z m 61.94345,73.49767 c 0,7.38186 -2.5676,13.47992 -7.70281,18.61513 -5.13521,5.13521 -11.23327,7.70281 -18.61513,7.70281 -7.38186,0 -13.47992,-2.5676 -18.61513,-7.70281 -5.13521,-5.13521 -8.02377,-11.23327 -8.02377,-18.61513 l 0.32095,-66.43676 c 0,-7.06091 2.56761,-13.47992 7.70282,-18.61513 5.13521,-5.13521 11.23327,-7.70281 18.61513,-7.70281 7.38186,0 13.47992,2.5676 18.61513,7.70281 5.13521,5.13521 7.70281,11.23327 7.70281,18.61513 z m -17.65228,0.32095 v -67.07866 c 0,-2.24665 -0.96285,-4.17236 -2.5676,-6.09806 -1.60475,-1.60475 -3.85141,-2.56761 -6.09806,-2.56761 -2.56761,0 -4.49331,0.96286 -6.09806,2.56761 -1.60475,1.60475 -2.56761,3.85141 -2.56761,6.09806 v 67.39961 c 0,2.24665 0.96286,4.17236 2.56761,6.09806 1.60475,1.60475 3.8514,2.56761 6.09806,2.56761 2.24665,0 4.49331,-0.96286 6.09806,-2.56761 1.60475,-1.9257 2.5676,-4.17236 2.5676,-6.41901"
     class="st2"
     id="path6"
     inkscape:connector-curvature="0"
     style="fill:#cfe09b;stroke-width:3.20950532"
     inkscape:export-filename="C:\Users\suitedoalex\sites\registro.br-logo-4.png"
     inkscape:export-xdpi="70.545158"
     inkscape:export-ydpi="70.545158" />
</svg>
