<svg xmlns="http://www.w3.org/2000/svg" viewBox="0 0 372.652 500">
  <path fill="#88ab2d" d="M362.296 168.995c-5.418-4.924-45.317-.741-53.201 12.554v312.543h-56.144V110.626l45.067-7.394 3.692 23.646c9.352-14.776 62.071-19.954 70.942-15.517l-10.356 57.634ZM115.525 185.99c9.239-16.262 20.168-24.388 32.811-24.388 15.067 0 22.61 13.553 22.61 40.642v158.112c0 57.147-11.199 85.71-33.548 85.71-8.255 0-15.557-1.225-21.873-3.692V185.99Zm111.573 173.627V194.116c0-59.593-18.232-89.4-54.69-89.4-24.302 0-43.265 7.384-56.883 22.162V0H59.371v389.33c-3.08-.596-6.242-.956-9.496-.956C22.33 388.374 0 410.706 0 438.247c0 27.543 22.331 49.872 49.875 49.872 12.938 0 24.611-5.056 33.477-13.138 3.701.762 7.4 1.568 11.113 2.181 15.557 2.56 31.2 22.838 46.924 22.838 57.135 0 85.709-46.788 85.709-140.383"/>
  <path fill="#fff300" d="M78.075 437.84c0 14.858-12.052 26.912-26.91 26.912-14.864 0-26.913-12.054-26.913-26.913 0-14.863 12.049-26.915 26.912-26.915 14.86 0 26.91 12.052 26.91 26.915"/>
</svg>
