<svg xmlns="http://www.w3.org/2000/svg" viewBox="0 0 500 471">
  <path fill="orange" d="M95.901 5.587h308.198c49.878 0 90.315 37.997 90.315 84.869v289.613c0 46.872-40.435 84.869-90.315 84.869H95.901c-49.88 0-90.312-37.997-90.312-84.869V90.456c0-46.872 40.432-84.869 90.312-84.869Z"/>
  <path d="M404.097 470.525H95.901C43.021 470.525 0 429.947 0 380.069V90.456C0 40.577 43.019 0 95.901 0h308.198C456.978 0 500 40.577 500 90.456v289.613c0 49.878-43.022 90.456-95.903 90.456ZM95.901 11.176c-46.718 0-84.727 35.563-84.727 79.28v289.613c0 43.715 38.009 79.28 84.727 79.28h308.198c46.718 0 84.727-35.565 84.727-79.28V90.456c0-43.715-38.009-79.28-84.727-79.28H95.901Z"/>
  <path d="m178.174 83.348 92.811.219c19.396-.146 33.881 2.951 43.447 9.289 11.684 7.77 17.523 21.139 17.523 40.106 0 31.229-14.484 48.922-43.45 53.073v.438c12.773 3.182 19.23 13.758 19.374 31.727 0 9.204-.343 20.994-1.031 35.371 0 9.641 2.039 17.983 6.125 25.025h-50.857c-2.374-2.575-3.561-7.819-3.561-15.736.973-13.234 1.459-24.092 1.459-32.567 0-17.121-8.226-25.681-24.679-25.681h-32.908l-14.352 69.248h-49.538l39.637-190.512Zm78.458 39.704h-36.467l-9.51 45.97h39.46c22.058 0 33.155-8.704 33.3-26.116.001-13.235-8.928-19.852-26.783-19.852v-.002Z"/>
  <path d="m319.705 278.376 36.719-63.637 9.899 64.076h62.644l-56.517 40.579 9.049 63.637-48.935-38.391-65.779 39.923 30.769-67.754-35.861-38.613 58.012.18Zm167.373 167.843c2.034 0 4.018.534 5.954 1.601 1.938 1.065 3.447 2.594 4.525 4.58 1.083 1.987 1.622 4.057 1.622 6.214 0 2.135-.53 4.187-1.597 6.156a11.396 11.396 0 0 1-4.479 4.589c-1.919 1.09-3.928 1.633-6.028 1.633-2.094 0-4.103-.545-6.026-1.633a11.419 11.419 0 0 1-4.486-4.589c-1.069-1.969-1.605-4.024-1.605-6.156 0-2.157.544-4.227 1.63-6.214 1.087-1.986 2.598-3.513 4.535-4.58 1.939-1.069 3.923-1.601 5.954-1.601h.001Zm0 2.05c-1.701 0-3.357.447-4.967 1.34a9.51 9.51 0 0 0-3.781 3.823c-.91 1.659-1.365 3.385-1.365 5.179 0 1.784.448 3.495 1.341 5.131a9.634 9.634 0 0 0 3.746 3.826c1.605.913 3.278 1.371 5.025 1.371 1.743 0 3.419-.458 5.025-1.371a9.582 9.582 0 0 0 3.738-3.826c.888-1.636 1.332-3.345 1.332-5.131 0-1.795-.454-3.52-1.356-5.179a9.42 9.42 0 0 0-3.78-3.823c-1.613-.893-3.266-1.34-4.958-1.34Zm-5.311 17.19v-13.33h4.477c1.531 0 2.638.122 3.322.368.687.247 1.23.677 1.636 1.29.408.613.611 1.263.611 1.953 0 .974-.339 1.823-1.02 2.543-.678.723-1.58 1.126-2.704 1.215.46.199.83.433 1.105.707.528.525 1.168 1.406 1.928 2.641l1.589 2.612h-2.568l-1.154-2.102c-.909-1.65-1.643-2.686-2.198-3.102-.387-.308-.948-.461-1.688-.461h-1.235v5.665h-2.101v.001Zm2.101-7.504h2.553c1.221 0 2.053-.186 2.496-.56.442-.369.665-.864.665-1.477a1.839 1.839 0 0 0-.321-1.058 1.94 1.94 0 0 0-.89-.697c-.381-.152-1.082-.232-2.109-.232h-2.394v4.024Z"/>
  <path fill="#fff" d="m362.514 314.84 37.536-26.737h-41.526l-7.193-46.371-26.354 45.935h-41.954l25.499 27.393-21.082 45.971 45.763-27.611 36.078 28.267-6.767-46.847Z"/>
</svg>
