<svg width="126" height="28" viewBox="0 0 128 28" fill="none" xmlns="http://www.w3.org/2000/svg"><path d="m78.192 10.568 8.724 11.223H80.65l-7.988-10.486V21.79H67.38V.41h5.283v9.543l7.7-9.543h6.227l-8.397 10.158Zm16.343 6.799h10.158v4.424H89.251V.41h14.95v4.382h-9.666v3.932h8.724v4.26h-8.724v4.383ZM106.823.41v4.382h6.512v16.999h5.243V4.792h6.472V.41h-18.227Z" fill="#fff"/><path d="M106.823.41v4.382h6.512V21.79h5.243V4.793h6.472V.41h-18.227ZM12.534 13.558l6.43 8.233h-6.062l-7.66-10.322V21.79H0V.41h9.626c4.587 0 7.782 2.826 7.782 6.922 0 2.908-1.843 5.53-4.874 6.226Zm-.328-6.144c0-1.598-1.27-2.704-3.072-2.704h-3.85v5.407h3.85c1.843 0 3.072-1.106 3.072-2.703Z" fill="#fff"/><path d="M31.62 4.628c3.851 0 6.882 2.95 6.882 7.005 0 3.194-1.597 5.12-3.727 6.553l2.949 3.932c3.645-2.498 5.939-5.939 5.939-10.485C43.663 4.915 38.338.04 31.621.04S19.579 4.915 19.579 11.632c0 4.547 2.293 7.988 5.939 10.486l2.949-3.932c-2.13-1.433-3.727-3.359-3.727-6.553.04-4.055 3.03-7.005 6.88-7.005Z" fill="#fff"/><path d="m62.136 15.851 2.744 3.728c-2.007 1.761-4.464 2.54-7.536 2.54-6.022 0-11.224-4.384-11.224-11.1C46.12 4.3 51.282 0 57.344 0c2.908 0 5.529.737 7.495 2.335l-2.867 3.89c-1.147-.9-2.54-1.597-4.629-1.597-3.317 0-5.98 2.622-5.98 6.513s2.663 6.39 6.062 6.39c2.048 0 3.482-.738 4.71-1.68Z" fill="#fff"/></svg>