<svg height="512pt" viewBox="0 0 512 512" width="512pt" xmlns="http://www.w3.org/2000/svg" fill="#2ecc71">
  <symbol id="a" viewBox="0 0 1000 1000" style="clip-rule:evenodd;fill-rule:evenodd;image-rendering:optimizeQuality;shape-rendering:geometricPrecision;text-rendering:geometricPrecision">
    <path d="M456.557 954.142c-51.209-5.834-105.636-23.11-164.89-52.34-77.345-38.153-130.132-84.108-171.904-149.652-13.757-21.586-34.244-56.915-41.287-71.198-26.53-53.794-41.318-128.813-39.427-200 3.104-116.883 48.87-223.866 132.312-309.3C245.728 95.508 343.98 48.75 449.405 39.326c16.075-1.437 42.857-1.633 42.857-.314 0 .84-9.912 36.005-15.619 55.41-2.335 7.94-2.459 8.099-5.794 7.366-5.02-1.103-38.597 1.5-54.588 4.23-78.184 13.352-148.872 53.08-205.858 115.696-44.404 48.79-73.222 96.544-90.72 150.33-9.247 28.422-13.436 51.91-15.467 86.718-4.603 78.927 3.852 137.972 26.617 185.88 11.44 24.075 41.212 74.137 53.452 89.88 12.95 16.658 45.5 53.571 47.225 53.557 1.003-.008 6.645-1.359 12.538-3.002 33.243-9.268 71.782-16.19 110.119-19.778 23.046-2.158 81.589-1.805 105.952.637 80.53 8.074 152.793 28.04 218.763 60.442 14.585 7.164 22.502 10.436 24.057 9.942 4.456-1.414 34.073-21.892 46.466-32.127 36.789-30.385 55.405-51.859 83.62-96.456 12.304-19.447 33.186-60.968 40.115-79.762 11.156-30.26 17.905-59.183 20.418-87.5 1.58-17.803.844-74.678-1.255-97.024-5.875-62.539-19.14-96.584-65.864-169.047-18.12-28.102-30.924-44.798-47.526-61.974-33.977-35.15-76.434-63.926-121.175-82.126-7.53-3.063-13.868-5.732-14.086-5.932-.217-.2 2.595-13.79 6.25-30.202 3.655-16.412 6.646-30.065 6.646-30.34 0-.699 20.397 5.54 29.894 9.143 48.79 18.51 94.215 50.387 138.598 97.264 28.447 30.046 56.905 68.452 77.93 105.172 23.918 41.775 43.482 101.062 51.717 156.733 12.077 81.642 3.119 156.375-27.337 228.05-26.303 61.906-59.852 113.54-102.193 157.284-24.676 25.493-52.838 48.34-76.347 61.935-5.239 3.03-14.647 8.58-20.908 12.333-39.579 23.728-89.618 43.541-136.83 54.177-30.244 6.813-50.423 9.032-86.31 9.49-23.602.3-37.675-.07-48.205-1.27z"/>
    <path d="M500.595 722.575c-49.27-3.036-105.94-12.2-150.595-24.354-49.438-13.455-103.365-35.123-141.369-56.803-12.536-7.15-12.797-7.387-12.786-11.562.006-2.343 1.876-23.814 4.155-47.713 2.28-23.899 4.15-44.297 4.155-45.328.01-1.554-3.775-2.292-22.044-4.298-12.131-1.332-22.383-2.75-22.782-3.148-.891-.891 9.648-113.624 10.723-114.698.423-.423 11.314.114 24.203 1.193 12.89 1.08 23.606 1.79 23.816 1.581.27-.27 14.667-126.689 14.667-128.792 0-.604 20.651-7.884 29.762-10.492 34.467-9.866 97.903-19.388 152.496-22.89l12.614-.81 1.922-15.477c1.056-8.512 2.076-15.622 2.266-15.799.19-.177 12.08.182 26.425.797 14.344.616 26.479.695 26.966.176.487-.52 15.317-42.194 32.956-92.61 31.657-90.487 32.112-91.672 35.394-92.059 4.302-.507 31.608 2.981 39.318 5.023 3.274.867 5.892 2.055 5.818 2.64-.073.584-8.608 42.17-18.966 92.413-10.358 50.243-18.592 91.591-18.298 91.886.294.294 13.353 2.995 29.019 6.003 15.666 3.007 28.707 5.69 28.979 5.963.272.272-.376 8.106-1.44 17.409-1.065 9.303-1.681 17.168-1.37 17.479.31.31 6.685 1.808 14.166 3.328 27.185 5.523 59.165 15.788 92.694 29.752 18.402 7.665 72.77 34.438 74.732 36.802.998 1.202-.2 17.922-4.742 66.131-3.342 35.487-5.827 64.772-5.52 65.079.306.306 10.781 1.422 23.278 2.48 19.132 1.62 22.722 2.221 22.722 3.81 0 3.471-10.586 114.581-10.95 114.934-.198.192-11.208-.558-24.467-1.666-16.147-1.35-24.13-1.608-24.176-.783-.038.678-2.583 22.36-5.656 48.182l-5.587 46.95-15.475 3.924c-48.273 12.242-94.678 20.005-144.642 24.197-20.767 1.742-81.67 2.427-102.38 1.15zm83.334-73.78c32.215-2.204 65.058-6.745 96.16-13.295 10.325-2.175 12.312-2.962 12.758-5.05.29-1.36 5.928-54.426 12.529-117.924 11.371-109.385 11.891-115.53 9.9-116.986-4.135-3.024-25.054-13.273-39.086-19.15-47.244-19.786-97.576-32.17-158.928-39.105-26.75-3.023-100.774-3.013-129.096.019-24.927 2.667-45.3 5.631-67.127 9.764l-16.763 3.175-.677 4.938c-2.761 20.122-25.65 226.992-25.376 229.34.296 2.531 2.763 4.19 16.42 11.041C351.133 623.9 427.686 643.701 500 648.678c20.699 1.425 63.937 1.485 83.929.117z"/>
    <path d="M441.221 506.496c-2.209-.959-9.779-7.098-16.821-13.644-7.043-6.545-13.208-11.9-13.7-11.9-.494 0-7.17 4.746-14.838 10.547-9.216 6.972-15.442 10.829-18.369 11.378-12.159 2.28-25.707-8.772-25.707-20.972 0-10.383 3.31-14.929 22.964-31.532 20.158-17.029 29.05-20.901 41.876-18.239 9.676 2.01 17.414 8.276 33.054 26.77 15.838 18.73 19.347 24.737 19.36 33.152.007 5.098-.483 6.196-4.344 9.734-6.791 6.223-15.813 8.032-23.475 4.706zm171.214 16.261c-2.91-1.89-9.834-8.05-15.385-13.69-5.55-5.642-10.54-10.257-11.088-10.257-.547 0-6.88 4.576-14.073 10.17-14.107 10.97-16.86 12.449-23.195 12.449-6.057 0-11.222-2.58-16.19-8.084-7.604-8.428-8.187-17.083-1.791-26.58 4.035-5.992 31.416-29.148 38.829-32.838 12.562-6.252 26.061-4.757 37.253 4.125 3.083 2.446 11.776 11.884 19.318 20.973 14.946 18.01 19.353 26.332 17.938 33.874-2.207 11.769-20.08 17.341-31.616 9.858z"/>
  </symbol>
  <use xlink:href="#a" xmlns:xlink="http://www.w3.org/1999/xlink"/>
</svg>
