<?xml version="1.0" encoding="UTF-8"?>
<!DOCTYPE svg PUBLIC "-//W3C//DTD SVG 1.1//EN" "http://www.w3.org/Graphics/SVG/1.1/DTD/svg11.dtd">
<svg xmlns="http://www.w3.org/2000/svg" version="1.1" width="2030px" height="2048px" style="shape-rendering:geometricPrecision; text-rendering:geometricPrecision; image-rendering:optimizeQuality; fill-rule:evenodd; clip-rule:evenodd" xmlns:xlink="http://www.w3.org/1999/xlink">
<g><path style="opacity:0.999" fill="#0066ff" d="M 922.5,-0.5 C 984.167,-0.5 1045.83,-0.5 1107.5,-0.5C 1183.34,2.62698 1259.01,9.46031 1334.5,20C 1435.99,34.2851 1532.99,63.2851 1625.5,107C 1686.68,137.224 1742.68,174.891 1793.5,220C 1851.84,280.056 1898,348.556 1932,425.5C 1968.98,509.727 1994.31,597.394 2008,688.5C 2018.55,761.657 2025.72,834.99 2029.5,908.5C 2029.5,984.833 2029.5,1061.17 2029.5,1137.5C 2025.59,1213.37 2018.09,1289.04 2007,1364.5C 1992.77,1456.52 1966.44,1544.85 1928,1629.5C 1897.8,1694.64 1859.13,1753.97 1812,1807.5C 1763.29,1856.1 1708.46,1896.26 1647.5,1928C 1544.73,1980.25 1436.06,2013.59 1321.5,2028C 1239.36,2038.97 1157.03,2045.47 1074.5,2047.5C 1060.5,2047.5 1046.5,2047.5 1032.5,2047.5C 1020.83,2046.17 1009.17,2046.17 997.5,2047.5C 983.5,2047.5 969.5,2047.5 955.5,2047.5C 872.975,2045.46 790.642,2038.96 708.5,2028C 606.933,2014.94 509.599,1987.28 416.5,1945C 347.284,1912.42 284.617,1870.42 228.5,1819C 172.903,1758.37 128.403,1690.2 95,1614.5C 60.5996,1534.57 36.5996,1451.57 23,1365.5C 10.7368,1283.1 2.90342,1200.43 -0.5,1117.5C -0.5,1054.5 -0.5,991.5 -0.5,928.5C 2.77579,849.967 9.94246,771.634 21,693.5C 36.75,581.253 70.75,474.92 123,374.5C 154.057,316.905 192.557,264.739 238.5,218C 316.452,150.162 404.785,99.4952 503.5,66C 559.947,46.805 617.613,32.4717 676.5,23C 758.221,10.617 840.221,2.78365 922.5,-0.5 Z"/></g>
<g><path style="opacity:1" fill="#fefeff" d="M 626.5,1312.5 C 626.5,1276.83 626.5,1241.17 626.5,1205.5C 722.5,1205.5 818.5,1205.5 914.5,1205.5C 914.333,1244.17 914.5,1282.83 915,1321.5C 919.897,1362.39 941.73,1389.55 980.5,1403C 1004.93,1409.12 1029.59,1410.12 1054.5,1406C 1094.33,1398.51 1118.83,1375.01 1128,1335.5C 1139.64,1293.91 1132.31,1256.24 1106,1222.5C 1094.47,1209.3 1081.97,1197.13 1068.5,1186C 1051.72,1173.22 1034.38,1161.22 1016.5,1150C 961.491,1118.16 906.158,1086.83 850.5,1056C 810.408,1032.63 772.408,1006.29 736.5,977C 708.562,953.08 685.062,925.58 666,894.5C 645.646,856.764 634.646,816.431 633,773.5C 624.333,602.57 702.833,497.07 868.5,457C 927.844,444.215 987.844,439.548 1048.5,443C 1106.86,444.281 1163.52,454.614 1218.5,474C 1318.44,513.324 1371.28,586.824 1377,694.5C 1377.5,726.832 1377.67,759.165 1377.5,791.5C 1288.17,791.5 1198.83,791.5 1109.5,791.5C 1109.67,765.165 1109.5,738.831 1109,712.5C 1103.68,665.514 1077.85,637.347 1031.5,628C 1000.82,622.223 972.154,627.223 945.5,643C 926.118,658.253 914.285,678.086 910,702.5C 905.639,729.545 909.639,755.212 922,779.5C 936.918,800.419 955.085,817.919 976.5,832C 993.234,843.062 1010.23,853.729 1027.5,864C 1086.31,895.238 1144.65,927.238 1202.5,960C 1251.24,988.047 1295.4,1022.21 1335,1062.5C 1363.36,1092.86 1383.19,1128.19 1394.5,1168.5C 1403.09,1210.74 1405.93,1253.41 1403,1296.5C 1401.52,1447.37 1328.36,1543.2 1183.5,1584C 1116.22,1600.81 1047.89,1607.14 978.5,1603C 920.733,1601.37 864.733,1590.71 810.5,1571C 693.944,1524.55 632.61,1438.38 626.5,1312.5 Z"/></g>
<g><path style="opacity:1" fill="#8eb7ff" d="M 914.5,1205.5 C 818.5,1205.5 722.5,1205.5 626.5,1205.5C 626.5,1241.17 626.5,1276.83 626.5,1312.5C 625.502,1276.67 625.168,1240.67 625.5,1204.5C 722.001,1204.17 818.335,1204.5 914.5,1205.5 Z"/></g>
</svg>
