<svg xmlns="http://www.w3.org/2000/svg" viewBox="0 0 600 600"><path fill="#B0D8EF" d="M0 130a22 22 0 0 1 15-21l266-83a64 64 0 0 1 38 0l266 83a22 22 0 0 1 15 21v68c0 10-6 18-15 21l-266 83a64 64 0 0 1-38 0L15 219a22 22 0 0 1-15-21v-68Z"/><path fill="#EF5952" d="M600 334a22 22 0 0 1-15 21l-266 83a64 64 0 0 1-38 0L15 355a22 22 0 0 1-15-21v-73c0-9 9-16 18-13l263 82a62 62 0 0 0 38 0l263-82c9-3 18 4 18 13v73Z"/><path fill="#5D6969" d="M600 470a22 22 0 0 1-15 21l-266 83a64 64 0 0 1-38 0L15 491a22 22 0 0 1-15-21v-73c0-9 9-16 18-13l263 82a62 62 0 0 0 38 0l263-82c9-3 18 4 18 13v73Z"/></svg>