<svg xmlns="http://www.w3.org/2000/svg" viewBox="0 0 37.4 36.4"><path d="M18.7 0C8.4 0 0 8.2 0 18.2s8.4 18.2 18.7 18.2 18.7-8.2 18.7-18.2S29 0 18.7 0zM7.6 7.5a15.94 15.94 0 0 1 22.2 0 13.076 13.076 0 0 1 2.5 3.3H17.5a4.333 4.333 0 0 0-1.9.4 3.956 3.956 0 0 0-1.5 1 3.956 3.956 0 0 0-1 1.5 3.922 3.922 0 0 0-.4 1.8 3.661 3.661 0 0 0 .4 1.8 3.956 3.956 0 0 0 1 1.5 4.923 4.923 0 0 0 1.5 1 5.847 5.847 0 0 0 1.9.4h3.2a1.268 1.268 0 0 1 .6.1 2.186 2.186 0 0 1 .5.3.85.85 0 0 1 .3.5 1.85 1.85 0 0 1 0 1.2 2.186 2.186 0 0 1-.3.5.85.85 0 0 1-.5.3 1.268 1.268 0 0 1-.6.1H3.9a13.477 13.477 0 0 1-.9-5A14.769 14.769 0 0 1 7.6 7.5zM29.8 29a15.94 15.94 0 0 1-22.2 0 16.379 16.379 0 0 1-2.1-2.5h15.2a4.333 4.333 0 0 0 1.9-.4 4.6 4.6 0 0 0 2.5-2.5 3.922 3.922 0 0 0 .4-1.8 3.661 3.661 0 0 0-.4-1.8 3.956 3.956 0 0 0-1-1.5 4.923 4.923 0 0 0-1.5-1 4.486 4.486 0 0 0-1.9-.5h-3.2a1.268 1.268 0 0 1-.6-.1 2.186 2.186 0 0 1-.5-.3.85.85 0 0 1-.3-.5 1.268 1.268 0 0 1-.1-.6 1.268 1.268 0 0 1 .1-.6 2.186 2.186 0 0 1 .3-.5.85.85 0 0 1 .5-.3 1.268 1.268 0 0 1 .6-.1h16.2a15.4 15.4 0 0 1 .6 4.3A15.07 15.07 0 0 1 29.8 29z" fill="#fdc201"/></svg>