<svg xmlns="http://www.w3.org/2000/svg" fill="none" viewBox="0 0 600 600"><g filter="url(#a)"><circle cx="300" cy="300" r="300" fill="url(#b)"/></g><mask id="d" fill="#fff"><path fill-rule="evenodd" d="M413.56 215.17c14.19 19.19 28.58 47.76 28.58 84.68 0 84.19-71.14 142.29-142.29 142.29-71.15 0-142.29-58.58-142.29-142.29 0-64.43 52.41-142.29 141.82-142.29 89.4 0 97.7-73.52 97.7-73.52S362.22 62.7 291.55 62.7c-97.47 0-228.85 84.19-228.85 237.15C62.7 413.45 153.05 537 299.85 537S537 413.92 537 299.85c0-75.42-35-128.8-60.12-157.4l-63.32 72.72Z" clip-rule="evenodd"/></mask><g filter="url(#c)"><path fill="#fff" fill-rule="evenodd" d="M413.56 215.17c14.19 19.19 28.58 47.76 28.58 84.68 0 84.19-71.14 142.29-142.29 142.29-71.15 0-142.29-58.58-142.29-142.29 0-64.43 52.41-142.29 141.82-142.29 89.4 0 97.7-73.52 97.7-73.52S362.22 62.7 291.55 62.7c-97.47 0-228.85 84.19-228.85 237.15C62.7 413.45 153.05 537 299.85 537S537 413.92 537 299.85c0-75.42-35-128.8-60.12-157.4l-63.32 72.72Z" clip-rule="evenodd"/></g><path fill="#fff" d="m413.56 215.17-1.51-1.31-1.06 1.2.96 1.3 1.6-1.19ZM397.07 84.04l1.99.23.14-1.27-1.08-.66-1.05 1.7Zm79.8 58.4 1.5-1.31-1.5-1.72-1.5 1.72 1.5 1.32Zm-64.93 73.92c14.01 18.95 28.19 47.11 28.19 83.49h4c0-37.47-14.61-66.44-28.98-85.87l-3.21 2.38Zm28.19 83.49c0 82.97-70.13 140.29-140.29 140.29v4c72.13 0 144.29-58.88 144.29-144.29h-4ZM299.85 440.14c-70.16 0-140.29-57.8-140.29-140.29h-4c0 84.93 72.16 144.29 144.29 144.29v-4ZM159.56 299.85c0-63.57 51.74-140.29 139.82-140.29v-4c-90.74 0-143.82 79-143.82 144.29h4Zm139.82-140.29c45.35 0 70.38-18.7 84-37.59a91.6 91.6 0 0 0 12.92-25.84 82.02 82.02 0 0 0 2.64-10.96l.1-.65.02-.18v-.06l-1.98-.24-1.99-.22v.03c0 .03 0 .08-.02.14l-.08.58c-.08.5-.2 1.27-.4 2.24a77.91 77.91 0 0 1-2.1 8.12 87.64 87.64 0 0 1-12.36 24.7c-12.88 17.87-36.7 35.93-80.75 35.93v4Zm97.7-75.52 1.04-1.7v-.01c-.01 0-.02 0-.03-.02l-.1-.05a22.74 22.74 0 0 0-1.6-.9 91.7 91.7 0 0 0-5.03-2.47 160.3 160.3 0 0 0-19.96-7.43c-17.73-5.4-44.31-10.76-79.85-10.76v4c35.13 0 61.32 5.3 78.69 10.59a156.24 156.24 0 0 1 19.46 7.24 87.23 87.23 0 0 1 6.26 3.17l.06.04h.02v.01l1.04-1.7ZM291.55 60.7C193.2 60.7 60.7 145.57 60.7 299.85h4C64.7 148.2 194.96 64.7 291.55 64.7v-4ZM60.7 299.85C60.7 414.36 151.77 539 299.85 539v-4C154.34 535 64.7 412.53 64.7 299.85h-4ZM299.85 539C447.93 539 539 414.84 539 299.85h-4C535 413 445.37 535 299.85 535v4ZM539 299.85c0-76.07-35.3-129.9-60.61-158.72l-3 2.64C500.3 172.15 535 225.08 535 299.85h4Zm-63.62-158.72-63.33 72.73 3.01 2.62 63.33-72.72-3.01-2.63Z" mask="url(#d)"/><defs><filter id="a" width="600" height="602" x="0" y="0" color-interpolation-filters="sRGB" filterUnits="userSpaceOnUse"><feFlood flood-opacity="0" result="BackgroundImageFix"/><feBlend in="SourceGraphic" in2="BackgroundImageFix" result="shape"/><feColorMatrix in="SourceAlpha" result="hardAlpha" values="0 0 0 0 0 0 0 0 0 0 0 0 0 0 0 0 0 0 127 0"/><feOffset dy="4"/><feGaussianBlur stdDeviation="1"/><feComposite in2="hardAlpha" k2="-1" k3="1" operator="arithmetic"/><feColorMatrix values="0 0 0 0 0 0 0 0 0 0 0 0 0 0 0 0 0 0 0.25 0"/><feBlend in2="shape" result="effect1_innerShadow_2_17"/></filter><filter id="c" width="474.3" height="489.3" x="62.7" y="62.7" color-interpolation-filters="sRGB" filterUnits="userSpaceOnUse"><feFlood flood-opacity="0" result="BackgroundImageFix"/><feBlend in="SourceGraphic" in2="BackgroundImageFix" result="shape"/><feColorMatrix in="SourceAlpha" result="hardAlpha" values="0 0 0 0 0 0 0 0 0 0 0 0 0 0 0 0 0 0 127 0"/><feOffset dy="30"/><feGaussianBlur stdDeviation="7.5"/><feComposite in2="hardAlpha" k2="-1" k3="1" operator="arithmetic"/><feColorMatrix values="0 0 0 0 0.211765 0 0 0 0 0.32549 0 0 0 0 0.8 0 0 0 0.25 0"/><feBlend in2="shape" result="effect1_innerShadow_2_17"/></filter><radialGradient id="b" cx="0" cy="0" r="1" gradientTransform="matrix(600 -600 868 868 0 600)" gradientUnits="userSpaceOnUse"><stop stop-color="#34BAF4"/><stop offset=".48" stop-color="#3D46CC"/><stop offset=".88" stop-color="#5334D6"/></radialGradient></defs></svg>