<svg xmlns="http://www.w3.org/2000/svg" viewBox="0 0 24 24"><path fill="#101227" d="m24 10.4-5.31-9.19H8.06l2.52 4.36.77 1.33-.92 1.6H8.6l-.77-1.34L5.3 2.8 0 12l5.31 9.2 2.52-4.36.77-1.33h1.83l.92 1.59-.77 1.33-2.51 4.36h10.62l5.31-9.2h-6.57l-.92-1.6.92-1.58H24ZM5.29 5.34l.98 1.7-1.5 2.61h6.33l3.17-5.49h-3.02l-.98-1.7h7.04l-5.18 8.98H1.76l3.53-6.1Zm4.98 16.22.98-1.7h3.02l-3.17-5.5H4.76l1.51 2.62-.98 1.7-3.53-6.1h10.37l1.36 2.36 3.82 6.62h-7.04Zm8.08-4.07 1.5-2.6h1.98l-3.53 6.1-3.1-5.38-2.08-3.6 2.45-4.26 2.73-4.72 3.53 6.1h-1.97l-1.5-2.6L15.17 12l3.17 5.49Z"/></svg>
