<svg xmlns="http://www.w3.org/2000/svg" viewBox="257.53 367.08 96.3 56.1"><path d="M320.99 367.09h31.23c1.65 1.51 1.51 3.5 1.51 5.47.03 16.44.06 32.88.1 49.32-.54 1.26-1.63 1.31-2.79 1.3-10.01-.05-20.03-.08-30.04-.12v-3.7h24.59c.07-.31.15-.62.22-.94l-17.42-15.56c1.03-.86 2.06-1.73 3.09-2.59 6.01 5.12 12.02 10.24 18.4 15.68v-41.87c-6.46 5.59-12.42 10.76-18.38 15.92-1.47-.47-2.05-1.63-2.33-3.02 5.58-4.96 11.17-9.92 17.53-15.58H321c-.01-1.43-.01-2.87-.01-4.31z" fill="#d63085"/><path d="M320.99 419.36v3.7c-12.96.04-25.93.08-38.89.11-.75 0-1.49-.02-2.05-.63l.81-2.34c.37-.02.77.04 1.11-.07 13.45-4.42 23.45-20.97 21.19-34.9-.27-1.64-1.13-2.22-2.54-2.69-6.15-2.06-11.75-5.11-16.62-9.42-.87-.77-1.74-1.92-3.12-.73l-.78-3.07c.49-.75.98-1.5 1.47-2.24h39.41v4.31h-33.81c4.99 4.71 9.96 7.07 15.29 8.63 2.08.61 3.47 1.46 3.29 3.62-.34 4.16 2.24 6.43 5.1 8.68 1.54 1.21 2.87 2.67 4.3 4.02-.6 1.17-.85 2.6-2.28 3.18-1.23-1-2.26-1.39-3.69 0-3.34 3.24-7.14 5.96-9.5 10.19-2.05 3.66-5.35 6.43-9.56 9.62 11.14-.15 21.01-.48 30.87.03z" fill="#e13282"/><path d="M331.49 390c-1.69 1.71-4.56 3.31-4.75 5.17-.21 2.06 3.39 3.06 4.73 5.1-1.03.86-2.06 1.73-3.09 2.59-.59-.43-1.3-.76-1.74-1.31-2.64-3.36-4.98-3.57-8.02-.15-2.65 2.99-4.03-.53-5.74-1.86 1.43-.58 1.68-2.01 2.28-3.18 1.58.86 2.72.14 3.92-.9 3.31-2.87 6.71-5.65 10.07-8.47.3 1.38.87 2.54 2.34 3.01z" fill="#db3485"/><path d="M280.89 372.41c-4.61 4.6-10.14 7.79-16.3 9.72-2.97.93-3.78 2.58-3.83 5.31-.25 13.99 5.63 24.51 17.9 31.47.74.42 1.47.87 2.21 1.3l-.81 2.34c-15.11-5.05-25.86-25.05-21.59-40.06.31-1.08.78-1.76 1.84-2.03 7.64-1.89 13.93-6.14 19.81-11.12.25 1.02.51 2.04.77 3.07z" fill="#ea3a84"/><path d="M264.89 390.1c-.35-2.49.61-4.72 4.4-5.83 4.16-1.22 7.73-3.85 10.92-6.78 1.37-1.25 2.27-1.35 3.65-.09 3.77 3.44 8.06 6.11 12.95 7.67 1.57.5 1.99 1.45 2.19 2.92 1.42 10.49-5.72 22.94-15.46 27.11-1.77.76-3.05.28-4.46-.55-9.01-5.29-13.69-13.15-14.19-24.45zm29.95 1.06c-.74-.77-1.4-1.48-2.08-2.16-.92-.91-1.55-.17-2.15.44a307.76 307.76 0 00-4.37 4.48c-5.12 5.35-5.11 5.36-10.55.22a3.19 3.19 0 01-.26-.26c-1-1.17-1.89-1.71-3.24-.24-1.12 1.22-1.47 2.03-.1 3.3 2.43 2.25 4.8 4.58 7.05 7.01 1.28 1.38 2.14 1.07 3.29-.1 3.62-3.68 7.31-7.28 10.96-10.92.49-.53.91-1.13 1.45-1.77z" fill="#e63280"/><path d="M294.84 391.16c-.53.64-.95 1.24-1.46 1.76-3.65 3.65-7.34 7.25-10.96 10.92-1.15 1.17-2.01 1.48-3.29.1-2.25-2.43-4.62-4.76-7.05-7.01-1.37-1.27-1.02-2.08.1-3.3 1.36-1.47 2.25-.92 3.24.24.08.09.17.18.26.26 5.44 5.14 5.44 5.14 10.55-.22 1.44-1.51 2.9-3 4.37-4.48.6-.61 1.23-1.35 2.15-.44.69.69 1.34 1.39 2.09 2.17z" fill="#fdf5f9"/></svg>