<svg xmlns="http://www.w3.org/2000/svg" viewBox="0 0 500 413.755">
  <path fill="#fa490a" d="M215.699 385.499s-27.978 19.354-68.188 14.798c0 0 5.923-8.674-7.249-30.184-14.236-23.247-37.768-54.254-40.57-81.998l116.016 97.375-.009.009Z"/>
  <path fill="#016699" d="M459.795 216.302c21.468 90.89-.084 89.624-12.828 131.897-12.743 42.282-98.088 78.918-201.351 60.814-92.3-16.183-162.527-122.576-163.542-148.936 183.047 82.383 376.823-43.137 377.721-43.775Z"/>
  <path fill="#fa490a" d="M350.18 92.627S300.312 16.267 213.962 0c0 0 27.676 29.396 15.94 41.166-6.142 6.158-23.298-6.065-32.459-17.902 0 0 6.259 19.488-29.967 54.102-19.589 18.709-70.655 68.13-70.923 129.07L350.18 92.626l.001.001h-.001ZM82.072 260.077S76.838 188.602 0 167.863c0 0 .26 55.462 44.514 88.046 0 0-31.813 31.761-15.11 77.25 0 0 50.152-8.785 52.669-73.08l-.001-.002Z"/>
  <path fill="#4db5da" d="M82.075 260.078c-1.015-26.36 15.217-125.043 122.953-175.312 107.736-50.26 223.651 21.88 251.789 120.018a244.401 244.401 0 0 1 2.978 11.518c-.898.638-204.776 145.11-377.721 43.776h.001Z"/>
  <path fill="#01324d" d="M279.625 407.898c31.208-9.01 53.834-74.597 56.05-80.545-9.363 6.762-18.935-1.72-12.576-11.393l-5.361.143c-4.027.092-7.693.42-11.217 1.015-9.245 1.552-16.384 4.757-24.648 8.457-3.708 1.66-7.91 3.548-12.827 5.52-3.607 1.451-6.997 2.45-10.059 2.961-6.25 1.049-9.329-.177-10.033-.528l-9.313-8.616s-6.359 11.275-8.154 15.193c-8.096 17.71-5.973 40.806 5.881 55.353 7.827 9.604 25.747 17.215 42.257 12.449v-.009Z"/>
  <path fill="#225d73" d="M429.385 233.35c-20.21-66.847-53.197-138.534-83.6-151.193-4.773-.78-9.194-1.175-13.129-1.175-1.938 0-3.825.084-5.612.252-25.999 2.408-50.118 17.123-69.766 42.542-27.995 36.225-45.756 90.79-41.57 116.309 3.113 18.944 13.91 34.791 28.994 46.93a106.642 106.642 0 0 0 9.95 7.106c26.972 2.458 59.145-4.958 83.331-12.643 40.311-12.81 69.305-33.952 91.855-46.678a75.731 75.731 0 0 0-.444-1.452l-.009.002Z"/>
  <path fill="#01324d" d="M437.78 365.061c.48-.604.966-1.2 1.41-1.804.479-.646.915-1.3 1.351-1.954.386-.57.789-1.141 1.15-1.72.444-.713.838-1.426 1.241-2.148.302-.537.62-1.065.898-1.602.427-.822.788-1.653 1.157-2.483.193-.437.42-.873.604-1.318a42.158 42.158 0 0 0 1.36-3.808c0-.009.008-.025.008-.034 5.386-17.86-2.383-64.187-17.14-113.39-36.082 20.352-101.141 51.25-175.185 59.32 1.074.672 2.14 1.352 3.239 1.99 25.663 15.033 83.154 6.098 90.494 18.724 7.341 12.618-15.906 21.502-4.488 38.55 4.253 6.358 10.36 10.654 17.66 12.55.251 7.718 2.055 15.704 6.896 22.248 4.354 5.873 10.444 9.64 17.5 11.007 1.804-.68 3.565-1.384 5.31-2.097.277-.11.562-.218.84-.336a159.106 159.106 0 0 0 4.655-2.039l1.242-.553a159.305 159.305 0 0 0 4.161-2.014c.487-.243.982-.486 1.468-.73a153.97 153.97 0 0 0 3.742-1.996c.537-.294 1.082-.587 1.61-.89 1.14-.645 2.271-1.308 3.39-1.988.562-.335 1.124-.68 1.67-1.015 1.033-.647 2.057-1.31 3.07-1.988a100.615 100.615 0 0 0 4.455-3.13c.57-.427 1.14-.847 1.694-1.275.84-.646 1.67-1.3 2.467-1.963.57-.461 1.124-.94 1.67-1.41a70.57 70.57 0 0 0 2.189-1.937c.553-.512 1.082-1.024 1.619-1.535.654-.63 1.3-1.267 1.921-1.905.529-.553 1.032-1.107 1.535-1.66.562-.622 1.133-1.242 1.67-1.872.503-.595.973-1.2 1.451-1.795h.016Z"/>
  <path fill="#fa490a" d="M335.675 327.352s-22.685 59.975-55.126 67.979c-32.442 8.003-52.4-45.093-40.78-74.892 0 0 9.311 8.96 31.87 3.448 22.551-5.512 30.689-11.116 51.469-7.936 0 0 1.535 10.94 12.576 11.393l-.009.008Z"/>
  <path fill="#fff" d="M328.988 80.01c28.843-2.677 98.583 23.305 138.667 97.911 40.085 74.607 39.942 165.21 15.79 196.939-24.154 31.728-19.766-19.17-19.766-19.17s-9.631 32.366-29.464 34.79c-19.84 2.434-11.241-33.23-11.241-33.23s-9.883 25.748-25.26 26.335c-15.378.587-16.167-19.833-10.53-38.356 0 0-17.785 8.64-25.478-2.844-7.684-11.485 9.22-19.38 9.707-30.269.486-10.89-10.923-24.95-48.951-24.396-38.03.554-84.44-28.465-90.353-64.479C226.194 187.224 262.184 86.191 328.98 80l.008.01Z"/>
  <path fill="#232728" d="M417.361 268.852c21.586-8.867 36.242-47.391 15.277-84.9-20.973-37.509-63.448-33.759-89.212-15.779 0 0 16.158-3.348 32.718 4.739 0 0-25.15 9.295-24.404 41.787.747 32.492 32.492 67.76 65.621 54.162v-.009Zm54.464-13.28c7.24 2.173 12.173 35.277-2.08 34.681-14.246-.595-12.878-39.17 2.08-34.681Z"/>
  <path fill="#4db5da" d="M420.006 200.086c10.37 4.178 9.966 31.602-6.946 31.636-22.778.05-12.836-39.606 6.946-31.636Z"/>
</svg>
