<svg width="127" height="127" xmlns="http://www.w3.org/2000/svg"><g fill="none"><path d="M27.2 80c0 7.3-5.9 13.2-13.2 13.2S.8 87.3.8 80 6.7 66.8 14 66.8h13.2zm6.6 0c0-7.3 5.9-13.2 13.2-13.2S60.2 72.7 60.2 80v33c0 7.3-5.9 13.2-13.2 13.2s-13.2-5.9-13.2-13.2z" fill="#E01E5A"/><path d="M47 27c-7.3 0-13.2-5.9-13.2-13.2S39.7.6 47 .6s13.2 5.9 13.2 13.2V27zm0 6.7c7.3 0 13.2 5.9 13.2 13.2S54.3 60.1 47 60.1H13.9C6.6 60.1.7 54.2.7 46.9s5.9-13.2 13.2-13.2z" fill="#36C5F0"/><path d="M99.9 46.9c0-7.3 5.9-13.2 13.2-13.2s13.2 5.9 13.2 13.2-5.9 13.2-13.2 13.2H99.9zm-6.6 0c0 7.3-5.9 13.2-13.2 13.2s-13.2-5.9-13.2-13.2V13.8C66.9 6.5 72.8.6 80.1.6s13.2 5.9 13.2 13.2z" fill="#2EB67D"/><path d="M80.1 99.8c7.3 0 13.2 5.9 13.2 13.2s-5.9 13.2-13.2 13.2-13.2-5.9-13.2-13.2V99.8zm0-6.6c-7.3 0-13.2-5.9-13.2-13.2s5.9-13.2 13.2-13.2h33.1c7.3 0 13.2 5.9 13.2 13.2s-5.9 13.2-13.2 13.2z" fill="#ECB22E"/></g></svg>