<svg xmlns="http://www.w3.org/2000/svg" viewBox="0 0 500 203.234">
  <path fill="#224abe" d="M225.704 0H41.447A41.575 41.575 0 0 0 12.18 12.18 41.575 41.575 0 0 0 0 41.447v80.052a41.58 41.58 0 0 0 41.447 41.447h134.921l49.675 40.288v-40.288a41.568 41.568 0 0 0 41.121-41.447V41.447A41.584 41.584 0 0 0 225.704 0Zm92.483 43.583c3.85-.044 7.687.507 11.37 1.63a24.575 24.575 0 0 1 8.814 4.788 22.174 22.174 0 0 1 5.713 7.727 27.423 27.423 0 0 1 0 20.897 22.1 22.1 0 0 1-5.713 7.726 24.578 24.578 0 0 1-8.814 4.789 37.682 37.682 0 0 1-11.37 1.63h-9.567v26.998h-16.325l.004-76.185h25.888Zm-9.567 34.716h9.898a12.206 12.206 0 0 0 8.052-2.608 10.297 10.297 0 0 0 2.335-3.378c.542-1.273.819-2.639.819-4.022a10.245 10.245 0 0 0-3.154-7.4 12.206 12.206 0 0 0-8.052-2.608h-9.907l.009 20.016Zm41.552 13.03a27.806 27.806 0 0 1 2.137-10.924 27.78 27.78 0 0 1 6.246-9.211 28.68 28.68 0 0 1 9.246-5.987 31.706 31.706 0 0 1 23.074 0 28.68 28.68 0 0 1 9.246 5.987 28.165 28.165 0 0 1 6.25 9.215 28.171 28.171 0 0 1 2.199 10.92c0 3.749-.745 7.458-2.199 10.916a28.113 28.113 0 0 1-6.25 9.215 28.594 28.594 0 0 1-9.246 5.986 31.655 31.655 0 0 1-23.074 0 28.594 28.594 0 0 1-9.246-5.986 27.78 27.78 0 0 1-6.246-9.211 27.804 27.804 0 0 1-2.137-10.92Zm15.673 0a13.523 13.523 0 0 0 1.088 5.44 14.379 14.379 0 0 0 2.881 4.348 13.435 13.435 0 0 0 4.251 2.938 13.36 13.36 0 0 0 14.796-2.938 14.487 14.487 0 0 0 2.886-4.348 14.14 14.14 0 0 0 0-10.88 14.477 14.477 0 0 0-2.899-4.348 13.362 13.362 0 0 0-14.796-2.938 13.451 13.451 0 0 0-4.251 2.938 14.422 14.422 0 0 0-2.881 4.344 13.445 13.445 0 0 0-1.075 5.444Zm50.715-.004a27.798 27.798 0 0 1 8.379-20.131 28.577 28.577 0 0 1 9.25-5.987 31.642 31.642 0 0 1 23.065 0 28.588 28.588 0 0 1 9.25 5.987 28.178 28.178 0 0 1 6.251 9.215 28.242 28.242 0 0 1 2.198 10.916 28.222 28.222 0 0 1-8.449 20.135 28.557 28.557 0 0 1-9.25 5.982 31.631 31.631 0 0 1-23.065 0 28.547 28.547 0 0 1-9.25-5.982 27.85 27.85 0 0 1-6.247-9.211 27.765 27.765 0 0 1-2.132-10.924Zm15.669 0a13.494 13.494 0 0 0 1.088 5.444 14.524 14.524 0 0 0 2.898 4.348 13.483 13.483 0 0 0 4.251 2.938 13.38 13.38 0 0 0 14.797-2.938 14.356 14.356 0 0 0 2.898-4.348 14.154 14.154 0 0 0 0-10.884 14.405 14.405 0 0 0-2.898-4.348 13.362 13.362 0 0 0-14.797-2.934 13.516 13.516 0 0 0-4.251 2.934 14.574 14.574 0 0 0-2.898 4.348 13.587 13.587 0 0 0-1.084 5.44h-.004Zm51.882-47.742H500v76.18h-15.889z"/>
  <path fill="#fafafa" d="M38.601 94.474a17.743 17.743 0 0 0 5.824 7.608 14.39 14.39 0 0 0 8.867 2.898c2.44.066 4.845-.59 6.911-1.889a6.148 6.148 0 0 0 2.181-2.34c.506-.955.749-2.03.7-3.114 0-3.427-2.647-6.052-7.938-7.872l-9.144-3.145a33.768 33.768 0 0 1-13.277-7.973 17.903 17.903 0 0 1-4.899-12.999 21.558 21.558 0 0 1 1.851-9.079 19.947 19.947 0 0 1 5.215-6.924 24.245 24.245 0 0 1 7.89-4.458 29.97 29.97 0 0 1 9.955-1.573 29.314 29.314 0 0 1 15.453 4.194 26.275 26.275 0 0 1 10.435 11.651l-13.603 7.554a18.716 18.716 0 0 0-4.735-6.246 10.721 10.721 0 0 0-7.246-2.577 9.847 9.847 0 0 0-6.15 1.789 5.625 5.625 0 0 0-2.339 4.717A5.396 5.396 0 0 0 46.513 69a17.362 17.362 0 0 0 5.44 2.938l9.902 3.674a32.295 32.295 0 0 1 13.656 8.449 18.477 18.477 0 0 1 4.409 12.537c.066 3.418-.7 6.801-2.233 9.854a22.119 22.119 0 0 1-5.929 7.246 27.01 27.01 0 0 1-8.542 4.497 32.776 32.776 0 0 1-10.175 1.577 33.888 33.888 0 0 1-9.141-1.211 31.361 31.361 0 0 1-8.052-3.462 28.437 28.437 0 0 1-6.63-5.612 26.428 26.428 0 0 1-4.682-7.766l14.065-7.247Zm135.802-50.891v76.181h-15.884V71.718l-19.832 48.046h-11.686l-19.739-47.83v47.825H91.378V43.583h19.915l21.871 53.001 23.941-53.001h17.298Zm26.289 50.891a17.75 17.75 0 0 0 5.824 7.608 14.382 14.382 0 0 0 8.867 2.898c2.441.071 4.846-.59 6.912-1.889a6.134 6.134 0 0 0 2.176-2.335 6.11 6.11 0 0 0 .705-3.119c0-3.427-2.648-6.052-7.943-7.872l-9.136-3.158a33.738 33.738 0 0 1-13.276-7.977 17.818 17.818 0 0 1-3.762-6.005 17.845 17.845 0 0 1-1.137-6.995 21.534 21.534 0 0 1 1.85-9.074 19.941 19.941 0 0 1 5.216-6.925 24.269 24.269 0 0 1 7.889-4.458 30.042 30.042 0 0 1 9.96-1.577 29.307 29.307 0 0 1 15.448 4.198 26.266 26.266 0 0 1 10.462 11.634l-13.602 7.559a18.688 18.688 0 0 0-4.736-6.251 10.742 10.742 0 0 0-7.246-2.572 9.856 9.856 0 0 0-6.149 1.784 5.686 5.686 0 0 0-1.754 2.07 5.711 5.711 0 0 0-.586 2.652c-.017.819.146 1.63.485 2.374a5.358 5.358 0 0 0 1.476 1.925 17.567 17.567 0 0 0 5.44 2.943l9.907 3.669a32.295 32.295 0 0 1 13.655 8.449 18.49 18.49 0 0 1 4.41 12.541 21.067 21.067 0 0 1-2.234 9.854 22.099 22.099 0 0 1-5.929 7.246 27.052 27.052 0 0 1-8.541 4.511 32.86 32.86 0 0 1-10.176 1.577 34.08 34.08 0 0 1-9.14-1.211 31.389 31.389 0 0 1-8.052-3.463 28.413 28.413 0 0 1-6.639-5.612 26.402 26.402 0 0 1-4.682-7.766l14.038-7.233Z"/>
</svg>
