<svg width="114" height="47" viewBox="0 0 114 47" fill="none" xmlns="http://www.w3.org/2000/svg">
<path d="M51.2384 0H9.40916C6.91615 0.00798102 4.52753 1.00186 2.76469 2.76469C1.00186 4.52753 0.00798102 6.91615 0 9.40916L0 27.582C0.0078085 30.075 1.00163 32.4638 2.7645 34.2266C4.52737 35.9895 6.91609 36.9833 9.40916 36.9911H40.0383L51.3154 46.1371V36.9911C53.7957 36.9643 56.1658 35.9621 57.9127 34.2012C59.6597 32.4403 60.6431 30.0624 60.6502 27.582V9.40916C60.6419 6.9158 59.6476 4.52698 57.8842 2.76415C56.1209 1.00132 53.7318 0.00763233 51.2384 0Z" fill="#224ABE"/>
<path d="M72.2326 9.89356C73.1071 9.8842 73.9779 10.0091 74.8145 10.264C75.5491 10.4849 76.2303 10.8549 76.8154 11.351C77.3708 11.8338 77.8135 12.4326 78.1123 13.1052C78.7382 14.6244 78.7382 16.3294 78.1123 17.8486C77.8138 18.5213 77.371 19.1201 76.8154 19.6027C76.2302 20.0987 75.549 20.4687 74.8145 20.6897C73.9778 20.9445 73.1071 21.0694 72.2326 21.0602H70.0612V27.1893H66.3555V9.89356H72.2326ZM70.0612 17.7749H72.3076C72.9682 17.8018 73.6167 17.5918 74.1361 17.1827C74.3625 16.9654 74.5428 16.7046 74.6659 16.4159C74.789 16.1273 74.8524 15.8167 74.8524 15.5029C74.8524 15.189 74.789 14.8785 74.6659 14.5898C74.5428 14.3011 74.3625 14.0403 74.1361 13.823C73.6167 13.4138 72.9682 13.2038 72.3076 13.2308H70.0593L70.0612 17.7749Z" fill="#224ABE"/>
<path d="M79.4944 20.7325C79.4871 19.8818 79.6519 19.0385 79.9788 18.2531C80.3057 17.4677 80.7879 16.7565 81.3966 16.1622C82.002 15.5775 82.715 15.1158 83.4962 14.8028C85.18 14.1445 87.05 14.1445 88.7338 14.8028C89.5149 15.116 90.2278 15.5777 90.8333 16.1622C91.4407 16.7583 91.9231 17.4695 92.2524 18.2543C92.5818 19.039 92.7514 19.8815 92.7514 20.7325C92.7514 21.5835 92.5818 22.426 92.2524 23.2108C91.9231 23.9955 91.4407 24.7067 90.8333 25.3029C90.2281 25.8876 89.5151 26.3491 88.7338 26.6616C87.0501 27.3206 85.1798 27.3206 83.4962 26.6616C82.7148 26.3492 82.0017 25.8877 81.3966 25.3029C80.7879 24.7085 80.3057 23.9973 79.9788 23.2119C79.6519 22.4265 79.4871 21.5832 79.4944 20.7325ZM83.0521 20.7325C83.0476 21.1571 83.1316 21.5779 83.2988 21.9682C83.4555 22.3341 83.6774 22.6685 83.9535 22.9552C84.2289 23.2376 84.5565 23.464 84.9181 23.6217C85.48 23.8617 86.1013 23.9265 86.7006 23.8075C87.2999 23.6886 87.8494 23.3915 88.2771 22.9552C88.5534 22.6687 88.7753 22.3342 88.9317 21.9682C89.0947 21.5767 89.1787 21.1569 89.1787 20.7328C89.1787 20.3088 89.0947 19.889 88.9317 19.4975C88.774 19.1314 88.5511 18.7969 88.2738 18.5105C87.8461 18.0742 87.2966 17.7771 86.6973 17.6582C86.098 17.5392 85.4767 17.604 84.9148 17.844C84.5533 18.002 84.2258 18.2283 83.9502 18.5105C83.6742 18.7973 83.4524 19.1317 83.2955 19.4975C83.1298 19.8879 83.0465 20.3085 83.0521 20.7325Z" fill="#224ABE"/>
<path d="M94.5647 20.7323C94.5574 19.8816 94.7222 19.0383 95.0491 18.2529C95.376 17.4675 95.8582 16.7563 96.4669 16.1619C97.0722 15.5772 97.7853 15.1155 98.5666 14.8025C100.25 14.1443 102.12 14.1443 103.803 14.8025C104.585 15.1157 105.298 15.5773 105.903 16.1619C106.51 16.7582 106.993 17.4694 107.322 18.2541C107.651 19.0389 107.821 19.8813 107.821 20.7323C107.821 21.5833 107.651 22.4257 107.322 23.2104C106.993 23.9952 106.51 24.7064 105.903 25.3026C105.298 25.8874 104.585 26.3489 103.803 26.6614C102.12 27.3204 100.25 27.3204 98.5666 26.6614C97.7851 26.349 97.072 25.8875 96.4669 25.3026C95.8582 24.7083 95.376 23.9971 95.0491 23.2117C94.7222 22.4263 94.5574 21.583 94.5647 20.7323ZM98.1224 20.7323C98.1182 21.1568 98.2022 21.5776 98.3691 21.968C98.5266 22.3342 98.7496 22.6687 99.0271 22.9549C99.3025 23.2374 99.6302 23.4637 99.9918 23.6215C100.554 23.8613 101.175 23.926 101.775 23.8071C102.374 23.6882 102.923 23.3912 103.351 22.9549C103.629 22.6685 103.852 22.3341 104.009 21.968C104.172 21.5765 104.256 21.1566 104.256 20.7326C104.256 20.3086 104.172 19.8887 104.009 19.4973C103.852 19.1312 103.629 18.7968 103.351 18.5103C102.924 18.074 102.374 17.7769 101.775 17.658C101.175 17.5391 100.554 17.6038 99.9918 17.8438C99.6303 18.0017 99.3027 18.228 99.0271 18.5103C98.7498 18.7967 98.5268 19.1311 98.3691 19.4973C98.2026 19.8875 98.1189 20.308 98.1231 20.7323H98.1224Z" fill="#224ABE"/>
<path d="M113.507 9.89404V27.1878H109.9V9.89404H113.507Z" fill="#224ABE"/>
<path d="M8.76285 21.4469C9.03704 22.1328 9.49428 22.7303 10.0847 23.1741C10.6644 23.6106 11.3726 23.8421 12.0982 23.8321C12.652 23.8475 13.1979 23.6982 13.6668 23.4031C13.8758 23.2731 14.0465 23.09 14.1616 22.8724C14.2766 22.6549 14.3318 22.4107 14.3215 22.1648C14.3215 21.3866 13.7205 20.7911 12.5186 20.3783L10.4433 19.6638C9.31171 19.3025 8.27973 18.6828 7.42912 17.8537C7.05614 17.4609 6.76559 16.9974 6.57461 16.4906C6.38362 15.9838 6.29607 15.4438 6.31712 14.9026C6.30603 14.1936 6.44927 13.4906 6.73692 12.8425C7.01137 12.2378 7.41576 11.7011 7.92129 11.2705C8.44924 10.8233 9.05689 10.4797 9.71232 10.2579C10.4402 10.0125 11.2044 9.89166 11.9725 9.90061C13.2075 9.88661 14.422 10.2165 15.4802 10.8534C16.5198 11.4741 17.3459 12.3964 17.8489 13.4978L14.761 15.2132C14.5069 14.6697 14.1404 14.1862 13.6859 13.7946C13.2284 13.4035 12.6426 13.1954 12.0409 13.2103C11.5434 13.1862 11.052 13.3288 10.6447 13.6156C10.4757 13.7376 10.339 13.899 10.2465 14.0858C10.154 14.2725 10.1084 14.4791 10.1137 14.6874C10.109 14.8733 10.1466 15.0577 10.2236 15.2269C10.3007 15.396 10.4152 15.5455 10.5585 15.6639C10.9272 15.958 11.3454 16.1839 11.7935 16.3311L14.0418 17.1647C15.2203 17.5328 16.2868 18.1926 17.1423 19.0828C17.8174 19.8746 18.1741 20.8891 18.1431 21.9292C18.1578 22.7049 17.984 23.4727 17.6364 24.1663C17.31 24.8043 16.851 25.3652 16.2902 25.8113C15.7102 26.265 15.0534 26.6109 14.3511 26.8325C13.6047 27.0725 12.825 27.1931 12.0409 27.1898C11.3399 27.1929 10.6417 27.1006 9.96564 26.9154C9.32263 26.7399 8.70737 26.4752 8.13776 26.1291C7.57392 25.784 7.06641 25.3544 6.63296 24.8552C6.17983 24.3333 5.82033 23.7369 5.57031 23.0925L8.76285 21.4469Z" fill="#FAFAFA"/>
<path d="M39.5921 9.89404V27.1878H35.9857V16.2811L31.4844 27.1878H28.8308L24.3499 16.3304V27.1872H20.7441V9.89404H25.2651L30.2296 21.9259L35.6646 9.89404H39.5921Z" fill="#FAFAFA"/>
<path d="M45.5596 21.447C45.8338 22.1329 46.2911 22.7304 46.8815 23.1742C47.4612 23.6107 48.1694 23.8422 48.895 23.8322C49.4488 23.8476 49.9947 23.6983 50.4636 23.4032C50.6726 23.2733 50.8434 23.0901 50.9584 22.8726C51.0734 22.655 51.1286 22.4108 51.1183 22.1649C51.1183 21.3867 50.5173 20.7912 49.3154 20.3784L47.2415 19.6606C46.1098 19.2994 45.0779 18.6796 44.2272 17.8505C43.8543 17.4577 43.5637 16.9943 43.3727 16.4874C43.1817 15.9806 43.0942 15.4406 43.1152 14.8994C43.1042 14.1904 43.2474 13.4874 43.535 12.8393C43.8095 12.2346 44.2139 11.6979 44.7194 11.2674C45.2474 10.8201 45.855 10.4766 46.5104 10.2547C47.2383 10.0093 48.0025 9.88846 48.7706 9.89744C50.0056 9.88344 51.2201 10.2133 52.2783 10.8502C53.3196 11.4692 54.1478 12.3904 54.653 13.4913L51.565 15.2067C51.3109 14.6632 50.9445 14.1797 50.4899 13.7881C50.0323 13.3974 49.4465 13.1893 48.845 13.2038C48.3476 13.1798 47.8565 13.3225 47.4494 13.6091C47.2804 13.7312 47.1438 13.8926 47.0513 14.0793C46.9587 14.2661 46.9131 14.4726 46.9184 14.681C46.9137 14.8668 46.9513 15.0513 47.0283 15.2204C47.1054 15.3896 47.2199 15.539 47.3632 15.6574C47.7319 15.9515 48.1501 16.1775 48.5982 16.3246L50.8465 17.1583C52.025 17.5264 53.0915 18.1861 53.9469 19.0763C54.6221 19.8681 54.9788 20.8826 54.9477 21.9227C54.9625 22.6985 54.7887 23.4662 54.4411 24.1599C54.1147 24.7979 53.6557 25.3587 53.0949 25.8048C52.5151 26.2598 51.8583 26.6068 51.1558 26.8293C50.4093 27.0694 49.6297 27.1899 48.8456 27.1866C48.1448 27.1897 47.4469 27.0974 46.771 26.9122C46.128 26.7367 45.5127 26.4721 44.9431 26.1259C44.3784 25.781 43.8699 25.3514 43.4357 24.8521C42.9826 24.3301 42.6231 23.7338 42.373 23.0893L45.5596 21.447Z" fill="#FAFAFA"/>
</svg>
