<svg xmlns="http://www.w3.org/2000/svg" viewBox="0.6000006198883057 0.9885644912719727 95 37.2114372253418" enable-background="new 0 0 96 39"><path fill="#ABD3FF" d="M54.6 38.2c-.4 0-.8-.1-1.1-.4-.7-.5-.9-1.5-.4-2.3.1-.2 11.3-18.8 5.5-28-1.2-1.9-2.5-3-4-3-2.8-.1-5.9 3-6.9 4.3-.6.8-1.7.9-2.5.3-.8-.6-.9-1.7-.3-2.5.2-.2 4.6-5.9 9.8-5.6 2.7.1 5 1.7 6.8 4.7 4.3 6.9 1.3 17.3-1.7 24.2 3.1-2.2 7-4.3 10.6-4.9 1-.1 1.9.5 2 1.5.1 1-.5 1.9-1.5 2-6.9 1.1-15.1 9.1-15.2 9.2-.2.4-.7.5-1.1.5z"></path><g fill="#fff"><path d="M11.5 23.5c0 .9-.2 1.8-.7 2.5s-1.2 1.3-2.1 1.7-2 .6-3.3.6c-1 0-1.9-.1-2.6-.2-.7-.1-1.4-.4-2.2-.7v-3.6c.8.4 1.6.7 2.5.9.8.2 1.6.3 2.3.3.6 0 1.1-.1 1.4-.3.3-.2.4-.5.4-.8 0-.2-.1-.4-.2-.5 0-.2-.2-.4-.5-.5-.3-.2-1-.5-2.1-1-1-.4-1.8-.9-2.3-1.3-.5-.4-.9-.9-1.1-1.4-.2-.5-.4-1.2-.4-1.9 0-1.4.5-2.5 1.6-3.2 1-.8 2.5-1.2 4.3-1.2 1.6 0 3.3.4 4.9 1.1l-1.2 3c-1.5-.6-2.7-1-3.8-1-.5 0-.9.1-1.2.3-.2.2-.4.5-.4.7 0 .3.2.6.5.8.3.2 1.2.7 2.6 1.3 1.3.6 2.3 1.2 2.8 1.9s.8 1.5.8 2.5zM20.3 28.1l-3.2-10.9H17c.1 1.9.2 3.3.2 4.3V28h-3.7V13h5.6l3.3 10.7h.1L25.6 13h5.6v15.1h-3.9V20.4s.1-1.4.1-3.1h-.1l-3.1 10.8h-3.9zM40.6 28.1h-4.2V16.3h-3.8V13h11.8v3.3h-3.8v11.8zM57.5 17.8c0 1.7-.5 3-1.5 3.9-1 .9-2.5 1.4-4.4 1.4h-1.2v5h-4.2V13h5.4c2 0 3.5.4 4.4 1.2 1 .9 1.5 2.1 1.5 3.6zm-7.1 2h.8c.6 0 1.1-.2 1.5-.5.4-.3.6-.8.6-1.4 0-1-.6-1.5-1.8-1.5h-1.1v3.4zM72 19.3h6.7v8.1c-1.8.6-3.8.9-6 .9-2.4 0-4.3-.7-5.6-2-1.3-1.3-2-3.3-2-5.8 0-2.4.7-4.3 2.2-5.7 1.4-1.4 3.5-2 6-2 1 0 1.9.1 2.8.3.9.2 1.6.4 2.3.7L77 16.9c-1.1-.5-2.4-.8-3.7-.8-1.2 0-2.2.4-2.9 1.2-.7.8-1 1.9-1 3.3s.3 2.5.9 3.2c.6.7 1.5 1.1 2.6 1.1.6 0 1.2-.1 1.7-.2v-2.4H72v-3zM95.6 20.5c0 2.5-.6 4.5-1.9 5.8s-3.2 2-5.7 2c-2.4 0-4.3-.7-5.6-2-1.3-1.3-2-3.3-2-5.8s.7-4.4 1.9-5.8 3.2-2 5.7-2 4.4.7 5.6 2 2 3.3 2 5.8zm-10.7 0c0 2.9 1.1 4.4 3.2 4.4 1.1 0 1.9-.4 2.4-1.1.5-.7.8-1.8.8-3.3 0-1.5-.3-2.6-.8-3.3-.5-.7-1.3-1.1-2.3-1.1-2.3 0-3.3 1.5-3.3 4.4z"></path></g></svg>