<svg version="1.1" id="Ebene_1" xmlns="http://www.w3.org/2000/svg" x="0" y="0" viewBox="0 0 720 720" xml:space="preserve"><style>.st0{fill:#1d4ed8}</style><path class="st0" d="M402.8 425H705v259.9H402.8z"/><circle vector-effect="non-scaling-stroke" class="st0" cx="553.9" cy="429.9" r="151.1"/><circle vector-effect="non-scaling-stroke" class="st0" cx="553.9" cy="144.8" r="109.7"/><path d="M174.2 180.3H383v140.6c0 87.8-71.3 159.2-159.2 159.2h-49.7C86.3 480 15 412.9 15 330.2c0-82.8 71.3-149.9 159.2-149.9m-66.7 92v28.9c2.5-2.9 4.9-5.1 7.2-6.8 2.4-1.7 5-2.9 7.8-3.7 2.9-.8 5.9-1.3 9.2-1.3 5 0 9.3 1 13.2 3.1 3.8 2.1 6.8 5.1 9 9.1 1.4 2.3 2.3 4.9 2.8 7.8s.7 6.2.7 10v37.3c0 3.9-.9 6.9-2.7 8.9s-4.2 3-7.1 3c-6.4 0-9.6-4-9.6-11.9v-32.9c0-6.2-.9-11-2.8-14.4s-5.4-5-10.6-5c-3.5 0-6.6 1-9.4 3s-4.9 4.7-6.2 8.1c-1 2.9-1.6 8.1-1.6 15.5v25.8c0 3.9-.9 6.8-2.6 8.8s-4.2 3-7.2 3c-6.4 0-9.6-4-9.6-11.9v-84.5c0-4 .8-6.9 2.5-8.9s4.1-3 7.1-3q4.65 0 7.2 3 2.7 3.15 2.7 9m85.5 50.4h35.3q-.75-10.05-5.4-15c-3.1-3.3-7.2-5-12.3-5-4.9 0-8.8 1.7-12 5-3 3.5-4.9 8.5-5.6 15m84.8 48.4 1.8-4.4-24-60.4c-1.5-3.5-2.2-6-2.2-7.6 0-1.7.4-3.2 1.3-4.6s2-2.6 3.5-3.4c1.5-.9 3.1-1.3 4.7-1.3 2.8 0 4.9.9 6.4 2.7 1.4 1.8 2.7 4.3 3.8 7.7l16.5 48 15.6-44.6c1.2-3.6 2.4-6.4 3.4-8.5 1-2 2.1-3.4 3.2-4.1s2.7-1.1 4.7-1.1q2.25 0 4.2 1.2c1.4.8 2.4 1.8 3.1 3.2.7 1.3 1.1 2.7 1.1 4.2q-.3 1.35-.9 3.9c-.4 1.7-1 3.4-1.6 5.1L297 373.4c-2.2 5.9-4.3 10.4-6.4 13.8-2.1 3.3-4.9 5.9-8.3 7.7-3.5 1.8-8.1 2.7-14 2.7-5.7 0-10-.6-12.8-1.9-2.9-1.2-4.3-3.5-4.3-6.8 0-2.2.7-4 2-5.2q2.1-1.8 6-1.8c1 0 2.1.1 3.1.4 1.2.3 2.3.4 3.2.4 2.2 0 4-.3 5.3-1s2.4-1.8 3.5-3.5c1-1.5 2.2-3.9 3.5-7.1m-46.7-37.3H193q0 6.6 2.7 11.7c1.7 3.4 4 5.9 6.9 7.6s6.1 2.6 9.5 2.6c2.3 0 4.5-.3 6.4-.8s3.8-1.4 5.6-2.6 3.5-2.4 5-3.7 3.5-3.1 5.9-5.4c1-.9 2.4-1.3 4.3-1.3 2 0 3.6.5 4.9 1.6 1.2 1.1 1.9 2.6 1.9 4.6 0 1.8-.7 3.8-2.1 6.2s-3.5 4.6-6.2 6.8q-4.2 3.3-10.5 5.4c-4.2 1.4-9.1 2.1-14.5 2.1-12.5 0-22.3-3.6-29.2-10.7s-10.4-16.8-10.4-29.1c0-5.8.9-11.1 2.6-16s4.2-9.1 7.5-12.7c3.3-3.5 7.3-6.2 12.1-8.1s10.1-2.8 16-2.8c7.6 0 14.1 1.6 19.6 4.8 5.4 3.2 9.5 7.4 12.2 12.5s4.1 10.3 4.1 15.6c0 4.9-1.4 8.1-4.2 9.5-2.9 1.5-6.9 2.2-12 2.2" style="fill-rule:evenodd;clip-rule:evenodd;fill:#1d4ed8"/></svg>