<?xml version='1.0' encoding='utf-8'?>
<svg xmlns="http://www.w3.org/2000/svg" id="Lager_1" data-name="Lager 1" viewBox="0 0 189.11 188.93">
    <path d="M515.5,279.22a94.56,94.56,0,1,1-94.56-94.47A94.51,94.51,0,0,1,515.5,279.22Z" transform="translate(-326.39 -184.75)" fill="#000" />
    <path d="M388.45,300.05c-1.94,8.41-12.59,1.73-15.15,12-2.42,9.71,7.54,19.77,1.62,19.42-8.11-.48-18-2.84-12.78,11.64-2.5-16.77,14.88-4.2,18.93-9.7s-5.92-19.23,2.81-19.12,11.89,2,15.58-3.46C395.14,308,392.36,305.21,388.45,300.05Z" transform="translate(-326.39 -184.75)" fill="#fff" />
    <path d="M412.37,239.33c11.71-12.4-2.75-9.08-2.75-18.16.07-5.18,15.13-6.72,17.07-12s-20.14-9.51-5.84-18.11c-8.05,11.07,10.86,9.87,10.43,18.11-.36,6.62-11.08,9-11.08,12.07-.21,5.56,15.66,5.72,9.2,18.3A39.57,39.57,0,0,0,412.37,239.33Z" transform="translate(-326.39 -184.75)" fill="#fff" />
    <path d="M442.81,245.1c1.86-4.54,6-10.44,14.59-8,14.41,4.09,1.48-9.39,10.51-14.21,7.66-4.11,11.06,6.13,20.79,3.31-6.61,7.84-14.16-4.16-18.5,2.24-3.85,5.66,3.15,11.12.91,15.22-3.51,6.36-10.36.78-13.8,3.33s-3,6.88-3,10.37C451.87,252.48,447.08,248.24,442.81,245.1Z" transform="translate(-326.39 -184.75)" fill="#fff" />
    <path d="M459.71,270.1c10.31,9.5,11-3.49,17.62-3.5,5.78,0,8.12,17.32,14.11,17.51,6.79.2,10.64-15.69,18.73-5-9.61-5.29-11.14,9.84-18.53,10-10.84.18-11.22-12.56-14.53-12.56-4.54.22-4.5,17.44-17.9,10.43A36.93,36.93,0,0,0,459.71,270.1Z" transform="translate(-326.39 -184.75)" fill="#fff" />
    <path d="M441.56,311.37c8.81,5.91.67,11.88,5.51,16.58,3.45,3.31,13.88-4,18.59-2.52,3,1-2.63,9.82,1.92,13.41,3.83,3,11.91,2.08,15.82-.8-5.36.62-11.13,1.45-13.45-3.86s3.81-12.27,1.3-15.35c-2.19-2.67-16,5.2-15-4.28.43-3.77,3.15-12-2.92-14.27A40.5,40.5,0,0,1,441.56,311.37Z" transform="translate(-326.39 -184.75)" fill="#fff" />
    <path d="M412.93,316.48c-2.42,10.89,6.09,12.37,6.25,16.28.24,5.88-9.29,6.94-9.12,14.06.11,4.61,16.23,9.05,10.49,18.07,8.06-6.25-4-13.61-3.82-17.92.29-8,14.07-6.12,13.8-15.05-.21-7.85-6.11-5.67-.93-15.45A42.33,42.33,0,0,1,412.93,316.48Z" transform="translate(-326.39 -184.75)" fill="#fff" />
    <path d="M382.27,270.8c-13.19-4.74-16.29,11-20,10.81S354,266,349.36,270.07c-8.09,7.13-6.68,12.48-14.61,9.24,7.33,7.23,9.09-1.91,15-5.25,5-2.8,4.85,16.63,12.69,16.83,4.33.11,9.5-7,12.18-7a11.29,11.29,0,0,1,8.15,3.9A39,39,0,0,1,382.27,270.8Z" transform="translate(-326.39 -184.75)" fill="#fff" />
    <path d="M387.73,257.21c-8.38-2.34-6.54-10.82-5.79-16.22.72-5.23.37-8.75-8-3.9s-14.66-4.52-9.71-9.8c4.33-4.63-2-7.48-6.53-6.16,1.56-1.92,9.08-5.59,11.55,2,1.34,4.12-2.73,7.4-.53,9.09,4.09,3.13,9.78-8.44,16.32-6.12,5.79,2.06,3.4,6.33,5.69,13.72,1.09,3.47,3.89,5.43,7.74,5.77A38.31,38.31,0,0,0,387.73,257.21Z" transform="translate(-326.39 -184.75)" fill="#fff" />
    <path d="M409.85,272.86c-2.28-.32-1.89-2.08-1.89-2.08l-2.61-1s-.83,5.07,4.25,5.06c4.82,0,5.61-2.24,5.68-2.75a31,31,0,0,0-3.14-.53C411.75,272.16,411.73,273.13,409.85,272.86Z" transform="translate(-326.39 -184.75)" fill="#fff" />
    <path d="M434.69,270.35a1.63,1.63,0,0,1-1.34,2.51c-1.88.27-2.14-.57-2.41-1.42-1,.19-2.36.33-3.45.57.07.52,1.72,3.07,6.46,2.23,5.18-.92,3.34-5,3.34-5S435.55,270,434.69,270.35Z" transform="translate(-326.39 -184.75)" fill="#fff" />
    <path d="M420.74,293.72c-14.62.21-22.05-3.89-23.72-5.91-.63,2.23,7,17.47,24.38,17.32C440.23,305,445,287.89,445,285.06,442.31,288.11,439.06,293.44,420.74,293.72Z" transform="translate(-326.39 -184.75)" fill="#fff" />
    <path d="M420.91,241.27a36.51,36.51,0,1,0,36.51,36.51A36.5,36.5,0,0,0,420.91,241.27ZM422,267.54c1.51,3,.26,4.91,10.47,1.74,3.82-1.17,10.61-7.94,16.46-1.64-4.15-3.13-9.22-.58-8.93,1.15-.19.92.14,5-5.42,6.26-5.32,1.19-7.78-1.85-8.5-2.64C422.12,272.47,421.79,269.07,422,267.54Zm1.77,14.94c-1.27.94,1.15-2.3,2.81-1.6s-1,4.28-.31,2.09C426.83,281.18,425.19,281.39,423.74,282.48Zm-13-12.82c10,2.92,9.33.72,9.67-.19.11.66-.11,3-4.05,2.94-.71.79-.92,3.65-6.58,3.61-6.84,0-7.21-5.11-7.31-6.29-.21-2.68-5.71-2.67-8.31-2.09C400.29,264.68,406.86,268.54,410.7,269.66Zm6.4,14.28c.33,1.19-2.53-1.32-.3-2.14s3.53,1.73,3,1.33C418.21,282,416.5,281.71,417.1,283.94Zm29.71,0c-.65,7-5.71,21.68-25.34,21.87-16.91.16-25.79-11.3-26.29-18.11-1.12,1.22-1.7,3.22-1.68,5.77-.48-1.06-1.07-6,1.56-8a3.56,3.56,0,0,1,3.33-.23c-1.24.65-.88.25-1.34.72.66,1.63,8.88,7.06,23.49,7.05,16.14,0,22-5.63,24.36-10.67a4.44,4.44,0,0,0-2.6-1.14,5.06,5.06,0,0,1,4.78.25c1.65,1.14,2.74,4.23,2.6,7.56C449.46,287.4,448.4,284.46,446.81,284Z" transform="translate(-326.39 -184.75)" fill="#fff" />
</svg>