<svg xmlns="http://www.w3.org/2000/svg" width="2048" height="2048" style="shape-rendering:geometricPrecision;text-rendering:geometricPrecision;image-rendering:optimizeQuality;fill-rule:evenodd;clip-rule:evenodd"><path style="opacity:.996" fill="#0e1c2f" d="M1548.5 162.5c-175.17 1.333-350.67 2-526.5 2-175.667 0-351.167-.333-526.5-1C631.873 79.544 780.207 31.044 940.5 18c218.28-16.26 420.94 31.906 608 144.5z"/><path style="opacity:.999" fill="#0d1a32" d="M1548.5 162.5a401.262 401.262 0 0 1 39 26h-1131a394.842 394.842 0 0 1 39-25c175.333.667 350.833 1 526.5 1 175.83 0 351.33-.667 526.5-2z"/><path style="opacity:.999" fill="#091935" d="M456.5 188.5h1131c86.02 57.676 161.36 127.342 226 209-121.76.665-243.43 1.332-365 2-63.73-15.873-127.4-15.873-191 0l-1026-2c64.043-81.786 139.043-151.453 225-209z"/><path style="opacity:1" fill="#fefefe" d="M1448.5 399.5c30.29 8.205 59.29 19.538 87 34 39.3 21.614 73.97 49.281 104 83a448.539 448.539 0 0 1 54 78c24.61 48.431 38.61 99.765 42 154 2.21 42.045-2.12 83.378-13 124a971.133 971.133 0 0 1-16 47 741.375 741.375 0 0 1-23 46c-17.25 28.268-37.58 54.27-61 78-34.18 34.1-73.51 60.77-118 80-51.38 21.76-105.05 32.26-161 31.5-4.36 3.18-8.7 6.34-13 9.5-16.7 12.01-33.37 24.01-50 36a423.496 423.496 0 0 0-28 20c-26.67 19-53.33 38-80 57-8.7 6.35-17.37 12.68-26 19a3626.73 3626.73 0 0 0-67 48 434.691 434.691 0 0 0-23 16 2220.611 2220.611 0 0 0-64 46c-.991 6.48-1.324 13.15-1 20a459.584 459.584 0 0 1-7 53c-1.601 3.05-2.601 6.38-3 10a357.375 357.375 0 0 1-27 65c-2.5 2.99-4.5 6.33-6 10-13.083 19.44-28.083 37.44-45 54-4.041 3.68-8.041 7.34-12 11-29.815 23.91-63.148 41.58-100 53a343.966 343.966 0 0 1-61 11c-33.652 2.11-66.652-1.55-99-11-42.108-12.87-79.108-34.21-111-64-20.012-19-37.012-40.34-51-64a357.375 357.375 0 0 1-27-65 42.698 42.698 0 0 0-4-14.5 9251.854 9251.854 0 0 0-120-49.5l-261-108c-1.25-.08-2.083-.74-2.5-2a800.538 800.538 0 0 1-32-153c-7.588-68.23-9.754-136.56-6.5-205 7.344 2.673 14.677 5.34 22 8a5488.52 5488.52 0 0 0 155 64 433.549 433.549 0 0 0 36 15 12461.915 12461.915 0 0 0 194 80c44.796 18.89 89.796 37.56 135 56 49.927-33.07 104.927-48.57 165-46.5 2.465-3.11 4.798-6.27 7-9.5 18.333-26.67 36.667-53.33 55-80l10-15a2176.198 2176.198 0 0 0 44-64 1593.147 1593.147 0 0 0 31-45 55175.95 55175.95 0 0 0 33-48 10594.65 10594.65 0 0 0 66.5-96 136.212 136.212 0 0 1 .5-28c3.459-54.238 17.459-105.572 42-154a529.031 529.031 0 0 0 15-27 477.118 477.118 0 0 1 39-51c30.03-33.719 64.7-61.386 104-83a384.379 384.379 0 0 1 87-34c63.6-15.873 127.27-15.873 191 0z"/><path style="opacity:1" fill="#061838" d="m231.5 397.5 1026 2a384.379 384.379 0 0 0-87 34l-965-2a494.14 494.14 0 0 1 26-34zM1813.5 397.5a1045.368 1045.368 0 0 1 26 35c-101.5-.333-202.83.001-304 1-27.71-14.462-56.71-25.795-87-34 121.57-.668 243.24-1.335 365-2z"/><path style="opacity:1" fill="#051839" d="m205.5 431.5 965 2c-39.3 21.614-73.97 49.281-104 83h-916a809.052 809.052 0 0 1 55-85z"/><path style="opacity:.999" fill="#051839" d="M1839.5 432.5a773.716 773.716 0 0 1 54 83c-84.5.999-169.17 1.333-254 1-30.03-33.719-64.7-61.386-104-83 101.17-.999 202.5-1.333 304-1z"/><path style="opacity:1" fill="#06193c" d="M150.5 516.5h916a477.118 477.118 0 0 0-39 51h-905a598.717 598.717 0 0 1 28-51z"/><path style="opacity:.999" fill="#06193c" d="M1893.5 515.5c15.21 25.076 28.87 51.076 41 78-80.5-.333-160.84.001-241 1a448.539 448.539 0 0 0-54-78c84.83.333 169.5-.001 254-1z"/><path style="opacity:1" fill="#07193e" d="M1535.5 593.5c-35.17-.332-70.17.002-105 1-51.07-21.172-102.07-21.172-153 0-35.5-.998-71.16-1.332-107-1 57.77-58.209 127.77-83.709 210-76.5 60.08 7.625 111.58 32.458 154.5 74.5.46.594.63 1.261.5 2zM122.5 567.5h905a529.031 529.031 0 0 1-15 27 101952.11 101952.11 0 0 0-903 0 167.963 167.963 0 0 1 13-27z"/><path style="opacity:1" fill="#fefefe" d="M1430.5 594.5c65.53 31.388 103.53 83.055 114 155 3.85 43.597-5.15 84.263-27 122-43.73 64.198-104.73 94.365-183 90.5-61.72-8.332-109.72-38.165-144-89.5-22.39-38.332-31.72-79.666-28-124 11.16-71.667 49.49-123 115-154 50.93-21.172 101.93-21.172 153 0z"/><path style="opacity:1" fill="#071941" d="M1012.5 594.5c-24.541 48.428-38.541 99.762-42 154h-919c14.827-53.162 34.16-104.495 58-154a101952.11 101952.11 0 0 1 903 0z"/><path style="opacity:1" fill="#081a41" d="M1170.5 593.5c35.84-.332 71.5.002 107 1-65.51 31-103.84 82.333-115 154h-63c5.6-60.192 29.27-111.859 71-155zM1430.5 594.5c34.83-.998 69.83-1.332 105-1 30.1 30.51 51.27 66.51 63.5 108a233.179 233.179 0 0 1 8.5 47c-21.17-.331-42.17.003-63 1-10.47-71.945-48.47-123.612-114-155z"/><path style="opacity:.999" fill="#071941" d="M1934.5 593.5a909.957 909.957 0 0 1 36.5 86 771.706 771.706 0 0 1 21.5 69h-257c-3.39-54.235-17.39-105.569-42-154 80.16-.999 160.5-1.333 241-1z"/><path style="opacity:1" fill="#091b47" d="M51.5 748.5h919a136.212 136.212 0 0 0-.5 28 10594.65 10594.65 0 0 1-66.5 96c-293.07.332-586.07-.001-879-1a1064.799 1064.799 0 0 1 27-123z"/><path style="opacity:1" fill="#0a1b47" d="M1099.5 748.5h63c-3.72 44.334 5.61 85.668 28 124h-71c-17.13-39.641-23.79-80.974-20-124zM1607.5 748.5c3.07 42.911-3.6 84.244-20 124-23.51.331-46.84-.002-70-1 21.85-37.737 30.85-78.403 27-122a992.813 992.813 0 0 1 63-1z"/><path style="opacity:.999" fill="#091b47" d="M1735.5 748.5h257c12.13 40.531 21.13 81.864 27 124h-297c10.88-40.622 15.21-81.955 13-124z"/><path style="opacity:1" fill="#0b1e4c" d="M24.5 871.5c292.93.999 585.93 1.332 879 1a55175.95 55175.95 0 0 1-33 48h-852a4908.07 4908.07 0 0 1 6-49z"/><path style="opacity:.999" fill="#0b1e4c" d="M1722.5 872.5h297a649.186 649.186 0 0 1 6 47 12733.355 12733.355 0 0 1-319 0 971.133 971.133 0 0 0 16-47z"/><path style="opacity:1" fill="#0d204f" d="M1517.5 871.5c23.16.998 46.49 1.331 70 1-15.85 36.74-39.19 67.74-70 93h-329c-30.25-25.591-53.25-56.591-69-93h71c34.28 51.335 82.28 81.168 144 89.5 78.27 3.865 139.27-26.302 183-90.5z"/><path style="opacity:1" fill="#0c204f" d="M18.5 920.5h852a1593.147 1593.147 0 0 1-31 45h-801a36485.62 36485.62 0 0 1-22-8c-.647-.774-.98-1.774-1-3 1.12-11.326 2.12-22.659 3-34z"/><path style="opacity:.999" fill="#0c204f" d="M1706.5 919.5c106.24 1.332 212.57 1.332 319 0 1.55 14.648 2.89 29.315 4 44a15006.472 15006.472 0 0 1-346 2 741.375 741.375 0 0 0 23-46z"/><path style="opacity:1" fill="#0e2353" d="M38.5 965.5h801a2176.198 2176.198 0 0 1-44 64h-602a5488.52 5488.52 0 0 1-155-64zM1188.5 965.5h329c-36.51 31.479-78.84 50.98-127 58.5-76.16 9.88-143.49-9.62-202-58.5z"/><path style="opacity:.999" fill="#0e2454" d="M2029.5 963.5c.84 26.991 1.17 53.99 1 81-136.17.33-272.17 0-408-1 23.42-23.73 43.75-49.732 61-78 115.54.662 230.88-.005 346-2z"/><path style="opacity:1" fill="#0f2656" d="M193.5 1029.5h602l-10 15h-556a433.549 433.549 0 0 1-36-15z"/><path style="opacity:1" fill="#10285a" d="M229.5 1044.5h556c-18.333 26.67-36.667 53.33-55 80h-307a12461.915 12461.915 0 0 1-194-80z"/><path style="opacity:.999" fill="#10285a" d="M1622.5 1043.5c135.83 1 271.83 1.33 408 1-.2 26.91-1.87 53.58-5 80-173.83.33-347.5 0-521-1 44.49-19.23 83.82-45.9 118-80z"/><path style="opacity:1" fill="#132c5f" d="M423.5 1124.5h307a164.117 164.117 0 0 1-7 9.5c-60.073-2.07-115.073 13.43-165 46.5a12448.542 12448.542 0 0 1-135-56z"/><path style="opacity:1" fill="#122c5f" d="M1504.5 1123.5c173.5 1 347.17 1.33 521 1-.78 13.91-2.45 27.58-5 41-230.17.33-460.17 0-690-1 4.3-3.16 8.64-6.32 13-9.5 55.95.76 109.62-9.74 161-31.5z"/><path style="opacity:1" fill="#132e62" d="M1330.5 1164.5c229.83 1 459.83 1.33 690 1a378.42 378.42 0 0 1-5 35c-245.1 1.33-490.1 1.33-735 0 16.63-11.99 33.3-23.99 50-36z"/><path style="opacity:1" fill="#133064" d="M1280.5 1200.5c244.9 1.33 489.9 1.33 735 0-1.33 7.33-2.67 14.67-4 22-253.1-.67-506.1-1.33-759-2 9.03-7.02 18.36-13.69 28-20z"/><path style="opacity:1" fill="#143367" d="M878.5 1277.5c-29.495 1-59.162 1.33-89 1-5.639-3.15-11.306-6.32-17-9.5a6150.12 6150.12 0 0 1-136-57c66.328-22.98 129.661-16.64 190 19 20.014 12.51 37.347 28.01 52 46.5z"/><path style="opacity:1" fill="#133467" d="M1252.5 1220.5c252.9.67 505.9 1.33 759 2-3.82 18.78-8.16 37.45-13 56-275.5.33-550.83 0-826-1 26.67-19 53.33-38 80-57z"/><path style="opacity:1" fill="#13376b" d="M1172.5 1277.5c275.17 1 550.5 1.33 826 1-1.67 6.02-3.34 12.02-5 18-282.43 1.33-564.76 1.33-847 0 8.63-6.32 17.3-12.65 26-19z"/><path style="opacity:1" fill="#143a6e" d="M878.5 1277.5c16.705 19.73 29.039 42.06 37 67-22.494 1-45.161 1.33-68 1-12.878-27.88-32.211-50.21-58-67 29.838.33 59.505 0 89-1z"/><path style="opacity:1" fill="#133a6e" d="M1146.5 1296.5c282.24 1.33 564.57 1.33 847 0a504.277 504.277 0 0 1-15 48c-299.76 1.33-599.43 1.33-899 0a3626.73 3626.73 0 0 1 67-48z"/><path style="opacity:1" fill="#143d71" d="M1079.5 1344.5c299.57 1.33 599.24 1.33 899 0-1.8 6.07-3.8 12.07-6 18-305.43-.67-610.76-1.33-916-2 7.49-5.58 15.16-10.91 23-16z"/><path style="opacity:.998" fill="#144174" d="m57.5 1317.5 261 108c-73.569.67-147.236 1.34-221 2a954.98 954.98 0 0 1-40-110z"/><path style="opacity:1" fill="#154074" d="M915.5 1344.5c3.744 9.63 6.577 19.63 8.5 30a141.54 141.54 0 0 1 2.5 25v13h-64c.159-23.52-4.841-45.85-15-67 22.839.33 45.506 0 68-1z"/><path style="opacity:1" fill="#144074" d="M1056.5 1360.5c305.24.67 610.57 1.33 916 2-5.94 16.82-12.27 33.49-19 50h-961v-6c21.03-15.69 42.36-31.02 64-46z"/><path style="opacity:1" fill="#144377" d="M992.5 1406.5v6h961c-2.09 5.18-4.43 10.18-7 15-318.17-1-636.5-1.33-955-1-.324-6.85.009-13.52 1-20z"/><path style="opacity:.999" fill="#14477a" d="M318.5 1425.5a9251.854 9251.854 0 0 1 120 49.5 42.698 42.698 0 0 1 4 14.5c-104.499 1-209.165 1.33-314 1a918.133 918.133 0 0 1-31-63c73.764-.66 147.431-1.33 221-2z"/><path style="opacity:1" fill="#15477a" d="M926.5 1399.5c1.774 22.48-.059 44.81-5.5 67a998.008 998.008 0 0 1-7.5 24c-23.691.66-47.024-.01-70-2 9.149-17.61 14.982-36.28 17.5-56 .711-6.66 1.211-13.32 1.5-20h64v-13z"/><path style="opacity:1" fill="#14477a" d="M991.5 1426.5c318.5-.33 636.83 0 955 1a639.415 639.415 0 0 1-25 53c-312.17-1-624.5-1.33-937-1a459.584 459.584 0 0 0 7-53z"/><path style="opacity:1" fill="#14497d" d="M984.5 1479.5c312.5-.33 624.83 0 937 1-1.24 4.16-3.24 7.82-6 11-311.33-.67-622.67-1.33-934-2 .399-3.62 1.399-6.95 3-10z"/><path style="opacity:1" fill="#154e81" d="M843.5 1488.5c22.976 1.99 46.309 2.66 70 2-9.202 24.09-22.202 45.76-39 65-33.171.33-66.171 0-99-1 28.926-15.59 51.592-37.59 68-66z"/><path style="opacity:.999" fill="#144d80" d="M442.5 1489.5a357.375 357.375 0 0 0 27 65c-101.165 1-202.499 1.33-304 1a621.298 621.298 0 0 1-37-65c104.835.33 209.501 0 314-1z"/><path style="opacity:1" fill="#144d80" d="M981.5 1489.5c311.33.67 622.67 1.33 934 2a621.837 621.837 0 0 1-37 65c-308.1-.67-616.1-1.33-924-2a357.375 357.375 0 0 0 27-65z"/><path style="opacity:1" fill="#145184" d="M954.5 1554.5c307.9.67 615.9 1.33 924 2-1.27 3.55-3.27 6.55-6 9-308.17.33-616.17 0-924-1 1.5-3.67 3.5-7.01 6-10z"/><path style="opacity:.999" fill="#145386" d="M469.5 1554.5c13.988 23.66 30.988 45 51 64-103.832 1-207.832 1.33-312 1a820.612 820.612 0 0 1-43-64c101.501.33 202.835 0 304-1z"/><path style="opacity:1" fill="#155386" d="M775.5 1554.5c32.829 1 65.829 1.33 99 1-31.815 36.89-71.815 60.39-120 70.5-77.629 13.15-144.129-8.02-199.5-63.5-14.762-16.01-26.929-33.85-36.5-53.5a3685.004 3685.004 0 0 1 125 51c44.771 16.71 88.771 14.88 132-5.5z"/><path style="opacity:1" fill="#145487" d="M948.5 1564.5c307.83 1 615.83 1.33 924 1a508.327 508.327 0 0 1-37 55c-310.76-.67-621.43-1.33-932-2 16.917-16.56 31.917-34.56 45-54z"/><path style="opacity:1" fill="#14578a" d="M903.5 1618.5c310.57.67 621.24 1.33 932 2a58.321 58.321 0 0 1-8 10c-312.17.33-624.17 0-936-1 3.959-3.66 7.959-7.32 12-11z"/><path style="opacity:1" fill="#135a8d" d="M891.5 1629.5c311.83 1 623.83 1.33 936 1a546.483 546.483 0 0 1-43 53c-331.17.33-662.17 0-993-1 36.852-11.42 70.185-29.09 100-53z"/><path style="opacity:.999" fill="#13598c" d="M520.5 1618.5c31.892 29.79 68.892 51.13 111 64-123.667.67-247.333 1.33-371 2a757.24 757.24 0 0 1-52-65c104.168.33 208.168 0 312-1z"/><path style="opacity:1" fill="#135d90" d="M791.5 1682.5c330.83 1 661.83 1.33 993 1-3.32 4.65-6.99 8.99-11 13-347.5-1.67-695.17-2.67-1043-3a343.966 343.966 0 0 0 61-11z"/><path style="opacity:1" fill="#135f92" d="M631.5 1682.5c32.348 9.45 65.348 13.11 99 11 347.83.33 695.5 1.33 1043 3a613.164 613.164 0 0 1-50 52c-467.17-.33-934.167 0-1401 1a712.78 712.78 0 0 1-62-65c123.667-.67 247.333-1.33 371-2z"/><path style="opacity:1" fill="#136296" d="M1723.5 1748.5a46.892 46.892 0 0 1-12 11c-459.67-1.33-919.333-1.33-1379 0-3.667-3-7-6.33-10-10 466.833-1 933.83-1.33 1401-1z"/><path style="opacity:.999" fill="#136699" d="M1711.5 1759.5a765.385 765.385 0 0 1-61 53c-418.76-1.33-837.431-1.33-1256 0a613.056 613.056 0 0 1-62-53c459.667-1.33 919.33-1.33 1379 0z"/><path style="opacity:.999" fill="#136d9f" d="M1650.5 1812.5a551.673 551.673 0 0 1-57 42h-1143a575.852 575.852 0 0 1-56-42c418.569-1.33 837.24-1.33 1256 0z"/><path style="opacity:.999" fill="#1373a5" d="M450.5 1854.5h1143a737.58 737.58 0 0 1-69 44c-334.83-1-669.833-1.33-1005-1a730.454 730.454 0 0 1-69-43z"/><path style="opacity:.999" fill="#1379ab" d="M519.5 1897.5c335.167-.33 670.17 0 1005 1a1023.432 1023.432 0 0 1-85 44c-278.66-2-557.665-2.67-837-2-28.742-12.54-56.409-26.87-83-43z"/><path style="opacity:.998" fill="#137fb1" d="M602.5 1940.5c279.335-.67 558.34 0 837 2a1050.047 1050.047 0 0 1-135 50c-188.17-1-376.499-1.33-565-1-47.302-12.88-92.969-29.88-137-51z"/><path style="opacity:.989" fill="#1385b6" d="M739.5 1991.5c188.501-.33 376.83 0 565 1-188.57 53.66-376.902 53.32-565-1z"/></svg>