<svg version="1.1" id="Layer_1" xmlns="http://www.w3.org/2000/svg" xmlns:xlink="http://www.w3.org/1999/xlink" x="0px" y="0px"
	 width="100%" viewBox="0 0 214 214" enable-background="new 0 0 214 214" xml:space="preserve">
<path fill="#FFFFFF" opacity="1.000000" stroke="none" 
	d="
M1.000000,34.000000 
	C1.000000,23.006330 1.000000,12.012659 0.999999,1.014242 
	C72.285957,1.009495 143.571915,1.009495 214.928925,1.009495 
	C214.928925,72.244850 214.928925,143.489792 214.928925,214.867371 
	C143.666824,214.867371 72.333450,214.867371 1.000000,214.867371 
	C1.000000,186.571579 1.000000,158.254440 1.358747,129.505066 
	C4.477304,129.382095 7.237115,129.691360 10.117634,130.266876 
	C10.825453,131.023239 11.412563,131.513336 11.954262,132.373047 
	C10.466949,133.587814 8.944614,134.324585 7.610112,135.314560 
	C6.646287,136.029556 5.932161,137.081161 5.106671,137.982651 
	C6.019993,138.697784 6.912363,139.995987 7.850169,140.029709 
	C12.561250,140.198990 17.284204,140.037796 22.353415,139.960098 
	C23.842150,139.180939 24.980459,138.434372 26.443382,137.713989 
	C27.173573,137.892136 27.579147,138.044113 28.048325,138.514008 
	C29.096460,138.828171 30.080990,138.824402 31.529510,138.795593 
	C44.996696,138.837189 57.999889,138.903854 71.000870,139.441437 
	C71.000374,148.971786 71.104225,158.032974 70.946632,167.089615 
	C70.893738,170.129272 71.948753,171.379807 75.015503,171.454666 
	C75.131172,175.175766 75.162247,178.451599 75.113922,182.167664 
	C75.370453,185.402328 75.706375,188.196762 75.765060,191.180786 
	C75.537651,192.669418 75.587471,193.968445 75.637291,195.267471 
	C77.107834,194.810165 78.578377,194.352859 80.311844,194.030136 
	C81.047821,194.782700 81.520859,195.400650 81.850494,196.336456 
	C81.605789,197.593491 81.504494,198.532684 81.403198,199.471878 
	C81.710762,199.532318 82.018326,199.592773 82.325890,199.653214 
	C82.665207,198.805023 83.004532,197.956833 83.636795,197.253082 
	C84.993523,198.137146 86.057297,198.876801 87.157364,199.951660 
	C85.993950,201.287201 84.794250,202.287537 82.566032,204.145477 
	C86.918167,203.225479 90.134163,202.545654 93.632935,201.825592 
	C94.272629,201.907227 94.629555,202.029099 95.062416,202.494751 
	C95.353813,203.073746 95.572266,203.517273 95.784302,203.514221 
	C105.892052,203.368759 116.000397,202.987854 126.106270,203.046829 
	C145.702408,203.161163 165.296951,203.539688 184.893097,203.688950 
	C185.506805,203.693619 186.130585,202.378403 186.792450,201.699432 
	C186.835236,201.720337 186.760773,201.779724 187.009155,201.786224 
	C187.597076,201.692032 187.837555,201.479401 188.183319,201.044678 
	C188.387695,200.934570 188.851959,200.930527 189.248932,200.965424 
	C190.745529,201.588425 191.921036,202.069626 192.929688,202.785812 
	C195.391602,204.533829 197.429626,205.024155 199.277100,201.841278 
	C199.998611,200.598251 201.557175,199.841110 202.129562,199.365402 
	C201.274277,196.833282 200.589569,194.806198 199.981812,192.515457 
	C200.410507,191.834915 200.762238,191.418030 201.335617,190.868271 
	C201.678284,190.421539 201.799316,190.107666 201.957291,189.576157 
	C201.994217,189.358505 202.254379,189.001801 202.448639,188.857635 
	C202.865860,188.451523 202.959106,188.149475 202.928680,187.603592 
	C202.934753,187.399841 203.116928,187.035126 203.418701,186.984406 
	C203.688812,186.254501 203.657120,185.575333 203.635864,184.526428 
	C203.787613,183.432480 203.928940,182.708252 204.365479,181.741318 
	C205.104126,179.761963 205.932388,178.025879 205.934952,176.288589 
	C206.004456,129.157257 206.005173,82.025795 205.906418,34.894581 
	C205.903687,33.591640 204.680634,32.291256 203.924072,30.724672 
	C203.830627,30.085270 203.839706,29.710876 203.915924,28.938536 
	C204.919968,26.657238 205.856842,24.773890 207.010422,22.454947 
	C204.888306,23.133881 203.284576,23.646967 201.467499,23.964863 
	C200.797043,22.925859 200.339905,22.082047 199.943436,20.882362 
	C201.567703,15.645899 198.071625,16.050028 195.017975,15.518804 
	C193.801773,14.835883 192.705139,14.501335 191.440277,14.172638 
	C191.272049,14.178490 191.002563,13.976695 190.943817,13.629745 
	C188.906342,12.901512 186.927612,12.520230 184.484009,12.169842 
	C138.380127,12.156298 92.741104,12.102245 47.102062,12.079067 
	C41.109581,12.076024 35.117012,12.231060 28.944107,12.007523 
	C27.846260,12.177682 26.928793,12.653201 25.893005,13.214881 
	C25.774685,13.301043 25.508856,13.178454 25.058769,13.126905 
	C22.378647,12.823561 20.148609,12.571765 19.114643,12.455019 
	C17.789433,14.329141 17.144009,16.311052 15.947309,16.734304 
	C12.322133,18.016472 11.007779,20.462387 10.617126,23.993845 
	C2.154546,20.534575 10.799058,17.831778 10.728837,14.132580 
	C9.260402,13.432033 7.624299,12.651495 5.975112,11.864717 
	C4.912608,15.292107 3.754697,18.045090 3.280115,20.911222 
	C2.975192,22.752735 2.959834,25.640535 4.056731,26.533287 
	C7.710423,29.506983 6.912384,33.287418 7.002130,37.440071 
	C7.002403,39.917953 7.002666,41.958664 6.598360,43.985268 
	C5.462615,42.614647 4.714072,41.267143 4.004411,39.899464 
	C2.988050,37.940701 2.000088,35.967205 1.000000,34.000000 
z"/>
<path fill="#FCFDFF" opacity="1.000000" stroke="none" 
	d="
M1.000000,34.463184 
	C2.000088,35.967205 2.988050,37.940701 4.004411,39.899464 
	C4.714072,41.267143 5.462615,42.614647 6.990876,44.039200 
	C8.523559,45.913654 9.880745,47.714138 9.898051,49.527409 
	C10.060854,66.585266 9.971704,83.645393 10.029712,100.704605 
	C10.035667,102.456367 10.526430,104.206490 10.858154,106.293167 
	C10.880679,107.081047 10.837281,107.533127 10.414827,107.988297 
	C9.024469,107.995583 8.013169,107.999771 6.834977,107.757843 
	C6.112158,107.341148 5.556231,107.170578 4.833128,106.616638 
	C4.443965,104.273521 4.035578,102.314354 4.029352,100.353912 
	C3.977521,84.032883 4.002608,67.711624 3.996363,51.390438 
	C3.995548,49.261185 4.496573,46.757648 1.000000,47.000000 
	C1.000000,42.975456 1.000000,38.950912 1.000000,34.463184 
z"/>
<path fill="#FFFFFF" opacity="1.000000" stroke="none" 
	d="
M1.000000,47.468658 
	C4.496573,46.757648 3.995548,49.261185 3.996363,51.390438 
	C4.002608,67.711624 3.977521,84.032883 4.029352,100.353912 
	C4.035578,102.314354 4.443965,104.273521 4.601659,106.889137 
	C3.358244,107.696663 2.179122,107.848335 1.000000,108.000000 
	C1.000000,87.979103 1.000000,67.958214 1.000000,47.468658 
z"/>
<path fill="#FDFFFE" opacity="1.000000" stroke="none" 
	d="
M1.000000,108.468536 
	C2.179122,107.848335 3.358244,107.696663 4.768835,107.272507 
	C5.556231,107.170578 6.112158,107.341148 6.835259,108.206024 
	C8.266422,111.604507 3.877300,116.951675 10.869275,117.338333 
	C10.916976,118.106606 10.890516,118.549080 10.503319,119.001190 
	C6.907406,119.543808 8.549873,121.033058 9.106605,122.806442 
	C9.818533,125.074165 9.736692,127.591080 9.996925,130.000610 
	C7.237115,129.691360 4.477304,129.382095 1.358747,129.036407 
	C1.000000,122.312355 1.000000,115.624710 1.000000,108.468536 
z"/>
<path fill="#25A2ED" opacity="1.000000" stroke="none" 
	d="
M10.864056,118.991562 
	C10.890516,118.549080 10.916976,118.106606 10.948002,116.892448 
	C10.899673,113.408920 10.846779,110.697060 10.793884,107.985207 
	C10.837281,107.533127 10.880679,107.081047 10.939049,105.833939 
	C10.905027,82.355103 10.856036,59.671299 10.870766,36.653767 
	C10.882391,35.872032 10.830297,35.424026 10.849691,34.739380 
	C10.921182,34.502739 10.803723,34.022484 10.877293,33.637444 
	C11.009050,31.948748 11.067241,30.645098 11.322932,29.183832 
	C11.571448,28.702538 11.622463,28.378857 11.828955,27.750580 
	C12.105433,27.007555 12.226437,26.569126 12.573698,25.890125 
	C15.137279,19.557333 20.231331,16.274408 25.508856,13.178454 
	C25.508856,13.178454 25.774685,13.301043 26.223722,13.236298 
	C27.490002,12.885328 28.307243,12.599105 29.124485,12.312881 
	C35.117012,12.231060 41.109581,12.076024 47.102062,12.079067 
	C92.741104,12.102245 138.380127,12.156298 184.750092,12.398801 
	C187.321533,13.056808 189.162048,13.516751 191.002563,13.976694 
	C191.002563,13.976695 191.272049,14.178490 191.562546,14.400635 
	C192.055786,14.897199 192.258514,15.171618 192.043304,15.597770 
	C183.937439,15.490548 176.249847,15.020425 168.561508,15.007591 
	C125.133133,14.935095 81.704506,14.943789 38.276283,15.052484 
	C35.992992,15.058198 33.712616,16.229538 30.838493,17.021450 
	C24.902443,10.727536 22.652460,19.992868 17.903198,20.826513 
	C18.547318,22.329468 19.004814,23.396963 19.435513,24.401936 
	C14.014858,25.557472 12.975838,29.198402 12.977962,33.613594 
	C12.991490,61.733948 12.861778,89.855576 13.156133,117.972839 
	C13.187951,121.012230 15.634974,124.026329 17.006313,127.402679 
	C17.436064,129.099670 17.821184,130.446152 18.126606,131.872498 
	C18.046907,131.952362 17.887337,132.111893 17.584377,131.962799 
	C15.142295,127.539665 13.003176,123.265617 10.864056,118.991562 
z"/>
<path fill="#25A2ED" opacity="1.000000" stroke="none" 
	d="
M87.121078,199.616455 
	C86.057297,198.876801 84.993523,198.137146 83.557159,197.037537 
	C82.787674,196.457932 82.390793,196.238266 81.993912,196.018616 
	C81.520859,195.400650 81.047821,194.782700 80.270294,193.782257 
	C79.857666,193.271805 79.749512,193.143814 79.619080,192.813232 
	C79.447380,192.347397 79.221252,192.216797 78.929169,192.157455 
	C78.939911,192.096039 78.820023,192.061737 78.805328,191.809998 
	C78.551514,191.340271 78.312378,191.122269 78.062225,190.955917 
	C78.051201,191.007568 78.104637,190.916321 78.068359,190.545563 
	C77.085838,187.359009 76.139580,184.543213 75.193329,181.727432 
	C75.162247,178.451599 75.131172,175.175766 75.118492,170.994415 
	C75.155510,161.017929 75.081375,151.945297 75.242737,142.876846 
	C75.299721,139.674713 74.399429,138.126999 71.003082,138.970505 
	C57.999889,138.903854 44.996696,138.837189 31.283215,138.581039 
	C29.710192,138.326385 28.847458,138.261230 27.984722,138.196075 
	C27.579147,138.044113 27.173573,137.892136 26.200630,137.493561 
	C23.832891,136.408051 22.032520,135.569138 20.181997,134.722733 
	C20.131845,134.715256 20.215895,134.771973 20.080196,134.505920 
	C19.258778,133.530548 18.573057,132.821213 17.887337,132.111893 
	C17.887337,132.111893 18.046907,131.952362 18.466043,131.940735 
	C19.581751,131.967438 20.278322,132.005753 21.185270,132.320038 
	C26.101152,136.883621 32.105335,136.732269 37.792564,136.925064 
	C47.757515,137.262863 57.744518,136.893631 67.717506,137.078491 
	C71.704185,137.152405 75.678192,137.909821 78.917358,138.273056 
	C78.107658,140.850433 77.094604,142.630447 77.060211,144.429184 
	C76.891815,153.238480 76.984032,162.052734 76.984184,170.865250 
	C76.984222,173.026810 76.930786,175.189972 76.995193,177.349609 
	C77.157524,182.793427 77.066277,188.383026 83.468475,190.842667 
	C84.792854,198.575119 90.667908,199.609634 97.082298,200.226089 
	C97.398422,200.699753 97.663597,200.863571 98.323097,200.936539 
	C99.099838,200.937988 99.543709,200.930801 100.457100,200.945007 
	C125.288338,200.952972 149.650055,200.939560 174.449677,200.941315 
	C180.999878,200.063416 187.112167,199.170334 193.054565,198.560303 
	C191.540421,199.539062 190.196182,200.234802 188.851959,200.930527 
	C188.851959,200.930527 188.387695,200.934570 187.927673,201.029022 
	C187.232025,201.342239 186.996399,201.560989 186.760773,201.779724 
	C186.760773,201.779724 186.835236,201.720337 186.346039,201.698700 
	C182.865067,201.781601 179.873535,201.969376 176.881500,201.977661 
	C149.583206,202.053238 122.284828,202.097534 94.986481,202.150970 
	C94.629555,202.029099 94.272629,201.907227 93.338593,201.596161 
	C90.881348,200.810104 89.001213,200.213272 87.121078,199.616455 
z"/>
<path fill="#25A2ED" opacity="1.000000" stroke="none" 
	d="
M203.116928,187.035126 
	C203.116928,187.035126 202.934753,187.399841 202.710907,187.731323 
	C202.409500,188.375793 202.331940,188.688797 202.254379,189.001801 
	C202.254379,189.001801 201.994217,189.358505 201.722321,189.696274 
	C201.338272,190.356415 201.226135,190.678787 201.113983,191.001160 
	C200.762238,191.418030 200.410507,191.834915 199.702499,192.646500 
	C198.587509,193.716263 197.828796,194.391327 197.038269,194.677200 
	C198.662628,190.266541 201.109543,186.371140 201.775787,182.191864 
	C202.617859,176.909668 202.023773,171.396271 202.024445,165.982590 
	C202.028915,130.193237 202.186005,94.402809 201.942230,58.615120 
	C201.854370,45.717258 204.333939,32.449463 198.220444,20.186399 
	C198.966354,20.546965 199.424561,20.892599 199.882782,21.238235 
	C200.339905,22.082047 200.797043,22.925859 201.536591,24.309950 
	C202.495621,26.345646 203.172211,27.841063 203.848785,29.336483 
	C203.839706,29.710876 203.830627,30.085270 203.854279,31.190121 
	C203.915390,46.047039 203.954620,60.173492 203.970001,74.299965 
	C204.009109,110.194641 204.037552,146.089340 204.070267,181.984024 
	C203.928940,182.708252 203.787613,183.432480 203.448151,184.746536 
	C203.205658,185.902618 203.161301,186.468872 203.116928,187.035126 
z"/>
<path fill="#DFFDFE" opacity="1.000000" stroke="none" 
	d="
M204.365479,181.741318 
	C204.037552,146.089340 204.009109,110.194641 203.970001,74.299965 
	C203.954620,60.173492 203.915390,46.047039 203.956818,31.455132 
	C204.680634,32.291256 205.903687,33.591640 205.906418,34.894581 
	C206.005173,82.025795 206.004456,129.157257 205.934952,176.288589 
	C205.932388,178.025879 205.104126,179.761963 204.365479,181.741318 
z"/>
<path fill="#F0FDFC" opacity="1.000000" stroke="none" 
	d="
M71.000870,139.441437 
	C74.399429,138.126999 75.299721,139.674713 75.242737,142.876846 
	C75.081375,151.945297 75.155510,161.017929 75.033905,170.549164 
	C71.948753,171.379807 70.893738,170.129272 70.946632,167.089615 
	C71.104225,158.032974 71.000374,148.971786 71.000870,139.441437 
z"/>
<path fill="#FBFFFE" opacity="1.000000" stroke="none" 
	d="
M12.347441,26.130697 
	C12.226437,26.569126 12.105433,27.007555 11.651315,27.919083 
	C11.131549,28.683695 11.067292,29.000116 11.125431,29.341446 
	C11.067241,30.645098 11.009050,31.948748 10.738098,33.725830 
	C10.328850,34.527687 10.413138,34.786606 10.778202,34.976021 
	C10.830297,35.424026 10.882391,35.872032 10.490462,36.656410 
	C9.031666,36.996155 8.016891,36.999527 7.002118,37.002899 
	C6.912384,33.287418 7.710423,29.506983 4.056731,26.533287 
	C2.959834,25.640535 2.975192,22.752735 3.280115,20.911222 
	C3.754697,18.045090 4.912608,15.292107 5.975112,11.864717 
	C7.624299,12.651495 9.260402,13.432033 10.728837,14.132580 
	C10.799058,17.831778 2.154546,20.534575 10.653826,24.331326 
	C11.498191,25.160393 11.922815,25.645544 12.347441,26.130697 
z"/>
<path fill="#FCFEFE" opacity="1.000000" stroke="none" 
	d="
M22.002987,139.992676 
	C17.284204,140.037796 12.561250,140.198990 7.850169,140.029709 
	C6.912363,139.995987 6.019993,138.697784 5.106671,137.982651 
	C5.932161,137.081161 6.646287,136.029556 7.610112,135.314560 
	C8.944614,134.324585 10.466949,133.587814 12.315989,132.407837 
	C15.220718,132.972687 17.718306,133.872330 20.215895,134.771973 
	C20.215895,134.771973 20.131845,134.715256 20.129383,135.088226 
	C20.752275,136.971695 21.377632,138.482193 22.002987,139.992676 
z"/>
<path fill="#F0FDFC" opacity="1.000000" stroke="none" 
	d="
M95.062416,202.494751 
	C122.284828,202.097534 149.583206,202.053238 176.881500,201.977661 
	C179.873535,201.969376 182.865067,201.781601 186.303253,201.677795 
	C186.130585,202.378403 185.506805,203.693619 184.893097,203.688950 
	C165.296951,203.539688 145.702408,203.161163 126.106270,203.046829 
	C116.000397,202.987854 105.892052,203.368759 95.784302,203.514221 
	C95.572266,203.517273 95.353813,203.073746 95.062416,202.494751 
z"/>
<path fill="#F0FDFC" opacity="1.000000" stroke="none" 
	d="
M7.002130,37.440071 
	C8.016891,36.999527 9.031666,36.996155 10.426743,36.990139 
	C10.856036,59.671299 10.905027,82.355103 10.873125,105.498138 
	C10.526430,104.206490 10.035667,102.456367 10.029712,100.704605 
	C9.971704,83.645393 10.060854,66.585266 9.898051,49.527409 
	C9.880745,47.714138 8.523559,45.913654 7.395445,44.053307 
	C7.002666,41.958664 7.002403,39.917953 7.002130,37.440071 
z"/>
<path fill="#F0FDFC" opacity="1.000000" stroke="none" 
	d="
M197.070084,195.066391 
	C197.828796,194.391327 198.587509,193.716263 199.625549,192.910156 
	C200.589569,194.806198 201.274277,196.833282 202.129562,199.365402 
	C201.557175,199.841110 199.998611,200.598251 199.277100,201.841278 
	C197.429626,205.024155 195.391602,204.533829 192.929688,202.785812 
	C191.921036,202.069626 190.745529,201.588425 189.248932,200.965424 
	C190.196182,200.234802 191.540421,199.539062 193.038635,198.549377 
	C193.192642,198.255402 193.219223,198.245255 193.532684,198.171509 
	C194.916901,197.084290 195.987671,196.070801 197.053345,195.048096 
	C197.048279,195.038895 197.070084,195.066391 197.070084,195.066391 
M195.702606,201.571732 
	C195.989746,201.297684 196.276886,201.023636 196.564011,200.749588 
	C196.450317,200.630890 196.244141,200.402664 196.236267,200.409332 
	C195.933411,200.664993 195.648743,200.942184 195.702606,201.571732 
z"/>
<path fill="#F0FDFC" opacity="1.000000" stroke="none" 
	d="
M20.080196,134.505920 
	C17.718306,133.872330 15.220718,132.972687 12.361403,132.038239 
	C11.412563,131.513336 10.825453,131.023239 10.117634,130.266876 
	C9.736692,127.591080 9.818533,125.074165 9.106605,122.806442 
	C8.549873,121.033058 6.907406,119.543808 10.503319,119.001190 
	C13.003176,123.265617 15.142295,127.539665 17.584377,131.962799 
	C18.573057,132.821213 19.258778,133.530548 20.080196,134.505920 
z"/>
<path fill="#F0FDFC" opacity="1.000000" stroke="none" 
	d="
M12.573698,25.890125 
	C11.922815,25.645544 11.498191,25.160393 11.036866,24.337759 
	C11.007779,20.462387 12.322133,18.016472 15.947309,16.734304 
	C17.144009,16.311052 17.789433,14.329141 19.114643,12.455019 
	C20.148609,12.571765 22.378647,12.823561 25.058769,13.126905 
	C20.231331,16.274408 15.137279,19.557333 12.573698,25.890125 
z"/>
<path fill="#F0FDFC" opacity="1.000000" stroke="none" 
	d="
M79.641357,193.015839 
	C79.749512,193.143814 79.857666,193.271805 80.007370,193.647659 
	C78.578377,194.352859 77.107834,194.810165 75.637291,195.267471 
	C75.587471,193.968445 75.537651,192.669418 76.108429,191.177765 
	C77.187561,190.962189 77.646095,190.939255 78.104637,190.916321 
	C78.104637,190.916321 78.051201,191.007568 78.095352,191.198517 
	C78.274864,191.706161 78.501709,191.930252 78.820023,192.061737 
	C78.820023,192.061737 78.939911,192.096039 79.002304,192.328964 
	C79.203178,192.781479 79.395393,192.932800 79.641357,193.015839 
z"/>
<path fill="#F0FDFC" opacity="1.000000" stroke="none" 
	d="
M87.157364,199.951660 
	C89.001213,200.213272 90.881348,200.810104 93.055817,201.636383 
	C90.134163,202.545654 86.918167,203.225479 82.566032,204.145477 
	C84.794250,202.287537 85.993950,201.287201 87.157364,199.951660 
z"/>
<path fill="#F0FDFC" opacity="1.000000" stroke="none" 
	d="
M22.353413,139.960098 
	C21.377632,138.482193 20.752275,136.971695 20.179535,135.095703 
	C22.032520,135.569138 23.832891,136.408051 25.876015,137.467377 
	C24.980459,138.434372 23.842150,139.180939 22.353413,139.960098 
z"/>
<path fill="#E7FDFE" opacity="1.000000" stroke="none" 
	d="
M199.943436,20.882362 
	C199.424561,20.892599 198.966354,20.546965 198.230286,20.137964 
	C197.952438,20.074598 197.853775,20.080748 197.829941,19.763611 
	C196.812347,18.365530 195.818588,17.284584 194.902069,16.118652 
	C194.979309,16.033665 195.137543,15.867176 195.137543,15.867176 
	C198.071625,16.050028 201.567703,15.645899 199.943436,20.882362 
z"/>
<path fill="#DFFDFE" opacity="1.000000" stroke="none" 
	d="
M203.915939,28.938534 
	C203.172211,27.841063 202.495621,26.345646 201.749939,24.505142 
	C203.284576,23.646967 204.888306,23.133881 207.010422,22.454947 
	C205.856842,24.773890 204.919968,26.657238 203.915939,28.938534 
z"/>
<path fill="#C6F6FE" opacity="1.000000" stroke="none" 
	d="
M78.068359,190.545563 
	C77.646095,190.939255 77.187561,190.962189 76.385658,190.988159 
	C75.706375,188.196762 75.370453,185.402328 75.113930,182.167664 
	C76.139580,184.543213 77.085838,187.359009 78.068359,190.545563 
z"/>
<path fill="#E7FDFE" opacity="1.000000" stroke="none" 
	d="
M190.943817,13.629744 
	C189.162048,13.516751 187.321533,13.056808 185.214951,12.367907 
	C186.927612,12.520230 188.906342,12.901512 190.943817,13.629744 
z"/>
<path fill="#F0FDFC" opacity="1.000000" stroke="none" 
	d="
M81.850494,196.336456 
	C82.390793,196.238266 82.787674,196.457932 83.264206,196.893112 
	C83.004532,197.956833 82.665207,198.805023 82.325890,199.653214 
	C82.018326,199.592773 81.710762,199.532318 81.403198,199.471878 
	C81.504494,198.532684 81.605789,197.593491 81.850494,196.336456 
z"/>
<path fill="#E7FDFE" opacity="1.000000" stroke="none" 
	d="
M192.461243,15.446039 
	C192.258514,15.171618 192.055786,14.897199 191.730774,14.394783 
	C192.705139,14.501335 193.801773,14.835883 195.017975,15.518804 
	C195.137543,15.867176 194.979309,16.033665 194.602325,16.041183 
	C193.645401,15.867051 193.065430,15.685399 192.473206,15.492232 
	C192.460922,15.480718 192.461243,15.446040 192.461243,15.446039 
z"/>
<path fill="#F0FDFC" opacity="1.000000" stroke="none" 
	d="
M28.944107,12.007523 
	C28.307243,12.599105 27.490002,12.885328 26.342041,13.150135 
	C26.928793,12.653201 27.846260,12.177682 28.944107,12.007523 
z"/>
<path fill="#F0FDFC" opacity="1.000000" stroke="none" 
	d="
M28.048325,138.514008 
	C28.847458,138.261230 29.710192,138.326385 30.819223,138.606094 
	C30.080990,138.824402 29.096460,138.828171 28.048325,138.514008 
z"/>
<path fill="#DFFDFE" opacity="1.000000" stroke="none" 
	d="
M203.418701,186.984406 
	C203.161301,186.468872 203.205658,185.902618 203.437729,185.116257 
	C203.657120,185.575333 203.688812,186.254501 203.418701,186.984406 
z"/>
<path fill="#DFFDFE" opacity="1.000000" stroke="none" 
	d="
M201.335632,190.868286 
	C201.226135,190.678787 201.338272,190.356415 201.685394,189.913925 
	C201.799316,190.107666 201.678284,190.421539 201.335632,190.868286 
z"/>
<path fill="#DFFDFE" opacity="1.000000" stroke="none" 
	d="
M202.448639,188.857635 
	C202.331940,188.688797 202.409500,188.375793 202.704834,187.935059 
	C202.959106,188.149475 202.865860,188.451523 202.448639,188.857635 
z"/>
<path fill="#F0FDFC" opacity="1.000000" stroke="none" 
	d="
M187.009155,201.786224 
	C186.996399,201.560989 187.232025,201.342239 187.723297,201.139130 
	C187.837555,201.479401 187.597076,201.692032 187.009155,201.786224 
z"/>
<path fill="#F0FDFC" opacity="1.000000" stroke="none" 
	d="
M10.414827,107.988297 
	C10.846779,110.697060 10.899673,113.408920 10.873841,116.566658 
	C3.877300,116.951675 8.266422,111.604507 7.002151,108.452141 
	C8.013169,107.999771 9.024469,107.995583 10.414827,107.988297 
z"/>
<path fill="#039CFB" opacity="1.000000" stroke="none" 
	d="
M197.942596,20.123034 
	C204.333939,32.449463 201.854370,45.717258 201.942230,58.615120 
	C202.186005,94.402809 202.028915,130.193237 202.024445,165.982590 
	C202.023773,171.396271 202.617859,176.909668 201.775787,182.191864 
	C201.109543,186.371140 198.662628,190.266541 197.038269,194.677200 
	C197.070084,195.066391 197.048279,195.038895 196.676270,195.023956 
	C195.275894,196.087753 194.247559,197.166504 193.219223,198.245255 
	C193.219223,198.245255 193.192642,198.255402 193.208557,198.266327 
	C187.112167,199.170334 180.999878,200.063416 174.428101,200.533768 
	C172.890274,199.408920 171.815140,198.099899 170.733109,198.094162 
	C148.305527,197.975189 125.876846,197.960739 103.449905,198.128296 
	C102.288902,198.136978 101.141380,199.950424 99.987579,200.923615 
	C99.543709,200.930801 99.099838,200.937988 98.208908,200.729935 
	C97.554413,200.258667 97.290436,200.092346 96.969910,200.015732 
	C90.667908,199.609634 84.792854,198.575119 83.468475,190.842667 
	C77.066277,188.383026 77.157524,182.793427 76.995193,177.349609 
	C76.930786,175.189972 76.984222,173.026810 76.984184,170.865250 
	C76.984032,162.052734 76.891815,153.238480 77.060211,144.429184 
	C77.094604,142.630447 78.107658,140.850433 78.917358,138.273056 
	C75.678192,137.909821 71.704185,137.152405 67.717506,137.078491 
	C57.744518,136.893631 47.757515,137.262863 37.792564,136.925064 
	C32.105335,136.732269 26.101152,136.883621 21.267633,131.940262 
	C23.085157,130.436783 25.030693,129.589035 26.976231,128.741302 
	C26.901768,128.178253 26.827305,127.615211 26.752842,127.052162 
	C23.489122,127.052162 20.225403,127.052162 16.961683,127.052162 
	C15.634974,124.026329 13.187951,121.012230 13.156133,117.972839 
	C12.861778,89.855576 12.991490,61.733948 12.977962,33.613594 
	C12.975838,29.198402 14.014858,25.557472 19.435513,24.401936 
	C19.004814,23.396963 18.547318,22.329468 17.903198,20.826513 
	C22.652460,19.992868 24.902443,10.727536 30.838493,17.021450 
	C33.712616,16.229538 35.992992,15.058198 38.276283,15.052484 
	C81.704506,14.943789 125.133133,14.935095 168.561508,15.007591 
	C176.249847,15.020425 183.937439,15.490548 192.043304,15.597771 
	C192.461243,15.446040 192.460922,15.480718 192.413666,15.861378 
	C194.195526,17.521606 196.024658,18.801176 197.853775,20.080748 
	C197.853775,20.080748 197.952438,20.074598 197.942596,20.123034 
M170.951584,165.975250 
	C170.951584,165.975250 170.857315,165.917801 171.687347,165.840927 
	C172.125183,164.871658 172.939682,163.904297 172.944595,162.932831 
	C173.023438,147.341263 173.049240,131.748703 172.912277,116.157921 
	C172.900040,114.763382 171.680267,113.379456 170.997589,111.996445 
	C170.997589,111.996445 171.015900,111.977547 171.041977,111.198921 
	C171.211227,108.356323 169.995651,106.821922 166.880280,106.271416 
	C165.333542,105.180901 163.786804,104.090393 163.453445,103.855354 
	C160.234146,104.850159 158.418579,105.883522 156.593658,105.900322 
	C142.106155,106.033669 127.616837,105.983810 113.128159,105.955490 
	C111.872101,105.953033 110.616547,105.701103 108.989449,105.524818 
	C108.989449,86.414658 109.038239,67.639877 108.903351,48.866421 
	C108.891663,47.240742 107.667084,45.623779 106.999443,44.000538 
	C106.999443,44.000538 106.994278,43.997967 106.414757,43.396832 
	C87.621696,43.278332 68.828087,43.039856 50.035965,43.125496 
	C45.324001,43.146969 42.114281,47.135139 42.077679,52.239300 
	C41.980972,65.724602 42.004925,79.211243 42.096046,92.696571 
	C42.103676,93.826355 42.976437,94.950302 43.664330,96.830208 
	C43.647461,97.872879 43.630592,98.915550 42.992313,100.133217 
	C42.921654,101.136345 42.443043,102.361473 42.848061,103.105743 
	C45.091877,107.229004 48.563736,109.069122 53.399841,109.022575 
	C69.376266,108.868820 85.356201,109.063492 101.332130,108.885216 
	C105.075821,108.843422 106.174004,110.019836 106.120750,113.732231 
	C105.922623,127.543625 105.994843,141.359879 106.098953,155.173309 
	C106.111328,156.814667 106.944870,158.449814 107.615372,160.834732 
	C107.545555,161.859665 107.475739,162.884598 106.792931,164.217438 
	C105.154106,170.942642 106.952065,173.029327 113.480629,172.081894 
	C114.784393,171.892685 116.130951,171.972687 117.457787,171.972107 
	C131.569336,171.965973 145.681030,171.999527 159.792221,171.929443 
	C161.536789,171.920776 163.278687,171.373245 165.767593,171.037872 
	C168.433807,170.266769 171.194458,169.589630 170.951584,165.975250 
M39.022511,63.163147 
	C39.022511,72.219620 39.022511,81.276093 39.022511,90.332573 
	C39.633942,90.325157 40.245377,90.317749 40.856808,90.310333 
	C40.856808,81.001686 40.857807,71.693024 40.785793,62.384933 
	C40.785652,62.366432 39.706520,62.356277 39.022511,63.163147 
M104.547501,157.287735 
	C104.284912,157.011108 104.022331,156.734482 103.759750,156.457855 
	C103.645958,156.567413 103.426636,156.765366 103.433632,156.773712 
	C103.678162,157.065628 103.944008,157.339676 104.547501,157.287735 
z"/>
<path fill="#039DF3" opacity="1.000000" stroke="none" 
	d="
M17.006313,127.402679 
	C20.225403,127.052162 23.489122,127.052162 26.752842,127.052162 
	C26.827305,127.615211 26.901768,128.178253 26.976231,128.741302 
	C25.030693,129.589035 23.085157,130.436783 21.057257,131.664307 
	C20.278322,132.005753 19.581751,131.967438 18.545742,131.860870 
	C17.821184,130.446152 17.436064,129.099670 17.006313,127.402679 
z"/>
<path fill="#F0FDFC" opacity="1.000000" stroke="none" 
	d="
M11.322932,29.183832 
	C11.067292,29.000116 11.131549,28.683695 11.495838,28.223679 
	C11.622463,28.378857 11.571448,28.702538 11.322932,29.183832 
z"/>
<path fill="#F0FDFC" opacity="1.000000" stroke="none" 
	d="
M10.849691,34.739380 
	C10.413138,34.786606 10.328850,34.527687 10.664530,34.110874 
	C10.803723,34.022484 10.921182,34.502739 10.849691,34.739380 
z"/>
<path fill="#039CF0" opacity="1.000000" stroke="none" 
	d="
M100.457108,200.945007 
	C101.141380,199.950424 102.288902,198.136978 103.449905,198.128296 
	C125.876846,197.960739 148.305527,197.975189 170.733109,198.094162 
	C171.815140,198.099899 172.890274,199.408920 173.990204,200.518585 
	C149.650055,200.939560 125.288338,200.952972 100.457108,200.945007 
z"/>
<path fill="#C6F6FE" opacity="1.000000" stroke="none" 
	d="
M78.805328,191.809998 
	C78.501709,191.930252 78.274864,191.706161 78.106369,191.146866 
	C78.312378,191.122269 78.551514,191.340271 78.805328,191.809998 
z"/>
<path fill="#C6F6FE" opacity="1.000000" stroke="none" 
	d="
M79.619080,192.813232 
	C79.395393,192.932800 79.203178,192.781479 78.991562,192.390381 
	C79.221252,192.216797 79.447380,192.347397 79.619080,192.813232 
z"/>
<path fill="#039CF0" opacity="1.000000" stroke="none" 
	d="
M97.082298,200.226089 
	C97.290436,200.092346 97.554413,200.258667 97.876038,200.721298 
	C97.663597,200.863571 97.398422,200.699753 97.082298,200.226089 
z"/>
<path fill="#25A2ED" opacity="1.000000" stroke="none" 
	d="
M193.532684,198.171509 
	C194.247559,197.166504 195.275894,196.087753 196.681335,195.033173 
	C195.987671,196.070801 194.916901,197.084290 193.532684,198.171509 
z"/>
<path fill="#FFFFFF" opacity="1.000000" stroke="none" 
	d="
M195.532135,201.394135 
	C195.648743,200.942184 195.933411,200.664993 196.236267,200.409332 
	C196.244141,200.402664 196.450317,200.630890 196.564011,200.749588 
	C196.276886,201.023636 195.989746,201.297684 195.532135,201.394135 
z"/>
<path fill="#25A2ED" opacity="1.000000" stroke="none" 
	d="
M197.829941,19.763611 
	C196.024658,18.801176 194.195526,17.521606 192.425934,15.872892 
	C193.065430,15.685399 193.645401,15.867051 194.525085,16.126171 
	C195.818588,17.284584 196.812347,18.365530 197.829941,19.763611 
z"/>
<path fill="#F7FEFF" opacity="1.000000" stroke="none" 
	d="
M107.405914,163.909531 
	C107.475739,162.884598 107.545555,161.859665 107.668259,160.010437 
	C107.721153,141.987259 107.721153,124.788383 107.721153,107.100052 
	C117.708885,107.100052 126.970444,106.992783 136.228439,107.128754 
	C146.493942,107.279503 156.756165,107.652451 167.239746,108.160965 
	C168.645065,109.588043 169.830490,110.782791 171.015900,111.977547 
	C171.015900,111.977547 170.997589,111.996445 171.008331,112.415146 
	C171.279282,114.791451 171.751617,116.747681 171.764282,118.706894 
	C171.831924,129.166672 171.881851,139.628571 171.736435,150.086914 
	C171.663025,155.366928 171.163925,160.641022 170.857300,165.917801 
	C170.857315,165.917801 170.951584,165.975250 170.630554,166.072449 
	C168.542511,167.481720 166.775513,168.793777 164.541489,170.058609 
	C145.446503,170.011383 126.818558,170.011383 108.290169,170.011383 
	C107.924400,167.487396 107.665161,165.698456 107.405914,163.909531 
M128.502838,163.998779 
	C122.557487,163.998779 116.612137,163.998779 109.727280,163.998779 
	C110.594154,164.973633 111.273331,166.399673 111.949501,166.398239 
	C121.754700,166.377594 131.564636,165.897751 141.362701,166.086166 
	C148.876984,166.230652 156.375336,167.172394 163.884491,167.707626 
	C164.282730,167.736008 164.715485,167.280182 165.132172,167.049789 
	C165.043930,166.472107 164.955704,165.894440 164.867477,165.316772 
	C153.254456,162.569321 141.274536,164.645935 128.502838,163.998779 
M162.654343,115.389297 
	C162.944748,118.072502 163.235168,120.755714 163.525574,123.438919 
	C164.937210,120.072365 164.451111,116.122665 169.767258,116.550865 
	C166.505112,111.016251 164.710968,110.649307 162.654343,115.389297 
M166.784409,162.452667 
	C167.270142,162.771072 167.755890,163.089493 168.241623,163.407898 
	C168.798859,161.088791 169.356094,158.769684 169.913345,156.450577 
	C169.125107,156.282684 168.336868,156.114777 167.548630,155.946884 
	C167.179779,157.901901 166.810944,159.856918 166.784409,162.452667 
M169.143768,122.183075 
	C169.202560,122.806007 169.261337,123.428940 169.320114,124.051872 
	C169.536423,124.015121 169.752716,123.978371 169.969009,123.941620 
	C169.827911,123.242851 169.686798,122.544083 169.143768,122.183075 
z"/>
<path fill="#2EA6EF" opacity="1.000000" stroke="none" 
	d="
M167.019821,107.928642 
	C156.756165,107.652451 146.493942,107.279503 136.228439,107.128754 
	C126.970444,106.992783 117.708885,107.100052 107.721153,107.100052 
	C107.721153,124.788383 107.721153,141.987259 107.559464,159.636993 
	C106.944870,158.449814 106.111328,156.814667 106.098953,155.173309 
	C105.994843,141.359879 105.922623,127.543625 106.120750,113.732231 
	C106.174004,110.019836 105.075821,108.843422 101.332130,108.885216 
	C85.356201,109.063492 69.376266,108.868820 53.399841,109.022575 
	C48.563736,109.069122 45.091877,107.229004 42.848061,103.105743 
	C42.443043,102.361473 42.921654,101.136345 43.477413,100.239853 
	C44.149639,100.635689 44.336765,100.924881 44.579880,101.487671 
	C44.929916,102.227646 45.223965,102.694023 45.711548,103.489868 
	C48.708027,104.907646 51.494190,106.884750 54.316681,106.938049 
	C70.939560,107.251991 87.570923,107.125290 104.199394,107.115288 
	C105.136894,107.114723 106.074226,106.832771 107.172096,106.655952 
	C107.172096,104.960243 107.172096,103.483879 107.261917,101.575691 
	C107.278778,99.095230 107.205826,97.046608 107.224846,94.583145 
	C107.215302,89.703064 107.074432,85.238289 107.019943,80.772469 
	C106.878738,69.199089 106.775566,57.625248 106.727371,45.847076 
	C106.797546,45.642559 106.746452,45.213142 106.894630,45.048241 
	C107.077629,44.587837 107.065331,44.294312 107.005905,44.002769 
	C107.667084,45.623779 108.891663,47.240742 108.903351,48.866421 
	C109.038239,67.639877 108.989449,86.414658 108.989449,105.524818 
	C110.616547,105.701103 111.872101,105.953033 113.128159,105.955490 
	C127.616837,105.983810 142.106155,106.033669 156.593658,105.900322 
	C158.418579,105.883522 160.234146,104.850159 163.453445,103.855354 
	C163.786804,104.090393 165.333542,105.180901 166.949188,106.854660 
	C167.018082,107.437912 167.019821,107.928642 167.019821,107.928642 
z"/>
<path fill="#F7FEFF" opacity="1.000000" stroke="none" 
	d="
M106.657211,46.051594 
	C106.775566,57.625248 106.878738,69.199089 107.019943,80.772469 
	C107.074432,85.238289 107.215302,89.703064 106.790619,94.582283 
	C102.489281,95.324699 103.002106,92.645088 103.001633,90.335762 
	C102.998817,76.505119 103.027214,62.674316 102.949585,48.844109 
	C102.942970,47.664497 102.238068,46.488808 101.857552,45.311295 
	C100.748306,45.784191 99.669197,46.355453 98.522682,46.706688 
	C96.845818,47.220402 95.124138,47.925484 93.415436,47.942745 
	C82.418694,48.053818 71.419647,47.935905 60.422890,48.046120 
	C57.789043,48.072525 54.805946,49.623768 52.611443,48.800274 
	C49.103828,47.484024 48.193501,49.051395 47.029690,51.546600 
	C44.979271,55.942707 45.710995,60.419888 45.855865,65.050056 
	C46.217701,76.614746 45.867805,88.202347 45.726807,99.779831 
	C45.720928,100.262726 44.942444,100.736206 44.523895,101.214081 
	C44.336765,100.924881 44.149639,100.635689 43.788116,100.152359 
	C43.630592,98.915550 43.647461,97.872879 43.701294,95.999390 
	C43.781387,82.031555 43.773693,68.894112 43.885464,55.757690 
	C43.960339,46.958260 46.829685,44.165039 55.610912,44.132881 
	C72.738632,44.070152 89.866486,44.041016 106.994278,43.997967 
	C106.994278,43.997967 106.999443,44.000538 107.002670,44.001652 
	C107.065331,44.294312 107.077629,44.587837 106.611320,45.039513 
	C106.338959,45.480984 106.498085,45.766289 106.657211,46.051594 
z"/>
<path fill="#2EA6EF" opacity="1.000000" stroke="none" 
	d="
M106.704514,43.697399 
	C89.866486,44.041016 72.738632,44.070152 55.610912,44.132881 
	C46.829685,44.165039 43.960339,46.958260 43.885464,55.757690 
	C43.773693,68.894112 43.781387,82.031555 43.592758,95.622757 
	C42.976437,94.950302 42.103676,93.826355 42.096046,92.696571 
	C42.004925,79.211243 41.980972,65.724602 42.077679,52.239300 
	C42.114281,47.135139 45.324001,43.146969 50.035965,43.125496 
	C68.828087,43.039856 87.621696,43.278332 106.704514,43.697399 
z"/>
<path fill="#2EA6EF" opacity="1.000000" stroke="none" 
	d="
M107.099426,164.063477 
	C107.665161,165.698456 107.924400,167.487396 108.290169,170.011383 
	C126.818558,170.011383 145.446503,170.011383 164.540817,170.301056 
	C165.007187,170.590714 165.021820,171.075439 165.021820,171.075439 
	C163.278687,171.373245 161.536789,171.920776 159.792221,171.929443 
	C145.681030,171.999527 131.569336,171.965973 117.457787,171.972107 
	C116.130951,171.972687 114.784393,171.892685 113.480629,172.081894 
	C106.952065,173.029327 105.154106,170.942642 107.099426,164.063477 
z"/>
<path fill="#069CF3" opacity="1.000000" stroke="none" 
	d="
M39.076942,62.752686 
	C39.706520,62.356277 40.785652,62.366432 40.785793,62.384933 
	C40.857807,71.693024 40.856808,81.001686 40.856808,90.310333 
	C40.245377,90.317749 39.633942,90.325157 39.022511,90.332573 
	C39.022511,81.276093 39.022511,72.219620 39.076942,62.752686 
z"/>
<path fill="#2694DD" opacity="1.000000" stroke="none" 
	d="
M171.272324,165.879364 
	C171.163925,160.641022 171.663025,155.366928 171.736435,150.086914 
	C171.881851,139.628571 171.831924,129.166672 171.764282,118.706894 
	C171.751617,116.747681 171.279282,114.791451 171.020172,112.412216 
	C171.680267,113.379456 172.900040,114.763382 172.912277,116.157921 
	C173.049240,131.748703 173.023438,147.341263 172.944595,162.932831 
	C172.939682,163.904297 172.125183,164.871658 171.272324,165.879364 
z"/>
<path fill="#2694DD" opacity="1.000000" stroke="none" 
	d="
M165.394714,171.056656 
	C165.021820,171.075439 165.007187,170.590714 165.007858,170.348267 
	C166.775513,168.793777 168.542511,167.481720 170.606323,166.022858 
	C171.194458,169.589630 168.433807,170.266769 165.394714,171.056656 
z"/>
<path fill="#2694DD" opacity="1.000000" stroke="none" 
	d="
M167.239746,108.160965 
	C167.019821,107.928642 167.018082,107.437912 167.021240,107.191978 
	C169.995651,106.821922 171.211227,108.356323 171.028931,111.588234 
	C169.830490,110.782791 168.645065,109.588043 167.239746,108.160965 
z"/>
<path fill="#2EA6EF" opacity="1.000000" stroke="none" 
	d="
M104.377167,157.451996 
	C103.944008,157.339676 103.678162,157.065628 103.433632,156.773712 
	C103.426636,156.765366 103.645958,156.567413 103.759750,156.457855 
	C104.022331,156.734482 104.284912,157.011108 104.377167,157.451996 
z"/>
<path fill="#FFFCF4" opacity="1.000000" stroke="none" 
	d="
M129.002304,163.998779 
	C141.274536,164.645935 153.254456,162.569321 164.867477,165.316772 
	C164.955704,165.894440 165.043930,166.472107 165.132172,167.049789 
	C164.715485,167.280182 164.282730,167.736008 163.884491,167.707626 
	C156.375336,167.172394 148.876984,166.230652 141.362701,166.086166 
	C131.564636,165.897751 121.754700,166.377594 111.949501,166.398239 
	C111.273331,166.399673 110.594154,164.973633 109.727280,163.998779 
	C116.612137,163.998779 122.557487,163.998779 129.002304,163.998779 
z"/>
<path fill="#FEFDF2" opacity="1.000000" stroke="none" 
	d="
M162.513443,115.019348 
	C164.710968,110.649307 166.505112,111.016251 169.767258,116.550865 
	C164.451111,116.122665 164.937210,120.072365 163.525574,123.438919 
	C163.235168,120.755714 162.944748,118.072502 162.513443,115.019348 
z"/>
<path fill="#FEFDF2" opacity="1.000000" stroke="none" 
	d="
M166.613251,162.132294 
	C166.810944,159.856918 167.179779,157.901901 167.548630,155.946884 
	C168.336868,156.114777 169.125107,156.282684 169.913345,156.450577 
	C169.356094,158.769684 168.798859,161.088791 168.241623,163.407898 
	C167.755890,163.089493 167.270142,162.771072 166.613251,162.132294 
z"/>
<path fill="#FEFDF2" opacity="1.000000" stroke="none" 
	d="
M169.344727,122.014198 
	C169.686798,122.544083 169.827911,123.242851 169.969009,123.941620 
	C169.752716,123.978371 169.536423,124.015121 169.320114,124.051872 
	C169.261337,123.428940 169.202560,122.806007 169.344727,122.014198 
z"/>
<path fill="#FEFFFE" opacity="1.000000" stroke="none" 
	d="
M44.579884,101.487679 
	C44.942444,100.736206 45.720928,100.262726 45.726807,99.779831 
	C45.867805,88.202347 46.217701,76.614746 45.855865,65.050056 
	C45.710995,60.419888 44.979271,55.942707 47.029690,51.546600 
	C48.193501,49.051395 49.103828,47.484024 52.611443,48.800274 
	C54.805946,49.623768 57.789043,48.072525 60.422890,48.046120 
	C71.419647,47.935905 82.418694,48.053818 93.415436,47.942745 
	C95.124138,47.925484 96.845818,47.220402 98.522682,46.706688 
	C99.669197,46.355453 100.748306,45.784191 101.857552,45.311295 
	C102.238068,46.488808 102.942970,47.664497 102.949585,48.844109 
	C103.027214,62.674316 102.998817,76.505119 103.001633,90.335762 
	C103.002106,92.645088 102.489281,95.324699 106.698654,94.997116 
	C107.205826,97.046608 107.278778,99.095230 106.847382,101.573433 
	C103.806442,102.007759 101.243492,101.798058 98.744049,102.105164 
	C97.438782,102.265533 96.245232,103.335083 94.532440,103.996170 
	C84.708702,103.997192 75.353745,103.996033 65.907974,103.598846 
	C64.485878,102.802063 63.138519,102.013802 61.826084,102.068184 
	C56.384319,102.293716 50.953098,102.773781 45.518009,103.160400 
	C45.223965,102.694023 44.929916,102.227646 44.579884,101.487679 
z"/>
<path fill="#F7FEFF" opacity="1.000000" stroke="none" 
	d="
M95.001221,103.993988 
	C96.245232,103.335083 97.438782,102.265533 98.744049,102.105164 
	C101.243492,101.798058 103.806442,102.007759 106.757568,102.005264 
	C107.172096,103.483879 107.172096,104.960243 107.172096,106.655952 
	C106.074226,106.832771 105.136894,107.114723 104.199394,107.115288 
	C87.570923,107.125290 70.939560,107.251991 54.316681,106.938049 
	C51.494190,106.884750 48.708027,104.907646 45.711548,103.489868 
	C50.953098,102.773781 56.384319,102.293716 61.826084,102.068184 
	C63.138519,102.013802 64.485878,102.802063 65.441093,103.600433 
	C60.264881,103.998039 55.464752,103.998039 50.664623,103.998039 
	C50.682053,104.439339 50.699482,104.880630 50.716911,105.321930 
	C67.251389,105.321930 83.785858,105.321930 100.320335,105.321930 
	C100.319061,104.879280 100.317780,104.436638 100.316505,103.993988 
	C98.544746,103.993988 96.772980,103.993988 95.001221,103.993988 
z"/>
<path fill="#FEFFFE" opacity="1.000000" stroke="none" 
	d="
M106.727379,45.847076 
	C106.498085,45.766289 106.338959,45.480984 106.463142,45.204411 
	C106.746452,45.213142 106.797546,45.642559 106.727379,45.847076 
z"/>
<path fill="#FFFBF0" opacity="1.000000" stroke="none" 
	d="
M94.532440,103.996170 
	C96.772980,103.993988 98.544746,103.993988 100.316505,103.993988 
	C100.317780,104.436638 100.319061,104.879280 100.320335,105.321930 
	C83.785858,105.321930 67.251389,105.321930 50.716911,105.321930 
	C50.699482,104.880630 50.682053,104.439339 50.664623,103.998039 
	C55.464752,103.998039 60.264881,103.998039 65.531891,103.996460 
	C75.353745,103.996033 84.708702,103.997192 94.532440,103.996170 
z"/>
</svg>