<svg xmlns="http://www.w3.org/2000/svg" viewBox="0 0 402.669 500">
  <path fill="#178a9e" fill-rule="evenodd" d="M307.65.047 305.919 0H190.388C114.751 4.09 82.942 48.028 74.432 71.421 41.285 170.78 20.662 299.463 5.764 392.342l-.865 5.396-4.83 44.158a76.333 76.333 0 0 0 2.234 21.851c9.281 26.932 37.299 49.617 99.014 27.011v.047c66.89-29.166 133.024-60 198.373-92.454 40.54-23.44 99.942-77.351 102.978-145.421-.551-50.498-2.234-103.434-5.664-154.955l-.031.032v-.362c-.283-4.232-.566-9.124-.881-14.221-.582-9.785-1.211-20.325-1.888-28.301a97.388 97.388 0 0 0-3.885-15.055c-9.911-22.071-29.277-32.721-49.712-37.803C331.279.629 319.826.346 307.65.047Zm-4.405 102.758c.016-5.711-4.609-10.351-10.335-10.351-65.679-.016-118.93 53.235-118.93 118.929v39.801c0 35.285-28.615 63.885-63.901 63.901-5.884 0-10.65 4.766-10.65 10.65v32.548c0 5.711 4.625 10.336 10.335 10.336 65.679 0 118.93-53.251 118.914-118.93v-39.8c.016-35.302 28.631-63.901 63.917-63.901 5.884 0 10.65-4.767 10.65-10.651v-32.532Z" clip-rule="evenodd"/>
  <path fill="#fff" d="M292.91 92.454c5.71 0 10.335 4.625 10.335 10.335v32.548c0 5.884-4.766 10.651-10.65 10.651-35.301 0-63.917 28.615-63.917 63.916v42.239c0 65.679-53.251 118.898-118.929 118.898-5.695-.015-10.32-4.64-10.32-10.335v-32.533c0-5.883 4.766-10.65 10.65-10.65 35.301 0 63.917-28.615 63.917-63.917v-42.239c0-65.678 53.251-118.913 118.914-118.913Z"/>
</svg>