<svg xmlns="http://www.w3.org/2000/svg" width="41.08" height="41.08"><path d="M36.44 14.097l-.1-.09a9.2 9.2 0 00-5.5-2.5 10.56 10.56 0 00-10.3-8.35 10.42 10.42 0 00-8.35 4.08 10.67 10.67 0 00-1.95 4.29 9.14 9.14 0 00-5.5 2.54l-.11.1a9.09 9.09 0 00-2.72 6.29v.36a9.12 9.12 0 002.59 6.12l.14.15a9.14 9.14 0 005.61 2.64 10.53 10.53 0 0020.58 0 9.18 9.18 0 005.63-2.65l.12-.13a9.06 9.06 0 002.57-6.17v-.35a9.15 9.15 0 00-2.71-6.33z" fill="#00adef"/><path d="M41.08 20.387a10.07 10.07 0 00-3-7l-.11-.1a10.11 10.11 0 00-6.07-2.76 11.64 11.64 0 00-11.36-9.21 11.48 11.48 0 00-9.21 4.5 11.75 11.75 0 00-2.15 4.71 10.11 10.11 0 00-6.06 2.8l-.12.11a10 10 0 00-3 6.94v.4a10 10 0 002.86 6.75l.15.16a10.09 10.09 0 006.19 2.91 11.61 11.61 0 0022.7 0 10.1 10.1 0 006.21-2.92l.13-.14a10 10 0 002.83-6.8v-.21a.66.66 0 00.01-.14zm-5 5.14a7 7 0 01-4.58 2 10.88 10.88 0 00-.46-2.47l.11-.16a4.3 4.3 0 003.18-1.37 4.85 4.85 0 001.59-3.29 3.83 3.83 0 00-1.06-2.91 6.08 6.08 0 00-3.37-1.38 4.27 4.27 0 00-3.39 1.33H28c-.09.09-.22.19-.3.28l1.1.85-4.91 1.65.35-5.17 1.28 1a5.89 5.89 0 10-8.61 1.64 15.42 15.42 0 003 1.53c2.17.87 4.42 1.21 6.22 2.82a8.52 8.52 0 01-10.8 13.16 8.29 8.29 0 01-3-7.77 5.23 5.23 0 01-1.88.31v.2-.25a8 8 0 01-5.2-2h-.06a6.88 6.88 0 01-2.11-5 7 7 0 012-4.89v.06a6.89 6.89 0 014.46-2 11.33 11.33 0 00.43 2.38 4.27 4.27 0 00-2.89 1.38 4.22 4.22 0 00-1.39 2.91 4.52 4.52 0 001.13 3.16 4.58 4.58 0 003.09 1.38 4.48 4.48 0 003.26-1.25h.06a3.07 3.07 0 00.26-.25l-1.16-.81 4.88-1.59-.32 5.15-1.34-1a5.9 5.9 0 108.57-1.5 7.61 7.61 0 00-.85-.54c-2.56-1.33-5.6-1.73-8-3.47a8.58 8.58 0 0110.52-13.55 8.67 8.67 0 013.43 7.76 7.81 7.81 0 012.25-.33 7 7 0 014.77 2h-.1a7 7 0 012 4.89 6.82 6.82 0 01-2.07 5z" fill="#fff"/></svg>