<?xml version="1.0" standalone="no"?>
<!DOCTYPE svg PUBLIC "-//W3C//DTD SVG 20010904//EN"
 "http://www.w3.org/TR/2001/REC-SVG-20010904/DTD/svg10.dtd">
<svg version="1.0" xmlns="http://www.w3.org/2000/svg"
 width="512.000000pt" height="512.000000pt" viewBox="0 0 512.000000 512.000000"
 preserveAspectRatio="xMidYMid meet">
<metadata>
Created by potrace 1.14, written by Peter Selinger 2001-2017
</metadata>
<g transform="translate(0.000000,512.000000) scale(0.100000,-0.100000)"
fill="#00ADEF" stroke="none">
<path d="M2315 4935 c-554 -101 -988 -491 -1145 -1030 l-26 -89 -83 -13 c-107
-17 -271 -72 -374 -125 -331 -172 -572 -492 -647 -858 -19 -92 -21 -128 -17
-290 3 -159 8 -198 30 -281 96 -352 337 -649 655 -808 92 -46 259 -100 353
-114 93 -13 81 1 129 -156 63 -207 185 -405 350 -571 117 -116 240 -205 385
-276 211 -103 340 -134 587 -141 212 -7 323 8 503 68 207 69 370 167 529 319
190 183 316 383 387 615 17 55 34 107 38 115 5 9 38 19 91 27 97 15 261 68
352 114 317 158 560 458 656 809 24 89 26 109 26 315 0 208 -1 225 -27 317
-96 346 -327 636 -634 796 -103 53 -267 108 -373 125 -53 8 -86 18 -91 27 -4
8 -22 62 -39 119 -153 502 -605 895 -1134 986 -108 18 -381 19 -481 0z m500
-383 c321 -91 556 -282 696 -567 75 -153 101 -268 103 -442 0 -79 2 -143 3
-143 1 0 32 7 70 16 52 12 103 15 213 12 131 -4 155 -8 242 -38 283 -95 477
-296 564 -587 24 -77 27 -105 27 -228 0 -167 -19 -252 -87 -390 -53 -107 -170
-252 -253 -314 -123 -92 -298 -161 -414 -164 l-64 -2 -7 69 c-8 66 -30 174
-43 207 -5 14 5 17 67 23 163 16 297 88 371 201 124 185 156 352 102 523 -43
136 -134 254 -253 326 -93 56 -152 71 -277 70 -116 0 -173 -13 -267 -60 -48
-24 -168 -119 -168 -132 0 -5 30 -30 66 -56 36 -27 62 -52 57 -56 -10 -10
-586 -201 -590 -196 -2 2 6 133 17 291 11 159 20 299 20 312 0 13 4 23 8 23 4
0 37 -25 74 -55 36 -30 71 -55 77 -55 15 0 65 102 92 190 19 62 24 97 23 195
0 141 -16 211 -77 335 -34 70 -58 102 -136 181 -79 78 -111 102 -181 136 -122
60 -194 77 -330 77 -139 1 -207 -16 -338 -80 -76 -37 -109 -61 -175 -127 -93
-93 -138 -163 -179 -278 -90 -256 -32 -543 148 -738 123 -133 306 -227 719
-368 104 -35 221 -79 261 -98 156 -71 302 -189 405 -324 64 -85 152 -263 180
-366 30 -114 38 -350 14 -466 -87 -433 -417 -762 -845 -843 -105 -20 -285 -20
-390 0 -391 74 -714 367 -824 748 -31 105 -49 269 -40 352 3 35 4 64 1 64 -3
0 -36 -7 -74 -16 -100 -23 -323 -15 -418 16 -172 55 -298 139 -408 270 -90
109 -156 234 -188 355 -30 111 -32 309 -5 415 50 197 136 337 280 454 134 110
300 186 442 201 l61 7 12 -83 c7 -46 19 -109 27 -140 8 -31 14 -61 14 -67 0
-5 -25 -13 -56 -17 -185 -23 -355 -138 -429 -290 -105 -214 -84 -416 65 -635
61 -89 172 -157 307 -185 175 -37 333 3 483 122 39 31 70 59 70 62 0 3 -30 28
-65 55 -36 27 -65 51 -65 55 0 10 579 195 587 188 12 -12 -29 -628 -41 -618
-6 4 -43 33 -83 64 l-72 57 -27 -45 c-37 -65 -74 -185 -82 -274 -35 -372 187
-689 549 -787 96 -26 262 -24 363 5 137 38 229 93 331 195 138 138 199 276
212 471 13 209 -66 411 -219 562 -111 108 -215 161 -528 272 -461 162 -597
235 -753 400 -257 273 -352 679 -240 1035 115 369 416 644 793 727 115 25 370
20 475 -9z"/>
</g>
</svg>
