<svg xmlns="http://www.w3.org/2000/svg" width="102.36" height="102.36"><path d="M11.14 68.34l19.26-1.8q1.78 9.7 7.09 14.28t14.42 4.53c6.39 0 11.21-1.37 14.48-4.05 3.27-2.68 4.84-5.88 4.84-9.46a9.15 9.15 0 00-2-6c-1.37-1.6-3.74-3.05-7.13-4.2-2.34-.89-7.63-2.31-15.87-4.41-10.67-2.61-18.09-5.88-22.38-9.73a26 26 0 01-9.06-19.94 25 25 0 014.27-14.1A26.77 26.77 0 0131.37 3.4C36.71 1.17 43.14 0 50.75 0q18.49 0 27.87 8.17c6.24 5.53 9.5 12.78 9.81 21.88l-19.94.67c-.88-5-2.65-8.63-5.47-10.87-2.82-2.24-7-3.34-12.51-3.34-5.76 0-10.28 1.18-13.52 3.6a7.14 7.14 0 00-3.16 6.06 7.52 7.52 0 002.95 6c2.48 2.16 8.58 4.35 18.23 6.6s16.79 4.68 21.4 7.14a27.66 27.66 0 0110.87 10.1c2.59 4.17 3.94 9.51 3.94 15.78A29.19 29.19 0 0186.5 87.7a28.48 28.48 0 01-13.3 11.05c-5.74 2.35-12.88 3.61-21.43 3.61-12.45 0-22-2.91-28.7-8.73-6.7-5.82-10.63-14.24-11.93-25.29z" fill="#4a5158"/></svg>