<svg xmlns="http://www.w3.org/2000/svg" viewBox="0 0 494.394 500">
  <path fill="#44a9fe" d="M73.896 499.226c-35.653-4.688-62.739-29.22-71.977-65.186C.129 427.072 0 414.742 0 249.927V73.281l2.435-9.127c8.347-31.296 30.425-53.373 61.72-61.72L73.282 0h173.912C406.882 0 421.692.151 428.27 1.848c27.973 7.213 48.886 24.567 59.204 49.126 7.405 17.626 6.913 3.462 6.913 198.945v176.646l-2.434 9.127c-8.296 31.099-30.024 53.075-61.004 61.699l-8.75 2.435-170.623.16c-93.844.088-173.796-.257-177.672-.766l-.008.006Zm178.918-170.602c21.813-5.525 36.158-19.213 39.82-37.994 3.838-19.692-5.85-39.168-23.57-47.376-3.61-1.672-17.145-5.842-30.079-9.267-31.318-8.293-37.16-11.416-38.921-20.807-1.757-9.362 3.971-18.153 13.734-21.079 5.529-1.657 20.826-1.789 26.099-.225 7.877 2.335 13.383 6.602 16.128 12.496 1.443 3.101 2.63 6.71 2.635 8.021.022 4.847 2.562 5.82 15.193 5.82 15.69 0 16.339-.471 14.487-10.52-4.737-25.714-27.888-41.98-59.747-41.98-25.76 0-46.214 10.473-54.825 28.072-2.577 5.271-3.152 8.024-3.491 16.736-.501 12.909 1.874 20.209 9.242 28.404 7.025 7.813 16.601 12.129 41.414 18.662 32.355 8.52 35.723 9.891 40.233 16.378 2.388 3.434 2.556 15.238.28 19.642-4.401 8.511-14.618 12.682-30.665 12.521-12.612-.127-21.081-2.719-27.607-8.448-4.387-3.852-9.007-12.796-9.023-17.468-.024-6.852-.981-7.31-15.228-7.31-16.027 0-16.079.04-14.356 11.151 4.803 30.964 32.51 49.302 71.136 47.084 5.113-.295 12.813-1.425 17.11-2.514l.001.001Zm-153.498-2.813c15.875-3.584 30.773-13.77 39.082-26.718 15.651-24.39 17.226-66.736 3.529-94.891-5.607-11.525-16.428-22.471-27.628-27.946-13.143-6.424-20.22-7.262-61.308-7.262-34.433 0-36.008.09-37.092 2.116-1.567 2.927-1.567 151.435 0 154.367 1.085 2.028 2.673 2.115 38.339 2.115 30.39 0 38.649-.326 45.079-1.777l-.001-.004Zm-53.924-77.519v-54.141h17.299c20.018 0 27.805 1.175 36.243 5.466 16.209 8.243 22.161 21.317 22.161 48.676 0 21.618-3.381 33.225-12.266 42.11-9.48 9.479-18.925 12.031-44.527 12.031H45.391l.001-54.142Zm296.836 77.567c.364-.951.696-26.422.737-56.602.048-35.622.44-54.105 1.116-52.685.573 1.203 9.796 26.551 20.495 56.329l19.454 54.14 11.647.31c11.1.296 11.722.193 13.241-2.187.877-1.374 10.056-26.122 20.4-54.997 10.343-28.875 19.23-53.239 19.75-54.141.54-.938.966 21.996.995 53.594.027 30.379.45 55.867.94 56.639.662 1.043 4.234 1.324 13.929 1.093l13.038-.31V169.543l-18.594-.271c-10.227-.149-19.246.15-20.043.663-.797.513-10.395 26.968-21.329 58.787-10.932 31.819-20.31 57.854-20.839 57.854-.528 0-10.055-25.84-21.17-57.423-11.115-31.582-20.72-58.048-21.343-58.814-.856-1.052-5.829-1.32-20.392-1.093l-19.26.297-.283 77.657c-.156 42.712-.048 78.272.239 79.024.377.989 4.138 1.368 13.565 1.368 10.884 0 13.152-.287 13.707-1.73v-.003Z"/>
</svg>
