<svg viewBox="0 0 90 90" xmlns="http://www.w3.org/2000/svg"><g fill="none"><path d="M0 0h90v90H0z" fill="#E20074"/><g fill="#FFF"><path d="M18.692 55.385V42.404h12.981v12.98zm39.635 0V42.404h12.981v12.98z"/><path d="M70.615 12.98h-51.23l-.693 22.674 3.462.52c.692-6.75 2.423-11.597 5.192-14.886 2.942-3.288 7.096-5.192 12.462-5.365v47.25c0 4.154-.52 6.75-1.731 7.962-1.039 1.038-2.77 1.73-5.192 1.903-.693 0-1.904.174-3.635.174v3.634h31.673v-3.634c-1.73 0-2.942 0-3.635-.174-2.423-.173-4.153-.865-5.192-1.903-1.211-1.212-1.73-3.981-1.73-7.962V16.096c5.365.173 9.519 1.904 12.46 5.366 2.943 3.288 4.674 8.134 5.193 14.884l3.462-.52-.866-22.845Z"/></g></g></svg>