<svg width="128" height="124" viewBox="0 0 128 124" fill="none" xmlns="http://www.w3.org/2000/svg">
<path d="M79.9335 17.1445C79.9335 24.2262 77.3191 33.969 73.4647 47.0615L70.7069 57.1173L79.4337 51.4172C96.022 39.7688 106.04 35.397 112.67 35.397C120.212 35.397 128 40.7864 128 51.5052C128 65.1402 113.443 69.0136 85.3379 69.4912L74.8298 69.9849L83.1169 76.5821C102.791 91.747 109.612 99.1764 109.612 108.59C109.612 115.999 102.727 123.715 94.1897 123.715C81.3632 123.715 75.5655 110.387 67.7502 87.7575L63.7662 77.922L60.0183 87.7575C51.2591 113.46 44.5174 123.479 33.343 123.479C24.334 123.479 17.9208 115.289 17.9208 108.354C17.9208 97.9942 27.3369 89.3825 44.6517 76.5821L52.9388 69.9849L42.6666 69.4912C12.8171 69.2501 0 64.957 0 51.2688C0 40.55 8.02804 35.1605 15.4268 35.1605C24.3617 35.1605 34.1064 41.1875 48.5708 51.4172L57.2976 57.1173L54.5398 47.0615C50.3616 33.2597 48.3996 23.1344 48.3996 17.1445C48.3996 7.76783 53.6838 0 64.0023 0C74.5567 1.03096e-07 79.9335 7.76783 79.9335 17.1445Z" fill="black"/>
</svg>
