<svg width="500" height="500" viewBox="0 0 500 500" fill="none" xmlns="http://www.w3.org/2000/svg">
<g style="mix-blend-mode:difference">
<path d="M225.009 216.292V426.213C237.215 438.039 247.952 447.295 255.749 453.722C263.545 447.295 274.282 438.039 286.488 426.213V216.292H414.176C419.289 196.752 422.932 176.12 424.593 154.524H86.9043C88.5659 176.12 92.2726 196.752 97.3213 216.292H225.009Z" fill="white"/>
</g>
<g style="mix-blend-mode:difference">
<path fill-rule="evenodd" clip-rule="evenodd" d="M248.719 495.115L255.749 500L262.778 495.115C264.823 493.701 313.457 459.378 362.602 397.032C391.553 360.396 414.623 321.574 431.175 281.723C451.945 231.654 462.49 179.912 462.49 127.786V118.98L441.391 111.6C441.278 111.2 441.153 110.769 441.017 110.303C440.919 109.861 440.785 109.42 440.641 108.95L440.64 108.947C440.596 108.802 440.551 108.655 440.506 108.503L440.505 108.501C440.314 107.859 440.122 107.217 439.931 106.447C439.671 105.55 439.367 104.61 439.046 103.615L439.045 103.611C438.814 102.894 438.573 102.148 438.333 101.369C438.201 100.998 438.08 100.605 437.957 100.204C437.781 99.6324 437.6 99.0434 437.374 98.4766C437.17 97.8604 436.94 97.218 436.7 96.5494L436.698 96.5436L436.692 96.526L436.69 96.5219C436.558 96.153 436.423 95.7762 436.288 95.3914C436.047 94.7263 435.807 94.0423 435.561 93.3414L435.555 93.3266L435.554 93.3222C435.016 91.7933 434.451 90.1837 433.795 88.514C433.608 88.0372 433.421 87.5554 433.232 87.0688C432.453 85.0628 431.641 82.9735 430.664 80.801C430.495 80.4053 430.327 80.0039 430.156 79.5987L430.152 79.5877L430.149 79.5824L430.149 79.5812C429.741 78.6101 429.323 77.6166 428.874 76.6232C428.444 75.6714 427.985 74.7196 427.517 73.7483L427.514 73.7434C427.288 73.2732 427.058 72.7984 426.829 72.3168C426.51 71.6109 426.128 70.8406 425.745 70.0705L425.743 70.0672C425.551 69.6815 425.36 69.3119 425.168 68.9423C424.976 68.5728 424.784 68.2032 424.593 67.8176C423.826 66.275 422.995 64.7324 422.164 63.1898C418.649 56.9552 414.559 50.3349 409.51 43.7146C404.462 37.0943 398.39 30.4097 391.105 24.3037C383.883 18.1333 375.32 12.7342 365.734 8.4921C365.446 8.36355 365.142 8.235 364.839 8.10645C364.535 7.9779 364.232 7.84935 363.944 7.7208C363.801 7.66312 363.661 7.60543 363.522 7.54847L363.521 7.54794C363.043 7.3513 362.586 7.16316 362.091 7.01378C361.947 6.9561 361.807 6.89842 361.669 6.84146L361.668 6.84093C361.19 6.64422 360.733 6.45619 360.237 6.30676C359.598 6.04966 358.959 5.85684 358.32 5.66402C357.681 5.4712 357.042 5.26232 356.403 5.05344C355.764 4.84457 355.125 4.6356 354.486 4.4428C353.847 4.25002 353.192 4.07318 352.537 3.89646C351.882 3.71971 351.227 3.54295 350.587 3.35013C349.309 2.96448 347.967 2.70738 346.625 2.45029C346.178 2.36459 345.73 2.27175 345.283 2.17891C344.388 1.99323 343.494 1.80754 342.599 1.67899C341.979 1.58992 341.359 1.48714 340.733 1.38331C340.003 1.26236 339.265 1.14 338.509 1.03624C337.879 0.975918 337.235 0.901367 336.583 0.826018C335.847 0.740834 335.101 0.654518 334.355 0.586321C323.299 -0.506347 311.859 -0.0564245 300.484 1.80754C299.512 1.94084 298.509 2.13557 297.519 2.32803C297.076 2.41397 296.636 2.49947 296.202 2.57883L295.877 2.63807C294.571 2.87614 293.218 3.12262 291.92 3.47868L291.919 3.47901C290.513 3.80027 289.108 4.12153 287.638 4.4428C286.232 4.82844 284.826 5.21409 283.42 5.53547C277.796 7.07806 272.109 8.87775 266.549 10.9988C265.824 11.2559 265.121 11.513 264.44 11.7701C264.088 11.8986 263.737 12.0433 263.385 12.1879C263.034 12.3324 262.682 12.4772 262.331 12.6057C261.743 12.8477 261.154 13.0785 260.571 13.3074C259.76 13.6257 258.957 13.9404 258.177 14.2768C257.261 14.6838 256.345 15.0837 255.429 15.4836C253.597 16.2835 251.765 17.0835 249.933 17.9405C247.865 18.9075 245.834 19.9108 243.785 20.9232C243.11 21.2567 242.433 21.5911 241.752 21.9255C240.389 22.6111 239.047 23.3181 237.726 24.0466C237.375 24.2394 237.039 24.4161 236.704 24.5929C236.368 24.7697 236.033 24.9464 235.681 25.1392C235.428 25.2783 235.183 25.4173 234.943 25.5534L234.942 25.5539C234.517 25.7948 234.108 26.0266 233.7 26.2319C233.029 26.6175 232.358 26.9872 231.687 27.3567C231.016 27.7263 230.345 28.0959 229.674 28.4815C228.332 29.2528 227.054 30.0241 225.712 30.8597L223.73 32.0166L221.749 33.2378C221.079 33.6552 220.425 34.0565 219.77 34.4578L219.762 34.4626C219.109 34.8632 218.456 35.2637 217.787 35.6803C215.167 37.3514 212.547 39.0225 209.99 40.8222C209.458 41.1972 208.914 41.5611 208.373 41.9231C207.616 42.4297 206.864 42.9326 206.156 43.4575L202.321 46.157C201.683 46.6068 201.044 47.0726 200.405 47.5385L200.403 47.5394C199.765 48.0052 199.126 48.4711 198.487 48.9208C198.019 49.2737 197.551 49.618 197.086 49.96L197.084 49.9616C196.28 50.5532 195.485 51.1384 194.716 51.7489C192.224 53.6771 189.732 55.6054 187.239 57.5979C182.254 61.5186 177.397 65.6322 172.604 69.8101C169.008 72.9689 165.457 76.191 161.954 79.4764L49.0068 118.98V127.786C49.0068 159.09 52.8097 190.278 60.3463 221.03C60.0561 221.698 59.7697 222.369 59.4876 223.041L58.529 225.162C58.3296 225.603 58.1549 226.045 57.9742 226.501L57.9739 226.502C57.8652 226.777 57.7542 227.057 57.6343 227.347C57.5056 227.663 57.3769 227.983 57.2475 228.304C56.7986 229.419 56.3409 230.556 55.8448 231.653C55.625 232.219 55.4144 232.774 55.2061 233.324C54.8694 234.213 54.5385 235.086 54.1832 235.96L53.3524 238.145L52.5855 240.331C52.3303 241.069 52.075 241.791 51.8197 242.513L51.8176 242.519C51.5623 243.241 51.307 243.963 51.0518 244.701C50.7962 245.44 50.5564 246.164 50.3168 246.887L50.3162 246.888C50.0768 247.611 49.8373 248.333 49.5819 249.072C49.0706 250.55 48.6233 251.964 48.1759 253.443C47.9525 254.181 47.7291 254.903 47.5057 255.625L47.5048 255.628C47.2811 256.351 47.0575 257.074 46.8338 257.813C46.6421 258.552 46.4344 259.275 46.2267 259.999C46.019 260.722 45.8113 261.445 45.6196 262.184C45.5237 262.537 45.4279 262.907 45.332 263.277C45.2361 263.646 45.1403 264.016 45.0444 264.369C44.9486 264.723 44.8527 265.092 44.7568 265.462C44.661 265.831 44.5651 266.201 44.4693 266.555C43.772 269.184 43.1803 271.867 42.5983 274.507L42.5974 274.511L42.4242 275.296C42.2788 275.969 42.1466 276.641 42.0157 277.308C41.8588 278.106 41.7036 278.896 41.5295 279.667C41.5127 279.759 41.4959 279.853 41.479 279.948L41.4787 279.95C41.3668 280.576 41.2485 281.238 41.0821 281.852C41.0182 282.205 40.9543 282.575 40.8904 282.944C40.8265 283.314 40.7626 283.684 40.6987 284.037C40.6656 284.229 40.6324 284.419 40.5994 284.609C40.3779 285.883 40.1626 287.121 39.9957 288.408C39.8999 289.147 39.804 289.87 39.7082 290.593L39.7078 290.596C39.6121 291.318 39.5163 292.04 39.4205 292.779C37.9507 304.412 37.5672 315.982 38.5258 327.101C39.0371 332.693 39.7401 338.156 40.8904 343.491C40.9543 343.813 41.0183 344.15 41.0822 344.488L41.0827 344.49C41.1464 344.827 41.2101 345.163 41.2739 345.484C41.383 345.85 41.4714 346.215 41.5627 346.593L41.563 346.594C41.632 346.88 41.7026 347.172 41.7851 347.476C41.881 347.798 41.9609 348.119 42.0408 348.44C42.1206 348.762 42.2005 349.083 42.2964 349.405C42.3923 349.726 42.4721 350.047 42.552 350.369C42.6319 350.69 42.7118 351.011 42.8077 351.333L43.958 355.189C44.0219 355.35 44.0698 355.511 44.1178 355.671C44.1657 355.832 44.2136 355.993 44.2775 356.153L44.5971 357.118C44.6929 357.439 44.8048 357.744 44.9166 358.049C45.0284 358.355 45.1403 358.66 45.2361 358.981C45.332 359.303 45.4439 359.608 45.5557 359.913C45.6675 360.219 45.7794 360.524 45.8752 360.845C45.9805 361.198 46.1242 361.532 46.2642 361.856C46.3792 362.123 46.4917 362.384 46.5782 362.645C46.6958 362.926 46.8134 363.204 46.9303 363.479C47.3213 364.402 47.7037 365.304 48.0481 366.244C48.3356 366.823 48.6072 367.401 48.8788 367.98C49.1504 368.558 49.4221 369.137 49.7097 369.715C49.9653 370.294 50.221 370.872 50.5405 371.451C50.7003 371.74 50.8441 372.013 50.9878 372.286C51.1316 372.559 51.2754 372.833 51.4352 373.122C51.5949 373.411 51.7386 373.684 51.8824 373.957C52.0262 374.23 52.1701 374.504 52.3299 374.793C52.4055 374.93 52.4775 375.063 52.5485 375.195L52.5504 375.198C52.7788 375.621 52.9966 376.024 53.2885 376.464C53.6081 377.011 53.9276 377.541 54.2471 378.071C54.5667 378.601 54.8862 379.132 55.2058 379.678L55.717 380.449C55.8129 380.578 55.8927 380.706 55.9726 380.835C56.0525 380.963 56.1324 381.092 56.2283 381.22C56.3881 381.478 56.5638 381.735 56.7396 381.992C56.9153 382.249 57.091 382.506 57.2508 382.763C57.4105 383.02 57.5862 383.277 57.762 383.534C57.9377 383.791 58.1135 384.048 58.2733 384.306L58.7846 385.077L59.3598 385.784C65.1754 393.625 71.7579 400.31 78.596 405.838C85.4981 411.365 92.5279 415.864 99.43 419.528C100.119 419.888 100.809 420.237 101.494 420.584C102.524 421.106 103.545 421.623 104.543 422.163C106.268 422.935 107.93 423.706 109.591 424.477C109.783 424.574 109.991 424.67 110.198 424.767C110.406 424.863 110.614 424.959 110.806 425.056C111.029 425.152 111.237 425.233 111.445 425.313C111.653 425.393 111.86 425.474 112.084 425.57L112.085 425.571C112.916 425.892 113.746 426.213 114.576 426.598C114.991 426.759 115.39 426.919 115.789 427.08C116.189 427.241 116.589 427.402 117.005 427.562C117.445 427.747 117.906 427.91 118.377 428.077L118.377 428.077L118.378 428.077L118.379 428.078C118.727 428.201 119.08 428.326 119.433 428.462C119.859 428.617 120.281 428.771 120.7 428.924L120.702 428.925C121.851 429.346 122.975 429.757 124.098 430.133C125.277 430.529 126.456 430.886 127.605 431.234L127.627 431.241C127.966 431.343 128.303 431.445 128.636 431.547C128.948 431.652 129.25 431.746 129.545 431.838L129.548 431.839L129.549 431.839L129.551 431.84C129.979 431.973 130.394 432.103 130.809 432.255C131.16 432.383 131.528 432.479 131.895 432.576C132.262 432.672 132.63 432.769 132.982 432.897C134.388 433.283 135.793 433.669 137.136 434.054C147.235 436.759 155.434 438.171 161.315 439.184L161.318 439.184C161.725 439.254 162.122 439.322 162.507 439.389C168.45 440.225 171.582 440.675 171.582 440.675C171.582 440.675 168.45 440.16 162.571 439.132C161.538 438.904 160.418 438.663 159.214 438.404C153.644 437.208 146.284 435.627 137.455 433.09C136.874 432.923 136.293 432.744 135.706 432.563L135.705 432.563C134.938 432.326 134.162 432.087 133.365 431.869C132.662 431.676 131.959 431.483 131.256 431.226C130.553 430.969 129.85 430.712 129.083 430.455C127.613 429.941 126.143 429.426 124.61 428.912C124.044 428.69 123.469 428.467 122.884 428.241L122.884 428.241L122.877 428.238C121.945 427.877 120.989 427.507 120.008 427.113C119.727 426.995 119.437 426.886 119.145 426.775C118.641 426.585 118.129 426.393 117.644 426.148C117.26 425.988 116.86 425.811 116.461 425.634C116.061 425.457 115.662 425.281 115.279 425.12C115.002 425.004 114.716 424.879 114.425 424.752C113.911 424.528 113.381 424.297 112.851 424.092C112.467 423.899 112.02 423.706 111.636 423.577C111.444 423.481 111.237 423.384 111.029 423.288C110.821 423.192 110.614 423.095 110.422 422.999C109.61 422.607 108.782 422.198 107.937 421.782L107.932 421.779L107.93 421.778L107.925 421.776C107.111 421.375 106.282 420.966 105.437 420.557L100.452 417.857C93.7422 414.065 86.904 409.501 80.3215 403.909C73.739 398.318 67.54 391.633 62.1078 383.92L61.5965 383.213L61.0853 382.442C60.7657 381.927 60.4462 381.413 60.1267 380.963C59.8071 380.449 59.4876 379.935 59.168 379.485C59.0722 379.357 58.9923 379.228 58.9124 379.099C58.8325 378.971 58.7526 378.842 58.6568 378.714L58.2094 377.942C57.9217 377.428 57.618 376.898 57.3143 376.367C57.0109 375.837 56.7075 375.307 56.42 374.793C56.1792 374.405 55.9746 373.981 55.779 373.576L55.7772 373.572C55.7139 373.441 55.6516 373.312 55.5892 373.186C55.4618 372.93 55.3185 372.658 55.1751 372.385L55.1738 372.383C55.03 372.11 54.8862 371.836 54.7584 371.579C54.6306 371.29 54.4868 371.017 54.343 370.744C54.1992 370.47 54.0554 370.197 53.9276 369.908C53.7017 369.545 53.5397 369.149 53.3738 368.744L53.3735 368.743C53.3048 368.576 53.2355 368.406 53.1607 368.237C52.9052 367.659 52.6496 367.096 52.3941 366.534C52.1383 365.972 51.8826 365.409 51.6269 364.83C51.1796 363.674 50.7322 362.517 50.2849 361.295C50.2043 361.052 50.1125 360.809 50.0188 360.561C49.8896 360.219 49.757 359.868 49.6458 359.496C49.5499 359.206 49.454 358.901 49.3581 358.596L49.3578 358.594C49.262 358.29 49.1663 357.985 49.0706 357.696C48.9748 357.407 48.8789 357.101 48.783 356.796C48.6872 356.491 48.5913 356.186 48.4954 355.896L48.1759 354.996C48.0727 354.737 48.0112 354.478 47.9577 354.252C47.9513 354.225 47.945 354.198 47.9387 354.172C47.9325 354.147 47.9264 354.121 47.9203 354.097C47.7605 353.486 47.5847 352.859 47.409 352.233C47.2332 351.606 47.0575 350.979 46.8977 350.369C46.7403 349.841 46.626 349.313 46.5194 348.821L46.5184 348.817L46.5182 348.816C46.4954 348.71 46.4729 348.606 46.4504 348.505C46.3226 347.862 46.1948 347.219 46.003 346.576C45.8752 345.934 45.7474 345.291 45.5557 344.648C45.4279 344.005 45.3001 343.363 45.2361 342.72C44.2136 337.578 43.7024 332.243 43.3189 326.844C42.6798 316.046 43.3828 304.862 45.0444 293.614C45.1722 292.907 45.2841 292.2 45.3959 291.493C45.5078 290.786 45.6196 290.079 45.7474 289.372L46.5143 285.13C46.6421 284.401 46.7699 283.694 46.8977 283.009C46.9617 282.655 47.0415 282.302 47.1214 281.948C47.2013 281.595 47.2812 281.241 47.3451 280.888C47.6859 279.474 48.0055 278.06 48.3037 276.646C49.0067 273.818 49.7097 270.989 50.5405 268.161C50.7535 267.433 50.9452 266.726 51.1157 266.04C51.3074 265.333 51.4991 264.626 51.7547 263.919C52.2021 262.505 52.6495 261.091 53.0329 259.677C53.2566 258.97 53.4962 258.263 53.7359 257.556C53.9755 256.849 54.2152 256.142 54.4389 255.435C54.8862 254.021 55.3975 252.607 55.9087 251.193L57.4425 246.951C57.7604 246.072 58.1032 245.192 58.4398 244.328L58.4409 244.325L58.4424 244.321C58.6462 243.798 58.8477 243.281 59.0402 242.773L59.871 240.652L60.7657 238.531C61.0533 237.824 61.3409 237.133 61.6285 236.442L61.6297 236.439C61.9169 235.749 62.2041 235.059 62.4913 234.353C62.7791 233.716 63.0541 233.092 63.3277 232.469C67.9059 249.044 73.5742 265.478 80.3216 281.723C96.8737 321.574 119.944 360.331 148.895 397.032C198.04 459.378 246.674 493.701 248.719 495.115ZM417.538 101.823C417.402 101.4 417.267 100.971 417.129 100.537L417.129 100.535C416.619 98.9226 416.083 97.2309 415.429 95.4595C415.156 94.7413 414.883 93.9954 414.603 93.2308L414.602 93.2267C414.031 91.6659 413.431 90.0276 412.745 88.3892C412.236 87.1724 411.726 85.8917 411.217 84.6107L411.214 84.6036L411.211 84.5964C410.636 83.3111 410.061 82.0258 409.486 80.6763C409.327 80.324 409.183 79.9875 409.04 79.6512L409.039 79.6485L409.037 79.6442L409.034 79.6375C408.892 79.3035 408.749 78.9694 408.591 78.6195C408.431 78.1781 408.222 77.7618 408.009 77.3392L408.009 77.3384L408.007 77.3342L408.006 77.3329C407.879 77.0807 407.751 76.8262 407.632 76.5627C406.994 75.2147 406.292 73.8025 405.59 72.3902L405.587 72.3849C402.648 66.793 399.133 60.8797 394.915 55.0307C390.697 49.1817 385.648 43.397 379.705 38.1265C373.825 32.7917 366.859 28.1639 358.999 24.436C358.551 24.179 358.04 23.9861 357.529 23.7933C357.273 23.6969 357.017 23.5843 356.762 23.4719C356.506 23.3595 356.25 23.2469 355.995 23.1505C355.739 23.0541 355.484 22.9416 355.228 22.8292L355.227 22.8287C354.972 22.7164 354.716 22.6041 354.461 22.5078C353.95 22.2935 353.439 22.1007 352.927 21.9293L352.925 21.9285C351.903 21.5431 350.881 21.1577 349.796 20.7724C348.688 20.4296 347.602 20.1082 346.537 19.8082C345.623 19.538 344.664 19.3132 343.736 19.0956L343.73 19.0941C343.556 19.0535 343.384 19.0131 343.213 18.9727C342.803 18.881 342.401 18.7812 342.002 18.6819L342 18.6816C341.279 18.5026 340.566 18.3254 339.826 18.2014C339.251 18.105 338.676 17.9925 338.101 17.88L338.1 17.8798C337.525 17.7674 336.95 17.655 336.375 17.5586C335.8 17.4623 335.209 17.3819 334.618 17.3016C334.027 17.2212 333.435 17.1408 332.86 17.0444C323.402 15.8875 313.368 16.016 303.143 17.4301C302.291 17.5158 301.439 17.6586 300.587 17.8014C300.161 17.8729 299.735 17.9443 299.309 18.0086C298.701 18.1249 298.107 18.2282 297.52 18.3301L297.517 18.3306C296.808 18.4537 296.109 18.5751 295.41 18.7156C294.772 18.844 294.118 18.9723 293.464 19.1007L293.461 19.1012C292.806 19.2298 292.151 19.3583 291.512 19.4869C290.234 19.744 288.892 20.0653 287.614 20.3867C282.437 21.7365 277.197 23.2148 271.956 25.0788C271.637 25.1752 271.301 25.2877 270.966 25.4002C270.63 25.5126 270.295 25.6251 269.975 25.7215C269.272 25.9143 268.633 26.1714 267.994 26.4285C267.355 26.6855 266.7 26.9265 266.045 27.1675C265.39 27.4085 264.735 27.6498 264.096 27.9068C263.223 28.2708 262.35 28.6277 261.477 28.9846L261.476 28.9851L261.473 28.986C259.727 29.6999 257.981 30.4139 256.235 31.1849C254.248 32.0623 252.297 32.9768 250.328 33.9001L250.326 33.9007L250.325 33.9012L250.322 33.9028C249.696 34.196 249.069 34.4901 248.438 34.7842C247.097 35.4264 245.82 36.0686 244.543 36.7109L244.54 36.7125C243.901 37.0124 243.262 37.3338 242.622 37.6766C242.303 37.8372 241.983 38.0141 241.664 38.1908C241.344 38.3675 241.025 38.5443 240.705 38.705C240.268 38.9354 239.837 39.1589 239.411 39.3801L239.411 39.3805L239.409 39.3812L239.406 39.3832C238.526 39.8397 237.667 40.2862 236.807 40.7618C235.529 41.4474 234.251 42.1544 232.972 42.8828L229.138 45.0682C228.499 45.4538 227.86 45.8233 227.221 46.1928L227.22 46.1936C226.581 46.563 225.942 46.9323 225.303 47.3178C224.392 47.8909 223.48 48.4477 222.571 49.0026C220.932 50.0036 219.302 50.9991 217.698 52.0741C217.06 52.4916 216.437 52.893 215.815 53.2944L215.813 53.2955C215.19 53.6972 214.567 54.0988 213.928 54.5165C213.291 54.9332 212.669 55.3498 212.048 55.7664L212.043 55.7698C211.42 56.1876 210.796 56.6054 210.157 57.0232C209.552 57.4395 208.932 57.8717 208.311 58.3039L208.304 58.3087C207.681 58.7426 207.058 59.1764 206.451 59.5942C205.844 60.0441 205.22 60.4781 204.597 60.9119L204.596 60.9126C203.974 61.3462 203.351 61.7798 202.744 62.2295C202.025 62.7626 201.3 63.2958 200.572 63.8306L200.567 63.8342C198.841 65.1035 197.102 66.3823 195.395 67.6928C195.314 67.7536 195.234 67.8144 195.153 67.8753C195.095 67.9194 195.036 67.9635 194.978 68.0077L255.788 46.7393L418.082 103.503C417.909 102.943 417.724 102.383 417.538 101.823ZM167.675 381.029C125.879 327.874 76.2867 242.839 73.6665 136.464L255.74 72.8322L437.87 136.472C435.25 242.846 385.6 327.874 343.805 381.029C307.505 427.242 270.758 457.901 255.74 469.535C240.785 457.901 203.975 427.242 167.675 381.029Z" fill="white"/>
</g>
</svg>
