<svg xmlns="http://www.w3.org/2000/svg" width="1200" height="1200" style="shape-rendering:geometricPrecision;text-rendering:geometricPrecision;image-rendering:optimizeQuality;fill-rule:evenodd;clip-rule:evenodd"><path style="opacity:.999" fill="#0e8ce8" d="M108.5-.5h981c38.28 5.556 68.45 24.223 90.5 56 4.32 6.97 7.82 14.304 10.5 22H7.5c19.796-44.054 53.462-70.054 101-78z"/><path style="opacity:.998" fill="#0d8ae6" d="M7.5 77.5h1183c1.96 3.365 3.46 7.032 4.5 11 1.59 6.45 3.09 12.783 4.5 19v66h-347c-146.163-82.127-296.83-91.294-452-27.5a535.556 535.556 0 0 0-55 28.5 29915.3 29915.3 0 0 0-346-1v-66c1.765-10.125 4.432-20.125 8-30z"/><path style="opacity:.999" fill="#0d87e4" d="M-.5 173.5a29915.3 29915.3 0 0 1 346 1c-77.324 46.655-137.99 109.322-182 188a3363.58 3363.58 0 0 0-164-2v-187z"/><path style="opacity:.998" fill="#0d87e4" d="M852.5 173.5h347v187h-166c-44.4-77.84-104.734-140.174-181-187z"/><path style="opacity:.999" fill="#0c83e1" d="M-.5 360.5a3363.58 3363.58 0 0 1 164 2c-14.355 26.76-26.355 54.427-36 83-42.32-1.995-84.987-2.661-128-2v-83zM1033.5 360.5h166v83h-129c-9.84-28.695-22.18-56.362-37-83z"/><path style="opacity:.998" fill="#0b7fde" d="M-.5 443.5c43.013-.661 85.68.005 128 2-23.636 76.273-29.636 153.939-18 233H-.5v-235zM1070.5 443.5h129v235h-111c12.12-79.732 6.12-158.065-18-235z"/><path style="opacity:.993" fill="#0d87e4" d="M921.5 535.5a8237.473 8237.473 0 0 1-181 1 10030.471 10030.471 0 0 0-26-95l1.5-1a19352.1 19352.1 0 0 1 205.5 95zM457.5 536.5a8193.723 8193.723 0 0 1-181-1 13679.705 13679.705 0 0 1 207-95 7871.332 7871.332 0 0 1-26 96z"/><path style="opacity:.998" fill="#0c83e1" d="M276.5 535.5a8193.723 8193.723 0 0 0 181 1 20.69 20.69 0 0 0-1 5h285c.134-1.792-.199-3.458-1-5 60.405.329 120.738-.004 181-1a2186.81 2186.81 0 0 1 48 22c-247.166 1-494.499 1.333-742 1a1654.508 1654.508 0 0 1 49-23z"/><path style="opacity:.999" fill="#0b7fde" d="M969.5 557.5a2751.1 2751.1 0 0 1 90 42 727.823 727.823 0 0 1-46 22c-276.499-1-553.166-1.333-830-1-14.978-6.822-29.978-13.655-45-20.5a2693.89 2693.89 0 0 1 89-41.5c247.501.333 494.834 0 742-1z"/><path style="opacity:.998" fill="#0b7bdb" d="M183.5 620.5c276.834-.333 553.501 0 830 1a1475.769 1475.769 0 0 1-47 21c-245.499-1-491.166-1.333-737-1a720.53 720.53 0 0 1-46-21z"/><path style="opacity:.986" fill="#0a78d9" d="M229.5 641.5c245.834-.333 491.501 0 737 1a2528.805 2528.805 0 0 1-86 40c-48.098-.662-96.098-1.329-144-2a159.735 159.735 0 0 1 6-22.5c-95.335-.833-190.668-.667-286 .5a194.21 194.21 0 0 1 6 23 6837.01 6837.01 0 0 0-144 1 1796.131 1796.131 0 0 1-89-41z"/><path style="opacity:.998" fill="#0b7bdb" d="M-.5 678.5h110a577.952 577.952 0 0 0 20 80H-.5v-80zM1088.5 678.5h111v80h-130a581.728 581.728 0 0 0 19-80z"/><path style="opacity:.99" fill="#0a74d5" d="M462.5 681.5a2369.342 2369.342 0 0 1 18.5 66c1.324 3.946 1.991 7.946 2 12a37959.819 37959.819 0 0 1-164.5-77 6837.01 6837.01 0 0 1 144-1zM736.5 680.5c47.902.671 95.902 1.338 144 2a4600.064 4600.064 0 0 1-166 76c7.358-26.112 14.691-52.112 22-78z"/><path style="opacity:.998" fill="#0a78d8" d="M-.5 758.5h130c19.49 56.006 47.49 107.006 84 153H-.5v-153zM1069.5 758.5h130v153c-71.5.333-142.84-.001-214-1 36.28-45.872 64.28-96.539 84-152z"/><path style="opacity:.998" fill="#0a74d5" d="M985.5 910.5c71.16.999 142.5 1.333 214 1v161c-150.5.33-300.834 0-451-1 94.623-31.11 173.623-84.776 237-161zM-.5 911.5h214c63.52 75.951 142.52 129.28 237 160-150.166 1-300.499 1.33-451 1v-161z"/><path style="opacity:.999" fill="#0971d3" d="M450.5 1071.5c99.299 31.97 198.632 31.97 298 0 150.166 1 300.5 1.33 451 1v19c-2.88 19.31-9.88 36.97-21 53-385.834-.33-771.5 0-1157 1-8.521-11.38-14.688-24.05-18.5-38a222.077 222.077 0 0 0-3.5-16v-19c150.501.33 300.834 0 451-1z"/><path style="opacity:.999" fill="#096fd2" d="M1178.5 1144.5c-21.57 31.29-51.24 49.63-89 55h-980c-32.597-4.55-59.763-19.22-81.5-44a32.28 32.28 0 0 1-6.5-10c385.5-1 771.166-1.33 1157-1z"/></svg>