<svg xmlns="http://www.w3.org/2000/svg" viewBox="0 0 90 90"><path fill="#1389d2" d="M39.62.32a45.06 45.06 0 0128.4 6 45.16 45.16 0 0119.26 23.24 45.25 45.25 0 01-.64 32.55 45.19 45.19 0 01-20.3 22.52 45.03 45.03 0 01-57.26-12.5A44.85 44.85 0 010 44.62 44.97 44.97 0 0139.62.32M32.2 11.57a35.98 35.98 0 00-18.96 16.92 35.8 35.8 0 0031.37 52.3l-.07-7.03c-.05-1.95-1.9-3.34-3.67-3.63-.05 1.75 0 3.9-1.52 5.08-1.46 1.01-3.42 1-5.07.55-1.67-.47-2.6-2.22-2.65-3.88-.1-2.51-.01-5.03-.04-7.55h-2.01v-6.59h2.01V55.5c-.86-.3-1.86-.64-2.2-1.58-.87-2.05.2-4.36-.64-6.44-.85-2.18-1.7-4.59-.9-6.93a4.2 4.2 0 013.74-2.83V23.44a8.45 8.45 0 013-6.7c2.3-1.83 5.33-2.3 8.17-2.28 6.33 0 12.52 3.02 16.6 7.86v3.42h-17a.96.96 0 00-1.09 1.09l-.02 10.94c1.05 0 2.1.01 3.14-.03.18-.73.37-1.46.58-2.17l13.82 3.42-.45 1.61-1.22.47-.4 37.77a36.05 36.05 0 0022.72-24.09A35.9 35.9 0 0077.01 29a35.97 35.97 0 00-18.91-17.3 35.89 35.89 0 00-25.9-.12m8.65 44.04v2.12h1.87v6.6h-1.87v2h3.68l-.08-10.72h-3.6z"/></svg>
