<svg xmlns="http://www.w3.org/2000/svg" viewBox="0 0 476.405 500">
  <path fill="#512fc9" d="M285.847 4.788a10.008 10.008 0 0 1 4.933 2.256 10.198 10.198 0 0 1 3.069 4.514l.35 1.292 12.015 62.456a188.065 188.065 0 0 1 45.032 25.083l5.04 3.958 60.667-20.979c3.908-1.708 8.085-.479 11.027 2.917 20.86 23.687 37.81 52.269 47.644 82.289a9.096 9.096 0 0 1 .623 5.338 9.035 9.035 0 0 1-2.494 4.745l-1.07.895-48.138 41.458c1.727 9.27 2.22 19.29 2.22 29.04 0 7.854-.327 15.812-1.336 23.415l-.884 5.647 48.138 41.499a8.956 8.956 0 0 1 3.413 4.956 9.051 9.051 0 0 1-.472 6.022c-9.811 30.041-26.742 58.581-47.623 82.247-2.634 3.041-6.213 4.354-9.731 3.396l-1.317-.458-60.646-21c-13.31 10.855-28.184 19.791-44.066 26.583l-6.007 2.459-12.035 62.497a10.294 10.294 0 0 1-2.93 5.355 10.08 10.08 0 0 1-5.422 2.707C270.13 498.292 254.413 500 238.223 500c-16.21 0-31.928-1.708-47.645-4.625a10.053 10.053 0 0 1-4.94-2.256 10.248 10.248 0 0 1-3.084-4.514l-.328-1.292-12.015-62.497a181.892 181.892 0 0 1-45.67-25.437l-4.422-3.605-60.647 21c-3.91 1.708-8.085.478-11.047-2.938C27.544 390.17 10.613 361.63.8 331.589a9.123 9.123 0 0 1-.617-5.337 9.056 9.056 0 0 1 2.489-4.746l1.07-.895 48.118-41.499a161.836 161.836 0 0 1-2.222-29.062c0-7.792.309-15.77 1.317-23.395l.905-5.625-48.14-41.478a8.95 8.95 0 0 1-3.411-4.956 9.057 9.057 0 0 1 .47-6.022c9.813-30.02 26.744-58.602 47.625-82.289a9.587 9.587 0 0 1 4.38-3.121 9.467 9.467 0 0 1 5.35-.254l1.338.438 60.647 20.978a175.835 175.835 0 0 1 44.64-26.832l5.452-2.209 12.015-62.456a10.248 10.248 0 0 1 2.923-5.361 10.033 10.033 0 0 1 5.429-2.701 240.279 240.279 0 0 1 95.249 0l.02.021Zm-47.645 98.934c-79.985 0-144.745 65.497-144.745 146.286 0 80.79 64.802 146.287 144.745 146.287 79.944 0 144.745-65.497 144.745-146.287 0-80.789-64.801-146.286-144.765-146.286h.02Zm91.608 125.954v-43.54H146.595v43.54h69.8v104.58h43.614v-104.58h69.8Z"/>
</svg>
