<svg width="500" height="500" viewBox="0 0 500 500" fill="none" xmlns="http://www.w3.org/2000/svg">
<g clip-path="url(#clip0_154_102)">
<path fill-rule="evenodd" clip-rule="evenodd" d="M297.647 4.78775C299.464 5.07025 301.17 5.85037 302.58 7.04373C303.991 8.23707 305.052 9.79823 305.649 11.5583L305.999 12.85L318.014 75.3062C334.084 81.5487 349.235 89.9877 363.046 100.389L368.086 104.347L428.753 83.3683C432.661 81.6601 436.838 82.8893 439.78 86.285C460.64 109.972 477.591 138.554 487.424 168.574C488.164 170.248 488.382 172.11 488.047 173.912C487.713 175.714 486.842 177.369 485.553 178.657L484.483 179.552L436.345 221.01C438.072 230.28 438.566 240.3 438.566 250.05C438.566 257.904 438.238 265.862 437.229 273.465L436.345 279.112L484.483 320.611C486.153 321.812 487.359 323.564 487.896 325.567C488.433 327.568 488.266 329.698 487.424 331.589C477.613 361.63 460.682 390.17 439.801 413.836C437.167 416.877 433.588 418.19 430.07 417.232L428.753 416.774L368.107 395.774C354.797 406.629 339.923 415.565 324.041 422.357L318.034 424.816L305.999 487.313C305.584 489.358 304.561 491.226 303.069 492.668C301.577 494.108 299.685 495.052 297.647 495.375C281.93 498.292 266.213 500 250.023 500C233.813 500 218.095 498.292 202.378 495.375C200.559 495.092 198.851 494.312 197.438 493.119C196.023 491.926 194.958 490.366 194.354 488.605L194.026 487.313L182.011 424.816C165.665 418.593 150.284 410.026 136.341 399.379L131.919 395.774L71.2717 416.774C67.363 418.482 63.187 417.252 60.2246 413.836C39.3439 390.17 22.4131 361.63 12.6001 331.589C11.8637 329.914 11.6483 328.054 11.9828 326.252C12.3172 324.45 13.1856 322.795 14.4722 321.506L15.542 320.611L63.6601 279.112C62.0471 269.513 61.3034 259.786 61.4383 250.05C61.4383 242.258 61.7469 234.28 62.755 226.655L63.6601 221.03L15.5214 179.552C13.8514 178.351 12.6452 176.599 12.1087 174.596C11.5722 172.594 11.7386 170.465 12.5796 168.574C22.3925 138.554 39.3233 109.972 60.204 86.285C61.3417 84.8444 62.8613 83.7618 64.5845 83.1642C66.3078 82.5664 68.1636 82.4783 69.9346 82.9101L71.2717 83.3475L131.919 104.326C145.41 93.2005 160.453 84.1583 176.56 77.4936L182.011 75.2854L194.026 12.8292C194.435 10.7811 195.457 8.9099 196.949 7.46812C198.444 6.02634 200.338 5.08349 202.378 4.76692C233.817 -1.58897 266.188 -1.58897 297.627 4.76692L297.647 4.78775ZM250.002 103.722C170.017 103.722 105.257 169.219 105.257 250.008C105.257 330.798 170.059 396.295 250.002 396.295C329.946 396.295 394.747 330.798 394.747 250.008C394.747 169.219 329.946 103.722 249.982 103.722H250.002ZM341.61 229.676V186.136H158.395V229.676H228.196V334.256H271.809V229.676H341.61Z" fill="#512FC9"/>
</g>
<defs>
<clipPath id="clip0_154_102">
<rect width="500" height="500" fill="white"/>
</clipPath>
</defs>
</svg>
