<?xml version="1.0" encoding="UTF-8"?>
<svg version="1.1" xmlns="http://www.w3.org/2000/svg" width="800" height="800">
<path d="M0 0 C4.21768717 1.89756798 6.56665734 4.73204983 9.375 8.3125 C9.89320313 8.96911621 10.41140625 9.62573242 10.9453125 10.30224609 C54.46254214 66.42134016 77.57426382 135.26732763 77.3125 206.125 C77.30976578 207.66938248 77.30976578 207.66938248 77.30697632 209.2449646 C77.2600369 225.02838251 76.67129249 240.41268255 74 256 C73.82839355 257.05268066 73.65678711 258.10536133 73.47998047 259.18994141 C64.98569463 310.46688587 44.01067466 361.55347371 11 402 C10.26523437 402.92554688 9.53046875 403.85109375 8.7734375 404.8046875 C3.57273429 411.29178374 -1.96893741 417.42472818 -7.62695312 423.50927734 C-9.84409058 425.91643263 -12.00917897 428.3702413 -14.1875 430.8125 C-17.60339088 434.57266964 -21.09378262 438.02647913 -24.984375 441.2890625 C-26.35943988 442.45626874 -27.70265124 443.66179942 -29.015625 444.8984375 C-71.40239544 484.76571459 -142.15867033 521.15545955 -201.0625 522.5625 C-212.85110761 521.90186819 -220.74774232 517.71644555 -228.75 509.1875 C-237.37437918 498.92882066 -238.00300092 486.85316177 -237 474 C-234.71135381 462.04646281 -224.24426968 453.07537652 -215.89453125 444.91015625 C-215.16220779 444.19342239 -214.42988434 443.47668854 -213.67536926 442.73823547 C-210.62148189 439.75777224 -207.56273992 436.78284047 -204.48461914 433.82739258 C-188.28300041 418.41809157 -188.28300041 418.41809157 -182.75 397.3125 C-182.90358827 386.96065027 -186.81567066 378.53432625 -193.8515625 371.0234375 C-202.22952875 363.17952488 -211.28187838 360.60037098 -222.55078125 360.7265625 C-238.08890917 361.95835067 -248.1345835 373.84521794 -258.46118164 384.28173828 C-259.69043522 385.51647718 -260.92015941 386.75074772 -262.15031433 387.98458862 C-264.78363501 390.62756821 -267.41386238 393.27357364 -270.0417347 395.92197037 C-274.20147171 400.11370264 -278.369519 404.29710577 -282.53892517 408.47921753 C-292.88932513 418.86359365 -303.23030476 429.25733685 -313.56646729 439.65588379 C-321.61036351 447.74828884 -329.65746146 455.83744498 -337.71517271 463.91609752 C-341.85649914 468.06891357 -345.99079706 472.22856195 -350.11987889 476.39355111 C-352.69287195 478.98579382 -355.27215537 481.57170682 -357.8531971 484.15593338 C-359.04419038 485.35093047 -360.23261023 486.54849905 -361.41817856 487.74887848 C-371.77496152 498.23031073 -381.13176052 505.95964218 -396.5 506.375 C-408.75400227 506.02981684 -417.86764726 501.58509547 -426.3125 492.75 C-432.81866621 485.07738965 -435.41102867 475.83491222 -435.27734375 465.8828125 C-433.88415328 451.40148062 -426.04745213 442.73624153 -416.15420532 432.91369629 C-415.27519857 432.03298069 -414.39619181 431.15226508 -413.49054849 430.24486113 C-411.06775205 427.81935369 -408.64058287 425.39838279 -406.21140647 422.97927523 C-403.58617134 420.36271715 -400.9667599 417.74033999 -398.34661865 415.11868286 C-393.8122395 410.58325754 -389.27422744 406.051494 -384.73369217 401.52223206 C-378.16893388 394.97376222 -371.60973778 388.41974409 -365.05186443 381.8643803 C-354.41072035 371.22760808 -343.76512225 360.59530525 -333.11669922 349.96582031 C-322.77580789 339.64330097 -312.43702961 329.31867274 -302.10107422 318.99121094 C-301.46343351 318.35409567 -300.82579279 317.71698041 -300.16882963 317.06055862 C-296.96982776 313.86416691 -293.77086725 310.66773379 -290.57192731 307.4712801 C-264.05436233 280.97443176 -237.52955858 254.48483966 -211 228 C-208.94012891 231.88514425 -207.98196015 235.81834473 -207.02880859 240.08569336 C-206.8431987 240.89754593 -206.65758881 241.7093985 -206.46635437 242.54585266 C-205.85512955 245.22601964 -205.2515385 247.90783797 -204.6484375 250.58984375 C-204.22561129 252.45551744 -203.80248075 254.32112218 -203.37905884 256.18666077 C-202.49311761 260.09560415 -201.61096679 264.00537881 -200.73144531 267.91577148 C-199.60433561 272.92547561 -198.4677283 277.93296776 -197.32825279 282.93987179 C-196.45277247 286.79172505 -195.58241074 290.64472099 -194.71358109 294.4980793 C-194.29653396 296.34480294 -193.87788135 298.19116478 -193.45759201 300.03715324 C-192.87065004 302.61859786 -192.29063399 305.20150453 -191.71240234 307.78491211 C-191.5378804 308.54611359 -191.36335846 309.30731506 -191.18354797 310.09158325 C-190.36378241 313.78824605 -189.7957735 317.20923117 -190 321 C-189.55043442 320.58682022 -189.10086884 320.17364044 -188.63768005 319.74794006 C-184.83984024 316.33382498 -180.9686732 313.19852255 -176.79321289 310.25561523 C-170.27822511 305.62395418 -164.08936771 300.68119892 -158.0625 295.4375 C-157.5141814 294.96099503 -156.96586281 294.48449005 -156.4009285 293.99354553 C-142.54197131 281.74563409 -133.86867064 269.74138863 -132.4379425 250.91786194 C-131.72047576 237.29006186 -132.2434055 223.77061372 -133.19750977 210.16967773 C-133.25611427 209.24167264 -133.31471878 208.31366755 -133.37509918 207.35754108 C-133.65552224 202.93644419 -134.00524791 198.55535404 -134.53890991 194.15730286 C-135.60339432 183.20718856 -135.60339432 183.20718856 -132.71217728 179.22721863 C-129.43932474 175.93812662 -125.73016867 173.46716022 -121.76223946 171.09511566 C-119.1426377 169.46720584 -116.80731596 167.52985708 -114.4375 165.5625 C-113.56351563 164.84449219 -112.68953125 164.12648438 -111.7890625 163.38671875 C-108.02242646 160.16344897 -104.38117911 156.81505996 -100.76538086 153.42407227 C-97.9498099 150.78405249 -95.09720116 148.20974311 -92.171875 145.69140625 C-87.56196528 141.6773352 -83.24730845 137.39424132 -78.9375 133.0625 C-78.17373047 132.30259766 -77.40996094 131.54269531 -76.62304688 130.75976562 C-71.87467929 126.00327423 -67.36415455 121.10976848 -63 116 C-62.11096954 114.97891196 -61.22166794 113.9580599 -60.33203125 112.9375 C-32.27674036 80.22807559 -8.93497138 42.6029795 0 0 Z " fill="#1A97F1" transform="translate(645,196)"/>
<path d="M0 0 C-0.33 0.66 -0.66 1.32 -1 2 C-3.74664758 2.78737231 -6.4706178 3.4742205 -9.25 4.125 C-49.5012063 14.22310295 -85.4416051 37.40356613 -116 65 C-116.86874756 65.78262207 -117.73749512 66.56524414 -118.63256836 67.37158203 C-125.6285771 73.70909214 -132.41796412 80.23163665 -139.09204102 86.90673828 C-140.69204519 88.50453893 -142.29993615 90.09411551 -143.90820312 91.68359375 C-149.66363475 97.40855411 -155.03691263 103.23405358 -160.07958984 109.60595703 C-161.95488216 111.9437547 -163.91337149 114.16568869 -165.9375 116.375 C-170.24826373 121.15508075 -174.11276046 126.2479848 -177.99609375 131.375 C-180 134 -180 134 -181 135 C-182.76401922 135.11818618 -184.53270108 135.16737215 -186.30053711 135.18945312 C-188.00644264 135.21452942 -188.00644264 135.21452942 -189.74681091 135.2401123 C-191.61817467 135.26047546 -191.61817467 135.26047546 -193.52734375 135.28125 C-195.5022494 135.30941441 -197.477155 135.3375826 -199.45205784 135.36594391 C-202.24481813 135.40489106 -205.03762577 135.43946371 -207.83044434 135.47393799 C-210.57340211 135.50786542 -213.31634476 135.54279331 -216.05927277 135.57904911 C-217.40620122 135.59665861 -218.75314082 135.61343536 -220.10009003 135.62937832 C-223.47720813 135.67166267 -226.85199198 135.73402432 -230.22790527 135.83473206 C-236.48909888 136.00910137 -242.58198067 136.01643654 -248.81640625 135.32006836 C-259.22938658 134.41077137 -266.83758747 135.29970788 -274.98901367 142.04931641 C-281.93050601 148.09086698 -288.16175383 154.8453403 -294.35406494 161.63745117 C-297.33129229 164.87376861 -300.38362323 168.03762214 -303.4296875 171.20898438 C-309.36072311 177.4055187 -315.20585901 183.67528205 -321 190 C-316.71306698 191.89519693 -312.32623622 192.94621271 -307.76904297 193.95532227 C-306.95383179 194.13932587 -306.13862061 194.32332947 -305.29870605 194.51290894 C-302.61404766 195.11791594 -299.92812882 195.71712307 -297.2421875 196.31640625 C-295.37312853 196.73673118 -293.50416208 197.15746769 -291.63528442 197.57859802 C-286.72176023 198.6848572 -281.80719427 199.78641264 -276.89233398 200.88671875 C-269.01823376 202.65025216 -261.14563978 204.42049042 -253.27322769 206.19154167 C-250.52209876 206.80968557 -247.77047142 207.42557075 -245.01876831 208.04115295 C-243.33655557 208.41873646 -241.6543548 208.79637332 -239.97216797 209.17407227 C-239.20534698 209.34499893 -238.438526 209.5159256 -237.64846802 209.69203186 C-234.71130022 210.3529934 -231.85846507 211.04717831 -229 212 C-230.59861905 215.94379879 -233.3229673 218.61389065 -236.28488159 221.56576538 C-236.82940322 222.11622925 -237.37392485 222.66669313 -237.93494713 223.23383772 C-239.76160162 225.07784061 -241.595345 226.91462395 -243.42919922 228.75146484 C-244.74044356 230.07196771 -246.05129102 231.39286479 -247.36177063 232.71412659 C-250.92540917 236.30400474 -254.49569986 239.88719322 -258.06803656 243.46841383 C-260.30194993 245.70819274 -262.53468567 247.94913909 -264.76706314 250.19044876 C-271.75810043 257.20883973 -278.75313839 264.22320662 -285.75400436 271.23179376 C-293.82327589 279.31001444 -301.87933315 287.40110976 -309.92402065 295.50381124 C-316.14964542 301.77275989 -322.3868403 308.03004322 -328.63282979 314.27870142 C-332.35948766 318.0074498 -336.0811839 321.74084063 -339.79092026 325.48643112 C-343.2857935 329.01442012 -346.79490516 332.52761432 -350.31509972 336.03033257 C-351.59891664 337.31261668 -352.87769662 338.59996859 -354.15077019 339.89291954 C-364.5029542 350.39707974 -374.26191914 357.98304341 -389.625 358.3125 C-401.25057829 358.20305418 -409.60597435 354.07956537 -417.90625 346.1875 C-425.35687465 338.35803003 -428.42105795 328.58153631 -428.27734375 317.8828125 C-426.83523428 302.89299853 -418.53772947 294.21810277 -408.21875 284.1640625 C-406.7947297 282.7588668 -405.37072157 281.35365853 -403.94741058 279.94774437 C-400.47224552 276.51805783 -396.9862358 273.09946303 -393.49462891 269.68652344 C-391.52567793 267.76109538 -389.56239943 265.83018215 -387.60461426 263.8934021 C-385.77226379 262.08151099 -383.93179587 260.27777868 -382.08190918 258.48379517 C-372.91897424 249.3944788 -366.08937585 239.31389217 -365.5625 226.125 C-365.82942927 216.15964064 -369.72842272 207.8648519 -376.25 200.4375 C-384.73640429 192.91545984 -393.63815411 189.3620296 -405.01953125 189.72265625 C-423.11125276 191.40615851 -434.35497572 206.07906048 -446.19848633 218.33544922 C-448.2811664 220.48492636 -450.37628592 222.62169766 -452.47265625 224.7578125 C-453.09479507 225.41000763 -453.7169339 226.06220276 -454.35792542 226.73416138 C-462.5463945 235.05717465 -472.57999119 239.75380091 -484.33984375 240.09765625 C-491.30505262 239.76443155 -496.93729172 238.43965899 -503 235 C-504.010625 234.443125 -505.02125 233.88625 -506.0625 233.3125 C-514.15578098 226.9411937 -519.92276938 219.19731396 -522 209 C-526.03162405 174.34844649 -507.76118645 132.77362101 -493 102 C-492.5982959 101.16243164 -492.1965918 100.32486328 -491.78271484 99.46191406 C-482.129745 79.62371136 -469.88634971 61.13059425 -456 44 C-455.30261719 43.11183594 -454.60523438 42.22367187 -453.88671875 41.30859375 C-442.35969269 26.83132336 -429.21166962 12.86605425 -415 1 C-414.47760742 0.55849609 -413.95521484 0.11699219 -413.41699219 -0.33789062 C-396.16624651 -14.87385855 -377.88323555 -27.34293527 -358 -38 C-357.12649902 -38.47034668 -356.25299805 -38.94069336 -355.35302734 -39.42529297 C-268.56250688 -85.68695585 -160.46958705 -88.22497253 0 0 Z " fill="#1A99F1" transform="translate(610,159)"/>
<path d="M0 0 C7.73482719 7.22021167 11.66912628 17.59260029 12.125 28.0625 C11.52667159 45.68825775 0.82837235 55.98291697 -10.88183594 67.68994141 C-12.68757308 69.50007326 -14.47665657 71.3256561 -16.265625 73.15234375 C-22.11996891 79.06309568 -27.54208029 84.42399619 -35.3125 87.75 C-36.199375 88.1625 -37.08625 88.575 -38 89 C-48.53022733 92.41520886 -58.20771528 90.86628921 -68.3125 86.75 C-71.35414691 85.07097008 -73.79935722 83.14042031 -76.3125 80.75 C-77.01246094 80.09 -77.71242188 79.43 -78.43359375 78.75 C-86.68765853 70.26875913 -88.90663087 61.50747963 -88.79003906 49.96362305 C-88.29539124 37.58770136 -81.91856148 29.05714499 -73.4921875 20.55859375 C-72.83348663 19.89086441 -72.17478577 19.22313507 -71.49612427 18.53517151 C-70.10528177 17.12987894 -68.71166055 15.72733167 -67.31542969 14.32739258 C-65.20254307 12.20262764 -63.1090646 10.05992031 -61.015625 7.91601562 C-43.40689325 -9.90814704 -21.56031451 -17.33674544 0 0 Z " fill="#1376EA" transform="translate(166.3125,531.25)"/>
<path d="M0 0 C7.33002523 5.34277395 12.0291576 10.75899907 14.75 19.375 C15.75688401 29.94728206 14.66194384 38.62412834 7.8828125 47.140625 C0.86737166 54.0687367 -6.62637823 56.28685721 -16.2409668 56.23999023 C-25.86650068 56.04690145 -30.82901878 53.07866724 -37.79296875 46.45703125 C-43.32155855 40.30219411 -45.08794877 33.16667118 -45 25 C-44.39191547 16.59032027 -41.24950852 10.02122914 -35.109375 4.2109375 C-25.19566848 -3.71222165 -11.55380028 -6.39404709 0 0 Z " fill="#20B6F8" transform="translate(571,223)"/>
</svg>
