<svg width="1606" height="1005.0000000000001" xmlns="http://www.w3.org/2000/svg" class="icon">

 <g>
  <title>background</title>
  <rect fill="none" id="canvas_background" height="1007" width="1608" y="-1" x="-1"/>
 </g>
 <g>
  <title>Layer 1</title>
  <path id="svg_4" class="selected" fill="#F3A22F" d="m1332.2,333.8c-12.8,-108.8 -108.8,-185.6 -217.6,-185.6c-25.6,0 -57.6,6.4 -83.2,12.8c-70.4,-83.2 -179.2,-134.4 -288,-134.4c-147.2,0 -275.2,83.2 -339.2,211.2l-19.2,0c-198.4,0 -358.4,153.6 -364.8,352s153.6,358.4 352,364.8l467.2,0c38.4,0 70.4,-32 70.4,-70.4c0,-38.4 -32,-70.4 -70.4,-70.4l-435.2,0l-6.4,0c-115.2,0 -211.2,-89.6 -211.2,-204.8c0,-108.8 83.2,-198.4 192,-211.2c19.2,0 44.8,0 64,6.4l6.4,0l44.8,12.8c12.8,-128 121.6,-230.4 256,-230.4c89.6,0 172.8,51.2 217.6,128c6.4,12.8 6.4,19.2 12.8,32l12.8,-12.8c32,-25.6 76.8,-32 115.2,-25.6l0,-6.4c64,6.4 108.8,57.6 108.8,121.6c0,19.2 -6.4,38.4 -12.8,57.6c19.2,12.8 32,25.6 57.6,32c12.8,-12.8 25.6,-19.2 32,-32c102.4,6.4 179.2,96 172.8,198.4c-6.4,96 -89.6,172.8 -192,172.8c-76.8,0 -153.6,-51.2 -179.2,-128l76.8,0c12.8,0 19.2,-6.4 19.2,-19.2c0,-6.4 0,-6.4 -6.4,-12.8l-153.6,-204.8c-6.4,-6.4 -19.2,-12.8 -32,-6.4l-6.4,6.4l-153.6,204.8c-6.4,6.4 -6.4,25.6 6.4,32c6.4,0 6.4,6.4 12.8,6.4l89.6,0c32,179.2 204.8,300.8 384,268.8s300.8,-204.8 268.8,-384c-25.6,-153.6 -134.4,-256 -268.8,-281.6z"/>
 </g>
</svg>