<svg xmlns="http://www.w3.org/2000/svg" viewBox="0 0 24 24"><path fill="#25f4ee" d="M9.844 20.069a3.323 3.323 0 0 0 2.295-.945c.616-.6.98-1.418 1.018-2.282l.008-15.815h2.843L16 .992A5.541 5.541 0 0 1 15.913 0h-3.92v15.846a3.342 3.342 0 0 1-.465 1.59 3.3 3.3 0 0 1-1.17 1.165 3.26 3.26 0 0 1-3.18.062c.302.43.702.782 1.166 1.027.463.244.978.374 1.5.379zM21.355 6.442v-.944a5.373 5.373 0 0 1-2.97-.896c.765.883 1.797 1.577 2.97 1.84z"/><g fill="#fe2c55" stroke-width="2"><path d="M18.386 4.602a5.507 5.507 0 0 1-1.34-3.606h-1.075c.14.734.427 1.432.842 2.052.415.62.95 1.149 1.573 1.554zM8.703 12.359a3.278 3.278 0 0 0-2.05.704c-.584.46-.999 1.107-1.175 1.835a3.362 3.362 0 0 0 .204 2.177 3.317 3.317 0 0 0 1.495 1.58 3.334 3.334 0 0 1-.013-3.89 3.28 3.28 0 0 1 1.633-1.21 3.247 3.247 0 0 1 2.025-.009V9.51a7.175 7.175 0 0 0-.971-.071h-.197v3.049a3.004 3.004 0 0 0-.951-.13z"/><path d="M21.355 6.375h-.021l-.01 3.044a9.23 9.23 0 0 1-5.437-1.781v8.08a7.34 7.34 0 0 1-1.054 3.755 7.241 7.241 0 0 1-2.822 2.667 7.151 7.151 0 0 1-7.432-.463 7.183 7.183 0 0 0 3.678 2.142 7.132 7.132 0 0 0 4.233-.323 7.212 7.212 0 0 0 3.316-2.676 7.324 7.324 0 0 0 1.248-4.099V8.678a9.254 9.254 0 0 0 5.446 1.768V6.498c-.385 0-.769-.041-1.146-.123z"/></g><path d="M15.913 15.714V7.68a9.249 9.249 0 0 0 5.446 1.768V6.375a5.444 5.444 0 0 1-2.973-1.773c-.62-.407-1.15-.936-1.56-1.556s-.692-1.318-.828-2.05h-2.863V16.84a3.338 3.338 0 0 1-.681 1.907c-.418.548-.996.95-1.652 1.15-.656.2-1.358.188-2.007-.035a3.287 3.287 0 0 1-1.611-1.208 3.309 3.309 0 0 1-1.473-1.577 3.353 3.353 0 0 1-.196-2.16 3.326 3.326 0 0 1 1.165-1.822 3.268 3.268 0 0 1 2.03-.707c.329.001.656.053.97.154v-3.1a7.149 7.149 0 0 0-3.884 1.259A7.255 7.255 0 0 0 3.21 13.89c-.539 1.292-.696 2.714-.453 4.095s.876 2.66 1.823 3.686a7.138 7.138 0 0 0 7.457.497 7.227 7.227 0 0 0 2.831-2.679 7.325 7.325 0 0 0 1.044-3.775z"/><path fill="#25f4ee" d="M9.674 9.484v-.976a7.14 7.14 0 0 0-4.62.934 7.253 7.253 0 0 0-3.059 3.62 7.341 7.341 0 0 0-.186 4.757 7.268 7.268 0 0 0 2.765 3.853l-.1-.11a7.31 7.31 0 0 1-1.704-3.678c-.212-1.364-.034-2.76.51-4.027s1.437-2.35 2.569-3.124a7.157 7.157 0 0 1 3.825-1.249z"/></svg>