<?xml version="1.0" encoding="utf-8"?>
<svg viewBox="0 0 96 96" xmlns="http://www.w3.org/2000/svg">
  <ellipse style="" cx="48.075" cy="47.848" rx="47.823" ry="47.698"/>
  <path d="M53.6 47.5zm-16.8.6c2.4 0 5.2 2.9 7.8 3.3 1.7.3 5.4.5 9-3.9-9.8 2.6-9.6-3.3-15.7-2.2 4.9.4 4.7 3.7 9.9 4.4-4.5 1.8-8.7-5.8-14.4-2.2-4 2.4-7 .2-7 .2 1.8 3.2 4.8 2.5 4.8 2.5s-4 1.6-.5 7.6c1.9 3.2.2 3.7-1.7 3.3 0 0 2.3 1.6 3.6.7 2.8-1.7-1.3-7.1-1.3-7.1 4.9 2.9 3.1 7.9 1.8 8.4 4.2-.9 2.8-5.3 1.9-7.2-.8-1.7-.7-4.5 2.7-5.9-3.7-.3-5.2 3.8-5.2 3.8-.4-1.9.2-3.3.4-3.7.8-1.4 2.4-2 3.9-2zm16.8-.6zm0 0z" fill="#ffffff"/>
  <path d="M75.3 42c0-1.1-.2-2.1-.3-3.2-.2-1.9-.4-3.3-1.1-4.3 0 0-4.7-.7-9 2.6-2.1 1.6-3.7 3.7-5.2 5.8-1.6 2.2-2.2 4.1-2.4 6.9-.2 2.4-.6 4.8-1.8 6.9-1.4 2.4-4 3.2-6.7 3.3-.7 0-3.6-.2-2.6-1.8.3-.5.8-1.3.7-1.9-.1-.4-.4-.7-.7-1-.6-.7-1.7-2.2-2.6-1.1-.5.7-.8 2.6-2 2.3-.4-.1-.6-.5-.7-.9-.2-.6-.3-1.2-.3-1.8 0-.6-.1-1.2 0-1.8 0-.2-.1-.5-.3-.5-.4-.1-.5.3-.6.6-.6 1.3-.7 2.9-.1 4.3.3.7.7 1.4 1.3 2 .2.2.5.4.6.6.1.5-.2.7-.7.7-.6-.1-1-.6-1.4-1-.6-.7-1-1.4-1.2-2.3-.2-.6-.2-1.3-.2-2 .1-1.2.3-2.2.4-2.9 0-.1-.1-.2-.3-.1-1.2.6-1.5 2.3-1.5 3.5 0 1.5.5 3 1.3 4.3.6 1 1.4 2.5 2.8 2.6.8 0 1.4-.4 1.9-.9.1-.1.4-.4.6-.2.1.1.2.4.2.5 0 .7-.5 1.3-.9 1.9-.7 1-1.2 2.1-1.5 3.2-.2.7-1.1.8-1.4.2-.5-1-1-2-1.3-3-.1-.2-.8-2.6-1-2.5-.1.1-.1.3-.1.4 0 .3-.1.5-.2.8-.2.5-.5 1-.9 1.4-.7.8-1.5 1.5-2 2.4-.5.8-.8 1.7-1 2.7-.2 1-.3 2-.5 2.9-.7 3.1-2 7.8-3.2 10.7-.8 1.9-1.3 2.2.4 2.9l2.4 1.2c5.1 2.2 10.5 3.3 16.1 3.3 3.7 0 7.4-.5 10.9-1.4 1.1-.3 1.8-.6 1.5-1.7-.7-2.6-1.6-5.9-1.6-6.2-.5-2.9-1.1-4.2-3.1-5.6-1-.8-1.6-1.3-2.2-1.8-.5-.5-1.5-1.4-1.5-1.9 0-.1.1-.2.3-.2.5-.1 1.7.7 2.1.8 4.1 1.8 8.5 2.7 12.9 2.7 1.5 0 2.9.2 3.8-1.2.7-1 .7-2.5.1-3.6-.2-1.2.1-1.7.9-2.5.5-.5 1-1.1.7-1.8-.1-.3-.4-.6-.8-.6-.3 0-2.5.3-3.1.3-.2 0-.7 0-.8-.3-.1-.2.1-.6.2-.7.2-.2.4-.3.6-.3.1 0 .3.1.4.1.6.2 1.5-.3 2.1-.5.8-.3 1.4-.5 2.3-.8.2-.1.4-.4.5-.6.1-.3-.1-1.1-.1-1.4 0-1.1-.1-1.2-1.2-1-.3.1-.7.2-1 0-.3-.2-.4-.8-.2-1.1s.7-.4 1.1-.4c.8.1.8.3 1.7.3 1 .1 2.1-.1 2.8-.9.6-.8.1-1.6-.1-2.5-1-5.6-2.1-8.6-2.2-12.9zM53.8 86.6c.1.3.2.9-.3 1-.3.1-.9.2-1.4-1.2-1.5-4-2.6-7.4-3.7-11.6-.6-2.2-.5-2.8-.1-2.8.2 0 .3.6.4.6.3.7 5.1 14 5.1 14zM73.4 46c-.3.5-.7.9-.9 1.4-.3.5-.5 1-.6 1.6-.3 1-.2 2.4-1.1 3.1-.2.2-.6.3-.7-.1-.1-.5-.1-1-.2-1.5-.3-1-1.1-2.9-4.9-2.8-.4 0-.6-.3-.5-.7.1-.4.7-.7 1.1-.8.7-.2 1.4-.3 2.2-.3 1.1-.1 2.2-.2 3.4-.5.4-.1 1.5-.4 1-1-.5-.5-3.8-.5-5-.3-2.1.3-2.6.4-3.7 1.1-.5.3-1 0-1-.5 0-.4.5-.6.8-.8 1.9-1.1 4-1.2 6.1-1.4 1-.1 2-.2 3 0 .7.2 1.5.6 1.7 1.4 0 .8-.3 1.5-.7 2.1zm-50.1.4c-2.8-3.9-6.1-13.4 0-22.9-6.4 4.1-10.6 19.6 0 22.9zM71.2 23c-.8 1.9-3 3.9-6.6 5.8 4.2 1 7.3-2 7.3-2-.4 2-3.1 3.3-7.1 3.7-6.2.6-8.4 6.4-8.4 6.4C63.8 28.7 74 33 74 33c.1-.4-.4-6.9-2.8-10z" fill="#ffffff"/>
  <path d="M71.3 33.3c-10.7-2.1-14.9 5.3-15.3 5.9 1.7-1.6 4.2-3.4 6.9-3.6-.7.5-3.5 1.4-7 5.7-4.5 5.5-12.6 3.1-12.6 3.1.7.7 3.5 3.4 8.9 2.4 6.9-1.3 7.8-12.1 19.1-13.5zm-17 23c.8-1 1.4-2.2 1.6-3.5.2-1.1.6-5.3.5-6.4 0 0-1 1.4-1.8 2.2-.1.1-.2.3-.2.5-.1.9-.4 3.5-.8 5.1-.4 1.6-1.2 3.1-2.2 4.3 1.1-.5 2.1-1.2 2.9-2.2zM53 52.4c.2-1 .4-2 .3-3-.8.9-1.7 1.6-2.1 1.8-.1.1-.2.2-.2.3-.2 5.6-2.5 7.4-2.5 7.4.4 0 .8-.2 1.1-.4 2-1.4 2.9-3.6 3.4-6.1zm-4.9 5.3c.3-.3.5-.6.7-1l.6-1.2c.4-1 .6-2.2.7-3.4v-.5c-.2.1-.9.4-1.3.5-.1.1-.2.2-.2.4 0 .9-.1 2.6-.2 3.4-.1.4-.2.8-.4 1.2l-.3.6c-.1.2-.5.7-.5.9.2-.1.8-.8.9-.9zm20.6-38c1.4-2.6 1.6-3 2.5-5.8 0-.1 0-.3-.2-.4-.2 0-.3.1-.4.2-.6 2.3-.7 2.6-2 5.3.1.2.1.5.1.7zm.8.6c.1 0 .2.1.3.1 1.6-1.7 2.2-2.7 3.4-4.7.1-.1 0-.3-.1-.4-.1-.1-.3 0-.4.1-1.2 2.1-1.9 3.1-3.5 4.9h.3zm-3.7-.3v.2c.4.3.7.7.8 1.2.3-.4.6-.6 1-.9.1 0 .1-.1.2-.1V20c0-.5 0-1-.4-1.3 0 0 .8-1.9 1.1-3.9 0-.2-.1-.3-.3-.3-.2 0-.3.1-.3.3-.4 1.8-1.1 3.5-1.2 3.7-.5.3-.7.9-.9 1.5zm-.4 1c-.1-.1-.2-.1-.3-.1H65c-.9 0-1.2.6-1.5 1.3 0 .1 0 .1-.1.2.3.2.5.4.6.8.1.2.1.4.1.6.4-.4.9-.6 1.5-.8v-.1c0-.1.1-.2.1-.4V22c.1-.4 0-.8-.3-1zm2.2 2.9c-.2-.2-.3-.2-.5-.3h-.8c-.1 0-.2.1-.3.1-.1 0-.2.1-.3.1-.4.2-.8.4-1.1.7-.1.1-.1.2-.2.3h.4c.7.2 1.1.5 1.4 1.1h.1c.8-.3 1.5-.7 1.5-1.6 0-.2-.1-.3-.2-.4zM61.2 25c.1.3.1.5.1.8.5-.4 1-.6 1.7-.8v-.1c0-.1.1-.2.1-.3 0-.1.1-.3.1-.4.1-.5 0-.9-.4-1.2-.1-.1-.2-.1-.2-.1h-.2c-.9 0-1.3.5-1.8 1.2v.1c.3.2.5.4.6.8zm1.7.8c-.4.1-.9.3-1.2.7-.1.1-.1.2-.2.3h.4c.7.2 1.2.5 1.5 1.2h.3c.8-.2 1.5-.4 1.8-1.2v-.5c0-.2-.1-.3-.2-.4-.2-.2-.4-.3-.6-.3h-1.3c-.2.2-.4.2-.5.2zm-5.3-.1c-.1.1-.1.3-.2.4.2.2.3.4.4.8.1.3.1.7 0 1h.1c.6-.6 1.3-.8 2.1-1 0 0 0-.1.1-.1 0-.1.1-.1.1-.2.1-.1.1-.2.2-.4 0-.2.1-.3.1-.5s0-.4-.1-.6c-.1-.2-.2-.3-.4-.4 0 0-.1 0-.1-.1s-.2-.1-.2-.1c-1.1 0-1.6.5-2.1 1.2zm2.8 2c-.2 0-.4 0-.6.1-.4.1-.9.3-1.2.6-.1.1-.2.3-.2.4.7.2 1.2.6 1.4 1.3h.7c.8-.1 1.6-.4 2-1.2.1-.1 0-.2 0-.3v-.1c0-.2-.1-.3-.2-.4-.2-.2-.4-.3-.7-.4h-.1c-.1 0-.3 0-.4-.1s-.3 0-.5 0h-.2v.1zm-5.8 1.9h.1c.5-.5 1.1-.7 1.9-.8l.1-.1c.1-.1.2-.3.2-.4.1-.1.1-.3.2-.5.1-.4 0-.7-.2-1l-.3-.3c-.1 0-.2-.1-.3-.1-.8-.1-1.4.4-1.8 1.1-.5.7-.7 1.5.1 2.1z" fill="#ffffff"/>
  <path d="M70.1 20.9c0-.1.1-.1 0 0-.4.3-.2.1-.5.3-.1-.1-.2-.1-.3-.1h-.2c-.2 0-.4 0-.5.1-.1 0-.2.1-.3.1-.1 0-.2.1-.3.1h-.1c-.1 0-.2.1-.2.2-.1 0-.1.1-.2.1-.2.2-.3.3-.4.5-.1.1-.1.3-.1.4v.1h.1c.5.1.9.3 1.2.7.2 0 .3-.1.5-.1.7-.3 1.3-.8 1.2-1.6v-.1c.3-.2 0 0 .4-.3h.1s.1-.1.5-.3c.9-.6 1.7-1.4 3-2.3.1-.1.2-.3.1-.4-.1-.1-.3-.2-.4-.1-1.4.9-2.1 1.7-3 2.3-.5.3-.6.3-.6.4zM55.5 17c-.3 1.3-.5 2.8-.8 4.1-.3 1.4-1.7 3.7-3.6 5.6 0 0 4.8-1.7 5.8-3.6.7-1.4.7-2.5 1.1-4 1.1-4.1 3.7-4.6 4.5-4.8-1.3-.4-2.6-.8-3.9-.5-1.5.4-2.7 1.7-3.1 3.2z" fill="#ffffff"/>
  <path d="M51 16.1c-.7 1.5-.7 3.2-.8 4.8-.1 1.6-.9 3.2-1.7 4.6-.5.8-1 1.6-1.6 2.4-.5.6-1.2 1.2-1.7 1.8-.2.2-.4.4-.5.6 0 0 .7-.3.9-.4.4-.2.8-.3 1.1-.5 2.7-1.4 4.7-3.8 6-6.5.6-1.3.9-2.6 1.1-4.1.1-1.1.4-2.2 1-3.2s1.7-1.8 2.9-2.3c-3.2-.6-5.6.6-6.7 2.8zM22.6 40.7c3.3-5-1.2-13.7 8.6-23.4-6.1 3.1-12.6 13.4-8.6 23.4z" fill="#ffffff"/>
  <path d="M46.4 16.7c-.8 1.6-1 3.4-1.2 5.1-.2 1.8-.8 3.4-1.6 5-.5.9-1 1.8-1.6 2.6-.5.7-1.2 1.3-1.7 1.9-.2.2-.4.4-.5.6.1 0 .7-.3.9-.4.4-.2.8-.4 1.1-.6 2.7-1.6 4.7-4.2 6-7.2.6-1.5.9-2.9 1.1-4.5.1-1.2.4-2.5 1-3.5.7-1.3 1.9-2.3 3.3-2.9-.2.1-4.9 0-6.8 3.9z" fill="#ffffff"/>
  <path d="M40.7 18.6c-.6 1.2-1 2.5-1.4 3.8-.3 1.3-.5 2.7-1 4-.8 2.2-1.9 4.2-3.4 6.1 3.1-.9 5.7-3.1 7.1-5.9.5-1 1-2.2 1.3-3.5 1-4.2.5-7.6 4.9-9.7h-.6c-3.4.2-5.5 2.4-6.9 5.2z" fill="#ffffff"/>
  <path d="M35.4 19.3c-1.6 2.3-2.6 5-3.1 7.8-.4 2.3-.5 4-1.4 6.2 0 0 3.9-2.6 5.7-7.2 1.1-2.9 1.6-7.7 3.8-9.9.9-.9 2-1.9 3.2-2.4 0 0-.3 0-.6.1-3.2.6-5.7 2.7-7.6 5.4z" fill="#ffffff"/>
  <path d="M27.5 25.3c-1.3 3.3-2 10-2 10s.2-.2 2.7-2.5c1.7-1.5 2.2-4 2.6-6.2.5-2.5 1.1-4.9 2.7-7 1.5-2 3.4-3.9 5.6-5.1 0 0-3.8.7-7.4 4.2-2.1 1.9-3.3 4.2-4.2 6.6zm29.9-.9s.8-.5 1.3-.8c.9-.6 1.5-1.4 1.7-2.4.4-1.5 1-3.5 3.6-4.3-2.4 2.1-1.7 3.2-3.1 5.4 4.8-3.4 5.8-5.7 5.8-5.7-.7-1.1-2.6-1.6-3.8-1.3-4.4 1-2.8 6.7-5.5 9.1zm-14 18.5c5.2 2.5 12.3-1 12.2-5.6-.9 1.1-4.3 3.4-7.4 3.8 0 0 1.7.6 3.4.1 0 .1-1.9 2-8.2 1.7zm-20.6-.2c0 .2.2.4.5.3.4-.1 1.1-.2 1.5-.3.6 1.3 1.3 2.4 2.5 3.3 1.2.9 2.9 1.3 4.5 1-.5-1.6-1.5-3-2.9-3.7-1-.5-1.9-.7-2.9-.8.5.7 1.6 2 3.3 2.7.2.1.3.3.2.5-.1.1-.2.2-.3.2h-.1c-.3-.1-.6-.3-.9-.5-.3-.2-.5-.3-.8-.5-.2-.2-.5-.4-.7-.6-.2-.2-.4-.4-.5-.6-.1-.2-.3-.3-.4-.5-.1-.2-.2-.3-.3-.5-.1-.1-.1-.2-.2-.2 0-.1-.1-.2-.1-.2V42c.1-.2.1-.5.2-.7.1-.2.1-.4.2-.6.1-.2.2-.5.3-.7.1-.3.2-.5.4-.8.1-.3.3-.5.4-.8.2-.3.3-.5.5-.8.2-.2.4-.5.6-.7l.2-.2c.1-.1.4-.1.5 0 .1.1.1.4 0 .5-1.2 1.1-2 3.2-2.3 4.3 1-.6 1.8-1.3 2.5-2.2 1-1.4 1.3-3.2 1-4.9-1.7.5-3.2 1.7-3.9 3.2-.7 1.5-.9 2.9-.8 4.4-.4.1-1.2.2-1.6.3-.5 0-.6.2-.6.4zm9.8-2.5-.1.1c-.1.1-.1.1 0 .2 0 .1.2.1.3.1.4 0 .8-.1 1.1-.2.1 0 1.1-.4 1.1-.4.6 1.2 1.3 2.2 2.5 3 1.2.8 2.9 1.1 4.4.8-.5-1.5-1.6-2.7-2.9-3.4-.9-.4-1.7-.6-2.6-.7.4.6 1.3 1.5 2.8 2.1.2.1.3.3.2.5-.1.1-.2.2-.3.2H39c-.3-.1-.6-.3-.9-.4-.3-.1-.5-.3-.7-.5-.2-.2-.4-.3-.6-.5l-.5-.5c-.1-.1-.2-.3-.4-.4-.1-.1-.2-.2-.2-.4-.1-.1-.2-.2-.2-.4-.1-.3-.1-.7 0-1 0-.3.1-.7.2-1 .2-.9.7-1.7 1.2-2.4.1-.2.3-.2.5-.1s.2.3.1.5c-.9 1.2-1.2 2.4-1.3 3 .6-.4 1.1-1 1.6-1.7.7-1.1.9-2.6.5-3.9-1.3.5-2.4 1.5-2.9 2.7-.5 1.2-.5 2.3-.4 3.5-.4.1-.7.3-1.1.4-.6.4-1 .5-1.3.8z" fill="#ffffff"/>
  <path d="M28.6 41c-.3.1-.6.1-.9.2-.2.1-.3.1-.5.2 0 0-.1.1-.2.1-.1.1-.2.1-.2.2 0 .2.3.2.4.2.5.1 1-.1 1.4-.2l1.2-.3h.1c.5 1.2 1.2 2.1 2.3 2.9 1.1.8 2.7 1.1 4.1.8-.4-1.4-1.4-2.6-2.7-3.2-.8-.4-1.6-.6-2.2-.6.4.6 1.3 1.6 2.9 2.2.2.1.3.3.2.5-.1.1-.2.2-.3.2h-.1c-.5-.2-.9-.5-1.4-.7-.4-.2-.7-.5-1-.8L31 42c-.1-.2-.3-.4-.4-.6-.1-.2-.3-.5-.2-.8v-.3c.1-.3.1-.6.2-.9.1-.4.2-.8.4-1.2.2-.4.3-.9.6-1.3.1-.1.2-.2.2-.4.1-.2.3-.2.5-.1s.2.3.1.5c-.7 1-1 2.4-1.2 3.2.7-.4 1.2-1 1.8-1.7.9-1.2 1.2-2.9.9-4.4-1.5.5-2.9 1.5-3.5 2.9-.6 1.3-.8 2.5-.7 3.8-.3.1-.7.2-1.1.3zm14-4.4c-.2.2-.1.4.1.4.3 0 .7-.1 1-.2.7-.3 1-.4 1.2-.5.9 1 1.8 1.7 3.2 2.1 1.4.5 3.1.3 4.4-.4-.9-1.2-2.2-2.2-3.7-2.4-.8-.1-1.6-.1-2.3 0 .1.1.3.2.5.4.7.5 1.5.8 2.5.8.2 0 .3.2.3.4s-.2.3-.3.3c-.6 0-1.3-.2-1.9-.4-.4-.2-.9-.4-1.2-.8-.2-.2-.5-.4-.7-.7-.1-.2-.1-.4-.1-.6v-.7c.1-.7.3-1.3.6-1.9.1-.1.1-.2.2-.3.1-.2.3-.2.5-.1s.2.3.1.5c-.6.9-.7 1.7-.7 2.3.4-.3.7-.7 1-1.1.7-1 .9-2.4.6-3.6-1.2.4-2.3 1.3-2.8 2.4-.5 1.1-.6 2.1-.4 3.2-.2.1-.5.2-1 .5-.6 0-.9.2-1.1.4z" fill="#ffffff"/>
  <path d="M37.5 38.4c-.2.2-.1.5.1.5h.1c.2 0 .5 0 .7-.1 0 0 .7-.3 1.5-.5.7 1.1 1.5 2 2.8 2.7 1.3.7 3 .8 4.5.3-.6-1.4-1.8-2.6-3.3-3-.9-.3-1.7-.4-2.5-.4.4.5 1.3 1.2 2.8 1.6.2 0 .3.2.2.4 0 .2-.2.3-.3.3H44c-.7-.2-1.4-.5-2-.9-.3-.2-.6-.4-.9-.7-.2-.2-.6-.5-.7-.8-.1-.2-.1-.3-.1-.5v-.9c0-.3.1-.5.1-.7.1-.3.2-.6.3-.8.1-.3.3-.6.5-.9.1-.1.1-.2.2-.2.1-.2.3-.2.5-.1s.2.3.1.5c-.8 1.1-1 2.2-1 2.9.5-.4 1-.9 1.4-1.5.7-1.1.9-2.6.5-3.9-1.3.5-2.4 1.5-2.9 2.7-.5 1.1-.5 2.1-.4 3.3l-1.6.4c-.2.1-.4.2-.5.3zm10.4-4.3c-.2.2-.1.4.1.4.4 0 .8-.2 1.1-.3.3-.2.6-.3.8-.4.9.7 1.8 1.2 3 1.4 1.3.2 2.7-.1 3.8-.9-.9-1-2.2-1.6-3.6-1.7-.7 0-1.3.1-2 .3.3.2 1.2.7 2.9.8.2 0 .3.2.3.4s-.2.3-.3.3c-.6 0-1.2-.1-1.7-.2-.6-.1-1.1-.3-1.6-.7-.4-.3-.4-.9-.3-1.4.1-.8.3-1.7.7-2.4.1-.2.3-.2.5-.1s.2.3.1.5c-.4.6-.5 1.6-.5 2.2.3-.3.6-.7.8-1.1.6-1 .7-2.4.3-3.5-1.1.5-2.1 1.4-2.5 2.5-.4 1-.4 1.9-.3 3l-1 .5c-.2 0-.4.2-.6.4z" fill="#ffffff"/>
  <path d="M52.8 31.9c.4 0 1-.5 1.3-.7.3-.1.6-.3.9-.4.1.6.5.9 1 1.1.3.1.6.1 1 .1.8-.1 1.6-.3 1.9-1.1v-.4c-.1-.5-.5-.7-.9-.8l-.2-.1h-.9c-.2 0-.4 0-.5.1-.2.1-.5.1-.7.2-.1 0-.2.1-.2.1-.4.1-.8.3-1.1.4-.4.1-1.2.6-1.5.8l-.3.3c-.2.1 0 .4.2.4z" fill="#ffffff"/>
  <path d="M48 0C21.5 0 0 21.5 0 48s21.5 48 48 48 48-21.5 48-48S74.5 0 48 0zm37.6 73.4c-1.6 2.4-3.5 4.7-5.5 6.7-2.1 2.1-4.3 3.9-6.7 5.5-2.4 1.6-5 3-7.7 4.2-5.6 2.4-11.5 3.6-17.7 3.6s-12.1-1.2-17.7-3.6c-2.7-1.1-5.3-2.5-7.7-4.2-2.4-1.6-4.7-3.5-6.7-5.5-2.1-2.1-3.9-4.3-5.5-6.7-1.6-2.4-3-5-4.2-7.7C3.8 60.1 2.6 54.1 2.6 48s1.2-12.1 3.6-17.7c1.1-2.7 2.5-5.3 4.2-7.7 1.6-2.4 3.5-4.7 5.5-6.7 2.1-2.1 4.3-3.9 6.7-5.5 2.4-1.6 5-3 7.7-4.2C35.9 3.8 41.9 2.6 48 2.6s12.1 1.2 17.7 3.6c2.7 1.1 5.3 2.5 7.7 4.2 2.4 1.6 4.7 3.5 6.7 5.5 2.1 2.1 3.9 4.3 5.5 6.7 1.6 2.4 3 5 4.2 7.7 2.4 5.6 3.6 11.5 3.6 17.7s-1.2 12.1-3.6 17.7c-1.1 2.7-2.5 5.3-4.2 7.7z" fill="#ffffff"/>
  <path d="M31.4 66.4c-2.1-.4-11.9.3-11.2-11.3.7 5.7 3.9 9.3 10.9 8.3 0 0-9.2-3.2-8.5-15 0 0-1.1-.3-1.9-1-1.7 2.4-3.1 9.6-2.2 12.5-.2-.2-3-5.2.8-13.6-.8-.6-1.6-1.6-1.6-1.6s-4 5.5-2.7 12.5c.5 5.8 7.5 13 16.4 9.2z" fill="#ffffff"/>
  <path d="M29.7 60.2c-3.3-5.8-1.6-9.1-1.6-9.1-2.8-.6-3.8-4.5-3.8-4.5-1.2 5.8 1 11 5.4 13.6z" fill="#ffffff"/>
</svg>