<svg viewBox="0 0 512 512" version="1.1" xmlns="http://www.w3.org/2000/svg" xmlns:xlink="http://www.w3.org/1999/xlink">
    <title>torguard</title>
    <defs>
        <linearGradient x1="50%" y1="0%" x2="50%" y2="100%" id="linearGradient-1">
            <stop stop-color="#272A52" offset="0%"></stop>
            <stop stop-color="#090A15" offset="100%"></stop>
        </linearGradient>
    </defs>
    <g id="torguard" stroke="none" stroke-width="1" fill="none" fill-rule="evenodd">
        <path d="M167.934481,-6.78475402e-15 L344.065519,6.78475402e-15 C402.459997,-3.94213747e-15 423.635245,6.08007753 444.983394,17.4971921 C466.331542,28.9143067 483.085693,45.6684583 494.502808,67.0166064 C505.919922,88.3647546 512,109.540003 512,167.934481 L512,344.065519 C512,402.459997 505.919922,423.635245 494.502808,444.983394 C483.085693,466.331542 466.331542,483.085693 444.983394,494.502808 C423.635245,505.919922 402.459997,512 344.065519,512 L167.934481,512 C109.540003,512 88.3647546,505.919922 67.0166064,494.502808 C45.6684583,483.085693 28.9143067,466.331542 17.4971921,444.983394 C6.08007753,423.635245 2.62809165e-15,402.459997 -4.52316934e-15,344.065519 L4.52316934e-15,167.934481 C-2.62809165e-15,109.540003 6.08007753,88.3647546 17.4971921,67.0166064 C28.9143067,45.6684583 45.6684583,28.9143067 67.0166064,17.4971921 C88.3647546,6.08007753 109.540003,3.94213747e-15 167.934481,-6.78475402e-15 Z" id="Rectangle" fill="url(#linearGradient-1)"></path>
        <path d="M256,123 C299.07821,123 334,157.92179 334,201 L334.00169,243.95523 C347.640611,257.081702 356.322532,275.32217 356.962052,295.59123 C372.215342,304.280904 382.5,320.689397 382.5,339.5 C382.5,366.720203 360.963896,388.91038 334.001142,389.961077 L334,390 L289.701322,389.998853 C302.51604,355.128166 319.231048,349.096572 315.5,343.5 C311.828335,337.992503 286.67113,360.711107 272.898261,390.000365 L246.007897,389.996605 C273.830166,330.619728 313.5,315.595612 313.5,306 C313.5,296.421755 251.089952,330.114478 224.950785,389.998775 L201.517089,389.997893 C237.882427,294.353815 313.5,277.305423 313.5,267 C313.5,256.742598 212.81874,296.110082 175.536709,388.831554 C149.830853,383.540951 130.5,360.777957 130.5,333.5 C130.5,305.358922 151.07353,282.023049 178.000092,277.712878 L178,201 C178,157.92179 212.92179,123 256,123 Z M256,153 C229.755429,153 208.430309,174.062674 208.006431,200.206232 L208,201 L208.001378,281.032011 C208.285038,281.145655 208.567563,281.261533 208.84893,281.379623 C216.408732,247.957367 246.289813,223 282,223 C289.655797,223 297.043677,224.147084 304.001148,226.278758 L304,201 C304,174.490332 282.509668,153 256,153 Z" id="Combined-Shape" fill="#FFFFFF" fill-rule="nonzero"></path>
    </g>
</svg>
