<svg xmlns="http://www.w3.org/2000/svg" viewBox="0 0 500 259.708">
  <path d="M154.127 150.485c-1.213 30.34-3.64 33.98-38.835 35.17h-9.708c-29.127-1.214-37.622-7.282-37.622-32.767V81.31h109.223V55.825H67.962v-33.98H35.195v35.193H.001v25.486h35.194v80.097c0 12.136 3.641 25.485 13.35 33.98 9.709 9.709 26.699 14.563 52.184 14.563h14.563c30.34 0 46.117-6.068 55.825-15.776 8.496-9.733 9.71-24.272 9.71-38.835v-18.204h-27.913v12.136h1.213Z"/>
  <path fill="#187dc1" d="M213.593 0h32.767v26.699h-32.767v-26.7Zm0 55.825h32.767v151.699h-32.767v-151.7Zm252.427 92.233c0 32.767-15.777 37.62-48.544 37.62h-48.543c-29.127 0-49.758-4.853-50.971-38.834v-27.912c0-24.272 12.136-40.049 47.33-40.049h54.611c37.622 1.214 46.117 12.136 46.117 40.049v29.126Zm8.495-81.31c-14.563-9.71-33.98-12.137-53.398-12.137h-52.184c-21.845 0-41.263 6.068-52.185 19.418V55.825h-30.34v203.883h32.767v-64.32c7.282 10.922 21.845 15.776 46.117 15.776h52.184c27.913 0 48.544-3.64 63.107-14.563C493.933 185.68 500 168.69 500 144.417v-25.485c-1.213-26.7-10.922-42.476-25.485-52.185Z"/>
</svg>
