<svg xmlns="http://www.w3.org/2000/svg" fill="none" aria-label="TutaLogoWithText" viewBox="0 0 500 500">
  <path fill="#410002" d="M427.138 264.643c0-15.908 12.001-34.89 32.422-34.89h15.047l-5.374 17.355c-6.448 20.608-16.3 33.623-28.481 33.623-8.778 0-13.614-6.146-13.614-16.088m-76.49-8.677c-7.523 24.404 3.942 41.216 29.916 41.216 3.761 0 8.777-.362 10.39-.723.716-.181 1.074-.543 1.432-1.447l4.479-15.185c.179-.903 0-1.626-1.254-1.446-3.941.362-7.524.723-10.748.723-13.077 0-18.45-7.05-14.51-19.704l9.136-29.647H406c.717 0 1.433-.361 1.612-1.265l4.658-15.366c.179-.903-.18-1.446-1.254-1.446h-26.153l3.403-11.208c.18-.904 0-1.265-.537-1.807l-13.793-12.654c-.717-.724-1.612-.543-1.97.542l-21.317 69.417zm-91.356.542c-7.702 24.766 4.658 41.035 24.004 41.035 11.106 0 19.883-5.423 26.153-14.28l-.18 11.388c0 1.084.538 1.446 1.434 1.446h12.36c.895 0 1.433-.362 1.612-1.265l24.9-81.529c.357-1.084-.18-1.627-1.076-1.627h-17.734c-.895 0-1.433.362-1.612 1.266l-10.568 34.346c-6.628 21.332-17.018 33.443-27.945 33.443s-15.584-8.677-11.464-22.054l13.972-45.374c.358-1.084-.18-1.627-1.075-1.627H274.34c-.895 0-1.433.362-1.612 1.266l-13.435 43.566zm-60.367-.542c-7.523 24.404 3.941 41.216 29.915 41.216 3.762 0 8.778-.362 10.39-.723.716-.181 1.075-.543 1.433-1.447l4.478-15.185c.18-.903 0-1.626-1.254-1.446-3.94.362-7.523.723-10.748.723-13.076 0-18.45-7.05-14.51-19.704l9.136-29.647h26.333c.716 0 1.433-.361 1.612-1.265l4.657-15.366c.18-.903-.179-1.446-1.254-1.446H232.96l3.404-11.208c.179-.904 0-1.265-.538-1.807l-13.793-12.654c-.716-.724-1.612-.543-1.97.542l-21.138 69.417zm235.378 41.577c10.39 0 18.988-4.7 25.436-14.28v11.388c0 .904.538 1.446 1.433 1.446h12.36c.896 0 1.434-.362 1.613-1.265l25.078-81.71c.179-.903-.18-1.627-1.075-1.627h-39.05c-38.155 0-53.023 33.443-53.023 55.136 0 18.981 11.644 30.912 27.228 30.912"/>
  <path fill="#850122" d="m13.884 161.421 30.63 31.274c.717.723 1.434.904 2.509.904h129.153c.895 0 1.433-1.085.537-1.989l-30.273-30.912c-.716-.723-1.433-1.084-2.866-1.084H14.6c-1.254 0-1.433 1.084-.716 1.807m-4.479 177.52c-.179.722.18 1.445 1.075 1.445h127.362c1.254 0 1.791-.542 2.15-1.627l38.513-125.456c.358-1.265-.18-1.627-1.254-1.627H49.53c-1.075 0-1.433.362-1.792 1.266L9.405 338.94zm-9.673-36.155c0 1.446 1.792 1.446 2.15 0l29.198-95.99c.358-1.085.358-1.808-.537-2.712l-29.02-29.105c-.716-.723-1.79-.361-1.79.543v127.264z"/>
</svg>
