<?xml version="1.0" encoding="UTF-8"?>
<!DOCTYPE svg PUBLIC "-//W3C//DTD SVG 1.1//EN" "http://www.w3.org/Graphics/SVG/1.1/DTD/svg11.dtd">
<svg xmlns="http://www.w3.org/2000/svg" version="1.1" width="2400px" height="2800px" style="shape-rendering:geometricPrecision; text-rendering:geometricPrecision; image-rendering:optimizeQuality; fill-rule:evenodd; clip-rule:evenodd" xmlns:xlink="http://www.w3.org/1999/xlink">
<g><path style="opacity:1" fill="#9146ff" d="M 498.5,-0.5 C 1132.17,-0.5 1765.83,-0.5 2399.5,-0.5C 2399.5,466.5 2399.5,933.5 2399.5,1400.5C 2099.7,1699.8 1800.03,1999.3 1500.5,2299C 1366.83,2299.33 1233.17,2299.67 1099.5,2300C 932.965,2466.37 766.632,2632.87 600.5,2799.5C 600.167,2799.5 599.833,2799.5 599.5,2799.5C 599.5,2632.83 599.5,2466.17 599.5,2299.5C 399.5,2299.5 199.5,2299.5 -0.5,2299.5C -0.5,1699.17 -0.5,1098.83 -0.5,498.5C 166.167,332.5 332.5,166.167 498.5,-0.5 Z"/></g>
<g><path style="opacity:1" fill="#fefffe" d="M 599.5,199.5 C 1132.83,199.5 1666.17,199.5 2199.5,199.5C 2199.67,566.167 2199.5,932.833 2199,1299.5C 2065.83,1432.67 1932.67,1565.83 1799.5,1699C 1665.83,1699.33 1532.17,1699.67 1398.5,1700C 1282.33,1816.17 1166.17,1932.33 1050,2048.5C 1049.5,1932.17 1049.33,1815.83 1049.5,1699.5C 899.5,1699.5 749.5,1699.5 599.5,1699.5C 599.5,1199.5 599.5,699.5 599.5,199.5 Z"/></g>
<g><path style="opacity:1" fill="#9146ff" d="M 1149.5,549.5 C 1216.17,549.5 1282.83,549.5 1349.5,549.5C 1349.5,749.5 1349.5,949.5 1349.5,1149.5C 1282.83,1149.5 1216.17,1149.5 1149.5,1149.5C 1149.5,949.5 1149.5,749.5 1149.5,549.5 Z"/></g>
<g><path style="opacity:1" fill="#9146ff" d="M 1699.5,549.5 C 1766.17,549.5 1832.83,549.5 1899.5,549.5C 1899.5,749.5 1899.5,949.5 1899.5,1149.5C 1832.83,1149.5 1766.17,1149.5 1699.5,1149.5C 1699.5,949.5 1699.5,749.5 1699.5,549.5 Z"/></g>
</svg>
