<?xml version="1.0" encoding="UTF-8"?>
<svg version="1.1" xmlns="http://www.w3.org/2000/svg" width="400" height="400">
<path d="M0 0 C132 0 264 0 400 0 C400 132 400 264 400 400 C268 400 136 400 0 400 C0 268 0 136 0 0 Z " fill="#0050C4" transform="translate(0,0)"/>
<path d="M0 0 C13.86 0 27.72 0 42 0 C42.05607422 9.46300781 42.05607422 9.46300781 42.11328125 19.1171875 C42.14357783 23.12763084 42.17473679 27.1380307 42.20898438 31.1484375 C42.26319294 37.50583639 42.31430749 43.8631493 42.34643555 50.22070312 C42.37255525 55.34963561 42.41301861 60.47827732 42.46318626 65.60702896 C42.47979651 67.55806978 42.491347 69.50916083 42.49761391 71.4602623 C42.54957449 86.15792344 43.3102007 98.12453168 53 110 C56.10815902 112.81611723 59.34094247 114.96288477 63 117 C63.75925781 117.433125 64.51851563 117.86625 65.30078125 118.3125 C74.07010726 122.55714856 85.2082689 122.30750187 94.5 119.8125 C104.95448166 116.06997127 112.90782497 108.86435 118 99 C122.26471656 89.55154514 121.56036903 79.01986877 121.6875 68.875 C121.72072473 67.04164301 121.75521903 65.20830857 121.79101562 63.375 C121.87768337 58.91664995 121.93824633 54.4590405 122 50 C128.93 50 135.86 50 143 50 C143 56.6 143 63.2 143 70 C149.93 70 156.86 70 164 70 C164.53799979 93.67199091 160.28509629 115.3454436 145 134 C144.47019531 134.69222656 143.94039062 135.38445312 143.39453125 136.09765625 C131.54986189 150.80844314 112.64442113 160.68512692 94 163 C70.96975037 164.84225872 48.94211896 160.89875175 30.87109375 145.62890625 C30.25363281 145.09136719 29.63617188 144.55382812 29 144 C28.12021484 143.33291016 28.12021484 143.33291016 27.22265625 142.65234375 C16.52550219 134.33233504 10.50256834 122.04758968 5 110 C4.5045166 108.91924194 4.5045166 108.91924194 3.99902344 107.81665039 C-3.05625637 87.92496829 -0.35335325 63.78701107 -0.20599365 43.01373291 C-0.16936493 37.29227743 -0.15604031 31.57072218 -0.13863373 25.84918213 C-0.10989853 17.23258697 -0.05228067 8.61662874 0 0 Z " fill="#FBFDFE" transform="translate(118,129)"/>
<path d="M0 0 C3.96 0 7.92 0 12 0 C13.03159626 3.09478879 12.97482862 4.52631393 12.5625 7.6875 C12.40974609 8.89986328 12.40974609 8.89986328 12.25390625 10.13671875 C12.17011719 10.75160156 12.08632813 11.36648437 12 12 C8.98509443 13.00496852 6.95818308 13.10335303 3.8125 13.0625 C2.91144531 13.05347656 2.01039063 13.04445312 1.08203125 13.03515625 C0.39496094 13.02355469 -0.29210937 13.01195312 -1 13 C-2.231394 15.46278801 -2.07159196 17.2795055 -2 20 C-2.33 20 -2.66 20 -3 20 C-3.33 22.97 -3.66 25.94 -4 29 C2.6 29 9.2 29 16 29 C16 36.26 16 43.52 16 51 C9.07 51 2.14 51 -5 51 C-5 44.4 -5 37.8 -5 31 C-10.28 31 -15.56 31 -21 31 C-21.33 28.03 -21.66 25.06 -22 22 C-22.33 22 -22.66 22 -23 22 C-22.67 18.7 -22.34 15.4 -22 12 C-20.66324219 12.01160156 -19.32648438 12.02320313 -17.94921875 12.03515625 C-16.19531389 12.04453542 -14.44140753 12.05363549 -12.6875 12.0625 C-11.80642578 12.07087891 -10.92535156 12.07925781 -10.01757812 12.08789062 C-9.17001953 12.09111328 -8.32246094 12.09433594 -7.44921875 12.09765625 C-6.66893311 12.10289307 -5.88864746 12.10812988 -5.0847168 12.11352539 C-2.8038445 12.08137863 -2.8038445 12.08137863 0 11 C0 7.37 0 3.74 0 0 Z " fill="#FAFEFE" transform="translate(266,128)"/>
<path d="M0 0 C13.86 0 27.72 0 42 0 C42 26.73 42 53.46 42 81 C41.67 81 41.34 81 41 81 C40.98969254 80.19979431 40.97938507 79.39958862 40.96876526 78.57513428 C40.87025117 70.98527816 40.76766703 63.39549256 40.66066074 55.8057518 C40.6058048 51.90503185 40.55245047 48.00430411 40.50268555 44.10351562 C40.45448389 40.32979974 40.40213194 36.556161 40.34705925 32.78253937 C40.32688505 31.35227666 40.30813557 29.92199304 40.29092598 28.49169159 C40.26631823 26.46801802 40.23635718 24.44448241 40.20532227 22.42089844 C40.18977798 21.27506287 40.1742337 20.12922729 40.15821838 18.94866943 C39.94481406 13.62271982 39.44265095 8.31181145 39 3 C27.12 3 15.24 3 3 3 C3 34.68 3 66.36 3 99 C2.67 99 2.34 99 2 99 C0.1622102 87.02174166 -0.26887663 75.38038527 -0.1953125 63.28125 C-0.19157103 61.44323889 -0.18872944 59.60522575 -0.18673706 57.76721191 C-0.17918975 52.98665623 -0.15962053 48.20622684 -0.1373291 43.42572021 C-0.11302927 37.65932321 -0.1040472 31.8928834 -0.09242249 26.12644958 C-0.07318875 17.41754589 -0.03480473 8.70891793 0 0 Z " fill="#B5D5F1" transform="translate(118,129)"/>
<path d="M0 0 C3.9290625 -0.0309375 3.9290625 -0.0309375 7.9375 -0.0625 C8.7637085 -0.071604 9.58991699 -0.08070801 10.44116211 -0.09008789 C12.29433759 -0.09723945 14.14749308 -0.0502852 16 0 C17.7462388 1.7462388 17.13221151 3.99878324 17.13671875 6.32226562 C17.13285156 7.02029297 17.12898438 7.71832031 17.125 8.4375 C17.13080078 9.47874023 17.13080078 9.47874023 17.13671875 10.54101562 C17.12663994 15.74672012 17.12663994 15.74672012 16 18 C10.72 18 5.44 18 0 18 C0 12.06 0 6.12 0 0 Z " fill="#FDFEFE" transform="translate(263,160)"/>
<path d="M0 0 C3.96 0 7.92 0 12 0 C13.03159626 3.09478879 12.97482862 4.52631393 12.5625 7.6875 C12.40974609 8.89986328 12.40974609 8.89986328 12.25390625 10.13671875 C12.17011719 10.75160156 12.08632813 11.36648437 12 12 C8.98509443 13.00496852 6.95818308 13.10335303 3.8125 13.0625 C2.91144531 13.05347656 2.01039063 13.04445312 1.08203125 13.03515625 C0.39496094 13.02355469 -0.29210937 13.01195312 -1 13 C-2.231394 15.46278801 -2.07159196 17.2795055 -2 20 C-2.33 20 -2.66 20 -3 20 C-3.33 22.97 -3.66 25.94 -4 29 C2.6 29 9.2 29 16 29 C16 29.33 16 29.66 16 30 C9.07 30 2.14 30 -5 30 C-5 25.05 -5 20.1 -5 15 C-9.95 15 -14.9 15 -20 15 C-20 20.28 -20 25.56 -20 31 C-20.33 31 -20.66 31 -21 31 C-21.33 28.03 -21.66 25.06 -22 22 C-22.33 22 -22.66 22 -23 22 C-22.67 18.7 -22.34 15.4 -22 12 C-20.66324219 12.01160156 -19.32648438 12.02320313 -17.94921875 12.03515625 C-16.19531389 12.04453542 -14.44140753 12.05363549 -12.6875 12.0625 C-11.80642578 12.07087891 -10.92535156 12.07925781 -10.01757812 12.08789062 C-9.17001953 12.09111328 -8.32246094 12.09433594 -7.44921875 12.09765625 C-6.66893311 12.10289307 -5.88864746 12.10812988 -5.0847168 12.11352539 C-2.8038445 12.08137863 -2.8038445 12.08137863 0 11 C0 7.37 0 3.74 0 0 Z " fill="#1461C9" transform="translate(266,128)"/>
<path d="M0 0 C4.95 0 9.9 0 15 0 C15 4.95 15 9.9 15 15 C21.93 15 28.86 15 36 15 C36 21.93 36 28.86 36 36 C29.07 36 22.14 36 15 36 C15 29.4 15 22.8 15 16 C10.05 16 5.1 16 0 16 C0 15.67 0 15.34 0 15 C4.62 14.67 9.24 14.34 14 14 C14 9.71 14 5.42 14 1 C9.38 1 4.76 1 0 1 C0 0.67 0 0.34 0 0 Z M17 17 C17 22.94 17 28.88 17 35 C22.28 35 27.56 35 33 35 C34.52491129 31.95017742 34.14361434 28.77877461 34.125 25.4375 C34.12886719 24.73947266 34.13273437 24.04144531 34.13671875 23.32226562 C34.43922515 19.87251102 34.43922515 19.87251102 33 17 C30.3013095 16.92674564 27.63497444 16.90777649 24.9375 16.9375 C21.0084375 16.9684375 21.0084375 16.9684375 17 17 Z " fill="#C6E6F8" transform="translate(246,143)"/>
<path d="M0 0 C3.63 0 7.26 0 11 0 C11.09765625 7.71484375 11.09765625 7.71484375 11 10 C10 11 10 11 7.71484375 11.09765625 C5.14322917 11.06510417 2.57161458 11.03255208 0 11 C0 7.37 0 3.74 0 0 Z " fill="#E2F1FD" transform="translate(266,128)"/>
<path d="M0 0 C1.31223496 3.93670488 0.24296256 6.12488144 -1 10 C-1.66 10 -2.32 10 -3 10 C-3.0928125 11.1446875 -3.0928125 11.1446875 -3.1875 12.3125 C-4.26264517 15.86874941 -5.84236488 16.22864371 -9 18 C-9.70151152 19.3153341 -10.36525925 20.65117592 -11 22 C-12.66666667 23.66666667 -14.33333333 25.33333333 -16 27 C-16.33 27.99 -16.66 28.98 -17 30 C-17.66 30 -18.32 30 -19 30 C-19.33 30.99 -19.66 31.98 -20 33 C-21.65 33 -23.3 33 -25 33 C-25.33 33.66 -25.66 34.32 -26 35 C-27.32 34.67 -28.64 34.34 -30 34 C-29.02160156 33.22076172 -29.02160156 33.22076172 -28.0234375 32.42578125 C-27.14945313 31.72839844 -26.27546875 31.03101563 -25.375 30.3125 C-24.51648438 29.62800781 -23.65796875 28.94351562 -22.7734375 28.23828125 C-21.40058594 27.13033203 -21.40058594 27.13033203 -20 26 C-19.00484375 25.21625 -18.0096875 24.4325 -16.984375 23.625 C-13.84097801 20.86012725 -11.37833698 18.01889407 -8.875 14.6875 C-8.44268066 14.1200708 -8.01036133 13.5526416 -7.56494141 12.96801758 C-4.46769429 8.82284299 -2.0447877 4.74018967 0 0 Z " fill="#1452AD" transform="translate(273,246)"/>
<path d="M0 0 C6.93 0 13.86 0 21 0 C21 0.66 21 1.32 21 2 C14.73 2 8.46 2 2 2 C2 7.61 2 13.22 2 19 C7.61 19 13.22 19 19 19 C19 19.33 19 19.66 19 20 C12.73 20 6.46 20 0 20 C0 13.4 0 6.8 0 0 Z " fill="#2964B8" transform="translate(261,179)"/>
<path d="M0 0 C0.33 0 0.66 0 1 0 C1 4.29 1 8.58 1 13 C7.93 13.495 7.93 13.495 15 14 C15 14.33 15 14.66 15 15 C12.93757383 15.02717692 10.87504297 15.0464758 8.8125 15.0625 C7.66394531 15.07410156 6.51539063 15.08570313 5.33203125 15.09765625 C2.40699414 15.01192832 -0.16316291 14.67849023 -3 14 C-2.67 12.68 -2.34 11.36 -2 10 C-2.66 10 -3.32 10 -4 10 C-4 9.34 -4 8.68 -4 8 C-3.525625 7.566875 -3.05125 7.13375 -2.5625 6.6875 C-0.58616914 4.55306267 -0.38336764 2.83692053 0 0 Z " fill="#035CCC" transform="translate(244,146)"/>
<path d="M0 0 C2.80104906 2.47785109 4.80240595 5.12977357 6.8125 8.25 C9.81602419 12.88203346 13.26540545 16.94498166 17 21 C14 21 14 21 11.375 18.625 C9 16 9 16 8 14 C7.01 13.67 6.02 13.34 5 13 C4.64270064 11.67288808 4.31674575 10.33737094 4 9 C3.33926697 7.7768248 2.64910252 6.56929793 1.9375 5.375 C0 2 0 2 0 0 Z " fill="#1754AC" transform="translate(127,249)"/>
<path d="M0 0 C3.32687768 1.54684266 6.24703978 3.45954979 9.25 5.5625 C10.14203125 6.18253906 11.0340625 6.80257813 11.953125 7.44140625 C12.62859375 7.95574219 13.3040625 8.47007812 14 9 C14 9.33 14 9.66 14 10 C12.35 10 10.7 10 9 10 C9 9.34 9 8.68 9 8 C6.69 7.67 4.38 7.34 2 7 C1.34 4.69 0.68 2.38 0 0 Z " fill="#1856AC" transform="translate(144,271)"/>
<path d="M0 0 C-1 1 -1 1 -3.5625 1.0625 C-4.7690625 1.0315625 -4.7690625 1.0315625 -6 1 C-6.33 1.99 -6.66 2.98 -7 4 C-13.93 3.505 -13.93 3.505 -21 3 C-21 2.67 -21 2.34 -21 2 C-18.25162151 1.46892686 -15.50187625 0.94984119 -12.75 0.4375 C-11.97269531 0.28603516 -11.19539062 0.13457031 -10.39453125 -0.02148438 C-9.64042969 -0.16005859 -8.88632813 -0.29863281 -8.109375 -0.44140625 C-7.07248535 -0.63778687 -7.07248535 -0.63778687 -6.01464844 -0.83813477 C-3.78712058 -1.01710362 -2.12493038 -0.65206197 0 0 Z " fill="#1651A6" transform="translate(225,290)"/>
<path d="M0 0 C0.99 0 1.98 0 3 0 C2.67 6.27 2.34 12.54 2 19 C1.67 19 1.34 19 1 19 C0.67 16.03 0.34 13.06 0 10 C-0.33 10 -0.66 10 -1 10 C-0.67 6.7 -0.34 3.4 0 0 Z " fill="#1F70D4" transform="translate(244,140)"/>
<path d="M0 0 C0.66 0.33 1.32 0.66 2 1 C-3.67793686 5.29788276 -7.81595146 7.73876187 -15 8 C-11.96943208 5.55831021 -8.90981404 3.86972611 -5.375 2.25 C-4.41335937 1.80140625 -3.45171875 1.3528125 -2.4609375 0.890625 C-1.64882812 0.59671875 -0.83671875 0.3028125 0 0 Z " fill="#1650A5" transform="translate(241,281)"/>
<path d="M0 0 C0.33 0 0.66 0 1 0 C1.10957031 0.75023437 1.21914062 1.50046875 1.33203125 2.2734375 C2.38286056 9.05683972 3.83798802 15.48513722 6 22 C5.34 22 4.68 22 4 22 C0.55209659 14.65446665 -0.14136106 8.05758025 0 0 Z " fill="#1F5CB2" transform="translate(119,222)"/>
<path d="M0 0 C1.65 0.33 3.3 0.66 5 1 C-0.14285714 6.57142857 -0.14285714 6.57142857 -4 7 C-4 6.34 -4 5.68 -4 5 C-3.01 4.34 -2.02 3.68 -1 3 C-0.67 2.01 -0.34 1.02 0 0 Z " fill="#1154B2" transform="translate(221,240)"/>
<path d="M0 0 C0.33 1.32 0.66 2.64 1 4 C1.66 4 2.32 4 3 4 C2.67 4.99 2.34 5.98 2 7 C0.68 7 -0.64 7 -2 7 C-1.34 4.69 -0.68 2.38 0 0 Z " fill="#DEF0FC" transform="translate(237,225)"/>
<path d="M0 0 C0.66 0 1.32 0 2 0 C1.50168276 3.68754757 0.89932357 5.60490662 -2 8 C-2 6.35 -2 4.7 -2 3 C-1.34 3 -0.68 3 0 3 C0 2.01 0 1.02 0 0 Z " fill="#1358B1" transform="translate(235,225)"/>
</svg>
