<svg xmlns="http://www.w3.org/2000/svg" viewBox="0 0 481.711 500">
  <path d="M481.711 249.749C476.294-6.336 135.73-101.878 4.521 138.207c5.875 4.291 13.771 9.937 19.646 14a243.932 243.932 0 0 0-20.334 63.896A247.46 247.46 0 0 0 0 259.249C0 392.041 107.959 500 240.96 500c133.021 0 240.751-107.709 240.751-240.751v-9.5ZM59.417 292.666c-3.167 25.958-1.125 34.083-1.125 37.25l-5.875 2.042c-2.25-4.292-7.708-19.417-10.167-39.751-6.333-77.458 46.521-147.209 127.147-160.334 73.833-10.833 144.521 35 161.001 99.126l-5.876 2.041c-1.812-1.812-4.75-7-16.041-18.291-89.188-89.188-229.21-48.334-249.085 77.917h.021Zm229.209 43.354c-12.25 17.709-32.416 28.25-53.958 28.229-36.334.063-65.792-29.416-65.73-65.729.063-34.417 26.646-62.98 60.98-65.5 21.208-.896 41.083 10.625 50.333 29.125 10.209 20.417 6.417 45.062-9.479 61.458 6.104 4.271 11.979 8.334 17.834 12.396l.02.021Zm137.084 2.5c-34.771 78.792-106.375 120.126-182.709 119.001-146.542-7.229-189.23-176.376-91.25-237.356l4.312 4.292c-1.583 2.25-7.458 6.771-16.479 24.625-10.625 21.688-14 43.355-12.646 56.917 7.688 118.126 173.209 142.293 230.105 25.292C429.544 171.186 237.147 8.352 66.396 132.79l-3.833-3.833c44.938-70.459 132.792-101.876 216.563-80.855C407.19 80.394 476.065 213.853 425.69 338.52h.02Z"/>
</svg>
