<svg width="500" height="500" viewBox="0 0 500 500" fill="none" xmlns="http://www.w3.org/2000/svg">
<g style="mix-blend-mode:difference">
<path d="M234.915 0C79.5084 0 12.429 138.162 12.429 138.162L32.1744 152.281C32.1744 152.281 7.3264 199.477 8.01401 260.013C8.01401 383.59 106.503 500 251.486 500C383.198 500 492 392.923 492 260.317C492 87.3677 357.722 0 234.916 0H234.915ZM236.263 42.1591C357.682 42.1591 451.9 139.886 451.9 253.497C451.9 373.933 361.21 457.689 255.53 457.689C177.753 457.689 107.59 398.53 107.59 317.419C107.59 270.572 132.52 237.911 160.456 220.504L164.544 224.935C156.899 230.91 135.1 265.885 135.1 300.261C135.1 364.077 185.205 408.275 248.333 408.275C328.747 408.275 382.377 339.771 382.377 260.231C382.377 167.686 300.59 89.1181 202.165 89.1181C147.726 89.1181 101.521 112.502 74.9709 133.145L70.8393 129.41C105.574 75.9175 165.725 42.1591 236.263 42.1591ZM200.034 130.691C262.843 130.691 324.165 172.193 339.471 231.103L333.904 233.21C306.421 196.961 261.388 166.92 208.21 166.92C110.357 166.92 58.9672 255.732 66.5114 329.908L60.749 332.016C60.749 332.016 49.9411 308.197 49.9411 279.952C49.9411 198.161 117.19 130.691 200.034 130.691ZM241.548 233.34C271.284 233.34 295.066 257.414 295.066 285.991C295.066 309.639 279.864 323.654 279.864 323.654L297.87 336.229C297.87 336.229 280.015 364.227 243.57 364.227C208.707 364.227 177.875 336.122 177.875 298.327C177.875 259.384 211.412 233.34 241.548 233.34Z" fill="white"/>
</g>
</svg>
