<?xml version="1.0" encoding="UTF-8" standalone="no"?>
<!-- Created with Inkscape (http://www.inkscape.org/) -->

<svg
  xmlns:dc="http://purl.org/dc/elements/1.1/"
  xmlns:cc="http://creativecommons.org/ns#"
  xmlns:rdf="http://www.w3.org/1999/02/22-rdf-syntax-ns#"
  xmlns:svg="http://www.w3.org/2000/svg"
  xmlns="http://www.w3.org/2000/svg"
  xmlns:sodipodi="http://sodipodi.sourceforge.net/DTD/sodipodi-0.dtd"
  xmlns:inkscape="http://www.inkscape.org/namespaces/inkscape"
  id="svg3039"
  version="1.1"
  inkscape:version="0.48.2 r9819"
  width="240.20215"
  height="98.041267"
  sodipodi:docname="U1_logo.svg">
  <metadata
    id="metadata3045">
    <rdf:RDF>
      <cc:Work
        rdf:about="">
        <dc:format>image/svg+xml</dc:format>
        <dc:type
          rdf:resource="http://purl.org/dc/dcmitype/StillImage" />
        <dc:title></dc:title>
      </cc:Work>
    </rdf:RDF>
  </metadata>
  <defs
    id="defs3043" />
  <sodipodi:namedview
    pagecolor="#ffffff"
    bordercolor="#666666"
    borderopacity="1"
    objecttolerance="10"
    gridtolerance="10"
    guidetolerance="10"
    inkscape:pageopacity="0"
    inkscape:pageshadow="2"
    inkscape:window-width="1022"
    inkscape:window-height="529"
    id="namedview3041"
    showgrid="false"
    showguides="true"
    inkscape:guide-bbox="true"
    fit-margin-top="0"
    fit-margin-left="0"
    fit-margin-right="0"
    fit-margin-bottom="0"
    inkscape:zoom="3.5580214"
    inkscape:cx="188.39168"
    inkscape:cy="46.745142"
    inkscape:window-x="0"
    inkscape:window-y="24"
    inkscape:window-maximized="1"
    inkscape:current-layer="svg3039" />
  <path
    style="fill:#dd4713;fill-opacity:1;stroke:none"
    d="m 0,13.135439 0.31287126,55.797305 c 0,0 -0.29397798,23.453759 25.17115774,28.396822 14.646306,2.843004 42.347094,-3.749492 42.347094,-3.749492 l -0.220563,-80.503585 -22.276334,0 0,62.638417 -20.95299,0 0,-41.464863 -9.04287,0 10.586775,-21.394113 z"
    id="path3049"
    inkscape:connector-curvature="0"
    sodipodi:nodetypes="ccsccccccccc" />
  <g
    id="g3898"
    transform="scale(2.2196062,2.2196062)">
    <path
      d="m 47.937238,17.527712 c -0.49137,0.12284 -1.143956,0.253358 -1.95776,0.391552 -0.798468,0.138195 -1.727443,0.207292 -2.786929,0.207293 -0.921305,-10e-7 -1.696731,-0.130518 -2.32628,-0.391552 -0.629558,-0.27639 -1.136272,-0.660264 -1.520143,-1.151624 -0.383877,-0.491358 -0.660267,-1.067169 -0.829169,-1.727435 -0.168907,-0.675616 -0.253359,-1.420332 -0.253358,-2.23415 l 0,-6.7254823 2.14202,0 0,6.2648323 c -3e-6,1.458728 0.230321,2.502865 0.690975,3.132417 0.460644,0.629556 1.23607,0.944333 2.326279,0.944331 0.230318,2e-6 0.46832,-0.0077 0.714007,-0.02303 0.245672,-0.01535 0.475996,-0.03071 0.690974,-0.04606 0.214961,-0.03071 0.406898,-0.05374 0.575812,-0.0691 0.184251,-0.03071 0.314768,-0.06142 0.391552,-0.09213 l 0,-10.1112553 2.14202,0 0,11.6313983"
      style="font-size:23.03247261px;font-style:normal;font-variant:normal;font-weight:normal;font-stretch:normal;line-height:125%;letter-spacing:0px;word-spacing:0px;fill:#dd4713;fill-opacity:1;stroke:none;font-family:Ubuntu;-inkscape-font-specification:Ubuntu"
      id="path3871"
      inkscape:connector-curvature="0" />
    <path
      d="m 53.207382,6.4260606 c 0.26103,-0.1688932 0.652582,-0.3454753 1.174656,-0.5297469 0.537419,-0.1842476 1.151617,-0.2763774 1.842598,-0.2763897 0.859871,1.23e-5 1.619942,0.153562 2.280214,0.4606495 0.67561,0.3071111 1.243743,0.7370502 1.704403,1.2898185 0.460638,0.5527892 0.806125,1.2130528 1.036462,1.9807926 0.245667,0.7677564 0.368507,1.6122804 0.368519,2.5335724 -1.2e-5,0.967368 -0.145884,1.842602 -0.437617,2.625701 -0.276401,0.767752 -0.67563,1.420338 -1.197688,1.957761 -0.52208,0.537425 -1.151634,0.952009 -1.888663,1.243753 -0.737047,0.291745 -1.566215,0.437617 -2.487507,0.437617 -0.998079,0 -1.88099,-0.0691 -2.648734,-0.207292 -0.767752,-0.138195 -1.397306,-0.27639 -1.888663,-0.414585 l 0,-17.15919172 2.14202,-0.36851956283681 0,6.42605988283681 m 0,9.5815084 c 0.214965,0.06142 0.514387,0.122842 0.898266,0.18426 0.399224,0.04607 0.890583,0.0691 1.474078,0.0691 1.151617,2e-6 2.072915,-0.376195 2.763897,-1.128591 0.690965,-0.767745 1.036451,-1.85027 1.036461,-3.247578 -10e-6,-0.614193 -0.06143,-1.190004 -0.184259,-1.727436 C 59.072975,9.619905 58.87336,9.159256 58.59698,8.7753728 58.320582,8.3761528 57.95974,8.0690534 57.514454,7.8540739 57.084507,7.6237594 56.562438,7.5085972 55.948246,7.5085868 c -0.583495,1.04e-5 -1.120919,0.099818 -1.612273,0.2994221 -0.491364,0.1996247 -0.867561,0.4069167 -1.128591,0.6218768 l 0,7.5776833"
      style="font-size:23.03247261px;font-style:normal;font-variant:normal;font-weight:normal;font-stretch:normal;line-height:125%;letter-spacing:0px;word-spacing:0px;fill:#dd4713;fill-opacity:1;stroke:none;font-family:Ubuntu;-inkscape-font-specification:Ubuntu"
      id="path3873"
      inkscape:connector-curvature="0" />
    <path
      d="m 73.905311,17.527712 c -0.49137,0.12284 -1.143957,0.253358 -1.95776,0.391552 -0.798468,0.138195 -1.727443,0.207292 -2.78693,0.207293 -0.921304,-10e-7 -1.69673,-0.130518 -2.326279,-0.391552 -0.629558,-0.27639 -1.136272,-0.660264 -1.520143,-1.151624 -0.383877,-0.491358 -0.660267,-1.067169 -0.829169,-1.727435 -0.168907,-0.675616 -0.253359,-1.420332 -0.253358,-2.23415 l 0,-6.7254823 2.14202,0 0,6.2648323 c -4e-6,1.458728 0.230321,2.502865 0.690974,3.132417 0.460645,0.629556 1.236071,0.944333 2.32628,0.944331 0.230318,2e-6 0.46832,-0.0077 0.714007,-0.02303 0.245672,-0.01535 0.475996,-0.03071 0.690974,-0.04606 0.214961,-0.03071 0.406898,-0.05374 0.575812,-0.0691 0.184251,-0.03071 0.314768,-0.06142 0.391552,-0.09213 l 0,-10.1112553 2.14202,0 0,11.6313983"
      style="font-size:23.03247261px;font-style:normal;font-variant:normal;font-weight:normal;font-stretch:normal;line-height:125%;letter-spacing:0px;word-spacing:0px;fill:#dd4713;fill-opacity:1;stroke:none;font-family:Ubuntu;-inkscape-font-specification:Ubuntu"
      id="path3875"
      inkscape:connector-curvature="0" />
    <path
      d="m 77.314487,6.2418008 c 0.491357,-0.1228281 1.143943,-0.2533453 1.95776,-0.391552 0.81381,-0.1381827 1.750463,-0.2072801 2.809962,-0.2072923 0.952001,1.22e-5 1.742782,0.1382069 2.372345,0.4145845 0.629544,0.2610463 1.128581,0.6372429 1.497111,1.1285912 0.383863,0.4760146 0.652575,1.0518259 0.806136,1.7274354 0.153538,0.6756275 0.230313,1.4203434 0.230325,2.2341494 l 0,6.725482 -2.14202,0 0,-6.264832 c -1e-5,-0.737032 -0.05375,-1.366586 -0.161227,-1.8886628 C 84.59274,9.1976435 84.431512,8.7753819 84.201197,8.4529182 83.970863,8.1304733 83.663764,7.9001488 83.279898,7.761944 82.896016,7.6084044 82.420012,7.5316296 81.851884,7.5316193 c -0.23033,1.03e-5 -0.468332,0.00769 -0.714006,0.023032 -0.245685,0.015365 -0.483687,0.038398 -0.714007,0.069097 -0.214974,0.015365 -0.414589,0.038398 -0.598844,0.069097 -0.168909,0.03072 -0.291749,0.053752 -0.36852,0.069097 l 0,10.1112547 -2.14202,0 0,-11.6313979"
      style="font-size:23.03247261px;font-style:normal;font-variant:normal;font-weight:normal;font-stretch:normal;line-height:125%;letter-spacing:0px;word-spacing:0px;fill:#dd4713;fill-opacity:1;stroke:none;font-family:Ubuntu;-inkscape-font-specification:Ubuntu"
      id="path3877"
      inkscape:connector-curvature="0" />
    <path
      d="m 91.700827,5.8963137 4.537397,0 0,1.7965329 -4.537397,0 0,5.5277934 c -3e-6,0.598848 0.04606,1.097885 0.138195,1.497111 0.09213,0.383877 0.230321,0.690976 0.414585,0.921299 0.184255,0.214971 0.414579,0.368521 0.690974,0.460649 0.276384,0.09213 0.598838,0.138197 0.967364,0.138195 0.644902,2e-6 1.159294,-0.0691 1.543175,-0.207292 0.399222,-0.153548 0.675611,-0.261033 0.829169,-0.322455 l 0.414585,1.7735 c -0.214978,0.107486 -0.591175,0.238003 -1.128591,0.391552 -0.537432,0.168905 -1.15163,0.253357 -1.842598,0.253358 -0.813819,-10e-7 -1.489438,-0.09981 -2.026858,-0.299422 -0.522072,-0.21497 -0.944334,-0.529747 -1.266786,-0.944332 -0.322456,-0.414583 -0.552781,-0.921297 -0.690974,-1.520143 -0.122841,-0.614196 -0.184261,-1.320525 -0.18426,-2.118988 l 0,-10.6870668 2.14202,-0.3685196 0,3.7082281"
      style="font-size:23.03247261px;font-style:normal;font-variant:normal;font-weight:normal;font-stretch:normal;line-height:125%;letter-spacing:0px;word-spacing:0px;fill:#dd4713;fill-opacity:1;stroke:none;font-family:Ubuntu;-inkscape-font-specification:Ubuntu"
      id="path3879"
      inkscape:connector-curvature="0" />
    <path
      d="m 108.21836,17.527712 c -0.49137,0.12284 -1.14395,0.253358 -1.95776,0.391552 -0.79847,0.138195 -1.72744,0.207292 -2.78693,0.207293 -0.9213,-10e-7 -1.69673,-0.130518 -2.32628,-0.391552 -0.62955,-0.27639 -1.13627,-0.660264 -1.52014,-1.151624 -0.383877,-0.491358 -0.660267,-1.067169 -0.829169,-1.727435 -0.168907,-0.675616 -0.253359,-1.420332 -0.253357,-2.23415 l 0,-6.7254823 2.142016,0 0,6.2648323 c 0,1.458728 0.23032,2.502865 0.69098,3.132417 0.46064,0.629556 1.23607,0.944333 2.32628,0.944331 0.23032,2e-6 0.46832,-0.0077 0.714,-0.02303 0.24568,-0.01535 0.476,-0.03071 0.69098,-0.04606 0.21496,-0.03071 0.4069,-0.05374 0.57581,-0.0691 0.18425,-0.03071 0.31477,-0.06142 0.39155,-0.09213 l 0,-10.1112553 2.14202,0 0,11.6313983"
      style="font-size:23.03247261px;font-style:normal;font-variant:normal;font-weight:normal;font-stretch:normal;line-height:125%;letter-spacing:0px;word-spacing:0px;fill:#dd4713;fill-opacity:1;stroke:none;font-family:Ubuntu;-inkscape-font-specification:Ubuntu"
      id="path3881"
      inkscape:connector-curvature="0" />
    <path
      d="m 48.692644,28.027864 c -1.2e-5,0.952013 -0.138207,1.811892 -0.414584,2.579636 -0.276402,0.767752 -0.667953,1.428016 -1.174656,1.980793 -0.49137,0.55278 -1.082536,0.982719 -1.773501,1.289819 -0.690982,0.291744 -1.443376,0.437616 -2.257182,0.437617 -0.81382,-10e-7 -1.566214,-0.145873 -2.257183,-0.437617 -0.690978,-0.3071 -1.289821,-0.737039 -1.796532,-1.289819 -0.491362,-0.552777 -0.875236,-1.213041 -1.151624,-1.980793 -0.276391,-0.767744 -0.414586,-1.627623 -0.414585,-2.579636 -10e-7,-0.936647 0.138194,-1.788848 0.414585,-2.556605 0.276388,-0.783095 0.660262,-1.451036 1.151624,-2.003825 0.506711,-0.552768 1.105554,-0.97503 1.796532,-1.266786 0.690969,-0.307088 1.443363,-0.460637 2.257183,-0.46065 0.813806,1.3e-5 1.5662,0.153562 2.257182,0.46065 0.690965,0.291756 1.282131,0.714018 1.773501,1.266786 0.506703,0.552789 0.898254,1.22073 1.174656,2.003825 0.276377,0.767757 0.414572,1.619958 0.414584,2.556605 m -2.23415,0 c -1e-5,-1.351232 -0.307109,-2.418402 -0.921299,-3.201514 -0.598853,-0.798449 -1.420343,-1.197678 -2.464474,-1.197689 -1.044145,1.1e-5 -1.873313,0.39924 -2.487507,1.197689 -0.598848,0.783112 -0.89827,1.850282 -0.898267,3.201514 -3e-6,1.351243 0.299419,2.42609 0.898267,3.224546 0.614194,0.783106 1.443362,1.174657 2.487507,1.174656 1.044131,10e-7 1.865621,-0.39155 2.464474,-1.174656 0.61419,-0.798456 0.921289,-1.873303 0.921299,-3.224546"
      style="font-size:23.03247261px;font-style:normal;font-variant:normal;font-weight:normal;font-stretch:normal;line-height:125%;letter-spacing:0px;word-spacing:0px;fill:#333333;fill-opacity:1;stroke:none;font-family:Ubuntu;-inkscape-font-specification:Ubuntu"
      id="path3883"
      inkscape:connector-curvature="0" />
    <path
      d="m 51.144189,22.384908 c 0.491357,-0.122828 1.143943,-0.253346 1.95776,-0.391552 0.813809,-0.138183 1.750462,-0.20728 2.809962,-0.207293 0.952001,1.3e-5 1.742782,0.138207 2.372344,0.414585 0.629545,0.261046 1.128581,0.637243 1.497111,1.128591 0.383864,0.476015 0.652576,1.051826 0.806136,1.727436 0.153539,0.675627 0.230314,1.420343 0.230325,2.234149 l 0,6.725482 -2.14202,0 0,-6.264832 c -9e-6,-0.737032 -0.05375,-1.366586 -0.161227,-1.888663 -0.09214,-0.522061 -0.253366,-0.944322 -0.483682,-1.266786 -0.230333,-0.322445 -0.537433,-0.552769 -0.921299,-0.690974 -0.383882,-0.15354 -0.859886,-0.230314 -1.428013,-0.230325 -0.230331,1.1e-5 -0.468333,0.0077 -0.714007,0.02303 -0.245685,0.01536 -0.483687,0.0384 -0.714006,0.0691 -0.214975,0.01536 -0.41459,0.0384 -0.598845,0.0691 -0.168909,0.03072 -0.291748,0.05375 -0.368519,0.0691 l 0,10.111255 -2.14202,0 0,-11.631398"
      style="font-size:23.03247261px;font-style:normal;font-variant:normal;font-weight:normal;font-stretch:normal;line-height:125%;letter-spacing:0px;word-spacing:0px;fill:#333333;fill-opacity:1;stroke:none;font-family:Ubuntu;-inkscape-font-specification:Ubuntu"
      id="path3885"
      inkscape:connector-curvature="0" />
    <path
      d="m 63.139815,28.050896 c -2e-6,-1.059487 0.153548,-1.980785 0.460649,-2.763897 0.307098,-0.798449 0.714004,-1.458713 1.220721,-1.980792 0.506711,-0.522059 1.0902,-0.91361 1.750468,-1.174656 0.660259,-0.261023 1.335877,-0.39154 2.026858,-0.391553 1.612264,1.3e-5 2.848339,0.506727 3.708228,1.520144 0.859867,0.998083 1.289806,2.525902 1.289818,4.583462 -1.2e-5,0.09214 -1.2e-5,0.214975 0,0.368519 -1.2e-5,0.138201 -0.0077,0.268718 -0.02303,0.391552 l -8.199561,0 c 0.09213,1.243758 0.452969,2.188088 1.082527,2.832994 0.629549,0.644912 1.612267,0.967366 2.948156,0.967364 0.752386,2e-6 1.38194,-0.06142 1.888663,-0.184259 0.522059,-0.138193 0.913611,-0.268711 1.174656,-0.391552 l 0.299422,1.796532 c -0.261045,0.138195 -0.721694,0.284068 -1.381948,0.437617 -0.644918,0.15355 -1.381957,0.230325 -2.211118,0.230325 -1.044145,0 -1.950088,-0.15355 -2.717831,-0.460649 -0.752398,-0.322454 -1.374274,-0.760071 -1.865631,-1.312851 -0.491361,-0.552778 -0.85988,-1.205364 -1.105558,-1.95776 -0.230326,-0.767745 -0.345489,-1.604591 -0.345487,-2.51054 m 8.222592,-1.174656 c 0.01535,-0.967356 -0.230334,-1.758137 -0.737039,-2.372345 -0.491367,-0.629544 -1.174663,-0.944321 -2.04989,-0.944331 -0.491365,10e-6 -0.928982,0.09982 -1.312851,0.299422 -0.368524,0.18427 -0.683301,0.429949 -0.944331,0.737039 -0.261039,0.307109 -0.468331,0.660273 -0.621877,1.059494 -0.138198,0.399237 -0.230328,0.806144 -0.27639,1.220721 l 5.942378,0"
      style="font-size:23.03247261px;font-style:normal;font-variant:normal;font-weight:normal;font-stretch:normal;line-height:125%;letter-spacing:0px;word-spacing:0px;fill:#333333;fill-opacity:1;stroke:none;font-family:Ubuntu;-inkscape-font-specification:Ubuntu"
      id="path3887"
      inkscape:connector-curvature="0" />
  </g>
</svg>
