<svg xmlns="http://www.w3.org/2000/svg" viewBox="0 0 176.26 176.26"><path d="M49.41 8.98c-.07.04-.14.07-.22.1 0 0 .19-.09.22-.1zM88.13 0C77.41 0 67.14 1.93 57.64 5.44l-.01-.02c-2.87 1.06-5.52 2.2-8.23 3.55 2.82-1.32 5 1.58 5.15 6.59v72.56c0 18.54 15.03 33.57 33.57 33.57s33.57-15.03 33.57-33.57V52.79h-10.35L134.6 24.8l.44-.52.25-.31 23.95 28.82h-10.36V84.9c.05 1.07.09 2.15.09 3.24 0 33.61-27.25 60.85-60.85 60.85-33.61 0-60.85-27.24-60.85-60.85 0-.98.03-1.95.08-2.92V35.93c0-7.15-3.51-7.76-4.67-6.75l-.04.03C8.58 44.82 0 65.46 0 88.13c0 48.67 39.46 88.13 88.13 88.13s88.13-39.46 88.13-88.13S136.8 0 88.13 0z" fill="#db6939"/></svg>