<svg xmlns="http://www.w3.org/2000/svg" viewBox="0 0 344.813 500">
  <path fill="#6fe68a" d="M218.768 467.781c-14.177 5.155-29.641 6.445-45.107 6.445h-2.577c-15.466 0-30.93-2.579-45.108-7.734-7.731-2.577-14.175 2.578-16.753 9.022-2.577 7.732 2.578 15.465 9.022 16.754 16.753 5.154 34.796 7.732 52.839 7.732h2.577c18.043 0 36.086-2.578 52.839-7.731 6.444-2.579 10.311-10.312 7.733-18.043-2.577-3.867-9.021-7.734-15.465-6.445Zm117.277-344.099s0-1.289 0 0C306.403 29.602 208.458-21.949 118.244 8.983 66.694 27.025 25.453 69.554 8.699 123.682-6.766 170.078-1.61 231.938 24.165 289.932c33.508 78.615 94.079 134.032 148.207 134.032h1.289c54.128 0 114.699-55.417 148.208-134.032 24.486-57.994 29.641-119.854 14.176-166.25m-79.903-67.016c-27.065-1.289-56.706 11.598-85.058 34.796-28.353-23.198-57.995-36.086-85.059-34.795 51.551-37.375 119.856-37.375 170.117 0m-61.86 333.788c-14.177 6.445-30.931 6.445-45.108 0-46.395-21.908-55.416-110.833-20.619-192.025 10.309-25.775 24.486-48.973 42.529-68.304 18.043 20.619 32.219 43.817 42.529 68.304 36.086 82.481 27.064 170.117-19.331 192.025M47.362 278.333c-21.909-51.55-27.065-105.678-14.176-146.919 6.444-20.62 19.332-36.086 34.796-43.817 23.198-10.311 54.129-1.29 85.059 23.197-19.332 23.197-36.086 48.973-47.684 76.037-23.198 55.417-28.353 113.411-18.043 157.229-16.753-19.332-29.641-41.24-39.952-65.727m248.732 0c-10.311 23.198-23.198 45.107-38.664 65.727 10.311-43.818 5.156-101.812-18.043-157.229-11.598-28.352-28.352-54.129-47.683-76.037 29.641-24.487 60.571-33.508 85.058-21.909 15.465 7.732 27.065 21.909 34.796 43.817 11.599 39.953 6.444 94.081-15.464 145.631Z"/>
</svg>
