<svg xmlns="http://www.w3.org/2000/svg" class="sc-fd180167-0 jepyKs" color="n01" viewBox="0 0 500 500">
  <path fill="#6fe68a" d="M296.353 467.745c-14.174 5.154-29.636 6.443-45.099 6.443h-2.577c-15.463 0-30.925-2.578-45.1-7.732-7.73-2.577-14.173 2.577-16.75 9.02-2.577 7.731 2.577 15.463 9.02 16.751 16.75 5.154 34.79 7.731 52.83 7.731h2.577c18.04 0 36.08-2.577 52.83-7.73 6.443-2.578 10.309-10.31 7.732-18.04-2.577-3.866-9.02-7.732-15.463-6.443zm117.258-344.042s0-1.289 0 0C383.974 29.639 286.045-21.903 195.846 9.023c-51.541 18.039-92.775 60.561-109.526 114.68-15.463 46.388-10.308 108.238 15.463 166.222 33.502 78.602 94.063 134.01 148.182 134.01h1.289c54.119 0 114.68-55.408 148.183-134.01 24.482-57.984 29.636-119.834 14.174-166.222m-79.89-67.005c-27.06-1.288-56.696 11.597-85.044 34.791-28.348-23.194-57.985-36.08-85.044-34.79 51.542-37.368 119.835-37.368 170.088 0m-61.85 333.733c-14.174 6.443-30.925 6.443-45.1 0-46.387-21.905-55.407-110.815-20.616-191.993 10.308-25.771 24.482-48.965 42.522-68.293 18.04 20.616 32.214 43.81 42.522 68.293 36.08 82.467 27.06 170.088-19.328 191.993M124.976 278.328c-21.905-51.541-27.06-105.66-14.174-146.894 6.443-20.617 19.329-36.08 34.791-43.81 23.194-10.309 54.12-1.289 85.044 23.193-19.328 23.194-36.08 48.965-47.676 76.025-23.194 55.407-28.348 113.392-18.04 157.202-16.75-19.328-29.636-41.233-39.945-65.716m248.69 0c-10.309 23.194-23.194 45.1-38.657 65.716 10.309-43.81 5.155-101.795-18.04-157.202-11.596-28.348-28.347-54.12-47.675-76.025 29.636-24.482 60.561-33.502 85.044-21.905 15.462 7.731 27.06 21.905 34.79 43.81 11.597 39.946 6.443 94.065-15.462 145.606z"/>
</svg>
