<svg width="78" height="48" fill="none" xmlns="http://www.w3.org/2000/svg"><g clip-path="url(#clip0_405_89503)" fill="#5A2989"><path fill-rule="evenodd" clip-rule="evenodd" d="M52.159 16.043v2.205h-3.73v6.308c0 1.34.78 2.011 2.064 2.011a8.038 8.038 0 002.063-.295l.342 2.232a8.648 8.648 0 01-2.766.421c-2.652 0-4.308-1.479-4.308-4.045v-6.63H43.57v-2.205h2.295v-4.05h2.542v4.048h3.753zm-14.325 5.003c-1.592-.33-2.184-.724-2.184-1.51 0-.932.947-1.48 2.858-1.48 1.318 0 2.624.248 3.847.737l.277-2.263a11.574 11.574 0 00-4.256-.76c-3.163 0-5.271 1.576-5.271 3.715 0 1.942 1.179 3.214 3.41 3.664l1.872.381c1.634.33 2.321.79 2.321 1.642 0 .974-.884 1.45-2.78 1.45a11.37 11.37 0 01-4.323-.913l-.316 2.253c1.095.592 2.884.942 4.808.942 3.069 0 5.15-1.22 5.15-3.771 0-2.192-1.37-3.271-3.94-3.795l-1.473-.295v.003z"/><path fill-rule="evenodd" clip-rule="evenodd" d="M59.236 26.473a3.996 3.996 0 01-1.598-.285 4.03 4.03 0 01-2.529-3.858c.003-.816.247-1.61.7-2.287a4.107 4.107 0 016.324-.616 4.127 4.127 0 01.892 4.488 4.113 4.113 0 01-3.787 2.555l-.002.003zm0-10.693c-3.848 0-6.725 2.876-6.725 6.569 0 3.692 2.874 6.569 6.722 6.569 3.848 0 6.716-2.877 6.716-6.57 0-3.692-2.868-6.568-6.713-6.568z"/><path fill-rule="evenodd" clip-rule="evenodd" d="M68.12 16.043l3.28 4.44 3.279-4.44h3.003l-4.664 6.171 4.769 6.44h-3.003L71.4 23.936l-3.388 4.718h-3.005l4.771-6.44-4.666-6.171h3.008z"/><path d="M25.918 26.578a4.08 4.08 0 01-4.177-4.163c0-2.325 1.737-4.293 4.174-4.298 2.434 0 4.06 1.97 4.06 4.297s-1.62 4.164-4.055 4.164h-.003zm.313-10.796c-2.15 0-3.572.787-4.509 1.982v-1.719h-2.608V33.91h2.608v-6.985c.937 1.182 2.359 1.984 4.509 1.984 3.595 0 6.35-2.626 6.35-6.505 0-3.88-2.755-6.622-6.35-6.622z"/><path fill-rule="evenodd" clip-rule="evenodd" d="M5.703 22.801a8.252 8.252 0 002.608-3.013v3.358c0 2.09 1.145 3.298 3.082 3.298 1.937 0 3.558-1.206 3.558-3.298v-7.095h2.613V28.66h-2.623v-1.593c-.422.645-1.619 1.85-3.95 1.85-3.451 0-5.28-2.155-5.28-5.216l-.005-.902-.003.002z"/><path d="M0 21.714v2.53a8.364 8.364 0 005.869-2.406 8.13 8.13 0 002.434-5.798H5.745a5.647 5.647 0 01-1.684 4.008 5.786 5.786 0 01-4.064 1.666H0zm6.608 16.435v4.958h-.897V38.15h.897zm1.506 2.779v2.18h-.877v-3.72h.837v.633h.045c.084-.208.221-.374.41-.498.187-.124.422-.184.698-.184.258 0 .482.055.671.163.192.11.34.268.445.476.105.208.158.46.155.758v2.369h-.876v-2.232c0-.247-.063-.442-.192-.584-.13-.14-.306-.21-.532-.21a.829.829 0 00-.408.1.705.705 0 00-.279.289.98.98 0 00-.1.458l.003.002zm6.161-1.539l-1.324 3.718h-.969L10.66 39.39h.934l.855 2.763h.04l.858-2.763h.931-.002zm1.815 3.79a1.91 1.91 0 01-.965-.235 1.55 1.55 0 01-.624-.663 2.22 2.22 0 01-.218-1.013c0-.39.073-.718.218-1.008.145-.29.35-.516.613-.679a1.72 1.72 0 01.927-.242c.229 0 .444.037.65.11a1.5 1.5 0 01.913.924c.09.237.137.519.137.845v.268h-3.048v-.59h2.208a.932.932 0 00-.108-.45.802.802 0 00-.74-.423.85.85 0 00-.47.13.888.888 0 00-.316.339.97.97 0 00-.116.458v.515c0 .216.04.403.119.556a.84.84 0 00.331.352.984.984 0 00.5.121c.126 0 .242-.018.348-.055a.745.745 0 00.268-.16.645.645 0 00.171-.264l.818.093c-.052.215-.15.405-.294.565-.145.16-.33.285-.553.374-.224.09-.482.132-.768.132zm5.027-2.809l-.8.087a.625.625 0 00-.342-.397.83.83 0 00-.345-.066.835.835 0 00-.458.119c-.123.079-.184.181-.181.307 0 .108.04.198.12.264.082.068.217.123.406.166l.634.136c.353.077.614.198.787.36.171.164.258.38.26.648 0 .234-.07.44-.204.619a1.314 1.314 0 01-.561.418c-.24.1-.513.15-.824.15-.455 0-.82-.094-1.1-.287a1.158 1.158 0 01-.497-.8l.855-.081c.04.168.121.294.247.379.127.087.29.129.493.129.202 0 .376-.042.502-.13.127-.084.19-.191.19-.318a.337.337 0 00-.121-.263.867.867 0 00-.38-.16l-.633-.135c-.358-.073-.622-.2-.793-.376a.923.923 0 01-.255-.671c0-.23.06-.43.187-.598.126-.168.303-.3.529-.392.226-.092.49-.14.787-.14.437 0 .779.093 1.031.28.25.187.406.437.466.752zm2.356-.981v.679h-2.137v-.68h2.137zm-1.611-.89h.876v3.492c0 .119.019.208.056.271a.27.27 0 00.144.127c.06.02.127.034.198.034a.86.86 0 00.15-.013 2.53 2.53 0 00.105-.021l.147.684a1.71 1.71 0 01-.516.087 1.433 1.433 0 01-.592-.1.907.907 0 01-.418-.342 1.035 1.035 0 01-.153-.582V38.5h.003zm3.461 4.608V38.15h1.86c.382 0 .7.066.961.197.258.132.455.319.59.556.134.236.2.515.2.831 0 .316-.069.595-.203.827a1.335 1.335 0 01-.595.54c-.26.125-.581.189-.963.189h-1.324v-.745h1.203c.224 0 .405-.032.547-.092a.649.649 0 00.316-.274.888.888 0 00.103-.445.906.906 0 00-.106-.452.661.661 0 00-.318-.285 1.32 1.32 0 00-.55-.097h-.824v4.208h-.897zm2.56-2.247l1.23 2.247H28.11l-1.206-2.247h.982-.002zm1.972-2a.51.51 0 01-.358-.14.446.446 0 01-.15-.337c0-.131.05-.242.15-.334a.51.51 0 01.358-.14c.14 0 .26.048.36.14.1.095.15.205.15.337 0 .132-.05.242-.15.334a.511.511 0 01-.36.14zm-.44 4.247V39.39h.877v3.718h-.877zm3.087 1.472a2.32 2.32 0 01-.81-.127 1.439 1.439 0 01-.545-.34 1.211 1.211 0 01-.287-.47l.79-.192a.808.808 0 00.428.394c.116.048.261.072.437.072.248 0 .456-.061.619-.182.163-.121.245-.319.245-.592v-.706h-.045c-.045.09-.11.185-.198.28a1.02 1.02 0 01-.342.239 1.304 1.304 0 01-.531.097c-.284 0-.545-.068-.777-.202a1.423 1.423 0 01-.552-.606c-.137-.268-.206-.605-.206-1.01 0-.406.069-.753.206-1.035a1.53 1.53 0 01.552-.642 1.44 1.44 0 01.777-.218c.218 0 .397.037.54.11.141.074.252.16.336.264.084.102.147.2.192.29h.048v-.617h.863v3.78c0 .318-.076.581-.23.789a1.385 1.385 0 01-.62.468c-.263.106-.56.156-.895.156h.005zm.008-2.214a.793.793 0 00.474-.137.832.832 0 00.297-.389c.069-.168.103-.374.103-.61 0-.237-.034-.44-.1-.616a.892.892 0 00-.295-.41.774.774 0 00-.479-.148c-.19 0-.358.05-.49.152a.925.925 0 00-.294.419c-.066.176-.1.376-.1.602 0 .227.034.427.1.598a.853.853 0 00.297.397.805.805 0 00.484.142h.003zm3.208-1.437v2.18h-.876v-4.96h.858v1.872h.044a1.07 1.07 0 01.406-.497c.184-.121.416-.184.7-.184.258 0 .484.055.676.163.192.108.34.265.448.473.105.208.158.464.158.764v2.368h-.877v-2.232c0-.25-.063-.444-.192-.584-.129-.14-.308-.21-.54-.21a.867.867 0 00-.415.1.708.708 0 00-.287.29.95.95 0 00-.103.457zm4.853-1.539v.679h-2.137v-.68h2.137zm-1.61-.89h.876v3.492a.54.54 0 00.055.271.269.269 0 00.145.127.62.62 0 00.197.034.859.859 0 00.15-.013l.106-.021.147.684a1.71 1.71 0 01-.516.087 1.433 1.433 0 01-.592-.1.908.908 0 01-.419-.342 1.035 1.035 0 01-.152-.582V38.5h.003zm3.065 3.929l-.031.266c-.024.203-.063.41-.121.621-.058.21-.119.406-.18.582-.062.176-.112.318-.152.418h-.592c.024-.1.053-.231.092-.402.04-.169.08-.36.116-.571a5.68 5.68 0 00.076-.645l.016-.271h.774l.002.002zm2.843-4.279v4.958h-.898V38.15h.898zm1.508 2.779v2.18H45.5v-3.72h.837v.633h.045c.084-.208.221-.374.41-.498.188-.124.422-.184.698-.184.258 0 .482.055.671.163.192.11.34.268.445.476.105.208.158.46.155.758v2.369h-.876v-2.232c0-.247-.063-.442-.192-.584-.13-.14-.306-.21-.532-.21a.828.828 0 00-.408.1.705.705 0 00-.279.289.98.98 0 00-.1.458l.003.002zm6.161-1.539l-1.324 3.718h-.968l-1.324-3.718h.934l.855 2.763h.04l.858-2.763h.931-.002zm1.816 3.79a1.91 1.91 0 01-.966-.235 1.55 1.55 0 01-.624-.663 2.22 2.22 0 01-.218-1.013c0-.39.073-.718.218-1.008.145-.29.35-.516.613-.679.264-.163.571-.242.927-.242.229 0 .444.037.65.11a1.5 1.5 0 01.913.924c.09.237.137.519.137.845v.268h-3.048v-.59h2.208a.932.932 0 00-.108-.45.802.802 0 00-.74-.423.85.85 0 00-.47.13.888.888 0 00-.316.339.97.97 0 00-.116.458v.515c0 .216.04.403.119.556a.84.84 0 00.331.352.984.984 0 00.5.121c.127 0 .242-.018.348-.055a.745.745 0 00.268-.16.644.644 0 00.171-.264l.819.093c-.053.215-.15.405-.295.565-.145.16-.33.285-.553.374-.224.09-.481.132-.768.132zm5.026-2.809l-.8.087a.625.625 0 00-.342-.397.83.83 0 00-.345-.066.835.835 0 00-.458.119c-.123.079-.184.181-.181.307 0 .108.04.198.12.264.082.068.217.123.406.166l.634.136c.353.077.614.198.787.36.171.164.258.38.26.648 0 .234-.07.44-.204.619a1.314 1.314 0 01-.56.418c-.24.1-.514.15-.825.15-.455 0-.82-.094-1.1-.287a1.159 1.159 0 01-.497-.8l.855-.081c.04.168.121.294.247.379.127.087.29.129.493.129.202 0 .376-.042.502-.13.127-.084.19-.191.19-.318a.337.337 0 00-.121-.263.867.867 0 00-.38-.16l-.633-.135c-.358-.073-.621-.2-.793-.376a.923.923 0 01-.255-.671c0-.23.06-.43.187-.598.126-.168.303-.3.529-.392.226-.092.49-.14.787-.14.437 0 .779.093 1.031.28.25.187.406.437.466.752zm2.356-.981v.679h-2.137v-.68h2.137zm-1.61-.89h.876v3.492c0 .119.018.208.055.271a.27.27 0 00.145.127.62.62 0 00.197.034.86.86 0 00.15-.013l.105-.021.147.684a1.71 1.71 0 01-.516.087 1.433 1.433 0 01-.591-.1.908.908 0 01-.419-.342 1.035 1.035 0 01-.152-.582V38.5h.002zm7.534-.35v4.958h-.8l-2.337-3.376h-.042v3.376h-.898V38.15h.803l2.334 3.38h.045v-3.38h.895zm2.253 5.029c-.364 0-.68-.079-.945-.24a1.622 1.622 0 01-.619-.67 2.212 2.212 0 01-.218-1.008c0-.384.074-.721.218-1.01.145-.29.353-.514.619-.675.266-.16.581-.24.945-.24.363 0 .679.08.944.24.266.161.474.385.619.674.145.29.218.627.218 1.01 0 .385-.073.722-.218 1.009a1.64 1.64 0 01-.619.67c-.265.161-.581.24-.944.24zm.005-.702a.77.77 0 00.495-.163.961.961 0 00.297-.44c.066-.184.097-.39.097-.616a1.83 1.83 0 00-.097-.618.984.984 0 00-.297-.443.743.743 0 00-.495-.163.784.784 0 00-.503.163.984.984 0 00-.297.443 1.837 1.837 0 00-.097.618c0 .227.031.432.097.616a.962.962 0 00.297.44c.134.107.3.163.503.163zm2.876.631l-1.05-3.718h.892l.653 2.616h.034l.669-2.616h.884l.669 2.6h.036l.645-2.6h.895l-1.053 3.718h-.913l-.697-2.513h-.05l-.698 2.513h-.916zm4.672.053a.525.525 0 01-.38-.155.506.506 0 01-.154-.38c0-.144.05-.268.155-.373a.525.525 0 01.379-.155c.147 0 .266.052.37.155a.502.502 0 01.161.374.544.544 0 01-.534.532l.003.002z"/></g><defs><clipPath id="clip0_405_89503"><path fill="#fff" transform="translate(0 11.995)" d="M0 0h78v35.995H0z"/></clipPath></defs></svg>