<svg xmlns="http://www.w3.org/2000/svg" viewBox="0 0 90 90"><path fill="#FFF" d="M85.38 31.74H4.62a2.91 2.91 0 00-2.9 2.9v19.19a2.91 2.91 0 002.9 2.9H75.9c2.4 3.03 4.72 6.12 7.13 9.15.37.51 1.16.6 1.15-.39v-8.75h1.21a2.91 2.91 0 002.9-2.9v-19.2a2.91 2.91 0 00-2.91-2.9z"/><path d="M85.38 30A4.62 4.62 0 0190 34.65v19.18a4.63 4.63 0 01-4.1 4.62v7.09c0 1.66-1.33 2.9-2.95 2.3-.57-.2-1.2-.7-1.81-1.5L75 58.47H4.63A4.62 4.62 0 010 53.83V34.65A4.62 4.62 0 014.62 30h80.76zm0 1.74H4.62a2.91 2.91 0 00-2.9 2.9v19.19a2.91 2.91 0 002.9 2.9H75.9c2.4 3.03 4.72 6.12 7.13 9.15.37.51 1.16.6 1.15-.39v-8.75h1.21a2.91 2.91 0 002.9-2.9v-19.2a2.91 2.91 0 00-2.91-2.9zm-4.4 3.58a3 3 0 012.97 3.02v12.22a3 3 0 01-2.97 3.01h-43.6a3 3 0 01-2.97-3.01V38.34a3 3 0 012.97-3.02h43.6zm-56.6 1.52c.69 0 1.33.07 1.95.22.6.15 1.14.4 1.6.74.46.34.82.8 1.08 1.35.25.57.39 1.27.39 2.11a4.6 4.6 0 01-.8 2.85 3.8 3.8 0 01-1.98 1.38l2.78 5.14a.5.5 0 01.09.18c.02.06.02.12.02.17 0 .16-.07.34-.17.52s-.24.33-.4.47c-.17.13-.35.24-.56.33-.21.09-.4.12-.6.12a1 1 0 01-.54-.17c-.16-.12-.3-.27-.42-.48l-3.02-5.85h-1.78v5.52c0 .29-.13.5-.42.65-.29.15-.6.22-.96.22a2 2 0 01-.95-.22c-.28-.15-.43-.36-.43-.65V37.68a.8.8 0 01.24-.59.87.87 0 01.64-.25h4.23zm-8.33 0c.18 0 .38.03.59.09.2.06.38.13.55.24.16.1.31.22.42.36.1.13.16.28.16.45l-.04.2-4.04 13.3c-.1.34-.31.56-.65.71-.33.15-.71.23-1.11.23-.41 0-.79-.08-1.12-.23a1.17 1.17 0 01-.66-.7L6.1 38.19l-.04-.21c0-.17.06-.33.16-.47.1-.13.25-.25.42-.36a2.3 2.3 0 011.14-.33c.24 0 .44.05.6.12.17.1.27.23.33.42l3.23 11.46 3.19-11.46c.06-.2.17-.34.33-.42.17-.06.36-.1.6-.1zm25.51-.06c-.66 0-1.27.09-1.86.27a3.88 3.88 0 00-2.56 2.32 5.87 5.87 0 00-.39 2.25v5.88c0 .88.12 1.63.38 2.25a3.88 3.88 0 002.56 2.32 6.47 6.47 0 003.86-.03c.6-.2 1.14-.48 1.59-.84.45-.36.79-.8 1.03-1.32s.36-1.1.36-1.72c0-.54-.1-.9-.33-1.08-.23-.18-.57-.27-1.04-.27-.35 0-.65.06-.91.2-.26.11-.39.34-.42.67a7.5 7.5 0 01-.09.73c-.05.26-.14.51-.29.74-.13.22-.34.42-.63.57-.28.15-.66.22-1.12.22-.72 0-1.28-.2-1.65-.58-.38-.4-.57-1-.57-1.83v-5.88c0-.82.2-1.44.57-1.83.38-.39.92-.58 1.62-.58.5 0 .88.07 1.17.22a1.82 1.82 0 01.91 1.26c.05.23.08.44.1.6.01.33.14.56.38.68.26.12.58.2.97.2.46 0 .79-.1 1.02-.28.22-.18.33-.54.33-1.08a3.6 3.6 0 00-1.38-2.9 4.58 4.58 0 00-1.58-.8 5.34 5.34 0 00-2.03-.36zm15.71 0c-.35 0-.66.06-.95.2-.28.13-.41.34-.41.64v5.5h-4.7v-5.5c0-.3-.13-.51-.42-.65-.28-.13-.6-.2-.93-.2-.34 0-.66.07-.95.2-.28.14-.41.35-.41.65v13.7c0 .29.13.5.41.65.29.15.59.22.95.22.33 0 .65-.07.93-.22.29-.15.42-.36.42-.65v-6.06h4.7v6.06c0 .29.13.5.42.65.28.15.58.22.94.22.33 0 .64-.07.93-.22.28-.15.42-.36.42-.65v-13.7c0-.3-.13-.51-.42-.65-.3-.12-.6-.2-.93-.2zm8.73-.12c-.39 0-.75.07-1.08.22a1.1 1.1 0 00-.64.7l-4.02 13.28-.05.2c0 .17.06.34.16.47.11.14.26.26.43.36.16.1.34.18.55.23.2.06.39.09.57.09.24 0 .43-.05.6-.12a.67.67 0 00.33-.42l.8-2.8h4.77l.79 2.8c.06.2.17.33.33.42.16.09.36.12.6.12.18 0 .38-.03.57-.1.2-.05.39-.13.56-.23.16-.1.3-.23.42-.36a.65.65 0 00.16-.45l-.04-.21-4.03-13.27a1.07 1.07 0 00-.64-.7 2.92 2.92 0 00-1.14-.23zm14.85.12h-8.82a.7.7 0 00-.64.39 1.79 1.79 0 00.01 1.7c.15.25.36.38.63.38h3.06v12.09c0 .28.13.5.42.64.28.15.58.23.94.23.33 0 .65-.08.94-.23.28-.15.42-.36.42-.64V39.25h3.04c.27 0 .5-.12.63-.37a1.83 1.83 0 00.02-1.7.7.7 0 00-.65-.4zM66 40.23l1.81 6.47h-3.63L66 40.23zm-41.63-.98h-2.32v4.52h2.5c.6-.03 1.1-.2 1.47-.5.41-.33.62-.91.62-1.74 0-.84-.21-1.42-.62-1.75a2.4 2.4 0 00-1.64-.53z"/></svg>
