<svg xmlns="http://www.w3.org/2000/svg" id="logo__on-white" version="1.1" width="95.999" height="95.999"><defs id="defs2275"><style id="style2273">.cls-4{fill:#007bfc}</style></defs><g id="sygnet" transform="translate(0 6.38)"><path d="M33.45 2.24A4.78 4.78 0 0029.39 0H4.8A4.8 4.8 0 00.74 7.36l5 8 32.71-5.12z" id="path2290" fill="#c9f4ff"/><path d="M38.49 10.24A4.78 4.78 0 0034.43 8H9.84a4.8 4.8 0 00-4.06 7.36l7.06 11.2 32.71-5.12z" id="path2292" fill="#51b9ff"/><path class="cls-4" d="M12.84 26.56A4.85 4.85 0 0112.1 24a4.8 4.8 0 014.8-4.8h24.59a4.78 4.78 0 014.06 2.24l22 34.9a4.8 4.8 0 010 5.12L55.26 81a4.8 4.8 0 01-8.12 0z" id="path2294" fill="#007bfc"/><path class="cls-4" d="M74.85 37A4.8 4.8 0 0083 37l4.2-6.7 8.06-12.79a4.8 4.8 0 000-5.12l-6.4-10.15A4.78 4.78 0 0084.8 0H60.21a4.8 4.8 0 00-4.06 7.36z" id="path2296" fill="#007bfc"/></g></svg>