<?xml version="1.0" encoding="utf-8"?><!-- Uploaded to: SVG Repo, www.svgrepo.com, Generator: SVG Repo Mixer Tools -->
<svg width="800px" height="800px" viewBox="0 0 1024 1024" xmlns="http://www.w3.org/2000/svg">
   <circle cx="512" cy="512" r="512" style="fill:#df1b1a"/>
   <path d="M512 256c-141 0-255.7 114.2-255.7 255.7C256.3 653.3 370.5 768 512 768s255.7-115.3 255.7-256.3S653.5 256 512 256zm104.5 435.3c12.9-45 18.2-91.1 16.1-144.2 13.4 3.8 20.9 5.9 34.3 10.2-15.5-39.1-32.2-74.5-54.2-110.4-19.3 37-45.6 71.8-71.8 99.2l42.9-2.7c-37 65.9-89 98.1-154.9 107.2-15-74.5-3.8-196.2 80.4-253.1l8.6 40.7c16.6-26.3 48.8-61.1 72.9-85.2-38.1-15-82-19.8-124.9-11.8 7 5.9 15.5 13.4 22.5 19.3-94.9 40.2-146.9 106.2-181.2 182.8-1.6-10.2-2.1-20.9-2.1-31.1 0-114.7 92.8-207.5 207-207.5 114.7 0 207.5 92.8 207.5 207.5-.1 76.2-41.4 143.2-103.1 179.1z" style="fill:#fff"/>
</svg>