<svg aria-hidden="true" fill="none" viewBox="0 0 32 32" xmlns="http://www.w3.org/2000/svg">
    <circle cx="16" cy="16" r="12.444" fill="#403E3D" />
    <path
        d="M30.74 9.814a16.384 16.384 0 00-3.453-5.098 16.373 16.373 0 00-5.095-3.456C20.265.42 18.204 0 16.009 0c-2.194 0-4.274.42-6.201 1.26a16.373 16.373 0 00-5.095 3.456A16.384 16.384 0 001.26 9.814C.42 11.742 0 13.824 0 16.019c0 2.196.42 4.258 1.26 6.186a16.384 16.384 0 003.453 5.098 16.053 16.053 0 005.095 3.456C11.735 31.58 13.815 32 16.009 32c2.195 0 4.256-.42 6.183-1.241a16.052 16.052 0 005.095-3.456 16.384 16.384 0 003.454-5.098C31.58 20.277 32 18.215 32 16.02c0-2.196-.42-4.277-1.26-6.205zm-3.453.935c-.496.23-.935.65-1.355 1.299-.42.649-.916 1.585-1.507 2.825l-4.256 9.203h-.248l-3.473-8.286-4.16 8.286h-.267L7.404 13.804c-.401-.916-.82-1.623-1.222-2.1-.4-.477-.858-.802-1.373-.955v-.267h6.964v.267a1.127 1.127 0 00-.572.42c-.115.172-.19.363-.19.573 0 .096.018.21.037.344.038.114.077.248.134.4l2.9 6.817 2.042-4.029-1.068-2.539c-.306-.783-.592-1.28-.878-1.49-.267-.228-.61-.381-1.03-.457v-.268h7.155v.268c-.706.095-1.069.477-1.069 1.126 0 .134.038.344.115.63.076.268.19.554.305.802l2.29 5.652.553-1.165c.44-.916.802-1.757 1.03-2.54.23-.782.363-1.508.363-2.195 0-.668-.133-1.184-.381-1.566-.248-.363-.65-.63-1.183-.764v-.267h4.923v.248h.038z"
        fill="#F1F0F0" />
</svg>