<svg viewBox="0 0 90 90" xmlns="http://www.w3.org/2000/svg"><g fill="none" fill-rule="evenodd"><path fill="#4840BB" d="M0 0h90v90H0z"/><path d="m72 70.744-.003-.163a1.103 1.103 0 0 0-.24-.263c-12.01-9.911-10.498-30.645-7.087-49.89.137-.774.23-1.292-.38-1.364-3.88-.459-16.809 1.676-20.52 2.701-.965.267-1.052.55-1.069 1.167-1.018 38.523 22.383 46.588 28.742 47.843.145.029.462.065.557-.03ZM38.215 33.748c-4.763.94-9.173 2.773-12.989 4.42-.335.097-.871.674-.732 1.392 1.505 7.783 8.844 29.728 36.904 31.436.645.03 1.297-.09.788-.411-3.784-2.943-17.24-5.97-22.742-35.731-.056-.304-.049-1.462-1.229-1.106ZM24.751 52.019c-1.672 1.02-5.983 3.881-7.529 5.355-.306.292-.247.499-.112.997 1.248 4.607 8.614 12.683 26.912 12.056.864-.03.868-.297.417-.635-.294-.22-6.077-2.1-11.365-7.023-2.645-2.464-5.336-6.206-7.141-9.764-.448-.97-.675-1.295-1.182-.986Z" fill="#FFF"/></g></svg>