<svg xmlns="http://www.w3.org/2000/svg" fill="#161616" viewBox="0 0 43.2 20"><path d="M35.06 20.003c3.16 0 5.58-.98 6.86-2.35.68-.75 1.47-1.93.9-2.84-.49-.8-1.32-.94-2.3-.45-.98.5-2.07.76-3.32.76-1.2 0-2.48-.46-3.16-1.14a4.32 4.32 0 0 1-1.28-3.14c0-.3.18-.35.52-.08.87.68 2.15 1.02 3.89 1.02 3.2 0 6.03-2.16 6.03-5.49 0-3.52-3.32-6.13-8.33-6.13-5.62 0-9.95 3.63-9.95 9.77 0 5.72 3.77 10.07 10.14 10.07zm-23.19-5.99c.6 0 .95.34 1.36.99l1.81 2.84c.68 1.1 1.24 1.85 2.56 1.85s1.93-.53 2.57-2c.79-1.82 1.62-4.02 2.37-6.97.83-3.3 1.2-5.34 1.2-7 0-1.67-.52-2.66-2.33-3a55.57 55.57 0 0 0-9.54-.72c-3.7 0-7.04.26-9.53.72C.53 1.063 0 2.043 0 3.713c0 1.67.38 3.71 1.2 7a44.5 44.5 0 0 0 2.38 6.97c.64 1.48 1.25 2.01 2.57 2.01 1.31 0 1.88-.76 2.56-1.86l1.79-2.83c.42-.64.76-.98 1.36-.98z"/></svg>