<svg xmlns="http://www.w3.org/2000/svg" viewBox="0 0 500 489.891">
  <path fill="#8abd56" d="M227.631 368.464c-59.459 0-107.638-48.084-107.638-107.351 0-59.268 48.203-107.328 107.638-107.328 44.809 0 83.238 27.34 99.441 66.175h71.671c-1.386-5.64-2.916-11.256-4.804-16.681l41.201-37.449-20.242-36.086-55.038 15.414a186.235 186.235 0 0 0-15.486-15.51l16.896-52.289-35.56-21.246-42.061 38.476a173.01 173.01 0 0 0-21.748-5.735l-12.929-53.508-41.439-.789-14.268 54.321a174.91 174.91 0 0 0-22.703 6.094L131.608 54.44 95.235 74.3l15.127 55.85a180.008 180.008 0 0 0-14.769 14.841L40.555 129.72 18.88 164.97l41.702 40.555c-2.318 6.859-4.182 13.933-5.616 21.15L1.195 241.444 0 282.765l55.42 15.079c1.625 7.648 3.776 15.104 6.357 22.345L19.31 357.064l19.549 36.445 57.332-15.486a188.032 188.032 0 0 0 14.171 14.148l-13.287 57.284 35.298 19.788 41.75-40.723a174.059 174.059 0 0 0 19.453 4.971l13.12 56.4h41.464l13.646-56.4a176.178 176.178 0 0 0 22.201-5.879l38.405 41.177 35.967-20.529-15.2-54.512a172.2 172.2 0 0 0 16.251-16.107l53.461 16.059 20.959-35.656-33.506-32.908h-86.249c-19.62 26.312-51.047 43.376-86.44 43.376l-.024-.048Z"/>
  <path fill="#c3c7cc" d="M350.946 77.43c-38.619 0-69.926 31.212-69.926 69.736s31.307 69.735 69.926 69.735c38.62 0 69.927-31.211 69.927-69.735S389.566 77.43 350.946 77.43Zm112.036 92.893a111.726 111.726 0 0 1-3.968 14.363l25.906 25.38-13.622 23.181-34.7-10.419c-3.296 3.711-6.83 7.2-10.587 10.443l9.894 35.417-23.373 13.336-24.997-26.766a110.792 110.792 0 0 1-14.387 3.823l-8.89 36.66h-26.934l-8.531-36.66a110.009 110.009 0 0 1-12.643-3.226l-27.124 26.479-22.942-12.857 8.651-37.233a114.803 114.803 0 0 1-9.201-9.177l-37.258 10.085-12.713-23.707 27.578-23.946a113.56 113.56 0 0 1-4.11-14.531l-36.015-9.774.765-26.838 34.939-9.583a110.788 110.788 0 0 1 3.656-13.742L215.3 84.696l14.076-22.895 35.752 9.918a110.523 110.523 0 0 1 9.607-9.631l-9.846-36.302 23.635-12.881 25.284 26.336a117.12 117.12 0 0 1 14.77-3.967L337.85 0l26.933.526 8.365 34.748c4.827.956 9.535 2.199 14.124 3.752l27.339-24.998 23.086 13.814-10.993 33.959a118.2 118.2 0 0 1 10.085 10.085l35.752-10.013 13.144 23.42-26.766 24.328a121.928 121.928 0 0 1 4.421 16.538L500 135.36l-.287 26.862-36.803 8.125.072-.024Z"/>
</svg>
