<svg id="Layer_2" data-name="Layer 2" xmlns="http://www.w3.org/2000/svg" viewBox="610.85 0 209.25 205.02"><defs><style>.cls-4,.cls-5{fill-rule:evenodd}.cls-4{fill:#c3c7cc}.cls-5{fill:#8abd56}</style></defs><g id="Layer_1-2" data-name="Layer 1"><path class="cls-5" d="M706.12 154.18c-24.88 0-45.04-20.12-45.04-44.92s20.17-44.91 45.04-44.91c18.75 0 34.83 11.44 41.61 27.69h29.99c-.58-2.36-1.22-4.71-2.01-6.98l17.24-15.67-8.47-15.1-23.03 6.45a77.812 77.812 0 0 0-6.48-6.49l7.07-21.88-14.88-8.89-17.6 16.1c-2.95-.99-5.99-1.79-9.1-2.4l-5.41-22.39-17.34-.33-5.97 22.73a73.37 73.37 0 0 0-9.5 2.55l-16.3-16.96-15.22 8.31 6.33 23.37a75.446 75.446 0 0 0-6.18 6.21l-23.03-6.39-9.07 14.75L636.22 86c-.97 2.87-1.75 5.83-2.35 8.85l-22.5 6.18-.5 17.29 23.19 6.31c.68 3.2 1.58 6.32 2.66 9.35l-17.77 15.43 8.18 15.25 23.99-6.48a78.86 78.86 0 0 0 5.93 5.92l-5.56 23.97 14.77 8.28 17.47-17.04c2.64.84 5.37 1.54 8.14 2.08l5.49 23.6h17.35l5.71-23.6c3.17-.62 6.28-1.45 9.29-2.46l16.07 17.23 15.05-8.59-6.36-22.81c2.42-2.1 4.69-4.35 6.8-6.74l22.37 6.72 8.77-14.92-14.02-13.77H742.3c-8.21 11.01-21.36 18.15-36.17 18.15z"/><path class="cls-4" d="M757.72 32.4c-16.16 0-29.26 13.06-29.26 29.18s13.1 29.18 29.26 29.18 29.26-13.06 29.26-29.18-13.1-29.18-29.26-29.18zm46.88 38.87c-.42 2.05-.98 4.06-1.66 6.01l10.84 10.62-5.7 9.7-14.52-4.36a46.849 46.849 0 0 1-4.43 4.37l4.14 14.82-9.78 5.58-10.46-11.2c-1.95.66-3.96 1.2-6.02 1.6l-3.72 15.34h-11.27l-3.57-15.34c-1.81-.35-3.57-.8-5.29-1.35l-11.35 11.08-9.6-5.38 3.62-15.58a48.105 48.105 0 0 1-3.85-3.84l-15.59 4.22-5.32-9.92 11.54-10.02c-.7-1.97-1.28-4-1.72-6.08l-15.07-4.09.32-11.23 14.62-4.01c.39-1.96.9-3.88 1.53-5.75l-11.33-11.02 5.89-9.58 14.96 4.15c1.25-1.42 2.6-2.77 4.02-4.03l-4.12-15.19 9.89-5.39 10.58 11.02a49.32 49.32 0 0 1 6.18-1.66L752.24 0l11.27.22 3.5 14.54c2.02.4 3.99.92 5.91 1.57l11.44-10.46 9.66 5.78-4.6 14.21c1.49 1.32 2.9 2.73 4.22 4.22l14.96-4.19 5.5 9.8-11.2 10.18c.77 2.24 1.39 4.54 1.85 6.92l15.34 3.85-.12 11.24-15.4 3.4z"/></g></svg>