<svg xmlns="http://www.w3.org/2000/svg" viewBox="0 0 500 500">
  <path fill="none" d="m253.612 18.751 155.225 68.671 72.412 162.926-66.105 160.531-164.763 70.372-158.672-64.375-72.959-163.45L88.562 86.485l165.05-67.734Z"/>
  <path d="m261.198 1.604 155.225 68.672a18.746 18.746 0 0 1 9.548 9.532l72.413 162.924a18.752 18.752 0 0 1 .203 14.755l-66.106 160.532a18.755 18.755 0 0 1-9.973 10.103l-164.762 70.372a18.751 18.751 0 0 1-14.414.131L84.66 434.251a18.749 18.749 0 0 1-10.073-9.732L1.628 261.068a18.751 18.751 0 0 1-.177-14.877l69.814-166.94a18.744 18.744 0 0 1 10.18-10.112L246.493 1.405a18.741 18.741 0 0 1 14.705.199Zm-7.862 37.527-150.471 61.752-63.69 152.301 66.579 149.156 144.442 58.602 150.53-64.293 60.13-146.019-66.217-148.985-141.303-62.512v-.002Z"/>
  <path fill="none" d="M350.853 168.751v161.156h-24.737L250.3 257.213l-76.228 72.694h-23.957V168.751"/>
  <path d="m168.865 308.963 68.495-65.319c7.258-6.921 18.677-6.906 25.916.035l68.828 65.992v-140.92c0-10.349 8.4-18.75 18.75-18.75 10.347 0 18.75 8.401 18.75 18.75v161.156c0 10.355-8.396 18.75-18.75 18.75h-24.739a18.757 18.757 0 0 1-12.977-5.216l-62.874-60.285-63.252 60.32a18.75 18.75 0 0 1-12.94 5.181h-23.957c-10.355 0-18.75-8.395-18.75-18.75V168.751c0-10.349 8.402-18.75 18.75-18.75 10.349 0 18.75 8.401 18.75 18.75v140.212Z"/>
</svg>
