<svg data-name="Layer 1" viewBox="0 0 100 100" width="100" height="100" xmlns="http://www.w3.org/2000/svg"><path d="M36.907 4.866s-.886 17.406 2.163 25.78c-4.782 4.193-10.152 8.97-10.992 10.12-1.383 1.896-.351 10.035-5.008 13.495-2.347 1.742-7.423 5.036-11.881 7.875-4.395 2.798-8.19 5.152-8.19 5.152s1.472 1.471 3.786 3.432c3.927 3.327 10.273 8.063 15.937 9.408 2.482.589 5.448.303 8.553-.315a73 73 0 0 0 3.092-.693c6.223-1.522 12.542-3.63 16.312-2.143a4.9 4.9 0 0 1 1.662 1.063c1.966 1.935 3.105 3.853 3.76 5.494.219.547.382 1.063.506 1.54.248.95.332 1.74.354 2.292a6 6 0 0 1-.018.867s.319-.53.797-1.414c1.434-2.652 4.304-8.49 4.316-12.775 0 0 .186.098.504.299s.768.502 1.295.912c1.318 1.024 3.117 2.716 4.543 5.146a16.7 16.7 0 0 1 1.979 5.186c.535 2.672.503 5.843-.534 9.549 0 0 .228-.22.62-.627 2.738-2.857 13.431-15.019 9.24-26.795 0 0 2.258 1.105 4.638 2.925.595.456 1.197.954 1.774 1.493 1.441 1.347 2.723 2.937 3.318 4.674q.18.52.27 1.058s1.178-4.477.185-9.732a21 21 0 0 0-.435-1.84c-1.019-3.569-3.157-7.29-7.395-10.09 0 0 .61-.09 1.606-.156s2.38-.108 3.923-.012c.772.048 1.584.13 2.409.262 2.474.394 5.062 1.229 7.004 2.886 0 0-.038-.183-.125-.51-.611-2.284-3.648-11.622-13.131-14.804 0 0 8.243-2.074 12.117-7.633 0 0-3.578-.009-7.402-.763a28 28 0 0 1-2.297-.55c-1.516-.432-2.965-1.009-4.133-1.775l-.012-.031c-.207-.64-3.59-10.958-7.644-16.82a82 82 0 0 0-9.17-10.867s-6.478 9.16-7.971 17.072c0 0-1.614-.505-3.99-.363l.01-.02s-3.634-3.942-8.832-10.092-7.512-7.16-7.512-7.16z" fill="#50474d" stroke="#fff" stroke-width="6" stroke-linecap="round" stroke-linejoin="round" paint-order="stroke fill markers"/><path d="M36.91 4.863s-1.118 21.902 3.455 28.392c4.572 6.49 12.89-11.14 12.89-11.14s-3.633-3.943-8.831-10.092-7.514-7.16-7.514-7.16" fill="#50474d"/><path d="M89.706 77.861c-.962-5.735-10.001-10.15-10.001-10.15 4.79 13.459-9.858 27.42-9.858 27.42 4.148-14.82-7.788-21.09-7.788-21.09-.016 5.712-5.112 14.19-5.112 14.19s.639-5.034-4.603-10.194c-3.797-3.735-12.908.157-21.065 1.772-3.105.617-6.071.905-8.554.316-5.664-1.345-12.009-6.081-15.937-9.409-2.314-1.96-3.786-3.432-3.786-3.432s3.796-2.353 8.19-5.152c4.459-2.839 9.535-6.133 11.882-7.875 4.657-3.46 3.624-11.598 5.007-13.493 1.385-1.897 17.458-15.771 17.458-15.771 5.937-4.396 11.697-2.495 11.697-2.495 1.493-7.912 7.97-17.071 7.97-17.071a82 82 0 0 1 9.17 10.866c4.055 5.862 7.438 16.18 7.645 16.82l.01.032c4.672 3.064 13.833 3.086 13.833 3.086-3.874 5.559-12.117 7.633-12.117 7.633C94.585 47.5 97.002 59.178 97.002 59.178c-5.178-4.42-14.941-2.98-14.941-2.98 11.37 7.511 7.645 21.663 7.645 21.663" fill="#5f5358"/><path d="M32.896 53.522s2.977-5.13 4.849-5.962 8.812-1.69 8.812-1.69-3.436 4.739-5.825 5.297c-2.388.558-7.836 2.355-7.836 2.355" fill="#efe5b6"/><path d="M11.392 67.886c-.287.572-2.023 1.429-2.21 1.58-.184.153-.24-.822-.24-.822l-1.482-.19-.306 1.254-.366 1.008c-2.314-1.96-3.786-3.432-3.786-3.432s3.796-2.353 8.19-5.152c0 0 .489 5.184.2 5.754m78.314 9.975c-.962-5.735-10.001-10.15-10.001-10.15 4.79 13.459-9.858 27.42-9.858 27.42 4.148-14.82-7.788-21.09-7.788-21.09-.016 5.712-5.112 14.19-5.112 14.19s.639-5.034-4.603-10.194c-3.797-3.735-12.908.157-21.065 1.772 0 0 10.42-6.481 18.06-6.289s8.868 4.436 8.868 4.436 2.056-6.791.157-10.31c0 0 7.45-.641 13.206 3.23 0 0-2.3-9.532-7.585-11.71 0 0 8.575-1.607 13.548.622 0 0 .966-5.154-6.411-8.438 0 0 6.675-1.915 12.723-.041 0 0-4.525-7.29-10.312-9.015 0 0 9.039-1.497 11.896-3.51a15.6 15.6 0 0 1-3.398-5.639c4.672 3.064 13.833 3.086 13.833 3.086-3.874 5.559-12.117 7.633-12.117 7.633 10.838 3.637 13.255 15.314 13.255 15.314-5.178-4.42-14.941-2.98-14.941-2.98 11.37 7.511 7.645 21.663 7.645 21.663M66.061 11.993s6.107 8.076 6.856 13.876c.75 5.801-.285 8.9-.285 8.9s-3.086-5.19-8.535-8.297c-5.45-3.107 1.964-14.48 1.964-14.48z" fill="#50474d"/></svg>