<?xml version="1.0" encoding="UTF-8"?>
<!DOCTYPE svg PUBLIC "-//W3C//DTD SVG 1.1//EN" "http://www.w3.org/Graphics/SVG/1.1/DTD/svg11.dtd">
<svg xmlns="http://www.w3.org/2000/svg" version="1.1" width="300px" height="260px" style="shape-rendering:geometricPrecision; text-rendering:geometricPrecision; image-rendering:optimizeQuality; fill-rule:evenodd; clip-rule:evenodd" xmlns:xlink="http://www.w3.org/1999/xlink">
<g><path style="opacity:0.989" fill="#6262f1" d="M 81.5,-0.5 C 112.5,-0.5 143.5,-0.5 174.5,-0.5C 169.154,3.68235 164.654,8.68235 161,14.5C 138.96,52.7486 116.793,90.9152 94.5,129C 111.174,158.016 127.84,187.016 144.5,216C 139.386,225.729 133.886,235.229 128,244.5C 121.475,251.672 113.642,256.672 104.5,259.5C 97.5,259.5 90.5,259.5 83.5,259.5C 73.8126,256.222 65.6459,250.556 59,242.5C 38.6208,208.399 18.7875,174.065 -0.5,139.5C -0.5,132.833 -0.5,126.167 -0.5,119.5C 19.3711,84.4302 39.5378,49.4302 60,14.5C 65.987,7.65895 73.1537,2.65895 81.5,-0.5 Z"/></g>
<g><path style="opacity:0.989" fill="#6262f1" d="M 193.5,-0.5 C 200.833,-0.5 208.167,-0.5 215.5,-0.5C 225.781,2.8978 234.281,8.8978 241,17.5C 260.794,51.4318 280.294,85.4318 299.5,119.5C 299.5,125.833 299.5,132.167 299.5,138.5C 279.641,173.869 259.475,209.203 239,244.5C 232.912,251.778 225.412,256.778 216.5,259.5C 185.833,259.5 155.167,259.5 124.5,259.5C 129.821,254.339 134.654,248.672 139,242.5C 160.081,205.337 181.414,168.337 203,131.5C 203.635,129.365 203.301,127.365 202,125.5C 185.781,98.2288 169.947,70.7288 154.5,43C 159.614,33.2707 165.114,23.7707 171,14.5C 177.343,7.59119 184.843,2.59119 193.5,-0.5 Z"/></g>
</svg>
