<svg xmlns="http://www.w3.org/2000/svg" viewBox="0 0 500 433.348">
  <path fill="#6363F1" d="M0 216.667c0 9.5 2.5 19 7.333 27.185l87.686 151.815c8.981 15.5 22.648 28.166 39.648 33.851 32.203 11 67.703-2.333 84.666-31.833L240.5 361 157 216.667l88.167-152.834 21.166-36.666A86.49 86.49 0 0 1 291.167 0h-136C131.333 0 109.333 12.667 97.5 33.333L7.333 189.518A53.712 53.712 0 0 0 0 216.667Z"/>
  <path fill="#6363F1" d="M500 216.667c0-9.5-2.5-19.019-7.333-27.167L403.833 35.667C386.759 6.278 351.37-7.019 319.148 3.833 302.185 9.5 288.5 22.148 279.5 37.667l-20 34.481L343 216.667 254.833 369.5l-21.166 36.667c-6.334 10.833-14.834 20-24.834 27.166h136c23.834 0 45.834-12.666 57.667-33.333l90.167-156.167c4.833-8.166 7.333-17.666 7.333-27.166Z"/>
</svg>
