<svg width="34" height="34" viewBox="0 0 34 34" fill="none" xmlns="http://www.w3.org/2000/svg">
<path d="M6.625 2.77295H30.3256C31.8396 2.77295 33.0669 3.99814 33.0669 5.5095C33.0669 7.02087 31.8396 8.24604 30.3256 8.24604H6.625V2.77295Z" fill="#B2CADB"/>
<path d="M12.4502 14.5747H30.3256C31.8396 14.5747 33.0669 15.7999 33.0669 17.3113C33.0669 18.8226 31.8396 20.0478 30.3256 20.0478H12.4502V14.5747Z" fill="#B2CADB"/>
<path d="M6.625 26.376H30.3256C31.8396 26.376 33.0669 27.6012 33.0669 29.1125C33.0669 30.6239 31.8396 31.8491 30.3256 31.8491H6.625V26.376Z" fill="#B2CADB"/>
<path d="M4.74009 10.2417C7.35797 10.2417 9.48018 8.12317 9.48018 5.50979C9.48018 2.8964 7.35797 0.777832 4.74009 0.777832C2.12221 0.777832 0 2.8964 0 5.50979C0 8.12317 2.12221 10.2417 4.74009 10.2417Z" fill="#47525B"/>
<path d="M13.4208 22.043C16.0387 22.043 18.1609 19.9244 18.1609 17.3111C18.1609 14.6977 16.0387 12.5791 13.4208 12.5791C10.8029 12.5791 8.68066 14.6977 8.68066 17.3111C8.68066 19.9244 10.8029 22.043 13.4208 22.043Z" fill="#47525B"/>
<path d="M4.74009 33.8448C7.35797 33.8448 9.48018 31.7262 9.48018 29.1128C9.48018 26.4994 7.35797 24.3809 4.74009 24.3809C2.12221 24.3809 0 26.4994 0 29.1128C0 31.7262 2.12221 33.8448 4.74009 33.8448Z" fill="#47525B"/>
</svg>
