<svg xmlns="http://www.w3.org/2000/svg" xmlns:v="https://vecta.io/nano" viewBox="1 1 1024 1024"><path fill="#5389af" d="M1 1024L1.184 2.31c.41-.827.62-1.062.816-1.31l1021.695.181c.815.423 1.047.636 1.305.819l-.356 513.502c-2.243-.85-4.365-1.874-5.98-3.426l-25.845-25.365-30.86-30.283-66.788-66.746-5.167-4.689c-.004.006.003-.002-.171-.267l-4.012-4.014-80.05-79.334c-.58-.573-1.368-.936-2.219-1.708-6.765-23.247-23.406-35.881-47.226-35.885l-371.407-.005c-1.665 0-3.33.078-5.304.098-.722.008-1.136.038-1.795-.158-1.379-1.665-2.506-3.108-3.646-4.541-23.577-29.614-64.417-39.415-98.259-23.583-34.93 16.341-53.69 53.249-46.069 90.794 4.502 22.18 16.74 39.213 35.151 52.492 1.37 2.07 2.452 3.972 3.943 5.466l107.99 107.989c1.485 1.481 3.437 2.494 5.171 4.13-2.92 12.873-3.177 25.373-.355 37.887 4.911 21.777 17.173 38.482 35.419 51.442 1.521 2.336 2.765 4.522 4.478 6.242l75.86 75.978c1.727 1.733 3.055 3.864 4.099 5.886l-116.598.223c-2.804.006-5.608.372-8.685.359-1.578-1.721-2.89-3.224-4.186-4.74-25.168-29.455-67.897-37.175-101.745-18.381-34.317 19.054-50.473 59.758-38.236 96.899 8.045 24.416 24.57 41.074 48.032 51.554.692 1.51 1.102 2.886 1.999 3.764l50.982 49.719c.499.663.776 1.088 1.129 1.436l82.682 81.674c.944.931 2.021 1.728 3.217 2.865l37.173 36.595 31.825 31.403c4.212 4.202 8.345 8.029 12.214 12.105 1.504 1.584 2.415 3.731 3.596 5.622-167.361 0-334.723 0-502.696-.179-.821-.417-1.051-.63-1.304-.821z"/><path fill="#4d7fa2" d="M420.011 938.998l-3.036-2.587-82.682-81.674c-.352-.348-.63-.772-.816-1.609 3.417-.659 6.704-.943 9.997-1.058 2.991-.104 4.824.589 3.686 4.405-.906 3.038 1.305 4.636 4.208 3.599 1.684-.602 3.467-.928 5.59-1.478l1.376-3.987 1.454-.003c.298 1.266.85 2.534.847 3.799-.009 3.674 2.109 4.222 4.47 2.539 3.325-2.371 5.049-.646 7.738 1.22 3.674 2.549 7.926 4.923 12.236 5.72 4.702.87 9.753-.206 14.654-.293 1.054-.019 2.941.395 3.047.902.87 4.163 4.548 3.782 7.318 4.907 3.249 1.32 6.454 2.751 8.873 3.789 1.527-1.55 3.28-4.602 4.586-4.421 4.342.601 8.523 2.363 12.824 3.699l.449 3.98 5.484-1.303c1.976-.513 4.237-2.01 5.847-1.479 5.826 1.92 11.399 3.798 17.5.889 1.264-.602 3.234-.009 4.799.366 3.103.745 6.151 1.723 9.222 2.604 3.955 3.636 5.076 3.566 9.437-.833.955-.964 3.284-.849 4.956-.764 4.752.243 9.489.753 14.236 1.11l10.657.7c2.272.178 4.539.719 6.8.673 2.139-.043 4.26-.888 6.401-.951 8.704-.253 17.616 1.14 25.687-3.645.51-.302 1.474-.427 1.925-.148 4.794 2.973 9.221.377 13.847-.583 3.013-.625 6.243-.112 9.342-.436 4.423-.462 9.023-.603 13.175-1.993 7.65-2.561 15.113-2.102 22.603-.825 1.909-1.123 4.234-3.641 5.91-3.266 5.473 1.227 9.746-1.856 14.273-3.324 4.738-1.537 8.188-7.246 14.333-3.984.199.105.715-.098.908-.314 3.504-3.934 6.133-1.944 8.86 1.833-1.053-3.982.31-4.867 3.719-5.556 4.932-.997 9.658-3.177 14.353-5.137 5.846-2.44 12.611-1.053 18.183-4.592 1.189-.755 3.155-.57 4.021-1.505 5.876-6.35 14.704-6.049 21.711-9.837 2.641-1.427 5.892-2.547 8.809-2.427 3.397.139 5.19-.791 6.745-3.674 2.061-3.821 4.638-7.108 9.922-4.756.815.363 2.186-.269 3.207-.673 2.996-1.185 5.946-2.487 8.914-3.743 1.335-.145 1.904-1.691 3.006-2.568 5.535-4.408 12.497-6.937 16.844-12.965.536-.744 2.159-.62 3.165-1.124 3.513-1.757 6.691-4.316 10.97-4.196.31.009.961-1.674.95-2.563-.036-2.957 1.602-3.348 3.928-2.828 4.97 1.109 7.211-1.201 7.557-5.948.328-4.508 2.684-5.833 7.187-7.043 6.214-1.67 13.6-4.334 17.189-9.07 4.62-6.094 13.24-8.585 15-16.992.114-.543 1.343-.841 2.038-1.277 2.421-1.517 5.084-2.765 7.193-4.636 3.093-2.745 5.801-5.926 8.637-8.954.443-.473.907-1.091 1.004-1.699 1.079-6.715 6.563-8.206 11.754-10.168 1.096-.414 2.159-1.391 2.822-2.385 2.349-3.523 4.203-7.422 6.853-10.685 2.266-2.789 5.115-5.33 8.203-7.129 1.578-.919 2.795-1.222 4.111-3.033 2.33-3.207 5.202-5.837 5.64-10.111.062-.604 1.574-1.003 2.328-1.605.995-.795 2.269-1.517 2.791-2.581 3.24-6.596 6.524-13.113 12.562-17.728.616-.471.953-1.328 1.367-2.037l10.66-18.103c.701-1.13 2.39-1.646 3.689-2.269.358.317.65.458.943.599-.336-.258-.672-.517-1.008-1.199-.685-5.96 1.711-9.363 7.615-10.31-2.232-4.778-.708-7.87 2.968-10.621 1.368-1.024 1.771-3.355 2.579-5.107 1.651-3.578 2.409-9.159 5.098-10.331 5.334-2.326 4.38-6.036 4.195-9.629-.271-5.248 1.46-8.529 6.686-10.018 2.778-.791 3.959-2.392 2.257-5.666-.998-1.92-1.044-4.831-.437-6.993 1.699-6.051 3.968-11.941 5.997-17.9l5.604-16.459c.206-.591.727-1.127 1.218-1.554 4.289-3.729 4.949-9.095 4.8-13.978-.121-3.976.483-6.471 3.574-8.943 1.448-1.158 3.025-4.697 2.414-5.467-3.561-4.488-1.74-8.115.38-12.393 2.488-5.021 6.618-10.487-.437-15.6-1.061-.769-1.03-3.044-1.504-4.623l25.659 25.091c1.614 1.552 3.736 2.576 5.98 3.884l-.001 124.645c-1.18 1.292-2.413 1.888-2.761 2.816-2.411 6.431-5.204 12.797-6.773 19.444-1.725 7.31-4.612 13.345-11.225 17.334-1.072.647-2.234 2.357-2.156 3.492.358 5.164-2.8 11.238-7.599 13.262-2.611 1.101-3.356 2.31-1.673 4.887.559.856.614 2.809.018 3.522-3.352 4.009-6.726 8.068-10.603 11.54-2.033 1.821-2.453 3.156-1.462 5.477 3.164 7.411 3.126 7.427-5.151 7.643-6.217.162-8.448 3.338-6.41 9.128-2.52 1.94-4.793 4.481-7.632 5.65-2.815 1.16-3.934 2.361-3.829 5.395.046 1.318-1.015 3.083-2.119 3.959-3.877 3.079-8.411 5.456-9.646 10.903-.129.569-1.214.913-1.842 1.379-2.097 1.557-4.31 2.985-6.256 4.713-3.661 3.251-7.168 6.678-10.738 10.031-1.009.584-.541 3.145-1.268 3.548-3.52 1.951-2.792 5.358-3.917 8.277-8.134 5.03-19.549 6.29-19.41 17.241-3.635 1.504-6.767 2.056-8.88 3.826-4.585 3.841-8.569 8.39-12.958 12.478-2.33 2.171-5.609 3.56-7.339 6.074-1.833 2.664-3.339 4.704-6.583 6.114-4.065 1.768-10.358 1.644-10.484 8.689-.014.806-2.135 1.574-3.403 2.446l-3.749-5.517c-1.891 8.049-6.154 12.203-14.707 11.24l3.425 4.226c-4.084 2.128-8.046 3.965-11.761 6.21-2.414 1.459-5.16 3.103-6.519 5.397-1.913 3.228-3.465 4.012-6.663 1.919-.953-.623-3.243-.705-3.9-.035-4.415 4.507-11.778 4.783-15.158 10.678-.137.238-.569.403-.879.432-3.659.341-6.778 1.295-7.658 5.582-.107.522-1.61 1.057-2.476 1.075-6.477.131-9.591 5.719-13.632 9.201-2.198 1.893-3.747 2.776-6.422 3.124-4.962.646-9.897 1.638-14.764 2.817-3.193.774-6.189 2.35-9.376 3.165-3.745.957-7.601 1.479-11.728 2.25l2.644 4.459c-4.344 1.967-8.348 3.874-12.447 5.55-.749.306-2.136-.032-2.796-.587-2.526-2.124-4.18-.819-5.85 1.118-2.58 2.993-5.294 5.298-9.851 4.115-1.176-.305-2.838 1.755-4.417 2.363-1.358.522-4.112.957-4.21.689-1.817-4.994-5.061-3.419-8.433-2.2-2.179.787-4.528 1.089-6.743 1.791-3.591 1.138-7.134 2.426-11.253 3.842-2.037-3.232-2.839 1.74-4.651 2.66-7.876-5.858-10.314 3.292-15.569 5.636-.932-5.076-3.53-4.432-6.994-2.403-2.685 1.572-5.752 2.493-7.473 3.212-2.59-1.24-4.278-2.74-5.659-2.497-1.159.204-2.467 2.321-2.814 3.802-.676 2.882-1.726 3.217-4.55 2.44-3.731-1.027-9.783-2.911-11.199-1.276-3.819 4.41-8.012 3.827-12.561 3.938-3.463.084-6.917.494-10.38.628-2.808.109-5.624.022-8.437.022l-.395-1.693c-.94 1.094-1.674 2.662-2.865 3.179-2.089.906-4.436 1.449-6.715 1.622-2.464.187-5.061-.711-7.444-.278-5.486.997-10.848 3.366-16.318 3.557-4.549.159-9.097-1.291-13.454 1.269-.537.315-1.638-.07-2.366-.387-3.009-1.308-5.923-2.857-8.99-4-.973-.363-2.711-.167-3.423.498-6.179 5.774-13.529 5.471-17.529-.464l-8.585 8.083c-.945-1.486-1.458-1.98-1.6-2.564-1.744-7.174-1.678-6.921-9.109-5.443-5.775 1.148-11.552 1.424-15.683-4.401-.862-1.216-3.128-1.436-4.748-2.114-.394 1.466-.648 2.989-1.22 4.381-.603 1.467-1.509 2.809-2.283 4.206-.736-1.275-2.013-2.513-2.101-3.832-.232-3.464-1.541-4.545-5.093-4.145-6.104.687-12.183 1.059-16.694-4.842-1.188-1.555-4.156-1.749-6.307-2.568m190.168-61.7l1.282-1.386-1.106-.563c-.166.549-.333 1.097-.176 1.949m388.778-370.559l1.26.152-.34-1.215c-.346.225-.693.45-.919 1.063M597.784 879.057l.352-.244c-.114.023-.229.045-.352.244m84.273-19.841c-.059-.003-.117-.006 0 0m8.058-1.405l-.307.166.225.254c.066-.096.131-.193.082-.42m26.101-11.869l-.352.244c.114-.023.229-.045.352-.244z"/><path fill="#4f83a7" d="M505.469 1025c-1.65-1.891-2.56-4.038-4.064-5.622-3.87-4.076-8.002-7.902-11.853-12.061 3.609 1.97 6.937 4.366 10.518 6.289 1.634.877 4.154 1.668 5.595 1.011 2.919-1.33 5.01-.901 7.909.226 3.437 1.336 7.567 1.897 11.199 1.385 2.661-.375 4.811-3.713 7.538-4.464 2.789-.769 6.554-.999 8.923.301 5.772 3.167 5.531 3.568 9.509-1.612.356-.463 1.069-.651.531-.341l8.036 3.85-.41-2.15c.962-.882 1.946-2.519 2.882-2.492 2.098.06 4.182.911 6.253 1.507 1.871.54 3.888 1.914 5.521 1.537 1.447-.334 2.454-2.573 3.02-3.232 2.021 1.273 3.895 3.447 5.741 3.423 4.919-.062 9.855-.908 14.727-1.764 2.906-.511 6.33-3.091 8.434-2.193 5.85 2.496 10.883.436 16.284-.794 9.369-2.134 18.823-3.887 28.209-5.951 2.871-.631 5.587-2.288 8.455-2.536 4.677-.406 9.245-.381 12.496-4.619.52-.679 2-.854 3.038-.859 3.084-.014 6.27.713 9.229.155 4.497-.849 8.81-2.634 13.25-3.841 5.745-1.563 11.7-2.505 17.262-4.541 5.096-1.865 9.6-5.557 15.547-3.914 3.895-6.3 11.425-4.695 17.005-7.518 6.542-3.31 12.129-9.805 20.697-8.465.818.128 1.781-.653 2.673-1.022l6.551-2.747c1.286-.581 2.494-1.335 3.733-2.019 1.764-.973 3.436-2.555 5.3-2.825 7.569-1.099 8.061-1.422 9.978-8.612.296-1.111 1.429-1.998 2.175-2.989.916.769 1.861 1.506 2.736 2.319.556.517 1.007 1.146 2.164 2.49 2.568-6.438 7.594-8.124 13.363-8.451.149-.008.285-.214.437-.228 4.919-.464 8.611-3.494 12.653-5.88l25.379-14.536-.715-5.453c3.035.671 5.421 1.418 7.854 1.627.979.084 2.996-1.109 2.95-1.554-.553-5.271 1.757-6.169 6.18-4.511.482.181 1.32-.235 1.849-.59l14.206-9.653c4.262-3.003 10.13-4.157 11.798-10.259.181-.662 1.753-.855 2.535-1.455 5.087-3.905 10.257-7.718 15.152-11.853 3.37-2.847 5.83-6.62 10.901-7.261 2.674-.338 5.064-2.143 4.716-5.958-.289-3.164 1.823-4.783 4.852-3.502 3.248 1.374 4.587.024 5.669-2.719.406-1.03 1.133-2.043 1.967-2.775 3.477-3.053 7.264-5.784 10.525-9.044 2.923-2.923 2.972-8.87 9.306-8.223.943.096 2.125-1.933 3.164-3.01l11.657-12.159 8.679-9.48c3.945-4.333 7.339-9.429 11.994-12.771 3.695-2.652 5.738-5.167 5.52-8.98 7.412-4.091 11.116-10.779 13.497-17.759 1.387-4.065 3.141-6.87 6.655-8.871l-.179 258.685c-.406.841-.62 1.072-.821 1.315H505.469z"/><path fill="#4e80a4" d="M1025 764.531c-3.513 2.47-5.268 5.275-6.655 9.34-2.381 6.98-6.085 13.668-13.497 17.759.218 3.813-1.826 6.328-5.52 8.98-4.655 3.342-8.049 8.438-11.994 12.771l-8.679 9.48-11.657 12.159c-1.039 1.077-2.22 3.106-3.164 3.01-6.334-.647-6.383 5.301-9.306 8.223-3.261 3.261-7.048 5.991-10.525 9.044-.834.732-1.561 1.745-1.967 2.775-1.082 2.742-2.421 4.093-5.669 2.719-3.029-1.281-5.14.338-4.852 3.502.348 3.815-2.042 5.62-4.716 5.958-5.071.642-7.531 4.414-10.901 7.261-4.895 4.136-10.065 7.948-15.152 11.853-.781.6-2.354.793-2.535 1.455-1.667 6.102-7.536 7.256-11.798 10.259-4.68 3.297-9.448 6.469-14.206 9.653-.529.354-1.368.771-1.849.59-4.423-1.658-6.733-.76-6.18 4.511.047.445-1.971 1.639-2.95 1.554-2.433-.21-4.819-.957-7.854-1.627l.715 5.453-25.379 14.536c-4.042 2.385-7.734 5.416-12.653 5.88-.151.014-.287.22-.437.228-5.769.327-10.795 2.013-13.363 8.451-1.157-1.344-1.608-1.974-2.164-2.49-.875-.813-1.82-1.55-2.736-2.319-.746.991-1.879 1.878-2.175 2.989-1.916 7.19-2.408 7.513-9.978 8.612-1.864.271-3.537 1.852-5.3 2.825-1.239.684-2.447 1.438-3.733 2.019-2.157.975-4.363 1.841-6.551 2.747-.891.369-1.855 1.15-2.673 1.022-8.568-1.34-14.155 5.155-20.697 8.465-5.58 2.823-13.11 1.217-17.005 7.518-5.947-1.643-10.451 2.049-15.547 3.914-5.562 2.036-11.517 2.978-17.262 4.541-4.44 1.208-8.752 2.992-13.25 3.841-2.958.559-6.145-.169-9.229-.155-1.038.005-2.518.18-3.038.859-3.251 4.239-7.819 4.214-12.496 4.619-2.868.249-5.584 1.905-8.455 2.536l-28.209 5.951c-5.401 1.23-10.434 3.291-16.284.794-2.104-.898-5.528 1.683-8.434 2.193-4.872.856-9.808 1.702-14.727 1.764-1.846.024-3.72-2.15-5.741-3.423-.567.659-1.573 2.897-3.02 3.232-1.633.378-3.65-.997-5.521-1.537-2.07-.597-4.155-1.448-6.253-1.507-.936-.027-1.92 1.61-2.882 2.492l.41 2.15-8.036-3.85c.538-.31-.175-.122-.531.341-3.978 5.179-3.737 4.779-9.509 1.612-2.369-1.3-6.134-1.07-8.923-.301-2.727.752-4.877 4.089-7.538 4.464-3.631.512-7.762-.05-11.199-1.385-2.899-1.127-4.99-1.555-7.909-.226-1.441.656-3.961-.134-5.595-1.011-3.582-1.923-6.91-4.319-10.703-6.566l-32.002-31.17-37.173-36.595c1.969.541 4.937.736 6.126 2.291 4.511 5.901 10.59 5.529 16.694 4.842 3.552-.4 4.861.681 5.093 4.145.088 1.318 1.366 2.557 2.101 3.832.774-1.397 1.681-2.739 2.283-4.206.572-1.392.826-2.916 1.22-4.381 1.619.679 3.886.899 4.748 2.114 4.131 5.826 9.909 5.55 15.683 4.401 7.431-1.477 7.366-1.731 9.109 5.443.142.584.655 1.077 1.6 2.564l8.585-8.083c4 5.935 11.351 6.239 17.529.464.711-.665 2.45-.861 3.423-.498 3.067 1.143 5.98 2.692 8.99 4 .728.316 1.83.702 2.366.387 4.357-2.56 8.905-1.11 13.454-1.269 5.469-.191 10.831-2.56 16.318-3.557 2.383-.433 4.981.465 7.444.278 2.279-.173 4.626-.716 6.715-1.622 1.191-.516 1.925-2.084 2.865-3.179l.395 1.693c2.813 0 5.629.087 8.437-.022 3.463-.134 6.917-.544 10.38-.628 4.549-.111 8.742.472 12.561-3.938 1.416-1.635 7.467.249 11.199 1.276 2.824.777 3.874.442 4.55-2.44.347-1.48 1.655-3.598 2.814-3.802 1.381-.243 3.069 1.257 5.659 2.497 1.721-.719 4.788-1.64 7.473-3.212 3.464-2.028 6.061-2.673 6.994 2.403 5.255-2.344 7.693-11.495 15.569-5.636 1.811-.92 2.613-5.891 4.651-2.66l11.253-3.842c2.215-.702 4.565-1.004 6.743-1.791 3.371-1.218 6.616-2.794 8.433 2.2.098.268 2.852-.167 4.21-.689 1.579-.607 3.241-2.668 4.417-2.363 4.556 1.183 7.271-1.122 9.851-4.115 1.67-1.938 3.324-3.242 5.85-1.118.66.555 2.047.893 2.796.587 4.099-1.676 8.103-3.583 12.447-5.55l-2.644-4.459c4.128-.771 7.984-1.293 11.728-2.25 3.187-.815 6.183-2.391 9.376-3.165 4.866-1.179 9.802-2.171 14.764-2.817 2.675-.348 4.224-1.231 6.422-3.124 4.041-3.481 7.155-9.069 13.632-9.201.866-.018 2.369-.553 2.476-1.075.88-4.287 3.999-5.24 7.658-5.582.31-.029.742-.194.879-.432 3.38-5.895 10.743-6.171 15.158-10.678.657-.67 2.947-.588 3.9.035 3.199 2.092 4.751 1.309 6.663-1.919 1.359-2.294 4.105-3.938 6.519-5.397 3.715-2.245 7.677-4.082 11.761-6.21l-3.425-4.226c8.553.963 12.816-3.191 14.707-11.24l3.749 5.517c1.268-.871 3.389-1.64 3.403-2.446.126-7.045 6.418-6.921 10.484-8.689 3.244-1.411 4.75-3.45 6.583-6.114 1.729-2.514 5.009-3.903 7.339-6.074 4.389-4.088 8.373-8.637 12.958-12.478 2.112-1.77 5.244-2.322 8.88-3.826-.14-10.951 11.275-12.211 19.454-16.951.917.893 1.392 1.501 1.866 2.109l.729-.767L922 793c.726-2.914-.002-6.322 3.518-8.272.727-.403.26-2.963 1.268-3.548l10.738-10.031c1.946-1.728 4.159-3.156 6.256-4.713.628-.466 1.713-.81 1.842-1.379 1.235-5.447 5.769-7.824 9.646-10.903 1.103-.876 2.164-2.641 2.119-3.959-.105-3.034 1.014-4.235 3.829-5.395 2.838-1.17 5.111-3.71 7.632-5.65-2.038-5.79.193-8.966 6.41-9.128 8.277-.216 8.315-.232 5.151-7.643-.991-2.32-.571-3.655 1.462-5.477 3.877-3.472 7.251-7.531 10.603-11.54.597-.714.541-2.667-.018-3.522-1.683-2.577-.938-3.786 1.673-4.887 4.799-2.024 7.957-8.098 7.599-13.262-.079-1.135 1.083-2.845 2.156-3.492 6.614-3.988 9.5-10.024 11.225-17.334 1.568-6.647 4.362-13.013 6.773-19.444.348-.928 1.58-1.524 2.761-2.347l.357 123.457m-115.963 41.673l2.579-.117-1.762-3.084c-.385.897-.771 1.794-.817 3.201M747.088 912.662l-2.948-1.673-.518 1.827c1.101.116 2.202.232 3.466-.154M944.925 770.86l-1.075.977.293.318c.342-.344.684-.687.782-1.295M598.475 954.5l-.628-.495-.242.789c.261.001.522.002.87-.294m71.541-21.661l.474.639.518-.609c-.261-.086-.522-.172-.991-.029m130.927-51.056c.059.003.117.006 0 0m-284.159 76.274l.352-.244c-.114.023-.229.045-.352.244z"/><path fill="#4f83a7" d="M1 1024.5c.252-.31.483-.096.846.321-.179.179-.513.179-.846-.321z"/><path d="M1024.5 1025c-.299-.243-.085-.474.321-.846.179.18.179.513-.321.846zM1025 1.5c-.259.317-.491.104-.848-.319.181-.181.514-.181.848.319zM1.5 1c.304.248.094.482-.316.852C1 1.667 1 1.333 1.5 1z" fill="#4d7fa2"/><path fill="#4b7c9e" d="M992.82 486.712c.66 1.853.629 4.129 1.69 4.897 7.055 5.113 2.925 10.578.437 15.6-2.12 4.279-3.941 7.906-.38 12.393.611.77-.966 4.309-2.414 5.467-3.091 2.472-3.695 4.967-3.574 8.943.149 4.883-.511 10.249-4.8 13.978-.491.427-1.013.963-1.218 1.554l-5.604 16.459c-2.029 5.959-4.298 11.849-5.997 17.9-.607 2.162-.56 5.073.438 6.993 1.702 3.274.521 4.874-2.257 5.666-5.226 1.489-6.957 4.77-6.686 10.018.186 3.594 1.139 7.304-4.195 9.629-2.689 1.172-3.447 6.753-5.098 10.331-.808 1.751-1.211 4.083-2.579 5.107-3.676 2.751-5.2 5.843-2.968 10.621-5.904.946-8.3 4.349-7.615 10.31-1.234 1.223-2.924 1.739-3.624 2.869-3.689 5.95-7.125 12.057-10.66 18.103-.414.708-.751 1.566-1.367 2.037-6.038 4.615-9.322 11.133-12.562 17.728-.523 1.064-1.796 1.786-2.791 2.581-.754.602-2.266 1.001-2.328 1.605-.438 4.274-3.309 6.904-5.64 10.111-1.316 1.811-2.533 2.114-4.111 3.033-3.088 1.799-5.937 4.34-8.203 7.129-2.65 3.262-4.504 7.162-6.853 10.685-.663.994-1.727 1.971-2.822 2.385-5.191 1.962-10.675 3.453-11.754 10.168-.098.608-.561 1.226-1.004 1.699-2.836 3.029-5.544 6.209-8.637 8.954-2.109 1.871-4.772 3.118-7.193 4.636-.695.436-1.924.734-2.038 1.277-1.76 8.407-10.38 10.898-15 16.992-3.59 4.735-10.976 7.4-17.189 9.07-4.503 1.21-6.859 2.535-7.187 7.043-.346 4.747-2.587 7.057-7.557 5.948-2.326-.519-3.964-.128-3.928 2.828.011.89-.64 2.572-.95 2.563-4.279-.12-7.457 2.439-10.97 4.196-1.007.503-2.629.38-3.165 1.124-4.347 6.028-11.309 8.557-16.844 12.965-1.102.878-1.672 2.423-3.006 2.568l-8.914 3.743c-1.022.404-2.393 1.036-3.207.673-5.283-2.352-7.861.935-9.922 4.756-1.555 2.883-3.347 3.813-6.745 3.674-2.917-.119-6.168 1-8.809 2.427-7.007 3.787-15.835 3.487-21.711 9.837-.866.935-2.832.75-4.021 1.505-5.572 3.539-12.338 2.152-18.183 4.592-4.695 1.96-9.421 4.14-14.353 5.137-3.41.69-4.773 1.574-3.719 5.556-2.727-3.777-5.356-5.766-8.86-1.833-.192.216-.709.419-.908.314-6.145-3.262-9.595 2.448-14.333 3.984-4.527 1.468-8.799 4.552-14.273 3.324-1.676-.376-4.001 2.142-5.91 3.266-7.49-1.277-14.954-1.736-22.603.825-4.152 1.39-8.752 1.53-13.175 1.993-3.099.324-6.329-.189-9.342.436-4.626.96-9.052 3.556-13.847.583-.451-.28-1.415-.155-1.925.148-8.071 4.785-16.983 3.392-25.687 3.645-2.141.062-4.262.907-6.401.951-2.261.046-4.527-.495-6.8-.673l-10.657-.7-14.236-1.11c-1.672-.086-4.001-.2-4.956.764-4.362 4.399-5.482 4.469-9.437.833-3.071-.882-6.118-1.859-9.222-2.604-1.565-.376-3.535-.969-4.799-.366-6.101 2.908-11.674 1.031-17.5-.889-1.61-.531-3.871.966-5.847 1.479-1.818.472-3.655.871-5.484 1.303l-.449-3.98c-4.301-1.335-8.482-3.097-12.824-3.699-1.306-.181-3.059 2.871-4.586 4.421l-8.873-3.789c-2.77-1.125-6.448-.744-7.318-4.907-.106-.507-1.994-.921-3.047-.902-4.901.087-9.951 1.163-14.654.293-4.31-.797-8.562-3.171-12.236-5.72-2.688-1.866-4.412-3.59-7.738-1.22-2.361 1.683-4.479 1.135-4.47-2.539.003-1.266-.548-2.533-.847-3.799l-1.454.003-1.376 3.987c-2.123.55-3.906.877-5.59 1.478-2.903 1.037-5.113-.561-4.208-3.599 1.138-3.816-.696-4.51-3.686-4.405-3.293.115-6.581.4-10.184.784l-51.108-49.271c-.897-.877-1.307-2.254-1.616-3.674 30.716 10.08 58.461 5.397 83.176-15.244 4.693-3.919 8.563-8.822 13.294-13.132l51.722.393 42.742-.206c2.292.12 4.122.213 5.953.213l274.79.101c16.04.031 29.184-5.593 39.635-17.502 18.679-21.284 14.381-52.952-6.912-70.596-1.062-2.56-2.087-4.747-2.48-5.585l7.015-9.784c.662-.87 1.777-1.388 2.656-2.102 1.886-1.532 4.032-2.853 5.571-4.682 3.134-3.727 5.667-7.978 8.939-11.565 4.705-5.16 10.865-9.231 11.457-16.027 3.279-2.402 6.543-3.941 8.581-6.469 3.984-4.939 7.338-10.395 10.851-15.703l11.973-18.519c.519-.814 1.182-1.961.977-2.743-1.286-4.895.509-8.314 5.053-10.148-4.51-7.458-4.468-7.375 3.183-11.247 1.173-.594 2.303-2.279 2.509-3.606 1.038-6.705.937-13.904 9.284-16.492.679-.21 1.185-.975 2.766-2.342l-6.952-1.477c1.954-2.183 4.61-3.902 5.405-6.25 4.077-12.05 5.814-25.014 14.455-35.222.293-.346-.544-1.957-1.181-2.699-.665-.775-1.726-1.21-2.851-1.95.794-.992 1.207-1.716 1.805-2.221 2.984-2.521 6.488-4.813 2.094-9.13-.424-.417.152-2.137.592-3.103 2.394-5.256 5.374-10.356 2.84-16.497-.33-.8-.047-1.968.229-2.883.773-2.571 1.69-5.1 2.885-8.635-.192.065 1.505-.025 1.794-.709.597-1.415 1.125-4.156.491-4.584-4.406-2.969-4.124-6.875-2.702-11.011 3.257-9.473 5.804-18.972 2.24-29.149l4.821-1.993-5.471-5.768 1.866-2.221-5.653-16.431c1.724 1.561 3.519 3.052 5.163 4.694l66.788 66.746 30.86 30.283z"/><path fill="#497899" d="M890.005 384.994l5.657 16.426-1.866 2.221 5.471 5.768-4.821 1.993c3.564 10.178 1.018 19.677-2.24 29.149-1.422 4.136-1.704 8.043 2.702 11.011.635.428.106 3.169-.491 4.584-.289.684-1.985.774-1.794.709l-2.885 8.635c-.275.915-.559 2.082-.229 2.883 2.534 6.141-.447 11.24-2.84 16.497-.44.966-1.017 2.686-.592 3.103 4.394 4.318.89 6.609-2.094 9.13-.598.505-1.011 1.229-1.805 2.221 1.126.74 2.186 1.175 2.851 1.95.637.741 1.474 2.352 1.181 2.699-8.641 10.208-10.378 23.173-14.455 35.222-.795 2.349-3.451 4.067-5.405 6.25l6.952 1.477c-1.58 1.366-2.087 2.131-2.766 2.342-8.347 2.588-8.246 9.787-9.284 16.492-.205 1.327-1.336 3.012-2.509 3.606-7.651 3.872-7.693 3.789-3.183 11.247-4.544 1.833-6.339 5.253-5.053 10.148.205.782-.458 1.929-.977 2.743l-11.973 18.519c-3.513 5.309-6.867 10.764-10.851 15.703-2.038 2.527-5.302 4.066-8.581 6.469-.592 6.796-6.752 10.867-11.457 16.027-3.272 3.588-5.805 7.839-8.939 11.565-1.538 1.829-3.684 3.15-5.571 4.682-.879.714-1.994 1.232-2.656 2.102-2.243 2.946-4.331 6.011-7.015 9.784.393.837 1.418 3.025 2.154 5.432-10.258-6.966-21.395-9.768-33.654-9.746l-240.431.077c-2.828 0-5.655-.186-8.483-.286-1.514-1.946-2.842-4.077-4.569-5.809l-75.86-75.978c-1.713-1.719-2.958-3.906-4.139-6.09 34.62 19.606 72.723 15.849 100.566-10.211 3.734-3.495 7.084-7.4 11.082-10.959l92.317.269 139.956-.067c19.764-.278 34.051-11.273 41.83-29.263 7.982-18.461 4.962-35.987-8.109-51.337-10.693-12.557-24.958-17.186-41.205-17.354-1.515-1.619-2.891-2.926-4.267-4.232l1.531-.327c.099-2.679.016-5.382.352-8.031.307-2.418 1.005-4.795 1.648-7.158.475-1.741 1.586-3.416 1.643-5.146.255-7.666-.431-15.425.525-22.985.737-5.827-4.381-12.201.441-15.885l-1.914-10.812c-.824-4.314-1.6-8.642-2.606-12.916-.747-3.175-1.661-6.334-2.811-9.384-.858-2.275-2.059-4.461-3.381-6.51-1.54-2.386-3.379-4.58-4.625-6.919l17.904-.184c12.267-.384 23.042-4.535 31.942-13.145 12.415-12.011 15.755-26.835 13.388-43.412.691.461 1.479.824 2.059 1.397l80.093 79.689c1.534 1.728 2.838 2.826 4.143 3.924z"/><path fill="#477595" d="M740.015 356.785l5.089 6.857c1.322 2.049 2.524 4.235 3.381 6.51 1.149 3.049 2.064 6.208 2.811 9.384 1.005 4.273 1.782 8.601 2.606 12.916l1.914 10.812c-4.822 3.684.296 10.057-.441 15.885-.956 7.561-.269 15.32-.525 22.985-.058 1.73-1.169 3.405-1.643 5.146-.644 2.363-1.342 4.74-1.648 7.158-.336 2.649-.253 5.352-.352 8.031l-1.531.327c1.376 1.307 2.752 2.613 3.869 4.331-2.586.474-4.913.591-7.24.591l-209.671.046c-2.636.001-5.272.384-8.204.429-1.639-1.622-3.033-3.04-4.315-4.553-26.532-31.313-72.1-38.197-106.644-16.038-18.035 11.569-29.359 28.09-35.368 48.463-1.734-1.231-3.687-2.244-5.171-3.725L268.941 384.35c-1.491-1.494-2.573-3.396-3.603-5.309 38.987 23.096 82.87 14.87 110.942-20.934.707-.902 1.615-1.648 2.821-2.262 2.366.398 4.34.758 6.315.761l79.675.004c1.642-.002 3.284-.317 5.388-.419l27.915.178 184.223.024 57.398.391z"/><path d="M501.603 673.905l8.953.209 240.431-.077c12.259-.022 23.395 2.78 33.69 10.118 21.583 17.424 25.88 49.093 7.202 70.377-10.451 11.909-23.595 17.533-39.635 17.502l-274.79-.101a33.69 33.69 0 0 1-6.069-.509c-1.613-1.652-2.541-3.047-3.701-4.209l-80.782-80.744c-1.483-1.478-3.477-2.443-5.479-3.843-1.773-2.773-3.302-5.351-4.83-7.928 2.804-.199 5.607-.566 8.412-.571l116.598-.223zm238.876-317.182l-57.863-.329-184.223-.024c-9.151-.001-18.302-.072-28.01-.515-1.992-2.211-3.267-4.177-4.886-5.8l-80.899-80.969c-1.642-1.644-3.119-3.453-4.673-5.185l4.995-.12 371.407.005c23.82.004 40.461 12.638 47.226 35.885 2.527 16.888-.813 31.712-13.228 43.723-8.899 8.61-19.675 12.761-31.942 13.145-5.809.182-11.627.09-17.904.184z" fill="#a1bed3"/><path d="M376.32 674.487l5.212 8.517c8.593 16.671 12.08 33.588 9.56 51.663-1.876 13.458-7.419 25.385-14.536 36.727-4.25 4.449-8.12 9.352-12.813 13.271-24.716 20.641-52.46 25.323-83.232 14.878-23.789-10.204-40.314-26.862-48.359-51.278-12.237-37.141 3.919-77.845 38.236-96.899 33.849-18.794 76.577-11.074 101.745 18.381 1.296 1.517 2.608 3.019 4.186 4.74zm2.389-318.846c-.814.819-1.722 1.564-2.429 2.466-28.072 35.804-71.955 44.03-111.039 20.576-18.653-13.078-30.891-30.111-35.394-52.291-7.621-37.545 11.14-74.453 46.069-90.794 33.843-15.832 74.682-6.031 98.259 23.583a139.34 139.34 0 0 1 3.73 4.878c.624 1.159.875 1.782 1.218 2.348 16.831 27.749 17.024 55.869 1.922 84.347-.845 1.594-1.561 3.257-2.337 4.888zm3.393 140.829c6.009-20.778 17.332-37.298 35.368-48.868 34.545-22.16 80.112-15.275 106.644 16.038 1.282 1.513 2.676 2.931 4.327 4.899l5.199 8.889c14.314 29.121 13.177 57.167-3.824 84.477-.512.823-.76 1.81-1.13 2.72-3.528 3.715-6.879 7.62-10.613 11.115-27.843 26.06-65.946 29.817-100.624 9.844-18.528-12.744-30.79-29.449-35.701-51.227-2.822-12.515-2.565-25.015.355-37.887z" fill="#feffff"/><path fill="#98b4c8" d="M379.101 355.845c.384-1.835 1.1-3.497 1.945-5.092 15.102-28.478 14.909-56.599-1.922-84.347-.343-.566-.594-1.188-.972-2.122.329-.367.742-.396 1.465-.405 1.863 1.753 3.34 3.562 4.982 5.206l80.899 80.969c1.619 1.623 2.894 3.589 4.424 5.732-1.547.506-3.189.822-4.831.824-26.558.03-53.117.033-79.675-.004-1.974-.003-3.948-.363-6.315-.761z"/><path d="M889.834 384.727a26.92 26.92 0 0 1-3.783-3.384c1.174.803 2.392 1.961 3.783 3.384zM610.017 877.146c.005-.7.171-1.249.338-1.797l1.106.563c-.427.462-.855.924-1.444 1.235zm388.879-370.601c.286-.419.633-.644.979-.869l.34 1.215c-.42-.051-.84-.101-1.32-.346zM597.788 878.969c.119-.111.233-.133.347-.156-.117.081-.235.162-.347.156zm84.181-19.757c-.029-.001.029.002 0 0zm8.204-1.335c-.008.162-.074.258-.14.355l-.225-.254c.102-.055.204-.111.364-.101zm26.039-11.846c-.119.111-.233.133-.347.156.117-.081.234-.162.347-.156zm223.854-192.855c.271.082.607.341.943.599-.292-.141-.585-.282-.943-.599z" fill="#4b7c9e"/><path d="M908.867 805.95c.216-1.152.601-2.049.986-2.946l1.762 3.084c-.86.039-1.719.078-2.749-.138zm-161.86 106.962c-1.183.135-2.284.019-3.385-.097l.518-1.827c.983.558 1.966 1.115 2.867 1.924zm175.037-119.623c.703.256 1.449.802 2.196 1.347l-.729.767c-.474-.608-.949-1.217-1.467-2.114zm23.002-22.297c-.22.476-.562.819-.904 1.163l-.293-.318c.358-.326.717-.651 1.197-.845zM598.431 954.649c-.305.148-.566.146-.827.145l.243-.789c.209.165.418.33.584.643zm71.689-21.924c.365-.028.626.058.887.144l-.518.609c-.158-.213-.316-.426-.37-.753zm130.911-50.937c.029.002-.029-.002 0 0zm-284.243 76.181c.119-.111.233-.133.347-.156-.117.081-.235.163-.347.156z" fill="#4d7fa2"/><path fill="#98b4c8" d="M377.038 771.532c6.636-11.481 12.179-23.408 14.055-36.866 2.519-18.075-.967-34.993-9.315-51.468 1.648.827 3.642 1.793 5.125 3.271l80.782 80.744c1.16 1.162 2.088 2.557 3.24 4.139-13.977.395-28.071.575-42.164.572l-51.722-.393z"/><path fill="#a1bed3" d="M533.502 477.08l-4.764-8.381c2.624-.551 5.26-.933 7.896-.934l209.671-.046 7.379-.279c16.506-.244 30.771 4.385 41.464 16.943 13.071 15.35 16.091 32.876 8.109 51.337-7.779 17.99-22.066 28.985-41.83 29.263-46.488.654-92.992.154-139.995-.289-1.537-2.061-2.3-3.98-3.64-5.324l-78.949-78.94c-1.452-1.446-3.546-2.247-5.341-3.349z"/><path fill="#98b4c8" d="M533.639 477.428c1.658.753 3.751 1.555 5.204 3l78.949 78.94c1.339 1.345 2.103 3.264 3.174 5.271l-91.811.141c-.098-1.066.149-2.053.661-2.876 17.002-27.31 18.138-55.356 3.824-84.477z"/></svg>