<svg xmlns="http://www.w3.org/2000/svg" viewBox="0 0 500 121.508">
  <path fill="#00d0b9" fill-rule="evenodd" d="m157.123 0-46.788 100.559-17.737-38.408-6.983-15.363L64.246 0H49.581l28.631 62.151-17.458 38.408L14.665 0H0l53.771 115.922 2.793 5.586h9.777l2.793-5.586 17.458-38.408 17.458 38.408 2.794 5.586h9.776l2.793-5.586L171.788 0h-14.665Zm106.843 0-35.614 62.849L192.737 0h-15.363l43.995 78.212v43.296h13.268V78.212L279.33 0h-15.364ZM395.95 65.642H500V53.073H395.95v12.569Z"/>
  <path fill="#00d0b9" fill-rule="evenodd" d="M395.95 65.642H500V53.073H395.95v12.569ZM287.011 0v13.268h76.118l-81.006 108.24h102.654V108.24h-76.118L389.665 0H287.011ZM395.95 12.57H500V0H395.95v12.57Zm0 108.938H500v-12.569H395.95v12.569Z"/>
</svg>
