<?xml version="1.0" encoding="UTF-8"?>
<!DOCTYPE svg PUBLIC "-//W3C//DTD SVG 1.1//EN" "http://www.w3.org/Graphics/SVG/1.1/DTD/svg11.dtd">
<svg xmlns="http://www.w3.org/2000/svg" version="1.1" width="500px" height="500px" style="shape-rendering:geometricPrecision; text-rendering:geometricPrecision; image-rendering:optimizeQuality; fill-rule:evenodd; clip-rule:evenodd" xmlns:xlink="http://www.w3.org/1999/xlink">
<g><path style="opacity:0.953" fill="#107b10" d="M 229.5,4.5 C 277.496,0.667281 322.83,9.83395 365.5,32C 369.551,34.0185 373.217,36.5185 376.5,39.5C 357.873,38.7636 339.54,40.9302 321.5,46C 311.759,49.136 302.092,52.4693 292.5,56C 278.059,62.6372 263.559,69.1372 249,75.5C 220.396,59.855 190.23,48.355 158.5,41C 149.34,39.4996 140.173,39.3329 131,40.5C 125.933,39.6829 125.433,37.8496 129.5,35C 160.847,17.8249 194.18,7.65827 229.5,4.5 Z"/></g>
<g><path style="opacity:0.978" fill="#0f7b0f" d="M 83.5,72.5 C 97.2486,74.4722 109.915,79.3055 121.5,87C 143.679,102.438 164.346,119.772 183.5,139C 141.042,190.856 104.875,247.023 75,307.5C 63.2831,330.649 56.4498,355.149 54.5,381C 54.1069,386.951 55.1069,392.618 57.5,398C 57,398.167 56.5,398.333 56,398.5C 29.9544,365.375 13.9544,327.709 8,285.5C -1.09691,215.547 15.5698,152.547 58,96.5C 65.4619,87.199 73.9619,79.199 83.5,72.5 Z"/></g>
<g><path style="opacity:0.978" fill="#0f7b0f" d="M 411.5,72.5 C 414.649,72.2114 417.649,72.7114 420.5,74C 435.91,87.9998 449.077,103.833 460,121.5C 495.192,182.086 504.192,246.419 487,314.5C 478.804,345.558 464.804,373.558 445,398.5C 447.121,382.694 446.121,367.027 442,351.5C 433.287,322.739 421.287,295.406 406,269.5C 380.082,223.474 350.582,179.974 317.5,139C 334.278,121.942 352.278,106.275 371.5,92C 383.985,83.5902 397.318,77.0902 411.5,72.5 Z"/></g>
<g><path style="opacity:0.988" fill="#0f7b0f" d="M 248.5,202.5 C 251.564,202.144 254.231,202.977 256.5,205C 302.846,244.343 344.68,287.843 382,335.5C 395.278,353.548 406.112,373.048 414.5,394C 418.614,404.604 419.447,415.438 417,426.5C 414.926,431.475 411.759,435.642 407.5,439C 334.467,495.201 253.967,509.034 166,480.5C 140.429,470.804 116.929,457.637 95.5,441C 82.1955,429.062 78.6955,414.562 85,397.5C 91.3062,379.22 99.9728,362.22 111,346.5C 150.129,292.202 195.962,244.202 248.5,202.5 Z"/></g>
</svg>
