<svg xmlns="http://www.w3.org/2000/svg" preserveAspectRatio="xMidYMid" viewBox="0 0 512 142.04"><path d="M0 34.607h30.475l17.69 45.324 17.95-45.324h29.7l-44.68 107.436H21.306l12.268-28.409zm126.676-1.808c-22.856 0-37.318 20.532-37.318 40.934 0 22.985 15.883 41.193 36.931 41.193 15.754 0 21.694-9.556 21.694-9.556v7.49h26.6V34.607h-26.6v7.102c-.13 0-6.715-8.91-21.307-8.91m5.682 25.18c10.589 0 16.012 8.394 16.012 15.883 0 8.135-5.81 16.142-16.012 16.142-8.393 0-16.012-6.844-16.012-15.754 0-9.04 6.07-16.27 16.012-16.27m51.265 54.88V0h27.763v41.967s6.585-9.168 20.402-9.168c16.916 0 26.86 12.655 26.86 30.604v49.457h-27.635V70.118c0-6.07-2.84-12.01-9.426-12.01-6.715 0-10.201 5.94-10.201 12.01v42.742zM306.038 32.8c-26.214 0-41.838 19.886-41.838 41.322 0 24.276 18.853 40.934 41.967 40.934 22.34 0 41.838-15.883 41.838-40.547 0-26.988-20.532-41.709-41.967-41.709m.258 25.31c9.297 0 15.625 7.747 15.625 15.882 0 6.973-5.94 15.625-15.625 15.625-8.91 0-15.495-7.102-15.495-15.754 0-8.135 5.423-15.754 15.495-15.754m87.938-25.31c-26.214 0-41.839 19.886-41.839 41.322 0 24.276 18.853 40.934 41.968 40.934 22.34 0 41.838-15.883 41.838-40.547 0-26.988-20.403-41.709-41.967-41.709m.258 25.31c9.297 0 15.625 7.747 15.625 15.882 0 6.973-5.94 15.625-15.625 15.625-8.91 0-15.496-7.102-15.496-15.754 0-8.135 5.553-15.754 15.496-15.754m63.66 19.498c10.202 0 18.466 8.264 18.466 18.466 0 10.2-8.264 18.465-18.465 18.465s-18.466-8.264-18.466-18.465 8.265-18.466 18.466-18.466m24.536-6.715H449.5L478.943 0H512z" fill="#5F01D1"></path></svg>
