<svg xmlns="http://www.w3.org/2000/svg" viewBox="0 0 1024 1024">
   <circle cx="512" cy="512" r="512" style="fill:#fc3f1d"/>
   <path d="M390.3 542.51q0 14 1.37 28.06h-26.54a35.68 35.68 0 0 1-2.06-9.12h-1.14c-5.26 5.48-12.13 10.72-28.14 10.72-21 0-35.23-13-35.23-36.27s18.53-37 60.17-37h4.35v-6.39c0-12.32-5.95-16.88-19-16.88-14 0-30 5.93-37.29 11.41v-22.56a81.65 81.65 0 0 1 40.5-10.48c28.83 0 43 10.49 43 38.33ZM363.07 517h-3.89c-23.34 0-32.71 4.79-32.71 18.25 0 10.27 5.72 17.11 17.16 17.11 9.61 0 16-4.11 19.45-9.13Zm76.64 53.61h-27.22V455.82H439l.69 9.58h1.37c5.49-5.48 15.1-11.41 31.34-11.41 22.19 0 31.34 10 31.34 32.85v83.73h-27.2v-81c0-8.67-4.35-12.78-14-12.78-9.84 0-17.84 5.25-22.88 11.41ZM522.07 514c0-38.33 18.3-60.46 44.61-60.46 11.9 0 22 5.48 28.83 15.74V412h27.22v158.57h-25.17l-1.37-14.83c-7.32 11.18-17.84 17.11-30.65 17.11-25.62 0-43.47-21-43.47-58.86m28.14 0c0 26 7.32 37.41 22.19 37.41 15.33 0 23.11-11.63 23.11-38.33 0-26.46-7.32-38.1-22-38.1-15.56 0-23.33 11.86-23.33 39m144.35 58.86c-34.77 0-54.45-19.39-54.45-59.32 0-34.68 15.79-60 49-60 27.22 0 44.84 15.06 44.84 55v14.37h-65.67c1.14 19.16 8.69 28.52 28.6 28.52 13.27 0 27.45-5 35.92-10.72v22.13c-8 5.47-20.82 10-38.2 10m-26.31-70h38v-2.28c0-14.37-4.12-25.55-17.62-25.55-13 0-19.67 9.58-20.36 27.83m122.62 29-23.11 38.78h-27.71l36.15-59.77-34.77-55h30.65l22 34.68 19.67-34.68H841l-32.49 55.67L846 570.57h-30.65Zm-532.6 38.76v-19.39c0-26.24-4.58-38.1-15.1-60.91L207.28 412H178l42.32 91.48c8.69 18.71 11.21 29.43 11.21 51.1v16Zm18.07-81.9L310.23 412h-28.14l-33.4 76.66Z" style="fill:#fff"/>
</svg>
