<svg xmlns="http://www.w3.org/2000/svg" viewBox="0 0 500 493.374">
  <path fill="#3b5eda" d="M403.596 225.711h-91.44c-1.941 0-4.362 1.342-5.368 2.982l-54.799 89.21c-1.005 1.64-2.643 1.63-3.648 0l-54.22-89.192c-.997-1.64-3.409-2.99-5.349-2.99H96.904c-1.94 0-2.652 1.297-1.566 2.893l108.324 159.284c1.085 1.587 1.967 4.463 1.967 6.376v95.62c0 1.91 1.593 3.48 3.533 3.48h82.14c1.94 0 3.534-1.57 3.534-3.48v-95.62c0-1.913.89-4.789 1.967-6.376l108.35-159.284c1.086-1.587.374-2.894-1.566-2.894l.01-.009ZM243.964 87.903c2.386 1.307 4.7 2.367 5.92 2.367 1.218 0 3.266-.727 5.9-2.367 51.79-32.683 8.696-72.793-5.9-87.903-14.606 15.11-57.7 55.22-5.92 87.903Zm-54.467 119.225c2.946-.236 5.678-.648 6.773-1.376 1.103-.728 2.501-2.587 3.871-5.63 26.719-60.122-36.58-70.732-58.954-75.705-3.943 22.266-18.29 83.93 48.31 82.703v.008Zm-84.847-13.13c2.492-1.57 4.707-3.183 5.34-4.332.632-1.149.987-3.446.756-6.76-4.904-65.455-65.897-45.688-88.031-39.77 7.084 21.495 23.656 82.624 81.935 50.862Zm10.572 109.749c1.059-2.718 1.86-5.323 1.672-6.612-.187-1.298-1.29-3.34-3.47-5.875-43.434-49.756-80.556 1.859-94.787 19.581 18.664 13.137 68.87 52.58 96.575-7.094h.01ZM249.875 104.49c-11.427 12.707-45.15 46.416-4.636 73.89 1.869 1.096 3.675 1.99 4.636 1.99.961 0 2.555-.614 4.62-1.99 40.523-27.474 6.808-61.192-4.62-73.89Z"/>
  <path fill="#3b5eda" d="M138.325 331.716c-.65-.448-2.03-.772-4.085-.79-40.585-.166-33.83 38.313-32.156 52.222 13.813-3.315 52.769-10.532 38.422-47.933-.748-1.605-1.54-3.052-2.19-3.5h.009Zm106.914-65.889c1.869 1.095 3.675 1.99 4.636 1.99.961 0 2.555-.614 4.62-1.99 40.522-27.475 6.808-61.192-4.62-73.89-11.427 12.706-45.15 46.415-4.636 73.89ZM74.272 245.351c1.273-1.736 2.341-3.429 2.43-4.367.09-.938-.392-2.56-1.593-4.709C50.971 194.043 13.867 224.113 0 234.188c11.82 12.356 42.882 48.467 74.281 11.163h-.009Zm41.758-116.29c2.171-.148 4.174-.429 4.957-.973.783-.544 1.745-1.937 2.643-4.227 17.374-45.345-29.842-54.08-46.575-58.086-2.028 16.854-10.2 63.505 38.983 63.286h-.008Zm66.504-14.582c2.394.412 4.655.64 5.661.263 1.005-.377 2.43-1.64 4.03-3.893 31.33-44.68-17.621-66.752-34.727-75.565-6.836 17.792-28.508 66.339 25.036 79.195Zm121.182 91.279c1.103.727 3.826 1.131 6.773 1.376 66.591 1.228 52.244-60.437 48.31-82.702-22.376 4.964-85.674 15.583-58.955 75.705 1.37 3.034 2.768 4.902 3.872 5.63v-.009Zm85.549-22.856c-.23 3.314.125 5.612.757 6.76.632 1.15 2.848 2.772 5.34 4.333 58.287 31.753 74.86-29.369 81.935-50.862-22.135-5.91-83.128-25.685-88.032 39.769Zm-2.721 108.358c-2.18 2.535-3.284 4.586-3.47 5.875-.187 1.29.622 3.894 1.681 6.612 27.706 59.675 77.913 20.231 96.576 7.094-14.23-17.722-51.345-69.337-94.787-19.581Zm-20.806 39.652c-2.056.017-3.435.35-4.084.79-.65.438-1.443 1.885-2.19 3.498-14.339 37.4 24.609 44.618 38.422 47.933 1.673-13.9 8.428-52.388-32.156-52.22h.008Zm59.144-94.628c-1.21 2.148-1.682 3.77-1.592 4.709.088.938 1.147 2.63 2.43 4.367 31.4 37.295 62.46 1.193 74.28-11.164-13.867-10.067-50.971-40.136-75.108 2.088h-.01ZM379 128.088c.782.535 2.785.815 4.956.973 49.183.22 41.013-46.432 38.983-63.286-16.732 4.007-63.956 12.75-46.574 58.086.89 2.29 1.85 3.692 2.643 4.227H379Zm-67.204-13.346c1.006.376 3.258.149 5.661-.263 53.543-12.856 31.871-61.411 25.037-79.195-17.098 8.813-66.05 30.885-34.73 75.565 1.603 2.253 3.026 3.516 4.032 3.893Z"/>
</svg>
