<svg xmlns="http://www.w3.org/2000/svg" width="24" height="24" viewBox="0 0 24 24" fill="none" stroke="currentColor" stroke-width="2">
  <path d="M16.9459 3.17305C17.5332 2.58578 17.8268 2.29215 18.1521 2.15173C18.6208 1.94942 19.1521 1.94942 19.6208 2.15173C19.946 2.29215 20.2397 2.58578 20.8269 3.17305C21.4142 3.76032 21.7079 4.05395 21.8483 4.37925C22.0506 4.8479 22.0506 5.37924 21.8483 5.84789C21.7079 6.17319 21.4142 6.46682 20.8269 7.05409L15.8054 12.0757C14.5682 13.3129 13.9496 13.9315 13.1748 14.298C12.4 14.6645 11.5294 14.7504 9.78823 14.9222L9 15L9.07778 14.2118C9.24958 12.4706 9.33549 11.6 9.70201 10.8252C10.0685 10.0504 10.6871 9.43183 11.9243 8.19464L16.9459 3.17305Z" stroke="currentColor" stroke-linejoin="round" stroke-width="2" />
  <path d="M6 15H3.75C2.7835 15 2 15.7835 2 16.75C2 17.7165 2.7835 18.5 3.75 18.5H13.25C14.2165 18.5 15 19.2835 15 20.25C15 21.2165 14.2165 22 13.25 22H11" stroke="currentColor" stroke-linecap="round" stroke-linejoin="round" stroke-width="2" />
</svg>
