<svg width="37" height="25" viewBox="0 0 37 25" fill="none" xmlns="http://www.w3.org/2000/svg">
<path d="M9.29671 7.21083H3.09291C3.39261 7.9421 4.06394 8.30773 5.1069 8.30773C5.74226 8.30773 6.28772 8.09794 6.74326 7.67836L8.90111 9.18885C8.02598 10.3037 6.73727 10.8612 5.03497 10.8612C3.51249 10.8612 2.28971 10.4176 1.36663 9.53051C0.455545 8.63141 0 7.49854 0 6.13191C0 4.77726 0.449551 3.64439 1.34865 2.7333C2.24775 1.82221 3.39261 1.36667 4.78322 1.36667C6.12588 1.36667 7.23477 1.81622 8.1099 2.71532C8.98502 3.60244 9.42259 4.72931 9.42259 6.09594C9.42259 6.51552 9.38063 6.88715 9.29671 7.21083ZM3.05695 5.14289H6.5095C6.28173 4.30373 5.71829 3.88415 4.81919 3.88415C3.89611 3.88415 3.30869 4.30373 3.05695 5.14289Z" fill="#333333" style="fill:#333333;fill:color(display-p3 0.2000 0.2000 0.2000);fill-opacity:1;"/>
<path d="M15.2899 1.36667C16.2849 1.36667 17.0821 1.70833 17.6815 2.39164C18.2929 3.06297 18.5986 4.01003 18.5986 5.2328V10.6094H15.6136V5.61043C15.6136 5.15488 15.4937 4.80723 15.254 4.56747C15.0142 4.31572 14.6845 4.18985 14.265 4.18985C13.7974 4.18985 13.4318 4.3337 13.168 4.62142C12.9163 4.89714 12.7904 5.29874 12.7904 5.82621V10.6094H9.80541V1.61842H12.7904V2.51752C13.3299 1.75029 14.1631 1.36667 15.2899 1.36667Z" fill="#333333" style="fill:#333333;fill:color(display-p3 0.2000 0.2000 0.2000);fill-opacity:1;"/>
<path d="M24.8942 1.61842V4.47756H23.024V7.08495C23.024 7.46857 23.1559 7.71433 23.4196 7.82222C23.6954 7.91812 24.1869 7.94809 24.8942 7.91213V10.6094C23.1199 10.8252 21.8612 10.6634 21.1179 10.1239C20.3987 9.56048 20.039 8.57147 20.039 7.15688V4.47756H18.6904V1.61842H20.039V3.33496e-05L23.024 0V1.61842H24.8942Z" fill="#333333" style="fill:#333333;fill:color(display-p3 0.2000 0.2000 0.2000);fill-opacity:1;"/>
<path d="M34.0817 7.21083H27.8779C28.1776 7.9421 28.8489 8.30773 29.8919 8.30773C30.5273 8.30773 31.0727 8.09794 31.5283 7.67836L33.6861 9.18885C32.811 10.3037 31.5223 10.8612 29.82 10.8612C28.2975 10.8612 27.0747 10.4176 26.1516 9.53051C25.2406 8.63141 24.785 7.49854 24.785 6.13191C24.785 4.77726 25.2346 3.64439 26.1337 2.7333C27.0328 1.82221 28.1776 1.36667 29.5682 1.36667C30.9109 1.36667 32.0198 1.81622 32.8949 2.71532C33.77 3.60244 34.2076 4.72931 34.2076 6.09594C34.2076 6.51552 34.1656 6.88715 34.0817 7.21083ZM27.842 5.14289H31.2945C31.0667 4.30373 30.5033 3.88415 29.6042 3.88415C28.6811 3.88415 28.0937 4.30373 27.842 5.14289Z" fill="#333333" style="fill:#333333;fill:color(display-p3 0.2000 0.2000 0.2000);fill-opacity:1;"/>
<rect x="7.15869" y="13.1914" width="29.1128" height="10.9173" rx="3.63911" transform="rotate(-4.24618 7.15869 13.1914)" fill="#1071FF" style="fill:#1071FF;fill:color(display-p3 0.0627 0.4431 1.0000);fill-opacity:1;"/>
<path d="M15.5694 19.1426L16.9577 19.029L17.0393 20.0256L14.6198 20.2236L14.2897 16.1911L15.3209 16.1067L15.5694 19.1426ZM18.4657 19.99C17.6189 20.0593 16.8734 19.4534 16.8031 18.5951C16.7329 17.7367 17.3642 17.0181 18.2167 16.9483C19.0751 16.8781 19.8091 17.4849 19.8793 18.3433C19.9496 19.2016 19.3241 19.9197 18.4657 19.99ZM18.3903 19.0683C18.7244 19.0409 18.9523 18.7787 18.9231 18.4215C18.8938 18.0644 18.6263 17.8427 18.2922 17.8701C17.9638 17.8969 17.7359 18.1592 17.7652 18.5163C17.7944 18.8735 18.0619 19.0951 18.3903 19.0683ZM21.5304 19.7391C20.6548 19.8108 19.9439 19.2021 19.8736 18.3437C19.8034 17.4854 20.4058 16.7692 21.2815 16.6975C21.8518 16.6508 22.3712 16.904 22.6557 17.3331L21.8764 17.8724C21.7705 17.7129 21.5768 17.6128 21.3521 17.6312C21.0295 17.6576 20.8074 17.9193 20.8356 18.265C20.8639 18.6106 21.1257 18.8328 21.4483 18.8064C21.673 18.788 21.8536 18.6572 21.9259 18.4773L22.7826 18.8827C22.5721 19.3581 22.1007 19.6924 21.5304 19.7391ZM25.7028 19.3164L24.6314 19.4041L23.7129 18.244L23.8133 19.4711L22.8571 19.5493L22.527 15.5169L23.4833 15.4386L23.6761 17.7947L24.3207 16.5299L25.4268 16.4394L24.5768 17.9587L25.7028 19.3164ZM26.2691 18.174C26.4069 18.4411 26.6665 18.4952 26.9431 18.4726C27.1504 18.4556 27.3234 18.3719 27.4508 18.228L28.1817 18.6554C27.9233 19.0419 27.4997 19.2505 26.987 19.2925C25.9904 19.3741 25.3198 18.762 25.25 17.9094C25.1792 17.0453 25.7587 16.331 26.6573 16.2574C27.5214 16.1867 28.1969 16.7867 28.2676 17.6508C28.2775 17.7718 28.2754 17.888 28.2565 18.0113L26.2691 18.174ZM26.2033 17.5124L27.3094 17.4219C27.1985 17.1294 26.9653 17.0441 26.7349 17.063C26.4584 17.0856 26.2623 17.2409 26.2033 17.5124ZM29.273 16.6639C29.3561 16.2627 29.7025 16.0314 30.0885 15.9998L30.1753 17.0597C29.7903 17.0333 29.3206 17.2457 29.3673 17.816L29.4649 19.0085L28.5086 19.0867L28.2728 16.2064L29.2291 16.1281L29.273 16.6639Z" fill="white" style="fill:white;fill-opacity:1;"/>
</svg>
