<svg width="32" height="32" viewBox="0 0 32 32" fill="none" xmlns="http://www.w3.org/2000/svg">
<rect width="32" height="32" rx="16" fill="white" fill-opacity="0.08"/>
<path d="M17.6667 20.3359H15" stroke="white" stroke-width="1.3" stroke-linecap="round" stroke-linejoin="round"/>
<path d="M16.3377 12.3359V20.3363M16.3377 12.3359C16.9543 12.3359 17.7463 12.3495 18.377 12.4144C18.6437 12.4418 18.7771 12.4555 18.8951 12.5039C19.1406 12.6045 19.3385 12.8251 19.413 13.0812C19.4488 13.2043 19.4488 13.3448 19.4488 13.6258M16.3377 12.3359C15.7211 12.3359 14.929 12.3495 14.2984 12.4144C14.0317 12.4418 13.8983 12.4555 13.7803 12.5039C13.5348 12.6045 13.3369 12.8251 13.2624 13.0812C13.2266 13.2043 13.2266 13.3448 13.2266 13.6258" stroke="white" stroke-width="1.3" stroke-linecap="round"/>
<path d="M9.69531 11.7097V11.5364C9.69531 10.8892 9.69531 10.5656 9.82126 10.3184C9.93205 10.101 10.1088 9.92424 10.3263 9.81345C10.5734 9.6875 10.897 9.6875 11.5442 9.6875H11.7175" stroke="white" stroke-width="1.3" stroke-linecap="round"/>
<path d="M20.9609 9.6875H21.1343C21.7814 9.6875 22.105 9.6875 22.3522 9.81345C22.5696 9.92424 22.7464 10.101 22.8572 10.3184C22.9832 10.5656 22.9832 10.8892 22.9832 11.5364V11.7097" stroke="white" stroke-width="1.3" stroke-linecap="round"/>
<path d="M22.9832 20.9531V21.1265C22.9832 21.7736 22.9832 22.0972 22.8572 22.3444C22.7464 22.5618 22.5696 22.7386 22.3522 22.8494C22.105 22.9753 21.7814 22.9753 21.1343 22.9753H20.9609" stroke="white" stroke-width="1.3" stroke-linecap="round"/>
<path d="M9.69531 20.9531V21.1265C9.69531 21.7736 9.69531 22.0972 9.82126 22.3444C9.93205 22.5618 10.1088 22.7386 10.3263 22.8494C10.5734 22.9753 10.897 22.9753 11.5442 22.9753H11.7175" stroke="white" stroke-width="1.3" stroke-linecap="round"/>
</svg>

