<svg width="78" height="20" viewBox="0 0 78 20" fill="none" xmlns="http://www.w3.org/2000/svg">
<path d="M70.8763 19.8403C66.9243 19.8403 63.752 16.7487 63.752 12.7429C63.752 8.73718 66.9243 5.64551 70.8763 5.64551C74.8282 5.64551 78.0006 8.73718 78.0006 12.7429C78.0006 16.7487 74.8282 19.8403 70.8763 19.8403ZM70.8763 15.9153C72.6237 15.9153 73.9679 14.6517 73.9679 12.7429C73.9679 10.8341 72.6237 9.57059 70.8763 9.57059C69.1288 9.57059 67.7846 10.8341 67.7846 12.7429C67.7846 14.6517 69.1288 15.9153 70.8763 15.9153Z" fill="black" fill-opacity="0.75"/>
<path d="M60.5309 4.83915C59.2136 4.83915 58.1113 3.7369 58.1113 2.41957C58.1113 1.10225 59.2136 0 60.5309 0C61.8482 0 62.9505 1.10225 62.9505 2.41957C62.9505 3.7369 61.8482 4.83915 60.5309 4.83915ZM58.5146 19.4641V6.02205H62.5472V19.4641H58.5146Z" fill="black" fill-opacity="0.75"/>
<path d="M54.3411 19.8409C52.9431 19.8409 51.7871 18.6849 51.7871 17.2869C51.7871 15.8889 52.9431 14.7329 54.3411 14.7329C55.7391 14.7329 56.8951 15.8889 56.8951 17.2869C56.8951 18.6849 55.7391 19.8409 54.3411 19.8409Z" fill="black" fill-opacity="0.75"/>
<path d="M42.214 14.356C42.7248 15.7539 43.9615 16.2379 45.4401 16.2379C46.5424 16.2379 47.4833 15.8077 48.021 15.2163L51.2471 17.0713C49.9298 18.8994 47.9404 19.8403 45.3864 19.8403C40.7892 19.8403 37.9395 16.7487 37.9395 12.7429C37.9395 8.73718 40.8429 5.64551 45.0906 5.64551C49.0157 5.64551 51.9192 8.68341 51.9192 12.7429C51.9192 13.3075 51.8654 13.8452 51.7579 14.356H42.214ZM42.1334 11.3449H47.9135C47.4833 9.78567 46.2735 9.2211 45.0638 9.2211C43.5314 9.2211 42.5098 9.97386 42.1334 11.3449Z" fill="#1DB954"/>
<path d="M37.6653 9.89358H34.8962V14.6521C34.8962 15.8081 35.891 15.9156 37.6653 15.8081V19.4643C32.396 20.002 30.8636 18.4159 30.8636 14.6521V9.89358H28.7129V6.02226H30.8636V3.46826L34.8962 3.46824V6.02226H37.6653V9.89358Z" fill="#1DB954"/>
<path d="M23.0685 5.64551C25.7838 5.64551 28.0958 7.58117 28.0958 11.2105V19.464H24.0632V11.802C24.0632 10.1352 23.0147 9.35552 21.7243 9.35552C20.2456 9.35552 19.224 10.2158 19.224 12.1246V19.464H15.1914V6.02189H19.224V7.28544C19.9499 6.29073 21.2941 5.64551 23.0685 5.64551Z" fill="#1DB954"/>
<path d="M4.27458 14.356C4.78538 15.7539 6.02205 16.2379 7.50068 16.2379C8.60293 16.2379 9.54388 15.8077 10.0816 15.2163L13.3077 17.0713C11.9903 18.8994 10.0009 19.8403 7.44691 19.8403C2.84972 19.8403 0 16.7487 0 12.7429C0 8.73718 2.90349 5.64551 7.15119 5.64551C11.0763 5.64551 13.9798 8.68342 13.9798 12.7429C13.9798 13.3075 13.926 13.8452 13.8185 14.356H4.27458ZM4.19393 11.3449H9.97402C9.54388 9.78567 8.33409 9.2211 7.1243 9.2211C5.5919 9.2211 4.57031 9.97386 4.19393 11.3449Z" fill="#1DB954"/>
</svg>
