<svg width="22" height="13" viewBox="0 0 22 13" fill="none" xmlns="http://www.w3.org/2000/svg">
  <path d="M2.05469 11.75V10.9463C2.05469 7.97893 2.05469 6.49524 2.52362 5.31025C3.2775 3.40523 4.87182 1.90256 6.89305 1.19202C8.15032 0.750047 9.7245 0.750046 12.8729 0.750046C14.6719 0.750046 15.5715 0.750045 16.2899 1.0026C17.4449 1.40863 18.3559 2.26729 18.7867 3.35588C19.0547 4.03302 19.0547 4.88084 19.0547 6.57648V10.7642V11.75" stroke="white" stroke-width="1.5" stroke-linecap="round" stroke-linejoin="round"/>
  <path d="M2.05469 10.75C2.05469 8.90906 3.54707 7.41668 5.38802 7.41668C6.0538 7.41668 6.83872 7.53334 7.48605 7.35989C8.06121 7.20578 8.51045 6.75653 8.66456 6.18138C8.83801 5.53405 8.72135 4.74913 8.72135 4.08335C8.72135 2.2424 10.2137 0.750014 12.0547 0.750014" stroke="white" stroke-width="1.5" stroke-linecap="round" stroke-linejoin="round"/>
</svg>
