<svg width="32" height="32" viewBox="0 0 32 32" fill="none" xmlns="http://www.w3.org/2000/svg">
<path d="M18.8542 28.494L17.8702 30.7562C17.7164 31.1245 17.457 31.4392 17.1246 31.6606C16.7921 31.8819 16.4016 32 16.0022 32C15.6027 32 15.2122 31.8819 14.8798 31.6606C14.5474 31.4392 14.2879 31.1245 14.1342 30.7562L13.1501 28.494C11.4201 24.492 8.25163 21.2833 4.27007 19.501L1.23405 18.1461C0.865725 17.9768 0.553699 17.7055 0.334975 17.3644C0.116251 17.0233 0 16.6267 0 16.2216C0 15.8165 0.116251 15.4199 0.334975 15.0788C0.553699 14.7377 0.865725 14.4664 1.23405 14.2971L4.10207 13.0221C8.18372 11.1891 11.4064 7.86168 13.1061 3.7254L14.1182 1.28332C14.2668 0.905029 14.526 0.580261 14.8621 0.351349C15.1982 0.122436 15.5954 0 16.0022 0C16.4089 0 16.8062 0.122436 17.1422 0.351349C17.4783 0.580261 17.7375 0.905029 17.8862 1.28332L18.8982 3.7214C20.5962 7.85846 23.8174 11.1873 27.8983 13.0221L30.7703 14.3011C31.1375 14.4709 31.4484 14.7421 31.6663 15.0828C31.8842 15.4234 32 15.8193 32 16.2236C32 16.6279 31.8842 17.0237 31.6663 17.3644C31.4484 17.7051 31.1375 17.9763 30.7703 18.1461L27.7303 19.497C23.7495 21.2811 20.5825 24.4912 18.8542 28.494Z" fill="#08C225"/>
</svg>
