<svg width="59" height="43" viewBox="0 0 59 43" fill="none" xmlns="http://www.w3.org/2000/svg">
<path d="M15.4509 14.3803L5.70528 15.1086C6.26193 16.2222 7.35946 16.7178 8.99786 16.5953C9.99596 16.5207 10.8282 16.1271 11.4946 15.4145L15.0617 17.534C13.8178 19.3882 11.8588 20.4151 9.18465 20.615C6.79297 20.7937 4.82001 20.2405 3.26579 18.9553C1.72899 17.6499 0.880363 15.9237 0.719914 13.7769C0.560872 11.6488 1.13407 9.81641 2.43952 8.27961C3.74496 6.74281 5.48995 5.89277 7.67448 5.72951C9.78367 5.57187 11.5784 6.14789 13.0587 7.45756C14.5376 8.74839 15.3573 10.4672 15.5178 12.6141C15.567 13.2732 15.5447 13.8619 15.4509 14.3803ZM5.40599 11.8643L10.8296 11.459C10.3733 10.1674 9.43895 9.57448 8.02654 9.68003C6.57646 9.78841 5.70295 10.5165 5.40599 11.8643Z" fill="white"/>
<path d="M24.1796 4.49597C25.7427 4.37916 27.0351 4.82228 28.0569 5.82534C29.0962 6.80816 29.6876 8.26 29.8312 10.1809L30.4624 18.6271L25.7732 18.9776L25.1863 11.1245C25.1328 10.4089 24.9037 9.87687 24.4989 9.52838C24.0927 9.16105 23.56 9.00202 22.9009 9.05128C22.1664 9.10617 21.609 9.37508 21.2284 9.85802C20.8653 10.3207 20.7147 10.9664 20.7767 11.795L21.3382 19.309L16.649 19.6595L15.5934 5.53536L20.2826 5.1849L20.3882 6.59731C21.1456 5.32872 22.4094 4.62827 24.1796 4.49597Z" fill="white"/>
<path d="M39.2966 3.76387L39.6322 8.25533L36.6944 8.47489L37.0005 12.5709C37.0456 13.1735 37.2816 13.5441 37.7086 13.6826C38.153 13.8009 38.9286 13.7903 40.0355 13.6507L40.3521 17.888C37.5903 18.4353 35.5939 18.3288 34.363 17.5686C33.1669 16.768 32.4859 15.2565 32.3198 13.0343L32.0052 8.82535L29.8866 8.98369L29.5509 4.49222L31.6695 4.33389L31.4795 1.79155L36.1687 1.44104L36.3587 3.98343L39.2966 3.76387Z" fill="white"/>
<path d="M54.386 11.4704L44.6403 12.1988C45.197 13.3123 46.2945 13.8079 47.9329 13.6854C48.931 13.6108 49.7633 13.2172 50.4296 12.5046L53.9968 14.6241C52.7529 16.4783 50.7939 17.5053 48.1197 17.7051C45.728 17.8839 43.7551 17.3307 42.2009 16.0454C40.6641 14.74 39.8154 13.0138 39.655 10.867C39.4959 8.73895 40.0691 6.90654 41.3746 5.36974C42.68 3.83293 44.425 2.9829 46.6095 2.81964C48.7187 2.662 50.5135 3.23802 51.9938 4.54769C53.4727 5.83852 54.2924 7.55737 54.4528 9.70423C54.5021 10.3634 54.4798 10.9521 54.386 11.4704ZM44.3411 8.95443L49.7647 8.54909C49.3084 7.25758 48.374 6.6646 46.9616 6.77016C45.5115 6.87854 44.638 7.60663 44.3411 8.95443Z" fill="white"/>
<rect x="10.1494" y="24.6061" width="45.8613" height="17.198" rx="8.33792" transform="rotate(-8.52032 10.1494 24.6061)" fill="#08C225"/>
<path d="M23.2928 28.7342C23.8825 28.6413 24.4103 28.7878 24.876 29.1738C25.3476 29.5588 25.6354 30.0815 25.7395 30.742C25.8436 31.4025 25.7309 31.9913 25.4014 32.5086C25.0701 33.0141 24.6125 33.3128 24.0287 33.4048C23.4921 33.4893 23.0455 33.3784 22.689 33.0719L23.0318 35.248L21.5634 35.4793L20.5879 29.2873L22.0563 29.056L22.1204 29.4629C22.3654 29.0617 22.7562 28.8188 23.2928 28.7342ZM22.7713 31.9258C22.9702 32.0758 23.2082 32.1289 23.4854 32.0852C23.7626 32.0416 23.9727 31.9178 24.1158 31.7139C24.2581 31.5042 24.3069 31.2578 24.2623 30.9747C24.2177 30.6917 24.0955 30.4722 23.8956 30.3163C23.6968 30.1664 23.4587 30.1132 23.1816 30.1569C22.9044 30.2005 22.6942 30.3243 22.5511 30.5282C22.4089 30.7379 22.3601 30.9843 22.4047 31.2674C22.4493 31.5505 22.5715 31.7699 22.7713 31.9258Z" fill="white"/>
<path d="M28.2662 27.9506C28.7557 27.8735 29.1743 27.9798 29.5221 28.2695C29.8749 28.5523 30.0987 28.9945 30.1934 29.596L30.6102 32.2409L29.1418 32.4723L28.7543 30.0131C28.719 29.7891 28.6331 29.6273 28.4966 29.528C28.3591 29.4227 28.1872 29.3863 27.9808 29.4189C27.7508 29.4551 27.5821 29.5542 27.4747 29.7162C27.3722 29.8713 27.3414 30.0786 27.3823 30.3381L27.753 32.6911L26.2846 32.9224L25.309 26.7304L26.7774 26.4991L27.1258 28.7105C27.3317 28.2913 27.7119 28.038 28.2662 27.9506Z" fill="white"/>
<path d="M33.1253 31.9715C32.4648 32.0756 31.8722 31.9393 31.3475 31.5627C30.8169 31.187 30.4996 30.6689 30.3955 30.0084C30.2933 29.3597 30.4364 28.7721 30.8249 28.2455C31.2192 27.7181 31.7407 27.4032 32.3894 27.301C33.0499 27.197 33.6429 27.3362 34.1685 27.7187C34.7001 28.1003 35.0169 28.6155 35.1191 29.2642C35.2232 29.9246 35.0805 30.5152 34.6912 31.0359C34.3136 31.5547 33.7916 31.8666 33.1253 31.9715ZM32.9023 30.5562C33.1617 30.5154 33.3606 30.3964 33.4987 30.1994C33.6428 30.0014 33.6935 29.7668 33.6507 29.4955C33.608 29.2243 33.4876 29.0166 33.2897 28.8725C33.0976 28.7275 32.8719 28.6754 32.6124 28.7163C32.3588 28.7563 32.1604 28.8782 32.0173 29.082C31.8791 29.2791 31.8309 29.5103 31.8728 29.7757C31.9146 30.041 32.032 30.2492 32.225 30.4001C32.4229 30.5441 32.6487 30.5962 32.9023 30.5562Z" fill="white"/>
<path d="M37.63 26.6022L37.8516 28.0087L36.9317 28.1537L37.1337 29.4363C37.1635 29.625 37.2474 29.7357 37.3855 29.7683C37.5285 29.7941 37.7727 29.7708 38.1178 29.6982L38.3268 31.0251C37.4708 31.2688 36.8391 31.2867 36.4316 31.0789C36.0341 30.8575 35.7806 30.3989 35.6709 29.703L35.4633 28.385L34.7998 28.4895L34.5782 27.0831L35.2417 26.9785L35.1162 26.1824L36.5149 25.5088L36.7101 26.7472L37.63 26.6022Z" fill="white"/>
<path d="M40.6545 30.7853C39.994 30.8893 39.4014 30.7531 38.8767 30.3764C38.3461 30.0007 38.0288 29.4826 37.9247 28.8221C37.8225 28.1734 37.9656 27.5858 38.3541 27.0593C38.7484 26.5318 39.2699 26.217 39.9186 26.1148C40.5791 26.0107 41.1721 26.1499 41.6978 26.5325C42.2293 26.9141 42.5461 27.4292 42.6483 28.0779C42.7524 28.7384 42.6097 29.3289 42.2204 29.8496C41.8428 30.3684 41.3208 30.6803 40.6545 30.7853ZM40.4315 29.37C40.691 29.3291 40.8898 29.2101 41.028 29.0131C41.172 28.8151 41.2227 28.5805 41.18 28.3093C41.1372 28.038 41.0169 27.8303 40.8189 27.6862C40.6268 27.5412 40.4011 27.4892 40.1416 27.5301C39.888 27.57 39.6897 27.6919 39.5465 27.8958C39.4083 28.0928 39.3602 28.324 39.402 28.5894C39.4438 28.8548 39.5612 29.0629 39.7542 29.2138C39.9521 29.3579 40.1779 29.4099 40.4315 29.37Z" fill="white"/>
<path d="M44.0097 26.9206C44.0218 26.9973 44.0939 27.0524 44.2261 27.086C44.3633 27.1127 44.5663 27.1351 44.835 27.1532C45.0175 27.1607 45.1871 27.1823 45.3439 27.2181C45.5055 27.247 45.6685 27.3029 45.8326 27.3858C46.0017 27.4619 46.142 27.5849 46.2533 27.7547C46.3697 27.9177 46.446 28.1141 46.4822 28.3441C46.563 28.8572 46.4333 29.2614 46.0931 29.5567C45.7478 29.8589 45.3187 30.0504 44.8057 30.1312C43.8149 30.2873 43.0992 30.0405 42.6584 29.3908L43.8393 28.543C44.0024 28.8497 44.2579 28.9756 44.6059 28.9208C44.8712 28.879 44.9914 28.7784 44.9663 28.6192C44.9542 28.5426 44.8826 28.4904 44.7513 28.4627C44.625 28.4282 44.424 28.3995 44.1484 28.3764C43.9659 28.3689 43.7963 28.3473 43.6396 28.3115C43.4879 28.269 43.3274 28.2096 43.1583 28.1335C42.9951 28.0565 42.8592 27.9419 42.7506 27.7898C42.6411 27.6318 42.5692 27.4437 42.5348 27.2255C42.4605 26.7538 42.5768 26.3607 42.8839 26.0464C43.1909 25.7321 43.5892 25.5364 44.0786 25.4593C44.9455 25.3227 45.6068 25.5691 46.0625 26.1983L44.9119 26.9507C44.7422 26.7176 44.5394 26.6196 44.3036 26.6568C44.0854 26.6911 43.9874 26.7791 44.0097 26.9206Z" fill="white"/>
</svg>
