<svg width="375" height="812" viewBox="0 0 375 812" fill="none" xmlns="http://www.w3.org/2000/svg">
<rect width="375" height="812" fill="#1F1F1F"/>
<path d="M76.308 167.643L118.798 174.245C126.166 175.39 131.21 182.29 130.066 189.658L127.763 204.48C126.618 211.847 119.717 216.892 112.35 215.747L80.9475 210.868L80.7662 211.081C78.3313 213.938 74.7576 216.873 70.9788 218.774C67.6337 220.457 64.208 221.29 61.2865 220.639C64.2812 219.002 66.2524 217.108 67.6101 215.153C69.1249 212.971 69.8592 210.741 70.4172 208.789L70.5622 208.282L70.048 208.164L69.0737 207.94C62.1703 206.357 57.6642 199.708 58.7516 192.709L60.8955 178.911C62.0401 171.543 68.9406 166.499 76.308 167.643Z" stroke="white" stroke-opacity="0.16"/>
<circle cx="82.0536" cy="189.282" r="3" transform="rotate(8.83147 82.0536 189.282)" fill="white" fill-opacity="0.16"/>
<circle cx="82.0536" cy="189.282" r="2.5" transform="rotate(8.83147 82.0536 189.282)" stroke="white" stroke-opacity="0.16"/>
<circle cx="94.9003" cy="191.278" r="3" transform="rotate(8.83147 94.9003 191.278)" fill="white" fill-opacity="0.16"/>
<circle cx="94.9003" cy="191.278" r="2.5" transform="rotate(8.83147 94.9003 191.278)" stroke="white" stroke-opacity="0.16"/>
<circle cx="107.746" cy="193.274" r="3" transform="rotate(8.83147 107.746 193.274)" fill="white" fill-opacity="0.16"/>
<circle cx="107.746" cy="193.274" r="2.5" transform="rotate(8.83147 107.746 193.274)" stroke="white" stroke-opacity="0.16"/>
<path d="M218.5 490.881L221.068 492.048C222.899 492.88 225.025 492.74 226.731 491.674L240 483.381M232.147 479.153L217.573 487.03C216.604 487.554 216 488.568 216 489.669V508.971C216 509.817 216.531 510.571 217.327 510.855L220.411 511.956C222.055 512.543 223.873 512.385 225.391 511.524L238.968 503.818C240.533 502.93 241.5 501.269 241.5 499.469V481.79C241.5 480.945 240.969 480.191 240.173 479.907L237.019 478.78C235.416 478.208 233.645 478.343 232.147 479.153Z" stroke="white" stroke-opacity="0.16"/>
<path d="M232.499 504.381V499.381C227 495.381 237 489.881 234.999 497.881V502.381L232.5 504.381" stroke="white" stroke-opacity="0.16"/>
<path d="M224.5 477.382V488.381C224.5 490.381 221 490.881 219 489.882V477.382C219 467.881 234 461.881 238 469.382V481.882C236.29 483.577 235.166 483.813 233 483.382V471.882C233 469.382 224.5 473.881 224.5 477.382Z" fill="#1F1F1F" stroke="white" stroke-opacity="0.16"/>
<path d="M214.5 95L215.5 103H210.5L214 106L208.5 109.5H216V115.5L219.5 111L220.5 116L222.5 111L229.5 116L226 108.5L231 108L226.5 105.5L232 98L224 101V97L220.5 100L214.5 95Z" fill="#1F1F1F" stroke="white" stroke-opacity="0.16"/>
<circle cx="192" cy="134" r="17.5" stroke="white" stroke-opacity="0.16"/>
<path d="M200.5 115L193.5 121.5C193.5 125.5 197 130 201.5 128.5L207.5 121.5C206.614 118.589 205.773 116.817 203.842 115.848C202.979 115.415 201.899 115.142 200.5 115Z" fill="#1F1F1F"/>
<path d="M200.5 117C201.437 119.791 202.491 120.834 205.5 121.5M203.5 118C204.323 109.491 210.5 105.5 218.5 106.5M193.5 121.5L200.5 115C205.03 115.46 206.219 117.289 207.5 121.5L201.5 128.5C197 130 193.5 125.5 193.5 121.5Z" stroke="white" stroke-opacity="0.16"/>
<path d="M154.165 272L156.499 268.5L135.999 255L133.332 259M154.165 272L161.5 277.5C157.827 281.95 155.221 283.158 148.499 280.5M154.165 272L148.499 280.5M148.499 280.5L146.499 283.5C140.567 286.568 135.639 286.457 132.126 284.5M133.332 259L126 254C122.967 259.909 123.096 262.831 128 266.998M133.332 259L128 266.998M128 266.998L126.999 268.5C124.931 275 127.053 281.674 132.126 284.5M132.126 284.5L129.5 288M129.5 288L122.5 288.913M129.5 288L131.213 295.5M122.5 288.913L118 289.5L132.126 299.5L131.213 295.5M122.5 288.913L131.213 295.5" stroke="white" stroke-opacity="0.16"/>
<path d="M145.5 69H132.5L121 84.5H130.5L120 101.5L149 77.5H136L145.5 69Z" stroke="white" stroke-opacity="0.16"/>
<path d="M70.0924 440.812C92.4722 437.365 113.409 452.712 116.856 475.092C120.303 497.472 104.955 518.409 82.5756 521.856C60.1959 525.303 39.259 509.955 35.8119 487.575C32.3647 465.196 47.7127 444.259 70.0924 440.812Z" stroke="white" stroke-opacity="0.16"/>
<path d="M42 278.5C51.665 278.5 59.5 286.335 59.5 296C59.5 305.665 51.665 313.5 42 313.5C32.335 313.5 24.5 305.665 24.5 296C24.5 286.335 32.335 278.5 42 278.5Z" stroke="white" stroke-opacity="0.16"/>
<path d="M43 314L52.5 328.5L57 320H67L57 305.5" stroke="white" stroke-opacity="0.16"/>
<path d="M35.6451 289.233C35.3969 287.959 36.7747 286.992 37.8883 287.659L42.484 290.413L42.7313 290.561L42.9838 290.421L47.6686 287.822C48.8037 287.192 50.1484 288.203 49.8581 289.468L48.6604 294.69L48.5956 294.972L48.8072 295.168L52.7271 298.821C53.6768 299.706 53.1303 301.297 51.8372 301.412L46.5002 301.887L46.2133 301.911L46.0917 302.173L43.8292 307.03C43.2811 308.207 41.5986 308.179 41.0896 306.985L38.99 302.056L38.8767 301.79L38.5898 301.755L33.272 301.105C31.9834 300.947 31.4902 299.338 32.4688 298.485L36.5075 294.965L36.7251 294.775L36.6696 294.492L35.6451 289.233Z" stroke="white" stroke-opacity="0.16"/>
<path d="M324.301 94.8827C321.285 75.441 297.823 85.8317 315.587 116M324.305 94.8827C339.55 82.4473 351.115 107.955 315.582 116" stroke="white" stroke-opacity="0.16"/>
<path d="M201.249 575.098C200.851 573.49 201.831 571.863 203.439 571.465L233.528 564.005C235.136 563.606 236.763 564.586 237.162 566.194L247.51 607.931C247.909 609.539 246.928 611.166 245.32 611.565L215.231 619.025C213.623 619.423 211.996 618.443 211.597 616.835L201.249 575.098Z" stroke="white" stroke-opacity="0.16"/>
<path d="M197.375 571.938C196.445 568.185 198.732 564.389 202.485 563.459L230.632 556.48C234.385 555.55 238.181 557.838 239.111 561.59L251.625 612.062C252.555 615.814 250.268 619.61 246.515 620.541L218.367 627.519C214.615 628.45 210.819 626.162 209.889 622.41L197.375 571.938Z" stroke="white" stroke-opacity="0.16"/>
<path d="M233.785 619.061C234.117 620.401 233.3 621.757 231.96 622.089C230.62 622.421 229.264 621.604 228.932 620.264C228.6 618.924 229.417 617.568 230.757 617.236C232.097 616.904 233.453 617.721 233.785 619.061Z" stroke="white" stroke-opacity="0.16"/>
<path d="M329.655 233.177C334.932 228.698 343.129 228.904 348.638 232.997L348.644 233.001C353.02 236.151 355.163 241.941 354.142 247.205L354.142 247.209C353.543 250.429 351.247 252.473 348.283 252.196L348.269 252.195C347.515 252.146 346.779 251.94 346.023 251.686L345.258 251.421C341.423 250.052 337.412 248.597 333.556 247.223L333.555 247.222L333.269 247.133C332.966 247.052 332.615 247.005 332.286 247.077C332.054 247.127 331.82 247.239 331.635 247.448C331.451 247.656 331.35 247.921 331.314 248.218L331.308 248.272L331.313 248.326C331.499 250.249 333.079 251.693 334.83 252.644C336.602 253.607 338.707 254.155 340.237 254.215L340.237 254.216C341.258 254.258 341.454 254.265 342.474 254.122L342.475 254.124C343.156 254.029 343.763 253.928 344.374 253.962L344.383 253.962L344.393 253.963C346.144 253.992 347.489 255.488 347.336 257.327L347.335 257.338L347.335 257.347C347.27 258.81 346.658 259.653 345.776 260.196C344.854 260.764 343.606 261.02 342.249 261.189C336.623 261.775 330.375 259.247 326.982 254.697L326.663 254.251L326.655 254.239C322.044 247.887 323.633 238.156 329.65 233.182L329.655 233.177ZM342.448 237.462C340.007 236.487 337.066 236.598 335.093 238.38L335.092 238.38C334.91 238.546 334.663 238.783 334.505 239.094L334.446 239.222C334.285 239.611 334.341 240.037 334.557 240.369L334.539 240.42L334.797 240.644L334.799 240.645L334.799 240.646C335.005 240.826 335.246 240.932 335.421 241.002L335.428 241.005L335.435 241.008C338.267 242.03 342.367 243.515 345.103 244.48C345.37 244.576 345.696 244.636 346.019 244.574C346.364 244.508 346.684 244.305 346.879 243.933L346.881 243.929C347.026 243.648 347.049 243.347 347.041 243.103L347.04 243.094L347.04 243.085L347.017 242.832C346.722 240.247 344.694 238.29 342.447 237.462L342.448 237.462Z" stroke="white" stroke-opacity="0.16"/>
<path d="M83.855 618.012C83.2653 598.71 57.353 605.979 64.4922 621.765C56.3927 623.673 50.9278 619.452 49.3021 613.736C37.1173 622.683 41.3126 643.793 67.0483 646.01C76.9755 647.933 86.7741 639.733 78.1323 628.187C78.9383 627.183 79.298 626.626 79.6049 625.526M83.855 618.012C81.3172 618.557 79.9705 619.508 77.6113 622.168C77.9238 623.797 78.3685 624.494 79.6049 625.526M83.855 618.012C86.9272 620.217 91.731 619.741 92.173 621.489C92.615 623.237 85.7035 629.275 79.6049 625.526M62.962 627.59C59.0911 628.613 56.7815 628.174 52.5634 625.499C47.3902 640.111 71.1822 644.821 69.8065 633.726M77.4535 613.626C75.0968 612.791 73.2905 616.395 76.1184 617.396C78.4415 618.22 79.8101 614.46 77.4535 613.626Z" stroke="white" stroke-opacity="0.16"/>
<path d="M189 667.5C191.58 667.5 194.048 667.976 196.321 668.846C201.256 670.733 205.275 674.473 207.527 679.215C208.792 681.877 209.5 684.855 209.5 688C209.5 690.766 208.952 693.403 207.96 695.81C205.815 701.012 201.59 705.139 196.321 707.154C194.048 708.024 191.58 708.5 189 708.5C186.42 708.5 183.952 708.024 181.679 707.154C177.088 705.399 173.29 702.039 170.969 697.762C169.394 694.86 168.5 691.535 168.5 688C168.5 685.784 168.851 683.652 169.501 681.654C171.136 676.628 174.661 672.452 179.238 669.969C182.14 668.394 185.465 667.5 189 667.5Z" stroke="white" stroke-opacity="0.16"/>
<path d="M315.273 516.302C315.802 515.116 317.485 515.116 318.014 516.302L321.021 523.05L321.139 523.312L321.426 523.343L328.772 524.118C330.063 524.254 330.584 525.856 329.619 526.725L324.131 531.67L323.917 531.863L323.977 532.146L325.51 539.372C325.779 540.642 324.417 541.632 323.293 540.983L316.894 537.292L316.644 537.147L316.394 537.292L309.994 540.983C308.87 541.632 307.508 540.642 307.777 539.372L309.311 532.146L309.37 531.863L309.156 531.67L303.668 526.725C302.704 525.856 303.224 524.254 304.515 524.118L311.861 523.343L312.148 523.312L312.266 523.05L315.273 516.302Z" stroke="white" stroke-opacity="0.16"/>
<path d="M77 388.5L70 379.5L79.25 372.75M77 388.5L86.25 381.75M77 388.5L67 396L74 404.5L83.5 397.5M77 388.5L83.5 397.5M79.25 372.75L88.5 366L95.5 375L86.25 381.75M79.25 372.75L86.25 381.75M86.25 381.75L93 390.5L83.5 397.5" stroke="white" stroke-opacity="0.16"/>
<path d="M136.5 595.5L143.5 586.5L134.25 579.75M136.5 595.5L127.25 588.75M136.5 595.5L146.5 603L139.5 611.5L130 604.5M136.5 595.5L130 604.5M134.25 579.75L125 573L118 582L127.25 588.75M134.25 579.75L127.25 588.75M127.25 588.75L120.5 597.5L130 604.5" stroke="white" stroke-opacity="0.16"/>
<path d="M44 726.5L52.5 730M49.5 723.5L46.5 732.5" stroke="white" stroke-opacity="0.16"/>
<path d="M50 741L58.5 744.5M55.5 738L52.5 747" stroke="white" stroke-opacity="0.16"/>
<path d="M37 747L45.5 750.5M42.5 744L39.5 753" stroke="white" stroke-opacity="0.16"/>
<circle cx="62" cy="724" r="3.5" stroke="white" stroke-opacity="0.16"/>
<circle cx="34" cy="736" r="3.5" stroke="white" stroke-opacity="0.16"/>
<circle cx="61" cy="756" r="3.5" stroke="white" stroke-opacity="0.16"/>
<path d="M39 728.5C46.6493 742.34 50.5059 750.245 55.5 765M53.5 721.5C60.5036 735.404 64.1657 743.183 69.5 757M32 745C45.4215 736.764 53.5 732.905 69 727.5M39 759.5C52.855 750.853 61.0551 746.717 77 741.5" stroke="white" stroke-opacity="0.16"/>
<path d="M224 183.228C217.761 180.984 214.298 180.514 208 180.728C229 192.728 218 202.728 232 205.228C235.608 205.543 240.31 206.649 243.852 205.228M224 183.228C225.747 183.631 227.782 185.406 230 187.893M224 183.228C231.589 171.844 245.192 173.514 253.222 180.728M243.852 205.228C245.935 207.551 248.005 209.508 250 210.728C263.587 200.104 261.063 187.772 253.222 180.728M243.852 205.228C243.139 204.432 242.424 203.593 241.71 202.726M230 187.893C238.643 179.98 243.716 178.609 253.222 180.728M230 187.893C233.579 191.907 237.631 197.775 241.71 202.726M253.222 180.728C254.36 190.593 251.191 195.261 241.71 202.726" stroke="white" stroke-opacity="0.16"/>
<path d="M300 161.5L314.5 190.5L320.5 187L311.5 157L300 161.5Z" stroke="white" stroke-opacity="0.16"/>
<path d="M321.5 189.5L316 192.5L318.5 197.5L324 195L321.5 189.5Z" stroke="white" stroke-opacity="0.16"/>
<path d="M60.5551 138.5C60.0551 142.5 55.0551 143.5 52.5551 142C49.0551 138.5 57.5551 136.5 60.5551 138.5ZM60.5551 138.5L62.0146 125M46.2965 133.5C46.4166 133.015 46.5039 132.512 46.5551 132L47.6139 120M46.2965 133.5C45.2439 137.749 39.5518 139.494 37.5551 137.5C35.0518 135 41.5524 132 46.2965 133.5ZM47.6139 120L48.0551 115L62.5551 120L62.0146 125M47.6139 120L62.0146 125" stroke="white" stroke-opacity="0.16"/>
<path d="M54.4252 46.3638C51.1843 47.2383 47.7025 47.4593 44.0651 46.8733C42.5597 46.6308 41.4057 45.4208 41.2134 43.9081C40.9569 41.8905 40.9382 40.0439 41.122 38.3638M54.4252 46.3638C57.5811 45.5122 60.5086 44.0411 63.1289 42.0921M54.4252 46.3638C55.6289 75.8638 85.1289 57.3638 63.1289 42.0921M63.1289 42.0921C65.2081 40.5456 67.0938 38.6984 68.7469 36.6211C70.6985 34.1689 70.5361 30.5911 68.0153 28.7288C67.568 28.3983 67.105 28.089 66.6289 27.8012M44.6289 29.9477C42.7846 32.0484 41.5077 34.8399 41.122 38.3638M44.6289 29.9477C47.1289 33.8638 48.1289 38.3638 41.122 38.3638M44.6289 29.9477C47.7135 26.4342 52.3853 24.8533 57.1289 25.0107M57.1289 25.0107C60.4312 25.1202 63.7682 26.0723 66.6289 27.8012M57.1289 25.0107C55.1289 29.9477 62.6289 35.3638 66.6289 27.8012M51.1289 32.8638C55.1289 29.3638 64.6289 35.3638 58.1289 41.8638C51.1289 46.3638 46.1289 37.8638 51.1289 32.8638Z" stroke="white" stroke-opacity="0.16"/>
<path d="M325.5 340.5C327.371 340.5 329.166 340.821 330.833 341.41C332.416 341.97 333.886 342.772 335.196 343.772C339.028 346.697 341.5 351.309 341.5 356.5C341.5 365.337 334.337 372.5 325.5 372.5C316.663 372.5 309.5 365.337 309.5 356.5C309.5 347.663 316.663 340.5 325.5 340.5Z" stroke="white" stroke-opacity="0.16"/>
<path d="M160.735 386.5L175.235 383M164.237 384.5C161.738 379.5 144.814 385.489 147.237 390.5C148.235 396 167.736 391.5 164.237 384.5ZM187.972 377.883C185.473 372.882 168.549 378.872 170.972 383.883C171.971 389.383 191.471 384.883 187.972 377.883Z" stroke="white" stroke-opacity="0.16"/>
<path d="M312.218 664.657C315.218 662.157 312.718 658.657 309.218 660.657C307.218 662.657 308.218 666.657 312.218 664.657ZM312.218 664.657C316.552 664.101 318.218 667.157 315.718 669.657C311.218 673.157 309.218 668.157 312.218 664.657ZM318.769 661.799C321.232 666.661 319.962 672.257 315.932 674.298C311.903 676.339 306.64 674.052 304.177 669.19C301.714 664.328 302.985 658.732 307.014 656.691C311.044 654.65 316.306 656.937 318.769 661.799ZM321.095 660.266C324.793 667.567 322.096 676.37 315.072 679.927C308.047 683.485 299.355 680.451 295.658 673.15C291.96 665.85 294.656 657.047 301.681 653.489C308.705 649.932 317.397 652.966 321.095 660.266Z" stroke="white" stroke-opacity="0.16"/>
<circle cx="177.5" cy="505.5" r="7" stroke="white" stroke-opacity="0.16"/>
<circle cx="24.5" cy="398.5" r="7" stroke="white" stroke-opacity="0.16"/>
<circle cx="178" cy="215" r="4" fill="white" fill-opacity="0.16"/>
<circle cx="178" cy="215" r="3.5" stroke="white" stroke-opacity="0.16"/>
<circle cx="265" cy="120" r="4" fill="white" fill-opacity="0.16"/>
<circle cx="265" cy="120" r="3.5" stroke="white" stroke-opacity="0.16"/>
<circle cx="178" cy="34" r="4" fill="white" fill-opacity="0.16"/>
<circle cx="178" cy="34" r="3.5" stroke="white" stroke-opacity="0.16"/>
<circle cx="328" cy="303" r="4" fill="white" fill-opacity="0.16"/>
<circle cx="328" cy="303" r="3.5" stroke="white" stroke-opacity="0.16"/>
<circle cx="238" cy="388" r="4" fill="white" fill-opacity="0.16"/>
<circle cx="238" cy="388" r="3.5" stroke="white" stroke-opacity="0.16"/>
<circle cx="136" cy="548" r="4" fill="white" fill-opacity="0.16"/>
<circle cx="136" cy="548" r="3.5" stroke="white" stroke-opacity="0.16"/>
<circle cx="132" cy="781" r="4" fill="white" fill-opacity="0.16"/>
<circle cx="132" cy="781" r="3.5" stroke="white" stroke-opacity="0.16"/>
<circle cx="135" cy="346" r="3.5" stroke="white" stroke-opacity="0.16"/>
<circle cx="335" cy="477" r="4" fill="white" fill-opacity="0.16"/>
<circle cx="335" cy="477" r="3.5" stroke="white" stroke-opacity="0.16"/>
<path d="M227.928 427.66L216.008 429.878L220.048 418.445L227.928 427.66Z" stroke="white" stroke-opacity="0.16"/>
<path d="M36.9283 565.66L25.0078 567.878L29.0478 556.445L36.9283 565.66Z" stroke="white" stroke-opacity="0.16"/>
<path d="M129.22 731.335L117.545 728.06L126.219 719.587L129.22 731.335Z" stroke="white" stroke-opacity="0.16"/>
<path d="M114.474 140.95L105.446 132.856L116.97 129.084L114.474 140.95Z" stroke="white" stroke-opacity="0.16"/>
<path d="M27.1197 245.95L36.1475 237.856L24.6236 234.084L27.1197 245.95Z" stroke="white" stroke-opacity="0.16"/>
<path d="M319 777H305L300 761.5L309.5 752L324.5 753L330 767.5L319 777ZM319 777L315 766M304 761.5H314L322 755" stroke="white" stroke-opacity="0.16"/>
<path d="M263.5 295.5C255.451 295.5 248.183 297.931 242.939 301.836C237.696 305.741 234.5 311.097 234.5 316.97C234.5 322.842 237.696 328.198 242.939 332.104C248.183 336.009 255.451 338.438 263.5 338.438C267.262 338.438 270.856 337.908 274.152 336.942L274.382 336.875L274.579 337.012C276.861 338.602 279.862 339.919 282.917 340.706C285.449 341.359 287.985 341.638 290.154 341.431C288.627 340.449 287.37 339.54 286.361 338.419C285.096 337.013 284.242 335.304 283.658 332.774L283.584 332.452L283.851 332.258C289.219 328.34 292.5 322.92 292.5 316.97C292.5 311.097 289.304 305.741 284.061 301.836C278.817 297.931 271.549 295.5 263.5 295.5Z" stroke="white" stroke-opacity="0.16"/>
<path d="M240 329C262.644 329 281 314.897 281 297.5C281 280.103 262.644 266 240 266C217.356 266 199 280.103 199 297.5C199 306.314 203.712 314.283 211.306 320C209.724 327.076 206.735 329.324 201 333C208 334.5 218.5 331.5 225 326.825C229.646 328.229 234.706 329 240 329Z" fill="#1F1F1F"/>
<path d="M240 266.5C251.221 266.5 261.362 269.995 268.687 275.623C276.011 281.25 280.5 288.989 280.5 297.5C280.5 306.011 276.011 313.75 268.687 319.377C261.362 325.005 251.221 328.5 240 328.5C234.754 328.5 229.743 327.736 225.145 326.347L224.908 326.275L224.708 326.419C221.515 328.716 217.322 330.611 213.059 331.745C209.296 332.746 205.517 333.141 202.349 332.723C204.702 331.186 206.593 329.816 208.087 328.104C209.816 326.12 210.99 323.707 211.794 320.109L211.864 319.795L211.606 319.601C204.109 313.956 199.5 306.124 199.5 297.5C199.5 288.989 203.989 281.25 211.313 275.623C218.638 269.995 228.779 266.5 240 266.5Z" stroke="white" stroke-opacity="0.16"/>
<path d="M264.5 42.5L261 38M264.5 42.5L261 47M264.5 42.5H267M316 42.5V39L322 42.5L316 46V42.5ZM316 42.5H269.5M267 42.5L264 38M267 42.5L264 47M267 42.5H269.5M269.5 42.5L267 38M269.5 42.5L267 47" stroke="white" stroke-opacity="0.16"/>
<path d="M246.476 48.2072L244.155 43M246.476 48.2072L242 51.7381M246.476 48.2072L248.903 48.806M296.477 60.5407L297.315 57.1426L302.302 61.9777L295.639 63.9389L296.477 60.5407ZM296.477 60.5407L251.33 49.4047M248.903 48.806L247.068 43.7185M248.903 48.806L244.913 52.4566M248.903 48.806L251.33 49.4047M251.33 49.4047L249.981 44.4369M251.33 49.4047L247.825 53.175" stroke="white" stroke-opacity="0.16"/>
<path d="M258.743 29.6667L255 25.3667M258.743 29.6667L255.497 34.353M258.743 29.6667L261.239 29.5287M310.165 26.8243L309.971 23.3296L316.155 26.4931L310.358 30.3189L310.165 26.8243ZM310.165 26.8243L263.735 29.3907M261.239 29.5287L257.995 25.2011M261.239 29.5287L258.492 34.1874M261.239 29.5287L263.735 29.3907M263.735 29.3907L260.991 25.0355M263.735 29.3907L261.488 34.0218" stroke="white" stroke-opacity="0.16"/>
<rect x="194.683" y="757.699" width="16" height="16" transform="rotate(-30.0646 194.683 757.699)" stroke="white" stroke-opacity="0.16"/>
<rect x="-0.683219" y="0.182242" width="16" height="16" transform="matrix(-0.865461 -0.500976 -0.500976 0.865461 166.046 446.199)" stroke="white" stroke-opacity="0.16"/>
<path d="M330.94 423.42L332.563 417.871C333.338 415.22 331.818 412.443 329.167 411.668L283.341 398.267M330.94 423.42L322.937 450.787C322.162 453.437 319.385 454.957 316.734 454.182L264.799 438.994C262.149 438.219 260.629 435.442 261.404 432.791L269.407 405.425M330.94 423.42L269.407 405.425M269.407 405.425L271.03 399.876C271.805 397.225 274.582 395.705 277.232 396.48L278.027 396.713M278.027 396.713L278.927 393.636L284.241 395.19L283.341 398.267M278.027 396.713L283.341 398.267M320.119 412.665L319.137 416.022L326.409 418.149L327.391 414.792L320.119 412.665ZM317.185 408.164L318.084 405.087L328.993 408.277L328.093 411.354L317.185 408.164Z" stroke="white" stroke-opacity="0.16"/>
<circle cx="296.983" cy="425.331" r="15.1534" transform="rotate(16.3013 296.983 425.331)" fill="#1F1F1F"/>
<circle cx="296.983" cy="425.331" r="14.6534" transform="rotate(16.3013 296.983 425.331)" stroke="white" stroke-opacity="0.16"/>
<circle cx="296.983" cy="425.331" r="9.40798" transform="rotate(16.3013 296.983 425.331)" stroke="white" stroke-opacity="0.16"/>
<path d="M308.301 592.883C305.285 573.441 281.823 583.832 299.587 614M308.305 592.883C323.55 580.447 335.115 605.955 299.582 614" stroke="white" stroke-opacity="0.16"/>
<circle cx="133" cy="654" r="3.5" stroke="white" stroke-opacity="0.16"/>
<path d="M249.774 709.719C250.165 702.809 255.961 697.01 262.724 695.838L262.731 695.836C268.028 694.835 273.702 697.271 276.813 701.638L276.816 701.641C278.737 704.294 278.636 707.367 276.393 709.323L276.382 709.333C275.827 709.845 275.172 710.237 274.467 710.61L273.747 710.981C270.113 712.818 266.294 714.722 262.641 716.57L262.64 716.57L262.379 716.716C262.111 716.88 261.835 717.102 261.661 717.389C261.537 717.592 261.457 717.84 261.481 718.118C261.505 718.394 261.628 718.65 261.818 718.88L261.853 718.922L261.895 718.955C263.417 720.145 265.552 719.996 267.448 719.382C269.367 718.762 271.215 717.614 272.312 716.546L272.313 716.546C273.046 715.835 273.187 715.698 273.787 714.861L273.788 714.861C274.189 714.302 274.534 713.792 274.979 713.373L274.986 713.367L274.993 713.36C276.221 712.111 278.232 712.167 279.459 713.546L279.466 713.553L279.473 713.56C280.488 714.615 280.678 715.639 280.464 716.653C280.24 717.712 279.566 718.793 278.753 719.893C275.301 724.374 269.164 727.16 263.529 726.484L262.986 726.408L262.972 726.406C255.191 725.371 249.233 717.514 249.774 709.726L249.774 709.719ZM261.694 703.4C259.306 704.498 257.359 706.706 257.292 709.362L257.291 709.364C257.286 709.61 257.287 709.952 257.404 710.281L257.456 710.412C257.627 710.797 257.974 711.05 258.364 711.122L258.388 711.17L258.729 711.138L258.731 711.137L258.731 711.138C259.004 711.112 259.247 711.011 259.418 710.932L259.425 710.929L259.432 710.925C262.125 709.578 266.025 707.63 268.61 706.312C268.864 706.184 269.132 705.989 269.309 705.713C269.499 705.416 269.572 705.045 269.437 704.647L269.436 704.644C269.331 704.345 269.129 704.12 268.947 703.958L268.94 703.953L268.933 703.946L268.734 703.789C266.658 702.221 263.842 702.343 261.694 703.401L261.694 703.4Z" stroke="white" stroke-opacity="0.16"/>
<path d="M282.591 245.991C282.239 248.883 278.717 249.606 276.956 248.521C274.491 245.991 280.478 244.545 282.591 245.991ZM282.591 245.991L283.619 236.23M272.548 242.376C272.633 242.025 272.694 241.662 272.73 241.291L273.476 232.615M272.548 242.376C271.807 245.448 267.797 246.709 266.391 245.268C264.628 243.46 269.206 241.291 272.548 242.376ZM273.476 232.615L273.787 229L284 232.615L283.619 236.23M273.476 232.615L283.619 236.23" stroke="white" stroke-opacity="0.16"/>
</svg>
