<svg width="501" height="142" viewBox="0 0 501 142" fill="none" xmlns="http://www.w3.org/2000/svg">
<path fill-rule="evenodd" clip-rule="evenodd" d="M501 112H437V142H501V112ZM474.413 130.74C474.259 130.853 474.069 130.94 473.843 131C473.623 131.053 473.389 131.08 473.143 131.08C472.503 131.08 472.006 130.917 471.653 130.59C471.306 130.263 471.133 129.783 471.133 129.15V126.94H470.303V125.74H471.133V124.43H472.693V125.74H474.033V126.94H472.693V129.13C472.693 129.357 472.749 129.533 472.863 129.66C472.983 129.78 473.149 129.84 473.363 129.84C473.609 129.84 473.819 129.773 473.993 129.64L474.413 130.74ZM462.96 128.75C462.98 128.49 462.99 128.35 462.99 128.33C462.99 127.77 462.867 127.28 462.62 126.86C462.38 126.433 462.047 126.107 461.62 125.88C461.193 125.653 460.717 125.54 460.19 125.54C459.65 125.54 459.16 125.66 458.72 125.9C458.287 126.133 457.943 126.463 457.69 126.89C457.443 127.31 457.32 127.783 457.32 128.31C457.32 128.843 457.447 129.32 457.7 129.74C457.953 130.16 458.313 130.49 458.78 130.73C459.247 130.963 459.783 131.08 460.39 131.08C461.363 131.08 462.103 130.79 462.61 130.21L461.78 129.31C461.593 129.49 461.39 129.623 461.17 129.71C460.957 129.79 460.71 129.83 460.43 129.83C460.023 129.83 459.683 129.733 459.41 129.54C459.137 129.347 458.963 129.083 458.89 128.75H462.96ZM459.31 127.02C459.55 126.82 459.847 126.72 460.2 126.72C460.547 126.72 460.84 126.823 461.08 127.03C461.32 127.23 461.467 127.5 461.52 127.84H458.87C458.923 127.493 459.07 127.22 459.31 127.02ZM468.909 126.14C468.502 125.74 467.965 125.54 467.299 125.54C466.932 125.54 466.595 125.603 466.289 125.73C465.982 125.85 465.725 126.023 465.519 126.25V125.62H464.029V131H465.589V128.34C465.589 127.86 465.705 127.5 465.939 127.26C466.172 127.013 466.485 126.89 466.879 126.89C467.232 126.89 467.502 126.997 467.689 127.21C467.875 127.417 467.969 127.733 467.969 128.16V131H469.529V127.92C469.529 127.133 469.322 126.54 468.909 126.14ZM480.362 128.75C480.382 128.49 480.392 128.35 480.392 128.33C480.392 127.77 480.269 127.28 480.022 126.86C479.782 126.433 479.449 126.107 479.022 125.88C478.596 125.653 478.119 125.54 477.592 125.54C477.052 125.54 476.562 125.66 476.122 125.9C475.689 126.133 475.346 126.463 475.092 126.89C474.846 127.31 474.722 127.783 474.722 128.31C474.722 128.843 474.849 129.32 475.102 129.74C475.356 130.16 475.716 130.49 476.182 130.73C476.649 130.963 477.186 131.08 477.792 131.08C478.766 131.08 479.506 130.79 480.012 130.21L479.182 129.31C478.996 129.49 478.792 129.623 478.572 129.71C478.359 129.79 478.112 129.83 477.832 129.83C477.426 129.83 477.086 129.733 476.812 129.54C476.539 129.347 476.366 129.083 476.292 128.75H480.362ZM476.712 127.02C476.952 126.82 477.249 126.72 477.602 126.72C477.949 126.72 478.242 126.823 478.482 127.03C478.722 127.23 478.869 127.5 478.922 127.84H476.272C476.326 127.493 476.472 127.22 476.712 127.02Z" fill="#757575"/>
<path d="M111.202 6.464C111.506 6.464 111.73 6.424 111.874 6.344C112.023 6.264 112.098 6.136 112.098 5.96C112.098 5.77867 112.026 5.63467 111.882 5.528C111.738 5.42133 111.5 5.30133 111.17 5.168C111.01 5.104 110.855 5.04 110.706 4.976C110.562 4.90667 110.436 4.82667 110.33 4.736C110.223 4.64533 110.138 4.536 110.074 4.408C110.01 4.28 109.978 4.12267 109.978 3.936C109.978 3.568 110.114 3.27733 110.386 3.064C110.658 2.84533 111.028 2.736 111.498 2.736C111.615 2.736 111.732 2.744 111.85 2.76C111.967 2.77067 112.076 2.78667 112.178 2.808C112.279 2.824 112.367 2.84267 112.442 2.864C112.522 2.88533 112.583 2.904 112.626 2.92L112.49 3.56C112.41 3.51733 112.284 3.47467 112.114 3.432C111.943 3.384 111.738 3.36 111.498 3.36C111.29 3.36 111.108 3.40267 110.954 3.488C110.799 3.568 110.722 3.696 110.722 3.872C110.722 3.96267 110.738 4.04267 110.77 4.112C110.807 4.18133 110.86 4.24533 110.93 4.304C111.004 4.35733 111.095 4.408 111.202 4.456C111.308 4.504 111.436 4.55467 111.586 4.608C111.783 4.68267 111.959 4.75733 112.114 4.832C112.268 4.90133 112.399 4.984 112.506 5.08C112.618 5.176 112.703 5.29333 112.762 5.432C112.82 5.56533 112.85 5.73067 112.85 5.928C112.85 6.312 112.706 6.60267 112.418 6.8C112.135 6.99733 111.73 7.096 111.202 7.096C110.834 7.096 110.546 7.064 110.338 7C110.13 6.94133 109.988 6.896 109.914 6.864L110.05 6.224C110.135 6.256 110.271 6.304 110.458 6.368C110.644 6.432 110.892 6.464 111.202 6.464ZM114.5 2.84H116.076V3.464H114.5V5.384C114.5 5.592 114.516 5.76533 114.548 5.904C114.58 6.03733 114.628 6.144 114.692 6.224C114.756 6.29867 114.836 6.352 114.932 6.384C115.028 6.416 115.14 6.432 115.268 6.432C115.492 6.432 115.671 6.408 115.804 6.36C115.943 6.30667 116.039 6.26933 116.092 6.248L116.236 6.864C116.161 6.90133 116.031 6.94667 115.844 7C115.657 7.05867 115.444 7.088 115.204 7.088C114.921 7.088 114.687 7.05333 114.5 6.984C114.319 6.90933 114.172 6.8 114.06 6.656C113.948 6.512 113.868 6.336 113.82 6.128C113.777 5.91467 113.756 5.66933 113.756 5.392V1.68L114.5 1.552V2.84ZM118.559 2.752C118.623 2.752 118.695 2.75733 118.775 2.768C118.86 2.77333 118.943 2.784 119.023 2.8C119.103 2.81067 119.175 2.824 119.239 2.84C119.308 2.85067 119.359 2.86133 119.391 2.872L119.263 3.52C119.204 3.49867 119.105 3.47467 118.967 3.448C118.833 3.416 118.66 3.4 118.447 3.4C118.308 3.4 118.169 3.416 118.031 3.448C117.897 3.47467 117.809 3.49333 117.767 3.504V7H117.023V3.016C117.199 2.952 117.417 2.89333 117.679 2.84C117.94 2.78133 118.233 2.752 118.559 2.752ZM123.781 4.92C123.781 5.25067 123.733 5.54933 123.637 5.816C123.541 6.08267 123.405 6.312 123.229 6.504C123.058 6.696 122.853 6.84533 122.613 6.952C122.373 7.05333 122.111 7.104 121.829 7.104C121.546 7.104 121.285 7.05333 121.045 6.952C120.805 6.84533 120.597 6.696 120.421 6.504C120.25 6.312 120.117 6.08267 120.021 5.816C119.925 5.54933 119.877 5.25067 119.877 4.92C119.877 4.59467 119.925 4.29867 120.021 4.032C120.117 3.76 120.25 3.528 120.421 3.336C120.597 3.144 120.805 2.99733 121.045 2.896C121.285 2.78933 121.546 2.736 121.829 2.736C122.111 2.736 122.373 2.78933 122.613 2.896C122.853 2.99733 123.058 3.144 123.229 3.336C123.405 3.528 123.541 3.76 123.637 4.032C123.733 4.29867 123.781 4.59467 123.781 4.92ZM123.005 4.92C123.005 4.45067 122.898 4.08 122.685 3.808C122.477 3.53067 122.191 3.392 121.829 3.392C121.466 3.392 121.178 3.53067 120.965 3.808C120.757 4.08 120.653 4.45067 120.653 4.92C120.653 5.38933 120.757 5.76267 120.965 6.04C121.178 6.312 121.466 6.448 121.829 6.448C122.191 6.448 122.477 6.312 122.685 6.04C122.898 5.76267 123.005 5.38933 123.005 4.92ZM124.828 2.96C124.998 2.91733 125.225 2.872 125.508 2.824C125.79 2.776 126.116 2.752 126.484 2.752C126.814 2.752 127.089 2.8 127.308 2.896C127.526 2.98667 127.7 3.11733 127.828 3.288C127.961 3.45333 128.054 3.65333 128.108 3.888C128.161 4.12267 128.188 4.38133 128.188 4.664V7H127.444V4.824C127.444 4.568 127.425 4.34933 127.388 4.168C127.356 3.98667 127.3 3.84 127.22 3.728C127.14 3.616 127.033 3.536 126.9 3.488C126.766 3.43467 126.601 3.408 126.404 3.408C126.324 3.408 126.241 3.41067 126.156 3.416C126.07 3.42133 125.988 3.42933 125.908 3.44C125.833 3.44533 125.764 3.45333 125.7 3.464C125.641 3.47467 125.598 3.48267 125.572 3.488V7H124.828V2.96ZM132.029 6.584C131.965 6.62667 131.84 6.68267 131.653 6.752C131.472 6.816 131.259 6.848 131.013 6.848C130.763 6.848 130.525 6.808 130.301 6.728C130.083 6.648 129.891 6.52533 129.725 6.36C129.56 6.18933 129.429 5.97867 129.333 5.728C129.237 5.47733 129.189 5.17867 129.189 4.832C129.189 4.528 129.235 4.25067 129.325 4C129.416 3.744 129.547 3.52533 129.717 3.344C129.893 3.15733 130.107 3.01333 130.357 2.912C130.608 2.80533 130.891 2.752 131.205 2.752C131.552 2.752 131.853 2.77867 132.109 2.832C132.371 2.88 132.589 2.92533 132.765 2.968V6.68C132.765 7.32 132.6 7.784 132.269 8.072C131.939 8.36 131.437 8.504 130.765 8.504C130.504 8.504 130.256 8.48267 130.021 8.44C129.792 8.39733 129.592 8.34667 129.421 8.288L129.557 7.64C129.707 7.69867 129.888 7.74933 130.101 7.792C130.32 7.84 130.547 7.864 130.781 7.864C131.224 7.864 131.541 7.776 131.733 7.6C131.931 7.424 132.029 7.144 132.029 6.76V6.584ZM132.021 3.496C131.947 3.47467 131.845 3.456 131.717 3.44C131.595 3.41867 131.427 3.408 131.213 3.408C130.813 3.408 130.504 3.53867 130.285 3.8C130.072 4.06133 129.965 4.408 129.965 4.84C129.965 5.08 129.995 5.28533 130.053 5.456C130.117 5.62667 130.2 5.768 130.301 5.88C130.408 5.992 130.528 6.07467 130.661 6.128C130.8 6.18133 130.941 6.208 131.085 6.208C131.283 6.208 131.464 6.18133 131.629 6.128C131.795 6.06933 131.925 6.00267 132.021 5.928V3.496ZM107.692 13.928C107.692 13.4427 107.572 13.0693 107.332 12.808C107.092 12.5467 106.772 12.416 106.372 12.416C106.148 12.416 105.972 12.424 105.844 12.44C105.721 12.456 105.623 12.4747 105.548 12.496V15.12C105.639 15.1947 105.769 15.2667 105.94 15.336C106.111 15.4053 106.297 15.44 106.5 15.44C106.713 15.44 106.895 15.4027 107.044 15.328C107.199 15.248 107.324 15.1413 107.42 15.008C107.516 14.8693 107.585 14.7093 107.628 14.528C107.671 14.3413 107.692 14.1413 107.692 13.928ZM108.468 13.928C108.468 14.2427 108.425 14.5333 108.34 14.8C108.26 15.0667 108.14 15.296 107.98 15.488C107.82 15.68 107.623 15.8293 107.388 15.936C107.159 16.0427 106.895 16.096 106.596 16.096C106.356 16.096 106.143 16.064 105.956 16C105.775 15.936 105.639 15.8747 105.548 15.816V17.48H104.804V11.968C104.98 11.9253 105.199 11.88 105.46 11.832C105.727 11.7787 106.033 11.752 106.38 11.752C106.7 11.752 106.988 11.8027 107.244 11.904C107.5 12.0053 107.719 12.1493 107.9 12.336C108.081 12.5227 108.22 12.752 108.316 13.024C108.417 13.2907 108.468 13.592 108.468 13.928ZM110.923 15.464C111.099 15.464 111.254 15.4613 111.387 15.456C111.526 15.4453 111.64 15.4293 111.731 15.408V14.168C111.678 14.1413 111.59 14.12 111.467 14.104C111.35 14.0827 111.206 14.072 111.035 14.072C110.923 14.072 110.803 14.08 110.675 14.096C110.552 14.112 110.438 14.1467 110.331 14.2C110.23 14.248 110.144 14.3173 110.075 14.408C110.006 14.4933 109.971 14.608 109.971 14.752C109.971 15.0187 110.056 15.2053 110.227 15.312C110.398 15.4133 110.63 15.464 110.923 15.464ZM110.859 11.736C111.158 11.736 111.408 11.776 111.611 11.856C111.819 11.9307 111.984 12.04 112.107 12.184C112.235 12.3227 112.326 12.4907 112.379 12.688C112.432 12.88 112.459 13.0933 112.459 13.328V15.928C112.395 15.9387 112.304 15.9547 112.187 15.976C112.075 15.992 111.947 16.008 111.803 16.024C111.659 16.04 111.502 16.0533 111.331 16.064C111.166 16.08 111 16.088 110.835 16.088C110.6 16.088 110.384 16.064 110.187 16.016C109.99 15.968 109.819 15.8933 109.675 15.792C109.531 15.6853 109.419 15.5467 109.339 15.376C109.259 15.2053 109.219 15 109.219 14.76C109.219 14.5307 109.264 14.3333 109.355 14.168C109.451 14.0027 109.579 13.8693 109.739 13.768C109.899 13.6667 110.086 13.592 110.299 13.544C110.512 13.496 110.736 13.472 110.971 13.472C111.046 13.472 111.123 13.4773 111.203 13.488C111.283 13.4933 111.358 13.504 111.427 13.52C111.502 13.5307 111.566 13.5413 111.619 13.552C111.672 13.5627 111.71 13.5707 111.731 13.576V13.368C111.731 13.2453 111.718 13.1253 111.691 13.008C111.664 12.8853 111.616 12.7787 111.547 12.688C111.478 12.592 111.382 12.5173 111.259 12.464C111.142 12.4053 110.987 12.376 110.795 12.376C110.55 12.376 110.334 12.3947 110.147 12.432C109.966 12.464 109.83 12.4987 109.739 12.536L109.651 11.92C109.747 11.8773 109.907 11.8373 110.131 11.8C110.355 11.7573 110.598 11.736 110.859 11.736ZM114.663 15.464C114.967 15.464 115.191 15.424 115.335 15.344C115.484 15.264 115.559 15.136 115.559 14.96C115.559 14.7787 115.487 14.6347 115.343 14.528C115.199 14.4213 114.961 14.3013 114.631 14.168C114.471 14.104 114.316 14.04 114.167 13.976C114.023 13.9067 113.897 13.8267 113.791 13.736C113.684 13.6453 113.599 13.536 113.535 13.408C113.471 13.28 113.439 13.1227 113.439 12.936C113.439 12.568 113.575 12.2773 113.847 12.064C114.119 11.8453 114.489 11.736 114.959 11.736C115.076 11.736 115.193 11.744 115.311 11.76C115.428 11.7707 115.537 11.7867 115.639 11.808C115.74 11.824 115.828 11.8427 115.903 11.864C115.983 11.8853 116.044 11.904 116.087 11.92L115.951 12.56C115.871 12.5173 115.745 12.4747 115.575 12.432C115.404 12.384 115.199 12.36 114.959 12.36C114.751 12.36 114.569 12.4027 114.415 12.488C114.26 12.568 114.183 12.696 114.183 12.872C114.183 12.9627 114.199 13.0427 114.231 13.112C114.268 13.1813 114.321 13.2453 114.391 13.304C114.465 13.3573 114.556 13.408 114.663 13.456C114.769 13.504 114.897 13.5547 115.047 13.608C115.244 13.6827 115.42 13.7573 115.575 13.832C115.729 13.9013 115.86 13.984 115.967 14.08C116.079 14.176 116.164 14.2933 116.223 14.432C116.281 14.5653 116.311 14.7307 116.311 14.928C116.311 15.312 116.167 15.6027 115.879 15.8C115.596 15.9973 115.191 16.096 114.663 16.096C114.295 16.096 114.007 16.064 113.799 16C113.591 15.9413 113.449 15.896 113.375 15.864L113.511 15.224C113.596 15.256 113.732 15.304 113.919 15.368C114.105 15.432 114.353 15.464 114.663 15.464ZM118.233 15.464C118.537 15.464 118.761 15.424 118.905 15.344C119.054 15.264 119.129 15.136 119.129 14.96C119.129 14.7787 119.057 14.6347 118.913 14.528C118.769 14.4213 118.532 14.3013 118.201 14.168C118.041 14.104 117.886 14.04 117.737 13.976C117.593 13.9067 117.468 13.8267 117.361 13.736C117.254 13.6453 117.169 13.536 117.105 13.408C117.041 13.28 117.009 13.1227 117.009 12.936C117.009 12.568 117.145 12.2773 117.417 12.064C117.689 11.8453 118.06 11.736 118.529 11.736C118.646 11.736 118.764 11.744 118.881 11.76C118.998 11.7707 119.108 11.7867 119.209 11.808C119.31 11.824 119.398 11.8427 119.473 11.864C119.553 11.8853 119.614 11.904 119.657 11.92L119.521 12.56C119.441 12.5173 119.316 12.4747 119.145 12.432C118.974 12.384 118.769 12.36 118.529 12.36C118.321 12.36 118.14 12.4027 117.985 12.488C117.83 12.568 117.753 12.696 117.753 12.872C117.753 12.9627 117.769 13.0427 117.801 13.112C117.838 13.1813 117.892 13.2453 117.961 13.304C118.036 13.3573 118.126 13.408 118.233 13.456C118.34 13.504 118.468 13.5547 118.617 13.608C118.814 13.6827 118.99 13.7573 119.145 13.832C119.3 13.9013 119.43 13.984 119.537 14.08C119.649 14.176 119.734 14.2933 119.793 14.432C119.852 14.5653 119.881 14.7307 119.881 14.928C119.881 15.312 119.737 15.6027 119.449 15.8C119.166 15.9973 118.761 16.096 118.233 16.096C117.865 16.096 117.577 16.064 117.369 16C117.161 15.9413 117.02 15.896 116.945 15.864L117.081 15.224C117.166 15.256 117.302 15.304 117.489 15.368C117.676 15.432 117.924 15.464 118.233 15.464ZM124.235 16C124.086 15.616 123.926 15.1787 123.755 14.688C123.59 14.192 123.438 13.6773 123.299 13.144C123.161 13.6773 123.009 14.192 122.843 14.688C122.678 15.1787 122.521 15.616 122.371 16H121.723C121.478 15.4507 121.238 14.824 121.003 14.12C120.769 13.416 120.547 12.656 120.339 11.84H121.139C121.193 12.0907 121.257 12.3627 121.331 12.656C121.406 12.9493 121.483 13.2427 121.563 13.536C121.649 13.8293 121.737 14.112 121.827 14.384C121.918 14.656 122.003 14.8933 122.083 15.096C122.174 14.8453 122.262 14.5813 122.347 14.304C122.438 14.0213 122.523 13.7387 122.603 13.456C122.683 13.168 122.758 12.888 122.827 12.616C122.902 12.3387 122.966 12.08 123.019 11.84H123.635C123.683 12.08 123.742 12.3387 123.811 12.616C123.881 12.888 123.955 13.168 124.035 13.456C124.115 13.7387 124.198 14.0213 124.283 14.304C124.374 14.5813 124.465 14.8453 124.555 15.096C124.635 14.8933 124.718 14.656 124.803 14.384C124.894 14.112 124.982 13.8293 125.067 13.536C125.153 13.2427 125.233 12.9493 125.307 12.656C125.382 12.3627 125.446 12.0907 125.499 11.84H126.267C126.059 12.656 125.838 13.416 125.603 14.12C125.369 14.824 125.129 15.4507 124.883 16H124.235ZM130.632 13.92C130.632 14.2507 130.584 14.5493 130.488 14.816C130.392 15.0827 130.256 15.312 130.08 15.504C129.91 15.696 129.704 15.8453 129.464 15.952C129.224 16.0533 128.963 16.104 128.68 16.104C128.398 16.104 128.136 16.0533 127.896 15.952C127.656 15.8453 127.448 15.696 127.272 15.504C127.102 15.312 126.968 15.0827 126.872 14.816C126.776 14.5493 126.728 14.2507 126.728 13.92C126.728 13.5947 126.776 13.2987 126.872 13.032C126.968 12.76 127.102 12.528 127.272 12.336C127.448 12.144 127.656 11.9973 127.896 11.896C128.136 11.7893 128.398 11.736 128.68 11.736C128.963 11.736 129.224 11.7893 129.464 11.896C129.704 11.9973 129.91 12.144 130.08 12.336C130.256 12.528 130.392 12.76 130.488 13.032C130.584 13.2987 130.632 13.5947 130.632 13.92ZM129.856 13.92C129.856 13.4507 129.75 13.08 129.536 12.808C129.328 12.5307 129.043 12.392 128.68 12.392C128.318 12.392 128.03 12.5307 127.816 12.808C127.608 13.08 127.504 13.4507 127.504 13.92C127.504 14.3893 127.608 14.7627 127.816 15.04C128.03 15.312 128.318 15.448 128.68 15.448C129.043 15.448 129.328 15.312 129.536 15.04C129.75 14.7627 129.856 14.3893 129.856 13.92ZM133.215 11.752C133.279 11.752 133.351 11.7573 133.431 11.768C133.516 11.7733 133.599 11.784 133.679 11.8C133.759 11.8107 133.831 11.824 133.895 11.84C133.964 11.8507 134.015 11.8613 134.047 11.872L133.919 12.52C133.86 12.4987 133.762 12.4747 133.623 12.448C133.49 12.416 133.316 12.4 133.103 12.4C132.964 12.4 132.826 12.416 132.687 12.448C132.554 12.4747 132.466 12.4933 132.423 12.504V16H131.679V12.016C131.855 11.952 132.074 11.8933 132.335 11.84C132.596 11.7813 132.89 11.752 133.215 11.752ZM137.453 12.72C137.362 12.6453 137.232 12.5733 137.061 12.504C136.89 12.4347 136.704 12.4 136.501 12.4C136.288 12.4 136.104 12.44 135.949 12.52C135.8 12.5947 135.677 12.7013 135.581 12.84C135.485 12.9733 135.416 13.1333 135.373 13.32C135.33 13.5067 135.309 13.7067 135.309 13.92C135.309 14.4053 135.429 14.7813 135.669 15.048C135.909 15.3093 136.229 15.44 136.629 15.44C136.832 15.44 137 15.432 137.133 15.416C137.272 15.3947 137.378 15.3733 137.453 15.352V12.72ZM137.453 9.92L138.197 9.792V15.88C138.026 15.928 137.808 15.976 137.541 16.024C137.274 16.072 136.968 16.096 136.621 16.096C136.301 16.096 136.013 16.0453 135.757 15.944C135.501 15.8427 135.282 15.6987 135.101 15.512C134.92 15.3253 134.778 15.0987 134.677 14.832C134.581 14.56 134.533 14.256 134.533 13.92C134.533 13.6 134.573 13.3067 134.653 13.04C134.738 12.7733 134.861 12.544 135.021 12.352C135.181 12.16 135.376 12.0107 135.605 11.904C135.84 11.7973 136.106 11.744 136.405 11.744C136.645 11.744 136.856 11.776 137.037 11.84C137.224 11.904 137.362 11.9653 137.453 12.024V9.92Z" fill="#757575"/>
<path fill-rule="evenodd" clip-rule="evenodd" d="M68 51H67V49H56V62H61V63.617C61 64.141 61.121 64.675 61.502 65H56.5C56.102 65 55.721 64.842 55.439 64.561C55.158 64.279 55 63.898 55 63.5V48.5C55 48.102 55.158 47.721 55.439 47.439C55.721 47.158 56.102 47 56.5 47H66.5C66.898 47 67.279 47.158 67.561 47.439C67.842 47.721 68 48.102 68 48.5V51ZM70 53.25C70 52.56 69.44 52 68.75 52H63.25C62.56 52 62 52.56 62 53.25V63.75C62 64.44 62.56 65 63.25 65H68.75C69.44 65 70 64.44 70 63.75V53.25ZM54.593 65H48L50.599 62H54V63.804C54 64.383 54.337 64.894 54.593 65ZM66 64C65.447 64 65 63.552 65 63C65 62.448 65.447 62 66 62C66.552 62 66.999 62.448 66.999 63C66.999 63.552 66.552 64 66 64ZM69 61V54.976H63V61H69ZM67 46H65V43H48V58H54V60H46V41H67V46ZM66.5 53H65.5C65.224 53 65 53.224 65 53.5C65 53.776 65.224 54 65.5 54H66.5C66.775 54 67 53.776 67 53.5C67 53.224 66.775 53 66.5 53Z" fill="#757575"/>
<path d="M31.6667 32.6683C31.6667 39.11 26.4433 44.335 20 44.335C13.5567 44.335 8.33333 39.11 8.33333 32.6683C8.33333 26.2233 13.5567 21 20 21C26.4433 21 31.6667 26.2233 31.6667 32.6683V32.6683ZM29.0033 44.635C26.4933 46.53 23.38 47.6683 20 47.6683C16.6167 47.6683 13.5017 46.5267 10.9883 44.6317C4.20167 47.62 0 56.925 0 61H40C40 56.9617 35.6667 47.6567 29.0033 44.635V44.635Z" fill="#757575"/>
<path fill-rule="evenodd" clip-rule="evenodd" d="M236 8H172V38H236V8ZM217.022 22.432C217.102 22.2507 217.142 22.064 217.142 21.872C217.142 21.3813 216.996 21.0027 216.702 20.736C216.414 20.464 215.98 20.328 215.398 20.328C215.206 20.328 215.028 20.352 214.862 20.4C214.697 20.448 214.548 20.5067 214.414 20.576C214.281 20.6453 214.166 20.72 214.07 20.8C213.974 20.8747 213.902 20.9387 213.854 20.992L214.222 21.52C214.26 21.488 214.313 21.4427 214.382 21.384C214.452 21.32 214.537 21.2613 214.638 21.208C214.74 21.1493 214.854 21.0987 214.982 21.056C215.11 21.0133 215.252 20.992 215.406 20.992C215.534 20.992 215.654 21.0107 215.766 21.048C215.884 21.08 215.985 21.1333 216.07 21.208C216.156 21.2827 216.222 21.376 216.27 21.488C216.324 21.6 216.35 21.736 216.35 21.896C216.35 22.0453 216.321 22.1867 216.262 22.32C216.209 22.4533 216.134 22.584 216.038 22.712C215.948 22.8347 215.841 22.96 215.718 23.088C215.601 23.2107 215.476 23.336 215.342 23.464C215.182 23.624 215.02 23.7893 214.854 23.96C214.689 24.1307 214.54 24.312 214.406 24.504C214.273 24.696 214.164 24.9013 214.078 25.12C213.998 25.3333 213.958 25.5653 213.958 25.816V25.904C213.958 25.936 213.961 25.968 213.966 26H217.326V25.368H214.774C214.774 25.2773 214.809 25.1707 214.878 25.048C214.953 24.9253 215.044 24.7973 215.15 24.664C215.257 24.5307 215.369 24.4027 215.486 24.28L215.806 23.96C215.966 23.8 216.126 23.6373 216.286 23.472C216.446 23.3013 216.59 23.1307 216.718 22.96C216.846 22.784 216.948 22.608 217.022 22.432ZM195.214 25.296C195.294 25.5253 195.379 25.76 195.47 26H196.318C196.105 25.4133 195.905 24.872 195.718 24.376C195.531 23.8747 195.347 23.4 195.166 22.952C194.99 22.504 194.814 22.0773 194.638 21.672C194.462 21.2613 194.278 20.856 194.086 20.456H193.374C193.182 20.856 192.998 21.2613 192.822 21.672C192.646 22.0773 192.467 22.504 192.286 22.952C192.11 23.4 191.929 23.8747 191.742 24.376C191.555 24.872 191.355 25.4133 191.142 26H191.95L192.454 24.584H194.966C195.051 24.824 195.134 25.0613 195.214 25.296ZM194.23 22.6C194.401 23.032 194.571 23.48 194.742 23.944H192.678C192.843 23.48 193.009 23.032 193.174 22.6C193.345 22.1627 193.523 21.744 193.71 21.344C193.891 21.744 194.065 22.1627 194.23 22.6ZM198.775 21.768C198.695 21.7573 198.623 21.752 198.559 21.752C198.233 21.752 197.94 21.7813 197.679 21.84C197.417 21.8933 197.199 21.952 197.023 22.016V26H197.767V22.504C197.809 22.4933 197.897 22.4747 198.031 22.448C198.169 22.416 198.308 22.4 198.447 22.4C198.66 22.4 198.833 22.416 198.967 22.448C199.105 22.4747 199.204 22.4987 199.263 22.52L199.391 21.872C199.359 21.8613 199.308 21.8507 199.239 21.84C199.175 21.824 199.103 21.8107 199.023 21.8C198.943 21.784 198.86 21.7733 198.775 21.768ZM202.717 25.584C202.653 25.6267 202.527 25.6827 202.341 25.752C202.159 25.816 201.946 25.848 201.701 25.848C201.45 25.848 201.213 25.808 200.989 25.728C200.77 25.648 200.578 25.5253 200.413 25.36C200.247 25.1893 200.117 24.9787 200.021 24.728C199.925 24.4773 199.877 24.1787 199.877 23.832C199.877 23.528 199.922 23.2507 200.013 23C200.103 22.744 200.234 22.5253 200.405 22.344C200.581 22.1573 200.794 22.0133 201.045 21.912C201.295 21.8053 201.578 21.752 201.893 21.752C202.239 21.752 202.541 21.7787 202.797 21.832C203.058 21.88 203.277 21.9253 203.453 21.968V25.68C203.453 26.32 203.287 26.784 202.957 27.072C202.626 27.36 202.125 27.504 201.453 27.504C201.191 27.504 200.943 27.4827 200.709 27.44C200.479 27.3973 200.279 27.3467 200.109 27.288L200.245 26.64C200.394 26.6987 200.575 26.7493 200.789 26.792C201.007 26.84 201.234 26.864 201.469 26.864C201.911 26.864 202.229 26.776 202.421 26.6C202.618 26.424 202.717 26.144 202.717 25.76V25.584ZM202.709 22.496C202.634 22.4747 202.533 22.456 202.405 22.44C202.282 22.4187 202.114 22.408 201.901 22.408C201.501 22.408 201.191 22.5387 200.973 22.8C200.759 23.0613 200.653 23.408 200.653 23.84C200.653 24.08 200.682 24.2853 200.741 24.456C200.805 24.6267 200.887 24.768 200.989 24.88C201.095 24.992 201.215 25.0747 201.349 25.128C201.487 25.1813 201.629 25.208 201.773 25.208C201.97 25.208 202.151 25.1813 202.317 25.128C202.482 25.0693 202.613 25.0027 202.709 24.928V22.496ZM208.262 24.816C208.358 24.5493 208.406 24.2507 208.406 23.92C208.406 23.5947 208.358 23.2987 208.262 23.032C208.166 22.76 208.03 22.528 207.854 22.336C207.683 22.144 207.478 21.9973 207.238 21.896C206.998 21.7893 206.736 21.736 206.454 21.736C206.171 21.736 205.91 21.7893 205.67 21.896C205.43 21.9973 205.222 22.144 205.046 22.336C204.875 22.528 204.742 22.76 204.646 23.032C204.55 23.2987 204.502 23.5947 204.502 23.92C204.502 24.2507 204.55 24.5493 204.646 24.816C204.742 25.0827 204.875 25.312 205.046 25.504C205.222 25.696 205.43 25.8453 205.67 25.952C205.91 26.0533 206.171 26.104 206.454 26.104C206.736 26.104 206.998 26.0533 207.238 25.952C207.478 25.8453 207.683 25.696 207.854 25.504C208.03 25.312 208.166 25.0827 208.262 24.816ZM207.31 22.808C207.523 23.08 207.63 23.4507 207.63 23.92C207.63 24.3893 207.523 24.7627 207.31 25.04C207.102 25.312 206.816 25.448 206.454 25.448C206.091 25.448 205.803 25.312 205.59 25.04C205.382 24.7627 205.278 24.3893 205.278 23.92C205.278 23.4507 205.382 23.08 205.59 22.808C205.803 22.5307 206.091 22.392 206.454 22.392C206.816 22.392 207.102 22.5307 207.31 22.808ZM209.452 21.96C209.623 21.9173 209.85 21.872 210.132 21.824C210.415 21.776 210.74 21.752 211.108 21.752C211.439 21.752 211.714 21.8 211.932 21.896C212.151 21.9867 212.324 22.1173 212.452 22.288C212.586 22.4533 212.679 22.6533 212.732 22.888C212.786 23.1227 212.812 23.3813 212.812 23.664V26H212.068V23.824C212.068 23.568 212.05 23.3493 212.012 23.168C211.98 22.9867 211.924 22.84 211.844 22.728C211.764 22.616 211.658 22.536 211.524 22.488C211.391 22.4347 211.226 22.408 211.028 22.408C210.948 22.408 210.866 22.4107 210.78 22.416C210.695 22.4213 210.612 22.4293 210.532 22.44C210.458 22.4453 210.388 22.4533 210.324 22.464C210.266 22.4747 210.223 22.4827 210.196 22.488V26H209.452V21.96Z" fill="#757575"/>
<path fill-rule="evenodd" clip-rule="evenodd" d="M370 61H306V91H370V61ZM336.67 78.784C336.862 78.9707 337.187 79.0693 337.646 79.08L337.75 78.456C337.632 78.44 337.534 78.4213 337.454 78.4C337.374 78.3733 337.31 78.336 337.262 78.288C337.214 78.24 337.179 78.176 337.158 78.096C337.136 78.016 337.126 77.9147 337.126 77.792V72.792L336.382 72.92V77.912C336.382 78.3067 336.478 78.5973 336.67 78.784ZM330.512 77.616C330.512 78.1707 330.107 78.448 329.296 78.448C328.934 78.448 328.627 78.4053 328.376 78.32C328.126 78.2347 327.939 78.1573 327.816 78.088L327.584 78.728C327.643 78.76 327.723 78.8 327.824 78.848C327.931 78.8907 328.056 78.9333 328.2 78.976C328.344 79.0133 328.507 79.0453 328.688 79.072C328.875 79.104 329.078 79.12 329.296 79.12C329.942 79.12 330.44 78.9893 330.792 78.728C331.15 78.4667 331.328 78.0933 331.328 77.608C331.328 77.3467 331.288 77.1253 331.208 76.944C331.128 76.7573 331.014 76.5973 330.864 76.464C330.72 76.3307 330.547 76.216 330.344 76.12C330.147 76.024 329.928 75.928 329.688 75.832C329.518 75.768 329.36 75.704 329.216 75.64C329.078 75.576 328.955 75.5067 328.848 75.432C328.742 75.352 328.659 75.2613 328.6 75.16C328.542 75.0587 328.512 74.9333 328.512 74.784C328.512 74.6507 328.539 74.536 328.592 74.44C328.651 74.3387 328.728 74.256 328.824 74.192C328.92 74.128 329.032 74.08 329.16 74.048C329.288 74.016 329.427 74 329.576 74C329.87 74 330.126 74.0347 330.344 74.104C330.568 74.168 330.736 74.2347 330.848 74.304L331.096 73.672C330.968 73.5867 330.766 73.5093 330.488 73.44C330.216 73.3653 329.912 73.328 329.576 73.328C328.995 73.328 328.539 73.464 328.208 73.736C327.878 74.008 327.712 74.3867 327.712 74.872C327.712 75.1067 327.75 75.3067 327.824 75.472C327.904 75.6373 328.011 75.7813 328.144 75.904C328.278 76.0213 328.435 76.1253 328.616 76.216C328.798 76.3013 328.99 76.3787 329.192 76.448C329.368 76.512 329.534 76.576 329.688 76.64C329.848 76.704 329.99 76.7813 330.112 76.872C330.235 76.9573 330.331 77.0613 330.4 77.184C330.475 77.3013 330.512 77.4453 330.512 77.616ZM326.001 78.472C326.113 78.664 326.209 78.84 326.289 79H327.161C326.916 78.5253 326.633 78.0427 326.313 77.552C325.993 77.0613 325.652 76.5573 325.289 76.04L327.033 73.456H326.145L324.793 75.52L323.425 73.456H322.529L324.305 76.072C323.948 76.584 323.609 77.0827 323.289 77.568C322.975 78.0533 322.697 78.5307 322.457 79H323.313C323.393 78.84 323.489 78.664 323.601 78.472C323.719 78.2747 323.841 78.072 323.969 77.864C324.103 77.6507 324.241 77.44 324.385 77.232C324.529 77.0187 324.668 76.8187 324.801 76.632C324.935 76.8187 325.073 77.0187 325.217 77.232C325.361 77.44 325.5 77.6507 325.633 77.864C325.767 78.072 325.889 78.2747 326.001 78.472ZM333.626 78.464C333.802 78.464 333.957 78.4613 334.09 78.456C334.229 78.4453 334.343 78.4293 334.434 78.408V77.168C334.381 77.1413 334.293 77.12 334.17 77.104C334.053 77.0827 333.909 77.072 333.738 77.072C333.626 77.072 333.506 77.08 333.378 77.096C333.255 77.112 333.141 77.1467 333.034 77.2C332.933 77.248 332.847 77.3173 332.778 77.408C332.709 77.4933 332.674 77.608 332.674 77.752C332.674 78.0187 332.759 78.2053 332.93 78.312C333.101 78.4133 333.333 78.464 333.626 78.464ZM333.562 74.736C333.861 74.736 334.111 74.776 334.314 74.856C334.522 74.9307 334.687 75.04 334.81 75.184C334.938 75.3227 335.029 75.4907 335.082 75.688C335.135 75.88 335.162 76.0933 335.162 76.328V78.928C335.098 78.9387 335.007 78.9547 334.89 78.976C334.778 78.992 334.65 79.008 334.506 79.024C334.362 79.04 334.205 79.0533 334.034 79.064C333.869 79.08 333.703 79.088 333.538 79.088C333.303 79.088 333.087 79.064 332.89 79.016C332.693 78.968 332.522 78.8933 332.378 78.792C332.234 78.6853 332.122 78.5467 332.042 78.376C331.962 78.2053 331.922 78 331.922 77.76C331.922 77.5307 331.967 77.3333 332.058 77.168C332.154 77.0027 332.282 76.8693 332.442 76.768C332.602 76.6667 332.789 76.592 333.002 76.544C333.215 76.496 333.439 76.472 333.674 76.472C333.749 76.472 333.826 76.4773 333.906 76.488C333.986 76.4933 334.061 76.504 334.13 76.52C334.205 76.5307 334.269 76.5413 334.322 76.552C334.375 76.5627 334.413 76.5707 334.434 76.576V76.368C334.434 76.2453 334.421 76.1253 334.394 76.008C334.367 75.8853 334.319 75.7787 334.25 75.688C334.181 75.592 334.085 75.5173 333.962 75.464C333.845 75.4053 333.69 75.376 333.498 75.376C333.253 75.376 333.037 75.3947 332.85 75.432C332.669 75.464 332.533 75.4987 332.442 75.536L332.354 74.92C332.45 74.8773 332.61 74.8373 332.834 74.8C333.058 74.7573 333.301 74.736 333.562 74.736ZM339.553 78.464C339.857 78.464 340.081 78.424 340.225 78.344C340.375 78.264 340.449 78.136 340.449 77.96C340.449 77.7787 340.377 77.6347 340.233 77.528C340.089 77.4213 339.852 77.3013 339.521 77.168C339.361 77.104 339.207 77.04 339.057 76.976C338.913 76.9067 338.788 76.8267 338.681 76.736C338.575 76.6453 338.489 76.536 338.425 76.408C338.361 76.28 338.329 76.1227 338.329 75.936C338.329 75.568 338.465 75.2773 338.737 75.064C339.009 74.8453 339.38 74.736 339.849 74.736C339.967 74.736 340.084 74.744 340.201 74.76C340.319 74.7707 340.428 74.7867 340.529 74.808C340.631 74.824 340.719 74.8427 340.793 74.864C340.873 74.8853 340.935 74.904 340.977 74.92L340.841 75.56C340.761 75.5173 340.636 75.4747 340.465 75.432C340.295 75.384 340.089 75.36 339.849 75.36C339.641 75.36 339.46 75.4027 339.305 75.488C339.151 75.568 339.073 75.696 339.073 75.872C339.073 75.9627 339.089 76.0427 339.121 76.112C339.159 76.1813 339.212 76.2453 339.281 76.304C339.356 76.3573 339.447 76.408 339.553 76.456C339.66 76.504 339.788 76.5547 339.937 76.608C340.135 76.6827 340.311 76.7573 340.465 76.832C340.62 76.9013 340.751 76.984 340.857 77.08C340.969 77.176 341.055 77.2933 341.113 77.432C341.172 77.5653 341.201 77.7307 341.201 77.928C341.201 78.312 341.057 78.6027 340.769 78.8C340.487 78.9973 340.081 79.096 339.553 79.096C339.185 79.096 338.897 79.064 338.689 79C338.481 78.9413 338.34 78.896 338.265 78.864L338.401 78.224C338.487 78.256 338.623 78.304 338.809 78.368C338.996 78.432 339.244 78.464 339.553 78.464ZM344.028 78.456C343.894 78.4613 343.74 78.464 343.564 78.464C343.27 78.464 343.038 78.4133 342.868 78.312C342.697 78.2053 342.612 78.0187 342.612 77.752C342.612 77.608 342.646 77.4933 342.716 77.408C342.785 77.3173 342.87 77.248 342.972 77.2C343.078 77.1467 343.193 77.112 343.316 77.096C343.444 77.08 343.564 77.072 343.676 77.072C343.846 77.072 343.99 77.0827 344.108 77.104C344.23 77.12 344.318 77.1413 344.372 77.168V78.408C344.281 78.4293 344.166 78.4453 344.028 78.456ZM344.252 74.856C344.049 74.776 343.798 74.736 343.5 74.736C343.238 74.736 342.996 74.7573 342.772 74.8C342.548 74.8373 342.388 74.8773 342.292 74.92L342.38 75.536C342.47 75.4987 342.606 75.464 342.788 75.432C342.974 75.3947 343.19 75.376 343.436 75.376C343.628 75.376 343.782 75.4053 343.9 75.464C344.022 75.5173 344.118 75.592 344.188 75.688C344.257 75.7787 344.305 75.8853 344.332 76.008C344.358 76.1253 344.372 76.2453 344.372 76.368V76.576C344.35 76.5707 344.313 76.5627 344.26 76.552C344.206 76.5413 344.142 76.5307 344.068 76.52C343.998 76.504 343.924 76.4933 343.844 76.488C343.764 76.4773 343.686 76.472 343.612 76.472C343.377 76.472 343.153 76.496 342.94 76.544C342.726 76.592 342.54 76.6667 342.38 76.768C342.22 76.8693 342.092 77.0027 341.996 77.168C341.905 77.3333 341.86 77.5307 341.86 77.76C341.86 78 341.9 78.2053 341.98 78.376C342.06 78.5467 342.172 78.6853 342.316 78.792C342.46 78.8933 342.63 78.968 342.828 79.016C343.025 79.064 343.241 79.088 343.476 79.088C343.641 79.088 343.806 79.08 343.972 79.064C344.142 79.0533 344.3 79.04 344.444 79.024C344.588 79.008 344.716 78.992 344.828 78.976C344.945 78.9547 345.036 78.9387 345.1 78.928V76.328C345.1 76.0933 345.073 75.88 345.02 75.688C344.966 75.4907 344.876 75.3227 344.748 75.184C344.625 75.04 344.46 74.9307 344.252 74.856ZM349.431 74.872C349.431 75.064 349.391 75.2507 349.311 75.432C349.237 75.608 349.135 75.784 349.007 75.96C348.879 76.1307 348.735 76.3013 348.575 76.472C348.415 76.6373 348.255 76.8 348.095 76.96L347.775 77.28C347.658 77.4027 347.546 77.5307 347.439 77.664C347.333 77.7973 347.242 77.9253 347.167 78.048C347.098 78.1707 347.063 78.2773 347.063 78.368H349.615V79H346.255C346.25 78.968 346.247 78.936 346.247 78.904V78.816C346.247 78.5653 346.287 78.3333 346.367 78.12C346.453 77.9013 346.562 77.696 346.695 77.504C346.829 77.312 346.978 77.1307 347.143 76.96C347.309 76.7893 347.471 76.624 347.631 76.464C347.765 76.336 347.89 76.2107 348.007 76.088C348.13 75.96 348.237 75.8347 348.327 75.712C348.423 75.584 348.498 75.4533 348.551 75.32C348.61 75.1867 348.639 75.0453 348.639 74.896C348.639 74.736 348.613 74.6 348.559 74.488C348.511 74.376 348.445 74.2827 348.359 74.208C348.274 74.1333 348.173 74.08 348.055 74.048C347.943 74.0107 347.823 73.992 347.695 73.992C347.541 73.992 347.399 74.0133 347.271 74.056C347.143 74.0987 347.029 74.1493 346.927 74.208C346.826 74.2613 346.741 74.32 346.671 74.384C346.602 74.4427 346.549 74.488 346.511 74.52L346.143 73.992C346.191 73.9387 346.263 73.8747 346.359 73.8C346.455 73.72 346.57 73.6453 346.703 73.576C346.837 73.5067 346.986 73.448 347.151 73.4C347.317 73.352 347.495 73.328 347.687 73.328C348.269 73.328 348.703 73.464 348.991 73.736C349.285 74.0027 349.431 74.3813 349.431 74.872ZM351.099 74.08C350.774 74.5813 350.611 75.296 350.611 76.224C350.611 77.152 350.774 77.8667 351.099 78.368C351.43 78.8693 351.886 79.12 352.467 79.12C353.048 79.12 353.502 78.8693 353.827 78.368C354.158 77.8667 354.323 77.152 354.323 76.224C354.323 75.296 354.158 74.5813 353.827 74.08C353.502 73.5787 353.048 73.328 352.467 73.328C351.886 73.328 351.43 73.5787 351.099 74.08ZM353.483 75.36C353.52 75.632 353.539 75.92 353.539 76.224C353.539 76.528 353.52 76.816 353.483 77.088C353.451 77.36 353.392 77.5973 353.307 77.8C353.227 78.0027 353.118 78.1653 352.979 78.288C352.84 78.4053 352.67 78.464 352.467 78.464C352.264 78.464 352.094 78.4053 351.955 78.288C351.816 78.1653 351.704 78.0027 351.619 77.8C351.539 77.5973 351.48 77.36 351.443 77.088C351.411 76.816 351.395 76.528 351.395 76.224C351.395 75.92 351.411 75.632 351.443 75.36C351.48 75.088 351.539 74.8507 351.619 74.648C351.704 74.4453 351.816 74.2853 351.955 74.168C352.094 74.0453 352.264 73.984 352.467 73.984C352.67 73.984 352.84 74.0453 352.979 74.168C353.118 74.2853 353.227 74.4453 353.307 74.648C353.392 74.8507 353.451 75.088 353.483 75.36Z" fill="#757575"/>
<path d="M172 23.0325L167.031 20.0916L166.969 25.8647L172 23.0325ZM76.9946 22.5L167.494 23.4835L167.505 22.4836L77.0054 21.5L76.9946 22.5Z" fill="#757575"/>
<path d="M105.82 65.96C105.99 65.9173 106.214 65.872 106.492 65.824C106.774 65.776 107.1 65.752 107.468 65.752C107.734 65.752 107.958 65.7893 108.14 65.864C108.321 65.9333 108.473 66.0373 108.596 66.176C108.633 66.1493 108.692 66.112 108.772 66.064C108.852 66.016 108.95 65.9707 109.068 65.928C109.185 65.88 109.316 65.84 109.46 65.808C109.604 65.7707 109.758 65.752 109.924 65.752C110.244 65.752 110.505 65.8 110.708 65.896C110.91 65.9867 111.068 66.1173 111.18 66.288C111.297 66.4587 111.374 66.6613 111.412 66.896C111.454 67.1307 111.476 67.3867 111.476 67.664V70H110.732V67.824C110.732 67.5787 110.718 67.368 110.692 67.192C110.67 67.016 110.625 66.8693 110.556 66.752C110.492 66.6347 110.401 66.5493 110.284 66.496C110.172 66.4373 110.025 66.408 109.844 66.408C109.593 66.408 109.385 66.4427 109.22 66.512C109.06 66.576 108.95 66.6347 108.892 66.688C108.934 66.8267 108.966 66.9787 108.988 67.144C109.009 67.3093 109.02 67.4827 109.02 67.664V70H108.276V67.824C108.276 67.5787 108.262 67.368 108.236 67.192C108.209 67.016 108.161 66.8693 108.092 66.752C108.028 66.6347 107.937 66.5493 107.82 66.496C107.708 66.4373 107.564 66.408 107.388 66.408C107.313 66.408 107.233 66.4107 107.148 66.416C107.062 66.4213 106.98 66.4293 106.9 66.44C106.825 66.4453 106.756 66.4533 106.692 66.464C106.628 66.4747 106.585 66.4827 106.564 66.488V70H105.82V65.96ZM114.118 69.464C114.294 69.464 114.449 69.4613 114.582 69.456C114.721 69.4453 114.836 69.4293 114.926 69.408V68.168C114.873 68.1413 114.785 68.12 114.662 68.104C114.545 68.0827 114.401 68.072 114.23 68.072C114.118 68.072 113.998 68.08 113.87 68.096C113.748 68.112 113.633 68.1467 113.526 68.2C113.425 68.248 113.34 68.3173 113.27 68.408C113.201 68.4933 113.166 68.608 113.166 68.752C113.166 69.0187 113.252 69.2053 113.422 69.312C113.593 69.4133 113.825 69.464 114.118 69.464ZM114.054 65.736C114.353 65.736 114.604 65.776 114.806 65.856C115.014 65.9307 115.18 66.04 115.302 66.184C115.43 66.3227 115.521 66.4907 115.574 66.688C115.628 66.88 115.654 67.0933 115.654 67.328V69.928C115.59 69.9387 115.5 69.9547 115.382 69.976C115.27 69.992 115.142 70.008 114.998 70.024C114.854 70.04 114.697 70.0533 114.526 70.064C114.361 70.08 114.196 70.088 114.03 70.088C113.796 70.088 113.58 70.064 113.382 70.016C113.185 69.968 113.014 69.8933 112.87 69.792C112.726 69.6853 112.614 69.5467 112.534 69.376C112.454 69.2053 112.414 69 112.414 68.76C112.414 68.5307 112.46 68.3333 112.55 68.168C112.646 68.0027 112.774 67.8693 112.934 67.768C113.094 67.6667 113.281 67.592 113.494 67.544C113.708 67.496 113.932 67.472 114.166 67.472C114.241 67.472 114.318 67.4773 114.398 67.488C114.478 67.4933 114.553 67.504 114.622 67.52C114.697 67.5307 114.761 67.5413 114.814 67.552C114.868 67.5627 114.905 67.5707 114.926 67.576V67.368C114.926 67.2453 114.913 67.1253 114.886 67.008C114.86 66.8853 114.812 66.7787 114.742 66.688C114.673 66.592 114.577 66.5173 114.454 66.464C114.337 66.4053 114.182 66.376 113.99 66.376C113.745 66.376 113.529 66.3947 113.342 66.432C113.161 66.464 113.025 66.4987 112.934 66.536L112.846 65.92C112.942 65.8773 113.102 65.8373 113.326 65.8C113.55 65.7573 113.793 65.736 114.054 65.736ZM117.858 69.464C118.162 69.464 118.386 69.424 118.53 69.344C118.679 69.264 118.754 69.136 118.754 68.96C118.754 68.7787 118.682 68.6347 118.538 68.528C118.394 68.4213 118.157 68.3013 117.826 68.168C117.666 68.104 117.511 68.04 117.362 67.976C117.218 67.9067 117.093 67.8267 116.986 67.736C116.879 67.6453 116.794 67.536 116.73 67.408C116.666 67.28 116.634 67.1227 116.634 66.936C116.634 66.568 116.77 66.2773 117.042 66.064C117.314 65.8453 117.685 65.736 118.154 65.736C118.271 65.736 118.389 65.744 118.506 65.76C118.623 65.7707 118.733 65.7867 118.834 65.808C118.935 65.824 119.023 65.8427 119.098 65.864C119.178 65.8853 119.239 65.904 119.282 65.92L119.146 66.56C119.066 66.5173 118.941 66.4747 118.77 66.432C118.599 66.384 118.394 66.36 118.154 66.36C117.946 66.36 117.765 66.4027 117.61 66.488C117.455 66.568 117.378 66.696 117.378 66.872C117.378 66.9627 117.394 67.0427 117.426 67.112C117.463 67.1813 117.517 67.2453 117.586 67.304C117.661 67.3573 117.751 67.408 117.858 67.456C117.965 67.504 118.093 67.5547 118.242 67.608C118.439 67.6827 118.615 67.7573 118.77 67.832C118.925 67.9013 119.055 67.984 119.162 68.08C119.274 68.176 119.359 68.2933 119.418 68.432C119.477 68.5653 119.506 68.7307 119.506 68.928C119.506 69.312 119.362 69.6027 119.074 69.8C118.791 69.9973 118.386 70.096 117.858 70.096C117.49 70.096 117.202 70.064 116.994 70C116.786 69.9413 116.645 69.896 116.57 69.864L116.706 69.224C116.791 69.256 116.927 69.304 117.114 69.368C117.301 69.432 117.549 69.464 117.858 69.464ZM121.156 65.84H122.732V66.464H121.156V68.384C121.156 68.592 121.172 68.7653 121.204 68.904C121.236 69.0373 121.284 69.144 121.348 69.224C121.412 69.2987 121.492 69.352 121.588 69.384C121.684 69.416 121.796 69.432 121.924 69.432C122.148 69.432 122.327 69.408 122.46 69.36C122.599 69.3067 122.695 69.2693 122.748 69.248L122.892 69.864C122.818 69.9013 122.687 69.9467 122.5 70C122.314 70.0587 122.1 70.088 121.86 70.088C121.578 70.088 121.343 70.0533 121.156 69.984C120.975 69.9093 120.828 69.8 120.716 69.656C120.604 69.512 120.524 69.336 120.476 69.128C120.434 68.9147 120.412 68.6693 120.412 68.392V64.68L121.156 64.552V65.84ZM123.369 67.928C123.369 67.56 123.422 67.24 123.529 66.968C123.636 66.6907 123.777 66.4613 123.953 66.28C124.129 66.0987 124.332 65.9627 124.561 65.872C124.79 65.7813 125.025 65.736 125.265 65.736C125.825 65.736 126.254 65.912 126.553 66.264C126.852 66.6107 127.001 67.1413 127.001 67.856C127.001 67.888 127.001 67.9307 127.001 67.984C127.001 68.032 126.998 68.0773 126.993 68.12H124.145C124.177 68.552 124.302 68.88 124.521 69.104C124.74 69.328 125.081 69.44 125.545 69.44C125.806 69.44 126.025 69.4187 126.201 69.376C126.382 69.328 126.518 69.2827 126.609 69.24L126.713 69.864C126.622 69.912 126.462 69.9627 126.233 70.016C126.009 70.0693 125.753 70.096 125.465 70.096C125.102 70.096 124.788 70.0427 124.521 69.936C124.26 69.824 124.044 69.672 123.873 69.48C123.702 69.288 123.574 69.0613 123.489 68.8C123.409 68.5333 123.369 68.2427 123.369 67.928ZM126.225 67.52C126.23 67.184 126.145 66.9093 125.969 66.696C125.798 66.4773 125.561 66.368 125.257 66.368C125.086 66.368 124.934 66.4027 124.801 66.472C124.673 66.536 124.564 66.6213 124.473 66.728C124.382 66.8347 124.31 66.9573 124.257 67.096C124.209 67.2347 124.177 67.376 124.161 67.52H126.225ZM129.606 65.752C129.67 65.752 129.742 65.7573 129.822 65.768C129.907 65.7733 129.99 65.784 130.07 65.8C130.15 65.8107 130.222 65.824 130.286 65.84C130.355 65.8507 130.406 65.8613 130.438 65.872L130.31 66.52C130.251 66.4987 130.152 66.4747 130.014 66.448C129.88 66.416 129.707 66.4 129.494 66.4C129.355 66.4 129.216 66.416 129.078 66.448C128.944 66.4747 128.856 66.4933 128.814 66.504V70H128.07V66.016C128.246 65.952 128.464 65.8933 128.726 65.84C128.987 65.7813 129.28 65.752 129.606 65.752ZM135.308 64.456C135.142 64.6373 134.956 64.84 134.748 65.064C134.54 65.2827 134.321 65.5093 134.092 65.744C133.868 65.9733 133.644 66.2 133.42 66.424C133.196 66.648 132.985 66.856 132.788 67.048C133.017 67.208 133.26 67.4053 133.516 67.64C133.772 67.8747 134.022 68.1253 134.268 68.392C134.513 68.6587 134.742 68.9307 134.956 69.208C135.174 69.4853 135.356 69.7493 135.5 70H134.588C134.428 69.7493 134.244 69.4987 134.036 69.248C133.828 68.992 133.606 68.7493 133.372 68.52C133.142 68.2853 132.908 68.0693 132.668 67.872C132.433 67.6747 132.204 67.5067 131.98 67.368V70H131.204V64.456H131.98V66.904C132.166 66.728 132.372 66.5307 132.596 66.312C132.82 66.088 133.041 65.864 133.26 65.64C133.478 65.416 133.684 65.2027 133.876 65C134.073 64.792 134.238 64.6107 134.372 64.456H135.308ZM135.783 67.928C135.783 67.56 135.836 67.24 135.943 66.968C136.05 66.6907 136.191 66.4613 136.367 66.28C136.543 66.0987 136.746 65.9627 136.975 65.872C137.204 65.7813 137.439 65.736 137.679 65.736C138.239 65.736 138.668 65.912 138.967 66.264C139.266 66.6107 139.415 67.1413 139.415 67.856C139.415 67.888 139.415 67.9307 139.415 67.984C139.415 68.032 139.412 68.0773 139.407 68.12H136.559C136.591 68.552 136.716 68.88 136.935 69.104C137.154 69.328 137.495 69.44 137.959 69.44C138.22 69.44 138.439 69.4187 138.615 69.376C138.796 69.328 138.932 69.2827 139.023 69.24L139.127 69.864C139.036 69.912 138.876 69.9627 138.647 70.016C138.423 70.0693 138.167 70.096 137.879 70.096C137.516 70.096 137.202 70.0427 136.935 69.936C136.674 69.824 136.458 69.672 136.287 69.48C136.116 69.288 135.988 69.0613 135.903 68.8C135.823 68.5333 135.783 68.2427 135.783 67.928ZM138.639 67.52C138.644 67.184 138.559 66.9093 138.383 66.696C138.212 66.4773 137.975 66.368 137.671 66.368C137.5 66.368 137.348 66.4027 137.215 66.472C137.087 66.536 136.978 66.6213 136.887 66.728C136.796 66.8347 136.724 66.9573 136.671 67.096C136.623 67.2347 136.591 67.376 136.575 67.52H138.639ZM139.996 70.776C140.054 70.8027 140.129 70.8267 140.22 70.848C140.316 70.8747 140.409 70.888 140.5 70.888C140.793 70.888 141.022 70.8213 141.188 70.688C141.353 70.56 141.502 70.3493 141.636 70.056C141.3 69.416 140.985 68.7387 140.692 68.024C140.404 67.304 140.164 66.576 139.972 65.84H140.772C140.83 66.08 140.9 66.3387 140.98 66.616C141.065 66.8933 141.158 67.1787 141.26 67.472C141.361 67.7653 141.47 68.0587 141.588 68.352C141.705 68.6453 141.828 68.928 141.956 69.2C142.158 68.64 142.334 68.0853 142.484 67.536C142.633 66.9867 142.774 66.4213 142.908 65.84H143.676C143.484 66.624 143.27 67.3787 143.036 68.104C142.801 68.824 142.548 69.4987 142.276 70.128C142.169 70.368 142.057 70.5733 141.94 70.744C141.828 70.92 141.702 71.064 141.564 71.176C141.425 71.288 141.268 71.3707 141.092 71.424C140.921 71.4773 140.726 71.504 140.508 71.504C140.449 71.504 140.388 71.4987 140.324 71.488C140.26 71.4827 140.196 71.472 140.132 71.456C140.073 71.4453 140.017 71.432 139.964 71.416C139.916 71.4 139.881 71.3867 139.86 71.376L139.996 70.776Z" fill="#757575"/>
<path d="M257.593 14.712C257.753 14.8347 257.921 14.9867 258.097 15.168C258.279 15.3493 258.455 15.5467 258.625 15.76C258.801 15.968 258.967 16.1813 259.121 16.4C259.276 16.6133 259.407 16.8133 259.513 17H258.641C258.529 16.8133 258.399 16.624 258.249 16.432C258.105 16.2347 257.953 16.048 257.793 15.872C257.633 15.6907 257.471 15.5253 257.305 15.376C257.14 15.2267 256.983 15.1013 256.833 15V17H256.089V10.92L256.833 10.792V14.584C256.961 14.456 257.103 14.3147 257.257 14.16C257.412 14.0053 257.564 13.848 257.713 13.688C257.863 13.528 258.004 13.376 258.137 13.232C258.271 13.0827 258.385 12.952 258.481 12.84H259.353C259.231 12.9733 259.097 13.12 258.953 13.28C258.809 13.44 258.66 13.6027 258.505 13.768C258.351 13.928 258.193 14.0907 258.033 14.256C257.879 14.416 257.732 14.568 257.593 14.712ZM259.826 14.928C259.826 14.56 259.879 14.24 259.986 13.968C260.093 13.6907 260.234 13.4613 260.41 13.28C260.586 13.0987 260.789 12.9627 261.018 12.872C261.247 12.7813 261.482 12.736 261.722 12.736C262.282 12.736 262.711 12.912 263.01 13.264C263.309 13.6107 263.458 14.1413 263.458 14.856C263.458 14.888 263.458 14.9307 263.458 14.984C263.458 15.032 263.455 15.0773 263.45 15.12H260.602C260.634 15.552 260.759 15.88 260.978 16.104C261.197 16.328 261.538 16.44 262.002 16.44C262.263 16.44 262.482 16.4187 262.658 16.376C262.839 16.328 262.975 16.2827 263.066 16.24L263.17 16.864C263.079 16.912 262.919 16.9627 262.69 17.016C262.466 17.0693 262.21 17.096 261.922 17.096C261.559 17.096 261.245 17.0427 260.978 16.936C260.717 16.824 260.501 16.672 260.33 16.48C260.159 16.288 260.031 16.0613 259.946 15.8C259.866 15.5333 259.826 15.2427 259.826 14.928ZM262.682 14.52C262.687 14.184 262.602 13.9093 262.426 13.696C262.255 13.4773 262.018 13.368 261.714 13.368C261.543 13.368 261.391 13.4027 261.258 13.472C261.13 13.536 261.021 13.6213 260.93 13.728C260.839 13.8347 260.767 13.9573 260.714 14.096C260.666 14.2347 260.634 14.376 260.618 14.52H262.682ZM264.039 17.776C264.097 17.8027 264.172 17.8267 264.263 17.848C264.359 17.8747 264.452 17.888 264.543 17.888C264.836 17.888 265.065 17.8213 265.231 17.688C265.396 17.56 265.545 17.3493 265.679 17.056C265.343 16.416 265.028 15.7387 264.735 15.024C264.447 14.304 264.207 13.576 264.015 12.84H264.815C264.873 13.08 264.943 13.3387 265.023 13.616C265.108 13.8933 265.201 14.1787 265.303 14.472C265.404 14.7653 265.513 15.0587 265.631 15.352C265.748 15.6453 265.871 15.928 265.999 16.2C266.201 15.64 266.377 15.0853 266.527 14.536C266.676 13.9867 266.817 13.4213 266.951 12.84H267.719C267.527 13.624 267.313 14.3787 267.079 15.104C266.844 15.824 266.591 16.4987 266.319 17.128C266.212 17.368 266.1 17.5733 265.983 17.744C265.871 17.92 265.745 18.064 265.607 18.176C265.468 18.288 265.311 18.3707 265.135 18.424C264.964 18.4773 264.769 18.504 264.551 18.504C264.492 18.504 264.431 18.4987 264.367 18.488C264.303 18.4827 264.239 18.472 264.175 18.456C264.116 18.4453 264.06 18.432 264.007 18.416C263.959 18.4 263.924 18.3867 263.903 18.376L264.039 17.776ZM268.551 17V11.456H271.935V12.12H269.327V13.768H271.647V14.416H269.327V16.336H272.135V17H268.551ZM273.074 12.96C273.244 12.9173 273.471 12.872 273.754 12.824C274.036 12.776 274.362 12.752 274.73 12.752C275.06 12.752 275.335 12.8 275.554 12.896C275.772 12.9867 275.946 13.1173 276.074 13.288C276.207 13.4533 276.3 13.6533 276.354 13.888C276.407 14.1227 276.434 14.3813 276.434 14.664V17H275.69V14.824C275.69 14.568 275.671 14.3493 275.634 14.168C275.602 13.9867 275.546 13.84 275.466 13.728C275.386 13.616 275.279 13.536 275.146 13.488C275.012 13.4347 274.847 13.408 274.65 13.408C274.57 13.408 274.487 13.4107 274.402 13.416C274.316 13.4213 274.234 13.4293 274.154 13.44C274.079 13.4453 274.01 13.4533 273.946 13.464C273.887 13.4747 273.844 13.4827 273.818 13.488V17H273.074V12.96ZM279.475 17.096C279.139 17.096 278.843 17.0427 278.587 16.936C278.337 16.8293 278.123 16.68 277.947 16.488C277.777 16.296 277.649 16.0693 277.563 15.808C277.478 15.5413 277.435 15.248 277.435 14.928C277.435 14.608 277.481 14.3147 277.571 14.048C277.667 13.7813 277.801 13.552 277.971 13.36C278.142 13.1627 278.35 13.0107 278.595 12.904C278.846 12.792 279.123 12.736 279.427 12.736C279.614 12.736 279.801 12.752 279.987 12.784C280.174 12.816 280.353 12.8667 280.523 12.936L280.355 13.568C280.243 13.5147 280.113 13.472 279.963 13.44C279.819 13.408 279.665 13.392 279.499 13.392C279.083 13.392 278.763 13.5227 278.539 13.784C278.321 14.0453 278.211 14.4267 278.211 14.928C278.211 15.152 278.235 15.3573 278.283 15.544C278.337 15.7307 278.417 15.8907 278.523 16.024C278.635 16.1573 278.777 16.2613 278.947 16.336C279.118 16.4053 279.326 16.44 279.571 16.44C279.769 16.44 279.947 16.4213 280.107 16.384C280.267 16.3467 280.393 16.3067 280.483 16.264L280.587 16.888C280.545 16.9147 280.483 16.9413 280.403 16.968C280.323 16.9893 280.233 17.008 280.131 17.024C280.03 17.0453 279.921 17.0613 279.803 17.072C279.691 17.088 279.582 17.096 279.475 17.096ZM282.922 12.752C282.986 12.752 283.058 12.7573 283.138 12.768C283.223 12.7733 283.306 12.784 283.386 12.8C283.466 12.8107 283.538 12.824 283.602 12.84C283.671 12.8507 283.722 12.8613 283.754 12.872L283.626 13.52C283.567 13.4987 283.469 13.4747 283.33 13.448C283.197 13.416 283.023 13.4 282.81 13.4C282.671 13.4 282.533 13.416 282.394 13.448C282.261 13.4747 282.173 13.4933 282.13 13.504V17H281.386V13.016C281.562 12.952 281.781 12.8933 282.042 12.84C282.303 12.7813 282.597 12.752 282.922 12.752ZM284.156 17.776C284.215 17.8027 284.289 17.8267 284.38 17.848C284.476 17.8747 284.569 17.888 284.66 17.888C284.953 17.888 285.183 17.8213 285.348 17.688C285.513 17.56 285.663 17.3493 285.796 17.056C285.46 16.416 285.145 15.7387 284.852 15.024C284.564 14.304 284.324 13.576 284.132 12.84H284.932C284.991 13.08 285.06 13.3387 285.14 13.616C285.225 13.8933 285.319 14.1787 285.42 14.472C285.521 14.7653 285.631 15.0587 285.748 15.352C285.865 15.6453 285.988 15.928 286.116 16.2C286.319 15.64 286.495 15.0853 286.644 14.536C286.793 13.9867 286.935 13.4213 287.068 12.84H287.836C287.644 13.624 287.431 14.3787 287.196 15.104C286.961 15.824 286.708 16.4987 286.436 17.128C286.329 17.368 286.217 17.5733 286.1 17.744C285.988 17.92 285.863 18.064 285.724 18.176C285.585 18.288 285.428 18.3707 285.252 18.424C285.081 18.4773 284.887 18.504 284.668 18.504C284.609 18.504 284.548 18.4987 284.484 18.488C284.42 18.4827 284.356 18.472 284.292 18.456C284.233 18.4453 284.177 18.432 284.124 18.416C284.076 18.4 284.041 18.3867 284.02 18.376L284.156 17.776ZM291.508 14.928C291.508 14.4427 291.388 14.0693 291.148 13.808C290.908 13.5467 290.588 13.416 290.188 13.416C289.964 13.416 289.788 13.424 289.66 13.44C289.538 13.456 289.439 13.4747 289.364 13.496V16.12C289.455 16.1947 289.586 16.2667 289.756 16.336C289.927 16.4053 290.114 16.44 290.316 16.44C290.53 16.44 290.711 16.4027 290.86 16.328C291.015 16.248 291.14 16.1413 291.236 16.008C291.332 15.8693 291.402 15.7093 291.444 15.528C291.487 15.3413 291.508 15.1413 291.508 14.928ZM292.284 14.928C292.284 15.2427 292.242 15.5333 292.156 15.8C292.076 16.0667 291.956 16.296 291.796 16.488C291.636 16.68 291.439 16.8293 291.204 16.936C290.975 17.0427 290.711 17.096 290.412 17.096C290.172 17.096 289.959 17.064 289.772 17C289.591 16.936 289.455 16.8747 289.364 16.816V18.48H288.62V12.968C288.796 12.9253 289.015 12.88 289.276 12.832C289.543 12.7787 289.85 12.752 290.196 12.752C290.516 12.752 290.804 12.8027 291.06 12.904C291.316 13.0053 291.535 13.1493 291.716 13.336C291.898 13.5227 292.036 13.752 292.132 14.024C292.234 14.2907 292.284 14.592 292.284 14.928ZM294.027 12.84H295.603V13.464H294.027V15.384C294.027 15.592 294.043 15.7653 294.075 15.904C294.107 16.0373 294.155 16.144 294.219 16.224C294.283 16.2987 294.363 16.352 294.459 16.384C294.555 16.416 294.667 16.432 294.795 16.432C295.019 16.432 295.198 16.408 295.331 16.36C295.47 16.3067 295.566 16.2693 295.619 16.248L295.763 16.864C295.689 16.9013 295.558 16.9467 295.371 17C295.185 17.0587 294.971 17.088 294.731 17.088C294.449 17.088 294.214 17.0533 294.027 16.984C293.846 16.9093 293.699 16.8 293.587 16.656C293.475 16.512 293.395 16.336 293.347 16.128C293.305 15.9147 293.283 15.6693 293.283 15.392V11.68L294.027 11.552V12.84ZM297.294 17H296.55V12.84H297.294V17ZM296.918 12.088C296.785 12.088 296.67 12.0453 296.574 11.96C296.483 11.8693 296.438 11.7493 296.438 11.6C296.438 11.4507 296.483 11.3333 296.574 11.248C296.67 11.1573 296.785 11.112 296.918 11.112C297.051 11.112 297.163 11.1573 297.254 11.248C297.35 11.3333 297.398 11.4507 297.398 11.6C297.398 11.7493 297.35 11.8693 297.254 11.96C297.163 12.0453 297.051 12.088 296.918 12.088ZM302.246 14.92C302.246 15.2507 302.198 15.5493 302.102 15.816C302.006 16.0827 301.87 16.312 301.694 16.504C301.523 16.696 301.318 16.8453 301.078 16.952C300.838 17.0533 300.576 17.104 300.294 17.104C300.011 17.104 299.75 17.0533 299.51 16.952C299.27 16.8453 299.062 16.696 298.886 16.504C298.715 16.312 298.582 16.0827 298.486 15.816C298.39 15.5493 298.342 15.2507 298.342 14.92C298.342 14.5947 298.39 14.2987 298.486 14.032C298.582 13.76 298.715 13.528 298.886 13.336C299.062 13.144 299.27 12.9973 299.51 12.896C299.75 12.7893 300.011 12.736 300.294 12.736C300.576 12.736 300.838 12.7893 301.078 12.896C301.318 12.9973 301.523 13.144 301.694 13.336C301.87 13.528 302.006 13.76 302.102 14.032C302.198 14.2987 302.246 14.5947 302.246 14.92ZM301.47 14.92C301.47 14.4507 301.363 14.08 301.15 13.808C300.942 13.5307 300.656 13.392 300.294 13.392C299.931 13.392 299.643 13.5307 299.43 13.808C299.222 14.08 299.118 14.4507 299.118 14.92C299.118 15.3893 299.222 15.7627 299.43 16.04C299.643 16.312 299.931 16.448 300.294 16.448C300.656 16.448 300.942 16.312 301.15 16.04C301.363 15.7627 301.47 15.3893 301.47 14.92ZM303.292 12.96C303.463 12.9173 303.69 12.872 303.972 12.824C304.255 12.776 304.58 12.752 304.948 12.752C305.279 12.752 305.554 12.8 305.772 12.896C305.991 12.9867 306.164 13.1173 306.292 13.288C306.426 13.4533 306.519 13.6533 306.572 13.888C306.626 14.1227 306.652 14.3813 306.652 14.664V17H305.908V14.824C305.908 14.568 305.89 14.3493 305.852 14.168C305.82 13.9867 305.764 13.84 305.684 13.728C305.604 13.616 305.498 13.536 305.364 13.488C305.231 13.4347 305.066 13.408 304.868 13.408C304.788 13.408 304.706 13.4107 304.62 13.416C304.535 13.4213 304.452 13.4293 304.372 13.44C304.298 13.4453 304.228 13.4533 304.164 13.464C304.106 13.4747 304.063 13.4827 304.036 13.488V17H303.292V12.96ZM312.038 11.456C311.873 11.6373 311.686 11.84 311.478 12.064C311.27 12.2827 311.051 12.5093 310.822 12.744C310.598 12.9733 310.374 13.2 310.15 13.424C309.926 13.648 309.715 13.856 309.518 14.048C309.747 14.208 309.99 14.4053 310.246 14.64C310.502 14.8747 310.753 15.1253 310.998 15.392C311.243 15.6587 311.473 15.9307 311.686 16.208C311.905 16.4853 312.086 16.7493 312.23 17H311.318C311.158 16.7493 310.974 16.4987 310.766 16.248C310.558 15.992 310.337 15.7493 310.102 15.52C309.873 15.2853 309.638 15.0693 309.398 14.872C309.163 14.6747 308.934 14.5067 308.71 14.368V17H307.934V11.456H308.71V13.904C308.897 13.728 309.102 13.5307 309.326 13.312C309.55 13.088 309.771 12.864 309.99 12.64C310.209 12.416 310.414 12.2027 310.606 12C310.803 11.792 310.969 11.6107 311.102 11.456H312.038ZM312.513 14.928C312.513 14.56 312.567 14.24 312.673 13.968C312.78 13.6907 312.921 13.4613 313.097 13.28C313.273 13.0987 313.476 12.9627 313.705 12.872C313.935 12.7813 314.169 12.736 314.409 12.736C314.969 12.736 315.399 12.912 315.697 13.264C315.996 13.6107 316.145 14.1413 316.145 14.856C316.145 14.888 316.145 14.9307 316.145 14.984C316.145 15.032 316.143 15.0773 316.137 15.12H313.289C313.321 15.552 313.447 15.88 313.665 16.104C313.884 16.328 314.225 16.44 314.689 16.44C314.951 16.44 315.169 16.4187 315.345 16.376C315.527 16.328 315.663 16.2827 315.753 16.24L315.857 16.864C315.767 16.912 315.607 16.9627 315.377 17.016C315.153 17.0693 314.897 17.096 314.609 17.096C314.247 17.096 313.932 17.0427 313.665 16.936C313.404 16.824 313.188 16.672 313.017 16.48C312.847 16.288 312.719 16.0613 312.633 15.8C312.553 15.5333 312.513 15.2427 312.513 14.928ZM315.369 14.52C315.375 14.184 315.289 13.9093 315.113 13.696C314.943 13.4773 314.705 13.368 314.401 13.368C314.231 13.368 314.079 13.4027 313.945 13.472C313.817 13.536 313.708 13.6213 313.617 13.728C313.527 13.8347 313.455 13.9573 313.401 14.096C313.353 14.2347 313.321 14.376 313.305 14.52H315.369ZM316.726 17.776C316.785 17.8027 316.86 17.8267 316.95 17.848C317.046 17.8747 317.14 17.888 317.23 17.888C317.524 17.888 317.753 17.8213 317.918 17.688C318.084 17.56 318.233 17.3493 318.366 17.056C318.03 16.416 317.716 15.7387 317.422 15.024C317.134 14.304 316.894 13.576 316.702 12.84H317.502C317.561 13.08 317.63 13.3387 317.71 13.616C317.796 13.8933 317.889 14.1787 317.99 14.472C318.092 14.7653 318.201 15.0587 318.318 15.352C318.436 15.6453 318.558 15.928 318.686 16.2C318.889 15.64 319.065 15.0853 319.214 14.536C319.364 13.9867 319.505 13.4213 319.638 12.84H320.406C320.214 13.624 320.001 14.3787 319.766 15.104C319.532 15.824 319.278 16.4987 319.006 17.128C318.9 17.368 318.788 17.5733 318.67 17.744C318.558 17.92 318.433 18.064 318.294 18.176C318.156 18.288 317.998 18.3707 317.822 18.424C317.652 18.4773 317.457 18.504 317.238 18.504C317.18 18.504 317.118 18.4987 317.054 18.488C316.99 18.4827 316.926 18.472 316.862 18.456C316.804 18.4453 316.748 18.432 316.694 18.416C316.646 18.4 316.612 18.3867 316.59 18.376L316.726 17.776Z" fill="#757575"/>
<path d="M382.525 68.928C382.525 68.56 382.579 68.24 382.685 67.968C382.792 67.6907 382.933 67.4613 383.109 67.28C383.285 67.0987 383.488 66.9627 383.717 66.872C383.947 66.7813 384.181 66.736 384.421 66.736C384.981 66.736 385.411 66.912 385.709 67.264C386.008 67.6107 386.157 68.1413 386.157 68.856C386.157 68.888 386.157 68.9307 386.157 68.984C386.157 69.032 386.155 69.0773 386.149 69.12H383.301C383.333 69.552 383.459 69.88 383.677 70.104C383.896 70.328 384.237 70.44 384.701 70.44C384.963 70.44 385.181 70.4187 385.357 70.376C385.539 70.328 385.675 70.2827 385.765 70.24L385.869 70.864C385.779 70.912 385.619 70.9627 385.389 71.016C385.165 71.0693 384.909 71.096 384.621 71.096C384.259 71.096 383.944 71.0427 383.677 70.936C383.416 70.824 383.2 70.672 383.029 70.48C382.859 70.288 382.731 70.0613 382.645 69.8C382.565 69.5333 382.525 69.2427 382.525 68.928ZM385.381 68.52C385.387 68.184 385.301 67.9093 385.125 67.696C384.955 67.4773 384.717 67.368 384.413 67.368C384.243 67.368 384.091 67.4027 383.957 67.472C383.829 67.536 383.72 67.6213 383.629 67.728C383.539 67.8347 383.467 67.9573 383.413 68.096C383.365 68.2347 383.333 68.376 383.317 68.52H385.381ZM387.226 66.96C387.397 66.9173 387.623 66.872 387.906 66.824C388.189 66.776 388.514 66.752 388.882 66.752C389.213 66.752 389.487 66.8 389.706 66.896C389.925 66.9867 390.098 67.1173 390.226 67.288C390.359 67.4533 390.453 67.6533 390.506 67.888C390.559 68.1227 390.586 68.3813 390.586 68.664V71H389.842V68.824C389.842 68.568 389.823 68.3493 389.786 68.168C389.754 67.9867 389.698 67.84 389.618 67.728C389.538 67.616 389.431 67.536 389.298 67.488C389.165 67.4347 388.999 67.408 388.802 67.408C388.722 67.408 388.639 67.4107 388.554 67.416C388.469 67.4213 388.386 67.4293 388.306 67.44C388.231 67.4453 388.162 67.4533 388.098 67.464C388.039 67.4747 387.997 67.4827 387.97 67.488V71H387.226V66.96ZM393.628 71.096C393.292 71.096 392.996 71.0427 392.74 70.936C392.489 70.8293 392.276 70.68 392.1 70.488C391.929 70.296 391.801 70.0693 391.716 69.808C391.63 69.5413 391.588 69.248 391.588 68.928C391.588 68.608 391.633 68.3147 391.724 68.048C391.82 67.7813 391.953 67.552 392.124 67.36C392.294 67.1627 392.502 67.0107 392.748 66.904C392.998 66.792 393.276 66.736 393.58 66.736C393.766 66.736 393.953 66.752 394.14 66.784C394.326 66.816 394.505 66.8667 394.676 66.936L394.508 67.568C394.396 67.5147 394.265 67.472 394.116 67.44C393.972 67.408 393.817 67.392 393.652 67.392C393.236 67.392 392.916 67.5227 392.692 67.784C392.473 68.0453 392.364 68.4267 392.364 68.928C392.364 69.152 392.388 69.3573 392.436 69.544C392.489 69.7307 392.569 69.8907 392.676 70.024C392.788 70.1573 392.929 70.2613 393.1 70.336C393.27 70.4053 393.478 70.44 393.724 70.44C393.921 70.44 394.1 70.4213 394.26 70.384C394.42 70.3467 394.545 70.3067 394.636 70.264L394.74 70.888C394.697 70.9147 394.636 70.9413 394.556 70.968C394.476 70.9893 394.385 71.008 394.284 71.024C394.182 71.0453 394.073 71.0613 393.956 71.072C393.844 71.088 393.734 71.096 393.628 71.096ZM397.074 66.752C397.138 66.752 397.21 66.7573 397.29 66.768C397.376 66.7733 397.458 66.784 397.538 66.8C397.618 66.8107 397.69 66.824 397.754 66.84C397.824 66.8507 397.874 66.8613 397.906 66.872L397.778 67.52C397.72 67.4987 397.621 67.4747 397.482 67.448C397.349 67.416 397.176 67.4 396.962 67.4C396.824 67.4 396.685 67.416 396.546 67.448C396.413 67.4747 396.325 67.4933 396.282 67.504V71H395.538V67.016C395.714 66.952 395.933 66.8933 396.194 66.84C396.456 66.7813 396.749 66.752 397.074 66.752ZM398.308 71.776C398.367 71.8027 398.442 71.8267 398.532 71.848C398.628 71.8747 398.722 71.888 398.812 71.888C399.106 71.888 399.335 71.8213 399.5 71.688C399.666 71.56 399.815 71.3493 399.948 71.056C399.612 70.416 399.298 69.7387 399.004 69.024C398.716 68.304 398.476 67.576 398.284 66.84H399.084C399.143 67.08 399.212 67.3387 399.292 67.616C399.378 67.8933 399.471 68.1787 399.572 68.472C399.674 68.7653 399.783 69.0587 399.9 69.352C400.018 69.6453 400.14 69.928 400.268 70.2C400.471 69.64 400.647 69.0853 400.796 68.536C400.946 67.9867 401.087 67.4213 401.22 66.84H401.988C401.796 67.624 401.583 68.3787 401.348 69.104C401.114 69.824 400.86 70.4987 400.588 71.128C400.482 71.368 400.37 71.5733 400.252 71.744C400.14 71.92 400.015 72.064 399.876 72.176C399.738 72.288 399.58 72.3707 399.404 72.424C399.234 72.4773 399.039 72.504 398.82 72.504C398.762 72.504 398.7 72.4987 398.636 72.488C398.572 72.4827 398.508 72.472 398.444 72.456C398.386 72.4453 398.33 72.432 398.276 72.416C398.228 72.4 398.194 72.3867 398.172 72.376L398.308 71.776ZM405.661 68.928C405.661 68.4427 405.541 68.0693 405.301 67.808C405.061 67.5467 404.741 67.416 404.341 67.416C404.117 67.416 403.941 67.424 403.813 67.44C403.69 67.456 403.591 67.4747 403.517 67.496V70.12C403.607 70.1947 403.738 70.2667 403.909 70.336C404.079 70.4053 404.266 70.44 404.469 70.44C404.682 70.44 404.863 70.4027 405.013 70.328C405.167 70.248 405.293 70.1413 405.389 70.008C405.485 69.8693 405.554 69.7093 405.597 69.528C405.639 69.3413 405.661 69.1413 405.661 68.928ZM406.437 68.928C406.437 69.2427 406.394 69.5333 406.309 69.8C406.229 70.0667 406.109 70.296 405.949 70.488C405.789 70.68 405.591 70.8293 405.357 70.936C405.127 71.0427 404.863 71.096 404.565 71.096C404.325 71.096 404.111 71.064 403.925 71C403.743 70.936 403.607 70.8747 403.517 70.816V72.48H402.773V66.968C402.949 66.9253 403.167 66.88 403.429 66.832C403.695 66.7787 404.002 66.752 404.349 66.752C404.669 66.752 404.957 66.8027 405.213 66.904C405.469 67.0053 405.687 67.1493 405.869 67.336C406.05 67.5227 406.189 67.752 406.285 68.024C406.386 68.2907 406.437 68.592 406.437 68.928ZM408.18 66.84H409.756V67.464H408.18V69.384C408.18 69.592 408.196 69.7653 408.228 69.904C408.26 70.0373 408.308 70.144 408.372 70.224C408.436 70.2987 408.516 70.352 408.612 70.384C408.708 70.416 408.82 70.432 408.948 70.432C409.172 70.432 409.35 70.408 409.484 70.36C409.622 70.3067 409.718 70.2693 409.772 70.248L409.916 70.864C409.841 70.9013 409.71 70.9467 409.524 71C409.337 71.0587 409.124 71.088 408.884 71.088C408.601 71.088 408.366 71.0533 408.18 70.984C407.998 70.9093 407.852 70.8 407.74 70.656C407.628 70.512 407.548 70.336 407.5 70.128C407.457 69.9147 407.436 69.6693 407.436 69.392V65.68L408.18 65.552V66.84ZM410.392 68.928C410.392 68.56 410.446 68.24 410.552 67.968C410.659 67.6907 410.8 67.4613 410.976 67.28C411.152 67.0987 411.355 66.9627 411.584 66.872C411.814 66.7813 412.048 66.736 412.288 66.736C412.848 66.736 413.278 66.912 413.576 67.264C413.875 67.6107 414.024 68.1413 414.024 68.856C414.024 68.888 414.024 68.9307 414.024 68.984C414.024 69.032 414.022 69.0773 414.016 69.12H411.168C411.2 69.552 411.326 69.88 411.544 70.104C411.763 70.328 412.104 70.44 412.568 70.44C412.83 70.44 413.048 70.4187 413.224 70.376C413.406 70.328 413.542 70.2827 413.632 70.24L413.736 70.864C413.646 70.912 413.486 70.9627 413.256 71.016C413.032 71.0693 412.776 71.096 412.488 71.096C412.126 71.096 411.811 71.0427 411.544 70.936C411.283 70.824 411.067 70.672 410.896 70.48C410.726 70.288 410.598 70.0613 410.512 69.8C410.432 69.5333 410.392 69.2427 410.392 68.928ZM413.248 68.52C413.254 68.184 413.168 67.9093 412.992 67.696C412.822 67.4773 412.584 67.368 412.28 67.368C412.11 67.368 411.958 67.4027 411.824 67.472C411.696 67.536 411.587 67.6213 411.496 67.728C411.406 67.8347 411.334 67.9573 411.28 68.096C411.232 68.2347 411.2 68.376 411.184 68.52H413.248ZM417.781 67.72C417.69 67.6453 417.56 67.5733 417.389 67.504C417.218 67.4347 417.032 67.4 416.829 67.4C416.616 67.4 416.432 67.44 416.277 67.52C416.128 67.5947 416.005 67.7013 415.909 67.84C415.813 67.9733 415.744 68.1333 415.701 68.32C415.658 68.5067 415.637 68.7067 415.637 68.92C415.637 69.4053 415.757 69.7813 415.997 70.048C416.237 70.3093 416.557 70.44 416.957 70.44C417.16 70.44 417.328 70.432 417.461 70.416C417.6 70.3947 417.706 70.3733 417.781 70.352V67.72ZM417.781 64.92L418.525 64.792V70.88C418.354 70.928 418.136 70.976 417.869 71.024C417.602 71.072 417.296 71.096 416.949 71.096C416.629 71.096 416.341 71.0453 416.085 70.944C415.829 70.8427 415.61 70.6987 415.429 70.512C415.248 70.3253 415.106 70.0987 415.005 69.832C414.909 69.56 414.861 69.256 414.861 68.92C414.861 68.6 414.901 68.3067 414.981 68.04C415.066 67.7733 415.189 67.544 415.349 67.352C415.509 67.16 415.704 67.0107 415.933 66.904C416.168 66.7973 416.434 66.744 416.733 66.744C416.973 66.744 417.184 66.776 417.365 66.84C417.552 66.904 417.69 66.9653 417.781 67.024V64.92ZM422.34 70.232C422.287 70.104 422.215 69.9413 422.124 69.744C422.039 69.5467 421.945 69.3333 421.844 69.104C421.743 68.8747 421.633 68.64 421.516 68.4C421.404 68.1547 421.297 67.9253 421.196 67.712C421.095 67.4933 420.999 67.2987 420.908 67.128C420.823 66.9573 420.753 66.8267 420.7 66.736C420.641 67.3653 420.593 68.048 420.556 68.784C420.519 69.5147 420.487 70.2533 420.46 71H419.7C419.721 70.52 419.745 70.0373 419.772 69.552C419.799 69.0613 419.828 68.5813 419.86 68.112C419.897 67.6373 419.935 67.176 419.972 66.728C420.015 66.28 420.06 65.856 420.108 65.456H420.788C420.932 65.6907 421.087 65.968 421.252 66.288C421.417 66.608 421.583 66.944 421.748 67.296C421.913 67.6427 422.073 67.992 422.228 68.344C422.383 68.6907 422.524 69.008 422.652 69.296C422.78 69.008 422.921 68.6907 423.076 68.344C423.231 67.992 423.391 67.6427 423.556 67.296C423.721 66.944 423.887 66.608 424.052 66.288C424.217 65.968 424.372 65.6907 424.516 65.456H425.196C425.377 67.2427 425.513 69.0907 425.604 71H424.844C424.817 70.2533 424.785 69.5147 424.748 68.784C424.711 68.048 424.663 67.3653 424.604 66.736C424.551 66.8267 424.479 66.9573 424.388 67.128C424.303 67.2987 424.209 67.4933 424.108 67.712C424.007 67.9253 423.897 68.1547 423.78 68.4C423.668 68.64 423.561 68.8747 423.46 69.104C423.359 69.3333 423.263 69.5467 423.172 69.744C423.087 69.9413 423.017 70.104 422.964 70.232H422.34ZM428.181 70.464C428.357 70.464 428.511 70.4613 428.645 70.456C428.783 70.4453 428.898 70.4293 428.989 70.408V69.168C428.935 69.1413 428.847 69.12 428.725 69.104C428.607 69.0827 428.463 69.072 428.293 69.072C428.181 69.072 428.061 69.08 427.933 69.096C427.81 69.112 427.695 69.1467 427.589 69.2C427.487 69.248 427.402 69.3173 427.333 69.408C427.263 69.4933 427.229 69.608 427.229 69.752C427.229 70.0187 427.314 70.2053 427.485 70.312C427.655 70.4133 427.887 70.464 428.181 70.464ZM428.117 66.736C428.415 66.736 428.666 66.776 428.869 66.856C429.077 66.9307 429.242 67.04 429.365 67.184C429.493 67.3227 429.583 67.4907 429.637 67.688C429.69 67.88 429.717 68.0933 429.717 68.328V70.928C429.653 70.9387 429.562 70.9547 429.445 70.976C429.333 70.992 429.205 71.008 429.061 71.024C428.917 71.04 428.759 71.0533 428.589 71.064C428.423 71.08 428.258 71.088 428.093 71.088C427.858 71.088 427.642 71.064 427.445 71.016C427.247 70.968 427.077 70.8933 426.933 70.792C426.789 70.6853 426.677 70.5467 426.597 70.376C426.517 70.2053 426.477 70 426.477 69.76C426.477 69.5307 426.522 69.3333 426.613 69.168C426.709 69.0027 426.837 68.8693 426.997 68.768C427.157 68.6667 427.343 68.592 427.557 68.544C427.77 68.496 427.994 68.472 428.229 68.472C428.303 68.472 428.381 68.4773 428.461 68.488C428.541 68.4933 428.615 68.504 428.685 68.52C428.759 68.5307 428.823 68.5413 428.877 68.552C428.93 68.5627 428.967 68.5707 428.989 68.576V68.368C428.989 68.2453 428.975 68.1253 428.949 68.008C428.922 67.8853 428.874 67.7787 428.805 67.688C428.735 67.592 428.639 67.5173 428.517 67.464C428.399 67.4053 428.245 67.376 428.053 67.376C427.807 67.376 427.591 67.3947 427.405 67.432C427.223 67.464 427.087 67.4987 426.997 67.536L426.909 66.92C427.005 66.8773 427.165 66.8373 427.389 66.8C427.613 66.7573 427.855 66.736 428.117 66.736ZM431.921 70.464C432.225 70.464 432.449 70.424 432.593 70.344C432.742 70.264 432.817 70.136 432.817 69.96C432.817 69.7787 432.745 69.6347 432.601 69.528C432.457 69.4213 432.219 69.3013 431.889 69.168C431.729 69.104 431.574 69.04 431.425 68.976C431.281 68.9067 431.155 68.8267 431.049 68.736C430.942 68.6453 430.857 68.536 430.793 68.408C430.729 68.28 430.697 68.1227 430.697 67.936C430.697 67.568 430.833 67.2773 431.105 67.064C431.377 66.8453 431.747 66.736 432.217 66.736C432.334 66.736 432.451 66.744 432.569 66.76C432.686 66.7707 432.795 66.7867 432.897 66.808C432.998 66.824 433.086 66.8427 433.161 66.864C433.241 66.8853 433.302 66.904 433.345 66.92L433.209 67.56C433.129 67.5173 433.003 67.4747 432.833 67.432C432.662 67.384 432.457 67.36 432.217 67.36C432.009 67.36 431.827 67.4027 431.673 67.488C431.518 67.568 431.441 67.696 431.441 67.872C431.441 67.9627 431.457 68.0427 431.488 68.112C431.526 68.1813 431.579 68.2453 431.649 68.304C431.723 68.3573 431.814 68.408 431.921 68.456C432.027 68.504 432.155 68.5547 432.305 68.608C432.502 68.6827 432.678 68.7573 432.833 68.832C432.987 68.9013 433.118 68.984 433.225 69.08C433.337 69.176 433.422 69.2933 433.481 69.432C433.539 69.5653 433.569 69.7307 433.569 69.928C433.569 70.312 433.425 70.6027 433.137 70.8C432.854 70.9973 432.449 71.096 431.921 71.096C431.553 71.096 431.265 71.064 431.057 71C430.849 70.9413 430.707 70.896 430.633 70.864L430.769 70.224C430.854 70.256 430.99 70.304 431.177 70.368C431.363 70.432 431.611 70.464 431.921 70.464ZM435.219 66.84H436.795V67.464H435.219V69.384C435.219 69.592 435.235 69.7653 435.267 69.904C435.299 70.0373 435.347 70.144 435.411 70.224C435.475 70.2987 435.555 70.352 435.651 70.384C435.747 70.416 435.859 70.432 435.987 70.432C436.211 70.432 436.389 70.408 436.523 70.36C436.661 70.3067 436.757 70.2693 436.811 70.248L436.955 70.864C436.88 70.9013 436.749 70.9467 436.563 71C436.376 71.0587 436.163 71.088 435.923 71.088C435.64 71.088 435.405 71.0533 435.219 70.984C435.037 70.9093 434.891 70.8 434.779 70.656C434.667 70.512 434.587 70.336 434.539 70.128C434.496 69.9147 434.475 69.6693 434.475 69.392V65.68L435.219 65.552V66.84ZM437.431 68.928C437.431 68.56 437.485 68.24 437.591 67.968C437.698 67.6907 437.839 67.4613 438.015 67.28C438.191 67.0987 438.394 66.9627 438.623 66.872C438.853 66.7813 439.087 66.736 439.327 66.736C439.887 66.736 440.317 66.912 440.615 67.264C440.914 67.6107 441.063 68.1413 441.063 68.856C441.063 68.888 441.063 68.9307 441.063 68.984C441.063 69.032 441.061 69.0773 441.055 69.12H438.207C438.239 69.552 438.365 69.88 438.583 70.104C438.802 70.328 439.143 70.44 439.607 70.44C439.869 70.44 440.087 70.4187 440.263 70.376C440.445 70.328 440.581 70.2827 440.671 70.24L440.775 70.864C440.685 70.912 440.525 70.9627 440.295 71.016C440.071 71.0693 439.815 71.096 439.527 71.096C439.165 71.096 438.85 71.0427 438.583 70.936C438.322 70.824 438.106 70.672 437.935 70.48C437.765 70.288 437.637 70.0613 437.551 69.8C437.471 69.5333 437.431 69.2427 437.431 68.928ZM440.287 68.52C440.293 68.184 440.207 67.9093 440.031 67.696C439.861 67.4773 439.623 67.368 439.319 67.368C439.149 67.368 438.997 67.4027 438.863 67.472C438.735 67.536 438.626 67.6213 438.535 67.728C438.445 67.8347 438.373 67.9573 438.319 68.096C438.271 68.2347 438.239 68.376 438.223 68.52H440.287ZM443.668 66.752C443.732 66.752 443.804 66.7573 443.884 66.768C443.97 66.7733 444.052 66.784 444.132 66.8C444.212 66.8107 444.284 66.824 444.348 66.84C444.418 66.8507 444.468 66.8613 444.5 66.872L444.372 67.52C444.314 67.4987 444.215 67.4747 444.076 67.448C443.943 67.416 443.77 67.4 443.556 67.4C443.418 67.4 443.279 67.416 443.14 67.448C443.007 67.4747 442.919 67.4933 442.876 67.504V71H442.132V67.016C442.308 66.952 442.527 66.8933 442.788 66.84C443.05 66.7813 443.343 66.752 443.668 66.752ZM449.37 65.456C449.205 65.6373 449.018 65.84 448.81 66.064C448.602 66.2827 448.383 66.5093 448.154 66.744C447.93 66.9733 447.706 67.2 447.482 67.424C447.258 67.648 447.047 67.856 446.85 68.048C447.079 68.208 447.322 68.4053 447.578 68.64C447.834 68.8747 448.085 69.1253 448.33 69.392C448.575 69.6587 448.805 69.9307 449.018 70.208C449.237 70.4853 449.418 70.7493 449.562 71H448.65C448.49 70.7493 448.306 70.4987 448.098 70.248C447.89 69.992 447.669 69.7493 447.434 69.52C447.205 69.2853 446.97 69.0693 446.73 68.872C446.495 68.6747 446.266 68.5067 446.042 68.368V71H445.266V65.456H446.042V67.904C446.229 67.728 446.434 67.5307 446.658 67.312C446.882 67.088 447.103 66.864 447.322 66.64C447.541 66.416 447.746 66.2027 447.938 66C448.135 65.792 448.301 65.6107 448.434 65.456H449.37ZM449.846 68.928C449.846 68.56 449.899 68.24 450.006 67.968C450.112 67.6907 450.254 67.4613 450.43 67.28C450.606 67.0987 450.808 66.9627 451.038 66.872C451.267 66.7813 451.502 66.736 451.742 66.736C452.302 66.736 452.731 66.912 453.03 67.264C453.328 67.6107 453.477 68.1413 453.477 68.856C453.477 68.888 453.477 68.9307 453.477 68.984C453.477 69.032 453.475 69.0773 453.47 69.12H450.622C450.654 69.552 450.779 69.88 450.998 70.104C451.216 70.328 451.558 70.44 452.022 70.44C452.283 70.44 452.502 70.4187 452.678 70.376C452.859 70.328 452.995 70.2827 453.086 70.24L453.19 70.864C453.099 70.912 452.939 70.9627 452.71 71.016C452.486 71.0693 452.23 71.096 451.942 71.096C451.579 71.096 451.264 71.0427 450.998 70.936C450.736 70.824 450.52 70.672 450.35 70.48C450.179 70.288 450.051 70.0613 449.965 69.8C449.886 69.5333 449.846 69.2427 449.846 68.928ZM452.702 68.52C452.707 68.184 452.622 67.9093 452.446 67.696C452.275 67.4773 452.038 67.368 451.734 67.368C451.563 67.368 451.411 67.4027 451.278 67.472C451.15 67.536 451.04 67.6213 450.95 67.728C450.859 67.8347 450.787 67.9573 450.734 68.096C450.686 68.2347 450.654 68.376 450.638 68.52H452.702ZM454.058 71.776C454.117 71.8027 454.192 71.8267 454.282 71.848C454.378 71.8747 454.472 71.888 454.562 71.888C454.856 71.888 455.085 71.8213 455.25 71.688C455.416 71.56 455.565 71.3493 455.698 71.056C455.362 70.416 455.048 69.7387 454.754 69.024C454.466 68.304 454.226 67.576 454.034 66.84H454.834C454.893 67.08 454.962 67.3387 455.042 67.616C455.128 67.8933 455.221 68.1787 455.322 68.472C455.424 68.7653 455.533 69.0587 455.65 69.352C455.768 69.6453 455.89 69.928 456.018 70.2C456.221 69.64 456.397 69.0853 456.546 68.536C456.696 67.9867 456.837 67.4213 456.97 66.84H457.738C457.546 67.624 457.333 68.3787 457.098 69.104C456.864 69.824 456.61 70.4987 456.338 71.128C456.232 71.368 456.12 71.5733 456.002 71.744C455.89 71.92 455.765 72.064 455.626 72.176C455.488 72.288 455.33 72.3707 455.154 72.424C454.984 72.4773 454.789 72.504 454.57 72.504C454.512 72.504 454.45 72.4987 454.386 72.488C454.322 72.4827 454.258 72.472 454.194 72.456C454.136 72.4453 454.08 72.432 454.026 72.416C453.978 72.4 453.944 72.3867 453.922 72.376L454.058 71.776Z" fill="#1DB954"/>
<path d="M306 76L301 73.1132V78.8868L306 76ZM77 76.5H301.5V75.5H77V76.5Z" fill="#757575"/>
<line x1="236" y1="22.5" x2="338" y2="22.5" stroke="#757575"/>
<path d="M338 61L340.887 56L335.113 56L338 61ZM337.5 22L337.5 56.5L338.5 56.5L338.5 22L337.5 22Z" fill="#757575"/>
<line x1="370" y1="76.5" x2="469" y2="76.5" stroke="#757575"/>
<path d="M469 112L471.887 107L466.113 107L469 112ZM468.5 76L468.5 107.5L469.5 107.5L469.5 76L468.5 76Z" fill="#757575"/>
</svg>
