<svg width="27" height="27" viewBox="0 0 27 27" fill="none" xmlns="http://www.w3.org/2000/svg">
<path d="M15.6253 5.125H13.542C10.5957 5.125 9.12258 5.125 8.20728 6.04029C7.29199 6.95558 7.29199 8.42872 7.29199 11.375V13.4583C7.29199 16.4046 7.29199 17.8777 8.20728 18.793C9.12258 19.7083 10.5957 19.7083 13.542 19.7083H15.6253C18.5716 19.7083 20.0447 19.7083 20.96 18.793C21.8753 17.8777 21.8753 16.4046 21.8753 13.4583V11.375" stroke="black" stroke-width="1.5" stroke-linecap="round" stroke-linejoin="round"/>
<path d="M17.708 2H21.8747C23.3478 2 24.0844 2 24.5421 2.45765C24.9997 2.91529 24.9997 3.65186 24.9997 5.125V9.29167M23.958 3.04167L14.583 12.4167" stroke="black" stroke-width="1.5" stroke-linecap="round" stroke-linejoin="round"/>
<path d="M16.6667 22.9597C15.7514 23.875 14.2782 23.875 11.332 23.875H9.375C6.42872 23.875 4.95558 23.875 4.04029 22.9597C3.125 22.0444 3.125 20.5713 3.125 17.625V15.668C3.125 12.7218 3.125 11.2486 4.04029 10.3333" stroke="black" stroke-width="1.5" stroke-linecap="round" stroke-linejoin="round"/>
</svg>
