<svg width="20" height="20" viewBox="0 0 20 20" fill="none" xmlns="http://www.w3.org/2000/svg">
<path d="M9.9987 5.0026C10.9154 5.0026 11.6654 5.7526 11.6654 6.66927C11.6654 7.58594 10.9154 8.33594 9.9987 8.33594C9.08203 8.33594 8.33203 7.58594 8.33203 6.66927C8.33203 5.7526 9.08203 5.0026 9.9987 5.0026ZM9.9987 13.3359C12.2487 13.3359 14.832 14.4109 14.9987 15.0026H4.9987C5.19036 14.4026 7.75703 13.3359 9.9987 13.3359ZM9.9987 3.33594C8.15703 3.33594 6.66536 4.8276 6.66536 6.66927C6.66536 8.51094 8.15703 10.0026 9.9987 10.0026C11.8404 10.0026 13.332 8.51094 13.332 6.66927C13.332 4.8276 11.8404 3.33594 9.9987 3.33594ZM9.9987 11.6693C7.7737 11.6693 3.33203 12.7859 3.33203 15.0026V16.6693H16.6654V15.0026C16.6654 12.7859 12.2237 11.6693 9.9987 11.6693Z" fill="black"/>
</svg>
