<svg width="21" height="20" viewBox="0 0 21 20" fill="none" xmlns="http://www.w3.org/2000/svg">
<g clip-path="url(#clip0_38630_146929)">
<path d="M11.1613 17.0685C10.5815 17.5949 9.68898 17.5949 9.10919 17.0609L9.02528 16.9846C5.0202 13.3609 2.40355 10.9884 2.50272 8.02846C2.5485 6.73158 3.2122 5.4881 4.28784 4.75574C6.30183 3.38257 8.78879 4.02339 10.1314 5.5949C11.4741 4.02339 13.9611 3.37494 15.975 4.75574C17.0507 5.4881 17.7144 6.73158 17.7602 8.02846C17.867 10.9884 15.2427 13.3609 11.2376 16.9998L11.1613 17.0685Z" stroke="black" stroke-width="1.5"/>
<path d="M14.5938 0.34668C14.9459 -0.282495 15.8744 -0.282502 16.2266 0.34668L16.293 0.491211L16.9727 2.34277L18.8252 3.02344L18.9697 3.08984C19.5989 3.44199 19.5989 4.37051 18.9697 4.72266L18.8252 4.78906L16.9727 5.46875L16.293 7.32129C16.01 8.09135 14.971 8.13983 14.5938 7.46582L14.5273 7.32129L13.8467 5.46875L11.9951 4.78906C11.1738 4.4873 11.1738 3.3252 11.9951 3.02344L13.8467 2.34277L14.5273 0.491211L14.5938 0.34668Z" fill="black" stroke="#F5F5F5" stroke-width="1.25366"/>
</g>
<defs>
<clipPath id="clip0_38630_146929">
<rect width="20" height="20" fill="white" transform="translate(0.5)"/>
</clipPath>
</defs>
</svg>
