<svg width="1440" height="900" viewBox="0 0 1440 900" fill="none" xmlns="http://www.w3.org/2000/svg">
  <rect width="1440" height="900" rx="24" fill="#0A0A0D"/>
  <rect x="24" y="24" width="1392" height="852" rx="20" fill="#111317" stroke="#2A2F39"/>
  <rect x="24" y="24" width="1392" height="84" rx="20" fill="#175FEA"/>
  <rect x="56" y="46" width="120" height="40" rx="12" fill="#175FEA"/>
  <text x="64" y="72" fill="#FFFFFF" font-family="Arial, sans-serif" font-size="32" font-weight="700">Locker</text>
  <rect x="440" y="42" width="520" height="48" rx="24" fill="#0F1520" opacity="0.95"/>
  <text x="476" y="72" fill="#93A4C3" font-family="Arial, sans-serif" font-size="24">Search vault...</text>
  <rect x="1020" y="42" width="96" height="48" rx="16" fill="#0F1520"/>
  <text x="1042" y="72" fill="#E8EDF8" font-family="Arial, sans-serif" font-size="22">Filter</text>
  <rect x="1130" y="42" width="90" height="48" rx="16" fill="#0F1520"/>
  <text x="1158" y="72" fill="#E8EDF8" font-family="Arial, sans-serif" font-size="22">Sort</text>
  <rect x="1236" y="42" width="132" height="48" rx="16" fill="#0F1520"/>
  <text x="1270" y="72" fill="#E8EDF8" font-family="Arial, sans-serif" font-size="22">+ New</text>

  <rect x="48" y="132" width="228" height="720" rx="20" fill="#0E1116"/>
  <text x="72" y="176" fill="#7E91B4" font-family="Arial, sans-serif" font-size="20" font-weight="700">NAVIGATION</text>
  <rect x="64" y="196" width="196" height="56" rx="16" fill="#1A2230"/>
  <text x="90" y="232" fill="#FFFFFF" font-family="Arial, sans-serif" font-size="26" font-weight="700">Recents</text>
  <text x="90" y="298" fill="#C5CEDF" font-family="Arial, sans-serif" font-size="26">Categories</text>
  <text x="90" y="358" fill="#C5CEDF" font-family="Arial, sans-serif" font-size="26">Favorites</text>
  <text x="90" y="418" fill="#C5CEDF" font-family="Arial, sans-serif" font-size="26">Shared</text>
  <text x="90" y="478" fill="#C5CEDF" font-family="Arial, sans-serif" font-size="26">Trash</text>
  <line x1="72" y1="620" x2="252" y2="620" stroke="#2A2F39" stroke-width="2"/>
  <text x="72" y="666" fill="#7E91B4" font-family="Arial, sans-serif" font-size="20" font-weight="700">SYNC</text>
  <text x="72" y="706" fill="#E8EDF8" font-family="Arial, sans-serif" font-size="24">All items encrypted</text>
  <text x="72" y="742" fill="#93A4C3" font-family="Arial, sans-serif" font-size="20">3 devices synced</text>

  <rect x="300" y="132" width="632" height="720" rx="20" fill="#0E1116"/>
  <text x="332" y="178" fill="#FFFFFF" font-family="Arial, sans-serif" font-size="40" font-weight="700">Recents</text>
  <text x="332" y="214" fill="#93A4C3" font-family="Arial, sans-serif" font-size="22">9 items</text>

  <rect x="332" y="242" width="120" height="42" rx="21" fill="#252A32"/>
  <text x="360" y="269" fill="#FFFFFF" font-family="Arial, sans-serif" font-size="20">Important</text>
  <rect x="464" y="242" width="132" height="42" rx="21" fill="#252A32"/>
  <text x="494" y="269" fill="#FFFFFF" font-family="Arial, sans-serif" font-size="20">Documents</text>
  <rect x="610" y="242" width="96" height="42" rx="21" fill="#252A32"/>
  <text x="640" y="269" fill="#FFFFFF" font-family="Arial, sans-serif" font-size="20">Identity</text>

  <rect x="332" y="312" width="568" height="96" rx="24" fill="#272727"/>
  <rect x="356" y="336" width="54" height="54" rx="16" fill="#223149"/>
  <text x="430" y="370" fill="#FFFFFF" font-family="Arial, sans-serif" font-size="24">Gmail</text>
  <text x="430" y="396" fill="#93A4C3" font-family="Arial, sans-serif" font-size="18">Password • Updated 2h ago</text>
  <text x="854" y="370" fill="#7E91B4" font-family="Arial, sans-serif" font-size="18">Important</text>

  <rect x="332" y="424" width="568" height="96" rx="24" fill="#272727"/>
  <rect x="356" y="448" width="54" height="54" rx="16" fill="#3A2B2B"/>
  <text x="430" y="482" fill="#FFFFFF" font-family="Arial, sans-serif" font-size="24">PolicySchedule.pdf</text>
  <text x="430" y="508" fill="#93A4C3" font-family="Arial, sans-serif" font-size="18">Insurance • Updated yesterday</text>
  <text x="850" y="482" fill="#7E91B4" font-family="Arial, sans-serif" font-size="18">PDF</text>

  <rect x="332" y="536" width="568" height="96" rx="24" fill="#272727"/>
  <rect x="356" y="560" width="54" height="54" rx="16" fill="#2A333D"/>
  <text x="430" y="594" fill="#FFFFFF" font-family="Arial, sans-serif" font-size="24">ente_recovery_key.txt</text>
  <text x="430" y="620" fill="#93A4C3" font-family="Arial, sans-serif" font-size="18">Important • Updated Mar 10</text>
  <text x="850" y="594" fill="#7E91B4" font-family="Arial, sans-serif" font-size="18">TXT</text>

  <rect x="332" y="648" width="568" height="96" rx="24" fill="#272727"/>
  <rect x="356" y="672" width="54" height="54" rx="16" fill="#3A3130"/>
  <text x="430" y="706" fill="#FFFFFF" font-family="Arial, sans-serif" font-size="24">Vishnu-PANCard.pdf</text>
  <text x="430" y="732" fill="#93A4C3" font-family="Arial, sans-serif" font-size="18">Identity • Updated Mar 2</text>
  <text x="850" y="706" fill="#7E91B4" font-family="Arial, sans-serif" font-size="18">PDF</text>

  <rect x="956" y="132" width="428" height="720" rx="20" fill="#0E1116"/>
  <text x="988" y="178" fill="#FFFFFF" font-family="Arial, sans-serif" font-size="36" font-weight="700">Preview</text>
  <rect x="988" y="208" width="364" height="220" rx="24" fill="#151D2A"/>
  <text x="1124" y="330" fill="#93A4C3" font-family="Arial, sans-serif" font-size="24">Selected item preview</text>
  <text x="988" y="474" fill="#FFFFFF" font-family="Arial, sans-serif" font-size="30" font-weight="700">Gmail</text>
  <text x="988" y="514" fill="#93A4C3" font-family="Arial, sans-serif" font-size="22">Type: Password</text>
  <text x="988" y="550" fill="#93A4C3" font-family="Arial, sans-serif" font-size="22">Updated: Mar 16</text>
  <text x="988" y="586" fill="#93A4C3" font-family="Arial, sans-serif" font-size="22">Tags: Important</text>
  <rect x="988" y="634" width="160" height="52" rx="18" fill="#175FEA"/>
  <text x="1034" y="667" fill="#FFFFFF" font-family="Arial, sans-serif" font-size="24" font-weight="700">Open</text>
  <rect x="1164" y="634" width="188" height="52" rx="18" fill="#252A32"/>
  <text x="1220" y="667" fill="#FFFFFF" font-family="Arial, sans-serif" font-size="24">Copy</text>
  <rect x="988" y="706" width="364" height="112" rx="22" fill="#171A20" stroke="#2A2F39"/>
  <text x="1014" y="748" fill="#FFFFFF" font-family="Arial, sans-serif" font-size="24" font-weight="700">Why this works</text>
  <text x="1014" y="782" fill="#93A4C3" font-family="Arial, sans-serif" font-size="20">List stays fast to scan while details</text>
  <text x="1014" y="810" fill="#93A4C3" font-family="Arial, sans-serif" font-size="20">and actions live on the right.</text>
</svg>
