<svg width="15" height="15" viewBox="0 0 15 15" fill="none" xmlns="http://www.w3.org/2000/svg">
<path d="M4.04883 6.76107L5.21549 7.92773L8.13216 10.8444L8.7155 10.2611L9.29883 7.92773L10.4655 6.17773L12.2155 5.5944V5.01107L9.88216 2.67773L8.7155 3.8444L6.9655 6.17773H5.21549L4.04883 6.76107Z" fill="#9610D6"/>
<path d="M9.53883 1.42694L9.50096 1.39064L9.46463 1.42849L9.14963 1.75661L9.14961 1.7566L9.14865 1.75766C8.6866 2.26613 8.46566 2.90678 8.41223 3.54662L6.66759 5.29126C5.5792 5.10581 4.41145 5.41502 3.57269 6.25378L3.25769 6.56878L3.21966 6.60681L3.2586 6.64392L3.57314 6.9436L5.42243 8.79289L1.82233 12.3783L1.80687 12.3937V12.4155V13.031V13.0835H1.85938H2.4745H2.4963L2.51169 13.0681L6.09794 9.46842L7.90534 11.2767L7.90612 11.2775L8.20634 11.5908L8.2435 11.6296L8.28142 11.5915L8.59548 11.2766C9.51905 10.3539 9.78567 9.08854 9.51881 7.94834L11.0389 6.42778C11.8045 6.51256 12.5871 6.28835 13.1481 5.72734L13.149 5.72649L13.45 5.41149L13.4846 5.37525L13.45 5.33898L13.1494 5.02398L13.1494 5.02397L13.1486 5.0231L9.86731 1.74185L9.86732 1.74184L9.86652 1.74107L9.53883 1.42694ZM10.7051 5.40641L10.6757 5.3983L10.6541 5.41991L10.4764 5.59753L10.5136 5.63466L10.4764 5.59754L8.64506 7.42935L8.64498 7.42943L8.45336 7.62193L8.4309 7.64449L8.44052 7.67483L8.52277 7.93427L8.52276 7.93427L8.523 7.935C8.76838 8.67154 8.66363 9.50084 8.19633 10.1885L4.70307 6.69523C5.31927 6.28902 6.04728 6.10931 6.72609 6.28725L6.95726 6.35486L6.98704 6.36357L7.00903 6.34168L7.18753 6.16406L7.18763 6.16396L9.21106 4.14009L9.21106 4.14009L9.33356 4.01759L9.34894 4.00221V3.98047V3.80197C9.34894 3.48577 9.4571 3.18284 9.61062 2.89147L11.9994 5.28066C11.6616 5.46132 11.3077 5.56337 10.9509 5.47407C10.9507 5.47402 10.9505 5.47397 10.9503 5.47392L10.7051 5.40641Z" fill="#9610D6" stroke="#9610D6" stroke-width="0.105"/>
</svg>
