<svg width="12" height="12" viewBox="0 0 12 12" fill="none" xmlns="http://www.w3.org/2000/svg">
<g clip-path="url(#clip0_25342_9412)">
<path d="M3 5.5L4 6.5L6.5 9L7 8.5L7.5 6.5L8.5 5L10 4.5L10 4L8 2L7 3L5.5 5L4 5L3 5.5Z" fill="#9610D6"/>
<path d="M7.67655 0.960601L7.70697 0.928785L7.98822 1.19766L7.98895 1.19836L7.98894 1.19837L10.8014 4.01087L10.8022 4.01161L10.8022 4.01162L11.0598 4.28162L11.0895 4.31271L11.0598 4.34378L10.8018 4.61378L10.8011 4.61451C10.3202 5.09537 9.64942 5.28755 8.9932 5.21488L7.69023 6.51822C7.91896 7.49551 7.69045 8.58009 6.89886 9.37096L7.67655 0.960601ZM7.67655 0.960601L7.64442 0.929125L7.64405 0.9295L7.61152 0.962044L7.61219 0.962686L7.37379 1.21102L7.37377 1.21101L7.37295 1.21192C6.97691 1.64775 6.78753 2.19688 6.74173 2.74532M7.67655 0.960601L6.74173 2.74532M6.74173 2.74532L5.24633 4.24072C4.31342 4.08177 3.31249 4.34681 2.59355 5.06574L2.32356 5.33574L2.29096 5.36834L2.32433 5.40014L2.59394 5.65702L4.17904 7.24212L1.09325 10.3153L1.08 10.3285L1.08 10.3472L1.08 10.8748L1.08 10.9198L1.125 10.9198L1.65225 10.9198L1.67094 10.9198L1.68413 10.9066L4.75805 7.82114L6.30726 9.37107L6.30792 9.37175L6.56526 9.64032L6.59711 9.67356L6.62961 9.64096L6.8988 9.37102L6.74173 2.74532ZM8.70707 4.33943L8.68182 4.33248L8.6633 4.35099L8.51105 4.50324L8.51105 4.50325L6.9413 6.07337L6.94123 6.07344L6.77698 6.23844L6.75773 6.25778L6.76598 6.28379L6.83648 6.50616L6.83647 6.50616L6.83668 6.50679C7.047 7.13811 6.95722 7.84894 6.55667 8.43835L3.56245 5.44413C4.09062 5.09595 4.71463 4.94191 5.29647 5.09443L5.49462 5.15238L5.52014 5.15984L5.53899 5.14109L5.69199 4.98884L5.69207 4.98875L7.42644 3.25401L7.42645 3.254L7.53144 3.14901L7.54462 3.13583L7.54462 3.11719L7.54462 2.96419C7.54462 2.69316 7.63733 2.4335 7.76892 2.18376L9.81644 4.23163C9.52687 4.38649 9.22356 4.47396 8.91769 4.39741L8.70707 4.33943Z" fill="#9610D6" stroke="#9610D6" stroke-width="0.09"/>
</g>
<defs>
<clipPath id="clip0_25342_9412">
<rect width="12" height="12" fill="white"/>
</clipPath>
</defs>
</svg>
