<svg width="21" height="20" viewBox="0 0 21 20" fill="none" xmlns="http://www.w3.org/2000/svg">
<path d="M5.67969 9.13704L7.30255 10.7599L11.3597 14.817L12.1711 14.0056L12.9825 10.7599L14.6054 8.32561L17.0397 7.51418V6.70275L13.794 3.45703L12.1711 5.07989L9.73683 8.32561H7.30255L5.67969 9.13704Z" fill="black"/>
<path d="M13.3183 1.71931L13.269 1.77093L13.2168 1.71985L13.2162 1.72046L13.1634 1.77327L13.1645 1.77432L12.7776 2.17734L12.7776 2.17732L12.7762 2.1788C12.1335 2.88609 11.8262 3.77724 11.7519 4.66728L9.32505 7.09411C7.81108 6.83615 6.18671 7.26627 5.01998 8.433L4.5818 8.87117L4.5289 8.92408L4.58307 8.97568L5.0206 9.39255L7.593 11.965L2.58519 16.9523L2.56369 16.9737V17.004V17.8603V17.9333H2.63672H3.49237H3.5227L3.54411 17.9118L8.53265 12.9046L11.0473 15.4205L11.4655 15.8569L11.5172 15.9108L11.5699 15.8579L12.0068 15.4199C12.0068 15.4198 12.0068 15.4198 12.0069 15.4198C13.2915 14.1363 13.6624 12.3762 13.2912 10.7902L15.4057 8.67503C16.4706 8.79297 17.5592 8.48109 18.3396 7.70071L18.3408 7.69952L18.7595 7.26135L18.8076 7.21094L18.7595 7.16049L18.3414 6.72231L18.3414 6.7223L18.3402 6.72109L13.7759 2.1568L13.7759 2.15679L13.7748 2.15565L13.3183 1.71931ZM14.9413 7.25429L14.9004 7.24301L14.8703 7.27306L14.6232 7.52014L14.6232 7.52015L12.0758 10.0682L12.0756 10.0684L11.8091 10.3361L11.7778 10.3675L11.7912 10.4097L11.9056 10.7706L11.906 10.7716C12.2473 11.7962 12.1016 12.9497 11.4516 13.9063L6.59236 9.04707C7.44951 8.48202 8.46219 8.23203 9.40643 8.47956L9.72799 8.5736L9.76941 8.58571L9.8 8.55527L10.0483 8.30819L10.0484 8.30806L12.8631 5.49281L12.8631 5.49281L13.0335 5.32241L13.0549 5.30102V5.27077V5.02248C13.0549 4.58263 13.2053 4.16125 13.4189 3.75595L16.7417 7.07936C16.2718 7.33067 15.7795 7.47262 15.2832 7.3484L14.9413 7.25429Z" fill="black" stroke="black" stroke-width="0.146057"/>
</svg>
