<svg width="906" height="255" viewBox="0 0 906 255" fill="none" xmlns="http://www.w3.org/2000/svg">
<path d="M82.9898 168.936C90.6299 163.412 102.031 165.096 111.043 164.039C130.28 162.941 149.87 161.649 168.716 160.708C180.822 160.003 193.242 159.494 204.683 155.066C238.104 142.49 238.652 104.25 225.488 74.7864C191.401 -6.94309 85.8108 -17.9918 29.5874 45.0488C-5.2828 83.9546 -9.00491 148.562 16.6972 193.737C31.7423 220.34 56.5041 239.969 85.0272 248.667C122.444 259.52 166.443 254.662 198.571 231.428C216.75 219.087 229.837 198.909 215.967 178.183C209.502 168.505 197.278 165.449 186.778 168.975C178.942 171.287 171.654 175.988 164.367 179.789C156.256 184.099 147.676 187.429 138.665 189.114C122.718 191.974 104.735 191.739 90.434 184.138C85.4189 181.709 77.6221 174.186 82.8722 169.054L82.9898 168.936ZM74.9187 103.897L74.762 103.78C68.8458 99.4307 73.0381 89.6357 77.3479 84.8949C93.5292 65.8534 124.168 62.3272 146.226 72.9058C154.219 76.7455 170.4 89.2439 162.564 99.1564C159.587 102.291 153.435 103.231 147.206 103.584C141.838 103.897 136.157 104.171 130.241 104.485C120.172 104.994 109.828 105.543 99.798 106.052C92.1579 106.248 80.4039 108.05 74.9187 103.976V103.897Z" fill="white" style="fill:white;fill-opacity:1;"/>
<path d="M434.276 38.8172C405.674 7.86494 357.444 -2.8312 314.267 12.1356C313.954 12.2531 313.68 12.3706 313.366 12.4882C307.646 5.55331 299.222 0.890877 289.545 0.107277C270.582 -1.38156 254.008 12.8016 252.52 31.7647L238.767 207.409C237.279 226.372 251.462 242.945 270.425 244.434C289.388 245.923 305.961 231.74 307.45 212.776L316.226 100.604C317.323 86.8126 328.02 80.2696 336.835 77.2136C353.722 71.3366 373.86 74.9411 383.694 85.5589C390.198 92.5721 393.92 107.813 393.646 126.345C393.333 150.128 386.633 178.886 374.8 207.33C367.513 224.883 375.819 245.061 393.372 252.348C396.82 253.798 400.385 254.621 403.911 254.895C418.369 256.031 432.552 247.882 438.39 233.777C472.084 152.713 470.517 77.9971 434.237 38.7779L434.276 38.8172Z" fill="white" style="fill:white;fill-opacity:1;"/>
<path d="M628.842 110.281C615.286 104.365 599.457 100.408 584.177 96.6075C574.931 94.2958 560.316 90.6521 550.208 86.8516C545.546 85.0885 545.075 78.6238 549.464 76.273C549.503 76.273 549.542 76.2338 549.62 76.1946C562.746 69.3381 586.998 70.0826 608.273 84.5792C623.71 95.0794 644.984 92.1409 655.759 76.8999C666.573 61.6197 662.851 40.5017 647.531 29.8055C607.959 2.18359 556.085 -3.18408 518.433 16.4451C490.576 30.9809 474.63 56.6046 474.63 86.7732C474.63 100.917 479.841 127.246 514.633 144.681C530.736 152.713 549.62 157.415 567.839 161.96C574.46 163.605 583.394 165.839 591.112 168.189C596.284 169.757 597.302 176.731 592.718 179.63C592.679 179.63 592.64 179.669 592.601 179.708C577.477 189.151 551.618 191.658 524.428 170.344C509.578 158.747 488.069 161.529 476.745 176.652C465.618 191.462 469.066 212.659 483.759 224.021C511.851 245.727 540.726 253.876 566.624 253.876C590.877 253.876 612.465 246.706 628.333 236.833C659.599 217.321 675.545 184.684 668.963 153.693C664.966 134.73 651.449 120.155 628.882 110.281H628.842Z" fill="white" style="fill:white;fill-opacity:1;"/>
<path d="M888.848 26.0037C883.989 8.05927 865.536 -2.59769 847.552 2.26063C829.607 7.11896 818.95 25.5727 823.809 43.5564C833.29 78.74 849.158 137.588 827.923 169.285C827.923 169.324 827.844 169.403 827.805 169.442C821.575 178.845 801.711 187.23 785.452 183.978C785.373 183.978 785.295 183.978 785.256 183.938C751.365 177.395 747.682 124.385 746.859 70.6298C746.781 64.8311 746.703 59.3851 746.507 54.3309C745.88 35.7203 730.286 21.1846 711.715 21.8115C693.104 22.4384 678.568 38.032 679.195 56.6033C679.352 61.0306 679.43 66.2024 679.509 71.6876C679.94 98.4476 680.488 135.12 690.127 168.07C707.092 225.939 744.195 244.628 772.365 250.074C781.965 251.994 791.877 252.464 801.75 251.681C834.74 249.016 867.064 232.13 883.911 206.702C922.111 149.577 901.268 72.2361 888.808 26.0429L888.848 26.0037Z" fill="white" style="fill:white;fill-opacity:1;"/>
</svg>
