<svg width="652" height="191" viewBox="0 0 652 191" fill="none" xmlns="http://www.w3.org/2000/svg">
<path d="M158.192 111.968C158.192 114.464 158 118.016 157.616 122.624H36.944C39.056 133.952 44.528 142.976 53.36 149.696C62.384 156.224 73.52 159.488 86.768 159.488C103.664 159.488 117.584 153.92 128.528 142.784L147.824 164.96C140.912 173.216 132.176 179.456 121.616 183.68C111.056 187.904 99.152 190.016 85.904 190.016C69.008 190.016 54.128 186.656 41.264 179.936C28.4 173.216 18.416 163.904 11.312 152C4.39997 139.904 0.94397 126.272 0.94397 111.104C0.94397 96.128 4.30397 82.688 11.024 70.784C17.936 58.688 27.44 49.28 39.536 42.56C51.632 35.84 65.264 32.48 80.432 32.48C95.408 32.48 108.752 35.84 120.464 42.56C132.368 49.088 141.584 58.4 148.112 70.496C154.832 82.4 158.192 96.224 158.192 111.968ZM80.432 61.28C68.912 61.28 59.12 64.736 51.056 71.648C43.184 78.368 38.384 87.392 36.656 98.72H123.92C122.384 87.584 117.68 78.56 109.808 71.648C101.936 64.736 92.144 61.28 80.432 61.28Z" fill="white"/>
<path d="M280.036 32.48C299.428 32.48 314.98 38.144 326.692 49.472C338.404 60.8 344.26 77.6 344.26 99.872V188H308.26V104.48C308.26 91.04 305.092 80.96 298.756 74.24C292.42 67.328 283.396 63.872 271.684 63.872C258.436 63.872 247.972 67.904 240.292 75.968C232.612 83.84 228.772 95.264 228.772 110.24V188H192.772V34.208H227.044V54.08C232.996 46.976 240.484 41.6 249.508 37.952C258.532 34.304 268.708 32.48 280.036 32.48Z" fill="white"/>
<path d="M482.376 179.648C478.152 183.104 472.968 185.696 466.824 187.424C460.872 189.152 454.536 190.016 447.816 190.016C430.92 190.016 417.864 185.6 408.648 176.768C399.432 167.936 394.824 155.072 394.824 138.176V64.16H369.48V35.36H394.824V0.223999H430.824V35.36H472.008V64.16H430.824V137.312C430.824 144.8 432.648 150.56 436.296 154.592C439.944 158.432 445.224 160.352 452.136 160.352C460.2 160.352 466.92 158.24 472.296 154.016L482.376 179.648Z" fill="white"/>
<path d="M651.505 111.968C651.505 114.464 651.312 118.016 650.928 122.624H530.256C532.368 133.952 537.84 142.976 546.672 149.696C555.696 156.224 566.832 159.488 580.08 159.488C596.976 159.488 610.896 153.92 621.84 142.784L641.136 164.96C634.224 173.216 625.488 179.456 614.928 183.68C604.368 187.904 592.464 190.016 579.216 190.016C562.32 190.016 547.44 186.656 534.576 179.936C521.712 173.216 511.728 163.904 504.624 152C497.712 139.904 494.256 126.272 494.256 111.104C494.256 96.128 497.616 82.688 504.336 70.784C511.248 58.688 520.753 49.28 532.849 42.56C544.945 35.84 558.577 32.48 573.745 32.48C588.721 32.48 602.064 35.84 613.776 42.56C625.68 49.088 634.896 58.4 641.424 70.496C648.144 82.4 651.505 96.224 651.505 111.968ZM573.745 61.28C562.225 61.28 552.433 64.736 544.369 71.648C536.497 78.368 531.697 87.392 529.969 98.72H617.232C615.696 87.584 610.992 78.56 603.12 71.648C595.248 64.736 585.457 61.28 573.745 61.28Z" fill="white"/>
</svg>
