<svg width="652" height="191" viewBox="0 0 652 191" fill="none" xmlns="http://www.w3.org/2000/svg">
<path d="M158.192 111.968C158.192 114.464 158 118.016 157.616 122.624H36.944C39.056 133.952 44.528 142.976 53.36 149.696C62.384 156.224 73.52 159.488 86.768 159.488C103.664 159.488 117.584 153.92 128.528 142.784L147.824 164.96C140.912 173.216 132.176 179.456 121.616 183.68C111.056 187.904 99.152 190.016 85.904 190.016C69.008 190.016 54.128 186.656 41.264 179.936C28.4 173.216 18.416 163.904 11.312 152C4.4 139.904 0.944001 126.272 0.944001 111.104C0.944001 96.128 4.304 82.688 11.024 70.784C17.936 58.688 27.44 49.28 39.536 42.56C51.632 35.84 65.264 32.48 80.432 32.48C95.408 32.48 108.752 35.84 120.464 42.56C132.368 49.088 141.584 58.4 148.112 70.496C154.832 82.4 158.192 96.224 158.192 111.968ZM80.432 61.28C68.912 61.28 59.12 64.736 51.056 71.648C43.184 78.368 38.384 87.392 36.656 98.72H123.92C122.384 87.584 117.68 78.56 109.808 71.648C101.936 64.736 92.144 61.28 80.432 61.28ZM280.036 32.48C299.428 32.48 314.98 38.144 326.692 49.472C338.404 60.8 344.26 77.6 344.26 99.872V188H308.26V104.48C308.26 91.04 305.092 80.96 298.756 74.24C292.42 67.328 283.396 63.872 271.684 63.872C258.436 63.872 247.972 67.904 240.292 75.968C232.612 83.84 228.772 95.264 228.772 110.24V188H192.772V34.208H227.044V54.08C232.996 46.976 240.484 41.6 249.508 37.952C258.532 34.304 268.708 32.48 280.036 32.48ZM482.377 179.648C478.153 183.104 472.969 185.696 466.825 187.424C460.873 189.152 454.537 190.016 447.817 190.016C430.921 190.016 417.865 185.6 408.648 176.768C399.433 167.936 394.825 155.072 394.825 138.176V64.16H369.481V35.36H394.825V0.223997H430.825V35.36H472.009V64.16H430.825V137.312C430.825 144.8 432.649 150.56 436.297 154.592C439.945 158.432 445.225 160.352 452.137 160.352C460.201 160.352 466.921 158.24 472.297 154.016L482.377 179.648ZM651.505 111.968C651.505 114.464 651.313 118.016 650.929 122.624H530.257C532.369 133.952 537.841 142.976 546.673 149.696C555.697 156.224 566.833 159.488 580.081 159.488C596.977 159.488 610.897 153.92 621.841 142.784L641.137 164.96C634.225 173.216 625.489 179.456 614.929 183.68C604.369 187.904 592.465 190.016 579.217 190.016C562.321 190.016 547.441 186.656 534.577 179.936C521.713 173.216 511.729 163.904 504.625 152C497.713 139.904 494.257 126.272 494.257 111.104C494.257 96.128 497.617 82.688 504.337 70.784C511.249 58.688 520.753 49.28 532.849 42.56C544.945 35.84 558.577 32.48 573.745 32.48C588.721 32.48 602.065 35.84 613.777 42.56C625.681 49.088 634.897 58.4 641.425 70.496C648.145 82.4 651.505 96.224 651.505 111.968ZM573.745 61.28C562.225 61.28 552.433 64.736 544.369 71.648C536.497 78.368 531.697 87.392 529.969 98.72H617.233C615.697 87.584 610.993 78.56 603.121 71.648C595.249 64.736 585.457 61.28 573.745 61.28Z" fill="white"/>
</svg>
