<svg width="73" height="19" viewBox="0 0 73 19" fill="none" xmlns="http://www.w3.org/2000/svg">
<path d="M68.7161 7.43619C69.3921 5.66819 71.0301 4.94019 72.6681 4.94019V8.68419C70.9261 8.47619 68.7161 9.25619 68.7161 11.9862V18.2002H65.3621V5.20019H68.7161V7.43619Z" fill="white"/>
<path d="M53.8686 13.0782C54.3366 14.7942 55.7666 15.5222 57.5346 15.5222C58.8346 15.5222 59.8746 14.9762 60.4466 14.2222L63.1506 15.7822C61.9286 17.5502 59.9786 18.5642 57.4826 18.5642C53.1146 18.5642 50.3586 15.5742 50.3586 11.7002C50.3586 7.82618 53.1406 4.83618 57.2226 4.83618C61.0706 4.83618 63.8006 7.87818 63.8006 11.7002C63.8006 12.1942 63.7486 12.6362 63.6706 13.0782H53.8686ZM53.8166 10.4782H60.4466C60.0306 8.60618 58.6266 7.85218 57.2226 7.85218C55.4286 7.85218 54.2066 8.81418 53.8166 10.4782Z" fill="white"/>
<path d="M51.0799 18.2002H47.1799L42.4479 12.2982V18.2002H39.0939V0.000244141H42.4479V10.9202L46.9199 5.20025H50.9239L45.6979 11.6222L51.0799 18.2002Z" fill="white"/>
<path d="M32.224 18.5642C28.272 18.5642 25.36 15.5742 25.36 11.7002C25.36 7.82618 28.272 4.83618 32.224 4.83618C34.772 4.83618 36.982 6.18818 38.048 8.19018L35.162 9.88018C34.642 8.81418 33.524 8.13818 32.198 8.13818C30.196 8.13818 28.714 9.62018 28.714 11.7002C28.714 13.7542 30.196 15.2362 32.198 15.2362C33.55 15.2362 34.668 14.5862 35.188 13.5202L38.1 15.1842C36.982 17.2122 34.772 18.5642 32.224 18.5642Z" fill="white"/>
<path d="M17.5665 18.5642C13.7445 18.5642 10.7025 15.5742 10.7025 11.7002C10.7025 7.82618 13.7445 4.83618 17.5665 4.83618C21.3885 4.83618 24.4565 7.82618 24.4565 11.7002C24.4565 15.5742 21.3885 18.5642 17.5665 18.5642ZM17.5665 15.2882C19.5685 15.2882 21.1025 13.8062 21.1025 11.7002C21.1025 9.59418 19.5685 8.11218 17.5665 8.11218C15.5905 8.11218 14.0565 9.59418 14.0565 11.7002C14.0565 13.8062 15.5905 15.2882 17.5665 15.2882Z" fill="white"/>
<path d="M3.58806 14.7682H10.5301V18.2002H6.10352e-05V0.000244141H3.58806V14.7682Z" fill="white"/>
</svg>
