<svg width="20" height="22" viewBox="0 0 19.5 21.5" fill="none" xmlns="http://www.w3.org/2000/svg">
  <g id="elements">
    <path id="Vector" d="M4.75001 1.1535C5.79953 0.750006 7.3317 0.750006 9.75001 0.750006C13.0498 0.750006 14.6998 0.750006 15.7249 1.77513C16.75 2.80026 16.75 4.45017 16.75 7.75001V13.75C16.75 14.2932 16.75 14.7917 16.7454 15.25M2.99931 3.25001C2.75001 4.27338 2.75001 5.69027 2.75001 7.75001V13.75C2.75001 17.0498 2.75001 18.6998 3.77513 19.7249C4.80026 20.75 6.45017 20.75 9.75001 20.75C13.0498 20.75 14.6998 20.75 15.7249 19.7249C16.1101 19.3396 16.3506 18.8661 16.5007 18.25" stroke="black" stroke-width="1.5" stroke-linecap="round"/>
    <path id="Vector_2" d="M8.75001 17.75H10.75" stroke="black" stroke-width="1.5" stroke-linecap="round" stroke-linejoin="round"/>
    <path id="Vector_3" d="M0.750006 0.750006L18.75 20.75" stroke="black" stroke-width="1.5" stroke-linecap="round" stroke-linejoin="round"/>
  </g>
</svg>
