<svg width="24" height="24" viewBox="0 0 24 24" fill="none" xmlns="http://www.w3.org/2000/svg">
<g id="cloud-download-cancel">
<g id="elements">
<path id="Vector" d="M17.5 8.51009C17.5 8.67896 17.4924 8.84606 17.4776 9.01106M17.4776 9.01106C17.485 9.01102 17.4925 9.01101 17.5 9.01101C19.9853 9.01101 22 11.0294 22 13.5193C22 15.8398 20.25 17.7508 18 18M17.4776 9.01106C17.4251 9.59444 17.2819 10.1516 17.0621 10.6683M6.52042 8.03192C3.98398 8.27373 2 10.4139 2 13.0183C2 15.135 3.31048 16.9451 5.16295 17.6786M6.52042 8.03192C6.67826 8.01687 6.83823 8.00917 7 8.00917C7.5226 8.00917 8.02648 8.0895 8.5 8.23849M6.52042 8.03192C6.76233 5.21267 9.12324 3 12 3C13.9288 3 15.6257 3.9947 16.6075 5.5" stroke="currentColor" stroke-width="1.5" stroke-linecap="round" stroke-linejoin="round"/>
<path id="Vector_2" d="M12 19V13.5M12 19C11.2998 19 9.99153 17.0057 9.5 16.5M12 19C12.7002 19 14.0085 17.0057 14.5 16.5" stroke="currentColor" stroke-width="1.5" stroke-linecap="round" stroke-linejoin="round"/>
</g>
<path id="Vector 588" d="M7.5 22H16.5" stroke="currentColor" stroke-width="1.5" stroke-linecap="round"/>
<path id="Vector_3" d="M20.5 4L5 21" stroke="currentColor" stroke-width="1.5" stroke-linecap="round" stroke-linejoin="round"/>
</g>
</svg>
