<svg width="379" height="379" viewBox="0 0 379 379" fill="none" xmlns="http://www.w3.org/2000/svg">
<mask id="path-2-outside-1_6_278" maskUnits="userSpaceOnUse" x="36.3682" y="22.6565" width="290" height="320.339" fill="black">
<rect fill="white" x="36.3682" y="22.6565" width="290" height="320.339"/>
<path d="M197.717 54.3658C227.248 56.1536 250.433 81.0345 249.858 110.887L249.375 143.582L256.853 143.729C257.223 143.739 257.594 143.75 257.965 143.761C271.853 144.615 282.704 156.259 282.437 170.286L280.647 265.066C280.369 279.464 268.488 290.927 254.065 290.656L122.567 288.173C122.197 288.162 121.826 288.151 121.455 288.14C107.567 287.286 96.7164 275.642 96.9832 261.615L98.773 166.836C99.0505 152.438 110.932 140.974 125.355 141.245L138.27 141.48L138.753 108.785C139.337 78.1413 164.713 53.6992 195.357 54.2834C196.147 54.2923 196.92 54.3322 197.717 54.3658ZM164.124 141.942L223.533 143.063L224.016 110.369C224.317 94.4136 211.915 81.1147 196.129 80.1387C195.703 80.1158 195.301 80.0866 194.881 80.0884C178.506 79.7885 164.932 92.8661 164.632 109.241L164.149 141.936M192.093 254.067C192.093 254.067 192.303 254.066 192.384 254.072C196.344 254.141 199.593 251.001 199.669 247.065L200.037 227.754C200.051 226.778 200.647 225.916 201.541 225.505C208.682 222.372 213.7 215.337 213.874 207.038C213.943 202.867 212.789 198.955 210.717 195.67C207.307 190.229 201.391 186.504 194.555 186.089C194.264 186.084 193.968 186.054 193.677 186.049C186.305 185.902 179.79 189.637 176.052 195.4C174.008 198.523 172.801 202.248 172.719 206.264C172.57 214.557 177.328 221.784 184.343 225.177C185.216 225.612 185.783 226.493 185.768 227.47L185.401 246.78C185.331 250.636 188.298 253.824 192.118 254.061M198.03 49.5017C197.177 49.4559 196.324 49.4102 195.477 49.3892C162.164 48.7485 134.555 75.3629 133.914 108.676L133.503 136.489L125.47 136.326C117.202 136.17 109.362 139.244 103.405 144.967C97.4488 150.69 94.0776 158.409 93.9218 166.677L92.1321 261.457C91.821 278.098 104.572 291.939 121.179 292.942C121.606 292.965 122.057 292.982 122.483 293.005L253.981 295.488C262.249 295.644 270.089 292.57 276.045 286.848C282.002 281.125 285.373 273.405 285.529 265.137L287.318 170.358C287.63 153.717 274.878 139.875 258.271 138.872C257.845 138.849 257.394 138.833 256.967 138.81L254.329 138.772L254.758 110.928C255.055 95.263 249.349 80.2854 238.659 68.7585C228.031 57.2685 213.586 50.4045 198.024 49.477L198.03 49.5017ZM169.065 137.188L169.495 109.344C169.745 95.6629 181.104 84.7265 194.791 85.001C195.137 85.018 195.508 85.0288 195.854 85.0459C209.179 85.8594 219.416 96.9495 219.165 110.316L218.754 138.129L169.09 137.182L169.065 137.188ZM192.381 249.209C191.151 249.128 190.207 248.106 190.239 246.889L190.607 227.578C190.669 224.724 189.02 222.068 186.438 220.806C180.921 218.136 177.455 212.472 177.552 206.349C177.613 203.389 178.49 200.536 180.099 198.076C183.088 193.504 188.112 190.831 193.556 190.943C193.791 190.936 194.007 190.96 194.224 190.984C199.242 191.283 203.858 194.025 206.552 198.308C208.182 200.89 209.022 203.883 208.968 206.973C208.84 213.078 205.15 218.618 199.544 221.071C196.917 222.213 195.186 224.809 195.13 227.689L194.763 246.999C194.743 248.266 193.685 249.272 192.443 249.246L192.344 249.271L192.381 249.209Z"/>
</mask>
<path d="M197.717 54.3658C227.248 56.1536 250.433 81.0345 249.858 110.887L249.375 143.582L256.853 143.729C257.223 143.739 257.594 143.75 257.965 143.761C271.853 144.615 282.704 156.259 282.437 170.286L280.647 265.066C280.369 279.464 268.488 290.927 254.065 290.656L122.567 288.173C122.197 288.162 121.826 288.151 121.455 288.14C107.567 287.286 96.7164 275.642 96.9832 261.615L98.773 166.836C99.0505 152.438 110.932 140.974 125.355 141.245L138.27 141.48L138.753 108.785C139.337 78.1413 164.713 53.6992 195.357 54.2834C196.147 54.2923 196.92 54.3322 197.717 54.3658ZM164.124 141.942L223.533 143.063L224.016 110.369C224.317 94.4136 211.915 81.1147 196.129 80.1387C195.703 80.1158 195.301 80.0866 194.881 80.0884C178.506 79.7885 164.932 92.8661 164.632 109.241L164.149 141.936M192.093 254.067C192.093 254.067 192.303 254.066 192.384 254.072C196.344 254.141 199.593 251.001 199.669 247.065L200.037 227.754C200.051 226.778 200.647 225.916 201.541 225.505C208.682 222.372 213.7 215.337 213.874 207.038C213.943 202.867 212.789 198.955 210.717 195.67C207.307 190.229 201.391 186.504 194.555 186.089C194.264 186.084 193.968 186.054 193.677 186.049C186.305 185.902 179.79 189.637 176.052 195.4C174.008 198.523 172.801 202.248 172.719 206.264C172.57 214.557 177.328 221.784 184.343 225.177C185.216 225.612 185.783 226.493 185.768 227.47L185.401 246.78C185.331 250.636 188.298 253.824 192.118 254.061M198.03 49.5017C197.177 49.4559 196.324 49.4102 195.477 49.3892C162.164 48.7485 134.555 75.3629 133.914 108.676L133.503 136.489L125.47 136.326C117.202 136.17 109.362 139.244 103.405 144.967C97.4488 150.69 94.0776 158.409 93.9218 166.677L92.1321 261.457C91.821 278.098 104.572 291.939 121.179 292.942C121.606 292.965 122.057 292.982 122.483 293.005L253.981 295.488C262.249 295.644 270.089 292.57 276.045 286.848C282.002 281.125 285.373 273.405 285.529 265.137L287.318 170.358C287.63 153.717 274.878 139.875 258.271 138.872C257.845 138.849 257.394 138.833 256.967 138.81L254.329 138.772L254.758 110.928C255.055 95.263 249.349 80.2854 238.659 68.7585C228.031 57.2685 213.586 50.4045 198.024 49.477L198.03 49.5017ZM169.065 137.188L169.495 109.344C169.745 95.6629 181.104 84.7265 194.791 85.001C195.137 85.018 195.508 85.0288 195.854 85.0459C209.179 85.8594 219.416 96.9495 219.165 110.316L218.754 138.129L169.09 137.182L169.065 137.188ZM192.381 249.209C191.151 249.128 190.207 248.106 190.239 246.889L190.607 227.578C190.669 224.724 189.02 222.068 186.438 220.806C180.921 218.136 177.455 212.472 177.552 206.349C177.613 203.389 178.49 200.536 180.099 198.076C183.088 193.504 188.112 190.831 193.556 190.943C193.791 190.936 194.007 190.96 194.224 190.984C199.242 191.283 203.858 194.025 206.552 198.308C208.182 200.89 209.022 203.883 208.968 206.973C208.84 213.078 205.15 218.618 199.544 221.071C196.917 222.213 195.186 224.809 195.13 227.689L194.763 246.999C194.743 248.266 193.685 249.272 192.443 249.246L192.344 249.271L192.381 249.209Z" fill="#1B1B1B"/>
<path d="M197.717 54.3658L198.167 46.9394C198.121 46.9367 198.076 46.9343 198.031 46.9324L197.717 54.3658ZM249.858 110.887L242.42 110.744C242.419 110.755 242.419 110.766 242.419 110.777L249.858 110.887ZM249.375 143.582L241.936 143.472C241.876 147.566 245.135 150.94 249.229 151.02L249.375 143.582ZM256.853 143.729L257.068 136.292C257.045 136.291 257.022 136.291 256.999 136.29L256.853 143.729ZM257.965 143.761L258.422 136.335C258.341 136.33 258.261 136.326 258.181 136.324L257.965 143.761ZM282.437 170.286L274.998 170.145L274.998 170.146L282.437 170.286ZM280.647 265.066L288.086 265.209L288.086 265.206L280.647 265.066ZM254.065 290.656L253.924 298.095L253.925 298.095L254.065 290.656ZM122.567 288.173L122.352 295.609C122.377 295.61 122.402 295.611 122.427 295.611L122.567 288.173ZM121.455 288.14L120.998 295.566C121.079 295.571 121.159 295.575 121.239 295.577L121.455 288.14ZM96.9832 261.615L104.422 261.757L104.422 261.756L96.9832 261.615ZM98.773 166.836L91.3343 166.692L91.3343 166.695L98.773 166.836ZM125.355 141.245L125.215 148.684L125.22 148.684L125.355 141.245ZM138.27 141.48L138.135 148.918C140.112 148.954 142.022 148.201 143.444 146.826C144.865 145.451 145.68 143.567 145.709 141.589L138.27 141.48ZM138.753 108.785L131.314 108.643C131.314 108.654 131.314 108.664 131.313 108.675L138.753 108.785ZM195.357 54.2834L195.215 61.722C195.234 61.7224 195.253 61.7227 195.272 61.7229L195.357 54.2834ZM223.533 143.063L223.393 150.502C225.371 150.539 227.282 149.787 228.705 148.412C230.127 147.037 230.943 145.151 230.972 143.173L223.533 143.063ZM224.016 110.369L216.577 110.228C216.577 110.238 216.577 110.249 216.577 110.259L224.016 110.369ZM196.129 80.1387L196.589 72.7129C196.568 72.7116 196.548 72.7105 196.528 72.7094L196.129 80.1387ZM194.881 80.0884L194.745 87.5272C194.801 87.5282 194.857 87.5286 194.913 87.5284L194.881 80.0884ZM164.632 109.241L157.193 109.105C157.193 109.114 157.193 109.123 157.193 109.132L164.632 109.241ZM192.384 254.072L191.845 261.493C191.981 261.502 192.117 261.509 192.253 261.511L192.384 254.072ZM199.669 247.065L207.108 247.207L207.108 247.206L199.669 247.065ZM200.037 227.754L207.475 227.895C207.475 227.885 207.476 227.874 207.476 227.863L200.037 227.754ZM201.541 225.505L198.552 218.691C198.511 218.709 198.47 218.728 198.429 218.746L201.541 225.505ZM213.874 207.038L221.313 207.194C221.313 207.183 221.313 207.172 221.313 207.16L213.874 207.038ZM210.717 195.67L204.412 199.621C204.416 199.627 204.42 199.633 204.424 199.64L210.717 195.67ZM194.555 186.089L195.006 178.662C194.898 178.656 194.789 178.652 194.681 178.65L194.555 186.089ZM193.677 186.049L193.529 193.488C193.536 193.488 193.544 193.488 193.551 193.488L193.677 186.049ZM176.052 195.4L182.277 199.474C182.283 199.466 182.289 199.457 182.294 199.449L176.052 195.4ZM172.719 206.264L165.281 206.114C165.281 206.119 165.281 206.125 165.281 206.13L172.719 206.264ZM184.343 225.177L187.661 218.518C187.635 218.505 187.609 218.492 187.583 218.479L184.343 225.177ZM185.768 227.47L193.207 227.611C193.207 227.6 193.207 227.59 193.207 227.579L185.768 227.47ZM185.401 246.78L177.962 246.639L177.962 246.646L185.401 246.78ZM198.03 49.5017L197.631 56.931C199.995 57.0577 202.277 56.0524 203.78 54.2233C205.282 52.3942 205.824 49.9596 205.24 47.666L198.03 49.5017ZM195.477 49.3892L195.662 41.9515C195.648 41.9511 195.634 41.9508 195.62 41.9506L195.477 49.3892ZM133.914 108.676L126.475 108.533C126.475 108.544 126.475 108.555 126.475 108.566L133.914 108.676ZM133.503 136.489L133.352 143.928C135.332 143.968 137.246 143.217 138.671 141.841C140.095 140.466 140.913 138.579 140.942 136.599L133.503 136.489ZM125.47 136.326L125.621 128.888L125.61 128.887L125.47 136.326ZM93.9218 166.677L101.36 166.818L101.36 166.817L93.9218 166.677ZM92.1321 261.457L84.6934 261.316L84.6934 261.318L92.1321 261.457ZM121.179 292.942L120.731 300.369C120.747 300.37 120.764 300.371 120.781 300.372L121.179 292.942ZM122.483 293.005L122.085 300.434C122.171 300.439 122.257 300.442 122.343 300.443L122.483 293.005ZM253.981 295.488L253.84 302.927L253.841 302.927L253.981 295.488ZM285.529 265.137L278.09 264.997L278.09 264.997L285.529 265.137ZM287.318 170.358L294.757 170.498L294.757 170.497L287.318 170.358ZM258.271 138.872L258.72 131.446C258.703 131.445 258.686 131.444 258.67 131.443L258.271 138.872ZM256.967 138.81L257.366 131.38C257.269 131.375 257.171 131.372 257.074 131.37L256.967 138.81ZM254.329 138.772L246.89 138.657C246.859 140.631 247.615 142.537 248.99 143.954C250.365 145.371 252.247 146.183 254.222 146.211L254.329 138.772ZM254.758 110.928L247.319 110.787C247.319 110.796 247.319 110.804 247.319 110.813L254.758 110.928ZM238.659 68.7585L233.197 73.8105L233.204 73.8176L238.659 68.7585ZM198.024 49.477L198.466 42.0502C196.096 41.9089 193.8 42.9076 192.288 44.7383C190.775 46.5689 190.228 49.0115 190.814 51.3127L198.024 49.477ZM169.065 137.188L161.626 137.073C161.591 139.39 162.636 141.591 164.454 143.027C166.273 144.463 168.656 144.97 170.901 144.398L169.065 137.188ZM169.495 109.344L162.056 109.208C162.056 109.215 162.056 109.222 162.056 109.229L169.495 109.344ZM194.791 85.001L195.157 77.57C195.085 77.5665 195.013 77.564 194.94 77.5625L194.791 85.001ZM195.854 85.0459L196.307 77.6197C196.278 77.6179 196.249 77.6163 196.22 77.6149L195.854 85.0459ZM219.165 110.316L211.726 110.176C211.726 110.186 211.726 110.196 211.726 110.206L219.165 110.316ZM218.754 138.129L218.612 145.567C220.591 145.605 222.502 144.853 223.925 143.478C225.348 142.102 226.164 140.217 226.193 138.239L218.754 138.129ZM169.09 137.182L169.232 129.743C168.566 129.73 167.9 129.807 167.255 129.972L169.09 137.182ZM192.381 249.209L198.771 253.019C200.097 250.795 200.172 248.042 198.968 245.75C197.764 243.457 195.455 241.956 192.871 241.785L192.381 249.209ZM190.239 246.889L197.677 247.083C197.677 247.066 197.678 247.048 197.678 247.031L190.239 246.889ZM190.607 227.578L183.169 227.417C183.168 227.424 183.168 227.43 183.168 227.437L190.607 227.578ZM186.438 220.806L189.704 214.121C189.696 214.117 189.687 214.113 189.679 214.109L186.438 220.806ZM177.552 206.349L170.113 206.194C170.113 206.207 170.113 206.219 170.113 206.231L177.552 206.349ZM180.099 198.076L186.326 202.148L186.326 202.147L180.099 198.076ZM193.556 190.943L193.403 198.382C193.53 198.384 193.657 198.384 193.784 198.38L193.556 190.943ZM194.224 190.984L193.411 198.379C193.534 198.393 193.657 198.403 193.78 198.411L194.224 190.984ZM206.552 198.308L200.254 202.269L200.26 202.28L206.552 198.308ZM208.968 206.973L216.406 207.129C216.406 207.121 216.406 207.112 216.407 207.104L208.968 206.973ZM199.544 221.071L202.51 227.894C202.516 227.891 202.521 227.889 202.526 227.887L199.544 221.071ZM195.13 227.689L187.692 227.545L187.692 227.547L195.13 227.689ZM194.763 246.999L187.324 246.858C187.324 246.867 187.324 246.877 187.324 246.886L194.763 246.999ZM192.443 249.246L192.596 241.808C191.926 241.794 191.257 241.871 190.607 242.036L192.443 249.246ZM192.344 249.271L185.954 245.461C184.412 248.048 184.581 251.309 186.382 253.722C188.183 256.135 191.262 257.224 194.18 256.481L192.344 249.271ZM197.717 54.3658L197.268 61.7922C222.831 63.3398 242.918 84.8956 242.42 110.744L249.858 110.887L257.297 111.031C257.949 77.1733 231.664 48.9673 198.167 46.9394L197.717 54.3658ZM249.858 110.887L242.419 110.777L241.936 143.472L249.375 143.582L256.815 143.692L257.297 110.997L249.858 110.887ZM249.375 143.582L249.229 151.02L256.706 151.167L256.853 143.729L256.999 136.29L249.522 136.143L249.375 143.582ZM256.853 143.729L256.637 151.166C256.822 151.171 257.008 151.176 257.193 151.182C257.378 151.187 257.564 151.192 257.749 151.198L257.965 143.761L258.181 136.324C257.995 136.319 257.81 136.313 257.624 136.308C257.439 136.303 257.254 136.297 257.068 136.292L256.853 143.729ZM257.965 143.761L257.508 151.187C267.438 151.798 275.189 160.124 274.998 170.145L282.437 170.286L289.875 170.428C290.218 152.394 276.267 137.433 258.422 136.335L257.965 143.761ZM282.437 170.286L274.998 170.146L273.208 264.925L280.647 265.066L288.086 265.206L289.875 170.427L282.437 170.286ZM280.647 265.066L273.208 264.922C273.01 275.219 264.515 283.411 254.205 283.217L254.065 290.656L253.925 298.095C272.46 298.443 287.729 283.709 288.086 265.209L280.647 265.066ZM254.065 290.656L254.205 283.218L122.708 280.734L122.567 288.173L122.427 295.611L253.924 298.095L254.065 290.656ZM122.567 288.173L122.783 280.736C122.599 280.73 122.414 280.725 122.228 280.72C122.043 280.714 121.857 280.709 121.671 280.703L121.455 288.14L121.239 295.577C121.424 295.582 121.609 295.588 121.794 295.593C121.979 295.599 122.165 295.604 122.352 295.609L122.567 288.173ZM121.455 288.14L121.912 280.714C111.982 280.103 104.231 271.777 104.422 261.757L96.9832 261.615L89.5445 261.474C89.2015 279.507 103.153 294.468 120.998 295.566L121.455 288.14ZM96.9832 261.615L104.422 261.756L106.212 166.976L98.773 166.836L91.3343 166.695L89.5445 261.475L96.9832 261.615ZM98.773 166.836L106.212 166.979C106.41 156.682 114.905 148.49 125.215 148.684L125.355 141.245L125.495 133.806C106.96 133.458 91.691 148.193 91.3343 166.692L98.773 166.836ZM125.355 141.245L125.22 148.684L138.135 148.918L138.27 141.48L138.405 134.041L125.49 133.806L125.355 141.245ZM138.27 141.48L145.709 141.589L146.192 108.895L138.753 108.785L131.313 108.675L130.831 141.37L138.27 141.48ZM138.753 108.785L146.191 108.927C146.697 82.3886 168.682 61.2162 195.215 61.722L195.357 54.2834L195.498 46.8447C160.744 46.1821 131.976 73.894 131.314 108.643L138.753 108.785ZM195.357 54.2834L195.272 61.7229C195.914 61.7301 196.512 61.7616 197.404 61.7992L197.717 54.3658L198.031 46.9324C197.328 46.9028 196.381 46.8545 195.441 46.8438L195.357 54.2834ZM164.124 141.942L163.984 149.381L223.393 150.502L223.533 143.063L223.673 135.625L164.265 134.504L164.124 141.942ZM223.533 143.063L230.972 143.173L231.455 110.479L224.016 110.369L216.577 110.259L216.094 142.953L223.533 143.063ZM224.016 110.369L231.454 110.509C231.832 90.5467 216.328 73.9333 196.589 72.7129L196.129 80.1387L195.67 87.5645C207.501 88.296 216.803 98.2806 216.577 110.228L224.016 110.369ZM196.129 80.1387L196.528 72.7094C196.285 72.6964 195.551 72.6455 194.849 72.6485L194.881 80.0884L194.913 87.5284C195.051 87.5278 195.121 87.5353 195.731 87.568L196.129 80.1387ZM194.881 80.0884L195.017 72.6497C174.536 72.2746 157.568 88.6188 157.193 109.105L164.632 109.241L172.071 109.378C172.295 97.1134 182.475 87.3025 194.745 87.5272L194.881 80.0884ZM164.632 109.241L157.193 109.132L156.71 141.826L164.149 141.936L171.588 142.046L172.071 109.351L164.632 109.241ZM192.093 254.067C192.123 261.507 192.123 261.507 192.123 261.507C192.123 261.507 192.123 261.507 192.123 261.507C192.122 261.507 192.122 261.507 192.122 261.507C192.122 261.507 192.122 261.507 192.121 261.507C192.121 261.507 192.12 261.507 192.12 261.507C192.119 261.507 192.119 261.507 192.118 261.507C192.117 261.507 192.117 261.507 192.117 261.507C192.117 261.507 192.12 261.507 192.123 261.507C192.131 261.507 192.14 261.507 192.147 261.507C192.255 261.508 192.085 261.51 191.845 261.493L192.384 254.072L192.922 246.652C192.602 246.628 192.286 246.628 192.27 246.628C192.214 246.627 192.165 246.627 192.131 246.627C192.114 246.627 192.099 246.627 192.087 246.627C192.082 246.627 192.077 246.627 192.073 246.627C192.071 246.627 192.069 246.627 192.067 246.627C192.066 246.627 192.066 246.627 192.065 246.627C192.065 246.627 192.064 246.627 192.064 246.627C192.064 246.627 192.064 246.627 192.064 246.627C192.063 246.627 192.063 246.627 192.063 246.627C192.063 246.627 192.063 246.627 192.093 254.067ZM192.384 254.072L192.253 261.511C200.313 261.652 206.953 255.251 207.108 247.207L199.669 247.065L192.23 246.922C192.234 246.75 192.376 246.631 192.514 246.633L192.384 254.072ZM199.669 247.065L207.108 247.206L207.475 227.895L200.037 227.754L192.598 227.612L192.23 246.923L199.669 247.065ZM200.037 227.754L207.476 227.863C207.445 229.945 206.179 231.56 204.652 232.263L201.541 225.505L198.429 218.746C195.114 220.273 192.656 223.61 192.597 227.645L200.037 227.754ZM201.541 225.505L204.529 232.318C214.234 228.061 221.076 218.486 221.313 207.194L213.874 207.038L206.436 206.882C206.324 212.188 203.13 216.683 198.552 218.691L201.541 225.505ZM213.874 207.038L221.313 207.16C221.406 201.524 219.843 196.193 217.01 191.701L210.717 195.67L204.424 199.64C205.734 201.717 206.48 204.21 206.435 206.916L213.874 207.038ZM210.717 195.67L217.021 191.72C212.375 184.305 204.312 179.228 195.006 178.662L194.555 186.089L194.104 193.515C198.469 193.78 202.239 196.153 204.412 199.621L210.717 195.67ZM194.555 186.089L194.681 178.65C194.717 178.65 194.726 178.652 194.552 178.642C194.432 178.635 194.13 178.616 193.803 178.61L193.677 186.049L193.551 193.488C193.515 193.488 193.506 193.486 193.68 193.496C193.8 193.503 194.102 193.522 194.429 193.528L194.555 186.089ZM193.677 186.049L193.826 178.611C183.779 178.41 174.893 183.516 169.81 191.351L176.052 195.4L182.294 199.449C184.688 195.758 188.832 193.394 193.529 193.488L193.677 186.049ZM176.052 195.4L169.827 191.325C167.029 195.601 165.391 200.683 165.281 206.114L172.719 206.264L180.158 206.415C180.211 203.813 180.988 201.445 182.277 199.474L176.052 195.4ZM172.719 206.264L165.281 206.13C165.077 217.426 171.569 227.264 181.104 231.875L184.343 225.177L187.583 218.479C183.087 216.305 180.063 211.688 180.158 206.399L172.719 206.264ZM184.343 225.177L181.026 231.837C179.479 231.066 178.299 229.4 178.329 227.361L185.768 227.47L193.207 227.579C193.266 223.587 190.954 220.158 187.661 218.518L184.343 225.177ZM185.768 227.47L178.33 227.328L177.962 246.639L185.401 246.78L192.839 246.922L193.207 227.611L185.768 227.47ZM185.401 246.78L177.962 246.646C177.82 254.499 183.879 261.004 191.657 261.486L192.118 254.061L192.578 246.635C192.718 246.644 192.842 246.774 192.839 246.915L185.401 246.78ZM198.03 49.5017L198.428 42.0723C197.593 42.0275 196.634 41.9756 195.662 41.9515L195.477 49.3892L195.292 56.8269C196.014 56.8448 196.761 56.8843 197.631 56.931L198.03 49.5017ZM195.477 49.3892L195.62 41.9506C158.191 41.2308 127.195 71.1193 126.475 108.533L133.914 108.676L141.353 108.819C141.914 79.6066 166.137 56.2663 195.334 56.8278L195.477 49.3892ZM133.914 108.676L126.475 108.566L126.064 136.379L133.503 136.489L140.942 136.599L141.353 108.786L133.914 108.676ZM133.503 136.489L133.654 129.051L125.621 128.888L125.47 136.326L125.319 143.765L133.352 143.928L133.503 136.489ZM125.47 136.326L125.61 128.887C115.371 128.694 105.627 132.515 98.2507 139.602L103.405 144.967L108.56 150.332C113.096 145.974 119.032 143.646 125.33 143.765L125.47 136.326ZM103.405 144.967L98.2507 139.602C90.8668 146.696 86.6761 156.297 86.4831 166.537L93.9218 166.677L101.36 166.817C101.479 160.522 104.031 154.683 108.56 150.332L103.405 144.967ZM93.9218 166.677L86.4831 166.537L84.6934 261.316L92.1321 261.457L99.5707 261.597L101.36 166.818L93.9218 166.677ZM92.1321 261.457L84.6934 261.318C84.3079 281.933 100.129 299.124 120.731 300.369L121.179 292.942L121.628 285.516C109.015 284.754 99.334 274.262 99.5708 261.596L92.1321 261.457ZM121.179 292.942L120.781 300.372C121.032 300.385 121.285 300.397 121.498 300.406C121.723 300.416 121.91 300.425 122.085 300.434L122.483 293.005L122.882 285.575C122.63 285.562 122.378 285.551 122.165 285.541C121.939 285.531 121.753 285.523 121.578 285.513L121.179 292.942ZM122.483 293.005L122.343 300.443L253.84 302.927L253.981 295.488L254.121 288.05L122.624 285.566L122.483 293.005ZM253.981 295.488L253.841 302.927C264.079 303.12 273.823 299.3 281.2 292.213L276.045 286.848L270.891 281.483C266.354 285.841 260.418 288.168 254.121 288.05L253.981 295.488ZM276.045 286.848L281.2 292.213C288.584 285.118 292.774 275.518 292.967 265.277L285.529 265.137L278.09 264.997C277.971 271.293 275.42 277.131 270.891 281.483L276.045 286.848ZM285.529 265.137L292.967 265.278L294.757 170.498L287.318 170.358L279.88 170.217L278.09 264.997L285.529 265.137ZM287.318 170.358L294.757 170.497C295.143 149.881 279.321 132.69 258.72 131.446L258.271 138.872L257.823 146.299C270.435 147.061 280.117 157.552 279.88 170.219L287.318 170.358ZM258.271 138.872L258.67 131.443C258.419 131.429 258.167 131.418 257.954 131.408C257.729 131.398 257.542 131.39 257.366 131.38L256.967 138.81L256.569 146.239C256.819 146.252 257.071 146.264 257.284 146.273C257.51 146.284 257.697 146.292 257.873 146.301L258.271 138.872ZM256.967 138.81L257.074 131.37L254.436 131.333L254.329 138.772L254.222 146.211L256.86 146.249L256.967 138.81ZM254.329 138.772L261.768 138.887L262.197 111.042L254.758 110.928L247.319 110.813L246.89 138.657L254.329 138.772ZM254.758 110.928L262.197 111.069C262.53 93.478 256.112 76.6368 244.114 63.6994L238.659 68.7585L233.204 73.8176C242.586 83.9339 247.58 97.0479 247.319 110.787L254.758 110.928ZM238.659 68.7585L244.121 63.7065C232.198 50.8167 215.959 43.0927 198.466 42.0502L198.024 49.477L197.581 56.9038C211.213 57.7163 223.864 63.7204 233.197 73.8105L238.659 68.7585ZM198.024 49.477L190.814 51.3127L190.82 51.3373L198.03 49.5017L205.24 47.666L205.234 47.6413L198.024 49.477ZM169.065 137.188L176.505 137.303L176.934 109.459L169.495 109.344L162.056 109.229L161.626 137.073L169.065 137.188ZM169.495 109.344L176.934 109.48C177.108 99.9118 185.068 92.2475 194.642 92.4395L194.791 85.001L194.94 77.5625C177.139 77.2055 162.381 91.4139 162.056 109.208L169.495 109.344ZM194.791 85.001L194.425 92.432C194.644 92.4428 194.862 92.4512 195.034 92.4578C195.221 92.4651 195.361 92.4706 195.488 92.4769L195.854 85.0459L196.22 77.6149C196.001 77.6041 195.783 77.5957 195.611 77.589C195.424 77.5818 195.285 77.5763 195.157 77.57L194.791 85.001ZM195.854 85.0459L195.401 92.472C204.742 93.0424 211.903 100.792 211.726 110.176L219.165 110.316L226.604 110.455C226.93 93.1073 213.616 78.6765 196.307 77.6197L195.854 85.0459ZM219.165 110.316L211.726 110.206L211.315 138.019L218.754 138.129L226.193 138.239L226.604 110.425L219.165 110.316ZM218.754 138.129L218.896 130.69L169.232 129.743L169.09 137.182L168.948 144.62L218.612 145.567L218.754 138.129ZM169.09 137.182L167.255 129.972L167.23 129.978L169.065 137.188L170.901 144.398L170.926 144.392L169.09 137.182ZM192.381 249.209L192.871 241.785C195.542 241.962 197.751 244.224 197.677 247.083L190.239 246.889L182.802 246.695C182.663 251.989 186.76 256.294 191.891 256.633L192.381 249.209ZM190.239 246.889L197.678 247.031L198.045 227.72L190.607 227.578L183.168 227.437L182.801 246.748L190.239 246.889ZM190.607 227.578L198.045 227.739C198.171 221.919 194.833 216.628 189.704 214.121L186.438 220.806L183.171 227.491C183.171 227.491 183.173 227.491 183.175 227.493C183.178 227.496 183.181 227.5 183.182 227.502C183.183 227.504 183.18 227.499 183.176 227.485C183.172 227.47 183.168 227.446 183.169 227.417L190.607 227.578ZM186.438 220.806L189.679 214.109C186.784 212.708 184.939 209.713 184.991 206.467L177.552 206.349L170.113 206.231C169.97 215.231 175.057 223.564 183.196 227.503L186.438 220.806ZM177.552 206.349L184.99 206.503C185.023 204.923 185.487 203.431 186.326 202.148L180.099 198.076L173.871 194.005C171.494 197.642 170.203 201.854 170.113 206.194L177.552 206.349ZM180.099 198.076L186.326 202.147C187.925 199.701 190.549 198.323 193.403 198.382L193.556 190.943L193.71 183.505C185.675 183.339 178.251 187.306 173.871 194.006L180.099 198.076ZM193.556 190.943L193.784 198.38C193.58 198.386 193.427 198.377 193.358 198.372C193.324 198.37 193.307 198.368 193.317 198.369C193.331 198.371 193.351 198.373 193.411 198.379L194.224 190.984L195.037 183.588C194.879 183.571 194.162 183.481 193.328 183.507L193.556 190.943ZM194.224 190.984L193.78 198.411C196.385 198.566 198.828 200.003 200.254 202.269L206.552 198.308L212.849 194.347C208.887 188.047 202.1 184.001 194.667 183.557L194.224 190.984ZM206.552 198.308L200.26 202.28C201.114 203.633 201.558 205.199 201.529 206.841L208.968 206.973L216.407 207.104C216.487 202.567 215.249 198.147 212.843 194.336L206.552 198.308ZM208.968 206.973L201.529 206.817C201.462 210.034 199.502 212.968 196.562 214.254L199.544 221.071L202.526 227.887C210.799 224.268 216.217 216.122 216.406 207.129L208.968 206.973ZM199.544 221.071L196.578 214.247C191.262 216.558 187.803 221.778 187.692 227.545L195.13 227.689L202.569 227.832C202.569 227.845 202.564 227.854 202.563 227.856C202.561 227.858 202.546 227.878 202.51 227.894L199.544 221.071ZM195.13 227.689L187.692 227.547L187.324 246.858L194.763 246.999L202.201 247.141L202.569 227.83L195.13 227.689ZM194.763 246.999L187.324 246.886C187.367 244.013 189.73 241.749 192.596 241.808L192.443 249.246L192.29 256.684C197.64 256.794 202.12 252.519 202.202 247.112L194.763 246.999ZM192.443 249.246L190.607 242.036L190.508 242.061L192.344 249.271L194.18 256.481L194.279 256.456L192.443 249.246ZM192.344 249.271L198.735 253.081L198.771 253.019L192.381 249.209L185.991 245.399L185.954 245.461L192.344 249.271Z" fill="#1B1B1B" mask="url(#path-2-outside-1_6_278)"/>
<path d="M222.603 83.6648L166.571 82.7299L165.559 143.414L221.591 144.349L222.603 83.6648Z" fill="#1B1B1B" stroke="white" stroke-width="0.963729" stroke-miterlimit="10"/>
<path d="M239.088 169.586L155.453 164.491L149.055 269.513L232.691 274.607L239.088 169.586Z" fill="#1B1B1B" stroke="white" stroke-width="0.963729" stroke-miterlimit="10"/>
<path d="M120.104 290.548C104.801 289.607 93.0432 276.88 93.3414 261.531L95.1311 166.751C95.44 151.031 108.467 138.487 124.181 138.771L134.667 138.967L135.117 108.725C135.726 76.7346 162.222 51.2186 194.207 51.8032C195.029 51.8306 195.851 51.8579 196.648 51.8915C227.754 53.7775 251.68 79.7057 251.073 110.881L250.623 141.122L255.672 141.23C256.067 141.235 256.494 141.258 256.896 141.287C272.199 142.228 283.956 154.955 283.658 170.304L281.868 265.084C281.56 280.804 268.533 293.348 252.819 293.064L121.321 290.58C120.926 290.576 120.5 290.553 120.098 290.524L120.104 290.548ZM193.216 188.546C192.951 188.535 192.71 188.518 192.444 188.506C186.153 188.373 180.34 191.457 176.903 196.748C175.049 199.586 174.025 202.896 173.953 206.332C173.829 213.383 177.837 219.934 184.196 223.02C185.936 223.865 187.019 225.64 186.978 227.544L186.61 246.854C186.572 249.388 188.502 251.499 191.043 251.667L191.253 251.666C193.866 251.71 196.02 249.637 196.064 247.023L196.432 227.713C196.473 225.809 197.634 224.068 199.379 223.282C205.836 220.455 210.121 214.054 210.245 207.003C210.31 203.438 209.349 199.975 207.458 196.987C204.36 192.045 199.032 188.88 193.21 188.522L193.216 188.546ZM194.791 82.5963C194.414 82.5608 194.019 82.5564 193.648 82.5456C178.62 82.2708 166.165 94.2746 165.866 109.309L165.416 139.551L219.937 140.575L220.387 110.334C220.669 95.6455 209.42 83.4722 194.785 82.5716L194.791 82.5963Z" fill="#08C225"/>
<path d="M136.164 141.449L166.381 142.01L165.418 115.204C165.418 115.204 163.793 93.6406 177.766 88.637C191.74 83.6335 194.715 82.8235 194.715 82.8235L212.906 88.8125L221.631 105.94L218.935 134.071L219.029 143.012L250.73 143.616L251.934 104.876L245.226 86.8932L238.206 73.7748L223.416 60.1897L213.024 54.6861L190.785 51.3837L170 55.9657L155.739 65.8272L142.084 81.5806L139.222 91.4049L135.87 103.641L134.89 119.927L134.731 138.712L136.188 141.442L136.164 141.449Z" fill="white"/>
<path d="M196.515 54.3658C226.045 56.1536 249.231 81.0345 248.656 110.887L248.173 143.582L255.65 143.729C256.021 143.739 256.392 143.75 256.762 143.761C270.65 144.615 281.501 156.259 281.234 170.286L279.445 265.066C279.167 279.464 267.285 290.927 252.863 290.656L121.365 288.173C120.994 288.162 120.623 288.151 120.253 288.14C106.365 287.286 95.514 275.642 95.7808 261.615L97.5706 166.836C97.8481 152.438 109.73 140.974 124.153 141.245L137.068 141.48L137.55 108.785C138.134 78.1413 163.511 53.6992 194.154 54.2834C194.945 54.2923 195.718 54.3322 196.515 54.3658ZM162.922 141.942L222.331 143.063L222.813 110.369C223.115 94.4136 210.712 81.1147 194.927 80.1387C194.501 80.1158 194.099 80.0866 193.679 80.0884C177.303 79.7885 163.729 92.8661 163.429 109.241L162.947 141.936M190.891 254.067C190.891 254.067 191.101 254.066 191.181 254.072C195.142 254.141 198.391 251.001 198.467 247.065L198.834 227.754C198.848 226.778 199.444 225.916 200.338 225.505C207.48 222.372 212.498 215.337 212.672 207.038C212.74 202.867 211.586 198.955 209.515 195.67C206.105 190.229 200.188 186.504 193.352 186.089C193.062 186.084 192.765 186.054 192.475 186.049C185.103 185.902 178.588 189.637 174.85 195.4C172.806 198.523 171.599 202.248 171.517 206.264C171.368 214.557 176.126 221.784 183.141 225.177C184.014 225.612 184.58 226.493 184.566 227.47L184.198 246.78C184.128 250.636 187.096 253.824 190.915 254.061M196.827 49.5016C195.975 49.4559 195.122 49.4102 194.275 49.3892C160.962 48.7485 133.352 75.3629 132.712 108.676L132.301 136.489L124.267 136.326C115.999 136.17 108.159 139.244 102.203 144.967C96.2464 150.69 92.8752 158.409 92.7194 166.677L90.9297 261.457C90.6186 278.098 103.37 291.939 119.977 292.942C120.403 292.965 120.854 292.982 121.281 293.005L252.778 295.488C261.046 295.644 268.886 292.57 274.843 286.848C280.799 281.125 284.171 273.405 284.326 265.137L286.116 170.358C286.427 153.717 273.676 139.875 257.069 138.872C256.642 138.849 256.191 138.833 255.765 138.81L253.126 138.772L253.556 110.928C253.853 95.263 248.147 80.2854 237.457 68.7585C226.829 57.2685 212.384 50.4045 196.821 49.477L196.827 49.5016ZM167.863 137.188L168.293 109.344C168.542 95.6629 179.901 84.7265 193.589 85.001C193.935 85.018 194.306 85.0288 194.652 85.0458C207.977 85.8594 218.214 96.9495 217.963 110.316L217.552 138.129L167.888 137.182L167.863 137.188ZM191.179 249.209C189.949 249.128 189.005 248.106 189.037 246.889L189.404 227.578C189.466 224.724 187.817 222.068 185.235 220.806C179.718 218.136 176.252 212.472 176.349 206.349C176.411 203.389 177.288 200.536 178.896 198.076C181.886 193.504 186.91 190.831 192.354 190.943C192.589 190.936 192.805 190.96 193.021 190.984C198.04 191.283 202.655 194.025 205.349 198.308C206.979 200.89 207.82 203.883 207.765 206.973C207.637 213.078 203.948 218.618 198.342 221.071C195.715 222.213 193.983 224.809 193.928 227.689L193.56 246.999C193.541 248.266 192.483 249.272 191.241 249.246L191.142 249.271L191.179 249.209Z" fill="#1B1B1B"/>
<path d="M156.361 157.033L127.142 156.668C118.799 156.563 111.952 163.236 111.848 171.572C111.744 179.908 118.422 186.75 126.765 186.854L155.984 187.219C164.327 187.324 171.174 180.651 171.278 172.315C171.383 163.979 164.704 157.137 156.361 157.033Z" fill="white" fill-opacity="0.27"/>
<path d="M102.728 74.8457C89.3354 76.9847 78.9045 85.2794 77.2537 96.5034C78.9045 85.2794 71.3145 74.3478 59.0936 68.4284C72.4863 66.2893 82.9172 57.9947 84.5679 46.7707C82.9172 57.9947 90.5071 68.9262 102.728 74.8457Z" fill="#505050"/>
<path d="M60.0476 253.394C47.1184 258.747 38.6353 269.569 39.6655 281.229C38.6353 269.569 28.401 260.415 14.7188 257.399C27.6479 252.046 36.1311 241.225 35.1009 229.565C36.1311 241.225 46.3653 250.379 60.0476 253.394Z" fill="#505050"/>
<path d="M372.544 219.068C358.003 220.389 346.211 228.525 343.617 240.455C346.211 228.525 338.862 216.228 326.182 208.989C340.723 207.668 352.514 199.532 355.108 187.602C352.514 199.532 359.864 211.829 372.544 219.068Z" fill="#505050"/>
</svg>
