<svg preserveAspectRatio="xMidYMid meet" width="18" height="18" viewBox="0 0 16.5 16.5" fill="none" xmlns="http://www.w3.org/2000/svg">
<g id="elements">
<path id="Subtract" d="M13.3379 3.07617C14.1499 3.20964 14.84 3.47087 15.3965 4.02734C16.001 4.63201 16.2611 5.39366 16.3828 6.29883C16.5016 7.18258 16.5 8.30988 16.5 9.71192C16.5 11.1136 16.5016 12.2404 16.3828 13.124C16.2611 14.0293 16.0012 14.7918 15.3965 15.3965C14.7918 16.0012 14.0293 16.2611 13.124 16.3828C12.2404 16.5016 11.1136 16.5 9.71192 16.5C8.30988 16.5 7.18258 16.5016 6.29883 16.3828C5.39366 16.2611 4.63201 16.001 4.02734 15.3965C3.47087 14.84 3.20964 14.1499 3.07617 13.3379C3.16876 13.3542 3.26257 13.3709 3.3584 13.3838C4.2369 13.5019 5.35709 13.5 6.75 13.5C8.14291 13.5 9.2631 13.5019 10.1416 13.3838C11.0417 13.2628 11.7995 13.0033 12.4014 12.4014C13.0033 11.7995 13.2628 11.0417 13.3838 10.1416C13.5019 9.2631 13.5 8.14291 13.5 6.75C13.5 5.35709 13.5019 4.2369 13.3838 3.3584C13.3709 3.26257 13.3542 3.16876 13.3379 3.07617Z" fill="#000000"/>
<path id="Vector" d="M0.750001 6.75C0.750001 3.92157 0.750001 2.50736 1.62868 1.62868C2.50736 0.750001 3.92157 0.750001 6.75 0.750001C9.57843 0.750001 10.9926 0.750001 11.8713 1.62868C12.75 2.50736 12.75 3.92157 12.75 6.75C12.75 9.57843 12.75 10.9926 11.8713 11.8713C10.9926 12.75 9.57843 12.75 6.75 12.75C3.92157 12.75 2.50736 12.75 1.62868 11.8713C0.750001 10.9926 0.750001 9.57843 0.750001 6.75Z" stroke="#000000" stroke-width="1.5"/>
</g>
</svg>
