<svg preserveAspectRatio="xMidYMid meet" width="18" height="18" viewBox="0 0 16.5 16.5" fill="none" xmlns="http://www.w3.org/2000/svg">
<g id="elements">
<path id="Vector" d="M3.75 12.7308C3.84653 13.7122 4.06467 14.3727 4.55768 14.8657C5.44197 15.75 6.86522 15.75 9.7117 15.75C12.5582 15.75 13.9814 15.75 14.8657 14.8657C15.75 13.9814 15.75 12.5582 15.75 9.7117C15.75 6.86522 15.75 5.44197 14.8657 4.55768C14.3727 4.06467 13.7122 3.84653 12.7308 3.75" stroke="#000000" stroke-width="1.5"/>
<path id="Vector_2" d="M0.750001 6.75C0.750001 3.92157 0.750001 2.50736 1.62868 1.62868C2.50736 0.750001 3.92157 0.750001 6.75 0.750001C9.57843 0.750001 10.9926 0.750001 11.8713 1.62868C12.75 2.50736 12.75 3.92157 12.75 6.75C12.75 9.57843 12.75 10.9926 11.8713 11.8713C10.9926 12.75 9.57843 12.75 6.75 12.75C3.92157 12.75 2.50736 12.75 1.62868 11.8713C0.750001 10.9926 0.750001 9.57843 0.750001 6.75Z" stroke="#000000" stroke-width="1.5"/>
</g>
</svg>
