<svg preserveAspectRatio="xMidYMid meet" width="18" height="18" viewBox="0 0 14.625 16.2723" fill="none" xmlns="http://www.w3.org/2000/svg">
<path id="Subtract" d="M5.8667 0.591153C6.66908 -0.197051 7.95592 -0.197051 8.7583 0.591153L14.0083 5.74887C14.4029 6.13657 14.6249 6.6671 14.625 7.2203V13.4598C14.625 15.0131 13.3658 16.2723 11.8125 16.2723H9.8125C9.26022 16.2723 8.8125 15.8246 8.8125 15.2723V11.2098C8.81241 10.3815 8.14087 9.7098 7.3125 9.7098C6.48413 9.7098 5.81259 10.3815 5.8125 11.2098V15.2723C5.8125 15.8246 5.36478 16.2723 4.8125 16.2723H2.8125C1.2592 16.2723 6.18483e-06 15.0131 0 13.4598V7.2203C9.7543e-05 6.6671 0.222072 6.13657 0.616699 5.74887L5.8667 0.591153Z" fill="#000000"/>
</svg>
