<svg width="42" height="25" viewBox="0 0 42 25" fill="none" xmlns="http://www.w3.org/2000/svg">
<path d="M9.29671 7.21083H3.09291C3.39261 7.9421 4.06394 8.30773 5.1069 8.30773C5.74226 8.30773 6.28772 8.09794 6.74326 7.67836L8.90111 9.18885C8.02598 10.3037 6.73727 10.8612 5.03497 10.8612C3.51249 10.8612 2.28971 10.4176 1.36663 9.53051C0.455545 8.63141 0 7.49854 0 6.13191C0 4.77726 0.449551 3.64439 1.34865 2.7333C2.24775 1.82221 3.39261 1.36667 4.78322 1.36667C6.12588 1.36667 7.23477 1.81622 8.1099 2.71532C8.98502 3.60244 9.42259 4.72931 9.42259 6.09594C9.42259 6.51552 9.38063 6.88715 9.29671 7.21083ZM3.05695 5.14289H6.5095C6.28173 4.30373 5.71829 3.88415 4.81919 3.88415C3.89611 3.88415 3.30869 4.30373 3.05695 5.14289Z" fill="white"/>
<path d="M15.2899 1.36667C16.2849 1.36667 17.0821 1.70833 17.6815 2.39164C18.2929 3.06297 18.5986 4.01003 18.5986 5.2328V10.6094H15.6136V5.61043C15.6136 5.15488 15.4937 4.80723 15.254 4.56747C15.0142 4.31572 14.6845 4.18985 14.265 4.18985C13.7974 4.18985 13.4318 4.3337 13.168 4.62142C12.9163 4.89714 12.7904 5.29874 12.7904 5.82621V10.6094H9.80542V1.61842H12.7904V2.51752C13.3299 1.75029 14.1631 1.36667 15.2899 1.36667Z" fill="white"/>
<path d="M24.8942 1.61842V4.47756H23.024V7.08495C23.024 7.46857 23.1559 7.71433 23.4196 7.82222C23.6954 7.91812 24.1869 7.94809 24.8942 7.91213V10.6094C23.1199 10.8252 21.8612 10.6634 21.1179 10.1239C20.3987 9.56048 20.039 8.57147 20.039 7.15688V4.47756H18.6904V1.61842H20.039V3.33496e-05L23.024 0V1.61842H24.8942Z" fill="white"/>
<path d="M34.0817 7.21083H27.8779C28.1776 7.9421 28.8489 8.30773 29.8919 8.30773C30.5273 8.30773 31.0727 8.09794 31.5283 7.67836L33.6861 9.18885C32.811 10.3037 31.5223 10.8612 29.82 10.8612C28.2975 10.8612 27.0747 10.4176 26.1516 9.53051C25.2406 8.63141 24.785 7.49854 24.785 6.13191C24.785 4.77726 25.2346 3.64439 26.1337 2.7333C27.0328 1.82221 28.1776 1.36667 29.5682 1.36667C30.9109 1.36667 32.0198 1.81622 32.8949 2.71532C33.77 3.60244 34.2076 4.72931 34.2076 6.09594C34.2076 6.51552 34.1656 6.88715 34.0817 7.21083ZM27.842 5.14289H31.2945C31.0667 4.30373 30.5033 3.88415 29.6042 3.88415C28.6811 3.88415 28.0937 4.30373 27.842 5.14289Z" fill="white"/>
<rect x="7.15869" y="13.1914" width="34" height="10.9173" rx="3.63911" transform="rotate(-4.24618 7.15869 13.1914)" fill="#1db954"/>
<path d="M13.8 19.5L13.9 20.5L12 20.65L11.7 17L15.4 16.7L15.5 17.7L12.9 17.9L12.95 18.5L15.2 18.35L15.3 19.25L13 19.4L13.8 19.5ZM18.7 16.3C19.7 16.2 20.5 16.5 21.1 17.2C21.7 17.9 22 18.8 21.9 19.9L19.8 20.1C19.9 19.4 19.7 18.8 19.2 18.4C18.7 18 18.1 17.8 17.4 17.9C16.7 18 16.2 18.3 15.9 18.9C15.6 19.5 15.6 20.1 15.9 20.8L13.9 21C13.5 19.9 13.4 18.9 13.6 18.1C13.8 17.3 14.3 16.7 15 16.3C15.7 15.9 16.5 15.7 17.5 15.8L18.7 16.3ZM21.1 16L22 15.9L22.3 19.9L21.3 20L21.1 16ZM25.1 19.4C25.5 19.4 25.8 19.5 26 19.7C26.2 19.9 26.3 20.2 26.4 20.6L25.4 20.7C25.4 20.5 25.3 20.3 25.1 20.2C24.9 20.1 24.7 20.1 24.4 20.1C24.1 20.2 23.9 20.3 23.8 20.5C23.7 20.7 23.7 21 23.8 21.3L22.9 21.4C22.7 20.7 22.8 20.2 23.1 19.8C23.4 19.4 23.9 19.2 24.5 19.1L25.1 19.4ZM27 18.9L27.1 20.1L28.2 20L28.3 20.9L27.2 21L27.3 22.3L26.4 22.4L26.2 19L29.3 18.7L29.4 19.6L27 18.9ZM31 18.5L31.9 18.4L32.2 22L31.3 22.1L31 18.5ZM32.6 18.3L34.2 18.2C34.9 18.1 35.4 18.2 35.8 18.5C36.2 18.8 36.4 19.2 36.5 19.8L36.6 20.8C36.7 21.4 36.5 21.9 36.2 22.3C35.9 22.7 35.4 22.9 34.7 23L33.1 23.1L32.6 18.3ZM34.1 22.1C34.5 22.1 34.8 22 35 21.8C35.2 21.6 35.3 21.3 35.3 20.9L35.2 20.1C35.2 19.7 35 19.4 34.8 19.3C34.6 19.2 34.3 19.1 33.9 19.1L33.5 19.1L33.7 22L34.1 22.1ZM38.1 22.3C37.7 22.4 37.3 22.3 37 22.1C36.7 21.9 36.5 21.6 36.4 21.2L37.3 21.1C37.4 21.5 37.6 21.7 37.9 21.6C38.1 21.6 38.3 21.5 38.3 21.3C38.3 21.1 38.2 21 37.9 20.9L37.4 20.7C36.9 20.5 36.6 20.2 36.6 19.7C36.6 19.2 36.9 18.9 37.4 18.7C37.8 18.6 38.1 18.6 38.4 18.7C38.7 18.8 38.9 19.1 39 19.4L38.2 19.5C38.1 19.3 37.9 19.2 37.7 19.2C37.5 19.2 37.4 19.3 37.4 19.5C37.4 19.7 37.5 19.8 37.8 19.9L38.3 20.1C38.8 20.3 39.1 20.6 39.1 21.1C39.1 21.6 38.7 22 38.1 22.3Z" fill="white"/>
</svg>
