<svg xmlns="http://www.w3.org/2000/svg" width="24" height="24" viewBox="0 0 24 24" fill="none" stroke="currentColor" stroke-width="2">
  <circle cx="12" cy="12" r="10" stroke="currentColor" stroke-width="2" />
  <path d="M9.38886 15.1629C9.89331 15.5 10.5955 15.5 12 15.5C13.4045 15.5 14.1067 15.5 14.6111 15.1629C14.8295 15.017 15.017 14.8295 15.1629 14.6111C15.5 14.1067 15.5 13.4045 15.5 12C15.5 10.5955 15.5 9.89331 15.1629 9.38886C15.017 9.17048 14.8295 8.98298 14.6111 8.83706C14.1067 8.5 13.4045 8.5 12 8.5C10.5955 8.5 9.89331 8.5 9.38886 8.83706C9.17048 8.98298 8.98298 9.17048 8.83706 9.38886C8.5 9.89331 8.5 10.5955 8.5 12C8.5 13.4045 8.5 14.1067 8.83706 14.6111C8.98298 14.8295 9.17048 15.017 9.38886 15.1629Z" stroke="currentColor" stroke-linecap="round" stroke-linejoin="round" stroke-width="2" />
</svg>
