<svg preserveAspectRatio="none" width="100%" height="100%" overflow="visible" style="display: block;" viewBox="0 0 304.458 293.566" fill="none" xmlns="http://www.w3.org/2000/svg">
<g id="Layer_1" clip-path="url(#clip0_0_111)">
<path id="Vector" d="M175.9 293.558C246.9 293.558 304.457 289.375 304.457 284.216C304.457 279.057 246.9 274.874 175.9 274.874C104.9 274.874 47.3429 279.057 47.3429 284.216C47.3429 289.375 104.9 293.558 175.9 293.558Z" fill="var(--fill-0, #232323)"/>
<g id="Group">
<path id="Vector_2" d="M221.068 248.908C244.935 270.449 243.607 287.044 213.775 289.693C183.942 292.349 162.529 286.242 169.424 267.558C176.319 248.874 221.068 248.908 221.068 248.908Z" fill="var(--fill-0, #FF814A)"/>
<path id="Vector_3" d="M201.318 292.496C185.047 292.496 173.683 289.126 168.763 282.696C165.5 278.436 165.028 273.084 167.347 266.795C174.667 246.952 218.903 246.696 221.054 246.696H221.074C221.62 246.696 222.145 246.898 222.557 247.269C236.253 259.63 242.016 270.577 239.225 278.921C236.772 286.261 228.272 290.629 213.976 291.903C209.487 292.301 205.261 292.503 201.325 292.503L201.318 292.496ZM220.225 251.131C214.158 251.252 177.289 252.634 171.492 268.325C169.706 273.165 169.962 276.987 172.274 280.006C177.356 286.646 192.414 289.375 213.579 287.495C225.785 286.41 233.206 282.959 235.026 277.512C237.149 271.17 231.892 261.821 220.225 251.131Z" fill="var(--fill-0, #232323)"/>
</g>
<g id="Group_2">
<path id="Vector_4" d="M106.045 248.903C82.1778 270.444 83.5056 287.039 113.338 289.688C143.17 292.344 164.584 286.237 157.689 267.553C150.794 248.869 106.045 248.903 106.045 248.903Z" fill="var(--fill-0, #FF814A)"/>
<path id="Vector_5" d="M125.794 292.492C121.857 292.492 117.631 292.297 113.142 291.893C98.8462 290.619 90.3467 286.251 87.8932 278.911C85.1027 270.566 90.8657 259.62 104.562 247.258C104.966 246.894 105.492 246.692 106.045 246.686H106.065C108.208 246.686 152.445 246.942 159.771 266.785C162.09 273.074 161.618 278.419 158.356 282.685C153.436 289.116 142.072 292.486 125.801 292.486L125.794 292.492ZM106.887 251.127C95.2199 261.817 89.9692 271.166 92.0857 277.509C93.9055 282.948 101.32 286.399 113.533 287.491C134.698 289.378 149.755 286.649 154.838 280.003C157.15 276.983 157.406 273.161 155.619 268.322C149.83 252.63 112.96 251.249 106.887 251.127Z" fill="var(--fill-0, #232323)"/>
</g>
<g id="Group_3">
<path id="Vector_6" d="M197.59 143.164C245.878 226.75 330.299 204.702 255.395 119.067C255.395 119.067 236.279 110.372 241.368 132.217" fill="var(--fill-0, #F4D93B)"/>
<path id="Vector_7" d="M199.343 142.154C207.121 155.189 216.592 167.389 228.347 177.062C238.349 185.103 250.279 192.187 263.376 192.113C272.839 191.984 279.687 186.424 280.577 176.812C281.628 162.091 273.23 147.539 265.297 135.568C260.949 129.293 256.359 123.193 252.126 116.662C251.553 115.826 252.686 114.754 253.495 115.462C259.433 120.585 264.481 126.617 268.923 133.074C277.551 145.888 286.387 161.222 285.275 177.284C284.52 186.35 278.798 193.953 269.779 196.116C250.374 200.538 229.459 185.905 216.693 172.599C208.517 164.113 201.621 154.401 195.838 144.176C194.598 141.857 197.921 139.889 199.343 142.154Z" fill="var(--fill-0, #232323)"/>
</g>
<g id="Group_4">
<path id="Vector_8" d="M179.823 275.822L179.688 275.843C143.298 281.127 95.8395 279.199 76.7982 242.33C62.7313 215.558 67.3146 184.33 69.6602 155.306C71.379 136.373 70.9409 117.136 72.6664 98.2228C73.6437 86.5622 76.4612 75.3329 81.3142 65.209C86.9153 53.5079 95.2396 43.2694 106.59 35.5316C110.008 33.1523 113.566 31.0695 117.226 29.2699C131.691 22.1521 147.74 19.5032 163.202 21.1276C188.255 23.7496 211.792 37.5739 224.585 61.731C233.038 76.9708 237.48 93.9158 243.148 110.355C246.559 120.493 250.347 130.482 254.249 140.444C255.301 143.154 256.352 145.87 257.39 148.593C260.733 157.429 263.861 166.367 266.031 175.567C281.467 240.119 236.974 267.195 179.823 275.822Z" fill="var(--fill-0, #F4D93B)"/>
<path id="Vector_9" d="M67.0316 212.094L103.126 213.294L105.364 126.87L68.656 195.742L67.0316 212.094Z" fill="var(--fill-0, #F2C33D)"/>
<path id="Vector_10" d="M123.023 32.1348C123.023 32.1348 94.5322 42.6766 85.4261 67.5549L81.3145 65.2093C86.9157 53.5082 95.2399 43.2697 106.591 35.5319C110.008 33.1525 113.567 31.0698 117.227 29.2701L123.023 32.1348Z" fill="var(--fill-0, white)"/>
<path id="Vector_11" d="M257.391 148.592C248.467 137.794 236.429 106.661 229.426 85.9275C221.438 62.2489 204.035 30.1046 161.605 26.1076L163.202 21.1265C188.256 23.7485 211.793 37.5728 224.586 61.7299C233.038 76.9697 237.48 93.9147 243.149 110.354C246.559 120.492 250.347 130.481 254.25 140.443C255.301 143.152 256.353 145.869 257.391 148.592Z" fill="var(--fill-0, white)"/>
<path id="Vector_12" d="M170.92 275.073C111.538 270.247 126.036 168.631 191.114 145.761C260.39 121.415 269.119 187.16 269.119 187.16L264.785 228.761L245.117 251.112L223.966 266.035L189.132 274.224L170.913 275.08L170.92 275.073Z" fill="var(--fill-0, #FFE773)"/>
<path id="Vector_13" d="M151.144 280.25C140.278 280.25 130.282 279.185 121.23 277.049C99.3243 271.886 83.7138 260.548 74.8369 243.347C61.8888 218.712 64.3355 190.874 66.7014 163.947C66.9642 160.988 67.2204 158.049 67.4563 155.124C68.3123 145.714 68.6358 136.069 68.9526 126.734C69.2694 117.304 69.5997 107.558 70.4692 98.0135C72.7946 70.2975 85.1832 47.4548 105.35 33.6979C125.463 19.7253 150.759 15.0475 174.741 20.8711C197.469 26.3914 215.87 40.5325 226.547 60.6927C233.105 72.5084 237.331 85.4969 241.409 98.0607C242.649 101.869 243.923 105.805 245.251 109.634C248.891 120.452 252.888 130.866 256.319 139.635C260.518 150.433 265.277 162.673 268.195 175.055C274.201 200.156 271.579 221.293 260.403 237.874C246.451 258.574 219.456 272.081 180.167 278.006L180.032 278.026C169.848 279.509 160.202 280.244 151.164 280.244L151.144 280.25ZM154.284 22.8528C137.791 22.8528 121.554 27.8271 107.844 37.3444C88.7825 50.3463 77.0747 72.0298 74.8638 98.4045C74.0011 107.834 73.6776 117.52 73.3608 126.889C73.044 136.285 72.7137 145.998 71.8509 155.508C71.615 158.413 71.3589 161.372 71.096 164.338C68.7841 190.625 66.3981 217.808 78.7462 241.305C97.3966 277.419 143.756 278.828 179.358 273.652L179.486 273.631C217.495 267.895 243.478 255.028 256.71 235.401C267.164 219.891 269.57 199.933 263.861 176.079C261.01 163.987 256.514 152.428 252.167 141.246C248.716 132.436 244.698 121.955 241.038 111.063C239.711 107.207 238.423 103.251 237.176 99.429C233.159 87.0673 229 74.2878 222.631 62.8024C212.534 43.7409 195.157 30.3884 173.669 25.1714C167.259 23.6144 160.742 22.846 154.271 22.846L154.284 22.8528Z" fill="var(--fill-0, #232323)"/>
</g>
<g id="Group_5">
<path id="Vector_14" d="M158.962 30.6485L139.712 33.4996C123.791 35.9396 113.472 27.184 110.567 18.4014C108.43 11.9375 110.318 5.45332 116.957 3.40427C129.271 -0.397238 136.996 9.11329 139.725 13.3327C140.467 14.4785 140.838 15.2335 140.838 15.2335C140.871 14.7684 140.932 14.3168 141.02 13.8854C143.217 2.08992 161.416 3.97046 162.952 16.5276C163.424 20.2954 162.386 25.0338 158.962 30.6485Z" fill="var(--fill-0, #F4D93B)"/>
<path id="Vector_15" d="M162.952 16.5276L160.775 21.5896C160.775 21.5896 154.5 3.88962 142.185 14.3775L141.019 13.8854C143.217 2.08997 161.415 3.97051 162.952 16.5276Z" fill="var(--fill-0, white)"/>
<path id="Vector_16" d="M139.725 13.3327L136.814 12.0992C136.814 12.0992 114.436 2.15058 112.023 18.9541L110.567 18.4014C108.43 11.9375 110.318 5.45332 116.957 3.40427C129.271 -0.397239 136.996 9.11329 139.725 13.3327Z" fill="var(--fill-0, white)"/>
<path id="Vector_17" d="M157.951 30.0278C159.582 25.067 161.773 19.6209 159.913 14.5657C156.893 6.71998 143.79 6.08639 143.001 15.7048C142.846 16.8843 141.754 17.7134 140.575 17.5583C139.773 17.4505 139.132 16.9113 138.849 16.2103C138.506 15.6037 138.034 14.8622 137.602 14.2623C134.569 9.94183 129.986 5.99203 124.722 5.26408C107.595 3.55205 110.129 20.6723 121.048 27.7294C126.596 31.3759 132.972 31.9084 139.571 32.5622C140.561 32.6296 140.764 34.072 139.847 34.4225C136.47 35.8043 132.689 36.2087 128.975 35.7503C125.234 35.265 121.601 33.8833 118.379 31.8949C102.155 21.9058 102.566 -2.40635 125.517 0.181912C133.39 1.53671 139.314 7.43444 142.813 14.2421L138.627 15.051C138.701 12.7593 139.362 10.2788 140.878 8.22306C147.16 -0.256205 161.47 3.22178 164.624 12.7997C166.929 19.2838 164.442 26.442 159.973 31.2478C159.09 32.1982 157.513 31.2074 157.951 30.0144V30.0278Z" fill="var(--fill-0, #232323)"/>
</g>
<path id="Vector_18" d="M236.28 270.488C204.931 285.843 161.914 275.328 161.914 275.328L191.288 272.814L218.735 265.231L230.261 260.351L236.287 270.488H236.28Z" fill="var(--fill-0, #232323)"/>
<g id="Group_6">
<path id="Vector_19" d="M76.0715 174.868C-3.30193 63.8762 81.4368 18.5479 124.426 123.892Z" fill="var(--fill-0, #F4D93B)"/>
<path id="Vector_20" d="M75.3097 175.414C56.1808 153.69 33.5672 109.029 43.2732 79.8842C46.4613 70.0299 54.5496 62.4741 65.179 61.9146C93.6634 60.8699 118.488 99.1479 125.269 123.541C125.531 124.572 124.123 125.179 123.583 124.228C120.22 118.297 117.173 112.352 113.797 106.475C104.502 90.3046 90.7044 71.5936 71.6362 67.3068C63.4131 65.5409 55.0754 68.5807 50.6942 75.9142C38.2517 96.9236 52.4264 131.312 63.3524 150.846C67.7201 158.698 72.4383 166.348 76.8397 174.322C77.0958 174.78 76.9273 175.353 76.4757 175.603C76.0848 175.818 75.6062 175.731 75.3164 175.407L75.3097 175.414Z" fill="var(--fill-0, #232323)"/>
</g>
<g id="Group_7">
<g id="Group_8">
<path id="Vector_21" d="M160.169 95.0361C171.897 83.6114 178.556 81.5354 194.51 87.4264C198.224 88.7812 197.934 92.2591 195.386 94.0386C189.293 98.3052 170.313 102.882 162.191 102.033C158.416 101.608 156.98 98.1569 160.175 95.0361H160.169Z" fill="var(--fill-0, #FF814A)"/>
<path id="Vector_22" d="M158.861 93.7015C163.06 89.7585 167.832 85.6874 173.434 83.7057C179.19 81.6634 185.654 82.7082 191.228 84.4067C192.401 84.7235 193.54 85.1414 194.686 85.5121C196.216 85.9839 197.699 86.8332 198.561 88.2958C199.95 90.5741 199.053 93.587 197.119 95.2181C195.71 96.3774 193.958 97.2671 192.313 98.0221C184.737 101.433 168.507 105.679 160.445 103.704C155.68 102.14 155.363 96.7953 158.861 93.7015ZM161.47 96.3707C159.724 98.1097 159.994 99.9228 162.642 100.017L163.91 100.064C171.081 99.8352 178.563 98.1164 185.499 96.0606C188.067 95.2451 190.642 94.3216 193.041 93.0949L194.106 92.4613C194.207 92.4074 194.275 92.3602 194.322 92.3131C194.854 91.9491 195.333 91.3357 195.346 90.6954C195.346 89.8326 194.221 89.2799 193.419 89.0171C192.34 88.6261 191.241 88.1813 190.15 87.851C177.08 83.3283 170.657 87.0287 161.47 96.3707Z" fill="var(--fill-0, #232323)"/>
</g>
<path id="Vector_23" d="M138.142 93.1704C137.164 86.2212 140.602 78.0183 148.818 79.1035C152.876 79.7236 156.462 82.5545 158.174 86.1336C158.929 87.731 156.812 89.1262 155.639 87.8389C153.22 85.1158 149.29 82.7904 145.792 83.7071C142.031 84.6911 140.878 89.5711 140.326 93.2311C140.13 94.505 138.256 94.4376 138.135 93.1704H138.142Z" fill="var(--fill-0, #232323)"/>
<path id="Vector_24" d="M204.487 73.6028C200.456 69.7676 195.643 66.9435 192.132 72.8749C191.249 74.3712 190.655 76.1372 190.244 78.0784C190.029 79.1838 188.404 79.2512 188.087 78.1862C186.038 72.0526 191.242 63.9777 198.205 65.5752C201.831 66.3436 204.608 69.2621 206.259 72.2278C206.9 73.3602 205.41 74.506 204.487 73.6028Z" fill="var(--fill-0, #232323)"/>
</g>
<path id="Vector_25" d="M90.0162 270.521C119.074 283.22 156.893 277.289 156.893 277.289L125.558 275.833L101.144 267.94L94.6805 263.626L90.0162 270.521Z" fill="var(--fill-0, #232323)"/>
<g id="Group_9">
<g id="Group_10">
<path id="Vector_26" d="M19.5155 65.1012L2.19858 187.696L94.9207 200.794L112.238 78.1985L19.5155 65.1012Z" fill="var(--fill-0, #D8D8D8)"/>
<path id="Vector_27" d="M5.92406 176.37L25.0597 72.1582L110.371 81.4194L110.668 77.9683L19.5192 65.0944L5.92406 176.37Z" fill="var(--fill-0, white)"/>
<path id="Vector_28" d="M96.2504 202.543C72.8077 199.739 48.8528 196.699 25.5045 193.356C17.6049 192.237 9.71205 191.058 1.85963 189.858C0.673344 189.676 -0.148969 188.571 0.0330182 187.378C1.5698 177.173 3.0931 166.968 4.56922 156.757C8.66057 128.562 13.7158 92.9194 17.3488 64.7788C17.5038 63.5723 18.6294 62.723 19.8359 62.9117C27.567 63.9632 35.3049 65.0079 43.0292 66.1133C65.4878 69.3891 90.2246 72.8199 112.474 76.6147C113.337 76.7428 113.944 77.5448 113.822 78.4076C108.214 119.719 102.33 161.259 96.2571 202.536L96.2504 202.543ZM93.6015 199.031C99.0678 158.583 104.736 118.391 110.668 77.9695L112.016 79.7624C89.6314 77.1876 64.8272 73.7501 42.3754 70.6158C34.6443 69.5374 26.9267 68.3983 19.2024 67.2659L21.6895 65.3989C17.3623 93.398 12.4014 129.135 8.49206 157.316C7.08334 167.534 5.72181 177.766 4.37375 187.991L2.5067 185.504C32.5076 189.352 63.6612 194.125 93.6015 199.018V199.031Z" fill="var(--fill-0, #232323)"/>
</g>
<path id="Vector_29" d="M41.2636 110.343L50.9224 111.704C53.5848 112.075 56.0517 110.221 56.4292 107.559L57.7907 97.9003C58.1615 95.2378 56.3079 92.7709 53.6455 92.3935L43.9867 91.0319C41.3243 90.6612 38.8573 92.5148 38.4799 95.1772L37.1183 104.836C36.7476 107.498 38.6012 109.965 41.2636 110.343ZM41.7017 95.6288C41.8298 94.7391 42.6521 94.119 43.5351 94.247L53.1939 95.6086C54.0836 95.7366 54.7037 96.5589 54.5756 97.4419L53.2141 107.101C53.086 107.99 52.2637 108.611 51.3807 108.482L41.7219 107.121C40.8322 106.993 40.2121 106.171 40.3402 105.288L41.7017 95.6288ZM44.0136 102.524L44.4652 99.3022C44.5933 98.4125 45.4156 97.7924 46.2986 97.9205L49.5204 98.3721C50.4101 98.5001 51.0302 99.3225 50.9022 100.205L50.4506 103.427C50.3225 104.317 49.5002 104.937 48.6172 104.809L45.3954 104.357C44.5057 104.229 43.8856 103.407 44.0136 102.524ZM49.5541 121.363L39.8953 120.002C37.2329 119.631 34.766 121.484 34.3885 124.147L33.027 133.806C32.6563 136.468 34.5098 138.935 37.1722 139.312L46.8311 140.674C49.4935 141.045 51.9604 139.191 52.3379 136.529L53.6994 126.87C54.0701 124.208 52.2165 121.741 49.5541 121.363ZM49.1227 136.07C48.9947 136.96 48.1724 137.58 47.2894 137.452L37.6306 136.091C36.7409 135.963 36.1208 135.14 36.2488 134.257L37.6104 124.598C37.7384 123.709 38.5607 123.089 39.4437 123.217L49.1025 124.578C49.9922 124.706 50.6123 125.529 50.4843 126.412L49.1227 136.07ZM46.8108 129.182L46.3592 132.404C46.2312 133.293 45.4089 133.914 44.5259 133.785L41.304 133.334C40.4143 133.206 39.7942 132.383 39.9223 131.501L40.3739 128.279C40.5019 127.389 41.3243 126.769 42.2072 126.897L45.4291 127.349C46.3188 127.477 46.9389 128.299 46.8108 129.182ZM82.6152 96.4848L72.9563 95.1233C70.2939 94.7526 67.827 96.6061 67.4495 99.2685L66.088 108.927C65.7173 111.59 67.5709 114.057 70.2333 114.434L79.8921 115.796C82.5545 116.166 85.0214 114.313 85.3989 111.65L86.7604 101.992C87.1311 99.3292 85.2776 96.8623 82.6152 96.4848ZM82.177 111.199C82.049 112.089 81.2267 112.709 80.3437 112.581L70.6849 111.219C69.7952 111.091 69.1751 110.269 69.3031 109.386L70.6647 99.7269C70.7927 98.8372 71.615 98.2171 72.498 98.3451L82.1568 99.7066C83.0465 99.8347 83.6666 100.657 83.5386 101.54L82.177 111.199ZM79.8719 104.304L79.4203 107.525C79.2922 108.415 78.4699 109.035 77.5869 108.907L74.3651 108.456C73.4754 108.327 72.8552 107.505 72.9833 106.622L73.4349 103.4C73.563 102.511 74.3853 101.89 75.2683 102.019L78.4901 102.47C79.3798 102.598 79.9999 103.421 79.8719 104.304ZM60.3318 103.185L61.4709 95.1367C61.599 94.247 62.4213 93.6269 63.3043 93.755C64.1873 93.8831 64.8141 94.7054 64.686 95.5883L63.7761 102.025C64.6658 102.153 65.2859 102.976 65.1579 103.859C65.0298 104.742 64.2075 105.368 63.3245 105.24L61.7136 105.011C60.8239 104.883 60.2038 104.061 60.3318 103.178V103.185ZM55.5193 113.996C55.6473 113.106 56.4696 112.486 57.3526 112.614C58.2356 112.742 58.8624 113.565 58.7344 114.448L58.2828 117.669C58.1547 118.559 57.3324 119.179 56.4494 119.051L48.4015 117.912C47.5118 117.784 46.8917 116.962 47.0198 116.079C47.1479 115.196 47.9702 114.569 48.8531 114.697L55.2901 115.607L55.5193 113.996ZM35.7568 114.488C35.8849 113.598 36.7072 112.978 37.5901 113.106L44.0271 114.016C44.9168 114.144 45.5369 114.967 45.4089 115.85C45.2808 116.733 44.4585 117.359 43.5755 117.231L37.1385 116.321C36.2488 116.193 35.6287 115.371 35.7568 114.488ZM84.2598 119.698C84.1317 120.588 83.3094 121.208 82.4264 121.08L64.7265 118.579L64.4973 120.19C64.3692 121.08 63.5469 121.7 62.664 121.572C61.781 121.444 61.1541 120.622 61.2822 119.739L61.7338 116.517C61.8619 115.627 62.6842 115.007 63.5671 115.135L82.878 117.865C83.7677 117.993 84.3879 118.815 84.2598 119.698ZM59.4623 110.255C59.3477 109.844 59.4084 109.399 59.6376 109.028C59.7454 108.84 59.8802 108.678 60.0487 108.543C60.224 108.422 60.4194 108.334 60.6284 108.28C60.9317 108.193 61.262 108.206 61.5586 108.314C61.6664 108.341 61.7608 108.388 61.8484 108.456C61.9427 108.503 62.0304 108.563 62.1045 108.638C62.1921 108.705 62.2663 108.786 62.3337 108.867C62.455 109.042 62.5494 109.237 62.5966 109.446C62.7111 109.858 62.6505 110.302 62.4213 110.673C62.3202 110.862 62.1787 111.024 62.0101 111.158C61.9225 111.219 61.8282 111.273 61.7271 111.313C61.6327 111.367 61.5383 111.401 61.4305 111.421C61.3294 111.455 61.2215 111.475 61.1137 111.475C61.0126 111.475 60.9047 111.475 60.8036 111.462C60.5947 111.428 60.3925 111.354 60.2105 111.246C60.0285 111.138 59.8667 110.997 59.7252 110.835C59.6039 110.66 59.5095 110.464 59.4623 110.255ZM81.7591 137.398L80.8492 143.835C80.7211 144.725 79.8988 145.345 79.0159 145.217L66.1419 143.397C65.2522 143.269 64.6321 142.447 64.7602 141.564C64.8882 140.681 65.7106 140.054 66.5935 140.182L77.8565 141.773L78.3081 138.551L62.2124 136.279C61.3226 136.151 60.7025 135.329 60.8306 134.446C60.9587 133.563 61.781 132.936 62.664 133.064L80.3639 135.565C81.2536 135.693 81.8737 136.515 81.7457 137.398H81.7591ZM64.9691 128.461L65.1983 126.85L60.3723 126.169L59.2332 134.217C59.1051 135.107 58.2828 135.727 57.3998 135.599C56.5168 135.471 55.89 134.648 56.018 133.765L57.3796 124.106C57.5076 123.217 58.33 122.597 59.2129 122.725L67.2608 123.864C68.1505 123.992 68.7706 124.814 68.6426 125.697L68.191 128.919C68.0629 129.809 67.2406 130.429 66.3576 130.301C65.4746 130.173 64.8478 129.35 64.9759 128.467L64.9691 128.461ZM83.3499 126.135L82.4399 132.572C82.3118 133.462 81.4895 134.082 80.6066 133.954L72.5587 132.815C71.669 132.687 71.0489 131.864 71.1769 130.982C71.305 130.099 72.1273 129.472 73.0103 129.6L79.4472 130.51L79.8988 127.288L76.677 126.836C75.7873 126.708 75.1672 125.886 75.2952 125.003C75.4233 124.12 76.2456 123.493 77.1286 123.621L81.9546 124.302C82.8443 124.43 83.4644 125.252 83.3364 126.135H83.3499ZM61.5383 141.112C61.4103 142.002 60.588 142.622 59.705 142.494L54.8789 141.813C53.9892 141.685 53.3691 140.863 53.4972 139.98C53.6253 139.097 54.4476 138.47 55.3305 138.598L60.1566 139.279C61.0463 139.407 61.6664 140.229 61.5383 141.112ZM70.9949 125.751C70.9208 125.677 70.8534 125.603 70.7792 125.522C70.5231 125.171 70.4153 124.74 70.4759 124.315C70.5096 124.106 70.5838 123.904 70.6916 123.722C70.7927 123.534 70.9343 123.372 71.1028 123.237C71.1904 123.176 71.278 123.122 71.3724 123.075C71.4735 123.028 71.5746 122.994 71.6824 122.974C71.7768 122.94 71.8846 122.92 71.9858 122.92C72.5317 122.9 73.0507 123.136 73.3877 123.56C73.509 123.736 73.6034 123.931 73.6506 124.14C73.7113 124.342 73.7247 124.558 73.691 124.774C73.6708 124.882 73.6439 124.989 73.6102 125.091C73.5765 125.192 73.536 125.279 73.4754 125.367C73.4282 125.461 73.3608 125.556 73.2866 125.636C73.2125 125.711 73.1383 125.778 73.0575 125.852C72.707 126.102 72.2756 126.209 71.8509 126.155C71.7431 126.135 71.6353 126.108 71.5342 126.075C71.433 126.041 71.3454 125.994 71.2578 125.94C71.1567 125.893 71.0691 125.825 70.9882 125.751H70.9949Z" fill="var(--fill-0, #232323)"/>
<path id="Vector_30" d="M78.6224 152.932L33.8063 146.602C32.2951 146.389 30.8969 147.441 30.6835 148.952L30.4893 150.327C30.2758 151.838 31.3278 153.236 32.8391 153.45L77.6551 159.78C79.1664 159.993 80.5645 158.941 80.778 157.43L80.9722 156.055C81.1857 154.544 80.1336 153.146 78.6224 152.932Z" fill="var(--fill-0, #232323)"/>
<path id="Vector_31" d="M50.7817 160.488L32.2146 157.866C30.7033 157.652 29.3052 158.704 29.0917 160.215L28.8975 161.59C28.684 163.102 29.7361 164.5 31.2473 164.713L49.8145 167.336C51.3257 167.549 52.7239 166.497 52.9373 164.986L53.1315 163.611C53.345 162.1 52.2929 160.702 50.7817 160.488Z" fill="var(--fill-0, #232323)"/>
</g>
<path id="Vector_32" d="M105.788 130.336C106.24 115.986 114.948 105.067 114.948 105.067L109.091 94.2822L105.795 130.336H105.788Z" fill="var(--fill-0, #232323)"/>
</g>
<defs>
<clipPath id="clip0_0_111">
<rect width="304.458" height="293.566" fill="white"/>
</clipPath>
</defs>
</svg>
