<svg width="53" height="18" viewBox="0 0 53 18" fill="none" xmlns="http://www.w3.org/2000/svg">
<path d="M47.7422 4.68917C50.2884 4.68917 52.4566 6.50434 52.4566 9.90777V17.6474H48.675V10.4624C48.675 8.89934 47.6918 8.16824 46.4816 8.16824C45.0951 8.16824 44.1371 8.97497 44.1371 10.7649V17.6474H40.3555V0H44.1371V6.22702C44.8177 5.29423 46.0783 4.68917 47.7422 4.68917Z" fill="white"/>
<path d="M38.9733 8.67213H36.3766V13.1344C36.3766 14.2185 37.3094 14.3193 38.9733 14.2185V17.6471C34.032 18.1513 32.595 16.6639 32.595 13.1344V8.67213H30.5781V5.0418H32.595V1.71191L36.3766 1.71261V5.0418H38.9733V8.67213Z" fill="white"/>
<path d="M25.7883 5.04199H29.5698V17.6473H25.7883V16.4624C25.1076 17.3952 23.847 18.0002 22.1831 18.0002C19.6369 18.0002 17.4688 16.1851 17.4688 12.7816V5.04199H21.2503V12.227C21.2503 13.7901 22.2336 14.5212 23.4437 14.5212C24.8302 14.5212 25.7883 13.7144 25.7883 11.9245V5.04199Z" fill="white"/>
<path d="M12.7314 17.6474L11.849 14.8743H5.29423L4.41186 17.6474H0L6.00012 0H11.1431L17.1432 17.6474H12.7314ZM6.50434 11.0927H10.6389L8.5716 4.61354L6.50434 11.0927Z" fill="white"/>
</svg>
