<svg width="21" height="20" viewBox="0 0 21 20" fill="none" xmlns="http://www.w3.org/2000/svg">
<path d="M13.1853 2.04353L13.136 2.09515L13.0839 2.04407L13.0832 2.04468L13.0304 2.09748L13.0315 2.09854L12.6447 2.50148L12.6447 2.50146L12.6434 2.50294C12.0008 3.21009 11.6935 4.10106 11.6192 4.99092L9.19285 7.41726C7.67919 7.15935 6.05514 7.58939 4.88864 8.75589L4.45056 9.19397L4.39766 9.24686L4.45182 9.29846L4.88926 9.71525L7.46115 12.2871L2.45434 17.2735L2.43285 17.2949V17.3252V18.1813V18.2543H2.50586H3.36134H3.39166L3.41307 18.2328L8.40061 13.2266L10.9148 15.742L11.3329 16.1783L11.3845 16.2322L11.4373 16.1793L11.8741 15.7413C11.8741 15.7413 11.8741 15.7413 11.8741 15.7413C13.1585 14.4581 13.5293 12.6983 13.1582 11.1126L15.2723 8.99787C16.337 9.11579 17.4254 8.80396 18.2056 8.02374L18.2068 8.02256L18.6254 7.58447L18.6735 7.53407L18.6254 7.48363L18.2074 7.04554L18.2074 7.04553L18.2062 7.04432L13.6428 2.48094L13.6429 2.48093L13.6417 2.47979L13.1853 2.04353ZM14.808 7.57742L14.7671 7.56614L14.737 7.59618L14.49 7.84321L14.49 7.84322L11.943 10.3908L11.9429 10.3909L11.6764 10.6586L11.6452 10.69L11.6585 10.7322L11.7729 11.093L11.7729 11.093L11.7733 11.094C12.1145 12.1184 11.9688 13.2717 11.3189 14.2281L6.46071 9.36983C7.31768 8.8049 8.33015 8.55496 9.2742 8.80243L9.59571 8.89646L9.63712 8.90857L9.66771 8.87813L9.91596 8.6311L9.91609 8.63097L12.7302 5.81628L12.9005 5.64592L12.9219 5.62453V5.59429V5.34604C12.9219 4.90629 13.0723 4.48499 13.2858 4.07977L16.608 7.40252C16.1382 7.65378 15.6461 7.7957 15.1498 7.6715L14.808 7.57742Z" fill="black" stroke="black" stroke-width="0.146028"/>
</svg>
