<svg preserveAspectRatio="none" width="100%" height="100%" overflow="visible" style="display: block;" viewBox="0 0 391.313 261.08" fill="none" xmlns="http://www.w3.org/2000/svg">
<path id="Vector 603" d="M100.825 16.7423C89.3842 12.8992 65.9279 8.0388 53.7133 9.41943C53.4861 9.43762 53.2608 9.45711 53.0374 9.47791C50.2404 9.74205 47.4969 10.2119 44.8567 11.1654C41.6934 12.3923 38.5974 14.0579 38.171 18.187C37.6557 22.7229 40.7641 30.3149 47.4568 39.4135C47.5127 39.4902 47.569 39.5668 47.6257 39.6434C51.3295 44.521 56.1801 48.3756 61.7919 51.2921C128.887 74.7961 204.788 43.3967 275.461 28.1796C276.366 27.9537 277.281 27.7263 278.2 27.4989C296.195 23.1062 318.272 17.7759 333.689 17.8481C333.819 17.8493 333.949 17.8505 334.076 17.8519C343.512 18.0333 351.16 18.2434 358.52 20.2837C358.747 20.354 358.956 20.4218 359.183 20.4998C359.447 20.5903 359.703 20.6838 359.951 20.7811C360.466 20.9859 360.846 21.1511 361.41 21.4463C361.981 21.7521 362.463 22.0522 363.014 22.5077C363.66 23.0676 364.171 23.5697 364.697 24.6382C365.189 25.66 365.309 26.9224 365.079 27.9573C364.817 29.0863 364.479 29.6188 364.049 30.2641C363.294 31.3245 362.457 32.0198 361.773 32.5508C358.843 34.7 356.289 35.7224 353.79 36.7781C335.928 43.7273 317.663 46.9958 299.245 49.7488C279.586 52.7924 258.861 54.7062 241.335 62.1385C239.263 63.162 237.352 64.4088 236.414 65.7205C235.56 67.0072 235.635 67.7717 236.747 69.4667C239.087 72.6278 243.572 75.3031 247.747 77.5427C256.594 82.1555 265.745 85.5783 275.245 88.9203C280.778 90.8468 286.387 92.6727 292.318 94.5122C304.217 98.2032 315.979 102.305 327.527 106.942C343.362 113.369 358.887 120.51 373.196 130.171C377.447 133.057 381.345 136.016 384.817 139.509C387.973 143.01 392.411 147.159 391.066 154.009C389.618 158.743 385.371 160.444 382.608 161.435C379.515 162.46 376.623 162.885 373.747 163.175C368.265 163.697 362.902 163.539 358.512 163.279C345.551 162.467 331.87 160.054 319.226 157.372C310.347 155.48 301.941 153.501 294.603 151.697C291.7 150.983 288.976 150.3 286.442 149.657C272.346 146.219 258.323 142.523 244.335 138.771C243.409 138.486 242.478 138.197 241.533 137.903C229.712 134.259 215.129 130.113 192.015 124.157C181.944 121.596 170.265 118.702 156.432 115.849C147.508 114.029 142.931 113.116 139.187 112.367C138.085 112.15 137.082 111.956 136.015 111.764C132.37 111.112 128.61 110.713 124.042 110.347C118.212 109.902 111.115 109.456 101.858 109.198C72.2132 108.703 59.8698 115.296 51.4451 119.588C49.2243 120.809 47.25 122.022 45.2919 123.309C45.0373 123.476 44.7865 123.642 44.5391 123.807C37.343 128.249 27.953 137.376 33.6373 144.745C36.6536 150.711 49.4999 159.144 59.3421 164.601C63.0771 166.726 68.1391 169.611 74.1275 173.051C80.3224 176.624 87.5008 180.782 95.014 185.609C114.019 197.841 122.63 207.319 127.982 215.861C129.518 218.358 130.733 220.748 131.768 223.302C133.551 227.692 134.837 233.008 134.86 238.801C134.814 243.744 134.415 248.663 131.161 253.69C126.652 260.616 117.771 261.603 111.839 260.88C105.623 260.217 100.083 258.351 95.6989 256.73C72.6656 247.254 52.8058 233.099 33.4928 218.614C23.5395 211.027 14.6719 203.307 8.34432 196.943C2.30934 190.754 -1.07133 186.55 0.305568 185.298C0.412165 185.753 4.47953 188.326 11.2833 193.596C18.3084 198.952 27.5271 206.005 37.4317 213.391C57.2588 227.935 77.9667 242.318 100.57 250.792C107.187 253.086 114.444 254.878 120.162 253.283C125.742 251.915 127.874 245.663 127.767 238.801C127.897 224.439 118.126 211.921 106.704 202.363C90.9062 189.127 71.925 179.577 53.6283 168.587C51.8082 167.489 49.807 166.253 47.9974 165.092C40.4231 160.165 32.3969 155.403 27.3489 146.65C24.8327 142.306 24.7541 136.108 26.9396 131.982C29.0563 127.68 31.9001 125.033 34.3823 122.85C37.1506 120.513 39.1012 119.2 41.6776 117.566C47.2804 114.074 52.2131 111.901 56.6721 110.233C61.0249 108.622 64.9412 107.506 68.9401 106.515C71.0615 105.991 74.0642 105.32 77.6026 104.73C92.2411 101.937 117.362 102.423 139.482 106.37C149.333 108.004 160.634 110.444 171.303 113.055C186.597 116.789 200.665 120.77 207.801 122.593C220.353 125.813 234.636 129.872 247.253 133.397C259.282 136.765 269.838 139.629 275.876 141.039C283.107 142.729 289.216 144.343 298.337 146.614C304.122 148.046 311.118 149.746 320.404 151.728C321.31 151.921 322.227 152.113 323.154 152.304C335.34 154.802 344.123 156.219 351.585 157.125C361.934 158.155 370.291 159.368 380.993 156.397C383.776 155.475 386.084 153.741 386.048 151.9C386.186 149.882 384.519 147.159 382.58 144.925C378.627 140.41 373.64 136.798 369.24 133.767C365.108 130.953 360.455 128.19 355.192 125.37C348.399 121.73 341.03 118.269 334.126 115.207C328.571 112.743 323.874 110.703 319.668 108.94C318.315 108.375 317.138 107.887 315.922 107.396C311.298 105.681 306.705 104.068 301.985 102.493C301.21 102.261 300.39 102.019 299.572 101.781C297.078 101.055 294.199 100.236 290.844 99.2901C288.533 98.6365 286.11 97.9287 283.602 97.1591C273.367 93.9972 264.58 90.8408 255.441 86.887C248.378 83.5665 240.944 80.935 233.553 73.6728C232.36 72.2869 231.156 70.6878 230.76 68.244C230.336 65.8451 231.536 63.2217 232.949 61.7293C235.892 58.5971 239.373 57.1197 242.748 55.7011C252.882 51.7725 263.146 49.8975 270.203 48.5994C272.865 48.1341 275.159 47.8401 277.444 47.5582C277.454 47.5571 277.464 47.556 277.474 47.555C277.63 47.5358 277.786 47.5165 277.941 47.4974C284.776 46.3292 291.612 45.2795 298.44 44.2466C308.81 42.6725 319.04 40.7112 329.185 38.1875C330.586 37.819 332.123 37.4036 333.522 37.0084C340.579 35.0358 347.24 32.7198 351.303 30.7928C352.335 30.3031 353.904 29.5763 355.545 28.6154C356.358 28.136 357.208 27.5815 357.852 27.0127C358.156 26.7495 358.417 26.4397 358.448 26.361C358.464 26.3345 358.415 26.3644 358.361 26.6057C358.306 26.8311 358.329 27.2319 358.443 27.5015C358.561 27.7878 358.651 27.8527 358.644 27.8565C358.628 27.8459 358.544 27.7821 358.39 27.696C358.011 27.4887 357.634 27.3346 356.984 27.1232C356.474 26.9609 355.809 26.7867 355.116 26.6384C354.496 26.506 353.792 26.3766 352.999 26.2542C350.148 25.819 346.91 25.5799 343.619 25.444C340.394 25.3136 337.108 25.2818 333.689 25.311C328.801 25.3598 323.392 26.0556 319.135 26.7417C314.798 27.4419 310.975 28.0315 306.725 28.7614C302.986 29.4003 298.852 30.1812 294.639 31.1603C292.478 31.6618 290.09 32.259 287.681 32.8766C285.534 33.4262 283.167 34.0398 280.753 34.6567C278.61 35.2041 273.406 36.4299 267.092 37.9567C263.081 38.9266 258.61 40.0182 253.841 41.1972C241.359 44.462 228.839 47.7378 216.267 50.848C213.669 51.5718 211.415 52.2324 209.641 52.8089C208.367 53.2227 207.292 53.6094 206.189 54.0038C204.688 54.5407 203.132 55.0945 200.959 55.7452C199.26 56.2539 197.236 56.7591 195.855 57.0182C195.213 57.139 194.714 57.2066 194.261 57.2679C193.742 57.3382 193.279 57.4006 192.724 57.5239C192.324 57.6129 191.914 57.7348 191.41 57.8836C190.604 58.121 189.556 58.429 187.937 58.7788C181.895 60.0849 175.04 61.4536 168.233 62.6847C160.725 64.0473 153.337 65.2177 147.362 66.084C140.778 67.0479 131.221 68.1091 121.609 68.6067C114.873 68.9662 108.14 69.0432 102.331 68.8756C96.6369 68.7169 90.731 68.3825 84.8974 67.6269C78.0225 66.7537 71.249 65.203 65.8446 63.1319C64.7761 62.7253 63.3637 62.0579 61.7358 61.1814C60.5707 60.5546 59.2814 59.8181 57.8175 58.9248C51.1807 55.4835 45.1428 50.6946 40.5819 44.5475C40.5467 44.5002 40.5116 44.453 40.4765 44.4058C40.3002 44.1973 40.1204 43.983 39.942 43.7695C39.9391 43.7662 39.9362 43.7629 39.9332 43.7596C36.486 38.9806 29.6747 33.2942 28.6567 19.21C28.7325 15.549 29.7667 13.0959 30.8962 11.2307C32.0571 9.38206 33.3358 7.95169 35.4128 6.30887C37.7142 4.49832 40.8071 2.96739 43.9482 1.98139C48.485 0.542377 53.5584 -0.0812159 58.5484 0.00842428C58.8809 0.0147338 59.2398 0.0237565 59.6151 0.0353589C63.2489 0.132268 68.4347 0.594842 73.5485 1.5682C88.7271 3.80287 103.462 7.74909 117.42 14.7448C121.219 16.815 125.044 18.8385 128.357 22.8592C141.201 35.2336 164.716 37.8286 184.262 37.3715C196.015 36.8781 207.129 34.4787 214.063 30.3306C221.055 26.2606 222.833 21.4353 223.683 21.7878C224.369 21.8117 224.033 27.9899 216.561 33.9435C209.205 39.8524 197.055 43.2 184.607 43.9048C164.381 44.4388 143.552 43.3647 125.178 30.2207C124.29 29.457 123.319 28.4873 122.529 27.5002C122.51 27.4761 122.491 27.452 122.471 27.4278C118.781 23.3913 111.569 20.4578 105.345 18.2292C103.833 17.6988 102.35 17.2142 100.825 16.7423Z" fill="#43E45B" fill-opacity="0.18"/>
</svg>
