<svg preserveAspectRatio="none" width="100%" height="100%" overflow="visible" style="display: block;" viewBox="0 0 9 11" fill="none" xmlns="http://www.w3.org/2000/svg">
<path id="Vector" d="M1.7595 2.67964C1.7595 1.96888 2.04832 1.28722 2.56215 0.784807C3.0765 0.282411 3.77315 0 4.50006 0C5.22696 0 5.92358 0.282397 6.43796 0.784807C6.95178 1.2872 7.24061 1.96889 7.24061 2.67964C7.24061 3.38988 6.95179 4.07152 6.43796 4.57393C5.92361 5.07686 5.22696 5.35874 4.50006 5.35874C3.77315 5.35874 3.07653 5.07687 2.56215 4.57393C2.04833 4.07154 1.7595 3.38985 1.7595 2.67964ZM4.89815 5.64116H4.10199C3.01431 5.64222 1.97204 6.0653 1.20288 6.81731C0.434312 7.56933 0.00162 8.58841 0 9.65198C0.000540831 10.0745 0.295851 10.4421 0.715569 10.5431C1.95307 10.8472 3.22408 11.0005 4.5 11C5.7759 11.0005 7.047 10.8472 8.28443 10.5431C8.70414 10.4421 8.99946 10.0745 9 9.65198C8.99838 8.58847 8.56569 7.56937 7.79712 6.81731C7.028 6.0653 5.9859 5.64222 4.89815 5.64116Z" fill="#FFFFFF"/>
</svg>
