<svg preserveAspectRatio="none" width="100%" height="100%" overflow="visible" style="display: block;" viewBox="0 0 52 16" fill="none" xmlns="http://www.w3.org/2000/svg">
<g id="ente">
<path d="M13.6522 10.6225H4.54194C4.98205 11.6998 5.9679 12.2384 7.49949 12.2384C8.43252 12.2384 9.23352 11.9294 9.90249 11.3113L13.0713 13.5364C11.7862 15.1788 9.89369 16 7.39386 16C5.1581 16 3.36245 15.3466 2.0069 14.0397C0.668968 12.7152 0 11.0464 0 9.03313C0 7.03755 0.660166 5.36869 1.9805 4.02653C3.30083 2.68437 4.98205 2.01329 7.02417 2.01329C8.99586 2.01329 10.6243 2.67554 11.9094 4.00004C13.1945 5.30688 13.8371 6.96692 13.8371 8.98015C13.8371 9.59825 13.7755 10.1457 13.6522 10.6225ZM4.48913 7.57618H9.5592C9.22472 6.33998 8.39731 5.72189 7.07698 5.72189C5.72144 5.72189 4.85882 6.33998 4.48913 7.57618Z" fill="#08C225"/>
<path d="M22.8458 2.01329C24.307 2.01329 25.4777 2.5166 26.3579 3.52322C27.2557 4.51218 27.7046 5.90732 27.7046 7.70863V15.6291H23.3211V8.26492C23.3211 7.59384 23.1451 7.0817 22.793 6.7285C22.4409 6.35764 21.9568 6.17222 21.3406 6.17222C20.6541 6.17222 20.1171 6.38414 19.7298 6.80798C19.3601 7.21416 19.1753 7.80576 19.1753 8.5828V15.6291H14.7918V2.38415H19.1753V3.70865C19.9675 2.57841 21.191 2.01329 22.8458 2.01329Z" fill="#08C225"/>
<path d="M37.1707 2.38415V6.59605H34.8169V10.4371C34.8169 11.0022 35.0105 11.3643 35.3978 11.5232C35.8027 11.6645 36.5245 11.7086 37.5632 11.6556V15.6291C34.9577 15.947 33.1092 15.7086 32.0178 14.9139C30.9615 14.0839 30.4334 12.6269 30.4334 10.5431V6.59605H28.4529V2.38415H30.4334V4.91285e-05L34.8169 0V2.38415H37.1707Z" fill="#08C225"/>
<path d="M51.8152 10.6225H42.7049C43.145 11.6998 44.1308 12.2384 45.6624 12.2384C46.5954 12.2384 47.3964 11.9294 48.0654 11.3113L51.2342 13.5364C49.9491 15.1788 48.0566 16 45.5568 16C43.321 16 41.5254 15.3466 40.1698 14.0397C38.8319 12.7152 38.1629 11.0464 38.1629 9.03313C38.1629 7.03755 38.8231 5.36869 40.1434 4.02653C41.4638 2.68437 43.145 2.01329 45.1871 2.01329C47.1588 2.01329 48.7872 2.67554 50.0723 4.00004C51.3574 5.30688 52 6.96692 52 8.98015C52 9.59825 51.9384 10.1457 51.8152 10.6225ZM42.6521 7.57618H47.7221C47.3876 6.33998 46.5602 5.72189 45.2399 5.72189C43.8844 5.72189 43.0217 6.33998 42.6521 7.57618Z" fill="#08C225"/>
</g>
</svg>
