<svg preserveAspectRatio="none" width="100%" height="100%" overflow="visible" style="display: block;" viewBox="0 0 30.5575 31.547" fill="none" xmlns="http://www.w3.org/2000/svg">
<g id="Outer Logo">
<rect id="Heart Icon" x="8.37332" y="8.38851" width="13.7786" height="16.7401" fill="#1C1C1C"/>
<path id="Vector" d="M15.61 0.289638C17.1535 0.289638 18.6676 0.510718 20.109 0.947841H20.108C21.3974 1.31956 22.6337 1.89417 23.7828 2.6539C24.8955 3.38961 25.9086 4.28634 26.7935 5.31991C27.6702 6.3438 28.4033 7.48072 28.9723 8.69784C29.5512 9.93609 29.9489 11.2332 30.1529 12.5533L30.2008 12.8853C30.2969 13.6576 30.2899 14.4173 30.1793 15.1471C30.0508 15.9953 29.7847 16.7868 29.3863 17.4976C28.9744 18.2324 28.4316 18.8628 27.774 19.3687C27.2199 19.7951 26.5943 20.1224 25.9117 20.3502C26.6794 20.9606 27.2229 21.7946 27.4879 22.7623C27.7488 23.617 27.8126 24.4472 27.6666 25.2252C27.53 25.9525 27.2113 26.6317 26.7252 27.2428C25.8585 28.3321 24.5872 29.0585 23.4986 29.6109L23.4967 29.6119L23.4879 29.6168L23.484 29.6187L23.4752 29.6226C21.4563 30.5992 19.1633 31.152 16.8053 31.2418L16.8209 31.2574H16.1246L16.1236 31.2564C12.6342 31.2563 9.2876 30.2338 6.69882 28.3648L6.40292 28.1568C4.94134 27.0973 3.70046 25.7527 2.70956 24.1578C1.705 22.5408 1.0008 20.7394 0.61581 18.8053C0.235123 16.8917 0.18785 14.9538 0.475185 13.0475C0.772576 11.0739 1.41509 9.23695 2.38632 7.58944C3.68681 5.32325 5.64971 3.44786 8.06015 2.16269C10.3585 0.937266 12.9689 0.289684 15.61 0.289638ZM18.3004 20.8082H15.7369C14.777 20.8082 13.6939 20.8093 12.5943 20.8111C12.8833 20.9512 13.211 21.0659 13.5641 21.1568C14.2672 21.3379 15.0476 21.4176 15.775 21.4176C16.7406 21.4176 17.6984 21.285 18.4 21.0621H18.401L18.4273 21.0533C18.7844 20.9407 18.9852 20.8749 19.1607 20.8072C18.8645 20.8073 18.5766 20.8082 18.3004 20.8082ZM15.5328 10.0601C14.0524 10.0602 12.7838 10.5949 12.023 11.4547L12.3463 11.4557C13.64 11.4578 15.1064 11.4605 16.5094 11.4605C17.5003 11.4605 18.3516 11.4581 19.0836 11.4557C18.2925 10.5377 17.0569 10.1304 16.0123 10.0719L15.7769 10.065H15.7516V10.0641H15.7359V10.0631C15.6687 10.0607 15.6001 10.0601 15.5328 10.0601Z" fill="#1C1C1C" stroke="#1C1C1C" stroke-width="0.579677"/>
<path id="Vector_2" d="M11.3556 19.432C14.9589 19.4217 18.6831 19.4323 22.2703 19.4236C23.2203 19.4197 24.1889 19.4163 25.1073 19.1513C27.9071 18.4282 29.2795 15.7908 28.7896 12.7701C28.0452 7.93838 24.4394 3.62881 19.716 2.27184C13.7782 0.467521 6.72309 2.79695 3.57956 8.28471C-0.0231441 14.3895 1.58836 23.1988 7.49073 27.2331C11.8003 30.3555 18.1243 30.6773 22.8743 28.3798C25.032 27.2847 27.0106 25.8931 26.1634 23.1493C25.6812 21.3426 23.8737 20.3487 22.1673 20.9324C21.6018 21.1013 21.0848 21.393 20.5686 21.6646C19.7974 22.0713 19.6589 22.1134 18.8194 22.3782C16.3924 23.1497 11.4831 23.0559 10.226 20.3867C10.0507 19.6203 10.7429 19.4314 11.3533 19.432H11.3558H11.3556ZM10.5844 12.7533C10.3166 12.6543 10.1383 12.3959 10.1518 12.1105C10.1589 11.8633 10.2697 11.6231 10.3849 11.4056C11.3823 9.53196 13.5903 8.60704 15.786 8.68373C17.8392 8.69651 19.9906 9.72118 20.8629 11.715C20.9294 11.8832 20.9712 12.0581 20.9491 12.2281C20.8869 12.6753 20.4782 12.8329 20.0771 12.8329C17.5317 12.8482 13.7062 12.8382 11.0615 12.8345C10.9084 12.8296 10.7388 12.814 10.5872 12.7545L10.5844 12.7534V12.7533Z" fill="white"/>
</g>
</svg>
