<svg preserveAspectRatio="none" width="100%" height="100%" overflow="visible" style="display: block;" viewBox="0 0 75.6692 22.4932" fill="none" xmlns="http://www.w3.org/2000/svg">
<g id="Group 1597881792">
<g id="ente">
<path d="M19.2528 14.9332H6.40517C7.02583 16.4476 8.4161 17.2048 10.576 17.2048C11.8918 17.2048 13.0214 16.7703 13.9648 15.9014L18.4335 19.0295C16.6212 21.3383 13.9524 22.4928 10.427 22.4928C7.27409 22.4928 4.74181 21.5742 2.83019 19.737C0.943398 17.8751 0 15.529 0 12.6988C0 9.89344 0.930984 7.54736 2.79295 5.66057C4.65492 3.77377 7.02583 2.83037 9.90568 2.83037C12.6862 2.83037 14.9826 3.76136 16.795 5.62333C18.6073 7.46047 19.5134 9.79414 19.5134 12.6243C19.5134 13.4932 19.4265 14.2629 19.2528 14.9332ZM6.33069 10.6506H13.4807C13.009 8.9128 11.8421 8.04388 9.98015 8.04388C8.06853 8.04388 6.85205 8.9128 6.33069 10.6506Z" fill="#212121"/>
<path d="M32.7943 2.83037C34.8549 2.83037 36.5058 3.53792 37.7471 4.95302C39.0133 6.34329 39.6464 8.30456 39.6464 10.8368V21.9714H33.4646V11.6189C33.4646 10.6755 33.2163 9.95551 32.7198 9.45898C32.2233 8.93763 31.5406 8.67695 30.6717 8.67695C29.7034 8.67695 28.9462 8.97487 28.4001 9.5707C27.8787 10.1417 27.618 10.9734 27.618 12.0657V21.9714H21.4363V3.35173H27.618V5.21369C28.7352 3.62481 30.4606 2.83037 32.7943 2.83037Z" fill="#212121"/>
<path d="M54.3392 3.35173V9.27278H50.4663V14.6725C50.4663 15.4669 50.7394 15.9759 51.2856 16.1993C51.8566 16.3979 52.8745 16.46 54.3392 16.3855V21.9714C50.6649 22.4183 48.0582 22.0831 46.5189 20.9659C45.0294 19.7991 44.2846 17.7509 44.2846 14.8215V9.27278H41.4916V3.35173H44.2846V0.00018053L50.4663 0.000111465V3.35173H54.3392Z" fill="#212121"/>
<path d="M75.4085 14.9336H62.5609C63.1816 16.448 64.5719 17.2052 66.7317 17.2052C68.0475 17.2052 69.1771 16.7708 70.1205 15.9019L74.5892 19.03C72.7769 21.3388 70.1081 22.4932 66.5828 22.4932C63.4298 22.4932 60.8976 21.5747 58.9859 19.7375C57.0991 17.8755 56.1557 15.5295 56.1557 12.6993C56.1557 9.89391 57.0867 7.54783 58.9487 5.66103C60.8107 3.77424 63.1816 2.83084 66.0614 2.83084C68.842 2.83084 71.1384 3.76183 72.9507 5.6238C74.763 7.46094 75.6692 9.7946 75.6692 12.6248C75.6692 13.4937 75.5823 14.2633 75.4085 14.9336ZM62.4864 10.6511H69.6364C69.1647 8.91327 67.9979 8.04435 66.1359 8.04435C64.2243 8.04435 63.0078 8.91327 62.4864 10.6511Z" fill="#212121"/>
</g>
</g>
</svg>
