<svg preserveAspectRatio="none" width="100%" height="100%" overflow="visible" style="display: block;" viewBox="0 0 160.786 145.471" fill="none" xmlns="http://www.w3.org/2000/svg">
<path id="Vector 604" d="M129.175 16.997C126.035 19.3227 119.556 21.6049 116.065 22.6377C116.002 22.6568 115.94 22.676 115.877 22.6952C115.066 22.941 114.286 23.1861 113.346 23.4725C111.184 24.1211 108.189 25.0352 101.946 26.3581C100.153 26.8172 98.3467 27.2549 96.5402 27.6696C87.3954 29.7645 78.1756 31.373 68.8846 32.6197C58.547 34.0056 48.2204 35.353 38.0322 37.0914C37.7895 37.14 37.5434 37.1896 37.2955 37.2399C32.5022 38.1989 26.6719 39.5603 23.0292 40.4205C18.3914 41.4952 15.3111 42.4217 12.9791 43.2591C-6.55073 48.7104 18.0653 59.9827 30.1235 65.0501C34.4764 66.848 38.9955 68.5421 43.7697 70.2081C47.7587 71.6015 52.3787 73.1167 56.46 74.3893C58.2681 74.9009 60.0676 75.3917 61.8254 75.8622C62.4915 76.0401 63.1422 76.2147 63.7766 76.3861C66.9818 77.2524 69.7485 78.0305 72.0297 78.748C77.6526 80.5127 83.7876 82.8453 88.305 84.6586C89.0429 84.9538 89.7038 85.2214 90.3813 85.4947C94.142 86.8722 97.5878 88.1794 101.324 89.6685C101.553 89.7986 101.783 89.9308 102.016 90.0654C104.863 91.7277 108.709 93.3469 114.478 96.0324C117.102 97.2604 119.861 98.5838 123.363 100.416C125.566 101.574 126.482 102.263 127.4 102.915C127.656 103.099 127.894 103.272 128.138 103.44C128.972 104.016 129.944 104.423 131.067 104.905C132.466 105.497 134.374 106.354 136.409 107.823C143.033 112.631 145.982 114.48 148.404 115.981C149.105 116.425 149.721 116.827 150.308 117.266C152.273 118.724 154.803 121.326 156.336 123.557C157.574 125.42 160.626 128.795 160.779 133.439C160.874 135.071 160.007 137.742 158.184 139.439C156.229 141.333 153.915 142.355 151.301 143.233C144.899 145.134 141.739 145.045 139.109 145.298C138.347 145.346 137.602 145.381 136.869 145.409C134.876 145.501 131.85 145.487 129.265 145.396C126.062 145.29 122.622 145.046 120.194 144.879C113.572 144.057 107.336 142.972 100.953 141.711C97.4803 141.025 94.7568 140.119 92.4845 139.044C90.2789 137.98 89.0876 136.915 89.2588 136.11C89.4245 135.303 90.9383 134.812 93.3596 134.676C95.8478 134.553 98.6658 134.724 102.1 135.27C108.637 136.297 114.942 137.127 121.623 137.727C129.506 138.398 137.529 138.801 144.936 137.849C150.026 137.311 155.19 134.99 154.421 132.877C154.401 132.604 154.344 132.279 154.233 131.901C153.076 128.891 149.55 125.612 147.315 123.673C145.369 121.989 143.895 120.708 142.658 119.651C141.822 118.939 141.036 118.298 140.17 117.697C139.697 117.369 139.064 116.943 138.334 116.467C135.232 114.416 129.767 111.187 124.717 108.25C122.465 106.93 119.939 105.425 117.362 103.965C113.882 101.973 110.315 100.088 108.592 99.3846C105.423 98.0783 101.87 96.4326 98.6938 95.0215C95.5754 93.637 93.033 92.5548 91.4184 92.0714C89.5295 91.5108 87.904 90.8156 85.665 89.8737C84.0834 89.2109 82.1248 88.3987 79.3578 87.3789C76.2664 86.2401 74.0769 85.3727 72.1818 84.6307C69.467 83.5741 67.5879 82.8485 64.4847 82.0586C63.0872 81.7043 61.6556 81.3326 60.254 80.9548C58.1385 80.3815 56.1829 79.799 54.5575 79.2391C53.2966 78.8052 51.9287 78.3722 50.426 77.8883C48.3305 77.2132 46.2104 76.5142 44.3728 75.8047C42.8818 75.2282 41.634 74.6232 40.479 74.0643C40.1257 73.8924 39.7895 73.7281 39.4652 73.5729C38.1996 73.1227 36.9692 72.6782 35.773 72.2401C35.5707 72.1926 35.3583 72.1441 35.1379 72.0933C34.0012 71.827 32.4484 71.4342 30.7586 70.87C28.1681 70.0101 25.6939 68.8989 23.3749 67.7861C21.7065 66.9814 19.4373 65.8692 17.3692 64.8805C15.8759 64.1697 13.9693 63.2529 12.405 62.4367C11.0436 61.7206 9.77752 60.9996 8.72896 60.3384C7.53444 59.5831 6.50037 58.8287 5.77755 58.2093C5.20345 57.7215 4.67443 57.1297 4.2702 56.6108C4.26846 56.6083 4.26674 56.6059 4.26501 56.6034C4.23666 56.5674 4.20829 56.5314 4.18035 56.4954C2.38066 54.752 0.234355 52.5828 0.00243258 48.9268C-0.0907941 45.1444 2.51467 42.6233 4.51301 41.0905C4.87727 40.7903 5.29605 40.4772 5.62856 40.2361C7.43365 38.9442 9.21614 38.0058 10.4407 37.2954C11.6154 36.574 15.0153 35.1642 18.5106 34.0363C20.8694 33.2636 23.1918 32.5868 25.1697 32.0038C26.285 31.673 27.4035 31.5198 28.5718 31.3679C29.6478 31.2295 30.7098 31.1043 31.8923 30.8314C32.477 30.6963 33.1351 30.5175 33.7884 30.3392C34.3691 30.181 34.9877 30.0147 35.6442 29.8601C36.2443 29.7183 37.6723 29.4995 39.4073 29.2537C40.4918 29.0993 41.745 28.9249 43.0511 28.7383C46.4363 28.0808 49.8583 27.4578 53.2725 26.8625C53.9689 26.6611 54.5689 26.4485 55.0355 26.2232C55.3703 26.0616 55.65 25.8872 55.9377 25.7089C56.3291 25.4661 56.7347 25.2153 57.3108 24.9771C57.7603 24.791 58.3019 24.662 58.6784 24.6538C58.8536 24.65 58.992 24.6719 59.1175 24.6917C59.2613 24.7144 59.3897 24.7345 59.5391 24.7108C59.6468 24.6937 59.7545 24.6461 59.887 24.5881C60.0985 24.4955 60.3739 24.3757 60.8098 24.3077C62.4316 24.0545 64.2845 23.8054 66.0918 23.5648C66.5764 23.5003 67.0579 23.4363 67.5311 23.3729C69.0161 23.174 70.4122 22.9712 71.5695 22.771C73.2841 22.4752 75.7592 22.1863 78.2323 21.8658C79.9785 21.6392 81.6502 21.4117 83.1557 21.1572C84.6178 20.9103 86.0462 20.5627 87.509 20.1992C89.248 19.7663 90.842 19.3505 92.3062 19.1297C92.5972 19.0862 92.9793 19.1293 93.4562 19.1822C93.7941 19.2197 94.1818 19.2617 94.6148 19.2823C96.4121 18.8696 98.1969 18.4471 99.9828 18.008C100.042 17.9755 100.104 17.9422 100.165 17.9086C100.166 17.9079 100.167 17.9073 100.168 17.9066C101.544 17.1475 103.4 16.1104 106.231 15.6471C106.934 15.5334 107.458 15.5402 107.891 15.5563C108.324 15.57 108.709 15.582 109.221 15.4545C109.798 15.3109 110.451 15.0251 111.184 14.6998C112.208 14.2444 113.253 13.7555 114.487 13.4708C114.569 13.4522 114.656 13.4323 114.747 13.4113C115.596 13.217 116.876 12.9075 118.173 12.7062C121.639 11.4449 125.583 9.79926 127.496 8.12132C127.664 7.96773 127.758 7.85464 127.78 7.83559C127.788 7.83216 127.772 7.8662 127.75 7.9454C127.722 8.03801 127.688 8.19888 127.689 8.39509C127.673 8.79216 127.903 9.27148 128.003 9.3613C128.114 9.48325 128.076 9.40191 127.961 9.31793C127.679 9.10517 127.185 8.8518 126.503 8.60036C125.939 8.38673 125.181 8.16247 124.473 7.98472C121.531 7.25895 118.381 6.86575 115.152 6.55865C111.943 6.26157 108.922 5.81032 106.726 5.17131C104.519 4.53294 103.128 3.75888 103.135 2.94974C103.128 2.14324 104.522 1.3554 106.789 0.77898C109.044 0.205121 112.182 -0.100799 115.576 0.0299568C118.217 0.130671 121.071 0.3227 123.762 0.698828C125.275 0.919303 126.608 1.15417 128.137 1.57287C129.66 2.06501 131.24 2.34477 133.351 4.27179C133.813 4.73409 134.209 5.1797 134.63 6.03125C135.386 7.50663 135.308 9.45904 134.828 10.6789C134.429 11.8111 133.787 12.6855 133.335 13.2551C133.085 13.5654 132.813 13.8673 132.551 14.1379C132.329 14.3723 132.101 14.5994 131.864 14.8217C131.383 15.2713 130.888 15.6844 130.462 16.0294C130.058 16.3561 129.594 16.6984 129.175 16.997Z" fill="#43E45B" fill-opacity="0.18"/>
</svg>
