<svg width="24" height="24" viewBox="0 0 24 24" fill="none" xmlns="http://www.w3.org/2000/svg">
  <path d="M3 14V10C3 6.22876 3 4.34315 4.17157 3.17157C5.34315 2 7.22876 2 11 2H13C16.7712 2 18.6569 2 19.8284 3.17157C21 4.34315 21 6.22876 21 10V14C21 17.7712 21 19.6569 19.8284 20.8284C18.6569 22 16.7712 22 13 22H11C7.22876 22 5.34315 22 4.17157 20.8284C3 19.6569 3 17.7712 3 14Z" stroke="currentColor" stroke-width="1.5"/>
  <path d="M11.3333 10.6667C12.3883 11.7216 13.7778 12.7937 13.7778 12.7937L15.6825 10.8889C15.6825 10.8889 14.6105 9.49939 13.5556 8.44444C12.5006 7.3895 11.1111 6.31746 11.1111 6.31746L9.20635 8.22222C9.20635 8.22222 10.2784 9.61172 11.3333 10.6667ZM11.3333 10.6667L8 14M16 10.5714L13.4603 13.1111M11.4286 6L8.88889 8.53968" stroke="currentColor" stroke-width="1.5" stroke-linecap="round" stroke-linejoin="round"/>
  <path d="M8 18H16" stroke="currentColor" stroke-width="1.5" stroke-linecap="round"/>
</svg>
