<svg width="41" height="41" viewBox="0 0 41 41" fill="none" xmlns="http://www.w3.org/2000/svg">
<path d="M17.5 9.22656H11.5C10.9696 9.22656 10.4609 9.43728 10.0858 9.81235C9.71071 10.1874 9.5 10.6961 9.5 11.2266V24.2266C9.5 24.757 9.71071 25.2657 10.0858 25.6408C10.4609 26.0158 10.9696 26.2266 11.5 26.2266H12.5V23.2266H11.5V11.2266H17.5V19.2266H19.5V11.2266C19.5 10.6961 19.2893 10.1874 18.9142 9.81235C18.5391 9.43728 18.0304 9.22656 17.5 9.22656ZM31.5 29.2266V23.2266C31.5 22.6961 31.2893 22.1874 30.9142 21.8123C30.5391 21.4373 30.0304 21.2266 29.5 21.2266H16.5C15.9696 21.2266 15.4609 21.4373 15.0858 21.8123C14.7107 22.1874 14.5 22.6961 14.5 23.2266V29.2266C14.5 29.757 14.7107 30.2657 15.0858 30.6408C15.4609 31.0158 15.9696 31.2266 16.5 31.2266H29.5C30.0304 31.2266 30.5391 31.0158 30.9142 30.6408C31.2893 30.2657 31.5 29.757 31.5 29.2266ZM17.5 29.2266V23.2266H29.5V29.2266H17.5ZM31.5 18.2266H30C30 15.2266 28.19 12.4966 25.42 11.3166L24.5 13.2266L22.5 9.22656C24.8869 9.22656 27.1761 10.1748 28.864 11.8626C30.5518 13.5504 31.5 15.8396 31.5 18.2266Z" fill="white"/>
</svg>
