<svg width="40" height="41" viewBox="0 0 40 41" fill="none" xmlns="http://www.w3.org/2000/svg">
<g clip-path="url(#clip0_26160_90134)">
<path d="M8.5 12.2266V11.9266C8.5 10.8065 8.5 10.2464 8.71799 9.81858C8.90973 9.44226 9.21569 9.1363 9.59202 8.94455C10.0198 8.72656 10.5799 8.72656 11.7 8.72656H12" stroke="white" stroke-linecap="round"/>
<path d="M28 8.72656H28.3C29.4201 8.72656 29.9802 8.72656 30.408 8.94455C30.7843 9.1363 31.0903 9.44226 31.282 9.81858C31.5 10.2464 31.5 10.8065 31.5 11.9266V12.2266" stroke="white" stroke-linecap="round"/>
<path d="M31.5 28.2266V28.5266C31.5 29.6467 31.5 30.2067 31.282 30.6345C31.0903 31.0109 30.7843 31.3168 30.408 31.5086C29.9802 31.7266 29.4201 31.7266 28.3 31.7266H28" stroke="white" stroke-linecap="round"/>
<path d="M8.5 28.2266V28.5266C8.5 29.6467 8.5 30.2067 8.71799 30.6345C8.90973 31.0109 9.21569 31.3168 9.59202 31.5086C10.0198 31.7266 10.5799 31.7266 11.7 31.7266H12" stroke="white" stroke-linecap="round"/>
<path d="M13.9077 25.1193C13.294 25.1193 12.7486 25.0142 12.2713 24.804C11.7969 24.5937 11.4219 24.3011 11.1463 23.9261C10.8707 23.5511 10.7244 23.1179 10.7074 22.6264H12.3097C12.3239 22.8622 12.402 23.0682 12.544 23.2443C12.6861 23.4176 12.875 23.5526 13.1108 23.6491C13.3466 23.7457 13.6108 23.794 13.9034 23.794C14.2159 23.794 14.4929 23.7401 14.7344 23.6321C14.9759 23.5213 15.1648 23.3679 15.3011 23.1719C15.4375 22.9759 15.5043 22.75 15.5014 22.4943C15.5043 22.2301 15.4361 21.9972 15.2969 21.7955C15.1577 21.5937 14.956 21.4361 14.6918 21.3224C14.4304 21.2088 14.1151 21.152 13.7457 21.152H12.9744V19.9332H13.7457C14.0497 19.9332 14.3153 19.8807 14.5426 19.7756C14.7727 19.6705 14.9531 19.5227 15.0838 19.3324C15.2145 19.1392 15.2784 18.9162 15.2756 18.6634C15.2784 18.4162 15.223 18.2017 15.1094 18.0199C14.9986 17.8352 14.8409 17.6918 14.6364 17.5895C14.4347 17.4872 14.1974 17.4361 13.9247 17.4361C13.6577 17.4361 13.4105 17.4844 13.1832 17.581C12.956 17.6776 12.7727 17.8153 12.6335 17.9943C12.4943 18.1705 12.4205 18.3807 12.4119 18.625H10.8906C10.902 18.1364 11.0426 17.7074 11.3125 17.3381C11.5852 16.9659 11.9489 16.6761 12.4034 16.4688C12.858 16.2585 13.3679 16.1534 13.9332 16.1534C14.5156 16.1534 15.0213 16.2628 15.4503 16.4815C15.8821 16.6974 16.2159 16.9886 16.4517 17.3551C16.6875 17.7216 16.8054 18.1264 16.8054 18.5696C16.8082 19.0611 16.6634 19.473 16.3707 19.8054C16.081 20.1378 15.7003 20.3551 15.2287 20.4574V20.5256C15.8423 20.6108 16.3125 20.8381 16.6392 21.2074C16.9688 21.5739 17.1321 22.0298 17.1293 22.5753C17.1293 23.0639 16.9901 23.5014 16.7116 23.8878C16.4361 24.2713 16.0554 24.5724 15.5696 24.7912C15.0866 25.0099 14.5327 25.1193 13.9077 25.1193ZM19.5593 23.9517C19.3008 23.9517 19.0792 23.8608 18.8945 23.679C18.7099 23.4943 18.619 23.2727 18.6218 23.0142C18.619 22.7585 18.7099 22.5398 18.8945 22.358C19.0792 22.1761 19.3008 22.0852 19.5593 22.0852C19.8093 22.0852 20.0266 22.1761 20.2113 22.358C20.3988 22.5398 20.494 22.7585 20.4968 23.0142C20.494 23.1875 20.4485 23.3452 20.3604 23.4872C20.2752 23.6293 20.1616 23.7429 20.0195 23.8281C19.8803 23.9105 19.7269 23.9517 19.5593 23.9517ZM19.5593 19.6264C19.3008 19.6264 19.0792 19.5355 18.8945 19.3537C18.7099 19.169 18.619 18.9474 18.6218 18.6889C18.619 18.4332 18.7099 18.2145 18.8945 18.0327C19.0792 17.848 19.3008 17.7557 19.5593 17.7557C19.8093 17.7557 20.0266 17.848 20.2113 18.0327C20.3988 18.2145 20.494 18.4332 20.4968 18.6889C20.494 18.8594 20.4485 19.0156 20.3604 19.1577C20.2752 19.2997 20.1616 19.4134 20.0195 19.4986C19.8803 19.5838 19.7269 19.6264 19.5593 19.6264ZM21.9148 23.3807V22.1236L25.6179 16.2727H26.6662V18.0625H26.027L23.5341 22.0128V22.081H28.7031V23.3807H21.9148ZM26.0781 25V22.9972L26.0952 22.4347V16.2727H27.5866V25H26.0781Z" fill="white"/>
</g>
<defs>
<clipPath id="clip0_26160_90134">
<rect width="24" height="24" fill="white" transform="translate(8 8.22656)"/>
</clipPath>
</defs>
</svg>
