<svg width="62" height="62" viewBox="0 0 62 62" fill="none" xmlns="http://www.w3.org/2000/svg">
<g filter="url(#filter0_d_884_3193)">
<rect x="15" y="14" width="32" height="32" rx="15" fill="white"/>
</g>
<path d="M40.7558 20.2363C40.4408 19.9212 39.9262 19.9212 39.6112 20.2363L20.2363 39.6217C19.9212 39.9367 19.9212 40.4513 20.2363 40.7663C20.3938 40.9133 20.5933 40.9973 20.8033 40.9973C21.0134 40.9973 21.2129 40.9133 21.3704 40.7558L40.7558 21.3704C41.0814 21.0554 41.0814 20.5513 40.7558 20.2363Z" fill="#292D32"/>
<path d="M33.4575 21.5971V27.5408L27.5347 33.4636V31.8464H24.2898C22.8196 31.8464 22.4101 30.9433 23.3867 29.8407L30.4961 21.7546L31.3362 20.799C32.5018 19.4759 33.4575 19.8329 33.4575 21.5971Z" fill="#292D32"/>
<path d="M37.6039 31.1619L30.4946 39.2479L29.6545 40.2035C28.4888 41.5267 27.5332 41.1696 27.5332 39.4054V36.6121L34.9891 29.1562H36.7008C38.171 29.1562 38.5806 30.0593 37.6039 31.1619Z" fill="#292D32"/>
<defs>
<filter id="filter0_d_884_3193" x="0" y="0" width="62" height="62" filterUnits="userSpaceOnUse" color-interpolation-filters="sRGB">
<feFlood flood-opacity="0" result="BackgroundImageFix"/>
<feColorMatrix in="SourceAlpha" type="matrix" values="0 0 0 0 0 0 0 0 0 0 0 0 0 0 0 0 0 0 127 0" result="hardAlpha"/>
<feMorphology radius="5" operator="dilate" in="SourceAlpha" result="effect1_dropShadow_884_3193"/>
<feOffset dy="1"/>
<feGaussianBlur stdDeviation="5"/>
<feColorMatrix type="matrix" values="0 0 0 0 0 0 0 0 0 0 0 0 0 0 0 0 0 0 0.17 0"/>
<feBlend mode="normal" in2="BackgroundImageFix" result="effect1_dropShadow_884_3193"/>
<feBlend mode="normal" in="SourceGraphic" in2="effect1_dropShadow_884_3193" result="shape"/>
</filter>
</defs>
</svg>
