<svg width="62" height="62" viewBox="0 0 62 62" fill="none" xmlns="http://www.w3.org/2000/svg">
<g filter="url(#filter0_d_884_3200)">
<rect x="15" y="14" width="32" height="32" rx="15" fill="white"/>
</g>
<path d="M35.19 20H26.81C23.17 20 21 22.17 21 25.81V34.19C21 35.28 21.19 36.23 21.56 37.03C22.42 38.93 24.26 40 26.81 40H35.19C38.83 40 41 37.83 41 34.19V31.9V25.81C41 22.17 38.83 20 35.19 20ZM39.37 30.5C38.59 29.83 37.33 29.83 36.55 30.5L32.39 34.07C31.61 34.74 30.35 34.74 29.57 34.07L29.23 33.79C28.52 33.17 27.39 33.11 26.59 33.65L22.85 36.16C22.63 35.6 22.5 34.95 22.5 34.19V25.81C22.5 22.99 23.99 21.5 26.81 21.5H35.19C38.01 21.5 39.5 22.99 39.5 25.81V30.61L39.37 30.5Z" fill="#292D32"/>
<defs>
<filter id="filter0_d_884_3200" x="0" y="0" width="62" height="62" filterUnits="userSpaceOnUse" color-interpolation-filters="sRGB">
<feFlood flood-opacity="0" result="BackgroundImageFix"/>
<feColorMatrix in="SourceAlpha" type="matrix" values="0 0 0 0 0 0 0 0 0 0 0 0 0 0 0 0 0 0 127 0" result="hardAlpha"/>
<feMorphology radius="5" operator="dilate" in="SourceAlpha" result="effect1_dropShadow_884_3200"/>
<feOffset dy="1"/>
<feGaussianBlur stdDeviation="5"/>
<feColorMatrix type="matrix" values="0 0 0 0 0 0 0 0 0 0 0 0 0 0 0 0 0 0 0.17 0"/>
<feBlend mode="normal" in2="BackgroundImageFix" result="effect1_dropShadow_884_3200"/>
<feBlend mode="normal" in="SourceGraphic" in2="effect1_dropShadow_884_3200" result="shape"/>
</filter>
</defs>
</svg>
