<svg width="1024" height="1024" viewBox="0 0 1024 1024" fill="none" xmlns="http://www.w3.org/2000/svg">
<rect width="1024" height="1024" rx="185.4" fill="#8F33D6"/>
<path d="M522.726 739.26C623.531 739.26 705.249 644.146 705.249 526.816C705.249 409.486 623.531 314.371 522.726 314.371C421.921 314.371 340.203 409.486 340.203 526.816C340.203 644.146 421.921 739.26 522.726 739.26Z" fill="#1C1C1C"/>
<path d="M518.63 146.624C554.145 146.624 589.243 151.549 622.927 161.222L625.716 162.011C683.279 178.572 735.735 211.507 777.789 257.409L779.816 259.641L779.818 259.643C800.608 282.763 818.281 308.546 832.354 336.327L833.679 338.968C847.241 366.286 857.082 395.063 862.979 424.555L863.415 426.655C872.371 470.734 868.483 512.294 851.934 546.936C842.985 565.663 830.518 581.8 814.936 594.888L814.935 594.887C805.562 602.763 795.148 609.443 783.816 614.874C802.857 631.247 816.38 654.823 821.235 682.621H821.234C824.543 701.068 823.373 719.09 817.741 736.111L817.742 736.112C812.857 750.892 804.545 764.997 793.103 778.008C772.815 801.143 745.13 818.143 723.568 830.229L723.567 830.228C696.626 845.805 666.704 857.73 634.58 865.687L631.463 866.444C600.44 873.852 567.483 877.595 533.501 877.595C523.641 877.595 513.605 877.263 503.634 876.631C408.785 872.33 321.092 833.902 256.724 768.323H256.723C225.384 736.389 200.728 699.317 183.396 658.101L182.576 656.135C164.668 612.847 155.446 566.489 155.136 518.348L155.08 515.318C154.633 483.966 158.146 451.153 165.29 420.177C172.995 386.668 184.523 356.113 199.573 329.41C230.019 272.822 276.792 225.894 334.803 193.713L337.412 192.279C392.328 162.413 454.915 146.624 518.63 146.624ZM576.439 632.895C569.496 632.895 563.102 632.894 556.89 632.924H556.811C541.615 632.924 525.999 632.953 510.289 632.983H510.286C488.949 633.008 467.079 633.031 445.766 633.056C465.642 642.563 493.248 648.054 523.747 648.054C547.738 648.054 571.184 644.655 589.769 638.558C594.8 636.875 599.79 634.974 604.705 632.938C595.47 632.914 586.002 632.895 576.439 632.895ZM517.673 375.178C478.373 375.178 445.98 389.853 427.544 414.514H430.45C448.313 414.514 467.975 414.514 488.804 414.544H488.803C499.726 414.544 510.843 414.559 521.916 414.574C532.991 414.589 544.022 414.604 554.775 414.604C576.227 414.604 593.78 414.579 608.467 414.536C587.81 386.734 553.232 375.769 524.438 375.255L522.977 375.237H522.264L522.188 375.234C520.721 375.178 519.241 375.178 517.673 375.178Z" fill="#1C1C1C" stroke="#1C1C1C" stroke-width="7.97008"/>
<path d="M401.042 604.428C405.859 602.663 411.036 602.962 416.063 602.932C461.305 602.932 510.855 602.843 556.755 602.783C609.058 602.603 654.001 603.321 705.017 602.424C720.098 601.945 735.657 599.85 749.78 595.602C821.862 574.776 849.629 506.883 833.442 430.673C811 318.167 725.963 221.101 614.743 190.281C467.528 147.852 299.338 207.337 226 343.989C198.172 393.3 183.93 457.931 185.306 517.895C186.323 699.221 325.519 838.507 505.26 846.526C575.875 851.044 648.196 839.015 708.668 804.007C752.623 779.351 801.814 744.971 791.521 687.82C783.442 641.502 743.766 610.802 697.238 623.429C682.426 627.109 668.872 634.829 655.706 641.831C637.873 651.286 618.843 660.622 599.214 667.204C547.958 684.05 466.212 683.362 418.995 652.603C409.42 646.139 392.933 633.094 390.39 621.783C388.714 614.362 394.04 606.882 400.952 604.428H401.012H401.042ZM399.187 443.18C393.053 441.115 388.445 435.37 388.445 428.788C388.325 423.491 390.51 418.165 392.873 413.438C416.242 366.7 468.246 343.391 523.123 345.066C571.836 345.336 621.625 368.286 644.336 415.951C645.832 419.213 647.029 422.534 647.478 425.795C647.957 429.177 647.598 432.498 646.131 435.4C642.631 442.193 635.33 444.856 628.268 444.616C570.549 444.975 470.491 444.616 409.6 444.706C406.099 444.676 402.718 444.467 399.247 443.24H399.187V443.18Z" fill="white"/>
<path d="M251.429 460.686L176.625 496.593L185.213 411.824L251.429 460.686Z" fill="#1E1E1E"/>
<path fill-rule="evenodd" clip-rule="evenodd" d="M123.302 170.83C170.507 172.995 208.911 158.91 255.045 138.493C257.865 137.24 260.958 137.51 263.443 138.921C306.957 163.448 345.008 180.998 391.587 183.134C396.733 183.37 400.72 187.742 400.484 192.89L394.719 318.573C389.944 422.7 312.625 445.133 248.228 477.465C245.195 478.994 241.719 478.706 239.034 477.001C178.658 439.047 102.968 410.153 107.772 305.414L113.536 179.742C113.772 174.58 118.142 170.594 123.302 170.83Z" fill="#C36FFF"/>
<path d="M260.41 150.992L245.449 456.194L320.254 432.257L369.625 378.398L386.082 281.152V201.859L260.41 150.992Z" fill="#AC39FF"/>
<path d="M255.043 138.494C257.864 137.241 260.958 137.51 263.442 138.92C306.957 163.446 345.009 180.998 391.588 183.134C396.733 183.371 400.72 187.743 400.484 192.891L394.719 318.573C389.944 422.699 312.626 445.132 248.229 477.463C245.196 478.991 241.718 478.705 239.033 477C178.657 439.046 102.968 410.151 107.772 305.413L113.536 179.742C113.772 174.58 118.142 170.593 123.302 170.829C170.507 172.994 208.911 158.91 255.043 138.494ZM258.029 163.316C218.239 180.656 180.849 194.171 136.801 194.949L131.684 306.509C129.613 351.677 144.421 378.525 165.615 399.057C187.44 420.2 214.473 433.855 244.834 452.435C276.935 436.755 305.248 425.392 328.763 406.341C351.692 387.765 368.748 362.376 370.807 317.476L375.924 205.907C332.527 201.105 295.84 184.276 258.029 163.316Z" fill="#1C1C1C"/>
<path d="M150.092 236.032L147.995 310.807C147.601 324.848 158.664 336.55 172.705 336.944C186.746 337.338 198.448 326.275 198.842 312.234L200.94 237.459C201.333 223.418 190.27 211.716 176.229 211.322C162.188 210.928 150.486 221.991 150.092 236.032Z" fill="#CC84FF"/>
</svg>
