<svg width="1024" height="1024" viewBox="0 0 1024 1024" fill="none" xmlns="http://www.w3.org/2000/svg">
<rect width="1024" height="1024" rx="185.4" fill="#A75CFF"/>
<rect x="347.139" y="336.262" width="328.083" height="398.598" fill="#1C1C1C"/>
<path d="M519.463 143.423C556.209 143.423 592.244 148.689 626.56 159.094C657.26 167.945 686.698 181.614 714.058 199.703C740.554 217.222 764.669 238.583 785.742 263.195L787.689 265.489C807.706 289.269 824.502 315.54 837.627 343.616L838.907 346.387C852.001 375.038 861.03 404.981 865.737 435.438L866.048 437.415C869.161 457.84 869.283 477.941 866.367 497.18L866.368 497.181C863.308 517.382 856.965 536.226 847.479 553.153L847.479 553.154C837.671 570.65 824.758 585.653 809.1 597.7C795.915 607.848 781.046 615.689 764.806 621.113C783.087 635.668 796.031 655.552 802.324 678.619C808.511 698.936 810.011 718.653 806.541 737.146C803.291 754.468 795.708 770.639 784.131 785.192C763.492 811.137 733.215 828.438 707.292 841.593L707.273 841.602L707.255 841.611L706.991 841.743L706.95 841.763L706.728 841.869L706.729 841.87C654.424 867.17 602.174 884.205 531.614 880.784C448.516 880.768 368.822 856.383 307.187 811.855C269.355 785.921 237.434 752.22 212.284 711.74C188.363 673.235 171.599 630.34 162.433 584.284V584.283C153.368 538.719 152.232 492.592 159.073 447.201C166.154 400.207 181.454 356.464 204.581 317.233C235.547 263.272 282.282 218.615 339.678 188.014L342.249 186.655C396.35 158.354 457.555 143.423 519.463 143.423ZM522.473 631.984C499.607 631.984 473.809 631.992 447.614 632.035C454.503 635.379 462.308 638.125 470.73 640.294C487.474 644.607 506.063 646.484 523.386 646.484C546.381 646.484 569.192 643.345 585.898 638.035L585.922 638.027L586.551 637.83C595.108 635.131 599.908 633.611 604.107 631.988C597.017 631.99 590.13 631.992 583.521 631.992C578.441 631.992 565.723 631.99 553.004 631.988C540.284 631.986 527.562 631.984 522.473 631.984ZM517.626 376.065C482.355 376.065 452.108 388.786 433.996 409.276C436.553 409.28 439.14 409.285 441.754 409.289L448.645 409.299V409.302C477.707 409.35 509.934 409.4 540.873 409.4C564.499 409.4 584.791 409.368 602.235 409.31C582.322 386.17 550.519 376.671 524.812 376.187L523.424 376.169H522.958L522.82 376.163L522.449 376.148V376.147C520.85 376.092 519.227 376.065 517.626 376.065Z" fill="#1C1C1C" stroke="#1C1C1C" stroke-width="13.8027"/>
<path d="M418.15 599.221C503.948 598.976 592.624 599.228 678.04 599.02C700.661 598.927 723.723 598.846 745.59 592.537C812.257 575.32 844.936 512.52 833.271 440.594C815.545 325.546 729.687 222.931 617.219 190.62C475.835 147.658 307.845 203.124 232.994 333.793C147.21 479.155 185.582 688.913 326.123 784.973C428.738 859.319 579.318 866.983 692.422 812.278C743.798 786.202 790.91 753.067 770.738 687.732C759.255 644.714 716.219 621.047 675.587 634.946C662.122 638.969 649.812 645.913 637.52 652.382C619.156 662.065 615.86 663.067 595.871 669.372C538.082 687.744 421.185 685.509 391.253 621.953C387.078 603.704 403.56 599.206 418.094 599.221H418.153H418.15ZM399.786 440.193C393.41 437.837 389.164 431.683 389.487 424.888C389.654 419.002 392.293 413.282 395.035 408.105C418.784 363.491 471.359 341.468 523.641 343.294C572.53 343.598 623.758 367.997 644.527 415.472C646.111 419.477 647.106 423.641 646.579 427.69C645.098 438.338 635.367 442.09 625.818 442.09C565.208 442.454 474.12 442.216 411.146 442.127C407.502 442.012 403.464 441.641 399.853 440.223L399.786 440.197V440.193Z" fill="white"/>
<path d="M239.007 465.041C171.424 429.216 139.386 394.509 124.423 371.722C113.992 355.3 109.211 336.487 110.515 317.271L119.424 181.018V180.769C119.921 176.671 122.746 173.288 126.658 172.108L256.081 129.453L382.431 182.321C386.25 183.843 388.764 187.413 388.919 191.573L386.964 328.323C386.715 347.57 380.444 365.917 368.865 381.346C352.039 403.015 317.331 435.053 247.109 465.383L243.012 467.152L239.069 465.072L239.007 465.041Z" fill="#CB3EFF"/>
<mask id="path-6-outside-1_42810_2" maskUnits="userSpaceOnUse" x="97.9492" y="116.395" width="303" height="364" fill="black">
<rect fill="white" x="97.9492" y="116.395" width="303" height="364"/>
<path d="M255.623 139.263L378.9 190.827C379.272 190.952 379.552 191.324 379.552 191.728L377.596 328.043C377.379 345.21 371.666 361.881 361.36 375.603C345.248 396.34 311.689 427.167 243.361 456.69C177.578 421.828 146.596 388.424 132.191 366.476C123.002 351.947 118.625 334.904 119.773 317.767L128.652 181.731C128.683 181.328 128.994 180.986 129.366 180.862L255.623 139.232M256.399 119.395L249.787 121.568L123.778 163.105C116.359 165.402 111.05 171.797 110.15 179.62L110.088 180.086V180.552L101.178 316.588C99.75 337.76 105.027 358.497 116.452 376.503L116.545 376.627L116.638 376.751C132.191 400.469 165.315 436.449 234.668 473.206L242.585 477.397L250.78 473.858C322.834 442.72 358.69 409.503 376.106 387.089L376.199 386.965L376.292 386.841C389.082 369.797 396.005 349.587 396.285 328.322L398.24 192.069V191.603V191.138C397.961 183.284 393.18 176.485 385.947 173.598L262.887 122.126L256.461 119.457L256.399 119.395Z"/>
</mask>
<path d="M255.623 139.263L378.9 190.827C379.272 190.952 379.552 191.324 379.552 191.728L377.596 328.043C377.379 345.21 371.666 361.881 361.36 375.603C345.248 396.34 311.689 427.167 243.361 456.69C177.578 421.828 146.596 388.424 132.191 366.476C123.002 351.947 118.625 334.904 119.773 317.767L128.652 181.731C128.683 181.328 128.994 180.986 129.366 180.862L255.623 139.232M256.399 119.395L249.787 121.568L123.778 163.105C116.359 165.402 111.05 171.797 110.15 179.62L110.088 180.086V180.552L101.178 316.588C99.75 337.76 105.027 358.497 116.452 376.503L116.545 376.627L116.638 376.751C132.191 400.469 165.315 436.449 234.668 473.206L242.585 477.397L250.78 473.858C322.834 442.72 358.69 409.503 376.106 387.089L376.199 386.965L376.292 386.841C389.082 369.797 396.005 349.587 396.285 328.322L398.24 192.069V191.603V191.138C397.961 183.284 393.18 176.485 385.947 173.598L262.887 122.126L256.461 119.457L256.399 119.395Z" fill="#1E1E1E"/>
<path d="M378.9 190.827L377.903 193.211L377.991 193.248L378.083 193.279L378.9 190.827ZM379.552 191.728L382.136 191.765L382.136 191.746V191.728H379.552ZM377.596 328.043L375.012 328.006L375.012 328.01L377.596 328.043ZM361.36 375.603L363.4 377.188L363.413 377.172L363.426 377.155L361.36 375.603ZM243.361 456.69L242.151 458.974L243.247 459.554L244.386 459.062L243.361 456.69ZM132.191 366.476L130.007 367.857L130.019 367.875L130.031 367.894L132.191 366.476ZM119.773 317.767L122.352 317.94L122.352 317.936L119.773 317.767ZM128.652 181.731L126.076 181.533L126.074 181.548L126.073 181.563L128.652 181.731ZM129.366 180.862L128.557 178.408L128.549 178.411L129.366 180.862ZM256.399 119.395L258.227 117.568L257.103 116.443L255.592 116.94L256.399 119.395ZM249.787 121.568L248.98 119.113L248.978 119.113L249.787 121.568ZM123.778 163.105L124.543 165.573L124.565 165.566L124.587 165.559L123.778 163.105ZM110.15 179.62L112.711 179.962L112.714 179.939L112.717 179.916L110.15 179.62ZM110.088 180.086L107.526 179.744L107.504 179.914V180.086H110.088ZM110.088 180.552L112.666 180.721L112.672 180.636V180.552H110.088ZM101.178 316.588L103.756 316.761L103.757 316.756L101.178 316.588ZM116.452 376.503L114.27 377.887L114.324 377.973L114.385 378.054L116.452 376.503ZM116.545 376.627L118.613 375.078L118.612 375.076L116.545 376.627ZM116.638 376.751L118.799 375.334L118.755 375.267L118.706 375.202L116.638 376.751ZM234.668 473.206L233.458 475.489L233.459 475.49L234.668 473.206ZM242.585 477.397L241.375 479.68L242.471 480.26L243.609 479.769L242.585 477.397ZM250.78 473.858L251.805 476.23L251.805 476.23L250.78 473.858ZM376.106 387.089L378.146 388.674L378.16 388.657L378.173 388.64L376.106 387.089ZM376.292 386.841L374.225 385.29L374.225 385.29L376.292 386.841ZM396.285 328.322L393.701 328.285L393.701 328.288L396.285 328.322ZM398.24 192.069L400.824 192.106L400.824 192.088V192.069H398.24ZM398.24 191.138H400.824V191.092L400.823 191.046L398.24 191.138ZM385.947 173.598L384.95 175.982L384.969 175.99L384.989 175.998L385.947 173.598ZM262.887 122.126L263.885 119.742L263.879 119.74L262.887 122.126ZM256.461 119.457L254.633 121.283L254.996 121.646L255.47 121.843L256.461 119.457ZM255.623 139.263L254.626 141.647L377.903 193.211L378.9 190.827L379.897 188.443L256.62 136.879L255.623 139.263ZM378.9 190.827L378.083 193.279C377.723 193.159 377.456 192.939 377.28 192.699C377.102 192.456 376.968 192.123 376.968 191.728H379.552H382.136C382.136 190.181 381.115 188.842 379.717 188.376L378.9 190.827ZM379.552 191.728L376.968 191.69L375.012 328.006L377.596 328.043L380.18 328.08L382.136 191.765L379.552 191.728ZM377.596 328.043L375.012 328.01C374.802 344.626 369.273 360.765 359.294 374.051L361.36 375.603L363.426 377.155C374.06 362.997 379.956 345.795 380.18 328.076L377.596 328.043ZM361.36 375.603L359.319 374.017C343.522 394.349 310.343 424.934 242.336 454.318L243.361 456.69L244.386 459.062C313.035 429.401 346.974 398.331 363.4 377.188L361.36 375.603ZM243.361 456.69L244.571 454.407C179.097 419.708 148.475 386.577 134.352 365.058L132.191 366.476L130.031 367.894C144.717 390.271 176.058 423.947 242.151 458.974L243.361 456.69ZM132.191 366.476L134.375 365.094C125.476 351.024 121.24 334.524 122.352 317.94L119.773 317.767L117.195 317.594C116.009 335.283 120.528 352.87 130.007 367.857L132.191 366.476ZM119.773 317.767L122.352 317.936L131.231 181.9L128.652 181.731L126.073 181.563L117.195 317.599L119.773 317.767ZM128.652 181.731L131.229 181.93C131.197 182.337 131.03 182.652 130.854 182.861C130.681 183.065 130.455 183.223 130.183 183.314L129.366 180.862L128.549 178.411C127.349 178.811 126.198 179.936 126.076 181.533L128.652 181.731ZM129.366 180.862L130.175 183.316L256.432 141.686L255.623 139.232L254.814 136.778L128.557 178.408L129.366 180.862ZM256.399 119.395L255.592 116.94L248.98 119.113L249.787 121.568L250.594 124.023L257.206 121.849L256.399 119.395ZM249.787 121.568L248.978 119.113L122.969 160.651L123.778 163.105L124.587 165.559L250.596 124.022L249.787 121.568ZM123.778 163.105L123.014 160.636C114.609 163.239 108.599 170.492 107.583 179.325L110.15 179.62L112.717 179.916C113.501 173.103 118.109 167.565 124.543 165.573L123.778 163.105ZM110.15 179.62L107.588 179.279L107.526 179.744L110.088 180.086L112.649 180.428L112.711 179.962L110.15 179.62ZM110.088 180.086H107.504V180.552H110.088H112.672V180.086H110.088ZM110.088 180.552L107.509 180.383L98.5994 316.419L101.178 316.588L103.757 316.756L112.666 180.721L110.088 180.552ZM101.178 316.588L98.5997 316.414C97.1346 338.136 102.552 359.419 114.27 377.887L116.452 376.503L118.634 375.118C107.503 357.575 102.365 337.384 103.756 316.761L101.178 316.588ZM116.452 376.503L114.385 378.054L114.478 378.178L116.545 376.627L118.612 375.076L118.519 374.952L116.452 376.503ZM116.545 376.627L114.477 378.176L114.57 378.301L116.638 376.751L118.706 375.202L118.613 375.078L116.545 376.627ZM116.638 376.751L114.477 378.168C130.305 402.306 163.784 438.562 233.458 475.489L234.668 473.206L235.878 470.922C166.847 434.337 134.077 398.632 118.799 375.334L116.638 376.751ZM234.668 473.206L233.459 475.49L241.375 479.68L242.585 477.397L243.794 475.113L235.877 470.922L234.668 473.206ZM242.585 477.397L243.609 479.769L251.805 476.23L250.78 473.858L249.756 471.485L241.56 475.024L242.585 477.397ZM250.78 473.858L251.805 476.23C324.193 444.948 360.423 411.484 378.146 388.674L376.106 387.089L374.065 385.503C356.957 407.522 321.474 440.493 249.755 471.485L250.78 473.858ZM376.106 387.089L378.173 388.64L378.266 388.516L376.199 386.965L374.132 385.414L374.039 385.538L376.106 387.089ZM376.199 386.965L378.266 388.516L378.359 388.392L376.292 386.841L374.225 385.29L374.132 385.414L376.199 386.965ZM376.292 386.841L378.359 388.392C391.476 370.913 398.582 350.173 398.868 328.356L396.285 328.322L393.701 328.288C393.428 349.002 386.689 368.682 374.225 385.29L376.292 386.841ZM396.285 328.322L398.868 328.359L400.824 192.106L398.24 192.069L395.656 192.032L393.701 328.285L396.285 328.322ZM398.24 192.069H400.824V191.603H398.24H395.656V192.069H398.24ZM398.24 191.603H400.824V191.138H398.24H395.656V191.603H398.24ZM398.24 191.138L400.823 191.046C400.507 182.175 395.095 174.467 386.905 171.198L385.947 173.598L384.989 175.998C391.265 178.503 395.415 184.392 395.658 191.23L398.24 191.138ZM385.947 173.598L386.944 171.214L263.885 119.742L262.887 122.126L261.89 124.51L384.95 175.982L385.947 173.598ZM262.887 122.126L263.879 119.74L257.453 117.07L256.461 119.457L255.47 121.843L261.896 124.513L262.887 122.126ZM256.461 119.457L258.289 117.63L258.227 117.568L256.399 119.395L254.571 121.221L254.633 121.283L256.461 119.457Z" fill="#1E1E1E" mask="url(#path-6-outside-1_42810_2)"/>
<path d="M269.119 142.016C269.446 138.344 268.288 134.746 265.82 132.008C263.358 129.271 259.788 127.618 255.975 127.418C252.162 127.218 248.439 128.489 245.704 130.954C242.964 133.419 241.436 136.876 241.377 140.562C241.312 144.575 241.246 148.588 241.181 152.601C240.002 224.835 238.824 297.069 237.645 369.303C237.58 373.316 237.514 377.329 237.449 381.342C237.428 382.675 237.952 383.982 238.877 384.974C239.804 385.966 241.057 386.562 242.387 386.632C243.718 386.701 245.026 386.24 246.052 385.35C247.076 384.46 247.733 383.215 247.852 381.887C248.206 377.889 248.561 373.891 248.915 369.893C255.295 297.932 261.675 225.971 268.055 154.01C268.41 150.012 268.764 146.014 269.119 142.016Z" fill="#1E1E1E"/>
<path d="M147.84 210.037L141.157 287.359C139.902 301.878 150.655 314.666 165.174 315.921C179.694 317.176 192.481 306.423 193.736 291.903L200.419 214.581C201.674 200.062 190.922 187.274 176.402 186.019C161.883 184.764 149.095 195.517 147.84 210.037Z" fill="#F069FF"/>
<path d="M242.649 480.293L167.898 513.034L176.808 425.086L242.649 480.293Z" fill="#1E1E1E" fill-opacity="0.14"/>
<circle cx="698.271" cy="711.703" r="80.7458" fill="white"/>
</svg>
