<svg width="21" height="21" viewBox="0 0 21 21" fill="none" xmlns="http://www.w3.org/2000/svg">
<g clip-path="url(#clip0_30549_98929)">
<path d="M14.9945 11.4609C13.2275 11.4609 11.7455 12.7208 11.3655 14.3975C10.463 14.0091 9.6365 14.1133 9.0095 14.388C8.62 12.7019 7.138 11.4609 5.3805 11.4609C3.319 11.4609 1.6375 13.1565 1.6375 15.25C1.6375 17.3435 3.319 19.0391 5.3805 19.0391C7.3375 19.0391 8.9335 17.5045 9.0855 15.5531C9.4085 15.3258 10.254 14.8995 11.2895 15.5721C11.4605 17.514 13.0375 19.0391 14.9945 19.0391C17.056 19.0391 18.7375 17.3435 18.7375 15.25C18.7375 13.1565 17.056 11.4609 14.9945 11.4609ZM5.3805 17.9592C3.8985 17.9592 2.711 16.7467 2.711 15.25C2.711 13.7533 3.908 12.5408 5.3805 12.5408C6.8625 12.5408 8.05 13.7533 8.05 15.25C8.05 16.7467 6.8625 17.9592 5.3805 17.9592ZM14.9945 17.9592C13.5125 17.9592 12.325 16.7467 12.325 15.25C12.325 13.7533 13.5125 12.5408 14.9945 12.5408C16.4765 12.5408 17.6735 13.7533 17.6735 15.25C17.6735 16.7467 16.467 17.9592 14.9945 17.9592ZM19.6875 9.80323C19.6875 9.41086 19.3694 9.09278 18.9771 9.09278H1.39795C1.00558 9.09278 0.6875 9.41086 0.6875 9.80323V9.80323C0.6875 10.1956 1.00558 10.5137 1.39795 10.5137H18.9771C19.3694 10.5137 19.6875 10.1956 19.6875 9.80323V9.80323ZM13.541 1.6378C13.332 1.17364 12.8 0.927351 12.2965 1.08839L10.1875 1.78936L8.069 1.08839L8.0215 1.07891C7.518 0.936824 6.986 1.20206 6.796 1.68516L4.4875 7.67188H15.8875L13.5695 1.68516L13.541 1.6378Z" fill="black" stroke="black" stroke-width="0.331543"/>
</g>
<defs>
<clipPath id="clip0_30549_98929">
<rect width="20" height="20" fill="white" transform="translate(0.1875 0.0390625)"/>
</clipPath>
</defs>
</svg>
