<svg width="200" height="200" viewBox="0 0 200 200" fill="none" xmlns="http://www.w3.org/2000/svg">
<g clip-path="url(#clip0_34053_111286)">
<path d="M170 66.7593C170 71.8084 169.042 76.732 167.151 81.3933C165.192 86.2233 162.316 90.5536 158.606 94.265L147.36 105.511L151.657 109.806C152.962 111.112 152.26 113.347 150.441 113.671L128.349 117.598C126.785 117.875 125.423 116.513 125.7 114.949L129.628 92.8594C129.952 91.0413 132.187 90.3393 133.492 91.6441L137.12 95.2717L148.366 84.0261C152.978 79.4144 155.519 73.2819 155.519 66.7609C155.519 60.2383 152.978 54.105 148.365 49.4941C143.753 44.8815 137.621 42.3422 131.097 42.3422C124.574 42.3422 118.442 44.8815 113.83 49.4941L107.387 55.936C107.383 55.9064 107.378 55.8784 107.373 55.8488L104.299 38.5628C107.848 35.1847 111.936 32.5447 116.463 30.7097C121.123 28.818 126.048 27.8594 131.097 27.8594C136.146 27.8594 141.07 28.818 145.732 30.7089C150.564 32.667 154.894 35.5421 158.606 39.2528C162.317 42.9643 165.192 47.2946 167.151 52.1246C169.041 56.7859 169.999 61.7102 170 66.7585V66.7593Z" fill="#4AAF3C"/>
<path d="M133.814 119.087L105.12 147.779C103.762 149.137 101.92 149.9 99.9998 149.9C98.0791 149.9 96.2375 149.137 94.879 147.779L70.7775 123.678L67.503 126.953C66.1972 128.259 63.9623 127.556 63.6392 125.737L59.7107 103.646C59.4332 102.083 60.7966 100.72 62.3598 100.997L84.4519 104.925C86.2702 105.249 86.9731 107.483 85.6673 108.789L81.0183 113.438L100.001 132.42L124.507 107.914L123.318 114.601C123.053 116.096 123.535 117.63 124.609 118.703C125.684 119.778 127.217 120.259 128.712 119.994L133.814 119.087H133.814Z" fill="#4AAF3C"/>
<path d="M102.359 58.8607L80.2668 54.9325C78.4485 54.6095 77.7456 52.3748 79.0514 51.0692L83.1799 46.9412C79.0498 43.9533 74.1009 42.3406 68.9034 42.3406C62.3808 42.3406 56.2477 44.88 51.6363 49.4925C47.0232 54.1042 44.4828 60.2359 44.4828 66.7585C44.4828 73.2812 47.0232 79.4128 51.6363 84.0246L66.9435 99.3301L62.7415 98.5834C61.2462 98.3179 59.7125 98.8 58.6386 99.8738C57.5647 100.948 57.0825 102.482 57.348 103.977L58.697 111.564L41.3955 94.2635C37.6836 90.552 34.8089 86.2217 32.8499 81.3917C30.9588 76.7312 30 71.8076 30 66.7593C30 61.711 30.9588 56.7867 32.8491 52.1254C34.8081 47.2946 37.6836 42.9643 41.3947 39.2536C45.1057 35.5421 49.4365 32.6678 54.267 30.7097C58.9296 28.818 63.8537 27.8594 68.9034 27.8594C73.953 27.8594 78.8771 28.818 83.5389 30.7081C87.158 32.1753 90.4957 34.1565 93.503 36.6183L97.2157 32.9061C98.5215 31.6004 100.756 32.3032 101.079 34.1214L105.007 56.211C105.286 57.7741 103.922 59.1373 102.359 58.8599V58.8607Z" fill="#4AAF3C"/>
</g>
<g filter="url(#filter0_f_34053_111286)">
<ellipse cx="101.576" cy="170.536" rx="27.5758" ry="1.59085" fill="#E1E1E1" fill-opacity="0.5"/>
</g>
<defs>
<filter id="filter0_f_34053_111286" x="69.5" y="164.445" width="64.1515" height="12.1797" filterUnits="userSpaceOnUse" color-interpolation-filters="sRGB">
<feFlood flood-opacity="0" result="BackgroundImageFix"/>
<feBlend mode="normal" in="SourceGraphic" in2="BackgroundImageFix" result="shape"/>
<feGaussianBlur stdDeviation="2.25" result="effect1_foregroundBlur_34053_111286"/>
</filter>
<clipPath id="clip0_34053_111286">
<rect width="140" height="122" fill="white" transform="translate(30 27.8828)"/>
</clipPath>
</defs>
</svg>
