<svg width="40" height="40" viewBox="0 0 40 40" fill="none" xmlns="http://www.w3.org/2000/svg">
<path d="M6 12.5V12.2C6 11.0799 6 10.5198 6.21799 10.092C6.40973 9.71569 6.71569 9.40973 7.09202 9.21799C7.51984 9 8.07989 9 9.2 9H9.5" stroke="white" stroke-linecap="round"/>
<path d="M30.5 9H30.8C31.9201 9 32.4802 9 32.908 9.21799C33.2843 9.40973 33.5903 9.71569 33.782 10.092C34 10.5198 34 11.0799 34 12.2V12.5" stroke="white" stroke-linecap="round"/>
<path d="M34 28.5V28.8C34 29.9201 34 30.4802 33.782 30.908C33.5903 31.2843 33.2843 31.5903 32.908 31.782C32.4802 32 31.9201 32 30.8 32H30.5" stroke="white" stroke-linecap="round"/>
<path d="M6 28.5V28.8C6 29.9201 6 30.4802 6.21799 30.908C6.40973 31.2843 6.71569 31.5903 7.09202 31.782C7.51984 32 8.07989 32 9.2 32H9.5" stroke="white" stroke-linecap="round"/>
<path d="M11.8253 16.2727V25H10.2443V17.8111H10.1932L8.15199 19.1151V17.6662L10.321 16.2727H11.8253ZM17.2372 25.1193C16.8196 25.1165 16.4119 25.044 16.0142 24.902C15.6165 24.7571 15.2585 24.5227 14.9403 24.1989C14.6222 23.8722 14.3693 23.4389 14.1818 22.8991C13.9943 22.3565 13.902 21.6847 13.9048 20.8835C13.9048 20.1364 13.9844 19.4702 14.1435 18.8849C14.3026 18.2997 14.5312 17.8054 14.8295 17.402C15.1278 16.9957 15.4872 16.6861 15.9077 16.473C16.331 16.2599 16.804 16.1534 17.3267 16.1534C17.875 16.1534 18.3608 16.2614 18.7841 16.4773C19.2102 16.6932 19.554 16.9886 19.8153 17.3636C20.0767 17.7358 20.2386 18.1562 20.3011 18.625H18.7457C18.6662 18.2898 18.5028 18.0227 18.2557 17.8239C18.0114 17.6222 17.7017 17.5213 17.3267 17.5213C16.7216 17.5213 16.2557 17.7841 15.929 18.3097C15.6051 18.8352 15.4418 19.5568 15.4389 20.4744H15.4986C15.6378 20.2244 15.8182 20.0099 16.0398 19.831C16.2614 19.652 16.5114 19.5142 16.7898 19.4176C17.071 19.3182 17.3679 19.2685 17.6804 19.2685C18.1918 19.2685 18.6506 19.3906 19.0568 19.6349C19.4659 19.8793 19.7898 20.2159 20.0284 20.6449C20.267 21.071 20.3849 21.5597 20.3821 22.1108C20.3849 22.6847 20.2543 23.2003 19.9901 23.6577C19.7259 24.1122 19.358 24.4702 18.8864 24.7315C18.4148 24.9929 17.8651 25.1222 17.2372 25.1193ZM17.2287 23.8409C17.5384 23.8409 17.8153 23.7656 18.0597 23.6151C18.304 23.4645 18.4972 23.2614 18.6392 23.0057C18.7813 22.75 18.8509 22.4631 18.848 22.1449C18.8509 21.8324 18.7827 21.5497 18.6435 21.2969C18.5071 21.044 18.3182 20.8437 18.0767 20.696C17.8352 20.5483 17.5597 20.4744 17.25 20.4744C17.0199 20.4744 16.8054 20.5185 16.6065 20.6065C16.4077 20.6946 16.2344 20.8168 16.0866 20.973C15.9389 21.1264 15.8224 21.3054 15.7372 21.5099C15.6548 21.7116 15.6122 21.9276 15.6094 22.1577C15.6122 22.4616 15.6832 22.7415 15.8224 22.9972C15.9616 23.2528 16.1534 23.4574 16.3977 23.6108C16.642 23.7642 16.919 23.8409 17.2287 23.8409ZM22.7898 23.9517C22.5313 23.9517 22.3097 23.8608 22.125 23.679C21.9403 23.4943 21.8494 23.2727 21.8523 23.0142C21.8494 22.7585 21.9403 22.5398 22.125 22.358C22.3097 22.1761 22.5313 22.0852 22.7898 22.0852C23.0398 22.0852 23.2571 22.1761 23.4418 22.358C23.6293 22.5398 23.7244 22.7585 23.7273 23.0142C23.7244 23.1875 23.679 23.3452 23.5909 23.4872C23.5057 23.6293 23.392 23.7429 23.25 23.8281C23.1108 23.9105 22.9574 23.9517 22.7898 23.9517ZM22.7898 19.6264C22.5313 19.6264 22.3097 19.5355 22.125 19.3537C21.9403 19.169 21.8494 18.9474 21.8523 18.6889C21.8494 18.4332 21.9403 18.2145 22.125 18.0327C22.3097 17.848 22.5313 17.7557 22.7898 17.7557C23.0398 17.7557 23.2571 17.848 23.4418 18.0327C23.6293 18.2145 23.7244 18.4332 23.7273 18.6889C23.7244 18.8594 23.679 19.0156 23.5909 19.1577C23.5057 19.2997 23.392 19.4134 23.25 19.4986C23.1108 19.5838 22.9574 19.6264 22.7898 19.6264ZM28.3327 16.1534C28.7504 16.1562 29.1566 16.2301 29.5515 16.375C29.9492 16.517 30.3072 16.75 30.6254 17.0739C30.9435 17.3949 31.1964 17.8253 31.3839 18.3651C31.5714 18.9048 31.6651 19.5724 31.6651 20.3679C31.668 21.1179 31.5884 21.7884 31.4265 22.3793C31.2674 22.9673 31.0387 23.4645 30.7404 23.8707C30.4421 24.277 30.0827 24.5866 29.6623 24.7997C29.2418 25.0128 28.7688 25.1193 28.2433 25.1193C27.6921 25.1193 27.2035 25.0114 26.7773 24.7955C26.354 24.5795 26.0117 24.2841 25.7504 23.9091C25.489 23.5341 25.3285 23.1051 25.2688 22.6222H26.8242C26.9038 22.9687 27.0657 23.2443 27.31 23.4489C27.5572 23.6506 27.8683 23.7514 28.2433 23.7514C28.8484 23.7514 29.3143 23.4886 29.641 22.9631C29.9677 22.4375 30.131 21.7074 30.131 20.7727H30.0714C29.9322 21.0227 29.7518 21.2386 29.5302 21.4205C29.3086 21.5994 29.0572 21.7372 28.7759 21.8338C28.4975 21.9304 28.2021 21.9787 27.8896 21.9787C27.3782 21.9787 26.918 21.8565 26.5089 21.6122C26.1026 21.3679 25.7802 21.0327 25.5415 20.6065C25.3058 20.1804 25.1864 19.6932 25.1836 19.1449C25.1836 18.5767 25.3143 18.0668 25.5756 17.6151C25.8398 17.1605 26.2077 16.8026 26.6793 16.5412C27.1509 16.277 27.7021 16.1477 28.3327 16.1534ZM28.337 17.4318C28.0302 17.4318 27.7532 17.5071 27.506 17.6577C27.2617 17.8054 27.0685 18.0071 26.9265 18.2628C26.7873 18.5156 26.7177 18.7983 26.7177 19.1108C26.7205 19.4205 26.7901 19.7017 26.9265 19.9545C27.0657 20.2074 27.2546 20.4077 27.4933 20.5554C27.7347 20.7031 28.0103 20.777 28.32 20.777C28.5501 20.777 28.7646 20.733 28.9634 20.6449C29.1623 20.5568 29.3356 20.4347 29.4833 20.2784C29.6339 20.1193 29.7504 19.9389 29.8327 19.7372C29.918 19.5355 29.9592 19.3224 29.9563 19.098C29.9563 18.7997 29.8853 18.5241 29.7433 18.2713C29.604 18.0185 29.4123 17.8153 29.168 17.6619C28.9265 17.5085 28.6495 17.4318 28.337 17.4318Z" fill="white"/>
</svg>
