<svg width="27" height="29" viewBox="0 0 27 29" fill="none" xmlns="http://www.w3.org/2000/svg">
<path fill-rule="evenodd" clip-rule="evenodd" d="M25.5 5.15981L25.5 5.44544C25.5 5.69085 25.3009 5.88979 25.0553 5.88979C24.8097 5.88979 24.6106 5.69085 24.6106 5.44544L24.6106 5.17883C24.6106 4.67377 24.6103 4.32171 24.5879 4.04761C24.5659 3.77871 24.5249 3.62421 24.4652 3.50719C24.3373 3.25636 24.1333 3.05243 23.8822 2.92462C23.7651 2.865 23.6105 2.82404 23.3414 2.80207C23.0671 2.77967 22.7148 2.77933 22.2094 2.77933L21.9426 2.77933C21.697 2.77933 21.4979 2.58039 21.4979 2.33498C21.4979 2.08957 21.697 1.89063 21.9426 1.89063L22.2284 1.89062C22.7103 1.89062 23.0991 1.89062 23.4138 1.91632C23.7379 1.94278 24.0226 1.99868 24.286 2.13278C24.7044 2.34579 25.0445 2.68568 25.2577 3.10373C25.3919 3.36691 25.4478 3.65138 25.4743 3.97525C25.5 4.28979 25.5 4.67822 25.5 5.15981Z" fill="white"/>
<path fill-rule="evenodd" clip-rule="evenodd" d="M24.5879 25.5062C24.6103 25.2321 24.6106 24.8801 24.6106 24.375L24.6106 24.1084C24.6106 23.863 24.8097 23.6641 25.0553 23.6641C25.3009 23.6641 25.5 23.863 25.5 24.1084L25.5 24.394C25.5 24.8756 25.5 25.2641 25.4743 25.5786C25.4478 25.9025 25.3919 26.1869 25.2577 26.4501C25.0445 26.8682 24.7044 27.2081 24.286 27.4211C24.0226 27.5552 23.7379 27.6111 23.4138 27.6375C23.0991 27.6632 22.7103 27.6632 22.2284 27.6632L21.9426 27.6632C21.697 27.6632 21.4979 27.4643 21.4979 27.2189C21.4979 26.9735 21.697 26.7745 21.9426 26.7745L22.2094 26.7745C22.7148 26.7745 23.0671 26.7742 23.3414 26.7518C23.6105 26.7298 23.7651 26.6889 23.8822 26.6292C24.1333 26.5014 24.3373 26.2975 24.4652 26.0467C24.5249 25.9296 24.5659 25.7751 24.5879 25.5062Z" fill="white"/>
<path fill-rule="evenodd" clip-rule="evenodd" d="M5.5 27.2189C5.5 27.4643 5.30091 27.6632 5.05532 27.6632L4.76949 27.6632C4.28755 27.6632 3.89882 27.6632 3.58404 27.6375C3.25994 27.6111 2.97526 27.5552 2.71188 27.4211C2.29352 27.2081 1.95338 26.8682 1.74022 26.4501C1.60602 26.1869 1.55007 25.9025 1.52359 25.5786C1.49787 25.2641 1.49788 24.8756 1.49788 24.394L1.49788 24.1084C1.49788 23.863 1.69697 23.6641 1.94256 23.6641C2.18815 23.6641 2.38724 23.863 2.38724 24.1084L2.38724 24.375C2.38724 24.8801 2.38759 25.2321 2.41 25.5062C2.43198 25.7751 2.47297 25.9296 2.53264 26.0467C2.66054 26.2975 2.86462 26.5014 3.11564 26.6292C3.23275 26.6889 3.38736 26.7298 3.65646 26.7518C3.93076 26.7742 4.28309 26.7745 4.78851 26.7745L5.05532 26.7745C5.30091 26.7745 5.5 26.9735 5.5 27.2189Z" fill="white"/>
<path fill-rule="evenodd" clip-rule="evenodd" d="M5.5 2.33498C5.5 2.58039 5.30091 2.77933 5.05532 2.77933L4.78851 2.77933C4.28309 2.77933 3.93076 2.77967 3.65646 2.80207C3.38736 2.82404 3.23275 2.865 3.11564 2.92462C2.86462 3.05243 2.66054 3.25636 2.53264 3.50719C2.47297 3.62421 2.43198 3.77871 2.41 4.04761C2.38759 4.32171 2.38724 4.67377 2.38724 5.17883L2.38724 5.44544C2.38724 5.69085 2.18815 5.88979 1.94256 5.88979C1.69697 5.88979 1.49788 5.69085 1.49788 5.44544L1.49788 5.15982C1.49788 4.67823 1.49787 4.28979 1.52359 3.97525C1.55007 3.65138 1.60602 3.36691 1.74022 3.10373C1.95338 2.68568 2.29352 2.34579 2.71188 2.13278C2.97526 1.99868 3.25994 1.94278 3.58404 1.91632C3.89882 1.89062 4.28754 1.89062 4.76948 1.89063L5.05532 1.89063C5.30091 1.89063 5.5 2.08957 5.5 2.33498Z" fill="white"/>
<path d="M20.972 18.6926C20.6005 18.69 20.2379 18.6256 19.8841 18.4993C19.5304 18.3704 19.212 18.162 18.9289 17.874C18.6459 17.5834 18.421 17.1981 18.2542 16.7181C18.0875 16.2355 18.0053 15.638 18.0079 14.9255C18.0079 14.261 18.0786 13.6685 18.2201 13.148C18.3616 12.6276 18.5651 12.1879 18.8304 11.8292C19.0957 11.4679 19.4154 11.1925 19.7894 11.003C20.1659 10.8135 20.5866 10.7188 21.0516 10.7188C21.5393 10.7188 21.9714 10.8148 22.3479 11.0068C22.7269 11.1988 23.0327 11.4616 23.2652 11.7951C23.4977 12.126 23.6417 12.5 23.6973 12.9169H22.3138C22.243 12.6187 22.0977 12.3812 21.8779 12.2044C21.6606 12.025 21.3851 11.9353 21.0516 11.9353C20.5133 11.9353 20.0989 12.169 19.8083 12.6364C19.5202 13.1038 19.3749 13.7456 19.3724 14.5616H19.4255C19.5493 14.3393 19.7098 14.1486 19.9069 13.9894C20.104 13.8302 20.3263 13.7077 20.574 13.6218C20.8242 13.5333 21.0882 13.4891 21.3662 13.4891C21.821 13.4891 22.2291 13.5978 22.5905 13.815C22.9544 14.0323 23.2424 14.3317 23.4547 14.7132C23.667 15.0922 23.7718 15.5268 23.7693 16.0169C23.7718 16.5273 23.6556 16.9859 23.4206 17.3927C23.1856 17.7969 22.8583 18.1153 22.4389 18.3477C22.0194 18.5801 21.5304 18.6951 20.972 18.6926ZM20.9644 17.5556C21.2398 17.5556 21.4862 17.4887 21.7035 17.3548C21.9208 17.2209 22.0927 17.0402 22.219 16.8128C22.3454 16.5854 22.4073 16.3302 22.4048 16.0473C22.4073 15.7693 22.3466 15.518 22.2228 15.2931C22.1015 15.0682 21.9335 14.8901 21.7187 14.7587C21.5039 14.6273 21.2588 14.5616 20.9833 14.5616C20.7787 14.5616 20.5879 14.6008 20.411 14.6791C20.2341 14.7575 20.08 14.8661 19.9486 15.0051C19.8172 15.1415 19.7136 15.3007 19.6378 15.4826C19.5645 15.662 19.5266 15.854 19.524 16.0586C19.5266 16.329 19.5897 16.5778 19.7136 16.8052C19.8374 17.0326 20.0079 17.2145 20.2253 17.351C20.4426 17.4874 20.689 17.5556 20.9644 17.5556Z" fill="white"/>
<path d="M16.1711 10.8203V18.5844H14.7659V12.1889H14.7205L12.9062 13.3489V12.06L14.8341 10.8203H16.1711Z" fill="white"/>
<path d="M10.7316 17.6433C10.5019 17.6433 10.3049 17.5623 10.1409 17.4004C9.97676 17.2359 9.89597 17.0386 9.89849 16.8083C9.89597 16.5806 9.97676 16.3858 10.1409 16.2238C10.3049 16.0619 10.5019 15.9809 10.7316 15.9809C10.9538 15.9809 11.1469 16.0619 11.311 16.2238C11.4776 16.3858 11.5622 16.5806 11.5647 16.8083C11.5622 16.9626 11.5218 17.1031 11.4435 17.2296C11.3678 17.3561 11.2668 17.4573 11.1406 17.5332C11.0169 17.6066 10.8805 17.6433 10.7316 17.6433ZM10.7316 13.7911C10.5019 13.7911 10.3049 13.7101 10.1409 13.5482C9.97676 13.3837 9.89597 13.1864 9.89849 12.9562C9.89597 12.7284 9.97676 12.5336 10.1409 12.3717C10.3049 12.2072 10.5019 12.125 10.7316 12.125C10.9538 12.125 11.1469 12.2072 11.311 12.3717C11.4776 12.5336 11.5622 12.7284 11.5647 12.9562C11.5622 13.108 11.5218 13.2471 11.4435 13.3736C11.3678 13.5001 11.2668 13.6013 11.1406 13.6772C11.0169 13.7532 10.8805 13.7911 10.7316 13.7911Z" fill="white"/>
<path d="M5.61362 10.7189C5.98508 10.7214 6.34643 10.7871 6.69768 10.916C7.05145 11.0423 7.36985 11.2495 7.65286 11.5375C7.93588 11.823 8.16078 12.2058 8.32756 12.6858C8.49434 13.1659 8.57773 13.7596 8.57773 14.4671C8.58025 15.1341 8.5095 15.7303 8.36546 16.2559C8.22395 16.7789 8.02054 17.221 7.75521 17.5823C7.48988 17.9436 7.17022 18.219 6.79623 18.4085C6.42224 18.598 6.00151 18.6927 5.53402 18.6927C5.04379 18.6927 4.60916 18.5967 4.23012 18.4047C3.8536 18.2127 3.5491 17.9499 3.31663 17.6164C3.08415 17.2829 2.94137 16.9014 2.88831 16.4719H4.27181C4.34257 16.7801 4.4866 17.0252 4.70392 17.2071C4.92376 17.3865 5.20046 17.4762 5.53402 17.4762C6.07226 17.4762 6.48668 17.2425 6.77728 16.7751C7.06788 16.3077 7.21318 15.6583 7.21318 14.8271H7.16011C7.03629 15.0494 6.87583 15.2415 6.67873 15.4032C6.48163 15.5623 6.25799 15.6849 6.00782 15.7708C5.76018 15.8567 5.49738 15.8996 5.21942 15.8996C4.76457 15.8996 4.3552 15.791 3.99132 15.5737C3.62997 15.3564 3.34316 15.0583 3.1309 14.6793C2.92116 14.3003 2.81503 13.867 2.8125 13.3794C2.8125 12.8741 2.92874 12.4205 3.16122 12.0188C3.39622 11.6146 3.72346 11.2962 4.14294 11.0638C4.56241 10.8288 5.05264 10.7139 5.61362 10.7189ZM5.61741 11.8559C5.3445 11.8559 5.09812 11.9228 4.87828 12.0567C4.66096 12.1881 4.48913 12.3675 4.36278 12.5949C4.23896 12.8197 4.17705 13.0711 4.17705 13.3491C4.17958 13.6245 4.24149 13.8746 4.36278 14.0994C4.4866 14.3243 4.65464 14.5024 4.86691 14.6338C5.0817 14.7652 5.32681 14.8309 5.60225 14.8309C5.80693 14.8309 5.99772 14.7917 6.1746 14.7134C6.35149 14.6351 6.50563 14.5264 6.63703 14.3875C6.77096 14.246 6.87457 14.0856 6.94785 13.9062C7.02366 13.7268 7.0603 13.5373 7.05777 13.3377C7.05777 13.0724 6.9946 12.8273 6.86825 12.6025C6.74443 12.3776 6.57386 12.1969 6.35654 12.0605C6.14175 11.9241 5.89537 11.8559 5.61741 11.8559Z" fill="white"/>
</svg>
