<svg width="40" height="41" viewBox="0 0 40 41" fill="none" xmlns="http://www.w3.org/2000/svg">
<g clip-path="url(#clip0_26160_90150)">
<path d="M8.5 12.2266V11.9266C8.5 10.8065 8.5 10.2464 8.71799 9.81858C8.90973 9.44226 9.21569 9.1363 9.59202 8.94455C10.0198 8.72656 10.5799 8.72656 11.7 8.72656H12" stroke="white" stroke-linecap="round"/>
<path d="M28 8.72656H28.3C29.4201 8.72656 29.9802 8.72656 30.408 8.94455C30.7843 9.1363 31.0903 9.44226 31.282 9.81858C31.5 10.2464 31.5 10.8065 31.5 11.9266V12.2266" stroke="white" stroke-linecap="round"/>
<path d="M31.5 28.2266V28.5266C31.5 29.6467 31.5 30.2067 31.282 30.6345C31.0903 31.0109 30.7843 31.3168 30.408 31.5086C29.9802 31.7266 29.4201 31.7266 28.3 31.7266H28" stroke="white" stroke-linecap="round"/>
<path d="M8.5 28.2266V28.5266C8.5 29.6467 8.5 30.2067 8.71799 30.6345C8.90973 31.0109 9.21569 31.3168 9.59202 31.5086C10.0198 31.7266 10.5799 31.7266 11.7 31.7266H12" stroke="white" stroke-linecap="round"/>
</g>
<defs>
<clipPath id="clip0_26160_90150">
<rect width="24" height="24" fill="white" transform="translate(8 8.22656)"/>
</clipPath>
</defs>
</svg>
