<svg width="41" height="41" viewBox="0 0 41 41" fill="none" xmlns="http://www.w3.org/2000/svg">
<path d="M27.8816 28.7689L20.5736 21.4609L17.4536 24.5799C17.6003 24.8299 17.7083 25.0932 17.7776 25.3699C17.847 25.6465 17.8816 25.9332 17.8816 26.2299C17.8816 27.1399 17.558 27.9185 16.9106 28.5659C16.2633 29.2139 15.485 29.5379 14.5756 29.5379C13.6663 29.5379 12.8873 29.2142 12.2386 28.5669C11.59 27.9195 11.2656 27.1412 11.2656 26.2319C11.2656 25.3225 11.5896 24.5439 12.2376 23.8959C12.8856 23.2465 13.6643 22.9219 14.5736 22.9219C14.8696 22.9219 15.1563 22.9565 15.4336 23.0259C15.7103 23.0952 15.9736 23.2029 16.2236 23.3489L19.3436 20.2299L16.2236 17.1099C15.9736 17.2565 15.7103 17.3645 15.4336 17.4339C15.157 17.5032 14.8703 17.5379 14.5736 17.5379C13.6643 17.5379 12.8856 17.2142 12.2376 16.5669C11.5896 15.9195 11.2656 15.1412 11.2656 14.2319C11.2656 13.3225 11.5893 12.5439 12.2366 11.8959C12.884 11.2465 13.6623 10.9219 14.5716 10.9219C15.481 10.9219 16.2596 11.2459 16.9076 11.8939C17.557 12.5419 17.8816 13.3205 17.8816 14.2299C17.8816 14.5259 17.847 14.8125 17.7776 15.0899C17.7083 15.3665 17.6006 15.6299 17.4546 15.8799L29.7266 28.1529V28.7689H27.8816ZM23.1116 18.9219L21.8816 17.6919L27.8816 11.6919H29.7276V12.3069L23.1116 18.9219ZM14.5746 16.5379C15.2093 16.5379 15.7526 16.3119 16.2046 15.8599C16.6566 15.4079 16.882 14.8645 16.8806 14.2299C16.8793 13.5952 16.6536 13.0519 16.2036 12.5999C15.7536 12.1479 15.2103 11.9219 14.5736 11.9219C13.937 11.9219 13.3936 12.1479 12.9436 12.5999C12.4936 13.0519 12.2676 13.5952 12.2656 14.2299C12.2636 14.8645 12.4896 15.4079 12.9436 15.8599C13.3976 16.3119 13.942 16.5379 14.5746 16.5379ZM14.5736 28.5379C15.2083 28.5379 15.7516 28.3119 16.2036 27.8599C16.6556 27.4079 16.8813 26.8645 16.8806 26.2299C16.88 25.5952 16.6543 25.0519 16.2036 24.5999C15.753 24.1479 15.2096 23.9219 14.5736 23.9219C13.9376 23.9219 13.3943 24.1479 12.9436 24.5999C12.493 25.0519 12.267 25.5952 12.2656 26.2299C12.2643 26.8645 12.4903 27.4079 12.9436 27.8599C13.397 28.3119 13.9403 28.5379 14.5736 28.5379Z" fill="white"/>
</svg>
