<svg width="40" height="41" viewBox="0 0 40 41" fill="none" xmlns="http://www.w3.org/2000/svg">
<g clip-path="url(#clip0_26160_90142)">
<path d="M8.5 12.2266V11.9266C8.5 10.8065 8.5 10.2464 8.71799 9.81858C8.90973 9.44226 9.21569 9.1363 9.59202 8.94455C10.0198 8.72656 10.5799 8.72656 11.7 8.72656H12" stroke="white" stroke-linecap="round"/>
<path d="M28 8.72656H28.3C29.4201 8.72656 29.9802 8.72656 30.408 8.94455C30.7843 9.1363 31.0903 9.44226 31.282 9.81858C31.5 10.2464 31.5 10.8065 31.5 11.9266V12.2266" stroke="white" stroke-linecap="round"/>
<path d="M31.5 28.2266V28.5266C31.5 29.6467 31.5 30.2067 31.282 30.6345C31.0903 31.0109 30.7843 31.3168 30.408 31.5086C29.9802 31.7266 29.4201 31.7266 28.3 31.7266H28" stroke="white" stroke-linecap="round"/>
<path d="M8.5 28.2266V28.5266C8.5 29.6467 8.5 30.2067 8.71799 30.6345C8.90973 31.0109 9.21569 31.3168 9.59202 31.5086C10.0198 31.7266 10.5799 31.7266 11.7 31.7266H12" stroke="white" stroke-linecap="round"/>
<path d="M10.6179 23.3807V22.1236L14.321 16.2727H15.3693V18.0625H14.7301L12.2372 22.0128V22.081H17.4062V23.3807H10.6179ZM14.7812 25V22.9972L14.7983 22.4347V16.2727H16.2898V25H14.7812ZM19.7351 23.9517C19.4766 23.9517 19.255 23.8608 19.0703 23.679C18.8857 23.4943 18.7947 23.2727 18.7976 23.0142C18.7947 22.7585 18.8857 22.5398 19.0703 22.358C19.255 22.1761 19.4766 22.0852 19.7351 22.0852C19.9851 22.0852 20.2024 22.1761 20.3871 22.358C20.5746 22.5398 20.6697 22.7585 20.6726 23.0142C20.6697 23.1875 20.6243 23.3452 20.5362 23.4872C20.451 23.6293 20.3374 23.7429 20.1953 23.8281C20.0561 23.9105 19.9027 23.9517 19.7351 23.9517ZM19.7351 19.6264C19.4766 19.6264 19.255 19.5355 19.0703 19.3537C18.8857 19.169 18.7947 18.9474 18.7976 18.6889C18.7947 18.4332 18.8857 18.2145 19.0703 18.0327C19.255 17.848 19.4766 17.7557 19.7351 17.7557C19.9851 17.7557 20.2024 17.848 20.3871 18.0327C20.5746 18.2145 20.6697 18.4332 20.6726 18.6889C20.6697 18.8594 20.6243 19.0156 20.5362 19.1577C20.451 19.2997 20.3374 19.4134 20.1953 19.4986C20.0561 19.5838 19.9027 19.6264 19.7351 19.6264ZM25.3803 25.1193C24.7667 25.1193 24.2212 25.0142 23.744 24.804C23.2695 24.5937 22.8945 24.3011 22.619 23.9261C22.3434 23.5511 22.1971 23.1179 22.18 22.6264H23.7823C23.7965 22.8622 23.8746 23.0682 24.0167 23.2443C24.1587 23.4176 24.3477 23.5526 24.5835 23.6491C24.8192 23.7457 25.0835 23.794 25.3761 23.794C25.6886 23.794 25.9656 23.7401 26.207 23.6321C26.4485 23.5213 26.6374 23.3679 26.7738 23.1719C26.9102 22.9759 26.9769 22.75 26.9741 22.4943C26.9769 22.2301 26.9087 21.9972 26.7695 21.7955C26.6303 21.5937 26.4286 21.4361 26.1644 21.3224C25.9031 21.2088 25.5877 21.152 25.2184 21.152H24.4471V19.9332H25.2184C25.5224 19.9332 25.788 19.8807 26.0153 19.7756C26.2454 19.6705 26.4258 19.5227 26.5565 19.3324C26.6871 19.1392 26.7511 18.9162 26.7482 18.6634C26.7511 18.4162 26.6957 18.2017 26.582 18.0199C26.4712 17.8352 26.3136 17.6918 26.109 17.5895C25.9073 17.4872 25.6701 17.4361 25.3974 17.4361C25.1303 17.4361 24.8832 17.4844 24.6559 17.581C24.4286 17.6776 24.2454 17.8153 24.1062 17.9943C23.967 18.1705 23.8931 18.3807 23.8846 18.625H22.3633C22.3746 18.1364 22.5153 17.7074 22.7852 17.3381C23.0579 16.9659 23.4215 16.6761 23.8761 16.4688C24.3306 16.2585 24.8406 16.1534 25.4059 16.1534C25.9883 16.1534 26.494 16.2628 26.9229 16.4815C27.3548 16.6974 27.6886 16.9886 27.9244 17.3551C28.1602 17.7216 28.2781 18.1264 28.2781 18.5696C28.2809 19.0611 28.136 19.473 27.8434 19.8054C27.5536 20.1378 27.1729 20.3551 26.7013 20.4574V20.5256C27.315 20.6108 27.7852 20.8381 28.1119 21.2074C28.4414 21.5739 28.6048 22.0298 28.6019 22.5753C28.6019 23.0639 28.4627 23.5014 28.1843 23.8878C27.9087 24.2713 27.5281 24.5724 27.0423 24.7912C26.5593 25.0099 26.0053 25.1193 25.3803 25.1193Z" fill="white"/>
</g>
<defs>
<clipPath id="clip0_26160_90142">
<rect width="24" height="24" fill="white" transform="translate(8 8.22656)"/>
</clipPath>
</defs>
</svg>
