<svg width="40" height="40" viewBox="0 0 40 40" fill="none" xmlns="http://www.w3.org/2000/svg">
<path fill-rule="evenodd" clip-rule="evenodd" d="M32.5 11.1598L32.5 11.4454C32.5 11.6908 32.3009 11.8898 32.0553 11.8898C31.8097 11.8898 31.6106 11.6908 31.6106 11.4454L31.6106 11.1788C31.6106 10.6738 31.6103 10.3217 31.5879 10.0476C31.5659 9.77871 31.5249 9.62421 31.4652 9.50719C31.3373 9.25636 31.1333 9.05243 30.8822 8.92462C30.7651 8.865 30.6105 8.82404 30.3414 8.80207C30.0671 8.77967 29.7148 8.77933 29.2094 8.77933L28.9426 8.77933C28.697 8.77933 28.4979 8.58039 28.4979 8.33498C28.4979 8.08957 28.697 7.89063 28.9426 7.89063L29.2284 7.89062C29.7103 7.89062 30.0991 7.89062 30.4138 7.91632C30.7379 7.94278 31.0226 7.99868 31.286 8.13278C31.7044 8.34579 32.0445 8.68568 32.2577 9.10373C32.3919 9.36691 32.4478 9.65138 32.4743 9.97525C32.5 10.2898 32.5 10.6782 32.5 11.1598Z" fill="white"/>
<path fill-rule="evenodd" clip-rule="evenodd" d="M31.5879 31.5062C31.6103 31.2321 31.6106 30.8801 31.6106 30.375L31.6106 30.1084C31.6106 29.863 31.8097 29.6641 32.0553 29.6641C32.3009 29.6641 32.5 29.863 32.5 30.1084L32.5 30.394C32.5 30.8756 32.5 31.2641 32.4743 31.5786C32.4478 31.9025 32.3919 32.1869 32.2577 32.4501C32.0445 32.8682 31.7044 33.2081 31.286 33.4211C31.0226 33.5552 30.7379 33.6111 30.4138 33.6375C30.0991 33.6632 29.7103 33.6632 29.2284 33.6632L28.9426 33.6632C28.697 33.6632 28.4979 33.4643 28.4979 33.2189C28.4979 32.9735 28.697 32.7745 28.9426 32.7745L29.2094 32.7745C29.7148 32.7745 30.0671 32.7742 30.3414 32.7518C30.6105 32.7298 30.7651 32.6889 30.8822 32.6292C31.1333 32.5014 31.3373 32.2975 31.4652 32.0467C31.5249 31.9296 31.5659 31.7751 31.5879 31.5062Z" fill="white"/>
<path fill-rule="evenodd" clip-rule="evenodd" d="M12.5 33.2189C12.5 33.4643 12.3009 33.6632 12.0553 33.6632L11.7695 33.6632C11.2875 33.6632 10.8988 33.6632 10.584 33.6375C10.2599 33.6111 9.97526 33.5552 9.71188 33.4211C9.29352 33.2081 8.95338 32.8682 8.74022 32.4501C8.60602 32.1869 8.55007 31.9025 8.52359 31.5786C8.49787 31.2641 8.49788 30.8756 8.49788 30.394L8.49788 30.1084C8.49788 29.863 8.69697 29.6641 8.94256 29.6641C9.18815 29.6641 9.38724 29.863 9.38724 30.1084L9.38724 30.375C9.38724 30.8801 9.38759 31.2321 9.41 31.5062C9.43198 31.7751 9.47297 31.9296 9.53264 32.0467C9.66054 32.2975 9.86462 32.5014 10.1156 32.6292C10.2327 32.6889 10.3874 32.7298 10.6565 32.7518C10.9308 32.7742 11.2831 32.7745 11.7885 32.7745L12.0553 32.7745C12.3009 32.7745 12.5 32.9735 12.5 33.2189Z" fill="white"/>
<path fill-rule="evenodd" clip-rule="evenodd" d="M12.5 8.33498C12.5 8.58039 12.3009 8.77933 12.0553 8.77933L11.7885 8.77933C11.2831 8.77933 10.9308 8.77967 10.6565 8.80207C10.3874 8.82404 10.2327 8.865 10.1156 8.92462C9.86462 9.05243 9.66054 9.25636 9.53264 9.50719C9.47297 9.62421 9.43198 9.77871 9.41 10.0476C9.38759 10.3217 9.38724 10.6738 9.38724 11.1788L9.38724 11.4454C9.38724 11.6908 9.18815 11.8898 8.94256 11.8898C8.69697 11.8898 8.49788 11.6908 8.49788 11.4454L8.49788 11.1598C8.49788 10.6782 8.49787 10.2898 8.52359 9.97525C8.55007 9.65138 8.60602 9.36691 8.74022 9.10373C8.95338 8.68568 9.29352 8.34579 9.71188 8.13278C9.97526 7.99868 10.2599 7.94278 10.584 7.91632C10.8988 7.89062 11.2875 7.89062 11.7695 7.89063L12.0553 7.89063C12.3009 7.89063 12.5 8.08957 12.5 8.33498Z" fill="white"/>
<path d="M27.972 24.6926C27.6005 24.69 27.2379 24.6256 26.8841 24.4993C26.5304 24.3704 26.212 24.162 25.9289 23.874C25.6459 23.5834 25.421 23.1981 25.2542 22.7181C25.0875 22.2355 25.0053 21.638 25.0079 20.9255C25.0079 20.261 25.0786 19.6685 25.2201 19.148C25.3616 18.6276 25.5651 18.1879 25.8304 17.8292C26.0957 17.4679 26.4154 17.1925 26.7894 17.003C27.1659 16.8135 27.5866 16.7188 28.0516 16.7188C28.5393 16.7188 28.9714 16.8148 29.3479 17.0068C29.7269 17.1988 30.0327 17.4616 30.2652 17.7951C30.4977 18.126 30.6417 18.5 30.6973 18.9169H29.3138C29.243 18.6187 29.0977 18.3812 28.8779 18.2044C28.6606 18.025 28.3851 17.9353 28.0516 17.9353C27.5133 17.9353 27.0989 18.169 26.8083 18.6364C26.5202 19.1038 26.3749 19.7456 26.3724 20.5616H26.4255C26.5493 20.3393 26.7098 20.1486 26.9069 19.9894C27.104 19.8302 27.3263 19.7077 27.574 19.6218C27.8242 19.5333 28.0882 19.4891 28.3662 19.4891C28.821 19.4891 29.2291 19.5978 29.5905 19.815C29.9544 20.0323 30.2424 20.3317 30.4547 20.7132C30.667 21.0922 30.7718 21.5268 30.7693 22.0169C30.7718 22.5273 30.6556 22.9859 30.4206 23.3927C30.1856 23.7969 29.8583 24.1153 29.4389 24.3477C29.0194 24.5801 28.5304 24.6951 27.972 24.6926ZM27.9644 23.5556C28.2398 23.5556 28.4862 23.4887 28.7035 23.3548C28.9208 23.2209 29.0927 23.0402 29.219 22.8128C29.3454 22.5854 29.4073 22.3302 29.4048 22.0473C29.4073 21.7693 29.3466 21.518 29.2228 21.2931C29.1015 21.0682 28.9335 20.8901 28.7187 20.7587C28.5039 20.6273 28.2588 20.5616 27.9833 20.5616C27.7787 20.5616 27.5879 20.6008 27.411 20.6791C27.2341 20.7575 27.08 20.8661 26.9486 21.0051C26.8172 21.1415 26.7136 21.3007 26.6378 21.4826C26.5645 21.662 26.5266 21.854 26.524 22.0586C26.5266 22.329 26.5897 22.5778 26.7136 22.8052C26.8374 23.0326 27.0079 23.2145 27.2253 23.351C27.4426 23.4874 27.689 23.5556 27.9644 23.5556Z" fill="white"/>
<path d="M23.1711 16.8203V24.5844H21.7659V18.1889H21.7205L19.9062 19.3489V18.06L21.8341 16.8203H23.1711Z" fill="white"/>
<path d="M17.7316 23.6433C17.5019 23.6433 17.3049 23.5623 17.1409 23.4004C16.9768 23.2359 16.896 23.0386 16.8985 22.8083C16.896 22.5806 16.9768 22.3858 17.1409 22.2238C17.3049 22.0619 17.5019 21.9809 17.7316 21.9809C17.9538 21.9809 18.1469 22.0619 18.311 22.2238C18.4776 22.3858 18.5622 22.5806 18.5647 22.8083C18.5622 22.9626 18.5218 23.1031 18.4435 23.2296C18.3678 23.3561 18.2668 23.4573 18.1406 23.5332C18.0169 23.6066 17.8805 23.6433 17.7316 23.6433ZM17.7316 19.7911C17.5019 19.7911 17.3049 19.7101 17.1409 19.5482C16.9768 19.3837 16.896 19.1864 16.8985 18.9562C16.896 18.7284 16.9768 18.5336 17.1409 18.3717C17.3049 18.2072 17.5019 18.125 17.7316 18.125C17.9538 18.125 18.1469 18.2072 18.311 18.3717C18.4776 18.5336 18.5622 18.7284 18.5647 18.9562C18.5622 19.108 18.5218 19.2471 18.4435 19.3736C18.3678 19.5001 18.2668 19.6013 18.1406 19.6772C18.0169 19.7532 17.8805 19.7911 17.7316 19.7911Z" fill="white"/>
<path d="M12.6136 16.7189C12.9851 16.7214 13.3464 16.7871 13.6977 16.916C14.0515 17.0423 14.3698 17.2495 14.6529 17.5375C14.9359 17.823 15.1608 18.2058 15.3276 18.6858C15.4943 19.1659 15.5777 19.7596 15.5777 20.4671C15.5803 21.1341 15.5095 21.7303 15.3655 22.2559C15.224 22.7789 15.0205 23.221 14.7552 23.5823C14.4899 23.9436 14.1702 24.219 13.7962 24.4085C13.4222 24.598 13.0015 24.6927 12.534 24.6927C12.0438 24.6927 11.6092 24.5967 11.2301 24.4047C10.8536 24.2127 10.5491 23.9499 10.3166 23.6164C10.0841 23.2829 9.94137 22.9014 9.88831 22.4719H11.2718C11.3426 22.7801 11.4866 23.0252 11.7039 23.2071C11.9238 23.3865 12.2005 23.4762 12.534 23.4762C13.0723 23.4762 13.4867 23.2425 13.7773 22.7751C14.0679 22.3077 14.2132 21.6583 14.2132 20.8271H14.1601C14.0363 21.0494 13.8758 21.2415 13.6787 21.4032C13.4816 21.5623 13.258 21.6849 13.0078 21.7708C12.7602 21.8567 12.4974 21.8996 12.2194 21.8996C11.7646 21.8996 11.3552 21.791 10.9913 21.5737C10.63 21.3564 10.3432 21.0583 10.1309 20.6793C9.92116 20.3003 9.81503 19.867 9.8125 19.3794C9.8125 18.8741 9.92874 18.4205 10.1612 18.0188C10.3962 17.6146 10.7235 17.2962 11.1429 17.0638C11.5624 16.8288 12.0526 16.7139 12.6136 16.7189ZM12.6174 17.8559C12.3445 17.8559 12.0981 17.9228 11.8783 18.0567C11.661 18.1881 11.4891 18.3675 11.3628 18.5949C11.239 18.8197 11.1771 19.0711 11.1771 19.3491C11.1796 19.6245 11.2415 19.8746 11.3628 20.0994C11.4866 20.3243 11.6546 20.5024 11.8669 20.6338C12.0817 20.7652 12.3268 20.8309 12.6022 20.8309C12.8069 20.8309 12.9977 20.7917 13.1746 20.7134C13.3515 20.6351 13.5056 20.5264 13.637 20.3875C13.771 20.246 13.8746 20.0856 13.9478 19.9062C14.0237 19.7268 14.0603 19.5373 14.0578 19.3377C14.0578 19.0724 13.9946 18.8273 13.8682 18.6025C13.7444 18.3776 13.5739 18.1969 13.3565 18.0605C13.1418 17.9241 12.8954 17.8559 12.6174 17.8559Z" fill="white"/>
</svg>
