<svg width="40" height="41" viewBox="0 0 40 41" fill="none" xmlns="http://www.w3.org/2000/svg">
<g clip-path="url(#clip0_26160_90104)">
<path d="M8.5 12.2266V11.9266C8.5 10.8065 8.5 10.2464 8.71799 9.81858C8.90973 9.44226 9.21569 9.1363 9.59202 8.94455C10.0198 8.72656 10.5799 8.72656 11.7 8.72656H12" stroke="white" stroke-linecap="round"/>
<path d="M28 8.72656H28.3C29.4201 8.72656 29.9802 8.72656 30.408 8.94455C30.7843 9.1363 31.0903 9.44226 31.282 9.81858C31.5 10.2464 31.5 10.8065 31.5 11.9266V12.2266" stroke="white" stroke-linecap="round"/>
<path d="M31.5 28.2266V28.5266C31.5 29.6467 31.5 30.2067 31.282 30.6345C31.0903 31.0109 30.7843 31.3168 30.408 31.5086C29.9802 31.7266 29.4201 31.7266 28.3 31.7266H28" stroke="white" stroke-linecap="round"/>
<path d="M8.5 28.2266V28.5266C8.5 29.6467 8.5 30.2067 8.71799 30.6345C8.90973 31.0109 9.21569 31.3168 9.59202 31.5086C10.0198 31.7266 10.5799 31.7266 11.7 31.7266H12" stroke="white" stroke-linecap="round"/>
<path d="M16.3253 15.4993V24.2266H14.7443V17.0376H14.6932L12.652 18.3416V16.8928L14.821 15.4993H16.3253ZM19.5085 23.1783C19.25 23.1783 19.0284 23.0874 18.8438 22.9055C18.6591 22.7209 18.5682 22.4993 18.571 22.2408C18.5682 21.9851 18.6591 21.7663 18.8438 21.5845C19.0284 21.4027 19.25 21.3118 19.5085 21.3118C19.7585 21.3118 19.9759 21.4027 20.1605 21.5845C20.348 21.7663 20.4432 21.9851 20.446 22.2408C20.4432 22.4141 20.3977 22.5717 20.3097 22.7138C20.2244 22.8558 20.1108 22.9695 19.9688 23.0547C19.8295 23.1371 19.6761 23.1783 19.5085 23.1783ZM19.5085 18.853C19.25 18.853 19.0284 18.7621 18.8438 18.5803C18.6591 18.3956 18.5682 18.174 18.571 17.9155C18.5682 17.6598 18.6591 17.4411 18.8438 17.2592C19.0284 17.0746 19.25 16.9822 19.5085 16.9822C19.7585 16.9822 19.9759 17.0746 20.1605 17.2592C20.348 17.4411 20.4432 17.6598 20.446 17.9155C20.4432 18.0859 20.3977 18.2422 20.3097 18.3842C20.2244 18.5263 20.1108 18.6399 19.9688 18.7251C19.8295 18.8104 19.6761 18.853 19.5085 18.853ZM25.5714 15.4993V24.2266H23.9904V17.0376H23.9393L21.8981 18.3416V16.8928L24.0671 15.4993H25.5714Z" fill="white"/>
</g>
<defs>
<clipPath id="clip0_26160_90104">
<rect width="24" height="24" fill="white" transform="translate(8 8.22656)"/>
</clipPath>
</defs>
</svg>
