<svg width="40" height="40" viewBox="0 0 40 40" fill="none" xmlns="http://www.w3.org/2000/svg">
<path d="M30 6.5L30.3 6.5C31.4201 6.5 31.9802 6.5 32.408 6.71799C32.7843 6.90973 33.0903 7.21569 33.282 7.59202C33.5 8.01984 33.5 8.57989 33.5 9.7L33.5 10" stroke="white" stroke-linecap="round"/>
<path d="M33.5 31L33.5 31.3C33.5 32.4201 33.5 32.9802 33.282 33.408C33.0903 33.7843 32.7843 34.0903 32.408 34.282C31.9802 34.5 31.4201 34.5 30.3 34.5L30 34.5" stroke="white" stroke-linecap="round"/>
<path d="M11 34.5L10.7 34.5C9.57989 34.5 9.01984 34.5 8.59202 34.282C8.21569 34.0903 7.90973 33.7843 7.71799 33.408C7.5 32.9802 7.5 32.4201 7.5 31.3L7.5 31" stroke="white" stroke-linecap="round"/>
<path d="M11 6.5L10.7 6.5C9.57989 6.5 9.01984 6.5 8.59202 6.71799C8.21569 6.90973 7.90973 7.21569 7.71799 7.59202C7.5 8.01984 7.5 8.57989 7.5 9.7L7.5 10" stroke="white" stroke-linecap="round"/>
<path d="M11.8054 16.1534C12.223 16.1562 12.6293 16.2301 13.0241 16.375C13.4219 16.517 13.7798 16.75 14.098 17.0739C14.4162 17.3949 14.669 17.8253 14.8565 18.3651C15.044 18.9048 15.1378 19.5724 15.1378 20.3679C15.1406 21.1179 15.0611 21.7884 14.8991 22.3793C14.7401 22.9673 14.5114 23.4645 14.2131 23.8707C13.9148 24.277 13.5554 24.5866 13.1349 24.7997C12.7145 25.0128 12.2415 25.1193 11.7159 25.1193C11.1648 25.1193 10.6761 25.0114 10.25 24.7955C9.8267 24.5795 9.48438 24.2841 9.22301 23.9091C8.96165 23.5341 8.80114 23.1051 8.74148 22.6222H10.2969C10.3764 22.9687 10.5384 23.2443 10.7827 23.4489C11.0298 23.6506 11.3409 23.7514 11.7159 23.7514C12.321 23.7514 12.7869 23.4886 13.1136 22.9631C13.4403 22.4375 13.6037 21.7074 13.6037 20.7727H13.544C13.4048 21.0227 13.2244 21.2386 13.0028 21.4205C12.7813 21.5994 12.5298 21.7372 12.2486 21.8338C11.9702 21.9304 11.6747 21.9787 11.3622 21.9787C10.8509 21.9787 10.3906 21.8565 9.98153 21.6122C9.57528 21.3679 9.25284 21.0327 9.0142 20.6065C8.77841 20.1804 8.65909 19.6932 8.65625 19.1449C8.65625 18.5767 8.78693 18.0668 9.0483 17.6151C9.3125 17.1605 9.6804 16.8026 10.152 16.5412C10.6236 16.277 11.1747 16.1477 11.8054 16.1534ZM11.8097 17.4318C11.5028 17.4318 11.2259 17.5071 10.9787 17.6577C10.7344 17.8054 10.5412 18.0071 10.3991 18.2628C10.2599 18.5156 10.1903 18.7983 10.1903 19.1108C10.1932 19.4205 10.2628 19.7017 10.3991 19.9545C10.5384 20.2074 10.7273 20.4077 10.9659 20.5554C11.2074 20.7031 11.483 20.777 11.7926 20.777C12.0227 20.777 12.2372 20.733 12.4361 20.6449C12.6349 20.5568 12.8082 20.4347 12.956 20.2784C13.1065 20.1193 13.223 19.9389 13.3054 19.7372C13.3906 19.5355 13.4318 19.3224 13.429 19.098C13.429 18.7997 13.358 18.5241 13.2159 18.2713C13.0767 18.0185 12.8849 17.8153 12.6406 17.6619C12.3991 17.5085 12.1222 17.4318 11.8097 17.4318ZM17.5241 23.9517C17.2656 23.9517 17.044 23.8608 16.8594 23.679C16.6747 23.4943 16.5838 23.2727 16.5866 23.0142C16.5838 22.7585 16.6747 22.5398 16.8594 22.358C17.044 22.1761 17.2656 22.0852 17.5241 22.0852C17.7741 22.0852 17.9915 22.1761 18.1761 22.358C18.3636 22.5398 18.4588 22.7585 18.4616 23.0142C18.4588 23.1875 18.4134 23.3452 18.3253 23.4872C18.2401 23.6293 18.1264 23.7429 17.9844 23.8281C17.8452 23.9105 17.6918 23.9517 17.5241 23.9517ZM17.5241 19.6264C17.2656 19.6264 17.044 19.5355 16.8594 19.3537C16.6747 19.169 16.5838 18.9474 16.5866 18.6889C16.5838 18.4332 16.6747 18.2145 16.8594 18.0327C17.044 17.848 17.2656 17.7557 17.5241 17.7557C17.7741 17.7557 17.9915 17.848 18.1761 18.0327C18.3636 18.2145 18.4588 18.4332 18.4616 18.6889C18.4588 18.8594 18.4134 19.0156 18.3253 19.1577C18.2401 19.2997 18.1264 19.4134 17.9844 19.4986C17.8452 19.5838 17.6918 19.6264 17.5241 19.6264ZM23.587 16.2727V25H22.006V17.8111H21.9549L19.9137 19.1151V17.6662L22.0827 16.2727H23.587ZM28.9989 25.1193C28.5813 25.1165 28.1737 25.044 27.7759 24.902C27.3782 24.7571 27.0202 24.5227 26.7021 24.1989C26.3839 23.8722 26.131 23.4389 25.9435 22.8991C25.756 22.3565 25.6637 21.6847 25.6665 20.8835C25.6665 20.1364 25.7461 19.4702 25.9052 18.8849C26.0643 18.2997 26.293 17.8054 26.5913 17.402C26.8896 16.9957 27.2489 16.6861 27.6694 16.473C28.0927 16.2599 28.5657 16.1534 29.0884 16.1534C29.6367 16.1534 30.1225 16.2614 30.5458 16.4773C30.9719 16.6932 31.3157 16.9886 31.5771 17.3636C31.8384 17.7358 32.0004 18.1562 32.0629 18.625H30.5075C30.4279 18.2898 30.2646 18.0227 30.0174 17.8239C29.7731 17.6222 29.4634 17.5213 29.0884 17.5213C28.4833 17.5213 28.0174 17.7841 27.6907 18.3097C27.3668 18.8352 27.2035 19.5568 27.2006 20.4744H27.2603C27.3995 20.2244 27.5799 20.0099 27.8015 19.831C28.0231 19.652 28.2731 19.5142 28.5515 19.4176C28.8327 19.3182 29.1296 19.2685 29.4421 19.2685C29.9535 19.2685 30.4123 19.3906 30.8185 19.6349C31.2276 19.8793 31.5515 20.2159 31.7901 20.6449C32.0288 21.071 32.1467 21.5597 32.1438 22.1108C32.1467 22.6847 32.016 23.2003 31.7518 23.6577C31.4876 24.1122 31.1197 24.4702 30.6481 24.7315C30.1765 24.9929 29.6268 25.1222 28.9989 25.1193ZM28.9904 23.8409C29.3001 23.8409 29.5771 23.7656 29.8214 23.6151C30.0657 23.4645 30.2589 23.2614 30.4009 23.0057C30.543 22.75 30.6126 22.4631 30.6097 22.1449C30.6126 21.8324 30.5444 21.5497 30.4052 21.2969C30.2688 21.044 30.0799 20.8437 29.8384 20.696C29.5969 20.5483 29.3214 20.4744 29.0117 20.4744C28.7816 20.4744 28.5671 20.5185 28.3683 20.6065C28.1694 20.6946 27.9961 20.8168 27.8484 20.973C27.7006 21.1264 27.5842 21.3054 27.4989 21.5099C27.4165 21.7116 27.3739 21.9276 27.3711 22.1577C27.3739 22.4616 27.445 22.7415 27.5842 22.9972C27.7234 23.2528 27.9151 23.4574 28.1594 23.6108C28.4038 23.7642 28.6808 23.8409 28.9904 23.8409Z" fill="white"/>
</svg>
